<?xml version="1.0"?>
<!-- Generated by SVGo and Plotinum VG -->
<svg width="12in" height="8in"
	xmlns="http://www.w3.org/2000/svg"
	xmlns:xlink="http://www.w3.org/1999/xlink">
<g transform="scale(1, -1) translate(0, -720)">
<path d="M0,0L1080,0L1080,720L0,720Z" style="fill:#FFFFFF" />
<text x="209.7" y="-705.6" transform="scale(1, -1)"
	style="font-family:Helvetica;font-weight:normal;font-style:normal;font-size:12pt">Write 600K keys, 1000-client, 1000-conn, 8-byte key, 256-byte value (etcd v2), Latency(millisecond)</text>
<text x="541.5" y="-4.8486" transform="scale(1, -1)"
	style="font-family:Helvetica;font-weight:normal;font-style:normal;font-size:12pt">Second</text>
<text x="50.406" y="-19.498" transform="scale(1, -1)"
	style="font-family:Helvetica;font-weight:normal;font-style:normal;font-size:10pt">0</text>
<text x="352.21" y="-19.498" transform="scale(1, -1)"
	style="font-family:Helvetica;font-weight:normal;font-style:normal;font-size:10pt">5</text>
<text x="650.53" y="-19.498" transform="scale(1, -1)"
	style="font-family:Helvetica;font-weight:normal;font-style:normal;font-size:10pt">10</text>
<text x="952.33" y="-19.498" transform="scale(1, -1)"
	style="font-family:Helvetica;font-weight:normal;font-style:normal;font-size:10pt">15</text>
<path d="M53.882,31.498L53.882,41.498" style="fill:none;stroke:#000000;stroke-width:0.625" />
<path d="M355.68,31.498L355.68,41.498" style="fill:none;stroke:#000000;stroke-width:0.625" />
<path d="M657.48,31.498L657.48,41.498" style="fill:none;stroke:#000000;stroke-width:0.625" />
<path d="M959.28,31.498L959.28,41.498" style="fill:none;stroke:#000000;stroke-width:0.625" />
<path d="M114.24,36.498L114.24,41.498" style="fill:none;stroke:#000000;stroke-width:0.625" />
<path d="M174.6,36.498L174.6,41.498" style="fill:none;stroke:#000000;stroke-width:0.625" />
<path d="M234.96,36.498L234.96,41.498" style="fill:none;stroke:#000000;stroke-width:0.625" />
<path d="M295.32,36.498L295.32,41.498" style="fill:none;stroke:#000000;stroke-width:0.625" />
<path d="M416.04,36.498L416.04,41.498" style="fill:none;stroke:#000000;stroke-width:0.625" />
<path d="M476.4,36.498L476.4,41.498" style="fill:none;stroke:#000000;stroke-width:0.625" />
<path d="M536.76,36.498L536.76,41.498" style="fill:none;stroke:#000000;stroke-width:0.625" />
<path d="M597.12,36.498L597.12,41.498" style="fill:none;stroke:#000000;stroke-width:0.625" />
<path d="M717.84,36.498L717.84,41.498" style="fill:none;stroke:#000000;stroke-width:0.625" />
<path d="M778.2,36.498L778.2,41.498" style="fill:none;stroke:#000000;stroke-width:0.625" />
<path d="M838.56,36.498L838.56,41.498" style="fill:none;stroke:#000000;stroke-width:0.625" />
<path d="M898.92,36.498L898.92,41.498" style="fill:none;stroke:#000000;stroke-width:0.625" />
<path d="M1019.6,36.498L1019.6,41.498" style="fill:none;stroke:#000000;stroke-width:0.625" />
<path d="M1080,36.498L1080,41.498" style="fill:none;stroke:#000000;stroke-width:0.625" />
<path d="M53.882,41.498L1080,41.498" style="fill:none;stroke:#000000;stroke-width:0.625" />
<g transform="rotate(90)">
<text x="306.05" y="14.399" transform="scale(1, -1)"
	style="font-family:Helvetica;font-weight:normal;font-style:normal;font-size:12pt">Latency(millisecond)</text>
</g>
<text x="19.248" y="-133.9" transform="scale(1, -1)"
	style="font-family:Helvetica;font-weight:normal;font-style:normal;font-size:10pt">24</text>
<text x="19.248" y="-343.44" transform="scale(1, -1)"
	style="font-family:Helvetica;font-weight:normal;font-style:normal;font-size:10pt">26</text>
<text x="19.248" y="-552.98" transform="scale(1, -1)"
	style="font-family:Helvetica;font-weight:normal;font-style:normal;font-size:10pt">28</text>
<path d="M36.625,139.78L46.625,139.78" style="fill:none;stroke:#000000;stroke-width:0.625" />
<path d="M36.625,349.32L46.625,349.32" style="fill:none;stroke:#000000;stroke-width:0.625" />
<path d="M36.625,558.85L46.625,558.85" style="fill:none;stroke:#000000;stroke-width:0.625" />
<path d="M41.625,244.55L46.625,244.55" style="fill:none;stroke:#000000;stroke-width:0.625" />
<path d="M41.625,454.09L46.625,454.09" style="fill:none;stroke:#000000;stroke-width:0.625" />
<path d="M41.625,663.62L46.625,663.62" style="fill:none;stroke:#000000;stroke-width:0.625" />
<path d="M46.625,48.06L46.625,700.75" style="fill:none;stroke:#000000;stroke-width:0.625" />
<path d="M53.882,566.79L114.24,48.06L174.6,320.91L234.96,557.93L295.32,466.21L355.68,506.78L416.04,585.22L476.4,521.15L536.76,537.06L597.12,556.73L657.48,700.75L717.84,663.53L778.2,690.58L838.56,484.64L898.92,540.13L959.28,449.63L1019.6,488.98L1080,445.45" style="fill:none;stroke:#F15A60;stroke-width:1.875" />
<path d="M1055,693.4L1080,693.4" style="fill:none;stroke:#F15A60;stroke-width:1.875" />
<text x="1002.5" y="-686.35" transform="scale(1, -1)"
	style="font-family:Helvetica;font-weight:normal;font-style:normal;font-size:12pt">etcd v2</text>
</g>
</svg>
