<?xml version="1.0"?>
<!-- Generated by SVGo and Plotinum VG -->
<svg width="12in" height="8in"
	xmlns="http://www.w3.org/2000/svg"
	xmlns:xlink="http://www.w3.org/1999/xlink">
<g transform="scale(1, -1) translate(0, -720)">
<path d="M0,0L1080,0L1080,720L0,720Z" style="fill:#FFFFFF" />
<text x="262.22" y="-705.6" transform="scale(1, -1)"
	style="font-family:Helvetica;font-weight:normal;font-style:normal;font-size:12pt">Write 600K keys, 1000-client, 1000-conn, 8-byte key, 256-byte value (etcd v2), CPU</text>
<text x="544.98" y="-4.8486" transform="scale(1, -1)"
	style="font-family:Helvetica;font-weight:normal;font-style:normal;font-size:12pt">Second</text>
<text x="57.358" y="-19.498" transform="scale(1, -1)"
	style="font-family:Helvetica;font-weight:normal;font-style:normal;font-size:10pt">0</text>
<text x="375.85" y="-19.498" transform="scale(1, -1)"
	style="font-family:Helvetica;font-weight:normal;font-style:normal;font-size:10pt">5</text>
<text x="690.86" y="-19.498" transform="scale(1, -1)"
	style="font-family:Helvetica;font-weight:normal;font-style:normal;font-size:10pt">10</text>
<text x="1009.4" y="-19.498" transform="scale(1, -1)"
	style="font-family:Helvetica;font-weight:normal;font-style:normal;font-size:10pt">15</text>
<path d="M60.834,31.498L60.834,41.498" style="fill:none;stroke:#000000;stroke-width:0.625" />
<path d="M379.32,31.498L379.32,41.498" style="fill:none;stroke:#000000;stroke-width:0.625" />
<path d="M697.81,31.498L697.81,41.498" style="fill:none;stroke:#000000;stroke-width:0.625" />
<path d="M1016.3,31.498L1016.3,41.498" style="fill:none;stroke:#000000;stroke-width:0.625" />
<path d="M124.53,36.498L124.53,41.498" style="fill:none;stroke:#000000;stroke-width:0.625" />
<path d="M188.23,36.498L188.23,41.498" style="fill:none;stroke:#000000;stroke-width:0.625" />
<path d="M251.93,36.498L251.93,41.498" style="fill:none;stroke:#000000;stroke-width:0.625" />
<path d="M315.63,36.498L315.63,41.498" style="fill:none;stroke:#000000;stroke-width:0.625" />
<path d="M443.02,36.498L443.02,41.498" style="fill:none;stroke:#000000;stroke-width:0.625" />
<path d="M506.72,36.498L506.72,41.498" style="fill:none;stroke:#000000;stroke-width:0.625" />
<path d="M570.42,36.498L570.42,41.498" style="fill:none;stroke:#000000;stroke-width:0.625" />
<path d="M634.11,36.498L634.11,41.498" style="fill:none;stroke:#000000;stroke-width:0.625" />
<path d="M761.51,36.498L761.51,41.498" style="fill:none;stroke:#000000;stroke-width:0.625" />
<path d="M825.21,36.498L825.21,41.498" style="fill:none;stroke:#000000;stroke-width:0.625" />
<path d="M888.91,36.498L888.91,41.498" style="fill:none;stroke:#000000;stroke-width:0.625" />
<path d="M952.6,36.498L952.6,41.498" style="fill:none;stroke:#000000;stroke-width:0.625" />
<path d="M1080,36.498L1080,41.498" style="fill:none;stroke:#000000;stroke-width:0.625" />
<path d="M60.834,41.498L1080,41.498" style="fill:none;stroke:#000000;stroke-width:0.625" />
<g transform="rotate(90)">
<text x="358.57" y="14.399" transform="scale(1, -1)"
	style="font-family:Helvetica;font-weight:normal;font-style:normal;font-size:12pt">CPU</text>
</g>
<text x="26.2" y="-224.03" transform="scale(1, -1)"
	style="font-family:Helvetica;font-weight:normal;font-style:normal;font-size:10pt">80</text>
<text x="19.248" y="-411.94" transform="scale(1, -1)"
	style="font-family:Helvetica;font-weight:normal;font-style:normal;font-size:10pt">160</text>
<text x="19.248" y="-599.84" transform="scale(1, -1)"
	style="font-family:Helvetica;font-weight:normal;font-style:normal;font-size:10pt">240</text>
<path d="M43.577,229.91L53.577,229.91" style="fill:none;stroke:#000000;stroke-width:0.625" />
<path d="M43.577,417.81L53.577,417.81" style="fill:none;stroke:#000000;stroke-width:0.625" />
<path d="M43.577,605.72L53.577,605.72" style="fill:none;stroke:#000000;stroke-width:0.625" />
<path d="M48.577,135.95L53.577,135.95" style="fill:none;stroke:#000000;stroke-width:0.625" />
<path d="M48.577,323.86L53.577,323.86" style="fill:none;stroke:#000000;stroke-width:0.625" />
<path d="M48.577,511.77L53.577,511.77" style="fill:none;stroke:#000000;stroke-width:0.625" />
<path d="M48.577,699.67L53.577,699.67" style="fill:none;stroke:#000000;stroke-width:0.625" />
<path d="M53.577,48.06L53.577,700.75" style="fill:none;stroke:#000000;stroke-width:0.625" />
<path d="M60.834,48.06L124.53,159.58L188.23,253.44L251.93,328.49L315.63,390.89L379.32,441.07L443.02,482.99L506.72,520.53L570.42,552L634.11,579.2L697.81,601.54L761.51,621.85L825.21,639.26L888.91,657.16L952.6,672.59L1016.3,686.87L1080,700.75" style="fill:none;stroke:#F15A60;stroke-width:1.875" />
<path d="M1055,693.4L1080,693.4" style="fill:none;stroke:#F15A60;stroke-width:1.875" />
<text x="1002.5" y="-686.35" transform="scale(1, -1)"
	style="font-family:Helvetica;font-weight:normal;font-style:normal;font-size:12pt">etcd v2</text>
</g>
</svg>
