<?xml version="1.0"?>
<!-- Generated by SVGo and Plotinum VG -->
<svg width="12in" height="8in"
	xmlns="http://www.w3.org/2000/svg"
	xmlns:xlink="http://www.w3.org/1999/xlink">
<g transform="scale(1, -1) translate(0, -720)">
<path d="M0,0L1080,0L1080,720L0,720Z" style="fill:#FFFFFF" />
<text x="234.73" y="-705.6" transform="scale(1, -1)"
	style="font-family:Helvetica;font-weight:normal;font-style:normal;font-size:12pt">Write 600K keys, 1000-client, 1000-conn, 8-byte key, 256-byte value (etcd v2), Memory(MB)</text>
<text x="541.5" y="-4.8486" transform="scale(1, -1)"
	style="font-family:Helvetica;font-weight:normal;font-style:normal;font-size:12pt">Second</text>
<text x="50.406" y="-19.498" transform="scale(1, -1)"
	style="font-family:Helvetica;font-weight:normal;font-style:normal;font-size:10pt">0</text>
<text x="371.07" y="-19.498" transform="scale(1, -1)"
	style="font-family:Helvetica;font-weight:normal;font-style:normal;font-size:10pt">5</text>
<text x="688.25" y="-19.498" transform="scale(1, -1)"
	style="font-family:Helvetica;font-weight:normal;font-style:normal;font-size:10pt">10</text>
<text x="1008.9" y="-19.498" transform="scale(1, -1)"
	style="font-family:Helvetica;font-weight:normal;font-style:normal;font-size:10pt">15</text>
<path d="M53.882,31.498L53.882,41.498" style="fill:none;stroke:#000000;stroke-width:0.625" />
<path d="M374.54,31.498L374.54,41.498" style="fill:none;stroke:#000000;stroke-width:0.625" />
<path d="M695.21,31.498L695.21,41.498" style="fill:none;stroke:#000000;stroke-width:0.625" />
<path d="M1015.9,31.498L1015.9,41.498" style="fill:none;stroke:#000000;stroke-width:0.625" />
<path d="M118.01,36.498L118.01,41.498" style="fill:none;stroke:#000000;stroke-width:0.625" />
<path d="M182.15,36.498L182.15,41.498" style="fill:none;stroke:#000000;stroke-width:0.625" />
<path d="M246.28,36.498L246.28,41.498" style="fill:none;stroke:#000000;stroke-width:0.625" />
<path d="M310.41,36.498L310.41,41.498" style="fill:none;stroke:#000000;stroke-width:0.625" />
<path d="M438.68,36.498L438.68,41.498" style="fill:none;stroke:#000000;stroke-width:0.625" />
<path d="M502.81,36.498L502.81,41.498" style="fill:none;stroke:#000000;stroke-width:0.625" />
<path d="M566.94,36.498L566.94,41.498" style="fill:none;stroke:#000000;stroke-width:0.625" />
<path d="M631.07,36.498L631.07,41.498" style="fill:none;stroke:#000000;stroke-width:0.625" />
<path d="M759.34,36.498L759.34,41.498" style="fill:none;stroke:#000000;stroke-width:0.625" />
<path d="M823.47,36.498L823.47,41.498" style="fill:none;stroke:#000000;stroke-width:0.625" />
<path d="M887.6,36.498L887.6,41.498" style="fill:none;stroke:#000000;stroke-width:0.625" />
<path d="M951.74,36.498L951.74,41.498" style="fill:none;stroke:#000000;stroke-width:0.625" />
<path d="M1080,36.498L1080,41.498" style="fill:none;stroke:#000000;stroke-width:0.625" />
<path d="M53.882,41.498L1080,41.498" style="fill:none;stroke:#000000;stroke-width:0.625" />
<g transform="rotate(90)">
<text x="331.08" y="14.399" transform="scale(1, -1)"
	style="font-family:Helvetica;font-weight:normal;font-style:normal;font-size:12pt">Memory(MB)</text>
</g>
<text x="19.248" y="-229.79" transform="scale(1, -1)"
	style="font-family:Helvetica;font-weight:normal;font-style:normal;font-size:10pt">40</text>
<text x="19.248" y="-445.06" transform="scale(1, -1)"
	style="font-family:Helvetica;font-weight:normal;font-style:normal;font-size:10pt">60</text>
<text x="19.248" y="-660.33" transform="scale(1, -1)"
	style="font-family:Helvetica;font-weight:normal;font-style:normal;font-size:10pt">80</text>
<path d="M36.625,235.67L46.625,235.67" style="fill:none;stroke:#000000;stroke-width:0.625" />
<path d="M36.625,450.93L46.625,450.93" style="fill:none;stroke:#000000;stroke-width:0.625" />
<path d="M36.625,666.2L46.625,666.2" style="fill:none;stroke:#000000;stroke-width:0.625" />
<path d="M41.625,128.03L46.625,128.03" style="fill:none;stroke:#000000;stroke-width:0.625" />
<path d="M41.625,343.3L46.625,343.3" style="fill:none;stroke:#000000;stroke-width:0.625" />
<path d="M41.625,558.57L46.625,558.57" style="fill:none;stroke:#000000;stroke-width:0.625" />
<path d="M46.625,48.06L46.625,700.75" style="fill:none;stroke:#000000;stroke-width:0.625" />
<path d="M53.882,48.06L118.01,558.35L182.15,603.02L246.28,612.92L310.41,644.24L374.54,655.44L438.68,664.69L502.81,672.98L566.94,675.57L631.07,676.32L695.21,676.32L759.34,676.32L823.47,680.41L887.6,680.41L951.74,681.05L1015.9,700.54L1080,700.75" style="fill:none;stroke:#F15A60;stroke-width:1.875" />
<path d="M1055,693.4L1080,693.4" style="fill:none;stroke:#F15A60;stroke-width:1.875" />
<text x="1002.5" y="-686.35" transform="scale(1, -1)"
	style="font-family:Helvetica;font-weight:normal;font-style:normal;font-size:12pt">etcd v2</text>
</g>
</svg>
