<?xml version="1.0"?>
<!-- Generated by SVGo and Plotinum VG -->
<svg width="12in" height="8in"
	xmlns="http://www.w3.org/2000/svg"
	xmlns:xlink="http://www.w3.org/1999/xlink">
<g transform="scale(1, -1) translate(0, -720)">
<path d="M0,0L1080,0L1080,720L0,720Z" style="fill:#FFFFFF" />
<text x="250.31" y="-706.41" transform="scale(1, -1)"
	style="font-family:Helvetica;font-weight:normal;font-style:normal;font-size:12pt">Write 1M keys, 500 clients(etcd 50 conns), key 32 bytes, value 500 bytes, Memory(MB)</text>
<text x="548.11" y="-4.965" transform="scale(1, -1)"
	style="font-family:Helvetica;font-weight:normal;font-style:normal;font-size:12pt">Second</text>
<text x="63.613" y="-19.142" transform="scale(1, -1)"
	style="font-family:Helvetica;font-weight:normal;font-style:normal;font-size:10pt">0</text>
<text x="383.41" y="-19.142" transform="scale(1, -1)"
	style="font-family:Helvetica;font-weight:normal;font-style:normal;font-size:10pt">30</text>
<text x="706.68" y="-19.142" transform="scale(1, -1)"
	style="font-family:Helvetica;font-weight:normal;font-style:normal;font-size:10pt">60</text>
<text x="1029.9" y="-19.142" transform="scale(1, -1)"
	style="font-family:Helvetica;font-weight:normal;font-style:normal;font-size:10pt">90</text>
<path d="M67.088,30.467L67.088,40.467" style="fill:none;stroke:#000000;stroke-width:0.625" />
<path d="M390.36,30.467L390.36,40.467" style="fill:none;stroke:#000000;stroke-width:0.625" />
<path d="M713.63,30.467L713.63,40.467" style="fill:none;stroke:#000000;stroke-width:0.625" />
<path d="M1036.9,30.467L1036.9,40.467" style="fill:none;stroke:#000000;stroke-width:0.625" />
<path d="M174.84,35.468L174.84,40.467" style="fill:none;stroke:#000000;stroke-width:0.625" />
<path d="M282.6,35.468L282.6,40.467" style="fill:none;stroke:#000000;stroke-width:0.625" />
<path d="M498.11,35.468L498.11,40.467" style="fill:none;stroke:#000000;stroke-width:0.625" />
<path d="M605.87,35.468L605.87,40.467" style="fill:none;stroke:#000000;stroke-width:0.625" />
<path d="M821.38,35.468L821.38,40.467" style="fill:none;stroke:#000000;stroke-width:0.625" />
<path d="M929.14,35.468L929.14,40.467" style="fill:none;stroke:#000000;stroke-width:0.625" />
<path d="M67.088,40.467L1080,40.467" style="fill:none;stroke:#000000;stroke-width:0.625" />
<g transform="rotate(90)">
<text x="330.91" y="13.59" transform="scale(1, -1)"
	style="font-family:Helvetica;font-weight:normal;font-style:normal;font-size:12pt">Memory(MB)</text>
</g>
<text x="25.505" y="-216.19" transform="scale(1, -1)"
	style="font-family:Helvetica;font-weight:normal;font-style:normal;font-size:10pt">600</text>
<text x="18.555" y="-397.19" transform="scale(1, -1)"
	style="font-family:Helvetica;font-weight:normal;font-style:normal;font-size:10pt">1200</text>
<text x="18.555" y="-578.19" transform="scale(1, -1)"
	style="font-family:Helvetica;font-weight:normal;font-style:normal;font-size:10pt">1800</text>
<path d="M49.83,221.56L59.83,221.56" style="fill:none;stroke:#000000;stroke-width:0.625" />
<path d="M49.83,402.56L59.83,402.56" style="fill:none;stroke:#000000;stroke-width:0.625" />
<path d="M49.83,583.56L59.83,583.56" style="fill:none;stroke:#000000;stroke-width:0.625" />
<path d="M54.83,100.9L59.83,100.9" style="fill:none;stroke:#000000;stroke-width:0.625" />
<path d="M54.83,161.23L59.83,161.23" style="fill:none;stroke:#000000;stroke-width:0.625" />
<path d="M54.83,281.9L59.83,281.9" style="fill:none;stroke:#000000;stroke-width:0.625" />
<path d="M54.83,342.23L59.83,342.23" style="fill:none;stroke:#000000;stroke-width:0.625" />
<path d="M54.83,462.9L59.83,462.9" style="fill:none;stroke:#000000;stroke-width:0.625" />
<path d="M54.83,523.23L59.83,523.23" style="fill:none;stroke:#000000;stroke-width:0.625" />
<path d="M54.83,643.9L59.83,643.9" style="fill:none;stroke:#000000;stroke-width:0.625" />
<path d="M59.83,47.03L59.83,701.44" style="fill:none;stroke:#000000;stroke-width:0.625" />
<path d="M67.088,47.03L77.863,63.124L88.639,65.136L99.414,67.881L110.19,70.841L120.97,73.064L131.74,76.225L142.52,78.391L153.29,81.179L164.07,83.574L174.84,87.049L185.62,89.583L196.4,91.058L207.17,93.092L217.95,95.813L228.72,98.19L239.5,100.31L250.27,103.02L261.05,105.55L271.83,107.45L282.6,109.53L293.38,111.81L304.15,115.45L314.93,117.83L325.7,118.81L336.48,122.63L347.25,124.01L358.03,126.26L368.81,128.74L379.58,131.48L390.36,133.37L401.13,135.15L411.91,137.45L422.68,140.39L433.46,142.63L444.24,144.47L455.01,147.35L465.79,149.11L476.56,151.74L487.34,153.49L498.11,155.64L508.89,158.18L519.67,160.72L530.44,162.19L541.22,164.9L551.99,167.79L562.77,170.04L573.54,171.47L584.32,175.78L595.1,177.41" style="fill:none;stroke:#F15A60;stroke-width:1.875" />
<path d="M67.088,58.098L77.863,89.185L88.639,132.67L99.414,171.64L110.19,211.76L120.97,262.53L131.74,262.53L142.52,311.72L153.29,322.03L164.07,398.55L174.84,405.87L185.62,445.56L196.4,463.98L207.17,469.68L217.95,499.18L228.72,547.53L239.5,548.8L250.27,568.82L261.05,579.91L271.83,590.23L282.6,595.9L293.38,611.96L304.15,610.38L314.93,637.15L325.7,637.51L336.48,637.51L347.25,642.43L358.03,644.3L368.81,655.09L379.58,667.41L390.36,676.91L401.13,695.28L411.91,695.28L422.68,695.7L433.46,695.75L444.24,695.75L455.01,695.75L465.79,695.75L476.56,695.75L487.34,696.05L498.11,696.08L508.89,696.21L519.67,696.6L530.44,696.78L541.22,697.11L551.99,697.44L562.77,697.44L573.54,697.3L584.32,697.16L595.1,697.14L605.87,697.18L616.65,697.21L627.42,697.21L638.2,697.25L648.97,697.19L659.75,697.03L670.52,696.98L681.3,696.94L692.08,696.94L702.85,696.94L713.63,696.94L724.4,696.93L735.18,696.93L745.95,696.93L756.73,696.93L767.51,696.93L778.28,696.93L789.06,696.93L799.83,697.03L810.61,697.13L821.38,697.23L832.16,697.36L842.94,697.49L853.71,697.49L864.49,697.49L875.26,698.14L886.04,699.43L896.81,699.52L907.59,699.5L918.37,698.98L929.14,698.97L939.92,699.59L950.69,699.47L961.47,699.25L972.24,699.25L983.02,699.25L993.79,699.25L1004.6,700.12L1015.3,700.97L1026.1,700.97L1036.9,700.36L1047.7,700.05L1058.4,699.74L1069.2,700.52L1080,701.44" style="fill:none;stroke:#7AC36A;stroke-width:1.875;stroke-dasharray:7.5,2.5" />
<path d="M1055,694.3L1080,694.3" style="fill:none;stroke:#F15A60;stroke-width:1.875" />
<text x="1002.5" y="-687.85" transform="scale(1, -1)"
	style="font-family:Helvetica;font-weight:normal;font-style:normal;font-size:12pt">etcd v3</text>
<path d="M1055,680L1080,680" style="fill:none;stroke:#7AC36A;stroke-width:1.875;stroke-dasharray:7.5,2.5" />
<text x="934.1" y="-673.56" transform="scale(1, -1)"
	style="font-family:Helvetica;font-weight:normal;font-style:normal;font-size:12pt">Zookeeper v3.4.8</text>
</g>
</svg>
