<?xml version="1.0"?>
<!-- Generated by SVGo and Plotinum VG -->
<svg width="12in" height="8in"
	xmlns="http://www.w3.org/2000/svg"
	xmlns:xlink="http://www.w3.org/1999/xlink">
<g transform="scale(1, -1) translate(0, -720)">
<path d="M0,0L1080,0L1080,720L0,720Z" style="fill:#FFFFFF" />
<text x="309.21" y="-705.6" transform="scale(1, -1)"
	style="font-family:Helvetica;font-weight:normal;font-style:normal;font-size:12pt">Read 200 keys, 1-conn, 1-client, 8-byte key, 3MB value, Memory(MB)</text>
<text x="548.46" y="-4.8486" transform="scale(1, -1)"
	style="font-family:Helvetica;font-weight:normal;font-style:normal;font-size:12pt">Second</text>
<text x="64.31" y="-19.498" transform="scale(1, -1)"
	style="font-family:Helvetica;font-weight:normal;font-style:normal;font-size:10pt">0</text>
<text x="307.72" y="-19.498" transform="scale(1, -1)"
	style="font-family:Helvetica;font-weight:normal;font-style:normal;font-size:10pt">20</text>
<text x="554.6" y="-19.498" transform="scale(1, -1)"
	style="font-family:Helvetica;font-weight:normal;font-style:normal;font-size:10pt">40</text>
<text x="801.48" y="-19.498" transform="scale(1, -1)"
	style="font-family:Helvetica;font-weight:normal;font-style:normal;font-size:10pt">60</text>
<text x="1048.4" y="-19.498" transform="scale(1, -1)"
	style="font-family:Helvetica;font-weight:normal;font-style:normal;font-size:10pt">80</text>
<path d="M67.786,31.498L67.786,41.498" style="fill:none;stroke:#000000;stroke-width:0.625" />
<path d="M314.67,31.498L314.67,41.498" style="fill:none;stroke:#000000;stroke-width:0.625" />
<path d="M561.55,31.498L561.55,41.498" style="fill:none;stroke:#000000;stroke-width:0.625" />
<path d="M808.43,31.498L808.43,41.498" style="fill:none;stroke:#000000;stroke-width:0.625" />
<path d="M1055.3,31.498L1055.3,41.498" style="fill:none;stroke:#000000;stroke-width:0.625" />
<path d="M191.23,36.498L191.23,41.498" style="fill:none;stroke:#000000;stroke-width:0.625" />
<path d="M438.11,36.498L438.11,41.498" style="fill:none;stroke:#000000;stroke-width:0.625" />
<path d="M684.99,36.498L684.99,41.498" style="fill:none;stroke:#000000;stroke-width:0.625" />
<path d="M931.87,36.498L931.87,41.498" style="fill:none;stroke:#000000;stroke-width:0.625" />
<path d="M67.786,41.498L1080,41.498" style="fill:none;stroke:#000000;stroke-width:0.625" />
<g transform="rotate(90)">
<text x="331.08" y="14.399" transform="scale(1, -1)"
	style="font-family:Helvetica;font-weight:normal;font-style:normal;font-size:12pt">Memory(MB)</text>
</g>
<text x="26.2" y="-232.66" transform="scale(1, -1)"
	style="font-family:Helvetica;font-weight:normal;font-style:normal;font-size:10pt">600</text>
<text x="19.248" y="-428.76" transform="scale(1, -1)"
	style="font-family:Helvetica;font-weight:normal;font-style:normal;font-size:10pt">1200</text>
<text x="19.248" y="-624.87" transform="scale(1, -1)"
	style="font-family:Helvetica;font-weight:normal;font-style:normal;font-size:10pt">1800</text>
<path d="M50.529,238.53L60.529,238.53" style="fill:none;stroke:#000000;stroke-width:0.625" />
<path d="M50.529,434.64L60.529,434.64" style="fill:none;stroke:#000000;stroke-width:0.625" />
<path d="M50.529,630.74L60.529,630.74" style="fill:none;stroke:#000000;stroke-width:0.625" />
<path d="M55.529,107.8L60.529,107.8" style="fill:none;stroke:#000000;stroke-width:0.625" />
<path d="M55.529,173.16L60.529,173.16" style="fill:none;stroke:#000000;stroke-width:0.625" />
<path d="M55.529,303.9L60.529,303.9" style="fill:none;stroke:#000000;stroke-width:0.625" />
<path d="M55.529,369.27L60.529,369.27" style="fill:none;stroke:#000000;stroke-width:0.625" />
<path d="M55.529,500L60.529,500" style="fill:none;stroke:#000000;stroke-width:0.625" />
<path d="M55.529,565.37L60.529,565.37" style="fill:none;stroke:#000000;stroke-width:0.625" />
<path d="M55.529,696.11L60.529,696.11" style="fill:none;stroke:#000000;stroke-width:0.625" />
<path d="M60.529,48.06L60.529,700.75" style="fill:none;stroke:#000000;stroke-width:0.625" />
<path d="M67.786,48.06L80.13,115.1L92.474,154.39L104.82,194.79L117.16,235.07L129.51,272.93L141.85,306.68L154.19,354.15L166.54,388.24L178.88,404.63L191.23,411.77L203.57,421.59L215.91,423.05L228.26,423.84L240.6,424.71L252.95,425.76L265.29,430.64L277.63,431.93L289.98,435.15L302.32,436.61L314.67,438.72L327.01,443.77L339.36,452.73L351.7,453.52L364.04,457.45L376.39,468.57L388.73,469.77L401.08,476.1L413.42,476.59L425.76,480.06L438.11,485.62L450.45,485.62L462.8,486.44L475.14,496.73L487.48,500.69L499.83,501.43L512.17,505.84L524.52,512.04L536.86,518.52L549.2,520.39L561.55,527.98L573.89,536.53L586.24,538.85L598.58,539.52L610.93,540.35L623.27,541.24L635.61,546.75L647.96,555.68L660.3,560.84L672.65,565.78L684.99,570.76L697.33,575.47L709.68,576.94L722.02,576.94L734.37,577.84L746.71,591.02L759.05,595.4L771.4,596.37L783.74,597.61L796.09,598.58L808.43,607.8L820.77,609.19L833.12,612.94L845.46,617.71L857.81,622.92L870.15,627.31L882.49,634.56L894.84,636.52L907.18,638.37L919.53,640.94L931.87,645.85L944.22,656.75L956.56,659.13L968.9,663.58L981.25,665.44L993.59,665.44L1005.9,675.42L1018.3,680.57L1030.6,681.23L1043,682.46L1055.3,689.25L1067.7,700.75" style="fill:none;stroke:#F15A60;stroke-width:1.875" />
<path d="M67.786,48.786L80.13,105.06L92.474,137.23L104.82,180.79L117.16,215.4L129.51,257.4L141.85,295.92L154.19,326.88L166.54,376.68L178.88,406.13L191.23,413.8L203.57,414.82L215.91,416.5L228.26,419.74L240.6,423.44L252.95,430.95L265.29,432.9L277.63,437.66L289.98,438.33L302.32,439.95L314.67,441.81L327.01,441.81L339.36,445.07L351.7,451.67L364.04,458.36L376.39,463.68L388.73,466.38L401.08,468.13L413.42,469.29L425.76,471.59L438.11,474.09L450.45,480.44L462.8,486.31L475.14,494.38L487.48,494.38L499.83,495.93L512.17,498.35L524.52,500.49L536.86,505.81L549.2,509.92L561.55,516.33L573.89,519.59L586.24,528.69L598.58,529.92L610.93,540.3L623.27,541.92L635.61,543.58L647.96,544.25L660.3,545.84L672.65,553.33L684.99,561.35L697.33,568.11L709.68,578.39L722.02,579.6L734.37,580.51L746.71,582.99L759.05,582.99L771.4,584.78L783.74,587.6L796.09,591.2L808.43,600.84L820.77,606.02L833.12,610.77L845.46,616.37L857.81,618.65L870.15,619.85L882.49,628.25L894.84,629.35L907.18,632.02L919.53,632.42L931.87,633.31L944.22,635.67L956.56,641.45L968.9,648.18L981.25,664.19L993.59,670.03L1005.9,670.37L1018.3,673.17L1030.6,673.2L1043,674.04L1055.3,675.97L1067.7,677.24L1080,678.51" style="fill:none;stroke:#7AC36A;stroke-width:1.875;stroke-dasharray:7.5,2.5" />
<path d="M1055,693.4L1080,693.4" style="fill:none;stroke:#F15A60;stroke-width:1.875" />
<text x="834.07" y="-686.35" transform="scale(1, -1)"
	style="font-family:Helvetica;font-weight:normal;font-style:normal;font-size:12pt">etcd v3 (Go tip, no compression)</text>
<path d="M1055,678.7L1080,678.7" style="fill:none;stroke:#7AC36A;stroke-width:1.875;stroke-dasharray:7.5,2.5" />
<text x="889.08" y="-671.65" transform="scale(1, -1)"
	style="font-family:Helvetica;font-weight:normal;font-style:normal;font-size:12pt">etcd v3 (Go tip, Snappy)</text>
</g>
</svg>
