<?xml version="1.0"?>
<!-- Generated by SVGo and Plotinum VG -->
<svg width="12in" height="8in"
	xmlns="http://www.w3.org/2000/svg"
	xmlns:xlink="http://www.w3.org/1999/xlink">
<g transform="scale(1, -1) translate(0, -720)">
<path d="M0,0L1080,0L1080,720L0,720Z" style="fill:#FFFFFF" />
<text x="336.71" y="-705.6" transform="scale(1, -1)"
	style="font-family:Helvetica;font-weight:normal;font-style:normal;font-size:12pt">Read 200 keys, 1-conn, 1-client, 8-byte key, 3MB value, CPU</text>
<text x="541.5" y="-4.8486" transform="scale(1, -1)"
	style="font-family:Helvetica;font-weight:normal;font-style:normal;font-size:12pt">Second</text>
<text x="50.406" y="-19.498" transform="scale(1, -1)"
	style="font-family:Helvetica;font-weight:normal;font-style:normal;font-size:10pt">0</text>
<text x="297.2" y="-19.498" transform="scale(1, -1)"
	style="font-family:Helvetica;font-weight:normal;font-style:normal;font-size:10pt">20</text>
<text x="547.48" y="-19.498" transform="scale(1, -1)"
	style="font-family:Helvetica;font-weight:normal;font-style:normal;font-size:10pt">40</text>
<text x="797.75" y="-19.498" transform="scale(1, -1)"
	style="font-family:Helvetica;font-weight:normal;font-style:normal;font-size:10pt">60</text>
<text x="1048" y="-19.498" transform="scale(1, -1)"
	style="font-family:Helvetica;font-weight:normal;font-style:normal;font-size:10pt">80</text>
<path d="M53.882,31.498L53.882,41.498" style="fill:none;stroke:#000000;stroke-width:0.625" />
<path d="M304.15,31.498L304.15,41.498" style="fill:none;stroke:#000000;stroke-width:0.625" />
<path d="M554.43,31.498L554.43,41.498" style="fill:none;stroke:#000000;stroke-width:0.625" />
<path d="M804.7,31.498L804.7,41.498" style="fill:none;stroke:#000000;stroke-width:0.625" />
<path d="M1055,31.498L1055,41.498" style="fill:none;stroke:#000000;stroke-width:0.625" />
<path d="M179.02,36.498L179.02,41.498" style="fill:none;stroke:#000000;stroke-width:0.625" />
<path d="M429.29,36.498L429.29,41.498" style="fill:none;stroke:#000000;stroke-width:0.625" />
<path d="M679.56,36.498L679.56,41.498" style="fill:none;stroke:#000000;stroke-width:0.625" />
<path d="M929.84,36.498L929.84,41.498" style="fill:none;stroke:#000000;stroke-width:0.625" />
<path d="M53.882,41.498L1080,41.498" style="fill:none;stroke:#000000;stroke-width:0.625" />
<g transform="rotate(90)">
<text x="358.57" y="14.399" transform="scale(1, -1)"
	style="font-family:Helvetica;font-weight:normal;font-style:normal;font-size:12pt">CPU</text>
</g>
<text x="26.2" y="-142.54" transform="scale(1, -1)"
	style="font-family:Helvetica;font-weight:normal;font-style:normal;font-size:10pt">6</text>
<text x="19.248" y="-308.4" transform="scale(1, -1)"
	style="font-family:Helvetica;font-weight:normal;font-style:normal;font-size:10pt">12</text>
<text x="19.248" y="-474.27" transform="scale(1, -1)"
	style="font-family:Helvetica;font-weight:normal;font-style:normal;font-size:10pt">18</text>
<text x="19.248" y="-640.14" transform="scale(1, -1)"
	style="font-family:Helvetica;font-weight:normal;font-style:normal;font-size:10pt">24</text>
<path d="M36.625,148.41L46.625,148.41" style="fill:none;stroke:#000000;stroke-width:0.625" />
<path d="M36.625,314.28L46.625,314.28" style="fill:none;stroke:#000000;stroke-width:0.625" />
<path d="M36.625,480.15L46.625,480.15" style="fill:none;stroke:#000000;stroke-width:0.625" />
<path d="M36.625,646.02L46.625,646.02" style="fill:none;stroke:#000000;stroke-width:0.625" />
<path d="M41.625,93.121L46.625,93.121" style="fill:none;stroke:#000000;stroke-width:0.625" />
<path d="M41.625,203.7L46.625,203.7" style="fill:none;stroke:#000000;stroke-width:0.625" />
<path d="M41.625,258.99L46.625,258.99" style="fill:none;stroke:#000000;stroke-width:0.625" />
<path d="M41.625,369.57L46.625,369.57" style="fill:none;stroke:#000000;stroke-width:0.625" />
<path d="M41.625,424.86L46.625,424.86" style="fill:none;stroke:#000000;stroke-width:0.625" />
<path d="M41.625,535.44L46.625,535.44" style="fill:none;stroke:#000000;stroke-width:0.625" />
<path d="M41.625,590.73L46.625,590.73" style="fill:none;stroke:#000000;stroke-width:0.625" />
<path d="M46.625,48.06L46.625,700.75" style="fill:none;stroke:#000000;stroke-width:0.625" />
<path d="M53.882,51.378L66.395,212.82L78.909,320.36L91.423,413.52L103.94,482.36L116.45,538.75L128.96,584.64L141.48,627.77L153.99,700.75L166.5,683.34L179.02,650.99L191.53,628.32L204.05,599.02L216.56,578.56L229.07,561.15L241.59,539.86L254.1,526.87L266.61,512.49L279.13,495.08L291.64,485.4L304.15,473.24L316.67,459.14L329.18,453.06L341.7,443.66L354.21,432.32L366.72,426.79L379.24,418.5L391.75,410.48L404.26,404.4L416.78,396.94L429.29,391.13L441.8,384.77L454.32,378.69L466.83,373.99L479.35,367.63L491.86,363.21L504.37,359.06L516.89,353.53L529.4,352.15L541.91,347.73L554.43,343.03L566.94,341.09L579.45,336.95L591.97,332.52L604.48,330.04L617,326.17L629.51,322.85L642.02,321.19L654.54,318.43L667.05,315.38L679.56,313.17L692.08,310.69L704.59,308.2L717.1,305.71L729.62,303.77L742.13,302.12L754.65,299.35L767.16,298.24L779.67,295.76L792.19,293.27L804.7,292.44L817.21,290.23L829.73,287.74L842.24,287.19L854.75,285.25L867.27,283.32L879.78,282.76L892.3,280.83L904.81,279.72L917.32,278.06L929.84,276.41L942.35,275.85L954.86,274.47L967.38,273.09L979.89,271.71L992.4,270.32L1004.9,270.6L1017.4,268.94L1029.9,267.84L1042.5,267.01L1055,265.35L1067.5,264.52" style="fill:none;stroke:#F15A60;stroke-width:1.875" />
<path d="M53.882,48.06L66.395,180.75L78.909,286.63L91.423,375.93L103.94,454.71L116.45,519.68L128.96,568.89L141.48,611.74L153.99,649.89L166.5,669.79L179.02,643.25L191.53,619.2L204.05,598.74L216.56,572.48L229.07,553.13L241.59,540.41L254.1,519.68L266.61,505.58L279.13,495.08L291.64,481.25L304.15,470.75L316.67,461.07L329.18,448.91L341.7,439.51L354.21,432.6L366.72,423.48L379.24,414.63L391.75,409.38L404.26,400.25L416.78,392.51L429.29,386.98L441.8,379.8L454.32,374.27L466.83,368.46L479.35,364.04L491.86,358.51L504.37,353.26L516.89,349.39L529.4,345.24L541.91,340.82L554.43,338.05L566.94,333.91L579.45,330.59L591.97,327.82L604.48,324.78L617,321.19L629.51,318.98L642.02,315.11L654.54,311.79L667.05,309.58L679.56,307.09L692.08,305.43L704.59,303.5L717.1,300.46L729.62,298.8L742.13,296.31L754.65,293.27L767.16,291.06L779.67,288.85L792.19,287.19L804.7,285.53L817.21,283.59L829.73,282.21L842.24,280.28L854.75,278.34L867.27,276.96L879.78,275.3L892.3,273.64L904.81,272.26L917.32,271.15L929.84,269.22L942.35,267.56L954.86,266.73L967.38,265.62L979.89,264.24L992.4,263.14L1004.9,262.31L1017.4,260.65L1029.9,259.27L1042.5,258.16L1055,256.78L1067.5,255.67L1080,254.84" style="fill:none;stroke:#7AC36A;stroke-width:1.875;stroke-dasharray:7.5,2.5" />
<path d="M1055,693.4L1080,693.4" style="fill:none;stroke:#F15A60;stroke-width:1.875" />
<text x="834.07" y="-686.35" transform="scale(1, -1)"
	style="font-family:Helvetica;font-weight:normal;font-style:normal;font-size:12pt">etcd v3 (Go tip, no compression)</text>
<path d="M1055,678.7L1080,678.7" style="fill:none;stroke:#7AC36A;stroke-width:1.875;stroke-dasharray:7.5,2.5" />
<text x="889.08" y="-671.65" transform="scale(1, -1)"
	style="font-family:Helvetica;font-weight:normal;font-style:normal;font-size:12pt">etcd v3 (Go tip, Snappy)</text>
</g>
</svg>
