<?xml version="1.0"?>
<!-- Generated by SVGo and Plotinum VG -->
<svg width="12in" height="8in"
	xmlns="http://www.w3.org/2000/svg"
	xmlns:xlink="http://www.w3.org/1999/xlink">
<g transform="scale(1, -1) translate(0, -720)">
<path d="M0,0L1080,0L1080,720L0,720Z" style="fill:#FFFFFF" />
<text x="284.18" y="-705.6" transform="scale(1, -1)"
	style="font-family:Helvetica;font-weight:normal;font-style:normal;font-size:12pt">Read 200 keys, 1-conn, 1-client, 8-byte key, 3MB value, Latency(millisecond)</text>
<text x="544.98" y="-4.8486" transform="scale(1, -1)"
	style="font-family:Helvetica;font-weight:normal;font-style:normal;font-size:12pt">Second</text>
<text x="57.358" y="-19.498" transform="scale(1, -1)"
	style="font-family:Helvetica;font-weight:normal;font-style:normal;font-size:10pt">0</text>
<text x="299.46" y="-19.498" transform="scale(1, -1)"
	style="font-family:Helvetica;font-weight:normal;font-style:normal;font-size:10pt">20</text>
<text x="545.05" y="-19.498" transform="scale(1, -1)"
	style="font-family:Helvetica;font-weight:normal;font-style:normal;font-size:10pt">40</text>
<text x="790.63" y="-19.498" transform="scale(1, -1)"
	style="font-family:Helvetica;font-weight:normal;font-style:normal;font-size:10pt">60</text>
<text x="1036.2" y="-19.498" transform="scale(1, -1)"
	style="font-family:Helvetica;font-weight:normal;font-style:normal;font-size:10pt">80</text>
<path d="M60.834,31.498L60.834,41.498" style="fill:none;stroke:#000000;stroke-width:0.625" />
<path d="M306.42,31.498L306.42,41.498" style="fill:none;stroke:#000000;stroke-width:0.625" />
<path d="M552,31.498L552,41.498" style="fill:none;stroke:#000000;stroke-width:0.625" />
<path d="M797.58,31.498L797.58,41.498" style="fill:none;stroke:#000000;stroke-width:0.625" />
<path d="M1043.2,31.498L1043.2,41.498" style="fill:none;stroke:#000000;stroke-width:0.625" />
<path d="M183.62,36.498L183.62,41.498" style="fill:none;stroke:#000000;stroke-width:0.625" />
<path d="M429.21,36.498L429.21,41.498" style="fill:none;stroke:#000000;stroke-width:0.625" />
<path d="M674.79,36.498L674.79,41.498" style="fill:none;stroke:#000000;stroke-width:0.625" />
<path d="M920.37,36.498L920.37,41.498" style="fill:none;stroke:#000000;stroke-width:0.625" />
<path d="M60.834,41.498L1080,41.498" style="fill:none;stroke:#000000;stroke-width:0.625" />
<g transform="rotate(90)">
<text x="306.05" y="14.399" transform="scale(1, -1)"
	style="font-family:Helvetica;font-weight:normal;font-style:normal;font-size:12pt">Latency(millisecond)</text>
</g>
<text x="19.248" y="-155.13" transform="scale(1, -1)"
	style="font-family:Helvetica;font-weight:normal;font-style:normal;font-size:10pt">200</text>
<text x="19.248" y="-329.14" transform="scale(1, -1)"
	style="font-family:Helvetica;font-weight:normal;font-style:normal;font-size:10pt">400</text>
<text x="19.248" y="-503.15" transform="scale(1, -1)"
	style="font-family:Helvetica;font-weight:normal;font-style:normal;font-size:10pt">600</text>
<text x="19.248" y="-677.16" transform="scale(1, -1)"
	style="font-family:Helvetica;font-weight:normal;font-style:normal;font-size:10pt">800</text>
<path d="M43.577,161.01L53.577,161.01" style="fill:none;stroke:#000000;stroke-width:0.625" />
<path d="M43.577,335.02L53.577,335.02" style="fill:none;stroke:#000000;stroke-width:0.625" />
<path d="M43.577,509.03L53.577,509.03" style="fill:none;stroke:#000000;stroke-width:0.625" />
<path d="M43.577,683.03L53.577,683.03" style="fill:none;stroke:#000000;stroke-width:0.625" />
<path d="M48.577,74.006L53.577,74.006" style="fill:none;stroke:#000000;stroke-width:0.625" />
<path d="M48.577,248.01L53.577,248.01" style="fill:none;stroke:#000000;stroke-width:0.625" />
<path d="M48.577,422.02L53.577,422.02" style="fill:none;stroke:#000000;stroke-width:0.625" />
<path d="M48.577,596.03L53.577,596.03" style="fill:none;stroke:#000000;stroke-width:0.625" />
<path d="M53.577,48.06L53.577,700.75" style="fill:none;stroke:#000000;stroke-width:0.625" />
<path d="M60.834,48.06L73.113,58.94L85.392,61.248L97.671,61.644L109.95,59.327L122.23,58.107L134.51,61.288L146.79,59.023L159.07,113.91L171.35,688.17L183.62,568.13L195.9,624.34L208.18,682.27L220.46,569.15L232.74,624.6L245.02,683.17L257.3,567.89L269.58,625.43L281.86,682.26L294.14,577.65L306.42,625.78L318.7,682.64L330.97,568.61L343.25,625.55L355.53,688.6L367.81,624.6L380.09,568.85L392.37,681.12L404.65,625.68L416.93,567.73L429.21,683.48L441.49,625.12L453.77,568.55L466.04,632.92L478.32,683.01L490.6,568.07L502.88,624.65L515.16,683.46L527.44,568.08L539.72,627.75L552,684.14L564.28,565.97L576.56,625.06L588.84,683.68L601.11,567.64L613.39,624.84L625.67,683.2L637.95,626.69L650.23,566.62L662.51,681.04L674.79,625.16L687.07,567.8L699.35,682.89L711.63,628.49L723.91,566.31L736.18,625.91L748.46,682.21L760.74,569.09L773.02,625L785.3,683.4L797.58,568.05L809.86,625.52L822.14,683.25L834.42,568.35L846.7,624.86L858.98,682.52L871.26,569.08L883.53,624.34L895.81,685.87L908.09,571.76L920.37,626.16L932.65,682.29L944.93,624.67L957.21,567.67L969.49,683.1L981.77,625.14L994.05,568.07L1006.3,682.25L1018.6,625.43L1030.9,580.22L1043.2,625.12L1055.4,686.71L1067.7,562.25" style="fill:none;stroke:#F15A60;stroke-width:1.875" />
<path d="M60.834,64.105L73.113,76.34L85.392,65.874L97.671,65.999L109.95,61.147L122.23,60.198L134.51,62.448L146.79,64.34L159.07,65.16L171.35,87.327L183.62,687.49L195.9,568.87L208.18,625.8L220.46,683.89L232.74,568.98L245.02,626.3L257.3,683.45L269.58,568.03L281.86,626.69L294.14,683.82L306.42,626.03L318.7,568.91L330.97,682.38L343.25,626.68L355.53,568.42L367.81,700.75L380.09,626.22L392.37,568.92L404.65,626.58L416.93,682.31L429.21,568.55L441.49,627.16L453.77,681.54L466.04,569.22L478.32,625.75L490.6,700.21L502.88,569.83L515.16,627.55L527.44,681.93L539.72,567.3L552,628.22L564.28,683.51L576.56,569.72L588.84,626.19L601.11,687.13L613.39,624.79L625.67,569.3L637.95,682.55L650.23,625.88L662.51,568.11L674.79,683.5L687.07,627.02L699.35,567.1L711.63,626.14L723.91,686.68L736.18,570.69L748.46,626.19L760.74,682.63L773.02,569.26L785.3,626.2L797.58,684.21L809.86,569.45L822.14,626.63L834.42,684.63L846.7,568.88L858.98,628.18L871.26,684.97L883.53,567.34L895.81,626.62L908.09,686.38L920.37,625.95L932.65,568.67L944.93,684.01L957.21,627.45L969.49,568.32L981.77,681.24L994.05,626.25L1006.3,569.32L1018.6,625.54L1030.9,683.54L1043.2,570.53L1055.4,626.55L1067.7,682.28L1080,570.34" style="fill:none;stroke:#7AC36A;stroke-width:1.875;stroke-dasharray:7.5,2.5" />
<path d="M1055,693.4L1080,693.4" style="fill:none;stroke:#F15A60;stroke-width:1.875" />
<text x="834.07" y="-686.35" transform="scale(1, -1)"
	style="font-family:Helvetica;font-weight:normal;font-style:normal;font-size:12pt">etcd v3 (Go tip, no compression)</text>
<path d="M1055,678.7L1080,678.7" style="fill:none;stroke:#7AC36A;stroke-width:1.875;stroke-dasharray:7.5,2.5" />
<text x="889.08" y="-671.65" transform="scale(1, -1)"
	style="font-family:Helvetica;font-weight:normal;font-style:normal;font-size:12pt">etcd v3 (Go tip, Snappy)</text>
</g>
</svg>
