<?xml version="1.0"?>
<!-- Generated by SVGo and Plotinum VG -->
<svg width="12in" height="8in"
	xmlns="http://www.w3.org/2000/svg"
	xmlns:xlink="http://www.w3.org/1999/xlink">
<g transform="scale(1, -1) translate(0, -720)">
<path d="M0,0L1080,0L1080,720L0,720Z" style="fill:#FFFFFF" />
<text x="314.32" y="-705.6" transform="scale(1, -1)"
	style="font-family:Helvetica;font-weight:normal;font-style:normal;font-size:12pt">Read 200 keys, 1-conn, 1-client, 8-byte key, 3MB value, Throughput</text>
<text x="541.5" y="-4.8486" transform="scale(1, -1)"
	style="font-family:Helvetica;font-weight:normal;font-style:normal;font-size:12pt">Second</text>
<text x="50.406" y="-19.498" transform="scale(1, -1)"
	style="font-family:Helvetica;font-weight:normal;font-style:normal;font-size:10pt">0</text>
<text x="294.19" y="-19.498" transform="scale(1, -1)"
	style="font-family:Helvetica;font-weight:normal;font-style:normal;font-size:10pt">20</text>
<text x="541.44" y="-19.498" transform="scale(1, -1)"
	style="font-family:Helvetica;font-weight:normal;font-style:normal;font-size:10pt">40</text>
<text x="788.7" y="-19.498" transform="scale(1, -1)"
	style="font-family:Helvetica;font-weight:normal;font-style:normal;font-size:10pt">60</text>
<text x="1036" y="-19.498" transform="scale(1, -1)"
	style="font-family:Helvetica;font-weight:normal;font-style:normal;font-size:10pt">80</text>
<path d="M53.882,31.498L53.882,41.498" style="fill:none;stroke:#000000;stroke-width:0.625" />
<path d="M301.14,31.498L301.14,41.498" style="fill:none;stroke:#000000;stroke-width:0.625" />
<path d="M548.4,31.498L548.4,41.498" style="fill:none;stroke:#000000;stroke-width:0.625" />
<path d="M795.65,31.498L795.65,41.498" style="fill:none;stroke:#000000;stroke-width:0.625" />
<path d="M1042.9,31.498L1042.9,41.498" style="fill:none;stroke:#000000;stroke-width:0.625" />
<path d="M177.51,36.498L177.51,41.498" style="fill:none;stroke:#000000;stroke-width:0.625" />
<path d="M424.77,36.498L424.77,41.498" style="fill:none;stroke:#000000;stroke-width:0.625" />
<path d="M672.03,36.498L672.03,41.498" style="fill:none;stroke:#000000;stroke-width:0.625" />
<path d="M919.28,36.498L919.28,41.498" style="fill:none;stroke:#000000;stroke-width:0.625" />
<path d="M53.882,41.498L1080,41.498" style="fill:none;stroke:#000000;stroke-width:0.625" />
<g transform="rotate(90)">
<text x="332.98" y="14.399" transform="scale(1, -1)"
	style="font-family:Helvetica;font-weight:normal;font-style:normal;font-size:12pt">Throughput</text>
</g>
<text x="26.2" y="-159.74" transform="scale(1, -1)"
	style="font-family:Helvetica;font-weight:normal;font-style:normal;font-size:10pt">3</text>
<text x="26.2" y="-336.08" transform="scale(1, -1)"
	style="font-family:Helvetica;font-weight:normal;font-style:normal;font-size:10pt">6</text>
<text x="26.2" y="-512.42" transform="scale(1, -1)"
	style="font-family:Helvetica;font-weight:normal;font-style:normal;font-size:10pt">9</text>
<text x="19.248" y="-688.75" transform="scale(1, -1)"
	style="font-family:Helvetica;font-weight:normal;font-style:normal;font-size:10pt">12</text>
<path d="M36.625,165.62L46.625,165.62" style="fill:none;stroke:#000000;stroke-width:0.625" />
<path d="M36.625,341.95L46.625,341.95" style="fill:none;stroke:#000000;stroke-width:0.625" />
<path d="M36.625,518.29L46.625,518.29" style="fill:none;stroke:#000000;stroke-width:0.625" />
<path d="M36.625,694.63L46.625,694.63" style="fill:none;stroke:#000000;stroke-width:0.625" />
<path d="M41.625,48.06L46.625,48.06" style="fill:none;stroke:#000000;stroke-width:0.625" />
<path d="M41.625,106.84L46.625,106.84" style="fill:none;stroke:#000000;stroke-width:0.625" />
<path d="M41.625,224.4L46.625,224.4" style="fill:none;stroke:#000000;stroke-width:0.625" />
<path d="M41.625,283.18L46.625,283.18" style="fill:none;stroke:#000000;stroke-width:0.625" />
<path d="M41.625,400.73L46.625,400.73" style="fill:none;stroke:#000000;stroke-width:0.625" />
<path d="M41.625,459.51L46.625,459.51" style="fill:none;stroke:#000000;stroke-width:0.625" />
<path d="M41.625,577.07L46.625,577.07" style="fill:none;stroke:#000000;stroke-width:0.625" />
<path d="M41.625,635.85L46.625,635.85" style="fill:none;stroke:#000000;stroke-width:0.625" />
<path d="M46.625,48.06L46.625,694.63" style="fill:none;stroke:#000000;stroke-width:0.625" />
<path d="M53.882,459.51L66.245,694.63L78.608,694.63L90.97,694.63L103.33,694.63L115.7,694.63L128.06,694.63L140.42,694.63L152.78,400.73L165.15,48.06L177.51,48.06L189.87,106.84L202.24,48.06L214.6,48.06L226.96,106.84L239.32,48.06L251.69,48.06L264.05,106.84L276.41,48.06L288.78,48.06L301.14,106.84L313.5,48.06L325.86,48.06L338.23,106.84L350.59,48.06L362.95,106.84L375.32,48.06L387.68,48.06L400.04,106.84L412.41,48.06L424.77,48.06L437.13,106.84L449.49,48.06L461.86,106.84L474.22,48.06L486.58,48.06L498.95,106.84L511.31,48.06L523.67,48.06L536.03,106.84L548.4,48.06L560.76,48.06L573.12,106.84L585.49,48.06L597.85,48.06L610.21,106.84L622.57,48.06L634.94,106.84L647.3,48.06L659.66,48.06L672.03,106.84L684.39,48.06L696.75,48.06L709.11,106.84L721.48,48.06L733.84,106.84L746.2,48.06L758.57,48.06L770.93,106.84L783.29,48.06L795.65,48.06L808.02,106.84L820.38,48.06L832.74,48.06L845.11,106.84L857.47,48.06L869.83,48.06L882.19,106.84L894.56,48.06L906.92,48.06L919.28,106.84L931.65,48.06L944.01,106.84L956.37,48.06L968.73,48.06L981.1,106.84L993.46,48.06L1005.8,48.06L1018.2,106.84L1030.5,48.06L1042.9,106.84L1055.3,48.06L1067.6,48.06" style="fill:none;stroke:#F15A60;stroke-width:1.875" />
<path d="M53.882,106.84L66.245,577.07L78.608,577.07L90.97,694.63L103.33,635.85L115.7,694.63L128.06,694.63L140.42,635.85L152.78,635.85L165.15,459.51L177.51,48.06L189.87,48.06L202.24,106.84L214.6,48.06L226.96,48.06L239.32,106.84L251.69,48.06L264.05,48.06L276.41,106.84L288.78,48.06L301.14,106.84L313.5,48.06L325.86,48.06L338.23,106.84L350.59,48.06L362.95,48.06L375.32,106.84L387.68,48.06L400.04,106.84L412.41,48.06L424.77,48.06L437.13,106.84L449.49,48.06L461.86,48.06L474.22,106.84L486.58,48.06L498.95,48.06L511.31,106.84L523.67,48.06L536.03,48.06L548.4,106.84L560.76,48.06L573.12,48.06L585.49,106.84L597.85,48.06L610.21,106.84L622.57,48.06L634.94,48.06L647.3,106.84L659.66,48.06L672.03,48.06L684.39,106.84L696.75,48.06L709.11,106.84L721.48,48.06L733.84,48.06L746.2,106.84L758.57,48.06L770.93,48.06L783.29,106.84L795.65,48.06L808.02,48.06L820.38,106.84L832.74,48.06L845.11,48.06L857.47,106.84L869.83,48.06L882.19,48.06L894.56,106.84L906.92,48.06L919.28,106.84L931.65,48.06L944.01,48.06L956.37,106.84L968.73,48.06L981.1,48.06L993.46,106.84L1005.8,48.06L1018.2,106.84L1030.5,48.06L1042.9,48.06L1055.3,106.84L1067.6,48.06L1080,48.06" style="fill:none;stroke:#7AC36A;stroke-width:1.875;stroke-dasharray:7.5,2.5" />
<path d="M1055,693.4L1080,693.4" style="fill:none;stroke:#F15A60;stroke-width:1.875" />
<text x="834.07" y="-686.35" transform="scale(1, -1)"
	style="font-family:Helvetica;font-weight:normal;font-style:normal;font-size:12pt">etcd v3 (Go tip, no compression)</text>
<path d="M1055,678.7L1080,678.7" style="fill:none;stroke:#7AC36A;stroke-width:1.875;stroke-dasharray:7.5,2.5" />
<text x="889.08" y="-671.65" transform="scale(1, -1)"
	style="font-family:Helvetica;font-weight:normal;font-style:normal;font-size:12pt">etcd v3 (Go tip, Snappy)</text>
</g>
</svg>
