<?xml version="1.0"?>
<!-- Generated by SVGo and Plotinum VG -->
<svg width="12in" height="8in"
	xmlns="http://www.w3.org/2000/svg"
	xmlns:xlink="http://www.w3.org/1999/xlink">
<g transform="scale(1, -1) translate(0, -720)">
<path d="M0,0L1080,0L1080,720L0,720Z" style="fill:#FFFFFF" />
<text x="177.6" y="-705.6" transform="scale(1, -1)"
	style="font-family:Helvetica;font-weight:normal;font-style:normal;font-size:12pt">Write 600K keys, 1000-client, 1000-conn, 8-byte same key, 256-byte value (Zookeeper), Latency(millisecond)</text>
<text x="539.77" y="-4.8486" transform="scale(1, -1)"
	style="font-family:Helvetica;font-weight:normal;font-style:normal;font-size:12pt">Second</text>
<text x="50.406" y="-19.498" transform="scale(1, -1)"
	style="font-family:Helvetica;font-weight:normal;font-style:normal;font-size:10pt">0</text>
<text x="391.29" y="-19.498" transform="scale(1, -1)"
	style="font-family:Helvetica;font-weight:normal;font-style:normal;font-size:10pt">3</text>
<text x="732.17" y="-19.498" transform="scale(1, -1)"
	style="font-family:Helvetica;font-weight:normal;font-style:normal;font-size:10pt">6</text>
<text x="1073" y="-19.498" transform="scale(1, -1)"
	style="font-family:Helvetica;font-weight:normal;font-style:normal;font-size:10pt">9</text>
<path d="M53.882,31.498L53.882,41.498" style="fill:none;stroke:#000000;stroke-width:0.625" />
<path d="M394.76,31.498L394.76,41.498" style="fill:none;stroke:#000000;stroke-width:0.625" />
<path d="M735.64,31.498L735.64,41.498" style="fill:none;stroke:#000000;stroke-width:0.625" />
<path d="M1076.5,31.498L1076.5,41.498" style="fill:none;stroke:#000000;stroke-width:0.625" />
<path d="M167.51,36.498L167.51,41.498" style="fill:none;stroke:#000000;stroke-width:0.625" />
<path d="M281.14,36.498L281.14,41.498" style="fill:none;stroke:#000000;stroke-width:0.625" />
<path d="M508.39,36.498L508.39,41.498" style="fill:none;stroke:#000000;stroke-width:0.625" />
<path d="M622.02,36.498L622.02,41.498" style="fill:none;stroke:#000000;stroke-width:0.625" />
<path d="M849.27,36.498L849.27,41.498" style="fill:none;stroke:#000000;stroke-width:0.625" />
<path d="M962.9,36.498L962.9,41.498" style="fill:none;stroke:#000000;stroke-width:0.625" />
<path d="M53.882,41.498L1076.5,41.498" style="fill:none;stroke:#000000;stroke-width:0.625" />
<g transform="rotate(90)">
<text x="306.05" y="14.399" transform="scale(1, -1)"
	style="font-family:Helvetica;font-weight:normal;font-style:normal;font-size:12pt">Latency(millisecond)</text>
</g>
<text x="19.248" y="-57.558" transform="scale(1, -1)"
	style="font-family:Helvetica;font-weight:normal;font-style:normal;font-size:10pt">10</text>
<text x="19.248" y="-192.98" transform="scale(1, -1)"
	style="font-family:Helvetica;font-weight:normal;font-style:normal;font-size:10pt">20</text>
<text x="19.248" y="-328.4" transform="scale(1, -1)"
	style="font-family:Helvetica;font-weight:normal;font-style:normal;font-size:10pt">30</text>
<text x="19.248" y="-463.81" transform="scale(1, -1)"
	style="font-family:Helvetica;font-weight:normal;font-style:normal;font-size:10pt">40</text>
<text x="19.248" y="-599.23" transform="scale(1, -1)"
	style="font-family:Helvetica;font-weight:normal;font-style:normal;font-size:10pt">50</text>
<path d="M36.625,63.432L46.625,63.432" style="fill:none;stroke:#000000;stroke-width:0.625" />
<path d="M36.625,198.85L46.625,198.85" style="fill:none;stroke:#000000;stroke-width:0.625" />
<path d="M36.625,334.27L46.625,334.27" style="fill:none;stroke:#000000;stroke-width:0.625" />
<path d="M36.625,469.69L46.625,469.69" style="fill:none;stroke:#000000;stroke-width:0.625" />
<path d="M36.625,605.11L46.625,605.11" style="fill:none;stroke:#000000;stroke-width:0.625" />
<path d="M41.625,131.14L46.625,131.14" style="fill:none;stroke:#000000;stroke-width:0.625" />
<path d="M41.625,266.56L46.625,266.56" style="fill:none;stroke:#000000;stroke-width:0.625" />
<path d="M41.625,401.98L46.625,401.98" style="fill:none;stroke:#000000;stroke-width:0.625" />
<path d="M41.625,537.4L46.625,537.4" style="fill:none;stroke:#000000;stroke-width:0.625" />
<path d="M41.625,672.82L46.625,672.82" style="fill:none;stroke:#000000;stroke-width:0.625" />
<path d="M46.625,48.06L46.625,700.75" style="fill:none;stroke:#000000;stroke-width:0.625" />
<path d="M53.882,48.06L167.51,72.137L281.14,700.75L394.76,140.98L508.39,123.48L622.02,128.13L735.64,121.67L849.27,123.98L962.9,117.89L1076.5,127.24" style="fill:none;stroke:#F15A60;stroke-width:1.875" />
<path d="M1055,693.4L1080,693.4" style="fill:none;stroke:#F15A60;stroke-width:1.875" />
<text x="934.09" y="-686.35" transform="scale(1, -1)"
	style="font-family:Helvetica;font-weight:normal;font-style:normal;font-size:12pt">Zookeeper v3.4.8</text>
</g>
</svg>
