<?xml version="1.0"?>
<!-- Generated by SVGo and Plotinum VG -->
<svg width="12in" height="8in"
	xmlns="http://www.w3.org/2000/svg"
	xmlns:xlink="http://www.w3.org/1999/xlink">
<g transform="scale(1, -1) translate(0, -720)">
<path d="M0,0L1080,0L1080,720L0,720Z" style="fill:#FFFFFF" />
<text x="230.12" y="-705.6" transform="scale(1, -1)"
	style="font-family:Helvetica;font-weight:normal;font-style:normal;font-size:12pt">Write 600K keys, 1000-client, 1000-conn, 8-byte same key, 256-byte value (Zookeeper), CPU</text>
<text x="543.24" y="-4.8486" transform="scale(1, -1)"
	style="font-family:Helvetica;font-weight:normal;font-style:normal;font-size:12pt">Second</text>
<text x="57.358" y="-19.498" transform="scale(1, -1)"
	style="font-family:Helvetica;font-weight:normal;font-style:normal;font-size:10pt">0</text>
<text x="311.28" y="-19.498" transform="scale(1, -1)"
	style="font-family:Helvetica;font-weight:normal;font-style:normal;font-size:10pt">2</text>
<text x="565.2" y="-19.498" transform="scale(1, -1)"
	style="font-family:Helvetica;font-weight:normal;font-style:normal;font-size:10pt">4</text>
<text x="819.13" y="-19.498" transform="scale(1, -1)"
	style="font-family:Helvetica;font-weight:normal;font-style:normal;font-size:10pt">6</text>
<text x="1073" y="-19.498" transform="scale(1, -1)"
	style="font-family:Helvetica;font-weight:normal;font-style:normal;font-size:10pt">8</text>
<path d="M60.834,31.498L60.834,41.498" style="fill:none;stroke:#000000;stroke-width:0.625" />
<path d="M314.76,31.498L314.76,41.498" style="fill:none;stroke:#000000;stroke-width:0.625" />
<path d="M568.68,31.498L568.68,41.498" style="fill:none;stroke:#000000;stroke-width:0.625" />
<path d="M822.6,31.498L822.6,41.498" style="fill:none;stroke:#000000;stroke-width:0.625" />
<path d="M1076.5,31.498L1076.5,41.498" style="fill:none;stroke:#000000;stroke-width:0.625" />
<path d="M187.8,36.498L187.8,41.498" style="fill:none;stroke:#000000;stroke-width:0.625" />
<path d="M441.72,36.498L441.72,41.498" style="fill:none;stroke:#000000;stroke-width:0.625" />
<path d="M695.64,36.498L695.64,41.498" style="fill:none;stroke:#000000;stroke-width:0.625" />
<path d="M949.56,36.498L949.56,41.498" style="fill:none;stroke:#000000;stroke-width:0.625" />
<path d="M60.834,41.498L1076.5,41.498" style="fill:none;stroke:#000000;stroke-width:0.625" />
<g transform="rotate(90)">
<text x="358.57" y="14.399" transform="scale(1, -1)"
	style="font-family:Helvetica;font-weight:normal;font-style:normal;font-size:12pt">CPU</text>
</g>
<text x="26.2" y="-81.414" transform="scale(1, -1)"
	style="font-family:Helvetica;font-weight:normal;font-style:normal;font-size:10pt">50</text>
<text x="19.248" y="-266.1" transform="scale(1, -1)"
	style="font-family:Helvetica;font-weight:normal;font-style:normal;font-size:10pt">100</text>
<text x="19.248" y="-450.79" transform="scale(1, -1)"
	style="font-family:Helvetica;font-weight:normal;font-style:normal;font-size:10pt">150</text>
<text x="19.248" y="-635.48" transform="scale(1, -1)"
	style="font-family:Helvetica;font-weight:normal;font-style:normal;font-size:10pt">200</text>
<path d="M43.577,87.288L53.577,87.288" style="fill:none;stroke:#000000;stroke-width:0.625" />
<path d="M43.577,271.98L53.577,271.98" style="fill:none;stroke:#000000;stroke-width:0.625" />
<path d="M43.577,456.67L53.577,456.67" style="fill:none;stroke:#000000;stroke-width:0.625" />
<path d="M43.577,641.36L53.577,641.36" style="fill:none;stroke:#000000;stroke-width:0.625" />
<path d="M48.577,50.35L53.577,50.35" style="fill:none;stroke:#000000;stroke-width:0.625" />
<path d="M48.577,124.23L53.577,124.23" style="fill:none;stroke:#000000;stroke-width:0.625" />
<path d="M48.577,161.16L53.577,161.16" style="fill:none;stroke:#000000;stroke-width:0.625" />
<path d="M48.577,198.1L53.577,198.1" style="fill:none;stroke:#000000;stroke-width:0.625" />
<path d="M48.577,235.04L53.577,235.04" style="fill:none;stroke:#000000;stroke-width:0.625" />
<path d="M48.577,308.92L53.577,308.92" style="fill:none;stroke:#000000;stroke-width:0.625" />
<path d="M48.577,345.85L53.577,345.85" style="fill:none;stroke:#000000;stroke-width:0.625" />
<path d="M48.577,382.79L53.577,382.79" style="fill:none;stroke:#000000;stroke-width:0.625" />
<path d="M48.577,419.73L53.577,419.73" style="fill:none;stroke:#000000;stroke-width:0.625" />
<path d="M48.577,493.6L53.577,493.6" style="fill:none;stroke:#000000;stroke-width:0.625" />
<path d="M48.577,530.54L53.577,530.54" style="fill:none;stroke:#000000;stroke-width:0.625" />
<path d="M48.577,567.48L53.577,567.48" style="fill:none;stroke:#000000;stroke-width:0.625" />
<path d="M48.577,604.42L53.577,604.42" style="fill:none;stroke:#000000;stroke-width:0.625" />
<path d="M48.577,678.29L53.577,678.29" style="fill:none;stroke:#000000;stroke-width:0.625" />
<path d="M53.577,48.06L53.577,700.75" style="fill:none;stroke:#000000;stroke-width:0.625" />
<path d="M60.834,48.06L187.8,198.51L314.76,287.2L441.72,375.37L568.68,457.59L695.64,532.54L822.6,601.76L949.56,655.84L1076.5,700.75" style="fill:none;stroke:#F15A60;stroke-width:1.875" />
<path d="M1055,693.4L1080,693.4" style="fill:none;stroke:#F15A60;stroke-width:1.875" />
<text x="934.09" y="-686.35" transform="scale(1, -1)"
	style="font-family:Helvetica;font-weight:normal;font-style:normal;font-size:12pt">Zookeeper v3.4.8</text>
</g>
</svg>
