<?xml version="1.0"?>
<!-- Generated by SVGo and Plotinum VG -->
<svg width="12in" height="8in"
	xmlns="http://www.w3.org/2000/svg"
	xmlns:xlink="http://www.w3.org/1999/xlink">
<g transform="scale(1, -1) translate(0, -720)">
<path d="M0,0L1080,0L1080,720L0,720Z" style="fill:#FFFFFF" />
<text x="202.63" y="-705.6" transform="scale(1, -1)"
	style="font-family:Helvetica;font-weight:normal;font-style:normal;font-size:12pt">Write 600K keys, 1000-client, 1000-conn, 8-byte same key, 256-byte value (Zookeeper), Memory(MB)</text>
<text x="543.24" y="-4.8486" transform="scale(1, -1)"
	style="font-family:Helvetica;font-weight:normal;font-style:normal;font-size:12pt">Second</text>
<text x="57.358" y="-19.498" transform="scale(1, -1)"
	style="font-family:Helvetica;font-weight:normal;font-style:normal;font-size:10pt">0</text>
<text x="311.28" y="-19.498" transform="scale(1, -1)"
	style="font-family:Helvetica;font-weight:normal;font-style:normal;font-size:10pt">2</text>
<text x="565.2" y="-19.498" transform="scale(1, -1)"
	style="font-family:Helvetica;font-weight:normal;font-style:normal;font-size:10pt">4</text>
<text x="819.13" y="-19.498" transform="scale(1, -1)"
	style="font-family:Helvetica;font-weight:normal;font-style:normal;font-size:10pt">6</text>
<text x="1073" y="-19.498" transform="scale(1, -1)"
	style="font-family:Helvetica;font-weight:normal;font-style:normal;font-size:10pt">8</text>
<path d="M60.834,31.498L60.834,41.498" style="fill:none;stroke:#000000;stroke-width:0.625" />
<path d="M314.76,31.498L314.76,41.498" style="fill:none;stroke:#000000;stroke-width:0.625" />
<path d="M568.68,31.498L568.68,41.498" style="fill:none;stroke:#000000;stroke-width:0.625" />
<path d="M822.6,31.498L822.6,41.498" style="fill:none;stroke:#000000;stroke-width:0.625" />
<path d="M1076.5,31.498L1076.5,41.498" style="fill:none;stroke:#000000;stroke-width:0.625" />
<path d="M187.8,36.498L187.8,41.498" style="fill:none;stroke:#000000;stroke-width:0.625" />
<path d="M441.72,36.498L441.72,41.498" style="fill:none;stroke:#000000;stroke-width:0.625" />
<path d="M695.64,36.498L695.64,41.498" style="fill:none;stroke:#000000;stroke-width:0.625" />
<path d="M949.56,36.498L949.56,41.498" style="fill:none;stroke:#000000;stroke-width:0.625" />
<path d="M60.834,41.498L1076.5,41.498" style="fill:none;stroke:#000000;stroke-width:0.625" />
<g transform="rotate(90)">
<text x="331.08" y="14.399" transform="scale(1, -1)"
	style="font-family:Helvetica;font-weight:normal;font-style:normal;font-size:12pt">Memory(MB)</text>
</g>
<text x="19.248" y="-94.214" transform="scale(1, -1)"
	style="font-family:Helvetica;font-weight:normal;font-style:normal;font-size:10pt">100</text>
<text x="19.248" y="-218.12" transform="scale(1, -1)"
	style="font-family:Helvetica;font-weight:normal;font-style:normal;font-size:10pt">200</text>
<text x="19.248" y="-342.03" transform="scale(1, -1)"
	style="font-family:Helvetica;font-weight:normal;font-style:normal;font-size:10pt">300</text>
<text x="19.248" y="-465.93" transform="scale(1, -1)"
	style="font-family:Helvetica;font-weight:normal;font-style:normal;font-size:10pt">400</text>
<text x="19.248" y="-589.84" transform="scale(1, -1)"
	style="font-family:Helvetica;font-weight:normal;font-style:normal;font-size:10pt">500</text>
<path d="M43.577,100.09L53.577,100.09" style="fill:none;stroke:#000000;stroke-width:0.625" />
<path d="M43.577,224L53.577,224" style="fill:none;stroke:#000000;stroke-width:0.625" />
<path d="M43.577,347.9L53.577,347.9" style="fill:none;stroke:#000000;stroke-width:0.625" />
<path d="M43.577,471.81L53.577,471.81" style="fill:none;stroke:#000000;stroke-width:0.625" />
<path d="M43.577,595.72L53.577,595.72" style="fill:none;stroke:#000000;stroke-width:0.625" />
<path d="M48.577,162.04L53.577,162.04" style="fill:none;stroke:#000000;stroke-width:0.625" />
<path d="M48.577,285.95L53.577,285.95" style="fill:none;stroke:#000000;stroke-width:0.625" />
<path d="M48.577,409.86L53.577,409.86" style="fill:none;stroke:#000000;stroke-width:0.625" />
<path d="M48.577,533.76L53.577,533.76" style="fill:none;stroke:#000000;stroke-width:0.625" />
<path d="M48.577,657.67L53.577,657.67" style="fill:none;stroke:#000000;stroke-width:0.625" />
<path d="M53.577,48.06L53.577,700.75" style="fill:none;stroke:#000000;stroke-width:0.625" />
<path d="M60.834,48.06L187.8,147.11L314.76,189.72L441.72,296.59L568.68,509.23L695.64,574.29L822.6,700.75L949.56,697.49L1076.5,694.64" style="fill:none;stroke:#F15A60;stroke-width:1.875" />
<path d="M1055,693.4L1080,693.4" style="fill:none;stroke:#F15A60;stroke-width:1.875" />
<text x="934.09" y="-686.35" transform="scale(1, -1)"
	style="font-family:Helvetica;font-weight:normal;font-style:normal;font-size:12pt">Zookeeper v3.4.8</text>
</g>
</svg>
