<?xml version="1.0"?>
<!-- Generated by SVGo and Plotinum VG -->
<svg width="12in" height="8in"
	xmlns="http://www.w3.org/2000/svg"
	xmlns:xlink="http://www.w3.org/1999/xlink">
<g transform="scale(1, -1) translate(0, -720)">
<path d="M0,0L1080,0L1080,720L0,720Z" style="fill:#FFFFFF" />
<text x="230.12" y="-705.6" transform="scale(1, -1)"
	style="font-family:Helvetica;font-weight:normal;font-style:normal;font-size:12pt">Write 600K keys, 1000-client, 1000-conn, 8-byte same key, 256-byte value (Zookeeper), CPU</text>
<text x="543.24" y="-4.8486" transform="scale(1, -1)"
	style="font-family:Helvetica;font-weight:normal;font-style:normal;font-size:12pt">Second</text>
<text x="57.358" y="-19.498" transform="scale(1, -1)"
	style="font-family:Helvetica;font-weight:normal;font-style:normal;font-size:10pt">0</text>
<text x="311.28" y="-19.498" transform="scale(1, -1)"
	style="font-family:Helvetica;font-weight:normal;font-style:normal;font-size:10pt">2</text>
<text x="565.2" y="-19.498" transform="scale(1, -1)"
	style="font-family:Helvetica;font-weight:normal;font-style:normal;font-size:10pt">4</text>
<text x="819.13" y="-19.498" transform="scale(1, -1)"
	style="font-family:Helvetica;font-weight:normal;font-style:normal;font-size:10pt">6</text>
<text x="1073" y="-19.498" transform="scale(1, -1)"
	style="font-family:Helvetica;font-weight:normal;font-style:normal;font-size:10pt">8</text>
<path d="M60.834,31.498L60.834,41.498" style="fill:none;stroke:#000000;stroke-width:0.625" />
<path d="M314.76,31.498L314.76,41.498" style="fill:none;stroke:#000000;stroke-width:0.625" />
<path d="M568.68,31.498L568.68,41.498" style="fill:none;stroke:#000000;stroke-width:0.625" />
<path d="M822.6,31.498L822.6,41.498" style="fill:none;stroke:#000000;stroke-width:0.625" />
<path d="M1076.5,31.498L1076.5,41.498" style="fill:none;stroke:#000000;stroke-width:0.625" />
<path d="M187.8,36.498L187.8,41.498" style="fill:none;stroke:#000000;stroke-width:0.625" />
<path d="M441.72,36.498L441.72,41.498" style="fill:none;stroke:#000000;stroke-width:0.625" />
<path d="M695.64,36.498L695.64,41.498" style="fill:none;stroke:#000000;stroke-width:0.625" />
<path d="M949.56,36.498L949.56,41.498" style="fill:none;stroke:#000000;stroke-width:0.625" />
<path d="M60.834,41.498L1076.5,41.498" style="fill:none;stroke:#000000;stroke-width:0.625" />
<g transform="rotate(90)">
<text x="358.57" y="14.399" transform="scale(1, -1)"
	style="font-family:Helvetica;font-weight:normal;font-style:normal;font-size:12pt">CPU</text>
</g>
<text x="26.2" y="-219.15" transform="scale(1, -1)"
	style="font-family:Helvetica;font-weight:normal;font-style:normal;font-size:10pt">60</text>
<text x="19.248" y="-426.46" transform="scale(1, -1)"
	style="font-family:Helvetica;font-weight:normal;font-style:normal;font-size:10pt">120</text>
<text x="19.248" y="-633.76" transform="scale(1, -1)"
	style="font-family:Helvetica;font-weight:normal;font-style:normal;font-size:10pt">180</text>
<path d="M43.577,225.03L53.577,225.03" style="fill:none;stroke:#000000;stroke-width:0.625" />
<path d="M43.577,432.33L53.577,432.33" style="fill:none;stroke:#000000;stroke-width:0.625" />
<path d="M43.577,639.63L53.577,639.63" style="fill:none;stroke:#000000;stroke-width:0.625" />
<path d="M48.577,86.826L53.577,86.826" style="fill:none;stroke:#000000;stroke-width:0.625" />
<path d="M48.577,155.93L53.577,155.93" style="fill:none;stroke:#000000;stroke-width:0.625" />
<path d="M48.577,294.13L53.577,294.13" style="fill:none;stroke:#000000;stroke-width:0.625" />
<path d="M48.577,363.23L53.577,363.23" style="fill:none;stroke:#000000;stroke-width:0.625" />
<path d="M48.577,501.43L53.577,501.43" style="fill:none;stroke:#000000;stroke-width:0.625" />
<path d="M48.577,570.53L53.577,570.53" style="fill:none;stroke:#000000;stroke-width:0.625" />
<path d="M53.577,48.06L53.577,700.75" style="fill:none;stroke:#000000;stroke-width:0.625" />
<path d="M60.834,48.06L187.8,213.42L314.76,336.45L441.72,391.87L568.68,480.18L695.64,554.53L822.6,613.72L949.56,660.05L1076.5,700.75" style="fill:none;stroke:#F15A60;stroke-width:1.875" />
<path d="M1055,693.4L1080,693.4" style="fill:none;stroke:#F15A60;stroke-width:1.875" />
<text x="934.09" y="-686.35" transform="scale(1, -1)"
	style="font-family:Helvetica;font-weight:normal;font-style:normal;font-size:12pt">Zookeeper v3.4.8</text>
</g>
</svg>
