<?xml version="1.0"?>
<!-- Generated by SVGo and Plotinum VG -->
<svg width="12in" height="8in"
	xmlns="http://www.w3.org/2000/svg"
	xmlns:xlink="http://www.w3.org/1999/xlink">
<g transform="scale(1, -1) translate(0, -720)">
<path d="M0,0L1080,0L1080,720L0,720Z" style="fill:#FFFFFF" />
<text x="177.6" y="-705.6" transform="scale(1, -1)"
	style="font-family:Helvetica;font-weight:normal;font-style:normal;font-size:12pt">Write 600K keys, 1000-client, 1000-conn, 8-byte same key, 256-byte value (Zookeeper), Latency(millisecond)</text>
<text x="539.77" y="-4.8486" transform="scale(1, -1)"
	style="font-family:Helvetica;font-weight:normal;font-style:normal;font-size:12pt">Second</text>
<text x="50.406" y="-19.498" transform="scale(1, -1)"
	style="font-family:Helvetica;font-weight:normal;font-style:normal;font-size:10pt">0</text>
<text x="391.29" y="-19.498" transform="scale(1, -1)"
	style="font-family:Helvetica;font-weight:normal;font-style:normal;font-size:10pt">3</text>
<text x="732.17" y="-19.498" transform="scale(1, -1)"
	style="font-family:Helvetica;font-weight:normal;font-style:normal;font-size:10pt">6</text>
<text x="1073" y="-19.498" transform="scale(1, -1)"
	style="font-family:Helvetica;font-weight:normal;font-style:normal;font-size:10pt">9</text>
<path d="M53.882,31.498L53.882,41.498" style="fill:none;stroke:#000000;stroke-width:0.625" />
<path d="M394.76,31.498L394.76,41.498" style="fill:none;stroke:#000000;stroke-width:0.625" />
<path d="M735.64,31.498L735.64,41.498" style="fill:none;stroke:#000000;stroke-width:0.625" />
<path d="M1076.5,31.498L1076.5,41.498" style="fill:none;stroke:#000000;stroke-width:0.625" />
<path d="M167.51,36.498L167.51,41.498" style="fill:none;stroke:#000000;stroke-width:0.625" />
<path d="M281.14,36.498L281.14,41.498" style="fill:none;stroke:#000000;stroke-width:0.625" />
<path d="M508.39,36.498L508.39,41.498" style="fill:none;stroke:#000000;stroke-width:0.625" />
<path d="M622.02,36.498L622.02,41.498" style="fill:none;stroke:#000000;stroke-width:0.625" />
<path d="M849.27,36.498L849.27,41.498" style="fill:none;stroke:#000000;stroke-width:0.625" />
<path d="M962.9,36.498L962.9,41.498" style="fill:none;stroke:#000000;stroke-width:0.625" />
<path d="M53.882,41.498L1076.5,41.498" style="fill:none;stroke:#000000;stroke-width:0.625" />
<g transform="rotate(90)">
<text x="306.05" y="14.399" transform="scale(1, -1)"
	style="font-family:Helvetica;font-weight:normal;font-style:normal;font-size:12pt">Latency(millisecond)</text>
</g>
<text x="19.248" y="-71.83" transform="scale(1, -1)"
	style="font-family:Helvetica;font-weight:normal;font-style:normal;font-size:10pt">14</text>
<text x="19.248" y="-256.28" transform="scale(1, -1)"
	style="font-family:Helvetica;font-weight:normal;font-style:normal;font-size:10pt">16</text>
<text x="19.248" y="-440.74" transform="scale(1, -1)"
	style="font-family:Helvetica;font-weight:normal;font-style:normal;font-size:10pt">18</text>
<text x="19.248" y="-625.19" transform="scale(1, -1)"
	style="font-family:Helvetica;font-weight:normal;font-style:normal;font-size:10pt">20</text>
<path d="M36.625,77.705L46.625,77.705" style="fill:none;stroke:#000000;stroke-width:0.625" />
<path d="M36.625,262.16L46.625,262.16" style="fill:none;stroke:#000000;stroke-width:0.625" />
<path d="M36.625,446.61L46.625,446.61" style="fill:none;stroke:#000000;stroke-width:0.625" />
<path d="M36.625,631.06L46.625,631.06" style="fill:none;stroke:#000000;stroke-width:0.625" />
<path d="M41.625,169.93L46.625,169.93" style="fill:none;stroke:#000000;stroke-width:0.625" />
<path d="M41.625,354.38L46.625,354.38" style="fill:none;stroke:#000000;stroke-width:0.625" />
<path d="M41.625,538.84L46.625,538.84" style="fill:none;stroke:#000000;stroke-width:0.625" />
<path d="M46.625,48.06L46.625,700.75" style="fill:none;stroke:#000000;stroke-width:0.625" />
<path d="M53.882,442.01L167.51,618.56L281.14,700.75L394.76,227.96L508.39,112.24L622.02,76.226L735.64,48.06L849.27,107.76L962.9,92.449L1076.5,72.67" style="fill:none;stroke:#F15A60;stroke-width:1.875" />
<path d="M1055,693.4L1080,693.4" style="fill:none;stroke:#F15A60;stroke-width:1.875" />
<text x="934.09" y="-686.35" transform="scale(1, -1)"
	style="font-family:Helvetica;font-weight:normal;font-style:normal;font-size:12pt">Zookeeper v3.4.8</text>
</g>
</svg>
