<?xml version="1.0"?>
<!-- Generated by SVGo and Plotinum VG -->
<svg width="12in" height="8in"
	xmlns="http://www.w3.org/2000/svg"
	xmlns:xlink="http://www.w3.org/1999/xlink">
<g transform="scale(1, -1) translate(0, -720)">
<path d="M0,0L1080,0L1080,720L0,720Z" style="fill:#FFFFFF" />
<text x="202.63" y="-705.6" transform="scale(1, -1)"
	style="font-family:Helvetica;font-weight:normal;font-style:normal;font-size:12pt">Write 600K keys, 1000-client, 1000-conn, 8-byte same key, 256-byte value (Zookeeper), Memory(MB)</text>
<text x="543.24" y="-4.8486" transform="scale(1, -1)"
	style="font-family:Helvetica;font-weight:normal;font-style:normal;font-size:12pt">Second</text>
<text x="57.358" y="-19.498" transform="scale(1, -1)"
	style="font-family:Helvetica;font-weight:normal;font-style:normal;font-size:10pt">0</text>
<text x="311.28" y="-19.498" transform="scale(1, -1)"
	style="font-family:Helvetica;font-weight:normal;font-style:normal;font-size:10pt">2</text>
<text x="565.2" y="-19.498" transform="scale(1, -1)"
	style="font-family:Helvetica;font-weight:normal;font-style:normal;font-size:10pt">4</text>
<text x="819.13" y="-19.498" transform="scale(1, -1)"
	style="font-family:Helvetica;font-weight:normal;font-style:normal;font-size:10pt">6</text>
<text x="1073" y="-19.498" transform="scale(1, -1)"
	style="font-family:Helvetica;font-weight:normal;font-style:normal;font-size:10pt">8</text>
<path d="M60.834,31.498L60.834,41.498" style="fill:none;stroke:#000000;stroke-width:0.625" />
<path d="M314.76,31.498L314.76,41.498" style="fill:none;stroke:#000000;stroke-width:0.625" />
<path d="M568.68,31.498L568.68,41.498" style="fill:none;stroke:#000000;stroke-width:0.625" />
<path d="M822.6,31.498L822.6,41.498" style="fill:none;stroke:#000000;stroke-width:0.625" />
<path d="M1076.5,31.498L1076.5,41.498" style="fill:none;stroke:#000000;stroke-width:0.625" />
<path d="M187.8,36.498L187.8,41.498" style="fill:none;stroke:#000000;stroke-width:0.625" />
<path d="M441.72,36.498L441.72,41.498" style="fill:none;stroke:#000000;stroke-width:0.625" />
<path d="M695.64,36.498L695.64,41.498" style="fill:none;stroke:#000000;stroke-width:0.625" />
<path d="M949.56,36.498L949.56,41.498" style="fill:none;stroke:#000000;stroke-width:0.625" />
<path d="M60.834,41.498L1076.5,41.498" style="fill:none;stroke:#000000;stroke-width:0.625" />
<g transform="rotate(90)">
<text x="331.08" y="14.399" transform="scale(1, -1)"
	style="font-family:Helvetica;font-weight:normal;font-style:normal;font-size:12pt">Memory(MB)</text>
</g>
<text x="19.248" y="-122.25" transform="scale(1, -1)"
	style="font-family:Helvetica;font-weight:normal;font-style:normal;font-size:10pt">200</text>
<text x="19.248" y="-232.11" transform="scale(1, -1)"
	style="font-family:Helvetica;font-weight:normal;font-style:normal;font-size:10pt">300</text>
<text x="19.248" y="-341.97" transform="scale(1, -1)"
	style="font-family:Helvetica;font-weight:normal;font-style:normal;font-size:10pt">400</text>
<text x="19.248" y="-451.83" transform="scale(1, -1)"
	style="font-family:Helvetica;font-weight:normal;font-style:normal;font-size:10pt">500</text>
<text x="19.248" y="-561.69" transform="scale(1, -1)"
	style="font-family:Helvetica;font-weight:normal;font-style:normal;font-size:10pt">600</text>
<text x="19.248" y="-671.55" transform="scale(1, -1)"
	style="font-family:Helvetica;font-weight:normal;font-style:normal;font-size:10pt">700</text>
<path d="M43.577,128.13L53.577,128.13" style="fill:none;stroke:#000000;stroke-width:0.625" />
<path d="M43.577,237.99L53.577,237.99" style="fill:none;stroke:#000000;stroke-width:0.625" />
<path d="M43.577,347.85L53.577,347.85" style="fill:none;stroke:#000000;stroke-width:0.625" />
<path d="M43.577,457.71L53.577,457.71" style="fill:none;stroke:#000000;stroke-width:0.625" />
<path d="M43.577,567.57L53.577,567.57" style="fill:none;stroke:#000000;stroke-width:0.625" />
<path d="M43.577,677.43L53.577,677.43" style="fill:none;stroke:#000000;stroke-width:0.625" />
<path d="M48.577,73.196L53.577,73.196" style="fill:none;stroke:#000000;stroke-width:0.625" />
<path d="M48.577,183.06L53.577,183.06" style="fill:none;stroke:#000000;stroke-width:0.625" />
<path d="M48.577,292.92L53.577,292.92" style="fill:none;stroke:#000000;stroke-width:0.625" />
<path d="M48.577,402.78L53.577,402.78" style="fill:none;stroke:#000000;stroke-width:0.625" />
<path d="M48.577,512.64L53.577,512.64" style="fill:none;stroke:#000000;stroke-width:0.625" />
<path d="M48.577,622.5L53.577,622.5" style="fill:none;stroke:#000000;stroke-width:0.625" />
<path d="M53.577,48.06L53.577,700.75" style="fill:none;stroke:#000000;stroke-width:0.625" />
<path d="M60.834,48.06L187.8,158.1L314.76,296.49L441.72,447.07L568.68,649.4L695.64,694.27L822.6,694.87L949.56,699.92L1076.5,700.75" style="fill:none;stroke:#F15A60;stroke-width:1.875" />
<path d="M1055,693.4L1080,693.4" style="fill:none;stroke:#F15A60;stroke-width:1.875" />
<text x="934.09" y="-686.35" transform="scale(1, -1)"
	style="font-family:Helvetica;font-weight:normal;font-style:normal;font-size:12pt">Zookeeper v3.4.8</text>
</g>
</svg>
