<?xml version="1.0"?>
<!-- Generated by SVGo and Plotinum VG -->
<svg width="12in" height="8in"
	xmlns="http://www.w3.org/2000/svg"
	xmlns:xlink="http://www.w3.org/1999/xlink">
<g transform="scale(1, -1) translate(0, -720)">
<path d="M0,0L1080,0L1080,720L0,720Z" style="fill:#FFFFFF" />
<text x="207.73" y="-705.6" transform="scale(1, -1)"
	style="font-family:Helvetica;font-weight:normal;font-style:normal;font-size:12pt">Write 600K keys, 1000-client, 1000-conn, 8-byte same key, 256-byte value (Zookeeper), Throughput</text>
<text x="550.37" y="-4.8486" transform="scale(1, -1)"
	style="font-family:Helvetica;font-weight:normal;font-style:normal;font-size:12pt">Second</text>
<text x="71.609" y="-19.498" transform="scale(1, -1)"
	style="font-family:Helvetica;font-weight:normal;font-style:normal;font-size:10pt">0</text>
<text x="405.42" y="-19.498" transform="scale(1, -1)"
	style="font-family:Helvetica;font-weight:normal;font-style:normal;font-size:10pt">3</text>
<text x="739.24" y="-19.498" transform="scale(1, -1)"
	style="font-family:Helvetica;font-weight:normal;font-style:normal;font-size:10pt">6</text>
<text x="1073" y="-19.498" transform="scale(1, -1)"
	style="font-family:Helvetica;font-weight:normal;font-style:normal;font-size:10pt">9</text>
<path d="M75.085,31.498L75.085,41.498" style="fill:none;stroke:#000000;stroke-width:0.625" />
<path d="M408.9,31.498L408.9,41.498" style="fill:none;stroke:#000000;stroke-width:0.625" />
<path d="M742.71,31.498L742.71,41.498" style="fill:none;stroke:#000000;stroke-width:0.625" />
<path d="M1076.5,31.498L1076.5,41.498" style="fill:none;stroke:#000000;stroke-width:0.625" />
<path d="M186.36,36.498L186.36,41.498" style="fill:none;stroke:#000000;stroke-width:0.625" />
<path d="M297.63,36.498L297.63,41.498" style="fill:none;stroke:#000000;stroke-width:0.625" />
<path d="M520.17,36.498L520.17,41.498" style="fill:none;stroke:#000000;stroke-width:0.625" />
<path d="M631.44,36.498L631.44,41.498" style="fill:none;stroke:#000000;stroke-width:0.625" />
<path d="M853.98,36.498L853.98,41.498" style="fill:none;stroke:#000000;stroke-width:0.625" />
<path d="M965.25,36.498L965.25,41.498" style="fill:none;stroke:#000000;stroke-width:0.625" />
<path d="M75.085,41.498L1076.5,41.498" style="fill:none;stroke:#000000;stroke-width:0.625" />
<g transform="rotate(90)">
<text x="336.05" y="14.399" transform="scale(1, -1)"
	style="font-family:Helvetica;font-weight:normal;font-style:normal;font-size:12pt">Throughput</text>
</g>
<text x="19.248" y="-137.31" transform="scale(1, -1)"
	style="font-family:Helvetica;font-weight:normal;font-style:normal;font-size:10pt">2e+04</text>
<text x="19.248" y="-246.95" transform="scale(1, -1)"
	style="font-family:Helvetica;font-weight:normal;font-style:normal;font-size:10pt">3e+04</text>
<text x="19.248" y="-356.6" transform="scale(1, -1)"
	style="font-family:Helvetica;font-weight:normal;font-style:normal;font-size:10pt">4e+04</text>
<text x="19.248" y="-466.25" transform="scale(1, -1)"
	style="font-family:Helvetica;font-weight:normal;font-style:normal;font-size:10pt">5e+04</text>
<text x="19.248" y="-575.9" transform="scale(1, -1)"
	style="font-family:Helvetica;font-weight:normal;font-style:normal;font-size:10pt">6e+04</text>
<text x="19.248" y="-685.55" transform="scale(1, -1)"
	style="font-family:Helvetica;font-weight:normal;font-style:normal;font-size:10pt">7e+04</text>
<path d="M57.828,143.18L67.828,143.18" style="fill:none;stroke:#000000;stroke-width:0.625" />
<path d="M57.828,252.83L67.828,252.83" style="fill:none;stroke:#000000;stroke-width:0.625" />
<path d="M57.828,362.48L67.828,362.48" style="fill:none;stroke:#000000;stroke-width:0.625" />
<path d="M57.828,472.12L67.828,472.12" style="fill:none;stroke:#000000;stroke-width:0.625" />
<path d="M57.828,581.77L67.828,581.77" style="fill:none;stroke:#000000;stroke-width:0.625" />
<path d="M57.828,691.42L67.828,691.42" style="fill:none;stroke:#000000;stroke-width:0.625" />
<path d="M62.828,88.356L67.828,88.356" style="fill:none;stroke:#000000;stroke-width:0.625" />
<path d="M62.828,198L67.828,198" style="fill:none;stroke:#000000;stroke-width:0.625" />
<path d="M62.828,307.65L67.828,307.65" style="fill:none;stroke:#000000;stroke-width:0.625" />
<path d="M62.828,417.3L67.828,417.3" style="fill:none;stroke:#000000;stroke-width:0.625" />
<path d="M62.828,526.95L67.828,526.95" style="fill:none;stroke:#000000;stroke-width:0.625" />
<path d="M62.828,636.6L67.828,636.6" style="fill:none;stroke:#000000;stroke-width:0.625" />
<path d="M67.828,48.06L67.828,700.75" style="fill:none;stroke:#000000;stroke-width:0.625" />
<path d="M75.085,48.06L186.36,230.58L297.63,173.32L408.9,629.05L520.17,681.54L631.44,663.88L742.71,686.8L853.98,677.82L965.25,700.75L1076.5,663.04" style="fill:none;stroke:#F15A60;stroke-width:1.875" />
<path d="M1055,693.4L1080,693.4" style="fill:none;stroke:#F15A60;stroke-width:1.875" />
<text x="934.09" y="-686.35" transform="scale(1, -1)"
	style="font-family:Helvetica;font-weight:normal;font-style:normal;font-size:12pt">Zookeeper v3.4.8</text>
</g>
</svg>
