<?xml version="1.0"?>
<!-- Generated by SVGo and Plotinum VG -->
<svg width="12in" height="8in"
	xmlns="http://www.w3.org/2000/svg"
	xmlns:xlink="http://www.w3.org/1999/xlink">
<g transform="scale(1, -1) translate(0, -720)">
<path d="M0,0L1080,0L1080,720L0,720Z" style="fill:#FFFFFF" />
<text x="207.73" y="-705.6" transform="scale(1, -1)"
	style="font-family:Helvetica;font-weight:normal;font-style:normal;font-size:12pt">Write 600K keys, 1000-client, 1000-conn, 8-byte same key, 256-byte value (Zookeeper), Throughput</text>
<text x="550.37" y="-4.8486" transform="scale(1, -1)"
	style="font-family:Helvetica;font-weight:normal;font-style:normal;font-size:12pt">Second</text>
<text x="71.609" y="-19.498" transform="scale(1, -1)"
	style="font-family:Helvetica;font-weight:normal;font-style:normal;font-size:10pt">0</text>
<text x="405.42" y="-19.498" transform="scale(1, -1)"
	style="font-family:Helvetica;font-weight:normal;font-style:normal;font-size:10pt">3</text>
<text x="739.24" y="-19.498" transform="scale(1, -1)"
	style="font-family:Helvetica;font-weight:normal;font-style:normal;font-size:10pt">6</text>
<text x="1073" y="-19.498" transform="scale(1, -1)"
	style="font-family:Helvetica;font-weight:normal;font-style:normal;font-size:10pt">9</text>
<path d="M75.085,31.498L75.085,41.498" style="fill:none;stroke:#000000;stroke-width:0.625" />
<path d="M408.9,31.498L408.9,41.498" style="fill:none;stroke:#000000;stroke-width:0.625" />
<path d="M742.71,31.498L742.71,41.498" style="fill:none;stroke:#000000;stroke-width:0.625" />
<path d="M1076.5,31.498L1076.5,41.498" style="fill:none;stroke:#000000;stroke-width:0.625" />
<path d="M186.36,36.498L186.36,41.498" style="fill:none;stroke:#000000;stroke-width:0.625" />
<path d="M297.63,36.498L297.63,41.498" style="fill:none;stroke:#000000;stroke-width:0.625" />
<path d="M520.17,36.498L520.17,41.498" style="fill:none;stroke:#000000;stroke-width:0.625" />
<path d="M631.44,36.498L631.44,41.498" style="fill:none;stroke:#000000;stroke-width:0.625" />
<path d="M853.98,36.498L853.98,41.498" style="fill:none;stroke:#000000;stroke-width:0.625" />
<path d="M965.25,36.498L965.25,41.498" style="fill:none;stroke:#000000;stroke-width:0.625" />
<path d="M75.085,41.498L1076.5,41.498" style="fill:none;stroke:#000000;stroke-width:0.625" />
<g transform="rotate(90)">
<text x="336.05" y="14.399" transform="scale(1, -1)"
	style="font-family:Helvetica;font-weight:normal;font-style:normal;font-size:12pt">Throughput</text>
</g>
<text x="19.248" y="-131.92" transform="scale(1, -1)"
	style="font-family:Helvetica;font-weight:normal;font-style:normal;font-size:10pt">2e+04</text>
<text x="19.248" y="-345.95" transform="scale(1, -1)"
	style="font-family:Helvetica;font-weight:normal;font-style:normal;font-size:10pt">4e+04</text>
<text x="19.248" y="-559.97" transform="scale(1, -1)"
	style="font-family:Helvetica;font-weight:normal;font-style:normal;font-size:10pt">6e+04</text>
<path d="M57.828,137.79L67.828,137.79" style="fill:none;stroke:#000000;stroke-width:0.625" />
<path d="M57.828,351.82L67.828,351.82" style="fill:none;stroke:#000000;stroke-width:0.625" />
<path d="M57.828,565.85L67.828,565.85" style="fill:none;stroke:#000000;stroke-width:0.625" />
<path d="M62.828,244.81L67.828,244.81" style="fill:none;stroke:#000000;stroke-width:0.625" />
<path d="M62.828,458.84L67.828,458.84" style="fill:none;stroke:#000000;stroke-width:0.625" />
<path d="M62.828,672.86L67.828,672.86" style="fill:none;stroke:#000000;stroke-width:0.625" />
<path d="M67.828,48.06L67.828,700.75" style="fill:none;stroke:#000000;stroke-width:0.625" />
<path d="M75.085,48.06L186.36,387.86L297.63,457.83L408.9,636.41L520.17,663.79L631.44,680.32L742.71,700.75L853.98,665.53L965.25,674.76L1076.5,681.52" style="fill:none;stroke:#F15A60;stroke-width:1.875" />
<path d="M1055,693.4L1080,693.4" style="fill:none;stroke:#F15A60;stroke-width:1.875" />
<text x="934.09" y="-686.35" transform="scale(1, -1)"
	style="font-family:Helvetica;font-weight:normal;font-style:normal;font-size:12pt">Zookeeper v3.4.8</text>
</g>
</svg>
