<?xml version="1.0"?>
<!-- Generated by SVGo and Plotinum VG -->
<svg width="12in" height="8in"
	xmlns="http://www.w3.org/2000/svg"
	xmlns:xlink="http://www.w3.org/1999/xlink">
<g transform="scale(1, -1) translate(0, -720)">
<path d="M0,0L1080,0L1080,720L0,720Z" style="fill:#FFFFFF" />
<text x="220.24" y="-705.6" transform="scale(1, -1)"
	style="font-family:Helvetica;font-weight:normal;font-style:normal;font-size:12pt">Write 600K keys, 1000-client, 1000-conn, 8-byte same key, 256-byte value (Consul), Throughput</text>
<text x="548.46" y="-4.8486" transform="scale(1, -1)"
	style="font-family:Helvetica;font-weight:normal;font-style:normal;font-size:12pt">Second</text>
<text x="64.31" y="-19.498" transform="scale(1, -1)"
	style="font-family:Helvetica;font-weight:normal;font-style:normal;font-size:10pt">0</text>
<text x="382.17" y="-19.498" transform="scale(1, -1)"
	style="font-family:Helvetica;font-weight:normal;font-style:normal;font-size:10pt">20</text>
<text x="703.51" y="-19.498" transform="scale(1, -1)"
	style="font-family:Helvetica;font-weight:normal;font-style:normal;font-size:10pt">40</text>
<text x="1024.8" y="-19.498" transform="scale(1, -1)"
	style="font-family:Helvetica;font-weight:normal;font-style:normal;font-size:10pt">60</text>
<path d="M67.786,31.498L67.786,41.498" style="fill:none;stroke:#000000;stroke-width:0.625" />
<path d="M389.12,31.498L389.12,41.498" style="fill:none;stroke:#000000;stroke-width:0.625" />
<path d="M710.46,31.498L710.46,41.498" style="fill:none;stroke:#000000;stroke-width:0.625" />
<path d="M1031.8,31.498L1031.8,41.498" style="fill:none;stroke:#000000;stroke-width:0.625" />
<path d="M228.45,36.498L228.45,41.498" style="fill:none;stroke:#000000;stroke-width:0.625" />
<path d="M549.79,36.498L549.79,41.498" style="fill:none;stroke:#000000;stroke-width:0.625" />
<path d="M871.13,36.498L871.13,41.498" style="fill:none;stroke:#000000;stroke-width:0.625" />
<path d="M67.786,41.498L1080,41.498" style="fill:none;stroke:#000000;stroke-width:0.625" />
<g transform="rotate(90)">
<text x="336.05" y="14.399" transform="scale(1, -1)"
	style="font-family:Helvetica;font-weight:normal;font-style:normal;font-size:12pt">Throughput</text>
</g>
<text x="19.248" y="-185.02" transform="scale(1, -1)"
	style="font-family:Helvetica;font-weight:normal;font-style:normal;font-size:10pt">3000</text>
<text x="19.248" y="-381.67" transform="scale(1, -1)"
	style="font-family:Helvetica;font-weight:normal;font-style:normal;font-size:10pt">6000</text>
<text x="19.248" y="-578.33" transform="scale(1, -1)"
	style="font-family:Helvetica;font-weight:normal;font-style:normal;font-size:10pt">9000</text>
<path d="M50.529,190.9L60.529,190.9" style="fill:none;stroke:#000000;stroke-width:0.625" />
<path d="M50.529,387.55L60.529,387.55" style="fill:none;stroke:#000000;stroke-width:0.625" />
<path d="M50.529,584.2L60.529,584.2" style="fill:none;stroke:#000000;stroke-width:0.625" />
<path d="M55.529,59.794L60.529,59.794" style="fill:none;stroke:#000000;stroke-width:0.625" />
<path d="M55.529,125.34L60.529,125.34" style="fill:none;stroke:#000000;stroke-width:0.625" />
<path d="M55.529,256.45L60.529,256.45" style="fill:none;stroke:#000000;stroke-width:0.625" />
<path d="M55.529,322L60.529,322" style="fill:none;stroke:#000000;stroke-width:0.625" />
<path d="M55.529,453.1L60.529,453.1" style="fill:none;stroke:#000000;stroke-width:0.625" />
<path d="M55.529,518.65L60.529,518.65" style="fill:none;stroke:#000000;stroke-width:0.625" />
<path d="M55.529,649.75L60.529,649.75" style="fill:none;stroke:#000000;stroke-width:0.625" />
<path d="M60.529,48.06L60.529,700.75" style="fill:none;stroke:#000000;stroke-width:0.625" />
<path d="M67.786,48.06L83.853,700.69L99.919,694.07L115.99,606.88L132.05,537.07L148.12,573.19L164.19,548.02L180.25,548.02L196.32,548.02L212.39,530.19L228.45,565.78L244.52,559.23L260.59,578.63L276.66,626.48L292.72,666.08L308.79,627.01L324.86,639.59L340.92,659.59L356.99,659.52L373.06,637.69L389.12,644.71L405.19,637.82L421.26,642.15L437.32,653.75L453.39,678.73L469.46,655.59L485.52,646.61L501.59,633.5L517.66,681.87L533.73,700.75L549.79,653.82L565.86,683.64L581.93,639.13L597.99,644.84L614.06,640.51L630.13,668.5L646.19,651.2L662.26,635.14L678.33,682.46L694.39,624.06L710.46,641.23L726.53,498.79L742.6,575.35L758.66,537.73L774.73,570.83L790.8,531.24L806.86,531.83L822.93,515.05L839,559.69L855.06,548.08L871.13,585.38L887.2,609.31L903.26,606.69L919.33,630.74L935.4,625.63L951.46,586.56L967.53,633.3L983.6,618.35L999.67,656.64L1015.7,617.11L1031.8,626.29L1047.9,643.46L1063.9,633.23L1080,596.72" style="fill:none;stroke:#F15A60;stroke-width:1.875" />
<path d="M1055,693.4L1080,693.4" style="fill:none;stroke:#F15A60;stroke-width:1.875" />
<text x="959.11" y="-686.35" transform="scale(1, -1)"
	style="font-family:Helvetica;font-weight:normal;font-style:normal;font-size:12pt">Consul v0.6.4</text>
</g>
</svg>
