<?xml version="1.0"?>
<!-- Generated by SVGo and Plotinum VG -->
<svg width="12in" height="8in"
	xmlns="http://www.w3.org/2000/svg"
	xmlns:xlink="http://www.w3.org/1999/xlink">
<g transform="scale(1, -1) translate(0, -720)">
<path d="M0,0L1080,0L1080,720L0,720Z" style="fill:#FFFFFF" />
<text x="234.73" y="-705.6" transform="scale(1, -1)"
	style="font-family:Helvetica;font-weight:normal;font-style:normal;font-size:12pt">Write 200K keys, 1000-client, 1000-conn, 8-byte key, 256-byte value (etcd v2), Memory(MB)</text>
<text x="544.98" y="-4.8486" transform="scale(1, -1)"
	style="font-family:Helvetica;font-weight:normal;font-style:normal;font-size:12pt">Second</text>
<text x="57.358" y="-19.498" transform="scale(1, -1)"
	style="font-family:Helvetica;font-weight:normal;font-style:normal;font-size:10pt">0</text>
<text x="348.55" y="-19.498" transform="scale(1, -1)"
	style="font-family:Helvetica;font-weight:normal;font-style:normal;font-size:10pt">2</text>
<text x="639.74" y="-19.498" transform="scale(1, -1)"
	style="font-family:Helvetica;font-weight:normal;font-style:normal;font-size:10pt">4</text>
<text x="930.93" y="-19.498" transform="scale(1, -1)"
	style="font-family:Helvetica;font-weight:normal;font-style:normal;font-size:10pt">6</text>
<path d="M60.834,31.498L60.834,41.498" style="fill:none;stroke:#000000;stroke-width:0.625" />
<path d="M352.02,31.498L352.02,41.498" style="fill:none;stroke:#000000;stroke-width:0.625" />
<path d="M643.21,31.498L643.21,41.498" style="fill:none;stroke:#000000;stroke-width:0.625" />
<path d="M934.4,31.498L934.4,41.498" style="fill:none;stroke:#000000;stroke-width:0.625" />
<path d="M206.43,36.498L206.43,41.498" style="fill:none;stroke:#000000;stroke-width:0.625" />
<path d="M497.62,36.498L497.62,41.498" style="fill:none;stroke:#000000;stroke-width:0.625" />
<path d="M788.81,36.498L788.81,41.498" style="fill:none;stroke:#000000;stroke-width:0.625" />
<path d="M1080,36.498L1080,41.498" style="fill:none;stroke:#000000;stroke-width:0.625" />
<path d="M60.834,41.498L1080,41.498" style="fill:none;stroke:#000000;stroke-width:0.625" />
<g transform="rotate(90)">
<text x="331.08" y="14.399" transform="scale(1, -1)"
	style="font-family:Helvetica;font-weight:normal;font-style:normal;font-size:12pt">Memory(MB)</text>
</g>
<text x="19.248" y="-186.96" transform="scale(1, -1)"
	style="font-family:Helvetica;font-weight:normal;font-style:normal;font-size:10pt">200</text>
<text x="19.248" y="-345.66" transform="scale(1, -1)"
	style="font-family:Helvetica;font-weight:normal;font-style:normal;font-size:10pt">400</text>
<text x="19.248" y="-504.35" transform="scale(1, -1)"
	style="font-family:Helvetica;font-weight:normal;font-style:normal;font-size:10pt">600</text>
<text x="19.248" y="-663.04" transform="scale(1, -1)"
	style="font-family:Helvetica;font-weight:normal;font-style:normal;font-size:10pt">800</text>
<path d="M43.577,192.84L53.577,192.84" style="fill:none;stroke:#000000;stroke-width:0.625" />
<path d="M43.577,351.53L53.577,351.53" style="fill:none;stroke:#000000;stroke-width:0.625" />
<path d="M43.577,510.22L53.577,510.22" style="fill:none;stroke:#000000;stroke-width:0.625" />
<path d="M43.577,668.92L53.577,668.92" style="fill:none;stroke:#000000;stroke-width:0.625" />
<path d="M48.577,113.49L53.577,113.49" style="fill:none;stroke:#000000;stroke-width:0.625" />
<path d="M48.577,272.18L53.577,272.18" style="fill:none;stroke:#000000;stroke-width:0.625" />
<path d="M48.577,430.88L53.577,430.88" style="fill:none;stroke:#000000;stroke-width:0.625" />
<path d="M48.577,589.57L53.577,589.57" style="fill:none;stroke:#000000;stroke-width:0.625" />
<path d="M53.577,48.06L53.577,700.75" style="fill:none;stroke:#000000;stroke-width:0.625" />
<path d="M60.834,48.06L206.43,145.54L352.02,248.83L497.62,325.79L643.21,409.35L788.81,485.84L934.4,647.9L1080,700.75" style="fill:none;stroke:#F15A60;stroke-width:1.875" />
<path d="M1055,693.4L1080,693.4" style="fill:none;stroke:#F15A60;stroke-width:1.875" />
<text x="1002.5" y="-686.35" transform="scale(1, -1)"
	style="font-family:Helvetica;font-weight:normal;font-style:normal;font-size:12pt">etcd v2</text>
</g>
</svg>
