<?xml version="1.0"?>
<!-- Generated by SVGo and Plotinum VG -->
<svg width="12in" height="8in"
	xmlns="http://www.w3.org/2000/svg"
	xmlns:xlink="http://www.w3.org/1999/xlink">
<g transform="scale(1, -1) translate(0, -720)">
<path d="M0,0L1080,0L1080,720L0,720Z" style="fill:#FFFFFF" />
<text x="209.7" y="-705.6" transform="scale(1, -1)"
	style="font-family:Helvetica;font-weight:normal;font-style:normal;font-size:12pt">Write 200K keys, 1000-client, 1000-conn, 8-byte key, 256-byte value (etcd v2), Latency(millisecond)</text>
<text x="539.77" y="-4.8486" transform="scale(1, -1)"
	style="font-family:Helvetica;font-weight:normal;font-style:normal;font-size:12pt">Second</text>
<text x="50.406" y="-19.498" transform="scale(1, -1)"
	style="font-family:Helvetica;font-weight:normal;font-style:normal;font-size:10pt">0</text>
<text x="306.07" y="-19.498" transform="scale(1, -1)"
	style="font-family:Helvetica;font-weight:normal;font-style:normal;font-size:10pt">2</text>
<text x="561.73" y="-19.498" transform="scale(1, -1)"
	style="font-family:Helvetica;font-weight:normal;font-style:normal;font-size:10pt">4</text>
<text x="817.39" y="-19.498" transform="scale(1, -1)"
	style="font-family:Helvetica;font-weight:normal;font-style:normal;font-size:10pt">6</text>
<text x="1073" y="-19.498" transform="scale(1, -1)"
	style="font-family:Helvetica;font-weight:normal;font-style:normal;font-size:10pt">8</text>
<path d="M53.882,31.498L53.882,41.498" style="fill:none;stroke:#000000;stroke-width:0.625" />
<path d="M309.54,31.498L309.54,41.498" style="fill:none;stroke:#000000;stroke-width:0.625" />
<path d="M565.2,31.498L565.2,41.498" style="fill:none;stroke:#000000;stroke-width:0.625" />
<path d="M820.86,31.498L820.86,41.498" style="fill:none;stroke:#000000;stroke-width:0.625" />
<path d="M1076.5,31.498L1076.5,41.498" style="fill:none;stroke:#000000;stroke-width:0.625" />
<path d="M181.71,36.498L181.71,41.498" style="fill:none;stroke:#000000;stroke-width:0.625" />
<path d="M437.37,36.498L437.37,41.498" style="fill:none;stroke:#000000;stroke-width:0.625" />
<path d="M693.03,36.498L693.03,41.498" style="fill:none;stroke:#000000;stroke-width:0.625" />
<path d="M948.69,36.498L948.69,41.498" style="fill:none;stroke:#000000;stroke-width:0.625" />
<path d="M53.882,41.498L1076.5,41.498" style="fill:none;stroke:#000000;stroke-width:0.625" />
<g transform="rotate(90)">
<text x="306.05" y="14.399" transform="scale(1, -1)"
	style="font-family:Helvetica;font-weight:normal;font-style:normal;font-size:12pt">Latency(millisecond)</text>
</g>
<text x="19.248" y="-86.476" transform="scale(1, -1)"
	style="font-family:Helvetica;font-weight:normal;font-style:normal;font-size:10pt">30</text>
<text x="19.248" y="-213.11" transform="scale(1, -1)"
	style="font-family:Helvetica;font-weight:normal;font-style:normal;font-size:10pt">40</text>
<text x="19.248" y="-339.74" transform="scale(1, -1)"
	style="font-family:Helvetica;font-weight:normal;font-style:normal;font-size:10pt">50</text>
<text x="19.248" y="-466.37" transform="scale(1, -1)"
	style="font-family:Helvetica;font-weight:normal;font-style:normal;font-size:10pt">60</text>
<text x="19.248" y="-593" transform="scale(1, -1)"
	style="font-family:Helvetica;font-weight:normal;font-style:normal;font-size:10pt">70</text>
<path d="M36.625,92.35L46.625,92.35" style="fill:none;stroke:#000000;stroke-width:0.625" />
<path d="M36.625,218.98L46.625,218.98" style="fill:none;stroke:#000000;stroke-width:0.625" />
<path d="M36.625,345.61L46.625,345.61" style="fill:none;stroke:#000000;stroke-width:0.625" />
<path d="M36.625,472.24L46.625,472.24" style="fill:none;stroke:#000000;stroke-width:0.625" />
<path d="M36.625,598.87L46.625,598.87" style="fill:none;stroke:#000000;stroke-width:0.625" />
<path d="M41.625,155.67L46.625,155.67" style="fill:none;stroke:#000000;stroke-width:0.625" />
<path d="M41.625,282.3L46.625,282.3" style="fill:none;stroke:#000000;stroke-width:0.625" />
<path d="M41.625,408.93L46.625,408.93" style="fill:none;stroke:#000000;stroke-width:0.625" />
<path d="M41.625,535.56L46.625,535.56" style="fill:none;stroke:#000000;stroke-width:0.625" />
<path d="M41.625,662.19L46.625,662.19" style="fill:none;stroke:#000000;stroke-width:0.625" />
<path d="M46.625,48.06L46.625,700.75" style="fill:none;stroke:#000000;stroke-width:0.625" />
<path d="M53.882,48.06L181.71,98.235L309.54,247.59L437.37,228.44L565.2,371.16L693.03,405.49L820.86,412.78L948.69,700.75L1076.5,365.92" style="fill:none;stroke:#F15A60;stroke-width:1.875" />
<path d="M1055,693.4L1080,693.4" style="fill:none;stroke:#F15A60;stroke-width:1.875" />
<text x="1002.5" y="-686.35" transform="scale(1, -1)"
	style="font-family:Helvetica;font-weight:normal;font-style:normal;font-size:12pt">etcd v2</text>
</g>
</svg>
