<?xml version="1.0"?>
<!-- Generated by SVGo and Plotinum VG -->
<svg width="12in" height="8in"
	xmlns="http://www.w3.org/2000/svg"
	xmlns:xlink="http://www.w3.org/1999/xlink">
<g transform="scale(1, -1) translate(0, -720)">
<path d="M0,0L1080,0L1080,720L0,720Z" style="fill:#FFFFFF" />
<text x="209.7" y="-705.6" transform="scale(1, -1)"
	style="font-family:Helvetica;font-weight:normal;font-style:normal;font-size:12pt">Write 200K keys, 1000-client, 1000-conn, 8-byte key, 256-byte value (etcd v2), Latency(millisecond)</text>
<text x="541.5" y="-4.8486" transform="scale(1, -1)"
	style="font-family:Helvetica;font-weight:normal;font-style:normal;font-size:12pt">Second</text>
<text x="50.406" y="-19.498" transform="scale(1, -1)"
	style="font-family:Helvetica;font-weight:normal;font-style:normal;font-size:10pt">0</text>
<text x="343.58" y="-19.498" transform="scale(1, -1)"
	style="font-family:Helvetica;font-weight:normal;font-style:normal;font-size:10pt">2</text>
<text x="636.76" y="-19.498" transform="scale(1, -1)"
	style="font-family:Helvetica;font-weight:normal;font-style:normal;font-size:10pt">4</text>
<text x="929.94" y="-19.498" transform="scale(1, -1)"
	style="font-family:Helvetica;font-weight:normal;font-style:normal;font-size:10pt">6</text>
<path d="M53.882,31.498L53.882,41.498" style="fill:none;stroke:#000000;stroke-width:0.625" />
<path d="M347.06,31.498L347.06,41.498" style="fill:none;stroke:#000000;stroke-width:0.625" />
<path d="M640.24,31.498L640.24,41.498" style="fill:none;stroke:#000000;stroke-width:0.625" />
<path d="M933.41,31.498L933.41,41.498" style="fill:none;stroke:#000000;stroke-width:0.625" />
<path d="M200.47,36.498L200.47,41.498" style="fill:none;stroke:#000000;stroke-width:0.625" />
<path d="M493.65,36.498L493.65,41.498" style="fill:none;stroke:#000000;stroke-width:0.625" />
<path d="M786.82,36.498L786.82,41.498" style="fill:none;stroke:#000000;stroke-width:0.625" />
<path d="M1080,36.498L1080,41.498" style="fill:none;stroke:#000000;stroke-width:0.625" />
<path d="M53.882,41.498L1080,41.498" style="fill:none;stroke:#000000;stroke-width:0.625" />
<g transform="rotate(90)">
<text x="306.05" y="14.399" transform="scale(1, -1)"
	style="font-family:Helvetica;font-weight:normal;font-style:normal;font-size:12pt">Latency(millisecond)</text>
</g>
<text x="19.248" y="-131.52" transform="scale(1, -1)"
	style="font-family:Helvetica;font-weight:normal;font-style:normal;font-size:10pt">30</text>
<text x="19.248" y="-321.63" transform="scale(1, -1)"
	style="font-family:Helvetica;font-weight:normal;font-style:normal;font-size:10pt">40</text>
<text x="19.248" y="-511.73" transform="scale(1, -1)"
	style="font-family:Helvetica;font-weight:normal;font-style:normal;font-size:10pt">50</text>
<path d="M36.625,137.39L46.625,137.39" style="fill:none;stroke:#000000;stroke-width:0.625" />
<path d="M36.625,327.5L46.625,327.5" style="fill:none;stroke:#000000;stroke-width:0.625" />
<path d="M36.625,517.61L46.625,517.61" style="fill:none;stroke:#000000;stroke-width:0.625" />
<path d="M41.625,232.45L46.625,232.45" style="fill:none;stroke:#000000;stroke-width:0.625" />
<path d="M41.625,422.55L46.625,422.55" style="fill:none;stroke:#000000;stroke-width:0.625" />
<path d="M41.625,612.66L46.625,612.66" style="fill:none;stroke:#000000;stroke-width:0.625" />
<path d="M46.625,48.06L46.625,700.75" style="fill:none;stroke:#000000;stroke-width:0.625" />
<path d="M53.882,48.06L200.47,138.81L347.06,207.55L493.65,390.64L640.24,531.59L786.82,565.54L933.41,540.56L1080,700.75" style="fill:none;stroke:#F15A60;stroke-width:1.875" />
<path d="M1055,693.4L1080,693.4" style="fill:none;stroke:#F15A60;stroke-width:1.875" />
<text x="1002.5" y="-686.35" transform="scale(1, -1)"
	style="font-family:Helvetica;font-weight:normal;font-style:normal;font-size:12pt">etcd v2</text>
</g>
</svg>
