<?xml version="1.0"?>
<!-- Generated by SVGo and Plotinum VG -->
<svg width="12in" height="8in"
	xmlns="http://www.w3.org/2000/svg"
	xmlns:xlink="http://www.w3.org/1999/xlink">
<g transform="scale(1, -1) translate(0, -720)">
<path d="M0,0L1080,0L1080,720L0,720Z" style="fill:#FFFFFF" />
<text x="234.73" y="-705.6" transform="scale(1, -1)"
	style="font-family:Helvetica;font-weight:normal;font-style:normal;font-size:12pt">Write 200K keys, 1000-client, 1000-conn, 8-byte key, 256-byte value (etcd v2), Memory(MB)</text>
<text x="543.24" y="-4.8486" transform="scale(1, -1)"
	style="font-family:Helvetica;font-weight:normal;font-style:normal;font-size:12pt">Second</text>
<text x="57.358" y="-19.498" transform="scale(1, -1)"
	style="font-family:Helvetica;font-weight:normal;font-style:normal;font-size:10pt">0</text>
<text x="395.92" y="-19.498" transform="scale(1, -1)"
	style="font-family:Helvetica;font-weight:normal;font-style:normal;font-size:10pt">2</text>
<text x="734.48" y="-19.498" transform="scale(1, -1)"
	style="font-family:Helvetica;font-weight:normal;font-style:normal;font-size:10pt">4</text>
<text x="1073" y="-19.498" transform="scale(1, -1)"
	style="font-family:Helvetica;font-weight:normal;font-style:normal;font-size:10pt">6</text>
<path d="M60.834,31.498L60.834,41.498" style="fill:none;stroke:#000000;stroke-width:0.625" />
<path d="M399.4,31.498L399.4,41.498" style="fill:none;stroke:#000000;stroke-width:0.625" />
<path d="M737.96,31.498L737.96,41.498" style="fill:none;stroke:#000000;stroke-width:0.625" />
<path d="M1076.5,31.498L1076.5,41.498" style="fill:none;stroke:#000000;stroke-width:0.625" />
<path d="M230.12,36.498L230.12,41.498" style="fill:none;stroke:#000000;stroke-width:0.625" />
<path d="M568.68,36.498L568.68,41.498" style="fill:none;stroke:#000000;stroke-width:0.625" />
<path d="M907.24,36.498L907.24,41.498" style="fill:none;stroke:#000000;stroke-width:0.625" />
<path d="M60.834,41.498L1076.5,41.498" style="fill:none;stroke:#000000;stroke-width:0.625" />
<g transform="rotate(90)">
<text x="331.08" y="14.399" transform="scale(1, -1)"
	style="font-family:Helvetica;font-weight:normal;font-style:normal;font-size:12pt">Memory(MB)</text>
</g>
<text x="19.248" y="-186.37" transform="scale(1, -1)"
	style="font-family:Helvetica;font-weight:normal;font-style:normal;font-size:10pt">200</text>
<text x="19.248" y="-343.53" transform="scale(1, -1)"
	style="font-family:Helvetica;font-weight:normal;font-style:normal;font-size:10pt">400</text>
<text x="19.248" y="-500.69" transform="scale(1, -1)"
	style="font-family:Helvetica;font-weight:normal;font-style:normal;font-size:10pt">600</text>
<text x="19.248" y="-657.85" transform="scale(1, -1)"
	style="font-family:Helvetica;font-weight:normal;font-style:normal;font-size:10pt">800</text>
<path d="M43.577,192.25L53.577,192.25" style="fill:none;stroke:#000000;stroke-width:0.625" />
<path d="M43.577,349.41L53.577,349.41" style="fill:none;stroke:#000000;stroke-width:0.625" />
<path d="M43.577,506.57L53.577,506.57" style="fill:none;stroke:#000000;stroke-width:0.625" />
<path d="M43.577,663.73L53.577,663.73" style="fill:none;stroke:#000000;stroke-width:0.625" />
<path d="M48.577,113.67L53.577,113.67" style="fill:none;stroke:#000000;stroke-width:0.625" />
<path d="M48.577,270.83L53.577,270.83" style="fill:none;stroke:#000000;stroke-width:0.625" />
<path d="M48.577,427.99L53.577,427.99" style="fill:none;stroke:#000000;stroke-width:0.625" />
<path d="M48.577,585.15L53.577,585.15" style="fill:none;stroke:#000000;stroke-width:0.625" />
<path d="M53.577,48.06L53.577,700.75" style="fill:none;stroke:#000000;stroke-width:0.625" />
<path d="M60.834,48.06L230.12,145.23L399.4,249.89L568.68,361.35L737.96,433.13L907.24,582.71L1076.5,700.75" style="fill:none;stroke:#F15A60;stroke-width:1.875" />
<path d="M1055,693.4L1080,693.4" style="fill:none;stroke:#F15A60;stroke-width:1.875" />
<text x="1002.5" y="-686.35" transform="scale(1, -1)"
	style="font-family:Helvetica;font-weight:normal;font-style:normal;font-size:12pt">etcd v2</text>
</g>
</svg>
