<?xml version="1.0"?>
<!-- Generated by SVGo and Plotinum VG -->
<svg width="12in" height="8in"
	xmlns="http://www.w3.org/2000/svg"
	xmlns:xlink="http://www.w3.org/1999/xlink">
<g transform="scale(1, -1) translate(0, -720)">
<path d="M0,0L1080,0L1080,720L0,720Z" style="fill:#FFFFFF" />
<text x="262.22" y="-705.6" transform="scale(1, -1)"
	style="font-family:Helvetica;font-weight:normal;font-style:normal;font-size:12pt">Write 200K keys, 1000-client, 1000-conn, 8-byte key, 256-byte value (etcd v2), CPU</text>
<text x="543.24" y="-4.8486" transform="scale(1, -1)"
	style="font-family:Helvetica;font-weight:normal;font-style:normal;font-size:12pt">Second</text>
<text x="57.358" y="-19.498" transform="scale(1, -1)"
	style="font-family:Helvetica;font-weight:normal;font-style:normal;font-size:10pt">0</text>
<text x="395.92" y="-19.498" transform="scale(1, -1)"
	style="font-family:Helvetica;font-weight:normal;font-style:normal;font-size:10pt">2</text>
<text x="734.48" y="-19.498" transform="scale(1, -1)"
	style="font-family:Helvetica;font-weight:normal;font-style:normal;font-size:10pt">4</text>
<text x="1073" y="-19.498" transform="scale(1, -1)"
	style="font-family:Helvetica;font-weight:normal;font-style:normal;font-size:10pt">6</text>
<path d="M60.834,31.498L60.834,41.498" style="fill:none;stroke:#000000;stroke-width:0.625" />
<path d="M399.4,31.498L399.4,41.498" style="fill:none;stroke:#000000;stroke-width:0.625" />
<path d="M737.96,31.498L737.96,41.498" style="fill:none;stroke:#000000;stroke-width:0.625" />
<path d="M1076.5,31.498L1076.5,41.498" style="fill:none;stroke:#000000;stroke-width:0.625" />
<path d="M230.12,36.498L230.12,41.498" style="fill:none;stroke:#000000;stroke-width:0.625" />
<path d="M568.68,36.498L568.68,41.498" style="fill:none;stroke:#000000;stroke-width:0.625" />
<path d="M907.24,36.498L907.24,41.498" style="fill:none;stroke:#000000;stroke-width:0.625" />
<path d="M60.834,41.498L1076.5,41.498" style="fill:none;stroke:#000000;stroke-width:0.625" />
<g transform="rotate(90)">
<text x="358.57" y="14.399" transform="scale(1, -1)"
	style="font-family:Helvetica;font-weight:normal;font-style:normal;font-size:12pt">CPU</text>
</g>
<text x="26.2" y="-218.8" transform="scale(1, -1)"
	style="font-family:Helvetica;font-weight:normal;font-style:normal;font-size:10pt">60</text>
<text x="19.248" y="-401.72" transform="scale(1, -1)"
	style="font-family:Helvetica;font-weight:normal;font-style:normal;font-size:10pt">120</text>
<text x="19.248" y="-584.64" transform="scale(1, -1)"
	style="font-family:Helvetica;font-weight:normal;font-style:normal;font-size:10pt">180</text>
<path d="M43.577,224.67L53.577,224.67" style="fill:none;stroke:#000000;stroke-width:0.625" />
<path d="M43.577,407.59L53.577,407.59" style="fill:none;stroke:#000000;stroke-width:0.625" />
<path d="M43.577,590.51L53.577,590.51" style="fill:none;stroke:#000000;stroke-width:0.625" />
<path d="M48.577,102.72L53.577,102.72" style="fill:none;stroke:#000000;stroke-width:0.625" />
<path d="M48.577,163.7L53.577,163.7" style="fill:none;stroke:#000000;stroke-width:0.625" />
<path d="M48.577,285.64L53.577,285.64" style="fill:none;stroke:#000000;stroke-width:0.625" />
<path d="M48.577,346.62L53.577,346.62" style="fill:none;stroke:#000000;stroke-width:0.625" />
<path d="M48.577,468.56L53.577,468.56" style="fill:none;stroke:#000000;stroke-width:0.625" />
<path d="M48.577,529.54L53.577,529.54" style="fill:none;stroke:#000000;stroke-width:0.625" />
<path d="M48.577,651.49L53.577,651.49" style="fill:none;stroke:#000000;stroke-width:0.625" />
<path d="M53.577,48.06L53.577,700.75" style="fill:none;stroke:#000000;stroke-width:0.625" />
<path d="M60.834,48.06L230.12,195.34L399.4,325.58L568.68,443.26L737.96,545.51L907.24,633.32L1076.5,700.75" style="fill:none;stroke:#F15A60;stroke-width:1.875" />
<path d="M1055,693.4L1080,693.4" style="fill:none;stroke:#F15A60;stroke-width:1.875" />
<text x="1002.5" y="-686.35" transform="scale(1, -1)"
	style="font-family:Helvetica;font-weight:normal;font-style:normal;font-size:12pt">etcd v2</text>
</g>
</svg>
