<?xml version="1.0"?>
<!-- Generated by SVGo and Plotinum VG -->
<svg width="12in" height="8in"
	xmlns="http://www.w3.org/2000/svg"
	xmlns:xlink="http://www.w3.org/1999/xlink">
<g transform="scale(1, -1) translate(0, -720)">
<path d="M0,0L1080,0L1080,720L0,720Z" style="fill:#FFFFFF" />
<text x="239.83" y="-705.6" transform="scale(1, -1)"
	style="font-family:Helvetica;font-weight:normal;font-style:normal;font-size:12pt">Write 200K keys, 1000-client, 1000-conn, 8-byte key, 256-byte value (etcd v2), Throughput</text>
<text x="557.32" y="-4.8486" transform="scale(1, -1)"
	style="font-family:Helvetica;font-weight:normal;font-style:normal;font-size:12pt">Second</text>
<text x="82.034" y="-19.498" transform="scale(1, -1)"
	style="font-family:Helvetica;font-weight:normal;font-style:normal;font-size:10pt">0</text>
<text x="366.17" y="-19.498" transform="scale(1, -1)"
	style="font-family:Helvetica;font-weight:normal;font-style:normal;font-size:10pt">2</text>
<text x="650.31" y="-19.498" transform="scale(1, -1)"
	style="font-family:Helvetica;font-weight:normal;font-style:normal;font-size:10pt">4</text>
<text x="934.45" y="-19.498" transform="scale(1, -1)"
	style="font-family:Helvetica;font-weight:normal;font-style:normal;font-size:10pt">6</text>
<path d="M85.51,31.498L85.51,41.498" style="fill:none;stroke:#000000;stroke-width:0.625" />
<path d="M369.65,31.498L369.65,41.498" style="fill:none;stroke:#000000;stroke-width:0.625" />
<path d="M653.79,31.498L653.79,41.498" style="fill:none;stroke:#000000;stroke-width:0.625" />
<path d="M937.93,31.498L937.93,41.498" style="fill:none;stroke:#000000;stroke-width:0.625" />
<path d="M227.58,36.498L227.58,41.498" style="fill:none;stroke:#000000;stroke-width:0.625" />
<path d="M511.72,36.498L511.72,41.498" style="fill:none;stroke:#000000;stroke-width:0.625" />
<path d="M795.86,36.498L795.86,41.498" style="fill:none;stroke:#000000;stroke-width:0.625" />
<path d="M1080,36.498L1080,41.498" style="fill:none;stroke:#000000;stroke-width:0.625" />
<path d="M85.51,41.498L1080,41.498" style="fill:none;stroke:#000000;stroke-width:0.625" />
<g transform="rotate(90)">
<text x="336.05" y="14.399" transform="scale(1, -1)"
	style="font-family:Helvetica;font-weight:normal;font-style:normal;font-size:12pt">Throughput</text>
</g>
<text x="29.673" y="-153.06" transform="scale(1, -1)"
	style="font-family:Helvetica;font-weight:normal;font-style:normal;font-size:10pt">2e+04</text>
<text x="19.248" y="-366.84" transform="scale(1, -1)"
	style="font-family:Helvetica;font-weight:normal;font-style:normal;font-size:10pt">2.5e+04</text>
<text x="29.673" y="-580.63" transform="scale(1, -1)"
	style="font-family:Helvetica;font-weight:normal;font-style:normal;font-size:10pt">3e+04</text>
<path d="M68.253,158.93L78.253,158.93" style="fill:none;stroke:#000000;stroke-width:0.625" />
<path d="M68.253,372.72L78.253,372.72" style="fill:none;stroke:#000000;stroke-width:0.625" />
<path d="M68.253,586.5L78.253,586.5" style="fill:none;stroke:#000000;stroke-width:0.625" />
<path d="M73.253,73.415L78.253,73.415" style="fill:none;stroke:#000000;stroke-width:0.625" />
<path d="M73.253,116.17L78.253,116.17" style="fill:none;stroke:#000000;stroke-width:0.625" />
<path d="M73.253,201.69L78.253,201.69" style="fill:none;stroke:#000000;stroke-width:0.625" />
<path d="M73.253,244.45L78.253,244.45" style="fill:none;stroke:#000000;stroke-width:0.625" />
<path d="M73.253,287.2L78.253,287.2" style="fill:none;stroke:#000000;stroke-width:0.625" />
<path d="M73.253,329.96L78.253,329.96" style="fill:none;stroke:#000000;stroke-width:0.625" />
<path d="M73.253,415.47L78.253,415.47" style="fill:none;stroke:#000000;stroke-width:0.625" />
<path d="M73.253,458.23L78.253,458.23" style="fill:none;stroke:#000000;stroke-width:0.625" />
<path d="M73.253,500.99L78.253,500.99" style="fill:none;stroke:#000000;stroke-width:0.625" />
<path d="M73.253,543.75L78.253,543.75" style="fill:none;stroke:#000000;stroke-width:0.625" />
<path d="M73.253,629.26L78.253,629.26" style="fill:none;stroke:#000000;stroke-width:0.625" />
<path d="M73.253,672.02L78.253,672.02" style="fill:none;stroke:#000000;stroke-width:0.625" />
<path d="M78.253,48.06L78.253,700.75" style="fill:none;stroke:#000000;stroke-width:0.625" />
<path d="M85.51,657.22L227.58,700.75L369.65,476.7L511.72,331.16L653.79,137.98L795.86,73.287L937.93,132.12L1080,48.06" style="fill:none;stroke:#F15A60;stroke-width:1.875" />
<path d="M1055,693.4L1080,693.4" style="fill:none;stroke:#F15A60;stroke-width:1.875" />
<text x="1002.5" y="-686.35" transform="scale(1, -1)"
	style="font-family:Helvetica;font-weight:normal;font-style:normal;font-size:12pt">etcd v2</text>
</g>
</svg>
