<?xml version="1.0"?>
<!-- Generated by SVGo and Plotinum VG -->
<svg width="12in" height="8in"
	xmlns="http://www.w3.org/2000/svg"
	xmlns:xlink="http://www.w3.org/1999/xlink">
<g transform="scale(1, -1) translate(0, -720)">
<path d="M0,0L1080,0L1080,720L0,720Z" style="fill:#FFFFFF" />
<text x="209.7" y="-705.6" transform="scale(1, -1)"
	style="font-family:Helvetica;font-weight:normal;font-style:normal;font-size:12pt">Write 400K keys, 1000-client, 1000-conn, 8-byte key, 256-byte value (etcd v2), Latency(millisecond)</text>
<text x="544.98" y="-4.8486" transform="scale(1, -1)"
	style="font-family:Helvetica;font-weight:normal;font-style:normal;font-size:12pt">Second</text>
<text x="57.358" y="-19.498" transform="scale(1, -1)"
	style="font-family:Helvetica;font-weight:normal;font-style:normal;font-size:10pt">0</text>
<text x="336.98" y="-19.498" transform="scale(1, -1)"
	style="font-family:Helvetica;font-weight:normal;font-style:normal;font-size:10pt">10</text>
<text x="620.09" y="-19.498" transform="scale(1, -1)"
	style="font-family:Helvetica;font-weight:normal;font-style:normal;font-size:10pt">20</text>
<text x="903.19" y="-19.498" transform="scale(1, -1)"
	style="font-family:Helvetica;font-weight:normal;font-style:normal;font-size:10pt">30</text>
<path d="M60.834,31.498L60.834,41.498" style="fill:none;stroke:#000000;stroke-width:0.625" />
<path d="M343.94,31.498L343.94,41.498" style="fill:none;stroke:#000000;stroke-width:0.625" />
<path d="M627.04,31.498L627.04,41.498" style="fill:none;stroke:#000000;stroke-width:0.625" />
<path d="M910.14,31.498L910.14,41.498" style="fill:none;stroke:#000000;stroke-width:0.625" />
<path d="M202.38,36.498L202.38,41.498" style="fill:none;stroke:#000000;stroke-width:0.625" />
<path d="M485.49,36.498L485.49,41.498" style="fill:none;stroke:#000000;stroke-width:0.625" />
<path d="M768.59,36.498L768.59,41.498" style="fill:none;stroke:#000000;stroke-width:0.625" />
<path d="M1051.7,36.498L1051.7,41.498" style="fill:none;stroke:#000000;stroke-width:0.625" />
<path d="M60.834,41.498L1080,41.498" style="fill:none;stroke:#000000;stroke-width:0.625" />
<g transform="rotate(90)">
<text x="306.05" y="14.399" transform="scale(1, -1)"
	style="font-family:Helvetica;font-weight:normal;font-style:normal;font-size:12pt">Latency(millisecond)</text>
</g>
<text x="33.152" y="-42.186" transform="scale(1, -1)"
	style="font-family:Helvetica;font-weight:normal;font-style:normal;font-size:10pt">0</text>
<text x="19.248" y="-248.02" transform="scale(1, -1)"
	style="font-family:Helvetica;font-weight:normal;font-style:normal;font-size:10pt">300</text>
<text x="19.248" y="-453.86" transform="scale(1, -1)"
	style="font-family:Helvetica;font-weight:normal;font-style:normal;font-size:10pt">600</text>
<text x="19.248" y="-659.7" transform="scale(1, -1)"
	style="font-family:Helvetica;font-weight:normal;font-style:normal;font-size:10pt">900</text>
<path d="M43.577,48.06L53.577,48.06" style="fill:none;stroke:#000000;stroke-width:0.625" />
<path d="M43.577,253.9L53.577,253.9" style="fill:none;stroke:#000000;stroke-width:0.625" />
<path d="M43.577,459.74L53.577,459.74" style="fill:none;stroke:#000000;stroke-width:0.625" />
<path d="M43.577,665.57L53.577,665.57" style="fill:none;stroke:#000000;stroke-width:0.625" />
<path d="M48.577,116.67L53.577,116.67" style="fill:none;stroke:#000000;stroke-width:0.625" />
<path d="M48.577,185.29L53.577,185.29" style="fill:none;stroke:#000000;stroke-width:0.625" />
<path d="M48.577,322.51L53.577,322.51" style="fill:none;stroke:#000000;stroke-width:0.625" />
<path d="M48.577,391.12L53.577,391.12" style="fill:none;stroke:#000000;stroke-width:0.625" />
<path d="M48.577,528.35L53.577,528.35" style="fill:none;stroke:#000000;stroke-width:0.625" />
<path d="M48.577,596.96L53.577,596.96" style="fill:none;stroke:#000000;stroke-width:0.625" />
<path d="M53.577,48.06L53.577,700.75" style="fill:none;stroke:#000000;stroke-width:0.625" />
<path d="M60.834,65.269L89.144,65.713L117.45,70.885L145.76,74.972L174.07,80.862L202.38,87.7L230.69,83.468L259,81.235L287.32,93.525L315.63,96.338L343.94,98.433L372.25,105.99L400.56,114.09L428.87,104.24L457.18,101.26L485.49,129.37L513.8,108.67L542.11,119.6L570.42,331.3L598.73,130.33L627.04,104.9L655.35,133.94L683.66,476.03L711.97,561.88L740.28,700.75L768.59,692.81L796.9,48.06L825.21,48.06L853.52,48.06L881.83,48.06L910.14,159L938.45,74.091L966.76,95.989L995.07,144.55L1023.4,123.64L1051.7,103.29L1080,115.82" style="fill:none;stroke:#F15A60;stroke-width:1.875" />
<path d="M1055,693.4L1080,693.4" style="fill:none;stroke:#F15A60;stroke-width:1.875" />
<text x="1002.5" y="-686.35" transform="scale(1, -1)"
	style="font-family:Helvetica;font-weight:normal;font-style:normal;font-size:12pt">etcd v2</text>
</g>
</svg>
