<?xml version="1.0"?>
<!-- Generated by SVGo and Plotinum VG -->
<svg width="12in" height="8in"
	xmlns="http://www.w3.org/2000/svg"
	xmlns:xlink="http://www.w3.org/1999/xlink">
<g transform="scale(1, -1) translate(0, -720)">
<path d="M0,0L1080,0L1080,720L0,720Z" style="fill:#FFFFFF" />
<text x="262.22" y="-705.6" transform="scale(1, -1)"
	style="font-family:Helvetica;font-weight:normal;font-style:normal;font-size:12pt">Write 400K keys, 1000-client, 1000-conn, 8-byte key, 256-byte value (etcd v2), CPU</text>
<text x="544.98" y="-4.8486" transform="scale(1, -1)"
	style="font-family:Helvetica;font-weight:normal;font-style:normal;font-size:12pt">Second</text>
<text x="57.358" y="-19.498" transform="scale(1, -1)"
	style="font-family:Helvetica;font-weight:normal;font-style:normal;font-size:10pt">0</text>
<text x="345.07" y="-19.498" transform="scale(1, -1)"
	style="font-family:Helvetica;font-weight:normal;font-style:normal;font-size:10pt">10</text>
<text x="636.26" y="-19.498" transform="scale(1, -1)"
	style="font-family:Helvetica;font-weight:normal;font-style:normal;font-size:10pt">20</text>
<text x="927.45" y="-19.498" transform="scale(1, -1)"
	style="font-family:Helvetica;font-weight:normal;font-style:normal;font-size:10pt">30</text>
<path d="M60.834,31.498L60.834,41.498" style="fill:none;stroke:#000000;stroke-width:0.625" />
<path d="M352.02,31.498L352.02,41.498" style="fill:none;stroke:#000000;stroke-width:0.625" />
<path d="M643.21,31.498L643.21,41.498" style="fill:none;stroke:#000000;stroke-width:0.625" />
<path d="M934.4,31.498L934.4,41.498" style="fill:none;stroke:#000000;stroke-width:0.625" />
<path d="M206.43,36.498L206.43,41.498" style="fill:none;stroke:#000000;stroke-width:0.625" />
<path d="M497.62,36.498L497.62,41.498" style="fill:none;stroke:#000000;stroke-width:0.625" />
<path d="M788.81,36.498L788.81,41.498" style="fill:none;stroke:#000000;stroke-width:0.625" />
<path d="M1080,36.498L1080,41.498" style="fill:none;stroke:#000000;stroke-width:0.625" />
<path d="M60.834,41.498L1080,41.498" style="fill:none;stroke:#000000;stroke-width:0.625" />
<g transform="rotate(90)">
<text x="358.57" y="14.399" transform="scale(1, -1)"
	style="font-family:Helvetica;font-weight:normal;font-style:normal;font-size:12pt">CPU</text>
</g>
<text x="19.248" y="-217.02" transform="scale(1, -1)"
	style="font-family:Helvetica;font-weight:normal;font-style:normal;font-size:10pt">100</text>
<text x="19.248" y="-396.07" transform="scale(1, -1)"
	style="font-family:Helvetica;font-weight:normal;font-style:normal;font-size:10pt">200</text>
<text x="19.248" y="-575.11" transform="scale(1, -1)"
	style="font-family:Helvetica;font-weight:normal;font-style:normal;font-size:10pt">300</text>
<path d="M43.577,222.9L53.577,222.9" style="fill:none;stroke:#000000;stroke-width:0.625" />
<path d="M43.577,401.94L53.577,401.94" style="fill:none;stroke:#000000;stroke-width:0.625" />
<path d="M43.577,580.99L53.577,580.99" style="fill:none;stroke:#000000;stroke-width:0.625" />
<path d="M48.577,133.38L53.577,133.38" style="fill:none;stroke:#000000;stroke-width:0.625" />
<path d="M48.577,312.42L53.577,312.42" style="fill:none;stroke:#000000;stroke-width:0.625" />
<path d="M48.577,491.47L53.577,491.47" style="fill:none;stroke:#000000;stroke-width:0.625" />
<path d="M48.577,670.51L53.577,670.51" style="fill:none;stroke:#000000;stroke-width:0.625" />
<path d="M53.577,48.06L53.577,700.75" style="fill:none;stroke:#000000;stroke-width:0.625" />
<path d="M60.834,48.06L89.953,136.83L119.07,213.39L148.19,280.03L177.31,339.87L206.43,389.43L235.55,434.89L264.67,474.62L293.79,511.64L322.91,540.36L352.02,567.9L381.14,591.25L410.26,607.45L439.38,625.55L468.5,647.38L497.62,661.99L526.74,675.08L555.86,690.83L584.98,697.8L614.1,700.75L643.21,697.82L672.33,699.7L701.45,697.26L730.57,688.92L759.69,676.97L788.81,658.55L817.93,640.68L847.05,623.6L876.17,608.63L905.29,595.47L934.4,582.47L963.52,576.12L992.64,578.8L1021.8,581.53L1050.9,590.89L1080,602.92" style="fill:none;stroke:#F15A60;stroke-width:1.875" />
<path d="M1055,693.4L1080,693.4" style="fill:none;stroke:#F15A60;stroke-width:1.875" />
<text x="1002.5" y="-686.35" transform="scale(1, -1)"
	style="font-family:Helvetica;font-weight:normal;font-style:normal;font-size:12pt">etcd v2</text>
</g>
</svg>
