<?xml version="1.0"?>
<!-- Generated by SVGo and Plotinum VG -->
<svg width="12in" height="8in"
	xmlns="http://www.w3.org/2000/svg"
	xmlns:xlink="http://www.w3.org/1999/xlink">
<g transform="scale(1, -1) translate(0, -720)">
<path d="M0,0L1080,0L1080,720L0,720Z" style="fill:#FFFFFF" />
<text x="234.73" y="-705.6" transform="scale(1, -1)"
	style="font-family:Helvetica;font-weight:normal;font-style:normal;font-size:12pt">Write 400K keys, 1000-client, 1000-conn, 8-byte key, 256-byte value (etcd v2), Memory(MB)</text>
<text x="548.46" y="-4.8486" transform="scale(1, -1)"
	style="font-family:Helvetica;font-weight:normal;font-style:normal;font-size:12pt">Second</text>
<text x="64.31" y="-19.498" transform="scale(1, -1)"
	style="font-family:Helvetica;font-weight:normal;font-style:normal;font-size:10pt">0</text>
<text x="350.04" y="-19.498" transform="scale(1, -1)"
	style="font-family:Helvetica;font-weight:normal;font-style:normal;font-size:10pt">10</text>
<text x="639.24" y="-19.498" transform="scale(1, -1)"
	style="font-family:Helvetica;font-weight:normal;font-style:normal;font-size:10pt">20</text>
<text x="928.45" y="-19.498" transform="scale(1, -1)"
	style="font-family:Helvetica;font-weight:normal;font-style:normal;font-size:10pt">30</text>
<path d="M67.786,31.498L67.786,41.498" style="fill:none;stroke:#000000;stroke-width:0.625" />
<path d="M356.99,31.498L356.99,41.498" style="fill:none;stroke:#000000;stroke-width:0.625" />
<path d="M646.19,31.498L646.19,41.498" style="fill:none;stroke:#000000;stroke-width:0.625" />
<path d="M935.4,31.498L935.4,41.498" style="fill:none;stroke:#000000;stroke-width:0.625" />
<path d="M212.39,36.498L212.39,41.498" style="fill:none;stroke:#000000;stroke-width:0.625" />
<path d="M501.59,36.498L501.59,41.498" style="fill:none;stroke:#000000;stroke-width:0.625" />
<path d="M790.8,36.498L790.8,41.498" style="fill:none;stroke:#000000;stroke-width:0.625" />
<path d="M1080,36.498L1080,41.498" style="fill:none;stroke:#000000;stroke-width:0.625" />
<path d="M67.786,41.498L1080,41.498" style="fill:none;stroke:#000000;stroke-width:0.625" />
<g transform="rotate(90)">
<text x="331.08" y="14.399" transform="scale(1, -1)"
	style="font-family:Helvetica;font-weight:normal;font-style:normal;font-size:12pt">Memory(MB)</text>
</g>
<text x="26.2" y="-203.77" transform="scale(1, -1)"
	style="font-family:Helvetica;font-weight:normal;font-style:normal;font-size:10pt">600</text>
<text x="19.248" y="-369.93" transform="scale(1, -1)"
	style="font-family:Helvetica;font-weight:normal;font-style:normal;font-size:10pt">1200</text>
<text x="19.248" y="-536.09" transform="scale(1, -1)"
	style="font-family:Helvetica;font-weight:normal;font-style:normal;font-size:10pt">1800</text>
<path d="M50.529,209.65L60.529,209.65" style="fill:none;stroke:#000000;stroke-width:0.625" />
<path d="M50.529,375.81L60.529,375.81" style="fill:none;stroke:#000000;stroke-width:0.625" />
<path d="M50.529,541.97L60.529,541.97" style="fill:none;stroke:#000000;stroke-width:0.625" />
<path d="M55.529,98.872L60.529,98.872" style="fill:none;stroke:#000000;stroke-width:0.625" />
<path d="M55.529,154.26L60.529,154.26" style="fill:none;stroke:#000000;stroke-width:0.625" />
<path d="M55.529,265.03L60.529,265.03" style="fill:none;stroke:#000000;stroke-width:0.625" />
<path d="M55.529,320.42L60.529,320.42" style="fill:none;stroke:#000000;stroke-width:0.625" />
<path d="M55.529,431.19L60.529,431.19" style="fill:none;stroke:#000000;stroke-width:0.625" />
<path d="M55.529,486.58L60.529,486.58" style="fill:none;stroke:#000000;stroke-width:0.625" />
<path d="M55.529,597.36L60.529,597.36" style="fill:none;stroke:#000000;stroke-width:0.625" />
<path d="M55.529,652.74L60.529,652.74" style="fill:none;stroke:#000000;stroke-width:0.625" />
<path d="M60.529,48.06L60.529,700.75" style="fill:none;stroke:#000000;stroke-width:0.625" />
<path d="M67.786,48.06L96.706,82.121L125.63,121.34L154.55,154.8L183.47,186.99L212.39,232.26L241.31,277.2L270.23,300.13L299.15,316.26L328.07,333.12L356.99,348.53L385.91,399.11L414.83,449.47L443.75,498.34L472.67,532.99L501.59,555.94L530.51,584.19L559.43,603.41L588.35,608.1L617.27,625.39L646.19,629.91L675.11,629.99L704.03,630.01L732.96,653.34L761.88,665.33L790.8,665.33L819.72,665.33L848.64,665.65L877.56,665.67L906.48,665.67L935.4,665.68L964.32,665.75L993.24,667.5L1022.2,667.62L1051.1,667.89L1080,700.75" style="fill:none;stroke:#F15A60;stroke-width:1.875" />
<path d="M1055,693.4L1080,693.4" style="fill:none;stroke:#F15A60;stroke-width:1.875" />
<text x="1002.5" y="-686.35" transform="scale(1, -1)"
	style="font-family:Helvetica;font-weight:normal;font-style:normal;font-size:12pt">etcd v2</text>
</g>
</svg>
