<?xml version="1.0"?>
<!-- Generated by SVGo and Plotinum VG -->
<svg width="12in" height="8in"
	xmlns="http://www.w3.org/2000/svg"
	xmlns:xlink="http://www.w3.org/1999/xlink">
<g transform="scale(1, -1) translate(0, -720)">
<path d="M0,0L1080,0L1080,720L0,720Z" style="fill:#FFFFFF" />
<text x="239.83" y="-705.6" transform="scale(1, -1)"
	style="font-family:Helvetica;font-weight:normal;font-style:normal;font-size:12pt">Write 400K keys, 1000-client, 1000-conn, 8-byte key, 256-byte value (etcd v2), Throughput</text>
<text x="552.11" y="-4.8486" transform="scale(1, -1)"
	style="font-family:Helvetica;font-weight:normal;font-style:normal;font-size:12pt">Second</text>
<text x="71.609" y="-19.498" transform="scale(1, -1)"
	style="font-family:Helvetica;font-weight:normal;font-style:normal;font-size:10pt">0</text>
<text x="347.28" y="-19.498" transform="scale(1, -1)"
	style="font-family:Helvetica;font-weight:normal;font-style:normal;font-size:10pt">10</text>
<text x="626.42" y="-19.498" transform="scale(1, -1)"
	style="font-family:Helvetica;font-weight:normal;font-style:normal;font-size:10pt">20</text>
<text x="905.56" y="-19.498" transform="scale(1, -1)"
	style="font-family:Helvetica;font-weight:normal;font-style:normal;font-size:10pt">30</text>
<path d="M75.085,31.498L75.085,41.498" style="fill:none;stroke:#000000;stroke-width:0.625" />
<path d="M354.23,31.498L354.23,41.498" style="fill:none;stroke:#000000;stroke-width:0.625" />
<path d="M633.37,31.498L633.37,41.498" style="fill:none;stroke:#000000;stroke-width:0.625" />
<path d="M912.51,31.498L912.51,41.498" style="fill:none;stroke:#000000;stroke-width:0.625" />
<path d="M214.66,36.498L214.66,41.498" style="fill:none;stroke:#000000;stroke-width:0.625" />
<path d="M493.8,36.498L493.8,41.498" style="fill:none;stroke:#000000;stroke-width:0.625" />
<path d="M772.94,36.498L772.94,41.498" style="fill:none;stroke:#000000;stroke-width:0.625" />
<path d="M1052.1,36.498L1052.1,41.498" style="fill:none;stroke:#000000;stroke-width:0.625" />
<path d="M75.085,41.498L1080,41.498" style="fill:none;stroke:#000000;stroke-width:0.625" />
<g transform="rotate(90)">
<text x="336.05" y="14.399" transform="scale(1, -1)"
	style="font-family:Helvetica;font-weight:normal;font-style:normal;font-size:12pt">Throughput</text>
</g>
<text x="47.404" y="-42.186" transform="scale(1, -1)"
	style="font-family:Helvetica;font-weight:normal;font-style:normal;font-size:10pt">0</text>
<text x="19.248" y="-218.13" transform="scale(1, -1)"
	style="font-family:Helvetica;font-weight:normal;font-style:normal;font-size:10pt">1e+04</text>
<text x="19.248" y="-394.07" transform="scale(1, -1)"
	style="font-family:Helvetica;font-weight:normal;font-style:normal;font-size:10pt">2e+04</text>
<text x="19.248" y="-570.01" transform="scale(1, -1)"
	style="font-family:Helvetica;font-weight:normal;font-style:normal;font-size:10pt">3e+04</text>
<path d="M57.828,48.06L67.828,48.06" style="fill:none;stroke:#000000;stroke-width:0.625" />
<path d="M57.828,224L67.828,224" style="fill:none;stroke:#000000;stroke-width:0.625" />
<path d="M57.828,399.94L67.828,399.94" style="fill:none;stroke:#000000;stroke-width:0.625" />
<path d="M57.828,575.89L67.828,575.89" style="fill:none;stroke:#000000;stroke-width:0.625" />
<path d="M62.828,136.03L67.828,136.03" style="fill:none;stroke:#000000;stroke-width:0.625" />
<path d="M62.828,311.97L67.828,311.97" style="fill:none;stroke:#000000;stroke-width:0.625" />
<path d="M62.828,487.92L67.828,487.92" style="fill:none;stroke:#000000;stroke-width:0.625" />
<path d="M62.828,663.86L67.828,663.86" style="fill:none;stroke:#000000;stroke-width:0.625" />
<path d="M67.828,48.06L67.828,700.75" style="fill:none;stroke:#000000;stroke-width:0.625" />
<path d="M75.085,360.18L103,700.75L130.91,550.53L158.83,493.07L186.74,419.56L214.66,346.97L242.57,361.1L270.49,372.87L298.4,349.99L326.31,275.94L354.23,262.53L382.14,281.85L410.06,240.15L437.97,271.58L465.89,250.43L493.8,212.79L521.71,243.71L549.63,198.17L577.54,87.419L605.46,209.08L633.37,228.24L661.29,139.53L689.2,58.617L717.11,52.459L745.03,51.245L772.94,50.312L800.86,48.06L828.77,48.06L856.69,48.06L884.6,48.06L912.51,62.048L940.43,356.06L968.34,198.68L996.26,128.66L1024.2,229.09L1052.1,199.42L1080,200.97" style="fill:none;stroke:#F15A60;stroke-width:1.875" />
<path d="M1055,693.4L1080,693.4" style="fill:none;stroke:#F15A60;stroke-width:1.875" />
<text x="1002.5" y="-686.35" transform="scale(1, -1)"
	style="font-family:Helvetica;font-weight:normal;font-style:normal;font-size:12pt">etcd v2</text>
</g>
</svg>
