<?xml version="1.0"?>
<!-- Generated by SVGo and Plotinum VG -->
<svg width="12in" height="8in"
	xmlns="http://www.w3.org/2000/svg"
	xmlns:xlink="http://www.w3.org/1999/xlink">
<g transform="scale(1, -1) translate(0, -720)">
<path d="M0,0L1080,0L1080,720L0,720Z" style="fill:#FFFFFF" />
<text x="209.7" y="-705.6" transform="scale(1, -1)"
	style="font-family:Helvetica;font-weight:normal;font-style:normal;font-size:12pt">Write 400K keys, 1000-client, 1000-conn, 8-byte key, 256-byte value (etcd v2), Latency(millisecond)</text>
<text x="544.98" y="-4.8486" transform="scale(1, -1)"
	style="font-family:Helvetica;font-weight:normal;font-style:normal;font-size:12pt">Second</text>
<text x="57.358" y="-19.498" transform="scale(1, -1)"
	style="font-family:Helvetica;font-weight:normal;font-style:normal;font-size:10pt">0</text>
<text x="336.98" y="-19.498" transform="scale(1, -1)"
	style="font-family:Helvetica;font-weight:normal;font-style:normal;font-size:10pt">10</text>
<text x="620.09" y="-19.498" transform="scale(1, -1)"
	style="font-family:Helvetica;font-weight:normal;font-style:normal;font-size:10pt">20</text>
<text x="903.19" y="-19.498" transform="scale(1, -1)"
	style="font-family:Helvetica;font-weight:normal;font-style:normal;font-size:10pt">30</text>
<path d="M60.834,31.498L60.834,41.498" style="fill:none;stroke:#000000;stroke-width:0.625" />
<path d="M343.94,31.498L343.94,41.498" style="fill:none;stroke:#000000;stroke-width:0.625" />
<path d="M627.04,31.498L627.04,41.498" style="fill:none;stroke:#000000;stroke-width:0.625" />
<path d="M910.14,31.498L910.14,41.498" style="fill:none;stroke:#000000;stroke-width:0.625" />
<path d="M202.38,36.498L202.38,41.498" style="fill:none;stroke:#000000;stroke-width:0.625" />
<path d="M485.49,36.498L485.49,41.498" style="fill:none;stroke:#000000;stroke-width:0.625" />
<path d="M768.59,36.498L768.59,41.498" style="fill:none;stroke:#000000;stroke-width:0.625" />
<path d="M1051.7,36.498L1051.7,41.498" style="fill:none;stroke:#000000;stroke-width:0.625" />
<path d="M60.834,41.498L1080,41.498" style="fill:none;stroke:#000000;stroke-width:0.625" />
<g transform="rotate(90)">
<text x="306.05" y="14.399" transform="scale(1, -1)"
	style="font-family:Helvetica;font-weight:normal;font-style:normal;font-size:12pt">Latency(millisecond)</text>
</g>
<text x="33.152" y="-42.186" transform="scale(1, -1)"
	style="font-family:Helvetica;font-weight:normal;font-style:normal;font-size:10pt">0</text>
<text x="19.248" y="-219.05" transform="scale(1, -1)"
	style="font-family:Helvetica;font-weight:normal;font-style:normal;font-size:10pt">200</text>
<text x="19.248" y="-395.91" transform="scale(1, -1)"
	style="font-family:Helvetica;font-weight:normal;font-style:normal;font-size:10pt">400</text>
<text x="19.248" y="-572.78" transform="scale(1, -1)"
	style="font-family:Helvetica;font-weight:normal;font-style:normal;font-size:10pt">600</text>
<path d="M43.577,48.06L53.577,48.06" style="fill:none;stroke:#000000;stroke-width:0.625" />
<path d="M43.577,224.92L53.577,224.92" style="fill:none;stroke:#000000;stroke-width:0.625" />
<path d="M43.577,401.79L53.577,401.79" style="fill:none;stroke:#000000;stroke-width:0.625" />
<path d="M43.577,578.65L53.577,578.65" style="fill:none;stroke:#000000;stroke-width:0.625" />
<path d="M48.577,136.49L53.577,136.49" style="fill:none;stroke:#000000;stroke-width:0.625" />
<path d="M48.577,313.36L53.577,313.36" style="fill:none;stroke:#000000;stroke-width:0.625" />
<path d="M48.577,490.22L53.577,490.22" style="fill:none;stroke:#000000;stroke-width:0.625" />
<path d="M48.577,667.09L53.577,667.09" style="fill:none;stroke:#000000;stroke-width:0.625" />
<path d="M53.577,48.06L53.577,700.75" style="fill:none;stroke:#000000;stroke-width:0.625" />
<path d="M60.834,76.56L89.144,71.147L117.45,77.799L145.76,88.284L174.07,86.145L202.38,100.38L230.69,95.309L259,104.59L287.32,99.131L315.63,108.39L343.94,105.68L372.25,107.27L400.56,121.06L428.87,112.74L457.18,130.77L485.49,111.92L513.8,115.83L542.11,153.65L570.42,185.63L598.73,672.71L627.04,700.75L655.35,698L683.66,501.34L711.97,48.06L740.28,48.06L768.59,48.06L796.9,48.06L825.21,48.06L853.52,98.235L881.83,109.34L910.14,131.75L938.45,151.89L966.76,139.98L995.07,152.69L1023.4,157.75L1051.7,140.96L1080,142.27" style="fill:none;stroke:#F15A60;stroke-width:1.875" />
<path d="M1055,693.4L1080,693.4" style="fill:none;stroke:#F15A60;stroke-width:1.875" />
<text x="1002.5" y="-686.35" transform="scale(1, -1)"
	style="font-family:Helvetica;font-weight:normal;font-style:normal;font-size:12pt">etcd v2</text>
</g>
</svg>
