<?xml version="1.0"?>
<!-- Generated by SVGo and Plotinum VG -->
<svg width="12in" height="8in"
	xmlns="http://www.w3.org/2000/svg"
	xmlns:xlink="http://www.w3.org/1999/xlink">
<g transform="scale(1, -1) translate(0, -720)">
<path d="M0,0L1080,0L1080,720L0,720Z" style="fill:#FFFFFF" />
<text x="239.83" y="-705.6" transform="scale(1, -1)"
	style="font-family:Helvetica;font-weight:normal;font-style:normal;font-size:12pt">Write 400K keys, 1000-client, 1000-conn, 8-byte key, 256-byte value (etcd v2), Throughput</text>
<text x="552.11" y="-4.8486" transform="scale(1, -1)"
	style="font-family:Helvetica;font-weight:normal;font-style:normal;font-size:12pt">Second</text>
<text x="71.609" y="-19.498" transform="scale(1, -1)"
	style="font-family:Helvetica;font-weight:normal;font-style:normal;font-size:10pt">0</text>
<text x="347.28" y="-19.498" transform="scale(1, -1)"
	style="font-family:Helvetica;font-weight:normal;font-style:normal;font-size:10pt">10</text>
<text x="626.42" y="-19.498" transform="scale(1, -1)"
	style="font-family:Helvetica;font-weight:normal;font-style:normal;font-size:10pt">20</text>
<text x="905.56" y="-19.498" transform="scale(1, -1)"
	style="font-family:Helvetica;font-weight:normal;font-style:normal;font-size:10pt">30</text>
<path d="M75.085,31.498L75.085,41.498" style="fill:none;stroke:#000000;stroke-width:0.625" />
<path d="M354.23,31.498L354.23,41.498" style="fill:none;stroke:#000000;stroke-width:0.625" />
<path d="M633.37,31.498L633.37,41.498" style="fill:none;stroke:#000000;stroke-width:0.625" />
<path d="M912.51,31.498L912.51,41.498" style="fill:none;stroke:#000000;stroke-width:0.625" />
<path d="M214.66,36.498L214.66,41.498" style="fill:none;stroke:#000000;stroke-width:0.625" />
<path d="M493.8,36.498L493.8,41.498" style="fill:none;stroke:#000000;stroke-width:0.625" />
<path d="M772.94,36.498L772.94,41.498" style="fill:none;stroke:#000000;stroke-width:0.625" />
<path d="M1052.1,36.498L1052.1,41.498" style="fill:none;stroke:#000000;stroke-width:0.625" />
<path d="M75.085,41.498L1080,41.498" style="fill:none;stroke:#000000;stroke-width:0.625" />
<g transform="rotate(90)">
<text x="336.05" y="14.399" transform="scale(1, -1)"
	style="font-family:Helvetica;font-weight:normal;font-style:normal;font-size:12pt">Throughput</text>
</g>
<text x="47.404" y="-42.186" transform="scale(1, -1)"
	style="font-family:Helvetica;font-weight:normal;font-style:normal;font-size:10pt">0</text>
<text x="19.248" y="-218.96" transform="scale(1, -1)"
	style="font-family:Helvetica;font-weight:normal;font-style:normal;font-size:10pt">1e+04</text>
<text x="19.248" y="-395.73" transform="scale(1, -1)"
	style="font-family:Helvetica;font-weight:normal;font-style:normal;font-size:10pt">2e+04</text>
<text x="19.248" y="-572.5" transform="scale(1, -1)"
	style="font-family:Helvetica;font-weight:normal;font-style:normal;font-size:10pt">3e+04</text>
<path d="M57.828,48.06L67.828,48.06" style="fill:none;stroke:#000000;stroke-width:0.625" />
<path d="M57.828,224.83L67.828,224.83" style="fill:none;stroke:#000000;stroke-width:0.625" />
<path d="M57.828,401.6L67.828,401.6" style="fill:none;stroke:#000000;stroke-width:0.625" />
<path d="M57.828,578.37L67.828,578.37" style="fill:none;stroke:#000000;stroke-width:0.625" />
<path d="M62.828,136.45L67.828,136.45" style="fill:none;stroke:#000000;stroke-width:0.625" />
<path d="M62.828,313.22L67.828,313.22" style="fill:none;stroke:#000000;stroke-width:0.625" />
<path d="M62.828,489.99L67.828,489.99" style="fill:none;stroke:#000000;stroke-width:0.625" />
<path d="M62.828,666.76L67.828,666.76" style="fill:none;stroke:#000000;stroke-width:0.625" />
<path d="M67.828,48.06L67.828,700.75" style="fill:none;stroke:#000000;stroke-width:0.625" />
<path d="M75.085,230.35L103,700.75L130.91,519.84L158.83,455.16L186.74,456.08L214.66,331.87L242.57,345.16L270.49,342.08L298.4,302.98L326.31,359.09L354.23,288.79L382.14,322.6L410.06,267.95L437.97,249.56L465.89,241.66L493.8,329.18L521.71,262.15L549.63,190.57L577.54,116.42L605.46,61.707L633.37,71.659L661.29,62.75L689.2,67.788L717.11,48.06L745.03,48.06L772.94,48.06L800.86,48.06L828.77,48.06L856.69,265.31L884.6,206.59L912.51,205.85L940.43,196.04L968.34,211.11L996.26,196.25L1024.2,168.65L1052.1,213.06L1080,229.69" style="fill:none;stroke:#F15A60;stroke-width:1.875" />
<path d="M1055,693.4L1080,693.4" style="fill:none;stroke:#F15A60;stroke-width:1.875" />
<text x="1002.5" y="-686.35" transform="scale(1, -1)"
	style="font-family:Helvetica;font-weight:normal;font-style:normal;font-size:12pt">etcd v2</text>
</g>
</svg>
