<?xml version="1.0"?>
<!-- Generated by SVGo and Plotinum VG -->
<svg width="12in" height="8in"
	xmlns="http://www.w3.org/2000/svg"
	xmlns:xlink="http://www.w3.org/1999/xlink">
<g transform="scale(1, -1) translate(0, -720)">
<path d="M0,0L1080,0L1080,720L0,720Z" style="fill:#FFFFFF" />
<text x="234.73" y="-705.6" transform="scale(1, -1)"
	style="font-family:Helvetica;font-weight:normal;font-style:normal;font-size:12pt">Write 600K keys, 1000-client, 1000-conn, 8-byte key, 256-byte value (etcd v2), Memory(MB)</text>
<text x="548.46" y="-4.8486" transform="scale(1, -1)"
	style="font-family:Helvetica;font-weight:normal;font-style:normal;font-size:12pt">Second</text>
<text x="64.31" y="-19.498" transform="scale(1, -1)"
	style="font-family:Helvetica;font-weight:normal;font-style:normal;font-size:10pt">0</text>
<text x="377.15" y="-19.498" transform="scale(1, -1)"
	style="font-family:Helvetica;font-weight:normal;font-style:normal;font-size:10pt">40</text>
<text x="693.47" y="-19.498" transform="scale(1, -1)"
	style="font-family:Helvetica;font-weight:normal;font-style:normal;font-size:10pt">80</text>
<text x="1006.3" y="-19.498" transform="scale(1, -1)"
	style="font-family:Helvetica;font-weight:normal;font-style:normal;font-size:10pt">120</text>
<path d="M67.786,31.498L67.786,41.498" style="fill:none;stroke:#000000;stroke-width:0.625" />
<path d="M384.1,31.498L384.1,41.498" style="fill:none;stroke:#000000;stroke-width:0.625" />
<path d="M700.42,31.498L700.42,41.498" style="fill:none;stroke:#000000;stroke-width:0.625" />
<path d="M1016.7,31.498L1016.7,41.498" style="fill:none;stroke:#000000;stroke-width:0.625" />
<path d="M225.94,36.498L225.94,41.498" style="fill:none;stroke:#000000;stroke-width:0.625" />
<path d="M542.26,36.498L542.26,41.498" style="fill:none;stroke:#000000;stroke-width:0.625" />
<path d="M858.58,36.498L858.58,41.498" style="fill:none;stroke:#000000;stroke-width:0.625" />
<path d="M67.786,41.498L1080,41.498" style="fill:none;stroke:#000000;stroke-width:0.625" />
<g transform="rotate(90)">
<text x="331.08" y="14.399" transform="scale(1, -1)"
	style="font-family:Helvetica;font-weight:normal;font-style:normal;font-size:12pt">Memory(MB)</text>
</g>
<text x="19.248" y="-183.03" transform="scale(1, -1)"
	style="font-family:Helvetica;font-weight:normal;font-style:normal;font-size:10pt">1000</text>
<text x="19.248" y="-326.15" transform="scale(1, -1)"
	style="font-family:Helvetica;font-weight:normal;font-style:normal;font-size:10pt">2000</text>
<text x="19.248" y="-469.27" transform="scale(1, -1)"
	style="font-family:Helvetica;font-weight:normal;font-style:normal;font-size:10pt">3000</text>
<text x="19.248" y="-612.4" transform="scale(1, -1)"
	style="font-family:Helvetica;font-weight:normal;font-style:normal;font-size:10pt">4000</text>
<path d="M50.529,188.91L60.529,188.91" style="fill:none;stroke:#000000;stroke-width:0.625" />
<path d="M50.529,332.03L60.529,332.03" style="fill:none;stroke:#000000;stroke-width:0.625" />
<path d="M50.529,475.15L60.529,475.15" style="fill:none;stroke:#000000;stroke-width:0.625" />
<path d="M50.529,618.27L60.529,618.27" style="fill:none;stroke:#000000;stroke-width:0.625" />
<path d="M55.529,117.34L60.529,117.34" style="fill:none;stroke:#000000;stroke-width:0.625" />
<path d="M55.529,260.47L60.529,260.47" style="fill:none;stroke:#000000;stroke-width:0.625" />
<path d="M55.529,403.59L60.529,403.59" style="fill:none;stroke:#000000;stroke-width:0.625" />
<path d="M55.529,546.71L60.529,546.71" style="fill:none;stroke:#000000;stroke-width:0.625" />
<path d="M55.529,689.83L60.529,689.83" style="fill:none;stroke:#000000;stroke-width:0.625" />
<path d="M60.529,48.06L60.529,700.75" style="fill:none;stroke:#000000;stroke-width:0.625" />
<path d="M67.786,48.06L75.694,65.1L83.601,84.523L91.509,101.77L99.417,116.34L107.33,142.17L115.23,160.19L123.14,168.98L131.05,177.21L138.96,188.19L146.86,191.93L154.77,204.69L162.68,243.5L170.59,276.37L178.5,292.15L186.4,292.41L194.31,297.53L202.22,301.71L210.13,301.84L218.04,314.15L225.94,333.8L233.85,338.35L241.76,339.92L249.67,340.11L257.58,341.38L265.48,341.4L273.39,341.4L281.3,341.41L289.21,341.44L297.12,341.47L305.02,341.47L312.93,341.64L320.84,342.14L328.75,342.21L336.66,343.76L344.56,344.47L352.47,350.4L360.38,363.87L368.29,382.28L376.19,387.91L384.1,389.06L392.01,389.57L399.92,406.34L407.83,438.49L415.73,487.77L423.64,506.9L431.55,506.9L439.46,506.9L447.37,506.9L455.27,506.9L463.18,506.91L471.09,506.91L479,506.91L486.91,506.91L494.81,506.91L502.72,506.91L510.63,506.91L518.54,506.91L526.45,506.91L534.35,506.91L542.26,506.91L550.17,507.05L558.08,507.2L565.98,507.2L573.89,508.52L581.8,509.84L589.71,509.84L597.62,509.84L605.52,509.84L613.43,509.84L621.34,509.92L629.25,513.08L637.16,513.1L645.06,521.33L652.97,521.43L660.88,526.22L668.79,528.14L676.7,528.14L684.6,560.11L692.51,560.11L700.42,560.11L708.33,560.11L716.24,560.11L724.14,577.96L732.05,577.96L739.96,596.21L747.87,614.77L755.78,614.77L763.68,614.77L771.59,614.77L779.5,614.77L787.41,614.77L795.31,614.77L803.22,614.77L811.13,614.87L819.04,614.89L826.95,615.51L834.85,615.92L842.76,616.25L850.67,616.42L858.58,616.8L866.49,641.75L874.39,650.73L882.3,654.01L890.21,672.75L898.12,673.05L906.03,673.05L913.93,673.05L921.84,673.05L929.75,673.05L937.66,690.08L945.57,695.42L953.47,700.75L961.38,700.75L969.29,700.75L977.2,700.75L985.1,700.75L993.01,700.75L1000.9,700.75L1008.8,700.75L1016.7,700.75L1024.6,700.75L1032.6,700.75L1040.5,700.75L1048.4,700.75L1056.3,700.75L1064.2,700.75L1072.1,700.75L1080,700.75" style="fill:none;stroke:#F15A60;stroke-width:1.875" />
<path d="M1055,693.4L1080,693.4" style="fill:none;stroke:#F15A60;stroke-width:1.875" />
<text x="1002.5" y="-686.35" transform="scale(1, -1)"
	style="font-family:Helvetica;font-weight:normal;font-style:normal;font-size:12pt">etcd v2</text>
</g>
</svg>
