<?xml version="1.0"?>
<!-- Generated by SVGo and Plotinum VG -->
<svg width="12in" height="8in"
	xmlns="http://www.w3.org/2000/svg"
	xmlns:xlink="http://www.w3.org/1999/xlink">
<g transform="scale(1, -1) translate(0, -720)">
<path d="M0,0L1080,0L1080,720L0,720Z" style="fill:#FFFFFF" />
<text x="209.7" y="-705.6" transform="scale(1, -1)"
	style="font-family:Helvetica;font-weight:normal;font-style:normal;font-size:12pt">Write 600K keys, 1000-client, 1000-conn, 8-byte key, 256-byte value (etcd v2), Latency(millisecond)</text>
<text x="544.98" y="-4.8486" transform="scale(1, -1)"
	style="font-family:Helvetica;font-weight:normal;font-style:normal;font-size:12pt">Second</text>
<text x="57.358" y="-19.498" transform="scale(1, -1)"
	style="font-family:Helvetica;font-weight:normal;font-style:normal;font-size:10pt">0</text>
<text x="369.9" y="-19.498" transform="scale(1, -1)"
	style="font-family:Helvetica;font-weight:normal;font-style:normal;font-size:10pt">40</text>
<text x="685.92" y="-19.498" transform="scale(1, -1)"
	style="font-family:Helvetica;font-weight:normal;font-style:normal;font-size:10pt">80</text>
<text x="998.47" y="-19.498" transform="scale(1, -1)"
	style="font-family:Helvetica;font-weight:normal;font-style:normal;font-size:10pt">120</text>
<path d="M60.834,31.498L60.834,41.498" style="fill:none;stroke:#000000;stroke-width:0.625" />
<path d="M376.85,31.498L376.85,41.498" style="fill:none;stroke:#000000;stroke-width:0.625" />
<path d="M692.87,31.498L692.87,41.498" style="fill:none;stroke:#000000;stroke-width:0.625" />
<path d="M1008.9,31.498L1008.9,41.498" style="fill:none;stroke:#000000;stroke-width:0.625" />
<path d="M218.84,36.498L218.84,41.498" style="fill:none;stroke:#000000;stroke-width:0.625" />
<path d="M534.86,36.498L534.86,41.498" style="fill:none;stroke:#000000;stroke-width:0.625" />
<path d="M850.89,36.498L850.89,41.498" style="fill:none;stroke:#000000;stroke-width:0.625" />
<path d="M60.834,41.498L1080,41.498" style="fill:none;stroke:#000000;stroke-width:0.625" />
<g transform="rotate(90)">
<text x="306.05" y="14.399" transform="scale(1, -1)"
	style="font-family:Helvetica;font-weight:normal;font-style:normal;font-size:12pt">Latency(millisecond)</text>
</g>
<text x="33.152" y="-42.186" transform="scale(1, -1)"
	style="font-family:Helvetica;font-weight:normal;font-style:normal;font-size:10pt">0</text>
<text x="19.248" y="-212.01" transform="scale(1, -1)"
	style="font-family:Helvetica;font-weight:normal;font-style:normal;font-size:10pt">200</text>
<text x="19.248" y="-381.83" transform="scale(1, -1)"
	style="font-family:Helvetica;font-weight:normal;font-style:normal;font-size:10pt">400</text>
<text x="19.248" y="-551.65" transform="scale(1, -1)"
	style="font-family:Helvetica;font-weight:normal;font-style:normal;font-size:10pt">600</text>
<path d="M43.577,48.06L53.577,48.06" style="fill:none;stroke:#000000;stroke-width:0.625" />
<path d="M43.577,217.88L53.577,217.88" style="fill:none;stroke:#000000;stroke-width:0.625" />
<path d="M43.577,387.7L53.577,387.7" style="fill:none;stroke:#000000;stroke-width:0.625" />
<path d="M43.577,557.53L53.577,557.53" style="fill:none;stroke:#000000;stroke-width:0.625" />
<path d="M48.577,132.97L53.577,132.97" style="fill:none;stroke:#000000;stroke-width:0.625" />
<path d="M48.577,302.79L53.577,302.79" style="fill:none;stroke:#000000;stroke-width:0.625" />
<path d="M48.577,472.62L53.577,472.62" style="fill:none;stroke:#000000;stroke-width:0.625" />
<path d="M48.577,642.44L53.577,642.44" style="fill:none;stroke:#000000;stroke-width:0.625" />
<path d="M53.577,48.06L53.577,700.75" style="fill:none;stroke:#000000;stroke-width:0.625" />
<path d="M60.834,76.223L68.734,69.264L76.635,76.545L84.535,80.648L92.436,85.131L100.34,101.78L108.24,93.878L116.14,91.977L124.04,99.517L131.94,116.03L139.84,115.27L147.74,90.691L155.64,135.44L163.54,124.05L171.44,124.34L179.34,126.44L187.24,134.99L195.14,109.59L203.04,146.44L210.94,157.14L218.84,245.97L226.74,172.85L234.65,142.49L242.55,492.68L250.45,643.72L258.35,700.39L266.25,48.06L274.15,48.06L282.05,48.06L289.95,48.06L297.85,48.06L305.75,48.06L313.65,115.31L321.55,105.85L329.45,112.4L337.35,141.05L345.25,195.59L353.15,147.69L361.05,133.74L368.95,111.73L376.85,173.31L384.75,470.49L392.66,48.06L400.56,48.06L408.46,48.06L416.36,48.06L424.26,48.06L432.16,48.06L440.06,48.06L447.96,48.06L455.86,48.06L463.76,48.06L471.66,48.06L479.56,48.06L487.46,48.06L495.36,48.06L503.26,48.06L511.16,48.06L519.06,48.06L526.96,48.06L534.86,48.06L542.77,48.06L550.67,48.06L558.57,48.06L566.47,48.06L574.37,48.06L582.27,48.06L590.17,48.06L598.07,48.06L605.97,478.29L613.87,104.67L621.77,99.824L629.67,99.822L637.57,123.2L645.47,163.52L653.37,384.9L661.27,700.75L669.17,48.06L677.07,48.06L684.97,48.06L692.87,48.06L700.78,48.06L708.68,48.06L716.58,48.06L724.48,48.06L732.38,48.06L740.28,48.06L748.18,48.06L756.08,48.06L763.98,48.06L771.88,48.06L779.78,48.06L787.68,48.06L795.58,48.06L803.48,422.32L811.38,133.91L819.28,102L827.18,158.23L835.08,159.7L842.98,48.06L850.89,89.923L858.79,169.12L866.69,150.46L874.59,48.06L882.49,48.06L890.39,48.06L898.29,48.06L906.19,48.06L914.09,48.06L921.99,48.06L929.89,48.06L937.79,48.06L945.69,48.06L953.59,48.06L961.49,48.06L969.39,48.06L977.29,48.06L985.19,48.06L993.09,48.06L1001,48.06L1008.9,48.06L1016.8,48.06L1024.7,48.06L1032.6,48.06L1040.5,48.06L1048.4,48.06L1056.3,48.06L1064.2,48.06L1072.1,48.06L1080,459.16" style="fill:none;stroke:#F15A60;stroke-width:1.875" />
<path d="M1055,693.4L1080,693.4" style="fill:none;stroke:#F15A60;stroke-width:1.875" />
<text x="1002.5" y="-686.35" transform="scale(1, -1)"
	style="font-family:Helvetica;font-weight:normal;font-style:normal;font-size:12pt">etcd v2</text>
</g>
</svg>
