<?xml version="1.0"?>
<!-- Generated by SVGo and Plotinum VG -->
<svg width="12in" height="8in"
	xmlns="http://www.w3.org/2000/svg"
	xmlns:xlink="http://www.w3.org/1999/xlink">
<g transform="scale(1, -1) translate(0, -720)">
<path d="M0,0L1080,0L1080,720L0,720Z" style="fill:#FFFFFF" />
<text x="239.83" y="-705.6" transform="scale(1, -1)"
	style="font-family:Helvetica;font-weight:normal;font-style:normal;font-size:12pt">Write 600K keys, 1000-client, 1000-conn, 8-byte key, 256-byte value (etcd v2), Throughput</text>
<text x="552.11" y="-4.8486" transform="scale(1, -1)"
	style="font-family:Helvetica;font-weight:normal;font-style:normal;font-size:12pt">Second</text>
<text x="71.609" y="-19.498" transform="scale(1, -1)"
	style="font-family:Helvetica;font-weight:normal;font-style:normal;font-size:10pt">0</text>
<text x="379.73" y="-19.498" transform="scale(1, -1)"
	style="font-family:Helvetica;font-weight:normal;font-style:normal;font-size:10pt">40</text>
<text x="691.34" y="-19.498" transform="scale(1, -1)"
	style="font-family:Helvetica;font-weight:normal;font-style:normal;font-size:10pt">80</text>
<text x="999.46" y="-19.498" transform="scale(1, -1)"
	style="font-family:Helvetica;font-weight:normal;font-style:normal;font-size:10pt">120</text>
<path d="M75.085,31.498L75.085,41.498" style="fill:none;stroke:#000000;stroke-width:0.625" />
<path d="M386.69,31.498L386.69,41.498" style="fill:none;stroke:#000000;stroke-width:0.625" />
<path d="M698.29,31.498L698.29,41.498" style="fill:none;stroke:#000000;stroke-width:0.625" />
<path d="M1009.9,31.498L1009.9,41.498" style="fill:none;stroke:#000000;stroke-width:0.625" />
<path d="M230.89,36.498L230.89,41.498" style="fill:none;stroke:#000000;stroke-width:0.625" />
<path d="M542.49,36.498L542.49,41.498" style="fill:none;stroke:#000000;stroke-width:0.625" />
<path d="M854.09,36.498L854.09,41.498" style="fill:none;stroke:#000000;stroke-width:0.625" />
<path d="M75.085,41.498L1080,41.498" style="fill:none;stroke:#000000;stroke-width:0.625" />
<g transform="rotate(90)">
<text x="336.05" y="14.399" transform="scale(1, -1)"
	style="font-family:Helvetica;font-weight:normal;font-style:normal;font-size:12pt">Throughput</text>
</g>
<text x="47.404" y="-42.186" transform="scale(1, -1)"
	style="font-family:Helvetica;font-weight:normal;font-style:normal;font-size:10pt">0</text>
<text x="19.248" y="-210.08" transform="scale(1, -1)"
	style="font-family:Helvetica;font-weight:normal;font-style:normal;font-size:10pt">1e+04</text>
<text x="19.248" y="-377.98" transform="scale(1, -1)"
	style="font-family:Helvetica;font-weight:normal;font-style:normal;font-size:10pt">2e+04</text>
<text x="19.248" y="-545.88" transform="scale(1, -1)"
	style="font-family:Helvetica;font-weight:normal;font-style:normal;font-size:10pt">3e+04</text>
<path d="M57.828,48.06L67.828,48.06" style="fill:none;stroke:#000000;stroke-width:0.625" />
<path d="M57.828,215.96L67.828,215.96" style="fill:none;stroke:#000000;stroke-width:0.625" />
<path d="M57.828,383.86L67.828,383.86" style="fill:none;stroke:#000000;stroke-width:0.625" />
<path d="M57.828,551.76L67.828,551.76" style="fill:none;stroke:#000000;stroke-width:0.625" />
<path d="M62.828,132.01L67.828,132.01" style="fill:none;stroke:#000000;stroke-width:0.625" />
<path d="M62.828,299.91L67.828,299.91" style="fill:none;stroke:#000000;stroke-width:0.625" />
<path d="M62.828,467.81L67.828,467.81" style="fill:none;stroke:#000000;stroke-width:0.625" />
<path d="M62.828,635.71L67.828,635.71" style="fill:none;stroke:#000000;stroke-width:0.625" />
<path d="M67.828,48.06L67.828,700.75" style="fill:none;stroke:#000000;stroke-width:0.625" />
<path d="M75.085,134.71L82.875,700.75L90.666,536.68L98.456,481.66L106.25,419.29L114.04,316.2L121.83,342.24L129.62,358.35L137.41,339.73L145.2,256.93L152.99,264.06L160.78,334.31L168.57,229.02L176.36,212.2L184.15,233.54L191.94,218.81L199.73,242.69L207.52,258.57L215.31,205.8L223.1,160.12L230.89,104.76L238.68,146.72L246.47,126.18L254.26,66.328L262.05,64.867L269.84,49.571L277.63,48.06L285.42,48.06L293.21,48.06L301,48.06L308.79,48.06L316.58,48.06L324.37,127.88L332.16,351.34L339.95,255.32L347.74,203.62L355.53,149.79L363.32,193.43L371.11,215.34L378.9,193.9L386.69,175.16L394.48,69.887L402.27,48.06L410.06,48.06L417.85,48.06L425.64,48.06L433.43,48.06L441.22,48.06L449.01,48.06L456.8,48.06L464.59,48.06L472.38,48.06L480.17,48.06L487.96,48.06L495.75,48.06L503.54,48.06L511.33,48.06L519.12,48.06L526.91,48.06L534.7,48.06L542.49,48.06L550.28,48.06L558.07,48.06L565.86,48.06L573.65,48.06L581.44,48.06L589.23,48.06L597.02,48.06L604.81,48.06L612.6,48.833L620.39,190.98L628.18,194.22L635.97,207.72L643.76,207.63L651.55,91.697L659.34,65.673L667.13,58.269L674.92,48.06L682.71,48.06L690.5,48.06L698.29,48.06L706.08,48.06L713.87,48.06L721.66,48.06L729.45,48.06L737.24,48.06L745.03,48.06L752.82,48.06L760.61,48.06L768.4,48.06L776.19,48.06L783.98,48.06L791.77,48.06L799.56,48.06L807.35,54.592L815.14,183.42L822.93,205.99L830.72,225.01L838.51,209.06L846.3,48.06L854.09,200.53L861.88,117.23L869.67,63.809L877.46,48.06L885.25,48.06L893.04,48.06L900.83,48.06L908.62,48.06L916.41,48.06L924.2,48.06L931.99,48.06L939.78,48.06L947.57,48.06L955.36,48.06L963.15,48.06L970.94,48.06L978.73,48.06L986.52,48.06L994.31,48.06L1002.1,48.06L1009.9,48.06L1017.7,48.06L1025.5,48.06L1033.3,48.06L1041,48.06L1048.8,48.06L1056.6,48.06L1064.4,48.06L1072.2,48.06L1080,53.651" style="fill:none;stroke:#F15A60;stroke-width:1.875" />
<path d="M1055,693.4L1080,693.4" style="fill:none;stroke:#F15A60;stroke-width:1.875" />
<text x="1002.5" y="-686.35" transform="scale(1, -1)"
	style="font-family:Helvetica;font-weight:normal;font-style:normal;font-size:12pt">etcd v2</text>
</g>
</svg>
