<?xml version="1.0"?>
<!-- Generated by SVGo and Plotinum VG -->
<svg width="12in" height="8in"
	xmlns="http://www.w3.org/2000/svg"
	xmlns:xlink="http://www.w3.org/1999/xlink">
<g transform="scale(1, -1) translate(0, -720)">
<path d="M0,0L1080,0L1080,720L0,720Z" style="fill:#FFFFFF" />
<text x="262.22" y="-705.6" transform="scale(1, -1)"
	style="font-family:Helvetica;font-weight:normal;font-style:normal;font-size:12pt">Write 600K keys, 1000-client, 1000-conn, 8-byte key, 256-byte value (etcd v2), CPU</text>
<text x="544.98" y="-4.8486" transform="scale(1, -1)"
	style="font-family:Helvetica;font-weight:normal;font-style:normal;font-size:12pt">Second</text>
<text x="57.358" y="-19.498" transform="scale(1, -1)"
	style="font-family:Helvetica;font-weight:normal;font-style:normal;font-size:10pt">0</text>
<text x="362.72" y="-19.498" transform="scale(1, -1)"
	style="font-family:Helvetica;font-weight:normal;font-style:normal;font-size:10pt">40</text>
<text x="671.56" y="-19.498" transform="scale(1, -1)"
	style="font-family:Helvetica;font-weight:normal;font-style:normal;font-size:10pt">80</text>
<text x="976.92" y="-19.498" transform="scale(1, -1)"
	style="font-family:Helvetica;font-weight:normal;font-style:normal;font-size:10pt">120</text>
<path d="M60.834,31.498L60.834,41.498" style="fill:none;stroke:#000000;stroke-width:0.625" />
<path d="M369.67,31.498L369.67,41.498" style="fill:none;stroke:#000000;stroke-width:0.625" />
<path d="M678.51,31.498L678.51,41.498" style="fill:none;stroke:#000000;stroke-width:0.625" />
<path d="M987.35,31.498L987.35,41.498" style="fill:none;stroke:#000000;stroke-width:0.625" />
<path d="M215.25,36.498L215.25,41.498" style="fill:none;stroke:#000000;stroke-width:0.625" />
<path d="M524.09,36.498L524.09,41.498" style="fill:none;stroke:#000000;stroke-width:0.625" />
<path d="M832.93,36.498L832.93,41.498" style="fill:none;stroke:#000000;stroke-width:0.625" />
<path d="M60.834,41.498L1080,41.498" style="fill:none;stroke:#000000;stroke-width:0.625" />
<g transform="rotate(90)">
<text x="358.57" y="14.399" transform="scale(1, -1)"
	style="font-family:Helvetica;font-weight:normal;font-style:normal;font-size:12pt">CPU</text>
</g>
<text x="19.248" y="-219.08" transform="scale(1, -1)"
	style="font-family:Helvetica;font-weight:normal;font-style:normal;font-size:10pt">100</text>
<text x="19.248" y="-400.49" transform="scale(1, -1)"
	style="font-family:Helvetica;font-weight:normal;font-style:normal;font-size:10pt">200</text>
<text x="19.248" y="-581.9" transform="scale(1, -1)"
	style="font-family:Helvetica;font-weight:normal;font-style:normal;font-size:10pt">300</text>
<path d="M43.577,224.95L53.577,224.95" style="fill:none;stroke:#000000;stroke-width:0.625" />
<path d="M43.577,406.36L53.577,406.36" style="fill:none;stroke:#000000;stroke-width:0.625" />
<path d="M43.577,587.77L53.577,587.77" style="fill:none;stroke:#000000;stroke-width:0.625" />
<path d="M48.577,134.25L53.577,134.25" style="fill:none;stroke:#000000;stroke-width:0.625" />
<path d="M48.577,315.66L53.577,315.66" style="fill:none;stroke:#000000;stroke-width:0.625" />
<path d="M48.577,497.07L53.577,497.07" style="fill:none;stroke:#000000;stroke-width:0.625" />
<path d="M48.577,678.47L53.577,678.47" style="fill:none;stroke:#000000;stroke-width:0.625" />
<path d="M53.577,48.06L53.577,700.75" style="fill:none;stroke:#000000;stroke-width:0.625" />
<path d="M60.834,48.06L68.555,137.11L76.276,217.02L83.997,281.99L91.718,338.73L99.439,391.1L107.16,436.17L114.88,478.27L122.6,517.75L130.32,550.96L138.04,582.47L145.76,602.92L153.49,624.18L161.21,642.27L168.93,659.28L176.65,674.16L184.37,689.52L192.09,700.75L199.81,698.94L207.53,698.85L215.25,690.47L222.97,674.05L230.69,656.42L238.42,635.5L246.14,617.12L253.86,599.11L261.58,582.89L269.3,567.29L277.02,552.38L284.74,538.21L292.46,524.28L300.18,514.21L307.9,504.56L315.63,493.71L323.35,493.82L331.07,503.8L338.79,517.24L346.51,529.96L354.23,542.6L361.95,555.21L369.67,567.78L377.39,578.79L385.11,588.82L392.83,599.96L400.56,608.43L408.28,613.68L416,613.42L423.72,607.42L431.44,599.94L439.16,592.54L446.88,585.52L454.6,576.67L462.32,568.16L470.04,560.5L477.77,552.87L485.49,545.23L493.21,537.97L500.93,530.9L508.65,523.37L516.37,515.17L524.09,509.22L531.81,503.38L539.53,497.05L547.25,490.55L554.97,485.36L562.7,480.32L570.42,474.63L578.14,468.26L585.86,462.91L593.58,457.7L601.3,453.13L609.02,449.01L616.74,449.94L624.46,452.31L632.18,458.88L639.91,467.64L647.63,473.08L655.35,479.9L663.07,483.42L670.79,488.47L678.51,488.9L686.23,489.83L693.95,488.74L701.67,485.82L709.39,481.54L717.12,477.36L724.84,472.68L732.56,469.87L740.28,466.57L748,462.51L755.72,458.48L763.44,455.96L771.16,455.74L778.88,456.39L786.6,458.55L794.32,462.05L802.05,467.42L809.77,472.47L817.49,477.36L825.21,481.46L832.93,484.24L840.65,483.42L848.37,480.76L856.09,478.31L863.81,475.5L871.53,472.96L879.26,471.41L886.98,468.89L894.7,466.32L902.42,463.11L910.14,459.8L917.86,456.52L925.58,452.87L933.3,449.85L941.02,447.05L948.74,443.86L956.46,440.94L964.19,438.07L971.91,434.95L979.63,431.78L987.35,428.8L995.07,426.04L1002.8,423.29L1010.5,420.6L1018.2,417.79L1026,415.01L1033.7,412.42L1041.4,409.86L1049.1,407.34L1056.8,404.78L1064.6,402.28L1072.3,399.83L1080,397.47" style="fill:none;stroke:#F15A60;stroke-width:1.875" />
<path d="M1055,693.4L1080,693.4" style="fill:none;stroke:#F15A60;stroke-width:1.875" />
<text x="1002.5" y="-686.35" transform="scale(1, -1)"
	style="font-family:Helvetica;font-weight:normal;font-style:normal;font-size:12pt">etcd v2</text>
</g>
</svg>
