<?xml version="1.0"?>
<!-- Generated by SVGo and Plotinum VG -->
<svg width="12in" height="8in"
	xmlns="http://www.w3.org/2000/svg"
	xmlns:xlink="http://www.w3.org/1999/xlink">
<g transform="scale(1, -1) translate(0, -720)">
<path d="M0,0L1080,0L1080,720L0,720Z" style="fill:#FFFFFF" />
<text x="209.7" y="-705.6" transform="scale(1, -1)"
	style="font-family:Helvetica;font-weight:normal;font-style:normal;font-size:12pt">Write 600K keys, 1000-client, 1000-conn, 8-byte key, 256-byte value (etcd v2), Latency(millisecond)</text>
<text x="544.98" y="-4.8486" transform="scale(1, -1)"
	style="font-family:Helvetica;font-weight:normal;font-style:normal;font-size:12pt">Second</text>
<text x="57.358" y="-19.498" transform="scale(1, -1)"
	style="font-family:Helvetica;font-weight:normal;font-style:normal;font-size:10pt">0</text>
<text x="360.4" y="-19.498" transform="scale(1, -1)"
	style="font-family:Helvetica;font-weight:normal;font-style:normal;font-size:10pt">40</text>
<text x="666.91" y="-19.498" transform="scale(1, -1)"
	style="font-family:Helvetica;font-weight:normal;font-style:normal;font-size:10pt">80</text>
<text x="969.95" y="-19.498" transform="scale(1, -1)"
	style="font-family:Helvetica;font-weight:normal;font-style:normal;font-size:10pt">120</text>
<path d="M60.834,31.498L60.834,41.498" style="fill:none;stroke:#000000;stroke-width:0.625" />
<path d="M367.35,31.498L367.35,41.498" style="fill:none;stroke:#000000;stroke-width:0.625" />
<path d="M673.87,31.498L673.87,41.498" style="fill:none;stroke:#000000;stroke-width:0.625" />
<path d="M980.38,31.498L980.38,41.498" style="fill:none;stroke:#000000;stroke-width:0.625" />
<path d="M214.09,36.498L214.09,41.498" style="fill:none;stroke:#000000;stroke-width:0.625" />
<path d="M520.61,36.498L520.61,41.498" style="fill:none;stroke:#000000;stroke-width:0.625" />
<path d="M827.12,36.498L827.12,41.498" style="fill:none;stroke:#000000;stroke-width:0.625" />
<path d="M60.834,41.498L1080,41.498" style="fill:none;stroke:#000000;stroke-width:0.625" />
<g transform="rotate(90)">
<text x="306.05" y="14.399" transform="scale(1, -1)"
	style="font-family:Helvetica;font-weight:normal;font-style:normal;font-size:12pt">Latency(millisecond)</text>
</g>
<text x="33.152" y="-42.186" transform="scale(1, -1)"
	style="font-family:Helvetica;font-weight:normal;font-style:normal;font-size:10pt">0</text>
<text x="19.248" y="-197.94" transform="scale(1, -1)"
	style="font-family:Helvetica;font-weight:normal;font-style:normal;font-size:10pt">200</text>
<text x="19.248" y="-353.69" transform="scale(1, -1)"
	style="font-family:Helvetica;font-weight:normal;font-style:normal;font-size:10pt">400</text>
<text x="19.248" y="-509.45" transform="scale(1, -1)"
	style="font-family:Helvetica;font-weight:normal;font-style:normal;font-size:10pt">600</text>
<text x="19.248" y="-665.2" transform="scale(1, -1)"
	style="font-family:Helvetica;font-weight:normal;font-style:normal;font-size:10pt">800</text>
<path d="M43.577,48.06L53.577,48.06" style="fill:none;stroke:#000000;stroke-width:0.625" />
<path d="M43.577,203.81L53.577,203.81" style="fill:none;stroke:#000000;stroke-width:0.625" />
<path d="M43.577,359.57L53.577,359.57" style="fill:none;stroke:#000000;stroke-width:0.625" />
<path d="M43.577,515.32L53.577,515.32" style="fill:none;stroke:#000000;stroke-width:0.625" />
<path d="M43.577,671.08L53.577,671.08" style="fill:none;stroke:#000000;stroke-width:0.625" />
<path d="M48.577,125.94L53.577,125.94" style="fill:none;stroke:#000000;stroke-width:0.625" />
<path d="M48.577,281.69L53.577,281.69" style="fill:none;stroke:#000000;stroke-width:0.625" />
<path d="M48.577,437.45L53.577,437.45" style="fill:none;stroke:#000000;stroke-width:0.625" />
<path d="M48.577,593.2L53.577,593.2" style="fill:none;stroke:#000000;stroke-width:0.625" />
<path d="M53.577,48.06L53.577,700.75" style="fill:none;stroke:#000000;stroke-width:0.625" />
<path d="M60.834,66.793L68.497,69.911L76.16,75.947L83.822,82.431L91.485,86.202L99.148,85.487L106.81,90.246L114.47,96.548L122.14,89.454L129.8,99.914L137.46,144.95L145.13,101.82L152.79,113.85L160.45,109.75L168.11,151.17L175.78,113L183.44,135.9L191.1,114.21L198.77,352.65L206.43,549.32L214.09,619.63L221.75,597.36L229.42,504.52L237.08,48.06L244.74,48.06L252.41,48.06L260.07,48.06L267.73,48.06L275.4,48.06L283.06,48.06L290.72,48.06L298.38,48.06L306.05,48.06L313.71,146.89L321.37,108.38L329.04,119.13L336.7,130.32L344.36,122.38L352.02,123.38L359.69,131.64L367.35,136.57L375.01,171.01L382.68,139.61L390.34,124.02L398,163.94L405.66,534.64L413.33,48.06L420.99,48.06L428.65,48.06L436.32,48.06L443.98,48.06L451.64,48.06L459.3,48.06L466.97,48.06L474.63,48.06L482.29,48.06L489.96,48.06L497.62,48.06L505.28,48.06L512.95,48.06L520.61,48.06L528.27,48.06L535.93,48.06L543.6,48.06L551.26,48.06L558.92,48.06L566.59,48.06L574.25,48.06L581.91,48.06L589.57,48.06L597.24,48.06L604.9,137.05L612.56,117.29L620.23,102.68L627.89,130.14L635.55,155.72L643.21,664.64L650.88,48.06L658.54,104.32L666.2,414.71L673.87,700.75L681.53,48.06L689.19,48.06L696.85,48.06L704.52,48.06L712.18,48.06L719.84,48.06L727.51,48.06L735.17,48.06L742.83,48.06L750.5,48.06L758.16,116.38L765.82,136.63L773.48,138.64L781.15,105.57L788.81,144.44L796.47,204.51L804.14,164.26L811.8,173.88L819.46,48.06L827.12,48.06L834.79,48.06L842.45,48.06L850.11,48.06L857.78,48.06L865.44,48.06L873.1,48.06L880.76,48.06L888.43,48.06L896.09,48.06L903.75,48.06L911.42,48.06L919.08,48.06L926.74,48.06L934.4,48.06L942.07,48.06L949.73,48.06L957.39,48.06L965.06,48.06L972.72,48.06L980.38,48.06L988.05,48.06L995.71,48.06L1003.4,48.06L1011,48.06L1018.7,48.06L1026.4,48.06L1034,48.06L1041.7,48.06L1049.3,48.06L1057,48.06L1064.7,48.06L1072.3,48.06L1080,48.06" style="fill:none;stroke:#F15A60;stroke-width:1.875" />
<path d="M1055,693.4L1080,693.4" style="fill:none;stroke:#F15A60;stroke-width:1.875" />
<text x="1002.5" y="-686.35" transform="scale(1, -1)"
	style="font-family:Helvetica;font-weight:normal;font-style:normal;font-size:12pt">etcd v2</text>
</g>
</svg>
