<?xml version="1.0"?>
<!-- Generated by SVGo and Plotinum VG -->
<svg width="12in" height="8in"
	xmlns="http://www.w3.org/2000/svg"
	xmlns:xlink="http://www.w3.org/1999/xlink">
<g transform="scale(1, -1) translate(0, -720)">
<path d="M0,0L1080,0L1080,720L0,720Z" style="fill:#FFFFFF" />
<text x="220.72" y="-706.41" transform="scale(1, -1)"
	style="font-family:Helvetica;font-weight:normal;font-style:normal;font-size:12pt">Write 2M keys, 1000-client (etcdv3 100-conns), 8-byte key, 256-byte value, Latency(millisecond)</text>
<text x="556.97" y="-4.965" transform="scale(1, -1)"
	style="font-family:Helvetica;font-weight:normal;font-style:normal;font-size:12pt">Second</text>
<text x="81.337" y="-19.142" transform="scale(1, -1)"
	style="font-family:Helvetica;font-weight:normal;font-style:normal;font-size:10pt">0</text>
<text x="369.7" y="-19.142" transform="scale(1, -1)"
	style="font-family:Helvetica;font-weight:normal;font-style:normal;font-size:10pt">600</text>
<text x="661.53" y="-19.142" transform="scale(1, -1)"
	style="font-family:Helvetica;font-weight:normal;font-style:normal;font-size:10pt">1200</text>
<text x="956.84" y="-19.142" transform="scale(1, -1)"
	style="font-family:Helvetica;font-weight:normal;font-style:normal;font-size:10pt">1800</text>
<path d="M84.812,30.467L84.812,40.467" style="fill:none;stroke:#000000;stroke-width:0.625" />
<path d="M380.12,30.467L380.12,40.467" style="fill:none;stroke:#000000;stroke-width:0.625" />
<path d="M675.43,30.467L675.43,40.467" style="fill:none;stroke:#000000;stroke-width:0.625" />
<path d="M970.74,30.467L970.74,40.467" style="fill:none;stroke:#000000;stroke-width:0.625" />
<path d="M183.25,35.468L183.25,40.467" style="fill:none;stroke:#000000;stroke-width:0.625" />
<path d="M281.68,35.468L281.68,40.467" style="fill:none;stroke:#000000;stroke-width:0.625" />
<path d="M478.56,35.468L478.56,40.467" style="fill:none;stroke:#000000;stroke-width:0.625" />
<path d="M576.99,35.468L576.99,40.467" style="fill:none;stroke:#000000;stroke-width:0.625" />
<path d="M773.86,35.468L773.86,40.467" style="fill:none;stroke:#000000;stroke-width:0.625" />
<path d="M872.3,35.468L872.3,40.467" style="fill:none;stroke:#000000;stroke-width:0.625" />
<path d="M1069.2,35.468L1069.2,40.467" style="fill:none;stroke:#000000;stroke-width:0.625" />
<path d="M84.812,40.467L1080,40.467" style="fill:none;stroke:#000000;stroke-width:0.625" />
<g transform="rotate(90)">
<text x="305.89" y="13.59" transform="scale(1, -1)"
	style="font-family:Helvetica;font-weight:normal;font-style:normal;font-size:12pt">Latency(millisecond)</text>
</g>
<text x="57.13" y="-41.661" transform="scale(1, -1)"
	style="font-family:Helvetica;font-weight:normal;font-style:normal;font-size:10pt">0</text>
<text x="36.28" y="-247.85" transform="scale(1, -1)"
	style="font-family:Helvetica;font-weight:normal;font-style:normal;font-size:10pt">8000</text>
<text x="18.555" y="-454.04" transform="scale(1, -1)"
	style="font-family:Helvetica;font-weight:normal;font-style:normal;font-size:10pt">1.6e+04</text>
<text x="18.555" y="-660.24" transform="scale(1, -1)"
	style="font-family:Helvetica;font-weight:normal;font-style:normal;font-size:10pt">2.4e+04</text>
<path d="M67.555,47.03L77.555,47.03" style="fill:none;stroke:#000000;stroke-width:0.625" />
<path d="M67.555,253.22L77.555,253.22" style="fill:none;stroke:#000000;stroke-width:0.625" />
<path d="M67.555,459.41L77.555,459.41" style="fill:none;stroke:#000000;stroke-width:0.625" />
<path d="M67.555,665.6L77.555,665.6" style="fill:none;stroke:#000000;stroke-width:0.625" />
<path d="M72.555,150.13L77.555,150.13" style="fill:none;stroke:#000000;stroke-width:0.625" />
<path d="M72.555,356.32L77.555,356.32" style="fill:none;stroke:#000000;stroke-width:0.625" />
<path d="M72.555,562.51L77.555,562.51" style="fill:none;stroke:#000000;stroke-width:0.625" />
<path d="M77.555,47.03L77.555,701.44" style="fill:none;stroke:#000000;stroke-width:0.625" />
<path d="M84.812,49.45L85.305,49.612L85.797,51.26L86.289,57.665L86.781,60.046L87.273,60.568L87.766,60.947L88.258,55.954L88.75,55.953L89.242,56.3L89.734,56.239L90.226,56.071L90.719,55.896L91.211,53.683L91.703,53.023L92.195,52.313L92.687,51.197L93.18,50.162L93.672,49.631L94.164,49.775L94.656,49.676L95.148,49.688L95.64,49.657L96.133,49.659L96.625,49.802L97.117,49.771L97.609,49.762L98.101,49.638L98.594,49.662L99.086,49.529L99.578,49.777L100.07,50.185L100.56,50.196L101.05,49.974L101.55,49.957L102.04,50.026L102.53,50.241L103.02,49.737L103.52,49.942L104.01,50.03L104.5,49.974L104.99,49.887L105.48,49.621L105.98,49.53L106.47,49.865L106.96,49.855L107.45,49.351L107.94,49.911L108.44,49.936L108.93,49.694L109.42,49.972L109.91,49.401L110.41,49.852L110.9,49.766L111.39,49.475L111.88,49.941L112.37,49.41L112.87,50.463L113.36,49.482L113.85,50.182L114.34,49.499L114.84,49.931L115.33,52.613L115.82,59.945L116.31,59.507L116.8,60.267L117.3,61.451L117.79,56.492L118.28,56.014L118.77,56.991L119.27,52.869L119.76,53.788L120.25,53.555L120.74,54.397L121.23,51.324L121.73,51.47L122.22,51.52L122.71,49.625L123.2,49.529L123.69,50.228L124.19,49.668L124.68,50.07L125.17,49.577L125.66,50.133L126.16,49.649L126.65,49.682L127.14,49.976L127.63,49.555L128.12,50.28L128.62,49.797L129.11,50.215L129.6,50.442L130.09,49.784L130.59,50.235L131.08,49.731L131.57,49.953L132.06,50.61L132.55,49.792L133.05,49.801L133.54,50.485L134.03,49.767L134.52,49.549L135.01,50.767L135.51,49.565L136,49.312L136.49,50.723L136.98,49.504L137.48,49.384L137.97,50.197L138.46,49.53L138.95,49.415L139.44,50.304L139.94,49.883L140.43,49.356L140.92,49.888L141.41,50.435L141.91,50.074L142.4,50.366L142.89,51.101L143.38,50.85L143.87,50.376L144.37,49.599L144.86,53.558L145.35,52.682L145.84,59.775L146.33,61.398L146.83,61.33L147.32,56.285L147.81,55.017L148.3,54.938L148.8,55.853L149.29,59.455L149.78,50.688L150.27,50.671L150.76,50.772L151.26,50.309L151.75,50.652L152.24,50.13L152.73,50.121L153.23,49.772L153.72,50.553L154.21,49.512L154.7,51.072L155.19,49.644L155.69,50.692L156.18,49.635L156.67,50.262L157.16,50.478L157.66,50.892L158.15,49.629L158.64,49.622L159.13,50.701L159.62,50.098L160.12,51.866L160.61,50.056L161.1,50.203L161.59,50.156L162.08,50.852L162.58,52.01L163.07,50.122L163.56,50.052L164.05,49.528L164.55,49.731L165.04,52.976L165.53,49.723L166.02,49.589L166.51,49.556L167.01,49.653L167.5,51.121L167.99,51.444L168.48,50.668L168.98,50.573L169.47,50.851L169.96,51.045L170.45,51.367L170.94,51.276L171.44,50.927L171.93,50.737L172.42,50.05L172.91,50.993L173.4,51.544L173.9,49.924L174.39,53.267L174.88,59.133L175.37,60.73L175.87,60.454L176.36,60.109L176.85,56.478L177.34,47.03L177.83,112.65L178.33,134.55L178.82,131.29L179.31,87.494L179.8,79.846L180.3,70.012L180.79,63.431L181.28,76.511L181.77,95.022L182.26,104.58L182.76,117.93L183.25,132.7L183.74,138.51L184.23,140.81L184.72,140.79L185.22,142.68L185.71,144.72L186.2,148.14L186.69,144L187.19,145.51L187.68,145.84L188.17,156.93L188.66,47.03L189.15,47.03L189.65,245.9L190.14,47.03L190.63,47.03L191.12,47.03L191.62,47.03L192.11,47.03L192.6,401.13L193.09,47.03L193.58,47.03L194.08,453.78L194.57,47.03L195.06,47.03L195.55,47.03L196.05,575.61L196.54,47.03L197.03,609.96L197.52,610.61L198.01,611.15L198.51,527.68L199,163.04L199.49,153.72L199.98,154.75L200.47,156.88L200.97,155.21L201.46,158.82L201.95,159.23L202.44,159.59L202.94,161.7L203.43,163.94L203.92,163.42L204.41,164.05L204.9,163.97L205.4,163.14L205.89,164.76L206.38,167.95L206.87,168.54L207.37,169.45L207.86,169.91L208.35,170.09L208.84,177.21L209.33,177.27L209.83,177.89L210.32,178.44L210.81,180.49L211.3,180.36L211.79,180.07L212.29,181.54L212.78,184.04L213.27,185.07L213.76,185.67L214.26,185.23L214.75,186.11L215.24,186.31L215.73,184.94L216.22,185.89L216.72,184.71L217.21,189.13L217.7,187.45L218.19,185.73L218.69,184.64L219.18,185.86L219.67,182.82L220.16,186.03L220.65,187.56L221.15,189.85L221.64,189.81L222.13,191.74L222.62,197.45L223.12,196.55L223.61,197.89L224.1,199.88L224.59,198.13L225.08,195.48L225.58,193.71L226.07,198.15L226.56,201.8L227.05,200.64L227.54,200.82L228.04,200.78L228.53,203.7L229.02,203.61L229.51,203.7L230.01,201.74L230.5,152.36L230.99,106.05L231.48,105.8L231.97,119.25L232.47,109.61L232.96,106.98L233.45,111.95L233.94,111.1L234.44,108.67L234.93,108.23L235.42,112.35L235.91,111.92L236.4,113.78L236.9,120.09L237.39,120.04L237.88,118.75L238.37,113.59L238.86,117.02L239.36,116.61L239.85,119.47L240.34,118.01L240.83,118.26L241.33,119.26L241.82,118.03L242.31,117.71L242.8,114.14L243.29,110.75L243.79,109.88L244.28,110.26L244.77,107.74L245.26,111.36L245.76,113.89L246.25,110.19L246.74,111.52L247.23,110L247.72,109.99L248.22,103.29L248.71,107.52L249.2,111.12L249.69,113.44L250.18,111.2L250.68,115.31L251.17,110.66L251.66,107.01L252.15,105.84L252.65,104.87L253.14,109.18L253.63,111.62L254.12,109.74L254.61,111.73L255.11,110.63L255.6,111.33L256.09,113.68L256.58,108.19L257.08,105.81L257.57,109.94L258.06,108.53L258.55,47.03L259.04,47.03L259.54,47.03L260.03,177.45L260.52,47.03L261.01,47.03L261.51,47.03L262,244.55L262.49,47.03L262.98,47.03L263.47,47.03L263.97,233.33L264.46,47.03L264.95,47.03L265.44,47.03L265.93,47.03L266.43,386.34L266.92,47.03L267.41,47.03L267.9,462.9L268.4,482.28L268.89,258.31L269.38,89.873L269.87,91.959L270.36,92.442L270.86,93.396L271.35,92.616L271.84,91.096L272.33,93.685L272.83,95.766L273.32,93.194L273.81,92.705L274.3,87.514L274.79,103.28L275.29,117.3L275.78,131.66L276.27,133.36L276.76,134.93L277.25,133.84L277.75,141.63L278.24,143.08L278.73,144.11L279.22,142.77L279.72,143.06L280.21,146.09L280.7,150.35L281.19,150.96L281.68,146.55L282.18,125.96L282.67,115.49L283.16,115.56L283.65,120.41L284.15,121.65L284.64,119.8L285.13,123.6L285.62,118.09L286.11,118.05L286.61,119.7L287.1,120.12L287.59,120.51L288.08,118.04L288.57,118.68L289.07,118.06L289.56,116.95L290.05,117.74L290.54,116.61L291.04,118.75L291.53,120.9L292.02,120.39L292.51,116.63L293,113.95L293.5,115.34L293.99,114.56L294.48,112.5L294.97,108.52L295.47,110.42L295.96,114.38L296.45,115.5L296.94,116L297.43,119.41L297.93,118.66L298.42,118.81L298.91,121.43L299.4,120.41L299.9,119.14L300.39,118.98L300.88,121.7L301.37,121.18L301.86,122.33L302.36,121.53L302.85,119.81L303.34,121.08L303.83,120.7L304.32,118.62L304.82,118.1L305.31,117.25L305.8,117.32L306.29,116.42L306.79,117.21L307.28,117.51L307.77,118.47L308.26,117.81L308.75,114.53L309.25,116.13L309.74,115.87L310.23,114.6L310.72,117.85L311.22,117.23L311.71,117.15L312.2,111.87L312.69,115.78L313.18,116.88L313.68,115.43L314.17,113.63L314.66,112.75L315.15,114.6L315.64,117.12L316.14,118.5L316.63,117.86L317.12,116.7L317.61,116.64L318.11,119.73L318.6,117.5L319.09,116.59L319.58,116.73L320.07,118.8L320.57,116.46L321.06,115.42L321.55,115.9L322.04,126.93L322.54,47.03L323.03,153.11L323.52,47.03L324.01,47.03L324.5,47.03L325,47.03L325.49,47.03L325.98,47.03L326.47,47.03L326.96,47.03L327.46,47.03L327.95,47.03L328.44,47.03L328.93,47.03L329.43,47.03L329.92,47.03L330.41,47.03L330.9,519.16L331.39,551.09L331.89,513.99L332.38,246.02L332.87,93.382L333.36,92.326L333.86,91.979L334.35,92.668L334.84,89.532L335.33,94.329L335.82,92.686L336.32,88.345L336.81,93.103L337.3,97.333L337.79,90.233L338.29,88.304L338.78,91.936L339.27,90.76L339.76,99.077L340.25,81.95L340.75,96.935L341.24,90.744L341.73,90.935L342.22,87.808L342.71,90.74L343.21,92.288L343.7,90.27L344.19,93.519L344.68,91.517L345.18,92.285L345.67,93.1L346.16,90.245L346.65,92.09L347.14,90.02L347.64,90.105L348.13,91.848L348.62,91.984L349.11,94.472L349.61,91.482L350.1,89.759L350.59,95.328L351.08,91.859L351.57,92.801L352.07,88.716L352.56,88.536L353.05,95.043L353.54,96.906L354.03,83.951L354.53,90.042L355.02,102.64L355.51,105.04L356,108.24L356.5,108.48L356.99,104.8L357.48,108L357.97,109.47L358.46,109.9L358.96,108.28L359.45,109.07L359.94,111.23L360.43,110.39L360.93,108.63L361.42,109.54L361.91,110.73L362.4,112.43L362.89,112.06L363.39,109.46L363.88,111.03L364.37,110.85L364.86,114.43L365.35,114.5L365.85,112.63L366.34,109.08L366.83,111.7L367.32,114.54L367.82,115.36L368.31,118.49L368.8,113.2L369.29,109.18L369.78,113.39L370.28,113.66L370.77,112.87L371.26,111.03L371.75,111.56L372.25,109.2L372.74,108.25L373.23,110.39L373.72,114.97L374.21,115.32L374.71,116.7L375.2,116.08L375.69,118.52L376.18,119.96L376.68,120.04L377.17,118.62L377.66,120.51L378.15,122.1L378.64,123.03L379.14,119.71L379.63,117.51L380.12,114.48L380.61,116.98L381.1,117.86L381.6,116.43L382.09,116.47L382.58,115L383.07,116.89L383.57,118.18L384.06,117.83L384.55,115.14L385.04,115.98L385.53,117.43L386.03,134.62L386.52,47.03L387.01,199.73L387.5,47.03L388,47.03L388.49,277.81L388.98,47.03L389.47,304.92L389.96,308.75L390.46,315.38L390.95,192.57L391.44,152.23L391.93,159.71L392.42,166.15L392.92,169.58L393.41,178.1L393.9,189.19L394.39,196.53L394.89,202.65L395.38,209.98L395.87,230.28L396.36,47.03L396.85,265.43L397.35,47.03L397.84,328.55L398.33,274.72L398.82,106.74L399.32,100.98L399.81,111.67L400.3,125.66L400.79,131.93L401.28,141.37L401.78,150.12L402.27,148.6L402.76,142.05L403.25,133.44L403.74,123.53L404.24,121.82L404.73,116.24L405.22,47.03L405.71,130.22L406.21,47.03L406.7,145.46L407.19,47.03L407.68,153.39L408.17,47.03L408.67,47.03L409.16,47.03L409.65,47.03L410.14,47.03L410.64,47.03L411.13,47.03L411.62,47.03L412.11,375.95L412.6,47.03L413.1,47.03L413.59,47.03L414.08,473.28L414.57,47.03L415.07,47.03L415.56,568.44L416.05,537.79L416.54,217.82L417.03,91.075L417.53,88.363L418.02,98.038L418.51,93.47L419,83.904L419.49,94.691L419.99,89.651L420.48,94.553L420.97,88.724L421.46,88.123L421.96,96.398L422.45,92.529L422.94,89.083L423.43,95.845L423.92,91.828L424.42,91.528L424.91,94.604L425.4,94.697L425.89,92.64L426.39,84.974L426.88,91.603L427.37,91.625L427.86,98.068L428.35,87.341L428.85,90.79L429.34,88.89L429.83,91.277L430.32,95.63L430.81,93.424L431.31,94.845L431.8,83.988L432.29,93.441L432.78,94.797L433.28,91.263L433.77,90.447L434.26,86.248L434.75,92.822L435.24,87.34L435.74,94.342L436.23,90.299L436.72,91.261L437.21,89.578L437.71,92.026L438.2,90.262L438.69,103.85L439.18,98.368L439.67,110.49L440.17,110.29L440.66,104.23L441.15,103.81L441.64,109.25L442.14,109.09L442.63,110.03L443.12,110.43L443.61,112.84L444.1,112.87L444.6,117.22L445.09,117.41L445.58,116.18L446.07,118.29L446.56,116.67L447.06,115.88L447.55,118.51L448.04,119.51L448.53,118.51L449.03,119.83L449.52,119.46L450.01,121.25L450.5,118.54L450.99,116.26L451.49,119.88L451.98,117.87L452.47,118.51L452.96,118.11L453.46,118.49L453.95,116.84L454.44,118.1L454.93,121.14L455.42,117.15L455.92,117.64L456.41,118.41L456.9,114.98L457.39,111.88L457.88,117.41L458.38,117.71L458.87,116.92L459.36,121.72L459.85,119.32L460.35,119.49L460.84,116.69L461.33,117.3L461.82,115.5L462.31,116.53L462.81,118.2L463.3,118.04L463.79,119.63L464.28,118.31L464.78,119.18L465.27,117.07L465.76,120.4L466.25,120.54L466.74,121.99L467.24,125.94L467.73,120.27L468.22,119.21L468.71,115.86L469.2,118.49L469.7,118.83L470.19,118.64L470.68,121.29L471.17,120.24L471.67,119.29L472.16,115.41L472.65,116.93L473.14,120.81L473.63,122.16L474.13,122.68L474.62,124.91L475.11,126.98L475.6,128.97L476.1,123.22L476.59,121.3L477.08,142.46L477.57,172L478.06,47.03L478.56,47.03L479.05,236.62L479.54,47.03L480.03,298.08L480.53,47.03L481.02,349.09L481.51,47.03L482,47.03L482.49,388.5L482.99,47.03L483.48,47.03L483.97,47.03L484.46,47.03L484.95,47.03L485.45,47.03L485.94,47.03L486.43,47.03L486.92,47.03L487.42,341.62L487.91,310.19L488.4,47.03L488.89,373.93L489.38,399.89L489.88,271.14L490.37,120.94L490.86,122.61L491.35,121.44L491.85,116.86L492.34,116.34L492.83,113.66L493.32,114.68L493.81,119.11L494.31,119.97L494.8,121.81L495.29,126.06L495.78,126.51L496.27,125.67L496.77,125.03L497.26,128.21L497.75,128.61L498.24,128.83L498.74,121.13L499.23,119.09L499.72,118.58L500.21,118.14L500.7,118.28L501.2,118.4L501.69,122.03L502.18,119.65L502.67,117.35L503.17,119.88L503.66,118.78L504.15,117.27L504.64,115.08L505.13,115.42L505.63,113.48L506.12,112.38L506.61,114.45L507.1,115.28L507.59,112.55L508.09,107.86L508.58,110.01L509.07,108.4L509.56,108.32L510.06,111.56L510.55,110.48L511.04,108.21L511.53,106.55L512.02,107.3L512.52,111.93L513.01,109.6L513.5,106.3L513.99,106.94L514.49,109.33L514.98,109.18L515.47,111.35L515.96,113.65L516.45,114.83L516.95,116.81L517.44,115.14L517.93,118.67L518.42,118.2L518.92,119.74L519.41,114.91L519.9,116.88L520.39,114.51L520.88,114.12L521.38,118.39L521.87,114.38L522.36,111.75L522.85,113.6L523.34,115.17L523.84,117.77L524.33,118.26L524.82,118.35L525.31,119.83L525.81,120.46L526.3,119.17L526.79,118.51L527.28,115.27L527.77,116.75L528.27,117.55L528.76,118.59L529.25,118.11L529.74,117.59L530.24,115.47L530.73,117.09L531.22,117.76L531.71,116.89L532.2,120.29L532.7,118.66L533.19,117.21L533.68,117.57L534.17,121.88L534.66,118.33L535.16,113.72L535.65,111.55L536.14,111.24L536.63,114.51L537.13,110.95L537.62,107.15L538.11,104.66L538.6,109.19L539.09,110.49L539.59,108.87L540.08,108.17L540.57,109.63L541.06,109.39L541.56,108.42L542.05,107.52L542.54,112.52L543.03,111.81L543.52,110.65L544.02,109.83L544.51,110.14L545,108.12L545.49,108.34L545.98,109.4L546.48,112.14L546.97,111.48L547.46,113.9L547.95,113.71L548.45,115.33L548.94,114.84L549.43,114.04L549.92,112.92L550.41,115.55L550.91,116.59L551.4,118.64L551.89,114.18L552.38,112.74L552.88,107.97L553.37,108.6L553.86,113.57L554.35,114.2L554.84,115.64L555.34,115.02L555.83,115.48L556.32,112.9L556.81,113.39L557.31,117.6L557.8,114.5L558.29,111.54L558.78,113.95L559.27,119.08L559.77,119.03L560.26,115.86L560.75,119.2L561.24,120.16L561.73,125.23L562.23,122.88L562.72,121.23L563.21,120.34L563.7,121.31L564.2,120.62L564.69,115.78L565.18,118.58L565.67,118.61L566.16,154.65L566.66,47.03L567.15,201.47L567.64,198.12L568.13,204.65L568.63,195.87L569.12,143.44L569.61,154.02L570.1,164.37L570.59,178.87L571.09,188.6L571.58,191.34L572.07,199.98L572.56,209.75L573.05,213.51L573.55,213.64L574.04,215.68L574.53,213.95L575.02,214.63L575.52,214.48L576.01,215.15L576.5,214.56L576.99,214.72L577.48,215.14L577.98,216.39L578.47,215.77L578.96,216.85L579.45,213.75L579.95,213.32L580.44,216.55L580.93,195.89L581.42,152.83L581.91,123.28L582.41,121.91L582.9,125.66L583.39,123.53L583.88,117.57L584.37,118.79L584.87,117.12L585.36,116.8L585.85,120.84L586.34,121.35L586.84,123.32L587.33,122.98L587.82,119.26L588.31,119.89L588.8,132.47L589.3,47.03L589.79,47.03L590.28,47.03L590.77,47.03L591.27,47.03L591.76,47.03L592.25,47.03L592.74,47.03L593.23,47.03L593.73,47.03L594.22,47.03L594.71,47.03L595.2,47.03L595.7,47.03L596.19,47.03L596.68,486.02L597.17,47.03L597.66,517.03L598.16,47.03L598.65,47.03L599.14,47.03L599.63,379.26L600.12,239.22L600.62,130.97L601.11,93.141L601.6,91.609L602.09,92.244L602.59,91.528L603.08,94.379L603.57,95.132L604.06,87.273L604.55,92.3L605.05,90.246L605.54,92.188L606.03,91.599L606.52,93.855L607.02,89.662L607.51,92.655L608,92.064L608.49,93.07L608.98,95.724L609.48,92.805L609.97,88.978L610.46,90.18L610.95,90.386L611.44,92.709L611.94,93.046L612.43,97.918L612.92,89.917L613.41,87.84L613.91,89.866L614.4,91.291L614.89,92.535L615.38,91.082L615.87,93.288L616.37,91.434L616.86,91.015L617.35,93.325L617.84,93.695L618.34,89.66L618.83,91.277L619.32,95.934L619.81,86.645L620.3,90.439L620.8,92.912L621.29,93.699L621.78,89.244L622.27,90.829L622.76,91.514L623.26,93.082L623.75,89.482L624.24,92.468L624.73,99.087L625.23,104.49L625.72,109.35L626.21,110.75L626.7,110.08L627.19,109.71L627.69,106.36L628.18,113.62L628.67,111.78L629.16,110.88L629.66,112.72L630.15,112.89L630.64,114.17L631.13,115.36L631.62,119.24L632.12,120.09L632.61,120.06L633.1,119.63L633.59,120.09L634.09,120.9L634.58,122.76L635.07,121.65L635.56,118.19L636.05,117.35L636.55,120.89L637.04,116.76L637.53,119.4L638.02,117.27L638.51,121.28L639.01,120.5L639.5,121.53L639.99,121.5L640.48,121.11L640.98,123.98L641.47,121.07L641.96,121.52L642.45,121.58L642.94,119.68L643.44,118.42L643.93,118.6L644.42,118.25L644.91,119.67L645.41,119.12L645.9,118.02L646.39,113.96L646.88,113.54L647.37,117.09L647.87,118.45L648.36,116.9L648.85,115.09L649.34,114.5L649.83,117.23L650.33,116.94L650.82,120.01L651.31,119.11L651.8,116.16L652.3,116.39L652.79,119.53L653.28,117.93L653.77,118.06L654.26,116.24L654.76,120.52L655.25,117.88L655.74,116.15L656.23,116.32L656.73,121.77L657.22,124.1L657.71,126.66L658.2,125.51L658.69,123.97L659.19,122.42L659.68,124.3L660.17,123.88L660.66,121.43L661.16,118.4L661.65,117.36L662.14,116L662.63,114.79L663.12,116.01L663.62,120.47L664.11,119.68L664.6,118.01L665.09,123.91L665.58,123.28L666.08,125.3L666.57,127.69L667.06,127.87L667.55,144.94L668.05,145.61L668.54,148.91L669.03,154L669.52,152.27L670.01,149.44L670.51,163L671,169.83L671.49,173.39L671.98,175.41L672.48,175.15L672.97,175.54L673.46,177.75L673.95,178.88L674.44,184.67L674.94,186.63L675.43,185.82L675.92,189.06L676.41,191.66L676.9,189.2L677.4,192.74L677.89,192.14L678.38,192.35L678.87,194.79L679.37,195.18L679.86,199.06L680.35,202.38L680.84,203.3L681.33,221.58L681.83,254.95L682.32,47.03L682.81,292.15L683.3,47.03L683.8,312.33L684.29,216.21L684.78,100.85L685.27,112.99L685.76,125.97L686.26,136.41L686.75,148.83L687.24,152.33L687.73,150.07L688.22,137.06L688.72,128.28L689.21,126.94L689.7,120.16L690.19,116.76L690.69,128.88L691.18,47.03L691.67,145.91L692.16,47.03L692.65,178.47L693.15,47.03L693.64,47.03L694.13,47.03L694.62,47.03L695.12,47.03L695.61,47.03L696.1,47.03L696.59,366.25L697.08,47.03L697.58,47.03L698.07,426.51L698.56,47.03L699.05,47.03L699.55,47.03L700.04,47.03L700.53,47.03L701.02,47.03L701.51,47.03L702.01,624.64L702.5,567.15L702.99,153.95L703.48,93.981L703.97,91.435L704.47,90.727L704.96,92.951L705.45,92.677L705.94,90.421L706.44,91.26L706.93,100.59L707.42,92.627L707.91,87.048L708.4,91.303L708.9,91.126L709.39,91.655L709.88,91.384L710.37,92.627L710.87,94.027L711.36,94.033L711.85,90.774L712.34,93.809L712.83,88.789L713.33,91.451L713.82,89.107L714.31,91.66L714.8,95.668L715.29,92.177L715.79,90.653L716.28,90.187L716.77,91.542L717.26,92.809L717.76,104.92L718.25,79.145L718.74,89.135L719.23,87.583L719.72,90.148L720.22,89.389L720.71,91.139L721.2,94.293L721.69,88.9L722.19,91.45L722.68,91.006L723.17,94.081L723.66,90.028L724.15,92.406L724.65,92.296L725.14,94.992L725.63,90.516L726.12,93.641L726.61,87.221L727.11,88.713L727.6,91.749L728.09,93.9L728.58,98.289L729.08,109.86L729.57,113.07L730.06,109.88L730.55,107.54L731.04,108.95L731.54,109.47L732.03,107.06L732.52,106.81L733.01,107.93L733.51,106.56L734,104.92L734.49,106.99L734.98,107.56L735.47,110.88L735.97,111.99L736.46,113.1L736.95,115.82L737.44,116.18L737.94,114.46L738.43,109.64L738.92,114.94L739.41,115.88L739.9,117.27L740.4,114.78L740.89,113.68L741.38,115.26L741.87,116.63L742.36,120.38L742.86,122.43L743.35,122.83L743.84,123.98L744.33,122.54L744.83,119.13L745.32,120.3L745.81,117.81L746.3,117.02L746.79,114.2L747.29,118.26L747.78,121.47L748.27,120.42L748.76,120.47L749.26,120.8L749.75,119.76L750.24,119.83L750.73,119.65L751.22,119.19L751.72,117.34L752.21,118.09L752.7,119.49L753.19,118.57L753.68,116.49L754.18,112.63L754.67,115.52L755.16,117.42L755.65,118.28L756.15,117.71L756.64,118.85L757.13,119.74L757.62,119.33L758.11,114.03L758.61,114.59L759.1,116.42L759.59,115.23L760.08,116.14L760.58,112.96L761.07,113.32L761.56,115.93L762.05,117.21L762.54,117.9L763.04,119.78L763.53,121.88L764.02,116.77L764.51,107.83L765,109.91L765.5,112.21L765.99,114.78L766.48,112.25L766.97,112.77L767.47,114.23L767.96,115.88L768.45,115.64L768.94,119.55L769.43,121.18L769.93,123.38L770.42,122.47L770.91,125.21L771.4,121.47L771.9,121.7L772.39,119.33L772.88,118.17L773.37,117.19L773.86,118.12L774.36,122.23L774.85,140.23L775.34,164.47L775.83,47.03L776.33,213.93L776.82,47.03L777.31,47.03L777.8,293.47L778.29,308.5L778.79,291.5L779.28,117.4L779.77,114.14L780.26,126.93L780.75,137.98L781.25,146.69L781.74,156.09L782.23,166.32L782.72,174.94L783.22,184.59L783.71,191.52L784.2,201.05L784.69,212.33L785.18,218.5L785.68,225.62L786.17,230.88L786.66,245.15L787.15,260.69L787.65,265.05L788.14,271.38L788.63,279.18L789.12,278.69L789.61,283.44L790.11,278.73L790.6,194.93L791.09,124.22L791.58,117.25L792.07,128.38L792.57,132.32L793.06,118.82L793.55,119.46L794.04,120.6L794.54,116.9L795.03,114.62L795.52,114.38L796.01,113.79L796.5,114.68L797,116.05L797.49,113.37L797.98,115.04L798.47,129.26L798.97,47.03L799.46,47.03L799.95,47.03L800.44,47.03L800.93,47.03L801.43,250.1L801.92,47.03L802.41,47.03L802.9,47.03L803.39,47.03L803.89,47.03L804.38,337.36L804.87,47.03L805.36,47.03L805.86,47.03L806.35,47.03L806.84,47.03L807.33,47.03L807.82,47.03L808.32,47.03L808.81,47.03L809.3,47.03L809.79,47.03L810.29,667.43L810.78,545.95L811.27,154.48L811.76,94.585L812.25,89.638L812.75,91.444L813.24,96.377L813.73,93.352L814.22,96.624L814.72,84.028L815.21,89.995L815.7,97.925L816.19,93.847L816.68,89.836L817.18,96.096L817.67,80.877L818.16,91.822L818.65,92.878L819.14,92.944L819.64,90.571L820.13,90.97L820.62,91.652L821.11,92.261L821.61,93.64L822.1,91.099L822.59,91.222L823.08,93.906L823.57,92.861L824.07,90.671L824.56,91.073L825.05,97.309L825.54,93.607L826.04,86.685L826.53,93.587L827.02,96.041L827.51,92.529L828,90.778L828.5,91.451L828.99,88.734L829.48,91.029L829.97,94.337L830.46,89.651L830.96,91.793L831.45,91.029L831.94,92.513L832.43,89.774L832.93,91.409L833.42,91.047L833.91,92.396L834.4,92.593L834.89,97.849L835.39,80.603L835.88,90.615L836.37,91.485L836.86,93.547L837.36,91.801L837.85,91.84L838.34,89.85L838.83,93.416L839.32,102.52L839.82,110.31L840.31,108.05L840.8,109.06L841.29,108.94L841.78,110.46L842.28,111.21L842.77,114.08L843.26,113.16L843.75,113.89L844.25,110.47L844.74,110.74L845.23,114.15L845.72,112.27L846.21,111.42L846.71,111.9L847.2,113.07L847.69,115.37L848.18,115.48L848.68,112.91L849.17,114.32L849.66,114.24L850.15,116.37L850.64,115.69L851.14,117.46L851.63,114.46L852.12,115.3L852.61,116.1L853.11,115.51L853.6,114.07L854.09,116.63L854.58,114.36L855.07,111.13L855.57,110.69L856.06,115.59L856.55,114.57L857.04,114.32L857.53,117.2L858.03,113.15L858.52,107.82L859.01,108.17L859.5,113.05L860,113.75L860.49,111.13L860.98,112.75L861.47,115.12L861.96,117.63L862.46,117.18L862.95,116.25L863.44,115.84L863.93,114.49L864.43,116.04L864.92,118.16L865.41,121.22L865.9,123.03L866.39,118.09L866.89,126.87L867.38,47.03L867.87,47.03L868.36,174.91L868.85,47.03L869.35,47.03L869.84,47.03L870.33,47.03L870.82,47.03L871.32,47.03L871.81,47.03L872.3,47.03L872.79,47.03L873.28,47.03L873.78,420.1L874.27,47.03L874.76,47.03L875.25,47.03L875.75,47.03L876.24,47.03L876.73,47.03L877.22,47.03L877.71,47.03L878.21,47.03L878.7,605.26L879.19,622.14L879.68,474.61L880.18,105.05L880.67,90.862L881.16,89.33L881.65,92.352L882.14,93.047L882.64,91.538L883.13,91.398L883.62,91.96L884.11,92.705L884.6,93.825L885.1,93.143L885.59,94.936L886.08,89.565L886.57,92.809L887.07,88.79L887.56,91.824L888.05,91.862L888.54,91.664L889.03,91.627L889.53,94.895L890.02,94.031L890.51,88.056L891,93.923L891.5,91.816L891.99,88.42L892.48,95.688L892.97,111.51L893.46,133.01L893.96,47.03L894.45,190.66L894.94,184.22L895.43,112.03L895.92,116.51L896.42,128.41L896.91,141.79L897.4,152.65L897.89,156.43L898.39,160.17L898.88,158.96L899.37,159.8L899.86,159.21L900.35,161.96L900.85,162.48L901.34,164.8L901.83,164.24L902.32,164.24L902.82,168.99L903.31,168.12L903.8,154.33L904.29,127.91L904.78,122.84L905.28,117.56L905.77,117.05L906.26,116.66L906.75,116.1L907.24,116.6L907.74,114.96L908.23,116.93L908.72,117.43L909.21,118.27L909.71,117.78L910.2,118.79L910.69,116.85L911.18,112.1L911.67,109.89L912.17,109.39L912.66,108.61L913.15,109.23L913.64,109.83L914.14,112.48L914.63,112.74L915.12,113.63L915.61,113.91L916.1,112.22L916.6,112.71L917.09,111.53L917.58,113.02L918.07,116.45L918.57,116.89L919.06,116.27L919.55,115.89L920.04,115.65L920.53,113.9L921.03,115.78L921.52,119.13L922.01,119.31L922.5,119.73L922.99,117.75L923.49,119.14L923.98,121.53L924.47,123.35L924.96,119.09L925.46,108.54L925.95,105.26L926.44,107.48L926.93,110.48L927.42,110.7L927.92,110.49L928.41,111.3L928.9,114.17L929.39,114.96L929.89,115.04L930.38,111.75L930.87,112.96L931.36,116.67L931.85,116.86L932.35,117.52L932.84,115.62L933.33,116.4L933.82,117.03L934.31,119.57L934.81,118.31L935.3,119.68L935.79,113.27L936.28,108.36L936.78,109.28L937.27,106.82L937.76,108.64L938.25,112.27L938.74,123.2L939.24,132.58L939.73,140.28L940.22,164.53L940.71,47.03L941.21,47.03L941.7,47.03L942.19,234.55L942.68,47.03L943.17,47.03L943.67,47.03L944.16,47.03L944.65,47.03L945.14,47.03L945.63,47.03L946.13,47.03L946.62,459.27L947.11,47.03L947.6,47.03L948.1,547.75L948.59,47.03L949.08,47.03L949.57,47.03L950.06,47.03L950.56,644.55L951.05,47.03L951.54,680.33L952.03,327.98L952.53,92.523L953.02,92.226L953.51,102.62L954,94.227L954.49,99.208L954.99,85.289L955.48,85.247L955.97,92.115L956.46,93.278L956.96,91.013L957.45,91.571L957.94,97.003L958.43,89.699L958.92,89.07L959.42,92.964L959.91,90.297L960.4,93.031L960.89,90.838L961.38,93.836L961.88,92.146L962.37,91.157L962.86,91.109L963.35,90.683L963.85,92.387L964.34,91.512L964.83,93.796L965.32,99.916L965.81,88.404L966.31,87.933L966.8,93.912L967.29,91.224L967.78,91.053L968.28,93.038L968.77,101.67L969.26,80.007L969.75,88.693L970.24,89.806L970.74,92.562L971.23,97.252L971.72,86.926L972.21,89.267L972.7,94.633L973.2,95.768L973.69,86.156L974.18,90.814L974.67,91.61L975.17,88.677L975.66,91.906L976.15,93.022L976.64,91.982L977.13,93.459L977.63,90.666L978.12,91.67L978.61,86.871L979.1,93.495L979.6,92.794L980.09,47.03L980.58,124.28L981.07,47.03L981.56,182.69L982.06,180.17L982.55,141.18L983.04,111.26L983.53,122.83L984.02,136.36L984.52,144.59L985.01,145.8L985.5,146.38L985.99,146.64L986.49,146.8L986.98,146.57L987.47,149.32L987.96,146.73L988.45,148.28L988.95,148.49L989.44,148.47L989.93,150.64L990.42,150.01L990.92,149.72L991.41,149.65L991.9,151.51L992.39,152.47L992.88,152.39L993.38,151.68L993.87,153.04L994.36,153.87L994.85,152.84L995.35,153.29L995.84,155.01L996.33,154.35L996.82,156.28L997.31,156.86L997.81,158.73L998.3,150.69L998.79,119.72L999.28,100.78L999.77,104.05L1000.3,112.51L1000.8,110.12L1001.3,114.79L1001.7,117L1002.2,118.33L1002.7,117.15L1003.2,118.49L1003.7,118.71L1004.2,116.65L1004.7,118.92L1005.2,116.77L1005.7,113.25L1006.2,112.29L1006.7,115.79L1007.2,116.65L1007.6,114.52L1008.1,115.7L1008.6,117.07L1009.1,118.42L1009.6,115.53L1010.1,111.88L1010.6,110.15L1011.1,111.86L1011.6,117.39L1012.1,117.67L1012.6,116.85L1013.1,114.16L1013.6,116.09L1014,114.35L1014.5,113.89L1015,115.99L1015.5,116.27L1016,122.12L1016.5,119.93L1017,114.4L1017.5,111.83L1018,113.48L1018.5,117.46L1019,119.23L1019.5,119.13L1020,119.1L1020.4,121.57L1020.9,124.63L1021.4,123.68L1021.9,120.72L1022.4,115.37L1022.9,114.74L1023.4,114.46L1023.9,117.29L1024.4,118.43L1024.9,123.26L1025.4,121.24L1025.9,121.82L1026.4,119.14L1026.8,119.69L1027.3,121.57L1027.8,119.01L1028.3,122.66L1028.8,121.39L1029.3,122.12L1029.8,132.08L1030.3,47.03L1030.8,142.81L1031.3,47.03L1031.8,47.03L1032.3,47.03L1032.8,47.03L1033.2,47.03L1033.7,47.03L1034.2,47.03L1034.7,323.19L1035.2,47.03L1035.7,47.03L1036.2,47.03L1036.7,401.15L1037.2,47.03L1037.7,47.03L1038.2,47.03L1038.7,47.03L1039.1,47.03L1039.6,544.15L1040.1,47.03L1040.6,47.03L1041.1,47.03L1041.6,47.03L1042.1,47.03L1042.6,47.03L1043.1,701.44L1043.6,487.65L1044.1,113.85L1044.6,96.089L1045.1,94.812L1045.5,87.135L1046,91.105L1046.5,95.095L1047,88.387L1047.5,91.229L1048,91.292L1048.5,94.958L1049,91.163L1049.5,90.957L1050,93.484L1050.5,84.966L1051,93.621L1051.5,95.148L1051.9,94.613L1052.4,84.7L1052.9,91.116L1053.4,91.406L1053.9,93.239L1054.4,90.541L1054.9,94.881L1055.4,92.338L1055.9,90.413L1056.4,105.64L1056.9,119.61L1057.4,47.03L1057.9,178.24L1058.3,47.03L1058.8,47.03L1059.3,247.92L1059.8,247.68L1060.3,130.49L1060.8,113.65L1061.3,126.06L1061.8,138.33L1062.3,151.2L1062.8,162.38L1063.3,169.94L1063.8,194.88L1064.3,208.78L1064.7,214.86L1065.2,215.35L1065.7,216.42L1066.2,210.38L1066.7,167.97L1067.2,155.51L1067.7,144.04L1068.2,137.94L1068.7,135.38L1069.2,129.03L1069.7,123.6L1070.2,124.55L1070.6,127.52L1071.1,124.41L1071.6,123.56L1072.1,120.29L1072.6,120.64L1073.1,120.86L1073.6,115.29L1074.1,112.99L1074.6,114.55L1075.1,114.91L1075.6,116.05L1076.1,112.97L1076.6,114.57L1077,114.24L1077.5,114.68L1078,114.15L1078.5,111.39L1079,108.48L1079.5,112.21L1080,112.36" style="fill:none;stroke:#F15A60;stroke-width:1.875" />
<path d="M84.812,48.507L85.305,47.883L85.797,48.035L86.289,48.293L86.781,48.231L87.273,48.638L87.766,55.041L88.258,56.194L88.75,55.646L89.242,56.664L89.734,57.39L90.226,57.891L90.719,56.192L91.211,54.157L91.703,56.707L92.195,57.374L92.687,56.513L93.18,59.033L93.672,60.402L94.164,62.814L94.656,64.753L95.148,58.339L95.64,82.173L96.133,64.741L96.625,65.994L97.117,59.649L97.609,59.13L98.101,62.958L98.594,79.237L99.086,74.02L99.578,75.092L100.07,110.72L100.56,47.03L101.05,47.03L101.55,47.03L102.04,47.03L102.53,47.03L103.02,47.03L103.52,47.03L104.01,47.03L104.5,47.03L104.99,47.03L105.48,47.03L105.98,47.03L106.47,47.03L106.96,47.03L107.45,47.03L107.94,47.03L108.44,47.03L108.93,47.03L109.42,47.03L109.91,47.03L110.41,47.03L110.9,47.03L111.39,47.03L111.88,47.03L112.37,47.03L112.87,47.03L113.36,47.03L113.85,47.03L114.34,53.678L114.84,48.467L115.33,48.608L115.82,48.762L116.31,48.957L116.8,48.796L117.3,49.026L117.79,49.267L118.28,49.027L118.77,50.009L119.27,50.434L119.76,57.813L120.25,56.265L120.74,56.293L121.23,57.237L121.73,57.264L122.22,57.166L122.71,56.606L123.2,57.547L123.69,59.331L124.19,61.794L124.68,63.416L125.17,64.296L125.66,60.023L126.16,60.272L126.65,69.535L127.14,75.78L127.63,83.23L128.12,65.405L128.62,58.654L129.11,90.887L129.6,64.8L130.09,63.41L130.59,63.54L131.08,56.524L131.57,52.434L132.06,76.105L132.55,47.03L133.05,47.03L133.54,47.03L134.03,47.03L134.52,47.03L135.01,47.03L135.51,47.03L136,47.03L136.49,47.03L136.98,47.03L137.48,47.03L137.97,47.03L138.46,47.03L138.95,47.03L139.44,47.03L139.94,47.03L140.43,47.03L140.92,47.03L141.41,47.03L141.91,47.03L142.4,47.03L142.89,47.03L143.38,47.03L143.87,47.03L144.37,48.881L144.86,48.846L145.35,49.18L145.84,50.173L146.33,49.739L146.83,51.094L147.32,49.842L147.81,49.768L148.3,49.358L148.8,50.69L149.29,50.083L149.78,51.154L150.27,54.171L150.76,56.366L151.26,56.45L151.75,56.582L152.24,56.238L152.73,58.38L153.23,53.179L153.72,55.304L154.21,58.181L154.7,68.583L155.19,66.251L155.69,71.351L156.18,63.844L156.67,56.378L157.16,58.459L157.66,56.888L158.15,54.956L158.64,54.706L159.13,56.253L159.62,56.766L160.12,52.755L160.61,55.859L161.1,55.366L161.59,59.679L162.08,61.738L162.58,72.677L163.07,47.03L163.56,78.96L164.05,63.332L164.55,59.573L165.04,67.609L165.53,54.834L166.02,47.03L166.51,140.07L167.01,47.03L167.5,47.03L167.99,47.03L168.48,47.03L168.98,47.03L169.47,47.03L169.96,47.03L170.45,47.03L170.94,47.03L171.44,47.03L171.93,47.03L172.42,47.03L172.91,47.03L173.4,47.03L173.9,53.016L174.39,48.987L174.88,49.181L175.37,50.953L175.87,49.547L176.36,52.29L176.85,49.08L177.34,50.103L177.83,54.116L178.33,50.041L178.82,49.098L179.31,58.358L179.8,50.154L180.3,51.524L180.79,51.379L181.28,51.176L181.77,50.454L182.26,53.247L182.76,50.524L183.25,52.499L183.74,57.601L184.23,58.719L184.72,59.014L185.22,63.012L185.71,47.03L186.2,47.03L186.69,47.03L187.19,47.03L187.68,47.03L188.17,47.03L188.66,47.03L189.15,47.03L189.65,47.03L190.14,47.03L190.63,47.03L191.12,47.03L191.62,49.937L192.11,50.388L192.6,54.38L193.09,52.945L193.58,52.589L194.08,53.665L194.57,56.237L195.06,54.955L195.55,53.67L196.05,55.8L196.54,54.027L197.03,56.41L197.52,58.357L198.01,59.035L198.51,60.235L199,57.754L199.49,57.143L199.98,67.907L200.47,47.03L200.97,47.03L201.46,47.03L201.95,47.03L202.44,47.03L202.94,47.03L203.43,47.03L203.92,47.03L204.41,47.03L204.9,47.03L205.4,47.03L205.89,47.03L206.38,47.03L206.87,47.03L207.37,47.03L207.86,47.03L208.35,47.03L208.84,47.03L209.33,50.225" style="fill:none;stroke:#7AC36A;stroke-width:1.875;stroke-dasharray:7.5,2.5" />
<path d="M84.812,47.801L85.305,47.804L85.797,47.879L86.289,47.952L86.781,47.909L87.273,47.923L87.766,47.971L88.258,47.923L88.75,47.935L89.242,47.935L89.734,47.93L90.226,47.951L90.719,47.971L91.211,47.931L91.703,48.054L92.195,48.08L92.687,48.123L93.18,47.979L93.672,48.144L94.164,48.118L94.656,48.099L95.148,48.103L95.64,48.001L96.133,48.05L96.625,48.03L97.117,48.059L97.609,47.988L98.101,47.977L98.594,48.104L99.086,48.058L99.578,47.948L100.07,47.97L100.56,48.058L101.05,48.031L101.55,48.112L102.04,48.141L102.53,48.132L103.02,47.933L103.52,48.172L104.01,48.059L104.5,48.076L104.99,48.13L105.48,48.192L105.98,48.082L106.47,47.887L106.96,48.126L107.45,48.137L107.94,48.125L108.44,48.074L108.93,48.12L109.42,48.267L109.91,48.045L110.41,48.085L110.9,48.042L111.39,48.153L111.88,48.115L112.37,48.166L112.87,48.173L113.36,48.123L113.85,48.132L114.34,48.124L114.84,48.103L115.33,48.021L115.82,47.989L116.31,48.181L116.8,48.039L117.3,48.086L117.79,48.076L118.28,48.135L118.77,47.937L119.27,48.129L119.76,47.883L120.25,48.087L120.74,48.093L121.23,48.225L121.73,47.978L122.22,48.164L122.71,48.146L123.2,48.321L123.69,48.079" style="fill:none;stroke:#5A9BD4;stroke-width:1.875;stroke-dasharray:2.5,2.5" />
<path d="M84.812,47.357L85.305,47.867L85.797,48.19L86.289,47.757L86.781,47.657L87.273,47.674L87.766,47.755L88.258,47.638L88.75,47.578L89.242,47.633L89.734,48.482L90.226,47.588L90.719,48.153L91.211,47.573L91.703,47.543L92.195,47.59L92.687,47.936L93.18,47.594L93.672,47.59L94.164,48.468L94.656,47.575L95.148,47.584L95.64,47.717L96.133,47.549L96.625,47.593L97.117,47.527L97.609,47.615L98.101,49.489L98.594,47.453L99.086,50.288L99.578,47.849L100.07,47.581L100.56,47.599L101.05,47.567L101.55,47.67L102.04,48.026L102.53,48.051L103.02,47.62L103.52,48.821L104.01,47.901L104.5,47.982L104.99,70.216L105.48,64.03L105.98,62.946L106.47,47.03L106.96,47.03L107.45,112.81L107.94,47.03L108.44,165.28L108.93,47.03L109.42,47.03L109.91,47.03L110.41,47.03L110.9,47.03L111.39,47.03L111.88,54.96L112.37,48.15L112.87,47.448L113.36,47.544L113.85,47.429L114.34,47.461L114.84,47.746L115.33,47.427L115.82,47.594L116.31,47.03L116.8,50.385L117.3,47.456L117.79,47.492L118.28,47.44L118.77,56.873L119.27,47.03L119.76,116.69L120.25,47.03L120.74,47.03L121.23,47.03L121.73,47.03L122.22,47.03L122.71,47.03L123.2,47.03L123.69,47.03L124.19,47.03L124.68,47.03L125.17,47.03L125.66,53.322L126.16,47.76L126.65,47.494L127.14,47.495L127.63,47.45L128.12,47.03L128.62,93.395L129.11,47.03L129.6,47.03L130.09,47.03L130.59,47.03L131.08,47.03L131.57,47.03L132.06,47.03L132.55,47.03L133.05,47.03L133.54,47.03L134.03,47.03L134.52,47.03L135.01,47.03L135.51,47.03L136,47.03L136.49,47.03L136.98,47.03L137.48,47.03L137.97,47.03L138.46,47.03L138.95,47.03L139.44,47.03L139.94,47.03L140.43,47.03L140.92,47.03L141.41,47.03L141.91,47.03L142.4,47.03L142.89,47.03L143.38,47.03L143.87,47.03L144.37,47.03L144.86,47.03L145.35,47.03L145.84,47.03L146.33,47.03L146.83,47.03L147.32,47.03L147.81,47.03L148.3,47.03L148.8,47.03L149.29,47.03L149.78,47.03L150.27,47.03L150.76,47.03L151.26,47.03L151.75,47.03L152.24,47.03L152.73,47.03L153.23,47.03L153.72,47.03L154.21,47.03L154.7,47.03L155.19,47.03L155.69,47.03L156.18,50.439L156.67,47.932" style="fill:none;stroke:#FAA75B;stroke-width:1.875;stroke-dasharray:1.25,1.25" />
<path d="M1055,694.3L1080,694.3" style="fill:none;stroke:#7AC36A;stroke-width:1.875;stroke-dasharray:7.5,2.5" />
<text x="1002.5" y="-687.85" transform="scale(1, -1)"
	style="font-family:Helvetica;font-weight:normal;font-style:normal;font-size:12pt">etcd v2</text>
<path d="M1055,680L1080,680" style="fill:none;stroke:#5A9BD4;stroke-width:1.875;stroke-dasharray:2.5,2.5" />
<text x="1002.5" y="-673.56" transform="scale(1, -1)"
	style="font-family:Helvetica;font-weight:normal;font-style:normal;font-size:12pt">etcd v3</text>
<path d="M1055,665.71L1080,665.71" style="fill:none;stroke:#FAA75B;stroke-width:1.875;stroke-dasharray:1.25,1.25" />
<text x="934.1" y="-659.26" transform="scale(1, -1)"
	style="font-family:Helvetica;font-weight:normal;font-style:normal;font-size:12pt">Zookeeper v3.4.8</text>
<path d="M1055,651.41L1080,651.41" style="fill:none;stroke:#F15A60;stroke-width:1.875" />
<text x="959.12" y="-644.97" transform="scale(1, -1)"
	style="font-family:Helvetica;font-weight:normal;font-style:normal;font-size:12pt">Consul v0.6.4</text>
</g>
</svg>
