<?xml version="1.0"?>
<!-- Generated by SVGo and Plotinum VG -->
<svg width="12in" height="8in"
	xmlns="http://www.w3.org/2000/svg"
	xmlns:xlink="http://www.w3.org/1999/xlink">
<g transform="scale(1, -1) translate(0, -720)">
<path d="M0,0L1080,0L1080,720L0,720Z" style="fill:#FFFFFF" />
<text x="196.54" y="-706.41" transform="scale(1, -1)"
	style="font-family:Helvetica;font-weight:normal;font-style:normal;font-size:12pt">Write 2M keys, 1000-client, 100-connections, 8-byte key, 256-byte value (etcd v3, Test 1), Memory(MB)</text>
<text x="544.64" y="-4.965" transform="scale(1, -1)"
	style="font-family:Helvetica;font-weight:normal;font-style:normal;font-size:12pt">Second</text>
<text x="56.662" y="-19.142" transform="scale(1, -1)"
	style="font-family:Helvetica;font-weight:normal;font-style:normal;font-size:10pt">0</text>
<text x="325.15" y="-19.142" transform="scale(1, -1)"
	style="font-family:Helvetica;font-weight:normal;font-style:normal;font-size:10pt">20</text>
<text x="597.11" y="-19.142" transform="scale(1, -1)"
	style="font-family:Helvetica;font-weight:normal;font-style:normal;font-size:10pt">40</text>
<text x="869.08" y="-19.142" transform="scale(1, -1)"
	style="font-family:Helvetica;font-weight:normal;font-style:normal;font-size:10pt">60</text>
<path d="M60.137,30.467L60.137,40.467" style="fill:none;stroke:#000000;stroke-width:0.625" />
<path d="M332.1,30.467L332.1,40.467" style="fill:none;stroke:#000000;stroke-width:0.625" />
<path d="M604.06,30.467L604.06,40.467" style="fill:none;stroke:#000000;stroke-width:0.625" />
<path d="M876.03,30.467L876.03,40.467" style="fill:none;stroke:#000000;stroke-width:0.625" />
<path d="M196.12,35.468L196.12,40.467" style="fill:none;stroke:#000000;stroke-width:0.625" />
<path d="M468.08,35.468L468.08,40.467" style="fill:none;stroke:#000000;stroke-width:0.625" />
<path d="M740.05,35.468L740.05,40.467" style="fill:none;stroke:#000000;stroke-width:0.625" />
<path d="M1012,35.468L1012,40.467" style="fill:none;stroke:#000000;stroke-width:0.625" />
<path d="M60.137,40.467L1080,40.467" style="fill:none;stroke:#000000;stroke-width:0.625" />
<g transform="rotate(90)">
<text x="330.91" y="13.59" transform="scale(1, -1)"
	style="font-family:Helvetica;font-weight:normal;font-style:normal;font-size:12pt">Memory(MB)</text>
</g>
<text x="18.555" y="-196.06" transform="scale(1, -1)"
	style="font-family:Helvetica;font-weight:normal;font-style:normal;font-size:10pt">200</text>
<text x="18.555" y="-368.42" transform="scale(1, -1)"
	style="font-family:Helvetica;font-weight:normal;font-style:normal;font-size:10pt">400</text>
<text x="18.555" y="-540.79" transform="scale(1, -1)"
	style="font-family:Helvetica;font-weight:normal;font-style:normal;font-size:10pt">600</text>
<path d="M42.88,201.43L52.88,201.43" style="fill:none;stroke:#000000;stroke-width:0.625" />
<path d="M42.88,373.79L52.88,373.79" style="fill:none;stroke:#000000;stroke-width:0.625" />
<path d="M42.88,546.16L52.88,546.16" style="fill:none;stroke:#000000;stroke-width:0.625" />
<path d="M47.88,115.24L52.88,115.24" style="fill:none;stroke:#000000;stroke-width:0.625" />
<path d="M47.88,287.61L52.88,287.61" style="fill:none;stroke:#000000;stroke-width:0.625" />
<path d="M47.88,459.98L52.88,459.98" style="fill:none;stroke:#000000;stroke-width:0.625" />
<path d="M47.88,632.34L52.88,632.34" style="fill:none;stroke:#000000;stroke-width:0.625" />
<path d="M52.88,47.03L52.88,701.44" style="fill:none;stroke:#000000;stroke-width:0.625" />
<path d="M60.137,47.03L73.736,93.069L87.334,104.5L100.93,112.31L114.53,121.93L128.13,129.78L141.73,138.57L155.32,146.47L168.92,154.85L182.52,164.67L196.12,173.18L209.72,184.21L223.32,192.33L236.91,201.99L250.51,208.83L264.11,217.48L277.71,227.38L291.31,236.66L304.9,243.34L318.5,252.9L332.1,261.61L345.7,269.91L359.3,276.99L372.9,286.83L386.49,292.95L400.09,299.38L413.69,308.52L427.29,317.07L440.89,323.58L454.48,331.79L468.08,342.48L481.68,347.03L495.28,354.43L508.88,364.83L522.48,373.68L536.07,380.33L549.67,385.95L563.27,394.82L576.87,405.71L590.47,414.45L604.06,420.29L617.66,429.33L631.26,438.09L644.86,450.63L658.46,458.08L672.05,466.87L685.65,473.4L699.25,480.46L712.85,489.18L726.45,498.54L740.05,505.82L753.64,512.6L767.24,521.97L780.84,531.37L794.44,537.03L808.04,544.38L821.63,552.24L835.23,558.59L848.83,569.63L862.43,575.97L876.03,582.22L889.63,589.42L903.22,599.65L916.82,604.01L930.42,610.61L944.02,621.04L957.62,632.33L971.21,636.59L984.81,650.97L998.41,656.11L1012,663.6L1025.6,670.47L1039.2,676.66L1052.8,687.88L1066.4,694.01L1080,701.44" style="fill:none;stroke:#F15A60;stroke-width:1.875" />
<path d="M1055,694.3L1080,694.3" style="fill:none;stroke:#F15A60;stroke-width:1.875" />
<text x="1002.5" y="-687.85" transform="scale(1, -1)"
	style="font-family:Helvetica;font-weight:normal;font-style:normal;font-size:12pt">etcd v3</text>
</g>
</svg>
