<?xml version="1.0"?>
<!-- Generated by SVGo and Plotinum VG -->
<svg width="12in" height="8in"
	xmlns="http://www.w3.org/2000/svg"
	xmlns:xlink="http://www.w3.org/1999/xlink">
<g transform="scale(1, -1) translate(0, -720)">
<path d="M0,0L1080,0L1080,720L0,720Z" style="fill:#FFFFFF" />
<text x="224.04" y="-706.41" transform="scale(1, -1)"
	style="font-family:Helvetica;font-weight:normal;font-style:normal;font-size:12pt">Write 2M keys, 1000-client, 100-connections, 8-byte key, 256-byte value (etcd v3, Test 2), CPU</text>
<text x="544.64" y="-4.965" transform="scale(1, -1)"
	style="font-family:Helvetica;font-weight:normal;font-style:normal;font-size:12pt">Second</text>
<text x="56.662" y="-19.142" transform="scale(1, -1)"
	style="font-family:Helvetica;font-weight:normal;font-style:normal;font-size:10pt">0</text>
<text x="321.57" y="-19.142" transform="scale(1, -1)"
	style="font-family:Helvetica;font-weight:normal;font-style:normal;font-size:10pt">20</text>
<text x="589.96" y="-19.142" transform="scale(1, -1)"
	style="font-family:Helvetica;font-weight:normal;font-style:normal;font-size:10pt">40</text>
<text x="858.34" y="-19.142" transform="scale(1, -1)"
	style="font-family:Helvetica;font-weight:normal;font-style:normal;font-size:10pt">60</text>
<path d="M60.137,30.467L60.137,40.467" style="fill:none;stroke:#000000;stroke-width:0.625" />
<path d="M328.52,30.467L328.52,40.467" style="fill:none;stroke:#000000;stroke-width:0.625" />
<path d="M596.91,30.467L596.91,40.467" style="fill:none;stroke:#000000;stroke-width:0.625" />
<path d="M865.29,30.467L865.29,40.467" style="fill:none;stroke:#000000;stroke-width:0.625" />
<path d="M194.33,35.468L194.33,40.467" style="fill:none;stroke:#000000;stroke-width:0.625" />
<path d="M462.71,35.468L462.71,40.467" style="fill:none;stroke:#000000;stroke-width:0.625" />
<path d="M731.1,35.468L731.1,40.467" style="fill:none;stroke:#000000;stroke-width:0.625" />
<path d="M999.48,35.468L999.48,40.467" style="fill:none;stroke:#000000;stroke-width:0.625" />
<path d="M60.137,40.467L1080,40.467" style="fill:none;stroke:#000000;stroke-width:0.625" />
<g transform="rotate(90)">
<text x="358.4" y="13.59" transform="scale(1, -1)"
	style="font-family:Helvetica;font-weight:normal;font-style:normal;font-size:12pt">CPU</text>
</g>
<text x="18.555" y="-199.02" transform="scale(1, -1)"
	style="font-family:Helvetica;font-weight:normal;font-style:normal;font-size:10pt">100</text>
<text x="18.555" y="-361.11" transform="scale(1, -1)"
	style="font-family:Helvetica;font-weight:normal;font-style:normal;font-size:10pt">200</text>
<text x="18.555" y="-523.2" transform="scale(1, -1)"
	style="font-family:Helvetica;font-weight:normal;font-style:normal;font-size:10pt">300</text>
<text x="18.555" y="-685.3" transform="scale(1, -1)"
	style="font-family:Helvetica;font-weight:normal;font-style:normal;font-size:10pt">400</text>
<path d="M42.88,204.39L52.88,204.39" style="fill:none;stroke:#000000;stroke-width:0.625" />
<path d="M42.88,366.48L52.88,366.48" style="fill:none;stroke:#000000;stroke-width:0.625" />
<path d="M42.88,528.57L52.88,528.57" style="fill:none;stroke:#000000;stroke-width:0.625" />
<path d="M42.88,690.67L52.88,690.67" style="fill:none;stroke:#000000;stroke-width:0.625" />
<path d="M47.88,123.34L52.88,123.34" style="fill:none;stroke:#000000;stroke-width:0.625" />
<path d="M47.88,285.44L52.88,285.44" style="fill:none;stroke:#000000;stroke-width:0.625" />
<path d="M47.88,447.53L52.88,447.53" style="fill:none;stroke:#000000;stroke-width:0.625" />
<path d="M47.88,609.62L52.88,609.62" style="fill:none;stroke:#000000;stroke-width:0.625" />
<path d="M52.88,47.03L52.88,701.44" style="fill:none;stroke:#000000;stroke-width:0.625" />
<path d="M60.137,47.03L73.557,129.21L86.976,193.33L100.4,251.77L113.81,297.82L127.23,337.06L140.65,371.04L154.07,400.13L167.49,422.1L180.91,444.37L194.33,460.96L207.75,477.38L221.17,489.46L234.59,502.72L248.01,514.94L261.43,526.45L274.85,538.28L288.26,546.36L301.68,553.55L315.1,561.27L328.52,567.91L341.94,573.29L355.36,582.18L368.78,588.66L382.2,593.57L395.62,599.07L409.04,604.89L422.46,608.86L435.88,612.65L449.3,618.06L462.71,622.6L476.13,625.39L489.55,628.33L502.97,632.1L516.39,635.91L529.81,639.54L543.23,641.37L556.65,644.18L570.07,647.68L583.49,651.1L596.91,653.43L610.33,655.88L623.75,658.86L637.16,661.64L650.58,664.94L664,667.62L677.42,669.61L690.84,671.81L704.26,673.68L717.68,675.64L731.1,677.18L744.52,678.48L757.94,679.95L771.36,682.17L784.78,684.38L798.2,686.06L811.62,686.97L825.03,688.98L838.45,689.86L851.87,691.14L865.29,693.16L878.71,694.25L892.13,695.16L905.55,696.44L918.97,696.55L932.39,697.3L945.81,697.98L959.23,698.4L972.65,700.23L986.07,700.86L999.48,700.94L1012.9,700.7L1026.3,700.52L1039.7,700.54L1053.2,700.78L1066.6,701.33L1080,701.44" style="fill:none;stroke:#F15A60;stroke-width:1.875" />
<path d="M1055,694.3L1080,694.3" style="fill:none;stroke:#F15A60;stroke-width:1.875" />
<text x="1002.5" y="-687.85" transform="scale(1, -1)"
	style="font-family:Helvetica;font-weight:normal;font-style:normal;font-size:12pt">etcd v3</text>
</g>
</svg>
