<?xml version="1.0"?>
<!-- Generated by SVGo and Plotinum VG -->
<svg width="12in" height="8in"
	xmlns="http://www.w3.org/2000/svg"
	xmlns:xlink="http://www.w3.org/1999/xlink">
<g transform="scale(1, -1) translate(0, -720)">
<path d="M0,0L1080,0L1080,720L0,720Z" style="fill:#FFFFFF" />
<text x="171.52" y="-706.41" transform="scale(1, -1)"
	style="font-family:Helvetica;font-weight:normal;font-style:normal;font-size:12pt">Write 2M keys, 1000-client, 100-connections, 8-byte key, 256-byte value (etcd v3, Test 2), Latency(millisecond)</text>
<text x="541.16" y="-4.965" transform="scale(1, -1)"
	style="font-family:Helvetica;font-weight:normal;font-style:normal;font-size:12pt">Second</text>
<text x="49.712" y="-19.142" transform="scale(1, -1)"
	style="font-family:Helvetica;font-weight:normal;font-style:normal;font-size:10pt">0</text>
<text x="312.94" y="-19.142" transform="scale(1, -1)"
	style="font-family:Helvetica;font-weight:normal;font-style:normal;font-size:10pt">20</text>
<text x="579.65" y="-19.142" transform="scale(1, -1)"
	style="font-family:Helvetica;font-weight:normal;font-style:normal;font-size:10pt">40</text>
<text x="846.35" y="-19.142" transform="scale(1, -1)"
	style="font-family:Helvetica;font-weight:normal;font-style:normal;font-size:10pt">60</text>
<path d="M53.188,30.467L53.188,40.467" style="fill:none;stroke:#000000;stroke-width:0.625" />
<path d="M319.89,30.467L319.89,40.467" style="fill:none;stroke:#000000;stroke-width:0.625" />
<path d="M586.6,30.467L586.6,40.467" style="fill:none;stroke:#000000;stroke-width:0.625" />
<path d="M853.3,30.467L853.3,40.467" style="fill:none;stroke:#000000;stroke-width:0.625" />
<path d="M186.54,35.468L186.54,40.467" style="fill:none;stroke:#000000;stroke-width:0.625" />
<path d="M453.24,35.468L453.24,40.467" style="fill:none;stroke:#000000;stroke-width:0.625" />
<path d="M719.95,35.468L719.95,40.467" style="fill:none;stroke:#000000;stroke-width:0.625" />
<path d="M986.65,35.468L986.65,40.467" style="fill:none;stroke:#000000;stroke-width:0.625" />
<path d="M53.188,40.467L1080,40.467" style="fill:none;stroke:#000000;stroke-width:0.625" />
<g transform="rotate(90)">
<text x="305.89" y="13.59" transform="scale(1, -1)"
	style="font-family:Helvetica;font-weight:normal;font-style:normal;font-size:12pt">Latency(millisecond)</text>
</g>
<text x="18.555" y="-103.3" transform="scale(1, -1)"
	style="font-family:Helvetica;font-weight:normal;font-style:normal;font-size:10pt">30</text>
<text x="18.555" y="-269.7" transform="scale(1, -1)"
	style="font-family:Helvetica;font-weight:normal;font-style:normal;font-size:10pt">36</text>
<text x="18.555" y="-436.1" transform="scale(1, -1)"
	style="font-family:Helvetica;font-weight:normal;font-style:normal;font-size:10pt">42</text>
<text x="18.555" y="-602.51" transform="scale(1, -1)"
	style="font-family:Helvetica;font-weight:normal;font-style:normal;font-size:10pt">48</text>
<path d="M35.93,108.66L45.93,108.66" style="fill:none;stroke:#000000;stroke-width:0.625" />
<path d="M35.93,275.07L45.93,275.07" style="fill:none;stroke:#000000;stroke-width:0.625" />
<path d="M35.93,441.47L45.93,441.47" style="fill:none;stroke:#000000;stroke-width:0.625" />
<path d="M35.93,607.88L45.93,607.88" style="fill:none;stroke:#000000;stroke-width:0.625" />
<path d="M40.93,53.196L45.93,53.196" style="fill:none;stroke:#000000;stroke-width:0.625" />
<path d="M40.93,164.13L45.93,164.13" style="fill:none;stroke:#000000;stroke-width:0.625" />
<path d="M40.93,219.6L45.93,219.6" style="fill:none;stroke:#000000;stroke-width:0.625" />
<path d="M40.93,330.54L45.93,330.54" style="fill:none;stroke:#000000;stroke-width:0.625" />
<path d="M40.93,386L45.93,386" style="fill:none;stroke:#000000;stroke-width:0.625" />
<path d="M40.93,496.94L45.93,496.94" style="fill:none;stroke:#000000;stroke-width:0.625" />
<path d="M40.93,552.41L45.93,552.41" style="fill:none;stroke:#000000;stroke-width:0.625" />
<path d="M40.93,663.34L45.93,663.34" style="fill:none;stroke:#000000;stroke-width:0.625" />
<path d="M45.93,47.03L45.93,701.44" style="fill:none;stroke:#000000;stroke-width:0.625" />
<path d="M53.188,47.03L66.523,47.606L79.858,194.18L93.193,208.8L106.53,241.75L119.86,223.54L133.2,259.02L146.53,277.99L159.87,342.06L173.2,296.16L186.54,373.85L199.88,341.93L213.21,416.32L226.55,305.03L239.88,315.54L253.22,295.04L266.55,299.4L279.89,344.87L293.22,453.82L306.56,341.01L319.89,357.16L333.23,437.07L346.56,229.04L359.9,341.23L373.23,358.96L386.57,336.59L399.9,325.41L413.24,323.47L426.57,403.31L439.91,287.06L453.24,353.21L466.58,408.75L479.91,342.81L493.25,438.89L506.59,321.13L519.92,274.77L533.26,421.93L546.59,362.87L559.93,296.11L573.26,340.62L586.6,262.1L599.93,374.74L613.27,310.36L626.6,235.37L639.94,398.55L653.27,253.69L666.61,315.24L679.94,267.02L693.28,323.47L706.61,317.11L719.95,318.04L733.28,313.97L746.62,287.45L759.95,300.69L773.29,321.77L786.62,367.17L799.96,329.58L813.3,475.23L826.63,251.01L839.97,346.9L853.3,431L866.64,311.86L879.97,438.65L893.31,380.51L906.64,443.62L919.98,433.34L933.31,585.95L946.65,179.66L959.98,559.59L973.32,631.97L986.65,438.29L999.99,484.57L1013.3,701.44L1026.7,386.72L1040,412.33L1053.3,624.48L1066.7,545.83L1080,290.53" style="fill:none;stroke:#F15A60;stroke-width:1.875" />
<path d="M1055,694.3L1080,694.3" style="fill:none;stroke:#F15A60;stroke-width:1.875" />
<text x="1002.5" y="-687.85" transform="scale(1, -1)"
	style="font-family:Helvetica;font-weight:normal;font-style:normal;font-size:12pt">etcd v3</text>
</g>
</svg>
