<?xml version="1.0"?>
<!-- Generated by SVGo and Plotinum VG -->
<svg width="12in" height="8in"
	xmlns="http://www.w3.org/2000/svg"
	xmlns:xlink="http://www.w3.org/1999/xlink">
<g transform="scale(1, -1) translate(0, -720)">
<path d="M0,0L1080,0L1080,720L0,720Z" style="fill:#FFFFFF" />
<text x="276.14" y="-706.41" transform="scale(1, -1)"
	style="font-family:Helvetica;font-weight:normal;font-style:normal;font-size:12pt">Write 500K keys, 1000-client, 8-byte key, 256-byte value (etcd v2, Test 1), CPU</text>
<text x="544.64" y="-4.965" transform="scale(1, -1)"
	style="font-family:Helvetica;font-weight:normal;font-style:normal;font-size:12pt">Second</text>
<text x="56.662" y="-19.142" transform="scale(1, -1)"
	style="font-family:Helvetica;font-weight:normal;font-style:normal;font-size:10pt">0</text>
<text x="377.98" y="-19.142" transform="scale(1, -1)"
	style="font-family:Helvetica;font-weight:normal;font-style:normal;font-size:10pt">50</text>
<text x="699.31" y="-19.142" transform="scale(1, -1)"
	style="font-family:Helvetica;font-weight:normal;font-style:normal;font-size:10pt">100</text>
<text x="1024.1" y="-19.142" transform="scale(1, -1)"
	style="font-family:Helvetica;font-weight:normal;font-style:normal;font-size:10pt">150</text>
<path d="M60.137,30.467L60.137,40.467" style="fill:none;stroke:#000000;stroke-width:0.625" />
<path d="M384.93,30.467L384.93,40.467" style="fill:none;stroke:#000000;stroke-width:0.625" />
<path d="M709.73,30.467L709.73,40.467" style="fill:none;stroke:#000000;stroke-width:0.625" />
<path d="M1034.5,30.467L1034.5,40.467" style="fill:none;stroke:#000000;stroke-width:0.625" />
<path d="M125.1,35.468L125.1,40.467" style="fill:none;stroke:#000000;stroke-width:0.625" />
<path d="M190.06,35.468L190.06,40.467" style="fill:none;stroke:#000000;stroke-width:0.625" />
<path d="M255.02,35.468L255.02,40.467" style="fill:none;stroke:#000000;stroke-width:0.625" />
<path d="M319.98,35.468L319.98,40.467" style="fill:none;stroke:#000000;stroke-width:0.625" />
<path d="M449.89,35.468L449.89,40.467" style="fill:none;stroke:#000000;stroke-width:0.625" />
<path d="M514.85,35.468L514.85,40.467" style="fill:none;stroke:#000000;stroke-width:0.625" />
<path d="M579.81,35.468L579.81,40.467" style="fill:none;stroke:#000000;stroke-width:0.625" />
<path d="M644.77,35.468L644.77,40.467" style="fill:none;stroke:#000000;stroke-width:0.625" />
<path d="M774.69,35.468L774.69,40.467" style="fill:none;stroke:#000000;stroke-width:0.625" />
<path d="M839.65,35.468L839.65,40.467" style="fill:none;stroke:#000000;stroke-width:0.625" />
<path d="M904.61,35.468L904.61,40.467" style="fill:none;stroke:#000000;stroke-width:0.625" />
<path d="M969.57,35.468L969.57,40.467" style="fill:none;stroke:#000000;stroke-width:0.625" />
<path d="M60.137,40.467L1080,40.467" style="fill:none;stroke:#000000;stroke-width:0.625" />
<g transform="rotate(90)">
<text x="358.4" y="13.59" transform="scale(1, -1)"
	style="font-family:Helvetica;font-weight:normal;font-style:normal;font-size:12pt">CPU</text>
</g>
<text x="25.505" y="-229.04" transform="scale(1, -1)"
	style="font-family:Helvetica;font-weight:normal;font-style:normal;font-size:10pt">60</text>
<text x="18.555" y="-425.01" transform="scale(1, -1)"
	style="font-family:Helvetica;font-weight:normal;font-style:normal;font-size:10pt">120</text>
<text x="18.555" y="-620.99" transform="scale(1, -1)"
	style="font-family:Helvetica;font-weight:normal;font-style:normal;font-size:10pt">180</text>
<path d="M42.88,234.41L52.88,234.41" style="fill:none;stroke:#000000;stroke-width:0.625" />
<path d="M42.88,430.38L52.88,430.38" style="fill:none;stroke:#000000;stroke-width:0.625" />
<path d="M42.88,626.36L52.88,626.36" style="fill:none;stroke:#000000;stroke-width:0.625" />
<path d="M47.88,103.76L52.88,103.76" style="fill:none;stroke:#000000;stroke-width:0.625" />
<path d="M47.88,169.09L52.88,169.09" style="fill:none;stroke:#000000;stroke-width:0.625" />
<path d="M47.88,299.74L52.88,299.74" style="fill:none;stroke:#000000;stroke-width:0.625" />
<path d="M47.88,365.06L52.88,365.06" style="fill:none;stroke:#000000;stroke-width:0.625" />
<path d="M47.88,495.71L52.88,495.71" style="fill:none;stroke:#000000;stroke-width:0.625" />
<path d="M47.88,561.03L52.88,561.03" style="fill:none;stroke:#000000;stroke-width:0.625" />
<path d="M47.88,691.68L52.88,691.68" style="fill:none;stroke:#000000;stroke-width:0.625" />
<path d="M52.88,47.03L52.88,701.44" style="fill:none;stroke:#000000;stroke-width:0.625" />
<path d="M60.137,47.03L66.633,218.11L73.129,371.1L79.625,496.13L86.121,602.09L92.617,685.87L99.113,701.44L105.61,671.2L112.11,669.31L118.6,646.83L125.1,623.09L131.59,601.37L138.09,581.05L144.58,563.55L151.08,550.71L157.58,551.98L164.07,539.47L170.57,526.34L177.06,513.21L183.56,499.89L190.06,485.97L196.55,473.07L203.05,460.66L209.54,449.03L216.04,436.98L222.54,425.58L229.03,414.61L235.53,403.99L242.02,393.83L248.52,384.13L255.02,374.99L261.51,366.27L268.01,358.04L274.5,350.17L281,342.72L287.5,335.6L293.99,328.84L300.49,322.4L306.98,316.26L313.48,310.29L319.98,304.63L326.47,299.21L332.97,294.02L339.46,288.96L345.96,284.19L352.45,279.58L358.95,275.08L365.45,270.83L371.94,266.71L378.44,262.7L384.93,258.88L391.43,255.15L397.93,251.56L404.42,248.13L410.92,244.73L417.41,241.47L423.91,238.36L430.41,235.36L436.9,232.42L443.4,229.51L449.89,227.06L456.39,241.14L462.89,263.87L469.38,283.76L475.88,306.07L482.37,327.76L488.87,348.08L495.37,367.51L501.86,386.42L508.36,402.42L514.85,419.93L521.35,428.59L527.85,432.11L534.34,433.26L540.84,436.49L547.33,437.86L553.83,435.18L560.32,432.8L566.82,430.45L573.32,427.61L579.81,426.89L586.31,428.62L592.8,431.1L599.3,429.4L605.8,426.53L612.29,423.03L618.79,420.09L625.28,416.89L631.78,414.18L638.28,411.34L644.77,408.34L651.27,405.2L657.76,402.13L664.26,399.22L670.76,396.25L677.25,393.54L683.75,390.44L690.24,387.37L696.74,384.23L703.24,381.16L709.73,378.12L716.23,375.22L722.72,372.21L729.22,369.24L735.72,366.37L742.21,363.49L748.71,360.65L755.2,357.91L761.7,355.16L768.19,352.48L774.69,349.84L781.19,347.26L787.68,344.71L794.18,342.23L800.67,339.75L807.17,337.33L813.67,334.91L820.16,332.59L826.66,330.27L833.15,328.02L839.65,326.19L846.15,330.96L852.64,340.86L859.14,352.91L865.63,366.43L872.13,377.73L878.63,389.07L885.12,399.52L891.62,410.17L898.11,422.71L904.61,434.76L911.11,446.68L917.6,458.05L924.1,467.13L930.59,475.72L937.09,484.57L943.59,489.99L950.08,496.3L956.58,502.04L963.07,504.89L969.57,506.52L976.06,510.86L982.56,510.41L989.06,511.45L995.55,512.14L1002,509.88L1008.5,507.24L1015,505.24L1021.5,502.76L1028,500.38L1034.5,498.19L1041,496.2L1047.5,495.12L1054,495.22L1060.5,496.16L1067,498.32L1073.5,498.88L1080,496.88" style="fill:none;stroke:#F15A60;stroke-width:1.875" />
<path d="M1055,694.3L1080,694.3" style="fill:none;stroke:#F15A60;stroke-width:1.875" />
<text x="1002.5" y="-687.85" transform="scale(1, -1)"
	style="font-family:Helvetica;font-weight:normal;font-style:normal;font-size:12pt">etcd v2</text>
</g>
</svg>
