<?xml version="1.0"?>
<!-- Generated by SVGo and Plotinum VG -->
<svg width="12in" height="8in"
	xmlns="http://www.w3.org/2000/svg"
	xmlns:xlink="http://www.w3.org/1999/xlink">
<g transform="scale(1, -1) translate(0, -720)">
<path d="M0,0L1080,0L1080,720L0,720Z" style="fill:#FFFFFF" />
<text x="248.65" y="-706.41" transform="scale(1, -1)"
	style="font-family:Helvetica;font-weight:normal;font-style:normal;font-size:12pt">Write 500K keys, 1000-client, 8-byte key, 256-byte value (etcd v2, Test 2), Memory(MB)</text>
<text x="548.11" y="-4.965" transform="scale(1, -1)"
	style="font-family:Helvetica;font-weight:normal;font-style:normal;font-size:12pt">Second</text>
<text x="63.613" y="-19.142" transform="scale(1, -1)"
	style="font-family:Helvetica;font-weight:normal;font-style:normal;font-size:10pt">0</text>
<text x="370.85" y="-19.142" transform="scale(1, -1)"
	style="font-family:Helvetica;font-weight:normal;font-style:normal;font-size:10pt">50</text>
<text x="678.08" y="-19.142" transform="scale(1, -1)"
	style="font-family:Helvetica;font-weight:normal;font-style:normal;font-size:10pt">100</text>
<text x="988.79" y="-19.142" transform="scale(1, -1)"
	style="font-family:Helvetica;font-weight:normal;font-style:normal;font-size:10pt">150</text>
<path d="M67.088,30.467L67.088,40.467" style="fill:none;stroke:#000000;stroke-width:0.625" />
<path d="M377.8,30.467L377.8,40.467" style="fill:none;stroke:#000000;stroke-width:0.625" />
<path d="M688.51,30.467L688.51,40.467" style="fill:none;stroke:#000000;stroke-width:0.625" />
<path d="M999.22,30.467L999.22,40.467" style="fill:none;stroke:#000000;stroke-width:0.625" />
<path d="M129.23,35.468L129.23,40.467" style="fill:none;stroke:#000000;stroke-width:0.625" />
<path d="M191.37,35.468L191.37,40.467" style="fill:none;stroke:#000000;stroke-width:0.625" />
<path d="M253.51,35.468L253.51,40.467" style="fill:none;stroke:#000000;stroke-width:0.625" />
<path d="M315.65,35.468L315.65,40.467" style="fill:none;stroke:#000000;stroke-width:0.625" />
<path d="M439.94,35.468L439.94,40.467" style="fill:none;stroke:#000000;stroke-width:0.625" />
<path d="M502.08,35.468L502.08,40.467" style="fill:none;stroke:#000000;stroke-width:0.625" />
<path d="M564.22,35.468L564.22,40.467" style="fill:none;stroke:#000000;stroke-width:0.625" />
<path d="M626.36,35.468L626.36,40.467" style="fill:none;stroke:#000000;stroke-width:0.625" />
<path d="M750.65,35.468L750.65,40.467" style="fill:none;stroke:#000000;stroke-width:0.625" />
<path d="M812.79,35.468L812.79,40.467" style="fill:none;stroke:#000000;stroke-width:0.625" />
<path d="M874.93,35.468L874.93,40.467" style="fill:none;stroke:#000000;stroke-width:0.625" />
<path d="M937.07,35.468L937.07,40.467" style="fill:none;stroke:#000000;stroke-width:0.625" />
<path d="M1061.4,35.468L1061.4,40.467" style="fill:none;stroke:#000000;stroke-width:0.625" />
<path d="M67.088,40.467L1080,40.467" style="fill:none;stroke:#000000;stroke-width:0.625" />
<g transform="rotate(90)">
<text x="330.91" y="13.59" transform="scale(1, -1)"
	style="font-family:Helvetica;font-weight:normal;font-style:normal;font-size:12pt">Memory(MB)</text>
</g>
<text x="25.505" y="-230.85" transform="scale(1, -1)"
	style="font-family:Helvetica;font-weight:normal;font-style:normal;font-size:10pt">800</text>
<text x="18.555" y="-425.43" transform="scale(1, -1)"
	style="font-family:Helvetica;font-weight:normal;font-style:normal;font-size:10pt">1600</text>
<text x="18.555" y="-620.01" transform="scale(1, -1)"
	style="font-family:Helvetica;font-weight:normal;font-style:normal;font-size:10pt">2400</text>
<path d="M49.83,236.22L59.83,236.22" style="fill:none;stroke:#000000;stroke-width:0.625" />
<path d="M49.83,430.8L59.83,430.8" style="fill:none;stroke:#000000;stroke-width:0.625" />
<path d="M49.83,625.38L59.83,625.38" style="fill:none;stroke:#000000;stroke-width:0.625" />
<path d="M54.83,138.92L59.83,138.92" style="fill:none;stroke:#000000;stroke-width:0.625" />
<path d="M54.83,333.51L59.83,333.51" style="fill:none;stroke:#000000;stroke-width:0.625" />
<path d="M54.83,528.09L59.83,528.09" style="fill:none;stroke:#000000;stroke-width:0.625" />
<path d="M59.83,47.03L59.83,701.44" style="fill:none;stroke:#000000;stroke-width:0.625" />
<path d="M67.088,47.03L73.302,68.565L79.516,85.085L85.73,106.53L91.944,133.29L98.158,144.97L104.37,180.02L110.59,180.54L116.8,180.54L123.02,180.54L129.23,180.99L135.44,195.05L141.66,195.05L147.87,195.05L154.09,195.05L160.3,195.05L166.51,195.07L172.73,195.11L178.94,197.23L185.16,201.2L191.37,201.2L197.59,201.2L203.8,201.2L210.01,201.22L216.23,201.24L222.44,201.24L228.66,201.24L234.87,201.24L241.08,201.24L247.3,201.24L253.51,201.24L259.73,201.24L265.94,201.24L272.16,201.24L278.37,201.76L284.58,201.76L290.8,201.76L297.01,201.76L303.23,201.76L309.44,201.76L315.65,201.76L321.87,201.76L328.08,201.76L334.3,201.76L340.51,201.76L346.73,201.76L352.94,201.76L359.15,201.76L365.37,201.76L371.58,201.76L377.8,201.76L384.01,201.76L390.23,201.76L396.44,201.76L402.65,201.76L408.87,201.76L415.08,201.76L421.3,201.76L427.51,201.91L433.72,201.91L439.94,201.91L446.15,202.23L452.37,223.57L458.58,251.34L464.8,264.39L471.01,282.27L477.22,285.6L483.44,293.58L489.65,320.36L495.87,361.58L502.08,391.84L508.29,416.96L514.51,416.96L520.72,423.1L526.94,423.12L533.15,423.16L539.37,423.16L545.58,423.16L551.79,423.16L558.01,423.16L564.22,423.16L570.44,423.16L576.65,423.16L582.87,423.16L589.08,423.16L595.29,423.16L601.51,423.16L607.72,423.16L613.94,423.16L620.15,423.16L626.36,423.16L632.58,423.16L638.79,423.16L645.01,423.16L651.22,423.16L657.44,423.16L663.65,423.16L669.86,423.16L676.08,423.16L682.29,423.16L688.51,423.16L694.72,423.16L700.93,423.16L707.15,423.16L713.36,423.16L719.58,423.16L725.79,423.16L732.01,423.16L738.22,423.16L744.43,423.16L750.65,423.16L756.86,423.16L763.08,423.16L769.29,423.16L775.5,423.16L781.72,423.16L787.93,423.16L794.15,423.16L800.36,423.16L806.58,423.16L812.79,423.16L819,423.26L825.22,423.26L831.43,427.48L837.65,438.45L843.86,455.27L850.08,474.01L856.29,512.09L862.5,536.19L868.72,536.19L874.93,538.03L881.15,583.74L887.36,588.62L893.57,605.04L899.79,629.7L906,655.7L912.22,681.95L918.43,700.24L924.65,700.24L930.86,700.24L937.07,700.24L943.29,700.24L949.5,700.24L955.72,700.24L961.93,700.24L968.14,700.24L974.36,700.24L980.57,700.24L986.79,700.24L993,700.24L999.22,700.24L1005.4,700.24L1011.6,700.74L1017.9,701.44L1024.1,701.44L1030.3,701.44L1036.5,701.44L1042.7,701.44L1048.9,701.44L1055.1,701.44L1061.4,701.44L1067.6,701.44L1073.8,701.44L1080,701.44" style="fill:none;stroke:#F15A60;stroke-width:1.875" />
<path d="M1055,694.3L1080,694.3" style="fill:none;stroke:#F15A60;stroke-width:1.875" />
<text x="1002.5" y="-687.85" transform="scale(1, -1)"
	style="font-family:Helvetica;font-weight:normal;font-style:normal;font-size:12pt">etcd v2</text>
</g>
</svg>
