<?xml version="1.0"?>
<!-- Generated by SVGo and Plotinum VG -->
<svg width="12in" height="8in"
	xmlns="http://www.w3.org/2000/svg"
	xmlns:xlink="http://www.w3.org/1999/xlink">
<g transform="scale(1, -1) translate(0, -720)">
<path d="M0,0L1080,0L1080,720L0,720Z" style="fill:#FFFFFF" />
<text x="253.62" y="-706.41" transform="scale(1, -1)"
	style="font-family:Helvetica;font-weight:normal;font-style:normal;font-size:12pt">Write 500K keys, 1000-client, 8-byte key, 256-byte value (etcd v2, Test 2), Throughput</text>
<text x="556.97" y="-4.965" transform="scale(1, -1)"
	style="font-family:Helvetica;font-weight:normal;font-style:normal;font-size:12pt">Second</text>
<text x="81.337" y="-19.142" transform="scale(1, -1)"
	style="font-family:Helvetica;font-weight:normal;font-style:normal;font-size:10pt">0</text>
<text x="381.27" y="-19.142" transform="scale(1, -1)"
	style="font-family:Helvetica;font-weight:normal;font-style:normal;font-size:10pt">50</text>
<text x="681.21" y="-19.142" transform="scale(1, -1)"
	style="font-family:Helvetica;font-weight:normal;font-style:normal;font-size:10pt">100</text>
<text x="984.62" y="-19.142" transform="scale(1, -1)"
	style="font-family:Helvetica;font-weight:normal;font-style:normal;font-size:10pt">150</text>
<path d="M84.812,30.467L84.812,40.467" style="fill:none;stroke:#000000;stroke-width:0.625" />
<path d="M388.22,30.467L388.22,40.467" style="fill:none;stroke:#000000;stroke-width:0.625" />
<path d="M691.63,30.467L691.63,40.467" style="fill:none;stroke:#000000;stroke-width:0.625" />
<path d="M995.04,30.467L995.04,40.467" style="fill:none;stroke:#000000;stroke-width:0.625" />
<path d="M145.49,35.468L145.49,40.467" style="fill:none;stroke:#000000;stroke-width:0.625" />
<path d="M206.18,35.468L206.18,40.467" style="fill:none;stroke:#000000;stroke-width:0.625" />
<path d="M266.86,35.468L266.86,40.467" style="fill:none;stroke:#000000;stroke-width:0.625" />
<path d="M327.54,35.468L327.54,40.467" style="fill:none;stroke:#000000;stroke-width:0.625" />
<path d="M448.91,35.468L448.91,40.467" style="fill:none;stroke:#000000;stroke-width:0.625" />
<path d="M509.59,35.468L509.59,40.467" style="fill:none;stroke:#000000;stroke-width:0.625" />
<path d="M570.27,35.468L570.27,40.467" style="fill:none;stroke:#000000;stroke-width:0.625" />
<path d="M630.95,35.468L630.95,40.467" style="fill:none;stroke:#000000;stroke-width:0.625" />
<path d="M752.32,35.468L752.32,40.467" style="fill:none;stroke:#000000;stroke-width:0.625" />
<path d="M813,35.468L813,40.467" style="fill:none;stroke:#000000;stroke-width:0.625" />
<path d="M873.68,35.468L873.68,40.467" style="fill:none;stroke:#000000;stroke-width:0.625" />
<path d="M934.36,35.468L934.36,40.467" style="fill:none;stroke:#000000;stroke-width:0.625" />
<path d="M1055.7,35.468L1055.7,40.467" style="fill:none;stroke:#000000;stroke-width:0.625" />
<path d="M84.812,40.467L1080,40.467" style="fill:none;stroke:#000000;stroke-width:0.625" />
<g transform="rotate(90)">
<text x="335.88" y="13.59" transform="scale(1, -1)"
	style="font-family:Helvetica;font-weight:normal;font-style:normal;font-size:12pt">Throughput</text>
</g>
<text x="57.13" y="-41.661" transform="scale(1, -1)"
	style="font-family:Helvetica;font-weight:normal;font-style:normal;font-size:10pt">0</text>
<text x="36.28" y="-216.86" transform="scale(1, -1)"
	style="font-family:Helvetica;font-weight:normal;font-style:normal;font-size:10pt">6000</text>
<text x="18.555" y="-392.07" transform="scale(1, -1)"
	style="font-family:Helvetica;font-weight:normal;font-style:normal;font-size:10pt">1.2e+04</text>
<text x="18.555" y="-567.27" transform="scale(1, -1)"
	style="font-family:Helvetica;font-weight:normal;font-style:normal;font-size:10pt">1.8e+04</text>
<path d="M67.555,47.03L77.555,47.03" style="fill:none;stroke:#000000;stroke-width:0.625" />
<path d="M67.555,222.23L77.555,222.23" style="fill:none;stroke:#000000;stroke-width:0.625" />
<path d="M67.555,397.44L77.555,397.44" style="fill:none;stroke:#000000;stroke-width:0.625" />
<path d="M67.555,572.64L77.555,572.64" style="fill:none;stroke:#000000;stroke-width:0.625" />
<path d="M72.555,105.43L77.555,105.43" style="fill:none;stroke:#000000;stroke-width:0.625" />
<path d="M72.555,163.83L77.555,163.83" style="fill:none;stroke:#000000;stroke-width:0.625" />
<path d="M72.555,280.63L77.555,280.63" style="fill:none;stroke:#000000;stroke-width:0.625" />
<path d="M72.555,339.04L77.555,339.04" style="fill:none;stroke:#000000;stroke-width:0.625" />
<path d="M72.555,455.84L77.555,455.84" style="fill:none;stroke:#000000;stroke-width:0.625" />
<path d="M72.555,514.24L77.555,514.24" style="fill:none;stroke:#000000;stroke-width:0.625" />
<path d="M72.555,631.04L77.555,631.04" style="fill:none;stroke:#000000;stroke-width:0.625" />
<path d="M72.555,689.44L77.555,689.44" style="fill:none;stroke:#000000;stroke-width:0.625" />
<path d="M77.555,47.03L77.555,701.44" style="fill:none;stroke:#000000;stroke-width:0.625" />
<path d="M84.812,590.07L90.881,701.44L96.949,624.38L103.02,635.22L109.09,629.23L115.15,172.21L121.22,93.897L127.29,81.545L133.36,80.406L139.43,97.489L145.49,83.618L151.56,94.948L157.63,82.83L163.7,88.553L169.77,81.896L175.84,88.261L181.9,89.108L187.97,88.028L194.04,80.465L200.11,68.346L206.18,56.228L212.25,57.747L218.31,58.097L224.38,53.98L230.45,50.008L236.52,53.016L242.59,49.308L248.65,47.906L254.72,47.176L260.79,49.337L266.86,48.023L272.93,47.147L279,47.03L285.06,47.731L291.13,47.03L297.2,47.059L303.27,47.059L309.34,47.03L315.4,47.03L321.47,47.03L327.54,47.03L333.61,47.03L339.68,47.03L345.75,47.03L351.81,47.03L357.88,47.03L363.95,47.03L370.02,47.03L376.09,47.03L382.16,47.03L388.22,47.03L394.29,47.03L400.36,47.03L406.43,47.03L412.5,47.03L418.56,47.03L424.63,47.03L430.7,47.03L436.77,47.03L442.84,47.03L448.91,280.43L454.97,567.85L461.04,454.09L467.11,493.57L473.18,374.43L479.25,460.36L485.31,399.19L491.38,354.07L497.45,264.92L503.52,222.76L509.59,197.38L515.66,97.197L521.72,97.197L527.79,95.007L533.86,81.458L539.93,87.706L546,78.713L552.07,79.735L558.13,88.028L564.2,72.376L570.27,56.053L576.34,60.17L582.41,55.995L588.47,57.338L594.54,51.118L600.61,54.359L606.68,51.206L612.75,47.76L618.82,50.008L624.88,48.432L630.95,48.373L637.02,48.402L643.09,48.227L649.16,47.205L655.22,47.03L661.29,47.147L667.36,48.081L673.43,47.118L679.5,47.38L685.57,47.147L691.63,47.205L697.7,47.03L703.77,47.03L709.84,47.03L715.91,47.03L721.98,47.03L728.04,47.03L734.11,47.03L740.18,47.03L746.25,47.03L752.32,47.03L758.38,47.03L764.45,47.03L770.52,47.03L776.59,47.03L782.66,47.03L788.73,47.03L794.79,47.03L800.86,47.03L806.93,47.03L813,127.59L819.07,506.65L825.13,349.93L831.2,328.29L837.27,370.63L843.34,234.09L849.41,312.11L855.48,243.73L861.54,330.89L867.61,327.91L873.68,349.02L879.75,194.93L885.82,341.55L891.89,223.49L897.95,116.26L904.02,102.57L910.09,70.04L916.16,54.856L922.23,68.989L928.29,96.408L934.36,95.97L940.43,90.364L946.5,79.151L952.57,58.652L958.64,47.118L964.7,47.76L970.77,69.923L976.84,66.39L982.91,71.442L988.98,75.238L995.04,65.339L1001.1,66.448L1007.2,63.412L1013.2,55.381L1019.3,54.126L1025.4,48.256L1031.5,48.286L1037.5,47.585L1043.6,48.373L1049.7,47.614L1055.7,47.264L1061.8,47.585L1067.9,47.585L1073.9,47.264L1080,47.205" style="fill:none;stroke:#F15A60;stroke-width:1.875" />
<path d="M1055,694.3L1080,694.3" style="fill:none;stroke:#F15A60;stroke-width:1.875" />
<text x="1002.5" y="-687.85" transform="scale(1, -1)"
	style="font-family:Helvetica;font-weight:normal;font-style:normal;font-size:12pt">etcd v2</text>
</g>
</svg>
