<?xml version="1.0"?>
<!-- Generated by SVGo and Plotinum VG -->
<svg width="12in" height="8in"
	xmlns="http://www.w3.org/2000/svg"
	xmlns:xlink="http://www.w3.org/1999/xlink">
<g transform="scale(1, -1) translate(0, -720)">
<path d="M0,0L1080,0L1080,720L0,720Z" style="fill:#FFFFFF" />
<text x="230.72" y="-706.41" transform="scale(1, -1)"
	style="font-family:Helvetica;font-weight:normal;font-style:normal;font-size:12pt">Write 2M keys, 1000-client, 8-byte key, 256-byte value (etcd v2, Test 1), Latency(millisecond)</text>
<text x="548.11" y="-4.965" transform="scale(1, -1)"
	style="font-family:Helvetica;font-weight:normal;font-style:normal;font-size:12pt">Second</text>
<text x="63.613" y="-19.142" transform="scale(1, -1)"
	style="font-family:Helvetica;font-weight:normal;font-style:normal;font-size:10pt">0</text>
<text x="374.22" y="-19.142" transform="scale(1, -1)"
	style="font-family:Helvetica;font-weight:normal;font-style:normal;font-size:10pt">80</text>
<text x="684.83" y="-19.142" transform="scale(1, -1)"
	style="font-family:Helvetica;font-weight:normal;font-style:normal;font-size:10pt">160</text>
<text x="998.91" y="-19.142" transform="scale(1, -1)"
	style="font-family:Helvetica;font-weight:normal;font-style:normal;font-size:10pt">240</text>
<path d="M67.088,30.467L67.088,40.467" style="fill:none;stroke:#000000;stroke-width:0.625" />
<path d="M381.17,30.467L381.17,40.467" style="fill:none;stroke:#000000;stroke-width:0.625" />
<path d="M695.25,30.467L695.25,40.467" style="fill:none;stroke:#000000;stroke-width:0.625" />
<path d="M1009.3,30.467L1009.3,40.467" style="fill:none;stroke:#000000;stroke-width:0.625" />
<path d="M224.13,35.468L224.13,40.467" style="fill:none;stroke:#000000;stroke-width:0.625" />
<path d="M538.21,35.468L538.21,40.467" style="fill:none;stroke:#000000;stroke-width:0.625" />
<path d="M852.29,35.468L852.29,40.467" style="fill:none;stroke:#000000;stroke-width:0.625" />
<path d="M67.088,40.467L1080,40.467" style="fill:none;stroke:#000000;stroke-width:0.625" />
<g transform="rotate(90)">
<text x="305.89" y="13.59" transform="scale(1, -1)"
	style="font-family:Helvetica;font-weight:normal;font-style:normal;font-size:12pt">Latency(millisecond)</text>
</g>
<text x="39.405" y="-41.661" transform="scale(1, -1)"
	style="font-family:Helvetica;font-weight:normal;font-style:normal;font-size:10pt">0</text>
<text x="18.555" y="-234.47" transform="scale(1, -1)"
	style="font-family:Helvetica;font-weight:normal;font-style:normal;font-size:10pt">1000</text>
<text x="18.555" y="-427.27" transform="scale(1, -1)"
	style="font-family:Helvetica;font-weight:normal;font-style:normal;font-size:10pt">2000</text>
<text x="18.555" y="-620.08" transform="scale(1, -1)"
	style="font-family:Helvetica;font-weight:normal;font-style:normal;font-size:10pt">3000</text>
<path d="M49.83,47.03L59.83,47.03" style="fill:none;stroke:#000000;stroke-width:0.625" />
<path d="M49.83,239.84L59.83,239.84" style="fill:none;stroke:#000000;stroke-width:0.625" />
<path d="M49.83,432.64L59.83,432.64" style="fill:none;stroke:#000000;stroke-width:0.625" />
<path d="M49.83,625.45L59.83,625.45" style="fill:none;stroke:#000000;stroke-width:0.625" />
<path d="M54.83,143.43L59.83,143.43" style="fill:none;stroke:#000000;stroke-width:0.625" />
<path d="M54.83,336.24L59.83,336.24" style="fill:none;stroke:#000000;stroke-width:0.625" />
<path d="M54.83,529.05L59.83,529.05" style="fill:none;stroke:#000000;stroke-width:0.625" />
<path d="M59.83,47.03L59.83,701.44" style="fill:none;stroke:#000000;stroke-width:0.625" />
<path d="M67.088,54.067L71.014,53.972L74.94,55.159L78.866,56.476L82.792,56.818L86.718,60.984L90.644,119.98L94.57,140.45L98.496,132.26L102.42,109.97L106.35,143.82L110.27,134.86L114.2,142.81L118.13,124.39L122.05,119.18L125.98,141.19L129.9,104.17L133.83,123.98L137.76,116.21L141.68,133.8L145.61,81.134L149.53,207.89L153.46,218.05L157.39,172.62L161.31,85.706L165.24,76.652L169.16,190.97L173.09,96.085L177.02,436.21L180.94,47.03L184.87,47.03L188.79,47.03L192.72,47.03L196.65,47.03L200.57,47.03L204.5,47.03L208.42,47.03L212.35,47.03L216.28,47.03L220.2,47.03L224.13,47.03L228.05,47.03L231.98,47.03L235.91,47.03L239.83,47.03L243.76,47.03L247.68,47.03L251.61,47.03L255.54,47.03L259.46,47.03L263.39,47.03L267.31,47.03L271.24,47.03L275.17,47.03L279.09,47.03L283.02,47.03L286.94,47.03L290.87,47.03L294.8,47.03L298.72,47.03L302.65,80.466L306.57,56.949L310.5,58.165L314.43,60.678L318.35,60.138L322.28,61.897L326.2,62.068L330.13,63.092L334.06,65.994L337.98,78.373L341.91,133.08L345.83,135.98L349.76,115.04L353.69,114.49L357.61,139.42L361.54,122.82L365.46,107.51L369.39,130.25L373.32,125.48L377.24,154.34L381.17,132.57L385.09,165.73L389.02,144.21L392.95,166.46L396.87,148.27L400.8,236.66L404.73,349.04L408.65,299.87L412.58,104.61L416.5,217.03L420.43,76.1L424.36,111.29L428.28,60.325L432.21,292.49L436.13,47.03L440.06,543.47L443.99,47.03L447.91,47.03L451.84,47.03L455.76,47.03L459.69,47.03L463.62,47.03L467.54,47.03L471.47,47.03L475.39,47.03L479.32,47.03L483.25,47.03L487.17,47.03L491.1,47.03L495.02,47.03L498.95,47.03L502.88,47.03L506.8,47.03L510.73,47.03L514.65,47.03L518.58,47.03L522.51,47.03L526.43,47.03L530.36,47.03L534.28,47.03L538.21,75.667L542.14,58.041L546.06,64.786L549.99,65.765L553.91,64.387L557.84,65.865L561.77,66.911L565.69,68.272L569.62,69.797L573.54,73.632L577.47,68.533L581.4,63.232L585.32,85.793L589.25,136.62L593.17,125.44L597.1,132.92L601.03,105.03L604.95,104.99L608.88,139.8L612.8,133.1L616.73,171.69L620.66,111.11L624.58,113.57L628.51,145.62L632.43,196.82L636.36,188.27L640.29,233.79L644.21,187.91L648.14,139.56L652.06,140.65L655.99,102.92L659.92,211.85L663.84,175.77L667.77,147.62L671.69,184.85L675.62,187.51L679.55,176.71L683.47,159.45L687.4,130.28L691.32,157.48L695.25,139.93L699.18,171.53L703.1,143.45L707.03,122.24L710.95,133L714.88,174.16L718.81,106.44L722.73,135.72L726.66,152.98L730.58,47.03L734.51,47.03L738.44,47.03L742.36,701.44L746.29,47.03L750.21,47.03L754.14,47.03L758.07,47.03L761.99,47.03L765.92,47.03L769.84,47.03L773.77,64.639L777.7,77.733L781.62,59.741L785.55,63.78L789.47,74.8L793.4,72.938L797.33,68.455L801.25,73.1L805.18,57.533L809.1,62.409L813.03,118.67L816.96,73.064L820.88,73.109L824.81,72.967L828.73,62.21L832.66,146.07L836.59,118.7L840.51,179.9L844.44,151.45L848.36,182.34L852.29,199.13L856.22,239.21L860.14,214.71L864.07,211.58L868,266.01L871.92,47.03L875.85,47.03L879.77,47.03L883.7,47.03L887.63,122.98L891.55,121.47L895.48,78.061L899.4,106.82L903.33,102.84L907.26,161.39L911.18,120.23L915.11,100.18L919.03,130.28L922.96,92.334L926.89,121.58L930.81,95.925L934.74,90.306L938.66,75.326L942.59,113.36L946.52,120.37L950.44,147.14L954.37,177.03L958.29,203.18L962.22,224.6L966.15,160.17L970.07,167.96L974,229.73L977.92,147.78L981.85,311.26L985.78,229.9L989.7,216.07L993.63,173.93L997.55,287.13L1001.5,129.33L1005.4,198.92L1009.3,184.79L1013.3,75.608L1017.2,62.67L1021.1,68.609L1025,67.794L1029,98.531L1032.9,65.314L1036.8,114.66L1040.7,58.32L1044.7,61.195L1048.6,83.582L1052.5,60.841L1056.4,76.17L1060.4,67.386L1064.3,79.75L1068.2,133.43L1072.1,70.082L1076.1,106.51L1080,221.81" style="fill:none;stroke:#F15A60;stroke-width:1.875" />
<path d="M1055,694.3L1080,694.3" style="fill:none;stroke:#F15A60;stroke-width:1.875" />
<text x="1002.5" y="-687.85" transform="scale(1, -1)"
	style="font-family:Helvetica;font-weight:normal;font-style:normal;font-size:12pt">etcd v2</text>
</g>
</svg>
