<?xml version="1.0"?>
<!-- Generated by SVGo and Plotinum VG -->
<svg width="12in" height="8in"
	xmlns="http://www.w3.org/2000/svg"
	xmlns:xlink="http://www.w3.org/1999/xlink">
<g transform="scale(1, -1) translate(0, -720)">
<path d="M0,0L1080,0L1080,720L0,720Z" style="fill:#FFFFFF" />
<text x="255.74" y="-706.41" transform="scale(1, -1)"
	style="font-family:Helvetica;font-weight:normal;font-style:normal;font-size:12pt">Write 2M keys, 1000-client, 8-byte key, 256-byte value (etcd v2, Test 1), Memory(MB)</text>
<text x="548.11" y="-4.965" transform="scale(1, -1)"
	style="font-family:Helvetica;font-weight:normal;font-style:normal;font-size:12pt">Second</text>
<text x="63.613" y="-19.142" transform="scale(1, -1)"
	style="font-family:Helvetica;font-weight:normal;font-style:normal;font-size:10pt">0</text>
<text x="375.44" y="-19.142" transform="scale(1, -1)"
	style="font-family:Helvetica;font-weight:normal;font-style:normal;font-size:10pt">80</text>
<text x="687.27" y="-19.142" transform="scale(1, -1)"
	style="font-family:Helvetica;font-weight:normal;font-style:normal;font-size:10pt">160</text>
<text x="1002.6" y="-19.142" transform="scale(1, -1)"
	style="font-family:Helvetica;font-weight:normal;font-style:normal;font-size:10pt">240</text>
<path d="M67.088,30.467L67.088,40.467" style="fill:none;stroke:#000000;stroke-width:0.625" />
<path d="M382.39,30.467L382.39,40.467" style="fill:none;stroke:#000000;stroke-width:0.625" />
<path d="M697.69,30.467L697.69,40.467" style="fill:none;stroke:#000000;stroke-width:0.625" />
<path d="M1013,30.467L1013,40.467" style="fill:none;stroke:#000000;stroke-width:0.625" />
<path d="M224.74,35.468L224.74,40.467" style="fill:none;stroke:#000000;stroke-width:0.625" />
<path d="M540.04,35.468L540.04,40.467" style="fill:none;stroke:#000000;stroke-width:0.625" />
<path d="M855.35,35.468L855.35,40.467" style="fill:none;stroke:#000000;stroke-width:0.625" />
<path d="M67.088,40.467L1080,40.467" style="fill:none;stroke:#000000;stroke-width:0.625" />
<g transform="rotate(90)">
<text x="330.91" y="13.59" transform="scale(1, -1)"
	style="font-family:Helvetica;font-weight:normal;font-style:normal;font-size:12pt">Memory(MB)</text>
</g>
<text x="18.555" y="-219.57" transform="scale(1, -1)"
	style="font-family:Helvetica;font-weight:normal;font-style:normal;font-size:10pt">1000</text>
<text x="18.555" y="-401.19" transform="scale(1, -1)"
	style="font-family:Helvetica;font-weight:normal;font-style:normal;font-size:10pt">2000</text>
<text x="18.555" y="-582.81" transform="scale(1, -1)"
	style="font-family:Helvetica;font-weight:normal;font-style:normal;font-size:10pt">3000</text>
<path d="M49.83,224.94L59.83,224.94" style="fill:none;stroke:#000000;stroke-width:0.625" />
<path d="M49.83,406.56L59.83,406.56" style="fill:none;stroke:#000000;stroke-width:0.625" />
<path d="M49.83,588.18L59.83,588.18" style="fill:none;stroke:#000000;stroke-width:0.625" />
<path d="M54.83,134.13L59.83,134.13" style="fill:none;stroke:#000000;stroke-width:0.625" />
<path d="M54.83,315.75L59.83,315.75" style="fill:none;stroke:#000000;stroke-width:0.625" />
<path d="M54.83,497.37L59.83,497.37" style="fill:none;stroke:#000000;stroke-width:0.625" />
<path d="M54.83,678.99L59.83,678.99" style="fill:none;stroke:#000000;stroke-width:0.625" />
<path d="M59.83,47.03L59.83,701.44" style="fill:none;stroke:#000000;stroke-width:0.625" />
<path d="M67.088,47.03L71.029,65.713L74.97,77.291L78.911,92.968L82.853,110.57L86.794,119.09L90.735,139.47L94.677,139.47L98.618,139.47L102.56,139.47L106.5,139.54L110.44,147.55L114.38,147.55L118.32,147.55L122.27,147.55L126.21,147.55L130.15,147.56L134.09,147.6L138.03,158.68L141.97,158.68L145.91,158.68L149.85,158.68L153.8,158.68L157.74,158.68L161.68,159.06L165.62,159.06L169.56,159.06L173.5,159.06L177.44,159.06L181.39,159.06L185.33,159.06L189.27,159.06L193.21,159.06L197.15,159.06L201.09,159.11L205.03,159.11L208.97,159.11L212.92,159.11L216.86,159.11L220.8,159.11L224.74,159.11L228.68,159.11L232.62,159.11L236.56,159.11L240.5,159.11L244.45,159.11L248.39,159.11L252.33,159.11L256.27,159.11L260.21,159.11L264.15,159.11L268.09,159.2L272.03,159.2L275.98,159.2L279.92,159.2L283.86,159.2L287.8,159.2L291.74,159.2L295.68,159.2L299.62,159.2L303.57,159.2L307.51,159.51L311.45,166.07L315.39,185.87L319.33,197.73L323.27,215.31L327.21,240.67L331.15,250.69L335.1,295.06L339.04,332.61L342.98,343.98L346.92,350.14L350.86,351.51L354.8,351.51L358.74,351.51L362.68,351.51L366.63,351.51L370.57,351.51L374.51,351.55L378.45,351.56L382.39,355.41L386.33,358.15L390.27,358.15L394.21,358.15L398.16,358.15L402.1,358.15L406.04,358.15L409.98,358.15L413.92,358.15L417.86,358.15L421.8,358.15L425.75,358.15L429.69,358.15L433.63,358.15L437.57,358.15L441.51,358.15L445.45,358.15L449.39,358.15L453.33,358.15L457.28,358.15L461.22,358.15L465.16,358.15L469.1,358.15L473.04,358.15L476.98,358.15L480.92,358.15L484.86,358.15L488.81,358.15L492.75,358.15L496.69,358.15L500.63,358.15L504.57,358.15L508.51,358.15L512.45,358.15L516.39,358.15L520.34,358.15L524.28,358.15L528.22,358.15L532.16,358.15L536.1,358.15L540.04,358.15L543.98,358.15L547.93,358.86L551.87,358.86L555.81,363.92L559.75,364.35L563.69,388.39L567.63,393.77L571.57,407.88L575.51,408.59L579.46,421.82L583.4,429.75L587.34,429.79L591.28,465.17L595.22,481.72L599.16,491.41L603.1,491.41L607.04,491.42L610.99,491.42L614.93,491.42L618.87,491.42L622.81,491.42L626.75,491.42L630.69,491.42L634.63,491.42L638.58,491.42L642.52,491.42L646.46,491.42L650.4,491.42L654.34,491.42L658.28,491.42L662.22,491.42L666.16,491.42L670.11,491.42L674.05,491.42L677.99,491.42L681.93,491.42L685.87,491.42L689.81,491.42L693.75,491.42L697.69,491.42L701.64,491.42L705.58,491.42L709.52,491.42L713.46,491.42L717.4,491.42L721.34,491.42L725.28,491.42L729.22,491.42L733.17,491.42L737.11,491.42L741.05,491.42L744.99,491.42L748.93,491.42L752.87,491.42L756.81,491.42L760.76,491.42L764.7,491.42L768.64,491.42L772.58,491.42L776.52,491.42L780.46,491.42L784.4,491.42L788.34,491.45L792.29,491.46L796.23,491.48L800.17,491.51L804.11,491.54L808.05,501.55L811.99,551.52L815.93,551.54L819.87,577.36L823.82,589.61L827.76,620.89L831.7,627.76L835.64,627.9L839.58,660.89L843.52,676.04L847.46,700.24L851.4,700.24L855.35,700.24L859.29,700.24L863.23,700.24L867.17,700.24L871.11,700.24L875.05,700.26L878.99,700.26L882.94,700.26L886.88,700.26L890.82,700.26L894.76,700.26L898.7,700.26L902.64,700.26L906.58,700.26L910.52,700.26L914.47,700.26L918.41,700.26L922.35,700.26L926.29,700.26L930.23,700.26L934.17,700.26L938.11,700.26L942.05,700.26L946,700.26L949.94,700.26L953.88,700.26L957.82,700.26L961.76,700.26L965.7,700.26L969.64,700.26L973.59,700.26L977.53,700.26L981.47,700.26L985.41,700.26L989.35,700.26L993.29,700.26L997.23,700.26L1001.2,700.26L1005.1,700.26L1009.1,700.26L1013,700.26L1016.9,700.26L1020.9,700.26L1024.8,700.26L1028.8,700.26L1032.7,700.29L1036.6,700.33L1040.6,700.61L1044.5,700.62L1048.5,701.02L1052.4,701.17L1056.4,701.19L1060.3,701.24L1064.2,701.24L1068.2,701.28L1072.1,701.31L1076.1,701.31L1080,701.44" style="fill:none;stroke:#F15A60;stroke-width:1.875" />
<path d="M1055,694.3L1080,694.3" style="fill:none;stroke:#F15A60;stroke-width:1.875" />
<text x="1002.5" y="-687.85" transform="scale(1, -1)"
	style="font-family:Helvetica;font-weight:normal;font-style:normal;font-size:12pt">etcd v2</text>
</g>
</svg>
