<?xml version="1.0"?>
<!-- Generated by SVGo and Plotinum VG -->
<svg width="12in" height="8in"
	xmlns="http://www.w3.org/2000/svg"
	xmlns:xlink="http://www.w3.org/1999/xlink">
<g transform="scale(1, -1) translate(0, -720)">
<path d="M0,0L1080,0L1080,720L0,720Z" style="fill:#FFFFFF" />
<text x="283.24" y="-706.41" transform="scale(1, -1)"
	style="font-family:Helvetica;font-weight:normal;font-style:normal;font-size:12pt">Write 2M keys, 1000-client, 8-byte key, 256-byte value (etcd v2, Test 1), CPU</text>
<text x="544.64" y="-4.965" transform="scale(1, -1)"
	style="font-family:Helvetica;font-weight:normal;font-style:normal;font-size:12pt">Second</text>
<text x="56.662" y="-19.142" transform="scale(1, -1)"
	style="font-family:Helvetica;font-weight:normal;font-style:normal;font-size:10pt">0</text>
<text x="370.65" y="-19.142" transform="scale(1, -1)"
	style="font-family:Helvetica;font-weight:normal;font-style:normal;font-size:10pt">80</text>
<text x="684.65" y="-19.142" transform="scale(1, -1)"
	style="font-family:Helvetica;font-weight:normal;font-style:normal;font-size:10pt">160</text>
<text x="1002.1" y="-19.142" transform="scale(1, -1)"
	style="font-family:Helvetica;font-weight:normal;font-style:normal;font-size:10pt">240</text>
<path d="M60.137,30.467L60.137,40.467" style="fill:none;stroke:#000000;stroke-width:0.625" />
<path d="M377.6,30.467L377.6,40.467" style="fill:none;stroke:#000000;stroke-width:0.625" />
<path d="M695.07,30.467L695.07,40.467" style="fill:none;stroke:#000000;stroke-width:0.625" />
<path d="M1012.5,30.467L1012.5,40.467" style="fill:none;stroke:#000000;stroke-width:0.625" />
<path d="M218.87,35.468L218.87,40.467" style="fill:none;stroke:#000000;stroke-width:0.625" />
<path d="M536.34,35.468L536.34,40.467" style="fill:none;stroke:#000000;stroke-width:0.625" />
<path d="M853.8,35.468L853.8,40.467" style="fill:none;stroke:#000000;stroke-width:0.625" />
<path d="M60.137,40.467L1080,40.467" style="fill:none;stroke:#000000;stroke-width:0.625" />
<g transform="rotate(90)">
<text x="358.4" y="13.59" transform="scale(1, -1)"
	style="font-family:Helvetica;font-weight:normal;font-style:normal;font-size:12pt">CPU</text>
</g>
<text x="25.505" y="-239.6" transform="scale(1, -1)"
	style="font-family:Helvetica;font-weight:normal;font-style:normal;font-size:10pt">60</text>
<text x="18.555" y="-445.99" transform="scale(1, -1)"
	style="font-family:Helvetica;font-weight:normal;font-style:normal;font-size:10pt">120</text>
<text x="18.555" y="-652.39" transform="scale(1, -1)"
	style="font-family:Helvetica;font-weight:normal;font-style:normal;font-size:10pt">180</text>
<path d="M42.88,244.96L52.88,244.96" style="fill:none;stroke:#000000;stroke-width:0.625" />
<path d="M42.88,451.36L52.88,451.36" style="fill:none;stroke:#000000;stroke-width:0.625" />
<path d="M42.88,657.76L52.88,657.76" style="fill:none;stroke:#000000;stroke-width:0.625" />
<path d="M47.88,107.37L52.88,107.37" style="fill:none;stroke:#000000;stroke-width:0.625" />
<path d="M47.88,176.17L52.88,176.17" style="fill:none;stroke:#000000;stroke-width:0.625" />
<path d="M47.88,313.76L52.88,313.76" style="fill:none;stroke:#000000;stroke-width:0.625" />
<path d="M47.88,382.56L52.88,382.56" style="fill:none;stroke:#000000;stroke-width:0.625" />
<path d="M47.88,520.16L52.88,520.16" style="fill:none;stroke:#000000;stroke-width:0.625" />
<path d="M47.88,588.96L52.88,588.96" style="fill:none;stroke:#000000;stroke-width:0.625" />
<path d="M52.88,47.03L52.88,701.44" style="fill:none;stroke:#000000;stroke-width:0.625" />
<path d="M60.137,47.03L64.106,221.74L68.074,368.56L72.043,488.1L76.011,596.01L79.979,687.31L83.948,701.44L87.916,668.08L91.884,639.22L95.853,615.58L99.821,609.67L103.79,601.27L107.76,582.53L111.73,563.16L115.69,547.2L119.66,533.44L123.63,522.53L127.6,516.55L131.57,519.85L135.54,507.78L139.5,493.23L143.47,478.57L147.44,465.74L151.41,452.29L155.38,439.84L159.35,427.69L163.31,416.24L167.28,405.47L171.25,395.29L175.22,385.45L179.19,376.16L183.16,367.43L187.12,359.24L191.09,351.29L195.06,343.73L199.03,336.6L203,329.83L206.97,323.33L210.93,317.07L214.9,311.11L218.87,305.51L222.84,300L226.81,294.77L230.78,289.72L234.74,284.9L238.71,280.26L242.68,275.82L246.65,271.49L250.62,267.39L254.59,263.37L258.55,259.55L262.52,255.8L266.49,252.19L270.46,248.75L274.43,245.34L278.4,242.11L282.36,238.98L286.33,235.92L290.3,232.96L294.27,230.1L298.24,227.32L302.21,241.21L306.17,262.99L310.14,286.48L314.11,309.26L318.08,332.24L322.05,354.05L326.02,376.37L329.98,397.46L333.95,414.35L337.92,424.29L341.89,426.04L345.86,429.66L349.83,431.07L353.79,431.34L357.76,429.72L361.73,427.8L365.7,425.94L369.67,424.39L373.64,425.63L377.6,428.38L381.57,427.32L385.54,425.05L389.51,422.19L393.48,418.82L397.45,415.17L401.41,411.29L405.38,407.5L409.35,403.96L413.32,400.21L417.29,396.6L421.26,392.99L425.22,389.61L429.19,386.17L433.16,382.77L437.13,379.47L441.1,376.2L445.07,373L449.03,369.9L453,366.84L456.97,363.81L460.94,360.86L464.91,357.97L468.88,355.11L472.84,352.29L476.81,349.54L480.78,346.86L484.75,344.21L488.72,341.59L492.69,339.01L496.65,336.5L500.62,334.02L504.59,331.62L508.56,329.24L512.53,326.87L516.5,324.56L520.46,322.26L524.43,320.02L528.4,317.82L532.37,315.66L536.34,313.63L540.31,318.85L544.27,327.42L548.24,339.01L552.21,351.47L556.18,363.95L560.15,377.37L564.12,390.75L568.08,403.55L572.05,415.55L576.02,428.04L579.99,441.49L583.96,452.67L587.93,459.55L591.89,464.57L595.86,465.84L599.83,467.15L603.8,468.66L607.77,469.56L611.74,469.9L615.7,468.42L619.67,466.57L623.64,464.81L627.61,463.5L631.58,462.64L635.55,461.2L639.51,460.06L643.48,460.17L647.45,459.34L651.42,457.31L655.39,456.45L659.36,455.76L663.32,454.29L667.29,452.91L671.26,450.85L675.23,448.71L679.2,446.61L683.17,444.48L687.13,442.31L691.1,440.25L695.07,438.25L699.04,436.26L703.01,434.33L706.98,432.44L710.94,430.45L714.91,428.45L718.88,426.39L722.85,424.77L726.82,423.29L730.79,422.4L734.75,420.85L738.72,418.72L742.69,416.62L746.66,414.55L750.63,412.52L754.6,410.49L758.56,408.84L762.53,407.16L766.5,405.2L770.47,403.24L774.44,401.31L778.41,400L782.37,401.52L786.34,405.88L790.31,413.49L794.28,421.67L798.25,429.41L802.22,438.77L806.18,447.96L810.15,456.9L814.12,466.05L818.09,474.62L822.06,483.15L826.03,490.58L829.99,497.94L833.96,506.43L837.93,512.49L841.9,518.65L845.87,523.5L849.84,526.18L853.8,529.28L857.77,529L861.74,530.1L865.71,530L869.68,529.69L873.65,526.66L877.61,524.32L881.58,522.4L885.55,520.88L889.52,519.3L893.49,517.75L897.46,516.03L901.42,514.55L905.39,513.38L909.36,512.28L913.33,511.7L917.3,511.35L921.27,510.42L925.23,509.43L929.2,508.5L933.17,507.16L937.14,505.92L941.11,504.34L945.08,503.92L949.04,504.06L953.01,505.61L956.98,505.99L960.95,507.91L964.92,507.64L968.89,506.57L972.85,505.99L976.82,504.4L980.79,502.58L984.76,500.76L988.73,498.8L992.7,496.94L996.66,495.25L1000.6,493.29L1004.6,491.37L1008.6,489.61L1012.5,487.79L1016.5,487.41L1020.5,489.06L1024.4,492.95L1028.4,496.67L1032.4,500.76L1036.3,504.75L1040.3,509.05L1044.3,512.42L1048.3,517.65L1052.2,520.23L1056.2,525.63L1060.2,530.51L1064.1,535.05L1068.1,538.8L1072.1,544.82L1076,549.61L1080,555.83" style="fill:none;stroke:#F15A60;stroke-width:1.875" />
<path d="M1055,694.3L1080,694.3" style="fill:none;stroke:#F15A60;stroke-width:1.875" />
<text x="1002.5" y="-687.85" transform="scale(1, -1)"
	style="font-family:Helvetica;font-weight:normal;font-style:normal;font-size:12pt">etcd v2</text>
</g>
</svg>
