<?xml version="1.0"?>
<!-- Generated by SVGo and Plotinum VG -->
<svg width="12in" height="8in"
	xmlns="http://www.w3.org/2000/svg"
	xmlns:xlink="http://www.w3.org/1999/xlink">
<g transform="scale(1, -1) translate(0, -720)">
<path d="M0,0L1080,0L1080,720L0,720Z" style="fill:#FFFFFF" />
<text x="260.72" y="-706.41" transform="scale(1, -1)"
	style="font-family:Helvetica;font-weight:normal;font-style:normal;font-size:12pt">Write 2M keys, 1000-client, 8-byte key, 256-byte value (etcd v2, Test 1), Throughput</text>
<text x="556.97" y="-4.965" transform="scale(1, -1)"
	style="font-family:Helvetica;font-weight:normal;font-style:normal;font-size:12pt">Second</text>
<text x="81.337" y="-19.142" transform="scale(1, -1)"
	style="font-family:Helvetica;font-weight:normal;font-style:normal;font-size:10pt">0</text>
<text x="386.45" y="-19.142" transform="scale(1, -1)"
	style="font-family:Helvetica;font-weight:normal;font-style:normal;font-size:10pt">80</text>
<text x="691.56" y="-19.142" transform="scale(1, -1)"
	style="font-family:Helvetica;font-weight:normal;font-style:normal;font-size:10pt">160</text>
<text x="1000.1" y="-19.142" transform="scale(1, -1)"
	style="font-family:Helvetica;font-weight:normal;font-style:normal;font-size:10pt">240</text>
<path d="M84.812,30.467L84.812,40.467" style="fill:none;stroke:#000000;stroke-width:0.625" />
<path d="M393.4,30.467L393.4,40.467" style="fill:none;stroke:#000000;stroke-width:0.625" />
<path d="M701.98,30.467L701.98,40.467" style="fill:none;stroke:#000000;stroke-width:0.625" />
<path d="M1010.6,30.467L1010.6,40.467" style="fill:none;stroke:#000000;stroke-width:0.625" />
<path d="M239.11,35.468L239.11,40.467" style="fill:none;stroke:#000000;stroke-width:0.625" />
<path d="M547.69,35.468L547.69,40.467" style="fill:none;stroke:#000000;stroke-width:0.625" />
<path d="M856.28,35.468L856.28,40.467" style="fill:none;stroke:#000000;stroke-width:0.625" />
<path d="M84.812,40.467L1080,40.467" style="fill:none;stroke:#000000;stroke-width:0.625" />
<g transform="rotate(90)">
<text x="335.88" y="13.59" transform="scale(1, -1)"
	style="font-family:Helvetica;font-weight:normal;font-style:normal;font-size:12pt">Throughput</text>
</g>
<text x="57.13" y="-41.661" transform="scale(1, -1)"
	style="font-family:Helvetica;font-weight:normal;font-style:normal;font-size:10pt">0</text>
<text x="36.28" y="-250.39" transform="scale(1, -1)"
	style="font-family:Helvetica;font-weight:normal;font-style:normal;font-size:10pt">8000</text>
<text x="18.555" y="-459.12" transform="scale(1, -1)"
	style="font-family:Helvetica;font-weight:normal;font-style:normal;font-size:10pt">1.6e+04</text>
<text x="18.555" y="-667.85" transform="scale(1, -1)"
	style="font-family:Helvetica;font-weight:normal;font-style:normal;font-size:10pt">2.4e+04</text>
<path d="M67.555,47.03L77.555,47.03" style="fill:none;stroke:#000000;stroke-width:0.625" />
<path d="M67.555,255.76L77.555,255.76" style="fill:none;stroke:#000000;stroke-width:0.625" />
<path d="M67.555,464.49L77.555,464.49" style="fill:none;stroke:#000000;stroke-width:0.625" />
<path d="M67.555,673.21L77.555,673.21" style="fill:none;stroke:#000000;stroke-width:0.625" />
<path d="M72.555,151.39L77.555,151.39" style="fill:none;stroke:#000000;stroke-width:0.625" />
<path d="M72.555,360.12L77.555,360.12" style="fill:none;stroke:#000000;stroke-width:0.625" />
<path d="M72.555,568.85L77.555,568.85" style="fill:none;stroke:#000000;stroke-width:0.625" />
<path d="M77.555,47.03L77.555,701.44" style="fill:none;stroke:#000000;stroke-width:0.625" />
<path d="M84.812,363.8L88.67,701.44L92.527,573.36L96.384,528.57L100.24,553.64L104.1,299.3L107.96,83.688L111.81,83.349L115.67,91.15L119.53,93.707L123.39,75.365L127.24,85.41L131.1,82.592L134.96,74.269L138.81,86.48L142.67,78.444L146.53,95.298L150.39,78.757L154.24,85.619L158.1,58.197L161.96,52.822L165.82,48.882L169.67,53.97L173.53,48.595L177.39,47.813L181.25,47.421L185.1,47.108L188.96,47.552L192.82,47.056L196.67,47.03L200.53,47.03L204.39,47.03L208.25,47.03L212.1,47.03L215.96,47.03L219.82,47.03L223.68,47.03L227.53,47.03L231.39,47.03L235.25,47.03L239.11,47.03L242.96,47.03L246.82,47.03L250.68,47.03L254.53,47.03L258.39,47.03L262.25,47.03L266.11,47.03L269.96,47.03L273.82,47.03L277.68,47.03L281.54,47.03L285.39,47.03L289.25,47.03L293.11,47.03L296.96,47.03L300.82,47.03L304.68,47.03L308.54,47.03L312.39,47.03L316.25,163.76L320.11,507.67L323.97,428.61L327.82,434.3L331.68,409.72L335.54,351.54L339.4,374.5L343.25,353.39L347.11,262.15L350.97,194.68L354.82,85.932L358.68,84.184L362.54,86.167L366.4,81.34L370.25,78.992L374.11,81.888L377.97,85.619L381.83,86.688L385.68,87.941L389.54,73.121L393.4,63.206L397.26,59.084L401.11,82.749L404.97,53.266L408.83,53.187L412.68,49.874L416.54,48.987L420.4,47.63L424.26,48.439L428.11,47.082L431.97,47.291L435.83,47.16L439.69,47.656L443.54,47.056L447.4,47.03L451.26,47.056L455.11,47.03L458.97,47.03L462.83,47.03L466.69,47.03L470.54,47.03L474.4,47.03L478.26,47.03L482.12,47.03L485.97,47.03L489.83,47.03L493.69,47.03L497.55,47.03L501.4,47.03L505.26,47.03L509.12,47.03L512.97,47.03L516.83,47.03L520.69,47.03L524.55,47.03L528.4,47.03L532.26,47.03L536.12,47.03L539.98,47.03L543.83,47.03L547.69,92.324L551.55,404.37L555.41,313.29L559.26,296.88L563.12,317.36L566.98,309.01L570.83,306.9L574.69,294.29L578.55,262.83L582.41,253.72L586.26,246.08L590.12,236.27L593.98,189.33L597.84,76.382L601.69,83.453L605.55,85.775L609.41,87.602L613.26,95.898L617.12,77.139L620.98,76.565L624.84,60.467L628.69,78.052L632.55,71.269L636.41,68.92L640.27,59.423L644.12,55.927L647.98,47.082L651.84,47.865L655.7,58.38L659.55,81.47L663.41,60.728L667.27,59.293L671.12,54.362L674.98,56.553L678.84,54.649L682.7,52.9L686.55,56.397L690.41,49.587L694.27,50.839L698.13,54.518L701.98,52.248L705.84,52.326L709.7,56.449L713.55,52.013L717.41,50.396L721.27,51.387L725.13,49.509L728.98,47.317L732.84,47.761L736.7,47.03L740.56,47.03L744.41,47.03L748.27,47.056L752.13,47.03L755.99,47.03L759.84,47.03L763.7,47.03L767.56,47.03L771.41,47.03L775.27,47.03L779.13,55.797L782.99,200.94L786.84,412.04L790.7,274.15L794.56,203.63L798.42,233.4L802.27,291.4L806.13,104.61L809.99,244.25L813.85,260.45L817.7,73.565L821.56,232.12L825.42,251.22L829.27,177.46L833.13,197.81L836.99,64.328L840.85,84.418L844.7,62.815L848.56,62.45L852.42,70.408L856.28,58.745L860.13,48.935L863.99,47.187L867.85,47.187L871.7,47.395L875.56,47.03L879.42,47.03L883.28,47.03L887.13,47.03L890.99,72.312L894.85,72.051L898.71,72.704L902.56,68.581L906.42,68.372L910.28,63.076L914.14,64.772L917.99,70.277L921.85,68.32L925.71,75.26L929.56,62.737L933.42,72.938L937.28,71.816L941.14,73.721L944.99,86.01L948.85,76.043L952.71,76.695L956.57,60.206L960.42,55.901L964.28,56.188L968.14,55.588L972,54.57L975.85,51.935L979.71,52.326L983.57,47.917L987.42,48.856L991.28,55.405L995.14,51.935L999,47.343L1002.9,48.439L1006.7,47.16L1010.6,51.726L1014.4,175.71L1018.3,306.97L1022.1,235.46L1026,175.27L1029.9,112.94L1033.7,150.92L1037.6,90.185L1041.4,232.67L1045.3,177.35L1049.1,133.57L1053,223.77L1056.9,107.2L1060.7,236.14L1064.6,142.34L1068.4,59.893L1072.3,250.93L1076.1,83.897L1080,49.117" style="fill:none;stroke:#F15A60;stroke-width:1.875" />
<path d="M1055,694.3L1080,694.3" style="fill:none;stroke:#F15A60;stroke-width:1.875" />
<text x="1002.5" y="-687.85" transform="scale(1, -1)"
	style="font-family:Helvetica;font-weight:normal;font-style:normal;font-size:12pt">etcd v2</text>
</g>
</svg>
