<?xml version="1.0"?>
<!-- Generated by SVGo and Plotinum VG -->
<svg width="12in" height="8in"
	xmlns="http://www.w3.org/2000/svg"
	xmlns:xlink="http://www.w3.org/1999/xlink">
<g transform="scale(1, -1) translate(0, -720)">
<path d="M0,0L1080,0L1080,720L0,720Z" style="fill:#FFFFFF" />
<text x="260.72" y="-706.41" transform="scale(1, -1)"
	style="font-family:Helvetica;font-weight:normal;font-style:normal;font-size:12pt">Write 2M keys, 1000-client, 8-byte key, 256-byte value (etcd v2, Test 2), Throughput</text>
<text x="556.97" y="-4.965" transform="scale(1, -1)"
	style="font-family:Helvetica;font-weight:normal;font-style:normal;font-size:12pt">Second</text>
<text x="81.337" y="-19.142" transform="scale(1, -1)"
	style="font-family:Helvetica;font-weight:normal;font-style:normal;font-size:10pt">0</text>
<text x="348.05" y="-19.142" transform="scale(1, -1)"
	style="font-family:Helvetica;font-weight:normal;font-style:normal;font-size:10pt">60</text>
<text x="614.76" y="-19.142" transform="scale(1, -1)"
	style="font-family:Helvetica;font-weight:normal;font-style:normal;font-size:10pt">120</text>
<text x="884.95" y="-19.142" transform="scale(1, -1)"
	style="font-family:Helvetica;font-weight:normal;font-style:normal;font-size:10pt">180</text>
<path d="M84.812,30.467L84.812,40.467" style="fill:none;stroke:#000000;stroke-width:0.625" />
<path d="M355,30.467L355,40.467" style="fill:none;stroke:#000000;stroke-width:0.625" />
<path d="M625.19,30.467L625.19,40.467" style="fill:none;stroke:#000000;stroke-width:0.625" />
<path d="M895.37,30.467L895.37,40.467" style="fill:none;stroke:#000000;stroke-width:0.625" />
<path d="M174.87,35.468L174.87,40.467" style="fill:none;stroke:#000000;stroke-width:0.625" />
<path d="M264.94,35.468L264.94,40.467" style="fill:none;stroke:#000000;stroke-width:0.625" />
<path d="M445.06,35.468L445.06,40.467" style="fill:none;stroke:#000000;stroke-width:0.625" />
<path d="M535.12,35.468L535.12,40.467" style="fill:none;stroke:#000000;stroke-width:0.625" />
<path d="M715.25,35.468L715.25,40.467" style="fill:none;stroke:#000000;stroke-width:0.625" />
<path d="M805.31,35.468L805.31,40.467" style="fill:none;stroke:#000000;stroke-width:0.625" />
<path d="M985.43,35.468L985.43,40.467" style="fill:none;stroke:#000000;stroke-width:0.625" />
<path d="M1075.5,35.468L1075.5,40.467" style="fill:none;stroke:#000000;stroke-width:0.625" />
<path d="M84.812,40.467L1080,40.467" style="fill:none;stroke:#000000;stroke-width:0.625" />
<g transform="rotate(90)">
<text x="335.88" y="13.59" transform="scale(1, -1)"
	style="font-family:Helvetica;font-weight:normal;font-style:normal;font-size:12pt">Throughput</text>
</g>
<text x="57.13" y="-41.661" transform="scale(1, -1)"
	style="font-family:Helvetica;font-weight:normal;font-style:normal;font-size:10pt">0</text>
<text x="36.28" y="-247.99" transform="scale(1, -1)"
	style="font-family:Helvetica;font-weight:normal;font-style:normal;font-size:10pt">8000</text>
<text x="18.555" y="-454.31" transform="scale(1, -1)"
	style="font-family:Helvetica;font-weight:normal;font-style:normal;font-size:10pt">1.6e+04</text>
<text x="18.555" y="-660.64" transform="scale(1, -1)"
	style="font-family:Helvetica;font-weight:normal;font-style:normal;font-size:10pt">2.4e+04</text>
<path d="M67.555,47.03L77.555,47.03" style="fill:none;stroke:#000000;stroke-width:0.625" />
<path d="M67.555,253.36L77.555,253.36" style="fill:none;stroke:#000000;stroke-width:0.625" />
<path d="M67.555,459.68L77.555,459.68" style="fill:none;stroke:#000000;stroke-width:0.625" />
<path d="M67.555,666.01L77.555,666.01" style="fill:none;stroke:#000000;stroke-width:0.625" />
<path d="M72.555,150.19L77.555,150.19" style="fill:none;stroke:#000000;stroke-width:0.625" />
<path d="M72.555,356.52L77.555,356.52" style="fill:none;stroke:#000000;stroke-width:0.625" />
<path d="M72.555,562.85L77.555,562.85" style="fill:none;stroke:#000000;stroke-width:0.625" />
<path d="M77.555,47.03L77.555,701.44" style="fill:none;stroke:#000000;stroke-width:0.625" />
<path d="M84.812,48.861L89.316,701.44L93.819,645.38L98.322,524.11L102.82,488.13L107.33,504.22L111.83,110.73L116.33,102.53L120.84,91.39L125.34,80.79L129.84,89.92L134.35,75.297L138.85,87.96L143.35,88.888L147.86,79.114L152.36,76.483L156.86,84.994L161.37,74.549L165.87,71.944L170.37,54.38L174.87,55.386L179.38,50.821L183.88,48.062L188.38,48.758L192.89,49.944L197.39,48.99L201.89,47.778L206.4,47.778L210.9,47.236L215.4,47.804L219.91,47.726L224.41,47.211L228.91,47.056L233.42,47.03L237.92,47.056L242.42,47.03L246.92,47.03L251.43,47.056L255.93,47.03L260.43,47.03L264.94,47.03L269.44,47.03L273.94,47.03L278.45,47.03L282.95,47.03L287.45,47.03L291.96,47.03L296.46,47.03L300.96,47.03L305.46,47.03L309.97,47.03L314.47,47.03L318.97,47.03L323.48,47.03L327.98,47.03L332.48,47.03L336.99,47.03L341.49,47.03L345.99,47.03L350.5,47.03L355,47.03L359.5,382.31L364.01,457.7L368.51,429.09L373.01,423.45L377.51,373.08L382.02,362.35L386.52,430.38L391.02,362.35L395.53,205.08L400.03,79.552L404.53,93.273L409.04,91.7L413.54,88.398L418.04,83.472L422.55,80.145L427.05,86.051L431.55,82.492L436.06,91.932L440.56,80.79L445.06,67.018L449.56,52.936L454.07,62.762L458.57,51.93L463.07,50.744L467.58,52.575L472.08,51.621L476.58,54.819L481.09,50.563L485.59,50.589L490.09,53.039L494.6,51.389L499.1,48.887L503.6,47.339L508.1,47.701L512.61,47.933L517.11,49.325L521.61,48.036L526.12,47.185L530.62,47.082L535.12,47.907L539.63,47.494L544.13,47.107L548.63,47.03L553.14,47.03L557.64,47.056L562.14,47.133L566.65,47.185L571.15,47.056L575.65,47.03L580.15,47.03L584.66,47.03L589.16,47.03L593.66,47.03L598.17,47.03L602.67,47.03L607.17,47.03L611.68,47.03L616.18,47.03L620.68,47.03L625.19,47.03L629.69,221.04L634.19,513.77L638.7,306.15L643.2,313.32L647.7,304.01L652.2,314.76L656.71,285.98L661.21,247.79L665.71,251.03L670.22,228.26L674.72,272.44L679.22,323.79L683.73,225.71L688.23,233.91L692.73,181.06L697.24,106.17L701.74,64.774L706.24,69.287L710.74,72.95L715.25,52.885L719.75,71.892L724.25,69.571L728.76,65.677L733.26,71.48L737.76,56.418L742.27,47.107L746.77,65.78L751.27,61.963L755.78,65.883L760.28,60.312L764.78,51.724L769.29,47.726L773.79,49.222L778.29,48.01L782.79,51.724L787.3,53.71L791.8,55.18L796.3,48.268L800.81,55.412L805.31,53.865L809.81,53.503L814.32,55.412L818.82,51.105L823.32,48.242L827.83,51.414L832.33,48.216L836.83,47.443L841.34,48.139L845.84,48.165L850.34,47.314L854.84,47.443L859.35,47.056L863.85,47.056L868.35,47.211L872.86,47.211L877.36,47.185L881.86,47.056L886.37,47.03L890.87,47.03L895.37,47.133L899.88,114.76L904.38,317.01L908.88,295.4L913.38,305.09L917.89,215.13L922.39,115.27L926.89,156.54L931.4,185.94L935.9,158.52L940.4,220.27L944.91,282.86L949.41,241.13L953.91,135.05L958.42,244.43L962.92,134.77L967.42,211.34L971.93,104.75L976.43,252.35L980.93,144.85L985.43,175.93L989.94,55.438L994.44,53.529L998.94,103.59L1003.4,65.909L1008,55.644L1012.5,47.03L1017,47.03L1021.5,47.03L1026,47.03L1030.5,47.03L1035,96.007L1039.5,153.29L1044,77.102L1048.5,67.147L1053,68.127L1057.5,65.909L1062,69.984L1066.5,57.811L1071,72.279L1075.5,72.795L1080,63.691" style="fill:none;stroke:#F15A60;stroke-width:1.875" />
<path d="M1055,694.3L1080,694.3" style="fill:none;stroke:#F15A60;stroke-width:1.875" />
<text x="1002.5" y="-687.85" transform="scale(1, -1)"
	style="font-family:Helvetica;font-weight:normal;font-style:normal;font-size:12pt">etcd v2</text>
</g>
</svg>
