<?xml version="1.0"?>
<!-- Generated by SVGo and Plotinum VG -->
<svg width="12in" height="8in"
	xmlns="http://www.w3.org/2000/svg"
	xmlns:xlink="http://www.w3.org/1999/xlink">
<g transform="scale(1, -1) translate(0, -720)">
<path d="M0,0L1080,0L1080,720L0,720Z" style="fill:#FFFFFF" />
<text x="249.49" y="-706.41" transform="scale(1, -1)"
	style="font-family:Helvetica;font-weight:normal;font-style:normal;font-size:12pt">Write 500K keys, 1000-client, 8-byte key, 256-byte value (Consul, Test 1), Memory(MB)</text>
<text x="544.64" y="-4.965" transform="scale(1, -1)"
	style="font-family:Helvetica;font-weight:normal;font-style:normal;font-size:12pt">Second</text>
<text x="56.662" y="-19.142" transform="scale(1, -1)"
	style="font-family:Helvetica;font-weight:normal;font-style:normal;font-size:10pt">0</text>
<text x="245.61" y="-19.142" transform="scale(1, -1)"
	style="font-family:Helvetica;font-weight:normal;font-style:normal;font-size:10pt">10</text>
<text x="438.04" y="-19.142" transform="scale(1, -1)"
	style="font-family:Helvetica;font-weight:normal;font-style:normal;font-size:10pt">20</text>
<text x="630.47" y="-19.142" transform="scale(1, -1)"
	style="font-family:Helvetica;font-weight:normal;font-style:normal;font-size:10pt">30</text>
<text x="822.9" y="-19.142" transform="scale(1, -1)"
	style="font-family:Helvetica;font-weight:normal;font-style:normal;font-size:10pt">40</text>
<text x="1015.3" y="-19.142" transform="scale(1, -1)"
	style="font-family:Helvetica;font-weight:normal;font-style:normal;font-size:10pt">50</text>
<path d="M60.137,30.467L60.137,40.467" style="fill:none;stroke:#000000;stroke-width:0.625" />
<path d="M252.56,30.467L252.56,40.467" style="fill:none;stroke:#000000;stroke-width:0.625" />
<path d="M444.99,30.467L444.99,40.467" style="fill:none;stroke:#000000;stroke-width:0.625" />
<path d="M637.42,30.467L637.42,40.467" style="fill:none;stroke:#000000;stroke-width:0.625" />
<path d="M829.85,30.467L829.85,40.467" style="fill:none;stroke:#000000;stroke-width:0.625" />
<path d="M1022.3,30.467L1022.3,40.467" style="fill:none;stroke:#000000;stroke-width:0.625" />
<path d="M156.35,35.468L156.35,40.467" style="fill:none;stroke:#000000;stroke-width:0.625" />
<path d="M348.78,35.468L348.78,40.467" style="fill:none;stroke:#000000;stroke-width:0.625" />
<path d="M541.2,35.468L541.2,40.467" style="fill:none;stroke:#000000;stroke-width:0.625" />
<path d="M733.63,35.468L733.63,40.467" style="fill:none;stroke:#000000;stroke-width:0.625" />
<path d="M926.06,35.468L926.06,40.467" style="fill:none;stroke:#000000;stroke-width:0.625" />
<path d="M60.137,40.467L1080,40.467" style="fill:none;stroke:#000000;stroke-width:0.625" />
<g transform="rotate(90)">
<text x="330.91" y="13.59" transform="scale(1, -1)"
	style="font-family:Helvetica;font-weight:normal;font-style:normal;font-size:12pt">Memory(MB)</text>
</g>
<text x="18.555" y="-185.83" transform="scale(1, -1)"
	style="font-family:Helvetica;font-weight:normal;font-style:normal;font-size:10pt">200</text>
<text x="18.555" y="-343.13" transform="scale(1, -1)"
	style="font-family:Helvetica;font-weight:normal;font-style:normal;font-size:10pt">400</text>
<text x="18.555" y="-500.43" transform="scale(1, -1)"
	style="font-family:Helvetica;font-weight:normal;font-style:normal;font-size:10pt">600</text>
<text x="18.555" y="-657.73" transform="scale(1, -1)"
	style="font-family:Helvetica;font-weight:normal;font-style:normal;font-size:10pt">800</text>
<path d="M42.88,191.2L52.88,191.2" style="fill:none;stroke:#000000;stroke-width:0.625" />
<path d="M42.88,348.5L52.88,348.5" style="fill:none;stroke:#000000;stroke-width:0.625" />
<path d="M42.88,505.8L52.88,505.8" style="fill:none;stroke:#000000;stroke-width:0.625" />
<path d="M42.88,663.1L52.88,663.1" style="fill:none;stroke:#000000;stroke-width:0.625" />
<path d="M47.88,112.55L52.88,112.55" style="fill:none;stroke:#000000;stroke-width:0.625" />
<path d="M47.88,269.85L52.88,269.85" style="fill:none;stroke:#000000;stroke-width:0.625" />
<path d="M47.88,427.15L52.88,427.15" style="fill:none;stroke:#000000;stroke-width:0.625" />
<path d="M47.88,584.45L52.88,584.45" style="fill:none;stroke:#000000;stroke-width:0.625" />
<path d="M52.88,47.03L52.88,701.44" style="fill:none;stroke:#000000;stroke-width:0.625" />
<path d="M60.137,47.03L79.38,78.561L98.623,91.782L117.87,103.71L137.11,104.83L156.35,119.52L175.59,134.02L194.84,149.72L214.08,143.58L233.32,162L252.56,179.83L271.81,194.94L291.05,211.38L310.29,228.45L329.54,204.6L348.78,221.18L368.02,235.92L387.26,254.28L406.51,268.18L425.75,287.4L444.99,303.19L464.23,315.86L483.48,328.81L502.72,342.79L521.96,356.9L541.2,373.14L560.45,389.32L579.69,406.1L598.93,417.97L618.18,344.87L637.42,357.3L656.66,377.02L675.9,388.21L695.15,401.86L714.39,413.96L733.63,434.46L752.87,448.66L772.12,461.9L791.36,476.66L810.6,491.4L829.85,506.84L849.09,522.58L868.33,539L887.57,549.37L906.82,564.37L926.06,581.28L945.3,596.32L964.54,614.64L983.79,624.47L1003,641.47L1022.3,651.93L1041.5,671.74L1060.8,682.95L1080,701.44" style="fill:none;stroke:#F15A60;stroke-width:1.875" />
<path d="M1055,694.3L1080,694.3" style="fill:none;stroke:#F15A60;stroke-width:1.875" />
<text x="959.12" y="-687.85" transform="scale(1, -1)"
	style="font-family:Helvetica;font-weight:normal;font-style:normal;font-size:12pt">Consul v0.6.4</text>
</g>
</svg>
