<?xml version="1.0"?>
<!-- Generated by SVGo and Plotinum VG -->
<svg width="12in" height="8in"
	xmlns="http://www.w3.org/2000/svg"
	xmlns:xlink="http://www.w3.org/1999/xlink">
<g transform="scale(1, -1) translate(0, -720)">
<path d="M0,0L1080,0L1080,720L0,720Z" style="fill:#FFFFFF" />
<text x="224.47" y="-706.41" transform="scale(1, -1)"
	style="font-family:Helvetica;font-weight:normal;font-style:normal;font-size:12pt">Write 500K keys, 1000-client, 8-byte key, 256-byte value (Consul, Test 1), Latency(millisecond)</text>
<text x="544.64" y="-4.965" transform="scale(1, -1)"
	style="font-family:Helvetica;font-weight:normal;font-style:normal;font-size:12pt">Second</text>
<text x="56.662" y="-19.142" transform="scale(1, -1)"
	style="font-family:Helvetica;font-weight:normal;font-style:normal;font-size:10pt">0</text>
<text x="242.05" y="-19.142" transform="scale(1, -1)"
	style="font-family:Helvetica;font-weight:normal;font-style:normal;font-size:10pt">10</text>
<text x="430.91" y="-19.142" transform="scale(1, -1)"
	style="font-family:Helvetica;font-weight:normal;font-style:normal;font-size:10pt">20</text>
<text x="619.78" y="-19.142" transform="scale(1, -1)"
	style="font-family:Helvetica;font-weight:normal;font-style:normal;font-size:10pt">30</text>
<text x="808.64" y="-19.142" transform="scale(1, -1)"
	style="font-family:Helvetica;font-weight:normal;font-style:normal;font-size:10pt">40</text>
<text x="997.5" y="-19.142" transform="scale(1, -1)"
	style="font-family:Helvetica;font-weight:normal;font-style:normal;font-size:10pt">50</text>
<path d="M60.137,30.467L60.137,40.467" style="fill:none;stroke:#000000;stroke-width:0.625" />
<path d="M249,30.467L249,40.467" style="fill:none;stroke:#000000;stroke-width:0.625" />
<path d="M437.86,30.467L437.86,40.467" style="fill:none;stroke:#000000;stroke-width:0.625" />
<path d="M626.73,30.467L626.73,40.467" style="fill:none;stroke:#000000;stroke-width:0.625" />
<path d="M815.59,30.467L815.59,40.467" style="fill:none;stroke:#000000;stroke-width:0.625" />
<path d="M1004.5,30.467L1004.5,40.467" style="fill:none;stroke:#000000;stroke-width:0.625" />
<path d="M154.57,35.468L154.57,40.467" style="fill:none;stroke:#000000;stroke-width:0.625" />
<path d="M343.43,35.468L343.43,40.467" style="fill:none;stroke:#000000;stroke-width:0.625" />
<path d="M532.3,35.468L532.3,40.467" style="fill:none;stroke:#000000;stroke-width:0.625" />
<path d="M721.16,35.468L721.16,40.467" style="fill:none;stroke:#000000;stroke-width:0.625" />
<path d="M910.02,35.468L910.02,40.467" style="fill:none;stroke:#000000;stroke-width:0.625" />
<path d="M60.137,40.467L1080,40.467" style="fill:none;stroke:#000000;stroke-width:0.625" />
<g transform="rotate(90)">
<text x="305.89" y="13.59" transform="scale(1, -1)"
	style="font-family:Helvetica;font-weight:normal;font-style:normal;font-size:12pt">Latency(millisecond)</text>
</g>
<text x="18.555" y="-149.39" transform="scale(1, -1)"
	style="font-family:Helvetica;font-weight:normal;font-style:normal;font-size:10pt">100</text>
<text x="18.555" y="-262.08" transform="scale(1, -1)"
	style="font-family:Helvetica;font-weight:normal;font-style:normal;font-size:10pt">110</text>
<text x="18.555" y="-374.77" transform="scale(1, -1)"
	style="font-family:Helvetica;font-weight:normal;font-style:normal;font-size:10pt">120</text>
<text x="18.555" y="-487.46" transform="scale(1, -1)"
	style="font-family:Helvetica;font-weight:normal;font-style:normal;font-size:10pt">130</text>
<text x="18.555" y="-600.15" transform="scale(1, -1)"
	style="font-family:Helvetica;font-weight:normal;font-style:normal;font-size:10pt">140</text>
<path d="M42.88,154.75L52.88,154.75" style="fill:none;stroke:#000000;stroke-width:0.625" />
<path d="M42.88,267.45L52.88,267.45" style="fill:none;stroke:#000000;stroke-width:0.625" />
<path d="M42.88,380.14L52.88,380.14" style="fill:none;stroke:#000000;stroke-width:0.625" />
<path d="M42.88,492.83L52.88,492.83" style="fill:none;stroke:#000000;stroke-width:0.625" />
<path d="M42.88,605.52L52.88,605.52" style="fill:none;stroke:#000000;stroke-width:0.625" />
<path d="M47.88,98.409L52.88,98.409" style="fill:none;stroke:#000000;stroke-width:0.625" />
<path d="M47.88,211.1L52.88,211.1" style="fill:none;stroke:#000000;stroke-width:0.625" />
<path d="M47.88,323.79L52.88,323.79" style="fill:none;stroke:#000000;stroke-width:0.625" />
<path d="M47.88,436.48L52.88,436.48" style="fill:none;stroke:#000000;stroke-width:0.625" />
<path d="M47.88,549.18L52.88,549.18" style="fill:none;stroke:#000000;stroke-width:0.625" />
<path d="M47.88,661.87L52.88,661.87" style="fill:none;stroke:#000000;stroke-width:0.625" />
<path d="M52.88,47.03L52.88,701.44" style="fill:none;stroke:#000000;stroke-width:0.625" />
<path d="M60.137,334.93L79.024,47.03L97.91,370.51L116.8,598.87L135.68,621.04L154.57,283.65L173.46,221.5L192.34,168.32L211.23,103.29L230.11,151.61L249,205.08L267.89,159.31L286.77,189.23L305.66,121.64L324.55,142.79L343.43,246.58L362.32,173.67L381.21,134.74L400.09,200.09L418.98,252.6L437.86,291.12L456.75,701.44L475.64,423.21L494.52,239.07L513.41,174.86L532.3,412.63L551.18,437.25L570.07,273.08L588.96,318.94L607.84,241.31L626.73,529.67L645.61,350.87L664.5,415.47L683.39,214.11L702.27,421.17L721.16,327.61L740.05,118.66L758.93,276.98L777.82,290.24L796.7,84.975L815.59,304.51L834.48,251.82L853.36,62.604L872.25,220.27L891.14,262.19L910.02,338.09L928.91,320.45L947.8,167.14L966.68,290.21L985.57,78.525L1004.5,270.7L1023.3,156.4L1042.2,411.14L1061.1,230.95L1080,293.12" style="fill:none;stroke:#F15A60;stroke-width:1.875" />
<path d="M1055,694.3L1080,694.3" style="fill:none;stroke:#F15A60;stroke-width:1.875" />
<text x="959.12" y="-687.85" transform="scale(1, -1)"
	style="font-family:Helvetica;font-weight:normal;font-style:normal;font-size:12pt">Consul v0.6.4</text>
</g>
</svg>
