<?xml version="1.0"?>
<!-- Generated by SVGo and Plotinum VG -->
<svg width="12in" height="8in"
	xmlns="http://www.w3.org/2000/svg"
	xmlns:xlink="http://www.w3.org/1999/xlink">
<g transform="scale(1, -1) translate(0, -720)">
<path d="M0,0L1080,0L1080,720L0,720Z" style="fill:#FFFFFF" />
<text x="254.46" y="-706.41" transform="scale(1, -1)"
	style="font-family:Helvetica;font-weight:normal;font-style:normal;font-size:12pt">Write 500K keys, 1000-client, 8-byte key, 256-byte value (Consul, Test 1), Throughput</text>
<text x="551.76" y="-4.965" transform="scale(1, -1)"
	style="font-family:Helvetica;font-weight:normal;font-style:normal;font-size:12pt">Second</text>
<text x="70.912" y="-19.142" transform="scale(1, -1)"
	style="font-family:Helvetica;font-weight:normal;font-style:normal;font-size:10pt">0</text>
<text x="253.66" y="-19.142" transform="scale(1, -1)"
	style="font-family:Helvetica;font-weight:normal;font-style:normal;font-size:10pt">10</text>
<text x="439.89" y="-19.142" transform="scale(1, -1)"
	style="font-family:Helvetica;font-weight:normal;font-style:normal;font-size:10pt">20</text>
<text x="626.11" y="-19.142" transform="scale(1, -1)"
	style="font-family:Helvetica;font-weight:normal;font-style:normal;font-size:10pt">30</text>
<text x="812.34" y="-19.142" transform="scale(1, -1)"
	style="font-family:Helvetica;font-weight:normal;font-style:normal;font-size:10pt">40</text>
<text x="998.56" y="-19.142" transform="scale(1, -1)"
	style="font-family:Helvetica;font-weight:normal;font-style:normal;font-size:10pt">50</text>
<path d="M74.388,30.467L74.388,40.467" style="fill:none;stroke:#000000;stroke-width:0.625" />
<path d="M260.61,30.467L260.61,40.467" style="fill:none;stroke:#000000;stroke-width:0.625" />
<path d="M446.84,30.467L446.84,40.467" style="fill:none;stroke:#000000;stroke-width:0.625" />
<path d="M633.06,30.467L633.06,40.467" style="fill:none;stroke:#000000;stroke-width:0.625" />
<path d="M819.29,30.467L819.29,40.467" style="fill:none;stroke:#000000;stroke-width:0.625" />
<path d="M1005.5,30.467L1005.5,40.467" style="fill:none;stroke:#000000;stroke-width:0.625" />
<path d="M167.5,35.468L167.5,40.467" style="fill:none;stroke:#000000;stroke-width:0.625" />
<path d="M353.72,35.468L353.72,40.467" style="fill:none;stroke:#000000;stroke-width:0.625" />
<path d="M539.95,35.468L539.95,40.467" style="fill:none;stroke:#000000;stroke-width:0.625" />
<path d="M726.17,35.468L726.17,40.467" style="fill:none;stroke:#000000;stroke-width:0.625" />
<path d="M912.4,35.468L912.4,40.467" style="fill:none;stroke:#000000;stroke-width:0.625" />
<path d="M74.388,40.467L1080,40.467" style="fill:none;stroke:#000000;stroke-width:0.625" />
<g transform="rotate(90)">
<text x="335.88" y="13.59" transform="scale(1, -1)"
	style="font-family:Helvetica;font-weight:normal;font-style:normal;font-size:12pt">Throughput</text>
</g>
<text x="25.855" y="-224.26" transform="scale(1, -1)"
	style="font-family:Helvetica;font-weight:normal;font-style:normal;font-size:10pt">6000</text>
<text x="25.855" y="-412.31" transform="scale(1, -1)"
	style="font-family:Helvetica;font-weight:normal;font-style:normal;font-size:10pt">8000</text>
<text x="18.555" y="-600.36" transform="scale(1, -1)"
	style="font-family:Helvetica;font-weight:normal;font-style:normal;font-size:10pt">1e+04</text>
<path d="M57.13,229.63L67.13,229.63" style="fill:none;stroke:#000000;stroke-width:0.625" />
<path d="M57.13,417.68L67.13,417.68" style="fill:none;stroke:#000000;stroke-width:0.625" />
<path d="M57.13,605.73L67.13,605.73" style="fill:none;stroke:#000000;stroke-width:0.625" />
<path d="M62.13,135.6L67.13,135.6" style="fill:none;stroke:#000000;stroke-width:0.625" />
<path d="M62.13,323.65L67.13,323.65" style="fill:none;stroke:#000000;stroke-width:0.625" />
<path d="M62.13,511.7L67.13,511.7" style="fill:none;stroke:#000000;stroke-width:0.625" />
<path d="M62.13,699.75L67.13,699.75" style="fill:none;stroke:#000000;stroke-width:0.625" />
<path d="M67.13,47.03L67.13,701.44" style="fill:none;stroke:#000000;stroke-width:0.625" />
<path d="M74.388,47.03L93.01,701.44L111.63,430.84L130.25,351.01L148.88,332.21L167.5,503.8L186.12,555.33L204.74,615.13L223.37,630.17L241.99,613.72L260.61,571.88L279.23,603L297.86,562.01L316.48,649.92L335.1,608.55L353.72,533.7L372.35,600.37L390.97,607.89L409.59,576.11L428.21,534.93L446.84,502.49L465.46,288.49L484.08,380.63L502.7,549.59L521.33,619.17L539.95,411.85L558.57,451.53L577.19,506.81L595.82,492.8L614.44,537.09L633.06,388.81L651.68,455.48L670.31,406.86L688.93,568.59L707.55,433.29L726.17,485.75L744.8,581L763.42,553.45L782.04,506.72L800.66,647.47L819.29,524.87L837.91,516.03L856.53,699.19L875.15,560.69L893.78,439.4L912.4,545.46L931.02,485.75L949.64,596.23L968.27,497.79L986.89,693.64L1005.5,510.29L1024.1,595.01L1042.8,420.22L1061.4,572.82L1080,497.97" style="fill:none;stroke:#F15A60;stroke-width:1.875" />
<path d="M1055,694.3L1080,694.3" style="fill:none;stroke:#F15A60;stroke-width:1.875" />
<text x="958.28" y="-687.85" transform="scale(1, -1)"
	style="font-family:Helvetica;font-weight:normal;font-style:normal;font-size:12pt">consul_v0.6.4</text>
</g>
</svg>
