<?xml version="1.0"?>
<!-- Generated by SVGo and Plotinum VG -->
<svg width="12in" height="8in"
	xmlns="http://www.w3.org/2000/svg"
	xmlns:xlink="http://www.w3.org/1999/xlink">
<g transform="scale(1, -1) translate(0, -720)">
<path d="M0,0L1080,0L1080,720L0,720Z" style="fill:#FFFFFF" />
<text x="276.98" y="-706.41" transform="scale(1, -1)"
	style="font-family:Helvetica;font-weight:normal;font-style:normal;font-size:12pt">Write 500K keys, 1000-client, 8-byte key, 256-byte value (Consul, Test 2), CPU</text>
<text x="544.64" y="-4.965" transform="scale(1, -1)"
	style="font-family:Helvetica;font-weight:normal;font-style:normal;font-size:12pt">Second</text>
<text x="56.662" y="-19.142" transform="scale(1, -1)"
	style="font-family:Helvetica;font-weight:normal;font-style:normal;font-size:10pt">0</text>
<text x="245.61" y="-19.142" transform="scale(1, -1)"
	style="font-family:Helvetica;font-weight:normal;font-style:normal;font-size:10pt">10</text>
<text x="438.04" y="-19.142" transform="scale(1, -1)"
	style="font-family:Helvetica;font-weight:normal;font-style:normal;font-size:10pt">20</text>
<text x="630.47" y="-19.142" transform="scale(1, -1)"
	style="font-family:Helvetica;font-weight:normal;font-style:normal;font-size:10pt">30</text>
<text x="822.9" y="-19.142" transform="scale(1, -1)"
	style="font-family:Helvetica;font-weight:normal;font-style:normal;font-size:10pt">40</text>
<text x="1015.3" y="-19.142" transform="scale(1, -1)"
	style="font-family:Helvetica;font-weight:normal;font-style:normal;font-size:10pt">50</text>
<path d="M60.137,30.467L60.137,40.467" style="fill:none;stroke:#000000;stroke-width:0.625" />
<path d="M252.56,30.467L252.56,40.467" style="fill:none;stroke:#000000;stroke-width:0.625" />
<path d="M444.99,30.467L444.99,40.467" style="fill:none;stroke:#000000;stroke-width:0.625" />
<path d="M637.42,30.467L637.42,40.467" style="fill:none;stroke:#000000;stroke-width:0.625" />
<path d="M829.85,30.467L829.85,40.467" style="fill:none;stroke:#000000;stroke-width:0.625" />
<path d="M1022.3,30.467L1022.3,40.467" style="fill:none;stroke:#000000;stroke-width:0.625" />
<path d="M156.35,35.468L156.35,40.467" style="fill:none;stroke:#000000;stroke-width:0.625" />
<path d="M348.78,35.468L348.78,40.467" style="fill:none;stroke:#000000;stroke-width:0.625" />
<path d="M541.2,35.468L541.2,40.467" style="fill:none;stroke:#000000;stroke-width:0.625" />
<path d="M733.63,35.468L733.63,40.467" style="fill:none;stroke:#000000;stroke-width:0.625" />
<path d="M926.06,35.468L926.06,40.467" style="fill:none;stroke:#000000;stroke-width:0.625" />
<path d="M60.137,40.467L1080,40.467" style="fill:none;stroke:#000000;stroke-width:0.625" />
<g transform="rotate(90)">
<text x="358.4" y="13.59" transform="scale(1, -1)"
	style="font-family:Helvetica;font-weight:normal;font-style:normal;font-size:12pt">CPU</text>
</g>
<text x="25.505" y="-222.87" transform="scale(1, -1)"
	style="font-family:Helvetica;font-weight:normal;font-style:normal;font-size:10pt">60</text>
<text x="18.555" y="-409.33" transform="scale(1, -1)"
	style="font-family:Helvetica;font-weight:normal;font-style:normal;font-size:10pt">120</text>
<text x="18.555" y="-595.79" transform="scale(1, -1)"
	style="font-family:Helvetica;font-weight:normal;font-style:normal;font-size:10pt">180</text>
<path d="M42.88,228.24L52.88,228.24" style="fill:none;stroke:#000000;stroke-width:0.625" />
<path d="M42.88,414.7L52.88,414.7" style="fill:none;stroke:#000000;stroke-width:0.625" />
<path d="M42.88,601.16L52.88,601.16" style="fill:none;stroke:#000000;stroke-width:0.625" />
<path d="M47.88,103.93L52.88,103.93" style="fill:none;stroke:#000000;stroke-width:0.625" />
<path d="M47.88,166.09L52.88,166.09" style="fill:none;stroke:#000000;stroke-width:0.625" />
<path d="M47.88,290.39L52.88,290.39" style="fill:none;stroke:#000000;stroke-width:0.625" />
<path d="M47.88,352.55L52.88,352.55" style="fill:none;stroke:#000000;stroke-width:0.625" />
<path d="M47.88,476.85L52.88,476.85" style="fill:none;stroke:#000000;stroke-width:0.625" />
<path d="M47.88,539.01L52.88,539.01" style="fill:none;stroke:#000000;stroke-width:0.625" />
<path d="M47.88,663.31L52.88,663.31" style="fill:none;stroke:#000000;stroke-width:0.625" />
<path d="M52.88,47.03L52.88,701.44" style="fill:none;stroke:#000000;stroke-width:0.625" />
<path d="M60.137,47.03L79.38,146.51L98.623,222.27L117.87,280.94L137.11,328.03L156.35,369.42L175.59,403.01L194.84,433.25L214.08,458.36L233.32,482.38L252.56,504.2L271.81,522.47L291.05,538.26L310.29,553.71L329.54,564.49L348.78,576.76L368.02,587.18L387.26,597.52L406.51,608.71L425.75,615.89L444.99,622.73L464.23,629.6L483.48,635.84L502.72,644.05L521.96,648.96L541.2,652.56L560.45,656.04L579.69,660.24L598.93,663.5L618.18,666.89L637.42,670.06L656.66,669.87L675.9,674.97L695.15,677.27L714.39,673.85L733.63,667.7L752.87,663.69L772.12,660.7L791.36,659.77L810.6,663.72L829.85,666.55L849.09,669.68L868.33,673.38L887.57,677.98L906.82,680.69L926.06,684.14L945.3,686.93L964.54,688.05L983.79,691.53L1003,693.27L1022.3,696.38L1041.5,697.5L1060.8,700.45L1080,701.44" style="fill:none;stroke:#F15A60;stroke-width:1.875" />
<path d="M1055,694.3L1080,694.3" style="fill:none;stroke:#F15A60;stroke-width:1.875" />
<text x="959.12" y="-687.85" transform="scale(1, -1)"
	style="font-family:Helvetica;font-weight:normal;font-style:normal;font-size:12pt">Consul v0.6.4</text>
</g>
</svg>
