<?xml version="1.0"?>
<!-- Generated by SVGo and Plotinum VG -->
<svg width="12in" height="8in"
	xmlns="http://www.w3.org/2000/svg"
	xmlns:xlink="http://www.w3.org/1999/xlink">
<g transform="scale(1, -1) translate(0, -720)">
<path d="M0,0L1080,0L1080,720L0,720Z" style="fill:#FFFFFF" />
<text x="254.46" y="-706.41" transform="scale(1, -1)"
	style="font-family:Helvetica;font-weight:normal;font-style:normal;font-size:12pt">Write 500K keys, 1000-client, 8-byte key, 256-byte value (Consul, Test 2), Throughput</text>
<text x="551.76" y="-4.965" transform="scale(1, -1)"
	style="font-family:Helvetica;font-weight:normal;font-style:normal;font-size:12pt">Second</text>
<text x="70.912" y="-19.142" transform="scale(1, -1)"
	style="font-family:Helvetica;font-weight:normal;font-style:normal;font-size:10pt">0</text>
<text x="253.66" y="-19.142" transform="scale(1, -1)"
	style="font-family:Helvetica;font-weight:normal;font-style:normal;font-size:10pt">10</text>
<text x="439.89" y="-19.142" transform="scale(1, -1)"
	style="font-family:Helvetica;font-weight:normal;font-style:normal;font-size:10pt">20</text>
<text x="626.11" y="-19.142" transform="scale(1, -1)"
	style="font-family:Helvetica;font-weight:normal;font-style:normal;font-size:10pt">30</text>
<text x="812.34" y="-19.142" transform="scale(1, -1)"
	style="font-family:Helvetica;font-weight:normal;font-style:normal;font-size:10pt">40</text>
<text x="998.56" y="-19.142" transform="scale(1, -1)"
	style="font-family:Helvetica;font-weight:normal;font-style:normal;font-size:10pt">50</text>
<path d="M74.388,30.467L74.388,40.467" style="fill:none;stroke:#000000;stroke-width:0.625" />
<path d="M260.61,30.467L260.61,40.467" style="fill:none;stroke:#000000;stroke-width:0.625" />
<path d="M446.84,30.467L446.84,40.467" style="fill:none;stroke:#000000;stroke-width:0.625" />
<path d="M633.06,30.467L633.06,40.467" style="fill:none;stroke:#000000;stroke-width:0.625" />
<path d="M819.29,30.467L819.29,40.467" style="fill:none;stroke:#000000;stroke-width:0.625" />
<path d="M1005.5,30.467L1005.5,40.467" style="fill:none;stroke:#000000;stroke-width:0.625" />
<path d="M167.5,35.468L167.5,40.467" style="fill:none;stroke:#000000;stroke-width:0.625" />
<path d="M353.72,35.468L353.72,40.467" style="fill:none;stroke:#000000;stroke-width:0.625" />
<path d="M539.95,35.468L539.95,40.467" style="fill:none;stroke:#000000;stroke-width:0.625" />
<path d="M726.17,35.468L726.17,40.467" style="fill:none;stroke:#000000;stroke-width:0.625" />
<path d="M912.4,35.468L912.4,40.467" style="fill:none;stroke:#000000;stroke-width:0.625" />
<path d="M74.388,40.467L1080,40.467" style="fill:none;stroke:#000000;stroke-width:0.625" />
<g transform="rotate(90)">
<text x="335.88" y="13.59" transform="scale(1, -1)"
	style="font-family:Helvetica;font-weight:normal;font-style:normal;font-size:12pt">Throughput</text>
</g>
<text x="25.855" y="-125.35" transform="scale(1, -1)"
	style="font-family:Helvetica;font-weight:normal;font-style:normal;font-size:10pt">4000</text>
<text x="25.855" y="-289.28" transform="scale(1, -1)"
	style="font-family:Helvetica;font-weight:normal;font-style:normal;font-size:10pt">6000</text>
<text x="25.855" y="-453.21" transform="scale(1, -1)"
	style="font-family:Helvetica;font-weight:normal;font-style:normal;font-size:10pt">8000</text>
<text x="18.555" y="-617.14" transform="scale(1, -1)"
	style="font-family:Helvetica;font-weight:normal;font-style:normal;font-size:10pt">1e+04</text>
<path d="M57.13,130.72L67.13,130.72" style="fill:none;stroke:#000000;stroke-width:0.625" />
<path d="M57.13,294.65L67.13,294.65" style="fill:none;stroke:#000000;stroke-width:0.625" />
<path d="M57.13,458.58L67.13,458.58" style="fill:none;stroke:#000000;stroke-width:0.625" />
<path d="M57.13,622.51L67.13,622.51" style="fill:none;stroke:#000000;stroke-width:0.625" />
<path d="M62.13,48.751L67.13,48.751" style="fill:none;stroke:#000000;stroke-width:0.625" />
<path d="M62.13,212.68L67.13,212.68" style="fill:none;stroke:#000000;stroke-width:0.625" />
<path d="M62.13,376.61L67.13,376.61" style="fill:none;stroke:#000000;stroke-width:0.625" />
<path d="M62.13,540.55L67.13,540.55" style="fill:none;stroke:#000000;stroke-width:0.625" />
<path d="M67.13,47.03L67.13,701.44" style="fill:none;stroke:#000000;stroke-width:0.625" />
<path d="M74.388,165.31L93.01,696.28L111.63,589.73L130.25,621.2L148.88,609.48L167.5,602.92L186.12,583L204.74,571.53L223.37,674.31L241.99,602.84L260.61,636.12L279.23,645.3L297.86,628.5L316.48,487.68L335.1,647.35L353.72,592.84L372.35,606.61L390.97,637.51L409.59,591.12L428.21,578.74L446.84,593.17L465.46,577.02L484.08,563.82L502.7,655.22L521.33,491.94L539.95,602.51L558.57,534.56L577.19,482.76L595.82,537.27L614.44,554.07L633.06,491.69L651.68,473.42L670.31,619.73L688.93,382.76L707.55,164.81L726.17,47.03L744.8,274.4L763.42,173.91L782.04,487.02L800.66,591.28L819.29,560.14L837.91,549.15L856.53,569.73L875.15,646.2L893.78,614.07L912.4,553.58L931.02,581.94L949.64,525.3L968.27,608.82L986.89,549.81L1005.5,625.87L1024.1,540.22L1042.8,589.23L1061.4,563.5L1080,701.44" style="fill:none;stroke:#F15A60;stroke-width:1.875" />
<path d="M1055,694.3L1080,694.3" style="fill:none;stroke:#F15A60;stroke-width:1.875" />
<text x="959.12" y="-687.85" transform="scale(1, -1)"
	style="font-family:Helvetica;font-weight:normal;font-style:normal;font-size:12pt">Consul v0.6.4</text>
</g>
</svg>
