<?xml version="1.0"?>
<!-- Generated by SVGo and Plotinum VG -->
<svg width="12in" height="8in"
	xmlns="http://www.w3.org/2000/svg"
	xmlns:xlink="http://www.w3.org/1999/xlink">
<g transform="scale(1, -1) translate(0, -720)">
<path d="M0,0L1080,0L1080,720L0,720Z" style="fill:#FFFFFF" />
<text x="256.58" y="-706.41" transform="scale(1, -1)"
	style="font-family:Helvetica;font-weight:normal;font-style:normal;font-size:12pt">Write 2M keys, 1000-client, 8-byte key, 256-byte value (Consul, Test 1), Memory(MB)</text>
<text x="548.11" y="-4.965" transform="scale(1, -1)"
	style="font-family:Helvetica;font-weight:normal;font-style:normal;font-size:12pt">Second</text>
<text x="63.613" y="-19.142" transform="scale(1, -1)"
	style="font-family:Helvetica;font-weight:normal;font-style:normal;font-size:10pt">0</text>
<text x="290.74" y="-19.142" transform="scale(1, -1)"
	style="font-family:Helvetica;font-weight:normal;font-style:normal;font-size:10pt">1000</text>
<text x="528.29" y="-19.142" transform="scale(1, -1)"
	style="font-family:Helvetica;font-weight:normal;font-style:normal;font-size:10pt">2000</text>
<text x="765.84" y="-19.142" transform="scale(1, -1)"
	style="font-family:Helvetica;font-weight:normal;font-style:normal;font-size:10pt">3000</text>
<text x="1003.4" y="-19.142" transform="scale(1, -1)"
	style="font-family:Helvetica;font-weight:normal;font-style:normal;font-size:10pt">4000</text>
<path d="M67.088,30.467L67.088,40.467" style="fill:none;stroke:#000000;stroke-width:0.625" />
<path d="M304.64,30.467L304.64,40.467" style="fill:none;stroke:#000000;stroke-width:0.625" />
<path d="M542.19,30.467L542.19,40.467" style="fill:none;stroke:#000000;stroke-width:0.625" />
<path d="M779.74,30.467L779.74,40.467" style="fill:none;stroke:#000000;stroke-width:0.625" />
<path d="M1017.3,30.467L1017.3,40.467" style="fill:none;stroke:#000000;stroke-width:0.625" />
<path d="M185.86,35.468L185.86,40.467" style="fill:none;stroke:#000000;stroke-width:0.625" />
<path d="M423.41,35.468L423.41,40.467" style="fill:none;stroke:#000000;stroke-width:0.625" />
<path d="M660.96,35.468L660.96,40.467" style="fill:none;stroke:#000000;stroke-width:0.625" />
<path d="M898.51,35.468L898.51,40.467" style="fill:none;stroke:#000000;stroke-width:0.625" />
<path d="M67.088,40.467L1080,40.467" style="fill:none;stroke:#000000;stroke-width:0.625" />
<g transform="rotate(90)">
<text x="330.91" y="13.59" transform="scale(1, -1)"
	style="font-family:Helvetica;font-weight:normal;font-style:normal;font-size:12pt">Memory(MB)</text>
</g>
<text x="18.555" y="-190.11" transform="scale(1, -1)"
	style="font-family:Helvetica;font-weight:normal;font-style:normal;font-size:10pt">1000</text>
<text x="18.555" y="-341.03" transform="scale(1, -1)"
	style="font-family:Helvetica;font-weight:normal;font-style:normal;font-size:10pt">2000</text>
<text x="18.555" y="-491.96" transform="scale(1, -1)"
	style="font-family:Helvetica;font-weight:normal;font-style:normal;font-size:10pt">3000</text>
<text x="18.555" y="-642.88" transform="scale(1, -1)"
	style="font-family:Helvetica;font-weight:normal;font-style:normal;font-size:10pt">4000</text>
<path d="M49.83,195.48L59.83,195.48" style="fill:none;stroke:#000000;stroke-width:0.625" />
<path d="M49.83,346.4L59.83,346.4" style="fill:none;stroke:#000000;stroke-width:0.625" />
<path d="M49.83,497.33L59.83,497.33" style="fill:none;stroke:#000000;stroke-width:0.625" />
<path d="M49.83,648.25L59.83,648.25" style="fill:none;stroke:#000000;stroke-width:0.625" />
<path d="M54.83,120.01L59.83,120.01" style="fill:none;stroke:#000000;stroke-width:0.625" />
<path d="M54.83,270.94L59.83,270.94" style="fill:none;stroke:#000000;stroke-width:0.625" />
<path d="M54.83,421.86L59.83,421.86" style="fill:none;stroke:#000000;stroke-width:0.625" />
<path d="M54.83,572.79L59.83,572.79" style="fill:none;stroke:#000000;stroke-width:0.625" />
<path d="M59.83,47.03L59.83,701.44" style="fill:none;stroke:#000000;stroke-width:0.625" />
<path d="M67.088,47.03L67.325,52.922L67.563,55.178L67.8,58.475L68.038,59.267L68.275,62.212L68.513,65.096L68.75,63.769L68.988,67.074L69.225,69.71L69.463,73.274L69.701,75.993L69.938,79.262L70.176,82.362L70.413,77.218L70.651,79.793L70.888,83.451L71.126,85.862L71.363,89.146L71.601,91.678L71.838,94.44L72.076,97.697L72.314,101.22L72.551,104.26L72.789,107.09L73.026,110.45L73.264,113.44L73.501,115.98L73.739,107.6L73.976,105.58L74.214,107.99L74.452,111.28L74.689,113.13L74.927,115.73L75.164,118.85L75.402,120.54L75.639,123.02L75.877,126.45L76.114,128.71L76.352,131.11L76.589,134.77L76.827,137.16L77.065,140.29L77.302,142.69L77.54,145.27L77.777,149.4L78.015,149.91L78.252,154.71L78.49,156.85L78.727,160.22L78.965,162.03L79.203,165.65L79.44,167.65L79.678,171.34L79.915,173.69L80.153,177.31L80.39,179.78L80.628,149.78L80.865,150.6L81.103,151.04L81.34,153.22L81.578,155.67L81.816,158.02L82.053,158.99L82.291,160.7L82.528,162.29L82.766,163.92L83.003,167.41L83.241,169.71L83.478,173.58L83.716,175.43L83.954,177.43L84.191,180.91L84.429,183.19L84.666,187.57L84.904,190.39L85.141,191.17L85.379,195.41L85.616,198.23L85.854,199.21L86.091,203.88L86.329,206.41L86.567,207.62L86.804,213.17L87.042,214.43L87.279,215.03L87.517,220.93L87.754,222.55L87.992,223.08L88.229,224.86L88.467,231.01L88.705,231.68L88.942,232.3L89.18,236.78L89.417,240.68L89.655,241.26L89.892,244.4L90.13,249.61L90.367,250.85L90.605,253.16L90.842,254.78L91.08,260.12L91.318,260.83L91.555,264.13L91.793,266.76L92.03,270.73L92.268,273.85L92.505,274.8L92.743,279.68L92.98,281.8L93.218,285.31L93.456,285.72L93.693,289.65L93.931,292.72L94.168,295.77L94.406,296.74L94.643,297.91L94.881,301.22L95.118,303.59L95.356,304.88L95.593,307.25L95.831,307.84L96.069,242.01L96.306,249.29L96.544,250.65L96.781,252.18L97.019,252.94L97.256,260.1L97.494,261.05L97.731,261.88L97.969,295.54L98.207,323.61L98.444,387.6L98.682,412.91L98.919,433.16L99.157,438.99L99.394,444.93L99.632,444.96L99.869,444.96L100.11,445.01L100.34,445.38L100.58,445.38L100.82,445.38L101.06,445.38L101.29,445.38L101.53,445.38L101.77,445.38L102.01,445.38L102.24,445.38L102.48,445.38L102.72,445.38L102.96,445.38L103.2,445.38L103.43,445.38L103.67,445.41L103.91,445.41L104.15,445.41L104.38,445.41L104.62,445.41L104.86,445.41L105.1,445.41L105.33,445.41L105.57,445.41L105.81,445.41L106.05,445.41L106.28,445.45L106.52,445.45L106.76,445.45L107,445.45L107.23,445.54L107.47,445.54L107.71,445.54L107.95,445.54L108.18,445.54L108.42,445.54L108.66,445.54L108.9,445.54L109.13,446.17L109.37,449.92L109.61,453.76L109.85,454.87L110.08,454.87L110.32,459.18L110.56,508.97L110.8,511.86L111.03,518.11L111.27,523.21L111.51,524.64L111.75,524.64L111.98,524.65L112.22,524.65L112.46,527.58L112.7,535.15L112.93,536.54L113.17,536.54L113.41,536.54L113.65,536.54L113.88,536.55L114.12,536.55L114.36,536.55L114.6,536.55L114.84,536.55L115.07,536.55L115.31,536.55L115.55,536.55L115.79,536.55L116.02,536.55L116.26,536.55L116.5,536.55L116.74,536.55L116.97,536.55L117.21,536.55L117.45,536.55L117.69,536.55L117.92,536.55L118.16,536.55L118.4,536.55L118.64,536.55L118.87,536.58L119.11,536.58L119.35,536.58L119.59,536.58L119.82,536.58L120.06,536.58L120.3,536.58L120.54,536.58L120.77,536.58L121.01,536.58L121.25,536.58L121.49,536.58L121.72,536.58L121.96,536.58L122.2,536.58L122.44,536.58L122.67,536.58L122.91,536.58L123.15,536.58L123.39,536.58L123.62,536.58L123.86,536.58L124.1,536.58L124.34,536.58L124.57,536.58L124.81,536.58L125.05,536.58L125.29,536.58L125.52,536.58L125.76,536.58L126,536.58L126.24,536.58L126.47,536.58L126.71,536.58L126.95,536.58L127.19,536.58L127.43,536.58L127.66,536.58L127.9,536.58L128.14,536.58L128.38,536.58L128.61,536.58L128.85,536.58L129.09,536.58L129.33,536.58L129.56,536.58L129.8,536.58L130.04,536.58L130.28,536.58L130.51,536.58L130.75,536.58L130.99,536.58L131.23,536.58L131.46,536.58L131.7,536.58L131.94,536.58L132.18,536.58L132.41,536.58L132.65,536.58L132.89,536.58L133.13,536.58L133.36,536.58L133.6,536.58L133.84,536.58L134.08,536.58L134.31,536.58L134.55,536.58L134.79,536.58L135.03,536.58L135.26,536.58L135.5,536.58L135.74,536.58L135.98,536.58L136.21,536.58L136.45,536.58L136.69,536.58L136.93,536.58L137.16,536.58L137.4,536.58L137.64,536.58L137.88,536.58L138.11,536.58L138.35,536.58L138.59,536.58L138.83,536.58L139.07,536.76L139.3,536.76L139.54,536.76L139.78,536.76L140.02,536.76L140.25,536.76L140.49,536.76L140.73,536.77L140.97,536.77L141.2,536.77L141.44,536.77L141.68,536.77L141.92,536.77L142.15,536.77L142.39,536.77L142.63,536.77L142.87,536.77L143.1,536.77L143.34,536.78L143.58,536.78L143.82,536.78L144.05,536.78L144.29,536.78L144.53,536.78L144.77,536.78L145,536.78L145.24,536.78L145.48,536.78L145.72,536.78L145.95,536.78L146.19,536.78L146.43,536.78L146.67,536.78L146.9,536.78L147.14,536.78L147.38,536.78L147.62,536.78L147.85,536.78L148.09,536.78L148.33,536.78L148.57,536.78L148.8,536.78L149.04,536.78L149.28,536.78L149.52,537.09L149.75,537.09L149.99,537.09L150.23,537.09L150.47,537.09L150.71,537.09L150.94,537.09L151.18,537.09L151.42,537.09L151.66,537.09L151.89,537.09L152.13,537.09L152.37,537.09L152.61,537.09L152.84,537.09L153.08,537.09L153.32,537.09L153.56,537.09L153.79,537.09L154.03,537.09L154.27,537.09L154.51,537.09L154.74,537.09L154.98,537.09L155.22,537.09L155.46,537.09L155.69,537.09L155.93,537.09L156.17,537.09L156.41,537.09L156.64,537.09L156.88,537.09L157.12,537.09L157.36,537.09L157.59,537.09L157.83,537.09L158.07,537.09L158.31,537.09L158.54,537.09L158.78,537.09L159.02,537.09L159.26,537.09L159.49,537.09L159.73,537.09L159.97,537.09L160.21,537.09L160.44,537.09L160.68,537.09L160.92,537.09L161.16,537.09L161.39,537.09L161.63,537.09L161.87,537.09L162.11,537.09L162.34,537.09L162.58,537.09L162.82,537.09L163.06,537.09L163.3,537.09L163.53,537.09L163.77,537.09L164.01,537.09L164.25,537.09L164.48,537.09L164.72,537.09L164.96,537.09L165.2,537.09L165.43,537.09L165.67,537.09L165.91,537.09L166.15,537.09L166.38,537.09L166.62,537.09L166.86,537.09L167.1,537.09L167.33,537.09L167.57,537.09L167.81,537.09L168.05,537.09L168.28,537.09L168.52,537.09L168.76,537.09L169,537.09L169.23,537.09L169.47,537.09L169.71,537.09L169.95,537.09L170.18,537.09L170.42,537.09L170.66,537.09L170.9,537.09L171.13,537.09L171.37,537.09L171.61,537.09L171.85,537.09L172.08,537.09L172.32,537.09L172.56,523.35L172.8,523.35L173.03,523.35L173.27,523.35L173.51,523.35L173.75,523.35L173.98,523.35L174.22,523.35L174.46,523.35L174.7,523.35L174.94,523.35L175.17,523.35L175.41,523.35L175.65,523.35L175.89,523.35L176.12,523.35L176.36,523.35L176.6,523.35L176.84,523.35L177.07,523.35L177.31,523.35L177.55,523.35L177.79,523.35L178.02,523.35L178.26,523.35L178.5,523.35L178.74,523.35L178.97,523.35L179.21,523.35L179.45,523.35L179.69,523.35L179.92,523.35L180.16,523.35L180.4,523.35L180.64,523.35L180.87,523.35L181.11,523.35L181.35,523.35L181.59,523.35L181.82,523.35L182.06,523.35L182.3,523.35L182.54,523.35L182.77,523.35L183.01,523.35L183.25,523.35L183.49,523.35L183.72,523.35L183.96,523.35L184.2,523.35L184.44,523.35L184.67,523.35L184.91,523.35L185.15,523.35L185.39,523.35L185.62,523.35L185.86,523.35L186.1,523.35L186.34,523.35L186.58,523.35L186.81,523.35L187.05,523.35L187.29,523.84L187.53,523.84L187.76,523.84L188,523.84L188.24,523.84L188.48,523.84L188.71,523.84L188.95,523.84L189.19,523.84L189.43,523.84L189.66,523.84L189.9,523.84L190.14,523.88L190.38,523.88L190.61,523.88L190.85,523.88L191.09,523.88L191.33,523.88L191.56,523.88L191.8,523.88L192.04,523.88L192.28,523.88L192.51,523.88L192.75,523.88L192.99,523.88L193.23,523.88L193.46,523.88L193.7,523.88L193.94,523.88L194.18,523.88L194.41,523.88L194.65,523.88L194.89,523.88L195.13,523.95L195.36,523.95L195.6,523.95L195.84,523.95L196.08,523.95L196.31,523.95L196.55,523.95L196.79,523.95L197.03,523.95L197.26,523.97L197.5,523.97L197.74,523.97L197.98,523.97L198.22,523.97L198.45,523.97L198.69,523.97L198.93,523.97L199.17,523.97L199.4,523.97L199.64,523.97L199.88,523.97L200.12,523.97L200.35,523.97L200.59,523.97L200.83,523.97L201.07,523.97L201.3,523.97L201.54,523.97L201.78,523.97L202.02,523.97L202.25,523.97L202.49,523.97L202.73,523.97L202.97,523.97L203.2,523.97L203.44,523.97L203.68,523.97L203.92,523.97L204.15,523.97L204.39,523.97L204.63,523.97L204.87,523.97L205.1,523.97L205.34,523.97L205.58,523.97L205.82,523.97L206.05,523.97L206.29,523.97L206.53,523.97L206.77,523.97L207,523.97L207.24,523.97L207.48,523.97L207.72,523.97L207.95,520.14L208.19,519.86L208.43,519.86L208.67,519.86L208.9,519.88L209.14,519.88L209.38,519.88L209.62,519.88L209.85,519.88L210.09,519.88L210.33,519.88L210.57,519.88L210.81,519.88L211.04,519.88L211.28,519.88L211.52,519.88L211.76,519.88L211.99,519.88L212.23,520.08L212.47,520.08L212.71,520.08L212.94,520.08L213.18,520.08L213.42,520.08L213.66,520.08L213.89,520.08L214.13,520.09L214.37,520.09L214.61,520.6L214.84,520.6L215.08,520.6L215.32,520.6L215.56,520.6L215.79,520.6L216.03,520.6L216.27,520.6L216.51,520.87L216.74,520.87L216.98,520.96L217.22,520.96L217.46,520.96L217.69,520.96L217.93,520.96L218.17,520.96L218.41,520.96L218.64,520.96L218.88,520.96L219.12,520.96L219.36,520.96L219.59,520.96L219.83,520.96L220.07,520.96L220.31,520.96L220.54,520.96L220.78,520.96L221.02,521.18L221.26,521.53L221.49,521.53L221.73,521.53L221.97,521.53L222.21,521.53L222.45,521.53L222.68,521.53L222.92,521.53L223.16,521.53L223.4,521.53L223.63,521.53L223.87,521.53L224.11,521.53L224.35,521.53L224.58,521.53L224.82,521.53L225.06,521.53L225.3,522.15L225.53,522.15L225.77,522.16L226.01,522.16L226.25,522.16L226.48,522.16L226.72,522.16L226.96,522.2L227.2,522.21L227.43,522.21L227.67,522.21L227.91,522.21L228.15,522.21L228.38,522.21L228.62,523.32L228.86,523.32L229.1,523.32L229.33,523.32L229.57,523.32L229.81,523.51L230.05,523.51L230.28,523.51L230.52,523.51L230.76,523.51L231,523.51L231.23,523.51L231.47,523.51L231.71,523.51L231.95,523.72L232.18,523.72L232.42,523.72L232.66,523.72L232.9,523.72L233.13,523.72L233.37,523.72L233.61,523.72L233.85,523.72L234.09,523.72L234.32,523.72L234.56,523.72L234.8,525.1L235.04,525.1L235.27,525.1L235.51,525.1L235.75,525.1L235.99,525.1L236.22,525.1L236.46,525.11L236.7,525.12L236.94,525.12L237.17,527.75L237.41,528.03L237.65,528.03L237.89,528.03L238.12,528.03L238.36,528.03L238.6,528.03L238.84,528.03L239.07,528.03L239.31,528.03L239.55,529.22L239.79,529.22L240.02,529.22L240.26,529.22L240.5,529.22L240.74,529.22L240.97,529.22L241.21,529.22L241.45,529.22L241.69,529.22L241.92,529.55L242.16,529.55L242.4,529.55L242.64,529.55L242.87,529.55L243.11,529.56L243.35,529.46L243.59,528.77L243.82,528.77L244.06,528.68L244.3,528.68L244.54,528.68L244.77,528.68L245.01,528.68L245.25,528.68L245.49,528.68L245.72,528.68L245.96,528.68L246.2,528.68L246.44,528.68L246.68,528.68L246.91,528.68L247.15,528.68L247.39,528.68L247.63,528.68L247.86,528.68L248.1,528.68L248.34,528.68L248.58,528.68L248.81,528.68L249.05,528.68L249.29,528.68L249.53,528.68L249.76,528.68L250,528.68L250.24,528.68L250.48,528.68L250.71,528.68L250.95,528.68L251.19,528.68L251.43,528.68L251.66,528.68L251.9,528.75L252.14,528.75L252.38,528.75L252.61,528.75L252.85,528.75L253.09,528.75L253.33,528.75L253.56,528.75L253.8,528.75L254.04,528.75L254.28,528.75L254.51,528.75L254.75,528.75L254.99,528.75L255.23,528.75L255.46,528.75L255.7,528.75L255.94,528.75L256.18,528.75L256.41,528.75L256.65,528.75L256.89,528.75L257.13,528.75L257.36,528.75L257.6,528.75L257.84,528.75L258.08,528.75L258.32,528.75L258.55,528.75L258.79,528.75L259.03,528.75L259.27,528.75L259.5,528.75L259.74,528.75L259.98,528.75L260.22,528.75L260.45,528.75L260.69,528.75L260.93,528.75L261.17,528.75L261.4,528.75L261.64,528.75L261.88,528.75L262.12,528.75L262.35,528.75L262.59,528.75L262.83,528.75L263.07,528.75L263.3,528.75L263.54,528.75L263.78,528.75L264.02,528.75L264.25,528.75L264.49,528.75L264.73,528.75L264.97,528.81L265.2,528.81L265.44,528.81L265.68,528.81L265.92,528.81L266.15,528.81L266.39,528.81L266.63,528.81L266.87,528.81L267.1,528.81L267.34,528.81L267.58,528.81L267.82,528.81L268.05,528.81L268.29,528.81L268.53,528.81L268.77,529.81L269,533.68L269.24,535.82L269.48,535.82L269.72,535.82L269.96,535.82L270.19,535.82L270.43,535.82L270.67,535.82L270.91,535.82L271.14,535.82L271.38,535.82L271.62,536.6L271.86,536.6L272.09,536.6L272.33,536.6L272.57,536.6L272.81,536.6L273.04,536.6L273.28,536.6L273.52,536.66L273.76,536.66L273.99,536.88L274.23,536.88L274.47,536.88L274.71,536.88L274.94,536.88L275.18,536.88L275.42,536.88L275.66,536.88L275.89,536.88L276.13,536.88L276.37,536.88L276.61,536.88L276.84,536.88L277.08,536.88L277.32,536.88L277.56,536.88L277.79,536.88L278.03,536.88L278.27,536.88L278.51,536.88L278.74,536.88L278.98,534.26L279.22,534.28L279.46,534.24L279.69,534.24L279.93,534.24L280.17,534.24L280.41,534.24L280.64,534.24L280.88,535.09L281.12,535.09L281.36,535.09L281.6,535.09L281.83,535.17L282.07,535.17L282.31,535.17L282.55,535.47L282.78,535.47L283.02,535.47L283.26,535.47L283.5,535.47L283.73,535.47L283.97,535.47L284.21,535.47L284.45,535.91L284.68,535.91L284.92,536.56L285.16,536.56L285.4,536.56L285.63,536.56L285.87,536.56L286.11,536.56L286.35,536.56L286.58,536.56L286.82,536.89L287.06,536.89L287.3,536.89L287.53,536.89L287.77,536.89L288.01,537.12L288.25,537.12L288.48,537.12L288.72,537.12L288.96,537.12L289.2,537.46L289.43,537.46L289.67,537.76L289.91,537.76L290.15,537.76L290.38,537.76L290.62,539.04L290.86,541.88L291.1,541.88L291.33,541.88L291.57,541.9L291.81,541.9L292.05,541.9L292.28,541.9L292.52,541.9L292.76,541.9L293,541.9L293.23,541.9L293.47,541.9L293.71,541.9L293.95,541.9L294.19,541.9L294.42,542.67L294.66,542.67L294.9,542.67L295.14,543.14L295.37,543.14L295.61,543.14L295.85,543.14L296.09,543.14L296.32,543.14L296.56,543.14L296.8,543.14L297.04,543.14L297.27,543.14L297.51,543.14L297.75,543.14L297.99,543.14L298.22,543.14L298.46,543.14L298.7,543.14L298.94,543.14L299.17,543.14L299.41,543.14L299.65,543.14L299.89,543.14L300.12,543.14L300.36,543.14L300.6,543.14L300.84,543.14L301.07,543.14L301.31,543.14L301.55,543.14L301.79,543.14L302.02,543.14L302.26,543.14L302.5,543.14L302.74,543.14L302.97,543.14L303.21,543.14L303.45,543.14L303.69,543.14L303.92,543.15L304.16,543.15L304.4,543.15L304.64,543.15L304.87,543.15L305.11,543.15L305.35,543.15L305.59,543.15L305.83,543.15L306.06,543.15L306.3,543.15L306.54,543.15L306.78,543.15L307.01,543.15L307.25,543.15L307.49,543.15L307.73,543.18L307.96,543.18L308.2,543.18L308.44,543.18L308.68,543.18L308.91,543.18L309.15,543.18L309.39,543.18L309.63,543.18L309.86,543.18L310.1,543.18L310.34,543.18L310.58,543.18L310.81,543.18L311.05,543.18L311.29,543.18L311.53,543.18L311.76,543.18L312,543.18L312.24,543.18L312.48,543.18L312.71,543.18L312.95,543.18L313.19,543.18L313.43,543.18L313.66,543.18L313.9,543.18L314.14,543.18L314.38,543.18L314.61,543.18L314.85,543.12L315.09,543.12L315.33,543.21L315.56,543.21L315.8,543.21L316.04,543.21L316.28,543.21L316.51,543.21L316.75,543.21L316.99,543.21L317.23,543.21L317.47,543.21L317.7,543.21L317.94,543.21L318.18,543.21L318.42,543.21L318.65,543.21L318.89,543.21L319.13,543.24L319.37,543.24L319.6,543.24L319.84,543.24L320.08,543.24L320.32,543.24L320.55,543.24L320.79,543.24L321.03,543.24L321.27,543.24L321.5,543.28L321.74,543.28L321.98,543.28L322.22,543.28L322.45,543.28L322.69,543.28L322.93,543.28L323.17,543.28L323.4,543.28L323.64,543.28L323.88,543.28L324.12,543.28L324.35,543.28L324.59,543.28L324.83,543.28L325.07,543.28L325.3,543.28L325.54,544.86L325.78,545.16L326.02,545.19L326.25,545.19L326.49,545.19L326.73,545.19L326.97,545.19L327.2,545.19L327.44,545.19L327.68,545.19L327.92,545.19L328.15,545.19L328.39,545.19L328.63,545.19L328.87,545.19L329.1,545.19L329.34,545.19L329.58,545.19L329.82,545.19L330.06,545.19L330.29,545.19L330.53,545.19L330.77,545.22L331.01,545.22L331.24,545.22L331.48,545.64L331.72,545.64L331.96,545.64L332.19,545.64L332.43,545.64L332.67,545.64L332.91,545.64L333.14,546.04L333.38,546.04L333.62,546.04L333.86,546.04L334.09,546.04L334.33,546.04L334.57,546.04L334.81,546.04L335.04,546.04L335.28,546.04L335.52,546.04L335.76,546.04L335.99,546.04L336.23,546.04L336.47,546.11L336.71,546.11L336.94,546.11L337.18,546.11L337.42,546.11L337.66,546.11L337.89,546.11L338.13,546.11L338.37,546.11L338.61,546.11L338.84,546.33L339.08,546.33L339.32,546.33L339.56,546.33L339.79,546.33L340.03,546.33L340.27,546.33L340.51,546.33L340.74,546.33L340.98,546.33L341.22,546.33L341.46,546.33L341.7,546.6L341.93,546.6L342.17,546.6L342.41,546.6L342.65,546.6L342.88,546.6L343.12,548.28L343.36,548.92L343.6,548.92L343.83,549.02L344.07,549.02L344.31,549.02L344.55,549.02L344.78,549.02L345.02,549.02L345.26,549.02L345.5,549.02L345.73,549.02L345.97,549.02L346.21,549.02L346.45,549.02L346.68,549.02L346.92,549.02L347.16,549.02L347.4,549.09L347.63,549.09L347.87,549.09L348.11,549.36L348.35,549.36L348.58,549.36L348.82,549.43L349.06,549.43L349.3,549.43L349.53,549.43L349.77,549.43L350.01,549.43L350.25,549.43L350.48,549.43L350.72,549.43L350.96,548.33L351.2,548.33L351.43,548.33L351.67,548.33L351.91,548.33L352.15,548.33L352.38,548.33L352.62,548.33L352.86,548.33L353.1,548.33L353.34,548.33L353.57,548.33L353.81,548.33L354.05,548.33L354.29,548.33L354.52,548.33L354.76,548.33L355,548.33L355.24,548.33L355.47,548.33L355.71,548.33L355.95,548.33L356.19,548.33L356.42,548.33L356.66,548.33L356.9,548.33L357.14,548.33L357.37,548.33L357.61,548.33L357.85,548.33L358.09,548.33L358.32,548.33L358.56,548.33L358.8,548.33L359.04,548.33L359.27,548.33L359.51,550.5L359.75,550.95L359.99,550.95L360.22,550.95L360.46,550.98L360.7,550.98L360.94,550.98L361.17,550.98L361.41,550.98L361.65,550.98L361.89,550.98L362.12,550.98L362.36,550.98L362.6,550.98L362.84,550.98L363.07,550.98L363.31,550.98L363.55,550.98L363.79,550.98L364.02,550.98L364.26,550.98L364.5,550.98L364.74,550.98L364.97,550.98L365.21,550.98L365.45,550.98L365.69,550.98L365.93,550.98L366.16,550.98L366.4,550.98L366.64,550.98L366.88,550.98L367.11,550.98L367.35,550.98L367.59,550.98L367.83,550.98L368.06,550.98L368.3,550.98L368.54,550.98L368.78,550.98L369.01,550.98L369.25,550.98L369.49,550.98L369.73,550.98L369.96,550.98L370.2,550.98L370.44,550.98L370.68,550.98L370.91,550.98L371.15,550.98L371.39,550.98L371.63,550.98L371.86,550.98L372.1,551.16L372.34,551.16L372.58,551.16L372.81,551.16L373.05,551.16L373.29,551.16L373.53,551.16L373.76,551.16L374,551.16L374.24,551.16L374.48,551.16L374.71,551.16L374.95,551.16L375.19,551.16L375.43,551.16L375.66,551.16L375.9,551.16L376.14,551.16L376.38,551.84L376.61,551.84L376.85,551.84L377.09,551.84L377.33,551.84L377.57,551.84L377.8,552.62L378.04,552.62L378.28,552.62L378.52,552.62L378.75,552.62L378.99,552.62L379.23,552.62L379.47,552.83L379.7,552.83L379.94,552.83L380.18,552.83L380.42,552.83L380.65,552.83L380.89,552.83L381.13,552.83L381.37,553.05L381.6,554.01L381.84,554.01L382.08,554.01L382.32,554.01L382.55,554.01L382.79,554.56L383.03,554.56L383.27,554.56L383.5,554.56L383.74,554.56L383.98,554.56L384.22,554.56L384.45,554.56L384.69,554.56L384.93,554.56L385.17,554.56L385.4,554.56L385.64,554.61L385.88,554.61L386.12,554.61L386.35,554.61L386.59,554.6L386.83,554.6L387.07,554.61L387.3,554.61L387.54,554.61L387.78,554.69L388.02,554.97L388.25,554.97L388.49,554.97L388.73,554.97L388.97,554.97L389.21,554.97L389.44,554.97L389.68,554.97L389.92,554.97L390.16,554.97L390.39,555.05L390.63,555.05L390.87,555.05L391.11,555.05L391.34,555.05L391.58,555.05L391.82,555.05L392.06,555.05L392.29,555.05L392.53,555.75L392.77,555.75L393.01,556.07L393.24,556.07L393.48,556.07L393.72,556.07L393.96,556.07L394.19,556.07L394.43,556.07L394.67,556.07L394.91,556.07L395.14,556.07L395.38,556.07L395.62,556.07L395.86,556.07L396.09,556.99L396.33,556.99L396.57,556.99L396.81,556.99L397.04,556.99L397.28,556.99L397.52,556.99L397.76,556.99L397.99,556.99L398.23,556.99L398.47,556.99L398.71,556.99L398.94,556.99L399.18,556.99L399.42,556.99L399.66,556.99L399.89,558.1L400.13,558.1L400.37,558.1L400.61,558.1L400.85,558.1L401.08,558.1L401.32,558.1L401.56,558.1L401.8,558.1L402.03,558.1L402.27,558.1L402.51,558.1L402.75,558.1L402.98,558.1L403.22,558.1L403.46,558.1L403.7,558.1L403.93,558.1L404.17,558.1L404.41,558.1L404.65,558.1L404.88,558.1L405.12,558.1L405.36,558.1L405.6,558.1L405.83,558.1L406.07,558.1L406.31,558.1L406.55,558.1L406.78,558.1L407.02,558.1L407.26,558.1L407.5,558.1L407.73,558.1L407.97,558.1L408.21,558.1L408.45,558.1L408.68,558.1L408.92,558.1L409.16,558.1L409.4,558.1L409.63,558.1L409.87,558.1L410.11,558.1L410.35,558.1L410.58,558.1L410.82,558.1L411.06,558.1L411.3,558.1L411.53,558.1L411.77,558.1L412.01,558.1L412.25,558.1L412.48,558.1L412.72,558.1L412.96,558.1L413.2,558.1L413.44,558.1L413.67,558.1L413.91,558.1L414.15,558.1L414.39,558.1L414.62,558.1L414.86,558.1L415.1,558.1L415.34,558.1L415.57,558.1L415.81,558.1L416.05,558.1L416.29,558.1L416.52,558.1L416.76,558.1L417,558.1L417.24,558.1L417.47,558.1L417.71,558.1L417.95,558.1L418.19,558.1L418.42,558.1L418.66,558.1L418.9,559.25L419.14,559.25L419.37,559.25L419.61,559.25L419.85,559.25L420.09,559.25L420.32,559.25L420.56,559.25L420.8,559.25L421.04,559.25L421.27,559.25L421.51,559.25L421.75,559.25L421.99,559.25L422.22,559.25L422.46,559.25L422.7,559.25L422.94,559.25L423.17,559.25L423.41,559.25L423.65,559.25L423.89,559.25L424.12,559.25L424.36,559.25L424.6,559.25L424.84,559.25L425.08,559.25L425.31,559.25L425.55,559.35L425.79,559.35L426.03,559.35L426.26,559.35L426.5,559.35L426.74,559.35L426.98,559.35L427.21,559.35L427.45,559.35L427.69,559.35L427.93,559.45L428.16,559.88L428.4,559.88L428.64,559.88L428.88,559.88L429.11,559.88L429.35,559.88L429.59,559.88L429.83,559.88L430.06,559.88L430.3,559.88L430.54,559.88L430.78,559.88L431.01,559.88L431.25,559.88L431.49,559.93L431.73,559.93L431.96,559.93L432.2,560.25L432.44,560.25L432.68,560.25L432.91,560.25L433.15,560.25L433.39,560.27L433.63,560.27L433.86,560.27L434.1,560.27L434.34,560.27L434.58,560.27L434.81,560.27L435.05,560.27L435.29,560.27L435.53,560.27L435.76,560.27L436,560.48L436.24,560.48L436.48,560.48L436.72,560.48L436.95,560.48L437.19,560.48L437.43,560.48L437.67,560.48L437.9,560.48L438.14,562.33L438.38,563.13L438.62,563.13L438.85,563.13L439.09,563.13L439.33,563.13L439.57,563.14L439.8,563.14L440.04,563.14L440.28,563.14L440.52,563.14L440.75,563.14L440.99,563.14L441.23,563.14L441.47,563.14L441.7,563.14L441.94,563.14L442.18,563.14L442.42,563.14L442.65,563.14L442.89,563.14L443.13,563.14L443.37,563.14L443.6,563.14L443.84,563.14L444.08,563.14L444.32,563.14L444.55,563.14L444.79,563.14L445.03,563.14L445.27,563.14L445.5,563.14L445.74,563.14L445.98,563.14L446.22,563.14L446.45,563.14L446.69,563.14L446.93,563.14L447.17,563.14L447.4,563.14L447.64,563.14L447.88,563.14L448.12,563.14L448.35,563.14L448.59,563.14L448.83,563.14L449.07,563.14L449.31,563.14L449.54,563.14L449.78,563.14L450.02,563.14L450.26,563.14L450.49,563.14L450.73,563.14L450.97,563.14L451.21,563.14L451.44,563.14L451.68,563.14L451.92,563.14L452.16,563.14L452.39,563.14L452.63,563.14L452.87,563.14L453.11,563.14L453.34,563.14L453.58,563.14L453.82,563.14L454.06,563.14L454.29,563.14L454.53,563.14L454.77,563.14L455.01,563.14L455.24,563.14L455.48,563.14L455.72,563.14L455.96,563.14L456.19,563.14L456.43,563.14L456.67,563.14L456.91,563.14L457.14,563.14L457.38,562.27L457.62,562.27L457.86,562.27L458.09,562.27L458.33,562.27L458.57,562.27L458.81,562.44L459.04,562.44L459.28,562.44L459.52,562.44L459.76,562.44L459.99,562.44L460.23,562.44L460.47,562.44L460.71,562.44L460.95,562.44L461.18,562.44L461.42,562.44L461.66,562.44L461.9,562.44L462.13,562.44L462.37,562.44L462.61,562.44L462.85,562.44L463.08,562.44L463.32,562.44L463.56,562.44L463.8,562.44L464.03,562.44L464.27,562.44L464.51,562.44L464.75,562.44L464.98,564.05L465.22,564.15L465.46,564.15L465.7,564.15L465.93,564.15L466.17,564.15L466.41,564.15L466.65,564.15L466.88,564.15L467.12,564.15L467.36,564.15L467.6,564.15L467.83,564.15L468.07,564.15L468.31,564.15L468.55,564.15L468.78,564.15L469.02,564.15L469.26,564.26L469.5,564.26L469.73,564.26L469.97,564.26L470.21,564.26L470.45,566.53L470.68,566.53L470.92,566.53L471.16,566.53L471.4,566.53L471.63,566.53L471.87,566.74L472.11,566.74L472.35,566.74L472.59,566.74L472.82,566.74L473.06,566.74L473.3,566.74L473.54,566.74L473.77,566.74L474.01,566.74L474.25,566.74L474.49,566.74L474.72,566.74L474.96,566.74L475.2,566.74L475.44,566.74L475.67,566.74L475.91,566.74L476.15,566.74L476.39,566.74L476.62,566.74L476.86,566.74L477.1,566.74L477.34,566.74L477.57,567.82L477.81,567.82L478.05,567.82L478.29,567.82L478.52,567.82L478.76,567.82L479,567.82L479.24,567.82L479.47,567.82L479.71,567.82L479.95,567.82L480.19,568.59L480.42,568.59L480.66,568.59L480.9,568.62L481.14,568.64L481.37,568.64L481.61,568.64L481.85,568.64L482.09,568.64L482.32,568.64L482.56,568.64L482.8,568.64L483.04,568.64L483.27,568.64L483.51,568.64L483.75,568.64L483.99,568.64L484.23,568.64L484.46,568.64L484.7,568.64L484.94,568.64L485.18,568.64L485.41,568.64L485.65,568.64L485.89,568.64L486.13,568.64L486.36,570.46L486.6,570.46L486.84,570.46L487.08,570.46L487.31,570.46L487.55,570.46L487.79,570.46L488.03,570.46L488.26,570.46L488.5,570.46L488.74,570.46L488.98,570.46L489.21,570.46L489.45,570.46L489.69,570.46L489.93,570.46L490.16,570.46L490.4,570.46L490.64,570.46L490.88,570.46L491.11,570.49L491.35,570.49L491.59,570.49L491.83,570.49L492.06,570.49L492.3,570.49L492.54,570.49L492.78,570.49L493.01,570.49L493.25,570.49L493.49,570.49L493.73,570.49L493.96,570.68L494.2,570.68L494.44,570.68L494.68,570.68L494.91,570.68L495.15,570.68L495.39,570.68L495.63,570.68L495.86,570.68L496.1,570.68L496.34,570.68L496.58,572.67L496.82,572.67L497.05,572.67L497.29,572.67L497.53,572.67L497.77,572.67L498,572.67L498.24,572.67L498.48,572.67L498.72,572.67L498.95,572.67L499.19,572.67L499.43,572.67L499.67,572.67L499.9,572.67L500.14,572.67L500.38,572.67L500.62,572.67L500.85,572.67L501.09,572.67L501.33,572.67L501.57,572.67L501.8,572.67L502.04,572.67L502.28,572.67L502.52,572.67L502.75,572.67L502.99,572.67L503.23,572.67L503.47,572.67L503.7,572.67L503.94,572.67L504.18,572.67L504.42,572.67L504.65,572.67L504.89,572.67L505.13,572.67L505.37,572.67L505.6,572.67L505.84,572.77L506.08,572.77L506.32,572.77L506.55,572.77L506.79,572.77L507.03,572.77L507.27,572.77L507.5,572.77L507.74,572.77L507.98,572.77L508.22,572.77L508.46,572.77L508.69,572.77L508.93,572.77L509.17,572.77L509.41,572.77L509.64,572.77L509.88,572.77L510.12,572.77L510.36,572.77L510.59,572.79L510.83,572.79L511.07,572.79L511.31,572.79L511.54,572.79L511.78,572.79L512.02,572.79L512.26,572.79L512.49,572.79L512.73,572.79L512.97,573.62L513.21,577.01L513.44,577.01L513.68,577.01L513.92,577.01L514.16,577.01L514.39,577.01L514.63,577.01L514.87,577.01L515.11,577.01L515.34,577.01L515.58,577.01L515.82,577.01L516.06,577.01L516.29,577.01L516.53,577.01L516.77,577.01L517.01,577.01L517.24,577.01L517.48,577.01L517.72,577.01L517.96,577.01L518.19,577.01L518.43,577.01L518.67,577.01L518.91,577.01L519.14,577.01L519.38,577.01L519.62,577.01L519.86,577.01L520.1,577.01L520.33,577.01L520.57,577.01L520.81,577.01L521.05,577.01L521.28,577.01L521.52,577.01L521.76,577.01L522,577.01L522.23,577.01L522.47,577.01L522.71,577.01L522.95,577.01L523.18,577.01L523.42,577.01L523.66,577.01L523.9,577.01L524.13,577.01L524.37,577.01L524.61,577.01L524.85,577.01L525.08,577.01L525.32,577.01L525.56,577.01L525.8,577.01L526.03,577.01L526.27,577.01L526.51,577.01L526.75,577.01L526.98,577.01L527.22,577.01L527.46,577.01L527.7,577.01L527.93,577.01L528.17,577.01L528.41,577.01L528.65,577.01L528.88,577.01L529.12,577.01L529.36,577.91L529.6,577.91L529.83,577.91L530.07,577.91L530.31,577.91L530.55,577.91L530.78,577.91L531.02,577.91L531.26,577.91L531.5,577.91L531.73,577.91L531.97,577.91L532.21,577.91L532.45,577.91L532.69,577.91L532.92,577.91L533.16,577.91L533.4,577.91L533.64,577.91L533.87,577.91L534.11,577.91L534.35,577.91L534.59,577.91L534.82,577.91L535.06,577.91L535.3,577.91L535.54,577.91L535.77,577.91L536.01,577.91L536.25,577.91L536.49,577.91L536.72,577.91L536.96,577.91L537.2,577.91L537.44,577.91L537.67,577.91L537.91,577.91L538.15,577.91L538.39,577.91L538.62,577.91L538.86,577.91L539.1,577.91L539.34,577.91L539.57,577.91L539.81,577.91L540.05,577.91L540.29,577.91L540.52,577.91L540.76,577.91L541,577.91L541.24,577.91L541.47,577.91L541.71,577.91L541.95,577.91L542.19,577.91L542.42,578.1L542.66,578.1L542.9,578.1L543.14,578.1L543.37,578.1L543.61,578.1L543.85,578.1L544.09,578.1L544.33,578.1L544.56,578.1L544.8,578.1L545.04,578.1L545.28,578.21L545.51,578.21L545.75,578.21L545.99,578.21L546.23,578.21L546.46,578.21L546.7,578.21L546.94,578.21L547.18,578.21L547.41,578.21L547.65,578.21L547.89,578.21L548.13,578.21L548.36,578.32L548.6,580.98L548.84,580.98L549.08,580.98L549.31,580.98L549.55,580.98L549.79,580.98L550.03,580.98L550.26,580.98L550.5,580.98L550.74,580.98L550.98,580.98L551.21,580.98L551.45,580.98L551.69,580.98L551.93,581.3L552.16,581.3L552.4,581.3L552.64,581.3L552.88,581.3L553.11,581.3L553.35,581.3L553.59,581.3L553.83,581.3L554.06,581.3L554.3,581.3L554.54,581.3L554.78,581.3L555.01,581.3L555.25,581.3L555.49,581.3L555.73,581.3L555.97,581.3L556.2,581.3L556.44,581.3L556.68,581.3L556.92,581.3L557.15,581.3L557.39,581.3L557.63,581.3L557.87,581.3L558.1,581.3L558.34,581.3L558.58,581.3L558.82,581.3L559.05,581.3L559.29,581.3L559.53,581.3L559.77,581.3L560,581.3L560.24,581.3L560.48,581.3L560.72,581.3L560.95,581.34L561.19,581.34L561.43,581.34L561.67,581.34L561.9,581.34L562.14,581.34L562.38,581.34L562.62,581.34L562.85,581.34L563.09,581.34L563.33,581.34L563.57,581.34L563.8,581.34L564.04,581.34L564.28,581.34L564.52,581.34L564.75,581.34L564.99,581.34L565.23,581.34L565.47,581.34L565.7,581.34L565.94,581.34L566.18,581.34L566.42,581.34L566.65,581.34L566.89,581.34L567.13,581.34L567.37,581.34L567.61,581.34L567.84,583.92L568.08,583.92L568.32,583.92L568.56,583.92L568.79,583.92L569.03,583.92L569.27,583.92L569.51,583.92L569.74,583.92L569.98,583.92L570.22,583.92L570.46,583.92L570.69,583.92L570.93,583.92L571.17,583.92L571.41,583.92L571.64,583.92L571.88,583.92L572.12,583.92L572.36,583.92L572.59,583.92L572.83,583.92L573.07,583.92L573.31,583.92L573.54,583.92L573.78,583.92L574.02,583.92L574.26,583.92L574.49,583.92L574.73,583.92L574.97,583.92L575.21,583.92L575.44,583.95L575.68,583.95L575.92,583.95L576.16,583.95L576.39,583.95L576.63,583.95L576.87,583.95L577.11,583.95L577.34,583.95L577.58,583.95L577.82,583.95L578.06,583.95L578.29,583.95L578.53,583.95L578.77,583.95L579.01,583.95L579.24,583.95L579.48,583.98L579.72,583.98L579.96,583.98L580.2,583.98L580.43,583.98L580.67,583.98L580.91,583.98L581.15,583.98L581.38,583.98L581.62,583.98L581.86,583.98L582.1,584.16L582.33,584.36L582.57,584.36L582.81,584.36L583.05,584.36L583.28,584.36L583.52,584.36L583.76,584.36L584,584.36L584.23,584.36L584.47,584.36L584.71,584.36L584.95,585.44L585.18,585.44L585.42,585.44L585.66,585.44L585.9,585.44L586.13,585.44L586.37,585.44L586.61,585.44L586.85,585.44L587.08,585.44L587.32,585.44L587.56,585.44L587.8,585.44L588.03,585.44L588.27,585.44L588.51,585.44L588.75,585.44L588.98,585.44L589.22,585.44L589.46,585.44L589.7,585.44L589.93,585.44L590.17,585.44L590.41,585.44L590.65,585.44L590.88,585.44L591.12,585.44L591.36,585.44L591.6,585.44L591.84,585.44L592.07,585.44L592.31,585.44L592.55,585.44L592.79,585.44L593.02,585.44L593.26,585.44L593.5,585.44L593.74,585.44L593.97,585.44L594.21,585.44L594.45,585.44L594.69,585.44L594.92,585.44L595.16,585.44L595.4,585.44L595.64,585.44L595.87,585.44L596.11,585.44L596.35,585.44L596.59,585.44L596.82,585.44L597.06,585.44L597.3,585.44L597.54,585.44L597.77,585.44L598.01,585.44L598.25,585.44L598.49,585.44L598.72,585.44L598.96,585.44L599.2,585.44L599.44,585.47L599.67,585.49L599.91,585.51L600.15,585.51L600.39,585.51L600.62,585.51L600.86,585.51L601.1,585.51L601.34,585.51L601.57,585.51L601.81,585.51L602.05,585.51L602.29,585.51L602.52,585.51L602.76,585.51L603,585.51L603.24,585.51L603.48,585.51L603.71,585.51L603.95,585.51L604.19,585.51L604.43,585.51L604.66,585.51L604.9,585.93L605.14,588.04L605.38,588.04L605.61,588.04L605.85,588.04L606.09,588.04L606.33,588.04L606.56,588.04L606.8,588.04L607.04,588.04L607.28,588.04L607.51,588.04L607.75,588.04L607.99,588.04L608.23,588.04L608.46,588.04L608.7,588.04L608.94,588.04L609.18,588.04L609.41,588.04L609.65,588.04L609.89,588.04L610.13,588.04L610.36,588.04L610.6,588.04L610.84,588.04L611.08,588.04L611.31,588.04L611.55,588.04L611.79,588.04L612.03,588.04L612.26,588.04L612.5,588.04L612.74,588.04L612.98,588.04L613.21,588.04L613.45,588.04L613.69,588.04L613.93,588.04L614.16,588.04L614.4,588.04L614.64,588.04L614.88,588.04L615.11,588.04L615.35,588.04L615.59,588.04L615.83,588.04L616.07,588.04L616.3,588.04L616.54,588.07L616.78,588.07L617.02,588.07L617.25,588.07L617.49,588.07L617.73,588.07L617.97,588.07L618.2,588.07L618.44,588.07L618.68,588.07L618.92,588.07L619.15,588.07L619.39,588.07L619.63,588.07L619.87,588.07L620.1,588.07L620.34,588.07L620.58,588.07L620.82,588.07L621.05,588.07L621.29,588.07L621.53,588.07L621.77,588.07L622,588.07L622.24,588.09L622.48,588.09L622.72,588.09L622.95,588.09L623.19,588.09L623.43,588.09L623.67,588.09L623.9,588.09L624.14,588.09L624.38,588.09L624.62,588.09L624.85,588.09L625.09,588.09L625.33,588.09L625.57,588.09L625.8,588.09L626.04,588.09L626.28,588.09L626.52,588.09L626.75,588.09L626.99,588.87L627.23,591.9L627.47,591.9L627.71,591.9L627.94,591.9L628.18,591.9L628.42,591.9L628.66,591.9L628.89,591.9L629.13,591.9L629.37,591.9L629.61,591.9L629.84,591.9L630.08,591.9L630.32,591.9L630.56,591.9L630.79,591.9L631.03,591.9L631.27,591.9L631.51,591.9L631.74,591.9L631.98,591.9L632.22,591.9L632.46,591.9L632.69,591.9L632.93,591.9L633.17,591.9L633.41,591.9L633.64,591.9L633.88,591.9L634.12,591.9L634.36,591.9L634.59,591.9L634.83,591.92L635.07,591.92L635.31,591.92L635.54,591.92L635.78,591.92L636.02,591.92L636.26,591.92L636.49,591.92L636.73,591.93L636.97,591.93L637.21,591.93L637.44,591.93L637.68,591.93L637.92,591.93L638.16,591.93L638.39,591.93L638.63,591.93L638.87,591.93L639.11,591.93L639.35,591.93L639.58,591.93L639.82,591.93L640.06,591.93L640.3,591.93L640.53,591.93L640.77,591.93L641.01,592.03L641.25,592.03L641.48,592.03L641.72,594.03L641.96,596.37L642.2,596.37L642.43,596.37L642.67,596.37L642.91,596.37L643.15,596.37L643.38,596.37L643.62,596.37L643.86,596.37L644.1,596.37L644.33,596.37L644.57,596.37L644.81,596.37L645.05,596.37L645.28,596.37L645.52,596.37L645.76,596.37L646,596.37L646.23,596.37L646.47,596.37L646.71,596.37L646.95,596.37L647.18,596.37L647.42,596.37L647.66,596.37L647.9,596.37L648.13,596.37L648.37,596.37L648.61,596.37L648.85,596.37L649.08,596.37L649.32,596.37L649.56,596.48L649.8,596.48L650.03,596.48L650.27,596.48L650.51,596.48L650.75,596.48L650.98,596.48L651.22,596.48L651.46,596.49L651.7,596.49L651.94,596.49L652.17,596.49L652.41,596.49L652.65,596.49L652.89,596.49L653.12,596.49L653.36,596.49L653.6,596.49L653.84,596.49L654.07,596.49L654.31,596.49L654.55,596.49L654.79,596.49L655.02,596.49L655.26,596.49L655.5,596.49L655.74,596.49L655.97,596.49L656.21,596.49L656.45,596.49L656.69,596.49L656.92,598.31L657.16,598.92L657.4,598.96L657.64,598.96L657.87,598.96L658.11,598.96L658.35,598.96L658.59,598.96L658.82,598.96L659.06,598.96L659.3,598.96L659.54,598.96L659.77,598.96L660.01,598.96L660.25,598.96L660.49,598.96L660.72,598.96L660.96,598.96L661.2,598.96L661.44,598.96L661.67,598.96L661.91,598.96L662.15,598.96L662.39,598.96L662.62,598.96L662.86,598.96L663.1,598.96L663.34,598.96L663.58,598.96L663.81,598.96L664.05,598.96L664.29,598.96L664.53,598.96L664.76,598.96L665,598.96L665.24,598.96L665.48,598.96L665.71,598.96L665.95,598.96L666.19,598.96L666.43,598.96L666.66,598.96L666.9,598.96L667.14,598.96L667.38,598.98L667.61,598.98L667.85,598.98L668.09,598.98L668.33,598.98L668.56,598.98L668.8,598.98L669.04,598.98L669.28,598.98L669.51,598.98L669.75,598.98L669.99,598.98L670.23,598.98L670.46,598.99L670.7,598.99L670.94,598.99L671.18,598.99L671.41,598.99L671.65,598.99L671.89,598.99L672.13,598.99L672.36,598.99L672.6,598.99L672.84,598.99L673.08,598.99L673.31,598.99L673.55,598.99L673.79,598.99L674.03,598.99L674.26,599L674.5,599L674.74,599L674.98,599L675.22,599L675.45,599L675.69,599L675.93,599L676.17,599L676.4,599L676.64,599L676.88,599L677.12,599.45L677.35,599.45L677.59,599.45L677.83,599.45L678.07,599.45L678.3,599.45L678.54,599.45L678.78,599.45L679.02,599.45L679.25,599.45L679.49,601.37L679.73,602.02L679.97,603.94L680.2,603.94L680.44,603.94L680.68,603.94L680.92,603.94L681.15,603.94L681.39,603.94L681.63,603.94L681.87,603.94L682.1,603.94L682.34,603.94L682.58,603.94L682.82,603.94L683.05,603.94L683.29,603.94L683.53,603.94L683.77,603.94L684,603.94L684.24,603.94L684.48,603.94L684.72,603.94L684.95,603.94L685.19,603.94L685.43,603.94L685.67,603.94L685.9,603.94L686.14,603.94L686.38,603.94L686.62,603.98L686.86,603.98L687.09,603.98L687.33,603.98L687.57,603.98L687.81,603.98L688.04,603.98L688.28,603.98L688.52,603.98L688.76,603.98L688.99,603.98L689.23,603.98L689.47,603.98L689.71,603.98L689.94,603.98L690.18,603.98L690.42,603.98L690.66,603.98L690.89,604.31L691.13,604.31L691.37,604.31L691.61,604.31L691.84,607.42L692.08,610.56L692.32,610.56L692.56,610.56L692.79,610.56L693.03,610.56L693.27,610.56L693.51,610.56L693.74,610.56L693.98,610.74L694.22,610.74L694.46,610.74L694.69,610.74L694.93,610.74L695.17,610.74L695.41,610.74L695.64,610.74L695.88,610.74L696.12,610.74L696.36,610.74L696.59,610.74L696.83,610.74L697.07,611.07L697.31,611.71L697.54,611.71L697.78,611.71L698.02,611.71L698.26,611.71L698.49,611.71L698.73,611.71L698.97,611.71L699.21,611.71L699.45,611.71L699.68,611.71L699.92,611.71L700.16,611.71L700.4,611.71L700.63,611.71L700.87,611.71L701.11,611.71L701.35,611.71L701.58,611.71L701.82,611.71L702.06,611.71L702.3,611.71L702.53,611.71L702.77,611.71L703.01,611.71L703.25,611.71L703.48,611.71L703.72,611.71L703.96,611.71L704.2,611.71L704.43,611.71L704.67,611.71L704.91,611.71L705.15,611.71L705.38,611.71L705.62,611.71L705.86,611.71L706.1,611.71L706.33,611.71L706.57,611.71L706.81,611.71L707.05,611.71L707.28,611.71L707.52,611.73L707.76,611.75L708,611.75L708.23,611.75L708.47,611.75L708.71,611.75L708.95,611.75L709.18,611.75L709.42,611.75L709.66,611.75L709.9,611.75L710.13,611.75L710.37,611.75L710.61,611.75L710.85,611.75L711.09,611.75L711.32,611.75L711.56,611.75L711.8,611.75L712.04,611.75L712.27,611.75L712.51,611.75L712.75,613.34L712.99,613.34L713.22,613.34L713.46,613.34L713.7,613.34L713.94,613.34L714.17,613.34L714.41,613.34L714.65,613.34L714.89,613.34L715.12,613.34L715.36,613.34L715.6,613.34L715.84,613.34L716.07,613.34L716.31,613.34L716.55,613.34L716.79,613.34L717.02,613.34L717.26,613.34L717.5,613.34L717.74,613.34L717.97,613.34L718.21,613.34L718.45,613.34L718.69,613.34L718.92,613.34L719.16,613.34L719.4,613.34L719.64,613.34L719.87,613.34L720.11,613.34L720.35,613.34L720.59,613.34L720.82,613.34L721.06,613.34L721.3,613.34L721.54,613.34L721.77,613.34L722.01,613.34L722.25,613.34L722.49,613.34L722.73,613.34L722.96,613.34L723.2,613.34L723.44,613.34L723.68,613.34L723.91,613.34L724.15,613.34L724.39,613.34L724.63,613.34L724.86,613.34L725.1,613.34L725.34,613.34L725.58,613.34L725.81,613.34L726.05,613.34L726.29,613.34L726.53,613.35L726.76,613.35L727,613.35L727.24,613.35L727.48,613.35L727.71,613.35L727.95,613.35L728.19,613.35L728.43,613.35L728.66,613.35L728.9,613.35L729.14,613.35L729.38,613.35L729.61,613.35L729.85,613.35L730.09,613.35L730.33,613.35L730.56,613.35L730.8,613.35L731.04,613.35L731.28,613.35L731.51,613.35L731.75,613.4L731.99,613.4L732.23,613.4L732.46,613.4L732.7,613.4L732.94,613.4L733.18,613.4L733.41,613.4L733.65,613.4L733.89,613.4L734.13,613.4L734.36,613.4L734.6,613.4L734.84,613.4L735.08,613.4L735.32,613.4L735.55,613.4L735.79,613.4L736.03,613.4L736.27,613.4L736.5,613.4L736.74,613.4L736.98,613.4L737.22,613.4L737.45,613.4L737.69,613.4L737.93,613.4L738.17,613.4L738.4,613.4L738.64,613.4L738.88,613.41L739.12,613.41L739.35,613.41L739.59,613.41L739.83,613.41L740.07,613.41L740.3,613.41L740.54,613.41L740.78,613.41L741.02,613.41L741.25,613.41L741.49,613.41L741.73,613.41L741.97,613.41L742.2,613.41L742.44,614.85L742.68,614.85L742.92,614.85L743.15,614.85L743.39,614.85L743.63,614.85L743.87,614.85L744.1,614.85L744.34,614.85L744.58,614.85L744.82,614.85L745.05,614.85L745.29,614.85L745.53,614.85L745.77,614.85L746,614.85L746.24,614.85L746.48,614.85L746.72,614.85L746.96,614.85L747.19,614.85L747.43,614.85L747.67,614.85L747.91,614.85L748.14,614.85L748.38,614.85L748.62,614.85L748.86,614.85L749.09,614.85L749.33,614.85L749.57,614.85L749.81,614.85L750.04,614.85L750.28,614.85L750.52,614.85L750.76,614.85L750.99,614.85L751.23,614.87L751.47,614.87L751.71,614.87L751.94,614.88L752.18,614.89L752.42,614.89L752.66,614.89L752.89,614.89L753.13,614.89L753.37,614.89L753.61,614.89L753.84,614.89L754.08,614.89L754.32,614.89L754.56,614.89L754.79,615.64L755.03,618.4L755.27,618.4L755.51,618.4L755.74,618.4L755.98,618.4L756.22,618.4L756.46,618.4L756.69,618.4L756.93,618.4L757.17,618.4L757.41,618.4L757.64,618.4L757.88,618.4L758.12,618.4L758.36,618.4L758.6,618.4L758.83,618.4L759.07,618.4L759.31,618.4L759.55,618.4L759.78,618.4L760.02,618.4L760.26,618.4L760.5,618.4L760.73,618.4L760.97,618.4L761.21,618.4L761.45,618.4L761.68,618.4L761.92,618.4L762.16,618.4L762.4,618.4L762.63,618.4L762.87,618.4L763.11,618.4L763.35,618.4L763.58,618.4L763.82,618.4L764.06,618.4L764.3,618.4L764.53,618.4L764.77,618.4L765.01,618.4L765.25,618.4L765.48,618.4L765.72,618.4L765.96,618.4L766.2,618.4L766.43,618.4L766.67,618.4L766.91,618.4L767.15,618.4L767.38,618.4L767.62,618.4L767.86,618.4L768.1,618.4L768.33,618.4L768.57,618.4L768.81,618.4L769.05,618.4L769.28,618.4L769.52,618.45L769.76,618.45L770,618.45L770.24,618.45L770.47,618.45L770.71,618.45L770.95,618.45L771.19,618.45L771.42,618.45L771.66,618.45L771.9,618.45L772.14,618.45L772.37,618.45L772.61,618.45L772.85,618.45L773.09,618.45L773.32,618.45L773.56,618.45L773.8,618.45L774.04,618.45L774.27,618.45L774.51,618.45L774.75,618.45L774.99,621.95L775.22,624.79L775.46,624.79L775.7,624.79L775.94,624.79L776.17,624.79L776.41,624.79L776.65,624.79L776.89,624.79L777.12,624.79L777.36,624.79L777.6,624.79L777.84,624.79L778.07,624.79L778.31,624.79L778.55,624.79L778.79,624.79L779.02,624.79L779.26,624.79L779.5,624.79L779.74,624.79L779.97,624.79L780.21,624.79L780.45,624.79L780.69,624.79L780.92,624.79L781.16,624.79L781.4,624.79L781.64,624.79L781.87,624.79L782.11,624.79L782.35,624.79L782.59,624.79L782.83,624.79L783.06,624.79L783.3,624.79L783.54,624.79L783.78,624.79L784.01,624.79L784.25,624.79L784.49,624.79L784.73,624.79L784.96,624.79L785.2,624.79L785.44,624.79L785.68,626.07L785.91,627.43L786.15,627.43L786.39,627.43L786.63,627.43L786.86,627.43L787.1,627.43L787.34,627.43L787.58,627.43L787.81,627.43L788.05,627.43L788.29,627.43L788.53,627.43L788.76,627.43L789,627.43L789.24,627.43L789.48,627.43L789.71,627.43L789.95,627.43L790.19,627.43L790.43,627.43L790.66,627.43L790.9,627.51L791.14,627.51L791.38,627.51L791.61,627.51L791.85,627.51L792.09,627.51L792.33,627.51L792.56,627.51L792.8,627.51L793.04,627.51L793.28,627.51L793.51,627.51L793.75,627.51L793.99,627.51L794.23,627.51L794.47,627.51L794.7,627.51L794.94,627.51L795.18,627.51L795.42,627.51L795.65,627.51L795.89,627.51L796.13,627.51L796.37,627.51L796.6,627.51L796.84,627.51L797.08,627.51L797.32,627.51L797.55,627.51L797.79,627.51L798.03,627.51L798.27,627.51L798.5,627.51L798.74,627.51L798.98,628.88L799.22,628.88L799.45,628.88L799.69,628.88L799.93,628.88L800.17,628.88L800.4,628.88L800.64,628.88L800.88,628.88L801.12,628.88L801.35,628.88L801.59,628.88L801.83,628.88L802.07,628.88L802.3,628.88L802.54,628.88L802.78,628.88L803.02,628.88L803.25,628.88L803.49,628.88L803.73,628.88L803.97,628.88L804.2,628.88L804.44,628.88L804.68,628.88L804.92,628.88L805.15,628.88L805.39,628.88L805.63,628.88L805.87,628.88L806.11,628.88L806.34,628.88L806.58,628.88L806.82,628.88L807.06,628.88L807.29,628.88L807.53,628.88L807.77,628.88L808.01,628.88L808.24,628.88L808.48,628.88L808.72,628.88L808.96,628.88L809.19,628.88L809.43,628.88L809.67,628.88L809.91,628.88L810.14,628.88L810.38,628.88L810.62,628.88L810.86,628.88L811.09,628.88L811.33,628.88L811.57,628.88L811.81,628.88L812.04,628.88L812.28,628.88L812.52,628.88L812.76,628.88L812.99,628.88L813.23,628.88L813.47,628.88L813.71,628.88L813.94,628.94L814.18,629.52L814.42,629.52L814.66,629.52L814.89,629.52L815.13,629.52L815.37,629.52L815.61,629.52L815.84,629.52L816.08,629.52L816.32,629.52L816.56,631.92L816.79,631.92L817.03,631.92L817.27,631.92L817.51,631.92L817.74,631.92L817.98,631.92L818.22,631.92L818.46,631.92L818.7,631.92L818.93,631.92L819.17,631.92L819.41,631.92L819.65,631.92L819.88,631.92L820.12,631.92L820.36,631.92L820.6,631.92L820.83,631.92L821.07,631.92L821.31,631.92L821.55,631.92L821.78,631.92L822.02,631.92L822.26,631.92L822.5,631.92L822.73,631.92L822.97,631.92L823.21,631.92L823.45,631.92L823.68,631.92L823.92,631.92L824.16,631.92L824.4,631.92L824.63,631.92L824.87,631.92L825.11,631.92L825.35,631.92L825.58,631.92L825.82,631.92L826.06,631.92L826.3,631.92L826.53,631.92L826.77,631.92L827.01,631.92L827.25,631.92L827.48,631.92L827.72,631.92L827.96,631.92L828.2,631.92L828.43,631.92L828.67,631.92L828.91,631.92L829.15,631.92L829.38,631.92L829.62,631.92L829.86,631.92L830.1,631.92L830.34,631.92L830.57,631.92L830.81,631.92L831.05,631.92L831.29,631.92L831.52,631.92L831.76,631.92L832,631.92L832.24,631.92L832.47,631.92L832.71,631.92L832.95,631.92L833.19,631.92L833.42,631.92L833.66,631.92L833.9,631.92L834.14,635.38L834.37,639.07L834.61,639.07L834.85,639.07L835.09,639.07L835.32,639.07L835.56,639.07L835.8,639.07L836.04,639.07L836.27,639.07L836.51,639.07L836.75,639.07L836.99,639.07L837.22,639.07L837.46,639.11L837.7,639.15L837.94,639.18L838.17,639.18L838.41,639.18L838.65,639.18L838.89,639.18L839.12,639.18L839.36,639.18L839.6,639.18L839.84,639.18L840.07,639.18L840.31,639.18L840.55,639.62L840.79,640.79L841.02,640.79L841.26,640.79L841.5,640.79L841.74,640.79L841.98,640.79L842.21,640.79L842.45,640.79L842.69,640.79L842.93,640.79L843.16,640.79L843.4,640.79L843.64,640.87L843.88,644.06L844.11,644.06L844.35,644.06L844.59,644.06L844.83,644.06L845.06,644.06L845.3,644.13L845.54,644.13L845.78,644.13L846.01,644.13L846.25,644.13L846.49,644.13L846.73,644.13L846.96,644.13L847.2,644.13L847.44,644.13L847.68,644.13L847.91,644.13L848.15,644.13L848.39,644.13L848.63,644.13L848.86,644.13L849.1,644.13L849.34,644.13L849.58,644.13L849.81,644.13L850.05,644.13L850.29,644.13L850.53,644.13L850.76,644.13L851,644.13L851.24,644.13L851.48,644.13L851.71,644.13L851.95,644.13L852.19,644.13L852.43,644.13L852.66,644.13L852.9,644.13L853.14,644.13L853.38,644.13L853.62,644.13L853.85,644.13L854.09,644.13L854.33,644.13L854.57,644.13L854.8,644.13L855.04,644.13L855.28,644.13L855.52,644.13L855.75,644.13L855.99,644.13L856.23,644.17L856.47,644.19L856.7,644.19L856.94,644.19L857.18,644.19L857.42,644.19L857.65,644.19L857.89,644.19L858.13,644.19L858.37,644.19L858.6,644.19L858.84,644.19L859.08,644.19L859.32,644.19L859.55,644.19L859.79,644.19L860.03,644.19L860.27,644.19L860.5,644.19L860.74,644.19L860.98,644.19L861.22,644.19L861.45,644.19L861.69,644.26L861.93,644.27L862.17,644.27L862.4,644.27L862.64,644.27L862.88,644.27L863.12,644.27L863.35,644.27L863.59,644.27L863.83,644.27L864.07,644.27L864.3,644.27L864.54,644.27L864.78,644.27L865.02,644.27L865.25,644.27L865.49,644.27L865.73,644.27L865.97,644.27L866.21,644.27L866.44,644.27L866.68,644.27L866.92,644.29L867.16,644.3L867.39,644.3L867.63,644.66L867.87,647.02L868.11,647.02L868.34,647.02L868.58,647.02L868.82,647.02L869.06,647.02L869.29,647.02L869.53,647.02L869.77,647.02L870.01,647.02L870.24,647.02L870.48,647.02L870.72,647.02L870.96,647.02L871.19,647.02L871.43,647.02L871.67,647.02L871.91,647.02L872.14,647.02L872.38,647.02L872.62,647.02L872.86,647.02L873.09,647.02L873.33,647.02L873.57,647.02L873.81,647.02L874.04,647.02L874.28,647.02L874.52,647.02L874.76,647.02L874.99,647.02L875.23,647.02L875.47,647.02L875.71,647.02L875.94,647.02L876.18,647.02L876.42,647.02L876.66,647.02L876.89,647.02L877.13,647.03L877.37,647.1L877.61,647.13L877.85,647.13L878.08,647.13L878.32,647.13L878.56,647.13L878.8,647.13L879.03,647.13L879.27,647.13L879.51,647.13L879.75,649.15L879.98,650.5L880.22,650.5L880.46,650.5L880.7,650.5L880.93,650.5L881.17,650.5L881.41,650.5L881.65,650.5L881.88,650.5L882.12,650.5L882.36,650.5L882.6,650.5L882.83,650.5L883.07,652.01L883.31,655.64L883.55,657.01L883.78,657.01L884.02,657.01L884.26,657.01L884.5,657.01L884.73,657.01L884.97,657.01L885.21,657.01L885.45,657.01L885.68,657.01L885.92,657.01L886.16,657.01L886.4,657.01L886.63,657.01L886.87,657.01L887.11,657.01L887.35,657.01L887.58,657.01L887.82,657.01L888.06,657.01L888.3,657.01L888.53,657.01L888.77,657.01L889.01,657.01L889.25,657.01L889.49,657.01L889.72,657.01L889.96,657.01L890.2,657.01L890.44,657.01L890.67,657.01L890.91,657.01L891.15,657.01L891.39,657.01L891.62,657.01L891.86,657.01L892.1,657.01L892.34,657.01L892.57,657.01L892.81,657.01L893.05,657.01L893.29,657.01L893.52,657.01L893.76,657.01L894,657.01L894.24,657.01L894.47,657.01L894.71,657.01L894.95,657.01L895.19,657.01L895.42,657.01L895.66,657.12L895.9,657.8L896.14,657.9L896.37,657.9L896.61,657.9L896.85,657.9L897.09,657.9L897.32,657.9L897.56,657.9L897.8,657.9L898.04,657.9L898.27,657.9L898.51,657.91L898.75,657.91L898.99,657.91L899.22,658.13L899.46,658.13L899.7,658.13L899.94,658.13L900.17,658.13L900.41,658.13L900.65,658.13L900.89,658.13L901.12,658.13L901.36,658.13L901.6,658.13L901.84,658.13L902.08,658.13L902.31,658.13L902.55,658.13L902.79,658.66L903.03,658.66L903.26,658.66L903.5,658.66L903.74,658.66L903.98,658.66L904.21,658.66L904.45,658.66L904.69,658.66L904.93,658.66L905.16,658.66L905.4,658.66L905.64,658.68L905.88,658.68L906.11,658.68L906.35,658.68L906.59,658.68L906.83,658.68L907.06,658.68L907.3,658.68L907.54,658.68L907.78,658.68L908.01,658.68L908.25,658.68L908.49,658.68L908.73,658.7L908.96,658.7L909.2,658.7L909.44,658.7L909.68,658.7L909.91,658.7L910.15,658.7L910.39,658.7L910.63,658.7L910.86,658.7L911.1,658.7L911.34,658.73L911.58,658.92L911.81,662.65L912.05,666.43L912.29,666.43L912.53,666.43L912.76,666.43L913,666.43L913.24,666.43L913.48,666.43L913.72,666.43L913.95,666.43L914.19,666.43L914.43,666.43L914.67,666.43L914.9,666.43L915.14,666.43L915.38,666.43L915.62,666.43L915.85,666.43L916.09,666.43L916.33,666.43L916.57,666.43L916.8,666.43L917.04,666.43L917.28,666.43L917.52,666.43L917.75,666.43L917.99,666.43L918.23,666.43L918.47,666.43L918.7,666.43L918.94,666.43L919.18,666.43L919.42,666.43L919.65,666.43L919.89,666.43L920.13,666.43L920.37,666.43L920.6,666.43L920.84,666.43L921.08,666.43L921.32,666.43L921.55,666.43L921.79,666.43L922.03,666.43L922.27,666.43L922.5,666.43L922.74,666.43L922.98,666.85L923.22,668.03L923.45,668.03L923.69,668.03L923.93,668.03L924.17,668.03L924.4,668.03L924.64,668.03L924.88,668.03L925.12,668.03L925.36,668.03L925.59,668.03L925.83,668.03L926.07,668.03L926.31,668.05L926.54,668.06L926.78,668.06L927.02,668.06L927.26,668.06L927.49,668.06L927.73,668.06L927.97,668.06L928.21,668.06L928.44,668.06L928.68,668.06L928.92,668.06L929.16,668.06L929.39,668.06L929.63,668.06L929.87,668.06L930.11,668.06L930.34,668.06L930.58,668.06L930.82,668.06L931.06,668.06L931.29,668.06L931.53,668.06L931.77,668.06L932.01,668.06L932.24,668.06L932.48,668.06L932.72,668.06L932.96,668.06L933.19,668.06L933.43,668.06L933.67,668.06L933.91,668.06L934.14,668.06L934.38,668.06L934.62,668.06L934.86,668.1L935.09,668.1L935.33,668.1L935.57,668.1L935.81,668.1L936.04,668.1L936.28,668.1L936.52,668.13L936.76,668.13L936.99,668.13L937.23,668.13L937.47,668.13L937.71,668.13L937.95,668.13L938.18,668.13L938.42,668.13L938.66,668.13L938.9,668.13L939.13,668.13L939.37,668.13L939.61,668.13L939.85,668.13L940.08,668.13L940.32,668.13L940.56,668.13L940.8,668.13L941.03,668.13L941.27,668.13L941.51,668.13L941.75,668.13L941.98,668.13L942.22,668.13L942.46,668.13L942.7,668.13L942.93,668.13L943.17,668.9L943.41,668.9L943.65,668.9L943.88,668.9L944.12,668.9L944.36,668.9L944.6,668.9L944.83,668.9L945.07,668.9L945.31,668.9L945.55,668.9L945.78,668.9L946.02,668.9L946.26,668.9L946.5,668.9L946.73,669.01L946.97,669.01L947.21,669.01L947.45,669.01L947.68,669.01L947.92,669.01L948.16,669.01L948.4,669.01L948.63,669.01L948.87,669.01L949.11,669.01L949.35,669.01L949.59,669.01L949.82,669.01L950.06,669.01L950.3,669.01L950.54,669.01L950.77,669.01L951.01,669.01L951.25,669.01L951.49,669.01L951.72,669.01L951.96,669.01L952.2,669.01L952.44,669.01L952.67,669.01L952.91,669.01L953.15,669.01L953.39,669.01L953.62,669.01L953.86,669.01L954.1,669.01L954.34,669.01L954.57,669.01L954.81,669.01L955.05,669.01L955.29,669.01L955.52,669.01L955.76,669.01L956,669.01L956.24,669.01L956.47,665.68L956.71,665.68L956.95,665.68L957.19,665.68L957.42,665.68L957.66,665.68L957.9,665.68L958.14,665.74L958.37,665.75L958.61,665.82L958.85,665.87L959.09,665.9L959.32,665.9L959.56,665.9L959.8,665.9L960.04,665.9L960.27,665.9L960.51,665.9L960.75,665.9L960.99,666.53L961.23,666.53L961.46,666.53L961.7,666.53L961.94,666.53L962.18,666.53L962.41,666.53L962.65,666.53L962.89,668.11L963.13,668.11L963.36,668.11L963.6,668.11L963.84,668.11L964.08,668.11L964.31,668.95L964.55,668.95L964.79,668.95L965.03,669.06L965.26,669.25L965.5,669.25L965.74,669.25L965.98,669.25L966.21,669.25L966.45,669.25L966.69,669.25L966.93,669.25L967.16,669.25L967.4,669.25L967.64,669.25L967.88,669.25L968.11,669.25L968.35,669.25L968.59,669.25L968.83,669.28L969.06,669.28L969.3,669.28L969.54,669.28L969.78,669.28L970.01,669.28L970.25,669.28L970.49,669.28L970.73,669.28L970.96,669.34L971.2,669.34L971.44,669.34L971.68,669.34L971.91,669.34L972.15,669.34L972.39,669.34L972.63,669.34L972.87,669.34L973.1,669.34L973.34,669.34L973.58,669.39L973.82,669.39L974.05,669.39L974.29,669.39L974.53,669.39L974.77,669.39L975,669.39L975.24,669.39L975.48,669.39L975.72,669.39L975.95,669.39L976.19,669.39L976.43,669.39L976.67,669.39L976.9,669.39L977.14,669.39L977.38,669.39L977.62,671.2L977.85,672.08L978.09,672.08L978.33,672.08L978.57,672.08L978.8,672.08L979.04,672.08L979.28,672.08L979.52,672.08L979.75,672.08L979.99,672.08L980.23,672.08L980.47,672.08L980.7,672.08L980.94,672.08L981.18,672.08L981.42,672.08L981.65,672.08L981.89,672.08L982.13,672.08L982.37,672.08L982.6,672.08L982.84,672.08L983.08,672.08L983.32,672.08L983.55,672.08L983.79,672.08L984.03,672.08L984.27,672.08L984.5,672.08L984.74,672.68L984.98,672.68L985.22,672.68L985.46,672.68L985.69,672.68L985.93,672.68L986.17,672.68L986.41,672.68L986.64,672.68L986.88,672.68L987.12,672.68L987.36,672.68L987.59,672.68L987.83,672.68L988.07,672.68L988.31,672.68L988.54,672.68L988.78,672.68L989.02,672.68L989.26,672.68L989.49,672.68L989.73,672.68L989.97,672.68L990.21,672.68L990.44,672.68L990.68,672.68L990.92,672.68L991.16,672.68L991.39,672.68L991.63,672.7L991.87,672.81L992.11,672.81L992.34,672.81L992.58,672.81L992.82,672.81L993.06,672.81L993.29,672.81L993.53,672.81L993.77,672.81L994.01,672.81L994.24,672.81L994.48,672.81L994.72,672.81L994.96,672.81L995.19,672.81L995.43,672.81L995.67,672.81L995.91,672.81L996.14,672.81L996.38,672.81L996.62,672.81L996.86,672.81L997.1,672.81L997.33,672.81L997.57,672.81L997.81,672.81L998.05,672.81L998.28,672.81L998.52,672.81L998.76,672.81L999,672.81L999.23,672.81L999.47,672.81L999.71,672.81L999.95,672.81L1000.2,672.81L1000.4,672.81L1000.7,672.81L1000.9,672.81L1001.1,672.81L1001.4,672.81L1001.6,672.81L1001.8,672.81L1002.1,672.81L1002.3,672.81L1002.6,672.81L1002.8,672.81L1003,672.81L1003.3,672.81L1003.5,672.81L1003.7,672.81L1004,672.81L1004.2,672.81L1004.5,672.82L1004.7,672.82L1004.9,672.82L1005.2,672.82L1005.4,672.83L1005.6,672.83L1005.9,672.83L1006.1,672.83L1006.4,672.83L1006.6,672.83L1006.8,672.83L1007.1,672.83L1007.3,672.83L1007.5,672.83L1007.8,672.83L1008,672.83L1008.3,672.83L1008.5,672.83L1008.7,672.83L1009,672.83L1009.2,672.83L1009.4,672.83L1009.7,672.83L1009.9,676.23L1010.2,677.13L1010.4,677.13L1010.6,677.13L1010.9,677.13L1011.1,677.13L1011.3,677.13L1011.6,677.13L1011.8,677.13L1012.1,677.13L1012.3,677.13L1012.5,677.13L1012.8,677.13L1013,677.13L1013.2,677.84L1013.5,677.84L1013.7,677.84L1014,677.84L1014.2,677.84L1014.4,678.06L1014.7,678.07L1014.9,678.07L1015.1,678.07L1015.4,678.07L1015.6,678.07L1015.9,678.07L1016.1,678.07L1016.3,678.07L1016.6,678.07L1016.8,678.07L1017,678.07L1017.3,678.07L1017.5,678.07L1017.8,678.07L1018,678.07L1018.2,678.07L1018.5,678.07L1018.7,678.07L1018.9,678.07L1019.2,678.07L1019.4,678.07L1019.7,678.07L1019.9,678.07L1020.1,680.73L1020.4,684.41L1020.6,684.74L1020.9,684.74L1021.1,684.74L1021.3,684.74L1021.6,684.74L1021.8,684.74L1022,684.74L1022.3,684.74L1022.5,684.74L1022.8,684.74L1023,684.74L1023.2,684.74L1023.5,684.74L1023.7,684.74L1023.9,684.74L1024.2,684.74L1024.4,684.74L1024.7,684.74L1024.9,684.74L1025.1,684.74L1025.4,684.74L1025.6,684.74L1025.8,684.74L1026.1,684.74L1026.3,685.16L1026.6,685.16L1026.8,685.16L1027,685.16L1027.3,685.16L1027.5,685.16L1027.7,685.16L1028,685.16L1028.2,685.16L1028.5,685.16L1028.7,685.16L1028.9,685.16L1029.2,685.16L1029.4,685.16L1029.6,685.16L1029.9,685.26L1030.1,685.26L1030.4,685.26L1030.6,685.26L1030.8,685.26L1031.1,685.26L1031.3,685.26L1031.5,685.26L1031.8,685.26L1032,685.26L1032.3,685.26L1032.5,685.26L1032.7,685.26L1033,685.26L1033.2,685.26L1033.4,685.26L1033.7,685.7L1033.9,685.7L1034.2,685.7L1034.4,685.7L1034.6,685.7L1034.9,685.7L1035.1,685.7L1035.3,685.7L1035.6,685.7L1035.8,685.7L1036.1,685.7L1036.3,685.7L1036.5,685.7L1036.8,685.7L1037,685.7L1037.2,685.7L1037.5,685.7L1037.7,685.7L1038,685.7L1038.2,685.7L1038.4,685.7L1038.7,685.7L1038.9,685.7L1039.1,685.7L1039.4,685.7L1039.6,685.72L1039.9,685.72L1040.1,685.72L1040.3,685.72L1040.6,685.72L1040.8,685.72L1041,685.72L1041.3,685.72L1041.5,685.72L1041.8,685.72L1042,685.72L1042.2,685.72L1042.5,685.72L1042.7,685.72L1042.9,685.72L1043.2,685.72L1043.4,685.72L1043.7,685.72L1043.9,685.72L1044.1,685.72L1044.4,685.72L1044.6,685.72L1044.8,685.81L1045.1,685.81L1045.3,685.81L1045.6,685.81L1045.8,685.81L1046,685.81L1046.3,685.81L1046.5,685.81L1046.7,685.81L1047,685.81L1047.2,685.81L1047.5,685.81L1047.7,685.81L1047.9,685.81L1048.2,685.81L1048.4,685.81L1048.6,685.81L1048.9,685.81L1049.1,685.81L1049.4,685.81L1049.6,685.81L1049.8,685.81L1050.1,685.81L1050.3,685.81L1050.5,685.81L1050.8,685.81L1051,685.81L1051.3,685.81L1051.5,685.81L1051.7,685.81L1052,685.81L1052.2,685.81L1052.4,685.81L1052.7,685.81L1052.9,685.81L1053.2,685.81L1053.4,685.81L1053.6,685.81L1053.9,685.81L1054.1,685.81L1054.3,685.81L1054.6,685.81L1054.8,685.81L1055.1,687.5L1055.3,690.42L1055.5,690.98L1055.8,690.98L1056,690.98L1056.2,691.03L1056.5,691.08L1056.7,691.13L1057,691.18L1057.2,691.2L1057.4,692.33L1057.7,695.26L1057.9,695.93L1058.1,695.93L1058.4,695.93L1058.6,695.93L1058.9,695.93L1059.1,699.88L1059.3,699.88L1059.6,699.88L1059.8,699.88L1060,699.88L1060.3,699.88L1060.5,699.88L1060.8,699.88L1061,699.88L1061.2,699.88L1061.5,699.88L1061.7,699.88L1061.9,699.88L1062.2,699.88L1062.4,699.88L1062.7,699.88L1062.9,699.88L1063.1,699.88L1063.4,699.88L1063.6,699.88L1063.8,699.88L1064.1,699.88L1064.3,699.88L1064.6,699.88L1064.8,699.88L1065,699.88L1065.3,699.88L1065.5,699.88L1065.7,699.88L1066,699.88L1066.2,699.88L1066.5,699.88L1066.7,699.88L1066.9,699.88L1067.2,699.88L1067.4,699.88L1067.6,699.88L1067.9,699.88L1068.1,699.88L1068.4,699.88L1068.6,700.88L1068.8,701.43L1069.1,701.43L1069.3,701.43L1069.5,701.43L1069.8,701.43L1070,701.43L1070.3,701.43L1070.5,701.43L1070.7,701.43L1071,701.43L1071.2,701.43L1071.4,701.43L1071.7,701.43L1071.9,701.43L1072.2,701.43L1072.4,701.43L1072.6,701.43L1072.9,701.43L1073.1,701.43L1073.3,701.43L1073.6,701.43L1073.8,701.43L1074.1,701.43L1074.3,701.43L1074.5,701.43L1074.8,701.43L1075,701.43L1075.2,701.43L1075.5,701.43L1075.7,701.43L1076,701.43L1076.2,701.43L1076.4,701.43L1076.7,701.43L1076.9,701.43L1077.1,701.43L1077.4,701.44L1077.6,701.44L1077.9,701.44L1078.1,701.44L1078.3,701.44L1078.6,701.44L1078.8,701.44L1079,701.44L1079.3,701.44L1079.5,701.44L1079.8,701.44L1080,701.44" style="fill:none;stroke:#F15A60;stroke-width:1.875" />
<path d="M1055,694.3L1080,694.3" style="fill:none;stroke:#F15A60;stroke-width:1.875" />
<text x="959.12" y="-687.85" transform="scale(1, -1)"
	style="font-family:Helvetica;font-weight:normal;font-style:normal;font-size:12pt">Consul v0.6.4</text>
</g>
</svg>
