<?xml version="1.0"?>
<!-- Generated by SVGo and Plotinum VG -->
<svg width="12in" height="8in"
	xmlns="http://www.w3.org/2000/svg"
	xmlns:xlink="http://www.w3.org/1999/xlink">
<g transform="scale(1, -1) translate(0, -720)">
<path d="M0,0L1080,0L1080,720L0,720Z" style="fill:#FFFFFF" />
<text x="284.08" y="-706.41" transform="scale(1, -1)"
	style="font-family:Helvetica;font-weight:normal;font-style:normal;font-size:12pt">Write 2M keys, 1000-client, 8-byte key, 256-byte value (Consul, Test 2), CPU</text>
<text x="544.64" y="-4.965" transform="scale(1, -1)"
	style="font-family:Helvetica;font-weight:normal;font-style:normal;font-size:12pt">Second</text>
<text x="56.662" y="-19.142" transform="scale(1, -1)"
	style="font-family:Helvetica;font-weight:normal;font-style:normal;font-size:10pt">0</text>
<text x="361.59" y="-19.142" transform="scale(1, -1)"
	style="font-family:Helvetica;font-weight:normal;font-style:normal;font-size:10pt">1000</text>
<text x="676.95" y="-19.142" transform="scale(1, -1)"
	style="font-family:Helvetica;font-weight:normal;font-style:normal;font-size:10pt">2000</text>
<text x="992.31" y="-19.142" transform="scale(1, -1)"
	style="font-family:Helvetica;font-weight:normal;font-style:normal;font-size:10pt">3000</text>
<path d="M60.137,30.467L60.137,40.467" style="fill:none;stroke:#000000;stroke-width:0.625" />
<path d="M375.49,30.467L375.49,40.467" style="fill:none;stroke:#000000;stroke-width:0.625" />
<path d="M690.85,30.467L690.85,40.467" style="fill:none;stroke:#000000;stroke-width:0.625" />
<path d="M1006.2,30.467L1006.2,40.467" style="fill:none;stroke:#000000;stroke-width:0.625" />
<path d="M217.82,35.468L217.82,40.467" style="fill:none;stroke:#000000;stroke-width:0.625" />
<path d="M533.17,35.468L533.17,40.467" style="fill:none;stroke:#000000;stroke-width:0.625" />
<path d="M848.53,35.468L848.53,40.467" style="fill:none;stroke:#000000;stroke-width:0.625" />
<path d="M60.137,40.467L1080,40.467" style="fill:none;stroke:#000000;stroke-width:0.625" />
<g transform="rotate(90)">
<text x="358.4" y="13.59" transform="scale(1, -1)"
	style="font-family:Helvetica;font-weight:normal;font-style:normal;font-size:12pt">CPU</text>
</g>
<text x="25.505" y="-204.64" transform="scale(1, -1)"
	style="font-family:Helvetica;font-weight:normal;font-style:normal;font-size:10pt">60</text>
<text x="18.555" y="-372.38" transform="scale(1, -1)"
	style="font-family:Helvetica;font-weight:normal;font-style:normal;font-size:10pt">120</text>
<text x="18.555" y="-540.11" transform="scale(1, -1)"
	style="font-family:Helvetica;font-weight:normal;font-style:normal;font-size:10pt">180</text>
<path d="M42.88,210.01L52.88,210.01" style="fill:none;stroke:#000000;stroke-width:0.625" />
<path d="M42.88,377.75L52.88,377.75" style="fill:none;stroke:#000000;stroke-width:0.625" />
<path d="M42.88,545.48L52.88,545.48" style="fill:none;stroke:#000000;stroke-width:0.625" />
<path d="M47.88,98.189L52.88,98.189" style="fill:none;stroke:#000000;stroke-width:0.625" />
<path d="M47.88,154.1L52.88,154.1" style="fill:none;stroke:#000000;stroke-width:0.625" />
<path d="M47.88,265.92L52.88,265.92" style="fill:none;stroke:#000000;stroke-width:0.625" />
<path d="M47.88,321.83L52.88,321.83" style="fill:none;stroke:#000000;stroke-width:0.625" />
<path d="M47.88,433.66L52.88,433.66" style="fill:none;stroke:#000000;stroke-width:0.625" />
<path d="M47.88,489.57L52.88,489.57" style="fill:none;stroke:#000000;stroke-width:0.625" />
<path d="M47.88,601.39L52.88,601.39" style="fill:none;stroke:#000000;stroke-width:0.625" />
<path d="M47.88,657.3L52.88,657.3" style="fill:none;stroke:#000000;stroke-width:0.625" />
<path d="M52.88,47.03L52.88,701.44" style="fill:none;stroke:#000000;stroke-width:0.625" />
<path d="M60.137,47.03L60.453,135.23L60.768,205.15L61.084,257.54L61.399,299.19L61.714,333.24L62.03,364.3L62.345,390.27L62.66,413.81L62.976,432.23L63.291,452.19L63.606,467.65L63.922,481.63L64.237,492.08L64.552,505.87L64.868,517.72L65.183,528.85L65.499,537.68L65.814,544.61L66.129,552.25L66.445,559.32L66.76,567.12L67.075,573.69L67.391,580.79L67.706,587.44L68.021,591.66L68.337,595.77L68.652,599.49L68.967,601.31L69.283,604.89L69.598,606.42L69.914,609.64L70.229,611.79L70.544,614.47L70.86,615.76L71.175,617.75L71.49,621.49L71.806,623.92L72.121,627.95L72.436,630.16L72.752,632.51L73.067,634.35L73.382,638.1L73.698,638.96L74.013,640.36L74.329,641.54L74.644,644.14L74.959,643.88L75.275,645.45L75.59,646.76L75.905,649.2L76.221,651.54L76.536,652.75L76.851,654.81L77.167,656.41L77.482,658.11L77.797,659.68L78.113,661.75L78.428,662.5L78.744,664.04L79.059,665.35L79.374,666.89L79.69,666.7L80.005,668.88L80.32,669.74L80.636,671.06L80.951,672.71L81.266,672.23L81.582,675.05L81.897,675.56L82.212,676.34L82.528,678.33L82.843,677.82L83.159,679.22L83.474,680.65L83.789,680.34L84.105,681.46L84.42,682.99L84.735,682.49L85.051,682.69L85.366,683.94L85.681,684.11L85.997,684.42L86.312,685.9L86.627,685.93L86.943,687.13L87.258,688.28L87.574,688.03L87.889,687.91L88.204,688.84L88.52,689.96L88.835,689.96L89.15,690.43L89.466,691.52L89.781,691.13L90.096,691.05L90.412,692.39L90.727,692.53L91.042,691.05L91.358,690.71L91.673,691.94L91.988,692.83L92.304,693.03L92.619,692.81L92.935,693.84L93.25,692.83L93.565,692.5L93.881,692.42L94.196,692.86L94.511,695.04L94.827,694.93L95.142,694.79L95.457,694.57L95.773,695.88L96.088,696.97L96.403,696.55L96.719,696.22L97.034,697L97.35,698.79L97.665,698.59L97.98,698.2L98.296,698.4L98.611,699.96L98.926,700.41L99.242,700.24L99.557,700.16L99.872,699.77L100.19,701.44L100.5,700.69L100.82,699.32L101.13,699.6L101.45,699.29L101.76,700.91L102.08,699.68L102.4,697.92L102.71,697.95L103.03,697.48L103.34,697.84L103.66,696.39L103.97,695.32L104.29,693.42L104.6,693.39L104.92,693.23L105.23,693L105.55,692.56L105.86,692L106.18,692.25L106.49,691.66L106.81,691.21L107.13,690.74L107.44,691.05L107.76,691.55L108.07,692.44L108.39,691.94L108.7,691.46L109.02,691.16L109.33,691.58L109.65,692.47L109.96,693.53L110.28,693.42L110.59,693.37L110.91,693.59L111.23,694.71L111.54,694.96L111.86,693.48L112.17,691.91L112.49,690.4L112.8,689.87L113.12,689.62L113.43,689.73L113.75,691.35L114.06,690.43L114.38,689.26L114.69,688.47L115.01,688.92L115.32,689.56L115.64,691.52L115.96,691.21L116.27,690.26L116.59,689.48L116.9,688.7L117.22,689.17L117.53,690.18L117.85,691.05L118.16,690.18L118.48,689.17L118.79,687.94L119.11,686.1L119.42,684.78L119.74,682.63L120.06,682.38L120.37,679.89L120.69,679.98L121,677.29L121.32,677.04L121.63,674.19L121.95,672.73L122.26,669.88L122.58,666.98L122.89,664.07L123.21,662.39L123.52,659.57L123.84,658.42L124.15,656.02L124.47,653.67L124.79,652.55L125.1,650.23L125.42,647.94L125.73,645.67L126.05,643.55L126.36,641.31L126.68,639.33L126.99,637.4L127.31,634.83L127.62,631.89L127.94,629.49L128.25,627.08L128.57,624.68L128.89,622.69L129.2,620.12L129.52,617.58L129.83,614.98L130.15,612.77L130.46,610.62L130.78,608.18L131.09,605.7L131.41,603.21L131.72,600.83L132.04,597.87L132.35,595.86L132.67,593.9L132.98,591.69L133.3,590.6L133.62,589.34L133.93,588.14L134.25,585.99L134.56,583.81L134.88,581.65L135.19,579.56L135.51,577.49L135.82,575.39L136.14,573.32L136.45,571.31L136.77,570.22L137.08,568.26L137.4,566.73L137.72,565.92L138.03,564.21L138.35,562.23L138.66,560.27L138.98,558.34L139.29,557.33L139.61,555.4L139.92,553.5L140.24,551.6L140.55,549.76L140.87,547.91L141.18,546.15L141.5,545.28L141.81,545.31L142.13,543.5L142.45,541.71L142.76,539.89L143.08,538.13L143.39,536.37L143.71,534.61L144.02,532.9L144.34,531.19L144.65,529.85L144.97,528.65L145.28,527.87L145.6,527.17L145.91,525.52L146.23,523.9L146.55,522.25L146.86,520.63L147.18,519.76L147.49,518.25L147.81,516.66L148.12,515.06L148.44,513.47L148.75,511.91L149.07,511.15L149.38,510.45L149.7,508.91L150.01,507.38L150.33,506.73L150.64,505.31L150.96,503.8L151.28,502.29L151.59,500.81L151.91,499.33L152.22,497.87L152.54,496.42L152.85,495.66L153.17,494.74L153.48,493.71L153.8,492.31L154.11,491.69L154.43,490.27L154.74,488.87L155.06,487.5L155.38,486.13L155.69,484.82L156.01,483.45L156.32,482.1L156.64,480.73L156.95,480.2L157.27,479.59L157.58,478.27L157.9,477.74L158.21,476.43L158.53,475.14L158.84,473.83L159.16,472.54L159.47,471.26L159.79,470L160.11,468.77L160.42,467.57L160.74,467.06L161.05,466.59L161.37,465.36L161.68,464.41L162,463.63L162.31,462.4L162.63,461.19L162.94,459.99L163.26,458.82L163.57,457.62L163.89,456.44L164.21,455.27L164.52,454.79L164.84,454.4L165.15,453.53L165.47,452.64L165.78,452.5L166.1,451.63L166.41,450.74L166.73,449.87L167.04,449.79L167.36,448.89L167.67,448.05L167.99,446.99L168.3,446.21L168.62,445.54L168.94,444.45L169.25,443.41L169.57,443.05L169.88,442.69L170.2,441.62L170.51,440.56L170.83,439.47L171.14,438.44L171.46,437.38L171.77,436.34L172.09,435.31L172.4,434.97L172.72,433.94L173.04,432.93L173.35,432.12L173.67,432.2L173.98,431.28L174.3,430.3L174.61,429.3L174.93,428.29L175.24,427.31L175.56,426.33L175.87,425.33L176.19,425.05L176.5,424.04L176.82,423.06L177.13,422.03L177.45,421.83L177.77,420.99L178.08,420.04L178.4,419.12L178.71,418.17L179.03,417.19L179.34,416.21L179.66,415.29L179.97,414.98L180.29,414.12L180.6,413.17L180.92,412.27L181.23,412.1L181.55,411.54L181.87,410.9L182.18,410.23L182.5,410.31L182.81,409.78L183.13,409.14L183.44,408.5L183.76,407.77L184.07,406.9L184.39,406.18L184.7,405.81L185.02,405.65L185.33,405.37L185.65,404.53L185.96,403.69L186.28,402.88L186.6,402.04L186.91,401.2L187.23,400.39L187.54,399.58L187.86,398.74L188.17,398.1L188.49,397.68L188.8,397.4L189.12,397.26L189.43,396.45L189.75,395.67L190.06,394.88L190.38,394.1L190.7,393.32L191.01,392.51L191.33,391.72L191.64,390.94L191.96,390.16L192.27,389.93L192.59,389.15L192.9,388.73L193.22,388.2L193.53,387.42L193.85,386.61L194.16,385.8L194.48,385.01L194.79,384.29L195.11,383.56L195.43,382.78L195.74,382.13L196.06,382L196.37,381.3L196.69,380.54L197,380.37L197.32,379.62L197.63,378.86L197.95,378.17L198.26,377.44L198.58,376.74L198.89,376.01L199.21,375.34L199.53,375.2L199.84,374.67L200.16,374.34L200.47,373.64L200.79,373.47L201.1,372.8L201.42,372.15L201.73,371.68L202.05,371.2L202.36,370.73L202.68,370.25L202.99,369.86L203.31,370.34L203.62,369.89L203.94,369.95L204.26,369.39L204.57,368.74L204.89,368.07L205.2,367.4L205.52,366.76L205.83,366.17L206.15,366L206.46,365.36L206.78,364.72L207.09,364.13L207.41,363.94L207.72,363.77L208.04,363.18L208.35,362.57L208.67,361.95L208.99,361.34L209.3,360.72L209.62,360.08L209.93,359.97L210.25,359.32L210.56,358.71L210.88,358.09L211.19,357.95L211.51,357.37L211.82,357.23L212.14,356.61L212.45,356L212.77,355.41L213.09,354.85L213.4,354.24L213.72,353.65L214.03,353.03L214.35,352.36L214.66,351.89L214.98,351.83L215.29,351.27L215.61,351.13L215.92,350.55L216.24,349.93L216.55,349.26L216.87,348.7L217.18,348.08L217.5,347.5L217.82,346.83L218.13,346.32L218.45,345.85L218.76,345.26L219.08,344.73L219.39,344.23L219.71,343.75L220.02,343.53L220.34,343.58L220.65,343.67L220.97,343.16L221.28,342.69L221.6,342.21L221.92,341.68L222.23,341.18L222.55,340.9L222.86,340.59L223.18,340.45L223.49,340.01L223.81,339.47L224.12,339.22L224.44,338.94L224.75,338.44L225.07,337.94L225.38,337.46L225.7,336.96L226.01,336.46L226.33,335.95L226.65,335.9L226.96,335.73L227.28,335.37L227.59,334.89L227.91,334.53L228.22,334.36L228.54,333.86L228.85,333.38L229.17,332.9L229.48,332.4L229.8,331.93L230.11,331.45L230.43,331.4L230.75,330.98L231.06,330.92L231.38,330.58L231.69,330.28L232.01,330.42L232.32,330.11L232.64,329.8L232.95,329.91L233.27,329.66L233.58,329.35L233.9,328.99L234.21,328.96L234.53,328.52L234.84,328.04L235.16,327.59L235.48,327.15L235.79,327.34L236.11,327.09L236.42,326.64L236.74,326.17L237.05,325.72L237.37,325.27L237.68,324.83L238,324.8L238.31,324.38L238.63,323.93L238.94,323.51L239.26,323.06L239.58,323.01L239.89,323.04L240.21,322.59L240.52,322.17L240.84,321.72L241.15,321.28L241.47,320.83L241.78,320.41L242.1,320.35L242.41,319.91L242.73,319.46L243.04,319.04L243.36,318.62L243.67,318.65L243.99,318.23L244.31,317.81L244.62,317.36L244.94,316.91L245.25,316.47L245.57,316.05L245.88,316.05L246.2,315.63L246.51,315.18L246.83,314.73L247.14,314.31L247.46,314.31L247.77,313.92L248.09,313.53L248.41,313.11L248.72,312.72L249.04,312.3L249.35,311.91L249.67,311.85L249.98,311.46L250.3,311.46L250.61,311.04L250.93,310.65L251.24,310.26L251.56,310.29L251.87,309.9L252.19,309.51L252.5,309.09L252.82,308.7L253.14,308.33L253.45,307.94L253.77,307.97L254.08,307.94L254.4,307.61L254.71,307.3L255.03,306.91L255.34,306.91L255.66,306.54L255.97,306.18L256.29,305.79L256.6,305.42L256.92,305.09L257.24,305.23L257.55,305.01L257.87,304.78L258.18,304.75L258.5,304.67L258.81,304.45L259.13,304.59L259.44,304.78L259.76,304.47L260.07,304.11L260.39,303.72L260.7,303.38L261.02,302.99L261.33,302.63L261.65,302.27L261.97,301.9L262.28,301.93L262.6,301.93L262.91,301.57L263.23,301.59L263.54,301.26L263.86,300.9L264.17,300.53L264.49,300.17L264.8,299.81L265.12,299.44L265.43,299.11L265.75,298.74L266.07,298.74L266.38,298.52L266.7,298.41L267.01,298.13L267.33,298.04L267.64,297.68L267.96,297.37L268.27,297.07L268.59,296.7L268.9,296.37L269.22,296L269.53,295.67L269.85,295.22L270.16,295.28L270.48,294.94L270.8,294.58L271.11,294.58L271.43,294.3L271.74,293.99L272.06,293.77L272.37,293.54L272.69,293.35L273,293.04L273.32,292.84L273.63,293.01L273.95,293.15L274.26,292.98L274.58,292.79L274.9,292.45L275.21,292.15L275.53,291.81L275.84,291.47L276.16,291.17L276.47,291.22L276.79,290.92L277.1,290.94L277.42,290.66L277.73,290.36L278.05,290.38L278.36,290.05L278.68,289.74L278.99,289.43L279.31,289.1L279.63,288.79L279.94,288.48L280.26,288.51L280.57,288.26L280.89,288.04L281.2,288.09L281.52,287.78L281.83,287.62L282.15,287.48L282.46,287.14L282.78,286.83L283.09,286.53L283.41,286.19L283.73,285.86L284.04,285.55L284.36,285.24L284.67,284.96L284.99,284.65L285.3,284.32L285.62,284.01L285.93,283.68L286.25,283.37L286.56,283.03L286.88,282.72L287.19,282.42L287.51,282.11L287.82,281.77L288.14,281.55L288.46,281.47L288.77,281.16L289.09,280.85L289.4,280.6L289.72,280.68L290.03,280.4L290.35,280.18L290.66,279.9L290.98,279.79L291.29,280.1L291.61,279.98L291.92,279.9L292.24,279.65L292.56,279.4L292.87,279.17L293.19,279.37L293.5,279.54L293.82,279.4L294.13,279.26L294.45,279.09L294.76,279.26L295.08,279.15L295.39,279.29L295.71,279.17L296.02,278.92L296.34,278.67L296.65,278.39L296.97,278.2L297.29,278.17L297.6,277.89L297.92,277.64L298.23,277.36L298.55,277.16L298.86,277.47L299.18,277.22L299.49,276.94L299.81,276.66L300.12,276.41L300.44,276.13L300.75,275.85L301.07,275.93L301.39,275.68L301.7,275.4L302.02,275.15L302.33,274.87L302.65,275.18L302.96,275.01L303.28,274.7L303.59,274.45L303.91,274.17L304.22,273.89L304.54,273.64L304.85,273.58L305.17,273.39L305.48,273.11L305.8,272.86L306.12,272.58L306.43,272.3L306.75,272.35L307.06,272.13L307.38,271.91L307.69,271.63L308.01,271.37L308.32,271.12L308.64,270.84L308.95,270.84L309.27,270.59L309.58,270.34L309.9,270.06L310.22,269.81L310.53,269.56L310.85,269.61L311.16,269.36L311.48,269.11L311.79,268.89L312.11,268.63L312.42,268.38L312.74,268.19L313.05,268.3L313.37,268.3L313.68,268.05L314,267.82L314.31,267.54L314.63,267.38L314.95,267.38L315.26,267.13L315.58,266.87L315.89,266.65L316.21,266.4L316.52,266.15L316.84,266.2L317.15,266.29L317.47,266.03L317.78,265.78L318.1,265.53L318.41,265.31L318.73,265.34L319.05,265.11L319.36,264.89L319.68,264.64L319.99,264.41L320.31,264.19L320.62,263.94L320.94,264.02L321.25,264.08L321.57,263.83L321.88,263.6L322.2,263.38L322.51,263.13L322.83,263.21L323.14,262.99L323.46,262.82L323.78,262.74L324.09,262.82L324.41,262.79L324.72,262.68L325.04,262.54L325.35,262.71L325.67,262.6L325.98,262.48L326.3,262.65L326.61,262.46L326.93,262.54L327.24,262.32L327.56,262.07L327.88,261.84L328.19,261.62L328.51,261.39L328.82,261.17L329.14,260.92L329.45,260.97L329.77,260.75L330.08,260.84L330.4,260.61L330.71,260.44L331.03,260.47L331.34,260.22L331.66,260L331.97,259.77L332.29,259.55L332.61,259.33L332.92,259.13L333.24,258.91L333.55,258.93L333.87,258.71L334.18,258.49L334.5,258.26L334.81,258.18L335.13,258.12L335.44,257.9L335.76,257.68L336.07,257.51L336.39,257.4L336.71,257.51L337.02,257.42L337.34,257.31L337.65,257.17L337.97,257.06L338.28,256.95L338.6,256.84L338.91,257.31L339.23,257.26L339.54,257.06L339.86,256.81L340.17,256.61L340.49,256.39L340.8,256.17L341.12,255.94L341.44,255.75L341.75,255.52L342.07,255.3L342.38,255.1L342.7,255.16L343.01,255.22L343.33,255.02L343.64,254.88L343.96,254.77L344.27,254.66L344.59,254.55L344.9,254.74L345.22,254.66L345.54,254.8L345.85,254.71L346.17,254.63L346.48,254.49L346.8,254.29L347.11,254.01L347.43,253.82L347.74,253.59L348.06,253.37L348.37,253.45L348.69,253.29L349,253.12L349.32,253.18L349.63,252.98L349.95,252.76L350.27,252.53L350.58,252.34L350.9,252.11L351.21,251.92L351.53,251.69L351.84,251.5L352.16,251.27L352.47,251.36L352.79,251.16L353.1,251.16L353.42,251.27L353.73,251.11L354.05,250.94L354.36,250.74L354.68,250.55L355,250.32L355.31,250.13L355.63,249.9L355.94,249.71L356.26,249.51L356.57,249.32L356.89,249.12L357.2,248.93L357.52,248.98L357.83,248.79L358.15,248.81L358.46,248.65L358.78,248.39L359.1,248.2L359.41,248L359.73,247.78L360.04,247.58L360.36,247.36L360.67,247.19L360.99,247.03L361.3,246.86L361.62,246.69L361.93,246.55L362.25,246.38L362.56,246.47L362.88,246.61L363.19,246.47L363.51,246.55L363.83,246.35L364.14,246.21L364.46,246.05L364.77,245.85L365.09,245.91L365.4,246.05L365.72,245.85L366.03,245.68L366.35,245.49L366.66,245.32L366.98,245.12L367.29,245.24L367.61,245.07L367.93,244.87L368.24,244.7L368.56,244.51L368.87,244.37L369.19,244.45L369.5,244.54L369.82,244.37L370.13,244.2L370.45,244.03L370.76,243.87L371.08,243.67L371.39,243.78L371.71,243.61L372.02,243.45L372.34,243.28L372.66,243.08L372.97,242.92L373.29,243.14L373.6,243.08L373.92,242.92L374.23,242.72L374.55,242.55L374.86,242.38L375.18,242.33L375.49,242.33L375.81,242.16L376.12,241.97L376.44,241.85L376.76,242.02L377.07,241.94L377.39,242.1L377.7,242.05L378.02,242.02L378.33,241.94L378.65,241.85L378.96,242.05L379.28,242.13L379.59,242.1L379.91,241.91L380.22,241.74L380.54,241.57L380.85,241.41L381.17,241.24L381.49,241.07L381.8,241.15L382.12,240.99L382.43,241.07L382.75,240.9L383.06,240.74L383.38,240.79L383.69,240.65L384.01,240.48L384.32,240.32L384.64,240.15L384.95,239.98L385.27,239.81L385.59,239.64L385.9,239.73L386.22,239.56L386.53,239.64L386.85,239.48L387.16,239.28L387.48,239.11L387.79,239.2L388.11,239.03L388.42,238.86L388.74,238.69L389.05,238.53L389.37,238.36L389.68,238.27L390,238.25L390.32,238.08L390.63,237.94L390.95,237.8L391.26,237.63L391.58,237.63L391.89,237.55L392.21,237.38L392.52,237.21L392.84,237.04L393.15,236.91L393.47,236.74L393.78,236.77L394.1,236.63L394.42,236.46L394.73,236.29L395.05,236.15L395.36,235.98L395.68,236.04L395.99,235.93L396.31,235.79L396.62,235.62L396.94,235.48L397.25,235.54L397.57,235.4L397.88,235.45L398.2,235.31L398.51,235.17L398.83,235L399.15,234.86L399.46,234.7L399.78,234.75L400.09,234.64L400.41,234.47L400.72,234.33L401.04,234.17L401.35,234.25L401.67,234.11L401.98,234.19L402.3,234.03L402.61,233.86L402.93,233.72L403.25,233.58L403.56,233.41L403.88,233.44L404.19,233.35L404.51,233.19L404.82,233.05L405.14,232.88L405.45,232.96L405.77,232.85L406.08,232.91L406.4,232.77L406.71,232.6L407.03,232.46L407.34,232.32L407.66,232.24L407.98,232.32L408.29,232.35L408.61,232.29L408.92,232.46L409.24,232.4L409.55,232.54L409.87,232.49L410.18,232.43L410.5,232.35L410.81,232.21L411.13,232.04L411.44,232.15L411.76,231.98L412.08,231.9L412.39,231.93L412.71,231.79L413.02,231.62L413.34,231.48L413.65,231.51L413.97,231.48L414.28,231.4L414.6,231.34L414.91,231.29L415.23,231.45L415.54,231.59L415.86,231.54L416.17,231.48L416.49,231.4L416.81,231.34L417.12,231.17L417.44,231.03L417.75,231.12L418.07,231.2L418.38,231.06L418.7,230.89L419.01,230.75L419.33,230.59L419.64,230.45L419.96,230.31L420.27,230.17L420.59,230.03L420.91,229.86L421.22,229.69L421.54,229.58L421.85,229.72L422.17,229.64L422.48,229.66L422.8,229.58L423.11,229.52L423.43,229.44L423.74,229.39L424.06,229.33L424.37,229.47L424.69,229.5L425,229.44L425.32,229.36L425.64,229.19L425.95,229.05L426.27,228.91L426.58,228.77L426.9,228.88L427.21,228.74L427.53,228.57L427.84,228.43L428.16,228.29L428.47,228.13L428.79,227.99L429.1,227.82L429.42,227.68L429.74,227.51L430.05,227.37L430.37,227.2L430.68,227.09L431,226.92L431.31,227.04L431.63,226.92L431.94,226.95L432.26,226.92L432.57,226.79L432.89,226.7L433.2,226.76L433.52,226.62L433.83,226.48L434.15,226.34L434.47,226.2L434.78,226.25L435.1,226.14L435.41,226L435.73,225.89L436.04,225.75L436.36,225.64L436.67,225.5L436.99,225.44L437.3,225.47L437.62,225.36L437.93,225.22L438.25,225.11L438.57,225L438.88,225.19L439.2,225.14L439.51,225L439.83,224.88L440.14,224.74L440.46,224.6L440.77,224.49L441.09,224.35L441.4,224.44L441.72,224.33L442.03,224.21L442.35,224.07L442.66,224.16L442.98,224.24L443.3,224.13L443.61,223.99L443.93,223.88L444.24,223.74L444.56,223.63L444.87,223.49L445.19,223.37L445.5,223.46L445.82,223.35L446.13,223.21L446.45,223.1L446.76,223.18L447.08,223.26L447.4,223.15L447.71,223.04L448.03,222.93L448.34,222.79L448.66,222.68L448.97,222.54L449.29,222.42L449.6,222.51L449.92,222.37L450.23,222.26L450.55,222.12L450.86,222.17L451.18,222.31L451.49,222.17L451.81,222.06L452.13,221.95L452.44,221.81L452.76,221.7L453.07,221.56L453.39,221.45L453.7,221.56L454.02,221.42L454.33,221.33L454.65,221.31L454.96,221.64L455.28,221.61L455.59,221.59L455.91,221.53L456.23,221.47L456.54,221.42L456.86,221.56L457.17,221.56L457.49,221.42L457.8,221.5L458.12,221.39L458.43,221.28L458.75,221.14L459.06,221.22L459.38,221.11L459.69,221L460.01,220.89L460.32,220.75L460.64,220.83L460.96,220.72L461.27,220.58L461.59,220.5L461.9,220.55L462.22,220.44L462.53,220.33L462.85,220.22L463.16,220.19L463.48,220.16L463.79,220.05L464.11,219.94L464.42,219.8L464.74,219.68L465.06,219.54L465.37,219.43L465.69,219.32L466,219.24L466.32,219.27L466.63,219.15L466.95,219.01L467.26,218.9L467.58,218.99L467.89,218.87L468.21,218.76L468.52,218.65L468.84,218.51L469.15,218.37L469.47,218.26L469.79,218.15L470.1,218.04L470.42,218.09L470.73,217.98L471.05,217.84L471.36,217.73L471.68,217.81L471.99,217.9L472.31,217.78L472.62,217.67L472.94,217.56L473.25,217.42L473.57,217.31L473.89,217.2L474.2,217.08L474.52,217.17L474.83,217.06L475.15,216.94L475.46,216.83L475.78,216.92L476.09,217L476.41,216.89L476.72,216.78L477.04,216.67L477.35,216.53L477.67,216.44L477.98,216.3L478.3,216.22L478.62,216.13L478.93,216.19L479.25,216.05L479.56,216.02L479.88,216.13L480.19,216.3L480.51,216.27L480.82,216.25L481.14,216.36L481.45,216.36L481.77,216.3L482.08,216.27L482.4,216.19L482.72,216.08L483.03,215.97L483.35,215.85L483.66,215.74L483.98,215.69L484.29,215.97L484.61,216.02L484.92,215.88L485.24,215.8L485.55,215.66L485.87,215.57L486.18,215.44L486.5,215.35L486.81,215.21L487.13,215.13L487.45,215.02L487.76,214.9L488.08,214.79L488.39,215.04L488.71,215.13L489.02,215.02L489.34,214.9L489.65,214.79L489.97,214.68L490.28,214.57L490.6,214.46L490.91,214.34L491.23,214.26L491.55,214.15L491.86,214.07L492.18,213.93L492.49,213.81L492.81,213.9L493.12,213.76L493.44,213.62L493.75,213.53L494.07,213.45L494.38,213.34L494.7,213.39L495.01,213.25L495.33,213.14L495.64,213.03L495.96,212.92L496.28,212.78L496.59,212.67L496.91,212.56L497.22,212.47L497.54,212.39L497.85,212.28L498.17,212.22L498.48,212.11L498.8,212.16L499.11,212.36L499.43,212.33L499.74,212.5L500.06,212.5L500.37,212.56L500.69,212.64L501.01,212.81L501.32,212.81L501.64,212.78L501.95,212.78L502.27,212.89L502.58,212.81L502.9,212.7L503.21,212.61L503.53,212.5L503.84,212.58L504.16,212.5L504.47,212.39L504.79,212.3L505.11,212.36L505.42,212.28L505.74,212.19L506.05,212.28L506.37,212.19L506.68,212.08L507,212L507.31,211.88L507.63,211.8L507.94,211.86L508.26,211.77L508.57,211.69L508.89,211.58L509.2,211.49L509.52,211.55L509.84,211.44L510.15,211.33L510.47,211.24L510.78,211.13L511.1,211.02L511.41,210.93L511.73,210.82L512.04,210.82L512.36,210.79L512.67,210.71L512.99,210.6L513.3,210.49L513.62,210.57L513.94,210.46L514.25,210.38L514.57,210.26L514.88,210.15L515.2,210.07L515.51,209.98L515.83,209.9L516.14,209.79L516.46,209.87L516.77,209.76L517.09,209.68L517.4,209.56L517.72,209.82L518.03,209.73L518.35,209.65L518.67,209.54L518.98,209.45L519.3,209.34L519.61,209.26L519.93,209.15L520.24,209.06L520.56,209.09L520.87,209.06L521.19,209.01L521.5,209.09L521.82,209.28L522.13,209.26L522.45,209.23L522.77,209.2L523.08,209.17L523.4,209.12L523.71,209.26L524.03,209.26L524.34,209.2L524.66,209.09L524.97,209.2L525.29,209.12L525.6,209.01L525.92,208.92L526.23,209.03L526.55,208.92L526.86,208.84L527.18,208.75L527.5,208.84L527.81,208.75L528.13,208.64L528.44,208.56L528.76,208.45L529.07,208.45L529.39,208.45L529.7,208.39L530.02,208.31L530.33,208.39L530.65,208.31L530.96,208.19L531.28,208.11L531.6,208L531.91,207.92L532.23,207.8L532.54,207.72L532.86,207.61L533.17,207.52L533.49,207.44L533.8,207.5L534.12,207.41L534.43,207.38L534.75,207.38L535.06,207.33L535.38,207.3L535.69,207.27L536.01,207.24L536.33,207.22L536.64,207.36L536.96,207.3L537.27,207.27L537.59,207.24L537.9,207.19L538.22,207.08L538.53,207.08L538.85,207.24L539.16,207.3L539.48,207.24L539.79,207.16L540.11,207.08L540.43,206.99L540.74,206.88L541.06,206.8L541.37,206.71L541.69,206.63L542,206.55L542.32,206.46L542.63,206.35L542.95,206.38L543.26,206.46L543.58,206.6L543.89,206.52L544.21,206.43L544.52,206.32L544.84,206.24L545.16,206.15L545.47,206.07L545.79,205.96L546.1,205.87L546.42,205.76L546.73,205.68L547.05,205.59L547.36,205.68L547.68,205.73L547.99,205.65L548.31,205.54L548.62,205.45L548.94,205.34L549.26,205.26L549.57,205.15L549.89,205.04L550.2,204.98L550.52,204.87L550.83,204.78L551.15,204.67L551.46,204.56L551.78,204.48L552.09,204.36L552.41,204.28L552.72,204.17L553.04,204.09L553.35,203.97L553.67,203.92L553.99,203.83L554.3,203.78L554.62,203.92L554.93,204.14L555.25,204.09L555.56,204L555.88,203.95L556.19,203.86L556.51,203.81L556.82,203.97L557.14,204L557.45,203.95L557.77,203.86L558.09,203.81L558.4,203.72L558.72,203.64L559.03,203.72L559.35,203.64L559.66,203.55L559.98,203.64L560.29,203.75L560.61,203.67L560.92,203.55L561.24,203.5L561.55,203.41L561.87,203.36L562.18,203.27L562.5,203.19L562.82,203.11L563.13,203.02L563.45,203.11L563.76,203.05L564.08,203.13L564.39,203.22L564.71,203.13L565.02,203.11L565.34,203.08L565.65,203.05L565.97,203.02L566.28,203.02L566.6,202.99L566.92,203.16L567.23,203.13L567.55,203.13L567.86,203.25L568.18,203.25L568.49,203.25L568.81,203.27L569.12,203.19L569.44,203.16L569.75,203.22L570.07,203.13L570.38,203.08L570.7,202.97L571.01,202.91L571.33,202.83L571.65,202.72L571.96,202.83L572.28,202.74L572.59,202.66L572.91,202.74L573.22,202.66L573.54,202.6L573.85,202.74L574.17,202.72L574.48,202.69L574.8,202.66L575.11,202.63L575.43,202.77L575.75,202.74L576.06,202.69L576.38,202.83L576.69,202.77L577.01,202.69L577.32,202.6L577.64,202.49L577.95,202.44L578.27,202.38L578.58,202.44L578.9,202.35L579.21,202.27L579.53,202.18L579.84,202.1L580.16,202.02L580.48,202.02L580.79,202.02L581.11,201.93L581.42,201.82L581.74,201.74L582.05,201.65L582.37,201.57L582.68,201.6L583,201.57L583.31,201.49L583.63,201.4L583.94,201.32L584.26,201.23L584.58,201.15L584.89,201.07L585.21,200.98L585.52,201.04L585.84,200.95L586.15,200.9L586.47,200.84L586.78,200.93L587.1,200.87L587.41,200.76L587.73,200.67L588.04,200.59L588.36,200.53L588.67,200.45L588.99,200.37L589.31,200.28L589.62,200.37L589.94,200.45L590.25,200.37L590.57,200.31L590.88,200.2L591.2,200.12L591.51,200.03L591.83,199.95L592.14,199.89L592.46,199.81L592.77,199.72L593.09,199.64L593.41,199.56L593.72,199.64L594.04,199.56L594.35,199.78L594.67,199.72L594.98,199.64L595.3,199.58L595.61,199.5L595.93,199.42L596.24,199.33L596.56,199.25L596.87,199.19L597.19,199.11L597.5,199.03L597.82,199L598.14,199.05L598.45,198.97L598.77,199.22L599.08,199.14L599.4,199.05L599.71,199L600.03,198.91L600.34,198.83L600.66,198.77L600.97,198.69L601.29,198.61L601.6,198.52L601.92,198.47L602.24,198.52L602.55,198.44L602.87,198.49L603.18,198.61L603.5,198.52L603.81,198.47L604.13,198.38L604.44,198.3L604.76,198.24L605.07,198.16L605.39,198.07L605.7,197.99L606.02,197.93L606.33,197.85L606.65,197.93L606.97,197.85L607.28,198.05L607.6,197.99L607.91,197.96L608.23,197.88L608.54,197.82L608.86,197.74L609.17,197.66L609.49,197.57L609.8,197.52L610.12,197.52L610.43,197.63L610.75,197.63L611.07,197.6L611.38,197.57L611.7,197.71L612.01,197.82L612.33,197.8L612.64,197.93L612.96,197.91L613.27,197.85L613.59,197.77L613.9,197.71L614.22,197.6L614.53,197.54L614.85,197.49L615.16,197.38L615.48,197.32L615.8,197.26L616.11,197.35L616.43,197.4L616.74,197.49L617.06,197.43L617.37,197.35L617.69,197.26L618,197.21L618.32,197.15L618.63,197.07L618.95,196.98L619.26,196.93L619.58,196.84L619.9,196.76L620.21,196.68L620.53,196.79L620.84,196.84L621.16,196.73L621.47,196.65L621.79,196.59L622.1,196.51L622.42,196.45L622.73,196.4L623.05,196.31L623.36,196.23L623.68,196.15L623.99,196.06L624.31,195.98L624.63,195.89L624.94,195.81L625.26,195.78L625.57,195.75L625.89,195.7L626.2,195.67L626.52,195.7L626.83,195.89L627.15,195.92L627.46,195.95L627.78,196.03L628.09,196.2L628.41,196.26L628.73,196.48L629.04,196.48L629.36,196.59L629.67,196.59L629.99,196.54L630.3,196.48L630.62,196.43L630.93,196.51L631.25,196.48L631.56,196.57L631.88,196.51L632.19,196.45L632.51,196.45L632.82,196.45L633.14,196.4L633.46,196.34L633.77,196.26L634.09,196.2L634.4,196.17L634.72,196.29L635.03,196.31L635.35,196.23L635.66,196.17L635.98,196.09L636.29,196.03L636.61,195.95L636.92,195.92L637.24,195.92L637.56,195.87L637.87,195.78L638.19,195.7L638.5,195.64L638.82,195.56L639.13,195.47L639.45,195.39L639.76,195.31L640.08,195.25L640.39,195.17L640.71,195.08L641.02,195L641.34,194.92L641.65,194.83L641.97,194.75L642.29,194.66L642.6,194.58L642.92,194.52L643.23,194.44L643.55,194.36L643.86,194.27L644.18,194.19L644.49,194.1L644.81,194.05L645.12,193.99L645.44,193.91L645.75,193.85L646.07,193.77L646.38,193.85L646.7,193.94L647.02,193.88L647.33,193.94L647.65,193.88L647.96,193.83L648.28,193.74L648.59,193.69L648.91,193.63L649.22,193.55L649.54,193.49L649.85,193.41L650.17,193.35L650.48,193.29L650.8,193.55L651.12,193.57L651.43,193.49L651.75,193.43L652.06,193.38L652.38,193.29L652.69,193.24L653.01,193.15L653.32,193.1L653.64,193.04L653.95,192.96L654.27,193.04L654.58,192.99L654.9,192.9L655.21,193.01L655.53,193.07L655.85,193.01L656.16,192.93L656.48,192.87L656.79,192.82L657.11,192.76L657.42,192.68L657.74,192.76L658.05,192.71L658.37,192.62L658.68,192.57L659,192.51L659.31,192.43L659.63,192.54L659.95,192.57L660.26,192.62L660.58,192.74L660.89,192.74L661.21,192.71L661.52,192.71L661.84,192.68L662.15,192.65L662.47,192.65L662.78,192.76L663.1,192.71L663.41,192.62L663.73,192.57L664.04,192.65L664.36,192.6L664.68,192.65L664.99,192.57L665.31,192.51L665.62,192.43L665.94,192.37L666.25,192.43L666.57,192.4L666.88,192.32L667.2,192.26L667.51,192.18L667.83,192.12L668.14,192.06L668.46,192.12L668.78,192.06L669.09,192.15L669.41,192.06L669.72,192.01L670.04,191.92L670.35,191.87L670.67,191.81L670.98,191.73L671.3,191.64L671.61,191.59L671.93,191.56L672.24,191.56L672.56,191.67L672.87,191.81L673.19,191.78L673.51,191.78L673.82,191.76L674.14,191.73L674.45,191.73L674.77,191.81L675.08,191.76L675.4,191.7L675.71,191.62L676.03,191.56L676.34,191.48L676.66,191.45L676.97,191.45L677.29,191.45L677.61,191.42L677.92,191.45L678.24,191.45L678.55,191.39L678.87,191.45L679.18,191.42L679.5,191.37L679.81,191.37L680.13,191.34L680.44,191.34L680.76,191.48L681.07,191.45L681.39,191.59L681.7,191.59L682.02,191.56L682.34,191.56L682.65,191.53L682.97,191.64L683.28,191.59L683.6,191.51L683.91,191.45L684.23,191.39L684.54,191.34L684.86,191.25L685.17,191.2L685.49,191.14L685.8,191.23L686.12,191.17L686.44,191.09L686.75,191.03L687.07,190.97L687.38,191.06L687.7,190.97L688.01,190.92L688.33,190.86L688.64,190.78L688.96,190.72L689.27,190.67L689.59,190.58L689.9,190.53L690.22,190.47L690.53,190.39L690.85,190.47L691.17,190.41L691.48,190.33L691.8,190.28L692.11,190.19L692.43,190.14L692.74,190.05L693.06,190L693.37,189.94L693.69,189.86L694,189.8L694.32,189.83L694.63,189.83L694.95,189.86L695.27,189.83L695.58,189.77L695.9,189.72L696.21,189.66L696.53,189.6L696.84,189.66L697.16,189.6L697.47,189.55L697.79,189.46L698.1,189.44L698.42,189.35L698.73,189.3L699.05,189.24L699.36,189.41L699.68,189.41L700,189.35L700.31,189.44L700.63,189.38L700.94,189.32L701.26,189.27L701.57,189.21L701.89,189.13L702.2,189.07L702.52,189.02L702.83,188.96L703.15,188.91L703.46,188.96L703.78,189.04L704.1,189.1L704.41,189.04L704.73,188.99L705.04,188.93L705.36,188.85L705.67,188.79L705.99,188.74L706.3,188.68L706.62,188.63L706.93,188.54L707.25,188.49L707.56,188.43L707.88,188.49L708.19,188.6L708.51,188.57L708.83,188.6L709.14,188.54L709.46,188.49L709.77,188.43L710.09,188.37L710.4,188.32L710.72,188.26L711.03,188.18L711.35,188.12L711.66,188.07L711.98,188.01L712.29,188.01L712.61,188.12L712.93,188.18L713.24,188.18L713.56,188.12L713.87,188.07L714.19,188.01L714.5,187.95L714.82,187.9L715.13,187.84L715.45,187.76L715.76,187.7L716.08,187.65L716.39,187.59L716.71,187.54L717.02,187.68L717.34,187.68L717.66,187.76L717.97,187.7L718.29,187.65L718.6,187.59L718.92,187.54L719.23,187.48L719.55,187.42L719.86,187.37L720.18,187.28L720.49,187.23L720.81,187.17L721.12,187.12L721.44,187.2L721.76,187.28L722.07,187.4L722.39,187.37L722.7,187.37L723.02,187.34L723.33,187.34L723.65,187.31L723.96,187.28L724.28,187.4L724.59,187.4L724.91,187.37L725.22,187.34L725.54,187.28L725.85,187.37L726.17,187.45L726.49,187.4L726.8,187.34L727.12,187.34L727.43,187.31L727.75,187.42L728.06,187.42L728.38,187.42L728.69,187.51L729.01,187.54L729.32,187.51L729.64,187.51L729.95,187.48L730.27,187.45L730.59,187.51L730.9,187.45L731.22,187.37L731.53,187.31L731.85,187.37L732.16,187.34L732.48,187.28L732.79,187.23L733.11,187.14L733.42,187.12L733.74,187.06L734.05,186.98L734.37,186.92L734.68,186.86L735,186.95L735.32,186.89L735.63,186.84L735.95,186.81L736.26,186.86L736.58,186.89L736.89,186.89L737.21,186.86L737.52,186.84L737.84,186.84L738.15,186.81L738.47,186.89L738.78,186.89L739.1,186.84L739.42,186.78L739.73,186.72L740.05,186.78L740.36,186.7L740.68,186.64L740.99,186.58L741.31,186.53L741.62,186.47L741.94,186.39L742.25,186.33L742.57,186.28L742.88,186.19L743.2,186.14L743.51,186.08L743.83,186.05L744.15,186L744.46,186.05L744.78,186.03L745.09,185.97L745.41,185.94L745.72,186.03L746.04,185.94L746.35,185.89L746.67,185.86L746.98,185.8L747.3,185.72L747.61,185.66L747.93,185.63L748.25,185.55L748.56,185.49L748.88,185.52L749.19,185.52L749.51,185.58L749.82,185.55L750.14,185.52L750.45,185.47L750.77,185.41L751.08,185.35L751.4,185.3L751.71,185.24L752.03,185.22L752.34,185.16L752.66,185.13L752.98,185.19L753.29,185.41L753.61,185.35L753.92,185.3L754.24,185.24L754.55,185.22L754.87,185.16L755.18,185.1L755.5,185.05L755.81,184.99L756.13,184.96L756.44,184.91L756.76,184.85L757.08,184.8L757.39,184.88L757.71,185.08L758.02,185.02L758.34,184.99L758.65,184.94L758.97,184.88L759.28,184.82L759.6,184.77L759.91,184.71L760.23,184.68L760.54,184.63L760.86,184.57L761.17,184.52L761.49,184.46L761.81,184.54L762.12,184.74L762.44,184.68L762.75,184.63L763.07,184.6L763.38,184.54L763.7,184.49L764.01,184.43L764.33,184.38L764.64,184.32L764.96,184.26L765.27,184.24L765.59,184.18L765.91,184.12L766.22,184.21L766.54,184.4L766.85,184.35L767.17,184.32L767.48,184.26L767.8,184.21L768.11,184.15L768.43,184.1L768.74,184.04L769.06,184.01L769.37,183.96L769.69,183.9L770,183.85L770.32,183.79L770.64,183.9L770.95,184.01L771.27,184.04L771.58,183.98L771.9,183.96L772.21,183.9L772.53,183.82L772.84,183.79L773.16,183.73L773.47,183.68L773.79,183.65L774.1,183.59L774.42,183.54L774.74,183.48L775.05,183.54L775.37,183.65L775.68,183.71L776,183.65L776.31,183.59L776.63,183.57L776.94,183.51L777.26,183.45L777.57,183.4L777.89,183.37L778.2,183.29L778.52,183.26L778.83,183.2L779.15,183.15L779.47,183.15L779.78,183.29L780.1,183.37L780.41,183.31L780.73,183.29L781.04,183.23L781.36,183.17L781.67,183.12L781.99,183.06L782.3,183.03L782.62,182.98L782.93,182.92L783.25,182.89L783.57,182.84L783.88,182.78L784.2,183.01L784.51,183.12L784.83,183.12L785.14,183.09L785.46,183.09L785.77,183.06L786.09,183.06L786.4,183.15L786.72,183.17L787.03,183.17L787.35,183.15L787.66,183.12L787.98,183.06L788.3,183.01L788.61,183.09L788.93,183.15L789.24,183.09L789.56,183.06L789.87,183.01L790.19,183.06L790.5,183.03L790.82,182.98L791.13,182.92L791.45,182.89L791.76,182.84L792.08,182.78L792.39,182.73L792.71,182.67L793.03,182.7L793.34,182.7L793.66,182.78L793.97,182.73L794.29,182.67L794.6,182.75L794.92,182.7L795.23,182.67L795.55,182.64L795.86,182.64L796.18,182.62L796.49,182.62L796.81,182.73L797.13,182.7L797.44,182.7L797.76,182.78L798.07,182.78L798.39,182.75L798.7,182.73L799.02,182.7L799.33,182.75L799.65,182.73L799.96,182.67L800.28,182.64L800.59,182.56L800.91,182.5L801.22,182.48L801.54,182.42L801.86,182.36L802.17,182.42L802.49,182.39L802.8,182.34L803.12,182.28L803.43,182.22L803.75,182.2L804.06,182.25L804.38,182.22L804.69,182.17L805.01,182.11L805.32,182.06L805.64,182L805.96,181.94L806.27,181.89L806.59,181.83L806.9,181.89L807.22,181.86L807.53,181.8L807.85,181.75L808.16,181.72L808.48,181.72L808.79,181.83L809.11,181.83L809.42,181.83L809.74,181.8L810.05,181.8L810.37,181.8L810.69,181.92L811,181.89L811.32,182L811.63,181.94L811.95,181.89L812.26,181.83L812.58,181.8L812.89,181.75L813.21,181.75L813.52,181.75L813.84,181.75L814.15,181.69L814.47,181.64L814.79,181.61L815.1,181.55L815.42,181.5L815.73,181.58L816.05,181.55L816.36,181.58L816.68,181.55L816.99,181.5L817.31,181.44L817.62,181.5L817.94,181.47L818.25,181.41L818.57,181.36L818.88,181.33L819.2,181.27L819.52,181.22L819.83,181.16L820.15,181.11L820.46,181.19L820.78,181.25L821.09,181.19L821.41,181.13L821.72,181.08L822.04,181.02L822.35,180.97L822.67,180.94L822.98,180.88L823.3,180.83L823.62,180.77L823.93,180.71L824.25,180.66L824.56,180.6L824.88,180.55L825.19,180.52L825.51,180.46L825.82,180.41L826.14,180.35L826.45,180.29L826.77,180.24L827.08,180.18L827.4,180.16L827.71,180.13L828.03,180.21L828.35,180.18L828.66,180.13L828.98,180.21L829.29,180.18L829.61,180.18L829.92,180.24L830.24,180.32L830.55,180.29L830.87,180.24L831.18,180.32L831.5,180.29L831.81,180.24L832.13,180.21L832.45,180.18L832.76,180.13L833.08,180.1L833.39,180.07L833.71,180.02L834.02,180.07L834.34,180.27L834.65,180.24L834.97,180.18L835.28,180.16L835.6,180.1L835.91,180.07L836.23,180.02L836.54,179.96L836.86,179.9L837.18,179.88L837.49,179.85L837.81,179.79L838.12,179.74L838.44,179.71L838.75,180.02L839.07,179.99L839.38,179.93L839.7,179.88L840.01,179.85L840.33,179.79L840.64,179.76L840.96,179.71L841.28,179.68L841.59,179.62L841.91,179.57L842.22,179.54L842.54,179.51L842.85,179.46L843.17,179.74L843.48,179.71L843.8,179.68L844.11,179.62L844.43,179.6L844.74,179.57L845.06,179.57L845.37,179.54L845.69,179.54L846.01,179.54L846.32,179.68L846.64,179.74L846.95,179.85L847.27,179.9L847.58,179.93L847.9,180.07L848.21,180.07L848.53,180.07L848.84,180.07L849.16,180.18L849.47,180.29L849.79,180.29L850.11,180.27L850.42,180.21L850.74,180.16L851.05,180.13L851.37,180.07L851.68,180.04L852,179.99L852.31,180.07L852.63,180.04L852.94,179.99L853.26,179.96L853.57,180.07L853.89,180.07L854.2,180.04L854.52,179.99L854.84,179.96L855.15,179.9L855.47,179.85L855.78,179.82L856.1,179.76L856.41,179.71L856.73,179.65L857.04,179.6L857.36,179.54L857.67,179.48L857.99,179.46L858.3,179.4L858.62,179.34L858.94,179.29L859.25,179.23L859.57,179.18L859.88,179.15L860.2,179.09L860.51,179.04L860.83,178.98L861.14,178.92L861.46,178.87L861.77,178.81L862.09,178.76L862.4,178.7L862.72,178.65L863.03,178.59L863.35,178.56L863.67,178.51L863.98,178.45L864.3,178.42L864.61,178.51L864.93,178.45L865.24,178.42L865.56,178.37L865.87,178.34L866.19,178.39L866.5,178.45L866.82,178.42L867.13,178.37L867.45,178.34L867.77,178.28L868.08,178.37L868.4,178.37L868.71,178.37L869.03,178.34L869.34,178.34L869.66,178.34L869.97,178.37L870.29,178.42L870.6,178.53L870.92,178.59L871.23,178.65L871.55,178.59L871.86,178.56L872.18,178.51L872.5,178.48L872.81,178.56L873.13,178.51L873.44,178.48L873.76,178.42L874.07,178.39L874.39,178.34L874.7,178.31L875.02,178.25L875.33,178.2L875.65,178.37L875.96,178.34L876.28,178.31L876.6,178.31L876.91,178.31L877.23,178.28L877.54,178.23L877.86,178.2L878.17,178.14L878.49,178.11L878.8,178.06L879.12,178L879.43,177.97L879.75,177.92L880.06,177.86L880.38,178.06L880.69,178L881.01,177.97L881.33,177.92L881.64,177.89L881.96,177.86L882.27,177.81L882.59,177.78L882.9,177.72L883.22,177.67L883.53,177.64L883.85,177.58L884.16,177.56L884.48,177.5L884.79,177.56L885.11,177.78L885.43,177.72L885.74,177.69L886.06,177.64L886.37,177.61L886.69,177.56L887,177.53L887.32,177.5L887.63,177.44L887.95,177.42L888.26,177.36L888.58,177.33L888.89,177.3L889.21,177.42L889.52,177.56L889.84,177.61L890.16,177.61L890.47,177.61L890.79,177.61L891.1,177.58L891.42,177.67L891.73,177.69L892.05,177.69L892.36,177.67L892.68,177.64L892.99,177.58L893.31,177.56L893.62,177.5L893.94,177.47L894.26,177.64L894.57,177.61L894.89,177.56L895.2,177.53L895.52,177.61L895.83,177.56L896.15,177.53L896.46,177.47L896.78,177.44L897.09,177.39L897.41,177.36L897.72,177.3L898.04,177.28L898.35,177.22L898.67,177.3L898.99,177.39L899.3,177.33L899.62,177.3L899.93,177.25L900.25,177.22L900.56,177.16L900.88,177.14L901.19,177.08L901.51,177.05L901.82,177L902.14,176.94L902.45,176.91L902.77,176.86L903.09,176.83L903.4,176.94L903.72,176.97L904.03,176.91L904.35,176.88L904.66,176.86L904.98,176.8L905.29,176.77L905.61,176.72L905.92,176.66L906.24,176.63L906.55,176.6L906.87,176.55L907.18,176.52L907.5,176.46L907.82,176.55L908.13,176.66L908.45,176.69L908.76,176.63L909.08,176.6L909.39,176.58L909.71,176.52L910.02,176.46L910.34,176.44L910.65,176.41L910.97,176.35L911.28,176.33L911.6,176.27L911.92,176.24L912.23,176.21L912.55,176.38L912.86,176.44L913.18,176.41L913.49,176.35L913.81,176.33L914.12,176.3L914.44,176.24L914.75,176.21L915.07,176.19L915.38,176.13L915.7,176.07L916.01,176.05L916.33,175.99L916.65,175.96L916.96,176.02L917.28,176.1L917.59,176.19L917.91,176.13L918.22,176.1L918.54,176.05L918.85,176.02L919.17,175.96L919.48,175.93L919.8,175.91L920.11,175.85L920.43,175.85L920.75,175.88L921.06,175.91L921.38,176.16L921.69,176.3L922.01,176.33L922.32,176.35L922.64,176.35L922.95,176.38L923.27,176.41L923.58,176.6L923.9,176.66L924.21,176.66L924.53,176.6L924.84,176.58L925.16,176.55L925.48,176.49L925.79,176.44L926.11,176.41L926.42,176.49L926.74,176.46L927.05,176.41L927.37,176.38L927.68,176.38L928,176.41L928.31,176.46L928.63,176.44L928.94,176.41L929.26,176.35L929.58,176.33L929.89,176.27L930.21,176.24L930.52,176.21L930.84,176.16L931.15,176.21L931.47,176.19L931.78,176.13L932.1,176.1L932.41,176.05L932.73,176.02L933.04,175.99L933.36,175.93L933.67,175.88L933.99,175.85L934.31,175.82L934.62,175.77L934.94,175.71L935.25,175.65L935.57,175.63L935.88,175.57L936.2,175.54L936.51,175.54L936.83,175.51L937.14,175.51L937.46,175.49L937.77,175.49L938.09,175.57L938.4,175.57L938.72,175.54L939.04,175.54L939.35,175.54L939.67,175.51L939.98,175.49L940.3,175.46L940.61,175.57L940.93,175.6L941.24,175.68L941.56,175.65L941.87,175.63L942.19,175.6L942.5,175.57L942.82,175.51L943.14,175.6L943.45,175.57L943.77,175.54L944.08,175.51L944.4,175.49L944.71,175.46L945.03,175.43L945.34,175.49L945.66,175.54L945.97,175.51L946.29,175.57L946.6,175.54L946.92,175.49L947.23,175.46L947.55,175.4L947.87,175.37L948.18,175.32L948.5,175.29L948.81,175.26L949.13,175.21L949.44,175.15L949.76,175.23L950.07,175.18L950.39,175.12L950.7,175.1L951.02,175.07L951.33,175.04L951.65,175.01L951.97,174.96L952.28,175.01L952.6,174.98L952.91,174.96L953.23,174.93L953.54,174.87L953.86,174.84L954.17,174.79L954.49,174.87L954.8,174.82L955.12,174.79L955.43,174.73L955.75,174.82L956.06,174.76L956.38,174.73L956.7,174.7L957.01,174.65L957.33,174.62L957.64,174.59L957.96,174.54L958.27,174.51L958.59,174.45L958.9,174.42L959.22,174.59L959.53,174.56L959.85,174.59L960.16,174.59L960.48,174.54L960.8,174.51L961.11,174.48L961.43,174.42L961.74,174.4L962.06,174.34L962.37,174.31L962.69,174.28L963,174.26L963.32,174.2L963.63,174.17L963.95,174.34L964.26,174.28L964.58,174.31L964.89,174.34L965.21,174.28L965.53,174.28L965.84,174.28L966.16,174.31L966.47,174.31L966.79,174.34L967.1,174.4L967.42,174.54L967.73,174.65L968.05,174.68L968.36,174.7L968.68,174.82L968.99,174.84L969.31,174.84L969.63,174.79L969.94,174.76L970.26,174.82L970.57,174.79L970.89,174.84L971.2,174.84L971.52,174.79L971.83,174.76L972.15,174.7L972.46,174.68L972.78,174.65L973.09,174.62L973.41,174.68L973.72,174.65L974.04,174.59L974.36,174.56L974.67,174.54L974.99,174.54L975.3,174.56L975.62,174.51L975.93,174.48L976.25,174.42L976.56,174.4L976.88,174.34L977.19,174.31L977.51,174.26L977.82,174.23L978.14,174.23L978.46,174.23L978.77,174.2L979.09,174.14L979.4,174.12L979.72,174.06L980.03,174.03L980.35,174L980.66,173.95L980.98,173.89L981.29,173.95L981.61,173.92L981.92,173.87L982.24,173.84L982.55,173.78L982.87,173.75L983.19,173.7L983.5,173.67L983.82,173.61L984.13,173.59L984.45,173.56L984.76,173.53L985.08,173.5L985.39,173.5L985.71,173.53L986.02,173.61L986.34,173.59L986.65,173.61L986.97,173.61L987.29,173.61L987.6,173.78L987.92,173.81L988.23,173.87L988.55,173.92L988.86,173.89L989.18,173.89L989.49,173.95L989.81,173.92L990.12,173.87L990.44,173.84L990.75,173.81L991.07,173.78L991.38,173.73L991.7,173.7L992.02,173.67L992.33,173.75L992.65,173.73L992.96,173.73L993.28,173.75L993.59,173.81L993.91,173.78L994.22,173.75L994.54,173.73L994.85,173.67L995.17,173.64L995.48,173.61L995.8,173.59L996.12,173.56L996.43,173.5L996.75,173.47L997.06,173.47L997.38,173.5L997.69,173.45L998.01,173.5L998.32,173.5L998.64,173.45L998.95,173.42L999.27,173.36L999.58,173.33L999.9,173.31L1000.2,173.28L1000.5,173.25L1000.8,173.19L1001.2,173.17L1001.5,173.11L1001.8,173.14L1002.1,173.14L1002.4,173.11L1002.7,173.17L1003.1,173.14L1003.4,173.11L1003.7,173.08L1004,173.03L1004.3,173L1004.6,172.97L1004.9,172.91L1005.3,172.89L1005.6,172.86L1005.9,172.83L1006.2,172.77L1006.5,172.8L1006.8,172.91L1007.2,172.89L1007.5,172.94L1007.8,172.91L1008.1,172.89L1008.4,172.83L1008.7,172.8L1009,172.77L1009.4,172.75L1009.7,172.72L1010,172.66L1010.3,172.63L1010.6,172.61L1010.9,172.58L1011.3,172.63L1011.6,172.72L1011.9,172.69L1012.2,172.66L1012.5,172.72L1012.8,172.69L1013.1,172.66L1013.5,172.61L1013.8,172.58L1014.1,172.55L1014.4,172.52L1014.7,172.47L1015,172.44L1015.4,172.41L1015.7,172.36L1016,172.41L1016.3,172.5L1016.6,172.5L1016.9,172.58L1017.2,172.58L1017.6,172.58L1017.9,172.55L1018.2,172.55L1018.5,172.58L1018.8,172.61L1019.1,172.61L1019.5,172.75L1019.8,172.89L1020.1,172.89L1020.4,172.89L1020.7,172.91L1021,172.97L1021.3,172.97L1021.7,172.97L1022,172.97L1022.3,173L1022.6,173L1022.9,172.94L1023.2,172.91L1023.6,173L1023.9,172.97L1024.2,172.94L1024.5,172.89L1024.8,172.86L1025.1,172.83L1025.4,172.77L1025.8,172.86L1026.1,172.83L1026.4,172.77L1026.7,172.75L1027,172.72L1027.3,172.77L1027.7,172.72L1028,172.69L1028.3,172.66L1028.6,172.63L1028.9,172.61L1029.2,172.58L1029.5,172.58L1029.9,172.55L1030.2,172.63L1030.5,172.63L1030.8,172.61L1031.1,172.61L1031.4,172.61L1031.8,172.61L1032.1,172.58L1032.4,172.55L1032.7,172.52L1033,172.5L1033.3,172.44L1033.6,172.41L1034,172.38L1034.3,172.33L1034.6,172.3L1034.9,172.24L1035.2,172.22L1035.5,172.19L1035.9,172.16L1036.2,172.24L1036.5,172.3L1036.8,172.27L1037.1,172.24L1037.4,172.22L1037.7,172.19L1038.1,172.19L1038.4,172.16L1038.7,172.22L1039,172.19L1039.3,172.16L1039.6,172.13L1039.9,172.08L1040.3,172.13L1040.6,172.1L1040.9,172.08L1041.2,172.05L1041.5,171.99L1041.8,171.96L1042.2,171.94L1042.5,171.88L1042.8,171.94L1043.1,171.91L1043.4,171.88L1043.7,171.85L1044,171.82L1044.4,171.8L1044.7,171.8L1045,171.82L1045.3,171.8L1045.6,171.77L1045.9,171.74L1046.3,171.8L1046.6,171.74L1046.9,171.71L1047.2,171.68L1047.5,171.63L1047.8,171.6L1048.1,171.57L1048.5,171.54L1048.8,171.52L1049.1,171.49L1049.4,171.46L1049.7,171.6L1050,171.57L1050.4,171.54L1050.7,171.57L1051,171.6L1051.3,171.57L1051.6,171.52L1051.9,171.49L1052.2,171.46L1052.6,171.43L1052.9,171.4L1053.2,171.35L1053.5,171.32L1053.8,171.29L1054.1,171.27L1054.5,171.38L1054.8,171.38L1055.1,171.35L1055.4,171.32L1055.7,171.35L1056,171.35L1056.3,171.32L1056.7,171.29L1057,171.27L1057.3,171.24L1057.6,171.18L1057.9,171.15L1058.2,171.13L1058.6,171.1L1058.9,171.07L1059.2,171.07L1059.5,171.18L1059.8,171.15L1060.1,171.13L1060.4,171.1L1060.8,171.15L1061.1,171.13L1061.4,171.1L1061.7,171.07L1062,171.04L1062.3,171.01L1062.7,171.01L1063,171.01L1063.3,171.1L1063.6,171.1L1063.9,171.1L1064.2,171.21L1064.5,171.18L1064.9,171.18L1065.2,171.18L1065.5,171.27L1065.8,171.35L1066.1,171.32L1066.4,171.29L1066.8,171.27L1067.1,171.24L1067.4,171.21L1067.7,171.15L1068,171.13L1068.3,171.1L1068.6,171.07L1069,171.13L1069.3,171.1L1069.6,171.07L1069.9,171.04L1070.2,171.04L1070.5,171.18L1070.9,171.15L1071.2,171.1L1071.5,171.07L1071.8,171.04L1072.1,171.01L1072.4,170.99L1072.7,170.96L1073.1,170.93L1073.4,170.9L1073.7,170.87L1074,170.93L1074.3,170.87L1074.6,170.85L1075,170.82L1075.3,170.87L1075.6,170.85L1075.9,170.82L1076.2,170.76L1076.5,170.73L1076.8,170.71L1077.2,170.68L1077.5,170.65L1077.8,170.62L1078.1,170.59L1078.4,170.54L1078.7,170.59L1079.1,170.57L1079.4,170.54L1079.7,170.51L1080,170.45" style="fill:none;stroke:#F15A60;stroke-width:1.875" />
<path d="M1055,694.3L1080,694.3" style="fill:none;stroke:#F15A60;stroke-width:1.875" />
<text x="959.12" y="-687.85" transform="scale(1, -1)"
	style="font-family:Helvetica;font-weight:normal;font-style:normal;font-size:12pt">Consul v0.6.4</text>
</g>
</svg>
