<?xml version="1.0"?>
<!-- Generated by SVGo and Plotinum VG -->
<svg width="12in" height="8in"
	xmlns="http://www.w3.org/2000/svg"
	xmlns:xlink="http://www.w3.org/1999/xlink">
<g transform="scale(1, -1) translate(0, -720)">
<path d="M0,0L1080,0L1080,720L0,720Z" style="fill:#FFFFFF" />
<text x="261.56" y="-706.41" transform="scale(1, -1)"
	style="font-family:Helvetica;font-weight:normal;font-style:normal;font-size:12pt">Write 2M keys, 1000-client, 8-byte key, 256-byte value (Consul, Test 2), Throughput</text>
<text x="548.11" y="-4.965" transform="scale(1, -1)"
	style="font-family:Helvetica;font-weight:normal;font-style:normal;font-size:12pt">Second</text>
<text x="63.613" y="-19.142" transform="scale(1, -1)"
	style="font-family:Helvetica;font-weight:normal;font-style:normal;font-size:10pt">0</text>
<text x="366.3" y="-19.142" transform="scale(1, -1)"
	style="font-family:Helvetica;font-weight:normal;font-style:normal;font-size:10pt">1000</text>
<text x="679.41" y="-19.142" transform="scale(1, -1)"
	style="font-family:Helvetica;font-weight:normal;font-style:normal;font-size:10pt">2000</text>
<text x="992.52" y="-19.142" transform="scale(1, -1)"
	style="font-family:Helvetica;font-weight:normal;font-style:normal;font-size:10pt">3000</text>
<path d="M67.088,30.467L67.088,40.467" style="fill:none;stroke:#000000;stroke-width:0.625" />
<path d="M380.2,30.467L380.2,40.467" style="fill:none;stroke:#000000;stroke-width:0.625" />
<path d="M693.31,30.467L693.31,40.467" style="fill:none;stroke:#000000;stroke-width:0.625" />
<path d="M1006.4,30.467L1006.4,40.467" style="fill:none;stroke:#000000;stroke-width:0.625" />
<path d="M223.64,35.468L223.64,40.467" style="fill:none;stroke:#000000;stroke-width:0.625" />
<path d="M536.75,35.468L536.75,40.467" style="fill:none;stroke:#000000;stroke-width:0.625" />
<path d="M849.86,35.468L849.86,40.467" style="fill:none;stroke:#000000;stroke-width:0.625" />
<path d="M67.088,40.467L1080,40.467" style="fill:none;stroke:#000000;stroke-width:0.625" />
<g transform="rotate(90)">
<text x="335.88" y="13.59" transform="scale(1, -1)"
	style="font-family:Helvetica;font-weight:normal;font-style:normal;font-size:12pt">Throughput</text>
</g>
<text x="39.405" y="-41.661" transform="scale(1, -1)"
	style="font-family:Helvetica;font-weight:normal;font-style:normal;font-size:10pt">0</text>
<text x="18.555" y="-217.25" transform="scale(1, -1)"
	style="font-family:Helvetica;font-weight:normal;font-style:normal;font-size:10pt">3000</text>
<text x="18.555" y="-392.84" transform="scale(1, -1)"
	style="font-family:Helvetica;font-weight:normal;font-style:normal;font-size:10pt">6000</text>
<text x="18.555" y="-568.42" transform="scale(1, -1)"
	style="font-family:Helvetica;font-weight:normal;font-style:normal;font-size:10pt">9000</text>
<path d="M49.83,47.03L59.83,47.03" style="fill:none;stroke:#000000;stroke-width:0.625" />
<path d="M49.83,222.62L59.83,222.62" style="fill:none;stroke:#000000;stroke-width:0.625" />
<path d="M49.83,398.21L59.83,398.21" style="fill:none;stroke:#000000;stroke-width:0.625" />
<path d="M49.83,573.79L59.83,573.79" style="fill:none;stroke:#000000;stroke-width:0.625" />
<path d="M54.83,105.56L59.83,105.56" style="fill:none;stroke:#000000;stroke-width:0.625" />
<path d="M54.83,164.09L59.83,164.09" style="fill:none;stroke:#000000;stroke-width:0.625" />
<path d="M54.83,281.15L59.83,281.15" style="fill:none;stroke:#000000;stroke-width:0.625" />
<path d="M54.83,339.68L59.83,339.68" style="fill:none;stroke:#000000;stroke-width:0.625" />
<path d="M54.83,456.73L59.83,456.73" style="fill:none;stroke:#000000;stroke-width:0.625" />
<path d="M54.83,515.26L59.83,515.26" style="fill:none;stroke:#000000;stroke-width:0.625" />
<path d="M54.83,632.32L59.83,632.32" style="fill:none;stroke:#000000;stroke-width:0.625" />
<path d="M54.83,690.85L59.83,690.85" style="fill:none;stroke:#000000;stroke-width:0.625" />
<path d="M59.83,47.03L59.83,701.44" style="fill:none;stroke:#000000;stroke-width:0.625" />
<path d="M67.088,583.63L67.401,689.15L67.714,595.62L68.027,552.84L68.34,582.28L68.653,586.55L68.966,572.62L69.279,590.82L69.592,577.48L69.905,591.23L70.219,564.66L70.532,580.93L70.845,572.39L71.158,631.39L71.471,576.43L71.784,626.41L72.097,537.91L72.41,588.6L72.723,588.89L73.037,573.44L73.35,619.04L73.663,605.34L73.976,605.11L74.289,576.25L74.602,576.84L74.915,508.18L75.228,531.01L75.541,502.68L75.855,578.71L76.168,534.46L76.481,527.15L76.794,499.29L77.107,602.36L77.42,514.74L77.733,534.81L78.046,614.82L78.359,576.02L78.673,582.51L78.986,634.14L79.299,576.89L79.612,555.88L79.925,642.33L80.238,533.12L80.551,548.22L80.864,572.91L81.177,556L81.491,554.54L81.804,492.44L82.117,594.57L82.43,522.11L82.743,639.7L83.056,554.54L83.369,595.51L83.682,538.79L83.995,624.01L84.309,548.16L84.622,647.19L84.935,540.84L85.248,618.45L85.561,545.17L85.874,661.29L86.187,497.12L86.5,632.85L86.813,510.11L87.127,651.93L87.44,627.11L87.753,531.77L88.066,628.63L88.379,535.57L88.692,617.69L89.005,611.84L89.318,501.22L89.631,635.66L89.945,497.7L90.258,632.91L90.571,641.04L90.884,442.98L91.197,625.53L91.51,577.3L91.823,442.28L92.136,653.1L92.449,558.69L92.763,454.16L93.076,701.44L93.389,651.87L93.702,447.84L94.015,619.21L94.328,598.55L94.641,477.16L94.954,643.68L95.267,615.11L95.581,471.19L95.894,621.32L96.207,655.27L96.52,422.26L96.833,675.69L97.146,586.08L97.459,432.21L97.772,410.67L98.085,674.58L98.399,573.97L98.712,498.99L99.025,597.56L99.338,681.66L99.651,433.21L99.964,262.07L100.28,626.29L100.59,669.14L100.9,534.29L101.22,427.59L101.53,628.4L101.84,624.07L102.16,522.81L102.47,435.2L102.78,652.51L103.1,609.26L103.41,472.48L103.72,528.2L104.03,679.85L104.35,647.31L104.66,463.99L104.97,645.73L105.29,581.28L105.6,637.36L105.91,491.21L106.23,525.92L106.54,629.75L106.85,455.8L107.17,487.35L107.48,330.84L107.79,620.5L108.1,626.76L108.42,439.41L108.73,403.53L109.04,372.16L109.36,487.64L109.67,661.35L109.98,443.57L110.3,285.19L110.61,339.85L110.92,313.92L111.24,535.28L111.55,650.47L111.86,519.13L112.18,306.26L112.49,461.42L112.8,371.69L113.11,587.66L113.43,593.87L113.74,592.41L114.05,483.37L114.37,393.87L114.68,542.83L114.99,592.52L115.31,560.21L115.62,555.12L115.93,456.5L116.25,547.98L116.56,682.89L116.87,646.31L117.19,576.02L117.5,446.37L117.81,675.98L118.12,338.97L118.44,380.59L118.75,382.81L119.06,376.72L119.38,297.18L119.69,600.42L120,641.98L120.32,430.34L120.63,417.52L120.94,409.44L121.26,287L121.57,600.25L121.88,644.03L122.19,339.91L122.51,292.97L122.82,326.8L123.13,335.75L123.45,336.11L123.76,287.99L124.07,382.75L124.39,339.62L124.7,334.94L125.01,282.43L125.33,273.07L125.64,113.52L125.95,47.03L126.27,51.537L126.58,78.226L126.89,73.193L127.2,105.03L127.52,67.34L127.83,85.25L128.14,53.234L128.46,94.79L128.77,52.415L129.08,47.791L129.4,47.498L129.71,47.908L130.02,49.664L130.34,49.488L130.65,48.727L130.96,48.025L131.28,49.313L131.59,54.346L131.9,58.326L132.21,56.57L132.53,47.03L132.84,48.61L133.15,47.03L133.47,47.03L133.78,47.206L134.09,47.03L134.41,47.03L134.72,48.025L135.03,47.03L135.35,47.03L135.66,47.03L135.97,47.147L136.28,47.03L136.6,47.03L136.91,49.488L137.22,47.03L137.54,47.03L137.85,47.03L138.16,47.089L138.48,47.03L138.79,50.776L139.1,52.59L139.42,48.142L139.73,48.844L140.04,47.498L140.36,47.732L140.67,47.498L140.98,48.025L141.29,49.254L141.61,49.898L141.92,48.786L142.23,48.025L142.55,49.313L142.86,54.288L143.17,73.251L143.49,55.985L143.8,48.493L144.11,48.844L144.43,47.498L144.74,47.791L145.05,48.142L145.37,49.547L145.68,49.898L145.99,48.727L146.3,47.908L146.62,49.371L146.93,54.229L147.24,69.798L147.56,54.58L147.87,52.356L148.18,48.201L148.5,48.903L148.81,47.498L149.12,47.557L149.44,48.142L149.75,47.849L150.06,50.191L150.37,50.074L150.69,47.615L151,49.488L151.31,51.186L151.63,62.072L151.94,62.189L152.25,50.776L152.57,52.239L152.88,48.201L153.19,48.844L153.51,47.557L153.82,47.557L154.13,48.084L154.45,47.791L154.76,50.074L155.07,49.02L155.38,48.727L155.7,48.025L156.01,49.488L156.32,54.171L156.64,73.251L156.95,50.425L157.26,51.127L157.58,49.02L157.89,48.084L158.2,48.961L158.52,47.44L158.83,47.674L159.14,47.908L159.46,47.791L159.77,50.074L160.08,50.074L160.39,47.674L160.71,48.025L161.02,52.532L161.33,58.443L161.65,63.945L161.96,52.707L162.27,50.776L162.59,49.722L162.9,48.903L163.21,47.615L163.53,47.557L163.84,47.674L164.15,48.084L164.46,49.196L164.78,51.069L165.09,47.615L165.4,48.025L165.72,50.717L166.03,56.629L166.34,67.691L166.66,52.824L166.97,52.356L167.28,48.201L167.6,48.844L167.91,47.557L168.22,47.732L168.54,47.908L168.85,47.849L169.16,50.249L169.47,50.074L169.79,48.084L170.1,49.43L170.41,50.951L170.73,65.584L171.04,61.604L171.35,51.42L171.67,49.547L171.98,48.844L172.29,47.732L172.61,47.557L172.92,48.025L173.23,47.849L173.55,50.191L173.86,50.132L174.17,48.201L174.48,49.488L174.8,50.776L175.11,69.33L175.42,57.741L175.74,51.244L176.05,49.839L176.36,48.844L176.68,47.732L176.99,47.674L177.3,47.732L177.62,48.025L177.93,50.249L178.24,50.132L178.55,47.557L178.87,49.956L179.18,54.697L179.49,61.955L179.81,58.268L180.12,54.58L180.43,49.664L180.75,48.844L181.06,47.674L181.37,47.732L181.69,48.025L182,47.791L182.31,51.712L182.63,48.669L182.94,48.084L183.25,50.776L183.56,64.062L183.88,58.56L184.19,54.58L184.5,52.649L184.82,48.201L185.13,48.903L185.44,47.615L185.76,47.908L186.07,48.142L186.38,51.712L186.7,48.727L187.01,48.142L187.32,49.547L187.64,61.955L187.95,61.721L188.26,54.112L188.57,51.595L188.89,49.839L189.2,48.903L189.51,47.674L189.83,47.849L190.14,47.966L190.45,50.249L190.77,50.249L191.08,47.615L191.39,50.074L191.71,54.639L192.02,69.096L192.33,53.176L192.64,52.649L192.96,49.664L193.27,48.786L193.58,47.791L193.9,47.966L194.21,47.966L194.52,50.191L194.84,50.366L195.15,48.142L195.46,49.488L195.78,54.288L196.09,61.838L196.4,54.99L196.72,50.776L197.03,49.079L197.34,52.59L197.65,49.722L197.97,48.903L198.28,47.557L198.59,47.908L198.91,47.908L199.22,50.425L199.53,50.308L199.85,47.674L200.16,49.839L200.47,54.463L200.79,60.141L201.1,56.687L201.41,53.936L201.73,51.537L202.04,49.722L202.35,48.727L202.66,47.732L202.98,47.849L203.29,47.908L203.6,50.425L203.92,50.249L204.23,47.674L204.54,50.015L204.86,50.717L205.17,61.487L205.48,58.97L205.8,53L206.11,52.415L206.42,49.781L206.73,48.727L207.05,47.732L207.36,47.908L207.67,47.908L207.99,50.366L208.3,50.308L208.61,47.615L208.93,49.898L209.24,50.893L209.55,58.736L209.87,61.662L210.18,53.059L210.49,52.356L210.81,49.781L211.12,48.727L211.43,47.674L211.74,47.849L212.06,48.025L212.37,50.366L212.68,50.249L213,47.732L213.31,50.015L213.62,50.717L213.94,58.619L214.25,57.741L214.56,57.038L214.88,52.415L215.19,49.781L215.5,48.727L215.81,47.732L216.13,47.674L216.44,48.142L216.75,50.366L217.07,50.366L217.38,47.615L217.69,47.791L218.01,49.547L218.32,47.03L218.63,47.03L218.95,76.646L219.26,47.03L219.57,47.03L219.89,62.774L220.2,47.03L220.51,47.03L220.82,47.03L221.14,47.03L221.45,47.03L221.76,47.03L222.08,47.03L222.39,65.35L222.7,47.03L223.02,47.03L223.33,47.03L223.64,47.03L223.96,47.03L224.27,47.03L224.58,58.443L224.9,73.661L225.21,81.153L225.52,77.407L225.83,62.248L226.15,85.074L226.46,69.856L226.77,77.465L227.09,85.074L227.4,54.58L227.71,73.602L228.03,58.443L228.34,62.248L228.65,62.306L228.97,62.189L229.28,62.306L229.59,59.906L229.9,62.248L230.22,62.248L230.53,58.443L230.84,63.652L231.16,59.438L231.47,65.116L231.78,58.502L232.1,59.906L232.41,62.248L232.72,62.306L233.04,58.385L233.35,58.56L233.66,63.477L233.98,58.619L234.29,58.443L234.6,62.248L234.91,55.985L235.23,62.306L235.54,54.756L235.85,62.131L236.17,58.619L236.48,59.614L236.79,58.677L237.11,58.385L237.42,62.189L237.73,54.814L238.05,59.614L238.36,54.873L238.67,58.443L238.99,62.131L239.3,55.575L239.61,57.682L239.92,52.239L240.24,62.423L240.55,58.56L240.86,58.209L241.18,54.873L241.49,59.497L241.8,54.931L242.12,54.814L242.43,61.955L242.74,58.385L243.06,54.756L243.37,55.868L243.68,55.049L243.99,54.756L244.31,62.013L244.62,58.326L244.93,51.771L245.25,58.736L245.56,54.99L245.87,54.873L246.19,58.326L246.5,58.209L246.81,55.517L247.13,53.936L247.44,55.926L247.75,54.814L248.07,58.385L248.38,58.268L248.69,54.756L249,51.829L249.32,58.677L249.63,55.049L249.94,54.756L250.26,58.268L250.57,54.463L250.88,55.517L251.2,54.814L251.51,55.107L251.82,54.873L252.14,54.814L252.45,58.209L252.76,58.151L253.08,51.829L253.39,54.756L253.7,55.107L254.01,54.99L254.33,58.326L254.64,54.756L254.95,58.033L255.27,51.771L255.58,54.756L255.89,53.995L256.21,56.219L256.52,58.209L256.83,54.756L257.15,58.092L257.46,51.829L257.77,57.565L258.08,52.298L258.4,54.99L258.71,61.896L259.02,54.873L259.34,54.463L259.65,55.4L259.96,53.995L260.28,55.809L260.59,55.049L260.9,62.013L261.22,54.522L261.53,54.873L261.84,51.595L262.16,53.995L262.47,55.809L262.78,54.931L263.09,58.326L263.41,53.819L263.72,55.517L264.03,55.166L264.35,53.878L264.66,51.244L264.97,56.043L265.29,54.697L265.6,58.092L265.91,54.697L266.23,54.756L266.54,51.595L266.85,57.682L267.17,52.181L267.48,54.873L267.79,58.209L268.1,52.649L268.42,56.629L268.73,55.283L269.04,53.936L269.36,51.186L269.67,56.043L269.98,54.756L270.3,58.092L270.61,51.127L270.92,58.209L271.24,51.595L271.55,53.995L271.86,55.049L272.17,52.298L272.49,58.209L272.8,54.463L273.11,58.151L273.43,51.771L273.74,54.697L274.05,54.054L274.37,55.926L274.68,54.756L274.99,54.697L275.31,54.639L275.62,54.58L275.93,55.341L276.25,53.878L276.56,55.049L276.87,52.064L277.18,58.443L277.5,51.01L277.81,54.463L278.12,58.268L278.44,51.654L278.75,57.565L279.06,51.303L279.38,52.064L279.69,58.56L280,54.346L280.32,51.069L280.63,58.209L280.94,51.595L281.26,57.741L281.57,52.181L281.88,51.069L282.19,58.56L282.51,54.346L282.82,54.931L283.13,54.346L283.45,51.654L283.76,57.682L284.07,52.181L284.39,54.814L284.7,58.209L285.01,51.244L285.33,57.916L285.64,51.361L285.95,55.107L286.26,54.054L286.58,55.868L286.89,47.498L287.2,47.03L287.52,47.03L287.83,69.739L288.14,47.03L288.46,47.03L288.77,73.544L289.08,47.03L289.4,63.945L289.71,47.03L290.02,47.03L290.34,47.03L290.65,47.03L290.96,47.03L291.27,47.03L291.59,47.03L291.9,47.03L292.21,58.443L292.53,47.03L292.84,47.03L293.15,47.03L293.47,47.03L293.78,47.03L294.09,47.03L294.41,85.015L294.72,77.407L295.03,69.856L295.35,88.82L295.66,73.602L295.97,69.856L296.28,85.074L296.6,69.798L296.91,77.465L297.22,81.27L297.54,77.465L297.85,69.856L298.16,73.661L298.48,77.465L298.79,81.211L299.1,58.502L299.42,62.248L299.73,62.248L300.04,65.993L300.35,58.502L300.67,65.935L300.98,56.219L301.29,62.189L301.61,62.306L301.92,62.248L302.23,60.023L302.55,62.131L302.86,58.502L303.17,58.443L303.49,62.189L303.8,60.726L304.11,61.545L304.43,62.131L304.74,58.443L305.05,56.336L305.36,62.072L305.68,62.248L305.99,54.697L306.3,62.248L306.62,56.102L306.93,62.248L307.24,58.385L307.56,54.873L307.87,62.013L308.18,47.089L308.5,47.206L308.81,59.731L309.12,58.502L309.44,58.385L309.75,54.814L310.06,62.072L310.37,52.473L310.69,54.522L311,54.697L311.31,54.639L311.63,54.58L311.94,54.756L312.25,61.896L312.57,51.186L312.88,55.926L313.19,54.756L313.51,54.639L313.82,54.522L314.13,54.639L314.44,58.385L314.76,54.873L315.07,52.181L315.38,58.268L315.7,51.186L316.01,58.151L316.32,54.697L316.64,58.385L316.95,54.931L317.26,52.181L317.58,54.522L317.89,54.814L318.2,54.522L318.52,54.814L318.83,61.955L319.14,54.873L319.45,52.181L319.77,58.326L320.08,51.186L320.39,54.405L320.71,54.873L321.02,58.502L321.33,54.58L321.65,52.649L321.96,54.522L322.27,58.033L322.59,51.244L322.9,57.741L323.21,55.283L323.53,58.326L323.84,52.59L324.15,54.522L324.46,57.916L324.78,51.127L325.09,54.697L325.4,54.639L325.72,61.896L326.03,52.766L326.34,54.639L326.66,54.463L326.97,54.58L327.28,54.639L327.6,54.756L327.91,58.209L328.22,56.278L328.53,54.463L328.85,50.893L329.16,54.814L329.47,54.522L329.79,58.268L330.1,54.99L330.41,54.756L330.73,55.692L331.04,54.639L331.35,54.522L331.67,51.244L331.98,54.639L332.29,54.639L332.61,54.756L332.92,59.672L333.23,54.463L333.54,50.951L333.86,54.756L334.17,54.522L334.48,54.756L334.8,54.171L335.11,54.931L335.42,56.395L335.74,54.697L336.05,54.288L336.36,51.303L336.68,57.916L336.99,54.697L337.3,50.659L337.61,58.619L337.93,52.473L338.24,54.814L338.55,50.425L338.87,50.893L339.18,51.303L339.49,54.346L339.81,58.268L340.12,50.6L340.43,54.873L340.75,56.219L341.06,54.288L341.37,51.186L341.69,54.58L342,50.951L342.31,47.966L342.62,61.136L342.94,50.6L343.25,55.926L343.56,54.171L343.88,48.552L344.19,57.741L344.5,51.01L344.82,51.127L345.13,51.069L345.44,54.171L345.76,54.522L346.07,50.776L346.38,55.049L346.7,54.873L347.01,52.298L347.32,53.995L347.63,51.127L347.95,51.01L348.26,51.01L348.57,53.995L348.89,54.814L349.2,50.659L349.51,55.107L349.83,54.814L350.14,48.552L350.45,57.682L350.77,47.381L351.08,47.147L351.39,54.522L351.7,51.01L352.02,47.849L352.33,53.878L352.64,54.639L352.96,54.522L353.27,54.756L353.58,52.239L353.9,54.756L354.21,50.6L354.52,50.893L354.84,50.893L355.15,50.659L355.46,47.908L355.78,53.995L356.09,54.522L356.4,54.405L356.71,54.99L357.03,52.298L357.34,54.171L357.65,50.951L357.97,50.951L358.28,47.03L358.59,47.03L358.91,55.517L359.22,47.03L359.53,47.03L359.85,47.03L360.16,47.03L360.47,80.743L360.79,47.03L361.1,47.03L361.41,50.483L361.72,63.769L362.04,47.03L362.35,47.03L362.66,47.03L362.98,47.03L363.29,47.03L363.6,54.697L363.92,47.03L364.23,47.03L364.54,47.03L364.86,47.03L365.17,47.03L365.48,77.465L365.79,73.602L366.11,77.465L366.42,73.661L366.73,77.407L367.05,74.129L367.36,76.938L367.67,77.407L367.99,77.407L368.3,77.465L368.61,77.465L368.93,77.465L369.24,54.639L369.55,68.335L369.87,59.965L370.18,62.248L370.49,65.993L370.8,62.189L371.12,58.502L371.43,59.965L371.74,62.248L372.06,65.935L372.37,58.619L372.68,59.906L373,62.189L373.31,58.385L373.62,62.248L373.94,56.219L374.25,62.365L374.56,58.385L374.88,62.131L375.19,58.385L375.5,56.336L375.81,62.365L376.13,61.896L376.44,54.756L376.75,62.131L377.07,56.395L377.38,58.56L377.69,58.385L378.01,58.209L378.32,58.443L378.63,56.278L378.95,58.677L379.26,58.385L379.57,61.838L379.88,54.931L380.2,59.789L380.51,54.931L380.82,61.896L381.14,54.756L381.45,62.072L381.76,56.278L382.08,58.677L382.39,61.779L382.7,51.303L383.02,58.092L383.33,58.385L383.64,60.141L383.96,54.931L384.27,58.326L384.58,60.609L384.89,55.868L385.21,56.278L385.52,58.502L385.83,54.697L386.15,58.619L386.46,57.916L386.77,54.99L387.09,56.278L387.4,58.385L387.71,61.779L388.03,51.478L388.34,57.975L388.65,54.99L388.97,56.161L389.28,58.443L389.59,58.326L389.9,54.814L390.22,57.799L390.53,55.166L390.84,56.161L391.16,50.717L391.47,47.03L391.78,54.931L392.1,60.901L392.41,52.064L392.72,57.916L393.04,55.049L393.35,56.161L393.66,54.697L393.97,50.893L394.29,54.405L394.6,54.58L394.91,51.244L395.23,57.858L395.54,55.283L395.85,55.868L396.17,54.639L396.48,51.01L396.79,54.346L397.11,54.756L397.42,54.522L397.73,54.346L398.05,55.166L398.36,56.043L398.67,54.697L398.98,54.463L399.3,54.58L399.61,51.186L399.92,54.346L400.24,54.405L400.55,55.985L400.86,55.166L401.18,54.697L401.49,54.405L401.8,54.522L402.12,51.186L402.43,54.522L402.74,54.288L403.06,55.458L403.37,55.692L403.68,54.697L403.99,54.463L404.31,54.463L404.62,51.186L404.93,54.405L405.25,54.346L405.56,55.341L405.87,54.171L406.19,52.824L406.5,54.522L406.81,50.951L407.13,57.975L407.44,51.244L407.75,56.512L408.06,56.102L408.38,50.834L408.69,56.453L409,51.01L409.32,54.346L409.63,54.58L409.94,54.639L410.26,54.639L410.57,54.405L410.88,52.239L411.2,55.224L411.51,54.522L411.82,51.244L412.14,57.858L412.45,54.58L412.76,54.58L413.07,50.659L413.39,55.283L413.7,55.809L414.01,54.639L414.33,51.127L414.64,54.697L414.95,54.405L415.27,51.127L415.58,56.395L415.89,52.356L416.21,52.122L416.52,56.043L416.83,53.819L417.15,51.186L417.46,57.799L417.77,54.522L418.08,54.522L418.4,50.717L418.71,54.931L419.02,48.435L419.34,58.677L419.65,51.069L419.96,51.186L420.28,57.741L420.59,54.756L420.9,54.288L421.22,50.717L421.53,54.99L421.84,48.259L422.15,47.147L422.47,47.03L422.78,47.089L423.09,58.853L423.41,54.405L423.72,51.069L424.03,57.858L424.35,51.361L424.66,54.112L424.97,50.717L425.29,54.931L425.6,48.376L425.91,54.697L426.23,54.814L426.54,51.42L426.85,54.463L427.16,54.112L427.48,50.893L427.79,47.498L428.1,54.054L428.42,47.03L428.73,47.03L429.04,59.028L429.36,47.03L429.67,47.03L429.98,47.03L430.3,47.03L430.61,47.03L430.92,86.186L431.24,47.03L431.55,47.03L431.86,55.107L432.17,47.03L432.49,47.03L432.8,50.834L433.11,47.03L433.43,47.03L433.74,47.03L434.05,47.03L434.37,47.03L434.68,54.639L434.99,47.03L435.31,60.901L435.62,75.007L435.93,50.834L436.24,104.04L436.56,69.856L436.87,85.015L437.18,66.052L437.5,69.915L437.81,62.248L438.12,62.248L438.44,62.248L438.75,62.189L439.06,58.443L439.38,63.769L439.69,62.248L440,62.189L440.32,62.248L440.63,59.965L440.94,62.131L441.25,58.502L441.57,58.56L441.88,62.306L442.19,59.789L442.51,58.502L442.82,58.443L443.13,62.131L443.45,58.619L443.76,59.672L444.07,54.873L444.39,62.131L444.7,58.385L445.01,58.619L445.32,59.672L445.64,54.873L445.95,58.326L446.26,54.814L446.58,64.179L446.89,57.799L447.2,54.931L447.52,58.443L447.83,58.326L448.14,58.385L448.46,58.443L448.77,59.731L449.08,54.814L449.4,58.326L449.71,54.873L450.02,58.326L450.33,57.565L450.65,57.038L450.96,54.931L451.27,61.838L451.59,54.58L451.9,58.56L452.21,57.565L452.53,53.585L452.84,58.326L453.15,58.326L453.47,58.326L453.78,58.385L454.09,56.043L454.41,58.56L454.72,54.814L455.03,58.385L455.34,58.443L455.66,57.448L455.97,56.98L456.28,54.99L456.6,61.779L456.91,51.127L457.22,58.385L457.54,57.448L457.85,56.98L458.16,54.814L458.48,58.677L458.79,58.033L459.1,54.873L459.41,61.136L459.73,53.527L460.04,54.756L460.35,58.443L460.67,57.975L460.98,54.756L461.29,55.926L461.61,54.756L461.92,58.56L462.23,54.99L462.55,61.604L462.86,54.873L463.17,55.868L463.49,52.59L463.8,57.097L464.11,54.99L464.42,58.092L464.74,58.209L465.05,51.244L465.36,57.331L465.68,57.214L465.99,54.697L466.3,54.756L466.62,61.662L466.93,54.697L467.24,54.639L467.56,53.761L467.87,53.585L468.18,48.025L468.5,49.664L468.81,50.834L469.12,54.814L469.43,54.697L469.75,57.975L470.06,51.946L470.37,56.57L470.69,56.921L471,51.01L471.31,51.01L471.63,54.639L471.94,54.229L472.25,51.303L472.57,54.171L472.88,51.946L473.19,55.166L473.5,58.268L473.82,48.552L474.13,53.527L474.44,54.639L474.76,51.127L475.07,54.405L475.38,54.171L475.7,51.946L476.01,55.166L476.32,54.58L476.64,52.298L476.95,53.468L477.26,54.639L477.58,51.186L477.89,50.483L478.2,58.033L478.51,51.946L478.83,55.166L479.14,54.054L479.45,52.649L479.77,53.351L480.08,51.42L480.39,54.522L480.71,50.6L481.02,57.624L481.33,51.595L481.65,54.522L481.96,53.878L482.27,54.463L482.59,53.176L482.9,51.42L483.21,54.522L483.52,50.659L483.84,57.565L484.15,51.537L484.46,54.58L484.78,53.819L485.09,53.527L485.4,51.244L485.72,54.346L486.03,54.522L486.34,50.542L486.66,51.186L486.97,57.858L487.28,48.376L487.59,60.023L487.91,53.351L488.22,51.01L488.53,51.361L488.85,54.463L489.16,54.171L489.47,51.303L489.79,53.995L490.1,52.005L490.41,60.199L490.73,53.293L491.04,51.127L491.35,51.244L491.67,54.697L491.98,53.936L492.29,51.361L492.6,57.741L492.92,48.259L493.23,56.512L493.54,47.03L493.86,47.03L494.17,47.03L494.48,68.803L494.8,58.092L495.11,47.03L495.42,47.03L495.74,47.03L496.05,47.03L496.36,47.03L496.68,73.368L496.99,53.468L497.3,47.03L497.61,50.834L497.93,47.03L498.24,50.834L498.55,47.03L498.87,47.03L499.18,47.03L499.49,47.03L499.81,47.03L500.12,47.03L500.43,54.58L500.75,54.639L501.06,73.661L501.37,65.993L501.68,88.878L502,81.211L502.31,73.544L502.62,85.074L502.94,69.856L503.25,81.27L503.56,77.465L503.88,73.661L504.19,78.636L504.5,64.881L504.82,85.015L505.13,81.27L505.44,62.189L505.76,62.248L506.07,62.306L506.38,62.189L506.69,62.248L507.01,62.306L507.32,58.443L507.63,63.711L507.95,62.248L508.26,62.248L508.57,62.072L508.89,56.336L509.2,65.642L509.51,58.794L509.83,62.248L510.14,58.268L510.45,56.336L510.77,62.248L511.08,62.248L511.39,59.906L511.7,54.697L512.02,62.072L512.33,58.56L512.64,62.189L512.96,47.03L513.27,54.756L513.58,54.405L513.9,56.336L514.21,58.443L514.52,62.248L514.84,58.326L515.15,52.415L515.46,52.883L515.77,52.707L516.09,58.443L516.4,58.677L516.71,61.838L517.03,51.069L517.34,53.234L517.65,53.585L517.97,54.756L518.28,62.072L518.59,58.502L518.91,58.385L519.22,52.473L519.53,52.941L519.85,52.59L520.16,58.326L520.47,58.385L520.78,62.072L521.1,51.069L521.41,53.351L521.72,57.273L522.04,51.127L522.35,61.955L522.66,58.502L522.98,55.107L523.29,55.575L523.6,53.059L523.92,52.649L524.23,54.697L524.54,62.131L524.86,58.326L525.17,54.639L525.48,53.41L525.79,57.273L526.11,51.069L526.42,59.555L526.73,53.819L527.05,61.604L527.36,51.127L527.67,53.293L527.99,57.273L528.3,51.127L528.61,59.497L528.93,53.819L529.24,61.604L529.55,51.127L529.86,53.351L530.18,53.819L530.49,54.522L530.8,54.756L531.12,58.209L531.43,55.166L531.74,54.463L532.06,54.288L532.37,50.717L532.68,56.278L533,54.639L533.31,58.619L533.62,50.951L533.94,58.619L534.25,50.893L534.56,54.112L534.87,49.43L535.19,53.878L535.5,50.834L535.81,58.326L536.13,55.751L536.44,53.761L536.75,54.99L537.07,50.951L537.38,56.336L537.69,51.946L538.01,51.712L538.32,51.829L538.63,58.443L538.95,54.405L539.26,55.107L539.57,54.229L539.88,50.951L540.2,53.293L540.51,51.946L540.82,52.415L541.14,51.186L541.45,62.072L541.76,50.659L542.08,55.224L542.39,54.58L542.7,54.112L543.02,50.659L543.33,52.707L543.64,50.893L543.95,54.697L544.27,58.268L544.58,51.069L544.89,54.931L545.21,54.697L545.52,56.278L545.83,48.318L546.15,52.649L546.46,50.893L546.77,58.268L547.09,54.873L547.4,50.951L547.71,54.931L548.03,54.697L548.34,56.219L548.65,52.122L548.96,47.089L549.28,52.473L549.59,58.443L549.9,47.03L550.22,47.03L550.53,47.03L550.84,47.03L551.16,47.03L551.47,47.03L551.78,47.03L552.1,47.03L552.41,47.03L552.72,47.03L553.04,47.03L553.35,103.98L553.66,47.03L553.97,47.03L554.29,48.61L554.6,47.03L554.91,47.03L555.23,50.834L555.54,47.03L555.85,47.03L556.17,47.03L556.48,47.03L556.79,73.661L557.11,77.407L557.42,69.798L557.73,85.015L558.04,69.856L558.36,73.602L558.67,85.074L558.98,69.856L559.3,77.465L559.61,81.211L559.92,73.661L560.24,79.923L560.55,75.007L560.86,77.465L561.18,73.661L561.49,69.856L561.8,62.131L562.12,65.35L562.43,62.95L562.74,62.306L563.05,58.443L563.37,65.993L563.68,59.906L563.99,58.56L564.31,62.189L564.62,66.052L564.93,59.848L565.25,58.502L565.56,62.131L565.87,58.619L566.19,62.189L566.5,56.278L566.81,62.072L567.12,59.438L567.44,64.998L567.75,56.336L568.06,58.268L568.38,58.443L568.69,62.365L569,62.131L569.32,56.219L569.63,54.697L569.94,62.072L570.26,58.56L570.57,62.833L570.88,59.438L571.2,58.268L571.51,58.56L571.82,55.166L572.13,61.604L572.45,56.161L572.76,54.873L573.07,61.896L573.39,55.049L573.7,58.268L574.01,58.326L574.33,56.219L574.64,54.639L574.95,58.326L575.27,54.99L575.58,58.209L575.89,58.385L576.21,56.161L576.52,51.01L576.83,61.896L577.14,54.99L577.46,58.268L577.77,58.326L578.08,47.089L578.4,47.03L578.71,52.473L579.02,54.697L579.34,58.853L579.65,54.171L579.96,55.634L580.28,57.331L580.59,54.639L580.9,52.415L581.21,51.186L581.53,54.288L581.84,54.99L582.15,50.425L582.47,54.756L582.78,54.405L583.09,54.931L583.41,55.751L583.72,54.756L584.03,50.893L584.35,54.463L584.66,51.595L584.97,50.366L585.29,54.697L585.6,54.405L585.91,54.873L586.22,50.893L586.54,50.483L586.85,47.03L587.16,47.089L587.48,47.03L587.79,47.03L588.1,47.089L588.42,47.03L588.73,53.585L589.04,76.997L589.36,68.978L589.67,61.136L589.98,73.251L590.3,65.174L590.61,53.702L590.92,58.385L591.23,62.072L591.55,61.955L591.86,54.346L592.17,53.176L592.49,51.01L592.8,54.463L593.11,58.151L593.43,54.639L593.74,54.463L594.05,58.151L594.37,50.776L594.68,50.6L594.99,53.41L595.3,54.405L595.62,50.893L595.93,54.463L596.24,54.522L596.56,54.58L596.87,58.092L597.18,50.776L597.5,50.6L597.81,50.074L598.12,54.405L598.44,54.229L598.75,54.522L599.06,51.069L599.38,60.55L599.69,65.642L600,53.176L600.31,52.298L600.63,54.346L600.94,51.127L601.25,54.58L601.57,64.238L601.88,58.268L602.19,54.288L602.51,54.346L602.82,50.951L603.13,54.58L603.45,54.346L603.76,60.96L604.07,58.268L604.39,54.288L604.7,54.346L605.01,50.951L605.32,54.58L605.64,54.346L605.95,57.214L606.26,61.721L606.58,51.01L606.89,54.58L607.2,54.171L607.52,51.186L607.83,54.288L608.14,60.258L608.46,55.224L608.77,54.405L609.08,54.463L609.39,54.288L609.71,53.644L610.02,51.712L610.33,54.405L610.65,57.156L610.96,61.721L611.27,51.127L611.59,54.171L611.9,54.346L612.21,51.42L612.53,54.58L612.84,56.102L613.15,53.117L613.47,60.199L613.78,54.288L614.09,51.186L614.4,54.054L614.72,51.361L615.03,54.405L615.34,54.171L615.66,60.96L615.97,54.697L616.28,53.936L616.6,51.303L616.91,54.054L617.22,51.361L617.54,54.346L617.85,54.171L618.16,57.156L618.48,58.209L618.79,54.346L619.1,51.127L619.41,54.054L619.73,51.361L620.04,54.405L620.35,54.171L620.67,57.097L620.98,58.268L621.29,54.288L621.61,51.244L621.92,53.995L622.23,51.361L622.55,47.03L622.86,47.03L623.17,47.03L623.48,47.03L623.8,47.03L624.11,47.03L624.42,47.03L624.74,47.03L625.05,105.09L625.36,47.03L625.68,47.03L625.99,47.03L626.3,47.03L626.62,47.03L626.93,47.03L627.24,47.03L627.56,47.03L627.87,47.03L628.18,47.03L628.49,47.03L628.81,47.03L629.12,62.716L629.43,47.03L629.75,47.03L630.06,62.248L630.37,81.153L630.69,69.856L631,79.397L631.31,82.323L631.63,66.754L631.94,81.27L632.25,81.27L632.57,73.602L632.88,77.465L633.19,77.465L633.5,73.427L633.82,77.699L634.13,77.465L634.44,73.661L634.76,77.407L635.07,72.139L635.38,67.574L635.7,66.052L636.01,62.189L636.32,62.306L636.64,62.189L636.95,62.306L637.26,62.248L637.57,59.848L637.89,62.248L638.2,58.56L638.51,58.502L638.83,63.594L639.14,62.248L639.45,52.005L639.77,49.605L640.08,47.089L640.39,47.03L640.71,50.776L641.02,47.03L641.33,47.089L641.65,47.03L641.96,47.089L642.27,47.03L642.58,50.776L642.9,47.03L643.21,47.03L643.52,47.089L643.84,47.03L644.15,47.03L644.46,47.03L644.78,47.089L645.09,47.03L645.4,47.03L645.72,50.776L646.03,47.03L646.34,47.03L646.66,47.147L646.97,47.03L647.28,54.463L647.59,56.102L647.91,58.56L648.22,62.131L648.53,54.639L648.85,54.814L649.16,54.639L649.47,54.756L649.79,55.751L650.1,54.756L650.41,58.326L650.73,50.951L651.04,54.58L651.35,54.814L651.66,50.951L651.98,54.639L652.29,52.122L652.6,50.951L652.92,54.463L653.23,51.069L653.54,54.405L653.86,50.717L654.17,51.01L654.48,54.814L654.8,54.405L655.11,51.01L655.42,50.951L655.74,52.005L656.05,50.951L656.36,51.01L656.67,50.834L656.99,54.288L657.3,51.01L657.61,50.659L657.93,51.01L658.24,54.639L658.55,51.01L658.87,50.776L659.18,51.01L659.49,51.771L659.81,51.127L660.12,50.893L660.43,51.01L660.75,50.776L661.06,52.005L661.37,53.176L661.68,50.6L662,51.01L662.31,50.951L662.62,51.069L662.94,50.951L663.25,50.717L663.56,50.951L663.88,50.776L664.19,51.946L664.5,50.834L664.82,50.834L665.13,47.557L665.44,50.659L665.75,51.946L666.07,53.117L666.38,50.6L666.69,51.01L667.01,51.01L667.32,51.01L667.63,50.893L667.95,50.834L668.26,50.951L668.57,50.776L668.89,51.888L669.2,50.834L669.51,47.615L669.83,50.659L670.14,50.717L670.45,50.834L670.76,54.229L671.08,50.6L671.39,47.498L671.7,54.463L672.02,47.03L672.33,47.03L672.64,58.56L672.96,47.03L673.27,47.03L673.58,47.03L673.9,47.03L674.21,47.03L674.52,47.03L674.83,47.03L675.15,47.03L675.46,47.03L675.77,78.87L676.09,47.03L676.4,47.03L676.71,47.03L677.03,47.03L677.34,47.03L677.65,47.03L677.97,77.524L678.28,47.03L678.59,47.03L678.91,50.834L679.22,54.639L679.53,73.602L679.84,85.074L680.16,73.661L680.47,73.661L680.78,81.27L681.1,73.661L681.41,62.248L681.72,58.443L682.04,65.993L682.35,62.248L682.66,62.248L682.98,62.189L683.29,59.965L683.6,62.248L683.92,62.248L684.23,62.248L684.54,59.906L684.85,58.502L685.17,62.189L685.48,62.248L685.79,62.365L686.11,56.102L686.42,62.248L686.73,62.248L687.05,58.502L687.36,59.848L687.67,65.993L687.99,57.624L688.3,63.008L688.61,54.931L688.92,55.985L689.24,62.131L689.55,54.873L689.86,58.326L690.18,58.502L690.49,52.239L690.8,65.818L691.12,51.186L691.43,61.253L691.74,48.084L692.06,50.659L692.37,47.206L692.68,47.03L693,50.776L693.31,47.03L693.62,47.089L693.93,47.03L694.25,47.03L694.56,47.03L694.87,50.542L695.19,47.03L695.5,47.03L695.81,47.089L696.13,47.03L696.44,47.264L696.75,76.997L697.07,75.3L697.38,57.799L697.69,62.774L698.01,62.013L698.32,58.268L698.63,53.117L698.94,54.405L699.26,50.893L699.57,54.639L699.88,58.151L700.2,54.58L700.51,54.58L700.82,56.746L701.14,50.717L701.45,51.127L701.76,52.532L702.08,48.844L702.39,54.522L702.7,54.522L703.01,53.176L703.33,59.555L703.64,54.405L703.95,49.547L704.27,50.717L704.58,50.834L704.89,50.659L705.21,49.313L705.52,48.61L705.83,50.893L706.15,58.092L706.46,50.893L706.77,58.443L707.09,54.229L707.4,50.893L707.71,52.649L708.02,47.557L708.34,50.542L708.65,50.542L708.96,47.44L709.28,49.254L709.59,48.435L709.9,50.893L710.22,54.697L710.53,54.229L710.84,58.385L711.16,54.288L711.47,50.834L711.78,49.547L712.1,50.6L712.41,47.732L712.72,50.542L713.03,50.425L713.35,49.137L713.66,48.201L713.97,51.186L714.29,54.58L714.6,51.01L714.91,56.687L715.23,55.868L715.54,51.01L715.85,52.824L716.17,50.542L716.48,47.732L716.79,50.483L717.1,50.483L717.42,49.137L717.73,48.259L718.04,47.791L718.36,52.239L718.67,56.629L718.98,50.951L719.3,58.619L719.61,54.112L719.92,51.069L720.24,49.196L720.55,50.659L720.86,50.542L721.18,50.542L721.49,47.498L721.8,49.137L722.11,48.493L722.43,51.01L722.74,54.463L723.05,54.405L723.37,58.326L723.68,52.707L723.99,52.649L724.31,49.313L724.62,50.6L724.93,47.732L725.25,50.659L725.56,50.249L725.87,49.137L726.19,48.259L726.5,51.186L726.81,50.951L727.12,54.522L727.44,54.756L727.75,57.975L728.06,51.069L728.38,52.707L728.69,50.6L729,47.674L729.32,50.483L729.63,50.366L729.94,47.615L730.26,49.137L730.57,48.435L730.88,51.01L731.19,54.522L731.51,54.288L731.82,58.677L732.13,54.054L732.45,50.834L732.76,49.371L733.07,50.717L733.39,47.732L733.7,50.542L734.01,50.191L734.33,49.137L734.64,48.318L734.95,47.849L735.27,52.298L735.58,56.57L735.89,54.639L736.2,57.975L736.52,51.069L736.83,51.01L737.14,52.356L737.46,47.498L737.77,50.425L738.08,50.6L738.4,47.557L738.71,48.727L739.02,47.089L739.34,47.03L739.65,47.089L739.96,47.03L740.28,47.147L740.59,47.03L740.9,47.089L741.21,47.03L741.53,47.03L741.84,47.089L742.15,47.03L742.47,47.03L742.78,47.03L743.09,47.147L743.41,47.03L743.72,47.03L744.03,47.089L744.35,47.03L744.66,47.03L744.97,47.03L745.28,47.089L745.6,63.945L745.91,76.938L746.22,58.677L746.54,67.749L746.85,76.938L747.16,54.99L747.48,54.58L747.79,60.199L748.1,54.463L748.42,65.701L748.73,47.03L749.04,47.03L749.36,68.159L749.67,47.03L749.98,47.03L750.29,47.03L750.61,47.03L750.92,47.03L751.23,88.586L751.55,73.602L751.86,73.661L752.17,73.661L752.49,73.602L752.8,62.248L753.11,58.502L753.43,62.248L753.74,65.993L754.05,58.502L754.37,62.189L754.68,59.906L754.99,62.306L755.3,62.189L755.62,62.306L755.93,59.906L756.24,58.443L756.56,62.248L756.87,62.189L757.18,58.502L757.5,59.848L757.81,58.619L758.12,62.189L758.44,58.443L758.75,59.906L759.06,62.306L759.37,58.56L759.69,62.013L760,58.443L760.31,56.395L760.63,62.131L760.94,58.56L761.25,61.955L761.57,56.102L761.88,54.814L762.19,58.443L762.51,62.306L762.82,58.268L763.13,59.848L763.45,53.176L763.76,60.141L764.07,62.248L764.38,58.268L764.7,59.848L765.01,52.473L765.32,60.784L765.64,58.502L765.95,62.013L766.26,58.443L766.58,52.532L766.89,53.702L767.2,59.38L767.52,58.853L767.83,58.56L768.14,59.438L768.46,54.697L768.77,58.326L769.08,58.56L769.39,58.443L769.71,58.326L770.02,56.219L770.33,57.39L770.65,55.751L770.96,58.677L771.27,58.092L771.59,58.268L771.9,53.936L772.21,56.98L772.53,59.965L772.84,60.784L773.15,58.268L773.46,56.161L773.78,53.761L774.09,59.438L774.4,58.502L774.72,58.092L775.03,54.756L775.34,56.512L775.66,57.214L775.97,55.868L776.28,58.56L776.6,58.092L776.91,58.268L777.22,53.878L777.54,57.038L777.85,58.56L778.16,54.873L778.47,58.092L778.79,54.58L779.1,57.565L779.41,57.038L779.73,58.736L780.04,58.268L780.35,54.639L780.67,58.209L780.98,54.639L781.29,56.395L781.61,58.56L781.92,54.756L782.23,58.151L782.55,58.209L782.86,54.639L783.17,56.453L783.48,58.56L783.8,58.268L784.11,54.639L784.42,58.209L784.74,54.697L785.05,56.278L785.36,58.56L785.68,54.99L785.99,57.916L786.3,54.814L786.62,58.033L786.93,55.4L787.24,59.497L787.55,54.814L787.87,58.033L788.18,51.127L788.49,60.082L788.81,57.156L789.12,55.868L789.43,57.038L789.75,55.926L790.06,54.58L790.37,58.151L790.69,51.537L791,55.985L791.31,60.609L791.63,55.985L791.94,54.697L792.25,50.951L792.56,59.965L792.88,57.097L793.19,55.868L793.5,57.038L793.82,55.985L794.13,51.01L794.44,61.721L794.76,51.537L795.07,55.809L795.38,58.502L795.7,54.756L796.01,58.092L796.32,51.127L796.63,57.975L796.95,54.229L797.26,53.351L797.57,58.268L797.89,54.756L798.2,58.092L798.51,51.244L798.83,58.092L799.14,58.736L799.45,52.239L799.77,56.863L800.08,52.532L800.39,58.151L800.71,51.186L801.02,61.37L801.33,55.458L801.64,52.181L801.96,56.863L802.27,52.532L802.58,58.151L802.9,51.127L803.21,61.428L803.52,51.771L803.84,55.868L804.15,56.863L804.46,51.303L804.78,57.565L805.09,52.824L805.4,58.033L805.72,54.229L806.03,53.234L806.34,58.385L806.65,53.176L806.97,47.264L807.28,47.03L807.59,47.089L807.91,47.03L808.22,47.147L808.53,47.03L808.85,48.201L809.16,47.03L809.47,47.03L809.79,50.6L810.1,48.844L810.41,73.251L810.72,72.9L811.04,57.214L811.35,62.013L811.66,62.013L811.98,62.013L812.29,51.712L812.6,55.926L812.92,54.639L813.23,58.209L813.54,58.209L813.86,54.639L814.17,57.858L814.48,51.654L814.8,50.191L815.11,53.059L815.42,51.01L815.73,54.522L816.05,54.522L816.36,54.522L816.67,54.463L816.99,54.522L817.3,51.478L817.61,50.6L817.93,48.844L818.24,53.527L818.55,48.142L818.87,54.405L819.18,50.893L819.49,54.346L819.81,67.983L820.12,58.326L820.43,50.951L820.74,47.03L821.06,54.58L821.37,47.03L821.68,61.838L822,47.03L822.31,47.03L822.62,47.03L822.94,47.03L823.25,47.03L823.56,47.03L823.88,47.03L824.19,93.97L824.5,47.03L824.81,47.03L825.13,47.03L825.44,47.089L825.75,47.03L826.07,47.03L826.38,47.03L826.69,47.03L827.01,54.639L827.32,47.03L827.63,50.834L827.95,47.03L828.26,47.03L828.57,77.465L828.89,50.834L829.2,92.624L829.51,77.465L829.82,85.074L830.14,77.465L830.45,73.661L830.76,77.465L831.08,77.407L831.39,73.661L831.7,78.811L832.02,76.119L832.33,66.052L832.64,88.878L832.96,73.661L833.27,58.443L833.58,92.624L833.9,81.27L834.21,65.993L834.52,58.502L834.83,62.248L835.15,62.189L835.46,62.306L835.77,62.189L836.09,62.248L836.4,60.023L836.71,62.189L837.03,62.248L837.34,62.248L837.65,59.906L837.97,62.248L838.28,62.189L838.59,62.248L838.9,56.219L839.22,65.993L839.53,62.189L839.84,54.99L840.16,59.789L840.47,62.131L840.78,58.56L841.1,62.072L841.41,54.99L841.72,63.418L842.04,62.189L842.35,54.931L842.66,58.268L842.98,58.443L843.29,59.906L843.6,54.931L843.91,62.013L844.23,56.102L844.54,57.273L844.85,63.301L845.17,54.99L845.48,58.268L845.79,58.385L846.11,54.697L846.42,54.58L846.73,59.789L847.05,54.99L847.36,58.443L847.67,54.639L847.99,58.385L848.3,56.043L848.61,58.385L848.92,58.677L849.24,54.756L849.55,58.209L849.86,54.756L850.18,56.043L850.49,58.502L850.8,58.619L851.12,58.092L851.43,54.697L851.74,54.756L852.06,56.043L852.37,58.502L852.68,54.99L852.99,61.721L853.31,53.995L853.62,55.575L853.93,54.697L854.25,55.985L854.56,58.56L854.87,58.151L855.19,51.186L855.5,58.268L855.81,54.873L856.13,59.438L856.44,54.639L856.75,51.361L857.07,54.288L857.38,47.089L857.69,50.6L858,47.03L858.32,47.089L858.63,47.381L858.94,47.03L859.26,47.089L859.57,47.03L859.88,47.03L860.2,50.366L860.51,47.03L860.82,47.03L861.14,47.089L861.45,47.03L861.76,47.03L862.08,47.089L862.39,47.03L862.7,47.03L863.01,47.089L863.33,47.03L863.64,47.147L863.95,47.03L864.27,47.03L864.58,47.147L864.89,47.03L865.21,47.03L865.52,56.921L865.83,55.926L866.15,54.814L866.46,52.239L866.77,58.268L867.08,54.697L867.4,51.186L867.71,50.776L868.02,56.804L868.34,52.415L868.65,50.893L868.96,53.293L869.28,53.351L869.59,54.522L869.9,51.361L870.22,57.858L870.53,50.951L870.84,51.01L871.16,53.176L871.47,48.669L871.78,54.288L872.09,47.615L872.41,54.288L872.72,52.064L873.03,50.951L873.35,54.522L873.66,50.074L873.97,55.4L874.29,50.951L874.6,50.951L874.91,50.249L875.23,51.361L875.54,50.951L875.85,50.6L876.17,47.44L876.48,50.717L876.79,51.888L877.1,51.127L877.42,54.346L877.73,51.01L878.04,51.303L878.36,54.405L878.67,50.776L878.98,50.834L879.3,53L879.61,48.493L879.92,50.776L880.24,50.776L880.55,47.03L880.86,47.03L881.17,51.42L881.49,47.03L881.8,47.03L882.11,66.93L882.43,47.03L882.74,47.03L883.05,47.03L883.37,62.774L883.68,47.03L883.99,47.03L884.31,58.209L884.62,54.346L884.93,73.661L885.25,62.189L885.56,62.189L885.87,58.443L886.18,63.886L886.5,62.189L886.81,62.423L887.12,58.151L887.44,63.769L887.75,58.502L888.06,62.248L888.38,59.614L888.69,61.136L889,59.848L889.32,58.502L889.63,62.131L889.94,58.443L890.26,57.682L890.57,56.921L890.88,58.502L891.19,58.502L891.51,62.072L891.82,54.756L892.13,59.848L892.45,54.756L892.76,62.248L893.07,55.751L893.39,61.311L893.7,56.161L894.01,58.092L894.33,58.502L894.64,58.853L894.95,57.975L895.26,56.395L895.58,58.326L895.89,54.756L896.2,58.385L896.52,54.873L896.83,57.975L897.14,56.161L897.46,58.502L897.77,54.814L898.08,58.209L898.4,54.873L898.71,55.751L899.02,57.156L899.34,56.043L899.65,54.697L899.96,54.931L900.27,58.326L900.59,54.931L900.9,57.916L901.21,52.766L901.53,58.033L901.84,54.873L902.15,58.209L902.47,55.049L902.78,55.575L903.09,53.527L903.41,59.672L903.72,54.697L904.03,58.619L904.35,54.639L904.66,58.736L904.97,54.171L905.28,53L905.6,57.858L905.91,58.502L906.22,55.166L906.54,58.209L906.85,54.229L907.16,56.395L907.48,58.033L907.79,51.127L908.1,61.955L908.42,54.873L908.73,55.809L909.04,57.214L909.35,55.985L909.67,54.756L909.98,58.56L910.29,54.639L910.61,58.794L910.92,54.054L911.23,53.117L911.55,57.975L911.86,58.326L912.17,55.107L912.49,58.151L912.8,54.405L913.11,54.639L913.43,55.985L913.74,54.931L914.05,61.896L914.36,54.99L914.68,55.575L914.99,53.644L915.3,53.059L915.62,61.253L915.93,54.99L916.24,54.99L916.56,61.896L916.87,50.717L917.18,54.58L917.5,56.043L917.81,54.639L918.12,55.049L918.43,58.092L918.75,58.736L919.06,50.659L919.37,56.57L919.69,53.995L920,54.814L920.31,57.507L920.63,55.517L920.94,58.677L921.25,50.659L921.57,56.57L921.88,54.054L922.19,54.756L922.51,61.253L922.82,55.634L923.13,54.873L923.44,50.6L923.76,56.57L924.07,57.916L924.38,50.951L924.7,61.194L925.01,51.888L925.32,58.619L925.64,50.6L925.95,56.57L926.26,54.171L926.58,58.502L926.89,57.448L927.2,51.946L927.52,58.56L927.83,50.6L928.14,56.804L928.45,57.624L928.77,54.756L929.08,57.507L929.39,51.946L929.71,58.443L930.02,50.717L930.33,56.746L930.65,53.995L930.96,58.443L931.27,51.01L931.59,50.834L931.9,47.03L932.21,47.03L932.52,58.385L932.84,47.03L933.15,47.03L933.46,47.03L933.78,47.03L934.09,47.03L934.4,101.29L934.72,47.03L935.03,47.03L935.34,50.776L935.66,47.03L935.97,47.03L936.28,50.776L936.6,47.03L936.91,47.03L937.22,47.03L937.53,47.03L937.85,50.834L938.16,47.03L938.47,47.03L938.79,47.03L939.1,47.03L939.41,47.03L939.73,54.639L940.04,73.661L940.35,77.407L940.67,73.661L940.98,77.465L941.29,73.661L941.61,77.348L941.92,77.582L942.23,77.465L942.54,69.798L942.86,85.074L943.17,73.661L943.48,77.465L943.8,73.661L944.11,73.661L944.42,81.27L944.74,73.602L945.05,69.856L945.36,73.602L945.68,62.248L945.99,66.111L946.3,62.189L946.61,62.306L946.93,65.993L947.24,58.443L947.55,47.089L947.87,50.776L948.18,47.03L948.49,47.089L948.81,47.03L949.12,50.717L949.43,47.089L949.75,47.03L950.06,48.493L950.37,47.03L950.69,50.776L951,62.072L951.31,76.997L951.62,56.921L951.94,61.955L952.25,62.013L952.56,59.146L952.88,61.896L953.19,52.298L953.5,51.361L953.82,57.741L954.13,54.639L954.44,58.209L954.76,54.639L955.07,58.092L955.38,49.313L955.7,50.893L956.01,50.893L956.32,54.463L956.63,50.834L956.95,54.58L957.26,54.405L957.57,54.405L957.89,50.951L958.2,54.405L958.51,51.595L958.83,48.552L959.14,54.814L959.45,65.467L959.77,50.834L960.08,50.893L960.39,54.463L960.7,50.834L961.02,54.522L961.33,51.478L961.64,48.669L961.96,54.697L962.27,65.35L962.58,50.834L962.9,50.834L963.21,54.405L963.52,50.951L963.84,54.405L964.15,51.595L964.46,48.669L964.78,51.01L965.09,65.525L965.4,54.405L965.71,50.834L966.03,50.834L966.34,54.522L966.65,54.522L966.97,51.42L967.28,48.552L967.59,51.127L967.91,62.189L968.22,54.522L968.53,50.776L968.85,54.171L969.16,54.405L969.47,54.522L969.79,50.951L970.1,49.079L970.41,51.186L970.72,62.072L971.04,54.58L971.35,50.776L971.66,54.112L971.98,51.127L972.29,54.405L972.6,54.463L972.92,49.313L973.23,50.951L973.54,62.131L973.86,54.522L974.17,50.776L974.48,54.112L974.79,54.522L975.11,51.01L975.42,54.463L975.73,47.03L976.05,47.03L976.36,60.96L976.67,47.264L976.99,64.998L977.3,47.03L977.61,58.56L977.93,47.03L978.24,47.03L978.55,47.03L978.87,47.03L979.18,47.03L979.49,47.03L979.8,47.03L980.12,47.03L980.43,77.114L980.74,47.03L981.06,47.03L981.37,50.074L981.68,47.791L982,47.03L982.31,47.03L982.62,50.834L982.94,47.03L983.25,47.03L983.56,47.03L983.88,50.834L984.19,62.248L984.5,69.798L984.81,81.972L985.13,76.763L985.44,77.465L985.75,73.661L986.07,77.465L986.38,77.407L986.69,62.189L987.01,73.661L987.32,92.624L987.63,69.739L987.95,80.743L988.26,78.05L988.57,73.602L988.88,81.27L989.2,66.052L989.51,80.45L989.82,78.226L990.14,58.502L990.45,65.993L990.76,62.306L991.08,58.385L991.39,62.306L991.7,62.248L992.02,59.848L992.33,62.248L992.64,62.248L992.96,58.56L993.27,58.326L993.58,59.965L993.89,62.189L994.21,62.306L994.52,58.56L994.83,59.848L995.15,61.194L995.46,55.809L995.77,62.131L996.09,62.131L996.4,48.61L996.71,50.776L997.03,47.089L997.34,50.893L997.65,62.248L997.97,58.385L998.28,58.56L998.59,58.268L998.9,52.532L999.22,54.697L999.53,58.092L999.84,51.303L1000.2,54.405L1000.5,58.268L1000.8,51.127L1001.1,56.043L1001.4,54.405L1001.7,54.58L1002,54.873L1002.3,54.756L1002.7,54.463L1003,54.756L1003.3,54.639L1003.6,55.926L1003.9,50.951L1004.2,54.58L1004.5,54.756L1004.9,54.756L1005.2,54.522L1005.5,54.931L1005.8,58.209L1006.1,52.181L1006.4,51.01L1006.7,57.273L1007,51.946L1007.4,55.049L1007.7,54.171L1008,55.049L1008.3,59.321L1008.6,51.069L1008.9,54.639L1009.2,57.331L1009.6,51.888L1009.9,51.654L1010.2,57.565L1010.5,54.873L1010.8,55.926L1011.1,54.463L1011.4,53.702L1011.7,55.575L1012.1,51.303L1012.4,58.033L1012.7,54.873L1013,54.522L1013.3,55.985L1013.6,51.069L1013.9,54.58L1014.2,54.639L1014.6,54.756L1014.9,54.463L1015.2,54.873L1015.5,58.033L1015.8,52.415L1016.1,51.186L1016.4,60.901L1016.8,48.318L1017.1,55.224L1017.4,53.995L1017.7,54.814L1018,59.38L1018.3,51.186L1018.6,54.697L1018.9,57.156L1019.3,52.064L1019.6,51.478L1019.9,53.995L1020.2,56.102L1020.5,58.326L1020.8,51.186L1021.1,54.463L1021.4,58.092L1021.8,51.186L1022.1,51.478L1022.4,57.741L1022.7,54.756L1023,55.926L1023.3,51.127L1023.6,54.463L1024,58.092L1024.3,51.244L1024.6,51.537L1024.9,57.624L1025.2,52.298L1025.5,58.385L1025.8,51.127L1026.1,50.659L1026.5,58.385L1026.8,47.03L1027.1,47.03L1027.4,47.03L1027.7,47.03L1028,81.387L1028.3,55.751L1028.6,47.03L1029,61.311L1029.3,47.03L1029.6,47.03L1029.9,47.03L1030.2,47.03L1030.5,47.03L1030.8,62.248L1031.2,47.03L1031.5,47.03L1031.8,47.03L1032.1,47.03L1032.4,47.03L1032.7,47.03L1033,47.03L1033.3,47.03L1033.7,47.03L1034,47.03L1034.3,47.03L1034.6,47.03L1034.9,47.03L1035.2,92.624L1035.5,73.661L1035.9,77.465L1036.2,67.632L1036.5,83.494L1036.8,77.465L1037.1,77.465L1037.4,73.661L1037.7,73.602L1038,81.27L1038.4,66.052L1038.7,88.878L1039,66.052L1039.3,58.385L1039.6,47.089L1039.9,47.03L1040.2,47.03L1040.5,50.776L1040.9,47.03L1041.2,47.03L1041.5,47.089L1041.8,47.03L1042.1,53.059L1042.4,76.997L1042.7,69.564L1043.1,56.804L1043.4,58.326L1043.7,62.013L1044,65.701L1044.3,53.176L1044.6,54.639L1044.9,58.151L1045.2,54.58L1045.6,58.209L1045.9,55.166L1046.2,57.624L1046.5,49.722L1046.8,54.171L1047.1,50.893L1047.4,54.522L1047.7,54.463L1048.1,54.463L1048.4,54.463L1048.7,54.639L1049,54.463L1049.3,49.371L1049.6,67.457L1049.9,56.629L1050.3,54.522L1050.6,54.58L1050.9,54.58L1051.2,52.883L1051.5,60.023L1051.8,60.316L1052.1,54.463L1052.4,54.639L1052.8,51.244L1053.1,57.741L1053.4,49.488L1053.7,59.906L1054,60.433L1054.3,54.463L1054.6,54.697L1055,54.931L1055.3,53.936L1055.6,51.01L1055.9,62.072L1056.2,56.746L1056.5,54.463L1056.8,54.58L1057.1,54.99L1057.5,53.995L1057.8,50.893L1058.1,62.189L1058.4,56.629L1058.7,54.522L1059,55.868L1059.3,53.644L1059.6,53.995L1060,50.951L1060.3,58.326L1060.6,60.375L1060.9,54.463L1061.2,54.58L1061.5,51.303L1061.8,57.682L1062.2,50.893L1062.5,52.941L1062.8,63.769L1063.1,52.824L1063.4,58.209L1063.7,51.186L1064,54.463L1064.3,52.766L1064.7,54.522L1065,60.316L1065.3,56.219L1065.6,51.478L1065.9,55.458L1066.2,53.585L1066.5,54.171L1066.8,54.463L1067.2,54.814L1067.5,60.199L1067.8,54.639L1068.1,55.751L1068.4,49.956L1068.7,57.624L1069,51.127L1069.4,52.941L1069.7,63.535L1070,52.941L1070.3,54.463L1070.6,54.931L1070.9,54.58L1071.2,52.59L1071.5,54.463L1071.9,56.687L1072.2,56.512L1072.5,54.814L1072.8,57.565L1073.1,51.595L1073.4,54.112L1073.7,54.405L1074.1,54.814L1074.4,55.4L1074.7,55.575L1075,54.639L1075.3,54.814L1075.6,54.639L1075.9,52.473L1076.2,52.649L1076.6,58.502L1076.9,54.405L1077.2,56.687L1077.5,54.405L1077.8,54.873L1078.1,54.171L1078.4,50.951L1078.7,58.326L1079.1,54.931L1079.4,52.766L1079.7,54.756L1080,57.507" style="fill:none;stroke:#F15A60;stroke-width:1.875" />
<path d="M1055,694.3L1080,694.3" style="fill:none;stroke:#F15A60;stroke-width:1.875" />
<text x="959.12" y="-687.85" transform="scale(1, -1)"
	style="font-family:Helvetica;font-weight:normal;font-style:normal;font-size:12pt">Consul v0.6.4</text>
</g>
</svg>
