<?xml version="1.0"?>
<!-- Generated by SVGo and Plotinum VG -->
<svg width="12in" height="8in"
	xmlns="http://www.w3.org/2000/svg"
	xmlns:xlink="http://www.w3.org/1999/xlink">
<g transform="scale(1, -1) translate(0, -720)">
<path d="M0,0L1080,0L1080,720L0,720Z" style="fill:#FFFFFF" />
<text x="244.86" y="-706.41" transform="scale(1, -1)"
	style="font-family:Helvetica;font-weight:normal;font-style:normal;font-size:12pt">Write 2M keys, 1000 clients (etcd 100 conns), key 32 bytes, value 500 bytes, Throughput</text>
<text x="551.76" y="-4.965" transform="scale(1, -1)"
	style="font-family:Helvetica;font-weight:normal;font-style:normal;font-size:12pt">Second</text>
<text x="70.912" y="-19.142" transform="scale(1, -1)"
	style="font-family:Helvetica;font-weight:normal;font-style:normal;font-size:10pt">0</text>
<text x="366.5" y="-19.142" transform="scale(1, -1)"
	style="font-family:Helvetica;font-weight:normal;font-style:normal;font-size:10pt">80</text>
<text x="662.1" y="-19.142" transform="scale(1, -1)"
	style="font-family:Helvetica;font-weight:normal;font-style:normal;font-size:10pt">160</text>
<text x="961.16" y="-19.142" transform="scale(1, -1)"
	style="font-family:Helvetica;font-weight:normal;font-style:normal;font-size:10pt">240</text>
<path d="M74.388,30.467L74.388,40.467" style="fill:none;stroke:#000000;stroke-width:0.625" />
<path d="M373.45,30.467L373.45,40.467" style="fill:none;stroke:#000000;stroke-width:0.625" />
<path d="M672.52,30.467L672.52,40.467" style="fill:none;stroke:#000000;stroke-width:0.625" />
<path d="M971.59,30.467L971.59,40.467" style="fill:none;stroke:#000000;stroke-width:0.625" />
<path d="M223.92,35.468L223.92,40.467" style="fill:none;stroke:#000000;stroke-width:0.625" />
<path d="M522.99,35.468L522.99,40.467" style="fill:none;stroke:#000000;stroke-width:0.625" />
<path d="M822.05,35.468L822.05,40.467" style="fill:none;stroke:#000000;stroke-width:0.625" />
<path d="M74.388,40.467L1080,40.467" style="fill:none;stroke:#000000;stroke-width:0.625" />
<g transform="rotate(90)">
<text x="335.88" y="13.59" transform="scale(1, -1)"
	style="font-family:Helvetica;font-weight:normal;font-style:normal;font-size:12pt">Throughput</text>
</g>
<text x="46.705" y="-41.661" transform="scale(1, -1)"
	style="font-family:Helvetica;font-weight:normal;font-style:normal;font-size:10pt">0</text>
<text x="18.555" y="-189.53" transform="scale(1, -1)"
	style="font-family:Helvetica;font-weight:normal;font-style:normal;font-size:10pt">1e+04</text>
<text x="18.555" y="-337.4" transform="scale(1, -1)"
	style="font-family:Helvetica;font-weight:normal;font-style:normal;font-size:10pt">2e+04</text>
<text x="18.555" y="-485.27" transform="scale(1, -1)"
	style="font-family:Helvetica;font-weight:normal;font-style:normal;font-size:10pt">3e+04</text>
<text x="18.555" y="-633.14" transform="scale(1, -1)"
	style="font-family:Helvetica;font-weight:normal;font-style:normal;font-size:10pt">4e+04</text>
<path d="M57.13,47.03L67.13,47.03" style="fill:none;stroke:#000000;stroke-width:0.625" />
<path d="M57.13,194.9L67.13,194.9" style="fill:none;stroke:#000000;stroke-width:0.625" />
<path d="M57.13,342.77L67.13,342.77" style="fill:none;stroke:#000000;stroke-width:0.625" />
<path d="M57.13,490.64L67.13,490.64" style="fill:none;stroke:#000000;stroke-width:0.625" />
<path d="M57.13,638.51L67.13,638.51" style="fill:none;stroke:#000000;stroke-width:0.625" />
<path d="M62.13,120.97L67.13,120.97" style="fill:none;stroke:#000000;stroke-width:0.625" />
<path d="M62.13,268.84L67.13,268.84" style="fill:none;stroke:#000000;stroke-width:0.625" />
<path d="M62.13,416.71L67.13,416.71" style="fill:none;stroke:#000000;stroke-width:0.625" />
<path d="M62.13,564.58L67.13,564.58" style="fill:none;stroke:#000000;stroke-width:0.625" />
<path d="M67.13,47.03L67.13,701.44" style="fill:none;stroke:#000000;stroke-width:0.625" />
<path d="M74.388,279.1L78.126,481.89L81.864,442.49L85.603,442.41L89.341,444.17L93.079,426.1L96.818,418.45L100.56,422.58L104.29,404.26L108.03,428.73L111.77,408.23L115.51,415.66L119.25,405.66L122.99,384.6L126.72,441.78L130.46,398.22L134.2,370.75L137.94,406.31L141.68,384.4L145.42,383.76L149.15,387.8L152.89,376.12L156.63,400.85L160.37,384.16L164.11,375.3L167.85,392.75L171.58,402.51L175.32,419.01L179.06,403.71L182.8,390.25L186.54,414.89L190.28,394.19L194.01,404.09L197.75,404.61L201.49,401.84L205.23,379.59L208.97,425.56L212.71,379.46L216.44,412.57L220.18,415.63L223.92,397.69L227.66,408.11L231.4,430.89L235.14,383.69L238.87,356.23L242.61,377.24L246.35,379.77L250.09,412.67L253.83,381.53L257.57,364.06L261.3,392.99L265.04,351.51L268.78,372.05L272.52,337.05L276.26,421.16L280,408.32L283.73,346.35L287.47,374.95L291.21,399.06L294.95,353.25L298.69,372.08L302.43,439.86L306.16,381.48L309.9,375.51L313.64,384.32L317.38,359.13L321.12,404.45L324.86,365.08L328.59,406.4L332.33,379.89L336.07,399.95L339.81,305.14L343.55,271.07L347.29,293.25L351.02,281.58L354.76,295.56L358.5,286.4L362.24,288.31L365.98,273.21L369.72,284.54L373.45,287.87L377.19,275.99L380.93,296.78L384.67,309.65L388.41,283.81L392.15,285.62L395.88,265.91L399.62,283.47L403.36,277.34L407.1,277.65L410.84,296.62" style="fill:none;stroke:#F15A60;stroke-width:1.875" />
<path d="M74.388,249.75L78.126,369.62L81.864,336.4L85.603,590.81L89.341,643.72L93.079,701.44L96.818,460.9L100.56,495.95L104.29,608.94L108.03,689.62L111.77,424.08L115.51,437.87L119.25,560.66L122.99,659.26L126.72,685.02L130.46,661.02L134.2,156.37L137.94,661.49L141.68,676.41L145.42,297.67L149.15,453.61L152.89,652.23L156.63,622.38L160.37,607.7L164.11,614.39L167.85,587.91L171.58,508.84L175.32,670.32L179.06,445.24L182.8,415.15L186.54,147.95L190.28,76.811L194.01,61.847L197.75,47.03L201.49,61.817L205.23,47.03L208.97,47.06L212.71,47.03L216.44,47.03L220.18,47.03L223.92,47.03L227.66,47.03L231.4,47.03L235.14,47.03L238.87,47.03L242.61,47.03L246.35,47.03L250.09,47.03L253.83,47.03L257.57,47.03L261.3,47.03L265.04,47.03L268.78,47.03L272.52,47.03L276.26,47.03L280,47.03L283.73,47.03L287.47,47.03L291.21,47.03L294.95,47.03L298.69,47.03L302.43,47.03L306.16,47.03L309.9,47.03L313.64,47.06L317.38,47.03L321.12,47.03L324.86,47.03L328.59,47.03L332.33,47.03L336.07,47.03L339.81,47.03L343.55,47.03L347.29,47.03L351.02,47.03L354.76,100.38L358.5,425.77L362.24,440.78L365.98,47.03L369.72,398.12L373.45,533.52L377.19,565.02L380.93,47.03L384.67,330.22L388.41,512.64L392.15,523.38L395.88,319.41L399.62,47.03L403.36,383.88L407.1,508.8L410.84,603.84L414.58,188.72L418.31,241.23L422.05,50.283L425.79,47.03L429.53,47.03L433.27,47.03L437.01,47.03L440.74,47.03L444.48,47.03L448.22,47.03L451.96,47.03L455.7,47.03L459.44,47.03L463.17,47.03L466.91,47.03L470.65,47.03L474.39,47.03L478.13,47.03L481.87,47.03L485.6,47.03L489.34,47.03L493.08,47.03L496.82,47.03L500.56,47.03L504.3,47.03L508.03,47.03L511.77,47.03L515.51,47.03L519.25,47.03L522.99,47.03L526.73,47.03L530.46,47.03L534.2,47.03L537.94,47.03L541.68,47.03L545.42,47.03L549.16,47.03L552.89,47.03L556.63,47.03L560.37,47.03L564.11,47.03L567.85,47.03L571.59,47.03L575.32,47.03L579.06,47.03L582.8,47.03L586.54,47.03L590.28,47.03L594.02,47.03L597.75,47.03L601.49,47.03L605.23,47.03L608.97,47.03L612.71,47.03L616.45,47.03L620.18,47.03L623.92,47.03L627.66,47.03L631.4,47.03L635.14,47.03L638.88,47.03L642.61,47.03L646.35,47.03L650.09,47.03L653.83,47.03L657.57,47.03L661.31,47.03L665.04,47.03L668.78,47.03L672.52,47.03L676.26,47.03L680,47.03L683.74,47.03L687.47,47.03L691.21,47.03L694.95,47.03L698.69,47.03L702.43,47.03L706.17,47.03L709.9,47.03L713.64,47.03L717.38,47.03L721.12,47.03L724.86,47.03L728.6,47.03L732.33,197.56L736.07,47.03L739.81,336.55L743.55,515.73L747.29,538.03L751.03,511.05L754.76,512.51L758.5,459.34L762.24,418.79L765.98,536.17L769.72,465.37L773.46,488.02L777.19,312.63L780.93,47.03L784.67,56.923L788.41,56.908L792.15,56.893L795.89,47.163L799.62,47.03L803.36,47.03L807.1,47.03L810.84,47.03L814.58,47.03L818.32,47.03L822.05,47.03L825.79,47.03L829.53,47.03L833.27,47.03L837.01,47.03L840.75,47.03L844.48,47.03L848.22,47.03L851.96,47.03L855.7,47.03L859.44,47.03L863.18,47.03L866.91,47.03L870.65,47.03L874.39,47.03L878.13,47.03L881.87,47.03L885.61,47.03L889.34,47.03L893.08,47.03L896.82,47.03L900.56,47.03L904.3,47.03L908.04,47.03L911.77,47.03L915.51,47.03L919.25,47.03L922.99,47.03L926.73,47.03L930.47,47.03L934.2,47.03L937.94,47.03L941.68,47.03L945.42,47.03L949.16,47.03L952.9,47.03L956.63,47.03L960.37,47.03L964.11,47.03L967.85,47.03L971.59,47.03L975.33,47.03L979.06,47.03L982.8,47.03L986.54,47.03L990.28,47.03L994.02,47.03L997.76,47.03L1001.5,47.03L1005.2,47.03L1009,47.03L1012.7,47.03L1016.4,47.03L1020.2,47.03L1023.9,47.03L1027.7,47.03L1031.4,47.03L1035.1,47.03L1038.9,47.03L1042.6,47.03L1046.4,47.03L1050.1,47.03L1053.8,47.03L1057.6,399.42L1061.3,499.51L1065,539.78L1068.8,505.27L1072.5,521.62L1076.3,530.36L1080,507.78" style="fill:none;stroke:#7AC36A;stroke-width:1.875;stroke-dasharray:7.5,2.5" />
<path d="M74.388,116.32L78.126,315.44L81.864,295.82L85.603,541.01L89.341,543.05L93.079,583.96L96.818,576.51L100.56,431.79L104.29,443.06L108.03,611.67L111.77,558.2L115.51,631.56L119.25,392.03L122.99,375.12L126.72,565.58L130.46,630.93L134.2,575.05L137.94,645.7L141.68,118.73L145.42,497.75L149.15,644.53L152.89,643.07L156.63,99.82L160.37,550.34L164.11,623.55L167.85,535.99L171.58,516.67L175.32,526.85L179.06,473L182.8,47.03L186.54,410.2L190.28,342.06L194.01,345.6L197.75,616.66L201.49,532.4L205.23,635.04L208.97,658.02L212.71,563.26L216.44,450.85L220.18,606.59L223.92,583.77L227.66,598.34L231.4,588.38L235.14,551.87L238.87,464.65L242.61,502.46L246.35,369.74L250.09,47.03L253.83,294.42L257.57,517.35L261.3,495.18L265.04,557.7L268.78,519.74L272.52,177.38L276.26,47.03L280,278.91L283.73,407.29L287.47,551.93L291.21,583.99L294.95,536.89L298.69,621.21L302.43,505.31L306.16,511.12L309.9,454.38L313.64,493.98L317.38,47.03L321.12,47.03L324.86,352.56L328.59,491.69L332.33,500.83L336.07,583.83" style="fill:none;stroke:#5A9BD4;stroke-width:1.875;stroke-dasharray:2.5,2.5" />
<path d="M1055,694.3L1080,694.3" style="fill:none;stroke:#F15A60;stroke-width:1.875" />
<text x="1002.5" y="-687.85" transform="scale(1, -1)"
	style="font-family:Helvetica;font-weight:normal;font-style:normal;font-size:12pt">etcd v3</text>
<path d="M1055,680L1080,680" style="fill:none;stroke:#7AC36A;stroke-width:1.875;stroke-dasharray:7.5,2.5" />
<text x="793.19" y="-673.56" transform="scale(1, -1)"
	style="font-family:Helvetica;font-weight:normal;font-style:normal;font-size:12pt">Zookeeper v3.4.8 (snapCount 100000)</text>
<path d="M1055,665.71L1080,665.71" style="fill:none;stroke:#5A9BD4;stroke-width:1.875;stroke-dasharray:2.5,2.5" />
<text x="784.85" y="-659.26" transform="scale(1, -1)"
	style="font-family:Helvetica;font-weight:normal;font-style:normal;font-size:12pt">Zookeeper v3.4.8 (snapCount 1000000)</text>
</g>
</svg>
