<?xml version="1.0"?>
<!-- Generated by SVGo and Plotinum VG -->
<svg width="12in" height="8in"
	xmlns="http://www.w3.org/2000/svg"
	xmlns:xlink="http://www.w3.org/1999/xlink">
<g transform="scale(1, -1) translate(0, -720)">
<path d="M0,0L1080,0L1080,720L0,720Z" style="fill:#FFFFFF" />
<text x="214.87" y="-706.41" transform="scale(1, -1)"
	style="font-family:Helvetica;font-weight:normal;font-style:normal;font-size:12pt">Write 2M keys, 1000 clients (etcd 100 conns), key 32 bytes, value 500 bytes, Latency(millisecond)</text>
<text x="548.11" y="-4.965" transform="scale(1, -1)"
	style="font-family:Helvetica;font-weight:normal;font-style:normal;font-size:12pt">Second</text>
<text x="63.613" y="-19.142" transform="scale(1, -1)"
	style="font-family:Helvetica;font-weight:normal;font-style:normal;font-size:10pt">0</text>
<text x="361.38" y="-19.142" transform="scale(1, -1)"
	style="font-family:Helvetica;font-weight:normal;font-style:normal;font-size:10pt">80</text>
<text x="659.14" y="-19.142" transform="scale(1, -1)"
	style="font-family:Helvetica;font-weight:normal;font-style:normal;font-size:10pt">160</text>
<text x="960.38" y="-19.142" transform="scale(1, -1)"
	style="font-family:Helvetica;font-weight:normal;font-style:normal;font-size:10pt">240</text>
<path d="M67.088,30.467L67.088,40.467" style="fill:none;stroke:#000000;stroke-width:0.625" />
<path d="M368.33,30.467L368.33,40.467" style="fill:none;stroke:#000000;stroke-width:0.625" />
<path d="M669.56,30.467L669.56,40.467" style="fill:none;stroke:#000000;stroke-width:0.625" />
<path d="M970.8,30.467L970.8,40.467" style="fill:none;stroke:#000000;stroke-width:0.625" />
<path d="M217.71,35.468L217.71,40.467" style="fill:none;stroke:#000000;stroke-width:0.625" />
<path d="M518.94,35.468L518.94,40.467" style="fill:none;stroke:#000000;stroke-width:0.625" />
<path d="M820.18,35.468L820.18,40.467" style="fill:none;stroke:#000000;stroke-width:0.625" />
<path d="M67.088,40.467L1080,40.467" style="fill:none;stroke:#000000;stroke-width:0.625" />
<g transform="rotate(90)">
<text x="305.89" y="13.59" transform="scale(1, -1)"
	style="font-family:Helvetica;font-weight:normal;font-style:normal;font-size:12pt">Latency(millisecond)</text>
</g>
<text x="39.405" y="-41.661" transform="scale(1, -1)"
	style="font-family:Helvetica;font-weight:normal;font-style:normal;font-size:10pt">0</text>
<text x="18.555" y="-247.88" transform="scale(1, -1)"
	style="font-family:Helvetica;font-weight:normal;font-style:normal;font-size:10pt">1000</text>
<text x="18.555" y="-454.1" transform="scale(1, -1)"
	style="font-family:Helvetica;font-weight:normal;font-style:normal;font-size:10pt">2000</text>
<text x="18.555" y="-660.32" transform="scale(1, -1)"
	style="font-family:Helvetica;font-weight:normal;font-style:normal;font-size:10pt">3000</text>
<path d="M49.83,47.03L59.83,47.03" style="fill:none;stroke:#000000;stroke-width:0.625" />
<path d="M49.83,253.25L59.83,253.25" style="fill:none;stroke:#000000;stroke-width:0.625" />
<path d="M49.83,459.47L59.83,459.47" style="fill:none;stroke:#000000;stroke-width:0.625" />
<path d="M49.83,665.68L59.83,665.68" style="fill:none;stroke:#000000;stroke-width:0.625" />
<path d="M54.83,150.14L59.83,150.14" style="fill:none;stroke:#000000;stroke-width:0.625" />
<path d="M54.83,356.36L59.83,356.36" style="fill:none;stroke:#000000;stroke-width:0.625" />
<path d="M54.83,562.58L59.83,562.58" style="fill:none;stroke:#000000;stroke-width:0.625" />
<path d="M59.83,47.03L59.83,701.44" style="fill:none;stroke:#000000;stroke-width:0.625" />
<path d="M67.088,53.655L70.853,53.926L74.618,54.654L78.384,54.744L82.149,54.705L85.915,54.904L89.68,55.261L93.446,55.17L97.211,55.373L100.98,54.879L104.74,55.58L108.51,55.091L112.27,55.718L116.04,55.765L119.8,54.929L123.57,55.644L127.34,56.176L131.1,55.624L134.87,55.813L138.63,56.218L142.4,56.071L146.16,56.2L149.93,55.564L153.69,55.846L157.46,56.507L161.22,55.736L164.99,55.483L168.76,55.163L172.52,55.53L176.29,55.568L180.05,55.465L183.82,55.626L187.58,55.459L191.35,55.826L195.11,55.754L198.88,56.199L202.64,54.903L206.41,56.164L210.18,54.985L213.94,55.654L217.71,55.358L221.47,55.819L225.24,54.978L229,55.662L232.77,56.301L236.53,56.994L240.3,56.024L244.06,55.454L247.83,55.985L251.6,55.904L255.36,56.633L259.13,56.318L262.89,57.159L266.66,56.458L270.42,55.048L274.19,56.21L277.95,56.841L281.72,56.671L285.48,55.287L289.25,57.326L293.02,55.329L296.78,55.543L300.55,55.933L304.31,55.972L308.08,56.177L311.84,56.393L315.61,56.232L319.37,55.929L323.14,56.014L326.91,54.84L330.67,56.435L334.44,59.356L338.2,59.786L341.97,59.894L345.73,58.836L349.5,59.922L353.26,60.407L357.03,59.603L360.79,60.19L364.56,60.119L368.33,59.678L372.09,58.979L375.86,58.85L379.62,59.897L383.39,59.718L387.15,60.184L390.92,60.548L394.68,59.411L398.45,60.605L402.21,59.119L405.98,59.965" style="fill:none;stroke:#F15A60;stroke-width:1.875" />
<path d="M67.088,49.281L70.853,52.561L74.618,58.664L78.384,53.719L82.149,52.174L85.915,51.699L89.68,54.349L93.446,53.815L97.211,52.468L100.98,51.753L104.74,55.116L108.51,52.912L112.27,54.397L116.04,52.023L119.8,51.807L123.57,51.985L127.34,74.926L131.1,51.975L134.87,51.895L138.63,51.164L142.4,59.442L146.16,52.068L149.93,52.288L153.69,52.499L157.46,52.393L161.22,52.67L164.99,53.628L168.76,51.908L172.52,54.69L176.29,55.094L180.05,67.927L183.82,176.67L187.58,133.56L191.35,47.03L195.11,466.09L198.88,47.03L202.64,390.22L206.41,47.03L210.18,47.03L213.94,47.03L217.71,47.03L221.47,47.03L225.24,47.03L229,47.03L232.77,47.03L236.53,47.03L240.3,47.03L244.06,47.03L247.83,47.03L251.6,47.03L255.36,47.03L259.13,47.03L262.89,47.03L266.66,47.03L270.42,47.03L274.19,47.03L277.95,47.03L281.72,47.03L285.48,47.03L289.25,47.03L293.02,47.03L296.78,47.03L300.55,47.03L304.31,47.03L308.08,701.44L311.84,47.03L315.61,47.03L319.37,47.03L323.14,47.03L326.91,47.03L330.67,47.03L334.44,47.03L338.2,47.03L341.97,47.03L345.73,47.03L349.5,136.75L353.26,52.208L357.03,50.972L360.79,47.03L364.56,63.401L368.33,53.803L372.09,52.564L375.86,47.03L379.62,69.182L383.39,53.59L387.15,53.434L390.92,52.127L394.68,47.03L398.45,70.083L402.21,53.026L405.98,53.002L409.75,56.735L413.51,66.369L417.28,315.26L421.04,47.03L424.81,47.03L428.57,47.03L432.34,47.03L436.1,47.03L439.87,47.03L443.63,47.03L447.4,47.03L451.17,47.03L454.93,47.03L458.7,47.03L462.46,47.03L466.23,47.03L469.99,47.03L473.76,47.03L477.52,47.03L481.29,47.03L485.06,47.03L488.82,47.03L492.59,47.03L496.35,47.03L500.12,47.03L503.88,47.03L507.65,47.03L511.41,47.03L515.18,47.03L518.94,47.03L522.71,47.03L526.48,47.03L530.24,47.03L534.01,47.03L537.77,47.03L541.54,47.03L545.3,47.03L549.07,47.03L552.83,47.03L556.6,47.03L560.36,47.03L564.13,47.03L567.9,47.03L571.66,47.03L575.43,47.03L579.19,47.03L582.96,47.03L586.72,47.03L590.49,47.03L594.25,47.03L598.02,47.03L601.78,47.03L605.55,47.03L609.32,47.03L613.08,47.03L616.85,47.03L620.61,47.03L624.38,47.03L628.14,47.03L631.91,47.03L635.67,47.03L639.44,47.03L643.21,47.03L646.97,47.03L650.74,47.03L654.5,47.03L658.27,47.03L662.03,47.03L665.8,47.03L669.56,47.03L673.33,47.03L677.09,47.03L680.86,47.03L684.63,47.03L688.39,47.03L692.16,47.03L695.92,47.03L699.69,47.03L703.45,47.03L707.22,47.03L710.98,47.03L714.75,47.03L718.51,47.03L722.28,47.03L726.05,47.03L729.81,84.396L733.58,47.03L737.34,64.472L741.11,51.261L744.87,51.029L748.64,51.608L752.4,51.164L756.17,52.297L759.93,52.507L763.7,51.197L767.47,51.878L771.23,51.633L775,52.642L778.76,47.03L782.53,435.84L786.29,210.89L790.06,183.52L793.82,308.63L797.59,47.03L801.35,47.03L805.12,47.03L808.89,47.03L812.65,47.03L816.42,47.03L820.18,47.03L823.95,47.03L827.71,47.03L831.48,47.03L835.24,47.03L839.01,47.03L842.78,47.03L846.54,47.03L850.31,47.03L854.07,47.03L857.84,47.03L861.6,47.03L865.37,47.03L869.13,47.03L872.9,47.03L876.66,47.03L880.43,47.03L884.2,47.03L887.96,47.03L891.73,47.03L895.49,47.03L899.26,47.03L903.02,47.03L906.79,47.03L910.55,47.03L914.32,47.03L918.08,47.03L921.85,47.03L925.62,47.03L929.38,47.03L933.15,47.03L936.91,47.03L940.68,47.03L944.44,47.03L948.21,47.03L951.97,47.03L955.74,47.03L959.5,47.03L963.27,47.03L967.04,47.03L970.8,47.03L974.57,47.03L978.33,47.03L982.1,47.03L985.86,47.03L989.63,47.03L993.39,47.03L997.16,47.03L1000.9,47.03L1004.7,47.03L1008.5,47.03L1012.2,47.03L1016,47.03L1019.8,47.03L1023.5,47.03L1027.3,47.03L1031,47.03L1034.8,47.03L1038.6,47.03L1042.3,47.03L1046.1,47.03L1049.9,47.03L1053.6,47.03L1057.4,63.852L1061.2,51.635L1064.9,51.261L1068.7,51.455L1072.5,51.308L1076.2,51.225L1080,51.395" style="fill:none;stroke:#7AC36A;stroke-width:1.875;stroke-dasharray:7.5,2.5" />
<path d="M67.088,51.39L70.853,53.742L74.618,60.486L78.384,53.218L82.149,53.134L85.915,52.735L89.68,52.781L93.446,54.954L97.211,54.724L100.98,52.423L104.74,52.983L108.51,52.164L112.27,55.985L116.04,56.3L119.8,52.919L123.57,52.259L127.34,52.786L131.1,52.112L134.87,51.809L138.63,59.785L142.4,52.123L146.16,52.141L149.93,52.388L153.69,58.587L157.46,52.302L161.22,53.264L164.99,53.249L168.76,53.35L172.52,52.789L176.29,47.03L180.05,65.802L183.82,52.007L187.58,62.541L191.35,52.32L195.11,53.377L198.88,52.201L202.64,52.022L206.41,52.908L210.18,54.562L213.94,52.468L217.71,52.718L221.47,52.537L225.24,52.656L229,53.043L232.77,53.589L236.53,54.397L240.3,52.362L244.06,47.03L247.83,77.075L251.6,53.502L255.36,53.416L259.13,53.207L262.89,53.602L266.66,52.838L270.42,47.03L274.19,83.202L277.95,55.514L281.72,53.079L285.48,52.683L289.25,52.974L293.02,52.547L296.78,53.724L300.55,53.579L304.31,54.495L308.08,52.961L311.84,47.03L315.61,47.03L319.37,77.59L323.14,54.341L326.91,53.746L330.67,52.624" style="fill:none;stroke:#5A9BD4;stroke-width:1.875;stroke-dasharray:2.5,2.5" />
<path d="M1055,694.3L1080,694.3" style="fill:none;stroke:#F15A60;stroke-width:1.875" />
<text x="1002.5" y="-687.85" transform="scale(1, -1)"
	style="font-family:Helvetica;font-weight:normal;font-style:normal;font-size:12pt">etcd v3</text>
<path d="M1055,680L1080,680" style="fill:none;stroke:#7AC36A;stroke-width:1.875;stroke-dasharray:7.5,2.5" />
<text x="793.19" y="-673.56" transform="scale(1, -1)"
	style="font-family:Helvetica;font-weight:normal;font-style:normal;font-size:12pt">Zookeeper v3.4.8 (snapCount 100000)</text>
<path d="M1055,665.71L1080,665.71" style="fill:none;stroke:#5A9BD4;stroke-width:1.875;stroke-dasharray:2.5,2.5" />
<text x="784.85" y="-659.26" transform="scale(1, -1)"
	style="font-family:Helvetica;font-weight:normal;font-style:normal;font-size:12pt">Zookeeper v3.4.8 (snapCount 1000000)</text>
</g>
</svg>
