<?xml version="1.0"?>
<!-- Generated by SVGo and Plotinum VG -->
<svg width="12in" height="8in"
	xmlns="http://www.w3.org/2000/svg"
	xmlns:xlink="http://www.w3.org/1999/xlink">
<g transform="scale(1, -1) translate(0, -720)">
<path d="M0,0L1080,0L1080,720L0,720Z" style="fill:#FFFFFF" />
<text x="212.62" y="-705.6" transform="scale(1, -1)"
	style="font-family:Helvetica;font-weight:normal;font-style:normal;font-size:12pt">Write 1M keys, 1000-client, 100-conn, 64-byte key, 1024-byte value (etcd v3), Latency(millisecond)</text>
<text x="544.98" y="-4.8486" transform="scale(1, -1)"
	style="font-family:Helvetica;font-weight:normal;font-style:normal;font-size:12pt">Second</text>
<text x="57.358" y="-19.498" transform="scale(1, -1)"
	style="font-family:Helvetica;font-weight:normal;font-style:normal;font-size:10pt">0</text>
<text x="351.88" y="-19.498" transform="scale(1, -1)"
	style="font-family:Helvetica;font-weight:normal;font-style:normal;font-size:10pt">50</text>
<text x="646.41" y="-19.498" transform="scale(1, -1)"
	style="font-family:Helvetica;font-weight:normal;font-style:normal;font-size:10pt">100</text>
<text x="944.41" y="-19.498" transform="scale(1, -1)"
	style="font-family:Helvetica;font-weight:normal;font-style:normal;font-size:10pt">150</text>
<path d="M60.834,31.498L60.834,41.498" style="fill:none;stroke:#000000;stroke-width:0.625" />
<path d="M358.84,31.498L358.84,41.498" style="fill:none;stroke:#000000;stroke-width:0.625" />
<path d="M656.84,31.498L656.84,41.498" style="fill:none;stroke:#000000;stroke-width:0.625" />
<path d="M954.84,31.498L954.84,41.498" style="fill:none;stroke:#000000;stroke-width:0.625" />
<path d="M120.43,36.498L120.43,41.498" style="fill:none;stroke:#000000;stroke-width:0.625" />
<path d="M180.03,36.498L180.03,41.498" style="fill:none;stroke:#000000;stroke-width:0.625" />
<path d="M239.63,36.498L239.63,41.498" style="fill:none;stroke:#000000;stroke-width:0.625" />
<path d="M299.24,36.498L299.24,41.498" style="fill:none;stroke:#000000;stroke-width:0.625" />
<path d="M418.44,36.498L418.44,41.498" style="fill:none;stroke:#000000;stroke-width:0.625" />
<path d="M478.04,36.498L478.04,41.498" style="fill:none;stroke:#000000;stroke-width:0.625" />
<path d="M537.64,36.498L537.64,41.498" style="fill:none;stroke:#000000;stroke-width:0.625" />
<path d="M597.24,36.498L597.24,41.498" style="fill:none;stroke:#000000;stroke-width:0.625" />
<path d="M716.44,36.498L716.44,41.498" style="fill:none;stroke:#000000;stroke-width:0.625" />
<path d="M776.04,36.498L776.04,41.498" style="fill:none;stroke:#000000;stroke-width:0.625" />
<path d="M835.64,36.498L835.64,41.498" style="fill:none;stroke:#000000;stroke-width:0.625" />
<path d="M895.24,36.498L895.24,41.498" style="fill:none;stroke:#000000;stroke-width:0.625" />
<path d="M1014.4,36.498L1014.4,41.498" style="fill:none;stroke:#000000;stroke-width:0.625" />
<path d="M1074,36.498L1074,41.498" style="fill:none;stroke:#000000;stroke-width:0.625" />
<path d="M60.834,41.498L1080,41.498" style="fill:none;stroke:#000000;stroke-width:0.625" />
<g transform="rotate(90)">
<text x="306.05" y="14.399" transform="scale(1, -1)"
	style="font-family:Helvetica;font-weight:normal;font-style:normal;font-size:12pt">Latency(millisecond)</text>
</g>
<text x="26.2" y="-56.695" transform="scale(1, -1)"
	style="font-family:Helvetica;font-weight:normal;font-style:normal;font-size:10pt">40</text>
<text x="26.2" y="-234.32" transform="scale(1, -1)"
	style="font-family:Helvetica;font-weight:normal;font-style:normal;font-size:10pt">80</text>
<text x="19.248" y="-411.95" transform="scale(1, -1)"
	style="font-family:Helvetica;font-weight:normal;font-style:normal;font-size:10pt">120</text>
<text x="19.248" y="-589.58" transform="scale(1, -1)"
	style="font-family:Helvetica;font-weight:normal;font-style:normal;font-size:10pt">160</text>
<path d="M43.577,62.57L53.577,62.57" style="fill:none;stroke:#000000;stroke-width:0.625" />
<path d="M43.577,240.2L53.577,240.2" style="fill:none;stroke:#000000;stroke-width:0.625" />
<path d="M43.577,417.83L53.577,417.83" style="fill:none;stroke:#000000;stroke-width:0.625" />
<path d="M43.577,595.45L53.577,595.45" style="fill:none;stroke:#000000;stroke-width:0.625" />
<path d="M48.577,151.38L53.577,151.38" style="fill:none;stroke:#000000;stroke-width:0.625" />
<path d="M48.577,329.01L53.577,329.01" style="fill:none;stroke:#000000;stroke-width:0.625" />
<path d="M48.577,506.64L53.577,506.64" style="fill:none;stroke:#000000;stroke-width:0.625" />
<path d="M48.577,684.27L53.577,684.27" style="fill:none;stroke:#000000;stroke-width:0.625" />
<path d="M53.577,48.06L53.577,700.75" style="fill:none;stroke:#000000;stroke-width:0.625" />
<path d="M60.834,48.06L66.794,52.63L72.754,62.464L78.714,68.33L84.674,72.524L90.634,82.948L96.594,80.721L102.55,80.926L108.51,86.995L114.47,79.249L120.43,76.786L126.39,76.641L132.35,79.399L138.31,80.835L144.27,66.517L150.23,78.037L156.19,66.84L162.15,72.9L168.11,83.805L174.07,76.876L180.03,71.889L185.99,80.299L191.95,77.555L197.91,72.544L203.87,69.024L209.83,81.701L215.79,276.16L221.75,413.32L227.71,418.32L233.67,355.26L239.63,478.06L245.59,369.04L251.55,358.81L257.51,416.64L263.47,356.13L269.44,401.02L275.4,391.56L281.36,371.53L287.32,367.98L293.28,416.86L299.24,370.21L305.2,348.37L311.16,422.4L317.12,380.34L323.08,394.23L329.04,360.37L335,388.24L340.96,362.18L346.92,391.27L352.88,381.83L358.84,347L364.8,417.36L370.76,383.75L376.72,375.46L382.68,379.81L388.64,380.01L394.6,365.54L400.56,387.35L406.52,374.27L412.48,401.61L418.44,383.08L424.4,355.47L430.36,381.48L436.32,384.46L442.28,370.91L448.24,378.17L454.2,404.09L460.16,372.7L466.12,377.29L472.08,358.14L478.04,385.93" style="fill:none;stroke:#F15A60;stroke-width:1.875" />
<path d="M60.834,687.08L66.794,699.14L72.754,634.19L78.714,630.43L84.674,633.21L90.634,633.02L96.594,638.66L102.55,631.33L108.51,631.08L114.47,628.89L120.43,632.1L126.39,633.39L132.35,627.83L138.31,628.95L144.27,631.27L150.23,630.06L156.19,630.13L162.15,627.86L168.11,632.71L174.07,633.32L180.03,631.55L185.99,634.37L191.95,632.05L197.91,632.3L203.87,628.68L209.83,633.65L215.79,633.68L221.75,636.71L227.71,635.93L233.67,642.65L239.63,638.22L245.59,642.43L251.55,639.81L257.51,644.2L263.47,645.88L269.44,642.25L275.4,635.95L281.36,642.8L287.32,638.36L293.28,636.46L299.24,639.63L305.2,639.61L311.16,638.75L317.12,645.86L323.08,634.92L329.04,640.82L335,651.67L340.96,639.81L346.92,639.14L352.88,638.28L358.84,642.71L364.8,633.85L370.76,635.01L376.72,637.22L382.68,636.82L388.64,637.94L394.6,637.88L400.56,636.56L406.52,638.26L412.48,643.03L418.44,644.24L424.4,634.03L430.36,643.49L436.32,640.95L442.28,646.66L448.24,650.22L454.2,650.61L460.16,653.66L466.12,652.14L472.08,641.72L478.04,653.45L484,643.41L489.96,637.63L495.92,645.75L501.88,649.15L507.84,644.55L513.8,637.74L519.76,639.11L525.72,649.46L531.68,638.3L537.64,641.18L543.6,640.4L549.56,639.86L555.52,647.12L561.48,643.35L567.44,642.39L573.4,655.65L579.36,648.03L585.32,651.17L591.28,655.34L597.24,662.29L603.2,658.62L609.16,660.42L615.12,668.14L621.08,664.43L627.04,654.66L633,662.56L638.96,647.61L644.92,640.34L650.88,647.34L656.84,647.81L662.8,651.34L668.76,644.88L674.72,641.97L680.68,650.87L686.64,641.42L692.6,648.46L698.56,648.76L704.52,650.21L710.48,646.88L716.44,649.67L722.4,665.01L728.36,658.14L734.32,637.21L740.28,655.66L746.24,649.42L752.2,638.31L758.16,641.58L764.12,652.35L770.08,645.82L776.04,661.74L782,647.38L787.96,640.98L793.92,665.33L799.88,643.16L805.84,642.62L811.8,641.29L817.76,654.68L823.72,649.36L829.68,627.23L835.64,651.61L841.6,667.01L847.56,646.41L853.52,656.99L859.48,644.6L865.44,642.65L871.4,673.68L877.36,660.17L883.32,665.95L889.28,641.85L895.24,654.05L901.2,663.89L907.16,652L913.12,633.46L919.08,650.17L925.04,650.91L931,666.54L936.96,634.18L942.92,671.97L948.88,700.75L954.84,658.11L960.8,660L966.76,662.75L972.72,678.33L978.68,652.96L984.64,680.41L990.6,681.2L996.56,646.1L1002.5,681.1L1008.5,669.93L1014.4,646.09L1020.4,647.49L1026.4,662.6L1032.3,644.58L1038.3,683.94L1044.2,652.82L1050.2,640.44L1056.2,677.01L1062.1,679.74L1068.1,638.52L1074,669.2L1080,649.39" style="fill:none;stroke:#7AC36A;stroke-width:1.875;stroke-dasharray:7.5,2.5" />
<path d="M1055,693.4L1080,693.4" style="fill:none;stroke:#F15A60;stroke-width:1.875" />
<text x="882.43" y="-686.35" transform="scale(1, -1)"
	style="font-family:Helvetica;font-weight:normal;font-style:normal;font-size:12pt">etcd v3 (no compression)</text>
<path d="M1055,678.7L1080,678.7" style="fill:none;stroke:#7AC36A;stroke-width:1.875;stroke-dasharray:7.5,2.5" />
<text x="939.94" y="-671.65" transform="scale(1, -1)"
	style="font-family:Helvetica;font-weight:normal;font-style:normal;font-size:12pt">etcd v3 (snappy)</text>
</g>
</svg>
