<?xml version="1.0"?>
<!-- Generated by SVGo and Plotinum VG -->
<svg width="12in" height="8in"
	xmlns="http://www.w3.org/2000/svg"
	xmlns:xlink="http://www.w3.org/1999/xlink">
<g transform="scale(1, -1) translate(0, -720)">
<path d="M0,0L1080,0L1080,720L0,720Z" style="fill:#FFFFFF" />
<text x="237.65" y="-705.6" transform="scale(1, -1)"
	style="font-family:Helvetica;font-weight:normal;font-style:normal;font-size:12pt">Write 1M keys, 1000-client, 100-conn, 64-byte key, 1024-byte value (etcd v3), Memory(MB)</text>
<text x="544.98" y="-4.8486" transform="scale(1, -1)"
	style="font-family:Helvetica;font-weight:normal;font-style:normal;font-size:12pt">Second</text>
<text x="57.358" y="-19.498" transform="scale(1, -1)"
	style="font-family:Helvetica;font-weight:normal;font-style:normal;font-size:10pt">0</text>
<text x="353.64" y="-19.498" transform="scale(1, -1)"
	style="font-family:Helvetica;font-weight:normal;font-style:normal;font-size:10pt">50</text>
<text x="649.92" y="-19.498" transform="scale(1, -1)"
	style="font-family:Helvetica;font-weight:normal;font-style:normal;font-size:10pt">100</text>
<text x="949.67" y="-19.498" transform="scale(1, -1)"
	style="font-family:Helvetica;font-weight:normal;font-style:normal;font-size:10pt">150</text>
<path d="M60.834,31.498L60.834,41.498" style="fill:none;stroke:#000000;stroke-width:0.625" />
<path d="M360.59,31.498L360.59,41.498" style="fill:none;stroke:#000000;stroke-width:0.625" />
<path d="M660.34,31.498L660.34,41.498" style="fill:none;stroke:#000000;stroke-width:0.625" />
<path d="M960.1,31.498L960.1,41.498" style="fill:none;stroke:#000000;stroke-width:0.625" />
<path d="M120.78,36.498L120.78,41.498" style="fill:none;stroke:#000000;stroke-width:0.625" />
<path d="M180.74,36.498L180.74,41.498" style="fill:none;stroke:#000000;stroke-width:0.625" />
<path d="M240.69,36.498L240.69,41.498" style="fill:none;stroke:#000000;stroke-width:0.625" />
<path d="M300.64,36.498L300.64,41.498" style="fill:none;stroke:#000000;stroke-width:0.625" />
<path d="M420.54,36.498L420.54,41.498" style="fill:none;stroke:#000000;stroke-width:0.625" />
<path d="M480.49,36.498L480.49,41.498" style="fill:none;stroke:#000000;stroke-width:0.625" />
<path d="M540.44,36.498L540.44,41.498" style="fill:none;stroke:#000000;stroke-width:0.625" />
<path d="M600.39,36.498L600.39,41.498" style="fill:none;stroke:#000000;stroke-width:0.625" />
<path d="M720.29,36.498L720.29,41.498" style="fill:none;stroke:#000000;stroke-width:0.625" />
<path d="M780.25,36.498L780.25,41.498" style="fill:none;stroke:#000000;stroke-width:0.625" />
<path d="M840.2,36.498L840.2,41.498" style="fill:none;stroke:#000000;stroke-width:0.625" />
<path d="M900.15,36.498L900.15,41.498" style="fill:none;stroke:#000000;stroke-width:0.625" />
<path d="M1020,36.498L1020,41.498" style="fill:none;stroke:#000000;stroke-width:0.625" />
<path d="M1080,36.498L1080,41.498" style="fill:none;stroke:#000000;stroke-width:0.625" />
<path d="M60.834,41.498L1080,41.498" style="fill:none;stroke:#000000;stroke-width:0.625" />
<g transform="rotate(90)">
<text x="331.08" y="14.399" transform="scale(1, -1)"
	style="font-family:Helvetica;font-weight:normal;font-style:normal;font-size:12pt">Memory(MB)</text>
</g>
<text x="19.248" y="-234.08" transform="scale(1, -1)"
	style="font-family:Helvetica;font-weight:normal;font-style:normal;font-size:10pt">200</text>
<text x="19.248" y="-448.18" transform="scale(1, -1)"
	style="font-family:Helvetica;font-weight:normal;font-style:normal;font-size:10pt">400</text>
<text x="19.248" y="-662.29" transform="scale(1, -1)"
	style="font-family:Helvetica;font-weight:normal;font-style:normal;font-size:10pt">600</text>
<path d="M43.577,239.95L53.577,239.95" style="fill:none;stroke:#000000;stroke-width:0.625" />
<path d="M43.577,454.06L53.577,454.06" style="fill:none;stroke:#000000;stroke-width:0.625" />
<path d="M43.577,668.17L53.577,668.17" style="fill:none;stroke:#000000;stroke-width:0.625" />
<path d="M48.577,132.9L53.577,132.9" style="fill:none;stroke:#000000;stroke-width:0.625" />
<path d="M48.577,347.01L53.577,347.01" style="fill:none;stroke:#000000;stroke-width:0.625" />
<path d="M48.577,561.11L53.577,561.11" style="fill:none;stroke:#000000;stroke-width:0.625" />
<path d="M53.577,48.06L53.577,700.75" style="fill:none;stroke:#000000;stroke-width:0.625" />
<path d="M60.834,48.06L66.829,138.78L72.824,158.1L78.819,171.89L84.814,185.26L90.809,192.29L96.804,201.94L102.8,214.67L108.79,226.41L114.79,235.2L120.78,248.68L126.78,267.51L132.77,277.82L138.77,282.65L144.77,298.36L150.76,312.01L156.76,327.52L162.75,339.6L168.75,349.67L174.74,360.18L180.74,376.31L186.73,381.99L192.73,405.86L198.72,417.08L204.72,418.77L210.71,431.43L216.71,434.75L222.7,447.3L228.7,450.71L234.69,452.93L240.69,457.89L246.68,460.46L252.68,465.27L258.67,468.93L264.67,476.8L270.66,478.4L276.66,485.15L282.65,489.94L288.65,494.34L294.64,495.69L300.64,503.71L306.63,512.57L312.63,514.09L318.62,519.05L324.62,522.19L330.61,523.24L336.61,530.64L342.6,531.64L348.6,533.64L354.59,545.85L360.59,549.5L366.58,550.8L372.58,555.28L378.57,556.92L384.57,567.07L390.56,572.07L396.56,578.34L402.55,579.18L408.55,582.07L414.54,583.2L420.54,586.58L426.53,597.6L432.53,605.76L438.52,623.89L444.52,631L450.51,633.61L456.51,646.29L462.51,648.2L468.5,650.17L474.5,652.98" style="fill:none;stroke:#F15A60;stroke-width:1.875" />
<path d="M60.834,55.543L66.829,90.582L72.824,108.48L78.819,115.35L84.814,130.92L90.809,133.12L96.804,138.84L102.8,139.59L108.79,147.65L114.79,148.87L120.78,153.14L126.78,157.19L132.77,158.03L138.77,162.43L144.77,164.23L150.76,168.99L156.76,174.5L162.75,175.7L168.75,181.47L174.74,182.37L180.74,191.09L186.73,193.26L192.73,194.32L198.72,200.29L204.72,201.24L210.71,205.81L216.71,210.72L222.7,216.98L228.7,221.55L234.69,223.63L240.69,228.08L246.68,230.79L252.68,231.38L258.67,236.2L264.67,237.32L270.66,242.7L276.66,244.76L282.65,249.28L288.65,250.75L294.64,256L300.64,257.48L306.63,259.96L312.63,264.33L318.62,268.47L324.62,275.7L330.61,278.76L336.61,280.63L342.6,285.3L348.6,289.81L354.59,292.45L360.59,296.26L366.58,298.56L372.58,302.78L378.57,303.77L384.57,307.09L390.56,311.36L396.56,312.45L402.55,320.59L408.55,323.9L414.54,326.01L420.54,326.21L426.53,331.79L432.53,334.71L438.52,335.66L444.52,346.74L450.51,348.12L456.51,349.41L462.51,352.18L468.5,359.65L474.5,363.45L480.49,364.83L486.49,367.3L492.48,369.25L498.48,373.64L504.47,376L510.47,377.14L516.46,384.77L522.46,387.32L528.45,388.19L534.45,390.32L540.44,397.87L546.44,404.02L552.43,405.87L558.43,412.82L564.42,414.17L570.42,416.24L576.41,417.94L582.41,420.03L588.4,422.25L594.4,426.87L600.39,429.99L606.39,435.11L612.38,436.14L618.38,439.77L624.37,440.85L630.37,449.62L636.36,450.74L642.36,455.65L648.35,460.49L654.35,461.33L660.34,465.4L666.34,466.16L672.33,477.72L678.33,478.85L684.32,479.07L690.32,481.45L696.31,485.83L702.31,491.82L708.3,497.15L714.3,498.04L720.29,498.69L726.29,504.87L732.28,505.08L738.28,509.3L744.27,513.36L750.27,514.64L756.26,519.9L762.26,520.95L768.26,524.46L774.25,526.94L780.25,527.29L786.24,537.03L792.24,540.77L798.23,541.91L804.23,542.55L810.22,554.4L816.22,556.08L822.21,556.53L828.21,560.67L834.2,560.67L840.2,568.06L846.19,569.42L852.19,570.02L858.18,580.66L864.18,581.42L870.17,587.92L876.17,588.25L882.16,592.39L888.16,592.61L894.15,595.44L900.15,596.35L906.14,603.33L912.14,608.16L918.13,608.32L924.13,608.41L930.12,612.06L936.12,615.68L942.11,623.95L948.11,630.43L954.1,632.36L960.1,632.79L966.09,633.37L972.09,633.84L978.08,640.1L984.08,642.24L990.07,650.35L996.07,652.78L1002.1,659.63L1008.1,661.56L1014.1,662.23L1020,662.59L1026,664.41L1032,665.55L1038,674.43L1044,683.44L1050,685.6L1056,687.31L1062,688.47L1068,689.08L1074,699.78L1080,700.75" style="fill:none;stroke:#7AC36A;stroke-width:1.875;stroke-dasharray:7.5,2.5" />
<path d="M1055,693.4L1080,693.4" style="fill:none;stroke:#F15A60;stroke-width:1.875" />
<text x="882.43" y="-686.35" transform="scale(1, -1)"
	style="font-family:Helvetica;font-weight:normal;font-style:normal;font-size:12pt">etcd v3 (no compression)</text>
<path d="M1055,678.7L1080,678.7" style="fill:none;stroke:#7AC36A;stroke-width:1.875;stroke-dasharray:7.5,2.5" />
<text x="939.94" y="-671.65" transform="scale(1, -1)"
	style="font-family:Helvetica;font-weight:normal;font-style:normal;font-size:12pt">etcd v3 (snappy)</text>
</g>
</svg>
