<?xml version="1.0"?>
<!-- Generated by SVGo and Plotinum VG -->
<svg width="12in" height="8in"
	xmlns="http://www.w3.org/2000/svg"
	xmlns:xlink="http://www.w3.org/1999/xlink">
<g transform="scale(1, -1) translate(0, -720)">
<path d="M0,0L1080,0L1080,720L0,720Z" style="fill:#FFFFFF" />
<text x="265.15" y="-705.6" transform="scale(1, -1)"
	style="font-family:Helvetica;font-weight:normal;font-style:normal;font-size:12pt">Write 1M keys, 1000-client, 100-conn, 64-byte key, 1024-byte value (etcd v3), CPU</text>
<text x="544.98" y="-4.8486" transform="scale(1, -1)"
	style="font-family:Helvetica;font-weight:normal;font-style:normal;font-size:12pt">Second</text>
<text x="57.358" y="-19.498" transform="scale(1, -1)"
	style="font-family:Helvetica;font-weight:normal;font-style:normal;font-size:10pt">0</text>
<text x="353.64" y="-19.498" transform="scale(1, -1)"
	style="font-family:Helvetica;font-weight:normal;font-style:normal;font-size:10pt">50</text>
<text x="649.92" y="-19.498" transform="scale(1, -1)"
	style="font-family:Helvetica;font-weight:normal;font-style:normal;font-size:10pt">100</text>
<text x="949.67" y="-19.498" transform="scale(1, -1)"
	style="font-family:Helvetica;font-weight:normal;font-style:normal;font-size:10pt">150</text>
<path d="M60.834,31.498L60.834,41.498" style="fill:none;stroke:#000000;stroke-width:0.625" />
<path d="M360.59,31.498L360.59,41.498" style="fill:none;stroke:#000000;stroke-width:0.625" />
<path d="M660.34,31.498L660.34,41.498" style="fill:none;stroke:#000000;stroke-width:0.625" />
<path d="M960.1,31.498L960.1,41.498" style="fill:none;stroke:#000000;stroke-width:0.625" />
<path d="M120.78,36.498L120.78,41.498" style="fill:none;stroke:#000000;stroke-width:0.625" />
<path d="M180.74,36.498L180.74,41.498" style="fill:none;stroke:#000000;stroke-width:0.625" />
<path d="M240.69,36.498L240.69,41.498" style="fill:none;stroke:#000000;stroke-width:0.625" />
<path d="M300.64,36.498L300.64,41.498" style="fill:none;stroke:#000000;stroke-width:0.625" />
<path d="M420.54,36.498L420.54,41.498" style="fill:none;stroke:#000000;stroke-width:0.625" />
<path d="M480.49,36.498L480.49,41.498" style="fill:none;stroke:#000000;stroke-width:0.625" />
<path d="M540.44,36.498L540.44,41.498" style="fill:none;stroke:#000000;stroke-width:0.625" />
<path d="M600.39,36.498L600.39,41.498" style="fill:none;stroke:#000000;stroke-width:0.625" />
<path d="M720.29,36.498L720.29,41.498" style="fill:none;stroke:#000000;stroke-width:0.625" />
<path d="M780.25,36.498L780.25,41.498" style="fill:none;stroke:#000000;stroke-width:0.625" />
<path d="M840.2,36.498L840.2,41.498" style="fill:none;stroke:#000000;stroke-width:0.625" />
<path d="M900.15,36.498L900.15,41.498" style="fill:none;stroke:#000000;stroke-width:0.625" />
<path d="M1020,36.498L1020,41.498" style="fill:none;stroke:#000000;stroke-width:0.625" />
<path d="M1080,36.498L1080,41.498" style="fill:none;stroke:#000000;stroke-width:0.625" />
<path d="M60.834,41.498L1080,41.498" style="fill:none;stroke:#000000;stroke-width:0.625" />
<g transform="rotate(90)">
<text x="358.57" y="14.399" transform="scale(1, -1)"
	style="font-family:Helvetica;font-weight:normal;font-style:normal;font-size:12pt">CPU</text>
</g>
<text x="19.248" y="-251.39" transform="scale(1, -1)"
	style="font-family:Helvetica;font-weight:normal;font-style:normal;font-size:10pt">100</text>
<text x="19.248" y="-465.25" transform="scale(1, -1)"
	style="font-family:Helvetica;font-weight:normal;font-style:normal;font-size:10pt">200</text>
<text x="19.248" y="-679.12" transform="scale(1, -1)"
	style="font-family:Helvetica;font-weight:normal;font-style:normal;font-size:10pt">300</text>
<path d="M43.577,257.26L53.577,257.26" style="fill:none;stroke:#000000;stroke-width:0.625" />
<path d="M43.577,471.13L53.577,471.13" style="fill:none;stroke:#000000;stroke-width:0.625" />
<path d="M43.577,684.99L53.577,684.99" style="fill:none;stroke:#000000;stroke-width:0.625" />
<path d="M48.577,150.33L53.577,150.33" style="fill:none;stroke:#000000;stroke-width:0.625" />
<path d="M48.577,364.19L53.577,364.19" style="fill:none;stroke:#000000;stroke-width:0.625" />
<path d="M48.577,578.06L53.577,578.06" style="fill:none;stroke:#000000;stroke-width:0.625" />
<path d="M53.577,48.06L53.577,700.75" style="fill:none;stroke:#000000;stroke-width:0.625" />
<path d="M60.834,48.83L66.829,137.07L72.824,212.97L78.819,275.68L84.814,329.85L90.809,372.19L96.804,408.1L102.8,439.94L108.79,466.01L114.79,489.48L120.78,514.11L126.78,533.83L132.77,552.95L138.77,568.01L144.77,585.84L150.76,600.36L156.76,615.55L162.75,628.32L168.75,639.27L174.74,649.02L180.74,659.73L186.73,668.84L192.73,677.33L198.72,685.14L204.72,694.68L210.71,700.75L216.71,694.61L222.7,684.56L228.7,675.24L234.69,667.39L240.69,658.75L246.68,650.84L252.68,644.98L258.67,637.96L264.67,631.65L270.66,624.85L276.66,619.33L282.65,614.16L288.65,608.64L294.64,602.55L300.64,597.67L306.63,591.51L312.63,586.61L318.62,582.36L324.62,576.65L330.61,572.56L336.61,568.31L342.6,563.92L348.6,560.05L354.59,556.27L360.59,552.61L366.58,549.25L372.58,545.89L378.57,542.75L384.57,539.65L390.56,536.5L396.56,533.42L402.55,530.17L408.55,527.69L414.54,525.21L420.54,522.62L426.53,519.99L432.53,517.47L438.52,515.29L444.52,513.24L450.51,510.63L456.51,508.79L462.51,506.97L468.5,504.66L474.5,502.44" style="fill:none;stroke:#F15A60;stroke-width:1.875" />
<path d="M60.834,48.06L66.829,53.514L72.824,63.074L78.819,72.633L84.814,81.273L90.809,89.336L96.804,96.779L102.8,104.22L108.79,111.09L114.79,117.42L120.78,123.4L126.78,129.09L132.77,134.38L138.77,139.72L144.77,144.36L150.76,149.28L156.76,153.82L162.75,158.16L168.75,162.22L174.74,166.11L180.74,169.88L186.73,173.41L192.73,176.83L198.72,180.14L204.72,183.16L210.71,186.41L216.71,189.3L222.7,192.42L228.7,195.24L234.69,197.79L240.69,200.35L246.68,202.96L252.68,205.31L258.67,207.88L264.67,210.25L270.66,212.41L276.66,214.72L282.65,216.65L288.65,218.68L294.64,220.56L300.64,222.62L306.63,224.31L312.63,226.08L318.62,227.32L324.62,229.07L330.61,230.76L336.61,232.24L342.6,233.67L348.6,235.08L354.59,236.65L360.59,237.78L366.58,239.06L372.58,240.58L378.57,241.84L384.57,242.87L390.56,244.32L396.56,245.31L402.55,246.55L408.55,247.53L414.54,248.69L420.54,249.69L426.53,251.17L432.53,251.98L438.52,253.31L444.52,254.1L450.51,254.85L456.51,256.21L462.51,256.9L468.5,257.86L474.5,258.91L480.49,259.53L486.49,260.32L492.48,261.09L498.48,261.88L504.47,262.63L510.47,263.19L516.46,264.06L522.46,265.13L528.45,265.73L534.45,266.27L540.44,266.86L546.44,267.72L552.43,268.68L558.43,269.22L564.42,269.73L570.42,270.29L576.41,270.95L582.41,271.55L588.4,272.1L594.4,272.96L600.39,273.67L606.39,274.18L612.38,274.73L618.38,275.31L624.37,275.85L630.37,276.47L636.36,277.17L642.36,277.77L648.35,278.33L654.35,278.82L660.34,279.33L666.34,279.76L672.33,280.21L678.33,280.59L684.32,280.87L690.32,281.36L696.31,281.88L702.31,282.09L708.3,282.54L714.3,282.97L720.29,283.42L726.29,283.7L732.28,284L738.28,284.47L744.27,284.64L750.27,285.11L756.26,285.6L762.26,285.83L768.26,286.24L774.25,286.75L780.25,287.25L786.24,287.46L792.24,287.74L798.23,288.19L804.23,288.46L810.22,288.98L816.22,289.47L822.21,289.77L828.21,290.26L834.2,290.28L840.2,290.71L846.19,291.05L852.19,291.25L858.18,291.61L864.18,291.8L870.17,292.12L876.17,292.27L882.16,292.68L888.16,292.81L894.15,293.04L900.15,293.19L906.14,293.53L912.14,293.85L918.13,294.05L924.13,294.32L930.12,294.41L936.12,294.88L942.11,294.9L948.11,295.37L954.1,295.5L960.1,295.74L966.09,295.93L972.09,296.14L978.08,296.4L984.08,296.68L990.07,296.93L996.07,297.21L1002.1,297.51L1008.1,297.81L1014.1,298.02L1020,298.32L1026,298.43L1032,298.56L1038,298.94L1044,299.12L1050,299.03L1056,299.44L1062,299.54L1068,299.56L1074,299.99L1080,299.86" style="fill:none;stroke:#7AC36A;stroke-width:1.875;stroke-dasharray:7.5,2.5" />
<path d="M1055,693.4L1080,693.4" style="fill:none;stroke:#F15A60;stroke-width:1.875" />
<text x="882.43" y="-686.35" transform="scale(1, -1)"
	style="font-family:Helvetica;font-weight:normal;font-style:normal;font-size:12pt">etcd v3 (no compression)</text>
<path d="M1055,678.7L1080,678.7" style="fill:none;stroke:#7AC36A;stroke-width:1.875;stroke-dasharray:7.5,2.5" />
<text x="939.94" y="-671.65" transform="scale(1, -1)"
	style="font-family:Helvetica;font-weight:normal;font-style:normal;font-size:12pt">etcd v3 (snappy)</text>
</g>
</svg>
