<?xml version="1.0"?>
<!-- Generated by SVGo and Plotinum VG -->
<svg width="12in" height="8in"
	xmlns="http://www.w3.org/2000/svg"
	xmlns:xlink="http://www.w3.org/1999/xlink">
<g transform="scale(1, -1) translate(0, -720)">
<path d="M0,0L1080,0L1080,720L0,720Z" style="fill:#FFFFFF" />
<text x="242.76" y="-705.6" transform="scale(1, -1)"
	style="font-family:Helvetica;font-weight:normal;font-style:normal;font-size:12pt">Write 1M keys, 1000-client, 100-conn, 64-byte key, 1024-byte value (etcd v3), Throughput</text>
<text x="557.32" y="-4.8486" transform="scale(1, -1)"
	style="font-family:Helvetica;font-weight:normal;font-style:normal;font-size:12pt">Second</text>
<text x="82.034" y="-19.498" transform="scale(1, -1)"
	style="font-family:Helvetica;font-weight:normal;font-style:normal;font-size:10pt">0</text>
<text x="369.34" y="-19.498" transform="scale(1, -1)"
	style="font-family:Helvetica;font-weight:normal;font-style:normal;font-size:10pt">50</text>
<text x="656.66" y="-19.498" transform="scale(1, -1)"
	style="font-family:Helvetica;font-weight:normal;font-style:normal;font-size:10pt">100</text>
<text x="947.44" y="-19.498" transform="scale(1, -1)"
	style="font-family:Helvetica;font-weight:normal;font-style:normal;font-size:10pt">150</text>
<path d="M85.51,31.498L85.51,41.498" style="fill:none;stroke:#000000;stroke-width:0.625" />
<path d="M376.3,31.498L376.3,41.498" style="fill:none;stroke:#000000;stroke-width:0.625" />
<path d="M667.08,31.498L667.08,41.498" style="fill:none;stroke:#000000;stroke-width:0.625" />
<path d="M957.87,31.498L957.87,41.498" style="fill:none;stroke:#000000;stroke-width:0.625" />
<path d="M143.67,36.498L143.67,41.498" style="fill:none;stroke:#000000;stroke-width:0.625" />
<path d="M201.82,36.498L201.82,41.498" style="fill:none;stroke:#000000;stroke-width:0.625" />
<path d="M259.98,36.498L259.98,41.498" style="fill:none;stroke:#000000;stroke-width:0.625" />
<path d="M318.14,36.498L318.14,41.498" style="fill:none;stroke:#000000;stroke-width:0.625" />
<path d="M434.45,36.498L434.45,41.498" style="fill:none;stroke:#000000;stroke-width:0.625" />
<path d="M492.61,36.498L492.61,41.498" style="fill:none;stroke:#000000;stroke-width:0.625" />
<path d="M550.77,36.498L550.77,41.498" style="fill:none;stroke:#000000;stroke-width:0.625" />
<path d="M608.93,36.498L608.93,41.498" style="fill:none;stroke:#000000;stroke-width:0.625" />
<path d="M725.24,36.498L725.24,41.498" style="fill:none;stroke:#000000;stroke-width:0.625" />
<path d="M783.4,36.498L783.4,41.498" style="fill:none;stroke:#000000;stroke-width:0.625" />
<path d="M841.56,36.498L841.56,41.498" style="fill:none;stroke:#000000;stroke-width:0.625" />
<path d="M899.71,36.498L899.71,41.498" style="fill:none;stroke:#000000;stroke-width:0.625" />
<path d="M1016,36.498L1016,41.498" style="fill:none;stroke:#000000;stroke-width:0.625" />
<path d="M1074.2,36.498L1074.2,41.498" style="fill:none;stroke:#000000;stroke-width:0.625" />
<path d="M85.51,41.498L1080,41.498" style="fill:none;stroke:#000000;stroke-width:0.625" />
<g transform="rotate(90)">
<text x="336.05" y="14.399" transform="scale(1, -1)"
	style="font-family:Helvetica;font-weight:normal;font-style:normal;font-size:12pt">Throughput</text>
</g>
<text x="36.973" y="-231.14" transform="scale(1, -1)"
	style="font-family:Helvetica;font-weight:normal;font-style:normal;font-size:10pt">8000</text>
<text x="19.248" y="-432.65" transform="scale(1, -1)"
	style="font-family:Helvetica;font-weight:normal;font-style:normal;font-size:10pt">1.6e+04</text>
<text x="19.248" y="-634.15" transform="scale(1, -1)"
	style="font-family:Helvetica;font-weight:normal;font-style:normal;font-size:10pt">2.4e+04</text>
<path d="M68.253,237.02L78.253,237.02" style="fill:none;stroke:#000000;stroke-width:0.625" />
<path d="M68.253,438.52L78.253,438.52" style="fill:none;stroke:#000000;stroke-width:0.625" />
<path d="M68.253,640.02L78.253,640.02" style="fill:none;stroke:#000000;stroke-width:0.625" />
<path d="M73.253,136.27L78.253,136.27" style="fill:none;stroke:#000000;stroke-width:0.625" />
<path d="M73.253,337.77L78.253,337.77" style="fill:none;stroke:#000000;stroke-width:0.625" />
<path d="M73.253,539.27L78.253,539.27" style="fill:none;stroke:#000000;stroke-width:0.625" />
<path d="M78.253,48.06L78.253,700.75" style="fill:none;stroke:#000000;stroke-width:0.625" />
<path d="M85.51,248.35L91.326,700.75L97.142,660.45L102.96,644.99L108.77,627.78L114.59,602.92L120.4,604.03L126.22,596L132.04,590.33L137.85,605.42L143.67,612.62L149.48,627.25L155.3,595.57L161.11,616.8L166.93,640.48L172.75,623.95L178.56,646.88L184.38,621.01L190.19,604.69L196.01,614.84L201.82,619.04L207.64,604.81L213.46,615.44L219.27,645.21L225.09,632.87L230.9,582.52L236.72,292.79L242.53,253.84L248.35,256.39L254.17,246.62L259.98,254.65L265.8,251.98L271.61,275.28L277.43,243.49L283.25,282.84L289.06,245.03L294.88,254.95L300.69,253.44L306.51,291.15L312.32,231.81L318.14,276.77L323.96,259.69L329.77,248.53L335.59,262.74L341.4,267.24L347.22,252.03L353.03,265.2L358.85,264.25L364.67,255.99L370.48,265.76L376.3,273.59L382.11,247.7L387.93,260.12L393.74,260.44L399.56,268L405.38,257.82L411.19,270.87L417.01,260.17L422.82,259.84L428.64,249.49L434.45,260.9L440.27,263.39L446.09,260.34L451.9,267.17L457.72,259.36L463.53,272.36L469.35,249.41L475.16,271.73L480.98,245.91L486.8,267.77L492.61,272.16" style="fill:none;stroke:#F15A60;stroke-width:1.875" />
<path d="M85.51,48.06L91.326,184.4L97.142,181.35L102.96,187.35L108.77,185.03L114.59,180.55L120.4,186.01L126.22,185.66L132.04,186.47L137.85,185.18L143.67,185.54L149.48,184.15L155.3,186.11L161.11,185.94L166.93,185.99L172.75,184.4L178.56,185.64L184.38,184.28L190.19,188.18L196.01,182.71L201.82,185.64L207.64,184.3L213.46,185.23L219.27,184.3L225.09,186.85L230.9,184.65L236.72,183.67L242.53,186.77L248.35,181.51L254.17,184.02L259.98,185.66L265.8,183.12L271.61,184.98L277.43,178.91L283.25,184.58L289.06,184.38L294.88,181.56L300.69,186.95L306.51,180.67L312.32,187L318.14,181.25L323.96,184.25L329.77,182.36L335.59,185.71L341.4,182.41L347.22,183.12L353.03,183.22L358.85,180.42L364.67,186.59L370.48,181.4L376.3,183.19L382.11,185.08L387.93,186.79L393.74,184.15L399.56,185.31L405.38,179.39L411.19,186.34L417.01,185.91L422.82,184.3L428.64,179.57L434.45,184.93L440.27,184.25L446.09,180.9L451.9,185.38L457.72,180.2L463.53,184.05L469.35,183.95L475.16,179.59L480.98,178.84L486.8,183.8L492.61,182.26L498.43,179.74L504.24,188.58L510.06,182.21L515.87,181.33L521.69,181.96L527.51,185.51L533.32,179.59L539.14,186.52L544.95,177.6L550.77,188.18L556.58,183.47L562.4,183.12L568.22,178.86L574.03,184.3L579.85,184.91L585.66,180.67L591.48,181.23L597.29,181.35L603.11,181.81L608.93,180.17L614.74,180.02L620.56,178.1L626.37,169.54L632.19,187.17L638,180.45L643.82,178.31L649.64,186.32L655.45,182.16L661.27,180.3L667.08,179.94L672.9,184.78L678.71,181L684.53,182.34L690.35,185.61L696.16,181.43L701.98,182.76L707.79,180.02L713.61,180.4L719.42,184.91L725.24,174.93L731.06,184.15L736.87,182.06L742.69,178.91L748.5,186.69L754.32,180.32L760.13,181.05L765.95,179.59L771.77,187.3L777.58,181.35L783.4,173.57L789.21,188.71L795.03,172.36L800.84,190.42L806.66,180.47L812.48,182.31L818.29,182.16L824.11,182.29L829.92,179.06L835.74,189.69L841.56,181.88L847.37,178.73L853.19,181.23L859,184.7L864.82,180.52L870.63,182.36L876.45,178.46L882.27,177.58L888.08,172.94L893.9,188L899.71,178.96L905.53,180.65L911.34,183.87L917.16,182.66L922.98,185.71L928.79,176.29L934.61,177.5L940.42,184.12L946.24,178.71L952.05,174.88L957.87,177.78L963.69,181.81L969.5,175.76L975.32,182.39L981.13,178.28L986.95,174.07L992.76,176.62L998.58,184.8L1004.4,173.95L1010.2,175.91L1016,187.88L1021.8,183.92L1027.7,172.31L1033.5,179.62L1039.3,183.47L1045.1,177.75L1050.9,178.63L1056.7,179.62L1062.6,180.35L1068.4,182.11L1074.2,173.95L1080,182.71" style="fill:none;stroke:#7AC36A;stroke-width:1.875;stroke-dasharray:7.5,2.5" />
<path d="M1055,693.4L1080,693.4" style="fill:none;stroke:#F15A60;stroke-width:1.875" />
<text x="882.43" y="-686.35" transform="scale(1, -1)"
	style="font-family:Helvetica;font-weight:normal;font-style:normal;font-size:12pt">etcd v3 (no compression)</text>
<path d="M1055,678.7L1080,678.7" style="fill:none;stroke:#7AC36A;stroke-width:1.875;stroke-dasharray:7.5,2.5" />
<text x="939.94" y="-671.65" transform="scale(1, -1)"
	style="font-family:Helvetica;font-weight:normal;font-style:normal;font-size:12pt">etcd v3 (snappy)</text>
</g>
</svg>
