<?xml version="1.0"?>
<!-- Generated by SVGo and Plotinum VG -->
<svg width="12in" height="8in"
	xmlns="http://www.w3.org/2000/svg"
	xmlns:xlink="http://www.w3.org/1999/xlink">
<g transform="scale(1, -1) translate(0, -720)">
<path d="M0,0L1080,0L1080,720L0,720Z" style="fill:#FFFFFF" />
<text x="216.79" y="-705.6" transform="scale(1, -1)"
	style="font-family:Helvetica;font-weight:normal;font-style:normal;font-size:12pt">Write 1M keys, 1000-client, 100-conn, 48-byte key, 500-byte value (etcd v3), Latency(millisecond)</text>
<text x="541.5" y="-4.8486" transform="scale(1, -1)"
	style="font-family:Helvetica;font-weight:normal;font-style:normal;font-size:12pt">Second</text>
<text x="50.406" y="-19.498" transform="scale(1, -1)"
	style="font-family:Helvetica;font-weight:normal;font-style:normal;font-size:10pt">0</text>
<text x="316.96" y="-19.498" transform="scale(1, -1)"
	style="font-family:Helvetica;font-weight:normal;font-style:normal;font-size:10pt">10</text>
<text x="586.99" y="-19.498" transform="scale(1, -1)"
	style="font-family:Helvetica;font-weight:normal;font-style:normal;font-size:10pt">20</text>
<text x="857.02" y="-19.498" transform="scale(1, -1)"
	style="font-family:Helvetica;font-weight:normal;font-style:normal;font-size:10pt">30</text>
<path d="M53.882,31.498L53.882,41.498" style="fill:none;stroke:#000000;stroke-width:0.625" />
<path d="M323.91,31.498L323.91,41.498" style="fill:none;stroke:#000000;stroke-width:0.625" />
<path d="M593.94,31.498L593.94,41.498" style="fill:none;stroke:#000000;stroke-width:0.625" />
<path d="M863.98,31.498L863.98,41.498" style="fill:none;stroke:#000000;stroke-width:0.625" />
<path d="M188.9,36.498L188.9,41.498" style="fill:none;stroke:#000000;stroke-width:0.625" />
<path d="M458.93,36.498L458.93,41.498" style="fill:none;stroke:#000000;stroke-width:0.625" />
<path d="M728.96,36.498L728.96,41.498" style="fill:none;stroke:#000000;stroke-width:0.625" />
<path d="M998.99,36.498L998.99,41.498" style="fill:none;stroke:#000000;stroke-width:0.625" />
<path d="M53.882,41.498L1080,41.498" style="fill:none;stroke:#000000;stroke-width:0.625" />
<g transform="rotate(90)">
<text x="306.05" y="14.399" transform="scale(1, -1)"
	style="font-family:Helvetica;font-weight:normal;font-style:normal;font-size:12pt">Latency(millisecond)</text>
</g>
<text x="19.248" y="-133.37" transform="scale(1, -1)"
	style="font-family:Helvetica;font-weight:normal;font-style:normal;font-size:10pt">32</text>
<text x="19.248" y="-311.6" transform="scale(1, -1)"
	style="font-family:Helvetica;font-weight:normal;font-style:normal;font-size:10pt">36</text>
<text x="19.248" y="-489.82" transform="scale(1, -1)"
	style="font-family:Helvetica;font-weight:normal;font-style:normal;font-size:10pt">40</text>
<text x="19.248" y="-668.05" transform="scale(1, -1)"
	style="font-family:Helvetica;font-weight:normal;font-style:normal;font-size:10pt">44</text>
<path d="M36.625,139.25L46.625,139.25" style="fill:none;stroke:#000000;stroke-width:0.625" />
<path d="M36.625,317.47L46.625,317.47" style="fill:none;stroke:#000000;stroke-width:0.625" />
<path d="M36.625,495.7L46.625,495.7" style="fill:none;stroke:#000000;stroke-width:0.625" />
<path d="M36.625,673.92L46.625,673.92" style="fill:none;stroke:#000000;stroke-width:0.625" />
<path d="M41.625,50.134L46.625,50.134" style="fill:none;stroke:#000000;stroke-width:0.625" />
<path d="M41.625,228.36L46.625,228.36" style="fill:none;stroke:#000000;stroke-width:0.625" />
<path d="M41.625,406.58L46.625,406.58" style="fill:none;stroke:#000000;stroke-width:0.625" />
<path d="M41.625,584.81L46.625,584.81" style="fill:none;stroke:#000000;stroke-width:0.625" />
<path d="M46.625,48.06L46.625,700.75" style="fill:none;stroke:#000000;stroke-width:0.625" />
<path d="M53.882,49.915L80.885,70.706L107.89,211.39L134.89,244.27L161.89,280.15L188.9,228.17L215.9,290.02L242.9,293.05L269.91,455.24L296.91,300.27L323.91,423.86L350.92,405.89L377.92,304.81L404.92,373.64L431.93,288.36L458.93,331.12L485.93,323.78L512.93,367.2L539.94,291.96L566.94,352.79L593.94,368.87L620.95,325.01L647.95,405.21L674.95,362.44L701.96,336.48L728.96,375.89L755.96,438.32L782.97,328.7L809.97,423.7L836.97,356.57L863.98,356.25L890.98,417.92L917.98,372.76L944.98,381.71L971.99,310.07L998.99,431.62" style="fill:none;stroke:#F15A60;stroke-width:1.875" />
<path d="M53.882,48.06L80.885,166.76L107.89,303.39L134.89,329.47L161.89,329.78L188.9,360.87L215.9,421.4L242.9,402.39L269.91,472.53L296.91,411.58L323.91,396.04L350.92,361.15L377.92,428.94L404.92,405.9L431.93,392.74L458.93,436.67L485.93,479.46L512.93,506.97L539.94,466.73L566.94,453.52L593.94,437.48L620.95,528.95L647.95,396.86L674.95,469.53L701.96,577.34L728.96,557.48L755.96,413.4L782.97,575.05L809.97,609.15L836.97,638.03L863.98,520.2L890.98,530.23L917.98,642.28L944.98,358.22L971.99,580.83L998.99,554.15L1026,634.94L1053,614.13L1080,700.75" style="fill:none;stroke:#7AC36A;stroke-width:1.875;stroke-dasharray:7.5,2.5" />
<path d="M1055,693.4L1080,693.4" style="fill:none;stroke:#F15A60;stroke-width:1.875" />
<text x="882.43" y="-686.35" transform="scale(1, -1)"
	style="font-family:Helvetica;font-weight:normal;font-style:normal;font-size:12pt">etcd v3 (no compression)</text>
<path d="M1055,678.7L1080,678.7" style="fill:none;stroke:#7AC36A;stroke-width:1.875;stroke-dasharray:7.5,2.5" />
<text x="939.94" y="-671.65" transform="scale(1, -1)"
	style="font-family:Helvetica;font-weight:normal;font-style:normal;font-size:12pt">etcd v3 (snappy)</text>
</g>
</svg>
