<?xml version="1.0"?>
<!-- Generated by SVGo and Plotinum VG -->
<svg width="12in" height="8in"
	xmlns="http://www.w3.org/2000/svg"
	xmlns:xlink="http://www.w3.org/1999/xlink">
<g transform="scale(1, -1) translate(0, -720)">
<path d="M0,0L1080,0L1080,720L0,720Z" style="fill:#FFFFFF" />
<text x="241.82" y="-705.6" transform="scale(1, -1)"
	style="font-family:Helvetica;font-weight:normal;font-style:normal;font-size:12pt">Write 1M keys, 1000-client, 100-conn, 48-byte key, 500-byte value (etcd v3), Memory(MB)</text>
<text x="544.98" y="-4.8486" transform="scale(1, -1)"
	style="font-family:Helvetica;font-weight:normal;font-style:normal;font-size:12pt">Second</text>
<text x="57.358" y="-19.498" transform="scale(1, -1)"
	style="font-family:Helvetica;font-weight:normal;font-style:normal;font-size:10pt">0</text>
<text x="329.33" y="-19.498" transform="scale(1, -1)"
	style="font-family:Helvetica;font-weight:normal;font-style:normal;font-size:10pt">10</text>
<text x="604.78" y="-19.498" transform="scale(1, -1)"
	style="font-family:Helvetica;font-weight:normal;font-style:normal;font-size:10pt">20</text>
<text x="880.23" y="-19.498" transform="scale(1, -1)"
	style="font-family:Helvetica;font-weight:normal;font-style:normal;font-size:10pt">30</text>
<path d="M60.834,31.498L60.834,41.498" style="fill:none;stroke:#000000;stroke-width:0.625" />
<path d="M336.28,31.498L336.28,41.498" style="fill:none;stroke:#000000;stroke-width:0.625" />
<path d="M611.73,31.498L611.73,41.498" style="fill:none;stroke:#000000;stroke-width:0.625" />
<path d="M887.18,31.498L887.18,41.498" style="fill:none;stroke:#000000;stroke-width:0.625" />
<path d="M198.56,36.498L198.56,41.498" style="fill:none;stroke:#000000;stroke-width:0.625" />
<path d="M474.01,36.498L474.01,41.498" style="fill:none;stroke:#000000;stroke-width:0.625" />
<path d="M749.46,36.498L749.46,41.498" style="fill:none;stroke:#000000;stroke-width:0.625" />
<path d="M1024.9,36.498L1024.9,41.498" style="fill:none;stroke:#000000;stroke-width:0.625" />
<path d="M60.834,41.498L1080,41.498" style="fill:none;stroke:#000000;stroke-width:0.625" />
<g transform="rotate(90)">
<text x="331.08" y="14.399" transform="scale(1, -1)"
	style="font-family:Helvetica;font-weight:normal;font-style:normal;font-size:12pt">Memory(MB)</text>
</g>
<text x="19.248" y="-147.58" transform="scale(1, -1)"
	style="font-family:Helvetica;font-weight:normal;font-style:normal;font-size:10pt">100</text>
<text x="19.248" y="-288.24" transform="scale(1, -1)"
	style="font-family:Helvetica;font-weight:normal;font-style:normal;font-size:10pt">200</text>
<text x="19.248" y="-428.9" transform="scale(1, -1)"
	style="font-family:Helvetica;font-weight:normal;font-style:normal;font-size:10pt">300</text>
<text x="19.248" y="-569.56" transform="scale(1, -1)"
	style="font-family:Helvetica;font-weight:normal;font-style:normal;font-size:10pt">400</text>
<path d="M43.577,153.46L53.577,153.46" style="fill:none;stroke:#000000;stroke-width:0.625" />
<path d="M43.577,294.12L53.577,294.12" style="fill:none;stroke:#000000;stroke-width:0.625" />
<path d="M43.577,434.78L53.577,434.78" style="fill:none;stroke:#000000;stroke-width:0.625" />
<path d="M43.577,575.44L53.577,575.44" style="fill:none;stroke:#000000;stroke-width:0.625" />
<path d="M48.577,83.127L53.577,83.127" style="fill:none;stroke:#000000;stroke-width:0.625" />
<path d="M48.577,223.79L53.577,223.79" style="fill:none;stroke:#000000;stroke-width:0.625" />
<path d="M48.577,364.45L53.577,364.45" style="fill:none;stroke:#000000;stroke-width:0.625" />
<path d="M48.577,505.11L53.577,505.11" style="fill:none;stroke:#000000;stroke-width:0.625" />
<path d="M48.577,645.77L53.577,645.77" style="fill:none;stroke:#000000;stroke-width:0.625" />
<path d="M53.577,48.06L53.577,700.75" style="fill:none;stroke:#000000;stroke-width:0.625" />
<path d="M60.834,48.06L88.379,141.56L115.92,163.19L143.47,175.36L171.01,201.94L198.56,216.16L226.1,237.33L253.65,256.56L281.19,268.12L308.74,281.64L336.28,303.84L363.83,319.38L391.37,337.69L418.92,349.58L446.46,366.35L474.01,384L501.55,402.78L529.1,414.73L556.64,431.43L584.19,443.82L611.73,463.4L639.28,486.95L666.82,500.31L694.37,510.62L721.91,532.4L749.46,553.45L777,563.5L804.55,574.42L832.09,597.89L859.64,617.71L887.18,625.67L914.73,641.18L942.27,660.73L969.82,681.19L997.36,695.24" style="fill:none;stroke:#F15A60;stroke-width:1.875" />
<path d="M60.834,59.735L88.379,139.21L115.92,153.94L143.47,170.97L171.01,190.17L198.56,202.72L226.1,219.85L253.65,239.78L281.19,256.43L308.74,275.52L336.28,288.45L363.83,304.46L391.37,321.94L418.92,340.14L446.46,354.59L474.01,362.97L501.55,380.96L529.1,397.36L556.64,421.78L584.19,432.12L611.73,450.71L639.28,463.75L666.82,476.2L694.37,494.9L721.91,507.43L749.46,524.28L777,542.58L804.55,557.74L832.09,572.27L859.64,585.47L887.18,597.65L914.73,612.09L942.27,624.67L969.82,645.09L997.36,657.79L1024.9,665.74L1052.5,687.68L1080,700.75" style="fill:none;stroke:#7AC36A;stroke-width:1.875;stroke-dasharray:7.5,2.5" />
<path d="M1055,693.4L1080,693.4" style="fill:none;stroke:#F15A60;stroke-width:1.875" />
<text x="882.43" y="-686.35" transform="scale(1, -1)"
	style="font-family:Helvetica;font-weight:normal;font-style:normal;font-size:12pt">etcd v3 (no compression)</text>
<path d="M1055,678.7L1080,678.7" style="fill:none;stroke:#7AC36A;stroke-width:1.875;stroke-dasharray:7.5,2.5" />
<text x="939.94" y="-671.65" transform="scale(1, -1)"
	style="font-family:Helvetica;font-weight:normal;font-style:normal;font-size:12pt">etcd v3 (snappy)</text>
</g>
</svg>
