<?xml version="1.0"?>
<!-- Generated by SVGo and Plotinum VG -->
<svg width="12in" height="8in"
	xmlns="http://www.w3.org/2000/svg"
	xmlns:xlink="http://www.w3.org/1999/xlink">
<g transform="scale(1, -1) translate(0, -720)">
<path d="M0,0L1080,0L1080,720L0,720Z" style="fill:#FFFFFF" />
<text x="246.93" y="-705.6" transform="scale(1, -1)"
	style="font-family:Helvetica;font-weight:normal;font-style:normal;font-size:12pt">Write 1M keys, 1000-client, 100-conn, 48-byte key, 500-byte value (etcd v3), Throughput</text>
<text x="557.32" y="-4.8486" transform="scale(1, -1)"
	style="font-family:Helvetica;font-weight:normal;font-style:normal;font-size:12pt">Second</text>
<text x="82.034" y="-19.498" transform="scale(1, -1)"
	style="font-family:Helvetica;font-weight:normal;font-style:normal;font-size:10pt">0</text>
<text x="340.27" y="-19.498" transform="scale(1, -1)"
	style="font-family:Helvetica;font-weight:normal;font-style:normal;font-size:10pt">10</text>
<text x="601.97" y="-19.498" transform="scale(1, -1)"
	style="font-family:Helvetica;font-weight:normal;font-style:normal;font-size:10pt">20</text>
<text x="863.68" y="-19.498" transform="scale(1, -1)"
	style="font-family:Helvetica;font-weight:normal;font-style:normal;font-size:10pt">30</text>
<path d="M85.51,31.498L85.51,41.498" style="fill:none;stroke:#000000;stroke-width:0.625" />
<path d="M347.22,31.498L347.22,41.498" style="fill:none;stroke:#000000;stroke-width:0.625" />
<path d="M608.93,31.498L608.93,41.498" style="fill:none;stroke:#000000;stroke-width:0.625" />
<path d="M870.63,31.498L870.63,41.498" style="fill:none;stroke:#000000;stroke-width:0.625" />
<path d="M216.36,36.498L216.36,41.498" style="fill:none;stroke:#000000;stroke-width:0.625" />
<path d="M478.07,36.498L478.07,41.498" style="fill:none;stroke:#000000;stroke-width:0.625" />
<path d="M739.78,36.498L739.78,41.498" style="fill:none;stroke:#000000;stroke-width:0.625" />
<path d="M1001.5,36.498L1001.5,41.498" style="fill:none;stroke:#000000;stroke-width:0.625" />
<path d="M85.51,41.498L1080,41.498" style="fill:none;stroke:#000000;stroke-width:0.625" />
<g transform="rotate(90)">
<text x="336.05" y="14.399" transform="scale(1, -1)"
	style="font-family:Helvetica;font-weight:normal;font-style:normal;font-size:12pt">Throughput</text>
</g>
<text x="29.673" y="-49.363" transform="scale(1, -1)"
	style="font-family:Helvetica;font-weight:normal;font-style:normal;font-size:10pt">2e+04</text>
<text x="19.248" y="-255.89" transform="scale(1, -1)"
	style="font-family:Helvetica;font-weight:normal;font-style:normal;font-size:10pt">2.4e+04</text>
<text x="19.248" y="-462.43" transform="scale(1, -1)"
	style="font-family:Helvetica;font-weight:normal;font-style:normal;font-size:10pt">2.8e+04</text>
<text x="19.248" y="-668.96" transform="scale(1, -1)"
	style="font-family:Helvetica;font-weight:normal;font-style:normal;font-size:10pt">3.2e+04</text>
<path d="M68.253,55.237L78.253,55.237" style="fill:none;stroke:#000000;stroke-width:0.625" />
<path d="M68.253,261.77L78.253,261.77" style="fill:none;stroke:#000000;stroke-width:0.625" />
<path d="M68.253,468.3L78.253,468.3" style="fill:none;stroke:#000000;stroke-width:0.625" />
<path d="M68.253,674.83L78.253,674.83" style="fill:none;stroke:#000000;stroke-width:0.625" />
<path d="M73.253,158.5L78.253,158.5" style="fill:none;stroke:#000000;stroke-width:0.625" />
<path d="M73.253,365.03L78.253,365.03" style="fill:none;stroke:#000000;stroke-width:0.625" />
<path d="M73.253,571.57L78.253,571.57" style="fill:none;stroke:#000000;stroke-width:0.625" />
<path d="M78.253,48.06L78.253,700.75" style="fill:none;stroke:#000000;stroke-width:0.625" />
<path d="M85.51,48.06L111.68,700.75L137.85,552.62L164.02,516.99L190.19,492.57L216.36,522.77L242.53,479.61L268.71,477.23L294.88,340.25L321.05,439.08L347.22,386.57L373.39,370.25L399.56,429.99L425.73,424.46L451.9,464.48L478.07,434.74L504.24,462.88L530.41,400.51L556.58,478.94L582.76,377.89L608.93,413.21L635.1,472.84L661.27,387.5L687.44,400.76L713.61,422.04L739.78,380.06L765.95,396.32L792.12,421.31L818.29,388.27L844.46,383.78L870.63,392.76L896.8,398.34L922.98,391.21L949.15,430.56L975.32,405.57L1001.5,389.3" style="fill:none;stroke:#F15A60;stroke-width:1.875" />
<path d="M85.51,550.5L111.68,535.89L137.85,447.54L164.02,406.86L190.19,439.59L216.36,391.99L242.53,355.33L268.71,340.1L294.88,324.97L321.05,362.56L347.22,336.12L373.39,407.53L399.56,345.83L425.73,328.53L451.9,385.79L478.07,315.78L504.24,344.54L530.41,291.04L556.58,308.75L582.76,329.1L608.93,336.28L635.1,277.16L661.27,325.54L687.44,348.2L713.61,196.09L739.78,303.44L765.95,357.13L792.12,236.73L818.29,186.8L844.46,245.5L870.63,276.33L896.8,266.31L922.98,213.54L949.15,336.64L975.32,290.89L1001.5,193.67L1027.7,264.71L1053.8,149.78L1080,159.79" style="fill:none;stroke:#7AC36A;stroke-width:1.875;stroke-dasharray:7.5,2.5" />
<path d="M1055,693.4L1080,693.4" style="fill:none;stroke:#F15A60;stroke-width:1.875" />
<text x="882.43" y="-686.35" transform="scale(1, -1)"
	style="font-family:Helvetica;font-weight:normal;font-style:normal;font-size:12pt">etcd v3 (no compression)</text>
<path d="M1055,678.7L1080,678.7" style="fill:none;stroke:#7AC36A;stroke-width:1.875;stroke-dasharray:7.5,2.5" />
<text x="939.94" y="-671.65" transform="scale(1, -1)"
	style="font-family:Helvetica;font-weight:normal;font-style:normal;font-size:12pt">etcd v3 (snappy)</text>
</g>
</svg>
