<?xml version="1.0"?>
<!-- Generated by SVGo and Plotinum VG -->
<svg width="12in" height="8in"
	xmlns="http://www.w3.org/2000/svg"
	xmlns:xlink="http://www.w3.org/1999/xlink">
<g transform="scale(1, -1) translate(0, -720)">
<path d="M0,0L1080,0L1080,720L0,720Z" style="fill:#FFFFFF" />
<text x="241.82" y="-705.6" transform="scale(1, -1)"
	style="font-family:Helvetica;font-weight:normal;font-style:normal;font-size:12pt">Write 1M keys, 1000-client, 100-conn, 48-byte key, 800-byte value (etcd v3), Memory(MB)</text>
<text x="544.98" y="-4.8486" transform="scale(1, -1)"
	style="font-family:Helvetica;font-weight:normal;font-style:normal;font-size:12pt">Second</text>
<text x="57.358" y="-19.498" transform="scale(1, -1)"
	style="font-family:Helvetica;font-weight:normal;font-style:normal;font-size:10pt">0</text>
<text x="357.21" y="-19.498" transform="scale(1, -1)"
	style="font-family:Helvetica;font-weight:normal;font-style:normal;font-size:10pt">50</text>
<text x="657.05" y="-19.498" transform="scale(1, -1)"
	style="font-family:Helvetica;font-weight:normal;font-style:normal;font-size:10pt">100</text>
<text x="960.38" y="-19.498" transform="scale(1, -1)"
	style="font-family:Helvetica;font-weight:normal;font-style:normal;font-size:10pt">150</text>
<path d="M60.834,31.498L60.834,41.498" style="fill:none;stroke:#000000;stroke-width:0.625" />
<path d="M364.16,31.498L364.16,41.498" style="fill:none;stroke:#000000;stroke-width:0.625" />
<path d="M667.48,31.498L667.48,41.498" style="fill:none;stroke:#000000;stroke-width:0.625" />
<path d="M970.8,31.498L970.8,41.498" style="fill:none;stroke:#000000;stroke-width:0.625" />
<path d="M121.5,36.498L121.5,41.498" style="fill:none;stroke:#000000;stroke-width:0.625" />
<path d="M182.16,36.498L182.16,41.498" style="fill:none;stroke:#000000;stroke-width:0.625" />
<path d="M242.83,36.498L242.83,41.498" style="fill:none;stroke:#000000;stroke-width:0.625" />
<path d="M303.49,36.498L303.49,41.498" style="fill:none;stroke:#000000;stroke-width:0.625" />
<path d="M424.82,36.498L424.82,41.498" style="fill:none;stroke:#000000;stroke-width:0.625" />
<path d="M485.49,36.498L485.49,41.498" style="fill:none;stroke:#000000;stroke-width:0.625" />
<path d="M546.15,36.498L546.15,41.498" style="fill:none;stroke:#000000;stroke-width:0.625" />
<path d="M606.82,36.498L606.82,41.498" style="fill:none;stroke:#000000;stroke-width:0.625" />
<path d="M728.14,36.498L728.14,41.498" style="fill:none;stroke:#000000;stroke-width:0.625" />
<path d="M788.81,36.498L788.81,41.498" style="fill:none;stroke:#000000;stroke-width:0.625" />
<path d="M849.47,36.498L849.47,41.498" style="fill:none;stroke:#000000;stroke-width:0.625" />
<path d="M910.14,36.498L910.14,41.498" style="fill:none;stroke:#000000;stroke-width:0.625" />
<path d="M1031.5,36.498L1031.5,41.498" style="fill:none;stroke:#000000;stroke-width:0.625" />
<path d="M60.834,41.498L1080,41.498" style="fill:none;stroke:#000000;stroke-width:0.625" />
<g transform="rotate(90)">
<text x="331.08" y="14.399" transform="scale(1, -1)"
	style="font-family:Helvetica;font-weight:normal;font-style:normal;font-size:12pt">Memory(MB)</text>
</g>
<text x="19.248" y="-132.5" transform="scale(1, -1)"
	style="font-family:Helvetica;font-weight:normal;font-style:normal;font-size:10pt">100</text>
<text x="19.248" y="-250.55" transform="scale(1, -1)"
	style="font-family:Helvetica;font-weight:normal;font-style:normal;font-size:10pt">200</text>
<text x="19.248" y="-368.6" transform="scale(1, -1)"
	style="font-family:Helvetica;font-weight:normal;font-style:normal;font-size:10pt">300</text>
<text x="19.248" y="-486.64" transform="scale(1, -1)"
	style="font-family:Helvetica;font-weight:normal;font-style:normal;font-size:10pt">400</text>
<text x="19.248" y="-604.69" transform="scale(1, -1)"
	style="font-family:Helvetica;font-weight:normal;font-style:normal;font-size:10pt">500</text>
<path d="M43.577,138.38L53.577,138.38" style="fill:none;stroke:#000000;stroke-width:0.625" />
<path d="M43.577,256.42L53.577,256.42" style="fill:none;stroke:#000000;stroke-width:0.625" />
<path d="M43.577,374.47L53.577,374.47" style="fill:none;stroke:#000000;stroke-width:0.625" />
<path d="M43.577,492.52L53.577,492.52" style="fill:none;stroke:#000000;stroke-width:0.625" />
<path d="M43.577,610.56L53.577,610.56" style="fill:none;stroke:#000000;stroke-width:0.625" />
<path d="M48.577,79.354L53.577,79.354" style="fill:none;stroke:#000000;stroke-width:0.625" />
<path d="M48.577,197.4L53.577,197.4" style="fill:none;stroke:#000000;stroke-width:0.625" />
<path d="M48.577,315.45L53.577,315.45" style="fill:none;stroke:#000000;stroke-width:0.625" />
<path d="M48.577,433.49L53.577,433.49" style="fill:none;stroke:#000000;stroke-width:0.625" />
<path d="M48.577,551.54L53.577,551.54" style="fill:none;stroke:#000000;stroke-width:0.625" />
<path d="M48.577,669.59L53.577,669.59" style="fill:none;stroke:#000000;stroke-width:0.625" />
<path d="M53.577,48.06L53.577,700.75" style="fill:none;stroke:#000000;stroke-width:0.625" />
<path d="M60.834,48.06L66.9,143.19L72.967,165.06L79.033,175.33L85.1,184.95L91.166,201.31L97.233,217.55L103.3,225.79L109.37,237.94L115.43,249.8L121.5,264.01L127.56,276.95L133.63,288.31L139.7,303.84L145.76,319.18L151.83,322.29L157.9,337.7L163.96,351.74L170.03,362.28L176.1,378.02L182.16,389.85L188.23,403.91L194.3,414.7L200.36,424.69L206.43,435.93L212.5,448.06L218.56,462.96L224.63,478L230.69,492.01L236.76,508.11L242.83,517.7L248.89,526.94L254.96,542.62L261.03,552.27L267.09,569.64L273.16,579.28L279.23,582.59L285.29,582.86L291.36,589.29L297.43,592.29L303.49,594.81L309.56,600L315.63,604.32L321.69,611.9L327.76,619.96L333.82,621.65L339.89,623.41L345.96,630.6" style="fill:none;stroke:#F15A60;stroke-width:1.875" />
<path d="M60.834,89.837L66.9,106.06L72.967,112.48L79.033,131.11L85.1,132.29L91.166,135.54L97.233,136.84L103.3,144.22L109.37,147.72L115.43,149.19L121.5,153.92L127.56,154.93L133.63,160.57L139.7,163.29L145.76,164.67L151.83,173.23L157.9,174.15L163.96,180.38L170.03,181.82L176.1,185.03L182.16,190.25L188.23,191.43L194.3,198.45L200.36,199.47L206.43,203.87L212.5,207.61L218.56,208.75L224.63,212.66L230.69,217.17L236.76,219.03L242.83,223.15L248.89,225.41L254.96,234.27L261.03,234.82L267.09,238.34L273.16,241.09L279.23,247.11L285.29,250.51L291.36,252.66L297.43,257.97L303.49,260.49L309.56,266.26L315.63,269.56L321.69,270.74L327.76,275.74L333.82,280.8L339.89,285.15L345.96,287.2L352.02,288.54L358.09,294.27L364.16,296.18L370.22,300.18L376.29,300.8L382.36,306.88L388.42,311.94L394.49,313.38L400.56,318.62L406.62,320.35L412.69,327.25L418.76,328.43L424.82,333.2L430.89,335.06L436.95,335.19L443.02,342.55L449.09,345.67L455.15,351.62L461.22,356.1L467.29,357.91L473.35,358.79L479.42,361.47L485.49,367.45L491.55,370.1L497.62,373.5L503.69,380.68L509.75,381.97L515.82,389.65L521.89,390.67L527.95,394.54L534.02,398.22L540.08,399.18L546.15,402.77L552.22,405.28L558.28,406.62L564.35,411.6L570.42,414.88L576.48,421.38L582.55,424.59L588.62,428.35L594.68,432L600.75,433.81L606.82,438.68L612.88,439.29L618.95,443.8L625.02,445.52L631.08,451.47L637.15,455.63L643.21,462.79L649.28,463.37L655.35,463.37L661.41,471.67L667.48,472.27L673.55,480.34L679.61,483.46L685.68,483.46L691.75,492.62L697.81,493.53L703.88,494.63L709.95,497.79L716.01,507.12L722.08,509.41L728.14,510.26L734.21,514.72L740.28,515.76L746.34,518.98L752.41,519.29L758.48,519.59L764.54,529.87L770.61,533.7L776.68,534.58L782.74,535.18L788.81,539.03L794.88,543.76L800.94,547.63L807.01,548.51L813.08,558.61L819.14,558.61L825.21,564.88L831.27,565.71L837.34,565.84L843.41,576.22L849.47,578.41L855.54,582.28L861.61,584.1L867.67,584.97L873.74,585.55L879.81,587.13L885.87,599.2L891.94,600.22L898.01,602.75L904.07,603.98L910.14,604.24L916.21,611.65L922.27,612.08L928.34,619.83L934.4,620.3L940.47,630.03L946.54,632.36L952.6,633.21L958.67,641.69L964.74,643.58L970.8,644.09L976.87,644.83L982.94,651.96L989,652.88L995.07,655.84L1001.1,659.41L1007.2,665.94L1013.3,669.23L1019.3,671.26L1025.4,680.09L1031.5,681.39L1037.5,681.39L1043.6,684.01L1049.7,685.69L1055.7,689.77L1061.8,695.94L1067.9,697.18L1073.9,699.32L1080,700.75" style="fill:none;stroke:#7AC36A;stroke-width:1.875;stroke-dasharray:7.5,2.5" />
<path d="M1055,693.4L1080,693.4" style="fill:none;stroke:#F15A60;stroke-width:1.875" />
<text x="882.43" y="-686.35" transform="scale(1, -1)"
	style="font-family:Helvetica;font-weight:normal;font-style:normal;font-size:12pt">etcd v3 (no compression)</text>
<path d="M1055,678.7L1080,678.7" style="fill:none;stroke:#7AC36A;stroke-width:1.875;stroke-dasharray:7.5,2.5" />
<text x="939.94" y="-671.65" transform="scale(1, -1)"
	style="font-family:Helvetica;font-weight:normal;font-style:normal;font-size:12pt">etcd v3 (snappy)</text>
</g>
</svg>
