<?xml version="1.0"?>
<!-- Generated by SVGo and Plotinum VG -->
<svg width="12in" height="8in"
	xmlns="http://www.w3.org/2000/svg"
	xmlns:xlink="http://www.w3.org/1999/xlink">
<g transform="scale(1, -1) translate(0, -720)">
<path d="M0,0L1080,0L1080,720L0,720Z" style="fill:#FFFFFF" />
<text x="216.79" y="-705.6" transform="scale(1, -1)"
	style="font-family:Helvetica;font-weight:normal;font-style:normal;font-size:12pt">Write 1M keys, 1000-client, 100-conn, 48-byte key, 800-byte value (etcd v3), Latency(millisecond)</text>
<text x="544.98" y="-4.8486" transform="scale(1, -1)"
	style="font-family:Helvetica;font-weight:normal;font-style:normal;font-size:12pt">Second</text>
<text x="57.358" y="-19.498" transform="scale(1, -1)"
	style="font-family:Helvetica;font-weight:normal;font-style:normal;font-size:10pt">0</text>
<text x="355.41" y="-19.498" transform="scale(1, -1)"
	style="font-family:Helvetica;font-weight:normal;font-style:normal;font-size:10pt">50</text>
<text x="653.46" y="-19.498" transform="scale(1, -1)"
	style="font-family:Helvetica;font-weight:normal;font-style:normal;font-size:10pt">100</text>
<text x="954.99" y="-19.498" transform="scale(1, -1)"
	style="font-family:Helvetica;font-weight:normal;font-style:normal;font-size:10pt">150</text>
<path d="M60.834,31.498L60.834,41.498" style="fill:none;stroke:#000000;stroke-width:0.625" />
<path d="M362.36,31.498L362.36,41.498" style="fill:none;stroke:#000000;stroke-width:0.625" />
<path d="M663.89,31.498L663.89,41.498" style="fill:none;stroke:#000000;stroke-width:0.625" />
<path d="M965.42,31.498L965.42,41.498" style="fill:none;stroke:#000000;stroke-width:0.625" />
<path d="M121.14,36.498L121.14,41.498" style="fill:none;stroke:#000000;stroke-width:0.625" />
<path d="M181.45,36.498L181.45,41.498" style="fill:none;stroke:#000000;stroke-width:0.625" />
<path d="M241.75,36.498L241.75,41.498" style="fill:none;stroke:#000000;stroke-width:0.625" />
<path d="M302.06,36.498L302.06,41.498" style="fill:none;stroke:#000000;stroke-width:0.625" />
<path d="M422.67,36.498L422.67,41.498" style="fill:none;stroke:#000000;stroke-width:0.625" />
<path d="M482.97,36.498L482.97,41.498" style="fill:none;stroke:#000000;stroke-width:0.625" />
<path d="M543.28,36.498L543.28,41.498" style="fill:none;stroke:#000000;stroke-width:0.625" />
<path d="M603.59,36.498L603.59,41.498" style="fill:none;stroke:#000000;stroke-width:0.625" />
<path d="M724.2,36.498L724.2,41.498" style="fill:none;stroke:#000000;stroke-width:0.625" />
<path d="M784.5,36.498L784.5,41.498" style="fill:none;stroke:#000000;stroke-width:0.625" />
<path d="M844.81,36.498L844.81,41.498" style="fill:none;stroke:#000000;stroke-width:0.625" />
<path d="M905.11,36.498L905.11,41.498" style="fill:none;stroke:#000000;stroke-width:0.625" />
<path d="M1025.7,36.498L1025.7,41.498" style="fill:none;stroke:#000000;stroke-width:0.625" />
<path d="M60.834,41.498L1080,41.498" style="fill:none;stroke:#000000;stroke-width:0.625" />
<g transform="rotate(90)">
<text x="306.05" y="14.399" transform="scale(1, -1)"
	style="font-family:Helvetica;font-weight:normal;font-style:normal;font-size:12pt">Latency(millisecond)</text>
</g>
<text x="26.2" y="-125.05" transform="scale(1, -1)"
	style="font-family:Helvetica;font-weight:normal;font-style:normal;font-size:10pt">50</text>
<text x="19.248" y="-337.19" transform="scale(1, -1)"
	style="font-family:Helvetica;font-weight:normal;font-style:normal;font-size:10pt">100</text>
<text x="19.248" y="-549.34" transform="scale(1, -1)"
	style="font-family:Helvetica;font-weight:normal;font-style:normal;font-size:10pt">150</text>
<path d="M43.577,130.92L53.577,130.92" style="fill:none;stroke:#000000;stroke-width:0.625" />
<path d="M43.577,343.07L53.577,343.07" style="fill:none;stroke:#000000;stroke-width:0.625" />
<path d="M43.577,555.22L53.577,555.22" style="fill:none;stroke:#000000;stroke-width:0.625" />
<path d="M48.577,88.491L53.577,88.491" style="fill:none;stroke:#000000;stroke-width:0.625" />
<path d="M48.577,173.35L53.577,173.35" style="fill:none;stroke:#000000;stroke-width:0.625" />
<path d="M48.577,215.78L53.577,215.78" style="fill:none;stroke:#000000;stroke-width:0.625" />
<path d="M48.577,258.21L53.577,258.21" style="fill:none;stroke:#000000;stroke-width:0.625" />
<path d="M48.577,300.64L53.577,300.64" style="fill:none;stroke:#000000;stroke-width:0.625" />
<path d="M48.577,385.5L53.577,385.5" style="fill:none;stroke:#000000;stroke-width:0.625" />
<path d="M48.577,427.93L53.577,427.93" style="fill:none;stroke:#000000;stroke-width:0.625" />
<path d="M48.577,470.36L53.577,470.36" style="fill:none;stroke:#000000;stroke-width:0.625" />
<path d="M48.577,512.79L53.577,512.79" style="fill:none;stroke:#000000;stroke-width:0.625" />
<path d="M48.577,597.65L53.577,597.65" style="fill:none;stroke:#000000;stroke-width:0.625" />
<path d="M48.577,640.08L53.577,640.08" style="fill:none;stroke:#000000;stroke-width:0.625" />
<path d="M48.577,682.5L53.577,682.5" style="fill:none;stroke:#000000;stroke-width:0.625" />
<path d="M53.577,48.06L53.577,700.75" style="fill:none;stroke:#000000;stroke-width:0.625" />
<path d="M60.834,48.06L66.864,52.293L72.895,55.778L78.925,76.84L84.956,76.275L90.987,88.15L97.017,87.36L103.05,92.153L109.08,84.478L115.11,93.382L121.14,85.865L127.17,99.13L133.2,97.862L139.23,83.139L145.26,88.093L151.29,85.292L157.32,94.841L163.35,101.57L169.38,106.25L175.41,103.64L181.45,104.02L187.48,108.72L193.51,113.91L199.54,95.583L205.57,88.475L211.6,100.2L217.63,89.543L223.66,93.608L229.69,94.881L235.72,92.315L241.75,95.612L247.78,96.695L253.81,94.389L259.84,93.45L265.87,173.04L271.9,303.41L277.93,264.27L283.96,266.29L290,285.9L296.03,289.65L302.06,259.92L308.09,304.88L314.12,286.8L320.15,311.8L326.18,295.72L332.21,306.41L338.24,274.06L344.27,305.89L350.3,291.75" style="fill:none;stroke:#F15A60;stroke-width:1.875" />
<path d="M60.834,700.75L66.864,625.69L72.895,629L78.925,624.39L84.956,625.14L90.987,624.61L97.017,625.75L103.05,625.86L109.08,627.52L115.11,627.26L121.14,625.24L127.17,628.78L133.2,630.14L139.23,627.48L145.26,625.6L151.29,627.08L157.32,625.44L163.35,630.68L169.38,628.89L175.41,626.65L181.45,631.24L187.48,628.9L193.51,631.33L199.54,629.25L205.57,629.78L211.6,631.86L217.63,630.94L223.66,636.57L229.69,632.3L235.72,635.84L241.75,634.34L247.78,636.5L253.81,636.87L259.84,633.96L265.87,634.24L271.9,631.75L277.93,630.02L283.96,628.9L290,637.72L296.03,634.44L302.06,646.92L308.09,638.99L314.12,640.7L320.15,634.55L326.18,650.54L332.21,643.55L338.24,643.31L344.27,634.88L350.3,650.24L356.33,646.39L362.36,636.66L368.39,639.62L374.42,635.51L380.45,635.17L386.48,637.98L392.52,632.69L398.55,637.56L404.58,636.94L410.61,641.75L416.64,645.4L422.67,637.65L428.7,633.5L434.73,645.57L440.76,643.33L446.79,644.52L452.82,650.47L458.85,638.42L464.88,641.72L470.91,630.48L476.94,651.17L482.97,631.48L489,633.96L495.03,642.33L501.07,635.63L507.1,635.65L513.13,630.07L519.16,639.14L525.19,633.78L531.22,646.2L537.25,639.23L543.28,647.7L549.31,643L555.34,652.65L561.37,652.39L567.4,638.86L573.43,639.96L579.46,646.26L585.49,647.12L591.52,644.88L597.55,646.52L603.59,644.54L609.62,643.07L615.65,640.56L621.68,644.25L627.71,636.63L633.74,636.35L639.77,646.16L645.8,640.5L651.83,647.05L657.86,642.4L663.89,638.91L669.92,666.55L675.95,665.83L681.98,648.42L688.01,643.38L694.04,655.51L700.07,655.31L706.1,641.41L712.14,649.11L718.17,645.56L724.2,645.62L730.23,650.86L736.26,646.68L742.29,631.71L748.32,641.22L754.35,650.57L760.38,642.31L766.41,636.64L772.44,653.21L778.47,634.55L784.5,646.87L790.53,655.47L796.56,650.33L802.59,639.63L808.62,638.62L814.65,648.39L820.69,641.01L826.72,648.07L832.75,627.85L838.78,665.61L844.81,646.77L850.84,660.82L856.87,630.15L862.9,641.82L868.93,675.67L874.96,651L880.99,640.5L887.02,635.47L893.05,652.35L899.08,634.92L905.11,641.6L911.14,678.91L917.17,656.79L923.21,652.57L929.24,649.15L935.27,680.27L941.3,650.47L947.33,642.77L953.36,664.8L959.39,659.63L965.42,646.86L971.45,657.08L977.48,652.36L983.51,649.5L989.54,645.11L995.57,655.03L1001.6,634.91L1007.6,667.12L1013.7,684.59L1019.7,646.72L1025.7,661.53L1031.8,674.89L1037.8,632.51L1043.8,683.48L1049.8,642.89L1055.9,683.61L1061.9,663.77L1067.9,649.93L1074,678.43L1080,656.1" style="fill:none;stroke:#7AC36A;stroke-width:1.875;stroke-dasharray:7.5,2.5" />
<path d="M1055,693.4L1080,693.4" style="fill:none;stroke:#F15A60;stroke-width:1.875" />
<text x="882.43" y="-686.35" transform="scale(1, -1)"
	style="font-family:Helvetica;font-weight:normal;font-style:normal;font-size:12pt">etcd v3 (no compression)</text>
<path d="M1055,678.7L1080,678.7" style="fill:none;stroke:#7AC36A;stroke-width:1.875;stroke-dasharray:7.5,2.5" />
<text x="939.94" y="-671.65" transform="scale(1, -1)"
	style="font-family:Helvetica;font-weight:normal;font-style:normal;font-size:12pt">etcd v3 (snappy)</text>
</g>
</svg>
