<?xml version="1.0"?>
<!-- Generated by SVGo and Plotinum VG -->
<svg width="12in" height="8in"
	xmlns="http://www.w3.org/2000/svg"
	xmlns:xlink="http://www.w3.org/1999/xlink">
<g transform="scale(1, -1) translate(0, -720)">
<path d="M0,0L1080,0L1080,720L0,720Z" style="fill:#FFFFFF" />
<text x="246.93" y="-705.6" transform="scale(1, -1)"
	style="font-family:Helvetica;font-weight:normal;font-style:normal;font-size:12pt">Write 1M keys, 1000-client, 100-conn, 48-byte key, 800-byte value (etcd v3), Throughput</text>
<text x="557.32" y="-4.8486" transform="scale(1, -1)"
	style="font-family:Helvetica;font-weight:normal;font-style:normal;font-size:12pt">Second</text>
<text x="82.034" y="-19.498" transform="scale(1, -1)"
	style="font-family:Helvetica;font-weight:normal;font-style:normal;font-size:10pt">0</text>
<text x="372.79" y="-19.498" transform="scale(1, -1)"
	style="font-family:Helvetica;font-weight:normal;font-style:normal;font-size:10pt">50</text>
<text x="663.54" y="-19.498" transform="scale(1, -1)"
	style="font-family:Helvetica;font-weight:normal;font-style:normal;font-size:10pt">100</text>
<text x="957.77" y="-19.498" transform="scale(1, -1)"
	style="font-family:Helvetica;font-weight:normal;font-style:normal;font-size:10pt">150</text>
<path d="M85.51,31.498L85.51,41.498" style="fill:none;stroke:#000000;stroke-width:0.625" />
<path d="M379.74,31.498L379.74,41.498" style="fill:none;stroke:#000000;stroke-width:0.625" />
<path d="M673.97,31.498L673.97,41.498" style="fill:none;stroke:#000000;stroke-width:0.625" />
<path d="M968.19,31.498L968.19,41.498" style="fill:none;stroke:#000000;stroke-width:0.625" />
<path d="M144.36,36.498L144.36,41.498" style="fill:none;stroke:#000000;stroke-width:0.625" />
<path d="M203.2,36.498L203.2,41.498" style="fill:none;stroke:#000000;stroke-width:0.625" />
<path d="M262.05,36.498L262.05,41.498" style="fill:none;stroke:#000000;stroke-width:0.625" />
<path d="M320.89,36.498L320.89,41.498" style="fill:none;stroke:#000000;stroke-width:0.625" />
<path d="M438.58,36.498L438.58,41.498" style="fill:none;stroke:#000000;stroke-width:0.625" />
<path d="M497.43,36.498L497.43,41.498" style="fill:none;stroke:#000000;stroke-width:0.625" />
<path d="M556.27,36.498L556.27,41.498" style="fill:none;stroke:#000000;stroke-width:0.625" />
<path d="M615.12,36.498L615.12,41.498" style="fill:none;stroke:#000000;stroke-width:0.625" />
<path d="M732.81,36.498L732.81,41.498" style="fill:none;stroke:#000000;stroke-width:0.625" />
<path d="M791.66,36.498L791.66,41.498" style="fill:none;stroke:#000000;stroke-width:0.625" />
<path d="M850.5,36.498L850.5,41.498" style="fill:none;stroke:#000000;stroke-width:0.625" />
<path d="M909.35,36.498L909.35,41.498" style="fill:none;stroke:#000000;stroke-width:0.625" />
<path d="M1027,36.498L1027,41.498" style="fill:none;stroke:#000000;stroke-width:0.625" />
<path d="M85.51,41.498L1080,41.498" style="fill:none;stroke:#000000;stroke-width:0.625" />
<g transform="rotate(90)">
<text x="336.05" y="14.399" transform="scale(1, -1)"
	style="font-family:Helvetica;font-weight:normal;font-style:normal;font-size:12pt">Throughput</text>
</g>
<text x="36.973" y="-128.58" transform="scale(1, -1)"
	style="font-family:Helvetica;font-weight:normal;font-style:normal;font-size:10pt">8000</text>
<text x="19.248" y="-321.58" transform="scale(1, -1)"
	style="font-family:Helvetica;font-weight:normal;font-style:normal;font-size:10pt">1.6e+04</text>
<text x="19.248" y="-514.59" transform="scale(1, -1)"
	style="font-family:Helvetica;font-weight:normal;font-style:normal;font-size:10pt">2.4e+04</text>
<path d="M68.253,134.45L78.253,134.45" style="fill:none;stroke:#000000;stroke-width:0.625" />
<path d="M68.253,327.46L78.253,327.46" style="fill:none;stroke:#000000;stroke-width:0.625" />
<path d="M68.253,520.46L78.253,520.46" style="fill:none;stroke:#000000;stroke-width:0.625" />
<path d="M73.253,230.96L78.253,230.96" style="fill:none;stroke:#000000;stroke-width:0.625" />
<path d="M73.253,423.96L78.253,423.96" style="fill:none;stroke:#000000;stroke-width:0.625" />
<path d="M73.253,616.96L78.253,616.96" style="fill:none;stroke:#000000;stroke-width:0.625" />
<path d="M78.253,48.06L78.253,700.75" style="fill:none;stroke:#000000;stroke-width:0.625" />
<path d="M85.51,48.06L91.395,700.75L97.279,687.39L103.16,584.3L109.05,587.8L114.93,537.28L120.82,550.14L126.7,538.17L132.59,538.17L138.47,537.35L144.36,540.66L150.24,519.28L156.12,504.25L162.01,561.23L167.89,551.7L173.78,545.82L179.66,516.6L185.55,510.5L191.43,483.53L197.32,480.15L203.2,504.73L209.09,482.54L214.97,461.19L220.86,495.97L226.74,566.76L232.62,498.41L238.51,520.7L244.39,543.24L250.28,522.03L256.16,525.48L262.05,497.23L267.93,528.01L273.82,512.45L279.7,534.77L285.59,307.7L291.47,210.67L297.35,247.6L303.24,216.65L309.12,227.43L315.01,240.2L320.89,217.78L326.78,223.07L332.66,206.32L338.55,205.43L344.43,225.29L350.32,211.75L356.2,199.52L362.08,230.43L367.97,195.61" style="fill:none;stroke:#F15A60;stroke-width:1.875" />
<path d="M85.51,61.812L91.395,85.479L97.279,88.085L103.16,86.034L109.05,82.753L114.93,86.685L120.82,86.878L126.7,85.961L132.59,86.637L138.47,86.227L144.36,85.189L150.24,86.275L156.12,85.407L162.01,87.168L167.89,84.538L173.78,87.313L179.66,84.755L185.55,86.082L191.43,84.442L197.32,87.144L203.2,86.854L209.09,82.898L214.97,87.578L220.86,84.442L226.74,83.621L232.62,85.986L238.51,84.635L244.39,83.645L250.28,84.2L256.16,83.887L262.05,86.396L267.93,84.056L273.82,83.838L279.7,84.924L285.59,84.128L291.47,84.273L297.35,82.849L303.24,86.999L309.12,84.586L315.01,87.94L320.89,76.987L326.78,84.007L332.66,85.238L338.55,84.128L344.43,76.215L350.32,84.249L356.2,85.189L362.08,85.141L367.97,83.259L373.85,77.542L379.74,86.058L385.62,82.029L391.51,85.021L397.39,84.9L403.28,84.369L409.16,85.889L415.05,80.34L420.93,84.755L426.81,86.154L432.7,81.764L438.58,80.799L444.47,87.723L450.35,78.483L456.24,81.233L462.12,84.707L468.01,81.354L473.89,86.902L479.78,80.485L485.66,81.064L491.54,81.474L497.43,88.712L503.31,84.876L509.2,86.154L515.08,78.507L520.97,86.975L526.85,84.056L532.74,85.865L538.62,84.031L544.51,77.132L550.39,87.095L556.27,82.873L562.16,80.774L568.04,77.059L573.93,85.961L579.81,80.051L585.7,86.034L591.58,81.136L597.47,84.924L603.35,79.472L609.24,86.01L615.12,76.818L621,86.347L626.89,83.404L632.77,84.176L638.66,82.27L644.54,80.968L650.43,83.115L656.31,82.753L662.2,83.501L668.08,82.391L673.97,85.021L679.85,75.756L685.73,80.027L691.62,82.777L697.5,79.086L703.39,78.41L709.27,81.474L715.16,86.878L721.04,81.281L726.93,75.901L732.81,88.012L738.7,81.788L744.58,82.825L750.46,82.994L756.35,85.865L762.23,80.364L768.12,82.487L774,78.097L779.89,86.54L785.77,87.433L791.66,78.193L797.54,77.156L803.43,87.433L809.31,82.343L815.2,84.731L821.08,78.121L826.96,82.246L832.85,80.919L838.73,87.313L844.62,80.075L850.5,84.056L856.39,76.263L862.27,75.539L868.16,88.109L874.04,76.842L879.93,87.843L885.81,80.147L891.69,84.9L897.58,79.399L903.46,79.954L909.35,86.251L915.23,77.928L921.12,77.059L927,86.154L932.89,82.97L938.77,71.317L944.66,87.578L950.54,81.715L956.42,78.507L962.31,75.226L968.19,80.919L974.08,79.303L979.96,79.665L985.85,83.814L991.73,82.367L997.62,81.233L1003.5,80.847L1009.4,82.801L1015.3,71.486L1021.2,87.602L1027,75.322L1032.9,76.697L1038.8,82.656L1044.7,79.375L1050.6,77.252L1056.5,78.82L1062.3,72.451L1068.2,87.24L1074.1,75.226L1080,82.873" style="fill:none;stroke:#7AC36A;stroke-width:1.875;stroke-dasharray:7.5,2.5" />
<path d="M1055,693.4L1080,693.4" style="fill:none;stroke:#F15A60;stroke-width:1.875" />
<text x="882.43" y="-686.35" transform="scale(1, -1)"
	style="font-family:Helvetica;font-weight:normal;font-style:normal;font-size:12pt">etcd v3 (no compression)</text>
<path d="M1055,678.7L1080,678.7" style="fill:none;stroke:#7AC36A;stroke-width:1.875;stroke-dasharray:7.5,2.5" />
<text x="939.94" y="-671.65" transform="scale(1, -1)"
	style="font-family:Helvetica;font-weight:normal;font-style:normal;font-size:12pt">etcd v3 (snappy)</text>
</g>
</svg>
