<?xml version="1.0"?>
<!-- Generated by SVGo and Plotinum VG -->
<svg width="12in" height="8in"
	xmlns="http://www.w3.org/2000/svg"
	xmlns:xlink="http://www.w3.org/1999/xlink">
<g transform="scale(1, -1) translate(0, -720)">
<path d="M0,0L1080,0L1080,720L0,720Z" style="fill:#FFFFFF" />
<text x="226.38" y="-705.6" transform="scale(1, -1)"
	style="font-family:Helvetica;font-weight:normal;font-style:normal;font-size:12pt">Write 500K keys, 1-client, 1-conn, 64-byte key, 1024-byte value (etcd v3), Latency(millisecond)</text>
<text x="543.24" y="-4.8486" transform="scale(1, -1)"
	style="font-family:Helvetica;font-weight:normal;font-style:normal;font-size:12pt">Second</text>
<text x="53.879" y="-19.498" transform="scale(1, -1)"
	style="font-family:Helvetica;font-weight:normal;font-style:normal;font-size:10pt">0</text>
<text x="325.83" y="-19.498" transform="scale(1, -1)"
	style="font-family:Helvetica;font-weight:normal;font-style:normal;font-size:10pt">300</text>
<text x="604.73" y="-19.498" transform="scale(1, -1)"
	style="font-family:Helvetica;font-weight:normal;font-style:normal;font-size:10pt">600</text>
<text x="883.64" y="-19.498" transform="scale(1, -1)"
	style="font-family:Helvetica;font-weight:normal;font-style:normal;font-size:10pt">900</text>
<path d="M57.355,31.498L57.355,41.498" style="fill:none;stroke:#000000;stroke-width:0.625" />
<path d="M336.26,31.498L336.26,41.498" style="fill:none;stroke:#000000;stroke-width:0.625" />
<path d="M615.16,31.498L615.16,41.498" style="fill:none;stroke:#000000;stroke-width:0.625" />
<path d="M894.06,31.498L894.06,41.498" style="fill:none;stroke:#000000;stroke-width:0.625" />
<path d="M150.32,36.498L150.32,41.498" style="fill:none;stroke:#000000;stroke-width:0.625" />
<path d="M243.29,36.498L243.29,41.498" style="fill:none;stroke:#000000;stroke-width:0.625" />
<path d="M429.23,36.498L429.23,41.498" style="fill:none;stroke:#000000;stroke-width:0.625" />
<path d="M522.19,36.498L522.19,41.498" style="fill:none;stroke:#000000;stroke-width:0.625" />
<path d="M708.13,36.498L708.13,41.498" style="fill:none;stroke:#000000;stroke-width:0.625" />
<path d="M801.1,36.498L801.1,41.498" style="fill:none;stroke:#000000;stroke-width:0.625" />
<path d="M987.03,36.498L987.03,41.498" style="fill:none;stroke:#000000;stroke-width:0.625" />
<path d="M1080,36.498L1080,41.498" style="fill:none;stroke:#000000;stroke-width:0.625" />
<path d="M57.355,41.498L1080,41.498" style="fill:none;stroke:#000000;stroke-width:0.625" />
<g transform="rotate(90)">
<text x="306.05" y="14.399" transform="scale(1, -1)"
	style="font-family:Helvetica;font-weight:normal;font-style:normal;font-size:12pt">Latency(millisecond)</text>
</g>
<text x="19.248" y="-183.81" transform="scale(1, -1)"
	style="font-family:Helvetica;font-weight:normal;font-style:normal;font-size:10pt">2.1</text>
<text x="19.248" y="-348.07" transform="scale(1, -1)"
	style="font-family:Helvetica;font-weight:normal;font-style:normal;font-size:10pt">2.4</text>
<text x="19.248" y="-512.32" transform="scale(1, -1)"
	style="font-family:Helvetica;font-weight:normal;font-style:normal;font-size:10pt">2.7</text>
<text x="29.673" y="-676.58" transform="scale(1, -1)"
	style="font-family:Helvetica;font-weight:normal;font-style:normal;font-size:10pt">3</text>
<path d="M40.098,189.68L50.098,189.68" style="fill:none;stroke:#000000;stroke-width:0.625" />
<path d="M40.098,353.94L50.098,353.94" style="fill:none;stroke:#000000;stroke-width:0.625" />
<path d="M40.098,518.2L50.098,518.2" style="fill:none;stroke:#000000;stroke-width:0.625" />
<path d="M40.098,682.46L50.098,682.46" style="fill:none;stroke:#000000;stroke-width:0.625" />
<path d="M45.098,80.177L50.098,80.177" style="fill:none;stroke:#000000;stroke-width:0.625" />
<path d="M45.098,134.93L50.098,134.93" style="fill:none;stroke:#000000;stroke-width:0.625" />
<path d="M45.098,244.44L50.098,244.44" style="fill:none;stroke:#000000;stroke-width:0.625" />
<path d="M45.098,299.19L50.098,299.19" style="fill:none;stroke:#000000;stroke-width:0.625" />
<path d="M45.098,353.94L50.098,353.94" style="fill:none;stroke:#000000;stroke-width:0.625" />
<path d="M45.098,408.69L50.098,408.69" style="fill:none;stroke:#000000;stroke-width:0.625" />
<path d="M45.098,463.45L50.098,463.45" style="fill:none;stroke:#000000;stroke-width:0.625" />
<path d="M45.098,518.2L50.098,518.2" style="fill:none;stroke:#000000;stroke-width:0.625" />
<path d="M45.098,572.95L50.098,572.95" style="fill:none;stroke:#000000;stroke-width:0.625" />
<path d="M45.098,627.7L50.098,627.7" style="fill:none;stroke:#000000;stroke-width:0.625" />
<path d="M45.098,682.46L50.098,682.46" style="fill:none;stroke:#000000;stroke-width:0.625" />
<path d="M50.098,48.06L50.098,700.75" style="fill:none;stroke:#000000;stroke-width:0.625" />
<path d="M57.355,196.52L58.284,210.22L59.214,201.65L60.144,157.04L61.073,168.65L62.003,196.35L62.933,195.45L63.862,154.23L64.792,220.85L65.722,217.35L66.652,212.68L67.581,205.7L68.511,196.48L69.441,242.75L70.37,179.42L71.3,223.69L72.23,277.27L73.159,287.36L74.089,233.44L75.019,256.27L75.948,229.79L76.878,244.38L77.808,198.3L78.737,202.6L79.667,206.28L80.597,232.83L81.526,228.55L82.456,300.87L83.386,220.13L84.315,243.45L85.245,264.08L86.175,271.9L87.104,249.94L88.034,291.17L88.964,212.28L89.893,222.44L90.823,189.31L91.753,99.319L92.682,83.996L93.612,71.429L94.542,210.54L95.472,270.53L96.401,244.49L97.331,261.03L98.261,207.77L99.19,232.28L100.12,232.05L101.05,237.4L101.98,353.29L102.91,431.54L103.84,365.84L104.77,353.91L105.7,401.87L106.63,362.18L107.56,437.19L108.49,343.92L109.42,417.07L110.35,416.08L111.28,242.84L112.21,148.06L113.14,138.74L114.07,103.09L114.99,135.44L115.92,91.462L116.85,75.145L117.78,78.533L118.71,89.712L119.64,67.603L120.57,108.14L121.5,118.05L122.43,104.89L123.36,121.57L124.29,135.99L125.22,139.95L126.15,182.74L127.08,143.3L128.01,155.01L128.94,160.74L129.87,132.12L130.8,118.57L131.73,102.78L132.66,94.564L133.59,75.774L134.52,115.43L135.45,110.41L136.38,110.5L137.31,143.11L138.24,220.13L139.17,226.29L140.1,262.62L141.03,233.01L141.96,265.63L142.89,229.95L143.81,300.76L144.74,257.05L145.67,301.68L146.6,342.2L147.53,322.25L148.46,269.59L149.39,268.92L150.32,241.19L151.25,218.81L152.18,195.34L153.11,255.96L154.04,295.34L154.97,295.22L155.9,310.15L156.83,293.49L157.76,557.39L158.69,650.67L159.62,501.19L160.55,532.43L161.48,435.8L162.41,425.29L163.34,425.29L164.27,450.27L165.2,488.8L166.13,451.14L167.06,201.4L167.99,171.15L168.92,164.9L169.85,133.74L170.78,182.74L171.71,138.11L172.63,186.69L173.56,254.37L174.49,227.6L175.42,174.12L176.35,184.12L177.28,244.63L178.21,184.8L179.14,200.11L180.07,207.05L181,167.78L181.93,190.18L182.86,195.34L183.79,271.4L184.72,195.27L185.65,259.83L186.58,251.62L187.51,297.89L188.44,254.05L189.37,241.06L190.3,285.13L191.23,274.88L192.16,275.13L193.09,250.46L194.02,260.76L194.95,199.41L195.88,253.8L196.81,235.87L197.74,296.8L198.67,248.21L199.6,248.5L200.53,297.64L201.45,255.91L202.38,251.21L203.31,140.54L204.24,100.44L205.17,115.42L206.1,158.73L207.03,176.19L207.96,179.95L208.89,194L209.82,214.79L210.75,164.21L211.68,189.66L212.61,249.91L213.54,456.53L214.47,460.3L215.4,385.17L216.33,363.33L217.26,346.51L218.19,339.68L219.12,413.91L220.05,393.22L220.98,374.47L221.91,391.2L222.84,99.605L223.77,94.81L224.7,103.73L225.63,110.43L226.56,92.665L227.49,88.939L228.42,80.834L229.35,108.6L230.27,97.069L231.2,75.227L232.13,104.21L233.06,121.43L233.99,104L234.92,98.544L235.85,69.154L236.78,76.164L237.71,107.58L238.64,97.193L239.57,112.86L240.5,144.42L241.43,81.898L242.36,101.91L243.29,107.33L244.22,107.66L245.15,111.32L246.08,172.93L247.01,99.467L247.94,119.11L248.87,158.79L249.8,211.6L250.73,265.94L251.66,237.25L252.59,293.73L253.52,281.61L254.45,207.01L255.38,211.88L256.31,154.65L257.24,208.23L258.17,158.02L259.09,115.57L260.02,87.983L260.95,76.648L261.88,220.35L262.81,357.63L263.74,300.42L264.67,296.8L265.6,329.92L266.53,294.23L267.46,329.83L268.39,333.52L269.32,600.14L270.25,606.22L271.18,461.89L272.11,540.07L273.04,591.83L273.97,522.33L274.9,468.74L275.83,425.26L276.76,517.13L277.69,420.18L278.62,286.28L279.55,300.9L280.48,310.7L281.41,243.91L282.34,232.91L283.27,321.06L284.2,307.82L285.13,286.42L286.06,315.59L286.99,319.25L287.91,270.65L288.84,285.85L289.77,322.3L290.7,229.32L291.63,256.68L292.56,301.26L293.49,319.66L294.42,363.81L295.35,452.77L296.28,357.3L297.21,305.8L298.14,270.9L299.07,238.53L300,211.54L300.93,265.8L301.86,222.48L302.79,243.75L303.72,245.88L304.65,267.18L305.58,294.38L306.51,314.61L307.44,306.28L308.37,236.57L309.3,230.54L310.23,314.51L311.16,330.45L312.09,319.87L313.02,385.62L313.95,268.14L314.88,149.47L315.81,196.05L316.73,194.28L317.66,193.86L318.59,198.58L319.52,273.74L320.45,311.01L321.38,305.44L322.31,318.21L323.24,261.08L324.17,286.45L325.1,556.27L326.03,629.15L326.96,605.45L327.89,532.86L328.82,563.24L329.75,571.66L330.68,538.15L331.61,593.72L332.54,642.17L333.47,607.4L334.4,348.51L335.33,321.55L336.26,329.13L337.19,298.36L338.12,294.22L339.05,314.58L339.98,334.39L340.91,276.73L341.84,273.69L342.77,306.95L343.7,301.36L344.63,353.35L345.55,274.28L346.48,307.39L347.41,341.01L348.34,289.24L349.27,335.49L350.2,394.2L351.13,372.78L352.06,297.98L352.99,280.74L353.92,267.2L354.85,332.49L355.78,300.34L356.71,266.78L357.64,265.95L358.57,292.76L359.5,297.1L360.43,308.64L361.36,367.65L362.29,339.64L363.22,316.27L364.15,221.84L365.08,297.67L366.01,353.28L366.94,329.88L367.87,376.52L368.8,371.72L369.73,332.08L370.66,219.56L371.59,260.12L372.52,184.19L373.45,234.83L374.37,251.1L375.3,267.95L376.23,273.32L377.16,304.65L378.09,294.41L379.02,340.46L379.95,322.9L380.88,536.43L381.81,574.09L382.74,467.36L383.67,524.07L384.6,472.57L385.53,515.17L386.46,460.53L387.39,501.21L388.32,543.79L389.25,555.37L390.18,334.97L391.11,275.31L392.04,280.83L392.97,225.94L393.9,288.92L394.83,233.08L395.76,310.07L396.69,234.09L397.62,183.03L398.55,221.92L399.48,235.53L400.41,198.79L401.34,189.44L402.27,142.86L403.19,186.22L404.12,157.28L405.05,168.08L405.98,170.14L406.91,163.37L407.84,198.52L408.77,137.5L409.7,128.57L410.63,128.59L411.56,164.64L412.49,137.84L413.42,144.19L414.35,162.09L415.28,125.51L416.21,138.87L417.14,265.56L418.07,284.65L419,223.46L419.93,239.23L420.86,272.07L421.79,300.02L422.72,249.71L423.65,307.16L424.58,293.69L425.51,280.32L426.44,221.64L427.37,200.06L428.3,223.18L429.23,170.88L430.16,206.8L431.09,221.56L432.01,215.55L432.94,207.25L433.87,225.96L434.8,251.66L435.73,346.47L436.66,540.48L437.59,552.84L438.52,461.03L439.45,453.26L440.38,495.04L441.31,424.46L442.24,474.26L443.17,496.42L444.1,489.29L445.03,427.4L445.96,185.37L446.89,137.14L447.82,201.68L448.75,202.18L449.68,275.76L450.61,240.07L451.54,211.09L452.47,228.26L453.4,236.24L454.33,170.47L455.26,137.1L456.19,132.51L457.12,133.78L458.05,169.3L458.98,191.52L459.91,170.07L460.83,154.32L461.76,185.31L462.69,176.59L463.62,136.13L464.55,174.16L465.48,225.34L466.41,160.24L467.34,167.44L468.27,134.57L469.2,133.26L470.13,166.12L471.06,130.54L471.99,193.15L472.92,256.33L473.85,246.29L474.78,312.85L475.71,295.17L476.64,281.16L477.57,334.03L478.5,416.29L479.43,381.32L480.36,303.63L481.29,332.92L482.22,300.05L483.15,237.47L484.08,217.66L485.01,262.2L485.94,287.63L486.87,211.51L487.8,323.67L488.73,325.46L489.65,264.32L490.58,290.7L491.51,299.79L492.44,600.79L493.37,583.95L494.3,498.54L495.23,458.82L496.16,570.75L497.09,532.37L498.02,524.55L498.95,481.26L499.88,503.89L500.81,467.87L501.74,213.04L502.67,210.51L503.6,233.91L504.53,313.63L505.46,246.1L506.39,183.94L507.32,225.56L508.25,227.5L509.18,275.84L510.11,282.44L511.04,290.52L511.97,324.46L512.9,310.22L513.83,298.51L514.76,366.42L515.69,353.56L516.62,294.41L517.55,289L518.47,308.69L519.4,286.21L520.33,230.97L521.26,268.11L522.19,290.8L523.12,248.32L524.05,232.05L524.98,290.49L525.91,252.92L526.84,269.37L527.77,227.1L528.7,325.25L529.63,259.9L530.56,215.5L531.49,160.83L532.42,224.6L533.35,234.33L534.28,312.22L535.21,219.26L536.14,235.32L537.07,249.77L538,94.664L538.93,174.9L539.86,81.715L540.79,219.23L541.72,329.82L542.65,323.96L543.58,321.84L544.51,329.44L545.44,226.42L546.37,228.05L547.29,215.34L548.22,468.44L549.15,500.94L550.08,486.82L551.01,458.45L551.94,470.53L552.87,438.58L553.8,483.81L554.73,548.27L555.66,497.88L556.59,445.65L557.52,268.59L558.45,226.79L559.38,183.4L560.31,128.25L561.24,124.77L562.17,133.81L563.1,140.31L564.03,168.48L564.96,161.82L565.89,143.22L566.82,127.6L567.75,162.03L568.68,156.64L569.61,134.81L570.54,131.74L571.47,146.64L572.4,157.3L573.33,215.37L574.26,371.04L575.19,262.73L576.11,263.44L577.04,250.62L577.97,343.77L578.9,332.41L579.83,284.44L580.76,274.65L581.69,219.76L582.62,239.48L583.55,308.09L584.48,322.7L585.41,345.94L586.34,355.3L587.27,412.59L588.2,351.28L589.13,190.24L590.06,237.42L590.99,234.73L591.92,259.26L592.85,226.61L593.78,130.35L594.71,111.37L595.64,93.97L596.57,145.47L597.5,137.94L598.43,141.84L599.36,168.42L600.29,149.18L601.22,137.14L602.15,169.59L603.08,117.28L604.01,373.89L604.93,480.93L605.86,392L606.79,341.43L607.72,391.46L608.65,353.89L609.58,346.81L610.51,394.54L611.44,389.5L612.37,412.62L613.3,127.26L614.23,103.86L615.16,99.771L616.09,95.053L617.02,99.082L617.95,75.864L618.88,110.06L619.81,92.784L620.74,143.62L621.67,97.42L622.6,142.73L623.53,114L624.46,111.91L625.39,177.49L626.32,118.04L627.25,75.474L628.18,77.524L629.11,128.49L630.04,171.63L630.97,62.766L631.9,71.812L632.83,98.67L633.75,62.429L634.68,99.631L635.61,115.19L636.54,92.973L637.47,73.821L638.4,62.806L639.33,129.77L640.26,283.31L641.19,232.14L642.12,301.28L643.05,273.82L643.98,321.58L644.91,301.54L645.84,368.11L646.77,308.39L647.7,408.08L648.63,345.46L649.56,275.3L650.49,285.37L651.42,180.82L652.35,244.46L653.28,181.31L654.21,235.72L655.14,263.38L656.07,307.34L657,239.88L657.93,302.8L658.86,319.75L659.79,581.99L660.72,593.54L661.65,559.76L662.57,547.43L663.5,529.81L664.43,678.8L665.36,700.75L666.29,665.53L667.22,573.21L668.15,528.06L669.08,261.01L670.01,203L670.94,208.61L671.87,225.84L672.8,213.27L673.73,177.25L674.66,191.67L675.59,170.29L676.52,162.44L677.45,187.03L678.38,150.07L679.31,116.24L680.24,143.16L681.17,102.42L682.1,137.77L683.03,166.93L683.96,111.82L684.89,110.5L685.82,116.97L686.75,113.21L687.68,109.7L688.61,121.3L689.54,90.592L690.47,123.47L691.39,82.122L692.32,109.1L693.25,147.64L694.18,148.29L695.11,173.15L696.04,230.26L696.97,224.49L697.9,201.58L698.83,197.23L699.76,254.19L700.69,214.96L701.62,246.55L702.55,265.56L703.48,264.34L704.41,242.7L705.34,149.81L706.27,172.5L707.2,119.31L708.13,133.5L709.06,181.29L709.99,197.16L710.92,170.83L711.85,241.67L712.78,211.49L713.71,169.57L714.64,165.77L715.57,336.48L716.5,311.2L717.43,322.06L718.36,367.44L719.29,319.73L720.21,361.66L721.14,326.93L722.07,353.62L723,406.62L723.93,334.51L724.86,131.19L725.79,91.907L726.72,124.4L727.65,110.25L728.58,140.48L729.51,84.677L730.44,149.33L731.37,96.135L732.3,136.89L733.23,125.09L734.16,135.67L735.09,81.001L736.02,165.72L736.95,108.31L737.88,110.17L738.81,102.92L739.74,166.78L740.67,259.08L741.6,259.87L742.53,131.64L743.46,124.83L744.39,113.47L745.32,133.32L746.25,134.41L747.18,225.51L748.11,182.23L749.03,221.53L749.96,213.23L750.89,167.13L751.82,208.35L752.75,249.01L753.68,292.89L754.61,232.58L755.54,260.89L756.47,270.51L757.4,373.98L758.33,236.81L759.26,277.67L760.19,355.48L761.12,257.24L762.05,164.34L762.98,155.57L763.91,179.88L764.84,216.67L765.77,229.05L766.7,303.19L767.63,267.48L768.56,230.57L769.49,254.49L770.42,253.49L771.35,492.07L772.28,491.79L773.21,506.96L774.14,530.16L775.07,468.96L776,457.88L776.93,457.1L777.85,508.03L778.78,458.57L779.71,489.18L780.64,291.91L781.57,195.61L782.5,211.57L783.43,192.34L784.36,179.64L785.29,198.4L786.22,233.52L787.15,300.91L788.08,225.17L789.01,193.7L789.94,257.45L790.87,263.06L791.8,236.3L792.73,225.17L793.66,253.48L794.59,360.48L795.52,271.23L796.45,271.81L797.38,308.42L798.31,263.47L799.24,274.96L800.17,267.63L801.1,237.83L802.03,222.26L802.96,257.63L803.89,254.75L804.82,303.86L805.75,288.13L806.67,284.56L807.6,305.82L808.53,285.39L809.46,289.13L810.39,222.07L811.32,188.21L812.25,282.66L813.18,344.42L814.11,281.52L815.04,351.23L815.97,367.75L816.9,215.64L817.83,211.34L818.76,177.94L819.69,214.25L820.62,186.69L821.55,195.68L822.48,306.99L823.41,271.92L824.34,271.65L825.27,345.13L826.2,295.63L827.13,543.22L828.06,583.43L828.99,467.97L829.92,537.39L830.85,530.7L831.78,469.27L832.71,506.84L833.64,533.93L834.57,535.06L835.49,573.7L836.42,269.37L837.35,199.47L838.28,237.69L839.21,163.31L840.14,201.64L841.07,152.75L842,108.35L842.93,122.09L843.86,166.11L844.79,198.76L845.72,184.85L846.65,136.42L847.58,101.09L848.51,94.96L849.44,89.717L850.37,58.153L851.3,153.53L852.23,124.63L853.16,234.68L854.09,190.79L855.02,163.91L855.95,114.86L856.88,90.121L857.81,156.26L858.74,114.79L859.67,142.62L860.6,122.06L861.53,138.86L862.46,207.21L863.39,243.74L864.31,304.39L865.24,323.8L866.17,264.85L867.1,281.13L868.03,263.79L868.96,295.51L869.89,277.39L870.82,275.34L871.75,308.61L872.68,87.07L873.61,51.186L874.54,104.42L875.47,148.48L876.4,173.94L877.33,147.26L878.26,190.88L879.19,203.2L880.12,155.24L881.05,157.23L881.98,193.62L882.91,370.49L883.84,433.09L884.77,329.91L885.7,374.5L886.63,303.33L887.56,294.32L888.49,420.96L889.42,377.46L890.35,319.52L891.28,342.64L892.21,71.699L893.13,107.73L894.06,85.514L894.99,63.573L895.92,142.36L896.85,98.552L897.78,81.895L898.71,84.418L899.64,131.63L900.57,118.1L901.5,116.06L902.43,101.86L903.36,94.756L904.29,89.715L905.22,73.52L906.15,168.11L907.08,96.663L908.01,80.426L908.94,97.999L909.87,130.51L910.8,121.52L911.73,115.85L912.66,148.23L913.59,178.97L914.52,114.44L915.45,138.31L916.38,128.83L917.31,74.71L918.24,145.74L919.17,251.41L920.1,249.12L921.03,272.33L921.95,350.21L922.88,305.76L923.81,291.68L924.74,284.64L925.67,358.04L926.6,357.88L927.53,386.05L928.46,335.81L929.39,285.31L930.32,172.17L931.25,212.15L932.18,203.78L933.11,214.1L934.04,254.3L934.97,276.95L935.9,281.63L936.83,218.22L937.76,238.02L938.69,462.16L939.62,532.37L940.55,417.75L941.48,352.87L942.41,349.69L943.34,323L944.27,471.91L945.2,368.5L946.13,394.99L947.06,352.05L947.99,124.84L948.92,119.14L949.85,114.46L950.77,100.64L951.7,240.21L952.63,198.9L953.56,204.13L954.49,220.65L955.42,232.89L956.35,249.85L957.28,240.58L958.21,297.01L959.14,306.85L960.07,306.69L961,325.49L961.93,283.69L962.86,264.29L963.79,202.79L964.72,227.59L965.65,249.53L966.58,185.54L967.51,271.56L968.44,169.77L969.37,194.45L970.3,187.27L971.23,167.41L972.16,203.06L973.09,152.69L974.02,192.97L974.95,343.66L975.88,283.84L976.81,401.62L977.74,312.4L978.67,307.87L979.59,297.63L980.52,361.15L981.45,307.01L982.38,394.56L983.31,340.16L984.24,312.66L985.17,121.37L986.1,133.16L987.03,148.88L987.96,197.4L988.89,178.03L989.82,129.15L990.75,148.1L991.68,235L992.61,183.63L993.54,150.65L994.47,399.41L995.4,375.44L996.33,362.54L997.26,377.36L998.19,346.08L999.12,322.25L1000,392.39L1001,358.27L1001.9,342.05L1002.8,382.42L1003.8,164.24L1004.7,179.95L1005.6,212.3L1006.6,140.57L1007.5,116.53L1008.4,127.64L1009.3,116.78L1010.3,129.5L1011.2,151.17L1012.1,112.25L1013.1,87.291L1014,117.73L1014.9,96.082L1015.9,170.75L1016.8,142.99L1017.7,67.247L1018.6,90.419L1019.6,92.905L1020.5,135.07L1021.4,130.77L1022.4,145.73L1023.3,162.91L1024.2,112.24L1025.1,138.47L1026.1,110.55L1027,114.03L1027.9,106L1028.9,120.83L1029.8,177.34L1030.7,371.97L1031.7,307.57L1032.6,325.15L1033.5,298.85L1034.4,325.22L1035.4,334.61L1036.3,325.74L1037.2,340.39L1038.2,324L1039.1,333.71L1040,374.01L1041,254.7L1041.9,312.12L1042.8,305.53L1043.7,338.64L1044.7,303.19L1045.6,161.15L1046.5,199.98L1047.5,236.56L1048.4,348.73L1049.3,245.14L1050.3,430.19L1051.2,599.66L1052.1,546.35L1053,578.34L1054,619.63L1054.9,665.53L1055.8,609.46L1056.8,446.17L1057.7,356.15L1058.6,409.96L1059.5,103.01L1060.5,89.661L1061.4,134.48L1062.3,160.68L1063.3,170.15L1064.2,220.34L1065.1,233.98L1066.1,229.25L1067,280.82L1067.9,130.52L1068.8,151.35L1069.8,143.69L1070.7,117.91L1071.6,117.51L1072.6,105.18L1073.5,74.717L1074.4,131.81L1075.4,68.273L1076.3,80.378L1077.2,48.06L1078.1,49.351L1079.1,86.595L1080,72.807" style="fill:none;stroke:#F15A60;stroke-width:1.875" />
<path d="M57.355,284.78L58.284,334.6L59.214,296.15L60.144,120.83L61.073,122.41L62.003,97.53L62.933,109.86L63.862,92.456L64.792,122.14L65.722,105.37L66.652,135.98L67.581,173.56L68.511,134.62L69.441,132.14L70.37,137.89L71.3,169.23L72.23,169.63L73.159,153.73L74.089,167.35L75.019,118.99L75.948,132.5L76.878,114.66L77.808,94.469L78.737,98.025L79.667,127.05L80.597,130.39L81.526,150.67L82.456,126.79L83.386,136.08L84.315,156.74L85.245,159.15L86.175,174.34L87.104,149.2L88.034,127.34L88.964,158.07L89.893,106.6L90.823,154.53L91.753,133.99L92.682,216.61L93.612,198.39L94.542,225.02L95.472,211.19L96.401,195.58L97.331,222.4L98.261,183.65L99.19,201.61L100.12,225.93L101.05,330.54L101.98,222.56L102.91,170.56L103.84,194.49L104.77,206.24L105.7,223.12L106.63,375.73L107.56,409.26L108.49,465.31L109.42,412.82L110.35,375.4L111.28,317.61L112.21,346.43L113.14,360.94L114.07,365.56L114.99,281.13L115.92,126L116.85,103.9L117.78,115.95L118.71,111.86L119.64,74.592L120.57,101.15L121.5,136.55L122.43,138.03L123.36,147.85L124.29,122.27L125.22,148.81L126.15,115.23L127.08,129.79L128.01,112.4L128.94,126.67L129.87,142.44L130.8,134.43L131.73,121.02L132.66,132.89L133.59,128.43L134.52,129.59L135.45,130.79L136.38,113.96L137.31,125.66L138.24,128.04L139.17,133.17L140.1,108.25L141.03,122.65L141.96,165.62L142.89,123.88L143.81,160.79L144.74,166.79L145.67,162.13L146.6,186.46L147.53,153.25L148.46,197.48L149.39,199.3L150.32,203.87L151.25,170.87L152.18,165.66L153.11,199.95L154.04,236.69L154.97,247.67L155.9,197.05L156.83,311.67L157.76,234.15L158.69,231.26L159.62,252.68L160.55,240.18L161.48,281.51L162.41,429.9L163.34,470.41L164.27,533.42L165.2,527.89L166.13,450.15L167.06,370.75L167.99,390.43L168.92,384.76L169.85,475.48L170.78,342.41L171.71,140.08L172.63,123.15L173.56,127.56L174.49,170.44L175.42,105.05L176.35,133.34L177.28,143.08L178.21,164.12L179.14,200.24L180.07,160.2L181,134.1L181.93,161.68L182.86,166.01L183.79,174.54L184.72,176.4L185.65,130.74L186.58,124.51L187.51,112.07L188.44,93.84L189.37,152.36L190.3,108.56L191.23,128.75L192.16,120.78L193.09,154.95L194.02,79.953L194.95,104.45L195.88,95.259L196.81,100.06L197.74,124.2L198.67,98.536L199.6,112.48L200.53,127.89L201.45,98.852L202.38,119.74L203.31,102.74L204.24,184.18L205.17,224.83L206.1,194.05L207.03,213.44L207.96,189.29L208.89,191.68L209.82,172.15L210.75,197.03L211.68,198.1L212.61,319.99L213.54,184.87L214.47,187.85L215.4,193.31L216.33,187.14L217.26,231.86L218.19,382.1L219.12,353.22L220.05,393.07L220.98,350.12L221.91,378.25L222.84,326.47L223.77,328.05L224.7,392.16L225.63,392.27L226.56,320.96L227.49,154.57L228.42,125.56L229.35,127.02L230.27,121.51L231.2,117.23L232.13,144.85L233.06,146.7L233.99,175.81L234.92,195.96L235.85,178.25L236.78,160.75L237.71,167.83L238.64,143.39L239.57,167.55L240.5,177.24L241.43,173.62L242.36,167.58L243.29,142.19L244.22,128.71L245.15,145.01L246.08,169.34L247.01,181.48L247.94,184.66L248.87,167.16L249.8,157.86L250.73,142.86L251.66,166.51L252.59,147.62L253.52,181.73L254.45,127.61L255.38,137.82L256.31,164.23L257.24,172.4L258.17,144.09L259.09,176.25L260.02,217.26L260.95,200.76L261.88,168.72L262.81,193.1L263.74,173.52L264.67,147.5L265.6,181.77L266.53,210.95L267.46,298.74L268.39,371.18L269.32,273.34L270.25,287.46L271.18,240.35L272.11,251.65L273.04,280.73L273.97,419.89L274.9,399.43L275.83,449.23L276.76,473.65L277.69,378.83L278.62,351.13L279.55,325.54L280.48,385.48L281.41,476.02L282.34,349.41L283.27,134.91L284.2,206.27L285.13,142.97L286.06,154.94L286.99,171.39L287.91,142.94L288.84,177.88L289.77,195.6L290.7,199.55L291.63,188.82L292.56,182.33L293.49,180.47L294.42,183.87L295.35,217.23L296.28,216.9L297.21,205.22L298.14,176.8L299.07,153.35L300,179.86L300.93,190.5L301.86,165.37L302.79,188.22L303.72,156.35L304.65,172.55L305.58,202.65L306.51,157.44L307.44,165.48L308.37,185.43L309.3,166.48L310.23,160.68L311.16,155.95L312.09,184.8L313.02,154.92L313.95,164.24L314.88,112.76L315.81,192.61L316.73,174.11L317.66,216.98L318.59,219.1L319.52,181.65L320.45,174.78L321.38,202.48L322.31,204.98L323.24,210.31L324.17,364.1L325.1,262.04L326.03,236.46L326.96,261.14L327.89,231.44L328.82,265.69L329.75,466.04L330.68,501.64L331.61,439.48L332.54,441.71L333.47,390.05L334.4,391.36L335.33,390.67L336.26,344.43L337.19,405.76L338.12,328.03L339.05,112.14L339.98,151.31L340.91,145.66L341.84,131.45L342.77,131.04L343.7,124.98L344.63,135.71L345.55,183.07L346.48,124.3L347.41,111.15L348.34,159.32L349.27,142.24L350.2,144.94L351.13,138.56L352.06,158.04L352.99,121.2L353.92,133.15L354.85,116.63L355.78,100.13L356.71,128.73L357.64,96.046L358.57,99.222L359.5,172.84L360.43,150.73L361.36,97.665L362.29,146.18L363.22,103.64L364.15,125.53L365.08,130.84L366.01,166.44L366.94,119.93L367.87,155.41L368.8,128.67L369.73,124.9L370.66,126.96L371.59,162.36L372.52,191.29L373.45,213.27L374.37,212.96L375.3,186.52L376.23,201.79L377.16,162.84L378.09,200.72L379.02,204.39L379.95,368.88L380.88,273.5L381.81,289.41L382.74,296.39L383.67,261.33L384.6,284.9L385.53,485.76L386.46,493.73L387.39,528.94L388.32,478.71L389.25,435.17L390.18,407.89L391.11,398.91L392.04,406.39L392.97,407.17L393.9,360.07L394.83,202.31L395.76,195.19L396.69,189.91L397.62,188.52L398.55,159.16L399.48,170.03L400.41,198.95L401.34,162.25L402.27,213.51L403.19,167.91L404.12,184.9L405.05,136.16L405.98,198.97L406.91,204.92L407.84,192.76L408.77,190L409.7,175.19L410.63,173.74L411.56,124.74L412.49,132.11L413.42,127.44L414.35,141.63L415.28,123.78L416.21,188.63L417.14,132.77L418.07,141.62L419,129.56L419.93,130.89L420.86,128.89L421.79,122.42L422.72,143.06L423.65,113.46L424.58,139.17L425.51,156.93L426.44,142.18L427.37,217.1L428.3,167.09L429.23,227.87L430.16,221.66L431.09,192.35L432.01,182.61L432.94,240.57L433.87,212.68L434.8,214.48L435.73,345.87L436.66,255.85L437.59,219.82L438.52,217.81L439.45,230.66L440.38,262.33L441.31,457.96L442.24,435.19L443.17,461.15L444.1,454.02L445.03,365.55L445.96,344.34L446.89,349.23L447.82,379.93L448.75,325.84L449.68,296.7L450.61,106.37L451.54,193.71L452.47,109.74L453.4,117.7L454.33,104.49L455.26,181.4L456.19,121.51L457.12,129.78L458.05,156.29L458.98,119.05L459.91,155.17L460.83,132.6L461.76,183.26L462.69,118.62L463.62,165.75L464.55,169.28L465.48,167.66L466.41,158.88L467.34,151.8L468.27,159.23L469.2,120.09L470.13,154.42L471.06,144.51L471.99,201.34L472.92,136.94L473.85,119.13L474.78,117.5L475.71,170.59L476.64,139.9L477.57,164.97L478.5,176.74L479.43,166.43L480.36,156.5L481.29,137.81L482.22,182.59L483.15,201.12L484.08,190.28L485.01,200.73L485.94,221.56L486.87,186.76L487.8,184.4L488.73,183.98L489.65,239.54L490.58,200.11L491.51,281.72L492.44,286.76L493.37,292.06L494.3,273.23L495.23,269.24L496.16,325.4L497.09,536.64L498.02,471.98L498.95,496.95L499.88,511.51L500.81,471.3L501.74,431.24L502.67,373.71L503.6,375.6L504.53,390.73L505.46,347.16L506.39,148.52L507.32,129.44L508.25,112.09L509.18,113.03L510.11,157.94L511.04,115.13L511.97,130.91L512.9,165.96L513.83,211.26L514.76,141.51L515.69,150.16L516.62,121.24L517.55,137.46L518.47,148.4L519.4,127.02L520.33,126.08L521.26,123.58L522.19,127.63L523.12,88.036L524.05,106.4L524.98,142.88L525.91,111.62L526.84,110.14L527.77,123L528.7,152.32L529.63,121.7L530.56,94.381L531.49,103.1L532.42,140.75L533.35,118.55L534.28,105.59L535.21,139.8L536.14,188.4L537.07,113.88L538,100.94L538.93,142.36L539.86,205.84L540.79,172.35L541.72,212.96L542.65,163.91L543.58,183.21L544.51,152L545.44,184.02L546.37,151.94L547.29,303.12L548.22,229.21L549.15,201.44L550.08,158.65L551.01,142.38L551.94,239.13L552.87,352.76L553.8,330.86L554.73,355.06L555.66,360.86L556.59,355.02L557.52,310.68L558.45,341.55L559.38,336.69L560.31,354.7L561.24,316.57L562.17,103L563.1,120.04L564.03,114.53L564.96,130.93L565.89,120.18L566.82,125.04L567.75,136.4L568.68,116.34L569.61,187.12L570.54,161.31L571.47,153.85L572.4,140.09L573.33,193.93L574.26,204.7L575.19,199.65L576.11,203.06L577.04,196.68L577.97,140.7L578.9,195.71L579.83,135.95L580.76,112.71L581.69,166.32L582.62,139.17L583.55,161.36L584.48,204.37L585.41,252.05L586.34,188.78L587.27,172.89L588.2,181.28L589.13,145.94L590.06,187.3L590.99,175.28L591.92,128.28L592.85,223.14L593.78,238.83L594.71,193.25L595.64,200.7L596.57,183.11L597.5,181.92L598.43,223.02L599.36,214.1L600.29,164.63L601.22,188.46L602.15,225.82L603.08,327.08L604.01,258.83L604.93,256.41L605.86,254.72L606.79,249.07L607.72,317.95L608.65,458.99L609.58,468.95L610.51,491L611.44,429.48L612.37,413.99L613.3,357.46L614.23,331.15L615.16,331.92L616.09,358.23L617.02,298.51L617.95,177.08L618.88,137.1L619.81,133.63L620.74,120.59L621.67,138.32L622.6,130.55L623.53,137.82L624.46,148.12L625.39,192.18L626.32,184.27L627.25,157.35L628.18,132.76L629.11,108.46L630.04,134.01L630.97,189.59L631.9,177.25L632.83,135.47L633.75,145.71L634.68,147.24L635.61,158.93L636.54,143.73L637.47,161.55L638.4,133.33L639.33,206.6L640.26,158.51L641.19,142.31L642.12,161.32L643.05,150.16L643.98,171.38L644.91,146.6L645.84,143.57L646.77,175.34L647.7,164.63L648.63,324.24L649.56,137.91L650.49,215.59L651.42,225.02L652.35,266.11L653.28,268.52L654.21,219.17L655.14,189.82L656.07,187.09L657,211.13L657.93,204.45L658.86,297.13L659.79,180L660.72,158.6L661.65,187.96L662.57,193.56L663.5,181.03L664.43,335.55L665.36,346.19L666.29,356.77L667.22,389.68L668.15,309.96L669.08,308.62L670.01,346.64L670.94,309.24L671.87,323.38L672.8,320.52L673.73,131.13L674.66,117.89L675.59,115.42L676.52,151.05L677.45,189.38L678.38,155.99L679.31,166.07L680.24,145.86L681.17,230.27L682.1,209.26L683.03,179.62L683.96,141.81L684.89,154.93L685.82,163.23L686.75,260.42L687.68,164.5L688.61,181.6L689.54,152.75L690.47,146.01L691.39,224.06L692.32,166.71L693.25,167.67L694.18,197.17L695.11,195.21L696.04,205.85L696.97,172.89L697.9,142.81L698.83,180.49L699.76,172.17L700.69,142.24L701.62,176.86L702.55,134.92L703.48,179.47L704.41,185.72L705.34,179.82L706.27,287.35L707.2,164.6L708.13,197.92L709.06,212.3L709.99,184.73L710.92,211.35L711.85,226.86L712.78,205.54L713.71,215.57L714.64,387.37L715.57,230.02L716.5,215.7L717.43,204.76L718.36,224.65L719.29,249.15L720.21,421.92L721.14,372.02L722.07,457.36L723,412.45L723.93,395.18L724.86,381.81L725.79,384.88L726.72,339.95L727.65,396.49L728.58,317.59L729.51,121.84L730.44,131.8L731.37,114.7L732.3,149.54L733.23,130.41L734.16,128.59L735.09,138.85L736.02,177.72L736.95,216.47L737.88,172.51L738.81,179.3L739.74,172.91L740.67,171.29L741.6,184.77L742.53,237.71L743.46,178.21L744.39,146.23L745.32,160.41L746.25,131.96L747.18,188.77L748.11,146.96L749.03,149.59L749.96,167.48L750.89,157.61L751.82,152.9L752.75,215.64L753.68,149.7L754.61,165.84L755.54,141.89L756.47,152.95L757.4,181.99L758.33,178.67L759.26,156.19L760.19,130.1L761.12,165.21L762.05,244.59L762.98,190.38L763.91,213.62L764.84,204.04L765.77,198.28L766.7,185.37L767.63,235.23L768.56,209.5L769.49,176.47L770.42,296.4L771.35,160.77L772.28,170.21L773.21,215.43L774.14,202.46L775.07,215.84L776,384.02L776.93,372.59L777.85,364.32L778.78,413.18L779.71,354.88L780.64,332.68L781.57,396.3L782.5,386.21L783.43,385.42L784.36,302.17L785.29,138.32L786.22,138.26L787.15,117.68L788.08,133.76L789.01,119.63L789.94,137.28L790.87,217.53L791.8,144.47L792.73,200.28L793.66,159.41L794.59,179.3L795.52,238.48L796.45,164.42L797.38,161.49L798.31,184.63L799.24,143.36L800.17,170.92L801.1,205.84L802.03,132.92L802.96,156.3L803.89,148.09L804.82,138.82L805.75,168.57L806.67,184.03L807.6,159.41L808.53,151.99L809.46,134.46L810.39,151.19L811.32,197.15L812.25,168.22L813.18,109.1L814.11,159.07L815.04,133.26L815.97,112.23L816.9,201.39L817.83,185.06L818.76,215.12L819.69,172.09L820.62,174.25L821.55,202.24L822.48,205.51L823.41,232.63L824.34,216.96L825.27,190.32L826.2,320.25L827.13,257.93L828.06,277.36L828.99,248.3L829.92,279.26L830.85,295.99L831.78,517.14L832.71,498.59L833.64,467.41L834.57,513.37L835.49,382.28L836.42,375.19L837.35,418.61L838.28,349.44L839.21,365.71L840.14,323.99L841.07,179.79L842,150.48L842.93,145.84L843.86,138.61L844.79,99.2L845.72,146.18L846.65,161.57L847.58,140.71L848.51,181.84L849.44,144.07L850.37,142.11L851.3,130.18L852.23,204.16L853.16,158.32L854.09,153.93L855.02,177.17L855.95,115.67L856.88,103.07L857.81,148.46L858.74,65.361L859.67,105.65L860.6,104.63L861.53,119.28L862.46,151.97L863.39,151.2L864.31,145.92L865.24,109.23L866.17,130.27L867.1,133.75L868.03,104.8L868.96,132.01L869.89,102.35L870.82,115.35L871.75,127.15L872.68,145.15L873.61,170.86L874.54,198L875.47,193.82L876.4,195.27L877.33,169.63L878.26,186.19L879.19,171.72L880.12,244.95L881.05,182.52L881.98,340.32L882.91,238.31L883.84,190.25L884.77,196.96L885.7,187.9L886.63,280.48L887.56,388.89L888.49,324.21L889.42,374.57L890.35,386.89L891.28,332.88L892.21,359.24L893.13,406.81L894.06,325.62L894.99,358.23L895.92,320.13L896.85,152.68L897.78,113.01L898.71,98.546L899.64,182.04L900.57,104.29L901.5,183.94L902.43,165.24L903.36,140.5L904.29,215.57L905.22,201.39L906.15,168.29L907.08,159.13L908.01,165.77L908.94,199.72L909.87,166.31L910.8,278.95L911.73,170.8L912.66,154.78L913.59,145.64L914.52,183.63L915.45,125.69L916.38,158.75L917.31,194.76L918.24,166.28L919.17,121.99L920.1,157.18L921.03,115.68L921.95,128.79L922.88,136.19L923.81,146.96L924.74,134.04L925.67,153.07L926.6,144.86L927.53,100.27L928.46,182.47L929.39,244.06L930.32,174.63L931.25,193.9L932.18,195.29L933.11,177.88L934.04,177.31L934.97,253.39L935.9,213.17L936.83,183.88L937.76,296.4L938.69,252.98L939.62,237.73L940.55,259.47L941.48,306.48L942.41,321.76L943.34,540.96L944.27,512.36L945.2,518.2L946.13,491.94L947.06,414.99L947.99,383.6L948.92,407.9L949.85,501.64L950.77,384.58L951.7,357.3L952.63,151.8L953.56,153.07L954.49,149.52L955.42,139.08L956.35,166.99L957.28,138.74L958.21,158.29L959.14,171.88L960.07,201.47L961,162.87L961.93,219.24L962.86,167.29L963.79,210.76L964.72,162.67L965.65,150.91L966.58,132.04L967.51,107.7L968.44,118.47L969.37,125.94L970.3,125.95L971.23,121.73L972.16,133.41L973.09,116.26L974.02,114.99L974.95,179.52L975.88,116.83L976.81,114.25L977.74,134.57L978.67,107.62L979.59,123.16L980.52,160.48L981.45,146.77L982.38,120.77L983.31,145.36L984.24,134.33L985.17,158.48L986.1,194.14L987.03,254.68L987.96,210.12L988.89,189.78L989.82,180.21L990.75,178.53L991.68,197.81L992.61,165.94L993.54,403.37L994.47,210.11L995.4,253.62L996.33,237.39L997.26,218.38L998.19,255.44L999.12,443.15L1000,428.52L1001,576.76L1001.9,441.5L1002.8,417.22L1003.8,392.65L1004.7,358.57L1005.6,384.37L1006.6,369.13L1007.5,341.85L1008.4,117.36L1009.3,210.78L1010.3,140.88L1011.2,160.99L1012.1,174.5L1013.1,169.59L1014,173.14L1014.9,242.07L1015.9,227.5L1016.8,174.33L1017.7,206.38L1018.6,189.69L1019.6,160.88L1020.5,143.57L1021.4,167.04L1022.4,284.2L1023.3,131.19L1024.2,142.97L1025.1,123.24L1026.1,199.65L1027,124.4L1027.9,168.83L1028.9,225.14L1029.8,186.76L1030.7,165.71L1031.7,128.39L1032.6,127.42L1033.5,178.41L1034.4,157.35L1035.4,176.89L1036.3,95.009L1037.2,131.72L1038.2,154.55L1039.1,110.95L1040,136.84L1041,244.96L1041.9,245.4L1042.8,213.77L1043.7,198.21L1044.7,239.07L1045.6,211.36" style="fill:none;stroke:#7AC36A;stroke-width:1.875;stroke-dasharray:7.5,2.5" />
<path d="M1055,693.4L1080,693.4" style="fill:none;stroke:#F15A60;stroke-width:1.875" />
<text x="882.43" y="-686.35" transform="scale(1, -1)"
	style="font-family:Helvetica;font-weight:normal;font-style:normal;font-size:12pt">etcd v3 (no compression)</text>
<path d="M1055,678.7L1080,678.7" style="fill:none;stroke:#7AC36A;stroke-width:1.875;stroke-dasharray:7.5,2.5" />
<text x="939.94" y="-671.65" transform="scale(1, -1)"
	style="font-family:Helvetica;font-weight:normal;font-style:normal;font-size:12pt">etcd v3 (snappy)</text>
</g>
</svg>
