<?xml version="1.0"?>
<!-- Generated by SVGo and Plotinum VG -->
<svg width="12in" height="8in"
	xmlns="http://www.w3.org/2000/svg"
	xmlns:xlink="http://www.w3.org/1999/xlink">
<g transform="scale(1, -1) translate(0, -720)">
<path d="M0,0L1080,0L1080,720L0,720Z" style="fill:#FFFFFF" />
<text x="278.91" y="-705.6" transform="scale(1, -1)"
	style="font-family:Helvetica;font-weight:normal;font-style:normal;font-size:12pt">Write 500K keys, 1-client, 1-conn, 64-byte key, 1024-byte value (etcd v3), CPU</text>
<text x="541.5" y="-4.8486" transform="scale(1, -1)"
	style="font-family:Helvetica;font-weight:normal;font-style:normal;font-size:12pt">Second</text>
<text x="50.406" y="-19.498" transform="scale(1, -1)"
	style="font-family:Helvetica;font-weight:normal;font-style:normal;font-size:10pt">0</text>
<text x="323.56" y="-19.498" transform="scale(1, -1)"
	style="font-family:Helvetica;font-weight:normal;font-style:normal;font-size:10pt">300</text>
<text x="603.66" y="-19.498" transform="scale(1, -1)"
	style="font-family:Helvetica;font-weight:normal;font-style:normal;font-size:10pt">600</text>
<text x="883.77" y="-19.498" transform="scale(1, -1)"
	style="font-family:Helvetica;font-weight:normal;font-style:normal;font-size:10pt">900</text>
<path d="M53.882,31.498L53.882,41.498" style="fill:none;stroke:#000000;stroke-width:0.625" />
<path d="M333.99,31.498L333.99,41.498" style="fill:none;stroke:#000000;stroke-width:0.625" />
<path d="M614.09,31.498L614.09,41.498" style="fill:none;stroke:#000000;stroke-width:0.625" />
<path d="M894.2,31.498L894.2,41.498" style="fill:none;stroke:#000000;stroke-width:0.625" />
<path d="M147.25,36.498L147.25,41.498" style="fill:none;stroke:#000000;stroke-width:0.625" />
<path d="M240.62,36.498L240.62,41.498" style="fill:none;stroke:#000000;stroke-width:0.625" />
<path d="M427.36,36.498L427.36,41.498" style="fill:none;stroke:#000000;stroke-width:0.625" />
<path d="M520.72,36.498L520.72,41.498" style="fill:none;stroke:#000000;stroke-width:0.625" />
<path d="M707.46,36.498L707.46,41.498" style="fill:none;stroke:#000000;stroke-width:0.625" />
<path d="M800.83,36.498L800.83,41.498" style="fill:none;stroke:#000000;stroke-width:0.625" />
<path d="M987.57,36.498L987.57,41.498" style="fill:none;stroke:#000000;stroke-width:0.625" />
<path d="M53.882,41.498L1080,41.498" style="fill:none;stroke:#000000;stroke-width:0.625" />
<g transform="rotate(90)">
<text x="358.57" y="14.399" transform="scale(1, -1)"
	style="font-family:Helvetica;font-weight:normal;font-style:normal;font-size:12pt">CPU</text>
</g>
<text x="19.248" y="-144.77" transform="scale(1, -1)"
	style="font-family:Helvetica;font-weight:normal;font-style:normal;font-size:10pt">10</text>
<text x="19.248" y="-283.97" transform="scale(1, -1)"
	style="font-family:Helvetica;font-weight:normal;font-style:normal;font-size:10pt">20</text>
<text x="19.248" y="-423.17" transform="scale(1, -1)"
	style="font-family:Helvetica;font-weight:normal;font-style:normal;font-size:10pt">30</text>
<text x="19.248" y="-562.36" transform="scale(1, -1)"
	style="font-family:Helvetica;font-weight:normal;font-style:normal;font-size:10pt">40</text>
<path d="M36.625,150.65L46.625,150.65" style="fill:none;stroke:#000000;stroke-width:0.625" />
<path d="M36.625,289.84L46.625,289.84" style="fill:none;stroke:#000000;stroke-width:0.625" />
<path d="M36.625,429.04L46.625,429.04" style="fill:none;stroke:#000000;stroke-width:0.625" />
<path d="M36.625,568.24L46.625,568.24" style="fill:none;stroke:#000000;stroke-width:0.625" />
<path d="M41.625,81.05L46.625,81.05" style="fill:none;stroke:#000000;stroke-width:0.625" />
<path d="M41.625,220.25L46.625,220.25" style="fill:none;stroke:#000000;stroke-width:0.625" />
<path d="M41.625,359.44L46.625,359.44" style="fill:none;stroke:#000000;stroke-width:0.625" />
<path d="M41.625,498.64L46.625,498.64" style="fill:none;stroke:#000000;stroke-width:0.625" />
<path d="M41.625,637.84L46.625,637.84" style="fill:none;stroke:#000000;stroke-width:0.625" />
<path d="M46.625,48.06L46.625,700.75" style="fill:none;stroke:#000000;stroke-width:0.625" />
<path d="M53.882,49.313L54.816,129.07L55.749,191.43L56.683,242.8L57.617,283.72L58.55,318.52L59.484,347.05L60.418,369.33L61.351,390.62L62.285,409L63.219,424.86L64.152,439.76L65.086,452.84L66.02,464.95L66.953,474.98L67.887,483.88L68.821,493.35L69.754,501.01L70.688,509.08L71.622,514.65L72.556,521.61L73.489,526.06L74.423,531.63L75.357,536.08L76.29,540.68L77.224,545.13L78.158,549.17L79.091,553.48L80.025,557.8L80.959,561.97L81.892,566.01L82.826,569.35L83.76,573.25L84.693,575.75L85.627,579.09L86.561,581.6L87.494,584.11L88.428,587.31L89.362,590.37L90.295,593.43L91.229,596.63L92.163,598.44L93.097,600.25L94.03,602.9L94.964,604.71L95.898,606.66L96.831,609.16L97.765,611.25L98.699,613.34L99.632,615.56L100.57,616.68L101.5,618.21L102.43,618.77L103.37,620.16L104.3,621.27L105.23,622.25L106.17,623.08L107.1,623.78L108.04,624.75L108.97,625.59L109.9,626.98L110.84,628.37L111.77,629.34L112.7,630.32L113.64,631.57L114.57,632.96L115.5,634.08L116.44,635.47L117.37,636.3L118.31,637.56L119.24,638.53L120.17,639.64L121.11,640.76L122.04,641.45L122.97,642.85L123.91,643.54L124.84,644.38L125.78,645.77L126.71,646.74L127.64,647.72L128.58,648.83L129.51,649.81L130.44,650.08L131.38,651.48L132.31,652.17L133.24,652.87L134.18,654.12L135.11,653.98L136.05,654.4L136.98,655.37L137.91,656.21L138.85,656.63L139.78,657.32L140.71,658.02L141.65,658.44L142.58,658.99L143.52,659.69L144.45,660.52L145.38,660.52L146.32,660.94L147.25,661.08L148.18,661.36L149.12,662.19L150.05,662.75L150.98,662.75L151.92,663.03L152.85,663.17L153.79,663.59L154.72,663.86L155.65,664L156.59,664L157.52,663.59L158.45,663.59L159.39,663.45L160.32,663.45L161.26,663.45L162.19,663.73L163.12,663.59L164.06,663.31L164.99,663.73L165.92,664.14L166.86,664.42L167.79,665.12L168.72,665.12L169.66,665.12L170.59,665.67L171.53,665.95L172.46,666.23L173.39,666.23L174.33,666.51L175.26,666.79L176.19,666.65L177.13,666.65L178.06,667.21L179,667.62L179.93,667.9L180.86,668.04L181.8,668.46L182.73,668.74L183.66,669.15L184.6,669.29L185.53,669.15L186.46,669.29L187.4,669.43L188.33,669.43L189.27,669.15L190.2,669.29L191.13,669.57L192.07,669.71L193,669.99L193.93,669.99L194.87,670.13L195.8,670.82L196.74,671.1L197.67,671.38L198.6,671.8L199.54,672.08L200.47,672.36L201.4,672.63L202.34,673.19L203.27,673.75L204.2,674.03L205.14,674.58L206.07,675L207.01,675.28L207.94,675.56L208.87,675.98L209.81,676.25L210.74,676.39L211.67,676.25L212.61,676.53L213.54,676.39L214.48,676.53L215.41,676.25L216.34,676.25L217.28,676.53L218.21,676.39L219.14,676.39L220.08,676.39L221.01,676.67L221.94,677.09L222.88,677.37L223.81,677.65L224.75,678.06L225.68,678.34L226.61,678.48L227.55,678.9L228.48,679.32L229.41,679.32L230.35,679.59L231.28,679.73L232.22,680.15L233.15,680.15L234.08,680.15L235.02,680.43L235.95,680.71L236.88,680.85L237.82,681.13L238.75,681.4L239.68,681.54L240.62,681.82L241.55,681.96L242.49,682.24L243.42,682.52L244.35,682.38L245.29,682.38L246.22,682.93L247.15,682.93L248.09,682.93L249.02,683.07L249.96,683.07L250.89,683.35L251.82,683.63L252.76,683.63L253.69,683.63L254.62,684.19L255.56,684.33L256.49,684.47L257.42,684.61L258.36,685.02L259.29,685.02L260.23,685.02L261.16,685.02L262.09,685.16L263.03,685.16L263.96,685.3L264.89,685.3L265.83,685.16L266.76,685.58L267.7,685.44L268.63,685.16L269.56,684.74L270.5,684.61L271.43,684.47L272.36,684.47L273.3,684.19L274.23,683.91L275.16,683.63L276.1,683.49L277.03,683.21L277.97,683.49L278.9,683.21L279.83,682.93L280.77,683.07L281.7,683.21L282.63,682.93L283.57,682.8L284.5,682.8L285.44,682.66L286.37,682.52L287.3,682.38L288.24,682.24L289.17,681.96L290.1,681.96L291.04,681.96L291.97,681.68L292.9,681.54L293.84,681.54L294.77,681.68L295.71,681.82L296.64,681.68L297.57,681.54L298.51,681.68L299.44,681.82L300.37,681.96L301.31,682.1L302.24,681.96L303.18,681.96L304.11,682.1L305.04,682.38L305.98,682.24L306.91,682.38L307.84,682.38L308.78,682.66L309.71,682.52L310.64,682.66L311.58,682.8L312.51,682.66L313.45,682.8L314.38,682.93L315.31,682.93L316.25,683.07L317.18,683.07L318.11,683.21L319.05,683.35L319.98,683.35L320.92,683.35L321.85,683.49L322.78,683.35L323.72,683.49L324.65,683.35L325.58,683.07L326.52,682.93L327.45,682.66L328.38,682.38L329.32,682.38L330.25,682.24L331.19,681.96L332.12,681.54L333.05,681.4L333.99,681.26L334.92,681.4L335.85,681.26L336.79,680.99L337.72,680.85L338.66,680.85L339.59,680.71L340.52,680.71L341.46,680.57L342.39,680.57L343.32,680.43L344.26,680.29L345.19,680.15L346.12,680.29L347.06,680.29L347.99,679.87L348.93,679.73L349.86,679.73L350.79,680.01L351.73,679.73L352.66,679.59L353.59,679.59L354.53,679.32L355.46,679.45L356.4,679.32L357.33,679.32L358.26,679.18L359.2,679.04L360.13,679.04L361.06,679.59L362,679.59L362.93,679.59L363.86,679.59L364.8,679.59L365.73,679.73L366.67,679.73L367.6,679.87L368.53,679.73L369.47,679.87L370.4,679.73L371.33,679.87L372.27,680.15L373.2,680.29L374.14,680.29L375.07,680.29L376,680.15L376.94,680.57L377.87,680.71L378.8,680.57L379.74,680.57L380.67,680.43L381.6,680.43L382.54,680.15L383.47,680.29L384.41,680.15L385.34,680.01L386.27,679.87L387.21,679.59L388.14,679.32L389.07,679.18L390.01,679.32L390.94,679.45L391.88,679.32L392.81,679.18L393.74,679.04L394.68,679.04L395.61,679.32L396.54,679.32L397.48,679.18L398.41,679.45L399.34,679.32L400.28,679.73L401.21,679.59L402.15,679.73L403.08,679.87L404.01,679.87L404.95,679.87L405.88,680.29L406.81,680.43L407.75,680.29L408.68,680.43L409.62,680.57L410.55,680.57L411.48,680.85L412.42,680.71L413.35,680.85L414.28,680.85L415.22,680.85L416.15,681.13L417.08,681.26L418.02,681.4L418.95,681.4L419.89,681.4L420.82,681.4L421.75,681.68L422.69,681.82L423.62,681.82L424.55,681.82L425.49,681.68L426.42,681.82L427.36,681.96L428.29,682.24L429.22,682.24L430.16,682.38L431.09,682.38L432.02,682.38L432.96,682.52L433.89,682.8L434.82,682.8L435.76,682.66L436.69,682.66L437.63,682.38L438.56,682.38L439.49,682.52L440.43,682.52L441.36,682.24L442.29,682.24L443.23,682.1L444.16,682.24L445.1,682.38L446.03,682.38L446.96,682.52L447.9,682.52L448.83,682.52L449.76,682.38L450.7,682.38L451.63,682.24L452.56,682.52L453.5,682.66L454.43,682.66L455.37,682.66L456.3,682.66L457.23,682.93L458.17,682.93L459.1,682.93L460.03,683.07L460.97,683.07L461.9,683.07L462.84,683.21L463.77,683.21L464.7,683.35L465.64,683.35L466.57,683.21L467.5,683.21L468.44,683.21L469.37,683.49L470.3,683.63L471.24,683.63L472.17,683.63L473.11,683.77L474.04,683.63L474.97,683.77L475.91,683.91L476.84,683.77L477.77,683.91L478.71,683.77L479.64,683.77L480.58,683.63L481.51,683.63L482.44,683.77L483.38,683.77L484.31,683.77L485.24,683.77L486.18,683.77L487.11,683.77L488.04,683.91L488.98,684.05L489.91,683.91L490.85,683.77L491.78,683.77L492.71,683.77L493.65,683.63L494.58,683.49L495.51,683.35L496.45,683.21L497.38,683.21L498.32,683.21L499.25,683.07L500.18,682.93L501.12,682.93L502.05,682.93L502.98,682.93L503.92,682.93L504.85,682.8L505.78,682.8L506.72,682.66L507.65,682.8L508.59,682.8L509.52,682.66L510.45,682.66L511.39,682.52L512.32,682.52L513.25,682.52L514.19,682.38L515.12,682.24L516.06,682.24L516.99,682.38L517.92,682.38L518.86,682.52L519.79,682.38L520.72,682.24L521.66,682.1L522.59,682.1L523.52,682.38L524.46,682.24L525.39,682.24L526.33,682.1L527.26,682.1L528.19,682.24L529.13,682.52L530.06,682.52L530.99,682.66L531.93,682.8L532.86,682.8L533.8,682.93L534.73,682.93L535.66,683.07L536.6,683.21L537.53,683.49L538.46,683.63L539.4,683.63L540.33,683.63L541.26,683.63L542.2,683.63L543.13,683.91L544.07,684.05L545,683.91L545.93,683.91L546.87,683.91L547.8,684.05L548.73,684.05L549.67,683.91L550.6,684.05L551.54,684.05L552.47,683.91L553.4,683.91L554.34,683.91L555.27,683.91L556.2,683.77L557.14,683.77L558.07,683.91L559,684.05L559.94,684.19L560.87,684.19L561.81,684.19L562.74,684.19L563.67,684.47L564.61,684.47L565.54,684.47L566.47,684.61L567.41,684.61L568.34,684.74L569.28,684.74L570.21,684.74L571.14,684.88L572.08,684.88L573.01,685.02L573.94,685.16L574.88,685.16L575.81,685.02L576.74,685.02L577.68,685.02L578.61,685.16L579.55,685.02L580.48,685.16L581.41,685.02L582.35,684.88L583.28,685.02L584.21,685.02L585.15,684.88L586.08,685.02L587.02,684.88L587.95,685.02L588.88,685.16L589.82,685.3L590.75,685.3L591.68,685.3L592.62,685.16L593.55,685.44L594.48,685.58L595.42,685.72L596.35,685.72L597.29,685.86L598.22,685.86L599.15,686L600.09,686.14L601.02,686.41L601.95,686.41L602.89,686.41L603.82,686.55L604.76,686.55L605.69,686.55L606.62,686.41L607.56,686.41L608.49,686.41L609.42,686.55L610.36,686.55L611.29,686.41L612.22,686.41L613.16,686.41L614.09,686.41L615.03,686.55L615.96,686.83L616.89,686.97L617.83,687.11L618.76,687.11L619.69,687.11L620.63,687.25L621.56,687.39L622.5,687.39L623.43,687.53L624.36,687.53L625.3,687.81L626.23,687.81L627.16,687.81L628.1,687.81L629.03,687.81L629.96,688.09L630.9,688.22L631.83,688.22L632.77,688.22L633.7,688.22L634.63,688.22L635.57,688.5L636.5,688.78L637.43,688.64L638.37,688.64L639.3,688.78L640.24,688.92L641.17,688.92L642.1,689.06L643.04,689.06L643.97,689.06L644.9,689.06L645.84,689.06L646.77,689.06L647.7,688.92L648.64,688.92L649.57,688.78L650.51,688.78L651.44,688.78L652.37,689.06L653.31,689.06L654.24,689.06L655.17,689.06L656.11,689.06L657.04,689.06L657.98,689.2L658.91,689.2L659.84,689.2L660.78,689.2L661.71,689.06L662.64,688.92L663.58,688.78L664.51,688.5L665.44,688.64L666.38,688.5L667.31,688.36L668.25,688.22L669.18,688.36L670.11,688.5L671.05,688.36L671.98,688.5L672.91,688.36L673.85,688.36L674.78,688.36L675.72,688.22L676.65,688.36L677.58,688.5L678.52,688.64L679.45,688.64L680.38,688.64L681.32,688.64L682.25,688.64L683.18,688.64L684.12,688.78L685.05,688.92L685.99,688.92L686.92,688.92L687.85,689.06L688.79,689.06L689.72,689.06L690.65,689.2L691.59,689.2L692.52,689.48L693.46,689.48L694.39,689.48L695.32,689.62L696.26,689.62L697.19,689.48L698.12,689.48L699.06,689.76L699.99,689.89L700.92,689.89L701.86,690.03L702.79,690.03L703.73,690.03L704.66,689.89L705.59,690.03L706.53,690.03L707.46,690.17L708.39,690.17L709.33,690.31L710.26,690.31L711.2,690.45L712.13,690.59L713.06,690.45L714,690.59L714.93,690.59L715.86,690.73L716.8,690.73L717.73,691.01L718.66,690.87L719.6,690.87L720.53,690.73L721.47,690.73L722.4,690.73L723.33,690.59L724.27,690.73L725.2,690.87L726.13,690.87L727.07,690.87L728,691.01L728.94,690.87L729.87,691.01L730.8,691.01L731.74,691.15L732.67,691.15L733.6,691.15L734.54,691.29L735.47,691.43L736.4,691.43L737.34,691.43L738.27,691.43L739.21,691.43L740.14,691.43L741.07,691.56L742.01,691.56L742.94,691.56L743.87,691.56L744.81,691.56L745.74,691.56L746.67,691.56L747.61,691.7L748.54,691.7L749.48,691.7L750.41,691.7L751.34,691.7L752.28,691.7L753.21,691.84L754.14,691.98L755.08,691.84L756.01,691.84L756.95,692.12L757.88,692.12L758.81,692.26L759.75,692.4L760.68,692.26L761.61,692.26L762.55,692.26L763.48,692.26L764.41,692.26L765.35,692.4L766.28,692.54L767.22,692.54L768.15,692.68L769.08,692.68L770.02,692.68L770.95,692.54L771.88,692.54L772.82,692.4L773.75,692.54L774.69,692.4L775.62,692.4L776.55,692.4L777.49,692.12L778.42,692.26L779.35,692.12L780.29,691.98L781.22,692.12L782.15,692.12L783.09,691.98L784.02,691.98L784.96,691.98L785.89,691.84L786.82,691.84L787.76,691.98L788.69,691.98L789.62,691.84L790.56,691.84L791.49,691.7L792.43,691.56L793.36,691.56L794.29,691.7L795.23,691.7L796.16,691.56L797.09,691.56L798.03,691.43L798.96,691.43L799.89,691.29L800.83,691.29L801.76,691.29L802.7,691.15L803.63,691.29L804.56,691.15L805.5,691.15L806.43,691.15L807.36,691.15L808.3,691.29L809.23,691.15L810.17,691.15L811.1,691.15L812.03,691.15L812.97,691.29L813.9,691.29L814.83,691.15L815.77,691.43L816.7,691.43L817.63,691.43L818.57,691.29L819.5,691.29L820.44,691.29L821.37,691.29L822.3,691.29L823.24,691.43L824.17,691.43L825.1,691.56L826.04,691.56L826.97,691.43L827.91,691.29L828.84,691.29L829.77,691.15L830.71,691.29L831.64,691.15L832.57,691.01L833.51,691.01L834.44,691.01L835.37,690.87L836.31,690.87L837.24,690.87L838.18,690.87L839.11,690.87L840.04,690.87L840.98,690.87L841.91,690.87L842.84,690.73L843.78,690.87L844.71,690.87L845.65,690.87L846.58,691.01L847.51,691.01L848.45,691.01L849.38,691.01L850.31,691.01L851.25,691.15L852.18,691.29L853.11,691.29L854.05,691.29L854.98,691.29L855.92,691.43L856.85,691.29L857.78,691.43L858.72,691.43L859.65,691.43L860.58,691.43L861.52,691.56L862.45,691.43L863.39,691.43L864.32,691.56L865.25,691.7L866.19,691.7L867.12,691.56L868.05,691.56L868.99,691.56L869.92,691.56L870.85,691.56L871.79,691.84L872.72,691.84L873.66,691.84L874.59,691.98L875.52,691.98L876.46,691.98L877.39,691.98L878.32,692.12L879.26,692.12L880.19,692.12L881.13,692.12L882.06,692.26L882.99,692.4L883.93,692.4L884.86,692.68L885.79,692.54L886.73,692.68L887.66,692.54L888.59,692.54L889.53,692.54L890.46,692.54L891.4,692.4L892.33,692.54L893.26,692.54L894.2,692.68L895.13,692.82L896.06,692.82L897,692.82L897.93,692.82L898.87,692.96L899.8,692.96L900.73,692.96L901.67,693.24L902.6,693.24L903.53,693.24L904.47,693.24L905.4,693.24L906.33,693.37L907.27,693.51L908.2,693.51L909.14,693.51L910.07,693.65L911,693.51L911.94,693.51L912.87,693.51L913.8,693.79L914.74,693.79L915.67,693.79L916.61,693.79L917.54,693.79L918.47,693.79L919.41,693.79L920.34,693.93L921.27,693.93L922.21,693.93L923.14,693.93L924.07,694.07L925.01,694.07L925.94,694.07L926.88,693.93L927.81,693.93L928.74,693.93L929.68,693.93L930.61,693.93L931.54,693.93L932.48,693.93L933.41,693.93L934.35,693.93L935.28,694.07L936.21,694.07L937.15,694.21L938.08,694.07L939.01,694.07L939.95,694.07L940.88,694.07L941.81,694.21L942.75,694.07L943.68,694.07L944.62,693.93L945.55,694.07L946.48,694.21L947.42,694.07L948.35,694.07L949.28,694.07L950.22,694.07L951.15,694.07L952.09,694.07L953.02,694.21L953.95,694.07L954.89,694.07L955.82,694.07L956.75,694.07L957.69,694.07L958.62,693.93L959.55,693.93L960.49,693.93L961.42,693.79L962.36,693.79L963.29,693.79L964.22,693.79L965.16,693.65L966.09,693.65L967.02,693.65L967.96,693.65L968.89,693.79L969.83,693.79L970.76,693.79L971.69,693.65L972.63,693.65L973.56,693.79L974.49,693.79L975.43,693.79L976.36,693.93L977.29,693.79L978.23,693.79L979.16,693.79L980.1,693.79L981.03,693.79L981.96,693.79L982.9,693.79L983.83,693.65L984.76,693.79L985.7,693.79L986.63,693.79L987.57,693.79L988.5,693.79L989.43,693.93L990.37,693.93L991.3,693.93L992.23,694.07L993.17,694.21L994.1,694.21L995.03,694.21L995.97,694.35L996.9,694.35L997.84,694.35L998.77,694.35L999.7,694.21L1000.6,694.35L1001.6,694.49L1002.5,694.35L1003.4,694.35L1004.4,694.35L1005.3,694.35L1006.2,694.35L1007.2,694.21L1008.1,694.35L1009,694.49L1010,694.49L1010.9,694.35L1011.8,694.49L1012.8,694.49L1013.7,694.49L1014.6,694.49L1015.6,694.49L1016.5,694.49L1017.4,694.49L1018.4,694.63L1019.3,694.63L1020.2,694.63L1021.2,694.49L1022.1,694.63L1023,694.63L1024,694.77L1024.9,694.77L1025.8,694.77L1026.8,694.77L1027.7,694.77L1028.6,694.91L1029.6,694.91L1030.5,694.77L1031.4,694.77L1032.4,695.04L1033.3,695.04L1034.2,694.91L1035.2,694.91L1036.1,694.91L1037.1,694.77L1038,694.91L1038.9,694.77L1039.9,694.91L1040.8,694.91L1041.7,694.91L1042.7,694.77L1043.6,694.77L1044.5,694.91L1045.5,694.91L1046.4,694.91L1047.3,694.77L1048.3,694.77L1049.2,694.77L1050.1,694.91L1051.1,694.91L1052,695.04L1052.9,694.91L1053.9,694.77L1054.8,694.77L1055.7,694.63L1056.7,694.49L1057.6,694.63L1058.5,694.49L1059.5,694.49L1060.4,694.49L1061.3,694.49L1062.3,694.49L1063.2,694.49L1064.1,694.35L1065.1,694.49L1066,694.49L1066.9,694.49L1067.9,694.63L1068.8,694.63L1069.7,694.77L1070.7,694.77L1071.6,694.77L1072.5,694.77L1073.5,694.77L1074.4,694.77L1075.3,695.04L1076.3,695.04L1077.2,695.04L1078.1,695.04L1079.1,695.04L1080,695.18" style="fill:none;stroke:#F15A60;stroke-width:1.875" />
<path d="M53.882,48.06L54.816,123.5L55.749,183.36L56.683,232.22L57.617,273.84L58.55,308.64L59.484,339.96L60.418,364.04L61.351,386.03L62.285,404.96L63.219,420.97L64.152,435.17L65.086,447.83L66.02,458.83L66.953,467.74L67.887,478.04L68.821,486.11L69.754,494.18L70.688,501.14L71.622,509.5L72.556,516.04L73.489,522.16L74.423,528.57L75.357,533.86L76.29,538.59L77.224,543.18L78.158,547.78L79.091,551.39L80.025,555.43L80.959,558.08L81.892,561.56L82.826,564.2L83.76,566.15L84.693,569.21L85.627,571.44L86.561,574.78L87.494,577.15L88.428,579.37L89.362,582.99L90.295,585.64L91.229,587.59L92.163,590.09L93.097,592.46L94.03,594.41L94.964,597.19L95.898,599.42L96.831,601.64L97.765,603.59L98.699,605.26L99.632,608.05L100.57,610L101.5,612.36L102.43,614.03L103.37,615.84L104.3,617.09L105.23,619.32L106.17,620.57L107.1,621.69L108.04,622.52L108.97,622.94L109.9,623.22L110.84,623.5L111.77,624.89L112.7,625.73L113.64,626.42L114.57,627.53L115.5,628.65L116.44,629.62L117.37,630.32L118.31,631.15L119.24,632.27L120.17,632.82L121.11,633.8L122.04,634.36L122.97,634.77L123.91,635.33L124.84,635.89L125.78,636.16L126.71,637L127.64,637.84L128.58,638.25L129.51,638.95L130.44,639.51L131.38,639.92L132.31,640.34L133.24,641.32L134.18,641.73L135.11,642.29L136.05,642.85L136.98,643.26L137.91,643.82L138.85,644.1L139.78,644.1L140.71,644.8L141.65,645.07L142.58,645.49L143.52,645.91L144.45,646.19L145.38,646.88L146.32,647.16L147.25,647.86L148.18,648.27L149.12,648.69L150.05,649.39L150.98,649.81L151.92,650.22L152.85,650.5L153.79,651.34L154.72,651.62L155.65,652.03L156.59,653.01L157.52,653.43L158.45,653.84L159.39,654.26L160.32,654.4L161.26,654.54L162.19,654.54L163.12,654.68L164.06,654.4L164.99,654.26L165.92,654.26L166.86,654.12L167.79,654.54L168.72,654.54L169.66,654.82L170.59,655.1L171.53,655.65L172.46,655.51L173.39,655.79L174.33,655.93L175.26,656.07L176.19,656.07L177.13,656.21L178.06,656.63L179,656.91L179.93,657.18L180.86,657.32L181.8,657.74L182.73,657.88L183.66,658.3L184.6,658.71L185.53,658.99L186.46,659.13L187.4,659.69L188.33,660.11L189.27,660.39L190.2,660.66L191.13,661.22L192.07,661.5L193,661.64L193.93,661.78L194.87,662.47L195.8,662.61L196.74,663.03L197.67,663.45L198.6,663.73L199.54,663.86L200.47,664.56L201.4,664.56L202.34,664.98L203.27,664.84L204.2,665.54L205.14,665.81L206.07,665.95L207.01,666.09L207.94,666.65L208.87,666.93L209.81,666.93L210.74,667.07L211.67,667.48L212.61,667.9L213.54,668.32L214.48,668.6L215.41,669.29L216.34,669.43L217.28,669.57L218.21,669.99L219.14,670.41L220.08,670.69L221.01,670.55L221.94,670.41L222.88,670.55L223.81,670.69L224.75,670.55L225.68,670.82L226.61,670.82L227.55,671.38L228.48,671.38L229.41,671.52L230.35,671.38L231.28,671.66L232.22,671.66L233.15,671.66L234.08,671.66L235.02,671.94L235.95,671.8L236.88,671.8L237.82,671.94L238.75,672.22L239.68,672.22L240.62,672.22L241.55,672.22L242.49,672.5L243.42,672.5L244.35,672.22L245.29,672.63L246.22,672.63L247.15,672.77L248.09,672.63L249.02,672.36L249.96,672.91L250.89,672.77L251.82,672.77L252.76,672.63L253.69,672.91L254.62,672.91L255.56,672.91L256.49,673.05L257.42,673.19L258.36,673.61L259.29,673.61L260.23,673.75L261.16,674.17L262.09,674.17L263.03,674.44L263.96,674.44L264.89,674.58L265.83,674.86L266.76,674.86L267.7,674.72L268.63,674.86L269.56,674.86L270.5,675.28L271.43,675.56L272.36,675.56L273.3,675.56L274.23,675.84L275.16,676.11L276.1,675.98L277.03,676.11L277.97,675.84L278.9,675.98L279.83,676.11L280.77,675.98L281.7,675.84L282.63,675.98L283.57,676.11L284.5,676.11L285.44,676.25L286.37,676.25L287.3,676.25L288.24,676.39L289.17,676.25L290.1,676.39L291.04,676.25L291.97,676.25L292.9,676.25L293.84,676.53L294.77,676.53L295.71,676.67L296.64,676.67L297.57,676.81L298.51,676.81L299.44,676.67L300.37,676.81L301.31,676.95L302.24,676.95L303.18,677.09L304.11,677.09L305.04,676.95L305.98,677.37L306.91,677.37L307.84,677.37L308.78,677.51L309.71,677.51L310.64,677.65L311.58,677.78L312.51,677.78L313.45,677.78L314.38,678.06L315.31,678.2L316.25,678.2L317.18,678.34L318.11,678.34L319.05,678.62L319.98,678.76L320.92,678.76L321.85,678.76L322.78,678.9L323.72,679.04L324.65,679.18L325.58,679.32L326.52,679.32L327.45,679.18L328.38,679.45L329.32,679.45L330.25,679.45L331.19,679.32L332.12,679.45L333.05,679.32L333.99,679.18L334.92,679.18L335.85,679.45L336.79,679.45L337.72,679.45L338.66,679.59L339.59,679.73L340.52,680.01L341.46,680.01L342.39,679.87L343.32,680.01L344.26,680.15L345.19,680.15L346.12,680.29L347.06,680.15L347.99,680.15L348.93,680.15L349.86,680.43L350.79,680.29L351.73,680.29L352.66,680.43L353.59,680.57L354.53,680.57L355.46,680.85L356.4,680.85L357.33,681.13L358.26,681.26L359.2,681.26L360.13,681.54L361.06,681.54L362,681.54L362.93,681.82L363.86,681.82L364.8,681.96L365.73,681.96L366.67,681.96L367.6,682.1L368.53,682.1L369.47,682.52L370.4,682.52L371.33,682.38L372.27,682.52L373.2,682.66L374.14,682.8L375.07,682.93L376,682.93L376.94,683.07L377.87,683.35L378.8,683.35L379.74,683.49L380.67,683.35L381.6,683.49L382.54,683.49L383.47,683.63L384.41,683.63L385.34,683.91L386.27,683.77L387.21,683.77L388.14,683.63L389.07,683.63L390.01,683.49L390.94,683.49L391.88,683.49L392.81,683.49L393.74,683.49L394.68,683.35L395.61,683.63L396.54,683.63L397.48,683.63L398.41,683.63L399.34,683.63L400.28,683.63L401.21,683.63L402.15,683.77L403.08,683.77L404.01,683.63L404.95,683.63L405.88,683.63L406.81,683.63L407.75,683.77L408.68,683.77L409.62,683.77L410.55,683.63L411.48,683.77L412.42,683.77L413.35,683.91L414.28,683.91L415.22,683.91L416.15,683.91L417.08,684.05L418.02,684.05L418.95,684.19L419.89,684.05L420.82,684.19L421.75,684.33L422.69,684.33L423.62,684.47L424.55,684.61L425.49,684.61L426.42,684.61L427.36,684.74L428.29,684.88L429.22,684.88L430.16,685.02L431.09,685.02L432.02,685.16L432.96,685.16L433.89,685.3L434.82,685.58L435.76,685.58L436.69,685.72L437.63,685.72L438.56,685.86L439.49,686L440.43,686L441.36,686L442.29,686.14L443.23,686.14L444.16,686.14L445.1,686L446.03,685.86L446.96,686L447.9,686L448.83,686L449.76,686L450.7,686L451.63,686.14L452.56,686.14L453.5,686.28L454.43,686.41L455.37,686.28L456.3,686.41L457.23,686.55L458.17,686.55L459.1,686.41L460.03,686.69L460.97,686.69L461.9,686.69L462.84,686.69L463.77,686.97L464.7,686.83L465.64,686.97L466.57,686.97L467.5,686.97L468.44,686.97L469.37,686.97L470.3,687.11L471.24,687.25L472.17,687.25L473.11,687.11L474.04,687.25L474.97,687.39L475.91,687.25L476.84,687.39L477.77,687.39L478.71,687.25L479.64,687.11L480.58,687.39L481.51,687.39L482.44,687.25L483.38,687.53L484.31,687.67L485.24,687.67L486.18,687.67L487.11,687.81L488.04,687.95L488.98,687.95L489.91,688.09L490.85,688.09L491.78,688.09L492.71,688.22L493.65,688.09L494.58,688.22L495.51,688.22L496.45,688.36L497.38,688.22L498.32,688.22L499.25,688.09L500.18,688.22L501.12,688.09L502.05,688.09L502.98,688.09L503.92,687.95L504.85,688.09L505.78,687.95L506.72,687.81L507.65,687.81L508.59,688.09L509.52,688.22L510.45,688.09L511.39,688.09L512.32,688.09L513.25,688.09L514.19,688.09L515.12,688.09L516.06,688.22L516.99,688.22L517.92,688.22L518.86,688.09L519.79,688.22L520.72,688.36L521.66,688.5L522.59,688.5L523.52,688.64L524.46,688.64L525.39,688.5L526.33,688.5L527.26,688.78L528.19,688.92L529.13,688.78L530.06,688.78L530.99,688.92L531.93,688.92L532.86,688.78L533.8,689.06L534.73,689.2L535.66,689.06L536.6,689.06L537.53,689.06L538.46,689.2L539.4,689.2L540.33,689.34L541.26,689.34L542.2,689.48L543.13,689.48L544.07,689.48L545,689.48L545.93,689.48L546.87,689.48L547.8,689.89L548.73,689.89L549.67,689.89L550.6,689.89L551.54,690.17L552.47,690.31L553.4,690.31L554.34,690.45L555.27,690.59L556.2,690.73L557.14,690.73L558.07,690.59L559,690.59L559.94,690.45L560.87,690.45L561.81,690.59L562.74,690.59L563.67,690.59L564.61,690.73L565.54,690.73L566.47,690.73L567.41,690.59L568.34,690.73L569.28,690.87L570.21,690.87L571.14,690.87L572.08,690.87L573.01,690.87L573.94,690.87L574.88,691.01L575.81,691.01L576.74,691.15L577.68,691.15L578.61,691.15L579.55,691.15L580.48,691.01L581.41,691.15L582.35,691.15L583.28,691.29L584.21,691.15L585.15,691.29L586.08,691.29L587.02,691.29L587.95,691.15L588.88,691.29L589.82,691.29L590.75,691.43L591.68,691.43L592.62,691.29L593.55,691.29L594.48,691.29L595.42,691.29L596.35,691.43L597.29,691.56L598.22,691.7L599.15,691.7L600.09,691.7L601.02,691.7L601.95,691.7L602.89,691.98L603.82,691.84L604.76,691.98L605.69,691.98L606.62,691.98L607.56,692.12L608.49,692.12L609.42,692.12L610.36,692.12L611.29,692.12L612.22,692.26L613.16,692.4L614.09,692.26L615.03,692.12L615.96,692.12L616.89,691.98L617.83,692.12L618.76,692.12L619.69,692.26L620.63,692.26L621.56,692.4L622.5,692.4L623.43,692.4L624.36,692.26L625.3,692.26L626.23,692.4L627.16,692.54L628.1,692.54L629.03,692.54L629.96,692.54L630.9,692.68L631.83,692.68L632.77,692.68L633.7,692.54L634.63,692.96L635.57,692.96L636.5,692.82L637.43,692.82L638.37,692.82L639.3,692.82L640.24,692.96L641.17,692.82L642.1,693.1L643.04,692.96L643.97,693.1L644.9,692.96L645.84,692.82L646.77,692.82L647.7,692.82L648.64,692.82L649.57,692.96L650.51,693.1L651.44,693.1L652.37,693.24L653.31,693.24L654.24,693.24L655.17,693.24L656.11,693.24L657.04,693.51L657.98,693.51L658.91,693.51L659.84,693.51L660.78,693.51L661.71,693.79L662.64,693.79L663.58,693.79L664.51,693.79L665.44,693.93L666.38,694.21L667.31,694.35L668.25,694.35L669.18,694.21L670.11,694.07L671.05,694.07L671.98,694.07L672.91,694.21L673.85,694.07L674.78,694.49L675.72,694.35L676.65,694.49L677.58,694.35L678.52,694.49L679.45,694.35L680.38,694.35L681.32,694.49L682.25,694.49L683.18,694.63L684.12,694.49L685.05,694.49L685.99,694.49L686.92,694.49L687.85,694.49L688.79,694.49L689.72,694.35L690.65,694.63L691.59,694.77L692.52,694.63L693.46,694.63L694.39,694.49L695.32,694.49L696.26,694.63L697.19,694.49L698.12,694.63L699.06,694.77L699.99,694.63L700.92,694.77L701.86,694.63L702.79,694.63L703.73,694.63L704.66,694.49L705.59,694.63L706.53,694.91L707.46,694.77L708.39,694.77L709.33,694.77L710.26,694.77L711.2,694.91L712.13,694.91L713.06,694.91L714,694.91L714.93,695.18L715.86,695.32L716.8,695.46L717.73,695.46L718.66,695.46L719.6,695.46L720.53,695.32L721.47,695.6L722.4,695.6L723.33,695.6L724.27,695.74L725.2,695.6L726.13,695.6L727.07,695.46L728,695.6L728.94,695.46L729.87,695.46L730.8,695.46L731.74,695.46L732.67,695.46L733.6,695.74L734.54,695.74L735.47,695.6L736.4,695.6L737.34,695.6L738.27,695.6L739.21,695.46L740.14,695.46L741.07,695.46L742.01,695.6L742.94,695.6L743.87,695.6L744.81,695.6L745.74,695.46L746.67,695.46L747.61,695.46L748.54,695.46L749.48,695.32L750.41,695.6L751.34,695.6L752.28,695.6L753.21,695.6L754.14,695.6L755.08,695.46L756.01,695.46L756.95,695.6L757.88,695.6L758.81,695.74L759.75,695.74L760.68,695.6L761.61,695.6L762.55,695.74L763.48,695.74L764.41,695.74L765.35,695.74L766.28,695.74L767.22,696.02L768.15,696.02L769.08,696.02L770.02,696.02L770.95,696.02L771.88,696.02L772.82,696.16L773.75,696.16L774.69,696.16L775.62,696.3L776.55,696.44L777.49,696.44L778.42,696.44L779.35,696.72L780.29,696.58L781.22,696.44L782.15,696.44L783.09,696.44L784.02,696.3L784.96,696.44L785.89,696.58L786.82,696.58L787.76,696.58L788.69,696.58L789.62,696.44L790.56,696.58L791.49,696.58L792.43,696.58L793.36,696.44L794.29,696.44L795.23,696.72L796.16,696.85L797.09,696.72L798.03,696.72L798.96,696.58L799.89,696.58L800.83,696.72L801.76,696.58L802.7,696.58L803.63,696.58L804.56,696.72L805.5,696.72L806.43,696.85L807.36,696.72L808.3,696.72L809.23,696.72L810.17,696.72L811.1,696.58L812.03,696.72L812.97,696.85L813.9,696.99L814.83,696.85L815.77,696.85L816.7,696.99L817.63,696.99L818.57,696.99L819.5,696.99L820.44,696.99L821.37,696.99L822.3,697.27L823.24,697.41L824.17,697.41L825.1,697.41L826.04,697.27L826.97,697.27L827.91,697.27L828.84,697.41L829.77,697.41L830.71,697.41L831.64,697.27L832.57,697.41L833.51,697.55L834.44,697.55L835.37,697.55L836.31,697.55L837.24,697.41L838.18,697.27L839.11,697.27L840.04,697.27L840.98,697.27L841.91,697.27L842.84,697.27L843.78,697.55L844.71,697.41L845.65,697.41L846.58,697.55L847.51,697.55L848.45,697.55L849.38,697.41L850.31,697.41L851.25,697.41L852.18,697.41L853.11,697.69L854.05,697.69L854.98,697.69L855.92,697.69L856.85,697.69L857.78,697.83L858.72,697.83L859.65,697.83L860.58,697.69L861.52,697.83L862.45,697.97L863.39,698.11L864.32,698.11L865.25,698.11L866.19,698.11L867.12,698.11L868.05,697.97L868.99,698.11L869.92,697.97L870.85,697.97L871.79,698.11L872.72,698.25L873.66,698.25L874.59,698.25L875.52,698.25L876.46,698.25L877.39,698.25L878.32,698.25L879.26,698.25L880.19,698.39L881.13,698.52L882.06,698.8L882.99,698.8L883.93,698.8L884.86,698.8L885.79,698.8L886.73,698.94L887.66,698.94L888.59,698.94L889.53,698.94L890.46,698.94L891.4,698.94L892.33,699.08L893.26,699.22L894.2,699.08L895.13,699.08L896.06,699.08L897,698.94L897.93,698.94L898.87,698.94L899.8,699.08L900.73,699.08L901.67,699.08L902.6,699.08L903.53,699.08L904.47,699.08L905.4,699.22L906.33,699.22L907.27,699.08L908.2,699.08L909.14,699.08L910.07,698.94L911,699.08L911.94,699.08L912.87,699.08L913.8,699.08L914.74,699.22L915.67,699.22L916.61,699.08L917.54,699.08L918.47,699.22L919.41,699.22L920.34,699.08L921.27,699.08L922.21,699.08L923.14,699.08L924.07,699.22L925.01,699.36L925.94,699.22L926.88,699.22L927.81,699.22L928.74,699.22L929.68,699.22L930.61,699.22L931.54,699.22L932.48,699.22L933.41,699.22L934.35,699.36L935.28,699.5L936.21,699.64L937.15,699.5L938.08,699.5L939.01,699.5L939.95,699.5L940.88,699.36L941.81,699.5L942.75,699.5L943.68,699.5L944.62,699.64L945.55,699.64L946.48,699.64L947.42,699.64L948.35,699.64L949.28,699.5L950.22,699.36L951.15,699.5L952.09,699.36L953.02,699.36L953.95,699.36L954.89,699.36L955.82,699.22L956.75,699.5L957.69,699.64L958.62,699.5L959.55,699.5L960.49,699.5L961.42,699.36L962.36,699.36L963.29,699.5L964.22,699.36L965.16,699.36L966.09,699.36L967.02,699.5L967.96,699.5L968.89,699.5L969.83,699.78L970.76,699.64L971.69,699.64L972.63,699.64L973.56,699.64L974.49,699.64L975.43,699.78L976.36,699.92L977.29,699.78L978.23,699.92L979.16,699.92L980.1,699.92L981.03,699.78L981.96,699.92L982.9,699.78L983.83,699.78L984.76,699.78L985.7,699.78L986.63,699.78L987.57,699.92L988.5,699.92L989.43,700.06L990.37,700.06L991.3,700.06L992.23,700.06L993.17,700.06L994.1,700.06L995.03,700.2L995.97,700.2L996.9,700.06L997.84,700.2L998.77,700.2L999.7,700.33L1000.6,700.33L1001.6,700.33L1002.5,700.33L1003.4,700.33L1004.4,700.33L1005.3,700.2L1006.2,700.2L1007.2,700.06L1008.1,700.06L1009,700.06L1010,700.06L1010.9,700.2L1011.8,700.2L1012.8,700.33L1013.7,700.33L1014.6,700.2L1015.6,700.2L1016.5,700.33L1017.4,700.2L1018.4,700.2L1019.3,700.2L1020.2,700.06L1021.2,700.2L1022.1,700.2L1023,700.2L1024,700.33L1024.9,700.33L1025.8,700.33L1026.8,700.33L1027.7,700.33L1028.6,700.2L1029.6,700.2L1030.5,700.33L1031.4,700.33L1032.4,700.33L1033.3,700.33L1034.2,700.33L1035.2,700.47L1036.1,700.47L1037.1,700.61L1038,700.61L1038.9,700.61L1039.9,700.61L1040.8,700.47L1041.7,700.61L1042.7,700.47L1043.6,700.75L1044.5,700.75L1045.5,700.75" style="fill:none;stroke:#7AC36A;stroke-width:1.875;stroke-dasharray:7.5,2.5" />
<path d="M1055,693.4L1080,693.4" style="fill:none;stroke:#F15A60;stroke-width:1.875" />
<text x="882.43" y="-686.35" transform="scale(1, -1)"
	style="font-family:Helvetica;font-weight:normal;font-style:normal;font-size:12pt">etcd v3 (no compression)</text>
<path d="M1055,678.7L1080,678.7" style="fill:none;stroke:#7AC36A;stroke-width:1.875;stroke-dasharray:7.5,2.5" />
<text x="939.94" y="-671.65" transform="scale(1, -1)"
	style="font-family:Helvetica;font-weight:normal;font-style:normal;font-size:12pt">etcd v3 (snappy)</text>
</g>
</svg>
