<?xml version="1.0"?>
<!-- Generated by SVGo and Plotinum VG -->
<svg width="12in" height="8in"
	xmlns="http://www.w3.org/2000/svg"
	xmlns:xlink="http://www.w3.org/1999/xlink">
<g transform="scale(1, -1) translate(0, -720)">
<path d="M0,0L1080,0L1080,720L0,720Z" style="fill:#FFFFFF" />
<text x="251.41" y="-705.6" transform="scale(1, -1)"
	style="font-family:Helvetica;font-weight:normal;font-style:normal;font-size:12pt">Write 500K keys, 1-client, 1-conn, 64-byte key, 1024-byte value (etcd v3), Memory(MB)</text>
<text x="544.98" y="-4.8486" transform="scale(1, -1)"
	style="font-family:Helvetica;font-weight:normal;font-style:normal;font-size:12pt">Second</text>
<text x="57.358" y="-19.498" transform="scale(1, -1)"
	style="font-family:Helvetica;font-weight:normal;font-style:normal;font-size:10pt">0</text>
<text x="328.61" y="-19.498" transform="scale(1, -1)"
	style="font-family:Helvetica;font-weight:normal;font-style:normal;font-size:10pt">300</text>
<text x="606.82" y="-19.498" transform="scale(1, -1)"
	style="font-family:Helvetica;font-weight:normal;font-style:normal;font-size:10pt">600</text>
<text x="885.03" y="-19.498" transform="scale(1, -1)"
	style="font-family:Helvetica;font-weight:normal;font-style:normal;font-size:10pt">900</text>
<path d="M60.834,31.498L60.834,41.498" style="fill:none;stroke:#000000;stroke-width:0.625" />
<path d="M339.04,31.498L339.04,41.498" style="fill:none;stroke:#000000;stroke-width:0.625" />
<path d="M617.25,31.498L617.25,41.498" style="fill:none;stroke:#000000;stroke-width:0.625" />
<path d="M895.46,31.498L895.46,41.498" style="fill:none;stroke:#000000;stroke-width:0.625" />
<path d="M153.57,36.498L153.57,41.498" style="fill:none;stroke:#000000;stroke-width:0.625" />
<path d="M246.31,36.498L246.31,41.498" style="fill:none;stroke:#000000;stroke-width:0.625" />
<path d="M431.78,36.498L431.78,41.498" style="fill:none;stroke:#000000;stroke-width:0.625" />
<path d="M524.51,36.498L524.51,41.498" style="fill:none;stroke:#000000;stroke-width:0.625" />
<path d="M709.98,36.498L709.98,41.498" style="fill:none;stroke:#000000;stroke-width:0.625" />
<path d="M802.72,36.498L802.72,41.498" style="fill:none;stroke:#000000;stroke-width:0.625" />
<path d="M988.19,36.498L988.19,41.498" style="fill:none;stroke:#000000;stroke-width:0.625" />
<path d="M60.834,41.498L1080,41.498" style="fill:none;stroke:#000000;stroke-width:0.625" />
<g transform="rotate(90)">
<text x="331.08" y="14.399" transform="scale(1, -1)"
	style="font-family:Helvetica;font-weight:normal;font-style:normal;font-size:12pt">Memory(MB)</text>
</g>
<text x="19.248" y="-186.34" transform="scale(1, -1)"
	style="font-family:Helvetica;font-weight:normal;font-style:normal;font-size:10pt">200</text>
<text x="19.248" y="-347.19" transform="scale(1, -1)"
	style="font-family:Helvetica;font-weight:normal;font-style:normal;font-size:10pt">400</text>
<text x="19.248" y="-508.03" transform="scale(1, -1)"
	style="font-family:Helvetica;font-weight:normal;font-style:normal;font-size:10pt">600</text>
<text x="19.248" y="-668.88" transform="scale(1, -1)"
	style="font-family:Helvetica;font-weight:normal;font-style:normal;font-size:10pt">800</text>
<path d="M43.577,192.22L53.577,192.22" style="fill:none;stroke:#000000;stroke-width:0.625" />
<path d="M43.577,353.06L53.577,353.06" style="fill:none;stroke:#000000;stroke-width:0.625" />
<path d="M43.577,513.91L53.577,513.91" style="fill:none;stroke:#000000;stroke-width:0.625" />
<path d="M43.577,674.75L53.577,674.75" style="fill:none;stroke:#000000;stroke-width:0.625" />
<path d="M48.577,111.8L53.577,111.8" style="fill:none;stroke:#000000;stroke-width:0.625" />
<path d="M48.577,272.64L53.577,272.64" style="fill:none;stroke:#000000;stroke-width:0.625" />
<path d="M48.577,433.48L53.577,433.48" style="fill:none;stroke:#000000;stroke-width:0.625" />
<path d="M48.577,594.33L53.577,594.33" style="fill:none;stroke:#000000;stroke-width:0.625" />
<path d="M53.577,48.06L53.577,700.75" style="fill:none;stroke:#000000;stroke-width:0.625" />
<path d="M60.834,51.205L61.761,57.438L62.688,61.032L63.616,64.008L64.543,67.836L65.471,69.308L66.398,70.739L67.325,73.57L68.253,74.688L69.18,76.787L70.107,78.13L71.035,80.052L71.962,80.913L72.889,82.803L73.817,83.535L74.744,85.047L75.671,86.454L76.599,88.046L77.526,89.647L78.454,90.129L79.381,92.598L80.308,92.823L81.236,95.662L82.163,96.7L83.09,97.118L84.018,97.263L84.945,97.456L85.872,97.761L86.8,98.541L87.727,98.598L88.654,98.598L89.582,98.598L90.509,99.796L91.437,99.796L92.364,101.79L93.291,103.05L94.219,104.54L95.146,106.46L96.073,108.45L97.001,109.29L97.928,111.49L98.855,111.7L99.783,112.77L100.71,115.91L101.64,116.24L102.56,117.5L103.49,118.68L104.42,118.87L105.35,119.1L106.27,119.1L107.2,119.63L108.13,119.78L109.06,119.78L109.98,119.78L110.91,119.78L111.84,119.78L112.77,119.95L113.69,120.11L114.62,120.11L115.55,120.59L116.48,121.78L117.4,122.17L118.33,122.44L119.26,124.32L120.18,124.67L121.11,125.82L122.04,127.08L122.97,128.92L123.89,129.4L124.82,130.1L125.75,130.47L126.68,130.84L127.6,131.17L128.53,131.46L129.46,131.96L130.39,132.38L131.31,132.38L132.24,132.38L133.17,132.38L134.1,132.74L135.02,133.14L135.95,133.69L136.88,133.69L137.8,134.7L138.73,134.86L139.66,135.11L140.59,140.11L141.51,140.21L142.44,140.73L143.37,140.84L144.3,141.12L145.22,141.45L146.15,141.53L147.08,141.53L148.01,141.71L148.93,141.71L149.86,141.98L150.79,142.18L151.71,142.37L152.64,143.09L153.57,143.88L154.5,144.11L155.42,144.71L156.35,144.71L157.28,145.18L158.21,145.18L159.13,145.18L160.06,146.61L160.99,148.42L161.92,150.13L162.84,150.13L163.77,152.96L164.7,154.41L165.63,154.72L166.55,155.17L167.48,156.48L168.41,156.67L169.33,156.67L170.26,156.67L171.19,156.67L172.12,156.67L173.04,158.99L173.97,159.39L174.9,159.39L175.83,159.9L176.75,161.31L177.68,161.81L178.61,161.99L179.54,162.29L180.46,163.27L181.39,163.62L182.32,164.13L183.24,164.48L184.17,166.73L185.1,168.06L186.03,168.48L186.95,169.12L187.88,169.23L188.81,169.23L189.74,169.23L190.66,169.23L191.59,169.23L192.52,169.63L193.45,169.63L194.37,169.63L195.3,169.63L196.23,169.76L197.16,170.83L198.08,170.83L199.01,171.03L199.94,171.37L200.86,171.73L201.79,173.82L202.72,173.82L203.65,174.86L204.57,177.99L205.5,179.39L206.43,179.51L207.36,179.67L208.28,179.81L209.21,180.36L210.14,180.36L211.07,180.95L211.99,181.91L212.92,181.91L213.85,182.03L214.78,182.03L215.7,182.03L216.63,182.21L217.56,182.81L218.48,183.54L219.41,184.03L220.34,184.29L221.27,184.29L222.19,184.29L223.12,187.1L224.05,187.78L224.98,187.78L225.9,188.38L226.83,189.88L227.76,190.29L228.69,190.29L229.61,190.29L230.54,191.16L231.47,191.16L232.39,191.94L233.32,192.41L234.25,192.41L235.18,192.71L236.1,193.33L237.03,193.33L237.96,193.33L238.89,193.68L239.81,194.07L240.74,196.4L241.67,199.28L242.6,199.5L243.52,200.72L244.45,200.88L245.38,202.99L246.31,203.24L247.23,204.02L248.16,204.02L249.09,204.23L250.01,204.23L250.94,204.54L251.87,204.54L252.8,204.54L253.72,204.54L254.65,204.79L255.58,205.9L256.51,206.19L257.43,206.19L258.36,206.52L259.29,207.09L260.22,209.05L261.14,210.1L262.07,210.1L263,211.32L263.93,213.3L264.85,213.3L265.78,214.06L266.71,214.06L267.63,214.14L268.56,214.5L269.49,214.5L270.42,214.77L271.34,214.96L272.27,215.24L273.2,215.24L274.13,215.25L275.05,215.25L275.98,217L276.91,217.27L277.84,218.44L278.76,219.59L279.69,220.04L280.62,220.04L281.54,220.04L282.47,222.54L283.4,224.21L284.33,224.21L285.25,224.91L286.18,225.4L287.11,225.4L288.04,225.4L288.96,225.95L289.89,226.41L290.82,226.41L291.75,226.41L292.67,226.71L293.6,226.71L294.53,226.71L295.46,227.5L296.38,227.5L297.31,228.29L298.24,228.29L299.16,228.29L300.09,229.09L301.02,229.82L301.95,229.82L302.87,230.4L303.8,232.24L304.73,234.7L305.66,238.02L306.58,238.02L307.51,238.36L308.44,238.7L309.37,239.15L310.29,239.97L311.22,239.97L312.15,239.97L313.08,239.97L314,240.66L314.93,240.74L315.86,240.74L316.78,240.74L317.71,241.85L318.64,242.4L319.57,242.4L320.49,242.4L321.42,242.92L322.35,242.92L323.28,244.51L324.2,247.77L325.13,247.77L326.06,247.77L326.99,249.33L327.91,250.85L328.84,251.63L329.77,251.63L330.69,251.63L331.62,251.75L332.55,251.75L333.48,251.75L334.4,251.91L335.33,251.91L336.26,253.11L337.19,253.23L338.11,253.23L339.04,253.23L339.97,254.26L340.9,254.54L341.82,254.54L342.75,255.09L343.68,255.09L344.61,255.61L345.53,256.66L346.46,256.97L347.39,260.42L348.31,260.66L349.24,260.91L350.17,264.41L351.1,265.27L352.02,265.57L352.95,266.35L353.88,266.54L354.81,266.84L355.73,267.05L356.66,267.05L357.59,268.22L358.52,268.22L359.44,268.22L360.37,268.22L361.3,268.22L362.23,268.36L363.15,268.58L364.08,268.58L365.01,268.58L365.93,269.45L366.86,269.7L367.79,269.7L368.72,270.3L369.64,270.79L370.57,273.67L371.5,277.06L372.43,277.9L373.35,277.9L374.28,278.5L375.21,278.77L376.14,278.99L377.06,279.68L377.99,279.81L378.92,280.44L379.84,280.72L380.77,280.72L381.7,280.72L382.63,280.72L383.55,281.56L384.48,281.77L385.41,281.77L386.34,281.77L387.26,282.13L388.19,283.39L389.12,283.75L390.05,283.75L390.97,285.02L391.9,285.27L392.83,285.27L393.76,285.67L394.68,289.78L395.61,290.24L396.54,290.7L397.46,290.78L398.39,290.87L399.32,291.06L400.25,291.46L401.17,293.33L402.1,293.61L403.03,294.29L403.96,294.29L404.88,294.29L405.81,294.57L406.74,295L407.67,295L408.59,295.32L409.52,295.95L410.45,298.18L411.38,298.18L412.3,299.07L413.23,299.69L414.16,301.6L415.08,303.44L416.01,305.73L416.94,305.9L417.87,306.01L418.79,306.01L419.72,307.02L420.65,307.02L421.58,307.51L422.5,307.95L423.43,307.95L424.36,307.95L425.29,308.15L426.21,308.9L427.14,309.25L428.07,309.56L428.99,309.74L429.92,309.9L430.85,309.9L431.78,310.49L432.7,310.82L433.63,311.12L434.56,311.12L435.49,311.59L436.41,312.47L437.34,312.47L438.27,312.47L439.2,312.47L440.12,312.79L441.05,312.79L441.98,312.79L442.91,313.19L443.83,313.71L444.76,314.73L445.69,314.73L446.61,315.27L447.54,315.27L448.47,316.44L449.4,318.17L450.32,318.17L451.25,318.17L452.18,320.76L453.11,320.86L454.03,321.15L454.96,321.55L455.89,324.01L456.82,328.13L457.74,328.46L458.67,328.57L459.6,328.73L460.52,329.16L461.45,330.05L462.38,330.41L463.31,330.41L464.23,330.41L465.16,330.83L466.09,331.56L467.02,331.77L467.94,332.49L468.87,333.12L469.8,333.12L470.73,333.12L471.65,333.79L472.58,336.08L473.51,337.48L474.44,339.03L475.36,339.03L476.29,339.03L477.22,340.26L478.14,340.26L479.07,340.26L480,340.62L480.93,340.93L481.85,341.47L482.78,341.63L483.71,341.63L484.64,342.78L485.56,342.78L486.49,343.28L487.42,343.28L488.35,343.28L489.27,343.78L490.2,344.01L491.13,344.96L492.06,345.86L492.98,347.3L493.91,347.85L494.84,348.32L495.76,348.32L496.69,350.86L497.62,350.94L498.55,351.5L499.47,351.5L500.4,351.62L501.33,351.78L502.26,351.78L503.18,352.37L504.11,352.89L505.04,353.16L505.97,353.41L506.89,354.3L507.82,354.3L508.75,354.3L509.67,354.63L510.6,354.9L511.53,355.27L512.46,355.27L513.38,356.56L514.31,358.59L515.24,359.5L516.17,359.96L517.09,360.8L518.02,361.39L518.95,361.39L519.88,364.45L520.8,366.54L521.73,366.76L522.66,367.13L523.59,367.13L524.51,367.13L525.44,367.13L526.37,367.93L527.29,368.57L528.22,368.77L529.15,368.77L530.08,368.77L531,368.77L531.93,368.77L532.86,369.38L533.79,369.93L534.71,369.93L535.64,370.85L536.57,371.25L537.5,372.87L538.42,373.02L539.35,373.45L540.28,374.54L541.21,377.32L542.13,378.37L543.06,378.48L543.99,378.61L544.91,378.79L545.84,380.51L546.77,380.51L547.7,381.05L548.62,381.59L549.55,381.59L550.48,381.59L551.41,381.59L552.33,382.34L553.26,383.26L554.19,383.26L555.12,383.72L556.04,383.72L556.97,383.99L557.9,385.66L558.82,385.66L559.75,386.09L560.68,386.3L561.61,389.29L562.53,389.29L563.46,391.13L564.39,391.3L565.32,391.86L566.24,392.24L567.17,393.52L568.1,393.52L569.03,393.6L569.95,393.6L570.88,393.6L571.81,393.84L572.74,393.84L573.66,394.01L574.59,395.03L575.52,395.41L576.44,397.36L577.37,397.77L578.3,398.33L579.23,398.33L580.15,398.33L581.08,398.33L582.01,400.26L582.94,401.14L583.86,403.65L584.79,403.82L585.72,403.82L586.65,404.76L587.57,405L588.5,405.38L589.43,405.38L590.36,405.71L591.28,405.78L592.21,406.19L593.14,406.19L594.06,406.48L594.99,406.79L595.92,406.79L596.85,406.79L597.77,409.49L598.7,409.82L599.63,410.69L600.56,410.96L601.48,410.96L602.41,410.96L603.34,413.39L604.27,413.99L605.19,414.45L606.12,414.45L607.05,415.69L607.97,415.69L608.9,416.1L609.83,416.75L610.76,417.63L611.68,417.63L612.61,418.16L613.54,418.26L614.47,418.26L615.39,418.79L616.32,419.02L617.25,419.52L618.18,420.26L619.1,421.86L620.03,424.07L620.96,424.4L621.89,424.8L622.81,424.8L623.74,424.8L624.67,425.18L625.59,425.18L626.52,428.03L627.45,428.03L628.38,428.03L629.3,428.03L630.23,428.03L631.16,430.62L632.09,430.76L633.01,430.87L633.94,431.1L634.87,431.44L635.8,432.04L636.72,432.04L637.65,433.55L638.58,434.72L639.51,436.62L640.43,437.4L641.36,438.41L642.29,438.41L643.21,438.53L644.14,438.53L645.07,439.19L646,439.44L646.92,439.85L647.85,439.85L648.78,439.85L649.71,440.14L650.63,440.47L651.56,440.47L652.49,441.18L653.42,441.18L654.34,441.18L655.27,441.85L656.2,442.68L657.12,443.42L658.05,443.61L658.98,443.61L659.91,443.61L660.83,446.96L661.76,450.6L662.69,451.05L663.62,453.6L664.54,454.02L665.47,454.33L666.4,454.56L667.33,454.72L668.25,455.07L669.18,455.07L670.11,455.64L671.04,455.64L671.96,455.64L672.89,457.47L673.82,457.73L674.74,458.01L675.67,458.25L676.6,458.25L677.53,459.46L678.45,459.46L679.38,460.24L680.31,461.37L681.24,461.69L682.16,461.69L683.09,461.69L684.02,461.69L684.95,461.69L685.87,461.98L686.8,463.29L687.73,463.29L688.65,463.82L689.58,463.82L690.51,463.82L691.44,464.34L692.36,464.34L693.29,464.87L694.22,464.87L695.15,464.87L696.07,465.24L697,465.24L697.93,465.48L698.86,465.66L699.78,465.66L700.71,466.66L701.64,472.3L702.57,472.75L703.49,475.87L704.42,476.93L705.35,477.73L706.27,478.75L707.2,478.75L708.13,479.05L709.06,479.44L709.98,479.44L710.91,480.08L711.84,480.75L712.77,480.98L713.69,481.23L714.62,481.23L715.55,481.45L716.48,481.95L717.4,482.83L718.33,483.2L719.26,483.56L720.19,485.31L721.11,485.98L722.04,487.14L722.97,487.14L723.89,487.61L724.82,488.05L725.75,488.36L726.68,488.55L727.6,488.98L728.53,488.98L729.46,488.98L730.39,489.88L731.31,490.46L732.24,490.46L733.17,490.83L734.1,490.83L735.02,492.07L735.95,492.35L736.88,492.98L737.8,493.28L738.73,493.28L739.66,493.28L740.59,493.73L741.51,495.93L742.44,496.74L743.37,496.74L744.3,496.74L745.22,496.91L746.15,496.91L747.08,497.34L748.01,497.34L748.93,498.46L749.86,498.71L750.79,498.71L751.72,498.79L752.64,499.49L753.57,500.03L754.5,500.03L755.42,501.88L756.35,504.08L757.28,504.9L758.21,506.26L759.13,507.65L760.06,508.47L760.99,511.49L761.92,512.19L762.84,512.72L763.77,512.96L764.7,513.59L765.63,513.59L766.55,513.59L767.48,513.86L768.41,514.09L769.34,514.62L770.26,514.62L771.19,514.75L772.12,514.75L773.04,514.75L773.97,515.34L774.9,515.34L775.83,517.32L776.75,517.99L777.68,518.19L778.61,518.19L779.54,519.01L780.46,519.95L781.39,519.95L782.32,519.95L783.25,519.95L784.17,519.95L785.1,519.95L786.03,520.55L786.95,520.8L787.88,521.2L788.81,521.2L789.74,521.2L790.66,521.7L791.59,522.54L792.52,522.76L793.45,522.76L794.37,522.76L795.3,523.29L796.23,527.5L797.16,527.95L798.08,528.46L799.01,529.26L799.94,529.79L800.87,529.79L801.79,530.05L802.72,532.33L803.65,533.82L804.57,535.34L805.5,538.29L806.43,538.97L807.36,538.97L808.28,539.52L809.21,540.03L810.14,540.47L811.07,540.47L811.99,540.47L812.92,540.72L813.85,540.72L814.78,541.18L815.7,541.48L816.63,542.76L817.56,543.52L818.49,543.52L819.41,543.75L820.34,544.8L821.27,544.8L822.19,545.28L823.12,546.18L824.05,548.28L824.98,549.83L825.9,552.15L826.83,554.75L827.76,555.33L828.69,555.33L829.61,555.33L830.54,555.47L831.47,555.78L832.4,555.78L833.32,556.84L834.25,556.84L835.18,557.39L836.1,557.66L837.03,557.93L837.96,558.61L838.89,558.61L839.81,558.61L840.74,558.61L841.67,558.61L842.6,559.06L843.52,559.06L844.45,559.06L845.38,562.13L846.31,562.13L847.23,563.9L848.16,564.95L849.09,565.96L850.02,566.08L850.94,566.08L851.87,566.08L852.8,566.08L853.72,566.99L854.65,567.45L855.58,567.97L856.51,568.62L857.43,568.81L858.36,569.01L859.29,569.4L860.22,569.4L861.14,569.4L862.07,569.51L863,569.96L863.93,570.77L864.85,571.14L865.78,571.14L866.71,572.2L867.64,572.74L868.56,572.74L869.49,573.19L870.42,573.19L871.34,574.63L872.27,574.63L873.2,574.63L874.13,575.38L875.05,575.38L875.98,576.2L876.91,576.2L877.84,576.2L878.76,576.2L879.69,579.73L880.62,580.32L881.55,580.32L882.47,580.32L883.4,582.2L884.33,582.5L885.25,583.46L886.18,585.48L887.11,585.88L888.04,585.88L888.96,585.88L889.89,585.88L890.82,586.94L891.75,587.32L892.67,587.32L893.6,587.32L894.53,589.3L895.46,589.3L896.38,589.67L897.31,589.67L898.24,589.67L899.17,589.67L900.09,590.32L901.02,590.32L901.95,595.36L902.87,597.34L903.8,597.84L904.73,598.09L905.66,599.02L906.58,599.02L907.51,599.52L908.44,599.84L909.37,600.12L910.29,600.12L911.22,600.24L912.15,601.27L913.08,601.41L914,601.89L914.93,601.89L915.86,602.38L916.79,602.38L917.71,602.94L918.64,602.96L919.57,603.72L920.49,604.08L921.42,605.43L922.35,608.94L923.28,609.22L924.2,609.49L925.13,612.34L926.06,612.83L926.99,613.18L927.91,613.34L928.84,613.49L929.77,613.49L930.7,614.31L931.62,614.86L932.55,615.27L933.48,615.39L934.4,615.73L935.33,615.73L936.26,615.99L937.19,616.43L938.11,616.65L939.04,616.65L939.97,617.08L940.9,617.08L941.82,617.43L942.75,619.16L943.68,619.16L944.61,619.4L945.53,619.4L946.46,619.88L947.39,622.7L948.32,623.31L949.24,623.39L950.17,623.67L951.1,623.89L952.02,623.89L952.95,624.83L953.88,625.11L954.81,625.8L955.73,626.62L956.66,627.32L957.59,627.32L958.52,627.77L959.44,628.3L960.37,628.65L961.3,631.41L962.23,631.41L963.15,631.73L964.08,634.77L965.01,634.77L965.93,634.94L966.86,634.94L967.79,635.54L968.72,637.63L969.64,637.83L970.57,637.92L971.5,637.92L972.43,637.92L973.35,637.92L974.28,637.92L975.21,638.17L976.14,638.17L977.06,638.17L977.99,638.55L978.92,638.55L979.85,639.69L980.77,639.69L981.7,640.16L982.63,640.63L983.55,640.63L984.48,641.72L985.41,644.95L986.34,647.74L987.26,647.85L988.19,648.58L989.12,648.73L990.05,648.73L990.97,649.51L991.9,649.51L992.83,649.99L993.76,651.32L994.68,651.55L995.61,652.42L996.54,652.42L997.47,652.64L998.39,652.64L999.32,652.84L1000.2,652.84L1001.2,652.84L1002.1,653.25L1003,653.25L1004,654.07L1004.9,654.07L1005.8,654.07L1006.7,654.59L1007.7,656L1008.6,658.85L1009.5,659.17L1010.4,659.31L1011.4,659.94L1012.3,660.15L1013.2,660.15L1014.2,660.81L1015.1,660.81L1016,661.03L1016.9,661.8L1017.9,662.16L1018.8,663.32L1019.7,663.32L1020.6,663.32L1021.6,663.32L1022.5,667.14L1023.4,667.24L1024.4,670.42L1025.3,671.33L1026.2,671.56L1027.1,671.75L1028.1,672.01L1029,672.01L1029.9,672.11L1030.9,672.57L1031.8,673.95L1032.7,674.7L1033.6,674.7L1034.6,675.17L1035.5,675.76L1036.4,675.76L1037.3,675.76L1038.3,675.94L1039.2,676.26L1040.1,677.03L1041.1,678.79L1042,679L1042.9,679L1043.8,680.03L1044.8,682.35L1045.7,682.35L1046.6,682.42L1047.5,682.69L1048.5,682.69L1049.4,682.78L1050.3,682.78L1051.3,682.99L1052.2,683.35L1053.1,684.21L1054,684.21L1055,684.71L1055.9,685.12L1056.8,685.12L1057.7,685.31L1058.7,685.79L1059.6,685.79L1060.5,686.09L1061.5,686.98L1062.4,686.98L1063.3,686.98L1064.2,688.1L1065.2,691.31L1066.1,691.7L1067,692.11L1067.9,692.11L1068.9,694.95L1069.8,696.93L1070.7,697.09L1071.7,697.18L1072.6,697.7L1073.5,698.61L1074.4,699.62L1075.4,700.15L1076.3,700.15L1077.2,700.15L1078.1,700.15L1079.1,700.75L1080,700.75" style="fill:none;stroke:#F15A60;stroke-width:1.875" />
<path d="M60.834,48.06L61.761,55.129L62.688,58.789L63.616,61.515L64.543,62.568L65.471,64.74L66.398,66.871L67.325,67.724L68.253,69.589L69.18,71.785L70.107,74.97L71.035,77.02L71.962,79.208L72.889,81.556L73.817,81.942L74.744,85.996L75.671,87.242L76.599,89.542L77.526,89.606L78.454,92.421L79.381,94.022L80.308,95.614L81.236,97.279L82.163,97.536L83.09,97.938L84.018,98.035L84.945,98.405L85.872,98.614L86.8,98.847L87.727,98.847L88.654,100.83L89.582,101.43L90.509,101.43L91.437,104.42L92.364,105.26L93.291,108.58L94.219,109.22L95.146,109.58L96.073,112.86L97.001,114.37L97.928,114.56L98.855,117.48L99.783,118.07L100.71,118.07L101.64,118.07L102.56,118.16L103.49,118.16L104.42,118.63L105.35,118.78L106.27,119.03L107.2,119.57L108.13,119.57L109.06,119.77L109.98,119.99L110.91,120.14L111.84,120.44L112.77,120.44L113.69,121.54L114.62,121.54L115.55,122.52L116.48,122.65L117.4,123.47L118.33,125.26L119.26,126.96L120.18,126.96L121.11,129.88L122.04,130.1L122.97,130.42L123.89,130.61L124.82,130.75L125.75,130.75L126.68,130.75L127.6,130.93L128.53,130.93L129.46,130.93L130.39,130.93L131.31,131.1L132.24,131.49L133.17,133.07L134.1,133.07L135.02,133.07L135.95,134.34L136.88,134.53L137.8,136.65L138.73,136.65L139.66,141.8L140.59,142.07L141.51,142.37L142.44,142.7L143.37,143.1L144.3,143.64L145.22,143.75L146.15,143.89L147.08,144.3L148.01,144.81L148.93,144.81L149.86,144.81L150.79,144.99L151.71,145.32L152.64,145.63L153.57,145.63L154.5,145.63L155.42,145.63L156.35,148.96L157.28,149.58L158.21,150.97L159.13,151.45L160.06,153.04L160.99,153.04L161.92,153.15L162.84,153.58L163.77,153.94L164.7,154.46L165.63,154.7L166.55,156.47L167.48,156.94L168.41,158.13L169.33,158.24L170.26,158.48L171.19,159.15L172.12,159.32L173.04,159.79L173.97,160L174.9,160L175.83,160L176.75,160.25L177.68,160.63L178.61,160.63L179.54,160.8L180.46,163.08L181.39,163.81L182.32,163.81L183.24,163.91L184.17,164.23L185.1,164.7L186.03,164.7L186.95,164.92L187.88,165.48L188.81,165.48L189.74,165.84L190.66,166.5L191.59,166.89L192.52,168.17L193.45,168.17L194.37,168.41L195.3,168.82L196.23,168.93L197.16,172.53L198.08,173.13L199.01,174.77L199.94,174.87L200.86,176.78L201.79,176.78L202.72,177.33L203.65,177.33L204.57,177.33L205.5,177.74L206.43,178.17L207.36,178.28L208.28,178.44L209.21,178.44L210.14,178.44L211.07,179.41L211.99,180.31L212.92,180.31L213.85,180.31L214.78,180.31L215.7,181.01L216.63,182L217.56,185.16L218.48,187.29L219.41,187.59L220.34,188L221.27,188.45L222.19,188.84L223.12,189.27L224.05,189.99L224.98,190.42L225.9,190.42L226.83,191.15L227.76,191.15L228.69,191.32L229.61,191.32L230.54,191.32L231.47,192.14L232.39,192.51L233.32,193.02L234.25,193.02L235.18,193.13L236.1,193.13L237.03,196.68L237.96,198.44L238.89,198.69L239.81,198.97L240.74,198.97L241.67,198.97L242.6,199.17L243.52,199.29L244.45,199.29L245.38,199.47L246.31,201L247.23,201L248.16,201.59L249.09,201.59L250.01,202.02L250.94,202.02L251.87,202.02L252.8,202.82L253.72,203.52L254.65,204.36L255.58,211.4L256.51,211.72L257.43,211.94L258.36,212.36L259.29,213.96L260.22,214.8L261.14,214.94L262.07,214.94L263,214.94L263.93,215.2L264.85,215.2L265.78,215.2L266.71,215.46L267.63,215.46L268.56,215.46L269.49,215.94L270.42,215.94L271.34,216.75L272.27,216.75L273.2,217.19L274.13,219.76L275.05,220.83L275.98,224.23L276.91,224.53L277.84,224.72L278.76,225.27L279.69,225.39L280.62,225.63L281.54,225.63L282.47,225.63L283.4,225.7L284.33,225.7L285.25,225.85L286.18,226.2L287.11,226.2L288.04,226.67L288.96,227.15L289.89,227.15L290.82,227.15L291.75,227.41L292.67,228.1L293.6,228.34L294.53,228.58L295.46,230.74L296.38,230.97L297.31,232.37L298.24,237.54L299.16,238.53L300.09,238.74L301.02,239.29L301.95,239.96L302.87,240.16L303.8,240.38L304.73,240.38L305.66,240.42L306.58,240.69L307.51,240.9L308.44,240.9L309.37,240.9L310.29,241.89L311.22,242.03L312.15,242.03L313.08,242.39L314,243.06L314.93,243.8L315.86,245.05L316.78,247.28L317.71,247.97L318.64,247.97L319.57,247.97L320.49,247.97L321.42,247.97L322.35,247.97L323.28,248.46L324.2,249.97L325.13,250.53L326.06,250.53L326.99,250.53L327.91,250.53L328.84,250.97L329.77,251.5L330.69,251.83L331.62,252.66L332.55,252.66L333.48,253.07L334.4,253.07L335.33,254.68L336.26,255.13L337.19,257.2L338.11,257.82L339.04,259.22L339.97,260.41L340.9,263.09L341.82,263.2L342.75,263.2L343.68,263.37L344.61,263.58L345.53,264.34L346.46,264.83L347.39,264.83L348.31,265.3L349.24,265.3L350.17,265.81L351.1,265.81L352.02,267.03L352.95,267.89L353.88,268.9L354.81,270.56L355.73,270.56L356.66,270.88L357.59,272.15L358.52,273.89L359.44,274.38L360.37,276.87L361.3,276.87L362.23,277.18L363.15,277.18L364.08,277.83L365.01,277.97L365.93,277.97L366.86,277.97L367.79,277.97L368.72,278.48L369.64,279L370.57,279.62L371.5,280.2L372.43,280.2L373.35,280.4L374.28,282.12L375.21,282.46L376.14,282.86L377.06,283.08L377.99,286.38L378.92,286.38L379.84,286.38L380.77,286.54L381.7,286.87L382.63,287.16L383.55,287.16L384.48,287.44L385.41,287.89L386.34,288.07L387.26,288.07L388.19,289.7L389.12,289.7L390.05,289.7L390.97,290.13L391.9,290.13L392.83,290.13L393.76,293.13L394.68,293.9L395.61,294.35L396.54,295.72L397.46,297.65L398.39,298L399.32,298.16L400.25,298.16L401.17,298.52L402.1,298.52L403.03,298.91L403.96,299.11L404.88,299.73L405.81,299.73L406.74,300.24L407.67,300.45L408.59,300.45L409.52,300.87L410.45,300.87L411.38,301.24L412.3,301.24L413.23,301.63L414.16,302.07L415.08,302.07L416.01,303.26L416.94,306.07L417.87,309.89L418.79,310.13L419.72,310.27L420.65,310.83L421.58,310.99L422.5,311.11L423.43,312.65L424.36,312.65L425.29,312.65L426.21,312.65L427.14,313.12L428.07,313.75L428.99,314.33L429.92,314.6L430.85,315.28L431.78,315.28L432.7,315.55L433.63,316.69L434.56,316.87L435.49,318.3L436.41,319.76L437.34,322.31L438.27,323.39L439.2,323.89L440.12,323.89L441.05,324.3L441.98,324.3L442.91,324.5L443.83,324.85L444.76,324.85L445.69,324.85L446.61,325.6L447.54,325.86L448.47,326.25L449.4,326.25L450.32,327.51L451.25,327.76L452.18,328.27L453.11,328.27L454.03,328.27L454.96,328.65L455.89,329.03L456.82,329.98L457.74,332.04L458.67,333.03L459.6,333.57L460.52,333.77L461.45,334.2L462.38,334.2L463.31,334.74L464.23,334.91L465.16,335.81L466.09,335.81L467.02,336.25L467.94,336.86L468.87,337.08L469.8,338.34L470.73,338.34L471.65,338.34L472.58,338.34L473.51,339.22L474.44,342.79L475.36,344.06L476.29,344.15L477.22,344.66L478.14,344.66L479.07,344.66L480,345.04L480.93,345.04L481.85,345.34L482.78,345.56L483.71,345.56L484.64,345.56L485.56,345.56L486.49,347L487.42,347.4L488.35,347.48L489.27,347.59L490.2,348.12L491.13,349.58L492.06,352.15L492.98,352.99L493.91,353.6L494.84,354.02L495.76,354.53L496.69,354.65L497.62,357.81L498.55,359.22L499.47,359.51L500.4,359.63L501.33,360.29L502.26,360.72L503.18,360.72L504.11,361.15L505.04,361.15L505.97,361.92L506.89,362.2L507.82,362.2L508.75,362.52L509.67,362.8L510.6,362.8L511.53,362.97L512.46,365.23L513.38,365.45L514.31,365.45L515.24,365.6L516.17,367.64L517.09,367.64L518.02,368.54L518.95,369.85L519.88,370.15L520.8,370.52L521.73,370.52L522.66,370.52L523.59,371.13L524.51,371.66L525.44,372.53L526.37,372.62L527.29,372.95L528.22,373.46L529.15,373.46L530.08,374.11L531,374.11L531.93,376.7L532.86,376.9L533.79,377.65L534.71,379.87L535.64,380.11L536.57,381L537.5,382.9L538.42,382.9L539.35,382.9L540.28,383.02L541.21,383.02L542.13,383.02L543.06,383.35L543.99,383.84L544.91,383.84L545.84,385.28L546.77,385.9L547.7,386.34L548.62,386.34L549.55,386.68L550.48,386.86L551.41,390.03L552.33,390.03L553.26,390.11L554.19,391.58L555.12,393.38L556.04,393.55L556.97,393.55L557.9,393.9L558.82,396.78L559.75,396.84L560.68,396.99L561.61,397.17L562.53,397.5L563.46,398.29L564.39,398.53L565.32,398.53L566.24,398.53L567.17,400.02L568.1,400.02L569.03,400.02L569.95,400.14L570.88,400.14L571.81,403.25L572.74,404.56L573.66,404.73L574.59,404.73L575.52,404.73L576.44,404.73L577.37,404.73L578.3,405.28L579.23,405.75L580.15,405.75L581.08,406.31L582.01,406.31L582.94,406.31L583.86,406.31L584.79,407.16L585.72,407.82L586.65,407.82L587.57,407.82L588.5,407.82L589.43,407.82L590.36,407.82L591.28,408.14L592.21,410.81L593.14,415.99L594.06,415.99L594.99,416.89L595.92,416.89L596.85,417.43L597.77,418.02L598.7,418.81L599.63,419.35L600.56,420.42L601.48,420.42L602.41,420.42L603.34,421.36L604.27,422L605.19,422.43L606.12,422.76L607.05,423.76L607.97,423.76L608.9,423.76L609.83,423.76L610.76,424.56L611.68,424.56L612.61,424.56L613.54,424.9L614.47,427.16L615.39,430.3L616.32,432.93L617.25,433.07L618.18,433.17L619.1,433.26L620.03,433.26L620.96,434L621.89,434.17L622.81,434.17L623.74,434.65L624.67,434.87L625.59,435.33L626.52,435.51L627.45,435.51L628.38,435.79L629.3,435.94L630.23,436.63L631.16,437.44L632.09,437.44L633.01,438.58L633.94,439.07L634.87,439.07L635.8,439.21L636.72,442.35L637.65,443.18L638.58,443.18L639.51,443.38L640.43,443.75L641.36,444.49L642.29,444.94L643.21,445.13L644.14,445.31L645.07,446.09L646,446.09L646.92,446.09L647.85,446.27L648.78,447.13L649.71,448.11L650.63,449.71L651.56,450.2L652.49,453.48L653.42,453.86L654.34,453.86L655.27,454.08L656.2,454.08L657.12,454.5L658.05,454.81L658.98,455.01L659.91,455.72L660.83,455.82L661.76,455.82L662.69,456.31L663.62,456.89L664.54,457.17L665.47,457.45L666.4,457.45L667.33,457.45L668.25,457.45L669.18,457.79L670.11,458.78L671.04,459.17L671.96,459.17L672.89,459.5L673.82,459.67L674.74,459.67L675.67,460.7L676.6,463.94L677.53,468.61L678.45,468.61L679.38,469.09L680.31,469.09L681.24,469.28L682.16,470.1L683.09,470.27L684.02,471.14L684.95,473.25L685.87,473.7L686.8,473.7L687.73,473.7L688.65,475.86L689.58,476.14L690.51,476.14L691.44,476.7L692.36,478.5L693.29,479.53L694.22,482.12L695.15,482.46L696.07,482.46L697,482.57L697.93,482.57L698.86,482.57L699.78,482.7L700.71,482.7L701.64,482.97L702.57,483.69L703.49,484.43L704.42,484.92L705.35,485.16L706.27,485.16L707.2,486.17L708.13,486.47L709.06,487.13L709.98,487.13L710.91,487.24L711.84,488.08L712.77,488.08L713.69,490.08L714.62,490.08L715.55,490.52L716.48,491.29L717.4,494.3L718.33,495.51L719.26,495.9L720.19,495.9L721.11,496.04L722.04,496.04L722.97,496.21L723.89,497.08L724.82,497.23L725.75,497.72L726.68,497.72L727.6,498.33L728.53,498.94L729.46,498.94L730.39,499.56L731.31,499.56L732.24,499.56L733.17,499.56L734.1,499.75L735.02,503.67L735.95,504.48L736.88,505.16L737.8,505.16L738.73,505.33L739.66,505.64L740.59,505.64L741.51,505.64L742.44,505.83L743.37,507.75L744.3,508.98L745.22,508.98L746.15,509.23L747.08,509.7L748.01,510.02L748.93,510.02L749.86,511.51L750.79,511.51L751.72,511.51L752.64,514.25L753.57,514.25L754.5,514.69L755.42,514.69L756.35,515.02L757.28,515.02L758.21,515.2L759.13,515.64L760.06,515.64L760.99,515.64L761.92,515.64L762.84,515.93L763.77,516.26L764.7,516.72L765.63,516.72L766.55,516.96L767.48,516.96L768.41,518.35L769.34,518.82L770.26,522.04L771.19,522.77L772.12,523.07L773.04,523.07L773.97,523.34L774.9,523.34L775.83,523.34L776.75,523.34L777.68,524.35L778.61,526.07L779.54,526.07L780.46,526.34L781.39,526.34L782.32,526.34L783.25,526.52L784.17,526.52L785.1,526.52L786.03,527.06L786.95,527.34L787.88,528.67L788.81,530.67L789.74,530.67L790.66,531.26L791.59,532.1L792.52,534.78L793.45,535.38L794.37,536.73L795.3,536.94L796.23,540.12L797.16,544.41L798.08,545.22L799.01,545.22L799.94,545.22L800.87,545.76L801.79,545.76L802.72,546.69L803.65,546.69L804.57,547.27L805.5,549.23L806.43,549.63L807.36,549.97L808.28,550.54L809.21,550.54L810.14,551.27L811.07,551.27L811.99,551.48L812.92,551.63L813.85,551.63L814.78,553.87L815.7,555.45L816.63,556.28L817.56,556.28L818.49,556.28L819.41,556.77L820.34,556.95L821.27,557.23L822.19,558.69L823.12,559.47L824.05,559.76L824.98,560L825.9,560L826.83,560.35L827.76,560.66L828.69,560.94L829.61,563.4L830.54,564.56L831.47,564.93L832.4,565.72L833.32,565.72L834.25,566.51L835.18,567.36L836.1,567.36L837.03,567.36L837.96,567.64L838.89,567.82L839.81,567.82L840.74,568.26L841.67,568.7L842.6,569.1L843.52,569.73L844.45,569.73L845.38,569.73L846.31,570.22L847.23,570.22L848.16,571.3L849.09,571.3L850.02,571.3L850.94,571.3L851.87,571.3L852.8,571.3L853.72,571.79L854.65,575.94L855.58,576.52L856.51,576.52L857.43,576.52L858.36,576.99L859.29,577.17L860.22,577.17L861.14,577.59L862.07,579.67L863,580.02L863.93,580.64L864.85,581.33L865.78,581.33L866.71,581.33L867.64,581.33L868.56,582.06L869.49,582.06L870.42,585.63L871.34,585.63L872.27,586.08L873.2,589.49L874.13,590.17L875.05,590.17L875.98,590.92L876.91,591.51L877.84,591.66L878.76,592.04L879.69,592.04L880.62,592.88L881.55,593.11L882.47,593.66L883.4,594.39L884.33,594.39L885.25,594.72L886.18,595.03L887.11,595.21L888.04,597.26L888.96,597.71L889.89,597.96L890.82,597.96L891.75,598.12L892.67,598.51L893.6,601.26L894.53,602.88L895.46,602.88L896.38,602.99L897.31,603.48L898.24,603.48L899.17,603.48L900.09,603.69L901.02,604.28L901.95,604.28L902.87,604.7L903.8,605.04L904.73,605.81L905.66,606.78L906.58,606.78L907.51,607.1L908.44,607.53L909.37,607.9L910.29,608.38L911.22,608.81L912.15,608.97L913.08,609.71L914,611.52L914.93,611.93L915.86,614.15L916.79,614.93L917.71,614.93L918.64,614.93L919.57,615.24L920.49,615.81L921.42,616.25L922.35,617.08L923.28,618.91L924.2,619.4L925.13,620.26L926.06,620.39L926.99,620.51L927.91,620.88L928.84,621.07L929.77,621.07L930.7,624.67L931.62,625.54L932.55,625.54L933.48,625.54L934.4,627.08L935.33,628.93L936.26,630.87L937.19,631L938.11,631L939.04,631.44L939.97,631.97L940.9,632.19L941.82,632.74L942.75,632.98L943.68,632.98L944.61,632.98L945.53,632.98L946.46,633.56L947.39,633.95L948.32,633.95L949.24,633.95L950.17,634.38L951.1,635.79L952.02,636.07L952.95,636.41L953.88,636.62L954.81,636.91L955.73,637.66L956.66,638.41L957.59,638.41L958.52,638.74L959.44,638.97L960.37,638.97L961.3,638.97L962.23,638.97L963.15,638.97L964.08,639.39L965.01,639.77L965.93,640.46L966.86,641.78L967.79,642.85L968.72,642.93L969.64,642.93L970.57,645.03L971.5,645.03L972.43,645.16L973.35,645.45L974.28,646.58L975.21,647.02L976.14,647.22L977.06,647.22L977.99,647.32L978.92,647.7L979.85,647.82L980.77,647.91L981.7,648.5L982.63,648.71L983.55,648.71L984.48,649.33L985.41,649.33L986.34,649.61L987.26,651.37L988.19,653.02L989.12,657.48L990.05,658.7L990.97,659.13L991.9,659.55L992.83,659.55L993.76,659.55L994.68,659.55L995.61,659.55L996.54,659.82L997.47,659.91L998.39,660.59L999.32,662.37L1000.2,662.61L1001.2,662.61L1002.1,662.87L1003,662.87L1004,663.92L1004.9,663.92L1005.8,664.33L1006.7,664.33L1007.7,664.69L1008.6,665.18L1009.5,665.18L1010.4,668.99L1011.4,671.61L1012.3,673.99L1013.2,674.94L1014.2,674.94L1015.1,675.38L1016,675.38L1016.9,675.82L1017.9,675.82L1018.8,675.82L1019.7,676.13L1020.6,677.3L1021.6,678.72L1022.5,678.72L1023.4,679.13L1024.4,679.72L1025.3,680.45L1026.2,680.57L1027.1,680.57L1028.1,680.77L1029,680.77L1029.9,680.77L1030.9,683.88L1031.8,684.47L1032.7,687.25L1033.6,687.55L1034.6,690.51L1035.5,691.99L1036.4,691.99L1037.3,691.99L1038.3,692.17L1039.2,692.93L1040.1,692.93L1041.1,693.14L1042,693.53L1042.9,693.98L1043.8,694.17L1044.8,694.17L1045.7,694.17" style="fill:none;stroke:#7AC36A;stroke-width:1.875;stroke-dasharray:7.5,2.5" />
<path d="M1055,693.4L1080,693.4" style="fill:none;stroke:#F15A60;stroke-width:1.875" />
<text x="882.43" y="-686.35" transform="scale(1, -1)"
	style="font-family:Helvetica;font-weight:normal;font-style:normal;font-size:12pt">etcd v3 (no compression)</text>
<path d="M1055,678.7L1080,678.7" style="fill:none;stroke:#7AC36A;stroke-width:1.875;stroke-dasharray:7.5,2.5" />
<text x="939.94" y="-671.65" transform="scale(1, -1)"
	style="font-family:Helvetica;font-weight:normal;font-style:normal;font-size:12pt">etcd v3 (snappy)</text>
</g>
</svg>
