<?xml version="1.0"?>
<!-- Generated by SVGo and Plotinum VG -->
<svg width="12in" height="8in"
	xmlns="http://www.w3.org/2000/svg"
	xmlns:xlink="http://www.w3.org/1999/xlink">
<g transform="scale(1, -1) translate(0, -720)">
<path d="M0,0L1080,0L1080,720L0,720Z" style="fill:#FFFFFF" />
<text x="256.52" y="-705.6" transform="scale(1, -1)"
	style="font-family:Helvetica;font-weight:normal;font-style:normal;font-size:12pt">Write 500K keys, 1-client, 1-conn, 64-byte key, 1024-byte value (etcd v3), Throughput</text>
<text x="544.98" y="-4.8486" transform="scale(1, -1)"
	style="font-family:Helvetica;font-weight:normal;font-style:normal;font-size:12pt">Second</text>
<text x="57.358" y="-19.498" transform="scale(1, -1)"
	style="font-family:Helvetica;font-weight:normal;font-style:normal;font-size:10pt">0</text>
<text x="328.36" y="-19.498" transform="scale(1, -1)"
	style="font-family:Helvetica;font-weight:normal;font-style:normal;font-size:10pt">300</text>
<text x="606.31" y="-19.498" transform="scale(1, -1)"
	style="font-family:Helvetica;font-weight:normal;font-style:normal;font-size:10pt">600</text>
<text x="884.27" y="-19.498" transform="scale(1, -1)"
	style="font-family:Helvetica;font-weight:normal;font-style:normal;font-size:10pt">900</text>
<path d="M60.834,31.498L60.834,41.498" style="fill:none;stroke:#000000;stroke-width:0.625" />
<path d="M338.79,31.498L338.79,41.498" style="fill:none;stroke:#000000;stroke-width:0.625" />
<path d="M616.74,31.498L616.74,41.498" style="fill:none;stroke:#000000;stroke-width:0.625" />
<path d="M894.7,31.498L894.7,41.498" style="fill:none;stroke:#000000;stroke-width:0.625" />
<path d="M153.49,36.498L153.49,41.498" style="fill:none;stroke:#000000;stroke-width:0.625" />
<path d="M246.14,36.498L246.14,41.498" style="fill:none;stroke:#000000;stroke-width:0.625" />
<path d="M431.44,36.498L431.44,41.498" style="fill:none;stroke:#000000;stroke-width:0.625" />
<path d="M524.09,36.498L524.09,41.498" style="fill:none;stroke:#000000;stroke-width:0.625" />
<path d="M709.39,36.498L709.39,41.498" style="fill:none;stroke:#000000;stroke-width:0.625" />
<path d="M802.05,36.498L802.05,41.498" style="fill:none;stroke:#000000;stroke-width:0.625" />
<path d="M987.35,36.498L987.35,41.498" style="fill:none;stroke:#000000;stroke-width:0.625" />
<path d="M1080,36.498L1080,41.498" style="fill:none;stroke:#000000;stroke-width:0.625" />
<path d="M60.834,41.498L1080,41.498" style="fill:none;stroke:#000000;stroke-width:0.625" />
<g transform="rotate(90)">
<text x="336.05" y="14.399" transform="scale(1, -1)"
	style="font-family:Helvetica;font-weight:normal;font-style:normal;font-size:12pt">Throughput</text>
</g>
<text x="19.248" y="-169.95" transform="scale(1, -1)"
	style="font-family:Helvetica;font-weight:normal;font-style:normal;font-size:10pt">200</text>
<text x="19.248" y="-323.89" transform="scale(1, -1)"
	style="font-family:Helvetica;font-weight:normal;font-style:normal;font-size:10pt">300</text>
<text x="19.248" y="-477.83" transform="scale(1, -1)"
	style="font-family:Helvetica;font-weight:normal;font-style:normal;font-size:10pt">400</text>
<text x="19.248" y="-631.76" transform="scale(1, -1)"
	style="font-family:Helvetica;font-weight:normal;font-style:normal;font-size:10pt">500</text>
<path d="M43.577,175.83L53.577,175.83" style="fill:none;stroke:#000000;stroke-width:0.625" />
<path d="M43.577,329.76L53.577,329.76" style="fill:none;stroke:#000000;stroke-width:0.625" />
<path d="M43.577,483.7L53.577,483.7" style="fill:none;stroke:#000000;stroke-width:0.625" />
<path d="M43.577,637.64L53.577,637.64" style="fill:none;stroke:#000000;stroke-width:0.625" />
<path d="M48.577,98.859L53.577,98.859" style="fill:none;stroke:#000000;stroke-width:0.625" />
<path d="M48.577,252.8L53.577,252.8" style="fill:none;stroke:#000000;stroke-width:0.625" />
<path d="M48.577,406.73L53.577,406.73" style="fill:none;stroke:#000000;stroke-width:0.625" />
<path d="M48.577,560.67L53.577,560.67" style="fill:none;stroke:#000000;stroke-width:0.625" />
<path d="M53.577,48.06L53.577,700.75" style="fill:none;stroke:#000000;stroke-width:0.625" />
<path d="M60.834,48.06L61.76,585.3L62.687,591.46L63.613,619.17L64.54,611.47L65.466,594.54L66.393,594.54L67.319,619.17L68.246,579.14L69.172,579.14L70.099,585.3L71.025,586.84L71.952,594.54L72.878,566.83L73.805,605.31L74.731,576.06L75.658,546.82L76.584,542.2L77.511,571.45L78.438,559.13L79.364,572.98L80.291,565.29L81.217,593L82.144,589.92L83.07,588.38L83.997,572.98L84.923,572.98L85.85,534.5L86.776,579.14L87.703,565.29L88.629,554.51L89.556,549.89L90.482,562.21L91.409,539.12L92.335,583.76L93.262,577.6L94.188,597.61L95.115,659.19L96.041,673.04L96.968,680.74L97.894,585.3L98.821,551.43L99.747,563.75L100.67,557.59L101.6,586.84L102.53,572.98L103.45,572.98L104.38,568.37L105.31,506.79L106.23,474.46L107.16,502.17L108.09,508.33L109.01,485.24L109.94,503.71L110.87,469.85L111.79,512.95L112.72,479.08L113.65,479.08L114.57,566.83L115.5,623.78L116.42,633.02L117.35,656.11L118.28,633.02L119.2,665.35L120.13,677.66L121.06,676.12L121.98,666.89L122.91,683.82L123.84,653.03L124.76,646.87L125.69,656.11L126.62,643.8L127.54,633.02L128.47,631.48L129.4,602.23L130.32,628.4L131.25,620.7L132.18,616.09L133.1,637.64L134.03,645.33L134.95,656.11L135.88,663.81L136.81,677.66L137.73,648.41L138.66,651.49L139.59,653.03L140.51,629.94L141.44,579.14L142.37,576.06L143.29,556.05L144.22,571.45L145.15,552.97L146.07,572.98L147,534.5L147.93,557.59L148.85,531.42L149.78,514.49L150.71,522.19L151.63,551.43L152.56,549.89L153.49,566.83L154.41,580.68L155.34,594.54L156.26,557.59L157.19,537.58L158.12,537.58L159.04,528.34L159.97,539.12L160.9,422.13L161.82,389.8L162.75,443.68L163.68,431.36L164.6,469.85L165.53,474.46L166.46,476L167.38,462.15L168.31,451.37L169.24,462.15L170.16,593L171.09,609.93L172.02,614.55L172.94,634.56L173.87,602.23L174.8,633.02L175.72,600.69L176.65,557.59L177.57,576.06L178.5,608.39L179.43,599.15L180.35,566.83L181.28,602.23L182.21,591.46L183.13,588.38L184.06,613.01L184.99,597.61L185.91,596.07L186.84,549.89L187.77,596.07L188.69,556.05L189.62,562.21L190.55,536.04L191.47,559.13L192.4,566.83L193.33,542.2L194.25,548.35L195.18,548.35L196.1,562.21L197.03,554.51L197.96,593L198.88,559.13L199.81,569.91L200.74,536.04L201.66,563.75L202.59,562.21L203.52,537.58L204.44,559.13L205.37,560.67L206.3,631.48L207.22,660.73L208.15,648.41L209.08,619.17L210,606.85L210.93,603.77L211.86,594.54L212.78,583.76L213.71,614.55L214.64,597.61L215.56,562.21L216.49,460.61L217.41,460.61L218.34,494.48L219.27,502.17L220.19,511.41L221.12,516.03L222.05,479.08L222.97,491.4L223.9,497.56L224.83,489.86L225.75,660.73L226.68,663.81L227.61,657.65L228.53,653.03L229.46,665.35L230.39,668.43L231.31,674.58L232.24,653.03L233.17,662.27L234.09,677.66L235.02,657.65L235.95,643.8L236.87,656.11L237.8,660.73L238.72,683.82L239.65,677.66L240.58,654.57L241.5,662.27L242.43,649.95L243.36,626.86L244.28,674.58L245.21,657.65L246.14,654.57L247.06,654.57L247.99,651.49L248.92,608.39L249.84,660.73L250.77,645.33L251.7,617.63L252.62,586.84L253.55,552.97L254.48,569.91L255.4,537.58L256.33,545.28L257.25,588.38L258.18,583.76L259.11,622.24L260.03,586.84L260.96,619.17L261.89,648.41L262.81,668.43L263.74,677.66L264.67,577.6L265.59,506.79L266.52,532.96L267.45,536.04L268.37,519.11L269.3,537.58L270.23,519.11L271.15,517.57L272.08,406.73L273.01,405.19L273.93,459.07L274.86,429.82L275.79,409.81L276.71,434.44L277.64,455.99L278.56,477.54L279.49,437.52L280.42,477.54L281.34,540.66L282.27,532.96L283.2,529.88L284.12,566.83L285.05,571.45L285.98,525.26L286.9,529.88L287.83,542.2L288.76,526.8L289.68,525.26L290.61,549.89L291.54,543.74L292.46,522.19L293.39,574.52L294.32,559.13L295.24,532.96L296.17,525.26L297.1,503.71L298.02,462.15L298.95,506.79L299.87,531.42L300.8,551.43L301.73,569.91L302.65,576.06L303.58,562.21L304.51,579.14L305.43,565.29L306.36,565.29L307.29,551.43L308.21,534.5L309.14,529.88L310.07,531.42L310.99,568.37L311.92,574.52L312.85,528.34L313.77,519.11L314.7,523.72L315.63,492.94L316.55,551.43L317.48,623.78L318.4,594.54L319.33,594.54L320.26,597.61L321.18,593L322.11,549.89L323.04,529.88L323.96,532.96L324.89,523.72L325.82,557.59L326.74,542.2L327.67,423.67L328.6,397.5L329.52,403.65L330.45,432.9L331.38,419.05L332.3,419.05L333.23,429.82L334.16,409.81L335.08,392.88L336.01,405.19L336.94,508.33L337.86,523.72L338.79,519.11L339.71,534.5L340.64,537.58L341.57,528.34L342.49,516.03L343.42,546.82L344.35,549.89L345.27,531.42L346.2,532.96L347.13,508.33L348.05,548.35L348.98,531.42L349.91,512.95L350.83,540.66L351.76,502.17L352.69,502.17L353.61,497.56L354.54,536.04L355.47,545.28L356.39,552.97L357.32,517.57L358.24,534.5L359.17,552.97L360.1,552.97L361.02,539.12L361.95,536.04L362.88,529.88L363.8,500.63L364.73,514.49L365.66,526.8L366.58,579.14L367.51,536.04L368.44,508.33L369.36,519.11L370.29,497.56L371.22,499.09L372.14,517.57L373.07,580.68L374,556.05L374.92,603.77L375.85,569.91L376.78,562.21L377.7,552.97L378.63,548.35L379.55,532.96L380.48,539.12L381.41,514.49L382.33,522.19L383.26,431.36L384.19,417.51L385.11,457.53L386.04,434.44L386.97,455.99L387.89,439.06L388.82,459.07L389.75,445.22L390.67,426.74L391.6,423.67L392.53,516.03L393.45,548.35L394.38,545.28L395.31,576.06L396.23,540.66L397.16,572.98L398.09,528.34L399.01,572.98L399.94,602.23L400.86,579.14L401.79,568.37L402.72,594.54L403.64,599.15L404.57,629.94L405.5,600.69L406.42,619.17L407.35,613.01L408.28,611.47L409.2,614.55L410.13,593L411.06,633.02L411.98,639.18L412.91,637.64L413.84,616.09L414.76,631.48L415.69,628.4L416.62,614.55L417.54,642.26L418.47,631.48L419.39,552.97L420.32,542.2L421.25,577.6L422.17,568.37L423.1,548.35L424.03,536.04L424.95,562.21L425.88,531.42L426.81,537.58L427.73,546.82L428.66,577.6L429.59,579.14L430.51,589.92L431.44,609.93L432.37,586.84L433.29,577.6L434.22,583.76L435.15,586.84L436.07,576.06L437,562.21L437.93,511.41L438.85,428.28L439.78,425.21L440.7,460.61L441.63,463.69L442.56,446.76L443.48,476L444.41,454.45L445.34,445.22L446.26,448.3L447.19,476L448.12,600.69L449.04,633.02L449.97,591.46L450.9,591.46L451.82,548.35L452.75,568.37L453.68,585.3L454.6,576.06L455.53,568.37L456.46,613.01L457.38,634.56L458.31,636.1L459.24,636.1L460.16,613.01L461.09,597.61L462.01,611.47L462.94,622.24L463.87,602.23L464.79,605.31L465.72,634.56L466.65,608.39L467.57,576.06L468.5,616.09L469.43,613.01L470.35,634.56L471.28,636.1L472.21,613.01L473.13,636.1L474.06,597.61L474.99,557.59L475.91,563.75L476.84,528.34L477.77,536.04L478.69,545.28L479.62,517.57L480.54,477.54L481.47,494.48L482.4,532.96L483.32,516.03L484.25,536.04L485.18,568.37L486.1,580.68L487.03,554.51L487.96,539.12L488.88,586.84L489.81,522.19L490.74,519.11L491.66,556.05L492.59,539.12L493.52,534.5L494.44,406.73L495.37,414.43L496.3,443.68L497.22,462.15L498.15,417.51L499.08,431.36L500,435.98L500.93,451.37L501.85,443.68L502.78,457.53L503.71,583.76L504.63,585.3L505.56,572.98L506.49,526.8L507.41,565.29L508.34,602.23L509.27,576.06L510.19,574.52L511.12,548.35L512.05,542.2L512.97,540.66L513.9,522.19L514.83,528.34L515.75,536.04L516.68,502.17L517.61,508.33L518.53,537.58L519.46,540.66L520.39,531.42L521.31,542.2L522.24,574.52L523.16,551.43L524.09,540.66L525.02,563.75L525.94,572.98L526.87,539.12L527.8,560.67L528.72,551.43L529.65,574.52L530.58,522.19L531.5,557.59L532.43,582.22L533.36,617.63L534.28,576.06L535.21,571.45L536.14,528.34L537.06,580.68L537.99,569.91L538.92,563.75L539.84,663.81L540.77,608.39L541.69,673.04L542.62,579.14L543.55,519.11L544.47,523.72L545.4,523.72L546.33,520.65L547.25,576.06L548.18,576.06L549.11,583.76L550.03,457.53L550.96,443.68L551.89,449.84L552.81,459.07L553.74,457.53L554.67,469.85L555.59,449.84L556.52,426.74L557.45,443.68L558.37,468.31L559.3,552.97L560.23,576.06L561.15,602.23L562.08,637.64L563,643.8L563.93,636.1L564.86,629.94L565.78,613.01L566.71,614.55L567.64,629.94L568.56,639.18L569.49,614.55L570.42,620.7L571.34,634.56L572.27,636.1L573.2,626.86L574.12,619.17L575.05,582.22L575.98,499.09L576.9,552.97L577.83,554.51L578.76,562.21L579.68,511.41L580.61,517.57L581.54,543.74L582.46,548.35L583.39,579.14L584.31,568.37L585.24,531.42L586.17,523.72L587.09,511.41L588.02,505.25L588.95,480.62L589.87,509.87L590.8,597.61L591.73,569.91L592.65,569.91L593.58,557.59L594.51,576.06L595.43,637.64L596.36,651.49L597.29,665.35L598.21,626.86L599.14,633.02L600.07,629.94L600.99,611.47L601.92,625.32L602.84,633.02L603.77,611.47L604.7,649.95L605.62,497.56L606.55,452.91L607.48,489.86L608.4,514.49L609.33,491.4L610.26,508.33L611.18,512.95L612.11,489.86L613.04,491.4L613.96,480.62L614.89,640.72L615.82,657.65L616.74,660.73L617.67,663.81L618.6,659.19L619.52,679.2L620.45,651.49L621.38,665.35L622.3,628.4L623.23,662.27L624.15,629.94L625.08,648.41L626.01,651.49L626.93,605.31L627.86,646.87L628.79,677.66L629.71,676.12L630.64,640.72L631.57,608.39L632.49,688.44L633.42,682.28L634.35,659.19L635.27,689.98L636.2,659.19L637.13,648.41L638.05,665.35L638.98,679.2L639.91,688.44L640.83,639.18L641.76,542.2L642.69,571.45L643.61,536.04L644.54,548.35L645.46,522.19L646.39,534.5L647.32,499.09L648.24,532.96L649.17,482.16L650.1,511.41L651.02,548.35L651.95,542.2L652.88,605.31L653.8,565.29L654.73,603.77L655.66,571.45L656.58,554.51L657.51,531.42L658.44,568.37L659.36,532.96L660.29,525.26L661.22,414.43L662.14,408.27L663.07,422.13L663.99,426.74L664.92,432.9L665.85,380.56L666.77,375.95L667.7,385.18L668.63,417.51L669.55,432.9L670.48,556.05L671.41,591.46L672.33,586.84L673.26,576.06L674.19,583.76L675.11,606.85L676.04,596.07L676.97,611.47L677.89,616.09L678.82,600.69L679.75,623.78L680.67,648.41L681.6,628.4L682.53,659.19L683.45,631.48L684.38,611.47L685.3,654.57L686.23,651.49L687.16,648.41L688.08,648.41L689.01,654.57L689.94,643.8L690.86,666.89L691.79,642.26L692.72,674.58L693.64,654.57L694.57,625.32L695.5,626.86L696.42,608.39L697.35,574.52L698.28,576.06L699.2,591.46L700.13,594.54L701.06,559.13L701.98,582.22L702.91,565.29L703.83,554.51L704.76,552.97L705.69,566.83L706.61,609.93L707.54,625.32L708.47,646.87L709.39,636.1L710.32,603.77L711.25,594.54L712.17,611.47L713.1,566.83L714.03,585.3L714.95,611.47L715.88,614.55L716.81,517.57L717.73,529.88L718.66,525.26L719.59,502.17L720.51,525.26L721.44,505.25L722.37,522.19L723.29,508.33L724.22,483.7L725.14,517.57L726.07,637.64L727,666.89L727.92,642.26L728.85,653.03L729.78,631.48L730.7,671.5L731.63,625.32L732.56,663.81L733.48,633.02L734.41,640.72L735.34,636.1L736.26,674.58L737.19,614.55L738.12,654.57L739.04,653.03L739.97,657.65L740.9,613.01L741.82,559.13L742.75,556.05L743.68,637.64L744.6,642.26L745.53,651.49L746.45,636.1L747.38,634.56L748.31,577.6L749.23,603.77L750.16,579.14L751.09,583.76L752.01,613.01L752.94,586.84L753.87,563.75L754.79,539.12L755.72,572.98L756.65,554.51L757.57,551.43L758.5,497.56L759.43,571.45L760.35,546.82L761.28,506.79L762.21,557.59L763.13,616.09L764.06,620.7L764.98,605.31L765.91,580.68L766.84,576.06L767.76,531.42L768.69,552.97L769.62,572.98L770.54,559.13L771.47,560.67L772.4,448.3L773.32,448.3L774.25,442.14L775.18,432.9L776.1,455.99L777.03,459.07L777.96,465.23L778.88,442.14L779.81,460.61L780.74,448.3L781.66,539.12L782.59,593L783.52,585.3L784.44,597.61L785.37,603.77L786.29,593L787.22,571.45L788.15,534.5L789.07,576.06L790,596.07L790.93,559.13L791.85,554.51L792.78,568.37L793.71,577.6L794.63,560.67L795.56,503.71L796.49,551.43L797.41,549.89L798.34,529.88L799.27,554.51L800.19,548.35L801.12,552.97L802.05,568.37L802.97,577.6L803.9,557.59L804.83,560.67L805.75,532.96L806.68,539.12L807.6,543.74L808.53,531.42L809.46,542.2L810.38,540.66L811.31,579.14L812.24,597.61L813.16,543.74L814.09,512.95L815.02,545.28L815.94,508.33L816.87,500.63L817.8,580.68L818.72,585.3L819.65,605.31L820.58,583.76L821.5,600.69L822.43,594.54L823.36,531.42L824.28,549.89L825.21,549.89L826.13,511.41L827.06,537.58L827.99,428.28L828.91,412.89L829.84,457.53L830.77,429.82L831.69,432.9L832.62,455.99L833.55,440.6L834.47,432.9L835.4,429.82L836.33,415.97L837.25,551.43L838.18,593L839.11,568.37L840.03,614.55L840.96,591.46L841.89,620.7L842.81,656.11L843.74,643.8L844.67,613.01L845.59,593L846.52,602.23L847.44,633.02L848.37,660.73L849.3,663.81L850.22,668.43L851.15,693.06L852.08,622.24L853,642.26L853.93,571.45L854.86,597.61L855.78,614.55L856.71,648.41L857.64,668.43L858.56,619.17L859.49,649.95L860.42,629.94L861.34,643.8L862.27,631.48L863.2,588.38L864.12,565.29L865.05,531.42L865.98,522.19L866.9,552.97L867.83,545.28L868.75,554.51L869.68,536.04L870.61,548.35L871.53,546.82L872.46,529.88L873.39,668.43L874.31,697.67L875.24,656.11L876.17,625.32L877.09,608.39L878.02,625.32L878.95,596.07L879.87,591.46L880.8,620.7L881.73,619.17L882.65,596.07L883.58,499.09L884.51,472.93L885.43,509.87L886.36,509.87L887.28,532.96L888.21,534.5L889.14,480.62L890.06,496.02L890.99,525.26L891.92,514.49L892.84,683.82L893.77,653.03L894.7,671.5L895.62,688.44L896.55,628.4L897.48,662.27L898.4,673.04L899.33,671.5L900.26,637.64L901.18,646.87L902.11,648.41L903.04,659.19L903.96,665.35L904.89,668.43L905.82,679.2L906.74,611.47L907.67,663.81L908.59,674.58L909.52,662.27L910.45,637.64L911.37,645.33L912.3,648.41L913.23,625.32L914.15,605.31L915.08,648.41L916.01,633.02L916.93,639.18L917.86,677.66L918.79,626.86L919.71,560.67L920.64,562.21L921.57,549.89L922.49,508.33L923.42,532.96L924.35,537.58L925.27,542.2L926.2,506.79L927.13,505.25L928.05,492.94L928.98,516.03L929.9,542.2L930.83,609.93L931.76,583.76L932.68,589.92L933.61,583.76L934.54,559.13L935.46,548.35L936.39,543.74L937.32,580.68L938.24,569.91L939.17,457.53L940.1,432.9L941.02,477.54L941.95,508.33L942.88,512.95L943.8,522.19L944.73,457.53L945.66,500.63L946.58,488.32L947.51,509.87L948.43,642.26L949.36,645.33L950.29,649.95L951.21,657.65L952.14,568.37L953.07,593L953.99,589.92L954.92,579.14L955.85,571.45L956.77,562.21L957.7,566.83L958.63,536.04L959.55,532.96L960.48,531.42L961.41,520.65L962.33,543.74L963.26,552.97L964.19,591.46L965.11,574.52L966.04,562.21L966.97,602.23L967.89,549.89L968.82,611.47L969.74,594.54L970.67,600.69L971.6,614.55L972.52,589.92L973.45,622.24L974.38,596.07L975.3,512.95L976.23,543.74L977.16,483.7L978.08,528.34L979.01,531.42L979.94,536.04L980.86,503.71L981.79,531.42L982.72,489.86L983.64,512.95L984.57,529.88L985.5,643.8L986.42,637.64L987.35,625.32L988.28,593L989.2,606.85L990.13,639.18L991.05,626.86L991.98,571.45L992.91,602.23L993.83,623.78L994.76,486.78L995.69,497.56L996.61,503.71L997.54,497.56L998.47,512.95L999.39,525.26L1000.3,489.86L1001.2,506.79L1002.2,514.49L1003.1,494.48L1004,616.09L1005,603.77L1005.9,585.3L1006.8,631.48L1007.7,646.87L1008.7,640.72L1009.6,648.41L1010.5,637.64L1011.4,623.78L1012.4,651.49L1013.3,668.43L1014.2,646.87L1015.1,662.27L1016.1,609.93L1017,628.4L1017.9,685.36L1018.9,668.43L1019.8,665.35L1020.7,636.1L1021.6,637.64L1022.6,626.86L1023.5,614.55L1024.4,651.49L1025.3,631.48L1026.3,651.49L1027.2,649.95L1028.1,654.57L1029,646.87L1030,605.31L1030.9,499.09L1031.8,531.42L1032.7,520.65L1033.7,536.04L1034.6,520.65L1035.5,517.57L1036.5,520.65L1037.4,514.49L1038.3,522.19L1039.2,517.57L1040.2,497.56L1041.1,559.13L1042,528.34L1042.9,531.42L1043.9,514.49L1044.8,532.96L1045.7,614.55L1046.6,593L1047.6,569.91L1048.5,509.87L1049.4,565.29L1050.4,472.93L1051.3,406.73L1052.2,425.21L1053.1,415.97L1054.1,400.58L1055,385.18L1055.9,403.65L1056.8,465.23L1057.8,508.33L1058.7,482.16L1059.6,657.65L1060.5,668.43L1061.5,634.56L1062.4,616.09L1063.3,611.47L1064.2,579.14L1065.2,571.45L1066.1,554.51L1067,563.75L1068,637.64L1068.9,623.78L1069.8,625.32L1070.7,646.87L1071.7,648.41L1072.6,656.11L1073.5,679.2L1074.4,636.1L1075.4,683.82L1076.3,674.58L1077.2,700.75L1078.1,699.21L1079.1,669.96L1080,679.2" style="fill:none;stroke:#F15A60;stroke-width:1.875" />
<path d="M60.834,103.48L61.76,516.03L62.687,536.04L63.613,643.8L64.54,643.8L65.466,662.27L66.393,653.03L67.319,665.35L68.246,643.8L69.172,656.11L70.099,634.56L71.025,608.39L71.952,634.56L72.878,636.1L73.805,633.02L74.731,611.47L75.658,611.47L76.584,622.24L77.511,613.01L78.438,645.33L79.364,636.1L80.291,649.95L81.217,663.81L82.144,662.27L83.07,636.1L83.997,639.18L84.923,622.24L85.85,639.18L86.776,631.48L87.703,619.17L88.629,617.63L89.556,606.85L90.482,623.78L91.409,640.72L92.335,617.63L93.262,654.57L94.188,620.7L95.115,636.1L96.041,579.14L96.968,593L97.894,577.6L98.821,585.3L99.747,594.54L100.67,577.6L101.6,602.23L102.53,589.92L103.45,574.52L104.38,517.57L105.31,577.6L106.23,609.93L107.16,596.07L108.09,586.84L109.01,577.6L109.94,496.02L110.87,480.62L111.79,457.53L112.72,479.08L113.65,496.02L114.57,523.72L115.5,509.87L116.42,502.17L117.35,502.17L118.28,545.28L119.2,640.72L120.13,656.11L121.06,648.41L121.98,649.95L122.91,679.2L123.84,657.65L124.76,634.56L125.69,633.02L126.62,626.86L127.54,642.26L128.47,625.32L129.4,648.41L130.32,639.18L131.25,653.03L132.18,640.72L133.1,629.94L134.03,634.56L134.95,643.8L135.88,634.56L136.81,637.64L137.73,637.64L138.66,637.64L139.59,648.41L140.51,640.72L141.44,639.18L142.37,634.56L143.29,653.03L144.22,643.8L145.15,613.01L146.07,642.26L147,616.09L147.93,613.01L148.85,616.09L149.78,599.15L150.71,620.7L151.63,593L152.56,591.46L153.49,588.38L154.41,611.47L155.34,613.01L156.26,591.46L157.19,569.91L158.12,563.75L159.04,593L159.97,528.34L160.9,569.91L161.82,572.98L162.75,559.13L163.68,568.37L164.6,543.74L165.53,471.39L166.46,451.37L167.38,432.9L168.31,432.9L169.24,463.69L170.16,499.09L171.09,489.86L172.02,491.4L172.94,454.45L173.87,512.95L174.8,631.48L175.72,642.26L176.65,637.64L177.57,613.01L178.5,656.11L179.43,636.1L180.35,629.94L181.28,613.01L182.21,593L183.13,619.17L184.06,631.48L184.99,620.7L185.91,613.01L186.84,609.93L187.77,606.85L188.69,637.64L189.62,640.72L190.55,651.49L191.47,665.35L192.4,622.24L193.33,653.03L194.25,637.64L195.18,646.87L196.1,620.7L197.03,674.58L197.96,656.11L198.88,663.81L199.81,659.19L200.74,640.72L201.66,660.73L202.59,649.95L203.52,639.18L204.44,660.73L205.37,645.33L206.3,656.11L207.22,602.23L208.15,574.52L209.08,596.07L210,583.76L210.93,597.61L211.86,597.61L212.78,608.39L213.71,593L214.64,591.46L215.56,523.72L216.49,600.69L217.41,599.15L218.34,596.07L219.27,600.69L220.19,571.45L221.12,494.48L222.05,508.33L222.97,488.32L223.9,508.33L224.83,496.02L225.75,522.19L226.68,519.11L227.61,488.32L228.53,489.86L229.46,523.72L230.39,620.7L231.31,640.72L232.24,639.18L233.17,643.8L234.09,646.87L235.02,628.4L235.95,626.86L236.87,608.39L237.8,594.54L238.72,605.31L239.65,616.09L240.58,613.01L241.5,629.94L242.43,613.01L243.36,606.85L244.28,609.93L245.21,611.47L246.14,629.94L247.06,639.18L247.99,625.32L248.92,611.47L249.84,602.23L250.77,599.15L251.7,613.01L252.62,617.63L253.55,629.94L254.48,611.47L255.4,623.78L256.33,603.77L257.25,640.72L258.18,631.48L259.11,614.55L260.03,606.85L260.96,626.86L261.89,606.85L262.81,580.68L263.74,591.46L264.67,609.93L265.59,596.07L266.52,608.39L267.45,625.32L268.37,602.23L269.3,583.76L270.23,534.5L271.15,496.02L272.08,549.89L273.01,542.2L273.93,566.83L274.86,559.13L275.79,543.74L276.71,477.54L277.64,485.24L278.56,463.69L279.49,454.45L280.42,496.02L281.34,508.33L282.27,520.65L283.2,492.94L284.12,452.91L285.05,508.33L285.98,634.56L286.9,586.84L287.83,628.4L288.76,620.7L289.68,609.93L290.61,628.4L291.54,606.85L292.46,594.54L293.39,593L294.32,597.61L295.24,603.77L296.17,605.31L297.1,602.23L298.02,580.68L298.95,582.22L299.87,588.38L300.8,605.31L301.73,622.24L302.65,603.77L303.58,597.61L304.51,613.01L305.43,599.15L306.36,620.7L307.29,608.39L308.21,589.92L309.14,619.17L310.07,613.01L310.99,600.69L311.92,613.01L312.85,616.09L313.77,620.7L314.7,600.69L315.63,620.7L316.55,616.09L317.48,649.95L318.4,596.07L319.33,606.85L320.26,580.68L321.18,579.14L322.11,602.23L323.04,606.85L323.96,589.92L324.89,586.84L325.82,585.3L326.74,502.17L327.67,554.51L328.6,569.91L329.52,554.51L330.45,571.45L331.38,552.97L332.3,455.99L333.23,442.14L334.16,468.31L335.08,466.77L336.01,489.86L336.94,489.86L337.86,488.32L338.79,512.95L339.71,482.16L340.64,520.65L341.57,651.49L342.49,622.24L343.42,626.86L344.35,636.1L345.27,637.64L346.2,642.26L347.13,634.56L348.05,603.77L348.98,642.26L349.91,651.49L350.83,619.17L351.76,629.94L352.69,628.4L353.61,633.02L354.54,619.17L355.47,645.33L356.39,634.56L357.32,648.41L358.24,659.19L359.17,637.64L360.1,663.81L361.02,659.19L361.95,608.39L362.88,623.78L363.8,660.73L364.73,626.86L365.66,656.11L366.58,640.72L367.51,636.1L368.44,613.01L369.36,643.8L370.29,620.7L371.22,639.18L372.14,642.26L373.07,640.72L374,614.55L374.92,596.07L375.85,583.76L376.78,583.76L377.7,597.61L378.63,591.46L379.55,614.55L380.48,589.92L381.41,586.84L382.33,499.09L383.26,548.35L384.19,539.12L385.11,536.04L386.04,556.05L386.97,542.2L387.89,448.3L388.82,445.22L389.75,432.9L390.67,451.37L391.6,469.85L392.53,482.16L393.45,485.24L394.38,483.7L395.31,482.16L396.23,505.25L397.16,589.92L398.09,594.54L399.01,597.61L399.94,599.15L400.86,617.63L401.79,611.47L402.72,593L403.64,617.63L404.57,583.76L405.5,614.55L406.42,602.23L407.35,634.56L408.28,593L409.2,589.92L410.13,596.07L411.06,597.61L411.98,606.85L412.91,608.39L413.84,640.72L414.76,636.1L415.69,639.18L416.62,629.94L417.54,642.26L418.47,599.15L419.39,634.56L420.32,629.94L421.25,636.1L422.17,634.56L423.1,639.18L424.03,642.26L424.95,628.4L425.88,648.41L426.81,631.48L427.73,619.17L428.66,628.4L429.59,582.22L430.51,611.47L431.44,574.52L432.37,577.6L433.29,596.07L434.22,600.69L435.15,566.83L436.07,582.22L437,582.22L437.93,509.87L438.85,557.59L439.78,579.14L440.7,579.14L441.63,572.98L442.56,552.97L443.48,460.61L444.41,471.39L445.34,459.07L446.26,462.15L447.19,500.63L448.12,511.41L449.04,509.87L449.97,492.94L450.9,522.19L451.82,536.04L452.75,656.11L453.68,594.54L454.6,653.03L455.53,645.33L456.46,656.11L457.38,603.77L458.31,643.8L459.24,639.18L460.16,620.7L461.09,646.87L462.01,620.7L462.94,637.64L463.87,602.23L464.79,646.87L465.72,614.55L466.65,609.93L467.57,611.47L468.5,617.63L469.43,620.7L470.35,617.63L471.28,643.8L472.21,620.7L473.13,626.86L474.06,589.92L474.99,633.02L475.91,645.33L476.84,646.87L477.77,609.93L478.69,631.48L479.62,613.01L480.54,606.85L481.47,613.01L482.4,619.17L483.32,633.02L484.25,602.23L485.18,589.92L486.1,597.61L487.03,591.46L487.96,577.6L488.88,600.69L489.81,600.69L490.74,602.23L491.66,566.83L492.59,589.92L493.52,545.28L494.44,540.66L495.37,537.58L496.3,548.35L497.22,549.89L498.15,520.65L499.08,429.82L500,454.45L500.93,445.22L501.85,437.52L502.78,454.45L503.71,472.93L504.63,497.56L505.56,494.48L506.49,489.86L507.41,509.87L508.34,625.32L509.27,639.18L510.19,649.95L511.12,648.41L512.05,619.17L512.97,646.87L513.9,639.18L514.83,614.55L515.75,585.3L516.68,631.48L517.61,625.32L518.53,645.33L519.46,631.48L520.39,628.4L521.31,640.72L522.24,640.72L523.16,642.26L524.09,639.18L525.02,668.43L525.94,654.57L526.87,626.86L527.8,649.95L528.72,651.49L529.65,640.72L530.58,622.24L531.5,642.26L532.43,663.81L533.36,657.65L534.28,629.94L535.21,645.33L536.14,654.57L537.06,628.4L537.99,599.15L538.92,648.41L539.84,659.19L540.77,629.94L541.69,586.84L542.62,608.39L543.55,582.22L544.47,613.01L545.4,600.69L546.33,622.24L547.25,600.69L548.18,623.78L549.11,532.96L550.03,574.52L550.96,591.46L551.89,617.63L552.81,629.94L553.74,565.29L554.67,509.87L555.59,519.11L556.52,505.25L557.45,503.71L558.37,506.79L559.3,529.88L560.23,512.95L561.15,514.49L562.08,506.79L563,526.8L563.93,657.65L564.86,643.8L565.78,648.41L566.71,636.1L567.64,643.8L568.56,640.72L569.49,634.56L570.42,648.41L571.34,600.69L572.27,616.09L573.2,622.24L574.12,629.94L575.05,596.07L575.98,588.38L576.9,593L577.83,589.92L578.76,594.54L579.68,629.94L580.61,594.54L581.54,633.02L582.46,649.95L583.39,613.01L584.31,631.48L585.24,616.09L586.17,586.84L587.09,560.67L588.02,599.15L588.95,606.85L589.87,603.77L590.8,626.86L591.73,600.69L592.65,606.85L593.58,639.18L594.51,576.06L595.43,568.37L596.36,596.07L597.29,589.92L598.21,602.23L599.14,602.23L600.07,577.6L600.99,583.76L601.92,613.01L602.84,599.15L603.77,576.06L604.7,519.11L605.62,557.59L606.55,557.59L607.48,557.59L608.4,562.21L609.33,525.26L610.26,459.07L611.18,455.99L612.11,446.76L613.04,472.93L613.96,477.54L614.89,506.79L615.82,517.57L616.74,517.57L617.67,505.25L618.6,536.04L619.52,605.31L620.45,633.02L621.38,636.1L622.3,642.26L623.23,631.48L624.15,639.18L625.08,631.48L626.01,626.86L626.93,596.07L627.86,602.23L628.79,620.7L629.71,636.1L630.64,654.57L631.57,634.56L632.49,599.15L633.42,605.31L634.35,634.56L635.27,626.86L636.2,625.32L637.13,617.63L638.05,628.4L638.98,616.09L639.91,634.56L640.83,586.84L641.76,617.63L642.69,628.4L643.61,616.09L644.54,622.24L645.46,608.39L646.39,625.32L647.32,628.4L648.24,606.85L649.17,614.55L650.1,520.65L651.02,633.02L651.95,580.68L652.88,577.6L653.8,551.43L654.73,551.43L655.66,580.68L656.58,596.07L657.51,600.69L658.44,583.76L659.36,588.38L660.29,536.04L661.22,603.77L662.14,619.17L663.07,599.15L663.99,594.54L664.92,603.77L665.85,516.03L666.77,511.41L667.7,505.25L668.63,489.86L669.55,529.88L670.48,529.88L671.41,509.87L672.33,529.88L673.26,520.65L674.19,525.26L675.11,636.1L676.04,646.87L676.97,648.41L677.89,622.24L678.82,597.61L679.75,619.17L680.67,614.55L681.6,628.4L682.53,572.98L683.45,585.3L684.38,603.77L685.3,629.94L686.23,622.24L687.16,616.09L688.08,556.05L689.01,616.09L689.94,602.23L690.86,622.24L691.79,626.86L692.72,576.06L693.64,611.47L694.57,613.01L695.5,593L696.42,594.54L697.35,588.38L698.28,608.39L699.2,628.4L700.13,602.23L701.06,609.93L701.98,625.32L702.91,611.47L703.83,633.02L704.76,605.31L705.69,600.69L706.61,603.77L707.54,540.66L708.47,614.55L709.39,593L710.32,583.76L711.25,600.69L712.17,583.76L713.1,576.06L714.03,588.38L714.95,582.22L715.88,491.4L716.81,572.98L717.73,582.22L718.66,588.38L719.59,576.06L720.51,562.21L721.44,474.46L722.37,499.09L723.29,459.07L724.22,480.62L725.14,488.32L726.07,492.94L727,491.4L727.92,514.49L728.85,486.78L729.78,525.26L730.7,643.8L731.63,636.1L732.56,648.41L733.48,625.32L734.41,637.64L735.34,637.64L736.26,633.02L737.19,605.31L738.12,582.22L739.04,609.93L739.97,605.31L740.9,608.39L741.82,611.47L742.75,602.23L743.68,568.37L744.6,606.85L745.53,626.86L746.45,616.09L747.38,636.1L748.31,597.61L749.23,625.32L750.16,623.78L751.09,611.47L752.01,619.17L752.94,622.24L753.87,580.68L754.79,625.32L755.72,613.01L756.65,629.94L757.57,622.24L758.5,603.77L759.43,605.31L760.35,619.17L761.28,637.64L762.21,614.55L763.13,565.29L764.06,597.61L764.98,583.76L765.91,588.38L766.84,593L767.76,599.15L768.69,571.45L769.62,585.3L770.54,603.77L771.47,536.04L772.4,617.63L773.32,609.93L774.25,582.22L775.18,589.92L776.1,580.68L777.03,492.94L777.96,497.56L778.88,502.17L779.81,479.08L780.74,506.79L781.66,514.49L782.59,486.78L783.52,494.48L784.44,489.86L785.37,534.5L786.29,631.48L787.22,631.48L788.15,645.33L789.07,634.56L790,643.8L790.93,633.02L791.85,582.22L792.78,628.4L793.71,591.46L794.63,617.63L795.56,605.31L796.49,568.37L797.41,616.09L798.34,617.63L799.27,599.15L800.19,629.94L801.12,609.93L802.05,586.84L802.97,636.1L803.9,619.17L804.83,625.32L805.75,631.48L806.68,613.01L807.6,602.23L808.53,617.63L809.46,620.7L810.38,636.1L811.31,623.78L812.24,593L813.16,611.47L814.09,653.03L815.02,616.09L815.94,636.1L816.87,649.95L817.8,591.46L818.72,600.69L819.65,582.22L820.58,608.39L821.5,608.39L822.43,589.92L823.36,586.84L824.28,571.45L825.21,580.68L826.13,597.61L827.06,522.19L827.99,557.59L828.91,545.28L829.84,562.21L830.77,545.28L831.69,536.04L832.62,435.98L833.55,443.68L834.47,455.99L835.4,439.06L836.33,492.94L837.25,496.02L838.18,477.54L839.11,508.33L840.03,500.63L840.96,523.72L841.89,603.77L842.81,622.24L843.74,626.86L844.67,631.48L845.59,660.73L846.52,626.86L847.44,617.63L848.37,631.48L849.3,603.77L850.22,628.4L851.15,631.48L852.08,639.18L853,588.38L853.93,619.17L854.86,620.7L855.78,606.85L856.71,646.87L857.64,657.65L858.56,625.32L859.49,686.9L860.42,654.57L861.34,654.57L862.27,645.33L863.2,623.78L864.12,623.78L865.05,626.86L865.98,653.03L866.9,636.1L867.83,636.1L868.75,656.11L869.68,636.1L870.61,656.11L871.53,648.41L872.46,639.18L873.39,628.4L874.31,609.93L875.24,591.46L876.17,596.07L877.09,594.54L878.02,611.47L878.95,600.69L879.87,609.93L880.8,563.75L881.73,602.23L882.65,512.95L883.58,569.91L884.51,597.61L885.43,593L886.36,599.15L887.28,545.28L888.21,489.86L889.14,522.19L890.06,496.02L890.99,489.86L891.92,519.11L892.84,505.25L893.77,480.62L894.7,522.19L895.62,505.25L896.55,523.72L897.48,620.7L898.4,649.95L899.33,649.95L900.26,609.93L901.18,656.11L902.11,602.23L903.04,614.55L903.96,633.02L904.89,582.22L905.82,591.46L906.74,613.01L907.67,617.63L908.59,616.09L909.52,591.46L910.45,613.01L911.37,545.28L912.3,609.93L913.23,620.7L914.15,626.86L915.08,602.23L916.01,640.72L916.93,594.54L917.86,617.63L918.79,613.01L919.71,642.26L920.64,619.17L921.57,648.41L922.49,637.64L923.42,634.56L924.35,625.32L925.27,634.56L926.2,622.24L927.13,626.86L928.05,659.19L928.98,580.68L929.9,585.3L930.83,606.85L931.76,594.54L932.68,594.54L933.61,603.77L934.54,608.39L935.46,559.13L936.39,583.76L937.32,602.23L938.24,536.04L939.17,559.13L940.1,568.37L941.02,556.05L941.95,531.42L942.88,522.19L943.8,428.28L944.73,437.52L945.66,437.52L946.58,445.22L947.51,480.62L948.43,492.94L949.36,480.62L950.29,443.68L951.21,491.4L952.14,506.79L953.07,622.24L953.99,622.24L954.92,623.78L955.85,631.48L956.77,613.01L957.7,631.48L958.63,620.7L959.55,609.93L960.48,591.46L961.41,616.09L962.33,579.14L963.26,614.55L964.19,585.3L965.11,617.63L966.04,623.78L966.97,636.1L967.89,654.57L968.82,646.87L969.74,640.72L970.67,639.18L971.6,645.33L972.52,634.56L973.45,646.87L974.38,649.95L975.3,603.77L976.23,648.41L977.16,648.41L978.08,634.56L979.01,654.57L979.94,642.26L980.86,616.09L981.79,626.86L982.72,643.8L983.64,626.86L984.57,634.56L985.5,617.63L986.42,596.07L987.35,557.59L988.28,585.3L989.2,599.15L990.13,603.77L991.05,605.31L991.98,591.46L992.91,614.55L993.83,483.7L994.76,585.3L995.69,559.13L996.61,569.91L997.54,580.68L998.47,556.05L999.39,468.31L1000.3,471.39L1001.2,414.43L1002.2,466.77L1003.1,479.08L1004,488.32L1005,505.25L1005.9,492.94L1006.8,499.09L1007.7,514.49L1008.7,646.87L1009.6,583.76L1010.5,629.94L1011.4,616.09L1012.4,608.39L1013.3,609.93L1014.2,609.93L1015.1,566.83L1016.1,574.52L1017,609.93L1017.9,586.84L1018.9,597.61L1019.8,619.17L1020.7,628.4L1021.6,614.55L1022.6,542.2L1023.5,636.1L1024.4,629.94L1025.3,642.26L1026.3,591.46L1027.2,642.26L1028.1,611.47L1029,576.06L1030,599.15L1030.9,614.55L1031.8,637.64L1032.7,640.72L1033.7,605.31L1034.6,619.17L1035.5,605.31L1036.5,663.81L1037.4,636.1L1038.3,620.7L1039.2,651.49L1040.2,633.02L1041.1,565.29L1042,563.75L1042.9,583.76L1043.9,591.46L1044.8,568.37L1045.7,585.3" style="fill:none;stroke:#7AC36A;stroke-width:1.875;stroke-dasharray:7.5,2.5" />
<path d="M1055,693.4L1080,693.4" style="fill:none;stroke:#F15A60;stroke-width:1.875" />
<text x="882.43" y="-686.35" transform="scale(1, -1)"
	style="font-family:Helvetica;font-weight:normal;font-style:normal;font-size:12pt">etcd v3 (no compression)</text>
<path d="M1055,678.7L1080,678.7" style="fill:none;stroke:#7AC36A;stroke-width:1.875;stroke-dasharray:7.5,2.5" />
<text x="939.94" y="-671.65" transform="scale(1, -1)"
	style="font-family:Helvetica;font-weight:normal;font-style:normal;font-size:12pt">etcd v3 (snappy)</text>
</g>
</svg>
