<?xml version="1.0"?>
<!-- Generated by SVGo and Plotinum VG -->
<svg width="12in" height="8in"
	xmlns="http://www.w3.org/2000/svg"
	xmlns:xlink="http://www.w3.org/1999/xlink">
<g transform="scale(1, -1) translate(0, -720)">
<path d="M0,0L1080,0L1080,720L0,720Z" style="fill:#FFFFFF" />
<text x="277.81" y="-706.41" transform="scale(1, -1)"
	style="font-family:Helvetica;font-weight:normal;font-style:normal;font-size:12pt">Write 1M keys, 500 clients(etcd 50 conns), key 32 bytes, value 500 bytes, CPU</text>
<text x="544.64" y="-4.965" transform="scale(1, -1)"
	style="font-family:Helvetica;font-weight:normal;font-style:normal;font-size:12pt">Second</text>
<text x="56.662" y="-19.142" transform="scale(1, -1)"
	style="font-family:Helvetica;font-weight:normal;font-style:normal;font-size:10pt">0</text>
<text x="378.68" y="-19.142" transform="scale(1, -1)"
	style="font-family:Helvetica;font-weight:normal;font-style:normal;font-size:10pt">30</text>
<text x="704.16" y="-19.142" transform="scale(1, -1)"
	style="font-family:Helvetica;font-weight:normal;font-style:normal;font-size:10pt">60</text>
<text x="1029.7" y="-19.142" transform="scale(1, -1)"
	style="font-family:Helvetica;font-weight:normal;font-style:normal;font-size:10pt">90</text>
<path d="M60.137,30.467L60.137,40.467" style="fill:none;stroke:#000000;stroke-width:0.625" />
<path d="M385.63,30.467L385.63,40.467" style="fill:none;stroke:#000000;stroke-width:0.625" />
<path d="M711.11,30.467L711.11,40.467" style="fill:none;stroke:#000000;stroke-width:0.625" />
<path d="M1036.6,30.467L1036.6,40.467" style="fill:none;stroke:#000000;stroke-width:0.625" />
<path d="M168.63,35.468L168.63,40.467" style="fill:none;stroke:#000000;stroke-width:0.625" />
<path d="M277.13,35.468L277.13,40.467" style="fill:none;stroke:#000000;stroke-width:0.625" />
<path d="M494.12,35.468L494.12,40.467" style="fill:none;stroke:#000000;stroke-width:0.625" />
<path d="M602.62,35.468L602.62,40.467" style="fill:none;stroke:#000000;stroke-width:0.625" />
<path d="M819.61,35.468L819.61,40.467" style="fill:none;stroke:#000000;stroke-width:0.625" />
<path d="M928.11,35.468L928.11,40.467" style="fill:none;stroke:#000000;stroke-width:0.625" />
<path d="M60.137,40.467L1080,40.467" style="fill:none;stroke:#000000;stroke-width:0.625" />
<g transform="rotate(90)">
<text x="358.4" y="13.59" transform="scale(1, -1)"
	style="font-family:Helvetica;font-weight:normal;font-style:normal;font-size:12pt">CPU</text>
</g>
<text x="18.555" y="-244.79" transform="scale(1, -1)"
	style="font-family:Helvetica;font-weight:normal;font-style:normal;font-size:10pt">100</text>
<text x="18.555" y="-454.7" transform="scale(1, -1)"
	style="font-family:Helvetica;font-weight:normal;font-style:normal;font-size:10pt">200</text>
<text x="18.555" y="-664.61" transform="scale(1, -1)"
	style="font-family:Helvetica;font-weight:normal;font-style:normal;font-size:10pt">300</text>
<path d="M42.88,250.16L52.88,250.16" style="fill:none;stroke:#000000;stroke-width:0.625" />
<path d="M42.88,460.07L52.88,460.07" style="fill:none;stroke:#000000;stroke-width:0.625" />
<path d="M42.88,669.98L52.88,669.98" style="fill:none;stroke:#000000;stroke-width:0.625" />
<path d="M47.88,145.2L52.88,145.2" style="fill:none;stroke:#000000;stroke-width:0.625" />
<path d="M47.88,355.11L52.88,355.11" style="fill:none;stroke:#000000;stroke-width:0.625" />
<path d="M47.88,565.02L52.88,565.02" style="fill:none;stroke:#000000;stroke-width:0.625" />
<path d="M52.88,47.03L52.88,701.44" style="fill:none;stroke:#000000;stroke-width:0.625" />
<path d="M60.137,47.03L70.987,127.59L81.837,193.46L92.686,251.46L103.54,299.3L114.39,337.08L125.24,370.63L136.08,400.04L146.93,427.07L157.78,450.79L168.63,473.02L179.48,490.84L190.33,506.61L201.18,521.05L212.03,533.58L222.88,545.13L233.73,557.24L244.58,565.44L255.43,574.01L266.28,582.76L277.13,590.17L287.98,596.24L298.83,604.47L309.68,610.55L320.53,617.06L331.38,622.9L342.23,628.35L353.08,632.93L363.93,637.63L374.78,642.75L385.63,646.26L396.48,650.37L407.32,654.38L418.17,657.51L429.02,660.47L439.87,663.39L450.72,665.49L461.57,669.5L472.42,672.12L483.27,674.87L494.12,677.62L504.97,681L515.82,683.37L526.67,686.33L537.52,689.02L548.37,691.47L559.22,694.04L570.07,696.87L580.92,699.43L591.77,701.44" style="fill:none;stroke:#F15A60;stroke-width:1.875" />
<path d="M60.137,58.176L70.987,168.97L81.837,241.15L92.686,290.53L103.54,333.49L114.39,341.47L125.24,333.87L136.08,361.68L146.93,385.4L157.78,412.46L168.63,428.39L179.48,435.91L190.33,449.83L201.18,466.87L212.03,475.25L222.88,495.21L233.73,506.1L244.58,520.17L255.43,527.39L266.28,535.83L277.13,538.97L287.98,548.74L298.83,557.17L309.68,571.7L320.53,582.17L331.38,588.56L342.23,592.59L353.08,598.88L363.93,604.57L374.78,609.67L385.63,615.44L396.48,613.6L407.32,610.91L418.17,610.72L429.02,607.2L439.87,597.88L450.72,587.78L461.57,578.73L472.42,568.74L483.27,557.55L494.12,546.64L504.97,536.58L515.82,528.23L526.67,518.38L537.52,508.75L548.37,499.68L559.22,491.28L570.07,483.94L580.92,478.65L591.77,472.56L602.62,465.21L613.47,457.66L624.32,450.06L635.17,443.99L646.02,438.32L656.87,432.74L667.72,426.8L678.56,420.29L689.41,414.16L700.26,407.8L711.11,403.9L721.96,400.14L732.81,394.83L743.66,390L754.51,385.22L765.36,380.81L776.21,376.15L787.06,371.55L797.91,366.72L808.76,362.19L819.61,358.56L830.46,354.95L841.31,351L852.16,347.68L863.01,344.72L873.86,340.97L884.71,337.88L895.56,334.5L906.41,331.58L917.26,328.88L928.11,325.71L938.96,322.56L949.8,319.35L960.65,316.24L971.5,313.15L982.35,310.07L993.2,307.11L1004.1,304.55L1014.9,302.01L1025.8,299.43L1036.6,297.49L1047.5,295.69L1058.3,293.44L1069.2,290.99L1080,288.62" style="fill:none;stroke:#7AC36A;stroke-width:1.875;stroke-dasharray:7.5,2.5" />
<path d="M1055,694.3L1080,694.3" style="fill:none;stroke:#F15A60;stroke-width:1.875" />
<text x="1002.5" y="-687.85" transform="scale(1, -1)"
	style="font-family:Helvetica;font-weight:normal;font-style:normal;font-size:12pt">etcd v3</text>
<path d="M1055,680L1080,680" style="fill:none;stroke:#7AC36A;stroke-width:1.875;stroke-dasharray:7.5,2.5" />
<text x="934.1" y="-673.56" transform="scale(1, -1)"
	style="font-family:Helvetica;font-weight:normal;font-style:normal;font-size:12pt">Zookeeper v3.4.8</text>
</g>
</svg>
