<?xml version="1.0"?>
<!-- Generated by SVGo and Plotinum VG -->
<svg width="12in" height="8in"
	xmlns="http://www.w3.org/2000/svg"
	xmlns:xlink="http://www.w3.org/1999/xlink">
<g transform="scale(1, -1) translate(0, -720)">
<path d="M0,0L1080,0L1080,720L0,720Z" style="fill:#FFFFFF" />
<text x="255.28" y="-706.41" transform="scale(1, -1)"
	style="font-family:Helvetica;font-weight:normal;font-style:normal;font-size:12pt">Write 1M keys, 500 clients(etcd 50 conns), key 32 bytes, value 500 bytes, Throughput</text>
<text x="551.76" y="-4.965" transform="scale(1, -1)"
	style="font-family:Helvetica;font-weight:normal;font-style:normal;font-size:12pt">Second</text>
<text x="70.912" y="-19.142" transform="scale(1, -1)"
	style="font-family:Helvetica;font-weight:normal;font-style:normal;font-size:10pt">0</text>
<text x="385" y="-19.142" transform="scale(1, -1)"
	style="font-family:Helvetica;font-weight:normal;font-style:normal;font-size:10pt">30</text>
<text x="702.56" y="-19.142" transform="scale(1, -1)"
	style="font-family:Helvetica;font-weight:normal;font-style:normal;font-size:10pt">60</text>
<text x="1020.1" y="-19.142" transform="scale(1, -1)"
	style="font-family:Helvetica;font-weight:normal;font-style:normal;font-size:10pt">90</text>
<path d="M74.388,30.467L74.388,40.467" style="fill:none;stroke:#000000;stroke-width:0.625" />
<path d="M391.95,30.467L391.95,40.467" style="fill:none;stroke:#000000;stroke-width:0.625" />
<path d="M709.51,30.467L709.51,40.467" style="fill:none;stroke:#000000;stroke-width:0.625" />
<path d="M1027.1,30.467L1027.1,40.467" style="fill:none;stroke:#000000;stroke-width:0.625" />
<path d="M180.24,35.468L180.24,40.467" style="fill:none;stroke:#000000;stroke-width:0.625" />
<path d="M286.1,35.468L286.1,40.467" style="fill:none;stroke:#000000;stroke-width:0.625" />
<path d="M497.8,35.468L497.8,40.467" style="fill:none;stroke:#000000;stroke-width:0.625" />
<path d="M603.66,35.468L603.66,40.467" style="fill:none;stroke:#000000;stroke-width:0.625" />
<path d="M815.37,35.468L815.37,40.467" style="fill:none;stroke:#000000;stroke-width:0.625" />
<path d="M921.22,35.468L921.22,40.467" style="fill:none;stroke:#000000;stroke-width:0.625" />
<path d="M74.388,40.467L1080,40.467" style="fill:none;stroke:#000000;stroke-width:0.625" />
<g transform="rotate(90)">
<text x="335.88" y="13.59" transform="scale(1, -1)"
	style="font-family:Helvetica;font-weight:normal;font-style:normal;font-size:12pt">Throughput</text>
</g>
<text x="46.705" y="-41.661" transform="scale(1, -1)"
	style="font-family:Helvetica;font-weight:normal;font-style:normal;font-size:10pt">0</text>
<text x="18.555" y="-209.81" transform="scale(1, -1)"
	style="font-family:Helvetica;font-weight:normal;font-style:normal;font-size:10pt">1e+04</text>
<text x="18.555" y="-377.96" transform="scale(1, -1)"
	style="font-family:Helvetica;font-weight:normal;font-style:normal;font-size:10pt">2e+04</text>
<text x="18.555" y="-546.11" transform="scale(1, -1)"
	style="font-family:Helvetica;font-weight:normal;font-style:normal;font-size:10pt">3e+04</text>
<path d="M57.13,47.03L67.13,47.03" style="fill:none;stroke:#000000;stroke-width:0.625" />
<path d="M57.13,215.18L67.13,215.18" style="fill:none;stroke:#000000;stroke-width:0.625" />
<path d="M57.13,383.33L67.13,383.33" style="fill:none;stroke:#000000;stroke-width:0.625" />
<path d="M57.13,551.47L67.13,551.47" style="fill:none;stroke:#000000;stroke-width:0.625" />
<path d="M62.13,131.1L67.13,131.1" style="fill:none;stroke:#000000;stroke-width:0.625" />
<path d="M62.13,299.25L67.13,299.25" style="fill:none;stroke:#000000;stroke-width:0.625" />
<path d="M62.13,467.4L67.13,467.4" style="fill:none;stroke:#000000;stroke-width:0.625" />
<path d="M62.13,635.55L67.13,635.55" style="fill:none;stroke:#000000;stroke-width:0.625" />
<path d="M67.13,47.03L67.13,701.44" style="fill:none;stroke:#000000;stroke-width:0.625" />
<path d="M74.388,321.51L84.973,429.52L95.558,420.77L106.14,397.06L116.73,376.4L127.31,379.51L137.9,388.4L148.49,404.5L159.07,386.82L169.66,390.44L180.24,379.26L190.83,375.74L201.41,368.98L212,371.44L222.58,370.82L233.17,380.5L243.75,354.59L254.34,362.12L264.92,362.8L275.51,350L286.1,358.41L296.68,374.06L307.27,385.01L317.85,366.17L328.44,351.51L339.02,372.28L349.61,358.04L360.19,357.13L370.78,357.7L381.36,370.93L391.95,354.34L402.53,352.87L413.12,372.63L423.71,329.22L434.29,374.46L444.88,356.54L455.46,348.08L466.05,347.54L476.63,382.18L487.22,349.88L497.8,373.41L508.39,349.48L518.97,370.19L529.56,400.85L540.14,355.04L550.73,377.1L561.32,424.94L571.9,382.54L582.49,365.86L593.07,370.92L603.66,372.41" style="fill:none;stroke:#F15A60;stroke-width:1.875" />
<path d="M74.388,194.29L84.973,413.51L95.558,581.71L106.14,650.31L116.73,486.84L127.31,72.252L137.9,586.84L148.49,628.99L159.07,463.77L169.66,473.49L180.24,586.99L190.83,368.11L201.41,680.53L212,355.88L222.58,379.98L233.17,638.98L243.75,699.28L254.34,590.37L264.92,688.73L275.51,288.39L286.1,576.34L296.68,701.44L307.27,662.5L317.85,192.38L328.44,615.81L339.02,682.12L349.61,688.83L360.19,591.8L370.78,639.84L381.36,591.46L391.95,405.03L402.53,636.84L413.12,411.09L423.71,505.23L434.29,68.872L444.88,55.471L455.46,55.421L466.05,47.03L476.63,47.03L487.22,47.03L497.8,47.03L508.39,47.03L518.97,47.03L529.56,47.03L540.14,47.03L550.73,47.03L561.32,47.03L571.9,47.03L582.49,47.03L593.07,47.03L603.66,47.03L614.24,47.03L624.83,47.03L635.41,47.03L646,47.03L656.58,47.03L667.17,47.03L677.75,47.03L688.34,47.03L698.93,47.03L709.51,47.03L720.1,47.03L730.68,47.03L741.27,47.03L751.85,47.03L762.44,47.03L773.02,47.03L783.61,47.03L794.19,47.03L804.78,47.03L815.37,47.03L825.95,47.03L836.54,47.03L847.12,47.03L857.71,47.03L868.29,47.03L878.88,47.03L889.46,47.03L900.05,47.03L910.63,47.03L921.22,47.03L931.8,47.03L942.39,47.03L952.98,47.03L963.56,47.03L974.15,47.03L984.73,47.03L995.32,47.03L1005.9,47.03L1016.5,47.03L1027.1,47.03L1037.7,47.03L1048.2,47.03L1058.8,47.03L1069.4,47.03L1080,207.26" style="fill:none;stroke:#7AC36A;stroke-width:1.875;stroke-dasharray:7.5,2.5" />
<path d="M1055,694.3L1080,694.3" style="fill:none;stroke:#F15A60;stroke-width:1.875" />
<text x="1002.5" y="-687.85" transform="scale(1, -1)"
	style="font-family:Helvetica;font-weight:normal;font-style:normal;font-size:12pt">etcd v3</text>
<path d="M1055,680L1080,680" style="fill:none;stroke:#7AC36A;stroke-width:1.875;stroke-dasharray:7.5,2.5" />
<text x="934.1" y="-673.56" transform="scale(1, -1)"
	style="font-family:Helvetica;font-weight:normal;font-style:normal;font-size:12pt">Zookeeper v3.4.8</text>
</g>
</svg>
