<?xml version="1.0"?>
<!-- Generated by SVGo and Plotinum VG -->
<svg width="12in" height="8in"
	xmlns="http://www.w3.org/2000/svg"
	xmlns:xlink="http://www.w3.org/1999/xlink">
<g transform="scale(1, -1) translate(0, -720)">
<path d="M0,0L1080,0L1080,720L0,720Z" style="fill:#FFFFFF" />
<text x="281.98" y="-706.41" transform="scale(1, -1)"
	style="font-family:Helvetica;font-weight:normal;font-style:normal;font-size:12pt">Write 500K keys, 1 client, key 32 bytes, value 500 bytes, Latency(millisecond)</text>
<text x="537.69" y="-4.965" transform="scale(1, -1)"
	style="font-family:Helvetica;font-weight:normal;font-style:normal;font-size:12pt">Second</text>
<text x="42.762" y="-19.142" transform="scale(1, -1)"
	style="font-family:Helvetica;font-weight:normal;font-style:normal;font-size:10pt">0</text>
<text x="315.96" y="-19.142" transform="scale(1, -1)"
	style="font-family:Helvetica;font-weight:normal;font-style:normal;font-size:10pt">300</text>
<text x="596.12" y="-19.142" transform="scale(1, -1)"
	style="font-family:Helvetica;font-weight:normal;font-style:normal;font-size:10pt">600</text>
<text x="876.27" y="-19.142" transform="scale(1, -1)"
	style="font-family:Helvetica;font-weight:normal;font-style:normal;font-size:10pt">900</text>
<path d="M46.237,30.467L46.237,40.467" style="fill:none;stroke:#000000;stroke-width:0.625" />
<path d="M326.39,30.467L326.39,40.467" style="fill:none;stroke:#000000;stroke-width:0.625" />
<path d="M606.54,30.467L606.54,40.467" style="fill:none;stroke:#000000;stroke-width:0.625" />
<path d="M886.69,30.467L886.69,40.467" style="fill:none;stroke:#000000;stroke-width:0.625" />
<path d="M139.62,35.468L139.62,40.467" style="fill:none;stroke:#000000;stroke-width:0.625" />
<path d="M233.01,35.468L233.01,40.467" style="fill:none;stroke:#000000;stroke-width:0.625" />
<path d="M419.77,35.468L419.77,40.467" style="fill:none;stroke:#000000;stroke-width:0.625" />
<path d="M513.16,35.468L513.16,40.467" style="fill:none;stroke:#000000;stroke-width:0.625" />
<path d="M699.93,35.468L699.93,40.467" style="fill:none;stroke:#000000;stroke-width:0.625" />
<path d="M793.31,35.468L793.31,40.467" style="fill:none;stroke:#000000;stroke-width:0.625" />
<path d="M980.08,35.468L980.08,40.467" style="fill:none;stroke:#000000;stroke-width:0.625" />
<path d="M1073.5,35.468L1073.5,40.467" style="fill:none;stroke:#000000;stroke-width:0.625" />
<path d="M46.237,40.467L1080,40.467" style="fill:none;stroke:#000000;stroke-width:0.625" />
<g transform="rotate(90)">
<text x="305.89" y="13.59" transform="scale(1, -1)"
	style="font-family:Helvetica;font-weight:normal;font-style:normal;font-size:12pt">Latency(millisecond)</text>
</g>
<text x="18.555" y="-66.259" transform="scale(1, -1)"
	style="font-family:Helvetica;font-weight:normal;font-style:normal;font-size:10pt">2</text>
<text x="18.555" y="-179.16" transform="scale(1, -1)"
	style="font-family:Helvetica;font-weight:normal;font-style:normal;font-size:10pt">3</text>
<text x="18.555" y="-292.07" transform="scale(1, -1)"
	style="font-family:Helvetica;font-weight:normal;font-style:normal;font-size:10pt">4</text>
<text x="18.555" y="-404.97" transform="scale(1, -1)"
	style="font-family:Helvetica;font-weight:normal;font-style:normal;font-size:10pt">5</text>
<text x="18.555" y="-517.88" transform="scale(1, -1)"
	style="font-family:Helvetica;font-weight:normal;font-style:normal;font-size:10pt">6</text>
<text x="18.555" y="-630.78" transform="scale(1, -1)"
	style="font-family:Helvetica;font-weight:normal;font-style:normal;font-size:10pt">7</text>
<path d="M28.98,71.628L38.98,71.628" style="fill:none;stroke:#000000;stroke-width:0.625" />
<path d="M28.98,184.53L38.98,184.53" style="fill:none;stroke:#000000;stroke-width:0.625" />
<path d="M28.98,297.44L38.98,297.44" style="fill:none;stroke:#000000;stroke-width:0.625" />
<path d="M28.98,410.34L38.98,410.34" style="fill:none;stroke:#000000;stroke-width:0.625" />
<path d="M28.98,523.25L38.98,523.25" style="fill:none;stroke:#000000;stroke-width:0.625" />
<path d="M28.98,636.15L38.98,636.15" style="fill:none;stroke:#000000;stroke-width:0.625" />
<path d="M33.98,128.08L38.98,128.08" style="fill:none;stroke:#000000;stroke-width:0.625" />
<path d="M33.98,240.99L38.98,240.99" style="fill:none;stroke:#000000;stroke-width:0.625" />
<path d="M33.98,353.89L38.98,353.89" style="fill:none;stroke:#000000;stroke-width:0.625" />
<path d="M33.98,466.8L38.98,466.8" style="fill:none;stroke:#000000;stroke-width:0.625" />
<path d="M33.98,579.7L38.98,579.7" style="fill:none;stroke:#000000;stroke-width:0.625" />
<path d="M33.98,692.61L38.98,692.61" style="fill:none;stroke:#000000;stroke-width:0.625" />
<path d="M38.98,47.03L38.98,701.44" style="fill:none;stroke:#000000;stroke-width:0.625" />
<path d="M46.237,98.101L47.171,71.687L48.105,69.926L49.039,66.967L49.973,74.256L50.907,77.423L51.841,65.687L52.774,68.233L53.708,64.973L54.642,58.597L55.576,74.676L56.51,75.674L57.444,68.083L58.377,60.766L59.311,61.16L60.245,67.685L61.179,65.85L62.113,62.373L63.047,66.839L63.98,71.65L64.914,60.59L65.848,66.264L66.782,64.377L67.716,78.582L68.65,69.578L69.584,72.209L70.517,74.377L71.451,77.111L72.385,78.136L73.319,79.495L74.253,86.519L75.187,72.351L76.12,79.087L77.054,75.281L77.988,69.858L78.922,72.315L79.856,66.113L80.79,69.621L81.723,73.54L82.657,67.491L83.591,81.827L84.525,84.781L85.459,86.739L86.393,89.583L87.327,95.088L88.26,106.29L89.194,90.617L90.128,97.721L91.062,97.35L91.996,93.257L92.93,136.4L93.863,143.44L94.797,143.11L95.731,134.01L96.665,158.57L97.599,147.79L98.533,141.29L99.466,154.66L100.4,144.13L101.33,159.67L102.27,106.34L103.2,86.542L104.14,92.413L105.07,88.991L106,86.893L106.94,84.662L107.87,81.295L108.8,69.283L109.74,67.081L110.67,76.029L111.61,86.702L112.54,76.762L113.47,76.045L114.41,77.448L115.34,74.991L116.28,75.553L117.21,70.98L118.14,68.096L119.08,66.638L120.01,61.03L120.94,74.542L121.88,71.23L122.81,73.672L123.75,61.442L124.68,75.563L125.61,76.898L126.55,68.08L127.48,79.218L128.42,67.886L129.35,71.245L130.28,84.596L131.22,72.315L132.15,71.77L133.08,70.974L134.02,74.06L134.95,62.626L135.89,61.044L136.82,59.124L137.75,59.531L138.69,63.767L139.62,79.448L140.56,92.973L141.49,83.489L142.42,97.393L143.36,102.09L144.29,103.68L145.22,102.92L146.16,93.857L147.09,95.69L148.03,97.338L148.96,116.31L149.89,143.07L150.83,151.29L151.76,132.76L152.7,132.44L153.63,130.32L154.56,141.94L155.5,141.89L156.43,136.92L157.36,133.55L158.3,98.273L159.23,82.134L160.17,83.033L161.1,90.945L162.03,83.303L162.97,79.668L163.9,73.52L164.84,68.116L165.77,70.229L166.7,77.701L167.64,76.059L168.57,61.708L169.5,63.814L170.44,70.337L171.37,73.873L172.31,70.849L173.24,67.377L174.17,75.51L175.11,74.393L176.04,66.126L176.98,71.621L177.91,71.969L178.84,72.989L179.78,67.541L180.71,83.102L181.64,73.245L182.58,70.452L183.51,65.096L184.45,67.101L185.38,82.269L186.31,78.003L187.25,73.147L188.18,77.098L189.12,81.554L190.05,91.566L190.98,78.129L191.92,75.381L192.85,76.063L193.78,75.587L194.72,83.499L195.65,99.038L196.59,98.016L197.52,109.81L198.45,110.05L199.39,110.22L200.32,118.28L201.26,110.12L202.19,113.06L203.12,114.36L204.06,101.45L204.99,144.48L205.92,166.59L206.86,165.17L207.79,146.6L208.73,175.31L209.66,142.96L210.59,174.85L211.53,143.14L212.46,145.98L213.4,157.94L214.33,108.54L215.26,80.14L216.2,86.499L217.13,80.682L218.06,77.14L219,102.85L219.93,72.587L220.87,74.467L221.8,78.103L222.73,73.203L223.67,78.254L224.6,67.949L225.54,79.266L226.47,69.746L227.4,75.017L228.34,72.088L229.27,83.429L230.2,76.819L231.14,79.378L232.07,88.958L233.01,84.366L233.94,78.647L234.87,86.549L235.81,76.881L236.74,77.576L237.67,85.991L238.61,80.444L239.54,78.979L240.48,82.306L241.41,73.829L242.34,84.481L243.28,82.363L244.21,75.554L245.15,78.87L246.08,82.188L247.01,75.403L247.95,78.535L248.88,81.804L249.81,68.459L250.75,65.631L251.68,89.8L252.62,100.97L253.55,93.227L254.48,100.76L255.42,111.03L256.35,115.67L257.29,98.592L258.22,90.153L259.15,87.101L260.09,97.227L261.02,141.42L261.95,139.06L262.89,153.37L263.82,132.16L264.76,132.72L265.69,130.42L266.62,126.28L267.56,128.9L268.49,136.37L269.43,141.16L270.36,93.711L271.29,65.336L272.23,81.068L273.16,71.521L274.09,73.767L275.03,87.596L275.96,74.613L276.9,71.568L277.83,74.536L278.76,79.4L279.7,83.256L280.63,75.066L281.57,77.602L282.5,81.813L283.43,86.274L284.37,70.49L285.3,70.71L286.23,70.404L287.17,72.056L288.1,76.758L289.04,74.164L289.97,80.428L290.9,78.855L291.84,78.242L292.77,84.028L293.71,83.701L294.64,80.057L295.57,87.872L296.51,73.557L297.44,79.73L298.37,79.255L299.31,78.764L300.24,68.401L301.18,81.931L302.11,86.412L303.04,76.666L303.98,74.065L304.91,72.813L305.85,73.821L306.78,75.71L307.71,86.349L308.65,94.74L309.58,94.382L310.51,100.82L311.45,103.88L312.38,110.33L313.32,93.975L314.25,91.966L315.18,93.858L316.12,85.221L317.05,134.04L317.99,137.77L318.92,155.61L319.85,169.18L320.79,176.44L321.72,173.07L322.65,152.67L323.59,163.89L324.52,156.84L325.46,150.36L326.39,102.38L327.32,72.312L328.26,78.497L329.19,76.626L330.13,69.063L331.06,83.178L331.99,64.207L332.93,68.733L333.86,70.582L334.79,66.446L335.73,65.511L336.66,75.121L337.6,68.438L338.53,67.217L339.46,70.127L340.4,78.281L341.33,73.041L342.27,72.567L343.2,67.998L344.13,80.291L345.07,70.901L346,74.25L346.93,67.368L347.87,75.027L348.8,78.062L349.74,80.027L350.67,78.359L351.6,77.488L352.54,77.034L353.47,80.289L354.41,86.983L355.34,83.203L356.27,74.418L357.21,66.524L358.14,84.192L359.07,69.932L360.01,76.587L360.94,72.653L361.88,75.852L362.81,78.03L363.74,86.309L364.68,98.648L365.61,90.394L366.55,92.038L367.48,109.04L368.41,103.43L369.35,100.16L370.28,90.371L371.21,95.438L372.15,102.58L373.08,150.93L374.02,156.74L374.95,134.22L375.88,141.96L376.82,139.37L377.75,147.32L378.69,160.72L379.62,142.19L380.55,155.29L381.49,145.98L382.42,124.23L383.35,77.286L384.29,86.76L385.22,74.636L386.16,76.819L387.09,96.002L388.02,76.155L388.96,77.222L389.89,71.579L390.82,80.396L391.76,76.021L392.69,70.184L393.63,64.596L394.56,69.695L395.49,63.292L396.43,69.244L397.36,71.056L398.3,71.411L399.23,67.885L400.16,62.784L401.1,77.269L402.03,76.71L402.96,73.181L403.9,67.678L404.83,71.954L405.77,84.978L406.7,79.061L407.63,82.389L408.57,82.596L409.5,74.632L410.44,76.221L411.37,78.695L412.3,83.173L413.24,86.964L414.17,74.309L415.1,79.507L416.04,74.328L416.97,79.311L417.91,81.005L418.84,80.227L419.77,101.82L420.71,114.95L421.64,103.78L422.58,95.668L423.51,102.5L424.44,106.93L425.38,95.45L426.31,97.633L427.24,95.024L428.18,98.714L429.11,120.64L430.05,138.51L430.98,136.73L431.91,129.4L432.85,135.98L433.78,136.64L434.72,157.56L435.65,153.89L436.58,136.78L437.52,142.95L438.45,121.81L439.38,82.204L440.32,83.016L441.25,81.412L442.19,74.966L443.12,72.311L444.05,70.419L444.99,59.691L445.92,63.035L446.86,65.049L447.79,74.885L448.72,68.472L449.66,69.588L450.59,64.791L451.52,69.716L452.46,73.473L453.39,74.582L454.33,69.629L455.26,71.109L456.19,87.382L457.13,75.61L458.06,82.053L459,71.928L459.93,78.862L460.86,78.11L461.8,78.412L462.73,82.735L463.66,81.494L464.6,84.164L465.53,77.799L466.47,75.853L467.4,69.774L468.33,75.925L469.27,87.846L470.2,76.732L471.14,73.067L472.07,79.129L473,79.879L473.94,72.05L474.87,69.04L475.8,98.029L476.74,102.16L477.67,102.61L478.61,108.13L479.54,108L480.47,101.78L481.41,102.87L482.34,105.97L483.28,85.091L484.21,89.683L485.14,129.19L486.08,153.34L487.01,151L487.94,156.86L488.88,147.05L489.81,141.89L490.75,154.25L491.68,127.9L492.61,132.14L493.55,156.18L494.48,95.568L495.42,76.46L496.35,78.255L497.28,73.92L498.22,66.788L499.15,67.46L500.08,70.547L501.02,65.617L501.95,71.392L502.89,66.561L503.82,69.61L504.75,61.778L505.69,70.411L506.62,71.714L507.56,68.338L508.49,75.29L509.42,63.932L510.36,75.141L511.29,82.237L512.22,74.496L513.16,78.33L514.09,78.45L515.03,78.98L515.96,80.855L516.89,71.46L517.83,75.332L518.76,81.926L519.7,68.589L520.63,81.985L521.56,79.613L522.5,81.467L523.43,73.476L524.36,70.74L525.3,79.174L526.23,73.934L527.17,71.168L528.1,65.544L529.03,69.286L529.97,72.964L530.9,68.737L531.84,87.839L532.77,100.99L533.7,94.958L534.64,103.45L535.57,94.34L536.5,108.08L537.44,94.525L538.37,90.674L539.31,98.227L540.24,93.092L541.17,130.47L542.11,132.31L543.04,147.9L543.98,132.72L544.91,148.22L545.84,137.06L546.78,158.71L547.71,148.28L548.64,149.85L549.58,151.27L550.51,98.437L551.45,84.352L552.38,79.687L553.31,85.462L554.25,80.137L555.18,82.566L556.11,75.275L557.05,70.289L557.98,65.002L558.92,64.926L559.85,71.296L560.78,73.438L561.72,69.021L562.65,71.106L563.59,78.157L564.52,75.61L565.45,68.594L566.39,73.434L567.32,68.645L568.25,65.325L569.19,70.754L570.12,69.865L571.06,78.471L571.99,66.164L572.92,78.661L573.86,69.918L574.79,70.075L575.73,73.399L576.66,70.222L577.59,77.422L578.53,75.553L579.46,81.08L580.39,92.259L581.33,90.301L582.26,90.555L583.2,77.156L584.13,74.004L585.06,78.714L586,78.928L586.93,72.779L587.87,94.9L588.8,99.067L589.73,106.31L590.67,105.7L591.6,109.32L592.53,102.56L593.47,98.815L594.4,94.476L595.34,97.079L596.27,107.16L597.2,138.16L598.14,145.38L599.07,168.83L600.01,164.08L600.94,200.43L601.87,183.72L602.81,206.65L603.74,208.95L604.67,209.93L605.61,189.45L606.54,119.04L607.48,91.492L608.41,100.83L609.34,95.468L610.28,96.792L611.21,108.13L612.15,73.374L613.08,74.651L614.01,75.148L614.95,75.808L615.88,101.06L616.81,70.899L617.75,71.175L618.68,81.519L619.62,78.429L620.55,84.593L621.48,87.205L622.42,90.374L623.35,90.411L624.29,79.234L625.22,85.696L626.15,82.241L627.09,89.308L628.02,86.289L628.95,89.609L629.89,86.786L630.82,82.459L631.76,74.003L632.69,90.875L633.62,80.619L634.56,86.585L635.49,79.455L636.43,83.792L637.36,83.16L638.29,92.645L639.23,72.136L640.16,78.685L641.09,84.378L642.03,83.36L642.96,105.02L643.9,98.116L644.83,105.99L645.76,105.52L646.7,119.13L647.63,122.18L648.57,124.55L649.5,125.11L650.43,111L651.37,106.74L652.3,109.7L653.23,150.79L654.17,159.46L655.1,207.87L656.04,191.18L656.97,201.29L657.9,190.04L658.84,186.5L659.77,188.78L660.71,179.91L661.64,176.43L662.57,119.56L663.51,116.65L664.44,92.727L665.37,91.501L666.31,91.671L667.24,91.594L668.18,88.817L669.11,89.792L670.04,88.983L670.98,82.845L671.91,87.515L672.85,78.292L673.78,88.345L674.71,92.683L675.65,86.886L676.58,70.458L677.51,83.188L678.45,79.36L679.38,90.09L680.32,94.295L681.25,103.54L682.18,92.86L683.12,88.487L684.05,89.87L684.99,83.874L685.92,85.59L686.85,91.547L687.79,98.296L688.72,84.579L689.65,83.536L690.59,92.144L691.52,88.489L692.46,89.092L693.39,90.251L694.32,82.152L695.26,76.982L696.19,80.316L697.12,80.764L698.06,80.551L698.99,94.076L699.93,100.72L700.86,98.334L701.79,102.95L702.73,109.27L703.66,113.41L704.6,105L705.53,112.76L706.46,98.178L707.4,111.75L708.33,99.585L709.26,131.06L710.2,153.58L711.13,185.41L712.07,162.84L713,200.97L713.93,170.4L714.87,166.99L715.8,181L716.74,168.52L717.67,176.68L718.6,116.48L719.54,84.755L720.47,85.914L721.4,76.771L722.34,80.057L723.27,71.882L724.21,71.144L725.14,66.688L726.07,70.584L727.01,69.173L727.94,65.479L728.88,55.039L729.81,67.706L730.74,60.128L731.68,63.152L732.61,71.096L733.54,69.22L734.48,63.636L735.41,69.849L736.35,77.85L737.28,89.219L738.21,88.424L739.15,83.062L740.08,80.349L741.02,84.101L741.95,89.074L742.88,91.007L743.82,88.96L744.75,96.288L745.68,90.904L746.62,86.042L747.55,98.283L748.49,94.199L749.42,87.317L750.35,86.734L751.29,106.11L752.22,80.892L753.16,83.81L754.09,80.947L755.02,82.642L755.96,91.648L756.89,93.006L757.82,116.52L758.76,113.11L759.69,121.19L760.63,124.49L761.56,101.48L762.49,112.24L763.43,106.96L764.36,107.47L765.3,152.74L766.23,177.2L767.16,184.11L768.1,163.41L769.03,194.59L769.96,197.15L770.9,197.67L771.83,211.15L772.77,191.09L773.7,210.78L774.63,124.16L775.57,90.249L776.5,82.822L777.44,85.273L778.37,91.286L779.3,97.082L780.24,84.271L781.17,83.463L782.1,81.78L783.04,77.212L783.97,74.238L784.91,75.429L785.84,76.949L786.77,81.806L787.71,78.111L788.64,70.321L789.58,71.544L790.51,78.325L791.44,72.009L792.38,83.283L793.31,95.345L794.24,116.41L795.18,77.453L796.11,75.577L797.05,85.027L797.98,84.514L798.91,79.802L799.85,102.58L800.78,81.657L801.72,88.4L802.65,91.155L803.58,94.147L804.52,80.322L805.45,91.176L806.38,117.48L807.32,89.872L808.25,88.862L809.19,93.553L810.12,92.255L811.05,100.62L811.99,103.27L812.92,116.02L813.86,127.67L814.79,114.2L815.72,141.71L816.66,124.13L817.59,116.39L818.52,120.76L819.46,132.43L820.39,146.58L821.33,192.94L822.26,237.33L823.19,280.93L824.13,222.97L825.06,210.71L826,204.01L826.93,208.98L827.86,231.45L828.8,208.63L829.73,224.24L830.66,152.77L831.6,99.136L832.53,117.82L833.47,105.11L834.4,98.86L835.33,86.708L836.27,88.199L837.2,93.357L838.14,79.912L839.07,101.31L840,87.944L840.94,82.242L841.87,82.38L842.8,79.709L843.74,82.003L844.67,87.052L845.61,92.774L846.54,100.97L847.47,83.126L848.41,91.299L849.34,94.561L850.27,95.594L851.21,126.66L852.14,132.18L853.08,115.12L854.01,130.73L854.94,96.38L855.88,103.58L856.81,90.549L857.75,93.135L858.68,92.105L859.61,85.189L860.55,86.83L861.48,103.07L862.41,85.325L863.35,92.302L864.28,112.61L865.22,104L866.15,88.302L867.08,95.823L868.02,93.522L868.95,113.9L869.89,126.99L870.82,111.66L871.75,120.49L872.69,140.74L873.62,116.27L874.55,106.98L875.49,104.79L876.42,118.73L877.36,168.4L878.29,217.01L879.22,196.65L880.16,193.14L881.09,257.98L882.03,243.37L882.96,198.36L883.89,235.09L884.83,188.38L885.76,198.47L886.69,130.12L887.63,105.34L888.56,106.44L889.5,97.98L890.43,95.447L891.36,105.84L892.3,103.33L893.23,88.966L894.17,98.175L895.1,92.389L896.03,96.927L896.97,88.29L897.9,107.52L898.83,89.838L899.77,82.368L900.7,89.962L901.64,100.12L902.57,85.688L903.5,81.964L904.44,86.218L905.37,106.97L906.31,93.059L907.24,102.75L908.17,102.77L909.11,112.21L910.04,117.23L910.97,98.51L911.91,97.194L912.84,91.31L913.78,86.514L914.71,95.86L915.64,89.41L916.58,93.366L917.51,106.15L918.45,90.471L919.38,83.14L920.31,85.153L921.25,83.402L922.18,77.424L923.11,83.977L924.05,101.73L924.98,120.66L925.92,100.92L926.85,101.19L927.78,119.02L928.72,116.97L929.65,102.13L930.59,103.15L931.52,100.31L932.45,111.49L933.39,186.97L934.32,176.56L935.25,205.78L936.19,176.88L937.12,184.05L938.06,163.12L938.99,184.2L939.92,209.93L940.86,234.63L941.79,231.67L942.73,120.56L943.66,105.63L944.59,89.851L945.53,96.725L946.46,96.639L947.39,122.08L948.33,79.5L949.26,80.782L950.2,89.701L951.13,101.45L952.06,100.61L953,82.429L953.93,85.552L954.87,81.415L955.8,86.848L956.73,78.004L957.67,84.059L958.6,80.356L959.53,91.563L960.47,79.204L961.4,84.498L962.34,78.699L963.27,92.247L964.2,75.005L965.14,85.958L966.07,84.931L967.01,104.3L967.94,83.09L968.87,80.091L969.81,84.51L970.74,83.073L971.67,87.107L972.61,85.238L973.54,80.305L974.48,100.3L975.41,82.493L976.34,86.627L977.28,82.972L978.21,79.447L979.15,81.558L980.08,98.68L981.01,99.079L981.95,123.64L982.88,102.21L983.81,109.46L984.75,102.76L985.68,100.39L986.62,101.18L987.55,99.187L988.48,98.323L989.42,138.07L990.35,158.67L991.29,210.84L992.22,161.19L993.15,166.31L994.09,146.4L995.02,146.59L995.95,155L996.89,148.04L997.82,158.63L998.76,98.908L999.69,84.562L1000.6,96.747L1001.6,84.305L1002.5,87.52L1003.4,82.181L1004.4,72.081L1005.3,74.611L1006.2,72.038L1007.2,75.888L1008.1,75.942L1009,86.828L1010,89.24L1010.9,87.132L1011.8,87.845L1012.8,87.367L1013.7,77.793L1014.6,84.724L1015.6,71.842L1016.5,88.112L1017.4,80.276L1018.4,87.03L1019.3,115.53L1020.2,90.967L1021.2,96.04L1022.1,88.429L1023,79.45L1024,96.329L1024.9,116.62L1025.8,86.204L1026.8,88.753L1027.7,87.712L1028.6,93.242L1029.6,90.069L1030.5,88.431L1031.4,88.215L1032.4,91.238L1033.3,103.4L1034.2,85.62L1035.2,90.287L1036.1,100.71L1037,117.98L1038,107.74L1038.9,103.35L1039.8,112.72L1040.8,114.53L1041.7,109.74L1042.6,125.81L1043.6,102.54L1044.5,130.1L1045.4,153.99L1046.4,158.01L1047.3,185.28L1048.2,174.28L1049.2,176.94L1050.1,169.6L1051.1,175.2L1052,191.44L1052.9,211.44L1053.9,174.42L1054.8,106.47L1055.7,82.178L1056.7,86.745L1057.6,89.118L1058.5,88.367L1059.5,80.068L1060.4,65.788L1061.3,87.507L1062.3,78.417L1063.2,75.843L1064.1,78.456L1065.1,81.86L1066,76.754L1066.9,71.691L1067.9,73.657L1068.8,81.994L1069.7,96.457L1070.7,75.671L1071.6,77.373L1072.5,82.505L1073.5,80.06L1074.4,72.919L1075.3,78.702L1076.3,77.556L1077.2,79.233L1078.1,94.226L1079.1,79.264L1080,83.355" style="fill:none;stroke:#F15A60;stroke-width:1.875" />
<path d="M46.237,243.37L47.171,108.15L48.105,92.518L49.039,89.239L49.973,137.78L50.907,117.77L51.841,113.68L52.774,113.5L53.708,106.11L54.642,116.53L55.576,97.102L56.51,101.07L57.444,109.51L58.377,112.14L59.311,81.656L60.245,71.613L61.179,75.413L62.113,75.408L63.047,80.639L63.98,75.577L64.914,84.429L65.848,88.576L66.782,89.646L67.716,87.897L68.65,84.315L69.584,91.538L70.517,90.962L71.451,88.68L72.385,97.323L73.319,89.294L74.253,78.179L75.187,72.909L76.12,76.706L77.054,84.607L77.988,78.276L78.922,73.758L79.856,74.037L80.79,68.767L81.723,70.734L82.657,72.737L83.591,77.643L84.525,78.554L85.459,72.199L86.393,70.207L87.327,72.72L88.26,71.143L89.194,66.69L90.128,65.463L91.062,90.424L91.996,89.641L92.93,92.772L93.863,113.76L94.797,91.164L95.731,95.365L96.665,91.694L97.599,111.94L98.533,101.94L99.466,103.1L100.4,76.275L101.33,70.723L102.27,69.178L103.2,72.237L104.14,63.389L105.07,72.6L106,97.385L106.94,94.639L107.87,84.875L108.8,90.057L109.74,96.079L110.67,95.307L111.61,91.557L112.54,95.77L113.47,95.239L114.41,94.083L115.34,71.067L116.28,71.966L117.21,74.532L118.14,76.045L119.08,79.01L120.01,73.089L120.94,79.959L121.88,88.884L122.81,81.349L123.75,81.857L124.68,92.42L125.61,80.669L126.55,78.932L127.48,83.722L128.42,80.554L129.35,85.587L130.28,116.78L131.22,77.645L132.15,71.831L133.08,72.865L134.02,72.854L134.95,72.368L135.89,68.19L136.82,70.075L137.75,69.992L138.69,68.919L139.62,71.376L140.56,70.299L141.49,70.336L142.42,66.33L143.36,72.978L144.29,72.157L145.22,78.195L146.16,73.505L147.09,94.887L148.03,103.73L148.96,100.51L149.89,115.41L150.83,103.18L151.76,130.79L152.7,94.213L153.63,100.43L154.56,104.78L155.5,103.96L156.43,71.099L157.36,78.547L158.3,63.835L159.23,77.156L160.17,64.032L161.1,67.225L162.03,93.433L162.97,99.52L163.9,101.7L164.84,92.769L165.77,99.702L166.7,99.226L167.64,95.596L168.57,89.736L169.5,105.84L170.44,90.01L171.37,62.615L172.31,59.494L173.24,68.584L174.17,82.459L175.11,71.95L176.04,68.766L176.98,87.411L177.91,79.43L178.84,78.879L179.78,88.422L180.71,74.59L181.64,84.557L182.58,81.009L183.51,78.639L184.45,91.08L185.38,104.57L186.31,76.951L187.25,75.521L188.18,71.922L189.12,68.774L190.05,64.094L190.98,68.806L191.92,65.186L192.85,73.628L193.78,65.837L194.72,73.145L195.65,89.338L196.59,69.808L197.52,71.49L198.45,73.732L199.39,68.894L200.32,69.752L201.26,65.646L202.19,68.108L203.12,98.906L204.06,102.27L204.99,99.814L205.92,108.66L206.86,111.75L207.79,94.958L208.73,100.94L209.66,99.123L210.59,101.78L211.53,101.55L212.46,71.802L213.4,70.488L214.33,75.021L215.26,70.113L216.2,67.383L217.13,67.179L218.06,101.88L219,97.89L219.93,123.78L220.87,97.341L221.8,82.677L222.73,82.081L223.67,70.457L224.6,83.945L225.54,78.906L226.47,72.094L227.4,50.958L228.34,57.8L229.27,53.677L230.2,60.635L231.14,58.121L232.07,61.884L233.01,71.218L233.94,82.513L234.87,91.903L235.81,80.78L236.74,78.258L237.67,93.035L238.61,71.363L239.54,74.749L240.48,77.383L241.41,78.951L242.34,65.769L243.28,54.019L244.21,55.617L245.15,53.106L246.08,58.109L247.01,57.666L247.95,62.732L248.88,51.666L249.81,63.275L250.75,57.898L251.68,58.091L252.62,62.275L253.55,52.844L254.48,65.773L255.42,53.127L256.35,53.037L257.29,56.831L258.22,59.452L259.15,94.435L260.09,100.27L261.02,98.01L261.95,96.609L262.89,90.723L263.82,92.264L264.76,96.119L265.69,92.431L266.62,99.162L267.56,106.15L268.49,62.986L269.43,57.587L270.36,57.515L271.29,57.047L272.23,61.176L273.16,52.06L274.09,89.235L275.03,92.629L275.96,85.946L276.9,101.89L277.83,85.19L278.76,88.217L279.7,90.853L280.63,91.62L281.57,94.609L282.5,79.617L283.43,61.59L284.37,62.491L285.3,58.358L286.23,64.516L287.17,62.724L288.1,63.017L289.04,71.381L289.97,71.187L290.9,85.59L291.84,91.325L292.77,89.515L293.71,85.967L294.64,84.166L295.57,76.486L296.51,82.197L297.44,79.671L298.37,73.345L299.31,70.952L300.24,76.926L301.18,74.819L302.11,65.625L303.04,65.013L303.98,79.526L304.91,73.442L305.85,68.261L306.78,66.848L307.71,63.552L308.65,65.996L309.58,71.786L310.51,69.957L311.45,69.287L312.38,66.388L313.32,65.843L314.25,69.121L315.18,102.02L316.12,93.789L317.05,96.642L317.99,94.192L318.92,99.084L319.85,109.52L320.79,108.47L321.72,112.06L322.65,117.67L323.59,102.01L324.52,87.163L325.46,80.215L326.39,70.501L327.32,66.031L328.26,68.48L329.19,70.088L330.13,86.504L331.06,88.754L331.99,88.612L332.93,86.529L333.86,93.384L334.79,83.887L335.73,82.485L336.66,91.588L337.6,89.443L338.53,86.764L339.46,76.391L340.4,68.258L341.33,72.647L342.27,75.707L343.2,73.011L344.13,77.027L345.07,84.141L346,93.618L346.93,104.1L347.87,97.219L348.8,83.065L349.74,91.803L350.67,84.115L351.6,82.156L352.54,84.68L353.47,97.746L354.41,74.342L355.34,72.064L356.27,72.429L357.21,74.737L358.14,71.383L359.07,69.666L360.01,74.155L360.94,66.208L361.88,66.244L362.81,75.357L363.74,73.522L364.68,72.728L365.61,67.537L366.55,71.153L367.48,64.321L368.41,67.654L369.35,65.117L370.28,71.862L371.21,106.93L372.15,101.91L373.08,100.72L374.02,96.613L374.95,102.96L375.88,114.76L376.82,98.409L377.75,103.28L378.69,106.09L379.62,104.36L380.55,67.539L381.49,66.513L382.42,66.94L383.35,68.106L384.29,66.589L385.22,69.169L386.16,90.486L387.09,85.425L388.02,83.64L388.96,85.323L389.89,93.624L390.82,81.503L391.76,77.945L392.69,172.47L393.63,86.143L394.56,162.65L395.49,61.552L396.43,70.661L397.36,69.798L398.3,68.047L399.23,68.505L400.16,81.188L401.1,82.035L402.03,78.473L402.96,83.637L403.9,79.781L404.83,85.725L405.77,88.676L406.7,88.729L407.63,76.252L408.57,77.432L409.5,80.378L410.44,64.66L411.37,64.846L412.3,60.412L413.24,68.779L414.17,60.169L415.1,55.845L416.04,66.14L416.97,53.064L417.91,65.399L418.84,58.25L419.77,59.609L420.71,71.938L421.64,66.581L422.58,64.766L423.51,59.572L424.44,56.053L425.38,55.776L426.31,55.669L427.24,106.93L428.18,136.44L429.11,92.581L430.05,92.569L430.98,96.457L431.91,127.9L432.85,96.597L433.78,100.3L434.72,100.22L435.65,103.24L436.58,98.052L437.52,61.615L438.45,70.547L439.38,64.262L440.32,78.365L441.25,64.295L442.19,83.088L443.12,77.146L444.05,72.847L444.99,75.824L445.92,75.162L446.86,79.43L447.79,75.418L448.72,71.933L449.66,82.354L450.59,75.528L451.52,65.484L452.46,57.892L453.39,63.456L454.33,76.112L455.26,71.392L456.19,66.154L457.13,80.879L458.06,87.845L459,95.153L459.93,92.061L460.86,88.845L461.8,87.708L462.73,87.916L463.66,94.118L464.6,86.941L465.53,81.363L466.47,62.933L467.4,60.056L468.33,76.829L469.27,58.888L470.2,63.719L471.14,63.721L472.07,57.588L473,67.042L473.94,59.763L474.87,58.948L475.8,56.851L476.74,56.787L477.67,60.174L478.61,59.571L479.54,60.696L480.47,55.203L481.41,56.701L482.34,62.905L483.28,98.423L484.21,100.89L485.14,125.13L486.08,99.907L487.01,99.393L487.94,97.718L488.88,97.563L489.81,95.612L490.75,99.911L491.68,86.795L492.61,64.536L493.55,59.246L494.48,66.436L495.42,71.298L496.35,73.748L497.28,60.158L498.22,88.487L499.15,87.935L500.08,79.793L501.02,87.88L501.95,95.48L502.89,77.876L503.82,78.646L504.75,82.936L505.69,83.105L506.62,86.41L507.56,66.772L508.49,77.423L509.42,69.275L510.36,134.66L511.29,64.42L512.22,69.351L513.16,79.366L514.09,170.2L515.03,88.87L515.96,87.581L516.89,100.6L517.83,101.3L518.76,97.716L519.7,96.633L520.63,104.33L521.56,119.05L522.5,77.446L523.43,74.391L524.36,67.13L525.3,63.372L526.23,69.204L527.17,63.328L528.1,60.539L529.03,71.578L529.97,62.573L530.9,60.454L531.84,64.33L532.77,68.279L533.7,64.676L534.64,70.156L535.57,64.523L536.5,57.044L537.44,58.677L538.37,55.444L539.31,93.669L540.24,106.13L541.17,120.8L542.11,110.66L543.04,117.5L543.98,117.53L544.91,125.79L545.84,109.73L546.78,116.63L547.71,119.87L548.64,69.81L549.58,71.541L550.51,68.344L551.45,101.21L552.38,53.571L553.31,56.213L554.25,78.775L555.18,73.792L556.11,71.533L557.05,80.554L557.98,75.416L558.92,81.429L559.85,79.901L560.78,83.284L561.72,67.226L562.65,65.441L563.59,66.914L564.52,59.718L565.45,59.239L566.39,66.846L567.32,63.85L568.25,60.498L569.19,80.274L570.12,95.661L571.06,115.21L571.99,85.11L572.92,81.699L573.86,75.796L574.79,75.281L575.73,74.501L576.66,73.604L577.59,70.567L578.53,71.855L579.46,66.313L580.39,59.926L581.33,54.504L582.26,60.719L583.2,62.375L584.13,54.959L585.06,60.417L586,57.952L586.93,57.287L587.87,60.884L588.8,59.45L589.73,61.638L590.67,71.083L591.6,64.739L592.53,57.622L593.47,59.668L594.4,63.35L595.34,87.89L596.27,101.1L597.2,119.08L598.14,88.792L599.07,94.289L600.01,96.738L600.94,91.993L601.87,99.189L602.81,116.02L603.74,123.67L604.67,74.849L605.61,61.126L606.54,55.29L607.48,62.044L608.41,62.802L609.34,61.12L610.28,84.317L611.21,87.218L612.15,82.154L613.08,91.596L614.01,86.651L614.95,95.766L615.88,93.511L616.81,81.617L617.75,78.735L618.68,76.857L619.62,70.145L620.55,57.899L621.48,60.8L622.42,86.214L623.35,59.439L624.29,78.22L625.22,75.591L626.15,83.85L627.09,96.477L628.02,85.261L628.95,76.743L629.89,78.503L630.82,73.13L631.76,64.285L632.69,68.425L633.62,73.16L634.56,64.125L635.49,56.184L636.43,191.94L637.36,55.912L638.29,201.49L639.23,53.135L640.16,54.025L641.09,53.412L642.03,54.935L642.96,55.95L643.9,55.504L644.83,58.783L645.76,56.071L646.7,52.914L647.63,57.006L648.57,62.177L649.5,51.375L650.43,54.774L651.37,77.095L652.3,91.872L653.23,91.22L654.17,77.246L655.1,96.859L656.04,89.083L656.97,80.689L657.9,158.76L658.84,96.784L659.77,77.8L660.71,63.016L661.64,50.572L662.57,50.177L663.51,51.189L664.44,55.637L665.37,59.033L666.31,82.773L667.24,85.735L668.18,81.478L669.11,78.938L670.04,81.32L670.98,79.121L671.91,75.437L672.85,80.426L673.78,77.41L674.71,72.327L675.65,50.009L676.58,52.618L677.51,51.793L678.45,60.027L679.38,60.128L680.32,57.025L681.25,61.931L682.18,67.444L683.12,71.976L684.05,77.408L684.99,76.542L685.92,79.211L686.85,74.489L687.79,72.955L688.72,74.612L689.65,68.601L690.59,65.53L691.52,59.417L692.46,54.384L693.39,55.646L694.32,62.243L695.26,61.424L696.19,67.256L697.12,67.742L698.06,64.746L698.99,68.997L699.93,58.465L700.86,59.808L701.79,58.109L702.73,59.782L703.66,63.234L704.6,58.198L705.53,61.566L706.46,62.74L707.4,77.449L708.33,90.322L709.26,88.447L710.2,85.501L711.13,87.837L712.07,82.484L713,81.347L713.93,85.258L714.87,85.129L715.8,83.171L716.74,64.225L717.67,61.806L718.6,63.677L719.54,65.586L720.47,66.802L721.4,65.321L722.34,82.757L723.27,83.179L724.21,93.413L725.14,90.464L726.07,86.264L727.01,84.141L727.94,78.68L728.88,85.784L729.81,84.347L730.74,82.561L731.68,58.746L732.61,62.378L733.54,64.714L734.48,64.034L735.41,59.723L736.35,59.701L737.28,68.405L738.21,72.551L739.15,76.197L740.08,79.713L741.02,74.095L741.95,84.498L742.88,74.881L743.82,71.945L744.75,73.582L745.68,76.633L746.62,69.651L747.55,66.178L748.49,69.321L749.42,63.346L750.35,60.863L751.29,172.96L752.22,58.87L753.16,56.365L754.09,150.2L755.02,51.168L755.96,54.094L756.89,60.592L757.82,57.179L758.76,55.199L759.69,56.001L760.63,53.064L761.56,52.563L762.49,54.983L763.43,94.164L764.36,86.814L765.3,88.771L766.23,88.218L767.16,82.244L768.1,85.388L769.03,77.805L769.96,126.47L770.9,111.33L771.83,82.959L772.77,58.856L773.7,55.705L774.63,63.044L775.57,60.347L776.5,62.046L777.44,61.438L778.37,72.052L779.3,75.112L780.24,78.64L781.17,75.802L782.1,109.65L783.04,96.685L783.97,69.909L784.91,66.149L785.84,72.566L786.77,65.186L787.71,54.668L788.64,55.52L789.58,59.605L790.51,53.972L791.44,58.523L792.38,56.328L793.31,66.368L794.24,76.838L795.18,72.599L796.11,73.178L797.05,78.799L797.98,74.668L798.91,70.121L799.85,64.124L800.78,92.153L801.72,75.724L802.65,84.479L803.58,70.881L804.52,56.691L805.45,62.859L806.38,49.392L807.32,54.094L808.25,48.302L809.19,60.663L810.12,58.614L811.05,53.437L811.99,52.707L812.92,55.301L813.86,54.833L814.79,50.781L815.72,57.488L816.66,57.275L817.59,57.949L818.52,57.378L819.46,78.458L820.39,85.887L821.33,84.654L822.26,86.09L823.19,88.866L824.13,89.876L825.06,74.18L826,242.86L826.93,84.599L827.86,80.762L828.8,61.027L829.73,58.212L830.66,56.361L831.6,54.748L832.53,51.315L833.47,58.505L834.4,80L835.33,76.782L836.27,78.905L837.2,75.632L838.14,77.636L839.07,79.299L840,77.951L840.94,81.804L841.87,77.279L842.8,74.278L843.74,56.451L844.67,59.305L845.61,65.889L846.54,64.775L847.47,66.998L848.41,319.92L849.34,68.686L850.27,68.367L851.21,73.078L852.14,75.521L853.08,72.215L854.01,78.446L854.94,74.527L855.88,76.92L856.81,75.033L857.75,69.174L858.68,64.349L859.61,60.776L860.55,62.335L861.48,64.402L862.41,62.54L863.35,58.68L864.28,58.487L865.22,56.675L866.15,62.118L867.08,56.989L868.02,59.905L868.95,60.711L869.89,67.592L870.82,65.544L871.75,55.541L872.69,55.832L873.62,48.312L874.55,51.891L875.49,76.4L876.42,81.104L877.36,81.905L878.29,77.381L879.22,91.926L880.16,91.545L881.09,87.409L882.03,79.301L882.96,82.319L883.89,74.629L884.83,54.047L885.76,49.155L886.69,54.115L887.63,52.648L888.56,47.997L889.5,52.897L890.43,73.213L891.36,78.131L892.3,79.155L893.23,72.77L894.17,74.719L895.1,74.209L896.03,73.93L896.97,70.115L897.9,75.784L898.83,71.673L899.77,78.213L900.7,61.874L901.64,52.926L902.57,57.922L903.5,57.977L904.44,54.981L905.37,60.895L906.31,64.951L907.24,67.12L908.17,68.108L909.11,71.481L910.04,68.537L910.97,114.03L911.91,90.994L912.84,64.018L913.78,59.318L914.71,52.363L915.64,52L916.58,54.387L917.51,57.018L918.45,49.509L919.38,51.68L920.31,52.453L921.25,52.746L922.18,57.605L923.11,62.379L924.05,59.555L924.98,51.243L925.92,48.428L926.85,47.728L927.78,57.63L928.72,53.197L929.65,52.374L930.59,54.97L931.52,78.142L932.45,84.517L933.39,84.03L934.32,78.006L935.25,78.284L936.19,79.368L937.12,82.524L938.06,85.097L938.99,83.02L939.92,75.113L940.86,58.812L941.79,51.424L942.73,60.637L943.66,54.675L944.59,56.341L945.53,57.977L946.46,85.329L947.39,84.152L948.33,88.659L949.26,243.65L950.2,79.547L951.13,86.894L952.06,79.04L953,73.601L953.93,78.649L954.87,70.099L955.8,53.256L956.73,60.272L957.67,60.723L958.6,58.515L959.53,53.697L960.47,55.015L961.4,71.177L962.34,75.196L963.27,77.312L964.2,68.037L965.14,84.512L966.07,75.002L967.01,75.149L967.94,68.294L968.87,59.982L969.81,66.043L970.74,55.114L971.67,57.441L972.61,58.393L973.54,54.844L974.48,51.631L975.41,50.938L976.34,386.49L977.28,54.971L978.21,60.08L979.15,58.086L980.08,59.573L981.01,58.39L981.95,52.959L982.88,49.176L983.81,47.03L984.75,53.262L985.68,52.885L986.62,52.156L987.55,81.058L988.48,80.293L989.42,89.09L990.35,80.964L991.29,81.858L992.22,75.429L993.15,91.758L994.09,80.965L995.02,82.355L995.95,82.654L996.89,56.203" style="fill:none;stroke:#7AC36A;stroke-width:1.875;stroke-dasharray:7.5,2.5" />
<path d="M46.237,138.49L47.171,90.439L48.105,78.919L49.039,134.68L49.973,140.01L50.907,140.54L51.841,143.48L52.774,137.96L53.708,150.66L54.642,154.98L55.576,123.01L56.51,93.301L57.444,78.654L58.377,66.36L59.311,78.741L60.245,69.055L61.179,65.916L62.113,75.327L63.047,77.529L63.98,84.657L64.914,89.307L65.848,79.857L66.782,83.911L67.716,79.355L68.65,83.673L69.584,80.14L70.517,79.075L71.451,72.332L72.385,61.102L73.319,65.347L74.253,60.188L75.187,60.476L76.12,59.243L77.054,58.091L77.988,58.26L78.922,56.409L79.856,68.58L80.79,61.021L81.723,63.685L82.657,69.179L83.591,64.737L84.525,62.477L85.459,65.646L86.393,60.045L87.327,58.919L88.26,62.859L89.194,60.681L90.128,61.543L91.062,61.439L91.996,59.92L92.93,59.552L93.863,55.381L94.797,65.979L95.731,64.202L96.665,69.386L97.599,66.342L98.533,67.488L99.466,56.261L100.4,60.367L101.33,61.251L102.27,60.503L103.2,85.685L104.14,80.431L105.07,124.86L106,138.37L106.94,132.18L107.87,117.25L108.8,125.47L109.74,137.56L110.67,138.18L111.61,126.6L112.54,93.813L113.47,84.797L114.41,63.539L115.34,64.692L116.28,67.645L117.21,65.888L118.14,77.907L119.08,93.565L120.01,99.061L120.94,100.14L121.88,93.292L122.81,85.645L123.75,83.03L124.68,85.593L125.61,76.353L126.55,73.844L127.48,66.062L128.42,64.622L129.35,64.795L130.28,58.509L131.22,68.367L132.15,57.74L133.08,62.216L134.02,52.198L134.95,59.381L135.89,57.324L136.82,59.708L137.75,60.797L138.69,61.056L139.62,61.976L140.56,58.189L141.49,71.773L142.42,64.787L143.36,66.931L144.29,59.992L145.22,65.164L146.16,66.735L147.09,76.811L148.03,64.954L148.96,68.354L149.89,63.808L150.83,56.916L151.76,66.48L152.7,69.263L153.63,62.486L154.56,55.425L155.5,57.513L156.43,61.581L157.36,61.493L158.3,68.618L159.23,77.055L160.17,66.599L161.1,109.47L162.03,118.34L162.97,136.58L163.9,132.12L164.84,134.2L165.77,145.59L166.7,143.02L167.64,129.54L168.57,73.43L169.5,73.325L170.44,65.953L171.37,60.305L172.31,67.917L173.24,64.307L174.17,66.006L175.11,76.679L176.04,89.974L176.98,90.73L177.91,78.465L178.84,79.778L179.78,77.01L180.71,82.486L181.64,81.377L182.58,79.208L183.51,68.833L184.45,68.121L185.38,75.643L186.31,61.769L187.25,59.884L188.18,52.447L189.12,56.979L190.05,62.873L190.98,63.073L191.92,57.529L192.85,62.415L193.78,61.251L194.72,72.853L195.65,62.524L196.59,56.174L197.52,58.819L198.45,56.493L199.39,60.95L200.32,62.717L201.26,58.768L202.19,58.273L203.12,56.744L204.06,60.264L204.99,61.101L205.92,58.716L206.86,58.669L207.79,58.641L208.73,58.582L209.66,59.153L210.59,59.154L211.53,58.666L212.46,59.531L213.4,64.236L214.33,73.206L215.26,74.798L216.2,68.712L217.13,131.88L218.06,134.76L219,140.49L219.93,130.18L220.87,130.46L221.8,134.47L222.73,126.07L223.67,106.86L224.6,68.319L225.54,74.142L226.47,59.881L227.4,55.326L228.34,59.774L229.27,63.874L230.2,68.67L231.14,73.514L232.07,77.154L233.01,84.714L233.94,72.076L234.87,81.168L235.81,83.326L236.74,76.978L237.67,104.59L238.61,89.516L239.54,67.5L240.48,59.279L241.41,62.621L242.34,63.421L243.28,57.481L244.21,56.918L245.15,54.551L246.08,59.407L247.01,62.873L247.95,67.403L248.88,56.28L249.81,60.024L250.75,58.5L251.68,57.88L252.62,69.144L253.55,57.473L254.48,59.992L255.42,55.476L256.35,61.184L257.29,56.261L258.22,64.069L259.15,58.322L260.09,57.192L261.02,60.402L261.95,64.217L262.89,54.738L263.82,55.214L264.76,62.008L265.69,66.673L266.62,69.296L267.56,66.979L268.49,56.305L269.43,56.61L270.36,61.759L271.29,70.311L272.23,71.747L273.16,121.77L274.09,136.59L275.03,122.55L275.96,129.21L276.9,137.56L277.83,129.35L278.76,135L279.7,110.76L280.63,72.366L281.57,71.387L282.5,61.293L283.43,58.03L284.37,53.882L285.3,61.603L286.23,69.245L287.17,100.35L288.1,83.866L289.04,81.444L289.97,89.896L290.9,83.484L291.84,94.741L292.77,83.968L293.71,84.981L294.64,88.619L295.57,74.56L296.51,58.136L297.44,57.621L298.37,59.465L299.31,62.165L300.24,56.249L301.18,60.894L302.11,56.776L303.04,58.577L303.98,69.038L304.91,69.17L305.85,59.146L306.78,59.812L307.71,66.899L308.65,56.45L309.58,53.038L310.51,62.174L311.45,59.889L312.38,58.74L313.32,54.509L314.25,59.063L315.18,56.874L316.12,63.021L317.05,59.4L317.99,58.262L318.92,56.786L319.85,61.405L320.79,64.221L321.72,60.497L322.65,53.867L323.59,62.157L324.52,65.719L325.46,67.09L326.39,67.279L327.32,89.624L328.26,76.055L329.19,131.55L330.13,146.55L331.06,136.46L331.99,133.78L332.93,127.54L333.86,134.26L334.79,129.4L335.73,110.64L336.66,79.041L337.6,71.413L338.53,66.158L339.46,60.387L340.4,55.81L341.33,58.928L342.27,71.723L343.2,77.776L344.13,75.879L345.07,84.271L346,84.744L346.93,92.183L347.87,89.083L348.8,85.828L349.74,83.95L350.67,85.559L351.6,71.584L352.54,63.144L353.47,66.319L354.41,61.728L355.34,61.282L356.27,58.414L357.21,62.677L358.14,57.506L359.07,60.588L360.01,59.416L360.94,57.04L361.88,61.067L362.81,68.077L363.74,60.687L364.68,58.976L365.61,60.993L366.55,58.283L367.48,54.843L368.41,57.013L369.35,53.633L370.28,66.431L371.21,54.403L372.15,62.545L373.08,62.662L374.02,61.204L374.95,59.605L375.88,64.114L376.82,59.645L377.75,56.591L378.69,61.203L379.62,59.421L380.55,60.385L381.49,63.411L382.42,125.67L383.35,122.45L384.29,63.974L385.22,114.61L386.16,124.61L387.09,119.8L388.02,124.48L388.96,127.22L389.89,126L390.82,119.51L391.76,112.05L392.69,69.308L393.63,78.257L394.56,62.804L395.49,63.201L396.43,60.871L397.36,61.807L398.3,73.399L399.23,90.472L400.16,84.448L401.1,84.169L402.03,82.977L402.96,86.146L403.9,87.383L404.83,76.939L405.77,74.833L406.7,77.211L407.63,69.299L408.57,57.219L409.5,59.054L410.44,55.607L411.37,58.652L412.3,50.269L413.24,58.159L414.17,60.515L415.1,62.966L416.04,58.352L416.97,66.059L417.91,61.842L418.84,60.28L419.77,74.753L420.71,69.74L421.64,59.081L422.58,57.834L423.51,59.853L424.44,58.203L425.38,58.586L426.31,57.499L427.24,59.695L428.18,53.104L429.11,57.348L430.05,57.347L430.98,65.592L431.91,59.508L432.85,56.718L433.78,58.344L434.72,57.977L435.65,57.377L436.58,55.13L437.52,64.479L438.45,60.646L439.38,68.251L440.32,65.551L441.25,111.96L442.19,120.15L443.12,126.81L444.05,126.27L444.99,122.61L445.92,128.63L446.86,128.74L447.79,121.01L448.72,72.953L449.66,68.46L450.59,65.794L451.52,59.576L452.46,57.759L453.39,61.749L454.33,64.997L455.26,80.174L456.19,78.137L457.13,80.037L458.06,76.383L459,73.902L459.93,74.893L460.86,68.848L461.8,66.379L462.73,71.065L463.66,69.849L464.6,57.468L465.53,60.98L466.47,55.583L467.4,54.477L468.33,59.007L469.27,58.34L470.2,56.144L471.14,53.877L472.07,63.751L473,54.583L473.94,56.742L474.87,60.232L475.8,57.596L476.74,53.867L477.67,59.132L478.61,62.367L479.54,56.474L480.47,58.145L481.41,56.206L482.34,54.992L483.28,54.243L484.21,56.339L485.14,58.042L486.08,60.859L487.01,59.471L487.94,55.619L488.88,55.698L489.81,50.807L490.75,58.083L491.68,61.813L492.61,57.706L493.55,57.62L494.48,64.837L495.42,70.192L496.35,74.292L497.28,126.93L498.22,123.18L499.15,120.64L500.08,121.94L501.02,216.38L501.95,130.08L502.89,125.57L503.82,103.17L504.75,65.23L505.69,173.75L506.62,61.961L507.56,63.034L508.49,62.997L509.42,62.351L510.36,70.253L511.29,77.389L512.22,80.018L513.16,80.614L514.09,74.705L515.03,80.16L515.96,76.52L516.89,78.611L517.83,80.535L518.76,76.695L519.7,71.516L520.63,56.947L521.56,63.201L522.5,57.697L523.43,53.424L524.36,57.948L525.3,59.234L526.23,59.82L527.17,59.343L528.1,57.159L529.03,57.941L529.97,57.124L530.9,56.94L531.84,52.969L532.77,54.317L533.7,53.776L534.64,56.848L535.57,62.566L536.5,61.542L537.44,57.968L538.37,57.171L539.31,57.797L540.24,61.018L541.17,56.221L542.11,55.497L543.04,58.404L543.98,58.938L544.91,55.064L545.84,57.195L546.78,63.844L547.71,57.605L548.64,58.519L549.58,55.87L550.51,67.832L551.45,65.725L552.38,66.772L553.31,118.24L554.25,131.68L555.18,121.93L556.11,115.97L557.05,119.2L557.98,120.14L558.92,124.84L559.85,117.74L560.78,79.297L561.72,75.034L562.65,63.645L563.59,58.561L564.52,55.433L565.45,59.232L566.39,68.155L567.32,76.601L568.25,79.993L569.19,77.334L570.12,71.648L571.06,75.474L571.99,72.167L572.92,83.159L573.86,77.46L574.79,75.06L575.73,73.674L576.66,59.486L577.59,60.591L578.53,62.332L579.46,60.328L580.39,59.321L581.33,57.829L582.26,52.768L583.2,59.608L584.13,56.617L585.06,55.8L586,62.364L586.93,61.83L587.87,56.447L588.8,53.415L589.73,55.011L590.67,53.02L591.6,53.949L592.53,55.863L593.47,48.914L594.4,55.85L595.34,63.351L596.27,60.892L597.2,60.465L598.14,56.8L599.07,57.253L600.01,60.484L600.94,58.294L601.87,60.535L602.81,58.212L603.74,53.931L604.67,57.89L605.61,56.728L606.54,59.079L607.48,66.236L608.41,61.275L609.34,118.23L610.28,119.21L611.21,124.21L612.15,125.53L613.08,122.45L614.01,127.65L614.95,119.3L615.88,113.5L616.81,78.788L617.75,79.154L618.68,61.555L619.62,65.211L620.55,65.838L621.48,62.612L622.42,69.798L623.35,88.738L624.29,76.548L625.22,76.298L626.15,79.609L627.09,78.422L628.02,76.351L628.95,78.63L629.89,74.064L630.82,74.263L631.76,72.991L632.69,56.735L633.62,59.815L634.56,175.84L635.49,54.823L636.43,409.25L637.36,59.723L638.29,59.888L639.23,62.449L640.16,55.294L641.09,54.226L642.03,58.604L642.96,66.27L643.9,71.068L644.83,60.313L645.76,62.979L646.7,62.248L647.63,56.844L648.57,58.105L649.5,53.613L650.43,53.506L651.37,53.55L652.3,48.404L653.23,49.12L654.17,52.88L655.1,59.075L656.04,48.727L656.97,54.634L657.9,57.363L658.84,56.388L659.77,55.564L660.71,51.353L661.64,54.522L662.57,58.787L663.51,76.339L664.44,70.756L665.37,125.05L666.31,131.15L667.24,117.58L668.18,123.88L669.11,117.27L670.04,114.07L670.98,124.81L671.91,116.12L672.85,70.971L673.78,73.898L674.71,59.872L675.65,55.063L676.58,60.061L677.51,60.896L678.45,75.732L679.38,79.93L680.32,73.45L681.25,80.54L682.18,72.132L683.12,72.217L684.05,74.694L684.99,76.766L685.92,77.229L686.85,79.785L687.79,73.557L688.72,56.751L689.65,61.29L690.59,61.665L691.52,65.595L692.46,60.252L693.39,60.55L694.32,59.166L695.26,54.15L696.19,57.455L697.12,59.368L698.06,61.559L698.99,55.513L699.93,53.433L700.86,52.09L701.79,59.795L702.73,54.35L703.66,57.073L704.6,53.374L705.53,52.428L706.46,58.344L707.4,56.474L708.33,59.392L709.26,59.269L710.2,56.013L711.13,59.931L712.07,56.379L713,58.72L713.93,59.481L714.87,59.285L715.8,61.862L716.74,60.417L717.67,58.531L718.6,55.536L719.54,62.492L720.47,65.632L721.4,119.6L722.34,112.85L723.27,116.56L724.21,119.08L725.14,115.11L726.07,107.67L727.01,123.98L727.94,100.55L728.88,69.596L729.81,74.316L730.74,64.934L731.68,63.733L732.61,62.667L733.54,60.161L734.48,69.338L735.41,81.448L736.35,76.046L737.28,79.604L738.21,75.102L739.15,79.297L740.08,76.521L741.02,74.247L741.95,71.788L742.88,78.485L743.82,69.257L744.75,56.861L745.68,60.871L746.62,58.609L747.55,64.735L748.49,62.688L749.42,56.415L750.35,59.075L751.29,56.269L752.22,55.565L753.16,53.507L754.09,130.53L755.02,64.931L755.96,59.226L756.89,58.686L757.82,59.809L758.76,56.869L759.69,63.107L760.63,63.508L761.56,63.215L762.49,66.23L763.43,60.803L764.36,59.511L765.3,61.305L766.23,59.921L767.16,65.425L768.1,60.255L769.03,63.184L769.96,208.15L770.9,59.794L771.83,60.834L772.77,65.541L773.7,57.403L774.63,60.667L775.57,70.617L776.5,61.369L777.44,122.08L778.37,124.63L779.3,116.52L780.24,123.31L781.17,124.1L782.1,122.25L783.04,137.87L783.97,135.72L784.91,97.274L785.84,70.955L786.77,62.425L787.71,67.322L788.64,63.338L789.58,62.257L790.51,69.426L791.44,77.269L792.38,87.247L793.31,84.559L794.24,79.573L795.18,81.877L796.11,86.236L797.05,81.058L797.98,85.697L798.91,87.04L799.85,78.818L800.78,76.8L801.72,66.751L802.65,60.486L803.58,59.404L804.52,54.522L805.45,53.559L806.38,56.158L807.32,64.868L808.25,65.491L809.19,62.308L810.12,56.955L811.05,58.318L811.99,63.108L812.92,54.428L813.86,55.862L814.79,55.632L815.72,54.137L816.66,55.509L817.59,56.657L818.52,58.976L819.46,58.956L820.39,60.734L821.33,64.782L822.26,59.63L823.19,56.377L824.13,61.779L825.06,58.928L826,54.267L826.93,64.249L827.86,58.703L828.8,52.528L829.73,56.009L830.66,62.531L831.6,60.055L832.53,171.07L833.47,105.72L834.4,123.72L835.33,123.08L836.27,125.27L837.2,125.57L838.14,124.02L839.07,125.91L840,103.55L840.94,76.021L841.87,82.624L842.8,66.123L843.74,60.389L844.67,54.731L845.61,52.481L846.54,62.656L847.47,78.85L848.41,415.82L849.34,83.491L850.27,87.012L851.21,87.833L852.14,81.453L853.08,87.607L854.01,82.219L854.94,76.675L855.88,68.248L856.81,61.363L857.75,60.075L858.68,62.501L859.61,57.348L860.55,55.047L861.48,54.37L862.41,60.284L863.35,56.097L864.28,55.692L865.22,56.236L866.15,56.634L867.08,63.232L868.02,76.181L868.95,64.612L869.89,59.944L870.82,58.901L871.75,58.574L872.69,50.514L873.62,54.257L874.55,52.896L875.49,54.968L876.42,62.901L877.36,56.239L878.29,57.735L879.22,53.393L880.16,55.526L881.09,56.552L882.03,51.977L882.96,53.264L883.89,54.651L884.83,60.285L885.76,56.968L886.69,60.736L887.63,61.191L888.56,66.13L889.5,109.56L890.43,122.39L891.36,123.15L892.3,121.15L893.23,120.89L894.17,110.81L895.1,122.43L896.03,102.22L896.97,66.808L897.9,69.897L898.83,62.369L899.77,57.926L900.7,58.082L901.64,55.798L902.57,67.445L903.5,75.048L904.44,77.164L905.37,68.061L906.31,76.185L907.24,81.921L908.17,86.393L909.11,80.068L910.04,83.912L910.97,78.896L911.91,76.292L912.84,53.763L913.78,59.125L914.71,62.611L915.64,62.647L916.58,61.436L917.51,62.389L918.45,60.495L919.38,60.339L920.31,62.736L921.25,61.319L922.18,67.043L923.11,65.305L924.05,61.359L924.98,62.014L925.92,62.552L926.85,62.234L927.78,59.281L928.72,56.713L929.65,55.981L930.59,58.34L931.52,56.736L932.45,57.438L933.39,57.874L934.32,55.281L935.25,59.318L936.19,59.128L937.12,59.067L938.06,56.371L938.99,56.848L939.92,58.097L940.86,63.785L941.79,63.669L942.73,59.189L943.66,73.994L944.59,77.646L945.53,115.9L946.46,125.06L947.39,119.06L948.33,110.04L949.26,117.47L950.2,111.49L951.13,118.82L952.06,102.55L953,70.443L953.93,73.497L954.87,205.07L955.8,60.481L956.73,60.634L957.67,59.574L958.6,70.255L959.53,84.165L960.47,84.516L961.4,78.489L962.34,82.808L963.27,78.208L964.2,84.002L965.14,76.145L966.07,79.875L967.01,82.007L967.94,64.81L968.87,61.485L969.81,57.391L970.74,59.867L971.67,57.425L972.61,58.325L973.54,66.013L974.48,63.652L975.41,62.308L976.34,62.757L977.28,60.472L978.21,57.698L979.15,57.477L980.08,61.304L981.01,701.44L981.95,65.183" style="fill:none;stroke:#5A9BD4;stroke-width:1.875;stroke-dasharray:2.5,2.5" />
<path d="M1055,694.3L1080,694.3" style="fill:none;stroke:#F15A60;stroke-width:1.875" />
<text x="1002.5" y="-687.85" transform="scale(1, -1)"
	style="font-family:Helvetica;font-weight:normal;font-style:normal;font-size:12pt">etcd v3</text>
<path d="M1055,680L1080,680" style="fill:none;stroke:#7AC36A;stroke-width:1.875;stroke-dasharray:7.5,2.5" />
<text x="793.19" y="-673.56" transform="scale(1, -1)"
	style="font-family:Helvetica;font-weight:normal;font-style:normal;font-size:12pt">Zookeeper v3.4.8 (snapCount 100000)</text>
<path d="M1055,665.71L1080,665.71" style="fill:none;stroke:#5A9BD4;stroke-width:1.875;stroke-dasharray:2.5,2.5" />
<text x="784.85" y="-659.26" transform="scale(1, -1)"
	style="font-family:Helvetica;font-weight:normal;font-style:normal;font-size:12pt">Zookeeper v3.4.8 (snapCount 1000000)</text>
</g>
</svg>
