<?xml version="1.0"?>
<!-- Generated by SVGo and Plotinum VG -->
<svg width="12in" height="8in"
	xmlns="http://www.w3.org/2000/svg"
	xmlns:xlink="http://www.w3.org/1999/xlink">
<g transform="scale(1, -1) translate(0, -720)">
<path d="M0,0L1080,0L1080,720L0,720Z" style="fill:#FFFFFF" />
<text x="311.97" y="-706.41" transform="scale(1, -1)"
	style="font-family:Helvetica;font-weight:normal;font-style:normal;font-size:12pt">Write 500K keys, 1 client, key 32 bytes, value 500 bytes, Throughput</text>
<text x="544.64" y="-4.965" transform="scale(1, -1)"
	style="font-family:Helvetica;font-weight:normal;font-style:normal;font-size:12pt">Second</text>
<text x="56.662" y="-19.142" transform="scale(1, -1)"
	style="font-family:Helvetica;font-weight:normal;font-style:normal;font-size:10pt">0</text>
<text x="326.1" y="-19.142" transform="scale(1, -1)"
	style="font-family:Helvetica;font-weight:normal;font-style:normal;font-size:10pt">300</text>
<text x="602.48" y="-19.142" transform="scale(1, -1)"
	style="font-family:Helvetica;font-weight:normal;font-style:normal;font-size:10pt">600</text>
<text x="878.87" y="-19.142" transform="scale(1, -1)"
	style="font-family:Helvetica;font-weight:normal;font-style:normal;font-size:10pt">900</text>
<path d="M60.137,30.467L60.137,40.467" style="fill:none;stroke:#000000;stroke-width:0.625" />
<path d="M336.52,30.467L336.52,40.467" style="fill:none;stroke:#000000;stroke-width:0.625" />
<path d="M612.91,30.467L612.91,40.467" style="fill:none;stroke:#000000;stroke-width:0.625" />
<path d="M889.29,30.467L889.29,40.467" style="fill:none;stroke:#000000;stroke-width:0.625" />
<path d="M152.27,35.468L152.27,40.467" style="fill:none;stroke:#000000;stroke-width:0.625" />
<path d="M244.39,35.468L244.39,40.467" style="fill:none;stroke:#000000;stroke-width:0.625" />
<path d="M428.65,35.468L428.65,40.467" style="fill:none;stroke:#000000;stroke-width:0.625" />
<path d="M520.78,35.468L520.78,40.467" style="fill:none;stroke:#000000;stroke-width:0.625" />
<path d="M705.04,35.468L705.04,40.467" style="fill:none;stroke:#000000;stroke-width:0.625" />
<path d="M797.17,35.468L797.17,40.467" style="fill:none;stroke:#000000;stroke-width:0.625" />
<path d="M981.42,35.468L981.42,40.467" style="fill:none;stroke:#000000;stroke-width:0.625" />
<path d="M1073.6,35.468L1073.6,40.467" style="fill:none;stroke:#000000;stroke-width:0.625" />
<path d="M60.137,40.467L1080,40.467" style="fill:none;stroke:#000000;stroke-width:0.625" />
<g transform="rotate(90)">
<text x="335.88" y="13.59" transform="scale(1, -1)"
	style="font-family:Helvetica;font-weight:normal;font-style:normal;font-size:12pt">Throughput</text>
</g>
<text x="18.555" y="-47.303" transform="scale(1, -1)"
	style="font-family:Helvetica;font-weight:normal;font-style:normal;font-size:10pt">100</text>
<text x="18.555" y="-188.34" transform="scale(1, -1)"
	style="font-family:Helvetica;font-weight:normal;font-style:normal;font-size:10pt">200</text>
<text x="18.555" y="-329.38" transform="scale(1, -1)"
	style="font-family:Helvetica;font-weight:normal;font-style:normal;font-size:10pt">300</text>
<text x="18.555" y="-470.42" transform="scale(1, -1)"
	style="font-family:Helvetica;font-weight:normal;font-style:normal;font-size:10pt">400</text>
<text x="18.555" y="-611.45" transform="scale(1, -1)"
	style="font-family:Helvetica;font-weight:normal;font-style:normal;font-size:10pt">500</text>
<path d="M42.88,52.672L52.88,52.672" style="fill:none;stroke:#000000;stroke-width:0.625" />
<path d="M42.88,193.71L52.88,193.71" style="fill:none;stroke:#000000;stroke-width:0.625" />
<path d="M42.88,334.75L52.88,334.75" style="fill:none;stroke:#000000;stroke-width:0.625" />
<path d="M42.88,475.78L52.88,475.78" style="fill:none;stroke:#000000;stroke-width:0.625" />
<path d="M42.88,616.82L52.88,616.82" style="fill:none;stroke:#000000;stroke-width:0.625" />
<path d="M47.88,123.19L52.88,123.19" style="fill:none;stroke:#000000;stroke-width:0.625" />
<path d="M47.88,264.23L52.88,264.23" style="fill:none;stroke:#000000;stroke-width:0.625" />
<path d="M47.88,405.27L52.88,405.27" style="fill:none;stroke:#000000;stroke-width:0.625" />
<path d="M47.88,546.3L52.88,546.3" style="fill:none;stroke:#000000;stroke-width:0.625" />
<path d="M47.88,687.34L52.88,687.34" style="fill:none;stroke:#000000;stroke-width:0.625" />
<path d="M52.88,47.03L52.88,701.44" style="fill:none;stroke:#000000;stroke-width:0.625" />
<path d="M60.137,47.03L61.059,614L61.98,619.64L62.901,629.52L63.823,605.54L64.744,597.08L65.665,632.34L66.586,623.87L67.508,637.98L68.429,656.31L69.35,605.54L70.272,601.31L71.193,626.7L72.114,649.26L73.035,647.85L73.957,626.7L74.878,632.34L75.799,645.03L76.721,629.52L77.642,614L78.563,649.26L79.484,632.34L80.406,637.98L81.327,592.85L82.248,621.05L83.17,612.59L84.091,605.54L85.012,598.49L85.933,595.67L86.855,590.03L87.776,571.69L88.697,612.59L89.619,591.44L90.54,604.13L91.461,621.05L92.382,611.18L93.304,632.34L94.225,621.05L95.146,608.36L96.068,625.28L96.989,585.79L97.91,575.92L98.831,567.46L99.753,564.64L100.67,549.12L101.6,520.92L102.52,560.41L103.44,542.07L104.36,542.07L105.28,553.36L106.2,457.45L107.12,444.76L108.04,446.17L108.97,463.09L109.89,419.37L110.81,437.7L111.73,448.99L112.65,425.01L113.57,444.76L114.49,415.14L115.41,523.74L116.34,571.69L117.26,554.77L118.18,564.64L119.1,570.28L120.02,575.92L120.94,584.38L121.86,622.46L122.78,628.11L123.71,601.31L124.63,570.28L125.55,598.49L126.47,601.31L127.39,597.08L128.31,604.13L129.23,601.31L130.16,616.82L131.08,625.28L132,629.52L132.92,649.26L133.84,605.54L134.76,615.41L135.68,608.36L136.6,646.44L137.53,601.31L138.45,598.49L139.37,625.28L140.29,591.44L141.21,626.7L142.13,616.82L143.05,577.33L143.97,612.59L144.9,615.41L145.82,616.82L146.74,606.95L147.66,642.21L148.58,647.85L149.5,654.9L150.42,646.44L151.34,643.62L152.27,590.03L153.19,553.36L154.11,577.33L155.03,542.07L155.95,530.79L156.87,526.56L157.79,527.97L158.71,550.53L159.64,546.3L160.56,542.07L161.48,496.94L162.4,446.17L163.32,429.24L164.24,465.91L165.16,465.91L166.09,468.73L167.01,443.35L167.93,450.4L168.85,457.45L169.77,463.09L170.69,539.25L171.61,582.97L172.53,580.15L173.46,559L174.38,578.74L175.3,590.03L176.22,606.95L177.14,625.28L178.06,618.23L178.98,594.26L179.9,601.31L180.83,646.44L181.75,639.39L182.67,616.82L183.59,606.95L184.51,615.41L185.43,628.11L186.35,601.31L187.27,604.13L188.2,632.34L189.12,614L190.04,612.59L190.96,608.36L191.88,628.11L192.8,580.15L193.72,608.36L194.65,618.23L195.57,636.57L196.49,629.52L197.41,582.97L198.33,595.67L199.25,609.77L200.17,598.49L201.09,584.38L202.02,557.59L202.94,595.67L203.86,601.31L204.78,601.31L205.7,599.9L206.62,580.15L207.54,537.84L208.46,540.66L209.39,512.45L210.31,509.63L211.23,513.86L212.15,494.12L213.07,512.45L213.99,503.99L214.91,503.99L215.83,532.2L216.76,441.94L217.68,406.68L218.6,409.5L219.52,437.7L220.44,395.39L221.36,439.11L222.28,399.62L223.2,444.76L224.13,441.94L225.05,419.37L225.97,515.28L226.89,588.61L227.81,570.28L228.73,587.2L229.65,597.08L230.58,527.97L231.5,611.18L232.42,605.54L233.34,594.26L234.26,608.36L235.18,592.85L236.1,625.28L237.02,591.44L237.95,619.64L238.87,602.72L239.79,614L240.71,578.74L241.63,598.49L242.55,591.44L243.47,563.23L244.39,577.33L245.32,591.44L246.24,570.28L247.16,597.08L248.08,597.08L249,573.1L249.92,587.2L250.84,591.44L251.76,582.97L252.69,606.95L253.61,575.92L254.53,582.97L255.45,602.72L256.37,594.26L257.29,582.97L258.21,601.31L259.14,594.26L260.06,584.38L260.98,622.46L261.9,633.75L262.82,561.82L263.74,532.2L264.66,553.36L265.58,533.61L266.51,509.63L267.43,499.76L268.35,539.25L269.27,560.41L270.19,568.87L271.11,542.07L272.03,447.58L272.95,451.81L273.88,429.24L274.8,465.91L275.72,464.5L276.64,470.14L277.56,477.2L278.48,471.55L279.4,457.45L280.32,447.58L281.25,553.36L282.17,633.75L283.09,587.2L284.01,614L284.93,608.36L285.85,567.46L286.77,605.54L287.69,614L288.62,604.13L289.54,588.61L290.46,580.15L291.38,602.72L292.3,597.08L293.22,584.38L294.14,571.69L295.07,616.82L295.99,616.82L296.91,618.23L297.83,612.59L298.75,598.49L299.67,604.13L300.59,590.03L301.51,591.44L302.44,595.67L303.36,575.92L304.28,580.15L305.2,588.61L306.12,567.46L307.04,608.36L307.96,590.03L308.88,591.44L309.81,592.85L310.73,625.28L311.65,584.38L312.57,571.69L313.49,598.49L314.41,606.95L315.33,611.18L316.25,606.95L317.18,601.31L318.1,571.69L319.02,549.12L319.94,550.53L320.86,533.61L321.78,526.56L322.7,511.04L323.63,551.95L324.55,556.18L325.47,551.95L326.39,574.51L327.31,461.68L328.23,456.04L329.15,423.6L330.07,402.45L331,392.57L331.92,396.8L332.84,429.24L333.76,410.91L334.68,422.19L335.6,432.06L336.52,530.79L337.44,612.59L338.37,592.85L339.29,599.9L340.21,622.46L341.13,580.15L342.05,637.98L342.97,623.87L343.89,616.82L344.81,630.93L345.74,633.75L346.66,604.13L347.58,623.87L348.5,628.11L349.42,619.64L350.34,594.26L351.26,608.36L352.18,612.59L353.11,625.28L354.03,588.61L354.95,616.82L355.87,606.95L356.79,625.28L357.71,605.54L358.63,594.26L359.56,590.03L360.48,594.26L361.4,597.08L362.32,598.49L363.24,588.61L364.16,570.28L365.08,578.74L366,606.95L366.93,632.34L367.85,577.33L368.77,619.64L369.69,598.49L370.61,611.18L371.53,601.31L372.45,595.67L373.37,571.69L374.3,539.25L375.22,560.41L376.14,556.18L377.06,513.86L377.98,527.97L378.9,535.02L379.82,561.82L380.74,546.3L381.67,530.79L382.59,432.06L383.51,422.19L384.43,461.68L385.35,444.76L386.27,456.04L387.19,437.7L388.11,416.55L389.04,446.17L389.96,425.01L390.88,441.94L391.8,480.02L392.72,598.49L393.64,570.28L394.56,605.54L395.49,598.49L396.41,544.89L397.33,601.31L398.25,597.08L399.17,614L400.09,588.61L401.01,599.9L401.93,619.64L402.86,636.57L403.78,619.64L404.7,640.8L405.62,622.46L406.54,615.41L407.46,615.41L408.38,625.28L409.3,642.21L410.23,597.08L411.15,598.49L412.07,609.77L412.99,626.7L413.91,612.59L414.83,575.92L415.75,591.44L416.67,582.97L417.6,582.97L418.52,605.54L419.44,599.9L420.36,592.85L421.28,581.56L422.2,568.87L423.12,606.95L424.05,590.03L424.97,604.13L425.89,592.85L426.81,585.79L427.73,588.61L428.65,532.2L429.57,501.17L430.49,526.56L431.42,546.3L432.34,530.79L433.26,519.51L434.18,547.71L435.1,542.07L436.02,547.71L436.94,539.25L437.86,487.07L438.79,456.04L439.71,457.45L440.63,471.55L441.55,457.45L442.47,458.86L443.39,422.19L444.31,426.42L445.23,457.45L446.16,446.17L447.08,487.07L448,582.97L448.92,578.74L449.84,587.2L450.76,604.13L451.68,611.18L452.6,618.23L453.53,652.08L454.45,643.62L455.37,633.75L456.29,605.54L457.21,623.87L458.13,621.05L459.05,635.16L459.98,619.64L460.9,608.36L461.82,604.13L462.74,618.23L463.66,614L464.58,567.46L465.5,601.31L466.42,582.97L467.35,612.59L468.27,591.44L469.19,592.85L470.11,592.85L471.03,581.56L471.95,584.38L472.87,577.33L473.79,595.67L474.72,602.72L475.64,619.64L476.56,601.31L477.48,567.46L478.4,599.9L479.32,609.77L480.24,591.44L481.16,588.61L482.09,612.59L483.01,621.05L483.93,540.66L484.85,530.79L485.77,529.38L486.69,515.28L487.61,516.69L488.54,532.2L489.46,527.97L490.38,520.92L491.3,575.92L492.22,561.82L493.14,471.55L494.06,426.42L494.98,432.06L495.91,422.19L496.83,436.29L497.75,448.99L498.67,426.42L499.59,474.37L500.51,465.91L501.43,423.6L502.35,546.3L503.28,598.49L504.2,594.26L505.12,605.54L506.04,629.52L506.96,626.7L507.88,618.23L508.8,632.34L509.72,614L510.65,630.93L511.57,619.64L512.49,646.44L513.41,616.82L514.33,614L515.25,623.87L516.17,602.72L517.09,637.98L518.02,602.72L518.94,581.56L519.86,604.13L520.78,594.26L521.7,592.85L522.62,591.44L523.54,585.79L524.47,614L525.39,602.72L526.31,584.38L527.23,625.28L528.15,582.97L529.07,591.44L529.99,585.79L530.91,608.36L531.84,616.82L532.76,592.85L533.68,608.36L534.6,614L535.52,633.75L536.44,621.05L537.36,609.77L538.28,621.05L539.21,567.46L540.13,533.61L541.05,546.3L541.97,527.97L542.89,550.53L543.81,516.69L544.73,549.12L545.65,559L546.58,540.66L547.5,553.36L548.42,468.73L549.34,464.5L550.26,437.7L551.18,464.5L552.1,436.29L553.02,456.04L553.95,419.37L554.87,434.88L555.79,432.06L556.71,433.47L557.63,537.84L558.55,578.74L559.47,590.03L560.4,573.1L561.32,587.2L562.24,580.15L563.16,590.03L564.08,630.93L565,635.16L565.92,635.16L566.84,615.41L567.77,608.36L568.69,622.46L569.61,615.41L570.53,594.26L571.45,601.31L572.37,622.46L573.29,608.36L574.21,622.46L575.14,633.75L576.06,615.41L576.98,619.64L577.9,592.85L578.82,630.93L579.74,592.85L580.66,618.23L581.58,621.05L582.51,608.36L583.43,618.23L584.35,597.08L585.27,601.31L586.19,585.79L587.11,557.59L588.03,560.41L588.96,559L589.88,597.08L590.8,605.54L591.72,592.85L592.64,592.85L593.56,608.36L594.48,549.12L595.4,537.84L596.33,520.92L597.25,522.33L598.17,513.86L599.09,529.38L600.01,537.84L600.93,549.12L601.85,543.48L602.77,518.1L603.7,454.63L604.62,440.53L605.54,403.86L606.46,409.5L607.38,358.72L608.3,382.7L609.22,350.26L610.14,350.26L611.07,347.44L611.99,374.24L612.91,492.71L613.83,556.18L614.75,535.02L615.67,546.3L616.59,535.02L617.51,525.15L618.44,608.36L619.36,605.54L620.28,604.13L621.2,602.72L622.12,533.61L623.04,615.41L623.96,616.82L624.89,584.38L625.81,592.85L626.73,577.33L627.65,568.87L628.57,560.41L629.49,560.41L630.41,591.44L631.33,573.1L632.26,582.97L633.18,563.23L634.1,571.69L635.02,561.82L635.94,570.28L636.86,582.97L637.78,605.54L638.7,560.41L639.63,587.2L640.55,571.69L641.47,591.44L642.39,578.74L643.31,570.28L644.23,564.64L645.15,612.59L646.07,592.85L647,575.92L647.92,580.15L648.84,523.74L649.76,540.66L650.68,522.33L651.6,522.33L652.52,491.3L653.45,487.07L654.37,480.02L655.29,480.02L656.21,511.04L657.13,519.51L658.05,513.86L658.97,432.06L659.89,417.96L660.82,350.26L661.74,371.42L662.66,358.72L663.58,372.83L664.5,377.06L665.42,375.65L666.34,385.52L667.26,393.98L668.19,491.3L669.11,498.35L670.03,553.36L670.95,557.59L671.87,557.59L672.79,557.59L673.71,564.64L674.63,560.41L675.56,566.05L676.48,580.15L677.4,568.87L678.32,594.26L679.24,566.05L680.16,554.77L681.08,568.87L682,618.23L682.93,580.15L683.85,590.03L684.77,561.82L685.69,549.12L686.61,527.97L687.53,554.77L688.45,564.64L689.38,563.23L690.3,577.33L691.22,573.1L692.14,559L693.06,540.66L693.98,575.92L694.9,580.15L695.82,556.18L696.75,564.64L697.67,566.05L698.59,561.82L699.51,582.97L700.43,597.08L701.35,590.03L702.27,585.79L703.19,585.79L704.12,553.36L705.04,535.02L705.96,539.25L706.88,529.38L707.8,513.86L708.72,505.4L709.64,523.74L710.56,505.4L711.49,540.66L712.41,508.22L713.33,537.84L714.25,467.32L715.17,427.83L716.09,379.88L717.01,412.32L717.93,358.72L718.86,401.03L719.78,406.68L720.7,385.52L721.62,403.86L722.54,391.16L723.46,498.35L724.38,575.92L725.31,573.1L726.23,598.49L727.15,588.61L728.07,614L728.99,615.41L729.91,630.93L730.83,616.82L731.75,622.46L732.68,633.75L733.6,669.01L734.52,626.7L735.44,652.08L736.36,640.8L737.28,616.82L738.2,621.05L739.12,640.8L740.05,619.64L740.97,592.85L741.89,566.05L742.81,566.05L743.73,580.15L744.65,587.2L745.57,578.74L746.49,564.64L747.42,559L748.34,564.64L749.26,544.89L750.18,560.41L751.1,571.69L752.02,539.25L752.94,549.12L753.87,568.87L754.79,571.69L755.71,522.33L756.63,585.79L757.55,578.74L758.47,584.38L759.39,582.97L760.31,557.59L761.24,554.77L762.16,496.94L763.08,506.81L764,488.48L764.92,481.43L765.84,532.2L766.76,506.81L767.68,519.51L768.61,518.1L769.53,427.83L770.45,392.57L771.37,381.29L772.29,410.91L773.21,367.19L774.13,364.36L775.05,361.54L775.98,347.44L776.9,371.42L777.82,347.44L778.74,481.43L779.66,560.41L780.58,580.15L781.5,573.1L782.42,556.18L783.35,543.48L784.27,577.33L785.19,577.33L786.11,582.97L787.03,597.08L787.95,605.54L788.87,601.31L789.8,598.49L790.72,582.97L791.64,594.26L792.56,618.23L793.48,615.41L794.4,592.85L795.32,611.18L796.24,578.74L797.17,547.71L798.09,496.94L799.01,597.08L799.93,601.31L800.85,574.51L801.77,575.92L802.69,590.03L803.61,530.79L804.54,585.79L805.46,566.05L806.38,557.59L807.3,551.95L808.22,588.61L809.14,559L810.06,495.53L810.98,561.82L811.91,563.23L812.83,546.3L813.75,560.41L814.67,535.02L815.59,527.97L816.51,498.35L817.43,474.37L818.36,502.58L819.28,448.99L820.2,481.43L821.12,498.35L822.04,488.48L822.96,464.5L823.88,439.11L824.8,368.6L825.73,319.23L826.65,276.92L827.57,331.93L828.49,347.44L829.41,354.49L830.33,350.26L831.25,323.46L832.17,348.85L833.1,330.52L834.02,429.24L834.94,529.38L835.86,502.58L836.78,522.33L837.7,539.25L838.62,568.87L839.54,566.05L840.47,551.95L841.39,588.61L842.31,532.2L843.23,566.05L844.15,581.56L845.07,581.56L845.99,590.03L846.91,582.97L847.84,568.87L848.76,553.36L849.68,533.61L850.6,578.74L851.52,556.18L852.44,547.71L853.36,549.12L854.29,475.78L855.21,465.91L856.13,499.76L857.05,468.73L857.97,544.89L858.89,529.38L859.81,559L860.73,554.77L861.66,556.18L862.58,574.51L863.5,570.28L864.42,529.38L865.34,573.1L866.26,556.18L867.18,505.4L868.1,526.56L869.03,564.64L869.95,544.89L870.87,550.53L871.79,503.99L872.71,474.37L873.63,509.63L874.55,488.48L875.47,448.99L876.4,498.35L877.32,519.51L878.24,523.74L879.16,492.71L880.08,403.86L881,338.98L881.92,361.54L882.85,371.42L883.77,298.08L884.69,310.77L885.61,362.95L886.53,319.23L887.45,375.65L888.37,360.13L889.29,461.68L890.22,533.61L891.14,520.92L892.06,539.25L892.98,547.71L893.9,522.33L894.82,526.56L895.74,566.05L896.66,540.66L897.59,554.77L898.51,543.48L899.43,564.64L900.35,518.1L901.27,561.82L902.19,581.56L903.11,561.82L904.03,535.02L904.96,574.51L905.88,582.97L906.8,571.69L907.72,518.1L908.64,553.36L909.56,529.38L910.48,529.38L911.4,506.81L912.33,496.94L913.25,540.66L914.17,542.07L915.09,559L916.01,571.69L916.93,546.3L917.85,563.23L918.78,553.36L919.7,522.33L920.62,560.41L921.54,580.15L922.46,574.51L923.38,580.15L924.3,597.08L925.22,577.33L926.15,532.2L927.07,488.48L927.99,533.61L928.91,533.61L929.83,492.71L930.75,496.94L931.67,530.79L932.59,529.38L933.52,535.02L934.44,509.63L935.36,374.24L936.28,393.98L937.2,351.67L938.12,393.98L939.04,381.29L939.96,410.91L940.89,381.29L941.81,348.85L942.73,317.82L943.65,324.87L944.57,489.89L945.49,522.33L946.41,563.23L947.33,543.48L948.26,544.89L949.18,485.66L950.1,591.44L951.02,585.79L951.94,563.23L952.86,532.2L953.78,535.02L954.71,581.56L955.63,571.69L956.55,587.2L957.47,570.28L958.39,595.67L959.31,577.33L960.23,588.61L961.15,557.59L962.08,591.44L963,575.92L963.92,592.85L964.84,556.18L965.76,604.13L966.68,571.69L967.6,575.92L968.52,526.56L969.45,580.15L970.37,588.61L971.29,577.33L972.21,580.15L973.13,570.28L974.05,574.51L974.97,588.61L975.89,535.02L976.82,582.97L977.74,570.28L978.66,580.15L979.58,591.44L980.5,584.38L981.42,539.25L982.34,537.84L983.27,482.84L984.19,530.79L985.11,513.86L986.03,529.38L986.95,535.02L987.87,533.61L988.79,537.84L989.71,540.66L990.64,454.63L991.56,419.37L992.48,346.03L993.4,416.55L994.32,406.68L995.24,440.53L996.16,434.88L997.08,429.24L998.01,436.29L998.93,419.37L999.85,539.25L1000.8,575.92L1001.7,544.89L1002.6,577.33L1003.5,567.46L1004.5,582.97L1005.4,612.59L1006.3,605.54L1007.2,612.59L1008.1,601.31L1009.1,601.31L1010,570.28L1010.9,563.23L1011.8,570.28L1012.7,567.46L1013.7,568.87L1014.6,595.67L1015.5,574.51L1016.4,615.41L1017.4,566.05L1018.3,588.61L1019.2,568.87L1020.1,501.17L1021,557.59L1022,546.3L1022.9,566.05L1023.8,590.03L1024.7,546.3L1025.6,498.35L1026.6,573.1L1027.5,564.64L1028.4,568.87L1029.3,553.36L1030.3,561.82L1031.2,566.05L1032.1,566.05L1033,559L1033.9,527.97L1034.9,573.1L1035.8,560.41L1036.7,535.02L1037.6,494.12L1038.5,516.69L1039.5,529.38L1040.4,506.81L1041.3,502.58L1042.2,512.45L1043.1,478.61L1044.1,530.79L1045,470.14L1045.9,426.42L1046.8,420.78L1047.8,379.88L1048.7,393.98L1049.6,392.57L1050.5,399.62L1051.4,395.39L1052.4,371.42L1053.3,346.03L1054.2,395.39L1055.1,520.92L1056,581.56L1057,571.69L1057.9,561.82L1058.8,567.46L1059.7,590.03L1060.7,632.34L1061.6,564.64L1062.5,597.08L1063.4,601.31L1064.3,592.85L1065.3,582.97L1066.2,598.49L1067.1,611.18L1068,608.36L1068.9,582.97L1069.9,544.89L1070.8,601.31L1071.7,595.67L1072.6,581.56L1073.6,588.61L1074.5,608.36L1075.4,592.85L1076.3,595.67L1077.2,591.44L1078.2,550.53L1079.1,591.44L1080,580.15" style="fill:none;stroke:#F15A60;stroke-width:1.875" />
<path d="M60.137,147.17L61.059,518.1L61.98,556.18L62.901,564.64L63.823,457.45L64.744,496.94L65.665,505.4L66.586,506.81L67.508,522.33L68.429,499.76L69.35,544.89L70.272,535.02L71.193,513.86L72.114,509.63L73.035,585.79L73.957,616.82L74.878,604.13L75.799,604.13L76.721,590.03L77.642,604.13L78.563,578.74L79.484,566.05L80.406,564.64L81.327,568.87L82.248,578.74L83.17,559L84.091,560.41L85.012,566.05L85.933,544.89L86.855,564.64L87.776,597.08L88.697,612.59L89.619,599.9L90.54,577.33L91.461,597.08L92.382,609.77L93.304,608.36L94.225,625.28L95.146,618.23L96.068,612.59L96.989,598.49L97.91,594.26L98.831,615.41L99.753,619.64L100.67,614L101.6,616.82L102.52,632.34L103.44,635.16L104.36,563.23L105.28,563.23L106.2,556.18L107.12,505.4L108.04,560.41L108.97,549.12L109.89,559L110.81,509.63L111.73,532.2L112.65,530.79L113.57,602.72L114.49,618.23L115.41,623.87L116.34,615.41L117.26,642.21L118.18,612.59L119.1,544.89L120.02,550.53L120.94,577.33L121.86,563.23L122.78,547.71L123.71,549.12L124.63,559L125.55,547.71L126.47,550.53L127.39,551.95L128.31,618.23L129.23,615.41L130.16,606.95L131.08,602.72L132,592.85L132.92,612.59L133.84,591.44L134.76,566.05L135.68,587.2L136.6,584.38L137.53,557.59L138.45,590.03L139.37,594.26L140.29,580.15L141.21,588.61L142.13,575.92L143.05,498.35L143.97,598.49L144.9,615.41L145.82,612.59L146.74,612.59L147.66,614L148.58,626.7L149.5,621.05L150.42,621.05L151.34,625.28L152.27,616.82L153.19,619.64L154.11,619.64L155.03,632.34L155.95,614L156.87,614L157.79,595.67L158.71,611.18L159.64,550.53L160.56,527.97L161.48,536.43L162.4,502.58L163.32,529.38L164.24,470.14L165.16,551.95L166.09,536.43L167.01,526.56L167.93,527.97L168.85,618.23L169.77,594.26L170.69,640.8L171.61,599.9L172.53,640.8L173.46,630.93L174.38,553.36L175.3,539.25L176.22,533.61L177.14,556.18L178.06,537.84L178.98,539.25L179.9,549.12L180.83,563.23L181.75,523.74L182.67,563.23L183.59,646.44L184.51,656.31L185.43,625.28L186.35,582.97L187.27,615.41L188.2,625.28L189.12,570.28L190.04,592.85L190.96,594.26L191.88,567.46L192.8,605.54L193.72,578.74L194.65,588.61L195.57,594.26L196.49,559L197.41,527.97L198.33,599.9L199.25,604.13L200.17,615.41L201.09,625.28L202.02,640.8L202.94,625.28L203.86,636.57L204.78,609.77L205.7,635.16L206.62,611.18L207.54,564.64L208.46,622.46L209.39,616.82L210.31,608.36L211.23,625.28L212.15,622.46L213.07,635.16L213.99,628.11L214.91,540.66L215.83,532.2L216.76,537.84L217.68,516.69L218.6,509.63L219.52,550.53L220.44,535.02L221.36,540.66L222.28,533.61L223.2,532.2L224.13,616.82L225.05,619.64L225.97,605.54L226.89,621.05L227.81,629.52L228.73,630.93L229.65,532.2L230.58,542.07L231.5,485.66L232.42,543.48L233.34,582.97L234.26,585.79L235.18,619.64L236.1,580.15L237.02,592.85L237.95,615.41L238.87,687.34L239.79,661.95L240.71,677.47L241.63,652.08L242.55,660.54L243.47,647.85L244.39,618.23L245.32,582.97L246.24,559L247.16,588.61L248.08,595.67L249,554.77L249.92,618.23L250.84,605.54L251.76,599.9L252.69,594.26L253.61,633.75L254.53,676.06L255.45,670.42L256.37,678.88L257.29,660.54L258.21,661.95L259.14,646.44L260.06,684.52L260.98,642.21L261.9,661.95L262.82,661.95L263.74,646.44L264.66,680.29L265.58,635.16L266.51,678.88L267.43,678.88L268.35,664.78L269.27,657.72L270.19,550.53L271.11,536.43L272.03,543.48L272.95,546.3L273.88,560.41L274.8,557.59L275.72,547.71L276.64,557.59L277.56,539.25L278.48,522.33L279.4,645.03L280.32,661.95L281.25,663.36L282.17,664.78L283.09,650.67L284.01,683.11L284.93,566.05L285.85,556.18L286.77,573.1L287.69,533.61L288.62,575.92L289.54,567.46L290.46,561.82L291.38,557.59L292.3,551.95L293.22,592.85L294.14,647.85L295.07,646.44L295.99,660.54L296.91,639.39L297.83,645.03L298.75,643.62L299.67,616.82L300.59,618.23L301.51,574.51L302.44,560.41L303.36,564.64L304.28,573.1L305.2,580.15L306.12,601.31L307.04,584.38L307.96,591.44L308.88,611.18L309.81,618.23L310.73,599.9L311.65,606.95L312.57,635.16L313.49,637.98L314.41,591.44L315.33,611.18L316.25,626.7L317.18,630.93L318.1,643.62L319.02,633.75L319.94,615.41L320.86,622.46L321.78,622.46L322.7,633.75L323.63,635.16L324.55,623.87L325.47,532.2L326.39,553.36L327.31,546.3L328.23,551.95L329.15,540.66L330.07,513.86L331,518.1L331.92,509.63L332.84,496.94L333.76,532.2L334.68,571.69L335.6,590.03L336.52,619.64L337.44,633.75L338.37,626.7L339.29,621.05L340.21,571.69L341.13,567.46L342.05,564.64L342.97,574.51L343.89,554.77L344.81,580.15L345.74,582.97L346.66,559L347.58,564.64L348.5,573.1L349.42,601.31L350.34,625.28L351.26,614L352.18,602.72L353.11,612.59L354.03,601.31L354.95,577.33L355.87,554.77L356.79,527.97L357.71,544.89L358.63,581.56L359.56,559L360.48,578.74L361.4,585.79L362.32,575.92L363.24,544.89L364.16,606.95L365.08,615.41L366,614L366.93,606.95L367.85,616.82L368.77,622.46L369.69,608.36L370.61,632.34L371.53,633.75L372.45,605.54L373.37,609.77L374.3,612.59L375.22,629.52L376.14,618.23L377.06,639.39L377.98,629.52L378.9,636.57L379.82,615.41L380.74,520.92L381.67,533.61L382.59,535.02L383.51,546.3L384.43,530.79L385.35,502.58L386.27,542.07L387.19,529.38L388.11,523.74L389.04,526.56L389.96,629.52L390.88,632.34L391.8,630.93L392.72,628.11L393.64,630.93L394.56,625.28L395.49,561.82L396.41,575.92L397.33,580.15L398.25,575.92L399.17,554.77L400.09,585.79L401.01,584.38L401.93,408.09L402.86,573.1L403.78,413.73L404.7,649.26L405.62,619.64L406.54,622.46L407.46,628.11L408.38,625.28L409.3,587.2L410.23,585.79L411.15,595.67L412.07,581.56L412.99,591.44L413.91,574.51L414.83,567.46L415.75,566.05L416.67,601.31L417.6,598.49L418.52,591.44L419.44,637.98L420.36,637.98L421.28,653.49L422.2,625.28L423.12,653.49L424.05,669.01L424.97,633.75L425.89,678.88L426.81,636.57L427.73,660.54L428.65,656.31L429.57,614L430.49,632.34L431.42,639.39L432.34,656.31L433.26,667.6L434.18,669.01L435.1,670.42L436.02,520.92L436.94,458.86L437.86,556.18L438.79,557.59L439.71,546.3L440.63,475.78L441.55,546.3L442.47,536.43L443.39,536.43L444.31,530.79L445.23,542.07L446.16,649.26L447.08,619.64L448,637.98L448.92,597.08L449.84,639.39L450.76,582.97L451.68,598.49L452.6,612.59L453.53,604.13L454.45,605.54L455.37,591.44L456.29,605.54L457.21,615.41L458.13,584.38L459.05,604.13L459.98,635.16L460.9,661.95L461.82,643.62L462.74,602.72L463.66,616.82L464.58,633.75L465.5,587.2L466.42,568.87L467.35,550.53L468.27,557.59L469.19,566.05L470.11,568.87L471.03,568.87L471.95,553.36L472.87,570.28L473.79,587.2L474.72,643.62L475.64,654.9L476.56,601.31L477.48,656.31L478.4,643.62L479.32,640.8L480.24,663.36L481.16,630.93L482.09,654.9L483.01,659.13L483.93,664.78L484.85,666.19L485.77,653.49L486.69,656.31L487.61,652.08L488.54,671.83L489.46,666.19L490.38,643.62L491.3,542.07L492.22,535.02L493.14,481.43L494.06,537.84L494.98,539.25L495.91,543.48L496.83,543.48L497.75,549.12L498.67,537.84L499.59,571.69L500.51,639.39L501.43,656.31L502.35,633.75L503.28,616.82L504.2,609.77L505.12,653.49L506.04,567.46L506.96,568.87L507.88,591.44L508.8,568.87L509.72,549.12L510.65,597.08L511.57,595.67L512.49,581.56L513.41,581.56L514.33,574.51L515.25,630.93L516.17,598.49L517.09,623.87L518.02,463.09L518.94,639.39L519.86,622.46L520.78,546.3L521.7,436.29L522.62,566.05L523.54,570.28L524.47,535.02L525.39,535.02L526.31,543.48L527.23,544.89L528.15,527.97L529.07,494.12L529.99,597.08L530.91,608.36L531.84,630.93L532.76,642.21L533.68,623.87L534.6,643.62L535.52,652.08L536.44,616.82L537.36,645.03L538.28,653.49L539.21,639.39L540.13,625.28L541.05,639.39L541.97,621.05L542.89,639.39L543.81,664.78L544.73,659.13L545.65,670.42L546.58,553.36L547.5,522.33L548.42,491.3L549.34,512.45L550.26,495.53L551.18,498.35L552.1,480.02L553.02,515.28L553.95,498.35L554.87,492.71L555.79,621.05L556.71,618.23L557.63,626.7L558.55,533.61L559.47,678.88L560.4,667.6L561.32,592.85L562.24,611.18L563.16,616.82L564.08,588.61L565,605.54L565.92,587.2L566.84,590.03L567.77,582.97L568.69,629.52L569.61,636.57L570.53,630.93L571.45,654.9L572.37,657.72L573.29,630.93L574.21,642.21L575.14,652.08L576.06,590.03L576.98,549.12L577.9,502.58L578.82,575.92L579.74,585.79L580.66,602.72L581.58,605.54L582.51,608.36L583.43,609.77L584.35,619.64L585.27,615.41L586.19,633.75L587.11,654.9L588.03,673.24L588.96,652.08L589.88,646.44L590.8,671.83L591.72,653.49L592.64,661.95L593.56,663.36L594.48,652.08L595.4,656.31L596.33,649.26L597.25,616.82L598.17,639.39L599.09,661.95L600.01,656.31L600.93,642.21L601.85,568.87L602.77,535.02L603.7,494.12L604.62,567.46L605.54,551.95L606.46,544.89L607.38,559L608.3,539.25L609.22,499.76L610.14,485.66L611.07,605.54L611.99,650.67L612.91,671.83L613.83,646.44L614.75,645.03L615.67,649.26L616.59,580.15L617.51,571.69L618.44,582.97L619.36,560.41L620.28,571.69L621.2,549.12L622.12,553.36L623.04,587.2L623.96,594.26L624.89,599.9L625.81,621.05L626.73,661.95L627.65,650.67L628.57,574.51L629.49,656.31L630.41,595.67L631.33,604.13L632.26,580.15L633.18,546.3L634.1,575.92L635.02,601.31L635.94,595.67L636.86,611.18L637.78,639.39L638.7,626.7L639.63,612.59L640.55,639.39L641.47,454.63L642.39,501.17L643.31,447.58L644.23,489.89L645.15,678.88L646.07,676.06L647,677.47L647.92,673.24L648.84,669.01L649.76,670.42L650.68,657.72L651.6,669.01L652.52,680.29L653.45,664.78L654.37,646.44L655.29,684.52L656.21,674.65L657.13,598.49L658.05,559L658.97,560.41L659.89,598.49L660.82,546.3L661.74,564.64L662.66,590.03L663.58,419.37L664.5,546.3L665.42,597.08L666.34,645.03L667.26,688.75L668.19,690.16L669.11,685.93L670.03,670.42L670.95,657.72L671.87,582.97L672.79,574.51L673.71,587.2L674.63,594.26L675.56,587.2L676.48,592.85L677.4,605.54L678.32,590.03L679.24,598.49L680.16,614L681.08,690.16L682,680.29L682.93,684.52L683.85,654.9L684.77,653.49L685.69,664.78L686.61,647.85L687.53,629.52L688.45,615.41L689.38,598.49L690.3,601.31L691.22,592.85L692.14,608.36L693.06,612.59L693.98,606.95L694.9,625.28L695.82,636.57L696.75,656.31L697.67,673.24L698.59,670.42L699.51,647.85L700.43,649.26L701.35,629.52L702.27,629.52L703.19,637.98L704.12,625.28L705.04,659.13L705.96,654.9L706.88,660.54L707.8,656.31L708.72,643.62L709.64,660.54L710.56,649.26L711.49,645.03L712.41,598.49L713.33,561.82L714.25,567.46L715.17,575.92L716.09,568.87L717.01,584.38L717.93,587.2L718.86,575.92L719.78,575.92L720.7,582.97L721.62,640.8L722.54,647.85L723.46,640.8L724.38,636.57L725.31,632.34L726.23,636.57L727.15,582.97L728.07,581.56L728.99,554.77L729.91,561.82L730.83,573.1L731.75,578.74L732.68,595.67L733.6,574.51L734.52,578.74L735.44,584.38L736.36,657.72L737.28,646.44L738.2,639.39L739.12,640.8L740.05,654.9L740.97,654.9L741.89,626.7L742.81,614L743.73,602.72L744.65,591.44L745.57,608.36L746.49,578.74L747.42,605.54L748.34,615.41L749.26,609.77L750.18,601.31L751.1,622.46L752.02,633.75L752.94,623.87L753.87,642.21L754.79,652.08L755.71,398.21L756.63,657.72L757.55,667.6L758.47,434.88L759.39,685.93L760.31,674.65L761.24,652.08L762.16,664.78L763.08,671.83L764,669.01L764.92,678.88L765.84,681.7L766.76,654.9L767.68,567.46L768.61,571.69L769.53,566.05L770.45,568.87L771.37,584.38L772.29,575.92L773.21,597.08L774.13,478.61L775.05,511.04L775.98,581.56L776.9,659.13L777.82,669.01L778.74,645.03L779.66,652.08L780.58,647.85L781.5,647.85L782.42,616.82L783.35,605.54L784.27,594.26L785.19,604.13L786.11,513.86L787.03,546.3L787.95,621.05L788.87,633.75L789.8,614L790.72,636.57L791.64,673.24L792.56,670.42L793.48,656.31L794.4,676.06L795.32,659.13L796.24,667.6L797.17,632.34L798.09,601.31L799.01,612.59L799.93,612.59L800.85,594.26L801.77,606.95L802.69,619.64L803.61,642.21L804.54,556.18L805.46,604.13L806.38,578.74L807.3,618.23L808.22,666.19L809.14,645.03L810.06,692.98L810.98,676.06L811.91,697.21L812.83,652.08L813.75,659.13L814.67,677.47L815.59,681.7L816.51,670.42L817.43,673.24L818.36,687.34L819.28,663.36L820.2,663.36L821.12,661.95L822.04,663.36L822.96,595.67L823.88,574.51L824.8,578.74L825.73,573.1L826.65,566.05L827.57,563.23L828.49,609.77L829.41,312.18L830.33,578.74L831.25,588.61L832.17,650.67L833.1,660.54L834.02,667.6L834.94,673.24L835.86,685.93L836.78,659.13L837.7,591.44L838.62,601.31L839.54,594.26L840.47,604.13L841.39,597.08L842.31,594.26L843.23,597.08L844.15,585.79L845.07,598.49L845.99,608.36L846.91,667.6L847.84,656.31L848.76,633.75L849.68,639.39L850.6,630.93L851.52,247.3L852.44,625.28L853.36,626.7L854.29,611.18L855.21,604.13L856.13,614L857.05,595.67L857.97,608.36L858.89,599.9L859.81,605.54L860.73,623.87L861.66,639.39L862.58,652.08L863.5,646.44L864.42,639.39L865.34,643.62L866.26,661.95L867.18,659.13L868.1,666.19L869.03,647.85L869.95,664.78L870.87,654.9L871.79,650.67L872.71,629.52L873.63,636.57L874.55,669.01L875.47,669.01L876.4,697.21L877.32,683.11L878.24,602.72L879.16,587.2L880.08,585.79L881,598.49L881.92,559L882.85,559L883.77,570.28L884.69,591.44L885.61,585.79L886.53,606.95L887.45,676.06L888.37,692.98L889.29,676.06L890.22,680.29L891.14,698.62L892.06,680.29L892.98,611.18L893.9,595.67L894.82,594.26L895.74,612.59L896.66,606.95L897.59,608.36L898.51,608.36L899.43,621.05L900.35,604.13L901.27,615.41L902.19,597.08L903.11,647.85L904.03,678.88L904.96,661.95L905.88,661.95L906.8,671.83L907.72,652.08L908.64,636.57L909.56,630.93L910.48,626.7L911.4,616.82L912.33,626.7L913.25,503.99L914.17,560.41L915.09,640.8L916.01,657.72L916.93,681.7L917.85,683.11L918.78,674.65L919.7,664.78L920.62,692.98L921.54,684.52L922.46,681.7L923.38,680.29L924.3,661.95L925.22,646.44L926.15,656.31L927.07,684.52L927.99,697.21L928.91,701.44L929.83,661.95L930.75,678.88L931.67,681.7L932.59,673.24L933.52,595.67L934.44,578.74L935.36,578.74L936.28,597.08L937.2,597.08L938.12,592.85L939.04,582.97L939.96,577.33L940.89,582.97L941.81,604.13L942.73,659.13L943.65,685.93L944.57,652.08L945.49,673.24L946.41,667.6L947.33,661.95L948.26,575.92L949.18,577.33L950.1,151.4L951.02,566.05L951.94,592.85L952.86,571.69L953.78,592.85L954.71,611.18L955.63,595.67L956.55,621.05L957.47,678.88L958.39,653.49L959.31,652.08L960.23,659.13L961.15,676.06L962.08,671.83L963,616.82L963.92,606.95L964.84,598.49L965.76,628.11L966.68,577.33L967.6,606.95L968.52,605.54L969.45,626.7L970.37,653.49L971.29,635.16L972.21,671.83L973.13,663.36L974.05,659.13L974.97,673.24L975.89,684.52L976.82,463.09L977.74,291.03L978.66,671.83L979.58,653.49L980.5,661.95L981.42,656.31L982.34,659.13L983.27,680.29L984.19,694.39L985.11,701.44L986.03,678.88L986.95,680.29L987.87,683.11L988.79,587.2L989.71,590.03L990.64,566.05L991.56,588.61L992.48,585.79L993.4,604.13L994.32,559L995.24,588.61L996.16,584.38L997.08,582.97L998.01,667.6" style="fill:none;stroke:#7AC36A;stroke-width:1.875;stroke-dasharray:7.5,2.5" />
<path d="M60.137,505.4L61.059,560.41L61.98,594.26L62.901,463.09L63.823,453.22L64.744,451.81L65.665,446.17L66.586,454.63L67.508,434.88L68.429,425.01L69.35,487.07L70.272,554.77L71.193,594.26L72.114,633.75L73.035,594.26L73.957,623.87L74.878,635.16L75.799,604.13L76.721,598.49L77.642,577.33L78.563,566.05L79.484,591.44L80.406,580.15L81.327,592.85L82.248,580.15L83.17,591.44L84.091,592.85L85.012,615.41L85.933,650.67L86.855,635.16L87.776,654.9L88.697,652.08L89.619,657.72L90.54,660.54L91.461,660.54L92.382,667.6L93.304,625.28L94.225,650.67L95.146,643.62L96.068,623.87L96.989,637.98L97.91,646.44L98.831,633.75L99.753,656.31L100.67,657.72L101.6,645.03L102.52,652.08L103.44,647.85L104.36,650.67L105.28,654.9L106.2,656.31L107.12,670.42L108.04,633.75L108.97,640.8L109.89,623.87L110.81,632.34L111.73,629.52L112.65,667.6L113.57,653.49L114.49,650.67L115.41,652.08L116.34,574.51L117.26,590.03L118.18,482.84L119.1,454.63L120.02,467.32L120.94,496.94L121.86,481.43L122.78,457.45L123.71,456.04L124.63,478.61L125.55,551.95L126.47,578.74L127.39,642.21L128.31,639.39L129.23,628.11L130.16,633.75L131.08,598.49L132,553.36L132.92,540.66L133.84,537.84L134.76,553.36L135.68,575.92L136.6,581.56L137.53,575.92L138.45,601.31L139.37,609.77L140.29,633.75L141.21,639.39L142.13,636.57L143.05,660.54L143.97,626.7L144.9,663.36L145.82,646.44L146.74,681.7L147.66,657.72L148.58,664.78L149.5,654.9L150.42,652.08L151.34,650.67L152.27,647.85L153.19,660.54L154.11,615.41L155.03,637.98L155.95,630.93L156.87,656.31L157.79,636.57L158.71,632.34L159.64,599.9L160.56,637.98L161.48,626.7L162.4,640.8L163.32,666.19L164.24,632.34L165.16,622.46L166.09,647.85L167.01,670.42L167.93,663.36L168.85,649.26L169.77,647.85L170.69,626.7L171.61,599.9L172.53,630.93L173.46,516.69L174.38,495.53L175.3,458.86L176.22,467.32L177.14,461.68L178.06,443.35L178.98,447.58L179.9,472.96L180.83,609.77L181.75,612.59L182.67,633.75L183.59,653.49L184.51,628.11L185.43,640.8L186.35,633.75L187.27,601.31L188.2,563.23L189.12,560.41L190.04,595.67L190.96,591.44L191.88,599.9L192.8,584.38L193.72,587.2L194.65,592.85L195.57,625.28L196.49,628.11L197.41,604.13L198.33,647.85L199.25,654.9L200.17,681.7L201.09,666.19L202.02,643.62L202.94,645.03L203.86,661.95L204.78,645.03L205.7,650.67L206.62,612.59L207.54,646.44L208.46,669.01L209.39,657.72L210.31,667.6L211.23,650.67L212.15,645.03L213.07,659.13L213.99,660.54L214.91,666.19L215.83,653.49L216.76,650.67L217.68,659.13L218.6,659.13L219.52,659.13L220.44,659.13L221.36,657.72L222.28,657.72L223.2,659.13L224.13,654.9L225.05,640.8L225.97,611.18L226.89,606.95L227.81,625.28L228.73,467.32L229.65,463.09L230.58,451.81L231.5,471.55L232.42,470.14L233.34,463.09L234.26,480.02L235.18,520.92L236.1,626.7L237.02,608.36L237.95,654.9L238.87,671.83L239.79,654.9L240.71,640.8L241.63,626.7L242.55,609.77L243.47,599.9L244.39,577.33L245.32,614L246.24,588.61L247.16,580.15L248.08,601.31L249,526.56L249.92,564.64L250.84,628.11L251.76,657.72L252.69,646.44L253.61,642.21L254.53,663.36L255.45,664.78L256.37,674.65L257.29,656.31L258.21,645.03L259.14,629.52L260.06,667.6L260.98,654.9L261.9,659.13L262.82,661.95L263.74,623.87L264.66,663.36L265.58,654.9L266.51,670.42L267.43,650.67L268.35,667.6L269.27,640.8L270.19,659.13L271.11,664.78L272.03,653.49L272.95,639.39L273.88,673.24L274.8,671.83L275.72,647.85L276.64,632.34L277.56,623.87L278.48,630.93L279.4,667.6L280.32,666.19L281.25,647.85L282.17,621.05L283.09,615.41L284.01,488.48L284.93,458.86L285.85,487.07L286.77,472.96L287.69,457.45L288.62,472.96L289.54,460.27L290.46,513.86L291.38,614L292.3,616.82L293.22,650.67L294.14,660.54L295.07,676.06L295.99,649.26L296.91,622.46L297.83,537.84L298.75,580.15L299.67,587.2L300.59,563.23L301.51,580.15L302.44,551.95L303.36,580.15L304.28,577.33L305.2,566.05L306.12,608.36L307.04,660.54L307.96,663.36L308.88,656.31L309.81,646.44L310.73,667.6L311.65,652.08L312.57,666.19L313.49,659.13L314.41,623.87L315.33,625.28L316.25,656.31L317.18,654.9L318.1,630.93L319.02,667.6L319.94,678.88L320.86,647.85L321.78,654.9L322.7,659.13L323.63,674.65L324.55,657.72L325.47,664.78L326.39,645.03L327.31,656.31L328.23,660.54L329.15,664.78L330.07,650.67L331,640.8L331.92,652.08L332.84,677.47L333.76,646.44L334.68,635.16L335.6,630.93L336.52,629.52L337.44,564.64L338.37,602.72L339.29,468.73L340.21,440.53L341.13,458.86L342.05,464.5L342.97,475.78L343.89,463.09L344.81,474.37L345.74,512.45L346.66,594.26L347.58,616.82L348.5,632.34L349.42,654.9L350.34,669.01L351.26,657.72L352.18,616.82L353.11,597.08L354.03,604.13L354.95,578.74L355.87,577.33L356.79,557.59L357.71,566.05L358.63,574.51L359.56,580.15L360.48,573.1L361.4,618.23L362.32,643.62L363.24,632.34L364.16,649.26L365.08,650.67L366,660.54L366.93,645.03L367.85,663.36L368.77,652.08L369.69,656.31L370.61,664.78L371.53,650.67L372.45,628.11L373.37,652.08L374.3,656.31L375.22,652.08L376.14,660.54L377.06,673.24L377.98,664.78L378.9,677.47L379.82,632.34L380.74,674.65L381.67,646.44L382.59,645.03L383.51,649.26L384.43,656.31L385.35,640.8L386.27,656.31L387.19,664.78L388.11,650.67L389.04,657.72L389.96,652.08L390.88,643.62L391.8,480.02L392.72,487.07L393.64,640.8L394.56,502.58L395.49,484.25L396.41,491.3L397.33,482.84L398.25,477.2L399.17,480.02L400.09,492.71L401.01,509.63L401.93,623.87L402.86,595.67L403.78,645.03L404.7,643.62L405.62,650.67L406.54,649.26L407.46,611.18L408.38,561.82L409.3,578.74L410.23,578.74L411.15,582.97L412.07,573.1L412.99,570.28L413.91,601.31L414.83,605.54L415.75,599.9L416.67,623.87L417.6,663.36L418.52,657.72L419.44,670.42L420.36,659.13L421.28,690.16L422.2,660.54L423.12,653.49L424.05,643.62L424.97,660.54L425.89,635.16L426.81,647.85L427.73,653.49L428.65,606.95L429.57,622.46L430.49,657.72L431.42,661.95L432.34,654.9L433.26,660.54L434.18,659.13L435.1,663.36L436.02,654.9L436.94,678.88L437.86,664.78L438.79,663.36L439.71,636.57L440.63,656.31L441.55,666.19L442.47,659.13L443.39,661.95L444.31,663.36L445.23,671.83L446.16,639.39L447.08,652.08L448,626.7L448.92,636.57L449.84,509.63L450.76,491.3L451.68,478.61L452.6,478.61L453.53,487.07L454.45,474.37L455.37,472.96L456.29,489.89L457.21,612.59L458.13,626.7L459.05,635.16L459.98,656.31L460.9,661.95L461.82,647.85L462.74,637.98L463.66,591.44L464.58,595.67L465.5,591.44L466.42,601.31L467.35,609.77L468.27,605.54L469.19,625.28L470.11,632.34L471.03,618.23L471.95,622.46L472.87,661.95L473.79,650.67L474.72,671.83L475.64,674.65L476.56,657.72L477.48,660.54L478.4,667.6L479.32,676.06L480.24,642.21L481.16,673.24L482.09,666.19L483.01,653.49L483.93,663.36L484.85,676.06L485.77,657.72L486.69,646.44L487.61,667.6L488.54,660.54L489.46,667.6L490.38,671.83L491.3,676.06L492.22,667.6L493.14,660.54L494.06,652.08L494.98,656.31L495.91,670.42L496.83,669.01L497.75,688.75L498.67,660.54L499.59,647.85L500.51,663.36L501.43,661.95L502.35,637.98L503.28,619.64L504.2,609.77L505.12,475.78L506.04,487.07L506.96,491.3L507.88,485.66L508.8,341.8L509.72,471.55L510.65,481.43L511.57,529.38L512.49,637.98L513.41,396.8L514.33,647.85L515.25,643.62L516.17,643.62L517.09,647.85L518.02,619.64L518.94,598.49L519.86,591.44L520.78,590.03L521.7,606.95L522.62,590.03L523.54,601.31L524.47,595.67L525.39,590.03L526.31,599.9L527.23,616.82L528.15,666.19L529.07,643.62L529.99,660.54L530.91,678.88L531.84,661.95L532.76,657.72L533.68,654.9L534.6,656.31L535.52,664.78L536.44,660.54L537.36,666.19L538.28,664.78L539.21,680.29L540.13,673.24L541.05,677.47L541.97,666.19L542.89,645.03L543.81,649.26L544.73,661.95L545.65,664.78L546.58,660.54L547.5,650.67L548.42,669.01L549.34,670.42L550.26,660.54L551.18,657.72L552.1,671.83L553.02,664.78L553.95,640.8L554.87,663.36L555.79,659.13L556.71,670.42L557.63,626.7L558.55,636.57L559.47,630.93L560.4,495.53L561.32,468.73L562.24,488.48L563.16,499.76L564.08,494.12L565,491.3L565.92,482.84L566.84,496.94L567.77,592.85L568.69,605.54L569.61,642.21L570.53,659.13L571.45,671.83L572.37,656.31L573.29,626.7L574.21,601.31L575.14,591.44L576.06,598.49L576.98,616.82L577.9,604.13L578.82,615.41L579.74,581.56L580.66,598.49L581.58,604.13L582.51,611.18L583.43,656.31L584.35,653.49L585.27,646.44L586.19,653.49L587.11,656.31L588.03,661.95L588.96,680.29L589.88,656.31L590.8,666.19L591.72,670.42L592.64,646.44L593.56,647.85L594.48,667.6L595.4,677.47L596.33,673.24L597.25,678.88L598.17,674.65L599.09,669.01L600.01,697.21L600.93,669.01L601.85,642.21L602.77,652.08L603.7,652.08L604.62,666.19L605.54,664.78L606.46,652.08L607.38,659.13L608.3,654.9L609.22,660.54L610.14,676.06L611.07,661.95L611.99,666.19L612.91,657.72L613.83,633.75L614.75,649.26L615.67,495.53L616.59,492.71L617.51,484.25L618.44,481.43L619.36,485.66L620.28,477.2L621.2,494.12L622.12,505.4L623.04,595.67L623.96,592.85L624.89,649.26L625.81,636.57L626.73,635.16L627.65,646.44L628.57,618.23L629.49,570.28L630.41,601.31L631.33,601.31L632.26,592.85L633.18,595.67L634.1,601.31L635.02,594.26L635.94,609.77L636.86,606.95L637.78,612.59L638.7,666.19L639.63,392.57L640.55,564.64L641.47,654.9L642.39,200.76L643.31,654.9L644.23,654.9L645.15,645.03L646.07,671.83L647,676.06L647.92,659.13L648.84,633.75L649.76,618.23L650.68,652.08L651.6,645.03L652.52,646.44L653.45,666.19L654.37,660.54L655.29,677.47L656.21,677.47L657.13,677.47L658.05,697.21L658.97,694.39L659.89,680.29L660.82,657.72L661.74,695.8L662.66,673.24L663.58,663.36L664.5,667.6L665.42,670.42L666.34,685.93L667.26,673.24L668.19,659.13L669.11,601.31L670.03,619.64L670.95,480.02L671.87,470.14L672.79,496.94L673.71,484.25L674.63,498.35L675.56,503.99L676.48,482.84L677.4,499.76L678.32,618.23L679.24,609.77L680.16,654.9L681.08,671.83L682,654.9L682.93,650.67L683.85,604.13L684.77,591.44L685.69,609.77L686.61,590.03L687.53,615.41L688.45,614L689.38,606.95L690.3,599.9L691.22,599.9L692.14,591.44L693.06,611.18L693.98,666.19L694.9,649.26L695.82,649.26L696.75,633.75L697.67,654.9L698.59,653.49L699.51,656.31L700.43,676.06L701.35,663.36L702.27,656.31L703.19,649.26L704.12,670.42L705.04,678.88L705.96,683.11L706.88,654.9L707.8,674.65L708.72,664.78L709.64,677.47L710.56,681.7L711.49,660.54L712.41,667.6L713.33,656.31L714.25,657.72L715.17,667.6L716.09,654.9L717.01,667.6L717.93,659.13L718.86,656.31L719.78,656.31L720.7,649.26L721.62,652.08L722.54,660.54L723.46,670.42L724.38,645.03L725.31,636.57L726.23,492.71L727.15,508.22L728.07,498.35L728.99,494.12L729.91,502.58L730.83,519.51L731.75,482.84L732.68,537.84L733.6,622.46L734.52,608.36L735.44,636.57L736.36,642.21L737.28,646.44L738.2,652.08L739.12,625.28L740.05,585.79L740.97,604.13L741.89,591.44L742.81,605.54L743.73,594.26L744.65,601.31L745.57,608.36L746.49,614L747.42,597.08L748.34,623.87L749.26,664.78L750.18,652.08L751.1,659.13L752.02,637.98L752.94,646.44L753.87,666.19L754.79,656.31L755.71,669.01L756.63,669.01L757.55,674.65L758.47,474.37L759.39,637.98L760.31,656.31L761.24,657.72L762.16,656.31L763.08,666.19L764,643.62L764.92,642.21L765.84,642.21L766.76,635.16L767.68,652.08L768.61,656.31L769.53,647.85L770.45,656.31L771.37,636.57L772.29,653.49L773.21,643.62L774.13,350.26L775.05,656.31L775.98,650.67L776.9,635.16L777.82,664.78L778.74,652.08L779.66,619.64L780.58,649.26L781.5,488.48L782.42,481.43L783.35,499.76L784.27,485.66L785.19,482.84L786.11,487.07L787.03,457.45L787.95,458.86L788.87,546.3L789.8,618.23L790.72,645.03L791.64,630.93L792.56,643.62L793.48,646.44L794.4,623.87L795.32,598.49L796.24,570.28L797.17,578.74L798.09,591.44L799.01,587.2L799.93,573.1L800.85,588.61L801.77,574.51L802.69,571.69L803.61,594.26L804.54,599.9L805.46,632.34L806.38,652.08L807.3,657.72L808.22,673.24L809.14,677.47L810.06,667.6L810.98,639.39L811.91,635.16L812.83,646.44L813.75,666.19L814.67,660.54L815.59,642.21L816.51,676.06L817.43,669.01L818.36,669.01L819.28,676.06L820.2,670.42L821.12,666.19L822.04,657.72L822.96,657.72L823.88,652.08L824.8,637.98L825.73,656.31L826.65,667.6L827.57,647.85L828.49,659.13L829.41,674.65L830.33,639.39L831.25,659.13L832.17,681.7L833.1,669.01L834.02,645.03L834.94,654.9L835.86,401.03L836.78,523.74L837.7,484.25L838.62,485.66L839.54,480.02L840.47,481.43L841.39,482.84L842.31,480.02L843.23,529.38L844.15,602.72L845.07,582.97L845.99,635.16L846.91,652.08L847.84,673.24L848.76,681.7L849.68,645.03L850.6,595.67L851.52,190.89L852.44,580.15L853.36,571.69L854.29,568.87L855.21,587.2L856.13,570.28L857.05,582.97L857.97,602.72L858.89,626.7L859.81,649.26L860.73,654.9L861.66,645.03L862.58,664.78L863.5,671.83L864.42,674.65L865.34,653.49L866.26,667.6L867.18,670.42L868.1,666.19L869.03,667.6L869.95,643.62L870.87,601.31L871.79,639.39L872.71,654.9L873.63,657.72L874.55,659.13L875.47,690.16L876.4,674.65L877.32,678.88L878.24,673.24L879.16,645.03L880.08,667.6L881,660.54L881.92,678.88L882.85,671.83L883.77,664.78L884.69,684.52L885.61,678.88L886.53,673.24L887.45,653.49L888.37,664.78L889.29,652.08L890.22,650.67L891.14,633.75L892.06,515.28L892.98,487.07L893.9,484.25L894.82,491.3L895.74,489.89L896.66,512.45L897.59,487.07L898.51,530.79L899.43,632.34L900.35,622.46L901.27,646.44L902.19,660.54L903.11,661.95L904.03,669.01L904.96,629.52L905.88,605.54L906.8,599.9L907.72,626.7L908.64,601.31L909.56,587.2L910.48,571.69L911.4,591.44L912.33,578.74L913.25,595.67L914.17,601.31L915.09,677.47L916.01,657.72L916.93,646.44L917.85,645.03L918.78,649.26L919.7,646.44L920.62,652.08L921.54,653.49L922.46,645.03L923.38,650.67L924.3,630.93L925.22,636.57L926.15,649.26L927.07,647.85L927.99,645.03L928.91,647.85L929.83,656.31L930.75,664.78L931.67,670.42L932.59,660.54L933.52,666.19L934.44,663.36L935.36,661.95L936.28,670.42L937.2,657.72L938.12,657.72L939.04,657.72L939.96,666.19L940.89,666.19L941.81,660.54L942.73,642.21L943.65,640.8L944.57,657.72L945.49,609.77L946.41,597.08L947.33,501.17L948.26,481.43L949.18,492.71L950.1,515.28L951.02,496.94L951.94,511.04L952.86,495.53L953.78,530.79L954.71,619.64L955.63,260L956.55,577.33L957.47,652.08L958.39,652.08L959.31,656.31L960.23,621.05L961.15,578.74L962.08,578.74L963,594.26L963.92,584.38L964.84,595.67L965.76,577.33L966.68,605.54L967.6,591.44L968.52,584.38L969.45,637.98L970.37,650.67L971.29,663.36L972.21,654.9L973.13,663.36L974.05,660.54L974.97,633.75L975.89,642.21L976.82,646.44L977.74,645.03L978.66,653.49L979.58,661.95L980.5,663.36L981.42,650.67L982.34,97.804L983.27,636.57" style="fill:none;stroke:#5A9BD4;stroke-width:1.875;stroke-dasharray:2.5,2.5" />
<path d="M1055,694.3L1080,694.3" style="fill:none;stroke:#F15A60;stroke-width:1.875" />
<text x="1002.5" y="-687.85" transform="scale(1, -1)"
	style="font-family:Helvetica;font-weight:normal;font-style:normal;font-size:12pt">etcd v3</text>
<path d="M1055,680L1080,680" style="fill:none;stroke:#7AC36A;stroke-width:1.875;stroke-dasharray:7.5,2.5" />
<text x="793.19" y="-673.56" transform="scale(1, -1)"
	style="font-family:Helvetica;font-weight:normal;font-style:normal;font-size:12pt">Zookeeper v3.4.8 (snapCount 100000)</text>
<path d="M1055,665.71L1080,665.71" style="fill:none;stroke:#5A9BD4;stroke-width:1.875;stroke-dasharray:2.5,2.5" />
<text x="784.85" y="-659.26" transform="scale(1, -1)"
	style="font-family:Helvetica;font-weight:normal;font-style:normal;font-size:12pt">Zookeeper v3.4.8 (snapCount 1000000)</text>
</g>
</svg>
