<?xml version="1.0"?>
<!-- Generated by SVGo and Plotinum VG -->
<svg width="12in" height="8in"
	xmlns="http://www.w3.org/2000/svg"
	xmlns:xlink="http://www.w3.org/1999/xlink">
<g transform="scale(1, -1) translate(0, -720)">
<path d="M0,0L1080,0L1080,720L0,720Z" style="fill:#FFFFFF" />
<text x="267.38" y="-706.41" transform="scale(1, -1)"
	style="font-family:Helvetica;font-weight:normal;font-style:normal;font-size:12pt">Write 2M keys, 1000 clients (etcd 100 conns), key 32 bytes, value 500 bytes, CPU</text>
<text x="544.64" y="-4.965" transform="scale(1, -1)"
	style="font-family:Helvetica;font-weight:normal;font-style:normal;font-size:12pt">Second</text>
<text x="56.662" y="-19.142" transform="scale(1, -1)"
	style="font-family:Helvetica;font-weight:normal;font-style:normal;font-size:10pt">0</text>
<text x="357.62" y="-19.142" transform="scale(1, -1)"
	style="font-family:Helvetica;font-weight:normal;font-style:normal;font-size:10pt">80</text>
<text x="658.59" y="-19.142" transform="scale(1, -1)"
	style="font-family:Helvetica;font-weight:normal;font-style:normal;font-size:10pt">160</text>
<text x="963.02" y="-19.142" transform="scale(1, -1)"
	style="font-family:Helvetica;font-weight:normal;font-style:normal;font-size:10pt">240</text>
<path d="M60.137,30.467L60.137,40.467" style="fill:none;stroke:#000000;stroke-width:0.625" />
<path d="M364.57,30.467L364.57,40.467" style="fill:none;stroke:#000000;stroke-width:0.625" />
<path d="M669.01,30.467L669.01,40.467" style="fill:none;stroke:#000000;stroke-width:0.625" />
<path d="M973.45,30.467L973.45,40.467" style="fill:none;stroke:#000000;stroke-width:0.625" />
<path d="M212.36,35.468L212.36,40.467" style="fill:none;stroke:#000000;stroke-width:0.625" />
<path d="M516.79,35.468L516.79,40.467" style="fill:none;stroke:#000000;stroke-width:0.625" />
<path d="M821.23,35.468L821.23,40.467" style="fill:none;stroke:#000000;stroke-width:0.625" />
<path d="M60.137,40.467L1080,40.467" style="fill:none;stroke:#000000;stroke-width:0.625" />
<g transform="rotate(90)">
<text x="358.4" y="13.59" transform="scale(1, -1)"
	style="font-family:Helvetica;font-weight:normal;font-style:normal;font-size:12pt">CPU</text>
</g>
<text x="18.555" y="-204.45" transform="scale(1, -1)"
	style="font-family:Helvetica;font-weight:normal;font-style:normal;font-size:10pt">100</text>
<text x="18.555" y="-371.96" transform="scale(1, -1)"
	style="font-family:Helvetica;font-weight:normal;font-style:normal;font-size:10pt">200</text>
<text x="18.555" y="-539.47" transform="scale(1, -1)"
	style="font-family:Helvetica;font-weight:normal;font-style:normal;font-size:10pt">300</text>
<path d="M42.88,209.82L52.88,209.82" style="fill:none;stroke:#000000;stroke-width:0.625" />
<path d="M42.88,377.33L52.88,377.33" style="fill:none;stroke:#000000;stroke-width:0.625" />
<path d="M42.88,544.84L52.88,544.84" style="fill:none;stroke:#000000;stroke-width:0.625" />
<path d="M47.88,126.06L52.88,126.06" style="fill:none;stroke:#000000;stroke-width:0.625" />
<path d="M47.88,293.57L52.88,293.57" style="fill:none;stroke:#000000;stroke-width:0.625" />
<path d="M47.88,461.08L52.88,461.08" style="fill:none;stroke:#000000;stroke-width:0.625" />
<path d="M47.88,628.59L52.88,628.59" style="fill:none;stroke:#000000;stroke-width:0.625" />
<path d="M52.88,47.03L52.88,701.44" style="fill:none;stroke:#000000;stroke-width:0.625" />
<path d="M60.137,47.03L63.943,123.45L67.748,188.43L71.554,244.71L75.359,292.15L79.165,333.93L82.97,367.21L86.776,398.05L90.581,420.46L94.387,443.36L98.192,462.79L102,478.24L105.8,494.95L109.61,508.14L113.41,521.5L117.22,533.6L121.02,543.4L124.83,551.22L128.64,560.59L132.44,567.94L136.25,575.33L140.05,580.87L143.86,586.97L147.66,592.93L151.47,598.48L155.27,602.97L159.08,608.64L162.88,614.66L166.69,619.58L170.5,624.05L174.3,629.33L178.11,633.82L181.91,638.11L185.72,641.16L189.52,644.56L193.33,648.06L197.13,651.09L200.94,654.37L204.74,657.22L208.55,660.86L212.36,663.45L216.16,665.8L219.97,668.88L223.77,670.99L227.58,672.53L231.38,674.07L235.19,675.63L238.99,677.98L242.8,679.7L246.6,680.39L250.41,681.08L254.22,682.35L258.02,683.47L261.83,683.96L265.63,685.88L269.44,686.69L273.24,688.04L277.05,689.17L280.85,689.2L284.66,690.62L288.46,690.88L292.27,693L296.08,694.19L299.88,695.28L303.69,695.87L307.49,696.45L311.3,697.44L315.1,698.13L318.91,700.05L322.71,700.84L326.52,701.44L330.32,700.62L334.13,698.97L337.94,696.96L341.74,695.41L345.55,694.06L349.35,692.89L353.16,691.18L356.96,689.85L360.77,688.66L364.57,687.16L368.38,685.08L372.18,683.47L375.99,682.43L379.8,681.66L383.6,680.84L387.41,679.99L391.21,678.13L395.02,676.54L398.82,675.35" style="fill:none;stroke:#F15A60;stroke-width:1.875" />
<path d="M60.137,56.863L63.943,141.27L67.748,195.03L71.554,218.98L75.359,256.72L79.165,294.14L82.97,331.65L86.776,362.24L90.581,391L94.387,414.47L98.192,436.39L102,450.46L105.8,471.9L109.61,481.32L113.41,491.7L117.22,501.97L121.02,507.02L124.83,504.97L128.64,515.01L132.44,523.01L136.25,535.04L140.05,539.53L143.86,541.42L147.66,546.85L151.47,551L155.27,557.64L159.08,558.42L162.88,560.85L166.69,563.2L170.5,562.21L174.3,558.39L178.11,550.05L181.91,539.5L185.72,528.42L189.52,518.1L193.33,507.05L197.13,496.51L200.94,486.34L204.74,476.66L208.55,467.52L212.36,458.42L216.16,448.35L219.97,441.5L223.77,434.45L227.58,427.4L231.38,420.93L235.19,414.23L238.99,407.41L242.8,401.16L246.6,395.07L250.41,388.8L254.22,384.43L258.02,379.77L261.83,375.08L265.63,370.56L269.44,365.85L273.24,361.01L277.05,356.05L280.85,352.72L284.66,349.66L288.46,346.22L292.27,344.09L296.08,343.12L299.88,344.23L303.69,341.03L307.49,337.54L311.3,335.25L315.1,335.48L318.91,334.8L322.71,332.12L326.52,329.22L330.32,326.22L334.13,323.34L337.94,320.71L341.74,317.91L345.55,315.52L349.35,314.98L353.16,316.87L356.96,325.48L360.77,327.44L364.57,331.23L368.38,335.33L372.18,338.2L375.99,340.53L379.8,343.42L383.6,347.08L387.41,350.29L391.21,353.09L395.02,356.24L398.82,359.14L402.63,361.73L406.43,363.11L410.24,363.26L414.05,362.02L417.85,360.02L421.66,357.93L425.46,355.6L429.27,353.56L433.07,351.78L436.88,349.4L440.68,346.81L444.49,344.28L448.29,341.68L452.1,339.15L455.91,336.62L459.71,334.01L463.52,331.82L467.32,330.06L471.13,327.63L474.93,324.98L478.74,322.35L482.54,319.59L486.35,317.34L490.15,315.18L493.96,312.99L497.77,311.06L501.57,309.94L505.38,308.6L509.18,306.54L512.99,304.41L516.79,302.33L520.6,300.39L524.4,298.46L528.21,296.79L532.01,295.21L535.82,293.64L539.63,291.78L543.43,290L547.24,288.46L551.04,286.94L554.85,285.45L558.65,284.68L562.46,284.46L566.26,285.05L570.07,283.86L573.87,282.72L577.68,281.08L581.49,280.66L585.29,279.74L589.1,280.77L592.9,279.82L596.71,279.5L600.51,278.68L604.32,277.41L608.12,275.98L611.93,274.74L615.73,273.71L619.54,273L623.35,271.61L627.15,270.41L630.96,269.45L634.76,268.28L638.57,266.85L642.37,265.41L646.18,264.09L649.98,262.78L653.79,261.49L657.59,260.44L661.4,259.5L665.21,258.68L669.01,257.86L672.82,257.06L676.62,256.02L680.43,254.81L684.23,253.6L688.04,252.6L691.84,251.58L695.65,250.42L699.45,249.27L703.26,248.14L707.07,247.16L710.87,246.57L714.68,246.8L718.48,246.38L722.29,245.76L726.09,245.2L729.9,245.83L733.7,249L737.51,250.34L741.31,252L745.12,253.76L748.93,255.68L752.73,257.62L756.54,259.53L760.34,261.16L764.15,262.25L767.95,263.37L771.76,264.46L775.56,266.05L779.37,268.5L783.17,270.81L786.98,270.98L790.79,270.49L794.59,269.94L798.4,269.23L802.2,268.21L806.01,267.27L809.81,266.23L813.62,265.43L817.42,264.41L821.23,263.62L825.03,263L828.84,262.05L832.65,261.09L836.45,260.3L840.26,259.47L844.06,258.63L847.87,257.93L851.67,256.94L855.48,256.13L859.28,255.35L863.09,254.46L866.89,253.47L870.7,252.52L874.51,251.61L878.31,250.71L882.12,249.82L885.92,248.91L889.73,248.08L893.53,247.44L897.34,246.72L901.14,245.85L904.95,245.15L908.75,244.54L912.56,243.89L916.37,244.54L920.17,245.68L923.98,245.88L927.78,245.09L931.59,244.49L935.39,243.91L939.2,243.19L943,242.48L946.81,241.74L950.61,240.99L954.42,240.22L958.23,239.45L962.03,238.7L965.84,237.91L969.64,237.1L973.45,236.33L977.25,235.6L981.06,234.84L984.86,234.11L988.67,233.42L992.47,232.68L996.28,231.93L1000.1,231.23L1003.9,230.5L1007.7,229.88L1011.5,229.37L1015.3,228.68L1019.1,227.98L1022.9,227.31L1026.7,226.6L1030.5,226.12L1034.3,225.65L1038.1,225.23L1041.9,224.61L1045.8,223.96L1049.6,223.49L1053.4,222.92L1057.2,222.3L1061,222.18L1064.8,222.6L1068.6,223.3L1072.4,224.11L1076.2,224.96L1080,225.83" style="fill:none;stroke:#7AC36A;stroke-width:1.875;stroke-dasharray:7.5,2.5" />
<path d="M60.137,56.595L63.943,136.25L67.748,198.26L71.554,223.03L75.359,257.24L79.165,280.72L82.97,305.47L86.776,324.61L90.581,337.58L94.387,357.88L98.192,367.58L102,380.13L105.8,388.08L109.61,401.78L113.41,413.68L117.22,420.29L121.02,427.98L124.83,433.61L128.64,437.93L132.44,438.29L136.25,443.46L140.05,447.92L143.86,456.07L147.66,464.58L151.47,467.48L155.27,469.88L159.08,472.79L162.88,475.42L166.69,480L170.5,481.74L174.3,481.24L178.11,483.35L181.91,492.14L185.72,494.4L189.52,497.18L193.33,500.9L197.13,504.75L200.94,507.89L204.74,510.67L208.55,512.11L212.36,514.84L216.16,515.22L219.97,517.85L223.77,519.03L227.58,520.62L231.38,521.37L235.19,522.51L238.99,521.99L242.8,520.6L246.6,521.64L250.41,521.86L254.22,523.05L258.02,524.18L261.83,526.3L265.63,533.13L269.44,538.61L273.24,536.56L277.05,537.75L280.85,538.19L284.66,538.98L288.46,540.85L292.27,541.87L296.08,543.97L299.88,544.77L303.69,546.28L307.49,547.49L311.3,548.31L315.1,545.99L318.91,547.52L322.71,549.04" style="fill:none;stroke:#5A9BD4;stroke-width:1.875;stroke-dasharray:2.5,2.5" />
<path d="M1055,694.3L1080,694.3" style="fill:none;stroke:#F15A60;stroke-width:1.875" />
<text x="1002.5" y="-687.85" transform="scale(1, -1)"
	style="font-family:Helvetica;font-weight:normal;font-style:normal;font-size:12pt">etcd v3</text>
<path d="M1055,680L1080,680" style="fill:none;stroke:#7AC36A;stroke-width:1.875;stroke-dasharray:7.5,2.5" />
<text x="793.19" y="-673.56" transform="scale(1, -1)"
	style="font-family:Helvetica;font-weight:normal;font-style:normal;font-size:12pt">Zookeeper v3.4.8 (snapCount 100000)</text>
<path d="M1055,665.71L1080,665.71" style="fill:none;stroke:#5A9BD4;stroke-width:1.875;stroke-dasharray:2.5,2.5" />
<text x="784.85" y="-659.26" transform="scale(1, -1)"
	style="font-family:Helvetica;font-weight:normal;font-style:normal;font-size:12pt">Zookeeper v3.4.8 (snapCount 1000000)</text>
</g>
</svg>
