<?xml version="1.0"?>
<!-- Generated by SVGo and Plotinum VG -->
<svg width="12in" height="8in"
	xmlns="http://www.w3.org/2000/svg"
	xmlns:xlink="http://www.w3.org/1999/xlink">
<g transform="scale(1, -1) translate(0, -720)">
<path d="M0,0L1080,0L1080,720L0,720Z" style="fill:#FFFFFF" />
<text x="273.66" y="-706.41" transform="scale(1, -1)"
	style="font-family:Helvetica;font-weight:normal;font-style:normal;font-size:12pt">Write 200K keys, 1000-client, 8-byte key, 256-byte value (etcd v2), Memory(MB)</text>
<text x="542.9" y="-4.965" transform="scale(1, -1)"
	style="font-family:Helvetica;font-weight:normal;font-style:normal;font-size:12pt">Second</text>
<text x="56.662" y="-19.142" transform="scale(1, -1)"
	style="font-family:Helvetica;font-weight:normal;font-style:normal;font-size:10pt">0</text>
<text x="310.76" y="-19.142" transform="scale(1, -1)"
	style="font-family:Helvetica;font-weight:normal;font-style:normal;font-size:10pt">2</text>
<text x="564.86" y="-19.142" transform="scale(1, -1)"
	style="font-family:Helvetica;font-weight:normal;font-style:normal;font-size:10pt">4</text>
<text x="818.95" y="-19.142" transform="scale(1, -1)"
	style="font-family:Helvetica;font-weight:normal;font-style:normal;font-size:10pt">6</text>
<text x="1073" y="-19.142" transform="scale(1, -1)"
	style="font-family:Helvetica;font-weight:normal;font-style:normal;font-size:10pt">8</text>
<path d="M60.137,30.467L60.137,40.467" style="fill:none;stroke:#000000;stroke-width:0.625" />
<path d="M314.23,30.467L314.23,40.467" style="fill:none;stroke:#000000;stroke-width:0.625" />
<path d="M568.33,30.467L568.33,40.467" style="fill:none;stroke:#000000;stroke-width:0.625" />
<path d="M822.43,30.467L822.43,40.467" style="fill:none;stroke:#000000;stroke-width:0.625" />
<path d="M1076.5,30.467L1076.5,40.467" style="fill:none;stroke:#000000;stroke-width:0.625" />
<path d="M187.19,35.468L187.19,40.467" style="fill:none;stroke:#000000;stroke-width:0.625" />
<path d="M441.28,35.468L441.28,40.467" style="fill:none;stroke:#000000;stroke-width:0.625" />
<path d="M695.38,35.468L695.38,40.467" style="fill:none;stroke:#000000;stroke-width:0.625" />
<path d="M949.48,35.468L949.48,40.467" style="fill:none;stroke:#000000;stroke-width:0.625" />
<path d="M60.137,40.467L1076.5,40.467" style="fill:none;stroke:#000000;stroke-width:0.625" />
<g transform="rotate(90)">
<text x="330.82" y="13.59" transform="scale(1, -1)"
	style="font-family:Helvetica;font-weight:normal;font-style:normal;font-size:12pt">Memory(MB)</text>
</g>
<text x="18.555" y="-191.18" transform="scale(1, -1)"
	style="font-family:Helvetica;font-weight:normal;font-style:normal;font-size:10pt">200</text>
<text x="18.555" y="-357.49" transform="scale(1, -1)"
	style="font-family:Helvetica;font-weight:normal;font-style:normal;font-size:10pt">400</text>
<text x="18.555" y="-523.81" transform="scale(1, -1)"
	style="font-family:Helvetica;font-weight:normal;font-style:normal;font-size:10pt">600</text>
<text x="18.555" y="-690.12" transform="scale(1, -1)"
	style="font-family:Helvetica;font-weight:normal;font-style:normal;font-size:10pt">800</text>
<path d="M42.88,196.55L52.88,196.55" style="fill:none;stroke:#000000;stroke-width:0.625" />
<path d="M42.88,362.86L52.88,362.86" style="fill:none;stroke:#000000;stroke-width:0.625" />
<path d="M42.88,529.17L52.88,529.17" style="fill:none;stroke:#000000;stroke-width:0.625" />
<path d="M42.88,695.49L52.88,695.49" style="fill:none;stroke:#000000;stroke-width:0.625" />
<path d="M47.88,113.39L52.88,113.39" style="fill:none;stroke:#000000;stroke-width:0.625" />
<path d="M47.88,279.7L52.88,279.7" style="fill:none;stroke:#000000;stroke-width:0.625" />
<path d="M47.88,446.02L52.88,446.02" style="fill:none;stroke:#000000;stroke-width:0.625" />
<path d="M47.88,612.33L52.88,612.33" style="fill:none;stroke:#000000;stroke-width:0.625" />
<path d="M52.88,47.03L52.88,701.27" style="fill:none;stroke:#000000;stroke-width:0.625" />
<path d="M60.137,47.03L187.19,132.71L314.23,209.41L441.28,299.8L568.33,365.85L695.38,422.75L822.43,540.48L949.48,668.46L1076.5,701.27" style="fill:none;stroke:#F15A60;stroke-width:1.875" />
<path d="M1055,694.3L1080,694.3" style="fill:none;stroke:#F15A60;stroke-width:1.875" />
<text x="1002.5" y="-687.85" transform="scale(1, -1)"
	style="font-family:Helvetica;font-weight:normal;font-style:normal;font-size:12pt">etcd v2</text>
</g>
</svg>
