<?xml version="1.0"?>
<!-- Generated by SVGo and Plotinum VG -->
<svg width="12in" height="8in"
	xmlns="http://www.w3.org/2000/svg"
	xmlns:xlink="http://www.w3.org/1999/xlink">
<g transform="scale(1, -1) translate(0, -720)">
<path d="M0,0L1080,0L1080,720L0,720Z" style="fill:#FFFFFF" />
<text x="301.16" y="-706.41" transform="scale(1, -1)"
	style="font-family:Helvetica;font-weight:normal;font-style:normal;font-size:12pt">Write 200K keys, 1000-client, 8-byte key, 256-byte value (etcd v2), CPU</text>
<text x="542.9" y="-4.965" transform="scale(1, -1)"
	style="font-family:Helvetica;font-weight:normal;font-style:normal;font-size:12pt">Second</text>
<text x="56.662" y="-19.142" transform="scale(1, -1)"
	style="font-family:Helvetica;font-weight:normal;font-style:normal;font-size:10pt">0</text>
<text x="310.76" y="-19.142" transform="scale(1, -1)"
	style="font-family:Helvetica;font-weight:normal;font-style:normal;font-size:10pt">2</text>
<text x="564.86" y="-19.142" transform="scale(1, -1)"
	style="font-family:Helvetica;font-weight:normal;font-style:normal;font-size:10pt">4</text>
<text x="818.95" y="-19.142" transform="scale(1, -1)"
	style="font-family:Helvetica;font-weight:normal;font-style:normal;font-size:10pt">6</text>
<text x="1073" y="-19.142" transform="scale(1, -1)"
	style="font-family:Helvetica;font-weight:normal;font-style:normal;font-size:10pt">8</text>
<path d="M60.137,30.467L60.137,40.467" style="fill:none;stroke:#000000;stroke-width:0.625" />
<path d="M314.23,30.467L314.23,40.467" style="fill:none;stroke:#000000;stroke-width:0.625" />
<path d="M568.33,30.467L568.33,40.467" style="fill:none;stroke:#000000;stroke-width:0.625" />
<path d="M822.43,30.467L822.43,40.467" style="fill:none;stroke:#000000;stroke-width:0.625" />
<path d="M1076.5,30.467L1076.5,40.467" style="fill:none;stroke:#000000;stroke-width:0.625" />
<path d="M187.19,35.468L187.19,40.467" style="fill:none;stroke:#000000;stroke-width:0.625" />
<path d="M441.28,35.468L441.28,40.467" style="fill:none;stroke:#000000;stroke-width:0.625" />
<path d="M695.38,35.468L695.38,40.467" style="fill:none;stroke:#000000;stroke-width:0.625" />
<path d="M949.48,35.468L949.48,40.467" style="fill:none;stroke:#000000;stroke-width:0.625" />
<path d="M60.137,40.467L1076.5,40.467" style="fill:none;stroke:#000000;stroke-width:0.625" />
<g transform="rotate(90)">
<text x="358.4" y="13.59" transform="scale(1, -1)"
	style="font-family:Helvetica;font-weight:normal;font-style:normal;font-size:12pt">CPU</text>
</g>
<text x="25.505" y="-242.19" transform="scale(1, -1)"
	style="font-family:Helvetica;font-weight:normal;font-style:normal;font-size:10pt">80</text>
<text x="18.555" y="-449.82" transform="scale(1, -1)"
	style="font-family:Helvetica;font-weight:normal;font-style:normal;font-size:10pt">160</text>
<text x="18.555" y="-657.46" transform="scale(1, -1)"
	style="font-family:Helvetica;font-weight:normal;font-style:normal;font-size:10pt">240</text>
<path d="M42.88,247.55L52.88,247.55" style="fill:none;stroke:#000000;stroke-width:0.625" />
<path d="M42.88,455.19L52.88,455.19" style="fill:none;stroke:#000000;stroke-width:0.625" />
<path d="M42.88,662.82L52.88,662.82" style="fill:none;stroke:#000000;stroke-width:0.625" />
<path d="M47.88,143.74L52.88,143.74" style="fill:none;stroke:#000000;stroke-width:0.625" />
<path d="M47.88,351.37L52.88,351.37" style="fill:none;stroke:#000000;stroke-width:0.625" />
<path d="M47.88,559.01L52.88,559.01" style="fill:none;stroke:#000000;stroke-width:0.625" />
<path d="M52.88,47.03L52.88,701.44" style="fill:none;stroke:#000000;stroke-width:0.625" />
<path d="M60.137,47.03L187.19,168.91L314.23,278.28L441.28,372.71L568.33,456.12L695.38,533.88L822.43,598.82L949.48,652.42L1076.5,701.44" style="fill:none;stroke:#F15A60;stroke-width:1.875" />
<path d="M1055,694.3L1080,694.3" style="fill:none;stroke:#F15A60;stroke-width:1.875" />
<text x="1002.5" y="-687.85" transform="scale(1, -1)"
	style="font-family:Helvetica;font-weight:normal;font-style:normal;font-size:12pt">etcd v2</text>
</g>
</svg>
