<?xml version="1.0"?>
<!-- Generated by SVGo and Plotinum VG -->
<svg width="12in" height="8in"
	xmlns="http://www.w3.org/2000/svg"
	xmlns:xlink="http://www.w3.org/1999/xlink">
<g transform="scale(1, -1) translate(0, -720)">
<path d="M0,0L1080,0L1080,720L0,720Z" style="fill:#FFFFFF" />
<text x="278.63" y="-706.41" transform="scale(1, -1)"
	style="font-family:Helvetica;font-weight:normal;font-style:normal;font-size:12pt">Write 200K keys, 1000-client, 8-byte key, 256-byte value (etcd v2), Throughput</text>
<text x="555.24" y="-4.965" transform="scale(1, -1)"
	style="font-family:Helvetica;font-weight:normal;font-style:normal;font-size:12pt">Second</text>
<text x="81.337" y="-19.142" transform="scale(1, -1)"
	style="font-family:Helvetica;font-weight:normal;font-style:normal;font-size:10pt">0</text>
<text x="411.91" y="-19.142" transform="scale(1, -1)"
	style="font-family:Helvetica;font-weight:normal;font-style:normal;font-size:10pt">3</text>
<text x="742.48" y="-19.142" transform="scale(1, -1)"
	style="font-family:Helvetica;font-weight:normal;font-style:normal;font-size:10pt">6</text>
<text x="1073" y="-19.142" transform="scale(1, -1)"
	style="font-family:Helvetica;font-weight:normal;font-style:normal;font-size:10pt">9</text>
<path d="M84.812,30.467L84.812,40.467" style="fill:none;stroke:#000000;stroke-width:0.625" />
<path d="M415.38,30.467L415.38,40.467" style="fill:none;stroke:#000000;stroke-width:0.625" />
<path d="M745.95,30.467L745.95,40.467" style="fill:none;stroke:#000000;stroke-width:0.625" />
<path d="M1076.5,30.467L1076.5,40.467" style="fill:none;stroke:#000000;stroke-width:0.625" />
<path d="M195,35.468L195,40.467" style="fill:none;stroke:#000000;stroke-width:0.625" />
<path d="M305.19,35.468L305.19,40.467" style="fill:none;stroke:#000000;stroke-width:0.625" />
<path d="M525.57,35.468L525.57,40.467" style="fill:none;stroke:#000000;stroke-width:0.625" />
<path d="M635.76,35.468L635.76,40.467" style="fill:none;stroke:#000000;stroke-width:0.625" />
<path d="M856.14,35.468L856.14,40.467" style="fill:none;stroke:#000000;stroke-width:0.625" />
<path d="M966.33,35.468L966.33,40.467" style="fill:none;stroke:#000000;stroke-width:0.625" />
<path d="M84.812,40.467L1076.5,40.467" style="fill:none;stroke:#000000;stroke-width:0.625" />
<g transform="rotate(90)">
<text x="335.88" y="13.59" transform="scale(1, -1)"
	style="font-family:Helvetica;font-weight:normal;font-style:normal;font-size:12pt">Throughput</text>
</g>
<text x="18.555" y="-102.88" transform="scale(1, -1)"
	style="font-family:Helvetica;font-weight:normal;font-style:normal;font-size:10pt">1.5e+04</text>
<text x="28.98" y="-320.42" transform="scale(1, -1)"
	style="font-family:Helvetica;font-weight:normal;font-style:normal;font-size:10pt">2e+04</text>
<text x="18.555" y="-537.97" transform="scale(1, -1)"
	style="font-family:Helvetica;font-weight:normal;font-style:normal;font-size:10pt">2.5e+04</text>
<path d="M67.555,108.25L77.555,108.25" style="fill:none;stroke:#000000;stroke-width:0.625" />
<path d="M67.555,325.79L77.555,325.79" style="fill:none;stroke:#000000;stroke-width:0.625" />
<path d="M67.555,543.33L77.555,543.33" style="fill:none;stroke:#000000;stroke-width:0.625" />
<path d="M72.555,64.738L77.555,64.738" style="fill:none;stroke:#000000;stroke-width:0.625" />
<path d="M72.555,151.76L77.555,151.76" style="fill:none;stroke:#000000;stroke-width:0.625" />
<path d="M72.555,195.26L77.555,195.26" style="fill:none;stroke:#000000;stroke-width:0.625" />
<path d="M72.555,238.77L77.555,238.77" style="fill:none;stroke:#000000;stroke-width:0.625" />
<path d="M72.555,282.28L77.555,282.28" style="fill:none;stroke:#000000;stroke-width:0.625" />
<path d="M72.555,369.3L77.555,369.3" style="fill:none;stroke:#000000;stroke-width:0.625" />
<path d="M72.555,412.81L77.555,412.81" style="fill:none;stroke:#000000;stroke-width:0.625" />
<path d="M72.555,456.32L77.555,456.32" style="fill:none;stroke:#000000;stroke-width:0.625" />
<path d="M72.555,499.83L77.555,499.83" style="fill:none;stroke:#000000;stroke-width:0.625" />
<path d="M72.555,586.84L77.555,586.84" style="fill:none;stroke:#000000;stroke-width:0.625" />
<path d="M72.555,630.35L77.555,630.35" style="fill:none;stroke:#000000;stroke-width:0.625" />
<path d="M72.555,673.86L77.555,673.86" style="fill:none;stroke:#000000;stroke-width:0.625" />
<path d="M77.555,47.03L77.555,701.44" style="fill:none;stroke:#000000;stroke-width:0.625" />
<path d="M84.812,409.2L195,701.44L305.19,432.39L415.38,493.78L525.57,262.92L635.76,236.03L745.95,179.34L856.14,124.82L966.33,83.186L1076.5,47.03" style="fill:none;stroke:#F15A60;stroke-width:1.875" />
<path d="M1055,694.3L1080,694.3" style="fill:none;stroke:#F15A60;stroke-width:1.875" />
<text x="1002.5" y="-687.85" transform="scale(1, -1)"
	style="font-family:Helvetica;font-weight:normal;font-style:normal;font-size:12pt">etcd v2</text>
</g>
</svg>
