<?xml version="1.0"?>
<!-- Generated by SVGo and Plotinum VG -->
<svg width="12in" height="8in"
	xmlns="http://www.w3.org/2000/svg"
	xmlns:xlink="http://www.w3.org/1999/xlink">
<g transform="scale(1, -1) translate(0, -720)">
<path d="M0,0L1080,0L1080,720L0,720Z" style="fill:#FFFFFF" />
<text x="261.15" y="-706.41" transform="scale(1, -1)"
	style="font-family:Helvetica;font-weight:normal;font-style:normal;font-size:12pt">Write 500K keys, 1-client, 8-byte key, 256-byte value (etcd v2), Latency(millisecond)</text>
<text x="537.69" y="-4.965" transform="scale(1, -1)"
	style="font-family:Helvetica;font-weight:normal;font-style:normal;font-size:12pt">Second</text>
<text x="42.762" y="-19.142" transform="scale(1, -1)"
	style="font-family:Helvetica;font-weight:normal;font-style:normal;font-size:10pt">0</text>
<text x="353.24" y="-19.142" transform="scale(1, -1)"
	style="font-family:Helvetica;font-weight:normal;font-style:normal;font-size:10pt">300</text>
<text x="670.67" y="-19.142" transform="scale(1, -1)"
	style="font-family:Helvetica;font-weight:normal;font-style:normal;font-size:10pt">600</text>
<text x="988.1" y="-19.142" transform="scale(1, -1)"
	style="font-family:Helvetica;font-weight:normal;font-style:normal;font-size:10pt">900</text>
<path d="M46.237,30.467L46.237,40.467" style="fill:none;stroke:#000000;stroke-width:0.625" />
<path d="M363.67,30.467L363.67,40.467" style="fill:none;stroke:#000000;stroke-width:0.625" />
<path d="M681.1,30.467L681.1,40.467" style="fill:none;stroke:#000000;stroke-width:0.625" />
<path d="M998.53,30.467L998.53,40.467" style="fill:none;stroke:#000000;stroke-width:0.625" />
<path d="M152.05,35.468L152.05,40.467" style="fill:none;stroke:#000000;stroke-width:0.625" />
<path d="M257.86,35.468L257.86,40.467" style="fill:none;stroke:#000000;stroke-width:0.625" />
<path d="M469.48,35.468L469.48,40.467" style="fill:none;stroke:#000000;stroke-width:0.625" />
<path d="M575.29,35.468L575.29,40.467" style="fill:none;stroke:#000000;stroke-width:0.625" />
<path d="M786.91,35.468L786.91,40.467" style="fill:none;stroke:#000000;stroke-width:0.625" />
<path d="M892.72,35.468L892.72,40.467" style="fill:none;stroke:#000000;stroke-width:0.625" />
<path d="M46.237,40.467L1080,40.467" style="fill:none;stroke:#000000;stroke-width:0.625" />
<g transform="rotate(90)">
<text x="305.89" y="13.59" transform="scale(1, -1)"
	style="font-family:Helvetica;font-weight:normal;font-style:normal;font-size:12pt">Latency(millisecond)</text>
</g>
<text x="18.555" y="-94.284" transform="scale(1, -1)"
	style="font-family:Helvetica;font-weight:normal;font-style:normal;font-size:10pt">2</text>
<text x="18.555" y="-271.29" transform="scale(1, -1)"
	style="font-family:Helvetica;font-weight:normal;font-style:normal;font-size:10pt">3</text>
<text x="18.555" y="-448.3" transform="scale(1, -1)"
	style="font-family:Helvetica;font-weight:normal;font-style:normal;font-size:10pt">4</text>
<text x="18.555" y="-625.31" transform="scale(1, -1)"
	style="font-family:Helvetica;font-weight:normal;font-style:normal;font-size:10pt">5</text>
<path d="M28.98,99.653L38.98,99.653" style="fill:none;stroke:#000000;stroke-width:0.625" />
<path d="M28.98,276.66L38.98,276.66" style="fill:none;stroke:#000000;stroke-width:0.625" />
<path d="M28.98,453.67L38.98,453.67" style="fill:none;stroke:#000000;stroke-width:0.625" />
<path d="M28.98,630.68L38.98,630.68" style="fill:none;stroke:#000000;stroke-width:0.625" />
<path d="M33.98,188.16L38.98,188.16" style="fill:none;stroke:#000000;stroke-width:0.625" />
<path d="M33.98,365.16L38.98,365.16" style="fill:none;stroke:#000000;stroke-width:0.625" />
<path d="M33.98,542.17L38.98,542.17" style="fill:none;stroke:#000000;stroke-width:0.625" />
<path d="M38.98,47.03L38.98,701.44" style="fill:none;stroke:#000000;stroke-width:0.625" />
<path d="M46.237,82.448L47.296,80.146L48.354,63.846L49.412,66.275L50.47,68.343L51.528,65.54L52.586,68.76L53.644,70.574L54.702,68.863L55.76,70.278L56.818,65.094L57.877,61.922L58.935,50.484L59.993,60.328L61.051,67.914L62.109,59.908L63.167,55.874L64.225,62.061L65.283,64.405L66.341,64.679L67.399,61.144L68.458,71.343L69.516,96.712L70.574,90.248L71.632,99.74L72.69,98.047L73.748,90.973L74.806,96.347L75.864,97.991L76.922,94.012L77.98,96.106L79.039,87.506L80.097,53.769L81.155,64.085L82.213,65.179L83.271,68.24L84.329,61.311L85.387,80.469L86.445,54.075L87.503,60.516L88.561,61.23L89.62,62.688L90.678,61.136L91.736,67.196L92.794,59.432L93.852,73.151L94.91,77.582L95.968,74.766L97.026,88.193L98.084,79.889L99.142,89.856L100.2,89.574L101.26,166.89L102.32,158.8L103.37,163.23L104.43,88.399L105.49,85.774L106.55,78.135L107.61,75.849L108.67,74.661L109.72,85.52L110.78,101.65L111.84,73.363L112.9,69.154L113.96,77.184L115.01,74.62L116.07,75.152L117.13,90.31L118.19,78.546L119.25,74.106L120.3,76.53L121.36,69.649L122.42,66.242L123.48,66.684L124.54,65.837L125.59,83.837L126.65,80.581L127.71,71.133L128.77,68.616L129.83,78.02L130.89,76.142L131.94,88.272L133,120.58L134.06,127.82L135.12,122.83L136.18,117.5L137.23,113.92L138.29,120.51L139.35,107.76L140.41,107.93L141.47,106.93L142.52,105.42L143.58,67.736L144.64,64.275L145.7,60.825L146.76,112.58L147.81,79.118L148.87,80.431L149.93,74.574L150.99,74.085L152.05,67.72L153.11,71.711L154.16,72.909L155.22,76.219L156.28,75.531L157.34,75.615L158.4,72.364L159.45,82.652L160.51,70.737L161.57,87.632L162.63,85.851L163.69,77.556L164.74,138.99L165.8,137.44L166.86,179.99L167.92,88.136L168.98,72.981L170.04,75.552L171.09,76.414L172.15,80.983L173.21,86.451L174.27,88.812L175.33,72.75L176.38,66.241L177.44,66.984L178.5,68.139L179.56,77.095L180.62,66.089L181.67,77.486L182.73,64.964L183.79,65.531L184.85,64.882L185.91,64.308L186.96,111.75L188.02,65.572L189.08,59.299L190.14,59.181L191.2,59.387L192.26,66.281L193.31,64.01L194.37,68.154L195.43,77.06L196.49,99.147L197.55,96.224L198.6,90.229L199.66,108.53L200.72,105.97L201.78,125.8L202.84,137.3L203.89,108.69L204.95,104.89L206.01,87.417L207.07,121.86L208.13,68.669L209.18,54.223L210.24,58.367L211.3,56.524L212.36,60.533L213.42,72.181L214.48,59.533L215.53,52.229L216.59,54.808L217.65,56.519L218.71,58.398L219.77,58.989L220.82,81.398L221.88,74.332L222.94,74.235L224,115.61L225.06,79.611L226.11,115.03L227.17,97.49L228.23,167.69L229.29,158L230.35,160.24L231.4,101.17L232.46,87.988L233.52,85.682L234.58,86.249L235.64,87.353L236.7,83.948L237.75,94.175L238.81,67.329L239.87,63.133L240.93,66.857L241.99,68.6L243.04,65.262L244.1,64.297L245.16,96.987L246.22,69.604L247.28,113.1L248.33,87.681L249.39,67.846L250.45,71.243L251.51,73.081L252.57,62.68L253.62,55.981L254.68,65.2L255.74,57.392L256.8,59.737L257.86,56.469L258.92,69.082L259.97,93.848L261.03,132.57L262.09,111.56L263.15,105.97L264.21,114.28L265.26,105.35L266.32,113.15L267.38,169.61L268.44,162.55L269.5,100.56L270.55,72.815L271.61,71.63L272.67,74.306L273.73,73.154L274.79,75.894L275.84,74.465L276.9,69.237L277.96,74.116L279.02,74.702L280.08,73.885L281.14,79.028L282.19,97.497L283.25,57.038L284.31,66.408L285.37,70.283L286.43,75.515L287.48,139.22L288.54,115.15L289.6,86.759L290.66,88.243L291.72,151.28L292.77,148.48L293.83,162.98L294.89,94.278L295.95,74.246L297.01,70.302L298.07,72.17L299.12,77.243L300.18,78.799L301.24,96.544L302.3,69.322L303.36,95.435L304.41,64.899L305.47,67.252L306.53,63.602L307.59,68.09L308.65,163.44L309.7,99.361L310.76,64.093L311.82,56.936L312.88,58.786L313.94,61.663L314.99,70.574L316.05,63.656L317.11,64.911L318.17,59.359L319.23,60.788L320.29,66.021L321.34,64.547L322.4,81.375L323.46,92.502L324.52,141.61L325.58,112.24L326.63,115.79L327.69,108.25L328.75,187.8L329.81,136.75L330.87,98.506L331.92,88.955L332.98,91.701L334.04,60.096L335.1,57.047L336.16,57.296L337.21,59.722L338.27,52.643L339.33,56.987L340.39,53.874L341.45,57.217L342.51,58.679L343.56,52.548L344.62,59.057L345.68,100.15L346.74,59.802L347.8,125.79L348.85,137.95L349.91,76.394L350.97,71.462L352.03,68.956L353.09,82.326L354.14,70.753L355.2,148.68L356.26,155.02L357.32,141.77L358.38,98.031L359.43,73.58L360.49,71.639L361.55,122.06L362.61,92.866L363.67,70.003L364.73,81.993L365.78,67.637L366.84,61.992L367.9,66.649L368.96,141.19L370.02,114.64L371.07,66.147L372.13,60.062L373.19,57.845L374.25,68.706L375.31,60.739L376.36,57.691L377.42,83.614L378.48,66.515L379.54,56.486L380.6,56.192L381.65,54.663L382.71,114.03L383.77,61.445L384.83,67.767L385.89,68.668L386.95,91.999L388,106.37L389.06,188.21L390.12,136.45L391.18,100.88L392.24,101.48L393.29,97.845L394.35,100.19L395.41,94.586L396.47,89.029L397.53,62.493L398.58,61.271L399.64,63.14L400.7,61.688L401.76,61.462L402.82,60.994L403.87,123.8L404.93,61.919L405.99,68.309L407.05,62.152L408.11,64.88L409.17,162.77L410.22,95.219L411.28,67.449L412.34,68.509L413.4,71.218L414.46,80.587L415.51,96.512L416.57,83.136L417.63,83.248L418.69,140.97L419.75,146.76L420.8,157.71L421.86,103.94L422.92,90.121L423.98,85.306L425.04,144.04L426.09,86.858L427.15,93.191L428.21,99.378L429.27,74.616L430.33,166.78L431.39,113.56L432.44,67.593L433.5,61.758L434.56,62.045L435.62,65.384L436.68,65.796L437.73,66.247L438.79,59.887L439.85,64.318L440.91,59.456L441.97,59.068L443.02,63.305L444.08,62.695L445.14,57.928L446.2,134.98L447.26,59.126L448.32,58.598L449.37,168.17L450.43,134.15L451.49,112.59L452.55,92.811L453.61,101.68L454.66,104.36L455.72,98.062L456.78,132.23L457.84,110.31L458.9,107.26L459.95,88.331L461.01,72.679L462.07,71.137L463.13,77.718L464.19,74.442L465.24,71.267L466.3,70.284L467.36,80.209L468.42,126.59L469.48,72.05L470.54,129.46L471.59,80.035L472.65,191.73L473.71,57.125L474.77,70.115L475.83,73.035L476.88,64.977L477.94,76.221L479,84.277L480.06,89.976L481.12,82.711L482.17,141.43L483.23,145L484.29,266.27L485.35,82.518L486.41,75.812L487.46,71.208L488.52,72.489L489.58,71.301L490.64,80.756L491.7,183.8L492.76,103.66L493.81,109.04L494.87,59.158L495.93,65.529L496.99,60.909L498.05,61.779L499.1,63.454L500.16,64.158L501.22,61.756L502.28,47.296L503.34,52.788L504.39,58.726L505.45,170.19L506.51,57.328L507.57,62.24L508.63,56.332L509.68,51L510.74,148.6L511.8,62.968L512.86,133.63L513.92,94.149L514.98,98.927L516.03,97.345L517.09,102.17L518.15,96.78L519.21,101.3L520.27,105.14L521.32,98.941L522.38,101.72L523.44,82.767L524.5,59.513L525.56,62.992L526.61,191.16L527.67,61.623L528.73,63.735L529.79,63.251L530.85,89.69L531.9,173.26L532.96,102.15L534.02,113.85L535.08,59.885L536.14,58.463L537.2,62.673L538.25,74.473L539.31,79.901L540.37,83.246L541.43,84.295L542.49,89.713L543.54,79.661L544.6,72.529L545.66,121.41L546.72,125.75L547.78,282.08L548.83,90.217L549.89,78.246L550.95,91.195L552.01,91.226L553.07,209.08L554.12,111.96L555.18,125.86L556.24,65.343L557.3,57.272L558.36,65.913L559.42,60.658L560.47,69.34L561.53,81.999L562.59,77.959L563.65,81.053L564.71,86.982L565.76,69.962L566.82,60.036L567.88,56.243L568.94,194L570,81.167L571.05,69.315L572.11,68.095L573.17,225.46L574.23,66.824L575.29,120.73L576.34,79.749L577.4,110.61L578.46,111.01L579.52,108.89L580.58,103.99L581.64,106.08L582.69,102.99L583.75,109.87L584.81,99.973L585.87,105.47L586.93,92.456L587.98,66.896L589.04,59.893L590.1,102.7L591.16,136.73L592.22,68.483L593.27,67.899L594.33,245.69L595.39,68.878L596.45,127.4L597.51,56.583L598.57,56.195L599.62,58.204L600.68,61.204L601.74,59.828L602.8,66.792L603.86,65.166L604.91,81.011L605.97,79.999L607.03,83.129L608.09,60.877L609.15,130.4L610.2,130.97L611.26,142.85L612.32,242.63L613.38,73.053L614.44,71.073L615.49,214.05L616.55,157.21L617.61,132.22L618.67,76.394L619.73,61.889L620.79,62.174L621.84,57.031L622.9,62.178L623.96,62.375L625.02,60.226L626.08,64.218L627.13,59.24L628.19,69.163L629.25,67.483L630.31,68.56L631.37,56.449L632.42,54.614L633.48,222.11L634.54,61.013L635.6,168.39L636.66,103.13L637.71,61.969L638.77,57.579L639.83,67.145L640.89,88.564L641.95,90.071L643.01,88.495L644.06,92.287L645.12,91.713L646.18,90.34L647.24,87.55L648.3,95.555L649.35,281.17L650.41,99.939L651.47,75.35L652.53,58.226L653.59,56.6L654.64,56.608L655.7,273.14L656.76,54.19L657.82,113.85L658.88,64.474L659.93,56.374L660.99,55.996L662.05,53.46L663.11,55.282L664.17,52.688L665.23,68.682L666.28,70.841L667.34,86.259L668.4,81.916L669.46,91.836L670.52,240.19L671.57,114.45L672.63,121.84L673.69,147.51L674.75,134.62L675.81,87.488L676.86,301.38L677.92,86.376L678.98,174.37L680.04,74.997L681.1,73.672L682.15,78.699L683.21,63.913L684.27,59.945L685.33,60.662L686.39,62.191L687.45,66.19L688.5,69.186L689.56,69.596L690.62,64.746L691.68,64.974L692.74,240.61L693.79,74.952L694.85,76.691L695.91,58.178L696.97,328.42L698.03,66.018L699.08,121.38L700.14,108.91L701.2,59.832L702.26,63.931L703.32,69.483L704.37,94.1L705.43,106.41L706.49,84.55L707.55,91.463L708.61,132.09L709.67,97.139L710.72,93.908L711.78,91.981L712.84,90.928L713.9,301.44L714.96,65.636L716.01,58.801L717.07,60.281L718.13,203.67L719.19,68.472L720.25,95.932L721.3,127.96L722.36,56.006L723.42,56.907L724.48,50.687L725.54,54.705L726.6,53.536L727.65,54.303L728.71,67.409L729.77,71.394L730.83,78.836L731.89,80.156L732.94,115.51L734,71.112L735.06,303.62L736.12,143.01L737.18,143.01L738.23,130.82L739.29,250.37L740.35,136.64L741.41,104.86L742.47,121.4L743.52,77.34L744.58,78.762L745.64,80.878L746.7,71.267L747.76,70.643L748.82,76.146L749.87,73.504L750.93,69.887L751.99,68.594L753.05,78.606L754.11,79.047L755.16,58.739L756.22,84.689L757.28,230.25L758.34,77.387L759.4,67.425L760.45,220.84L761.51,115.19L762.57,149.69L763.63,57.763L764.69,56.679L765.74,56.921L766.8,58.014L767.86,86.7L768.92,94.278L769.98,85.747L771.04,81.038L772.09,88.716L773.15,86.622L774.21,99.479L775.27,96.692L776.33,105.36L777.38,83.608L778.44,316.48L779.5,53.962L780.56,193.33L781.62,54.353L782.67,105.61L783.73,161.25L784.79,58.992L785.85,56.828L786.91,54.39L787.96,57.693L789.02,58.991L790.08,58.804L791.14,57.815L792.2,62.858L793.26,67.007L794.31,67.715L795.37,75.564L796.43,65.657L797.49,107.16L798.55,67.185L799.6,472L800.66,143.91L801.72,334.61L802.78,117.21L803.84,144.25L804.89,137.47L805.95,94.556L807.01,93.516L808.07,80.293L809.13,86.218L810.18,69.971L811.24,72.972L812.3,70.965L813.36,70.517L814.42,67.842L815.48,96.944L816.53,289.16L817.59,76.82L818.65,101.91L819.71,62.042L820.77,63.017L821.82,56.983L822.88,226.24L823.94,99.53L825,67.857L826.06,120.21L827.11,55.289L828.17,53.82L829.23,57.337L830.29,71.777L831.35,88.846L832.4,89.814L833.46,100.55L834.52,88.449L835.58,88.268L836.64,90.228L837.7,439.18L838.75,88.98L839.81,97.395L840.87,84.849L841.93,56.3L842.99,57.546L844.04,160.83L845.1,66.888L846.16,118.04L847.22,66.57L848.28,60.729L849.33,57.326L850.39,57.199L851.45,51.813L852.51,53.911L853.57,52.153L854.62,47.03L855.68,62.127L856.74,68.295L857.8,81.475L858.86,270.46L859.92,168.37L860.97,74.506L862.03,128.8L863.09,131.94L864.15,334.01L865.21,192.28L866.26,134.32L867.32,208.23L868.38,70.658L869.44,67.911L870.5,75.95L871.55,78.51L872.61,93.095L873.67,62.711L874.73,75.488L875.79,67.516L876.85,63.201L877.9,65.764L878.96,66.486L880.02,73.081L881.08,408.53L882.14,77.502L883.19,69.166L884.25,58.041L885.31,205.31L886.37,102.62L887.43,61.523L888.48,243.7L889.54,97.439L890.6,57.66L891.66,61.434L892.72,66.654L893.77,62.06L894.83,90.125L895.89,99.757L896.95,87.98L898.01,88.986L899.07,99.263L900.12,91.366L901.18,83.04L902.24,514.42L903.3,104.53L904.36,84.766L905.41,55.992L906.47,253.76L907.53,53.958L908.59,140.04L909.65,107.11L910.7,103.99L911.76,52.525L912.82,54.3L913.88,56.125L914.94,54.574L915.99,57.884L917.05,58.877L918.11,59.524L919.17,74.788L920.23,83.036L921.29,147.88L922.34,91.169L923.4,119.05L924.46,342.87L925.52,75.758L926.58,119.3L927.63,369.52L928.69,123.1L929.75,140.92L930.81,111.28L931.87,186.61L932.92,91.44L933.98,84.767L935.04,80.185L936.1,77.652L937.16,61.923L938.21,61.049L939.27,65.569L940.33,66.536L941.39,67.234L942.45,69.071L943.51,77.254L944.56,63.925L945.62,500.38L946.68,70.937L947.74,69.491L948.8,376.25L949.85,72.795L950.91,113.32L951.97,89.665L953.03,151.97L954.09,60.325L955.14,62.21L956.2,61.195L957.26,71.21L958.32,90.684L959.38,93.625L960.43,137.22L961.49,99.396L962.55,97.238L963.61,93.703L964.67,110.24L965.73,90.929L966.78,208.53L967.84,240.99L968.9,57.648L969.96,54.366L971.02,247.62L972.07,59.717L973.13,147.19L974.19,88.421L975.25,63.337L976.31,58.63L977.36,79.037L978.42,56.996L979.48,52.747L980.54,49.838L981.6,57.919L982.65,64.696L983.71,71.343L984.77,76.139L985.83,71.223L986.89,128.08L987.95,73.996L989,620.2L990.06,149.11L991.12,168.74L992.18,391.87L993.24,116.21L994.29,250.5L995.35,131.48L996.41,161.07L997.47,75.967L998.53,76.644L999.58,88.111L1000.6,62.765L1001.7,65.034L1002.8,66.018L1003.8,60.988L1004.9,59.109L1005.9,64.944L1007,81.447L1008,79.232L1009.1,72.656L1010.2,131.08L1011.2,261.19L1012.3,60.403L1013.3,371L1014.4,64.03L1015.5,70.615L1016.5,173.45L1017.6,68.423L1018.6,51.421L1019.7,59.975L1020.7,66.746L1021.8,87.202L1022.9,92.05L1023.9,88.134L1025,94.617L1026,96.412L1027.1,101.69L1028.2,108.18L1029.2,97.477L1030.3,111.26L1031.3,80.427L1032.4,598.12L1033.4,58.009L1034.5,429.52L1035.6,57.58L1036.6,54.828L1037.7,157.97L1038.7,101.34L1039.8,84.987L1040.9,55.743L1041.9,55.048L1043,57.957L1044,58.66L1045.1,54.803L1046.1,69.829L1047.2,82.675L1048.3,84.231L1049.3,98.489L1050.4,78.25L1051.4,86.817L1052.5,122.48L1053.5,267.45L1054.6,373.18L1055.7,135L1056.7,295.91L1057.8,79.103L1058.8,153.17L1059.9,96.671L1061,72.307L1062,73.756L1063.1,86.456L1064.1,69.916L1065.2,60.059L1066.2,59.701L1067.3,135.52L1068.4,59.734L1069.4,60.023L1070.5,64.787L1071.5,65.685L1072.6,82.951L1073.7,83.429L1074.7,97.919L1075.8,701.44L1076.8,50.601L1077.9,267.18L1078.9,53.858L1080,133.62" style="fill:none;stroke:#F15A60;stroke-width:1.875" />
<path d="M1055,694.3L1080,694.3" style="fill:none;stroke:#F15A60;stroke-width:1.875" />
<text x="1002.5" y="-687.85" transform="scale(1, -1)"
	style="font-family:Helvetica;font-weight:normal;font-style:normal;font-size:12pt">etcd v2</text>
</g>
</svg>
