<?xml version="1.0"?>
<!-- Generated by SVGo and Plotinum VG -->
<svg width="12in" height="8in"
	xmlns="http://www.w3.org/2000/svg"
	xmlns:xlink="http://www.w3.org/1999/xlink">
<g transform="scale(1, -1) translate(0, -720)">
<path d="M0,0L1080,0L1080,720L0,720Z" style="fill:#FFFFFF" />
<text x="313.66" y="-706.41" transform="scale(1, -1)"
	style="font-family:Helvetica;font-weight:normal;font-style:normal;font-size:12pt">Write 500K keys, 1-client, 8-byte key, 256-byte value (etcd v2), CPU</text>
<text x="541.16" y="-4.965" transform="scale(1, -1)"
	style="font-family:Helvetica;font-weight:normal;font-style:normal;font-size:12pt">Second</text>
<text x="49.712" y="-19.142" transform="scale(1, -1)"
	style="font-family:Helvetica;font-weight:normal;font-style:normal;font-size:10pt">0</text>
<text x="358.38" y="-19.142" transform="scale(1, -1)"
	style="font-family:Helvetica;font-weight:normal;font-style:normal;font-size:10pt">300</text>
<text x="674" y="-19.142" transform="scale(1, -1)"
	style="font-family:Helvetica;font-weight:normal;font-style:normal;font-size:10pt">600</text>
<text x="989.62" y="-19.142" transform="scale(1, -1)"
	style="font-family:Helvetica;font-weight:normal;font-style:normal;font-size:10pt">900</text>
<path d="M53.188,30.467L53.188,40.467" style="fill:none;stroke:#000000;stroke-width:0.625" />
<path d="M368.81,30.467L368.81,40.467" style="fill:none;stroke:#000000;stroke-width:0.625" />
<path d="M684.42,30.467L684.42,40.467" style="fill:none;stroke:#000000;stroke-width:0.625" />
<path d="M1000,30.467L1000,40.467" style="fill:none;stroke:#000000;stroke-width:0.625" />
<path d="M158.39,35.468L158.39,40.467" style="fill:none;stroke:#000000;stroke-width:0.625" />
<path d="M263.6,35.468L263.6,40.467" style="fill:none;stroke:#000000;stroke-width:0.625" />
<path d="M474.01,35.468L474.01,40.467" style="fill:none;stroke:#000000;stroke-width:0.625" />
<path d="M579.22,35.468L579.22,40.467" style="fill:none;stroke:#000000;stroke-width:0.625" />
<path d="M789.63,35.468L789.63,40.467" style="fill:none;stroke:#000000;stroke-width:0.625" />
<path d="M894.84,35.468L894.84,40.467" style="fill:none;stroke:#000000;stroke-width:0.625" />
<path d="M53.188,40.467L1080,40.467" style="fill:none;stroke:#000000;stroke-width:0.625" />
<g transform="rotate(90)">
<text x="358.4" y="13.59" transform="scale(1, -1)"
	style="font-family:Helvetica;font-weight:normal;font-style:normal;font-size:12pt">CPU</text>
</g>
<text x="18.555" y="-217.81" transform="scale(1, -1)"
	style="font-family:Helvetica;font-weight:normal;font-style:normal;font-size:10pt">20</text>
<text x="18.555" y="-423.96" transform="scale(1, -1)"
	style="font-family:Helvetica;font-weight:normal;font-style:normal;font-size:10pt">40</text>
<text x="18.555" y="-630.11" transform="scale(1, -1)"
	style="font-family:Helvetica;font-weight:normal;font-style:normal;font-size:10pt">60</text>
<path d="M35.93,223.18L45.93,223.18" style="fill:none;stroke:#000000;stroke-width:0.625" />
<path d="M35.93,429.33L45.93,429.33" style="fill:none;stroke:#000000;stroke-width:0.625" />
<path d="M35.93,635.48L45.93,635.48" style="fill:none;stroke:#000000;stroke-width:0.625" />
<path d="M40.93,120.11L45.93,120.11" style="fill:none;stroke:#000000;stroke-width:0.625" />
<path d="M40.93,326.26L45.93,326.26" style="fill:none;stroke:#000000;stroke-width:0.625" />
<path d="M40.93,532.4L45.93,532.4" style="fill:none;stroke:#000000;stroke-width:0.625" />
<path d="M45.93,47.03L45.93,701.44" style="fill:none;stroke:#000000;stroke-width:0.625" />
<path d="M53.188,47.03L54.24,114.03L55.292,163.3L56.344,200.61L57.396,233.08L58.448,257.82L59.5,279.56L60.552,298.84L61.604,316.36L62.656,330.28L63.708,344.09L64.76,355.43L65.812,366.25L66.864,376.14L67.916,385.94L68.968,394.18L70.02,401.71L71.073,408.82L72.125,416.76L73.177,424.8L74.229,429.54L75.281,434.9L76.333,439.84L77.385,444.38L78.437,448.81L79.489,452.83L80.541,456.44L81.593,459.63L82.645,463.34L83.697,466.33L84.749,469.32L85.801,472.11L86.853,473.96L87.906,476.44L88.958,478.7L90.01,480.56L91.062,482.62L92.114,488.91L93.166,490.45L94.218,492L95.27,493.24L96.322,494.47L97.374,495.92L98.426,497.26L99.478,498.49L100.53,500.55L101.58,501.79L102.63,503.54L103.69,505.19L104.74,506.74L105.79,508.49L106.84,509.73L107.89,510.45L108.95,511.17L110,512.3L111.05,513.34L112.1,515.91L113.16,521.07L114.21,522.3L115.26,523.23L116.31,523.85L117.36,524.36L118.42,524.78L119.47,524.78L120.52,525.29L121.57,525.6L122.62,525.81L123.68,526.01L124.73,525.91L125.78,526.01L126.83,526.43L127.88,526.63L128.94,527.15L129.99,527.46L131.04,527.56L132.09,527.87L133.14,533.13L134.2,533.43L135.25,533.74L136.3,533.74L137.35,533.74L138.4,534.05L139.46,534.05L140.51,534.26L141.56,534.57L142.61,534.88L143.66,535.29L144.72,535.5L145.77,535.29L146.82,535.7L147.87,536.01L148.93,536.11L149.98,536.11L151.03,536.22L152.08,536.53L153.13,536.73L154.19,541.99L155.24,541.89L156.29,541.78L157.34,541.89L158.39,541.89L159.45,541.78L160.5,541.78L161.55,541.78L162.6,541.78L163.65,541.78L164.71,542.2L165.76,542.81L166.81,543.33L167.86,543.85L168.91,544.57L169.97,544.77L171.02,545.19L172.07,545.49L173.12,545.7L174.17,550.96L175.23,551.78L176.28,552.19L177.33,552.5L178.38,552.81L179.43,553.43L180.49,553.64L181.54,553.84L182.59,553.74L183.64,553.74L184.7,553.84L185.75,553.84L186.8,554.05L187.85,553.95L188.9,553.95L189.96,553.84L191.01,553.74L192.06,553.74L193.11,553.64L194.16,559.31L195.22,559.31L196.27,559.2L197.32,559.31L198.37,559.31L199.42,559.2L200.48,559.31L201.53,559.2L202.58,559.31L203.63,559.41L204.68,559.62L205.74,559.82L206.79,559.82L207.84,559.82L208.89,559.62L209.94,559.51L211,559.72L212.05,559.62L213.1,559.72L214.15,564.98L215.21,564.87L216.26,564.77L217.31,564.77L218.36,564.67L219.41,564.98L220.47,564.87L221.52,564.77L222.57,564.87L223.62,564.87L224.67,564.87L225.73,564.87L226.78,564.98L227.83,565.08L228.88,565.39L229.93,565.59L230.99,566.01L232.04,566.11L233.09,568.69L234.14,571.26L235.19,571.37L236.25,571.37L237.3,571.37L238.35,571.37L239.4,571.68L240.45,571.88L241.51,571.88L242.56,571.98L243.61,572.09L244.66,572.09L245.71,571.98L246.77,571.98L247.82,572.09L248.87,571.98L249.92,571.88L250.98,571.57L252.03,571.47L253.08,571.37L254.13,576.62L255.18,576.52L256.24,576.42L257.29,576.42L258.34,576.31L259.39,576.31L260.44,576.11L261.5,576.11L262.55,576L263.6,576L264.65,575.8L265.7,575.8L266.76,575.7L267.81,575.9L268.86,575.9L269.91,575.7L270.96,575.59L272.02,575.59L273.07,575.49L274.12,580.23L275.17,582.09L276.22,581.98L277.28,581.78L278.33,581.57L279.38,581.36L280.43,581.16L281.48,580.95L282.54,580.75L283.59,580.44L284.64,580.23L285.69,580.02L286.75,579.82L287.8,579.61L288.85,579.3L289.9,579.3L290.95,579.3L292.01,579.41L293.06,579.51L294.11,583.73L295.16,585.9L296.21,585.9L297.27,585.9L298.32,585.8L299.37,585.69L300.42,585.59L301.47,585.59L302.53,585.59L303.58,585.69L304.63,585.69L305.68,585.69L306.73,585.69L307.79,585.59L308.84,585.18L309.89,585.07L310.94,584.87L311.99,584.97L313.05,584.87L314.1,585.59L315.15,590.64L316.2,590.33L317.26,590.13L318.31,590.02L319.36,589.92L320.41,589.82L321.46,589.71L322.52,589.51L323.57,589.4L324.62,589.3L325.67,589.2L326.72,589.09L327.78,588.89L328.83,589.2L329.88,588.89L330.93,588.79L331.98,588.68L333.04,588.48L334.09,589.2L335.14,593.94L336.19,593.73L337.24,593.73L338.3,593.63L339.35,593.42L340.4,593.32L341.45,593.22L342.5,593.11L343.56,593.01L344.61,592.91L345.66,592.91L346.71,592.7L347.76,592.6L348.82,592.39L349.87,592.29L350.92,592.08L351.97,591.77L353.03,591.77L354.08,594.76L355.13,597.34L356.18,597.34L357.23,597.34L358.29,597.24L359.34,597.34L360.39,597.24L361.44,597.13L362.49,597.13L363.55,597.03L364.6,597.03L365.65,597.03L366.7,596.93L367.75,596.72L368.81,596.72L369.86,596.62L370.91,596.52L371.96,596.41L373.01,596.21L374.07,596.52L375.12,600.64L376.17,601.46L377.22,601.26L378.27,601.15L379.33,600.95L380.38,600.85L381.43,600.74L382.48,600.85L383.53,600.74L384.59,600.64L385.64,600.43L386.69,600.33L387.74,600.12L388.8,599.81L389.85,599.71L390.9,599.61L391.95,599.51L393,599.4L394.06,601.26L395.11,605.38L396.16,605.17L397.21,605.07L398.26,605.07L399.32,605.07L400.37,604.86L401.42,604.76L402.47,604.66L403.52,604.56L404.58,604.45L405.63,604.35L406.68,604.25L407.73,604.14L408.78,604.04L409.84,603.52L410.89,603.52L411.94,603.32L412.99,603.11L414.04,604.45L415.1,608.06L416.15,608.06L417.2,608.06L418.25,608.06L419.31,608.16L420.36,608.27L421.41,608.16L422.46,608.16L423.51,608.06L424.57,607.96L425.62,607.85L426.67,607.75L427.72,607.54L428.77,607.54L429.83,607.44L430.88,607.03L431.93,607.03L432.98,606.93L434.03,606.82L435.09,608.27L436.14,611.87L437.19,612.39L438.24,612.29L439.29,612.08L440.35,611.98L441.4,611.77L442.45,611.56L443.5,611.46L444.55,611.26L445.61,611.15L446.66,611.05L447.71,610.95L448.76,610.74L449.81,610.53L450.87,610.43L451.92,609.92L452.97,609.81L454.02,610.12L455.08,612.9L456.13,615.07L457.18,614.97L458.23,614.97L459.28,614.86L460.34,614.76L461.39,614.76L462.44,614.66L463.49,614.55L464.54,614.45L465.6,614.24L466.65,614.04L467.7,613.83L468.75,613.63L469.8,613.42L470.86,613.21L471.91,613.11L472.96,612.6L474.01,612.49L475.06,612.8L476.12,616.1L477.17,618.68L478.22,618.57L479.27,618.47L480.32,618.47L481.38,618.37L482.43,618.37L483.48,618.26L484.53,618.26L485.58,618.16L486.64,618.06L487.69,618.06L488.74,617.54L489.79,617.44L490.85,617.34L491.9,617.23L492.95,617.23L494,617.23L495.05,617.13L496.11,618.06L497.16,621.36L498.21,623.11L499.26,622.9L500.31,622.8L501.37,622.59L502.42,622.49L503.47,622.28L504.52,622.08L505.57,621.98L506.63,621.87L507.68,621.67L508.73,621.56L509.78,621.05L510.83,620.94L511.89,620.74L512.94,620.53L513.99,620.43L515.04,620.43L516.09,622.39L517.15,625.48L518.2,625.48L519.25,625.38L520.3,625.38L521.36,625.27L522.41,625.17L523.46,625.07L524.51,624.96L525.56,624.86L526.62,624.76L527.67,624.66L528.72,624.55L529.77,624.45L530.82,624.04L531.88,623.73L532.93,623.52L533.98,623.42L535.03,623.52L536.08,623.83L537.14,626.2L538.19,628.37L539.24,628.98L540.29,628.78L541.34,628.67L542.4,628.57L543.45,628.57L544.5,628.37L545.55,628.26L546.6,628.26L547.66,628.26L548.71,628.16L549.76,628.06L550.81,627.95L551.86,627.64L552.92,627.34L553.97,627.34L555.02,627.13L556.07,627.03L557.13,627.54L558.18,629.5L559.23,631.05L560.28,631.66L561.33,631.46L562.39,631.35L563.44,631.15L564.49,631.15L565.54,630.94L566.59,630.74L567.65,630.53L568.7,630.32L569.75,630.12L570.8,629.91L571.85,629.81L572.91,629.4L573.96,629.09L575.01,628.88L576.06,628.67L577.11,629.19L578.17,630.63L579.22,633L580.27,634.55L581.32,634.34L582.37,634.24L583.43,634.14L584.48,634.03L585.53,633.83L586.58,633.73L587.63,633.62L588.69,633.42L589.74,633.21L590.79,633.11L591.84,632.9L592.9,632.69L593.95,632.59L595,632.08L596.05,631.87L597.1,631.66L598.16,631.46L599.21,632.49L600.26,634.14L601.31,636.3L602.36,636.2L603.42,635.99L604.47,635.89L605.52,635.79L606.57,635.68L607.62,635.68L608.68,635.58L609.73,635.58L610.78,635.48L611.83,635.27L612.88,635.17L613.94,635.07L614.99,634.96L616.04,634.76L617.09,634.65L618.14,634.55L619.2,634.45L620.25,635.99L621.3,638.78L622.35,640.22L623.41,640.12L624.46,639.91L625.51,639.81L626.56,639.6L627.61,639.39L628.67,639.29L629.72,639.09L630.77,638.98L631.82,638.78L632.87,638.57L633.93,638.47L634.98,638.26L636.03,638.05L637.08,637.85L638.13,637.44L639.19,637.44L640.24,638.78L641.29,641.25L642.34,642.07L643.39,641.97L644.45,641.77L645.5,641.66L646.55,641.56L647.6,641.56L648.65,641.35L649.71,641.35L650.76,641.15L651.81,641.04L652.86,641.04L653.91,640.53L654.97,640.32L656.02,640.12L657.07,640.01L658.12,639.81L659.18,639.7L660.23,640.84L661.28,643.31L662.33,645.68L663.38,645.48L664.44,645.37L665.49,645.17L666.54,645.06L667.59,644.96L668.64,644.75L669.7,644.75L670.75,644.65L671.8,644.55L672.85,644.45L673.9,644.34L674.96,643.93L676.01,643.72L677.06,643.52L678.11,643.41L679.16,643.31L680.22,643.41L681.27,644.96L682.32,646.71L683.37,648.77L684.42,648.67L685.48,648.57L686.53,648.36L687.58,648.26L688.63,648.05L689.69,647.95L690.74,647.74L691.79,647.64L692.84,647.54L693.89,647.33L694.95,647.23L696,646.71L697.05,646.51L698.1,646.3L699.15,646.09L700.21,645.99L701.26,647.02L702.31,648.77L703.36,651.04L704.41,651.15L705.47,651.04L706.52,650.84L707.57,650.73L708.62,650.63L709.67,650.53L710.73,650.42L711.78,650.42L712.83,650.32L713.88,650.22L714.93,650.11L715.99,650.01L717.04,649.81L718.09,649.39L719.14,649.29L720.19,648.98L721.25,648.88L722.3,649.81L723.35,651.87L724.4,654.03L725.46,654.03L726.51,653.93L727.56,653.72L728.61,653.62L729.66,653.52L730.72,653.31L731.77,653.21L732.82,653.1L733.87,653L734.92,653L735.98,652.79L737.03,652.69L738.08,652.59L739.13,652.07L740.18,651.97L741.24,651.76L742.29,652.07L743.34,653.31L744.39,655.37L745.44,657.43L746.5,657.23L747.55,657.12L748.6,657.02L749.65,656.92L750.7,656.81L751.76,656.61L752.81,656.4L753.86,656.2L754.91,656.09L755.96,655.89L757.02,655.68L758.07,655.37L759.12,655.27L760.17,654.75L761.23,654.55L762.28,654.34L763.33,654.86L764.38,656.5L765.43,658.05L766.49,659.7L767.54,659.6L768.59,659.49L769.64,659.29L770.69,659.08L771.75,659.08L772.8,658.98L773.85,658.88L774.9,658.77L775.95,658.57L777.01,658.46L778.06,658.26L779.11,658.05L780.16,657.95L781.21,657.54L782.27,657.33L783.32,657.23L784.37,658.05L785.42,660.01L786.47,661.56L787.53,662.38L788.58,662.28L789.63,662.07L790.68,661.97L791.74,661.86L792.79,661.66L793.84,661.56L794.89,661.45L795.94,661.35L797,661.25L798.05,661.14L799.1,660.94L800.15,660.73L801.2,660.63L802.26,660.52L803.31,660.11L804.36,660.42L805.41,661.66L806.46,663.62L807.52,665.37L808.57,665.27L809.62,665.16L810.67,664.96L811.72,664.85L812.78,664.75L813.83,664.54L814.88,664.34L815.93,664.24L816.98,664.03L818.04,663.82L819.09,663.31L820.14,663.1L821.19,663.1L822.24,662.9L823.3,662.69L824.35,662.59L825.4,662.9L826.45,664.03L827.51,665.99L828.56,668.05L829.61,667.95L830.66,667.74L831.71,667.64L832.77,667.43L833.82,667.33L834.87,667.22L835.92,667.12L836.97,667.02L838.03,666.92L839.08,666.81L840.13,666.4L841.18,666.19L842.23,666.09L843.29,665.88L844.34,665.78L845.39,665.68L846.44,666.3L847.49,667.74L848.55,669.29L849.6,670.52L850.65,670.63L851.7,670.42L852.75,670.32L853.81,670.11L854.86,670.01L855.91,669.9L856.96,669.7L858.01,669.6L859.07,669.49L860.12,669.39L861.17,669.29L862.22,668.77L863.28,668.67L864.33,668.46L865.38,668.26L866.43,668.67L867.48,670.01L868.54,671.97L869.59,673.51L870.64,673.92L871.69,673.82L872.74,673.72L873.8,673.62L874.85,673.51L875.9,673.31L876.95,673.2L878,673L879.06,672.79L880.11,672.58L881.16,672.38L882.21,672.28L883.26,671.76L884.32,671.55L885.37,671.35L886.42,671.14L887.47,671.45L888.52,672.48L889.58,673.92L890.63,675.88L891.68,677.02L892.73,676.91L893.79,676.81L894.84,676.71L895.89,676.5L896.94,676.4L897.99,676.3L899.05,676.19L900.1,675.99L901.15,675.99L902.2,675.99L903.25,675.78L904.31,675.57L905.36,675.16L906.41,674.96L907.46,674.85L908.51,674.85L909.57,675.68L910.62,676.71L911.67,678.97L912.72,680.01L913.77,680.01L914.83,679.9L915.88,679.8L916.93,679.59L917.98,679.49L919.03,679.28L920.09,679.18L921.14,679.08L922.19,678.97L923.24,678.77L924.29,678.87L925.35,678.77L926.4,678.36L927.45,678.05L928.5,677.94L929.56,678.15L930.61,679.18L931.66,680.52L932.71,681.96L933.76,683.2L934.82,683.1L935.87,682.99L936.92,682.89L937.97,682.79L939.02,682.69L940.08,682.58L941.13,682.38L942.18,682.27L943.23,682.07L944.28,681.96L945.34,681.76L946.39,681.55L947.44,681.14L948.49,680.83L949.54,680.62L950.6,681.04L951.65,681.86L952.7,682.79L953.75,684.54L954.8,685.78L955.86,686.19L956.91,685.98L957.96,685.88L959.01,685.67L960.06,685.57L961.12,685.47L962.17,685.57L963.22,685.47L964.27,685.37L965.33,685.26L966.38,685.06L967.43,684.95L968.48,684.75L969.53,684.33L970.59,684.03L971.64,683.92L972.69,684.54L973.74,685.98L974.79,687.22L975.85,689.08L976.9,689.69L977.95,689.49L979,689.39L980.05,689.49L981.11,689.28L982.16,689.18L983.21,688.97L984.26,688.97L985.31,688.77L986.37,688.77L987.42,688.66L988.47,688.46L989.52,688.35L990.57,687.94L991.63,687.63L992.68,687.53L993.73,688.25L994.78,689.08L995.84,690.52L996.89,691.45L997.94,693.3L998.99,693.1L1000,692.99L1001.1,692.89L1002.1,692.68L1003.2,692.58L1004.3,692.48L1005.3,692.27L1006.4,692.07L1007.4,691.96L1008.5,691.76L1009.5,691.55L1010.6,691.24L1011.6,691.03L1012.7,690.62L1013.7,690.42L1014.8,690.52L1015.8,691.34L1016.9,692.17L1017.9,693.82L1019,695.16L1020,695.36L1021.1,695.47L1022.1,695.36L1023.2,695.16L1024.2,695.16L1025.3,695.05L1026.3,694.85L1027.4,694.75L1028.4,694.64L1029.5,694.54L1030.6,694.33L1031.6,694.13L1032.7,693.92L1033.7,693.61L1034.8,693.3L1035.8,693.3L1036.9,693.92L1037.9,694.75L1039,696.29L1040,697.73L1041.1,698.46L1042.1,698.35L1043.2,698.15L1044.2,698.04L1045.3,698.15L1046.3,698.04L1047.4,697.84L1048.4,697.73L1049.5,697.63L1050.5,697.53L1051.6,697.63L1052.6,697.43L1053.7,697.22L1054.8,697.01L1055.8,696.6L1056.9,696.6L1057.9,697.12L1059,697.94L1060,699.18L1061.1,700.93L1062.1,701.44L1063.2,701.34L1064.2,701.24L1065.3,701.14L1066.3,700.93L1067.4,700.83L1068.4,700.93L1069.5,700.72L1070.5,700.52L1071.6,700.41L1072.6,700.21L1073.7,700.11L1074.7,699.9L1075.8,699.8L1076.8,699.69L1077.9,699.18L1078.9,699.69L1080,700.41" style="fill:none;stroke:#F15A60;stroke-width:1.875" />
<path d="M1055,694.3L1080,694.3" style="fill:none;stroke:#F15A60;stroke-width:1.875" />
<text x="1002.5" y="-687.85" transform="scale(1, -1)"
	style="font-family:Helvetica;font-weight:normal;font-style:normal;font-size:12pt">etcd v2</text>
</g>
</svg>
