<?xml version="1.0"?>
<!-- Generated by SVGo and Plotinum VG -->
<svg width="12in" height="8in"
	xmlns="http://www.w3.org/2000/svg"
	xmlns:xlink="http://www.w3.org/1999/xlink">
<g transform="scale(1, -1) translate(0, -720)">
<path d="M0,0L1080,0L1080,720L0,720Z" style="fill:#FFFFFF" />
<text x="286.17" y="-706.41" transform="scale(1, -1)"
	style="font-family:Helvetica;font-weight:normal;font-style:normal;font-size:12pt">Write 500K keys, 1-client, 8-byte key, 256-byte value (etcd v2), Memory(MB)</text>
<text x="548.11" y="-4.965" transform="scale(1, -1)"
	style="font-family:Helvetica;font-weight:normal;font-style:normal;font-size:12pt">Second</text>
<text x="63.613" y="-19.142" transform="scale(1, -1)"
	style="font-family:Helvetica;font-weight:normal;font-style:normal;font-size:10pt">0</text>
<text x="368.01" y="-19.142" transform="scale(1, -1)"
	style="font-family:Helvetica;font-weight:normal;font-style:normal;font-size:10pt">300</text>
<text x="679.35" y="-19.142" transform="scale(1, -1)"
	style="font-family:Helvetica;font-weight:normal;font-style:normal;font-size:10pt">600</text>
<text x="990.7" y="-19.142" transform="scale(1, -1)"
	style="font-family:Helvetica;font-weight:normal;font-style:normal;font-size:10pt">900</text>
<path d="M67.088,30.467L67.088,40.467" style="fill:none;stroke:#000000;stroke-width:0.625" />
<path d="M378.43,30.467L378.43,40.467" style="fill:none;stroke:#000000;stroke-width:0.625" />
<path d="M689.78,30.467L689.78,40.467" style="fill:none;stroke:#000000;stroke-width:0.625" />
<path d="M1001.1,30.467L1001.1,40.467" style="fill:none;stroke:#000000;stroke-width:0.625" />
<path d="M170.87,35.468L170.87,40.467" style="fill:none;stroke:#000000;stroke-width:0.625" />
<path d="M274.65,35.468L274.65,40.467" style="fill:none;stroke:#000000;stroke-width:0.625" />
<path d="M482.22,35.468L482.22,40.467" style="fill:none;stroke:#000000;stroke-width:0.625" />
<path d="M586,35.468L586,40.467" style="fill:none;stroke:#000000;stroke-width:0.625" />
<path d="M793.56,35.468L793.56,40.467" style="fill:none;stroke:#000000;stroke-width:0.625" />
<path d="M897.34,35.468L897.34,40.467" style="fill:none;stroke:#000000;stroke-width:0.625" />
<path d="M67.088,40.467L1080,40.467" style="fill:none;stroke:#000000;stroke-width:0.625" />
<g transform="rotate(90)">
<text x="330.91" y="13.59" transform="scale(1, -1)"
	style="font-family:Helvetica;font-weight:normal;font-style:normal;font-size:12pt">Memory(MB)</text>
</g>
<text x="25.505" y="-243.98" transform="scale(1, -1)"
	style="font-family:Helvetica;font-weight:normal;font-style:normal;font-size:10pt">800</text>
<text x="18.555" y="-452.12" transform="scale(1, -1)"
	style="font-family:Helvetica;font-weight:normal;font-style:normal;font-size:10pt">1600</text>
<text x="18.555" y="-660.26" transform="scale(1, -1)"
	style="font-family:Helvetica;font-weight:normal;font-style:normal;font-size:10pt">2400</text>
<path d="M49.83,249.34L59.83,249.34" style="fill:none;stroke:#000000;stroke-width:0.625" />
<path d="M49.83,457.49L59.83,457.49" style="fill:none;stroke:#000000;stroke-width:0.625" />
<path d="M49.83,665.63L59.83,665.63" style="fill:none;stroke:#000000;stroke-width:0.625" />
<path d="M54.83,145.27L59.83,145.27" style="fill:none;stroke:#000000;stroke-width:0.625" />
<path d="M54.83,353.42L59.83,353.42" style="fill:none;stroke:#000000;stroke-width:0.625" />
<path d="M54.83,561.56L59.83,561.56" style="fill:none;stroke:#000000;stroke-width:0.625" />
<path d="M59.83,47.03L59.83,701.44" style="fill:none;stroke:#000000;stroke-width:0.625" />
<path d="M67.088,47.03L68.125,48.097L69.163,49.091L70.201,50.444L71.239,51.086L72.277,51.219L73.314,51.391L74.352,51.836L75.39,52.132L76.428,52.377L77.466,52.692L78.504,52.736L79.541,53.28L80.579,53.654L81.617,53.881L82.655,54.063L83.693,54.299L84.73,54.547L85.768,56.175L86.806,58.959L87.844,58.975L88.882,58.975L89.92,59.498L90.957,59.623L91.995,59.935L93.033,60L94.071,60L95.109,60L96.146,60L97.184,60L98.222,60.073L99.26,60.073L100.3,60.143L101.34,60.528L102.37,60.528L103.41,60.549L104.45,60.549L105.49,70.42L106.52,70.42L107.56,70.441L108.6,70.509L109.64,70.509L110.68,70.602L111.71,70.602L112.75,70.602L113.79,70.602L114.83,70.602L115.87,70.602L116.9,70.623L117.94,70.623L118.98,70.623L120.02,70.623L121.05,70.628L122.09,70.628L123.13,70.628L124.17,70.628L125.21,70.649L126.24,81.163L127.28,81.163L128.32,81.163L129.36,81.163L130.39,81.163L131.43,81.163L132.47,81.163L133.51,81.163L134.55,81.163L135.58,81.34L136.62,81.525L137.66,81.725L138.7,81.769L139.73,81.769L140.77,81.793L141.81,81.814L142.85,81.814L143.89,81.814L144.92,81.814L145.96,93.399L147,93.399L148.04,93.399L149.08,93.399L150.11,93.399L151.15,93.399L152.19,93.399L153.23,93.399L154.26,93.399L155.3,93.407L156.34,93.428L157.38,93.428L158.42,93.428L159.45,93.428L160.49,93.428L161.53,93.428L162.57,93.428L163.6,93.449L164.64,93.47L165.68,93.47L166.72,106.32L167.76,106.32L168.79,106.32L169.83,106.32L170.87,106.32L171.91,106.32L172.95,106.6L173.98,106.73L175.02,106.91L176.06,106.91L177.1,106.91L178.13,106.96L179.17,106.96L180.21,107L181.25,107.03L182.29,107.03L183.32,107.03L184.36,107.03L185.4,107.03L186.44,124.58L187.47,124.58L188.51,124.58L189.55,124.58L190.59,124.58L191.63,124.58L192.66,124.58L193.7,124.58L194.74,124.58L195.78,124.58L196.82,124.58L197.85,124.58L198.89,124.58L199.93,124.58L200.97,124.58L202,124.58L203.04,124.58L204.08,124.58L205.12,124.58L206.16,128.78L207.19,128.78L208.23,128.78L209.27,128.78L210.31,128.78L211.34,128.78L212.38,128.78L213.42,128.78L214.46,128.78L215.5,128.78L216.53,128.78L217.57,128.78L218.61,128.78L219.65,128.78L220.68,128.8L221.72,128.98L222.76,129.54L223.8,129.78L224.84,129.82L225.87,139.9L226.91,139.9L227.95,139.9L228.99,139.9L230.03,139.9L231.06,139.9L232.1,139.9L233.14,139.9L234.18,139.9L235.21,139.9L236.25,139.9L237.29,139.9L238.33,139.9L239.37,139.9L240.4,139.9L241.44,139.9L242.48,139.9L243.52,139.9L244.55,139.92L245.59,146.64L246.63,146.64L247.67,146.64L248.71,146.64L249.74,146.64L250.78,146.64L251.82,146.64L252.86,146.64L253.9,146.64L254.93,146.64L255.97,146.64L257.01,146.64L258.05,146.64L259.08,146.64L260.12,146.64L261.16,146.64L262.2,146.64L263.24,146.64L264.27,146.64L265.31,154.57L266.35,154.57L267.39,154.59L268.42,154.59L269.46,154.59L270.5,154.59L271.54,154.59L272.58,154.59L273.61,154.59L274.65,154.59L275.69,154.59L276.73,154.59L277.76,155.12L278.8,155.12L279.84,155.12L280.88,155.12L281.92,155.12L282.95,155.66L283.99,156.24L285.03,159.92L286.07,184L287.11,184L288.14,184L289.18,184L290.22,184L291.26,184L292.29,184L293.33,184L294.37,184L295.41,184L296.45,184L297.48,184L298.52,184L299.56,184L300.6,184L301.63,184L302.67,184L303.71,184L304.75,184L305.79,200.16L306.82,200.16L307.86,200.16L308.9,200.16L309.94,200.16L310.98,200.16L312.01,200.16L313.05,200.16L314.09,200.16L315.13,200.16L316.16,200.16L317.2,200.16L318.24,200.16L319.28,200.16L320.32,200.16L321.35,200.16L322.39,200.16L323.43,200.16L324.47,200.21L325.5,209.36L326.54,209.36L327.58,209.36L328.62,209.36L329.66,209.36L330.69,209.36L331.73,209.36L332.77,209.36L333.81,209.36L334.85,209.36L335.88,209.36L336.92,209.36L337.96,209.36L339,209.36L340.03,209.36L341.07,209.36L342.11,209.36L343.15,209.36L344.19,209.38L345.22,216.56L346.26,216.56L347.3,216.56L348.34,216.56L349.37,216.56L350.41,216.56L351.45,216.56L352.49,216.56L353.53,216.56L354.56,216.56L355.6,216.56L356.64,216.56L357.68,216.56L358.71,216.56L359.75,216.56L360.79,216.56L361.83,216.56L362.87,216.56L363.9,216.6L364.94,222.19L365.98,222.19L367.02,222.19L368.06,222.19L369.09,222.19L370.13,222.19L371.17,222.19L372.21,222.19L373.24,222.19L374.28,222.19L375.32,222.19L376.36,222.19L377.4,222.19L378.43,222.19L379.47,222.19L380.51,222.19L381.55,222.19L382.58,222.19L383.62,222.19L384.66,222.3L385.7,223.01L386.74,223.01L387.77,223.01L388.81,223.01L389.85,223.01L390.89,223.01L391.93,223.01L392.96,223.01L394,223.01L395.04,223.01L396.08,223.01L397.11,223.01L398.15,223.01L399.19,223.01L400.23,223.01L401.27,223.01L402.3,223.01L403.34,223.01L404.38,230L405.42,230L406.45,230L407.49,230L408.53,230L409.57,230L410.61,230L411.64,230L412.68,230L413.72,230L414.76,230L415.8,230L416.83,230L417.87,230L418.91,230L419.95,230L420.98,230L422.02,230L423.06,230L424.1,249.34L425.14,250.59L426.17,250.59L427.21,250.59L428.25,250.59L429.29,250.59L430.32,250.59L431.36,250.59L432.4,250.59L433.44,250.59L434.48,250.59L435.51,250.59L436.55,250.61L437.59,250.61L438.63,250.61L439.66,250.61L440.7,250.61L441.74,250.61L442.78,250.61L443.82,250.61L444.85,251.14L445.89,257.73L446.93,257.73L447.97,257.73L449.01,257.73L450.04,257.73L451.08,257.73L452.12,257.73L453.16,257.73L454.19,257.73L455.23,257.73L456.27,257.73L457.31,257.73L458.35,257.73L459.38,257.73L460.42,257.73L461.46,257.73L462.5,257.73L463.53,257.76L464.57,259.95L465.61,259.95L466.65,259.95L467.69,259.95L468.72,259.95L469.76,259.95L470.8,259.95L471.84,259.95L472.88,259.95L473.91,259.95L474.95,259.95L475.99,259.95L477.03,259.95L478.06,259.95L479.1,259.95L480.14,259.95L481.18,259.95L482.22,259.95L483.25,259.95L484.29,260.01L485.33,289.79L486.37,289.79L487.4,289.79L488.44,289.79L489.48,289.79L490.52,289.79L491.56,289.79L492.59,289.79L493.63,289.79L494.67,289.79L495.71,289.79L496.75,289.79L497.78,289.79L498.82,289.79L499.86,289.79L500.9,289.79L501.93,289.79L502.97,289.79L504.01,290.35L505.05,292.96L506.09,338.05L507.12,338.05L508.16,338.05L509.2,338.05L510.24,338.05L511.27,338.05L512.31,338.05L513.35,338.05L514.39,338.05L515.43,338.05L516.46,338.05L517.5,338.05L518.54,338.05L519.58,338.05L520.61,338.05L521.65,338.05L522.69,338.05L523.73,338.25L524.77,360.73L525.8,360.73L526.84,360.73L527.88,360.73L528.92,360.73L529.96,360.73L530.99,360.73L532.03,360.73L533.07,360.73L534.11,360.73L535.14,360.73L536.18,360.73L537.22,360.73L538.26,360.73L539.3,360.73L540.33,360.73L541.37,360.73L542.41,360.73L543.45,360.73L544.48,360.73L545.52,367.95L546.56,367.95L547.6,367.95L548.64,367.95L549.67,367.95L550.71,367.95L551.75,367.95L552.79,367.95L553.83,367.95L554.86,367.95L555.9,367.95L556.94,367.95L557.98,367.95L559.01,367.95L560.05,367.95L561.09,367.95L562.13,367.95L563.17,367.95L564.2,367.95L565.24,367.95L566.28,368.35L567.32,369.19L568.35,369.19L569.39,369.19L570.43,369.19L571.47,369.19L572.51,369.19L573.54,369.19L574.58,369.19L575.62,369.19L576.66,369.19L577.7,369.19L578.73,369.19L579.77,369.19L580.81,369.19L581.85,369.19L582.88,369.19L583.92,369.19L584.96,369.19L586,369.92L587.04,370.45L588.07,370.45L589.11,370.45L590.15,370.45L591.19,370.45L592.22,370.45L593.26,370.45L594.3,370.45L595.34,370.45L596.38,370.45L597.41,370.45L598.45,370.45L599.49,370.45L600.53,370.45L601.56,370.45L602.6,370.45L603.64,370.45L604.68,370.45L605.72,370.53L606.75,370.54L607.79,390.26L608.83,390.26L609.87,390.26L610.91,390.26L611.94,390.26L612.98,390.26L614.02,390.26L615.06,390.26L616.09,390.26L617.13,390.26L618.17,390.26L619.21,390.26L620.25,390.26L621.28,390.26L622.32,390.26L623.36,390.26L624.4,390.26L625.43,390.26L626.47,390.26L627.51,390.26L628.55,390.99L629.59,390.99L630.62,390.99L631.66,390.99L632.7,390.99L633.74,390.99L634.78,390.99L635.81,390.99L636.85,390.99L637.89,390.99L638.93,390.99L639.96,390.99L641,390.99L642.04,390.99L643.08,390.99L644.12,390.99L645.15,390.99L646.19,390.99L647.23,391.05L648.27,391.78L649.3,391.78L650.34,391.78L651.38,391.78L652.42,391.78L653.46,391.78L654.49,391.78L655.53,391.78L656.57,391.78L657.61,391.78L658.65,391.78L659.68,391.78L660.72,391.78L661.76,391.78L662.8,391.78L663.83,391.78L664.87,391.78L665.91,391.78L666.95,391.8L667.99,392.51L669.02,392.51L670.06,392.51L671.1,392.51L672.14,392.51L673.17,392.51L674.21,392.51L675.25,392.51L676.29,392.51L677.33,392.51L678.36,392.51L679.4,392.51L680.44,392.51L681.48,392.51L682.51,392.53L683.55,392.53L684.59,392.53L685.63,392.53L686.67,392.53L687.7,396.26L688.74,407.34L689.78,407.34L690.82,407.34L691.86,407.34L692.89,407.34L693.93,407.34L694.97,407.34L696.01,407.34L697.04,407.34L698.08,407.34L699.12,407.34L700.16,407.34L701.2,407.34L702.23,407.34L703.27,407.34L704.31,407.34L705.35,407.34L706.38,407.34L707.42,409.82L708.46,409.87L709.5,409.87L710.54,409.87L711.57,409.87L712.61,409.87L713.65,409.87L714.69,409.87L715.73,409.87L716.76,409.87L717.8,409.87L718.84,409.87L719.88,409.87L720.91,409.87L721.95,409.87L722.99,409.87L724.03,409.87L725.07,409.87L726.1,409.87L727.14,409.87L728.18,409.97L729.22,421.41L730.25,421.41L731.29,421.41L732.33,421.41L733.37,421.41L734.41,421.41L735.44,421.41L736.48,421.41L737.52,421.41L738.56,421.41L739.59,421.41L740.63,421.41L741.67,421.41L742.71,421.41L743.75,421.41L744.78,421.41L745.82,421.41L746.86,421.41L747.9,421.41L748.94,421.59L749.97,433.43L751.01,433.43L752.05,433.43L753.09,433.43L754.12,433.43L755.16,433.43L756.2,433.43L757.24,433.43L758.28,433.43L759.31,433.43L760.35,433.43L761.39,433.43L762.43,433.43L763.46,433.43L764.5,433.43L765.54,433.43L766.58,433.43L767.62,433.43L768.65,433.45L769.69,433.49L770.73,450.22L771.77,450.22L772.81,450.22L773.84,450.22L774.88,450.22L775.92,450.22L776.96,450.22L777.99,450.22L779.03,450.22L780.07,450.22L781.11,450.22L782.15,450.22L783.18,450.22L784.22,450.22L785.26,450.22L786.3,450.22L787.33,450.22L788.37,450.22L789.41,451.2L790.45,463.68L791.49,463.68L792.52,463.68L793.56,463.68L794.6,463.68L795.64,463.68L796.68,463.68L797.71,463.68L798.75,463.68L799.79,463.68L800.83,463.68L801.86,463.68L802.9,463.68L803.94,463.68L804.98,463.68L806.02,463.68L807.05,463.68L808.09,463.68L809.13,463.68L810.17,463.7L811.2,509.74L812.24,509.74L813.28,509.74L814.32,509.74L815.36,509.74L816.39,509.74L817.43,509.74L818.47,509.74L819.51,509.74L820.54,509.74L821.58,509.74L822.62,509.74L823.66,509.74L824.7,509.74L825.73,509.74L826.77,509.74L827.81,509.74L828.85,509.76L829.89,509.76L830.92,509.91L831.96,509.92L833,509.92L834.04,509.92L835.07,509.92L836.11,509.92L837.15,509.92L838.19,509.92L839.23,509.92L840.26,509.92L841.3,509.92L842.34,509.92L843.38,509.92L844.41,509.92L845.45,509.92L846.49,509.92L847.53,509.92L848.57,509.92L849.6,509.93L850.64,509.93L851.68,509.95L852.72,514.29L853.76,514.29L854.79,514.29L855.83,514.29L856.87,514.29L857.91,514.29L858.94,514.29L859.98,514.29L861.02,514.29L862.06,514.29L863.1,514.29L864.13,514.29L865.17,514.29L866.21,514.29L867.25,514.29L868.28,514.29L869.32,514.3L870.36,514.3L871.4,514.3L872.44,515.77L873.47,516.48L874.51,516.48L875.55,516.48L876.59,516.48L877.63,516.48L878.66,516.48L879.7,516.48L880.74,516.48L881.78,516.48L882.81,516.48L883.85,516.48L884.89,516.48L885.93,516.48L886.97,516.48L888,516.48L889.04,516.48L890.08,516.48L891.12,516.48L892.15,516.48L893.19,544.93L894.23,573.76L895.27,573.76L896.31,573.76L897.34,573.76L898.38,573.76L899.42,573.76L900.46,573.76L901.49,573.76L902.53,573.76L903.57,573.76L904.61,573.76L905.65,573.76L906.68,573.76L907.72,573.76L908.76,573.76L909.8,573.76L910.84,573.76L911.87,573.76L912.91,580.7L913.95,580.7L914.99,645.98L916.02,645.98L917.06,645.98L918.1,645.98L919.14,645.98L920.18,645.98L921.21,645.98L922.25,645.98L923.29,645.98L924.33,645.98L925.36,645.98L926.4,645.98L927.44,645.98L928.48,645.98L929.52,645.98L930.55,645.98L931.59,645.98L932.63,645.98L933.67,652.78L934.71,652.87L935.74,667.76L936.78,667.76L937.82,667.76L938.86,667.76L939.89,667.76L940.93,667.76L941.97,667.76L943.01,667.76L944.05,667.76L945.08,667.76L946.12,667.76L947.16,667.76L948.2,667.76L949.23,667.76L950.27,667.76L951.31,667.76L952.35,670.12L953.39,670.12L954.42,676.89L955.46,676.89L956.5,676.91L957.54,678.33L958.58,678.33L959.61,678.33L960.65,678.33L961.69,678.33L962.73,678.33L963.76,678.33L964.8,678.33L965.84,678.33L966.88,678.33L967.92,678.33L968.95,678.33L969.99,678.33L971.03,678.33L972.07,678.33L973.1,678.33L974.14,678.33L975.18,678.33L976.22,678.33L977.26,678.58L978.29,678.58L979.33,678.58L980.37,678.58L981.41,678.58L982.44,678.58L983.48,678.58L984.52,678.58L985.56,678.58L986.6,678.58L987.63,678.58L988.67,678.58L989.71,678.58L990.75,678.58L991.79,678.58L992.82,678.58L993.86,678.58L994.9,678.58L995.94,678.58L996.97,678.58L998.01,678.6L999.05,689.99L1000.1,689.99L1001.1,689.99L1002.2,689.99L1003.2,689.99L1004.2,689.99L1005.3,689.99L1006.3,689.99L1007.4,689.99L1008.4,689.99L1009.4,689.99L1010.5,689.99L1011.5,689.99L1012.5,689.99L1013.6,689.99L1014.6,689.99L1015.7,689.99L1016.7,692.3L1017.7,694.15L1018.8,701.3L1019.8,701.34L1020.8,701.34L1021.9,701.34L1022.9,701.34L1024,701.34L1025,701.34L1026,701.34L1027.1,701.34L1028.1,701.34L1029.1,701.34L1030.2,701.34L1031.2,701.34L1032.3,701.34L1033.3,701.34L1034.3,701.34L1035.4,701.34L1036.4,701.34L1037.4,701.34L1038.5,701.34L1039.5,701.34L1040.6,701.38L1041.6,701.38L1042.6,701.38L1043.7,701.38L1044.7,701.38L1045.8,701.38L1046.8,701.38L1047.8,701.38L1048.9,701.38L1049.9,701.38L1050.9,701.38L1052,701.38L1053,701.38L1054.1,701.38L1055.1,701.38L1056.1,701.38L1057.2,701.38L1058.2,701.38L1059.2,701.38L1060.3,701.38L1061.3,701.44L1062.4,701.44L1063.4,701.44L1064.4,701.44L1065.5,701.44L1066.5,701.44L1067.5,701.44L1068.6,701.44L1069.6,701.44L1070.7,701.44L1071.7,701.44L1072.7,701.44L1073.8,701.44L1074.8,701.44L1075.8,701.44L1076.9,701.44L1077.9,701.44L1079,701.44L1080,701.44" style="fill:none;stroke:#F15A60;stroke-width:1.875" />
<path d="M1055,694.3L1080,694.3" style="fill:none;stroke:#F15A60;stroke-width:1.875" />
<text x="1002.5" y="-687.85" transform="scale(1, -1)"
	style="font-family:Helvetica;font-weight:normal;font-style:normal;font-size:12pt">etcd v2</text>
</g>
</svg>
