<?xml version="1.0"?>
<!-- Generated by SVGo and Plotinum VG -->
<svg width="12in" height="8in"
	xmlns="http://www.w3.org/2000/svg"
	xmlns:xlink="http://www.w3.org/1999/xlink">
<g transform="scale(1, -1) translate(0, -720)">
<path d="M0,0L1080,0L1080,720L0,720Z" style="fill:#FFFFFF" />
<text x="291.14" y="-706.41" transform="scale(1, -1)"
	style="font-family:Helvetica;font-weight:normal;font-style:normal;font-size:12pt">Write 500K keys, 1-client, 8-byte key, 256-byte value (etcd v2), Throughput</text>
<text x="544.64" y="-4.965" transform="scale(1, -1)"
	style="font-family:Helvetica;font-weight:normal;font-style:normal;font-size:12pt">Second</text>
<text x="56.662" y="-19.142" transform="scale(1, -1)"
	style="font-family:Helvetica;font-weight:normal;font-style:normal;font-size:10pt">0</text>
<text x="362.87" y="-19.142" transform="scale(1, -1)"
	style="font-family:Helvetica;font-weight:normal;font-style:normal;font-size:10pt">300</text>
<text x="676.04" y="-19.142" transform="scale(1, -1)"
	style="font-family:Helvetica;font-weight:normal;font-style:normal;font-size:10pt">600</text>
<text x="989.2" y="-19.142" transform="scale(1, -1)"
	style="font-family:Helvetica;font-weight:normal;font-style:normal;font-size:10pt">900</text>
<path d="M60.137,30.467L60.137,40.467" style="fill:none;stroke:#000000;stroke-width:0.625" />
<path d="M373.3,30.467L373.3,40.467" style="fill:none;stroke:#000000;stroke-width:0.625" />
<path d="M686.46,30.467L686.46,40.467" style="fill:none;stroke:#000000;stroke-width:0.625" />
<path d="M999.62,30.467L999.62,40.467" style="fill:none;stroke:#000000;stroke-width:0.625" />
<path d="M164.52,35.468L164.52,40.467" style="fill:none;stroke:#000000;stroke-width:0.625" />
<path d="M268.91,35.468L268.91,40.467" style="fill:none;stroke:#000000;stroke-width:0.625" />
<path d="M477.69,35.468L477.69,40.467" style="fill:none;stroke:#000000;stroke-width:0.625" />
<path d="M582.07,35.468L582.07,40.467" style="fill:none;stroke:#000000;stroke-width:0.625" />
<path d="M790.85,35.468L790.85,40.467" style="fill:none;stroke:#000000;stroke-width:0.625" />
<path d="M895.23,35.468L895.23,40.467" style="fill:none;stroke:#000000;stroke-width:0.625" />
<path d="M60.137,40.467L1080,40.467" style="fill:none;stroke:#000000;stroke-width:0.625" />
<g transform="rotate(90)">
<text x="335.88" y="13.59" transform="scale(1, -1)"
	style="font-family:Helvetica;font-weight:normal;font-style:normal;font-size:12pt">Throughput</text>
</g>
<text x="18.555" y="-144.99" transform="scale(1, -1)"
	style="font-family:Helvetica;font-weight:normal;font-style:normal;font-size:10pt">200</text>
<text x="18.555" y="-288.5" transform="scale(1, -1)"
	style="font-family:Helvetica;font-weight:normal;font-style:normal;font-size:10pt">300</text>
<text x="18.555" y="-432.01" transform="scale(1, -1)"
	style="font-family:Helvetica;font-weight:normal;font-style:normal;font-size:10pt">400</text>
<text x="18.555" y="-575.53" transform="scale(1, -1)"
	style="font-family:Helvetica;font-weight:normal;font-style:normal;font-size:10pt">500</text>
<path d="M42.88,150.36L52.88,150.36" style="fill:none;stroke:#000000;stroke-width:0.625" />
<path d="M42.88,293.87L52.88,293.87" style="fill:none;stroke:#000000;stroke-width:0.625" />
<path d="M42.88,437.38L52.88,437.38" style="fill:none;stroke:#000000;stroke-width:0.625" />
<path d="M42.88,580.89L52.88,580.89" style="fill:none;stroke:#000000;stroke-width:0.625" />
<path d="M47.88,78.603L52.88,78.603" style="fill:none;stroke:#000000;stroke-width:0.625" />
<path d="M47.88,222.11L52.88,222.11" style="fill:none;stroke:#000000;stroke-width:0.625" />
<path d="M47.88,365.63L52.88,365.63" style="fill:none;stroke:#000000;stroke-width:0.625" />
<path d="M47.88,509.14L52.88,509.14" style="fill:none;stroke:#000000;stroke-width:0.625" />
<path d="M47.88,652.65L52.88,652.65" style="fill:none;stroke:#000000;stroke-width:0.625" />
<path d="M52.88,47.03L52.88,701.44" style="fill:none;stroke:#000000;stroke-width:0.625" />
<path d="M60.137,47.03L61.181,619.64L62.225,656.96L63.269,651.22L64.313,648.35L65.357,652.65L66.401,645.48L67.445,639.73L68.488,646.91L69.532,641.17L70.576,655.52L71.62,661.26L72.664,692.83L73.708,665.57L74.752,646.91L75.796,668.44L76.839,678.48L77.883,661.26L78.927,655.52L79.971,655.52L81.015,662.7L82.059,638.3L83.103,583.77L84.147,598.12L85.19,576.59L86.234,580.89L87.278,595.25L88.322,585.2L89.366,580.89L90.41,589.51L91.454,585.2L92.498,602.42L93.541,682.79L94.585,655.52L95.629,654.09L96.673,646.91L97.717,662.7L98.761,618.21L99.805,682.79L100.85,667L101.89,664.13L102.94,659.83L103.98,665.57L105.02,649.78L106.07,668.44L107.11,635.43L108.16,625.38L109.2,629.69L110.24,600.99L111.29,619.64L112.33,598.12L113.37,598.12L114.42,463.21L115.46,476.13L116.51,468.96L117.55,602.42L118.59,606.73L119.64,623.95L120.68,628.25L121.73,631.12L122.77,608.16L123.81,573.72L124.86,635.43L125.9,644.04L126.95,626.82L127.99,631.12L129.03,631.12L130.08,596.68L131.12,621.08L132.16,632.56L133.21,628.25L134.25,644.04L135.3,652.65L136.34,651.22L137.38,652.65L138.43,611.03L139.47,618.21L140.52,639.73L141.56,646.91L142.6,622.51L143.65,628.25L144.69,602.42L145.73,536.41L146.78,526.36L147.82,534.97L148.87,543.58L149.91,550.76L150.95,536.41L152,563.67L153.04,560.8L154.09,563.67L155.13,565.11L156.17,648.35L157.22,655.52L158.26,665.57L159.31,550.76L160.35,621.08L161.39,619.64L162.44,631.12L163.48,632.56L164.52,648.35L165.57,638.3L166.61,635.43L167.66,628.25L168.7,629.69L169.74,629.69L170.79,638.3L171.83,613.9L172.88,641.17L173.92,602.42L174.96,605.29L176.01,625.38L177.05,504.83L178.09,507.7L179.14,445.99L180.18,600.99L181.23,636.86L182.27,629.69L183.31,626.82L184.36,618.21L185.4,603.86L186.45,599.55L187.49,635.43L188.53,652.65L189.58,649.78L190.62,648.35L191.67,625.38L192.71,646.91L193.75,629.69L194.8,654.09L195.84,654.09L196.88,654.09L197.93,655.52L198.97,553.63L200.02,655.52L201.06,669.87L202.1,668.44L203.15,668.44L204.19,651.22L205.24,656.96L206.28,648.35L207.32,625.38L208.37,579.46L209.41,585.2L210.46,598.12L211.5,559.37L212.54,565.11L213.59,529.23L214.63,509.14L215.67,560.8L216.72,566.54L217.76,603.86L218.81,536.41L219.85,645.48L220.89,682.79L221.94,671.31L222.98,674.18L224.03,667L225.07,636.86L226.11,668.44L227.16,687.09L228.2,681.35L229.24,677.05L230.29,671.31L231.33,668.44L232.38,616.77L233.42,632.56L234.46,631.12L235.51,547.89L236.55,619.64L237.6,547.89L238.64,582.33L239.68,463.21L240.73,477.57L241.77,473.26L242.82,575.15L243.86,600.99L244.9,606.73L245.95,603.86L246.99,603.86L248.03,609.6L249.08,589.51L250.12,648.35L251.17,658.39L252.21,649.78L253.25,645.48L254.3,654.09L255.34,656.96L256.39,582.33L257.43,644.04L258.47,552.19L259.52,602.42L260.56,648.35L261.6,641.17L262.65,635.43L263.69,659.83L264.74,677.05L265.78,654.09L266.82,674.18L267.87,668.44L268.91,677.05L269.96,644.04L271,589.51L272.04,516.31L273.09,553.63L274.13,565.11L275.18,547.89L276.22,567.98L277.26,550.76L278.31,458.91L279.35,470.39L280.39,575.15L281.44,635.43L282.48,638.3L283.53,632.56L284.57,635.43L285.61,626.82L286.66,632.56L287.7,644.04L288.75,632.56L289.79,631.12L290.83,633.99L291.88,621.08L292.92,580.89L293.96,675.61L295.01,649.78L296.05,641.17L297.1,628.25L298.14,506.27L299.18,546.45L300.23,603.86L301.27,600.99L302.32,487.61L303.36,490.48L304.4,467.52L305.45,589.51L306.49,631.12L307.54,641.17L308.58,636.86L309.62,626.82L310.67,621.08L311.71,583.77L312.75,644.04L313.8,586.64L314.84,654.09L315.89,648.35L316.93,658.39L317.97,646.91L319.02,468.96L320.06,579.46L321.11,656.96L322.15,674.18L323.19,671.31L324.24,664.13L325.28,641.17L326.32,656.96L327.37,654.09L328.41,668.44L329.46,665.57L330.5,652.65L331.54,656.96L332.59,616.77L333.63,590.94L334.68,503.4L335.72,553.63L336.76,546.45L337.81,560.8L338.85,434.51L339.9,510.57L340.94,579.46L341.98,599.55L343.03,593.81L344.07,667L345.11,675.61L346.16,674.18L347.2,668.44L348.25,687.09L349.29,675.61L350.33,684.22L351.38,674.18L352.42,671.31L353.47,688.53L354.51,668.44L355.55,576.59L356.6,667L357.64,529.23L358.68,503.4L359.73,632.56L360.77,638.3L361.82,645.48L362.86,613.9L363.9,641.17L364.95,490.48L365.99,481.87L367.04,501.96L368.08,580.89L369.12,632.56L370.17,638.3L371.21,534.97L372.26,590.94L373.3,642.61L374.34,613.9L375.39,649.78L376.43,661.26L377.47,649.78L378.52,503.4L379.56,547.89L380.61,652.65L381.65,667L382.69,672.74L383.74,645.48L384.78,664.13L385.83,672.74L386.87,611.03L387.91,649.78L388.96,677.05L390,677.05L391.04,681.35L392.09,550.76L393.13,662.7L394.18,649.78L395.22,645.48L396.26,593.81L397.31,519.18L398.35,473.26L399.4,509.14L400.44,575.15L401.48,573.72L402.53,580.89L403.57,576.59L404.62,588.07L405.66,599.55L406.7,659.83L407.75,664.13L408.79,659.83L409.83,661.26L410.88,664.13L411.92,665.57L412.97,532.1L414.01,662.7L415.05,646.91L416.1,662.7L417.14,655.52L418.19,470.39L419.23,586.64L420.27,649.78L421.32,645.48L422.36,641.17L423.4,616.77L424.45,583.77L425.49,611.03L426.54,612.47L427.58,503.4L428.62,493.35L429.67,476.13L430.71,569.41L431.76,598.12L432.8,606.73L433.84,499.09L434.89,603.86L435.93,590.94L436.98,576.59L438.02,631.12L439.06,464.65L440.11,550.76L441.15,648.35L442.19,662.7L443.24,662.7L444.28,654.09L445.33,652.65L446.37,651.22L447.41,665.57L448.46,656.96L449.5,668.44L450.55,669.87L451.59,658.39L452.63,661.26L453.68,672.74L454.72,513.44L455.76,669.87L456.81,671.31L457.85,461.78L458.9,514.88L459.94,552.19L460.98,592.38L462.03,573.72L463.07,567.98L464.12,580.89L465.16,517.75L466.2,556.5L467.25,562.24L468.29,600.99L469.34,636.86L470.38,638.3L471.42,625.38L472.47,631.12L473.51,641.17L474.55,642.61L475.6,550.76L476.64,586.64L477.69,638.3L478.73,522.05L479.77,619.64L480.82,430.21L481.86,675.61L482.91,642.61L483.95,635.43L484.99,654.09L486.04,628.25L487.08,609.6L488.12,596.68L489.17,613.9L490.21,501.96L491.26,479L492.3,362.76L493.34,615.34L494.39,628.25L495.43,641.17L496.48,636.86L497.52,638.3L498.56,616.77L499.61,441.69L500.65,569.41L501.7,559.37L502.74,669.87L503.78,652.65L504.83,665.57L505.87,662.7L506.91,658.39L507.96,656.96L509,662.7L510.05,701.44L511.09,687.09L512.13,671.31L513.18,458.91L514.22,675.61L515.27,662.7L516.31,677.05L517.35,691.4L518.4,490.48L519.44,658.39L520.48,516.31L521.53,588.07L522.57,579.46L523.62,582.33L524.66,573.72L525.7,583.77L526.75,575.15L527.79,566.54L528.84,578.02L529.88,572.28L530.92,612.47L531.97,667L533.01,659.83L534.06,431.64L535.1,662.7L536.14,656.96L537.19,658.39L538.23,599.55L539.27,454.6L540.32,572.28L541.36,550.76L542.41,667L543.45,669.87L544.49,661.26L545.54,631.12L546.58,619.64L547.63,612.47L548.67,609.6L549.71,598.12L550.76,619.64L551.8,635.43L552.84,534.97L553.89,529.23L554.93,335.49L555.98,596.68L557.02,623.95L558.06,595.25L559.11,595.25L560.15,410.12L561.2,545.02L562.24,536.41L563.28,654.09L564.33,674.18L565.37,651.22L566.42,665.57L567.46,644.04L568.5,613.9L569.55,623.95L570.59,618.21L571.63,603.86L572.68,641.17L573.72,667L574.77,677.05L575.81,427.34L576.85,615.34L577.9,644.04L578.94,646.91L579.99,391.46L581.03,649.78L582.07,537.84L583.12,618.21L584.16,556.5L585.2,555.06L586.25,559.37L587.29,569.41L588.34,563.67L589.38,570.85L590.42,557.93L591.47,576.59L592.51,566.54L593.56,592.38L594.6,651.22L595.64,667L596.69,461.78L597.73,611.03L598.78,645.48L599.82,646.91L600.86,369.93L601.91,645.48L602.95,526.36L603.99,677.05L605.04,677.05L606.08,672.74L607.13,664.13L608.17,668.44L609.21,651.22L610.26,654.09L611.3,616.77L612.35,619.64L613.39,612.47L614.43,664.13L615.48,520.62L616.52,520.62L617.56,473.26L618.61,392.89L619.65,636.86L620.7,639.73L621.74,402.94L622.78,477.57L623.83,519.18L624.87,626.82L625.92,662.7L626.96,661.26L628,675.61L629.05,662.7L630.09,661.26L631.14,667L632.18,655.52L633.22,669.87L634.27,645.48L635.31,648.35L636.35,646.91L637.4,675.61L638.44,681.35L639.49,394.33L640.53,664.13L641.57,461.78L642.62,570.85L643.66,661.26L644.71,672.74L645.75,649.78L646.79,600.99L647.84,596.68L648.88,600.99L649.92,592.38L650.97,592.38L652.01,598.12L653.06,603.86L654.1,586.64L655.14,335.49L656.19,578.02L657.23,631.12L658.28,671.31L659.32,677.05L660.36,675.61L661.41,344.1L662.45,682.79L663.5,549.32L664.54,658.39L665.58,677.05L666.63,678.48L667.67,684.22L668.71,677.05L669.76,685.66L670.8,645.48L671.85,639.73L672.89,605.29L673.93,615.34L674.98,593.81L676.02,334.05L677.07,603.86L678.11,534.97L679.15,493.35L680.2,513.44L681.24,602.42L682.28,318.27L683.33,605.29L684.37,454.6L685.42,629.69L686.46,633.99L687.5,622.51L688.55,656.96L689.59,668.44L690.64,665.57L691.68,661.26L692.72,652.65L693.77,644.04L694.81,642.61L695.86,655.52L696.9,573.72L697.94,427.34L698.99,629.69L700.03,626.82L701.07,671.31L702.12,298.18L703.16,651.22L704.21,537.84L705.25,559.37L706.29,667L707.34,656.96L708.38,644.04L709.43,589.51L710.47,563.67L711.51,609.6L712.56,593.81L713.6,517.75L714.64,583.77L715.69,589.51L716.73,593.81L717.78,595.25L718.82,319.7L719.86,652.65L720.91,669.87L721.95,667L723,415.86L724.04,615.34L725.08,612.47L726.13,523.49L727.17,677.05L728.22,674.18L729.26,689.96L730.3,681.35L731.35,684.22L732.39,682.79L733.43,648.35L734.48,639.73L735.52,622.51L736.57,619.64L737.61,546.45L738.65,639.73L739.7,316.83L740.74,500.53L741.79,500.53L742.83,520.62L743.87,364.19L744.92,510.57L745.96,534.97L747,566.54L748.05,625.38L749.09,621.08L750.14,616.77L751.18,639.73L752.22,641.17L753.27,628.25L754.31,633.99L755.36,642.61L756.4,645.48L757.44,622.51L758.49,621.08L759.53,671.31L760.58,501.96L761.62,460.34L762.66,625.38L763.71,496.22L764.75,499.09L765.79,549.32L766.84,489.05L767.88,672.74L768.93,675.61L769.97,675.61L771.01,671.31L772.06,603.86L773.1,590.94L774.15,606.73L775.19,616.77L776.23,599.55L777.28,605.29L778.32,578.02L779.36,582.33L780.41,567.98L781.45,612.47L782.5,306.79L783.54,682.79L784.58,428.77L785.63,679.92L786.67,565.11L787.72,471.83L788.76,669.87L789.8,674.18L790.85,682.79L791.89,672.74L792.94,669.87L793.98,668.44L795.02,672.74L796.07,659.83L797.11,649.78L798.15,646.91L799.2,631.12L800.24,652.65L801.29,562.24L802.33,649.78L803.37,212.07L804.42,499.09L805.46,293.87L806.51,543.58L807.55,499.09L808.59,509.14L809.64,588.07L810.68,589.51L811.73,618.21L812.77,605.29L813.81,642.61L814.86,635.43L815.9,641.17L816.94,642.61L817.99,646.91L819.03,500.53L820.08,382.85L821.12,611.03L822.16,586.64L823.21,661.26L824.25,659.83L825.3,675.61L826.34,390.02L827.38,572.28L828.43,655.52L829.47,537.84L830.51,681.35L831.56,684.22L832.6,674.18L833.65,638.3L834.69,600.99L835.73,598.12L836.78,576.59L837.82,600.99L838.87,600.99L839.91,596.68L840.95,229.29L842,599.55L843.04,582.33L844.09,609.6L845.13,675.61L846.17,542.15L847.22,572.28L848.26,649.78L849.3,542.15L850.35,651.22L851.39,665.57L852.44,674.18L853.48,675.61L854.52,688.53L855.57,682.79L856.61,687.09L857.66,701.44L858.7,661.26L859.74,646.91L860.79,615.34L861.83,308.22L862.87,509.14L863.92,629.69L864.96,523.49L866.01,517.75L867.05,293.87L868.09,430.21L869.14,514.88L870.18,410.12L871.23,639.73L872.27,649.78L873.31,628.25L874.36,622.51L875.4,590.94L876.45,661.26L877.49,628.25L878.53,648.35L879.58,659.83L880.62,652.65L881.66,651.22L882.71,623.95L883.75,250.82L884.8,625.38L885.84,645.48L886.88,671.31L887.93,414.42L888.97,572.28L890.02,664.13L891.06,367.06L892.1,589.51L893.15,672.74L894.19,662.7L895.23,649.78L896.28,661.26L897.32,596.68L898.37,576.59L899.41,602.42L900.45,599.55L901.5,579.46L902.54,593.81L903.59,612.47L904.63,193.41L905.67,566.54L906.72,608.16L907.76,678.48L908.81,361.32L909.85,681.35L910.89,504.83L911.94,553.63L912.98,576.59L914.02,687.09L915.07,681.35L916.11,677.05L917.16,681.35L918.2,672.74L919.24,669.87L920.29,668.44L921.33,631.12L922.38,612.47L923.42,464.65L924.46,626.82L925.51,484.74L926.55,322.57L927.59,629.69L928.64,540.71L929.68,269.47L930.73,533.54L931.77,503.4L932.81,510.57L933.86,474.7L934.9,593.81L935.95,609.6L936.99,618.21L938.03,623.95L939.08,662.7L940.12,664.13L941.17,652.65L942.21,651.22L943.25,648.35L944.3,644.04L945.34,626.82L946.38,656.96L947.43,199.15L948.47,641.17L949.52,644.04L950.56,265.17L951.6,635.43L952.65,546.45L953.69,603.86L954.74,486.18L955.78,667L956.82,661.26L957.87,664.13L958.91,641.17L959.95,596.68L961,590.94L962.04,509.14L963.09,576.59L964.13,582.33L965.17,590.94L966.22,556.5L967.26,596.68L968.31,395.76L969.35,387.15L970.39,672.74L971.44,427.34L972.48,523.49L973.53,668.44L974.57,493.35L975.61,600.99L976.66,658.39L977.7,669.87L978.74,619.64L979.79,677.05L980.83,685.66L981.88,692.83L982.92,672.74L983.96,655.52L985.01,639.73L986.05,626.82L987.1,639.73L988.14,524.93L989.18,633.99L990.23,153.23L991.27,490.48L992.31,235.03L993.36,402.94L994.4,545.02L995.45,364.19L996.49,493.35L997.53,496.22L998.58,628.25L999.62,626.82L1000.7,602.42L1001.7,659.83L1002.8,655.52L1003.8,652.65L1004.8,665.57L1005.9,668.44L1006.9,654.09L1008,615.34L1009,621.08L1010.1,636.86L1011.1,415.86L1012.1,431.64L1013.2,665.57L1014.2,268.04L1015.3,656.96L1016.3,641.17L1017.4,454.6L1018.4,648.35L1019.5,689.96L1020.5,668.44L1021.5,649.78L1022.6,602.42L1023.6,590.94L1024.7,600.99L1025.7,589.51L1026.8,582.33L1027.8,573.72L1028.9,560.8L1029.9,582.33L1030.9,555.06L1032,618.21L1033,160.4L1034.1,672.74L1035.1,233.6L1036.2,672.74L1037.2,679.92L1038.2,477.57L1039.3,570.85L1040.3,611.03L1041.4,678.48L1042.4,679.92L1043.5,672.74L1044.5,671.31L1045.6,679.92L1046.6,644.04L1047.6,613.9L1048.7,609.6L1049.7,579.46L1050.8,622.51L1051.8,605.29L1052.9,534.97L1053.9,328.31L1054.9,283.82L1056,227.86L1057,526.36L1058.1,621.08L1059.1,484.74L1060.2,583.77L1061.2,636.86L1062.3,633.99L1063.3,603.86L1064.3,644.04L1065.4,667L1066.4,668.44L1067.5,512.01L1068.5,668.44L1069.6,667L1070.6,655.52L1071.6,654.09L1072.7,612.47L1073.7,609.6L1074.8,582.33L1075.8,128.83L1076.9,401.5L1077.9,519.18L1079,684.22L1080,516.31" style="fill:none;stroke:#F15A60;stroke-width:1.875" />
<path d="M1055,694.3L1080,694.3" style="fill:none;stroke:#F15A60;stroke-width:1.875" />
<text x="1002.5" y="-687.85" transform="scale(1, -1)"
	style="font-family:Helvetica;font-weight:normal;font-style:normal;font-size:12pt">etcd v2</text>
</g>
</svg>
