<?xml version="1.0"?>
<!-- Generated by SVGo and Plotinum VG -->
<svg width="12in" height="8in"
	xmlns="http://www.w3.org/2000/svg"
	xmlns:xlink="http://www.w3.org/1999/xlink">
<g transform="scale(1, -1) translate(0, -720)">
<path d="M0,0L1080,0L1080,720L0,720Z" style="fill:#FFFFFF" />
<text x="301.16" y="-706.41" transform="scale(1, -1)"
	style="font-family:Helvetica;font-weight:normal;font-style:normal;font-size:12pt">Write 500K keys, 1000-client, 8-byte key, 256-byte value (etcd v2), CPU</text>
<text x="544.64" y="-4.965" transform="scale(1, -1)"
	style="font-family:Helvetica;font-weight:normal;font-style:normal;font-size:12pt">Second</text>
<text x="56.662" y="-19.142" transform="scale(1, -1)"
	style="font-family:Helvetica;font-weight:normal;font-style:normal;font-size:10pt">0</text>
<text x="328.83" y="-19.142" transform="scale(1, -1)"
	style="font-family:Helvetica;font-weight:normal;font-style:normal;font-size:10pt">10</text>
<text x="604.46" y="-19.142" transform="scale(1, -1)"
	style="font-family:Helvetica;font-weight:normal;font-style:normal;font-size:10pt">20</text>
<text x="880.1" y="-19.142" transform="scale(1, -1)"
	style="font-family:Helvetica;font-weight:normal;font-style:normal;font-size:10pt">30</text>
<path d="M60.137,30.467L60.137,40.467" style="fill:none;stroke:#000000;stroke-width:0.625" />
<path d="M335.78,30.467L335.78,40.467" style="fill:none;stroke:#000000;stroke-width:0.625" />
<path d="M611.41,30.467L611.41,40.467" style="fill:none;stroke:#000000;stroke-width:0.625" />
<path d="M887.05,30.467L887.05,40.467" style="fill:none;stroke:#000000;stroke-width:0.625" />
<path d="M197.96,35.468L197.96,40.467" style="fill:none;stroke:#000000;stroke-width:0.625" />
<path d="M473.6,35.468L473.6,40.467" style="fill:none;stroke:#000000;stroke-width:0.625" />
<path d="M749.23,35.468L749.23,40.467" style="fill:none;stroke:#000000;stroke-width:0.625" />
<path d="M1024.9,35.468L1024.9,40.467" style="fill:none;stroke:#000000;stroke-width:0.625" />
<path d="M60.137,40.467L1080,40.467" style="fill:none;stroke:#000000;stroke-width:0.625" />
<g transform="rotate(90)">
<text x="358.4" y="13.59" transform="scale(1, -1)"
	style="font-family:Helvetica;font-weight:normal;font-style:normal;font-size:12pt">CPU</text>
</g>
<text x="18.555" y="-203.25" transform="scale(1, -1)"
	style="font-family:Helvetica;font-weight:normal;font-style:normal;font-size:10pt">100</text>
<text x="18.555" y="-369.54" transform="scale(1, -1)"
	style="font-family:Helvetica;font-weight:normal;font-style:normal;font-size:10pt">200</text>
<text x="18.555" y="-535.84" transform="scale(1, -1)"
	style="font-family:Helvetica;font-weight:normal;font-style:normal;font-size:10pt">300</text>
<path d="M42.88,208.62L52.88,208.62" style="fill:none;stroke:#000000;stroke-width:0.625" />
<path d="M42.88,374.91L52.88,374.91" style="fill:none;stroke:#000000;stroke-width:0.625" />
<path d="M42.88,541.2L52.88,541.2" style="fill:none;stroke:#000000;stroke-width:0.625" />
<path d="M47.88,125.47L52.88,125.47" style="fill:none;stroke:#000000;stroke-width:0.625" />
<path d="M47.88,291.76L52.88,291.76" style="fill:none;stroke:#000000;stroke-width:0.625" />
<path d="M47.88,458.06L52.88,458.06" style="fill:none;stroke:#000000;stroke-width:0.625" />
<path d="M47.88,624.35L52.88,624.35" style="fill:none;stroke:#000000;stroke-width:0.625" />
<path d="M52.88,47.03L52.88,701.44" style="fill:none;stroke:#000000;stroke-width:0.625" />
<path d="M60.137,47.03L87.701,115.21L115.27,177.35L142.83,238.95L170.39,298.53L197.96,346.21L225.52,388.15L253.08,426.76L280.65,456.61L308.21,482.77L335.78,509.36L363.34,534.04L390.9,556.25L418.47,580.58L446.03,601.02L473.6,617.2L501.16,632.15L528.72,648.38L556.29,664.01L583.85,674.97L611.41,681.62L638.98,687.81L666.54,688.96L694.11,686.79L721.67,686.45L749.23,691.93L776.8,695.38L804.36,696.09L831.93,701.44L859.49,694.36L887.05,688.59L914.62,683.83L942.18,682.39L969.74,681.14L997.31,682.19L1024.9,682.47L1052.4,681.96L1080,680.13" style="fill:none;stroke:#F15A60;stroke-width:1.875" />
<path d="M1055,694.3L1080,694.3" style="fill:none;stroke:#F15A60;stroke-width:1.875" />
<text x="1002.5" y="-687.85" transform="scale(1, -1)"
	style="font-family:Helvetica;font-weight:normal;font-style:normal;font-size:12pt">etcd v2</text>
</g>
</svg>
