<?xml version="1.0"?>
<!-- Generated by SVGo and Plotinum VG -->
<svg width="12in" height="8in"
	xmlns="http://www.w3.org/2000/svg"
	xmlns:xlink="http://www.w3.org/1999/xlink">
<g transform="scale(1, -1) translate(0, -720)">
<path d="M0,0L1080,0L1080,720L0,720Z" style="fill:#FFFFFF" />
<text x="248.64" y="-706.41" transform="scale(1, -1)"
	style="font-family:Helvetica;font-weight:normal;font-style:normal;font-size:12pt">Write 500K keys, 1000-client, 8-byte key, 256-byte value (etcd v2), Latency(millisecond)</text>
<text x="544.64" y="-4.965" transform="scale(1, -1)"
	style="font-family:Helvetica;font-weight:normal;font-style:normal;font-size:12pt">Second</text>
<text x="56.662" y="-19.142" transform="scale(1, -1)"
	style="font-family:Helvetica;font-weight:normal;font-style:normal;font-size:10pt">0</text>
<text x="321.57" y="-19.142" transform="scale(1, -1)"
	style="font-family:Helvetica;font-weight:normal;font-style:normal;font-size:10pt">10</text>
<text x="589.96" y="-19.142" transform="scale(1, -1)"
	style="font-family:Helvetica;font-weight:normal;font-style:normal;font-size:10pt">20</text>
<text x="858.34" y="-19.142" transform="scale(1, -1)"
	style="font-family:Helvetica;font-weight:normal;font-style:normal;font-size:10pt">30</text>
<path d="M60.137,30.467L60.137,40.467" style="fill:none;stroke:#000000;stroke-width:0.625" />
<path d="M328.52,30.467L328.52,40.467" style="fill:none;stroke:#000000;stroke-width:0.625" />
<path d="M596.91,30.467L596.91,40.467" style="fill:none;stroke:#000000;stroke-width:0.625" />
<path d="M865.29,30.467L865.29,40.467" style="fill:none;stroke:#000000;stroke-width:0.625" />
<path d="M194.33,35.468L194.33,40.467" style="fill:none;stroke:#000000;stroke-width:0.625" />
<path d="M462.71,35.468L462.71,40.467" style="fill:none;stroke:#000000;stroke-width:0.625" />
<path d="M731.1,35.468L731.1,40.467" style="fill:none;stroke:#000000;stroke-width:0.625" />
<path d="M999.48,35.468L999.48,40.467" style="fill:none;stroke:#000000;stroke-width:0.625" />
<path d="M60.137,40.467L1080,40.467" style="fill:none;stroke:#000000;stroke-width:0.625" />
<g transform="rotate(90)">
<text x="305.89" y="13.59" transform="scale(1, -1)"
	style="font-family:Helvetica;font-weight:normal;font-style:normal;font-size:12pt">Latency(millisecond)</text>
</g>
<text x="18.555" y="-126.04" transform="scale(1, -1)"
	style="font-family:Helvetica;font-weight:normal;font-style:normal;font-size:10pt">100</text>
<text x="18.555" y="-241.26" transform="scale(1, -1)"
	style="font-family:Helvetica;font-weight:normal;font-style:normal;font-size:10pt">200</text>
<text x="18.555" y="-356.49" transform="scale(1, -1)"
	style="font-family:Helvetica;font-weight:normal;font-style:normal;font-size:10pt">300</text>
<text x="18.555" y="-471.71" transform="scale(1, -1)"
	style="font-family:Helvetica;font-weight:normal;font-style:normal;font-size:10pt">400</text>
<text x="18.555" y="-586.94" transform="scale(1, -1)"
	style="font-family:Helvetica;font-weight:normal;font-style:normal;font-size:10pt">500</text>
<path d="M42.88,131.41L52.88,131.41" style="fill:none;stroke:#000000;stroke-width:0.625" />
<path d="M42.88,246.63L52.88,246.63" style="fill:none;stroke:#000000;stroke-width:0.625" />
<path d="M42.88,361.85L52.88,361.85" style="fill:none;stroke:#000000;stroke-width:0.625" />
<path d="M42.88,477.08L52.88,477.08" style="fill:none;stroke:#000000;stroke-width:0.625" />
<path d="M42.88,592.3L52.88,592.3" style="fill:none;stroke:#000000;stroke-width:0.625" />
<path d="M47.88,73.793L52.88,73.793" style="fill:none;stroke:#000000;stroke-width:0.625" />
<path d="M47.88,189.02L52.88,189.02" style="fill:none;stroke:#000000;stroke-width:0.625" />
<path d="M47.88,304.24L52.88,304.24" style="fill:none;stroke:#000000;stroke-width:0.625" />
<path d="M47.88,419.47L52.88,419.47" style="fill:none;stroke:#000000;stroke-width:0.625" />
<path d="M47.88,534.69L52.88,534.69" style="fill:none;stroke:#000000;stroke-width:0.625" />
<path d="M47.88,649.92L52.88,649.92" style="fill:none;stroke:#000000;stroke-width:0.625" />
<path d="M52.88,47.03L52.88,701.44" style="fill:none;stroke:#000000;stroke-width:0.625" />
<path d="M60.137,68.262L86.976,47.03L113.81,59.724L140.65,64.685L167.49,62.145L194.33,71.363L221.17,82.301L248.01,83.972L274.85,93.737L301.68,89.833L328.52,86.644L355.36,112.7L382.2,90.131L409.04,161.74L435.88,92.218L462.71,107.39L489.55,126.09L516.39,114.74L543.23,124.43L570.07,124.1L596.91,328.36L623.75,184.97L650.58,143.73L677.42,162.8L704.26,126.1L731.1,75.863L757.94,211.15L784.78,82.251L811.62,538.01L838.45,129.3L865.29,84.601L892.13,102.56L918.97,177.06L945.81,91.445L972.65,107.53L999.48,701.44L1026.3,93.185L1053.2,168.29L1080,379.21" style="fill:none;stroke:#F15A60;stroke-width:1.875" />
<path d="M1055,694.3L1080,694.3" style="fill:none;stroke:#F15A60;stroke-width:1.875" />
<text x="1002.5" y="-687.85" transform="scale(1, -1)"
	style="font-family:Helvetica;font-weight:normal;font-style:normal;font-size:12pt">etcd v2</text>
</g>
</svg>
