<?xml version="1.0"?>
<!-- Generated by SVGo and Plotinum VG -->
<svg width="12in" height="8in"
	xmlns="http://www.w3.org/2000/svg"
	xmlns:xlink="http://www.w3.org/1999/xlink">
<g transform="scale(1, -1) translate(0, -720)">
<path d="M0,0L1080,0L1080,720L0,720Z" style="fill:#FFFFFF" />
<text x="278.63" y="-706.41" transform="scale(1, -1)"
	style="font-family:Helvetica;font-weight:normal;font-style:normal;font-size:12pt">Write 500K keys, 1000-client, 8-byte key, 256-byte value (etcd v2), Throughput</text>
<text x="556.97" y="-4.965" transform="scale(1, -1)"
	style="font-family:Helvetica;font-weight:normal;font-style:normal;font-size:12pt">Second</text>
<text x="81.337" y="-19.142" transform="scale(1, -1)"
	style="font-family:Helvetica;font-weight:normal;font-style:normal;font-size:10pt">0</text>
<text x="339.75" y="-19.142" transform="scale(1, -1)"
	style="font-family:Helvetica;font-weight:normal;font-style:normal;font-size:10pt">10</text>
<text x="601.65" y="-19.142" transform="scale(1, -1)"
	style="font-family:Helvetica;font-weight:normal;font-style:normal;font-size:10pt">20</text>
<text x="863.54" y="-19.142" transform="scale(1, -1)"
	style="font-family:Helvetica;font-weight:normal;font-style:normal;font-size:10pt">30</text>
<path d="M84.812,30.467L84.812,40.467" style="fill:none;stroke:#000000;stroke-width:0.625" />
<path d="M346.7,30.467L346.7,40.467" style="fill:none;stroke:#000000;stroke-width:0.625" />
<path d="M608.6,30.467L608.6,40.467" style="fill:none;stroke:#000000;stroke-width:0.625" />
<path d="M870.49,30.467L870.49,40.467" style="fill:none;stroke:#000000;stroke-width:0.625" />
<path d="M215.76,35.468L215.76,40.467" style="fill:none;stroke:#000000;stroke-width:0.625" />
<path d="M477.65,35.468L477.65,40.467" style="fill:none;stroke:#000000;stroke-width:0.625" />
<path d="M739.54,35.468L739.54,40.467" style="fill:none;stroke:#000000;stroke-width:0.625" />
<path d="M1001.4,35.468L1001.4,40.467" style="fill:none;stroke:#000000;stroke-width:0.625" />
<path d="M84.812,40.467L1080,40.467" style="fill:none;stroke:#000000;stroke-width:0.625" />
<g transform="rotate(90)">
<text x="335.88" y="13.59" transform="scale(1, -1)"
	style="font-family:Helvetica;font-weight:normal;font-style:normal;font-size:12pt">Throughput</text>
</g>
<text x="36.28" y="-218.73" transform="scale(1, -1)"
	style="font-family:Helvetica;font-weight:normal;font-style:normal;font-size:10pt">8000</text>
<text x="18.555" y="-406.98" transform="scale(1, -1)"
	style="font-family:Helvetica;font-weight:normal;font-style:normal;font-size:10pt">1.6e+04</text>
<text x="18.555" y="-595.22" transform="scale(1, -1)"
	style="font-family:Helvetica;font-weight:normal;font-style:normal;font-size:10pt">2.4e+04</text>
<path d="M67.555,224.1L77.555,224.1" style="fill:none;stroke:#000000;stroke-width:0.625" />
<path d="M67.555,412.35L77.555,412.35" style="fill:none;stroke:#000000;stroke-width:0.625" />
<path d="M67.555,600.59L77.555,600.59" style="fill:none;stroke:#000000;stroke-width:0.625" />
<path d="M72.555,129.98L77.555,129.98" style="fill:none;stroke:#000000;stroke-width:0.625" />
<path d="M72.555,318.22L77.555,318.22" style="fill:none;stroke:#000000;stroke-width:0.625" />
<path d="M72.555,506.47L77.555,506.47" style="fill:none;stroke:#000000;stroke-width:0.625" />
<path d="M72.555,694.72L77.555,694.72" style="fill:none;stroke:#000000;stroke-width:0.625" />
<path d="M77.555,47.03L77.555,701.44" style="fill:none;stroke:#000000;stroke-width:0.625" />
<path d="M84.812,66.372L111,701.44L137.19,638.9L163.38,588.33L189.57,574.05L215.76,510.23L241.95,479.22L268.14,396.2L294.33,415.85L320.51,375.78L346.7,415.55L372.89,314.53L399.08,417.22L425.27,223.18L451.46,384.56L477.65,277.56L503.84,276.34L530.03,319.54L556.22,309.54L582.41,297.75L608.6,122.68L634.78,181.72L660.97,179.93L687.16,270.74L713.35,221.53L739.54,286.9L765.73,152.45L791.92,198.07L818.11,49.195L844.3,244.15L870.49,272.13L896.68,278.29L922.87,160.99L949.05,161.08L975.24,272.53L1001.4,47.03L1027.6,180.1L1053.8,96.656L1080,58.231" style="fill:none;stroke:#F15A60;stroke-width:1.875" />
<path d="M1055,694.3L1080,694.3" style="fill:none;stroke:#F15A60;stroke-width:1.875" />
<text x="1002.5" y="-687.85" transform="scale(1, -1)"
	style="font-family:Helvetica;font-weight:normal;font-style:normal;font-size:12pt">etcd v2</text>
</g>
</svg>
