<?xml version="1.0"?>
<!-- Generated by SVGo and Plotinum VG -->
<svg width="12in" height="8in"
	xmlns="http://www.w3.org/2000/svg"
	xmlns:xlink="http://www.w3.org/1999/xlink">
<g transform="scale(1, -1) translate(0, -720)">
<path d="M0,0L1080,0L1080,720L0,720Z" style="fill:#FFFFFF" />
<text x="283.24" y="-706.41" transform="scale(1, -1)"
	style="font-family:Helvetica;font-weight:normal;font-style:normal;font-size:12pt">Write 1M keys, 1000-client, 8-byte key, 256-byte value (etcd v2, Test 1), CPU</text>
<text x="544.64" y="-4.965" transform="scale(1, -1)"
	style="font-family:Helvetica;font-weight:normal;font-style:normal;font-size:12pt">Second</text>
<text x="56.662" y="-19.142" transform="scale(1, -1)"
	style="font-family:Helvetica;font-weight:normal;font-style:normal;font-size:10pt">0</text>
<text x="388.94" y="-19.142" transform="scale(1, -1)"
	style="font-family:Helvetica;font-weight:normal;font-style:normal;font-size:10pt">80</text>
<text x="721.23" y="-19.142" transform="scale(1, -1)"
	style="font-family:Helvetica;font-weight:normal;font-style:normal;font-size:10pt">160</text>
<text x="1057" y="-19.142" transform="scale(1, -1)"
	style="font-family:Helvetica;font-weight:normal;font-style:normal;font-size:10pt">240</text>
<path d="M60.137,30.467L60.137,40.467" style="fill:none;stroke:#000000;stroke-width:0.625" />
<path d="M395.89,30.467L395.89,40.467" style="fill:none;stroke:#000000;stroke-width:0.625" />
<path d="M731.65,30.467L731.65,40.467" style="fill:none;stroke:#000000;stroke-width:0.625" />
<path d="M1067.4,30.467L1067.4,40.467" style="fill:none;stroke:#000000;stroke-width:0.625" />
<path d="M228.02,35.468L228.02,40.467" style="fill:none;stroke:#000000;stroke-width:0.625" />
<path d="M563.77,35.468L563.77,40.467" style="fill:none;stroke:#000000;stroke-width:0.625" />
<path d="M899.53,35.468L899.53,40.467" style="fill:none;stroke:#000000;stroke-width:0.625" />
<path d="M60.137,40.467L1080,40.467" style="fill:none;stroke:#000000;stroke-width:0.625" />
<g transform="rotate(90)">
<text x="358.4" y="13.59" transform="scale(1, -1)"
	style="font-family:Helvetica;font-weight:normal;font-style:normal;font-size:12pt">CPU</text>
</g>
<text x="18.555" y="-204.43" transform="scale(1, -1)"
	style="font-family:Helvetica;font-weight:normal;font-style:normal;font-size:10pt">100</text>
<text x="18.555" y="-371.3" transform="scale(1, -1)"
	style="font-family:Helvetica;font-weight:normal;font-style:normal;font-size:10pt">200</text>
<text x="18.555" y="-538.17" transform="scale(1, -1)"
	style="font-family:Helvetica;font-weight:normal;font-style:normal;font-size:10pt">300</text>
<path d="M42.88,209.8L52.88,209.8" style="fill:none;stroke:#000000;stroke-width:0.625" />
<path d="M42.88,376.67L52.88,376.67" style="fill:none;stroke:#000000;stroke-width:0.625" />
<path d="M42.88,543.54L52.88,543.54" style="fill:none;stroke:#000000;stroke-width:0.625" />
<path d="M47.88,126.36L52.88,126.36" style="fill:none;stroke:#000000;stroke-width:0.625" />
<path d="M47.88,293.23L52.88,293.23" style="fill:none;stroke:#000000;stroke-width:0.625" />
<path d="M47.88,460.1L52.88,460.1" style="fill:none;stroke:#000000;stroke-width:0.625" />
<path d="M47.88,626.97L52.88,626.97" style="fill:none;stroke:#000000;stroke-width:0.625" />
<path d="M52.88,47.03L52.88,701.44" style="fill:none;stroke:#000000;stroke-width:0.625" />
<path d="M60.137,47.03L64.334,126.91L68.531,197.26L72.728,261.84L76.925,317.13L81.122,367.47L85.319,408.07L89.516,443.85L93.713,478.94L97.91,508.43L102.11,537.53L106.3,561.47L110.5,584.34L114.7,605.36L118.9,624.93L123.09,637.87L127.29,653.6L131.49,667.99L135.68,682.84L139.88,695.39L144.08,701.44L148.27,698.04L152.47,694.87L156.67,682.94L160.86,673.38L165.06,662.76L169.26,648.1L173.46,631.48L177.65,614.29L181.85,599.95L186.05,585.75L190.24,572.14L194.44,559.69L198.64,548.93L202.83,538.38L207.03,529.52L211.23,519.44L215.43,509.23L219.62,505.57L223.82,511.08L228.02,522.14L232.21,534.93L236.41,546.71L240.61,557.87L244.8,567.3L249,575.72L253.2,585.97L257.39,596.28L261.59,601.97L265.79,605.23L269.99,606.3L274.18,607.01L278.38,600.15L282.58,594.75L286.77,588.72L290.97,580.05L295.17,571.72L299.36,563.18L303.56,555.52L307.76,548.84L311.96,542.25L316.15,535.39L320.35,528.43L324.55,521.49L328.74,515.35L332.94,509.31L337.14,503.27L341.33,497.03L345.53,490.84L349.73,486.17L353.93,481.63L358.12,476.29L362.32,471.1L366.52,464.91L370.71,462.97L374.91,466.19L379.11,470.11L383.3,477.61L387.5,485.55L391.7,493.83L395.89,500.78L400.09,507.94L404.29,515.1L408.49,520.44L412.68,527.08L416.88,530.45L421.08,532.61L425.27,533.01L429.47,533.19L433.67,531.75L437.86,530.82L442.06,527.5L446.26,524.3L450.46,519.72L454.65,514.48L458.85,510.95L463.05,507.49L467.24,503.92L471.44,500.1L475.64,496.16L479.83,492.17L484.03,488.25L488.23,484.18L492.42,480.16L496.62,476.44L500.82,472.7L505.02,469.06L509.21,465.52L513.41,461.35L517.61,458.38L521.8,456.03L526,453.31L530.2,449.89L534.39,446.57L538.59,443.26L542.79,439.98L546.99,436.94L551.18,433.4L555.38,430.46L559.58,427.59L563.77,424.74L567.97,421.94L572.17,419.08L576.36,416.73L580.56,414.33L584.76,411.62L588.96,409.04L593.15,406.74L597.35,404.35L601.55,400.83L605.74,398.69L609.94,396.47L614.14,394.44L618.33,392.35L622.53,389.91L626.73,387.38L630.92,385.36L635.12,383.37L639.32,381.15L643.52,379.3L647.71,377.47L651.91,375.53L656.11,373.96L660.3,374.3L664.5,375.96L668.7,378.8L672.89,382.71L677.09,387.55L681.29,392.2L685.49,397.47L689.68,401.88L693.88,406.62L698.08,410.96L702.27,415.58L706.47,419.68L710.67,423.89L714.86,427.44L719.06,430.73L723.26,432.92L727.45,435.87L731.65,437.56L735.85,439.01L740.05,440.38L744.24,439.96L748.44,438.26L752.64,436.47L756.83,434.92L761.03,433.45L765.23,432.47L769.42,430.05L773.62,428.36L777.82,426.29L782.02,424.57L786.21,422.94L790.41,421.25L794.61,419.48L798.8,417.88L803,416.11L807.2,414.33L811.39,412.31L815.59,410.36L819.79,408.52L823.99,406.64L828.18,405.1L832.38,403.58L836.58,401.86L840.77,400.13L844.97,398.43L849.17,396.46L853.36,394.7L857.56,393.47L861.76,391.98L865.95,390.38L870.15,388.8L874.35,387.41L878.55,386.44L882.74,385.48L886.94,384.83L891.14,383.96L895.33,383.09L899.53,381.57L903.73,380.14L907.92,378.88L912.12,377.75L916.32,376.28L920.52,374.56L924.71,373.31L928.91,372.38L933.11,371.13L937.3,369.71L941.5,368.31L945.7,367.02L949.89,365.75L954.09,364.4L958.29,363L962.48,361.6L966.68,360.3L970.88,359.03L975.08,357.73L979.27,356.37L983.47,355.04L987.67,353.79L991.86,352.55L996.06,351.3L1000.3,350.05L1004.5,348.81L1008.7,347.68L1012.8,346.76L1017,345.83L1021.2,345.41L1025.4,344.56L1029.6,343.69L1033.8,343.14L1038,342.62L1042.2,342.99L1046.4,343.01L1050.6,344.01L1054.8,345.44L1059,347.4L1063.2,349.02L1067.4,351.08L1071.6,352.79L1075.8,354.54L1080,356.91" style="fill:none;stroke:#F15A60;stroke-width:1.875" />
<path d="M1055,694.3L1080,694.3" style="fill:none;stroke:#F15A60;stroke-width:1.875" />
<text x="1002.5" y="-687.85" transform="scale(1, -1)"
	style="font-family:Helvetica;font-weight:normal;font-style:normal;font-size:12pt">etcd v2</text>
</g>
</svg>
