<?xml version="1.0"?>
<!-- Generated by SVGo and Plotinum VG -->
<svg width="12in" height="8in"
	xmlns="http://www.w3.org/2000/svg"
	xmlns:xlink="http://www.w3.org/1999/xlink">
<g transform="scale(1, -1) translate(0, -720)">
<path d="M0,0L1080,0L1080,720L0,720Z" style="fill:#FFFFFF" />
<text x="230.72" y="-706.41" transform="scale(1, -1)"
	style="font-family:Helvetica;font-weight:normal;font-style:normal;font-size:12pt">Write 1M keys, 1000-client, 8-byte key, 256-byte value (etcd v2, Test 1), Latency(millisecond)</text>
<text x="544.64" y="-4.965" transform="scale(1, -1)"
	style="font-family:Helvetica;font-weight:normal;font-style:normal;font-size:12pt">Second</text>
<text x="56.662" y="-19.142" transform="scale(1, -1)"
	style="font-family:Helvetica;font-weight:normal;font-style:normal;font-size:10pt">0</text>
<text x="387.57" y="-19.142" transform="scale(1, -1)"
	style="font-family:Helvetica;font-weight:normal;font-style:normal;font-size:10pt">80</text>
<text x="718.47" y="-19.142" transform="scale(1, -1)"
	style="font-family:Helvetica;font-weight:normal;font-style:normal;font-size:10pt">160</text>
<text x="1052.9" y="-19.142" transform="scale(1, -1)"
	style="font-family:Helvetica;font-weight:normal;font-style:normal;font-size:10pt">240</text>
<path d="M60.137,30.467L60.137,40.467" style="fill:none;stroke:#000000;stroke-width:0.625" />
<path d="M394.52,30.467L394.52,40.467" style="fill:none;stroke:#000000;stroke-width:0.625" />
<path d="M728.9,30.467L728.9,40.467" style="fill:none;stroke:#000000;stroke-width:0.625" />
<path d="M1063.3,30.467L1063.3,40.467" style="fill:none;stroke:#000000;stroke-width:0.625" />
<path d="M227.33,35.468L227.33,40.467" style="fill:none;stroke:#000000;stroke-width:0.625" />
<path d="M561.71,35.468L561.71,40.467" style="fill:none;stroke:#000000;stroke-width:0.625" />
<path d="M896.09,35.468L896.09,40.467" style="fill:none;stroke:#000000;stroke-width:0.625" />
<path d="M60.137,40.467L1080,40.467" style="fill:none;stroke:#000000;stroke-width:0.625" />
<g transform="rotate(90)">
<text x="305.89" y="13.59" transform="scale(1, -1)"
	style="font-family:Helvetica;font-weight:normal;font-style:normal;font-size:12pt">Latency(millisecond)</text>
</g>
<text x="32.455" y="-41.661" transform="scale(1, -1)"
	style="font-family:Helvetica;font-weight:normal;font-style:normal;font-size:10pt">0</text>
<text x="18.555" y="-188.55" transform="scale(1, -1)"
	style="font-family:Helvetica;font-weight:normal;font-style:normal;font-size:10pt">200</text>
<text x="18.555" y="-335.45" transform="scale(1, -1)"
	style="font-family:Helvetica;font-weight:normal;font-style:normal;font-size:10pt">400</text>
<text x="18.555" y="-482.34" transform="scale(1, -1)"
	style="font-family:Helvetica;font-weight:normal;font-style:normal;font-size:10pt">600</text>
<text x="18.555" y="-629.23" transform="scale(1, -1)"
	style="font-family:Helvetica;font-weight:normal;font-style:normal;font-size:10pt">800</text>
<path d="M42.88,47.03L52.88,47.03" style="fill:none;stroke:#000000;stroke-width:0.625" />
<path d="M42.88,193.92L52.88,193.92" style="fill:none;stroke:#000000;stroke-width:0.625" />
<path d="M42.88,340.82L52.88,340.82" style="fill:none;stroke:#000000;stroke-width:0.625" />
<path d="M42.88,487.71L52.88,487.71" style="fill:none;stroke:#000000;stroke-width:0.625" />
<path d="M42.88,634.6L52.88,634.6" style="fill:none;stroke:#000000;stroke-width:0.625" />
<path d="M47.88,120.48L52.88,120.48" style="fill:none;stroke:#000000;stroke-width:0.625" />
<path d="M47.88,267.37L52.88,267.37" style="fill:none;stroke:#000000;stroke-width:0.625" />
<path d="M47.88,414.26L52.88,414.26" style="fill:none;stroke:#000000;stroke-width:0.625" />
<path d="M47.88,561.15L52.88,561.15" style="fill:none;stroke:#000000;stroke-width:0.625" />
<path d="M52.88,47.03L52.88,701.44" style="fill:none;stroke:#000000;stroke-width:0.625" />
<path d="M60.137,65.809L64.317,69.916L68.497,75.932L72.677,80.913L76.857,85.589L81.036,87.617L85.216,87.879L89.396,93.184L93.576,94.23L97.755,104.74L101.94,90.04L106.11,104.94L110.29,139.38L114.47,111.1L118.65,96.904L122.83,107.48L127.01,130.88L131.19,126.49L135.37,118.93L139.55,276.75L143.73,144.85L147.91,90.022L152.09,297.89L156.27,504.79L160.45,47.03L164.63,546.3L168.81,47.03L172.99,47.03L177.17,47.03L181.35,47.03L185.53,47.03L189.71,47.03L193.89,47.03L198.07,47.03L202.25,47.03L206.43,47.03L210.61,47.03L214.79,194.14L218.97,91.071L223.15,103.46L227.33,124.78L231.51,123.54L235.69,205.17L239.87,100.39L244.05,129.18L248.23,123.79L252.41,100.79L256.59,677.94L260.77,254.26L264.95,47.03L269.13,47.03L273.31,422.93L277.49,47.03L281.67,222.51L285.84,47.03L290.02,47.03L294.2,47.03L298.38,47.03L302.56,47.03L306.74,47.03L310.92,47.03L315.1,47.03L319.28,47.03L323.46,47.03L327.64,47.03L331.82,47.03L336,47.03L340.18,47.03L344.36,47.03L348.54,47.03L352.72,47.03L356.9,47.03L361.08,47.03L365.26,47.03L369.44,291.45L373.62,107.37L377.8,100.9L381.98,109.82L386.16,104.88L390.34,159.18L394.52,102.9L398.7,506.65L402.88,118.1L407.06,563.05L411.24,101.55L415.42,552.04L419.6,311.88L423.78,541.23L427.96,47.03L432.14,47.03L436.32,47.03L440.5,47.03L444.68,47.03L448.86,47.03L453.04,47.03L457.22,47.03L461.39,47.03L465.57,47.03L469.75,47.03L473.93,47.03L478.11,47.03L482.29,47.03L486.47,47.03L490.65,47.03L494.83,47.03L499.01,47.03L503.19,47.03L507.37,47.03L511.55,47.03L515.73,47.03L519.91,47.03L524.09,47.03L528.27,47.03L532.45,47.03L536.63,47.03L540.81,47.03L544.99,47.03L549.17,47.03L553.35,47.03L557.53,47.03L561.71,47.03L565.89,47.03L570.07,47.03L574.25,47.03L578.43,47.03L582.61,47.03L586.79,47.03L590.97,47.03L595.15,47.03L599.33,47.03L603.51,47.03L607.69,47.03L611.87,47.03L616.05,47.03L620.23,47.03L624.41,47.03L628.59,47.03L632.77,47.03L636.94,47.03L641.12,47.03L645.3,47.03L649.48,701.44L653.66,104.46L657.84,97.282L662.02,80.325L666.2,93.359L670.38,119.54L674.56,96.782L678.74,47.03L682.92,130.34L687.1,297.07L691.28,106.78L695.46,159.6L699.64,105.79L703.82,253.2L708,163.02L712.18,224.61L716.36,161.46L720.54,205.32L724.72,636.88L728.9,47.03L733.08,47.03L737.26,47.03L741.44,47.03L745.62,47.03L749.8,47.03L753.98,47.03L758.16,47.03L762.34,47.03L766.52,47.03L770.7,47.03L774.88,47.03L779.06,47.03L783.24,47.03L787.42,47.03L791.6,47.03L795.78,47.03L799.96,47.03L804.14,47.03L808.32,47.03L812.5,47.03L816.67,47.03L820.85,47.03L825.03,47.03L829.21,47.03L833.39,47.03L837.57,47.03L841.75,47.03L845.93,47.03L850.11,47.03L854.29,47.03L858.47,47.03L862.65,47.03L866.83,47.03L871.01,641.2L875.19,47.03L879.37,47.03L883.55,47.03L887.73,47.03L891.91,47.03L896.09,47.03L900.27,47.03L904.45,47.03L908.63,47.03L912.81,47.03L916.99,47.03L921.17,47.03L925.35,47.03L929.53,47.03L933.71,47.03L937.89,47.03L942.07,47.03L946.25,47.03L950.43,47.03L954.61,47.03L958.79,47.03L962.97,47.03L967.15,47.03L971.33,47.03L975.51,47.03L979.69,47.03L983.87,47.03L988.05,47.03L992.22,47.03L996.4,47.03L1000.6,47.03L1004.8,47.03L1008.9,47.03L1013.1,47.03L1017.3,47.03L1021.5,47.03L1025.7,47.03L1029.8,47.03L1034,69.444L1038.2,61.026L1042.4,69.378L1046.6,60.992L1050.7,56.975L1054.9,56.749L1059.1,59.211L1063.3,56.062L1067.5,61.421L1071.6,57.295L1075.8,66.12L1080,57.986" style="fill:none;stroke:#F15A60;stroke-width:1.875" />
<path d="M1055,694.3L1080,694.3" style="fill:none;stroke:#F15A60;stroke-width:1.875" />
<text x="1002.5" y="-687.85" transform="scale(1, -1)"
	style="font-family:Helvetica;font-weight:normal;font-style:normal;font-size:12pt">etcd v2</text>
</g>
</svg>
