<?xml version="1.0"?>
<!-- Generated by SVGo and Plotinum VG -->
<svg width="12in" height="8in"
	xmlns="http://www.w3.org/2000/svg"
	xmlns:xlink="http://www.w3.org/1999/xlink">
<g transform="scale(1, -1) translate(0, -720)">
<path d="M0,0L1080,0L1080,720L0,720Z" style="fill:#FFFFFF" />
<text x="283.24" y="-706.41" transform="scale(1, -1)"
	style="font-family:Helvetica;font-weight:normal;font-style:normal;font-size:12pt">Write 1M keys, 1000-client, 8-byte key, 256-byte value (etcd v2, Test 2), CPU</text>
<text x="544.64" y="-4.965" transform="scale(1, -1)"
	style="font-family:Helvetica;font-weight:normal;font-style:normal;font-size:12pt">Second</text>
<text x="56.662" y="-19.142" transform="scale(1, -1)"
	style="font-family:Helvetica;font-weight:normal;font-style:normal;font-size:10pt">0</text>
<text x="337.81" y="-19.142" transform="scale(1, -1)"
	style="font-family:Helvetica;font-weight:normal;font-style:normal;font-size:10pt">100</text>
<text x="625.91" y="-19.142" transform="scale(1, -1)"
	style="font-family:Helvetica;font-weight:normal;font-style:normal;font-size:10pt">200</text>
<text x="914" y="-19.142" transform="scale(1, -1)"
	style="font-family:Helvetica;font-weight:normal;font-style:normal;font-size:10pt">300</text>
<path d="M60.137,30.467L60.137,40.467" style="fill:none;stroke:#000000;stroke-width:0.625" />
<path d="M348.23,30.467L348.23,40.467" style="fill:none;stroke:#000000;stroke-width:0.625" />
<path d="M636.33,30.467L636.33,40.467" style="fill:none;stroke:#000000;stroke-width:0.625" />
<path d="M924.43,30.467L924.43,40.467" style="fill:none;stroke:#000000;stroke-width:0.625" />
<path d="M204.19,35.468L204.19,40.467" style="fill:none;stroke:#000000;stroke-width:0.625" />
<path d="M492.28,35.468L492.28,40.467" style="fill:none;stroke:#000000;stroke-width:0.625" />
<path d="M780.38,35.468L780.38,40.467" style="fill:none;stroke:#000000;stroke-width:0.625" />
<path d="M1068.5,35.468L1068.5,40.467" style="fill:none;stroke:#000000;stroke-width:0.625" />
<path d="M60.137,40.467L1080,40.467" style="fill:none;stroke:#000000;stroke-width:0.625" />
<g transform="rotate(90)">
<text x="358.4" y="13.59" transform="scale(1, -1)"
	style="font-family:Helvetica;font-weight:normal;font-style:normal;font-size:12pt">CPU</text>
</g>
<text x="18.555" y="-200" transform="scale(1, -1)"
	style="font-family:Helvetica;font-weight:normal;font-style:normal;font-size:10pt">100</text>
<text x="18.555" y="-363.32" transform="scale(1, -1)"
	style="font-family:Helvetica;font-weight:normal;font-style:normal;font-size:10pt">200</text>
<text x="18.555" y="-526.65" transform="scale(1, -1)"
	style="font-family:Helvetica;font-weight:normal;font-style:normal;font-size:10pt">300</text>
<text x="18.555" y="-689.97" transform="scale(1, -1)"
	style="font-family:Helvetica;font-weight:normal;font-style:normal;font-size:10pt">400</text>
<path d="M42.88,205.37L52.88,205.37" style="fill:none;stroke:#000000;stroke-width:0.625" />
<path d="M42.88,368.69L52.88,368.69" style="fill:none;stroke:#000000;stroke-width:0.625" />
<path d="M42.88,532.01L52.88,532.01" style="fill:none;stroke:#000000;stroke-width:0.625" />
<path d="M42.88,695.34L52.88,695.34" style="fill:none;stroke:#000000;stroke-width:0.625" />
<path d="M47.88,123.71L52.88,123.71" style="fill:none;stroke:#000000;stroke-width:0.625" />
<path d="M47.88,287.03L52.88,287.03" style="fill:none;stroke:#000000;stroke-width:0.625" />
<path d="M47.88,450.35L52.88,450.35" style="fill:none;stroke:#000000;stroke-width:0.625" />
<path d="M47.88,613.68L52.88,613.68" style="fill:none;stroke:#000000;stroke-width:0.625" />
<path d="M52.88,47.03L52.88,701.44" style="fill:none;stroke:#000000;stroke-width:0.625" />
<path d="M60.137,47.03L63.018,126.4L65.899,195.05L68.78,257.5L71.661,307.79L74.542,353.5L77.423,394.15L80.304,428.76L83.185,460.55L86.066,487.59L88.947,513.54L91.828,533.75L94.709,557.02L97.59,579.15L100.47,596.35L103.35,613.63L106.23,629.09L109.11,643.97L111.99,657.5L114.88,668.78L117.76,677.75L120.64,685.21L123.52,693.49L126.4,698.72L129.28,700.19L132.16,701.44L135.04,701L137.92,699.22L140.8,696.3L143.69,688.72L146.57,680.51L149.45,676.85L152.33,674.97L155.21,674.45L158.09,675.64L160.97,674.91L163.85,671.87L166.73,674.92L169.61,675.56L172.5,674.22L175.38,678.14L178.26,679.25L181.14,680.49L184.02,682.04L186.9,679.45L189.78,672.31L192.66,668.7L195.54,661.87L198.42,652.92L201.3,644.3L204.19,637.49L207.07,627.85L209.95,619.18L212.83,610.46L215.71,601.54L218.59,593.33L221.47,585.32L224.35,577.22L227.23,569.37L230.11,561.82L233,553.97L235.88,546.49L238.76,539.74L241.64,532.93L244.52,526.28L247.4,519.11L250.28,513.69L253.16,508.37L256.04,502.47L258.92,496.26L261.81,492.52L264.69,491.38L267.57,492.26L270.45,493.93L273.33,495.79L276.21,496.8L279.09,499.14L281.97,497.41L284.85,497.42L287.73,493.91L290.61,490.58L293.5,485.93L296.38,483.08L299.26,481.12L302.14,479.18L305.02,477.69L307.9,476.55L310.78,477.66L313.66,479.74L316.54,479.44L319.42,479.8L322.31,480.93L325.19,482.46L328.07,485.42L330.95,487.59L333.83,489.84L336.71,491.77L339.59,492.9L342.47,492.15L345.35,492.46L348.23,490.32L351.12,487.36L354,484.49L356.88,481.78L359.76,478.59L362.64,476.19L365.52,474.85L368.4,473.14L371.28,470.9L374.16,468.11L377.04,465.87L379.92,463.19L382.81,460.45L385.69,457.64L388.57,454.96L391.45,452.4L394.33,449.42L397.21,446.55L400.09,443.69L402.97,440.77L405.85,437.84L408.73,434.94L411.62,431.8L414.5,428.66L417.38,425.9L420.26,423.18L423.14,420.48L426.02,418.08L428.9,415.7L431.78,413.64L434.66,411.14L437.54,408.64L440.43,406.58L443.31,404.31L446.19,402.04L449.07,400.02L451.95,398.22L454.83,396.47L457.71,394.51L460.59,392.28L463.47,390.97L466.35,388.91L469.23,387.41L472.12,386.58L475,384.85L477.88,383.1L480.76,381.58L483.64,379.42L486.52,377.41L489.4,375.44L492.28,373.49L495.16,371.49L498.04,369.28L500.93,367.19L503.81,365.49L506.69,363.96L509.57,363.04L512.45,364.01L515.33,364.76L518.21,366.05L521.09,367.94L523.97,370.18L526.85,372.81L529.74,374.9L532.62,378.64L535.5,380.79L538.38,383.85L541.26,385.74L544.14,388.55L547.02,392.06L549.9,395.8L552.78,399.71L555.66,403.07L558.54,406.49L561.43,410.47L564.31,414.34L567.19,417.44L570.07,420.74L572.95,422.21L575.83,422.83L578.71,423.13L581.59,422L584.47,420.3L587.35,418.54L590.24,416.79L593.12,415.58L596,415.84L598.88,415.17L601.76,413.3L604.64,411.42L607.52,409.67L610.4,407.94L613.28,406.47L616.16,405.02L619.05,403.27L621.93,401.81L624.81,400.18L627.69,398.71L630.57,397.26L633.45,395.67L636.33,394.09L639.21,392.52L642.09,391.08L644.97,389.6L647.85,388.1L650.74,386.63L653.62,385.14L656.5,383.65L659.38,381.86L662.26,380.4L665.14,379.01L668.02,377.61L670.9,375.94L673.78,374.82L676.66,373.71L679.55,372.32L682.43,370.95L685.31,369.61L688.19,368.3L691.07,367.01L693.95,365.7L696.83,364.32L699.71,362.83L702.59,361.64L705.47,360.84L708.36,360.17L711.24,359.48L714.12,358.91L717,358.93L719.88,358.93L722.76,358.37L725.64,357.24L728.52,356.12L731.4,355.48L734.28,354.66L737.16,353.49L740.05,352.28L742.93,351.33L745.81,350.34L748.69,349.18L751.57,348.05L754.45,346.91L757.33,345.94L760.21,345.06L763.09,344.16L765.97,343.51L768.86,342.84L771.74,341.96L774.62,341.43L777.5,341.74L780.38,342.33L783.26,343.35L786.14,345.19L789.02,346.91L791.9,349.68L794.78,352.43L797.67,354.99L800.55,358.62L803.43,361.75L806.31,364.54L809.19,368.01L812.07,371.13L814.95,374.02L817.83,377.09L820.71,379.96L823.59,382.59L826.47,385.34L829.36,387.54L832.24,389.09L835.12,390.89L838,391.95L840.88,392.68L843.76,393.32L846.64,393.55L849.52,393.29L852.4,392.24L855.28,391.21L858.17,391.53L861.05,390.87L863.93,389.78L866.81,388.96L869.69,387.95L872.57,386.79L875.45,385.6L878.33,384.42L881.21,383.31L884.09,382.23L886.98,381.15L889.86,380.08L892.74,378.98L895.62,378.08L898.5,377.17L901.38,376.12L904.26,375.09L907.14,374.05L910.02,373.04L912.9,371.96L915.78,370.88L918.67,369.77L921.55,368.87L924.43,368.02L927.31,367.04L930.19,366.06L933.07,365.07L935.95,364.22L938.83,363.37L941.71,362.37L944.59,361.38L947.48,360.43L950.36,359.47L953.24,358.55L956.12,357.59L959,356.64L961.88,355.72L964.76,354.78L967.64,353.9L970.52,353.28L973.4,352.85L976.29,352.43L979.17,352.02L982.05,351.94L984.93,351.79L987.81,351.61L990.69,351.43L993.57,351.51L996.45,351.54L999.33,351.12L1002.2,350.35L1005.1,349.5L1008,348.62L1010.9,347.74L1013.7,346.95L1016.6,346.11L1019.5,345.26L1022.4,344.39L1025.3,343.54L1028.1,342.74L1031,341.84L1033.9,341.25L1036.8,340.63L1039.7,339.96L1042.5,339.31L1045.4,338.53L1048.3,337.71L1051.2,336.89L1054.1,336.13L1057,335.38L1059.8,334.64L1062.7,334.25L1065.6,334.82L1068.5,336.01L1071.4,336.8L1074.2,337.97L1077.1,339.83L1080,342.25" style="fill:none;stroke:#F15A60;stroke-width:1.875" />
<path d="M1055,694.3L1080,694.3" style="fill:none;stroke:#F15A60;stroke-width:1.875" />
<text x="1002.5" y="-687.85" transform="scale(1, -1)"
	style="font-family:Helvetica;font-weight:normal;font-style:normal;font-size:12pt">etcd v2</text>
</g>
</svg>
