<?xml version="1.0"?>
<!-- Generated by SVGo and Plotinum VG -->
<svg width="12in" height="8in"
	xmlns="http://www.w3.org/2000/svg"
	xmlns:xlink="http://www.w3.org/1999/xlink">
<g transform="scale(1, -1) translate(0, -720)">
<path d="M0,0L1080,0L1080,720L0,720Z" style="fill:#FFFFFF" />
<text x="255.74" y="-706.41" transform="scale(1, -1)"
	style="font-family:Helvetica;font-weight:normal;font-style:normal;font-size:12pt">Write 1M keys, 1000-client, 8-byte key, 256-byte value (etcd v2, Test 2), Memory(MB)</text>
<text x="548.11" y="-4.965" transform="scale(1, -1)"
	style="font-family:Helvetica;font-weight:normal;font-style:normal;font-size:12pt">Second</text>
<text x="63.613" y="-19.142" transform="scale(1, -1)"
	style="font-family:Helvetica;font-weight:normal;font-style:normal;font-size:10pt">0</text>
<text x="342.8" y="-19.142" transform="scale(1, -1)"
	style="font-family:Helvetica;font-weight:normal;font-style:normal;font-size:10pt">100</text>
<text x="628.93" y="-19.142" transform="scale(1, -1)"
	style="font-family:Helvetica;font-weight:normal;font-style:normal;font-size:10pt">200</text>
<text x="915.06" y="-19.142" transform="scale(1, -1)"
	style="font-family:Helvetica;font-weight:normal;font-style:normal;font-size:10pt">300</text>
<path d="M67.088,30.467L67.088,40.467" style="fill:none;stroke:#000000;stroke-width:0.625" />
<path d="M353.22,30.467L353.22,40.467" style="fill:none;stroke:#000000;stroke-width:0.625" />
<path d="M639.35,30.467L639.35,40.467" style="fill:none;stroke:#000000;stroke-width:0.625" />
<path d="M925.49,30.467L925.49,40.467" style="fill:none;stroke:#000000;stroke-width:0.625" />
<path d="M210.15,35.468L210.15,40.467" style="fill:none;stroke:#000000;stroke-width:0.625" />
<path d="M496.29,35.468L496.29,40.467" style="fill:none;stroke:#000000;stroke-width:0.625" />
<path d="M782.42,35.468L782.42,40.467" style="fill:none;stroke:#000000;stroke-width:0.625" />
<path d="M1068.6,35.468L1068.6,40.467" style="fill:none;stroke:#000000;stroke-width:0.625" />
<path d="M67.088,40.467L1080,40.467" style="fill:none;stroke:#000000;stroke-width:0.625" />
<g transform="rotate(90)">
<text x="330.91" y="13.59" transform="scale(1, -1)"
	style="font-family:Helvetica;font-weight:normal;font-style:normal;font-size:12pt">Memory(MB)</text>
</g>
<text x="18.555" y="-235.91" transform="scale(1, -1)"
	style="font-family:Helvetica;font-weight:normal;font-style:normal;font-size:10pt">2000</text>
<text x="18.555" y="-431.94" transform="scale(1, -1)"
	style="font-family:Helvetica;font-weight:normal;font-style:normal;font-size:10pt">4000</text>
<text x="18.555" y="-627.97" transform="scale(1, -1)"
	style="font-family:Helvetica;font-weight:normal;font-style:normal;font-size:10pt">6000</text>
<path d="M49.83,241.28L59.83,241.28" style="fill:none;stroke:#000000;stroke-width:0.625" />
<path d="M49.83,437.31L59.83,437.31" style="fill:none;stroke:#000000;stroke-width:0.625" />
<path d="M49.83,633.34L59.83,633.34" style="fill:none;stroke:#000000;stroke-width:0.625" />
<path d="M54.83,143.27L59.83,143.27" style="fill:none;stroke:#000000;stroke-width:0.625" />
<path d="M54.83,339.3L59.83,339.3" style="fill:none;stroke:#000000;stroke-width:0.625" />
<path d="M54.83,535.32L59.83,535.32" style="fill:none;stroke:#000000;stroke-width:0.625" />
<path d="M59.83,47.03L59.83,701.44" style="fill:none;stroke:#000000;stroke-width:0.625" />
<path d="M67.088,47.03L69.949,57.431L72.81,64.886L75.672,79.337L78.533,84.749L81.394,93.027L84.256,107.22L87.117,115.33L89.978,128.16L92.84,136.65L95.701,140.11L98.562,140.19L101.42,155.96L104.28,163.81L107.15,177.76L110.01,183.79L112.87,199.81L115.73,205.98L118.59,213.28L121.45,217.58L124.31,217.59L127.18,221.61L130.04,221.64L132.9,221.66L135.76,225.8L138.62,226.92L141.48,229.58L144.34,229.62L147.2,229.62L150.07,229.62L152.93,230.23L155.79,230.23L158.65,234.81L161.51,235.21L164.37,235.57L167.23,239.89L170.1,241.07L172.96,245.13L175.82,246.13L178.68,251.02L181.54,258.91L184.4,264.37L187.26,269.77L190.12,287.15L192.99,296.27L195.85,316.74L198.71,323.61L201.57,323.61L204.43,323.61L207.29,323.61L210.15,344.83L213.02,344.84L215.88,344.84L218.74,344.84L221.6,344.85L224.46,344.85L227.32,344.86L230.18,344.86L233.04,344.86L235.91,344.87L238.77,344.87L241.63,344.87L244.49,344.87L247.35,344.87L250.21,344.87L253.07,344.87L255.94,344.87L258.8,344.87L261.66,345.01L264.52,345.01L267.38,345.01L270.24,345.05L273.1,345.14L275.96,347.78L278.83,347.78L281.69,347.78L284.55,347.78L287.41,358.25L290.27,376.2L293.13,381.42L295.99,381.42L298.86,381.42L301.72,381.42L304.58,383.77L307.44,386.12L310.3,386.12L313.16,386.12L316.02,386.12L318.88,386.12L321.75,396.63L324.61,396.65L327.47,396.65L330.33,396.75L333.19,396.8L336.05,396.82L338.91,403.51L341.78,403.52L344.64,403.52L347.5,403.55L350.36,414.06L353.22,414.06L356.08,414.07L358.94,414.08L361.8,414.77L364.67,414.77L367.53,414.77L370.39,416.86L373.25,416.86L376.11,416.86L378.97,416.87L381.83,416.87L384.7,416.87L387.56,420.94L390.42,420.94L393.28,420.94L396.14,420.94L399,420.94L401.86,420.94L404.73,420.94L407.59,420.94L410.45,420.94L413.31,420.94L416.17,420.94L419.03,420.94L421.89,420.94L424.75,420.94L427.62,420.94L430.48,420.94L433.34,420.94L436.2,420.94L439.06,420.94L441.92,420.94L444.78,420.94L447.65,420.94L450.51,420.94L453.37,420.94L456.23,420.94L459.09,420.94L461.95,420.94L464.81,420.94L467.67,421.07L470.54,421.07L473.4,421.07L476.26,421.07L479.12,421.07L481.98,421.07L484.84,421.07L487.7,421.07L490.57,421.07L493.43,421.07L496.29,421.07L499.15,421.07L502.01,421.07L504.87,421.07L507.73,421.08L510.59,421.08L513.46,421.09L516.32,421.12L519.18,421.12L522.04,421.12L524.9,421.12L527.76,424.21L530.62,424.21L533.49,425.54L536.35,426.32L539.21,426.32L542.07,426.32L544.93,432.51L547.79,439.77L550.65,440.93L553.51,442.74L556.38,450.76L559.24,452.7L562.1,463.74L564.96,463.91L567.82,474.87L570.68,483.08L573.54,483.08L576.41,486.45L579.27,515.44L582.13,537.89L584.99,540.7L587.85,558.27L590.71,558.27L593.57,558.27L596.43,558.27L599.3,566.62L602.16,584.11L605.02,592.73L607.88,601.34L610.74,601.34L613.6,601.34L616.46,610.1L619.33,618.85L622.19,618.85L625.05,618.85L627.91,618.85L630.77,618.85L633.63,618.85L636.49,618.85L639.35,618.85L642.22,618.85L645.08,618.85L647.94,618.86L650.8,618.86L653.66,618.86L656.52,618.86L659.38,618.86L662.25,618.86L665.11,618.86L667.97,618.86L670.83,618.86L673.69,618.86L676.55,618.86L679.41,618.86L682.27,618.86L685.14,618.86L688,618.86L690.86,618.86L693.72,618.86L696.58,618.86L699.44,618.86L702.3,618.86L705.17,618.86L708.03,618.86L710.89,618.86L713.75,618.86L716.61,618.86L719.47,618.86L722.33,618.86L725.19,618.86L728.06,618.86L730.92,618.86L733.78,618.86L736.64,618.86L739.5,618.86L742.36,618.86L745.22,618.86L748.09,618.86L750.95,618.86L753.81,618.86L756.67,618.86L759.53,618.86L762.39,618.86L765.25,618.86L768.11,618.86L770.98,618.86L773.84,618.86L776.7,618.86L779.56,618.86L782.42,618.87L785.28,618.87L788.14,618.87L791.01,618.87L793.87,618.87L796.73,618.87L799.59,618.91L802.45,618.97L805.31,618.98L808.17,618.99L811.03,619.08L813.9,619.05L816.76,619.14L819.62,619.14L822.48,619.14L825.34,619.14L828.2,620.89L831.06,620.89L833.93,620.89L836.79,620.89L839.65,622.56L842.51,622.57L845.37,622.57L848.23,628.21L851.09,638.27L853.95,640.07L856.82,657.66L859.68,689.53L862.54,696.68L865.4,698.68L868.26,698.68L871.12,698.68L873.98,698.68L876.85,698.68L879.71,698.68L882.57,698.68L885.43,698.68L888.29,698.68L891.15,698.68L894.01,698.68L896.87,698.68L899.74,698.68L902.6,698.68L905.46,698.68L908.32,698.68L911.18,698.68L914.04,698.68L916.9,698.68L919.77,698.68L922.63,698.68L925.49,698.68L928.35,698.68L931.21,698.68L934.07,698.68L936.93,698.68L939.79,698.68L942.66,698.68L945.52,698.68L948.38,698.68L951.24,698.68L954.1,698.68L956.96,698.68L959.82,698.68L962.69,698.68L965.55,698.68L968.41,698.68L971.27,698.68L974.13,698.68L976.99,698.68L979.85,698.68L982.71,698.68L985.58,698.68L988.44,698.68L991.3,698.68L994.16,698.68L997.02,698.68L999.88,699.55L1002.7,699.55L1005.6,699.55L1008.5,699.55L1011.3,699.55L1014.2,699.55L1017.1,699.55L1019.9,699.55L1022.8,699.55L1025.6,699.55L1028.5,699.55L1031.4,699.55L1034.2,699.55L1037.1,699.55L1039.9,699.55L1042.8,699.55L1045.7,699.55L1048.5,699.55L1051.4,699.55L1054.2,699.55L1057.1,699.55L1060,699.55L1062.8,699.55L1065.7,699.55L1068.6,699.55L1071.4,699.55L1074.3,699.55L1077.1,701.35L1080,701.44" style="fill:none;stroke:#F15A60;stroke-width:1.875" />
<path d="M1055,694.3L1080,694.3" style="fill:none;stroke:#F15A60;stroke-width:1.875" />
<text x="1002.5" y="-687.85" transform="scale(1, -1)"
	style="font-family:Helvetica;font-weight:normal;font-style:normal;font-size:12pt">etcd v2</text>
</g>
</svg>
