<?xml version="1.0"?>
<!-- Generated by SVGo and Plotinum VG -->
<svg width="12in" height="8in"
	xmlns="http://www.w3.org/2000/svg"
	xmlns:xlink="http://www.w3.org/1999/xlink">
<g transform="scale(1, -1) translate(0, -720)">
<path d="M0,0L1080,0L1080,720L0,720Z" style="fill:#FFFFFF" />
<text x="251.99" y="-706.41" transform="scale(1, -1)"
	style="font-family:Helvetica;font-weight:normal;font-style:normal;font-size:12pt">Write 200K keys, 1000-client, 8-byte key, 256-byte value (Consul v0.6.4), Memory(MB)</text>
<text x="544.64" y="-4.965" transform="scale(1, -1)"
	style="font-family:Helvetica;font-weight:normal;font-style:normal;font-size:12pt">Second</text>
<text x="56.662" y="-19.142" transform="scale(1, -1)"
	style="font-family:Helvetica;font-weight:normal;font-style:normal;font-size:10pt">0</text>
<text x="362.62" y="-19.142" transform="scale(1, -1)"
	style="font-family:Helvetica;font-weight:normal;font-style:normal;font-size:10pt">6</text>
<text x="665.11" y="-19.142" transform="scale(1, -1)"
	style="font-family:Helvetica;font-weight:normal;font-style:normal;font-size:10pt">12</text>
<text x="971.06" y="-19.142" transform="scale(1, -1)"
	style="font-family:Helvetica;font-weight:normal;font-style:normal;font-size:10pt">18</text>
<path d="M60.137,30.467L60.137,40.467" style="fill:none;stroke:#000000;stroke-width:0.625" />
<path d="M366.1,30.467L366.1,40.467" style="fill:none;stroke:#000000;stroke-width:0.625" />
<path d="M672.05,30.467L672.05,40.467" style="fill:none;stroke:#000000;stroke-width:0.625" />
<path d="M978.01,30.467L978.01,40.467" style="fill:none;stroke:#000000;stroke-width:0.625" />
<path d="M162.12,35.468L162.12,40.467" style="fill:none;stroke:#000000;stroke-width:0.625" />
<path d="M264.11,35.468L264.11,40.467" style="fill:none;stroke:#000000;stroke-width:0.625" />
<path d="M468.08,35.468L468.08,40.467" style="fill:none;stroke:#000000;stroke-width:0.625" />
<path d="M570.07,35.468L570.07,40.467" style="fill:none;stroke:#000000;stroke-width:0.625" />
<path d="M774.04,35.468L774.04,40.467" style="fill:none;stroke:#000000;stroke-width:0.625" />
<path d="M876.03,35.468L876.03,40.467" style="fill:none;stroke:#000000;stroke-width:0.625" />
<path d="M1080,35.468L1080,40.467" style="fill:none;stroke:#000000;stroke-width:0.625" />
<path d="M60.137,40.467L1080,40.467" style="fill:none;stroke:#000000;stroke-width:0.625" />
<g transform="rotate(90)">
<text x="330.91" y="13.59" transform="scale(1, -1)"
	style="font-family:Helvetica;font-weight:normal;font-style:normal;font-size:12pt">Memory(MB)</text>
</g>
<text x="18.555" y="-218.35" transform="scale(1, -1)"
	style="font-family:Helvetica;font-weight:normal;font-style:normal;font-size:10pt">100</text>
<text x="18.555" y="-429.74" transform="scale(1, -1)"
	style="font-family:Helvetica;font-weight:normal;font-style:normal;font-size:10pt">200</text>
<text x="18.555" y="-641.13" transform="scale(1, -1)"
	style="font-family:Helvetica;font-weight:normal;font-style:normal;font-size:10pt">300</text>
<path d="M42.88,223.71L52.88,223.71" style="fill:none;stroke:#000000;stroke-width:0.625" />
<path d="M42.88,435.11L52.88,435.11" style="fill:none;stroke:#000000;stroke-width:0.625" />
<path d="M42.88,646.5L52.88,646.5" style="fill:none;stroke:#000000;stroke-width:0.625" />
<path d="M47.88,118.02L52.88,118.02" style="fill:none;stroke:#000000;stroke-width:0.625" />
<path d="M47.88,329.41L52.88,329.41" style="fill:none;stroke:#000000;stroke-width:0.625" />
<path d="M47.88,540.81L52.88,540.81" style="fill:none;stroke:#000000;stroke-width:0.625" />
<path d="M52.88,47.03L52.88,701.44" style="fill:none;stroke:#000000;stroke-width:0.625" />
<path d="M60.137,47.03L111.13,132.75L162.12,166.87L213.12,212.66L264.11,221.45L315.1,260.96L366.1,294.38L417.09,334.97L468.08,312.71L519.08,357.06L570.07,392.03L621.06,430.5L672.05,471.41L723.05,511.02L774.04,554.29L825.03,480.54L876.03,522.82L927.02,574.21L978.01,616.51L1029,651.79L1080,701.44" style="fill:none;stroke:#F15A60;stroke-width:1.875" />
<path d="M1055,694.3L1080,694.3" style="fill:none;stroke:#F15A60;stroke-width:1.875" />
<text x="959.12" y="-687.85" transform="scale(1, -1)"
	style="font-family:Helvetica;font-weight:normal;font-style:normal;font-size:12pt">Consul v0.6.4</text>
</g>
</svg>
