<?xml version="1.0"?>
<!-- Generated by SVGo and Plotinum VG -->
<svg width="12in" height="8in"
	xmlns="http://www.w3.org/2000/svg"
	xmlns:xlink="http://www.w3.org/1999/xlink">
<g transform="scale(1, -1) translate(0, -720)">
<path d="M0,0L1080,0L1080,720L0,720Z" style="fill:#FFFFFF" />
<text x="279.48" y="-706.41" transform="scale(1, -1)"
	style="font-family:Helvetica;font-weight:normal;font-style:normal;font-size:12pt">Write 200K keys, 1000-client, 8-byte key, 256-byte value (Consul v0.6.4), CPU</text>
<text x="544.64" y="-4.965" transform="scale(1, -1)"
	style="font-family:Helvetica;font-weight:normal;font-style:normal;font-size:12pt">Second</text>
<text x="56.662" y="-19.142" transform="scale(1, -1)"
	style="font-family:Helvetica;font-weight:normal;font-style:normal;font-size:10pt">0</text>
<text x="362.62" y="-19.142" transform="scale(1, -1)"
	style="font-family:Helvetica;font-weight:normal;font-style:normal;font-size:10pt">6</text>
<text x="665.11" y="-19.142" transform="scale(1, -1)"
	style="font-family:Helvetica;font-weight:normal;font-style:normal;font-size:10pt">12</text>
<text x="971.06" y="-19.142" transform="scale(1, -1)"
	style="font-family:Helvetica;font-weight:normal;font-style:normal;font-size:10pt">18</text>
<path d="M60.137,30.467L60.137,40.467" style="fill:none;stroke:#000000;stroke-width:0.625" />
<path d="M366.1,30.467L366.1,40.467" style="fill:none;stroke:#000000;stroke-width:0.625" />
<path d="M672.05,30.467L672.05,40.467" style="fill:none;stroke:#000000;stroke-width:0.625" />
<path d="M978.01,30.467L978.01,40.467" style="fill:none;stroke:#000000;stroke-width:0.625" />
<path d="M162.12,35.468L162.12,40.467" style="fill:none;stroke:#000000;stroke-width:0.625" />
<path d="M264.11,35.468L264.11,40.467" style="fill:none;stroke:#000000;stroke-width:0.625" />
<path d="M468.08,35.468L468.08,40.467" style="fill:none;stroke:#000000;stroke-width:0.625" />
<path d="M570.07,35.468L570.07,40.467" style="fill:none;stroke:#000000;stroke-width:0.625" />
<path d="M774.04,35.468L774.04,40.467" style="fill:none;stroke:#000000;stroke-width:0.625" />
<path d="M876.03,35.468L876.03,40.467" style="fill:none;stroke:#000000;stroke-width:0.625" />
<path d="M1080,35.468L1080,40.467" style="fill:none;stroke:#000000;stroke-width:0.625" />
<path d="M60.137,40.467L1080,40.467" style="fill:none;stroke:#000000;stroke-width:0.625" />
<g transform="rotate(90)">
<text x="358.4" y="13.59" transform="scale(1, -1)"
	style="font-family:Helvetica;font-weight:normal;font-style:normal;font-size:12pt">CPU</text>
</g>
<text x="25.505" y="-221.77" transform="scale(1, -1)"
	style="font-family:Helvetica;font-weight:normal;font-style:normal;font-size:10pt">50</text>
<text x="18.555" y="-407.17" transform="scale(1, -1)"
	style="font-family:Helvetica;font-weight:normal;font-style:normal;font-size:10pt">100</text>
<text x="18.555" y="-592.58" transform="scale(1, -1)"
	style="font-family:Helvetica;font-weight:normal;font-style:normal;font-size:10pt">150</text>
<path d="M42.88,227.14L52.88,227.14" style="fill:none;stroke:#000000;stroke-width:0.625" />
<path d="M42.88,412.54L52.88,412.54" style="fill:none;stroke:#000000;stroke-width:0.625" />
<path d="M42.88,597.95L52.88,597.95" style="fill:none;stroke:#000000;stroke-width:0.625" />
<path d="M47.88,78.809L52.88,78.809" style="fill:none;stroke:#000000;stroke-width:0.625" />
<path d="M47.88,115.89L52.88,115.89" style="fill:none;stroke:#000000;stroke-width:0.625" />
<path d="M47.88,152.97L52.88,152.97" style="fill:none;stroke:#000000;stroke-width:0.625" />
<path d="M47.88,190.05L52.88,190.05" style="fill:none;stroke:#000000;stroke-width:0.625" />
<path d="M47.88,264.22L52.88,264.22" style="fill:none;stroke:#000000;stroke-width:0.625" />
<path d="M47.88,301.3L52.88,301.3" style="fill:none;stroke:#000000;stroke-width:0.625" />
<path d="M47.88,338.38L52.88,338.38" style="fill:none;stroke:#000000;stroke-width:0.625" />
<path d="M47.88,375.46L52.88,375.46" style="fill:none;stroke:#000000;stroke-width:0.625" />
<path d="M47.88,449.62L52.88,449.62" style="fill:none;stroke:#000000;stroke-width:0.625" />
<path d="M47.88,486.71L52.88,486.71" style="fill:none;stroke:#000000;stroke-width:0.625" />
<path d="M47.88,523.79L52.88,523.79" style="fill:none;stroke:#000000;stroke-width:0.625" />
<path d="M47.88,560.87L52.88,560.87" style="fill:none;stroke:#000000;stroke-width:0.625" />
<path d="M47.88,635.03L52.88,635.03" style="fill:none;stroke:#000000;stroke-width:0.625" />
<path d="M47.88,672.11L52.88,672.11" style="fill:none;stroke:#000000;stroke-width:0.625" />
<path d="M52.88,47.03L52.88,701.44" style="fill:none;stroke:#000000;stroke-width:0.625" />
<path d="M60.137,47.03L111.13,163.69L162.12,252.65L213.12,322.43L264.11,372.35L315.1,413.54L366.1,445.51L417.09,473.84L468.08,499.39L519.08,523.08L570.07,545.55L621.06,565.24L672.05,582.71L723.05,598.54L774.04,614.97L825.03,633.73L876.03,649.79L927.02,664.36L978.01,677.16L1029,689.88L1080,701.44" style="fill:none;stroke:#F15A60;stroke-width:1.875" />
<path d="M1055,694.3L1080,694.3" style="fill:none;stroke:#F15A60;stroke-width:1.875" />
<text x="959.12" y="-687.85" transform="scale(1, -1)"
	style="font-family:Helvetica;font-weight:normal;font-style:normal;font-size:12pt">Consul v0.6.4</text>
</g>
</svg>
