<?xml version="1.0"?>
<!-- Generated by SVGo and Plotinum VG -->
<svg width="12in" height="8in"
	xmlns="http://www.w3.org/2000/svg"
	xmlns:xlink="http://www.w3.org/1999/xlink">
<g transform="scale(1, -1) translate(0, -720)">
<path d="M0,0L1080,0L1080,720L0,720Z" style="fill:#FFFFFF" />
<text x="226.97" y="-706.41" transform="scale(1, -1)"
	style="font-family:Helvetica;font-weight:normal;font-style:normal;font-size:12pt">Write 200K keys, 1000-client, 8-byte key, 256-byte value (Consul v0.6.4), Latency(millisecond)</text>
<text x="544.64" y="-4.965" transform="scale(1, -1)"
	style="font-family:Helvetica;font-weight:normal;font-style:normal;font-size:12pt">Second</text>
<text x="56.662" y="-19.142" transform="scale(1, -1)"
	style="font-family:Helvetica;font-weight:normal;font-style:normal;font-size:10pt">0</text>
<text x="348.05" y="-19.142" transform="scale(1, -1)"
	style="font-family:Helvetica;font-weight:normal;font-style:normal;font-size:10pt">6</text>
<text x="635.97" y="-19.142" transform="scale(1, -1)"
	style="font-family:Helvetica;font-weight:normal;font-style:normal;font-size:10pt">12</text>
<text x="927.36" y="-19.142" transform="scale(1, -1)"
	style="font-family:Helvetica;font-weight:normal;font-style:normal;font-size:10pt">18</text>
<path d="M60.137,30.467L60.137,40.467" style="fill:none;stroke:#000000;stroke-width:0.625" />
<path d="M351.53,30.467L351.53,40.467" style="fill:none;stroke:#000000;stroke-width:0.625" />
<path d="M642.92,30.467L642.92,40.467" style="fill:none;stroke:#000000;stroke-width:0.625" />
<path d="M934.31,30.467L934.31,40.467" style="fill:none;stroke:#000000;stroke-width:0.625" />
<path d="M157.27,35.468L157.27,40.467" style="fill:none;stroke:#000000;stroke-width:0.625" />
<path d="M254.4,35.468L254.4,40.467" style="fill:none;stroke:#000000;stroke-width:0.625" />
<path d="M448.66,35.468L448.66,40.467" style="fill:none;stroke:#000000;stroke-width:0.625" />
<path d="M545.79,35.468L545.79,40.467" style="fill:none;stroke:#000000;stroke-width:0.625" />
<path d="M740.05,35.468L740.05,40.467" style="fill:none;stroke:#000000;stroke-width:0.625" />
<path d="M837.18,35.468L837.18,40.467" style="fill:none;stroke:#000000;stroke-width:0.625" />
<path d="M1031.4,35.468L1031.4,40.467" style="fill:none;stroke:#000000;stroke-width:0.625" />
<path d="M60.137,40.467L1080,40.467" style="fill:none;stroke:#000000;stroke-width:0.625" />
<g transform="rotate(90)">
<text x="305.89" y="13.59" transform="scale(1, -1)"
	style="font-family:Helvetica;font-weight:normal;font-style:normal;font-size:12pt">Latency(millisecond)</text>
</g>
<text x="18.555" y="-209.37" transform="scale(1, -1)"
	style="font-family:Helvetica;font-weight:normal;font-style:normal;font-size:10pt">100</text>
<text x="18.555" y="-381.26" transform="scale(1, -1)"
	style="font-family:Helvetica;font-weight:normal;font-style:normal;font-size:10pt">110</text>
<text x="18.555" y="-553.15" transform="scale(1, -1)"
	style="font-family:Helvetica;font-weight:normal;font-style:normal;font-size:10pt">120</text>
<path d="M42.88,214.74L52.88,214.74" style="fill:none;stroke:#000000;stroke-width:0.625" />
<path d="M42.88,386.63L52.88,386.63" style="fill:none;stroke:#000000;stroke-width:0.625" />
<path d="M42.88,558.52L52.88,558.52" style="fill:none;stroke:#000000;stroke-width:0.625" />
<path d="M47.88,128.8L52.88,128.8" style="fill:none;stroke:#000000;stroke-width:0.625" />
<path d="M47.88,300.68L52.88,300.68" style="fill:none;stroke:#000000;stroke-width:0.625" />
<path d="M47.88,472.57L52.88,472.57" style="fill:none;stroke:#000000;stroke-width:0.625" />
<path d="M47.88,644.46L52.88,644.46" style="fill:none;stroke:#000000;stroke-width:0.625" />
<path d="M52.88,47.03L52.88,701.44" style="fill:none;stroke:#000000;stroke-width:0.625" />
<path d="M60.137,298.18L108.7,47.03L157.27,157.07L205.83,386.78L254.4,537.86L302.96,635.38L351.53,664.87L400.09,701.44L448.66,425.26L497.22,518.91L545.79,521.48L594.35,431.62L642.92,563.11L691.48,466.04L740.05,199.22L788.61,309.23L837.18,222.65L885.74,151.47L934.31,411.42L982.87,341.45L1031.4,313.05L1080,267.31" style="fill:none;stroke:#F15A60;stroke-width:1.875" />
<path d="M1055,694.3L1080,694.3" style="fill:none;stroke:#F15A60;stroke-width:1.875" />
<text x="959.12" y="-687.85" transform="scale(1, -1)"
	style="font-family:Helvetica;font-weight:normal;font-style:normal;font-size:12pt">Consul v0.6.4</text>
</g>
</svg>
