<?xml version="1.0"?>
<!-- Generated by SVGo and Plotinum VG -->
<svg width="12in" height="8in"
	xmlns="http://www.w3.org/2000/svg"
	xmlns:xlink="http://www.w3.org/1999/xlink">
<g transform="scale(1, -1) translate(0, -720)">
<path d="M0,0L1080,0L1080,720L0,720Z" style="fill:#FFFFFF" />
<text x="256.96" y="-706.41" transform="scale(1, -1)"
	style="font-family:Helvetica;font-weight:normal;font-style:normal;font-size:12pt">Write 200K keys, 1000-client, 8-byte key, 256-byte value (Consul v0.6.4), Throughput</text>
<text x="551.76" y="-4.965" transform="scale(1, -1)"
	style="font-family:Helvetica;font-weight:normal;font-style:normal;font-size:12pt">Second</text>
<text x="70.912" y="-19.142" transform="scale(1, -1)"
	style="font-family:Helvetica;font-weight:normal;font-style:normal;font-size:10pt">0</text>
<text x="358.23" y="-19.142" transform="scale(1, -1)"
	style="font-family:Helvetica;font-weight:normal;font-style:normal;font-size:10pt">6</text>
<text x="642.07" y="-19.142" transform="scale(1, -1)"
	style="font-family:Helvetica;font-weight:normal;font-style:normal;font-size:10pt">12</text>
<text x="929.39" y="-19.142" transform="scale(1, -1)"
	style="font-family:Helvetica;font-weight:normal;font-style:normal;font-size:10pt">18</text>
<path d="M74.388,30.467L74.388,40.467" style="fill:none;stroke:#000000;stroke-width:0.625" />
<path d="M361.71,30.467L361.71,40.467" style="fill:none;stroke:#000000;stroke-width:0.625" />
<path d="M649.02,30.467L649.02,40.467" style="fill:none;stroke:#000000;stroke-width:0.625" />
<path d="M936.34,30.467L936.34,40.467" style="fill:none;stroke:#000000;stroke-width:0.625" />
<path d="M170.16,35.468L170.16,40.467" style="fill:none;stroke:#000000;stroke-width:0.625" />
<path d="M265.93,35.468L265.93,40.467" style="fill:none;stroke:#000000;stroke-width:0.625" />
<path d="M457.48,35.468L457.48,40.467" style="fill:none;stroke:#000000;stroke-width:0.625" />
<path d="M553.25,35.468L553.25,40.467" style="fill:none;stroke:#000000;stroke-width:0.625" />
<path d="M744.8,35.468L744.8,40.467" style="fill:none;stroke:#000000;stroke-width:0.625" />
<path d="M840.57,35.468L840.57,40.467" style="fill:none;stroke:#000000;stroke-width:0.625" />
<path d="M1032.1,35.468L1032.1,40.467" style="fill:none;stroke:#000000;stroke-width:0.625" />
<path d="M74.388,40.467L1080,40.467" style="fill:none;stroke:#000000;stroke-width:0.625" />
<g transform="rotate(90)">
<text x="335.88" y="13.59" transform="scale(1, -1)"
	style="font-family:Helvetica;font-weight:normal;font-style:normal;font-size:12pt">Throughput</text>
</g>
<text x="25.855" y="-170.15" transform="scale(1, -1)"
	style="font-family:Helvetica;font-weight:normal;font-style:normal;font-size:10pt">6000</text>
<text x="25.855" y="-369.97" transform="scale(1, -1)"
	style="font-family:Helvetica;font-weight:normal;font-style:normal;font-size:10pt">8000</text>
<text x="18.555" y="-569.79" transform="scale(1, -1)"
	style="font-family:Helvetica;font-weight:normal;font-style:normal;font-size:10pt">1e+04</text>
<path d="M57.13,175.52L67.13,175.52" style="fill:none;stroke:#000000;stroke-width:0.625" />
<path d="M57.13,375.34L67.13,375.34" style="fill:none;stroke:#000000;stroke-width:0.625" />
<path d="M57.13,575.16L67.13,575.16" style="fill:none;stroke:#000000;stroke-width:0.625" />
<path d="M62.13,75.604L67.13,75.604" style="fill:none;stroke:#000000;stroke-width:0.625" />
<path d="M62.13,275.43L67.13,275.43" style="fill:none;stroke:#000000;stroke-width:0.625" />
<path d="M62.13,475.25L67.13,475.25" style="fill:none;stroke:#000000;stroke-width:0.625" />
<path d="M62.13,675.07L67.13,675.07" style="fill:none;stroke:#000000;stroke-width:0.625" />
<path d="M67.13,47.03L67.13,701.44" style="fill:none;stroke:#000000;stroke-width:0.625" />
<path d="M74.388,47.03L122.27,701.44L170.16,574.36L218.05,502.72L265.93,400.71L313.82,368.84L361.71,359.05L409.59,387.13L457.48,424.59L505.36,470.55L553.25,414.4L601.14,467.35L649.02,404.81L696.91,456.26L744.8,591.44L792.68,484.24L840.57,605.53L888.45,594.94L936.34,463.76L984.23,526.6L1032.1,525.3L1080,533" style="fill:none;stroke:#F15A60;stroke-width:1.875" />
<path d="M1055,694.3L1080,694.3" style="fill:none;stroke:#F15A60;stroke-width:1.875" />
<text x="959.12" y="-687.85" transform="scale(1, -1)"
	style="font-family:Helvetica;font-weight:normal;font-style:normal;font-size:12pt">Consul v0.6.4</text>
</g>
</svg>
