<?xml version="1.0"?>
<!-- Generated by SVGo and Plotinum VG -->
<svg width="12in" height="8in"
	xmlns="http://www.w3.org/2000/svg"
	xmlns:xlink="http://www.w3.org/1999/xlink">
<g transform="scale(1, -1) translate(0, -720)">
<path d="M0,0L1080,0L1080,720L0,720Z" style="fill:#FFFFFF" />
<text x="264.5" y="-706.41" transform="scale(1, -1)"
	style="font-family:Helvetica;font-weight:normal;font-style:normal;font-size:12pt">Write 500K keys, 1-client, 8-byte key, 256-byte value (Consul v0.6.4), Memory(MB)</text>
<text x="539.57" y="-4.965" transform="scale(1, -1)"
	style="font-family:Helvetica;font-weight:normal;font-style:normal;font-size:12pt">Second</text>
<text x="56.662" y="-19.142" transform="scale(1, -1)"
	style="font-family:Helvetica;font-weight:normal;font-style:normal;font-size:10pt">0</text>
<text x="385.03" y="-19.142" transform="scale(1, -1)"
	style="font-family:Helvetica;font-weight:normal;font-style:normal;font-size:10pt">800</text>
<text x="716.88" y="-19.142" transform="scale(1, -1)"
	style="font-family:Helvetica;font-weight:normal;font-style:normal;font-size:10pt">1600</text>
<text x="1052.2" y="-19.142" transform="scale(1, -1)"
	style="font-family:Helvetica;font-weight:normal;font-style:normal;font-size:10pt">2400</text>
<path d="M60.137,30.467L60.137,40.467" style="fill:none;stroke:#000000;stroke-width:0.625" />
<path d="M395.46,30.467L395.46,40.467" style="fill:none;stroke:#000000;stroke-width:0.625" />
<path d="M730.78,30.467L730.78,40.467" style="fill:none;stroke:#000000;stroke-width:0.625" />
<path d="M1066.1,30.467L1066.1,40.467" style="fill:none;stroke:#000000;stroke-width:0.625" />
<path d="M227.8,35.468L227.8,40.467" style="fill:none;stroke:#000000;stroke-width:0.625" />
<path d="M563.12,35.468L563.12,40.467" style="fill:none;stroke:#000000;stroke-width:0.625" />
<path d="M898.44,35.468L898.44,40.467" style="fill:none;stroke:#000000;stroke-width:0.625" />
<path d="M60.137,40.467L1069.9,40.467" style="fill:none;stroke:#000000;stroke-width:0.625" />
<g transform="rotate(90)">
<text x="330.91" y="13.59" transform="scale(1, -1)"
	style="font-family:Helvetica;font-weight:normal;font-style:normal;font-size:12pt">Memory(MB)</text>
</g>
<text x="18.555" y="-193.31" transform="scale(1, -1)"
	style="font-family:Helvetica;font-weight:normal;font-style:normal;font-size:10pt">200</text>
<text x="18.555" y="-358.88" transform="scale(1, -1)"
	style="font-family:Helvetica;font-weight:normal;font-style:normal;font-size:10pt">400</text>
<text x="18.555" y="-524.46" transform="scale(1, -1)"
	style="font-family:Helvetica;font-weight:normal;font-style:normal;font-size:10pt">600</text>
<text x="18.555" y="-690.03" transform="scale(1, -1)"
	style="font-family:Helvetica;font-weight:normal;font-style:normal;font-size:10pt">800</text>
<path d="M42.88,198.68L52.88,198.68" style="fill:none;stroke:#000000;stroke-width:0.625" />
<path d="M42.88,364.25L52.88,364.25" style="fill:none;stroke:#000000;stroke-width:0.625" />
<path d="M42.88,529.83L52.88,529.83" style="fill:none;stroke:#000000;stroke-width:0.625" />
<path d="M42.88,695.4L52.88,695.4" style="fill:none;stroke:#000000;stroke-width:0.625" />
<path d="M47.88,115.89L52.88,115.89" style="fill:none;stroke:#000000;stroke-width:0.625" />
<path d="M47.88,281.47L52.88,281.47" style="fill:none;stroke:#000000;stroke-width:0.625" />
<path d="M47.88,447.04L52.88,447.04" style="fill:none;stroke:#000000;stroke-width:0.625" />
<path d="M47.88,612.61L52.88,612.61" style="fill:none;stroke:#000000;stroke-width:0.625" />
<path d="M52.88,47.03L52.88,701.44" style="fill:none;stroke:#000000;stroke-width:0.625" />
<path d="M60.137,47.03L60.557,47.792L60.976,48.346L61.395,48.81L61.814,49.216L62.233,49.522L62.652,49.77L63.072,50.168L63.491,50.656L63.91,51.062L64.329,50.449L64.748,51.467L65.167,51.84L65.586,52.229L66.006,52.37L66.425,53.181L66.844,53.612L67.263,54.108L67.682,54.696L68.101,53.214L68.521,53.529L68.94,53.959L69.359,54.125L69.778,54.266L70.197,55.234L70.616,55.963L71.035,56.385L71.455,56.749L71.874,56.89L72.293,57.329L72.712,58.132L73.131,58.413L73.55,58.628L73.969,58.993L74.389,59.349L74.808,60.077L75.227,60.433L75.646,60.715L76.065,60.93L76.484,61.584L76.904,58.33L77.323,58.703L77.742,59.117L78.161,59.448L78.58,59.821L78.999,60.218L79.418,60.582L79.838,61.245L80.257,61.675L80.676,62.197L81.095,62.486L81.514,62.776L81.933,63.149L82.353,63.803L82.772,64.018L83.191,64.531L83.61,64.68L84.029,65.044L84.448,65.624L84.867,66.054L85.287,66.485L85.706,66.924L86.125,67.727L86.544,68.157L86.963,68.447L87.382,68.737L87.801,69.391L88.221,69.755L88.64,70.119L89.059,70.343L89.478,70.558L89.897,70.997L90.316,71.51L90.736,71.957L91.155,72.239L91.574,72.893L91.993,66.667L92.412,66.816L92.831,67.122L93.25,67.512L93.67,67.594L94.089,68.041L94.508,68.505L94.927,68.828L95.346,69.407L95.765,69.846L96.184,70.061L96.604,70.351L97.023,70.558L97.442,70.997L97.861,71.22L98.28,71.792L98.699,72.371L99.119,72.735L99.538,73.025L99.957,73.24L100.38,73.605L100.8,74.184L101.21,74.333L101.63,74.846L102.05,75.351L102.47,75.575L102.89,76.08L103.31,76.585L103.73,77.305L104.15,77.38L104.57,77.819L104.99,78.174L105.41,78.622L105.82,78.986L106.24,79.425L106.66,79.781L107.08,80.501L107.5,80.791L107.92,81.296L108.34,81.809L108.76,82.024L109.18,82.463L109.6,87.654L110.02,89.624L110.44,89.773L110.85,90.063L111.27,90.212L111.69,90.427L112.11,90.642L112.53,91.155L112.95,91.735L113.37,92.174L113.79,92.455L114.21,92.596L114.63,92.745L115.05,93.175L115.47,93.399L115.88,93.623L116.3,94.061L116.72,94.202L117.14,94.715L117.56,95.005L117.98,95.154L118.4,95.585L118.82,96.09L119.24,96.379L119.66,96.744L120.08,97.116L120.5,97.323L120.91,97.621L121.33,97.985L121.75,98.06L122.17,98.275L122.59,98.788L123.01,98.855L123.43,99.078L123.85,90.427L124.27,90.758L124.69,91.064L125.11,91.147L125.53,91.362L125.94,92.016L126.36,92.306L126.78,92.745L127.2,93.325L127.62,93.54L128.04,93.896L128.46,94.484L128.88,94.484L129.3,95.204L129.72,95.419L130.14,95.709L130.55,95.999L130.97,96.437L131.39,96.653L131.81,97.166L132.23,97.671L132.65,98.143L133.07,98.714L133.49,98.937L133.91,99.078L134.33,99.591L134.75,99.881L135.17,100.17L135.58,100.68L136,101.04L136.42,101.26L136.84,101.7L137.26,102.28L137.68,102.57L138.1,103.16L138.52,103.52L138.94,103.89L139.36,104.04L139.78,104.55L140.2,104.85L140.61,105.42L141.03,105.87L141.45,115.25L141.87,120.87L142.29,121.01L142.71,121.75L143.13,122.04L143.55,122.32L143.97,122.69L144.39,123.13L144.81,123.27L145.23,123.78L145.64,123.85L146.06,124.07L146.48,124.22L146.9,124.44L147.32,124.73L147.74,125.02L148.16,125.02L148.58,125.39L149,125.68L149.42,125.89L149.84,126.26L150.25,126.48L150.67,126.78L151.09,118.21L151.51,118.5L151.93,118.86L152.35,119.23L152.77,119.69L153.19,119.76L153.61,120.27L154.03,120.42L154.45,120.94L154.87,135L155.28,136.53L155.7,136.53L156.12,136.75L156.54,136.75L156.96,136.82L157.38,137.12L157.8,137.47L158.22,137.62L158.64,137.62L159.06,137.99L159.48,138.14L159.9,138.28L160.31,138.43L160.73,138.5L161.15,138.65L161.57,138.65L161.99,139.16L162.41,139.23L162.83,139.23L163.25,139.37L163.67,139.45L164.09,139.67L164.51,139.67L164.93,140.03L165.34,140.03L165.76,140.47L166.18,140.69L166.6,140.85L167.02,140.85L167.44,140.93L167.86,141.14L168.28,141.29L168.7,141.37L169.12,141.58L169.54,141.58L169.96,141.66L170.37,141.81L170.79,141.97L171.21,141.97L171.63,141.97L172.05,142.11L172.47,142.19L172.89,142.33L173.31,142.76L173.73,142.76L174.15,143.28L174.57,143.43L174.98,143.57L175.4,143.78L175.82,143.92L176.24,144.15L176.66,144.43L177.08,144.43L177.5,144.58L177.92,144.65L178.34,144.87L178.76,145.02L179.18,145.09L179.6,145.53L180.01,145.67L180.43,146.04L180.85,146.18L181.27,146.33L181.69,146.4L182.11,146.62L182.53,147.12L182.95,147.26L183.37,147.55L183.79,147.7L184.21,147.7L184.63,148.43L185.04,148.5L185.46,148.8L185.88,148.94L186.3,149.02L186.72,149.31L187.14,149.31L187.56,149.74L187.98,149.82L188.4,150.09L188.82,150.52L189.24,150.6L189.66,151.11L190.07,151.11L190.49,151.4L190.91,151.55L191.33,151.55L191.75,152.19L192.17,152.42L192.59,152.56L193.01,152.85L193.43,153.15L193.85,153.65L194.27,172.37L194.68,172.81L195.1,173.09L195.52,173.38L195.94,173.74L196.36,175.81L196.78,179.74L197.2,180.1L197.62,180.1L198.04,180.18L198.46,180.18L198.88,180.47L199.3,180.47L199.71,180.47L200.13,180.47L200.55,180.47L200.97,180.83L201.39,180.83L201.81,180.83L202.23,180.83L202.65,181.12L203.07,181.41L203.49,181.41L203.91,181.48L204.33,181.56L204.74,181.56L205.16,181.63L205.58,181.77L206,181.77L206.42,181.85L206.84,181.99L207.26,181.99L207.68,182.06L208.1,182.35L208.52,182.35L208.94,182.43L209.36,182.5L209.77,182.5L210.19,182.5L210.61,182.72L211.03,182.72L211.45,182.72L211.87,182.94L212.29,182.94L212.71,183.16L213.13,183.16L213.55,183.16L213.97,183.37L214.39,183.37L214.8,183.52L215.22,183.52L215.64,183.81L216.06,183.81L216.48,183.81L216.9,183.81L217.32,183.95L217.74,183.95L218.16,184.03L218.58,184.03L219,184.1L219.41,184.1L219.83,184.24L220.25,184.24L220.67,184.24L221.09,184.39L221.51,184.46L221.93,184.53L222.35,184.68L222.77,184.68L223.19,184.97L223.61,184.97L224.03,184.97L224.44,185.26L224.86,185.26L225.28,185.33L225.7,185.33L226.12,185.33L226.54,185.62L226.96,185.62L227.38,185.62L227.8,185.84L228.22,185.84L228.64,185.91L229.06,186.14L229.47,186.14L229.89,186.21L230.31,186.6L230.73,186.68L231.15,186.68L231.57,187.04L231.99,187.04L232.41,187.04L232.83,187.4L233.25,187.48L233.67,187.48L234.09,187.77L234.5,187.92L234.92,188.35L235.34,188.79L235.76,188.79L236.18,188.86L236.6,189.08L237.02,189.51L237.44,189.66L237.86,189.66L238.28,189.95L238.7,190.03L239.11,190.17L239.53,190.76L239.95,191.05L240.37,191.05L240.79,191.56L241.21,191.63L241.63,191.63L242.05,191.92L242.47,192L242.89,192.29L243.31,192.65L243.73,193.01L244.14,193.01L244.56,193.08L244.98,193.52L245.4,193.66L245.82,193.74L246.24,193.74L246.66,194.01L247.08,194.3L247.5,194.3L247.92,204.95L248.34,209.17L248.76,209.17L249.17,209.17L249.59,209.38L250.01,209.38L250.43,209.38L250.85,209.81L251.27,209.81L251.69,210.17L252.11,210.17L252.53,210.68L252.95,210.68L253.37,210.68L253.79,210.75L254.2,211.11L254.62,211.25L255.04,211.33L255.46,211.4L255.88,211.76L256.3,211.98L256.72,211.98L257.14,212.27L257.56,212.56L257.98,212.64L258.4,212.79L258.82,212.79L259.23,212.86L259.65,213.08L260.07,213.37L260.49,213.37L260.91,213.66L261.33,213.66L261.75,214.02L262.17,214.17L262.59,214.24L263.01,214.38L263.43,214.97L263.84,215.12L264.26,216.44L264.68,224.23L265.1,225.39L265.52,225.83L265.94,225.91L266.36,225.91L266.78,226.05L267.2,226.49L267.62,226.56L268.04,226.56L268.46,226.64L268.87,226.7L269.29,227L269.71,227L270.13,227L270.55,227.14L270.97,227.29L271.39,227.36L271.81,227.51L272.23,227.51L272.65,227.51L273.07,227.58L273.49,227.65L273.9,227.8L274.32,228.23L274.74,228.31L275.16,228.46L275.58,228.46L276,228.9L276.42,229.04L276.84,229.04L277.26,229.11L277.68,229.19L278.1,229.55L278.52,229.63L278.93,229.63L279.35,229.77L279.77,230.06L280.19,230.14L280.61,230.29L281.03,230.29L281.45,230.29L281.87,230.73L282.29,230.73L282.71,230.8L283.13,230.94L283.55,231.09L283.96,231.23L284.38,231.31L284.8,231.38L285.22,231.6L285.64,231.67L286.06,232.03L286.48,232.12L286.9,232.18L287.32,232.26L287.74,232.26L288.16,232.91L288.57,232.99L288.99,232.99L289.41,233.14L289.83,233.2L290.25,233.43L290.67,233.57L291.09,233.57L291.51,233.64L291.93,233.93L292.35,233.93L292.77,233.93L293.19,234.15L293.6,234.23L294.02,234.58L294.44,234.66L294.86,234.81L295.28,236.98L295.7,248.28L296.12,252.28L296.54,252.36L296.96,252.36L297.38,252.57L297.8,252.57L298.22,252.57L298.63,252.57L299.05,252.57L299.47,252.86L299.89,252.86L300.31,252.86L300.73,252.86L301.15,252.86L301.57,252.86L301.99,252.86L302.41,252.86L302.83,252.86L303.25,252.86L303.66,252.86L304.08,252.86L304.5,252.86L304.92,252.86L305.34,252.86L305.76,252.86L306.18,252.86L306.6,252.86L307.02,252.86L307.44,252.86L307.86,252.86L308.27,252.86L308.69,252.86L309.11,252.86L309.53,252.86L309.95,252.86L310.37,252.86L310.79,252.86L311.21,252.86L311.63,252.86L312.05,252.86L312.47,252.86L312.89,252.86L313.3,252.86L313.72,253.09L314.14,258.69L314.56,258.77L314.98,258.84L315.4,258.84L315.82,258.84L316.24,258.84L316.66,258.84L317.08,258.84L317.5,258.84L317.92,258.84L318.33,258.84L318.75,258.84L319.17,258.84L319.59,258.84L320.01,258.84L320.43,258.84L320.85,258.84L321.27,258.84L321.69,258.84L322.11,258.84L322.53,258.84L322.95,258.84L323.36,258.84L323.78,258.84L324.2,259.2L324.62,259.2L325.04,259.2L325.46,259.48L325.88,259.48L326.3,259.48L326.72,259.48L327.14,259.48L327.56,259.48L327.98,259.48L328.39,259.48L328.81,259.63L329.23,259.63L329.65,259.7L330.07,259.7L330.49,259.7L330.91,259.92L331.33,259.92L331.75,259.99L332.17,259.99L332.59,259.99L333,260.21L333.42,260.21L333.84,260.27L334.26,260.27L334.68,260.27L335.1,263.02L335.52,267.39L335.94,271.4L336.36,271.76L336.78,271.76L337.2,271.76L337.62,271.76L338.03,271.76L338.45,271.76L338.87,271.76L339.29,271.76L339.71,271.76L340.13,271.76L340.55,271.76L340.97,272.05L341.39,272.05L341.81,272.05L342.23,272.05L342.65,272.05L343.06,272.05L343.48,272.05L343.9,272.05L344.32,272.05L344.74,272.05L345.16,272.05L345.58,272.05L346,272.05L346.42,272.05L346.84,272.05L347.26,272.05L347.68,272.05L348.09,272.05L348.51,272.05L348.93,272.05L349.35,272.05L349.77,272.05L350.19,272.05L350.61,272.05L351.03,272.05L351.45,272.05L351.87,272.05L352.29,272.05L352.7,272.05L353.12,272.05L353.54,272.05L353.96,272.05L354.38,272.05L354.8,272.05L355.22,272.05L355.64,272.05L356.06,272.05L356.48,272.05L356.9,272.05L357.32,272.05L357.73,272.05L358.15,272.05L358.57,272.05L358.99,272.05L359.41,272.05L359.83,272.05L360.25,272.05L360.67,272.05L361.09,272.05L361.51,272.05L361.93,272.05L362.35,272.05L362.76,272.05L363.18,272.05L363.6,272.05L364.02,272.05L364.44,272.05L364.86,272.05L365.28,272.05L365.7,272.05L366.12,272.05L366.54,272.05L366.96,272.05L367.38,272.05L367.79,272.14L368.21,272.89L368.63,277.84L369.05,277.91L369.47,278.21L369.89,279.67L370.31,283.82L370.73,283.82L371.15,283.82L371.57,283.82L371.99,283.82L372.41,283.82L372.82,283.82L373.24,283.82L373.66,283.82L374.08,283.82L374.5,283.82L374.92,283.82L375.34,283.82L375.76,283.82L376.18,283.82L376.6,283.82L377.02,283.82L377.43,283.82L377.85,283.82L378.27,283.82L378.69,283.82L379.11,283.82L379.53,283.82L379.95,283.82L380.37,283.82L380.79,284.11L381.21,284.55L381.63,284.55L382.05,284.55L382.46,284.55L382.88,284.55L383.3,284.55L383.72,284.55L384.14,284.55L384.56,284.55L384.98,284.55L385.4,284.55L385.82,284.55L386.24,284.55L386.66,284.55L387.08,284.55L387.49,284.55L387.91,284.55L388.33,284.55L388.75,284.55L389.17,284.55L389.59,284.55L390.01,284.55L390.43,284.55L390.85,284.61L391.27,286.72L391.69,287.16L392.11,291.62L392.52,292.2L392.94,292.28L393.36,292.28L393.78,292.28L394.2,292.64L394.62,292.64L395.04,292.64L395.46,292.64L395.88,292.64L396.3,292.64L396.72,292.64L397.13,292.64L397.55,292.71L397.97,292.71L398.39,292.71L398.81,292.71L399.23,292.71L399.65,292.92L400.07,292.92L400.49,292.92L400.91,292.92L401.33,292.92L401.75,292.92L402.16,292.92L402.58,292.92L403,292.92L403.42,292.92L403.84,292.92L404.26,292.92L404.68,292.92L405.1,292.92L405.52,292.92L405.94,292.92L406.36,292.92L406.78,292.92L407.19,292.92L407.61,292.92L408.03,292.92L408.45,292.92L408.87,292.92L409.29,293L409.71,293.22L410.13,293.22L410.55,293.22L410.97,293.29L411.39,293.51L411.81,293.65L412.22,293.88L412.64,293.95L413.06,294.17L413.48,294.17L413.9,294.17L414.32,294.17L414.74,294.17L415.16,294.17L415.58,294.17L416,294.24L416.42,294.38L416.84,294.38L417.25,294.38L417.67,294.38L418.09,294.38L418.51,294.75L418.93,294.75L419.35,294.97L419.77,294.97L420.19,294.97L420.61,294.97L421.03,294.97L421.45,295.26L421.86,295.26L422.28,295.26L422.7,295.26L423.12,295.26L423.54,295.26L423.96,295.47L424.38,297.01L424.8,303.85L425.22,303.93L425.64,304.36L426.06,304.43L426.48,304.43L426.89,304.43L427.31,304.43L427.73,304.43L428.15,304.43L428.57,304.43L428.99,304.43L429.41,304.43L429.83,304.43L430.25,304.43L430.67,304.43L431.09,304.43L431.51,304.43L431.92,304.43L432.34,304.43L432.76,304.43L433.18,304.43L433.6,304.43L434.02,304.43L434.44,304.43L434.86,304.43L435.28,304.43L435.7,304.43L436.12,304.43L436.54,304.43L436.95,304.43L437.37,304.43L437.79,304.43L438.21,304.43L438.63,304.43L439.05,304.43L439.47,304.43L439.89,304.43L440.31,304.43L440.73,304.51L441.15,304.51L441.56,304.51L441.98,304.51L442.4,304.51L442.82,304.51L443.24,304.65L443.66,304.65L444.08,304.65L444.5,311.56L444.92,311.78L445.34,312L445.76,312.15L446.18,312.21L446.59,312.21L447.01,312.21L447.43,312.21L447.85,312.21L448.27,312.36L448.69,312.36L449.11,312.36L449.53,312.44L449.95,312.87L450.37,312.87L450.79,313.23L451.21,313.23L451.62,313.23L452.04,313.23L452.46,313.23L452.88,313.6L453.3,313.6L453.72,313.6L454.14,313.89L454.56,314.1L454.98,314.18L455.4,314.18L455.82,314.18L456.24,314.18L456.65,314.9L457.07,314.9L457.49,314.9L457.91,315.26L458.33,317.51L458.75,320.94L459.17,329.61L459.59,329.76L460.01,329.76L460.43,329.76L460.85,329.76L461.27,329.76L461.68,329.76L462.1,329.76L462.52,329.76L462.94,329.76L463.36,329.76L463.78,329.76L464.2,329.76L464.62,329.83L465.04,329.83L465.46,329.83L465.88,329.83L466.29,329.83L466.71,329.83L467.13,329.83L467.55,329.83L467.97,329.83L468.39,329.83L468.81,329.83L469.23,329.83L469.65,329.83L470.07,329.83L470.49,329.83L470.91,329.83L471.32,329.83L471.74,329.83L472.16,329.83L472.58,329.83L473,329.83L473.42,329.83L473.84,329.83L474.26,329.83L474.68,329.83L475.1,329.83L475.52,329.83L475.94,329.83L476.35,329.83L476.77,329.83L477.19,329.83L477.61,329.83L478.03,329.83L478.45,329.83L478.87,329.83L479.29,329.83L479.71,329.83L480.13,329.83L480.55,329.83L480.97,329.83L481.38,329.97L481.8,329.97L482.22,330.12L482.64,330.12L483.06,330.12L483.48,330.19L483.9,330.26L484.32,330.26L484.74,330.48L485.16,330.48L485.58,330.48L485.99,330.7L486.41,330.7L486.83,330.7L487.25,331.06L487.67,331.06L488.09,331.06L488.51,331.13L488.93,331.13L489.35,331.13L489.77,331.2L490.19,331.2L490.61,331.2L491.02,331.57L491.44,331.57L491.86,331.57L492.28,331.78L492.7,331.78L493.12,331.78L493.54,331.93L493.96,332.01L494.38,332.01L494.8,332.01L495.22,332.07L495.64,332.07L496.05,332.07L496.47,332.07L496.89,332.07L497.31,332.07L497.73,332.36L498.15,332.36L498.57,332.36L498.99,332.36L499.41,332.5L499.83,332.58L500.25,332.58L500.67,332.58L501.08,332.79L501.5,332.79L501.92,332.79L502.34,333.96L502.76,337.35L503.18,340.41L503.6,348.79L504.02,349.08L504.44,349.37L504.86,349.37L505.28,349.37L505.7,349.37L506.11,349.37L506.53,349.66L506.95,349.66L507.37,349.66L507.79,349.66L508.21,349.8L508.63,349.8L509.05,349.8L509.47,349.8L509.89,350.02L510.31,350.02L510.72,350.02L511.14,350.02L511.56,350.02L511.98,350.38L512.4,350.38L512.82,350.38L513.24,350.38L513.66,351.03L514.08,351.03L514.5,351.03L514.92,351.03L515.34,351.03L515.75,351.11L516.17,351.3L516.59,351.3L517.01,351.3L517.43,357.7L517.85,357.92L518.27,357.92L518.69,358.14L519.11,358.14L519.53,358.14L519.95,358.14L520.37,358.14L520.78,358.28L521.2,358.28L521.62,358.28L522.04,358.28L522.46,358.28L522.88,358.28L523.3,358.35L523.72,358.79L524.14,358.79L524.56,358.79L524.98,358.79L525.4,358.79L525.81,358.79L526.23,359.44L526.65,359.44L527.07,359.73L527.49,363.88L527.91,379.47L528.33,379.47L528.75,380.05L529.17,380.2L529.59,380.27L530.01,380.27L530.42,380.27L530.84,380.27L531.26,380.27L531.68,380.27L532.1,380.27L532.52,380.27L532.94,380.27L533.36,380.27L533.78,380.27L534.2,380.27L534.62,380.27L535.04,380.27L535.45,380.27L535.87,380.27L536.29,380.27L536.71,380.27L537.13,380.27L537.55,380.27L537.97,380.27L538.39,380.27L538.81,380.27L539.23,380.27L539.65,380.27L540.07,380.27L540.48,380.27L540.9,380.27L541.32,380.27L541.74,380.27L542.16,380.27L542.58,380.27L543,380.27L543.42,380.27L543.84,380.27L544.26,380.27L544.68,380.27L545.1,380.27L545.51,380.27L545.93,380.27L546.35,380.27L546.77,380.27L547.19,380.27L547.61,380.27L548.03,380.27L548.45,380.27L548.87,380.27L549.29,380.27L549.71,380.27L550.13,380.27L550.54,380.27L550.96,380.27L551.38,380.27L551.8,380.27L552.22,380.27L552.64,380.27L553.06,380.27L553.48,380.27L553.9,380.27L554.32,380.27L554.74,380.27L555.15,380.27L555.57,380.27L555.99,380.27L556.41,380.27L556.83,380.27L557.25,380.27L557.67,380.27L558.09,380.27L558.51,380.27L558.93,380.27L559.35,380.27L559.77,380.27L560.18,380.27L560.6,380.27L561.02,380.27L561.44,380.27L561.86,380.27L562.28,380.27L562.7,380.27L563.12,380.27L563.54,380.27L563.96,380.27L564.38,380.27L564.8,380.27L565.21,380.27L565.63,380.27L566.05,380.27L566.47,380.27L566.89,380.27L567.31,380.27L567.73,380.27L568.15,380.27L568.57,380.27L568.99,380.27L569.41,380.27L569.83,380.27L570.24,380.27L570.66,380.27L571.08,380.27L571.5,380.27L571.92,380.27L572.34,380.27L572.76,380.27L573.18,380.27L573.6,380.27L574.02,380.27L574.44,380.27L574.85,380.27L575.27,380.27L575.69,380.27L576.11,380.27L576.53,380.27L576.95,380.27L577.37,380.27L577.79,380.27L578.21,380.27L578.63,380.27L579.05,380.27L579.47,380.34L579.88,380.34L580.3,380.34L580.72,380.34L581.14,380.41L581.56,380.41L581.98,384.64L582.4,385L582.82,385.29L583.24,390.9L583.66,392.43L584.08,400.16L584.5,400.37L584.91,400.37L585.33,400.45L585.75,400.66L586.17,400.66L586.59,400.66L587.01,400.66L587.43,400.95L587.85,400.95L588.27,400.95L588.69,400.95L589.11,400.95L589.53,400.95L589.94,400.95L590.36,400.95L590.78,400.95L591.2,400.95L591.62,400.95L592.04,400.95L592.46,400.95L592.88,400.95L593.3,400.95L593.72,400.95L594.14,401.1L594.56,405.54L594.97,421.78L595.39,429.87L595.81,430.46L596.23,430.96L596.65,430.96L597.07,430.96L597.49,430.96L597.91,430.96L598.33,430.96L598.75,430.96L599.17,430.96L599.58,431.04L600,431.04L600.42,431.04L600.84,431.04L601.26,431.04L601.68,431.04L602.1,431.04L602.52,431.04L602.94,431.04L603.36,431.04L603.78,431.04L604.2,431.04L604.61,431.04L605.03,431.04L605.45,431.04L605.87,431.04L606.29,431.04L606.71,431.04L607.13,431.04L607.55,431.04L607.97,431.04L608.39,431.04L608.81,431.04L609.23,431.04L609.64,431.04L610.06,431.04L610.48,431.04L610.9,431.04L611.32,431.04L611.74,431.04L612.16,431.04L612.58,431.04L613,431.04L613.42,431.21L613.84,431.21L614.26,431.21L614.67,431.21L615.09,431.21L615.51,431.21L615.93,431.21L616.35,431.21L616.77,431.21L617.19,431.21L617.61,431.21L618.03,431.21L618.45,431.21L618.87,431.21L619.28,431.21L619.7,431.21L620.12,431.21L620.54,431.21L620.96,431.21L621.38,431.21L621.8,431.21L622.22,431.21L622.64,431.21L623.06,431.21L623.48,431.21L623.9,431.21L624.31,431.21L624.73,431.21L625.15,431.21L625.57,431.21L625.99,431.21L626.41,431.21L626.83,431.21L627.25,431.21L627.67,431.21L628.09,431.21L628.51,431.21L628.93,431.21L629.34,431.21L629.76,431.21L630.18,431.21L630.6,431.21L631.02,431.21L631.44,431.21L631.86,431.21L632.28,431.21L632.7,431.21L633.12,431.21L633.54,431.21L633.96,431.21L634.37,431.21L634.79,431.21L635.21,431.21L635.63,431.21L636.05,431.21L636.47,431.21L636.89,431.21L637.31,431.21L637.73,431.21L638.15,431.21L638.57,431.21L638.99,431.21L639.4,431.21L639.82,431.21L640.24,431.21L640.66,431.21L641.08,431.21L641.5,431.21L641.92,431.21L642.34,431.28L642.76,431.35L643.18,433.9L643.6,442.11L644.01,442.56L644.43,442.79L644.85,442.79L645.27,442.86L645.69,442.86L646.11,442.86L646.53,442.86L646.95,442.86L647.37,442.86L647.79,442.86L648.21,442.86L648.63,442.86L649.04,442.86L649.46,442.86L649.88,442.86L650.3,442.86L650.72,442.86L651.14,442.86L651.56,442.86L651.98,442.86L652.4,442.86L652.82,442.86L653.24,442.86L653.66,442.86L654.07,442.86L654.49,442.86L654.91,442.86L655.33,442.86L655.75,442.86L656.17,442.86L656.59,442.86L657.01,442.86L657.43,442.86L657.85,442.86L658.27,442.86L658.69,442.86L659.1,442.86L659.52,442.86L659.94,442.86L660.36,442.86L660.78,442.86L661.2,442.86L661.62,442.86L662.04,442.86L662.46,442.86L662.88,442.86L663.3,442.86L663.71,442.86L664.13,442.86L664.55,442.86L664.97,442.86L665.39,442.86L665.81,442.86L666.23,442.86L666.65,442.86L667.07,442.86L667.49,442.86L667.91,442.86L668.33,442.86L668.74,442.86L669.16,442.86L669.58,442.86L670,442.86L670.42,442.86L670.84,442.86L671.26,442.86L671.68,442.86L672.1,442.86L672.52,442.86L672.94,442.86L673.36,442.86L673.77,442.86L674.19,442.86L674.61,442.86L675.03,442.86L675.45,442.86L675.87,442.86L676.29,442.93L676.71,442.93L677.13,445.91L677.55,452.55L677.97,469.07L678.39,469.14L678.8,469.21L679.22,469.21L679.64,473.43L680.06,482.75L680.48,482.97L680.9,483.27L681.32,483.41L681.74,483.7L682.16,483.7L682.58,483.7L683,483.7L683.42,483.7L683.83,483.7L684.25,483.7L684.67,483.7L685.09,483.7L685.51,483.7L685.93,483.7L686.35,483.7L686.77,483.76L687.19,483.76L687.61,483.76L688.03,483.76L688.44,483.76L688.86,483.76L689.28,483.76L689.7,483.76L690.12,483.76L690.54,483.76L690.96,483.76L691.38,483.76L691.8,483.76L692.22,483.76L692.64,483.76L693.06,483.76L693.47,483.76L693.89,483.76L694.31,483.76L694.73,483.76L695.15,483.76L695.57,483.76L695.99,483.76L696.41,483.76L696.83,483.76L697.25,483.76L697.67,483.76L698.09,483.76L698.5,483.76L698.92,483.76L699.34,483.76L699.76,483.76L700.18,483.76L700.6,483.76L701.02,483.76L701.44,483.76L701.86,483.76L702.28,483.76L702.7,483.76L703.12,483.76L703.53,483.76L703.95,483.76L704.37,483.76L704.79,483.76L705.21,483.76L705.63,483.76L706.05,483.76L706.47,483.76L706.89,483.76L707.31,483.76L707.73,483.76L708.15,483.76L708.56,483.76L708.98,483.76L709.4,483.76L709.82,483.76L710.24,483.76L710.66,483.76L711.08,483.76L711.5,483.76L711.92,483.76L712.34,483.76L712.76,483.76L713.17,483.76L713.59,483.76L714.01,483.76L714.43,483.76L714.85,483.76L715.27,483.76L715.69,483.76L716.11,483.76L716.53,483.76L716.95,483.76L717.37,483.76L717.79,483.76L718.2,483.76L718.62,483.76L719.04,483.76L719.46,483.76L719.88,483.76L720.3,483.76L720.72,483.76L721.14,483.76L721.56,483.76L721.98,483.76L722.4,483.76L722.82,483.76L723.23,483.76L723.65,483.76L724.07,483.76L724.49,483.76L724.91,483.76L725.33,483.76L725.75,483.76L726.17,483.76L726.59,483.76L727.01,483.76L727.43,483.76L727.85,483.76L728.26,483.76L728.68,483.76L729.1,483.76L729.52,483.76L729.94,483.76L730.36,483.76L730.78,483.76L731.2,483.76L731.62,483.76L732.04,483.91L732.46,483.88L732.87,483.88L733.29,484.04L733.71,484.04L734.13,484.11L734.55,484.19L734.97,484.26L735.39,484.4L735.81,484.4L736.23,484.4L736.65,484.55L737.07,484.55L737.49,484.63L737.9,484.7L738.32,484.85L738.74,484.92L739.16,484.92L739.58,484.92L740,484.99L740.42,485.21L740.84,485.36L741.26,500.82L741.68,512.91L742.1,513.78L742.52,525.19L742.93,525.7L743.35,525.77L743.77,525.77L744.19,525.85L744.61,525.85L745.03,525.85L745.45,525.85L745.87,525.85L746.29,525.85L746.71,526.14L747.13,526.14L747.55,526.14L747.96,526.14L748.38,526.14L748.8,527.15L749.22,534.36L749.64,534.5L750.06,534.5L750.48,534.65L750.9,535.15L751.32,535.23L751.74,535.23L752.16,535.23L752.58,535.23L752.99,535.37L753.41,535.59L753.83,535.59L754.25,535.59L754.67,535.59L755.09,535.59L755.51,535.59L755.93,535.59L756.35,535.59L756.77,535.59L757.19,535.59L757.6,535.59L758.02,535.59L758.44,535.59L758.86,535.59L759.28,535.95L759.7,535.95L760.12,535.95L760.54,551.39L760.96,551.61L761.38,551.61L761.8,552.04L762.22,552.04L762.63,552.19L763.05,552.19L763.47,552.19L763.89,552.19L764.31,552.19L764.73,552.19L765.15,552.19L765.57,552.19L765.99,552.19L766.41,552.19L766.83,552.19L767.25,552.19L767.66,552.19L768.08,552.19L768.5,552.19L768.92,552.19L769.34,552.19L769.76,552.19L770.18,552.19L770.6,552.19L771.02,552.19L771.44,552.19L771.86,552.19L772.28,552.19L772.69,552.19L773.11,552.19L773.53,552.19L773.95,552.19L774.37,552.19L774.79,552.19L775.21,552.19L775.63,552.19L776.05,552.19L776.47,552.19L776.89,552.19L777.3,552.19L777.72,552.19L778.14,552.19L778.56,552.19L778.98,552.19L779.4,552.19L779.82,552.19L780.24,552.19L780.66,552.19L781.08,552.19L781.5,552.19L781.92,552.19L782.33,552.19L782.75,552.19L783.17,552.19L783.59,552.19L784.01,552.19L784.43,552.19L784.85,552.19L785.27,552.19L785.69,552.19L786.11,552.19L786.53,552.19L786.95,552.19L787.36,552.19L787.78,552.19L788.2,552.19L788.62,552.19L789.04,552.19L789.46,552.3L789.88,552.3L790.3,552.3L790.72,552.3L791.14,552.3L791.56,552.3L791.98,552.3L792.39,552.3L792.81,552.3L793.23,552.3L793.65,552.3L794.07,552.3L794.49,552.3L794.91,552.3L795.33,552.3L795.75,552.3L796.17,552.3L796.59,552.3L797.01,552.3L797.42,552.3L797.84,552.3L798.26,552.3L798.68,552.3L799.1,552.3L799.52,552.3L799.94,552.3L800.36,552.3L800.78,552.3L801.2,552.3L801.62,552.3L802.03,552.3L802.45,552.3L802.87,552.3L803.29,552.3L803.71,552.3L804.13,552.3L804.55,552.3L804.97,552.3L805.39,552.3L805.81,552.3L806.23,552.3L806.65,552.3L807.06,552.3L807.48,552.3L807.9,552.3L808.32,552.3L808.74,552.3L809.16,552.3L809.58,552.3L810,552.3L810.42,552.3L810.84,552.3L811.26,552.3L811.68,552.3L812.09,552.41L812.51,552.41L812.93,552.41L813.35,552.41L813.77,552.41L814.19,552.41L814.61,552.41L815.03,552.41L815.45,552.41L815.87,552.41L816.29,552.41L816.71,552.41L817.12,552.41L817.54,552.41L817.96,552.41L818.38,552.41L818.8,552.41L819.22,552.41L819.64,552.41L820.06,552.41L820.48,552.41L820.9,552.41L821.32,552.41L821.73,552.41L822.15,552.41L822.57,552.41L822.99,552.41L823.41,552.41L823.83,552.41L824.25,552.41L824.67,552.41L825.09,552.41L825.51,552.41L825.93,552.41L826.35,552.41L826.76,552.41L827.18,552.41L827.6,552.41L828.02,552.41L828.44,552.41L828.86,552.41L829.28,552.41L829.7,552.41L830.12,552.41L830.54,552.41L830.96,552.41L831.38,552.41L831.79,558.24L832.21,565.21L832.63,565.79L833.05,565.79L833.47,565.79L833.89,565.94L834.31,565.94L834.73,566.23L835.15,566.23L835.57,576.57L835.99,584.81L836.41,585.02L836.82,585.1L837.24,587.35L837.66,587.35L838.08,587.64L838.5,587.64L838.92,587.79L839.34,587.79L839.76,587.79L840.18,587.79L840.6,587.79L841.02,587.79L841.44,587.79L841.85,587.79L842.27,587.79L842.69,587.79L843.11,587.79L843.53,587.79L843.95,587.79L844.37,587.79L844.79,587.79L845.21,587.79L845.63,587.79L846.05,587.79L846.46,587.79L846.88,587.79L847.3,587.79L847.72,587.79L848.14,587.79L848.56,587.79L848.98,588L849.4,588L849.82,588L850.24,588L850.66,601.04L851.08,605.89L851.49,605.97L851.91,605.97L852.33,606.4L852.75,606.61L853.17,606.69L853.59,606.69L854.01,606.69L854.43,606.69L854.85,606.69L855.27,606.69L855.69,606.69L856.11,606.69L856.52,606.69L856.94,606.69L857.36,606.69L857.78,606.69L858.2,606.69L858.62,606.69L859.04,606.69L859.46,606.69L859.88,606.69L860.3,606.69L860.72,606.69L861.14,606.69L861.55,606.69L861.97,606.69L862.39,606.69L862.81,606.69L863.23,606.69L863.65,606.69L864.07,606.69L864.49,606.69L864.91,606.69L865.33,606.69L865.75,606.69L866.16,606.69L866.58,606.69L867,606.69L867.42,606.69L867.84,606.69L868.26,606.69L868.68,606.69L869.1,606.69L869.52,606.69L869.94,606.69L870.36,606.69L870.78,606.69L871.19,606.69L871.61,606.69L872.03,606.69L872.45,606.69L872.87,606.69L873.29,606.69L873.71,606.69L874.13,606.69L874.55,606.69L874.97,606.69L875.39,606.69L875.81,606.69L876.22,606.69L876.64,606.69L877.06,606.69L877.48,606.69L877.9,606.69L878.32,606.69L878.74,606.69L879.16,606.69L879.58,606.69L880,606.69L880.42,606.69L880.84,606.69L881.25,606.69L881.67,606.69L882.09,606.69L882.51,606.69L882.93,606.69L883.35,606.69L883.77,606.69L884.19,606.69L884.61,606.69L885.03,606.69L885.45,606.69L885.87,606.69L886.28,606.69L886.7,606.69L887.12,606.69L887.54,606.69L887.96,606.69L888.38,606.69L888.8,606.69L889.22,606.69L889.64,606.69L890.06,606.69L890.48,606.69L890.89,606.69L891.31,606.69L891.73,606.69L892.15,606.69L892.57,606.69L892.99,606.69L893.41,606.69L893.83,606.69L894.25,606.69L894.67,606.69L895.09,606.69L895.51,606.69L895.92,606.69L896.34,606.69L896.76,606.69L897.18,612.44L897.6,614.04L898.02,614.48L898.44,614.48L898.86,614.55L899.28,614.55L899.7,614.69L900.12,614.69L900.54,614.69L900.95,614.69L901.37,614.69L901.79,614.69L902.21,614.69L902.63,614.69L903.05,614.69L903.47,614.69L903.89,614.69L904.31,614.69L904.73,614.69L905.15,614.69L905.57,614.69L905.98,614.69L906.4,614.69L906.82,614.69L907.24,614.69L907.66,614.69L908.08,614.69L908.5,614.69L908.92,614.69L909.34,614.69L909.76,614.69L910.18,614.69L910.59,614.69L911.01,614.69L911.43,614.69L911.85,614.69L912.27,614.69L912.69,614.69L913.11,614.69L913.53,614.69L913.95,614.69L914.37,614.69L914.79,614.69L915.21,614.69L915.62,614.69L916.04,614.69L916.46,614.69L916.88,614.69L917.3,614.69L917.72,614.69L918.14,614.69L918.56,614.69L918.98,614.77L919.4,614.77L919.82,614.77L920.24,614.77L920.65,614.77L921.07,614.77L921.49,614.77L921.91,614.77L922.33,614.77L922.75,614.77L923.17,614.77L923.59,614.77L924.01,614.77L924.43,614.77L924.85,614.77L925.27,614.77L925.68,614.77L926.1,614.77L926.52,614.77L926.94,614.77L927.36,614.77L927.78,614.77L928.2,614.77L928.62,614.77L929.04,614.77L929.46,614.98L929.88,614.98L930.3,614.98L930.71,614.98L931.13,614.98L931.55,621.83L931.97,641.16L932.39,641.81L932.81,642.4L933.23,642.4L933.65,642.4L934.07,642.48L934.49,642.48L934.91,642.48L935.32,642.48L935.74,642.48L936.16,642.48L936.58,642.54L937,642.62L937.42,642.62L937.84,650.48L938.26,662.07L938.68,662.07L939.1,662.73L939.52,662.8L939.94,664.11L940.35,664.18L940.77,664.18L941.19,664.55L941.61,664.84L942.03,664.84L942.45,664.84L942.87,664.84L943.29,664.84L943.71,664.84L944.13,664.84L944.55,664.84L944.97,664.84L945.38,664.84L945.8,664.84L946.22,664.84L946.64,664.84L947.06,664.84L947.48,664.84L947.9,664.84L948.32,664.84L948.74,664.84L949.16,664.84L949.58,664.84L950,664.84L950.41,664.84L950.83,664.84L951.25,664.84L951.67,664.84L952.09,664.84L952.51,664.91L952.93,664.91L953.35,664.91L953.77,668.55L954.19,674.08L954.61,674.31L955.02,674.31L955.44,674.45L955.86,674.45L956.28,674.45L956.7,674.45L957.12,674.45L957.54,674.45L957.96,674.45L958.38,674.45L958.8,674.45L959.22,674.45L959.64,674.45L960.05,674.45L960.47,674.45L960.89,674.45L961.31,674.45L961.73,674.45L962.15,674.45L962.57,674.45L962.99,674.45L963.41,674.45L963.83,674.45L964.25,674.45L964.67,674.45L965.08,674.45L965.5,674.45L965.92,674.45L966.34,674.45L966.76,674.45L967.18,674.45L967.6,674.45L968.02,674.45L968.44,674.45L968.86,674.45L969.28,674.45L969.7,674.52L970.11,674.52L970.53,674.52L970.95,674.52L971.37,674.52L971.79,674.52L972.21,674.52L972.63,674.52L973.05,674.52L973.47,674.52L973.89,674.52L974.31,674.52L974.73,674.52L975.14,674.52L975.56,674.52L975.98,674.52L976.4,674.52L976.82,674.52L977.24,674.52L977.66,674.52L978.08,674.52L978.5,674.52L978.92,674.52L979.34,674.52L979.75,674.52L980.17,674.52L980.59,674.52L981.01,674.52L981.43,674.52L981.85,674.52L982.27,674.52L982.69,674.52L983.11,674.52L983.53,674.52L983.95,674.52L984.37,674.52L984.78,674.52L985.2,674.52L985.62,674.52L986.04,674.52L986.46,674.52L986.88,674.52L987.3,674.52L987.72,674.52L988.14,674.52L988.56,674.52L988.98,674.52L989.4,674.52L989.81,674.52L990.23,674.52L990.65,674.52L991.07,674.52L991.49,674.52L991.91,674.52L992.33,674.52L992.75,674.52L993.17,674.52L993.59,674.52L994.01,674.52L994.43,674.52L994.84,674.52L995.26,674.52L995.68,674.52L996.1,674.52L996.52,674.52L996.94,674.52L997.36,674.52L997.78,674.52L998.2,674.52L998.62,674.52L999.04,674.57L999.45,674.57L999.87,674.57L1000.3,679.02L1000.7,681.42L1001.1,684.98L1001.6,684.98L1002,684.98L1002.4,684.98L1002.8,685.05L1003.2,685.05L1003.6,685.05L1004.1,685.05L1004.5,685.05L1004.9,685.05L1005.3,685.05L1005.7,685.05L1006.2,685.05L1006.6,685.05L1007,685.05L1007.4,685.05L1007.8,685.05L1008.3,685.05L1008.7,685.05L1009.1,685.05L1009.5,685.05L1009.9,685.05L1010.4,685.05L1010.8,685.05L1011.2,685.05L1011.6,685.05L1012,685.05L1012.4,685.05L1012.9,685.05L1013.3,685.05L1013.7,685.05L1014.1,685.05L1014.5,685.05L1015,685.05L1015.4,685.05L1015.8,685.05L1016.2,685.05L1016.6,685.05L1017.1,685.05L1017.5,685.05L1017.9,685.05L1018.3,685.05L1018.7,685.05L1019.2,685.05L1019.6,685.05L1020,685.05L1020.4,685.05L1020.8,685.05L1021.3,685.05L1021.7,685.19L1022.1,685.19L1022.5,685.19L1022.9,685.19L1023.3,685.19L1023.8,685.19L1024.2,685.19L1024.6,685.19L1025,685.19L1025.4,685.19L1025.9,685.19L1026.3,685.19L1026.7,685.19L1027.1,685.19L1027.5,685.19L1028,685.19L1028.4,685.19L1028.8,685.19L1029.2,685.26L1029.6,685.26L1030.1,685.26L1030.5,685.26L1030.9,685.26L1031.3,685.26L1031.7,700.71L1032.1,700.85L1032.6,700.92L1033,700.92L1033.4,701.36L1033.8,701.36L1034.2,701.36L1034.7,701.36L1035.1,701.36L1035.5,701.36L1035.9,701.36L1036.3,701.36L1036.8,701.36L1037.2,701.36L1037.6,701.36L1038,701.36L1038.4,701.36L1038.9,701.36L1039.3,701.36L1039.7,701.36L1040.1,701.36L1040.5,701.36L1041,701.36L1041.4,701.36L1041.8,701.36L1042.2,701.36L1042.6,701.36L1043,701.36L1043.5,701.36L1043.9,701.36L1044.3,701.36L1044.7,701.36L1045.1,701.36L1045.6,701.36L1046,701.36L1046.4,701.36L1046.8,701.36L1047.2,701.36L1047.7,701.36L1048.1,701.36L1048.5,701.36L1048.9,701.36L1049.3,701.36L1049.8,701.36L1050.2,701.36L1050.6,701.36L1051,701.36L1051.4,701.36L1051.8,701.36L1052.3,701.36L1052.7,701.44L1053.1,701.44L1053.5,701.44L1053.9,701.44L1054.4,701.44L1054.8,701.44L1055.2,701.44L1055.6,701.44L1056,701.44L1056.5,701.44L1056.9,701.44L1057.3,701.44L1057.7,701.44L1058.1,701.44L1058.6,701.44L1059,701.44L1059.4,701.44L1059.8,701.44L1060.2,701.44L1060.7,701.44L1061.1,701.44L1061.5,701.44L1061.9,701.44L1062.3,701.44L1062.7,701.44L1063.2,701.44L1063.6,701.44L1064,701.44L1064.4,701.44L1064.8,701.44L1065.3,701.44L1065.7,701.44L1066.1,701.44L1066.5,701.44L1066.9,701.44L1067.4,701.44L1067.8,701.44L1068.2,701.44L1068.6,701.44L1069,701.44L1069.5,701.44L1069.9,701.44" style="fill:none;stroke:#F15A60;stroke-width:1.875" />
<path d="M1055,694.3L1080,694.3" style="fill:none;stroke:#F15A60;stroke-width:1.875" />
<text x="959.12" y="-687.85" transform="scale(1, -1)"
	style="font-family:Helvetica;font-weight:normal;font-style:normal;font-size:12pt">Consul v0.6.4</text>
</g>
</svg>
