<?xml version="1.0"?>
<!-- Generated by SVGo and Plotinum VG -->
<svg width="12in" height="8in"
	xmlns="http://www.w3.org/2000/svg"
	xmlns:xlink="http://www.w3.org/1999/xlink">
<g transform="scale(1, -1) translate(0, -720)">
<path d="M0,0L1080,0L1080,720L0,720Z" style="fill:#FFFFFF" />
<text x="291.99" y="-706.41" transform="scale(1, -1)"
	style="font-family:Helvetica;font-weight:normal;font-style:normal;font-size:12pt">Write 500K keys, 1-client, 8-byte key, 256-byte value (Consul v0.6.4), CPU</text>
<text x="536.11" y="-4.965" transform="scale(1, -1)"
	style="font-family:Helvetica;font-weight:normal;font-style:normal;font-size:12pt">Second</text>
<text x="49.712" y="-19.142" transform="scale(1, -1)"
	style="font-family:Helvetica;font-weight:normal;font-style:normal;font-size:10pt">0</text>
<text x="380.4" y="-19.142" transform="scale(1, -1)"
	style="font-family:Helvetica;font-weight:normal;font-style:normal;font-size:10pt">800</text>
<text x="714.56" y="-19.142" transform="scale(1, -1)"
	style="font-family:Helvetica;font-weight:normal;font-style:normal;font-size:10pt">1600</text>
<text x="1052.2" y="-19.142" transform="scale(1, -1)"
	style="font-family:Helvetica;font-weight:normal;font-style:normal;font-size:10pt">2400</text>
<path d="M53.188,30.467L53.188,40.467" style="fill:none;stroke:#000000;stroke-width:0.625" />
<path d="M390.83,30.467L390.83,40.467" style="fill:none;stroke:#000000;stroke-width:0.625" />
<path d="M728.46,30.467L728.46,40.467" style="fill:none;stroke:#000000;stroke-width:0.625" />
<path d="M1066.1,30.467L1066.1,40.467" style="fill:none;stroke:#000000;stroke-width:0.625" />
<path d="M222.01,35.468L222.01,40.467" style="fill:none;stroke:#000000;stroke-width:0.625" />
<path d="M559.64,35.468L559.64,40.467" style="fill:none;stroke:#000000;stroke-width:0.625" />
<path d="M897.28,35.468L897.28,40.467" style="fill:none;stroke:#000000;stroke-width:0.625" />
<path d="M53.188,40.467L1069.9,40.467" style="fill:none;stroke:#000000;stroke-width:0.625" />
<g transform="rotate(90)">
<text x="358.4" y="13.59" transform="scale(1, -1)"
	style="font-family:Helvetica;font-weight:normal;font-style:normal;font-size:12pt">CPU</text>
</g>
<text x="18.555" y="-187.6" transform="scale(1, -1)"
	style="font-family:Helvetica;font-weight:normal;font-style:normal;font-size:10pt">10</text>
<text x="18.555" y="-373.04" transform="scale(1, -1)"
	style="font-family:Helvetica;font-weight:normal;font-style:normal;font-size:10pt">20</text>
<text x="18.555" y="-558.48" transform="scale(1, -1)"
	style="font-family:Helvetica;font-weight:normal;font-style:normal;font-size:10pt">30</text>
<path d="M35.93,192.97L45.93,192.97" style="fill:none;stroke:#000000;stroke-width:0.625" />
<path d="M35.93,378.41L45.93,378.41" style="fill:none;stroke:#000000;stroke-width:0.625" />
<path d="M35.93,563.85L45.93,563.85" style="fill:none;stroke:#000000;stroke-width:0.625" />
<path d="M40.93,100.25L45.93,100.25" style="fill:none;stroke:#000000;stroke-width:0.625" />
<path d="M40.93,285.69L45.93,285.69" style="fill:none;stroke:#000000;stroke-width:0.625" />
<path d="M40.93,471.13L45.93,471.13" style="fill:none;stroke:#000000;stroke-width:0.625" />
<path d="M40.93,656.57L45.93,656.57" style="fill:none;stroke:#000000;stroke-width:0.625" />
<path d="M45.93,47.03L45.93,701.44" style="fill:none;stroke:#000000;stroke-width:0.625" />
<path d="M53.188,47.03L53.61,104.33L54.032,146.61L54.454,178.32L54.876,203.36L55.298,225.24L55.72,244.34L56.142,259.54L56.564,274.56L56.986,287.36L57.408,299.23L57.83,307.76L58.252,316.1L58.674,323.15L59.096,330.94L59.518,337.61L59.94,343.73L60.362,348.18L60.784,352.45L61.206,356.9L61.628,362.09L62.05,367.84L62.473,372.66L62.895,377.67L63.317,382.49L63.739,386.2L64.161,390.28L64.583,393.99L65.005,397.32L65.427,399.92L65.849,401.22L66.271,402.89L66.693,404.93L67.115,406.41L67.537,407.89L67.959,409.56L68.381,411.23L68.803,412.72L69.225,413.83L69.647,415.68L70.069,416.42L70.491,417.54L70.913,418.65L71.336,419.95L71.758,421.25L72.18,422.54L72.602,422.73L73.024,424.03L73.446,425.33L73.868,426.44L74.29,426.99L74.712,427.74L75.134,429.03L75.556,430.7L75.978,432.37L76.4,434.04L76.822,435.34L77.244,437.38L77.666,438.86L78.088,440.72L78.51,442.39L78.932,443.68L79.354,444.24L79.776,444.61L80.198,445.35L80.621,445.91L81.043,446.28L81.465,446.84L81.887,447.21L82.309,447.76L82.731,447.95L83.153,448.32L83.575,448.69L83.997,449.25L84.419,449.43L84.841,449.62L85.263,450.36L85.685,450.55L86.107,450.55L86.529,451.1L86.951,451.84L87.373,452.59L87.795,453.33L88.217,453.7L88.639,454.07L89.061,454.25L89.484,455L89.906,455.74L90.328,456.29L90.75,456.67L91.172,456.67L91.594,456.85L92.016,457.04L92.438,457.22L92.86,457.41L93.282,457.41L93.704,457.41L94.126,457.59L94.548,457.78L94.97,457.78L95.392,458.15L95.814,458.15L96.236,458.15L96.658,458.52L97.08,458.52L97.502,458.52L97.924,458.71L98.347,458.71L98.769,458.52L99.191,458.71L99.613,458.89L100.03,458.89L100.46,459.82L100.88,460.56L101.3,461.3L101.72,462.04L102.14,462.41L102.57,463.16L102.99,464.82L103.41,466.12L103.83,467.05L104.26,468.16L104.68,468.72L105.1,469.28L105.52,469.83L105.94,470.39L106.37,471.13L106.79,471.13L107.21,471.69L107.63,472.43L108.05,472.61L108.48,473.17L108.9,473.54L109.32,473.91L109.74,474.47L110.16,474.84L110.59,475.21L111.01,475.58L111.43,475.95L111.85,476.32L112.27,476.51L112.7,477.43L113.12,477.99L113.54,477.99L113.96,478.73L114.38,478.73L114.81,479.47L115.23,479.85L115.65,480.22L116.07,480.77L116.49,480.77L116.92,481.33L117.34,481.7L117.76,481.7L118.18,481.88L118.6,482.26L119.03,482.81L119.45,483.18L119.87,483L120.29,483.37L120.72,483.74L121.14,483.92L121.56,483.92L121.98,484.3L122.4,484.3L122.83,484.67L123.25,484.67L123.67,484.85L124.09,485.22L124.51,485.41L124.94,485.22L125.36,485.41L125.78,486.15L126.2,486.52L126.62,487.26L127.05,487.45L127.47,487.82L127.89,488.56L128.31,488.75L128.73,489.3L129.16,489.67L129.58,490.23L130,490.23L130.42,490.23L130.84,490.42L131.27,489.86L131.69,490.23L132.11,490.04L132.53,490.04L132.95,490.04L133.38,489.86L133.8,489.86L134.22,489.86L134.64,489.67L135.06,490.79L135.49,491.34L135.91,491.9L136.33,492.27L136.75,492.46L137.17,492.83L137.6,493.38L138.02,493.94L138.44,494.12L138.86,494.68L139.29,494.87L139.71,495.42L140.13,496.16L140.55,496.53L140.97,497.09L141.4,497.46L141.82,497.83L142.24,498.39L142.66,498.39L143.08,498.95L143.51,499.32L143.93,499.5L144.35,499.69L144.77,500.06L145.19,500.43L145.62,500.8L146.04,501.17L146.46,501.73L146.88,501.54L147.3,502.28L147.73,502.28L148.15,503.03L148.57,504.14L148.99,505.06L149.41,505.62L149.84,506.18L150.26,506.73L150.68,507.1L151.1,507.85L151.52,508.4L151.95,509.33L152.37,509.89L152.79,510.63L153.21,511.56L153.63,511.74L154.06,512.3L154.48,513.04L154.9,513.78L155.32,514.15L155.74,514.89L156.17,515.26L156.59,515.45L157.01,516.19L157.43,516.56L157.86,517.3L158.28,517.67L158.7,518.23L159.12,518.42L159.54,518.79L159.97,519.34L160.39,519.53L160.81,520.09L161.23,520.27L161.65,520.83L162.08,521.01L162.5,521.01L162.92,521.75L163.34,521.94L163.76,522.31L164.19,523.05L164.61,523.61L165.03,523.61L165.45,523.98L165.87,524.72L166.3,525.09L166.72,525.28L167.14,526.02L167.56,526.02L167.98,526.58L168.41,526.76L168.83,527.13L169.25,527.69L169.67,527.87L170.09,528.43L170.52,528.43L170.94,528.62L171.36,528.99L171.78,528.99L172.2,529.36L172.63,529.54L173.05,529.73L173.47,530.28L173.89,530.28L174.31,530.66L174.74,531.03L175.16,530.84L175.58,531.4L176,531.4L176.43,531.95L176.85,532.32L177.27,532.51L177.69,532.88L178.11,533.25L178.54,533.81L178.96,533.99L179.38,534.55L179.8,535.11L180.22,535.11L180.65,535.66L181.07,535.66L181.49,536.03L181.91,536.03L182.33,536.03L182.76,536.22L183.18,536.22L183.6,536.77L184.02,536.77L184.44,536.77L184.87,537.15L185.29,536.96L185.71,537.33L186.13,537.15L186.55,537.33L186.98,537.52L187.4,537.7L187.82,538.44L188.24,539.19L188.66,539.37L189.09,539.93L189.51,540.48L189.93,541.41L190.35,541.97L190.77,542.52L191.2,543.27L191.62,543.64L192.04,544.01L192.46,544.56L192.89,545.31L193.31,545.49L193.73,545.86L194.15,546.42L194.57,546.79L195,547.35L195.42,547.53L195.84,548.27L196.26,548.64L196.68,549.01L197.11,549.57L197.53,549.76L197.95,550.31L198.37,550.68L198.79,551.05L199.22,551.42L199.64,551.98L200.06,551.98L200.48,552.72L200.9,553.09L201.33,553.28L201.75,553.65L202.17,554.39L202.59,554.95L203.01,555.5L203.44,556.25L203.86,556.62L204.28,557.36L204.7,557.92L205.12,558.47L205.55,559.03L205.97,559.4L206.39,559.77L206.81,559.95L207.23,560.14L207.66,560.7L208.08,560.88L208.5,560.88L208.92,561.44L209.34,561.44L209.77,561.81L210.19,562.18L210.61,562.37L211.03,562.55L211.46,563.11L211.88,563.11L212.3,563.48L212.72,563.85L213.14,564.22L213.57,564.22L213.99,564.59L214.41,564.78L214.83,564.78L215.25,565.33L215.68,565.52L216.1,565.7L216.52,566.26L216.94,566.45L217.36,566.63L217.79,566.82L218.21,566.82L218.63,567.19L219.05,567.56L219.47,567.74L219.9,567.74L220.32,567.93L220.74,568.3L221.16,568.49L221.58,568.3L222.01,568.67L222.43,568.86L222.85,568.67L223.27,568.86L223.69,569.04L224.12,568.86L224.54,569.04L224.96,569.23L225.38,569.04L225.8,569.41L226.23,569.41L226.65,569.23L227.07,569.6L227.49,569.78L227.91,569.97L228.34,570.34L228.76,570.34L229.18,570.71L229.6,571.08L230.03,571.27L230.45,571.27L230.87,571.45L231.29,571.82L231.71,571.64L232.14,571.45L232.56,571.82L232.98,571.64L233.4,571.64L233.82,571.82L234.25,572.01L234.67,571.64L235.09,572.01L235.51,571.64L235.93,571.64L236.36,571.64L236.78,571.64L237.2,571.64L237.62,571.82L238.04,571.64L238.47,571.45L238.89,571.27L239.31,571.27L239.73,571.64L240.15,571.45L240.58,571.45L241,571.45L241.42,571.82L241.84,572.01L242.26,572.56L242.69,572.94L243.11,573.12L243.53,572.75L243.95,573.31L244.37,573.31L244.8,573.49L245.22,573.68L245.64,573.86L246.06,574.05L246.48,573.86L246.91,574.23L247.33,574.23L247.75,574.42L248.17,574.23L248.6,574.6L249.02,574.79L249.44,574.79L249.86,574.79L250.28,574.98L250.71,575.35L251.13,575.16L251.55,575.35L251.97,575.53L252.39,575.72L252.82,575.72L253.24,575.9L253.66,576.09L254.08,576.27L254.5,576.64L254.93,576.64L255.35,577.02L255.77,577.02L256.19,577.39L256.61,577.57L257.04,577.39L257.46,577.57L257.88,577.57L258.3,577.57L258.72,578.68L259.15,578.87L259.57,579.06L259.99,579.43L260.41,579.43L260.83,579.61L261.26,579.61L261.68,580.17L262.1,580.35L262.52,580.35L262.94,580.54L263.37,580.72L263.79,581.09L264.21,581.28L264.63,581.47L265.06,581.28L265.48,581.65L265.9,581.84L266.32,582.21L266.74,582.21L267.17,582.21L267.59,582.58L268.01,582.76L268.43,582.95L268.85,583.32L269.28,583.32L269.7,583.32L270.12,583.32L270.54,583.88L270.96,584.06L271.39,584.25L271.81,584.43L272.23,584.62L272.65,584.8L273.07,584.99L273.5,585.17L273.92,585.36L274.34,585.36L274.76,585.55L275.18,585.55L275.61,585.73L276.03,585.92L276.45,586.29L276.87,586.29L277.29,586.29L277.72,586.47L278.14,586.66L278.56,586.84L278.98,587.21L279.4,587.21L279.83,587.59L280.25,587.96L280.67,588.33L281.09,588.14L281.51,588.51L281.94,588.7L282.36,588.88L282.78,589.25L283.2,589.25L283.63,589.25L284.05,589.25L284.47,589.44L284.89,589.81L285.31,589.81L285.74,589.81L286.16,590L286.58,590.37L287,590.18L287.42,590.37L287.85,590.55L288.27,590.37L288.69,590.74L289.11,590.92L289.53,590.74L289.96,592.04L290.38,592.22L290.8,592.59L291.22,592.78L291.64,592.96L292.07,593.33L292.49,593.52L292.91,594.08L293.33,594.26L293.75,594.45L294.18,594.63L294.6,595L295.02,595.19L295.44,595.37L295.86,595.56L296.29,595.74L296.71,595.74L297.13,595.93L297.55,596.3L297.97,596.67L298.4,596.86L298.82,596.86L299.24,597.23L299.66,597.23L300.08,597.6L300.51,597.97L300.93,597.97L301.35,598.34L301.77,598.53L302.2,598.71L302.62,598.71L303.04,598.9L303.46,599.27L303.88,599.45L304.31,599.82L304.73,600.01L305.15,600.38L305.57,600.38L305.99,600.57L306.42,600.94L306.84,601.12L307.26,601.31L307.68,601.68L308.1,601.68L308.53,602.98L308.95,602.98L309.37,602.98L309.79,603.16L310.21,603.53L310.64,603.53L311.06,603.72L311.48,603.9L311.9,604.09L312.32,604.09L312.75,604.46L313.17,604.46L313.59,604.65L314.01,604.83L314.43,604.83L314.86,605.2L315.28,605.2L315.7,605.39L316.12,605.57L316.54,605.76L316.97,606.13L317.39,606.13L317.81,606.13L318.23,606.69L318.65,606.5L319.08,606.87L319.5,606.87L319.92,607.06L320.34,606.87L320.77,607.06L321.19,607.24L321.61,607.43L322.03,607.43L322.45,607.61L322.88,607.61L323.3,607.43L323.72,607.8L324.14,607.98L324.56,608.17L324.99,608.35L325.41,608.35L325.83,608.54L326.25,608.35L326.67,608.73L327.1,608.91L327.52,608.91L327.94,609.1L328.36,609.1L328.78,609.28L329.21,609.65L329.63,610.21L330.05,610.77L330.47,611.14L330.89,611.69L331.32,612.06L331.74,611.88L332.16,612.43L332.58,612.62L333,612.99L333.43,613.18L333.85,613.18L334.27,613.36L334.69,613.55L335.11,613.73L335.54,613.92L335.96,613.92L336.38,614.1L336.8,614.47L337.23,614.47L337.65,614.47L338.07,614.66L338.49,615.03L338.91,615.22L339.34,615.03L339.76,615.4L340.18,615.22L340.6,615.4L341.02,615.59L341.45,615.96L341.87,615.96L342.29,616.33L342.71,615.96L343.13,616.51L343.56,616.33L343.98,616.7L344.4,616.7L344.82,616.88L345.24,617.07L345.67,617.44L346.09,617.26L346.51,617.44L346.93,617.81L347.35,617.81L347.78,617.81L348.2,617.81L348.62,618.18L349.04,618.37L349.46,618.37L349.89,618.37L350.31,618.55L350.73,618.55L351.15,618.92L351.57,618.74L352,618.92L352.42,619.11L352.84,619.3L353.26,619.3L353.68,619.48L354.11,619.48L354.53,619.85L354.95,620.04L355.37,620.22L355.8,620.22L356.22,620.59L356.64,620.59L357.06,620.96L357.48,621.52L357.91,621.15L358.33,621.52L358.75,621.34L359.17,621.52L359.59,621.71L360.02,621.52L360.44,621.89L360.86,621.71L361.28,622.08L361.7,622.08L362.13,622.08L362.55,622.08L362.97,622.63L363.39,623.19L363.81,623.19L364.24,623.56L364.66,624.3L365.08,624.12L365.5,624.49L365.92,624.67L366.35,624.67L366.77,625.04L367.19,625.04L367.61,625.04L368.03,625.6L368.46,625.41L368.88,625.79L369.3,625.97L369.72,625.97L370.14,625.97L370.57,626.16L370.99,626.34L371.41,626.53L371.83,626.53L372.25,626.71L372.68,626.9L373.1,626.71L373.52,627.08L373.94,627.27L374.37,627.45L374.79,627.45L375.21,627.64L375.63,627.64L376.05,627.83L376.48,628.01L376.9,628.01L377.32,628.2L377.74,628.38L378.16,628.57L378.59,628.57L379.01,628.57L379.43,628.75L379.85,628.94L380.27,629.12L380.7,629.31L381.12,629.31L381.54,629.68L381.96,629.68L382.38,630.05L382.81,630.24L383.23,630.05L383.65,630.42L384.07,630.42L384.49,630.42L384.92,630.61L385.34,630.79L385.76,630.79L386.18,631.72L386.6,632.09L387.03,632.09L387.45,632.09L387.87,632.65L388.29,632.28L388.71,632.65L389.14,632.65L389.56,632.83L389.98,633.02L390.4,632.83L390.83,633.39L391.25,633.02L391.67,633.39L392.09,633.39L392.51,633.57L392.94,633.57L393.36,633.95L393.78,633.95L394.2,633.95L394.62,634.13L395.05,634.32L395.47,634.5L395.89,634.5L396.31,634.5L396.73,634.87L397.16,634.87L397.58,635.06L398,635.06L398.42,635.06L398.84,635.24L399.27,635.24L399.69,635.61L400.11,635.43L400.53,635.61L400.95,635.8L401.38,635.8L401.8,635.8L402.22,635.8L402.64,635.98L403.06,636.17L403.49,636.17L403.91,636.54L404.33,636.17L404.75,636.73L405.17,636.73L405.6,636.91L406.02,637.1L406.44,637.28L406.86,637.28L407.28,637.47L407.71,637.65L408.13,637.84L408.55,637.84L408.97,638.21L409.4,638.02L409.82,638.4L410.24,638.02L410.66,638.58L411.08,638.21L411.51,638.77L411.93,638.4L412.35,638.77L412.77,638.77L413.19,638.95L413.62,638.95L414.04,639.14L414.46,638.95L414.88,639.14L415.3,639.14L415.73,639.14L416.15,639.14L416.57,639.14L416.99,639.32L417.41,639.51L417.84,639.32L418.26,639.51L418.68,639.51L419.1,639.51L419.52,640.06L419.95,640.44L420.37,640.81L420.79,640.62L421.21,640.81L421.63,640.99L422.06,640.62L422.48,640.99L422.9,640.81L423.32,641.18L423.74,640.99L424.17,640.81L424.59,641.18L425.01,641.18L425.43,640.99L425.85,641.18L426.28,641.36L426.7,641.36L427.12,641.18L427.54,641.36L427.97,641.36L428.39,641.55L428.81,641.55L429.23,641.55L429.65,641.55L430.08,641.55L430.5,641.92L430.92,641.92L431.34,641.92L431.76,642.1L432.19,642.29L432.61,642.29L433.03,642.48L433.45,642.29L433.87,642.66L434.3,642.48L434.72,642.29L435.14,642.66L435.56,642.48L435.98,642.66L436.41,642.85L436.83,642.66L437.25,642.66L437.67,642.66L438.09,642.66L438.52,642.85L438.94,643.4L439.36,643.77L439.78,643.59L440.2,643.96L440.63,643.77L441.05,643.96L441.47,643.77L441.89,644.33L442.31,644.14L442.74,643.96L443.16,643.96L443.58,643.96L444,644.33L444.42,644.14L444.85,644.14L445.27,644.14L445.69,644.7L446.11,644.52L446.54,644.52L446.96,644.52L447.38,644.7L447.8,644.7L448.22,644.52L448.65,644.7L449.07,644.89L449.49,644.7L449.91,644.89L450.33,644.89L450.76,645.26L451.18,645.26L451.6,645.07L452.02,645.07L452.44,645.26L452.87,645.26L453.29,645.26L453.71,646L454.13,646.37L454.55,646.18L454.98,646.55L455.4,646.37L455.82,646.93L456.24,646.93L456.66,647.11L457.09,647.11L457.51,647.11L457.93,647.3L458.35,647.48L458.77,647.67L459.2,647.85L459.62,647.85L460.04,648.04L460.46,648.04L460.88,648.04L461.31,648.04L461.73,648.04L462.15,648.22L462.57,648.22L463,648.41L463.42,648.59L463.84,648.59L464.26,648.59L464.68,648.78L465.11,648.78L465.53,649.15L465.95,648.97L466.37,648.97L466.79,649.34L467.22,649.15L467.64,649.15L468.06,649.34L468.48,649.34L468.9,649.34L469.33,649.71L469.75,649.71L470.17,649.71L470.59,649.89L471.01,649.89L471.44,649.89L471.86,650.08L472.28,650.08L472.7,650.26L473.12,650.26L473.55,650.08L473.97,650.26L474.39,650.45L474.81,650.45L475.23,650.45L475.66,650.63L476.08,650.82L476.5,650.63L476.92,650.63L477.34,650.82L477.77,651.01L478.19,651.01L478.61,651.01L479.03,650.82L479.45,651.19L479.88,651.01L480.3,651.19L480.72,651.38L481.14,651.38L481.57,651.38L481.99,651.75L482.41,651.56L482.83,651.75L483.25,651.93L483.68,651.93L484.1,652.12L484.52,652.12L484.94,651.93L485.36,652.12L485.79,652.12L486.21,652.49L486.63,652.3L487.05,652.49L487.47,652.49L487.9,652.49L488.32,652.49L488.74,652.49L489.16,652.3L489.58,652.49L490.01,652.67L490.43,652.49L490.85,652.49L491.27,652.67L491.69,652.86L492.12,652.67L492.54,652.49L492.96,652.86L493.38,652.67L493.8,652.67L494.23,652.86L494.65,652.67L495.07,652.67L495.49,653.05L495.91,653.05L496.34,653.23L496.76,653.05L497.18,653.05L497.6,653.05L498.02,653.05L498.45,653.79L498.87,653.97L499.29,653.97L499.71,654.16L500.14,653.97L500.56,654.16L500.98,654.16L501.4,654.16L501.82,654.16L502.25,654.16L502.67,654.34L503.09,654.34L503.51,654.34L503.93,653.97L504.36,654.34L504.78,654.16L505.2,654.16L505.62,654.34L506.04,654.53L506.47,654.53L506.89,654.53L507.31,654.53L507.73,654.53L508.15,654.9L508.58,654.71L509,655.09L509.42,654.9L509.84,655.09L510.26,655.09L510.69,655.09L511.11,654.71L511.53,654.9L511.95,654.9L512.37,655.64L512.8,655.64L513.22,655.83L513.64,655.83L514.06,656.01L514.48,656.01L514.91,656.2L515.33,656.2L515.75,656.2L516.17,656.2L516.59,656.38L517.02,656.38L517.44,656.75L517.86,656.57L518.28,656.57L518.71,656.57L519.13,656.57L519.55,656.75L519.97,656.94L520.39,656.94L520.82,657.13L521.24,657.13L521.66,657.13L522.08,657.13L522.5,657.31L522.93,657.31L523.35,657.87L523.77,658.24L524.19,658.42L524.61,658.42L525.04,658.24L525.46,658.61L525.88,658.42L526.3,658.79L526.72,658.61L527.15,658.98L527.57,658.79L527.99,658.98L528.41,658.98L528.83,659.16L529.26,659.16L529.68,659.35L530.1,659.16L530.52,659.35L530.94,659.54L531.37,659.72L531.79,659.72L532.21,659.72L532.63,660.09L533.05,660.09L533.48,660.46L533.9,660.28L534.32,660.65L534.74,660.65L535.17,660.83L535.59,661.02L536.01,661.02L536.43,661.02L536.85,661.2L537.28,661.2L537.7,661.02L538.12,661.2L538.54,661.2L538.96,661.39L539.39,661.39L539.81,661.39L540.23,661.58L540.65,661.39L541.07,661.39L541.5,661.58L541.92,661.58L542.34,661.76L542.76,661.58L543.18,661.76L543.61,661.76L544.03,662.13L544.45,661.95L544.87,661.95L545.29,662.13L545.72,662.13L546.14,662.13L546.56,662.13L546.98,662.13L547.4,662.13L547.83,662.32L548.25,662.32L548.67,662.5L549.09,662.32L549.51,662.5L549.94,662.5L550.36,662.69L550.78,662.69L551.2,662.5L551.62,662.69L552.05,662.69L552.47,662.5L552.89,662.87L553.31,662.69L553.74,662.69L554.16,662.87L554.58,662.69L555,662.69L555.42,662.69L555.85,662.69L556.27,663.06L556.69,662.87L557.11,663.24L557.53,663.24L557.96,663.06L558.38,663.43L558.8,663.43L559.22,663.43L559.64,663.8L560.07,663.8L560.49,663.62L560.91,663.99L561.33,663.8L561.75,663.62L562.18,663.8L562.6,663.8L563.02,663.62L563.44,663.8L563.86,663.62L564.29,663.62L564.71,663.8L565.13,663.62L565.55,663.62L565.97,663.8L566.4,663.62L566.82,663.8L567.24,663.8L567.66,663.8L568.08,663.62L568.51,663.62L568.93,663.99L569.35,663.8L569.77,663.62L570.19,663.8L570.62,663.8L571.04,663.99L571.46,663.8L571.88,663.8L572.31,663.8L572.73,663.8L573.15,663.8L573.57,663.8L573.99,663.8L574.42,663.8L574.84,663.99L575.26,663.8L575.68,663.8L576.1,663.62L576.53,663.99L576.95,664.54L577.37,664.54L577.79,664.73L578.21,664.73L578.64,664.91L579.06,665.1L579.48,665.84L579.9,665.66L580.32,666.03L580.75,666.03L581.17,666.03L581.59,666.21L582.01,666.21L582.43,666.4L582.86,666.4L583.28,666.58L583.7,666.58L584.12,666.95L584.54,666.77L584.97,667.32L585.39,667.14L585.81,667.51L586.23,667.32L586.65,667.32L587.08,667.32L587.5,667.51L587.92,667.51L588.34,667.51L588.76,667.7L589.19,667.7L589.61,667.51L590.03,667.7L590.45,667.88L590.88,668.62L591.3,668.81L591.72,668.81L592.14,668.99L592.56,668.81L592.99,668.81L593.41,668.99L593.83,668.99L594.25,669.18L594.67,669.36L595.1,669.18L595.52,669.36L595.94,669.36L596.36,669.55L596.78,669.55L597.21,669.55L597.63,669.55L598.05,669.73L598.47,669.55L598.89,669.73L599.32,669.92L599.74,669.73L600.16,670.11L600.58,669.92L601,669.92L601.43,670.11L601.85,670.11L602.27,670.11L602.69,670.29L603.11,670.29L603.54,670.29L603.96,670.11L604.38,670.11L604.8,670.11L605.22,670.11L605.65,670.29L606.07,670.48L606.49,670.29L606.91,670.48L607.34,670.66L607.76,670.48L608.18,670.85L608.6,670.85L609.02,670.85L609.45,670.85L609.87,671.03L610.29,671.03L610.71,671.22L611.13,671.4L611.56,671.4L611.98,671.22L612.4,671.4L612.82,671.4L613.24,671.4L613.67,671.4L614.09,671.4L614.51,671.59L614.93,671.4L615.35,671.59L615.78,671.59L616.2,671.4L616.62,671.77L617.04,671.59L617.46,671.59L617.89,671.59L618.31,671.59L618.73,671.77L619.15,671.77L619.57,671.77L620,671.77L620.42,671.96L620.84,671.77L621.26,671.77L621.68,671.96L622.11,672.15L622.53,671.96L622.95,671.96L623.37,672.15L623.79,671.96L624.22,671.96L624.64,672.15L625.06,672.33L625.48,672.15L625.91,672.15L626.33,672.15L626.75,672.15L627.17,672.15L627.59,672.15L628.02,672.15L628.44,672.33L628.86,672.15L629.28,671.96L629.7,672.33L630.13,672.33L630.55,672.15L630.97,672.15L631.39,672.15L631.81,672.15L632.24,672.33L632.66,672.15L633.08,672.15L633.5,672.33L633.92,672.52L634.35,672.52L634.77,672.33L635.19,672.52L635.61,672.7L636.03,672.52L636.46,672.7L636.88,672.52L637.3,672.7L637.72,672.7L638.14,672.52L638.57,672.33L638.99,672.89L639.41,673.26L639.83,673.26L640.25,673.44L640.68,673.63L641.1,673.44L641.52,673.44L641.94,673.63L642.36,673.63L642.79,673.63L643.21,673.44L643.63,673.63L644.05,673.81L644.48,673.63L644.9,673.44L645.32,673.81L645.74,673.63L646.16,673.81L646.59,673.81L647.01,673.63L647.43,673.81L647.85,673.81L648.27,673.81L648.7,673.63L649.12,674L649.54,673.81L649.96,674L650.38,673.81L650.81,674L651.23,674L651.65,674L652.07,674.37L652.49,674.19L652.92,674L653.34,674L653.76,674.19L654.18,674.19L654.6,674L655.03,674L655.45,674.19L655.87,674.19L656.29,674.37L656.71,674.19L657.14,674.19L657.56,674.37L657.98,674.37L658.4,674.19L658.82,674.56L659.25,674.56L659.67,674.56L660.09,674.74L660.51,674.74L660.93,674.93L661.36,674.74L661.78,674.56L662.2,675.11L662.62,674.93L663.05,674.93L663.47,674.93L663.89,674.74L664.31,674.93L664.73,674.93L665.16,674.74L665.58,674.93L666,674.93L666.42,674.74L666.84,674.74L667.27,674.93L667.69,674.74L668.11,674.93L668.53,674.74L668.95,674.56L669.38,674.56L669.8,674.56L670.22,674.56L670.64,674.93L671.06,674.74L671.49,674.93L671.91,674.56L672.33,674.56L672.75,674.37L673.17,674.56L673.6,675.11L674.02,675.3L674.44,675.67L674.86,675.48L675.28,675.67L675.71,676.04L676.13,676.23L676.55,676.6L676.97,676.41L677.39,676.6L677.82,676.6L678.24,676.6L678.66,676.78L679.08,676.6L679.51,676.78L679.93,676.97L680.35,676.78L680.77,676.97L681.19,676.78L681.62,677.34L682.04,677.15L682.46,676.97L682.88,677.15L683.3,677.15L683.73,677.52L684.15,677.34L684.57,677.34L684.99,677.52L685.41,677.52L685.84,677.52L686.26,677.71L686.68,677.52L687.1,677.52L687.52,677.89L687.95,677.71L688.37,677.89L688.79,677.71L689.21,677.71L689.63,677.89L690.06,677.89L690.48,677.71L690.9,677.89L691.32,678.08L691.74,677.89L692.17,678.08L692.59,677.89L693.01,677.89L693.43,678.08L693.85,677.89L694.28,678.08L694.7,678.08L695.12,677.89L695.54,678.08L695.96,678.27L696.39,678.08L696.81,678.08L697.23,678.27L697.65,678.27L698.08,678.27L698.5,678.08L698.92,678.45L699.34,678.27L699.76,678.27L700.19,678.27L700.61,678.27L701.03,678.64L701.45,678.45L701.87,678.27L702.3,678.45L702.72,678.27L703.14,678.27L703.56,678.64L703.98,678.45L704.41,678.27L704.83,678.45L705.25,678.64L705.67,678.45L706.09,678.64L706.52,678.45L706.94,678.27L707.36,678.64L707.78,678.64L708.2,678.45L708.63,678.64L709.05,678.64L709.47,678.45L709.89,678.45L710.31,678.64L710.74,678.82L711.16,678.64L711.58,678.82L712,678.64L712.42,678.64L712.85,678.64L713.27,678.64L713.69,678.64L714.11,678.64L714.53,678.82L714.96,678.82L715.38,678.64L715.8,678.82L716.22,678.64L716.65,678.45L717.07,679.01L717.49,678.82L717.91,678.64L718.33,678.64L718.76,678.82L719.18,678.64L719.6,678.45L720.02,678.64L720.44,678.64L720.87,678.82L721.29,678.64L721.71,678.82L722.13,679.01L722.55,678.82L722.98,678.64L723.4,678.45L723.82,678.82L724.24,678.64L724.66,678.45L725.09,678.64L725.51,678.82L725.93,678.64L726.35,678.45L726.77,678.64L727.2,678.64L727.62,678.45L728.04,678.45L728.46,678.64L728.88,678.45L729.31,678.27L729.73,678.27L730.15,678.64L730.57,678.45L730.99,678.45L731.42,678.45L731.84,678.45L732.26,678.27L732.68,678.08L733.11,678.27L733.53,678.08L733.95,678.27L734.37,678.08L734.79,678.08L735.22,678.08L735.64,678.27L736.06,678.27L736.48,678.08L736.9,678.27L737.33,678.27L737.75,678.08L738.17,678.45L738.59,678.82L739.01,678.82L739.44,679.19L739.86,679.01L740.28,679.01L740.7,679.19L741.12,679.01L741.55,679.19L741.97,679.01L742.39,679.19L742.81,679.19L743.23,679.19L743.66,679.38L744.08,679.56L744.5,679.93L744.92,680.3L745.34,680.12L745.77,680.3L746.19,680.49L746.61,680.3L747.03,680.49L747.45,680.3L747.88,680.49L748.3,680.68L748.72,680.68L749.14,680.68L749.56,680.86L749.99,680.68L750.41,680.68L750.83,681.05L751.25,680.86L751.68,680.86L752.1,681.05L752.52,680.86L752.94,681.05L753.36,681.05L753.79,681.05L754.21,681.23L754.63,681.05L755.05,680.86L755.47,681.23L755.9,681.05L756.32,681.23L756.74,681.6L757.16,681.79L757.58,682.16L758.01,682.16L758.43,682.16L758.85,682.34L759.27,682.34L759.69,682.53L760.12,682.34L760.54,682.53L760.96,682.72L761.38,682.72L761.8,682.9L762.23,682.72L762.65,682.9L763.07,683.09L763.49,682.9L763.91,683.09L764.34,682.9L764.76,683.09L765.18,682.9L765.6,683.09L766.02,683.27L766.45,683.09L766.87,683.27L767.29,683.46L767.71,683.27L768.13,683.09L768.56,683.64L768.98,683.46L769.4,683.27L769.82,683.27L770.25,683.64L770.67,683.46L771.09,683.27L771.51,683.09L771.93,683.46L772.36,683.46L772.78,683.27L773.2,683.27L773.62,683.46L774.04,683.46L774.47,683.64L774.89,683.64L775.31,683.64L775.73,683.64L776.15,683.64L776.58,683.64L777,683.64L777.42,683.46L777.84,683.64L778.26,683.64L778.69,683.64L779.11,683.64L779.53,683.64L779.95,683.83L780.37,683.83L780.8,683.64L781.22,683.64L781.64,683.83L782.06,683.83L782.48,683.64L782.91,683.83L783.33,683.83L783.75,683.83L784.17,683.64L784.59,684.2L785.02,684.01L785.44,684.01L785.86,683.83L786.28,684.38L786.7,684.2L787.13,684.2L787.55,684.2L787.97,684.2L788.39,684.38L788.82,684.2L789.24,684.38L789.66,684.38L790.08,684.38L790.5,684.38L790.93,684.38L791.35,684.38L791.77,684.38L792.19,684.57L792.61,684.38L793.04,684.38L793.46,684.38L793.88,684.57L794.3,684.38L794.72,684.38L795.15,684.38L795.57,684.38L795.99,684.38L796.41,684.38L796.83,684.38L797.26,684.57L797.68,684.38L798.1,684.38L798.52,684.38L798.94,684.38L799.37,684.57L799.79,684.57L800.21,684.38L800.63,684.2L801.05,684.76L801.48,684.57L801.9,684.38L802.32,684.38L802.74,684.57L803.16,684.57L803.59,684.38L804.01,684.38L804.43,684.38L804.85,684.38L805.28,684.2L805.7,684.38L806.12,684.2L806.54,684.2L806.96,684.38L807.39,684.2L807.81,684.2L808.23,684.38L808.65,684.38L809.07,684.2L809.5,684.2L809.92,684.38L810.34,684.38L810.76,684.57L811.18,684.38L811.61,684.57L812.03,684.38L812.45,684.38L812.87,684.38L813.29,684.38L813.72,684.57L814.14,684.38L814.56,684.2L814.98,684.2L815.4,684.57L815.83,684.38L816.25,684.38L816.67,684.2L817.09,684.01L817.51,684.38L817.94,684.2L818.36,684.2L818.78,684.2L819.2,684.2L819.62,684.01L820.05,684.2L820.47,684.01L820.89,683.83L821.31,684.01L821.73,684.2L822.16,684.01L822.58,683.83L823,684.01L823.42,684.01L823.85,684.01L824.27,684.01L824.69,683.83L825.11,683.83L825.53,683.83L825.96,683.83L826.38,684.01L826.8,683.83L827.22,683.64L827.64,683.64L828.07,683.64L828.49,684.01L828.91,684.57L829.33,684.57L829.75,684.57L830.18,684.38L830.6,684.57L831.02,684.57L831.44,684.38L831.86,684.76L832.29,684.76L832.71,685.13L833.13,685.5L833.55,685.68L833.97,685.68L834.4,685.68L834.82,685.68L835.24,685.87L835.66,685.87L836.08,685.87L836.51,686.24L836.93,686.24L837.35,686.05L837.77,686.42L838.19,686.42L838.62,686.24L839.04,686.61L839.46,686.42L839.88,686.42L840.3,686.42L840.73,686.8L841.15,686.61L841.57,686.42L841.99,686.8L842.42,686.61L842.84,686.42L843.26,686.98L843.68,686.8L844.1,686.61L844.53,686.98L844.95,686.8L845.37,686.8L845.79,686.98L846.21,686.8L846.64,686.98L847.06,687.35L847.48,687.72L847.9,688.09L848.32,687.91L848.75,687.72L849.17,687.91L849.59,688.09L850.01,687.91L850.43,688.09L850.86,688.09L851.28,688.28L851.7,688.09L852.12,688.09L852.54,688.28L852.97,688.28L853.39,688.28L853.81,688.46L854.23,688.46L854.65,688.28L855.08,688.28L855.5,688.65L855.92,688.46L856.34,688.28L856.76,688.46L857.19,688.65L857.61,688.46L858.03,688.46L858.45,688.28L858.87,688.65L859.3,688.46L859.72,688.46L860.14,688.28L860.56,688.65L860.99,688.46L861.41,688.65L861.83,688.46L862.25,688.65L862.67,688.84L863.1,688.84L863.52,688.65L863.94,688.84L864.36,689.21L864.78,689.02L865.21,688.84L865.63,689.21L866.05,689.21L866.47,689.02L866.89,689.02L867.32,689.21L867.74,689.02L868.16,689.02L868.58,688.84L869,689.21L869.43,689.02L869.85,689.02L870.27,689.21L870.69,689.21L871.11,689.02L871.54,689.02L871.96,689.39L872.38,689.21L872.8,689.21L873.22,689.21L873.65,689.02L874.07,689.21L874.49,689.39L874.91,689.39L875.33,689.39L875.76,689.39L876.18,689.39L876.6,689.39L877.02,689.58L877.45,689.58L877.87,689.39L878.29,689.21L878.71,689.58L879.13,689.58L879.56,689.39L879.98,689.39L880.4,689.21L880.82,689.76L881.24,689.58L881.67,689.39L882.09,689.21L882.51,689.58L882.93,689.76L883.35,689.58L883.78,689.39L884.2,689.39L884.62,689.58L885.04,689.58L885.46,689.58L885.89,689.58L886.31,689.58L886.73,689.58L887.15,689.58L887.57,689.76L888,689.76L888.42,689.58L888.84,689.76L889.26,689.95L889.68,689.95L890.11,689.76L890.53,689.95L890.95,689.95L891.37,689.76L891.79,689.58L892.22,689.76L892.64,689.76L893.06,689.95L893.48,690.13L893.9,690.5L894.33,690.32L894.75,690.69L895.17,690.69L895.59,690.5L896.02,690.5L896.44,690.5L896.86,690.69L897.28,690.69L897.7,690.87L898.13,690.69L898.55,690.69L898.97,691.06L899.39,691.06L899.81,690.87L900.24,690.69L900.66,691.06L901.08,691.06L901.5,691.06L901.92,691.06L902.35,691.06L902.77,690.87L903.19,690.87L903.61,691.25L904.03,691.06L904.46,690.87L904.88,691.06L905.3,690.87L905.72,690.87L906.14,691.06L906.57,690.87L906.99,691.06L907.41,691.06L907.83,691.06L908.25,691.06L908.68,691.06L909.1,691.06L909.52,690.87L909.94,691.06L910.36,691.25L910.79,691.06L911.21,691.25L911.63,691.25L912.05,691.06L912.47,691.25L912.9,691.25L913.32,691.25L913.74,691.06L914.16,691.43L914.59,691.43L915.01,691.43L915.43,691.43L915.85,691.43L916.27,691.25L916.7,691.06L917.12,691.25L917.54,691.25L917.96,691.25L918.38,691.25L918.81,691.43L919.23,691.25L919.65,691.25L920.07,691.25L920.49,691.43L920.92,691.25L921.34,691.06L921.76,691.25L922.18,691.06L922.6,691.06L923.03,690.87L923.45,691.43L923.87,691.43L924.29,691.25L924.71,691.25L925.14,691.25L925.56,691.25L925.98,691.25L926.4,691.06L926.82,691.06L927.25,691.25L927.67,691.06L928.09,691.06L928.51,691.25L928.93,691.8L929.36,691.8L929.78,691.99L930.2,691.8L930.62,692.17L931.04,692.17L931.47,692.17L931.89,691.99L932.31,692.17L932.73,692.17L933.16,691.99L933.58,691.99L934,692.17L934.42,692.36L934.84,692.17L935.27,692.36L935.69,692.54L936.11,693.1L936.53,693.29L936.95,693.1L937.38,693.29L937.8,693.1L938.22,693.47L938.64,693.29L939.06,693.47L939.49,693.66L939.91,693.47L940.33,693.84L940.75,693.66L941.17,693.84L941.6,693.66L942.02,693.66L942.44,693.66L942.86,693.84L943.28,693.84L943.71,693.84L944.13,693.66L944.55,693.66L944.97,694.03L945.39,693.84L945.82,693.84L946.24,693.84L946.66,693.84L947.08,693.84L947.5,693.84L947.93,694.03L948.35,694.03L948.77,693.84L949.19,693.84L949.62,693.84L950.04,693.66L950.46,693.84L950.88,694.4L951.3,694.58L951.73,694.77L952.15,694.58L952.57,694.95L952.99,694.77L953.41,694.95L953.84,694.77L954.26,695.14L954.68,695.14L955.1,694.95L955.52,694.95L955.95,695.14L956.37,695.14L956.79,695.14L957.21,694.95L957.63,695.33L958.06,695.33L958.48,695.33L958.9,695.14L959.32,695.33L959.74,695.51L960.17,695.33L960.59,695.33L961.01,695.33L961.43,695.51L961.85,695.51L962.28,695.7L962.7,695.51L963.12,695.7L963.54,695.51L963.96,695.88L964.39,695.7L964.81,695.7L965.23,695.88L965.65,695.88L966.07,695.88L966.5,695.88L966.92,695.7L967.34,696.07L967.76,695.88L968.19,695.88L968.61,695.88L969.03,696.07L969.45,696.07L969.87,695.88L970.3,695.88L970.72,696.07L971.14,696.07L971.56,696.07L971.98,696.07L972.41,696.25L972.83,696.25L973.25,696.07L973.67,696.07L974.09,696.07L974.52,696.25L974.94,696.25L975.36,696.44L975.78,696.25L976.2,696.25L976.63,696.25L977.05,696.25L977.47,696.44L977.89,696.44L978.31,696.44L978.74,696.44L979.16,696.25L979.58,696.44L980,696.62L980.42,696.44L980.85,696.44L981.27,696.25L981.69,696.44L982.11,696.62L982.53,696.44L982.96,696.44L983.38,696.44L983.8,696.44L984.22,696.62L984.64,696.62L985.07,696.44L985.49,696.44L985.91,696.62L986.33,696.44L986.76,696.62L987.18,696.44L987.6,696.62L988.02,696.62L988.44,696.62L988.87,696.62L989.29,696.99L989.71,696.81L990.13,696.81L990.55,696.81L990.98,696.81L991.4,696.81L991.82,696.99L992.24,696.81L992.66,696.62L993.09,696.81L993.51,696.99L993.93,696.81L994.35,696.62L994.77,696.81L995.2,696.99L995.62,696.99L996.04,696.81L996.46,696.81L996.88,697.18L997.31,697.92L997.73,698.29L998.15,698.29L998.57,698.48L998.99,698.48L999.42,698.29L999.84,698.48L1000.3,698.48L1000.7,698.66L1001.1,698.48L1001.5,698.48L1001.9,698.48L1002.4,698.48L1002.8,698.48L1003.2,698.66L1003.6,698.66L1004.1,698.66L1004.5,698.66L1004.9,698.48L1005.3,698.66L1005.7,698.85L1006.2,698.85L1006.6,698.66L1007,698.85L1007.4,698.85L1007.9,698.85L1008.3,698.66L1008.7,698.85L1009.1,698.85L1009.5,698.66L1010,698.66L1010.4,698.66L1010.8,698.85L1011.2,698.66L1011.7,698.66L1012.1,698.66L1012.5,698.85L1012.9,698.85L1013.3,698.66L1013.8,699.03L1014.2,699.22L1014.6,699.03L1015,699.03L1015.5,699.22L1015.9,699.22L1016.3,699.22L1016.7,699.22L1017.1,699.03L1017.6,699.41L1018,699.22L1018.4,699.22L1018.8,699.03L1019.3,699.22L1019.7,699.41L1020.1,699.22L1020.5,699.03L1020.9,699.22L1021.4,699.22L1021.8,699.22L1022.2,699.03L1022.6,699.03L1023.1,699.41L1023.5,699.41L1023.9,699.22L1024.3,699.22L1024.7,699.03L1025.2,699.41L1025.6,699.22L1026,699.22L1026.4,699.22L1026.8,699.22L1027.3,699.41L1027.7,699.41L1028.1,699.41L1028.5,699.41L1029,699.78L1029.4,700.33L1029.8,700.15L1030.2,700.15L1030.6,700.15L1031.1,699.96L1031.5,700.52L1031.9,700.33L1032.3,700.15L1032.8,700.15L1033.2,700.52L1033.6,700.52L1034,700.33L1034.4,700.33L1034.9,700.33L1035.3,700.52L1035.7,700.52L1036.1,700.52L1036.6,700.52L1037,700.33L1037.4,700.33L1037.8,700.89L1038.2,700.7L1038.7,700.52L1039.1,700.52L1039.5,700.52L1039.9,700.7L1040.4,700.89L1040.8,700.7L1041.2,700.89L1041.6,700.7L1042,700.89L1042.5,700.89L1042.9,701.07L1043.3,700.89L1043.7,700.7L1044.2,700.89L1044.6,700.89L1045,701.07L1045.4,700.89L1045.8,700.89L1046.3,700.89L1046.7,700.89L1047.1,701.07L1047.5,700.89L1048,701.07L1048.4,700.89L1048.8,700.89L1049.2,700.89L1049.6,700.89L1050.1,701.07L1050.5,701.07L1050.9,701.07L1051.3,700.89L1051.8,701.07L1052.2,701.07L1052.6,701.07L1053,701.26L1053.4,701.07L1053.9,701.07L1054.3,701.07L1054.7,701.26L1055.1,701.07L1055.5,701.26L1056,701.26L1056.4,701.26L1056.8,701.07L1057.2,701.07L1057.7,701.26L1058.1,701.26L1058.5,701.26L1058.9,701.07L1059.3,701.07L1059.8,701.26L1060.2,701.07L1060.6,701.26L1061,701.07L1061.5,701.26L1061.9,701.26L1062.3,701.26L1062.7,701.07L1063.1,701.07L1063.6,701.26L1064,701.26L1064.4,701.26L1064.8,701.07L1065.3,701.44L1065.7,701.44L1066.1,701.44L1066.5,701.26L1066.9,701.44L1067.4,701.44L1067.8,701.44L1068.2,701.26L1068.6,701.26L1069.1,701.26L1069.5,701.26L1069.9,701.44" style="fill:none;stroke:#F15A60;stroke-width:1.875" />
<path d="M1055,694.3L1080,694.3" style="fill:none;stroke:#F15A60;stroke-width:1.875" />
<text x="959.12" y="-687.85" transform="scale(1, -1)"
	style="font-family:Helvetica;font-weight:normal;font-style:normal;font-size:12pt">Consul v0.6.4</text>
</g>
</svg>
