<?xml version="1.0"?>
<!-- Generated by SVGo and Plotinum VG -->
<svg width="12in" height="8in"
	xmlns="http://www.w3.org/2000/svg"
	xmlns:xlink="http://www.w3.org/1999/xlink">
<g transform="scale(1, -1) translate(0, -720)">
<path d="M0,0L1080,0L1080,720L0,720Z" style="fill:#FFFFFF" />
<text x="239.47" y="-706.41" transform="scale(1, -1)"
	style="font-family:Helvetica;font-weight:normal;font-style:normal;font-size:12pt">Write 500K keys, 1-client, 8-byte key, 256-byte value (Consul v0.6.4), Latency(millisecond)</text>
<text x="536.32" y="-4.965" transform="scale(1, -1)"
	style="font-family:Helvetica;font-weight:normal;font-style:normal;font-size:12pt">Second</text>
<text x="49.712" y="-19.142" transform="scale(1, -1)"
	style="font-family:Helvetica;font-weight:normal;font-style:normal;font-size:10pt">0</text>
<text x="380.4" y="-19.142" transform="scale(1, -1)"
	style="font-family:Helvetica;font-weight:normal;font-style:normal;font-size:10pt">800</text>
<text x="714.56" y="-19.142" transform="scale(1, -1)"
	style="font-family:Helvetica;font-weight:normal;font-style:normal;font-size:10pt">1600</text>
<text x="1052.2" y="-19.142" transform="scale(1, -1)"
	style="font-family:Helvetica;font-weight:normal;font-style:normal;font-size:10pt">2400</text>
<path d="M53.188,30.467L53.188,40.467" style="fill:none;stroke:#000000;stroke-width:0.625" />
<path d="M390.83,30.467L390.83,40.467" style="fill:none;stroke:#000000;stroke-width:0.625" />
<path d="M728.46,30.467L728.46,40.467" style="fill:none;stroke:#000000;stroke-width:0.625" />
<path d="M1066.1,30.467L1066.1,40.467" style="fill:none;stroke:#000000;stroke-width:0.625" />
<path d="M222.01,35.468L222.01,40.467" style="fill:none;stroke:#000000;stroke-width:0.625" />
<path d="M559.64,35.468L559.64,40.467" style="fill:none;stroke:#000000;stroke-width:0.625" />
<path d="M897.28,35.468L897.28,40.467" style="fill:none;stroke:#000000;stroke-width:0.625" />
<path d="M53.188,40.467L1070.3,40.467" style="fill:none;stroke:#000000;stroke-width:0.625" />
<g transform="rotate(90)">
<text x="305.89" y="13.59" transform="scale(1, -1)"
	style="font-family:Helvetica;font-weight:normal;font-style:normal;font-size:12pt">Latency(millisecond)</text>
</g>
<text x="25.505" y="-51.292" transform="scale(1, -1)"
	style="font-family:Helvetica;font-weight:normal;font-style:normal;font-size:10pt">4</text>
<text x="25.505" y="-210.88" transform="scale(1, -1)"
	style="font-family:Helvetica;font-weight:normal;font-style:normal;font-size:10pt">6</text>
<text x="25.505" y="-370.47" transform="scale(1, -1)"
	style="font-family:Helvetica;font-weight:normal;font-style:normal;font-size:10pt">8</text>
<text x="18.555" y="-530.06" transform="scale(1, -1)"
	style="font-family:Helvetica;font-weight:normal;font-style:normal;font-size:10pt">10</text>
<text x="18.555" y="-689.65" transform="scale(1, -1)"
	style="font-family:Helvetica;font-weight:normal;font-style:normal;font-size:10pt">12</text>
<path d="M35.93,56.66L45.93,56.66" style="fill:none;stroke:#000000;stroke-width:0.625" />
<path d="M35.93,216.25L45.93,216.25" style="fill:none;stroke:#000000;stroke-width:0.625" />
<path d="M35.93,375.84L45.93,375.84" style="fill:none;stroke:#000000;stroke-width:0.625" />
<path d="M35.93,535.43L45.93,535.43" style="fill:none;stroke:#000000;stroke-width:0.625" />
<path d="M35.93,695.02L45.93,695.02" style="fill:none;stroke:#000000;stroke-width:0.625" />
<path d="M40.93,136.46L45.93,136.46" style="fill:none;stroke:#000000;stroke-width:0.625" />
<path d="M40.93,296.05L45.93,296.05" style="fill:none;stroke:#000000;stroke-width:0.625" />
<path d="M40.93,455.63L45.93,455.63" style="fill:none;stroke:#000000;stroke-width:0.625" />
<path d="M40.93,615.22L45.93,615.22" style="fill:none;stroke:#000000;stroke-width:0.625" />
<path d="M45.93,47.03L45.93,701.44" style="fill:none;stroke:#000000;stroke-width:0.625" />
<path d="M53.188,101.03L53.61,103.32L54.032,87.063L54.454,89.605L54.876,106.41L55.298,100.94L55.72,106.76L56.142,104.7L56.564,123.36L56.986,110.91L57.408,101.6L57.83,103.73L58.252,101.85L58.674,110.17L59.096,102.81L59.518,103.33L59.94,110.88L60.362,114.88L60.784,132.15L61.206,213.43L61.628,201.25L62.05,199.8L62.473,204.38L62.895,207.03L63.317,203.32L63.739,203.53L64.161,235.73L64.583,226.47L65.005,173.89L65.427,107.26L65.849,95.22L66.271,93.007L66.693,100.94L67.115,102.01L67.537,109.34L67.959,111.98L68.381,119.47L68.803,102.91L69.225,101.44L69.647,107.98L70.069,108.44L70.491,107.2L70.913,92.223L71.336,91.551L71.758,104.82L72.18,93.314L72.602,94.858L73.024,102.45L73.446,93.588L73.868,102.16L74.29,114.34L74.712,113.4L75.134,113.12L75.556,111.08L75.978,112.4L76.4,126.25L76.822,107.53L77.244,104.62L77.666,106.22L78.088,100.85L78.51,99.81L78.932,103.13L79.354,97.06L79.776,93.385L80.198,94.756L80.621,100.71L81.043,95.225L81.465,91.529L81.887,94.708L82.309,98.233L82.731,95.193L83.153,90.95L83.575,87.18L83.997,92.024L84.419,83.494L84.841,86.027L85.263,89.163L85.685,100.09L86.107,133.82L86.529,200.87L86.951,213.05L87.373,193.27L87.795,206.33L88.217,200L88.639,205.02L89.061,217.08L89.484,220.35L89.906,223.44L90.328,164.19L90.75,98.486L91.172,101.39L91.594,100.82L92.016,91.77L92.438,91.646L92.86,97.329L93.282,96.359L93.704,99.011L94.126,95.081L94.548,91.83L94.97,90.103L95.392,90.663L95.814,94.568L96.236,94.774L96.658,111.84L97.08,122.45L97.502,96.134L97.924,88.57L98.347,88.181L98.769,91.541L99.191,99.98L99.613,101.31L100.03,101.38L100.46,105.03L100.88,101.33L101.3,93.972L101.72,90.674L102.14,90.223L102.57,97.226L102.99,95.246L103.41,101.12L103.83,100.64L104.26,93.841L104.68,78.109L105.1,83.972L105.52,77.483L105.94,76.884L106.37,70.918L106.79,83.184L107.21,80.39L107.63,68.562L108.05,75.835L108.48,75.896L108.9,72.304L109.32,73.957L109.74,61.586L110.16,68.442L110.59,78.915L111.01,76.312L111.43,107.88L111.85,174.79L112.27,176.57L112.7,178.17L113.12,167.74L113.54,173.02L113.96,174.38L114.38,177.83L114.81,165.24L115.23,180.12L115.65,137.78L116.07,68.484L116.49,71.647L116.92,66.008L117.34,66.764L117.76,62.06L118.18,55.838L118.6,70.185L119.03,69.31L119.45,72.661L119.87,61.533L120.29,64.398L120.72,69.839L121.14,82.016L121.56,72.667L121.98,74.909L122.4,72.471L122.83,66.849L123.25,56.896L123.67,64.764L124.09,71.958L124.51,66.301L124.94,66.415L125.36,77.5L125.78,88.004L126.2,84.981L126.62,94.796L127.05,91.026L127.47,84.591L127.89,84.603L128.31,85.081L128.73,95.131L129.16,86.994L129.58,93.528L130,67.346L130.42,102.31L130.84,84.523L131.27,90.27L131.69,104.99L132.11,106.61L132.53,92.864L132.95,96.245L133.38,86.858L133.8,90.298L134.22,94.288L134.64,116.89L135.06,98.072L135.49,79.775L135.91,79.534L136.33,86.049L136.75,111.33L137.17,192.49L137.6,190.1L138.02,191.94L138.44,186.38L138.86,200.57L139.29,179.34L139.71,184.05L140.13,193.18L140.55,194.21L140.97,149.67L141.4,78.117L141.82,66.732L142.24,78.433L142.66,70.249L143.08,75.243L143.51,76.47L143.93,77.348L144.35,74.149L144.77,72.738L145.19,73.631L145.62,80.98L146.04,63.637L146.46,76.562L146.88,68.019L147.3,79.395L147.73,73.21L148.15,84.691L148.57,127.24L148.99,101.29L149.41,87.09L149.84,88.882L150.26,86.204L150.68,98.473L151.1,112.17L151.52,124L151.95,117.81L152.37,121.25L152.79,143.21L153.21,128.33L153.63,110.76L154.06,110.26L154.48,115.41L154.9,104.85L155.32,91.739L155.74,85.87L156.17,107.41L156.59,87.868L157.01,91.163L157.43,92.711L157.86,91.179L158.28,95.299L158.7,82.345L159.12,87.218L159.54,88.415L159.97,89.998L160.39,80.317L160.81,83.174L161.23,73.093L161.65,88.698L162.08,110.63L162.5,196.95L162.92,178.88L163.34,185.96L163.76,192.37L164.19,178.89L164.61,173.94L165.03,187.41L165.45,212.18L165.87,191.83L166.3,188.74L166.72,98.837L167.14,83.167L167.56,94.481L167.98,80.969L168.41,91.756L168.83,88.119L169.25,87.077L169.67,87.77L170.09,115.69L170.52,84.482L170.94,99.968L171.36,84.829L171.78,96.193L172.2,92.997L172.63,85.264L173.05,80.164L173.47,76.053L173.89,74.924L174.31,79.273L174.74,67.002L175.16,76.582L175.58,66.625L176,76.512L176.43,83.206L176.85,79.995L177.27,74.604L177.69,84.385L178.11,73.399L178.54,81.656L178.96,73.218L179.38,74.663L179.8,79.491L180.22,65.611L180.65,62.617L181.07,68.602L181.49,72.218L181.91,67.716L182.33,63.287L182.76,69.532L183.18,78.413L183.6,67.77L184.02,58.652L184.44,62.025L184.87,64.021L185.29,58.213L185.71,47.03L186.13,58.283L186.55,56.621L186.98,60.56L187.4,90.661L187.82,191.58L188.24,216.28L188.66,201.42L189.09,185.43L189.51,197.23L189.93,191.01L190.35,195.38L190.77,215.46L191.2,214.43L191.62,150.81L192.04,99.911L192.46,94.897L192.89,93.822L193.31,99.473L193.73,88.756L194.15,91.753L194.57,88.568L195,87.099L195.42,86.427L195.84,95.103L196.26,106.58L196.68,90.811L197.11,88.647L197.53,79.481L197.95,99.199L198.37,85.977L198.79,103.89L199.22,74.531L199.64,93.503L200.06,92.195L200.48,82.251L200.9,104.65L201.33,85.299L201.75,85.558L202.17,77.459L202.59,83.553L203.01,75.736L203.44,78.066L203.86,93.802L204.28,79.41L204.7,79.056L205.12,84.844L205.55,74.874L205.97,80.209L206.39,80.868L206.81,66.314L207.23,70.909L207.66,68.783L208.08,73.137L208.5,76.026L208.92,63.296L209.34,69.847L209.77,61.032L210.19,74.377L210.61,71.166L211.03,76.926L211.46,66.615L211.88,72.684L212.3,55.244L212.72,96.584L213.14,161.03L213.57,175.93L213.99,166.65L214.41,164.85L214.83,157.88L215.25,147.67L215.68,169.38L216.1,170.14L216.52,178.08L216.94,128.52L217.36,72.432L217.79,66.159L218.21,76.533L218.63,72.006L219.05,65.509L219.47,70.115L219.9,61.838L220.32,74.37L220.74,61.798L221.16,57.14L221.58,64.789L222.01,51.725L222.43,79.193L222.85,90.703L223.27,86.553L223.69,79.296L224.12,91.096L224.54,78.976L224.96,79.338L225.38,89.285L225.8,79.825L226.23,78.769L226.65,84.274L227.07,88.721L227.49,81.985L227.91,76.113L228.34,92.749L228.76,75.482L229.18,84.353L229.6,88.301L230.03,76.716L230.45,77.259L230.87,86.3L231.29,74.463L231.71,74.036L232.14,79.023L232.56,74.07L232.98,83.101L233.4,81.253L233.82,75.195L234.25,69.895L234.67,83.218L235.09,79.072L235.51,76.03L235.93,72.974L236.36,76.752L236.78,72.815L237.2,78.99L237.62,84.983L238.04,110.93L238.47,202.66L238.89,195.63L239.31,199.05L239.73,192.77L240.15,189.55L240.58,187.3L241,201.02L241.42,228.99L241.84,292.07L242.26,217.74L242.69,112.62L243.11,119.12L243.53,107.84L243.95,105.66L244.37,104.2L244.8,115.9L245.22,100.16L245.64,90.844L246.06,110.7L246.48,121.31L246.91,113.44L247.33,109.19L247.75,102.92L248.17,116.56L248.6,104.59L249.02,96.915L249.44,96.036L249.86,103.32L250.28,100.88L250.71,113.36L251.13,111.33L251.55,102.55L251.97,139.71L252.39,125.05L252.82,135.6L253.24,121.77L253.66,123.12L254.08,125.52L254.5,121.32L254.93,144.18L255.35,119.41L255.77,125.42L256.19,109.44L256.61,100.59L257.04,106.84L257.46,107.05L257.88,120.97L258.3,103.14L258.72,119.92L259.15,123.57L259.57,120.98L259.99,118.59L260.41,112.12L260.83,108.12L261.26,122.23L261.68,136.95L262.1,119.57L262.52,110.56L262.94,117.23L263.37,144.72L263.79,221.14L264.21,227.28L264.63,238.56L265.06,256.16L265.48,222.25L265.9,227.58L266.32,253.26L266.74,277.21L267.17,257.79L267.59,194.26L268.01,113.46L268.43,107.21L268.85,106.17L269.28,104.05L269.7,94.636L270.12,91.674L270.54,94.848L270.96,98.167L271.39,100.42L271.81,106.28L272.23,117.42L272.65,107.97L273.07,104.67L273.5,112.34L273.92,113.8L274.34,120.25L274.76,113.8L275.18,108.71L275.61,124.85L276.03,113.79L276.45,117.68L276.87,108.64L277.29,108.33L277.72,100.78L278.14,112.67L278.56,130.27L278.98,115.61L279.4,113.73L279.83,127.42L280.25,116.32L280.67,115.01L281.09,114.74L281.51,98.298L281.94,98.587L282.36,109.15L282.78,102.19L283.2,96.96L283.63,89.342L284.05,94.463L284.47,103.66L284.89,91.832L285.31,87.021L285.74,79.1L286.16,90.167L286.58,111.73L287,104.7L287.42,95.031L287.85,94.173L288.27,106.64L288.69,119.51L289.11,236.54L289.53,191.93L289.96,217.06L290.38,243.78L290.8,219.08L291.22,219.49L291.64,195.06L292.07,239.69L292.49,232.82L292.91,172.99L293.33,93.305L293.75,124.14L294.18,110.66L294.6,103.11L295.02,108.5L295.44,97.537L295.86,106.09L296.29,96.801L296.71,128.94L297.13,141.83L297.55,102.66L297.97,110.18L298.4,121.29L298.82,96.168L299.24,135.14L299.66,108.61L300.08,109.86L300.51,104.73L300.93,98.831L301.35,109.66L301.77,88.913L302.2,92.793L302.62,99.745L303.04,110.82L303.46,132.26L303.88,107.44L304.31,121.01L304.73,117.71L305.15,126.74L305.57,115.79L305.99,123.56L306.42,107.56L306.84,115.33L307.26,77.974L307.68,101.91L308.1,88.235L308.53,127.22L308.95,133.23L309.37,135.88L309.79,128.78L310.21,119.18L310.64,122.49L311.06,118.21L311.48,130.41L311.9,139.37L312.32,119.11L312.75,124.16L313.17,124.69L313.59,129.56L314.01,161.39L314.43,209.32L314.86,228.73L315.28,214.61L315.7,205.9L316.12,197.86L316.54,211.52L316.97,230.51L317.39,270L317.81,222.36L318.23,182.69L318.65,113.65L319.08,116.35L319.5,128.3L319.92,130.24L320.34,106.87L320.77,115.14L321.19,118.18L321.61,119.9L322.03,126.12L322.45,170.33L322.88,108.35L323.3,124.86L323.72,121.29L324.14,114L324.56,124.6L324.99,105.7L325.41,94.011L325.83,112.03L326.25,138.93L326.67,133.72L327.1,111.8L327.52,105.3L327.94,107.89L328.36,128.28L328.78,139.05L329.21,131.68L329.63,106.32L330.05,120.93L330.47,138.04L330.89,135.4L331.32,115.02L331.74,130.61L332.16,126.67L332.58,130.96L333,121.78L333.43,136.79L333.85,130.98L334.27,123.17L334.69,128.4L335.11,123.3L335.54,120L335.96,109.17L336.38,112.9L336.8,125.81L337.23,125.23L337.65,124.04L338.07,124.34L338.49,117.63L338.91,128.84L339.34,172.19L339.76,258.52L340.18,255.96L340.6,229.77L341.02,241.02L341.45,212.18L341.87,244.25L342.29,220.79L342.71,303.86L343.13,245.15L343.56,195.54L343.98,116.88L344.4,104.93L344.82,113.75L345.24,107.83L345.67,92.385L346.09,111.4L346.51,99.507L346.93,97.085L347.35,114.13L347.78,96.892L348.2,124.83L348.62,111.57L349.04,110.64L349.46,109.29L349.89,112.96L350.31,103.04L350.73,112.85L351.15,90.508L351.57,107.04L352,104.68L352.42,97.167L352.84,115.45L353.26,112.27L353.68,112.33L354.11,120.03L354.53,105.36L354.95,100.04L355.37,98.989L355.8,110.39L356.22,101.78L356.64,105.86L357.06,102.51L357.48,100.09L357.91,100.15L358.33,95.218L358.75,108.61L359.17,88.723L359.59,100.45L360.02,94.371L360.44,96.894L360.86,97.772L361.28,89.938L361.7,95.138L362.13,88.934L362.55,98.576L362.97,133.58L363.39,125.76L363.81,123.15L364.24,132.49L364.66,165.59L365.08,236.28L365.5,219.69L365.92,229.66L366.35,231.41L366.77,206.91L367.19,215.36L367.61,209.87L368.03,251.42L368.46,277.87L368.88,197.55L369.3,141.61L369.72,149.19L370.14,139.41L370.57,145.91L370.99,147.42L371.41,144.29L371.83,120.27L372.25,125.09L372.68,129.58L373.1,138.51L373.52,131.56L373.94,147.33L374.37,132.89L374.79,105.35L375.21,184.16L375.63,117.02L376.05,110.94L376.48,119.63L376.9,120.54L377.32,129.83L377.74,113.24L378.16,124.38L378.59,136.87L379.01,135.02L379.43,142.02L379.85,151.31L380.27,129.78L380.7,159.26L381.12,155.18L381.54,131.23L381.96,139.87L382.38,143.45L382.81,123.28L383.23,121.21L383.65,113.42L384.07,103.12L384.49,112.73L384.92,111.2L385.34,111.76L385.76,120.28L386.18,116.97L386.6,135.93L387.03,135.16L387.45,126.96L387.87,167.07L388.29,149.06L388.71,119.34L389.14,138.61L389.56,141.39L389.98,176.5L390.4,232.29L390.83,254L391.25,228.79L391.67,255.57L392.09,249.21L392.51,257.89L392.94,243.05L393.36,231.63L393.78,265.07L394.2,189.82L394.62,144.71L395.05,134.46L395.47,106.45L395.89,116.48L396.31,113.12L396.73,125.64L397.16,126.72L397.58,138.8L398,127.86L398.42,112.96L398.84,142.07L399.27,120.02L399.69,116.21L400.11,109.32L400.53,136.83L400.95,130.39L401.38,120.68L401.8,114.26L402.22,124.24L402.64,118.03L403.06,105.57L403.49,133.24L403.91,123.3L404.33,126.78L404.75,111.46L405.17,132.31L405.6,114.58L406.02,132.06L406.44,111.54L406.86,132.27L407.28,98.322L407.71,117.16L408.13,100.16L408.55,125.88L408.97,126.69L409.4,128.5L409.82,102.09L410.24,115.05L410.66,95.854L411.08,123.66L411.51,95.124L411.93,107.16L412.35,98.708L412.77,98.838L413.19,127.23L413.62,106.64L414.04,120.81L414.46,101.59L414.88,117.68L415.3,131.32L415.73,217.22L416.15,196.69L416.57,190.69L416.99,202.67L417.41,188.23L417.84,189.71L418.26,214.7L418.68,197.23L419.1,219.41L419.52,164.55L419.95,148.19L420.37,134.85L420.79,127.89L421.21,138.87L421.63,137.71L422.06,135.52L422.48,137.83L422.9,149.14L423.32,120.99L423.74,144.03L424.17,151.31L424.59,116.51L425.01,134.62L425.43,135.77L425.85,111.03L426.28,125.28L426.7,129.52L427.12,110L427.54,148.17L427.97,135.64L428.39,115.46L428.81,120.49L429.23,129.86L429.65,144.55L430.08,134.47L430.5,118.81L430.92,133.61L431.34,125.65L431.76,105.21L432.19,130.39L432.61,180.81L433.03,132.08L433.45,122.93L433.87,117.08L434.3,136.42L434.72,114.94L435.14,123.64L435.56,120.76L435.98,100.08L436.41,148.94L436.83,106.37L437.25,115.85L437.67,121.51L438.09,93.29L438.52,134.56L438.94,108.33L439.36,128.41L439.78,122.87L440.2,137.39L440.63,135.97L441.05,259.66L441.47,231.07L441.89,252.96L442.31,224.66L442.74,245.18L443.16,237.28L443.58,253.75L444,313.62L444.42,268.92L444.85,236.13L445.27,111.46L445.69,111.61L446.11,96.659L446.54,123.25L446.96,110.61L447.38,110.53L447.8,117.22L448.22,107.1L448.65,124.28L449.07,105.05L449.49,126.85L449.91,97.804L450.33,120.45L450.76,96.549L451.18,123.92L451.6,98.733L452.02,119.35L452.44,101.79L452.87,130.81L453.29,131.71L453.71,141.88L454.13,133.88L454.55,166.14L454.98,160.17L455.4,164.64L455.82,202.52L456.24,155.69L456.66,167.16L457.09,143.25L457.51,170.53L457.93,145.41L458.35,147.98L458.77,148.64L459.2,124.95L459.62,146.16L460.04,132.27L460.46,144.73L460.88,123.28L461.31,133.65L461.73,134.1L462.15,111.83L462.57,157.45L463,113.09L463.42,127.41L463.84,132.34L464.26,120.25L464.68,136.99L465.11,126.69L465.53,138.03L465.95,154.98L466.37,231.56L466.79,262.13L467.22,241.11L467.64,221.35L468.06,230.51L468.48,203.1L468.9,206.64L469.33,246.09L469.75,254.89L470.17,172.67L470.59,128.89L471.01,109.03L471.44,112.93L471.86,127.59L472.28,103.4L472.7,116.29L473.12,98.215L473.55,96.7L473.97,124.19L474.39,104.28L474.81,129.86L475.23,100.44L475.66,98.266L476.08,113.28L476.5,104.07L476.92,93.714L477.34,124.7L477.77,89.382L478.19,111.95L478.61,97.362L479.03,99.721L479.45,103.98L479.88,95.852L480.3,109.61L480.72,124.25L481.14,111.26L481.57,106.93L481.99,134.49L482.41,110.75L482.83,129.29L483.25,129.2L483.68,110.67L484.1,101.5L484.52,119.14L484.94,94.055L485.36,100.52L485.79,117.08L486.21,102.26L486.63,97.89L487.05,125.14L487.47,101.45L487.9,110.88L488.32,120.31L488.74,102.52L489.16,106.1L489.58,95.432L490.01,143.77L490.43,100.75L490.85,114.31L491.27,181.29L491.69,230.64L492.12,190.21L492.54,210.82L492.96,208.19L493.38,228.57L493.8,227.16L494.23,226.77L494.65,240.21L495.07,214.04L495.49,220.72L495.91,95.57L496.34,91.74L496.76,108.21L497.18,86.151L497.6,79.427L498.02,105.74L498.45,167.11L498.87,129.83L499.29,163.91L499.71,129.94L500.14,137.9L500.56,123.96L500.98,143.28L501.4,115.04L501.82,137.07L502.25,130.13L502.67,119.81L503.09,153.84L503.51,105.8L503.93,134.32L504.36,112.42L504.78,118.67L505.2,113.91L505.62,144.03L506.04,140.82L506.47,117.45L506.89,151.55L507.31,132.55L507.73,146.64L508.15,126.32L508.58,145.29L509,122.39L509.42,146.84L509.84,106.71L510.26,123.97L510.69,206.84L511.11,132.75L511.53,109.43L511.95,135.56L512.37,118.29L512.8,141.91L513.22,104.93L513.64,122.71L514.06,97.447L514.48,131.97L514.91,97.034L515.33,127.58L515.75,112.01L516.17,130.15L516.59,128.99L517.02,227.42L517.44,194.49L517.86,199.38L518.28,226.08L518.71,183.81L519.13,230.32L519.55,198.09L519.97,211.42L520.39,240.39L520.82,146.51L521.24,106.15L521.66,83.824L522.08,117.15L522.5,94.709L522.93,123.49L523.35,137.3L523.77,120.53L524.19,171.03L524.61,130.95L525.04,154.09L525.46,137.51L525.88,161.62L526.3,134.55L526.72,138.15L527.15,161.44L527.57,127L527.99,145.91L528.41,130.48L528.83,126.81L529.26,153.25L529.68,127.18L530.1,150.19L530.52,126.67L530.94,131L531.37,155.91L531.79,134.96L532.21,152.44L532.63,114.51L533.05,156.78L533.48,124.9L533.9,126.95L534.32,143.15L534.74,116.19L535.17,112.45L535.59,143.87L536.01,119.49L536.43,133.54L536.85,127.6L537.28,115.69L537.7,146.2L538.12,113.28L538.54,139.85L538.96,114.34L539.39,124.68L539.81,141.02L540.23,133.6L540.65,145.63L541.07,155.82L541.5,114.04L541.92,148.76L542.34,238.65L542.76,199.3L543.18,205.9L543.61,236.91L544.03,216.58L544.45,203.28L544.87,190.85L545.29,241.29L545.72,226.99L546.14,187.3L546.56,131.44L546.98,118.1L547.4,107.34L547.83,128.16L548.25,112.6L548.67,113.96L549.09,121.17L549.51,107.65L549.94,103.02L550.36,116.75L550.78,111.07L551.2,111.08L551.62,126.08L552.05,92.109L552.47,101.09L552.89,119.51L553.31,118.58L553.74,99.632L554.16,111.8L554.58,97.219L555,102.2L555.42,117.07L555.85,98.458L556.27,103.77L556.69,115.19L557.11,103.92L557.53,96.883L557.96,113.15L558.38,103.68L558.8,97.172L559.22,118.52L559.64,95.778L560.07,88.528L560.49,99.746L560.91,114.89L561.33,94.078L561.75,102.15L562.18,100.36L562.6,111.65L563.02,106.51L563.44,82.387L563.86,114.92L564.29,92.399L564.71,87.91L565.13,99.679L565.55,113.42L565.97,85.682L566.4,82.657L566.82,116.86L567.24,149.95L567.66,188.22L568.08,167.95L568.51,200.17L568.93,186.85L569.35,163.4L569.77,169.45L570.19,171.41L570.62,199.72L571.04,246.94L571.46,146.06L571.88,87.045L572.31,77.602L572.73,88.595L573.15,74.953L573.57,75.731L573.99,76.254L574.42,94.698L574.84,73.711L575.26,68.787L575.68,64.138L576.1,91.222L576.53,73.51L576.95,80.785L577.37,85.59L577.79,80.971L578.21,94.215L578.64,81.8L579.06,75.38L579.48,89.278L579.9,87.847L580.32,100.52L580.75,86.994L581.17,93.42L581.59,109.32L582.01,94.515L582.43,120.4L582.86,97.78L583.28,108L583.7,111.44L584.12,101.12L584.54,104.96L584.97,112.48L585.39,93.985L585.81,85.354L586.23,101.03L586.65,95.65L587.08,85.129L587.5,104.3L587.92,91.863L588.34,92.121L588.76,95.047L589.19,91.617L589.61,104.12L590.03,111.16L590.45,95.181L590.88,105.97L591.3,220.1L591.72,157.88L592.14,188.45L592.56,186.84L592.99,303.71L593.41,247.65L593.83,251.35L594.25,273.36L594.67,237.74L595.1,232.46L595.52,265.1L595.94,293.83L596.36,322.47L596.78,227L597.21,146.89L597.63,183.64L598.05,166.06L598.47,144.45L598.89,177.31L599.32,135.41L599.74,168.58L600.16,137.92L600.58,166.22L601,139.66L601.43,157.7L601.85,173.03L602.27,137.72L602.69,187.22L603.11,160.16L603.54,163.53L603.96,267.4L604.38,129.31L604.8,142.36L605.22,136.6L605.65,122.75L606.07,140.46L606.49,129.01L606.91,168.44L607.34,127.64L607.76,127.95L608.18,159.24L608.6,135.57L609.02,152.93L609.45,132.28L609.87,122.59L610.29,162.31L610.71,118.66L611.13,136.53L611.56,111.62L611.98,114.56L612.4,139.25L612.82,115.54L613.24,146.19L613.67,114.92L614.09,116.39L614.51,148.89L614.93,120.88L615.35,133.73L615.78,116.34L616.2,105.26L616.62,129.1L617.04,113.49L617.46,140.68L617.89,134.49L618.31,202.87L618.73,232.81L619.15,192.74L619.57,198.72L620,211.3L620.42,227.56L620.84,194.05L621.26,208L621.68,251.76L622.11,145.57L622.53,99.782L622.95,121.6L623.37,97.47L623.79,96.655L624.22,130.08L624.64,91.664L625.06,127.24L625.48,97.133L625.91,94.504L626.33,119.62L626.75,89.321L627.17,101.23L627.59,125.01L628.02,102.21L628.44,138.65L628.86,104.58L629.28,95.622L629.7,123.34L630.13,96.791L630.55,105.84L630.97,134.7L631.39,100.41L631.81,106.44L632.24,141.53L632.66,124.91L633.08,108.77L633.5,107.6L633.92,136.89L634.35,108.42L634.77,108.63L635.19,128.01L635.61,115.04L636.03,104.24L636.46,118.49L636.88,99.539L637.3,89.96L637.72,109.79L638.14,93.974L638.57,93.401L638.99,109.71L639.41,86.084L639.83,101.27L640.25,136.63L640.68,92.883L641.1,103.43L641.52,90.831L641.94,113.54L642.36,93.881L642.79,95.334L643.21,162.18L643.63,213.19L644.05,201.81L644.48,259.18L644.9,241.42L645.32,214.53L645.74,206.65L646.16,202.36L646.59,247.32L647.01,290.75L647.43,179.05L647.85,91.117L648.27,88.253L648.7,124.7L649.12,78.951L649.54,70.806L649.96,88.398L650.38,112.32L650.81,88.399L651.23,83.518L651.65,117.02L652.07,102.59L652.49,112.61L652.92,72.497L653.34,105.73L653.76,80.349L654.18,73.932L654.6,73.659L655.03,107.52L655.45,81.521L655.87,83.488L656.29,77.386L656.71,111.6L657.14,83.024L657.56,89.449L657.98,82.13L658.4,98.196L658.82,73.528L659.25,81.213L659.67,74.623L660.09,100.52L660.51,71.488L660.94,67.007L661.36,66.162L661.78,101.44L662.2,71.125L662.62,64.702L663.05,62.373L663.47,68.448L663.89,87.394L664.31,58.832L664.73,70.64L665.16,76.161L665.58,99.555L666,70.388L666.42,72.359L666.84,63.238L667.27,57.954L667.69,83.77L668.11,54.003L668.53,79.424L668.95,173.59L669.38,224.32L669.8,183.89L670.22,222.56L670.64,189.55L671.06,179.84L671.49,186.85L671.91,202.87L672.33,199.04L672.75,133.83L673.17,102.29L673.6,70.384L674.02,93.628L674.44,76.41L674.86,69.318L675.28,115.97L675.71,106.26L676.13,197.16L676.55,131.27L676.97,177.05L677.39,142.23L677.82,138.47L678.24,163.56L678.66,120.57L679.08,139.95L679.51,113.83L679.93,112.81L680.35,158.84L680.77,117.97L681.19,140.23L681.62,122.62L682.04,115.93L682.46,162.42L682.88,142.28L683.3,143.58L683.73,183.26L684.15,141.42L684.57,184.43L684.99,138.73L685.41,144.5L685.84,194.15L686.26,171.86L686.68,148.28L687.1,154.25L687.52,120.87L687.95,115.44L688.37,352.27L688.79,121.12L689.21,118.13L689.63,140.56L690.06,111.44L690.48,114.8L690.9,145.37L691.32,102.32L691.74,144.93L692.17,97.102L692.59,100.81L693.01,145.02L693.43,116.02L693.85,135.64L694.28,232.93L694.7,175.91L695.12,183.12L695.54,221.67L695.96,196.37L696.39,199.93L696.81,190.21L697.23,241.21L697.65,279.68L698.08,168.76L698.5,141.54L698.92,97.18L699.34,96.492L699.76,136.64L700.19,117.06L700.61,99.499L701.03,126.41L701.45,112.68L701.87,116.88L702.3,127.39L702.72,104.56L703.14,102.69L703.56,135.65L703.98,90.547L704.41,97.975L704.83,125.72L705.25,97.831L705.67,93.398L706.09,127.3L706.52,104.49L706.94,95.996L707.36,128.88L707.78,94.255L708.2,115.76L708.63,157.28L709.05,109.35L709.47,110.52L709.89,146.84L710.31,109.01L710.74,124.83L711.16,161.13L711.58,116.64L712,108.73L712.42,93.08L712.85,112.68L713.27,92.912L713.69,83.875L714.11,115.61L714.53,78.456L714.96,84.289L715.38,109.52L715.8,80.602L716.22,82.567L716.65,97.614L717.07,85.261L717.49,81.116L717.91,78.733L718.33,136.54L718.76,78.549L719.18,113.02L719.6,228.11L720.02,171.07L720.44,165.33L720.87,165.29L721.29,170.09L721.71,196.11L722.13,165.95L722.55,177.69L722.98,178.78L723.4,179.66L723.82,78.03L724.24,88.272L724.66,81.618L725.09,101.95L725.51,72.857L725.93,71.456L726.35,107.58L726.77,86.251L727.2,75.347L727.62,74.125L728.04,109.74L728.46,80.217L728.88,71.67L729.31,65.372L729.73,101.1L730.15,65.944L730.57,83.193L730.99,95.005L731.42,113.1L731.84,80.995L732.26,70.39L732.68,76.696L733.11,109.55L733.53,99.52L733.95,85.096L734.37,92.527L734.79,126.49L735.22,111.73L735.64,94.097L736.06,84.955L736.48,83.985L736.9,114.13L737.33,86.15L737.75,75.996L738.17,81.149L738.59,100.09L739.01,83.742L739.44,76.808L739.86,70.197L740.28,75.755L740.7,107.63L741.12,92.582L741.55,88.137L741.97,84.111L742.39,92.482L742.81,127.97L743.23,82.222L743.66,86.145L744.08,101.97L744.5,132.92L744.92,254.2L745.34,225.72L745.77,211.71L746.19,217.27L746.61,217.66L747.03,236.56L747.45,277.14L747.88,251.22L748.3,275.14L748.72,163.48L749.14,109.49L749.56,118.63L749.99,113.76L750.41,116.93L750.83,140.78L751.25,116L751.68,117.38L752.1,130.23L752.52,105.95L752.94,108.03L753.36,152.26L753.79,110.7L754.21,106.69L754.63,93.334L755.05,114.91L755.47,117.77L755.9,89.804L756.32,139.01L756.74,102.06L757.16,97.854L757.58,192.68L758.01,138.21L758.43,177.51L758.85,162.12L759.27,146.96L759.69,186.49L760.12,140.44L760.54,143.45L760.96,181.66L761.38,143.29L761.8,159.78L762.23,185.76L762.65,145.99L763.07,138.86L763.49,166.46L763.91,140.06L764.34,134.53L764.76,164.58L765.18,140.16L765.6,125.07L766.02,163L766.45,123.72L766.87,121.79L767.29,162.6L767.71,135.44L768.13,122.37L768.56,164.5L768.98,123.94L769.4,117.6L769.82,183.04L770.25,247.01L770.67,266.94L771.09,445.68L771.51,226.68L771.93,273.93L772.36,237.61L772.78,225.83L773.2,259.73L773.62,288.98L774.04,191.99L774.47,122.54L774.89,148.27L775.31,125.52L775.73,123.79L776.15,164.29L776.58,129.38L777,133.61L777.42,159.14L777.84,129.85L778.26,147.43L778.69,125.56L779.11,161.12L779.53,112.33L779.95,114.31L780.37,139.44L780.8,109.37L781.22,105.64L781.64,143.17L782.06,130.72L782.48,110.07L782.91,108.99L783.33,149.24L783.75,135.32L784.17,120.96L784.59,169.55L785.02,116.05L785.44,112.06L785.86,136.4L786.28,127.86L786.7,117.7L787.13,111.77L787.55,147.13L787.97,123.31L788.39,109.87L788.82,111.02L789.24,148.54L789.66,100.56L790.08,103.36L790.5,141.36L790.93,101.67L791.35,109.46L791.77,99.6L792.19,133.13L792.61,93.067L793.04,111.62L793.46,123.01L793.88,101.05L794.3,102.17L794.72,100.18L795.15,164.93L795.57,194.47L795.99,208.52L796.41,196.42L796.83,199.7L797.26,228.05L797.68,185.82L798.1,201.13L798.52,214.28L798.94,252.42L799.37,205.87L799.79,106.69L800.21,101.69L800.63,98.652L801.05,123.38L801.48,116.72L801.9,95.477L802.32,150.08L802.74,93.029L803.16,91.174L803.59,96.358L804.01,122.17L804.43,122L804.85,84.359L805.28,83.056L805.7,84.415L806.12,118.99L806.54,90.574L806.96,91.849L807.39,88.31L807.81,120.9L808.23,90.996L808.65,86.454L809.07,91.199L809.5,135.59L809.92,90.716L810.34,85.257L810.76,88.619L811.18,127.95L811.61,94.942L812.03,86.41L812.45,85.307L812.87,96.029L813.29,119.69L813.72,72.663L814.14,91.066L814.56,92.84L814.98,122.49L815.4,82.411L815.83,84.593L816.25,72.446L816.67,68.806L817.09,101.89L817.51,83.321L817.94,74.183L818.36,74.518L818.78,103.5L819.2,60.082L819.62,67.268L820.05,75.385L820.47,100.59L820.89,190.4L821.31,172.64L821.73,172.45L822.16,155.23L822.58,152.59L823,153.8L823.42,151.28L823.85,246.05L824.27,194.8L824.69,138.9L825.11,77.197L825.53,69.654L825.96,112.19L826.38,69.954L826.8,65.098L827.22,64.455L827.64,62.498L828.07,68.115L828.49,105.17L828.91,54.64L829.33,87.307L829.75,69.556L830.18,62.543L830.6,94.628L831.02,76.717L831.44,57.975L831.86,65.689L832.29,66.626L832.71,64.063L833.13,114.36L833.55,100.13L833.97,101.55L834.4,93.538L834.82,95.411L835.24,101.41L835.66,100.71L836.08,144.29L836.51,112.27L836.93,111.21L837.35,130.24L837.77,111.92L838.19,102.88L838.62,99.043L839.04,106.59L839.46,140.53L839.88,96.213L840.3,81.904L840.73,90.376L841.15,95.483L841.57,98.925L841.99,93.351L842.42,89.453L842.84,126.36L843.26,91.613L843.68,95.261L844.1,89.777L844.53,100.84L844.95,91.675L845.37,117.26L845.79,116.5L846.21,185.65L846.64,242.46L847.06,181.72L847.48,239.19L847.9,284.21L848.32,236.35L848.75,238.53L849.17,256.43L849.59,314.68L850.01,199.27L850.43,122.89L850.86,189.37L851.28,141L851.7,137.29L852.12,123.34L852.54,156.62L852.97,126.79L853.39,133.98L853.81,162.53L854.23,113.73L854.65,121.42L855.08,179.45L855.5,122.72L855.92,129.35L856.34,181.11L856.76,149.26L857.19,134.52L857.61,124.87L858.03,177.59L858.45,129.66L858.87,117.14L859.3,165.76L859.72,441.57L860.14,141.85L860.56,137L860.99,174.45L861.41,134.26L861.83,140.63L862.25,129.53L862.67,176.16L863.1,132.55L863.52,136.18L863.94,158.23L864.36,123.8L864.78,120.66L865.21,118.65L865.63,156.91L866.05,116.02L866.47,122.77L866.89,166.73L867.32,114.69L867.74,122.75L868.16,127.19L868.58,147.14L869,118.49L869.43,113.89L869.85,108.74L870.27,153.82L870.69,121.2L871.11,176.44L871.54,210.6L871.96,232.58L872.38,192.62L872.8,203.21L873.22,203.06L873.65,234.89L874.07,205.88L874.49,221.63L874.91,210.84L875.33,175.85L875.76,157.63L876.18,117.62L876.6,111.09L877.02,103.72L877.45,139.32L877.87,105.26L878.29,101.88L878.71,105.7L879.13,144.74L879.56,103.61L879.98,109.04L880.4,111.45L880.82,139.16L881.24,93.424L881.67,89.253L882.09,129.92L882.51,86.117L882.93,88.613L883.35,90.887L883.78,133.64L884.2,100.94L884.62,126.98L885.04,110.16L885.46,119.25L885.89,126.07L886.31,103.73L886.73,92.871L887.15,97.444L887.57,127.18L888,88.561L888.42,93.921L888.84,88.36L889.26,123.23L889.68,83.694L890.11,89.518L890.53,91.944L890.95,123.24L891.37,79.195L891.79,85.111L892.22,73.864L892.64,122.49L893.06,89.699L893.48,80.908L893.9,83.527L894.33,101.73L894.75,119.04L895.17,79.93L895.59,85.561L896.02,87.343L896.44,131.69L896.86,199.81L897.28,161L897.7,171.4L898.13,160.55L898.55,179.14L898.97,211.43L899.39,165.87L899.81,154.35L900.24,214.26L900.66,137.5L901.08,78.646L901.5,126.31L901.92,103.17L902.35,86.617L902.77,79.963L903.19,78.357L903.61,116.41L904.03,72.971L904.46,68.11L904.88,70.819L905.3,83.664L905.72,123.05L906.14,89.691L906.57,83.891L906.99,74.564L907.41,66.372L907.83,115.98L908.25,69.773L908.68,71.077L909.1,67.774L909.52,68.357L909.94,116.23L910.36,87.344L910.79,108.09L911.21,103.37L911.63,92.217L912.05,91.494L912.47,146.25L912.9,106.43L913.32,107.3L913.74,95.771L914.16,101.51L914.59,97.62L915.01,113.68L915.43,69.066L915.85,74.209L916.27,63.182L916.7,67.741L917.12,66.909L917.54,107.88L917.96,65.89L918.38,58.322L918.81,62.34L919.23,53.821L919.65,61.383L920.07,103.45L920.49,93.608L920.92,59.96L921.34,49.221L921.76,71.811L922.18,148.82L922.6,175.96L923.03,184.98L923.45,183.5L923.87,140.23L924.29,145.04L924.71,142.58L925.14,171.07L925.56,171.99L925.98,116.83L926.4,59.105L926.82,98.034L927.25,66.334L927.67,65.283L928.09,58.591L928.51,83.906L928.93,75.513L929.36,85.799L929.78,81.337L930.2,126.33L930.62,90.706L931.05,81.481L931.47,83.859L931.89,83.013L932.31,86.975L932.73,81.526L933.16,85.806L933.58,82.42L934,80.732L934.42,126.21L934.84,71.044L935.27,79.374L935.69,83.92L936.11,136.25L936.53,123.75L936.95,122.87L937.38,173.61L937.8,135.95L938.22,126.49L938.64,126.79L939.06,204.09L939.49,124.28L939.91,130.41L940.33,171L940.75,122.16L941.17,128.66L941.6,125.6L942.02,163.89L942.44,119.03L942.86,113.57L943.28,150.65L943.71,116.4L944.13,113.9L944.55,111.38L944.97,181.75L945.39,117.76L945.82,120.49L946.24,123.28L946.66,170.68L947.08,140.81L947.5,220.26L947.93,230.07L948.35,272.5L948.77,701.44L949.19,219.45L949.62,220.85L950.04,251.74L950.46,272.12L950.88,256.27L951.3,211.92L951.73,150.35L952.15,128.76L952.57,176.88L952.99,126.19L953.41,119.7L953.84,119.09L954.26,160.76L954.68,119.93L955.1,129.43L955.52,120.23L955.95,191.36L956.37,127.6L956.79,129.66L957.21,128.99L957.63,177.04L958.06,114.91L958.48,124.67L958.9,120.19L959.32,178.15L959.74,122.76L960.17,115.99L960.59,116.25L961.01,193.76L961.43,132.42L961.85,137.38L962.28,131.25L962.7,155.01L963.12,150.64L963.54,194.74L963.96,151.3L964.39,130.11L964.81,188.02L965.23,136.22L965.65,118.15L966.07,123.96L966.5,121.06L966.92,163.27L967.34,120.52L967.76,123.51L968.19,117.91L968.61,163.03L969.03,111.62L969.45,112.76L969.87,108.94L970.3,117.66L970.72,146.61L971.14,100.41L971.56,102.94L971.98,106.06L972.41,190.91L972.83,201.22L973.25,207.97L973.67,251.63L974.09,218.81L974.52,216.86L974.94,243.34L975.36,193.02L975.78,229.2L976.2,200.89L976.63,152.48L977.05,104.79L977.47,137L977.89,106.89L978.31,104.8L978.74,100.35L979.16,152.03L979.58,115.25L980,105.13L980.42,99.706L980.85,102.44L981.27,145.72L981.69,99.318L982.11,95.556L982.53,94.96L982.96,104.39L983.38,145.41L983.8,101.63L984.22,93.308L984.64,89.696L985.07,96.256L985.49,148.84L985.91,109.77L986.33,153.39L986.76,113.08L987.18,127.05L987.6,105.06L988.02,140.05L988.44,107.88L988.87,101.07L989.29,112.87L989.71,106.68L990.13,156.8L990.55,107.38L990.98,86.908L991.4,88.221L991.82,93.873L992.24,86.095L992.66,132.29L993.09,91.532L993.51,90.923L993.93,75.62L994.35,77.091L994.77,82.696L995.2,124.3L995.62,89.733L996.04,84.962L996.46,81.636L996.88,85.774L997.31,145.33L997.73,121.73L998.15,420.95L998.57,263.74L998.99,251.86L999.42,248.26L999.84,255.27L1000.3,303.58L1000.7,240.12L1001.1,263.87L1001.5,272.86L1001.9,201.5L1002.4,177.16L1002.8,118.76L1003.2,118.68L1003.6,118.03L1004.1,163.68L1004.5,125.74L1004.9,132.76L1005.3,125.66L1005.7,173.38L1006.2,118.5L1006.6,116.75L1007,168.83L1007.4,114.48L1007.9,112.14L1008.3,109.59L1008.7,161.27L1009.1,122.73L1009.5,121.08L1010,300.43L1010.4,209.79L1010.8,171.17L1011.2,122.09L1011.7,110.53L1012.1,112.11L1012.5,155.3L1012.9,115.61L1013.3,109.51L1013.8,105.77L1014.2,140L1014.6,100.16L1015,100.33L1015.5,101.24L1015.9,140.94L1016.3,103.79L1016.7,109.85L1017.1,134.82L1017.6,119.54L1018,101.47L1018.4,91.844L1018.8,84.298L1019.3,152.75L1019.7,86.72L1020.1,91.966L1020.5,97.8L1020.9,151.67L1021.4,96.789L1021.8,94.656L1022.2,101.56L1022.6,140.59L1023.1,133.52L1023.5,202.41L1023.9,213.86L1024.3,206.7L1024.7,260.66L1025.2,219.92L1025.6,214.37L1026,198.87L1026.4,224.2L1026.8,198.36L1027.3,205.08L1027.7,94.298L1028.1,90.545L1028.5,93.661L1029,152.69L1029.4,145.41L1029.8,120.62L1030.2,112.36L1030.6,105.11L1031.1,155.99L1031.5,104.94L1031.9,122.12L1032.3,113.78L1032.8,109.46L1033.2,147.02L1033.6,102.5L1034,106.27L1034.4,110.72L1034.9,105.89L1035.3,152.71L1035.7,111.27L1036.1,112.91L1036.6,110.25L1037,111.63L1037.4,209.77L1037.8,129.53L1038.2,114.67L1038.7,117.85L1039.1,125.88L1039.5,159.31L1039.9,122.07L1040.4,119.04L1040.8,125.11L1041.2,120.72L1041.6,151.61L1042,114.01L1042.5,104.21L1042.9,103.02L1043.3,97.588L1043.7,103.66L1044.2,154.64L1044.6,108.86L1045,96.98L1045.4,99.179L1045.8,95.595L1046.3,154.27L1046.7,93.861L1047.1,95.118L1047.5,93.818L1048,98.86L1048.4,132.32L1048.8,243.21L1049.2,183.02L1049.6,199.46L1050.1,179.51L1050.5,190.9L1050.9,186.15L1051.3,217.25L1051.8,252.14L1052.2,199.31L1052.6,188.62L1053,106.11L1053.4,84.812L1053.9,90.694L1054.3,82.271L1054.7,144.81L1055.1,94.754L1055.5,83.456L1056,75.251L1056.4,76.79L1056.8,94.386L1057.2,137.01L1057.7,91.389L1058.1,83.096L1058.5,78.074L1058.9,82.26L1059.3,74.135L1059.8,114.14L1060.2,72.14L1060.6,77.22L1061,83.172L1061.5,72.48L1061.9,75.391L1062.3,136.69L1062.7,96.41L1063.1,101.76L1063.6,103.72L1064,100.55L1064.4,102.61L1064.8,99.083L1065.3,164.52L1065.7,98.442L1066.1,92.089L1066.5,90.198L1066.9,70.891L1067.4,74.737L1067.8,76.417L1068.2,140.82L1068.6,71.183L1069.1,65.361L1069.5,69.128L1069.9,75.002L1070.3,84.03" style="fill:none;stroke:#F15A60;stroke-width:1.875" />
<path d="M1055,694.3L1080,694.3" style="fill:none;stroke:#F15A60;stroke-width:1.875" />
<text x="959.12" y="-687.85" transform="scale(1, -1)"
	style="font-family:Helvetica;font-weight:normal;font-style:normal;font-size:12pt">Consul v0.6.4</text>
</g>
</svg>
