<?xml version="1.0"?>
<!-- Generated by SVGo and Plotinum VG -->
<svg width="12in" height="8in"
	xmlns="http://www.w3.org/2000/svg"
	xmlns:xlink="http://www.w3.org/1999/xlink">
<g transform="scale(1, -1) translate(0, -720)">
<path d="M0,0L1080,0L1080,720L0,720Z" style="fill:#FFFFFF" />
<text x="269.47" y="-706.41" transform="scale(1, -1)"
	style="font-family:Helvetica;font-weight:normal;font-style:normal;font-size:12pt">Write 500K keys, 1-client, 8-byte key, 256-byte value (Consul v0.6.4), Throughput</text>
<text x="539.78" y="-4.965" transform="scale(1, -1)"
	style="font-family:Helvetica;font-weight:normal;font-style:normal;font-size:12pt">Second</text>
<text x="56.662" y="-19.142" transform="scale(1, -1)"
	style="font-family:Helvetica;font-weight:normal;font-style:normal;font-size:10pt">0</text>
<text x="385.03" y="-19.142" transform="scale(1, -1)"
	style="font-family:Helvetica;font-weight:normal;font-style:normal;font-size:10pt">800</text>
<text x="716.88" y="-19.142" transform="scale(1, -1)"
	style="font-family:Helvetica;font-weight:normal;font-style:normal;font-size:10pt">1600</text>
<text x="1052.2" y="-19.142" transform="scale(1, -1)"
	style="font-family:Helvetica;font-weight:normal;font-style:normal;font-size:10pt">2400</text>
<path d="M60.137,30.467L60.137,40.467" style="fill:none;stroke:#000000;stroke-width:0.625" />
<path d="M395.46,30.467L395.46,40.467" style="fill:none;stroke:#000000;stroke-width:0.625" />
<path d="M730.78,30.467L730.78,40.467" style="fill:none;stroke:#000000;stroke-width:0.625" />
<path d="M1066.1,30.467L1066.1,40.467" style="fill:none;stroke:#000000;stroke-width:0.625" />
<path d="M227.8,35.468L227.8,40.467" style="fill:none;stroke:#000000;stroke-width:0.625" />
<path d="M563.12,35.468L563.12,40.467" style="fill:none;stroke:#000000;stroke-width:0.625" />
<path d="M898.44,35.468L898.44,40.467" style="fill:none;stroke:#000000;stroke-width:0.625" />
<path d="M60.137,40.467L1070.3,40.467" style="fill:none;stroke:#000000;stroke-width:0.625" />
<g transform="rotate(90)">
<text x="335.88" y="13.59" transform="scale(1, -1)"
	style="font-family:Helvetica;font-weight:normal;font-style:normal;font-size:12pt">Throughput</text>
</g>
<text x="18.555" y="-105.23" transform="scale(1, -1)"
	style="font-family:Helvetica;font-weight:normal;font-style:normal;font-size:10pt">100</text>
<text x="18.555" y="-292.21" transform="scale(1, -1)"
	style="font-family:Helvetica;font-weight:normal;font-style:normal;font-size:10pt">150</text>
<text x="18.555" y="-479.18" transform="scale(1, -1)"
	style="font-family:Helvetica;font-weight:normal;font-style:normal;font-size:10pt">200</text>
<text x="18.555" y="-666.16" transform="scale(1, -1)"
	style="font-family:Helvetica;font-weight:normal;font-style:normal;font-size:10pt">250</text>
<path d="M42.88,110.6L52.88,110.6" style="fill:none;stroke:#000000;stroke-width:0.625" />
<path d="M42.88,297.58L52.88,297.58" style="fill:none;stroke:#000000;stroke-width:0.625" />
<path d="M42.88,484.55L52.88,484.55" style="fill:none;stroke:#000000;stroke-width:0.625" />
<path d="M42.88,671.53L52.88,671.53" style="fill:none;stroke:#000000;stroke-width:0.625" />
<path d="M47.88,73.207L52.88,73.207" style="fill:none;stroke:#000000;stroke-width:0.625" />
<path d="M47.88,148L52.88,148" style="fill:none;stroke:#000000;stroke-width:0.625" />
<path d="M47.88,185.39L52.88,185.39" style="fill:none;stroke:#000000;stroke-width:0.625" />
<path d="M47.88,222.79L52.88,222.79" style="fill:none;stroke:#000000;stroke-width:0.625" />
<path d="M47.88,260.18L52.88,260.18" style="fill:none;stroke:#000000;stroke-width:0.625" />
<path d="M47.88,334.97L52.88,334.97" style="fill:none;stroke:#000000;stroke-width:0.625" />
<path d="M47.88,372.37L52.88,372.37" style="fill:none;stroke:#000000;stroke-width:0.625" />
<path d="M47.88,409.76L52.88,409.76" style="fill:none;stroke:#000000;stroke-width:0.625" />
<path d="M47.88,447.16L52.88,447.16" style="fill:none;stroke:#000000;stroke-width:0.625" />
<path d="M47.88,521.95L52.88,521.95" style="fill:none;stroke:#000000;stroke-width:0.625" />
<path d="M47.88,559.34L52.88,559.34" style="fill:none;stroke:#000000;stroke-width:0.625" />
<path d="M47.88,596.74L52.88,596.74" style="fill:none;stroke:#000000;stroke-width:0.625" />
<path d="M47.88,634.13L52.88,634.13" style="fill:none;stroke:#000000;stroke-width:0.625" />
<path d="M52.88,47.03L52.88,701.44" style="fill:none;stroke:#000000;stroke-width:0.625" />
<path d="M60.137,204.09L60.557,551.86L60.976,589.26L61.395,581.78L61.814,544.39L62.233,559.34L62.652,544.39L63.072,548.12L63.491,506.99L63.91,533.17L64.329,559.34L64.748,548.12L65.167,555.6L65.586,536.91L66.006,551.86L66.425,551.86L66.844,536.91L67.263,525.69L67.682,488.29L68.101,364.89L68.521,379.85L68.94,379.85L69.359,376.11L69.778,372.37L70.197,376.11L70.616,376.11L71.035,334.97L71.455,346.19L71.874,420.98L72.293,544.39L72.712,566.82L73.131,578.04L73.55,555.6L73.969,555.6L74.389,536.91L74.808,533.17L75.227,518.21L75.646,551.86L76.065,555.6L76.484,540.65L76.904,540.65L77.323,544.39L77.742,578.04L78.161,578.04L78.58,544.39L78.999,578.04L79.418,570.56L79.838,555.6L80.257,574.3L80.676,551.86L81.095,525.69L81.514,529.43L81.933,533.17L82.353,536.91L82.772,529.43L83.191,503.25L83.61,544.39L84.029,544.39L84.448,548.12L84.867,559.34L85.287,555.6L85.706,555.6L86.125,566.82L86.544,574.3L86.963,570.56L87.382,559.34L87.801,570.56L88.221,578.04L88.64,570.56L89.059,563.08L89.478,570.56L89.897,581.78L90.316,585.52L90.736,581.78L91.155,596.74L91.574,593L91.993,585.52L92.412,559.34L92.831,488.29L93.25,379.85L93.67,364.89L94.089,391.07L94.508,372.37L94.927,379.85L95.346,376.11L95.765,357.41L96.184,353.67L96.604,349.93L97.023,435.94L97.442,559.34L97.861,559.34L98.28,559.34L98.699,578.04L99.119,578.04L99.538,563.08L99.957,566.82L100.38,559.34L100.8,574.3L101.21,578.04L101.63,581.78L102.05,581.78L102.47,570.56L102.89,570.56L103.31,533.17L103.73,510.73L104.15,570.56L104.57,585.52L104.99,585.52L105.41,574.3L105.82,559.34L106.24,559.34L106.66,555.6L107.08,548.12L107.5,555.6L107.92,574.3L108.34,578.04L108.76,585.52L109.18,563.08L109.6,570.56L110.02,559.34L110.44,555.6L110.85,574.3L111.27,611.7L111.69,596.74L112.11,611.7L112.53,619.18L112.95,630.39L113.37,600.48L113.79,604.22L114.21,637.87L114.63,619.18L115.05,615.44L115.47,630.39L115.88,622.92L116.3,656.57L116.72,634.13L117.14,611.7L117.56,619.18L117.98,536.91L118.4,420.98L118.82,413.5L119.24,417.24L119.66,428.46L120.08,420.98L120.5,417.24L120.91,417.24L121.33,432.2L121.75,409.76L122.17,484.55L122.59,634.13L123.01,630.39L123.43,645.35L123.85,641.61L124.27,656.57L124.69,671.53L125.11,634.13L125.53,634.13L125.94,626.65L126.36,656.57L126.78,649.09L127.2,634.13L127.62,600.48L128.04,630.39L128.46,619.18L128.88,626.65L129.3,641.61L129.72,671.53L130.14,645.35L130.55,630.39L130.97,645.35L131.39,641.61L131.81,615.44L132.23,585.52L132.65,596.74L133.07,570.56L133.49,578.04L133.91,596.74L134.33,596.74L134.75,596.74L135.17,570.56L135.58,589.26L136,570.56L136.42,645.35L136.84,551.86L137.26,596.74L137.68,581.78L138.1,548.12L138.52,544.39L138.94,578.04L139.36,566.82L139.78,589.26L140.2,581.78L140.61,574.3L141.03,518.21L141.45,566.82L141.87,607.96L142.29,607.96L142.71,593L143.13,536.91L143.55,391.07L143.97,394.8L144.39,394.8L144.81,398.54L145.23,379.85L145.64,413.5L146.06,406.02L146.48,391.07L146.9,387.33L147.32,462.12L147.74,611.7L148.16,641.61L148.58,611.7L149,634.13L149.42,619.18L149.84,615.44L150.25,615.44L150.67,622.92L151.09,626.65L151.51,622.92L151.93,604.22L152.35,652.83L152.77,615.44L153.19,637.87L153.61,611.7L154.03,622.92L154.45,593L154.87,503.25L155.28,559.34L155.7,589.26L156.12,585.52L156.54,593L156.96,563.08L157.38,529.43L157.8,510.73L158.22,518.21L158.64,514.47L159.06,473.33L159.48,499.51L159.9,533.17L160.31,536.91L160.73,525.69L161.15,548.12L161.57,581.78L161.99,581.78L162.41,551.86L162.83,589.26L163.25,578.04L163.67,578.04L164.09,578.04L164.51,570.56L164.93,600.48L165.34,589.26L165.76,585.52L166.18,585.52L166.6,604.22L167.02,600.48L167.44,626.65L167.86,585.52L168.28,536.91L168.7,383.59L169.12,413.5L169.54,402.28L169.96,391.07L170.37,413.5L170.79,420.98L171.21,398.54L171.63,364.89L172.05,394.8L172.47,394.8L172.89,563.08L173.31,600.48L173.73,570.56L174.15,607.96L174.57,578.04L174.98,581.78L175.4,593L175.82,589.26L176.24,525.69L176.66,596.74L177.08,559.34L177.5,593L177.92,566.82L178.34,578.04L178.76,593L179.18,607.96L179.6,615.44L180.01,619.18L180.43,611.7L180.85,641.61L181.27,615.44L181.69,641.61L182.11,615.44L182.53,600.48L182.95,607.96L183.37,619.18L183.79,596.74L184.21,626.65L184.63,600.48L185.04,626.65L185.46,619.18L185.88,611.7L186.3,645.35L186.72,652.83L187.14,634.13L187.56,630.39L187.98,641.61L188.4,649.09L188.82,634.13L189.24,611.7L189.66,641.61L190.07,664.05L190.49,656.57L190.91,649.09L191.33,667.79L191.75,701.44L192.17,664.05L192.59,671.53L193.01,660.31L193.43,581.78L193.85,391.07L194.27,361.15L194.68,379.85L195.1,402.28L195.52,387.33L195.94,391.07L196.36,391.07L196.78,357.41L197.2,364.89L197.62,458.38L198.04,559.34L198.46,570.56L198.88,574.3L199.3,559.34L199.71,585.52L200.13,578.04L200.55,589.26L200.97,589.26L201.39,589.26L201.81,570.56L202.23,544.39L202.65,581.78L203.07,585.52L203.49,611.7L203.91,559.34L204.33,593L204.74,551.86L205.16,619.18L205.58,574.3L206,578.04L206.42,593L206.84,555.6L207.26,596.74L207.68,593L208.1,611.7L208.52,600.48L208.94,619.18L209.36,611.7L209.77,574.3L210.19,607.96L210.61,611.7L211.03,593L211.45,619.18L211.87,607.96L212.29,607.96L212.71,641.61L213.13,630.39L213.55,637.87L213.97,626.65L214.39,615.44L214.8,652.83L215.22,634.13L215.64,656.57L216.06,622.92L216.48,630.39L216.9,615.44L217.32,641.61L217.74,626.65L218.16,675.27L218.58,566.82L219,443.42L219.41,413.5L219.83,432.2L220.25,435.94L220.67,447.16L221.09,462.12L221.51,428.46L221.93,424.72L222.35,413.5L222.77,499.51L223.19,626.65L223.61,645.35L224.03,615.44L224.44,630.39L224.86,645.35L225.28,630.39L225.7,656.57L226.12,622.92L226.54,656.57L226.96,667.79L227.38,649.09L227.8,686.49L228.22,607.96L228.64,581.78L229.06,589.26L229.47,607.96L229.89,581.78L230.31,607.96L230.73,607.96L231.15,585.52L231.57,607.96L231.99,611.7L232.41,596.74L232.83,585.52L233.25,600.48L233.67,619.18L234.09,574.3L234.5,619.18L234.92,596.74L235.34,585.52L235.76,615.44L236.18,615.44L236.6,593L237.02,619.18L237.44,622.92L237.86,611.7L238.28,622.92L238.7,596.74L239.11,604.22L239.53,622.92L239.95,634.13L240.37,596.74L240.79,611.7L241.21,615.44L241.63,626.65L242.05,615.44L242.47,626.65L242.89,611.7L243.31,593L243.73,533.17L244.14,379.85L244.56,387.33L244.98,383.59L245.4,391.07L245.82,394.8L246.24,402.28L246.66,376.11L247.08,346.19L247.5,275.14L247.92,357.41L248.34,529.43L248.76,518.21L249.17,544.39L249.59,544.39L250.01,551.86L250.43,525.69L250.85,559.34L251.27,578.04L251.69,536.91L252.11,514.47L252.53,529.43L252.95,536.91L253.37,555.6L253.79,521.95L254.2,548.12L254.62,566.82L255.04,570.56L255.46,551.86L255.88,555.6L256.3,529.43L256.72,536.91L257.14,551.86L257.56,477.07L257.98,506.99L258.4,484.55L258.82,514.47L259.23,506.99L259.65,506.99L260.07,514.47L260.49,469.6L260.91,518.21L261.33,506.99L261.75,536.91L262.17,559.34L262.59,544.39L263.01,521.95L263.43,533.17L263.84,551.86L264.26,518.21L264.68,506.99L265.1,514.47L265.52,518.21L265.94,533.17L266.36,540.65L266.78,510.73L267.2,484.55L267.62,518.21L268.04,533.17L268.46,525.69L268.87,465.86L269.29,353.67L269.71,346.19L270.13,331.23L270.55,312.54L270.97,353.67L271.39,342.45L271.81,316.28L272.23,290.1L272.65,308.8L273.07,387.33L273.49,533.17L273.9,544.39L274.32,544.39L274.74,551.86L275.16,570.56L275.58,578.04L276,570.56L276.42,563.08L276.84,551.86L277.26,555.6L277.68,518.21L278.1,544.39L278.52,548.12L278.93,533.17L279.35,529.43L279.77,514.47L280.19,529.43L280.61,540.65L281.03,503.25L281.45,529.43L281.87,521.95L282.29,540.65L282.71,540.65L283.13,555.6L283.55,533.17L283.96,495.77L284.38,525.69L284.8,529.43L285.22,503.25L285.64,521.95L286.06,525.69L286.48,529.43L286.9,563.08L287.32,563.08L287.74,536.91L288.16,555.6L288.57,566.82L288.99,585.52L289.41,570.56L289.83,551.86L290.25,578.04L290.67,589.26L291.09,607.96L291.51,585.52L291.93,533.17L292.35,548.12L292.77,570.56L293.19,574.3L293.6,544.39L294.02,514.47L294.44,334.97L294.86,391.07L295.28,361.15L295.7,327.49L296.12,353.67L296.54,357.41L296.96,387.33L297.38,331.23L297.8,338.71L298.22,420.98L298.63,574.3L299.05,510.73L299.47,533.17L299.89,551.86L300.31,540.65L300.73,566.82L301.15,544.39L301.57,566.82L301.99,499.51L302.41,473.33L302.83,555.6L303.25,536.91L303.66,510.73L304.08,570.56L304.5,488.29L304.92,536.91L305.34,540.65L305.76,548.12L306.18,563.08L306.6,536.91L307.02,585.52L307.44,574.3L307.86,559.34L308.27,536.91L308.69,492.03L309.11,544.39L309.53,514.47L309.95,518.21L310.37,503.25L310.79,525.69L311.21,510.73L311.63,540.65L312.05,525.69L312.47,611.7L312.89,555.6L313.3,585.52L313.72,503.25L314.14,492.03L314.56,484.55L314.98,499.51L315.4,518.21L315.82,510.73L316.24,514.47L316.66,499.51L317.08,480.81L317.5,518.21L317.92,506.99L318.33,506.99L318.75,495.77L319.17,443.42L319.59,364.89L320.01,346.19L320.43,361.15L320.85,372.37L321.27,383.59L321.69,368.63L322.11,338.71L322.53,297.58L322.95,353.67L323.36,406.02L323.78,529.43L324.2,521.95L324.62,499.51L325.04,495.77L325.46,544.39L325.88,525.69L326.3,521.95L326.72,514.47L327.14,503.25L327.56,428.46L327.98,540.65L328.39,506.99L328.81,510.73L329.23,529.43L329.65,506.99L330.07,548.12L330.49,574.3L330.91,533.17L331.33,477.07L331.75,492.03L332.17,533.17L332.59,548.12L333,540.65L333.42,499.51L333.84,477.07L334.26,495.77L334.68,544.39L335.1,514.47L335.52,480.81L335.94,488.29L336.36,525.69L336.78,495.77L337.2,503.25L337.62,492.03L338.03,514.47L338.45,484.55L338.87,492.03L339.29,510.73L339.71,499.51L340.13,510.73L340.55,514.47L340.97,540.65L341.39,529.43L341.81,506.99L342.23,506.99L342.65,506.99L343.06,506.99L343.48,521.95L343.9,499.51L344.32,420.98L344.74,308.8L345.16,312.54L345.58,342.45L346,331.23L346.42,361.15L346.84,327.49L347.26,353.67L347.68,263.92L348.09,323.75L348.51,387.33L348.93,521.95L349.35,551.86L349.77,525.69L350.19,544.39L350.61,574.3L351.03,536.91L351.45,551.86L351.87,574.3L352.29,529.43L352.7,566.82L353.12,506.99L353.54,533.17L353.96,536.91L354.38,536.91L354.8,533.17L355.22,551.86L355.64,529.43L356.06,581.78L356.48,544.39L356.9,548.12L357.32,566.82L357.73,521.95L358.15,533.17L358.57,533.17L358.99,518.21L359.41,544.39L359.83,559.34L360.25,563.08L360.67,536.91L361.09,551.86L361.51,548.12L361.93,555.6L362.35,559.34L362.76,559.34L363.18,566.82L363.6,540.65L364.02,585.52L364.44,559.34L364.86,574.3L365.28,566.82L365.7,563.08L366.12,581.78L366.54,570.56L366.96,585.52L367.38,563.08L367.79,488.29L368.21,506.99L368.63,510.73L369.05,492.03L369.47,432.2L369.89,334.97L370.31,353.67L370.73,342.45L371.15,342.45L371.57,372.37L371.99,357.41L372.41,368.63L372.82,316.28L373.24,290.1L373.66,383.59L374.08,477.07L374.5,458.38L374.92,480.81L375.34,465.86L375.76,462.12L376.18,473.33L376.6,514.47L377.02,503.25L377.43,499.51L377.85,480.81L378.27,492.03L378.69,465.86L379.11,492.03L379.53,548.12L379.95,402.28L380.37,521.95L380.79,536.91L381.21,518.21L381.63,514.47L382.05,495.77L382.46,529.43L382.88,510.73L383.3,480.81L383.72,488.29L384.14,473.33L384.56,458.38L384.98,495.77L385.4,443.42L385.82,450.9L386.24,495.77L386.66,477.07L387.08,473.33L387.49,506.99L387.91,514.47L388.33,529.43L388.75,555.6L389.17,529.43L389.59,536.91L390.01,533.17L390.43,514.47L390.85,521.95L391.27,484.55L391.69,488.29L392.11,503.25L392.52,428.46L392.94,462.12L393.36,518.21L393.78,480.81L394.2,473.33L394.62,417.24L395.04,338.71L395.46,316.28L395.88,342.45L396.3,312.54L396.72,320.01L397.13,308.8L397.55,327.49L397.97,334.97L398.39,305.06L398.81,398.54L399.23,469.6L399.65,488.29L400.07,544.39L400.49,521.95L400.91,533.17L401.33,503.25L401.75,503.25L402.16,480.81L402.58,499.51L403,533.17L403.42,473.33L403.84,514.47L404.26,525.69L404.68,536.91L405.1,484.55L405.52,495.77L405.94,514.47L406.36,529.43L406.78,506.99L407.19,518.21L407.61,548.12L408.03,492.03L408.45,510.73L408.87,503.25L409.29,533.17L409.71,492.03L410.13,525.69L410.55,492.03L410.97,536.91L411.39,492.03L411.81,563.08L412.22,521.95L412.64,559.34L413.06,503.25L413.48,503.25L413.9,499.51L414.32,555.6L414.74,525.69L415.16,570.56L415.58,506.99L416,570.56L416.42,544.39L416.84,563.08L417.25,559.34L417.67,503.25L418.09,544.39L418.51,514.47L418.93,555.6L419.35,521.95L419.77,492.03L420.19,361.15L420.61,383.59L421.03,394.8L421.45,379.85L421.86,398.54L422.28,394.8L422.7,361.15L423.12,387.33L423.54,353.67L423.96,435.94L424.38,462.12L424.8,488.29L425.22,499.51L425.64,480.81L426.06,480.81L426.48,488.29L426.89,480.81L427.31,462.12L427.73,514.47L428.15,469.6L428.57,458.38L428.99,521.95L429.41,488.29L429.83,484.55L430.25,536.91L430.67,506.99L431.09,495.77L431.51,536.91L431.92,462.12L432.34,488.29L432.76,525.69L433.18,514.47L433.6,495.77L434.02,469.6L434.44,488.29L434.86,518.21L435.28,488.29L435.7,506.99L436.12,548.12L436.54,480.81L436.95,420.98L437.37,492.03L437.79,510.73L438.21,525.69L438.63,480.81L439.05,529.43L439.47,506.99L439.89,514.47L440.31,559.34L440.73,462.12L441.15,544.39L441.56,525.69L441.98,514.47L442.4,574.3L442.82,488.29L443.24,540.65L443.66,499.51L444.08,510.73L444.5,480.81L444.92,484.55L445.34,308.8L445.76,342.45L446.18,312.54L446.59,349.93L447.01,323.75L447.43,331.23L447.85,316.28L448.27,256.44L448.69,297.58L449.11,334.97L449.53,533.17L449.95,533.17L450.37,566.82L450.79,510.73L451.21,536.91L451.62,536.91L452.04,521.95L452.46,540.65L452.88,510.73L453.3,544.39L453.72,503.25L454.14,566.82L454.56,514.47L454.98,566.82L455.4,506.99L455.82,563.08L456.24,518.21L456.65,555.6L457.07,495.77L457.49,492.03L457.91,473.33L458.33,488.29L458.75,432.2L459.17,443.42L459.59,435.94L460.01,376.11L460.43,450.9L460.85,428.46L461.27,473.33L461.68,424.72L462.1,465.86L462.52,465.86L462.94,462.12L463.36,506.99L463.78,462.12L464.2,495.77L464.62,469.6L465.04,506.99L465.46,492.03L465.88,488.29L466.29,533.17L466.71,447.16L467.13,529.43L467.55,499.51L467.97,492.03L468.39,518.21L468.81,480.81L469.23,503.25L469.65,480.81L470.07,450.9L470.49,338.71L470.91,308.8L471.32,327.49L471.74,353.67L472.16,342.45L472.58,376.11L473,372.37L473.42,323.75L473.84,312.54L474.26,420.98L474.68,499.51L475.1,540.65L475.52,529.43L475.94,503.25L476.35,551.86L476.77,521.95L477.19,563.08L477.61,570.56L478.03,506.99L478.45,548.12L478.87,499.51L479.29,555.6L479.71,563.08L480.13,533.17L480.55,548.12L480.97,574.3L481.38,506.99L481.8,585.52L482.22,533.17L482.64,563.08L483.06,559.34L483.48,551.86L483.9,570.56L484.32,536.91L484.74,506.99L485.16,536.91L485.58,540.65L485.99,488.29L486.41,536.91L486.83,499.51L487.25,495.77L487.67,536.91L488.09,555.6L488.51,518.21L488.93,574.3L489.35,555.6L489.77,521.95L490.19,555.6L490.61,563.08L491.02,506.99L491.44,555.6L491.86,536.91L492.28,514.47L492.7,555.6L493.12,544.39L493.54,533.17L493.96,503.25L494.38,555.6L494.8,529.43L495.22,409.76L495.64,338.71L496.05,398.54L496.47,364.89L496.89,372.37L497.31,342.45L497.73,346.19L498.15,342.45L498.57,331.23L498.99,361.15L499.41,357.41L499.83,570.56L500.25,578.04L500.67,540.65L501.08,593L501.5,604.22L501.92,548.12L502.34,432.2L502.76,495.77L503.18,435.94L503.6,495.77L504.02,480.81L504.44,510.73L504.86,473.33L505.28,525.69L505.7,480.81L506.11,499.51L506.53,514.47L506.95,454.64L507.37,544.39L507.79,488.29L508.21,533.17L508.63,518.21L509.05,529.43L509.47,469.6L509.89,477.07L510.31,521.95L510.72,458.38L511.14,488.29L511.56,465.86L511.98,506.99L512.4,465.86L512.82,510.73L513.24,465.86L513.66,544.39L514.08,510.73L514.5,372.37L514.92,488.29L515.34,540.65L515.75,484.55L516.17,521.95L516.59,473.33L517.01,548.12L517.43,510.73L517.85,563.08L518.27,495.77L518.69,563.08L519.11,503.25L519.53,529.43L519.95,499.51L520.37,495.77L520.78,346.19L521.2,391.07L521.62,383.59L522.04,346.19L522.46,406.02L522.88,338.71L523.3,383.59L523.72,368.63L524.14,327.49L524.56,469.6L524.98,544.39L525.4,596.74L525.81,521.95L526.23,574.3L526.65,506.99L527.07,484.55L527.49,514.47L527.91,424.72L528.33,495.77L528.75,450.9L529.17,480.81L529.59,439.68L530.01,488.29L530.42,480.81L530.84,439.68L531.26,503.25L531.68,465.86L532.1,495.77L532.52,503.25L532.94,454.64L533.36,503.25L533.78,458.38L534.2,503.25L534.62,488.29L535.04,454.64L535.45,488.29L535.87,454.64L536.29,529.43L536.71,447.16L537.13,506.99L537.55,503.25L537.97,469.6L538.39,525.69L538.81,533.17L539.23,469.6L539.65,518.21L540.07,488.29L540.48,503.25L540.9,521.95L541.32,465.86L541.74,533.17L542.16,477.07L542.58,529.43L543,506.99L543.42,473.33L543.84,492.03L544.26,465.86L544.68,450.9L545.1,529.43L545.51,458.38L545.93,331.23L546.35,383.59L546.77,376.11L547.19,331.23L547.61,361.15L548.03,376.11L548.45,394.8L548.87,327.49L549.29,346.19L549.71,402.28L550.13,492.03L550.54,521.95L550.96,540.65L551.38,499.51L551.8,533.17L552.22,529.43L552.64,510.73L553.06,544.39L553.48,551.86L553.9,521.95L554.32,536.91L554.74,533.17L555.15,503.25L555.57,578.04L555.99,559.34L556.41,514.47L556.83,521.95L557.25,559.34L557.67,533.17L558.09,566.82L558.51,551.86L558.93,521.95L559.35,563.08L559.77,551.86L560.18,525.69L560.6,551.86L561.02,566.82L561.44,529.43L561.86,551.86L562.28,566.82L562.7,518.21L563.12,570.56L563.54,585.52L563.96,559.34L564.38,525.69L564.8,574.3L565.21,555.6L565.63,529.43L566.05,559.34L566.47,548.12L566.89,600.48L567.31,525.69L567.73,578.04L568.15,589.26L568.57,559.34L568.99,529.43L569.41,593L569.83,600.48L570.24,521.95L570.66,462.12L571.08,398.54L571.5,428.46L571.92,379.85L572.34,402.28L572.76,435.94L573.18,428.46L573.6,424.72L574.02,379.85L574.44,323.75L574.85,465.86L575.27,589.26L575.69,615.44L576.11,585.52L576.53,619.18L576.95,619.18L577.37,615.44L577.79,574.3L578.21,622.92L578.63,634.13L579.05,652.83L579.47,578.04L579.88,622.92L580.3,607.96L580.72,593L581.14,604.22L581.56,574.3L581.98,600.48L582.4,619.18L582.82,585.52L583.24,589.26L583.66,555.6L584.08,589.26L584.5,578.04L584.91,536.91L585.33,574.3L585.75,514.47L586.17,563.08L586.59,540.65L587.01,536.91L587.43,555.6L587.85,548.12L588.27,533.17L588.69,574.3L589.11,593L589.53,555.6L589.94,570.56L590.36,593L590.78,551.86L591.2,578.04L591.62,578.04L592.04,570.56L592.46,578.04L592.88,548.12L593.3,536.91L593.72,570.56L594.14,506.99L594.56,383.59L594.97,447.16L595.39,398.54L595.81,398.54L596.23,263.92L596.65,320.01L597.07,316.28L597.49,293.84L597.91,334.97L598.33,338.71L598.75,301.32L599.17,271.4L599.58,245.22L600,349.93L600.42,462.12L600.84,406.02L601.26,432.2L601.68,469.6L602.1,413.5L602.52,488.29L602.94,428.46L603.36,480.81L603.78,428.46L604.2,480.81L604.61,447.16L605.03,420.98L605.45,480.81L605.87,398.54L606.29,443.42L606.71,402.28L607.13,327.49L607.55,495.77L607.97,458.38L608.39,499.51L608.81,510.73L609.23,477.07L609.64,499.51L610.06,428.46L610.48,503.25L610.9,499.51L611.32,443.42L611.74,484.55L612.16,454.64L612.58,492.03L613,514.47L613.42,435.94L613.84,521.95L614.26,484.55L614.67,533.17L615.09,525.69L615.51,480.81L615.93,525.69L616.35,465.86L616.77,525.69L617.19,521.95L617.61,462.12L618.03,514.47L618.45,492.03L618.87,521.95L619.28,548.12L619.7,499.51L620.12,529.43L620.54,477.07L620.96,484.55L621.38,379.85L621.8,338.71L622.22,391.07L622.64,383.59L623.06,364.89L623.48,346.19L623.9,391.07L624.31,368.63L624.73,316.28L625.15,469.6L625.57,559.34L625.99,514.47L626.41,563.08L626.83,566.82L627.25,499.51L627.67,578.04L628.09,499.51L628.51,566.82L628.93,574.3L629.34,514.47L629.76,585.52L630.18,555.6L630.6,506.99L631.02,555.6L631.44,477.07L631.86,551.86L632.28,566.82L632.7,510.73L633.12,566.82L633.54,544.39L633.96,488.29L634.37,559.34L634.79,544.39L635.21,473.33L635.63,506.99L636.05,540.65L636.47,510.73L636.89,510.73L637.31,540.65L637.73,540.65L638.15,499.51L638.57,525.69L638.99,551.86L639.4,518.21L639.82,559.34L640.24,581.78L640.66,536.91L641.08,574.3L641.5,574.3L641.92,536.91L642.34,593L642.76,555.6L643.18,484.55L643.6,578.04L644.01,551.86L644.43,578.04L644.85,529.43L645.27,574.3L645.69,570.56L646.11,439.68L646.53,361.15L646.95,379.85L647.37,308.8L647.79,327.49L648.21,364.89L648.63,372.37L649.04,376.11L649.46,323.75L649.88,275.14L650.3,413.5L650.72,578.04L651.14,585.52L651.56,506.99L651.98,611.7L652.4,630.39L652.82,585.52L653.24,533.17L653.66,585.52L654.07,596.74L654.49,525.69L654.91,551.86L655.33,533.17L655.75,626.65L656.17,544.39L656.59,607.96L657.01,619.18L657.43,626.65L657.85,540.65L658.27,604.22L658.69,600.48L659.1,611.7L659.52,533.17L659.94,600.48L660.36,581.78L660.78,604.22L661.2,563.08L661.62,622.92L662.04,604.22L662.46,619.18L662.88,559.34L663.3,626.65L663.72,641.61L664.13,645.35L664.55,555.6L664.97,630.39L665.39,649.09L665.81,652.83L666.23,637.87L666.65,589.26L667.07,664.05L667.49,630.39L667.91,619.18L668.33,559.34L668.74,634.13L669.16,626.65L669.58,652.83L670,664.05L670.42,600.48L670.84,679.01L671.26,607.96L671.68,420.98L672.1,346.19L672.52,406.02L672.94,353.67L673.36,394.8L673.77,413.5L674.19,398.54L674.61,376.11L675.03,383.59L675.45,492.03L675.87,551.86L676.29,634.13L676.71,574.3L677.13,615.44L677.55,634.13L677.97,525.69L678.39,544.39L678.8,387.33L679.22,492.03L679.64,417.24L680.06,473.33L680.48,480.81L680.9,435.94L681.32,514.47L681.74,477.07L682.16,529.43L682.58,533.17L683,443.42L683.42,521.95L683.83,477.07L684.25,510.73L684.67,525.69L685.09,435.94L685.51,473.33L685.93,473.33L686.35,406.02L686.77,473.33L687.19,406.02L687.61,480.81L688.03,465.86L688.44,391.07L688.86,424.72L689.28,462.12L689.7,450.9L690.12,514.47L690.54,525.69L690.96,222.79L691.38,514.47L691.8,518.21L692.22,477.07L692.64,533.17L693.06,499.51L693.47,495.77L693.89,551.86L694.31,469.6L694.73,566.82L695.15,555.6L695.57,469.6L695.99,525.69L696.41,484.55L696.83,338.71L697.25,417.24L697.67,406.02L698.09,353.67L698.5,387.33L698.92,379.85L699.34,361.15L699.76,361.15L700.18,286.36L700.6,428.46L701.02,473.33L701.44,566.82L701.86,566.82L702.28,484.55L702.7,521.95L703.12,559.34L703.53,503.25L703.95,533.17L704.37,521.95L704.79,503.25L705.21,548.12L705.63,536.91L706.05,499.51L706.47,581.78L706.89,563.08L707.31,506.99L707.73,563.08L708.15,574.3L708.56,499.51L708.98,551.86L709.4,566.82L709.82,499.51L710.24,570.56L710.66,525.69L711.08,447.16L711.5,540.65L711.92,533.17L712.34,465.86L712.76,540.65L713.17,506.99L713.59,439.68L714.01,521.95L714.43,540.65L714.85,574.3L715.27,533.17L715.69,574.3L716.11,596.74L716.53,525.69L716.95,611.7L717.37,596.74L717.79,536.91L718.2,607.96L718.62,600.48L719.04,551.86L719.46,607.96L719.88,604.22L720.3,611.7L720.72,484.55L721.14,607.96L721.56,533.17L721.98,342.45L722.4,424.72L722.82,435.94L723.23,432.2L723.65,424.72L724.07,387.33L724.49,435.94L724.91,413.5L725.33,409.76L725.75,413.5L726.17,611.7L726.59,585.52L727.01,604.22L727.43,555.6L727.85,626.65L728.26,630.39L728.68,540.65L729.1,593L729.52,619.18L729.94,622.92L730.36,536.91L730.78,607.96L731.2,630.39L731.62,645.35L732.04,555.6L732.46,645.35L732.87,600.48L733.29,570.56L733.71,529.43L734.13,604.22L734.55,634.13L734.97,615.44L735.39,536.91L735.81,563.08L736.23,593L736.65,578.04L737.07,503.25L737.49,533.17L737.9,574.3L738.32,593L738.74,596.74L739.16,529.43L739.58,593L740,619.18L740.42,604.22L740.84,559.34L741.26,596.74L741.68,615.44L742.1,634.13L742.52,615.44L742.93,544.39L743.35,574.3L743.77,589.26L744.19,596.74L744.61,514.47L745.03,555.6L745.45,604.22L745.87,589.26L746.29,555.6L746.71,492.03L747.13,312.54L747.55,346.19L747.96,368.63L748.38,357.41L748.8,357.41L749.22,334.97L749.64,290.1L750.06,316.28L750.48,290.1L750.9,439.68L751.32,536.91L751.74,518.21L752.16,529.43L752.58,521.95L752.99,477.07L753.41,521.95L753.83,521.95L754.25,495.77L754.67,548.12L755.09,540.65L755.51,454.64L755.93,536.91L756.35,544.39L756.77,574.3L757.19,525.69L757.6,521.95L758.02,581.78L758.44,480.81L758.86,551.86L759.28,533.17L759.7,417.24L760.12,480.81L760.54,413.5L760.96,439.68L761.38,465.86L761.8,402.28L762.22,473.33L762.63,473.33L763.05,409.76L763.47,469.6L763.89,443.42L764.31,398.54L764.73,469.6L765.15,480.81L765.57,428.46L765.99,477.07L766.41,488.29L766.83,435.94L767.25,477.07L767.66,506.99L768.08,435.94L768.5,506.99L768.92,514.47L769.34,439.68L769.76,484.55L770.18,510.73L770.6,435.94L771.02,510.73L771.44,518.21L771.86,406.02L772.28,323.75L772.69,237.75L773.11,204.09L773.53,346.19L773.95,290.1L774.37,334.97L774.79,346.19L775.21,308.8L775.63,275.14L776.05,394.8L776.47,510.73L776.89,462.12L777.3,506.99L777.72,506.99L778.14,435.94L778.56,495.77L778.98,492.03L779.4,443.42L779.82,495.77L780.24,465.86L780.66,503.25L781.08,439.68L781.5,533.17L781.92,529.43L782.33,477.07L782.75,540.65L783.17,544.39L783.59,473.33L784.01,492.03L784.43,540.65L784.85,536.91L785.27,462.12L785.69,484.55L786.11,514.47L786.53,428.46L786.95,525.69L787.36,533.17L787.78,462.12L788.2,521.95L788.62,521.95L789.04,533.17L789.46,465.86L789.88,506.99L790.3,536.91L790.72,536.91L791.14,462.12L791.56,559.34L791.98,551.86L792.39,473.33L792.81,555.6L793.23,540.65L793.65,559.34L794.07,492.03L794.49,574.3L794.91,533.17L795.33,510.73L795.75,555.6L796.17,555.6L796.59,559.34L797.01,432.2L797.42,391.07L797.84,368.63L798.26,387.33L798.68,383.59L799.1,342.45L799.52,402.28L799.94,379.85L800.36,361.15L800.78,301.32L801.2,391.07L801.62,544.39L802.03,555.6L802.45,514.47L802.87,555.6L803.29,521.95L803.71,570.56L804.13,458.38L804.55,574.3L804.97,581.78L805.39,566.82L805.81,480.81L806.23,544.39L806.65,596.74L807.06,596.74L807.48,596.74L807.9,518.21L808.32,581.78L808.74,578.04L809.16,585.52L809.58,514.47L810,581.78L810.42,589.26L810.84,581.78L811.26,484.55L811.68,581.78L812.09,593L812.51,585.52L812.93,503.25L813.35,570.56L813.77,589.26L814.19,596.74L814.61,566.82L815.03,518.21L815.45,626.65L815.87,578.04L816.29,578.04L816.71,510.73L817.12,600.48L817.54,596.74L817.96,626.65L818.38,637.87L818.8,551.86L819.22,600.48L819.64,622.92L820.06,622.92L820.48,551.86L820.9,660.31L821.32,641.61L821.73,619.18L822.15,555.6L822.57,387.33L822.99,432.2L823.41,420.98L823.83,450.9L824.25,454.64L824.67,454.64L825.09,458.38L825.51,320.01L825.93,391.07L826.35,480.81L826.76,611.7L827.18,634.13L827.6,533.17L828.02,634.13L828.44,649.09L828.86,649.09L829.28,652.83L829.7,637.87L830.12,548.12L830.54,675.27L830.96,589.26L831.38,637.87L831.79,652.83L832.21,544.39L832.63,645.35L833.05,664.05L833.47,649.09L833.89,641.61L834.31,649.09L834.73,525.69L835.15,563.08L835.57,551.86L835.99,578.04L836.41,566.82L836.82,555.6L837.24,559.34L837.66,469.6L838.08,533.17L838.5,533.17L838.92,495.77L839.34,533.17L839.76,555.6L840.18,559.34L840.6,544.39L841.02,477.07L841.44,570.56L841.85,600.48L842.27,581.78L842.69,570.56L843.11,559.34L843.53,578.04L843.95,581.78L844.37,503.25L844.79,581.78L845.21,570.56L845.63,581.78L846.05,555.6L846.46,581.78L846.88,521.95L847.3,521.95L847.72,402.28L848.14,327.49L848.56,409.76L848.98,331.23L849.4,278.88L849.82,334.97L850.24,334.97L850.66,290.1L851.08,271.4L851.49,383.59L851.91,510.73L852.33,394.8L852.75,477.07L853.17,480.81L853.59,484.55L854.01,473.33L854.43,503.25L854.85,488.29L855.27,435.94L855.69,533.17L856.11,510.73L856.52,413.5L856.94,510.73L857.36,495.77L857.78,409.76L858.2,458.38L858.62,488.29L859.04,506.99L859.46,413.5L859.88,499.51L860.3,521.95L860.72,432.2L861.14,159.22L861.55,477.07L861.97,480.81L862.39,420.98L862.81,488.29L863.23,477.07L863.65,495.77L864.07,417.24L864.49,492.03L864.91,484.55L865.33,443.42L865.75,510.73L866.16,514.47L866.58,518.21L867,447.16L867.42,525.69L867.84,510.73L868.26,432.2L868.68,525.69L869.1,510.73L869.52,503.25L869.94,462.12L870.36,521.95L870.78,529.43L871.19,536.91L871.61,454.64L872.03,514.47L872.45,413.5L872.87,368.63L873.29,338.71L873.71,391.07L874.13,376.11L874.55,379.85L874.97,334.97L875.39,372.37L875.81,353.67L876.22,364.89L876.64,420.98L877.06,447.16L877.48,518.21L877.9,536.91L878.32,551.86L878.74,477.07L879.16,548.12L879.58,555.6L880,548.12L880.42,465.86L880.84,551.86L881.25,540.65L881.67,529.43L882.09,484.55L882.51,574.3L882.93,585.52L883.35,495.77L883.77,593L884.19,585.52L884.61,578.04L885.03,492.03L885.45,555.6L885.87,503.25L886.28,536.91L886.7,510.73L887.12,510.73L887.54,551.86L887.96,574.3L888.38,566.82L888.8,499.51L889.22,585.52L889.64,574.3L890.06,589.26L890.48,506.99L890.89,600.48L891.31,581.78L891.73,578.04L892.15,510.73L892.57,607.96L892.99,596.74L893.41,622.92L893.83,510.73L894.25,585.52L894.67,604.22L895.09,596.74L895.51,555.6L895.92,518.21L896.34,607.96L896.76,593L897.18,589.26L897.6,473.33L898.02,398.54L898.44,443.42L898.86,420.98L899.28,443.42L899.7,413.5L900.12,364.89L900.54,432.2L900.95,450.9L901.37,364.89L901.79,480.81L902.21,611.7L902.63,503.25L903.05,551.86L903.47,589.26L903.89,607.96L904.31,611.7L904.73,525.69L905.15,622.92L905.57,637.87L905.98,634.13L906.4,596.74L906.82,510.73L907.24,581.78L907.66,596.74L908.08,622.92L908.5,641.61L908.92,525.69L909.34,634.13L909.76,630.39L910.18,641.61L910.59,637.87L911.01,521.95L911.43,589.26L911.85,544.39L912.27,551.86L912.69,574.3L913.11,581.78L913.53,465.86L913.95,544.39L914.37,544.39L914.79,566.82L915.21,555.6L915.62,566.82L916.04,529.43L916.46,634.13L916.88,622.92L917.3,652.83L917.72,641.61L918.14,641.61L918.56,540.65L918.98,641.61L919.4,671.53L919.82,652.83L920.24,679.01L920.65,656.57L921.07,551.86L921.49,574.3L921.91,664.05L922.33,693.97L922.75,626.65L923.17,462.12L923.59,417.24L924.01,402.28L924.43,406.02L924.85,477.07L925.27,469.6L925.68,473.33L926.1,424.72L926.52,420.98L926.94,525.69L927.36,660.31L927.78,566.82L928.2,641.61L928.62,645.35L929.04,664.05L929.46,596.74L929.88,619.18L930.3,593L930.71,604.22L931.13,503.25L931.55,581.78L931.97,604.22L932.39,596.74L932.81,600.48L933.23,589.26L933.65,604.22L934.07,593L934.49,600.48L934.91,604.22L935.32,503.25L935.74,634.13L936.16,607.96L936.58,596.74L937,484.55L937.42,510.73L937.84,506.99L938.26,420.98L938.68,488.29L939.1,503.25L939.52,499.51L939.94,376.11L940.35,510.73L940.77,495.77L941.19,424.72L941.61,510.73L942.03,499.51L942.45,503.25L942.87,435.94L943.29,518.21L943.71,533.17L944.13,458.38L944.55,521.95L944.97,529.43L945.38,533.17L945.8,409.76L946.22,521.95L946.64,514.47L947.06,510.73L947.48,424.72L947.9,473.33L948.32,357.41L948.74,338.71L949.16,293.84L949.58,47.03L950,357.41L950.41,349.93L950.83,316.28L951.25,297.58L951.67,312.54L952.09,364.89L952.51,458.38L952.93,499.51L953.35,413.5L953.77,503.25L954.19,518.21L954.61,518.21L955.02,443.42L955.44,514.47L955.86,495.77L956.28,499.51L956.7,409.76L957.12,499.51L957.54,499.51L957.96,495.77L958.38,417.24L958.8,525.69L959.22,506.99L959.64,518.21L960.05,413.5L960.47,510.73L960.89,521.95L961.31,525.69L961.73,391.07L962.15,488.29L962.57,484.55L962.99,495.77L963.41,447.16L963.83,462.12L964.25,387.33L964.67,458.38L965.08,495.77L965.5,398.54L965.92,484.55L966.34,518.21L966.76,510.73L967.18,514.47L967.6,435.94L968.02,514.47L968.44,506.99L968.86,521.95L969.28,439.68L969.7,533.17L970.11,529.43L970.53,540.65L970.95,521.95L971.37,465.86L971.79,555.6L972.21,555.6L972.63,544.39L973.05,394.8L973.47,379.85L973.89,368.63L974.31,316.28L974.73,357.41L975.14,361.15L975.56,323.75L975.98,391.07L976.4,346.19L976.82,379.85L977.24,454.64L977.66,548.12L978.08,480.81L978.5,544.39L978.92,548.12L979.34,559.34L979.75,454.64L980.17,529.43L980.59,544.39L981.01,563.08L981.43,551.86L981.85,465.86L982.27,563.08L982.69,570.56L983.11,570.56L983.53,548.12L983.95,465.86L984.37,555.6L984.78,574.3L985.2,585.52L985.62,566.82L986.04,462.12L986.46,536.91L986.88,450.9L987.3,533.17L987.72,499.51L988.14,548.12L988.56,477.07L988.98,544.39L989.4,555.6L989.81,529.43L990.23,544.39L990.65,447.16L991.07,544.39L991.49,589.26L991.91,589.26L992.33,570.56L992.75,593L993.17,492.03L993.59,578.04L994.01,581.78L994.43,619.18L994.84,615.44L995.26,600.48L995.68,506.99L996.1,581.78L996.52,596.74L996.94,604.22L997.36,593L997.78,465.86L998.2,510.73L998.62,174.17L999.04,305.06L999.45,316.28L999.87,316.28L1000.3,316.28L1000.7,263.92L1001.1,327.49L1001.6,301.32L1002,293.84L1002.4,383.59L1002.8,413.5L1003.2,518.21L1003.6,521.95L1004.1,518.21L1004.5,435.94L1004.9,506.99L1005.3,492.03L1005.7,484.55L1006.2,435.94L1006.6,521.95L1007,521.95L1007.4,428.46L1007.8,529.43L1008.3,529.43L1008.7,540.65L1009.1,439.68L1009.5,510.73L1009.9,514.47L1010.4,234.01L1010.8,406.02L1011.2,424.72L1011.6,510.73L1012,536.91L1012.4,533.17L1012.9,447.16L1013.3,525.69L1013.7,540.65L1014.1,544.39L1014.5,477.07L1015,559.34L1015.4,559.34L1015.8,521.95L1016.2,506.99L1016.6,551.86L1017.1,536.91L1017.5,465.86L1017.9,540.65L1018.3,555.6L1018.7,578.04L1019.2,596.74L1019.6,454.64L1020,593L1020.4,574.3L1020.8,566.82L1021.3,454.64L1021.7,566.82L1022.1,574.3L1022.5,555.6L1022.9,477.07L1023.3,488.29L1023.8,379.85L1024.2,361.15L1024.6,372.37L1025,305.06L1025.4,353.67L1025.9,364.89L1026.3,383.59L1026.7,346.19L1027.1,387.33L1027.5,372.37L1028,574.3L1028.4,581.78L1028.8,570.56L1029.2,454.64L1029.6,469.6L1030.1,514.47L1030.5,533.17L1030.9,548.12L1031.3,447.16L1031.7,548.12L1032.1,514.47L1032.6,529.43L1033,536.91L1033.4,465.86L1033.8,555.6L1034.2,544.39L1034.7,533.17L1035.1,533.17L1035.5,469.6L1035.9,533.17L1036.3,533.17L1036.8,536.91L1037.2,533.17L1037.6,368.63L1038,495.77L1038.4,529.43L1038.9,518.21L1039.3,506.99L1039.7,443.42L1040.1,510.73L1040.5,518.21L1041,506.99L1041.4,514.47L1041.8,458.38L1042.2,525.69L1042.6,551.86L1043,551.86L1043.5,566.82L1043.9,548.12L1044.3,450.9L1044.7,540.65L1045.1,566.82L1045.6,559.34L1046,570.56L1046.4,454.64L1046.8,570.56L1047.2,570.56L1047.7,574.3L1048.1,563.08L1048.5,492.03L1048.9,327.49L1049.3,406.02L1049.8,379.85L1050.2,413.5L1050.6,394.8L1051,398.54L1051.4,361.15L1051.8,316.28L1052.3,379.85L1052.7,398.54L1053.1,548.12L1053.5,593L1053.9,581.78L1054.4,604.22L1054.8,465.86L1055.2,574.3L1055.6,596.74L1056,619.18L1056.5,615.44L1056.9,544.39L1057.3,510.73L1057.7,578.04L1058.1,600.48L1058.6,611.7L1059,600.48L1059.4,604.22L1059.8,544.39L1060.2,630.39L1060.7,611.7L1061.1,600.48L1061.5,626.65L1061.9,619.18L1062.3,484.55L1062.7,566.82L1063.2,555.6L1063.6,551.86L1064,555.6L1064.4,555.6L1064.8,559.34L1065.3,435.94L1065.7,563.08L1066.1,578.04L1066.5,581.78L1066.9,630.39L1067.4,622.92L1067.8,615.44L1068.2,477.07L1068.6,630.39L1069,645.35L1069.5,634.13L1069.9,622.92L1070.3,596.74" style="fill:none;stroke:#F15A60;stroke-width:1.875" />
<path d="M1055,694.3L1080,694.3" style="fill:none;stroke:#F15A60;stroke-width:1.875" />
<text x="959.12" y="-687.85" transform="scale(1, -1)"
	style="font-family:Helvetica;font-weight:normal;font-style:normal;font-size:12pt">Consul v0.6.4</text>
</g>
</svg>
