<?xml version="1.0"?>
<!-- Generated by SVGo and Plotinum VG -->
<svg width="12in" height="8in"
	xmlns="http://www.w3.org/2000/svg"
	xmlns:xlink="http://www.w3.org/1999/xlink">
<g transform="scale(1, -1) translate(0, -720)">
<path d="M0,0L1080,0L1080,720L0,720Z" style="fill:#FFFFFF" />
<text x="226.97" y="-706.41" transform="scale(1, -1)"
	style="font-family:Helvetica;font-weight:normal;font-style:normal;font-size:12pt">Write 500K keys, 1000-client, 8-byte key, 256-byte value (Consul v0.6.4), Latency(millisecond)</text>
<text x="544.64" y="-4.965" transform="scale(1, -1)"
	style="font-family:Helvetica;font-weight:normal;font-style:normal;font-size:12pt">Second</text>
<text x="56.662" y="-19.142" transform="scale(1, -1)"
	style="font-family:Helvetica;font-weight:normal;font-style:normal;font-size:10pt">0</text>
<text x="362.24" y="-19.142" transform="scale(1, -1)"
	style="font-family:Helvetica;font-weight:normal;font-style:normal;font-size:10pt">20</text>
<text x="671.29" y="-19.142" transform="scale(1, -1)"
	style="font-family:Helvetica;font-weight:normal;font-style:normal;font-size:10pt">40</text>
<text x="980.34" y="-19.142" transform="scale(1, -1)"
	style="font-family:Helvetica;font-weight:normal;font-style:normal;font-size:10pt">60</text>
<path d="M60.137,30.467L60.137,40.467" style="fill:none;stroke:#000000;stroke-width:0.625" />
<path d="M369.19,30.467L369.19,40.467" style="fill:none;stroke:#000000;stroke-width:0.625" />
<path d="M678.24,30.467L678.24,40.467" style="fill:none;stroke:#000000;stroke-width:0.625" />
<path d="M987.29,30.467L987.29,40.467" style="fill:none;stroke:#000000;stroke-width:0.625" />
<path d="M214.66,35.468L214.66,40.467" style="fill:none;stroke:#000000;stroke-width:0.625" />
<path d="M523.71,35.468L523.71,40.467" style="fill:none;stroke:#000000;stroke-width:0.625" />
<path d="M832.76,35.468L832.76,40.467" style="fill:none;stroke:#000000;stroke-width:0.625" />
<path d="M60.137,40.467L1080,40.467" style="fill:none;stroke:#000000;stroke-width:0.625" />
<g transform="rotate(90)">
<text x="305.89" y="13.59" transform="scale(1, -1)"
	style="font-family:Helvetica;font-weight:normal;font-style:normal;font-size:12pt">Latency(millisecond)</text>
</g>
<text x="18.555" y="-199.98" transform="scale(1, -1)"
	style="font-family:Helvetica;font-weight:normal;font-style:normal;font-size:10pt">120</text>
<text x="18.555" y="-411.38" transform="scale(1, -1)"
	style="font-family:Helvetica;font-weight:normal;font-style:normal;font-size:10pt">150</text>
<text x="18.555" y="-622.79" transform="scale(1, -1)"
	style="font-family:Helvetica;font-weight:normal;font-style:normal;font-size:10pt">180</text>
<path d="M42.88,205.34L52.88,205.34" style="fill:none;stroke:#000000;stroke-width:0.625" />
<path d="M42.88,416.75L52.88,416.75" style="fill:none;stroke:#000000;stroke-width:0.625" />
<path d="M42.88,628.16L52.88,628.16" style="fill:none;stroke:#000000;stroke-width:0.625" />
<path d="M47.88,64.407L52.88,64.407" style="fill:none;stroke:#000000;stroke-width:0.625" />
<path d="M47.88,134.88L52.88,134.88" style="fill:none;stroke:#000000;stroke-width:0.625" />
<path d="M47.88,275.81L52.88,275.81" style="fill:none;stroke:#000000;stroke-width:0.625" />
<path d="M47.88,346.28L52.88,346.28" style="fill:none;stroke:#000000;stroke-width:0.625" />
<path d="M47.88,487.22L52.88,487.22" style="fill:none;stroke:#000000;stroke-width:0.625" />
<path d="M47.88,557.69L52.88,557.69" style="fill:none;stroke:#000000;stroke-width:0.625" />
<path d="M47.88,698.62L52.88,698.62" style="fill:none;stroke:#000000;stroke-width:0.625" />
<path d="M52.88,47.03L52.88,701.44" style="fill:none;stroke:#000000;stroke-width:0.625" />
<path d="M60.137,47.03L75.59,582.21L91.042,597.77L106.49,439.64L121.95,277.25L137.4,268.75L152.85,255.29L168.3,290.83L183.76,290.7L199.21,188.64L214.66,235.7L230.11,195.01L245.57,177.64L261.02,190.68L276.47,164.77L291.92,317.74L307.38,194.3L322.83,251.97L338.28,186.36L353.73,290.15L369.19,207.37L384.64,191.49L400.09,160.18L415.54,275.08L431,193.96L446.45,268.08L461.9,377.75L477.35,356.88L492.81,216.77L508.26,332.21L523.71,295.86L539.16,386.98L554.62,238.56L570.07,293.68L585.52,291.36L600.97,305.66L616.43,259.34L631.88,399.54L647.33,282.54L662.78,282.58L678.24,306.41L693.69,224.27L709.14,238.73L724.59,311.09L740.05,168.93L755.5,174.65L770.95,315.82L786.4,164.61L801.86,476.84L817.31,141.47L832.76,419.97L848.21,145.23L863.67,308.58L879.12,232.58L894.57,701.44L910.02,432.64L925.48,641.23L940.93,305.25L956.38,509.9L971.83,612.24L987.29,351.71L1002.7,579.91L1018.2,396.46L1033.6,381.86L1049.1,224.89L1064.5,169.44L1080,331.7" style="fill:none;stroke:#F15A60;stroke-width:1.875" />
<path d="M1055,694.3L1080,694.3" style="fill:none;stroke:#F15A60;stroke-width:1.875" />
<text x="959.12" y="-687.85" transform="scale(1, -1)"
	style="font-family:Helvetica;font-weight:normal;font-style:normal;font-size:12pt">Consul v0.6.4</text>
</g>
</svg>
