<?xml version="1.0"?>
<!-- Generated by SVGo and Plotinum VG -->
<svg width="12in" height="8in"
	xmlns="http://www.w3.org/2000/svg"
	xmlns:xlink="http://www.w3.org/1999/xlink">
<g transform="scale(1, -1) translate(0, -720)">
<path d="M0,0L1080,0L1080,720L0,720Z" style="fill:#FFFFFF" />
<text x="251.99" y="-706.41" transform="scale(1, -1)"
	style="font-family:Helvetica;font-weight:normal;font-style:normal;font-size:12pt">Write 500K keys, 1000-client, 8-byte key, 256-byte value (Consul v0.6.4), Memory(MB)</text>
<text x="544.64" y="-4.965" transform="scale(1, -1)"
	style="font-family:Helvetica;font-weight:normal;font-style:normal;font-size:12pt">Second</text>
<text x="56.662" y="-19.142" transform="scale(1, -1)"
	style="font-family:Helvetica;font-weight:normal;font-style:normal;font-size:10pt">0</text>
<text x="366.99" y="-19.142" transform="scale(1, -1)"
	style="font-family:Helvetica;font-weight:normal;font-style:normal;font-size:10pt">20</text>
<text x="680.8" y="-19.142" transform="scale(1, -1)"
	style="font-family:Helvetica;font-weight:normal;font-style:normal;font-size:10pt">40</text>
<text x="994.6" y="-19.142" transform="scale(1, -1)"
	style="font-family:Helvetica;font-weight:normal;font-style:normal;font-size:10pt">60</text>
<path d="M60.137,30.467L60.137,40.467" style="fill:none;stroke:#000000;stroke-width:0.625" />
<path d="M373.94,30.467L373.94,40.467" style="fill:none;stroke:#000000;stroke-width:0.625" />
<path d="M687.75,30.467L687.75,40.467" style="fill:none;stroke:#000000;stroke-width:0.625" />
<path d="M1001.5,30.467L1001.5,40.467" style="fill:none;stroke:#000000;stroke-width:0.625" />
<path d="M217.04,35.468L217.04,40.467" style="fill:none;stroke:#000000;stroke-width:0.625" />
<path d="M530.84,35.468L530.84,40.467" style="fill:none;stroke:#000000;stroke-width:0.625" />
<path d="M844.65,35.468L844.65,40.467" style="fill:none;stroke:#000000;stroke-width:0.625" />
<path d="M60.137,40.467L1080,40.467" style="fill:none;stroke:#000000;stroke-width:0.625" />
<g transform="rotate(90)">
<text x="330.91" y="13.59" transform="scale(1, -1)"
	style="font-family:Helvetica;font-weight:normal;font-style:normal;font-size:12pt">Memory(MB)</text>
</g>
<text x="18.555" y="-189.13" transform="scale(1, -1)"
	style="font-family:Helvetica;font-weight:normal;font-style:normal;font-size:10pt">200</text>
<text x="18.555" y="-349.21" transform="scale(1, -1)"
	style="font-family:Helvetica;font-weight:normal;font-style:normal;font-size:10pt">400</text>
<text x="18.555" y="-509.3" transform="scale(1, -1)"
	style="font-family:Helvetica;font-weight:normal;font-style:normal;font-size:10pt">600</text>
<text x="18.555" y="-669.38" transform="scale(1, -1)"
	style="font-family:Helvetica;font-weight:normal;font-style:normal;font-size:10pt">800</text>
<path d="M42.88,194.5L52.88,194.5" style="fill:none;stroke:#000000;stroke-width:0.625" />
<path d="M42.88,354.58L52.88,354.58" style="fill:none;stroke:#000000;stroke-width:0.625" />
<path d="M42.88,514.67L52.88,514.67" style="fill:none;stroke:#000000;stroke-width:0.625" />
<path d="M42.88,674.75L52.88,674.75" style="fill:none;stroke:#000000;stroke-width:0.625" />
<path d="M47.88,114.46L52.88,114.46" style="fill:none;stroke:#000000;stroke-width:0.625" />
<path d="M47.88,274.54L52.88,274.54" style="fill:none;stroke:#000000;stroke-width:0.625" />
<path d="M47.88,434.63L52.88,434.63" style="fill:none;stroke:#000000;stroke-width:0.625" />
<path d="M47.88,594.71L52.88,594.71" style="fill:none;stroke:#000000;stroke-width:0.625" />
<path d="M52.88,47.03L52.88,701.44" style="fill:none;stroke:#000000;stroke-width:0.625" />
<path d="M60.137,47.03L75.828,73.796L91.518,80.936L107.21,87.531L122.9,99.842L138.59,103.16L154.28,116.07L169.97,129.58L185.66,142.7L201.35,134.9L217.04,151.4L232.73,165.85L248.42,178.67L264.11,193.43L279.8,210.8L295.49,222.44L311.18,236.59L326.87,206.58L342.56,221.98L358.25,235.78L373.94,247.46L389.63,265.19L405.32,275.88L421.01,286.26L436.7,299.79L452.39,313.76L468.08,327.46L483.77,342.7L499.46,354.76L515.15,361.74L530.84,369.94L546.53,385.58L562.22,402.28L577.91,413.09L593.6,394.36L609.29,350.49L624.98,367.35L640.67,370.92L656.36,387.42L672.05,399.69L687.75,405.19L703.44,420.42L719.13,435.03L734.82,442.27L750.51,462.94L766.2,471.25L781.89,486.05L797.58,500.06L813.27,509.66L828.96,524.1L844.65,537.89L860.34,548.51L876.03,564.65L891.72,574.46L907.41,589.67L923.1,590.88L938.79,606.57L954.48,617.74L970.17,627.08L985.86,642.61L1001.5,644.82L1017.2,655.81L1032.9,672.33L1048.6,674.21L1064.3,691.26L1080,701.44" style="fill:none;stroke:#F15A60;stroke-width:1.875" />
<path d="M1055,694.3L1080,694.3" style="fill:none;stroke:#F15A60;stroke-width:1.875" />
<text x="959.12" y="-687.85" transform="scale(1, -1)"
	style="font-family:Helvetica;font-weight:normal;font-style:normal;font-size:12pt">Consul v0.6.4</text>
</g>
</svg>
