<?xml version="1.0"?>
<!-- Generated by SVGo and Plotinum VG -->
<svg width="12in" height="8in"
	xmlns="http://www.w3.org/2000/svg"
	xmlns:xlink="http://www.w3.org/1999/xlink">
<g transform="scale(1, -1) translate(0, -720)">
<path d="M0,0L1080,0L1080,720L0,720Z" style="fill:#FFFFFF" />
<text x="279.48" y="-706.41" transform="scale(1, -1)"
	style="font-family:Helvetica;font-weight:normal;font-style:normal;font-size:12pt">Write 500K keys, 1000-client, 8-byte key, 256-byte value (Consul v0.6.4), CPU</text>
<text x="544.64" y="-4.965" transform="scale(1, -1)"
	style="font-family:Helvetica;font-weight:normal;font-style:normal;font-size:12pt">Second</text>
<text x="56.662" y="-19.142" transform="scale(1, -1)"
	style="font-family:Helvetica;font-weight:normal;font-style:normal;font-size:10pt">0</text>
<text x="366.99" y="-19.142" transform="scale(1, -1)"
	style="font-family:Helvetica;font-weight:normal;font-style:normal;font-size:10pt">20</text>
<text x="680.8" y="-19.142" transform="scale(1, -1)"
	style="font-family:Helvetica;font-weight:normal;font-style:normal;font-size:10pt">40</text>
<text x="994.6" y="-19.142" transform="scale(1, -1)"
	style="font-family:Helvetica;font-weight:normal;font-style:normal;font-size:10pt">60</text>
<path d="M60.137,30.467L60.137,40.467" style="fill:none;stroke:#000000;stroke-width:0.625" />
<path d="M373.94,30.467L373.94,40.467" style="fill:none;stroke:#000000;stroke-width:0.625" />
<path d="M687.75,30.467L687.75,40.467" style="fill:none;stroke:#000000;stroke-width:0.625" />
<path d="M1001.5,30.467L1001.5,40.467" style="fill:none;stroke:#000000;stroke-width:0.625" />
<path d="M217.04,35.468L217.04,40.467" style="fill:none;stroke:#000000;stroke-width:0.625" />
<path d="M530.84,35.468L530.84,40.467" style="fill:none;stroke:#000000;stroke-width:0.625" />
<path d="M844.65,35.468L844.65,40.467" style="fill:none;stroke:#000000;stroke-width:0.625" />
<path d="M60.137,40.467L1080,40.467" style="fill:none;stroke:#000000;stroke-width:0.625" />
<g transform="rotate(90)">
<text x="358.4" y="13.59" transform="scale(1, -1)"
	style="font-family:Helvetica;font-weight:normal;font-style:normal;font-size:12pt">CPU</text>
</g>
<text x="25.505" y="-234.74" transform="scale(1, -1)"
	style="font-family:Helvetica;font-weight:normal;font-style:normal;font-size:10pt">60</text>
<text x="18.555" y="-434.86" transform="scale(1, -1)"
	style="font-family:Helvetica;font-weight:normal;font-style:normal;font-size:10pt">120</text>
<text x="18.555" y="-634.97" transform="scale(1, -1)"
	style="font-family:Helvetica;font-weight:normal;font-style:normal;font-size:10pt">180</text>
<path d="M42.88,240.11L52.88,240.11" style="fill:none;stroke:#000000;stroke-width:0.625" />
<path d="M42.88,440.23L52.88,440.23" style="fill:none;stroke:#000000;stroke-width:0.625" />
<path d="M42.88,640.34L52.88,640.34" style="fill:none;stroke:#000000;stroke-width:0.625" />
<path d="M47.88,106.7L52.88,106.7" style="fill:none;stroke:#000000;stroke-width:0.625" />
<path d="M47.88,173.4L52.88,173.4" style="fill:none;stroke:#000000;stroke-width:0.625" />
<path d="M47.88,306.81L52.88,306.81" style="fill:none;stroke:#000000;stroke-width:0.625" />
<path d="M47.88,373.52L52.88,373.52" style="fill:none;stroke:#000000;stroke-width:0.625" />
<path d="M47.88,506.93L52.88,506.93" style="fill:none;stroke:#000000;stroke-width:0.625" />
<path d="M47.88,573.64L52.88,573.64" style="fill:none;stroke:#000000;stroke-width:0.625" />
<path d="M52.88,47.03L52.88,701.44" style="fill:none;stroke:#000000;stroke-width:0.625" />
<path d="M60.137,47.03L75.828,124.24L91.518,181.27L107.21,229.27L122.9,277.83L138.59,317.72L154.28,352.14L169.97,382.19L185.66,408.74L201.35,433.36L217.04,455.13L232.73,475.31L248.42,494.12L264.11,512.13L279.8,529.18L295.49,539.82L311.18,552.66L326.87,562.83L342.56,574.7L358.25,583.64L373.94,591.95L389.63,601.55L405.32,607.92L421.01,613.16L436.7,618.96L452.39,624.57L468.08,628.47L483.77,632.54L499.46,635.77L515.15,637.27L530.84,641.74L546.53,646.05L562.22,650.62L577.91,650.98L593.6,655.89L609.29,660.82L624.98,664.49L640.67,664.76L656.36,668.66L672.05,670.29L687.75,671.63L703.44,675.3L719.13,677.76L734.82,679.37L750.51,682.73L766.2,684.34L781.89,688.44L797.58,689.67L813.27,691.61L828.96,692.74L844.65,694.61L860.34,696.11L876.03,698.68L891.72,700.08L907.41,701.44L923.1,698.84L938.79,698.04L954.48,699.14L970.17,697.64L985.86,697.98L1001.5,697.54L1017.2,697.31L1032.9,698.14L1048.6,696.61L1064.3,698.74L1080,699.81" style="fill:none;stroke:#F15A60;stroke-width:1.875" />
<path d="M1055,694.3L1080,694.3" style="fill:none;stroke:#F15A60;stroke-width:1.875" />
<text x="959.12" y="-687.85" transform="scale(1, -1)"
	style="font-family:Helvetica;font-weight:normal;font-style:normal;font-size:12pt">Consul v0.6.4</text>
</g>
</svg>
