<?xml version="1.0"?>
<!-- Generated by SVGo and Plotinum VG -->
<svg width="12in" height="8in"
	xmlns="http://www.w3.org/2000/svg"
	xmlns:xlink="http://www.w3.org/1999/xlink">
<g transform="scale(1, -1) translate(0, -720)">
<path d="M0,0L1080,0L1080,720L0,720Z" style="fill:#FFFFFF" />
<text x="256.96" y="-706.41" transform="scale(1, -1)"
	style="font-family:Helvetica;font-weight:normal;font-style:normal;font-size:12pt">Write 500K keys, 1000-client, 8-byte key, 256-byte value (Consul v0.6.4), Throughput</text>
<text x="548.11" y="-4.965" transform="scale(1, -1)"
	style="font-family:Helvetica;font-weight:normal;font-style:normal;font-size:12pt">Second</text>
<text x="63.613" y="-19.142" transform="scale(1, -1)"
	style="font-family:Helvetica;font-weight:normal;font-style:normal;font-size:10pt">0</text>
<text x="367.08" y="-19.142" transform="scale(1, -1)"
	style="font-family:Helvetica;font-weight:normal;font-style:normal;font-size:10pt">20</text>
<text x="674.02" y="-19.142" transform="scale(1, -1)"
	style="font-family:Helvetica;font-weight:normal;font-style:normal;font-size:10pt">40</text>
<text x="980.97" y="-19.142" transform="scale(1, -1)"
	style="font-family:Helvetica;font-weight:normal;font-style:normal;font-size:10pt">60</text>
<path d="M67.088,30.467L67.088,40.467" style="fill:none;stroke:#000000;stroke-width:0.625" />
<path d="M374.03,30.467L374.03,40.467" style="fill:none;stroke:#000000;stroke-width:0.625" />
<path d="M680.97,30.467L680.97,40.467" style="fill:none;stroke:#000000;stroke-width:0.625" />
<path d="M987.92,30.467L987.92,40.467" style="fill:none;stroke:#000000;stroke-width:0.625" />
<path d="M220.56,35.468L220.56,40.467" style="fill:none;stroke:#000000;stroke-width:0.625" />
<path d="M527.5,35.468L527.5,40.467" style="fill:none;stroke:#000000;stroke-width:0.625" />
<path d="M834.45,35.468L834.45,40.467" style="fill:none;stroke:#000000;stroke-width:0.625" />
<path d="M67.088,40.467L1080,40.467" style="fill:none;stroke:#000000;stroke-width:0.625" />
<g transform="rotate(90)">
<text x="335.88" y="13.59" transform="scale(1, -1)"
	style="font-family:Helvetica;font-weight:normal;font-style:normal;font-size:12pt">Throughput</text>
</g>
<text x="18.555" y="-230.63" transform="scale(1, -1)"
	style="font-family:Helvetica;font-weight:normal;font-style:normal;font-size:10pt">3000</text>
<text x="18.555" y="-444.4" transform="scale(1, -1)"
	style="font-family:Helvetica;font-weight:normal;font-style:normal;font-size:10pt">6000</text>
<text x="18.555" y="-658.17" transform="scale(1, -1)"
	style="font-family:Helvetica;font-weight:normal;font-style:normal;font-size:10pt">9000</text>
<path d="M49.83,236L59.83,236" style="fill:none;stroke:#000000;stroke-width:0.625" />
<path d="M49.83,449.77L59.83,449.77" style="fill:none;stroke:#000000;stroke-width:0.625" />
<path d="M49.83,663.54L59.83,663.54" style="fill:none;stroke:#000000;stroke-width:0.625" />
<path d="M54.83,93.489L59.83,93.489" style="fill:none;stroke:#000000;stroke-width:0.625" />
<path d="M54.83,164.74L59.83,164.74" style="fill:none;stroke:#000000;stroke-width:0.625" />
<path d="M54.83,307.26L59.83,307.26" style="fill:none;stroke:#000000;stroke-width:0.625" />
<path d="M54.83,378.51L59.83,378.51" style="fill:none;stroke:#000000;stroke-width:0.625" />
<path d="M54.83,521.02L59.83,521.02" style="fill:none;stroke:#000000;stroke-width:0.625" />
<path d="M54.83,592.28L59.83,592.28" style="fill:none;stroke:#000000;stroke-width:0.625" />
<path d="M59.83,47.03L59.83,701.44" style="fill:none;stroke:#000000;stroke-width:0.625" />
<path d="M67.088,47.03L82.435,427.18L97.782,424.69L113.13,500.86L128.48,566.13L143.82,597.2L159.17,576.25L174.52,556.51L189.86,559.5L205.21,630.97L220.56,591.21L235.91,638.38L251.25,630.55L266.6,624.2L281.95,644.73L297.29,530.86L312.64,642.3L327.99,587.29L343.34,627.55L358.68,539.55L374.03,636.25L389.38,634.54L404.73,642.45L420.07,578.53L435.42,621.07L450.77,565.99L466.11,520.67L481.46,508.84L496.81,579.31L512.16,581.66L527.5,549.53L542.85,510.19L558.2,599.05L573.54,563.07L588.89,555.37L604.24,552.81L619.59,585.65L634.93,504.21L650.28,547.53L665.63,586.58L680.97,550.17L696.32,566.7L711.67,621.57L727.02,537.56L742.36,605.46L757.71,701.44L773.06,540.69L788.4,649.64L803.75,469.58L819.1,669.09L834.45,486.68L849.79,626.48L865.14,592.78L880.49,512.83L895.83,433.88L911.18,496.51L926.53,428.04L941.88,542.76L957.22,392.55L972.57,490.24L987.92,515.4L1003.3,439.29L1018.6,505.21L1034,502L1049.3,626.55L1064.7,627.13L1080,542.12" style="fill:none;stroke:#F15A60;stroke-width:1.875" />
<path d="M1055,694.3L1080,694.3" style="fill:none;stroke:#F15A60;stroke-width:1.875" />
<text x="959.12" y="-687.85" transform="scale(1, -1)"
	style="font-family:Helvetica;font-weight:normal;font-style:normal;font-size:12pt">Consul v0.6.4</text>
</g>
</svg>
