<?xml version="1.0"?>
<!-- Generated by SVGo and Plotinum VG -->
<svg width="12in" height="8in"
	xmlns="http://www.w3.org/2000/svg"
	xmlns:xlink="http://www.w3.org/1999/xlink">
<g transform="scale(1, -1) translate(0, -720)">
<path d="M0,0L1080,0L1080,720L0,720Z" style="fill:#FFFFFF" />
<text x="261.56" y="-706.41" transform="scale(1, -1)"
	style="font-family:Helvetica;font-weight:normal;font-style:normal;font-size:12pt">Write 1M keys, 1000-client, 8-byte key, 256-byte value (Consul v0.6.4, Test 1), CPU</text>
<text x="544.64" y="-4.965" transform="scale(1, -1)"
	style="font-family:Helvetica;font-weight:normal;font-style:normal;font-size:12pt">Second</text>
<text x="56.662" y="-19.142" transform="scale(1, -1)"
	style="font-family:Helvetica;font-weight:normal;font-style:normal;font-size:10pt">0</text>
<text x="316.95" y="-19.142" transform="scale(1, -1)"
	style="font-family:Helvetica;font-weight:normal;font-style:normal;font-size:10pt">30</text>
<text x="580.7" y="-19.142" transform="scale(1, -1)"
	style="font-family:Helvetica;font-weight:normal;font-style:normal;font-size:10pt">60</text>
<text x="844.46" y="-19.142" transform="scale(1, -1)"
	style="font-family:Helvetica;font-weight:normal;font-style:normal;font-size:10pt">90</text>
<path d="M60.137,30.467L60.137,40.467" style="fill:none;stroke:#000000;stroke-width:0.625" />
<path d="M323.9,30.467L323.9,40.467" style="fill:none;stroke:#000000;stroke-width:0.625" />
<path d="M587.65,30.467L587.65,40.467" style="fill:none;stroke:#000000;stroke-width:0.625" />
<path d="M851.41,30.467L851.41,40.467" style="fill:none;stroke:#000000;stroke-width:0.625" />
<path d="M148.06,35.468L148.06,40.467" style="fill:none;stroke:#000000;stroke-width:0.625" />
<path d="M235.98,35.468L235.98,40.467" style="fill:none;stroke:#000000;stroke-width:0.625" />
<path d="M411.81,35.468L411.81,40.467" style="fill:none;stroke:#000000;stroke-width:0.625" />
<path d="M499.73,35.468L499.73,40.467" style="fill:none;stroke:#000000;stroke-width:0.625" />
<path d="M675.57,35.468L675.57,40.467" style="fill:none;stroke:#000000;stroke-width:0.625" />
<path d="M763.49,35.468L763.49,40.467" style="fill:none;stroke:#000000;stroke-width:0.625" />
<path d="M939.33,35.468L939.33,40.467" style="fill:none;stroke:#000000;stroke-width:0.625" />
<path d="M1027.2,35.468L1027.2,40.467" style="fill:none;stroke:#000000;stroke-width:0.625" />
<path d="M60.137,40.467L1080,40.467" style="fill:none;stroke:#000000;stroke-width:0.625" />
<g transform="rotate(90)">
<text x="358.4" y="13.59" transform="scale(1, -1)"
	style="font-family:Helvetica;font-weight:normal;font-style:normal;font-size:12pt">CPU</text>
</g>
<text x="25.505" y="-209.23" transform="scale(1, -1)"
	style="font-family:Helvetica;font-weight:normal;font-style:normal;font-size:10pt">60</text>
<text x="18.555" y="-382.91" transform="scale(1, -1)"
	style="font-family:Helvetica;font-weight:normal;font-style:normal;font-size:10pt">120</text>
<text x="18.555" y="-556.58" transform="scale(1, -1)"
	style="font-family:Helvetica;font-weight:normal;font-style:normal;font-size:10pt">180</text>
<path d="M42.88,214.6L52.88,214.6" style="fill:none;stroke:#000000;stroke-width:0.625" />
<path d="M42.88,388.28L52.88,388.28" style="fill:none;stroke:#000000;stroke-width:0.625" />
<path d="M42.88,561.95L52.88,561.95" style="fill:none;stroke:#000000;stroke-width:0.625" />
<path d="M47.88,98.815L52.88,98.815" style="fill:none;stroke:#000000;stroke-width:0.625" />
<path d="M47.88,156.71L52.88,156.71" style="fill:none;stroke:#000000;stroke-width:0.625" />
<path d="M47.88,272.49L52.88,272.49" style="fill:none;stroke:#000000;stroke-width:0.625" />
<path d="M47.88,330.38L52.88,330.38" style="fill:none;stroke:#000000;stroke-width:0.625" />
<path d="M47.88,446.17L52.88,446.17" style="fill:none;stroke:#000000;stroke-width:0.625" />
<path d="M47.88,504.06L52.88,504.06" style="fill:none;stroke:#000000;stroke-width:0.625" />
<path d="M47.88,619.85L52.88,619.85" style="fill:none;stroke:#000000;stroke-width:0.625" />
<path d="M47.88,677.74L52.88,677.74" style="fill:none;stroke:#000000;stroke-width:0.625" />
<path d="M52.88,47.03L52.88,701.44" style="fill:none;stroke:#000000;stroke-width:0.625" />
<path d="M60.137,47.03L68.929,136.5L77.721,200.62L86.513,259.64L95.305,308.18L104.1,342.11L112.89,371.95L121.68,397.86L130.47,419.39L139.26,436.04L148.06,454.27L156.85,470.8L165.64,485.3L174.43,501.02L183.22,513.03L192.02,523.6L200.81,536.51L209.6,544.53L218.39,553.39L227.18,562.76L235.98,569.16L244.77,574.86L253.56,581.81L262.35,587.37L271.14,591.51L279.94,597.62L288.73,602.97L297.52,606.99L306.31,612.87L315.1,616.43L323.9,621.24L332.69,625.46L341.48,628.38L350.27,631.45L359.06,633.83L367.85,637.73L376.65,639.7L385.44,641.73L394.23,645.49L403.02,647.23L411.81,648.88L420.61,652.38L429.4,653.51L438.19,656.78L446.98,658.6L455.77,659.39L464.57,661.79L473.36,664.16L482.15,664.63L490.94,664.65L499.73,665.78L508.53,664.45L517.32,665.41L526.11,665.09L534.9,662.69L543.69,663.61L552.48,664.54L561.28,665.09L570.07,663.76L578.86,663.35L587.65,665.09L596.44,665.67L605.24,668.24L614.03,669.03L622.82,672.24L631.61,672.35L640.4,674.41L649.2,675.86L657.99,675.6L666.78,677.27L675.57,678.14L684.36,678.26L693.16,679.16L701.95,680.46L710.74,680.14L719.53,681.47L728.32,682.51L737.12,682.49L745.91,685.21L754.7,685L763.49,684.69L772.28,687.15L781.07,687.15L789.87,686.57L798.66,688.88L807.45,689.81L816.24,689.92L825.03,691.05L833.83,692.3L842.62,692.24L851.41,693.08L860.2,694.7L868.99,694.85L877.79,694.06L886.58,696L895.37,694.56L904.16,694.32L912.95,693.89L921.75,696.38L930.54,696.03L939.33,695.74L948.12,696.52L956.91,698L965.71,697.94L974.5,697.77L983.29,698.9L992.08,700.4L1000.9,700.72L1009.7,699.82L1018.5,699.04L1027.2,701.44L1036,701.36L1044.8,699.91L1053.6,699.22L1062.4,699.39L1071.2,698.67L1080,699.71" style="fill:none;stroke:#F15A60;stroke-width:1.875" />
<path d="M1055,694.3L1080,694.3" style="fill:none;stroke:#F15A60;stroke-width:1.875" />
<text x="959.12" y="-687.85" transform="scale(1, -1)"
	style="font-family:Helvetica;font-weight:normal;font-style:normal;font-size:12pt">Consul v0.6.4</text>
</g>
</svg>
