<?xml version="1.0"?>
<!-- Generated by SVGo and Plotinum VG -->
<svg width="12in" height="8in"
	xmlns="http://www.w3.org/2000/svg"
	xmlns:xlink="http://www.w3.org/1999/xlink">
<g transform="scale(1, -1) translate(0, -720)">
<path d="M0,0L1080,0L1080,720L0,720Z" style="fill:#FFFFFF" />
<text x="234.07" y="-706.41" transform="scale(1, -1)"
	style="font-family:Helvetica;font-weight:normal;font-style:normal;font-size:12pt">Write 1M keys, 1000-client, 8-byte key, 256-byte value (Consul v0.6.4, Test 1), Memory(MB)</text>
<text x="548.11" y="-4.965" transform="scale(1, -1)"
	style="font-family:Helvetica;font-weight:normal;font-style:normal;font-size:12pt">Second</text>
<text x="63.613" y="-19.142" transform="scale(1, -1)"
	style="font-family:Helvetica;font-weight:normal;font-style:normal;font-size:10pt">0</text>
<text x="322.1" y="-19.142" transform="scale(1, -1)"
	style="font-family:Helvetica;font-weight:normal;font-style:normal;font-size:10pt">30</text>
<text x="584.06" y="-19.142" transform="scale(1, -1)"
	style="font-family:Helvetica;font-weight:normal;font-style:normal;font-size:10pt">60</text>
<text x="846.02" y="-19.142" transform="scale(1, -1)"
	style="font-family:Helvetica;font-weight:normal;font-style:normal;font-size:10pt">90</text>
<path d="M67.088,30.467L67.088,40.467" style="fill:none;stroke:#000000;stroke-width:0.625" />
<path d="M329.05,30.467L329.05,40.467" style="fill:none;stroke:#000000;stroke-width:0.625" />
<path d="M591.01,30.467L591.01,40.467" style="fill:none;stroke:#000000;stroke-width:0.625" />
<path d="M852.97,30.467L852.97,40.467" style="fill:none;stroke:#000000;stroke-width:0.625" />
<path d="M154.41,35.468L154.41,40.467" style="fill:none;stroke:#000000;stroke-width:0.625" />
<path d="M241.73,35.468L241.73,40.467" style="fill:none;stroke:#000000;stroke-width:0.625" />
<path d="M416.37,35.468L416.37,40.467" style="fill:none;stroke:#000000;stroke-width:0.625" />
<path d="M503.69,35.468L503.69,40.467" style="fill:none;stroke:#000000;stroke-width:0.625" />
<path d="M678.33,35.468L678.33,40.467" style="fill:none;stroke:#000000;stroke-width:0.625" />
<path d="M765.65,35.468L765.65,40.467" style="fill:none;stroke:#000000;stroke-width:0.625" />
<path d="M940.29,35.468L940.29,40.467" style="fill:none;stroke:#000000;stroke-width:0.625" />
<path d="M1027.6,35.468L1027.6,40.467" style="fill:none;stroke:#000000;stroke-width:0.625" />
<path d="M67.088,40.467L1080,40.467" style="fill:none;stroke:#000000;stroke-width:0.625" />
<g transform="rotate(90)">
<text x="330.91" y="13.59" transform="scale(1, -1)"
	style="font-family:Helvetica;font-weight:normal;font-style:normal;font-size:12pt">Memory(MB)</text>
</g>
<text x="25.505" y="-235.43" transform="scale(1, -1)"
	style="font-family:Helvetica;font-weight:normal;font-style:normal;font-size:10pt">500</text>
<text x="18.555" y="-435.98" transform="scale(1, -1)"
	style="font-family:Helvetica;font-weight:normal;font-style:normal;font-size:10pt">1000</text>
<text x="18.555" y="-636.53" transform="scale(1, -1)"
	style="font-family:Helvetica;font-weight:normal;font-style:normal;font-size:10pt">1500</text>
<path d="M49.83,240.8L59.83,240.8" style="fill:none;stroke:#000000;stroke-width:0.625" />
<path d="M49.83,441.35L59.83,441.35" style="fill:none;stroke:#000000;stroke-width:0.625" />
<path d="M49.83,641.9L59.83,641.9" style="fill:none;stroke:#000000;stroke-width:0.625" />
<path d="M54.83,80.358L59.83,80.358" style="fill:none;stroke:#000000;stroke-width:0.625" />
<path d="M54.83,120.47L59.83,120.47" style="fill:none;stroke:#000000;stroke-width:0.625" />
<path d="M54.83,160.58L59.83,160.58" style="fill:none;stroke:#000000;stroke-width:0.625" />
<path d="M54.83,200.69L59.83,200.69" style="fill:none;stroke:#000000;stroke-width:0.625" />
<path d="M54.83,280.91L59.83,280.91" style="fill:none;stroke:#000000;stroke-width:0.625" />
<path d="M54.83,321.02L59.83,321.02" style="fill:none;stroke:#000000;stroke-width:0.625" />
<path d="M54.83,361.13L59.83,361.13" style="fill:none;stroke:#000000;stroke-width:0.625" />
<path d="M54.83,401.24L59.83,401.24" style="fill:none;stroke:#000000;stroke-width:0.625" />
<path d="M54.83,481.46L59.83,481.46" style="fill:none;stroke:#000000;stroke-width:0.625" />
<path d="M54.83,521.57L59.83,521.57" style="fill:none;stroke:#000000;stroke-width:0.625" />
<path d="M54.83,561.68L59.83,561.68" style="fill:none;stroke:#000000;stroke-width:0.625" />
<path d="M54.83,601.79L59.83,601.79" style="fill:none;stroke:#000000;stroke-width:0.625" />
<path d="M54.83,682.01L59.83,682.01" style="fill:none;stroke:#000000;stroke-width:0.625" />
<path d="M59.83,47.03L59.83,701.44" style="fill:none;stroke:#000000;stroke-width:0.625" />
<path d="M67.088,47.03L75.82,61.454L84.552,66.327L93.284,74.73L102.02,77.927L110.75,84.874L119.48,92.158L128.21,100.04L136.94,95.283L145.68,102.46L154.41,110.06L163.14,116.83L171.87,124.52L180.6,133.49L189.34,140.8L198.07,127.03L206.8,134.94L215.53,141.07L224.26,150.11L233,158.02L241.73,164.65L250.46,171.62L259.19,180.03L267.92,188.58L276.66,195.17L285.39,202.99L294.12,210.9L302.85,219.41L311.58,227.75L320.32,235.53L329.05,199.89L337.78,206.09L346.51,215.07L355.24,221.84L363.98,228.45L372.71,236.1L381.44,242.64L390.17,249.93L398.9,257.38L407.64,264.01L416.37,270.04L425.1,279.58L433.83,284.03L442.56,291.3L451.3,299.02L460.03,303.85L468.76,312.25L477.49,321.15L486.22,327.58L494.96,334.2L503.69,339.6L512.42,344.42L521.15,353.05L529.88,357.7L538.62,362.71L547.35,368.87L556.08,374.24L564.81,382.91L573.54,387.43L582.28,398.16L591.01,371.27L599.74,319.31L608.47,328.19L617.2,330.75L625.94,345.76L634.67,347.54L643.4,357.38L652.13,363.87L660.86,370.11L669.6,377.58L678.33,383.37L687.06,388.98L695.79,399.7L704.52,406.06L713.26,411.85L721.99,421.19L730.72,427.17L739.45,433.64L748.18,445.74L756.92,447.35L765.65,454.87L774.38,466.68L783.11,468.73L791.84,476.29L800.58,487.97L809.31,491.11L818.04,498.8L826.77,509.59L835.5,511.83L844.24,520.57L852.97,528.53L861.7,536.62L870.43,544.64L879.16,547.74L887.9,560.1L896.63,562.95L905.36,569.61L914.09,577.1L922.82,585.82L931.56,593.6L940.29,594.24L949.02,603.32L957.75,611.17L966.48,619.05L975.22,620.59L983.95,628.5L992.68,641.1L1001.4,644.76L1010.1,647.14L1018.9,655.94L1027.6,669.77L1036.3,672.9L1045.1,674.25L1053.8,676.76L1062.5,685.3L1071.3,700.23L1080,701.44" style="fill:none;stroke:#F15A60;stroke-width:1.875" />
<path d="M1055,694.3L1080,694.3" style="fill:none;stroke:#F15A60;stroke-width:1.875" />
<text x="959.12" y="-687.85" transform="scale(1, -1)"
	style="font-family:Helvetica;font-weight:normal;font-style:normal;font-size:12pt">Consul v0.6.4</text>
</g>
</svg>
