<?xml version="1.0"?>
<!-- Generated by SVGo and Plotinum VG -->
<svg width="12in" height="8in"
	xmlns="http://www.w3.org/2000/svg"
	xmlns:xlink="http://www.w3.org/1999/xlink">
<g transform="scale(1, -1) translate(0, -720)">
<path d="M0,0L1080,0L1080,720L0,720Z" style="fill:#FFFFFF" />
<text x="209.05" y="-706.41" transform="scale(1, -1)"
	style="font-family:Helvetica;font-weight:normal;font-style:normal;font-size:12pt">Write 1M keys, 1000-client, 8-byte key, 256-byte value (Consul v0.6.4, Test 1), Latency(millisecond)</text>
<text x="544.64" y="-4.965" transform="scale(1, -1)"
	style="font-family:Helvetica;font-weight:normal;font-style:normal;font-size:12pt">Second</text>
<text x="56.662" y="-19.142" transform="scale(1, -1)"
	style="font-family:Helvetica;font-weight:normal;font-style:normal;font-size:10pt">0</text>
<text x="314.69" y="-19.142" transform="scale(1, -1)"
	style="font-family:Helvetica;font-weight:normal;font-style:normal;font-size:10pt">30</text>
<text x="576.19" y="-19.142" transform="scale(1, -1)"
	style="font-family:Helvetica;font-weight:normal;font-style:normal;font-size:10pt">60</text>
<text x="837.7" y="-19.142" transform="scale(1, -1)"
	style="font-family:Helvetica;font-weight:normal;font-style:normal;font-size:10pt">90</text>
<path d="M60.137,30.467L60.137,40.467" style="fill:none;stroke:#000000;stroke-width:0.625" />
<path d="M321.64,30.467L321.64,40.467" style="fill:none;stroke:#000000;stroke-width:0.625" />
<path d="M583.14,30.467L583.14,40.467" style="fill:none;stroke:#000000;stroke-width:0.625" />
<path d="M844.65,30.467L844.65,40.467" style="fill:none;stroke:#000000;stroke-width:0.625" />
<path d="M147.31,35.468L147.31,40.467" style="fill:none;stroke:#000000;stroke-width:0.625" />
<path d="M234.47,35.468L234.47,40.467" style="fill:none;stroke:#000000;stroke-width:0.625" />
<path d="M408.81,35.468L408.81,40.467" style="fill:none;stroke:#000000;stroke-width:0.625" />
<path d="M495.98,35.468L495.98,40.467" style="fill:none;stroke:#000000;stroke-width:0.625" />
<path d="M670.31,35.468L670.31,40.467" style="fill:none;stroke:#000000;stroke-width:0.625" />
<path d="M757.48,35.468L757.48,40.467" style="fill:none;stroke:#000000;stroke-width:0.625" />
<path d="M931.81,35.468L931.81,40.467" style="fill:none;stroke:#000000;stroke-width:0.625" />
<path d="M1019,35.468L1019,40.467" style="fill:none;stroke:#000000;stroke-width:0.625" />
<path d="M60.137,40.467L1080,40.467" style="fill:none;stroke:#000000;stroke-width:0.625" />
<g transform="rotate(90)">
<text x="305.89" y="13.59" transform="scale(1, -1)"
	style="font-family:Helvetica;font-weight:normal;font-style:normal;font-size:12pt">Latency(millisecond)</text>
</g>
<text x="18.555" y="-186.94" transform="scale(1, -1)"
	style="font-family:Helvetica;font-weight:normal;font-style:normal;font-size:10pt">120</text>
<text x="18.555" y="-354.09" transform="scale(1, -1)"
	style="font-family:Helvetica;font-weight:normal;font-style:normal;font-size:10pt">150</text>
<text x="18.555" y="-521.25" transform="scale(1, -1)"
	style="font-family:Helvetica;font-weight:normal;font-style:normal;font-size:10pt">180</text>
<text x="18.555" y="-688.4" transform="scale(1, -1)"
	style="font-family:Helvetica;font-weight:normal;font-style:normal;font-size:10pt">210</text>
<path d="M42.88,192.31L52.88,192.31" style="fill:none;stroke:#000000;stroke-width:0.625" />
<path d="M42.88,359.46L52.88,359.46" style="fill:none;stroke:#000000;stroke-width:0.625" />
<path d="M42.88,526.61L52.88,526.61" style="fill:none;stroke:#000000;stroke-width:0.625" />
<path d="M42.88,693.77L52.88,693.77" style="fill:none;stroke:#000000;stroke-width:0.625" />
<path d="M47.88,80.872L52.88,80.872" style="fill:none;stroke:#000000;stroke-width:0.625" />
<path d="M47.88,136.59L52.88,136.59" style="fill:none;stroke:#000000;stroke-width:0.625" />
<path d="M47.88,248.03L52.88,248.03" style="fill:none;stroke:#000000;stroke-width:0.625" />
<path d="M47.88,303.74L52.88,303.74" style="fill:none;stroke:#000000;stroke-width:0.625" />
<path d="M47.88,415.18L52.88,415.18" style="fill:none;stroke:#000000;stroke-width:0.625" />
<path d="M47.88,470.9L52.88,470.9" style="fill:none;stroke:#000000;stroke-width:0.625" />
<path d="M47.88,582.33L52.88,582.33" style="fill:none;stroke:#000000;stroke-width:0.625" />
<path d="M47.88,638.05L52.88,638.05" style="fill:none;stroke:#000000;stroke-width:0.625" />
<path d="M52.88,47.03L52.88,701.44" style="fill:none;stroke:#000000;stroke-width:0.625" />
<path d="M60.137,94.828L68.854,224.29L77.571,121.41L86.288,111.7L95.005,196.36L103.72,190.96L112.44,146.26L121.15,166.64L129.87,295.78L138.59,136.08L147.31,146.41L156.02,212.92L164.74,112.8L173.46,125.26L182.17,178.55L190.89,93.897L199.61,138.49L208.32,184.15L217.04,120.22L225.76,163.6L234.47,193.69L243.19,114.22L251.91,155.23L260.62,204.97L269.34,136.92L278.06,138.56L286.77,162.94L295.49,119.86L304.21,79.827L312.92,177.57L321.64,123.72L330.36,145.02L339.07,144.65L347.79,174.76L356.51,126.91L365.22,133.16L373.94,213.42L382.66,183.01L391.37,105.1L400.09,192.62L408.81,160.22L417.53,145L426.24,144.37L434.96,64.108L443.68,260.73L452.39,106.3L461.11,160.8L469.83,165.94L478.54,228.48L487.26,138.17L495.98,328.7L504.69,288.21L513.41,337.83L522.13,229.33L530.84,375.76L539.56,251.75L548.28,161.64L556.99,502.38L565.71,150.29L574.43,406.56L583.14,108.34L591.86,183.3L600.58,183.76L609.29,63.634L618.01,298.63L626.73,136.8L635.44,211.81L644.16,158.18L652.88,318.12L661.59,154.67L670.31,67.972L679.03,252.19L687.75,173.51L696.46,286.97L705.18,105.5L713.9,162.84L722.61,207.86L731.33,75.683L740.05,304.43L748.76,92.698L757.48,90.916L766.2,259.2L774.91,95.656L783.63,162.94L792.35,154.18L801.06,47.03L809.78,306.06L818.5,86.762L827.21,90.913L835.93,288.21L844.65,106.83L853.36,62.255L862.08,304.29L870.8,135.75L879.51,223.89L888.23,294.78L896.95,425.85L905.66,78.737L914.38,129.18L923.1,293.42L931.81,265.26L940.53,83.144L949.25,184.93L957.97,386.78L966.68,50.307L975.4,123.15L984.12,110.59L992.83,273.79L1001.5,260.63L1010.3,116.68L1019,164.55L1027.7,701.44L1036.4,233.03L1045.1,151.13L1053.8,304.1L1062.6,508.61L1071.3,398.47L1080,178.66" style="fill:none;stroke:#F15A60;stroke-width:1.875" />
<path d="M1055,694.3L1080,694.3" style="fill:none;stroke:#F15A60;stroke-width:1.875" />
<text x="959.12" y="-687.85" transform="scale(1, -1)"
	style="font-family:Helvetica;font-weight:normal;font-style:normal;font-size:12pt">Consul v0.6.4</text>
</g>
</svg>
