<?xml version="1.0"?>
<!-- Generated by SVGo and Plotinum VG -->
<svg width="12in" height="8in"
	xmlns="http://www.w3.org/2000/svg"
	xmlns:xlink="http://www.w3.org/1999/xlink">
<g transform="scale(1, -1) translate(0, -720)">
<path d="M0,0L1080,0L1080,720L0,720Z" style="fill:#FFFFFF" />
<text x="239.04" y="-706.41" transform="scale(1, -1)"
	style="font-family:Helvetica;font-weight:normal;font-style:normal;font-size:12pt">Write 1M keys, 1000-client, 8-byte key, 256-byte value (Consul v0.6.4, Test 1), Throughput</text>
<text x="551.76" y="-4.965" transform="scale(1, -1)"
	style="font-family:Helvetica;font-weight:normal;font-style:normal;font-size:12pt">Second</text>
<text x="70.912" y="-19.142" transform="scale(1, -1)"
	style="font-family:Helvetica;font-weight:normal;font-style:normal;font-size:10pt">0</text>
<text x="325.29" y="-19.142" transform="scale(1, -1)"
	style="font-family:Helvetica;font-weight:normal;font-style:normal;font-size:10pt">30</text>
<text x="583.14" y="-19.142" transform="scale(1, -1)"
	style="font-family:Helvetica;font-weight:normal;font-style:normal;font-size:10pt">60</text>
<text x="840.99" y="-19.142" transform="scale(1, -1)"
	style="font-family:Helvetica;font-weight:normal;font-style:normal;font-size:10pt">90</text>
<path d="M74.388,30.467L74.388,40.467" style="fill:none;stroke:#000000;stroke-width:0.625" />
<path d="M332.24,30.467L332.24,40.467" style="fill:none;stroke:#000000;stroke-width:0.625" />
<path d="M590.09,30.467L590.09,40.467" style="fill:none;stroke:#000000;stroke-width:0.625" />
<path d="M847.94,30.467L847.94,40.467" style="fill:none;stroke:#000000;stroke-width:0.625" />
<path d="M160.34,35.468L160.34,40.467" style="fill:none;stroke:#000000;stroke-width:0.625" />
<path d="M246.29,35.468L246.29,40.467" style="fill:none;stroke:#000000;stroke-width:0.625" />
<path d="M418.19,35.468L418.19,40.467" style="fill:none;stroke:#000000;stroke-width:0.625" />
<path d="M504.14,35.468L504.14,40.467" style="fill:none;stroke:#000000;stroke-width:0.625" />
<path d="M676.04,35.468L676.04,40.467" style="fill:none;stroke:#000000;stroke-width:0.625" />
<path d="M761.99,35.468L761.99,40.467" style="fill:none;stroke:#000000;stroke-width:0.625" />
<path d="M933.89,35.468L933.89,40.467" style="fill:none;stroke:#000000;stroke-width:0.625" />
<path d="M1019.8,35.468L1019.8,40.467" style="fill:none;stroke:#000000;stroke-width:0.625" />
<path d="M74.388,40.467L1080,40.467" style="fill:none;stroke:#000000;stroke-width:0.625" />
<g transform="rotate(90)">
<text x="335.88" y="13.59" transform="scale(1, -1)"
	style="font-family:Helvetica;font-weight:normal;font-style:normal;font-size:12pt">Throughput</text>
</g>
<text x="25.855" y="-186.09" transform="scale(1, -1)"
	style="font-family:Helvetica;font-weight:normal;font-style:normal;font-size:10pt">6000</text>
<text x="25.855" y="-399.43" transform="scale(1, -1)"
	style="font-family:Helvetica;font-weight:normal;font-style:normal;font-size:10pt">8000</text>
<text x="18.555" y="-612.77" transform="scale(1, -1)"
	style="font-family:Helvetica;font-weight:normal;font-style:normal;font-size:10pt">1e+04</text>
<path d="M57.13,191.46L67.13,191.46" style="fill:none;stroke:#000000;stroke-width:0.625" />
<path d="M57.13,404.8L67.13,404.8" style="fill:none;stroke:#000000;stroke-width:0.625" />
<path d="M57.13,618.14L67.13,618.14" style="fill:none;stroke:#000000;stroke-width:0.625" />
<path d="M62.13,84.791L67.13,84.791" style="fill:none;stroke:#000000;stroke-width:0.625" />
<path d="M62.13,298.13L67.13,298.13" style="fill:none;stroke:#000000;stroke-width:0.625" />
<path d="M62.13,511.47L67.13,511.47" style="fill:none;stroke:#000000;stroke-width:0.625" />
<path d="M67.13,47.03L67.13,701.44" style="fill:none;stroke:#000000;stroke-width:0.625" />
<path d="M74.388,273.06L82.982,401.38L91.577,558.4L100.17,553.28L108.77,433.81L117.36,432.11L125.96,513.71L134.55,492.37L143.15,317.22L151.74,505.6L160.34,493.97L168.93,438.29L177.53,537.07L186.12,546.13L194.72,479.47L203.31,532.59L211.91,574.62L220.5,453.65L229.1,495.68L237.69,541.87L246.29,420.05L254.88,547.52L263.48,497.17L272.07,404.58L280.67,541.33L289.26,519.68L297.86,474.24L306.45,544.53L315.05,630.83L323.64,467.2L332.24,548.48L340.83,504.96L349.43,480.85L358.02,493.01L366.62,532.91L375.21,509.87L383.81,426.45L392.4,449.49L401,582.19L409.59,434.56L418.19,477.55L426.78,512.32L435.38,496.96L443.97,660.8L452.57,331.3L461.16,597.98L469.76,491.52L478.35,413.33L486.95,450.88L495.54,417.6L504.14,351.04L512.73,353.92L521.33,271.36L529.92,367.46L538.52,205.54L547.11,447.57L555.71,455.04L564.3,179.3L572.9,468.69L581.49,229.43L590.09,596.59L598.68,309.01L607.28,593.07L615.87,503.47L624.47,410.02L633.06,535.57L641.66,386.98L650.25,512.32L658.85,299.2L667.44,502.83L676.04,496.32L684.63,466.03L693.23,473.39L701.82,333.86L710.42,543.89L719.01,457.39L727.61,467.31L736.2,614.62L744.8,318.18L753.39,594.24L761.99,591.15L770.58,361.49L779.18,582.3L787.77,354.56L796.37,624.64L804.96,701.44L813.56,289.49L822.15,637.55L830.75,594.46L839.34,322.88L847.94,549.65L856.53,689.07L865.13,300.16L873.72,546.77L882.32,374.72L890.91,321.17L899.51,226.45L908.1,623.79L916.7,516.59L925.29,206.93L933.89,465.92L942.48,609.82L951.08,439.57L959.67,258.98L968.27,688.96L976.86,530.35L985.46,480.11L994.05,418.56L1002.6,351.89L1011.2,563.52L1019.8,377.49L1028.4,89.378L1037,418.45L1045.6,501.01L1054.2,287.78L1062.8,47.03L1071.4,365.54L1080,235.3" style="fill:none;stroke:#F15A60;stroke-width:1.875" />
<path d="M1055,694.3L1080,694.3" style="fill:none;stroke:#F15A60;stroke-width:1.875" />
<text x="959.12" y="-687.85" transform="scale(1, -1)"
	style="font-family:Helvetica;font-weight:normal;font-style:normal;font-size:12pt">Consul v0.6.4</text>
</g>
</svg>
