<?xml version="1.0"?>
<!-- Generated by SVGo and Plotinum VG -->
<svg width="12in" height="8in"
	xmlns="http://www.w3.org/2000/svg"
	xmlns:xlink="http://www.w3.org/1999/xlink">
<g transform="scale(1, -1) translate(0, -720)">
<path d="M0,0L1080,0L1080,720L0,720Z" style="fill:#FFFFFF" />
<text x="261.56" y="-706.41" transform="scale(1, -1)"
	style="font-family:Helvetica;font-weight:normal;font-style:normal;font-size:12pt">Write 1M keys, 1000-client, 8-byte key, 256-byte value (Consul v0.6.4, Test 2), CPU</text>
<text x="544.64" y="-4.965" transform="scale(1, -1)"
	style="font-family:Helvetica;font-weight:normal;font-style:normal;font-size:12pt">Second</text>
<text x="56.662" y="-19.142" transform="scale(1, -1)"
	style="font-family:Helvetica;font-weight:normal;font-style:normal;font-size:10pt">0</text>
<text x="379.54" y="-19.142" transform="scale(1, -1)"
	style="font-family:Helvetica;font-weight:normal;font-style:normal;font-size:10pt">40</text>
<text x="705.9" y="-19.142" transform="scale(1, -1)"
	style="font-family:Helvetica;font-weight:normal;font-style:normal;font-size:10pt">80</text>
<text x="1028.8" y="-19.142" transform="scale(1, -1)"
	style="font-family:Helvetica;font-weight:normal;font-style:normal;font-size:10pt">120</text>
<path d="M60.137,30.467L60.137,40.467" style="fill:none;stroke:#000000;stroke-width:0.625" />
<path d="M386.49,30.467L386.49,40.467" style="fill:none;stroke:#000000;stroke-width:0.625" />
<path d="M712.85,30.467L712.85,40.467" style="fill:none;stroke:#000000;stroke-width:0.625" />
<path d="M1039.2,30.467L1039.2,40.467" style="fill:none;stroke:#000000;stroke-width:0.625" />
<path d="M223.32,35.468L223.32,40.467" style="fill:none;stroke:#000000;stroke-width:0.625" />
<path d="M549.67,35.468L549.67,40.467" style="fill:none;stroke:#000000;stroke-width:0.625" />
<path d="M876.03,35.468L876.03,40.467" style="fill:none;stroke:#000000;stroke-width:0.625" />
<path d="M60.137,40.467L1080,40.467" style="fill:none;stroke:#000000;stroke-width:0.625" />
<g transform="rotate(90)">
<text x="358.4" y="13.59" transform="scale(1, -1)"
	style="font-family:Helvetica;font-weight:normal;font-style:normal;font-size:12pt">CPU</text>
</g>
<text x="25.505" y="-225" transform="scale(1, -1)"
	style="font-family:Helvetica;font-weight:normal;font-style:normal;font-size:10pt">60</text>
<text x="18.555" y="-413.35" transform="scale(1, -1)"
	style="font-family:Helvetica;font-weight:normal;font-style:normal;font-size:10pt">120</text>
<text x="18.555" y="-601.71" transform="scale(1, -1)"
	style="font-family:Helvetica;font-weight:normal;font-style:normal;font-size:10pt">180</text>
<path d="M42.88,230.36L52.88,230.36" style="fill:none;stroke:#000000;stroke-width:0.625" />
<path d="M42.88,418.72L52.88,418.72" style="fill:none;stroke:#000000;stroke-width:0.625" />
<path d="M42.88,607.08L52.88,607.08" style="fill:none;stroke:#000000;stroke-width:0.625" />
<path d="M47.88,104.79L52.88,104.79" style="fill:none;stroke:#000000;stroke-width:0.625" />
<path d="M47.88,167.58L52.88,167.58" style="fill:none;stroke:#000000;stroke-width:0.625" />
<path d="M47.88,293.15L52.88,293.15" style="fill:none;stroke:#000000;stroke-width:0.625" />
<path d="M47.88,355.94L52.88,355.94" style="fill:none;stroke:#000000;stroke-width:0.625" />
<path d="M47.88,481.51L52.88,481.51" style="fill:none;stroke:#000000;stroke-width:0.625" />
<path d="M47.88,544.29L52.88,544.29" style="fill:none;stroke:#000000;stroke-width:0.625" />
<path d="M47.88,669.86L52.88,669.86" style="fill:none;stroke:#000000;stroke-width:0.625" />
<path d="M52.88,47.03L52.88,701.44" style="fill:none;stroke:#000000;stroke-width:0.625" />
<path d="M60.137,47.03L68.296,146.89L76.455,228.17L84.614,274.53L92.773,279.31L100.93,279.87L109.09,284.74L117.25,284.58L125.41,283.86L133.57,284.3L141.73,289.45L149.89,304.8L158.04,316.57L166.2,329.72L174.36,340.24L182.52,356.5L190.68,380.45L198.84,399.26L207,416.87L215.16,434.45L223.32,448.86L231.47,464.43L239.63,478.34L247.79,492.31L255.95,503.23L264.11,512.74L272.27,522.66L280.43,532.43L288.59,542.41L296.75,550.82L304.9,557.35L313.06,562.19L321.22,567.37L329.38,573.05L337.54,577.76L345.7,582.28L353.86,586.2L362.02,591.1L370.18,595.78L378.33,598.79L386.49,604.32L394.65,610.22L402.81,615.55L410.97,621.08L419.13,625.79L427.29,629.18L435.45,634.7L443.61,637.34L451.76,640.86L459.92,645L468.08,647.23L476.24,652.13L484.4,655.39L492.56,657.65L500.72,660.98L508.88,663.59L517.04,666.44L525.19,669.02L533.35,672.88L541.51,674.38L549.67,677.34L557.83,679.03L565.99,682.11L574.15,684.24L582.31,680.16L590.47,674.38L598.62,670.84L606.78,668.2L614.94,662.74L623.1,657.46L631.26,652.57L639.42,648.67L647.58,647.26L655.74,644.53L663.9,641.48L672.05,638.66L680.21,639L688.37,640.39L696.53,643.68L704.69,645.88L712.85,647.1L721.01,650.9L729.17,652.32L737.33,655.74L745.49,658.37L753.64,659.5L761.8,662.74L769.96,662.71L778.12,664.34L786.28,667.26L794.44,667.73L802.6,668.83L810.76,668.83L818.92,670.93L827.07,672.34L835.23,671.81L843.39,672.53L851.55,675.04L859.71,674.51L867.87,674.1L876.03,676.74L884.19,677.68L892.35,679.03L900.5,682.01L908.66,680.88L916.82,681.86L924.98,682.58L933.14,684.74L941.3,684.65L949.46,685.4L957.62,687.38L965.78,687.73L973.93,688.79L982.09,689.2L990.25,691.93L998.41,692.12L1006.6,692.94L1014.7,693.69L1022.9,696.42L1031,697.18L1039.2,697.77L1047.4,698.43L1055.5,701.44L1063.7,700.38L1071.8,697.52L1080,694.04" style="fill:none;stroke:#F15A60;stroke-width:1.875" />
<path d="M1055,694.3L1080,694.3" style="fill:none;stroke:#F15A60;stroke-width:1.875" />
<text x="959.12" y="-687.85" transform="scale(1, -1)"
	style="font-family:Helvetica;font-weight:normal;font-style:normal;font-size:12pt">Consul v0.6.4</text>
</g>
</svg>
