<?xml version="1.0"?>
<!-- Generated by SVGo and Plotinum VG -->
<svg width="12in" height="8in"
	xmlns="http://www.w3.org/2000/svg"
	xmlns:xlink="http://www.w3.org/1999/xlink">
<g transform="scale(1, -1) translate(0, -720)">
<path d="M0,0L1080,0L1080,720L0,720Z" style="fill:#FFFFFF" />
<text x="209.05" y="-706.41" transform="scale(1, -1)"
	style="font-family:Helvetica;font-weight:normal;font-style:normal;font-size:12pt">Write 1M keys, 1000-client, 8-byte key, 256-byte value (Consul v0.6.4, Test 2), Latency(millisecond)</text>
<text x="544.64" y="-4.965" transform="scale(1, -1)"
	style="font-family:Helvetica;font-weight:normal;font-style:normal;font-size:12pt">Second</text>
<text x="56.662" y="-19.142" transform="scale(1, -1)"
	style="font-family:Helvetica;font-weight:normal;font-style:normal;font-size:10pt">0</text>
<text x="376.95" y="-19.142" transform="scale(1, -1)"
	style="font-family:Helvetica;font-weight:normal;font-style:normal;font-size:10pt">40</text>
<text x="700.72" y="-19.142" transform="scale(1, -1)"
	style="font-family:Helvetica;font-weight:normal;font-style:normal;font-size:10pt">80</text>
<text x="1021" y="-19.142" transform="scale(1, -1)"
	style="font-family:Helvetica;font-weight:normal;font-style:normal;font-size:10pt">120</text>
<path d="M60.137,30.467L60.137,40.467" style="fill:none;stroke:#000000;stroke-width:0.625" />
<path d="M383.9,30.467L383.9,40.467" style="fill:none;stroke:#000000;stroke-width:0.625" />
<path d="M707.67,30.467L707.67,40.467" style="fill:none;stroke:#000000;stroke-width:0.625" />
<path d="M1031.4,30.467L1031.4,40.467" style="fill:none;stroke:#000000;stroke-width:0.625" />
<path d="M222.02,35.468L222.02,40.467" style="fill:none;stroke:#000000;stroke-width:0.625" />
<path d="M545.79,35.468L545.79,40.467" style="fill:none;stroke:#000000;stroke-width:0.625" />
<path d="M869.55,35.468L869.55,40.467" style="fill:none;stroke:#000000;stroke-width:0.625" />
<path d="M60.137,40.467L1080,40.467" style="fill:none;stroke:#000000;stroke-width:0.625" />
<g transform="rotate(90)">
<text x="305.89" y="13.59" transform="scale(1, -1)"
	style="font-family:Helvetica;font-weight:normal;font-style:normal;font-size:12pt">Latency(millisecond)</text>
</g>
<text x="18.555" y="-58.859" transform="scale(1, -1)"
	style="font-family:Helvetica;font-weight:normal;font-style:normal;font-size:10pt">100</text>
<text x="18.555" y="-211.77" transform="scale(1, -1)"
	style="font-family:Helvetica;font-weight:normal;font-style:normal;font-size:10pt">200</text>
<text x="18.555" y="-364.67" transform="scale(1, -1)"
	style="font-family:Helvetica;font-weight:normal;font-style:normal;font-size:10pt">300</text>
<text x="18.555" y="-517.58" transform="scale(1, -1)"
	style="font-family:Helvetica;font-weight:normal;font-style:normal;font-size:10pt">400</text>
<text x="18.555" y="-670.49" transform="scale(1, -1)"
	style="font-family:Helvetica;font-weight:normal;font-style:normal;font-size:10pt">500</text>
<path d="M42.88,64.228L52.88,64.228" style="fill:none;stroke:#000000;stroke-width:0.625" />
<path d="M42.88,217.13L52.88,217.13" style="fill:none;stroke:#000000;stroke-width:0.625" />
<path d="M42.88,370.04L52.88,370.04" style="fill:none;stroke:#000000;stroke-width:0.625" />
<path d="M42.88,522.95L52.88,522.95" style="fill:none;stroke:#000000;stroke-width:0.625" />
<path d="M42.88,675.85L52.88,675.85" style="fill:none;stroke:#000000;stroke-width:0.625" />
<path d="M47.88,140.68L52.88,140.68" style="fill:none;stroke:#000000;stroke-width:0.625" />
<path d="M47.88,293.59L52.88,293.59" style="fill:none;stroke:#000000;stroke-width:0.625" />
<path d="M47.88,446.49L52.88,446.49" style="fill:none;stroke:#000000;stroke-width:0.625" />
<path d="M47.88,599.4L52.88,599.4" style="fill:none;stroke:#000000;stroke-width:0.625" />
<path d="M52.88,47.03L52.88,701.44" style="fill:none;stroke:#000000;stroke-width:0.625" />
<path d="M60.137,52.272L68.232,57.183L76.326,55.029L84.42,175.66L92.514,525.26L100.61,614.55L108.7,584.09L116.8,641.52L124.89,701.44L132.98,614.08L141.08,282.4L149.17,157.19L157.27,238.22L165.36,182.32L173.46,183.63L181.55,79.832L189.64,66.408L197.74,74.324L205.83,63.395L213.93,57.142L222.02,72.418L230.11,61.243L238.21,57.963L246.3,54.043L254.4,76.843L262.49,69.604L270.59,61.334L278.68,63.774L286.77,57.18L294.87,70.488L302.96,83.656L311.06,94.802L319.15,88.517L327.24,76.795L335.34,74.785L343.43,91.146L351.53,89.101L359.62,86.735L367.72,75.419L375.81,96.223L383.9,59.759L392,56.285L400.09,67.156L408.19,76.122L416.28,65.2L424.37,58.674L432.47,77.6L440.56,55.328L448.66,78.632L456.75,74.128L464.84,55.668L472.94,81.367L481.03,47.042L489.13,98.348L497.22,58.22L505.32,85.447L513.41,60.381L521.5,75.587L529.6,77.198L537.69,61.352L545.79,72.298L553.88,78.915L561.97,59.775L570.07,97.91L578.16,247.25L586.26,555.64L594.35,624.62L602.45,552.85L610.54,551.56L618.63,543.66L626.73,468.82L634.82,533.32L642.92,569.77L651.01,247.54L659.1,242.34L667.2,251.84L675.29,301.24L683.39,55.496L691.48,61.872L699.58,83.46L707.67,51.4L715.76,100.95L723.86,48.848L731.95,82.74L740.05,51.626L748.14,51.82L756.23,131.4L764.33,81.56L772.42,84.791L780.52,93.173L788.61,72.059L796.7,123.51L804.8,114.97L812.89,71.706L820.99,108.36L829.08,82.682L837.18,83.2L845.27,80.596L853.36,101.77L861.46,91.162L869.55,47.03L877.65,82.316L885.74,67.27L893.83,127.51L901.93,109.08L910.02,57.847L918.12,114.16L926.21,173.65L934.31,57.204L942.4,54.773L950.49,136.1L958.59,111.17L966.68,54.204L974.78,59.471L982.87,194.02L990.96,55.958L999.06,48.337L1007.2,83.819L1015.2,117.86L1023.3,52.005L1031.4,50.296L1039.5,151.32L1047.6,138.19L1055.7,311.57L1063.8,569.57L1071.9,634.35L1080,650.44" style="fill:none;stroke:#F15A60;stroke-width:1.875" />
<path d="M1055,694.3L1080,694.3" style="fill:none;stroke:#F15A60;stroke-width:1.875" />
<text x="959.12" y="-687.85" transform="scale(1, -1)"
	style="font-family:Helvetica;font-weight:normal;font-style:normal;font-size:12pt">Consul v0.6.4</text>
</g>
</svg>
