<?xml version="1.0"?>
<!-- Generated by SVGo and Plotinum VG -->
<svg width="12in" height="8in"
	xmlns="http://www.w3.org/2000/svg"
	xmlns:xlink="http://www.w3.org/1999/xlink">
<g transform="scale(1, -1) translate(0, -720)">
<path d="M0,0L1080,0L1080,720L0,720Z" style="fill:#FFFFFF" />
<text x="245.99" y="-705.6" transform="scale(1, -1)"
	style="font-family:Helvetica;font-weight:normal;font-style:normal;font-size:12pt">Write 2M keys, 1000-client, 100-conn, 8-byte key, 256-byte value (etcd v3), Memory(MB)</text>
<text x="544.98" y="-4.8486" transform="scale(1, -1)"
	style="font-family:Helvetica;font-weight:normal;font-style:normal;font-size:12pt">Second</text>
<text x="57.358" y="-19.498" transform="scale(1, -1)"
	style="font-family:Helvetica;font-weight:normal;font-style:normal;font-size:10pt">0</text>
<text x="349.29" y="-19.498" transform="scale(1, -1)"
	style="font-family:Helvetica;font-weight:normal;font-style:normal;font-size:10pt">20</text>
<text x="644.7" y="-19.498" transform="scale(1, -1)"
	style="font-family:Helvetica;font-weight:normal;font-style:normal;font-size:10pt">40</text>
<text x="940.11" y="-19.498" transform="scale(1, -1)"
	style="font-family:Helvetica;font-weight:normal;font-style:normal;font-size:10pt">60</text>
<path d="M60.834,31.498L60.834,41.498" style="fill:none;stroke:#000000;stroke-width:0.625" />
<path d="M356.24,31.498L356.24,41.498" style="fill:none;stroke:#000000;stroke-width:0.625" />
<path d="M651.65,31.498L651.65,41.498" style="fill:none;stroke:#000000;stroke-width:0.625" />
<path d="M947.07,31.498L947.07,41.498" style="fill:none;stroke:#000000;stroke-width:0.625" />
<path d="M208.54,36.498L208.54,41.498" style="fill:none;stroke:#000000;stroke-width:0.625" />
<path d="M503.95,36.498L503.95,41.498" style="fill:none;stroke:#000000;stroke-width:0.625" />
<path d="M799.36,36.498L799.36,41.498" style="fill:none;stroke:#000000;stroke-width:0.625" />
<path d="M60.834,41.498L1080,41.498" style="fill:none;stroke:#000000;stroke-width:0.625" />
<g transform="rotate(90)">
<text x="331.08" y="14.399" transform="scale(1, -1)"
	style="font-family:Helvetica;font-weight:normal;font-style:normal;font-size:12pt">Memory(MB)</text>
</g>
<text x="19.248" y="-199.87" transform="scale(1, -1)"
	style="font-family:Helvetica;font-weight:normal;font-style:normal;font-size:10pt">200</text>
<text x="19.248" y="-371.62" transform="scale(1, -1)"
	style="font-family:Helvetica;font-weight:normal;font-style:normal;font-size:10pt">400</text>
<text x="19.248" y="-543.37" transform="scale(1, -1)"
	style="font-family:Helvetica;font-weight:normal;font-style:normal;font-size:10pt">600</text>
<path d="M43.577,205.75L53.577,205.75" style="fill:none;stroke:#000000;stroke-width:0.625" />
<path d="M43.577,377.5L53.577,377.5" style="fill:none;stroke:#000000;stroke-width:0.625" />
<path d="M43.577,549.25L53.577,549.25" style="fill:none;stroke:#000000;stroke-width:0.625" />
<path d="M48.577,119.87L53.577,119.87" style="fill:none;stroke:#000000;stroke-width:0.625" />
<path d="M48.577,291.62L53.577,291.62" style="fill:none;stroke:#000000;stroke-width:0.625" />
<path d="M48.577,463.37L53.577,463.37" style="fill:none;stroke:#000000;stroke-width:0.625" />
<path d="M48.577,635.13L53.577,635.13" style="fill:none;stroke:#000000;stroke-width:0.625" />
<path d="M53.577,48.06L53.577,700.75" style="fill:none;stroke:#000000;stroke-width:0.625" />
<path d="M60.834,48.06L75.604,94.055L90.375,104.89L105.15,117.09L119.92,124.47L134.69,135.48L149.46,145.21L164.23,155.32L179,165.32L193.77,174.47L208.54,182.55L223.31,191.33L238.08,201.06L252.85,210.38L267.62,218.05L282.39,226.86L297.16,237.55L311.93,247.5L326.7,254.33L341.47,267.21L356.24,275.04L371.01,284.73L385.79,292.48L400.56,301.51L415.33,307.86L430.1,322L444.87,329.45L459.64,341.09L474.41,347.57L489.18,355.33L503.95,363.29L518.72,371.02L533.49,375.04L548.26,384.13L563.03,392.63L577.8,399.92L592.57,411.16L607.34,418.05L622.11,425.74L636.88,435.26L651.65,443.65L666.43,455.49L681.2,459.23L695.97,472.27L710.74,478.71L725.51,487.01L740.28,496.76L755.05,506.02L769.82,513.75L784.59,522.89L799.36,534.02L814.13,542.53L828.9,548.5L843.67,558.67L858.44,566.77L873.21,574.24L887.98,586.54L902.75,592.69L917.52,604.85L932.29,612.97L947.07,624.08L961.84,634.58L976.61,643.95L991.38,654.41L1006.1,659.69L1020.9,668.03L1035.7,677.51L1050.5,684.64L1065.2,690.35L1080,700.75" style="fill:none;stroke:#F15A60;stroke-width:1.875" />
<path d="M60.834,49.056L75.604,95.704L90.375,108.81L105.15,120.1L119.92,129.08L134.69,139.96L149.46,153.07L164.23,163.32L179,175.65L193.77,186.91L208.54,197.48L223.31,209.6L238.08,220.87L252.85,230.61L267.62,243.08L282.39,254.86L297.16,267.16L311.93,278.48L326.7,284.56L341.47,293.94L356.24,304.07L371.01,315.61L385.79,324.63L400.56,337.52L415.33,345.76L430.1,351.06L444.87,359.99L459.64,371.47L474.41,378.03L489.18,396.55L503.95,403.56L518.72,415.49L533.49,428.23L548.26,435.73L563.03,445.79L577.8,461.19L592.57,471.53L607.34,483.38L622.11,494.17L636.88,501.72L651.65,512.46L666.43,521.25L681.2,532.71L695.97,545.05L710.74,556.35L725.51,560.54L740.28,570.66L755.05,582.02L769.82,593.93L784.59,600.88L799.36,609.25L814.13,621.18L828.9,639.92L843.67,649.11L858.44,661.08L873.21,671.11L887.98,680.81" style="fill:none;stroke:#7AC36A;stroke-width:1.875;stroke-dasharray:7.5,2.5" />
<path d="M1055,693.4L1080,693.4" style="fill:none;stroke:#F15A60;stroke-width:1.875" />
<text x="1002.5" y="-686.35" transform="scale(1, -1)"
	style="font-family:Helvetica;font-weight:normal;font-style:normal;font-size:12pt">etcd v3</text>
<path d="M1055,678.7L1080,678.7" style="fill:none;stroke:#7AC36A;stroke-width:1.875;stroke-dasharray:7.5,2.5" />
<text x="881.61" y="-671.65" transform="scale(1, -1)"
	style="font-family:Helvetica;font-weight:normal;font-style:normal;font-size:12pt">etcd v3 (with mvcc patch)</text>
</g>
</svg>
