<?xml version="1.0"?>
<!-- Generated by SVGo and Plotinum VG -->
<svg width="12in" height="8in"
	xmlns="http://www.w3.org/2000/svg"
	xmlns:xlink="http://www.w3.org/1999/xlink">
<g transform="scale(1, -1) translate(0, -720)">
<path d="M0,0L1080,0L1080,720L0,720Z" style="fill:#FFFFFF" />
<text x="273.49" y="-705.6" transform="scale(1, -1)"
	style="font-family:Helvetica;font-weight:normal;font-style:normal;font-size:12pt">Write 2M keys, 1000-client, 100-conn, 8-byte key, 256-byte value (etcd v3), CPU</text>
<text x="544.98" y="-4.8486" transform="scale(1, -1)"
	style="font-family:Helvetica;font-weight:normal;font-style:normal;font-size:12pt">Second</text>
<text x="57.358" y="-19.498" transform="scale(1, -1)"
	style="font-family:Helvetica;font-weight:normal;font-style:normal;font-size:10pt">0</text>
<text x="349.29" y="-19.498" transform="scale(1, -1)"
	style="font-family:Helvetica;font-weight:normal;font-style:normal;font-size:10pt">20</text>
<text x="644.7" y="-19.498" transform="scale(1, -1)"
	style="font-family:Helvetica;font-weight:normal;font-style:normal;font-size:10pt">40</text>
<text x="940.11" y="-19.498" transform="scale(1, -1)"
	style="font-family:Helvetica;font-weight:normal;font-style:normal;font-size:10pt">60</text>
<path d="M60.834,31.498L60.834,41.498" style="fill:none;stroke:#000000;stroke-width:0.625" />
<path d="M356.24,31.498L356.24,41.498" style="fill:none;stroke:#000000;stroke-width:0.625" />
<path d="M651.65,31.498L651.65,41.498" style="fill:none;stroke:#000000;stroke-width:0.625" />
<path d="M947.07,31.498L947.07,41.498" style="fill:none;stroke:#000000;stroke-width:0.625" />
<path d="M208.54,36.498L208.54,41.498" style="fill:none;stroke:#000000;stroke-width:0.625" />
<path d="M503.95,36.498L503.95,41.498" style="fill:none;stroke:#000000;stroke-width:0.625" />
<path d="M799.36,36.498L799.36,41.498" style="fill:none;stroke:#000000;stroke-width:0.625" />
<path d="M60.834,41.498L1080,41.498" style="fill:none;stroke:#000000;stroke-width:0.625" />
<g transform="rotate(90)">
<text x="358.57" y="14.399" transform="scale(1, -1)"
	style="font-family:Helvetica;font-weight:normal;font-style:normal;font-size:12pt">CPU</text>
</g>
<text x="19.248" y="-198.97" transform="scale(1, -1)"
	style="font-family:Helvetica;font-weight:normal;font-style:normal;font-size:10pt">100</text>
<text x="19.248" y="-359.71" transform="scale(1, -1)"
	style="font-family:Helvetica;font-weight:normal;font-style:normal;font-size:10pt">200</text>
<text x="19.248" y="-520.46" transform="scale(1, -1)"
	style="font-family:Helvetica;font-weight:normal;font-style:normal;font-size:10pt">300</text>
<text x="19.248" y="-681.2" transform="scale(1, -1)"
	style="font-family:Helvetica;font-weight:normal;font-style:normal;font-size:10pt">400</text>
<path d="M43.577,204.85L53.577,204.85" style="fill:none;stroke:#000000;stroke-width:0.625" />
<path d="M43.577,365.59L53.577,365.59" style="fill:none;stroke:#000000;stroke-width:0.625" />
<path d="M43.577,526.33L53.577,526.33" style="fill:none;stroke:#000000;stroke-width:0.625" />
<path d="M43.577,687.07L53.577,687.07" style="fill:none;stroke:#000000;stroke-width:0.625" />
<path d="M48.577,124.48L53.577,124.48" style="fill:none;stroke:#000000;stroke-width:0.625" />
<path d="M48.577,285.22L53.577,285.22" style="fill:none;stroke:#000000;stroke-width:0.625" />
<path d="M48.577,445.96L53.577,445.96" style="fill:none;stroke:#000000;stroke-width:0.625" />
<path d="M48.577,606.7L53.577,606.7" style="fill:none;stroke:#000000;stroke-width:0.625" />
<path d="M53.577,48.06L53.577,700.75" style="fill:none;stroke:#000000;stroke-width:0.625" />
<path d="M60.834,48.06L75.604,131.71L90.375,200.57L105.15,259.95L119.92,306.02L134.69,345.32L149.46,378.45L164.23,404.33L179,428.6L193.77,450.17L208.54,468.03L223.31,483.86L238.08,498.06L252.85,511.9L267.62,522.63L282.39,534.16L297.16,544.74L311.93,555.65L326.7,564.59L341.47,573.12L356.24,581.75L371.01,588.39L385.79,594.9L400.56,601.86L415.33,606.8L430.1,613.52L444.87,618.15L459.64,623.29L474.41,627.68L489.18,630.07L503.95,633.56L518.72,636.97L533.49,638.95L548.26,641.12L563.03,644.56L577.8,646.97L592.57,648.93L607.34,651.61L622.11,655.47L636.88,657.69L651.65,659.33L666.43,661.64L681.2,663.86L695.97,666.1L710.74,668.31L725.51,670.95L740.28,672.38L755.05,674.08L769.82,676.08L784.59,678.09L799.36,679.18L814.13,680.14L828.9,681.38L843.67,682.91L858.44,683.79L873.21,685.92L887.98,687.73L902.75,688.37L917.52,689.58L932.29,691.35L947.07,692.41L961.84,694.47L976.61,695.13L991.38,696.3L1006.1,696.59L1020.9,697.87L1035.7,698.07L1050.5,699.11L1065.2,699.53L1080,700.75" style="fill:none;stroke:#F15A60;stroke-width:1.875" />
<path d="M60.834,48.462L75.604,128.32L90.375,190.88L105.15,246.01L119.92,290.38L134.69,326.05L149.46,356.3L164.23,382.76L179,404.78L193.77,423.36L208.54,440.5L223.31,456.22L238.08,469.91L252.85,483.2L267.62,494.2L282.39,504.42L297.16,514.03L311.93,520.64L326.7,526.86L341.47,532.33L356.24,537.6L371.01,543.24L385.79,548.56L400.56,552.08L415.33,556.31L430.1,558.85L444.87,563.82L459.64,567.82L474.41,571.77L489.18,577.29L503.95,581.37L518.72,585.1L533.49,588.33L548.26,591.5L563.03,595.71L577.8,598.99L592.57,601.77L607.34,605.16L622.11,608.13L636.88,611.06L651.65,613.15L666.43,614.77L681.2,616.41L695.97,618.23L710.74,620.35L725.51,621.44L740.28,624.43L755.05,625.89L769.82,627.73L784.59,628.45L799.36,629.7L814.13,631.42L828.9,633.96L843.67,635.12L858.44,636.41L873.21,638.72L887.98,640.36" style="fill:none;stroke:#7AC36A;stroke-width:1.875;stroke-dasharray:7.5,2.5" />
<path d="M1055,693.4L1080,693.4" style="fill:none;stroke:#F15A60;stroke-width:1.875" />
<text x="1002.5" y="-686.35" transform="scale(1, -1)"
	style="font-family:Helvetica;font-weight:normal;font-style:normal;font-size:12pt">etcd v3</text>
<path d="M1055,678.7L1080,678.7" style="fill:none;stroke:#7AC36A;stroke-width:1.875;stroke-dasharray:7.5,2.5" />
<text x="881.61" y="-671.65" transform="scale(1, -1)"
	style="font-family:Helvetica;font-weight:normal;font-style:normal;font-size:12pt">etcd v3 (with mvcc patch)</text>
</g>
</svg>
