<?xml version="1.0"?>
<!-- Generated by SVGo and Plotinum VG -->
<svg width="12in" height="8in"
	xmlns="http://www.w3.org/2000/svg"
	xmlns:xlink="http://www.w3.org/1999/xlink">
<g transform="scale(1, -1) translate(0, -720)">
<path d="M0,0L1080,0L1080,720L0,720Z" style="fill:#FFFFFF" />
<text x="220.96" y="-705.6" transform="scale(1, -1)"
	style="font-family:Helvetica;font-weight:normal;font-style:normal;font-size:12pt">Write 2M keys, 1000-client, 100-conn, 8-byte key, 256-byte value (etcd v3), Latency(millisecond)</text>
<text x="544.98" y="-4.8486" transform="scale(1, -1)"
	style="font-family:Helvetica;font-weight:normal;font-style:normal;font-size:12pt">Second</text>
<text x="57.358" y="-19.498" transform="scale(1, -1)"
	style="font-family:Helvetica;font-weight:normal;font-style:normal;font-size:10pt">0</text>
<text x="351.04" y="-19.498" transform="scale(1, -1)"
	style="font-family:Helvetica;font-weight:normal;font-style:normal;font-size:10pt">100</text>
<text x="651.68" y="-19.498" transform="scale(1, -1)"
	style="font-family:Helvetica;font-weight:normal;font-style:normal;font-size:10pt">200</text>
<text x="952.32" y="-19.498" transform="scale(1, -1)"
	style="font-family:Helvetica;font-weight:normal;font-style:normal;font-size:10pt">300</text>
<path d="M60.834,31.498L60.834,41.498" style="fill:none;stroke:#000000;stroke-width:0.625" />
<path d="M361.47,31.498L361.47,41.498" style="fill:none;stroke:#000000;stroke-width:0.625" />
<path d="M662.11,31.498L662.11,41.498" style="fill:none;stroke:#000000;stroke-width:0.625" />
<path d="M962.75,31.498L962.75,41.498" style="fill:none;stroke:#000000;stroke-width:0.625" />
<path d="M211.15,36.498L211.15,41.498" style="fill:none;stroke:#000000;stroke-width:0.625" />
<path d="M511.79,36.498L511.79,41.498" style="fill:none;stroke:#000000;stroke-width:0.625" />
<path d="M812.43,36.498L812.43,41.498" style="fill:none;stroke:#000000;stroke-width:0.625" />
<path d="M60.834,41.498L1080,41.498" style="fill:none;stroke:#000000;stroke-width:0.625" />
<g transform="rotate(90)">
<text x="306.05" y="14.399" transform="scale(1, -1)"
	style="font-family:Helvetica;font-weight:normal;font-style:normal;font-size:12pt">Latency(millisecond)</text>
</g>
<text x="26.2" y="-168.44" transform="scale(1, -1)"
	style="font-family:Helvetica;font-weight:normal;font-style:normal;font-size:10pt">60</text>
<text x="19.248" y="-383.34" transform="scale(1, -1)"
	style="font-family:Helvetica;font-weight:normal;font-style:normal;font-size:10pt">120</text>
<text x="19.248" y="-598.24" transform="scale(1, -1)"
	style="font-family:Helvetica;font-weight:normal;font-style:normal;font-size:10pt">180</text>
<path d="M43.577,174.31L53.577,174.31" style="fill:none;stroke:#000000;stroke-width:0.625" />
<path d="M43.577,389.21L53.577,389.21" style="fill:none;stroke:#000000;stroke-width:0.625" />
<path d="M43.577,604.11L53.577,604.11" style="fill:none;stroke:#000000;stroke-width:0.625" />
<path d="M48.577,102.68L53.577,102.68" style="fill:none;stroke:#000000;stroke-width:0.625" />
<path d="M48.577,245.95L53.577,245.95" style="fill:none;stroke:#000000;stroke-width:0.625" />
<path d="M48.577,317.58L53.577,317.58" style="fill:none;stroke:#000000;stroke-width:0.625" />
<path d="M48.577,460.85L53.577,460.85" style="fill:none;stroke:#000000;stroke-width:0.625" />
<path d="M48.577,532.48L53.577,532.48" style="fill:none;stroke:#000000;stroke-width:0.625" />
<path d="M48.577,675.75L53.577,675.75" style="fill:none;stroke:#000000;stroke-width:0.625" />
<path d="M53.577,48.06L53.577,700.75" style="fill:none;stroke:#000000;stroke-width:0.625" />
<path d="M60.834,48.06L63.84,54.331L66.847,60.991L69.853,68.486L72.859,65.605L75.866,68.956L78.872,72.427L81.878,76.565L84.885,77.809L87.891,75.339L90.898,80.947L93.904,84.658L96.91,87.848L99.917,80.538L102.92,86.234L105.93,81.775L108.94,85.674L111.94,84.351L114.95,79.679L117.96,89.277L120.96,81.531L123.97,90.902L126.97,91.662L129.98,96.03L132.99,93.851L135.99,83L139,86.29L142.01,93.688L145.01,73.388L148.02,85.191L151.03,81.124L154.03,75.416L157.04,78.807L160.04,80.337L163.05,80.577L166.06,84.162L169.06,74.699L172.07,82.414L175.08,85.587L178.08,70.564L181.09,87.701L184.1,68.889L187.1,94.691L190.11,72.884L193.11,79.864L196.12,86.031L199.13,81.836L202.13,78.496L205.14,82.482L208.15,82.051L211.15,90.962L214.16,80.139L217.17,83.562L220.17,85.22L223.18,90.222L226.19,73.426L229.19,79.463L232.2,84.734L235.2,81.246L238.21,92.703L241.22,78.877L244.22,90.862L247.23,82.227L250.24,82.572L253.24,82.074L256.25,72.627L259.26,94.05L262.26,88.862L265.27,102.91" style="fill:none;stroke:#F15A60;stroke-width:1.875" />
<path d="M60.834,275.85L63.84,183.46L66.847,185.78L69.853,190.97L72.859,199.1L75.866,185.46L78.872,224.37L81.878,253.11L84.885,290.76L87.891,230.98L90.898,209.17L93.904,255.64L96.91,195.51L99.917,207.9L102.92,227.3L105.93,220.22L108.94,191.93L111.94,173.8L114.95,185.31L117.96,180.3L120.96,193.9L123.97,220.65L126.97,204.39L129.98,199.11L132.99,193.19L135.99,200.18L139,215.92L142.01,197.87L145.01,223.87L148.02,204.51L151.03,208.72L154.03,216.76L157.04,212.67L160.04,208.8L163.05,225.27L166.06,198.2L169.06,210.24L172.07,198.35L175.08,201.95L178.08,211.97L181.09,193.8L184.1,211.78L187.1,218.27L190.11,223.39L193.11,204.42L196.12,212.28L199.13,202.67L202.13,200.67L205.14,220.49L208.15,208.16L211.15,222.05L214.16,198.95L217.17,203.87L220.17,198.98L223.18,226.99L226.19,224.61L229.19,202.41L232.2,222.19L235.2,207.99L238.21,204.47L241.22,214.25L244.22,237.16L247.23,221.4L250.24,218.64L253.24,257.22L256.25,206.93L259.26,235.71L262.26,253.19L265.27,250.18L268.27,257.25L271.28,236.47L274.29,258.66L277.29,258.67L280.3,247.7L283.31,230.9L286.31,232.03L289.32,218.46L292.33,191.83L295.33,204.19L298.34,206.65L301.34,219.75L304.35,197.27L307.36,220.91L310.36,244.63L313.37,196.13L316.38,230.1L319.38,234.39L322.39,253.88L325.4,224.24L328.4,222.24L331.41,210.83L334.42,219.91L337.42,208.02L340.43,228.72L343.43,206.43L346.44,238.65L349.45,230.87L352.45,251.67L355.46,227.27L358.47,253.97L361.47,233.03L364.48,235.56L367.49,232.28L370.49,211.55L373.5,221.27L376.5,215.24L379.51,212.45L382.52,194.63L385.52,222.89L388.53,212.06L391.54,206.11L394.54,214.2L397.55,196.66L400.56,202.71L403.56,212.66L406.57,212.66L409.57,232.93L412.58,223.21L415.59,311.19L418.59,172.61L421.6,219.32L424.61,205.06L427.61,207.08L430.62,234.31L433.63,224.11L436.63,242.32L439.64,214.75L442.65,279.84L445.65,294.09L448.66,240.68L451.66,261.46L454.67,256.74L457.68,249.27L460.68,221.96L463.69,281.9L466.7,247.42L469.7,210.03L472.71,214.1L475.72,203.67L478.72,248.22L481.73,188.64L484.73,257.21L487.74,235.67L490.75,233.61L493.75,195.01L496.76,257.23L499.77,284.98L502.77,190.01L505.78,223.05L508.79,213.62L511.79,218.79L514.8,211.49L517.81,236.67L520.81,206.57L523.82,208.35" style="fill:none;stroke:#7AC36A;stroke-width:1.875;stroke-dasharray:7.5,2.5" />
<path d="M60.834,275L63.84,161.09L66.847,187.25L69.853,190.78L72.859,180.42L75.866,187.34L78.872,174.3L81.878,185.73L84.885,173.73L87.891,180.55L90.898,209L93.904,219.8L96.91,283.29L99.917,253.89L102.92,240.35L105.93,218.2L108.94,190.55L111.94,204.72L114.95,231.7L117.96,219.24L120.96,191.11L123.97,170.19L126.97,186.01L129.98,209.37L132.99,181.89L135.99,193.19L139,185.26L142.01,189.88L145.01,228.52L148.02,211.37L151.03,203.05L154.03,211.86L157.04,221.23L160.04,197.42L163.05,197.12L166.06,210.22L169.06,208.13L172.07,215.72L175.08,205.97L178.08,209.53L181.09,203.39L184.1,197.81L187.1,279.13L190.11,192.03L193.11,213.9L196.12,217.02L199.13,214.4L202.13,203.25L205.14,200.72L208.15,195.31L211.15,224.19L214.16,236.35L217.17,195.23L220.17,216.06L223.18,225.26L226.19,222.36L229.19,219.1L232.2,228.23L235.2,244.39L238.21,210.86L241.22,224.34L244.22,216.7L247.23,209.72L250.24,205.62L253.24,219.9L256.25,226.87L259.26,219.07L262.26,207.84L265.27,221.57L268.27,206.77L271.28,222.42L274.29,225.64L277.29,222.32L280.3,244.17L283.31,249.5L286.31,222.66L289.32,208.43L292.33,229.86L295.33,232.37L298.34,224.01L301.34,198.59L304.35,200.73L307.36,222.3L310.36,241.75L313.37,242.41L316.38,201.27L319.38,235.22L322.39,200.8L325.4,223.18L328.4,207.4L331.41,220.95L334.42,213.73L337.42,256.9L340.43,220.54L343.43,235.29L346.44,219.13L349.45,223.03L352.45,209.75L355.46,237.82L358.47,235.26L361.47,192.24L364.48,227.81L367.49,216.45L370.49,268.48L373.5,223.13L376.5,234.72L379.51,220.05L382.52,205.79L385.52,234.34L388.53,171.81L391.54,207.7L394.54,209.4L397.55,192.65L400.56,239.62L403.56,183.74L406.57,219.82L409.57,235.33L412.58,262.75L415.59,179.66L418.59,236.18L421.6,199.26L424.61,200.86L427.61,205.49L430.62,196.83L433.63,223.37L436.63,188.17L439.64,210.95L442.65,201.17L445.65,191.47L448.66,244.21L451.66,210.25L454.67,244.27L457.68,212.4L460.68,233.16L463.69,235.22L466.7,249.53L469.7,241.76L472.71,239.71L475.72,221.25L478.72,252.41L481.73,218.9L484.73,202.77L487.74,195.43L490.75,193.69L493.75,210.47L496.76,197.78L499.77,185.25L502.77,196.95L505.78,200.3L508.79,199.92L511.79,219.05" style="fill:none;stroke:#5A9BD4;stroke-width:1.875;stroke-dasharray:2.5,2.5" />
<path d="M60.834,622.67L63.84,546.85L66.847,544.26L69.853,545.86L72.859,546.58L75.866,547.32L78.872,548.09L81.878,548.96L84.885,545.48L87.891,545.65L90.898,546.83L93.904,546.85L96.91,548.24L99.917,546.71L102.92,547.89L105.93,546.71L108.94,545.87L111.94,548.36L114.95,547.81L117.96,547.67L120.96,547.51L123.97,548.66L126.97,547.28L129.98,550.18L132.99,552.64L135.99,560.18L139,564.41L142.01,571.12L145.01,561.03L148.02,566.05L151.03,562.64L154.03,563.47L157.04,564.07L160.04,563.78L163.05,561.01L166.06,550.82L169.06,549.18L172.07,548.69L175.08,547.51L178.08,550.72L181.09,556.08L184.1,558.77L187.1,558.12L190.11,556.54L193.11,557.63L196.12,557.42L199.13,554.75L202.13,557.19L205.14,558.22L208.15,562.29L211.15,552.89L214.16,550.27L217.17,554.34L220.17,552.12L223.18,552.49L226.19,549.14L229.19,546.36L232.2,550.77L235.2,554.94L238.21,556.15L241.22,559.94L244.22,559.62L247.23,549.63L250.24,556.28L253.24,568.43L256.25,552.34L259.26,567.48L262.26,560.43L265.27,554.09L268.27,564.48L271.28,561.78L274.29,557.17L277.29,549.76L280.3,554.04L283.31,551.41L286.31,551.57L289.32,551.12L292.33,552.56L295.33,555.1L298.34,561L301.34,557.32L304.35,554.42L307.36,564.9L310.36,558.62L313.37,558.36L316.38,566.85L319.38,572.33L322.39,568.28L325.4,577.49L328.4,575.87L331.41,565.85L334.42,566.06L337.42,579.28L340.43,576.19L343.43,574.47L346.44,561.48L349.45,557.22L352.45,561.07L355.46,570.41L358.47,562.97L361.47,570.75L364.48,561.69L367.49,563.74L370.49,561.68L373.5,562.73L376.5,569.12L379.51,563.91L382.52,570.6L385.52,553.13L388.53,571.28L391.54,559.63L394.54,565.1L397.55,558.12L400.56,560.07L403.56,565.48L406.57,565.95L409.57,563.85L412.58,560.04L415.59,570.54L418.59,568.23L421.6,560.01L424.61,567.9L427.61,557.79L430.62,562.92L433.63,554.58L436.63,569.6L439.64,550.15L442.65,564.66L445.65,553.36L448.66,562.31L451.66,572.23L454.67,558.73L457.68,575.93L460.68,567.49L463.69,564.81L466.7,550.33L469.7,561.52L472.71,573.88L475.72,550.61L478.72,572.97L481.73,562.88L484.73,560.93L487.74,547.89L490.75,572.52L493.75,578.58L496.76,560.43L499.77,576.41L502.77,596.74L505.78,573.98L508.79,598.62L511.79,582.14L514.8,569.48L517.81,587.64L520.81,578.06L523.82,569.69L526.82,570.7L529.83,574.82L532.84,569.4L535.84,556.9L538.85,553.85L541.86,560.74L544.86,569.58L547.87,565.25L550.88,590.79L553.88,569.59L556.89,556.5L559.89,579.58L562.9,564.32L565.91,598.85L568.91,551.8L571.92,577.81L574.93,578.75L577.93,548.81L580.94,569.38L583.95,558.56L586.95,586.58L589.96,556.86L592.96,553.83L595.97,567.73L598.98,572.48L601.98,580L604.99,560.71L608,578.01L611,547.84L614.01,571.35L617.02,591.92L620.02,559.69L623.03,583.28L626.04,556.62L629.04,572.74L632.05,557.09L635.05,574.81L638.06,552.1L641.07,570.95L644.07,562.1L647.08,575.21L650.09,559.63L653.09,586.31L656.1,556.85L659.11,555.7L662.11,553.08L665.12,596.27L668.12,554.03L671.13,590.26L674.14,555.86L677.14,602.15L680.15,571.55L683.16,590.22L686.16,555.03L689.17,610.6L692.18,555.87L695.18,613.01L698.19,557.92L701.19,617.77L704.2,572.09L707.21,568.04L710.21,549.51L713.22,602.99L716.23,558.42L719.23,571.56L722.24,576.07L725.25,569.96L728.25,573.75L731.26,588.62L734.27,572.82L737.27,561.64L740.28,596.48L743.28,574.12L746.29,579.64L749.3,564.59L752.3,583.23L755.31,553.96L758.32,587.98L761.32,549.64L764.33,566.53L767.34,567.57L770.34,563.11L773.35,594.26L776.35,544.55L779.36,610.86L782.37,549.9L785.37,602.46L788.38,549.02L791.39,545L794.39,625.76L797.4,545.56L800.41,619.4L803.41,547.36L806.42,572.38L809.42,585.68L812.43,544.02L815.44,627.97L818.44,545.47L821.45,564.1L824.46,597.58L827.46,544.51L830.47,583.72L833.48,551.09L836.48,573.46L839.49,568.98L842.5,545.75L845.5,588.5L848.51,562.52L851.51,581.15L854.52,555.82L857.53,572.58L860.53,591.31L863.54,583.44L866.55,588.11L869.55,565.81L872.56,580.53L875.57,573.33L878.57,558.4L881.58,589.69L884.58,618.58L887.59,553.73L890.6,602.53L893.6,549.41L896.61,559.43L899.62,611.63L902.62,553.99L905.63,575.61L908.64,618.89L911.64,551.17L914.65,629.27L917.65,560.82L920.66,548.26L923.67,627.97L926.67,554.88L929.68,549.85L932.69,630.08L935.69,547.73L938.7,544.4L941.71,665L944.71,551.53L947.72,546.76L950.73,640.94L953.73,544.09L956.74,560.88L959.74,624.09L962.75,543.64L965.76,587.07L968.76,578.12L971.77,547.85L974.78,598.27L977.78,568.82L980.79,565.54L983.8,580.5L986.8,564.25L989.81,567.65L992.81,604.07L995.82,562.88L998.83,568.4L1001.8,603.19L1004.8,547.91L1007.8,583.23L1010.9,596.08L1013.9,544.38L1016.9,576.61L1019.9,595.59L1022.9,545.54L1025.9,580.15L1028.9,594.49L1031.9,546.84L1034.9,562.11L1037.9,623.92L1040.9,563.05L1043.9,573.98L1046.9,635.43L1049.9,565.9L1052.9,558.01L1055.9,599.96L1059,621.52L1062,558.33L1065,583.56L1068,656.82L1071,545.1L1074,545.8L1077,700.75L1080,548.63" style="fill:none;stroke:#FAA75B;stroke-width:1.875;stroke-dasharray:1.25,1.25" />
<path d="M60.834,61.201L63.84,64.217L66.847,69.368L69.853,77.446L72.859,78.65L75.866,81.417L78.872,79.558L81.878,88.991L84.885,88.163L87.891,86.676L90.898,94L93.904,88.919L96.91,86.778L99.917,97.795L102.92,101.98L105.93,110.13L108.94,100.64L111.94,98.427L114.95,95.557L117.96,97.01L120.96,101.46L123.97,92.652L126.97,108.55L129.98,90.236L132.99,91.834L135.99,83.765L139,89.945L142.01,99.287L145.01,82.833L148.02,103.37L151.03,86.72L154.03,87.615L157.04,93.166L160.04,91.983L163.05,86.459L166.06,92.151L169.06,81.434L172.07,89.756L175.08,95.987L178.08,97.063L181.09,86.42L184.1,97.461L187.1,84.586L190.11,92.178L193.11,90.662L196.12,92.347L199.13,102.62L202.13,81.115L205.14,91.566L208.15,92.278L211.15,99.173L214.16,87.337L217.17,89.768L220.17,105.58L223.18,94.586L226.19,86.557L229.19,91.472L232.2,90.578L235.2,98.126L238.21,101.88L241.22,89.934L244.22,100.37L247.23,92.142L250.24,104.89L253.24,99.336L256.25,89.088L259.26,98.186L262.26,103.45L265.27,122.34L268.27,94.389L271.28,115.81L274.29,119.91L277.29,93.813L280.3,111.31L283.31,95.669" style="fill:none;stroke:#9E67AB;stroke-width:1.875;stroke-dasharray:6.25,2.5,1.25,2.5" />
<path d="M60.834,135.58L63.84,119.96L66.847,121.66L69.853,118.85L72.859,121.99L75.866,130.2L78.872,137.56L81.878,143.52L84.885,136.81L87.891,142.1L90.898,143.66L93.904,138.76L96.91,140.37L99.917,137.56L102.92,144.11L105.93,141.48L108.94,150.8L111.94,154.69L114.95,151.23L117.96,148.23L120.96,153.99L123.97,157.89L126.97,164.94L129.98,157.07L132.99,172.98L135.99,177.4L139,160.05L142.01,167.56L145.01,191.44L148.02,182.35L151.03,182.65L154.03,198.7L157.04,181.3L160.04,182.29L163.05,186.16L166.06,177.97L169.06,168.82L172.07,173.5L175.08,166.09L178.08,173.82L181.09,176.88L184.1,168.61L187.1,186.72L190.11,162.48L193.11,177.95L196.12,177.34L199.13,168.93L202.13,170.55L205.14,179.68L208.15,186.42L211.15,167.72L214.16,176.58L217.17,186.68L220.17,194.16L223.18,205.49L226.19,163.15L229.19,175.73L232.2,179.72L235.2,187.99L238.21,169.21L241.22,234.15L244.22,170.47L247.23,161.73L250.24,167.8L253.24,182.99L256.25,166.11L259.26,202.35L262.26,181.93L265.27,179.59L268.27,174.81L271.28,180.14L274.29,165.54L277.29,181.98L280.3,184.17L283.31,214.57L286.31,175.1L289.32,192.55L292.33,162.85L295.33,160.82L298.34,163.98L301.34,173.48L304.35,171.63L307.36,171.22L310.36,170.18L313.37,169.15L316.38,166.04L319.38,183.77L322.39,158.52L325.4,158.65L328.4,175.32L331.41,165.95L334.42,232.76L337.42,167.23L340.43,212.65L343.43,175.76L346.44,204.59L349.45,154.43L352.45,192.31L355.46,163.38L358.47,191.94L361.47,155.22L364.48,182.83L367.49,216.12L370.49,152.42L373.5,196.54L376.5,181.76L379.51,196.54L382.52,189.97L385.52,175.34L388.53,187.93L391.54,175.15L394.54,172.78L397.55,196.93L400.56,164.7L403.56,196.71L406.57,188.04L409.57,168.23L412.58,181.04L415.59,200.3L418.59,179.66L421.6,195.38" style="fill:none;stroke:#CE7058;stroke-width:1.875;stroke-dasharray:12.5,2.5,2.5,2.5,2.5,2.5,2.5,2.5" />
<path d="M1055,693.4L1080,693.4" style="fill:none;stroke:#F15A60;stroke-width:1.875" />
<text x="882.43" y="-686.35" transform="scale(1, -1)"
	style="font-family:Helvetica;font-weight:normal;font-style:normal;font-size:12pt">etcd v3 (no compression)</text>
<path d="M1055,678.7L1080,678.7" style="fill:none;stroke:#7AC36A;stroke-width:1.875;stroke-dasharray:7.5,2.5" />
<text x="953.3" y="-671.65" transform="scale(1, -1)"
	style="font-family:Helvetica;font-weight:normal;font-style:normal;font-size:12pt">etcd v3 (cgzip)</text>
<path d="M1055,664L1080,664" style="fill:none;stroke:#5A9BD4;stroke-width:1.875;stroke-dasharray:2.5,2.5" />
<text x="900.76" y="-656.95" transform="scale(1, -1)"
	style="font-family:Helvetica;font-weight:normal;font-style:normal;font-size:12pt">etcd v3 (cgzip Level 2)</text>
<path d="M1055,649.3L1080,649.3" style="fill:none;stroke:#FAA75B;stroke-width:1.875;stroke-dasharray:1.25,1.25" />
<text x="960.8" y="-642.25" transform="scale(1, -1)"
	style="font-family:Helvetica;font-weight:normal;font-style:normal;font-size:12pt">etcd v3 (gzip)</text>
<path d="M1055,634.6L1080,634.6" style="fill:none;stroke:#9E67AB;stroke-width:1.875;stroke-dasharray:6.25,2.5,1.25,2.5" />
<text x="939.94" y="-627.55" transform="scale(1, -1)"
	style="font-family:Helvetica;font-weight:normal;font-style:normal;font-size:12pt">etcd v3 (snappy)</text>
<path d="M1055,619.9L1080,619.9" style="fill:none;stroke:#CE7058;stroke-width:1.875;stroke-dasharray:12.5,2.5,2.5,2.5,2.5,2.5,2.5,2.5" />
<text x="907.42" y="-612.85" transform="scale(1, -1)"
	style="font-family:Helvetica;font-weight:normal;font-style:normal;font-size:12pt">etcd v3 (snappy C++)</text>
</g>
</svg>
