<?xml version="1.0"?>
<!-- Generated by SVGo and Plotinum VG -->
<svg width="12in" height="8in"
	xmlns="http://www.w3.org/2000/svg"
	xmlns:xlink="http://www.w3.org/1999/xlink">
<g transform="scale(1, -1) translate(0, -720)">
<path d="M0,0L1080,0L1080,720L0,720Z" style="fill:#FFFFFF" />
<text x="332.84" y="-706.41" transform="scale(1, -1)"
	style="font-family:Helvetica;font-weight:normal;font-style:normal;font-size:12pt">Write 3M keys, 1K clients, key 64 bytes, value 256 bytes, CPU</text>
<text x="544.64" y="-4.965" transform="scale(1, -1)"
	style="font-family:Helvetica;font-weight:normal;font-style:normal;font-size:12pt">Second</text>
<text x="56.662" y="-19.142" transform="scale(1, -1)"
	style="font-family:Helvetica;font-weight:normal;font-style:normal;font-size:10pt">0</text>
<text x="347.95" y="-19.142" transform="scale(1, -1)"
	style="font-family:Helvetica;font-weight:normal;font-style:normal;font-size:10pt">50</text>
<text x="639.23" y="-19.142" transform="scale(1, -1)"
	style="font-family:Helvetica;font-weight:normal;font-style:normal;font-size:10pt">100</text>
<text x="933.99" y="-19.142" transform="scale(1, -1)"
	style="font-family:Helvetica;font-weight:normal;font-style:normal;font-size:10pt">150</text>
<path d="M60.137,30.467L60.137,40.467" style="fill:none;stroke:#000000;stroke-width:0.625" />
<path d="M354.9,30.467L354.9,40.467" style="fill:none;stroke:#000000;stroke-width:0.625" />
<path d="M649.65,30.467L649.65,40.467" style="fill:none;stroke:#000000;stroke-width:0.625" />
<path d="M944.41,30.467L944.41,40.467" style="fill:none;stroke:#000000;stroke-width:0.625" />
<path d="M119.09,35.468L119.09,40.467" style="fill:none;stroke:#000000;stroke-width:0.625" />
<path d="M178.04,35.468L178.04,40.467" style="fill:none;stroke:#000000;stroke-width:0.625" />
<path d="M236.99,35.468L236.99,40.467" style="fill:none;stroke:#000000;stroke-width:0.625" />
<path d="M295.94,35.468L295.94,40.467" style="fill:none;stroke:#000000;stroke-width:0.625" />
<path d="M413.85,35.468L413.85,40.467" style="fill:none;stroke:#000000;stroke-width:0.625" />
<path d="M472.8,35.468L472.8,40.467" style="fill:none;stroke:#000000;stroke-width:0.625" />
<path d="M531.75,35.468L531.75,40.467" style="fill:none;stroke:#000000;stroke-width:0.625" />
<path d="M590.7,35.468L590.7,40.467" style="fill:none;stroke:#000000;stroke-width:0.625" />
<path d="M708.6,35.468L708.6,40.467" style="fill:none;stroke:#000000;stroke-width:0.625" />
<path d="M767.56,35.468L767.56,40.467" style="fill:none;stroke:#000000;stroke-width:0.625" />
<path d="M826.51,35.468L826.51,40.467" style="fill:none;stroke:#000000;stroke-width:0.625" />
<path d="M885.46,35.468L885.46,40.467" style="fill:none;stroke:#000000;stroke-width:0.625" />
<path d="M1003.4,35.468L1003.4,40.467" style="fill:none;stroke:#000000;stroke-width:0.625" />
<path d="M1062.3,35.468L1062.3,40.467" style="fill:none;stroke:#000000;stroke-width:0.625" />
<path d="M60.137,40.467L1080,40.467" style="fill:none;stroke:#000000;stroke-width:0.625" />
<g transform="rotate(90)">
<text x="358.4" y="13.59" transform="scale(1, -1)"
	style="font-family:Helvetica;font-weight:normal;font-style:normal;font-size:12pt">CPU</text>
</g>
<text x="25.505" y="-220.95" transform="scale(1, -1)"
	style="font-family:Helvetica;font-weight:normal;font-style:normal;font-size:10pt">80</text>
<text x="18.555" y="-404.09" transform="scale(1, -1)"
	style="font-family:Helvetica;font-weight:normal;font-style:normal;font-size:10pt">160</text>
<text x="18.555" y="-587.22" transform="scale(1, -1)"
	style="font-family:Helvetica;font-weight:normal;font-style:normal;font-size:10pt">240</text>
<path d="M42.88,226.32L52.88,226.32" style="fill:none;stroke:#000000;stroke-width:0.625" />
<path d="M42.88,409.46L52.88,409.46" style="fill:none;stroke:#000000;stroke-width:0.625" />
<path d="M42.88,592.59L52.88,592.59" style="fill:none;stroke:#000000;stroke-width:0.625" />
<path d="M47.88,134.75L52.88,134.75" style="fill:none;stroke:#000000;stroke-width:0.625" />
<path d="M47.88,317.89L52.88,317.89" style="fill:none;stroke:#000000;stroke-width:0.625" />
<path d="M47.88,501.03L52.88,501.03" style="fill:none;stroke:#000000;stroke-width:0.625" />
<path d="M47.88,684.16L52.88,684.16" style="fill:none;stroke:#000000;stroke-width:0.625" />
<path d="M52.88,47.03L52.88,701.44" style="fill:none;stroke:#000000;stroke-width:0.625" />
<path d="M60.137,47.808L66.033,58.522L71.928,71.158L77.823,77.705L83.718,90.708L89.613,103.12L95.508,109.02L101.4,120.44L107.3,132.49L113.19,144.16L119.09,148.6L124.98,159.73L130.88,169.91L136.77,180.1L142.67,185.57L148.56,195.37L154.46,205.26L160.36,211.53L166.25,219.82L172.15,229.57L178.04,238.77L183.94,242.46L189.83,251.66L195.73,259.97L201.62,268.69L207.52,273.98L213.41,281.67L219.31,288.98L225.2,296.42L231.1,299.09L236.99,306.47L242.89,314.41L248.78,321.46L254.68,323.86L260.57,330.62L266.47,337.87L272.36,344.81L278.26,346.87L284.15,353.42L290.05,359.78L295.94,366.79L301.84,368.5L307.73,374.98L313.63,381.76L319.52,387.73L325.42,389.45L331.31,395.58L337.21,400.46L343.11,406.07L349,407.42L354.9,412.75L360.79,417.65L366.69,423.56L372.58,427.72L378.48,429.26L384.37,434.36L390.27,438.67L396.16,443.41L402.06,444.07L407.95,448.85L413.85,453.71L419.74,458.56L425.64,460.74L431.53,464.31L437.43,469.02L443.32,473.76L449.22,476.9L455.11,478.68L461.01,482.94L466.9,487.29L472.8,490.98L478.69,492.23L484.59,496.45L490.48,500.59L496.38,504.23L502.27,505.1L508.17,508.6L514.06,512.08L519.96,515.63L525.86,518.97L531.75,517.87L537.65,521.33L543.54,524.86L549.44,528.93L555.33,529.32L561.23,532.73L567.12,536.53L573.02,539.99L578.91,542.73L584.81,542.94L590.7,546.56L596.6,550.33L602.49,554.13L608.39,554.59L614.28,557.73L620.18,560.96L626.07,564.62L631.97,565.03L637.86,567.05L643.76,570.37L649.65,573.87L655.55,576.34L661.44,575.81L667.34,579.36L673.23,582.91L679.13,585.86L685.02,586.66L690.92,589.87L696.81,592.73L702.71,596.1L708.6,596.83L714.5,599.85L720.4,602.78L726.29,605.37L732.19,606.56L738.08,608.32L743.98,611.36L749.87,614.75L755.77,617.09L761.66,616.84L767.56,619.17L773.45,622.33L779.35,625.17L785.24,625.28L791.14,628.05L797.03,630.73L802.93,633.55L808.82,635.15L814.72,637.58L820.61,640.09L826.51,642.22L832.4,643.28L838.3,644.15L844.19,646.76L850.09,648.66L855.98,650.69L861.88,651.56L867.77,653.94L873.67,656.62L879.56,659.19L885.46,660.79L891.35,662.23L897.25,664.7L903.15,665.89L909.04,668.11L914.94,667.2L920.83,669.21L926.73,670.17L932.62,672.56L938.52,673.33L944.41,673.84L950.31,675.51L956.2,677.57L962.1,678.64L967.99,680.38L973.89,680.87L979.78,680.91L985.68,683.45L991.57,684.62L997.47,687.62L1003.4,687.11L1009.3,689.17L1015.2,691.05L1021,692.01L1026.9,693.25L1032.8,692.27L1038.7,694.37L1044.6,694.99L1050.5,696.89L1056.4,697.92L1062.3,697.19L1068.2,699.18L1074.1,699.73L1080,701.44" style="fill:none;stroke:#F15A60;stroke-width:1.875" />
<path d="M60.137,50.326L66.033,62.894L71.928,69.556L77.823,81.666L83.718,94.188L89.613,101.86L95.508,113.14L101.4,124.66L107.3,131.62L113.19,142.01L119.09,152.77L124.98,162.02L130.88,169.37L136.77,179.48L142.67,189.12L148.56,194.09L154.46,203.38L160.36,212.22L166.25,216.98L172.15,222.02L178.04,230.44L183.94,238.52L189.83,242L195.73,249.65L201.62,258.46L207.52,266.61L213.41,270.94L219.31,278.67L225.2,286.23L231.1,289.46L236.99,295.84L242.89,302.69L248.78,309.03L254.68,310.84L260.57,317.55L266.47,324.05L272.36,330.43L278.26,331.28L284.15,337.48L290.05,344.12L295.94,350.49L301.84,353.94L307.73,360.01L313.63,366.69L319.52,369.97L325.42,375.6L331.31,381.05L337.21,386.52L343.11,389.29L349,394.97L354.9,400.37L360.79,405.61L366.69,407.74L372.58,412.94L378.48,417.86L384.37,420.77L390.27,425.05L396.16,430.06L402.06,435.05L407.95,437L413.85,441.89L419.74,446.59L425.64,451.35L431.53,453.55L437.43,457.92L443.32,462.13L449.22,464.74L455.11,468.4L461.01,472.94L466.9,477.49L472.8,479.14L478.69,483.03L484.59,487.06L490.48,491.39L496.38,493.1L502.27,496.9L508.17,500.54L514.06,503.38L519.96,505.72L525.86,509.84L531.75,514.05L537.65,515.36L543.54,518.88L549.44,522.31L555.33,525.79L561.23,526.89L567.12,530.62L573.02,534.13L578.91,538.09L584.81,537.97L590.7,541.75L596.6,545.3L602.49,547.98L608.39,547.31L614.28,550.13L620.18,552.21L626.07,554.66L631.97,557.06L637.86,557.41L643.76,560.2L649.65,562.56L655.55,564.53L661.44,564.5L667.34,567.07L673.23,569.59L679.13,572.56L685.02,573.27L690.92,575.1L696.81,576.84L702.71,580.23L708.6,582.89L714.5,584.01L720.4,587.51L726.29,589.48L732.19,590.51L738.08,592.5L743.98,594.13L749.87,596.92L755.77,598.52L761.66,600.22L767.56,602.83L773.45,604.45L779.35,607.24L785.24,606.79L791.14,609.95L797.03,611.98L802.93,614.94L808.82,614.73L814.72,617.66L820.61,619.95L826.51,622.49L832.4,622.9L838.3,624.89L844.19,627.66L850.09,629.11L855.98,630.27L861.88,631.97L867.77,634.62L873.67,636.43L879.56,637.69L885.46,639.8L891.35,640.85L897.25,641.7L903.15,642.43L909.04,642.8L914.94,643.09L920.83,643.28L926.73,643.73L932.62,642.68L938.52,643.09L944.41,643.25L950.31,643.94L956.2,645.13L962.1,644.42L967.99,645.18L973.89,646.78L979.78,648.01L985.68,648.45" style="fill:none;stroke:#7AC36A;stroke-width:1.875;stroke-dasharray:7.5,2.5" />
<path d="M60.137,47.03L66.033,48.518L71.928,50.761L77.823,55.294L83.718,67.953L89.613,78.392L95.508,86.221L101.4,96.202L107.3,103.62L113.19,112.82L119.09,119.67L124.98,129.21L130.88,137.55L136.77,145.6L142.67,153.62L148.56,160.41L154.46,168.59L160.36,176.19L166.25,183.79L172.15,191.02L178.04,198.23L183.94,203.5L189.83,209.4L195.73,214.81L201.62,221.6L207.52,228.31L213.41,236.81L219.31,243.24L225.2,248.89L231.1,254.68L236.99,261.14L242.89,266.91L248.78,274.23L254.68,280.44L260.57,285.22L266.47,287.88L272.36,291.59L278.26,297.24L284.15,302.51L290.05,305.76L295.94,307.72L301.84,307.15L307.73,305.87L313.63,304.25L319.52,302.21L325.42,299.19L331.31,297.29L337.21,294.68L343.11,292.94L349,291.47L354.9,291.15L360.79,290.67L366.69,289.94L372.58,289L378.48,287.67L384.37,288.08L390.27,288.24L396.16,287.44L402.06,286.73L407.95,286.27L413.85,286.3L419.74,287.1L425.64,287.63L431.53,289.73L437.43,291.01L443.32,292.27L449.22,294.2L455.11,299.55L461.01,302.16L466.9,305.44L472.8,310.01L478.69,314.73L484.59,318.05L490.48,320.27L496.38,323.7L502.27,327.41L508.17,330.41L514.06,333.52L519.96,336.87L525.86,341.42L531.75,345.22L537.65,347.19L543.54,349.89L549.44,353.46L555.33,357.58L561.23,359.92L567.12,360.72L573.02,362.6L578.91,363.26L584.81,362.71L590.7,361.52L596.6,359.19L602.49,357.47L608.39,354.93L614.28,353.33L620.18,350.72L626.07,349.07L631.97,346.71L637.86,345.2L643.76,343.14L649.65,341.19L655.55,339.29L661.44,337.32L667.34,335.54L673.23,333.66L679.13,331.78L685.02,330.32L690.92,328.42L696.81,326.68L702.71,324.96L708.6,323.31L714.5,321.64L720.4,319.93L726.29,318.3L732.19,316.7L738.08,315.1L743.98,313.59L749.87,313.29L755.77,311.78L761.66,311.16L767.56,310.63L773.45,310.63L779.35,311.43L785.24,312.03L791.14,312.49L797.03,313.24L802.93,313.93L808.82,314.59L814.72,315.23" style="fill:none;stroke:#5A9BD4;stroke-width:1.875;stroke-dasharray:2.5,2.5" />
<path d="M1055,694.3L1080,694.3" style="fill:none;stroke:#7AC36A;stroke-width:1.875;stroke-dasharray:7.5,2.5" />
<text x="951.62" y="-687.85" transform="scale(1, -1)"
	style="font-family:Helvetica;font-weight:normal;font-style:normal;font-size:12pt">etcd v3 (patch)</text>
<path d="M1055,680L1080,680" style="fill:none;stroke:#5A9BD4;stroke-width:1.875;stroke-dasharray:2.5,2.5" />
<text x="934.1" y="-673.56" transform="scale(1, -1)"
	style="font-family:Helvetica;font-weight:normal;font-style:normal;font-size:12pt">Zookeeper v3.4.8</text>
<path d="M1055,665.71L1080,665.71" style="fill:none;stroke:#F15A60;stroke-width:1.875" />
<text x="1002.5" y="-659.26" transform="scale(1, -1)"
	style="font-family:Helvetica;font-weight:normal;font-style:normal;font-size:12pt">etcd v3</text>
</g>
</svg>
