<?xml version="1.0"?>
<!-- Generated by SVGo and Plotinum VG -->
<svg width="12in" height="8in"
	xmlns="http://www.w3.org/2000/svg"
	xmlns:xlink="http://www.w3.org/1999/xlink">
<g transform="scale(1, -1) translate(0, -720)">
<path d="M0,0L1080,0L1080,720L0,720Z" style="fill:#FFFFFF" />
<text x="305.34" y="-706.41" transform="scale(1, -1)"
	style="font-family:Helvetica;font-weight:normal;font-style:normal;font-size:12pt">Write 3M keys, 1K clients, key 64 bytes, value 256 bytes, Memory(MB)</text>
<text x="548.11" y="-4.965" transform="scale(1, -1)"
	style="font-family:Helvetica;font-weight:normal;font-style:normal;font-size:12pt">Second</text>
<text x="63.613" y="-19.142" transform="scale(1, -1)"
	style="font-family:Helvetica;font-weight:normal;font-style:normal;font-size:10pt">0</text>
<text x="352.89" y="-19.142" transform="scale(1, -1)"
	style="font-family:Helvetica;font-weight:normal;font-style:normal;font-size:10pt">50</text>
<text x="642.16" y="-19.142" transform="scale(1, -1)"
	style="font-family:Helvetica;font-weight:normal;font-style:normal;font-size:10pt">100</text>
<text x="934.91" y="-19.142" transform="scale(1, -1)"
	style="font-family:Helvetica;font-weight:normal;font-style:normal;font-size:10pt">150</text>
<path d="M67.088,30.467L67.088,40.467" style="fill:none;stroke:#000000;stroke-width:0.625" />
<path d="M359.84,30.467L359.84,40.467" style="fill:none;stroke:#000000;stroke-width:0.625" />
<path d="M652.59,30.467L652.59,40.467" style="fill:none;stroke:#000000;stroke-width:0.625" />
<path d="M945.34,30.467L945.34,40.467" style="fill:none;stroke:#000000;stroke-width:0.625" />
<path d="M125.64,35.468L125.64,40.467" style="fill:none;stroke:#000000;stroke-width:0.625" />
<path d="M184.19,35.468L184.19,40.467" style="fill:none;stroke:#000000;stroke-width:0.625" />
<path d="M242.74,35.468L242.74,40.467" style="fill:none;stroke:#000000;stroke-width:0.625" />
<path d="M301.29,35.468L301.29,40.467" style="fill:none;stroke:#000000;stroke-width:0.625" />
<path d="M418.39,35.468L418.39,40.467" style="fill:none;stroke:#000000;stroke-width:0.625" />
<path d="M476.94,35.468L476.94,40.467" style="fill:none;stroke:#000000;stroke-width:0.625" />
<path d="M535.49,35.468L535.49,40.467" style="fill:none;stroke:#000000;stroke-width:0.625" />
<path d="M594.04,35.468L594.04,40.467" style="fill:none;stroke:#000000;stroke-width:0.625" />
<path d="M711.14,35.468L711.14,40.467" style="fill:none;stroke:#000000;stroke-width:0.625" />
<path d="M769.69,35.468L769.69,40.467" style="fill:none;stroke:#000000;stroke-width:0.625" />
<path d="M828.24,35.468L828.24,40.467" style="fill:none;stroke:#000000;stroke-width:0.625" />
<path d="M886.79,35.468L886.79,40.467" style="fill:none;stroke:#000000;stroke-width:0.625" />
<path d="M1003.9,35.468L1003.9,40.467" style="fill:none;stroke:#000000;stroke-width:0.625" />
<path d="M1062.4,35.468L1062.4,40.467" style="fill:none;stroke:#000000;stroke-width:0.625" />
<path d="M67.088,40.467L1080,40.467" style="fill:none;stroke:#000000;stroke-width:0.625" />
<g transform="rotate(90)">
<text x="330.91" y="13.59" transform="scale(1, -1)"
	style="font-family:Helvetica;font-weight:normal;font-style:normal;font-size:12pt">Memory(MB)</text>
</g>
<text x="25.505" y="-224.34" transform="scale(1, -1)"
	style="font-family:Helvetica;font-weight:normal;font-style:normal;font-size:10pt">800</text>
<text x="18.555" y="-416.69" transform="scale(1, -1)"
	style="font-family:Helvetica;font-weight:normal;font-style:normal;font-size:10pt">1600</text>
<text x="18.555" y="-609.04" transform="scale(1, -1)"
	style="font-family:Helvetica;font-weight:normal;font-style:normal;font-size:10pt">2400</text>
<path d="M49.83,229.71L59.83,229.71" style="fill:none;stroke:#000000;stroke-width:0.625" />
<path d="M49.83,422.06L59.83,422.06" style="fill:none;stroke:#000000;stroke-width:0.625" />
<path d="M49.83,614.41L59.83,614.41" style="fill:none;stroke:#000000;stroke-width:0.625" />
<path d="M54.83,133.54L59.83,133.54" style="fill:none;stroke:#000000;stroke-width:0.625" />
<path d="M54.83,325.88L59.83,325.88" style="fill:none;stroke:#000000;stroke-width:0.625" />
<path d="M54.83,518.23L59.83,518.23" style="fill:none;stroke:#000000;stroke-width:0.625" />
<path d="M59.83,47.03L59.83,701.44" style="fill:none;stroke:#000000;stroke-width:0.625" />
<path d="M67.088,47.03L72.942,69.313L78.797,73.17L84.652,74.052L90.507,76.31L96.362,80.181L102.22,80.717L108.07,84.182L113.93,86.014L119.78,88.64L125.64,90.041L131.49,92.864L137.35,95.521L143.2,97.238L149.06,98.632L154.91,100.46L160.77,103.61L166.62,104.9L172.48,107.24L178.33,110.37L184.19,112.44L190.04,114.4L195.9,116.22L201.75,118.67L207.61,120.89L213.46,122.19L219.32,125.01L225.17,126.86L231.03,129.84L236.88,130.77L242.74,133.2L248.59,136.45L254.45,138.3L260.3,139.25L266.16,140.59L272.01,143.91L277.87,145.88L283.72,147.18L289.58,150.95L295.43,153.39L301.29,155.93L307.14,156.65L313,158.9L318.85,162.1L324.71,164.2L330.56,164.96L336.42,166.96L342.27,169.69L348.13,172.83L353.98,173.76L359.84,175.6L365.69,177.47L371.55,179.66L377.4,181.69L383.26,183.17L389.11,184.93L394.97,186.84L400.82,188.78L406.68,189.37L412.53,191.75L418.39,193.76L424.24,196.88L430.1,197.47L435.95,200.77L441.81,204.04L447.66,206.29L453.52,207.13L459.37,208.07L465.23,209.77L471.08,212.41L476.94,214.38L482.79,214.88L488.65,216.8L494.5,221.58L500.36,223.33L506.21,224.03L512.07,226.68L517.92,228.86L523.78,231.26L529.63,232.53L535.49,232.81L541.34,235.01L547.2,236.37L553.05,239.05L558.91,239.51L564.76,241.99L570.62,246.64L576.47,248.52L582.33,251.71L588.18,252.95L594.04,255.43L599.89,256.67L605.75,258.18L611.6,260.21L617.46,261.77L623.31,264.07L629.17,267.49L635.02,268.12L640.88,269.73L646.73,270.66L652.59,273.91L658.44,276L664.3,276.9L670.15,278.84L676.01,280.56L681.86,282.99L687.72,285.02L693.57,287L699.43,289.56L705.28,291.63L711.14,292.88L716.99,294.09L722.85,296.61L728.7,299.21L734.56,301.11L740.41,302.31L746.27,304.73L752.12,306.55L757.98,308.32L763.83,309.06L769.69,311.42L775.54,314.6L781.4,316.73L787.25,317.96L793.11,321.02L798.96,323.29L804.82,324.68L810.67,326.33L816.53,327.72L822.38,328.79L828.24,331.18L834.09,333.03L839.95,335.06L845.8,337.39L851.66,338.26L857.51,340.22L863.37,341.49L869.22,342.88L875.08,345.64L880.93,347.58L886.79,349.34L892.64,350.95L898.5,353.15L904.35,354.92L910.21,356.52L916.06,357.14L921.92,359.55L927.77,361.77L933.63,363.14L939.48,364.1L945.34,365.65L951.19,367.09L957.05,369.65L962.9,371.4L968.76,373.18L974.61,374.03L980.47,374.41L986.32,377.76L992.18,378.44L998.03,381.18L1003.9,381.84L1009.7,384.41L1015.6,386.04L1021.5,387.44L1027.3,388.51L1033.2,389.29L1039,392.26L1044.9,393.53L1050.7,395.22L1056.6,397.23L1062.4,397.61L1068.3,400.02L1074.1,401.28L1080,403.19" style="fill:none;stroke:#F15A60;stroke-width:1.875" />
<path d="M67.088,62.644L72.942,73.252L78.797,74.098L84.652,76.914L90.507,79.943L96.362,82.571L102.22,84.819L108.07,87.784L113.93,89.512L119.78,92.713L125.64,95.744L131.49,99.551L137.35,101.27L143.2,103.35L149.06,107.09L154.91,108.32L160.77,110.79L166.62,114.31L172.48,114.93L178.33,116.91L184.19,119.32L190.04,123.22L195.9,124.33L201.75,127.33L207.61,129.33L213.46,132.21L219.32,134.05L225.17,137.82L231.03,141.02L236.88,141.81L242.74,144.06L248.59,146.36L254.45,149.62L260.3,150.26L266.16,151.83L272.01,155.23L277.87,157.56L283.72,159.14L289.58,161.24L295.43,165.38L301.29,167.36L307.14,168.62L313,170.57L318.85,173.6L324.71,174.81L330.56,177.9L336.42,181.31L342.27,183.27L348.13,184.49L353.98,186.49L359.84,188.86L365.69,191.12L371.55,192.42L377.4,194.55L383.26,197.22L389.11,199.65L394.97,200.9L400.82,203.81L406.68,206.82L412.53,207.76L418.39,210.46L424.24,213.1L430.1,215.16L435.95,217.01L441.81,219.82L447.66,221.94L453.52,223.63L459.37,225.45L465.23,228.33L471.08,232.42L476.94,234.33L482.79,236.7L488.65,237.65L494.5,239.75L500.36,241.59L506.21,243.95L512.07,245.93L517.92,248.45L523.78,250.9L529.63,253.27L535.49,256.2L541.34,257.51L547.2,259.96L553.05,262.77L558.91,265.71L564.76,266.68L570.62,268.65L576.47,272.31L582.33,275.3L588.18,276.3L594.04,277.53L599.89,279.67L605.75,281.79L611.6,282.45L617.46,285.41L623.31,286.22L629.17,288.06L635.02,290.07L640.88,292.3L646.73,294.9L652.59,296.95L658.44,298.77L664.3,300.28L670.15,301.41L676.01,303.08L681.86,304.7L687.72,306.38L693.57,308.48L699.43,310.37L705.28,313.77L711.14,316L716.99,317.08L722.85,319.97L728.7,322.86L734.56,323.85L740.41,325.41L746.27,327.18L752.12,328.89L757.98,330.87L763.83,333.31L769.69,334.87L775.54,336.52L781.4,339.1L787.25,339.72L793.11,342.42L798.96,343.84L804.82,346.93L810.67,348.42L816.53,350.07L822.38,352.9L828.24,354.99L834.09,356.03L839.95,358.89L845.8,361.7L851.66,364.2L857.51,365.58L863.37,368.11L869.22,371.07L875.08,372.1L880.93,374.23L886.79,375.24L892.64,377.46L898.5,378.54L904.35,379.76L910.21,380.13L916.06,381.79L921.92,384.78L927.77,386.83L933.63,388.88L939.48,390.38L945.34,391.87L951.19,524.32L957.05,549.03L962.9,549.78L968.76,552.33" style="fill:none;stroke:#7AC36A;stroke-width:1.875;stroke-dasharray:7.5,2.5" />
<path d="M67.088,58.838L72.942,62.048L78.797,67.907L84.652,75.582L90.507,102.41L96.362,143.32L102.22,171.34L108.07,220.6L113.93,245.62L119.78,259.16L125.64,282.49L131.49,327.48L137.35,361.63L143.2,377.57L149.06,384.23L154.91,388.24L160.77,456.81L166.62,459.13L172.48,461.38L178.33,461.38L184.19,481.11L190.04,481.11L195.9,488.96L201.75,491.5L207.61,493.85L213.46,493.85L219.32,515.75L225.17,518.07L231.03,518.07L236.88,525.24L242.74,527.6L248.59,527.6L254.45,553.92L260.3,563.59L266.16,567.48L272.01,573.37L277.87,573.37L283.72,576.77L289.58,576.03L295.43,576.03L301.29,576.03L307.14,576.04L313,576.04L318.85,576.04L324.71,576.04L330.56,576.04L336.42,576.04L342.27,576.04L348.13,576.06L353.98,576.23L359.84,576.09L365.69,576.37L371.55,576.37L377.4,576.31L383.26,576.34L389.11,608.43L394.97,599.53L400.82,599.53L406.68,600.18L412.53,600.19L418.39,600.8L424.24,600.88L430.1,600.88L435.95,602.28L441.81,601.94L447.66,601.94L453.52,607.69L459.37,608.54L465.23,608.57L471.08,610.19L476.94,611.18L482.79,622.73L488.65,622.79L494.5,624.93L500.36,625.29L506.21,627.88L512.07,628.93L517.92,632.36L523.78,641.57L529.63,651.63L535.49,658.91L541.34,659.02L547.2,666.03L553.05,680.67L558.91,689.48L564.76,691.52L570.62,696.47L576.47,696.41L582.33,701.01L588.18,701.12L594.04,701.41L599.89,701.31L605.75,701.31L611.6,701.32L617.46,701.33L623.31,701.33L629.17,701.33L635.02,701.33L640.88,701.34L646.73,701.34L652.59,701.34L658.44,701.34L664.3,701.34L670.15,701.34L676.01,701.34L681.86,701.34L687.72,701.4L693.57,701.4L699.43,701.4L705.28,701.4L711.14,701.4L716.99,701.4L722.85,701.4L728.7,701.4L734.56,701.4L740.41,701.4L746.27,701.4L752.12,701.44L757.98,701.44L763.83,700.58L769.69,700.28L775.54,699.76L781.4,697.66L787.25,696.18L793.11,696.33L798.96,695.41L804.82,695.6L810.67,697.24L816.53,698.89" style="fill:none;stroke:#5A9BD4;stroke-width:1.875;stroke-dasharray:2.5,2.5" />
<path d="M1055,694.3L1080,694.3" style="fill:none;stroke:#5A9BD4;stroke-width:1.875;stroke-dasharray:2.5,2.5" />
<text x="934.1" y="-687.85" transform="scale(1, -1)"
	style="font-family:Helvetica;font-weight:normal;font-style:normal;font-size:12pt">Zookeeper v3.4.8</text>
<path d="M1055,680L1080,680" style="fill:none;stroke:#F15A60;stroke-width:1.875" />
<text x="1002.5" y="-673.56" transform="scale(1, -1)"
	style="font-family:Helvetica;font-weight:normal;font-style:normal;font-size:12pt">etcd v3</text>
<path d="M1055,665.71L1080,665.71" style="fill:none;stroke:#7AC36A;stroke-width:1.875;stroke-dasharray:7.5,2.5" />
<text x="951.62" y="-659.26" transform="scale(1, -1)"
	style="font-family:Helvetica;font-weight:normal;font-style:normal;font-size:12pt">etcd v3 (patch)</text>
</g>
</svg>
