<?xml version="1.0"?>
<!-- Generated by SVGo and Plotinum VG -->
<svg width="12in" height="8in"
	xmlns="http://www.w3.org/2000/svg"
	xmlns:xlink="http://www.w3.org/1999/xlink">
<g transform="scale(1, -1) translate(0, -720)">
<path d="M0,0L1080,0L1080,720L0,720Z" style="fill:#FFFFFF" />
<text x="298.25" y="-706.41" transform="scale(1, -1)"
	style="font-family:Helvetica;font-weight:normal;font-style:normal;font-size:12pt">Write 300K keys, 1K clients, key 64 bytes, value 256 bytes, Memory(MB)</text>
<text x="548.11" y="-4.965" transform="scale(1, -1)"
	style="font-family:Helvetica;font-weight:normal;font-style:normal;font-size:12pt">Second</text>
<text x="63.613" y="-19.142" transform="scale(1, -1)"
	style="font-family:Helvetica;font-weight:normal;font-style:normal;font-size:10pt">0</text>
<text x="317.66" y="-19.142" transform="scale(1, -1)"
	style="font-family:Helvetica;font-weight:normal;font-style:normal;font-size:10pt">60</text>
<text x="571.7" y="-19.142" transform="scale(1, -1)"
	style="font-family:Helvetica;font-weight:normal;font-style:normal;font-size:10pt">120</text>
<text x="829.22" y="-19.142" transform="scale(1, -1)"
	style="font-family:Helvetica;font-weight:normal;font-style:normal;font-size:10pt">180</text>
<path d="M67.088,30.467L67.088,40.467" style="fill:none;stroke:#000000;stroke-width:0.625" />
<path d="M324.61,30.467L324.61,40.467" style="fill:none;stroke:#000000;stroke-width:0.625" />
<path d="M582.13,30.467L582.13,40.467" style="fill:none;stroke:#000000;stroke-width:0.625" />
<path d="M839.65,30.467L839.65,40.467" style="fill:none;stroke:#000000;stroke-width:0.625" />
<path d="M152.93,35.468L152.93,40.467" style="fill:none;stroke:#000000;stroke-width:0.625" />
<path d="M238.77,35.468L238.77,40.467" style="fill:none;stroke:#000000;stroke-width:0.625" />
<path d="M410.45,35.468L410.45,40.467" style="fill:none;stroke:#000000;stroke-width:0.625" />
<path d="M496.29,35.468L496.29,40.467" style="fill:none;stroke:#000000;stroke-width:0.625" />
<path d="M667.97,35.468L667.97,40.467" style="fill:none;stroke:#000000;stroke-width:0.625" />
<path d="M753.81,35.468L753.81,40.467" style="fill:none;stroke:#000000;stroke-width:0.625" />
<path d="M925.49,35.468L925.49,40.467" style="fill:none;stroke:#000000;stroke-width:0.625" />
<path d="M1011.3,35.468L1011.3,40.467" style="fill:none;stroke:#000000;stroke-width:0.625" />
<path d="M67.088,40.467L1080,40.467" style="fill:none;stroke:#000000;stroke-width:0.625" />
<g transform="rotate(90)">
<text x="330.91" y="13.59" transform="scale(1, -1)"
	style="font-family:Helvetica;font-weight:normal;font-style:normal;font-size:12pt">Memory(MB)</text>
</g>
<text x="25.505" y="-191.76" transform="scale(1, -1)"
	style="font-family:Helvetica;font-weight:normal;font-style:normal;font-size:10pt">400</text>
<text x="25.505" y="-369.35" transform="scale(1, -1)"
	style="font-family:Helvetica;font-weight:normal;font-style:normal;font-size:10pt">800</text>
<text x="18.555" y="-546.94" transform="scale(1, -1)"
	style="font-family:Helvetica;font-weight:normal;font-style:normal;font-size:10pt">1200</text>
<path d="M49.83,197.13L59.83,197.13" style="fill:none;stroke:#000000;stroke-width:0.625" />
<path d="M49.83,374.72L59.83,374.72" style="fill:none;stroke:#000000;stroke-width:0.625" />
<path d="M49.83,552.31L59.83,552.31" style="fill:none;stroke:#000000;stroke-width:0.625" />
<path d="M54.83,108.33L59.83,108.33" style="fill:none;stroke:#000000;stroke-width:0.625" />
<path d="M54.83,285.93L59.83,285.93" style="fill:none;stroke:#000000;stroke-width:0.625" />
<path d="M54.83,463.52L59.83,463.52" style="fill:none;stroke:#000000;stroke-width:0.625" />
<path d="M54.83,641.11L59.83,641.11" style="fill:none;stroke:#000000;stroke-width:0.625" />
<path d="M59.83,47.03L59.83,701.44" style="fill:none;stroke:#000000;stroke-width:0.625" />
<path d="M67.088,47.03L71.38,78.255L75.672,82.752L79.964,87.432L84.256,89.683L88.548,91.375L92.84,94.331L97.132,98.372L101.42,101.44L105.72,103.93L110.01,105.12L114.3,109.26L118.59,111.22L122.88,116.88L127.18,118.31L131.47,119.87L135.76,122.7L140.05,126.63L144.34,130L148.64,132.81L152.93,134.61L157.22,137.61L161.51,140.33L165.8,142.79L170.1,147.24L174.39,148.62L178.68,151.15L182.97,154.51L187.26,157.65L191.56,161.25L195.85,164.64L200.14,166.94L204.43,170.3L208.72,172.6L213.02,175.9L217.31,180.12L221.6,182L225.89,182.97L230.18,186.08L234.48,190.54L238.77,192.21L243.06,194.41L247.35,195.11L251.64,198.69L255.94,202.04L260.23,205.44L264.52,210.48L268.81,212.84L273.1,214.82L277.4,218.6L281.69,220.07L285.98,224.07L290.27,226.34L294.56,228.15L298.86,231.75L303.15,235.96L307.44,239.48L311.73,241.23L316.02,244.75L320.32,245.92L324.61,249.76L328.9,252.29L333.19,254.94L337.48,257.32L341.78,260.11L346.07,262.44L350.36,266.83L354.65,269.41L358.94,273.25L363.24,276.45L367.53,277.33L371.82,280.23L376.11,282.35L380.4,285.7L384.7,287.77L388.99,290.86L393.28,294.25L397.57,296.98L401.86,300.67L406.16,302.07L410.45,305.75L414.74,307.56L419.03,310.42L423.32,314.29L427.62,317.21L431.91,320.46L436.2,322.37L440.49,323.35L444.78,327.44L449.08,330.3L453.37,333.15L457.66,334.36L461.95,339.43L466.24,342.77L470.54,344.39L474.83,349.17L479.12,352.39L483.41,354.32L487.7,355.59L492,359.36L496.29,362.11L500.58,363.4L504.87,368.47L509.16,373.75L513.46,375.67L517.75,378.53L522.04,381.72L526.33,383.13L530.62,385.79L534.92,390.73L539.21,391.59L543.5,394.28L547.79,396.31L552.08,400.07L556.38,403.7L560.67,405.2L564.96,407.93L569.25,411.04L573.54,413.27L577.84,416.3L582.13,420.14L586.42,421.44L590.71,422.45L595,427.62L599.3,430.84L603.59,432.38L607.88,435.02L612.17,436.08L616.46,439.98L620.76,441.96L625.05,444.82L629.34,449.31L633.63,450.12L637.92,453.15L642.22,455.32L646.51,458.77L650.8,461.07L655.09,463.99L659.38,466.27L663.68,468.35L667.97,469.54L672.26,474.2L676.55,475.37L680.84,480.77L685.14,482.34L689.43,484.12L693.72,485.01L698.01,488.03L702.3,489L706.6,494.08L710.89,496.13L715.18,500.28L719.47,502.02L723.76,506.66L728.06,508.71L732.35,510.58L736.64,512.1L740.93,513.97L745.22,515.55L749.52,518.71L753.81,521.65L758.1,524.59L762.39,526.9L766.68,527.12L770.98,530.7L775.27,533.54L779.56,535.87L783.85,537.91L788.14,541.36L792.44,544.17L796.73,544.17L801.02,546.5L805.31,549.22L809.6,549.83L813.9,555.68L818.19,556.72L822.48,558L826.77,558.56L831.06,560.97L835.36,564.91L839.65,566.32L843.94,571.21L848.23,573.18L852.52,574.41L856.82,578.81L861.11,581.04L865.4,583.21L869.69,585.86L873.98,587.74L878.28,590.39L882.57,592.16L886.86,594.66L891.15,599.05L895.44,600.27L899.74,602.81L904.03,606.16L908.32,606.36L912.61,609.77L916.9,611.75L921.2,612.4L925.49,616.41L929.78,616.73L934.07,619.5L938.36,625.17L942.66,626.01L946.95,630.12L951.24,631.78L955.53,633.77L959.82,635.69L964.12,637.7L968.41,639.25L972.7,642.92L976.99,645.02L981.28,646.84L985.58,650.07L989.87,651.05L994.16,653.37L998.45,657.05L1002.7,659.39L1007,660.28L1011.3,663.33L1015.6,666.81L1019.9,667.14L1024.2,669.8L1028.5,673.31L1032.8,673.89L1037.1,678.59L1041.4,680.44L1045.7,680.83L1050,683.88L1054.2,687.04L1058.5,687.51L1062.8,693.11L1067.1,695.66L1071.4,695.93L1075.7,697.71L1080,701.44" style="fill:none;stroke:#F15A60;stroke-width:1.875" />
<path d="M67.088,52.526L71.38,76.808L75.672,83.014L79.964,83.933L84.256,86.442L88.548,90.056L92.84,95.131L97.132,97.506L101.42,98.212L105.72,101.91L110.01,105.92L114.3,109.62L118.59,112.78L122.88,114.25L127.18,117.13L131.47,120.47L135.76,124.27L140.05,128.45L144.34,128.53L148.64,131.87L152.93,135.32L157.22,139.68L161.51,143.04L165.8,143.67L170.1,145.94L174.39,152.11L178.68,154.98L182.97,157.25L187.26,159.59L191.56,159.72L195.85,162.06L200.14,165.81L204.43,170.03L208.72,172.76L213.02,173.79L217.31,175.35L221.6,178.1L225.89,182.52L230.18,185.92L234.48,188.54L238.77,188.92L243.06,191.56L247.35,196.19L251.64,199.71L255.94,202.61L260.23,203.36L264.52,205.74L268.81,210.45L273.1,213.54L277.4,216.03L281.69,218.51L285.98,218.78L290.27,223.39L294.56,226.81L298.86,229.84L303.15,231.57L307.44,233.23L311.73,235.4L316.02,239.09L320.32,243.35L324.61,246.49L328.9,247.97L333.19,249.09L337.48,251.94L341.78,256.46L346.07,258.88L350.36,263.07L354.65,265.16L358.94,266.76L363.24,268.89L367.53,272.18L371.82,273.96L376.11,276.91L380.4,280.23L384.7,280.93L388.99,284.55L393.28,287.35L397.57,290.12L401.86,294.27L406.16,297.08L410.45,299.73L414.74,302.39L419.03,306.49L423.32,308.21L427.62,310.12L431.91,312.19L436.2,314.36L440.49,317.91L444.78,324.01L449.08,326.12L453.37,328.83L457.66,331.15L461.95,333.66L466.24,335.52L470.54,338.31L474.83,342.18L479.12,345.58L483.41,346.93L487.7,351.47L492,355.29L496.29,358.06L500.58,360.34L504.87,361.4L509.16,363.42L513.46,366.37L517.75,371.78L522.04,375.64L526.33,379.7L530.62,380.16L534.92,383.83L539.21,386.07L543.5,389.2L547.79,393.01L552.08,395.5L556.38,396.7L560.67,400.85L564.96,404.01L569.25,410.02L573.54,413.21L577.84,415.04L582.13,417.05L586.42,420.31L590.71,424.1L595,426.04L599.3,428.56L603.59,429.68L607.88,432.25L612.17,436.44L616.46,440.23L620.76,441.68L625.05,444.28L629.34,445.31L633.63,447.25L637.92,451.59L642.22,454.44L646.51,456.73L650.8,460.29L655.09,460.68L659.38,462.94L663.68,465.88L667.97,468.16L672.26,469.7L676.55,474.84L680.84,475.55L685.14,478.65L689.43,481.49L693.72,484.67L698.01,486.43L702.3,490.23L706.6,491.22L710.89,492.7L715.18,497.67L719.47,500.39L723.76,502.43L728.06,504.11L732.35,506.06L736.64,507.91L740.93,512.23L745.22,516.19L749.52,520.08L753.81,522.02L758.1,522.3L762.39,524.19L766.68,526.57L770.98,527.76L775.27,532.2L779.56,534.23L783.85,537.16L788.14,537.23L792.44,537.73L796.73,543.41L801.02,543.85L805.31,549.96L809.6,550.74L813.9,551.43L818.19,555.05L822.48,556.01L826.77,561.29L831.06,562.44L835.36,567.3L839.65,568.61L843.94,570.27L848.23,572.81L852.52,574.68L856.82,577.14L861.11,581.46L865.4,581.74L869.69,584.87L873.98,588.44L878.28,590.72L882.57,594.18L886.86,596.15L891.15,596.5L895.44,600.97L899.74,604.06L904.03,605.47L908.32,609.08L912.61,610.6L916.9,610.78L921.2,615.1L925.49,617.68L929.78,618.85L934.07,623.58L938.36,624.8L942.66,628.2L946.95,629.52L951.24,630.01L955.53,634.16L959.82,637.77L964.12,638.51L968.41,644.49L972.7,645.47L976.99,645.96L981.28,649.02L985.58,651.62L989.87,652.43L994.16,657.33L998.45,660.05L1002.7,660.98L1007,662.69L1011.3,666.62L1015.6,667.45L1019.9,671.28L1024.2,676.01L1028.5,676.12L1032.8,677.23L1037.1,680L1041.4,681.75L1045.7,683.93L1050,686.97L1054.2,688.58L1058.5,689.22L1062.8,691.66L1067.1,696L1071.4,698.64L1075.7,699.8" style="fill:none;stroke:#7AC36A;stroke-width:1.875;stroke-dasharray:7.5,2.5" />
<path d="M1055,694.3L1080,694.3" style="fill:none;stroke:#F15A60;stroke-width:1.875" />
<text x="1002.5" y="-687.85" transform="scale(1, -1)"
	style="font-family:Helvetica;font-weight:normal;font-style:normal;font-size:12pt">etcd v3</text>
<path d="M1055,680L1080,680" style="fill:none;stroke:#7AC36A;stroke-width:1.875;stroke-dasharray:7.5,2.5" />
<text x="951.62" y="-673.56" transform="scale(1, -1)"
	style="font-family:Helvetica;font-weight:normal;font-style:normal;font-size:12pt">etcd v3 (patch)</text>
</g>
</svg>
