<?xml version="1.0"?>
<!-- Generated by SVGo and Plotinum VG -->
<svg width="12in" height="8in"
	xmlns="http://www.w3.org/2000/svg"
	xmlns:xlink="http://www.w3.org/1999/xlink">
<g transform="scale(1, -1) translate(0, -720)">
<path d="M0,0L1080,0L1080,720L0,720Z" style="fill:#FFFFFF" />
<text x="303.22" y="-706.41" transform="scale(1, -1)"
	style="font-family:Helvetica;font-weight:normal;font-style:normal;font-size:12pt">Write 300K keys, 1K clients, key 64 bytes, value 256 bytes, Throughput</text>
<text x="556.97" y="-4.965" transform="scale(1, -1)"
	style="font-family:Helvetica;font-weight:normal;font-style:normal;font-size:12pt">Second</text>
<text x="81.337" y="-19.142" transform="scale(1, -1)"
	style="font-family:Helvetica;font-weight:normal;font-style:normal;font-size:10pt">0</text>
<text x="327.7" y="-19.142" transform="scale(1, -1)"
	style="font-family:Helvetica;font-weight:normal;font-style:normal;font-size:10pt">60</text>
<text x="574.06" y="-19.142" transform="scale(1, -1)"
	style="font-family:Helvetica;font-weight:normal;font-style:normal;font-size:10pt">120</text>
<text x="823.9" y="-19.142" transform="scale(1, -1)"
	style="font-family:Helvetica;font-weight:normal;font-style:normal;font-size:10pt">180</text>
<path d="M84.812,30.467L84.812,40.467" style="fill:none;stroke:#000000;stroke-width:0.625" />
<path d="M334.65,30.467L334.65,40.467" style="fill:none;stroke:#000000;stroke-width:0.625" />
<path d="M584.49,30.467L584.49,40.467" style="fill:none;stroke:#000000;stroke-width:0.625" />
<path d="M834.33,30.467L834.33,40.467" style="fill:none;stroke:#000000;stroke-width:0.625" />
<path d="M168.09,35.468L168.09,40.467" style="fill:none;stroke:#000000;stroke-width:0.625" />
<path d="M251.37,35.468L251.37,40.467" style="fill:none;stroke:#000000;stroke-width:0.625" />
<path d="M417.93,35.468L417.93,40.467" style="fill:none;stroke:#000000;stroke-width:0.625" />
<path d="M501.21,35.468L501.21,40.467" style="fill:none;stroke:#000000;stroke-width:0.625" />
<path d="M667.77,35.468L667.77,40.467" style="fill:none;stroke:#000000;stroke-width:0.625" />
<path d="M751.05,35.468L751.05,40.467" style="fill:none;stroke:#000000;stroke-width:0.625" />
<path d="M917.61,35.468L917.61,40.467" style="fill:none;stroke:#000000;stroke-width:0.625" />
<path d="M1000.9,35.468L1000.9,40.467" style="fill:none;stroke:#000000;stroke-width:0.625" />
<path d="M84.812,40.467L1080,40.467" style="fill:none;stroke:#000000;stroke-width:0.625" />
<g transform="rotate(90)">
<text x="335.88" y="13.59" transform="scale(1, -1)"
	style="font-family:Helvetica;font-weight:normal;font-style:normal;font-size:12pt">Throughput</text>
</g>
<text x="36.28" y="-222.62" transform="scale(1, -1)"
	style="font-family:Helvetica;font-weight:normal;font-style:normal;font-size:10pt">6000</text>
<text x="18.555" y="-429.23" transform="scale(1, -1)"
	style="font-family:Helvetica;font-weight:normal;font-style:normal;font-size:10pt">1.2e+04</text>
<text x="18.555" y="-635.85" transform="scale(1, -1)"
	style="font-family:Helvetica;font-weight:normal;font-style:normal;font-size:10pt">1.8e+04</text>
<path d="M67.555,227.99L77.555,227.99" style="fill:none;stroke:#000000;stroke-width:0.625" />
<path d="M67.555,434.6L77.555,434.6" style="fill:none;stroke:#000000;stroke-width:0.625" />
<path d="M67.555,641.22L77.555,641.22" style="fill:none;stroke:#000000;stroke-width:0.625" />
<path d="M72.555,90.247L77.555,90.247" style="fill:none;stroke:#000000;stroke-width:0.625" />
<path d="M72.555,159.12L77.555,159.12" style="fill:none;stroke:#000000;stroke-width:0.625" />
<path d="M72.555,296.86L77.555,296.86" style="fill:none;stroke:#000000;stroke-width:0.625" />
<path d="M72.555,365.73L77.555,365.73" style="fill:none;stroke:#000000;stroke-width:0.625" />
<path d="M72.555,503.47L77.555,503.47" style="fill:none;stroke:#000000;stroke-width:0.625" />
<path d="M72.555,572.35L77.555,572.35" style="fill:none;stroke:#000000;stroke-width:0.625" />
<path d="M77.555,47.03L77.555,701.44" style="fill:none;stroke:#000000;stroke-width:0.625" />
<path d="M84.812,101.78L88.976,637.08L93.14,658.54L97.304,650.1L101.47,446.59L105.63,501.37L109.8,581.57L113.96,585.5L118.12,554.37L122.29,423.89L126.45,284.95L130.62,556.88L134.78,558.88L138.94,575.24L143.11,557.47L147.27,326.58L151.44,546.55L155.6,576.37L159.76,533.92L163.93,514.15L168.09,336.12L172.26,552.96L176.42,552.72L180.58,542.04L184.75,542.39L188.91,402.2L193.08,480.57L197.24,541.53L201.4,519.21L205.57,540.05L209.73,511.15L213.9,344.21L218.06,545.55L222.22,523.69L226.39,539.29L230.55,534.74L234.72,235.05L238.88,353.71L243.04,503.51L247.21,537.88L251.37,515.15L255.54,504.92L259.7,248.17L263.86,414.22L268.03,565.91L272.19,515.66L276.35,529.51L280.52,499.03L284.68,301.92L288.85,533.4L293.01,486.26L297.17,559.64L301.34,521.79L305.5,382.81L309.67,404.13L313.83,550.82L317.99,536.5L322.16,463.01L326.32,535.19L330.49,279.68L334.65,545.52L338.81,544.49L342.98,513.12L347.14,454.2L351.31,484.5L355.47,374.17L359.63,470.45L363.8,519.8L367.96,523.1L372.13,501.06L376.29,277.44L380.45,549.38L384.62,527.03L388.78,491.15L392.95,525.17L397.11,520.42L401.27,274L405.44,522.76L409.6,513.15L413.77,489.36L417.93,498.76L422.09,396.28L426.26,530.61L430.42,523.14L434.59,524.96L438.75,519.49L442.91,533.09L447.08,264.7L451.24,513.91L455.41,471.59L459.57,486.57L463.73,494.28L467.9,448.69L472.06,143.04L476.23,557.13L480.39,534.19L484.55,505.64L488.72,521L492.88,406.33L497.04,380.57L501.21,537.98L505.37,480.82L509.54,478.27L513.7,488.43L517.86,300.17L522.03,480.57L526.19,476.51L530.36,453.03L534.52,558.71L538.68,500.03L542.85,197L547.01,561.33L551.18,485.81L555.34,449.48L559.5,507.16L563.67,584.09L567.83,304.09L572,504.03L576.16,556.47L580.32,422.55L584.49,477.96L588.65,459.4L592.82,128.95L596.98,533.88L601.14,471.59L605.31,423.34L609.47,601.51L613.64,455.68L617.8,353.54L621.96,470.18L626.13,458.71L630.29,583.5L634.46,459.09L638.62,391.59L642.78,384.64L646.95,456.92L651.11,554.82L655.28,407.88L659.44,439.01L663.6,428.13L667.77,357.19L671.93,501.37L676.1,409.26L680.26,561.67L684.42,489.84L688.59,347.79L692.75,173.79L696.92,612.91L701.08,410.02L705.24,532.33L709.41,549.72L713.57,385.53L717.74,432.05L721.9,443.94L726.06,541.63L730.23,415.08L734.39,543.49L738.55,294.11L742.72,386.39L746.88,441.87L751.05,515.97L755.21,433.05L759.37,461.6L763.54,423.07L767.7,181.54L771.87,468.87L776.03,449.82L780.19,466.8L784.36,440.32L788.52,442.42L792.69,238.87L796.85,268.86L801.01,427.92L805.18,420.45L809.34,557.71L813.51,472.21L817.67,479.75L821.83,74.303L826,628.48L830.16,403.54L834.33,406.68L838.49,425.82L842.65,394.11L846.82,391.59L850.98,363.98L855.15,406.88L859.31,416.01L863.47,449.1L867.64,492.94L871.8,480.33L875.97,332.05L880.13,390.35L884.29,483.92L888.46,330.19L892.62,574.27L896.79,376.44L900.95,248.89L905.11,489.29L909.28,355.44L913.44,386.22L917.61,630.51L921.77,345.93L925.93,458.78L930.1,305.33L934.26,430.78L938.43,590.22L942.59,224.24L946.75,558.09L950.92,365.7L955.08,207.22L959.25,451.65L963.41,388.05L967.57,455.51L971.74,540.91L975.9,349.13L980.06,411.77L984.23,362.7L988.39,383.57L992.56,430.75L996.72,375.86L1000.9,543.49L1005,399.17L1009.2,255.99L1013.4,496.86L1017.5,421.38L1021.7,313.05L1025.9,607.5L1030,394.86L1034.2,376.68L1038.4,370.62L1042.5,421.55L1046.7,407.09L1050.9,620.52L1055,322.79L1059.2,492.01L1063.3,372.93L1067.5,315.11L1071.7,411.26L1075.8,598.9L1080,323.89" style="fill:none;stroke:#F15A60;stroke-width:1.875" />
<path d="M84.812,255.5L88.976,701.44L93.14,678.3L97.304,217.49L101.47,677.03L105.63,648.66L109.8,657.47L113.96,572.1L118.12,290.46L122.29,642.87L126.45,627.72L130.62,606.4L134.78,479.54L138.94,306.98L143.11,630.44L147.27,620.8L151.44,603.23L155.6,486.43L159.76,226.51L163.93,606.06L168.09,576.37L172.26,595.35L176.42,576.86L180.58,89.248L184.75,598.28L188.91,558.43L193.08,579.2L197.24,562.98L201.4,344.55L205.57,279.64L209.73,568.39L213.9,544.25L218.06,557.99L222.22,546.17L226.39,171.96L230.55,590.56L234.72,542.56L238.88,564.67L243.04,567.59L247.21,375.2L251.37,323.65L255.54,551.41L259.7,519.45L263.86,576.93L268.03,535.19L272.19,157.71L276.35,497.38L280.52,539.22L284.68,583.54L288.85,494.04L293.01,528.72L297.17,215.83L301.34,500.2L305.5,568.59L309.67,575L313.83,485.36L317.99,325.89L322.16,266.18L326.32,598.17L330.49,538.53L334.65,475.31L338.81,562.57L342.98,228.68L347.14,441.46L351.31,511.74L355.47,550.24L359.63,519.35L363.8,534.26L367.96,113.32L372.13,460.67L376.29,531.3L380.45,526.99L384.62,518.04L388.78,538.05L392.95,90.109L397.11,550.69L401.27,557.23L405.44,549.55L409.6,524.1L413.77,465.32L417.93,245.52L422.09,543.66L426.26,566.77L430.42,519.07L434.59,508.74L438.75,281.92L442.91,405.51L447.08,560.67L451.24,548.03L455.41,515.11L459.57,502.48L463.73,251.89L467.9,511.19L472.06,520.21L476.23,492.97L480.39,508.81L484.55,495.11L488.72,216.32L492.88,510.81L497.04,518.9L501.21,589.08L505.37,487.53L509.54,343.42L513.7,351.44L517.86,496.48L522.03,501.68L526.19,550.17L530.36,524.55L534.52,243.31L538.68,464.49L542.85,542.25L547.01,480.02L551.18,558.23L555.34,557.95L559.5,170.86L563.67,551.48L567.83,503.2L572,525.24L576.16,602.72L580.32,355.99L584.49,397.86L588.65,460.4L592.82,495.14L596.98,603.17L601.14,442.63L605.31,265.83L609.47,201.61L613.64,566.15L617.8,476.89L621.96,457.78L626.13,554.3L630.29,417.83L634.46,206.47L638.62,427.13L642.78,586.57L646.95,453.16L651.11,548.17L655.28,421.97L659.44,231.19L663.6,413.18L667.77,618.52L671.93,433.54L676.1,494.25L680.26,473.41L684.42,333.09L688.59,451.03L692.75,503.92L696.92,533.98L701.08,485.29L705.24,360.36L709.41,375.06L713.57,397.52L717.74,538.29L721.9,462.94L726.06,473.24L730.23,422.72L734.39,434.84L738.55,449.1L742.72,541.9L746.88,476.55L751.05,478.61L755.21,287.74L759.37,192.66L763.54,497.48L767.7,512.98L771.87,456.71L776.03,522.79L780.19,455.54L784.36,47.03L788.52,439.6L792.69,513.39L796.85,473.24L801.01,519.35L805.18,459.91L809.34,260.74L813.51,368.66L817.67,588.36L821.83,434.64L826,534.16L830.16,464.42L834.33,273.75L838.49,434.91L842.65,442.7L846.82,511.12L850.98,451.79L855.15,502.99L859.31,321.83L863.47,268L867.64,479.65L871.8,579.61L875.97,466.59L880.13,494.28L884.29,370.62L888.46,263.22L892.62,474.89L896.79,412.08L900.95,503.72L905.11,369.8L909.28,640.98L913.44,196.83L917.61,304.44L921.77,571.14L925.93,452.23L930.1,397.93L934.26,660.16L938.43,114.83L942.59,288.29L946.75,655.27L950.92,323.48L955.08,598.07L959.25,586.02L963.41,209.53L967.57,355.26L971.74,633.23L975.9,163.8L980.06,627.13L984.23,449.51L988.39,363.42L992.56,251.68L996.72,589.12L1000.9,354.54L1005,476.58L1009.2,464.67L1013.4,385.22L1017.5,236.22L1021.7,406.68L1025.9,357.57L1030,382.67L1034.2,648.79L1038.4,359.64L1042.5,346.93L1046.7,185.22L1050.9,488.84L1055,448.17L1059.2,358.22L1063.3,485.4L1067.5,550.38L1071.7,332.33" style="fill:none;stroke:#7AC36A;stroke-width:1.875;stroke-dasharray:7.5,2.5" />
<path d="M1055,694.3L1080,694.3" style="fill:none;stroke:#F15A60;stroke-width:1.875" />
<text x="1002.5" y="-687.85" transform="scale(1, -1)"
	style="font-family:Helvetica;font-weight:normal;font-style:normal;font-size:12pt">etcd v3</text>
<path d="M1055,680L1080,680" style="fill:none;stroke:#7AC36A;stroke-width:1.875;stroke-dasharray:7.5,2.5" />
<text x="951.62" y="-673.56" transform="scale(1, -1)"
	style="font-family:Helvetica;font-weight:normal;font-style:normal;font-size:12pt">etcd v3 (patch)</text>
</g>
</svg>
