<?xml version="1.0"?>
<!-- Generated by SVGo and Plotinum VG -->
<svg width="12in" height="8in"
	xmlns="http://www.w3.org/2000/svg"
	xmlns:xlink="http://www.w3.org/1999/xlink">
<g transform="scale(1, -1) translate(0, -720)">
<path d="M0,0L1080,0L1080,720L0,720Z" style="fill:#FFFFFF" />
<text x="325.74" y="-706.41" transform="scale(1, -1)"
	style="font-family:Helvetica;font-weight:normal;font-style:normal;font-size:12pt">Write 300K keys, 1K clients, key 64 bytes, value 256 bytes, CPU</text>
<text x="544.64" y="-4.965" transform="scale(1, -1)"
	style="font-family:Helvetica;font-weight:normal;font-style:normal;font-size:12pt">Second</text>
<text x="56.662" y="-19.142" transform="scale(1, -1)"
	style="font-family:Helvetica;font-weight:normal;font-style:normal;font-size:10pt">0</text>
<text x="312.47" y="-19.142" transform="scale(1, -1)"
	style="font-family:Helvetica;font-weight:normal;font-style:normal;font-size:10pt">60</text>
<text x="568.29" y="-19.142" transform="scale(1, -1)"
	style="font-family:Helvetica;font-weight:normal;font-style:normal;font-size:10pt">120</text>
<text x="827.57" y="-19.142" transform="scale(1, -1)"
	style="font-family:Helvetica;font-weight:normal;font-style:normal;font-size:10pt">180</text>
<path d="M60.137,30.467L60.137,40.467" style="fill:none;stroke:#000000;stroke-width:0.625" />
<path d="M319.42,30.467L319.42,40.467" style="fill:none;stroke:#000000;stroke-width:0.625" />
<path d="M578.71,30.467L578.71,40.467" style="fill:none;stroke:#000000;stroke-width:0.625" />
<path d="M838,30.467L838,40.467" style="fill:none;stroke:#000000;stroke-width:0.625" />
<path d="M146.57,35.468L146.57,40.467" style="fill:none;stroke:#000000;stroke-width:0.625" />
<path d="M233,35.468L233,40.467" style="fill:none;stroke:#000000;stroke-width:0.625" />
<path d="M405.85,35.468L405.85,40.467" style="fill:none;stroke:#000000;stroke-width:0.625" />
<path d="M492.28,35.468L492.28,40.467" style="fill:none;stroke:#000000;stroke-width:0.625" />
<path d="M665.14,35.468L665.14,40.467" style="fill:none;stroke:#000000;stroke-width:0.625" />
<path d="M751.57,35.468L751.57,40.467" style="fill:none;stroke:#000000;stroke-width:0.625" />
<path d="M924.43,35.468L924.43,40.467" style="fill:none;stroke:#000000;stroke-width:0.625" />
<path d="M1010.9,35.468L1010.9,40.467" style="fill:none;stroke:#000000;stroke-width:0.625" />
<path d="M60.137,40.467L1080,40.467" style="fill:none;stroke:#000000;stroke-width:0.625" />
<g transform="rotate(90)">
<text x="358.4" y="13.59" transform="scale(1, -1)"
	style="font-family:Helvetica;font-weight:normal;font-style:normal;font-size:12pt">CPU</text>
</g>
<text x="25.505" y="-233.49" transform="scale(1, -1)"
	style="font-family:Helvetica;font-weight:normal;font-style:normal;font-size:10pt">50</text>
<text x="18.555" y="-432.23" transform="scale(1, -1)"
	style="font-family:Helvetica;font-weight:normal;font-style:normal;font-size:10pt">100</text>
<text x="18.555" y="-630.97" transform="scale(1, -1)"
	style="font-family:Helvetica;font-weight:normal;font-style:normal;font-size:10pt">150</text>
<path d="M42.88,238.85L52.88,238.85" style="fill:none;stroke:#000000;stroke-width:0.625" />
<path d="M42.88,437.6L52.88,437.6" style="fill:none;stroke:#000000;stroke-width:0.625" />
<path d="M42.88,636.34L52.88,636.34" style="fill:none;stroke:#000000;stroke-width:0.625" />
<path d="M47.88,79.862L52.88,79.862" style="fill:none;stroke:#000000;stroke-width:0.625" />
<path d="M47.88,119.61L52.88,119.61" style="fill:none;stroke:#000000;stroke-width:0.625" />
<path d="M47.88,159.36L52.88,159.36" style="fill:none;stroke:#000000;stroke-width:0.625" />
<path d="M47.88,199.11L52.88,199.11" style="fill:none;stroke:#000000;stroke-width:0.625" />
<path d="M47.88,278.6L52.88,278.6" style="fill:none;stroke:#000000;stroke-width:0.625" />
<path d="M47.88,318.35L52.88,318.35" style="fill:none;stroke:#000000;stroke-width:0.625" />
<path d="M47.88,358.1L52.88,358.1" style="fill:none;stroke:#000000;stroke-width:0.625" />
<path d="M47.88,397.85L52.88,397.85" style="fill:none;stroke:#000000;stroke-width:0.625" />
<path d="M47.88,477.34L52.88,477.34" style="fill:none;stroke:#000000;stroke-width:0.625" />
<path d="M47.88,517.09L52.88,517.09" style="fill:none;stroke:#000000;stroke-width:0.625" />
<path d="M47.88,556.84L52.88,556.84" style="fill:none;stroke:#000000;stroke-width:0.625" />
<path d="M47.88,596.59L52.88,596.59" style="fill:none;stroke:#000000;stroke-width:0.625" />
<path d="M47.88,676.09L52.88,676.09" style="fill:none;stroke:#000000;stroke-width:0.625" />
<path d="M52.88,47.03L52.88,701.44" style="fill:none;stroke:#000000;stroke-width:0.625" />
<path d="M60.137,47.03L64.459,50.806L68.78,54.383L73.102,58.16L77.423,61.498L81.745,64.44L86.066,68.415L90.388,72.469L94.709,76.603L99.031,79.783L103.35,81.333L107.67,85.308L111.99,89.322L116.32,93.376L120.64,97.391L124.96,99.736L129.28,103.39L133.6,107.41L137.92,111.22L142.25,114.8L146.57,117.11L150.89,121L155.21,124.74L159.53,128.47L163.85,132.33L168.17,134.83L172.5,137.89L176.82,141.63L181.14,145.05L185.46,148.63L189.78,152.12L194.1,154.55L198.42,157.97L202.75,161.47L207.07,165L211.39,168.7L215.71,169.97L220.03,172.12L224.35,175.42L228.67,178.76L233,182.09L237.32,185.51L241.64,186.19L245.96,189.37L250.28,192.83L254.6,196.17L258.92,199.54L263.25,202.64L267.57,204.55L271.89,207.61L276.21,210.91L280.53,214.29L284.85,217.43L289.17,219.5L293.5,222.28L297.82,225.62L302.14,228.8L306.46,231.86L310.78,234.88L315.1,236.39L319.42,239.49L323.75,242.63L328.07,245.65L332.39,248.67L336.71,250.74L341.03,253.08L345.35,255.95L349.67,258.81L354,261.63L358.32,264.45L362.64,265.88L366.96,268.79L371.28,271.61L375.6,274.51L379.92,277.33L384.25,279.84L388.57,281.9L392.89,284.72L397.21,287.35L401.53,289.97L405.85,292.44L410.18,294.54L414.5,297.36L418.82,300.11L423.14,302.85L427.46,305.43L431.78,307.9L436.1,309.29L440.43,311.95L444.75,314.46L449.07,316.68L453.39,319.03L457.71,320.46L462.03,321.53L466.35,324.23L470.68,327.02L475,329.64L479.32,331.79L483.64,333.14L487.96,335.68L492.28,338.11L496.6,340.29L500.93,342.88L505.25,345.46L509.57,346.14L513.89,348.68L518.21,350.83L522.53,353.01L526.85,355.68L531.18,358.1L535.5,358.66L539.82,361.48L544.14,363.07L548.46,365.73L552.78,368.51L557.1,369.9L561.43,372.01L565.75,374.4L570.07,376.22L574.39,378.61L578.71,380.8L583.03,381.31L587.35,382.39L591.68,384.89L596,386.96L600.32,388.86L604.64,391.49L608.96,391.97L613.28,394.47L617.6,396.1L621.93,398.52L626.25,401.07L630.57,402.66L634.89,403.97L639.21,405.76L643.53,408.18L647.85,409.65L652.18,411.92L656.5,413.47L660.82,414.62L665.14,416.01L669.46,418.44L673.78,419.87L678.11,422.41L682.43,424.16L686.75,424.4L691.07,425.75L695.39,428.37L699.71,429.57L704.03,432.47L708.36,433.94L712.68,435.61L717,436.96L721.32,439.31L725.64,440.62L729.96,442.88L734.28,444.31L738.61,445.55L742.93,446.94L747.25,449.04L751.57,450.59L755.89,452.42L760.21,454.01L764.53,453.77L768.86,455.64L773.18,457.03L777.5,458.94L781.82,460.53L786.14,462.16L790.46,464.27L794.78,463.51L799.11,464.7L803.43,467.13L807.75,468.28L812.07,471.42L816.39,472.73L820.71,474.05L825.03,475.6L829.36,477.07L833.68,479.65L838,481L842.32,483.15L846.64,484.58L850.96,485.14L855.28,487.6L859.61,489.15L863.93,490.46L868.25,492.85L872.57,494.16L876.89,496.5L881.21,497.81L885.53,499.01L889.86,501.67L894.18,502.86L898.5,505.21L902.82,506.56L907.14,506.84L911.46,509.06L915.78,510.69L920.11,511.81L924.43,515.22L928.75,516.1L933.07,516.66L937.39,519.36L941.71,520.39L946.04,522.14L950.36,524.17L954.68,525.44L959,526.39L963.32,527.75L967.64,528.98L971.96,530.65L976.29,532.59L980.61,533.67L984.93,535.89L989.25,536.37L993.57,537.6L997.89,539.47L1002.2,541.18L1006.5,542.29L1010.9,544.56L1015.2,545.83L1019.5,546.19L1023.8,548.18L1028.1,549.88L1032.5,550.76L1036.8,553.18L1041.1,554.58L1045.4,554.69L1049.7,556.4L1054.1,558.67L1058.4,559.62L1062.7,561.81L1067,563.6L1071.4,563.68L1075.7,564.75L1080,567.29" style="fill:none;stroke:#F15A60;stroke-width:1.875" />
<path d="M60.137,50.409L64.459,59.034L68.78,67.699L73.102,71.435L77.423,78.709L81.745,86.977L86.066,95.483L90.388,103.51L94.709,105.62L99.031,113.77L103.35,121.6L107.67,129.43L111.99,136.74L116.32,138.45L120.64,145.96L124.96,153.4L129.28,160.87L133.6,168.1L137.92,168.7L142.25,175.62L146.57,182.05L150.89,189.29L155.21,196.13L159.53,197.99L163.85,203.72L168.17,210.67L172.5,217.67L176.82,224.7L181.14,230.11L185.46,230.95L189.78,237.27L194.1,243.74L198.42,250.3L202.75,256.9L207.07,259.01L211.39,264.33L215.71,270.49L220.03,277.25L224.35,282.82L228.67,287.67L233,288.66L237.32,294.66L241.64,300.11L245.96,305.79L250.28,311.55L254.6,312.03L258.92,315.69L263.25,321.73L267.57,326.94L271.89,332.3L276.21,337.55L280.53,337.23L284.85,342.8L289.17,347.65L293.5,352.93L297.82,357.7L302.14,359.93L306.46,361.16L310.78,365.77L315.1,370.42L319.42,375.47L323.75,379.76L328.07,380.2L332.39,382.66L336.71,386.84L341.03,391.05L345.35,396.38L349.67,400.43L354,399.52L358.32,402.94L362.64,406.87L366.96,410.96L371.28,414.62L375.6,418.64L379.92,417.64L384.25,421.66L388.57,425.75L392.89,429.53L397.21,433.1L401.53,436.4L405.85,437.64L410.18,441.41L414.5,444.51L418.82,448.05L423.14,451.67L427.46,452.86L431.78,455.16L436.1,458.62L440.43,462.28L444.75,465.86L449.07,468.72L453.39,469.36L457.71,472.3L462.03,475.32L466.35,478.42L470.68,482.15L475,485.29L479.32,484.7L483.64,488.31L487.96,491.06L492.28,493.88L496.6,497.1L500.93,498.29L505.25,499.48L509.57,502.58L513.89,505.01L518.21,508.39L522.53,511.45L526.85,511.05L531.18,514.07L535.5,516.73L539.82,519.44L544.14,522.98L548.46,524.84L552.78,525.44L557.1,527.55L561.43,530.57L565.75,534.22L570.07,536.89L574.39,537.44L578.71,538.48L583.03,541.38L587.35,544.24L591.68,546.47L596,549.41L600.32,547.62L604.64,548.89L608.96,551.51L613.28,554.18L617.6,556.17L621.93,558.91L626.25,559.15L630.57,559.62L634.89,562.17L639.21,564.83L643.53,566.5L647.85,569.68L652.18,569.48L656.5,569.96L660.82,572.5L665.14,575.36L669.46,576.91L673.78,580.17L678.11,579.89L682.43,581.88L686.75,583.79L691.07,586.06L695.39,587.96L699.71,590.51L704.03,590.31L708.36,591.34L712.68,594.05L717,595.36L721.32,598.06L725.64,599.29L729.96,600.6L734.28,601.8L738.61,603.74L742.93,605.81L747.25,607.76L751.57,609.83L755.89,608.59L760.21,608.95L764.53,611.45L768.86,612.89L773.18,615.31L777.5,616.54L781.82,618.85L786.14,616.86L790.46,617.5L794.78,620.68L799.11,621.43L803.43,624.57L807.75,625.13L812.07,623.98L816.39,627.39L820.71,628.03L825.03,630.69L829.36,631.81L833.68,633.67L838,633.87L842.32,634.47L846.64,636.62L850.96,638.21L855.28,639.44L859.61,641.82L863.93,640.23L868.25,641.27L872.57,643.81L876.89,644.88L881.21,646.75L885.53,648.42L889.86,647.75L894.18,649.14L898.5,651.2L902.82,652L907.14,654.82L911.46,655.85L915.78,655.3L920.11,657.6L924.43,658.68L928.75,659.75L933.07,662.57L937.39,663.13L941.71,665.51L946.04,665.15L950.36,665.79L954.68,666.94L959,670L963.32,670.6L967.64,673.86L971.96,673.18L976.29,673.66L980.61,674.81L984.93,677.36L989.25,677.91L993.57,679.7L997.89,680.74L1002.2,680.86L1006.5,681.97L1010.9,684.95L1015.2,685.55L1019.5,686.78L1023.8,689.52L1028.1,688.09L1032.5,689.12L1036.8,690.16L1041.1,692.74L1045.4,693.89L1049.7,694.89L1054.1,696.48L1058.4,695.76L1062.7,696.91L1067,698.66L1071.4,700.37L1075.7,701.44" style="fill:none;stroke:#7AC36A;stroke-width:1.875;stroke-dasharray:7.5,2.5" />
<path d="M1055,694.3L1080,694.3" style="fill:none;stroke:#7AC36A;stroke-width:1.875;stroke-dasharray:7.5,2.5" />
<text x="951.62" y="-687.85" transform="scale(1, -1)"
	style="font-family:Helvetica;font-weight:normal;font-style:normal;font-size:12pt">etcd v3 (patch)</text>
<path d="M1055,680L1080,680" style="fill:none;stroke:#F15A60;stroke-width:1.875" />
<text x="1002.5" y="-673.56" transform="scale(1, -1)"
	style="font-family:Helvetica;font-weight:normal;font-style:normal;font-size:12pt">etcd v3</text>
</g>
</svg>
