<?xml version="1.0"?>
<!-- Generated by SVGo and Plotinum VG -->
<svg width="12in" height="8in"
	xmlns="http://www.w3.org/2000/svg"
	xmlns:xlink="http://www.w3.org/1999/xlink">
<g transform="scale(1, -1) translate(0, -720)">
<path d="M0,0L1080,0L1080,720L0,720Z" style="fill:#FFFFFF" />
<text x="280.32" y="-706.41" transform="scale(1, -1)"
	style="font-family:Helvetica;font-weight:normal;font-style:normal;font-size:12pt">Write 3M keys, 1K clients, key 64 bytes, value 256 bytes, Latency(millisecond)</text>
<text x="548.11" y="-4.965" transform="scale(1, -1)"
	style="font-family:Helvetica;font-weight:normal;font-style:normal;font-size:12pt">Second</text>
<text x="63.613" y="-19.142" transform="scale(1, -1)"
	style="font-family:Helvetica;font-weight:normal;font-style:normal;font-size:10pt">0</text>
<text x="349.54" y="-19.142" transform="scale(1, -1)"
	style="font-family:Helvetica;font-weight:normal;font-style:normal;font-size:10pt">50</text>
<text x="635.47" y="-19.142" transform="scale(1, -1)"
	style="font-family:Helvetica;font-weight:normal;font-style:normal;font-size:10pt">100</text>
<text x="924.87" y="-19.142" transform="scale(1, -1)"
	style="font-family:Helvetica;font-weight:normal;font-style:normal;font-size:10pt">150</text>
<path d="M67.088,30.467L67.088,40.467" style="fill:none;stroke:#000000;stroke-width:0.625" />
<path d="M356.49,30.467L356.49,40.467" style="fill:none;stroke:#000000;stroke-width:0.625" />
<path d="M645.89,30.467L645.89,40.467" style="fill:none;stroke:#000000;stroke-width:0.625" />
<path d="M935.3,30.467L935.3,40.467" style="fill:none;stroke:#000000;stroke-width:0.625" />
<path d="M124.97,35.468L124.97,40.467" style="fill:none;stroke:#000000;stroke-width:0.625" />
<path d="M182.85,35.468L182.85,40.467" style="fill:none;stroke:#000000;stroke-width:0.625" />
<path d="M240.73,35.468L240.73,40.467" style="fill:none;stroke:#000000;stroke-width:0.625" />
<path d="M298.61,35.468L298.61,40.467" style="fill:none;stroke:#000000;stroke-width:0.625" />
<path d="M414.37,35.468L414.37,40.467" style="fill:none;stroke:#000000;stroke-width:0.625" />
<path d="M472.25,35.468L472.25,40.467" style="fill:none;stroke:#000000;stroke-width:0.625" />
<path d="M530.13,35.468L530.13,40.467" style="fill:none;stroke:#000000;stroke-width:0.625" />
<path d="M588.01,35.468L588.01,40.467" style="fill:none;stroke:#000000;stroke-width:0.625" />
<path d="M703.78,35.468L703.78,40.467" style="fill:none;stroke:#000000;stroke-width:0.625" />
<path d="M761.66,35.468L761.66,40.467" style="fill:none;stroke:#000000;stroke-width:0.625" />
<path d="M819.54,35.468L819.54,40.467" style="fill:none;stroke:#000000;stroke-width:0.625" />
<path d="M877.42,35.468L877.42,40.467" style="fill:none;stroke:#000000;stroke-width:0.625" />
<path d="M993.18,35.468L993.18,40.467" style="fill:none;stroke:#000000;stroke-width:0.625" />
<path d="M1051.1,35.468L1051.1,40.467" style="fill:none;stroke:#000000;stroke-width:0.625" />
<path d="M67.088,40.467L1080,40.467" style="fill:none;stroke:#000000;stroke-width:0.625" />
<g transform="rotate(90)">
<text x="303.42" y="13.59" transform="scale(1, -1)"
	style="font-family:Helvetica;font-weight:normal;font-style:normal;font-size:12pt">Latency(millisecond)</text>
</g>
<text x="18.555" y="-202.9" transform="scale(1, -1)"
	style="font-family:Helvetica;font-weight:normal;font-style:normal;font-size:10pt">2000</text>
<text x="18.555" y="-365.3" transform="scale(1, -1)"
	style="font-family:Helvetica;font-weight:normal;font-style:normal;font-size:10pt">4000</text>
<text x="18.555" y="-527.71" transform="scale(1, -1)"
	style="font-family:Helvetica;font-weight:normal;font-style:normal;font-size:10pt">6000</text>
<text x="18.555" y="-690.12" transform="scale(1, -1)"
	style="font-family:Helvetica;font-weight:normal;font-style:normal;font-size:10pt">8000</text>
<path d="M49.83,208.26L59.83,208.26" style="fill:none;stroke:#000000;stroke-width:0.625" />
<path d="M49.83,370.67L59.83,370.67" style="fill:none;stroke:#000000;stroke-width:0.625" />
<path d="M49.83,533.08L59.83,533.08" style="fill:none;stroke:#000000;stroke-width:0.625" />
<path d="M49.83,695.49L59.83,695.49" style="fill:none;stroke:#000000;stroke-width:0.625" />
<path d="M54.83,127.06L59.83,127.06" style="fill:none;stroke:#000000;stroke-width:0.625" />
<path d="M54.83,289.47L59.83,289.47" style="fill:none;stroke:#000000;stroke-width:0.625" />
<path d="M54.83,451.88L59.83,451.88" style="fill:none;stroke:#000000;stroke-width:0.625" />
<path d="M54.83,614.28L59.83,614.28" style="fill:none;stroke:#000000;stroke-width:0.625" />
<path d="M59.83,47.03L59.83,696.5" style="fill:none;stroke:#000000;stroke-width:0.625" />
<path d="M67.088,47.32L72.876,48.627L78.664,48.795L84.452,51.318L90.24,49.049L96.028,49.185L101.82,52.61L107.6,49.255L113.39,49.145L119.18,49.362L124.97,53.026L130.76,49.274L136.54,49.736L142.33,49.688L148.12,51.369L153.91,49.535L159.7,49.556L165.48,49.409L171.27,50.765L177.06,49.532L182.85,49.448L188.64,52.903L194.43,49.481L200.21,49.47L206,49.591L211.79,51.777L217.58,49.757L223.37,49.989L229.15,49.817L234.94,54.408L240.73,50.061L246.52,49.597L252.31,49.727L258.09,53.432L263.88,49.821L269.67,49.797L275.46,49.947L281.25,54.129L287.03,49.652L292.82,49.869L298.61,49.479L304.4,53.213L310.19,49.672L315.97,49.531L321.76,49.639L327.55,55.022L333.34,49.771L339.13,49.972L344.91,49.962L350.7,54.412L356.49,50.256L362.28,50.596L368.07,49.257L373.86,50.655L379.64,53.929L385.43,50.207L391.22,50.001L397.01,50.406L402.8,54.866L408.58,50.606L414.37,49.654L420.16,50.129L425.95,50.399L431.74,52.5L437.52,49.665L443.31,49.612L449.1,50.702L454.89,51.893L460.68,50.729L466.46,49.88L472.25,49.843L478.04,56.825L483.83,49.963L489.62,49.573L495.4,50.036L501.19,51.138L506.98,52.387L512.77,50.461L518.56,50.441L524.35,50.507L530.13,64.409L535.92,51.618L541.71,50.313L547.5,50.24L553.29,49.979L559.07,53.991L564.86,49.802L570.65,50.082L576.44,49.925L582.23,58.431L588.01,50.395L593.8,49.866L599.59,49.942L605.38,52.33L611.17,49.924L616.95,50.254L622.74,50.211L628.53,50.357L634.32,52.996L640.11,50.363L645.89,50.091L651.68,50L657.47,59.285L663.26,49.781L669.05,49.754L674.83,49.987L680.62,50.586L686.41,52.771L692.2,49.051L697.99,49.623L703.78,50.304L709.56,53.785L715.35,50.089L721.14,49.224L726.93,49.674L732.72,60.359L738.5,48.974L744.29,49.846L750.08,49.971L755.87,51.698L761.66,51.8L767.44,50.098L773.23,51.044L779.02,50.708L784.81,51.349L790.6,50.624L796.38,50.701L802.17,48.986L807.96,52.651L813.75,51.118L819.54,48.917L825.32,50.255L831.11,56.331L836.9,50.28L842.69,51.891L848.48,49.999L854.27,50.298L860.05,53.27L865.84,49.923L871.63,51.407L877.42,49.867L883.21,52.994L888.99,50.938L894.78,48.98L900.57,51.952L906.36,50.401L912.15,59.453L917.93,50.069L923.72,51.378L929.51,50.692L935.3,50.997L941.09,52.084L946.87,52.061L952.66,50.8L958.45,51.467L964.24,51.064L970.03,63.932L975.81,50.369L981.6,57.619L987.39,48.782L993.18,51.566L998.97,51.187L1004.8,51.836L1010.5,49.612L1016.3,53.051L1022.1,49.659L1027.9,59.02L1033.7,50.938L1039.5,51.567L1045.3,51.238L1051.1,51.817L1056.8,51.422L1062.6,51.806L1068.4,52.803L1074.2,51.701L1080,52.38" style="fill:none;stroke:#F15A60;stroke-width:1.875" />
<path d="M67.088,48.262L72.876,48.44L78.664,50.946L84.452,48.804L90.24,48.72L96.028,50.693L101.82,48.798L107.6,48.964L113.39,50.685L119.18,48.997L124.97,48.939L130.76,50.871L136.54,49.079L142.33,49.133L148.12,48.96L153.91,50.657L159.7,49.26L165.48,49.282L171.27,59.35L177.06,49.283L182.85,49.377L188.64,49.42L194.43,53L200.21,49.375L206,49.198L211.79,49.254L217.58,50.444L223.37,49.173L229.15,49.586L234.94,52.475L240.73,49.409L246.52,49.571L252.31,49.52L258.09,55.058L263.88,49.48L269.67,49.378L275.46,49.732L281.25,53.257L287.03,49.43L292.82,49.377L298.61,49.526L304.4,50.708L310.19,49.522L315.97,49.529L321.76,50.952L327.55,49.21L333.34,49.962L339.13,49.34L344.91,51.31L350.7,49.94L356.49,49.271L362.28,50.275L368.07,51.081L373.86,49.133L379.64,49.986L385.43,51.059L391.22,49.696L397.01,49.008L402.8,50.012L408.58,50.95L414.37,50.147L420.16,49.072L425.95,49.369L431.74,50.72L437.52,49.626L443.31,50.355L449.1,50.52L454.89,50.015L460.68,49.427L466.46,49.207L472.25,51.662L478.04,49.754L483.83,49.394L489.62,49.45L495.4,52.465L501.19,49.325L506.98,49.491L512.77,50.139L518.56,51.632L524.35,49.338L530.13,49.422L535.92,50.571L541.71,49.747L547.5,49.45L553.29,49.577L559.07,52.322L564.86,49.697L570.65,50.094L576.44,49.545L582.23,51L588.01,49.764L593.8,49.742L599.59,51.18L605.38,53.638L611.17,50.782L616.95,49.976L622.74,49.952L628.53,51.4L634.32,52.967L640.11,49.68L645.89,50.141L651.68,51.275L657.47,54.421L663.26,49.949L669.05,50.227L674.83,49.856L680.62,51.02L686.41,52.117L692.2,50.108L697.99,50.058L703.78,50.205L709.56,50.106L715.35,49.867L721.14,50.524L726.93,49.299L732.72,52.936L738.5,50.196L744.29,49.599L750.08,51.018L755.87,50.237L761.66,50.005L767.44,53.25L773.23,48.856L779.02,56.933L784.81,49.878L790.6,50.214L796.38,50.396L802.17,50.98L807.96,50.043L813.75,49.847L819.54,49.168L825.32,66.42L831.11,48.562L836.9,50.649L842.69,49.993L848.48,51.95L854.27,50.735L860.05,48.379L865.84,51.522L871.63,50.134L877.42,50.584L883.21,50.353L888.99,49.756L894.78,47.83L900.57,52.834L906.36,47.747L912.15,53.837L917.93,48.425L923.72,52.148L929.51,51.673L935.3,48.117L941.09,51.161L946.87,48.62L952.66,51.602L958.45,56.425L964.24,47.685L970.03,51L975.81,47.767L981.6,89.233" style="fill:none;stroke:#7AC36A;stroke-width:1.875;stroke-dasharray:7.5,2.5" />
<path d="M67.088,88.214L72.876,178.89L78.664,126.52L84.452,53.638L90.24,48.402L96.028,47.994L101.82,48.154L107.6,48.01L113.39,48.274L119.18,47.706L124.97,48.959L130.76,49.105L136.54,48.193L142.33,47.808L148.12,47.718L153.91,49.203L159.7,47.575L165.48,50.038L171.27,47.851L177.06,47.908L182.85,48.09L188.64,48.351L194.43,72.061L200.21,47.836L206,47.878L211.79,47.825L217.58,47.194L223.37,52.229L229.15,48.066L234.94,48.044L240.73,47.971L246.52,48.054L252.31,47.509L258.09,54.701L263.88,47.892L269.67,77.333L275.46,47.754L281.25,47.994L287.03,48.314L292.82,48.432L298.61,50.253L304.4,94.14L310.19,99.38L315.97,90.528L321.76,247.89L327.55,182.19L333.34,274.46L339.13,57.963L344.91,91.62L350.7,48.695L356.49,47.755L362.28,47.229L368.07,47.931L373.86,50.385L379.64,48.174L385.43,48.82L391.22,48.929L397.01,48.409L402.8,48.699L408.58,47.684L414.37,58.928L420.16,48.093L425.95,47.984L431.74,48.486L437.52,49.119L443.31,48.293L449.1,59.641L454.89,48.424L460.68,261.06L466.46,108.73L472.25,49.667L478.04,47.635L483.83,47.92L489.62,47.331L495.4,47.476L501.19,47.648L506.98,47.328L512.77,47.736L518.56,47.867L524.35,47.495L530.13,47.422L535.92,47.665L541.71,47.537L547.5,47.03L553.29,97.173L559.07,120.54L564.86,57.715L570.65,47.74L576.44,47.596L582.23,48.381L588.01,48.133L593.8,47.31L599.59,303.02L605.38,392.8L611.17,371.59L616.95,288.43L622.74,59.938L628.53,204.35L634.32,97.063L640.11,69.478L645.89,47.205L651.68,49.24L657.47,47.792L663.26,47.3L669.05,47.318L674.83,47.355L680.62,47.395L686.41,47.346L692.2,80.577L697.99,95.052L703.78,96.925L709.56,55.196L715.35,48.1L721.14,47.317L726.93,47.187L732.72,47.271L738.5,47.441L744.29,47.424L750.08,47.657L755.87,103.66L761.66,211.03L767.44,434.73L773.23,696.5L779.02,64.612L784.81,48.762L790.6,47.914L796.38,48.173L802.17,47.386L807.96,47.321L813.75,47.355" style="fill:none;stroke:#5A9BD4;stroke-width:1.875;stroke-dasharray:2.5,2.5" />
<path d="M1055,694.3L1080,694.3" style="fill:none;stroke:#7AC36A;stroke-width:1.875;stroke-dasharray:7.5,2.5" />
<text x="951.62" y="-687.85" transform="scale(1, -1)"
	style="font-family:Helvetica;font-weight:normal;font-style:normal;font-size:12pt">etcd v3 (patch)</text>
<path d="M1055,680L1080,680" style="fill:none;stroke:#5A9BD4;stroke-width:1.875;stroke-dasharray:2.5,2.5" />
<text x="934.1" y="-673.56" transform="scale(1, -1)"
	style="font-family:Helvetica;font-weight:normal;font-style:normal;font-size:12pt">Zookeeper v3.4.8</text>
<path d="M1055,665.71L1080,665.71" style="fill:none;stroke:#F15A60;stroke-width:1.875" />
<text x="1002.5" y="-659.26" transform="scale(1, -1)"
	style="font-family:Helvetica;font-weight:normal;font-style:normal;font-size:12pt">etcd v3</text>
</g>
</svg>
