<?xml version="1.0"?>
<!-- Generated by SVGo and Plotinum VG -->
<svg width="12in" height="8in"
	xmlns="http://www.w3.org/2000/svg"
	xmlns:xlink="http://www.w3.org/1999/xlink">
<g transform="scale(1, -1) translate(0, -720)">
<path d="M0,0L1080,0L1080,720L0,720Z" style="fill:#FFFFFF" />
<text x="273.22" y="-706.41" transform="scale(1, -1)"
	style="font-family:Helvetica;font-weight:normal;font-style:normal;font-size:12pt">Write 300K keys, 1K clients, key 64 bytes, value 256 bytes, Latency(millisecond)</text>
<text x="544.64" y="-4.965" transform="scale(1, -1)"
	style="font-family:Helvetica;font-weight:normal;font-style:normal;font-size:12pt">Second</text>
<text x="56.662" y="-19.142" transform="scale(1, -1)"
	style="font-family:Helvetica;font-weight:normal;font-style:normal;font-size:10pt">0</text>
<text x="309.22" y="-19.142" transform="scale(1, -1)"
	style="font-family:Helvetica;font-weight:normal;font-style:normal;font-size:10pt">60</text>
<text x="561.78" y="-19.142" transform="scale(1, -1)"
	style="font-family:Helvetica;font-weight:normal;font-style:normal;font-size:10pt">120</text>
<text x="817.81" y="-19.142" transform="scale(1, -1)"
	style="font-family:Helvetica;font-weight:normal;font-style:normal;font-size:10pt">180</text>
<path d="M60.137,30.467L60.137,40.467" style="fill:none;stroke:#000000;stroke-width:0.625" />
<path d="M316.17,30.467L316.17,40.467" style="fill:none;stroke:#000000;stroke-width:0.625" />
<path d="M572.2,30.467L572.2,40.467" style="fill:none;stroke:#000000;stroke-width:0.625" />
<path d="M828.23,30.467L828.23,40.467" style="fill:none;stroke:#000000;stroke-width:0.625" />
<path d="M145.48,35.468L145.48,40.467" style="fill:none;stroke:#000000;stroke-width:0.625" />
<path d="M230.83,35.468L230.83,40.467" style="fill:none;stroke:#000000;stroke-width:0.625" />
<path d="M401.51,35.468L401.51,40.467" style="fill:none;stroke:#000000;stroke-width:0.625" />
<path d="M486.86,35.468L486.86,40.467" style="fill:none;stroke:#000000;stroke-width:0.625" />
<path d="M657.55,35.468L657.55,40.467" style="fill:none;stroke:#000000;stroke-width:0.625" />
<path d="M742.89,35.468L742.89,40.467" style="fill:none;stroke:#000000;stroke-width:0.625" />
<path d="M913.58,35.468L913.58,40.467" style="fill:none;stroke:#000000;stroke-width:0.625" />
<path d="M998.92,35.468L998.92,40.467" style="fill:none;stroke:#000000;stroke-width:0.625" />
<path d="M60.137,40.467L1080,40.467" style="fill:none;stroke:#000000;stroke-width:0.625" />
<g transform="rotate(90)">
<text x="305.89" y="13.59" transform="scale(1, -1)"
	style="font-family:Helvetica;font-weight:normal;font-style:normal;font-size:12pt">Latency(millisecond)</text>
</g>
<text x="18.555" y="-123.7" transform="scale(1, -1)"
	style="font-family:Helvetica;font-weight:normal;font-style:normal;font-size:10pt">100</text>
<text x="18.555" y="-270.34" transform="scale(1, -1)"
	style="font-family:Helvetica;font-weight:normal;font-style:normal;font-size:10pt">200</text>
<text x="18.555" y="-416.99" transform="scale(1, -1)"
	style="font-family:Helvetica;font-weight:normal;font-style:normal;font-size:10pt">300</text>
<text x="18.555" y="-563.63" transform="scale(1, -1)"
	style="font-family:Helvetica;font-weight:normal;font-style:normal;font-size:10pt">400</text>
<path d="M42.88,129.06L52.88,129.06" style="fill:none;stroke:#000000;stroke-width:0.625" />
<path d="M42.88,275.71L52.88,275.71" style="fill:none;stroke:#000000;stroke-width:0.625" />
<path d="M42.88,422.36L52.88,422.36" style="fill:none;stroke:#000000;stroke-width:0.625" />
<path d="M42.88,569L52.88,569" style="fill:none;stroke:#000000;stroke-width:0.625" />
<path d="M47.88,55.742L52.88,55.742" style="fill:none;stroke:#000000;stroke-width:0.625" />
<path d="M47.88,202.39L52.88,202.39" style="fill:none;stroke:#000000;stroke-width:0.625" />
<path d="M47.88,349.03L52.88,349.03" style="fill:none;stroke:#000000;stroke-width:0.625" />
<path d="M47.88,495.68L52.88,495.68" style="fill:none;stroke:#000000;stroke-width:0.625" />
<path d="M47.88,642.33L52.88,642.33" style="fill:none;stroke:#000000;stroke-width:0.625" />
<path d="M52.88,47.03L52.88,701.44" style="fill:none;stroke:#000000;stroke-width:0.625" />
<path d="M60.137,47.03L64.405,62.225L68.672,62.887L72.939,62.503L77.206,65.045L81.474,116.36L85.741,73.32L90.008,71.664L94.275,74.907L98.542,75.579L102.81,223.52L107.08,74.7L111.34,77.468L115.61,75.282L119.88,75.951L124.15,145.09L128.41,76.238L132.68,75.565L136.95,80.835L141.21,82.204L145.48,144.25L149.75,74.847L154.02,80.229L158.28,79.384L162.55,76.618L166.82,77.403L171.08,124.36L175.35,79.021L179.62,85.085L183.89,80.31L188.15,82.68L192.42,134.31L196.69,81.815L200.96,82.051L205.22,81.117L209.49,80.719L213.76,88.557L218.02,218.03L222.29,86.288L226.56,80.552L230.83,85.631L235.09,82.581L239.36,66.529L243.63,186.91L247.89,78.539L252.16,85.814L256.43,81.752L260.7,87.673L264.96,160.9L269.23,79.596L273.5,87.125L277.77,78.587L282.03,82.342L286.3,83.099L290.57,150.98L294.83,79.003L299.1,81.964L303.37,93.488L307.64,81.308L311.9,179.48L316.17,77.866L320.44,78.65L324.7,85.675L328.97,87.894L333.24,93.747L337.51,123.58L341.77,95.399L346.04,90.868L350.31,80.259L354.57,87.214L358.84,100.5L363.11,119.31L367.38,81.264L371.64,89.983L375.91,82.668L380.18,82.391L384.45,169.67L388.71,87.174L392.98,88.211L397.25,89.27L401.51,89.149L405.78,72.216L410.05,107.17L414.32,83.16L418.58,84.778L422.85,83.15L427.12,86.495L431.38,175.36L435.65,89.077L439.92,91.819L444.19,93.932L448.45,77.646L452.72,85.031L456.99,430.44L461.25,85.645L465.52,82.517L469.79,84.725L474.06,87.917L478.32,100.27L482.59,124.24L486.86,88.56L491.13,90.217L495.39,89.39L499.66,91.507L503.93,86.821L508.19,140.83L512.46,95.055L516.73,78.867L521,87.877L525.26,91.731L529.53,77.805L533.8,137.52L538.06,91.814L542.33,100.4L546.6,74.253L550.87,81.409L555.13,154.9L559.4,90.215L563.67,78.9L567.94,102.25L572.2,96.719L576.47,78.845L580.74,448.57L585,92.587L589.27,101.31L593.54,82.244L597.81,81.77L602.07,103.34L606.34,132L610.61,95.065L614.87,98.278L619.14,69.583L623.41,102.44L627.68,90.186L631.94,148.16L636.21,94.766L640.48,79.124L644.74,106.79L649.01,78.012L653.28,97.344L657.55,170.08L661.81,93.964L666.08,115.65L670.35,68.875L674.62,98.775L678.88,74.332L683.15,439.2L687.42,65.113L691.68,117.37L695.95,65.619L700.22,93.733L704.49,104.01L708.75,116.84L713.02,99.249L717.29,83.074L721.55,100.96L725.82,86.206L730.09,119.12L734.36,155.57L738.62,100.96L742.89,85.006L747.16,104.97L751.43,97.305L755.69,101.86L759.96,310.72L764.23,93.186L768.49,103.36L772.76,94.33L777.03,102.94L781.3,102.27L785.56,138.05L789.83,253.78L794.1,86.68L798.36,127.65L802.63,65.511L806.9,106.38L811.17,64.398L815.43,701.44L819.7,106.96L823.97,112.42L828.23,113.8L832.5,94.656L836.77,134.38L841.04,65.468L845.3,185.98L849.57,113.28L853.84,110.52L858.11,67.217L862.37,108.1L866.64,104.34L870.91,141.25L875.17,118.94L879.44,70.431L883.71,130.26L887.98,100.05L892.24,121.22L896.51,160.85L900.78,113.15L905.04,129.15L909.31,123.62L913.58,63.987L917.85,140.06L922.11,67.293L926.38,184.29L930.65,122.2L934.91,65.276L939.18,171.99L943.45,103.02L947.72,125.03L951.98,78.104L956.25,174.41L960.52,91.353L964.79,106.2L969.05,97.906L973.32,138.55L977.59,93.658L981.85,149.35L986.12,123.49L990.39,90.939L994.66,99.367L998.92,104.98L1003.2,98.213L1007.5,196.96L1011.7,103.56L1016,95.015L1020.3,174.95L1024.5,68.498L1028.8,94.057L1033.1,150.4L1037.3,124.85L1041.6,66.466L1045.9,149.57L1050.1,70.623L1054.4,149.34L1058.7,89.424L1062.9,125.99L1067.2,150.9L1071.5,114.77L1075.7,66.91L1080,151.32" style="fill:none;stroke:#F15A60;stroke-width:1.875" />
<path d="M60.137,54.891L64.405,56.721L68.672,58.132L72.939,234.3L77.206,59.732L81.474,62.816L85.741,61.685L90.008,64.658L94.275,189.31L98.542,63.658L102.81,65.074L107.08,66.337L111.34,68.141L115.61,193.77L119.88,66.581L124.15,68.249L128.41,66.27L132.68,69.234L136.95,280.91L141.21,68.705L145.48,73.585L149.75,68.03L154.02,73.988L158.28,85.542L162.55,145.34L166.82,74.404L171.08,73.623L175.35,75.415L179.62,83.568L183.89,237.94L188.15,77.729L192.42,78.815L196.69,76.326L200.96,78.924L205.22,71.953L209.49,132.85L213.76,78.811L218.02,77.673L222.29,72.442L226.56,85.418L230.83,195.65L235.09,79.805L239.36,79.136L243.63,73.877L247.89,85.406L252.16,57.198L256.43,168.67L260.7,80.738L264.96,69.192L269.23,91.835L273.5,78.703L277.77,245.69L282.03,89.181L286.3,73.018L290.57,75.255L294.83,82.875L299.1,78.249L303.37,277.95L307.64,75.791L311.9,76.107L316.17,87.66L320.44,82.817L324.7,56.321L328.97,186.24L333.24,85.508L337.51,77.291L341.77,77.582L346.04,85.413L350.31,60.494L354.57,191.81L358.84,82.434L363.11,81.662L367.38,86.065L371.64,79.732L375.91,51.152L380.18,161.91L384.45,77.735L388.71,77.821L392.98,84.705L397.25,82.555L401.51,211.3L405.78,80.997L410.05,80.703L414.32,85.124L418.58,84.81L422.85,88.839L427.12,157.99L431.38,83.533L435.65,82.445L439.92,80.438L444.19,87.421L448.45,208.78L452.72,83.334L456.99,84.35L461.25,88.703L465.52,85.078L469.79,80.993L474.06,262.65L478.32,81.266L482.59,77.288L486.86,79.042L491.13,90.215L495.39,90.928L499.66,181.47L503.93,87.92L508.19,88.578L512.46,70.783L516.73,87.923L521,113.11L525.26,140.04L529.53,83.814L533.8,93.823L538.06,69.667L542.33,79.847L546.6,297.3L550.87,86.375L555.13,86.262L559.4,84.185L563.67,64.088L567.94,107.28L572.2,145.32L576.47,95.755L580.74,82.688L585,74.26L589.27,102.88L593.54,58.192L597.81,438.26L602.07,74.74L606.34,86.511L610.61,97.851L614.87,83.428L619.14,94.141L623.41,284.58L627.68,82.078L631.94,84.642L636.21,104.74L640.48,74.972L644.74,94.267L649.01,255.68L653.28,110.82L657.55,63.621L661.81,108.17L666.08,71.606L670.35,92.953L674.62,171.97L678.88,100.86L683.15,70.356L687.42,97.558L691.68,89.066L695.95,92.375L700.22,162.77L704.49,108.45L708.75,71.92L713.02,103.75L717.29,83.599L721.55,80.582L725.82,151.34L730.09,99.352L734.36,79.497L738.62,93.703L742.89,84.836L747.16,116.51L751.43,382.14L755.69,82.748L759.96,89.713L764.23,88.538L768.49,91.675L772.76,89.367L777.03,328.33L781.3,211.59L785.56,78.039L789.83,101.89L794.1,62.785L798.36,120.63L802.63,61.356L806.9,214.68L811.17,71.827L815.43,94.062L819.7,90.484L823.97,69.717L828.23,145.76L832.5,152.66L836.77,101.52L841.04,86.338L845.3,62.206L849.57,109.4L853.84,85.426L858.11,230.56L862.37,109.29L866.64,76.065L870.91,106.44L875.17,87.59L879.44,118.8L883.71,202.53L887.98,91.808L892.24,114.66L896.51,58.062L900.78,125.31L905.04,86.636L909.31,245.23L913.58,127.94L917.85,98.095L922.11,93.692L926.38,124.13L930.65,60.844L934.91,96.804L939.18,313.41L943.45,64.432L947.72,103.83L951.98,93.4L956.25,62.583L960.52,212.31L964.79,167.6L969.05,62.718L973.32,250.66L977.59,88.103L981.85,82.896L986.12,151.05L990.39,199.25L994.66,63.887L998.92,129.43L1003.2,106.47L1007.5,83.1L1011.7,104.91L1016,163.32L1020.3,172.74L1024.5,132.91L1028.8,67.575L1033.1,95.089L1037.3,131.6L1041.6,77.323L1045.9,192.23L1050.1,156.93L1054.4,109.77L1058.7,131.8L1062.9,75.652L1067.2,91.807L1071.5,83.324" style="fill:none;stroke:#7AC36A;stroke-width:1.875;stroke-dasharray:7.5,2.5" />
<path d="M1055,694.3L1080,694.3" style="fill:none;stroke:#F15A60;stroke-width:1.875" />
<text x="1002.5" y="-687.85" transform="scale(1, -1)"
	style="font-family:Helvetica;font-weight:normal;font-style:normal;font-size:12pt">etcd v3</text>
<path d="M1055,680L1080,680" style="fill:none;stroke:#7AC36A;stroke-width:1.875;stroke-dasharray:7.5,2.5" />
<text x="951.62" y="-673.56" transform="scale(1, -1)"
	style="font-family:Helvetica;font-weight:normal;font-style:normal;font-size:12pt">etcd v3 (patch)</text>
</g>
</svg>
