<?xml version="1.0"?>
<!-- Generated by SVGo and Plotinum VG -->
<svg width="12in" height="8in"
	xmlns="http://www.w3.org/2000/svg"
	xmlns:xlink="http://www.w3.org/1999/xlink">
<g transform="scale(1, -1) translate(0, -720)">
<path d="M0,0L1080,0L1080,720L0,720Z" style="fill:#FFFFFF" />
<text x="235.25" y="-705.6" transform="scale(1, -1)"
	style="font-family:Helvetica;font-weight:normal;font-style:normal;font-size:12pt">Write 2K keys, 1-client, 1-conn, 8-byte key with random texts(<1MB) (etcd v3), Memory(MB)</text>
<text x="548.46" y="-4.8486" transform="scale(1, -1)"
	style="font-family:Helvetica;font-weight:normal;font-style:normal;font-size:12pt">Second</text>
<text x="64.31" y="-19.498" transform="scale(1, -1)"
	style="font-family:Helvetica;font-weight:normal;font-style:normal;font-size:10pt">0</text>
<text x="340.71" y="-19.498" transform="scale(1, -1)"
	style="font-family:Helvetica;font-weight:normal;font-style:normal;font-size:10pt">60</text>
<text x="617.11" y="-19.498" transform="scale(1, -1)"
	style="font-family:Helvetica;font-weight:normal;font-style:normal;font-size:10pt">120</text>
<text x="896.98" y="-19.498" transform="scale(1, -1)"
	style="font-family:Helvetica;font-weight:normal;font-style:normal;font-size:10pt">180</text>
<path d="M67.786,31.498L67.786,41.498" style="fill:none;stroke:#000000;stroke-width:0.625" />
<path d="M347.66,31.498L347.66,41.498" style="fill:none;stroke:#000000;stroke-width:0.625" />
<path d="M627.54,31.498L627.54,41.498" style="fill:none;stroke:#000000;stroke-width:0.625" />
<path d="M907.41,31.498L907.41,41.498" style="fill:none;stroke:#000000;stroke-width:0.625" />
<path d="M161.08,36.498L161.08,41.498" style="fill:none;stroke:#000000;stroke-width:0.625" />
<path d="M254.37,36.498L254.37,41.498" style="fill:none;stroke:#000000;stroke-width:0.625" />
<path d="M440.95,36.498L440.95,41.498" style="fill:none;stroke:#000000;stroke-width:0.625" />
<path d="M534.24,36.498L534.24,41.498" style="fill:none;stroke:#000000;stroke-width:0.625" />
<path d="M720.83,36.498L720.83,41.498" style="fill:none;stroke:#000000;stroke-width:0.625" />
<path d="M814.12,36.498L814.12,41.498" style="fill:none;stroke:#000000;stroke-width:0.625" />
<path d="M1000.7,36.498L1000.7,41.498" style="fill:none;stroke:#000000;stroke-width:0.625" />
<path d="M67.786,41.498L1080,41.498" style="fill:none;stroke:#000000;stroke-width:0.625" />
<g transform="rotate(90)">
<text x="331.08" y="14.399" transform="scale(1, -1)"
	style="font-family:Helvetica;font-weight:normal;font-style:normal;font-size:12pt">Memory(MB)</text>
</g>
<text x="19.248" y="-165.04" transform="scale(1, -1)"
	style="font-family:Helvetica;font-weight:normal;font-style:normal;font-size:10pt">1000</text>
<text x="19.248" y="-289.92" transform="scale(1, -1)"
	style="font-family:Helvetica;font-weight:normal;font-style:normal;font-size:10pt">2000</text>
<text x="19.248" y="-414.8" transform="scale(1, -1)"
	style="font-family:Helvetica;font-weight:normal;font-style:normal;font-size:10pt">3000</text>
<text x="19.248" y="-539.68" transform="scale(1, -1)"
	style="font-family:Helvetica;font-weight:normal;font-style:normal;font-size:10pt">4000</text>
<text x="19.248" y="-664.56" transform="scale(1, -1)"
	style="font-family:Helvetica;font-weight:normal;font-style:normal;font-size:10pt">5000</text>
<path d="M50.529,170.91L60.529,170.91" style="fill:none;stroke:#000000;stroke-width:0.625" />
<path d="M50.529,295.79L60.529,295.79" style="fill:none;stroke:#000000;stroke-width:0.625" />
<path d="M50.529,420.67L60.529,420.67" style="fill:none;stroke:#000000;stroke-width:0.625" />
<path d="M50.529,545.55L60.529,545.55" style="fill:none;stroke:#000000;stroke-width:0.625" />
<path d="M50.529,670.43L60.529,670.43" style="fill:none;stroke:#000000;stroke-width:0.625" />
<path d="M55.529,108.47L60.529,108.47" style="fill:none;stroke:#000000;stroke-width:0.625" />
<path d="M55.529,233.35L60.529,233.35" style="fill:none;stroke:#000000;stroke-width:0.625" />
<path d="M55.529,358.23L60.529,358.23" style="fill:none;stroke:#000000;stroke-width:0.625" />
<path d="M55.529,483.11L60.529,483.11" style="fill:none;stroke:#000000;stroke-width:0.625" />
<path d="M55.529,607.99L60.529,607.99" style="fill:none;stroke:#000000;stroke-width:0.625" />
<path d="M60.529,48.06L60.529,700.75" style="fill:none;stroke:#000000;stroke-width:0.625" />
<path d="M67.786,48.256L72.45,63.501L77.115,74.489L81.779,88.274L86.444,96.866L91.109,110.66L95.773,124.3L100.44,136.08L105.1,144.77L109.77,155.23L114.43,171.73L119.1,179.36L123.76,192.38L128.43,200.69L133.09,211.27L137.75,216.86L142.42,220.05L147.08,220.41L151.75,221.54L156.41,222.07L161.08,222.78L165.74,223.62L170.41,225.21L175.07,231.49L179.74,237.83L184.4,242.85L189.06,245.53L193.73,246.66L198.39,247.92L203.06,248.37L207.72,248.82L212.39,249.54L217.05,252.28L221.72,255.13L226.38,256.22L231.05,256.88L235.71,258.97L240.38,262.21L245.04,266.37L249.7,271.25L254.37,274.82L259.03,276.28L263.7,277.8L268.36,281.65L273.03,283.93L277.69,284.66L282.36,285.25L287.02,286.06L291.69,286.89L296.35,287.5L301.01,289.86L305.68,293.22L310.34,299.17L315.01,307.64L319.67,314.08L324.34,315.04L329,315.7L333.67,316.45L338.33,316.88L343,317.99L347.66,318.96L352.33,319.73L356.99,320.76L361.65,323.17L366.32,327L370.98,330.39L375.65,334.09L380.31,339.47L384.98,344.56L389.64,348.25L394.31,351.12L398.97,354.04L403.64,355.46L408.3,356.33L412.96,357.21L417.63,359.31L422.29,363.47L426.96,366.89L431.62,368.01L436.29,368.79L440.95,369.65L445.62,370.33L450.28,371.24L454.95,372.02L459.61,374.71L464.28,377.71L468.94,382.24L473.6,387.07L478.27,391.72L482.93,398.38L487.6,402.92L492.26,407.43L496.93,410.59L501.59,411.15L506.26,411.86L510.92,413.21L515.59,414.04L520.25,414.41L524.91,415.44L529.58,416.05L534.24,416.77L538.91,417.59L543.57,418.4L548.24,418.79L552.9,419.75L557.57,421.75L562.23,427.1L566.9,432.03L571.56,437.21L576.23,441.03L580.89,445.51L585.55,449.7L590.22,453.55L594.88,456.46L599.55,458.96L604.21,459.75L608.88,460.14L613.54,460.73L618.21,461.4L622.87,462.37L627.54,463.29L632.2,463.95L636.86,464.88L641.53,466.2L646.19,469.84L650.86,473.06L655.52,476.34L660.19,478.5L664.85,479.15L669.52,479.97L674.18,480.13L678.85,481.16L683.51,483.45L688.18,486.75L692.84,492.21L697.5,497.29L702.17,502.48L706.83,507.69L711.5,511.04L716.16,513.58L720.83,514.37L725.49,515.56L730.16,516.32L734.82,519.3L739.49,522.9L744.15,526.69L748.81,529.62L753.48,530.4L758.14,531.21L762.81,531.72L767.47,532.91L772.14,534.05L776.8,534.4L781.47,535.4L786.13,536.66L790.8,537.26L795.46,538.56L800.13,540.12L804.79,542.74L809.45,547.81L814.12,553.24L818.78,556.86L823.45,564.06L828.11,571.76L832.78,578.65L837.44,585.81L842.11,589.1L846.77,591.15L851.44,591.84L856.1,592.5L860.76,593.62L865.43,594.6L870.09,595.54L874.76,596.39L879.42,597.22L884.09,597.99L888.75,598.75L893.42,599.9L898.08,600.71L902.75,601.74L907.41,602.42L912.08,603.13L916.74,604.38L921.4,606.73L926.07,609.96L930.73,614.2L935.4,617.75L940.06,622.92L944.73,625.5L949.39,628.89L954.06,634.62L958.72,639.6L963.39,644.59L968.05,649.42L972.71,654.78L977.38,659.81L982.04,662.06L986.71,663.96L991.37,666.44L996.04,667.63L1000.7,668.4L1005.4,669.29L1010,670.15L1014.7,671.17L1019.4,672" style="fill:none;stroke:#F15A60;stroke-width:1.875" />
<path d="M67.786,48.791L72.45,63.097L77.115,72.985L81.779,83.692L86.444,96.936L91.109,106.33L95.773,116.49L100.44,126.39L105.1,140.16L109.77,150.47L114.43,157.75L119.1,173.84L123.76,180.62L128.43,196.68L133.09,200.94L137.75,211.32L142.42,214.94L147.08,217.1L151.75,219.71L156.41,220.91L161.08,224.63L165.74,225.52L170.41,226.17L175.07,227.83L179.74,230.18L184.4,233.5L189.06,237.37L193.73,243.72L198.39,246.81L203.06,249.96L207.72,250.89L212.39,251.58L217.05,252.48L221.72,254.4L226.38,256.11L231.05,258.06L235.71,260.94L240.38,263.87L245.04,267.61L249.7,270.92L254.37,273.64L259.03,279.05L263.7,284.52L268.36,284.99L273.03,285.72L277.69,286.47L282.36,287.33L287.02,288.07L291.69,289.04L296.35,292.43L301.01,296.99L305.68,302.99L310.34,306.15L315.01,309.32L319.67,312.34L324.34,314.85L329,317.9L333.67,318.91L338.33,319.32L343,321.14L347.66,326.17L352.33,327.16L356.99,328.21L361.65,329.01L366.32,330.94L370.98,333.59L375.65,336.38L380.31,339.74L384.98,342.55L389.64,346.46L394.31,353.87L398.97,358.44L403.64,361.03L408.3,363.33L412.96,364.07L417.63,364.74L422.29,366L426.96,366.42L431.62,367.08L436.29,368.54L440.95,369.67L445.62,370.54L450.28,378.04L454.95,382.94L459.61,385.63L464.28,388.76L468.94,391.98L473.6,395.7L478.27,398.88L482.93,401.67L487.6,403.94L492.26,407.03L496.93,409.87L501.59,412.22L506.26,417.14L510.92,419.4L515.59,420.13L520.25,421.34L524.91,421.98L529.58,423.01L534.24,423.75L538.91,424.55L543.57,425.41L548.24,428.97L552.9,432.09L557.57,434.63L562.23,441.22L566.9,448.32L571.56,453.42L576.23,455.92L580.89,459.11L585.55,461.61L590.22,464L594.88,466.66L599.55,469.11L604.21,469.76L608.88,470.5L613.54,471.14L618.21,472.09L622.87,472.92L627.54,473.59L632.2,479.17L636.86,484.04L641.53,485.93L646.19,487.08L650.86,488.38L655.52,490.94L660.19,494.26L664.85,496.89L669.52,499.23L674.18,502.5L678.85,505.7L683.51,508.86L688.18,512.14L692.84,514.99L697.5,517.59L702.17,521.98L706.83,526.34L711.5,533L716.16,537.97L720.83,538.59L725.49,539.25L730.16,540.18L734.82,541.27L739.49,541.99L744.15,542.78L748.81,543.47L753.48,544.29L758.14,545.07L762.81,546.09L767.47,546.78L772.14,547.53L776.8,548.49L781.47,553.29L786.13,560.51L790.8,567.36L795.46,571.63L800.13,574.29L804.79,576.64L809.45,579.15L814.12,584.07L818.78,588.56L823.45,590.86L828.11,593.4L832.78,596.16L837.44,598.71L842.11,601.7L846.77,604.82L851.44,606.71L856.1,607.28L860.76,608.27L865.43,609.46L870.09,611.67L874.76,613.75L879.42,617.1L884.09,621.59L888.75,624.21L893.42,624.83L898.08,625.44L902.75,626.22L907.41,626.86L912.08,627.91L916.74,628.8L921.4,629.63L926.07,630.8L930.73,632.59L935.4,635.94L940.06,638.48L944.73,641.21L949.39,644.39L954.06,647.29L958.72,650.47L963.39,654.19L968.05,661.69L972.71,667.69L977.38,674.71L982.04,677.78L986.71,681.46L991.37,684.55" style="fill:none;stroke:#7AC36A;stroke-width:1.875;stroke-dasharray:7.5,2.5" />
<path d="M67.786,48.06L72.45,59.894L77.115,69.964L81.779,78.722L86.444,89.049L91.109,97.79L95.773,106.74L100.44,115.54L105.1,124.58L109.77,134.78L114.43,141.66L119.1,154.19L123.76,160.74L128.43,173.09L133.09,177.2L137.75,190.08L142.42,195.26L147.08,212.88L151.75,219.59L156.41,221.39L161.08,222.77L165.74,227.26L170.41,234.42L175.07,240.15L179.74,241.39L184.4,242.15L189.06,242.43L193.73,243.17L198.39,244.06L203.06,246.71L207.72,248.5L212.39,249.56L217.05,251.81L221.72,256.73L226.38,261.43L231.05,266.16L235.71,270.96L240.38,271.94L245.04,272.59L249.7,273.46L254.37,274.57L259.03,275.65L263.7,279.24L268.36,281.37L273.03,282.08L277.69,283.81L282.36,289.41L287.02,294.89L291.69,299.27L296.35,301.89L301.01,306.86L305.68,307.38L310.34,308.43L315.01,309.45L319.67,310.14L324.34,310.89L329,311.48L333.67,313.61L338.33,318.53L343,322.05L347.66,324.85L352.33,329.72L356.99,334.67L361.65,338.95L366.32,341.77L370.98,343.38L375.65,343.98L380.31,346.89L384.98,349.36L389.64,350.3L394.31,351.1L398.97,352.11L403.64,353.04L408.3,353.73L412.96,354.42L417.63,354.95L422.29,355.99L426.96,360.04L431.62,367.07L436.29,372.59L440.95,377.43L445.62,381.86L450.28,384.48L454.95,386.39L459.61,387.15L464.28,387.84L468.94,388.82L473.6,389.85L478.27,393.49L482.93,396.47L487.6,397.36L492.26,398.18L496.93,399.02L501.59,399.86L506.26,400.93L510.92,401.87L515.59,404.28L520.25,408.6L524.91,414.43L529.58,421.78L534.24,429.52L538.91,433.66L543.57,434.91L548.24,435.89L552.9,436.88L557.57,437.57L562.23,438.99L566.9,439.94L571.56,441.2L576.23,443.34L580.89,445.29L585.55,450.54L590.22,451.37L594.88,452.04L599.55,452.79L604.21,453.59L608.88,454.72L613.54,457.67L618.21,462.59L622.87,467.62L627.54,471.73L632.2,476.59L636.86,480.41L641.53,487.92L646.19,492.45L650.86,493.2L655.52,493.24L660.19,493.76L664.85,494.26L669.52,494.97L674.18,496.02L678.85,496.99L683.51,497.7L688.18,498.47L692.84,499.22L697.5,500.48L702.17,501.3L706.83,502L711.5,506.09L716.16,509.67L720.83,510.74L725.49,512.07L730.16,512.56L734.82,513.03L739.49,515.1L744.15,518.52L748.81,523.03L753.48,527.97L758.14,531.88L762.81,536.46L767.47,541.1L772.14,545.13L776.8,547.12L781.47,548.19L786.13,549.36L790.8,552.29L795.46,556.99L800.13,558.75L804.79,559.4L809.45,560.09L814.12,561.43L818.78,562.49L823.45,563.51L828.11,564.43L832.78,564.68L837.44,565.38L842.11,566.3L846.77,567.49L851.44,568.4L856.1,569.53L860.76,570.64L865.43,572.49L870.09,576.56L874.76,580.47L879.42,583.49L884.09,587.63L888.75,592.59L893.42,598.04L898.08,603.27L902.75,607.56L907.41,610.91L912.08,615.3L916.74,616.65L921.4,617.89L926.07,618.68L930.73,619.48L935.4,620.18L940.06,621.55L944.73,625.8L949.39,629.36L954.06,632.13L958.72,632.99L963.39,633.15L968.05,634.17L972.71,634.83L977.38,636.1L982.04,636.99L986.71,637.63L991.37,638.73L996.04,639.55L1000.7,640.35L1005.4,641.5L1010,642.11L1014.7,643.21L1019.4,643.88L1024,647.79L1028.7,654.77L1033.4,663.9L1038,670.56L1042.7,675.08L1047.3,679.39L1052,684.61L1056.7,689.4L1061.3,694.33L1066,697.31L1070.7,699.21L1075.3,699.68L1080,700.75" style="fill:none;stroke:#5A9BD4;stroke-width:1.875;stroke-dasharray:2.5,2.5" />
<path d="M1055,693.4L1080,693.4" style="fill:none;stroke:#F15A60;stroke-width:1.875" />
<text x="1002.5" y="-686.35" transform="scale(1, -1)"
	style="font-family:Helvetica;font-weight:normal;font-style:normal;font-size:12pt">etcd v3</text>
<path d="M1055,678.7L1080,678.7" style="fill:none;stroke:#7AC36A;stroke-width:1.875;stroke-dasharray:7.5,2.5" />
<text x="906.6" y="-671.65" transform="scale(1, -1)"
	style="font-family:Helvetica;font-weight:normal;font-style:normal;font-size:12pt">etcd v3 (with Snappy)</text>
<path d="M1055,664L1080,664" style="fill:none;stroke:#5A9BD4;stroke-width:1.875;stroke-dasharray:2.5,2.5" />
<text x="933.29" y="-656.95" transform="scale(1, -1)"
	style="font-family:Helvetica;font-weight:normal;font-style:normal;font-size:12pt">etcd v3 (with Lz4)</text>
</g>
</svg>
