<?xml version="1.0"?>
<!-- Generated by SVGo and Plotinum VG -->
<svg width="12in" height="8in"
	xmlns="http://www.w3.org/2000/svg"
	xmlns:xlink="http://www.w3.org/1999/xlink">
<g transform="scale(1, -1) translate(0, -720)">
<path d="M0,0L1080,0L1080,720L0,720Z" style="fill:#FFFFFF" />
<text x="210.22" y="-705.6" transform="scale(1, -1)"
	style="font-family:Helvetica;font-weight:normal;font-style:normal;font-size:12pt">Write 2K keys, 1-client, 1-conn, 8-byte key with random texts(<1MB) (etcd v3), Latency(millisecond)</text>
<text x="544.98" y="-4.8486" transform="scale(1, -1)"
	style="font-family:Helvetica;font-weight:normal;font-style:normal;font-size:12pt">Second</text>
<text x="57.358" y="-19.498" transform="scale(1, -1)"
	style="font-family:Helvetica;font-weight:normal;font-style:normal;font-size:10pt">0</text>
<text x="334.39" y="-19.498" transform="scale(1, -1)"
	style="font-family:Helvetica;font-weight:normal;font-style:normal;font-size:10pt">60</text>
<text x="611.41" y="-19.498" transform="scale(1, -1)"
	style="font-family:Helvetica;font-weight:normal;font-style:normal;font-size:10pt">120</text>
<text x="891.92" y="-19.498" transform="scale(1, -1)"
	style="font-family:Helvetica;font-weight:normal;font-style:normal;font-size:10pt">180</text>
<path d="M60.834,31.498L60.834,41.498" style="fill:none;stroke:#000000;stroke-width:0.625" />
<path d="M341.34,31.498L341.34,41.498" style="fill:none;stroke:#000000;stroke-width:0.625" />
<path d="M621.84,31.498L621.84,41.498" style="fill:none;stroke:#000000;stroke-width:0.625" />
<path d="M902.35,31.498L902.35,41.498" style="fill:none;stroke:#000000;stroke-width:0.625" />
<path d="M154.34,36.498L154.34,41.498" style="fill:none;stroke:#000000;stroke-width:0.625" />
<path d="M247.84,36.498L247.84,41.498" style="fill:none;stroke:#000000;stroke-width:0.625" />
<path d="M434.84,36.498L434.84,41.498" style="fill:none;stroke:#000000;stroke-width:0.625" />
<path d="M528.34,36.498L528.34,41.498" style="fill:none;stroke:#000000;stroke-width:0.625" />
<path d="M715.34,36.498L715.34,41.498" style="fill:none;stroke:#000000;stroke-width:0.625" />
<path d="M808.85,36.498L808.85,41.498" style="fill:none;stroke:#000000;stroke-width:0.625" />
<path d="M995.85,36.498L995.85,41.498" style="fill:none;stroke:#000000;stroke-width:0.625" />
<path d="M60.834,41.498L1080,41.498" style="fill:none;stroke:#000000;stroke-width:0.625" />
<g transform="rotate(90)">
<text x="306.05" y="14.399" transform="scale(1, -1)"
	style="font-family:Helvetica;font-weight:normal;font-style:normal;font-size:12pt">Latency(millisecond)</text>
</g>
<text x="26.2" y="-162.78" transform="scale(1, -1)"
	style="font-family:Helvetica;font-weight:normal;font-style:normal;font-size:10pt">60</text>
<text x="19.248" y="-355.51" transform="scale(1, -1)"
	style="font-family:Helvetica;font-weight:normal;font-style:normal;font-size:10pt">120</text>
<text x="19.248" y="-548.24" transform="scale(1, -1)"
	style="font-family:Helvetica;font-weight:normal;font-style:normal;font-size:10pt">180</text>
<path d="M43.577,168.65L53.577,168.65" style="fill:none;stroke:#000000;stroke-width:0.625" />
<path d="M43.577,361.38L53.577,361.38" style="fill:none;stroke:#000000;stroke-width:0.625" />
<path d="M43.577,554.11L53.577,554.11" style="fill:none;stroke:#000000;stroke-width:0.625" />
<path d="M48.577,104.41L53.577,104.41" style="fill:none;stroke:#000000;stroke-width:0.625" />
<path d="M48.577,232.9L53.577,232.9" style="fill:none;stroke:#000000;stroke-width:0.625" />
<path d="M48.577,297.14L53.577,297.14" style="fill:none;stroke:#000000;stroke-width:0.625" />
<path d="M48.577,425.63L53.577,425.63" style="fill:none;stroke:#000000;stroke-width:0.625" />
<path d="M48.577,489.87L53.577,489.87" style="fill:none;stroke:#000000;stroke-width:0.625" />
<path d="M48.577,618.36L53.577,618.36" style="fill:none;stroke:#000000;stroke-width:0.625" />
<path d="M48.577,682.6L53.577,682.6" style="fill:none;stroke:#000000;stroke-width:0.625" />
<path d="M53.577,48.06L53.577,700.75" style="fill:none;stroke:#000000;stroke-width:0.625" />
<path d="M60.834,52.581L65.509,48.06L70.184,51.797L74.859,52.36L79.534,50.226L84.209,55.699L88.884,54.803L93.559,50.052L98.234,50.503L102.91,51.625L107.58,52.052L112.26,56.13L116.93,55.558L121.61,59.274L126.28,339.66L130.96,409.3L135.63,429.02L140.31,309.01L144.99,383.65L149.66,442.94L154.34,310.28L159.01,383.98L163.69,443.35L168.36,309.75L173.04,383.32L177.71,539.19L182.39,512.17L187.06,521.46L191.74,526.43L196.41,523.17L201.09,483.83L205.76,403.21L210.44,507.22L215.11,665.84L219.79,585.22L224.46,522.7L229.14,524.8L233.81,455.83L238.49,462.87L243.16,500.98L247.84,356.14L252.51,368.84L257.19,374.25L261.86,382.09L266.54,367.39L271.21,373.23L275.89,380.55L280.56,368.22L285.24,460.55L289.91,306.68L294.59,370.48L299.26,461.47L303.94,306.21L308.61,369.53L313.29,461.13L317.96,305.6L322.64,368.11L327.31,415.81L331.99,336.98L336.66,368.53L341.34,417.18L346.01,336.69L350.69,368.96L355.36,421.21L360.04,337.25L364.71,369.66L369.39,419.05L374.06,336.07L378.74,368.6L383.41,381.56L388.09,375.25L392.76,369.35L397.44,381.81L402.11,446.62L406.79,305.91L411.46,383.44L416.14,448.12L420.81,307.17L425.49,382.7L430.16,447.15L434.84,306.65L439.51,512.61L444.19,696.16L448.86,402.27L453.54,509.53L458.22,422.25L462.89,553.86L467.57,358.42L472.24,370.27L476.92,467.43L481.59,309.11L486.27,370.56L490.94,464.62L495.62,309.09L500.29,370.74L504.97,465.95L509.64,308L514.32,409.11L518.99,514.18L523.67,561.17L528.34,531.46L533.02,574.82L537.69,373.81L542.37,482.05L547.04,667.79L551.72,509.94L556.39,510.04L561.07,444.85L565.74,498.79L570.42,531.18L575.09,528.54L579.77,463.7L584.44,638.06L589.12,379.13L593.79,489.06L598.47,375.8L603.14,487.75L607.82,403.54L612.49,575.18L617.17,480.06L621.84,490.96L626.52,402.99L631.19,463.73L635.87,437.23L640.54,399.43L645.22,485.73L649.89,533.57L654.57,532.26L659.24,532.69L663.92,459.61L668.59,362.4L673.27,379.51L677.94,384.74L682.62,371.02L687.29,380.04L691.97,386.21L696.64,372.03L701.32,380.36L705.99,386.49L710.67,405.74L715.34,339.15L720.02,385.71L724.69,406.29L729.37,340.97L734.04,386.51L738.72,405.17L743.39,345.49L748.07,385.76L752.74,451.2L757.42,309.54L762.09,385.71L766.77,381.28L771.45,372.81L776.12,385.64L780.8,378.94L785.47,372.55L790.15,386.3L794.82,378.83L799.5,373.04L804.17,423.31L808.85,339.18L813.52,374.62L818.2,469.16L822.87,309.52L827.55,373.99L832.22,469.95L836.9,309.84L841.57,373.23L846.25,381.83L850.92,386.39L855.6,373L860.27,381.11L864.95,385.87L869.62,373.9L874.3,380.22L878.97,386.74L883.65,412.17L888.32,340.74L893,386.06L897.67,408.22L902.35,340.65L907.02,387.08L911.7,452.46L916.37,316.15L921.05,386.79L925.72,444.9L930.4,339.21L935.07,373.2L939.75,460.11L944.42,315.85L949.1,373.78L953.77,466.72L958.45,310.93L963.12,429.98L967.8,388.71L972.47,381.03L977.15,374.28L981.82,387.39L986.5,381.9L991.17,374.81L995.85,423.62L1000.5,341.61L1005.2,376.35L1009.9,471.67L1014.5,310.82L1019.2,375.8" style="fill:none;stroke:#F15A60;stroke-width:1.875" />
<path d="M60.834,60.107L65.509,58.219L70.184,60.279L74.859,59.573L79.534,60.754L84.209,60.507L88.884,60.338L93.559,62.211L98.234,62.428L102.91,63.612L107.58,64.574L112.26,63.496L116.93,60.676L121.61,61.626L126.28,66.178L130.96,455.52L135.63,452.61L140.31,381.19L144.99,367.44L149.66,417.35L154.34,337.14L159.01,367.67L163.69,383.84L168.36,376.64L173.04,367.95L177.71,383.13L182.39,442.54L187.06,308.87L191.74,387.81L196.41,441.58L201.09,309.29L205.76,382.91L210.44,444.45L215.11,309.14L219.79,382.57L224.46,441.76L229.14,308.91L233.81,383.79L238.49,442.61L243.16,308.68L247.84,384.26L252.51,400.8L257.19,338.1L261.86,383.46L266.54,402.13L271.21,342.43L275.89,384.18L280.56,401.03L285.24,338.73L289.91,384.69L294.59,401.79L299.26,338.39L303.94,384.64L308.61,400.93L313.29,339.01L317.96,384.21L322.64,400.45L327.31,341.48L331.99,385.45L336.66,401.7L341.34,338.4L346.01,384.53L350.69,400.77L355.36,338.98L360.04,384.69L364.71,400.95L369.39,340.86L374.06,383.88L378.74,392.87L383.41,445.26L388.09,306.77L392.76,380.94L397.44,401.44L402.11,335.29L406.79,383.18L411.46,401.45L416.14,335.72L420.81,381.37L425.49,368.52L430.16,375.75L434.84,381.38L439.51,369.32L444.19,376.09L448.86,383.53L453.54,368.51L458.22,376.16L462.89,382.05L467.57,369.63L472.24,375.76L476.92,382.11L481.59,370.03L486.27,377.65L490.94,381.64L495.62,370.21L500.29,376.61L504.97,382.36L509.64,369.38L514.32,463.23L518.99,306.3L523.67,369.3L528.34,465.7L533.02,306.16L537.69,369.84L542.37,466.61L547.04,306L551.72,374.87L556.39,465.14L561.07,313.59L565.74,371.2L570.42,379.24L575.09,382.89L579.77,408.87L584.44,451.73L589.12,415.42L593.79,483.33L598.47,383.69L603.14,370.28L607.82,379.28L612.49,384.74L617.17,370.21L621.84,377.98L626.52,384.89L631.19,371.14L635.87,377.05L640.54,384.52L645.22,370.35L649.89,378.53L654.57,384.2L659.24,371.67L663.92,377.28L668.59,384.7L673.27,372.19L677.94,379.97L682.62,389.33L687.29,372.36L691.97,378L696.64,385.37L701.32,372.09L705.99,379.1L710.67,385.06L715.34,370.5L720.02,378.32L724.69,387.92L729.37,405.1L734.04,337.82L738.72,384.42L743.39,405.31L748.07,338.41L752.74,385.55L757.42,405.61L762.09,338.48L766.77,385.78L771.45,405.69L776.12,338.99L780.8,386.34L785.47,449.93L790.15,511.56L794.82,456.93L799.5,337.75L804.17,385.65L808.85,451.71L813.52,513.75L818.2,361.03L822.87,373.78L827.55,421.58L832.22,342.42L836.9,372.17L841.57,464.05L846.25,310.21L850.92,373.14L855.6,465.97L860.27,311.39L864.95,577.24L869.62,514.54L874.3,457.25L878.97,342.53L883.65,646.15L888.32,475.6L893,406.66L897.67,380L902.35,373.39L907.02,421.77L911.7,339.59L916.37,397.62L921.05,372.35L925.72,460.55L930.4,312.74L935.07,372.75L939.75,380.95L944.42,385.41L949.1,372.79L953.77,379.5L958.45,386.38L963.12,410.19L967.8,399.63L972.47,383.79L977.15,374.88L981.82,423.55L986.5,340.46L991.17,375.22" style="fill:none;stroke:#7AC36A;stroke-width:1.875;stroke-dasharray:7.5,2.5" />
<path d="M60.834,85.246L65.509,78.257L70.184,78.419L74.859,97.119L79.534,85.634L84.209,81.67L88.884,82.461L93.559,90.192L98.234,90.218L102.91,85.395L107.58,80.335L112.26,86.845L116.93,84.626L121.61,86.024L126.28,85.494L130.96,86.677L135.63,80.324L140.31,83.098L144.99,82.121L149.66,212.27L154.34,483.75L159.01,350.68L163.69,500.92L168.36,503.35L173.04,443.7L177.71,475.92L182.39,477.39L187.06,506.49L191.74,484.84L196.41,462.93L201.09,353.81L205.76,378.02L210.44,397.82L215.11,333.97L219.79,377.46L224.46,370.65L229.14,371.3L233.81,380.15L238.49,365.15L243.16,371.32L247.84,379.12L252.51,365.53L257.19,458.77L261.86,303.88L266.54,365.42L271.21,414.62L275.89,333.35L280.56,365.43L285.24,413.31L289.91,355.49L294.59,368.87L299.26,364.99L303.94,377.78L308.61,439.72L313.29,306.08L317.96,378.05L322.64,400.24L327.31,333.62L331.99,449.66L336.66,400.24L341.34,565.2L346.01,395.28L350.69,416.52L355.36,445.69L360.04,458.68L364.71,385.36L369.39,566.55L374.06,395.98L378.74,441.04L383.41,392.46L388.09,419.23L392.76,444.73L397.44,507.72L402.11,673.61L406.79,663.79L411.46,532.8L416.14,503.21L420.81,441.07L425.49,397.93L430.16,417.92L434.84,443.54L439.51,393.39L444.19,570.93L448.86,427.48L453.54,386.37L458.22,366.66L462.89,379.63L467.57,444.58L472.24,342.71L476.92,395.32L481.59,427.04L486.27,380.22L490.94,444.67L495.62,307.85L500.29,379.67L504.97,450.04L509.64,315.2L514.32,380.1L518.99,442.89L523.67,307.17L528.34,380.65L533.02,402.01L537.69,334.27L542.37,380.57L547.04,367.65L551.72,375.46L556.39,381.69L561.07,369.48L565.74,375L570.42,383.41L575.09,370.19L579.77,434.7L584.44,340.34L589.12,385.07L593.79,402.24L598.47,339.99L603.14,386.01L607.82,404.94L612.49,342.41L617.17,517.74L621.84,532.32L626.52,532.2L631.19,592.3L635.87,509.81L640.54,672.09L645.22,542.92L649.89,637.37L654.57,700.75L659.24,401.92L663.92,423.82L668.59,446.76L673.27,402.11L677.94,447.72L682.62,398.89L687.29,423.04L691.97,653.31L696.64,700.71L701.32,512.68L705.99,451.65L710.67,482.3L715.34,520.76L720.02,595.79L724.69,684.84L729.37,673.47L734.04,539.23L738.72,446.81L743.39,400.66L748.07,434.18L752.74,557.83L757.42,436.18L762.09,447.14L766.77,400.29L771.45,451.4L776.12,426.63L780.8,498.03L785.47,450.27L790.15,521.08L794.82,403.35L799.5,447.44L804.17,400.88L808.85,426.37L813.52,427.11L818.2,515.07L822.87,598.46L827.55,480.25L832.22,449.36L836.9,400.54L841.57,424.74L846.25,426.04L850.92,472.81L855.6,543.17L860.27,444.64L864.95,432.68L869.62,315.1L874.3,373.18L878.97,468.62L883.65,313.16L888.32,373.76L893,382.47L897.67,388.64L902.35,376.02L907.02,380.98L911.7,388.9L916.37,406.73L921.05,343.91L925.72,397.8L930.4,386.21L935.07,380.42L939.75,408.61L944.42,412.12L949.1,407.47L953.77,343.58L958.45,390.32L963.12,450.65L967.8,313.8L972.47,451.12L977.15,579.54L981.82,407.78L986.5,626.45L991.17,477.35L995.85,488.91L1000.5,433.84L1005.2,475.5L1009.9,367.65L1014.5,407.68L1019.2,340.82L1023.9,385.85L1028.6,453.1L1033.2,308.66L1037.9,386.44L1042.6,452.5L1047.3,310.95L1051.9,386.25L1056.6,380.82L1061.3,380.7L1066,421.67L1070.6,342.97L1075.3,374.46L1080,423.67" style="fill:none;stroke:#5A9BD4;stroke-width:1.875;stroke-dasharray:2.5,2.5" />
<path d="M1055,693.4L1080,693.4" style="fill:none;stroke:#F15A60;stroke-width:1.875" />
<text x="1002.5" y="-686.35" transform="scale(1, -1)"
	style="font-family:Helvetica;font-weight:normal;font-style:normal;font-size:12pt">etcd v3</text>
<path d="M1055,678.7L1080,678.7" style="fill:none;stroke:#7AC36A;stroke-width:1.875;stroke-dasharray:7.5,2.5" />
<text x="906.6" y="-671.65" transform="scale(1, -1)"
	style="font-family:Helvetica;font-weight:normal;font-style:normal;font-size:12pt">etcd v3 (with Snappy)</text>
<path d="M1055,664L1080,664" style="fill:none;stroke:#5A9BD4;stroke-width:1.875;stroke-dasharray:2.5,2.5" />
<text x="933.29" y="-656.95" transform="scale(1, -1)"
	style="font-family:Helvetica;font-weight:normal;font-style:normal;font-size:12pt">etcd v3 (with Lz4)</text>
</g>
</svg>
