<?xml version="1.0"?>
<!-- Generated by SVGo and Plotinum VG -->
<svg width="12in" height="8in"
	xmlns="http://www.w3.org/2000/svg"
	xmlns:xlink="http://www.w3.org/1999/xlink">
<g transform="scale(1, -1) translate(0, -720)">
<path d="M0,0L1080,0L1080,720L0,720Z" style="fill:#FFFFFF" />
<text x="262.75" y="-705.6" transform="scale(1, -1)"
	style="font-family:Helvetica;font-weight:normal;font-style:normal;font-size:12pt">Write 2K keys, 1-client, 1-conn, 8-byte key with random texts(<1MB) (etcd v3), CPU</text>
<text x="541.5" y="-4.8486" transform="scale(1, -1)"
	style="font-family:Helvetica;font-weight:normal;font-style:normal;font-size:12pt">Second</text>
<text x="50.406" y="-19.498" transform="scale(1, -1)"
	style="font-family:Helvetica;font-weight:normal;font-style:normal;font-size:10pt">0</text>
<text x="334.63" y="-19.498" transform="scale(1, -1)"
	style="font-family:Helvetica;font-weight:normal;font-style:normal;font-size:10pt">60</text>
<text x="618.85" y="-19.498" transform="scale(1, -1)"
	style="font-family:Helvetica;font-weight:normal;font-style:normal;font-size:10pt">120</text>
<text x="906.54" y="-19.498" transform="scale(1, -1)"
	style="font-family:Helvetica;font-weight:normal;font-style:normal;font-size:10pt">180</text>
<path d="M53.882,31.498L53.882,41.498" style="fill:none;stroke:#000000;stroke-width:0.625" />
<path d="M341.58,31.498L341.58,41.498" style="fill:none;stroke:#000000;stroke-width:0.625" />
<path d="M629.28,31.498L629.28,41.498" style="fill:none;stroke:#000000;stroke-width:0.625" />
<path d="M916.97,31.498L916.97,41.498" style="fill:none;stroke:#000000;stroke-width:0.625" />
<path d="M149.78,36.498L149.78,41.498" style="fill:none;stroke:#000000;stroke-width:0.625" />
<path d="M245.68,36.498L245.68,41.498" style="fill:none;stroke:#000000;stroke-width:0.625" />
<path d="M437.48,36.498L437.48,41.498" style="fill:none;stroke:#000000;stroke-width:0.625" />
<path d="M533.38,36.498L533.38,41.498" style="fill:none;stroke:#000000;stroke-width:0.625" />
<path d="M725.17,36.498L725.17,41.498" style="fill:none;stroke:#000000;stroke-width:0.625" />
<path d="M821.07,36.498L821.07,41.498" style="fill:none;stroke:#000000;stroke-width:0.625" />
<path d="M1012.9,36.498L1012.9,41.498" style="fill:none;stroke:#000000;stroke-width:0.625" />
<path d="M53.882,41.498L1080,41.498" style="fill:none;stroke:#000000;stroke-width:0.625" />
<g transform="rotate(90)">
<text x="358.57" y="14.399" transform="scale(1, -1)"
	style="font-family:Helvetica;font-weight:normal;font-style:normal;font-size:12pt">CPU</text>
</g>
<text x="26.2" y="-189.26" transform="scale(1, -1)"
	style="font-family:Helvetica;font-weight:normal;font-style:normal;font-size:10pt">8</text>
<text x="19.248" y="-392.11" transform="scale(1, -1)"
	style="font-family:Helvetica;font-weight:normal;font-style:normal;font-size:10pt">16</text>
<text x="19.248" y="-594.97" transform="scale(1, -1)"
	style="font-family:Helvetica;font-weight:normal;font-style:normal;font-size:10pt">24</text>
<path d="M36.625,195.13L46.625,195.13" style="fill:none;stroke:#000000;stroke-width:0.625" />
<path d="M36.625,397.99L46.625,397.99" style="fill:none;stroke:#000000;stroke-width:0.625" />
<path d="M36.625,600.84L46.625,600.84" style="fill:none;stroke:#000000;stroke-width:0.625" />
<path d="M41.625,93.703L46.625,93.703" style="fill:none;stroke:#000000;stroke-width:0.625" />
<path d="M41.625,296.56L46.625,296.56" style="fill:none;stroke:#000000;stroke-width:0.625" />
<path d="M41.625,499.42L46.625,499.42" style="fill:none;stroke:#000000;stroke-width:0.625" />
<path d="M46.625,48.06L46.625,700.75" style="fill:none;stroke:#000000;stroke-width:0.625" />
<path d="M53.882,52.625L58.677,170.79L63.472,260.55L68.267,338.15L73.062,404.33L77.857,457.32L82.652,504.23L87.446,545.82L92.241,582.33L97.036,609.72L101.83,634.06L106.63,662.72L111.42,678.69L116.22,700.75L121.01,686.3L125.81,662.46L130.6,642.68L135.4,626.2L140.19,611.75L144.99,598.56L149.78,583.86L154.58,572.19L159.37,564.84L164.17,556.72L168.96,544.81L173.76,534.16L178.55,524.77L183.35,515.14L188.14,505.25L192.94,496.63L197.73,488.77L202.53,482.68L207.32,477.36L212.12,471.52L216.91,467.97L221.7,463.41L226.5,457.32L231.29,451.24L236.09,445.66L240.88,440.33L245.68,435.77L250.47,430.45L255.27,426.39L260.06,421.32L264.86,418.27L269.65,416.5L274.45,413.71L279.24,410.92L284.04,407.12L288.83,403.82L293.63,401.28L298.42,399L303.22,395.45L308.01,392.41L312.81,390.13L317.6,387.59L322.4,385.06L327.19,382.77L331.99,379.48L336.78,376.94L341.58,375.17L346.37,373.39L351.17,371.62L355.96,370.35L360.76,368.32L365.55,366.04L370.35,364.52L375.14,362.74L379.94,360.71L384.73,358.68L389.53,357.42L394.32,355.9L399.12,354.12L403.91,351.84L408.71,350.32L413.5,348.8L418.3,347.27L423.09,346.01L427.89,345.25L432.68,344.74L437.48,343.47L442.27,342.71L447.07,341.44L451.86,339.67L456.66,338.15L461.45,336.62L466.25,335.1L471.04,333.83L475.84,332.82L480.63,331.81L485.43,330.28L490.22,328.76L495.02,327.5L499.81,327.24L504.61,326.23L509.4,325.21L514.2,324.45L518.99,323.69L523.79,323.44L528.58,322.68L533.38,321.66L538.17,321.41L542.97,320.65L547.76,319.38L552.56,318.37L557.35,317.35L562.15,316.85L566.94,315.83L571.74,315.32L576.53,314.82L581.33,314.31L586.12,314.06L590.92,313.3L595.71,312.53L600.51,311.77L605.3,311.01L610.1,310.25L614.89,309.24L619.69,308.48L624.48,307.97L629.28,307.72L634.07,306.96L638.87,306.7L643.66,306.45L648.45,305.94L653.25,305.94L658.04,305.43L662.84,304.93L667.63,304.67L672.43,303.91L677.22,303.41L682.02,302.65L686.81,302.14L691.61,301.38L696.4,300.87L701.2,300.11L705.99,299.1L710.79,298.59L715.58,298.08L720.38,297.57L725.17,296.81L729.97,296.31L734.76,295.8L739.56,295.55L744.35,295.04L749.15,295.04L753.94,294.78L758.74,294.78L763.53,294.78L768.33,294.28L773.12,294.28L777.92,294.02L782.71,293.77L787.51,293.26L792.3,292.76L797.1,292.25L801.89,291.74L806.69,291.23L811.48,290.73L816.28,290.47L821.07,289.71L825.87,289.21L830.66,288.7L835.46,288.19L840.25,287.94L845.05,287.68L849.84,287.43L854.64,287.43L859.43,286.92L864.23,286.67L869.02,286.42L873.82,285.91L878.61,285.66L883.41,285.4L888.2,285.15L893,284.64L897.79,284.64L902.59,284.39L907.38,284.39L912.18,284.13L916.97,284.13L921.77,283.88L926.56,283.88L931.36,283.37L936.15,283.12L940.95,282.87L945.74,282.61L950.54,282.36L955.33,282.11L960.13,281.85L964.92,281.85L969.72,281.6L974.51,281.35L979.31,281.09L984.1,280.84L988.9,280.33L993.69,280.08L998.49,279.57L1003.3,279.57" style="fill:none;stroke:#F15A60;stroke-width:1.875" />
<path d="M53.882,53.385L58.677,158.36L63.472,239.25L68.267,307.97L73.062,362.23L77.857,408.38L82.652,446.42L87.446,479.64L92.241,507.78L97.036,535.68L101.83,557.48L106.63,577.26L111.42,596.03L116.22,613.78L121.01,630.01L125.81,632.54L130.6,614.03L135.4,596.28L140.19,580.81L144.99,566.87L149.78,553.68L154.58,543.03L159.37,532.63L164.17,521.22L168.96,512.1L173.76,503.22L178.55,494.85L183.35,486.74L188.14,479.38L192.94,472.28L197.73,466.45L202.53,460.87L207.32,454.03L212.12,448.7L216.91,441.35L221.7,436.53L226.5,431.71L231.29,427.66L236.09,423.09L240.88,418.02L245.68,414.22L250.47,411.17L255.27,407.12L260.06,403.31L264.86,401.03L269.65,398.5L274.45,394.95L279.24,391.65L284.04,389.62L288.83,386.32L293.63,384.04L298.42,382.01L303.22,379.73L308.01,377.7L312.81,374.91L317.6,372.12L322.4,369.84L327.19,368.32L331.99,366.04L336.78,363.76L341.58,361.47L346.37,359.7L351.17,358.43L355.96,356.4L360.76,354.37L365.55,352.85L370.35,351.58L375.14,350.57L379.94,348.54L384.73,346.26L389.53,344.48L394.32,342.96L399.12,341.19L403.91,340.43L408.71,339.16L413.5,337.89L418.3,337.13L423.09,336.12L427.89,334.6L432.68,333.07L437.48,332.31L442.27,331.3L447.07,330.28L451.86,330.03L456.66,329.52L461.45,328L466.25,326.99L471.04,326.23L475.84,325.21L480.63,323.95L485.43,323.18L490.22,321.92L495.02,320.65L499.81,319.89L504.61,319.38L509.4,318.87L514.2,318.62L518.99,317.61L523.79,317.1L528.58,316.34L533.38,315.58L538.17,315.07L542.97,314.31L547.76,313.55L552.56,312.79L557.35,312.03L562.15,311.27L566.94,310.25L571.74,309.49L576.53,308.48L581.33,308.22L586.12,307.97L590.92,306.96L595.71,306.2L600.51,305.18L605.3,304.42L610.1,303.41L614.89,302.39L619.69,301.63L624.48,301.12L629.28,300.36L634.07,299.6L638.87,298.59L643.66,297.83L648.45,297.07L653.25,296.31L658.04,296.31L662.84,296.05L667.63,295.8L672.43,295.55L677.22,295.04L682.02,294.53L686.81,294.02L691.61,293.26L696.4,292.76L701.2,292L705.99,291.74L710.79,291.23L715.58,290.73L720.38,290.22L725.17,289.71L729.97,289.21L734.76,288.95L739.56,288.95L744.35,288.7L749.15,288.7L753.94,288.45L758.74,288.19L763.53,287.68L768.33,287.18L773.12,286.67L777.92,286.42L782.71,285.91L787.51,285.66L792.3,285.4L797.1,285.15L801.89,284.64L806.69,284.64L811.48,284.13L816.28,284.13L821.07,283.88L825.87,283.63L830.66,283.37L835.46,283.12L840.25,282.61L845.05,282.36L849.84,282.11L854.64,281.85L859.43,281.35L864.23,280.84L869.02,280.84L873.82,280.58L878.61,280.58L883.41,280.33L888.2,279.82L893,279.82L897.79,279.57L902.59,279.57L907.38,279.32L912.18,279.32L916.97,279.32L921.77,279.06L926.56,278.81L931.36,278.56L936.15,278.3L940.95,278.05L945.74,277.8L950.54,277.54L955.33,277.54L960.13,277.03L964.92,276.53L969.72,276.02L974.51,275.51L979.31,275.26L984.1,274.75L988.9,274.5L993.69,274.5L998.49,273.99L1003.3,273.74L1008.1,273.48L1012.9,273.48L1017.7,273.23L1022.5,272.98L1027.3,272.72L1032.1,272.47L1036.8,272.22" style="fill:none;stroke:#7AC36A;stroke-width:1.875;stroke-dasharray:7.5,2.5" />
<path d="M53.882,48.06L58.677,146.95L63.472,218.21L68.267,279.06L73.062,339.92L77.857,380.49L82.652,411.93L87.446,441.35L92.241,467.97L97.036,490.54L101.83,510.07L106.63,527.31L111.42,542.02L116.22,557.74L121.01,567.88L125.81,579.8L130.6,587.41L135.4,596.79L140.19,604.9L144.99,611.49L149.78,599.07L154.58,587.41L159.37,577.77L164.17,567.37L168.96,554.44L173.76,544.3L178.55,534.41L183.35,525.28L188.14,516.91L192.94,508.8L197.73,500.43L202.53,492.82L207.32,486.99L212.12,481.16L216.91,475.83L221.7,471.02L226.5,465.18L231.29,459.61L236.09,455.04L240.88,449.46L245.68,444.39L250.47,439.57L255.27,435.26L260.06,431.97L264.86,427.66L269.65,424.36L274.45,420.56L279.24,417.77L284.04,414.98L288.83,411.43L293.63,408.13L298.42,404.83L303.22,401.28L308.01,398.24L312.81,395.45L317.6,392.66L322.4,390.38L327.19,388.1L331.99,384.8L336.78,383.03L341.58,381.25L346.37,379.48L351.17,377.45L355.96,375.67L360.76,373.39L365.55,371.36L370.35,369.33L375.14,367.05L379.94,365.28L384.73,364.01L389.53,362.23L394.32,360.46L399.12,357.92L403.91,356.15L408.71,354.63L413.5,353.11L418.3,351.84L423.09,350.32L427.89,349.81L432.68,349.56L437.48,348.8L442.27,348.03L447.07,346.77L451.86,345.5L456.66,343.98L461.45,343.22L466.25,341.7L471.04,340.43L475.84,339.92L480.63,339.16L485.43,338.15L490.22,336.88L495.02,335.36L499.81,334.34L504.61,333.07L509.4,332.06L514.2,331.3L518.99,330.79L523.79,330.54L528.58,330.03L533.38,329.78L538.17,329.02L542.97,327.75L547.76,326.73L552.56,325.97L557.35,325.21L562.15,324.45L566.94,323.69L571.74,323.18L576.53,321.92L581.33,321.66L586.12,320.9L590.92,320.14L595.71,319.38L600.51,318.87L605.3,318.37L610.1,317.86L614.89,317.61L619.69,317.35L624.48,317.1L629.28,316.85L634.07,316.85L638.87,316.34L643.66,315.83L648.45,315.58L653.25,314.82L658.04,314.31L662.84,313.8L667.63,313.04L672.43,312.53L677.22,312.03L682.02,311.52L686.81,310.51L691.61,310.25L696.4,310L701.2,309.49L705.99,308.73L710.79,308.48L715.58,307.97L720.38,307.46L725.17,307.46L729.97,307.72L734.76,307.46L739.56,307.72L744.35,307.72L749.15,307.21L753.94,306.96L758.74,306.7L763.53,306.45L768.33,306.2L773.12,305.94L777.92,305.43L782.71,304.67L787.51,304.42L792.3,303.91L797.1,303.41L801.89,303.41L806.69,302.65L811.48,302.39L816.28,302.14L821.07,301.63L825.87,301.12L830.66,301.12L835.46,300.62L840.25,300.62L845.05,300.62L849.84,300.36L854.64,300.11L859.43,300.11L864.23,299.86L869.02,299.86L873.82,299.1L878.61,299.1L883.41,298.59L888.2,298.33L893,298.08L897.79,297.57L902.59,297.32L907.38,297.32L912.18,297.07L916.97,297.07L921.77,296.56L926.56,296.56L931.36,296.05L936.15,295.8L940.95,295.55L945.74,295.04L950.54,294.78L955.33,294.28L960.13,294.28L964.92,294.02L969.72,293.77L974.51,293.26L979.31,293.01L984.1,292.76L988.9,292.76L993.69,292.76L998.49,292.76L1003.3,293.01L1008.1,292.76L1012.9,292.76L1017.7,292.76L1022.5,292.76L1027.3,292.5L1032.1,292.25L1036.8,292.25L1041.6,291.74L1046.4,291.49L1051.2,291.49L1056,290.98L1060.8,290.73L1065.6,290.47L1070.4,290.22L1075.2,289.97L1080,289.46" style="fill:none;stroke:#5A9BD4;stroke-width:1.875;stroke-dasharray:2.5,2.5" />
<path d="M1055,693.4L1080,693.4" style="fill:none;stroke:#F15A60;stroke-width:1.875" />
<text x="1002.5" y="-686.35" transform="scale(1, -1)"
	style="font-family:Helvetica;font-weight:normal;font-style:normal;font-size:12pt">etcd v3</text>
<path d="M1055,678.7L1080,678.7" style="fill:none;stroke:#7AC36A;stroke-width:1.875;stroke-dasharray:7.5,2.5" />
<text x="906.6" y="-671.65" transform="scale(1, -1)"
	style="font-family:Helvetica;font-weight:normal;font-style:normal;font-size:12pt">etcd v3 (with Snappy)</text>
<path d="M1055,664L1080,664" style="fill:none;stroke:#5A9BD4;stroke-width:1.875;stroke-dasharray:2.5,2.5" />
<text x="933.29" y="-656.95" transform="scale(1, -1)"
	style="font-family:Helvetica;font-weight:normal;font-style:normal;font-size:12pt">etcd v3 (with Lz4)</text>
</g>
</svg>
