<?xml version="1.0"?>
<!-- Generated by SVGo and Plotinum VG -->
<svg width="12in" height="8in"
	xmlns="http://www.w3.org/2000/svg"
	xmlns:xlink="http://www.w3.org/1999/xlink">
<g transform="scale(1, -1) translate(0, -720)">
<path d="M0,0L1080,0L1080,720L0,720Z" style="fill:#FFFFFF" />
<text x="235.25" y="-705.6" transform="scale(1, -1)"
	style="font-family:Helvetica;font-weight:normal;font-style:normal;font-size:12pt">Write 2K keys, 1-client, 1-conn, 8-byte key with random texts(<1MB) (etcd v3), Memory(MB)</text>
<text x="548.46" y="-4.8486" transform="scale(1, -1)"
	style="font-family:Helvetica;font-weight:normal;font-style:normal;font-size:12pt">Second</text>
<text x="64.31" y="-19.498" transform="scale(1, -1)"
	style="font-family:Helvetica;font-weight:normal;font-style:normal;font-size:10pt">0</text>
<text x="344.63" y="-19.498" transform="scale(1, -1)"
	style="font-family:Helvetica;font-weight:normal;font-style:normal;font-size:10pt">60</text>
<text x="624.95" y="-19.498" transform="scale(1, -1)"
	style="font-family:Helvetica;font-weight:normal;font-style:normal;font-size:10pt">120</text>
<text x="908.75" y="-19.498" transform="scale(1, -1)"
	style="font-family:Helvetica;font-weight:normal;font-style:normal;font-size:10pt">180</text>
<path d="M67.786,31.498L67.786,41.498" style="fill:none;stroke:#000000;stroke-width:0.625" />
<path d="M351.58,31.498L351.58,41.498" style="fill:none;stroke:#000000;stroke-width:0.625" />
<path d="M635.38,31.498L635.38,41.498" style="fill:none;stroke:#000000;stroke-width:0.625" />
<path d="M919.18,31.498L919.18,41.498" style="fill:none;stroke:#000000;stroke-width:0.625" />
<path d="M162.39,36.498L162.39,41.498" style="fill:none;stroke:#000000;stroke-width:0.625" />
<path d="M256.98,36.498L256.98,41.498" style="fill:none;stroke:#000000;stroke-width:0.625" />
<path d="M446.18,36.498L446.18,41.498" style="fill:none;stroke:#000000;stroke-width:0.625" />
<path d="M540.78,36.498L540.78,41.498" style="fill:none;stroke:#000000;stroke-width:0.625" />
<path d="M729.98,36.498L729.98,41.498" style="fill:none;stroke:#000000;stroke-width:0.625" />
<path d="M824.58,36.498L824.58,41.498" style="fill:none;stroke:#000000;stroke-width:0.625" />
<path d="M1013.8,36.498L1013.8,41.498" style="fill:none;stroke:#000000;stroke-width:0.625" />
<path d="M67.786,41.498L1080,41.498" style="fill:none;stroke:#000000;stroke-width:0.625" />
<g transform="rotate(90)">
<text x="331.08" y="14.399" transform="scale(1, -1)"
	style="font-family:Helvetica;font-weight:normal;font-style:normal;font-size:12pt">Memory(MB)</text>
</g>
<text x="19.248" y="-165.96" transform="scale(1, -1)"
	style="font-family:Helvetica;font-weight:normal;font-style:normal;font-size:10pt">1000</text>
<text x="19.248" y="-291.83" transform="scale(1, -1)"
	style="font-family:Helvetica;font-weight:normal;font-style:normal;font-size:10pt">2000</text>
<text x="19.248" y="-417.69" transform="scale(1, -1)"
	style="font-family:Helvetica;font-weight:normal;font-style:normal;font-size:10pt">3000</text>
<text x="19.248" y="-543.56" transform="scale(1, -1)"
	style="font-family:Helvetica;font-weight:normal;font-style:normal;font-size:10pt">4000</text>
<text x="19.248" y="-669.43" transform="scale(1, -1)"
	style="font-family:Helvetica;font-weight:normal;font-style:normal;font-size:10pt">5000</text>
<path d="M50.529,171.83L60.529,171.83" style="fill:none;stroke:#000000;stroke-width:0.625" />
<path d="M50.529,297.7L60.529,297.7" style="fill:none;stroke:#000000;stroke-width:0.625" />
<path d="M50.529,423.57L60.529,423.57" style="fill:none;stroke:#000000;stroke-width:0.625" />
<path d="M50.529,549.44L60.529,549.44" style="fill:none;stroke:#000000;stroke-width:0.625" />
<path d="M50.529,675.3L60.529,675.3" style="fill:none;stroke:#000000;stroke-width:0.625" />
<path d="M55.529,108.9L60.529,108.9" style="fill:none;stroke:#000000;stroke-width:0.625" />
<path d="M55.529,234.77L60.529,234.77" style="fill:none;stroke:#000000;stroke-width:0.625" />
<path d="M55.529,360.63L60.529,360.63" style="fill:none;stroke:#000000;stroke-width:0.625" />
<path d="M55.529,486.5L60.529,486.5" style="fill:none;stroke:#000000;stroke-width:0.625" />
<path d="M55.529,612.37L60.529,612.37" style="fill:none;stroke:#000000;stroke-width:0.625" />
<path d="M60.529,48.06L60.529,700.75" style="fill:none;stroke:#000000;stroke-width:0.625" />
<path d="M67.786,48.234L72.516,62.159L77.246,74.739L81.976,86.884L86.706,99.329L91.436,109.57L96.165,119.82L100.9,133.88L105.63,148.48L110.36,159.05L115.09,168.05L119.82,183.26L124.55,189.79L129.28,208.04L134.01,209.43L138.74,210.18L143.47,211.76L148.2,215.41L152.93,218.44L157.66,223.82L162.39,228.4L167.12,233.15L171.85,234.12L176.58,234.67L181.31,235.38L186.03,239.05L190.76,242.74L195.49,243.66L200.22,244.43L204.95,245.33L209.68,247.06L214.41,252.29L219.14,257.23L223.87,263.07L228.6,266.47L233.33,268.67L238.06,270.08L242.79,270.77L247.52,271.38L252.25,272.55L256.98,273.17L261.71,274.02L266.44,274.62L271.17,276.27L275.9,285.2L280.63,291.59L285.36,295.68L290.09,300.02L294.82,302.02L299.55,303.01L304.28,303.26L309.01,303.95L313.74,304.8L318.47,305.88L323.2,308.97L327.93,312.14L332.66,315.19L337.39,316.21L342.12,317.26L346.85,321.33L351.58,325.98L356.31,330.54L361.04,334.17L365.77,337.05L370.5,339.64L375.23,341.39L379.96,345.9L384.69,348.8L389.42,349.86L394.15,350.6L398.88,351.13L403.61,351.94L408.34,352.95L413.07,353.72L417.8,354.64L422.53,355.13L427.26,358.63L431.99,362.76L436.72,370.32L441.45,379.02L446.18,385.49L450.91,389.31L455.64,390.81L460.37,391.39L465.1,391.9L469.83,392.81L474.56,393.25L479.29,394.25L484.02,394.99L488.75,395.83L493.48,397.26L498.21,398.54L502.94,399.57L507.67,402.88L512.4,406.72L517.13,409.61L521.86,412.01L526.59,416.6L531.32,422.06L536.05,427.63L540.78,432.87L545.51,437.56L550.24,439.13L554.97,439.76L559.7,440.67L564.43,441.55L569.16,442.5L573.89,442.98L578.62,446.73L583.35,450.78L588.08,455L592.81,456.67L597.54,457.34L602.27,458.3L607,459.16L611.73,459.95L616.46,460.65L621.19,461.57L625.92,463.99L630.65,470.08L635.38,473.77L640.11,477.89L644.84,483.38L649.57,488.11L654.3,493.65L659.03,499.22L663.76,503.18L668.49,506.96L673.22,508.7L677.95,508.99L682.68,509.93L687.41,510.59L692.14,511.46L696.87,512.29L701.6,512.94L706.33,514.1L711.06,514.63L715.79,515.28L720.52,516.54L725.25,517.05L729.98,518.21L734.71,519.03L739.44,519.92L744.17,522.03L748.9,524.45L753.63,532.51L758.36,538.84L763.09,545.58L767.82,551.38L772.55,555.47L777.28,560.58L782.01,565.4L786.74,569.22L791.47,571.81L796.2,572.26L800.93,572.94L805.66,573.75L810.39,574.56L815.12,575.45L819.85,576.37L824.58,577.2L829.31,578.08L834.04,579.02L838.77,581.63L843.5,585.66L848.23,588.5L852.96,591.65L857.69,595.51L862.42,596.16L867.15,596.73L871.88,597.46L876.61,598.37L881.34,599.32L886.07,599.98L890.8,603.43L895.53,607.46L900.26,612.1L904.99,617.5L909.72,621.9L914.45,626.48L919.18,631.24L923.91,636.19L928.64,641.5L933.37,643.82L938.1,644.7L942.83,645.55L947.56,649.7L952.29,653.71L957.02,657.54L961.75,660.6L966.48,662.79L971.21,663.74L975.94,664.05L980.67,665.03L985.4,665.56L990.13,666.72L994.86,667.1L999.59,667.97L1004.3,668.98" style="fill:none;stroke:#F15A60;stroke-width:1.875" />
<path d="M67.786,48.199L72.516,62.421L77.246,74.255L81.976,83.23L86.706,94.932L91.436,105.49L96.165,118.05L100.9,128.05L105.63,137.71L110.36,151.66L115.09,161.62L119.82,171.6L124.55,184.38L129.28,193.75L134.01,204.65L138.74,213.24L143.47,213.87L148.2,214.47L152.93,215.37L157.66,217.83L162.39,221.77L167.12,227.56L171.85,229.82L176.58,232.49L181.31,235.44L186.03,237.99L190.76,239.88L195.49,240.5L200.22,245.11L204.95,246.1L209.68,248.21L214.41,251.22L219.14,253.36L223.87,256.24L228.6,257.17L233.33,260.98L238.06,266.82L242.79,270.05L247.52,270.87L252.25,271.51L256.98,272.3L261.71,273.16L266.44,274.74L271.17,278.63L275.9,286.11L280.63,289.38L285.36,290.93L290.09,291.87L294.82,295.45L299.55,297.99L304.28,300.66L309.01,303.48L313.74,308.11L318.47,311.32L323.2,312.47L327.93,313.65L332.66,314.55L337.39,317.48L342.12,320.76L346.85,323.11L351.58,326.34L356.31,328.76L361.04,333.81L365.77,337.74L370.5,341.41L375.23,343.86L379.96,346.35L384.69,348.18L389.42,348.57L394.15,349.61L398.88,350.58L403.61,351.48L408.34,356.04L413.07,361.19L417.8,364.37L422.53,366.29L427.26,369.55L431.99,372.63L436.72,373.82L441.45,374.99L446.18,378.19L450.91,381.06L455.64,383.9L460.37,390.14L465.1,396.35L469.83,397.24L474.56,397.99L479.29,398.73L484.02,399.13L488.75,400.33L493.48,401.63L498.21,402.34L502.94,405.15L507.67,408.04L512.4,410.88L517.13,417.44L521.86,424.46L526.59,427.19L531.32,428.77L536.05,429.66L540.78,430.66L545.51,433.84L550.24,436.69L554.97,440.13L559.7,443.33L564.43,446.01L569.16,447.94L573.89,448.84L578.62,449.4L583.35,452.85L588.08,457.56L592.81,460.24L597.54,460.91L602.27,461.85L607,462.51L611.73,465.04L616.46,467.21L621.19,469.21L625.92,471.67L630.65,474.17L635.38,476.63L640.11,479.3L644.84,480.25L649.57,480.77L654.3,481.56L659.03,483.63L663.76,490.62L668.49,495.43L673.22,500.07L677.95,504.43L682.68,507.52L687.41,509.89L692.14,511.32L696.87,511.79L701.6,512.48L706.33,513.68L711.06,514.38L715.79,515.04L720.52,516.15L725.25,517.26L729.98,518.39L734.71,519.2L739.44,525.17L744.17,532.83L748.9,536.94L753.63,539.3L758.36,542.55L763.09,545.55L767.82,548.21L772.55,548.96L777.28,549.97L782.01,553.08L786.74,555.12L791.47,558.87L796.2,561.89L800.93,564.14L805.66,566.92L810.39,570.46L815.12,572.63L819.85,577.75L824.58,582.17L829.31,585.11L834.04,585.72L838.77,586.39L843.5,587.42L848.23,588.17L852.96,589.31L857.69,590.16L862.42,591.38L867.15,593.7L871.88,597.04L876.61,599.35L881.34,602.02L886.07,605.49L890.8,608.08L895.53,610.86L900.26,614.31L904.99,620.31L909.72,624.34L914.45,628.64L919.18,631.91L923.91,635.42L928.64,638L933.37,641.21L938.1,643.35L942.83,646.46L947.56,649.24L952.29,652.3L957.02,654.43L961.75,655.19L966.48,655.88L971.21,656.38L975.94,657.21L980.67,657.55L985.4,658.23L990.13,659.32L994.86,660.51L999.59,661.46L1004.3,665.63L1009.1,669.87L1013.8,673.72L1018.5,676.02L1023.2,677.15L1028,680.13L1032.7,682.91L1037.4,685.24" style="fill:none;stroke:#7AC36A;stroke-width:1.875;stroke-dasharray:7.5,2.5" />
<path d="M67.786,48.06L72.516,60.709L77.246,68.937L81.976,77.75L86.706,89.151L91.436,97.588L96.165,106.55L100.9,115.31L105.63,124.83L110.36,135.47L115.09,141.87L119.82,154.05L124.55,161.49L129.28,172.74L134.01,179.94L138.74,190.97L143.47,196.69L148.2,209.85L152.93,216.59L157.66,220.82L162.39,225.92L167.12,232.23L171.85,238.71L176.58,241.26L181.31,241.66L186.03,242.4L190.76,243.35L195.49,244.43L200.22,247.91L204.95,248.81L209.68,249.31L214.41,251.25L219.14,255.69L223.87,260.71L228.6,265.85L233.33,269.68L238.06,270.66L242.79,271.12L247.52,271.79L252.25,273L256.98,273.83L261.71,275.84L266.44,279.36L271.17,281.21L275.9,283.59L280.63,288.54L285.36,292.72L290.09,296.64L294.82,299.56L299.55,300.52L304.28,301.86L309.01,304.82L313.74,305.24L318.47,306.05L323.2,306.66L327.93,307.17L332.66,308.24L337.39,309.17L342.12,311.1L346.85,317.38L351.58,322.55L356.31,327.51L361.04,331.59L365.77,334.81L370.5,335.07L375.23,335.99L379.96,336.85L384.69,337.38L389.42,340.51L394.15,342.99L398.88,343.63L403.61,344.52L408.34,345.18L413.07,345.52L417.8,346.03L422.53,347.23L427.26,350.58L431.99,355.92L436.72,363.21L441.45,369.36L446.18,373.39L450.91,374.83L455.64,375.52L460.37,376.27L465.1,377.53L469.83,378.15L474.56,378.75L479.29,380.22L484.02,384.78L488.75,387.56L493.48,388.56L498.21,389.86L502.94,390.78L507.67,391.48L512.4,393.4L517.13,397.3L521.86,401.44L526.59,406.64L531.32,412.12L536.05,419.61L540.78,424.11L545.51,424.75L550.24,425.66L554.97,426.57L559.7,427.13L564.43,427.84L569.16,428.66L573.89,429.9L578.62,431.4L583.35,432.69L588.08,436.7L592.81,439.23L597.54,439.79L602.27,440.53L607,442.63L611.73,445.44L616.46,450.68L621.19,456.36L625.92,461.13L630.65,466.64L635.38,469.27L640.11,474.53L644.84,479.03L649.57,480.12L654.3,481.55L659.03,482.05L663.76,482.64L668.49,483.95L673.22,484.93L677.95,485.72L682.68,486.95L687.41,487.64L692.14,488.18L696.87,490.94L701.6,495.5L706.33,498.57L711.06,500.09L715.79,503.3L720.52,506.06L725.25,510.1L729.98,515.57L734.71,521.42L739.44,526.71L744.17,530.41L748.9,533.3L753.63,535.21L758.36,536.22L763.09,538.59L767.82,542.39L772.55,545.85L777.28,546.66L782.01,547.19L786.74,547.99L791.47,548.82L796.2,549.64L800.93,550.4L805.66,552.1L810.39,553.01L815.12,553.94L819.85,554.8L824.58,555.8L829.31,556.86L834.04,560.35L838.77,565.56L843.5,569.74L848.23,574.73L852.96,579.34L857.69,585.07L862.42,590.15L867.15,594.5L871.88,599.75L876.61,602.81L881.34,605.56L886.07,606.24L890.8,606.87L895.53,607.98L900.26,609.22L904.99,610.21L909.72,614.23L914.45,618.86L919.18,621.47L923.91,622.16L928.64,622.95L933.37,624.18L938.1,624.9L942.83,625.62L947.56,626.77L952.29,627.61L957.02,628.85L961.75,629.72L966.48,630.27L971.21,631.21L975.94,632.43L980.67,634.74L985.4,637.9L990.13,643.48L994.86,651.6L999.59,660.13L1004.3,666.89L1009.1,671.67L1013.8,676.32L1018.5,681.3L1023.2,684.98L1028,687.57L1032.7,688.23L1037.4,689.21L1042.2,689.86L1046.9,691.21L1051.6,692.04L1056.4,692.85L1061.1,693.62L1065.8,694.96L1070.5,696.17L1075.3,697.17L1080,700.75" style="fill:none;stroke:#5A9BD4;stroke-width:1.875;stroke-dasharray:2.5,2.5" />
<path d="M1055,693.4L1080,693.4" style="fill:none;stroke:#F15A60;stroke-width:1.875" />
<text x="1002.5" y="-686.35" transform="scale(1, -1)"
	style="font-family:Helvetica;font-weight:normal;font-style:normal;font-size:12pt">etcd v3</text>
<path d="M1055,678.7L1080,678.7" style="fill:none;stroke:#7AC36A;stroke-width:1.875;stroke-dasharray:7.5,2.5" />
<text x="906.6" y="-671.65" transform="scale(1, -1)"
	style="font-family:Helvetica;font-weight:normal;font-style:normal;font-size:12pt">etcd v3 (with Snappy)</text>
<path d="M1055,664L1080,664" style="fill:none;stroke:#5A9BD4;stroke-width:1.875;stroke-dasharray:2.5,2.5" />
<text x="933.29" y="-656.95" transform="scale(1, -1)"
	style="font-family:Helvetica;font-weight:normal;font-style:normal;font-size:12pt">etcd v3 (with Lz4)</text>
</g>
</svg>
