<?xml version="1.0"?>
<!-- Generated by SVGo and Plotinum VG -->
<svg width="12in" height="8in"
	xmlns="http://www.w3.org/2000/svg"
	xmlns:xlink="http://www.w3.org/1999/xlink">
<g transform="scale(1, -1) translate(0, -720)">
<path d="M0,0L1080,0L1080,720L0,720Z" style="fill:#FFFFFF" />
<text x="210.22" y="-705.6" transform="scale(1, -1)"
	style="font-family:Helvetica;font-weight:normal;font-style:normal;font-size:12pt">Write 2K keys, 1-client, 1-conn, 8-byte key with random texts(<1MB) (etcd v3), Latency(millisecond)</text>
<text x="544.98" y="-4.8486" transform="scale(1, -1)"
	style="font-family:Helvetica;font-weight:normal;font-style:normal;font-size:12pt">Second</text>
<text x="57.358" y="-19.498" transform="scale(1, -1)"
	style="font-family:Helvetica;font-weight:normal;font-style:normal;font-size:10pt">0</text>
<text x="338.3" y="-19.498" transform="scale(1, -1)"
	style="font-family:Helvetica;font-weight:normal;font-style:normal;font-size:10pt">60</text>
<text x="619.24" y="-19.498" transform="scale(1, -1)"
	style="font-family:Helvetica;font-weight:normal;font-style:normal;font-size:10pt">120</text>
<text x="903.66" y="-19.498" transform="scale(1, -1)"
	style="font-family:Helvetica;font-weight:normal;font-style:normal;font-size:10pt">180</text>
<path d="M60.834,31.498L60.834,41.498" style="fill:none;stroke:#000000;stroke-width:0.625" />
<path d="M345.25,31.498L345.25,41.498" style="fill:none;stroke:#000000;stroke-width:0.625" />
<path d="M629.67,31.498L629.67,41.498" style="fill:none;stroke:#000000;stroke-width:0.625" />
<path d="M914.09,31.498L914.09,41.498" style="fill:none;stroke:#000000;stroke-width:0.625" />
<path d="M155.64,36.498L155.64,41.498" style="fill:none;stroke:#000000;stroke-width:0.625" />
<path d="M250.45,36.498L250.45,41.498" style="fill:none;stroke:#000000;stroke-width:0.625" />
<path d="M440.06,36.498L440.06,41.498" style="fill:none;stroke:#000000;stroke-width:0.625" />
<path d="M534.86,36.498L534.86,41.498" style="fill:none;stroke:#000000;stroke-width:0.625" />
<path d="M724.48,36.498L724.48,41.498" style="fill:none;stroke:#000000;stroke-width:0.625" />
<path d="M819.28,36.498L819.28,41.498" style="fill:none;stroke:#000000;stroke-width:0.625" />
<path d="M1008.9,36.498L1008.9,41.498" style="fill:none;stroke:#000000;stroke-width:0.625" />
<path d="M60.834,41.498L1080,41.498" style="fill:none;stroke:#000000;stroke-width:0.625" />
<g transform="rotate(90)">
<text x="306.05" y="14.399" transform="scale(1, -1)"
	style="font-family:Helvetica;font-weight:normal;font-style:normal;font-size:12pt">Latency(millisecond)</text>
</g>
<text x="26.2" y="-162.78" transform="scale(1, -1)"
	style="font-family:Helvetica;font-weight:normal;font-style:normal;font-size:10pt">60</text>
<text x="19.248" y="-356.66" transform="scale(1, -1)"
	style="font-family:Helvetica;font-weight:normal;font-style:normal;font-size:10pt">120</text>
<text x="19.248" y="-550.55" transform="scale(1, -1)"
	style="font-family:Helvetica;font-weight:normal;font-style:normal;font-size:10pt">180</text>
<path d="M43.577,168.65L53.577,168.65" style="fill:none;stroke:#000000;stroke-width:0.625" />
<path d="M43.577,362.54L53.577,362.54" style="fill:none;stroke:#000000;stroke-width:0.625" />
<path d="M43.577,556.42L53.577,556.42" style="fill:none;stroke:#000000;stroke-width:0.625" />
<path d="M48.577,104.02L53.577,104.02" style="fill:none;stroke:#000000;stroke-width:0.625" />
<path d="M48.577,233.28L53.577,233.28" style="fill:none;stroke:#000000;stroke-width:0.625" />
<path d="M48.577,297.91L53.577,297.91" style="fill:none;stroke:#000000;stroke-width:0.625" />
<path d="M48.577,427.16L53.577,427.16" style="fill:none;stroke:#000000;stroke-width:0.625" />
<path d="M48.577,491.79L53.577,491.79" style="fill:none;stroke:#000000;stroke-width:0.625" />
<path d="M48.577,621.05L53.577,621.05" style="fill:none;stroke:#000000;stroke-width:0.625" />
<path d="M48.577,685.68L53.577,685.68" style="fill:none;stroke:#000000;stroke-width:0.625" />
<path d="M53.577,48.06L53.577,700.75" style="fill:none;stroke:#000000;stroke-width:0.625" />
<path d="M60.834,49.818L65.574,51.674L70.314,50.579L75.055,50.84L79.795,55.125L84.535,48.06L89.276,54.864L94.016,54.23L98.756,50.144L103.5,49.143L108.24,52.115L112.98,51.398L117.72,50.398L122.46,55.38L127.2,435.19L131.94,440.08L136.68,502.51L141.42,316.99L146.16,369.86L150.9,383.42L155.64,442.23L160.38,308.27L165.12,380.84L169.86,443.49L174.6,308.52L179.34,381.08L184.08,402.68L188.82,334.75L193.56,444.65L198.3,493.72L203.04,364.2L207.78,472.39L212.52,355.89L217.26,377.37L222,388.66L226.74,369.89L231.48,378.78L236.23,481.21L240.97,388.15L245.71,464.12L250.45,468.54L255.19,343.95L259.93,384.39L264.67,402.17L269.41,340.3L274.15,386.57L278.89,402.95L283.63,380.11L288.37,487.97L293.11,333.26L297.85,383.4L302.59,404.07L307.33,336.73L312.07,384.69L316.81,404.58L321.55,346.08L326.29,383.49L331.03,403.26L335.77,503.96L340.51,423.3L345.25,439.66L349.99,560.92L354.73,308L359.47,370.28L364.21,469.44L368.95,309.54L373.69,371.8L378.43,450.26L383.17,445.95L387.92,429.52L392.66,312.91L397.4,368.59L402.14,418.07L406.88,336.53L411.62,371.93L416.36,419.97L421.1,335.6L425.84,370.79L430.58,421.13L435.32,343.42L440.06,534.14L444.8,425.39L449.54,422.97L454.28,562.57L459.02,442.84L463.76,360.67L468.5,447.48L473.24,310.32L477.98,390.64L482.72,446.45L487.46,309.98L492.2,384.47L496.94,450.06L501.68,310.14L506.42,384.5L511.16,448.31L515.9,310.2L520.64,385.1L525.38,448.03L530.12,318.8L534.86,401.44L539.6,468.81L544.35,313.51L549.09,374.5L553.83,469.42L558.57,314.29L563.31,374.5L568.05,383.3L572.79,390.15L577.53,375.39L582.27,383.69L587.01,389.17L591.75,408.71L596.49,344.46L601.23,390.75L605.97,408.47L610.71,345.45L615.45,391.27L620.19,453.52L624.93,314.89L629.67,389.99L634.41,383.66L639.15,375.78L643.89,425.65L648.63,347.34L653.37,376.01L658.11,475.29L662.85,313.74L667.59,375.47L672.33,383.69L677.07,391.5L681.81,376.3L686.55,384.74L691.29,399.51L696.04,440.45L700.78,498.04L705.52,573.53L710.26,363.9L715,375.77L719.74,381.44L724.48,393.49L729.22,375.38L733.96,382.04L738.7,389.67L743.44,403.9L748.18,450.67L752.92,312.16L757.66,387.95L762.4,381.77L767.14,374.86L771.88,387.82L776.62,383.41L781.36,410.86L786.1,407.49L790.84,409.26L795.58,342.7L800.32,389.78L805.06,456.65L809.8,312.32L814.54,389.34L819.28,384.1L824.02,377.81L828.76,389.21L833.5,384.24L838.24,378.77L842.98,511.34L847.72,364.75L852.47,383.51L857.21,375.87L861.95,426.79L866.69,346.04L871.43,377.75L876.17,474.3L880.91,314.44L885.65,387.79L890.39,435.94L895.13,433.85L899.87,342.95L904.61,413.4L909.35,470.19L914.09,398.75L918.83,382.18L923.57,389.29L928.31,411.68L933.05,341.48L937.79,390.94L942.53,453.86L947.27,313.99L952.01,404.33L956.75,471.78L961.49,318.18L966.23,377.57L970.97,386.92L975.71,394.28L980.45,378.89L985.19,387.42L989.93,395.52L994.67,457.87L999.41,316.73L1004.2,461.79" style="fill:none;stroke:#F15A60;stroke-width:1.875" />
<path d="M60.834,58.084L65.574,59.676L70.314,60.476L75.055,62.849L79.795,61.368L84.535,63.721L89.276,57.979L94.016,60.702L98.756,60.884L103.5,59.943L108.24,60.94L112.98,60.52L117.72,62.293L122.46,59.479L127.2,61.673L131.94,254.65L136.68,550.62L141.42,523.5L146.16,522.99L150.9,523.42L155.64,523.42L160.38,505.51L165.12,464.21L169.86,439.44L174.6,415.7L179.34,385.93L184.08,334.1L188.82,367.28L193.56,381.49L198.3,373.07L203.04,367.6L207.78,380.93L212.52,444.39L217.26,306.69L222,381.4L226.74,445.64L231.48,308.47L236.23,381.36L240.97,401.31L245.71,335.39L250.45,380.93L255.19,369.07L259.93,374.72L264.67,382.02L269.41,368.44L274.15,384.96L278.89,382.73L283.63,367.67L288.37,455.35L293.11,312.74L297.85,369.42L302.59,463.1L307.33,306.04L312.07,368.69L316.81,416.9L321.55,336.04L326.29,369.01L331.03,417.84L335.77,338.71L340.51,368.56L345.25,383.71L349.99,376.62L354.73,368.42L359.47,381.86L364.21,446.79L368.95,306.52L373.69,382.5L378.43,449.36L383.17,306.42L387.92,383.05L392.66,402.97L397.4,336.61L402.14,383.3L406.88,402.7L411.62,337.22L416.36,384.68L421.1,404.42L425.84,337.05L430.58,384.04L435.32,369.64L440.06,379.44L444.8,383.69L449.54,369.5L454.28,377.48L459.02,384.28L463.76,369.6L468.5,377.01L473.24,390.72L477.98,369.9L482.72,376.84L487.46,383.91L492.2,370.03L496.94,379.08L501.68,384.03L506.42,369.9L511.16,379.56L515.9,384.43L520.64,370.72L525.38,377.62L530.12,383.96L534.86,371.83L539.6,381.05L544.35,385.31L549.09,372.12L553.83,456.89L558.57,512.62L563.31,402.87L568.05,509.69L572.79,445.95L577.53,511.38L582.27,405.14L587.01,428.52L591.75,553.37L596.49,402.8L601.23,424.55L605.97,641.89L610.71,700.75L615.45,594.58L620.19,596.86L624.93,530.19L629.67,534.04L634.41,530.98L639.15,534.73L643.89,514.49L648.63,512.95L653.37,441.35L658.11,339.38L662.85,371.1L667.59,420.28L672.33,336.8L677.07,371.57L681.81,422.57L686.55,337.81L691.29,371.15L696.04,384.68L700.78,378.98L705.52,374.9L710.26,420.7L715,339.05L719.74,372.73L724.48,422.56L729.22,337.92L733.96,373.27L738.7,422.56L743.44,337.19L748.18,372.63L752.92,422.95L757.66,338.99L762.4,374.15L767.14,423L771.88,338.91L776.62,373.14L781.36,467.3L786.1,318.94L790.84,374.03L795.58,466.6L800.32,311.19L805.06,375.48L809.8,383.51L814.54,386.09L819.28,374.31L824.02,380.93L828.76,387.9L833.5,374.68L838.24,381.71L842.98,388.7L847.72,375.24L852.47,382.08L857.21,388.11L861.95,411.24L866.69,340.27L871.43,387.89L876.17,453.89L880.91,313.62L885.65,390.2L890.39,382.6L895.13,376.39L899.87,428.61L904.61,341.39L909.35,374.99L914.09,475.48L918.83,314.04L923.57,411.41L928.31,405.03L933.05,457.93L937.79,312.29L942.53,390.48L947.27,384.07L952.01,415.92L956.75,660.11L961.49,546.93L966.23,477.29L970.97,634.73L975.71,453.06L980.45,397.86L985.19,347.07L989.93,385L994.67,462.96L999.41,494.8L1004.2,495.49L1008.9,540.01L1013.6,411.07L1018.4,459.93L1023.1,412.07L1027.9,524.64L1032.6,525.52L1037.3,434.29" style="fill:none;stroke:#7AC36A;stroke-width:1.875;stroke-dasharray:7.5,2.5" />
<path d="M60.834,95.457L65.574,77.679L70.314,86.248L75.055,84.301L79.795,83.222L84.535,97.155L89.276,88.565L94.016,88.969L98.756,81.287L103.5,85.69L108.24,94.034L112.98,87.678L117.72,85.514L122.46,86.991L127.2,95.364L131.94,95.009L136.68,95.601L141.42,96.659L146.16,92.093L150.9,164.13L155.64,398.84L160.38,331.04L165.12,432.23L169.86,480.6L174.6,518.69L179.34,395.6L184.08,425.97L188.82,498.28L193.56,541.18L198.3,520.76L203.04,520.78L207.78,390.26L212.52,418.85L217.26,438.91L222,394.83L226.74,416.64L231.48,436.15L236.23,398.31L240.97,417.33L245.71,418.99L250.45,481.96L255.19,477.22L259.93,506.56L264.67,477.68L269.41,446.27L274.15,528.89L278.89,522.59L283.63,445.26L288.37,524.34L293.11,524.23L297.85,544.53L302.59,484.61L307.33,436.58L312.07,565.12L316.81,312.62L321.55,448.55L326.29,414.5L331.03,359.12L335.77,443.33L340.51,422.33L345.25,508.26L349.99,505.93L354.73,480.78L359.47,449.39L364.21,477.15L368.95,478.98L373.69,509.42L378.43,478.92L383.17,448.99L387.92,477.39L392.66,481.37L397.4,507.38L402.14,479.03L406.88,485.62L411.62,417.61L416.36,438.98L421.1,398.72L425.84,419.58L430.58,501.75L435.32,439.52L440.06,396.43L444.8,420.95L449.54,418.56L454.28,418.54L459.02,441.99L463.76,395.14L468.5,421L473.24,443.8L477.98,394.41L482.72,420.49L487.46,444.9L492.2,395.3L496.94,445.26L501.68,464.65L506.42,458.04L511.16,570.58L515.9,427.45L520.64,390.46L525.38,380.81L530.12,441.35L534.86,308.59L539.6,380.02L544.35,442.47L549.09,308.99L553.83,380.74L558.57,406.46L563.31,334.57L568.05,382.78L572.79,368.75L577.53,374.47L582.27,381.82L587.01,368.66L591.75,375.43L596.49,381.32L601.23,370.09L605.97,375.63L610.71,420.36L615.45,439.96L620.19,390L624.93,338.37L629.67,370.84L634.41,420.61L639.15,340.32L643.89,370.45L648.63,421.8L653.37,339.03L658.11,370.17L662.85,420.52L667.59,338.81L672.33,370.62L677.07,384.56L681.81,379.24L686.55,370.44L691.29,387.22L696.04,378.55L700.78,370.46L705.52,543.42L710.26,424.47L715,434.3L719.74,372.24L724.48,387.83L729.22,380.32L733.96,374.37L738.7,423.14L743.44,340.4L748.18,372.57L752.92,421.96L757.66,341.98L762.4,372.63L767.14,421.87L771.88,342.21L776.62,397.78L781.36,370.6L786.1,450.24L790.84,439.06L795.58,436.63L800.32,309.5L805.06,370.61L809.8,462.51L814.54,311.02L819.28,371.79L824.02,462.23L828.76,310.19L833.5,370.94L838.24,466.37L842.98,312.67L847.72,371.88L852.47,465.89L857.21,393.19L861.95,405.08L866.69,433.74L871.43,651.22L876.17,442.91L880.91,362.84L885.65,451.46L890.39,310.14L895.13,386.57L899.87,381.78L904.61,374.27L909.35,387.95L914.09,380.46L918.83,373.12L923.57,423.76L928.31,339.72L933.05,373.07L937.79,422.49L942.53,342.38L947.27,373.4L952.01,423.29L956.75,433.76L961.49,316.05L966.23,372.52L970.97,388.78L975.71,400.05L980.45,432.49L985.19,415.02L989.93,388.3L994.67,374.71L999.41,382.19L1004.2,400.16L1008.9,386.36L1013.6,450.13L1018.4,311.49L1023.1,386.64L1027.9,450.31L1032.6,312.05L1037.3,387.12L1042.1,451.21L1046.8,311.47L1051.6,388.01L1056.3,381.95L1061,374.56L1065.8,454.81L1070.5,571.72L1075.3,478.15L1080,520.5" style="fill:none;stroke:#5A9BD4;stroke-width:1.875;stroke-dasharray:2.5,2.5" />
<path d="M1055,693.4L1080,693.4" style="fill:none;stroke:#F15A60;stroke-width:1.875" />
<text x="1002.5" y="-686.35" transform="scale(1, -1)"
	style="font-family:Helvetica;font-weight:normal;font-style:normal;font-size:12pt">etcd v3</text>
<path d="M1055,678.7L1080,678.7" style="fill:none;stroke:#7AC36A;stroke-width:1.875;stroke-dasharray:7.5,2.5" />
<text x="906.6" y="-671.65" transform="scale(1, -1)"
	style="font-family:Helvetica;font-weight:normal;font-style:normal;font-size:12pt">etcd v3 (with Snappy)</text>
<path d="M1055,664L1080,664" style="fill:none;stroke:#5A9BD4;stroke-width:1.875;stroke-dasharray:2.5,2.5" />
<text x="933.29" y="-656.95" transform="scale(1, -1)"
	style="font-family:Helvetica;font-weight:normal;font-style:normal;font-size:12pt">etcd v3 (with Lz4)</text>
</g>
</svg>
