<?xml version="1.0"?>
<!-- Generated by SVGo and Plotinum VG -->
<svg width="12in" height="8in"
	xmlns="http://www.w3.org/2000/svg"
	xmlns:xlink="http://www.w3.org/1999/xlink">
<g transform="scale(1, -1) translate(0, -720)">
<path d="M0,0L1080,0L1080,720L0,720Z" style="fill:#FFFFFF" />
<text x="240.36" y="-705.6" transform="scale(1, -1)"
	style="font-family:Helvetica;font-weight:normal;font-style:normal;font-size:12pt">Write 2K keys, 1-client, 1-conn, 8-byte key with random texts(<1MB) (etcd v3), Throughput</text>
<text x="541.5" y="-4.8486" transform="scale(1, -1)"
	style="font-family:Helvetica;font-weight:normal;font-style:normal;font-size:12pt">Second</text>
<text x="50.406" y="-19.498" transform="scale(1, -1)"
	style="font-family:Helvetica;font-weight:normal;font-style:normal;font-size:10pt">0</text>
<text x="333.29" y="-19.498" transform="scale(1, -1)"
	style="font-family:Helvetica;font-weight:normal;font-style:normal;font-size:10pt">60</text>
<text x="616.17" y="-19.498" transform="scale(1, -1)"
	style="font-family:Helvetica;font-weight:normal;font-style:normal;font-size:10pt">120</text>
<text x="902.53" y="-19.498" transform="scale(1, -1)"
	style="font-family:Helvetica;font-weight:normal;font-style:normal;font-size:10pt">180</text>
<path d="M53.882,31.498L53.882,41.498" style="fill:none;stroke:#000000;stroke-width:0.625" />
<path d="M340.24,31.498L340.24,41.498" style="fill:none;stroke:#000000;stroke-width:0.625" />
<path d="M626.6,31.498L626.6,41.498" style="fill:none;stroke:#000000;stroke-width:0.625" />
<path d="M912.96,31.498L912.96,41.498" style="fill:none;stroke:#000000;stroke-width:0.625" />
<path d="M149.33,36.498L149.33,41.498" style="fill:none;stroke:#000000;stroke-width:0.625" />
<path d="M244.79,36.498L244.79,41.498" style="fill:none;stroke:#000000;stroke-width:0.625" />
<path d="M435.69,36.498L435.69,41.498" style="fill:none;stroke:#000000;stroke-width:0.625" />
<path d="M531.15,36.498L531.15,41.498" style="fill:none;stroke:#000000;stroke-width:0.625" />
<path d="M722.05,36.498L722.05,41.498" style="fill:none;stroke:#000000;stroke-width:0.625" />
<path d="M817.5,36.498L817.5,41.498" style="fill:none;stroke:#000000;stroke-width:0.625" />
<path d="M1008.4,36.498L1008.4,41.498" style="fill:none;stroke:#000000;stroke-width:0.625" />
<path d="M53.882,41.498L1080,41.498" style="fill:none;stroke:#000000;stroke-width:0.625" />
<g transform="rotate(90)">
<text x="336.05" y="14.399" transform="scale(1, -1)"
	style="font-family:Helvetica;font-weight:normal;font-style:normal;font-size:12pt">Throughput</text>
</g>
<text x="19.248" y="-140.09" transform="scale(1, -1)"
	style="font-family:Helvetica;font-weight:normal;font-style:normal;font-size:10pt">10</text>
<text x="19.248" y="-303.26" transform="scale(1, -1)"
	style="font-family:Helvetica;font-weight:normal;font-style:normal;font-size:10pt">20</text>
<text x="19.248" y="-466.44" transform="scale(1, -1)"
	style="font-family:Helvetica;font-weight:normal;font-style:normal;font-size:10pt">30</text>
<text x="19.248" y="-629.61" transform="scale(1, -1)"
	style="font-family:Helvetica;font-weight:normal;font-style:normal;font-size:10pt">40</text>
<path d="M36.625,145.96L46.625,145.96" style="fill:none;stroke:#000000;stroke-width:0.625" />
<path d="M36.625,309.14L46.625,309.14" style="fill:none;stroke:#000000;stroke-width:0.625" />
<path d="M36.625,472.31L46.625,472.31" style="fill:none;stroke:#000000;stroke-width:0.625" />
<path d="M36.625,635.48L46.625,635.48" style="fill:none;stroke:#000000;stroke-width:0.625" />
<path d="M41.625,64.378L46.625,64.378" style="fill:none;stroke:#000000;stroke-width:0.625" />
<path d="M41.625,227.55L46.625,227.55" style="fill:none;stroke:#000000;stroke-width:0.625" />
<path d="M41.625,390.72L46.625,390.72" style="fill:none;stroke:#000000;stroke-width:0.625" />
<path d="M41.625,553.9L46.625,553.9" style="fill:none;stroke:#000000;stroke-width:0.625" />
<path d="M46.625,48.06L46.625,700.75" style="fill:none;stroke:#000000;stroke-width:0.625" />
<path d="M53.882,276.5L58.654,684.43L63.427,668.12L68.2,668.12L72.972,651.8L77.745,700.75L82.518,635.48L87.29,651.8L92.063,684.43L96.836,668.12L101.61,684.43L106.38,668.12L111.15,668.12L115.93,553.9L120.7,113.33L125.47,80.695L130.24,97.012L135.02,97.012L139.79,129.65L144.56,129.65L149.33,97.012L154.11,113.33L158.88,129.65L163.65,97.012L168.43,113.33L173.2,129.65L177.97,113.33L182.74,97.012L187.52,97.012L192.29,80.695L197.06,129.65L201.83,97.012L206.61,129.65L211.38,80.695L216.15,129.65L220.92,129.65L225.7,80.695L230.47,113.33L235.24,113.33L240.01,80.695L244.79,97.012L249.56,97.012L254.33,129.65L259.11,113.33L263.88,97.012L268.65,129.65L273.42,113.33L278.2,80.695L282.97,113.33L287.74,97.012L292.51,129.65L297.29,113.33L302.06,97.012L306.83,129.65L311.6,113.33L316.38,97.012L321.15,129.65L325.92,113.33L330.7,64.378L335.47,113.33L340.24,97.012L345.01,80.695L349.79,113.33L354.56,129.65L359.33,97.012L364.1,113.33L368.88,129.65L373.65,97.012L378.42,97.012L383.19,97.012L387.97,113.33L392.74,129.65L397.51,113.33L402.28,97.012L407.06,129.65L411.83,113.33L416.6,97.012L421.38,129.65L426.15,113.33L430.92,97.012L435.69,97.012L440.47,80.695L445.24,113.33L450.01,64.378L454.78,113.33L459.56,113.33L464.33,97.012L469.1,113.33L473.87,129.65L478.65,97.012L483.42,113.33L488.19,129.65L492.96,97.012L497.74,113.33L502.51,129.65L507.28,97.012L512.06,113.33L516.83,129.65L521.6,97.012L526.37,113.33L531.15,113.33L535.92,97.012L540.69,113.33L545.46,129.65L550.24,97.012L555.01,113.33L559.78,129.65L564.55,80.695L569.33,129.65L574.1,129.65L578.87,80.695L583.65,129.65L588.42,113.33L593.19,97.012L597.96,129.65L602.74,113.33L607.51,97.012L612.28,129.65L617.05,97.012L621.83,113.33L626.6,129.65L631.37,80.695L636.14,129.65L640.92,113.33L645.69,97.012L650.46,129.65L655.23,97.012L660.01,113.33L664.78,129.65L669.55,80.695L674.33,129.65L679.1,129.65L683.87,80.695L688.64,113.33L693.42,113.33L698.19,80.695L702.96,64.378L707.73,113.33L712.51,129.65L717.28,80.695L722.05,129.65L726.82,129.65L731.6,80.695L736.37,129.65L741.14,113.33L745.92,97.012L750.69,113.33L755.46,129.65L760.23,80.695L765.01,129.65L769.78,129.65L774.55,80.695L779.32,113.33L784.1,113.33L788.87,113.33L793.64,97.012L798.41,129.65L803.19,97.012L807.96,113.33L812.73,129.65L817.5,80.695L822.28,129.65L827.05,129.65L831.82,80.695L836.6,129.65L841.37,80.695L846.14,129.65L850.91,80.695L855.69,129.65L860.46,113.33L865.23,97.012L870,129.65L874.78,97.012L879.55,97.012L884.32,129.65L889.09,97.012L893.87,113.33L898.64,97.012L903.41,113.33L908.18,97.012L912.96,113.33L917.73,80.695L922.5,129.65L927.28,113.33L932.05,97.012L936.82,129.65L941.59,97.012L946.37,113.33L951.14,113.33L955.91,97.012L960.68,113.33L965.46,129.65L970.23,80.695L975,129.65L979.77,129.65L984.55,80.695L989.32,129.65L994.09,97.012L998.87,113.33L1003.6,97.012" style="fill:none;stroke:#F15A60;stroke-width:1.875" />
<path d="M53.882,292.82L58.654,602.85L63.427,602.85L68.2,570.21L72.972,602.85L77.745,570.21L82.518,602.85L87.29,602.85L92.063,602.85L96.836,602.85L101.61,586.53L106.38,602.85L111.15,586.53L115.93,586.53L120.7,602.85L125.47,145.96L130.24,80.695L135.02,80.695L139.79,80.695L144.56,80.695L149.33,80.695L154.11,64.378L158.88,97.012L163.65,97.012L168.43,113.33L173.2,113.33L177.97,97.012L182.74,129.65L187.52,129.65L192.29,80.695L197.06,129.65L201.83,129.65L206.61,97.012L211.38,113.33L216.15,129.65L220.92,97.012L225.7,113.33L230.47,129.65L235.24,113.33L240.01,97.012L244.79,129.65L249.56,129.65L254.33,80.695L259.11,129.65L263.88,129.65L268.65,80.695L273.42,129.65L278.2,129.65L282.97,97.012L287.74,113.33L292.51,129.65L297.29,97.012L302.06,113.33L306.83,129.65L311.6,113.33L316.38,97.012L321.15,129.65L325.92,113.33L330.7,97.012L335.47,129.65L340.24,129.65L345.01,80.695L349.79,129.65L354.56,129.65L359.33,97.012L364.1,113.33L368.88,129.65L373.65,97.012L378.42,113.33L383.19,129.65L387.97,113.33L392.74,97.012L397.51,129.65L402.28,113.33L407.06,97.012L411.83,129.65L416.6,113.33L421.38,97.012L426.15,129.65L430.92,129.65L435.69,80.695L440.47,129.65L445.24,129.65L450.01,80.695L454.78,129.65L459.56,129.65L464.33,80.695L469.1,129.65L473.87,129.65L478.65,80.695L483.42,129.65L488.19,129.65L492.96,80.695L497.74,129.65L502.51,129.65L507.28,80.695L512.06,129.65L516.83,129.65L521.6,80.695L526.37,129.65L531.15,129.65L535.92,80.695L540.69,129.65L545.46,129.65L550.24,97.012L555.01,80.695L559.78,97.012L564.55,80.695L569.33,97.012L574.1,80.695L578.87,97.012L583.65,97.012L588.42,80.695L593.19,97.012L597.96,113.33L602.74,48.06L607.51,64.378L612.28,64.378L617.05,64.378L621.83,80.695L626.6,80.695L631.37,80.695L636.14,80.695L640.92,64.378L645.69,80.695L650.46,113.33L655.23,97.012L660.01,129.65L664.78,113.33L669.55,97.012L674.33,129.65L679.1,113.33L683.87,97.012L688.64,129.65L693.42,129.65L698.19,80.695L702.96,129.65L707.73,113.33L712.51,97.012L717.28,129.65L722.05,113.33L726.82,97.012L731.6,129.65L736.37,113.33L741.14,97.012L745.92,129.65L750.69,113.33L755.46,97.012L760.23,129.65L765.01,113.33L769.78,97.012L774.55,129.65L779.32,97.012L784.1,113.33L788.87,129.65L793.64,97.012L798.41,113.33L803.19,129.65L807.96,80.695L812.73,129.65L817.5,129.65L822.28,80.695L827.05,129.65L831.82,129.65L836.6,80.695L841.37,129.65L846.14,129.65L850.91,80.695L855.69,129.65L860.46,113.33L865.23,97.012L870,129.65L874.78,97.012L879.55,113.33L884.32,129.65L889.09,80.695L893.87,129.65L898.64,113.33L903.41,97.012L908.18,129.65L912.96,97.012L917.73,113.33L922.5,113.33L927.28,113.33L932.05,97.012L936.82,113.33L941.59,129.65L946.37,80.695L951.14,113.33L955.91,64.378L960.68,80.695L965.46,64.378L970.23,64.378L975,113.33L979.77,113.33L984.55,97.012L989.32,129.65L994.09,97.012L998.87,80.695L1003.6,80.695L1008.4,80.695L1013.2,97.012L1018,97.012L1022.7,97.012L1027.5,80.695L1032.3,80.695L1037,80.695" style="fill:none;stroke:#7AC36A;stroke-width:1.875;stroke-dasharray:7.5,2.5" />
<path d="M53.882,276.5L58.654,488.63L63.427,455.99L68.2,472.31L72.972,455.99L77.745,423.36L82.518,439.68L87.29,455.99L92.063,472.31L96.836,455.99L101.61,423.36L106.38,455.99L111.15,455.99L115.93,455.99L120.7,407.04L125.47,423.36L130.24,423.36L135.02,407.04L139.79,439.68L144.56,243.87L149.33,113.33L154.11,97.012L158.88,97.012L163.65,113.33L168.43,80.695L173.2,80.695L177.97,97.012L182.74,97.012L187.52,80.695L192.29,80.695L197.06,80.695L201.83,97.012L206.61,113.33L211.38,97.012L216.15,97.012L220.92,113.33L225.7,97.012L230.47,97.012L235.24,113.33L240.01,80.695L244.79,97.012L249.56,80.695L254.33,97.012L259.11,80.695L263.88,97.012L268.65,64.378L273.42,80.695L278.2,97.012L282.97,80.695L287.74,80.695L292.51,80.695L297.29,80.695L302.06,97.012L306.83,80.695L311.6,113.33L316.38,80.695L321.15,113.33L325.92,129.65L330.7,97.012L335.47,97.012L340.24,80.695L345.01,97.012L349.79,80.695L354.56,97.012L359.33,80.695L364.1,80.695L368.88,97.012L373.65,80.695L378.42,97.012L383.19,80.695L387.97,80.695L392.74,97.012L397.51,80.695L402.28,80.695L407.06,113.33L411.83,97.012L416.6,97.012L421.38,113.33L426.15,80.695L430.92,97.012L435.69,97.012L440.47,113.33L445.24,80.695L450.01,113.33L454.78,97.012L459.56,97.012L464.33,113.33L469.1,97.012L473.87,97.012L478.65,113.33L483.42,97.012L488.19,97.012L492.96,97.012L497.74,97.012L502.51,64.378L507.28,80.695L512.06,97.012L516.83,113.33L521.6,129.65L526.37,97.012L531.15,113.33L535.92,129.65L540.69,97.012L545.46,113.33L550.24,129.65L555.01,113.33L559.78,97.012L564.55,129.65L569.33,129.65L574.1,80.695L578.87,129.65L583.65,129.65L588.42,80.695L593.19,129.65L597.96,129.65L602.74,80.695L607.51,113.33L612.28,113.33L617.05,113.33L621.83,97.012L626.6,129.65L631.37,113.33L636.14,97.012L640.92,129.65L645.69,113.33L650.46,97.012L655.23,129.65L660.01,113.33L664.78,97.012L669.55,129.65L674.33,129.65L679.1,80.695L683.87,129.65L688.64,129.65L693.42,80.695L698.19,129.65L702.96,80.695L707.73,80.695L712.51,97.012L717.28,129.65L722.05,129.65L726.82,80.695L731.6,129.65L736.37,113.33L741.14,97.012L745.92,129.65L750.69,113.33L755.46,97.012L760.23,129.65L765.01,113.33L769.78,97.012L774.55,113.33L779.32,129.65L784.1,97.012L788.87,97.012L793.64,97.012L798.41,113.33L803.19,129.65L807.96,97.012L812.73,113.33L817.5,129.65L822.28,97.012L827.05,113.33L831.82,129.65L836.6,97.012L841.37,113.33L846.14,129.65L850.91,97.012L855.69,113.33L860.46,80.695L865.23,97.012L870,64.378L874.78,113.33L879.55,113.33L884.32,97.012L889.09,113.33L893.87,129.65L898.64,80.695L903.41,129.65L908.18,129.65L912.96,80.695L917.73,129.65L922.5,113.33L927.28,97.012L932.05,129.65L936.82,113.33L941.59,97.012L946.37,129.65L951.14,113.33L955.91,97.012L960.68,113.33L965.46,129.65L970.23,80.695L975,113.33L979.77,113.33L984.55,80.695L989.32,129.65L994.09,129.65L998.87,80.695L1003.6,113.33L1008.4,129.65L1013.2,97.012L1018,113.33L1022.7,129.65L1027.5,97.012L1032.3,113.33L1037,129.65L1041.8,97.012L1046.6,113.33L1051.4,129.65L1056.1,80.695L1060.9,129.65L1065.7,97.012L1070.5,64.378L1075.2,97.012L1080,80.695" style="fill:none;stroke:#5A9BD4;stroke-width:1.875;stroke-dasharray:2.5,2.5" />
<path d="M1055,693.4L1080,693.4" style="fill:none;stroke:#F15A60;stroke-width:1.875" />
<text x="1002.5" y="-686.35" transform="scale(1, -1)"
	style="font-family:Helvetica;font-weight:normal;font-style:normal;font-size:12pt">etcd v3</text>
<path d="M1055,678.7L1080,678.7" style="fill:none;stroke:#7AC36A;stroke-width:1.875;stroke-dasharray:7.5,2.5" />
<text x="906.6" y="-671.65" transform="scale(1, -1)"
	style="font-family:Helvetica;font-weight:normal;font-style:normal;font-size:12pt">etcd v3 (with Snappy)</text>
<path d="M1055,664L1080,664" style="fill:none;stroke:#5A9BD4;stroke-width:1.875;stroke-dasharray:2.5,2.5" />
<text x="933.29" y="-656.95" transform="scale(1, -1)"
	style="font-family:Helvetica;font-weight:normal;font-style:normal;font-size:12pt">etcd v3 (with Lz4)</text>
</g>
</svg>
