<?xml version="1.0"?>
<!-- Generated by SVGo and Plotinum VG -->
<svg width="12in" height="8in"
	xmlns="http://www.w3.org/2000/svg"
	xmlns:xlink="http://www.w3.org/1999/xlink">
<g transform="scale(1, -1) translate(0, -720)">
<path d="M0,0L1080,0L1080,720L0,720Z" style="fill:#FFFFFF" />
<text x="286.55" y="-706.41" transform="scale(1, -1)"
	style="font-family:Helvetica;font-weight:normal;font-style:normal;font-size:12pt">Write 3M keys, 700 conns, 1500 clients, key 64 bytes, value 256 bytes, CPU</text>
<text x="545.89" y="-4.965" transform="scale(1, -1)"
	style="font-family:Helvetica;font-weight:normal;font-style:normal;font-size:12pt">second</text>
<text x="56.662" y="-19.142" transform="scale(1, -1)"
	style="font-family:Helvetica;font-weight:normal;font-style:normal;font-size:10pt">0</text>
<text x="373.56" y="-19.142" transform="scale(1, -1)"
	style="font-family:Helvetica;font-weight:normal;font-style:normal;font-size:10pt">60</text>
<text x="690.46" y="-19.142" transform="scale(1, -1)"
	style="font-family:Helvetica;font-weight:normal;font-style:normal;font-size:10pt">120</text>
<text x="1010.8" y="-19.142" transform="scale(1, -1)"
	style="font-family:Helvetica;font-weight:normal;font-style:normal;font-size:10pt">180</text>
<path d="M60.137,30.467L60.137,40.467" style="fill:none;stroke:#000000;stroke-width:0.625" />
<path d="M380.51,30.467L380.51,40.467" style="fill:none;stroke:#000000;stroke-width:0.625" />
<path d="M700.89,30.467L700.89,40.467" style="fill:none;stroke:#000000;stroke-width:0.625" />
<path d="M1021.3,30.467L1021.3,40.467" style="fill:none;stroke:#000000;stroke-width:0.625" />
<path d="M166.93,35.468L166.93,40.467" style="fill:none;stroke:#000000;stroke-width:0.625" />
<path d="M273.72,35.468L273.72,40.467" style="fill:none;stroke:#000000;stroke-width:0.625" />
<path d="M487.31,35.468L487.31,40.467" style="fill:none;stroke:#000000;stroke-width:0.625" />
<path d="M594.1,35.468L594.1,40.467" style="fill:none;stroke:#000000;stroke-width:0.625" />
<path d="M807.68,35.468L807.68,40.467" style="fill:none;stroke:#000000;stroke-width:0.625" />
<path d="M914.47,35.468L914.47,40.467" style="fill:none;stroke:#000000;stroke-width:0.625" />
<path d="M60.137,40.467L1080,40.467" style="fill:none;stroke:#000000;stroke-width:0.625" />
<g transform="rotate(90)">
<text x="358.4" y="13.59" transform="scale(1, -1)"
	style="font-family:Helvetica;font-weight:normal;font-style:normal;font-size:12pt">CPU</text>
</g>
<text x="25.505" y="-215.69" transform="scale(1, -1)"
	style="font-family:Helvetica;font-weight:normal;font-style:normal;font-size:10pt">60</text>
<text x="18.555" y="-394.39" transform="scale(1, -1)"
	style="font-family:Helvetica;font-weight:normal;font-style:normal;font-size:10pt">120</text>
<text x="18.555" y="-573.1" transform="scale(1, -1)"
	style="font-family:Helvetica;font-weight:normal;font-style:normal;font-size:10pt">180</text>
<path d="M42.88,221.06L52.88,221.06" style="fill:none;stroke:#000000;stroke-width:0.625" />
<path d="M42.88,399.76L52.88,399.76" style="fill:none;stroke:#000000;stroke-width:0.625" />
<path d="M42.88,578.47L52.88,578.47" style="fill:none;stroke:#000000;stroke-width:0.625" />
<path d="M47.88,101.92L52.88,101.92" style="fill:none;stroke:#000000;stroke-width:0.625" />
<path d="M47.88,161.49L52.88,161.49" style="fill:none;stroke:#000000;stroke-width:0.625" />
<path d="M47.88,280.63L52.88,280.63" style="fill:none;stroke:#000000;stroke-width:0.625" />
<path d="M47.88,340.19L52.88,340.19" style="fill:none;stroke:#000000;stroke-width:0.625" />
<path d="M47.88,459.33L52.88,459.33" style="fill:none;stroke:#000000;stroke-width:0.625" />
<path d="M47.88,518.9L52.88,518.9" style="fill:none;stroke:#000000;stroke-width:0.625" />
<path d="M47.88,638.03L52.88,638.03" style="fill:none;stroke:#000000;stroke-width:0.625" />
<path d="M47.88,697.6L52.88,697.6" style="fill:none;stroke:#000000;stroke-width:0.625" />
<path d="M52.88,47.03L52.88,701.44" style="fill:none;stroke:#000000;stroke-width:0.625" />
<path d="M60.137,50.872L65.477,59.539L70.817,68.147L76.156,75.444L81.496,84.171L86.835,93.553L92.175,102.46L97.515,109.55L102.85,117.71L108.19,126.32L113.53,134.71L118.87,141.36L124.21,149.22L129.55,157.35L134.89,165.51L140.23,172.81L145.57,179.42L150.91,186.63L156.25,193.92L161.59,201.1L166.93,206.64L172.27,213.88L177.61,220.7L182.95,227.52L188.29,233.45L193.63,239.35L198.97,245.63L204.31,251.77L209.65,257.75L214.99,262.7L220.33,268.71L225.66,274.64L231,280.51L236.34,286.23L241.68,290.51L247.02,295.73L252.36,301.48L257.7,307.25L263.04,311.81L268.38,316.81L273.72,321.52L279.06,326.76L284.4,331.62L289.74,336.17L295.08,340.46L300.42,345.79L305.76,350.56L311.1,355.89L316.44,360L321.78,364.26L327.12,369.14L332.46,373.61L337.8,377.6L343.14,382.07L348.48,386.78L353.82,391.27L359.15,395.27L364.49,398.45L369.83,402.98L375.17,407.03L380.51,411.17L385.85,414.89L391.19,417.72L396.53,421.62L401.87,425.94L407.21,429.73L412.55,433.24L417.89,436.1L423.23,439.7L428.57,443.46L433.91,447.48L439.25,450.99L444.59,453.31L449.93,456.71L455.27,460.13L460.61,464.01L465.95,467.49L471.29,470.98L476.63,474.34L481.97,477.74L487.31,480.95L492.64,483.66L497.98,486.88L503.32,490.01L508.66,493.34L514,496.08L519.34,498.38L524.68,501.71L530.02,504.96L535.36,508.03L540.7,510.92L546.04,512.08L551.38,515.12L556.72,517.98L562.06,520.72L567.4,522.59L572.74,524.8L578.08,527.89L583.42,529.83L588.76,532.45L594.1,535.34L599.44,538.08L604.78,540.1L610.12,543.05L615.46,546.12L620.79,548.77L626.13,549.96L631.47,552.79L636.81,555.15L642.15,556.96L647.49,560L652.83,561.13L658.17,563.46L663.51,566.46L668.85,568.52L674.19,570.6L679.53,573.22L684.87,575.37L690.21,577.72L695.55,580.76L700.89,582.07L706.23,584.45L711.57,587.07L716.91,588.47L722.25,591.1L727.59,592.17L732.93,594.76L738.27,597.14L743.61,598.57L748.95,601.4L754.28,602.2L759.62,605.15L764.96,608.01L770.3,609.29L775.64,612.21L780.98,612.87L786.32,615.58L791.66,617.72L797,619.51L802.34,621.36L807.68,622.55L813.02,624.04L818.36,626.24L823.7,628.24L829.04,629.61L834.38,631.54L839.72,632.7L845.06,635.03L850.4,636.31L855.74,639.43L861.08,639.97L866.42,643.04L871.76,643.9L877.1,646.73L882.44,647.98L887.77,650.25L893.11,651.65L898.45,653.94L903.79,654.92L909.13,657.31L914.47,658.2L919.81,660.61L925.15,661.42L930.49,663.89L935.83,664.87L941.17,666.54L946.51,667.88L951.85,669.67L957.19,671.27L962.53,673.03L967.87,674.43L973.21,675.29L978.55,678.09L983.89,679.29L989.23,681.76L994.57,681.85L999.91,684.32L1005.2,685.36L1010.6,687.42L1015.9,688.88L1021.3,689.59L1026.6,691.79L1031.9,692.45L1037.3,694.56L1042.6,695.55L1048,696.44L1053.3,698.56L1058.6,698.94L1064,701.44" style="fill:none;stroke:#F15A60;stroke-width:1.875" />
<path d="M60.137,47.03L65.477,52.749L70.817,60.492L76.156,68.117L81.496,74.908L86.835,83.039L92.175,90.991L97.515,98.765L102.85,105.23L108.19,112.58L113.53,120.33L118.87,127.33L124.21,133.23L129.55,140.67L134.89,147.73L140.23,154.94L145.57,161.64L150.91,167.03L156.25,173.94L161.59,180.7L166.93,186.99L172.27,192.26L177.61,198.39L182.95,204.74L188.29,211.05L193.63,216.86L198.97,221.86L204.31,227.55L209.65,233.27L214.99,239.41L220.33,243.96L225.66,249.32L231,254.8L236.34,260.13L241.68,265.44L247.02,269.46L252.36,274.61L257.7,280.09L263.04,285.36L268.38,289.92L273.72,294.36L279.06,298.88L284.4,304.1L289.74,309.07L295.08,313.12L300.42,317.35L305.76,321.88L311.1,325.96L316.44,330.63L321.78,334L327.12,338.26L332.46,343.41L337.8,347.55L343.14,351.78L348.48,355.18L353.82,359.49L359.15,363.28L364.49,367.24L369.83,370.4L375.17,374.48L380.51,378.82L385.85,382.82L391.19,386.66L396.53,389.64L401.87,393.12L407.21,396.66L412.55,400.24L417.89,403.93L423.23,406.64L428.57,410.28L433.91,414L439.25,417.69L444.59,421.21L449.93,424.24L455.27,427.49L460.61,430.83L465.95,434.4L471.29,436.69L476.63,439.91L481.97,443.4L487.31,446.67L492.64,450.28L497.98,452.42L503.32,455.7L508.66,459.03L514,462.28L519.34,465.26L524.68,467.4L530.02,470.38L535.36,473.36L540.7,476.31L546.04,479.35L551.38,481.4L556.72,484.5L562.06,487L567.4,490.13L572.74,492.75L578.08,495.4L583.42,498.32L588.76,500.88L594.1,503.62L599.44,505.56L604.78,507.73L610.12,510.65L615.46,513.09L620.79,516.19L626.13,518.01L631.47,520.63L636.81,523.16L642.15,525.63L647.49,528.37L652.83,530.25L658.17,532.69L663.51,535.67L668.85,537.66L674.19,539.81L679.53,542.31L684.87,544.99L690.21,547.16L695.55,549.55L700.89,552.44L706.23,553.89L711.57,555.89L716.91,558.06L722.25,560.12L727.59,562.29L732.93,564.29L738.27,566.2L743.61,568.34L748.95,571.02L754.28,572.78L759.62,574.33L764.96,576.35L770.3,578.56L775.64,580.67L780.98,582.52L786.32,584.22L791.66,586.06L797,588.47L802.34,590.68L807.68,592.79L813.02,593.98L818.36,596.19L823.7,598.06L829.04,600.3L834.38,602.09L839.72,603.63L845.06,605.48L850.4,607.77L855.74,609.53L861.08,611.35L866.42,612.63L871.76,614.33L877.1,616.17L882.44,617.78L887.77,619.75L893.11,620.94L898.45,622.96L903.79,624.69L909.13,625.88L914.47,627.91L919.81,628.47L925.15,630.11L930.49,631.84L935.83,633.27L941.17,635.18L946.51,636.43L951.85,638.3L957.19,639.7L962.53,641.91L967.87,643.07L973.21,644.8L978.55,645.63L983.89,647.39L989.23,648.94L994.57,650.81L999.91,652.33L1005.2,653.76L1010.6,655.34L1015.9,656.8L1021.3,658.5L1026.6,659.87L1031.9,661.42L1037.3,663.11L1042.6,664.3L1048,666.03L1053.3,666.96L1058.6,668.15L1064,669.87L1069.3,671.24L1074.7,673.3L1080,673.95" style="fill:none;stroke:#7AC36A;stroke-width:1.875;stroke-dasharray:7.5,2.5" />
<path d="M1055,694.3L1080,694.3" style="fill:none;stroke:#F15A60;stroke-width:1.875" />
<text x="997.46" y="-687.85" transform="scale(1, -1)"
	style="font-family:Helvetica;font-weight:normal;font-style:normal;font-size:12pt">etcd3_0</text>
<path d="M1055,680L1080,680" style="fill:none;stroke:#7AC36A;stroke-width:1.875;stroke-dasharray:7.5,2.5" />
<text x="997.46" y="-673.56" transform="scale(1, -1)"
	style="font-family:Helvetica;font-weight:normal;font-style:normal;font-size:12pt">etcd3_1</text>
</g>
</svg>
