<?xml version="1.0"?>
<!-- Generated by SVGo and Plotinum VG -->
<svg width="12in" height="8in"
	xmlns="http://www.w3.org/2000/svg"
	xmlns:xlink="http://www.w3.org/1999/xlink">
<g transform="scale(1, -1) translate(0, -720)">
<path d="M0,0L1080,0L1080,720L0,720Z" style="fill:#FFFFFF" />
<text x="264.03" y="-706.41" transform="scale(1, -1)"
	style="font-family:Helvetica;font-weight:normal;font-style:normal;font-size:12pt">Write 3M keys, 700 conns, 1500 clients, key 64 bytes, value 256 bytes, Throughput</text>
<text x="558.23" y="-4.965" transform="scale(1, -1)"
	style="font-family:Helvetica;font-weight:normal;font-style:normal;font-size:12pt">second</text>
<text x="81.337" y="-19.142" transform="scale(1, -1)"
	style="font-family:Helvetica;font-weight:normal;font-style:normal;font-size:10pt">0</text>
<text x="387.25" y="-19.142" transform="scale(1, -1)"
	style="font-family:Helvetica;font-weight:normal;font-style:normal;font-size:10pt">60</text>
<text x="693.16" y="-19.142" transform="scale(1, -1)"
	style="font-family:Helvetica;font-weight:normal;font-style:normal;font-size:10pt">120</text>
<text x="1002.5" y="-19.142" transform="scale(1, -1)"
	style="font-family:Helvetica;font-weight:normal;font-style:normal;font-size:10pt">180</text>
<path d="M84.812,30.467L84.812,40.467" style="fill:none;stroke:#000000;stroke-width:0.625" />
<path d="M394.2,30.467L394.2,40.467" style="fill:none;stroke:#000000;stroke-width:0.625" />
<path d="M703.58,30.467L703.58,40.467" style="fill:none;stroke:#000000;stroke-width:0.625" />
<path d="M1013,30.467L1013,40.467" style="fill:none;stroke:#000000;stroke-width:0.625" />
<path d="M187.94,35.468L187.94,40.467" style="fill:none;stroke:#000000;stroke-width:0.625" />
<path d="M291.07,35.468L291.07,40.467" style="fill:none;stroke:#000000;stroke-width:0.625" />
<path d="M497.33,35.468L497.33,40.467" style="fill:none;stroke:#000000;stroke-width:0.625" />
<path d="M600.45,35.468L600.45,40.467" style="fill:none;stroke:#000000;stroke-width:0.625" />
<path d="M806.71,35.468L806.71,40.467" style="fill:none;stroke:#000000;stroke-width:0.625" />
<path d="M909.84,35.468L909.84,40.467" style="fill:none;stroke:#000000;stroke-width:0.625" />
<path d="M84.812,40.467L1080,40.467" style="fill:none;stroke:#000000;stroke-width:0.625" />
<g transform="rotate(90)">
<text x="335.88" y="13.59" transform="scale(1, -1)"
	style="font-family:Helvetica;font-weight:normal;font-style:normal;font-size:12pt">Throughput</text>
</g>
<text x="36.28" y="-205.94" transform="scale(1, -1)"
	style="font-family:Helvetica;font-weight:normal;font-style:normal;font-size:10pt">6000</text>
<text x="18.555" y="-377.61" transform="scale(1, -1)"
	style="font-family:Helvetica;font-weight:normal;font-style:normal;font-size:10pt">1.2e+04</text>
<text x="18.555" y="-549.27" transform="scale(1, -1)"
	style="font-family:Helvetica;font-weight:normal;font-style:normal;font-size:10pt">1.8e+04</text>
<path d="M67.555,211.31L77.555,211.31" style="fill:none;stroke:#000000;stroke-width:0.625" />
<path d="M67.555,382.98L77.555,382.98" style="fill:none;stroke:#000000;stroke-width:0.625" />
<path d="M67.555,554.64L77.555,554.64" style="fill:none;stroke:#000000;stroke-width:0.625" />
<path d="M72.555,96.87L77.555,96.87" style="fill:none;stroke:#000000;stroke-width:0.625" />
<path d="M72.555,154.09L77.555,154.09" style="fill:none;stroke:#000000;stroke-width:0.625" />
<path d="M72.555,268.53L77.555,268.53" style="fill:none;stroke:#000000;stroke-width:0.625" />
<path d="M72.555,325.76L77.555,325.76" style="fill:none;stroke:#000000;stroke-width:0.625" />
<path d="M72.555,440.2L77.555,440.2" style="fill:none;stroke:#000000;stroke-width:0.625" />
<path d="M72.555,497.42L77.555,497.42" style="fill:none;stroke:#000000;stroke-width:0.625" />
<path d="M72.555,611.86L77.555,611.86" style="fill:none;stroke:#000000;stroke-width:0.625" />
<path d="M72.555,669.09L77.555,669.09" style="fill:none;stroke:#000000;stroke-width:0.625" />
<path d="M77.555,47.03L77.555,701.44" style="fill:none;stroke:#000000;stroke-width:0.625" />
<path d="M84.812,411.16L89.969,683.11L95.125,590.49L100.28,509.44L105.44,561.11L110.59,589.81L115.75,570.29L120.91,479.05L126.06,555.27L131.22,557.42L136.38,548.29L141.53,480.11L146.69,569.03L151.85,557.13L157,550.04L162.16,475.02L167.32,518.79L172.47,554.64L177.63,519.51L182.78,538.22L187.94,458.17L193.1,549.06L198.25,519.68L203.41,521.43L208.57,430.1L213.72,577.96L218.88,482.74L224.04,504.57L229.19,508.15L234.35,450.13L239.5,546.95L244.66,520.45L249.82,493.99L254.97,514.44L260.13,426.7L265.29,474.82L270.44,484.4L275.6,522.11L280.76,490.13L285.91,481.94L291.07,485.52L296.23,520.48L301.38,498.37L306.54,447.92L311.69,483.69L316.85,471.47L322.01,577.59L327.16,462.09L332.32,527.61L337.48,465.26L342.63,485.29L347.79,502.37L352.95,528.35L358.1,473.79L363.26,476.65L368.42,590.81L373.57,453.16L378.73,451.19L383.88,482.52L389.04,467.49L394.2,524.94L399.35,466.69L404.51,403.92L409.67,520.57L414.82,558.28L419.98,515.82L425.14,446.09L430.29,412.68L435.45,503.09L440.6,522.77L445.76,510.35L450.92,498.45L456.07,422.95L461.23,506.78L466.39,500.88L471.54,524.63L476.7,512.04L481.86,506L487.01,486.78L492.17,487.38L497.33,479.6L502.48,429.84L507.64,478.48L512.79,523.46L517.95,502.37L523.11,495.25L528.26,420.2L533.42,513.07L538.58,490.15L543.73,473.79L548.89,515.22L554.05,436.51L559.2,443.26L564.36,442.63L569.52,513.47L574.67,419.23L579.83,440.34L584.98,460.63L590.14,468.5L595.3,445.89L600.45,436.51L605.61,540.68L610.77,484.86L615.92,470.84L621.08,501.6L626.24,488.78L631.39,442.6L636.55,428.07L641.7,467.09L646.86,469.07L652.02,466.38L657.17,398.08L662.33,449.87L667.49,536.42L672.64,508.87L677.8,407.38L682.96,516.36L688.11,513.67L693.27,438.34L698.43,487.12L703.58,603.25L708.74,362.75L713.89,477.62L719.05,540.34L724.21,407.5L729.36,454.56L734.52,482.94L739.68,468.35L744.83,413.65L749.99,582.48L755.15,418.43L760.3,451.96L765.46,553.04L770.62,418.48L775.77,544.2L780.93,516.68L786.08,356.43L791.24,587.26L796.4,437.54L801.55,443.69L806.71,496.45L811.87,306.73L817.02,561.22L822.18,433.53L827.34,529.32L832.49,425.98L837.65,431.96L842.81,467.44L847.96,367.24L853.12,606.63L858.27,400.89L863.43,545.92L868.59,434.56L873.74,520.82L878.9,504.06L884.06,437.71L889.21,507.92L894.37,439.03L899.53,558.65L904.68,393.71L909.84,552.58L914.99,397.46L920.15,563.88L925.31,389.16L930.46,503.8L935.62,459.74L940.78,460.43L945.93,427.07L951.09,501.88L956.25,467.27L961.4,472.36L966.56,408.01L971.72,550.69L976.87,480.77L982.03,485L987.18,485.72L992.34,469.27L997.5,416.54L1002.7,558.05L1007.8,414.22L1013,536.39L1018.1,375.17L1023.3,539.45L1028.4,358.37L1033.6,531.95L1038.7,358.63L1043.9,504.83L1049.1,393.76L1054.2,543.94L1059.4,451.33L1064.5,439.11L1069.7,496.76" style="fill:none;stroke:#F15A60;stroke-width:1.875" />
<path d="M84.812,47.03L89.969,701.44L95.125,647.34L100.28,534.04L105.44,579.05L110.59,589.92L115.75,554.19L120.91,539.16L126.06,519.14L131.22,538.62L136.38,553.67L141.53,514.53L146.69,460.74L151.85,552.33L157,564.69L162.16,542.74L167.32,452.39L172.47,537.53L177.63,548.55L182.78,531.38L187.94,524.63L193.1,436.14L198.25,533.73L203.41,537.36L208.57,535.42L213.72,457.08L218.88,505.29L224.04,514.22L229.19,504.37L234.35,558.22L239.5,420.63L244.66,515.53L249.82,515.25L254.97,535.47L260.13,477.74L265.29,419.49L270.44,525.97L275.6,543.34L280.76,495.48L285.91,426.84L291.07,494.67L296.23,546.95L301.38,539.34L306.54,508.04L311.69,488.72L316.85,439.86L322.01,535.53L327.16,478.91L332.32,495.22L337.48,413.68L342.63,556.5L347.79,508.04L352.95,575.04L358.1,415.45L363.26,475.51L368.42,529.27L373.57,452.87L378.73,534.16L383.88,430.84L389.04,489.5L394.2,473.96L399.35,543.54L404.51,548.89L409.67,426.87L414.82,457.34L419.98,480.34L425.14,532.15L430.29,490.9L435.45,421.75L440.6,508.75L445.76,536.39L450.92,468.98L456.07,494.79L461.23,445.55L466.39,496.05L471.54,503.69L476.7,519.02L481.86,425.67L487.01,485.55L492.17,517.48L497.33,484.72L502.48,530.58L507.64,427.73L512.79,500L517.95,509.38L523.11,492.61L528.26,492.01L533.42,506.63L538.58,473.79L543.73,497.51L548.89,501.48L554.05,466.41L559.2,405.98L564.36,459.71L569.52,503.37L574.67,549.69L579.83,489.81L584.98,464.66L590.14,490.3L595.3,453.3L600.45,469.55L605.61,519.97L610.77,438.03L615.92,439.4L621.08,462.49L626.24,533.04L631.39,474.1L636.55,469.15L641.7,444.58L646.86,506.98L652.02,530.01L657.17,395.65L662.33,442.26L667.49,583.2L672.64,470.56L677.8,435.99L682.96,455.76L688.11,588.2L693.27,463.46L698.43,437.77L703.58,520.48L708.74,449.13L713.89,393.28L719.05,566.49L724.21,431.24L729.36,436.42L734.52,505.55L739.68,419.31L744.83,418.34L749.99,589.78L755.15,480.54L760.3,393.88L765.46,512.01L770.62,393.48L775.77,576.44L780.93,419.63L786.08,385.87L791.24,555.33L796.4,435.11L801.55,563.68L806.71,465.89L811.87,340.52L817.02,547.18L822.18,391.53L827.34,581.99L832.49,415.37L837.65,462.69L842.81,452.62L847.96,408.56L853.12,598.59L858.27,396.05L863.43,484L868.59,385.61L873.74,541.65L878.9,408.18L884.06,539.05L889.21,359.23L894.37,532.3L899.53,415.99L904.68,475.99L909.84,450.87L914.99,441.83L920.15,375.02L925.31,520.54L930.46,411.36L935.62,485.4L940.78,451.21L945.93,468.81L951.09,419.34L956.25,512.67L961.4,433.68L966.56,509.38L971.72,318.32L976.87,612.55L982.03,341.52L987.18,595.24L992.34,357.29L997.5,500.43L1002.7,364.07L1007.8,576.9L1013,362.89L1018.1,578.45L1023.3,332.42L1028.4,569.89L1033.6,336.8L1038.7,566.49L1043.9,428.21L1049.1,363.44L1054.2,601.97L1059.4,362.41L1064.5,562.08L1069.7,329.53L1074.8,526.52L1080,348.7" style="fill:none;stroke:#7AC36A;stroke-width:1.875;stroke-dasharray:7.5,2.5" />
<path d="M1055,694.3L1080,694.3" style="fill:none;stroke:#F15A60;stroke-width:1.875" />
<text x="997.46" y="-687.85" transform="scale(1, -1)"
	style="font-family:Helvetica;font-weight:normal;font-style:normal;font-size:12pt">etcd3_0</text>
<path d="M1055,680L1080,680" style="fill:none;stroke:#7AC36A;stroke-width:1.875;stroke-dasharray:7.5,2.5" />
<text x="997.46" y="-673.56" transform="scale(1, -1)"
	style="font-family:Helvetica;font-weight:normal;font-style:normal;font-size:12pt">etcd3_1</text>
</g>
</svg>
