<?xml version="1.0"?>
<!-- Generated by SVGo and Plotinum VG -->
<svg width="12in" height="8in"
	xmlns="http://www.w3.org/2000/svg"
	xmlns:xlink="http://www.w3.org/1999/xlink">
<g transform="scale(1, -1) translate(0, -720)">
<path d="M0,0L1080,0L1080,720L0,720Z" style="fill:#FFFFFF" />
<text x="276.12" y="-706.41" transform="scale(1, -1)"
	style="font-family:Helvetica;font-weight:normal;font-style:normal;font-size:12pt">Write 3M keys, 700 conns, 1500 clients, key 64 bytes, value 256 bytes, Latency</text>
<text x="545.89" y="-4.965" transform="scale(1, -1)"
	style="font-family:Helvetica;font-weight:normal;font-style:normal;font-size:12pt">second</text>
<text x="56.662" y="-19.142" transform="scale(1, -1)"
	style="font-family:Helvetica;font-weight:normal;font-style:normal;font-size:10pt">0</text>
<text x="370.24" y="-19.142" transform="scale(1, -1)"
	style="font-family:Helvetica;font-weight:normal;font-style:normal;font-size:10pt">60</text>
<text x="683.82" y="-19.142" transform="scale(1, -1)"
	style="font-family:Helvetica;font-weight:normal;font-style:normal;font-size:10pt">120</text>
<text x="1000.9" y="-19.142" transform="scale(1, -1)"
	style="font-family:Helvetica;font-weight:normal;font-style:normal;font-size:10pt">180</text>
<path d="M60.137,30.467L60.137,40.467" style="fill:none;stroke:#000000;stroke-width:0.625" />
<path d="M377.19,30.467L377.19,40.467" style="fill:none;stroke:#000000;stroke-width:0.625" />
<path d="M694.25,30.467L694.25,40.467" style="fill:none;stroke:#000000;stroke-width:0.625" />
<path d="M1011.3,30.467L1011.3,40.467" style="fill:none;stroke:#000000;stroke-width:0.625" />
<path d="M165.82,35.468L165.82,40.467" style="fill:none;stroke:#000000;stroke-width:0.625" />
<path d="M271.51,35.468L271.51,40.467" style="fill:none;stroke:#000000;stroke-width:0.625" />
<path d="M482.88,35.468L482.88,40.467" style="fill:none;stroke:#000000;stroke-width:0.625" />
<path d="M588.56,35.468L588.56,40.467" style="fill:none;stroke:#000000;stroke-width:0.625" />
<path d="M799.93,35.468L799.93,40.467" style="fill:none;stroke:#000000;stroke-width:0.625" />
<path d="M905.62,35.468L905.62,40.467" style="fill:none;stroke:#000000;stroke-width:0.625" />
<path d="M60.137,40.467L1080,40.467" style="fill:none;stroke:#000000;stroke-width:0.625" />
<g transform="rotate(90)">
<text x="332.98" y="13.59" transform="scale(1, -1)"
	style="font-family:Helvetica;font-weight:normal;font-style:normal;font-size:12pt">Latency(ms)</text>
</g>
<text x="25.505" y="-59.454" transform="scale(1, -1)"
	style="font-family:Helvetica;font-weight:normal;font-style:normal;font-size:10pt">40</text>
<text x="25.505" y="-267.2" transform="scale(1, -1)"
	style="font-family:Helvetica;font-weight:normal;font-style:normal;font-size:10pt">80</text>
<text x="18.555" y="-474.94" transform="scale(1, -1)"
	style="font-family:Helvetica;font-weight:normal;font-style:normal;font-size:10pt">120</text>
<text x="18.555" y="-682.68" transform="scale(1, -1)"
	style="font-family:Helvetica;font-weight:normal;font-style:normal;font-size:10pt">160</text>
<path d="M42.88,64.823L52.88,64.823" style="fill:none;stroke:#000000;stroke-width:0.625" />
<path d="M42.88,272.57L52.88,272.57" style="fill:none;stroke:#000000;stroke-width:0.625" />
<path d="M42.88,480.31L52.88,480.31" style="fill:none;stroke:#000000;stroke-width:0.625" />
<path d="M42.88,688.05L52.88,688.05" style="fill:none;stroke:#000000;stroke-width:0.625" />
<path d="M47.88,168.69L52.88,168.69" style="fill:none;stroke:#000000;stroke-width:0.625" />
<path d="M47.88,376.44L52.88,376.44" style="fill:none;stroke:#000000;stroke-width:0.625" />
<path d="M47.88,584.18L52.88,584.18" style="fill:none;stroke:#000000;stroke-width:0.625" />
<path d="M52.88,47.03L52.88,701.44" style="fill:none;stroke:#000000;stroke-width:0.625" />
<path d="M60.137,201.48L65.422,199.78L70.706,238.36L75.99,355.58L81.275,282.79L86.559,263.36L91.843,277.46L97.127,357.54L102.41,297.63L107.7,281.15L112.98,291.48L118.26,363.19L123.55,287.51L128.83,286.88L134.12,279.79L139.4,370.55L144.69,311.7L149.97,305.19L155.25,306.01L160.54,321.23L165.82,372.38L171.11,303.91L176.39,311.76L181.68,305.31L186.96,338.68L192.24,353.95L197.53,337.74L202.81,334.36L208.1,329.73L213.38,426.48L218.67,298.02L223.95,323.99L229.23,334.42L234.52,337.77L239.8,420.51L245.09,377.79L250.37,342.53L255.66,297.24L260.94,299.39L266.22,447.4L271.51,353.55L276.79,318.06L282.08,338.62L287.36,398.03L292.65,362.59L297.93,330.96L303.21,305.81L308.5,371.66L313.78,324.51L319.07,374.5L324.35,351.67L329.63,338.77L334.92,321.31L340.2,356.27L345.49,384.62L350.77,259.16L356.06,346.86L361.34,459.75L366.62,322.77L371.91,375.25L377.19,330.01L382.48,391.51L387.76,473.66L393.05,309.61L398.33,287.48L403.61,311.98L408.9,380.91L414.18,416.24L419.47,395.73L424.75,320.26L430.04,334.48L435.32,341.96L440.6,430.52L445.89,337.37L451.17,340.81L456.46,314.84L461.74,320.92L467.03,325.93L472.31,347.58L477.59,334.24L482.88,364.31L488.16,479.59L493.45,336.25L498.73,309.8L504.02,360.47L509.3,356.58L514.58,431.77L519.87,328.03L525.15,343.6L530.44,355.95L535.72,338.93L541.01,402.71L546.29,437.22L551.57,373.14L556.86,350.6L562.14,435.86L567.43,418.48L572.71,331.38L578,432.23L583.28,407.66L588.56,390.18L593.85,315.34L599.13,366.67L604.42,360.96L609.7,328.57L614.98,364.65L620.27,424.77L625.55,392.55L630.84,411.66L636.12,305.98L641.41,398.45L646.69,538.45L651.97,311.05L657.26,329.12L662.54,383.81L667.83,467.25L673.11,307.7L678.4,336.97L683.68,399.14L688.96,348.61L694.25,260.87L699.53,502.56L704.82,405.19L710.1,300.28L715.39,442L720.67,412.51L725.95,308.9L731.24,412.69L736.52,352.23L741.81,336.1L747.09,464.55L752.38,316.45L757.66,355.4L762.94,443.97L768.23,216.96L773.51,404.99L778.8,564.57L784.08,265.55L789.37,383.01L794.65,320.36L799.93,446.81L805.22,497.48L810.5,334.56L815.79,485.86L821.07,302.64L826.36,419.86L831.64,432.74L836.92,384.85L842.21,400.5L847.49,321.45L852.78,498.14L858.06,269.25L863.35,453.23L868.63,209.37L873.91,449.71L879.2,418.79L884.48,328.01L889.77,425.04L895.05,277.74L900.34,429.9L905.62,329.9L910.9,435.54L916.19,321.42L921.47,455.91L926.76,313.71L932.04,411.56L937.32,332.48L942.61,517.04L947.89,262.4L953.18,462.29L958.46,278.36L963.75,562.15L969.03,244.28L974.31,427.12L979.6,245.36L984.88,447.13L990.17,335.94L995.45,431.32L1000.7,310.34L1006,470.46L1011.3,276.9L1016.6,497.97L1021.9,369.05L1027.2,521.42L1032.4,279.75L1037.7,631.19L1043,313.48L1048.3,381.96L1053.6,351.91L1058.9,384.94L1064.1,482.1L1069.4,333.88" style="fill:none;stroke:#F15A60;stroke-width:1.875" />
<path d="M60.137,47.03L65.422,196.75L70.706,220.67L75.99,322.32L81.275,255.29L86.559,261L91.843,281.56L97.127,271.59L102.41,357.93L107.7,302.4L112.98,282.96L118.26,329.79L123.55,393.55L128.83,278.52L134.12,283.67L139.4,311L144.69,390.53L149.97,302.83L155.25,294.61L160.54,309.13L165.82,321.4L171.11,404.38L176.39,318.35L181.68,307.47L186.96,303.81L192.24,396.1L197.53,325.9L202.81,312.35L208.1,325.5L213.38,311.99L218.67,398.31L223.95,335.19L229.23,328.31L234.52,327.78L239.8,362.31L245.09,413.46L250.37,301.34L255.66,311.44L260.94,360.38L266.22,343.55L271.51,386.94L276.79,319.04L282.08,317.85L287.36,335.97L292.65,348.84L297.93,397.81L303.21,310.35L308.5,366.95L313.78,339.17L319.07,461.68L324.35,284.08L329.63,332.94L334.92,283.15L340.2,377.11L345.49,410.42L350.77,317.57L356.06,381.81L361.34,326.19L366.62,415.54L371.91,317.63L377.19,402.87L382.48,306.33L387.76,299.75L393.05,430.53L398.33,343.14L403.61,396.59L408.9,317.43L414.18,345.98L419.47,444.13L424.75,325.16L430.04,298.83L435.32,332.88L440.6,389.79L445.89,342.33L451.17,398.56L456.46,341.76L461.74,319.57L467.03,360.94L472.31,422.83L477.59,327.62L482.88,351.22L488.16,309.43L493.45,404.08L498.73,360.12L504.02,341.01L509.3,323.55L514.58,293.8L519.87,408.14L525.15,346.51L530.44,351.33L535.72,355.01L541.01,359.09L546.29,489.76L551.57,379.2L556.86,260.58L562.14,330.66L567.43,386.04L572.71,374.34L578,354.3L583.28,324.6L588.56,389.14L593.85,291.96L599.13,508.1L604.42,407.78L609.7,396.32L614.98,257.23L620.27,340.35L625.55,462.83L630.84,381.47L636.12,291.7L641.41,374.51L646.69,387.92L651.97,476.89L657.26,273.79L662.54,355.54L667.83,445.62L673.11,347.62L678.4,271.43L683.68,408.95L688.96,430.53L694.25,268.74L699.53,447.97L704.82,417.77L710.1,314.45L715.39,443.67L720.67,424.17L725.95,328.62L731.24,420.77L736.52,373.78L741.81,324.89L747.09,372.54L752.38,379.37L757.66,404.06L762.94,474.4L768.23,244.06L773.51,439.58L778.8,436.09L784.08,348.93L789.37,451.1L794.65,252.86L799.93,413.01L805.22,448.43L810.5,383.94L815.79,495.6L821.07,264.12L826.36,436.32L831.64,374.31L836.92,407.76L842.21,322.5L847.49,321.75L852.78,485.13L858.06,373.61L863.35,511.82L868.63,280.95L873.91,494.74L879.2,279.43L884.48,527.61L889.77,346.25L895.05,459.98L900.34,287.51L905.62,486.09L910.9,321.17L916.19,578.5L921.47,318.52L926.76,435.6L932.04,315.68L937.32,477.19L942.61,347.36L947.89,496.63L953.18,282.98L958.46,468.93L963.75,289.36L969.03,701.44L974.31,216.07L979.6,595.68L984.88,292.35L990.17,567.29L995.45,344.37L1000.7,548.35L1006,253.35L1011.3,588.48L1016.6,226.26L1021.9,648.62L1027.2,288.27L1032.4,336.2L1037.7,416.11L1043,334.6L1048.3,559.43L1053.6,317.3L1058.9,582.55L1064.1,265.97L1069.4,653L1074.7,258.31L1080,412.59" style="fill:none;stroke:#7AC36A;stroke-width:1.875;stroke-dasharray:7.5,2.5" />
<path d="M1055,694.3L1080,694.3" style="fill:none;stroke:#F15A60;stroke-width:1.875" />
<text x="997.46" y="-687.85" transform="scale(1, -1)"
	style="font-family:Helvetica;font-weight:normal;font-style:normal;font-size:12pt">etcd3_0</text>
<path d="M1055,680L1080,680" style="fill:none;stroke:#7AC36A;stroke-width:1.875;stroke-dasharray:7.5,2.5" />
<text x="997.46" y="-673.56" transform="scale(1, -1)"
	style="font-family:Helvetica;font-weight:normal;font-style:normal;font-size:12pt">etcd3_1</text>
</g>
</svg>
