<?xml version="1.0"?>
<!-- Generated by SVGo and Plotinum VG -->
<svg width="12in" height="8in"
	xmlns="http://www.w3.org/2000/svg"
	xmlns:xlink="http://www.w3.org/1999/xlink">
<g transform="scale(1, -1) translate(0, -720)">
<path d="M0,0L1080,0L1080,720L0,720Z" style="fill:#FFFFFF" />
<text x="275.3" y="-706.41" transform="scale(1, -1)"
	style="font-family:Helvetica;font-weight:normal;font-style:normal;font-size:12pt">Write 3M keys, 700 conns, 1500 clients, key 64 bytes, value 256 bytes, Memory</text>
<text x="549.36" y="-4.965" transform="scale(1, -1)"
	style="font-family:Helvetica;font-weight:normal;font-style:normal;font-size:12pt">second</text>
<text x="63.613" y="-19.142" transform="scale(1, -1)"
	style="font-family:Helvetica;font-weight:normal;font-style:normal;font-size:10pt">0</text>
<text x="378.33" y="-19.142" transform="scale(1, -1)"
	style="font-family:Helvetica;font-weight:normal;font-style:normal;font-size:10pt">60</text>
<text x="693.05" y="-19.142" transform="scale(1, -1)"
	style="font-family:Helvetica;font-weight:normal;font-style:normal;font-size:10pt">120</text>
<text x="1011.2" y="-19.142" transform="scale(1, -1)"
	style="font-family:Helvetica;font-weight:normal;font-style:normal;font-size:10pt">180</text>
<path d="M67.088,30.467L67.088,40.467" style="fill:none;stroke:#000000;stroke-width:0.625" />
<path d="M385.28,30.467L385.28,40.467" style="fill:none;stroke:#000000;stroke-width:0.625" />
<path d="M703.47,30.467L703.47,40.467" style="fill:none;stroke:#000000;stroke-width:0.625" />
<path d="M1021.7,30.467L1021.7,40.467" style="fill:none;stroke:#000000;stroke-width:0.625" />
<path d="M173.15,35.468L173.15,40.467" style="fill:none;stroke:#000000;stroke-width:0.625" />
<path d="M279.22,35.468L279.22,40.467" style="fill:none;stroke:#000000;stroke-width:0.625" />
<path d="M491.34,35.468L491.34,40.467" style="fill:none;stroke:#000000;stroke-width:0.625" />
<path d="M597.41,35.468L597.41,40.467" style="fill:none;stroke:#000000;stroke-width:0.625" />
<path d="M809.54,35.468L809.54,40.467" style="fill:none;stroke:#000000;stroke-width:0.625" />
<path d="M915.6,35.468L915.6,40.467" style="fill:none;stroke:#000000;stroke-width:0.625" />
<path d="M67.088,40.467L1080,40.467" style="fill:none;stroke:#000000;stroke-width:0.625" />
<g transform="rotate(90)">
<text x="330.91" y="13.59" transform="scale(1, -1)"
	style="font-family:Helvetica;font-weight:normal;font-style:normal;font-size:12pt">Memory(MB)</text>
</g>
<text x="25.505" y="-206.52" transform="scale(1, -1)"
	style="font-family:Helvetica;font-weight:normal;font-style:normal;font-size:10pt">400</text>
<text x="25.505" y="-386.54" transform="scale(1, -1)"
	style="font-family:Helvetica;font-weight:normal;font-style:normal;font-size:10pt">800</text>
<text x="18.555" y="-566.56" transform="scale(1, -1)"
	style="font-family:Helvetica;font-weight:normal;font-style:normal;font-size:10pt">1200</text>
<path d="M49.83,211.89L59.83,211.89" style="fill:none;stroke:#000000;stroke-width:0.625" />
<path d="M49.83,391.91L59.83,391.91" style="fill:none;stroke:#000000;stroke-width:0.625" />
<path d="M49.83,571.93L59.83,571.93" style="fill:none;stroke:#000000;stroke-width:0.625" />
<path d="M54.83,121.87L59.83,121.87" style="fill:none;stroke:#000000;stroke-width:0.625" />
<path d="M54.83,301.9L59.83,301.9" style="fill:none;stroke:#000000;stroke-width:0.625" />
<path d="M54.83,481.92L59.83,481.92" style="fill:none;stroke:#000000;stroke-width:0.625" />
<path d="M54.83,661.94L59.83,661.94" style="fill:none;stroke:#000000;stroke-width:0.625" />
<path d="M59.83,47.03L59.83,701.44" style="fill:none;stroke:#000000;stroke-width:0.625" />
<path d="M67.088,78.237L72.391,87.801L77.694,91.739L82.997,93.3L88.3,97.171L93.604,100.78L98.907,105.25L104.21,109.14L109.51,112.25L114.82,118.59L120.12,121.34L125.42,124.19L130.73,127.98L136.03,131.37L141.33,136.74L146.64,137.96L151.94,141.88L157.24,146.61L162.55,150.02L167.85,153.36L173.15,154.95L178.45,158.52L183.76,161.19L189.06,167.22L194.36,171.43L199.67,172.96L204.97,176.39L210.27,180.11L215.58,183.42L220.88,187.29L226.18,189.59L231.49,195.19L236.79,198.06L242.09,198.89L247.4,203.42L252.7,205.75L258,208.43L263.31,212.89L268.61,214.45L273.91,217.67L279.22,219.83L284.52,225.41L289.82,229.32L295.13,232.01L300.43,233.81L305.73,238.8L311.04,241.36L316.34,244.95L321.64,248.04L326.94,251.63L332.25,258.12L337.55,259.22L342.85,261.28L348.16,264.84L353.46,267.48L358.76,273.39L364.07,276.91L369.37,279.3L374.67,282.33L379.98,286.4L385.28,289.72L390.58,292.43L395.89,295.26L401.19,297.09L406.49,300.67L411.8,303.62L417.1,307.52L422.4,310.17L427.71,313.86L433.01,319.29L438.31,323.1L443.62,326.5L448.92,328.87L454.22,330.45L459.52,333.39L464.83,336.97L470.13,340.99L475.43,343.35L480.74,348.35L486.04,349.78L491.34,353.58L496.65,359.52L501.95,362.99L507.25,365.82L512.56,369.18L517.86,373.32L523.16,374.87L528.47,379.19L533.77,382.71L539.07,385.49L544.38,389.92L549.68,392.52L554.98,398.55L560.29,402.7L565.59,404.73L570.89,405.81L576.2,408.43L581.5,416.97L586.8,418.6L592.1,420.98L597.41,423.95L602.71,426.4L608.01,429.25L613.32,432.85L618.62,436.22L623.92,440.15L629.23,441.76L634.53,445.74L639.83,450.02L645.14,451.61L650.44,457.46L655.74,458.85L661.05,461.06L666.35,464.28L671.65,467.92L676.96,470.23L682.26,473.58L687.56,477.96L692.87,480.44L698.17,486.34L703.47,488.12L708.78,490.54L714.08,493.66L719.38,495.15L724.69,498.95L729.99,500.5L735.29,503.91L740.59,508.33L745.9,511.08L751.2,514.93L756.5,516.9L761.81,522.81L767.11,524.56L772.41,525.71L777.72,531.24L783.02,533.21L788.32,537.25L793.63,540.41L798.93,542.74L804.23,545.52L809.54,549.13L814.84,552.8L820.14,556.49L825.45,558.12L830.75,560.47L836.05,565.2L841.36,567.67L846.66,575.32L851.96,577.91L857.27,583.31L862.57,583.54L867.87,586.56L873.17,587.42L878.48,591.41L883.78,593.17L889.08,596.52L894.39,598.45L899.69,600.98L904.99,604.41L910.3,611.2L915.6,612.46L920.9,615.18L926.21,617.06L931.51,620.33L936.81,622.52L942.12,625.52L947.42,627.61L952.72,630.68L958.03,635.72L963.33,642.69L968.63,645.73L973.94,649.03L979.24,652.26L984.54,653.21L989.85,656.64L995.15,658.51L1000.5,662.84L1005.8,665.59L1011.1,669.67L1016.4,672.28L1021.7,674.42L1027,677.92L1032.3,680.57L1037.6,684.39L1042.9,688.26L1048.2,690.03L1053.5,692.33L1058.8,692.86L1064.1,699.09" style="fill:none;stroke:#F15A60;stroke-width:1.875" />
<path d="M67.088,47.03L72.391,79.61L77.694,87.922L82.997,91.779L88.3,94.057L93.604,99.664L98.907,102.25L104.21,104.97L109.51,109.3L114.82,113.38L120.12,117.87L125.42,124.44L130.73,126.2L136.03,127.51L141.33,129.48L146.64,135.74L151.94,138.61L157.24,140.87L162.55,144.04L167.85,147.86L173.15,151.74L178.45,154.24L183.76,159.25L189.06,163.08L194.36,167.59L199.67,173.52L204.97,175.52L210.27,176.83L215.58,178.81L220.88,181.93L226.18,186.36L231.49,189.64L236.79,193.09L242.09,196.24L247.4,199.34L252.7,200.45L258,205.99L263.31,209.24L268.61,212.18L273.91,215.95L279.22,217.88L284.52,222.6L289.82,226.43L295.13,232.57L300.43,234.47L305.73,236.48L311.04,239.43L316.34,243.8L321.64,247.95L326.94,252.76L332.25,254.79L337.55,257.54L342.85,262.56L348.16,265.88L353.46,269.21L358.76,270.54L364.07,278.5L369.37,280.99L374.67,282.97L379.98,285.9L385.28,289.61L390.58,293.92L395.89,296.7L401.19,302.21L406.49,304.52L411.8,306.88L417.1,311.49L422.4,313.69L427.71,316.25L433.01,317.69L438.31,323.39L443.62,327.32L448.92,329.28L454.22,334.73L459.52,336.77L464.83,338.7L470.13,342.3L475.43,344.73L480.74,348.97L486.04,352.62L491.34,353.75L496.65,359.01L501.95,365.27L507.25,367.84L512.56,369.66L517.86,374.67L523.16,378.56L528.47,380.11L533.77,381.75L539.07,383.43L544.38,388.58L549.68,390.03L554.98,393.24L560.29,396.96L565.59,400.48L570.89,405.99L576.2,408.96L581.5,411.73L586.8,413.82L592.1,416.71L597.41,421.45L602.71,422.62L608.01,426.61L613.32,432.1L618.62,435.44L623.92,438.31L629.23,440.29L634.53,441.86L639.83,444.96L645.14,448.55L650.44,451.99L655.74,454.73L661.05,459.17L666.35,464.18L671.65,467.87L676.96,471.78L682.26,474.32L687.56,478.83L692.87,481.65L698.17,484.41L703.47,487.32L708.78,490.8L714.08,492.02L719.38,494.7L724.69,497.79L729.99,502.11L735.29,504.94L740.59,506.34L745.9,509.64L751.2,514.5L756.5,516.42L761.81,519.54L767.11,521.29L772.41,525.69L777.72,528.53L783.02,531.19L788.32,535.01L793.63,538.28L798.93,540.43L804.23,545.11L809.54,549.67L814.84,551.36L820.14,554.66L825.45,557.03L830.75,560.43L836.05,562.96L841.36,565.39L846.66,568.04L851.96,570.6L857.27,573.4L862.57,578.16L867.87,582.04L873.17,584.66L878.48,587.66L883.78,589.41L889.08,593.53L894.39,595.57L899.69,599.24L904.99,602.12L910.3,604.76L915.6,606.62L920.9,609.63L926.21,612.81L931.51,616.2L936.81,619.82L942.12,623.93L947.42,626.75L952.72,629.18L958.03,631.92L963.33,636.7L968.63,637.34L973.94,640.99L979.24,642.56L984.54,646.68L989.85,650.82L995.15,658.6L1000.5,660.91L1005.8,663.38L1011.1,666.18L1016.4,670.11L1021.7,671.24L1027,674.44L1032.3,676.05L1037.6,681.8L1042.9,684.4L1048.2,686.86L1053.5,688.87L1058.8,691.13L1064.1,694.69L1069.4,696.54L1074.7,700.3L1080,701.44" style="fill:none;stroke:#7AC36A;stroke-width:1.875;stroke-dasharray:7.5,2.5" />
<path d="M1055,694.3L1080,694.3" style="fill:none;stroke:#F15A60;stroke-width:1.875" />
<text x="997.46" y="-687.85" transform="scale(1, -1)"
	style="font-family:Helvetica;font-weight:normal;font-style:normal;font-size:12pt">etcd3_0</text>
<path d="M1055,680L1080,680" style="fill:none;stroke:#7AC36A;stroke-width:1.875;stroke-dasharray:7.5,2.5" />
<text x="997.46" y="-673.56" transform="scale(1, -1)"
	style="font-family:Helvetica;font-weight:normal;font-style:normal;font-size:12pt">etcd3_1</text>
</g>
</svg>
