<?xml version="1.0"?>
<!-- Generated by SVGo and Plotinum VG -->
<svg width="12in" height="8in"
	xmlns="http://www.w3.org/2000/svg"
	xmlns:xlink="http://www.w3.org/1999/xlink">
<g transform="scale(1, -1) translate(0, -720)">
<path d="M0,0L1080,0L1080,720L0,720Z" style="fill:#FFFFFF" />
<text x="223.63" y="-706.41" transform="scale(1, -1)"
	style="font-family:Helvetica;font-weight:normal;font-style:normal;font-size:12pt">Write 2M keys, 1,000 clients (etcd 100 conns), 8-byte key, 256-byte value, Latency(millisecond)</text>
<text x="548.11" y="-4.965" transform="scale(1, -1)"
	style="font-family:Helvetica;font-weight:normal;font-style:normal;font-size:12pt">Second</text>
<text x="63.613" y="-19.142" transform="scale(1, -1)"
	style="font-family:Helvetica;font-weight:normal;font-style:normal;font-size:10pt">0</text>
<text x="376.67" y="-19.142" transform="scale(1, -1)"
	style="font-family:Helvetica;font-weight:normal;font-style:normal;font-size:10pt">50</text>
<text x="689.73" y="-19.142" transform="scale(1, -1)"
	style="font-family:Helvetica;font-weight:normal;font-style:normal;font-size:10pt">100</text>
<text x="1006.3" y="-19.142" transform="scale(1, -1)"
	style="font-family:Helvetica;font-weight:normal;font-style:normal;font-size:10pt">150</text>
<path d="M67.088,30.467L67.088,40.467" style="fill:none;stroke:#000000;stroke-width:0.625" />
<path d="M383.62,30.467L383.62,40.467" style="fill:none;stroke:#000000;stroke-width:0.625" />
<path d="M700.16,30.467L700.16,40.467" style="fill:none;stroke:#000000;stroke-width:0.625" />
<path d="M1016.7,30.467L1016.7,40.467" style="fill:none;stroke:#000000;stroke-width:0.625" />
<path d="M130.39,35.468L130.39,40.467" style="fill:none;stroke:#000000;stroke-width:0.625" />
<path d="M193.7,35.468L193.7,40.467" style="fill:none;stroke:#000000;stroke-width:0.625" />
<path d="M257.01,35.468L257.01,40.467" style="fill:none;stroke:#000000;stroke-width:0.625" />
<path d="M320.32,35.468L320.32,40.467" style="fill:none;stroke:#000000;stroke-width:0.625" />
<path d="M446.93,35.468L446.93,40.467" style="fill:none;stroke:#000000;stroke-width:0.625" />
<path d="M510.24,35.468L510.24,40.467" style="fill:none;stroke:#000000;stroke-width:0.625" />
<path d="M573.54,35.468L573.54,40.467" style="fill:none;stroke:#000000;stroke-width:0.625" />
<path d="M636.85,35.468L636.85,40.467" style="fill:none;stroke:#000000;stroke-width:0.625" />
<path d="M763.46,35.468L763.46,40.467" style="fill:none;stroke:#000000;stroke-width:0.625" />
<path d="M826.77,35.468L826.77,40.467" style="fill:none;stroke:#000000;stroke-width:0.625" />
<path d="M890.08,35.468L890.08,40.467" style="fill:none;stroke:#000000;stroke-width:0.625" />
<path d="M953.39,35.468L953.39,40.467" style="fill:none;stroke:#000000;stroke-width:0.625" />
<path d="M1080,35.468L1080,40.467" style="fill:none;stroke:#000000;stroke-width:0.625" />
<path d="M67.088,40.467L1080,40.467" style="fill:none;stroke:#000000;stroke-width:0.625" />
<g transform="rotate(90)">
<text x="305.89" y="13.59" transform="scale(1, -1)"
	style="font-family:Helvetica;font-weight:normal;font-style:normal;font-size:12pt">Latency(millisecond)</text>
</g>
<text x="39.405" y="-41.661" transform="scale(1, -1)"
	style="font-family:Helvetica;font-weight:normal;font-style:normal;font-size:10pt">0</text>
<text x="18.555" y="-169.98" transform="scale(1, -1)"
	style="font-family:Helvetica;font-weight:normal;font-style:normal;font-size:10pt">1000</text>
<text x="18.555" y="-298.29" transform="scale(1, -1)"
	style="font-family:Helvetica;font-weight:normal;font-style:normal;font-size:10pt">2000</text>
<text x="18.555" y="-426.61" transform="scale(1, -1)"
	style="font-family:Helvetica;font-weight:normal;font-style:normal;font-size:10pt">3000</text>
<text x="18.555" y="-554.92" transform="scale(1, -1)"
	style="font-family:Helvetica;font-weight:normal;font-style:normal;font-size:10pt">4000</text>
<text x="18.555" y="-683.24" transform="scale(1, -1)"
	style="font-family:Helvetica;font-weight:normal;font-style:normal;font-size:10pt">5000</text>
<path d="M49.83,47.03L59.83,47.03" style="fill:none;stroke:#000000;stroke-width:0.625" />
<path d="M49.83,175.35L59.83,175.35" style="fill:none;stroke:#000000;stroke-width:0.625" />
<path d="M49.83,303.66L59.83,303.66" style="fill:none;stroke:#000000;stroke-width:0.625" />
<path d="M49.83,431.98L59.83,431.98" style="fill:none;stroke:#000000;stroke-width:0.625" />
<path d="M49.83,560.29L59.83,560.29" style="fill:none;stroke:#000000;stroke-width:0.625" />
<path d="M49.83,688.61L59.83,688.61" style="fill:none;stroke:#000000;stroke-width:0.625" />
<path d="M54.83,111.19L59.83,111.19" style="fill:none;stroke:#000000;stroke-width:0.625" />
<path d="M54.83,239.5L59.83,239.5" style="fill:none;stroke:#000000;stroke-width:0.625" />
<path d="M54.83,367.82L59.83,367.82" style="fill:none;stroke:#000000;stroke-width:0.625" />
<path d="M54.83,496.13L59.83,496.13" style="fill:none;stroke:#000000;stroke-width:0.625" />
<path d="M54.83,624.45L59.83,624.45" style="fill:none;stroke:#000000;stroke-width:0.625" />
<path d="M59.83,47.03L59.83,701.44" style="fill:none;stroke:#000000;stroke-width:0.625" />
<path d="M67.088,50.801L73.418,50.81L79.749,51.362L86.08,53.445L92.41,51.332L98.741,51.359L105.07,51.512L111.4,51.67L117.73,51.844L124.06,51.927L130.39,51.804L136.73,51.676L143.06,52.376L149.39,52.526L155.72,52.988L162.05,51.935L168.38,51.846L174.71,51.979L181.04,52.049L187.37,52.151L193.7,51.886L200.03,52.093L206.36,52.294L212.69,51.995L219.02,51.982L225.36,52.067L231.69,51.9L238.02,52.084L244.35,52.056L250.68,51.66L257.01,51.937L263.34,51.887L269.67,51.835L276,51.674L282.33,51.713L288.66,52.17L294.99,51.681L301.32,52.269L307.65,52.266L313.98,52.283L320.32,51.762L326.65,52.444L332.98,52.31L339.31,52.399L345.64,52.44L351.97,52.417L358.3,52.576L364.63,51.574L370.96,51.968L377.29,52.452L383.62,52.594L389.95,52.121L396.28,53.076L402.61,52.084L408.95,52.117L415.28,52.158L421.61,52.531L427.94,52.024L434.27,53.345L440.6,51.946L446.93,52.739L453.26,52.871L459.59,52.104L465.92,52.91L472.25,52.237L478.58,52.931L484.91,51.72L491.24,52.735L497.58,52.667L503.91,52.21L510.24,53.033L516.57,51.979L522.9,52.822L529.23,53.206L535.56,51.815L541.89,51.658L548.22,52.523L554.55,52.1L560.88,52.499L567.21,52.478" style="fill:none;stroke:#F15A60;stroke-width:1.875" />
<path d="M67.088,49.151L73.418,51.751L79.749,53.138L86.08,50.746L92.41,50.388L98.741,50.056L105.07,50.224L111.4,50.427L117.73,50.316L124.06,50.562L130.39,50.356L136.73,52.788L143.06,54.532L149.39,49.927L155.72,50.296L162.05,50.058L168.38,49.822L174.71,53.145L181.04,50.374L187.37,50.088L193.7,58.053L200.03,50.846L206.36,50.28L212.69,50.297L219.02,51.349L225.36,50.188L231.69,50.265L238.02,49.947L244.35,50.189L250.68,47.03L257.01,61.894L263.34,49.024L269.67,64.825L276,50.301L282.33,50.253L288.66,50.186L294.99,50.58L301.32,50.178L307.65,50.962L313.98,51.357L320.32,50.479L326.65,50.616L332.98,56.965L339.31,119.99L345.64,119.39L351.97,115.77L358.3,198.39L364.63,47.03L370.96,260.75L377.29,47.03L383.62,47.03L389.95,47.03L396.28,47.03L402.61,47.03L408.95,47.03L415.28,47.03L421.61,47.03L427.94,47.03L434.27,47.03L440.6,47.03L446.93,47.03L453.26,64.674L459.59,51L465.92,51.569L472.25,50.053L478.58,50.519L484.91,50.17L491.24,51.126L497.58,50.96L503.91,50.344L510.24,53.139L516.57,66.938L522.9,47.03L529.23,64.55L535.56,49.592L541.89,196.14L548.22,47.03L554.55,47.03L560.88,47.03L567.21,47.03L573.54,47.03L579.87,47.03L586.21,47.03L592.54,47.03L598.87,47.03L605.2,47.03L611.53,47.03L617.86,47.03L624.19,60.136L630.52,50.836L636.85,50.077L643.18,49.498L649.51,49.727L655.84,53.879L662.17,298.83L668.5,47.03L674.83,47.03L681.17,47.03L687.5,47.03L693.83,47.03L700.16,47.03L706.49,47.03L712.82,47.03L719.15,47.03L725.48,47.03L731.81,47.03L738.14,47.03L744.47,47.03L750.8,47.03L757.13,47.03L763.46,47.03L769.8,47.03L776.13,47.03L782.46,47.03L788.79,47.03L795.12,47.03L801.45,47.03L807.78,47.03L814.11,47.03L820.44,47.03L826.77,47.03L833.1,47.03L839.43,47.03L845.76,47.03L852.09,47.03L858.43,47.03L864.76,47.03L871.09,47.03L877.42,47.03L883.75,47.03L890.08,47.03L896.41,47.03L902.74,47.03L909.07,47.03L915.4,47.03L921.73,47.03L928.06,47.03L934.39,47.03L940.72,47.03L947.06,47.03L953.39,47.03L959.72,290.9L966.05,47.03L972.38,47.03L978.71,508.87L985.04,47.03L991.37,701.44L997.7,47.03L1004,47.03L1010.4,47.03L1016.7,65.26L1023,49.378L1029.4,47.03L1035.7,123.29L1042,52.795L1048.3,55.689L1054.7,47.03L1061,328.26L1067.3,47.03L1073.7,55.74L1080,50.48" style="fill:none;stroke:#7AC36A;stroke-width:1.875;stroke-dasharray:7.5,2.5" />
<path d="M67.088,48.776L73.418,51.068L79.749,56.475L86.08,50.001L92.41,50.143L98.741,49.892L105.07,50.211L111.4,49.677L117.73,50.027L124.06,49.992L130.39,53.036L136.73,51.855L143.06,50.041L149.39,49.73L155.72,49.827L162.05,68.557L168.38,49.617L174.71,49.857L181.04,49.243L187.37,54.576L193.7,50L200.03,49.699L206.36,50.558L212.69,49.771L219.02,50.286L225.36,49.703L231.69,49.864L238.02,47.03L244.35,55.654L250.68,49.202L257.01,275.97L263.34,53.38L269.67,49.754L276,50.258L282.33,49.8L288.66,50.022L294.99,49.805L301.32,50.017L307.65,50.116L313.98,49.86L320.32,50.303L326.65,50.021L332.98,50.012L339.31,50.452L345.64,49.451L351.97,76.733L358.3,51.585L364.63,47.03L370.96,346.69L377.29,56.368L383.62,50.197L389.95,49.929L396.28,49.861L402.61,53.03L408.95,51.114L415.28,50.619L421.61,49.754L427.94,50.617" style="fill:none;stroke:#5A9BD4;stroke-width:1.875;stroke-dasharray:2.5,2.5" />
<path d="M67.088,48.781L73.418,51.579L79.749,53.474L86.08,50.868L92.41,50.497L98.741,49.984L105.07,50.002L111.4,50.031L117.73,50.386L124.06,50.214L130.39,50.182L136.73,53.863L143.06,50.393L149.39,51.328L155.72,50.232L162.05,50.008L168.38,50.69L174.71,56.454L181.04,49.871L187.37,49.988L193.7,49.86L200.03,54.016L206.36,50.307L212.69,49.981L219.02,50.916L225.36,49.891L231.69,50.25L238.02,50.122L244.35,50.045L250.68,49.815L257.01,62.505L263.34,50.016L269.67,48.867L276,59.518L282.33,50.03L288.66,49.833L294.99,50.377L301.32,49.808L307.65,50.153L313.98,50.09L320.32,49.822L326.65,50.208L332.98,50.037L339.31,50.162L345.64,50.116L351.97,50.169L358.3,50.835L364.63,49.814L370.96,47.03L377.29,64.238L383.62,49.981L389.95,47.03L396.28,47.03L402.61,62.506L408.95,50.527L415.28,49.942L421.61,50.654L427.94,50.294L434.27,49.997L440.6,50.57L446.93,50.145" style="fill:none;stroke:#FAA75B;stroke-width:1.875;stroke-dasharray:1.25,1.25" />
<path d="M1055,694.3L1080,694.3" style="fill:none;stroke:#F15A60;stroke-width:1.875" />
<text x="1002.5" y="-687.85" transform="scale(1, -1)"
	style="font-family:Helvetica;font-weight:normal;font-style:normal;font-size:12pt">etcd v3</text>
<path d="M1055,680L1080,680" style="fill:none;stroke:#7AC36A;stroke-width:1.875;stroke-dasharray:7.5,2.5" />
<text x="793.19" y="-673.56" transform="scale(1, -1)"
	style="font-family:Helvetica;font-weight:normal;font-style:normal;font-size:12pt">Zookeeper v3.4.8 (snapCount 100000)</text>
<path d="M1055,665.71L1080,665.71" style="fill:none;stroke:#5A9BD4;stroke-width:1.875;stroke-dasharray:2.5,2.5" />
<text x="793.19" y="-659.26" transform="scale(1, -1)"
	style="font-family:Helvetica;font-weight:normal;font-style:normal;font-size:12pt">Zookeeper v3.4.8 (snapCount 500000)</text>
<path d="M1055,651.41L1080,651.41" style="fill:none;stroke:#FAA75B;stroke-width:1.875;stroke-dasharray:1.25,1.25" />
<text x="784.85" y="-644.97" transform="scale(1, -1)"
	style="font-family:Helvetica;font-weight:normal;font-style:normal;font-size:12pt">Zookeeper v3.4.8 (snapCount 1000000)</text>
</g>
</svg>
