<?xml version="1.0"?>
<!-- Generated by SVGo and Plotinum VG -->
<svg width="12in" height="8in"
	xmlns="http://www.w3.org/2000/svg"
	xmlns:xlink="http://www.w3.org/1999/xlink">
<g transform="scale(1, -1) translate(0, -720)">
<path d="M0,0L1080,0L1080,720L0,720Z" style="fill:#FFFFFF" />
<text x="276.14" y="-706.41" transform="scale(1, -1)"
	style="font-family:Helvetica;font-weight:normal;font-style:normal;font-size:12pt">Write 2M keys, 1,000 clients (etcd 100 conns), 8-byte key, 256-byte value, CPU</text>
<text x="544.64" y="-4.965" transform="scale(1, -1)"
	style="font-family:Helvetica;font-weight:normal;font-style:normal;font-size:12pt">Second</text>
<text x="56.662" y="-19.142" transform="scale(1, -1)"
	style="font-family:Helvetica;font-weight:normal;font-style:normal;font-size:10pt">0</text>
<text x="373.9" y="-19.142" transform="scale(1, -1)"
	style="font-family:Helvetica;font-weight:normal;font-style:normal;font-size:10pt">50</text>
<text x="691.14" y="-19.142" transform="scale(1, -1)"
	style="font-family:Helvetica;font-weight:normal;font-style:normal;font-size:10pt">100</text>
<text x="1011.8" y="-19.142" transform="scale(1, -1)"
	style="font-family:Helvetica;font-weight:normal;font-style:normal;font-size:10pt">150</text>
<path d="M60.137,30.467L60.137,40.467" style="fill:none;stroke:#000000;stroke-width:0.625" />
<path d="M380.85,30.467L380.85,40.467" style="fill:none;stroke:#000000;stroke-width:0.625" />
<path d="M701.56,30.467L701.56,40.467" style="fill:none;stroke:#000000;stroke-width:0.625" />
<path d="M1022.3,30.467L1022.3,40.467" style="fill:none;stroke:#000000;stroke-width:0.625" />
<path d="M124.28,35.468L124.28,40.467" style="fill:none;stroke:#000000;stroke-width:0.625" />
<path d="M188.42,35.468L188.42,40.467" style="fill:none;stroke:#000000;stroke-width:0.625" />
<path d="M252.56,35.468L252.56,40.467" style="fill:none;stroke:#000000;stroke-width:0.625" />
<path d="M316.71,35.468L316.71,40.467" style="fill:none;stroke:#000000;stroke-width:0.625" />
<path d="M444.99,35.468L444.99,40.467" style="fill:none;stroke:#000000;stroke-width:0.625" />
<path d="M509.13,35.468L509.13,40.467" style="fill:none;stroke:#000000;stroke-width:0.625" />
<path d="M573.28,35.468L573.28,40.467" style="fill:none;stroke:#000000;stroke-width:0.625" />
<path d="M637.42,35.468L637.42,40.467" style="fill:none;stroke:#000000;stroke-width:0.625" />
<path d="M765.7,35.468L765.7,40.467" style="fill:none;stroke:#000000;stroke-width:0.625" />
<path d="M829.85,35.468L829.85,40.467" style="fill:none;stroke:#000000;stroke-width:0.625" />
<path d="M893.99,35.468L893.99,40.467" style="fill:none;stroke:#000000;stroke-width:0.625" />
<path d="M958.13,35.468L958.13,40.467" style="fill:none;stroke:#000000;stroke-width:0.625" />
<path d="M60.137,40.467L1080,40.467" style="fill:none;stroke:#000000;stroke-width:0.625" />
<g transform="rotate(90)">
<text x="358.4" y="13.59" transform="scale(1, -1)"
	style="font-family:Helvetica;font-weight:normal;font-style:normal;font-size:12pt">CPU</text>
</g>
<text x="18.555" y="-207.01" transform="scale(1, -1)"
	style="font-family:Helvetica;font-weight:normal;font-style:normal;font-size:10pt">100</text>
<text x="18.555" y="-376.81" transform="scale(1, -1)"
	style="font-family:Helvetica;font-weight:normal;font-style:normal;font-size:10pt">200</text>
<text x="18.555" y="-546.6" transform="scale(1, -1)"
	style="font-family:Helvetica;font-weight:normal;font-style:normal;font-size:10pt">300</text>
<path d="M42.88,212.38L52.88,212.38" style="fill:none;stroke:#000000;stroke-width:0.625" />
<path d="M42.88,382.18L52.88,382.18" style="fill:none;stroke:#000000;stroke-width:0.625" />
<path d="M42.88,551.97L52.88,551.97" style="fill:none;stroke:#000000;stroke-width:0.625" />
<path d="M47.88,127.48L52.88,127.48" style="fill:none;stroke:#000000;stroke-width:0.625" />
<path d="M47.88,297.28L52.88,297.28" style="fill:none;stroke:#000000;stroke-width:0.625" />
<path d="M47.88,467.07L52.88,467.07" style="fill:none;stroke:#000000;stroke-width:0.625" />
<path d="M47.88,636.87L52.88,636.87" style="fill:none;stroke:#000000;stroke-width:0.625" />
<path d="M52.88,47.03L52.88,701.44" style="fill:none;stroke:#000000;stroke-width:0.625" />
<path d="M60.137,47.03L66.552,127.39L72.966,195.87L79.38,251.35L85.794,278.84L92.209,320.32L98.623,357.57L105.04,388.36L111.45,411.3L117.87,432.62L124.28,451.84L130.69,469.84L137.11,485.23L143.52,497.89L149.94,503.24L156.35,512.9L162.77,524.28L169.18,534.84L175.59,543.6L182.01,551.7L188.42,559.58L194.84,567.2L201.25,572.21L207.66,578.68L214.08,583.95L220.49,591.26L226.91,596.19L233.32,600.94L239.74,605.95L246.15,611.62L252.56,615.61L258.98,620.16L265.39,625.04L271.81,629.88L278.22,633.7L284.64,637.91L291.05,641.95L297.46,644.85L303.88,646.94L310.29,649.32L316.71,651.69L323.12,655.18L329.54,657.18L335.95,659.08L342.36,660.74L348.78,662.46L355.19,663.7L361.61,665.97L368.02,668.67L374.43,670.56L380.85,672.68L387.26,674.33L393.68,674.97L400.09,676.28L406.51,677.96L412.92,679.37L419.33,681.39L425.75,682.51L432.16,683.07L438.58,684.64L444.99,684.97L451.41,686.13L457.82,686.52L464.23,687.4L470.65,688.47L477.06,689.25L483.48,691.22L489.89,691.9L496.31,692.07L502.72,693.36L509.13,694.33L515.55,694.43L521.96,695.01L528.38,696.74L534.79,696.86L541.2,698.17L547.62,699.73L554.03,700.63L560.45,701.44" style="fill:none;stroke:#F15A60;stroke-width:1.875" />
<path d="M60.137,57.014L66.552,142.83L72.966,200.25L79.38,230.46L85.794,272.45L92.209,303.08L98.623,334.84L105.04,359.73L111.45,387.32L117.87,402.79L124.28,420.55L130.69,431.88L137.11,441.69L143.52,453.64L149.94,465.66L156.35,476.18L162.77,485.07L169.18,485.38L175.59,491.37L182.01,498.25L188.42,511.66L194.84,518.91L201.25,523.92L207.66,528.25L214.08,532.34L220.49,534.47L226.91,539.48L233.32,545.23L239.74,547.47L246.15,549.29L252.56,547.12L258.98,551.79L265.39,561.89L271.81,562.33L278.22,563.67L284.64,565.52L291.05,567.07L297.46,569.19L303.88,569.85L310.29,571.35L316.71,570.57L323.12,571.96L329.54,570.94L335.95,562.23L342.36,553.98L348.78,545.27L355.19,535.49L361.61,528.12L368.02,519.98L374.43,511.83L380.85,504.43L387.26,497.76L393.68,490.93L400.09,483.97L406.51,476.74L412.92,470.57L419.33,465.14L425.75,458.84L432.16,454.14L438.58,449.6L444.99,443.96L451.41,442.69L457.82,443.91L464.23,447.02L470.65,451.62L477.06,456.05L483.48,460.94L489.89,464.75L496.31,467.94L502.72,471L509.13,471.35L515.55,470.78L521.96,471.49L528.38,471.76L534.79,472.34L541.2,469.99L547.62,466.8L554.03,463.2L560.45,460.83L566.86,457.58L573.28,453.18L579.69,449.01L586.1,444.93L592.52,439.97L598.93,435.66L605.35,431.62L611.76,428.31L618.18,425.3L624.59,423.45L631,424.81L637.42,426.05L643.83,427.12L650.25,428.22L656.66,426.37L663.08,423.84L669.49,422.45L675.9,420.31L682.32,419.24L688.73,421.03L695.15,420.04L701.56,417.73L707.97,415.54L714.39,412.48L720.8,410.96L727.22,408.31L733.63,407.92L740.05,408.48L746.46,406.46L752.87,403.62L759.29,400.73L765.7,398.14L772.12,395.54L778.53,392.92L784.95,391.02L791.36,388.95L797.77,386.23L804.19,384.11L810.6,382.14L817.02,379.17L823.43,376.59L829.85,374.13L836.26,372.23L842.67,371.26L849.09,370.7L855.5,370.37L861.92,368.71L868.33,367.06L874.74,364.98L881.16,362.9L887.57,361.12L893.99,358.96L900.4,357.22L906.82,356.3L913.23,354.28L919.64,352.16L926.06,349.98L932.47,347.91L938.89,345.84L945.3,343.73L951.72,341.71L958.13,340.01L964.54,338.95L970.96,338.16L977.37,336.5L983.79,335.06L990.2,334.04L996.62,332.49L1003,331.29L1009.4,330.08L1015.9,329.11L1022.3,328.13L1028.7,327.91L1035.1,329.13L1041.5,330.35L1047.9,330.12L1054.3,330.93L1060.8,331.58L1067.2,332.26L1073.6,330.95L1080,329.69" style="fill:none;stroke:#7AC36A;stroke-width:1.875;stroke-dasharray:7.5,2.5" />
<path d="M60.137,118.55L66.552,187.4L72.966,219.54L79.38,246.93L85.794,276.22L92.209,302.56L98.623,321.49L105.04,334.46L111.45,354.18L117.87,371.02L124.28,390.65L130.69,403.47L137.11,427.43L143.52,436.73L149.94,445.49L156.35,455.83L162.77,456.26L169.18,463.39L175.59,469.13L182.01,481.91L188.42,491.02L194.84,494.55L201.25,498.79L207.66,504.14L214.08,511.7L220.49,516.94L226.91,524.23L233.32,525.84L239.74,523.18L246.15,523.4L252.56,532.7L258.98,540.95L265.39,541.65L271.81,543.91L278.22,546.74L284.64,549.46L291.05,553.03L297.46,557.47L303.88,559.97L310.29,563.65L316.71,566.05L323.12,568.05L329.54,569.73L335.95,571.69L342.36,574.83L348.78,582.98L355.19,586.92L361.61,586.68L368.02,586L374.43,581.82L380.85,585.02L387.26,586.58L393.68,587.39L400.09,589.46L406.51,586.32L412.92,585.02L419.33,586.81" style="fill:none;stroke:#5A9BD4;stroke-width:1.875;stroke-dasharray:2.5,2.5" />
<path d="M60.137,56.776L66.552,143.73L72.966,193.5L79.38,215.13L85.794,248.46L92.209,274.58L98.623,301.49L105.04,319.91L111.45,336.86L117.87,350.81L124.28,364.35L130.69,371.67L137.11,381.95L143.52,396.76L149.94,404.25L156.35,411.43L162.77,418.78L169.18,420.29L175.59,426.59L182.01,431.99L188.42,439.57L194.84,455.04L201.25,460.83L207.66,465.49L214.08,471.62L220.49,475.94L226.91,479.32L233.32,482.53L239.74,485.99L246.15,489.45L252.56,489.69L258.98,493.07L265.39,501.36L271.81,509L278.22,510.34L284.64,512.02L291.05,514.23L297.46,515.74L303.88,517.01L310.29,519.8L316.71,520.97L323.12,522.09L329.54,525.37L335.95,527.15L342.36,530.02L348.78,531.75L355.19,531.95L361.61,536.13L368.02,543.92L374.43,545.01L380.85,545.25L387.26,544.65L393.68,544.01L400.09,539.85L406.51,541.43L412.92,542.24L419.33,543.23L425.75,544.99L432.16,546.51L438.58,548.51" style="fill:none;stroke:#FAA75B;stroke-width:1.875;stroke-dasharray:1.25,1.25" />
<path d="M1055,694.3L1080,694.3" style="fill:none;stroke:#F15A60;stroke-width:1.875" />
<text x="1002.5" y="-687.85" transform="scale(1, -1)"
	style="font-family:Helvetica;font-weight:normal;font-style:normal;font-size:12pt">etcd v3</text>
<path d="M1055,680L1080,680" style="fill:none;stroke:#7AC36A;stroke-width:1.875;stroke-dasharray:7.5,2.5" />
<text x="793.19" y="-673.56" transform="scale(1, -1)"
	style="font-family:Helvetica;font-weight:normal;font-style:normal;font-size:12pt">Zookeeper v3.4.8 (snapCount 100000)</text>
<path d="M1055,665.71L1080,665.71" style="fill:none;stroke:#5A9BD4;stroke-width:1.875;stroke-dasharray:2.5,2.5" />
<text x="793.19" y="-659.26" transform="scale(1, -1)"
	style="font-family:Helvetica;font-weight:normal;font-style:normal;font-size:12pt">Zookeeper v3.4.8 (snapCount 500000)</text>
<path d="M1055,651.41L1080,651.41" style="fill:none;stroke:#FAA75B;stroke-width:1.875;stroke-dasharray:1.25,1.25" />
<text x="784.85" y="-644.97" transform="scale(1, -1)"
	style="font-family:Helvetica;font-weight:normal;font-style:normal;font-size:12pt">Zookeeper v3.4.8 (snapCount 1000000)</text>
</g>
</svg>
