<?xml version="1.0"?>
<!-- Generated by SVGo and Plotinum VG -->
<svg width="12in" height="8in"
	xmlns="http://www.w3.org/2000/svg"
	xmlns:xlink="http://www.w3.org/1999/xlink">
<g transform="scale(1, -1) translate(0, -720)">
<path d="M0,0L1080,0L1080,720L0,720Z" style="fill:#FFFFFF" />
<text x="225.29" y="-706.41" transform="scale(1, -1)"
	style="font-family:Helvetica;font-weight:normal;font-style:normal;font-size:12pt">Write 1M keys, 500 clients(etcd 50 conns), key 32 bytes, value 500 bytes, Latency(millisecond)</text>
<text x="548.11" y="-4.965" transform="scale(1, -1)"
	style="font-family:Helvetica;font-weight:normal;font-style:normal;font-size:12pt">Second</text>
<text x="63.613" y="-19.142" transform="scale(1, -1)"
	style="font-family:Helvetica;font-weight:normal;font-style:normal;font-size:10pt">0</text>
<text x="380" y="-19.142" transform="scale(1, -1)"
	style="font-family:Helvetica;font-weight:normal;font-style:normal;font-size:10pt">30</text>
<text x="699.87" y="-19.142" transform="scale(1, -1)"
	style="font-family:Helvetica;font-weight:normal;font-style:normal;font-size:10pt">60</text>
<text x="1019.7" y="-19.142" transform="scale(1, -1)"
	style="font-family:Helvetica;font-weight:normal;font-style:normal;font-size:10pt">90</text>
<path d="M67.088,30.467L67.088,40.467" style="fill:none;stroke:#000000;stroke-width:0.625" />
<path d="M386.95,30.467L386.95,40.467" style="fill:none;stroke:#000000;stroke-width:0.625" />
<path d="M706.82,30.467L706.82,40.467" style="fill:none;stroke:#000000;stroke-width:0.625" />
<path d="M1026.7,30.467L1026.7,40.467" style="fill:none;stroke:#000000;stroke-width:0.625" />
<path d="M173.71,35.468L173.71,40.467" style="fill:none;stroke:#000000;stroke-width:0.625" />
<path d="M280.33,35.468L280.33,40.467" style="fill:none;stroke:#000000;stroke-width:0.625" />
<path d="M493.58,35.468L493.58,40.467" style="fill:none;stroke:#000000;stroke-width:0.625" />
<path d="M600.2,35.468L600.2,40.467" style="fill:none;stroke:#000000;stroke-width:0.625" />
<path d="M813.44,35.468L813.44,40.467" style="fill:none;stroke:#000000;stroke-width:0.625" />
<path d="M920.07,35.468L920.07,40.467" style="fill:none;stroke:#000000;stroke-width:0.625" />
<path d="M67.088,40.467L1080,40.467" style="fill:none;stroke:#000000;stroke-width:0.625" />
<g transform="rotate(90)">
<text x="305.89" y="13.59" transform="scale(1, -1)"
	style="font-family:Helvetica;font-weight:normal;font-style:normal;font-size:12pt">Latency(millisecond)</text>
</g>
<text x="39.405" y="-41.661" transform="scale(1, -1)"
	style="font-family:Helvetica;font-weight:normal;font-style:normal;font-size:10pt">0</text>
<text x="25.505" y="-236.87" transform="scale(1, -1)"
	style="font-family:Helvetica;font-weight:normal;font-style:normal;font-size:10pt">400</text>
<text x="25.505" y="-432.07" transform="scale(1, -1)"
	style="font-family:Helvetica;font-weight:normal;font-style:normal;font-size:10pt">800</text>
<text x="18.555" y="-627.28" transform="scale(1, -1)"
	style="font-family:Helvetica;font-weight:normal;font-style:normal;font-size:10pt">1200</text>
<path d="M49.83,47.03L59.83,47.03" style="fill:none;stroke:#000000;stroke-width:0.625" />
<path d="M49.83,242.23L59.83,242.23" style="fill:none;stroke:#000000;stroke-width:0.625" />
<path d="M49.83,437.44L59.83,437.44" style="fill:none;stroke:#000000;stroke-width:0.625" />
<path d="M49.83,632.64L59.83,632.64" style="fill:none;stroke:#000000;stroke-width:0.625" />
<path d="M54.83,144.63L59.83,144.63" style="fill:none;stroke:#000000;stroke-width:0.625" />
<path d="M54.83,339.84L59.83,339.84" style="fill:none;stroke:#000000;stroke-width:0.625" />
<path d="M54.83,535.04L59.83,535.04" style="fill:none;stroke:#000000;stroke-width:0.625" />
<path d="M59.83,47.03L59.83,701.44" style="fill:none;stroke:#000000;stroke-width:0.625" />
<path d="M67.088,57.124L77.75,57.586L88.412,58.058L99.074,58.5L109.74,59.472L120.4,59.447L131.06,58.971L141.72,58.442L152.39,58.988L163.05,58.938L173.71,59.287L184.37,59.261L195.03,59.963L205.7,59.542L216.36,59.524L227.02,59.283L237.68,60.333L248.35,59.738L259.01,60.036L269.67,60.604L280.33,59.845L290.99,59.344L301.66,59.377L312.32,59.991L322.98,59.895L333.64,60.118L344.31,60.091L354.97,60.225L365.63,59.535L376.29,60.12L386.95,59.876L397.62,60.417L408.28,60.051L418.94,60.866L429.6,59.91L440.27,60.335L450.93,60.542L461.59,60.628L472.25,58.941L482.91,60.587L493.58,59.718L504.24,60.559L514.9,59.372L525.56,58.895L536.23,59.348L546.89,60.27L557.55,57.848L568.21,58.615L578.87,59.577L589.54,59.86L600.2,59.985" style="fill:none;stroke:#F15A60;stroke-width:1.875" />
<path d="M67.088,53.67L77.75,59.376L88.412,55.337L99.074,53.823L109.74,55.562L120.4,158.86L131.06,57.565L141.72,54.113L152.39,56.9L163.05,56.628L173.71,54.627L184.37,59.805L195.03,53.506L205.7,60.274L216.36,57.333L227.02,55.071L237.68,53.319L248.35,54.558L259.01,53.412L269.67,52.928L280.33,59.84L290.99,53.295L301.66,53.239L312.32,68.045L322.98,56.545L333.64,53.475L344.31,53.405L354.97,54L365.63,54.409L376.29,54.575L386.95,55.185L397.62,55.94L408.28,58.272L418.94,55.954L429.6,229.17L440.27,233.33L450.93,701.44L461.59,47.03L472.25,47.03L482.91,47.03L493.58,47.03L504.24,47.03L514.9,47.03L525.56,47.03L536.23,47.03L546.89,47.03L557.55,47.03L568.21,47.03L578.87,47.03L589.54,47.03L600.2,47.03L610.86,47.03L621.52,47.03L632.19,47.03L642.85,47.03L653.51,47.03L664.17,47.03L674.83,47.03L685.5,47.03L696.16,47.03L706.82,47.03L717.48,47.03L728.15,47.03L738.81,47.03L749.47,47.03L760.13,47.03L770.8,47.03L781.46,47.03L792.12,47.03L802.78,47.03L813.44,47.03L824.11,47.03L834.77,47.03L845.43,47.03L856.09,47.03L866.76,47.03L877.42,47.03L888.08,47.03L898.74,47.03L909.4,47.03L920.07,47.03L930.73,47.03L941.39,47.03L952.05,47.03L962.72,47.03L973.38,47.03L984.04,47.03L994.7,47.03L1005.4,47.03L1016,47.03L1026.7,47.03L1037.4,47.03L1048,47.03L1058.7,47.03L1069.3,47.03L1080,122.65" style="fill:none;stroke:#7AC36A;stroke-width:1.875;stroke-dasharray:7.5,2.5" />
<path d="M1055,694.3L1080,694.3" style="fill:none;stroke:#F15A60;stroke-width:1.875" />
<text x="1002.5" y="-687.85" transform="scale(1, -1)"
	style="font-family:Helvetica;font-weight:normal;font-style:normal;font-size:12pt">etcd v3</text>
<path d="M1055,680L1080,680" style="fill:none;stroke:#7AC36A;stroke-width:1.875;stroke-dasharray:7.5,2.5" />
<text x="934.1" y="-673.56" transform="scale(1, -1)"
	style="font-family:Helvetica;font-weight:normal;font-style:normal;font-size:12pt">Zookeeper v3.4.8</text>
</g>
</svg>
