<?xml version="1.0"?>
<!-- Generated by SVGo and Plotinum VG -->
<svg width="12in" height="8in"
	xmlns="http://www.w3.org/2000/svg"
	xmlns:xlink="http://www.w3.org/1999/xlink">
<g transform="scale(1, -1) translate(0, -720)">
<path d="M0,0L1080,0L1080,720L0,720Z" style="fill:#FFFFFF" />
<text x="209.73" y="-705.6" transform="scale(1, -1)"
	style="font-family:Helvetica;font-weight:normal;font-style:normal;font-size:12pt">Write 2M keys, 1000-client, 1000-conn, 8-byte same key, 256-byte value (Zookeeper), Memory(MB)</text>
<text x="544.98" y="-4.8486" transform="scale(1, -1)"
	style="font-family:Helvetica;font-weight:normal;font-style:normal;font-size:12pt">Second</text>
<text x="57.358" y="-19.498" transform="scale(1, -1)"
	style="font-family:Helvetica;font-weight:normal;font-style:normal;font-size:10pt">0</text>
<text x="348.55" y="-19.498" transform="scale(1, -1)"
	style="font-family:Helvetica;font-weight:normal;font-style:normal;font-size:10pt">8</text>
<text x="636.26" y="-19.498" transform="scale(1, -1)"
	style="font-family:Helvetica;font-weight:normal;font-style:normal;font-size:10pt">16</text>
<text x="927.45" y="-19.498" transform="scale(1, -1)"
	style="font-family:Helvetica;font-weight:normal;font-style:normal;font-size:10pt">24</text>
<path d="M60.834,31.498L60.834,41.498" style="fill:none;stroke:#000000;stroke-width:0.625" />
<path d="M352.02,31.498L352.02,41.498" style="fill:none;stroke:#000000;stroke-width:0.625" />
<path d="M643.21,31.498L643.21,41.498" style="fill:none;stroke:#000000;stroke-width:0.625" />
<path d="M934.4,31.498L934.4,41.498" style="fill:none;stroke:#000000;stroke-width:0.625" />
<path d="M206.43,36.498L206.43,41.498" style="fill:none;stroke:#000000;stroke-width:0.625" />
<path d="M497.62,36.498L497.62,41.498" style="fill:none;stroke:#000000;stroke-width:0.625" />
<path d="M788.81,36.498L788.81,41.498" style="fill:none;stroke:#000000;stroke-width:0.625" />
<path d="M1080,36.498L1080,41.498" style="fill:none;stroke:#000000;stroke-width:0.625" />
<path d="M60.834,41.498L1080,41.498" style="fill:none;stroke:#000000;stroke-width:0.625" />
<g transform="rotate(90)">
<text x="331.08" y="14.399" transform="scale(1, -1)"
	style="font-family:Helvetica;font-weight:normal;font-style:normal;font-size:12pt">Memory(MB)</text>
</g>
<text x="19.248" y="-108.45" transform="scale(1, -1)"
	style="font-family:Helvetica;font-weight:normal;font-style:normal;font-size:10pt">200</text>
<text x="19.248" y="-218.78" transform="scale(1, -1)"
	style="font-family:Helvetica;font-weight:normal;font-style:normal;font-size:10pt">300</text>
<text x="19.248" y="-329.11" transform="scale(1, -1)"
	style="font-family:Helvetica;font-weight:normal;font-style:normal;font-size:10pt">400</text>
<text x="19.248" y="-439.43" transform="scale(1, -1)"
	style="font-family:Helvetica;font-weight:normal;font-style:normal;font-size:10pt">500</text>
<text x="19.248" y="-549.76" transform="scale(1, -1)"
	style="font-family:Helvetica;font-weight:normal;font-style:normal;font-size:10pt">600</text>
<text x="19.248" y="-660.09" transform="scale(1, -1)"
	style="font-family:Helvetica;font-weight:normal;font-style:normal;font-size:10pt">700</text>
<path d="M43.577,114.32L53.577,114.32" style="fill:none;stroke:#000000;stroke-width:0.625" />
<path d="M43.577,224.65L53.577,224.65" style="fill:none;stroke:#000000;stroke-width:0.625" />
<path d="M43.577,334.98L53.577,334.98" style="fill:none;stroke:#000000;stroke-width:0.625" />
<path d="M43.577,445.31L53.577,445.31" style="fill:none;stroke:#000000;stroke-width:0.625" />
<path d="M43.577,555.64L53.577,555.64" style="fill:none;stroke:#000000;stroke-width:0.625" />
<path d="M43.577,665.97L53.577,665.97" style="fill:none;stroke:#000000;stroke-width:0.625" />
<path d="M48.577,59.159L53.577,59.159" style="fill:none;stroke:#000000;stroke-width:0.625" />
<path d="M48.577,169.49L53.577,169.49" style="fill:none;stroke:#000000;stroke-width:0.625" />
<path d="M48.577,279.82L53.577,279.82" style="fill:none;stroke:#000000;stroke-width:0.625" />
<path d="M48.577,390.14L53.577,390.14" style="fill:none;stroke:#000000;stroke-width:0.625" />
<path d="M48.577,500.47L53.577,500.47" style="fill:none;stroke:#000000;stroke-width:0.625" />
<path d="M48.577,610.8L53.577,610.8" style="fill:none;stroke:#000000;stroke-width:0.625" />
<path d="M53.577,48.06L53.577,700.75" style="fill:none;stroke:#000000;stroke-width:0.625" />
<path d="M60.834,48.06L97.233,163.34L133.63,305.26L170.03,528.79L206.43,687.78L242.83,695.41L279.23,697.7L315.63,700.75L352.02,699.73L388.42,690.08L424.82,685.11L461.22,683.97L497.62,682.46L534.02,680.77L570.42,678.88L606.82,677.93L643.21,676.61L679.61,675.09L716.01,672.84L752.41,672.83L788.81,671.69L825.21,670.79L861.61,670.61L898.01,672.34L934.4,672.57L970.8,672.2L1007.2,672.19L1043.6,672.56L1080,673.16" style="fill:none;stroke:#F15A60;stroke-width:1.875" />
<path d="M1055,693.4L1080,693.4" style="fill:none;stroke:#F15A60;stroke-width:1.875" />
<text x="934.09" y="-686.35" transform="scale(1, -1)"
	style="font-family:Helvetica;font-weight:normal;font-style:normal;font-size:12pt">Zookeeper v3.4.8</text>
</g>
</svg>
