<?xml version="1.0"?>
<!-- Generated by SVGo and Plotinum VG -->
<svg width="12in" height="8in"
	xmlns="http://www.w3.org/2000/svg"
	xmlns:xlink="http://www.w3.org/1999/xlink">
<g transform="scale(1, -1) translate(0, -720)">
<path d="M0,0L1080,0L1080,720L0,720Z" style="fill:#FFFFFF" />
<text x="214.83" y="-705.6" transform="scale(1, -1)"
	style="font-family:Helvetica;font-weight:normal;font-style:normal;font-size:12pt">Write 2M keys, 1000-client, 1000-conn, 8-byte same key, 256-byte value (Zookeeper), Throughput</text>
<text x="552.11" y="-4.8486" transform="scale(1, -1)"
	style="font-family:Helvetica;font-weight:normal;font-style:normal;font-size:12pt">Second</text>
<text x="71.609" y="-19.498" transform="scale(1, -1)"
	style="font-family:Helvetica;font-weight:normal;font-style:normal;font-size:10pt">0</text>
<text x="348.83" y="-19.498" transform="scale(1, -1)"
	style="font-family:Helvetica;font-weight:normal;font-style:normal;font-size:10pt">8</text>
<text x="622.57" y="-19.498" transform="scale(1, -1)"
	style="font-family:Helvetica;font-weight:normal;font-style:normal;font-size:10pt">16</text>
<text x="899.79" y="-19.498" transform="scale(1, -1)"
	style="font-family:Helvetica;font-weight:normal;font-style:normal;font-size:10pt">24</text>
<path d="M75.085,31.498L75.085,41.498" style="fill:none;stroke:#000000;stroke-width:0.625" />
<path d="M352.3,31.498L352.3,41.498" style="fill:none;stroke:#000000;stroke-width:0.625" />
<path d="M629.52,31.498L629.52,41.498" style="fill:none;stroke:#000000;stroke-width:0.625" />
<path d="M906.74,31.498L906.74,41.498" style="fill:none;stroke:#000000;stroke-width:0.625" />
<path d="M213.69,36.498L213.69,41.498" style="fill:none;stroke:#000000;stroke-width:0.625" />
<path d="M490.91,36.498L490.91,41.498" style="fill:none;stroke:#000000;stroke-width:0.625" />
<path d="M768.13,36.498L768.13,41.498" style="fill:none;stroke:#000000;stroke-width:0.625" />
<path d="M1045.3,36.498L1045.3,41.498" style="fill:none;stroke:#000000;stroke-width:0.625" />
<path d="M75.085,41.498L1080,41.498" style="fill:none;stroke:#000000;stroke-width:0.625" />
<g transform="rotate(90)">
<text x="336.05" y="14.399" transform="scale(1, -1)"
	style="font-family:Helvetica;font-weight:normal;font-style:normal;font-size:12pt">Throughput</text>
</g>
<text x="19.248" y="-139.92" transform="scale(1, -1)"
	style="font-family:Helvetica;font-weight:normal;font-style:normal;font-size:10pt">2e+04</text>
<text x="19.248" y="-351.07" transform="scale(1, -1)"
	style="font-family:Helvetica;font-weight:normal;font-style:normal;font-size:10pt">4e+04</text>
<text x="19.248" y="-562.21" transform="scale(1, -1)"
	style="font-family:Helvetica;font-weight:normal;font-style:normal;font-size:10pt">6e+04</text>
<path d="M57.828,145.8L67.828,145.8" style="fill:none;stroke:#000000;stroke-width:0.625" />
<path d="M57.828,356.94L67.828,356.94" style="fill:none;stroke:#000000;stroke-width:0.625" />
<path d="M57.828,568.09L67.828,568.09" style="fill:none;stroke:#000000;stroke-width:0.625" />
<path d="M62.828,251.37L67.828,251.37" style="fill:none;stroke:#000000;stroke-width:0.625" />
<path d="M62.828,462.52L67.828,462.52" style="fill:none;stroke:#000000;stroke-width:0.625" />
<path d="M62.828,673.66L67.828,673.66" style="fill:none;stroke:#000000;stroke-width:0.625" />
<path d="M67.828,48.06L67.828,700.75" style="fill:none;stroke:#000000;stroke-width:0.625" />
<path d="M75.085,48.06L109.74,370.87L144.39,494.37L179.04,627.71L213.69,655.76L248.35,669.39L283,684.16L317.65,690.7L352.3,700.75L386.96,651.34L421.61,687.61L456.26,637.96L490.91,655.92L525.56,659.23L560.22,642.38L594.87,672.41L629.52,667.68L664.17,674.34L698.83,666.78L733.48,684.02L768.13,674.39L802.78,670.94L837.43,689.78L872.09,665.62L906.74,657.94L941.39,650.39L976.04,657.31L1010.7,661.84L1045.3,664.4L1080,647.97" style="fill:none;stroke:#F15A60;stroke-width:1.875" />
<path d="M1055,693.4L1080,693.4" style="fill:none;stroke:#F15A60;stroke-width:1.875" />
<text x="934.09" y="-686.35" transform="scale(1, -1)"
	style="font-family:Helvetica;font-weight:normal;font-style:normal;font-size:12pt">Zookeeper v3.4.8</text>
</g>
</svg>
