<?xml version="1.0"?>
<!-- Generated by SVGo and Plotinum VG -->
<svg width="12in" height="8in"
	xmlns="http://www.w3.org/2000/svg"
	xmlns:xlink="http://www.w3.org/1999/xlink">
<g transform="scale(1, -1) translate(0, -720)">
<path d="M0,0L1080,0L1080,720L0,720Z" style="fill:#FFFFFF" />
<text x="276.97" y="-706.41" transform="scale(1, -1)"
	style="font-family:Helvetica;font-weight:normal;font-style:normal;font-size:12pt">Write 1M keys, 1K clients(100 etcd conns), key 64 bytes, value 256 bytes, CPU</text>
<text x="544.64" y="-4.965" transform="scale(1, -1)"
	style="font-family:Helvetica;font-weight:normal;font-style:normal;font-size:12pt">Second</text>
<text x="56.662" y="-19.142" transform="scale(1, -1)"
	style="font-family:Helvetica;font-weight:normal;font-style:normal;font-size:10pt">0</text>
<text x="366.03" y="-19.142" transform="scale(1, -1)"
	style="font-family:Helvetica;font-weight:normal;font-style:normal;font-size:10pt">50</text>
<text x="675.4" y="-19.142" transform="scale(1, -1)"
	style="font-family:Helvetica;font-weight:normal;font-style:normal;font-size:10pt">100</text>
<text x="988.24" y="-19.142" transform="scale(1, -1)"
	style="font-family:Helvetica;font-weight:normal;font-style:normal;font-size:10pt">150</text>
<path d="M60.137,30.467L60.137,40.467" style="fill:none;stroke:#000000;stroke-width:0.625" />
<path d="M372.98,30.467L372.98,40.467" style="fill:none;stroke:#000000;stroke-width:0.625" />
<path d="M685.82,30.467L685.82,40.467" style="fill:none;stroke:#000000;stroke-width:0.625" />
<path d="M998.66,30.467L998.66,40.467" style="fill:none;stroke:#000000;stroke-width:0.625" />
<path d="M122.71,35.468L122.71,40.467" style="fill:none;stroke:#000000;stroke-width:0.625" />
<path d="M185.27,35.468L185.27,40.467" style="fill:none;stroke:#000000;stroke-width:0.625" />
<path d="M247.84,35.468L247.84,40.467" style="fill:none;stroke:#000000;stroke-width:0.625" />
<path d="M310.41,35.468L310.41,40.467" style="fill:none;stroke:#000000;stroke-width:0.625" />
<path d="M435.55,35.468L435.55,40.467" style="fill:none;stroke:#000000;stroke-width:0.625" />
<path d="M498.12,35.468L498.12,40.467" style="fill:none;stroke:#000000;stroke-width:0.625" />
<path d="M560.68,35.468L560.68,40.467" style="fill:none;stroke:#000000;stroke-width:0.625" />
<path d="M623.25,35.468L623.25,40.467" style="fill:none;stroke:#000000;stroke-width:0.625" />
<path d="M748.39,35.468L748.39,40.467" style="fill:none;stroke:#000000;stroke-width:0.625" />
<path d="M810.96,35.468L810.96,40.467" style="fill:none;stroke:#000000;stroke-width:0.625" />
<path d="M873.52,35.468L873.52,40.467" style="fill:none;stroke:#000000;stroke-width:0.625" />
<path d="M936.09,35.468L936.09,40.467" style="fill:none;stroke:#000000;stroke-width:0.625" />
<path d="M1061.2,35.468L1061.2,40.467" style="fill:none;stroke:#000000;stroke-width:0.625" />
<path d="M60.137,40.467L1080,40.467" style="fill:none;stroke:#000000;stroke-width:0.625" />
<g transform="rotate(90)">
<text x="358.4" y="13.59" transform="scale(1, -1)"
	style="font-family:Helvetica;font-weight:normal;font-style:normal;font-size:12pt">CPU</text>
</g>
<text x="18.555" y="-209.1" transform="scale(1, -1)"
	style="font-family:Helvetica;font-weight:normal;font-style:normal;font-size:10pt">100</text>
<text x="18.555" y="-381.32" transform="scale(1, -1)"
	style="font-family:Helvetica;font-weight:normal;font-style:normal;font-size:10pt">200</text>
<text x="18.555" y="-553.54" transform="scale(1, -1)"
	style="font-family:Helvetica;font-weight:normal;font-style:normal;font-size:10pt">300</text>
<path d="M42.88,214.47L52.88,214.47" style="fill:none;stroke:#000000;stroke-width:0.625" />
<path d="M42.88,386.69L52.88,386.69" style="fill:none;stroke:#000000;stroke-width:0.625" />
<path d="M42.88,558.91L52.88,558.91" style="fill:none;stroke:#000000;stroke-width:0.625" />
<path d="M47.88,128.35L52.88,128.35" style="fill:none;stroke:#000000;stroke-width:0.625" />
<path d="M47.88,300.58L52.88,300.58" style="fill:none;stroke:#000000;stroke-width:0.625" />
<path d="M47.88,472.8L52.88,472.8" style="fill:none;stroke:#000000;stroke-width:0.625" />
<path d="M47.88,645.02L52.88,645.02" style="fill:none;stroke:#000000;stroke-width:0.625" />
<path d="M52.88,47.03L52.88,701.44" style="fill:none;stroke:#000000;stroke-width:0.625" />
<path d="M60.137,47.03L66.394,130.16L72.651,199.33L78.908,257.92L85.165,307.74L91.422,349.45L97.678,383.12L103.94,407.63L110.19,421.13L116.45,433.14L122.71,436.43L128.96,453.32L135.22,469.44L141.48,482.22L147.73,496.41L153.99,509.21L160.25,519.22L166.5,530.27L172.76,540.31L179.02,549.15L185.27,557.93L191.53,566.03L197.79,574.12L204.04,581.7L210.3,587.98L216.56,593.48L222.81,599.61L229.07,604.19L235.33,608.07L241.59,612.9L247.84,617.23L254.1,620.9L260.36,624.51L266.61,627.94L272.87,630.59L279.13,633.28L285.38,635.66L291.64,638.07L297.9,639.79L304.15,642.15L310.41,644.37L316.67,646.99L322.92,647.83L329.18,649.73L335.44,652.05L341.69,653.33L347.95,656.98L354.21,658.77L360.47,661.23L366.72,662.16L372.98,663.62L379.24,665.42L385.49,666.66L391.75,668.57L398.01,670.34L404.26,672.41L410.52,674.85L416.78,675.32L423.03,677.14L429.29,679.28L435.55,679.76L441.8,681.78L448.06,684.29L454.32,685.91L460.57,687.82L466.83,689.61L473.09,690.94L479.34,692.7L485.6,693.33L491.86,694.66L498.12,696.16L504.37,698.09L510.63,698.47L516.89,699.62L523.14,700.88L529.4,701.44" style="fill:none;stroke:#F15A60;stroke-width:1.875" />
<path d="M60.137,56.916L66.394,147.06L72.651,213.47L78.908,236.51L85.165,272.63L91.422,299.99L97.678,337.98L103.94,365.21L110.19,390.44L116.45,410.04L122.71,428.52L128.96,450.74L135.22,469.46L141.48,481.5L147.73,490.23L153.99,506.64L160.25,511.65L166.5,518.73L172.76,528.34L179.02,534.61L185.27,539.09L191.53,537.9L197.79,543.55L204.04,549.18L210.3,556.76L216.56,565.46L222.81,566.4L229.07,567.59L235.33,571.81L241.59,575.84L247.84,581.75L254.1,585.38L260.36,587.67L266.61,587.12L272.87,584.73L279.13,586.97L285.38,586.66L291.64,595.67L297.9,599.94L304.15,596.49L310.41,587.86L316.67,578.74L322.92,569.26L329.18,558.76L335.44,548.75L341.69,538.76L347.95,529.69L354.21,522.85L360.47,518.08L366.72,512.1L372.98,504.37L379.24,495.98L385.49,488.03L391.75,481.03L398.01,473.78L404.26,467.82L410.52,462.12L416.78,455.56L423.03,448.52L429.29,443.21L435.55,438.37L441.8,432.69L448.06,427.35L454.32,421.89L460.57,417.57L466.83,413.07L473.09,408.35L479.34,404.76L485.6,400.4L491.86,396.16L498.12,392.08L504.37,387.74L510.63,384.4L516.89,381.49L523.14,379.2L529.4,376.48L535.66,373.57L541.91,370.9L548.17,367.95L554.43,365.02L560.68,362.85L566.94,363.73L573.2,365.94L579.45,371.29L585.71,375.72L591.97,378.2L598.22,380.7L604.48,383.78L610.74,385.88L616.99,391.43L623.25,394.73L629.51,396.61L635.77,399.61L642.02,398.31L648.28,396.04L654.54,394.28L660.79,393.47L667.05,392.68L673.31,394.2L679.56,396.08L685.82,398.06L692.08,399.21L698.33,400.97L704.59,402.65L710.85,403.34L717.1,405.98L723.36,410.96L729.62,410.3L735.87,410.58L742.13,412.47L748.39,413.99L754.65,415.3L760.9,416.62L767.16,417.91L773.42,418.71L779.67,420L785.93,420.7L792.19,419.26L798.44,416.4L804.7,413.26L810.96,410.59L817.21,408.15L823.47,405.39L829.73,402.71L835.98,399.88L842.24,397.25L848.5,394.7L854.75,392.1L861.01,390.13L867.27,387.65L873.52,385.17L879.78,382.62L886.04,380.44L892.3,378.42L898.55,376.17L904.81,374.05L911.07,371.84L917.32,369.52L923.58,367.88L929.84,366.47L936.09,364.92L942.35,362.75L948.61,361.2L954.86,360.08L961.12,358.36L967.38,356.31L973.63,354.74L979.89,353.16L986.15,351.33L992.4,349.52L998.66,347.61L1004.9,345.79L1011.2,343.7L1017.4,341.83L1023.7,340.36L1029.9,338.74L1036.2,337.05L1042.5,335.37L1048.7,333.64L1055,332.09L1061.2,330.53L1067.5,329.03L1073.7,328.1L1080,327.03" style="fill:none;stroke:#7AC36A;stroke-width:1.875;stroke-dasharray:7.5,2.5" />
<path d="M1055,694.3L1080,694.3" style="fill:none;stroke:#F15A60;stroke-width:1.875" />
<text x="1002.5" y="-687.85" transform="scale(1, -1)"
	style="font-family:Helvetica;font-weight:normal;font-style:normal;font-size:12pt">etcd v3</text>
<path d="M1055,680L1080,680" style="fill:none;stroke:#7AC36A;stroke-width:1.875;stroke-dasharray:7.5,2.5" />
<text x="934.1" y="-673.56" transform="scale(1, -1)"
	style="font-family:Helvetica;font-weight:normal;font-style:normal;font-size:12pt">Zookeeper v3.4.8</text>
</g>
</svg>
