<?xml version="1.0"?>
<!-- Generated by SVGo and Plotinum VG -->
<svg width="12in" height="8in"
	xmlns="http://www.w3.org/2000/svg"
	xmlns:xlink="http://www.w3.org/1999/xlink">
<g transform="scale(1, -1) translate(0, -720)">
<path d="M0,0L1080,0L1080,720L0,720Z" style="fill:#FFFFFF" />
<text x="307" y="-706.41" transform="scale(1, -1)"
	style="font-family:Helvetica;font-weight:normal;font-style:normal;font-size:12pt">Write 500K keys, 1 client, key 32 bytes, value 500 bytes, Memory(MB)</text>
<text x="544.64" y="-4.965" transform="scale(1, -1)"
	style="font-family:Helvetica;font-weight:normal;font-style:normal;font-size:12pt">Second</text>
<text x="56.662" y="-19.142" transform="scale(1, -1)"
	style="font-family:Helvetica;font-weight:normal;font-style:normal;font-size:10pt">0</text>
<text x="326.35" y="-19.142" transform="scale(1, -1)"
	style="font-family:Helvetica;font-weight:normal;font-style:normal;font-size:10pt">300</text>
<text x="602.98" y="-19.142" transform="scale(1, -1)"
	style="font-family:Helvetica;font-weight:normal;font-style:normal;font-size:10pt">600</text>
<text x="879.62" y="-19.142" transform="scale(1, -1)"
	style="font-family:Helvetica;font-weight:normal;font-style:normal;font-size:10pt">900</text>
<path d="M60.137,30.467L60.137,40.467" style="fill:none;stroke:#000000;stroke-width:0.625" />
<path d="M336.77,30.467L336.77,40.467" style="fill:none;stroke:#000000;stroke-width:0.625" />
<path d="M613.41,30.467L613.41,40.467" style="fill:none;stroke:#000000;stroke-width:0.625" />
<path d="M890.04,30.467L890.04,40.467" style="fill:none;stroke:#000000;stroke-width:0.625" />
<path d="M152.35,35.468L152.35,40.467" style="fill:none;stroke:#000000;stroke-width:0.625" />
<path d="M244.56,35.468L244.56,40.467" style="fill:none;stroke:#000000;stroke-width:0.625" />
<path d="M428.98,35.468L428.98,40.467" style="fill:none;stroke:#000000;stroke-width:0.625" />
<path d="M521.2,35.468L521.2,40.467" style="fill:none;stroke:#000000;stroke-width:0.625" />
<path d="M705.62,35.468L705.62,40.467" style="fill:none;stroke:#000000;stroke-width:0.625" />
<path d="M797.83,35.468L797.83,40.467" style="fill:none;stroke:#000000;stroke-width:0.625" />
<path d="M982.26,35.468L982.26,40.467" style="fill:none;stroke:#000000;stroke-width:0.625" />
<path d="M1074.5,35.468L1074.5,40.467" style="fill:none;stroke:#000000;stroke-width:0.625" />
<path d="M60.137,40.467L1080,40.467" style="fill:none;stroke:#000000;stroke-width:0.625" />
<g transform="rotate(90)">
<text x="330.91" y="13.59" transform="scale(1, -1)"
	style="font-family:Helvetica;font-weight:normal;font-style:normal;font-size:12pt">Memory(MB)</text>
</g>
<text x="18.555" y="-233.96" transform="scale(1, -1)"
	style="font-family:Helvetica;font-weight:normal;font-style:normal;font-size:10pt">200</text>
<text x="18.555" y="-450.2" transform="scale(1, -1)"
	style="font-family:Helvetica;font-weight:normal;font-style:normal;font-size:10pt">400</text>
<text x="18.555" y="-666.44" transform="scale(1, -1)"
	style="font-family:Helvetica;font-weight:normal;font-style:normal;font-size:10pt">600</text>
<path d="M42.88,239.33L52.88,239.33" style="fill:none;stroke:#000000;stroke-width:0.625" />
<path d="M42.88,455.57L52.88,455.57" style="fill:none;stroke:#000000;stroke-width:0.625" />
<path d="M42.88,671.81L52.88,671.81" style="fill:none;stroke:#000000;stroke-width:0.625" />
<path d="M47.88,131.21L52.88,131.21" style="fill:none;stroke:#000000;stroke-width:0.625" />
<path d="M47.88,347.45L52.88,347.45" style="fill:none;stroke:#000000;stroke-width:0.625" />
<path d="M47.88,563.69L52.88,563.69" style="fill:none;stroke:#000000;stroke-width:0.625" />
<path d="M52.88,47.03L52.88,701.44" style="fill:none;stroke:#000000;stroke-width:0.625" />
<path d="M60.137,47.03L61.06,54.317L61.982,61.107L62.904,64.383L63.826,65.486L64.748,67.508L65.67,68.189L66.592,69.865L67.514,72.881L68.437,73.963L69.359,74.849L70.281,75.822L71.203,78.774L72.125,80.244L73.047,81.801L73.969,83.488L74.891,84.256L75.814,85.65L76.736,86.602L77.658,88.224L78.58,90.591L79.502,91.662L80.424,92.105L81.346,92.105L82.268,94.43L83.19,94.505L84.113,94.732L85.035,95.078L85.957,95.824L86.879,96.408L87.801,97.1L88.723,97.338L89.645,98.819L90.567,99.846L91.49,101.53L92.412,103.25L93.334,104.15L94.256,105.22L95.178,106.24L96.1,107.8L97.022,109.92L97.944,110.14L98.866,111.29L99.789,111.51L100.71,111.7L101.63,111.89L102.55,112.1L103.48,112.1L104.4,112.1L105.32,112.3L106.24,112.56L107.17,112.71L108.09,112.71L109.01,113.06L109.93,113.08L110.85,113.08L111.78,113.77L112.7,113.96L113.62,115.2L114.54,115.31L115.46,115.31L116.39,115.68L117.31,117.07L118.23,118.83L119.15,119.88L120.08,120.62L121,121.94L121.92,122.3L122.84,122.59L123.76,123.03L124.69,123.31L125.61,123.31L126.53,123.31L127.45,123.5L128.37,123.73L129.3,124.07L130.22,124.07L131.14,124.35L132.06,124.35L132.98,125.17L133.91,125.58L134.83,125.58L135.75,125.85L136.67,126.45L137.6,127.15L138.52,130.34L139.44,131.13L140.36,131.33L141.28,131.76L142.21,131.76L143.13,131.9L144.05,131.9L144.97,132.16L145.89,132.44L146.82,132.44L147.74,132.63L148.66,133.4L149.58,134.01L150.51,134.26L151.43,136.08L152.35,136.44L153.27,136.82L154.19,137.37L155.12,137.72L156.04,138.78L156.96,140.74L157.88,142.08L158.8,143.09L159.73,143.56L160.65,143.56L161.57,143.56L162.49,143.86L163.41,143.86L164.34,144.51L165.26,144.51L166.18,144.51L167.1,144.79L168.03,145.31L168.95,145.31L169.87,146.37L170.79,146.37L171.71,146.37L172.64,146.37L173.56,147.52L174.48,147.62L175.4,147.86L176.32,149.46L177.25,149.46L178.17,151.06L179.09,153.5L180.01,154L180.93,154.67L181.86,155.28L182.78,155.6L183.7,156.57L184.62,156.57L185.55,156.57L186.47,156.57L187.39,156.74L188.31,156.9L189.23,157.13L190.16,157.43L191.08,158.06L192,158.83L192.92,158.83L193.84,158.94L194.77,158.94L195.69,160.51L196.61,162.79L197.53,163.54L198.46,165.04L199.38,165.46L200.3,165.91L201.22,165.91L202.14,166.66L203.07,166.74L203.99,167.18L204.91,167.18L205.83,167.84L206.75,167.84L207.68,167.84L208.6,167.84L209.52,168.12L210.44,169.92L211.36,169.92L212.29,169.92L213.21,170.39L214.13,170.64L215.05,170.64L215.98,171.69L216.9,173.03L217.82,174.64L218.74,174.64L219.66,175.22L220.59,175.62L221.51,175.62L222.43,176.28L223.35,176.41L224.27,177.23L225.2,177.93L226.12,177.93L227.04,177.93L227.96,178.23L228.89,178.57L229.81,178.97L230.73,179.41L231.65,179.63L232.57,180.15L233.5,181L234.42,181L235.34,181.44L236.26,182.77L237.18,183.91L238.11,184.34L239.03,186.95L239.95,187.48L240.87,187.95L241.79,188.12L242.72,188.4L243.64,189.3L244.56,189.52L245.48,189.81L246.41,190.04L247.33,190.04L248.25,190.04L249.17,190.04L250.09,190.45L251.02,191.62L251.94,193.28L252.86,193.28L253.78,194.1L254.7,194.27L255.63,195.27L256.55,195.9L257.47,196.66L258.39,198.34L259.31,198.84L260.24,199.05L261.16,199.19L262.08,199.6L263,199.6L263.93,199.6L264.85,201L265.77,201L266.69,201.61L267.61,201.61L268.54,202.46L269.46,203.84L270.38,203.84L271.3,204.45L272.22,204.45L273.15,205.15L274.07,205.48L274.99,205.76L275.91,205.76L276.84,207.58L277.76,208.08L278.68,208.93L279.6,210.24L280.52,211.1L281.45,211.1L282.37,212L283.29,213.08L284.21,213.21L285.13,213.21L286.06,213.38L286.98,213.82L287.9,214.7L288.82,215.06L289.74,215.22L290.67,215.22L291.59,215.39L292.51,215.64L293.43,215.64L294.36,215.92L295.28,216.2L296.2,216.51L297.12,216.86L298.04,218.81L298.97,221.05L299.89,221.53L300.81,222.06L301.73,222.27L302.65,222.27L303.58,222.55L304.5,222.55L305.42,222.74L306.34,223.09L307.27,224.3L308.19,224.3L309.11,224.3L310.03,224.83L310.95,225.97L311.88,225.97L312.8,226.26L313.72,226.78L314.64,227.11L315.56,229.24L316.49,229.54L317.41,229.54L318.33,232.36L319.25,233L320.17,234.39L321.1,234.39L322.02,234.47L322.94,234.47L323.86,234.86L324.79,234.86L325.71,235.7L326.63,235.96L327.55,236.23L328.47,236.43L329.4,236.61L330.32,236.99L331.24,237.88L332.16,238.37L333.08,238.37L334.01,238.37L334.93,238.73L335.85,238.91L336.77,239.46L337.7,239.77L338.62,241.87L339.54,242.68L340.46,244.2L341.38,244.2L342.31,244.5L343.23,245.32L344.15,245.5L345.07,246.26L345.99,246.47L346.92,246.73L347.84,246.73L348.76,246.73L349.68,247.28L350.6,247.28L351.53,248.4L352.45,248.84L353.37,248.84L354.29,248.84L355.22,249.33L356.14,249.67L357.06,251.22L357.98,253.12L358.9,253.67L359.83,254.75L360.75,255.61L361.67,256.59L362.59,256.73L363.51,256.73L364.44,256.87L365.36,257.04L366.28,257.21L367.2,257.21L368.12,257.79L369.05,258.57L369.97,259.54L370.89,260.36L371.81,260.36L372.74,260.36L373.66,260.36L374.58,261.28L375.5,263.95L376.42,264.32L377.35,264.86L378.27,264.86L379.19,265.64L380.11,266.47L381.03,266.99L381.96,266.99L382.88,267.42L383.8,267.42L384.72,267.67L385.65,268L386.57,268.62L387.49,268.62L388.41,268.86L389.33,269.11L390.26,269.11L391.18,269.33L392.1,271.01L393.02,271.67L393.94,271.67L394.87,271.98L395.79,271.98L396.71,274.75L397.63,275.9L398.55,276.25L399.48,276.52L400.4,277.31L401.32,278.41L402.24,278.61L403.17,278.98L404.09,279.5L405.01,279.5L405.93,280.37L406.85,280.54L407.78,280.54L408.7,280.54L409.62,280.69L410.54,282.01L411.46,282.54L412.39,283.4L413.31,283.55L414.23,283.89L415.15,285.38L416.08,285.65L417,288.3L417.92,288.98L418.84,290.04L419.76,290.04L420.69,291.14L421.61,291.14L422.53,291.42L423.45,291.42L424.37,291.64L425.3,291.64L426.22,291.85L427.14,291.85L428.06,292.03L428.98,292.03L429.91,292.37L430.83,292.37L431.75,292.68L432.67,292.93L433.6,293.12L434.52,293.12L435.44,295.1L436.36,295.37L437.28,295.93L438.21,298.56L439.13,300.31L440.05,300.51L440.97,300.72L441.89,301.13L442.82,301.13L443.74,301.37L444.66,301.37L445.58,301.37L446.5,301.42L447.43,301.94L448.35,302.45L449.27,302.82L450.19,302.82L451.12,304.28L452.04,304.93L452.96,305.17L453.88,305.42L454.8,305.68L455.73,306.45L456.65,309.55L457.57,309.55L458.49,310L459.41,310.53L460.34,310.95L461.26,310.95L462.18,312.98L463.1,313.45L464.03,313.7L464.95,313.88L465.87,314.36L466.79,314.54L467.71,315.03L468.64,315.39L469.56,315.97L470.48,316.71L471.4,316.71L472.32,317.63L473.25,318.93L474.17,318.93L475.09,318.93L476.01,318.93L476.93,319.06L477.86,320.44L478.78,323.61L479.7,323.91L480.62,324.17L481.55,324.5L482.47,324.5L483.39,324.5L484.31,325.02L485.23,325.02L486.16,325.02L487.08,325.32L488,325.68L488.92,325.68L489.84,326.34L490.77,326.62L491.69,326.88L492.61,326.88L493.53,327.19L494.46,327.94L495.38,328.19L496.3,329.3L497.22,330.97L498.14,332.37L499.07,333.04L499.99,333.04L500.91,333.31L501.83,334L502.75,334.27L503.68,334.41L504.6,334.41L505.52,334.55L506.44,335.48L507.36,335.48L508.29,335.93L509.21,335.93L510.13,336.56L511.05,336.79L511.98,336.79L512.9,336.79L513.82,337.32L514.74,337.62L515.66,340.19L516.59,341.99L517.51,341.99L518.43,342.21L519.35,342.33L520.27,344.02L521.2,344.56L522.12,344.67L523.04,344.67L523.96,344.67L524.88,344.67L525.81,344.85L526.73,344.85L527.65,345.1L528.57,345.52L529.5,346.12L530.42,347.13L531.34,347.7L532.26,348.71L533.18,349.81L534.11,352.44L535.03,352.44L535.95,352.69L536.87,353.09L537.79,353.99L538.72,354.79L539.64,357L540.56,360.41L541.48,361.02L542.41,361.34L543.33,361.57L544.25,361.57L545.17,361.81L546.09,361.81L547.02,362.41L547.94,362.41L548.86,362.65L549.78,362.78L550.7,362.93L551.63,363.25L552.55,363.25L553.47,364.17L554.39,365.13L555.31,366L556.24,366L557.16,366L558.08,366.76L559,367.1L559.93,368.43L560.85,368.53L561.77,369.46L562.69,371.33L563.61,371.42L564.54,371.98L565.46,371.98L566.38,372.2L567.3,372.2L568.22,372.76L569.15,373.33L570.07,373.8L570.99,373.8L571.91,373.8L572.84,373.8L573.76,374.13L574.68,374.89L575.6,375.67L576.52,376.16L577.45,376.7L578.37,376.7L579.29,378.76L580.21,378.95L581.13,378.95L582.06,379.12L582.98,379.5L583.9,379.83L584.82,379.83L585.74,380.22L586.67,380.84L587.59,381.6L588.51,382.41L589.43,382.45L590.36,383.17L591.28,383.17L592.2,383.17L593.12,383.64L594.04,386.02L594.97,388.31L595.89,388.54L596.81,388.54L597.73,389.26L598.65,389.26L599.58,389.54L600.5,389.81L601.42,389.99L602.34,389.99L603.26,390.62L604.19,390.88L605.11,390.88L606.03,390.88L606.95,391.09L607.88,391.09L608.8,391.65L609.72,393.11L610.64,393.48L611.56,393.79L612.49,394.31L613.41,394.52L614.33,394.52L615.25,394.52L616.17,395.11L617.1,395.11L618.02,397.79L618.94,400L619.86,400.09L620.79,400.09L621.71,400.97L622.63,401.41L623.55,401.52L624.47,401.79L625.4,402.4L626.32,402.78L627.24,402.78L628.16,402.78L629.08,403.21L630.01,403.21L630.93,404.67L631.85,405.22L632.77,406.21L633.69,406.96L634.62,407.21L635.54,408.07L636.46,408.07L637.38,408.07L638.31,408.19L639.23,411.2L640.15,414.12L641.07,414.34L641.99,414.34L642.92,414.45L643.84,414.64L644.76,415.21L645.68,415.93L646.6,416.29L647.53,417.11L648.45,417.25L649.37,417.25L650.29,417.72L651.22,417.98L652.14,417.98L653.06,418.22L653.98,418.22L654.9,419.32L655.83,420.4L656.75,421.36L657.67,421.36L658.59,421.66L659.51,421.66L660.44,421.66L661.36,421.8L662.28,422.88L663.2,423.74L664.12,425.63L665.05,427.01L665.97,427.23L666.89,427.6L667.81,427.94L668.74,428.21L669.66,428.21L670.58,428.64L671.5,428.64L672.42,428.81L673.35,429.35L674.27,429.58L675.19,430.07L676.11,430.43L677.03,430.63L677.96,431.03L678.88,431.36L679.8,431.36L680.72,431.5L681.65,435.2L682.57,436.5L683.49,436.67L684.41,437.77L685.33,437.77L686.26,437.95L687.18,437.95L688.1,438.73L689.02,438.81L689.94,438.94L690.87,439.28L691.79,439.54L692.71,441.26L693.63,442.55L694.55,442.88L695.48,443.1L696.4,443.48L697.32,443.48L698.24,444.03L699.17,444.64L700.09,444.64L701.01,444.95L701.93,444.95L702.85,444.95L703.78,444.95L704.7,448.52L705.62,448.52L706.54,448.63L707.46,448.63L708.39,448.63L709.31,448.79L710.23,449.01L711.15,449.01L712.07,449.26L713,450.76L713.92,451.58L714.84,452.15L715.76,452.47L716.69,452.47L717.61,452.73L718.53,452.99L719.45,453.97L720.37,454.34L721.3,454.69L722.22,454.69L723.14,455.97L724.06,456.64L724.98,457.02L725.91,458.74L726.83,459.54L727.75,459.54L728.67,460L729.6,460.25L730.52,460.25L731.44,460.25L732.36,461.16L733.28,461.16L734.21,461.86L735.13,462.36L736.05,462.48L736.97,462.48L737.89,463.3L738.82,464.13L739.74,464.13L740.66,464.13L741.58,464.46L742.5,464.77L743.43,466.57L744.35,466.85L745.27,467.65L746.19,468.7L747.12,472.3L748.04,472.51L748.96,472.72L749.88,472.83L750.8,473.1L751.73,473.35L752.65,473.49L753.57,474.44L754.49,474.61L755.41,475.78L756.34,476.71L757.26,476.89L758.18,476.89L759.1,477.22L760.03,477.54L760.95,478.12L761.87,478.12L762.79,479.23L763.71,480.16L764.64,481.83L765.56,481.97L766.48,482.08L767.4,482.3L768.32,482.92L769.25,483.61L770.17,483.61L771.09,483.61L772.01,483.61L772.93,483.61L773.86,483.89L774.78,484.5L775.7,485.52L776.62,485.52L777.55,485.96L778.47,486.69L779.39,487.26L780.31,487.26L781.23,487.39L782.16,487.75L783.08,488.04L784,488.04L784.92,489.39L785.84,489.58L786.77,489.76L787.69,490.08L788.61,490.26L789.53,490.26L790.45,490.26L791.38,491.26L792.3,491.78L793.22,492.06L794.14,493.67L795.07,493.67L795.99,493.67L796.91,494.22L797.83,494.22L798.75,494.22L799.68,494.22L800.6,494.22L801.52,495.29L802.44,495.6L803.36,495.6L804.29,498.53L805.21,499.18L806.13,499.51L807.05,499.87L807.98,500.08L808.9,500.08L809.82,501.48L810.74,503.4L811.66,504.15L812.59,504.15L813.51,504.57L814.43,504.57L815.35,505.13L816.27,505.72L817.2,505.92L818.12,506.06L819.04,506.51L819.96,508.14L820.88,509.25L821.81,509.59L822.73,510.15L823.65,510.72L824.57,510.99L825.5,510.99L826.42,510.99L827.34,512.24L828.26,512.4L829.18,512.6L830.11,513.1L831.03,513.55L831.95,513.55L832.87,516.13L833.79,516.9L834.72,516.98L835.64,517.47L836.56,518.01L837.48,518.01L838.41,518.01L839.33,518.01L840.25,518.01L841.17,518.91L842.09,519.16L843.02,519.89L843.94,520.49L844.86,520.49L845.78,521.04L846.7,521.05L847.63,521.36L848.55,521.36L849.47,521.73L850.39,522.15L851.31,524.32L852.24,526.36L853.16,526.82L854.08,527.06L855,527.19L855.93,527.19L856.85,527.62L857.77,527.62L858.69,527.97L859.61,527.97L860.54,528.19L861.46,529.92L862.38,530.16L863.3,530.77L864.22,531.19L865.15,531.41L866.07,531.66L866.99,531.66L867.91,531.92L868.83,531.92L869.76,532.79L870.68,532.97L871.6,535.47L872.52,537.98L873.45,538.95L874.37,539.08L875.29,539.57L876.21,539.57L877.13,539.74L878.06,539.93L878.98,539.93L879.9,539.93L880.82,539.93L881.74,540.09L882.67,540.98L883.59,541.42L884.51,541.53L885.43,541.81L886.36,541.81L887.28,541.81L888.2,541.81L889.12,542L890.04,542L890.97,543.27L891.89,543.76L892.81,543.76L893.73,543.98L894.65,545.22L895.58,547.3L896.5,547.3L897.42,547.55L898.34,547.55L899.26,547.55L900.19,547.95L901.11,548.36L902.03,548.36L902.95,548.36L903.88,548.83L904.8,549.5L905.72,552.39L906.64,552.39L907.56,552.72L908.49,553.12L909.41,553.81L910.33,554.19L911.25,554.48L912.17,554.48L913.1,555.85L914.02,556.26L914.94,556.26L915.86,558.01L916.79,558.21L917.71,558.45L918.63,558.69L919.55,559.16L920.47,559.16L921.4,559.84L922.32,559.84L923.24,560.08L924.16,560.32L925.08,560.44L926.01,561.07L926.93,561.07L927.85,561.71L928.77,562L929.69,562L930.62,562.85L931.54,562.85L932.46,563.15L933.38,563.43L934.31,564.17L935.23,565.38L936.15,569.26L937.07,569.56L937.99,570.03L938.92,570.17L939.84,570.17L940.76,570.7L941.68,570.7L942.6,570.93L943.53,571.68L944.45,571.68L945.37,571.68L946.29,571.81L947.22,571.81L948.14,572.56L949.06,572.56L949.98,573.38L950.9,573.71L951.83,573.71L952.75,574.17L953.67,574.66L954.59,575.25L955.51,575.25L956.44,575.45L957.36,576.05L958.28,576.18L959.2,579.22L960.12,580.69L961.05,580.69L961.97,582.15L962.89,582.24L963.81,582.24L964.74,582.99L965.66,583.29L966.58,583.49L967.5,583.49L968.42,585.4L969.35,585.98L970.27,586.15L971.19,586.36L972.11,586.36L973.03,586.58L973.96,586.58L974.88,586.85L975.8,587.11L976.72,587.71L977.64,587.93L978.57,590.35L979.49,592.56L980.41,592.88L981.33,592.88L982.26,593.16L983.18,593.16L984.1,593.75L985.02,594.41L985.94,594.41L986.87,594.41L987.79,594.77L988.71,595.12L989.63,596.36L990.55,596.36L991.48,596.62L992.4,596.75L993.32,596.98L994.24,597.27L995.17,597.59L996.09,597.59L997.01,597.59L997.93,597.59L998.85,597.81L999.78,598.53L1000.7,598.53L1001.6,599.6L1002.5,605.24L1003.5,606.4L1004.4,606.52L1005.3,606.93L1006.2,606.93L1007.2,607.09L1008.1,607.09L1009,607.09L1009.9,607.09L1010.8,608.85L1011.8,608.97L1012.7,610.31L1013.6,610.95L1014.5,611.23L1015.5,611.39L1016.4,611.86L1017.3,611.86L1018.2,611.86L1019.1,612.16L1020.1,612.16L1021,612.38L1021.9,612.67L1022.8,614.14L1023.8,617.6L1024.7,617.6L1025.6,617.6L1026.5,617.6L1027.4,617.6L1028.4,618.47L1029.3,618.64L1030.2,619.1L1031.1,620.31L1032,620.58L1033,620.58L1033.9,621.11L1034.8,621.36L1035.7,621.64L1036.7,621.64L1037.6,621.8L1038.5,622.34L1039.4,622.34L1040.3,622.82L1041.3,622.82L1042.2,623.99L1043.1,623.99L1044,626.36L1045,626.75L1045.9,628.42L1046.8,631.41L1047.7,631.71L1048.6,631.96L1049.6,631.96L1050.5,632.41L1051.4,632.9L1052.3,632.9L1053.3,633.72L1054.2,633.98L1055.1,634.1L1056,634.1L1056.9,634.1L1057.9,634.41L1058.8,634.78L1059.7,635.16L1060.6,636.5L1061.6,636.8L1062.5,637.39L1063.4,638.21L1064.3,638.21L1065.2,638.39L1066.2,638.68L1067.1,639.02L1068,639.56L1068.9,639.56L1069.9,640.04L1070.8,640.04L1071.7,640.04L1072.6,640.42L1073.5,640.42L1074.5,640.42L1075.4,640.42L1076.3,640.42L1077.2,640.66L1078.2,640.66L1079.1,641.38L1080,641.38" style="fill:none;stroke:#F15A60;stroke-width:1.875" />
<path d="M60.137,84.677L61.06,97.673L61.982,109.49L62.904,114.68L63.826,123.78L64.748,133.53L65.67,140.91L66.592,148.99L67.514,150.76L68.437,152.65L69.359,155.98L70.281,155.98L71.203,155.98L72.125,164.91L73.047,169.77L73.969,173.1L74.891,173.1L75.814,173.1L76.736,171.05L77.658,169.81L78.58,169.79L79.502,171.26L80.424,175.03L81.346,175.78L82.268,175.79L83.19,175.79L84.113,175.79L85.035,175.79L85.957,177.37L86.879,177.37L87.801,177.37L88.723,177.37L89.645,179.03L90.567,179.03L91.49,181.28L92.412,181.28L93.334,182.76L94.256,182.76L95.178,182.76L96.1,182.76L97.022,182.8L97.944,184.28L98.866,184.28L99.789,187.7L100.71,193.3L101.63,193.37L102.55,195.66L103.48,195.66L104.4,195.6L105.32,199.36L106.24,199.36L107.17,200.84L108.09,200.84L109.01,200.92L109.93,201.61L110.85,201.62L111.78,201.62L112.7,203.1L113.62,203.1L114.54,206.06L115.46,206.73L116.39,206.73L117.31,206.73L118.23,206.73L119.15,209.25L120.08,210.7L121,212.63L121.92,212.63L122.84,212.63L123.76,212.62L124.69,212.11L125.61,217.66L126.53,217.66L127.45,221.1L128.37,226.53L129.3,226.53L130.22,226.53L131.14,226.53L132.06,226.53L132.98,226.53L133.91,229.41L134.83,229.41L135.75,232.49L136.67,233.96L137.6,236.21L138.52,236.21L139.44,236.21L140.36,236.57L141.28,236.6L142.21,239.6L143.13,244.63L144.05,244.63L144.97,244.63L145.89,244.63L146.82,245.74L147.74,247.21L148.66,247.21L149.58,247.96L150.51,247.96L151.43,247.96L152.35,252.74L153.27,252.74L154.19,252.74L155.12,252.74L156.04,253.9L156.96,256.85L157.88,257.59L158.8,257.6L159.73,257.98L160.65,258.13L161.57,258.17L162.49,258.9L163.41,258.9L164.34,259.72L165.26,259.72L166.18,263.58L167.1,263.58L168.03,263.58L168.95,263.58L169.87,264.88L170.79,266.59L171.71,266.59L172.64,266.59L173.56,266.02L174.48,265.74L175.4,265.74L176.32,271.35L177.25,271.35L178.17,271.35L179.09,271.37L180.01,271.37L180.93,271.37L181.86,271.73L182.78,271.73L183.7,271.73L184.62,271.73L185.55,271.73L186.47,271.73L187.39,273.95L188.31,273.95L189.23,274.69L190.16,274.69L191.08,274.69L192,274.69L192.92,274.87L193.84,274.87L194.77,274.87L195.69,274.87L196.61,276.35L197.53,277.27L198.46,277.27L199.38,277.27L200.3,277.27L201.22,277.27L202.14,277.27L203.07,277.13L203.99,277.13L204.91,277.13L205.83,277.13L206.75,279.58L207.68,279.77L208.6,279.77L209.52,279.77L210.44,279.77L211.36,279.77L212.29,280.14L213.21,280.14L214.13,280.14L215.05,280.14L215.98,281.62L216.9,281.62L217.82,282.54L218.74,283.45L219.66,283.45L220.59,284.06L221.51,284.06L222.43,284.06L223.35,284.24L224.27,284.43L225.2,284.43L226.12,285.53L227.04,285.53L227.96,285.71L228.89,285.71L229.81,285.94L230.73,285.94L231.65,285.94L232.57,286.1L233.5,286.08L234.42,286.08L235.34,286.87L236.26,287.97L237.18,287.97L238.11,287.97L239.03,287.97L239.95,288.47L240.87,288.67L241.79,288.59L242.72,288.39L243.64,289.3L244.56,289.87L245.48,289.87L246.41,289.87L247.33,289.87L248.25,289.87L249.17,290.77L250.09,290.77L251.02,290.77L251.94,290.85L252.86,290.85L253.78,291.77L254.7,291.77L255.63,291.77L256.55,291.77L257.47,293.61L258.39,293.61L259.31,297.83L260.24,297.83L261.16,297.55L262.08,297.74L263,297.74L263.93,297.92L264.85,298.58L265.77,298.76L266.69,298.76L267.61,299.73L268.54,299.91L269.46,300.46L270.38,300.46L271.3,300.21L272.22,300.21L273.15,300.21L274.07,302.11L274.99,302.11L275.91,303.04L276.84,303.05L277.76,303.05L278.68,303.23L279.6,304.21L280.52,304.21L281.45,304.21L282.37,304.8L283.29,304.8L284.21,311.25L285.13,311.25L286.06,311.44L286.98,311.44L287.9,311.44L288.82,311.63L289.74,311.63L290.67,311.7L291.59,312.25L292.51,312.8L293.43,316.31L294.36,316.31L295.28,316.5L296.2,316.5L297.12,316.5L298.04,316.73L298.97,317.29L299.89,317.29L300.81,318.26L301.73,318.26L302.65,320.95L303.58,321.93L304.5,321.28L305.42,321.28L306.34,321.84L307.27,322.39L308.19,322.39L309.11,322.39L310.03,322.57L310.95,322.57L311.88,322.94L312.8,322.94L313.72,323.49L314.64,323.49L315.56,323.49L316.49,324.78L317.41,325.34L318.33,325.34L319.25,325.89L320.17,326.08L321.1,325.51L322.02,325.51L322.94,325.51L323.86,326.26L324.79,326.81L325.71,326.81L326.63,326.99L327.55,327.73L328.47,327.91L329.4,327.91L330.32,327.91L331.24,328.28L332.16,328.28L333.08,328.83L334.01,328.83L334.93,329.75L335.85,330.49L336.77,330.49L337.7,330.67L338.62,331.41L339.54,331.41L340.46,331.41L341.38,331.97L342.31,332.52L343.23,332.52L344.15,332.52L345.07,332.52L345.99,334.03L346.92,334.03L347.84,334.03L348.76,334.05L349.68,334.98L350.6,335.91L351.53,335.91L352.45,335.91L353.37,337.38L354.29,337.38L355.22,337.38L356.14,338.12L357.06,339.05L357.98,339.05L358.9,339.05L359.83,339.42L360.75,339.42L361.67,339.84L362.59,339.84L363.51,339.84L364.44,340.17L365.36,341.09L366.28,341.09L367.2,341.84L368.12,341.84L369.05,342.59L369.97,342.59L370.89,343.32L371.81,344.24L372.74,344.97L373.66,345.72L374.58,345.72L375.5,345.72L376.42,346.09L377.35,346.83L378.27,347.75L379.19,347.75L380.11,348.59L381.03,348.95L381.96,348.95L382.88,348.95L383.8,348.95L384.72,349.69L385.65,349.87L386.57,349.87L387.49,349.87L388.41,351.35L389.33,351.35L390.26,351.35L391.18,351.35L392.1,352.09L393.02,353.75L393.94,353.75L394.87,354.49L395.79,354.49L396.71,354.86L397.63,354.86L398.55,355.59L399.48,356.51L400.4,357.25L401.32,357.25L402.24,362.93L403.17,362.93L404.09,362.93L405.01,368.18L405.93,368.56L406.85,374.48L407.78,374.64L408.7,374.49L409.62,373.24L410.54,373.24L411.46,373.24L412.39,373.24L413.31,373.1L414.23,373.1L415.15,373.52L416.08,373.52L417,373.52L417.92,372.97L418.84,372.97L419.76,372.78L420.69,373.79L421.61,373.79L422.53,373.24L423.45,372.96L424.37,372.96L425.3,372.39L426.22,372.39L427.14,372.39L428.06,372.39L428.98,373.14L429.91,373.57L430.83,373.57L431.75,374.86L432.67,375.59L433.6,376.33L434.52,376.33L435.44,376.71L436.36,377.44L437.28,377.68L438.21,380.68L439.13,380.68L440.05,383.68L440.97,383.68L441.89,384.47L442.82,386.02L443.74,386.76L444.66,386.76L445.58,387.5L446.5,387.5L447.43,388.23L448.35,391.36L449.27,391.36L450.19,391.36L451.12,392.83L452.04,392.83L452.96,392.83L453.88,392.83L454.8,395.05L455.73,395.05L456.65,395.05L457.57,396.53L458.49,396.53L459.41,396.53L460.34,397.26L461.26,398L462.18,398L463.1,398.73L464.03,399.47L464.95,399.47L465.87,400.21L466.79,400.95L467.71,401.68L468.64,401.68L469.56,401.68L470.48,401.68L471.4,402.8L472.32,402.8L473.25,403.53L474.17,403.53L475.09,404.27L476.01,405L476.93,405.74L477.86,406.47L478.78,407.22L479.7,407.22L480.62,407.22L481.55,408.38L482.47,408.38L483.39,408.38L484.31,409.53L485.23,409.53L486.16,409.53L487.08,411.01L488,411.01L488.92,411.01L489.84,411.75L490.77,411.75L491.69,413.22L492.61,413.22L493.53,413.22L494.46,413.97L495.38,413.97L496.3,414.7L497.22,414.7L498.14,415.44L499.07,415.44L499.99,416.17L500.91,416.17L501.83,416.91L502.75,417.65L503.68,418.39L504.6,419.12L505.52,419.12L506.44,418.76L507.36,418.76L508.29,418.76L509.21,420.62L510.13,420.62L511.05,420.62L511.98,422.09L512.9,422.09L513.82,422.09L514.74,423.57L515.66,424.3L516.59,424.3L517.51,424.3L518.43,426.18L519.35,426.18L520.27,426.55L521.2,426.55L522.12,428.81L523.04,428.81L523.96,428.81L524.88,428.84L525.81,430.32L526.73,430.32L527.65,430.32L528.57,430.32L529.5,430.37L530.42,430.37L531.34,432.21L532.26,432.35L533.18,432.35L534.11,432.35L535.03,432.35L535.95,432.37L536.87,432.52L537.79,432.52L538.72,432.56L539.64,432.56L540.56,433.3L541.48,433.76L542.41,433.76L543.33,433.83L544.25,433.83L545.17,434.56L546.09,435.3L547.02,435.48L547.94,435.48L548.86,437.74L549.78,437.74L550.7,437.74L551.63,437.74L552.55,437.75L553.47,437.75L554.39,437.75L555.31,437.75L556.24,439.3L557.16,439.3L558.08,442L559,445.03L559.93,445.03L560.85,445.03L561.77,445.76L562.69,446.5L563.61,446.5L564.54,446.5L565.46,447.25L566.38,447.25L567.3,447.25L568.22,447.98L569.15,448.53L570.07,448.53L570.99,449.27L571.91,450L572.84,450L573.76,451.48L574.68,452.28L575.6,452.28L576.52,453.03L577.45,453.03L578.37,454.13L579.29,455.66L580.21,456.39L581.13,456.39L582.06,456.39L582.98,457.58L583.9,457.58L584.82,458.32L585.74,458.02L586.67,458.02L587.59,458.77L588.51,459.51L589.43,459.51L590.36,461.72L591.28,461.72L592.2,462.09L593.12,462.83L594.04,462.83L594.97,462.83L595.89,462.83L596.81,464.34L597.73,465.07L598.65,465.07L599.58,466.18L600.5,466.18L601.42,466.18L602.34,468.39L603.26,468.39L604.19,468.39L605.11,468.39L606.03,468.76L606.95,468.76L607.88,469.13L608.8,469.13L609.72,470.61L610.64,470.61L611.56,470.61L612.49,471.71L613.41,472.45L614.33,472.45L615.25,473.19L616.17,473.19L617.1,473.19L618.02,473.19L618.94,473.44L619.86,473.44L620.79,473.44L621.71,474.18L622.63,474.92L623.55,474.92L624.47,475.73L625.4,475.81L626.32,475.81L627.24,477.29L628.16,478.03L629.08,478.03L630.01,478.39L630.93,478.39L631.85,479.39L632.77,479.39L633.69,480.12L634.62,480.86L635.54,480.86L636.46,481.61L637.38,485.12L638.31,485.12L639.23,485.12L640.15,485.12L641.07,485.12L641.99,487.4L642.92,487.44L643.84,487.44L644.76,488.24L645.68,488.29L646.6,489.1L647.53,489.1L648.45,489.13L649.37,489.13L650.29,489.13L651.22,489.88L652.14,489.88L653.06,489.88L653.98,489.88L654.9,490.61L655.83,490.61L656.75,492.22L657.67,492.22L658.59,492.67L659.51,494.15L660.44,494.15L661.36,494.15L662.28,494.98L663.2,496.31L664.12,497.78L665.05,497.82L665.97,498.56L666.89,498.56L667.81,498.56L668.74,499.56L669.66,499.56L670.58,499.56L671.5,499.58L672.42,499.58L673.35,499.62L674.27,502.2L675.19,502.2L676.11,502.2L677.03,502.95L677.96,502.95L678.88,502.95L679.8,503.13L680.72,504.07L681.65,504.07L682.57,504.81L683.49,505.55L684.41,506.38L685.33,506.66L686.26,506.66L687.18,506.66L688.1,507.49L689.02,507.49L689.94,510.74L690.87,511.76L691.79,511.76L692.71,512.5L693.63,513.23L694.55,513.98L695.48,514.71L696.4,514.71L697.32,514.71L698.24,517.75L699.17,517.75L700.09,518.49L701.01,520.7L701.93,523.65L702.85,523.65L703.78,523.65L704.7,525.13L705.62,525.87L706.54,527.42L707.46,528.15L708.39,528.15L709.31,528.15L710.23,528.84L711.15,528.84L712.07,529.59L713,529.59L713.92,529.59L714.84,530.4L715.76,531.15L716.69,531.15L717.61,531.14L718.53,531.14L719.45,531.14L720.37,532.62L721.3,534.83L722.22,534.83L723.14,534.68L724.06,534.68L724.98,535.42L725.91,535.05L726.83,537.25L727.75,537.25L728.67,537.25L729.6,538L730.52,538L731.44,538.74L732.36,539.56L733.28,540.29L734.21,541.11L735.13,541.11L736.05,541.85L736.97,543.32L737.89,543.32L738.82,543.32L739.74,543.32L740.66,544.07L741.58,546.28L742.5,546.28L743.43,547.01L744.35,547.01L745.27,547.01L746.19,548.56L747.12,549.3L748.04,549.67L748.96,549.67L749.88,550.4L750.8,551.22L751.73,551.22L752.65,550.86L753.57,550.86L754.49,551.59L755.41,551.96L756.34,551.96L757.26,556.07L758.18,556.8L759.1,556.8L760.03,557.66L760.95,557.66L761.87,557.32L762.79,557.4L763.71,557.4L764.64,557.4L765.56,557.4L766.48,557.02L767.4,557.06L768.32,557.06L769.25,557.06L770.17,557.06L771.09,557.86L772.01,557.86L772.93,560.7L773.86,560.7L774.78,560.7L775.7,560.7L776.62,561.43L777.55,561.43L778.47,561.93L779.39,562.66L780.31,562.66L781.23,562.66L782.16,565.45L783.08,565.45L784,565.82L784.92,567.3L785.84,567.31L786.77,568.05L787.69,568.05L788.61,569.15L789.53,569.15L790.45,572.94L791.38,572.94L792.3,572.94L793.22,573.93L794.14,574.66L795.07,575.4L795.99,575.4L796.91,575.4L797.83,577.6L798.75,578.35L799.68,578.35L800.6,578.35L801.52,579.9L802.44,579.54L803.36,579.54L804.29,579.55L805.21,590.77L806.13,594.69L807.05,596.92L807.98,597.97L808.9,603.22L809.82,603.22L810.74,605.94L811.66,606.68L812.59,606.68L813.51,611.11L814.43,611.85L815.35,612.67L816.27,613.58L817.2,614.31L818.12,615.05L819.04,622.62L819.96,622.62L820.88,622.62L821.81,623.35L822.73,624.09L823.65,625.57L824.57,625.57L825.5,626.3L826.42,627.04L827.34,627.77L828.26,629.25L829.18,629.07L830.11,630.65L831.03,630.65L831.95,631.38L832.87,631.42L833.79,631.04L834.72,630.49L835.64,630.85L836.56,630.85L837.48,631.22L838.41,630.12L839.33,630.12L840.25,629.74L841.17,630.11L842.09,630.11L843.02,629.74L843.94,629.74L844.86,629.74L845.78,629.74L846.7,630.48L847.63,630.48L848.55,630.48L849.47,630.48L850.39,630.55L851.31,631.29L852.24,632.77L853.16,632.88L854.08,632.88L855,632.88L855.93,632.89L856.85,634.21L857.77,634.21L858.69,634.29L859.61,634.29L860.54,634.29L861.46,634.28L862.38,634.28L863.3,634.28L864.22,634.28L865.15,634.28L866.07,634.28L866.99,634.44L867.91,634.44L868.83,634.44L869.76,634.44L870.68,635.79L871.6,635.06L872.52,635.06L873.45,636.21L874.37,636.21L875.29,636.58L876.21,638.42L877.13,639.99L878.06,639.99L878.98,639.99L879.9,639.99L880.82,639.99L881.74,640.8L882.67,640.8L883.59,643.02L884.51,644.49L885.43,645.23L886.36,645.23L887.28,645.23L888.2,645.23L889.12,645.97L890.04,645.97L890.97,645.98L891.89,646.71L892.81,646.71L893.73,647.45L894.65,648.19L895.58,648.19L896.5,648.92L897.42,648.92L898.34,649.67L899.26,649.67L900.19,649.67L901.11,651.15L902.03,651.15L902.95,651.15L903.88,653.79L904.8,653.78L905.72,653.78L906.64,653.78L907.56,654.52L908.49,654.52L909.41,654.52L910.33,654.52L911.25,654.52L912.17,656.09L913.1,656.09L914.02,656.09L914.94,656.09L915.86,659.14L916.79,659.18L917.71,659.18L918.63,659.18L919.55,659.18L920.47,661.28L921.4,661.28L922.32,661.28L923.24,662.76L924.16,662.76L925.08,662.76L926.01,664.27L926.93,665.03L927.85,665.03L928.77,665.78L929.69,665.78L930.62,668.38L931.54,668.38L932.46,669.2L933.38,669.2L934.31,669.2L935.23,669.94L936.15,671.42L937.07,671.93L937.99,673.41L938.92,674.88L939.84,674.88L940.76,675.63L941.68,675.98L942.6,675.98L943.53,677.46L944.45,677.46L945.37,677.98L946.29,678.73L947.22,678.36L948.14,679.1L949.06,678.72L949.98,678.72L950.9,679.46L951.83,679.13L952.75,679.13L953.67,679.13L954.59,679.13L955.51,679.13L956.44,679.13L957.36,679.13L958.28,679.86L959.2,679.72L960.12,679.72L961.05,679.72L961.97,679.72L962.89,679.72L963.81,678.98L964.74,680.18L965.66,680.91L966.58,680.55L967.5,680.55L968.42,680.55L969.35,680.18L970.27,680.91L971.19,682.39L972.11,682.39L973.03,683.86L973.96,684.23L974.88,685.71L975.8,689.49L976.72,692.51L977.64,693.25L978.57,693.29L979.49,694.04L980.41,694.07L981.33,694.07L982.26,694.81L983.18,694.82L984.1,696.29L985.02,697.11L985.94,697.11L986.87,697.84L987.79,697.84L988.71,698.59L989.63,698.4L990.55,698.4L991.48,699.23L992.4,698.86L993.32,699.61L994.24,699.23L995.17,699.96L996.09,699.96L997.01,699.96L997.93,701.44" style="fill:none;stroke:#7AC36A;stroke-width:1.875;stroke-dasharray:7.5,2.5" />
<path d="M60.137,100.27L61.06,110.51L61.982,118.65L62.904,125.44L63.826,136.35L64.748,140.78L65.67,149.38L66.592,151.54L67.514,152.94L68.437,156.76L69.359,156.8L70.281,156.8L71.203,158.46L72.125,166.35L73.047,165.24L73.969,171.41L74.891,171.41L75.814,170.64L76.736,169.37L77.658,169.37L78.58,170.85L79.502,174.54L80.424,174.54L81.346,175.35L82.268,175.35L83.19,175.35L84.113,175.35L85.035,176.9L85.957,176.9L86.879,176.9L87.801,176.9L88.723,176.9L89.645,178.55L90.567,180.75L91.49,182.24L92.412,182.24L93.334,182.26L94.256,182.26L95.178,182.26L96.1,182.26L97.022,183.74L97.944,183.74L98.866,187.08L99.789,191.66L100.71,194.05L101.63,194.05L102.55,194.05L103.48,194.05L104.4,198.07L105.32,199.57L106.24,199.57L107.17,199.63L108.09,200.86L109.01,200.86L109.93,200.86L110.85,202.34L111.78,205.37L112.7,205.37L113.62,205.37L114.54,205.37L115.46,205.37L116.39,207.2L117.31,211.09L118.23,213.06L119.15,213.03L120.08,213.03L121,213.03L121.92,213.03L122.84,213.03L123.76,218.36L124.69,218.36L125.61,222.42L126.53,229.03L127.45,229.03L128.37,228.05L129.3,228.05L130.22,228.05L131.14,228.23L132.06,230.44L132.98,233.46L133.91,233.46L134.83,234.94L135.75,236.97L136.67,236.97L137.6,236.97L138.52,237.34L139.44,237.34L140.36,240.43L141.28,240.26L142.21,240.26L143.13,239.19L144.05,240.37L144.97,240.37L145.89,241.84L146.82,242.59L147.74,242.59L148.66,242.59L149.58,243.02L150.51,243.02L151.43,243.02L152.35,243.02L153.27,244.12L154.19,244.12L155.12,248.47L156.04,248.47L156.96,248.5L157.88,248.5L158.8,248.5L159.73,249.4L160.65,250.6L161.57,250.6L162.49,250.6L163.41,250.6L164.34,254.88L165.26,256.14L166.18,256.14L167.1,256.14L168.03,255.62L168.95,255.62L169.87,255.62L170.79,255.62L171.71,257.66L172.64,257.66L173.56,257.66L174.48,262.13L175.4,262.13L176.32,262.13L177.25,262.56L178.17,262.6L179.09,262.6L180.01,262.6L180.93,262.6L181.86,262.6L182.78,262.6L183.7,262.66L184.62,263.4L185.55,264.92L186.47,264.92L187.39,264.92L188.31,265.85L189.23,265.85L190.16,265.85L191.08,265.85L192,265.85L192.92,265.85L193.84,266.04L194.77,268.31L195.69,268.31L196.61,269.04L197.53,269.04L198.46,268.86L199.38,268.86L200.3,268.86L201.22,268.86L202.14,269.04L203.07,269.04L203.99,271.4L204.91,271.4L205.83,272.08L206.75,272.08L207.68,272.32L208.6,273.24L209.52,273.24L210.44,273.24L211.36,273.24L212.29,274.17L213.21,275.11L214.13,275.11L215.05,275.44L215.98,275.44L216.9,275.44L217.82,275.81L218.74,275.81L219.66,275.81L220.59,275.81L221.51,277.16L222.43,279.98L223.35,279.98L224.27,280.19L225.2,280.19L226.12,280.37L227.04,280.37L227.96,281.29L228.89,281.29L229.81,281.29L230.73,282.76L231.65,288.83L232.57,288.83L233.5,288.83L234.42,289.01L235.34,289.01L236.26,289.01L237.18,289.2L238.11,289.2L239.03,289.2L239.95,289.75L240.87,290.71L241.79,290.71L242.72,290.71L243.64,290.71L244.56,291.63L245.48,292.41L246.41,292.41L247.33,292.41L248.25,292.45L249.17,292.45L250.09,294.46L251.02,294.43L251.94,294.43L252.86,294.43L253.78,294.43L254.7,296.14L255.63,296.14L256.55,297.87L257.47,297.87L258.39,298.05L259.31,298.98L260.24,298.98L261.16,298.98L262.08,299.53L263,299.53L263.93,300.71L264.85,300.71L265.77,300.71L266.69,301.63L267.61,301.63L268.54,301.81L269.46,301.81L270.38,302L271.3,302L272.22,302.93L273.15,303.13L274.07,303.68L274.99,303.68L275.91,303.68L276.84,303.68L277.76,304.47L278.68,304.47L279.6,305.39L280.52,305.39L281.45,306.14L282.37,306.14L283.29,306.14L284.21,306.14L285.13,306.14L286.06,305.58L286.98,306.55L287.9,307.1L288.82,307.1L289.74,307.1L290.67,307.72L291.59,307.72L292.51,307.9L293.43,307.9L294.36,308.08L295.28,308.08L296.2,309.55L297.12,309.55L298.04,312.41L298.97,312.41L299.89,312.41L300.81,312.59L301.73,312.82L302.65,312.82L303.58,312.82L304.5,313.76L305.42,314.87L306.34,314.87L307.27,320.76L308.19,320.76L309.11,321.31L310.03,321.49L310.95,321.49L311.88,322.04L312.8,322.23L313.72,322.78L314.64,322.78L315.56,323.33L316.49,324.06L317.41,324.25L318.33,324.25L319.25,325.91L320.17,325.91L321.1,325.91L322.02,326.09L322.94,326.09L323.86,326.09L324.79,326.09L325.71,328.52L326.63,328.52L327.55,328.52L328.47,329.25L329.4,329.81L330.32,329.81L331.24,329.81L332.16,330.54L333.08,331.04L334.01,331.04L334.93,331.42L335.85,331.42L336.77,331.97L337.7,332.75L338.62,333.59L339.54,333.59L340.46,334.69L341.38,334.69L342.31,334.69L343.23,334.69L344.15,334.69L345.07,335.1L345.99,335.1L346.92,335.88L347.84,335.88L348.76,336.8L349.68,337.54L350.6,337.9L351.53,337.9L352.45,338.64L353.37,339.39L354.29,339.39L355.22,340.32L356.14,340.32L357.06,341.47L357.98,341.47L358.9,341.47L359.83,341.47L360.75,342.95L361.67,342.95L362.59,343.14L363.51,343.14L364.44,343.14L365.36,343.14L366.28,343.14L367.2,343.87L368.12,344.61L369.05,344.61L369.97,346.27L370.89,346.64L371.81,346.64L372.74,346.64L373.66,347.01L374.58,347.74L375.5,347.74L376.42,349.41L377.35,349.41L378.27,350.14L379.19,350.14L380.11,350.88L381.03,350.88L381.96,351.85L382.88,351.85L383.8,351.85L384.72,351.85L385.65,352.22L386.57,352.95L387.49,352.95L388.41,353.87L389.33,355.35L390.26,355.35L391.18,355.35L392.1,359.78L393.02,366.26L393.94,366.26L394.87,366.26L395.79,372.28L396.71,371.98L397.63,371.98L398.55,371.98L399.48,371.98L400.4,371.98L401.32,371.98L402.24,371.98L403.17,371.84L404.09,371.84L405.01,371.84L405.93,371.84L406.85,371.84L407.78,371.84L408.7,371.84L409.62,371.29L410.54,371.29L411.46,371.29L412.39,370.91L413.31,370.91L414.23,370.91L415.15,370.73L416.08,370.18L417,370.18L417.92,370.77L418.84,370.77L419.76,371.52L420.69,371.52L421.61,373.56L422.53,373.56L423.45,374.3L424.37,374.3L425.3,374.3L426.22,375.03L427.14,378.18L428.06,378.18L428.98,378.18L429.91,381.22L430.83,381.22L431.75,381.22L432.67,384.9L433.6,387.12L434.52,387.12L435.44,387.87L436.36,388.6L437.28,388.62L438.21,389.54L439.13,389.54L440.05,390.28L440.97,390.28L441.89,390.28L442.82,390.28L443.74,393.04L444.66,393.04L445.58,393.04L446.5,394.52L447.43,394.52L448.35,394.52L449.27,394.7L450.19,396.18L451.12,396.18L452.04,396.37L452.96,396.37L453.88,396.37L454.8,396.37L455.73,397.69L456.65,398.44L457.57,398.44L458.49,398.44L459.41,399.21L460.34,399.63L461.26,400.45L462.18,401.19L463.1,401.2L464.03,401.2L464.95,401.2L465.87,402.68L466.79,403.23L467.71,403.23L468.64,403.96L469.56,404.7L470.48,404.7L471.4,404.7L472.32,405.99L473.25,406.35L474.17,406.72L475.09,406.72L476.01,406.72L476.93,406.72L477.86,409L478.78,409L479.7,409.02L480.62,409.76L481.55,410.13L482.47,410.5L483.39,411.24L484.31,411.98L485.23,411.98L486.16,411.98L487.08,413.45L488,413.45L488.92,413.83L489.84,413.83L490.77,413.83L491.69,415.3L492.61,415.66L493.53,415.66L494.46,416.4L495.38,417.14L496.3,417.14L497.22,417.88L498.14,418.62L499.07,418.62L499.99,419.36L500.91,419.36L501.83,420.83L502.75,421.57L503.68,421.57L504.6,421.57L505.52,421.93L506.44,422.68L507.36,422.68L508.29,423.78L509.21,423.78L510.13,426.11L511.05,426.11L511.98,426.11L512.9,426.11L513.82,428.29L514.74,429.11L515.66,429.11L516.59,429.04L517.51,428.96L518.43,428.96L519.35,429.7L520.27,429.7L521.2,429.7L522.12,429.7L523.04,429.7L523.96,429.7L524.88,432.3L525.81,432.36L526.73,432.41L527.65,432.41L528.57,433.18L529.5,433.92L530.42,433.92L531.34,433.77L532.26,433.77L533.18,433.77L534.11,433.77L535.03,434.57L535.95,435.23L536.87,435.23L537.79,435.98L538.72,437.45L539.64,437.45L540.56,438.37L541.48,438.37L542.41,439.1L543.33,440.59L544.25,440.59L545.17,441.32L546.09,441.32L547.02,441.32L547.94,441.32L548.86,442.06L549.78,442.06L550.7,442.8L551.63,444.47L552.55,445.2L553.47,445.2L554.39,446.7L555.31,448.85L556.24,448.85L557.16,448.85L558.08,448.85L559,448.85L559.93,449.58L560.85,449.58L561.77,449.58L562.69,451.89L563.61,451.89L564.54,451.89L565.46,451.89L566.38,452.71L567.3,452.71L568.22,453.44L569.15,453.44L570.07,453.44L570.99,455.44L571.91,455.44L572.84,455.44L573.76,456.18L574.68,456.22L575.6,456.22L576.52,458.72L577.45,458.72L578.37,459.45L579.29,459.45L580.21,459.45L581.13,463.88L582.06,463.88L582.98,463.88L583.9,464.62L584.82,465.71L585.74,465.71L586.67,465.71L587.59,466.45L588.51,467.26L589.43,467.26L590.36,467.27L591.28,468L592.2,468L593.12,468L594.04,468.84L594.97,470.87L595.89,471.62L596.81,472.44L597.73,472.44L598.65,474.64L599.58,474.64L600.5,475.39L601.42,475.39L602.34,476.86L603.26,477.97L604.19,477.97L605.11,478.71L606.03,479.44L606.95,480.92L607.88,480.55L608.8,480.55L609.72,482.03L610.64,484.33L611.56,484.33L612.49,484.7L613.41,484.7L614.33,486.9L615.25,488.02L616.17,488.75L617.1,488.75L618.02,488.75L618.94,489.56L619.86,489.56L620.79,489.56L621.71,489.56L622.63,489.56L623.55,489.56L624.47,490.31L625.4,490.31L626.32,490.31L627.24,490.31L628.16,490.68L629.08,492.07L630.01,492.32L630.93,492.32L631.85,492.32L632.77,493.06L633.69,494.54L634.62,494.54L635.54,494.54L636.46,497.01L637.38,496.27L638.31,497.01L639.23,497.75L640.15,497.75L641.07,498.53L641.99,498.53L642.92,500.18L643.84,500.23L644.76,500.23L645.68,500.23L646.6,500.31L647.53,500.31L648.45,500.35L649.37,500.75L650.29,500.75L651.22,500.75L652.14,500.85L653.06,500.85L653.98,501.59L654.9,501.59L655.83,501.59L656.75,501.59L657.67,503.15L658.59,503.15L659.51,503.15L660.44,503.24L661.36,505.23L662.28,506.22L663.2,506.22L664.12,506.96L665.05,506.96L665.97,508.27L666.89,508.27L667.81,509L668.74,509.81L669.66,510.55L670.58,510.55L671.5,513.73L672.42,513.73L673.35,514.52L674.27,515.99L675.19,515.99L676.11,515.99L677.03,517.47L677.96,518.94L678.88,518.94L679.8,518.94L680.72,519.69L681.65,519.96L682.57,521.43L683.49,521.43L684.41,521.43L685.33,521.9L686.26,521.53L687.18,521.53L688.1,523.75L689.02,523.75L689.94,523.38L690.87,524.12L691.79,523.75L692.71,523.75L693.63,523.75L694.55,524.49L695.48,524.85L696.4,524.85L697.32,524.85L698.24,525.59L699.17,525.59L700.09,525.59L701.01,526.83L701.93,527.57L702.85,527.93L703.78,527.93L704.7,527.58L705.62,527.95L706.54,528.68L707.46,530.54L708.39,530.54L709.31,530.54L710.23,531.36L711.15,532.1L712.07,532.55L713,532.55L713.92,534.02L714.84,534.77L715.76,535.5L716.69,537.35L717.61,537.35L718.53,537.35L719.45,538.45L720.37,539.19L721.3,539.19L722.22,541.03L723.14,541.03L724.06,542.52L724.98,542.52L725.91,544L726.83,543.63L727.75,543.44L728.67,545.08L729.6,545.45L730.52,545.45L731.44,545.45L732.36,546.2L733.28,546.93L734.21,546.93L735.13,546.93L736.05,548.12L736.97,548.12L737.89,548.93L738.82,549.67L739.74,549.67L740.66,549.79L741.58,549.79L742.5,550.52L743.43,550.52L744.35,550.52L745.27,551.07L746.19,551.82L747.12,552.55L748.04,553.67L748.96,554.4L749.88,554.4L750.8,555.15L751.73,556.25L752.65,556.8L753.57,557.54L754.49,557.17L755.41,558.64L756.34,558.64L757.26,559.75L758.18,559.75L759.1,561.42L760.03,562.15L760.95,562.15L761.87,562.15L762.79,562.52L763.71,562.52L764.64,563.27L765.56,563.27L766.48,562.89L767.4,563.33L768.32,563.35L769.25,563.38L770.17,563.38L771.09,563L772.01,563L772.93,563L773.86,563L774.78,564.03L775.7,563.66L776.62,563.66L777.55,563.86L778.47,563.86L779.39,564.7L780.31,564.78L781.23,564.78L782.16,564.78L783.08,564.78L784,565.58L784.92,565.58L785.84,565.58L786.77,566.33L787.69,568.53L788.61,572.06L789.53,580.37L790.45,585.22L791.38,590.54L792.3,590.72L793.22,595.89L794.14,595.89L795.07,596.68L795.99,596.68L796.91,598.67L797.83,598.72L798.75,599.46L799.68,600.19L800.6,600.27L801.52,600.27L802.44,601.01L803.36,602.67L804.29,602.67L805.21,603.4L806.13,604.14L807.05,604.88L807.98,605.62L808.9,606.35L809.82,607.09L810.74,607.09L811.66,607.6L812.59,607.6L813.51,607.96L814.43,608.7L815.35,608.7L816.27,609.08L817.2,609.07L818.12,609.07L819.04,609.07L819.96,608.7L820.88,608.7L821.81,609.07L822.73,608.69L823.65,608.69L824.57,609.06L825.5,609.06L826.42,608.69L827.34,608.69L828.26,607.95L829.18,607.95L830.11,608.69L831.03,608.32L831.95,608.32L832.87,608.69L833.79,610.17L834.72,609.8L835.64,609.8L836.56,611.02L837.48,611.02L838.41,611.41L839.33,612.88L840.25,612.88L841.17,612.88L842.09,614.37L843.02,614.37L843.94,614.37L844.86,615.84L845.78,615.84L846.7,615.85L847.63,618.06L848.55,618.06L849.47,619.53L850.39,619.67L851.31,619.67L852.24,621.92L853.16,621.92L854.08,621.92L855,622.66L855.93,622.66L856.85,622.66L857.77,623.39L858.69,623.39L859.61,623.39L860.54,623.07L861.46,623.07L862.38,622.89L863.3,622.87L864.22,622.87L865.15,623.24L866.07,623.24L866.99,622.87L867.91,622.52L868.83,622.52L869.76,622.96L870.68,622.96L871.6,623.33L872.52,623.33L873.45,623.34L874.37,623.71L875.29,623.71L876.21,623.71L877.13,624.52L878.06,626.31L878.98,627.42L879.9,627.42L880.82,628.15L881.74,628.52L882.67,628.52L883.59,628.9L884.51,629.63L885.43,631.11L886.36,631.11L887.28,631.11L888.2,631.1L889.12,631.1L890.04,631.1L890.97,631.1L891.89,631.85L892.81,631.47L893.73,632.21L894.65,632.21L895.58,632.95L896.5,633.69L897.42,633.69L898.34,633.87L899.26,634.05L900.19,634.05L901.11,636.1L902.03,636.1L902.95,636.47L903.88,637.2L904.8,637.58L905.72,638.31L906.64,637.57L907.56,638.31L908.49,637.95L909.41,637.95L910.33,638.4L911.25,639.14L912.17,639.14L913.1,639.94L914.02,640.67L914.94,640.67L915.86,641.41L916.79,641.41L917.71,642.13L918.63,642.88L919.55,644.43L920.47,644.54L921.4,645.67L922.32,646.51L923.24,646.51L924.16,646.59L925.08,646.59L926.01,647.32L926.93,648.4L927.85,648.77L928.77,649.88L929.69,649.88L930.62,651.35L931.54,650.99L932.46,651.72L933.38,652.47L934.31,652.09L935.23,652.83L936.15,652.46L937.07,652.64L937.99,652.64L938.92,651.9L939.84,651.9L940.76,651.9L941.68,652.27L942.6,652.27L943.53,652.27L944.45,653.01L945.37,653.75L946.29,654.12L947.22,654.12L948.14,653.74L949.06,653.74L949.98,653.74L950.9,654.49L951.83,655.22L952.75,656.05L953.67,656.55L954.59,657.29L955.51,657.54L956.44,657.54L957.36,658.78L958.28,658.78L959.2,658.78L960.12,658.45L961.05,659.18L961.97,659.18L962.89,659.92L963.81,660.28L964.74,660.94L965.66,661.68L966.58,661.68L967.5,662.52L968.42,662.52L969.35,663.27L970.27,663.83L971.19,663.93L972.11,664.3L973.03,665.04L973.96,665.79L974.88,666.15L975.8,666.89L976.72,667.63L977.64,668.73L978.57,669.83L979.49,670.58L980.41,670.58L981.33,671.31L982.26,671.23L983.18,672.9" style="fill:none;stroke:#5A9BD4;stroke-width:1.875;stroke-dasharray:2.5,2.5" />
<path d="M1055,694.3L1080,694.3" style="fill:none;stroke:#F15A60;stroke-width:1.875" />
<text x="1002.5" y="-687.85" transform="scale(1, -1)"
	style="font-family:Helvetica;font-weight:normal;font-style:normal;font-size:12pt">etcd v3</text>
<path d="M1055,680L1080,680" style="fill:none;stroke:#7AC36A;stroke-width:1.875;stroke-dasharray:7.5,2.5" />
<text x="793.19" y="-673.56" transform="scale(1, -1)"
	style="font-family:Helvetica;font-weight:normal;font-style:normal;font-size:12pt">Zookeeper v3.4.8 (snapCount 100000)</text>
<path d="M1055,665.71L1080,665.71" style="fill:none;stroke:#5A9BD4;stroke-width:1.875;stroke-dasharray:2.5,2.5" />
<text x="784.85" y="-659.26" transform="scale(1, -1)"
	style="font-family:Helvetica;font-weight:normal;font-style:normal;font-size:12pt">Zookeeper v3.4.8 (snapCount 1000000)</text>
</g>
</svg>
