<?xml version="1.0"?>
<!-- Generated by SVGo and Plotinum VG -->
<svg width="12in" height="8in"
	xmlns="http://www.w3.org/2000/svg"
	xmlns:xlink="http://www.w3.org/1999/xlink">
<g transform="scale(1, -1) translate(0, -720)">
<path d="M0,0L1080,0L1080,720L0,720Z" style="fill:#FFFFFF" />
<text x="334.49" y="-706.41" transform="scale(1, -1)"
	style="font-family:Helvetica;font-weight:normal;font-style:normal;font-size:12pt">Write 500K keys, 1 client, key 32 bytes, value 500 bytes, CPU</text>
<text x="541.16" y="-4.965" transform="scale(1, -1)"
	style="font-family:Helvetica;font-weight:normal;font-style:normal;font-size:12pt">Second</text>
<text x="49.712" y="-19.142" transform="scale(1, -1)"
	style="font-family:Helvetica;font-weight:normal;font-style:normal;font-size:10pt">0</text>
<text x="321.28" y="-19.142" transform="scale(1, -1)"
	style="font-family:Helvetica;font-weight:normal;font-style:normal;font-size:10pt">300</text>
<text x="599.8" y="-19.142" transform="scale(1, -1)"
	style="font-family:Helvetica;font-weight:normal;font-style:normal;font-size:10pt">600</text>
<text x="878.32" y="-19.142" transform="scale(1, -1)"
	style="font-family:Helvetica;font-weight:normal;font-style:normal;font-size:10pt">900</text>
<path d="M53.188,30.467L53.188,40.467" style="fill:none;stroke:#000000;stroke-width:0.625" />
<path d="M331.71,30.467L331.71,40.467" style="fill:none;stroke:#000000;stroke-width:0.625" />
<path d="M610.23,30.467L610.23,40.467" style="fill:none;stroke:#000000;stroke-width:0.625" />
<path d="M888.75,30.467L888.75,40.467" style="fill:none;stroke:#000000;stroke-width:0.625" />
<path d="M146.03,35.468L146.03,40.467" style="fill:none;stroke:#000000;stroke-width:0.625" />
<path d="M238.87,35.468L238.87,40.467" style="fill:none;stroke:#000000;stroke-width:0.625" />
<path d="M424.55,35.468L424.55,40.467" style="fill:none;stroke:#000000;stroke-width:0.625" />
<path d="M517.39,35.468L517.39,40.467" style="fill:none;stroke:#000000;stroke-width:0.625" />
<path d="M703.07,35.468L703.07,40.467" style="fill:none;stroke:#000000;stroke-width:0.625" />
<path d="M795.91,35.468L795.91,40.467" style="fill:none;stroke:#000000;stroke-width:0.625" />
<path d="M981.59,35.468L981.59,40.467" style="fill:none;stroke:#000000;stroke-width:0.625" />
<path d="M1074.4,35.468L1074.4,40.467" style="fill:none;stroke:#000000;stroke-width:0.625" />
<path d="M53.188,40.467L1080,40.467" style="fill:none;stroke:#000000;stroke-width:0.625" />
<g transform="rotate(90)">
<text x="358.4" y="13.59" transform="scale(1, -1)"
	style="font-family:Helvetica;font-weight:normal;font-style:normal;font-size:12pt">CPU</text>
</g>
<text x="18.555" y="-122.39" transform="scale(1, -1)"
	style="font-family:Helvetica;font-weight:normal;font-style:normal;font-size:10pt">10</text>
<text x="18.555" y="-246.97" transform="scale(1, -1)"
	style="font-family:Helvetica;font-weight:normal;font-style:normal;font-size:10pt">20</text>
<text x="18.555" y="-371.55" transform="scale(1, -1)"
	style="font-family:Helvetica;font-weight:normal;font-style:normal;font-size:10pt">30</text>
<text x="18.555" y="-496.13" transform="scale(1, -1)"
	style="font-family:Helvetica;font-weight:normal;font-style:normal;font-size:10pt">40</text>
<text x="18.555" y="-620.71" transform="scale(1, -1)"
	style="font-family:Helvetica;font-weight:normal;font-style:normal;font-size:10pt">50</text>
<path d="M35.93,127.76L45.93,127.76" style="fill:none;stroke:#000000;stroke-width:0.625" />
<path d="M35.93,252.34L45.93,252.34" style="fill:none;stroke:#000000;stroke-width:0.625" />
<path d="M35.93,376.92L45.93,376.92" style="fill:none;stroke:#000000;stroke-width:0.625" />
<path d="M35.93,501.5L45.93,501.5" style="fill:none;stroke:#000000;stroke-width:0.625" />
<path d="M35.93,626.07L45.93,626.07" style="fill:none;stroke:#000000;stroke-width:0.625" />
<path d="M40.93,65.468L45.93,65.468" style="fill:none;stroke:#000000;stroke-width:0.625" />
<path d="M40.93,190.05L45.93,190.05" style="fill:none;stroke:#000000;stroke-width:0.625" />
<path d="M40.93,314.63L45.93,314.63" style="fill:none;stroke:#000000;stroke-width:0.625" />
<path d="M40.93,439.21L45.93,439.21" style="fill:none;stroke:#000000;stroke-width:0.625" />
<path d="M40.93,563.78L45.93,563.78" style="fill:none;stroke:#000000;stroke-width:0.625" />
<path d="M40.93,688.36L45.93,688.36" style="fill:none;stroke:#000000;stroke-width:0.625" />
<path d="M45.93,47.03L45.93,701.44" style="fill:none;stroke:#000000;stroke-width:0.625" />
<path d="M53.188,47.03L54.116,136.48L55.044,209.11L55.973,264.92L56.901,306.4L57.83,343.15L58.758,367.95L59.686,390.5L60.615,409.93L61.543,427.5L62.472,443.44L63.4,455.65L64.328,466.61L65.257,477.08L66.185,485.92L67.114,495.64L68.042,504.61L68.97,511.84L69.899,518.56L70.827,523.79L71.756,529.4L72.684,534.51L73.612,539.12L74.541,544.23L75.469,548.59L76.398,553.07L77.326,557.18L78.254,560.67L79.183,564.16L80.111,567.9L81.04,571.26L81.968,574.25L82.896,577.49L83.825,579.73L84.753,582.22L85.682,584.09L86.61,586.08L87.538,589.2L88.467,591.19L89.395,592.56L90.324,594.81L91.252,596.18L92.18,598.04L93.109,599.17L94.037,601.66L94.966,603.65L95.894,605.15L96.822,606.89L97.751,608.01L98.679,609.75L99.608,611.25L100.54,611.37L101.46,612.37L102.39,613.12L103.32,613.87L104.25,614.49L105.18,615.98L106.11,617.6L107.03,618.85L107.96,620.09L108.89,622.21L109.82,624.21L110.75,625.7L111.68,627.32L112.61,628.82L113.53,630.31L114.46,631.06L115.39,632.18L116.32,633.18L117.25,633.92L118.18,634.05L119.1,635.29L120.03,635.54L120.96,636.17L121.89,636.66L122.82,637.16L123.75,637.66L124.67,638.41L125.6,638.78L126.53,639.65L127.46,639.78L128.39,640.15L129.32,641.02L130.24,641.4L131.17,641.15L132.1,641.77L133.03,641.9L133.96,642.27L134.89,642.89L135.82,643.39L136.74,643.76L137.67,644.14L138.6,644.39L139.53,645.14L140.46,645.51L141.39,645.76L142.31,646.38L143.24,646.75L144.17,646.75L145.1,647.38L146.03,647.25L146.96,647.63L147.88,648.87L148.81,649.25L149.74,649.99L150.67,650.12L151.6,650.12L152.53,650.24L153.45,650.62L154.38,650.87L155.31,650.99L156.24,650.99L157.17,650.87L158.1,650.49L159.03,650.24L159.95,650.24L160.88,650.24L161.81,650.49L162.74,650.74L163.67,651.36L164.6,651.86L165.52,652.11L166.45,652.73L167.38,653.23L168.31,653.73L169.24,653.86L170.17,654.73L171.09,654.48L172.02,654.6L172.95,654.85L173.88,655.1L174.81,654.98L175.74,655.48L176.66,655.6L177.59,655.6L178.52,656.1L179.45,655.97L180.38,656.22L181.31,656.6L182.24,657.09L183.16,657.09L184.09,657.59L185.02,657.97L185.95,658.22L186.88,658.84L187.81,659.34L188.73,659.46L189.66,659.96L190.59,660.33L191.52,660.83L192.45,661.08L193.38,661.46L194.3,661.95L195.23,662.08L196.16,662.2L197.09,662.7L198.02,662.83L198.95,663.2L199.88,663.57L200.8,663.82L201.73,664.2L202.66,664.44L203.59,664.69L204.52,664.94L205.45,665.19L206.37,665.44L207.3,665.82L208.23,666.19L209.16,666.31L210.09,666.69L211.02,667.06L211.94,667.06L212.87,666.94L213.8,667.06L214.73,667.19L215.66,667.19L216.59,667.43L217.51,667.81L218.44,668.31L219.37,668.56L220.3,668.81L221.23,669.05L222.16,669.43L223.09,669.93L224.01,670.18L224.94,670.3L225.87,670.55L226.8,670.67L227.73,671.05L228.66,671.05L229.58,671.17L230.51,671.17L231.44,671.17L232.37,671.3L233.3,671.67L234.23,671.67L235.15,671.8L236.08,671.92L237.01,672.17L237.94,672.42L238.87,672.54L239.8,672.54L240.72,672.92L241.65,673.17L242.58,673.04L243.51,673.04L244.44,673.54L245.37,673.66L246.3,673.66L247.22,673.66L248.15,673.91L249.08,674.04L250.01,674.16L250.94,674.29L251.87,674.41L252.79,674.79L253.72,674.79L254.65,674.66L255.58,675.03L256.51,675.16L257.44,675.16L258.36,675.53L259.29,675.66L260.22,675.78L261.15,676.03L262.08,676.28L263.01,676.53L263.93,676.9L264.86,676.9L265.79,677.03L266.72,677.28L267.65,677.28L268.58,677.15L269.51,677.03L270.43,676.78L271.36,676.78L272.29,677.03L273.22,677.15L274.15,677.4L275.08,677.77L276,677.9L276.93,678.15L277.86,678.65L278.79,678.77L279.72,679.02L280.65,679.52L281.57,679.64L282.5,679.64L283.43,679.77L284.36,679.89L285.29,680.02L286.22,679.89L287.14,679.89L288.07,680.02L289,679.89L289.93,680.14L290.86,680.14L291.79,680.02L292.72,680.14L293.64,680.14L294.57,680.02L295.5,680.27L296.43,680.39L297.36,680.64L298.29,680.64L299.21,680.89L300.14,681.14L301.07,681.01L302,681.14L302.93,681.01L303.86,680.89L304.78,681.14L305.71,681.14L306.64,680.89L307.57,680.76L308.5,680.76L309.43,680.76L310.35,680.76L311.28,680.76L312.21,680.64L313.14,680.89L314.07,681.01L315,681.14L315.93,681.26L316.85,681.26L317.78,681.64L318.71,681.51L319.64,681.64L320.57,681.76L321.5,681.89L322.42,682.01L323.35,682.01L324.28,681.76L325.21,681.64L326.14,681.51L327.07,681.26L327.99,681.51L328.92,681.51L329.85,681.89L330.78,681.89L331.71,681.89L332.64,682.01L333.56,682.51L334.49,682.51L335.42,682.76L336.35,682.76L337.28,683.01L338.21,683.01L339.14,683.01L340.06,683.26L340.99,683.26L341.92,683.38L342.85,683.51L343.78,683.63L344.71,683.63L345.63,683.63L346.56,683.88L347.49,683.88L348.42,683.88L349.35,683.88L350.28,683.88L351.2,684L352.13,683.75L353.06,684.13L353.99,684L354.92,684L355.85,684.13L356.77,684.38L357.7,684.25L358.63,684.25L359.56,684.38L360.49,684.38L361.42,684.38L362.35,684.38L363.27,684.5L364.2,684.63L365.13,684.63L366.06,684.75L366.99,684.88L367.92,684.75L368.84,684.75L369.77,684.88L370.7,685L371.63,685.25L372.56,685.13L373.49,685.13L374.41,685.25L375.34,685.37L376.27,685.37L377.2,685.37L378.13,685.37L379.06,685.25L379.98,685.13L380.91,685L381.84,685L382.77,685.25L383.7,685.25L384.63,685.25L385.56,685.25L386.48,685.37L387.41,685.5L388.34,685.87L389.27,685.87L390.2,686L391.13,686.12L392.05,686.5L392.98,686.5L393.91,686.37L394.84,686.37L395.77,686.5L396.7,686.37L397.62,686.62L398.55,686.5L399.48,686.62L400.41,686.62L401.34,686.5L402.27,686.62L403.2,686.74L404.12,686.62L405.05,686.5L405.98,686.5L406.91,686.74L407.84,686.87L408.77,686.87L409.69,686.87L410.62,686.99L411.55,686.99L412.48,687.12L413.41,687.12L414.34,687.24L415.26,687.24L416.19,687.24L417.12,687.37L418.05,687.62L418.98,687.62L419.91,687.62L420.83,687.49L421.76,687.74L422.69,687.87L423.62,687.74L424.55,687.74L425.48,687.74L426.41,687.87L427.33,687.87L428.26,687.99L429.19,688.24L430.12,688.12L431.05,688.24L431.98,688.24L432.9,688.24L433.83,688.36L434.76,688.61L435.69,688.49L436.62,688.36L437.55,688.24L438.47,688.24L439.4,688.24L440.33,688.61L441.26,688.74L442.19,688.74L443.12,688.74L444.04,688.74L444.97,688.99L445.9,688.86L446.83,689.24L447.76,689.24L448.69,689.36L449.62,689.36L450.54,689.36L451.47,689.24L452.4,689.61L453.33,689.61L454.26,689.49L455.19,689.49L456.11,689.49L457.04,689.61L457.97,689.73L458.9,689.73L459.83,689.73L460.76,689.86L461.68,689.86L462.61,689.61L463.54,689.86L464.47,689.73L465.4,689.86L466.33,689.73L467.25,689.61L468.18,689.49L469.11,689.61L470.04,689.73L470.97,689.61L471.9,689.49L472.83,689.24L473.75,689.11L474.68,689.24L475.61,689.24L476.54,689.24L477.47,689.24L478.4,689.36L479.32,689.36L480.25,689.49L481.18,689.73L482.11,689.73L483.04,689.73L483.97,689.73L484.89,689.73L485.82,689.73L486.75,689.98L487.68,690.11L488.61,690.11L489.54,689.98L490.46,689.86L491.39,689.86L492.32,689.73L493.25,689.86L494.18,689.98L495.11,689.98L496.04,689.98L496.96,690.11L497.89,690.23L498.82,690.23L499.75,690.36L500.68,690.73L501.61,690.73L502.53,690.98L503.46,691.1L504.39,690.98L505.32,690.98L506.25,691.23L507.18,691.35L508.1,691.35L509.03,691.23L509.96,691.23L510.89,691.23L511.82,691.48L512.75,691.6L513.67,691.6L514.6,691.6L515.53,691.48L516.46,691.6L517.39,691.73L518.32,691.85L519.25,691.73L520.17,691.73L521.1,691.85L522.03,691.85L522.96,691.73L523.89,691.98L524.82,692.1L525.74,692.1L526.67,691.98L527.6,691.98L528.53,691.98L529.46,692.1L530.39,692.35L531.31,692.23L532.24,692.1L533.17,692.1L534.1,692.1L535.03,692.23L535.96,692.23L536.88,692.48L537.81,692.48L538.74,692.48L539.67,692.48L540.6,692.48L541.53,692.35L542.46,692.35L543.38,692.48L544.31,692.72L545.24,692.72L546.17,692.72L547.1,692.6L548.03,692.48L548.95,692.35L549.88,692.23L550.81,692.6L551.74,692.72L552.67,692.72L553.6,692.72L554.52,692.72L555.45,692.6L556.38,692.85L557.31,692.85L558.24,692.97L559.17,693.22L560.09,693.22L561.02,693.35L561.95,693.22L562.88,693.22L563.81,693.22L564.74,693.22L565.67,693.47L566.59,693.47L567.52,693.47L568.45,693.47L569.38,693.47L570.31,693.35L571.24,693.6L572.16,693.72L573.09,693.6L574.02,693.6L574.95,693.6L575.88,693.72L576.81,693.72L577.73,693.97L578.66,693.85L579.59,693.85L580.52,693.97L581.45,693.85L582.38,693.85L583.3,693.72L584.23,693.85L585.16,694.09L586.09,694.09L587.02,693.97L587.95,693.97L588.88,693.85L589.8,693.85L590.73,693.85L591.66,694.09L592.59,694.09L593.52,694.09L594.45,693.97L595.37,693.85L596.3,694.09L597.23,693.97L598.16,694.09L599.09,694.22L600.02,694.22L600.94,694.22L601.87,694.22L602.8,694.09L603.73,693.97L604.66,693.85L605.59,693.72L606.52,693.72L607.44,693.85L608.37,693.97L609.3,693.85L610.23,693.85L611.16,693.85L612.09,693.85L613.01,693.97L613.94,693.97L614.87,694.22L615.8,694.34L616.73,694.34L617.66,694.34L618.58,694.34L619.51,694.34L620.44,694.34L621.37,694.34L622.3,694.59L623.23,694.59L624.15,694.47L625.08,694.72L626.01,694.72L626.94,694.59L627.87,694.59L628.8,694.59L629.73,694.72L630.65,694.84L631.58,694.84L632.51,694.84L633.44,694.72L634.37,694.72L635.3,694.72L636.22,694.72L637.15,694.97L638.08,694.97L639.01,694.97L639.94,694.84L640.87,694.72L641.79,694.84L642.72,694.84L643.65,694.72L644.58,694.97L645.51,694.97L646.44,694.97L647.36,694.97L648.29,695.09L649.22,694.97L650.15,694.97L651.08,694.97L652.01,695.09L652.94,695.22L653.86,695.34L654.79,695.34L655.72,695.34L656.65,695.34L657.58,695.22L658.51,695.09L659.43,695.09L660.36,695.09L661.29,695.09L662.22,695.22L663.15,695.09L664.08,695.09L665,694.97L665.93,694.97L666.86,694.97L667.79,695.22L668.72,695.22L669.65,695.09L670.57,695.59L671.5,695.47L672.43,695.47L673.36,695.59L674.29,695.59L675.22,695.59L676.15,695.47L677.07,695.47L678,695.47L678.93,695.71L679.86,695.84L680.79,695.71L681.72,695.71L682.64,695.71L683.57,695.71L684.5,695.71L685.43,695.71L686.36,696.09L687.29,695.96L688.21,695.96L689.14,695.96L690.07,695.96L691,696.09L691.93,695.96L692.86,695.84L693.78,696.09L694.71,696.09L695.64,695.96L696.57,695.96L697.5,695.96L698.43,695.96L699.36,695.96L700.28,695.96L701.21,695.84L702.14,696.21L703.07,696.34L704,696.21L704.93,696.21L705.85,696.21L706.78,696.21L707.71,696.21L708.64,696.21L709.57,696.34L710.5,696.46L711.42,696.46L712.35,696.46L713.28,696.46L714.21,696.34L715.14,696.21L716.07,696.34L716.99,696.21L717.92,696.21L718.85,696.21L719.78,696.09L720.71,696.09L721.64,696.34L722.57,696.34L723.49,696.34L724.42,696.59L725.35,696.59L726.28,696.59L727.21,696.59L728.14,696.59L729.06,696.84L729.99,696.96L730.92,696.96L731.85,696.96L732.78,696.84L733.71,696.96L734.63,696.84L735.56,696.96L736.49,697.21L737.42,697.21L738.35,697.08L739.28,697.08L740.2,696.96L741.13,697.08L742.06,697.08L742.99,697.08L743.92,697.08L744.85,697.33L745.78,697.33L746.7,697.21L747.63,697.33L748.56,697.33L749.49,697.33L750.42,697.21L751.35,697.08L752.27,696.96L753.2,697.21L754.13,697.33L755.06,697.33L755.99,697.33L756.92,697.33L757.84,697.21L758.77,697.21L759.7,697.21L760.63,697.33L761.56,697.33L762.49,697.58L763.41,697.58L764.34,697.46L765.27,697.46L766.2,697.46L767.13,697.58L768.06,697.58L768.99,697.46L769.91,697.33L770.84,697.21L771.77,697.08L772.7,697.33L773.63,697.21L774.56,697.21L775.48,697.08L776.41,697.21L777.34,697.21L778.27,697.21L779.2,697.21L780.13,697.21L781.05,697.21L781.98,697.21L782.91,697.46L783.84,697.46L784.77,697.58L785.7,697.58L786.62,697.46L787.55,697.46L788.48,697.46L789.41,697.58L790.34,697.46L791.27,697.58L792.2,697.71L793.12,697.71L794.05,697.71L794.98,697.71L795.91,697.96L796.84,697.83L797.77,697.83L798.69,697.83L799.62,697.96L800.55,698.08L801.48,698.08L802.41,698.21L803.34,698.08L804.26,698.08L805.19,698.08L806.12,698.08L807.05,697.96L807.98,697.96L808.91,698.08L809.84,698.33L810.76,698.21L811.69,698.21L812.62,698.21L813.55,698.21L814.48,698.21L815.41,698.21L816.33,698.08L817.26,698.21L818.19,698.33L819.12,698.46L820.05,698.46L820.98,698.46L821.9,698.33L822.83,698.33L823.76,698.33L824.69,698.08L825.62,698.21L826.55,698.08L827.47,697.96L828.4,697.83L829.33,697.71L830.26,697.71L831.19,697.71L832.12,697.71L833.05,697.71L833.97,697.71L834.9,697.96L835.83,697.96L836.76,697.96L837.69,697.96L838.62,697.96L839.54,697.83L840.47,697.83L841.4,697.96L842.33,698.21L843.26,698.21L844.19,698.08L845.11,698.08L846.04,697.96L846.97,697.96L847.9,697.96L848.83,697.96L849.76,698.08L850.68,698.21L851.61,698.21L852.54,698.21L853.47,698.21L854.4,698.08L855.33,698.08L856.26,697.96L857.18,698.21L858.11,698.08L859.04,698.08L859.97,698.08L860.9,698.08L861.83,698.21L862.75,698.21L863.68,698.08L864.61,698.21L865.54,698.21L866.47,698.08L867.4,698.08L868.32,698.08L869.25,698.08L870.18,698.21L871.11,698.33L872.04,698.46L872.97,698.46L873.89,698.46L874.82,698.46L875.75,698.33L876.68,698.33L877.61,698.33L878.54,698.33L879.47,698.33L880.39,698.33L881.32,698.33L882.25,698.33L883.18,698.33L884.11,698.08L885.04,698.08L885.96,697.96L886.89,697.96L887.82,697.83L888.75,697.83L889.68,697.96L890.61,697.96L891.53,698.08L892.46,698.08L893.39,698.21L894.32,698.33L895.25,698.33L896.18,698.21L897.1,698.46L898.03,698.33L898.96,698.33L899.89,698.33L900.82,698.21L901.75,698.21L902.68,698.21L903.6,698.21L904.53,698.46L905.46,698.46L906.39,698.46L907.32,698.46L908.25,698.33L909.17,698.33L910.1,698.33L911.03,698.33L911.96,698.33L912.89,698.33L913.82,698.46L914.74,698.58L915.67,698.46L916.6,698.46L917.53,698.46L918.46,698.33L919.39,698.46L920.31,698.46L921.24,698.46L922.17,698.46L923.1,698.58L924.03,698.7L924.96,698.7L925.89,698.7L926.81,698.83L927.74,698.83L928.67,698.83L929.6,698.83L930.53,698.83L931.46,698.83L932.38,698.83L933.31,698.83L934.24,698.83L935.17,699.2L936.1,699.08L937.03,699.08L937.95,698.95L938.88,698.83L939.81,698.83L940.74,698.83L941.67,698.7L942.6,698.7L943.52,698.58L944.45,698.58L945.38,698.7L946.31,698.7L947.24,698.83L948.17,699.08L949.1,699.08L950.02,699.08L950.95,698.95L951.88,698.95L952.81,698.95L953.74,699.08L954.67,699.08L955.59,699.08L956.52,699.08L957.45,698.95L958.38,699.2L959.31,699.2L960.24,699.2L961.16,699.33L962.09,699.2L963.02,699.2L963.95,699.2L964.88,699.2L965.81,699.2L966.73,699.08L967.66,699.2L968.59,699.58L969.52,699.45L970.45,699.45L971.38,699.33L972.31,699.33L973.23,699.33L974.16,699.33L975.09,699.33L976.02,699.33L976.95,699.33L977.88,699.33L978.8,699.58L979.73,699.58L980.66,699.58L981.59,699.58L982.52,699.45L983.45,699.45L984.37,699.58L985.3,699.58L986.23,699.7L987.16,699.7L988.09,699.58L989.02,699.95L989.95,699.83L990.87,699.83L991.8,699.83L992.73,699.95L993.66,699.95L994.59,699.83L995.52,699.7L996.44,699.7L997.37,699.83L998.3,699.7L999.23,699.83L1000.2,699.83L1001.1,699.83L1002,700.2L1002.9,700.32L1003.9,700.32L1004.8,700.45L1005.7,700.32L1006.7,700.32L1007.6,700.32L1008.5,700.32L1009.4,700.32L1010.4,700.45L1011.3,700.45L1012.2,700.57L1013.2,700.7L1014.1,700.57L1015,700.57L1015.9,700.57L1016.9,700.57L1017.8,700.57L1018.7,700.57L1019.7,700.57L1020.6,700.57L1021.5,700.45L1022.4,700.45L1023.4,700.82L1024.3,700.7L1025.2,700.7L1026.2,700.82L1027.1,700.82L1028,700.7L1028.9,700.7L1029.9,700.7L1030.8,700.7L1031.7,700.7L1032.7,700.57L1033.6,700.57L1034.5,700.95L1035.4,700.95L1036.4,700.95L1037.3,700.82L1038.2,700.95L1039.2,700.82L1040.1,700.82L1041,700.82L1041.9,700.82L1042.9,700.82L1043.8,700.95L1044.7,700.95L1045.6,700.95L1046.6,701.2L1047.5,701.2L1048.4,701.07L1049.4,700.95L1050.3,700.82L1051.2,700.82L1052.1,700.82L1053.1,700.82L1054,700.95L1054.9,700.82L1055.9,700.82L1056.8,700.82L1057.7,700.82L1058.6,700.95L1059.6,701.07L1060.5,701.2L1061.4,701.2L1062.4,701.07L1063.3,701.2L1064.2,701.2L1065.1,701.2L1066.1,701.2L1067,701.2L1067.9,701.2L1068.9,701.07L1069.8,701.2L1070.7,701.44L1071.6,701.44L1072.6,701.44L1073.5,701.44L1074.4,701.44L1075.4,701.32L1076.3,701.32L1077.2,701.32L1078.1,701.32L1079.1,701.44L1080,701.44" style="fill:none;stroke:#F15A60;stroke-width:1.875" />
<path d="M53.188,126.26L54.116,198.77L55.044,239.5L55.973,257.07L56.901,269.78L57.83,294.82L58.758,302.92L59.686,322.35L60.615,333.31L61.543,335.43L62.472,338.79L63.4,339.92L64.328,342.41L65.257,369.94L66.185,391.87L67.114,390.62L68.042,389.62L68.97,385.51L69.899,382.4L70.827,379.41L71.756,376.79L72.684,376.79L73.612,375.79L74.541,375.67L75.469,374.92L76.398,374.3L77.326,373.18L78.254,372.18L79.183,372.31L80.111,371.56L81.04,371.06L81.968,369.44L82.896,368.2L83.825,366.33L84.753,365.45L85.682,364.21L86.61,363.46L87.538,362.34L88.467,361.09L89.395,359.72L90.324,358.98L91.252,358.23L92.18,357.11L93.109,356.61L94.037,356.86L94.966,355.99L95.894,355.36L96.822,354.24L97.751,353.62L98.679,353.99L99.608,353.87L100.54,353.99L101.46,354.12L102.39,354.62L103.32,354.37L104.25,355.11L105.18,355.49L106.11,355.99L107.03,355.61L107.96,355.74L108.89,354.87L109.82,354.12L110.75,353.25L111.68,352.62L112.61,353.74L113.53,353.87L114.46,353.99L115.39,353.5L116.32,353.25L117.25,353L118.18,352.75L119.1,352.75L120.03,352.5L120.96,353.25L121.89,353L122.82,352.25L123.75,351.5L124.67,350.88L125.6,350.26L126.53,349.51L127.46,349.26L128.39,349.13L129.32,349.38L130.24,349.51L131.17,349.38L132.1,349.26L133.03,349.38L133.96,349.38L134.89,349.26L135.82,349.38L136.74,349.26L137.67,348.89L138.6,348.39L139.53,347.76L140.46,347.52L141.39,347.39L142.31,346.77L143.24,346.39L144.17,345.9L145.1,345.27L146.03,344.9L146.96,344.4L147.88,344.03L148.81,343.53L149.74,343.4L150.67,342.91L151.6,343.4L152.53,343.28L153.45,343.53L154.38,345.52L155.31,345.4L156.24,346.02L157.17,346.02L158.1,346.77L159.03,346.77L159.95,346.89L160.88,346.89L161.81,346.89L162.74,346.77L163.67,347.02L164.6,347.14L165.52,346.77L166.45,346.39L167.38,346.02L168.31,346.02L169.24,345.9L170.17,346.27L171.09,346.02L172.02,346.02L172.95,345.9L173.88,345.9L174.81,345.9L175.74,345.77L176.66,345.77L177.59,345.4L178.52,345.02L179.45,344.53L180.38,344.28L181.31,344.03L182.24,343.65L183.16,343.65L184.09,343.65L185.02,343.53L185.95,343.4L186.88,343.4L187.81,343.53L188.73,343.53L189.66,343.65L190.59,343.65L191.52,343.9L192.45,343.78L193.38,343.53L194.3,343.15L195.23,342.91L196.16,342.53L197.09,342.41L198.02,342.03L198.95,341.66L199.88,341.41L200.8,341.29L201.73,341.16L202.66,340.91L203.59,340.66L204.52,340.41L205.45,340.29L206.37,340.04L207.3,339.79L208.23,339.54L209.16,339.54L210.09,339.54L211.02,339.42L211.94,339.54L212.87,339.54L213.8,339.54L214.73,339.42L215.66,339.42L216.59,339.42L217.51,339.42L218.44,339.29L219.37,339.04L220.3,338.92L221.23,338.55L222.16,338.42L223.09,338.17L224.01,338.17L224.94,338.05L225.87,338.05L226.8,339.42L227.73,339.54L228.66,339.54L229.58,339.67L230.51,339.79L231.44,339.79L232.37,339.79L233.3,339.67L234.23,340.91L235.15,340.79L236.08,340.91L237.01,340.66L237.94,340.66L238.87,340.66L239.8,340.79L240.72,340.79L241.65,340.79L242.58,340.79L243.51,341.16L244.44,341.29L245.37,341.29L246.3,342.16L247.22,342.16L248.15,342.41L249.08,342.28L250.01,342.16L250.94,342.03L251.87,342.03L252.79,341.78L253.72,341.91L254.65,341.78L255.58,341.66L256.51,341.54L257.44,341.29L258.36,341.29L259.29,341.04L260.22,341.04L261.15,340.79L262.08,340.79L263.01,340.66L263.93,340.66L264.86,340.41L265.79,340.41L266.72,340.41L267.65,340.41L268.58,340.41L269.51,340.41L270.43,340.54L271.36,340.66L272.29,340.54L273.22,340.66L274.15,340.79L275.08,340.79L276,340.66L276.93,340.54L277.86,340.41L278.79,340.54L279.72,340.66L280.65,340.79L281.57,340.66L282.5,340.54L283.43,340.54L284.36,340.54L285.29,340.66L286.22,340.66L287.14,340.66L288.07,340.66L289,340.66L289.93,340.66L290.86,340.54L291.79,340.41L292.72,340.29L293.64,340.17L294.57,340.04L295.5,340.04L296.43,340.04L297.36,340.91L298.29,341.16L299.21,341.16L300.14,341.04L301.07,341.04L302,341.16L302.93,341.04L303.86,341.04L304.78,340.91L305.71,340.79L306.64,340.66L307.57,340.54L308.5,340.41L309.43,340.17L310.35,340.04L311.28,339.79L312.21,339.67L313.14,339.42L314.07,339.42L315,339.29L315.93,339.17L316.85,339.04L317.78,338.79L318.71,338.67L319.64,338.42L320.57,338.3L321.5,338.42L322.42,338.42L323.35,338.42L324.28,338.42L325.21,338.42L326.14,338.55L327.07,338.42L327.99,338.42L328.92,338.42L329.85,338.55L330.78,338.42L331.71,338.17L332.64,338.05L333.56,337.92L334.49,337.8L335.42,337.67L336.35,337.8L337.28,337.8L338.21,337.8L339.14,337.8L340.06,337.8L340.99,337.8L341.92,337.8L342.85,337.67L343.78,337.67L344.71,337.67L345.63,337.67L346.56,337.55L347.49,337.3L348.42,337.3L349.35,337.05L350.28,336.93L351.2,336.93L352.13,336.93L353.06,336.93L353.99,336.8L354.92,336.93L355.85,336.93L356.77,336.93L357.7,336.93L358.63,336.93L359.56,336.93L360.49,336.8L361.42,336.68L362.35,336.68L363.27,336.43L364.2,336.43L365.13,336.18L366.06,336.18L366.99,336.05L367.92,335.93L368.84,335.8L369.77,335.68L370.7,335.56L371.63,335.43L372.56,335.31L373.49,335.31L374.41,335.18L375.34,335.06L376.27,334.93L377.2,334.93L378.13,334.93L379.06,334.93L379.98,334.93L380.91,335.06L381.84,335.06L382.77,335.06L383.7,335.06L384.63,335.18L385.56,335.18L386.48,335.06L387.41,334.93L388.34,334.93L389.27,334.68L390.2,334.56L391.13,334.56L392.05,334.56L392.98,334.43L393.91,334.56L394.84,334.56L395.77,334.56L396.7,334.43L397.62,336.18L398.55,336.05L399.48,336.05L400.41,337.8L401.34,337.42L402.27,339.54L403.2,339.92L404.12,339.67L405.05,339.54L405.98,339.42L406.91,339.42L407.84,339.42L408.77,339.42L409.69,339.42L410.62,339.29L411.55,339.42L412.48,339.29L413.41,340.04L414.34,340.17L415.26,340.17L416.19,340.79L417.12,340.91L418.05,340.91L418.98,340.79L419.91,340.66L420.83,340.54L421.76,340.41L422.69,340.29L423.62,340.17L424.55,340.17L425.48,340.04L426.41,340.04L427.33,339.92L428.26,339.79L429.19,339.79L430.12,339.67L431.05,339.67L431.98,339.54L432.9,339.67L433.83,339.67L434.76,339.67L435.69,339.67L436.62,339.67L437.55,340.04L438.47,340.04L439.4,340.17L440.33,340.17L441.26,340.17L442.19,340.04L443.12,339.92L444.04,339.79L444.97,339.79L445.9,339.67L446.83,339.67L447.76,339.67L448.69,339.67L449.62,339.67L450.54,339.67L451.47,339.67L452.4,339.67L453.33,339.67L454.26,339.67L455.19,339.67L456.11,339.67L457.04,339.54L457.97,339.54L458.9,339.42L459.83,339.42L460.76,339.29L461.68,339.29L462.61,339.29L463.54,339.29L464.47,339.17L465.4,339.17L466.33,339.17L467.25,339.17L468.18,339.17L469.11,339.17L470.04,339.17L470.97,339.04L471.9,339.04L472.83,338.92L473.75,338.92L474.68,338.79L475.61,338.67L476.54,338.67L477.47,338.67L478.4,338.42L479.32,338.42L480.25,338.42L481.18,338.3L482.11,338.3L483.04,338.17L483.97,338.05L484.89,338.05L485.82,337.92L486.75,337.8L487.68,337.8L488.61,337.8L489.54,337.92L490.46,337.8L491.39,337.8L492.32,337.92L493.25,337.8L494.18,337.92L495.11,337.92L496.04,337.92L496.96,337.8L497.89,337.8L498.82,337.67L499.75,337.67L500.68,337.67L501.61,337.55L502.53,337.55L503.46,337.55L504.39,337.55L505.32,337.67L506.25,337.55L507.18,337.55L508.1,337.67L509.03,337.55L509.96,337.55L510.89,337.67L511.82,337.67L512.75,337.55L513.67,337.55L514.6,338.79L515.53,338.55L516.46,338.42L517.39,338.42L518.32,339.92L519.25,339.67L520.17,339.67L521.1,339.54L522.03,339.67L522.96,339.54L523.89,339.54L524.82,339.67L525.74,339.67L526.67,339.54L527.6,340.04L528.53,341.04L529.46,340.91L530.39,340.79L531.31,340.66L532.24,340.66L533.17,340.54L534.1,340.54L535.03,340.54L535.96,340.41L536.88,340.29L537.81,340.29L538.74,340.17L539.67,340.17L540.6,340.04L541.53,340.04L542.46,339.92L543.38,340.04L544.31,339.92L545.24,340.04L546.17,340.04L547.1,340.04L548.03,340.04L548.95,340.17L549.88,340.17L550.81,340.17L551.74,340.17L552.67,340.17L553.6,340.04L554.52,340.66L555.45,340.79L556.38,340.66L557.31,340.66L558.24,340.66L559.17,340.66L560.09,340.79L561.02,340.79L561.95,340.79L562.88,340.91L563.81,340.91L564.74,340.91L565.67,340.91L566.59,341.04L567.52,340.91L568.45,340.91L569.38,340.91L570.31,340.91L571.24,340.79L572.16,340.66L573.09,340.66L574.02,340.66L574.95,340.66L575.88,341.29L576.81,341.54L577.73,341.54L578.66,341.54L579.59,341.54L580.52,341.54L581.45,341.54L582.38,341.54L583.3,341.41L584.23,341.41L585.16,341.29L586.09,341.29L587.02,341.66L587.95,341.91L588.88,341.91L589.8,341.78L590.73,341.78L591.66,341.66L592.59,341.66L593.52,341.54L594.45,341.54L595.37,341.54L596.3,341.41L597.23,341.41L598.16,341.29L599.09,341.29L600.02,341.29L600.94,341.41L601.87,341.41L602.8,341.41L603.73,341.41L604.66,341.41L605.59,341.41L606.52,341.54L607.44,341.54L608.37,341.41L609.3,341.29L610.23,341.29L611.16,341.16L612.09,341.16L613.01,341.16L613.94,341.04L614.87,341.16L615.8,341.16L616.73,341.16L617.66,341.16L618.58,341.04L619.51,341.04L620.44,341.04L621.37,340.91L622.3,340.91L623.23,340.91L624.15,340.91L625.08,340.79L626.01,340.79L626.94,340.66L627.87,340.66L628.8,340.54L629.73,340.66L630.65,340.66L631.58,340.66L632.51,340.66L633.44,340.66L634.37,340.79L635.3,340.79L636.22,340.79L637.15,340.79L638.08,340.79L639.01,341.78L639.94,343.15L640.87,342.78L641.79,344.28L642.72,345.4L643.65,345.15L644.58,344.9L645.51,344.9L646.44,344.65L647.36,344.65L648.29,344.65L649.22,344.53L650.15,344.4L651.08,344.4L652.01,344.28L652.94,344.28L653.86,344.15L654.79,344.15L655.72,344.03L656.65,344.15L657.58,344.15L658.51,344.15L659.43,344.15L660.36,344.15L661.29,345.4L662.22,347.52L663.15,347.52L664.08,347.39L665,347.27L665.93,347.14L666.86,347.14L667.79,347.02L668.72,346.89L669.65,346.89L670.57,347.02L671.5,347.02L672.43,346.89L673.36,346.89L674.29,346.89L675.22,346.89L676.15,346.77L677.07,346.89L678,346.89L678.93,346.77L679.86,346.77L680.79,346.77L681.72,346.64L682.64,346.64L683.57,346.64L684.5,346.52L685.43,346.52L686.36,346.52L687.29,346.52L688.21,346.52L689.14,346.52L690.07,346.64L691,346.64L691.93,346.64L692.86,346.64L693.78,346.77L694.71,346.64L695.64,346.64L696.57,346.64L697.5,346.52L698.43,347.14L699.36,347.39L700.28,347.39L701.21,347.27L702.14,347.14L703.07,347.14L704,347.14L704.93,347.02L705.85,347.02L706.78,346.89L707.71,346.77L708.64,346.77L709.57,346.77L710.5,346.64L711.42,346.64L712.35,346.64L713.28,346.64L714.21,346.64L715.14,346.77L716.07,346.64L716.99,346.64L717.92,346.77L718.85,346.77L719.78,346.64L720.71,346.64L721.64,346.64L722.57,346.52L723.49,346.52L724.42,346.39L725.35,346.39L726.28,346.39L727.21,346.39L728.14,346.27L729.06,346.27L729.99,346.39L730.92,346.39L731.85,346.27L732.78,346.27L733.71,346.27L734.63,346.39L735.56,346.27L736.49,346.14L737.42,346.14L738.35,346.02L739.28,346.02L740.2,345.9L741.13,346.02L742.06,345.9L742.99,346.27L743.92,346.64L744.85,346.64L745.78,346.64L746.7,346.64L747.63,346.64L748.56,346.64L749.49,346.64L750.42,346.64L751.35,346.52L752.27,346.52L753.2,346.39L754.13,346.39L755.06,348.26L755.99,348.14L756.92,348.14L757.84,349.38L758.77,349.26L759.7,349.13L760.63,349.01L761.56,349.01L762.49,348.89L763.41,348.89L764.34,348.89L765.27,348.76L766.2,348.76L767.13,348.76L768.06,348.76L768.99,348.76L769.91,348.76L770.84,348.76L771.77,348.76L772.7,348.76L773.63,348.64L774.56,348.64L775.48,348.64L776.41,348.64L777.34,348.51L778.27,348.51L779.2,348.39L780.13,348.39L781.05,348.39L781.98,348.39L782.91,348.39L783.84,348.39L784.77,348.39L785.7,348.26L786.62,348.26L787.55,348.26L788.48,348.39L789.41,348.39L790.34,348.26L791.27,348.26L792.2,348.26L793.12,348.14L794.05,348.14L794.98,348.01L795.91,348.14L796.84,348.14L797.77,348.14L798.69,348.14L799.62,348.14L800.55,348.14L801.48,348.14L802.41,348.14L803.34,349.63L804.26,349.76L805.19,350.13L806.12,350.51L807.05,350.63L807.98,350.63L808.91,350.75L809.84,350.75L810.76,350.75L811.69,350.75L812.62,350.63L813.55,350.63L814.48,350.63L815.41,350.63L816.33,350.51L817.26,350.51L818.19,350.51L819.12,350.38L820.05,350.38L820.98,350.38L821.9,350.26L822.83,350.26L823.76,350.26L824.69,350.26L825.62,350.38L826.55,350.88L827.47,351L828.4,352.37L829.33,352.25L830.26,352.12L831.19,352.12L832.12,352.12L833.05,352L833.97,352L834.9,351.88L835.83,351.88L836.76,351.75L837.69,351.75L838.62,351.75L839.54,351.75L840.47,351.75L841.4,351.75L842.33,351.75L843.26,351.63L844.19,351.63L845.11,351.63L846.04,351.63L846.97,351.63L847.9,351.5L848.83,351.5L849.76,351.38L850.68,351.63L851.61,353.12L852.54,353L853.47,352.87L854.4,352.87L855.33,352.87L856.26,352.87L857.18,352.87L858.11,352.75L859.04,352.75L859.97,352.75L860.9,352.75L861.83,352.62L862.75,352.62L863.68,352.62L864.61,352.5L865.54,352.5L866.47,352.5L867.4,352.37L868.32,352.37L869.25,352.37L870.18,352.25L871.11,352.25L872.04,352.12L872.97,352.12L873.89,352.5L874.82,352.87L875.75,352.87L876.68,352.75L877.61,352.75L878.54,352.75L879.47,352.75L880.39,352.75L881.32,352.75L882.25,353.12L883.18,353.62L884.11,353.62L885.04,353.62L885.96,353.5L886.89,353.5L887.82,353.5L888.75,353.37L889.68,353.37L890.61,353.37L891.53,353.37L892.46,353.25L893.39,353.25L894.32,353.25L895.25,353.25L896.18,353.25L897.1,353.25L898.03,353.25L898.96,353.12L899.89,353.12L900.82,353.12L901.75,353L902.68,353L903.6,353L904.53,352.87L905.46,352.75L906.39,352.87L907.32,352.75L908.25,352.87L909.17,352.75L910.1,352.87L911.03,352.87L911.96,352.87L912.89,352.87L913.82,352.75L914.74,354.62L915.67,354.87L916.6,354.74L917.53,354.74L918.46,354.62L919.39,354.62L920.31,354.62L921.24,354.49L922.17,354.49L923.1,354.49L924.03,354.37L924.96,354.37L925.89,354.37L926.81,354.37L927.74,354.37L928.67,354.24L929.6,354.24L930.53,354.24L931.46,354.12L932.38,354.12L933.31,354.12L934.24,354.12L935.17,354.24L936.1,354.24L937.03,354.24L937.95,354.12L938.88,354.12L939.81,354.12L940.74,354.24L941.67,354.12L942.6,354.12L943.52,354.12L944.45,354.12L945.38,354.12L946.31,353.99L947.24,353.99L948.17,353.99L949.1,353.99L950.02,355.86L950.95,356.24L951.88,356.11L952.81,356.11L953.74,355.99L954.67,355.99L955.59,355.86L956.52,355.86L957.45,355.86L958.38,355.74L959.31,355.74L960.24,355.74L961.16,355.61L962.09,355.61L963.02,355.49L963.95,355.61L964.88,355.61L965.81,355.61L966.73,355.61L967.66,355.61L968.59,355.61L969.52,355.61L970.45,355.74L971.38,355.74L972.31,355.74L973.23,355.74L974.16,355.74L975.09,356.11L976.02,356.48L976.95,356.86L977.88,358.85L978.8,358.73L979.73,358.6L980.66,358.6L981.59,358.48L982.52,358.35L983.45,358.35L984.37,358.23L985.3,358.23L986.23,358.23L987.16,358.1L988.09,358.23L989.02,358.1L989.95,358.1L990.87,358.1L991.8,358.1L992.73,358.1L993.66,358.1L994.59,358.1L995.52,358.1L996.44,358.1L997.37,358.1" style="fill:none;stroke:#7AC36A;stroke-width:1.875;stroke-dasharray:7.5,2.5" />
<path d="M53.188,179.08L54.116,215.71L55.044,236.89L55.973,252.09L56.901,270.65L57.83,276.63L58.758,298.8L59.686,307.53L60.615,312.01L61.543,315.62L62.472,318.36L63.4,322.23L64.328,328.58L65.257,355.61L66.185,354.12L67.114,361.72L68.042,358.6L68.97,357.11L69.899,355.99L70.827,354.99L71.756,354.62L72.684,353.87L73.612,353.25L74.541,353.12L75.469,352.5L76.398,351.5L77.326,350.88L78.254,350.63L79.183,349.01L80.111,347.52L81.04,346.89L81.968,345.27L82.896,344.53L83.825,343.78L84.753,343.03L85.682,341.78L86.61,341.16L87.538,340.66L88.467,339.92L89.395,339.17L90.324,338.67L91.252,337.55L92.18,337.05L93.109,337.55L94.037,337.05L94.966,336.3L95.894,335.56L96.822,334.81L97.751,334.31L98.679,333.69L99.608,333.31L100.54,333.06L101.46,332.32L102.39,332.32L103.32,331.69L104.25,331.32L105.18,331.32L106.11,330.7L107.03,329.95L107.96,329.45L108.89,328.95L109.82,329.95L110.75,330.45L111.68,330.57L112.61,330.57L113.53,330.57L114.46,330.95L115.39,330.82L116.32,330.7L117.25,330.95L118.18,330.7L119.1,331.44L120.03,331.82L120.96,331.82L121.89,331.2L122.82,330.57L123.75,330.2L124.67,329.82L125.6,329.58L126.53,329.82L127.46,329.7L128.39,329.82L129.32,329.82L130.24,329.58L131.17,329.58L132.1,329.58L133.03,329.33L133.96,329.45L134.89,329.2L135.82,328.83L136.74,328.45L137.67,328.08L138.6,327.83L139.53,327.71L140.46,327.46L141.39,327.21L142.31,326.71L143.24,326.46L144.17,325.96L145.1,325.71L146.03,325.46L146.96,325.22L147.88,324.97L148.81,326.21L149.74,325.96L150.67,325.96L151.6,325.59L152.53,325.22L153.45,325.22L154.38,325.96L155.31,325.59L156.24,325.34L157.17,325.22L158.1,325.34L159.03,325.46L159.95,325.22L160.88,324.97L161.81,324.59L162.74,324.34L163.67,324.22L164.6,323.85L165.52,323.85L166.45,323.85L167.38,323.85L168.31,323.97L169.24,324.09L170.17,324.09L171.09,324.09L172.02,324.22L172.95,324.22L173.88,324.34L174.81,324.34L175.74,324.34L176.66,324.22L177.59,324.09L178.52,323.97L179.45,323.72L180.38,323.47L181.31,323.22L182.24,323.35L183.16,323.22L184.09,323.22L185.02,323.22L185.95,323.22L186.88,323.1L187.81,323.22L188.73,323.47L189.66,323.35L190.59,323.22L191.52,322.97L192.45,322.72L193.38,322.47L194.3,322.35L195.23,321.98L196.16,321.85L197.09,321.6L198.02,321.48L198.95,321.23L199.88,321.1L200.8,320.86L201.73,320.73L202.66,320.61L203.59,320.48L204.52,320.23L205.45,319.98L206.37,319.98L207.3,319.86L208.23,319.61L209.16,319.48L210.09,319.24L211.02,319.11L211.94,318.99L212.87,318.74L213.8,318.49L214.73,318.36L215.66,318.24L216.59,318.24L217.51,318.11L218.44,317.87L219.37,317.74L220.3,317.49L221.23,317.49L222.16,317.62L223.09,317.74L224.01,317.74L224.94,317.99L225.87,317.99L226.8,318.11L227.73,317.99L228.66,318.11L229.58,318.24L230.51,318.24L231.44,318.36L232.37,318.24L233.3,317.99L234.23,317.99L235.15,317.87L236.08,317.62L237.01,317.49L237.94,317.49L238.87,317.49L239.8,317.62L240.72,317.62L241.65,317.62L242.58,317.74L243.51,317.87L244.44,318.61L245.37,318.74L246.3,318.61L247.22,318.36L248.15,318.11L249.08,318.11L250.01,317.99L250.94,317.99L251.87,317.74L252.79,317.74L253.72,317.62L254.65,317.49L255.58,317.37L256.51,317.24L257.44,317.12L258.36,317.12L259.29,316.99L260.22,316.87L261.15,316.74L262.08,316.62L263.01,316.62L263.93,316.49L264.86,316.37L265.79,316.25L266.72,316.37L267.65,316.25L268.58,316.25L269.51,316.12L270.43,316L271.36,315.87L272.29,315.87L273.22,315.75L274.15,315.75L275.08,315.62L276,315.37L276.93,315.37L277.86,315.5L278.79,315.5L279.72,315.62L280.65,315.62L281.57,315.75L282.5,315.87L283.43,315.87L284.36,316L285.29,316L286.22,316.12L287.14,316.12L288.07,316L289,316L289.93,315.87L290.86,315.75L291.79,315.62L292.72,315.75L293.64,315.75L294.57,315.75L295.5,315.75L296.43,315.87L297.36,315.87L298.29,315.87L299.21,316L300.14,316L301.07,316.12L302,316L302.93,315.87L303.86,315.75L304.78,315.75L305.71,315.62L306.64,315.5L307.57,315.5L308.5,315.5L309.43,315.37L310.35,315.25L311.28,315.25L312.21,315.12L313.14,315.12L314.07,315L315,314.88L315.93,314.75L316.85,314.75L317.78,314.75L318.71,314.63L319.64,314.5L320.57,314.38L321.5,314.38L322.42,314.25L323.35,314.13L324.28,314.13L325.21,314L326.14,313.88L327.07,313.88L327.99,313.75L328.92,313.75L329.85,313.63L330.78,313.63L331.71,313.51L332.64,313.51L333.56,313.51L334.49,313.63L335.42,313.75L336.35,313.75L337.28,313.75L338.21,313.88L339.14,313.88L340.06,314L340.99,314L341.92,314.13L342.85,314.13L343.78,314.13L344.71,314L345.63,313.75L346.56,313.75L347.49,313.63L348.42,313.75L349.35,313.75L350.28,313.75L351.2,313.75L352.13,313.88L353.06,313.88L353.99,313.88L354.92,314L355.85,314.13L356.77,314.13L357.7,314L358.63,314L359.56,313.88L360.49,313.88L361.42,313.75L362.35,313.63L363.27,313.51L364.2,313.51L365.13,313.51L366.06,313.51L366.99,313.38L367.92,313.26L368.84,313.26L369.77,313.26L370.7,313.13L371.63,313.13L372.56,313.01L373.49,312.88L374.41,312.88L375.34,312.76L376.27,312.63L377.2,312.63L378.13,312.63L379.06,312.51L379.98,312.51L380.91,312.38L381.84,312.38L382.77,312.26L383.7,312.26L384.63,312.26L385.56,312.13L386.48,312.13L387.41,312.76L388.34,315.12L389.27,314.88L390.2,314.88L391.13,316.62L392.05,316.62L392.98,316.74L393.91,316.62L394.84,316.74L395.77,316.74L396.7,316.74L397.62,316.74L398.55,316.87L399.48,316.87L400.41,316.74L401.34,316.62L402.27,316.62L403.2,316.49L404.12,316.62L405.05,316.62L405.98,316.62L406.91,316.62L407.84,316.62L408.77,316.62L409.69,316.62L410.62,316.74L411.55,316.74L412.48,316.74L413.41,316.62L414.34,316.49L415.26,316.49L416.19,316.49L417.12,316.49L418.05,316.37L418.98,316.25L419.91,316.25L420.83,316.12L421.76,316.12L422.69,316.25L423.62,316.25L424.55,316.12L425.48,316.25L426.41,316.12L427.33,316L428.26,316.37L429.19,316.25L430.12,316.25L431.05,316.12L431.98,316.12L432.9,316L433.83,316L434.76,316L435.69,315.87L436.62,315.87L437.55,315.87L438.47,315.75L439.4,315.75L440.33,315.62L441.26,315.5L442.19,315.5L443.12,315.5L444.04,315.5L444.97,315.5L445.9,315.62L446.83,315.62L447.76,315.62L448.69,315.75L449.62,315.75L450.54,315.75L451.47,315.87L452.4,315.87L453.33,315.75L454.26,315.75L455.19,315.75L456.11,315.75L457.04,315.62L457.97,315.62L458.9,315.62L459.83,315.62L460.76,315.62L461.68,315.62L462.61,315.75L463.54,315.62L464.47,315.75L465.4,315.75L466.33,315.75L467.25,315.62L468.18,315.75L469.11,315.75L470.04,315.62L470.97,315.62L471.9,315.5L472.83,315.5L473.75,315.5L474.68,315.37L475.61,315.25L476.54,315.25L477.47,315.25L478.4,315.25L479.32,315.12L480.25,315.12L481.18,315.12L482.11,315.12L483.04,315L483.97,315L484.89,314.88L485.82,314.88L486.75,314.75L487.68,314.75L488.61,314.75L489.54,314.63L490.46,314.63L491.39,314.63L492.32,314.5L493.25,314.5L494.18,314.5L495.11,314.38L496.04,314.38L496.96,314.25L497.89,314.25L498.82,314.25L499.75,314.25L500.68,314.25L501.61,314.25L502.53,314.25L503.46,314.38L504.39,314.38L505.32,314.25L506.25,315.87L507.18,315.75L508.1,315.75L509.03,315.75L509.96,317.62L510.89,317.37L511.82,317.24L512.75,317.12L513.67,317.12L514.6,316.99L515.53,316.99L516.46,316.99L517.39,316.99L518.32,316.99L519.25,316.87L520.17,316.99L521.1,318.11L522.03,318.49L522.96,318.99L523.89,318.86L524.82,318.86L525.74,318.74L526.67,318.61L527.6,318.61L528.53,318.61L529.46,318.49L530.39,318.36L531.31,318.36L532.24,318.36L533.17,318.24L534.1,318.24L535.03,318.24L535.96,318.11L536.88,318.11L537.81,318.11L538.74,317.99L539.67,317.99L540.6,317.99L541.53,317.87L542.46,317.87L543.38,317.74L544.31,317.74L545.24,317.74L546.17,317.62L547.1,317.74L548.03,317.62L548.95,317.62L549.88,317.49L550.81,317.49L551.74,317.49L552.67,317.37L553.6,317.37L554.52,317.24L555.45,317.24L556.38,317.24L557.31,317.37L558.24,317.37L559.17,317.37L560.09,317.37L561.02,317.37L561.95,317.37L562.88,317.37L563.81,317.49L564.74,317.49L565.67,317.49L566.59,317.49L567.52,317.49L568.45,317.49L569.38,317.37L570.31,317.37L571.24,317.37L572.16,317.37L573.09,317.37L574.02,317.37L574.95,317.37L575.88,317.49L576.81,317.37L577.73,317.49L578.66,317.49L579.59,317.49L580.52,317.49L581.45,317.49L582.38,317.37L583.3,317.37L584.23,317.37L585.16,317.24L586.09,317.24L587.02,317.24L587.95,317.24L588.88,317.12L589.8,316.99L590.73,317.12L591.66,316.99L592.59,316.99L593.52,316.99L594.45,316.87L595.37,316.87L596.3,316.74L597.23,316.74L598.16,316.74L599.09,316.74L600.02,316.74L600.94,316.74L601.87,316.62L602.8,316.62L603.73,316.62L604.66,316.62L605.59,316.49L606.52,316.49L607.44,316.49L608.37,316.49L609.3,316.37L610.23,316.37L611.16,316.37L612.09,316.37L613.01,316.49L613.94,316.49L614.87,316.49L615.8,316.49L616.73,316.49L617.66,316.49L618.58,316.62L619.51,316.62L620.44,316.62L621.37,316.74L622.3,316.62L623.23,316.62L624.15,316.62L625.08,316.49L626.01,316.49L626.94,316.49L627.87,316.49L628.8,316.49L629.73,316.49L630.65,316.62L631.58,316.62L632.51,316.62L633.44,316.62L634.37,316.74L635.3,316.74L636.22,316.74L637.15,316.62L638.08,319.11L639.01,318.86L639.94,321.1L640.87,321.85L641.79,321.73L642.72,321.35L643.65,321.1L644.58,321.23L645.51,321.1L646.44,320.98L647.36,320.98L648.29,320.98L649.22,320.86L650.15,320.86L651.08,320.86L652.01,320.86L652.94,320.73L653.86,320.73L654.79,320.73L655.72,320.61L656.65,320.61L657.58,320.48L658.51,322.47L659.43,322.85L660.36,322.72L661.29,322.6L662.22,322.6L663.15,322.47L664.08,322.35L665,322.35L665.93,322.35L666.86,322.35L667.79,322.23L668.72,322.35L669.65,322.35L670.57,322.35L671.5,322.47L672.43,322.47L673.36,322.35L674.29,322.35L675.22,322.47L676.15,322.47L677.07,322.47L678,322.47L678.93,322.47L679.86,322.35L680.79,322.35L681.72,322.35L682.64,322.35L683.57,322.35L684.5,322.35L685.43,322.35L686.36,322.35L687.29,322.35L688.21,322.35L689.14,322.35L690.07,322.35L691,322.47L691.93,322.35L692.86,322.35L693.78,322.35L694.71,322.35L695.64,322.23L696.57,322.23L697.5,322.23L698.43,322.23L699.36,322.1L700.28,322.1L701.21,322.1L702.14,322.1L703.07,322.1L704,321.98L704.93,322.1L705.85,321.98L706.78,321.98L707.71,321.98L708.64,321.98L709.57,321.98L710.5,321.98L711.42,321.85L712.35,321.85L713.28,321.85L714.21,321.85L715.14,321.73L716.07,321.73L716.99,321.73L717.92,321.73L718.85,321.6L719.78,321.73L720.71,321.6L721.64,321.6L722.57,321.6L723.49,321.6L724.42,321.73L725.35,321.73L726.28,321.73L727.21,321.73L728.14,321.73L729.06,321.73L729.99,321.73L730.92,321.85L731.85,321.85L732.78,321.85L733.71,321.73L734.63,321.73L735.56,321.73L736.49,321.73L737.42,321.6L738.35,321.6L739.28,321.73L740.2,321.73L741.13,321.73L742.06,321.73L742.99,321.73L743.92,321.73L744.85,321.73L745.78,321.73L746.7,321.73L747.63,321.73L748.56,321.73L749.49,321.73L750.42,321.73L751.35,321.6L752.27,321.6L753.2,321.6L754.13,321.48L755.06,321.48L755.99,321.48L756.92,322.6L757.84,322.47L758.77,322.35L759.7,322.35L760.63,322.35L761.56,322.23L762.49,322.23L763.41,322.23L764.34,322.23L765.27,322.1L766.2,322.1L767.13,322.1L768.06,322.1L768.99,321.98L769.91,322.1L770.84,321.98L771.77,321.98L772.7,323.72L773.63,323.47L774.56,323.35L775.48,323.35L776.41,323.35L777.34,323.35L778.27,323.35L779.2,323.35L780.13,323.35L781.05,323.35L781.98,323.35L782.91,323.35L783.84,323.47L784.77,323.47L785.7,323.6L786.62,323.6L787.55,326.09L788.48,326.09L789.41,326.09L790.34,326.09L791.27,326.09L792.2,325.96L793.12,325.96L794.05,325.96L794.98,325.96L795.91,325.96L796.84,325.96L797.77,325.96L798.69,325.96L799.62,325.96L800.55,325.96L801.48,325.96L802.41,325.96L803.34,325.96L804.26,325.96L805.19,325.96L806.12,325.96L807.05,325.84L807.98,325.84L808.91,325.84L809.84,325.71L810.76,325.71L811.69,325.71L812.62,325.59L813.55,325.59L814.48,325.59L815.41,325.59L816.33,325.46L817.26,325.46L818.19,325.46L819.12,325.46L820.05,325.34L820.98,325.34L821.9,325.34L822.83,325.34L823.76,325.34L824.69,325.34L825.62,325.22L826.55,325.22L827.47,325.22L828.4,325.09L829.33,325.09L830.26,325.09L831.19,325.09L832.12,325.09L833.05,325.09L833.97,325.09L834.9,326.46L835.83,326.34L836.76,326.21L837.69,326.34L838.62,326.21L839.54,326.21L840.47,326.34L841.4,326.21L842.33,326.34L843.26,326.34L844.19,326.34L845.11,326.34L846.04,326.34L846.97,326.21L847.9,326.21L848.83,326.34L849.76,326.21L850.68,328.33L851.61,328.33L852.54,328.08L853.47,328.08L854.4,328.08L855.33,327.96L856.26,328.08L857.18,328.08L858.11,328.08L859.04,328.08L859.97,327.96L860.9,327.96L861.83,327.96L862.75,327.83L863.68,327.83L864.61,327.83L865.54,327.83L866.47,327.83L867.4,327.71L868.32,327.71L869.25,327.71L870.18,327.71L871.11,327.58L872.04,327.58L872.97,327.58L873.89,327.58L874.82,327.46L875.75,327.46L876.68,327.46L877.61,327.33L878.54,327.46L879.47,327.33L880.39,327.33L881.32,327.33L882.25,327.21L883.18,327.21L884.11,327.21L885.04,327.21L885.96,327.21L886.89,327.21L887.82,327.21L888.75,327.21L889.68,327.21L890.61,327.21L891.53,327.21L892.46,327.33L893.39,327.21L894.32,327.21L895.25,327.33L896.18,327.21L897.1,327.33L898.03,327.33L898.96,327.33L899.89,327.21L900.82,327.33L901.75,327.21L902.68,327.21L903.6,327.21L904.53,327.21L905.46,327.21L906.39,327.21L907.32,327.21L908.25,327.21L909.17,327.33L910.1,327.33L911.03,327.21L911.96,327.33L912.89,327.33L913.82,327.33L914.74,327.33L915.67,327.33L916.6,327.21L917.53,327.21L918.46,327.46L919.39,328.7L920.31,328.7L921.24,328.7L922.17,328.58L923.1,328.58L924.03,328.45L924.96,328.58L925.89,328.45L926.81,328.45L927.74,328.45L928.67,328.45L929.6,328.33L930.53,328.33L931.46,328.33L932.38,328.33L933.31,328.21L934.24,328.21L935.17,328.21L936.1,328.21L937.03,328.08L937.95,328.08L938.88,328.08L939.81,328.08L940.74,328.08L941.67,327.96L942.6,327.96L943.52,327.96L944.45,327.96L945.38,327.96L946.31,328.08L947.24,328.08L948.17,328.08L949.1,328.08L950.02,328.08L950.95,328.08L951.88,328.08L952.81,328.08L953.74,328.21L954.67,328.08L955.59,328.08L956.52,330.07L957.45,329.95L958.38,329.82L959.31,329.82L960.24,329.7L961.16,329.7L962.09,329.7L963.02,329.7L963.95,329.7L964.88,329.7L965.81,329.7L966.73,329.7L967.66,329.7L968.59,329.82L969.52,329.7L970.45,329.82L971.38,329.82L972.31,329.7L973.23,329.7L974.16,329.7L975.09,329.7L976.02,329.7L976.95,329.7L977.88,329.7L978.8,329.58L979.73,329.58L980.66,329.58L981.59,329.58L982.52,329.7" style="fill:none;stroke:#5A9BD4;stroke-width:1.875;stroke-dasharray:2.5,2.5" />
<path d="M1055,694.3L1080,694.3" style="fill:none;stroke:#F15A60;stroke-width:1.875" />
<text x="1002.5" y="-687.85" transform="scale(1, -1)"
	style="font-family:Helvetica;font-weight:normal;font-style:normal;font-size:12pt">etcd v3</text>
<path d="M1055,680L1080,680" style="fill:none;stroke:#7AC36A;stroke-width:1.875;stroke-dasharray:7.5,2.5" />
<text x="793.19" y="-673.56" transform="scale(1, -1)"
	style="font-family:Helvetica;font-weight:normal;font-style:normal;font-size:12pt">Zookeeper v3.4.8 (snapCount 100000)</text>
<path d="M1055,665.71L1080,665.71" style="fill:none;stroke:#5A9BD4;stroke-width:1.875;stroke-dasharray:2.5,2.5" />
<text x="784.85" y="-659.26" transform="scale(1, -1)"
	style="font-family:Helvetica;font-weight:normal;font-style:normal;font-size:12pt">Zookeeper v3.4.8 (snapCount 1000000)</text>
</g>
</svg>
