<?xml version="1.0"?>
<!-- Generated by SVGo and Plotinum VG -->
<svg width="12in" height="8in"
	xmlns="http://www.w3.org/2000/svg"
	xmlns:xlink="http://www.w3.org/1999/xlink">
<g transform="scale(1, -1) translate(0, -720)">
<path d="M0,0L1080,0L1080,720L0,720Z" style="fill:#FFFFFF" />
<text x="292.39" y="-706.41" transform="scale(1, -1)"
	style="font-family:Helvetica;font-weight:normal;font-style:normal;font-size:12pt">Write 2M keys, 1,000 clients, 8-byte key, 256-byte value (Test, Throughput</text>
<text x="551.76" y="-4.965" transform="scale(1, -1)"
	style="font-family:Helvetica;font-weight:normal;font-style:normal;font-size:12pt">Second</text>
<text x="70.912" y="-19.142" transform="scale(1, -1)"
	style="font-family:Helvetica;font-weight:normal;font-style:normal;font-size:10pt">0</text>
<text x="374.03" y="-19.142" transform="scale(1, -1)"
	style="font-family:Helvetica;font-weight:normal;font-style:normal;font-size:10pt">50</text>
<text x="677.14" y="-19.142" transform="scale(1, -1)"
	style="font-family:Helvetica;font-weight:normal;font-style:normal;font-size:10pt">100</text>
<text x="983.73" y="-19.142" transform="scale(1, -1)"
	style="font-family:Helvetica;font-weight:normal;font-style:normal;font-size:10pt">150</text>
<path d="M74.388,30.467L74.388,40.467" style="fill:none;stroke:#000000;stroke-width:0.625" />
<path d="M380.98,30.467L380.98,40.467" style="fill:none;stroke:#000000;stroke-width:0.625" />
<path d="M687.57,30.467L687.57,40.467" style="fill:none;stroke:#000000;stroke-width:0.625" />
<path d="M994.16,30.467L994.16,40.467" style="fill:none;stroke:#000000;stroke-width:0.625" />
<path d="M135.71,35.468L135.71,40.467" style="fill:none;stroke:#000000;stroke-width:0.625" />
<path d="M197.02,35.468L197.02,40.467" style="fill:none;stroke:#000000;stroke-width:0.625" />
<path d="M258.34,35.468L258.34,40.467" style="fill:none;stroke:#000000;stroke-width:0.625" />
<path d="M319.66,35.468L319.66,40.467" style="fill:none;stroke:#000000;stroke-width:0.625" />
<path d="M442.29,35.468L442.29,40.467" style="fill:none;stroke:#000000;stroke-width:0.625" />
<path d="M503.61,35.468L503.61,40.467" style="fill:none;stroke:#000000;stroke-width:0.625" />
<path d="M564.93,35.468L564.93,40.467" style="fill:none;stroke:#000000;stroke-width:0.625" />
<path d="M626.25,35.468L626.25,40.467" style="fill:none;stroke:#000000;stroke-width:0.625" />
<path d="M748.88,35.468L748.88,40.467" style="fill:none;stroke:#000000;stroke-width:0.625" />
<path d="M810.2,35.468L810.2,40.467" style="fill:none;stroke:#000000;stroke-width:0.625" />
<path d="M871.52,35.468L871.52,40.467" style="fill:none;stroke:#000000;stroke-width:0.625" />
<path d="M932.84,35.468L932.84,40.467" style="fill:none;stroke:#000000;stroke-width:0.625" />
<path d="M1055.5,35.468L1055.5,40.467" style="fill:none;stroke:#000000;stroke-width:0.625" />
<path d="M74.388,40.467L1080,40.467" style="fill:none;stroke:#000000;stroke-width:0.625" />
<g transform="rotate(90)">
<text x="335.88" y="13.59" transform="scale(1, -1)"
	style="font-family:Helvetica;font-weight:normal;font-style:normal;font-size:12pt">Throughput</text>
</g>
<text x="46.705" y="-41.661" transform="scale(1, -1)"
	style="font-family:Helvetica;font-weight:normal;font-style:normal;font-size:10pt">0</text>
<text x="18.555" y="-169.37" transform="scale(1, -1)"
	style="font-family:Helvetica;font-weight:normal;font-style:normal;font-size:10pt">1e+04</text>
<text x="18.555" y="-297.08" transform="scale(1, -1)"
	style="font-family:Helvetica;font-weight:normal;font-style:normal;font-size:10pt">2e+04</text>
<text x="18.555" y="-424.79" transform="scale(1, -1)"
	style="font-family:Helvetica;font-weight:normal;font-style:normal;font-size:10pt">3e+04</text>
<text x="18.555" y="-552.5" transform="scale(1, -1)"
	style="font-family:Helvetica;font-weight:normal;font-style:normal;font-size:10pt">4e+04</text>
<text x="18.555" y="-680.21" transform="scale(1, -1)"
	style="font-family:Helvetica;font-weight:normal;font-style:normal;font-size:10pt">5e+04</text>
<path d="M57.13,47.03L67.13,47.03" style="fill:none;stroke:#000000;stroke-width:0.625" />
<path d="M57.13,174.74L67.13,174.74" style="fill:none;stroke:#000000;stroke-width:0.625" />
<path d="M57.13,302.45L67.13,302.45" style="fill:none;stroke:#000000;stroke-width:0.625" />
<path d="M57.13,430.16L67.13,430.16" style="fill:none;stroke:#000000;stroke-width:0.625" />
<path d="M57.13,557.87L67.13,557.87" style="fill:none;stroke:#000000;stroke-width:0.625" />
<path d="M57.13,685.58L67.13,685.58" style="fill:none;stroke:#000000;stroke-width:0.625" />
<path d="M62.13,110.89L67.13,110.89" style="fill:none;stroke:#000000;stroke-width:0.625" />
<path d="M62.13,238.6L67.13,238.6" style="fill:none;stroke:#000000;stroke-width:0.625" />
<path d="M62.13,366.31L67.13,366.31" style="fill:none;stroke:#000000;stroke-width:0.625" />
<path d="M62.13,494.02L67.13,494.02" style="fill:none;stroke:#000000;stroke-width:0.625" />
<path d="M62.13,621.73L67.13,621.73" style="fill:none;stroke:#000000;stroke-width:0.625" />
<path d="M67.13,47.03L67.13,701.44" style="fill:none;stroke:#000000;stroke-width:0.625" />
<path d="M74.388,53.582L80.519,242.44L86.651,319.79L92.783,323.68L98.915,556.54L105.05,566.37L111.18,530.61L117.31,478.73L123.44,582.87L129.57,591.95L135.71,540.64L141.84,363.23L147.97,397.29L154.1,392.54L160.23,577.91L166.36,641.75L172.5,529.79L178.63,93.44L184.76,624.41L190.89,568.65L197.02,186.04L203.15,539.02L209.29,585.38L215.42,591.06L221.55,517.3L227.68,567.26L233.81,559.28L239.95,579.66L246.08,617.55L252.21,71.985L258.34,201.23L264.47,90.017L270.6,164.05L276.74,584.55L282.87,493.48L289,589.49L295.13,533.75L301.26,495.28L307.4,364.2L313.53,380.29L319.66,600.77L325.79,72.789L331.92,72.253L338.05,60.12L344.19,72.278L350.32,47.03L356.45,47.324L362.58,47.03L368.71,47.03L374.84,47.03L380.98,47.03L387.11,47.03L393.24,47.03L399.37,47.03L405.5,47.03L411.64,47.03L417.77,47.03L423.9,47.03L430.03,47.03L436.16,47.03L442.29,47.03L448.43,47.03L454.56,47.03L460.69,47.03L466.82,47.03L472.95,207.56L479.09,398.35L485.22,585.18L491.35,456.11L497.48,523.08L503.61,532.97L509.74,227.11L515.88,187.52L522.01,510.05L528.14,290.59L534.27,47.03L540.4,59.75L546.53,47.03L552.67,47.03L558.8,47.03L564.93,47.03L571.06,192.52L577.19,171.46L583.33,50.338L589.46,47.03L595.59,47.03L601.72,47.03L607.85,47.03L613.98,47.03L620.12,47.03L626.25,184.55L632.38,414.04L638.51,539.9L644.64,524.44L650.78,498.44L656.91,486.2L663.04,453.51L669.17,207.55L675.3,47.03L681.43,47.03L687.57,47.03L693.7,47.03L699.83,47.03L705.96,47.03L712.09,47.03L718.22,47.03L724.36,47.03L730.49,47.03L736.62,47.03L742.75,47.03L748.88,47.03L755.02,47.03L761.15,47.03L767.28,47.03L773.41,47.03L779.54,47.03L785.67,47.03L791.81,47.03L797.94,47.03L804.07,47.03L810.2,47.03L816.33,47.03L822.47,47.03L828.6,47.03L834.73,47.03L840.86,47.03L846.99,47.03L853.12,47.03L859.26,47.03L865.39,47.03L871.52,47.03L877.65,47.03L883.78,47.03L889.91,47.03L896.05,47.03L902.18,47.03L908.31,47.03L914.44,47.03L920.57,47.03L926.71,47.03L932.84,47.03L938.97,47.03L945.1,47.03L951.23,47.03L957.36,47.03L963.5,47.03L969.63,47.03L975.76,47.03L981.89,47.03L988.02,47.03L994.16,47.03L1000.3,47.03L1006.4,47.03L1012.6,47.03L1018.7,47.03L1024.8,47.03L1030.9,307.74L1037.1,100.85L1043.2,47.03L1049.3,169.5L1055.5,277.79L1061.6,47.03L1067.7,205.58L1073.9,437.65L1080,551.13" style="fill:none;stroke:#F15A60;stroke-width:1.875" />
<path d="M74.388,47.745L80.519,238.62L86.651,364.1L92.783,443.79L98.915,579.1L105.05,681.1L111.18,622.76L117.31,590.39L123.44,627.41L129.57,643.52L135.71,320.23L141.84,434.22L147.97,533.56L154.1,604.64L160.23,692.79L166.36,296.19L172.5,326.29L178.63,701.44L184.76,638.71L190.89,171.28L197.02,667.08L203.15,551.41L209.29,553.67L215.42,600.76L221.55,631.87L227.68,602.71L233.81,625.78L239.95,47.03L246.08,259.68L252.21,574.93L258.34,58.818L264.47,260.19L270.6,656.02L276.74,602.33L282.87,594.33L289,621.66L295.13,692.29L301.26,644.69L307.4,655L313.53,623.54L319.66,552.87L325.79,668.84L331.92,574.48L338.05,446.5L344.19,199.57L350.32,47.03L356.45,443.7L362.58,685.9L368.71,614.75L374.84,555.5L380.98,579.89L387.11,570.02L393.24,139.67L399.37,47.03L405.5,176.9L411.64,473.35L417.77,554.31L423.9,516.47" style="fill:none;stroke:#7AC36A;stroke-width:1.875;stroke-dasharray:7.5,2.5" />
<path d="M74.388,146.89L80.519,354.38L86.651,273.49L92.783,443.39L98.915,547.53L105.05,605.74L111.18,563.21L117.31,555.04L123.44,662.81L129.57,617.13L135.71,417.39L141.84,467.17L147.97,367.67L154.1,560.48L160.23,672.3L166.36,546.43L172.5,116.11L178.63,571.83L184.76,620.08L190.89,413.92L197.02,300.85L203.15,640.71L209.29,665.42L215.42,596.31L221.55,635.93L227.68,519.02L233.81,653.66L239.95,416.77L246.08,47.03L252.21,457.72L258.34,330.53L264.47,47.03L270.6,496.44L276.74,676.34L282.87,532.98L289,659.03L295.13,619.66L301.26,564.94L307.4,566.12L313.53,637.77L319.66,521.72L325.79,541.67L331.92,567.55L338.05,526.94L344.19,526.14L350.32,564.36L356.45,169.73L362.58,47.03L368.71,381.38L374.84,671.37L380.98,582.42L387.11,555.32L393.24,530.95L399.37,501.49L405.5,508.41L411.64,47.03L417.77,47.03L423.9,375.9L430.03,514.69L436.16,542.96" style="fill:none;stroke:#5A9BD4;stroke-width:1.875;stroke-dasharray:2.5,2.5" />
<path d="M1055,694.3L1080,694.3" style="fill:none;stroke:#F15A60;stroke-width:1.875" />
<text x="793.19" y="-687.85" transform="scale(1, -1)"
	style="font-family:Helvetica;font-weight:normal;font-style:normal;font-size:12pt">Zookeeper v3.4.8 (snapCount 100000)</text>
<path d="M1055,680L1080,680" style="fill:none;stroke:#7AC36A;stroke-width:1.875;stroke-dasharray:7.5,2.5" />
<text x="793.19" y="-673.56" transform="scale(1, -1)"
	style="font-family:Helvetica;font-weight:normal;font-style:normal;font-size:12pt">Zookeeper v3.4.8 (snapCount 500000)</text>
<path d="M1055,665.71L1080,665.71" style="fill:none;stroke:#5A9BD4;stroke-width:1.875;stroke-dasharray:2.5,2.5" />
<text x="784.85" y="-659.26" transform="scale(1, -1)"
	style="font-family:Helvetica;font-weight:normal;font-style:normal;font-size:12pt">Zookeeper v3.4.8 (snapCount 1000000)</text>
</g>
</svg>
