<?xml version="1.0"?>
<!-- Generated by SVGo and Plotinum VG -->
<svg width="12in" height="8in"
	xmlns="http://www.w3.org/2000/svg"
	xmlns:xlink="http://www.w3.org/1999/xlink">
<g transform="scale(1, -1) translate(0, -720)">
<path d="M0,0L1080,0L1080,720L0,720Z" style="fill:#FFFFFF" />
<text x="287.42" y="-706.41" transform="scale(1, -1)"
	style="font-family:Helvetica;font-weight:normal;font-style:normal;font-size:12pt">Write 2M keys, 1,000 clients, 8-byte key, 256-byte value (Test, Memory(MB)</text>
<text x="548.11" y="-4.965" transform="scale(1, -1)"
	style="font-family:Helvetica;font-weight:normal;font-style:normal;font-size:12pt">Second</text>
<text x="63.613" y="-19.142" transform="scale(1, -1)"
	style="font-family:Helvetica;font-weight:normal;font-style:normal;font-size:10pt">0</text>
<text x="329.05" y="-19.142" transform="scale(1, -1)"
	style="font-family:Helvetica;font-weight:normal;font-style:normal;font-size:10pt">30</text>
<text x="597.97" y="-19.142" transform="scale(1, -1)"
	style="font-family:Helvetica;font-weight:normal;font-style:normal;font-size:10pt">60</text>
<text x="866.88" y="-19.142" transform="scale(1, -1)"
	style="font-family:Helvetica;font-weight:normal;font-style:normal;font-size:10pt">90</text>
<path d="M67.088,30.467L67.088,40.467" style="fill:none;stroke:#000000;stroke-width:0.625" />
<path d="M336,30.467L336,40.467" style="fill:none;stroke:#000000;stroke-width:0.625" />
<path d="M604.92,30.467L604.92,40.467" style="fill:none;stroke:#000000;stroke-width:0.625" />
<path d="M873.83,30.467L873.83,40.467" style="fill:none;stroke:#000000;stroke-width:0.625" />
<path d="M156.73,35.468L156.73,40.467" style="fill:none;stroke:#000000;stroke-width:0.625" />
<path d="M246.36,35.468L246.36,40.467" style="fill:none;stroke:#000000;stroke-width:0.625" />
<path d="M425.64,35.468L425.64,40.467" style="fill:none;stroke:#000000;stroke-width:0.625" />
<path d="M515.28,35.468L515.28,40.467" style="fill:none;stroke:#000000;stroke-width:0.625" />
<path d="M694.56,35.468L694.56,40.467" style="fill:none;stroke:#000000;stroke-width:0.625" />
<path d="M784.19,35.468L784.19,40.467" style="fill:none;stroke:#000000;stroke-width:0.625" />
<path d="M963.47,35.468L963.47,40.467" style="fill:none;stroke:#000000;stroke-width:0.625" />
<path d="M1053.1,35.468L1053.1,40.467" style="fill:none;stroke:#000000;stroke-width:0.625" />
<path d="M67.088,40.467L1080,40.467" style="fill:none;stroke:#000000;stroke-width:0.625" />
<g transform="rotate(90)">
<text x="330.91" y="13.59" transform="scale(1, -1)"
	style="font-family:Helvetica;font-weight:normal;font-style:normal;font-size:12pt">Memory(MB)</text>
</g>
<text x="25.505" y="-231.75" transform="scale(1, -1)"
	style="font-family:Helvetica;font-weight:normal;font-style:normal;font-size:10pt">800</text>
<text x="18.555" y="-436.87" transform="scale(1, -1)"
	style="font-family:Helvetica;font-weight:normal;font-style:normal;font-size:10pt">1600</text>
<text x="18.555" y="-641.99" transform="scale(1, -1)"
	style="font-family:Helvetica;font-weight:normal;font-style:normal;font-size:10pt">2400</text>
<path d="M49.83,237.12L59.83,237.12" style="fill:none;stroke:#000000;stroke-width:0.625" />
<path d="M49.83,442.24L59.83,442.24" style="fill:none;stroke:#000000;stroke-width:0.625" />
<path d="M49.83,647.36L59.83,647.36" style="fill:none;stroke:#000000;stroke-width:0.625" />
<path d="M54.83,134.56L59.83,134.56" style="fill:none;stroke:#000000;stroke-width:0.625" />
<path d="M54.83,339.68L59.83,339.68" style="fill:none;stroke:#000000;stroke-width:0.625" />
<path d="M54.83,544.8L59.83,544.8" style="fill:none;stroke:#000000;stroke-width:0.625" />
<path d="M59.83,47.03L59.83,701.44" style="fill:none;stroke:#000000;stroke-width:0.625" />
<path d="M67.088,47.03L76.051,73.134L85.015,94.793L93.979,109.74L102.94,136.89L111.91,166.11L120.87,216.54L129.83,234.57L138.8,256.6L147.76,263.05L156.73,316.67L165.69,344.68L174.65,357.75L183.62,377.57L192.58,377.8L201.54,383.55L210.51,415.33L219.47,466.01L228.44,469.13L237.4,469.14L246.36,469.18L255.33,489.66L264.29,489.8L273.26,489.8L282.22,491.05L291.18,499.08L300.15,506.53L309.11,506.53L318.07,516.58L327.04,516.58L336,526.41L344.97,527.41L353.93,528.23L362.89,555.59L371.86,555.86L380.82,555.97L389.79,555.97L398.75,553.89L407.71,553.89L416.68,556.25L425.64,556.31L434.6,556.6L443.57,561.42L452.53,566.16L461.5,573.77L470.46,573.77L479.42,573.77L488.39,579.1L497.35,579.1L506.32,596.38L515.28,607.51L524.24,608.09L533.21,608.09L542.17,608.09L551.13,608.37L560.1,608.65L569.06,608.69L578.03,608.59L586.99,608.49L595.95,608.48L604.92,608.71L613.88,608.71L622.84,608.62L631.81,608.77L640.77,608.71L649.74,608.65L658.7,607.31L667.66,606.96L676.63,606.96L685.59,606.48L694.56,606.48L703.52,606.43L712.48,606.82L721.45,607.49L730.41,607.52L739.37,607.52L748.34,608.64L757.3,608.66L766.27,608.19L775.23,607.83L784.19,607.85L793.16,607.85L802.12,607.85L811.09,607.81L820.05,607.72L829.01,607.71L837.98,607.87L846.94,608.36L855.9,607.77L864.87,607.77L873.83,607.77L882.8,607.77L891.76,608.38L900.72,610.46L909.69,619.24L918.65,625.66L927.61,625.66L936.58,652.48L945.54,672.11L954.51,668.51L963.47,668.51L972.43,669.04L981.4,676.86L990.36,681.96L999.33,682.07L1008.3,684.07L1017.3,683.71L1026.2,687.08L1035.2,685.99L1044.1,695.71L1053.1,698.19L1062.1,700.17L1071,701.44L1080,701.4" style="fill:none;stroke:#F15A60;stroke-width:1.875" />
<path d="M67.088,47.097L76.051,70.965L85.015,81.355L93.979,108.09L102.94,130.9L111.91,166.45L120.87,209.59L129.83,241.62L138.8,248.96L147.76,287.42L156.73,311.77L165.69,354.38L174.65,364.91L183.62,382.22L192.58,407.91L201.54,444.26L210.51,452.3L219.47,463.54L228.44,466.22L237.4,475.5L246.36,493.75L255.33,493.97L264.29,498.73L273.26,507.22L282.22,515.48L291.18,517.99L300.15,526.41L309.11,541.04L318.07,541.27L327.04,555.15L336,557.03L344.97,557.23L353.93,556.25L362.89,556.25L371.86,558.91L380.82,558.95L389.79,571.62L398.75,571.62L407.71,574.84L416.68,574.86L425.64,581.86L434.6,581.96L443.57,592.74L452.53,602.52L461.5,609.08L470.46,611.19L479.42,619.27L488.39,620.35L497.35,626.35L506.32,630.95L515.28,639.06L524.24,638.15L533.21,644.96L542.17,650.26L551.13,650.47L560.1,651L569.06,647.46L578.03,645.09" style="fill:none;stroke:#7AC36A;stroke-width:1.875;stroke-dasharray:7.5,2.5" />
<path d="M67.088,70.927L76.051,81.844L85.015,108.98L93.979,137.48L102.94,165.13L111.91,215.51L120.87,242.39L129.83,255.91L138.8,288.99L147.76,327.68L156.73,358.52L165.69,379.93L174.65,380.53L183.62,386.61L192.58,414.28L201.54,459.24L210.51,465.21L219.47,468.19L228.44,468.2L237.4,484.42L246.36,489.74L255.33,489.81L264.29,496.37L273.26,496.37L282.22,509.37L291.18,512.42L300.15,516.13L309.11,522.36L318.07,532.73L327.04,532.9L336,533.02L344.97,553.16L353.93,556.14L362.89,556.29L371.86,556.29L380.82,556.37L389.79,556.37L398.75,563.21L407.71,565.31L416.68,565.31L425.64,572.55L434.6,581.25L443.57,581.25L452.53,588.64L461.5,589L470.46,589L479.42,611.22L488.39,620.41L497.35,628.95L506.32,633.56L515.28,643.2L524.24,649.61L533.21,648.34L542.17,648.1L551.13,647.67L560.1,647.78" style="fill:none;stroke:#5A9BD4;stroke-width:1.875;stroke-dasharray:2.5,2.5" />
<path d="M1055,694.3L1080,694.3" style="fill:none;stroke:#F15A60;stroke-width:1.875" />
<text x="793.19" y="-687.85" transform="scale(1, -1)"
	style="font-family:Helvetica;font-weight:normal;font-style:normal;font-size:12pt">Zookeeper v3.4.8 (snapCount 100000)</text>
<path d="M1055,680L1080,680" style="fill:none;stroke:#7AC36A;stroke-width:1.875;stroke-dasharray:7.5,2.5" />
<text x="793.19" y="-673.56" transform="scale(1, -1)"
	style="font-family:Helvetica;font-weight:normal;font-style:normal;font-size:12pt">Zookeeper v3.4.8 (snapCount 500000)</text>
<path d="M1055,665.71L1080,665.71" style="fill:none;stroke:#5A9BD4;stroke-width:1.875;stroke-dasharray:2.5,2.5" />
<text x="784.85" y="-659.26" transform="scale(1, -1)"
	style="font-family:Helvetica;font-weight:normal;font-style:normal;font-size:12pt">Zookeeper v3.4.8 (snapCount 1000000)</text>
</g>
</svg>
