<?xml version="1.0"?>
<!-- Generated by SVGo and Plotinum VG -->
<svg width="12in" height="8in"
	xmlns="http://www.w3.org/2000/svg"
	xmlns:xlink="http://www.w3.org/1999/xlink">
<g transform="scale(1, -1) translate(0, -720)">
<path d="M0,0L1080,0L1080,720L0,720Z" style="fill:#FFFFFF" />
<text x="278.67" y="-706.41" transform="scale(1, -1)"
	style="font-family:Helvetica;font-weight:normal;font-style:normal;font-size:12pt">Write 2M keys, 1,000 clients, 8-byte key, 256-byte value (Test 5), Memory(MB)</text>
<text x="548.11" y="-4.965" transform="scale(1, -1)"
	style="font-family:Helvetica;font-weight:normal;font-style:normal;font-size:12pt">Second</text>
<text x="63.613" y="-19.142" transform="scale(1, -1)"
	style="font-family:Helvetica;font-weight:normal;font-style:normal;font-size:10pt">0</text>
<text x="370.85" y="-19.142" transform="scale(1, -1)"
	style="font-family:Helvetica;font-weight:normal;font-style:normal;font-size:10pt">50</text>
<text x="678.08" y="-19.142" transform="scale(1, -1)"
	style="font-family:Helvetica;font-weight:normal;font-style:normal;font-size:10pt">100</text>
<text x="988.79" y="-19.142" transform="scale(1, -1)"
	style="font-family:Helvetica;font-weight:normal;font-style:normal;font-size:10pt">150</text>
<path d="M67.088,30.467L67.088,40.467" style="fill:none;stroke:#000000;stroke-width:0.625" />
<path d="M377.8,30.467L377.8,40.467" style="fill:none;stroke:#000000;stroke-width:0.625" />
<path d="M688.51,30.467L688.51,40.467" style="fill:none;stroke:#000000;stroke-width:0.625" />
<path d="M999.22,30.467L999.22,40.467" style="fill:none;stroke:#000000;stroke-width:0.625" />
<path d="M129.23,35.468L129.23,40.467" style="fill:none;stroke:#000000;stroke-width:0.625" />
<path d="M191.37,35.468L191.37,40.467" style="fill:none;stroke:#000000;stroke-width:0.625" />
<path d="M253.51,35.468L253.51,40.467" style="fill:none;stroke:#000000;stroke-width:0.625" />
<path d="M315.65,35.468L315.65,40.467" style="fill:none;stroke:#000000;stroke-width:0.625" />
<path d="M439.94,35.468L439.94,40.467" style="fill:none;stroke:#000000;stroke-width:0.625" />
<path d="M502.08,35.468L502.08,40.467" style="fill:none;stroke:#000000;stroke-width:0.625" />
<path d="M564.22,35.468L564.22,40.467" style="fill:none;stroke:#000000;stroke-width:0.625" />
<path d="M626.36,35.468L626.36,40.467" style="fill:none;stroke:#000000;stroke-width:0.625" />
<path d="M750.65,35.468L750.65,40.467" style="fill:none;stroke:#000000;stroke-width:0.625" />
<path d="M812.79,35.468L812.79,40.467" style="fill:none;stroke:#000000;stroke-width:0.625" />
<path d="M874.93,35.468L874.93,40.467" style="fill:none;stroke:#000000;stroke-width:0.625" />
<path d="M937.07,35.468L937.07,40.467" style="fill:none;stroke:#000000;stroke-width:0.625" />
<path d="M1061.4,35.468L1061.4,40.467" style="fill:none;stroke:#000000;stroke-width:0.625" />
<path d="M67.088,40.467L1080,40.467" style="fill:none;stroke:#000000;stroke-width:0.625" />
<g transform="rotate(90)">
<text x="330.91" y="13.59" transform="scale(1, -1)"
	style="font-family:Helvetica;font-weight:normal;font-style:normal;font-size:12pt">Memory(MB)</text>
</g>
<text x="25.505" y="-228.98" transform="scale(1, -1)"
	style="font-family:Helvetica;font-weight:normal;font-style:normal;font-size:10pt">800</text>
<text x="18.555" y="-430.88" transform="scale(1, -1)"
	style="font-family:Helvetica;font-weight:normal;font-style:normal;font-size:10pt">1600</text>
<text x="18.555" y="-632.78" transform="scale(1, -1)"
	style="font-family:Helvetica;font-weight:normal;font-style:normal;font-size:10pt">2400</text>
<path d="M49.83,234.35L59.83,234.35" style="fill:none;stroke:#000000;stroke-width:0.625" />
<path d="M49.83,436.25L59.83,436.25" style="fill:none;stroke:#000000;stroke-width:0.625" />
<path d="M49.83,638.15L59.83,638.15" style="fill:none;stroke:#000000;stroke-width:0.625" />
<path d="M54.83,133.39L59.83,133.39" style="fill:none;stroke:#000000;stroke-width:0.625" />
<path d="M54.83,335.3L59.83,335.3" style="fill:none;stroke:#000000;stroke-width:0.625" />
<path d="M54.83,537.2L59.83,537.2" style="fill:none;stroke:#000000;stroke-width:0.625" />
<path d="M59.83,47.03L59.83,701.44" style="fill:none;stroke:#000000;stroke-width:0.625" />
<path d="M67.088,47.308L73.302,70.022L79.516,84.703L85.73,98.354L91.944,133.4L98.158,162.54L104.37,212.34L110.59,228.46L116.8,251.73L123.02,265.15L129.23,312.1L135.44,351.5L141.66,353.49L147.87,372.93L154.09,372.93L160.3,396.21L166.51,452.84L172.73,461.18L178.94,461.75L185.16,461.75L191.37,483.09L197.59,483.21L203.8,483.32L210.01,484.22L216.23,492.62L222.44,500.31L228.66,500.31L234.87,509.85L241.08,509.85L247.3,520.32L253.51,520.46L259.73,541.74L265.94,547.66L272.16,547.8L278.37,548.06L284.58,546.73L290.8,546.73L297.01,546.73L303.23,548.25L309.44,550.49L315.65,550.49L321.87,550.49L328.08,555.25L334.3,555.25L340.51,555.25L346.73,555.25L352.94,555.26L359.15,555.26L365.37,555.19L371.58,555.46L377.8,555.72L384.01,555.74L390.23,556.26L396.44,561.42L402.65,560.67L408.87,560.8L415.08,560.87L421.3,560.93L427.51,560.47L433.72,560.37L439.94,568.74L446.15,568.74L452.37,569.01L458.58,569.85L464.8,579.44L471.01,581.83L477.22,586.06L483.44,586.52L489.65,592.84L495.87,595.28L502.08,596.17L508.29,602.12L514.51,602.34L520.72,606.6L526.94,609.05L533.15,608.79L539.37,609.32L545.58,611.41L551.79,610.58L558.01,610.58L564.22,610.58L570.44,610.98L576.65,611.16L582.87,611.75L589.08,611.75L595.29,611.75L601.51,611.75L607.72,611.75L613.94,611.61L620.15,611.62L626.36,611.62L632.58,613.75L638.79,624.8L645.01,634.13L651.22,638.09L657.44,641.76L663.65,643.28L669.86,645.74L676.08,649.14L682.29,649.14L688.51,649.2L694.72,649.26L700.93,649.26L707.15,649.26L713.36,649.26L719.58,649.26L725.79,649.26L732.01,649.26L738.22,649.26L744.43,649.26L750.65,649.27L756.86,649.27L763.08,649.27L769.29,649.27L775.5,649.27L781.72,649.27L787.93,649.27L794.15,649.27L800.36,649.27L806.58,649.27L812.79,649.31L819,649.35L825.22,649.35L831.43,649.35L837.65,649.35L843.86,649.35L850.08,651.9L856.29,654.44L862.5,654.44L868.72,654.44L874.93,654.44L881.15,654.44L887.36,653.87L893.57,653.3L899.79,651.75L906,651.27L912.22,647.99L918.43,646.39L924.65,640.56L930.86,637.49L937.07,635.56L943.29,632.59L949.5,631.12L955.72,628.8L961.93,627.42L968.14,625.1L974.36,625.99L980.57,623.8L986.79,623.88L993,622.96L999.22,620.35L1005.4,619.78L1011.6,618.7L1017.9,616.89L1024.1,616.89L1030.3,616.19L1036.5,616.37L1042.7,616.56L1048.9,665.64L1055.1,645.33L1061.4,645.24L1067.6,675.24L1073.8,701.29L1080,701.44" style="fill:none;stroke:#F15A60;stroke-width:1.875" />
<path d="M67.088,47.03L73.302,69.795L79.516,91.012L85.73,108.99L91.944,149.06L98.158,186.01L104.37,224.91L110.59,253.23L116.8,261.89L123.02,315.21L129.23,355L135.44,375.57L141.66,376.66L147.87,383.16L154.09,420.59L160.3,460.16L166.51,462.82L172.73,462.83L178.94,462.96L185.16,483.68L191.37,483.97L197.59,485.12L203.8,495.08L210.01,502.25L216.23,502.25L222.44,510.89L228.66,519.12L234.87,521.59L241.08,521.66L247.3,533.38L253.51,547.95L259.73,548.22L265.94,548.25L272.16,548.27L278.37,548.16L284.58,548.16L290.8,550.93L297.01,550.93L303.23,563.29L309.44,570.7L315.65,570.11L321.87,572.8L328.08,572.8L334.3,585.33L340.51,591.7L346.73,611.92L352.94,623.03L359.15,623.46L365.37,623.46L371.58,624.39L377.8,624.66L384.01,623.34L390.23,623.76L396.44,633.07L402.65,639.67L408.87,639.86L415.08,643.47" style="fill:none;stroke:#7AC36A;stroke-width:1.875;stroke-dasharray:7.5,2.5" />
<path d="M67.088,47.409L73.302,71.607L79.516,93.907L85.73,108.3L91.944,136.1L98.158,163.75L104.37,213.03L110.59,238.44L116.8,252.5L123.02,290.26L129.23,327.98L135.44,354.37L141.66,375.65L147.87,375.72L154.09,381.41L160.3,420.7L166.51,459.2L172.73,461.89L178.94,461.89L185.16,462.75L191.37,482.63L197.59,482.76L203.8,484.04L210.01,490.58L216.23,502.07L222.44,502.07L228.66,508.86L234.87,514.89L241.08,525.89L247.3,526.03L253.51,528.88L259.73,550.28L265.94,550.52L272.16,550.54L278.37,550.54L284.58,550.6L290.8,550.6L297.01,552.48L303.23,555.53L309.44,560.02L315.65,559.47L321.87,574.38L328.08,576.52L334.3,577.25L340.51,583.85L346.73,583.85L352.94,608.41L359.15,619.34L365.37,626.6L371.58,627.6L377.8,628.22L384.01,627.89L390.23,627.88L396.44,626.81L402.65,627.56L408.87,635.81L415.08,642.39L421.3,642.51L427.51,644.53" style="fill:none;stroke:#5A9BD4;stroke-width:1.875;stroke-dasharray:2.5,2.5" />
<path d="M1055,694.3L1080,694.3" style="fill:none;stroke:#F15A60;stroke-width:1.875" />
<text x="793.19" y="-687.85" transform="scale(1, -1)"
	style="font-family:Helvetica;font-weight:normal;font-style:normal;font-size:12pt">Zookeeper v3.4.8 (snapCount 100000)</text>
<path d="M1055,680L1080,680" style="fill:none;stroke:#7AC36A;stroke-width:1.875;stroke-dasharray:7.5,2.5" />
<text x="793.19" y="-673.56" transform="scale(1, -1)"
	style="font-family:Helvetica;font-weight:normal;font-style:normal;font-size:12pt">Zookeeper v3.4.8 (snapCount 500000)</text>
<path d="M1055,665.71L1080,665.71" style="fill:none;stroke:#5A9BD4;stroke-width:1.875;stroke-dasharray:2.5,2.5" />
<text x="784.85" y="-659.26" transform="scale(1, -1)"
	style="font-family:Helvetica;font-weight:normal;font-style:normal;font-size:12pt">Zookeeper v3.4.8 (snapCount 1000000)</text>
</g>
</svg>
