<?xml version="1.0"?>
<!-- Generated by SVGo and Plotinum VG -->
<svg width="12in" height="8in"
	xmlns="http://www.w3.org/2000/svg"
	xmlns:xlink="http://www.w3.org/1999/xlink">
<g transform="scale(1, -1) translate(0, -720)">
<path d="M0,0L1080,0L1080,720L0,720Z" style="fill:#FFFFFF" />
<text x="292.39" y="-706.41" transform="scale(1, -1)"
	style="font-family:Helvetica;font-weight:normal;font-style:normal;font-size:12pt">Write 2M keys, 1,000 clients, 8-byte key, 256-byte value (Test, Throughput</text>
<text x="551.76" y="-4.965" transform="scale(1, -1)"
	style="font-family:Helvetica;font-weight:normal;font-style:normal;font-size:12pt">Second</text>
<text x="70.912" y="-19.142" transform="scale(1, -1)"
	style="font-family:Helvetica;font-weight:normal;font-style:normal;font-size:10pt">0</text>
<text x="372.17" y="-19.142" transform="scale(1, -1)"
	style="font-family:Helvetica;font-weight:normal;font-style:normal;font-size:10pt">30</text>
<text x="676.9" y="-19.142" transform="scale(1, -1)"
	style="font-family:Helvetica;font-weight:normal;font-style:normal;font-size:10pt">60</text>
<text x="981.63" y="-19.142" transform="scale(1, -1)"
	style="font-family:Helvetica;font-weight:normal;font-style:normal;font-size:10pt">90</text>
<path d="M74.388,30.467L74.388,40.467" style="fill:none;stroke:#000000;stroke-width:0.625" />
<path d="M379.12,30.467L379.12,40.467" style="fill:none;stroke:#000000;stroke-width:0.625" />
<path d="M683.85,30.467L683.85,40.467" style="fill:none;stroke:#000000;stroke-width:0.625" />
<path d="M988.58,30.467L988.58,40.467" style="fill:none;stroke:#000000;stroke-width:0.625" />
<path d="M175.96,35.468L175.96,40.467" style="fill:none;stroke:#000000;stroke-width:0.625" />
<path d="M277.54,35.468L277.54,40.467" style="fill:none;stroke:#000000;stroke-width:0.625" />
<path d="M480.7,35.468L480.7,40.467" style="fill:none;stroke:#000000;stroke-width:0.625" />
<path d="M582.27,35.468L582.27,40.467" style="fill:none;stroke:#000000;stroke-width:0.625" />
<path d="M785.43,35.468L785.43,40.467" style="fill:none;stroke:#000000;stroke-width:0.625" />
<path d="M887,35.468L887,40.467" style="fill:none;stroke:#000000;stroke-width:0.625" />
<path d="M74.388,40.467L1080,40.467" style="fill:none;stroke:#000000;stroke-width:0.625" />
<g transform="rotate(90)">
<text x="334.84" y="13.59" transform="scale(1, -1)"
	style="font-family:Helvetica;font-weight:normal;font-style:normal;font-size:12pt">Throughput</text>
</g>
<text x="46.705" y="-41.661" transform="scale(1, -1)"
	style="font-family:Helvetica;font-weight:normal;font-style:normal;font-size:10pt">0</text>
<text x="18.555" y="-171.35" transform="scale(1, -1)"
	style="font-family:Helvetica;font-weight:normal;font-style:normal;font-size:10pt">1e+04</text>
<text x="18.555" y="-301.04" transform="scale(1, -1)"
	style="font-family:Helvetica;font-weight:normal;font-style:normal;font-size:10pt">2e+04</text>
<text x="18.555" y="-430.74" transform="scale(1, -1)"
	style="font-family:Helvetica;font-weight:normal;font-style:normal;font-size:10pt">3e+04</text>
<text x="18.555" y="-560.43" transform="scale(1, -1)"
	style="font-family:Helvetica;font-weight:normal;font-style:normal;font-size:10pt">4e+04</text>
<text x="18.555" y="-690.12" transform="scale(1, -1)"
	style="font-family:Helvetica;font-weight:normal;font-style:normal;font-size:10pt">5e+04</text>
<path d="M57.13,47.03L67.13,47.03" style="fill:none;stroke:#000000;stroke-width:0.625" />
<path d="M57.13,176.72L67.13,176.72" style="fill:none;stroke:#000000;stroke-width:0.625" />
<path d="M57.13,306.41L67.13,306.41" style="fill:none;stroke:#000000;stroke-width:0.625" />
<path d="M57.13,436.11L67.13,436.11" style="fill:none;stroke:#000000;stroke-width:0.625" />
<path d="M57.13,565.8L67.13,565.8" style="fill:none;stroke:#000000;stroke-width:0.625" />
<path d="M57.13,695.49L67.13,695.49" style="fill:none;stroke:#000000;stroke-width:0.625" />
<path d="M62.13,111.88L67.13,111.88" style="fill:none;stroke:#000000;stroke-width:0.625" />
<path d="M62.13,241.57L67.13,241.57" style="fill:none;stroke:#000000;stroke-width:0.625" />
<path d="M62.13,371.26L67.13,371.26" style="fill:none;stroke:#000000;stroke-width:0.625" />
<path d="M62.13,500.95L67.13,500.95" style="fill:none;stroke:#000000;stroke-width:0.625" />
<path d="M62.13,630.64L67.13,630.64" style="fill:none;stroke:#000000;stroke-width:0.625" />
<path d="M67.13,47.03L67.13,699.37" style="fill:none;stroke:#000000;stroke-width:0.625" />
<path d="M74.388,242.01L84.545,358.55L94.703,353.67L104.86,532.51L115.02,575.47L125.18,537.01L135.33,500.24L145.49,622.91L155.65,590.31L165.81,571.13L175.96,301.69L186.12,414.36L196.28,395.19L206.44,562.59L216.6,533.65L226.75,603.77L236.91,154.93L247.07,567.07L257.23,627.5L267.38,315.95L277.54,383.71L287.7,591.23L297.86,631.03L308.01,564.2L318.17,542.43L328.33,584.45L338.49,543.14L348.65,508.65L358.8,248.21L368.96,47.03L379.12,437.47L389.28,47.03L399.43,492.68L409.59,546.21L419.75,600.62L429.91,501.86L440.06,425.59L450.22,413.95L460.38,568.18L470.54,553.93L480.7,302.77L490.85,492.18L501.01,234.89L511.17,61.607L521.33,61.581L531.48,72.981L541.64,47.173L551.8,47.03L561.96,47.03L572.11,47.03L582.27,47.03L592.43,47.03L602.59,47.03L612.75,47.03L622.9,47.03L633.06,47.03L643.22,47.03L653.38,47.03L663.53,47.03L673.69,47.03L683.85,47.03L694.01,47.03L704.17,47.03L714.32,47.03L724.48,47.03L734.64,47.03L744.8,47.03L754.95,47.03L765.11,47.03L775.27,47.03L785.43,47.03L795.58,47.03L805.74,47.03L815.9,47.03L826.06,47.03L836.22,153.57L846.37,449.63L856.53,476.97L866.69,405.82L876.85,70.115L887,54.708L897.16,47.03L907.32,506.41L917.48,467.09L927.63,524.32L937.79,287.31L947.95,47.03L958.11,376.55L968.27,581.11L978.42,543.22L988.58,546.93L998.74,424.69L1008.9,508.75L1019.1,339.37L1029.2,47.03L1039.4,47.03L1049.5,427.99L1059.7,434.15L1069.8,498.19L1080,536.84" style="fill:none;stroke:#F15A60;stroke-width:1.875" />
<path d="M74.388,66.224L84.545,241L94.703,383.24L104.86,475.61L115.02,584.52L125.18,661.21L135.33,565.3L145.49,623.34L155.65,626.84L165.81,641.52L175.96,366.64L186.12,503.57L196.28,413.6L206.44,628.24L216.6,657.79L226.75,403.4L236.91,259.7L247.07,660.08L257.23,615.59L267.38,223.09L277.54,451.46L287.7,570.65L297.86,658.37L308.01,541.7L318.17,661.99L328.33,624.74L338.49,636.93L348.65,291.15L358.8,49.689L368.96,605.03L379.12,317.5L389.28,47.03L399.43,576.9L409.59,699.37L419.75,567.33L429.91,621.72L440.06,635.03L450.22,618.74L460.38,631.99L470.54,588.93L480.7,616.27L490.85,534.15L501.01,619.85L511.17,622.6L521.33,451.76L531.48,341.21L541.64,520.74L551.8,328.59L561.96,265.29L572.11,83.837L582.27,51.167L592.43,355.16L602.59,570L612.75,600.05L622.9,625.58L633.06,665.23L643.22,417.64L653.38,598.83" style="fill:none;stroke:#7AC36A;stroke-width:1.875;stroke-dasharray:7.5,2.5" />
<path d="M74.388,134.52L84.545,251.93L94.703,380.34L104.86,506.41L115.02,536.11L125.18,604.48L135.33,576.06L145.49,577.96L155.65,578.73L165.81,568.7L175.96,530.26L186.12,370.47L196.28,287.93L206.44,655.62L216.6,588.71L226.75,569.39L236.91,223.19L247.07,429.05L257.23,560.48L267.38,515.65L277.54,158.88L287.7,543.96L297.86,524.02L308.01,567.12L318.17,492.37L328.33,555.5L338.49,582.53L348.65,554.5L358.8,652.57L368.96,170L379.12,100.61L389.28,589.75L399.43,177.02L409.59,130.18L419.75,584.23L429.91,577.13L440.06,567.9L450.22,543.93L460.38,515.11L470.54,540.53L480.7,571.06L490.85,515.44L501.01,606.33L511.17,581.89L521.33,497.32L531.48,576.52L541.64,557.29L551.8,486.98L561.96,474.33L572.11,621.9L582.27,127.26L592.43,47.03L602.59,127.85L612.75,414.04L622.9,344.19L633.06,126.45L643.22,472.35L653.38,539.87L663.53,582.48L673.69,506.51L683.85,522.44L694.01,584.76" style="fill:none;stroke:#5A9BD4;stroke-width:1.875;stroke-dasharray:2.5,2.5" />
<path d="M1055,694.3L1080,694.3" style="fill:none;stroke:#F15A60;stroke-width:1.875" />
<text x="793.19" y="-687.85" transform="scale(1, -1)"
	style="font-family:Helvetica;font-weight:normal;font-style:normal;font-size:12pt">Zookeeper v3.4.8 (snapCount 100000)</text>
<path d="M1055,680L1080,680" style="fill:none;stroke:#7AC36A;stroke-width:1.875;stroke-dasharray:7.5,2.5" />
<text x="793.19" y="-673.56" transform="scale(1, -1)"
	style="font-family:Helvetica;font-weight:normal;font-style:normal;font-size:12pt">Zookeeper v3.4.8 (snapCount 500000)</text>
<path d="M1055,665.71L1080,665.71" style="fill:none;stroke:#5A9BD4;stroke-width:1.875;stroke-dasharray:2.5,2.5" />
<text x="784.85" y="-659.26" transform="scale(1, -1)"
	style="font-family:Helvetica;font-weight:normal;font-style:normal;font-size:12pt">Zookeeper v3.4.8 (snapCount 1000000)</text>
</g>
</svg>
