<?xml version="1.0"?>
<!-- Generated by SVGo and Plotinum VG -->
<svg width="12in" height="8in"
	xmlns="http://www.w3.org/2000/svg"
	xmlns:xlink="http://www.w3.org/1999/xlink">
<g transform="scale(1, -1) translate(0, -720)">
<path d="M0,0L1080,0L1080,720L0,720Z" style="fill:#FFFFFF" />
<text x="287.42" y="-706.41" transform="scale(1, -1)"
	style="font-family:Helvetica;font-weight:normal;font-style:normal;font-size:12pt">Write 2M keys, 1,000 clients, 8-byte key, 256-byte value (Test, Memory(MB)</text>
<text x="546.24" y="-4.965" transform="scale(1, -1)"
	style="font-family:Helvetica;font-weight:normal;font-style:normal;font-size:12pt">Second</text>
<text x="63.613" y="-19.142" transform="scale(1, -1)"
	style="font-family:Helvetica;font-weight:normal;font-style:normal;font-size:10pt">0</text>
<text x="394.3" y="-19.142" transform="scale(1, -1)"
	style="font-family:Helvetica;font-weight:normal;font-style:normal;font-size:10pt">50</text>
<text x="724.99" y="-19.142" transform="scale(1, -1)"
	style="font-family:Helvetica;font-weight:normal;font-style:normal;font-size:10pt">100</text>
<text x="1059.1" y="-19.142" transform="scale(1, -1)"
	style="font-family:Helvetica;font-weight:normal;font-style:normal;font-size:10pt">150</text>
<path d="M67.088,30.467L67.088,40.467" style="fill:none;stroke:#000000;stroke-width:0.625" />
<path d="M401.25,30.467L401.25,40.467" style="fill:none;stroke:#000000;stroke-width:0.625" />
<path d="M735.41,30.467L735.41,40.467" style="fill:none;stroke:#000000;stroke-width:0.625" />
<path d="M1069.6,30.467L1069.6,40.467" style="fill:none;stroke:#000000;stroke-width:0.625" />
<path d="M133.92,35.468L133.92,40.467" style="fill:none;stroke:#000000;stroke-width:0.625" />
<path d="M200.75,35.468L200.75,40.467" style="fill:none;stroke:#000000;stroke-width:0.625" />
<path d="M267.58,35.468L267.58,40.467" style="fill:none;stroke:#000000;stroke-width:0.625" />
<path d="M334.42,35.468L334.42,40.467" style="fill:none;stroke:#000000;stroke-width:0.625" />
<path d="M468.08,35.468L468.08,40.467" style="fill:none;stroke:#000000;stroke-width:0.625" />
<path d="M534.91,35.468L534.91,40.467" style="fill:none;stroke:#000000;stroke-width:0.625" />
<path d="M601.75,35.468L601.75,40.467" style="fill:none;stroke:#000000;stroke-width:0.625" />
<path d="M668.58,35.468L668.58,40.467" style="fill:none;stroke:#000000;stroke-width:0.625" />
<path d="M802.25,35.468L802.25,40.467" style="fill:none;stroke:#000000;stroke-width:0.625" />
<path d="M869.08,35.468L869.08,40.467" style="fill:none;stroke:#000000;stroke-width:0.625" />
<path d="M935.91,35.468L935.91,40.467" style="fill:none;stroke:#000000;stroke-width:0.625" />
<path d="M1002.7,35.468L1002.7,40.467" style="fill:none;stroke:#000000;stroke-width:0.625" />
<path d="M67.088,40.467L1076.3,40.467" style="fill:none;stroke:#000000;stroke-width:0.625" />
<g transform="rotate(90)">
<text x="330.91" y="13.59" transform="scale(1, -1)"
	style="font-family:Helvetica;font-weight:normal;font-style:normal;font-size:12pt">Memory(MB)</text>
</g>
<text x="25.505" y="-237.79" transform="scale(1, -1)"
	style="font-family:Helvetica;font-weight:normal;font-style:normal;font-size:10pt">800</text>
<text x="18.555" y="-449.22" transform="scale(1, -1)"
	style="font-family:Helvetica;font-weight:normal;font-style:normal;font-size:10pt">1600</text>
<text x="18.555" y="-660.65" transform="scale(1, -1)"
	style="font-family:Helvetica;font-weight:normal;font-style:normal;font-size:10pt">2400</text>
<path d="M49.83,243.16L59.83,243.16" style="fill:none;stroke:#000000;stroke-width:0.625" />
<path d="M49.83,454.59L59.83,454.59" style="fill:none;stroke:#000000;stroke-width:0.625" />
<path d="M49.83,666.02L59.83,666.02" style="fill:none;stroke:#000000;stroke-width:0.625" />
<path d="M54.83,137.44L59.83,137.44" style="fill:none;stroke:#000000;stroke-width:0.625" />
<path d="M54.83,348.87L59.83,348.87" style="fill:none;stroke:#000000;stroke-width:0.625" />
<path d="M54.83,560.3L59.83,560.3" style="fill:none;stroke:#000000;stroke-width:0.625" />
<path d="M59.83,47.03L59.83,701.44" style="fill:none;stroke:#000000;stroke-width:0.625" />
<path d="M67.088,47.374L73.771,71.347L80.454,89.239L87.137,102.5L93.82,138.61L100.5,168.33L107.19,220.73L113.87,248.62L120.55,261.86L127.24,292.47L133.92,330.8L140.6,367.92L147.29,387.52L153.97,388.63L160.65,394.5L167.34,431.18L174.02,477.95L180.7,481L187.39,480.81L194.07,490.44L200.75,503.67L207.44,503.67L214.12,505.05L220.8,512.88L227.49,520.73L234.17,520.73L240.85,530.49L247.54,530.49L254.22,540.84L260.9,541.26L267.58,571.16L274.27,572.7L280.95,572.7L287.63,572.73L294.32,570.88L301,571.08L307.68,571.08L314.37,571.08L321.05,571.16L327.73,581.28L334.42,581.28L341.1,581.28L347.78,581.28L354.47,581.28L361.15,581.28L367.83,581.47L374.52,581.57L381.2,581.78L387.88,581.8L394.57,581.77L401.25,581.75L407.93,581.78L414.62,581.78L421.3,581.78L427.98,581.78L434.67,581.71L441.35,581.71L448.03,581.72L454.72,581.71L461.4,581.71L468.08,581.71L474.77,584.85L481.45,590.42L488.13,593.05L494.82,596.7L501.5,599.85L508.18,606.89L514.87,606.85L521.55,607.36L528.23,605.88L534.91,606.74L541.6,606.47L548.28,606.48L554.96,617.31L561.65,605.56L568.33,605.56L575.01,610.55L581.7,612.19L588.38,614.01L595.06,615.28L601.75,638.06L608.43,655.05L615.11,655.17L621.8,655.17L628.48,655.17L635.16,655.17L641.85,658.49L648.53,658.78L655.21,665.18L661.9,672.16L668.58,672.85L675.26,676.5L681.95,676.62L688.63,679.75L695.31,678.96L702,678.96L708.68,678.96L715.36,678.96L722.05,678.37L728.73,678.37L735.41,678.37L742.1,678.39L748.78,678.39L755.46,678.39L762.15,678.39L768.83,678.39L775.51,678.39L782.2,678.39L788.88,678.39L795.56,678.39L802.25,688.23L808.93,691.39L815.61,691.61L822.29,691.82L828.98,689.71L835.66,689.82L842.34,689.8L849.03,690.64L855.71,689.93L862.39,692.11L869.08,692.11L875.76,692.11L882.44,692.11L889.13,692.11L895.81,696.34L902.49,696.34L909.18,696.53L915.86,697.52L922.54,701.44L929.23,701.44L935.91,701.44L942.59,701.44L949.28,701.44L955.96,697.99L962.64,697.96L969.33,697.94L976.01,698.5L982.69,698.15L989.38,697.64L996.06,697.64L1002.7,698.08L1009.4,698.08L1016.1,698.08L1022.8,698.09L1029.5,697.25L1036.2,697.25L1042.8,697.25L1049.5,697.63L1056.2,698.02L1062.9,697.81L1069.6,697.81L1076.3,697.97" style="fill:none;stroke:#F15A60;stroke-width:1.875" />
<path d="M67.088,47.03L73.771,70.948L80.454,89.702L87.137,109.93L93.82,144.66L100.5,168.91L107.19,222.91L113.87,250.49L120.55,264.63L127.24,295.07L133.92,330.05L140.6,369.49L147.29,370.82L153.97,393.28L160.65,393.28L167.34,402L174.02,474.65L180.7,483.12L187.39,483.23L194.07,483.25L200.75,501.54L207.44,505.12L214.12,505.12L220.8,506.28L227.49,516.93L234.17,524.93L240.85,524.93L247.54,537.81L254.22,537.81L260.9,548.47L267.58,548.59L274.27,565.03L280.95,573.87L287.63,574.12L294.32,574.16L301,574.16L307.68,573.89L314.37,573.89L321.05,575.78L327.73,578.22L334.42,584.31L341.1,584.31L347.78,598.58L354.47,598.61L361.15,599.2L367.83,600.34L374.52,600.34L381.2,628.92L387.88,645.95L394.57,649.86L401.25,656.64L407.93,666.64L414.62,672.42L421.3,669.97L427.98,670.06L434.67,666.51L441.35,666.54L448.03,665.1L454.72,664.2" style="fill:none;stroke:#7AC36A;stroke-width:1.875;stroke-dasharray:7.5,2.5" />
<path d="M67.088,47.186L73.771,72.349L80.454,87.416L87.137,111.79L93.82,146.57L100.5,170.58L107.19,224.78L113.87,254.41L120.55,266.75L127.24,302.74L133.92,341L140.6,371.68L147.29,393.55L153.97,393.74L160.65,393.72L167.34,406.37L174.02,474.94L180.7,484.19L187.39,484.2L194.07,484.93L200.75,502.78L207.44,506.64L214.12,508.01L220.8,508.04L227.49,526.43L234.17,526.43L240.85,527.03L247.54,546.12L254.22,557.78L260.9,557.78L267.58,558.12L274.27,569.71L280.95,572.11L287.63,572.27L294.32,573.22L301,574.74L307.68,574.74L314.37,589.59L321.05,589.59L327.73,591.97L334.42,598.53L341.1,598.31L347.78,608.86L354.47,618.76L361.15,626.82L367.83,643.93L374.52,649.72L381.2,649.89L387.88,646.84L394.57,657.14L401.25,663.65L407.93,663.85L414.62,664.58L421.3,663.52" style="fill:none;stroke:#5A9BD4;stroke-width:1.875;stroke-dasharray:2.5,2.5" />
<path d="M1055,694.3L1080,694.3" style="fill:none;stroke:#7AC36A;stroke-width:1.875;stroke-dasharray:7.5,2.5" />
<text x="793.19" y="-687.85" transform="scale(1, -1)"
	style="font-family:Helvetica;font-weight:normal;font-style:normal;font-size:12pt">Zookeeper v3.4.8 (snapCount 500000)</text>
<path d="M1055,680L1080,680" style="fill:none;stroke:#5A9BD4;stroke-width:1.875;stroke-dasharray:2.5,2.5" />
<text x="784.85" y="-673.56" transform="scale(1, -1)"
	style="font-family:Helvetica;font-weight:normal;font-style:normal;font-size:12pt">Zookeeper v3.4.8 (snapCount 1000000)</text>
<path d="M1055,665.71L1080,665.71" style="fill:none;stroke:#F15A60;stroke-width:1.875" />
<text x="793.19" y="-659.26" transform="scale(1, -1)"
	style="font-family:Helvetica;font-weight:normal;font-style:normal;font-size:12pt">Zookeeper v3.4.8 (snapCount 100000)</text>
</g>
</svg>
