<?xml version="1.0"?>
<!-- Generated by SVGo and Plotinum VG -->
<svg width="12in" height="8in"
	xmlns="http://www.w3.org/2000/svg"
	xmlns:xlink="http://www.w3.org/1999/xlink">
<g transform="scale(1, -1) translate(0, -720)">
<path d="M0,0L1080,0L1080,720L0,720Z" style="fill:#FFFFFF" />
<text x="278.67" y="-706.41" transform="scale(1, -1)"
	style="font-family:Helvetica;font-weight:normal;font-style:normal;font-size:12pt">Write 2M keys, 1,000 clients, 8-byte key, 256-byte value (Test 2), Memory(MB)</text>
<text x="548.11" y="-4.965" transform="scale(1, -1)"
	style="font-family:Helvetica;font-weight:normal;font-style:normal;font-size:12pt">Second</text>
<text x="63.613" y="-19.142" transform="scale(1, -1)"
	style="font-family:Helvetica;font-weight:normal;font-style:normal;font-size:10pt">0</text>
<text x="370.21" y="-19.142" transform="scale(1, -1)"
	style="font-family:Helvetica;font-weight:normal;font-style:normal;font-size:10pt">30</text>
<text x="680.29" y="-19.142" transform="scale(1, -1)"
	style="font-family:Helvetica;font-weight:normal;font-style:normal;font-size:10pt">60</text>
<text x="990.36" y="-19.142" transform="scale(1, -1)"
	style="font-family:Helvetica;font-weight:normal;font-style:normal;font-size:10pt">90</text>
<path d="M67.088,30.467L67.088,40.467" style="fill:none;stroke:#000000;stroke-width:0.625" />
<path d="M377.16,30.467L377.16,40.467" style="fill:none;stroke:#000000;stroke-width:0.625" />
<path d="M687.24,30.467L687.24,40.467" style="fill:none;stroke:#000000;stroke-width:0.625" />
<path d="M997.31,30.467L997.31,40.467" style="fill:none;stroke:#000000;stroke-width:0.625" />
<path d="M170.45,35.468L170.45,40.467" style="fill:none;stroke:#000000;stroke-width:0.625" />
<path d="M273.8,35.468L273.8,40.467" style="fill:none;stroke:#000000;stroke-width:0.625" />
<path d="M480.52,35.468L480.52,40.467" style="fill:none;stroke:#000000;stroke-width:0.625" />
<path d="M583.88,35.468L583.88,40.467" style="fill:none;stroke:#000000;stroke-width:0.625" />
<path d="M790.6,35.468L790.6,40.467" style="fill:none;stroke:#000000;stroke-width:0.625" />
<path d="M893.95,35.468L893.95,40.467" style="fill:none;stroke:#000000;stroke-width:0.625" />
<path d="M67.088,40.467L1080,40.467" style="fill:none;stroke:#000000;stroke-width:0.625" />
<g transform="rotate(90)">
<text x="330.91" y="13.59" transform="scale(1, -1)"
	style="font-family:Helvetica;font-weight:normal;font-style:normal;font-size:12pt">Memory(MB)</text>
</g>
<text x="25.505" y="-236.58" transform="scale(1, -1)"
	style="font-family:Helvetica;font-weight:normal;font-style:normal;font-size:10pt">800</text>
<text x="18.555" y="-446.6" transform="scale(1, -1)"
	style="font-family:Helvetica;font-weight:normal;font-style:normal;font-size:10pt">1600</text>
<text x="18.555" y="-656.63" transform="scale(1, -1)"
	style="font-family:Helvetica;font-weight:normal;font-style:normal;font-size:10pt">2400</text>
<path d="M49.83,241.94L59.83,241.94" style="fill:none;stroke:#000000;stroke-width:0.625" />
<path d="M49.83,451.97L59.83,451.97" style="fill:none;stroke:#000000;stroke-width:0.625" />
<path d="M49.83,662L59.83,662" style="fill:none;stroke:#000000;stroke-width:0.625" />
<path d="M54.83,136.93L59.83,136.93" style="fill:none;stroke:#000000;stroke-width:0.625" />
<path d="M54.83,346.96L59.83,346.96" style="fill:none;stroke:#000000;stroke-width:0.625" />
<path d="M54.83,556.99L59.83,556.99" style="fill:none;stroke:#000000;stroke-width:0.625" />
<path d="M59.83,47.03L59.83,701.44" style="fill:none;stroke:#000000;stroke-width:0.625" />
<path d="M67.088,71.504L77.423,88.894L87.759,107.49L98.095,132.28L108.43,164.83L118.77,197.75L129.1,249.91L139.44,257.03L149.77,285.13L160.11,323.38L170.45,369.31L180.78,378.99L191.12,388.65L201.45,392.76L211.79,401.71L222.13,441.5L232.46,472.73L242.8,482L253.13,481.1L263.47,486.79L273.8,503.86L284.14,504.03L294.48,504.79L304.81,504.79L315.15,517.69L325.48,521.84L335.82,526.14L346.16,531.66L356.49,531.66L366.83,542.98L377.16,543.13L387.5,568.76L397.83,572.38L408.17,572.51L418.51,572.51L428.84,571.71L439.18,571.48L449.51,571.48L459.85,573.19L470.19,573.77L480.52,578.46L490.86,578.46L501.19,581.07L511.53,592.83L521.86,592.81L532.2,592.81L542.54,592.81L552.87,592.81L563.21,592.83L573.54,592.88L583.88,593.19L594.22,593.62L604.55,593.56L614.89,593.62L625.22,593.63L635.56,593.67L645.89,593.67L656.23,593.65L666.57,593.51L676.9,593.47L687.24,593.44L697.57,593.44L707.91,593.44L718.25,593.44L728.58,593.45L738.92,593.47L749.25,594.73L759.59,595.99L769.92,597.43L780.26,596.42L790.6,596.52L800.93,596.62L811.27,596.7L821.6,608.29L831.94,596.8L842.28,597.29L852.61,597.96L862.95,599.99L873.28,600.7L883.62,604.71L893.95,604.73L904.29,635.9L914.63,636.05L924.96,642.97L935.3,643.53L945.63,650.52L955.97,654.99L966.31,666.56L976.64,666.45L986.98,668.18L997.31,671.41L1007.6,670.45L1018,670.86L1028.3,673.43L1038.7,683.17L1049,691.14L1059.3,691.28L1069.7,696.6L1080,701.44" style="fill:none;stroke:#F15A60;stroke-width:1.875" />
<path d="M67.088,47.03L77.423,72.178L87.759,95.473L98.095,111.28L108.43,149.89L118.77,180.97L129.1,220.67L139.44,260.27L149.77,267.86L160.11,324.39L170.45,364.75L180.78,366.8L191.12,389.69L201.45,393L211.79,407.75L222.13,475.47L232.46,478.62L242.8,478.62L253.13,479.27L263.47,496.65L273.8,500.64L284.14,501.61L294.48,501.61L304.81,517.39L315.15,519.57L325.48,520.31L335.82,530.98L346.16,541.52L356.49,542.1L366.83,542.22L377.16,563.27L387.5,566.32L397.83,566.61L408.17,566.61L418.51,566.78L428.84,566.78L439.18,569.39L449.51,572.65L459.85,577.96L470.19,577.86L480.52,593.86L490.86,594.41L501.19,594.6L511.53,601.5L521.86,602.31L532.2,622.53L542.54,632.38L552.87,632.38L563.21,641.55L573.54,656.38L583.88,664.23L594.22,665.21L604.55,665.33L614.89,663.1L625.22,662.96L635.56,662.32L645.89,662.49" style="fill:none;stroke:#7AC36A;stroke-width:1.875;stroke-dasharray:7.5,2.5" />
<path d="M67.088,47.224L77.423,71.721L87.759,87.944L98.095,115.25L108.43,146.3L118.77,170.32L129.1,222.91L139.44,249.94L149.77,263.59L160.11,297.05L170.45,335.71L180.78,369.26L191.12,391.27L201.45,391.74L211.79,397.89L222.13,418.32L232.46,477.66L242.8,481.24L253.13,482.2L263.47,482.23L273.8,500.82L284.14,504.41L294.48,504.5L304.81,505.67L315.15,507.73L325.48,524.24L335.82,524.24L346.16,524.43L356.49,535.99L366.83,546.28L377.16,546.46L387.5,546.6L397.83,568.06L408.17,571.38L418.51,571.63L428.84,571.66L439.18,571.66L449.51,571.98L459.85,571.98L470.19,578.9L480.52,581.82L490.86,581.82L501.19,581.82L511.53,598.51L521.86,598.51L532.2,606.07L542.54,605.65L552.87,605.65L563.21,613.91L573.54,628.72L583.88,646.31L594.22,651.64L604.55,651.64L614.89,661.82L625.22,661.17L635.56,667.03L645.89,667.77L656.23,666.77L666.57,666.86L676.9,666.98L687.24,667.04" style="fill:none;stroke:#5A9BD4;stroke-width:1.875;stroke-dasharray:2.5,2.5" />
<path d="M1055,694.3L1080,694.3" style="fill:none;stroke:#7AC36A;stroke-width:1.875;stroke-dasharray:7.5,2.5" />
<text x="793.19" y="-687.85" transform="scale(1, -1)"
	style="font-family:Helvetica;font-weight:normal;font-style:normal;font-size:12pt">Zookeeper v3.4.8 (snapCount 500000)</text>
<path d="M1055,680L1080,680" style="fill:none;stroke:#5A9BD4;stroke-width:1.875;stroke-dasharray:2.5,2.5" />
<text x="784.85" y="-673.56" transform="scale(1, -1)"
	style="font-family:Helvetica;font-weight:normal;font-style:normal;font-size:12pt">Zookeeper v3.4.8 (snapCount 1000000)</text>
<path d="M1055,665.71L1080,665.71" style="fill:none;stroke:#F15A60;stroke-width:1.875" />
<text x="793.19" y="-659.26" transform="scale(1, -1)"
	style="font-family:Helvetica;font-weight:normal;font-style:normal;font-size:12pt">Zookeeper v3.4.8 (snapCount 100000)</text>
</g>
</svg>
