<?xml version="1.0"?>
<!-- Generated by SVGo and Plotinum VG -->
<svg width="12in" height="8in"
	xmlns="http://www.w3.org/2000/svg"
	xmlns:xlink="http://www.w3.org/1999/xlink">
<g transform="scale(1, -1) translate(0, -720)">
<path d="M0,0L1080,0L1080,720L0,720Z" style="fill:#FFFFFF" />
<text x="314.92" y="-706.41" transform="scale(1, -1)"
	style="font-family:Helvetica;font-weight:normal;font-style:normal;font-size:12pt">Write 2M keys, 1,000 clients, 8-byte key, 256-byte value (Test, CPU</text>
<text x="544.64" y="-4.965" transform="scale(1, -1)"
	style="font-family:Helvetica;font-weight:normal;font-style:normal;font-size:12pt">Second</text>
<text x="56.662" y="-19.142" transform="scale(1, -1)"
	style="font-family:Helvetica;font-weight:normal;font-style:normal;font-size:10pt">0</text>
<text x="365.39" y="-19.142" transform="scale(1, -1)"
	style="font-family:Helvetica;font-weight:normal;font-style:normal;font-size:10pt">30</text>
<text x="677.59" y="-19.142" transform="scale(1, -1)"
	style="font-family:Helvetica;font-weight:normal;font-style:normal;font-size:10pt">60</text>
<text x="989.8" y="-19.142" transform="scale(1, -1)"
	style="font-family:Helvetica;font-weight:normal;font-style:normal;font-size:10pt">90</text>
<path d="M60.137,30.467L60.137,40.467" style="fill:none;stroke:#000000;stroke-width:0.625" />
<path d="M372.34,30.467L372.34,40.467" style="fill:none;stroke:#000000;stroke-width:0.625" />
<path d="M684.54,30.467L684.54,40.467" style="fill:none;stroke:#000000;stroke-width:0.625" />
<path d="M996.75,30.467L996.75,40.467" style="fill:none;stroke:#000000;stroke-width:0.625" />
<path d="M164.21,35.468L164.21,40.467" style="fill:none;stroke:#000000;stroke-width:0.625" />
<path d="M268.27,35.468L268.27,40.467" style="fill:none;stroke:#000000;stroke-width:0.625" />
<path d="M476.41,35.468L476.41,40.467" style="fill:none;stroke:#000000;stroke-width:0.625" />
<path d="M580.48,35.468L580.48,40.467" style="fill:none;stroke:#000000;stroke-width:0.625" />
<path d="M788.61,35.468L788.61,40.467" style="fill:none;stroke:#000000;stroke-width:0.625" />
<path d="M892.68,35.468L892.68,40.467" style="fill:none;stroke:#000000;stroke-width:0.625" />
<path d="M60.137,40.467L1080,40.467" style="fill:none;stroke:#000000;stroke-width:0.625" />
<g transform="rotate(90)">
<text x="358.4" y="13.59" transform="scale(1, -1)"
	style="font-family:Helvetica;font-weight:normal;font-style:normal;font-size:12pt">CPU</text>
</g>
<text x="18.555" y="-228.69" transform="scale(1, -1)"
	style="font-family:Helvetica;font-weight:normal;font-style:normal;font-size:10pt">100</text>
<text x="18.555" y="-432.5" transform="scale(1, -1)"
	style="font-family:Helvetica;font-weight:normal;font-style:normal;font-size:10pt">200</text>
<text x="18.555" y="-636.3" transform="scale(1, -1)"
	style="font-family:Helvetica;font-weight:normal;font-style:normal;font-size:10pt">300</text>
<path d="M42.88,234.06L52.88,234.06" style="fill:none;stroke:#000000;stroke-width:0.625" />
<path d="M42.88,437.87L52.88,437.87" style="fill:none;stroke:#000000;stroke-width:0.625" />
<path d="M42.88,641.67L52.88,641.67" style="fill:none;stroke:#000000;stroke-width:0.625" />
<path d="M47.88,132.16L52.88,132.16" style="fill:none;stroke:#000000;stroke-width:0.625" />
<path d="M47.88,335.96L52.88,335.96" style="fill:none;stroke:#000000;stroke-width:0.625" />
<path d="M47.88,539.77L52.88,539.77" style="fill:none;stroke:#000000;stroke-width:0.625" />
<path d="M52.88,47.03L52.88,701.44" style="fill:none;stroke:#000000;stroke-width:0.625" />
<path d="M60.137,153.84L70.544,211.15L80.951,250.43L91.358,298.75L101.76,334.72L112.17,372.2L122.58,404.73L132.98,437.6L143.39,469.23L153.8,495.56L164.21,518.33L174.61,531.47L185.02,548.02L195.43,562.78L205.83,573.97L216.24,583.73L226.65,585.2L237.05,591.39L247.46,599.97L257.87,608.98L268.27,620L278.68,628.75L289.09,634.84L299.49,639.47L309.9,645.32L320.31,651L330.71,657.32L341.12,662.05L351.53,661.99L361.93,663.84L372.34,661.62L382.75,671.57L393.15,681.61L403.56,683.61L413.97,684.35L424.37,687.65L434.78,688.97L445.19,689.62L455.59,689.79L466,692.31L476.41,693.42L486.81,686.89L497.22,686.69L507.63,680.92L518.03,671.71L528.44,662.09L538.85,650.9L549.26,639.49L559.66,627.26L570.07,617.31L580.48,607.61L590.88,598.06L601.29,588.09L611.7,580.57L622.1,574.05L632.51,566.47L642.92,558.31L653.32,550.32L663.73,542.93L674.14,535.32L684.54,527.31L694.95,521L705.36,515.17L715.76,509.36L726.17,503.45L736.58,497.15L746.98,492.22L757.39,487.23L767.8,482.29L778.2,477.53L788.61,472.51L799.02,468.13L809.42,463.83L819.83,460.77L830.24,457.49L840.64,454.64L851.05,456.31L861.46,463.42L871.86,468.92L882.27,469.88L892.68,468.66L903.09,470.7L913.49,473.73L923.9,476.79L934.31,479.05L944.71,481.15L955.12,485.7L965.53,488.71L975.93,492.38L986.34,495.73L996.75,499.6L1007.2,502.41L1017.6,504.98L1028,506.98L1038.4,508.46L1048.8,509.14L1059.2,507.28L1069.6,509.07L1080,512.05" style="fill:none;stroke:#F15A60;stroke-width:1.875" />
<path d="M60.137,47.03L70.544,156.31L80.951,230.49L91.358,258.56L101.76,302.36L112.17,339.33L122.58,370.43L132.98,395.09L143.39,415.51L153.8,440.37L164.21,454.54L174.61,469.09L185.02,491.57L195.43,505.2L205.83,518.08L216.24,530.35L226.65,528.66L237.05,536.49L247.46,543.13L257.87,556.09L268.27,567.99L278.68,574.09L289.09,580.98L299.49,584.58L309.9,591.39L320.31,597.55L330.71,605.05L341.12,609.79L351.53,608.22L361.93,606.02L372.34,612.2L382.75,625.75L393.15,627.16L403.56,631.44L413.97,635.78L424.37,638.59L434.78,643.54L445.19,648.95L455.59,652.31L466,655.04L476.41,659.91L486.81,661.05L497.22,664.92L507.63,668.04L518.03,669.41L528.44,671.85L538.85,679.68L549.26,680.45L559.66,684.14L570.07,692.97L580.48,692.62L590.88,689.56L601.29,692.23L611.7,695.21L622.1,697.88L632.51,700.12L642.92,701.44" style="fill:none;stroke:#7AC36A;stroke-width:1.875;stroke-dasharray:7.5,2.5" />
<path d="M60.137,47.213L70.544,152.62L80.951,225.36L91.358,260.88L101.76,300.05L112.17,332.56L122.58,368.84L132.98,396.06L143.39,422.4L153.8,444.1L164.21,463.32L174.61,474.57L185.02,488.92L195.43,506.32L205.83,514.96L216.24,522.87L226.65,531.92L237.05,531.8L247.46,541.58L257.87,549.96L268.27,559.56L278.68,576.49L289.09,580.75L299.49,584.2L309.9,586.5L320.31,590.68L330.71,593.57L341.12,597.02L351.53,601.23L361.93,603.07L372.34,602.82L382.75,600.44L393.15,604.01L403.56,617.13L413.97,619.33L424.37,620.74L434.78,621.84L445.19,623.86L455.59,624.55L466,626.38L476.41,629.79L486.81,631.4L497.22,633.23L507.63,636.57L518.03,637.43L528.44,639L538.85,643.18L549.26,644.16L559.66,647.23L570.07,654.67L580.48,661.83L590.88,661.68L601.29,657.67L611.7,660.42L622.1,667.02L632.51,668.12L642.92,665.29L653.32,666.57L663.73,668.63L674.14,670.39L684.54,672.99" style="fill:none;stroke:#5A9BD4;stroke-width:1.875;stroke-dasharray:2.5,2.5" />
<path d="M1055,694.3L1080,694.3" style="fill:none;stroke:#7AC36A;stroke-width:1.875;stroke-dasharray:7.5,2.5" />
<text x="793.19" y="-687.85" transform="scale(1, -1)"
	style="font-family:Helvetica;font-weight:normal;font-style:normal;font-size:12pt">Zookeeper v3.4.8 (snapCount 500000)</text>
<path d="M1055,680L1080,680" style="fill:none;stroke:#5A9BD4;stroke-width:1.875;stroke-dasharray:2.5,2.5" />
<text x="784.85" y="-673.56" transform="scale(1, -1)"
	style="font-family:Helvetica;font-weight:normal;font-style:normal;font-size:12pt">Zookeeper v3.4.8 (snapCount 1000000)</text>
<path d="M1055,665.71L1080,665.71" style="fill:none;stroke:#F15A60;stroke-width:1.875" />
<text x="793.19" y="-659.26" transform="scale(1, -1)"
	style="font-family:Helvetica;font-weight:normal;font-style:normal;font-size:12pt">Zookeeper v3.4.8 (snapCount 100000)</text>
</g>
</svg>
