<?xml version="1.0"?>
<!-- Generated by SVGo and Plotinum VG -->
<svg width="12in" height="8in"
	xmlns="http://www.w3.org/2000/svg"
	xmlns:xlink="http://www.w3.org/1999/xlink">
<g transform="scale(1, -1) translate(0, -720)">
<path d="M0,0L1080,0L1080,720L0,720Z" style="fill:#FFFFFF" />
<text x="262.4" y="-706.41" transform="scale(1, -1)"
	style="font-family:Helvetica;font-weight:normal;font-style:normal;font-size:12pt">Write 2M keys, 1,000 clients, 8-byte key, 256-byte value (Test, Latency(millisecond)</text>
<text x="548.11" y="-4.965" transform="scale(1, -1)"
	style="font-family:Helvetica;font-weight:normal;font-style:normal;font-size:12pt">Second</text>
<text x="63.613" y="-19.142" transform="scale(1, -1)"
	style="font-family:Helvetica;font-weight:normal;font-style:normal;font-size:10pt">0</text>
<text x="368.95" y="-19.142" transform="scale(1, -1)"
	style="font-family:Helvetica;font-weight:normal;font-style:normal;font-size:10pt">50</text>
<text x="674.29" y="-19.142" transform="scale(1, -1)"
	style="font-family:Helvetica;font-weight:normal;font-style:normal;font-size:10pt">100</text>
<text x="983.11" y="-19.142" transform="scale(1, -1)"
	style="font-family:Helvetica;font-weight:normal;font-style:normal;font-size:10pt">150</text>
<path d="M67.088,30.467L67.088,40.467" style="fill:none;stroke:#000000;stroke-width:0.625" />
<path d="M375.9,30.467L375.9,40.467" style="fill:none;stroke:#000000;stroke-width:0.625" />
<path d="M684.72,30.467L684.72,40.467" style="fill:none;stroke:#000000;stroke-width:0.625" />
<path d="M993.53,30.467L993.53,40.467" style="fill:none;stroke:#000000;stroke-width:0.625" />
<path d="M128.85,35.468L128.85,40.467" style="fill:none;stroke:#000000;stroke-width:0.625" />
<path d="M190.61,35.468L190.61,40.467" style="fill:none;stroke:#000000;stroke-width:0.625" />
<path d="M252.38,35.468L252.38,40.467" style="fill:none;stroke:#000000;stroke-width:0.625" />
<path d="M314.14,35.468L314.14,40.467" style="fill:none;stroke:#000000;stroke-width:0.625" />
<path d="M437.67,35.468L437.67,40.467" style="fill:none;stroke:#000000;stroke-width:0.625" />
<path d="M499.43,35.468L499.43,40.467" style="fill:none;stroke:#000000;stroke-width:0.625" />
<path d="M561.19,35.468L561.19,40.467" style="fill:none;stroke:#000000;stroke-width:0.625" />
<path d="M622.95,35.468L622.95,40.467" style="fill:none;stroke:#000000;stroke-width:0.625" />
<path d="M746.48,35.468L746.48,40.467" style="fill:none;stroke:#000000;stroke-width:0.625" />
<path d="M808.24,35.468L808.24,40.467" style="fill:none;stroke:#000000;stroke-width:0.625" />
<path d="M870.01,35.468L870.01,40.467" style="fill:none;stroke:#000000;stroke-width:0.625" />
<path d="M931.77,35.468L931.77,40.467" style="fill:none;stroke:#000000;stroke-width:0.625" />
<path d="M1055.3,35.468L1055.3,40.467" style="fill:none;stroke:#000000;stroke-width:0.625" />
<path d="M67.088,40.467L1080,40.467" style="fill:none;stroke:#000000;stroke-width:0.625" />
<g transform="rotate(90)">
<text x="305.89" y="13.59" transform="scale(1, -1)"
	style="font-family:Helvetica;font-weight:normal;font-style:normal;font-size:12pt">Latency(millisecond)</text>
</g>
<text x="39.405" y="-41.661" transform="scale(1, -1)"
	style="font-family:Helvetica;font-weight:normal;font-style:normal;font-size:10pt">0</text>
<text x="25.505" y="-255.98" transform="scale(1, -1)"
	style="font-family:Helvetica;font-weight:normal;font-style:normal;font-size:10pt">800</text>
<text x="18.555" y="-470.31" transform="scale(1, -1)"
	style="font-family:Helvetica;font-weight:normal;font-style:normal;font-size:10pt">1600</text>
<text x="18.555" y="-684.63" transform="scale(1, -1)"
	style="font-family:Helvetica;font-weight:normal;font-style:normal;font-size:10pt">2400</text>
<path d="M49.83,47.03L59.83,47.03" style="fill:none;stroke:#000000;stroke-width:0.625" />
<path d="M49.83,261.35L59.83,261.35" style="fill:none;stroke:#000000;stroke-width:0.625" />
<path d="M49.83,475.67L59.83,475.67" style="fill:none;stroke:#000000;stroke-width:0.625" />
<path d="M49.83,690L59.83,690" style="fill:none;stroke:#000000;stroke-width:0.625" />
<path d="M54.83,154.19L59.83,154.19" style="fill:none;stroke:#000000;stroke-width:0.625" />
<path d="M54.83,368.51L59.83,368.51" style="fill:none;stroke:#000000;stroke-width:0.625" />
<path d="M54.83,582.84L59.83,582.84" style="fill:none;stroke:#000000;stroke-width:0.625" />
<path d="M59.83,47.03L59.83,701.44" style="fill:none;stroke:#000000;stroke-width:0.625" />
<path d="M67.088,66.931L73.264,54.078L79.44,53.586L85.616,64.174L91.793,53.689L97.969,53.668L104.15,54.05L110.32,54.925L116.5,53.4L122.67,53.333L128.85,53.962L135.03,54.005L141.2,58.389L147.38,58.843L153.56,53.357L159.73,52.866L165.91,54.049L172.08,121.15L178.26,52.948L184.44,53.289L190.61,53.526L196.79,59.234L202.97,53.538L209.14,53.222L215.32,53.935L221.49,53.987L227.67,53.569L233.85,53.536L240.02,53.041L246.2,53.597L252.38,90.341L258.55,54.222L264.73,84.327L270.91,57.179L277.08,54.971L283.26,53.332L289.43,54.007L295.61,54.662L301.79,57.832L307.96,57.3L314.14,53.189L320.32,115.85L326.49,219.52L332.67,242.86L338.84,196.73L345.02,47.03L351.2,701.44L357.37,47.03L363.55,47.03L369.73,47.03L375.9,47.03L382.08,47.03L388.25,47.03L394.43,47.03L400.61,47.03L406.78,47.03L412.96,47.03L419.14,47.03L425.31,47.03L431.49,47.03L437.67,47.03L443.84,47.03L450.02,47.03L456.19,47.03L462.37,47.03L468.55,64.109L474.72,55.904L480.9,51.51L487.08,52.64L493.25,51.796L499.43,51.707L505.6,59.178L511.78,86.566L517.96,54.408L524.13,55.513L530.31,47.03L536.49,487.68L542.66,47.03L548.84,47.03L555.01,47.03L561.19,47.03L567.37,60.81L573.54,59.305L579.72,336.13L585.9,47.03L592.07,47.03L598.25,47.03L604.43,47.03L610.6,47.03L616.78,47.03L622.95,84.022L629.13,56.631L635.31,54.278L641.48,54.354L647.66,54.539L653.84,54.48L660.01,55.874L666.19,54.359L672.36,47.03L678.54,47.03L684.72,47.03L690.89,47.03L697.07,47.03L703.25,47.03L709.42,47.03L715.6,47.03L721.77,47.03L727.95,47.03L734.13,47.03L740.3,47.03L746.48,47.03L752.66,47.03L758.83,47.03L765.01,47.03L771.19,47.03L777.36,47.03L783.54,47.03L789.71,47.03L795.89,47.03L802.07,47.03L808.24,47.03L814.42,47.03L820.6,47.03L826.77,47.03L832.95,47.03L839.12,47.03L845.3,47.03L851.48,47.03L857.65,47.03L863.83,47.03L870.01,47.03L876.18,47.03L882.36,47.03L888.53,47.03L894.71,47.03L900.89,47.03L907.06,47.03L913.24,47.03L919.42,47.03L925.59,47.03L931.77,47.03L937.95,47.03L944.12,47.03L950.3,47.03L956.47,47.03L962.65,47.03L968.83,47.03L975,47.03L981.18,47.03L987.36,47.03L993.53,47.03L999.71,47.03L1005.9,47.03L1012.1,47.03L1018.2,47.03L1024.4,47.03L1030.6,73.369L1036.8,61.947L1042.9,47.03L1049.1,95.694L1055.3,50.69L1061.5,47.03L1067.6,84.958L1073.8,52.061L1080,52.146" style="fill:none;stroke:#F15A60;stroke-width:1.875" />
<path d="M67.088,82.662L73.264,52.245L79.44,56.236L85.616,58.239L91.793,53.468L97.969,52.421L104.15,52.932L110.32,53.327L116.5,52.935L122.67,52.743L128.85,53.319L135.03,57.409L141.2,56.328L147.38,53.163L153.56,52.305L159.73,54.183L165.91,65.198L172.08,52.243L178.26,52.798L184.44,65.922L190.61,54.271L196.79,53.818L202.97,53.771L209.14,53.188L215.32,52.856L221.49,53.193L227.67,52.155L233.85,47.03L240.02,81.322L246.2,52.721L252.38,50.285L258.55,79.92L264.73,52.941L270.91,52.972L277.08,53.474L283.26,52.991L289.43,52.311L295.61,52.745L301.79,52.615L307.96,52.959L314.14,53.68L320.32,52.603L326.49,53.512L332.67,54.804L338.84,50.857L345.02,47.03L351.2,71.751L357.37,52.519L363.55,53.233L369.73,53.748L375.9,53.421L382.08,53.542L388.25,54.175L394.43,47.03L400.61,121.03L406.78,55.028L412.96,53.791L419.14,54.31" style="fill:none;stroke:#7AC36A;stroke-width:1.875;stroke-dasharray:7.5,2.5" />
<path d="M67.088,50.586L73.264,52.74L79.44,60.504L85.616,57.785L91.793,53.861L97.969,53.178L104.15,53.505L110.32,53.896L116.5,52.584L122.67,53.009L128.85,53.465L135.03,56.842L141.2,58.756L147.38,53.676L153.56,52.475L159.73,53.74L165.91,97.471L172.08,53.504L178.26,52.864L184.44,53.102L190.61,65.469L196.79,52.774L202.97,52.225L209.14,53.594L215.32,52.85L221.49,54.236L227.67,52.679L233.85,52.991L240.02,47.03L246.2,66.672L252.38,52.231L258.55,47.03L264.73,66.558L270.91,52.458L277.08,53.892L283.26,52.717L289.43,53.009L295.61,53.636L301.79,53.559L307.96,52.858L314.14,54.2L320.32,53.934L326.49,53.585L332.67,53.308L338.84,55.023L345.02,53.336L351.2,50.898L357.37,47.03L363.55,76.46L369.73,52.673L375.9,53.421L382.08,53.72L388.25,53.633L394.43,55.014L400.61,52.562L406.78,47.03L412.96,47.03L419.14,80.854L425.31,54.357L431.49,53.915" style="fill:none;stroke:#5A9BD4;stroke-width:1.875;stroke-dasharray:2.5,2.5" />
<path d="M1055,694.3L1080,694.3" style="fill:none;stroke:#F15A60;stroke-width:1.875" />
<text x="793.19" y="-687.85" transform="scale(1, -1)"
	style="font-family:Helvetica;font-weight:normal;font-style:normal;font-size:12pt">Zookeeper v3.4.8 (snapCount 100000)</text>
<path d="M1055,680L1080,680" style="fill:none;stroke:#7AC36A;stroke-width:1.875;stroke-dasharray:7.5,2.5" />
<text x="793.19" y="-673.56" transform="scale(1, -1)"
	style="font-family:Helvetica;font-weight:normal;font-style:normal;font-size:12pt">Zookeeper v3.4.8 (snapCount 500000)</text>
<path d="M1055,665.71L1080,665.71" style="fill:none;stroke:#5A9BD4;stroke-width:1.875;stroke-dasharray:2.5,2.5" />
<text x="784.85" y="-659.26" transform="scale(1, -1)"
	style="font-family:Helvetica;font-weight:normal;font-style:normal;font-size:12pt">Zookeeper v3.4.8 (snapCount 1000000)</text>
</g>
</svg>
