<?xml version="1.0"?>
<!-- Generated by SVGo and Plotinum VG -->
<svg width="12in" height="8in"
	xmlns="http://www.w3.org/2000/svg"
	xmlns:xlink="http://www.w3.org/1999/xlink">
<g transform="scale(1, -1) translate(0, -720)">
<path d="M0,0L1080,0L1080,720L0,720Z" style="fill:#FFFFFF" />
<text x="314.92" y="-706.41" transform="scale(1, -1)"
	style="font-family:Helvetica;font-weight:normal;font-style:normal;font-size:12pt">Write 2M keys, 1,000 clients, 8-byte key, 256-byte value (Test, CPU</text>
<text x="542.79" y="-4.965" transform="scale(1, -1)"
	style="font-family:Helvetica;font-weight:normal;font-style:normal;font-size:12pt">Second</text>
<text x="56.662" y="-19.142" transform="scale(1, -1)"
	style="font-family:Helvetica;font-weight:normal;font-style:normal;font-size:10pt">0</text>
<text x="389.67" y="-19.142" transform="scale(1, -1)"
	style="font-family:Helvetica;font-weight:normal;font-style:normal;font-size:10pt">50</text>
<text x="722.67" y="-19.142" transform="scale(1, -1)"
	style="font-family:Helvetica;font-weight:normal;font-style:normal;font-size:10pt">100</text>
<text x="1059.1" y="-19.142" transform="scale(1, -1)"
	style="font-family:Helvetica;font-weight:normal;font-style:normal;font-size:10pt">150</text>
<path d="M60.137,30.467L60.137,40.467" style="fill:none;stroke:#000000;stroke-width:0.625" />
<path d="M396.62,30.467L396.62,40.467" style="fill:none;stroke:#000000;stroke-width:0.625" />
<path d="M733.1,30.467L733.1,40.467" style="fill:none;stroke:#000000;stroke-width:0.625" />
<path d="M1069.6,30.467L1069.6,40.467" style="fill:none;stroke:#000000;stroke-width:0.625" />
<path d="M127.43,35.468L127.43,40.467" style="fill:none;stroke:#000000;stroke-width:0.625" />
<path d="M194.73,35.468L194.73,40.467" style="fill:none;stroke:#000000;stroke-width:0.625" />
<path d="M262.02,35.468L262.02,40.467" style="fill:none;stroke:#000000;stroke-width:0.625" />
<path d="M329.32,35.468L329.32,40.467" style="fill:none;stroke:#000000;stroke-width:0.625" />
<path d="M463.91,35.468L463.91,40.467" style="fill:none;stroke:#000000;stroke-width:0.625" />
<path d="M531.21,35.468L531.21,40.467" style="fill:none;stroke:#000000;stroke-width:0.625" />
<path d="M598.5,35.468L598.5,40.467" style="fill:none;stroke:#000000;stroke-width:0.625" />
<path d="M665.8,35.468L665.8,40.467" style="fill:none;stroke:#000000;stroke-width:0.625" />
<path d="M800.39,35.468L800.39,40.467" style="fill:none;stroke:#000000;stroke-width:0.625" />
<path d="M867.69,35.468L867.69,40.467" style="fill:none;stroke:#000000;stroke-width:0.625" />
<path d="M934.98,35.468L934.98,40.467" style="fill:none;stroke:#000000;stroke-width:0.625" />
<path d="M1002.3,35.468L1002.3,40.467" style="fill:none;stroke:#000000;stroke-width:0.625" />
<path d="M60.137,40.467L1076.3,40.467" style="fill:none;stroke:#000000;stroke-width:0.625" />
<g transform="rotate(90)">
<text x="358.4" y="13.59" transform="scale(1, -1)"
	style="font-family:Helvetica;font-weight:normal;font-style:normal;font-size:12pt">CPU</text>
</g>
<text x="18.555" y="-235.11" transform="scale(1, -1)"
	style="font-family:Helvetica;font-weight:normal;font-style:normal;font-size:10pt">100</text>
<text x="18.555" y="-444.94" transform="scale(1, -1)"
	style="font-family:Helvetica;font-weight:normal;font-style:normal;font-size:10pt">200</text>
<text x="18.555" y="-654.78" transform="scale(1, -1)"
	style="font-family:Helvetica;font-weight:normal;font-style:normal;font-size:10pt">300</text>
<path d="M42.88,240.48L52.88,240.48" style="fill:none;stroke:#000000;stroke-width:0.625" />
<path d="M42.88,450.31L52.88,450.31" style="fill:none;stroke:#000000;stroke-width:0.625" />
<path d="M42.88,660.15L52.88,660.15" style="fill:none;stroke:#000000;stroke-width:0.625" />
<path d="M47.88,135.56L52.88,135.56" style="fill:none;stroke:#000000;stroke-width:0.625" />
<path d="M47.88,345.4L52.88,345.4" style="fill:none;stroke:#000000;stroke-width:0.625" />
<path d="M47.88,555.23L52.88,555.23" style="fill:none;stroke:#000000;stroke-width:0.625" />
<path d="M52.88,47.03L52.88,701.44" style="fill:none;stroke:#000000;stroke-width:0.625" />
<path d="M60.137,48.016L66.867,154.93L73.597,224.53L80.326,248.7L87.056,303.81L93.785,347.14L100.52,383.8L107.24,410.42L113.97,437.95L120.7,456.21L127.43,480.76L134.16,492.05L140.89,512.05L147.62,531.67L154.35,546.48L161.08,558.71L167.81,573.34L174.54,576.53L181.27,587.8L188,599.95L194.73,615.45L201.46,623.34L208.19,629.77L214.92,640.32L221.65,646.45L228.38,653.71L235.11,657.27L241.84,661.16L248.57,664.58L255.3,662.81L262.02,673.29L268.75,679.66L275.48,683.94L282.21,687.32L288.94,691.12L295.67,689.21L302.4,686.32L309.13,680.67L315.86,675.85L322.59,679.58L329.32,668.63L336.05,657.84L342.78,646.91L349.51,635.28L356.24,623.76L362.97,612.22L369.7,602.55L376.43,594.6L383.16,585.51L389.89,577.66L396.62,569.96L403.35,562.01L410.08,553.7L416.81,545.01L423.54,536.56L430.26,528.67L436.99,522.04L443.72,515.36L450.45,507.62L457.18,499.86L463.91,492.89L470.64,492.81L477.37,495.68L484.1,499.44L490.83,503.84L497.56,508.35L504.29,512.03L511.02,515.61L517.75,519.06L524.48,520.04L531.21,516.52L537.94,512.38L544.67,509.13L551.4,506.65L558.13,502.67L564.86,497.9L571.59,495.72L578.32,497.25L585.04,493.6L591.77,490.62L598.5,487.87L605.23,487.56L611.96,485.08L618.69,481.83L625.42,477.78L632.15,476.63L638.88,477.95L645.61,483.03L652.34,485.36L659.07,488.44L665.8,489.76L672.53,495.22L679.26,499.65L685.99,504.03L692.72,503.02L699.45,499.62L706.18,495.78L712.91,492.2L719.64,488.06L726.37,483.68L733.1,479.59L739.83,476.19L746.56,472.77L753.28,468.93L760.01,465L766.74,461.16L773.47,457.51L780.2,453.67L786.93,450.1L793.66,447.21L800.39,448.51L807.12,449.81L813.85,449.87L820.58,451.51L827.31,454.85L834.04,453.92L840.77,452.37L847.5,450.29L854.23,447.5L860.96,445.03L867.69,441.94L874.42,438.9L881.15,435.75L887.88,432.67L894.61,430.57L901.34,427.61L908.07,426.81L914.79,428.07L921.52,429.31L928.25,427.34L934.98,425.49L941.71,423.92L948.44,422.05L955.17,420.22L961.9,418.08L968.63,416.01L975.36,413.3L982.09,410.72L988.82,407.93L995.55,405.64L1002.3,403.37L1009,400.92L1015.7,398.59L1022.5,396.81L1029.2,395.59L1035.9,393.99L1042.7,392.27L1049.4,390.74L1056.1,389.27L1062.8,387.57L1069.6,385.71L1076.3,384.8" style="fill:none;stroke:#F15A60;stroke-width:1.875" />
<path d="M60.137,47.03L66.867,154.13L73.597,221.17L80.326,256.57L87.056,297.41L93.785,328.8L100.52,367.2L107.24,396.68L113.97,429.41L120.7,461.08L127.43,481.39L134.16,488.44L140.89,492.36L147.62,510.89L154.35,522.56L161.08,534.9L167.81,547.87L174.54,549.29L181.27,555.97L188,562.76L194.73,572.14L201.46,588.53L208.19,593.57L214.92,598.69L221.65,603.77L228.38,607.56L235.11,612.31L241.84,617.97L248.57,624.37L255.3,627.71L262.02,625.82L268.75,629.05L275.48,642.36L282.21,645.52L288.94,646.07L295.67,648.13L302.4,649.7L309.13,651.88L315.86,653.37L322.59,657.61L329.32,661.11L336.05,663.8L342.78,668.04L349.51,670.7L356.24,674.94L362.97,675.76L369.7,675.59L376.43,679.71L383.16,687.16L389.89,688.67L396.62,684.68L403.35,687.89L410.08,695.32L416.81,700.54L423.54,695.93L430.26,699.37L436.99,700.88L443.72,701.44L450.45,700.71" style="fill:none;stroke:#7AC36A;stroke-width:1.875;stroke-dasharray:7.5,2.5" />
<path d="M60.137,47.429L66.867,153.86L73.597,225.39L80.326,261.36L87.056,301.14L93.785,334.15L100.52,378.8L107.24,407.59L113.97,437.07L120.7,458.6L127.43,478.45L134.16,488.04L140.89,503.86L147.62,515.01L154.35,519.62L161.08,528.62L167.81,541.09L174.54,540.65L181.27,549.9L188,555.48L194.73,565.35L201.46,578.57L208.19,584.67L214.92,593.48L221.65,600.85L228.38,608.87L235.11,612.83L241.84,623.87L248.57,633.33L255.3,632.03L262.02,630.65L268.75,639L275.48,649.05L282.21,650.33L288.94,652.76L295.67,653.25L302.4,655.81L309.13,659.21L315.86,661.45L322.59,665.96L329.32,671.19L336.05,674.96L342.78,682.48L349.51,687.95L356.24,687.81L362.97,688.16L369.7,686.27L376.43,681.45L383.16,681.11L389.89,684.87L396.62,692.21L403.35,695.3L410.08,696.16L416.81,696.37" style="fill:none;stroke:#5A9BD4;stroke-width:1.875;stroke-dasharray:2.5,2.5" />
<path d="M1055,694.3L1080,694.3" style="fill:none;stroke:#F15A60;stroke-width:1.875" />
<text x="793.19" y="-687.85" transform="scale(1, -1)"
	style="font-family:Helvetica;font-weight:normal;font-style:normal;font-size:12pt">Zookeeper v3.4.8 (snapCount 100000)</text>
<path d="M1055,680L1080,680" style="fill:none;stroke:#7AC36A;stroke-width:1.875;stroke-dasharray:7.5,2.5" />
<text x="793.19" y="-673.56" transform="scale(1, -1)"
	style="font-family:Helvetica;font-weight:normal;font-style:normal;font-size:12pt">Zookeeper v3.4.8 (snapCount 500000)</text>
<path d="M1055,665.71L1080,665.71" style="fill:none;stroke:#5A9BD4;stroke-width:1.875;stroke-dasharray:2.5,2.5" />
<text x="784.85" y="-659.26" transform="scale(1, -1)"
	style="font-family:Helvetica;font-weight:normal;font-style:normal;font-size:12pt">Zookeeper v3.4.8 (snapCount 1000000)</text>
</g>
</svg>
