<?xml version="1.0"?>
<!-- Generated by SVGo and Plotinum VG -->
<svg width="12in" height="8in"
	xmlns="http://www.w3.org/2000/svg"
	xmlns:xlink="http://www.w3.org/1999/xlink">
<g transform="scale(1, -1) translate(0, -720)">
<path d="M0,0L1080,0L1080,720L0,720Z" style="fill:#FFFFFF" />
<text x="262.4" y="-706.41" transform="scale(1, -1)"
	style="font-family:Helvetica;font-weight:normal;font-style:normal;font-size:12pt">Write 2M keys, 1,000 clients, 8-byte key, 256-byte value (Test, Latency(millisecond)</text>
<text x="548.11" y="-4.965" transform="scale(1, -1)"
	style="font-family:Helvetica;font-weight:normal;font-style:normal;font-size:12pt">Second</text>
<text x="63.613" y="-19.142" transform="scale(1, -1)"
	style="font-family:Helvetica;font-weight:normal;font-style:normal;font-size:10pt">0</text>
<text x="393.33" y="-19.142" transform="scale(1, -1)"
	style="font-family:Helvetica;font-weight:normal;font-style:normal;font-size:10pt">50</text>
<text x="723.05" y="-19.142" transform="scale(1, -1)"
	style="font-family:Helvetica;font-weight:normal;font-style:normal;font-size:10pt">100</text>
<text x="1056.2" y="-19.142" transform="scale(1, -1)"
	style="font-family:Helvetica;font-weight:normal;font-style:normal;font-size:10pt">150</text>
<path d="M67.088,30.467L67.088,40.467" style="fill:none;stroke:#000000;stroke-width:0.625" />
<path d="M400.28,30.467L400.28,40.467" style="fill:none;stroke:#000000;stroke-width:0.625" />
<path d="M733.48,30.467L733.48,40.467" style="fill:none;stroke:#000000;stroke-width:0.625" />
<path d="M1066.7,30.467L1066.7,40.467" style="fill:none;stroke:#000000;stroke-width:0.625" />
<path d="M133.73,35.468L133.73,40.467" style="fill:none;stroke:#000000;stroke-width:0.625" />
<path d="M200.37,35.468L200.37,40.467" style="fill:none;stroke:#000000;stroke-width:0.625" />
<path d="M267,35.468L267,40.467" style="fill:none;stroke:#000000;stroke-width:0.625" />
<path d="M333.64,35.468L333.64,40.467" style="fill:none;stroke:#000000;stroke-width:0.625" />
<path d="M466.92,35.468L466.92,40.467" style="fill:none;stroke:#000000;stroke-width:0.625" />
<path d="M533.56,35.468L533.56,40.467" style="fill:none;stroke:#000000;stroke-width:0.625" />
<path d="M600.2,35.468L600.2,40.467" style="fill:none;stroke:#000000;stroke-width:0.625" />
<path d="M666.84,35.468L666.84,40.467" style="fill:none;stroke:#000000;stroke-width:0.625" />
<path d="M800.12,35.468L800.12,40.467" style="fill:none;stroke:#000000;stroke-width:0.625" />
<path d="M866.76,35.468L866.76,40.467" style="fill:none;stroke:#000000;stroke-width:0.625" />
<path d="M933.39,35.468L933.39,40.467" style="fill:none;stroke:#000000;stroke-width:0.625" />
<path d="M1000,35.468L1000,40.467" style="fill:none;stroke:#000000;stroke-width:0.625" />
<path d="M67.088,40.467L1080,40.467" style="fill:none;stroke:#000000;stroke-width:0.625" />
<g transform="rotate(90)">
<text x="305.89" y="13.59" transform="scale(1, -1)"
	style="font-family:Helvetica;font-weight:normal;font-style:normal;font-size:12pt">Latency(millisecond)</text>
</g>
<text x="39.405" y="-41.661" transform="scale(1, -1)"
	style="font-family:Helvetica;font-weight:normal;font-style:normal;font-size:10pt">0</text>
<text x="18.555" y="-230.18" transform="scale(1, -1)"
	style="font-family:Helvetica;font-weight:normal;font-style:normal;font-size:10pt">1000</text>
<text x="18.555" y="-418.7" transform="scale(1, -1)"
	style="font-family:Helvetica;font-weight:normal;font-style:normal;font-size:10pt">2000</text>
<text x="18.555" y="-607.22" transform="scale(1, -1)"
	style="font-family:Helvetica;font-weight:normal;font-style:normal;font-size:10pt">3000</text>
<path d="M49.83,47.03L59.83,47.03" style="fill:none;stroke:#000000;stroke-width:0.625" />
<path d="M49.83,235.55L59.83,235.55" style="fill:none;stroke:#000000;stroke-width:0.625" />
<path d="M49.83,424.07L59.83,424.07" style="fill:none;stroke:#000000;stroke-width:0.625" />
<path d="M49.83,612.59L59.83,612.59" style="fill:none;stroke:#000000;stroke-width:0.625" />
<path d="M54.83,141.29L59.83,141.29" style="fill:none;stroke:#000000;stroke-width:0.625" />
<path d="M54.83,329.81L59.83,329.81" style="fill:none;stroke:#000000;stroke-width:0.625" />
<path d="M54.83,518.33L59.83,518.33" style="fill:none;stroke:#000000;stroke-width:0.625" />
<path d="M59.83,47.03L59.83,701.44" style="fill:none;stroke:#000000;stroke-width:0.625" />
<path d="M67.088,51.159L73.751,54.368L80.415,53.914L87.079,54.026L93.743,51.877L100.41,51.552L107.07,51.263L113.73,52.189L120.4,51.437L127.06,52.171L133.73,51.442L140.39,57.334L147.05,55.398L153.72,51.228L160.38,51.798L167.05,52.004L173.71,51.277L180.37,56.692L187.04,51.154L193.7,51.402L200.37,59.886L207.03,51.059L213.69,51.034L220.36,51.72L227.02,51.79L233.68,50.919L240.35,51.565L247.01,51.021L253.68,50.895L260.34,72.795L267,47.03L273.67,70.163L280.33,51.25L287,52.125L293.66,51.345L300.32,57.833L306.99,52.73L313.65,58.203L320.32,56.822L326.98,51.561L333.64,153.83L340.31,164.77L346.97,163.45L353.64,47.03L360.3,449.24L366.96,47.03L373.63,47.03L380.29,47.03L386.95,47.03L393.62,47.03L400.28,47.03L406.95,47.03L413.61,47.03L420.27,47.03L426.94,47.03L433.6,47.03L440.27,47.03L446.93,47.03L453.59,47.03L460.26,47.03L466.92,225.99L473.59,50.583L480.25,50.12L486.91,50.083L493.58,50.925L500.24,49.993L506.9,50.193L513.57,50.612L520.23,50.155L526.9,49.763L533.56,302.26L540.22,47.03L546.89,47.03L553.55,47.03L560.22,47.03L566.88,47.03L573.54,47.03L580.21,47.03L586.87,47.03L593.54,47.03L600.2,47.03L606.86,47.03L613.53,47.03L620.19,47.03L626.85,157.7L633.52,51.28L640.18,50.108L646.85,50.798L653.51,47.03L660.17,408.2L666.84,54.842L673.5,52.508L680.17,52.202L686.83,52.492L693.49,177.87L700.16,47.03L706.82,47.03L713.49,47.03L720.15,47.03L726.81,47.03L733.48,47.03L740.14,47.03L746.81,47.03L753.47,47.03L760.13,47.03L766.8,47.03L773.46,47.03L780.12,47.03L786.79,47.03L793.45,89.236L800.12,47.03L806.78,47.03L813.44,84.3L820.11,51.809L826.77,54.649L833.44,155.59L840.1,407.69L846.76,47.03L853.43,47.03L860.09,47.03L866.76,47.03L873.42,47.03L880.08,47.03L886.75,47.03L893.41,47.03L900.07,47.03L906.74,69.608L913.4,54.962L920.07,47.03L926.73,47.03L933.39,47.03L940.06,47.03L946.72,47.03L953.39,47.03L960.05,47.03L966.71,47.03L973.38,47.03L980.04,47.03L986.71,47.03L993.37,47.03L1000,47.03L1006.7,47.03L1013.4,47.03L1020,47.03L1026.7,47.03L1033.4,637.04L1040,47.03L1046.7,701.44L1053.3,47.03L1060,47.03L1066.7,47.03L1073.3,94.011L1080,52.302" style="fill:none;stroke:#F15A60;stroke-width:1.875" />
<path d="M67.088,52.315L73.751,54.64L80.415,53.549L87.079,53.053L93.743,52.209L100.41,52.192L107.07,51.595L113.73,52.515L120.4,51.116L127.06,51.296L133.73,51.974L140.39,57.146L147.05,52.828L153.72,55.515L160.38,51.746L167.05,51.093L173.71,51.779L180.37,63.453L187.04,50.872L193.7,51.399L200.37,51.208L207.03,57.69L213.69,51.563L220.36,51.121L227.02,52.577L233.68,51.121L240.35,51.507L247.01,52.137L253.68,50.912L260.34,47.03L267,64.513L273.67,51.199L280.33,47.03L287,62.302L293.66,51.701L300.32,51.817L306.99,52.15L313.65,51.03L320.32,51.671L326.98,51.555L333.64,51.569L340.31,51.686L346.97,51.44L353.64,51.542L360.3,50.991L366.96,51.989L373.63,52.819L380.29,55.864L386.95,49.772L393.62,435.7L400.28,99.1L406.95,52.722L413.61,50.512L420.27,54.699L426.94,57.343L433.6,51.352L440.27,51.568L446.93,52.474L453.59,52.174L460.26,51.591" style="fill:none;stroke:#7AC36A;stroke-width:1.875;stroke-dasharray:7.5,2.5" />
<path d="M67.088,50.598L73.751,54.011L80.415,53.549L87.079,52.235L93.743,52.084L100.41,51.082L107.07,51.707L113.73,51.918L120.4,51.507L127.06,51.801L133.73,51.52L140.39,55.28L147.05,57.194L153.72,52.344L160.38,52.032L167.05,50.804L173.71,52.088L180.37,57.005L187.04,51.933L193.7,51.125L200.37,50.959L207.03,54.834L213.69,51.096L220.36,51.887L227.02,51.467L233.68,50.853L240.35,51.036L247.01,49.428L253.68,79.039L260.34,67.717L267,51.732L273.67,49.739L280.33,52.068L287,51.858L293.66,51.056L300.32,52.514L306.99,51.461L313.65,52.894L320.32,51.351L326.98,51.781L333.64,51.327L340.31,50.831L346.97,50.005L353.64,56.372L360.3,51.424L366.96,50.86L373.63,47.03L380.29,61.255L386.95,51.922L393.62,50.217L400.28,49.815L406.95,54.085L413.61,51.515L420.27,51.36L426.94,51.812" style="fill:none;stroke:#5A9BD4;stroke-width:1.875;stroke-dasharray:2.5,2.5" />
<path d="M1055,694.3L1080,694.3" style="fill:none;stroke:#F15A60;stroke-width:1.875" />
<text x="793.19" y="-687.85" transform="scale(1, -1)"
	style="font-family:Helvetica;font-weight:normal;font-style:normal;font-size:12pt">Zookeeper v3.4.8 (snapCount 100000)</text>
<path d="M1055,680L1080,680" style="fill:none;stroke:#7AC36A;stroke-width:1.875;stroke-dasharray:7.5,2.5" />
<text x="793.19" y="-673.56" transform="scale(1, -1)"
	style="font-family:Helvetica;font-weight:normal;font-style:normal;font-size:12pt">Zookeeper v3.4.8 (snapCount 500000)</text>
<path d="M1055,665.71L1080,665.71" style="fill:none;stroke:#5A9BD4;stroke-width:1.875;stroke-dasharray:2.5,2.5" />
<text x="784.85" y="-659.26" transform="scale(1, -1)"
	style="font-family:Helvetica;font-weight:normal;font-style:normal;font-size:12pt">Zookeeper v3.4.8 (snapCount 1000000)</text>
</g>
</svg>
