<?xml version="1.0"?>
<!-- Generated by SVGo and Plotinum VG -->
<svg width="12in" height="8in"
	xmlns="http://www.w3.org/2000/svg"
	xmlns:xlink="http://www.w3.org/1999/xlink">
<g transform="scale(1, -1) translate(0, -720)">
<path d="M0,0L1080,0L1080,720L0,720Z" style="fill:#FFFFFF" />
<text x="314.92" y="-706.41" transform="scale(1, -1)"
	style="font-family:Helvetica;font-weight:normal;font-style:normal;font-size:12pt">Write 2M keys, 1,000 clients, 8-byte key, 256-byte value (Test, CPU</text>
<text x="544.64" y="-4.965" transform="scale(1, -1)"
	style="font-family:Helvetica;font-weight:normal;font-style:normal;font-size:12pt">Second</text>
<text x="56.662" y="-19.142" transform="scale(1, -1)"
	style="font-family:Helvetica;font-weight:normal;font-style:normal;font-size:10pt">0</text>
<text x="366.03" y="-19.142" transform="scale(1, -1)"
	style="font-family:Helvetica;font-weight:normal;font-style:normal;font-size:10pt">50</text>
<text x="675.4" y="-19.142" transform="scale(1, -1)"
	style="font-family:Helvetica;font-weight:normal;font-style:normal;font-size:10pt">100</text>
<text x="988.24" y="-19.142" transform="scale(1, -1)"
	style="font-family:Helvetica;font-weight:normal;font-style:normal;font-size:10pt">150</text>
<path d="M60.137,30.467L60.137,40.467" style="fill:none;stroke:#000000;stroke-width:0.625" />
<path d="M372.98,30.467L372.98,40.467" style="fill:none;stroke:#000000;stroke-width:0.625" />
<path d="M685.82,30.467L685.82,40.467" style="fill:none;stroke:#000000;stroke-width:0.625" />
<path d="M998.66,30.467L998.66,40.467" style="fill:none;stroke:#000000;stroke-width:0.625" />
<path d="M122.71,35.468L122.71,40.467" style="fill:none;stroke:#000000;stroke-width:0.625" />
<path d="M185.27,35.468L185.27,40.467" style="fill:none;stroke:#000000;stroke-width:0.625" />
<path d="M247.84,35.468L247.84,40.467" style="fill:none;stroke:#000000;stroke-width:0.625" />
<path d="M310.41,35.468L310.41,40.467" style="fill:none;stroke:#000000;stroke-width:0.625" />
<path d="M435.55,35.468L435.55,40.467" style="fill:none;stroke:#000000;stroke-width:0.625" />
<path d="M498.12,35.468L498.12,40.467" style="fill:none;stroke:#000000;stroke-width:0.625" />
<path d="M560.68,35.468L560.68,40.467" style="fill:none;stroke:#000000;stroke-width:0.625" />
<path d="M623.25,35.468L623.25,40.467" style="fill:none;stroke:#000000;stroke-width:0.625" />
<path d="M748.39,35.468L748.39,40.467" style="fill:none;stroke:#000000;stroke-width:0.625" />
<path d="M810.96,35.468L810.96,40.467" style="fill:none;stroke:#000000;stroke-width:0.625" />
<path d="M873.52,35.468L873.52,40.467" style="fill:none;stroke:#000000;stroke-width:0.625" />
<path d="M936.09,35.468L936.09,40.467" style="fill:none;stroke:#000000;stroke-width:0.625" />
<path d="M1061.2,35.468L1061.2,40.467" style="fill:none;stroke:#000000;stroke-width:0.625" />
<path d="M60.137,40.467L1080,40.467" style="fill:none;stroke:#000000;stroke-width:0.625" />
<g transform="rotate(90)">
<text x="358.4" y="13.59" transform="scale(1, -1)"
	style="font-family:Helvetica;font-weight:normal;font-style:normal;font-size:12pt">CPU</text>
</g>
<text x="18.555" y="-226.51" transform="scale(1, -1)"
	style="font-family:Helvetica;font-weight:normal;font-style:normal;font-size:10pt">100</text>
<text x="18.555" y="-427.5" transform="scale(1, -1)"
	style="font-family:Helvetica;font-weight:normal;font-style:normal;font-size:10pt">200</text>
<text x="18.555" y="-628.48" transform="scale(1, -1)"
	style="font-family:Helvetica;font-weight:normal;font-style:normal;font-size:10pt">300</text>
<path d="M42.88,231.88L52.88,231.88" style="fill:none;stroke:#000000;stroke-width:0.625" />
<path d="M42.88,432.87L52.88,432.87" style="fill:none;stroke:#000000;stroke-width:0.625" />
<path d="M42.88,633.85L52.88,633.85" style="fill:none;stroke:#000000;stroke-width:0.625" />
<path d="M47.88,131.38L52.88,131.38" style="fill:none;stroke:#000000;stroke-width:0.625" />
<path d="M47.88,332.37L52.88,332.37" style="fill:none;stroke:#000000;stroke-width:0.625" />
<path d="M47.88,533.36L52.88,533.36" style="fill:none;stroke:#000000;stroke-width:0.625" />
<path d="M52.88,47.03L52.88,701.44" style="fill:none;stroke:#000000;stroke-width:0.625" />
<path d="M60.137,48.477L66.394,152.89L72.651,222.57L78.908,242.35L85.165,294.69L91.422,328.15L97.678,362.78L103.94,381.09L110.19,405.79L116.45,427.28L122.71,447.74L128.96,463.62L135.22,472.18L141.48,489.81L147.73,503.35L153.99,515.31L160.25,528.58L166.5,534L172.76,541.02L179.02,547.93L185.27,564.17L191.53,571.51L197.79,577.32L204.04,583.16L210.3,590.36L216.56,595.24L222.81,599.38L229.07,605.51L235.33,610.78L241.59,613.67L247.84,610.46L254.1,620.79L260.36,631.86L266.61,633.09L272.87,634.36L279.13,638.44L285.38,641.73L291.64,643.46L297.9,643.08L304.15,640.99L310.41,641.05L316.67,632.35L322.92,623.14L329.18,613.29L335.44,604.35L341.69,594.44L347.95,585.9L354.21,577.23L360.47,567.73L366.72,560.39L372.98,554.28L379.24,547.11L385.49,539.31L391.75,532.76L398.01,527.07L404.26,520.98L410.52,518.16L416.78,514.39L423.03,508.16L429.29,502.19L435.55,499.39L441.8,493.64L448.06,489.36L454.32,486.55L460.57,484.86L466.83,482.33L473.09,484.06L479.34,487.8L485.6,492.06L491.86,495.75L498.12,503.69L504.37,512.44L510.63,511.77L516.89,512.18L523.14,516.22L529.4,513.62L535.66,509.76L541.91,505.66L548.17,500.86L554.43,496.14L560.68,490.49L566.94,486.35L573.2,485.44L579.45,483.7L585.71,479.68L591.97,475.58L598.22,471.41L604.48,466.83L610.74,462.33L616.99,457.91L623.25,453.57L629.51,454.83L635.77,457.67L642.02,460.52L648.28,463.25L654.54,465.91L660.79,467.78L667.05,469.16L673.31,467.07L679.56,463.54L685.82,459.66L692.08,456L698.33,452.1L704.59,448.52L710.85,445.45L717.1,442.55L723.36,438.77L729.62,435.46L735.87,432.32L742.13,429.11L748.39,425.61L754.65,421.77L760.9,418.54L767.16,415.42L773.42,412.61L779.67,409.71L785.93,406.46L792.19,403.18L798.44,400L804.7,396.97L810.96,394.4L817.21,391.88L823.47,389.13L829.73,386.7L835.98,384.25L842.24,381.67L848.5,379.38L854.75,377.41L861.01,375.24L867.27,372.77L873.52,370.3L879.78,367.91L886.04,366.12L892.3,364.31L898.55,362.56L904.81,360.81L911.07,359.14L917.32,357.33L923.58,355.79L929.84,354.28L936.09,352.63L942.35,350.64L948.61,349.09L954.86,348.21L961.12,346.6L967.38,345.11L973.63,344.01L979.89,342.62L986.15,341.64L992.4,340.61L998.66,339.37L1004.9,338.12L1011.2,336.61L1017.4,335.25L1023.7,333.78L1029.9,332.43L1036.2,331.75L1042.5,332.13L1048.7,336.13L1055,339.53L1061.2,340.39L1067.5,343.41L1073.7,346.54L1080,347.24" style="fill:none;stroke:#F15A60;stroke-width:1.875" />
<path d="M60.137,47.03L66.394,147.56L72.651,210.87L78.908,251.66L85.165,298.1L91.422,338.28L97.678,373.47L103.94,402.64L110.19,426.66L116.45,454.29L122.71,474.69L128.96,492.3L135.22,511.21L141.48,521.1L147.73,533.04L153.99,540.8L160.25,541.44L166.5,550.7L172.76,556.47L179.02,573.42L185.27,581.54L191.53,585.58L197.79,595.69L204.04,603.81L210.3,610.04L216.56,616.03L222.81,619.42L229.07,618.04L235.33,614.72L241.59,618.84L247.84,633.15L254.1,640.79L260.36,638.72L266.61,641.93L272.87,647.08L279.13,649.89L285.38,655.58L291.64,658.76L297.9,663.86L304.15,666.31L310.41,666.03L316.67,669.67L322.92,671.68L329.18,674.89L335.44,676.74L341.69,685.85L347.95,691.74L354.21,690.97L360.47,694.57L366.72,697.45L372.98,698.75L379.24,701.08L385.49,701.44L391.75,700.5L398.01,699.39L404.26,694.25L410.52,695.44" style="fill:none;stroke:#7AC36A;stroke-width:1.875;stroke-dasharray:7.5,2.5" />
<path d="M60.137,47.03L66.394,149.79L72.651,213.79L78.908,228.36L85.165,269.26L91.422,301.12L97.678,334.04L103.94,349.88L110.19,375L116.45,395.18L122.71,412.97L128.96,422.86L135.22,448.8L141.48,460.16L147.73,468.06L153.99,477.48L160.25,486.45L166.5,488.78L172.76,495.81L179.02,502.81L185.27,520.62L191.53,528.48L197.79,536.33L204.04,543.73L210.3,552.51L216.56,557.46L222.81,564.11L229.07,572.17L235.33,574.58L241.59,572.11L247.84,575.12L254.1,588.45L260.36,593.07L266.61,594.76L272.87,596.37L279.13,599.34L285.38,601.86L291.64,603.72L297.9,606.42L304.15,607.48L310.41,609.05L316.67,611.02L322.92,612.27L329.18,615.92L335.44,618.54L341.69,619.72L347.95,625.51L354.21,635.9L360.47,638.05L366.72,638.96L372.98,642.35L379.24,645.13L385.49,646.13L391.75,647.6L398.01,648.97L404.26,648.93L410.52,648.1L416.78,644.02L423.03,644.22" style="fill:none;stroke:#5A9BD4;stroke-width:1.875;stroke-dasharray:2.5,2.5" />
<path d="M1055,694.3L1080,694.3" style="fill:none;stroke:#F15A60;stroke-width:1.875" />
<text x="793.19" y="-687.85" transform="scale(1, -1)"
	style="font-family:Helvetica;font-weight:normal;font-style:normal;font-size:12pt">Zookeeper v3.4.8 (snapCount 100000)</text>
<path d="M1055,680L1080,680" style="fill:none;stroke:#7AC36A;stroke-width:1.875;stroke-dasharray:7.5,2.5" />
<text x="793.19" y="-673.56" transform="scale(1, -1)"
	style="font-family:Helvetica;font-weight:normal;font-style:normal;font-size:12pt">Zookeeper v3.4.8 (snapCount 500000)</text>
<path d="M1055,665.71L1080,665.71" style="fill:none;stroke:#5A9BD4;stroke-width:1.875;stroke-dasharray:2.5,2.5" />
<text x="784.85" y="-659.26" transform="scale(1, -1)"
	style="font-family:Helvetica;font-weight:normal;font-style:normal;font-size:12pt">Zookeeper v3.4.8 (snapCount 1000000)</text>
</g>
</svg>
