<?xml version="1.0"?>
<!-- Generated by SVGo and Plotinum VG -->
<svg width="12in" height="8in"
	xmlns="http://www.w3.org/2000/svg"
	xmlns:xlink="http://www.w3.org/1999/xlink">
<g transform="scale(1, -1) translate(0, -720)">
<path d="M0,0L1080,0L1080,720L0,720Z" style="fill:#FFFFFF" />
<text x="278.67" y="-706.41" transform="scale(1, -1)"
	style="font-family:Helvetica;font-weight:normal;font-style:normal;font-size:12pt">Write 2M keys, 1,000 clients, 8-byte key, 256-byte value (Test 3), Memory(MB)</text>
<text x="548.11" y="-4.965" transform="scale(1, -1)"
	style="font-family:Helvetica;font-weight:normal;font-style:normal;font-size:12pt">Second</text>
<text x="63.613" y="-19.142" transform="scale(1, -1)"
	style="font-family:Helvetica;font-weight:normal;font-style:normal;font-size:10pt">0</text>
<text x="324.38" y="-19.142" transform="scale(1, -1)"
	style="font-family:Helvetica;font-weight:normal;font-style:normal;font-size:10pt">30</text>
<text x="588.61" y="-19.142" transform="scale(1, -1)"
	style="font-family:Helvetica;font-weight:normal;font-style:normal;font-size:10pt">60</text>
<text x="852.85" y="-19.142" transform="scale(1, -1)"
	style="font-family:Helvetica;font-weight:normal;font-style:normal;font-size:10pt">90</text>
<path d="M67.088,30.467L67.088,40.467" style="fill:none;stroke:#000000;stroke-width:0.625" />
<path d="M331.33,30.467L331.33,40.467" style="fill:none;stroke:#000000;stroke-width:0.625" />
<path d="M595.56,30.467L595.56,40.467" style="fill:none;stroke:#000000;stroke-width:0.625" />
<path d="M859.8,30.467L859.8,40.467" style="fill:none;stroke:#000000;stroke-width:0.625" />
<path d="M155.17,35.468L155.17,40.467" style="fill:none;stroke:#000000;stroke-width:0.625" />
<path d="M243.25,35.468L243.25,40.467" style="fill:none;stroke:#000000;stroke-width:0.625" />
<path d="M419.4,35.468L419.4,40.467" style="fill:none;stroke:#000000;stroke-width:0.625" />
<path d="M507.48,35.468L507.48,40.467" style="fill:none;stroke:#000000;stroke-width:0.625" />
<path d="M683.64,35.468L683.64,40.467" style="fill:none;stroke:#000000;stroke-width:0.625" />
<path d="M771.72,35.468L771.72,40.467" style="fill:none;stroke:#000000;stroke-width:0.625" />
<path d="M947.88,35.468L947.88,40.467" style="fill:none;stroke:#000000;stroke-width:0.625" />
<path d="M1036,35.468L1036,40.467" style="fill:none;stroke:#000000;stroke-width:0.625" />
<path d="M67.088,40.467L1080,40.467" style="fill:none;stroke:#000000;stroke-width:0.625" />
<g transform="rotate(90)">
<text x="330.91" y="13.59" transform="scale(1, -1)"
	style="font-family:Helvetica;font-weight:normal;font-style:normal;font-size:12pt">Memory(MB)</text>
</g>
<text x="25.505" y="-236.72" transform="scale(1, -1)"
	style="font-family:Helvetica;font-weight:normal;font-style:normal;font-size:10pt">800</text>
<text x="18.555" y="-447" transform="scale(1, -1)"
	style="font-family:Helvetica;font-weight:normal;font-style:normal;font-size:10pt">1600</text>
<text x="18.555" y="-657.28" transform="scale(1, -1)"
	style="font-family:Helvetica;font-weight:normal;font-style:normal;font-size:10pt">2400</text>
<path d="M49.83,242.09L59.83,242.09" style="fill:none;stroke:#000000;stroke-width:0.625" />
<path d="M49.83,452.37L59.83,452.37" style="fill:none;stroke:#000000;stroke-width:0.625" />
<path d="M49.83,662.65L59.83,662.65" style="fill:none;stroke:#000000;stroke-width:0.625" />
<path d="M54.83,136.95L59.83,136.95" style="fill:none;stroke:#000000;stroke-width:0.625" />
<path d="M54.83,347.23L59.83,347.23" style="fill:none;stroke:#000000;stroke-width:0.625" />
<path d="M54.83,557.51L59.83,557.51" style="fill:none;stroke:#000000;stroke-width:0.625" />
<path d="M59.83,47.03L59.83,701.44" style="fill:none;stroke:#000000;stroke-width:0.625" />
<path d="M67.088,47.203L75.895,72.279L84.703,91.307L93.511,110.75L102.32,140.03L111.13,167.98L119.94,221.38L128.74,249.29L137.55,263.19L146.36,286.8L155.17,333.99L163.97,367.12L172.78,387.19L181.59,388.45L190.4,393.91L199.21,405.07L208.01,474.14L216.82,478.78L225.63,477.98L234.44,478.08L243.25,498.52L252.05,500.09L260.86,501.67L269.67,501.67L278.48,518L287.29,518.38L296.09,518.74L304.9,526.87L313.71,530.83L322.52,537.57L331.33,537.88L340.13,549.66L348.94,567.48L357.75,567.73L366.56,567.77L375.37,567.77L384.17,566.48L392.98,566.48L401.79,572.66L410.6,573.78L419.4,573.78L428.21,573.78L437.02,573.78L445.83,573.78L454.64,573.78L463.44,573.78L472.25,573.78L481.06,573.78L489.87,573.79L498.68,573.79L507.48,573.81L516.29,573.84L525.1,574.15L533.91,574.49L542.72,574.5L551.52,575.26L560.33,579.38L569.14,582.74L577.95,582.85L586.76,582.4L595.56,581.93L604.37,589.58L613.18,592.06L621.99,593.89L630.8,591.97L639.6,592.3L648.41,592.85L657.22,592.78L666.03,592.8L674.83,593L683.64,592.86L692.45,628.94L701.26,649.22L710.07,650.56L718.87,648.74L727.68,651.25L736.49,648.31L745.3,652.15L754.11,656.59L762.91,657.74L771.72,657.75L780.53,657.91L789.34,657.84L798.15,657.92L806.95,658.89L815.76,658.85L824.57,658.82L833.38,662.52L842.19,662.52L850.99,664.55L859.8,673.15L868.61,693.37L877.42,700.78L886.23,700.93L895.03,701.42L903.84,701.44L912.65,697.32L921.46,696.58L930.27,696.58L939.07,696.63L947.88,696.79L956.69,696.79L965.5,695.09L974.3,693.46L983.11,693.46L991.92,693.46L1000.7,693.46L1009.5,693.46L1018.3,693.85L1027.2,695.5L1036,695.5L1044.8,695.5L1053.6,694.97L1062.4,694.96L1071.2,694.97L1080,694.97" style="fill:none;stroke:#F15A60;stroke-width:1.875" />
<path d="M67.088,47.03L75.895,72.235L84.703,94.29L93.511,111.08L102.32,152.84L111.13,174.55L119.94,224.56L128.74,265.2L137.55,272.54L146.36,328.76L155.17,360.18L163.97,372.08L172.78,394.83L181.59,394.79L190.4,402.25L199.21,456.85L208.01,484.11L216.82,484.19L225.63,483.78L234.44,500.95L243.25,504.84L252.05,504.84L260.86,506.36L269.67,511.08L278.48,524.01L287.29,524.32L296.09,536.94L304.9,536.64L313.71,547.3L322.52,547.42L331.33,547.42L340.13,571.48L348.94,572.89L357.75,572.89L366.56,572.89L375.37,572.97L384.17,572.97L392.98,575.15L401.79,577.84L410.6,583.18L419.4,582.73L428.21,598L437.02,599.49L445.83,600.34L454.64,607.23L463.44,607.24L472.25,627.93L481.06,639.63L489.87,650.02L498.68,655.97L507.48,655.97L516.29,665.14L525.1,670.75L533.91,670.9L542.72,669.58L551.52,667.58L560.33,665.01L569.14,663.92L577.95,662.96L586.76,663.26" style="fill:none;stroke:#7AC36A;stroke-width:1.875;stroke-dasharray:7.5,2.5" />
<path d="M67.088,47.085L75.895,71.838L84.703,93.61L93.511,111.25L102.32,151.17L111.13,187.45L119.94,230.13L128.74,264.1L137.55,273.12L146.36,327.77L155.17,368.08L163.97,391.08L172.78,391.62L181.59,399.9L190.4,436.16L199.21,481.78L208.01,485.25L216.82,485.34L225.63,485.2L234.44,505.64L243.25,505.66L252.05,507L260.86,517.54L269.67,525.13L278.48,525.68L287.29,536.04L296.09,546.4L304.9,546.8L313.71,546.93L322.52,568.86L331.33,571.95L340.13,572.11L348.94,572.11L357.75,572.3L366.56,572.3L375.37,580.39L384.17,583.1L392.98,583.1L401.79,600.02L410.6,600.02L419.4,607.07L428.21,607.81L437.02,607.81L445.83,628.81L454.64,628.81L463.44,648.02L472.25,653.45L481.06,664.03L489.87,664.19L498.68,668.61L507.48,668.8L516.29,668.04L525.1,666.77L533.91,666.3" style="fill:none;stroke:#5A9BD4;stroke-width:1.875;stroke-dasharray:2.5,2.5" />
<path d="M1055,694.3L1080,694.3" style="fill:none;stroke:#5A9BD4;stroke-width:1.875;stroke-dasharray:2.5,2.5" />
<text x="784.85" y="-687.85" transform="scale(1, -1)"
	style="font-family:Helvetica;font-weight:normal;font-style:normal;font-size:12pt">Zookeeper v3.4.8 (snapCount 1000000)</text>
<path d="M1055,680L1080,680" style="fill:none;stroke:#F15A60;stroke-width:1.875" />
<text x="793.19" y="-673.56" transform="scale(1, -1)"
	style="font-family:Helvetica;font-weight:normal;font-style:normal;font-size:12pt">Zookeeper v3.4.8 (snapCount 100000)</text>
<path d="M1055,665.71L1080,665.71" style="fill:none;stroke:#7AC36A;stroke-width:1.875;stroke-dasharray:7.5,2.5" />
<text x="793.19" y="-659.26" transform="scale(1, -1)"
	style="font-family:Helvetica;font-weight:normal;font-style:normal;font-size:12pt">Zookeeper v3.4.8 (snapCount 500000)</text>
</g>
</svg>
