<?xml version="1.0"?>
<!-- Generated by SVGo and Plotinum VG -->
<svg width="12in" height="8in"
	xmlns="http://www.w3.org/2000/svg"
	xmlns:xlink="http://www.w3.org/1999/xlink">
<g transform="scale(1, -1) translate(0, -720)">
<path d="M0,0L1080,0L1080,720L0,720Z" style="fill:#FFFFFF" />
<text x="306.17" y="-706.41" transform="scale(1, -1)"
	style="font-family:Helvetica;font-weight:normal;font-style:normal;font-size:12pt">Write 2M keys, 1,000 clients, 8-byte key, 256-byte value (Test 1), CPU</text>
<text x="544.64" y="-4.965" transform="scale(1, -1)"
	style="font-family:Helvetica;font-weight:normal;font-style:normal;font-size:12pt">Second</text>
<text x="56.662" y="-19.142" transform="scale(1, -1)"
	style="font-family:Helvetica;font-weight:normal;font-style:normal;font-size:10pt">0</text>
<text x="323.95" y="-19.142" transform="scale(1, -1)"
	style="font-family:Helvetica;font-weight:normal;font-style:normal;font-size:10pt">30</text>
<text x="594.71" y="-19.142" transform="scale(1, -1)"
	style="font-family:Helvetica;font-weight:normal;font-style:normal;font-size:10pt">60</text>
<text x="865.47" y="-19.142" transform="scale(1, -1)"
	style="font-family:Helvetica;font-weight:normal;font-style:normal;font-size:10pt">90</text>
<path d="M60.137,30.467L60.137,40.467" style="fill:none;stroke:#000000;stroke-width:0.625" />
<path d="M330.9,30.467L330.9,40.467" style="fill:none;stroke:#000000;stroke-width:0.625" />
<path d="M601.66,30.467L601.66,40.467" style="fill:none;stroke:#000000;stroke-width:0.625" />
<path d="M872.42,30.467L872.42,40.467" style="fill:none;stroke:#000000;stroke-width:0.625" />
<path d="M150.39,35.468L150.39,40.467" style="fill:none;stroke:#000000;stroke-width:0.625" />
<path d="M240.64,35.468L240.64,40.467" style="fill:none;stroke:#000000;stroke-width:0.625" />
<path d="M421.15,35.468L421.15,40.467" style="fill:none;stroke:#000000;stroke-width:0.625" />
<path d="M511.4,35.468L511.4,40.467" style="fill:none;stroke:#000000;stroke-width:0.625" />
<path d="M691.91,35.468L691.91,40.467" style="fill:none;stroke:#000000;stroke-width:0.625" />
<path d="M782.16,35.468L782.16,40.467" style="fill:none;stroke:#000000;stroke-width:0.625" />
<path d="M962.67,35.468L962.67,40.467" style="fill:none;stroke:#000000;stroke-width:0.625" />
<path d="M1052.9,35.468L1052.9,40.467" style="fill:none;stroke:#000000;stroke-width:0.625" />
<path d="M60.137,40.467L1080,40.467" style="fill:none;stroke:#000000;stroke-width:0.625" />
<g transform="rotate(90)">
<text x="358.4" y="13.59" transform="scale(1, -1)"
	style="font-family:Helvetica;font-weight:normal;font-style:normal;font-size:12pt">CPU</text>
</g>
<text x="18.555" y="-224.16" transform="scale(1, -1)"
	style="font-family:Helvetica;font-weight:normal;font-style:normal;font-size:10pt">100</text>
<text x="18.555" y="-423.54" transform="scale(1, -1)"
	style="font-family:Helvetica;font-weight:normal;font-style:normal;font-size:10pt">200</text>
<text x="18.555" y="-622.92" transform="scale(1, -1)"
	style="font-family:Helvetica;font-weight:normal;font-style:normal;font-size:10pt">300</text>
<path d="M42.88,229.53L52.88,229.53" style="fill:none;stroke:#000000;stroke-width:0.625" />
<path d="M42.88,428.91L52.88,428.91" style="fill:none;stroke:#000000;stroke-width:0.625" />
<path d="M42.88,628.29L52.88,628.29" style="fill:none;stroke:#000000;stroke-width:0.625" />
<path d="M47.88,129.83L52.88,129.83" style="fill:none;stroke:#000000;stroke-width:0.625" />
<path d="M47.88,329.22L52.88,329.22" style="fill:none;stroke:#000000;stroke-width:0.625" />
<path d="M47.88,528.6L52.88,528.6" style="fill:none;stroke:#000000;stroke-width:0.625" />
<path d="M52.88,47.03L52.88,701.44" style="fill:none;stroke:#000000;stroke-width:0.625" />
<path d="M60.137,47.03L69.163,155.28L78.188,221.25L87.213,243.42L96.239,293.89L105.26,324.69L114.29,360.26L123.31,382.55L132.34,406.86L141.37,428.15L150.39,449.7L159.42,464.56L168.44,469.52L177.47,487.67L186.49,501.05L195.52,512.89L204.54,521.44L213.57,530.97L222.59,531.89L231.62,540.1L240.64,549.12L249.67,563.41L258.69,571.21L267.72,574.9L276.75,580.46L285.77,589.91L294.8,594.04L303.82,599.72L312.85,604.17L321.87,610.15L330.9,613.94L339.92,614.57L348.95,611.56L357.97,623.96L367,628.37L376.02,632.08L385.05,636.59L394.07,640.23L403.1,643.74L412.13,646.65L421.15,644.1L430.18,646.32L439.2,648.35L448.23,649.13L457.25,651.76L466.28,647.87L475.3,645.92L484.33,643.21L493.35,644.46L502.38,647.17L511.4,647.35L520.43,642.05L529.45,632.8L538.48,623.87L547.51,614.43L556.53,605.26L565.56,597.85L574.58,588.87L583.61,581.24L592.63,574.86L601.66,568.5L610.68,560.66L619.71,553.26L628.73,546.56L637.76,539.07L646.78,532.91L655.81,527.18L664.83,522.78L673.86,518.59L682.89,513.29L691.91,507.78L700.94,503.44L709.96,499.63L718.99,494.07L728.01,488.32L737.04,483.32L746.06,478.71L755.09,474.93L764.11,470.66L773.14,465.95L782.16,460.39L791.19,455.84L800.21,451.36L809.24,447.89L818.27,444.66L827.29,440.91L836.32,437.2L845.34,433.2L854.37,429.13L863.39,424.78L872.42,421.67L881.44,418.78L890.47,418.16L899.49,419.28L908.52,422.21L917.54,425.4L926.57,425.42L935.59,425.68L944.62,427.93L953.65,425.74L962.67,424.14L971.7,425.88L980.72,427.79L989.75,427.51L998.77,427.79L1007.8,433.33L1016.8,438.08L1025.8,440.07L1034.9,441.93L1043.9,444.04L1052.9,446.27L1061.9,446.23L1071,450.2L1080,453.25" style="fill:none;stroke:#F15A60;stroke-width:1.875" />
<path d="M60.137,47.13L69.163,149.43L78.188,213.06L87.213,245.68L96.239,280.39L105.26,313.82L114.29,354.9L123.31,385.1L132.34,415.67L141.37,444.32L150.39,471.96L159.42,497.22L168.44,521.32L177.47,540.78L186.49,549L195.52,556.03L204.54,554.72L213.57,561.48L222.59,576.31L231.62,582.31L240.64,594.36L249.67,600.1L258.69,604.82L267.72,610.59L276.75,616.37L285.77,619.08L294.8,622.91L303.82,636.92L312.85,637.56L321.87,641.73L330.9,651.64L339.92,653.89L348.95,655.17L357.97,656.15L367,660.13L376.02,664.22L385.05,668.21L394.07,671.22L403.1,672.43L412.13,674.89L421.15,676.42L430.18,674.29L439.2,674.97L448.23,678.83L457.25,679.03L466.28,680.53L475.3,683.1L484.33,684.42L493.35,686.93L502.38,695.08L511.4,701.44L520.43,696.6L529.45,695.4L538.48,693.19L547.51,686.77L556.53,686.47L565.56,687.31L574.58,687.49" style="fill:none;stroke:#7AC36A;stroke-width:1.875;stroke-dasharray:7.5,2.5" />
<path d="M60.137,150.61L69.163,215.47L78.188,246.29L87.213,286.29L96.239,319.51L105.26,346.1L114.29,366.08L123.31,386.18L132.34,405.86L141.37,422.77L150.39,429.75L159.42,441.05L168.44,457.84L177.47,468.37L186.49,476.96L195.52,484.74L204.54,486.25L213.57,502.86L222.59,511.91L231.62,533.74L240.64,535.22L249.67,542.26L258.69,547.74L267.72,551.21L276.75,556.85L285.77,563.27L294.8,570.55L303.82,576.51L312.85,579.9L321.87,578.19L330.9,578.74L339.92,590.45L348.95,598.88L357.97,600.84L367,603.07L376.02,606.3L385.05,608.89L394.07,610.93L403.1,614.93L412.13,617.86L421.15,621.21L430.18,623.19L439.2,624.84L448.23,626.32L457.25,628.29L466.28,627.89L475.3,632.36L484.33,640.67L493.35,644.94L502.38,642.59L511.4,639.9L520.43,648.43L529.45,653.45L538.48,656.11L547.51,658.32L556.53,660.25" style="fill:none;stroke:#5A9BD4;stroke-width:1.875;stroke-dasharray:2.5,2.5" />
<path d="M1055,694.3L1080,694.3" style="fill:none;stroke:#F15A60;stroke-width:1.875" />
<text x="793.19" y="-687.85" transform="scale(1, -1)"
	style="font-family:Helvetica;font-weight:normal;font-style:normal;font-size:12pt">Zookeeper v3.4.8 (snapCount 100000)</text>
<path d="M1055,680L1080,680" style="fill:none;stroke:#7AC36A;stroke-width:1.875;stroke-dasharray:7.5,2.5" />
<text x="793.19" y="-673.56" transform="scale(1, -1)"
	style="font-family:Helvetica;font-weight:normal;font-style:normal;font-size:12pt">Zookeeper v3.4.8 (snapCount 500000)</text>
<path d="M1055,665.71L1080,665.71" style="fill:none;stroke:#5A9BD4;stroke-width:1.875;stroke-dasharray:2.5,2.5" />
<text x="784.85" y="-659.26" transform="scale(1, -1)"
	style="font-family:Helvetica;font-weight:normal;font-style:normal;font-size:12pt">Zookeeper v3.4.8 (snapCount 1000000)</text>
</g>
</svg>
