<?xml version="1.0"?>
<!-- Generated by SVGo and Plotinum VG -->
<svg width="12in" height="8in"
	xmlns="http://www.w3.org/2000/svg"
	xmlns:xlink="http://www.w3.org/1999/xlink">
<g transform="scale(1, -1) translate(0, -720)">
<path d="M0,0L1080,0L1080,720L0,720Z" style="fill:#FFFFFF" />
<text x="262.4" y="-706.41" transform="scale(1, -1)"
	style="font-family:Helvetica;font-weight:normal;font-style:normal;font-size:12pt">Write 2M keys, 1,000 clients, 8-byte key, 256-byte value (Test, Latency(millisecond)</text>
<text x="548.11" y="-4.965" transform="scale(1, -1)"
	style="font-family:Helvetica;font-weight:normal;font-style:normal;font-size:12pt">Second</text>
<text x="63.613" y="-19.142" transform="scale(1, -1)"
	style="font-family:Helvetica;font-weight:normal;font-style:normal;font-size:10pt">0</text>
<text x="326.69" y="-19.142" transform="scale(1, -1)"
	style="font-family:Helvetica;font-weight:normal;font-style:normal;font-size:10pt">30</text>
<text x="593.25" y="-19.142" transform="scale(1, -1)"
	style="font-family:Helvetica;font-weight:normal;font-style:normal;font-size:10pt">60</text>
<text x="859.81" y="-19.142" transform="scale(1, -1)"
	style="font-family:Helvetica;font-weight:normal;font-style:normal;font-size:10pt">90</text>
<path d="M67.088,30.467L67.088,40.467" style="fill:none;stroke:#000000;stroke-width:0.625" />
<path d="M333.64,30.467L333.64,40.467" style="fill:none;stroke:#000000;stroke-width:0.625" />
<path d="M600.2,30.467L600.2,40.467" style="fill:none;stroke:#000000;stroke-width:0.625" />
<path d="M866.76,30.467L866.76,40.467" style="fill:none;stroke:#000000;stroke-width:0.625" />
<path d="M155.94,35.468L155.94,40.467" style="fill:none;stroke:#000000;stroke-width:0.625" />
<path d="M244.79,35.468L244.79,40.467" style="fill:none;stroke:#000000;stroke-width:0.625" />
<path d="M422.5,35.468L422.5,40.467" style="fill:none;stroke:#000000;stroke-width:0.625" />
<path d="M511.35,35.468L511.35,40.467" style="fill:none;stroke:#000000;stroke-width:0.625" />
<path d="M689.05,35.468L689.05,40.467" style="fill:none;stroke:#000000;stroke-width:0.625" />
<path d="M777.9,35.468L777.9,40.467" style="fill:none;stroke:#000000;stroke-width:0.625" />
<path d="M955.61,35.468L955.61,40.467" style="fill:none;stroke:#000000;stroke-width:0.625" />
<path d="M1044.5,35.468L1044.5,40.467" style="fill:none;stroke:#000000;stroke-width:0.625" />
<path d="M67.088,40.467L1080,40.467" style="fill:none;stroke:#000000;stroke-width:0.625" />
<g transform="rotate(90)">
<text x="305.89" y="13.59" transform="scale(1, -1)"
	style="font-family:Helvetica;font-weight:normal;font-style:normal;font-size:12pt">Latency(millisecond)</text>
</g>
<text x="39.405" y="-41.661" transform="scale(1, -1)"
	style="font-family:Helvetica;font-weight:normal;font-style:normal;font-size:10pt">0</text>
<text x="25.505" y="-215.47" transform="scale(1, -1)"
	style="font-family:Helvetica;font-weight:normal;font-style:normal;font-size:10pt">600</text>
<text x="18.555" y="-389.29" transform="scale(1, -1)"
	style="font-family:Helvetica;font-weight:normal;font-style:normal;font-size:10pt">1200</text>
<text x="18.555" y="-563.1" transform="scale(1, -1)"
	style="font-family:Helvetica;font-weight:normal;font-style:normal;font-size:10pt">1800</text>
<path d="M49.83,47.03L59.83,47.03" style="fill:none;stroke:#000000;stroke-width:0.625" />
<path d="M49.83,220.84L59.83,220.84" style="fill:none;stroke:#000000;stroke-width:0.625" />
<path d="M49.83,394.66L59.83,394.66" style="fill:none;stroke:#000000;stroke-width:0.625" />
<path d="M49.83,568.47L59.83,568.47" style="fill:none;stroke:#000000;stroke-width:0.625" />
<path d="M54.83,104.97L59.83,104.97" style="fill:none;stroke:#000000;stroke-width:0.625" />
<path d="M54.83,162.91L59.83,162.91" style="fill:none;stroke:#000000;stroke-width:0.625" />
<path d="M54.83,278.78L59.83,278.78" style="fill:none;stroke:#000000;stroke-width:0.625" />
<path d="M54.83,336.72L59.83,336.72" style="fill:none;stroke:#000000;stroke-width:0.625" />
<path d="M54.83,452.59L59.83,452.59" style="fill:none;stroke:#000000;stroke-width:0.625" />
<path d="M54.83,510.53L59.83,510.53" style="fill:none;stroke:#000000;stroke-width:0.625" />
<path d="M54.83,626.41L59.83,626.41" style="fill:none;stroke:#000000;stroke-width:0.625" />
<path d="M54.83,684.35L59.83,684.35" style="fill:none;stroke:#000000;stroke-width:0.625" />
<path d="M59.83,47.03L59.83,701.44" style="fill:none;stroke:#000000;stroke-width:0.625" />
<path d="M67.088,50.018L75.973,54.044L84.858,74.231L93.743,54.709L102.63,55.607L111.51,54.6L120.4,54.991L129.28,54.701L138.17,54.469L147.05,55.083L155.94,54.881L164.82,62.893L173.71,54.698L182.6,59.042L191.48,54.51L200.37,54.689L209.25,54.596L218.14,86.691L227.02,54.459L235.91,54.136L244.79,54.47L253.68,66.41L262.56,54.718L271.45,55.152L280.33,53.861L289.22,55.53L298.1,53.926L306.99,55.255L315.87,54.002L324.76,54.308L333.64,47.03L342.53,75.801L351.41,52.353L360.3,108.83L369.18,59.303L378.07,53.714L386.95,54.867L395.84,54.46L404.73,54.343L413.61,60.33L422.5,54.294L431.38,55.515L440.27,55.674L449.15,55.062L458.04,64.667L466.92,54.762L475.81,70.864L484.69,55.882L493.58,56.4L502.46,54.674L511.35,282.85L520.23,242.09L529.12,206.21L538,47.03L546.89,47.03L555.77,47.03L564.66,47.03L573.54,47.03L582.43,47.03L591.31,47.03L600.2,47.03L609.08,47.03L617.97,47.03L626.85,47.03L635.74,47.03L644.63,47.03L653.51,47.03L662.4,47.03L671.28,47.03L680.17,47.03L689.05,47.03L697.94,47.03L706.82,47.03L715.71,47.03L724.59,47.03L733.48,47.03L742.36,47.03L751.25,47.03L760.13,47.03L769.02,47.03L777.9,47.03L786.79,47.03L795.67,47.03L804.56,47.03L813.44,47.03L822.33,47.03L831.21,47.03L840.1,47.03L848.98,47.03L857.87,47.03L866.76,47.03L875.64,47.03L884.53,76.438L893.41,54.292L902.3,52.469L911.18,54.146L920.07,47.03L928.95,47.03L937.84,47.03L946.72,47.03L955.61,84.688L964.49,51.502L973.38,47.03L982.26,99.171L991.15,53.88L1000,52.468L1008.9,52.476L1017.8,52.639L1026.7,52.804L1035.6,47.03L1044.5,47.03L1053.3,87.547L1062.2,52.759L1071.1,59.386L1080,55.681" style="fill:none;stroke:#F15A60;stroke-width:1.875" />
<path d="M67.088,53.512L75.973,62.174L84.858,58.167L93.743,56.789L102.63,54.948L111.51,53.699L120.4,53.685L129.28,54.32L138.17,53.867L147.05,53.488L155.94,53.566L164.82,62.825L173.71,53.78L182.6,53.652L191.48,53.35L200.37,53.349L209.25,69.386L218.14,52.414L227.02,54.668L235.91,52.213L244.79,55.791L253.68,53.634L262.56,55.262L271.45,53.549L280.33,53.939L289.22,54.056L298.1,52.693L306.99,47.03L315.87,68.325L324.76,51.9L333.64,51.939L342.53,57.367L351.41,54.618L360.3,54.167L369.18,54.281L378.07,53.845L386.95,54.42L395.84,54.671L404.73,55.294L413.61,54.43L422.5,54.052L431.38,55.379L440.27,55.05L449.15,55.837L458.04,68.901L466.92,55.295L475.81,54.791L484.69,54.547L493.58,53.607L502.46,51.561L511.35,52.104L520.23,108.42L529.12,52.603L538,47.03L546.89,103.88L555.77,55.492L564.66,54.175L573.54,55.896L582.43,55.049" style="fill:none;stroke:#7AC36A;stroke-width:1.875;stroke-dasharray:7.5,2.5" />
<path d="M67.088,50.67L75.973,60.874L84.858,61.882L93.743,54.192L102.63,53.907L111.51,54.712L120.4,54.625L129.28,53.994L138.17,53.021L147.05,53.865L155.94,61.97L164.82,55.033L173.71,58.865L182.6,53.736L191.48,52.856L200.37,53.837L209.25,70.341L218.14,53.464L227.02,53.714L235.91,52.175L244.79,58.895L253.68,54.132L262.56,53.866L271.45,53.831L280.33,53.744L289.22,53.468L298.1,54.367L306.99,53.742L315.87,47.03L324.76,66.258L333.64,53.4L342.53,536.59L351.41,59.591L360.3,53.343L369.18,53.829L378.07,53.04L386.95,55.153L395.84,53.844L404.73,53.67L413.61,53.509L422.5,55.86L431.38,53.573L440.27,54.689L449.15,53.264L458.04,55.47L466.92,53.139L475.81,51.155L484.69,50.764L493.58,701.44L502.46,179.24L511.35,53.564L520.23,52.99L529.12,59.732L538,54.171L546.89,54.361L555.77,54.961L564.66,53.201" style="fill:none;stroke:#5A9BD4;stroke-width:1.875;stroke-dasharray:2.5,2.5" />
<path d="M1055,694.3L1080,694.3" style="fill:none;stroke:#5A9BD4;stroke-width:1.875;stroke-dasharray:2.5,2.5" />
<text x="784.85" y="-687.85" transform="scale(1, -1)"
	style="font-family:Helvetica;font-weight:normal;font-style:normal;font-size:12pt">Zookeeper v3.4.8 (snapCount 1000000)</text>
<path d="M1055,680L1080,680" style="fill:none;stroke:#F15A60;stroke-width:1.875" />
<text x="793.19" y="-673.56" transform="scale(1, -1)"
	style="font-family:Helvetica;font-weight:normal;font-style:normal;font-size:12pt">Zookeeper v3.4.8 (snapCount 100000)</text>
<path d="M1055,665.71L1080,665.71" style="fill:none;stroke:#7AC36A;stroke-width:1.875;stroke-dasharray:7.5,2.5" />
<text x="793.19" y="-659.26" transform="scale(1, -1)"
	style="font-family:Helvetica;font-weight:normal;font-style:normal;font-size:12pt">Zookeeper v3.4.8 (snapCount 500000)</text>
</g>
</svg>
