<?xml version="1.0"?>
<!-- Generated by SVGo and Plotinum VG -->
<svg width="12in" height="8in"
	xmlns="http://www.w3.org/2000/svg"
	xmlns:xlink="http://www.w3.org/1999/xlink">
<g transform="scale(1, -1) translate(0, -720)">
<path d="M0,0L1080,0L1080,720L0,720Z" style="fill:#FFFFFF" />
<text x="283.64" y="-706.41" transform="scale(1, -1)"
	style="font-family:Helvetica;font-weight:normal;font-style:normal;font-size:12pt">Write 2M keys, 1,000 clients, 8-byte key, 256-byte value (Test 1), Throughput</text>
<text x="551.76" y="-4.965" transform="scale(1, -1)"
	style="font-family:Helvetica;font-weight:normal;font-style:normal;font-size:12pt">Second</text>
<text x="70.912" y="-19.142" transform="scale(1, -1)"
	style="font-family:Helvetica;font-weight:normal;font-style:normal;font-size:10pt">0</text>
<text x="332.07" y="-19.142" transform="scale(1, -1)"
	style="font-family:Helvetica;font-weight:normal;font-style:normal;font-size:10pt">30</text>
<text x="596.71" y="-19.142" transform="scale(1, -1)"
	style="font-family:Helvetica;font-weight:normal;font-style:normal;font-size:10pt">60</text>
<text x="861.34" y="-19.142" transform="scale(1, -1)"
	style="font-family:Helvetica;font-weight:normal;font-style:normal;font-size:10pt">90</text>
<path d="M74.388,30.467L74.388,40.467" style="fill:none;stroke:#000000;stroke-width:0.625" />
<path d="M339.02,30.467L339.02,40.467" style="fill:none;stroke:#000000;stroke-width:0.625" />
<path d="M603.66,30.467L603.66,40.467" style="fill:none;stroke:#000000;stroke-width:0.625" />
<path d="M868.29,30.467L868.29,40.467" style="fill:none;stroke:#000000;stroke-width:0.625" />
<path d="M162.6,35.468L162.6,40.467" style="fill:none;stroke:#000000;stroke-width:0.625" />
<path d="M250.81,35.468L250.81,40.467" style="fill:none;stroke:#000000;stroke-width:0.625" />
<path d="M427.23,35.468L427.23,40.467" style="fill:none;stroke:#000000;stroke-width:0.625" />
<path d="M515.45,35.468L515.45,40.467" style="fill:none;stroke:#000000;stroke-width:0.625" />
<path d="M691.87,35.468L691.87,40.467" style="fill:none;stroke:#000000;stroke-width:0.625" />
<path d="M780.08,35.468L780.08,40.467" style="fill:none;stroke:#000000;stroke-width:0.625" />
<path d="M956.5,35.468L956.5,40.467" style="fill:none;stroke:#000000;stroke-width:0.625" />
<path d="M1044.7,35.468L1044.7,40.467" style="fill:none;stroke:#000000;stroke-width:0.625" />
<path d="M74.388,40.467L1080,40.467" style="fill:none;stroke:#000000;stroke-width:0.625" />
<g transform="rotate(90)">
<text x="335.88" y="13.59" transform="scale(1, -1)"
	style="font-family:Helvetica;font-weight:normal;font-style:normal;font-size:12pt">Throughput</text>
</g>
<text x="46.705" y="-41.661" transform="scale(1, -1)"
	style="font-family:Helvetica;font-weight:normal;font-style:normal;font-size:10pt">0</text>
<text x="18.555" y="-173.5" transform="scale(1, -1)"
	style="font-family:Helvetica;font-weight:normal;font-style:normal;font-size:10pt">1e+04</text>
<text x="18.555" y="-305.33" transform="scale(1, -1)"
	style="font-family:Helvetica;font-weight:normal;font-style:normal;font-size:10pt">2e+04</text>
<text x="18.555" y="-437.17" transform="scale(1, -1)"
	style="font-family:Helvetica;font-weight:normal;font-style:normal;font-size:10pt">3e+04</text>
<text x="18.555" y="-569" transform="scale(1, -1)"
	style="font-family:Helvetica;font-weight:normal;font-style:normal;font-size:10pt">4e+04</text>
<path d="M57.13,47.03L67.13,47.03" style="fill:none;stroke:#000000;stroke-width:0.625" />
<path d="M57.13,178.86L67.13,178.86" style="fill:none;stroke:#000000;stroke-width:0.625" />
<path d="M57.13,310.7L67.13,310.7" style="fill:none;stroke:#000000;stroke-width:0.625" />
<path d="M57.13,442.53L67.13,442.53" style="fill:none;stroke:#000000;stroke-width:0.625" />
<path d="M57.13,574.37L67.13,574.37" style="fill:none;stroke:#000000;stroke-width:0.625" />
<path d="M62.13,112.95L67.13,112.95" style="fill:none;stroke:#000000;stroke-width:0.625" />
<path d="M62.13,244.78L67.13,244.78" style="fill:none;stroke:#000000;stroke-width:0.625" />
<path d="M62.13,376.62L67.13,376.62" style="fill:none;stroke:#000000;stroke-width:0.625" />
<path d="M62.13,508.45L67.13,508.45" style="fill:none;stroke:#000000;stroke-width:0.625" />
<path d="M62.13,640.29L67.13,640.29" style="fill:none;stroke:#000000;stroke-width:0.625" />
<path d="M67.13,47.03L67.13,701.44" style="fill:none;stroke:#000000;stroke-width:0.625" />
<path d="M74.388,264.12L83.209,383.33L92.03,232.85L100.85,544.27L109.67,493.71L118.49,548.89L127.31,526.97L136.14,545.17L144.96,554.79L153.78,525.34L162.6,530.69L171.42,287.64L180.24,285.16L189.06,530.72L197.88,556.98L206.7,546.47L215.53,512.47L224.35,150.51L233.17,562.81L241.99,583.47L250.81,314.67L259.63,338.23L268.45,542.97L277.27,515.93L286.1,607.74L294.92,493.79L303.74,601.57L312.56,510.46L321.38,596.28L330.2,425.21L339.02,47.03L347.84,347.82L356.66,218.63L365.49,120.83L374.31,524.38L383.13,635.01L391.95,533.24L400.77,560.18L409.59,567.61L418.41,334.63L427.23,571.39L436.06,496.93L444.88,438.07L453.7,576.69L462.52,262.07L471.34,458.03L480.16,207.3L488.98,550.77L497.8,417.68L506.62,358.16L515.45,67.544L524.27,67.108L533.09,47.07L541.91,47.03L550.73,47.03L559.55,47.03L568.37,47.03L577.19,47.03L586.01,47.03L594.84,47.03L603.66,47.03L612.48,47.03L621.3,47.03L630.12,47.03L638.94,47.03L647.76,47.03L656.58,47.03L665.41,47.03L674.23,47.03L683.05,47.03L691.87,47.03L700.69,47.03L709.51,47.03L718.33,47.03L727.15,47.03L735.97,47.03L744.8,47.03L753.62,47.03L762.44,47.03L771.26,47.03L780.08,47.03L788.9,47.03L797.72,47.03L806.54,47.03L815.37,47.03L824.19,47.03L833.01,47.03L841.83,47.03L850.65,47.03L859.47,47.03L868.29,47.03L877.11,47.03L885.93,417.86L894.76,397.06L903.58,513.03L912.4,346.03L921.22,47.03L930.04,47.03L938.86,47.03L947.68,47.03L956.5,189.25L965.32,338.42L974.15,47.03L982.97,147.67L991.79,411.37L1000.6,523.32L1009.4,514.23L1018.3,494L1027.1,434.82L1035.9,47.03L1044.7,47.03L1053.5,243.54L1062.4,490.47L1071.2,363.01L1080,503.2" style="fill:none;stroke:#F15A60;stroke-width:1.875" />
<path d="M74.388,94.451L83.209,214.03L92.03,355.15L100.85,470.71L109.67,531.51L118.49,621.54L127.31,618.26L136.14,568.78L144.96,606.89L153.78,635.37L162.6,579.34L171.42,310.79L180.24,596.39L189.06,639.22L197.88,648.28L206.7,448.81L215.53,274.99L224.35,613.19L233.17,646.26L241.99,631.66L250.81,573.33L259.63,624.15L268.45,510.64L277.27,631.24L286.1,600.29L294.92,587.59L303.74,479.54L312.56,47.03L321.38,470.06L330.2,651.03L339.02,565.39L347.84,621.95L356.66,552.81L365.49,579.38L374.31,571.39L383.13,608.38L391.95,562.73L400.77,545.33L409.59,508.45L418.41,563.82L427.23,583.26L436.06,505.91L444.88,418.69L453.7,330.67L462.52,319.43L471.34,512.06L480.16,538.13L488.98,555.45L497.8,554.74L506.62,602.21L515.45,546.84L524.27,157.97L533.09,95.361L541.91,47.03L550.73,243.82L559.55,498.23L568.37,582.86L577.19,474.56L586.01,521.77" style="fill:none;stroke:#7AC36A;stroke-width:1.875;stroke-dasharray:7.5,2.5" />
<path d="M74.388,240.31L83.209,300.55L92.03,361.48L100.85,577.23L109.67,603.41L118.49,543.97L127.31,549.47L136.14,595.53L144.96,681.39L153.78,605.02L162.6,296.84L171.42,468.95L180.24,412.79L189.06,618.07L197.88,701.44L206.7,484.17L215.53,246.97L224.35,637.61L233.17,619.8L241.99,244.14L250.81,603.89L259.63,581.9L268.45,590.78L277.27,621.53L286.1,613.84L294.92,631.94L303.74,572.73L312.56,422.83L321.38,47.03L330.2,510.92L339.02,241.46L347.84,52.91L356.66,631.61L365.49,651.14L374.31,605.85L383.13,677.57L391.95,520.19L400.77,607.09L409.59,620.81L418.41,627.56L427.23,482.56L436.06,631.88L444.88,546.01L453.7,659.14L462.52,499.54L471.34,622.82L480.16,664.03L488.98,198.97L497.8,51.328L506.62,110.57L515.45,522.73L524.27,504.67L533.09,562.33L541.91,608.92L550.73,568.9L559.55,528.91L568.37,664.95" style="fill:none;stroke:#5A9BD4;stroke-width:1.875;stroke-dasharray:2.5,2.5" />
<path d="M1055,694.3L1080,694.3" style="fill:none;stroke:#F15A60;stroke-width:1.875" />
<text x="793.19" y="-687.85" transform="scale(1, -1)"
	style="font-family:Helvetica;font-weight:normal;font-style:normal;font-size:12pt">Zookeeper v3.4.8 (snapCount 100000)</text>
<path d="M1055,680L1080,680" style="fill:none;stroke:#7AC36A;stroke-width:1.875;stroke-dasharray:7.5,2.5" />
<text x="793.19" y="-673.56" transform="scale(1, -1)"
	style="font-family:Helvetica;font-weight:normal;font-style:normal;font-size:12pt">Zookeeper v3.4.8 (snapCount 500000)</text>
<path d="M1055,665.71L1080,665.71" style="fill:none;stroke:#5A9BD4;stroke-width:1.875;stroke-dasharray:2.5,2.5" />
<text x="784.85" y="-659.26" transform="scale(1, -1)"
	style="font-family:Helvetica;font-weight:normal;font-style:normal;font-size:12pt">Zookeeper v3.4.8 (snapCount 1000000)</text>
</g>
</svg>
