<?xml version="1.0"?>
<!-- Generated by SVGo and Plotinum VG -->
<svg width="12in" height="8in"
	xmlns="http://www.w3.org/2000/svg"
	xmlns:xlink="http://www.w3.org/1999/xlink">
<g transform="scale(1, -1) translate(0, -720)">
<path d="M0,0L1080,0L1080,720L0,720Z" style="fill:#FFFFFF" />
<text x="261.69" y="-705.6" transform="scale(1, -1)"
	style="font-family:Helvetica;font-weight:normal;font-style:normal;font-size:12pt">Read 2M keys, 1000-client, 700-conn, 8-byte same key, 1.3 MB value, Memory(MB)</text>
<text x="548.46" y="-4.8486" transform="scale(1, -1)"
	style="font-family:Helvetica;font-weight:normal;font-style:normal;font-size:12pt">Second</text>
<text x="64.31" y="-19.498" transform="scale(1, -1)"
	style="font-family:Helvetica;font-weight:normal;font-style:normal;font-size:10pt">0</text>
<text x="345.08" y="-19.498" transform="scale(1, -1)"
	style="font-family:Helvetica;font-weight:normal;font-style:normal;font-size:10pt">500</text>
<text x="629.33" y="-19.498" transform="scale(1, -1)"
	style="font-family:Helvetica;font-weight:normal;font-style:normal;font-size:10pt">1000</text>
<text x="917.05" y="-19.498" transform="scale(1, -1)"
	style="font-family:Helvetica;font-weight:normal;font-style:normal;font-size:10pt">1500</text>
<path d="M67.786,31.498L67.786,41.498" style="fill:none;stroke:#000000;stroke-width:0.625" />
<path d="M355.51,31.498L355.51,41.498" style="fill:none;stroke:#000000;stroke-width:0.625" />
<path d="M643.23,31.498L643.23,41.498" style="fill:none;stroke:#000000;stroke-width:0.625" />
<path d="M930.96,31.498L930.96,41.498" style="fill:none;stroke:#000000;stroke-width:0.625" />
<path d="M125.33,36.498L125.33,41.498" style="fill:none;stroke:#000000;stroke-width:0.625" />
<path d="M182.88,36.498L182.88,41.498" style="fill:none;stroke:#000000;stroke-width:0.625" />
<path d="M240.42,36.498L240.42,41.498" style="fill:none;stroke:#000000;stroke-width:0.625" />
<path d="M297.97,36.498L297.97,41.498" style="fill:none;stroke:#000000;stroke-width:0.625" />
<path d="M413.05,36.498L413.05,41.498" style="fill:none;stroke:#000000;stroke-width:0.625" />
<path d="M470.6,36.498L470.6,41.498" style="fill:none;stroke:#000000;stroke-width:0.625" />
<path d="M528.14,36.498L528.14,41.498" style="fill:none;stroke:#000000;stroke-width:0.625" />
<path d="M585.69,36.498L585.69,41.498" style="fill:none;stroke:#000000;stroke-width:0.625" />
<path d="M700.78,36.498L700.78,41.498" style="fill:none;stroke:#000000;stroke-width:0.625" />
<path d="M758.32,36.498L758.32,41.498" style="fill:none;stroke:#000000;stroke-width:0.625" />
<path d="M815.87,36.498L815.87,41.498" style="fill:none;stroke:#000000;stroke-width:0.625" />
<path d="M873.41,36.498L873.41,41.498" style="fill:none;stroke:#000000;stroke-width:0.625" />
<path d="M988.5,36.498L988.5,41.498" style="fill:none;stroke:#000000;stroke-width:0.625" />
<path d="M1046,36.498L1046,41.498" style="fill:none;stroke:#000000;stroke-width:0.625" />
<path d="M67.786,41.498L1080,41.498" style="fill:none;stroke:#000000;stroke-width:0.625" />
<g transform="rotate(90)">
<text x="331.08" y="14.399" transform="scale(1, -1)"
	style="font-family:Helvetica;font-weight:normal;font-style:normal;font-size:12pt">Memory(MB)</text>
</g>
<text x="26.2" y="-110.54" transform="scale(1, -1)"
	style="font-family:Helvetica;font-weight:normal;font-style:normal;font-size:10pt">900</text>
<text x="19.248" y="-299.96" transform="scale(1, -1)"
	style="font-family:Helvetica;font-weight:normal;font-style:normal;font-size:10pt">1200</text>
<text x="19.248" y="-489.38" transform="scale(1, -1)"
	style="font-family:Helvetica;font-weight:normal;font-style:normal;font-size:10pt">1500</text>
<text x="19.248" y="-678.8" transform="scale(1, -1)"
	style="font-family:Helvetica;font-weight:normal;font-style:normal;font-size:10pt">1800</text>
<path d="M50.529,116.42L60.529,116.42" style="fill:none;stroke:#000000;stroke-width:0.625" />
<path d="M50.529,305.83L60.529,305.83" style="fill:none;stroke:#000000;stroke-width:0.625" />
<path d="M50.529,495.25L60.529,495.25" style="fill:none;stroke:#000000;stroke-width:0.625" />
<path d="M50.529,684.67L60.529,684.67" style="fill:none;stroke:#000000;stroke-width:0.625" />
<path d="M55.529,53.276L60.529,53.276" style="fill:none;stroke:#000000;stroke-width:0.625" />
<path d="M55.529,179.55L60.529,179.55" style="fill:none;stroke:#000000;stroke-width:0.625" />
<path d="M55.529,242.69L60.529,242.69" style="fill:none;stroke:#000000;stroke-width:0.625" />
<path d="M55.529,368.97L60.529,368.97" style="fill:none;stroke:#000000;stroke-width:0.625" />
<path d="M55.529,432.11L60.529,432.11" style="fill:none;stroke:#000000;stroke-width:0.625" />
<path d="M55.529,558.39L60.529,558.39" style="fill:none;stroke:#000000;stroke-width:0.625" />
<path d="M55.529,621.53L60.529,621.53" style="fill:none;stroke:#000000;stroke-width:0.625" />
<path d="M60.529,48.06L60.529,700.75" style="fill:none;stroke:#000000;stroke-width:0.625" />
<path d="M67.786,242.16L68.361,600.23L68.937,637.48L69.512,644.29L70.087,650.88L70.663,653.53L71.238,655.31L71.814,661.49L72.389,661.49L72.965,661.49L73.54,665.48L74.116,665.48L74.691,666.15L75.266,666.15L75.842,666.15L76.417,666.97L76.993,668.81L77.568,668.81L78.144,668.81L78.719,668.81L79.295,668.81L79.87,669.85L80.446,670.82L81.021,670.82L81.596,670.82L82.172,670.82L82.747,670.82L83.323,672.18L83.898,672.18L84.474,672.18L85.049,672.18L85.625,672.18L86.2,672.23L86.775,672.23L87.351,672.23L87.926,672.23L88.502,672.23L89.077,673.51L89.653,673.51L90.228,673.51L90.804,673.51L91.379,673.51L91.954,673.52L92.53,673.52L93.105,673.52L93.681,673.56L94.256,675.16L94.832,676.36L95.407,676.36L95.983,676.36L96.558,676.36L97.134,676.36L97.709,676.36L98.284,679.66L98.86,679.66L99.435,679.66L100.01,679.66L100.59,681.51L101.16,681.51L101.74,681.51L102.31,681.51L102.89,681.51L103.46,681.51L104.04,681.51L104.61,682.56L105.19,682.56L105.77,682.56L106.34,683.53L106.92,683.53L107.49,683.53L108.07,683.53L108.64,683.53L109.22,683.53L109.79,683.8L110.37,683.8L110.94,683.8L111.52,683.8L112.1,684.94L112.67,684.94L113.25,684.94L113.82,684.94L114.4,685L114.97,685L115.55,685L116.12,685L116.7,685L117.27,685L117.85,685L118.43,685.05L119,685.05L119.58,685.05L120.15,685.05L120.73,685.05L121.3,685.1L121.88,685.1L122.45,685.1L123.03,685.1L123.6,685.1L124.18,685.1L124.76,685.1L125.33,685.1L125.91,685.1L126.48,685.1L127.06,685.1L127.63,685.1L128.21,685.1L128.78,685.1L129.36,685.1L129.93,685.1L130.51,685.1L131.09,685.1L131.66,685.1L132.24,685.1L132.81,685.1L133.39,685.1L133.96,685.1L134.54,685.1L135.11,685.11L135.69,685.11L136.26,685.11L136.84,685.11L137.41,685.11L137.99,685.11L138.57,685.11L139.14,685.11L139.72,685.11L140.29,685.11L140.87,685.11L141.44,685.11L142.02,685.11L142.59,685.11L143.17,685.11L143.74,685.11L144.32,685.11L144.9,685.11L145.47,685.11L146.05,685.11L146.62,685.11L147.2,685.11L147.77,685.11L148.35,685.11L148.92,685.11L149.5,685.11L150.07,685.11L150.65,685.11L151.23,686.41L151.8,686.41L152.38,686.41L152.95,686.41L153.53,686.41L154.1,686.41L154.68,686.41L155.25,686.41L155.83,686.41L156.4,686.41L156.98,686.41L157.56,686.41L158.13,686.41L158.71,686.41L159.28,686.41L159.86,686.41L160.43,686.41L161.01,686.42L161.58,686.42L162.16,686.42L162.73,686.9L163.31,686.9L163.89,686.9L164.46,686.94L165.04,686.94L165.61,686.94L166.19,686.94L166.76,686.94L167.34,686.94L167.91,686.94L168.49,686.94L169.06,686.94L169.64,686.94L170.22,686.94L170.79,686.94L171.37,686.94L171.94,686.94L172.52,686.94L173.09,686.94L173.67,686.94L174.24,686.94L174.82,686.94L175.39,686.94L175.97,686.94L176.55,686.94L177.12,686.94L177.7,686.94L178.27,686.94L178.85,686.94L179.42,686.94L180,686.94L180.57,686.94L181.15,686.94L181.72,686.94L182.3,687.76L182.88,687.76L183.45,687.76L184.03,687.76L184.6,687.76L185.18,687.76L185.75,687.76L186.33,687.76L186.9,687.77L187.48,687.77L188.05,687.77L188.63,687.77L189.21,687.77L189.78,687.77L190.36,687.77L190.93,687.77L191.51,687.77L192.08,687.77L192.66,687.77L193.23,687.77L193.81,687.77L194.38,687.77L194.96,687.77L195.54,687.77L196.11,687.77L196.69,687.77L197.26,687.77L197.84,687.77L198.41,687.78L198.99,687.78L199.56,687.78L200.14,687.78L200.71,687.78L201.29,687.78L201.87,687.78L202.44,687.78L203.02,687.78L203.59,687.78L204.17,687.78L204.74,687.78L205.32,687.78L205.89,687.78L206.47,688.26L207.04,688.26L207.62,688.26L208.2,688.26L208.77,688.26L209.35,688.26L209.92,688.26L210.5,688.26L211.07,688.26L211.65,688.26L212.22,688.26L212.8,688.26L213.37,688.26L213.95,688.26L214.53,688.26L215.1,688.26L215.68,688.26L216.25,688.26L216.83,688.26L217.4,688.26L217.98,688.26L218.55,688.27L219.13,688.27L219.7,688.27L220.28,688.27L220.86,688.27L221.43,688.28L222.01,688.28L222.58,688.28L223.16,688.28L223.73,688.28L224.31,688.28L224.88,688.28L225.46,688.28L226.03,688.28L226.61,688.28L227.18,688.28L227.76,688.28L228.34,688.28L228.91,688.28L229.49,688.28L230.06,688.28L230.64,688.28L231.21,688.28L231.79,688.28L232.36,688.28L232.94,688.28L233.51,688.28L234.09,688.28L234.67,688.28L235.24,690.39L235.82,690.39L236.39,690.4L236.97,690.4L237.54,690.4L238.12,690.4L238.69,690.4L239.27,690.4L239.84,690.4L240.42,690.4L241,690.4L241.57,690.4L242.15,690.4L242.72,690.4L243.3,690.4L243.87,690.4L244.45,690.4L245.02,690.4L245.6,690.4L246.17,690.4L246.75,690.4L247.33,690.4L247.9,690.4L248.48,690.4L249.05,690.4L249.63,690.4L250.2,690.4L250.78,690.4L251.35,690.4L251.93,690.4L252.5,690.4L253.08,690.4L253.66,690.4L254.23,690.4L254.81,690.4L255.38,690.4L255.96,690.4L256.53,690.4L257.11,690.4L257.68,690.4L258.26,690.4L258.83,690.49L259.41,690.49L259.99,690.49L260.56,690.49L261.14,690.49L261.71,690.49L262.29,690.49L262.86,690.49L263.44,690.49L264.01,690.49L264.59,690.5L265.16,690.5L265.74,690.5L266.32,690.5L266.89,690.5L267.47,690.5L268.04,690.5L268.62,690.5L269.19,690.5L269.77,690.5L270.34,690.5L270.92,690.5L271.49,690.5L272.07,690.5L272.65,690.5L273.22,690.5L273.8,690.5L274.37,690.5L274.95,690.5L275.52,690.5L276.1,690.5L276.67,690.5L277.25,690.5L277.82,690.5L278.4,690.5L278.98,690.5L279.55,690.5L280.13,690.5L280.7,690.5L281.28,690.5L281.85,690.5L282.43,690.5L283,690.5L283.58,691.26L284.15,691.26L284.73,691.26L285.31,691.26L285.88,691.26L286.46,691.26L287.03,691.26L287.61,691.27L288.18,691.27L288.76,691.27L289.33,691.27L289.91,691.27L290.48,691.28L291.06,691.28L291.64,691.28L292.21,691.28L292.79,691.28L293.36,691.28L293.94,691.28L294.51,691.28L295.09,691.28L295.66,691.28L296.24,691.28L296.81,691.28L297.39,691.28L297.97,691.28L298.54,691.28L299.12,691.29L299.69,691.29L300.27,691.29L300.84,691.29L301.42,691.29L301.99,691.29L302.57,691.29L303.14,691.29L303.72,691.29L304.3,691.29L304.87,691.29L305.45,691.29L306.02,691.29L306.6,691.29L307.17,691.29L307.75,691.29L308.32,691.29L308.9,691.29L309.47,691.29L310.05,691.29L310.63,691.29L311.2,691.29L311.78,691.29L312.35,691.29L312.93,691.29L313.5,691.29L314.08,691.81L314.65,691.81L315.23,691.81L315.8,691.81L316.38,691.81L316.95,691.81L317.53,691.81L318.11,691.81L318.68,691.81L319.26,691.81L319.83,691.81L320.41,691.81L320.98,691.81L321.56,691.81L322.13,691.81L322.71,691.81L323.28,691.81L323.86,691.81L324.44,691.81L325.01,691.81L325.59,691.81L326.16,691.81L326.74,691.81L327.31,691.81L327.89,691.81L328.46,691.81L329.04,691.81L329.61,691.81L330.19,691.81L330.77,691.81L331.34,691.81L331.92,691.81L332.49,691.81L333.07,691.81L333.64,691.81L334.22,691.81L334.79,691.81L335.37,691.81L335.94,691.81L336.52,691.81L337.1,691.81L337.67,691.81L338.25,691.81L338.82,691.81L339.4,691.82L339.97,691.82L340.55,692.79L341.12,692.79L341.7,692.79L342.27,692.79L342.85,692.79L343.43,692.79L344,692.79L344.58,692.79L345.15,692.79L345.73,692.79L346.3,692.79L346.88,692.79L347.45,692.79L348.03,692.79L348.6,692.79L349.18,692.79L349.76,692.79L350.33,692.79L350.91,692.79L351.48,692.79L352.06,692.79L352.63,692.79L353.21,692.79L353.78,692.79L354.36,692.79L354.93,692.79L355.51,692.79L356.09,692.79L356.66,692.79L357.24,692.79L357.81,692.79L358.39,692.79L358.96,692.79L359.54,692.79L360.11,692.79L360.69,692.79L361.26,692.79L361.84,692.79L362.42,692.79L362.99,692.79L363.57,692.79L364.14,692.79L364.72,692.79L365.29,693.06L365.87,693.06L366.44,693.06L367.02,693.06L367.59,693.06L368.17,693.07L368.75,693.07L369.32,693.07L369.9,693.07L370.47,693.07L371.05,693.07L371.62,693.07L372.2,693.07L372.77,693.07L373.35,693.07L373.92,693.1L374.5,693.1L375.08,693.1L375.65,693.1L376.23,693.1L376.8,693.1L377.38,693.1L377.95,693.1L378.53,693.1L379.1,693.1L379.68,693.1L380.25,693.1L380.83,693.1L381.41,693.1L381.98,693.1L382.56,693.11L383.13,693.11L383.71,693.11L384.28,693.11L384.86,693.11L385.43,693.11L386.01,693.11L386.58,693.11L387.16,693.11L387.74,693.11L388.31,693.11L388.89,693.11L389.46,693.11L390.04,693.11L390.61,693.11L391.19,693.11L391.76,693.11L392.34,693.11L392.91,693.11L393.49,693.11L394.07,693.11L394.64,693.11L395.22,693.11L395.79,693.11L396.37,693.11L396.94,693.11L397.52,693.11L398.09,693.11L398.67,693.11L399.24,693.11L399.82,693.11L400.4,693.16L400.97,693.16L401.55,693.16L402.12,693.16L402.7,693.16L403.27,693.16L403.85,693.16L404.42,693.16L405,693.16L405.57,693.16L406.15,693.16L406.72,693.16L407.3,693.16L407.88,693.16L408.45,693.16L409.03,693.16L409.6,693.16L410.18,693.16L410.75,693.69L411.33,693.69L411.9,693.69L412.48,693.69L413.05,693.69L413.63,693.69L414.21,693.69L414.78,693.69L415.36,693.69L415.93,693.69L416.51,693.69L417.08,693.69L417.66,693.71L418.23,693.71L418.81,693.71L419.38,693.71L419.96,693.71L420.54,693.71L421.11,693.71L421.69,693.71L422.26,693.71L422.84,693.71L423.41,693.71L423.99,693.71L424.56,693.71L425.14,694.58L425.71,694.58L426.29,694.58L426.87,694.58L427.44,694.58L428.02,694.58L428.59,694.58L429.17,694.58L429.74,694.58L430.32,694.58L430.89,694.58L431.47,694.58L432.04,694.58L432.62,694.58L433.2,694.58L433.77,694.58L434.35,694.58L434.92,694.58L435.5,694.58L436.07,694.58L436.65,694.58L437.22,694.58L437.8,694.58L438.37,694.58L438.95,694.58L439.53,694.58L440.1,694.58L440.68,694.58L441.25,694.58L441.83,694.58L442.4,694.58L442.98,694.58L443.55,694.58L444.13,694.58L444.7,694.58L445.28,694.58L445.86,694.58L446.43,694.58L447.01,694.58L447.58,694.58L448.16,694.58L448.73,694.63L449.31,694.63L449.88,694.63L450.46,694.63L451.03,694.63L451.61,694.63L452.19,694.64L452.76,694.64L453.34,694.64L453.91,694.64L454.49,694.64L455.06,694.64L455.64,694.64L456.21,694.64L456.79,694.64L457.36,694.64L457.94,694.64L458.52,694.64L459.09,694.64L459.67,694.64L460.24,694.64L460.82,694.64L461.39,694.64L461.97,694.64L462.54,694.64L463.12,694.64L463.69,694.64L464.27,694.64L464.85,694.64L465.42,694.64L466,694.64L466.57,694.64L467.15,694.64L467.72,694.64L468.3,694.64L468.87,694.64L469.45,694.64L470.02,694.64L470.6,694.64L471.18,694.64L471.75,694.64L472.33,694.64L472.9,694.64L473.48,694.64L474.05,694.64L474.63,694.64L475.2,694.64L475.78,694.64L476.35,694.64L476.93,694.64L477.51,694.64L478.08,694.64L478.66,694.64L479.23,694.64L479.81,694.64L480.38,694.64L480.96,694.64L481.53,694.64L482.11,694.64L482.68,694.64L483.26,694.64L483.84,694.64L484.41,694.64L484.99,694.64L485.56,694.64L486.14,694.64L486.71,694.67L487.29,694.67L487.86,694.67L488.44,694.67L489.01,694.67L489.59,694.67L490.17,694.67L490.74,694.67L491.32,694.67L491.89,694.67L492.47,694.67L493.04,694.67L493.62,694.67L494.19,694.67L494.77,694.67L495.34,694.67L495.92,694.67L496.49,694.67L497.07,694.67L497.65,695.21L498.22,695.21L498.8,695.21L499.37,695.21L499.95,695.21L500.52,695.21L501.1,695.21L501.67,695.21L502.25,695.64L502.82,695.64L503.4,695.64L503.98,695.64L504.55,695.64L505.13,695.64L505.7,695.64L506.28,695.64L506.85,695.64L507.43,695.64L508,695.64L508.58,695.64L509.15,695.64L509.73,695.64L510.31,695.64L510.88,695.64L511.46,695.64L512.03,695.64L512.61,695.64L513.18,695.64L513.76,695.64L514.33,695.64L514.91,695.64L515.48,695.64L516.06,695.64L516.64,695.64L517.21,695.64L517.79,695.64L518.36,695.64L518.94,695.64L519.51,695.64L520.09,695.64L520.66,695.64L521.24,695.64L521.81,695.64L522.39,695.64L522.97,695.64L523.54,695.64L524.12,695.64L524.69,695.64L525.27,695.64L525.84,695.64L526.42,695.64L526.99,695.64L527.57,695.64L528.14,695.64L528.72,695.64L529.3,695.69L529.87,695.69L530.45,695.69L531.02,695.69L531.6,695.69L532.17,695.69L532.75,695.69L533.32,695.69L533.9,695.69L534.47,695.74L535.05,695.74L535.63,695.74L536.2,695.74L536.78,695.74L537.35,695.74L537.93,695.74L538.5,695.74L539.08,695.74L539.65,695.74L540.23,695.74L540.8,695.74L541.38,695.74L541.96,695.74L542.53,695.74L543.11,695.74L543.68,695.74L544.26,695.74L544.83,695.74L545.41,695.74L545.98,695.74L546.56,695.74L547.13,695.74L547.71,695.74L548.29,695.74L548.86,695.74L549.44,695.74L550.01,695.74L550.59,695.74L551.16,695.79L551.74,695.79L552.31,695.79L552.89,695.79L553.46,695.79L554.04,695.79L554.62,695.79L555.19,695.79L555.77,695.79L556.34,695.79L556.92,695.79L557.49,695.79L558.07,695.79L558.64,695.79L559.22,695.79L559.79,695.79L560.37,695.79L560.95,695.79L561.52,695.79L562.1,695.79L562.67,695.79L563.25,695.79L563.82,695.79L564.4,695.79L564.97,695.79L565.55,695.79L566.12,695.79L566.7,695.79L567.28,695.79L567.85,695.79L568.43,695.79L569,695.79L569.58,695.79L570.15,695.79L570.73,695.79L571.3,695.79L571.88,695.79L572.45,695.79L573.03,695.79L573.61,695.79L574.18,695.79L574.76,695.79L575.33,695.79L575.91,695.79L576.48,695.79L577.06,695.79L577.63,695.79L578.21,695.79L578.78,695.79L579.36,695.79L579.94,695.79L580.51,695.79L581.09,695.79L581.66,695.79L582.24,695.79L582.81,695.79L583.39,695.79L583.96,695.79L584.54,695.79L585.11,695.79L585.69,695.79L586.26,695.79L586.84,695.79L587.42,695.79L587.99,695.79L588.57,695.79L589.14,695.79L589.72,695.79L590.29,695.79L590.87,695.79L591.44,695.79L592.02,695.79L592.59,695.79L593.17,695.79L593.75,695.79L594.32,695.79L594.9,695.79L595.47,695.79L596.05,695.83L596.62,695.83L597.2,695.83L597.77,695.83L598.35,695.83L598.92,695.83L599.5,695.83L600.08,695.83L600.65,695.83L601.23,695.83L601.8,695.83L602.38,695.83L602.95,695.83L603.53,695.83L604.1,695.83L604.68,695.83L605.25,695.83L605.83,695.83L606.41,695.83L606.98,695.83L607.56,695.83L608.13,695.83L608.71,695.83L609.28,695.83L609.86,695.83L610.43,695.83L611.01,695.83L611.58,695.83L612.16,695.83L612.74,695.83L613.31,695.83L613.89,695.83L614.46,695.83L615.04,695.83L615.61,695.83L616.19,695.83L616.76,695.86L617.34,695.86L617.91,695.86L618.49,695.86L619.07,695.86L619.64,695.86L620.22,695.86L620.79,695.96L621.37,695.96L621.94,695.96L622.52,695.96L623.09,695.96L623.67,695.96L624.24,695.96L624.82,695.96L625.4,695.96L625.97,695.96L626.55,695.96L627.12,695.96L627.7,695.96L628.27,695.96L628.85,695.96L629.42,695.96L630,695.96L630.57,695.96L631.15,695.96L631.73,695.96L632.3,695.96L632.88,695.96L633.45,695.96L634.03,695.96L634.6,695.96L635.18,695.96L635.75,695.96L636.33,695.96L636.9,695.96L637.48,695.96L638.06,695.96L638.63,695.96L639.21,695.96L639.78,695.96L640.36,695.96L640.93,695.96L641.51,695.96L642.08,695.96L642.66,695.96L643.23,695.96L643.81,695.96L644.39,695.96L644.96,695.96L645.54,695.96L646.11,695.96L646.69,695.96L647.26,695.96L647.84,695.96L648.41,695.96L648.99,695.96L649.56,695.96L650.14,695.96L650.72,695.96L651.29,695.96L651.87,695.96L652.44,695.96L653.02,695.96L653.59,695.96L654.17,695.96L654.74,695.96L655.32,695.96L655.89,695.97L656.47,695.97L657.05,695.97L657.62,695.97L658.2,695.97L658.77,695.97L659.35,695.97L659.92,695.97L660.5,695.97L661.07,695.97L661.65,695.97L662.22,695.97L662.8,695.97L663.38,695.97L663.95,695.97L664.53,695.97L665.1,695.97L665.68,695.97L666.25,695.97L666.83,695.97L667.4,695.97L667.98,695.97L668.55,695.97L669.13,695.97L669.71,695.97L670.28,695.97L670.86,695.97L671.43,695.97L672.01,695.97L672.58,695.97L673.16,695.97L673.73,695.97L674.31,695.97L674.88,695.97L675.46,695.97L676.03,695.97L676.61,695.97L677.19,695.97L677.76,695.97L678.34,695.97L678.91,695.97L679.49,696.2L680.06,696.2L680.64,696.2L681.21,696.2L681.79,696.2L682.36,696.2L682.94,696.2L683.52,696.2L684.09,696.2L684.67,696.2L685.24,696.2L685.82,696.2L686.39,696.2L686.97,696.2L687.54,696.2L688.12,696.2L688.69,696.2L689.27,696.2L689.85,696.2L690.42,696.2L691,696.2L691.57,696.2L692.15,696.2L692.72,696.2L693.3,696.2L693.87,696.2L694.45,696.2L695.02,696.2L695.6,696.2L696.18,696.2L696.75,696.2L697.33,696.2L697.9,696.2L698.48,696.2L699.05,696.2L699.63,696.2L700.2,696.2L700.78,696.2L701.35,696.2L701.93,696.2L702.51,696.2L703.08,696.2L703.66,696.2L704.23,696.2L704.81,696.2L705.38,696.2L705.96,696.2L706.53,696.2L707.11,696.2L707.68,696.2L708.26,696.2L708.84,696.2L709.41,696.2L709.99,696.2L710.56,696.2L711.14,696.2L711.71,696.2L712.29,696.2L712.86,696.2L713.44,696.2L714.01,696.2L714.59,696.2L715.17,696.2L715.74,696.2L716.32,696.2L716.89,696.2L717.47,696.2L718.04,696.2L718.62,696.2L719.19,696.2L719.77,696.2L720.34,696.2L720.92,696.2L721.5,696.2L722.07,696.2L722.65,696.2L723.22,696.2L723.8,696.2L724.37,696.2L724.95,696.2L725.52,696.2L726.1,696.2L726.67,696.2L727.25,696.2L727.83,696.2L728.4,696.2L728.98,696.2L729.55,696.2L730.13,696.2L730.7,696.2L731.28,696.2L731.85,696.2L732.43,696.2L733,696.2L733.58,696.2L734.16,696.2L734.73,696.2L735.31,696.2L735.88,696.2L736.46,696.2L737.03,696.2L737.61,696.2L738.18,696.2L738.76,696.2L739.33,696.2L739.91,696.53L740.49,696.53L741.06,696.53L741.64,696.53L742.21,696.53L742.79,696.53L743.36,696.53L743.94,696.53L744.51,696.53L745.09,696.53L745.66,696.53L746.24,696.53L746.82,696.53L747.39,696.53L747.97,696.53L748.54,696.53L749.12,696.53L749.69,696.53L750.27,696.53L750.84,696.53L751.42,696.53L751.99,696.53L752.57,696.53L753.15,696.53L753.72,696.55L754.3,696.55L754.87,696.55L755.45,697.36L756.02,697.36L756.6,697.36L757.17,697.36L757.75,697.36L758.32,697.36L758.9,697.36L759.48,697.36L760.05,697.36L760.63,697.36L761.2,697.36L761.78,700.05L762.35,700.05L762.93,700.05L763.5,700.05L764.08,700.05L764.65,700.05L765.23,700.05L765.8,700.05L766.38,700.05L766.96,700.05L767.53,700.05L768.11,700.05L768.68,700.05L769.26,700.05L769.83,700.05L770.41,700.05L770.98,700.05L771.56,700.05L772.13,700.05L772.71,700.05L773.29,700.05L773.86,700.05L774.44,700.05L775.01,700.05L775.59,700.05L776.16,700.05L776.74,700.05L777.31,700.05L777.89,700.05L778.46,700.05L779.04,700.05L779.62,700.05L780.19,700.1L780.77,700.1L781.34,700.1L781.92,700.1L782.49,700.1L783.07,700.1L783.64,700.1L784.22,700.1L784.79,700.1L785.37,700.1L785.95,700.1L786.52,700.1L787.1,700.1L787.67,700.1L788.25,700.1L788.82,700.1L789.4,700.1L789.97,700.1L790.55,700.1L791.12,700.1L791.7,700.1L792.28,700.1L792.85,700.1L793.43,700.1L794,700.1L794.58,700.1L795.15,700.1L795.73,700.1L796.3,700.1L796.88,700.1L797.45,700.1L798.03,700.1L798.61,700.1L799.18,700.1L799.76,700.1L800.33,700.1L800.91,700.1L801.48,700.1L802.06,700.1L802.63,700.1L803.21,700.1L803.78,700.1L804.36,700.1L804.94,700.1L805.51,700.1L806.09,700.1L806.66,700.1L807.24,700.1L807.81,700.1L808.39,700.1L808.96,700.1L809.54,700.1L810.11,700.1L810.69,700.1L811.27,700.1L811.84,700.1L812.42,700.1L812.99,700.1L813.57,700.1L814.14,700.1L814.72,700.1L815.29,700.1L815.87,700.1L816.44,700.1L817.02,700.1L817.6,700.1L818.17,700.1L818.75,700.1L819.32,700.1L819.9,700.1L820.47,700.1L821.05,700.1L821.62,700.1L822.2,700.1L822.77,700.1L823.35,700.1L823.93,700.1L824.5,700.1L825.08,700.1L825.65,700.1L826.23,700.1L826.8,700.1L827.38,700.1L827.95,700.1L828.53,700.1L829.1,700.1L829.68,700.1L830.26,700.1L830.83,700.1L831.41,700.1L831.98,700.1L832.56,700.1L833.13,700.1L833.71,700.1L834.28,700.1L834.86,700.1L835.43,700.1L836.01,700.1L836.59,700.1L837.16,700.1L837.74,700.1L838.31,700.1L838.89,700.1L839.46,700.1L840.04,700.1L840.61,700.1L841.19,700.1L841.76,700.1L842.34,700.1L842.92,700.1L843.49,700.1L844.07,700.1L844.64,700.1L845.22,700.1L845.79,700.1L846.37,700.1L846.94,700.1L847.52,700.1L848.09,700.1L848.67,700.1L849.25,700.1L849.82,700.1L850.4,700.1L850.97,700.1L851.55,700.1L852.12,700.1L852.7,700.1L853.27,700.1L853.85,700.1L854.42,700.1L855,700.1L855.57,700.1L856.15,700.1L856.73,700.1L857.3,700.1L857.88,700.1L858.45,700.1L859.03,700.1L859.6,700.1L860.18,700.1L860.75,700.1L861.33,700.1L861.9,700.1L862.48,700.1L863.06,700.1L863.63,700.1L864.21,700.1L864.78,700.1L865.36,700.1L865.93,700.1L866.51,700.1L867.08,700.1L867.66,700.1L868.23,700.1L868.81,700.1L869.39,700.1L869.96,700.1L870.54,700.1L871.11,700.1L871.69,700.1L872.26,700.1L872.84,700.1L873.41,700.1L873.99,700.1L874.56,700.1L875.14,700.1L875.72,700.1L876.29,700.32L876.87,700.32L877.44,700.32L878.02,700.32L878.59,700.32L879.17,700.32L879.74,700.32L880.32,700.32L880.89,700.32L881.47,700.32L882.05,700.32L882.62,700.32L883.2,700.32L883.77,700.32L884.35,700.32L884.92,700.32L885.5,700.32L886.07,700.32L886.65,700.32L887.22,700.32L887.8,700.32L888.38,700.32L888.95,700.32L889.53,700.32L890.1,700.32L890.68,700.32L891.25,700.32L891.83,700.32L892.4,700.32L892.98,700.32L893.55,700.32L894.13,700.32L894.71,700.32L895.28,700.32L895.86,700.32L896.43,700.32L897.01,700.32L897.58,700.32L898.16,700.32L898.73,700.32L899.31,700.32L899.88,700.32L900.46,700.32L901.04,700.32L901.61,700.32L902.19,700.32L902.76,700.32L903.34,700.32L903.91,700.32L904.49,700.32L905.06,700.32L905.64,700.32L906.21,700.32L906.79,700.32L907.37,700.32L907.94,700.32L908.52,700.32L909.09,700.32L909.67,700.32L910.24,700.32L910.82,700.32L911.39,700.32L911.97,700.32L912.54,700.32L913.12,700.32L913.7,700.32L914.27,700.32L914.85,700.32L915.42,700.32L916,700.32L916.57,700.32L917.15,700.32L917.72,700.32L918.3,700.32L918.87,700.32L919.45,700.32L920.03,700.32L920.6,700.32L921.18,700.32L921.75,700.32L922.33,700.32L922.9,700.32L923.48,700.32L924.05,700.32L924.63,700.32L925.2,700.32L925.78,700.32L926.36,700.32L926.93,700.32L927.51,700.32L928.08,700.32L928.66,700.32L929.23,700.32L929.81,700.32L930.38,700.32L930.96,700.32L931.53,700.32L932.11,700.32L932.69,700.32L933.26,700.32L933.84,700.32L934.41,700.32L934.99,700.32L935.56,700.32L936.14,700.32L936.71,700.32L937.29,700.32L937.86,700.32L938.44,700.32L939.02,700.32L939.59,700.75L940.17,700.75L940.74,700.75L941.32,700.75L941.89,700.75L942.47,700.75L943.04,700.75L943.62,700.75L944.19,700.75L944.77,700.75L945.34,700.75L945.92,700.75L946.5,700.75L947.07,700.75L947.65,700.75L948.22,700.75L948.8,700.75L949.37,700.75L949.95,700.75L950.52,700.75L951.1,700.75L951.67,700.75L952.25,700.75L952.83,700.75L953.4,700.75L953.98,700.75L954.55,700.75L955.13,700.75L955.7,700.75L956.28,700.75L956.85,700.75L957.43,700.75L958,700.75L958.58,700.75L959.16,700.75L959.73,700.75L960.31,700.75L960.88,700.75L961.46,700.75L962.03,700.75L962.61,700.75L963.18,700.75L963.76,700.75L964.33,700.75L964.91,700.75L965.49,700.75L966.06,700.75L966.64,700.75L967.21,700.75L967.79,700.75L968.36,700.75L968.94,700.75L969.51,700.75L970.09,700.75L970.66,700.75L971.24,700.75L971.82,700.75L972.39,700.75L972.97,700.75" style="fill:none;stroke:#F15A60;stroke-width:1.875" />
<path d="M67.786,48.06L68.361,418.4L68.937,468.99L69.512,469.54L70.087,469.76L70.663,474.71L71.238,482.04L71.814,482.09L72.389,489.05L72.965,489.21L73.54,494L74.116,494.22L74.691,497.25L75.266,497.31L75.842,499.5L76.417,499.5L76.993,499.5L77.568,499.5L78.144,499.5L78.719,499.5L79.295,500.21L79.87,500.21L80.446,500.27L81.021,500.27L81.596,500.27L82.172,500.27L82.747,500.27L83.323,500.27L83.898,500.27L84.474,500.27L85.049,500.27L85.625,500.27L86.2,500.27L86.775,500.27L87.351,500.27L87.926,500.27L88.502,500.54L89.077,500.54L89.653,500.54L90.228,500.54L90.804,500.54L91.379,500.54L91.954,500.54L92.53,500.54L93.105,500.54L93.681,501.46L94.256,501.52L94.832,501.52L95.407,501.52L95.983,501.52L96.558,501.52L97.134,501.52L97.709,501.52L98.284,501.52L98.86,501.52L99.435,501.52L100.01,501.52L100.59,501.52L101.16,508.84L101.74,508.84L102.31,508.84L102.89,509.67L103.46,509.67L104.04,509.67L104.61,509.67L105.19,510.25L105.77,510.25L106.34,510.68L106.92,510.68L107.49,510.68L108.07,512.34L108.64,513.22L109.22,513.22L109.79,515.97L110.37,515.97L110.94,515.97L111.52,515.97L112.1,516.45L112.67,516.45L113.25,516.62L113.82,517.57L114.4,519.22L114.97,519.22L115.55,519.22L116.12,519.22L116.7,519.22L117.27,519.26L117.85,520.37L118.43,520.37L119,520.37L119.58,522.18L120.15,523.99L120.73,523.99L121.3,523.99L121.88,523.99L122.45,523.99L123.03,525.37L123.6,525.37L124.18,525.37L124.76,526.19L125.33,526.19L125.91,526.22L126.48,526.22L127.06,526.22L127.63,526.22L128.21,526.22L128.78,526.22L129.36,526.22L129.93,526.22L130.51,526.27L131.09,526.27L131.66,526.27L132.24,526.27L132.81,526.27L133.39,526.27L133.96,526.27L134.54,526.27L135.11,526.27L135.69,526.27L136.26,526.27L136.84,526.27L137.41,526.27L137.99,526.27L138.57,528.99L139.14,528.99L139.72,528.99L140.29,529.03L140.87,529.03L141.44,529.03L142.02,529.03L142.59,529.03L143.17,529.03L143.74,529.03L144.32,529.03L144.9,529.08L145.47,529.08L146.05,529.08L146.62,529.08L147.2,529.08L147.77,529.08L148.35,529.08L148.92,529.08L149.5,529.08L150.07,529.08L150.65,529.13L151.23,529.13L151.8,529.13L152.38,529.15L152.95,529.15L153.53,529.16L154.1,529.16L154.68,529.16L155.25,529.16L155.83,529.16L156.4,529.16L156.98,529.16L157.56,529.16L158.13,529.16L158.71,529.16L159.28,529.16L159.86,529.16L160.43,529.16L161.01,529.16L161.58,529.16L162.16,529.16L162.73,529.16L163.31,529.16L163.89,529.16L164.46,529.16L165.04,529.16L165.61,529.16L166.19,529.16L166.76,529.16L167.34,529.16L167.91,529.16L168.49,529.16L169.06,529.16L169.64,529.16L170.22,529.16L170.79,529.16L171.37,529.16L171.94,529.16L172.52,529.16L173.09,529.16L173.67,529.16L174.24,529.16L174.82,529.16L175.39,529.16L175.97,529.16L176.55,529.16L177.12,529.16L177.7,529.16L178.27,529.16L178.85,529.16L179.42,529.16L180,529.16L180.57,529.16L181.15,529.16L181.72,529.16L182.3,529.16L182.88,531.6L183.45,531.6L184.03,531.6L184.6,531.6L185.18,531.6L185.75,531.6L186.33,531.6L186.9,531.6L187.48,531.6L188.05,531.6L188.63,531.6L189.21,531.6L189.78,531.6L190.36,531.6L190.93,531.6L191.51,531.6L192.08,531.6L192.66,531.6L193.23,531.6L193.81,535.64L194.38,535.7L194.96,535.7L195.54,535.7L196.11,535.7L196.69,535.7L197.26,535.7L197.84,535.7L198.41,535.7L198.99,535.7L199.56,535.7L200.14,535.7L200.71,535.7L201.29,535.7L201.87,535.7L202.44,535.7L203.02,535.7L203.59,535.7L204.17,535.7L204.74,535.7L205.32,535.7L205.89,535.7L206.47,535.7L207.04,535.7L207.62,535.7L208.2,535.7L208.77,535.7L209.35,535.7L209.92,535.7L210.5,535.7L211.07,535.7L211.65,535.7L212.22,535.7L212.8,535.7L213.37,535.7L213.95,535.7L214.53,535.7L215.1,535.7L215.68,535.7L216.25,535.7L216.83,535.7L217.4,535.7L217.98,535.7L218.55,535.7L219.13,535.7L219.7,535.7L220.28,535.7L220.86,535.7L221.43,535.7L222.01,535.7L222.58,535.7L223.16,535.7L223.73,535.7L224.31,535.7L224.88,535.7L225.46,535.7L226.03,535.7L226.61,535.7L227.18,535.7L227.76,535.7L228.34,535.7L228.91,535.7L229.49,535.7L230.06,535.7L230.64,535.7L231.21,535.7L231.79,535.7L232.36,535.7L232.94,535.7L233.51,536.17L234.09,536.17L234.67,536.17L235.24,536.17L235.82,536.17L236.39,536.17L236.97,538.15L237.54,538.15L238.12,538.15L238.69,538.15L239.27,538.15L239.84,538.15L240.42,538.16L241,538.16L241.57,538.16L242.15,538.16L242.72,538.16L243.3,538.16L243.87,538.16L244.45,538.16L245.02,538.16L245.6,538.16L246.17,538.16L246.75,538.16L247.33,538.16L247.9,538.16L248.48,538.16L249.05,538.16L249.63,538.16L250.2,538.16L250.78,538.16L251.35,538.16L251.93,538.16L252.5,538.16L253.08,538.16L253.66,538.16L254.23,538.16L254.81,538.16L255.38,538.16L255.96,538.16L256.53,538.16L257.11,538.16L257.68,538.16L258.26,538.16L258.83,538.16L259.41,538.16L259.99,538.16L260.56,538.16L261.14,538.2L261.71,538.2L262.29,538.2L262.86,538.2L263.44,538.2L264.01,538.2L264.59,538.2L265.16,538.2L265.74,538.2L266.32,538.2L266.89,538.2L267.47,538.2L268.04,538.2L268.62,538.2L269.19,538.2L269.77,538.2L270.34,538.2L270.92,538.2L271.49,538.2L272.07,538.2L272.65,538.2L273.22,538.2L273.8,538.2L274.37,538.2L274.95,538.2L275.52,538.2L276.1,538.2L276.67,538.2L277.25,538.2L277.82,538.2L278.4,538.2L278.98,538.2L279.55,538.2L280.13,538.2L280.7,538.2L281.28,538.2L281.85,538.2L282.43,538.2L283,538.2L283.58,538.2L284.15,538.2L284.73,538.2L285.31,538.2L285.88,538.2L286.46,538.2L287.03,538.2L287.61,538.2L288.18,538.2L288.76,538.2L289.33,538.2L289.91,538.2L290.48,538.2L291.06,538.2L291.64,538.2L292.21,538.2L292.79,538.2L293.36,538.2L293.94,538.2L294.51,538.2L295.09,538.2L295.66,538.2L296.24,538.2L296.81,538.2L297.39,538.2L297.97,538.2L298.54,538.2L299.12,538.2L299.69,538.2L300.27,538.2L300.84,538.2L301.42,538.2L301.99,538.2L302.57,538.2L303.14,538.2L303.72,538.2L304.3,538.2L304.87,538.2L305.45,538.2L306.02,538.2L306.6,538.2L307.17,538.2L307.75,538.2L308.32,538.2L308.9,538.2L309.47,538.2L310.05,538.2L310.63,538.2L311.2,539.87L311.78,539.87L312.35,539.87L312.93,539.87L313.5,539.87L314.08,539.87L314.65,539.87L315.23,539.87L315.8,539.87L316.38,539.87L316.95,539.87L317.53,539.87L318.11,539.87L318.68,539.87L319.26,539.87L319.83,539.87L320.41,539.87L320.98,539.87L321.56,539.8L322.13,539.8L322.71,539.77L323.28,539.74L323.86,539.74L324.44,539.74L325.01,539.74L325.59,539.74L326.16,539.74L326.74,539.74L327.31,539.74L327.89,539.74L328.46,539.74L329.04,539.74L329.61,539.74L330.19,539.74L330.77,539.74L331.34,539.74L331.92,539.74L332.49,539.74L333.07,539.74L333.64,539.74L334.22,539.74L334.79,539.74L335.37,539.74L335.94,539.74L336.52,539.74L337.1,539.74L337.67,539.74L338.25,539.74L338.82,539.74L339.4,539.74L339.97,539.74L340.55,539.74L341.12,539.74L341.7,539.74L342.27,539.74L342.85,539.74L343.43,539.74L344,539.74L344.58,539.74L345.15,539.74L345.73,539.74L346.3,539.74L346.88,539.74L347.45,539.74L348.03,539.74L348.6,539.74L349.18,539.74L349.76,539.74L350.33,539.74L350.91,539.74L351.48,539.74L352.06,539.74L352.63,539.74L353.21,539.74L353.78,539.74L354.36,539.74L354.93,539.74L355.51,539.74L356.09,539.74L356.66,539.74L357.24,539.74L357.81,539.74L358.39,539.74L358.96,539.74L359.54,539.74L360.11,539.74L360.69,539.74L361.26,539.74L361.84,539.74L362.42,539.74L362.99,539.74L363.57,539.74L364.14,539.74L364.72,539.74L365.29,539.74L365.87,539.74L366.44,539.74L367.02,539.74L367.59,539.74L368.17,539.74L368.75,539.74L369.32,539.74L369.9,539.74L370.47,539.74L371.05,539.74L371.62,539.74L372.2,539.74L372.77,539.74L373.35,539.74L373.92,539.74L374.5,539.74L375.08,539.74L375.65,539.74L376.23,539.74L376.8,539.74L377.38,539.74L377.95,539.74L378.53,539.74L379.1,539.74L379.68,539.74L380.25,539.74L380.83,539.74L381.41,539.74L381.98,539.74L382.56,539.74L383.13,539.74L383.71,539.74L384.28,539.74L384.86,539.74L385.43,539.74L386.01,539.74L386.58,539.74L387.16,539.74L387.74,539.74L388.31,539.74L388.89,539.74L389.46,539.74L390.04,539.74L390.61,539.74L391.19,539.74L391.76,539.74L392.34,539.74L392.91,539.74L393.49,539.74L394.07,539.74L394.64,539.74L395.22,539.74L395.79,539.74L396.37,539.74L396.94,539.74L397.52,539.74L398.09,539.74L398.67,539.74L399.24,539.74L399.82,539.74L400.4,539.74L400.97,539.74L401.55,539.74L402.12,539.74L402.7,539.74L403.27,539.74L403.85,539.74L404.42,539.74L405,539.74L405.57,539.74L406.15,539.74L406.72,539.74L407.3,539.74L407.88,539.74L408.45,539.7L409.03,539.7L409.6,542.77L410.18,543.14L410.75,543.14L411.33,543.14L411.9,543.14L412.48,543.14L413.05,543.14L413.63,543.19L414.21,543.19L414.78,543.19L415.36,543.19L415.93,543.19L416.51,543.19L417.08,543.19L417.66,543.19L418.23,543.19L418.81,543.19L419.38,543.19L419.96,543.19L420.54,543.19L421.11,543.19L421.69,543.19L422.26,543.19L422.84,543.19L423.41,543.19L423.99,543.19L424.56,543.19L425.14,543.19L425.71,543.19L426.29,543.19L426.87,543.19L427.44,543.19L428.02,543.19L428.59,543.19L429.17,543.19L429.74,543.19L430.32,543.19L430.89,543.2L431.47,543.2L432.04,543.2L432.62,543.2L433.2,543.2L433.77,543.2L434.35,543.2L434.92,543.2L435.5,543.2L436.07,543.2L436.65,543.2L437.22,543.2L437.8,543.2L438.37,543.2L438.95,543.2L439.53,543.2L440.1,543.2L440.68,543.2L441.25,543.2L441.83,543.2L442.4,543.2L442.98,543.2L443.55,543.2L444.13,543.2L444.7,543.2L445.28,543.2L445.86,543.2L446.43,543.2L447.01,543.2L447.58,543.2L448.16,543.25L448.73,543.25L449.31,543.25L449.88,543.25L450.46,543.25L451.03,543.25L451.61,543.25L452.19,543.25L452.76,543.25L453.34,543.25L453.91,543.25L454.49,543.25L455.06,543.25L455.64,543.25L456.21,543.25L456.79,543.25L457.36,543.25L457.94,543.25L458.52,543.25L459.09,543.25L459.67,543.25L460.24,543.25L460.82,543.25L461.39,543.25L461.97,543.25L462.54,543.25L463.12,543.25L463.69,543.25L464.27,543.25L464.85,543.25L465.42,543.25L466,543.25L466.57,543.25L467.15,543.25L467.72,543.25L468.3,543.25L468.87,543.25L469.45,543.25L470.02,543.25L470.6,543.25L471.18,543.25L471.75,543.25L472.33,543.25L472.9,543.25L473.48,543.25L474.05,543.31L474.63,543.31L475.2,543.31L475.78,543.31L476.35,543.31L476.93,543.31L477.51,543.31L478.08,543.31L478.66,543.31L479.23,543.35L479.81,543.35L480.38,543.35L480.96,543.35L481.53,543.35L482.11,543.35L482.68,543.35L483.26,543.35L483.84,543.35L484.41,543.35L484.99,543.63L485.56,543.63L486.14,544.37L486.71,544.37L487.29,544.37L487.86,544.37L488.44,544.37L489.01,544.37L489.59,544.37L490.17,544.37L490.74,544.37L491.32,544.37L491.89,544.37L492.47,544.37L493.04,544.37L493.62,544.37L494.19,544.31L494.77,544.36L495.34,544.36L495.92,544.36L496.49,544.36L497.07,544.36L497.65,544.36L498.22,544.36L498.8,544.36L499.37,544.36L499.95,544.36L500.52,544.36L501.1,544.36L501.67,544.36L502.25,544.36L502.82,544.36L503.4,544.36L503.98,544.36L504.55,544.36L505.13,544.36L505.7,544.36L506.28,544.36L506.85,544.36L507.43,544.36L508,544.36L508.58,544.36L509.15,544.36L509.73,544.36L510.31,544.36L510.88,544.36L511.46,544.36L512.03,544.36L512.61,544.36L513.18,544.36L513.76,544.36L514.33,544.36L514.91,544.36L515.48,544.36L516.06,544.36L516.64,544.36L517.21,544.36L517.79,544.36L518.36,544.36L518.94,544.36L519.51,544.36L520.09,544.36L520.66,544.36L521.24,544.41L521.81,544.41L522.39,544.41L522.97,544.41L523.54,544.41L524.12,544.41L524.69,544.41L525.27,544.41L525.84,544.41L526.42,544.41L526.99,544.41L527.57,544.41L528.14,544.41L528.72,544.41L529.3,544.41L529.87,544.41L530.45,544.41L531.02,544.41L531.6,544.41L532.17,544.41L532.75,544.41L533.32,544.41L533.9,544.41L534.47,544.41L535.05,544.41L535.63,544.41L536.2,544.41L536.78,544.41L537.35,544.41L537.93,544.41L538.5,544.41L539.08,544.41L539.65,544.41L540.23,544.41L540.8,544.41L541.38,544.41L541.96,544.41L542.53,544.41L543.11,544.41L543.68,544.41L544.26,544.41L544.83,544.41L545.41,544.41L545.98,544.41L546.56,544.41L547.13,544.41L547.71,544.41L548.29,544.41L548.86,544.41L549.44,544.41L550.01,544.41L550.59,544.41L551.16,544.41L551.74,544.41L552.31,544.41L552.89,544.41L553.46,544.41L554.04,544.41L554.62,544.41L555.19,544.41L555.77,544.41L556.34,544.41L556.92,544.41L557.49,544.41L558.07,544.41L558.64,544.41L559.22,544.41L559.79,544.41L560.37,544.41L560.95,544.41L561.52,544.41L562.1,544.41L562.67,544.41L563.25,544.41L563.82,544.41L564.4,544.41L564.97,544.41L565.55,544.41L566.12,544.41L566.7,544.41L567.28,544.41L567.85,544.41L568.43,544.41L569,544.41L569.58,544.41L570.15,544.41L570.73,544.41L571.3,544.41L571.88,544.41L572.45,544.41L573.03,544.41L573.61,544.41L574.18,544.41L574.76,544.41L575.33,544.41L575.91,544.41L576.48,544.41L577.06,544.41L577.63,544.41L578.21,544.41L578.78,544.41L579.36,544.41L579.94,544.41L580.51,544.41L581.09,544.41L581.66,544.41L582.24,544.41L582.81,544.41L583.39,544.41L583.96,544.41L584.54,544.41L585.11,544.41L585.69,544.41L586.26,544.41L586.84,544.41L587.42,544.41L587.99,544.41L588.57,544.41L589.14,544.41L589.72,544.41L590.29,544.41L590.87,544.41L591.44,544.41L592.02,544.41L592.59,544.41L593.17,544.41L593.75,544.41L594.32,544.41L594.9,544.41L595.47,544.41L596.05,544.41L596.62,544.41L597.2,544.41L597.77,544.41L598.35,544.41L598.92,544.41L599.5,544.41L600.08,544.41L600.65,544.41L601.23,544.41L601.8,544.41L602.38,544.41L602.95,544.41L603.53,544.41L604.1,544.41L604.68,544.41L605.25,544.41L605.83,544.41L606.41,544.41L606.98,544.41L607.56,544.41L608.13,544.41L608.71,544.41L609.28,544.41L609.86,544.41L610.43,544.41L611.01,544.41L611.58,544.41L612.16,544.41L612.74,544.41L613.31,544.41L613.89,544.41L614.46,544.41L615.04,544.41L615.61,544.41L616.19,544.41L616.76,544.41L617.34,544.41L617.91,544.41L618.49,544.41L619.07,544.41L619.64,544.41L620.22,544.41L620.79,544.41L621.37,544.41L621.94,544.41L622.52,544.41L623.09,544.41L623.67,544.41L624.24,544.41L624.82,544.41L625.4,544.41L625.97,544.41L626.55,544.41L627.12,544.41L627.7,544.41L628.27,544.41L628.85,544.41L629.42,544.41L630,544.41L630.57,544.41L631.15,544.41L631.73,544.41L632.3,544.41L632.88,544.41L633.45,544.41L634.03,544.41L634.6,544.41L635.18,544.41L635.75,544.41L636.33,544.41L636.9,544.41L637.48,544.41L638.06,544.41L638.63,544.41L639.21,544.41L639.78,544.41L640.36,544.41L640.93,544.41L641.51,544.41L642.08,544.41L642.66,544.41L643.23,544.41L643.81,544.41L644.39,544.41L644.96,544.41L645.54,544.41L646.11,544.41L646.69,544.41L647.26,544.41L647.84,544.41L648.41,544.41L648.99,544.41L649.56,544.41L650.14,544.41L650.72,544.41L651.29,544.41L651.87,544.41L652.44,544.41L653.02,544.41L653.59,544.41L654.17,544.41L654.74,544.41L655.32,544.41L655.89,544.41L656.47,544.41L657.05,544.41L657.62,544.41L658.2,544.41L658.77,544.41L659.35,544.41L659.92,544.41L660.5,544.41L661.07,544.41L661.65,544.41L662.22,544.41L662.8,544.41L663.38,544.41L663.95,544.41L664.53,544.41L665.1,544.41L665.68,544.41L666.25,544.41L666.83,544.41L667.4,544.4L667.98,544.4L668.55,544.38L669.13,544.38L669.71,544.38L670.28,544.38L670.86,544.38L671.43,544.38L672.01,544.38L672.58,544.38L673.16,544.38L673.73,544.38L674.31,544.38L674.88,544.38L675.46,544.38L676.03,544.38L676.61,544.38L677.19,544.38L677.76,544.38L678.34,544.38L678.91,544.38L679.49,544.38L680.06,544.38L680.64,544.38L681.21,544.38L681.79,544.38L682.36,544.38L682.94,544.38L683.52,544.43L684.09,544.43L684.67,544.43L685.24,544.43L685.82,544.43L686.39,544.43L686.97,544.43L687.54,544.43L688.12,544.43L688.69,544.43L689.27,544.43L689.85,544.43L690.42,544.43L691,544.43L691.57,544.43L692.15,544.43L692.72,544.43L693.3,544.43L693.87,544.43L694.45,544.43L695.02,544.43L695.6,544.43L696.18,544.86L696.75,544.86L697.33,544.86L697.9,544.86L698.48,544.86L699.05,544.86L699.63,544.86L700.2,544.86L700.78,544.86L701.35,544.86L701.93,544.86L702.51,544.86L703.08,544.86L703.66,544.86L704.23,544.86L704.81,544.86L705.38,544.86L705.96,544.86L706.53,544.86L707.11,544.86L707.68,544.86L708.26,544.86L708.84,544.86L709.41,544.86L709.99,544.86L710.56,544.86L711.14,544.86L711.71,544.86L712.29,544.86L712.86,544.86L713.44,544.86L714.01,544.86L714.59,544.86L715.17,544.86L715.74,544.86L716.32,544.86L716.89,544.86L717.47,544.86L718.04,544.86L718.62,544.86L719.19,544.86L719.77,544.86L720.34,544.86L720.92,544.86L721.5,544.86L722.07,544.86L722.65,544.86L723.22,544.86L723.8,544.86L724.37,544.86L724.95,544.86L725.52,544.86L726.1,544.86L726.67,544.86L727.25,544.86L727.83,544.86L728.4,544.86L728.98,544.86L729.55,544.86L730.13,544.86L730.7,544.86L731.28,544.86L731.85,544.86L732.43,544.86L733,544.86L733.58,544.86L734.16,544.86L734.73,544.86L735.31,544.86L735.88,544.86L736.46,544.86L737.03,544.86L737.61,544.86L738.18,544.86L738.76,544.86L739.33,544.86L739.91,544.86L740.49,544.86L741.06,544.86L741.64,544.86L742.21,544.86L742.79,544.86L743.36,544.86L743.94,544.86L744.51,544.86L745.09,544.86L745.66,544.86L746.24,544.86L746.82,544.86L747.39,544.86L747.97,544.86L748.54,544.86L749.12,544.86L749.69,544.86L750.27,544.86L750.84,544.86L751.42,544.86L751.99,544.86L752.57,544.86L753.15,544.86L753.72,544.86L754.3,544.86L754.87,544.86L755.45,544.86L756.02,544.86L756.6,544.86L757.17,544.86L757.75,544.86L758.32,544.86L758.9,544.86L759.48,544.86L760.05,544.86L760.63,544.86L761.2,544.86L761.78,544.86L762.35,544.86L762.93,544.86L763.5,544.86L764.08,544.86L764.65,544.86L765.23,544.86L765.8,544.86L766.38,544.86L766.96,544.86L767.53,544.86L768.11,544.86L768.68,544.86L769.26,544.86L769.83,544.86L770.41,544.86L770.98,544.86L771.56,544.86L772.13,544.86L772.71,544.86L773.29,544.86L773.86,544.86L774.44,544.86L775.01,544.86L775.59,544.86L776.16,544.86L776.74,544.86L777.31,544.86L777.89,544.86L778.46,544.86L779.04,544.86L779.62,544.86L780.19,544.86L780.77,544.86L781.34,544.86L781.92,544.86L782.49,544.86L783.07,544.86L783.64,544.86L784.22,544.86L784.79,544.86L785.37,544.86L785.95,544.86L786.52,544.86L787.1,544.86L787.67,544.86L788.25,544.86L788.82,544.86L789.4,544.86L789.97,544.86L790.55,544.86L791.12,544.86L791.7,544.86L792.28,544.86L792.85,544.86L793.43,544.86L794,544.86L794.58,544.86L795.15,544.86L795.73,544.86L796.3,544.86L796.88,544.86L797.45,544.86L798.03,544.86L798.61,544.86L799.18,544.86L799.76,544.86L800.33,544.86L800.91,544.86L801.48,544.86L802.06,544.86L802.63,544.86L803.21,544.86L803.78,544.86L804.36,544.86L804.94,544.86L805.51,544.86L806.09,544.86L806.66,544.86L807.24,544.86L807.81,544.86L808.39,544.86L808.96,544.86L809.54,544.86L810.11,544.86L810.69,544.86L811.27,544.86L811.84,544.86L812.42,544.86L812.99,544.86L813.57,544.86L814.14,544.86L814.72,544.86L815.29,544.86L815.87,544.86L816.44,544.86L817.02,544.86L817.6,544.86L818.17,544.86L818.75,544.86L819.32,544.86L819.9,544.86L820.47,544.86L821.05,544.86L821.62,544.86L822.2,544.86L822.77,544.86L823.35,544.86L823.93,544.86L824.5,544.86L825.08,544.86L825.65,544.86L826.23,544.86L826.8,544.86L827.38,544.86L827.95,544.86L828.53,544.86L829.1,544.86L829.68,544.86L830.26,544.86L830.83,544.86L831.41,544.86L831.98,544.86L832.56,544.86L833.13,544.86L833.71,544.86L834.28,544.86L834.86,544.86L835.43,544.86L836.01,544.86L836.59,544.86L837.16,544.92L837.74,544.92L838.31,544.92L838.89,544.92L839.46,544.92L840.04,544.92L840.61,544.92L841.19,544.92L841.76,544.92L842.34,544.92L842.92,544.92L843.49,544.92L844.07,544.92L844.64,544.92L845.22,544.92L845.79,544.92L846.37,544.92L846.94,544.92L847.52,544.92L848.09,544.92L848.67,544.92L849.25,544.92L849.82,544.92L850.4,544.92L850.97,544.92L851.55,544.92L852.12,544.92L852.7,544.92L853.27,544.92L853.85,544.92L854.42,544.92L855,544.92L855.57,544.92L856.15,544.92L856.73,544.92L857.3,544.92L857.88,544.92L858.45,544.92L859.03,544.92L859.6,544.92L860.18,544.92L860.75,544.92L861.33,544.92L861.9,544.92L862.48,544.92L863.06,544.92L863.63,544.92L864.21,544.92L864.78,544.97L865.36,544.97L865.93,544.97L866.51,544.97L867.08,544.97L867.66,544.97L868.23,544.97L868.81,544.97L869.39,544.97L869.96,544.97L870.54,544.97L871.11,544.97L871.69,544.97L872.26,544.97L872.84,544.97L873.41,544.97L873.99,544.97L874.56,544.97L875.14,544.97L875.72,544.97L876.29,544.97L876.87,544.97L877.44,544.97L878.02,544.97L878.59,544.97L879.17,544.97L879.74,544.97L880.32,544.97L880.89,544.97L881.47,544.97L882.05,544.97L882.62,544.97L883.2,544.97L883.77,544.97L884.35,544.97L884.92,544.97L885.5,544.97L886.07,544.97L886.65,544.97L887.22,544.97L887.8,544.97L888.38,544.97L888.95,544.97L889.53,544.97L890.1,544.97L890.68,544.97L891.25,544.97L891.83,544.97L892.4,544.97L892.98,544.97L893.55,544.97L894.13,544.97L894.71,544.97L895.28,544.97L895.86,544.97L896.43,544.97L897.01,544.97L897.58,544.97L898.16,544.97L898.73,544.97L899.31,544.97L899.88,544.97L900.46,544.97L901.04,544.97L901.61,544.97L902.19,544.97L902.76,544.97L903.34,544.97L903.91,544.97L904.49,544.97L905.06,544.97L905.64,544.97L906.21,544.97L906.79,544.97L907.37,544.97L907.94,544.97L908.52,544.97L909.09,544.97L909.67,544.97L910.24,544.97L910.82,544.97L911.39,544.97L911.97,544.97L912.54,544.97L913.12,544.97L913.7,544.97L914.27,544.97L914.85,544.97L915.42,544.97L916,544.97L916.57,544.97L917.15,544.97L917.72,544.97L918.3,544.97L918.87,544.97L919.45,544.97L920.03,544.97L920.6,544.97L921.18,544.97L921.75,544.97L922.33,544.97L922.9,544.97L923.48,544.97L924.05,544.97L924.63,544.97L925.2,544.97L925.78,544.97L926.36,544.96L926.93,544.96L927.51,544.96L928.08,544.96L928.66,544.96L929.23,544.96L929.81,544.96L930.38,544.96L930.96,544.96L931.53,544.96L932.11,544.96L932.69,544.96L933.26,544.96L933.84,544.96L934.41,544.96L934.99,544.96L935.56,544.96L936.14,544.96L936.71,544.96L937.29,544.96L937.86,544.96L938.44,544.96L939.02,544.96L939.59,544.96L940.17,544.96L940.74,544.96L941.32,544.96L941.89,544.96L942.47,544.96L943.04,544.96L943.62,544.96L944.19,544.96L944.77,544.96L945.34,544.96L945.92,544.96L946.5,544.96L947.07,549.94L947.65,549.98L948.22,549.98L948.8,549.98L949.37,549.98L949.95,550.04L950.52,550.04L951.1,550.04L951.67,550.04L952.25,550.04L952.83,550.04L953.4,550.04L953.98,550.04L954.55,550.04L955.13,550.04L955.7,550.04L956.28,550.04L956.85,550.04L957.43,550.04L958,550.04L958.58,550.04L959.16,550.04L959.73,550.04L960.31,550.04L960.88,550.04L961.46,550.04L962.03,550.04L962.61,550.04L963.18,550.04L963.76,550.04L964.33,550.04L964.91,550.04L965.49,550.04L966.06,550.04L966.64,550.04L967.21,550.04L967.79,550.04L968.36,550.04L968.94,550.04L969.51,550.04L970.09,550.04L970.66,550.04L971.24,550.04L971.82,550.04L972.39,550.04L972.97,550.04L973.54,550.04L974.12,550.04L974.69,550.04L975.27,550.04L975.84,550.04L976.42,550.04L976.99,550.04L977.57,550.04L978.15,550.04L978.72,550.04L979.3,550.04L979.87,550.04L980.45,550.04L981.02,550.04L981.6,550.04L982.17,550.04L982.75,550.04L983.32,550.04L983.9,550.04L984.48,550.04L985.05,550.04L985.63,550.04L986.2,550.04L986.78,550.04L987.35,550.04L987.93,550.04L988.5,550.04L989.08,550.04L989.65,550.04L990.23,550.04L990.81,550.04L991.38,550.04L991.96,550.04L992.53,550.04L993.11,550.04L993.68,550.04L994.26,550.04L994.83,550.04L995.41,550.04L995.98,550.04L996.56,550.04L997.14,550.04L997.71,550.04L998.29,550.04L998.86,550.04L999.44,550.04L1000,550.04L1000.6,550.04L1001.2,550.04L1001.7,550.04L1002.3,550.04L1002.9,550.04L1003.5,550.04L1004,550.04L1004.6,550.04L1005.2,550.04L1005.8,550.04L1006.3,550.04L1006.9,550.04L1007.5,550.04L1008.1,550.04L1008.6,550.04L1009.2,550.04L1009.8,550.04L1010.4,550.04L1010.9,550.04L1011.5,550.04L1012.1,550.04L1012.7,550.03L1013.2,550.03L1013.8,550.01L1014.4,550.01L1015,550.01L1015.5,550.01L1016.1,550.01L1016.7,550.01L1017.3,550.01L1017.9,550.01L1018.4,550.01L1019,550.01L1019.6,550.01L1020.2,550.01L1020.7,550.01L1021.3,550.01L1021.9,550.01L1022.5,550.01L1023,550.01L1023.6,550.01L1024.2,550.01L1024.8,550.01L1025.3,550.01L1025.9,550.01L1026.5,550.01L1027.1,550.01L1027.6,550.01L1028.2,550.01L1028.8,550.01L1029.4,550.01L1029.9,550.01L1030.5,550.01L1031.1,550.01L1031.7,550.01L1032.2,550.01L1032.8,550.01L1033.4,550.01L1034,550.01L1034.5,550.01L1035.1,550.01L1035.7,550.01L1036.3,550.01L1036.8,550.01L1037.4,550.01L1038,550.01L1038.6,550.01L1039.1,550.01L1039.7,550.01L1040.3,550.01L1040.9,550.01L1041.4,550.01L1042,550.01L1042.6,550.01L1043.2,550.01L1043.7,550.01L1044.3,550.01L1044.9,550.01L1045.5,550.01L1046,550.01L1046.6,550.01L1047.2,550.01L1047.8,550.01L1048.4,550.01L1048.9,550.01L1049.5,550.01L1050.1,550.01L1050.7,550.01L1051.2,550.01L1051.8,550.01L1052.4,550.01L1053,550.01L1053.5,550.01L1054.1,550.01L1054.7,550.01L1055.3,550.01L1055.8,550.01L1056.4,550.01L1057,550.01L1057.6,550.01L1058.1,550.01L1058.7,550.01L1059.3,550.01L1059.9,550.01L1060.4,550.01L1061,550.01L1061.6,550.01L1062.2,550.01L1062.7,550.01L1063.3,550.01L1063.9,550.01L1064.5,550.01L1065,550.01L1065.6,550.01L1066.2,550.01L1066.8,550.01L1067.3,550.01L1067.9,550.01L1068.5,550.01L1069.1,550.01L1069.6,550.01L1070.2,550.01L1070.8,550.01L1071.4,550.01L1071.9,550.01L1072.5,550.01L1073.1,550.01L1073.7,550.01L1074.2,550.01L1074.8,550.01L1075.4,550.01L1076,550.01L1076.5,550.01L1077.1,550.01L1077.7,550.01L1078.3,550.01L1078.8,550.01L1079.4,550.01L1080,550.01" style="fill:none;stroke:#7AC36A;stroke-width:1.875;stroke-dasharray:7.5,2.5" />
<path d="M1055,693.4L1080,693.4" style="fill:none;stroke:#F15A60;stroke-width:1.875" />
<text x="882.43" y="-686.35" transform="scale(1, -1)"
	style="font-family:Helvetica;font-weight:normal;font-style:normal;font-size:12pt">etcd v3 (no compression)</text>
<path d="M1055,678.7L1080,678.7" style="fill:none;stroke:#7AC36A;stroke-width:1.875;stroke-dasharray:7.5,2.5" />
<text x="937.44" y="-671.65" transform="scale(1, -1)"
	style="font-family:Helvetica;font-weight:normal;font-style:normal;font-size:12pt">etcd v3 (Snappy)</text>
</g>
</svg>
