<?xml version="1.0"?>
<!-- Generated by SVGo and Plotinum VG -->
<svg width="12in" height="8in"
	xmlns="http://www.w3.org/2000/svg"
	xmlns:xlink="http://www.w3.org/1999/xlink">
<g transform="scale(1, -1) translate(0, -720)">
<path d="M0,0L1080,0L1080,720L0,720Z" style="fill:#FFFFFF" />
<text x="289.19" y="-705.6" transform="scale(1, -1)"
	style="font-family:Helvetica;font-weight:normal;font-style:normal;font-size:12pt">Read 2M keys, 1000-client, 700-conn, 8-byte same key, 1.3 MB value, CPU</text>
<text x="544.98" y="-4.8486" transform="scale(1, -1)"
	style="font-family:Helvetica;font-weight:normal;font-style:normal;font-size:12pt">Second</text>
<text x="57.358" y="-19.498" transform="scale(1, -1)"
	style="font-family:Helvetica;font-weight:normal;font-style:normal;font-size:10pt">0</text>
<text x="340.11" y="-19.498" transform="scale(1, -1)"
	style="font-family:Helvetica;font-weight:normal;font-style:normal;font-size:10pt">500</text>
<text x="626.33" y="-19.498" transform="scale(1, -1)"
	style="font-family:Helvetica;font-weight:normal;font-style:normal;font-size:10pt">1000</text>
<text x="916.03" y="-19.498" transform="scale(1, -1)"
	style="font-family:Helvetica;font-weight:normal;font-style:normal;font-size:10pt">1500</text>
<path d="M60.834,31.498L60.834,41.498" style="fill:none;stroke:#000000;stroke-width:0.625" />
<path d="M350.53,31.498L350.53,41.498" style="fill:none;stroke:#000000;stroke-width:0.625" />
<path d="M640.23,31.498L640.23,41.498" style="fill:none;stroke:#000000;stroke-width:0.625" />
<path d="M929.94,31.498L929.94,41.498" style="fill:none;stroke:#000000;stroke-width:0.625" />
<path d="M118.77,36.498L118.77,41.498" style="fill:none;stroke:#000000;stroke-width:0.625" />
<path d="M176.71,36.498L176.71,41.498" style="fill:none;stroke:#000000;stroke-width:0.625" />
<path d="M234.65,36.498L234.65,41.498" style="fill:none;stroke:#000000;stroke-width:0.625" />
<path d="M292.59,36.498L292.59,41.498" style="fill:none;stroke:#000000;stroke-width:0.625" />
<path d="M408.47,36.498L408.47,41.498" style="fill:none;stroke:#000000;stroke-width:0.625" />
<path d="M466.41,36.498L466.41,41.498" style="fill:none;stroke:#000000;stroke-width:0.625" />
<path d="M524.35,36.498L524.35,41.498" style="fill:none;stroke:#000000;stroke-width:0.625" />
<path d="M582.29,36.498L582.29,41.498" style="fill:none;stroke:#000000;stroke-width:0.625" />
<path d="M698.17,36.498L698.17,41.498" style="fill:none;stroke:#000000;stroke-width:0.625" />
<path d="M756.11,36.498L756.11,41.498" style="fill:none;stroke:#000000;stroke-width:0.625" />
<path d="M814.05,36.498L814.05,41.498" style="fill:none;stroke:#000000;stroke-width:0.625" />
<path d="M872,36.498L872,41.498" style="fill:none;stroke:#000000;stroke-width:0.625" />
<path d="M987.88,36.498L987.88,41.498" style="fill:none;stroke:#000000;stroke-width:0.625" />
<path d="M1045.8,36.498L1045.8,41.498" style="fill:none;stroke:#000000;stroke-width:0.625" />
<path d="M60.834,41.498L1080,41.498" style="fill:none;stroke:#000000;stroke-width:0.625" />
<g transform="rotate(90)">
<text x="358.57" y="14.399" transform="scale(1, -1)"
	style="font-family:Helvetica;font-weight:normal;font-style:normal;font-size:12pt">CPU</text>
</g>
<text x="19.248" y="-143.47" transform="scale(1, -1)"
	style="font-family:Helvetica;font-weight:normal;font-style:normal;font-size:10pt">100</text>
<text x="19.248" y="-294.67" transform="scale(1, -1)"
	style="font-family:Helvetica;font-weight:normal;font-style:normal;font-size:10pt">200</text>
<text x="19.248" y="-445.86" transform="scale(1, -1)"
	style="font-family:Helvetica;font-weight:normal;font-style:normal;font-size:10pt">300</text>
<text x="19.248" y="-597.05" transform="scale(1, -1)"
	style="font-family:Helvetica;font-weight:normal;font-style:normal;font-size:10pt">400</text>
<path d="M43.577,149.35L53.577,149.35" style="fill:none;stroke:#000000;stroke-width:0.625" />
<path d="M43.577,300.54L53.577,300.54" style="fill:none;stroke:#000000;stroke-width:0.625" />
<path d="M43.577,451.73L53.577,451.73" style="fill:none;stroke:#000000;stroke-width:0.625" />
<path d="M43.577,602.93L53.577,602.93" style="fill:none;stroke:#000000;stroke-width:0.625" />
<path d="M48.577,73.748L53.577,73.748" style="fill:none;stroke:#000000;stroke-width:0.625" />
<path d="M48.577,224.94L53.577,224.94" style="fill:none;stroke:#000000;stroke-width:0.625" />
<path d="M48.577,376.14L53.577,376.14" style="fill:none;stroke:#000000;stroke-width:0.625" />
<path d="M48.577,527.33L53.577,527.33" style="fill:none;stroke:#000000;stroke-width:0.625" />
<path d="M48.577,678.53L53.577,678.53" style="fill:none;stroke:#000000;stroke-width:0.625" />
<path d="M53.577,48.06L53.577,700.75" style="fill:none;stroke:#000000;stroke-width:0.625" />
<path d="M60.834,48.06L61.413,66.309L61.993,97.35L62.572,126.09L63.151,153.2L63.731,177.47L64.31,196.19L64.89,212.33L65.469,226.74L66.048,239.65L66.628,251.87L67.207,262.03L67.787,271.86L68.366,279.96L68.945,286.96L69.525,292.19L70.104,301.43L70.684,308.27L71.263,315.42L71.842,321.86L72.422,326.71L73.001,330.28L73.581,333.67L74.16,336.48L74.739,339.73L75.319,343.36L75.898,347.02L76.478,350.48L77.057,353.43L77.636,356.19L78.216,359.11L78.795,361.88L79.375,364.6L79.954,366.9L80.533,369.21L81.113,371.31L81.692,373.2L82.272,374.85L82.851,376.49L83.43,378.31L84.01,379.66L84.589,381.46L85.169,383.12L85.748,384.65L86.327,386.12L86.907,387.73L87.486,389.14L88.066,390.24L88.645,391.42L89.224,392.75L89.804,393.99L90.383,395.05L90.963,395.79L91.542,396.61L92.121,397.5L92.701,398.39L93.28,399.09L93.86,399.78L94.439,400.71L95.018,401.34L95.598,401.78L96.177,402.05L96.757,402.88L97.336,403.59L97.915,404.3L98.495,404.8L99.074,405.44L99.654,405.88L100.23,406.54L100.81,407.12L101.39,407.37L101.97,408.11L102.55,408.83L103.13,409.49L103.71,410.16L104.29,410.87L104.87,411.38L105.45,411.99L106.03,412.62L106.61,413.26L107.19,413.68L107.77,414.18L108.34,414.81L108.92,415.19L109.5,415.49L110.08,415.95L110.66,416.58L111.24,416.93L111.82,417.37L112.4,417.82L112.98,418.23L113.56,418.73L114.14,419.24L114.72,419.62L115.3,420.09L115.88,420.56L116.46,421.03L117.04,421.33L117.62,421.78L118.19,422.15L118.77,422.43L119.35,422.77L119.93,423.33L120.51,423.64L121.09,424.02L121.67,424.41L122.25,424.85L122.83,425.02L123.41,425.2L123.99,425.47L124.57,425.8L125.15,426L125.73,426.27L126.31,426.64L126.89,427.1L127.46,427.47L128.04,427.89L128.62,428.33L129.2,428.93L129.78,429.48L130.36,429.93L130.94,430.39L131.52,430.78L132.1,431.32L132.68,431.78L133.26,432.09L133.84,432.31L134.42,432.47L135,432.71L135.58,432.84L136.16,433.02L136.74,433.2L137.31,433.39L137.89,433.55L138.47,433.82L139.05,433.98L139.63,434.21L140.21,434.33L140.79,434.44L141.37,434.6L141.95,434.79L142.53,434.95L143.11,435.12L143.69,435.16L144.27,435.24L144.85,435.36L145.43,435.56L146.01,435.69L146.59,435.84L147.16,436.04L147.74,436.22L148.32,436.28L148.9,436.48L149.48,436.6L150.06,436.71L150.64,436.9L151.22,437.05L151.8,437.11L152.38,437.3L152.96,437.45L153.54,437.52L154.12,437.61L154.7,437.64L155.28,437.72L155.86,437.81L156.43,437.99L157.01,438.23L157.59,438.34L158.17,438.43L158.75,438.6L159.33,438.81L159.91,438.9L160.49,439.09L161.07,439.2L161.65,439.34L162.23,439.53L162.81,439.62L163.39,439.76L163.97,439.96L164.55,440.14L165.13,440.27L165.71,440.39L166.28,440.52L166.86,440.71L167.44,440.86L168.02,440.98L168.6,441.09L169.18,441.18L169.76,441.32L170.34,441.51L170.92,441.63L171.5,441.77L172.08,441.95L172.66,442.09L173.24,442.21L173.82,442.39L174.4,442.47L174.98,442.56L175.56,442.66L176.13,442.72L176.71,442.83L177.29,442.95L177.87,443.03L178.45,443.04L179.03,443.09L179.61,443.18L180.19,443.25L180.77,443.39L181.35,443.52L181.93,443.6L182.51,443.63L183.09,443.69L183.67,443.77L184.25,443.87L184.83,443.89L185.4,444.01L185.98,444.08L186.56,444.27L187.14,444.42L187.72,444.55L188.3,444.75L188.88,444.87L189.46,445.08L190.04,445.34L190.62,445.44L191.2,445.54L191.78,445.61L192.36,445.61L192.94,445.7L193.52,445.82L194.1,445.85L194.68,445.93L195.25,446.05L195.83,446.16L196.41,446.22L196.99,446.25L197.57,446.25L198.15,446.37L198.73,446.41L199.31,446.44L199.89,446.47L200.47,446.47L201.05,446.5L201.63,446.58L202.21,446.62L202.79,446.65L203.37,446.76L203.95,446.79L204.53,446.82L205.1,446.96L205.68,447.09L206.26,447.21L206.84,447.33L207.42,447.52L208,447.68L208.58,447.83L209.16,447.98L209.74,448.09L210.32,448.29L210.9,448.44L211.48,448.47L212.06,448.5L212.64,448.5L213.22,448.51L213.8,448.51L214.37,448.59L214.95,448.6L215.53,448.67L216.11,448.7L216.69,448.76L217.27,448.85L217.85,448.88L218.43,448.94L219.01,449.03L219.59,449.06L220.17,449.13L220.75,449.13L221.33,449.15L221.91,449.21L222.49,449.27L223.07,449.27L223.65,449.25L224.22,449.29L224.8,449.32L225.38,449.35L225.96,449.45L226.54,449.51L227.12,449.5L227.7,449.51L228.28,449.59L228.86,449.65L229.44,449.71L230.02,449.74L230.6,449.78L231.18,449.8L231.76,449.8L232.34,449.83L232.92,449.78L233.5,449.78L234.07,449.83L234.65,449.8L235.23,449.77L235.81,449.78L236.39,449.8L236.97,449.91L237.55,450L238.13,450.07L238.71,450.12L239.29,450.15L239.87,450.19L240.45,450.25L241.03,450.28L241.61,450.3L242.19,450.34L242.77,450.39L243.35,450.43L243.92,450.49L244.5,450.54L245.08,450.56L245.66,450.66L246.24,450.71L246.82,450.74L247.4,450.75L247.98,450.72L248.56,450.69L249.14,450.69L249.72,450.74L250.3,450.77L250.88,450.78L251.46,450.81L252.04,450.84L252.62,450.83L253.19,450.86L253.77,450.86L254.35,450.84L254.93,450.86L255.51,450.93L256.09,450.96L256.67,450.96L257.25,450.96L257.83,450.96L258.41,451.01L258.99,451.11L259.57,451.08L260.15,451.04L260.73,450.92L261.31,450.89L261.89,450.86L262.47,450.83L263.04,450.83L263.62,450.8L264.2,450.75L264.78,450.72L265.36,450.68L265.94,450.65L266.52,450.62L267.1,450.59L267.68,450.56L268.26,450.54L268.84,450.53L269.42,450.51L270,450.48L270.58,450.53L271.16,450.57L271.74,450.56L272.32,450.57L272.89,450.6L273.47,450.6L274.05,450.62L274.63,450.69L275.21,450.71L275.79,450.74L276.37,450.75L276.95,450.72L277.53,450.75L278.11,450.78L278.69,450.83L279.27,450.81L279.85,450.8L280.43,450.84L281.01,450.83L281.59,450.78L282.16,450.78L282.74,450.77L283.32,450.74L283.9,450.74L284.48,450.78L285.06,450.81L285.64,450.78L286.22,450.68L286.8,450.49L287.38,450.39L287.96,450.28L288.54,450.18L289.12,450.18L289.7,450.13L290.28,450.06L290.86,450.06L291.44,449.98L292.01,449.95L292.59,449.86L293.17,449.75L293.75,449.69L294.33,449.65L294.91,449.56L295.49,449.44L296.07,449.27L296.65,449.1L297.23,448.95L297.81,448.83L298.39,448.7L298.97,448.57L299.55,448.53L300.13,448.42L300.71,448.41L301.29,448.35L301.86,448.27L302.44,448.18L303.02,448.11L303.6,448.06L304.18,448.03L304.76,447.98L305.34,447.94L305.92,447.88L306.5,447.8L307.08,447.67L307.66,447.59L308.24,447.5L308.82,447.43L309.4,447.27L309.98,447.17L310.56,447.09L311.13,447.02L311.71,446.94L312.29,446.91L312.87,446.9L313.45,446.85L314.03,446.78L314.61,446.75L315.19,446.64L315.77,446.53L316.35,446.5L316.93,446.44L317.51,446.35L318.09,446.26L318.67,446.17L319.25,446.13L319.83,446.05L320.41,445.96L320.98,445.87L321.56,445.76L322.14,445.63L322.72,445.51L323.3,445.4L323.88,445.32L324.46,445.22L325.04,445.11L325.62,445.08L326.2,445.07L326.78,444.99L327.36,444.95L327.94,444.92L328.52,444.81L329.1,444.76L329.68,444.64L330.26,444.57L330.83,444.48L331.41,444.4L331.99,444.33L332.57,444.27L333.15,444.21L333.73,444.17L334.31,444.13L334.89,444.1L335.47,444.01L336.05,443.98L336.63,443.95L337.21,443.95L337.79,443.89L338.37,443.84L338.95,443.77L339.53,443.71L340.1,443.66L340.68,443.6L341.26,443.51L341.84,443.42L342.42,443.34L343,443.28L343.58,443.24L344.16,443.13L344.74,443.03L345.32,442.94L345.9,442.8L346.48,442.72L347.06,442.68L347.64,442.63L348.22,442.54L348.8,442.5L349.38,442.47L349.95,442.44L350.53,442.36L351.11,442.3L351.69,442.3L352.27,442.3L352.85,442.33L353.43,442.36L354.01,442.38L354.59,442.35L355.17,442.3L355.75,442.32L356.33,442.32L356.91,442.27L357.49,442.24L358.07,442.22L358.65,442.22L359.23,442.21L359.8,442.18L360.38,442.15L360.96,442.15L361.54,442.12L362.12,442.09L362.7,442.06L363.28,442.04L363.86,442.04L364.44,442.04L365.02,442.03L365.6,441.97L366.18,441.92L366.76,441.85L367.34,441.8L367.92,441.76L368.5,441.71L369.08,441.68L369.65,441.6L370.23,441.57L370.81,441.53L371.39,441.48L371.97,441.42L372.55,441.39L373.13,441.33L373.71,441.32L374.29,441.27L374.87,441.18L375.45,441.2L376.03,441.15L376.61,441.11L377.19,441.03L377.77,441L378.35,440.94L378.92,440.91L379.5,440.88L380.08,440.91L380.66,440.91L381.24,440.91L381.82,440.92L382.4,440.94L382.98,440.92L383.56,440.92L384.14,440.91L384.72,440.89L385.3,440.88L385.88,440.85L386.46,440.77L387.04,440.71L387.62,440.64L388.2,440.56L388.77,440.52L389.35,440.47L389.93,440.41L390.51,440.33L391.09,440.26L391.67,440.21L392.25,440.14L392.83,440.11L393.41,440.08L393.99,440.05L394.57,440.03L395.15,439.96L395.73,439.94L396.31,439.91L396.89,439.88L397.47,439.88L398.05,439.84L398.62,439.81L399.2,439.71L399.78,439.68L400.36,439.68L400.94,439.62L401.52,439.55L402.1,439.49L402.68,439.44L403.26,439.4L403.84,439.35L404.42,439.32L405,439.25L405.58,439.22L406.16,439.14L406.74,439.08L407.32,439.02L407.89,438.99L408.47,438.9L409.05,438.82L409.63,438.79L410.21,438.75L410.79,438.69L411.37,438.67L411.95,438.64L412.53,438.6L413.11,438.55L413.69,438.52L414.27,438.46L414.85,438.41L415.43,438.35L416.01,438.31L416.59,438.26L417.17,438.25L417.74,438.25L418.32,438.22L418.9,438.22L419.48,438.19L420.06,438.13L420.64,438.11L421.22,438.07L421.8,438.05L422.38,438.02L422.96,437.99L423.54,437.96L424.12,437.92L424.7,437.85L425.28,437.82L425.86,437.78L426.44,437.73L427.02,437.7L427.59,437.66L428.17,437.61L428.75,437.6L429.33,437.6L429.91,437.57L430.49,437.55L431.07,437.55L431.65,437.52L432.23,437.48L432.81,437.45L433.39,437.4L433.97,437.37L434.55,437.34L435.13,437.3L435.71,437.28L436.29,437.24L436.86,437.17L437.44,437.17L438.02,437.14L438.6,437.08L439.18,437.05L439.76,437.01L440.34,436.95L440.92,436.89L441.5,436.84L442.08,436.81L442.66,436.74L443.24,436.66L443.82,436.6L444.4,436.57L444.98,436.52L445.56,436.48L446.14,436.45L446.71,436.43L447.29,436.37L447.87,436.36L448.45,436.34L449.03,436.3L449.61,436.27L450.19,436.25L450.77,436.24L451.35,436.19L451.93,436.18L452.51,436.16L453.09,436.16L453.67,436.15L454.25,436.12L454.83,436.1L455.41,436.13L455.99,436.1L456.56,436.09L457.14,436.06L457.72,436.04L458.3,436.03L458.88,436.04L459.46,436.03L460.04,436.03L460.62,436.04L461.2,436.04L461.78,436.04L462.36,436.04L462.94,436.03L463.52,436.04L464.1,436.06L464.68,436.09L465.26,436.12L465.83,436.15L466.41,436.16L466.99,436.18L467.57,436.21L468.15,436.25L468.73,436.27L469.31,436.28L469.89,436.31L470.47,436.33L471.05,436.37L471.63,436.37L472.21,436.39L472.79,436.42L473.37,436.45L473.95,436.49L474.53,436.52L475.11,436.57L475.68,436.6L476.26,436.65L476.84,436.66L477.42,436.68L478,436.71L478.58,436.75L479.16,436.8L479.74,436.83L480.32,436.86L480.9,436.89L481.48,436.87L482.06,436.9L482.64,436.92L483.22,436.92L483.8,436.92L484.38,436.95L484.96,436.93L485.53,436.93L486.11,436.96L486.69,436.99L487.27,436.99L487.85,436.99L488.43,436.99L489.01,437.02L489.59,437.04L490.17,437.04L490.75,437.05L491.33,437.05L491.91,437.07L492.49,437.1L493.07,437.14L493.65,437.17L494.23,437.17L494.81,437.17L495.38,437.19L495.96,437.17L496.54,437.19L497.12,437.2L497.7,437.22L498.28,437.27L498.86,437.25L499.44,437.25L500.02,437.28L500.6,437.33L501.18,437.34L501.76,437.36L502.34,437.39L502.92,437.37L503.5,437.36L504.08,437.34L504.65,437.36L505.23,437.34L505.81,437.36L506.39,437.37L506.97,437.36L507.55,437.34L508.13,437.33L508.71,437.34L509.29,437.37L509.87,437.39L510.45,437.39L511.03,437.42L511.61,437.45L512.19,437.46L512.77,437.48L513.35,437.46L513.93,437.48L514.5,437.49L515.08,437.51L515.66,437.52L516.24,437.54L516.82,437.55L517.4,437.57L517.98,437.57L518.56,437.57L519.14,437.58L519.72,437.57L520.3,437.58L520.88,437.6L521.46,437.63L522.04,437.63L522.62,437.66L523.2,437.67L523.78,437.67L524.35,437.69L524.93,437.73L525.51,437.76L526.09,437.81L526.67,437.85L527.25,437.9L527.83,437.9L528.41,437.92L528.99,437.96L529.57,438.01L530.15,438.04L530.73,438.08L531.31,438.11L531.89,438.13L532.47,438.16L533.05,438.19L533.62,438.23L534.2,438.26L534.78,438.32L535.36,438.34L535.94,438.37L536.52,438.41L537.1,438.47L537.68,438.51L538.26,438.54L538.84,438.57L539.42,438.61L540,438.61L540.58,438.61L541.16,438.64L541.74,438.66L542.32,438.67L542.9,438.67L543.47,438.69L544.05,438.7L544.63,438.72L545.21,438.73L545.79,438.73L546.37,438.73L546.95,438.75L547.53,438.75L548.11,438.76L548.69,438.78L549.27,438.78L549.85,438.81L550.43,438.81L551.01,438.82L551.59,438.84L552.17,438.84L552.75,438.85L553.32,438.87L553.9,438.91L554.48,438.96L555.06,438.99L555.64,439.05L556.22,439.09L556.8,439.14L557.38,439.2L557.96,439.26L558.54,439.28L559.12,439.29L559.7,439.29L560.28,439.31L560.86,439.29L561.44,439.29L562.02,439.32L562.59,439.34L563.17,439.35L563.75,439.37L564.33,439.38L564.91,439.4L565.49,439.4L566.07,439.4L566.65,439.43L567.23,439.44L567.81,439.46L568.39,439.46L568.97,439.47L569.55,439.5L570.13,439.52L570.71,439.53L571.29,439.55L571.87,439.56L572.44,439.56L573.02,439.56L573.6,439.59L574.18,439.62L574.76,439.61L575.34,439.61L575.92,439.64L576.5,439.65L577.08,439.64L577.66,439.65L578.24,439.65L578.82,439.64L579.4,439.65L579.98,439.64L580.56,439.62L581.14,439.64L581.72,439.62L582.29,439.61L582.87,439.58L583.45,439.58L584.03,439.59L584.61,439.59L585.19,439.59L585.77,439.61L586.35,439.59L586.93,439.61L587.51,439.59L588.09,439.61L588.67,439.61L589.25,439.61L589.83,439.62L590.41,439.65L590.99,439.68L591.57,439.7L592.14,439.73L592.72,439.73L593.3,439.74L593.88,439.76L594.46,439.78L595.04,439.79L595.62,439.78L596.2,439.79L596.78,439.82L597.36,439.85L597.94,439.85L598.52,439.87L599.1,439.88L599.68,439.87L600.26,439.9L600.84,439.88L601.41,439.9L601.99,439.9L602.57,439.91L603.15,439.94L603.73,439.94L604.31,439.94L604.89,439.96L605.47,439.97L606.05,440L606.63,440.02L607.21,440.03L607.79,440.06L608.37,440.09L608.95,440.09L609.53,440.12L610.11,440.12L610.69,440.14L611.26,440.15L611.84,440.15L612.42,440.15L613,440.14L613.58,440.12L614.16,440.11L614.74,440.09L615.32,440.08L615.9,440.06L616.48,440.06L617.06,440.05L617.64,440.06L618.22,440.08L618.8,440.08L619.38,440.09L619.96,440.11L620.54,440.14L621.11,440.14L621.69,440.17L622.27,440.17L622.85,440.18L623.43,440.18L624.01,440.2L624.59,440.21L625.17,440.21L625.75,440.23L626.33,440.21L626.91,440.21L627.49,440.21L628.07,440.21L628.65,440.23L629.23,440.23L629.81,440.24L630.38,440.24L630.96,440.27L631.54,440.29L632.12,440.3L632.7,440.35L633.28,440.35L633.86,440.38L634.44,440.38L635.02,440.41L635.6,440.43L636.18,440.43L636.76,440.44L637.34,440.46L637.92,440.49L638.5,440.52L639.08,440.56L639.66,440.59L640.23,440.64L640.81,440.64L641.39,440.68L641.97,440.7L642.55,440.7L643.13,440.73L643.71,440.76L644.29,440.76L644.87,440.76L645.45,440.77L646.03,440.77L646.61,440.77L647.19,440.82L647.77,440.83L648.35,440.88L648.93,440.91L649.51,440.95L650.08,440.97L650.66,440.98L651.24,441.01L651.82,441.06L652.4,441.09L652.98,441.14L653.56,441.17L654.14,441.2L654.72,441.2L655.3,441.2L655.88,441.21L656.46,441.23L657.04,441.24L657.62,441.26L658.2,441.27L658.78,441.29L659.35,441.32L659.93,441.32L660.51,441.33L661.09,441.35L661.67,441.35L662.25,441.38L662.83,441.41L663.41,441.41L663.99,441.42L664.57,441.42L665.15,441.44L665.73,441.44L666.31,441.44L666.89,441.45L667.47,441.48L668.05,441.47L668.63,441.45L669.2,441.45L669.78,441.45L670.36,441.47L670.94,441.48L671.52,441.5L672.1,441.51L672.68,441.51L673.26,441.53L673.84,441.51L674.42,441.51L675,441.53L675.58,441.56L676.16,441.56L676.74,441.57L677.32,441.59L677.9,441.59L678.48,441.59L679.05,441.62L679.63,441.62L680.21,441.65L680.79,441.65L681.37,441.65L681.95,441.68L682.53,441.7L683.11,441.7L683.69,441.73L684.27,441.74L684.85,441.74L685.43,441.76L686.01,441.77L686.59,441.8L687.17,441.8L687.75,441.82L688.32,441.82L688.9,441.83L689.48,441.85L690.06,441.86L690.64,441.88L691.22,441.88L691.8,441.89L692.38,441.89L692.96,441.92L693.54,441.92L694.12,441.95L694.7,441.95L695.28,441.98L695.86,442L696.44,442L697.02,442.01L697.6,442.01L698.17,442.01L698.75,442.01L699.33,442.04L699.91,442.07L700.49,442.07L701.07,442.09L701.65,442.12L702.23,442.13L702.81,442.15L703.39,442.15L703.97,442.18L704.55,442.18L705.13,442.18L705.71,442.19L706.29,442.19L706.87,442.22L707.45,442.24L708.02,442.27L708.6,442.28L709.18,442.3L709.76,442.3L710.34,442.33L710.92,442.36L711.5,442.39L712.08,442.44L712.66,442.47L713.24,442.47L713.82,442.47L714.4,442.48L714.98,442.5L715.56,442.51L716.14,442.51L716.72,442.53L717.3,442.54L717.87,442.57L718.45,442.59L719.03,442.6L719.61,442.62L720.19,442.62L720.77,442.62L721.35,442.65L721.93,442.63L722.51,442.63L723.09,442.63L723.67,442.63L724.25,442.68L724.83,442.69L725.41,442.68L725.99,442.71L726.57,442.72L727.14,442.74L727.72,442.78L728.3,442.81L728.88,442.86L729.46,442.9L730.04,442.94L730.62,442.97L731.2,442.98L731.78,443.01L732.36,443.03L732.94,443.04L733.52,443.06L734.1,443.07L734.68,443.06L735.26,443.07L735.84,443.07L736.42,443.07L736.99,443.09L737.57,443.1L738.15,443.12L738.73,443.13L739.31,443.13L739.89,443.15L740.47,443.15L741.05,443.16L741.63,443.16L742.21,443.18L742.79,443.19L743.37,443.22L743.95,443.24L744.53,443.25L745.11,443.25L745.69,443.24L746.27,443.22L746.84,443.21L747.42,443.21L748,443.18L748.58,443.18L749.16,443.18L749.74,443.16L750.32,443.19L750.9,443.18L751.48,443.18L752.06,443.18L752.64,443.18L753.22,443.18L753.8,443.18L754.38,443.16L754.96,443.15L755.54,443.13L756.11,443.15L756.69,443.15L757.27,443.13L757.85,443.13L758.43,443.15L759.01,443.16L759.59,443.18L760.17,443.16L760.75,443.18L761.33,443.19L761.91,443.19L762.49,443.21L763.07,443.21L763.65,443.21L764.23,443.21L764.81,443.24L765.39,443.24L765.96,443.24L766.54,443.24L767.12,443.24L767.7,443.24L768.28,443.24L768.86,443.24L769.44,443.22L770.02,443.22L770.6,443.22L771.18,443.22L771.76,443.24L772.34,443.22L772.92,443.24L773.5,443.24L774.08,443.25L774.66,443.27L775.24,443.28L775.81,443.28L776.39,443.3L776.97,443.31L777.55,443.31L778.13,443.33L778.71,443.31L779.29,443.33L779.87,443.33L780.45,443.36L781.03,443.37L781.61,443.39L782.19,443.4L782.77,443.42L783.35,443.43L783.93,443.42L784.51,443.42L785.08,443.42L785.66,443.43L786.24,443.43L786.82,443.4L787.4,443.42L787.98,443.4L788.56,443.4L789.14,443.39L789.72,443.37L790.3,443.36L790.88,443.33L791.46,443.33L792.04,443.33L792.62,443.33L793.2,443.33L793.78,443.34L794.36,443.34L794.93,443.34L795.51,443.34L796.09,443.36L796.67,443.37L797.25,443.39L797.83,443.4L798.41,443.4L798.99,443.4L799.57,443.42L800.15,443.42L800.73,443.43L801.31,443.45L801.89,443.45L802.47,443.46L803.05,443.45L803.63,443.45L804.21,443.46L804.78,443.46L805.36,443.48L805.94,443.49L806.52,443.52L807.1,443.52L807.68,443.52L808.26,443.54L808.84,443.54L809.42,443.55L810,443.57L810.58,443.59L811.16,443.6L811.74,443.62L812.32,443.62L812.9,443.65L813.48,443.66L814.05,443.68L814.63,443.69L815.21,443.72L815.79,443.75L816.37,443.75L816.95,443.78L817.53,443.78L818.11,443.8L818.69,443.8L819.27,443.8L819.85,443.81L820.43,443.84L821.01,443.84L821.59,443.87L822.17,443.89L822.75,443.92L823.33,443.95L823.9,443.96L824.48,443.99L825.06,444.01L825.64,444.02L826.22,444.04L826.8,444.07L827.38,444.07L827.96,444.07L828.54,444.05L829.12,444.05L829.7,444.07L830.28,444.07L830.86,444.07L831.44,444.07L832.02,444.07L832.6,444.08L833.18,444.11L833.75,444.11L834.33,444.13L834.91,444.13L835.49,444.13L836.07,444.16L836.65,444.17L837.23,444.16L837.81,444.17L838.39,444.17L838.97,444.16L839.55,444.17L840.13,444.17L840.71,444.16L841.29,444.11L841.87,444.07L842.45,444.04L843.03,444.01L843.6,443.98L844.18,443.95L844.76,443.95L845.34,443.95L845.92,443.93L846.5,443.93L847.08,443.9L847.66,443.87L848.24,443.83L848.82,443.8L849.4,443.75L849.98,443.74L850.56,443.71L851.14,443.68L851.72,443.65L852.3,443.6L852.87,443.57L853.45,443.52L854.03,443.48L854.61,443.43L855.19,443.42L855.77,443.37L856.35,443.36L856.93,443.33L857.51,443.31L858.09,443.3L858.67,443.27L859.25,443.24L859.83,443.21L860.41,443.21L860.99,443.18L861.57,443.16L862.15,443.16L862.72,443.15L863.3,443.13L863.88,443.09L864.46,443.06L865.04,443.03L865.62,443L866.2,442.97L866.78,442.94L867.36,442.89L867.94,442.86L868.52,442.83L869.1,442.8L869.68,442.78L870.26,442.74L870.84,442.69L871.42,442.68L872,442.65L872.57,442.63L873.15,442.6L873.73,442.59L874.31,442.56L874.89,442.53L875.47,442.51L876.05,442.5L876.63,442.47L877.21,442.45L877.79,442.44L878.37,442.42L878.95,442.39L879.53,442.38L880.11,442.35L880.69,442.33L881.27,442.3L881.84,442.28L882.42,442.27L883,442.25L883.58,442.25L884.16,442.24L884.74,442.24L885.32,442.22L885.9,442.21L886.48,442.18L887.06,442.13L887.64,442.1L888.22,442.07L888.8,442.04L889.38,442.01L889.96,441.98L890.54,441.97L891.12,441.94L891.69,441.92L892.27,441.89L892.85,441.86L893.43,441.83L894.01,441.79L894.59,441.76L895.17,441.73L895.75,441.68L896.33,441.63L896.91,441.62L897.49,441.59L898.07,441.56L898.65,441.53L899.23,441.5L899.81,441.47L900.39,441.45L900.97,441.44L901.54,441.42L902.12,441.41L902.7,441.41L903.28,441.39L903.86,441.39L904.44,441.39L905.02,441.39L905.6,441.39L906.18,441.38L906.76,441.36L907.34,441.32L907.92,441.29L908.5,441.26L909.08,441.23L909.66,441.2L910.24,441.18L910.81,441.14L911.39,441.12L911.97,441.09L912.55,441.06L913.13,441.03L913.71,441.01L914.29,441L914.87,440.97L915.45,440.95L916.03,440.92L916.61,440.91L917.19,440.88L917.77,440.86L918.35,440.85L918.93,440.82L919.51,440.8L920.09,440.79L920.66,440.76L921.24,440.74L921.82,440.73L922.4,440.71L922.98,440.68L923.56,440.65L924.14,440.64L924.72,440.61L925.3,440.61L925.88,440.58L926.46,440.53L927.04,440.5L927.62,440.47L928.2,440.44L928.78,440.43L929.36,440.39L929.94,440.35L930.51,440.3L931.09,440.26L931.67,440.21L932.25,440.18L932.83,440.17L933.41,440.14L933.99,440.11L934.57,440.11L935.15,440.08L935.73,440.06L936.31,440.05L936.89,440.02L937.47,440L938.05,439.99L938.63,439.96L939.21,439.94L939.78,439.93L940.36,439.93L940.94,439.9L941.52,439.87L942.1,439.85L942.68,439.82L943.26,439.81L943.84,439.79L944.42,439.76L945,439.74L945.58,439.73L946.16,439.71L946.74,439.7L947.32,439.68L947.9,439.65L948.48,439.62L949.06,439.58L949.63,439.55L950.21,439.53L950.79,439.5L951.37,439.47L951.95,439.44L952.53,439.43L953.11,439.41L953.69,439.38L954.27,439.35L954.85,439.34L955.43,439.32L956.01,439.31L956.59,439.29L957.17,439.26L957.75,439.25L958.33,439.22L958.91,439.2L959.48,439.17L960.06,439.14L960.64,439.12L961.22,439.09L961.8,439.08L962.38,439.06L962.96,439.03L963.54,439.02L964.12,438.99L964.7,438.96L965.28,438.91L965.86,438.88L966.44,438.87L967.02,438.84L967.6,438.81L968.18,438.79L968.76,438.75L969.33,438.73L969.91,438.72L970.49,438.7L971.07,438.69L971.65,438.67L972.23,438.67" style="fill:none;stroke:#F15A60;stroke-width:1.875" />
<path d="M60.834,76.636L61.413,130.36L61.993,184.88L62.572,237.67L63.151,274.96L63.731,307.56L64.31,335.74L64.89,360.26L65.469,379.63L66.048,398.18L66.628,412.85L67.207,426.77L67.787,436.58L68.366,449.89L68.945,460.85L69.525,470.86L70.104,477.29L70.684,484.33L71.263,490.36L71.842,498.68L72.422,509.64L73.001,516.99L73.581,522.1L74.16,528.33L74.739,533.23L75.319,537.78L75.898,541.54L76.478,546.38L77.057,549.86L77.636,553L78.216,557.99L78.795,561.32L79.375,564.3L79.954,567.23L80.533,571.06L81.113,574.04L81.692,576.58L82.272,578.9L82.851,582.11L83.43,584.39L84.01,586.71L84.589,587.7L85.169,590.41L85.748,591.56L86.327,593.63L86.907,595.22L87.486,596.47L88.066,598.29L88.645,599.74L89.224,600.69L89.804,601.84L90.383,602.87L90.963,605.14L91.542,606.18L92.121,608.19L92.701,609.01L93.28,610.07L93.86,611.46L94.439,613.06L95.018,614.18L95.598,615.33L96.177,616.55L96.757,617.49L97.336,618.55L97.915,620.01L98.495,620.97L99.074,622.13L99.654,623.1L100.23,624.31L100.81,625.23L101.39,625.96L101.97,626.89L102.55,627.27L103.13,628.63L103.71,629.65L104.29,630.58L104.87,631.28L105.45,631.91L106.03,632.82L106.61,633.44L107.19,633.83L107.77,634.91L108.34,635.12L108.92,635.92L109.5,636.58L110.08,637.27L110.66,637.7L111.24,638.26L111.82,638.99L112.4,639.59L112.98,640.08L113.56,640.68L114.14,641.42L114.72,641.88L115.3,642.56L115.88,643L116.46,644.01L117.04,644.14L117.62,645.23L118.19,645.58L118.77,646.05L119.35,646.37L119.93,646.75L120.51,647.37L121.09,648.06L121.67,648.56L122.25,648.95L122.83,649.01L123.41,649.62L123.99,650.07L124.57,650.33L125.15,650.93L125.73,651.04L126.31,652.11L126.89,652.35L127.46,652.87L128.04,653.22L128.62,653.91L129.2,654.29L129.78,654.71L130.36,655L130.94,655.62L131.52,656L132.1,656.39L132.68,656.66L133.26,657.21L133.84,657.59L134.42,657.78L135,658.13L135.58,658.36L136.16,658.87L136.74,659.28L137.31,659.69L137.89,659.97L138.47,660.4L139.05,660.67L139.63,660.9L140.21,661.32L140.79,661.28L141.37,661.99L141.95,662.29L142.53,662.74L143.11,662.83L143.69,663.09L144.27,663.56L144.85,663.91L145.43,664.01L146.01,664.09L146.59,664.44L147.16,664.53L147.74,664.77L148.32,664.96L148.9,665.15L149.48,665.24L150.06,665.54L150.64,665.51L151.22,665.64L151.8,665.86L152.38,666.43L152.96,666.4L153.54,666.87L154.12,666.84L154.7,667.16L155.28,667.59L155.86,667.78L156.43,667.73L157.01,668.25L157.59,668.49L158.17,668.53L158.75,668.91L159.33,669.08L159.91,669.21L160.49,669.56L161.07,669.7L161.65,670.04L162.23,670.26L162.81,670.5L163.39,670.83L163.97,670.95L164.55,671.15L165.13,671.27L165.71,671.68L166.28,671.66L166.86,672.02L167.44,672.07L168.02,672.34L168.6,672.57L169.18,672.6L169.76,672.58L170.34,672.86L170.92,672.99L171.5,673.19L172.08,673.23L172.66,673.61L173.24,673.75L173.82,673.87L174.4,674.13L174.98,674.23L175.56,674.53L176.13,674.67L176.71,674.73L177.29,675.15L177.87,675.34L178.45,675.62L179.03,675.82L179.61,675.93L180.19,676.11L180.77,676.26L181.35,676.38L181.93,676.62L182.51,676.8L183.09,677.07L183.67,677.11L184.25,677.14L184.83,677.33L185.4,677.51L185.98,677.57L186.56,677.56L187.14,677.85L187.72,677.91L188.3,678.07L188.88,678.07L189.46,678.1L190.04,678.22L190.62,678.38L191.2,678.45L191.78,678.54L192.36,678.78L192.94,678.66L193.52,678.8L194.1,678.9L194.68,679.18L195.25,679.24L195.83,679.33L196.41,679.45L196.99,679.46L197.57,679.61L198.15,679.77L198.73,679.96L199.31,679.95L199.89,680.13L200.47,680.14L201.05,680.22L201.63,680.37L202.21,680.64L202.79,680.7L203.37,680.75L203.95,680.93L204.53,681.01L205.1,680.98L205.68,681.01L206.26,681.08L206.84,681.19L207.42,681.23L208,681.4L208.58,681.46L209.16,681.63L209.74,681.79L210.32,681.75L210.9,682L211.48,682.02L212.06,682.09L212.64,682.32L213.22,682.28L213.8,682.47L214.37,682.53L214.95,682.68L215.53,682.82L216.11,682.93L216.69,683.05L217.27,683.14L217.85,683.23L218.43,683.26L219.01,683.41L219.59,683.62L220.17,683.58L220.75,683.7L221.33,683.85L221.91,683.82L222.49,683.88L223.07,684.04L223.65,684.18L224.22,684.26L224.8,684.38L225.38,684.44L225.96,684.51L226.54,684.57L227.12,684.53L227.7,684.63L228.28,684.68L228.86,684.74L229.44,684.7L230.02,684.86L230.6,684.97L231.18,685.15L231.76,685.18L232.34,685.31L232.92,685.36L233.5,685.47L234.07,685.53L234.65,685.71L235.23,685.78L235.81,685.86L236.39,685.78L236.97,686.04L237.55,686.09L238.13,686.06L238.71,686.13L239.29,686.34L239.87,686.48L240.45,686.52L241.03,686.59L241.61,686.65L242.19,686.66L242.77,686.68L243.35,686.72L243.92,686.77L244.5,686.72L245.08,686.89L245.66,686.99L246.24,687.04L246.82,687.05L247.4,687.25L247.98,687.24L248.56,687.34L249.14,687.48L249.72,687.43L250.3,687.49L250.88,687.63L251.46,687.69L252.04,687.69L252.62,687.69L253.19,687.64L253.77,687.76L254.35,687.86L254.93,687.9L255.51,687.92L256.09,687.96L256.67,687.95L257.25,688.11L257.83,688.14L258.41,688.25L258.99,688.29L259.57,688.31L260.15,688.17L260.73,688.25L261.31,688.29L261.89,688.34L262.47,688.31L263.04,688.19L263.62,688.23L264.2,688.22L264.78,688.22L265.36,688.32L265.94,688.37L266.52,688.44L267.1,688.54L267.68,688.55L268.26,688.61L268.84,688.72L269.42,688.75L270,688.67L270.58,688.73L271.16,688.78L271.74,688.82L272.32,688.85L272.89,688.91L273.47,688.9L274.05,688.84L274.63,688.87L275.21,688.96L275.79,688.99L276.37,689.03L276.95,689.17L277.53,689.14L278.11,689.25L278.69,689.37L279.27,689.38L279.85,689.41L280.43,689.5L281.01,689.53L281.59,689.55L282.16,689.64L282.74,689.53L283.32,689.58L283.9,689.68L284.48,689.76L285.06,689.81L285.64,689.9L286.22,689.93L286.8,690.02L287.38,690.06L287.96,690.09L288.54,690.12L289.12,690.21L289.7,690.2L290.28,690.24L290.86,690.26L291.44,690.24L292.01,690.35L292.59,690.38L293.17,690.43L293.75,690.47L294.33,690.53L294.91,690.58L295.49,690.61L296.07,690.73L296.65,690.59L297.23,690.82L297.81,690.8L298.39,690.86L298.97,690.89L299.55,691.02L300.13,691.02L300.71,691.06L301.29,691.11L301.86,691.11L302.44,691.14L303.02,691.21L303.6,691.27L304.18,691.26L304.76,691.26L305.34,691.35L305.92,691.38L306.5,691.39L307.08,691.48L307.66,691.51L308.24,691.56L308.82,691.53L309.4,691.57L309.98,691.62L310.56,691.63L311.13,691.76L311.71,691.77L312.29,691.89L312.87,691.85L313.45,691.91L314.03,691.94L314.61,691.91L315.19,692.01L315.77,692L316.35,691.97L316.93,692.04L317.51,692.06L318.09,691.95L318.67,692.06L319.25,692.13L319.83,692.15L320.41,692.1L320.98,692.09L321.56,692.15L322.14,692.13L322.72,692.07L323.3,692.09L323.88,692.03L324.46,692.01L325.04,692L325.62,692.04L326.2,692.06L326.78,692.09L327.36,692.12L327.94,692.12L328.52,692.18L329.1,692.15L329.68,692.27L330.26,692.3L330.83,692.3L331.41,692.3L331.99,692.41L332.57,692.45L333.15,692.51L333.73,692.54L334.31,692.54L334.89,692.62L335.47,692.66L336.05,692.71L336.63,692.74L337.21,692.74L337.79,692.78L338.37,692.71L338.95,692.9L339.53,692.94L340.1,692.94L340.68,693.09L341.26,693.09L341.84,693.21L342.42,693.24L343,693.28L343.58,693.31L344.16,693.31L344.74,693.37L345.32,693.48L345.9,693.48L346.48,693.52L347.06,693.52L347.64,693.59L348.22,693.63L348.8,693.66L349.38,693.69L349.95,693.68L350.53,693.86L351.11,693.87L351.69,693.89L352.27,693.95L352.85,694.01L353.43,694.07L354.01,694.08L354.59,694.13L355.17,694.14L355.75,694.16L356.33,694.16L356.91,694.27L357.49,694.27L358.07,694.36L358.65,694.36L359.23,694.42L359.8,694.42L360.38,694.45L360.96,694.45L361.54,694.49L362.12,694.52L362.7,694.51L363.28,694.54L363.86,694.57L364.44,694.55L365.02,694.61L365.6,694.6L366.18,694.67L366.76,694.69L367.34,694.73L367.92,694.83L368.5,694.79L369.08,694.73L369.65,694.83L370.23,694.87L370.81,694.92L371.39,694.95L371.97,694.98L372.55,694.96L373.13,695.02L373.71,694.89L374.29,694.93L374.87,695.02L375.45,695.02L376.03,695.02L376.61,695.04L377.19,695.02L377.77,695.13L378.35,695.13L378.92,695.16L379.5,695.17L380.08,695.13L380.66,695.16L381.24,695.14L381.82,695.19L382.4,695.23L382.98,695.22L383.56,695.22L384.14,695.22L384.72,695.23L385.3,695.22L385.88,695.28L386.46,695.28L387.04,695.29L387.62,695.34L388.2,695.34L388.77,695.38L389.35,695.38L389.93,695.4L390.51,695.41L391.09,695.46L391.67,695.48L392.25,695.49L392.83,695.48L393.41,695.54L393.99,695.48L394.57,695.41L395.15,695.51L395.73,695.55L396.31,695.51L396.89,695.55L397.47,695.55L398.05,695.55L398.62,695.6L399.2,695.6L399.78,695.66L400.36,695.66L400.94,695.64L401.52,695.67L402.1,695.67L402.68,695.7L403.26,695.69L403.84,695.75L404.42,695.72L405,695.72L405.58,695.75L406.16,695.78L406.74,695.73L407.32,695.81L407.89,695.84L408.47,695.85L409.05,695.94L409.63,695.97L410.21,695.99L410.79,695.99L411.37,696.02L411.95,696L412.53,696.05L413.11,696.1L413.69,696.14L414.27,696.11L414.85,696.11L415.43,696.11L416.01,696.14L416.59,696.13L417.17,696.2L417.74,696.17L418.32,696.17L418.9,696.17L419.48,696.2L420.06,696.23L420.64,696.22L421.22,696.2L421.8,696.22L422.38,696.23L422.96,696.2L423.54,696.2L424.12,696.2L424.7,696.26L425.28,696.28L425.86,696.26L426.44,696.29L427.02,696.29L427.59,696.35L428.17,696.35L428.75,696.34L429.33,696.44L429.91,696.49L430.49,696.5L431.07,696.46L431.65,696.53L432.23,696.53L432.81,696.58L433.39,696.55L433.97,696.55L434.55,696.53L435.13,696.56L435.71,696.53L436.29,696.5L436.86,696.4L437.44,696.43L438.02,696.41L438.6,696.37L439.18,696.44L439.76,696.46L440.34,696.49L440.92,696.5L441.5,696.5L442.08,696.55L442.66,696.58L443.24,696.61L443.82,696.65L444.4,696.65L444.98,696.7L445.56,696.7L446.14,696.65L446.71,696.7L447.29,696.78L447.87,696.79L448.45,696.82L449.03,696.76L449.61,696.81L450.19,696.87L450.77,696.84L451.35,696.79L451.93,696.91L452.51,696.94L453.09,696.87L453.67,696.94L454.25,696.94L454.83,696.96L455.41,696.99L455.99,696.99L456.56,696.99L457.14,697L457.72,697.02L458.3,697L458.88,697.03L459.46,697.09L460.04,697.06L460.62,697.11L461.2,697.12L461.78,697.15L462.36,697.15L462.94,697.15L463.52,697.21L464.1,697.23L464.68,697.24L465.26,697.2L465.83,697.21L466.41,697.26L466.99,697.29L467.57,697.29L468.15,697.29L468.73,697.35L469.31,697.4L469.89,697.46L470.47,697.47L471.05,697.5L471.63,697.53L472.21,697.53L472.79,697.58L473.37,697.55L473.95,697.61L474.53,697.61L475.11,697.64L475.68,697.7L476.26,697.71L476.84,697.71L477.42,697.79L478,697.8L478.58,697.77L479.16,697.82L479.74,697.82L480.32,697.85L480.9,697.86L481.48,697.86L482.06,697.86L482.64,697.88L483.22,697.89L483.8,697.95L484.38,697.91L484.96,698.02L485.53,698.02L486.11,698.08L486.69,697.99L487.27,698.06L487.85,698.17L488.43,698.2L489.01,698.15L489.59,698.21L490.17,698.2L490.75,698.24L491.33,698.26L491.91,698.18L492.49,698.26L493.07,698.24L493.65,698.26L494.23,698.24L494.81,698.29L495.38,698.27L495.96,698.24L496.54,698.27L497.12,698.23L497.7,698.26L498.28,698.21L498.86,698.21L499.44,698.23L500.02,698.23L500.6,698.26L501.18,698.3L501.76,698.35L502.34,698.35L502.92,698.35L503.5,698.39L504.08,698.42L504.65,698.42L505.23,698.42L505.81,698.45L506.39,698.47L506.97,698.45L507.55,698.39L508.13,698.47L508.71,698.53L509.29,698.53L509.87,698.53L510.45,698.54L511.03,698.54L511.61,698.57L512.19,698.65L512.77,698.67L513.35,698.67L513.93,698.68L514.5,698.7L515.08,698.67L515.66,698.7L516.24,698.71L516.82,698.73L517.4,698.73L517.98,698.68L518.56,698.68L519.14,698.71L519.72,698.73L520.3,698.71L520.88,698.7L521.46,698.73L522.04,698.79L522.62,698.8L523.2,698.82L523.78,698.86L524.35,698.86L524.93,698.91L525.51,698.92L526.09,698.94L526.67,698.97L527.25,698.97L527.83,699L528.41,699.01L528.99,699.06L529.57,699.03L530.15,699.13L530.73,699.13L531.31,699.15L531.89,699.09L532.47,699.12L533.05,699.18L533.62,699.13L534.2,699.21L534.78,699.24L535.36,699.21L535.94,699.19L536.52,699.22L537.1,699.22L537.68,699.27L538.26,699.29L538.84,699.32L539.42,699.35L540,699.32L540.58,699.39L541.16,699.41L541.74,699.44L542.32,699.44L542.9,699.44L543.47,699.5L544.05,699.51L544.63,699.51L545.21,699.5L545.79,699.56L546.37,699.6L546.95,699.62L547.53,699.6L548.11,699.59L548.69,699.6L549.27,699.68L549.85,699.69L550.43,699.69L551.01,699.68L551.59,699.69L552.17,699.74L552.75,699.77L553.32,699.71L553.9,699.77L554.48,699.77L555.06,699.8L555.64,699.78L556.22,699.8L556.8,699.83L557.38,699.8L557.96,699.86L558.54,699.88L559.12,699.89L559.7,699.94L560.28,699.89L560.86,699.92L561.44,699.94L562.02,699.95L562.59,699.97L563.17,699.95L563.75,699.98L564.33,699.98L564.91,700L565.49,700L566.07,700L566.65,700.01L567.23,700.03L567.81,700.06L568.39,700.09L568.97,700.09L569.55,700.06L570.13,700.06L570.71,700.06L571.29,700.07L571.87,700.12L572.44,700.1L573.02,700.1L573.6,700.13L574.18,700.15L574.76,700.19L575.34,700.22L575.92,700.21L576.5,700.21L577.08,700.21L577.66,700.24L578.24,700.22L578.82,700.25L579.4,700.24L579.98,700.24L580.56,700.27L581.14,700.27L581.72,700.3L582.29,700.33L582.87,700.34L583.45,700.37L584.03,700.39L584.61,700.42L585.19,700.4L585.77,700.43L586.35,700.43L586.93,700.43L587.51,700.48L588.09,700.46L588.67,700.49L589.25,700.48L589.83,700.49L590.41,700.49L590.99,700.51L591.57,700.49L592.14,700.48L592.72,700.45L593.3,700.4L593.88,700.49L594.46,700.49L595.04,700.51L595.62,700.48L596.2,700.49L596.78,700.49L597.36,700.49L597.94,700.51L598.52,700.53L599.1,700.54L599.68,700.48L600.26,700.54L600.84,700.54L601.41,700.56L601.99,700.57L602.57,700.59L603.15,700.6L603.73,700.62L604.31,700.6L604.89,700.66L605.47,700.66L606.05,700.68L606.63,700.68L607.21,700.65L607.79,700.66L608.37,700.68L608.95,700.65L609.53,700.63L610.11,700.65L610.69,700.62L611.26,700.59L611.84,700.59L612.42,700.59L613,700.63L613.58,700.6L614.16,700.57L614.74,700.62L615.32,700.62L615.9,700.63L616.48,700.65L617.06,700.65L617.64,700.65L618.22,700.63L618.8,700.65L619.38,700.63L619.96,700.65L620.54,700.65L621.11,700.66L621.69,700.65L622.27,700.65L622.85,700.65L623.43,700.66L624.01,700.68L624.59,700.68L625.17,700.68L625.75,700.68L626.33,700.63L626.91,700.68L627.49,700.68L628.07,700.66L628.65,700.66L629.23,700.63L629.81,700.63L630.38,700.68L630.96,700.63L631.54,700.65L632.12,700.6L632.7,700.63L633.28,700.6L633.86,700.59L634.44,700.6L635.02,700.6L635.6,700.6L636.18,700.62L636.76,700.6L637.34,700.6L637.92,700.62L638.5,700.62L639.08,700.57L639.66,700.63L640.23,700.66L640.81,700.65L641.39,700.66L641.97,700.62L642.55,700.63L643.13,700.68L643.71,700.71L644.29,700.71L644.87,700.68L645.45,700.66L646.03,700.69L646.61,700.66L647.19,700.66L647.77,700.68L648.35,700.69L648.93,700.69L649.51,700.71L650.08,700.71L650.66,700.71L651.24,700.71L651.82,700.69L652.4,700.71L652.98,700.69L653.56,700.68L654.14,700.75L654.72,700.74L655.3,700.71L655.88,700.69L656.46,700.72L657.04,700.74L657.62,700.72L658.2,700.72L658.78,700.74L659.35,700.69L659.93,700.72L660.51,700.71L661.09,700.71L661.67,700.71L662.25,700.71L662.83,700.71L663.41,700.72L663.99,700.75L664.57,700.71L665.15,700.74L665.73,700.72L666.31,700.72L666.89,700.72L667.47,700.69L668.05,700.68L668.63,700.68L669.2,700.66L669.78,700.62L670.36,700.62L670.94,700.56L671.52,700.57L672.1,700.53L672.68,700.54L673.26,700.54L673.84,700.53L674.42,700.56L675,700.53L675.58,700.54L676.16,700.57L676.74,700.56L677.32,700.6L677.9,700.6L678.48,700.57L679.05,700.56L679.63,700.59L680.21,700.57L680.79,700.57L681.37,700.57L681.95,700.57L682.53,700.56L683.11,700.56L683.69,700.56L684.27,700.56L684.85,700.56L685.43,700.54L686.01,700.56L686.59,700.53L687.17,700.54L687.75,700.54L688.32,700.53L688.9,700.53L689.48,700.51L690.06,700.54L690.64,700.53L691.22,700.53L691.8,700.49L692.38,700.53L692.96,700.54L693.54,700.53L694.12,700.54L694.7,700.54L695.28,700.54L695.86,700.54L696.44,700.54L697.02,700.54L697.6,700.57L698.17,700.56L698.75,700.59L699.33,700.59L699.91,700.57L700.49,700.59L701.07,700.59L701.65,700.6L702.23,700.62L702.81,700.62L703.39,700.62L703.97,700.59L704.55,700.6L705.13,700.59L705.71,700.59L706.29,700.62L706.87,700.6L707.45,700.62L708.02,700.6L708.6,700.6L709.18,700.6L709.76,700.6L710.34,700.6L710.92,700.6L711.5,700.6L712.08,700.6L712.66,700.6L713.24,700.62L713.82,700.62L714.4,700.63L714.98,700.63L715.56,700.65L716.14,700.65L716.72,700.65L717.3,700.65L717.87,700.66L718.45,700.68L719.03,700.66L719.61,700.62L720.19,700.66L720.77,700.65L721.35,700.66L721.93,700.63L722.51,700.63L723.09,700.63L723.67,700.6L724.25,700.6L724.83,700.62L725.41,700.62L725.99,700.63L726.57,700.63L727.14,700.62L727.72,700.6L728.3,700.59L728.88,700.59L729.46,700.59L730.04,700.56L730.62,700.54L731.2,700.53L731.78,700.49L732.36,700.54L732.94,700.53L733.52,700.49L734.1,700.48L734.68,700.46L735.26,700.49L735.84,700.49L736.42,700.48L736.99,700.51L737.57,700.49L738.15,700.53L738.73,700.51L739.31,700.51L739.89,700.53L740.47,700.51L741.05,700.49L741.63,700.51L742.21,700.51L742.79,700.51L743.37,700.51L743.95,700.51L744.53,700.51L745.11,700.51L745.69,700.49L746.27,700.48L746.84,700.46L747.42,700.49L748,700.48L748.58,700.48L749.16,700.48L749.74,700.48L750.32,700.46L750.9,700.46L751.48,700.46L752.06,700.46L752.64,700.45L753.22,700.46L753.8,700.48L754.38,700.49L754.96,700.49L755.54,700.48L756.11,700.51L756.69,700.46L757.27,700.46L757.85,700.49L758.43,700.46L759.01,700.46L759.59,700.48L760.17,700.48L760.75,700.48L761.33,700.48L761.91,700.45L762.49,700.45L763.07,700.48L763.65,700.46L764.23,700.46L764.81,700.45L765.39,700.42L765.96,700.43L766.54,700.43L767.12,700.43L767.7,700.45L768.28,700.43L768.86,700.45L769.44,700.42L770.02,700.43L770.6,700.4L771.18,700.39L771.76,700.4L772.34,700.42L772.92,700.42L773.5,700.42L774.08,700.42L774.66,700.4L775.24,700.39L775.81,700.36L776.39,700.39L776.97,700.39L777.55,700.36L778.13,700.37L778.71,700.37L779.29,700.37L779.87,700.34L780.45,700.33L781.03,700.31L781.61,700.28L782.19,700.28L782.77,700.27L783.35,700.27L783.93,700.22L784.51,700.18L785.08,700.18L785.66,700.15L786.24,700.15L786.82,700.12L787.4,700.13L787.98,700.09L788.56,700.1L789.14,700.09L789.72,700.1L790.3,700.09L790.88,700.06L791.46,700.09L792.04,700.06L792.62,700.04L793.2,700.01L793.78,700.01L794.36,700L794.93,700.03L795.51,700.03L796.09,700L796.67,700L797.25,700L797.83,699.98L798.41,699.98L798.99,699.97L799.57,699.97L800.15,699.97L800.73,699.97L801.31,699.97L801.89,699.94L802.47,699.94L803.05,699.94L803.63,699.92L804.21,699.94L804.78,699.92L805.36,699.89L805.94,699.91L806.52,699.91L807.1,699.89L807.68,699.88L808.26,699.88L808.84,699.89L809.42,699.88L810,699.88L810.58,699.84L811.16,699.84L811.74,699.83L812.32,699.84L812.9,699.84L813.48,699.84L814.05,699.83L814.63,699.83L815.21,699.83L815.79,699.83L816.37,699.84L816.95,699.83L817.53,699.83L818.11,699.83L818.69,699.84L819.27,699.81L819.85,699.81L820.43,699.83L821.01,699.83L821.59,699.8L822.17,699.78L822.75,699.8L823.33,699.8L823.9,699.81L824.48,699.8L825.06,699.78L825.64,699.78L826.22,699.78L826.8,699.78L827.38,699.78L827.96,699.75L828.54,699.75L829.12,699.75L829.7,699.74L830.28,699.72L830.86,699.74L831.44,699.74L832.02,699.75L832.6,699.74L833.18,699.74L833.75,699.72L834.33,699.71L834.91,699.65L835.49,699.71L836.07,699.75L836.65,699.74L837.23,699.74L837.81,699.72L838.39,699.72L838.97,699.69L839.55,699.72L840.13,699.72L840.71,699.72L841.29,699.71L841.87,699.68L842.45,699.68L843.03,699.65L843.6,699.63L844.18,699.62L844.76,699.63L845.34,699.6L845.92,699.59L846.5,699.56L847.08,699.59L847.66,699.59L848.24,699.57L848.82,699.59L849.4,699.57L849.98,699.57L850.56,699.56L851.14,699.53L851.72,699.57L852.3,699.56L852.87,699.57L853.45,699.57L854.03,699.53L854.61,699.53L855.19,699.5L855.77,699.54L856.35,699.54L856.93,699.54L857.51,699.54L858.09,699.53L858.67,699.53L859.25,699.51L859.83,699.53L860.41,699.51L860.99,699.5L861.57,699.48L862.15,699.47L862.72,699.5L863.3,699.48L863.88,699.47L864.46,699.47L865.04,699.44L865.62,699.47L866.2,699.45L866.78,699.45L867.36,699.45L867.94,699.42L868.52,699.45L869.1,699.44L869.68,699.42L870.26,699.42L870.84,699.42L871.42,699.42L872,699.44L872.57,699.41L873.15,699.45L873.73,699.42L874.31,699.44L874.89,699.45L875.47,699.44L876.05,699.44L876.63,699.45L877.21,699.42L877.79,699.45L878.37,699.42L878.95,699.44L879.53,699.44L880.11,699.45L880.69,699.42L881.27,699.42L881.84,699.44L882.42,699.44L883,699.42L883.58,699.41L884.16,699.44L884.74,699.41L885.32,699.39L885.9,699.41L886.48,699.39L887.06,699.39L887.64,699.39L888.22,699.41L888.8,699.39L889.38,699.41L889.96,699.38L890.54,699.39L891.12,699.36L891.69,699.36L892.27,699.36L892.85,699.36L893.43,699.36L894.01,699.33L894.59,699.36L895.17,699.39L895.75,699.39L896.33,699.39L896.91,699.39L897.49,699.38L898.07,699.36L898.65,699.38L899.23,699.38L899.81,699.36L900.39,699.36L900.97,699.35L901.54,699.35L902.12,699.35L902.7,699.35L903.28,699.32L903.86,699.35L904.44,699.32L905.02,699.33L905.6,699.32L906.18,699.3L906.76,699.29L907.34,699.32L907.92,699.3L908.5,699.27L909.08,699.29L909.66,699.27L910.24,699.27L910.81,699.26L911.39,699.26L911.97,699.24L912.55,699.26L913.13,699.24L913.71,699.22L914.29,699.26L914.87,699.26L915.45,699.22L916.03,699.24L916.61,699.22L917.19,699.22L917.77,699.21L918.35,699.21L918.93,699.22L919.51,699.24L920.09,699.24L920.66,699.22L921.24,699.22L921.82,699.21L922.4,699.19L922.98,699.21L923.56,699.22L924.14,699.21L924.72,699.21L925.3,699.21L925.88,699.19L926.46,699.22L927.04,699.19L927.62,699.19L928.2,699.21L928.78,699.19L929.36,699.19L929.94,699.21L930.51,699.18L931.09,699.19L931.67,699.19L932.25,699.16L932.83,699.18L933.41,699.18L933.99,699.18L934.57,699.18L935.15,699.18L935.73,699.16L936.31,699.15L936.89,699.15L937.47,699.13L938.05,699.13L938.63,699.13L939.21,699.12L939.78,699.12L940.36,699.12L940.94,699.1L941.52,699.1L942.1,699.09L942.68,699.1L943.26,699.09L943.84,699.07L944.42,699.1L945,699.09L945.58,699.1L946.16,699.1L946.74,699.1L947.32,699.1L947.9,699.1L948.48,699.09L949.06,699.1L949.63,699.07L950.21,699.07L950.79,699.06L951.37,699.07L951.95,699.06L952.53,699.06L953.11,699.04L953.69,699.04L954.27,699.04L954.85,699.03L955.43,698.98L956.01,699L956.59,698.97L957.17,698.97L957.75,698.92L958.33,698.89L958.91,698.92L959.48,698.89L960.06,698.88L960.64,698.89L961.22,698.89L961.8,698.85L962.38,698.86L962.96,698.85L963.54,698.86L964.12,698.83L964.7,698.85L965.28,698.82L965.86,698.83L966.44,698.82L967.02,698.82L967.6,698.8L968.18,698.8L968.76,698.8L969.33,698.8L969.91,698.8L970.49,698.77L971.07,698.77L971.65,698.73L972.23,698.77L972.81,698.77L973.39,698.76L973.97,698.76L974.55,698.77L975.13,698.77L975.71,698.77L976.29,698.74L976.87,698.74L977.45,698.74L978.03,698.74L978.6,698.71L979.18,698.73L979.76,698.73L980.34,698.71L980.92,698.71L981.5,698.71L982.08,698.71L982.66,698.71L983.24,698.71L983.82,698.71L984.4,698.71L984.98,698.71L985.56,698.71L986.14,698.71L986.72,698.71L987.3,698.7L987.88,698.73L988.45,698.71L989.03,698.7L989.61,698.7L990.19,698.68L990.77,698.67L991.35,698.67L991.93,698.67L992.51,698.67L993.09,698.65L993.67,698.67L994.25,698.65L994.83,698.65L995.41,698.65L995.99,698.65L996.57,698.64L997.15,698.65L997.73,698.64L998.3,698.65L998.88,698.62L999.46,698.64L1000,698.64L1000.6,698.64L1001.2,698.62L1001.8,698.6L1002.4,698.6L1002.9,698.6L1003.5,698.57L1004.1,698.56L1004.7,698.57L1005.3,698.56L1005.8,698.57L1006.4,698.54L1007,698.54L1007.6,698.56L1008.2,698.54L1008.7,698.53L1009.3,698.53L1009.9,698.54L1010.5,698.56L1011.1,698.54L1011.6,698.56L1012.2,698.54L1012.8,698.53L1013.4,698.53L1013.9,698.53L1014.5,698.53L1015.1,698.51L1015.7,698.48L1016.3,698.48L1016.8,698.45L1017.4,698.45L1018,698.44L1018.6,698.42L1019.2,698.39L1019.7,698.39L1020.3,698.38L1020.9,698.38L1021.5,698.38L1022.1,698.38L1022.6,698.36L1023.2,698.38L1023.8,698.38L1024.4,698.35L1025,698.36L1025.5,698.35L1026.1,698.35L1026.7,698.32L1027.3,698.33L1027.9,698.33L1028.4,698.33L1029,698.32L1029.6,698.33L1030.2,698.32L1030.8,698.32L1031.3,698.32L1031.9,698.32L1032.5,698.3L1033.1,698.32L1033.6,698.3L1034.2,698.3L1034.8,698.32L1035.4,698.29L1036,698.3L1036.5,698.29L1037.1,698.29L1037.7,698.3L1038.3,698.29L1038.9,698.29L1039.4,698.27L1040,698.24L1040.6,698.27L1041.2,698.26L1041.8,698.26L1042.3,698.24L1042.9,698.26L1043.5,698.26L1044.1,698.26L1044.7,698.24L1045.2,698.26L1045.8,698.26L1046.4,698.24L1047,698.26L1047.6,698.26L1048.1,698.26L1048.7,698.26L1049.3,698.26L1049.9,698.24L1050.5,698.26L1051,698.24L1051.6,698.23L1052.2,698.26L1052.8,698.24L1053.3,698.23L1053.9,698.23L1054.5,698.23L1055.1,698.23L1055.7,698.23L1056.2,698.21L1056.8,698.21L1057.4,698.23L1058,698.23L1058.6,698.23L1059.1,698.23L1059.7,698.23L1060.3,698.21L1060.9,698.23L1061.5,698.24L1062,698.24L1062.6,698.21L1063.2,698.21L1063.8,698.23L1064.4,698.23L1064.9,698.21L1065.5,698.21L1066.1,698.21L1066.7,698.18L1067.3,698.18L1067.8,698.15L1068.4,698.15L1069,698.17L1069.6,698.17L1070.2,698.14L1070.7,698.14L1071.3,698.14L1071.9,698.14L1072.5,698.12L1073,698.12L1073.6,698.11L1074.2,698.12L1074.8,698.11L1075.4,698.11L1075.9,698.11L1076.5,698.08L1077.1,698.09L1077.7,698.11L1078.3,698.09L1078.8,698.08L1079.4,698.08L1080,698.09" style="fill:none;stroke:#7AC36A;stroke-width:1.875;stroke-dasharray:7.5,2.5" />
<path d="M1055,693.4L1080,693.4" style="fill:none;stroke:#F15A60;stroke-width:1.875" />
<text x="882.43" y="-686.35" transform="scale(1, -1)"
	style="font-family:Helvetica;font-weight:normal;font-style:normal;font-size:12pt">etcd v3 (no compression)</text>
<path d="M1055,678.7L1080,678.7" style="fill:none;stroke:#7AC36A;stroke-width:1.875;stroke-dasharray:7.5,2.5" />
<text x="937.44" y="-671.65" transform="scale(1, -1)"
	style="font-family:Helvetica;font-weight:normal;font-style:normal;font-size:12pt">etcd v3 (Snappy)</text>
</g>
</svg>
