<?xml version="1.0"?>
<!-- Generated by SVGo and Plotinum VG -->
<svg width="12in" height="8in"
	xmlns="http://www.w3.org/2000/svg"
	xmlns:xlink="http://www.w3.org/1999/xlink">
<g transform="scale(1, -1) translate(0, -720)">
<path d="M0,0L1080,0L1080,720L0,720Z" style="fill:#FFFFFF" />
<text x="236.66" y="-705.6" transform="scale(1, -1)"
	style="font-family:Helvetica;font-weight:normal;font-style:normal;font-size:12pt">Read 2M keys, 1000-client, 700-conn, 8-byte same key, 1.3 MB value, Latency(millisecond)</text>
<text x="548.46" y="-4.8486" transform="scale(1, -1)"
	style="font-family:Helvetica;font-weight:normal;font-style:normal;font-size:12pt">Second</text>
<text x="64.31" y="-19.498" transform="scale(1, -1)"
	style="font-family:Helvetica;font-weight:normal;font-style:normal;font-size:10pt">0</text>
<text x="344.92" y="-19.498" transform="scale(1, -1)"
	style="font-family:Helvetica;font-weight:normal;font-style:normal;font-size:10pt">500</text>
<text x="629" y="-19.498" transform="scale(1, -1)"
	style="font-family:Helvetica;font-weight:normal;font-style:normal;font-size:10pt">1000</text>
<text x="916.56" y="-19.498" transform="scale(1, -1)"
	style="font-family:Helvetica;font-weight:normal;font-style:normal;font-size:10pt">1500</text>
<path d="M67.786,31.498L67.786,41.498" style="fill:none;stroke:#000000;stroke-width:0.625" />
<path d="M355.35,31.498L355.35,41.498" style="fill:none;stroke:#000000;stroke-width:0.625" />
<path d="M642.91,31.498L642.91,41.498" style="fill:none;stroke:#000000;stroke-width:0.625" />
<path d="M930.47,31.498L930.47,41.498" style="fill:none;stroke:#000000;stroke-width:0.625" />
<path d="M125.3,36.498L125.3,41.498" style="fill:none;stroke:#000000;stroke-width:0.625" />
<path d="M182.81,36.498L182.81,41.498" style="fill:none;stroke:#000000;stroke-width:0.625" />
<path d="M240.32,36.498L240.32,41.498" style="fill:none;stroke:#000000;stroke-width:0.625" />
<path d="M297.83,36.498L297.83,41.498" style="fill:none;stroke:#000000;stroke-width:0.625" />
<path d="M412.86,36.498L412.86,41.498" style="fill:none;stroke:#000000;stroke-width:0.625" />
<path d="M470.37,36.498L470.37,41.498" style="fill:none;stroke:#000000;stroke-width:0.625" />
<path d="M527.88,36.498L527.88,41.498" style="fill:none;stroke:#000000;stroke-width:0.625" />
<path d="M585.4,36.498L585.4,41.498" style="fill:none;stroke:#000000;stroke-width:0.625" />
<path d="M700.42,36.498L700.42,41.498" style="fill:none;stroke:#000000;stroke-width:0.625" />
<path d="M757.93,36.498L757.93,41.498" style="fill:none;stroke:#000000;stroke-width:0.625" />
<path d="M815.44,36.498L815.44,41.498" style="fill:none;stroke:#000000;stroke-width:0.625" />
<path d="M872.96,36.498L872.96,41.498" style="fill:none;stroke:#000000;stroke-width:0.625" />
<path d="M987.98,36.498L987.98,41.498" style="fill:none;stroke:#000000;stroke-width:0.625" />
<path d="M1045.5,36.498L1045.5,41.498" style="fill:none;stroke:#000000;stroke-width:0.625" />
<path d="M67.786,41.498L1080,41.498" style="fill:none;stroke:#000000;stroke-width:0.625" />
<g transform="rotate(90)">
<text x="306.05" y="14.399" transform="scale(1, -1)"
	style="font-family:Helvetica;font-weight:normal;font-style:normal;font-size:12pt">Latency(millisecond)</text>
</g>
<text x="19.248" y="-198.62" transform="scale(1, -1)"
	style="font-family:Helvetica;font-weight:normal;font-style:normal;font-size:10pt">1000</text>
<text x="19.248" y="-385.45" transform="scale(1, -1)"
	style="font-family:Helvetica;font-weight:normal;font-style:normal;font-size:10pt">1500</text>
<text x="19.248" y="-572.28" transform="scale(1, -1)"
	style="font-family:Helvetica;font-weight:normal;font-style:normal;font-size:10pt">2000</text>
<path d="M50.529,204.5L60.529,204.5" style="fill:none;stroke:#000000;stroke-width:0.625" />
<path d="M50.529,391.33L60.529,391.33" style="fill:none;stroke:#000000;stroke-width:0.625" />
<path d="M50.529,578.15L60.529,578.15" style="fill:none;stroke:#000000;stroke-width:0.625" />
<path d="M55.529,55.038L60.529,55.038" style="fill:none;stroke:#000000;stroke-width:0.625" />
<path d="M55.529,92.403L60.529,92.403" style="fill:none;stroke:#000000;stroke-width:0.625" />
<path d="M55.529,129.77L60.529,129.77" style="fill:none;stroke:#000000;stroke-width:0.625" />
<path d="M55.529,167.13L60.529,167.13" style="fill:none;stroke:#000000;stroke-width:0.625" />
<path d="M55.529,241.86L60.529,241.86" style="fill:none;stroke:#000000;stroke-width:0.625" />
<path d="M55.529,279.23L60.529,279.23" style="fill:none;stroke:#000000;stroke-width:0.625" />
<path d="M55.529,316.59L60.529,316.59" style="fill:none;stroke:#000000;stroke-width:0.625" />
<path d="M55.529,353.96L60.529,353.96" style="fill:none;stroke:#000000;stroke-width:0.625" />
<path d="M55.529,428.69L60.529,428.69" style="fill:none;stroke:#000000;stroke-width:0.625" />
<path d="M55.529,466.06L60.529,466.06" style="fill:none;stroke:#000000;stroke-width:0.625" />
<path d="M55.529,503.42L60.529,503.42" style="fill:none;stroke:#000000;stroke-width:0.625" />
<path d="M55.529,540.79L60.529,540.79" style="fill:none;stroke:#000000;stroke-width:0.625" />
<path d="M55.529,615.52L60.529,615.52" style="fill:none;stroke:#000000;stroke-width:0.625" />
<path d="M55.529,652.88L60.529,652.88" style="fill:none;stroke:#000000;stroke-width:0.625" />
<path d="M55.529,690.25L60.529,690.25" style="fill:none;stroke:#000000;stroke-width:0.625" />
<path d="M60.529,48.06L60.529,700.75" style="fill:none;stroke:#000000;stroke-width:0.625" />
<path d="M67.786,379.77L68.361,700.75L68.936,177.53L69.511,113.47L70.086,112.46L70.661,125.7L71.236,119.35L71.811,126.67L72.387,122.66L72.962,127.16L73.537,116.66L74.112,131.08L74.687,113.76L75.262,122.47L75.837,66.366L76.412,117.46L76.988,157.85L77.563,135.51L78.138,126.81L78.713,122.46L79.288,118.66L79.863,130.84L80.438,126.21L81.013,122.83L81.589,116.56L82.164,122.77L82.739,112.61L83.314,123.69L83.889,126.97L84.464,114L85.039,117.82L85.614,124.23L86.19,113.52L86.765,125.27L87.34,117.51L87.915,115.94L88.49,130.98L89.065,122.89L89.64,125.41L90.215,113.97L90.791,124.06L91.366,119.44L91.941,120.3L92.516,121.98L93.091,117.76L93.666,125.4L94.241,122.48L94.816,127.07L95.391,111.11L95.967,120.43L96.542,121.71L97.117,124.01L97.692,126.86L98.267,123.15L98.842,123L99.417,129.64L99.992,132.03L100.57,119.29L101.14,119.25L101.72,130.07L102.29,138.94L102.87,122.06L103.44,111.76L104.02,121.12L104.59,123.55L105.17,123.76L105.74,125.84L106.32,117.19L106.89,117.82L107.47,125.5L108.04,128.26L108.62,116.37L109.19,113.07L109.77,115.64L110.34,132.81L110.92,111.46L111.49,127.97L112.07,115.95L112.65,119.48L113.22,119.93L113.8,121.54L114.37,125.11L114.95,127.22L115.52,128.56L116.1,118.39L116.67,124.57L117.25,125.41L117.82,115.79L118.4,125.06L118.97,115.46L119.55,123.5L120.12,123.62L120.7,119.81L121.27,119.68L121.85,120.66L122.42,118.61L123,127.21L123.57,122.45L124.15,118.45L124.72,117.11L125.3,137.22L125.87,116.58L126.45,120.11L127.02,128.79L127.6,110.89L128.17,121.13L128.75,127.51L129.32,121.91L129.9,117.11L130.47,119.36L131.05,126.33L131.62,126.59L132.2,117.58L132.77,112.52L133.35,133.02L133.92,124.04L134.5,127.02L135.07,121.45L135.65,117.84L136.23,125.63L136.8,122.73L137.38,124.03L137.95,110.67L138.53,126.3L139.1,126.79L139.68,121.88L140.25,121.7L140.83,122.12L141.4,114.91L141.98,118.78L142.55,124.09L143.13,117.75L143.7,128.77L144.28,122.14L144.85,117.53L145.43,125.4L146,120.37L146.58,127.06L147.15,119.82L147.73,121.89L148.3,120.11L148.88,126.12L149.45,124.94L150.03,127.72L150.6,133.32L151.18,113.75L151.75,121.82L152.33,126.06L152.9,119.01L153.48,125.3L154.05,116.86L154.63,115.22L155.2,120.23L155.78,126.06L156.35,120.22L156.93,114.68L157.5,123.38L158.08,118.82L158.65,117.21L159.23,121.05L159.81,115.85L160.38,130.16L160.96,127.72L161.53,117.29L162.11,125.41L162.68,113.5L163.26,119.99L163.83,127.57L164.41,120.29L164.98,111.02L165.56,131.03L166.13,118.75L166.71,115.49L167.28,125.56L167.86,115.99L168.43,120.27L169.01,115.35L169.58,123.87L170.16,120.28L170.73,114.07L171.31,125.24L171.88,127.4L172.46,122.93L173.03,113.52L173.61,120.52L174.18,122.27L174.76,125.07L175.33,117.63L175.91,122.16L176.48,116.33L177.06,123.67L177.63,121.34L178.21,118.89L178.78,125.31L179.36,116.76L179.93,118.12L180.51,121.3L181.08,122.69L181.66,125.58L182.23,127.6L182.81,109.66L183.39,129.66L183.96,123.77L184.54,126.75L185.11,123.63L185.69,127.26L186.26,115.62L186.84,124.35L187.41,121.02L187.99,114.66L188.56,129.03L189.14,130.2L189.71,120.43L190.29,125.62L190.86,112.33L191.44,120.56L192.01,123.93L192.59,127.4L193.16,123.81L193.74,124.43L194.31,119.2L194.89,125.3L195.46,113.12L196.04,128.62L196.61,124.65L197.19,122.77L197.76,122.4L198.34,121.09L198.91,121.59L199.49,118.23L200.06,117.97L200.64,126.73L201.21,119.38L201.79,115.69L202.36,120.94L202.94,127.58L203.51,121.13L204.09,116.66L204.66,128.43L205.24,124.65L205.81,114.87L206.39,129.35L206.97,123.92L207.54,111.39L208.12,125.47L208.69,123.38L209.27,129.89L209.84,115.81L210.42,121.23L210.99,121.64L211.57,124.04L212.14,126.47L212.72,119.95L213.29,122.1L213.87,130.32L214.44,125.14L215.02,119.47L215.59,141.19L216.17,116.94L216.74,118.18L217.32,119L217.89,124.96L218.47,127.65L219.04,128.6L219.62,128.3L220.19,116.84L220.77,129.74L221.34,121.24L221.92,123.18L222.49,122.22L223.07,118.35L223.64,126.87L224.22,121.56L224.79,120.85L225.37,121.98L225.94,120.08L226.52,130.44L227.09,123.56L227.67,120.33L228.24,120.54L228.82,121.07L229.39,135.09L229.97,128.41L230.55,125.29L231.12,114.07L231.7,121.13L232.27,125.37L232.85,128.88L233.42,128.73L234,121.74L234.57,121.94L235.15,126.43L235.72,116.6L236.3,118.73L236.87,133.58L237.45,125L238.02,124.86L238.6,124.53L239.17,127.67L239.75,123.76L240.32,130.98L240.9,122.92L241.47,132.49L242.05,113.23L242.62,113.89L243.2,125.39L243.77,127.62L244.35,117.84L244.92,109.42L245.5,129.49L246.07,120.87L246.65,123.09L247.22,132.98L247.8,122.54L248.37,116.16L248.95,118.6L249.52,124.15L250.1,117.9L250.67,117.93L251.25,122.91L251.82,125.72L252.4,113.16L252.97,124.99L253.55,135.2L254.13,119.33L254.7,130.1L255.28,126.68L255.85,124.03L256.43,122.56L257,119.5L257.58,121.64L258.15,127.87L258.73,126.97L259.3,121.18L259.88,122.47L260.45,119.03L261.03,122.12L261.6,124.03L262.18,120.9L262.75,127.47L263.33,123.58L263.9,118.07L264.48,134.69L265.05,140.7L265.63,127.28L266.2,127.29L266.78,119.25L267.35,129.55L267.93,126.08L268.5,125.12L269.08,134.03L269.65,129.41L270.23,130.1L270.8,133.88L271.38,119.5L271.95,131.61L272.53,132.64L273.1,129.11L273.68,122.33L274.25,115.74L274.83,125.7L275.4,129.98L275.98,113.42L276.55,121.89L277.13,129.66L277.71,111.24L278.28,128.93L278.86,122.91L279.43,116.12L280.01,124.16L280.58,125.72L281.16,122.54L281.73,125.37L282.31,121.06L282.88,128.1L283.46,114.63L284.03,120.91L284.61,123.2L285.18,123.3L285.76,124.16L286.33,127.05L286.91,126.37L287.48,119.17L288.06,136.36L288.63,123.04L289.21,121.88L289.78,118.2L290.36,122.78L290.93,141.37L291.51,142.73L292.08,154.73L292.66,133.05L293.23,153.85L293.81,127.05L294.38,120.25L294.96,132.04L295.53,132.14L296.11,125.46L296.68,139.18L297.26,144.84L297.83,143.13L298.41,136.6L298.98,146L299.56,135.52L300.13,153.9L300.71,153.58L301.29,151.99L301.86,147.34L302.44,155.17L303.01,157.82L303.59,143.2L304.16,132.62L304.74,143.04L305.31,136.36L305.89,150.04L306.46,147.65L307.04,150.07L307.61,134.43L308.19,138.13L308.76,130.76L309.34,135.13L309.91,141.57L310.49,141.27L311.06,137.08L311.64,136.75L312.21,142.25L312.79,134.64L313.36,136.26L313.94,131.52L314.51,150.92L315.09,139.48L315.66,128.97L316.24,134.67L316.81,131.62L317.39,125.81L317.96,127.78L318.54,134.75L319.11,131.54L319.69,127.31L320.26,138.34L320.84,149.48L321.41,127.77L321.99,128.84L322.56,138.01L323.14,140.43L323.71,132.01L324.29,131.08L324.87,138.26L325.44,130.75L326.02,147.29L326.59,137.77L327.17,143.2L327.74,150.37L328.32,146.84L328.89,141.21L329.47,140.87L330.04,139.61L330.62,128.69L331.19,121.18L331.77,125.5L332.34,130.58L332.92,130.03L333.49,141.95L334.07,131.6L334.64,140.44L335.22,129.26L335.79,149.6L336.37,130.07L336.94,133.71L337.52,135.44L338.09,127.75L338.67,125.27L339.24,123.74L339.82,119.27L340.39,135.48L340.97,131.32L341.54,121.8L342.12,117.5L342.69,136.4L343.27,136.19L343.84,139.38L344.42,134.22L344.99,123.82L345.57,132.55L346.14,135.24L346.72,146.74L347.29,144.73L347.87,135.89L348.45,129.83L349.02,154.76L349.6,153.34L350.17,149.71L350.75,156.98L351.32,132.99L351.9,142.47L352.47,132.6L353.05,141.79L353.62,133.05L354.2,131.7L354.77,126.55L355.35,138.75L355.92,143.93L356.5,130.97L357.07,132.26L357.65,118.51L358.22,126.73L358.8,132.29L359.37,135.22L359.95,135.81L360.52,119.32L361.1,129.58L361.67,127.1L362.25,136.3L362.82,119.94L363.4,117.74L363.97,114.74L364.55,123.12L365.12,133.27L365.7,121.62L366.27,138.91L366.85,133.9L367.42,135.52L368,131.63L368.57,126.42L369.15,137.41L369.72,127.06L370.3,126.5L370.87,130.06L371.45,142.14L372.03,125.42L372.6,134.27L373.18,126.82L373.75,125.59L374.33,130.64L374.9,125.2L375.48,135.87L376.05,125.57L376.63,128.12L377.2,129.33L377.78,130.91L378.35,118.16L378.93,130.03L379.5,142.42L380.08,117.98L380.65,128.64L381.23,127.07L381.8,134.87L382.38,130.52L382.95,133.79L383.53,126.69L384.1,137.62L384.68,114.19L385.25,133.42L385.83,125.04L386.4,125.4L386.98,133.42L387.55,131.23L388.13,130.26L388.7,131.01L389.28,129.37L389.85,127.58L390.43,147.47L391,137.46L391.58,150.06L392.15,141.48L392.73,135.46L393.3,127.79L393.88,138.79L394.45,130.95L395.03,131.76L395.61,130.73L396.18,137.08L396.76,116.96L397.33,127.37L397.91,130.79L398.48,132.1L399.06,140.88L399.63,121.56L400.21,120.72L400.78,133.99L401.36,117.94L401.93,128.97L402.51,124.18L403.08,143.19L403.66,123.37L404.23,116.72L404.81,131.13L405.38,142.52L405.96,141.88L406.53,115L407.11,129.61L407.68,127.41L408.26,126.28L408.83,123.35L409.41,136.35L409.98,137.76L410.56,139.05L411.13,129.26L411.71,126.78L412.28,141.15L412.86,142.28L413.43,135.15L414.01,127.97L414.58,131.75L415.16,131.21L415.73,126.66L416.31,123.88L416.88,129.35L417.46,129.68L418.03,127.59L418.61,138.8L419.19,126.92L419.76,131.18L420.34,126.24L420.91,124.02L421.49,118.56L422.06,127.64L422.64,125.17L423.21,119.42L423.79,124.03L424.36,132.84L424.94,132.18L425.51,135.84L426.09,134.95L426.66,122.8L427.24,123.44L427.81,121.72L428.39,136.16L428.96,135.31L429.54,136.87L430.11,129.5L430.69,124L431.26,118.43L431.84,140.63L432.41,130.45L432.99,124.7L433.56,127.27L434.14,130.61L434.71,118.08L435.29,121.87L435.86,128.65L436.44,127.36L437.01,132.59L437.59,121.3L438.16,115.8L438.74,132.93L439.31,140.61L439.89,126.45L440.46,136.91L441.04,134.07L441.61,128.21L442.19,124.86L442.77,128.02L443.34,133.5L443.92,136.26L444.49,142.12L445.07,136.36L445.64,136.06L446.22,137.3L446.79,145.8L447.37,138.87L447.94,141.71L448.52,125.09L449.09,132.3L449.67,129.84L450.24,116.33L450.82,137.68L451.39,134.42L451.97,116.55L452.54,128.43L453.12,131.07L453.69,129.78L454.27,125.17L454.84,131.57L455.42,127.74L455.99,128.04L456.57,113.81L457.14,117.01L457.72,129.07L458.29,131.47L458.87,114.5L459.44,122.55L460.02,118.88L460.59,130.68L461.17,131.62L461.74,113.77L462.32,116.61L462.89,125.09L463.47,121.05L464.04,107.71L464.62,127.75L465.19,133.64L465.77,115.1L466.35,118.04L466.92,124.41L467.5,126.66L468.07,115.15L468.65,121.45L469.22,110.55L469.8,119.37L470.37,121.14L470.95,119.63L471.52,116.26L472.1,119.39L472.67,122.27L473.25,124.44L473.82,114.01L474.4,116.29L474.97,114.65L475.55,106.39L476.12,124.91L476.7,115.46L477.27,104.07L477.85,128.77L478.42,110.92L479,117.64L479.57,119.92L480.15,118.36L480.72,118.32L481.3,122.4L481.87,116.14L482.45,111.91L483.02,125.01L483.6,112.65L484.17,121.12L484.75,115.8L485.32,124.95L485.9,103.68L486.47,113.76L487.05,120.52L487.62,115.29L488.2,124.3L488.77,121.59L489.35,121.93L489.93,118.77L490.5,119.13L491.08,127.78L491.65,112.04L492.23,118.51L492.8,115.54L493.38,115.11L493.95,120.98L494.53,120.59L495.1,113.25L495.68,118.15L496.25,112.23L496.83,116.92L497.4,110.48L497.98,116.23L498.55,125.59L499.13,117.69L499.7,119.93L500.28,119.89L500.85,120.02L501.43,105.1L502,117.26L502.58,124.67L503.15,110.43L503.73,114.26L504.3,109.16L504.88,122.11L505.45,116.56L506.03,116.7L506.6,118.2L507.18,129.99L507.75,123.71L508.33,110.81L508.9,123.23L509.48,115.9L510.05,123.66L510.63,129.55L511.2,128.32L511.78,122.96L512.35,119.36L512.93,119.88L513.51,112.68L514.08,125.29L514.66,103.16L515.23,117.42L515.81,114.15L516.38,121.72L516.96,125.28L517.53,121.82L518.11,105.56L518.68,117.44L519.26,122.98L519.83,115.51L520.41,119.83L520.98,114.65L521.56,120.11L522.13,127.66L522.71,117.31L523.28,124.96L523.86,125.84L524.43,113.02L525.01,108.64L525.58,118.63L526.16,118.9L526.73,111.24L527.31,119.97L527.88,121.18L528.46,105.45L529.03,126.31L529.61,114.95L530.18,109.73L530.76,111.44L531.33,110.95L531.91,123.79L532.48,109.3L533.06,119.94L533.63,113.37L534.21,122.41L534.78,102.95L535.36,115.17L535.93,116.7L536.51,111.09L537.09,118.09L537.66,112.04L538.24,125.7L538.81,121.81L539.39,110.98L539.96,112.81L540.54,117.98L541.11,120.18L541.69,113.62L542.26,118.38L542.84,113.91L543.41,125.37L543.99,112.72L544.56,114.13L545.14,116.57L545.71,114.31L546.29,124.77L546.86,105.16L547.44,120.42L548.01,115.83L548.59,122.51L549.16,120.03L549.74,113.67L550.31,114.98L550.89,118.64L551.46,110.57L552.04,140.46L552.61,115.18L553.19,117.46L553.76,119.42L554.34,110.51L554.91,114.41L555.49,117.1L556.06,116.45L556.64,105.56L557.21,116.81L557.79,122.56L558.36,101.44L558.94,117.94L559.51,126.02L560.09,112.61L560.67,109.04L561.24,115.17L561.82,121.86L562.39,120.45L562.97,124.26L563.54,108.21L564.12,134.8L564.69,111.34L565.27,111.63L565.84,116.74L566.42,117.51L566.99,111.22L567.57,122.39L568.14,118.66L568.72,118.36L569.29,115.68L569.87,114.99L570.44,114.69L571.02,107.8L571.59,112.55L572.17,100.83L572.74,118.83L573.32,127.77L573.89,112.17L574.47,108.81L575.04,120.49L575.62,120.65L576.19,118.94L576.77,115.9L577.34,118.39L577.92,118.91L578.49,128.55L579.07,116.05L579.64,116.8L580.22,110.62L580.79,113.89L581.37,124.64L581.94,126.05L582.52,125.44L583.09,129.56L583.67,125L584.25,135.24L584.82,123.92L585.4,127.16L585.97,133.3L586.55,132.81L587.12,130.22L587.7,121.65L588.27,113.84L588.85,118.36L589.42,111.86L590,119.66L590.57,125.62L591.15,118.28L591.72,114L592.3,114.39L592.87,126.49L593.45,111.91L594.02,118.45L594.6,114.36L595.17,114.27L595.75,109.86L596.32,117.53L596.9,121.9L597.47,119.4L598.05,106.62L598.62,126.29L599.2,111.29L599.77,106.39L600.35,118.2L600.92,117.99L601.5,115.35L602.07,112.37L602.65,118.04L603.22,120.88L603.8,119.52L604.37,123.31L604.95,114.89L605.52,109.06L606.1,114.27L606.67,114.69L607.25,119.91L607.83,115.87L608.4,107.7L608.98,123.59L609.55,115.93L610.13,114.66L610.7,106.68L611.28,115.86L611.85,123.64L612.43,108.3L613,109.49L613.58,113.31L614.15,123.82L614.73,121.39L615.3,123.97L615.88,113.45L616.45,138.12L617.03,133.39L617.6,129.41L618.18,132.58L618.75,121.47L619.33,132.37L619.9,130.31L620.48,135.57L621.05,110.39L621.63,122.9L622.2,107.8L622.78,117.62L623.35,112.61L623.93,110.55L624.5,115.7L625.08,117.6L625.65,124.57L626.23,113.2L626.8,121.75L627.38,118.35L627.95,119.15L628.53,118.31L629.1,126.03L629.68,123.77L630.25,119.39L630.83,120.75L631.41,113.28L631.98,120.75L632.56,125.62L633.13,114.35L633.71,114.96L634.28,117.16L634.86,111.9L635.43,112.06L636.01,115.24L636.58,115.25L637.16,122.7L637.73,115.7L638.31,120.95L638.88,115.1L639.46,109.79L640.03,122.49L640.61,116.79L641.18,108.99L641.76,115.38L642.33,106.07L642.91,113.79L643.48,116.7L644.06,105.26L644.63,123.03L645.21,112.73L645.78,120.42L646.36,115.33L646.93,116.24L647.51,107.73L648.08,115.91L648.66,119.23L649.23,118.66L649.81,115.71L650.38,106.02L650.96,117.35L651.53,111.1L652.11,114.51L652.68,120.22L653.26,115.45L653.83,118.03L654.41,115.74L654.98,112.66L655.56,121.5L656.14,104.48L656.71,119.52L657.29,115.8L657.86,120.2L658.44,115.04L659.01,104.22L659.59,120.28L660.16,112.76L660.74,109.84L661.31,120.03L661.89,118.74L662.46,118.16L663.04,114.25L663.61,107.3L664.19,117.29L664.76,122.02L665.34,109.53L665.91,118.11L666.49,115.9L667.06,122.29L667.64,118.08L668.21,114.79L668.79,123.1L669.36,105.61L669.94,111.46L670.51,126.19L671.09,125.24L671.66,108.89L672.24,125.15L672.81,105.67L673.39,110.69L673.96,110.16L674.54,122.77L675.11,118.05L675.69,110.85L676.26,114.52L676.84,117.56L677.41,116.29L677.99,113.67L678.56,119.35L679.14,111.05L679.72,125.1L680.29,109.08L680.87,115.54L681.44,112.03L682.02,117.47L682.59,112.94L683.17,117.94L683.74,113.21L684.32,123.25L684.89,112.98L685.47,115.31L686.04,109.74L686.62,117.44L687.19,103.9L687.77,119.19L688.34,119.33L688.92,112.82L689.49,114.97L690.07,116.85L690.64,110.54L691.22,108.98L691.79,116.34L692.37,122.68L692.94,115L693.52,101.93L694.09,112.92L694.67,110.44L695.24,112.07L695.82,115.56L696.39,111.05L696.97,120.76L697.54,110.56L698.12,108.17L698.69,118.95L699.27,114.74L699.84,109.86L700.42,121.42L700.99,113.02L701.57,123.1L702.14,109.66L702.72,117.3L703.3,105.9L703.87,118.15L704.45,114.75L705.02,108.48L705.6,118.63L706.17,115.18L706.75,124.52L707.32,103.92L707.9,119.73L708.47,123.85L709.05,119.33L709.62,108.3L710.2,120.85L710.77,121.86L711.35,122.05L711.92,116.44L712.5,118.35L713.07,108.32L713.65,113.96L714.22,118.25L714.8,118.16L715.37,110.58L715.95,114.97L716.52,128.46L717.1,107.13L717.67,121.51L718.25,105.7L718.82,111L719.4,115.57L719.97,116.87L720.55,107.91L721.12,107.4L721.7,113.11L722.27,113.49L722.85,122.11L723.42,112.79L724,112.18L724.57,120.95L725.15,113.99L725.72,106.94L726.3,112.01L726.88,120.43L727.45,110.83L728.03,118.62L728.6,114.54L729.18,110.13L729.75,111.99L730.33,112.39L730.9,108.43L731.48,107.9L732.05,124.72L732.63,121.9L733.2,108.07L733.78,124.18L734.35,120.76L734.93,112.83L735.5,114.83L736.08,123.71L736.65,114.58L737.23,113.68L737.8,113.64L738.38,114.58L738.95,119.81L739.53,108.44L740.1,121.11L740.68,114.22L741.25,119.94L741.83,105.99L742.4,114.55L742.98,111.41L743.55,111.45L744.13,117.06L744.7,114.34L745.28,109.64L745.85,108.72L746.43,124.56L747,123.93L747.58,118.28L748.15,114.61L748.73,122.57L749.3,116.7L749.88,126.77L750.46,128.22L751.03,111.72L751.61,113.44L752.18,119.43L752.76,112.87L753.33,117.37L753.91,114.62L754.48,130.71L755.06,128.54L755.63,120.94L756.21,133.83L756.78,124.38L757.36,137.8L757.93,122.4L758.51,124.13L759.08,134.32L759.66,130.29L760.23,108.34L760.81,114.74L761.38,105.12L761.96,128.24L762.53,107.82L763.11,114.04L763.68,116.68L764.26,119.46L764.83,107.8L765.41,113.93L765.98,118.62L766.56,108.83L767.13,116.03L767.71,115.9L768.28,114.63L768.86,121.58L769.43,113.39L770.01,118.93L770.58,113.12L771.16,123.8L771.73,109.55L772.31,115.44L772.88,114.9L773.46,110.05L774.04,116.98L774.61,108.01L775.19,117.53L775.76,105.3L776.34,117.7L776.91,113.35L777.49,115.78L778.06,102.72L778.64,123.96L779.21,120.11L779.79,114.52L780.36,112.37L780.94,114.07L781.51,116.92L782.09,107.44L782.66,108.96L783.24,122.71L783.81,121.52L784.39,112.3L784.96,118.19L785.54,113.49L786.11,117.07L786.69,119.5L787.26,121.2L787.84,129.97L788.41,126.48L788.99,133.33L789.56,118.14L790.14,131.48L790.71,126L791.29,136.55L791.86,128.89L792.44,126.33L793.01,130.58L793.59,117.23L794.16,119.82L794.74,116.72L795.31,115.38L795.89,116.65L796.46,114.76L797.04,109.26L797.62,121.31L798.19,114.2L798.77,111.44L799.34,111.3L799.92,119.48L800.49,120.82L801.07,120.51L801.64,111.97L802.22,117.05L802.79,108.21L803.37,121.45L803.94,114.85L804.52,119.63L805.09,120.98L805.67,117.95L806.24,112.65L806.82,115.24L807.39,108.73L807.97,114.04L808.54,115.13L809.12,111.8L809.69,108.11L810.27,118.87L810.84,116.65L811.42,107.74L811.99,109.76L812.57,119.25L813.14,118.16L813.72,119.47L814.29,109.36L814.87,113.38L815.44,110.38L816.02,110.86L816.59,114.6L817.17,120.18L817.74,111.77L818.32,114.1L818.89,119.13L819.47,114.32L820.04,114.08L820.62,111.92L821.2,116.17L821.77,121.29L822.35,106.44L822.92,113.7L823.5,118.91L824.07,113.77L824.65,119.34L825.22,111.68L825.8,112.98L826.37,114.58L826.95,120.96L827.52,116.35L828.1,116.74L828.67,115.48L829.25,125.06L829.82,116.99L830.4,134.22L830.97,118.05L831.55,114.57L832.12,118.86L832.7,110.89L833.27,110.71L833.85,118.45L834.42,112.86L835,109.02L835.57,114.84L836.15,124.09L836.72,103.25L837.3,109.55L837.87,108.77L838.45,123.31L839.02,113.67L839.6,123.96L840.17,123.32L840.75,115.49L841.32,121.26L841.9,135.58L842.47,146.29L843.05,128.29L843.62,139.2L844.2,130.97L844.78,144L845.35,137.72L845.93,121.11L846.5,108.95L847.08,118.22L847.65,141.82L848.23,144.61L848.8,128.98L849.38,134.85L849.95,137.56L850.53,141.09L851.1,135.7L851.68,140.58L852.25,136.72L852.83,145.87L853.4,144.17L853.98,142.46L854.55,151.6L855.13,137.55L855.7,150.89L856.28,135.49L856.85,143.16L857.43,138.33L858,133.5L858.58,133.48L859.15,134.1L859.73,140.7L860.3,133.92L860.88,130.24L861.45,134.51L862.03,121.84L862.6,135.42L863.18,135.27L863.75,127.47L864.33,138.1L864.9,144.98L865.48,141.05L866.05,147.97L866.63,138.96L867.2,127.23L867.78,144.21L868.36,141.07L868.93,148.05L869.51,148.29L870.08,136.56L870.66,153.85L871.23,138.71L871.81,135.69L872.38,138.87L872.96,133.32L873.53,128.8L874.11,133.21L874.68,140.11L875.26,136.26L875.83,130.96L876.41,130.91L876.98,143.24L877.56,137.44L878.13,129.78L878.71,140.95L879.28,124.45L879.86,129.03L880.43,135.92L881.01,131.74L881.58,133.82L882.16,137.1L882.73,138.56L883.31,138.42L883.88,133.97L884.46,141.26L885.03,121.97L885.61,132.62L886.18,128.73L886.76,146.89L887.33,153.42L887.91,135.54L888.48,133.92L889.06,141.7L889.63,135.47L890.21,145.97L890.78,129.61L891.36,126.56L891.94,138.73L892.51,139.55L893.09,139.79L893.66,135.31L894.24,138.06L894.81,135.53L895.39,148.41L895.96,144.74L896.54,139.97L897.11,140.7L897.69,136.2L898.26,136.15L898.84,130.02L899.41,148.41L899.99,121.68L900.56,138.14L901.14,140.49L901.71,134.99L902.29,136.67L902.86,131.46L903.44,130.11L904.01,132.81L904.59,126.04L905.16,139.89L905.74,123.74L906.31,125.46L906.89,141.44L907.46,130.49L908.04,145.95L908.61,137.83L909.19,148.43L909.76,138.41L910.34,133L910.91,135.16L911.49,129.64L912.06,142.07L912.64,135.34L913.21,134.63L913.79,146.11L914.36,123.88L914.94,136.58L915.52,129.96L916.09,119.4L916.67,128.2L917.24,141.25L917.82,133.59L918.39,123.2L918.97,126L919.54,132.4L920.12,127.64L920.69,132.27L921.27,123.27L921.84,133.06L922.42,131.3L922.99,123.41L923.57,130.04L924.14,137.58L924.72,130.76L925.29,140.13L925.87,121.97L926.44,141.9L927.02,129.85L927.59,140.86L928.17,150.36L928.74,126.88L929.32,131.5L929.89,141.99L930.47,147.54L931.04,144.03L931.62,147.73L932.19,135.44L932.77,144.79L933.34,140.5L933.92,136.62L934.49,134.48L935.07,127.8L935.64,124.61L936.22,128.12L936.79,151.46L937.37,126.7L937.94,134.45L938.52,131.21L939.1,134.13L939.67,126.61L940.25,122.75L940.82,132.57L941.4,132.71L941.97,132.78L942.55,124.57L943.12,131.11L943.7,152.09L944.27,122.71L944.85,136.1L945.42,125.17L946,136.72L946.57,118.64L947.15,134.84L947.72,131.93L948.3,136.66L948.87,136.68L949.45,154.16L950.02,129.07L950.6,140.51L951.17,146.01L951.75,132.46L952.32,141.54L952.9,136.53L953.47,128.69L954.05,131.78L954.62,140.15L955.2,135.45L955.77,134.88L956.35,120.07L956.92,138.68L957.5,130.39L958.07,125.72L958.65,130.05L959.22,146.75L959.8,140.3L960.37,143.94L960.95,133.69L961.52,128.73L962.1,135.39L962.68,133.24L963.25,130.35L963.83,134.05L964.4,137.46L964.98,145.33L965.55,153.73L966.13,137.7L966.7,130.88L967.28,141.15L967.85,135.16L968.43,141.97L969,147.06L969.58,128.84L970.15,129.61L970.73,118.88L971.3,137.65L971.88,137.7L972.45,118.88L973.03,132.02" style="fill:none;stroke:#F15A60;stroke-width:1.875" />
<path d="M67.786,48.06L68.361,373.46L68.936,161.27L69.511,153.22L70.086,171.29L70.661,156.12L71.236,175.48L71.811,161.87L72.387,166.25L72.962,162.34L73.537,180.6L74.112,165.37L74.687,165.56L75.262,169.64L75.837,157.33L76.412,166.1L76.988,169.07L77.563,168.67L78.138,144.14L78.713,151.26L79.288,200.12L79.863,155L80.438,150.44L81.013,157.08L81.589,163.14L82.164,152.68L82.739,161.45L83.314,152.52L83.889,151.45L84.464,158.27L85.039,151.57L85.614,160.39L86.19,147.66L86.765,162.53L87.34,149.35L87.915,156.22L88.49,153.11L89.065,159.1L89.64,149.31L90.215,168.05L90.791,150.42L91.366,161.66L91.941,162.94L92.516,161.42L93.091,166.87L93.666,142.87L94.241,175.73L94.816,164.91L95.391,168.26L95.967,157.56L96.542,175.81L97.117,158.01L97.692,152.97L98.267,146.62L98.842,134.27L99.417,167.68L99.992,162.33L100.57,148.66L101.14,158.27L101.72,158.9L102.29,158.91L102.87,149.82L103.44,157.09L104.02,147.02L104.59,151.37L105.17,158.51L105.74,142.11L106.32,152.76L106.89,156.34L107.47,157.55L108.04,155.65L108.62,146.16L109.19,160.13L109.77,149L110.34,145.17L110.92,154.44L111.49,153.82L112.07,147.98L112.65,152.13L113.22,166.49L113.8,145.58L114.37,154.92L114.95,150.58L115.52,158.77L116.1,149.17L116.67,153.95L117.25,153.39L117.82,150.15L118.4,157.3L118.97,149.5L119.55,146.7L120.12,152.96L120.7,150.12L121.27,151.65L121.85,150.94L122.42,143.86L123,156.8L123.57,153.93L124.15,132.49L124.72,165.91L125.3,150.26L125.87,162.88L126.45,143.47L127.02,152.64L127.6,148.52L128.17,148.17L128.75,152.24L129.32,154.85L129.9,148.78L130.47,153.03L131.05,154.57L131.62,150.83L132.2,142.12L132.77,144.18L133.35,150.91L133.92,146.18L134.5,150.93L135.07,147.81L135.65,150.64L136.23,146.32L136.8,147.15L137.38,152.87L137.95,151.78L138.53,143.08L139.1,137.38L139.68,150.46L140.25,148.39L140.83,150.02L141.4,149.76L141.98,152.85L142.55,151.89L143.13,143.3L143.7,145.33L144.28,151.52L144.85,150.14L145.43,143.98L146,154.72L146.58,147.21L147.15,141.86L147.73,154.45L148.3,146.09L148.88,141.1L149.45,147.16L150.03,150.19L150.6,144.32L151.18,149.98L151.75,159.57L152.33,159.64L152.9,154.87L153.48,161.97L154.05,152.72L154.63,148.57L155.2,164.65L155.78,160.54L156.35,149.21L156.93,162.16L157.5,155.4L158.08,149.87L158.65,148.67L159.23,152.82L159.81,140.02L160.38,151.05L160.96,153.13L161.53,140.45L162.11,157.58L162.68,136.66L163.26,161.24L163.83,143.37L164.41,147.95L164.98,149.19L165.56,147.31L166.13,147.47L166.71,149.24L167.28,150.58L167.86,149.63L168.43,140.97L169.01,146.03L169.58,148.97L170.16,152.52L170.73,139.93L171.31,149.06L171.88,152.43L172.46,148.42L173.03,138.27L173.61,148.36L174.18,143.4L174.76,153.98L175.33,151.87L175.91,146.68L176.48,141.3L177.06,148.54L177.63,147.5L178.21,150.15L178.78,144.45L179.36,149.68L179.93,148.88L180.51,148.67L181.08,149.58L181.66,140.57L182.23,141.98L182.81,150.93L183.39,150.34L183.96,135.95L184.54,146.55L185.11,147.54L185.69,149.57L186.26,147.6L186.84,148.16L187.41,147.73L187.99,125.89L188.56,161.41L189.14,143.69L189.71,148.67L190.29,143.77L190.86,140.9L191.44,138.51L192.01,148.75L192.59,158.6L193.16,140.01L193.74,150.82L194.31,136.57L194.89,169.33L195.46,138.81L196.04,161.2L196.61,148.42L197.19,148.13L197.76,146.15L198.34,150.15L198.91,154.56L199.49,148.43L200.06,157.31L200.64,145.05L201.21,147.88L201.79,157.28L202.36,142.02L202.94,144.17L203.51,149.26L204.09,148.04L204.66,147.49L205.24,147.66L205.81,140.06L206.39,148.54L206.97,146.56L207.54,129.55L208.12,152.76L208.69,150.53L209.27,148.7L209.84,125.67L210.42,168.45L210.99,140.07L211.57,156.58L212.14,145.09L212.72,158.97L213.29,111.47L213.87,175.4L214.44,154.16L215.02,147.75L215.59,141.87L216.17,151.56L216.74,147.63L217.32,145.41L217.89,136.43L218.47,153.65L219.04,153.51L219.62,142.16L220.19,143.56L220.77,151.79L221.34,141.55L221.92,153.03L222.49,142.66L223.07,146.65L223.64,145.86L224.22,149.21L224.79,124.36L225.37,166.58L225.94,143.16L226.52,147.17L227.09,128.32L227.67,146.27L228.24,157.63L228.82,137.26L229.39,153.16L229.97,149.92L230.55,143.96L231.12,142.8L231.7,163.25L232.27,149.84L232.85,141.83L233.42,147.17L234,148.43L234.57,144.65L235.15,157.85L235.72,147.19L236.3,138.96L236.87,145.93L237.45,143.35L238.02,153.38L238.6,148.84L239.17,140.06L239.75,148.64L240.32,146.92L240.9,151.47L241.47,140.95L242.05,137.84L242.62,156.88L243.2,149.57L243.77,142.27L244.35,141.9L244.92,145.19L245.5,148.82L246.07,144.56L246.65,143.52L247.22,159.3L247.8,139.98L248.37,164.43L248.95,149.77L249.52,146.56L250.1,143.57L250.67,147.34L251.25,146.92L251.82,158.1L252.4,146.73L252.97,143.86L253.55,146.61L254.13,135.38L254.7,147.24L255.28,138.6L255.85,155.98L256.43,142.49L257,147.46L257.58,148.1L258.15,148.31L258.73,161.42L259.3,134.84L259.88,157.93L260.45,142.6L261.03,158.22L261.6,141.07L262.18,147.56L262.75,148.43L263.33,145.31L263.9,142.29L264.48,159.13L265.05,152.5L265.63,156.76L266.2,151.81L266.78,170.82L267.35,148.56L267.93,155.15L268.5,159.49L269.08,155.92L269.65,151.3L270.23,146.13L270.8,145.3L271.38,146.01L271.95,151.26L272.53,145.48L273.1,135.51L273.68,155.86L274.25,145.42L274.83,139.3L275.4,160.14L275.98,148.77L276.55,143.16L277.13,161.72L277.71,147.81L278.28,149.3L278.86,159.44L279.43,147.28L280.01,143.43L280.58,150.95L281.16,137.87L281.73,148.59L282.31,149.09L282.88,139.77L283.46,146.97L284.03,129.06L284.61,170.53L285.18,147.53L285.76,142.17L286.33,143.32L286.91,153.08L287.48,144.69L288.06,143.4L288.63,148.12L289.21,147.65L289.78,146.91L290.36,145.81L290.93,137.28L291.51,140.29L292.08,143.97L292.66,144.04L293.23,144.31L293.81,144.2L294.38,148.23L294.96,145.64L295.53,150.85L296.11,137.39L296.68,146.41L297.26,149.08L297.83,140.79L298.41,148.82L298.98,142.35L299.56,156.19L300.13,144.83L300.71,147.14L301.29,137.63L301.86,145.73L302.44,147.22L303.01,146.51L303.59,148.44L304.16,146.53L304.74,144.06L305.31,160.08L305.89,145.8L306.46,149.74L307.04,148.95L307.61,136.42L308.19,144.29L308.76,150.97L309.34,148.24L309.91,152.85L310.49,142.27L311.06,142.57L311.64,149.12L312.21,153.99L312.79,139.41L313.36,142.32L313.94,154.24L314.51,125.12L315.09,160.04L315.66,144.99L316.24,142.11L316.81,150.64L317.39,146.87L317.96,136.74L318.54,152.16L319.11,161.09L319.69,156.28L320.26,148.92L320.84,143.54L321.41,154.87L321.99,148.34L322.56,152.68L323.14,139.58L323.71,149.25L324.29,143.58L324.87,167.55L325.44,148.05L326.02,160.93L326.59,153.72L327.17,157.42L327.74,163.5L328.32,156.03L328.89,173.11L329.47,159.13L330.04,152.54L330.62,143.75L331.19,134.29L331.77,167.03L332.34,142.7L332.92,144.52L333.49,143.22L334.07,146.38L334.64,149.34L335.22,154.99L335.79,152.37L336.37,145.27L336.94,139.65L337.52,145.68L338.09,144.15L338.67,146.62L339.24,139.11L339.82,148.17L340.39,147.64L340.97,145.86L341.54,145.25L342.12,144.59L342.69,147.31L343.27,139.91L343.84,148.23L344.42,147.04L344.99,143.4L345.57,141.82L346.14,140.28L346.72,156.53L347.29,144.58L347.87,134.26L348.45,156.52L349.02,148.04L349.6,146.52L350.17,117.83L350.75,177.24L351.32,147.25L351.9,154.36L352.47,152.65L353.05,152.12L353.62,144.44L354.2,151.16L354.77,146.54L355.35,135.79L355.92,141.15L356.5,154.24L357.07,152.66L357.65,146.66L358.22,144.51L358.8,143.53L359.37,144.32L359.95,143.49L360.52,157.74L361.1,143.82L361.67,142.76L362.25,146.89L362.82,146.04L363.4,139.33L363.97,142.49L364.55,138.84L365.12,160.37L365.7,148.43L366.27,136.45L366.85,146.28L367.42,142.36L368,153.62L368.57,142.96L369.15,141.98L369.72,138.82L370.3,142.75L370.87,141.37L371.45,149.76L372.03,142.89L372.6,156.21L373.18,143.98L373.75,130.65L374.33,161.51L374.9,145.72L375.48,147.52L376.05,144.87L376.63,140.22L377.2,158.73L377.78,116.78L378.35,163.29L378.93,162.07L379.5,145.54L380.08,153.77L380.65,144.84L381.23,147.59L381.8,140.6L382.38,144.84L382.95,141.88L383.53,153.39L384.1,148.17L384.68,146.94L385.25,151.4L385.83,150.96L386.4,144.73L386.98,144.66L387.55,141.19L388.13,154.16L388.7,155.68L389.28,146.78L389.85,140.77L390.43,153.77L391,142.71L391.58,154L392.15,145.26L392.73,146.98L393.3,137.12L393.88,153.89L394.45,145.02L395.03,139.53L395.61,156.12L396.18,138.82L396.76,151.4L397.33,151.38L397.91,150.43L398.48,133.01L399.06,161.51L399.63,159.19L400.21,156.02L400.78,154.22L401.36,136.59L401.93,141.2L402.51,152.72L403.08,156.53L403.66,135.51L404.23,160.48L404.81,155.22L405.38,144.03L405.96,147.07L406.53,136.89L407.11,138.68L407.68,144.69L408.26,145.35L408.83,149.04L409.41,140.64L409.98,164.37L410.56,148.53L411.13,147.86L411.71,147.57L412.28,136.66L412.86,147.86L413.43,154.26L414.01,144.13L414.58,145.51L415.16,144.52L415.73,149L416.31,146.55L416.88,145.48L417.46,140.02L418.03,143.74L418.61,145.52L419.19,131.11L419.76,151.86L420.34,141.58L420.91,144.67L421.49,150.65L422.06,142.34L422.64,151.77L423.21,140.65L423.79,156.96L424.36,153.2L424.94,136.24L425.51,152.66L426.09,122.78L426.66,173.27L427.24,151.53L427.81,147.03L428.39,144.35L428.96,150.54L429.54,145.96L430.11,143.94L430.69,143.21L431.26,126.49L431.84,142.44L432.41,176.74L432.99,145.87L433.56,138.55L434.14,151.22L434.71,149.2L435.29,144.06L435.86,144.76L436.44,142.46L437.01,148.14L437.59,167.74L438.16,159.84L438.74,140.06L439.31,164.85L439.89,157.6L440.46,154.33L441.04,154.76L441.61,154.27L442.19,162.68L442.77,133.91L443.34,154.38L443.92,147.11L444.49,144.74L445.07,144.37L445.64,140.5L446.22,141.41L446.79,149.8L447.37,140.52L447.94,140.81L448.52,150.52L449.09,154.88L449.67,148.13L450.24,157.89L450.82,144.17L451.39,145.99L451.97,145.03L452.54,150.11L453.12,147.79L453.69,138.56L454.27,159.71L454.84,152.41L455.42,142.87L455.99,142.65L456.57,148.11L457.14,150.57L457.72,152.67L458.29,153.95L458.87,139.64L459.44,143.88L460.02,153.11L460.59,148.1L461.17,155.79L461.74,144.03L462.32,140.14L462.89,153.7L463.47,152.89L464.04,139.84L464.62,147.57L465.19,143.3L465.77,147.19L466.35,150.78L466.92,151.13L467.5,144.59L468.07,144.21L468.65,150.35L469.22,156.81L469.8,163.24L470.37,137.64L470.95,145.68L471.52,142.82L472.1,144.88L472.67,143.12L473.25,138.76L473.82,142.88L474.4,138.56L474.97,148.77L475.55,141.3L476.12,154.78L476.7,137.44L477.27,143.17L477.85,146.88L478.42,146.18L479,145.88L479.57,135.5L480.15,140.88L480.72,145.74L481.3,144.94L481.87,136.69L482.45,161.5L483.02,147.68L483.6,146L484.17,140.14L484.75,148.23L485.32,145.81L485.9,150.27L486.47,149.01L487.05,143.24L487.62,142.88L488.2,140.54L488.77,141.63L489.35,134.4L489.93,150.55L490.5,142.95L491.08,149.86L491.65,147.06L492.23,136.66L492.8,154.49L493.38,143.12L493.95,144.87L494.53,139.04L495.1,143.9L495.68,148.85L496.25,132.02L496.83,155.8L497.4,157.04L497.98,151.34L498.55,154.65L499.13,155.7L499.7,147.5L500.28,157.18L500.85,155.28L501.43,147.06L502,158.03L502.58,148.78L503.15,148.28L503.73,148.25L504.3,136.66L504.88,143.34L505.45,138.88L506.03,144.72L506.6,152.86L507.18,133.35L507.75,144.51L508.33,153.89L508.9,151.59L509.48,139.9L510.05,153.94L510.63,144.4L511.2,141.72L511.78,141.49L512.35,143.67L512.93,144.37L513.51,147.98L514.08,139.3L514.66,140.98L515.23,145.52L515.81,136.7L516.38,156.36L516.96,141.79L517.53,149.14L518.11,140.94L518.68,149.15L519.26,151.01L519.83,148.6L520.41,146.84L520.98,135.45L521.56,160.2L522.13,149.05L522.71,149.96L523.28,145.09L523.86,152.59L524.43,143.08L525.01,138.07L525.58,157.36L526.16,146.49L526.73,142.23L527.31,142.02L527.88,138.17L528.46,145.12L529.03,142L529.61,155.98L530.18,151.08L530.76,144.29L531.33,142.34L531.91,148L532.48,146.01L533.06,142.61L533.63,148L534.21,124.47L534.78,165.2L535.36,138.99L535.93,148.39L536.51,155.69L537.09,144.85L537.66,137.91L538.24,158.18L538.81,144.88L539.39,147.29L539.96,148.18L540.54,142.42L541.11,135.27L541.69,158.12L542.26,147.1L542.84,143.55L543.41,145.06L543.99,142.27L544.56,154.63L545.14,155.39L545.71,127.18L546.29,158.79L546.86,149.42L547.44,143.65L548.01,150.92L548.59,135.59L549.16,156.18L549.74,145.54L550.31,145.11L550.89,140.8L551.46,143.44L552.04,110.96L552.61,170.94L553.19,150.41L553.76,142.84L554.34,147.83L554.91,138.22L555.49,148.84L556.06,146.1L556.64,138.9L557.21,144.73L557.79,160.1L558.36,139.53L558.94,142.92L559.51,154.68L560.09,147.49L560.67,144.7L561.24,148.84L561.82,141.57L562.39,137.89L562.97,152.36L563.54,152.76L564.12,144.53L564.69,146.89L565.27,137.17L565.84,138.8L566.42,166.2L566.99,142.5L567.57,143.34L568.14,145.72L568.72,148.55L569.29,134.55L569.87,153.49L570.44,138.28L571.02,136.82L571.59,151.78L572.17,146.06L572.74,151.96L573.32,147.78L573.89,142.58L574.47,146.76L575.04,145.41L575.62,142.72L576.19,152.63L576.77,145.11L577.34,131.16L577.92,121.43L578.49,163.22L579.07,156.16L579.64,152.09L580.22,146.77L580.79,142.94L581.37,144.7L581.94,138.09L582.52,152.5L583.09,151.35L583.67,132.2L584.25,155.99L584.82,157.26L585.4,140.48L585.97,151.07L586.55,143.93L587.12,137.96L587.7,149.57L588.27,151.86L588.85,150L589.42,151.56L590,148.11L590.57,150.69L591.15,137.34L591.72,151.76L592.3,153.81L592.87,127.68L593.45,164.59L594.02,153.01L594.6,154.54L595.17,150.73L595.75,157.5L596.32,147.34L596.9,140.08L597.47,155.49L598.05,143.75L598.62,144.99L599.2,150.55L599.77,150.97L600.35,134.86L600.92,153.91L601.5,135.05L602.07,152.27L602.65,141.43L603.22,153.85L603.8,147.5L604.37,145.36L604.95,128.75L605.52,160.18L606.1,145.7L606.67,140.72L607.25,146.3L607.83,150.8L608.4,137.91L608.98,158.26L609.55,152.91L610.13,151.32L610.7,155.59L611.28,157.87L611.85,146.29L612.43,159.78L613,155.45L613.58,160.34L614.15,158.32L614.73,148.82L615.3,150.75L615.88,145.1L616.45,149.59L617.03,142.82L617.6,152.91L618.18,142.24L618.75,146.48L619.33,153.35L619.9,141.57L620.48,151.57L621.05,152.22L621.63,154.2L622.2,150.4L622.78,156.29L623.35,149.53L623.93,146.63L624.5,150.07L625.08,151.96L625.65,141.21L626.23,144.79L626.8,149.28L627.38,154.84L627.95,147.74L628.53,142.6L629.1,147.09L629.68,153.69L630.25,144.91L630.83,150.7L631.41,158.22L631.98,155.76L632.56,150.91L633.13,144.99L633.71,142.17L634.28,161.37L634.86,152.4L635.43,151.13L636.01,145.96L636.58,145.46L637.16,133.38L637.73,156.89L638.31,139.52L638.88,135.26L639.46,163.71L640.03,145.12L640.61,144.73L641.18,151.5L641.76,132.3L642.33,155.83L642.91,150.23L643.48,117.08L644.06,169.23L644.63,146.74L645.21,140.44L645.78,140.97L646.36,153.68L646.93,136.19L647.51,161.49L648.08,138.07L648.66,147.26L649.23,157.93L649.81,146.2L650.38,148.33L650.96,138.59L651.53,148.86L652.11,147.68L652.68,149.44L653.26,143.31L653.83,142.51L654.41,142.26L654.98,152.62L655.56,146.56L656.14,146.72L656.71,136.9L657.29,151.29L657.86,151.72L658.44,145.93L659.01,141.41L659.59,150.77L660.16,143.39L660.74,144.73L661.31,151.36L661.89,158.1L662.46,148.62L663.04,155.95L663.61,152.88L664.19,148.9L664.76,141.77L665.34,151.41L665.91,143.88L666.49,152.02L667.06,147.35L667.64,133.53L668.21,160.03L668.79,152.03L669.36,156.51L669.94,160.81L670.51,163.02L671.09,157.11L671.66,159.11L672.24,168.29L672.81,139.92L673.39,179.59L673.96,161.33L674.54,159.01L675.11,153.42L675.69,147.41L676.26,139.99L676.84,165.25L677.41,150.73L677.99,146.52L678.56,144.76L679.14,149.14L679.72,141.45L680.29,157.02L680.87,153.59L681.44,141.37L682.02,153.94L682.59,150.11L683.17,146.53L683.74,142.7L684.32,151.37L684.89,154.34L685.47,141.12L686.04,150.53L686.62,149.53L687.19,146.88L687.77,161.29L688.34,151.89L688.92,149.72L689.49,136.38L690.07,153.1L690.64,148.68L691.22,146.93L691.79,149.17L692.37,139.12L692.94,136.37L693.52,145.94L694.09,164.61L694.67,144.21L695.24,153.46L695.82,151.46L696.39,139.72L696.97,162.15L697.54,153.11L698.12,129.4L698.69,165.17L699.27,151.62L699.84,155.57L700.42,152.2L700.99,141.55L701.57,150.69L702.14,143.23L702.72,135.35L703.3,159.58L703.87,142.16L704.45,151.32L705.02,147L705.6,148.25L706.17,153.68L706.75,154.11L707.32,146.1L707.9,145.59L708.47,152.84L709.05,154.04L709.62,142.02L710.2,158.17L710.77,147L711.35,151.16L711.92,148.82L712.5,136.47L713.07,144.2L713.65,155.32L714.22,145.26L714.8,150.68L715.37,147.37L715.95,148.57L716.52,141.45L717.1,142.54L717.67,144.19L718.25,151.53L718.82,148.25L719.4,144.88L719.97,133.85L720.55,139.93L721.12,153.4L721.7,147.88L722.27,138.37L722.85,146.66L723.42,137.95L724,162.06L724.57,159.04L725.15,143.85L725.72,145.89L726.3,153.12L726.88,146.19L727.45,142.9L728.03,150.45L728.6,149.6L729.18,156.27L729.75,139.03L730.33,153.26L730.9,155.53L731.48,147.46L732.05,163.73L732.63,152.14L733.2,146.06L733.78,145.05L734.35,152.08L734.93,144.64L735.5,156.26L736.08,148.66L736.65,145.47L737.23,154.92L737.8,151.15L738.38,136.88L738.95,142.63L739.53,146.9L740.1,153.29L740.68,152.17L741.25,139.12L741.83,142.76L742.4,157.72L742.98,150.26L743.55,138.49L744.13,159.82L744.7,144.59L745.28,149.68L745.85,143.45L746.43,148.24L747,154.91L747.58,153.1L748.15,146.97L748.73,111.72L749.3,176.01L749.88,144.5L750.46,149.34L751.03,152.74L751.61,133.89L752.18,167.37L752.76,143.79L753.33,154L753.91,149.46L754.48,145.3L755.06,133.78L755.63,151.72L756.21,156.6L756.78,143.69L757.36,151.66L757.93,139.75L758.51,155.26L759.08,152.87L759.66,155.76L760.23,149.8L760.81,140.33L761.38,146.67L761.96,146.41L762.53,141.23L763.11,152.97L763.68,143.51L764.26,151.77L764.83,141.85L765.41,143.69L765.98,148.88L766.56,146.48L767.13,154L767.71,145.48L768.28,147.8L768.86,147.3L769.43,149.45L770.01,148.62L770.58,140.44L771.16,148.79L771.73,152.19L772.31,154.05L772.88,139.69L773.46,145.36L774.04,146.52L774.61,149.68L775.19,152.34L775.76,148.85L776.34,146.11L776.91,142.93L777.49,139.22L778.06,149.08L778.64,142.05L779.21,150.96L779.79,153.84L780.36,150.85L780.94,144.76L781.51,160.6L782.09,160.39L782.66,150.18L783.24,170.63L783.81,156.89L784.39,150.57L784.96,160.94L785.54,160.31L786.11,168.8L786.69,164.05L787.26,161.84L787.84,146L788.41,148.28L788.99,157.47L789.56,146.79L790.14,149.23L790.71,143.06L791.29,147.13L791.86,145.35L792.44,150.67L793.01,154.31L793.59,143.57L794.16,158.58L794.74,152.26L795.31,148.17L795.89,152.23L796.46,145.78L797.04,150.04L797.62,152.38L798.19,154.18L798.77,140.07L799.34,162.04L799.92,147.05L800.49,134.55L801.07,158.47L801.64,151.96L802.22,148.59L802.79,149.46L803.37,151.44L803.94,149.36L804.52,150.37L805.09,145.74L805.67,158.09L806.24,147.63L806.82,146.73L807.39,154.16L807.97,149.08L808.54,146.27L809.12,143.95L809.69,148.53L810.27,153.75L810.84,152.14L811.42,148.11L811.99,155.42L812.57,153.2L813.14,147.68L813.72,154.19L814.29,154.18L814.87,120.09L815.44,174.67L816.02,159.06L816.59,146.65L817.17,148.35L817.74,152.64L818.32,150.78L818.89,145.89L819.47,130.51L820.04,165.83L820.62,146.88L821.2,138.8L821.77,149.11L822.35,141.55L822.92,183.45L823.5,150.69L824.07,142.28L824.65,152.01L825.22,150.81L825.8,151.95L826.37,143.77L826.95,146.31L827.52,151.97L828.1,150.24L828.67,155.6L829.25,148.21L829.82,154.3L830.4,146.52L830.97,150.57L831.55,141.31L832.12,146.48L832.7,148.14L833.27,148.94L833.85,156.2L834.42,153.63L835,164.85L835.57,140.29L836.15,127.82L836.72,129.42L837.3,162.68L837.87,150.25L838.45,157.52L839.02,148.49L839.6,150.09L840.17,145.18L840.75,139.15L841.32,144.93L841.9,142.28L842.47,154.29L843.05,171.24L843.62,162.62L844.2,165.81L844.78,156.38L845.35,156.86L845.93,163.5L846.5,153.1L847.08,165.47L847.65,145.11L848.23,154.8L848.8,148.7L849.38,150.76L849.95,143.95L850.53,142.64L851.1,151L851.68,149.38L852.25,146.74L852.83,148.66L853.4,142.74L853.98,147.93L854.55,157.01L855.13,154.5L855.7,142.37L856.28,145.32L856.85,155.21L857.43,144.9L858,144.37L858.58,150.03L859.15,123.54L859.73,177.74L860.3,150.77L860.88,153.23L861.45,151.77L862.03,156.33L862.6,155.03L863.18,142.77L863.75,149.45L864.33,145.78L864.9,143.68L865.48,181.12L866.05,138.27L866.63,152.17L867.2,146.31L867.78,155.97L868.36,149.56L868.93,151.27L869.51,147.23L870.08,153.2L870.66,153.45L871.23,140.87L871.81,147.08L872.38,145.24L872.96,147.39L873.53,141.47L874.11,150.95L874.68,146.73L875.26,143.03L875.83,149.08L876.41,151.59L876.98,134.96L877.56,154.38L878.13,155.32L878.71,146.49L879.28,147.14L879.86,145.92L880.43,144.71L881.01,155.26L881.58,155.36L882.16,137.53L882.73,148.23L883.31,149.9L883.88,146.67L884.46,151.71L885.03,145.59L885.61,143.36L886.18,165.25L886.76,155.29L887.33,147.67L887.91,151.48L888.48,143.29L889.06,162.45L889.63,150.78L890.21,152.15L890.78,146.27L891.36,153.46L891.94,152.03L892.51,155.03L893.09,141.5L893.66,160.9L894.24,135.44L894.81,150.28L895.39,141.75L895.96,122.39L896.54,172.64L897.11,154.86L897.69,147.24L898.26,151.65L898.84,156.57L899.41,145.85L899.99,127.06L900.56,166.06L901.14,149.48L901.71,150.9L902.29,147.87L902.86,157.18L903.44,146L904.01,157.41L904.59,151.13L905.16,153.27L905.74,148.53L906.31,146.51L906.89,155.13L907.46,148.85L908.04,153.47L908.61,144.81L909.19,157.94L909.76,146L910.34,155.06L910.91,147.22L911.49,152.79L912.06,140.18L912.64,153.73L913.21,142.34L913.79,158.09L914.36,150.43L914.94,150.29L915.52,147.09L916.09,146.73L916.67,152.01L917.24,154.16L917.82,151.16L918.39,132.19L918.97,159.28L919.54,156.7L920.12,147.56L920.69,150.85L921.27,146.36L921.84,139.97L922.42,154.5L922.99,141.25L923.57,152.6L924.14,147.03L924.72,151.97L925.29,146.96L925.87,150.83L926.44,154.07L927.02,145.77L927.59,150.16L928.17,142.93L928.74,157.91L929.32,132.82L929.89,174.33L930.47,149.2L931.04,155.5L931.62,148.98L932.19,127.25L932.77,164.91L933.34,143.79L933.92,157.05L934.49,165.94L935.07,147.72L935.64,150.01L936.22,147.2L936.79,153.37L937.37,146.4L937.94,157.44L938.52,153.21L939.1,138.85L939.67,153.31L940.25,164.01L940.82,152.9L941.4,149.04L941.97,147.95L942.55,147.15L943.12,147.49L943.7,150.73L944.27,146.05L944.85,149.82L945.42,138.15L946,156.93L946.57,152.69L947.15,148.62L947.72,149.44L948.3,150.65L948.87,150.21L949.45,131.16L950.02,159.22L950.6,144.76L951.17,158.88L951.75,142.39L952.32,157.58L952.9,155.58L953.47,151.96L954.05,144.89L954.62,164.57L955.2,163.34L955.77,155.26L956.35,168.93L956.92,162.53L957.5,154.39L958.07,149.63L958.65,149.47L959.22,167.62L959.8,156.83L960.37,158.48L960.95,144.61L961.52,150.28L962.1,153.41L962.68,143.2L963.25,162.07L963.83,142.03L964.4,154.49L964.98,142.56L965.55,165.51L966.13,156.45L966.7,155.15L967.28,139.97L967.85,156.76L968.43,156.53L969,143.38L969.58,156.99L970.15,151.41L970.73,144.58L971.3,164.49L971.88,147.33L972.45,144.01L973.03,159.9L973.6,150.89L974.18,160L974.75,149.06L975.33,150.19L975.9,147.09L976.48,148.6L977.05,141.47L977.63,166.82L978.2,146.32L978.78,142.85L979.35,158.17L979.93,149.14L980.5,149.22L981.08,146.81L981.65,148.32L982.23,162.04L982.8,145.35L983.38,146.14L983.95,138.9L984.53,162.36L985.1,141.76L985.68,155.95L986.26,142.89L986.83,149.04L987.41,147.18L987.98,144.13L988.56,149.56L989.13,153.56L989.71,150.63L990.28,146.52L990.86,157.23L991.43,148.21L992.01,151.95L992.58,147.68L993.16,152.6L993.73,147.64L994.31,161.44L994.88,138.22L995.46,154.39L996.03,149.35L996.61,135.4L997.18,164.99L997.76,149.19L998.33,150.45L998.91,150.06L999.48,142.44L1000.1,158.39L1000.6,152.65L1001.2,156.47L1001.8,152.62L1002.4,150.11L1002.9,162.71L1003.5,142.68L1004.1,153.05L1004.7,153.75L1005.2,153.8L1005.8,149.59L1006.4,146.48L1007,155.01L1007.5,144.86L1008.1,155.12L1008.7,151.14L1009.3,146.34L1009.8,144.89L1010.4,149.46L1011,147.97L1011.6,143.8L1012.1,154.07L1012.7,147.97L1013.3,149.22L1013.9,158.18L1014.4,156.41L1015,162.22L1015.6,159.15L1016.2,160.42L1016.7,159.52L1017.3,165.19L1017.9,157.01L1018.5,162.61L1019,154.43L1019.6,162.67L1020.2,163.01L1020.8,150.42L1021.3,147.84L1021.9,133.77L1022.5,166.29L1023.1,153.61L1023.6,146.99L1024.2,145.45L1024.8,147.25L1025.4,155.01L1025.9,150.35L1026.5,146.72L1027.1,161.9L1027.7,143.95L1028.2,161.57L1028.8,144L1029.4,128.2L1030,172.06L1030.5,153.61L1031.1,124.72L1031.7,171.99L1032.3,143.1L1032.8,153.06L1033.4,148.38L1034,150.77L1034.6,153.9L1035.1,142.79L1035.7,152.61L1036.3,135.88L1036.9,163.57L1037.4,151.9L1038,148.27L1038.6,155.71L1039.2,158.86L1039.7,154.18L1040.3,149.03L1040.9,148.42L1041.5,137.49L1042,159.14L1042.6,133.19L1043.2,161L1043.8,154.24L1044.3,147.73L1044.9,155.95L1045.5,150.65L1046.1,152.74L1046.6,156.62L1047.2,146.49L1047.8,151.18L1048.4,147.63L1048.9,152.01L1049.5,148.65L1050.1,147.32L1050.7,150.53L1051.2,154.74L1051.8,146.08L1052.4,142.7L1053,127.59L1053.5,150.58L1054.1,162.03L1054.7,112.01L1055.3,189.32L1055.8,151.64L1056.4,153.38L1057,141L1057.6,148.53L1058.1,151.74L1058.7,153.35L1059.3,152.86L1059.9,139.04L1060.4,140.99L1061,159.33L1061.6,126.09L1062.2,168.72L1062.7,155.5L1063.3,156.1L1063.9,153.3L1064.5,158.25L1065,149.32L1065.6,153.53L1066.2,149.39L1066.8,152.43L1067.3,150.17L1067.9,147.49L1068.5,126.64L1069.1,159.54L1069.6,163.42L1070.2,152.3L1070.8,151.56L1071.4,159.37L1071.9,141.57L1072.5,155.26L1073.1,136.76L1073.7,159.6L1074.2,138.38L1074.8,153.67L1075.4,155.29L1076,144.61L1076.5,155.67L1077.1,149.68L1077.7,159.52L1078.3,146.98L1078.8,145.76L1079.4,152.03L1080,140.39" style="fill:none;stroke:#7AC36A;stroke-width:1.875;stroke-dasharray:7.5,2.5" />
<path d="M1055,693.4L1080,693.4" style="fill:none;stroke:#F15A60;stroke-width:1.875" />
<text x="882.43" y="-686.35" transform="scale(1, -1)"
	style="font-family:Helvetica;font-weight:normal;font-style:normal;font-size:12pt">etcd v3 (no compression)</text>
<path d="M1055,678.7L1080,678.7" style="fill:none;stroke:#7AC36A;stroke-width:1.875;stroke-dasharray:7.5,2.5" />
<text x="937.44" y="-671.65" transform="scale(1, -1)"
	style="font-family:Helvetica;font-weight:normal;font-style:normal;font-size:12pt">etcd v3 (Snappy)</text>
</g>
</svg>
