<?xml version="1.0"?>
<!-- Generated by SVGo and Plotinum VG -->
<svg width="12in" height="8in"
	xmlns="http://www.w3.org/2000/svg"
	xmlns:xlink="http://www.w3.org/1999/xlink">
<g transform="scale(1, -1) translate(0, -720)">
<path d="M0,0L1080,0L1080,720L0,720Z" style="fill:#FFFFFF" />
<text x="266.8" y="-705.6" transform="scale(1, -1)"
	style="font-family:Helvetica;font-weight:normal;font-style:normal;font-size:12pt">Read 2M keys, 1000-client, 700-conn, 8-byte same key, 1.3 MB value, Throughput</text>
<text x="548.46" y="-4.8486" transform="scale(1, -1)"
	style="font-family:Helvetica;font-weight:normal;font-style:normal;font-size:12pt">Second</text>
<text x="64.31" y="-19.498" transform="scale(1, -1)"
	style="font-family:Helvetica;font-weight:normal;font-style:normal;font-size:10pt">0</text>
<text x="344.92" y="-19.498" transform="scale(1, -1)"
	style="font-family:Helvetica;font-weight:normal;font-style:normal;font-size:10pt">500</text>
<text x="629" y="-19.498" transform="scale(1, -1)"
	style="font-family:Helvetica;font-weight:normal;font-style:normal;font-size:10pt">1000</text>
<text x="916.56" y="-19.498" transform="scale(1, -1)"
	style="font-family:Helvetica;font-weight:normal;font-style:normal;font-size:10pt">1500</text>
<path d="M67.786,31.498L67.786,41.498" style="fill:none;stroke:#000000;stroke-width:0.625" />
<path d="M355.35,31.498L355.35,41.498" style="fill:none;stroke:#000000;stroke-width:0.625" />
<path d="M642.91,31.498L642.91,41.498" style="fill:none;stroke:#000000;stroke-width:0.625" />
<path d="M930.47,31.498L930.47,41.498" style="fill:none;stroke:#000000;stroke-width:0.625" />
<path d="M125.3,36.498L125.3,41.498" style="fill:none;stroke:#000000;stroke-width:0.625" />
<path d="M182.81,36.498L182.81,41.498" style="fill:none;stroke:#000000;stroke-width:0.625" />
<path d="M240.32,36.498L240.32,41.498" style="fill:none;stroke:#000000;stroke-width:0.625" />
<path d="M297.83,36.498L297.83,41.498" style="fill:none;stroke:#000000;stroke-width:0.625" />
<path d="M412.86,36.498L412.86,41.498" style="fill:none;stroke:#000000;stroke-width:0.625" />
<path d="M470.37,36.498L470.37,41.498" style="fill:none;stroke:#000000;stroke-width:0.625" />
<path d="M527.88,36.498L527.88,41.498" style="fill:none;stroke:#000000;stroke-width:0.625" />
<path d="M585.4,36.498L585.4,41.498" style="fill:none;stroke:#000000;stroke-width:0.625" />
<path d="M700.42,36.498L700.42,41.498" style="fill:none;stroke:#000000;stroke-width:0.625" />
<path d="M757.93,36.498L757.93,41.498" style="fill:none;stroke:#000000;stroke-width:0.625" />
<path d="M815.44,36.498L815.44,41.498" style="fill:none;stroke:#000000;stroke-width:0.625" />
<path d="M872.96,36.498L872.96,41.498" style="fill:none;stroke:#000000;stroke-width:0.625" />
<path d="M987.98,36.498L987.98,41.498" style="fill:none;stroke:#000000;stroke-width:0.625" />
<path d="M1045.5,36.498L1045.5,41.498" style="fill:none;stroke:#000000;stroke-width:0.625" />
<path d="M67.786,41.498L1080,41.498" style="fill:none;stroke:#000000;stroke-width:0.625" />
<g transform="rotate(90)">
<text x="336.05" y="14.399" transform="scale(1, -1)"
	style="font-family:Helvetica;font-weight:normal;font-style:normal;font-size:12pt">Throughput</text>
</g>
<text x="26.2" y="-184.14" transform="scale(1, -1)"
	style="font-family:Helvetica;font-weight:normal;font-style:normal;font-size:10pt">400</text>
<text x="26.2" y="-393.68" transform="scale(1, -1)"
	style="font-family:Helvetica;font-weight:normal;font-style:normal;font-size:10pt">800</text>
<text x="19.248" y="-603.21" transform="scale(1, -1)"
	style="font-family:Helvetica;font-weight:normal;font-style:normal;font-size:10pt">1200</text>
<path d="M50.529,190.02L60.529,190.02" style="fill:none;stroke:#000000;stroke-width:0.625" />
<path d="M50.529,399.55L60.529,399.55" style="fill:none;stroke:#000000;stroke-width:0.625" />
<path d="M50.529,609.08L60.529,609.08" style="fill:none;stroke:#000000;stroke-width:0.625" />
<path d="M55.529,85.252L60.529,85.252" style="fill:none;stroke:#000000;stroke-width:0.625" />
<path d="M55.529,294.78L60.529,294.78" style="fill:none;stroke:#000000;stroke-width:0.625" />
<path d="M55.529,504.32L60.529,504.32" style="fill:none;stroke:#000000;stroke-width:0.625" />
<path d="M60.529,48.06L60.529,700.75" style="fill:none;stroke:#000000;stroke-width:0.625" />
<path d="M67.786,48.06L68.361,434.65L68.936,572.41L69.511,640.51L70.086,671.42L70.661,648.37L71.236,647.32L71.811,645.23L72.387,644.7L72.962,644.18L73.537,669.32L74.112,626.37L74.687,658.85L75.262,645.75L75.837,649.94L76.412,633.18L76.988,656.75L77.563,650.46L78.138,662.51L78.713,659.89L79.288,633.18L79.863,638.42L80.438,657.8L81.013,646.8L81.589,654.13L82.164,678.75L82.739,643.65L83.314,650.46L83.889,648.89L84.464,645.75L85.039,677.7L85.614,665.13L86.19,643.13L86.765,644.7L87.34,664.61L87.915,675.08L88.49,625.84L89.065,649.42L89.64,657.27L90.215,642.61L90.791,663.04L91.366,652.04L91.941,670.37L92.516,625.84L93.091,680.32L93.666,639.46L94.241,623.75L94.816,673.51L95.391,664.08L95.967,656.75L96.542,665.66L97.117,626.89L97.692,626.89L98.267,652.56L98.842,650.46L99.417,638.94L99.992,625.32L100.57,658.85L101.14,659.37L101.72,638.42L102.29,617.99L102.87,648.37L103.44,643.65L104.02,663.56L104.59,656.75L105.17,645.23L105.74,645.75L106.32,662.51L106.89,641.04L107.47,648.37L108.04,645.23L108.62,678.75L109.19,642.08L109.77,663.56L110.34,650.99L110.92,652.04L111.49,643.13L112.07,671.94L112.65,656.75L113.22,648.37L113.8,654.65L114.37,636.84L114.95,626.37L115.52,672.99L116.1,633.18L116.67,641.04L117.25,663.56L117.82,645.75L118.4,650.99L118.97,655.7L119.55,648.37L120.12,668.8L120.7,650.46L121.27,649.94L121.85,668.27L122.42,648.37L123,627.94L123.57,643.65L124.15,670.89L124.72,634.23L125.3,646.8L125.87,651.51L126.45,658.85L127.02,663.04L127.6,645.75L128.17,659.89L128.75,652.04L129.32,654.65L129.9,644.18L130.47,657.8L131.05,636.84L131.62,639.99L132.2,665.66L132.77,672.99L133.35,628.46L133.92,633.7L134.5,653.61L135.07,641.56L135.65,659.37L136.23,663.56L136.8,650.99L137.38,624.27L137.95,669.85L138.53,660.42L139.1,642.08L139.68,665.13L140.25,628.46L140.83,652.56L141.4,675.08L141.98,645.75L142.55,658.32L143.13,646.27L143.7,635.8L144.28,651.51L144.85,669.85L145.43,639.99L146,658.85L146.58,647.85L147.15,644.18L147.73,652.56L148.3,664.08L148.88,634.75L149.45,620.61L150.03,652.56L150.6,647.85L151.18,645.23L151.75,653.61L152.33,648.89L152.9,646.27L153.48,665.13L154.05,645.75L154.63,670.89L155.2,662.51L155.78,640.51L156.35,652.04L156.93,670.37L157.5,635.8L158.08,660.42L158.65,655.18L159.23,677.7L159.81,625.84L160.38,661.99L160.96,651.51L161.53,649.42L162.11,630.56L162.68,669.32L163.26,656.23L163.83,643.65L164.41,664.61L164.98,648.37L165.56,658.85L166.13,641.04L166.71,655.18L167.28,650.99L167.86,666.7L168.43,658.85L169.01,648.89L169.58,664.08L170.16,664.08L170.73,651.51L171.31,646.27L171.88,642.08L172.46,648.37L173.03,679.27L173.61,633.7L174.18,648.89L174.76,651.51L175.33,665.66L175.91,658.85L176.48,660.42L177.06,635.27L177.63,661.99L178.21,650.99L178.78,643.13L179.36,678.75L179.93,632.65L180.51,661.46L181.08,658.85L181.66,630.03L182.23,675.08L182.81,638.42L183.39,656.75L183.96,616.94L184.54,657.8L185.11,642.61L185.69,652.04L186.26,665.66L186.84,639.99L187.41,655.18L187.99,650.99L188.56,633.18L189.14,651.51L189.71,641.56L190.29,664.61L190.86,636.84L191.44,665.66L192.01,638.42L192.59,644.7L193.16,651.51L193.74,654.13L194.31,633.18L194.89,666.18L195.46,654.13L196.04,631.08L196.61,675.08L197.19,645.75L197.76,657.8L198.34,626.89L198.91,659.89L199.49,666.18L200.06,653.61L200.64,634.23L201.21,662.51L201.79,654.13L202.36,659.89L202.94,637.89L203.51,663.56L204.09,645.23L204.66,648.37L205.24,664.08L205.81,642.08L206.39,642.61L206.97,654.65L207.54,655.18L208.12,655.18L208.69,645.75L209.27,621.65L209.84,658.85L210.42,666.7L210.99,663.04L211.57,630.56L212.14,652.04L212.72,649.94L213.29,644.7L213.87,646.8L214.44,635.8L215.02,654.13L215.59,624.8L216.17,660.94L216.74,647.85L217.32,659.37L217.89,647.32L218.47,631.08L219.04,644.18L219.62,646.8L220.19,655.7L220.77,627.42L221.34,634.75L221.92,673.51L222.49,652.04L223.07,639.99L223.64,664.08L224.22,647.32L224.79,645.75L225.37,652.04L225.94,655.18L226.52,630.03L227.09,652.56L227.67,646.8L228.24,658.85L228.82,622.18L229.39,634.75L229.97,666.7L230.55,626.89L231.12,659.37L231.7,669.32L232.27,635.8L232.85,626.89L233.42,647.85L234,656.23L234.57,649.42L235.15,640.51L235.72,653.61L236.3,652.56L236.87,645.23L237.45,653.08L238.02,636.84L238.6,623.75L239.17,641.04L239.75,647.85L240.32,638.42L240.9,642.61L241.47,631.08L242.05,660.42L242.62,665.66L243.2,652.56L243.77,642.08L244.35,681.37L244.92,636.84L245.5,657.27L246.07,649.42L246.65,632.13L247.22,658.85L247.8,646.27L248.37,636.32L248.95,662.51L249.52,661.99L250.1,648.89L250.67,660.42L251.25,649.42L251.82,666.18L252.4,648.89L252.97,652.56L253.55,618.51L254.13,628.46L254.7,660.42L255.28,624.8L255.85,663.04L256.43,644.7L257,642.61L257.58,655.18L258.15,641.04L258.73,652.04L259.3,638.94L259.88,659.89L260.45,650.99L261.03,656.75L261.6,636.32L262.18,643.65L262.75,657.27L263.33,648.37L263.9,640.51L264.48,637.89L265.05,628.99L265.63,632.13L266.2,637.37L266.78,641.04L267.35,622.18L267.93,638.94L268.5,641.04L269.08,626.89L269.65,648.37L270.23,623.23L270.8,641.56L271.38,635.27L271.95,631.61L272.53,642.08L273.1,634.75L273.68,653.61L274.25,648.37L274.83,638.94L275.4,647.32L275.98,656.75L276.55,636.84L277.13,664.61L277.71,642.61L278.28,657.27L278.86,649.42L279.43,649.94L280.01,657.8L280.58,643.65L281.16,647.85L281.73,639.99L282.31,659.37L282.88,626.89L283.46,667.75L284.03,656.23L284.61,638.94L285.18,649.42L285.76,659.89L286.33,624.8L286.91,645.23L287.48,661.99L288.06,634.75L288.63,648.37L289.21,636.84L289.78,658.85L290.36,657.8L290.93,604.37L291.51,620.08L292.08,580.79L292.66,601.75L293.23,590.75L293.81,662.51L294.38,644.18L294.96,636.84L295.53,615.89L296.11,641.04L296.68,619.56L297.26,599.65L297.83,605.94L298.41,604.37L298.98,615.89L299.56,586.03L300.13,607.51L300.71,580.27L301.29,600.18L301.86,577.13L302.44,594.94L303.01,554.08L303.59,645.75L304.16,614.84L304.74,604.89L305.31,581.32L305.89,598.08L306.46,606.99L307.04,593.37L307.61,638.42L308.19,608.03L308.76,619.03L309.34,608.56L309.91,610.13L310.49,595.46L311.06,649.94L311.64,605.94L312.21,614.32L312.79,600.7L313.36,636.84L313.94,611.7L314.51,609.08L315.09,619.56L315.66,599.65L316.24,637.37L316.81,619.56L317.39,639.46L317.96,644.18L318.54,635.8L319.11,630.03L319.69,611.18L320.26,606.46L320.84,606.99L321.41,653.08L321.99,621.13L322.56,618.51L323.14,618.51L323.71,622.7L324.29,624.27L324.87,630.03L325.44,611.7L326.02,605.41L326.59,614.84L327.17,590.22L327.74,572.41L328.32,633.7L328.89,586.03L329.47,601.22L330.04,619.56L330.62,652.56L331.19,654.65L331.77,627.94L332.34,621.65L332.92,614.84L333.49,634.23L334.07,613.8L334.64,605.41L335.22,635.27L335.79,593.89L336.37,629.51L336.94,633.7L337.52,621.13L338.09,642.08L338.67,627.94L339.24,666.18L339.82,632.65L340.39,610.65L340.97,654.65L341.54,642.61L342.12,636.32L342.69,629.51L343.27,637.89L343.84,597.03L344.42,624.8L344.99,643.65L345.57,614.84L346.14,604.37L346.72,619.56L347.29,583.94L347.87,632.13L348.45,635.27L349.02,557.22L349.6,613.27L350.17,587.6L350.75,583.41L351.32,606.99L351.9,616.42L352.47,622.7L353.05,593.37L353.62,638.42L354.2,635.8L354.77,634.23L355.35,620.61L355.92,600.18L356.5,633.7L357.07,623.75L357.65,635.27L358.22,670.89L358.8,599.65L359.37,635.27L359.95,628.99L360.52,646.27L361.1,634.23L361.67,619.03L362.25,655.18L362.82,632.13L363.4,680.32L363.97,654.65L364.55,618.51L365.12,641.56L365.7,648.37L366.27,601.75L366.85,630.56L367.42,609.61L368,626.37L368.57,635.8L369.15,634.23L369.72,640.51L370.3,628.99L370.87,628.46L371.45,614.32L372.03,624.8L372.6,625.84L373.18,648.89L373.75,642.61L374.33,623.75L374.9,626.37L375.48,648.37L376.05,624.8L376.63,624.8L377.2,652.56L377.78,633.18L378.35,650.46L378.93,623.23L379.5,614.32L380.08,657.8L380.65,613.8L381.23,649.42L381.8,615.89L382.38,646.8L382.95,617.46L383.53,635.8L384.1,625.84L384.68,661.99L385.25,631.61L385.83,638.94L386.4,638.94L386.98,619.03L387.55,631.61L388.13,639.99L388.7,626.37L389.28,619.03L389.85,610.65L390.43,619.56L391,611.18L391.58,610.65L392.15,591.27L392.73,643.13L393.3,609.61L393.88,633.18L394.45,614.84L395.03,646.8L395.61,633.7L396.18,619.03L396.76,645.75L397.33,631.08L397.91,630.56L398.48,634.23L399.06,613.27L399.63,643.13L400.21,628.99L400.78,650.46L401.36,650.46L401.93,636.32L402.51,623.75L403.08,611.7L403.66,661.99L404.23,645.23L404.81,616.42L405.38,625.32L405.96,622.7L406.53,664.61L407.11,610.65L407.68,641.04L408.26,634.75L408.83,624.27L409.41,626.89L409.98,614.84L410.56,619.03L411.13,626.37L411.71,636.84L412.28,596.51L412.86,606.46L413.43,637.89L414.01,624.8L414.58,620.08L415.16,643.65L415.73,636.84L416.31,653.61L416.88,617.99L417.46,636.32L418.03,624.27L418.61,635.27L419.19,623.23L419.76,639.46L420.34,627.94L420.91,665.13L421.49,635.8L422.06,644.7L422.64,664.61L423.21,634.23L423.79,640.51L424.36,628.46L424.94,644.7L425.51,601.75L426.09,630.56L426.66,641.04L427.24,635.8L427.81,631.61L428.39,630.03L428.96,634.75L429.54,630.56L430.11,632.13L430.69,625.32L431.26,644.18L431.84,605.94L432.41,642.08L432.99,644.7L433.56,643.65L434.14,635.8L434.71,657.27L435.29,638.42L435.86,632.65L436.44,643.65L437.01,639.99L437.59,649.94L438.16,644.7L438.74,616.42L439.31,622.7L439.89,619.56L440.46,633.7L441.04,627.42L441.61,643.13L442.19,650.46L442.77,609.08L443.34,626.89L443.92,603.84L444.49,634.75L445.07,590.75L445.64,619.03L446.22,627.94L446.79,597.56L447.37,606.99L447.94,606.99L448.52,660.94L449.09,630.56L449.67,632.13L450.24,656.23L450.82,607.51L451.39,642.61L451.97,648.37L452.54,627.42L453.12,641.56L453.69,626.89L454.27,621.65L454.84,640.51L455.42,639.99L455.99,653.08L456.57,649.94L457.14,657.27L457.72,641.04L458.29,630.56L458.87,669.85L459.44,644.7L460.02,644.18L460.59,632.13L461.17,647.32L461.74,657.27L462.32,644.7L462.89,658.32L463.47,663.04L464.04,650.99L464.62,637.89L465.19,643.13L465.77,668.27L466.35,652.04L466.92,635.8L467.5,671.42L468.07,647.32L468.65,644.18L469.22,668.8L469.8,642.08L470.37,663.56L470.95,656.23L471.52,667.23L472.1,667.75L472.67,631.08L473.25,667.75L473.82,669.32L474.4,666.7L474.97,661.46L475.55,682.42L476.12,652.04L476.7,678.23L477.27,655.18L477.85,666.7L478.42,661.99L479,669.32L479.57,634.75L480.15,666.7L480.72,661.46L481.3,669.85L481.87,663.04L482.45,650.99L483.02,653.08L483.6,667.75L484.17,639.46L484.75,657.8L485.32,689.75L485.9,673.51L486.47,656.75L487.05,634.23L487.62,674.56L488.2,643.65L488.77,649.94L489.35,651.51L489.93,657.27L490.5,656.75L491.08,673.51L491.65,646.27L492.23,663.04L492.8,663.56L493.38,664.08L493.95,654.13L494.53,659.37L495.1,647.32L495.68,659.37L496.25,681.89L496.83,665.66L497.4,672.99L497.98,651.51L498.55,649.94L499.13,657.8L499.7,633.7L500.28,677.18L500.85,654.13L501.43,692.37L502,640.51L502.58,659.89L503.15,680.85L503.73,679.8L504.3,671.94L504.88,638.94L505.45,667.23L506.03,676.13L506.6,650.46L507.18,634.75L507.75,656.75L508.33,648.89L508.9,657.8L509.48,654.65L510.05,627.94L510.63,642.08L511.2,653.61L511.78,617.46L512.35,658.85L512.93,666.18L513.51,675.61L514.08,643.65L514.66,674.04L515.23,666.7L515.81,658.85L516.38,651.51L516.96,657.27L517.53,658.32L518.11,669.32L518.68,657.8L519.26,651.51L519.83,661.46L520.41,664.08L520.98,680.32L521.56,632.13L522.13,635.8L522.71,673.51L523.28,627.94L523.86,659.89L524.43,692.89L525.01,649.94L525.58,656.75L526.16,669.32L526.73,667.75L527.31,654.65L527.88,671.94L528.46,664.08L529.03,655.7L529.61,654.65L530.18,681.89L530.76,670.89L531.33,658.32L531.91,669.85L532.48,666.7L533.06,662.51L533.63,658.85L534.21,680.85L534.78,669.32L535.36,678.23L535.93,664.08L536.51,674.56L537.09,638.42L537.66,675.08L538.24,655.7L538.81,667.23L539.39,648.37L539.96,678.23L540.54,659.37L541.11,648.37L541.69,657.8L542.26,669.32L542.84,671.94L543.41,629.51L543.99,698.13L544.56,651.51L545.14,693.42L545.71,642.61L546.29,664.61L546.86,664.61L547.44,674.56L548.01,660.94L548.59,656.75L549.16,661.99L549.74,658.32L550.31,650.99L550.89,664.61L551.46,666.18L552.04,618.51L552.61,665.13L553.19,680.85L553.76,649.42L554.34,675.08L554.91,669.32L555.49,679.27L556.06,661.46L556.64,665.66L557.21,671.42L557.79,657.27L558.36,674.04L558.94,659.89L559.51,655.7L560.09,668.27L560.67,678.23L561.24,655.18L561.82,653.08L562.39,659.89L562.97,650.46L563.54,653.08L564.12,665.13L564.69,655.18L565.27,669.32L565.84,661.99L566.42,685.04L566.99,641.56L567.57,663.04L568.14,659.37L568.72,663.04L569.29,637.89L569.87,698.13L570.44,671.42L571.02,676.13L571.59,680.85L572.17,659.89L572.74,669.85L573.32,671.94L573.89,655.7L574.47,674.04L575.04,660.94L575.62,653.08L576.19,658.32L576.77,668.8L577.34,644.7L577.92,638.94L578.49,649.42L579.07,687.13L579.64,671.94L580.22,653.61L580.79,658.32L581.37,646.8L581.94,616.42L582.52,656.23L583.09,635.27L583.67,625.32L584.25,641.56L584.82,632.65L585.4,644.7L585.97,612.75L586.55,645.23L587.12,647.32L587.7,667.23L588.27,648.89L588.85,650.46L589.42,669.32L590,647.32L590.57,656.23L591.15,660.42L591.72,660.42L592.3,664.61L592.87,648.89L593.45,670.89L594.02,663.56L594.6,666.7L595.17,677.18L595.75,653.08L596.32,668.27L596.9,654.65L597.47,666.7L598.05,644.18L598.62,672.47L599.2,664.08L599.77,679.27L600.35,680.32L600.92,658.85L601.5,668.8L602.07,648.37L602.65,666.7L603.22,652.56L603.8,643.13L604.37,663.04L604.95,680.85L605.52,671.94L606.1,668.27L606.67,672.47L607.25,665.13L607.83,652.04L608.4,660.42L608.98,683.47L609.55,660.94L610.13,651.51L610.7,689.23L611.28,653.08L611.85,687.66L612.43,658.85L613,670.37L613.58,672.99L614.15,624.8L614.73,678.75L615.3,631.61L615.88,643.13L616.45,640.51L617.03,626.37L617.6,616.94L618.18,647.32L618.75,621.65L619.33,644.7L619.9,624.27L620.48,639.46L621.05,662.51L621.63,666.7L622.2,670.89L622.78,680.85L623.35,665.13L623.93,666.7L624.5,667.75L625.08,655.18L625.65,655.7L626.23,661.46L626.8,657.27L627.38,668.8L627.95,642.08L628.53,672.99L629.1,632.13L629.68,670.89L630.25,625.32L630.83,678.75L631.41,640.51L631.98,663.04L632.56,651.51L633.13,666.18L633.71,667.75L634.28,663.04L634.86,666.7L635.43,671.42L636.01,671.42L636.58,671.42L637.16,664.08L637.73,658.85L638.31,652.04L638.88,670.37L639.46,657.8L640.03,650.99L640.61,665.13L641.18,690.28L641.76,687.66L642.33,655.18L642.91,677.7L643.48,668.8L644.06,690.8L644.63,638.94L645.21,657.8L645.78,678.23L646.36,666.18L646.93,675.08L647.51,645.75L648.08,670.37L648.66,663.04L649.23,657.27L649.81,669.85L650.38,672.47L650.96,679.8L651.53,660.42L652.11,671.94L652.68,660.94L653.26,644.7L653.83,659.37L654.41,661.99L654.98,699.7L655.56,664.08L656.14,664.08L656.71,667.23L657.29,669.85L657.86,659.37L658.44,660.94L659.01,690.8L659.59,666.18L660.16,645.75L660.74,682.42L661.31,647.32L661.89,671.42L662.46,668.27L663.04,656.75L663.61,670.89L664.19,682.94L664.76,637.89L665.34,682.94L665.91,665.13L666.49,663.56L667.06,667.23L667.64,653.08L668.21,662.51L668.79,641.56L669.36,679.8L669.94,661.46L670.51,663.04L671.09,651.51L671.66,659.37L672.24,668.8L672.81,654.13L673.39,691.32L673.96,681.89L674.54,652.04L675.11,661.99L675.69,655.7L676.26,670.89L676.84,669.32L677.41,666.18L677.99,654.13L678.56,682.94L679.14,642.08L679.72,672.99L680.29,658.85L680.87,684.51L681.44,651.51L682.02,670.89L682.59,675.61L683.17,671.94L683.74,648.89L684.32,641.04L684.89,696.56L685.47,667.23L686.04,650.46L686.62,671.94L687.19,678.23L687.77,666.18L688.34,675.08L688.92,666.18L689.49,662.51L690.07,661.99L690.64,669.85L691.22,674.56L691.79,666.7L692.37,662.51L692.94,675.08L693.52,691.32L694.09,672.47L694.67,683.47L695.24,645.23L695.82,675.61L696.39,664.61L696.97,685.04L697.54,647.32L698.12,683.47L698.69,688.18L699.27,670.37L699.84,653.08L700.42,657.27L700.99,653.08L701.57,680.85L702.14,666.18L702.72,662.51L703.3,675.08L703.87,683.99L704.45,649.42L705.02,663.56L705.6,689.75L706.17,656.75L706.75,663.04L707.32,655.18L707.9,666.7L708.47,630.03L709.05,671.94L709.62,655.18L710.2,676.66L710.77,636.84L711.35,668.27L711.92,647.85L712.5,672.47L713.07,652.04L713.65,699.18L714.22,656.75L714.8,661.99L715.37,658.85L715.95,654.65L716.52,678.23L717.1,648.89L717.67,672.47L718.25,669.85L718.82,687.13L719.4,665.66L719.97,675.61L720.55,679.27L721.12,679.27L721.7,644.18L722.27,670.37L722.85,670.89L723.42,679.8L724,663.04L724.57,657.8L725.15,676.66L725.72,661.99L726.3,678.23L726.88,656.23L727.45,675.08L728.03,664.08L728.6,670.89L729.18,684.51L729.75,670.89L730.33,670.37L730.9,676.66L731.48,672.99L732.05,656.23L732.63,663.04L733.2,663.04L733.78,641.04L734.35,671.42L734.93,663.04L735.5,667.23L736.08,664.61L736.65,663.04L737.23,660.94L737.8,660.94L738.38,666.18L738.95,669.85L739.53,664.61L740.1,660.94L740.68,678.75L741.25,647.85L741.83,681.89L742.4,680.32L742.98,683.47L743.55,661.46L744.13,667.75L744.7,656.75L745.28,694.47L745.85,669.32L746.43,657.27L747,639.46L747.58,665.66L748.15,643.65L748.73,666.18L749.3,653.08L749.88,637.37L750.46,668.27L751.03,661.46L751.61,643.65L752.18,683.47L752.76,668.8L753.33,625.84L753.91,660.42L754.48,634.23L755.06,648.37L755.63,635.8L756.21,626.89L756.78,640.51L757.36,621.65L757.93,648.37L758.51,643.13L759.08,623.23L759.66,660.42L760.23,670.89L760.81,686.61L761.38,655.7L761.96,659.89L762.53,667.23L763.11,672.99L763.68,661.99L764.26,673.51L764.83,658.32L765.41,677.7L765.98,664.61L766.56,692.37L767.13,639.99L767.71,670.37L768.28,679.8L768.86,652.56L769.43,672.99L770.01,661.46L770.58,664.08L771.16,653.61L771.73,659.89L772.31,679.8L772.88,675.61L773.46,659.89L774.04,669.32L774.61,670.89L775.19,684.51L775.76,663.04L776.34,671.42L776.91,661.46L777.49,691.85L778.06,662.51L778.64,655.7L779.21,667.75L779.79,667.23L780.36,650.99L780.94,670.37L781.51,677.7L782.09,682.94L782.66,658.32L783.24,657.8L783.81,674.04L784.39,664.61L784.96,672.47L785.54,649.94L786.11,666.7L786.69,659.37L787.26,655.7L787.84,612.75L788.41,624.8L788.99,648.37L789.56,625.84L790.14,655.18L790.71,628.99L791.29,614.84L791.86,643.65L792.44,640.51L793.01,629.51L793.59,654.13L794.16,666.7L794.74,674.56L795.31,649.42L795.89,669.85L796.46,671.94L797.04,685.04L797.62,669.32L798.19,663.56L798.77,668.27L799.34,661.99L799.92,663.04L800.49,655.7L801.07,667.23L801.64,665.66L802.22,665.66L802.79,680.32L803.37,667.23L803.94,638.42L804.52,659.89L805.09,677.18L805.67,646.8L806.24,673.51L806.82,660.94L807.39,687.66L807.97,672.47L808.54,659.89L809.12,681.37L809.69,682.42L810.27,651.51L810.84,653.61L811.42,685.56L811.99,692.89L812.57,648.89L813.14,656.75L813.72,677.18L814.29,680.32L814.87,643.65L815.44,687.13L816.02,694.47L816.59,642.61L817.17,663.56L817.74,662.51L818.32,663.56L818.89,681.37L819.47,654.65L820.04,657.27L820.62,664.08L821.2,678.75L821.77,648.89L822.35,700.75L822.92,641.56L823.5,682.42L824.07,651.51L824.65,680.85L825.22,655.7L825.8,698.66L826.37,641.04L826.95,660.94L827.52,669.85L828.1,655.18L828.67,660.94L829.25,656.75L829.82,637.37L830.4,634.23L830.97,679.8L831.55,639.99L832.12,668.8L832.7,670.37L833.27,668.8L833.85,670.37L834.42,678.23L835,655.18L835.57,688.18L836.15,649.42L836.72,700.75L837.3,691.85L837.87,652.04L838.45,646.8L839.02,678.23L839.6,649.42L840.17,658.85L840.75,680.32L841.32,647.85L841.9,589.7L842.47,626.37L843.05,598.61L843.62,608.56L844.2,614.32L844.78,626.37L845.35,628.99L845.93,653.61L846.5,666.7L847.08,631.61L847.65,626.37L848.23,620.08L848.8,628.99L849.38,624.8L849.95,592.32L850.53,610.65L851.1,624.8L851.68,627.94L852.25,611.18L852.83,574.51L853.4,598.61L853.98,628.46L854.55,572.41L855.13,612.22L855.7,602.27L856.28,621.65L856.85,594.41L857.43,641.56L858,605.94L858.58,625.84L859.15,596.51L859.73,650.99L860.3,590.75L860.88,638.42L861.45,638.94L862.03,624.27L862.6,634.75L863.18,617.46L863.75,639.46L864.33,602.27L864.9,589.18L865.48,616.42L866.05,600.7L866.63,630.56L867.2,628.99L867.78,600.7L868.36,592.32L868.93,586.03L869.51,623.75L870.08,605.94L870.66,601.75L871.23,600.7L871.81,638.94L872.38,610.13L872.96,629.51L873.53,642.61L874.11,580.79L874.68,637.89L875.26,617.99L875.83,631.61L876.41,598.08L876.98,613.8L877.56,614.32L878.13,622.18L878.71,637.37L879.28,639.46L879.86,632.65L880.43,614.32L881.01,633.18L881.58,619.03L882.16,620.61L882.73,606.46L883.31,600.7L883.88,646.8L884.46,606.99L885.03,634.75L885.61,641.56L886.18,612.22L886.76,605.94L887.33,597.03L887.91,605.94L888.48,617.46L889.06,594.94L889.63,643.13L890.21,603.32L890.78,632.65L891.36,613.27L891.94,624.8L892.51,621.65L893.09,628.99L893.66,617.46L894.24,588.65L894.81,609.61L895.39,611.18L895.96,616.94L896.54,579.22L897.11,628.46L897.69,613.27L898.26,622.18L898.84,597.56L899.41,634.23L899.99,640.51L900.56,606.46L901.14,634.23L901.71,606.46L902.29,627.42L902.86,618.51L903.44,602.8L904.01,653.08L904.59,628.99L905.16,619.56L905.74,657.27L906.31,626.37L906.89,625.32L907.46,597.03L908.04,608.03L908.61,610.13L909.19,611.18L909.76,615.37L910.34,621.13L910.91,635.8L911.49,603.84L912.06,600.18L912.64,617.46L913.21,610.13L913.79,633.7L914.36,633.18L914.94,646.8L915.52,627.94L916.09,657.27L916.67,601.75L917.24,627.42L917.82,626.89L918.39,627.42L918.97,648.89L919.54,631.08L920.12,651.51L920.69,630.03L921.27,617.99L921.84,637.89L922.42,645.75L922.99,618.51L923.57,627.42L924.14,627.42L924.72,628.46L925.29,615.37L925.87,643.65L926.44,622.7L927.02,610.13L927.59,597.56L928.17,601.75L928.74,634.75L929.32,627.94L929.89,602.27L930.47,623.23L931.04,593.37L931.62,581.32L932.19,615.89L932.77,620.61L933.34,598.61L933.92,631.61L934.49,610.13L935.07,632.65L935.64,624.27L936.22,626.89L936.79,620.08L937.37,638.94L937.94,614.32L938.52,632.13L939.1,643.65L939.67,644.18L940.25,637.89L940.82,608.03L941.4,621.13L941.97,646.8L942.55,633.7L943.12,611.7L943.7,598.08L944.27,647.85L944.85,620.61L945.42,639.46L946,625.32L946.57,653.61L947.15,621.13L947.72,615.89L948.3,612.75L948.87,607.51L949.45,609.08L950.02,601.22L950.6,627.94L951.17,610.65L951.75,630.56L952.32,600.7L952.9,626.89L953.47,626.89L954.05,604.37L954.62,620.61L955.2,619.03L955.77,634.23L956.35,648.89L956.92,616.94L957.5,644.18L958.07,625.84L958.65,612.22L959.22,606.46L959.8,616.94L960.37,601.22L960.95,626.37L961.52,628.99L962.1,635.27L962.68,615.89L963.25,633.7L963.83,623.23L964.4,620.61L964.98,575.03L965.55,604.37L966.13,615.89L966.7,625.84L967.28,599.65L967.85,610.13L968.43,615.37L969,604.37L969.58,631.08L970.15,618.51L970.73,641.04L971.3,632.13L971.88,623.23L972.45,649.42L973.03,695.51" style="fill:none;stroke:#F15A60;stroke-width:1.875" />
<path d="M67.786,153.87L68.361,466.08L68.936,555.65L69.511,538.89L70.086,539.41L70.661,556.7L71.236,536.79L71.811,556.17L72.387,543.08L72.962,540.98L73.537,544.13L74.112,544.65L74.687,540.98L75.262,568.75L75.837,558.27L76.412,546.22L76.988,524.75L77.563,566.13L78.138,549.89L78.713,544.13L79.288,574.51L79.863,554.08L80.438,560.89L81.013,542.03L81.589,565.6L82.164,564.03L82.739,553.56L83.314,556.17L83.889,582.89L84.464,567.7L85.039,546.75L85.614,568.22L86.19,565.08L86.765,554.6L87.34,557.22L87.915,569.27L88.49,549.89L89.065,577.13L89.64,572.41L90.215,584.99L90.791,535.75L91.366,561.41L91.941,557.22L92.516,542.56L93.091,544.13L93.666,548.32L94.241,558.79L94.816,542.03L95.391,551.98L95.967,546.75L96.542,555.65L97.117,568.22L97.692,560.89L98.267,570.32L98.842,562.46L99.417,569.27L99.992,578.18L100.57,533.13L101.14,583.41L101.72,564.56L102.29,565.08L102.87,584.99L103.44,553.03L104.02,583.41L104.59,550.94L105.17,571.37L105.74,560.89L106.32,570.32L106.89,572.41L107.47,558.27L108.04,592.84L108.62,548.32L109.19,579.22L109.77,569.79L110.34,559.32L110.92,573.46L111.49,558.79L112.07,582.89L112.65,565.08L113.22,571.89L113.8,577.13L114.37,568.22L114.95,555.13L115.52,577.65L116.1,566.13L116.67,558.79L117.25,573.46L117.82,560.37L118.4,569.27L118.97,570.32L119.55,571.89L120.12,562.46L120.7,584.99L121.27,560.89L121.85,581.84L122.42,573.99L123,564.03L123.57,559.32L124.15,606.99L124.72,580.79L125.3,554.6L125.87,554.08L126.45,568.75L127.02,601.75L127.6,552.51L128.17,586.56L128.75,573.46L129.32,541.51L129.9,577.65L130.47,589.18L131.05,570.84L131.62,587.08L132.2,559.32L132.77,589.18L133.35,547.79L133.92,590.22L134.5,579.75L135.07,574.51L135.65,579.75L136.23,585.51L136.8,584.99L137.38,572.41L137.95,579.75L138.53,587.08L139.1,562.98L139.68,580.79L140.25,553.56L140.83,588.65L141.4,578.7L141.98,579.22L142.55,574.51L143.13,575.56L143.7,575.03L144.28,571.37L144.85,589.7L145.43,559.32L146,571.37L146.58,562.98L147.15,592.32L147.73,588.65L148.3,573.99L148.88,564.56L149.45,573.46L150.03,575.03L150.6,573.46L151.18,575.56L151.75,560.89L152.33,561.41L152.9,550.41L153.48,583.41L154.05,565.08L154.63,561.41L155.2,556.17L155.78,554.08L156.35,578.7L156.93,554.08L157.5,562.46L158.08,567.18L158.65,557.75L159.23,591.27L159.81,569.27L160.38,576.6L160.96,576.6L161.53,577.13L162.11,581.32L162.68,590.22L163.26,573.46L163.83,575.56L164.41,581.32L164.98,572.94L165.56,588.13L166.13,573.99L166.71,588.65L167.28,568.22L167.86,572.41L168.43,597.56L169.01,586.56L169.58,579.22L170.16,562.98L170.73,593.89L171.31,567.18L171.88,583.94L172.46,564.03L173.03,590.75L173.61,593.37L174.18,561.41L174.76,577.13L175.33,577.65L175.91,571.89L176.48,588.65L177.06,574.51L177.63,588.13L178.21,560.37L178.78,575.03L179.36,592.84L179.93,565.08L180.51,589.18L181.08,581.84L181.66,543.08L182.23,625.32L182.81,579.22L183.39,567.18L183.96,572.94L184.54,595.99L185.11,584.46L185.69,575.56L186.26,579.75L186.84,576.08L187.41,581.32L187.99,580.79L188.56,599.13L189.14,571.37L189.71,575.56L190.29,573.99L190.86,570.84L191.44,581.32L192.01,556.7L192.59,570.32L193.16,572.94L193.74,600.7L194.31,556.7L194.89,597.56L195.46,579.22L196.04,575.03L196.61,555.13L197.19,601.75L197.76,538.36L198.34,592.32L198.91,555.13L199.49,555.65L200.06,598.61L200.64,563.51L201.21,568.22L201.79,572.41L202.36,586.56L202.94,587.6L203.51,555.13L204.09,579.22L204.66,575.56L205.24,577.65L205.81,597.03L206.39,563.51L206.97,602.8L207.54,565.6L208.12,580.27L208.69,571.37L209.27,566.65L209.84,576.08L210.42,598.61L210.99,551.98L211.57,598.08L212.14,581.84L212.72,593.37L213.29,536.79L213.87,595.99L214.44,569.27L215.02,581.32L215.59,557.75L216.17,610.13L216.74,589.7L217.32,558.27L217.89,594.41L218.47,582.37L219.04,573.99L219.62,577.13L220.19,590.75L220.77,571.37L221.34,593.37L221.92,580.27L222.49,572.41L223.07,599.13L223.64,564.03L224.22,585.51L224.79,582.89L225.37,600.7L225.94,557.22L226.52,580.79L227.09,595.46L227.67,584.99L228.24,591.8L228.82,586.03L229.39,584.99L229.97,576.08L230.55,592.32L231.12,587.08L231.7,567.7L232.27,560.89L232.85,565.08L233.42,601.75L234,567.7L234.57,573.99L235.15,570.32L235.72,603.84L236.3,577.65L236.87,582.37L237.45,573.99L238.02,589.18L238.6,566.65L239.17,582.37L239.75,591.27L240.32,571.89L240.9,584.46L241.47,572.41L242.05,576.08L242.62,569.27L243.2,577.65L243.77,581.84L244.35,569.79L244.92,590.75L245.5,578.7L246.07,567.7L246.65,597.56L247.22,569.27L247.8,577.13L248.37,553.56L248.95,579.22L249.52,573.46L250.1,569.27L250.67,592.84L251.25,597.56L251.82,559.32L252.4,596.51L252.97,577.65L253.55,583.94L254.13,604.37L254.7,572.41L255.28,564.56L255.85,577.13L256.43,581.84L257,589.18L257.58,551.46L258.15,590.75L258.73,582.89L259.3,593.37L259.88,575.56L260.45,581.84L261.03,561.94L261.6,604.37L262.18,570.84L262.75,572.41L263.33,591.8L263.9,562.98L264.48,574.51L265.05,570.32L265.63,549.89L266.2,557.75L266.78,550.94L267.35,571.37L267.93,561.41L268.5,550.94L269.08,567.7L269.65,555.13L270.23,620.08L270.8,558.79L271.38,560.37L271.95,596.51L272.53,589.7L273.1,597.03L273.68,561.41L274.25,599.65L274.83,569.27L275.4,581.32L275.98,572.94L276.55,592.32L277.13,569.79L277.71,573.99L278.28,570.32L278.86,565.6L279.43,584.99L280.01,543.6L280.58,590.22L281.16,578.7L281.73,600.18L282.31,564.03L282.88,595.46L283.46,570.32L284.03,573.46L284.61,582.37L285.18,578.7L285.76,584.46L286.33,568.22L286.91,581.32L287.48,583.41L288.06,594.94L288.63,579.75L289.21,570.84L289.78,579.75L290.36,581.84L290.93,574.51L291.51,569.27L292.08,600.7L292.66,580.27L293.23,572.94L293.81,584.46L294.38,567.7L294.96,584.46L295.53,590.75L296.11,566.13L296.68,588.13L297.26,591.27L297.83,573.46L298.41,566.13L298.98,587.08L299.56,580.27L300.13,578.18L300.71,595.99L301.29,562.46L301.86,599.65L302.44,573.46L303.01,590.22L303.59,577.65L304.16,567.7L304.74,572.41L305.31,584.46L305.89,577.65L306.46,579.22L307.04,586.03L307.61,573.46L308.19,581.84L308.76,598.61L309.34,586.03L309.91,583.94L310.49,558.79L311.06,594.94L311.64,559.84L312.21,588.65L312.79,573.46L313.36,603.32L313.94,579.75L314.51,583.41L315.09,589.18L315.66,576.08L316.24,575.56L316.81,587.08L317.39,573.99L317.96,554.08L318.54,593.37L319.11,564.56L319.69,573.46L320.26,568.22L320.84,578.7L321.41,559.84L321.99,578.7L322.56,578.7L323.14,578.18L323.71,573.46L324.29,566.65L324.87,578.18L325.44,572.41L326.02,543.08L326.59,574.51L327.17,547.79L327.74,573.99L328.32,553.03L328.89,557.22L329.47,568.75L330.04,575.03L330.62,582.37L331.19,576.08L331.77,594.94L332.34,560.89L332.92,590.75L333.49,564.56L334.07,584.99L334.64,587.6L335.22,583.94L335.79,589.18L336.37,567.18L336.94,612.22L337.52,569.79L338.09,576.6L338.67,572.94L339.24,590.22L339.82,588.13L340.39,588.65L340.97,582.89L341.54,576.6L342.12,555.65L342.69,571.89L343.27,597.56L343.84,592.84L344.42,571.37L344.99,567.7L345.57,584.46L346.14,601.75L346.72,580.79L347.29,583.41L347.87,568.22L348.45,586.56L349.02,583.94L349.6,588.13L350.17,587.08L350.75,560.89L351.32,587.6L351.9,558.27L352.47,585.51L353.05,565.08L353.62,575.56L354.2,583.94L354.77,566.65L355.35,597.03L355.92,575.03L356.5,572.94L357.07,588.13L357.65,584.99L358.22,578.18L358.8,590.75L359.37,568.22L359.95,570.32L360.52,584.46L361.1,583.41L361.67,595.99L362.25,576.08L362.82,589.7L363.4,590.75L363.97,571.37L364.55,591.27L365.12,571.89L365.7,582.37L366.27,611.18L366.85,580.27L367.42,562.98L368,575.56L368.57,590.75L369.15,567.7L369.72,596.51L370.3,586.56L370.87,580.27L371.45,580.27L372.03,564.03L372.6,576.08L373.18,580.27L373.75,581.32L374.33,586.03L374.9,566.13L375.48,593.89L376.05,580.79L376.63,545.17L377.2,597.56L377.78,578.18L378.35,593.89L378.93,572.94L379.5,567.7L380.08,572.41L380.65,560.89L381.23,603.32L381.8,577.65L382.38,551.98L382.95,593.37L383.53,562.98L384.1,584.46L384.68,579.22L385.25,573.99L385.83,573.99L386.4,578.7L386.98,573.99L387.55,575.56L388.13,586.03L388.7,579.22L389.28,569.27L389.85,598.61L390.43,579.22L391,582.89L391.58,580.79L392.15,585.51L392.73,580.79L393.3,579.75L393.88,572.94L394.45,588.65L395.03,578.18L395.61,587.08L396.18,567.18L396.76,602.8L397.33,587.08L397.91,559.32L398.48,579.75L399.06,581.84L399.63,579.22L400.21,564.56L400.78,588.13L401.36,567.18L401.93,571.37L402.51,584.99L403.08,581.32L403.66,578.7L404.23,568.75L404.81,566.13L405.38,592.84L405.96,578.7L406.53,623.23L407.11,571.37L407.68,569.27L408.26,587.6L408.83,565.08L409.41,573.46L409.98,573.99L410.56,583.94L411.13,590.75L411.71,567.18L412.28,578.18L412.86,575.56L413.43,599.65L414.01,586.03L414.58,572.94L415.16,581.84L415.73,576.08L416.31,587.6L416.88,584.99L417.46,591.27L418.03,581.32L418.61,599.13L419.19,556.7L419.76,589.7L420.34,593.89L420.91,566.65L421.49,577.65L422.06,579.75L422.64,569.79L423.21,590.75L423.79,581.84L424.36,587.08L424.94,565.6L425.51,580.27L426.09,580.27L426.66,579.75L427.24,568.75L427.81,579.75L428.39,573.99L428.96,594.94L429.54,594.41L430.11,572.41L430.69,573.46L431.26,585.51L431.84,592.84L432.41,567.18L432.99,590.75L433.56,564.56L434.14,606.46L434.71,575.56L435.29,571.37L435.86,594.94L436.44,571.37L437.01,567.18L437.59,562.98L438.16,538.36L438.74,578.7L439.31,568.22L439.89,556.17L440.46,548.32L441.04,567.18L441.61,564.03L442.19,575.56L442.77,579.75L443.34,575.56L443.92,597.03L444.49,592.32L445.07,586.56L445.64,558.79L446.22,593.89L446.79,587.08L447.37,580.79L447.94,565.6L448.52,589.7L449.09,579.75L449.67,565.6L450.24,564.03L450.82,582.37L451.39,569.79L451.97,594.41L452.54,571.37L453.12,581.32L453.69,573.46L454.27,579.75L454.84,577.65L455.42,563.51L455.99,584.46L456.57,556.17L457.14,587.08L457.72,568.22L458.29,592.32L458.87,556.7L459.44,584.46L460.02,580.79L460.59,566.65L461.17,591.8L461.74,567.18L462.32,602.8L462.89,583.41L463.47,580.27L464.04,572.41L464.62,581.84L465.19,582.89L465.77,577.13L466.35,576.6L466.92,572.94L467.5,589.7L468.07,566.65L468.65,576.08L469.22,563.51L469.8,598.61L470.37,586.03L470.95,586.56L471.52,580.79L472.1,573.99L472.67,587.08L473.25,585.51L473.82,590.22L474.4,605.41L474.97,564.56L475.55,588.65L476.12,579.75L476.7,595.99L477.27,584.46L477.85,585.51L478.42,595.46L479,589.18L479.57,560.37L480.15,618.51L480.72,577.13L481.3,578.7L481.87,601.22L482.45,566.13L483.02,591.8L483.6,553.03L484.17,599.65L484.75,564.56L485.32,596.51L485.9,598.61L486.47,572.41L487.05,584.46L487.62,583.41L488.2,595.99L488.77,590.75L489.35,553.56L489.93,584.46L490.5,599.13L491.08,575.56L491.65,567.18L492.23,581.84L492.8,595.99L493.38,578.18L493.95,594.41L494.53,572.41L495.1,570.84L495.68,599.65L496.25,580.27L496.83,543.08L497.4,569.27L497.98,579.22L498.55,563.51L499.13,582.37L499.7,556.7L500.28,550.41L500.85,589.18L501.43,557.22L502,546.22L502.58,586.03L503.15,580.79L503.73,596.51L504.3,606.46L504.88,582.37L505.45,582.89L506.03,584.46L506.6,594.41L507.18,578.18L507.75,589.7L508.33,583.41L508.9,583.41L509.48,595.99L510.05,566.65L510.63,579.22L511.2,600.18L511.78,579.22L512.35,591.27L512.93,576.6L513.51,584.46L514.08,572.41L514.66,628.99L515.23,567.7L515.81,588.13L516.38,578.18L516.96,583.41L517.53,582.37L518.11,583.41L518.68,546.75L519.26,586.03L519.83,601.22L520.41,564.56L520.98,590.22L521.56,568.22L522.13,578.18L522.71,579.75L523.28,594.94L523.86,565.08L524.43,598.08L525.01,555.65L525.58,568.75L526.16,605.41L526.73,569.27L527.31,598.61L527.88,590.75L528.46,592.84L529.03,580.79L529.61,571.89L530.18,586.56L530.76,582.37L531.33,584.99L531.91,593.37L532.48,592.84L533.06,579.75L533.63,610.13L534.21,567.7L534.78,575.56L535.36,584.46L535.93,580.79L536.51,577.13L537.09,598.08L537.66,571.37L538.24,579.22L538.81,570.84L539.39,598.08L539.96,594.41L540.54,578.7L541.11,586.56L541.69,574.51L542.26,587.6L542.84,574.51L543.41,593.37L543.99,582.37L544.56,561.41L545.14,591.8L545.71,582.37L546.29,591.27L546.86,583.41L547.44,576.6L548.01,587.6L548.59,579.22L549.16,580.27L549.74,595.46L550.31,567.7L550.89,590.75L551.46,577.65L552.04,578.7L552.61,592.84L553.19,600.18L553.76,563.51L554.34,571.89L554.91,590.22L555.49,571.37L556.06,608.03L556.64,576.08L557.21,573.46L557.79,564.03L558.36,580.79L558.94,597.03L559.51,583.94L560.09,568.22L560.67,589.7L561.24,588.65L561.82,565.08L562.39,595.99L562.97,580.27L563.54,573.99L564.12,589.7L564.69,580.27L565.27,577.13L565.84,591.8L566.42,587.08L566.99,572.41L567.57,601.75L568.14,582.89L568.72,593.37L569.29,580.79L569.87,576.08L570.44,583.41L571.02,567.7L571.59,604.37L572.17,581.32L572.74,570.32L573.32,581.32L573.89,562.98L574.47,578.18L575.04,603.32L575.62,589.7L576.19,573.99L576.77,590.75L577.34,578.7L577.92,602.27L578.49,579.75L579.07,580.79L579.64,582.89L580.22,588.13L580.79,582.37L581.37,565.6L581.94,609.61L582.52,550.41L583.09,597.03L583.67,583.94L584.25,578.7L584.82,570.32L585.4,599.13L585.97,572.41L586.55,600.18L587.12,567.18L587.7,582.89L588.27,609.61L588.85,562.46L589.42,582.89L590,579.75L590.57,572.94L591.15,555.13L591.72,594.41L592.3,517.94L592.87,638.42L593.45,590.75L594.02,564.56L594.6,582.37L595.17,570.32L595.75,571.89L596.32,606.99L596.9,557.22L597.47,593.37L598.05,556.17L598.62,575.03L599.2,581.32L599.77,590.22L600.35,575.56L600.92,580.27L601.5,569.79L602.07,593.89L602.65,592.84L603.22,583.94L603.8,558.27L604.37,590.75L604.95,596.51L605.52,579.75L606.1,591.8L606.67,578.18L607.25,586.03L607.83,594.41L608.4,565.6L608.98,561.94L609.55,588.13L610.13,577.65L610.7,543.6L611.28,590.22L611.85,560.89L612.43,573.99L613,543.08L613.58,574.51L614.15,547.79L614.73,587.08L615.3,587.6L615.88,562.98L616.45,582.37L617.03,589.18L617.6,569.79L618.18,584.99L618.75,573.46L619.33,584.99L619.9,570.84L620.48,576.6L621.05,582.89L621.63,575.56L622.2,566.65L622.78,569.27L623.35,581.32L623.93,586.03L624.5,581.84L625.08,572.41L625.65,578.18L626.23,587.08L626.8,568.75L627.38,586.03L627.95,590.75L628.53,579.75L629.1,561.94L629.68,581.84L630.25,579.22L630.83,561.41L631.41,555.65L631.98,577.13L632.56,584.99L633.13,579.75L633.71,560.89L634.28,579.22L634.86,571.37L635.43,588.13L636.01,576.6L636.58,567.18L637.16,579.22L637.73,608.03L638.31,575.03L638.88,554.08L639.46,601.22L640.03,587.6L640.61,577.13L641.18,572.94L641.76,579.22L642.33,573.99L642.91,590.22L643.48,587.6L644.06,588.65L644.63,551.46L645.21,573.99L645.78,582.37L646.36,595.99L646.93,561.41L647.51,582.89L648.08,566.65L648.66,592.84L649.23,572.94L649.81,591.8L650.38,574.51L650.96,584.99L651.53,583.41L652.11,583.41L652.68,582.89L653.26,587.08L653.83,559.84L654.41,581.32L654.98,588.65L655.56,562.46L656.14,598.61L656.71,567.18L657.29,576.08L657.86,586.03L658.44,576.6L659.01,591.8L659.59,580.79L660.16,582.37L660.74,548.32L661.31,582.37L661.89,584.46L662.46,569.27L663.04,577.13L663.61,561.94L664.19,600.18L664.76,547.27L665.34,595.46L665.91,594.41L666.49,583.94L667.06,568.22L667.64,613.8L668.21,545.17L668.79,562.98L669.36,555.65L669.94,574.51L670.51,543.6L671.09,569.27L671.66,539.41L672.24,558.79L672.81,553.03L673.39,567.7L673.96,552.51L674.54,546.75L675.11,582.89L675.69,576.6L676.26,555.65L676.84,572.94L677.41,591.27L677.99,584.46L678.56,560.37L679.14,591.8L679.72,573.46L680.29,581.32L680.87,559.32L681.44,585.51L682.02,577.13L682.59,581.32L683.17,589.18L683.74,571.37L684.32,556.17L684.89,571.37L685.47,587.6L686.04,563.51L686.62,579.22L687.19,557.22L687.77,571.37L688.34,563.51L688.92,580.27L689.49,570.32L690.07,579.75L690.64,593.37L691.22,577.65L691.79,576.08L692.37,558.79L692.94,584.99L693.52,587.08L694.09,579.75L694.67,567.18L695.24,583.41L695.82,582.37L696.39,567.7L696.97,562.46L697.54,601.75L698.12,573.46L698.69,569.79L699.27,575.56L699.84,571.37L700.42,574.51L700.99,575.03L701.57,571.89L702.14,560.37L702.72,600.7L703.3,586.03L703.87,573.99L704.45,553.56L705.02,607.51L705.6,586.03L706.17,553.56L706.75,586.56L707.32,580.27L707.9,564.56L708.47,579.22L709.05,577.13L709.62,568.22L710.2,587.08L710.77,564.56L711.35,586.56L711.92,579.22L712.5,574.51L713.07,579.75L713.65,590.75L714.22,578.18L714.8,561.94L715.37,573.99L715.95,580.79L716.52,568.22L717.1,586.03L717.67,584.99L718.25,584.46L718.82,562.46L719.4,594.94L719.97,591.27L720.55,552.51L721.12,594.41L721.7,592.84L722.27,569.27L722.85,571.37L723.42,582.89L724,587.08L724.57,572.94L725.15,565.08L725.72,572.94L726.3,590.75L726.88,573.46L727.45,562.98L728.03,580.79L728.6,580.79L729.18,548.84L729.75,591.27L730.33,567.18L730.9,575.03L731.48,560.89L732.05,561.41L732.63,589.18L733.2,580.79L733.78,553.56L734.35,583.94L734.93,576.6L735.5,568.22L736.08,567.18L736.65,556.7L737.23,597.03L737.8,561.94L738.38,597.03L738.95,585.51L739.53,598.61L740.1,587.6L740.68,583.41L741.25,579.22L741.83,561.41L742.4,579.75L742.98,569.79L743.55,599.13L744.13,577.13L744.7,563.51L745.28,582.89L745.85,573.46L746.43,570.84L747,575.56L747.58,576.08L748.15,577.13L748.73,568.22L749.3,583.41L749.88,571.37L750.46,573.46L751.03,577.13L751.61,588.65L752.18,586.03L752.76,568.75L753.33,564.56L753.91,570.84L754.48,571.37L755.06,578.7L755.63,601.22L756.21,581.32L756.78,578.7L757.36,576.08L757.93,580.79L758.51,558.27L759.08,574.51L759.66,568.22L760.23,561.41L760.81,576.6L761.38,589.7L761.96,573.46L762.53,594.41L763.11,561.41L763.68,590.75L764.26,602.8L764.83,556.7L765.41,575.56L765.98,567.7L766.56,589.7L767.13,582.37L767.71,556.17L768.28,582.89L768.86,589.18L769.43,571.37L770.01,580.79L770.58,565.08L771.16,569.79L771.73,559.84L772.31,581.84L772.88,598.08L773.46,581.32L774.04,576.08L774.61,567.18L775.19,584.99L775.76,570.84L776.34,575.03L776.91,593.37L777.49,582.37L778.06,570.84L778.64,575.03L779.21,573.46L779.79,569.27L780.36,527.36L780.94,606.46L781.51,569.27L782.09,568.75L782.66,552.51L783.24,568.75L783.81,560.37L784.39,523.7L784.96,580.27L785.54,557.75L786.11,535.22L786.69,559.84L787.26,571.37L787.84,579.22L788.41,576.6L788.99,571.89L789.56,575.03L790.14,574.51L790.71,597.56L791.29,565.08L791.86,577.65L792.44,576.6L793.01,545.17L793.59,593.89L794.16,567.7L794.74,579.75L795.31,575.56L795.89,569.27L796.46,576.6L797.04,567.18L797.62,588.13L798.19,545.7L798.77,614.84L799.34,574.51L799.92,571.89L800.49,561.41L801.07,553.56L801.64,600.18L802.22,572.41L802.79,581.32L803.37,571.37L803.94,591.27L804.52,569.79L805.09,577.13L805.67,565.08L806.24,550.41L806.82,570.32L807.39,589.18L807.97,588.13L808.54,586.56L809.12,578.7L809.69,564.56L810.27,589.18L810.84,589.18L811.42,567.18L811.99,565.6L812.57,572.94L813.14,587.08L813.72,562.46L814.29,567.18L814.87,598.08L815.44,561.41L816.02,588.13L816.59,571.37L817.17,562.98L817.74,584.46L818.32,577.13L818.89,569.27L819.47,587.08L820.04,585.51L820.62,568.22L821.2,584.99L821.77,554.08L822.35,602.27L822.92,544.65L823.5,569.79L824.07,578.7L824.65,559.32L825.22,583.41L825.8,571.89L826.37,572.41L826.95,576.08L827.52,578.7L828.1,577.65L828.67,572.41L829.25,567.7L829.82,590.22L830.4,569.79L830.97,565.08L831.55,584.99L832.12,572.41L832.7,585.51L833.27,557.75L833.85,584.99L834.42,566.13L835,539.94L835.57,594.41L836.15,628.46L836.72,493.32L837.3,581.84L837.87,583.94L838.45,552.51L839.02,580.79L839.6,573.99L840.17,590.75L840.75,582.89L841.32,599.13L841.9,559.32L842.47,547.27L843.05,557.22L843.62,548.32L844.2,569.27L844.78,530.51L845.35,572.94L845.93,538.36L846.5,576.08L847.08,572.41L847.65,544.13L848.23,601.75L848.8,572.41L849.38,574.51L849.95,583.41L850.53,564.03L851.1,578.7L851.68,561.94L852.25,566.13L852.83,598.08L853.4,580.27L853.98,555.65L854.55,570.84L855.13,556.7L855.7,588.65L856.28,582.89L856.85,583.41L857.43,545.17L858,590.22L858.58,564.03L859.15,577.65L859.73,586.03L860.3,571.89L860.88,584.99L861.45,553.56L862.03,557.75L862.6,578.7L863.18,579.75L863.75,570.84L864.33,553.03L864.9,587.08L865.48,577.13L866.05,581.84L866.63,569.79L867.2,562.98L867.78,582.89L868.36,580.79L868.93,577.65L869.51,560.37L870.08,559.84L870.66,569.27L871.23,582.89L871.81,564.03L872.38,584.99L872.96,575.03L873.53,585.51L874.11,569.79L874.68,584.99L875.26,564.56L875.83,573.99L876.41,573.99L876.98,600.18L877.56,559.84L878.13,583.94L878.71,569.27L879.28,577.13L879.86,572.41L880.43,578.18L881.01,566.13L881.58,592.84L882.16,550.41L882.73,607.51L883.31,560.89L883.88,575.56L884.46,567.7L885.03,583.94L885.61,581.32L886.18,532.6L886.76,583.94L887.33,556.17L887.91,570.84L888.48,589.7L889.06,586.03L889.63,550.41L890.21,583.41L890.78,551.46L891.36,560.37L891.94,581.84L892.51,557.22L893.09,578.18L893.66,581.84L894.24,590.75L894.81,580.79L895.39,584.46L895.96,575.56L896.54,563.51L897.11,577.13L897.69,582.37L898.26,570.32L898.84,560.89L899.41,590.22L899.99,561.41L900.56,579.22L901.14,576.08L901.71,558.27L902.29,585.51L902.86,566.65L903.44,543.6L904.01,600.7L904.59,573.46L905.16,573.46L905.74,580.27L906.31,588.13L906.89,560.37L907.46,581.32L908.04,574.51L908.61,561.41L909.19,565.08L909.76,569.79L910.34,589.18L910.91,570.84L911.49,575.56L912.06,556.17L912.64,586.03L913.21,570.32L913.79,579.75L914.36,581.84L914.94,577.13L915.52,580.79L916.09,576.08L916.67,574.51L917.24,578.7L917.82,548.32L918.39,595.99L918.97,585.51L919.54,562.46L920.12,556.7L920.69,573.99L921.27,579.22L921.84,583.41L922.42,583.94L922.99,580.27L923.57,578.7L924.14,558.79L924.72,573.99L925.29,553.56L925.87,579.22L926.44,569.79L927.02,576.08L927.59,595.46L928.17,568.75L928.74,580.27L929.32,570.84L929.89,553.56L930.47,581.32L931.04,562.98L931.62,566.65L932.19,593.37L932.77,570.32L933.34,557.22L933.92,570.32L934.49,598.08L935.07,564.03L935.64,564.03L936.22,561.41L936.79,587.6L937.37,581.84L937.94,555.65L938.52,559.32L939.1,585.51L939.67,556.17L940.25,573.99L940.82,556.17L941.4,577.65L941.97,575.56L942.55,597.03L943.12,565.6L943.7,580.27L944.27,572.41L944.85,561.94L945.42,584.46L946,582.37L946.57,573.46L947.15,589.18L947.72,560.89L948.3,581.84L948.87,573.46L949.45,580.27L950.02,566.13L950.6,587.6L951.17,568.75L951.75,585.51L952.32,569.27L952.9,557.22L953.47,567.7L954.05,570.84L954.62,555.65L955.2,553.56L955.77,548.32L956.35,560.89L956.92,565.08L957.5,551.98L958.07,567.18L958.65,532.6L959.22,569.27L959.8,573.46L960.37,585.51L960.95,562.98L961.52,571.37L962.1,593.37L962.68,536.79L963.25,583.94L963.83,539.94L964.4,590.75L964.98,591.8L965.55,567.18L966.13,534.17L966.7,590.22L967.28,573.46L967.85,575.03L968.43,593.89L969,555.65L969.58,571.37L970.15,556.7L970.73,592.32L971.3,558.79L971.88,561.41L972.45,555.13L973.03,589.7L973.6,577.65L974.18,567.7L974.75,585.51L975.33,580.27L975.9,565.08L976.48,573.99L977.05,571.37L977.63,572.41L978.2,582.89L978.78,564.03L979.35,583.94L979.93,567.7L980.5,559.84L981.08,584.99L981.65,580.27L982.23,582.89L982.8,564.56L983.38,572.41L983.95,572.94L984.53,562.46L985.1,597.03L985.68,580.27L986.26,564.56L986.83,571.89L987.41,576.08L987.98,566.13L988.56,576.08L989.13,577.13L989.71,567.18L990.28,571.37L990.86,571.37L991.43,561.41L992.01,587.6L992.58,559.84L993.16,584.46L993.73,575.03L994.31,568.75L994.88,566.13L995.46,588.65L996.03,567.7L996.61,589.18L997.18,575.56L997.76,575.56L998.33,577.65L998.91,570.32L999.48,576.6L1000.1,574.51L1000.6,576.08L1001.2,562.46L1001.8,573.46L1002.4,575.03L1002.9,571.89L1003.5,567.18L1004.1,562.98L1004.7,568.22L1005.2,571.89L1005.8,583.41L1006.4,573.46L1007,569.27L1007.5,546.22L1008.1,567.7L1008.7,591.8L1009.3,580.79L1009.8,570.84L1010.4,586.56L1011,572.41L1011.6,564.56L1012.1,569.27L1012.7,561.41L1013.3,582.89L1013.9,586.03L1014.4,557.22L1015,543.08L1015.6,546.75L1016.2,576.6L1016.7,542.56L1017.3,566.13L1017.9,570.84L1018.5,557.22L1019,574.51L1019.6,543.08L1020.2,558.79L1020.8,566.65L1021.3,584.46L1021.9,569.27L1022.5,567.18L1023.1,571.37L1023.6,564.03L1024.2,597.56L1024.8,554.08L1025.4,570.32L1025.9,570.84L1026.5,586.03L1027.1,572.41L1027.7,555.65L1028.2,587.08L1028.8,575.56L1029.4,590.75L1030,564.03L1030.5,578.18L1031.1,582.37L1031.7,567.18L1032.3,589.18L1032.8,567.18L1033.4,558.79L1034,576.08L1034.6,590.75L1035.1,564.03L1035.7,569.79L1036.3,549.89L1036.9,604.37L1037.4,573.46L1038,579.22L1038.6,566.13L1039.2,582.37L1039.7,578.7L1040.3,561.41L1040.9,557.75L1041.5,574.51L1042,583.41L1042.6,574.51L1043.2,584.99L1043.8,554.08L1044.3,575.03L1044.9,568.22L1045.5,575.56L1046.1,575.03L1046.6,584.46L1047.2,572.94L1047.8,551.98L1048.4,566.65L1048.9,595.46L1049.5,586.56L1050.1,537.32L1050.7,583.41L1051.2,584.46L1051.8,576.6L1052.4,587.08L1053,554.6L1053.5,574.51L1054.1,584.99L1054.7,582.89L1055.3,596.51L1055.8,540.46L1056.4,579.22L1057,577.13L1057.6,577.13L1058.1,547.27L1058.7,583.41L1059.3,577.65L1059.9,581.32L1060.4,571.37L1061,590.75L1061.6,572.94L1062.2,577.13L1062.7,565.08L1063.3,571.37L1063.9,570.84L1064.5,567.18L1065,580.27L1065.6,569.79L1066.2,571.89L1066.8,572.94L1067.3,584.46L1067.9,580.79L1068.5,571.37L1069.1,568.22L1069.6,553.56L1070.2,580.27L1070.8,580.79L1071.4,557.75L1071.9,594.94L1072.5,575.03L1073.1,587.6L1073.7,561.94L1074.2,568.22L1074.8,562.98L1075.4,591.27L1076,573.46L1076.5,586.56L1077.1,558.27L1077.7,550.94L1078.3,591.8L1078.8,577.13L1079.4,569.79L1080,671.42" style="fill:none;stroke:#7AC36A;stroke-width:1.875;stroke-dasharray:7.5,2.5" />
<path d="M1055,693.4L1080,693.4" style="fill:none;stroke:#F15A60;stroke-width:1.875" />
<text x="882.43" y="-686.35" transform="scale(1, -1)"
	style="font-family:Helvetica;font-weight:normal;font-style:normal;font-size:12pt">etcd v3 (no compression)</text>
<path d="M1055,678.7L1080,678.7" style="fill:none;stroke:#7AC36A;stroke-width:1.875;stroke-dasharray:7.5,2.5" />
<text x="937.44" y="-671.65" transform="scale(1, -1)"
	style="font-family:Helvetica;font-weight:normal;font-style:normal;font-size:12pt">etcd v3 (Snappy)</text>
</g>
</svg>
