<?xml version="1.0"?>
<!-- Generated by SVGo and Plotinum VG -->
<svg width="12in" height="8in"
	xmlns="http://www.w3.org/2000/svg"
	xmlns:xlink="http://www.w3.org/1999/xlink">
<g transform="scale(1, -1) translate(0, -720)">
<path d="M0,0L1080,0L1080,720L0,720Z" style="fill:#FFFFFF" />
<text x="253.65" y="-706.41" transform="scale(1, -1)"
	style="font-family:Helvetica;font-weight:normal;font-style:normal;font-size:12pt">Write 2M keys, 1,000 clients, 8-byte key, 256-byte value (Test 2), Latency(millisecond)</text>
<text x="548.11" y="-4.965" transform="scale(1, -1)"
	style="font-family:Helvetica;font-weight:normal;font-style:normal;font-size:12pt">Second</text>
<text x="63.613" y="-19.142" transform="scale(1, -1)"
	style="font-family:Helvetica;font-weight:normal;font-style:normal;font-size:10pt">0</text>
<text x="367.08" y="-19.142" transform="scale(1, -1)"
	style="font-family:Helvetica;font-weight:normal;font-style:normal;font-size:10pt">30</text>
<text x="674.02" y="-19.142" transform="scale(1, -1)"
	style="font-family:Helvetica;font-weight:normal;font-style:normal;font-size:10pt">60</text>
<text x="980.97" y="-19.142" transform="scale(1, -1)"
	style="font-family:Helvetica;font-weight:normal;font-style:normal;font-size:10pt">90</text>
<path d="M67.088,30.467L67.088,40.467" style="fill:none;stroke:#000000;stroke-width:0.625" />
<path d="M374.03,30.467L374.03,40.467" style="fill:none;stroke:#000000;stroke-width:0.625" />
<path d="M680.97,30.467L680.97,40.467" style="fill:none;stroke:#000000;stroke-width:0.625" />
<path d="M987.92,30.467L987.92,40.467" style="fill:none;stroke:#000000;stroke-width:0.625" />
<path d="M169.4,35.468L169.4,40.467" style="fill:none;stroke:#000000;stroke-width:0.625" />
<path d="M271.72,35.468L271.72,40.467" style="fill:none;stroke:#000000;stroke-width:0.625" />
<path d="M476.35,35.468L476.35,40.467" style="fill:none;stroke:#000000;stroke-width:0.625" />
<path d="M578.66,35.468L578.66,40.467" style="fill:none;stroke:#000000;stroke-width:0.625" />
<path d="M783.29,35.468L783.29,40.467" style="fill:none;stroke:#000000;stroke-width:0.625" />
<path d="M885.6,35.468L885.6,40.467" style="fill:none;stroke:#000000;stroke-width:0.625" />
<path d="M67.088,40.467L1080,40.467" style="fill:none;stroke:#000000;stroke-width:0.625" />
<g transform="rotate(90)">
<text x="305.89" y="13.59" transform="scale(1, -1)"
	style="font-family:Helvetica;font-weight:normal;font-style:normal;font-size:12pt">Latency(millisecond)</text>
</g>
<text x="39.405" y="-41.661" transform="scale(1, -1)"
	style="font-family:Helvetica;font-weight:normal;font-style:normal;font-size:10pt">0</text>
<text x="25.505" y="-254.45" transform="scale(1, -1)"
	style="font-family:Helvetica;font-weight:normal;font-style:normal;font-size:10pt">800</text>
<text x="18.555" y="-467.23" transform="scale(1, -1)"
	style="font-family:Helvetica;font-weight:normal;font-style:normal;font-size:10pt">1600</text>
<text x="18.555" y="-680.02" transform="scale(1, -1)"
	style="font-family:Helvetica;font-weight:normal;font-style:normal;font-size:10pt">2400</text>
<path d="M49.83,47.03L59.83,47.03" style="fill:none;stroke:#000000;stroke-width:0.625" />
<path d="M49.83,259.82L59.83,259.82" style="fill:none;stroke:#000000;stroke-width:0.625" />
<path d="M49.83,472.6L59.83,472.6" style="fill:none;stroke:#000000;stroke-width:0.625" />
<path d="M49.83,685.39L59.83,685.39" style="fill:none;stroke:#000000;stroke-width:0.625" />
<path d="M54.83,153.42L59.83,153.42" style="fill:none;stroke:#000000;stroke-width:0.625" />
<path d="M54.83,366.21L59.83,366.21" style="fill:none;stroke:#000000;stroke-width:0.625" />
<path d="M54.83,579L59.83,579" style="fill:none;stroke:#000000;stroke-width:0.625" />
<path d="M59.83,47.03L59.83,701.44" style="fill:none;stroke:#000000;stroke-width:0.625" />
<path d="M67.088,50.361L77.319,56.506L87.55,60.128L97.782,54.774L108.01,53.635L118.24,54.017L128.48,54.669L138.71,53L148.94,53.38L159.17,53.628L169.4,53.707L179.63,57.923L189.86,60.267L200.1,53.68L210.33,54.129L220.56,53.235L230.79,78.876L241.02,53.651L251.25,52.955L261.48,53.639L271.72,62.29L281.95,53.334L292.18,52.936L302.41,53.669L312.64,54.026L322.87,53.359L333.1,54.001L343.34,54.411L353.57,53.533L363.8,47.03L374.03,67.033L384.26,47.03L394.49,65.332L404.73,53.922L414.96,53.277L425.19,54.319L435.42,56.468L445.65,56.398L455.88,53.643L466.11,53.141L476.35,61.861L486.58,54.806L496.81,60.605L507.04,245.35L517.27,252.99L527.5,193.91L537.73,338.62L547.97,47.03L558.2,47.03L568.43,47.03L578.66,47.03L588.89,47.03L599.12,47.03L609.35,47.03L619.59,47.03L629.82,47.03L640.05,47.03L650.28,47.03L660.51,47.03L670.74,47.03L680.97,47.03L691.21,47.03L701.44,47.03L711.67,47.03L721.9,47.03L732.13,47.03L742.36,47.03L752.59,47.03L762.83,47.03L773.06,47.03L783.29,47.03L793.52,47.03L803.75,47.03L813.98,47.03L824.21,47.03L834.45,82.854L844.68,53.014L854.91,52.56L865.14,54.061L875.37,54.511L885.6,503.53L895.83,47.03L906.07,57.482L916.3,52.616L926.53,51.673L936.76,53.592L946.99,47.03L957.22,69.861L967.45,53.445L977.69,54.013L987.92,53.894L998.15,56.204L1008.4,54.381L1018.6,54.595L1028.8,47.03L1039.1,47.03L1049.3,77.446L1059.5,55.444L1069.8,55.176L1080,54.07" style="fill:none;stroke:#F15A60;stroke-width:1.875" />
<path d="M67.088,56.451L77.319,56.583L87.55,53.94L97.782,57.547L108.01,53.416L118.24,52.647L128.48,53.654L138.71,53.012L148.94,53.001L159.17,52.789L169.4,53.077L179.63,57.053L189.86,57.494L200.1,52.971L210.33,52.656L220.56,53.202L230.79,69.161L241.02,52.624L251.25,53.049L261.48,52.87L271.72,61.598L281.95,53.583L292.18,52.276L302.41,54.483L312.64,52.622L322.87,53.002L333.1,52.847L343.34,52.392L353.57,482.33L363.8,61.145L374.03,52.335L384.26,47.03L394.49,63.854L404.73,52.294L414.96,53.627L425.19,53.022L435.42,52.889L445.65,52.812L455.88,53.098L466.11,53.429L476.35,53.048L486.58,54.125L496.81,52.601L507.04,53.412L517.27,55.454L527.5,56.459L537.73,51.421L547.97,65.179L558.2,58.69L568.43,51.264L578.66,701.44L588.89,75.105L599.12,53.616L609.35,53.285L619.59,52.39L629.82,53.14L640.05,56.339L650.28,53.297" style="fill:none;stroke:#7AC36A;stroke-width:1.875;stroke-dasharray:7.5,2.5" />
<path d="M67.088,51.763L77.319,60.307L87.55,58.104L97.782,54.806L108.01,54.139L118.24,53.204L128.48,53.526L138.71,53.543L148.94,53.528L159.17,53.632L169.4,53.552L179.63,58.578L189.86,61.357L200.1,52.686L210.33,53.374L220.56,53.619L230.79,53.886L241.02,61.967L251.25,53.731L261.48,54.371L271.72,53.682L281.95,59.394L292.18,54.248L302.41,53.666L312.64,54.758L322.87,53.827L333.1,53.465L343.34,53.775L353.57,52.658L363.8,53.285L374.03,161.85L384.26,53.373L394.49,52.806L404.73,119.75L414.96,53.613L425.19,53.521L435.42,53.616L445.65,53.936L455.88,54.436L466.11,54.022L476.35,53.52L486.58,54.481L496.81,52.8L507.04,53.862L517.27,54.132L527.5,53.851L537.73,53.926L547.97,54.86L558.2,53.815L568.43,51.017L578.66,83.082L588.89,47.03L599.12,128.18L609.35,51.618L619.59,51.935L629.82,117.78L640.05,55.044L650.28,54.171L660.51,53.474L670.74,54.521L680.97,54.281L691.21,53.24" style="fill:none;stroke:#5A9BD4;stroke-width:1.875;stroke-dasharray:2.5,2.5" />
<path d="M1055,694.3L1080,694.3" style="fill:none;stroke:#F15A60;stroke-width:1.875" />
<text x="793.19" y="-687.85" transform="scale(1, -1)"
	style="font-family:Helvetica;font-weight:normal;font-style:normal;font-size:12pt">Zookeeper v3.4.8 (snapCount 100000)</text>
<path d="M1055,680L1080,680" style="fill:none;stroke:#7AC36A;stroke-width:1.875;stroke-dasharray:7.5,2.5" />
<text x="793.19" y="-673.56" transform="scale(1, -1)"
	style="font-family:Helvetica;font-weight:normal;font-style:normal;font-size:12pt">Zookeeper v3.4.8 (snapCount 500000)</text>
<path d="M1055,665.71L1080,665.71" style="fill:none;stroke:#5A9BD4;stroke-width:1.875;stroke-dasharray:2.5,2.5" />
<text x="784.85" y="-659.26" transform="scale(1, -1)"
	style="font-family:Helvetica;font-weight:normal;font-style:normal;font-size:12pt">Zookeeper v3.4.8 (snapCount 1000000)</text>
</g>
</svg>
