<?xml version="1.0"?>
<!-- Generated by SVGo and Plotinum VG -->
<svg width="12in" height="8in"
	xmlns="http://www.w3.org/2000/svg"
	xmlns:xlink="http://www.w3.org/1999/xlink">
<g transform="scale(1, -1) translate(0, -720)">
<path d="M0,0L1080,0L1080,720L0,720Z" style="fill:#FFFFFF" />
<text x="283.64" y="-706.41" transform="scale(1, -1)"
	style="font-family:Helvetica;font-weight:normal;font-style:normal;font-size:12pt">Write 2M keys, 1,000 clients, 8-byte key, 256-byte value (Test 3), Throughput</text>
<text x="551.76" y="-4.965" transform="scale(1, -1)"
	style="font-family:Helvetica;font-weight:normal;font-style:normal;font-size:12pt">Second</text>
<text x="70.912" y="-19.142" transform="scale(1, -1)"
	style="font-family:Helvetica;font-weight:normal;font-style:normal;font-size:10pt">0</text>
<text x="327.51" y="-19.142" transform="scale(1, -1)"
	style="font-family:Helvetica;font-weight:normal;font-style:normal;font-size:10pt">30</text>
<text x="587.58" y="-19.142" transform="scale(1, -1)"
	style="font-family:Helvetica;font-weight:normal;font-style:normal;font-size:10pt">60</text>
<text x="847.65" y="-19.142" transform="scale(1, -1)"
	style="font-family:Helvetica;font-weight:normal;font-style:normal;font-size:10pt">90</text>
<path d="M74.388,30.467L74.388,40.467" style="fill:none;stroke:#000000;stroke-width:0.625" />
<path d="M334.46,30.467L334.46,40.467" style="fill:none;stroke:#000000;stroke-width:0.625" />
<path d="M594.53,30.467L594.53,40.467" style="fill:none;stroke:#000000;stroke-width:0.625" />
<path d="M854.6,30.467L854.6,40.467" style="fill:none;stroke:#000000;stroke-width:0.625" />
<path d="M161.08,35.468L161.08,40.467" style="fill:none;stroke:#000000;stroke-width:0.625" />
<path d="M247.77,35.468L247.77,40.467" style="fill:none;stroke:#000000;stroke-width:0.625" />
<path d="M421.15,35.468L421.15,40.467" style="fill:none;stroke:#000000;stroke-width:0.625" />
<path d="M507.84,35.468L507.84,40.467" style="fill:none;stroke:#000000;stroke-width:0.625" />
<path d="M681.22,35.468L681.22,40.467" style="fill:none;stroke:#000000;stroke-width:0.625" />
<path d="M767.91,35.468L767.91,40.467" style="fill:none;stroke:#000000;stroke-width:0.625" />
<path d="M941.29,35.468L941.29,40.467" style="fill:none;stroke:#000000;stroke-width:0.625" />
<path d="M1028,35.468L1028,40.467" style="fill:none;stroke:#000000;stroke-width:0.625" />
<path d="M74.388,40.467L1080,40.467" style="fill:none;stroke:#000000;stroke-width:0.625" />
<g transform="rotate(90)">
<text x="335.88" y="13.59" transform="scale(1, -1)"
	style="font-family:Helvetica;font-weight:normal;font-style:normal;font-size:12pt">Throughput</text>
</g>
<text x="46.705" y="-41.661" transform="scale(1, -1)"
	style="font-family:Helvetica;font-weight:normal;font-style:normal;font-size:10pt">0</text>
<text x="18.555" y="-165.54" transform="scale(1, -1)"
	style="font-family:Helvetica;font-weight:normal;font-style:normal;font-size:10pt">1e+04</text>
<text x="18.555" y="-289.42" transform="scale(1, -1)"
	style="font-family:Helvetica;font-weight:normal;font-style:normal;font-size:10pt">2e+04</text>
<text x="18.555" y="-413.3" transform="scale(1, -1)"
	style="font-family:Helvetica;font-weight:normal;font-style:normal;font-size:10pt">3e+04</text>
<text x="18.555" y="-537.18" transform="scale(1, -1)"
	style="font-family:Helvetica;font-weight:normal;font-style:normal;font-size:10pt">4e+04</text>
<text x="18.555" y="-661.06" transform="scale(1, -1)"
	style="font-family:Helvetica;font-weight:normal;font-style:normal;font-size:10pt">5e+04</text>
<path d="M57.13,47.03L67.13,47.03" style="fill:none;stroke:#000000;stroke-width:0.625" />
<path d="M57.13,170.91L67.13,170.91" style="fill:none;stroke:#000000;stroke-width:0.625" />
<path d="M57.13,294.79L67.13,294.79" style="fill:none;stroke:#000000;stroke-width:0.625" />
<path d="M57.13,418.67L67.13,418.67" style="fill:none;stroke:#000000;stroke-width:0.625" />
<path d="M57.13,542.55L67.13,542.55" style="fill:none;stroke:#000000;stroke-width:0.625" />
<path d="M57.13,666.42L67.13,666.42" style="fill:none;stroke:#000000;stroke-width:0.625" />
<path d="M62.13,108.97L67.13,108.97" style="fill:none;stroke:#000000;stroke-width:0.625" />
<path d="M62.13,232.85L67.13,232.85" style="fill:none;stroke:#000000;stroke-width:0.625" />
<path d="M62.13,356.73L67.13,356.73" style="fill:none;stroke:#000000;stroke-width:0.625" />
<path d="M62.13,480.61L67.13,480.61" style="fill:none;stroke:#000000;stroke-width:0.625" />
<path d="M62.13,604.48L67.13,604.48" style="fill:none;stroke:#000000;stroke-width:0.625" />
<path d="M67.13,47.03L67.13,701.44" style="fill:none;stroke:#000000;stroke-width:0.625" />
<path d="M74.388,132.17L83.057,265.91L91.726,376.57L100.39,433.38L109.06,481.29L117.73,550.09L126.4,529.51L135.07,454.65L143.74,592.47L152.41,584.69L161.08,509.58L169.75,371.99L178.42,232.23L187.09,547.13L195.75,512.58L204.42,570.12L213.09,225.97L221.76,454.52L230.43,558.9L239.1,599.57L247.77,122.91L256.44,550.14L265.11,500.7L273.78,575.47L282.45,457.16L291.11,611.67L299.78,605.28L308.45,541.52L317.12,274.86L325.79,47.03L334.46,309.6L343.13,366.43L351.8,50.709L360.47,518.82L369.14,540.3L377.81,504.28L386.47,511.87L395.14,486.22L403.81,450.9L412.48,300.35L421.15,288.17L429.82,539.75L438.49,223.51L447.16,72.054L455.83,59.43L464.5,71.806L473.16,47.03L481.83,59.418L490.5,47.03L499.17,47.03L507.84,47.03L516.51,47.03L525.18,47.03L533.85,47.03L542.52,47.03L551.19,47.03L559.86,47.03L568.52,47.03L577.19,47.03L585.86,47.03L594.53,47.03L603.2,47.03L611.87,47.03L620.54,47.03L629.21,47.03L637.88,47.03L646.55,47.03L655.22,47.03L663.88,47.03L672.55,47.03L681.22,47.03L689.89,228.88L698.56,396.84L707.23,52.716L715.9,47.03L724.57,49.049L733.24,47.03L741.91,48.133L750.58,47.03L759.24,47.03L767.91,47.03L776.58,47.03L785.25,47.03L793.92,467.56L802.59,470.97L811.26,564.56L819.93,419.96L828.6,484.41L837.27,346.42L845.94,353.3L854.6,426.24L863.27,50.907L871.94,68.981L880.61,606.13L889.28,508.86L897.95,511.09L906.62,550.16L915.29,352.83L923.96,509.21L932.63,526.6L941.29,462.8L949.96,440.3L958.63,58.984L967.3,47.03L975.97,47.03L984.64,47.03L993.31,47.03L1002,47.03L1010.6,47.03L1019.3,47.03L1028,47.03L1036.7,47.03L1045.3,47.03L1054,47.03L1062.7,47.03L1071.3,65.067L1080,122.19" style="fill:none;stroke:#F15A60;stroke-width:1.875" />
<path d="M74.388,112.51L83.057,268.56L91.726,384.69L100.39,494.62L109.06,499.39L117.73,588.72L126.4,559.33L135.07,633.63L143.74,636.4L152.41,538.33L161.08,286.28L169.75,454.76L178.42,395.65L187.09,605.95L195.75,594.51L204.42,454.52L213.09,163.6L221.76,657.57L230.43,617.72L239.1,275.57L247.77,396.62L256.44,501.32L265.11,576.54L273.78,514.28L282.45,593.7L291.11,612.3L299.78,578.73L308.45,502.19L317.12,47.03L325.79,321.21L334.46,475.51L343.13,47.03L351.8,352.49L360.47,564.05L369.14,576.33L377.81,599.48L386.47,554.44L395.14,612.97L403.81,485.15L412.48,593.66L421.15,495.63L429.82,589.04L438.49,512.86L447.16,540.27L455.83,498.48L464.5,444.07L473.16,533.19L481.83,523.82L490.5,263.19L499.17,372.81L507.84,379.34L516.51,152.82L525.18,47.03L533.85,280.54L542.52,430.72L551.19,540.4L559.86,598.39L568.52,504.02L577.19,518.77L585.86,536.67L594.53,93.224" style="fill:none;stroke:#7AC36A;stroke-width:1.875;stroke-dasharray:7.5,2.5" />
<path d="M74.388,146.89L83.057,284.7L91.726,376.06L100.39,524.51L109.06,594L117.73,630.5L126.4,523.01L135.07,648.52L143.74,637.19L152.41,633.15L161.08,329.2L169.75,270.16L178.42,660.29L187.09,653.13L195.75,579.83L204.42,98.663L213.09,645.06L221.76,648.49L230.43,299.93L239.1,432.32L247.77,605.93L256.44,648.46L265.11,633.06L273.78,685.24L282.45,602.32L291.11,667.61L299.78,94.86L308.45,216.43L317.12,507.15L325.79,47.03L334.46,419.99L343.13,639.36L351.8,618.66L360.47,701.44L369.14,602.86L377.81,649.58L386.47,643.32L395.14,599.62L403.81,540.96L412.48,546.48L421.15,664.05L429.82,509.62L438.49,597.92L447.16,494.01L455.83,377.07L464.5,50.92L473.16,73.305L481.83,558.4L490.5,190.07L499.17,566.94L507.84,584.23L516.51,539.71L525.18,684.8L533.85,509.4L542.52,571.55" style="fill:none;stroke:#5A9BD4;stroke-width:1.875;stroke-dasharray:2.5,2.5" />
<path d="M1055,694.3L1080,694.3" style="fill:none;stroke:#F15A60;stroke-width:1.875" />
<text x="793.19" y="-687.85" transform="scale(1, -1)"
	style="font-family:Helvetica;font-weight:normal;font-style:normal;font-size:12pt">Zookeeper v3.4.8 (snapCount 100000)</text>
<path d="M1055,680L1080,680" style="fill:none;stroke:#7AC36A;stroke-width:1.875;stroke-dasharray:7.5,2.5" />
<text x="793.19" y="-673.56" transform="scale(1, -1)"
	style="font-family:Helvetica;font-weight:normal;font-style:normal;font-size:12pt">Zookeeper v3.4.8 (snapCount 500000)</text>
<path d="M1055,665.71L1080,665.71" style="fill:none;stroke:#5A9BD4;stroke-width:1.875;stroke-dasharray:2.5,2.5" />
<text x="784.85" y="-659.26" transform="scale(1, -1)"
	style="font-family:Helvetica;font-weight:normal;font-style:normal;font-size:12pt">Zookeeper v3.4.8 (snapCount 1000000)</text>
</g>
</svg>
