<?xml version="1.0"?>
<!-- Generated by SVGo and Plotinum VG -->
<svg width="12in" height="8in"
	xmlns="http://www.w3.org/2000/svg"
	xmlns:xlink="http://www.w3.org/1999/xlink">
<g transform="scale(1, -1) translate(0, -720)">
<path d="M0,0L1080,0L1080,720L0,720Z" style="fill:#FFFFFF" />
<text x="281.14" y="-706.41" transform="scale(1, -1)"
	style="font-family:Helvetica;font-weight:normal;font-style:normal;font-size:12pt">Write 2M keys, 1K clients(etcd 100 conns), key 8 bytes, value 256 bytes, CPU</text>
<text x="544.64" y="-4.965" transform="scale(1, -1)"
	style="font-family:Helvetica;font-weight:normal;font-style:normal;font-size:12pt">Second</text>
<text x="56.662" y="-19.142" transform="scale(1, -1)"
	style="font-family:Helvetica;font-weight:normal;font-style:normal;font-size:10pt">0</text>
<text x="325.15" y="-19.142" transform="scale(1, -1)"
	style="font-family:Helvetica;font-weight:normal;font-style:normal;font-size:10pt">20</text>
<text x="597.11" y="-19.142" transform="scale(1, -1)"
	style="font-family:Helvetica;font-weight:normal;font-style:normal;font-size:10pt">40</text>
<text x="869.08" y="-19.142" transform="scale(1, -1)"
	style="font-family:Helvetica;font-weight:normal;font-style:normal;font-size:10pt">60</text>
<path d="M60.137,30.467L60.137,40.467" style="fill:none;stroke:#000000;stroke-width:0.625" />
<path d="M332.1,30.467L332.1,40.467" style="fill:none;stroke:#000000;stroke-width:0.625" />
<path d="M604.06,30.467L604.06,40.467" style="fill:none;stroke:#000000;stroke-width:0.625" />
<path d="M876.03,30.467L876.03,40.467" style="fill:none;stroke:#000000;stroke-width:0.625" />
<path d="M196.12,35.468L196.12,40.467" style="fill:none;stroke:#000000;stroke-width:0.625" />
<path d="M468.08,35.468L468.08,40.467" style="fill:none;stroke:#000000;stroke-width:0.625" />
<path d="M740.05,35.468L740.05,40.467" style="fill:none;stroke:#000000;stroke-width:0.625" />
<path d="M1012,35.468L1012,40.467" style="fill:none;stroke:#000000;stroke-width:0.625" />
<path d="M60.137,40.467L1080,40.467" style="fill:none;stroke:#000000;stroke-width:0.625" />
<g transform="rotate(90)">
<text x="358.4" y="13.59" transform="scale(1, -1)"
	style="font-family:Helvetica;font-weight:normal;font-style:normal;font-size:12pt">CPU</text>
</g>
<text x="18.555" y="-197.41" transform="scale(1, -1)"
	style="font-family:Helvetica;font-weight:normal;font-style:normal;font-size:10pt">100</text>
<text x="18.555" y="-357.32" transform="scale(1, -1)"
	style="font-family:Helvetica;font-weight:normal;font-style:normal;font-size:10pt">200</text>
<text x="18.555" y="-517.23" transform="scale(1, -1)"
	style="font-family:Helvetica;font-weight:normal;font-style:normal;font-size:10pt">300</text>
<text x="18.555" y="-677.14" transform="scale(1, -1)"
	style="font-family:Helvetica;font-weight:normal;font-style:normal;font-size:10pt">400</text>
<path d="M42.88,202.78L52.88,202.78" style="fill:none;stroke:#000000;stroke-width:0.625" />
<path d="M42.88,362.69L52.88,362.69" style="fill:none;stroke:#000000;stroke-width:0.625" />
<path d="M42.88,522.6L52.88,522.6" style="fill:none;stroke:#000000;stroke-width:0.625" />
<path d="M42.88,682.51L52.88,682.51" style="fill:none;stroke:#000000;stroke-width:0.625" />
<path d="M47.88,122.83L52.88,122.83" style="fill:none;stroke:#000000;stroke-width:0.625" />
<path d="M47.88,282.74L52.88,282.74" style="fill:none;stroke:#000000;stroke-width:0.625" />
<path d="M47.88,442.65L52.88,442.65" style="fill:none;stroke:#000000;stroke-width:0.625" />
<path d="M47.88,602.56L52.88,602.56" style="fill:none;stroke:#000000;stroke-width:0.625" />
<path d="M52.88,47.03L52.88,701.44" style="fill:none;stroke:#000000;stroke-width:0.625" />
<path d="M60.137,47.03L73.736,122.48L87.334,189.37L100.93,246.58L114.53,294.35L128.13,332.9L141.73,366.35L155.32,395.81L168.92,422.21L182.52,444.15L196.12,463.95L209.72,480.64L223.32,497.3L236.91,511.2L250.51,522.15L264.11,533.83L277.71,542.05L291.31,549.88L304.9,559.29L318.5,566.42L332.1,573.05L345.7,578.75L359.3,585.41L372.9,590.74L386.49,595.34L400.09,600.78L413.69,606.95L427.29,610.94L440.89,614.47L454.48,619.56L468.08,624.59L481.68,628L495.28,631.56L508.88,636.25L522.48,640.38L536.07,643.46L549.67,646.72L563.27,649.7L576.87,653.02L590.47,655.71L604.06,657.65L617.66,659.07L631.26,660.48L644.86,662.49L658.46,664.87L672.05,666.34L685.65,667.85L699.25,670.58L712.85,672.09L726.45,674.32L740.05,675.7L753.64,677.23L767.24,679.38L780.84,681.28L794.44,682.34L808.04,684.81L821.63,686L835.23,686.56L848.83,688.44L862.43,689.85L876.03,691.82L889.63,692.51L903.22,693.47L916.82,693.42L930.42,694.58L944.02,694.71L957.62,695.42L971.21,696.95L984.81,697.93L998.41,698.68L1012,699.64L1025.6,699.59L1039.2,699.8L1052.8,700.34L1066.4,701.38L1080,701.44" style="fill:none;stroke:#F15A60;stroke-width:1.875" />
<path d="M60.137,55.969L73.736,139.09L87.334,207.21L100.93,235.02L114.53,264.67L128.13,288.53L141.73,316.51L155.32,336.55L168.92,354.86L182.52,372.33L196.12,390.04L209.72,400.81L223.32,411.91L236.91,426.91L250.51,436.81L264.11,446.87L277.71,459.17L291.31,459.29L304.9,464.63L318.5,471L332.1,482.51L345.7,491.21L359.3,497.46L372.9,500.89L386.49,506.59L400.09,510.38L413.69,514.4L427.29,519.52L440.89,523.61L454.48,525.64L468.08,523.59L481.68,528.26L495.28,539.04L508.88,539.31L522.48,541.98L536.07,544.3L549.67,543.29L563.27,541.02L576.87,539.95L590.47,531.2L604.06,522.46L617.66,513.55L631.26,504.58L644.86,494.78L658.46,482.77L672.05,474.95L685.65,465.67L699.25,458.29L712.85,449.71L726.45,440.9L740.05,430.24L753.64,422.11L767.24,414.25L780.84,408.47L794.44,401.41L808.04,396.85L821.63,395.22L835.23,393.6L848.83,396.48L862.43,399.86L876.03,402.19L889.63,405.05L903.22,411.93L916.82,414.5L930.42,415.89L944.02,415.46L957.62,417.05L971.21,417.43L984.81,413L998.41,409.32L1012,405.68" style="fill:none;stroke:#7AC36A;stroke-width:1.875;stroke-dasharray:7.5,2.5" />
<path d="M1055,694.3L1080,694.3" style="fill:none;stroke:#F15A60;stroke-width:1.875" />
<text x="1002.5" y="-687.85" transform="scale(1, -1)"
	style="font-family:Helvetica;font-weight:normal;font-style:normal;font-size:12pt">etcd v3</text>
<path d="M1055,680L1080,680" style="fill:none;stroke:#7AC36A;stroke-width:1.875;stroke-dasharray:7.5,2.5" />
<text x="934.1" y="-673.56" transform="scale(1, -1)"
	style="font-family:Helvetica;font-weight:normal;font-style:normal;font-size:12pt">Zookeeper v3.4.8</text>
</g>
</svg>
