<?xml version="1.0"?>
<!-- Generated by SVGo and Plotinum VG -->
<svg width="12in" height="8in"
	xmlns="http://www.w3.org/2000/svg"
	xmlns:xlink="http://www.w3.org/1999/xlink">
<g transform="scale(1, -1) translate(0, -720)">
<path d="M0,0L1080,0L1080,720L0,720Z" style="fill:#FFFFFF" />
<text x="253.65" y="-706.41" transform="scale(1, -1)"
	style="font-family:Helvetica;font-weight:normal;font-style:normal;font-size:12pt">Write 2M keys, 1K clients(etcd 100 conns), key 8 bytes, value 256 bytes, Memory(MB)</text>
<text x="548.11" y="-4.965" transform="scale(1, -1)"
	style="font-family:Helvetica;font-weight:normal;font-style:normal;font-size:12pt">Second</text>
<text x="63.613" y="-19.142" transform="scale(1, -1)"
	style="font-family:Helvetica;font-weight:normal;font-style:normal;font-size:10pt">0</text>
<text x="330.25" y="-19.142" transform="scale(1, -1)"
	style="font-family:Helvetica;font-weight:normal;font-style:normal;font-size:10pt">20</text>
<text x="600.36" y="-19.142" transform="scale(1, -1)"
	style="font-family:Helvetica;font-weight:normal;font-style:normal;font-size:10pt">40</text>
<text x="870.47" y="-19.142" transform="scale(1, -1)"
	style="font-family:Helvetica;font-weight:normal;font-style:normal;font-size:10pt">60</text>
<path d="M67.088,30.467L67.088,40.467" style="fill:none;stroke:#000000;stroke-width:0.625" />
<path d="M337.2,30.467L337.2,40.467" style="fill:none;stroke:#000000;stroke-width:0.625" />
<path d="M607.31,30.467L607.31,40.467" style="fill:none;stroke:#000000;stroke-width:0.625" />
<path d="M877.42,30.467L877.42,40.467" style="fill:none;stroke:#000000;stroke-width:0.625" />
<path d="M202.14,35.468L202.14,40.467" style="fill:none;stroke:#000000;stroke-width:0.625" />
<path d="M472.25,35.468L472.25,40.467" style="fill:none;stroke:#000000;stroke-width:0.625" />
<path d="M742.36,35.468L742.36,40.467" style="fill:none;stroke:#000000;stroke-width:0.625" />
<path d="M1012.5,35.468L1012.5,40.467" style="fill:none;stroke:#000000;stroke-width:0.625" />
<path d="M67.088,40.467L1080,40.467" style="fill:none;stroke:#000000;stroke-width:0.625" />
<g transform="rotate(90)">
<text x="330.91" y="13.59" transform="scale(1, -1)"
	style="font-family:Helvetica;font-weight:normal;font-style:normal;font-size:12pt">Memory(MB)</text>
</g>
<text x="25.505" y="-206.66" transform="scale(1, -1)"
	style="font-family:Helvetica;font-weight:normal;font-style:normal;font-size:10pt">600</text>
<text x="18.555" y="-377.71" transform="scale(1, -1)"
	style="font-family:Helvetica;font-weight:normal;font-style:normal;font-size:10pt">1200</text>
<text x="18.555" y="-548.75" transform="scale(1, -1)"
	style="font-family:Helvetica;font-weight:normal;font-style:normal;font-size:10pt">1800</text>
<path d="M49.83,212.03L59.83,212.03" style="fill:none;stroke:#000000;stroke-width:0.625" />
<path d="M49.83,383.08L59.83,383.08" style="fill:none;stroke:#000000;stroke-width:0.625" />
<path d="M49.83,554.12L59.83,554.12" style="fill:none;stroke:#000000;stroke-width:0.625" />
<path d="M54.83,98.002L59.83,98.002" style="fill:none;stroke:#000000;stroke-width:0.625" />
<path d="M54.83,155.02L59.83,155.02" style="fill:none;stroke:#000000;stroke-width:0.625" />
<path d="M54.83,269.05L59.83,269.05" style="fill:none;stroke:#000000;stroke-width:0.625" />
<path d="M54.83,326.06L59.83,326.06" style="fill:none;stroke:#000000;stroke-width:0.625" />
<path d="M54.83,440.09L59.83,440.09" style="fill:none;stroke:#000000;stroke-width:0.625" />
<path d="M54.83,497.11L59.83,497.11" style="fill:none;stroke:#000000;stroke-width:0.625" />
<path d="M54.83,611.14L59.83,611.14" style="fill:none;stroke:#000000;stroke-width:0.625" />
<path d="M54.83,668.15L59.83,668.15" style="fill:none;stroke:#000000;stroke-width:0.625" />
<path d="M59.83,47.03L59.83,701.44" style="fill:none;stroke:#000000;stroke-width:0.625" />
<path d="M67.088,47.03L80.593,61.663L94.099,65.583L107.6,68.824L121.11,71.244L134.62,73.978L148.12,77.81L161.63,81.504L175.13,84.88L188.64,87.596L202.14,90.373L215.65,92.597L229.15,96.385L242.66,98.937L256.16,101.5L269.67,103.9L283.18,106.91L296.68,109.9L310.19,112.89L323.69,115.9L337.2,118.22L350.7,119.89L364.21,122.78L377.71,125.51L391.22,129.33L404.73,131.64L418.23,134.1L431.74,136.07L445.24,138.77L458.75,141.42L472.25,144.72L485.76,147.8L499.26,149.88L512.77,152.4L526.27,155.82L539.78,158.43L553.29,161.44L566.79,165.55L580.3,168.13L593.8,169.6L607.31,172.41L620.81,174.76L634.32,176.79L647.82,179.37L661.33,182.07L674.83,186.41L688.34,189.33L701.85,191.17L715.35,192.87L728.86,195.75L742.36,200.43L755.87,202.69L769.37,204.22L782.88,207.43L796.38,209.58L809.89,213.25L823.4,215.33L836.9,218.17L850.41,220.91L863.91,223.73L877.42,226.84L890.92,229.09L904.43,231.63L917.93,233.38L931.44,236.53L944.95,239.77L958.45,241.58L971.96,244.88L985.46,247.9L998.97,249.52L1012.5,251.74L1026,254.33L1039.5,257.31L1053,260.46L1066.5,263.04L1080,264.52" style="fill:none;stroke:#F15A60;stroke-width:1.875" />
<path d="M67.088,57.552L80.593,84.971L94.099,110.06L107.6,128.4L121.11,161.59L134.62,190.86L148.12,247.02L161.63,276.83L175.13,291.74L188.64,312.76L202.14,360.43L215.65,403.78L229.15,425.26L242.66,428.26L256.16,434.57L269.67,457.34L283.18,519.03L296.68,528.04L310.19,528.66L323.69,528.65L337.2,551.15L350.7,553.07L364.21,554.06L377.71,554.06L391.22,563.06L404.73,571.61L418.23,571.61L431.74,581.34L445.24,581.34L458.75,593.44L472.25,593.44L485.76,617.69L499.26,625.13L512.77,625.38L526.27,625.4L539.78,625.4L553.29,622.92L566.79,622.92L580.3,622.92L593.8,622.92L607.31,622.92L620.81,622.92L634.32,622.92L647.82,622.92L661.33,622.92L674.83,622.95L688.34,623.08L701.85,623.19L715.35,623.33L728.86,623.33L742.36,623.33L755.87,623.33L769.37,623.43L782.88,623.43L796.38,624.29L809.89,624.29L823.4,626.28L836.9,626.35L850.41,631.42L863.91,631.82L877.42,641.49L890.92,649.79L904.43,691.21L917.93,691.35L931.44,693.92L944.95,699.87L958.45,700.88L971.96,701.33L985.46,701.44L998.97,701.01" style="fill:none;stroke:#7AC36A;stroke-width:1.875;stroke-dasharray:7.5,2.5" />
<path d="M1055,694.3L1080,694.3" style="fill:none;stroke:#F15A60;stroke-width:1.875" />
<text x="1002.5" y="-687.85" transform="scale(1, -1)"
	style="font-family:Helvetica;font-weight:normal;font-style:normal;font-size:12pt">etcd v3</text>
<path d="M1055,680L1080,680" style="fill:none;stroke:#7AC36A;stroke-width:1.875;stroke-dasharray:7.5,2.5" />
<text x="934.1" y="-673.56" transform="scale(1, -1)"
	style="font-family:Helvetica;font-weight:normal;font-style:normal;font-size:12pt">Zookeeper v3.4.8</text>
</g>
</svg>
