<?xml version="1.0"?>
<!-- Generated by SVGo and Plotinum VG -->
<svg width="12in" height="8in"
	xmlns="http://www.w3.org/2000/svg"
	xmlns:xlink="http://www.w3.org/1999/xlink">
<g transform="scale(1, -1) translate(0, -720)">
<path d="M0,0L1080,0L1080,720L0,720Z" style="fill:#FFFFFF" />
<text x="332.84" y="-706.41" transform="scale(1, -1)"
	style="font-family:Helvetica;font-weight:normal;font-style:normal;font-size:12pt">Write 3M keys, 1K clients, key 64 bytes, value 256 bytes, CPU</text>
<text x="544.64" y="-4.965" transform="scale(1, -1)"
	style="font-family:Helvetica;font-weight:normal;font-style:normal;font-size:12pt">Second</text>
<text x="56.662" y="-19.142" transform="scale(1, -1)"
	style="font-family:Helvetica;font-weight:normal;font-style:normal;font-size:10pt">0</text>
<text x="356.72" y="-19.142" transform="scale(1, -1)"
	style="font-family:Helvetica;font-weight:normal;font-style:normal;font-size:10pt">50</text>
<text x="656.77" y="-19.142" transform="scale(1, -1)"
	style="font-family:Helvetica;font-weight:normal;font-style:normal;font-size:10pt">100</text>
<text x="960.3" y="-19.142" transform="scale(1, -1)"
	style="font-family:Helvetica;font-weight:normal;font-style:normal;font-size:10pt">150</text>
<path d="M60.137,30.467L60.137,40.467" style="fill:none;stroke:#000000;stroke-width:0.625" />
<path d="M363.67,30.467L363.67,40.467" style="fill:none;stroke:#000000;stroke-width:0.625" />
<path d="M667.2,30.467L667.2,40.467" style="fill:none;stroke:#000000;stroke-width:0.625" />
<path d="M970.73,30.467L970.73,40.467" style="fill:none;stroke:#000000;stroke-width:0.625" />
<path d="M120.84,35.468L120.84,40.467" style="fill:none;stroke:#000000;stroke-width:0.625" />
<path d="M181.55,35.468L181.55,40.467" style="fill:none;stroke:#000000;stroke-width:0.625" />
<path d="M242.26,35.468L242.26,40.467" style="fill:none;stroke:#000000;stroke-width:0.625" />
<path d="M302.96,35.468L302.96,40.467" style="fill:none;stroke:#000000;stroke-width:0.625" />
<path d="M424.37,35.468L424.37,40.467" style="fill:none;stroke:#000000;stroke-width:0.625" />
<path d="M485.08,35.468L485.08,40.467" style="fill:none;stroke:#000000;stroke-width:0.625" />
<path d="M545.79,35.468L545.79,40.467" style="fill:none;stroke:#000000;stroke-width:0.625" />
<path d="M606.49,35.468L606.49,40.467" style="fill:none;stroke:#000000;stroke-width:0.625" />
<path d="M727.9,35.468L727.9,40.467" style="fill:none;stroke:#000000;stroke-width:0.625" />
<path d="M788.61,35.468L788.61,40.467" style="fill:none;stroke:#000000;stroke-width:0.625" />
<path d="M849.32,35.468L849.32,40.467" style="fill:none;stroke:#000000;stroke-width:0.625" />
<path d="M910.02,35.468L910.02,40.467" style="fill:none;stroke:#000000;stroke-width:0.625" />
<path d="M1031.4,35.468L1031.4,40.467" style="fill:none;stroke:#000000;stroke-width:0.625" />
<path d="M60.137,40.467L1080,40.467" style="fill:none;stroke:#000000;stroke-width:0.625" />
<g transform="rotate(90)">
<text x="358.4" y="13.59" transform="scale(1, -1)"
	style="font-family:Helvetica;font-weight:normal;font-style:normal;font-size:12pt">CPU</text>
</g>
<text x="25.505" y="-224.26" transform="scale(1, -1)"
	style="font-family:Helvetica;font-weight:normal;font-style:normal;font-size:10pt">80</text>
<text x="18.555" y="-411.88" transform="scale(1, -1)"
	style="font-family:Helvetica;font-weight:normal;font-style:normal;font-size:10pt">160</text>
<text x="18.555" y="-599.5" transform="scale(1, -1)"
	style="font-family:Helvetica;font-weight:normal;font-style:normal;font-size:10pt">240</text>
<path d="M42.88,229.63L52.88,229.63" style="fill:none;stroke:#000000;stroke-width:0.625" />
<path d="M42.88,417.25L52.88,417.25" style="fill:none;stroke:#000000;stroke-width:0.625" />
<path d="M42.88,604.87L52.88,604.87" style="fill:none;stroke:#000000;stroke-width:0.625" />
<path d="M47.88,135.82L52.88,135.82" style="fill:none;stroke:#000000;stroke-width:0.625" />
<path d="M47.88,323.44L52.88,323.44" style="fill:none;stroke:#000000;stroke-width:0.625" />
<path d="M47.88,511.06L52.88,511.06" style="fill:none;stroke:#000000;stroke-width:0.625" />
<path d="M47.88,698.68L52.88,698.68" style="fill:none;stroke:#000000;stroke-width:0.625" />
<path d="M52.88,47.03L52.88,701.44" style="fill:none;stroke:#000000;stroke-width:0.625" />
<path d="M60.137,47.03L66.208,58.873L72.279,64.69L78.349,72.101L84.42,83.921L90.491,95.67L96.561,101.89L102.63,112.25L108.7,123.48L114.77,133.48L120.84,139.55L126.91,149.99L132.98,160.16L139.06,166.21L145.13,174.87L151.2,184.25L157.27,193.54L163.34,198.39L169.41,207.42L175.48,216.4L181.55,225.5L187.62,228.88L193.69,237.6L199.76,246.28L205.83,254.49L211.9,258.38L217.97,266.97L224.04,275.01L230.11,280.47L236.19,286.38L242.26,294.01L248.33,301.82L254.4,305.29L260.47,311.83L266.54,318.33L272.61,324.8L278.68,328.39L284.75,333.95L290.82,339.81L296.89,345.95L302.96,351.65L309.03,353.97L315.1,359.39L321.17,365.09L327.24,370.25L333.31,372.74L339.39,378.67L345.46,384.28L351.53,389.27L357.6,393.68L363.67,396.35L369.74,401.04L375.81,406.02L381.88,411.01L387.95,412.72L394.02,417.25L400.09,422.85L406.16,428.04L412.23,429.47L418.3,434.11L424.37,438.59L430.44,442.65L436.52,446.66L442.59,447.39L448.66,451.49L454.73,455.24L460.8,460.45L466.87,462.21L472.94,465.54L479.01,469.59L485.08,473.46L491.15,477.24L497.22,477.4L503.29,481.11L509.36,484.79L515.43,488.97L521.5,490.66L527.57,494.45L533.65,498.68L539.72,502.29L545.79,504.84L551.86,507.61L557.93,511.39L564,514.95L570.07,519.24L576.14,520.53L582.21,524.26L588.28,528.18L594.35,532.03L600.42,534.28L606.49,537.89L612.56,541.29L618.63,543.94L624.7,545.53L630.77,549.31L636.85,552.92L642.92,556.35L648.99,556.7L655.06,560.47L661.13,564.15L667.2,567.23L673.27,567.02L679.34,569.76L685.41,572.76L691.48,575.51L697.55,577.99L703.62,580.31L709.69,583.08L715.76,586.15L721.83,589.18L727.9,589.74L733.98,593L740.05,596.12L746.12,599.22L752.19,598.49L758.26,601.54L764.33,604.21L770.4,606.7L776.47,609.25L782.54,609.96L788.61,612.89L794.68,615.68L800.75,618.45L806.82,618.31L812.89,620.11L818.96,622.81L825.03,625.62L831.1,625.9L837.18,628.04L843.25,629.82L849.32,632.8L855.39,635.07L861.46,636.13L867.53,638.33L873.6,640.84L879.67,643.61L885.74,644.32L891.81,646.92L897.88,649.52L903.95,651.77L910.02,652.34L916.09,654.42L922.16,657.14L928.23,659.23L934.31,660.64L940.38,660.78L946.45,663.5L952.52,666.36L958.59,668.03L964.66,668.92L970.73,671L976.8,673.18L982.87,675.46L988.94,675.55L995.01,678.09L1001.1,680.41L1007.2,682.82L1013.2,682.64L1019.3,684.4L1025.4,686.86L1031.4,688.43L1037.5,691.24L1043.6,690.89L1049.6,693.75L1055.7,695.18L1061.8,697.93L1067.9,697.74L1073.9,699.5L1080,701.44" style="fill:none;stroke:#F15A60;stroke-width:1.875" />
<path d="M60.137,51.955L66.208,64.267L72.279,70.224L78.349,82.467L84.42,94.709L90.491,100.43L96.561,111.48L102.63,122.92L108.7,129.42L114.77,138.35L120.84,148.67L126.91,158.73L132.98,163.92L139.06,173.65L145.13,182.82L151.2,187.93L157.27,196.37L163.34,205.66L169.41,215.35L175.48,219.15L181.55,227.36L187.62,235.61L193.69,240.68L199.76,246.68L205.83,255.43L211.9,263.45L217.97,267.27L224.04,274.68L230.11,281.76L236.19,287.75L242.26,292.2L248.33,298.93L254.4,306.88L260.47,310.42L266.54,317.08L272.61,323.39L278.68,329.63L284.75,332.56L290.82,339.08L296.89,345.58L302.96,349.42L309.03,353.74L315.1,359.53L321.17,365.16L327.24,367.86L333.31,373.44L339.39,379.37L345.46,384.6L351.53,387.37L357.6,392.76L363.67,397.67L369.74,402.36L375.81,404.19L381.88,408.83L387.95,413.73L394.02,418.37L400.09,420.56L406.16,426.77L412.23,431.56L418.3,434.37L424.37,438.38L430.44,442.84L436.52,447.29L442.59,448.63L448.66,452.43L454.73,456.56L460.8,460.64L466.87,462.39L472.94,465.33L479.01,469.29L485.08,474.03L491.15,476.28L497.22,479.47L503.29,483.08L509.36,486.64L515.43,488.78L521.5,492.09L527.57,495.49L533.65,498.84L539.72,500.65L545.79,504.47L551.86,507.92L557.93,511.2L564,511.74L570.07,514.72L576.14,518.14L582.21,521.78L588.28,522.57L594.35,526.68L600.42,530.48L606.49,533.13L612.56,532.89L618.63,535.78L624.7,538.5L630.77,540.73L636.85,542.6L642.92,544.22L648.99,546.61L655.06,549.4L661.13,552.5L667.2,552.31L673.27,555.27L679.34,557.61L685.41,560.07L691.48,561.22L697.55,564.37L703.62,568.02L709.69,571.92L715.76,572.22L721.83,575.51L727.9,578.91L733.98,581.42L740.05,582.61L746.12,584.96L752.19,586.65L758.26,589.25L764.33,589.13L770.4,591.41L776.47,593.87L782.54,595.56L788.61,597.34L794.68,597.81L800.75,600.41L806.82,602.08L812.89,604.12L818.96,603.88L825.03,606.04L831.1,608.43L837.18,610.05L843.25,610.05L849.32,612L855.39,614.32L861.46,615.87L867.53,618.56L873.6,618.61L879.67,621.96L885.74,624.05L891.81,626.87L897.88,626.84L903.95,629.92L910.02,630.81L916.09,633.13L922.16,632.54L928.23,634.84L934.31,635.73L940.38,638.22L946.45,637.72L952.52,639.55L958.59,640.94L964.66,643L970.73,644.13L976.8,643.14L982.87,645.3L988.94,646.33L995.01,648.49L1001.1,649.5L1007.2,649.33L1013.2,651.19L1019.3,652.34" style="fill:none;stroke:#7AC36A;stroke-width:1.875;stroke-dasharray:7.5,2.5" />
<path d="M1055,694.3L1080,694.3" style="fill:none;stroke:#F15A60;stroke-width:1.875" />
<text x="1002.5" y="-687.85" transform="scale(1, -1)"
	style="font-family:Helvetica;font-weight:normal;font-style:normal;font-size:12pt">etcd v3</text>
<path d="M1055,680L1080,680" style="fill:none;stroke:#7AC36A;stroke-width:1.875;stroke-dasharray:7.5,2.5" />
<text x="951.62" y="-673.56" transform="scale(1, -1)"
	style="font-family:Helvetica;font-weight:normal;font-style:normal;font-size:12pt">etcd v3 (patch)</text>
</g>
</svg>
