<?xml version="1.0"?>
<!-- Generated by SVGo and Plotinum VG -->
<svg width="12in" height="8in"
	xmlns="http://www.w3.org/2000/svg"
	xmlns:xlink="http://www.w3.org/1999/xlink">
<g transform="scale(1, -1) translate(0, -720)">
<path d="M0,0L1080,0L1080,720L0,720Z" style="fill:#FFFFFF" />
<text x="310.31" y="-706.41" transform="scale(1, -1)"
	style="font-family:Helvetica;font-weight:normal;font-style:normal;font-size:12pt">Write 3M keys, 1K clients, key 64 bytes, value 256 bytes, Throughput</text>
<text x="556.97" y="-4.965" transform="scale(1, -1)"
	style="font-family:Helvetica;font-weight:normal;font-style:normal;font-size:12pt">Second</text>
<text x="81.337" y="-19.142" transform="scale(1, -1)"
	style="font-family:Helvetica;font-weight:normal;font-style:normal;font-size:10pt">0</text>
<text x="370.56" y="-19.142" transform="scale(1, -1)"
	style="font-family:Helvetica;font-weight:normal;font-style:normal;font-size:10pt">50</text>
<text x="659.79" y="-19.142" transform="scale(1, -1)"
	style="font-family:Helvetica;font-weight:normal;font-style:normal;font-size:10pt">100</text>
<text x="952.49" y="-19.142" transform="scale(1, -1)"
	style="font-family:Helvetica;font-weight:normal;font-style:normal;font-size:10pt">150</text>
<path d="M84.812,30.467L84.812,40.467" style="fill:none;stroke:#000000;stroke-width:0.625" />
<path d="M377.51,30.467L377.51,40.467" style="fill:none;stroke:#000000;stroke-width:0.625" />
<path d="M670.22,30.467L670.22,40.467" style="fill:none;stroke:#000000;stroke-width:0.625" />
<path d="M962.92,30.467L962.92,40.467" style="fill:none;stroke:#000000;stroke-width:0.625" />
<path d="M143.35,35.468L143.35,40.467" style="fill:none;stroke:#000000;stroke-width:0.625" />
<path d="M201.89,35.468L201.89,40.467" style="fill:none;stroke:#000000;stroke-width:0.625" />
<path d="M260.43,35.468L260.43,40.467" style="fill:none;stroke:#000000;stroke-width:0.625" />
<path d="M318.97,35.468L318.97,40.467" style="fill:none;stroke:#000000;stroke-width:0.625" />
<path d="M436.06,35.468L436.06,40.467" style="fill:none;stroke:#000000;stroke-width:0.625" />
<path d="M494.6,35.468L494.6,40.467" style="fill:none;stroke:#000000;stroke-width:0.625" />
<path d="M553.14,35.468L553.14,40.467" style="fill:none;stroke:#000000;stroke-width:0.625" />
<path d="M611.68,35.468L611.68,40.467" style="fill:none;stroke:#000000;stroke-width:0.625" />
<path d="M728.76,35.468L728.76,40.467" style="fill:none;stroke:#000000;stroke-width:0.625" />
<path d="M787.3,35.468L787.3,40.467" style="fill:none;stroke:#000000;stroke-width:0.625" />
<path d="M845.84,35.468L845.84,40.467" style="fill:none;stroke:#000000;stroke-width:0.625" />
<path d="M904.38,35.468L904.38,40.467" style="fill:none;stroke:#000000;stroke-width:0.625" />
<path d="M1021.5,35.468L1021.5,40.467" style="fill:none;stroke:#000000;stroke-width:0.625" />
<path d="M1080,35.468L1080,40.467" style="fill:none;stroke:#000000;stroke-width:0.625" />
<path d="M84.812,40.467L1080,40.467" style="fill:none;stroke:#000000;stroke-width:0.625" />
<g transform="rotate(90)">
<text x="335.88" y="13.59" transform="scale(1, -1)"
	style="font-family:Helvetica;font-weight:normal;font-style:normal;font-size:12pt">Throughput</text>
</g>
<text x="36.28" y="-138.03" transform="scale(1, -1)"
	style="font-family:Helvetica;font-weight:normal;font-style:normal;font-size:10pt">8000</text>
<text x="18.555" y="-321.55" transform="scale(1, -1)"
	style="font-family:Helvetica;font-weight:normal;font-style:normal;font-size:10pt">1.6e+04</text>
<text x="18.555" y="-505.08" transform="scale(1, -1)"
	style="font-family:Helvetica;font-weight:normal;font-style:normal;font-size:10pt">2.4e+04</text>
<text x="18.555" y="-688.6" transform="scale(1, -1)"
	style="font-family:Helvetica;font-weight:normal;font-style:normal;font-size:10pt">3.2e+04</text>
<path d="M67.555,143.4L77.555,143.4" style="fill:none;stroke:#000000;stroke-width:0.625" />
<path d="M67.555,326.92L77.555,326.92" style="fill:none;stroke:#000000;stroke-width:0.625" />
<path d="M67.555,510.44L77.555,510.44" style="fill:none;stroke:#000000;stroke-width:0.625" />
<path d="M67.555,693.97L77.555,693.97" style="fill:none;stroke:#000000;stroke-width:0.625" />
<path d="M72.555,51.641L77.555,51.641" style="fill:none;stroke:#000000;stroke-width:0.625" />
<path d="M72.555,235.16L77.555,235.16" style="fill:none;stroke:#000000;stroke-width:0.625" />
<path d="M72.555,418.68L77.555,418.68" style="fill:none;stroke:#000000;stroke-width:0.625" />
<path d="M72.555,602.21L77.555,602.21" style="fill:none;stroke:#000000;stroke-width:0.625" />
<path d="M77.555,47.03L77.555,701.44" style="fill:none;stroke:#000000;stroke-width:0.625" />
<path d="M84.812,247.16L90.667,634.37L96.521,47.03L102.37,505.77L108.23,554.56L114.08,445.13L119.94,340.3L125.79,478.31L131.64,484.48L137.5,258.01L143.35,496.31L149.21,471.77L155.06,470.9L160.92,232.39L166.77,469.38L172.62,447.93L178.48,450.2L184.33,246.7L190.19,479.93L196.04,482.04L201.89,370.23L207.75,308.46L213.6,480.16L219.46,480.76L225.31,265.01L231.16,426.87L237.02,496.24L242.87,439.72L248.73,276.94L254.58,440.59L260.43,470.99L266.29,439.28L272.14,248.9L278,414.49L283.85,426.02L289.7,433.11L295.56,150.22L301.41,467.11L307.27,344.2L313.12,398.96L318.97,266.87L324.83,328.58L330.68,368.81L336.54,338.26L342.39,423.09L348.24,240.92L354.1,373.15L359.95,374.48L365.81,368.12L371.66,211.72L377.51,391.94L383.37,391.96L389.22,361.82L395.08,326.85L400.93,228.35L406.78,401.34L412.64,433.25L418.49,398.73L424.35,227.87L430.2,360.55L436.06,414.46L441.91,303.11L447.76,316.26L453.62,213.12L459.47,342.36L465.33,335.41L471.18,508.2L477.03,92.796L482.89,399.62L488.74,393.75L494.6,376.98L500.45,363.01L506.3,175.04L512.16,387.69L518.01,388.15L523.87,394.96L529.72,149.34L535.57,445.04L541.43,441L547.28,358.65L553.14,287.76L558.99,362.92L564.84,413.82L570.7,378.45L576.55,376.22L582.41,343.07L588.26,416L594.11,391.94L599.97,385.15L605.82,326.26L611.68,415.95L617.53,413.18L623.38,376.91L629.24,182.22L635.09,400.49L640.95,426.69L646.8,409.07L652.65,271.64L658.51,389.21L664.36,413.34L670.22,391.94L676.07,141.15L681.92,407.31L687.78,389.05L693.63,377.97L699.49,358.35L705.34,220.11L711.2,457.93L717.05,453.21L722.9,382.03L728.76,77.678L734.61,479.84L740.47,488.47L746.32,350.94L752.17,117.5L758.03,429.92L763.88,375.99L769.74,361.86L775.59,295.84L781.44,355L787.3,342.27L793.15,345.89L799.01,432.26L804.86,150.31L810.71,345.53L816.57,500.97L822.42,366.75L828.28,254.75L834.13,323.55L839.98,299.58L845.84,339.52L851.69,549.03L857.55,90.02L863.4,432.65L869.25,483.01L875.11,306.09L880.96,308.8L886.82,397.92L892.67,316.74L898.52,433.34L904.38,282.9L910.23,285.79L916.09,539.35L921.94,299.79L927.79,313.23L933.65,204.86L939.5,366.98L945.36,540.38L951.21,300.38L957.07,364.29L962.92,306.14L968.77,291.37L974.63,564.68L980.48,182.15L986.34,409.88L992.19,303.89L998.04,409.99L1003.9,409.42L1009.8,207.24L1015.6,405.88L1021.5,246.31L1027.3,577.84L1033.2,55.403L1039,553.69L1044.9,250.17L1050.7,506.06L1056.6,223.14L1062.4,421.67L1068.3,262.35L1074.1,393.56L1080,422.72" style="fill:none;stroke:#F15A60;stroke-width:1.875" />
<path d="M84.812,331.49L90.667,701.44L96.521,268.1L102.37,606.66L108.23,597.41L114.08,267.12L119.94,552.88L125.79,583.44L131.64,272.88L137.5,473.19L143.35,532.42L149.21,538.13L155.06,262.32L160.92,542.06L166.77,492.32L172.62,267.35L178.48,480.3L184.33,526.37L190.19,529.53L196.04,253.45L201.89,490.21L207.75,499.71L213.6,324.4L219.46,370.23L225.31,538.8L231.16,569.36L237.02,242.85L242.87,497.9L248.73,487.3L254.58,402.05L260.43,305.31L266.29,464.24L272.14,567.08L278,273.01L283.85,489.34L289.7,458.1L295.56,482.21L301.41,233.05L307.27,510.79L313.12,506.57L318.97,356.81L324.83,313.16L330.68,445.43L336.54,492.37L342.39,282.92L348.24,428.62L354.1,460.14L359.95,514.3L365.81,270.47L371.66,418.57L377.51,433.85L383.37,432.24L389.22,254.34L395.08,383.08L400.93,472.16L406.78,468.42L412.64,230.53L418.49,464.82L424.35,490.51L430.2,457.89L436.06,342.96L441.91,442.68L447.76,369.16L453.62,376.86L459.47,326.56L465.33,369.75L471.18,437.72L477.03,398.54L482.89,270.38L488.74,398.89L494.6,413.06L500.45,456.83L506.3,353.19L512.16,393.95L518.01,406.76L523.87,380.35L529.72,423.91L535.57,405.63L541.43,401.34L547.28,305.75L553.14,432.68L558.99,401.16L564.84,384.87L570.7,315.2L576.55,377.85L582.41,414.49L588.26,357.02L594.11,387.1L599.97,246.56L605.82,489.66L611.68,476.2L617.53,321.83L623.38,225.32L629.24,388.24L635.09,480.14L640.95,339.63L646.8,151.98L652.65,478.76L658.51,389.57L664.36,415.75L670.22,179.85L676.07,419.88L681.92,279.46L687.78,365.46L693.63,444.24L699.49,245.19L705.34,416.83L711.2,518.41L717.05,353.63L722.9,323.96L728.76,443.8L734.61,562.24L740.47,206.95L746.32,366.77L752.17,497.02L758.03,299.21L763.88,368.1L769.74,249.43L775.59,347.06L781.44,480.88L787.3,402.95L793.15,166.23L799.01,408.11L804.86,217.41L810.71,491.75L816.57,267.39L822.42,357.46L828.28,287.51L834.13,442.47L839.98,386.52L845.84,173.77L851.69,341.08L857.55,354.7L863.4,484.25L869.25,197.95L875.11,442.73L880.96,359.45L886.82,499.14L892.67,232.85L898.52,443.25L904.38,502.44L910.23,311.97L916.09,275.67L921.94,247.21L927.79,418.29L933.65,346.9L939.5,409.71L945.36,130.28L951.21,373.63L957.07,315.09L962.92,460.55L968.77,251.79L974.63,221.38L980.48,404.21L986.34,310.15L992.19,419.62L998.04,210.34L1003.9,419.85L1009.8,125.26L1015.6,560.64L1021.5,174.9" style="fill:none;stroke:#7AC36A;stroke-width:1.875;stroke-dasharray:7.5,2.5" />
<path d="M1055,694.3L1080,694.3" style="fill:none;stroke:#F15A60;stroke-width:1.875" />
<text x="1002.5" y="-687.85" transform="scale(1, -1)"
	style="font-family:Helvetica;font-weight:normal;font-style:normal;font-size:12pt">etcd v3</text>
<path d="M1055,680L1080,680" style="fill:none;stroke:#7AC36A;stroke-width:1.875;stroke-dasharray:7.5,2.5" />
<text x="951.62" y="-673.56" transform="scale(1, -1)"
	style="font-family:Helvetica;font-weight:normal;font-style:normal;font-size:12pt">etcd v3 (patch)</text>
</g>
</svg>
