<?xml version="1.0"?>
<!-- Generated by SVGo and Plotinum VG -->
<svg width="12in" height="8in"
	xmlns="http://www.w3.org/2000/svg"
	xmlns:xlink="http://www.w3.org/1999/xlink">
<g transform="scale(1, -1) translate(0, -720)">
<path d="M0,0L1080,0L1080,720L0,720Z" style="fill:#FFFFFF" />
<text x="258.62" y="-706.41" transform="scale(1, -1)"
	style="font-family:Helvetica;font-weight:normal;font-style:normal;font-size:12pt">Write 2M keys, 1K clients(etcd 100 conns), key 8 bytes, value 256 bytes, Throughput</text>
<text x="551.76" y="-4.965" transform="scale(1, -1)"
	style="font-family:Helvetica;font-weight:normal;font-style:normal;font-size:12pt">Second</text>
<text x="70.912" y="-19.142" transform="scale(1, -1)"
	style="font-family:Helvetica;font-weight:normal;font-style:normal;font-size:10pt">0</text>
<text x="332.07" y="-19.142" transform="scale(1, -1)"
	style="font-family:Helvetica;font-weight:normal;font-style:normal;font-size:10pt">20</text>
<text x="596.71" y="-19.142" transform="scale(1, -1)"
	style="font-family:Helvetica;font-weight:normal;font-style:normal;font-size:10pt">40</text>
<text x="861.34" y="-19.142" transform="scale(1, -1)"
	style="font-family:Helvetica;font-weight:normal;font-style:normal;font-size:10pt">60</text>
<path d="M74.388,30.467L74.388,40.467" style="fill:none;stroke:#000000;stroke-width:0.625" />
<path d="M339.02,30.467L339.02,40.467" style="fill:none;stroke:#000000;stroke-width:0.625" />
<path d="M603.66,30.467L603.66,40.467" style="fill:none;stroke:#000000;stroke-width:0.625" />
<path d="M868.29,30.467L868.29,40.467" style="fill:none;stroke:#000000;stroke-width:0.625" />
<path d="M206.7,35.468L206.7,40.467" style="fill:none;stroke:#000000;stroke-width:0.625" />
<path d="M471.34,35.468L471.34,40.467" style="fill:none;stroke:#000000;stroke-width:0.625" />
<path d="M735.97,35.468L735.97,40.467" style="fill:none;stroke:#000000;stroke-width:0.625" />
<path d="M1000.6,35.468L1000.6,40.467" style="fill:none;stroke:#000000;stroke-width:0.625" />
<path d="M74.388,40.467L1080,40.467" style="fill:none;stroke:#000000;stroke-width:0.625" />
<g transform="rotate(90)">
<text x="335.88" y="13.59" transform="scale(1, -1)"
	style="font-family:Helvetica;font-weight:normal;font-style:normal;font-size:12pt">Throughput</text>
</g>
<text x="18.555" y="-183.11" transform="scale(1, -1)"
	style="font-family:Helvetica;font-weight:normal;font-style:normal;font-size:10pt">1e+04</text>
<text x="18.555" y="-324.58" transform="scale(1, -1)"
	style="font-family:Helvetica;font-weight:normal;font-style:normal;font-size:10pt">2e+04</text>
<text x="18.555" y="-466.05" transform="scale(1, -1)"
	style="font-family:Helvetica;font-weight:normal;font-style:normal;font-size:10pt">3e+04</text>
<text x="18.555" y="-607.52" transform="scale(1, -1)"
	style="font-family:Helvetica;font-weight:normal;font-style:normal;font-size:10pt">4e+04</text>
<path d="M57.13,188.48L67.13,188.48" style="fill:none;stroke:#000000;stroke-width:0.625" />
<path d="M57.13,329.95L67.13,329.95" style="fill:none;stroke:#000000;stroke-width:0.625" />
<path d="M57.13,471.42L67.13,471.42" style="fill:none;stroke:#000000;stroke-width:0.625" />
<path d="M57.13,612.89L67.13,612.89" style="fill:none;stroke:#000000;stroke-width:0.625" />
<path d="M62.13,117.75L67.13,117.75" style="fill:none;stroke:#000000;stroke-width:0.625" />
<path d="M62.13,259.22L67.13,259.22" style="fill:none;stroke:#000000;stroke-width:0.625" />
<path d="M62.13,400.68L67.13,400.68" style="fill:none;stroke:#000000;stroke-width:0.625" />
<path d="M62.13,542.15L67.13,542.15" style="fill:none;stroke:#000000;stroke-width:0.625" />
<path d="M62.13,683.62L67.13,683.62" style="fill:none;stroke:#000000;stroke-width:0.625" />
<path d="M67.13,47.03L67.13,701.44" style="fill:none;stroke:#000000;stroke-width:0.625" />
<path d="M74.388,467.42L87.619,495.99L100.85,462.76L114.08,467.34L127.31,454.24L140.55,454.84L153.78,438.87L167.01,465.96L180.24,433.68L193.47,439.23L206.7,427.07L219.94,442.71L233.17,430.76L246.4,402.1L259.63,423.96L272.86,386.68L286.1,418.06L299.33,403.25L312.56,404.33L325.79,403.94L339.02,372.29L352.25,443.49L365.49,391.8L378.72,405.59L391.95,404.02L405.18,438.13L418.41,392.78L431.64,401.53L444.88,416.13L458.11,446.61L471.34,418.62L484.57,416.08L497.8,433.65L511.04,423.93L524.27,419.47L537.5,405.17L550.73,441.48L563.96,408.03L577.19,433.01L590.43,367.81L603.66,402.95L616.89,395.08L630.12,393.19L643.35,423.56L656.58,381.69L669.82,388.08L683.05,426.33L696.28,431.58L709.51,418.28L722.74,419.8L735.97,407.86L749.21,411.51L762.44,428.87L775.67,407.72L788.9,410.47L802.13,451.08L815.37,405.71L828.6,390.78L841.83,398.7L855.06,475L868.29,414.45L881.52,355.34L894.76,400.47L907.99,356.43L921.22,444.54L934.45,345.17L947.68,395.93L960.91,422.81L974.15,443.35L987.38,386.71L1000.6,381.16L1013.8,364.94L1027.1,402.85L1040.3,343.77L1053.5,419.36L1066.8,417.86L1080,336.25" style="fill:none;stroke:#F15A60;stroke-width:1.875" />
<path d="M74.388,133.03L87.619,341.54L100.85,367.03L114.08,479.69L127.31,539.04L140.55,594.68L153.78,608.22L167.01,531.95L180.24,663.86L193.47,637.28L206.7,597.44L219.94,315.69L233.17,322.5L246.4,653.15L259.63,599.89L272.86,652.98L286.1,312.48L299.33,422.51L312.56,638.49L325.79,595.64L339.02,65.095L352.25,681.87L365.49,590.68L378.72,636.84L391.95,496.2L405.18,662.53L418.41,608.35L431.64,651.34L444.88,536.65L458.11,280.66L471.34,210.55L484.57,144.08L497.8,620.3L511.04,536.47L524.27,677.88L537.5,146.68L550.73,649.63L563.96,188.88L577.19,82.411L590.43,75.324L603.66,61.29L616.89,61.163L630.12,47.03L643.35,630.06L656.58,582.8L669.82,602.53L683.05,633.07L696.28,626.65L709.51,598.07L722.74,701.44L735.97,546.09L749.21,403.12L762.44,49.293L775.67,100.69L788.9,454.13L802.13,348.67L815.37,611.6L828.6,476.37L841.83,441.37L855.06,50.468L868.29,555.96L881.52,533.69L894.76,582.2L907.99,571.52L921.22,537.17L934.45,519.48L947.68,578.54L960.91,484.24L974.15,85.028L987.38,75.338L1000.6,47.115L1013.8,49.322" style="fill:none;stroke:#7AC36A;stroke-width:1.875;stroke-dasharray:7.5,2.5" />
<path d="M1055,694.3L1080,694.3" style="fill:none;stroke:#F15A60;stroke-width:1.875" />
<text x="1002.5" y="-687.85" transform="scale(1, -1)"
	style="font-family:Helvetica;font-weight:normal;font-style:normal;font-size:12pt">etcd v3</text>
<path d="M1055,680L1080,680" style="fill:none;stroke:#7AC36A;stroke-width:1.875;stroke-dasharray:7.5,2.5" />
<text x="934.1" y="-673.56" transform="scale(1, -1)"
	style="font-family:Helvetica;font-weight:normal;font-style:normal;font-size:12pt">Zookeeper v3.4.8</text>
</g>
</svg>
