<?xml version="1.0"?>
<!-- Generated by SVGo and Plotinum VG -->
<svg width="12in" height="8in"
	xmlns="http://www.w3.org/2000/svg"
	xmlns:xlink="http://www.w3.org/1999/xlink">
<g transform="scale(1, -1) translate(0, -720)">
<path d="M0,0L1080,0L1080,720L0,720Z" style="fill:#FFFFFF" />
<text x="280.32" y="-706.41" transform="scale(1, -1)"
	style="font-family:Helvetica;font-weight:normal;font-style:normal;font-size:12pt">Write 3M keys, 1K clients, key 64 bytes, value 256 bytes, Latency(millisecond)</text>
<text x="544.64" y="-4.965" transform="scale(1, -1)"
	style="font-family:Helvetica;font-weight:normal;font-style:normal;font-size:12pt">Second</text>
<text x="56.662" y="-19.142" transform="scale(1, -1)"
	style="font-family:Helvetica;font-weight:normal;font-style:normal;font-size:10pt">0</text>
<text x="353.15" y="-19.142" transform="scale(1, -1)"
	style="font-family:Helvetica;font-weight:normal;font-style:normal;font-size:10pt">50</text>
<text x="649.63" y="-19.142" transform="scale(1, -1)"
	style="font-family:Helvetica;font-weight:normal;font-style:normal;font-size:10pt">100</text>
<text x="949.59" y="-19.142" transform="scale(1, -1)"
	style="font-family:Helvetica;font-weight:normal;font-style:normal;font-size:10pt">150</text>
<path d="M60.137,30.467L60.137,40.467" style="fill:none;stroke:#000000;stroke-width:0.625" />
<path d="M360.1,30.467L360.1,40.467" style="fill:none;stroke:#000000;stroke-width:0.625" />
<path d="M660.06,30.467L660.06,40.467" style="fill:none;stroke:#000000;stroke-width:0.625" />
<path d="M960.02,30.467L960.02,40.467" style="fill:none;stroke:#000000;stroke-width:0.625" />
<path d="M120.13,35.468L120.13,40.467" style="fill:none;stroke:#000000;stroke-width:0.625" />
<path d="M180.12,35.468L180.12,40.467" style="fill:none;stroke:#000000;stroke-width:0.625" />
<path d="M240.11,35.468L240.11,40.467" style="fill:none;stroke:#000000;stroke-width:0.625" />
<path d="M300.11,35.468L300.11,40.467" style="fill:none;stroke:#000000;stroke-width:0.625" />
<path d="M420.09,35.468L420.09,40.467" style="fill:none;stroke:#000000;stroke-width:0.625" />
<path d="M480.08,35.468L480.08,40.467" style="fill:none;stroke:#000000;stroke-width:0.625" />
<path d="M540.07,35.468L540.07,40.467" style="fill:none;stroke:#000000;stroke-width:0.625" />
<path d="M600.06,35.468L600.06,40.467" style="fill:none;stroke:#000000;stroke-width:0.625" />
<path d="M720.05,35.468L720.05,40.467" style="fill:none;stroke:#000000;stroke-width:0.625" />
<path d="M780.04,35.468L780.04,40.467" style="fill:none;stroke:#000000;stroke-width:0.625" />
<path d="M840.03,35.468L840.03,40.467" style="fill:none;stroke:#000000;stroke-width:0.625" />
<path d="M900.02,35.468L900.02,40.467" style="fill:none;stroke:#000000;stroke-width:0.625" />
<path d="M1020,35.468L1020,40.467" style="fill:none;stroke:#000000;stroke-width:0.625" />
<path d="M1080,35.468L1080,40.467" style="fill:none;stroke:#000000;stroke-width:0.625" />
<path d="M60.137,40.467L1080,40.467" style="fill:none;stroke:#000000;stroke-width:0.625" />
<g transform="rotate(90)">
<text x="305.89" y="13.59" transform="scale(1, -1)"
	style="font-family:Helvetica;font-weight:normal;font-style:normal;font-size:12pt">Latency(millisecond)</text>
</g>
<text x="25.505" y="-140.09" transform="scale(1, -1)"
	style="font-family:Helvetica;font-weight:normal;font-style:normal;font-size:10pt">60</text>
<text x="18.555" y="-325.68" transform="scale(1, -1)"
	style="font-family:Helvetica;font-weight:normal;font-style:normal;font-size:10pt">120</text>
<text x="18.555" y="-511.26" transform="scale(1, -1)"
	style="font-family:Helvetica;font-weight:normal;font-style:normal;font-size:10pt">180</text>
<path d="M42.88,145.46L52.88,145.46" style="fill:none;stroke:#000000;stroke-width:0.625" />
<path d="M42.88,331.04L52.88,331.04" style="fill:none;stroke:#000000;stroke-width:0.625" />
<path d="M42.88,516.63L52.88,516.63" style="fill:none;stroke:#000000;stroke-width:0.625" />
<path d="M47.88,83.601L52.88,83.601" style="fill:none;stroke:#000000;stroke-width:0.625" />
<path d="M47.88,207.32L52.88,207.32" style="fill:none;stroke:#000000;stroke-width:0.625" />
<path d="M47.88,269.18L52.88,269.18" style="fill:none;stroke:#000000;stroke-width:0.625" />
<path d="M47.88,392.91L52.88,392.91" style="fill:none;stroke:#000000;stroke-width:0.625" />
<path d="M47.88,454.77L52.88,454.77" style="fill:none;stroke:#000000;stroke-width:0.625" />
<path d="M47.88,578.49L52.88,578.49" style="fill:none;stroke:#000000;stroke-width:0.625" />
<path d="M47.88,640.35L52.88,640.35" style="fill:none;stroke:#000000;stroke-width:0.625" />
<path d="M52.88,47.03L52.88,701.44" style="fill:none;stroke:#000000;stroke-width:0.625" />
<path d="M60.137,58.151L66.137,63.5L72.136,701.44L78.135,98.326L84.134,79.262L90.133,83.548L96.133,175.9L102.13,97.357L108.13,92.67L114.13,190.64L120.13,92.707L126.13,97.213L132.13,101.52L138.13,219.66L144.13,94.044L150.13,107.64L156.12,104.96L162.12,203.61L168.12,98.572L174.12,94.648L180.12,99.742L186.12,199.06L192.12,98.777L198.12,93.7L204.12,108.17L210.12,160.11L216.12,98.511L222.12,107.81L228.11,177.74L234.11,109.55L240.11,96.818L246.11,108.92L252.11,197.75L258.11,113.84L264.11,107.54L270.11,118.01L276.11,333.97L282.11,99.073L288.11,144.93L294.11,118.6L300.11,140.65L306.1,186.47L312.1,129.66L318.1,158.85L324.1,103.01L330.1,225.82L336.1,132.16L342.1,125.33L348.1,138.74L354.1,128.61L360.1,185.47L366.1,128.64L372.1,135.66L378.09,153.1L384.09,204.52L390.09,132.16L396.09,89.94L402.09,141.32L408.09,210.99L414.09,144.36L420.09,116.13L426.09,138.55L432.09,160.36L438.09,272.88L444.09,133.26L450.08,161.25L456.08,89.216L462.08,234.16L468.08,197.16L474.08,123.75L480.08,129.28L486.08,128.91L492.08,297.6L498.08,123.68L504.08,123.44L510.08,118.64L516.08,191.77L522.08,163.23L528.07,103.92L534.07,131.67L540.07,112.11L546.07,189.41L552.07,115.69L558.07,131.91L564.07,107.68L570.07,179.39L576.07,110.3L582.07,118.3L588.07,107.94L594.07,172.58L600.06,107.44L606.06,126.23L612.06,119.38L618.06,315.74L624.06,120.82L630.06,101.43L636.06,127.83L642.06,186.49L648.06,123.04L654.06,108.01L660.06,123.83L666.06,215.68L672.05,170.66L678.05,135.06L684.05,127.45L690.05,140.41L696.05,191.32L702.05,99.491L708.05,124.39L714.05,130.77L720.05,422.26L726.05,113.06L732.05,106.38L738.05,139.79L744.05,197.09L750.04,167.26L756.04,137.24L762.04,150.5L768.04,157.49L774.04,148.43L780.04,138.4L786.04,150.85L792.04,81.543L798.04,399.89L804.04,91.944L810.04,122.74L816.04,132.91L822.03,195.99L828.03,142.16L834.03,191.72L840.03,108.04L846.03,92.388L852.03,562.27L858.03,79.877L864.03,110.06L870.03,174.49L876.03,151.08L882.03,126.82L888.03,172.11L894.03,74.334L900.02,150.77L906.02,199.59L912.02,105.3L918.02,172L924.02,116.27L930.02,326.06L936.02,87.153L942.02,104.71L948.02,184.99L954.02,117.7L960.02,154.93L966.02,132.51L972.01,109.24L978.01,257.98L984.01,113.01L990.01,196.3L996.01,74.971L1002,147.06L1008,217.04L1014,141.62L1020,207.19L1026,71.816L1032,478.54L1038,104.08L1044,238.9L1050,72.963L1056,212.19L1062,118.69L1068,200.03L1074,94.233L1080,141.45" style="fill:none;stroke:#F15A60;stroke-width:1.875" />
<path d="M60.137,47.03L66.137,54.968L72.136,188.64L78.135,68.471L84.134,70.362L90.133,188.75L96.133,81.528L102.13,73.026L108.13,89.792L114.13,154.06L120.13,84.102L126.13,83.104L132.13,185.83L138.13,86.012L144.13,93.384L150.13,93.244L156.12,153L162.12,84.472L168.12,79.787L174.12,208.14L180.12,90.032L186.12,95.292L192.12,99.558L198.12,180.4L204.12,77.796L210.12,79.759L216.12,207.1L222.12,90.168L228.11,94.367L234.11,101.98L240.11,191.76L246.11,100.16L252.11,76.331L258.11,169.43L264.11,103.41L270.11,94.195L276.11,96.605L282.11,210.88L288.11,89.578L294.11,97.713L300.11,109.82L306.1,190.24L312.1,107.36L318.1,86.577L324.1,116.7L330.1,160.7L336.1,101.72L342.1,83.813L348.1,193.48L354.1,113.77L360.1,101.31L366.1,109.08L372.1,202.76L378.09,135.36L384.09,98.011L390.09,96.407L396.09,224.55L402.09,84.589L408.09,107.24L414.09,85.246L420.09,165.57L426.09,104.58L432.09,117.83L438.09,127.14L444.09,167.83L450.08,119.08L456.08,126.5L462.08,115.69L468.08,169.19L474.08,117.63L480.08,123.92L486.08,88.897L492.08,162.73L498.08,102.15L504.08,122.49L510.08,116.53L516.08,145.46L522.08,119.17L528.07,117.27L534.07,107.15L540.07,154.32L546.07,121.05L552.07,127.07L558.07,141.28L564.07,130.99L570.07,126.14L576.07,137.92L582.07,106.47L588.07,179.53L594.07,93.989L600.06,111.12L606.06,135.86L612.06,277.67L618.06,100.21L624.06,118.12L630.06,129.63L636.06,306.84L642.06,109.35L648.06,125.46L654.06,125.22L660.06,257.89L666.06,120.06L672.05,186.62L678.05,108.87L684.05,103L690.05,249.76L696.05,114.49L702.05,57.031L708.05,125.99L714.05,213.35L720.05,72.712L726.05,99.916L732.05,160.85L738.05,152.07L744.05,122.08L750.04,157.68L756.04,144.49L762.04,182.99L768.04,158.31L774.04,95.135L780.04,113.39L786.04,315.9L792.04,114.72L798.04,147.29L804.04,116.14L810.04,189.76L816.04,136.11L822.03,214.12L828.03,104.96L834.03,127.76L840.03,202.92L846.03,193.63L852.03,125.76L858.03,105.94L864.03,244.6L870.03,112.1L876.03,137.34L882.03,56.765L888.03,175.68L894.03,130.89L900.02,120.58L906.02,144.88L912.02,137.35L918.02,261.43L924.02,127.62L930.02,144.23L936.02,116.06L942.02,254.53L948.02,140.68L954.02,154.5L960.02,109.27L966.02,222.59L972.01,265.06L978.01,114.67L984.01,168.3L990.01,96.109L996.01,246.14L1002,121.14L1008,278.81L1014,114.26L1020,198.51" style="fill:none;stroke:#7AC36A;stroke-width:1.875;stroke-dasharray:7.5,2.5" />
<path d="M1055,694.3L1080,694.3" style="fill:none;stroke:#F15A60;stroke-width:1.875" />
<text x="1002.5" y="-687.85" transform="scale(1, -1)"
	style="font-family:Helvetica;font-weight:normal;font-style:normal;font-size:12pt">etcd v3</text>
<path d="M1055,680L1080,680" style="fill:none;stroke:#7AC36A;stroke-width:1.875;stroke-dasharray:7.5,2.5" />
<text x="951.62" y="-673.56" transform="scale(1, -1)"
	style="font-family:Helvetica;font-weight:normal;font-style:normal;font-size:12pt">etcd v3 (patch)</text>
</g>
</svg>
