<?xml version="1.0"?>
<!-- Generated by SVGo and Plotinum VG -->
<svg width="12in" height="8in"
	xmlns="http://www.w3.org/2000/svg"
	xmlns:xlink="http://www.w3.org/1999/xlink">
<g transform="scale(1, -1) translate(0, -720)">
<path d="M0,0L1080,0L1080,720L0,720Z" style="fill:#FFFFFF" />
<text x="311.97" y="-706.41" transform="scale(1, -1)"
	style="font-family:Helvetica;font-weight:normal;font-style:normal;font-size:12pt">Write 300K keys, 1 client, key 64 bytes, value 256 bytes, Throughput</text>
<text x="541.95" y="-4.965" transform="scale(1, -1)"
	style="font-family:Helvetica;font-weight:normal;font-style:normal;font-size:12pt">Second</text>
<text x="56.662" y="-19.142" transform="scale(1, -1)"
	style="font-family:Helvetica;font-weight:normal;font-style:normal;font-size:10pt">0</text>
<text x="386.19" y="-19.142" transform="scale(1, -1)"
	style="font-family:Helvetica;font-weight:normal;font-style:normal;font-size:10pt">200</text>
<text x="722.67" y="-19.142" transform="scale(1, -1)"
	style="font-family:Helvetica;font-weight:normal;font-style:normal;font-size:10pt">400</text>
<text x="1059.1" y="-19.142" transform="scale(1, -1)"
	style="font-family:Helvetica;font-weight:normal;font-style:normal;font-size:10pt">600</text>
<path d="M60.137,30.467L60.137,40.467" style="fill:none;stroke:#000000;stroke-width:0.625" />
<path d="M396.62,30.467L396.62,40.467" style="fill:none;stroke:#000000;stroke-width:0.625" />
<path d="M733.1,30.467L733.1,40.467" style="fill:none;stroke:#000000;stroke-width:0.625" />
<path d="M1069.6,30.467L1069.6,40.467" style="fill:none;stroke:#000000;stroke-width:0.625" />
<path d="M228.38,35.468L228.38,40.467" style="fill:none;stroke:#000000;stroke-width:0.625" />
<path d="M564.86,35.468L564.86,40.467" style="fill:none;stroke:#000000;stroke-width:0.625" />
<path d="M901.34,35.468L901.34,40.467" style="fill:none;stroke:#000000;stroke-width:0.625" />
<path d="M60.137,40.467L1074.6,40.467" style="fill:none;stroke:#000000;stroke-width:0.625" />
<g transform="rotate(90)">
<text x="335.88" y="13.59" transform="scale(1, -1)"
	style="font-family:Helvetica;font-weight:normal;font-style:normal;font-size:12pt">Throughput</text>
</g>
<text x="18.555" y="-158.34" transform="scale(1, -1)"
	style="font-family:Helvetica;font-weight:normal;font-style:normal;font-size:10pt">300</text>
<text x="18.555" y="-327.44" transform="scale(1, -1)"
	style="font-family:Helvetica;font-weight:normal;font-style:normal;font-size:10pt">400</text>
<text x="18.555" y="-496.54" transform="scale(1, -1)"
	style="font-family:Helvetica;font-weight:normal;font-style:normal;font-size:10pt">500</text>
<text x="18.555" y="-665.64" transform="scale(1, -1)"
	style="font-family:Helvetica;font-weight:normal;font-style:normal;font-size:10pt">600</text>
<path d="M42.88,163.71L52.88,163.71" style="fill:none;stroke:#000000;stroke-width:0.625" />
<path d="M42.88,332.81L52.88,332.81" style="fill:none;stroke:#000000;stroke-width:0.625" />
<path d="M42.88,501.91L52.88,501.91" style="fill:none;stroke:#000000;stroke-width:0.625" />
<path d="M42.88,671.01L52.88,671.01" style="fill:none;stroke:#000000;stroke-width:0.625" />
<path d="M47.88,79.159L52.88,79.159" style="fill:none;stroke:#000000;stroke-width:0.625" />
<path d="M47.88,248.26L52.88,248.26" style="fill:none;stroke:#000000;stroke-width:0.625" />
<path d="M47.88,417.36L52.88,417.36" style="fill:none;stroke:#000000;stroke-width:0.625" />
<path d="M47.88,586.46L52.88,586.46" style="fill:none;stroke:#000000;stroke-width:0.625" />
<path d="M52.88,47.03L52.88,701.44" style="fill:none;stroke:#000000;stroke-width:0.625" />
<path d="M60.137,386.92L61.82,562.78L63.502,578L65.185,550.95L66.867,557.71L68.549,556.02L70.232,571.24L71.914,576.31L73.597,561.09L75.279,567.86L76.961,545.87L78.644,562.78L80.326,554.33L82.009,564.47L83.691,556.02L85.373,534.04L87.056,520.51L88.738,549.26L90.421,542.49L92.103,515.44L93.785,508.67L95.468,425.81L97.15,348.03L98.833,380.16L100.51,370.01L102.2,375.08L103.88,390.3L105.56,322.66L107.24,314.21L108.93,305.75L110.61,292.22L112.29,439.34L113.97,408.9L115.66,417.36L117.34,413.98L119.02,410.59L120.7,375.08L122.39,520.51L124.07,503.6L125.75,527.27L127.43,537.42L129.12,540.8L130.8,539.11L132.48,550.95L134.16,567.86L135.85,520.51L137.53,542.49L139.21,532.35L140.89,534.04L142.57,539.11L144.26,557.71L145.94,540.8L147.62,532.35L149.3,495.14L150.99,545.87L152.67,564.47L154.35,540.8L156.03,561.09L157.72,510.36L159.4,528.96L161.08,518.82L162.76,579.69L164.45,550.95L166.13,540.8L167.81,569.55L169.49,569.55L171.18,584.77L172.86,562.78L174.54,559.4L176.22,528.96L177.91,562.78L179.59,559.4L181.27,578L182.95,544.18L184.63,562.78L186.32,478.23L188,540.8L189.68,550.95L191.36,535.73L193.05,532.35L194.73,537.42L196.41,422.43L198.09,363.25L199.78,400.45L201.46,370.01L203.14,368.32L204.82,385.23L206.51,337.88L208.19,310.83L209.87,263.48L211.55,287.15L213.24,383.54L214.92,361.56L216.6,361.56L218.28,375.08L219.97,363.25L221.65,439.34L223.33,515.44L225.01,544.18L226.69,513.74L228.38,527.27L230.06,549.26L231.74,520.51L233.42,554.33L235.11,545.87L236.79,505.29L238.47,540.8L240.15,574.62L241.84,549.26L243.52,554.33L245.2,554.33L246.88,545.87L248.57,552.64L250.25,562.78L251.93,567.86L253.61,518.82L255.3,557.71L256.98,544.18L258.66,559.4L260.34,566.17L262.02,545.87L263.71,549.26L265.39,537.42L267.07,550.95L268.75,556.02L270.44,539.11L272.12,571.24L273.8,561.09L275.48,567.86L277.17,537.42L278.85,554.33L280.53,549.26L282.21,571.24L283.9,552.64L285.58,561.09L287.26,503.6L288.94,510.36L290.63,513.74L292.31,505.29L293.99,535.73L295.67,525.58L297.36,408.9L299.04,385.23L300.72,378.46L302.4,407.21L304.08,402.14L305.77,410.59L307.45,349.72L309.13,327.74L310.81,326.04L312.5,334.5L314.18,442.72L315.86,459.63L317.54,417.36L319.23,452.87L320.91,446.1L322.59,407.21L324.27,488.38L325.96,532.35L327.64,561.09L329.32,562.78L331,562.78L332.69,571.24L334.37,534.04L336.05,569.55L337.73,562.78L339.42,564.47L341.1,569.55L342.78,547.56L344.46,539.11L346.14,556.02L347.83,554.33L349.51,574.62L351.19,545.87L352.87,488.38L354.56,559.4L356.24,525.58L357.92,552.64L359.6,549.26L361.29,564.47L362.97,518.82L364.65,572.93L366.33,513.74L368.02,528.96L369.7,561.09L371.38,566.17L373.06,518.82L374.75,556.02L376.43,545.87L378.11,559.4L379.79,574.62L381.48,578L383.16,569.55L384.84,566.17L386.52,556.02L388.2,517.13L389.89,552.64L391.57,549.26L393.25,537.42L394.93,559.4L396.62,552.64L398.3,398.76L399.98,364.94L401.66,368.32L403.35,393.68L405.03,391.99L406.71,375.08L408.39,309.13L410.08,278.7L411.76,295.61L413.44,327.74L415.12,398.76L416.81,400.45L418.49,439.34L420.17,410.59L421.85,420.74L423.54,402.14L425.22,503.6L426.9,562.78L428.58,550.95L430.26,557.71L431.95,547.56L433.63,578L435.31,510.36L436.99,567.86L438.68,572.93L440.36,544.18L442.04,561.09L443.72,576.31L445.41,544.18L447.09,556.02L448.77,566.17L450.45,571.24L452.14,569.55L453.82,552.64L455.5,550.95L457.18,517.13L458.87,562.78L460.55,539.11L462.23,527.27L463.91,534.04L465.59,549.26L467.28,547.56L468.96,574.62L470.64,569.55L472.32,554.33L474.01,545.87L475.69,559.4L477.37,569.55L479.05,559.4L480.74,566.17L482.42,554.33L484.1,544.18L485.78,576.31L487.47,429.19L489.15,535.73L490.83,506.98L492.51,542.49L494.2,550.95L495.88,552.64L497.56,517.13L499.24,412.28L500.93,383.54L502.61,386.92L504.29,368.32L505.97,390.3L507.65,388.61L509.34,342.95L511.02,275.31L512.7,293.92L514.38,302.37L516.07,412.28L517.75,424.12L519.43,420.74L521.11,444.41L522.8,422.43L524.48,435.96L526.16,493.45L527.84,539.11L529.53,518.82L531.21,562.78L532.89,539.11L534.57,549.26L536.26,567.86L537.94,554.33L539.62,534.04L541.3,557.71L542.99,583.08L544.67,539.11L546.35,567.86L548.03,552.64L549.71,578L551.4,549.26L553.08,549.26L554.76,556.02L556.44,562.78L558.13,495.14L559.81,567.86L561.49,571.24L563.17,572.93L564.86,488.38L566.54,517.13L568.22,517.13L569.9,540.8L571.59,540.8L573.27,557.71L574.95,559.4L576.63,545.87L578.32,542.49L580,567.86L581.68,518.82L583.36,532.35L585.04,561.09L586.73,562.78L588.41,550.95L590.09,532.35L591.77,532.35L593.46,545.87L595.14,547.56L596.82,539.11L598.5,544.18L600.19,402.14L601.87,381.85L603.55,383.54L605.23,334.5L606.92,397.07L608.6,386.92L610.28,326.04L611.96,300.68L613.65,309.13L615.33,317.59L617.01,412.28L618.69,412.28L620.38,413.98L622.06,410.59L623.74,405.52L625.42,412.28L627.1,515.44L628.79,532.35L630.47,537.42L632.15,534.04L633.83,578L635.52,545.87L637.2,544.18L638.88,528.96L640.56,528.96L642.25,550.95L643.93,532.35L645.61,532.35L647.29,552.64L648.98,544.18L650.66,539.11L652.34,523.89L654.02,537.42L655.71,537.42L657.39,537.42L659.07,486.69L660.75,547.56L662.44,552.64L664.12,532.35L665.8,501.91L667.48,532.35L669.16,549.26L670.85,537.42L672.53,517.13L674.21,527.27L675.89,545.87L677.58,550.95L679.26,561.09L680.94,530.65L682.62,528.96L684.31,517.13L685.99,542.49L687.67,544.18L689.35,496.83L691.04,506.98L692.72,473.16L694.4,508.67L696.08,503.6L697.77,478.23L699.45,537.42L701.13,410.59L702.81,354.79L704.5,334.5L706.18,327.74L707.86,331.12L709.54,363.25L711.22,305.75L712.91,266.86L714.59,292.22L716.27,260.1L717.95,337.88L719.64,364.94L721.32,430.89L723,390.3L724.68,408.9L726.37,397.07L728.05,495.14L729.73,539.11L731.41,556.02L733.1,556.02L734.78,535.73L736.46,550.95L738.14,523.89L739.83,542.49L741.51,493.45L743.19,547.56L744.87,559.4L746.56,535.73L748.24,527.27L749.92,518.82L751.6,530.65L753.28,552.64L754.97,544.18L756.65,578L758.33,539.11L760.01,557.71L761.7,544.18L763.38,545.87L765.06,544.18L766.74,508.67L768.43,542.49L770.11,549.26L771.79,545.87L773.47,535.73L775.16,522.2L776.84,549.26L778.52,545.87L780.2,534.04L781.89,550.95L783.57,522.2L785.25,530.65L786.93,557.71L788.61,564.47L790.3,557.71L791.98,540.8L793.66,534.04L795.34,539.11L797.03,532.35L798.71,532.35L800.39,523.89L802.07,425.81L803.76,353.1L805.44,366.63L807.12,371.7L808.8,366.63L810.49,351.41L812.17,327.74L813.85,287.15L815.53,261.79L817.22,277.01L818.9,398.76L820.58,390.3L822.26,397.07L823.95,435.96L825.63,398.76L827.31,397.07L828.99,493.45L830.67,512.05L832.36,547.56L834.04,544.18L835.72,561.09L837.4,562.78L839.09,498.53L840.77,544.18L842.45,527.27L844.13,542.49L845.82,540.8L847.5,549.26L849.18,520.51L850.86,549.26L852.55,540.8L854.23,512.05L855.91,540.8L857.59,503.6L859.28,527.27L860.96,547.56L862.64,525.58L864.32,535.73L866.01,520.51L867.69,537.42L869.37,544.18L871.05,547.56L872.73,544.18L874.42,556.02L876.1,522.2L877.78,557.71L879.46,554.33L881.15,559.4L882.83,545.87L884.51,530.65L886.19,562.78L887.88,542.49L889.56,550.95L891.24,542.49L892.92,508.67L894.61,488.38L896.29,522.2L897.97,488.38L899.65,547.56L901.34,537.42L903.02,390.3L904.7,353.1L906.38,366.63L908.06,366.63L909.75,391.99L911.43,375.08L913.11,297.3L914.79,265.17L916.48,226.28L918.16,256.71L919.84,378.46L921.52,402.14L923.21,419.05L924.89,413.98L926.57,397.07L928.25,373.39L929.94,510.36L931.62,547.56L933.3,549.26L934.98,539.11L936.67,517.13L938.35,464.71L940.03,537.42L941.71,539.11L943.4,537.42L945.08,542.49L946.76,559.4L948.44,518.82L950.12,545.87L951.81,523.89L953.49,525.58L955.17,544.18L956.85,554.33L958.54,500.22L960.22,512.05L961.9,540.8L963.58,537.42L965.27,540.8L966.95,554.33L968.63,500.22L970.31,530.65L972,581.38L973.68,539.11L975.36,550.95L977.04,554.33L978.73,520.51L980.41,557.71L982.09,547.56L983.77,534.04L985.46,554.33L987.14,549.26L988.82,505.29L990.5,518.82L992.18,550.95L993.87,537.42L995.55,522.2L997.23,532.35L998.91,518.82L1000.6,549.26L1002.3,518.82L1004,395.37L1005.6,368.32L1007.3,351.41L1009,354.79L1010.7,359.86L1012.4,358.17L1014.1,310.83L1015.7,260.1L1017.4,282.08L1019.1,297.3L1020.8,381.85L1022.5,349.72L1024.2,422.43L1025.8,424.12L1027.5,425.81L1029.2,435.96L1030.9,520.51L1032.6,537.42L1034.2,490.07L1035.9,544.18L1037.6,535.73L1039.3,542.49L1041,557.71L1042.7,552.64L1044.3,554.33L1046,532.35L1047.7,549.26L1049.4,518.82L1051.1,512.05L1052.8,539.11L1054.4,547.56L1056.1,540.8L1057.8,561.09L1059.5,572.93L1061.2,552.64L1062.8,528.96L1064.5,517.13L1066.2,496.83L1067.9,557.71L1069.6,544.18L1071.3,561.09L1072.9,559.4L1074.6,571.24" style="fill:none;stroke:#F15A60;stroke-width:1.875" />
<path d="M60.137,189.07L61.82,491.76L63.502,539.11L65.185,528.96L66.867,569.55L68.549,532.35L70.232,540.8L71.914,539.11L73.597,542.49L75.279,527.27L76.961,540.8L78.644,522.2L80.326,522.2L82.009,547.56L83.691,574.62L85.373,405.52L87.056,376.77L88.738,403.83L90.421,542.49L92.103,517.13L93.785,520.51L95.468,539.11L97.15,542.49L98.833,530.65L100.51,513.74L102.2,591.53L103.88,606.75L105.56,611.82L107.24,576.31L108.93,578L110.61,599.99L112.29,596.6L113.97,601.68L115.66,586.46L117.34,627.04L119.02,589.84L120.7,603.37L122.39,593.22L124.07,596.6L125.75,596.6L127.43,586.46L129.12,588.15L130.8,583.08L132.48,593.22L134.16,578L135.85,525.58L137.53,500.22L139.21,513.74L140.89,522.2L142.57,520.51L144.26,505.29L145.94,508.67L147.62,517.13L149.3,518.82L150.99,523.89L152.67,613.51L154.35,589.84L156.03,584.77L157.72,584.77L159.4,606.75L161.08,583.08L162.76,615.2L164.45,613.51L166.13,611.82L167.81,606.75L169.49,584.77L171.18,588.15L172.86,603.37L174.54,550.95L176.22,574.62L177.91,530.65L179.59,559.4L181.27,593.22L182.95,594.91L184.63,599.99L186.32,425.81L188,412.28L189.68,397.07L191.36,542.49L193.05,556.02L194.73,547.56L196.41,537.42L198.09,559.4L199.78,544.18L201.46,534.04L203.14,603.37L204.82,610.13L206.51,606.75L208.19,596.6L209.87,594.91L211.55,594.91L213.24,588.15L214.92,559.4L216.6,596.6L218.28,578L219.97,589.84L221.65,594.91L223.33,550.95L225.01,615.2L226.69,606.75L228.38,618.59L230.06,618.59L231.74,599.99L233.42,583.08L235.11,554.33L236.79,557.71L238.47,528.96L240.15,510.36L241.84,522.2L243.52,508.67L245.2,518.82L246.88,513.74L248.57,537.42L250.25,525.58L251.93,545.87L253.61,586.46L255.3,601.68L256.98,601.68L258.66,581.38L260.34,618.59L262.02,620.28L263.71,606.75L265.39,574.62L267.07,593.22L268.75,584.77L270.44,586.46L272.12,584.77L273.8,599.99L275.48,578L277.17,586.46L278.85,583.08L280.53,593.22L282.21,610.13L283.9,552.64L285.58,579.69L287.26,386.92L288.94,356.48L290.63,373.39L292.31,523.89L293.99,537.42L295.67,506.98L297.36,515.44L299.04,500.22L300.72,503.6L302.4,512.05L304.08,586.46L305.77,616.9L307.45,599.99L309.13,603.37L310.81,603.37L312.5,593.22L314.18,586.46L315.86,594.91L317.54,608.44L319.23,618.59L320.91,621.97L322.59,605.06L324.27,593.22L325.96,589.84L327.64,567.86L329.32,627.04L331,625.35L332.69,616.9L334.37,606.75L336.05,633.81L337.73,549.26L339.42,503.6L341.1,512.05L342.78,493.45L344.46,518.82L346.14,527.27L347.83,506.98L349.51,527.27L351.19,518.82L352.87,517.13L354.56,591.53L356.24,593.22L357.92,598.29L359.6,599.99L361.29,574.62L362.97,562.78L364.65,591.53L366.33,606.75L368.02,598.29L369.7,578L371.38,611.82L373.06,625.35L374.75,528.96L376.43,579.69L378.11,556.02L379.79,564.47L381.48,562.78L383.16,556.02L384.84,486.69L386.52,589.84L388.2,439.34L389.89,383.54L391.57,391.99L393.25,525.58L394.93,505.29L396.62,515.44L398.3,523.89L399.98,532.35L401.66,539.11L403.35,534.04L405.03,571.24L406.71,586.46L408.39,591.53L410.08,606.75L411.76,616.9L413.44,608.44L415.12,601.68L416.81,576.31L418.49,571.24L420.17,589.84L421.85,596.6L423.54,632.11L425.22,628.73L426.9,608.44L428.58,569.55L430.26,596.6L431.95,591.53L433.63,594.91L435.31,591.53L436.99,588.15L438.68,528.96L440.36,528.96L442.04,515.44L443.72,512.05L445.41,518.82L447.09,518.82L448.77,510.36L450.45,532.35L452.14,527.27L453.82,535.73L455.5,594.91L457.18,583.08L458.87,584.77L460.55,601.68L462.23,628.73L463.91,610.13L465.59,633.81L467.28,642.26L468.96,618.59L470.64,610.13L472.32,620.28L474.01,620.28L475.69,594.91L477.37,588.15L479.05,605.06L480.74,591.53L482.42,576.31L484.1,598.29L485.78,549.26L487.47,593.22L489.15,449.49L490.83,407.21L492.51,415.67L494.2,512.05L495.88,517.13L497.56,535.73L499.24,508.67L500.93,540.8L502.61,528.96L504.29,528.96L505.97,611.82L507.65,623.66L509.34,620.28L511.02,603.37L512.7,610.13L514.38,625.35L516.07,605.06L517.75,589.84L519.43,589.84L521.11,598.29L522.8,628.73L524.48,627.04L526.16,608.44L527.84,611.82L529.53,620.28L531.21,599.99L532.89,608.44L534.57,571.24L536.26,591.53L537.94,583.08L539.62,522.2L541.3,525.58L542.99,527.27L544.67,534.04L546.35,517.13L548.03,528.96L549.71,552.64L551.4,547.56L553.08,537.42L554.76,537.42L556.44,589.84L558.13,605.06L559.81,584.77L561.49,599.99L563.17,598.29L564.86,618.59L566.54,621.97L568.22,613.51L569.9,615.2L571.59,618.59L573.27,603.37L574.95,572.93L576.63,583.08L578.32,561.09L580,579.69L581.68,554.33L583.36,550.95L585.04,578L586.73,547.56L588.41,581.38L590.09,471.47L591.77,405.52L593.46,437.65L595.14,579.69L596.82,581.38L598.5,562.78L600.19,562.78L601.87,586.46L603.55,567.86L605.23,566.17L606.92,662.55L608.6,643.95L610.28,657.48L611.96,662.55L613.65,611.82L615.33,657.48L617.01,682.84L618.69,676.08L620.38,659.17L622.06,621.97L623.74,662.55L625.42,669.32L627.1,672.7L628.79,650.72L630.47,654.1L632.15,662.55L633.83,664.24L635.52,628.73L637.2,633.81L638.88,672.7L640.56,527.27L642.25,561.09L643.93,557.71L645.61,554.33L647.29,545.87L648.98,513.74L650.66,542.49L652.34,564.47L654.02,566.17L655.71,579.69L657.39,660.86L659.07,677.77L660.75,655.79L662.44,650.72L664.12,662.55L665.8,662.55L667.48,652.41L669.16,649.02L670.85,672.7L672.53,627.04L674.21,662.55L675.89,665.93L677.58,611.82L679.26,47.03L680.94,554.33L682.62,562.78L684.31,557.71L685.99,576.31L687.67,557.71L689.35,559.4L691.04,457.94L692.72,424.12L694.4,447.8L696.08,540.8L697.77,561.09L699.45,567.86L701.13,566.17L702.81,547.56L704.5,562.78L706.18,566.17L707.86,637.19L709.54,642.26L711.22,655.79L712.91,647.33L714.59,638.88L716.27,649.02L717.95,650.72L719.64,655.79L721.32,605.06L723,605.06L724.68,625.35L726.37,596.6L728.05,615.2L729.73,608.44L731.41,616.9L733.1,605.06L734.78,571.24L736.46,599.99L738.14,591.53L739.83,593.22L741.51,532.35L743.19,525.58L744.87,518.82L746.56,527.27L748.24,512.05L749.92,512.05L751.6,525.58L753.28,527.27L754.97,506.98L756.65,520.51L758.33,589.84L760.01,618.59L761.7,611.82L763.38,601.68L765.06,605.06L766.74,618.59L768.43,591.53L770.11,603.37L771.79,611.82L773.47,605.06L775.16,561.09L776.84,593.22L778.52,611.82L780.2,549.26L781.89,554.33L783.57,562.78L785.25,549.26L786.93,584.77L788.61,579.69L790.3,579.69L791.98,429.19L793.66,381.85L795.34,393.68L797.03,522.2L798.71,513.74L800.39,508.67L802.07,506.98L803.76,523.89L805.44,520.51L807.12,549.26L808.8,581.38L810.49,618.59L812.17,594.91L813.85,610.13L815.53,588.15L817.22,588.15L818.9,611.82L820.58,606.75L822.26,601.68L823.95,611.82L825.63,601.68L827.31,598.29L828.99,613.51L830.67,621.97L832.36,611.82L834.04,621.97L835.72,616.9L837.4,588.15L839.09,601.68L840.77,571.24L842.45,512.05L844.13,496.83L845.82,517.13L847.5,523.89L849.18,506.98L850.86,515.44L852.55,518.82L854.23,561.09L855.91,534.04L857.59,542.49L859.28,589.84L860.96,611.82L862.64,603.37L864.32,621.97L866.01,642.26L867.69,620.28L869.37,606.75L871.05,625.35L872.73,618.59L874.42,628.73L876.1,620.28L877.78,616.9L879.46,611.82L881.15,593.22L882.83,610.13L884.51,584.77L886.19,583.08L887.88,593.22L889.56,588.15L891.24,586.46L892.92,437.65L894.61,402.14L896.29,419.05L897.97,578L899.65,576.31L901.34,576.31L903.02,562.78L904.7,554.33L906.38,549.26L908.06,557.71L909.75,654.1L911.43,664.24L913.11,659.17L914.79,669.32L916.48,659.17L918.16,649.02L919.84,665.93L921.52,647.33L923.21,660.86L924.89,645.64L926.57,657.48L928.25,667.63L929.94,676.08L931.62,645.64L933.3,647.33L934.98,669.32L936.67,586.46L938.35,498.53L940.03,430.89L941.71,627.04L943.4,564.47L945.08,552.64L946.76,491.76L948.44,569.55L950.12,566.17L951.81,556.02L953.49,562.78L955.17,578L956.85,550.95L958.54,542.49L960.22,611.82L961.9,640.57L963.58,652.41L965.27,665.93L966.95,659.17L968.63,633.81L970.31,701.44L972,667.63L973.68,657.48L975.36,642.26L977.04,652.41L978.73,645.64L980.41,669.32L982.09,567.86L983.77,598.29L985.46,567.86L987.14,583.08L988.82,598.29" style="fill:none;stroke:#7AC36A;stroke-width:1.875;stroke-dasharray:7.5,2.5" />
<path d="M1055,694.3L1080,694.3" style="fill:none;stroke:#7AC36A;stroke-width:1.875;stroke-dasharray:7.5,2.5" />
<text x="934.1" y="-687.85" transform="scale(1, -1)"
	style="font-family:Helvetica;font-weight:normal;font-style:normal;font-size:12pt">Zookeeper v3.4.8</text>
<path d="M1055,680L1080,680" style="fill:none;stroke:#F15A60;stroke-width:1.875" />
<text x="1002.5" y="-673.56" transform="scale(1, -1)"
	style="font-family:Helvetica;font-weight:normal;font-style:normal;font-size:12pt">etcd v3</text>
</g>
</svg>
