<?xml version="1.0"?>
<!-- Generated by SVGo and Plotinum VG -->
<svg width="12in" height="8in"
	xmlns="http://www.w3.org/2000/svg"
	xmlns:xlink="http://www.w3.org/1999/xlink">
<g transform="scale(1, -1) translate(0, -720)">
<path d="M0,0L1080,0L1080,720L0,720Z" style="fill:#FFFFFF" />
<text x="268.66" y="-706.41" transform="scale(1, -1)"
	style="font-family:Helvetica;font-weight:normal;font-style:normal;font-size:12pt">Write 1M keys, 300 clients(50 etcd conns), key 64 bytes, value 1 kb, Memory(MB)</text>
<text x="548.11" y="-4.965" transform="scale(1, -1)"
	style="font-family:Helvetica;font-weight:normal;font-style:normal;font-size:12pt">Second</text>
<text x="63.613" y="-19.142" transform="scale(1, -1)"
	style="font-family:Helvetica;font-weight:normal;font-style:normal;font-size:10pt">0</text>
<text x="359.82" y="-19.142" transform="scale(1, -1)"
	style="font-family:Helvetica;font-weight:normal;font-style:normal;font-size:10pt">50</text>
<text x="656.02" y="-19.142" transform="scale(1, -1)"
	style="font-family:Helvetica;font-weight:normal;font-style:normal;font-size:10pt">100</text>
<text x="955.7" y="-19.142" transform="scale(1, -1)"
	style="font-family:Helvetica;font-weight:normal;font-style:normal;font-size:10pt">150</text>
<path d="M67.088,30.467L67.088,40.467" style="fill:none;stroke:#000000;stroke-width:0.625" />
<path d="M366.77,30.467L366.77,40.467" style="fill:none;stroke:#000000;stroke-width:0.625" />
<path d="M666.44,30.467L666.44,40.467" style="fill:none;stroke:#000000;stroke-width:0.625" />
<path d="M966.12,30.467L966.12,40.467" style="fill:none;stroke:#000000;stroke-width:0.625" />
<path d="M127.02,35.468L127.02,40.467" style="fill:none;stroke:#000000;stroke-width:0.625" />
<path d="M186.96,35.468L186.96,40.467" style="fill:none;stroke:#000000;stroke-width:0.625" />
<path d="M246.89,35.468L246.89,40.467" style="fill:none;stroke:#000000;stroke-width:0.625" />
<path d="M306.83,35.468L306.83,40.467" style="fill:none;stroke:#000000;stroke-width:0.625" />
<path d="M426.7,35.468L426.7,40.467" style="fill:none;stroke:#000000;stroke-width:0.625" />
<path d="M486.64,35.468L486.64,40.467" style="fill:none;stroke:#000000;stroke-width:0.625" />
<path d="M546.57,35.468L546.57,40.467" style="fill:none;stroke:#000000;stroke-width:0.625" />
<path d="M606.51,35.468L606.51,40.467" style="fill:none;stroke:#000000;stroke-width:0.625" />
<path d="M726.38,35.468L726.38,40.467" style="fill:none;stroke:#000000;stroke-width:0.625" />
<path d="M786.32,35.468L786.32,40.467" style="fill:none;stroke:#000000;stroke-width:0.625" />
<path d="M846.25,35.468L846.25,40.467" style="fill:none;stroke:#000000;stroke-width:0.625" />
<path d="M906.19,35.468L906.19,40.467" style="fill:none;stroke:#000000;stroke-width:0.625" />
<path d="M1026.1,35.468L1026.1,40.467" style="fill:none;stroke:#000000;stroke-width:0.625" />
<path d="M67.088,40.467L1080,40.467" style="fill:none;stroke:#000000;stroke-width:0.625" />
<g transform="rotate(90)">
<text x="330.91" y="13.59" transform="scale(1, -1)"
	style="font-family:Helvetica;font-weight:normal;font-style:normal;font-size:12pt">Memory(MB)</text>
</g>
<text x="25.505" y="-222.24" transform="scale(1, -1)"
	style="font-family:Helvetica;font-weight:normal;font-style:normal;font-size:10pt">800</text>
<text x="18.555" y="-407.79" transform="scale(1, -1)"
	style="font-family:Helvetica;font-weight:normal;font-style:normal;font-size:10pt">1600</text>
<text x="18.555" y="-593.34" transform="scale(1, -1)"
	style="font-family:Helvetica;font-weight:normal;font-style:normal;font-size:10pt">2400</text>
<path d="M49.83,227.61L59.83,227.61" style="fill:none;stroke:#000000;stroke-width:0.625" />
<path d="M49.83,413.16L59.83,413.16" style="fill:none;stroke:#000000;stroke-width:0.625" />
<path d="M49.83,598.71L59.83,598.71" style="fill:none;stroke:#000000;stroke-width:0.625" />
<path d="M54.83,134.84L59.83,134.84" style="fill:none;stroke:#000000;stroke-width:0.625" />
<path d="M54.83,320.39L59.83,320.39" style="fill:none;stroke:#000000;stroke-width:0.625" />
<path d="M54.83,505.93L59.83,505.93" style="fill:none;stroke:#000000;stroke-width:0.625" />
<path d="M54.83,691.48L59.83,691.48" style="fill:none;stroke:#000000;stroke-width:0.625" />
<path d="M59.83,47.03L59.83,701.44" style="fill:none;stroke:#000000;stroke-width:0.625" />
<path d="M67.088,47.03L73.081,59.928L79.075,64.304L85.068,65.29L91.062,68.104L97.055,69.644L103.05,71.717L109.04,73.505L115.04,75.235L121.03,75.625L127.02,77.766L133.02,79.54L139.01,81.813L145,82.785L151,84.04L156.99,88.08L162.98,89.24L168.98,89.706L174.97,91.278L180.97,93.252L186.96,94.382L192.95,96.474L198.95,98.072L204.94,99.396L210.93,100.15L216.93,102.7L222.92,105.13L228.91,107.07L234.91,108.16L240.9,109.43L246.89,110.75L252.89,112.86L258.88,115.61L264.88,116.3L270.87,118.22L276.86,119.18L282.86,120.03L288.85,122.43L294.84,125.42L300.84,129.38L306.83,130.51L312.82,131.96L318.82,132.84L324.81,132.98L330.8,134.73L336.8,137.17L342.79,139.05L348.79,140.23L354.78,141.63L360.77,144.22L366.77,145.9L372.76,150.12L378.75,153.78L384.75,157.35L390.74,158.71L396.73,160.89L402.73,163.4L408.72,164.55L414.71,165.77L420.71,169.23L426.7,170.42L432.69,171.86L438.69,174.26L444.68,176.34L450.68,178.18L456.67,178.5L462.66,181.21L468.66,182.76L474.65,185.25L480.64,185.88L486.64,188.65L492.63,188.98L498.62,193.29L504.62,193.38L510.61,196.25L516.6,196.31L522.6,198.33L528.59,201.47L534.59,202.06L540.58,206.43L546.57,206.77L552.57,206.98L558.56,210.56L564.55,210.82L570.55,211.64L576.54,252.35L582.53,270.93L588.53,289.9L594.52,305.7L600.51,321.28L606.51,332.23L612.5,337.13L618.5,337.46L624.49,337.57L630.48,341.59L636.48,342.78L642.47,343.63L648.46,343.82L654.46,344.48L660.45,350.8L666.44,360.05L672.44,360.29L678.43,360.88L684.42,361.46L690.42,361.46L696.41,365.73L702.41,369.79L708.4,371.09L714.39,377.51L720.39,377.79L726.38,385.69L732.37,388.36L738.37,388.68L744.36,391.76L750.35,392.21L756.35,392.24L762.34,392.26L768.33,392.27L774.33,392.31L780.32,392.37L786.32,392.4L792.31,392.41L798.3,392.46" style="fill:none;stroke:#F15A60;stroke-width:1.875" />
<path d="M67.088,55.537L73.081,87.806L79.075,130.19L85.068,168.48L91.062,215.02L97.055,255.65L103.05,280.91L109.04,318.92L115.04,371.99L121.03,371.99L127.02,386.76L133.02,440.38L139.01,444.99L145,464.33L151,464.4L156.99,476.23L162.98,482.7L168.98,492.06L174.97,508.23L180.97,508.35L186.96,508.93L192.95,517.12L198.95,537.87L204.94,540.54L210.93,540.54L216.93,561.11L222.92,561.21L228.91,561.23L234.91,561.23L240.9,561.23L246.89,561.23L252.89,561.29L258.88,561.36L264.88,561.52L270.87,561.53L276.86,561.91L282.86,562.31L288.85,562.27L294.84,562.29L300.84,562.29L306.83,562.38L312.82,562.47L318.82,562.47L324.81,562.41L330.8,563.28L336.8,563.28L342.79,563.37L348.79,563.46L354.78,563.43L360.77,563.38L366.77,563.36L372.76,563.36L378.75,563.36L384.75,563.36L390.74,563.36L396.73,563.31L402.73,563.48L408.72,563.66L414.71,563.39L420.71,563.39L426.7,563.39L432.69,563.39L438.69,563.39L444.68,563.39L450.68,563.39L456.67,563.39L462.66,563.39L468.66,563.35L474.65,563.31L480.64,563.31L486.64,563.57L492.63,563.57L498.62,563.57L504.62,563.3L510.61,561.93L516.6,560.55L522.6,561.08L528.59,562.34L534.59,561.92L540.58,576.53L546.57,585.83L552.57,587.58L558.56,587.98L564.55,587.77L570.55,596.3L576.54,596.3L582.53,637.98L588.53,630.48L594.52,630.48L600.51,630.49L606.51,627.74L612.5,627.71L618.5,635.36L624.49,635.36L630.48,635.6L636.48,636.2L642.47,637.49L648.46,641.88L654.46,643.72L660.45,668.69L666.44,668.85L672.44,674.28L678.43,674.61L684.42,673.63L690.42,673.14L696.41,672.65L702.41,671.14L708.4,671.22L714.39,671.3L720.39,671.3L726.38,671.25L732.37,671.2L738.37,671.71L744.36,671.96L750.35,672.21L756.35,672.21L762.34,671.89L768.33,671.57L774.33,671.57L780.32,671.57L786.32,671.57L792.31,671.21L798.3,671.21L804.3,671.21L810.29,671.21L816.28,671.21L822.28,671.21L828.27,671.21L834.26,671.21L840.26,671.21L846.25,671.21L852.24,671.21L858.24,671.21L864.23,671.21L870.23,671.21L876.22,671.21L882.21,671.21L888.21,671.21L894.2,671.21L900.19,671.21L906.19,671.21L912.18,671.21L918.17,671.21L924.17,671.21L930.16,671.21L936.15,671.21L942.15,671.21L948.14,671.21L954.14,671.21L960.13,671.21L966.12,671.21L972.12,671.24L978.11,671.26L984.1,671.26L990.1,671.26L996.09,671.26L1002.1,671.26L1008.1,671.26L1014.1,671.26L1020.1,671.26L1026.1,671.26L1032.1,675.93L1038,682.22L1044,679.9L1050,683.08L1056,683.46L1062,686.71L1068,689.09L1074,695.75L1080,701.44" style="fill:none;stroke:#7AC36A;stroke-width:1.875;stroke-dasharray:7.5,2.5" />
<path d="M1055,694.3L1080,694.3" style="fill:none;stroke:#F15A60;stroke-width:1.875" />
<text x="1002.5" y="-687.85" transform="scale(1, -1)"
	style="font-family:Helvetica;font-weight:normal;font-style:normal;font-size:12pt">etcd v3</text>
<path d="M1055,680L1080,680" style="fill:none;stroke:#7AC36A;stroke-width:1.875;stroke-dasharray:7.5,2.5" />
<text x="934.1" y="-673.56" transform="scale(1, -1)"
	style="font-family:Helvetica;font-weight:normal;font-style:normal;font-size:12pt">Zookeeper v3.4.8</text>
</g>
</svg>
