<?xml version="1.0"?>
<!-- Generated by SVGo and Plotinum VG -->
<svg width="12in" height="8in"
	xmlns="http://www.w3.org/2000/svg"
	xmlns:xlink="http://www.w3.org/1999/xlink">
<g transform="scale(1, -1) translate(0, -720)">
<path d="M0,0L1080,0L1080,720L0,720Z" style="fill:#FFFFFF" />
<text x="243.64" y="-706.41" transform="scale(1, -1)"
	style="font-family:Helvetica;font-weight:normal;font-style:normal;font-size:12pt">Write 1M keys, 300 clients(50 etcd conns), key 64 bytes, value 1 kb, Latency(millisecond)</text>
<text x="548.11" y="-4.965" transform="scale(1, -1)"
	style="font-family:Helvetica;font-weight:normal;font-style:normal;font-size:12pt">Second</text>
<text x="63.613" y="-19.142" transform="scale(1, -1)"
	style="font-family:Helvetica;font-weight:normal;font-style:normal;font-size:10pt">0</text>
<text x="358.05" y="-19.142" transform="scale(1, -1)"
	style="font-family:Helvetica;font-weight:normal;font-style:normal;font-size:10pt">50</text>
<text x="652.49" y="-19.142" transform="scale(1, -1)"
	style="font-family:Helvetica;font-weight:normal;font-style:normal;font-size:10pt">100</text>
<text x="950.41" y="-19.142" transform="scale(1, -1)"
	style="font-family:Helvetica;font-weight:normal;font-style:normal;font-size:10pt">150</text>
<path d="M67.088,30.467L67.088,40.467" style="fill:none;stroke:#000000;stroke-width:0.625" />
<path d="M365,30.467L365,40.467" style="fill:none;stroke:#000000;stroke-width:0.625" />
<path d="M662.92,30.467L662.92,40.467" style="fill:none;stroke:#000000;stroke-width:0.625" />
<path d="M960.83,30.467L960.83,40.467" style="fill:none;stroke:#000000;stroke-width:0.625" />
<path d="M126.67,35.468L126.67,40.467" style="fill:none;stroke:#000000;stroke-width:0.625" />
<path d="M186.25,35.468L186.25,40.467" style="fill:none;stroke:#000000;stroke-width:0.625" />
<path d="M245.84,35.468L245.84,40.467" style="fill:none;stroke:#000000;stroke-width:0.625" />
<path d="M305.42,35.468L305.42,40.467" style="fill:none;stroke:#000000;stroke-width:0.625" />
<path d="M424.59,35.468L424.59,40.467" style="fill:none;stroke:#000000;stroke-width:0.625" />
<path d="M484.17,35.468L484.17,40.467" style="fill:none;stroke:#000000;stroke-width:0.625" />
<path d="M543.75,35.468L543.75,40.467" style="fill:none;stroke:#000000;stroke-width:0.625" />
<path d="M603.34,35.468L603.34,40.467" style="fill:none;stroke:#000000;stroke-width:0.625" />
<path d="M722.5,35.468L722.5,40.467" style="fill:none;stroke:#000000;stroke-width:0.625" />
<path d="M782.08,35.468L782.08,40.467" style="fill:none;stroke:#000000;stroke-width:0.625" />
<path d="M841.67,35.468L841.67,40.467" style="fill:none;stroke:#000000;stroke-width:0.625" />
<path d="M901.25,35.468L901.25,40.467" style="fill:none;stroke:#000000;stroke-width:0.625" />
<path d="M1020.4,35.468L1020.4,40.467" style="fill:none;stroke:#000000;stroke-width:0.625" />
<path d="M1080,35.468L1080,40.467" style="fill:none;stroke:#000000;stroke-width:0.625" />
<path d="M67.088,40.467L1080,40.467" style="fill:none;stroke:#000000;stroke-width:0.625" />
<g transform="rotate(90)">
<text x="305.89" y="13.59" transform="scale(1, -1)"
	style="font-family:Helvetica;font-weight:normal;font-style:normal;font-size:12pt">Latency(millisecond)</text>
</g>
<text x="39.405" y="-41.661" transform="scale(1, -1)"
	style="font-family:Helvetica;font-weight:normal;font-style:normal;font-size:10pt">0</text>
<text x="18.555" y="-226.48" transform="scale(1, -1)"
	style="font-family:Helvetica;font-weight:normal;font-style:normal;font-size:10pt">1000</text>
<text x="18.555" y="-411.3" transform="scale(1, -1)"
	style="font-family:Helvetica;font-weight:normal;font-style:normal;font-size:10pt">2000</text>
<text x="18.555" y="-596.11" transform="scale(1, -1)"
	style="font-family:Helvetica;font-weight:normal;font-style:normal;font-size:10pt">3000</text>
<path d="M49.83,47.03L59.83,47.03" style="fill:none;stroke:#000000;stroke-width:0.625" />
<path d="M49.83,231.85L59.83,231.85" style="fill:none;stroke:#000000;stroke-width:0.625" />
<path d="M49.83,416.67L59.83,416.67" style="fill:none;stroke:#000000;stroke-width:0.625" />
<path d="M49.83,601.48L59.83,601.48" style="fill:none;stroke:#000000;stroke-width:0.625" />
<path d="M54.83,139.44L59.83,139.44" style="fill:none;stroke:#000000;stroke-width:0.625" />
<path d="M54.83,324.26L59.83,324.26" style="fill:none;stroke:#000000;stroke-width:0.625" />
<path d="M54.83,509.07L59.83,509.07" style="fill:none;stroke:#000000;stroke-width:0.625" />
<path d="M54.83,693.89L59.83,693.89" style="fill:none;stroke:#000000;stroke-width:0.625" />
<path d="M59.83,47.03L59.83,701.44" style="fill:none;stroke:#000000;stroke-width:0.625" />
<path d="M67.088,50.409L73.046,50.261L79.004,50.389L84.962,50.466L90.921,50.53L96.879,50.55L102.84,50.547L108.8,50.673L114.75,50.858L120.71,50.838L126.67,50.84L132.63,51.061L138.59,50.803L144.55,50.869L150.5,51.189L156.46,51.661L162.42,50.871L168.38,50.917L174.34,50.694L180.3,50.654L186.25,50.823L192.21,50.859L198.17,50.769L204.13,51.717L210.09,51.843L216.05,50.178L222,52.109L227.96,50.066L233.92,53.216L239.88,50.452L245.84,55.472L251.8,50.698L257.75,50.38L263.71,50.367L269.67,56.005L275.63,50.438L281.59,50.358L287.54,56.285L293.5,50.333L299.46,50.41L305.42,50.659L311.38,57.655L317.34,50.578L323.29,50.559L329.25,50.282L335.21,55.086L341.17,54.937L347.13,50.507L353.09,50.609L359.04,50.011L365,57.521L370.96,50.132L376.92,50.122L382.88,49.837L388.84,50.58L394.79,51.94L400.75,52.592L406.71,52.222L412.67,52.029L418.63,52.094L424.59,52.182L430.54,51.799L436.5,52.329L442.46,52.115L448.42,52.274L454.38,52.283L460.34,51.813L466.29,52.107L472.25,52.064L478.21,51.928L484.17,52.256L490.13,52.276L496.09,51.84L502.04,52.091L508,52.148L513.96,52.508L519.92,51.783L525.88,52.414L531.84,52.099L537.79,52.473L543.75,52.254L549.71,52.148L555.67,52.261L561.63,52.237L567.59,52.048L573.54,52.401L579.5,52.088L585.46,52.447L591.42,52.122L597.38,153.02L603.34,51.987L609.29,52.42L615.25,52.386L621.21,51.725L627.17,52.412L633.13,52.417L639.09,52.173L645.04,52.185L651,52.168L656.96,52.514L662.92,47.03L668.88,47.03L674.83,47.03L680.79,47.03L686.75,47.03L692.71,47.03L698.67,47.03L704.63,47.03L710.58,47.03L716.54,47.03L722.5,47.03L728.46,47.03L734.42,47.03L740.38,47.03L746.33,47.03L752.29,47.03L758.25,47.03L764.21,47.03L770.17,47.03L776.13,47.03L782.08,47.03L788.04,47.03L794,47.03L799.96,47.03" style="fill:none;stroke:#F15A60;stroke-width:1.875" />
<path d="M67.088,49.5L73.046,49.489L79.004,49.45L84.962,48.992L90.921,49.142L96.879,48.763L102.84,50.017L108.8,49.154L114.75,48.953L120.71,50.43L126.67,49.924L132.63,49.256L138.59,48.776L144.55,49.113L150.5,48.945L156.46,49.135L162.42,49.319L168.38,50.572L174.34,49.32L180.3,49.003L186.25,48.892L192.21,49.047L198.17,50.507L204.13,50.071L210.09,49.029L216.05,49.964L222,50.632L227.96,120.39L233.92,150.39L239.88,231.78L245.84,47.03L251.8,47.03L257.75,47.03L263.71,47.03L269.67,47.03L275.63,47.03L281.59,47.03L287.54,47.03L293.5,47.03L299.46,47.03L305.42,47.03L311.38,47.03L317.34,47.03L323.29,47.03L329.25,47.03L335.21,47.03L341.17,47.03L347.13,47.03L353.09,47.03L359.04,47.03L365,47.03L370.96,47.03L376.92,47.03L382.88,47.03L388.84,47.03L394.79,47.03L400.75,693.89L406.71,47.03L412.67,47.03L418.63,47.03L424.59,47.03L430.54,47.03L436.5,47.03L442.46,47.03L448.42,47.03L454.38,47.03L460.34,47.03L466.29,47.03L472.25,47.03L478.21,47.03L484.17,47.03L490.13,47.03L496.09,47.03L502.04,47.03L508,47.03L513.96,47.03L519.92,107.05L525.88,49.488L531.84,49.607L537.79,51.061L543.75,48.861L549.71,52.173L555.67,47.03L561.63,47.03L567.59,47.03L573.54,47.03L579.5,47.03L585.46,47.03L591.42,47.03L597.38,47.03L603.34,91.377L609.29,49.361L615.25,49.345L621.21,49.385L627.17,49.468L633.13,49.357L639.09,50.431L645.04,49.838L651,49.947L656.96,52.594L662.92,51.677L668.88,49.561L674.83,47.03L680.79,47.03L686.75,47.03L692.71,47.03L698.67,47.03L704.63,47.03L710.58,47.03L716.54,47.03L722.5,47.03L728.46,701.44L734.42,47.03L740.38,692.22L746.33,47.03L752.29,47.03L758.25,47.03L764.21,47.03L770.17,47.03L776.13,47.03L782.08,47.03L788.04,47.03L794,47.03L799.96,47.03L805.92,47.03L811.88,47.03L817.83,47.03L823.79,47.03L829.75,47.03L835.71,47.03L841.67,47.03L847.63,47.03L853.58,47.03L859.54,47.03L865.5,47.03L871.46,47.03L877.42,47.03L883.38,47.03L889.33,47.03L895.29,47.03L901.25,47.03L907.21,47.03L913.17,47.03L919.13,47.03L925.08,47.03L931.04,47.03L937,47.03L942.96,47.03L948.92,47.03L954.88,47.03L960.83,47.03L966.79,47.03L972.75,47.03L978.71,47.03L984.67,47.03L990.63,47.03L996.58,47.03L1002.5,47.03L1008.5,47.03L1014.5,47.03L1020.4,157.86L1026.4,48.94L1032.3,54.838L1038.3,49.541L1044.3,49.66L1050.2,62.412L1056.2,50.7L1062.1,50.57L1068.1,50.275L1074,51.147L1080,50.724" style="fill:none;stroke:#7AC36A;stroke-width:1.875;stroke-dasharray:7.5,2.5" />
<path d="M1055,694.3L1080,694.3" style="fill:none;stroke:#F15A60;stroke-width:1.875" />
<text x="1002.5" y="-687.85" transform="scale(1, -1)"
	style="font-family:Helvetica;font-weight:normal;font-style:normal;font-size:12pt">etcd v3</text>
<path d="M1055,680L1080,680" style="fill:none;stroke:#7AC36A;stroke-width:1.875;stroke-dasharray:7.5,2.5" />
<text x="934.1" y="-673.56" transform="scale(1, -1)"
	style="font-family:Helvetica;font-weight:normal;font-style:normal;font-size:12pt">Zookeeper v3.4.8</text>
</g>
</svg>
