<?xml version="1.0"?>
<!-- Generated by SVGo and Plotinum VG -->
<svg width="12in" height="8in"
	xmlns="http://www.w3.org/2000/svg"
	xmlns:xlink="http://www.w3.org/1999/xlink">
<g transform="scale(1, -1) translate(0, -720)">
<path d="M0,0L1080,0L1080,720L0,720Z" style="fill:#FFFFFF" />
<text x="296.15" y="-706.41" transform="scale(1, -1)"
	style="font-family:Helvetica;font-weight:normal;font-style:normal;font-size:12pt">Write 1M keys, 300 clients(50 etcd conns), key 64 bytes, value 1 kb, CPU</text>
<text x="544.64" y="-4.965" transform="scale(1, -1)"
	style="font-family:Helvetica;font-weight:normal;font-style:normal;font-size:12pt">Second</text>
<text x="56.662" y="-19.142" transform="scale(1, -1)"
	style="font-family:Helvetica;font-weight:normal;font-style:normal;font-size:10pt">0</text>
<text x="354.92" y="-19.142" transform="scale(1, -1)"
	style="font-family:Helvetica;font-weight:normal;font-style:normal;font-size:10pt">50</text>
<text x="653.18" y="-19.142" transform="scale(1, -1)"
	style="font-family:Helvetica;font-weight:normal;font-style:normal;font-size:10pt">100</text>
<text x="954.92" y="-19.142" transform="scale(1, -1)"
	style="font-family:Helvetica;font-weight:normal;font-style:normal;font-size:10pt">150</text>
<path d="M60.137,30.467L60.137,40.467" style="fill:none;stroke:#000000;stroke-width:0.625" />
<path d="M361.87,30.467L361.87,40.467" style="fill:none;stroke:#000000;stroke-width:0.625" />
<path d="M663.61,30.467L663.61,40.467" style="fill:none;stroke:#000000;stroke-width:0.625" />
<path d="M965.34,30.467L965.34,40.467" style="fill:none;stroke:#000000;stroke-width:0.625" />
<path d="M120.48,35.468L120.48,40.467" style="fill:none;stroke:#000000;stroke-width:0.625" />
<path d="M180.83,35.468L180.83,40.467" style="fill:none;stroke:#000000;stroke-width:0.625" />
<path d="M241.18,35.468L241.18,40.467" style="fill:none;stroke:#000000;stroke-width:0.625" />
<path d="M301.53,35.468L301.53,40.467" style="fill:none;stroke:#000000;stroke-width:0.625" />
<path d="M422.22,35.468L422.22,40.467" style="fill:none;stroke:#000000;stroke-width:0.625" />
<path d="M482.57,35.468L482.57,40.467" style="fill:none;stroke:#000000;stroke-width:0.625" />
<path d="M542.91,35.468L542.91,40.467" style="fill:none;stroke:#000000;stroke-width:0.625" />
<path d="M603.26,35.468L603.26,40.467" style="fill:none;stroke:#000000;stroke-width:0.625" />
<path d="M723.95,35.468L723.95,40.467" style="fill:none;stroke:#000000;stroke-width:0.625" />
<path d="M784.3,35.468L784.3,40.467" style="fill:none;stroke:#000000;stroke-width:0.625" />
<path d="M844.65,35.468L844.65,40.467" style="fill:none;stroke:#000000;stroke-width:0.625" />
<path d="M904.99,35.468L904.99,40.467" style="fill:none;stroke:#000000;stroke-width:0.625" />
<path d="M1025.7,35.468L1025.7,40.467" style="fill:none;stroke:#000000;stroke-width:0.625" />
<path d="M60.137,40.467L1080,40.467" style="fill:none;stroke:#000000;stroke-width:0.625" />
<g transform="rotate(90)">
<text x="358.4" y="13.59" transform="scale(1, -1)"
	style="font-family:Helvetica;font-weight:normal;font-style:normal;font-size:12pt">CPU</text>
</g>
<text x="25.505" y="-233.32" transform="scale(1, -1)"
	style="font-family:Helvetica;font-weight:normal;font-style:normal;font-size:10pt">80</text>
<text x="18.555" y="-432.24" transform="scale(1, -1)"
	style="font-family:Helvetica;font-weight:normal;font-style:normal;font-size:10pt">160</text>
<text x="18.555" y="-631.15" transform="scale(1, -1)"
	style="font-family:Helvetica;font-weight:normal;font-style:normal;font-size:10pt">240</text>
<path d="M42.88,238.69L52.88,238.69" style="fill:none;stroke:#000000;stroke-width:0.625" />
<path d="M42.88,437.61L52.88,437.61" style="fill:none;stroke:#000000;stroke-width:0.625" />
<path d="M42.88,636.52L52.88,636.52" style="fill:none;stroke:#000000;stroke-width:0.625" />
<path d="M47.88,139.23L52.88,139.23" style="fill:none;stroke:#000000;stroke-width:0.625" />
<path d="M47.88,338.15L52.88,338.15" style="fill:none;stroke:#000000;stroke-width:0.625" />
<path d="M47.88,537.06L52.88,537.06" style="fill:none;stroke:#000000;stroke-width:0.625" />
<path d="M52.88,47.03L52.88,701.44" style="fill:none;stroke:#000000;stroke-width:0.625" />
<path d="M60.137,47.03L66.172,121.08L72.207,181.6L78.242,232.07L84.276,274.54L90.311,313.26L96.346,346.67L102.38,374.95L108.42,399.54L114.45,418.34L120.48,437.13L126.52,452.47L132.55,468.04L138.59,479.53L144.62,482.88L150.66,492.9L156.69,503.87L162.73,514.41L168.76,524.58L174.8,534.2L180.83,541.69L186.87,550.19L192.9,557.6L198.94,558.95L204.97,559.79L211,560.71L217.04,560.36L223.07,561.31L229.11,561.53L235.14,560.41L241.18,560.14L247.21,559.42L253.25,558.42L259.28,557.53L265.32,557.28L271.35,556.48L277.39,555.64L283.42,555.99L289.46,556.53L295.49,555.49L301.53,554.89L307.56,554.25L313.59,554L319.63,552.85L325.66,553.33L331.7,551.76L337.73,552.78L343.77,551.66L349.8,551.34L355.84,551.83L361.87,554.15L367.91,556.58L373.94,556.43L379.98,555.89L386.01,555.04L392.05,551.29L398.08,548.03L404.11,543.58L410.15,539.68L416.18,536.52L422.22,532.79L428.25,530.5L434.29,527.79L440.32,524.51L446.36,522L452.39,518.42L458.43,515.71L464.46,512.3L470.5,509.29L476.53,505.96L482.57,503.72L488.6,500.71L494.64,498.47L500.67,495.71L506.7,493.55L512.74,489.85L518.77,487.29L524.81,485.42L530.84,482.86L536.88,480.85L542.91,478.11L548.95,475.95L554.98,474.43L561.02,472.12L567.05,469.81L573.09,468.41L579.12,467.09L585.16,466L591.19,466.72L597.22,464.63L603.26,464.16L609.29,462.99L615.33,460.68L621.36,458.59L627.4,456.88L633.43,455.93L639.47,454.39L645.5,452.62L651.54,450.86L657.57,449.37L663.61,447.3L669.64,443.72L675.68,440.24L681.71,436.86L687.75,433.3L693.78,430.02L699.81,427.29L705.85,424.13L711.88,422.26L717.92,419.73L723.95,416.79L729.99,414.36L736.02,411.47L742.06,409.11L748.09,406.38L754.13,403.59L760.16,401.38L766.2,398.67L772.23,396.48L778.27,393.97L784.3,391.36L790.33,389.44L796.37,386.91" style="fill:none;stroke:#F15A60;stroke-width:1.875" />
<path d="M60.137,60.532L66.172,187.14L72.207,270.29L78.242,326.19L84.276,379.87L90.311,417.14L96.346,440.94L102.38,476.54L108.42,504.59L114.45,522.77L120.48,540.3L126.52,566.18L132.55,579.96L138.59,596.12L144.62,610.66L150.66,628.12L156.69,638.21L162.73,641.62L168.76,653.21L174.8,662.33L180.83,670.31L186.87,676.73L192.9,690.01L198.94,692.49L204.97,693.09L211,701.44L217.04,696.57L223.07,692.69L229.11,675.24L235.14,658.08L241.18,643.66L247.21,627.75L253.25,613.1L259.28,599.5L265.32,585.8L271.35,574.56L277.39,564.07L283.42,552.78L289.46,541.69L295.49,533.11L301.53,524.96L307.56,515.08L313.59,506.11L319.63,497.11L325.66,489.45L331.7,480.45L337.73,471.77L343.77,463.94L349.8,456.18L355.84,448.94L361.87,441.63L367.91,436.06L373.94,430.2L379.98,424.7L386.01,419.33L392.05,413.19L398.08,407.47L404.11,401.82L410.15,396.35L416.18,391.18L422.22,385.99L428.25,380.96L434.29,376.19L440.32,371.49L446.36,367.01L452.39,362.56L458.43,358.24L464.46,353.99L470.5,349.86L476.53,345.93L482.57,342.05L488.6,338.54L494.64,335.26L500.67,331.63L506.7,329.52L512.74,327.4L518.77,326.16L524.81,326.26L530.84,327.26L536.88,332.35L542.91,336.01L548.95,339.36L554.98,338.72L561.02,337.97L567.05,337L573.09,335.29L579.12,336.06L585.16,336.55L591.19,334.64L597.22,333.75L603.26,334.94L609.29,335.39L615.33,336.43L621.36,337L627.4,338.77L633.43,345.13L639.47,348.51L645.5,354.76L651.54,359.46L657.57,366.24L663.61,370.07L669.64,372.39L675.68,370.82L681.71,368.18L687.75,366.02L693.78,363.88L699.81,361.02L705.85,358.16L711.88,355.38L717.92,352.07L723.95,349.41L729.99,346.77L736.02,344.09L742.06,342.25L748.09,340.38L754.13,338L760.16,335.54L766.2,333.07L772.23,330.96L778.27,328.9L784.3,326.71L790.33,324.37L796.37,321.98L802.4,319.92L808.44,317.86L814.47,316.17L820.51,314.48L826.54,312.36L832.58,310.17L838.61,308.43L844.65,306.62L850.68,305.08L856.72,303.51L862.75,301.82L868.79,299.71L874.82,297.96L880.86,296.2L886.89,294.46L892.92,292.77L898.96,290.93L904.99,289.51L911.03,288.17L917.06,286.55L923.1,284.96L929.13,283.22L935.17,281.83L941.2,280.49L947.24,278.99L953.27,277.55L959.31,276.03L965.34,274.59L971.38,273.22L977.41,271.81L983.44,270.39L989.48,268.97L995.51,267.58L1001.5,266.24L1007.6,264.82L1013.6,263.65L1019.7,262.58L1025.7,261.31L1031.7,262.58L1037.8,264.22L1043.8,267.26L1049.8,269.79L1055.9,270.24L1061.9,271.31L1067.9,273.6L1074,275.79L1080,278.3" style="fill:none;stroke:#7AC36A;stroke-width:1.875;stroke-dasharray:7.5,2.5" />
<path d="M1055,694.3L1080,694.3" style="fill:none;stroke:#F15A60;stroke-width:1.875" />
<text x="1002.5" y="-687.85" transform="scale(1, -1)"
	style="font-family:Helvetica;font-weight:normal;font-style:normal;font-size:12pt">etcd v3</text>
<path d="M1055,680L1080,680" style="fill:none;stroke:#7AC36A;stroke-width:1.875;stroke-dasharray:7.5,2.5" />
<text x="934.1" y="-673.56" transform="scale(1, -1)"
	style="font-family:Helvetica;font-weight:normal;font-style:normal;font-size:12pt">Zookeeper v3.4.8</text>
</g>
</svg>
