<?xml version="1.0"?>
<!-- Generated by SVGo and Plotinum VG -->
<svg width="12in" height="8in"
	xmlns="http://www.w3.org/2000/svg"
	xmlns:xlink="http://www.w3.org/1999/xlink">
<g transform="scale(1, -1) translate(0, -720)">
<path d="M0,0L1080,0L1080,720L0,720Z" style="fill:#FFFFFF" />
<text x="273.63" y="-706.41" transform="scale(1, -1)"
	style="font-family:Helvetica;font-weight:normal;font-style:normal;font-size:12pt">Write 1M keys, 300 clients(50 etcd conns), key 64 bytes, value 1 kb, Throughput</text>
<text x="551.76" y="-4.965" transform="scale(1, -1)"
	style="font-family:Helvetica;font-weight:normal;font-style:normal;font-size:12pt">Second</text>
<text x="70.912" y="-19.142" transform="scale(1, -1)"
	style="font-family:Helvetica;font-weight:normal;font-style:normal;font-size:10pt">0</text>
<text x="363.21" y="-19.142" transform="scale(1, -1)"
	style="font-family:Helvetica;font-weight:normal;font-style:normal;font-size:10pt">50</text>
<text x="655.5" y="-19.142" transform="scale(1, -1)"
	style="font-family:Helvetica;font-weight:normal;font-style:normal;font-size:10pt">100</text>
<text x="951.27" y="-19.142" transform="scale(1, -1)"
	style="font-family:Helvetica;font-weight:normal;font-style:normal;font-size:10pt">150</text>
<path d="M74.388,30.467L74.388,40.467" style="fill:none;stroke:#000000;stroke-width:0.625" />
<path d="M370.16,30.467L370.16,40.467" style="fill:none;stroke:#000000;stroke-width:0.625" />
<path d="M665.92,30.467L665.92,40.467" style="fill:none;stroke:#000000;stroke-width:0.625" />
<path d="M961.69,30.467L961.69,40.467" style="fill:none;stroke:#000000;stroke-width:0.625" />
<path d="M133.54,35.468L133.54,40.467" style="fill:none;stroke:#000000;stroke-width:0.625" />
<path d="M192.69,35.468L192.69,40.467" style="fill:none;stroke:#000000;stroke-width:0.625" />
<path d="M251.85,35.468L251.85,40.467" style="fill:none;stroke:#000000;stroke-width:0.625" />
<path d="M311,35.468L311,40.467" style="fill:none;stroke:#000000;stroke-width:0.625" />
<path d="M429.31,35.468L429.31,40.467" style="fill:none;stroke:#000000;stroke-width:0.625" />
<path d="M488.46,35.468L488.46,40.467" style="fill:none;stroke:#000000;stroke-width:0.625" />
<path d="M547.62,35.468L547.62,40.467" style="fill:none;stroke:#000000;stroke-width:0.625" />
<path d="M606.77,35.468L606.77,40.467" style="fill:none;stroke:#000000;stroke-width:0.625" />
<path d="M725.08,35.468L725.08,40.467" style="fill:none;stroke:#000000;stroke-width:0.625" />
<path d="M784.23,35.468L784.23,40.467" style="fill:none;stroke:#000000;stroke-width:0.625" />
<path d="M843.39,35.468L843.39,40.467" style="fill:none;stroke:#000000;stroke-width:0.625" />
<path d="M902.54,35.468L902.54,40.467" style="fill:none;stroke:#000000;stroke-width:0.625" />
<path d="M1020.8,35.468L1020.8,40.467" style="fill:none;stroke:#000000;stroke-width:0.625" />
<path d="M1080,35.468L1080,40.467" style="fill:none;stroke:#000000;stroke-width:0.625" />
<path d="M74.388,40.467L1080,40.467" style="fill:none;stroke:#000000;stroke-width:0.625" />
<g transform="rotate(90)">
<text x="335.88" y="13.59" transform="scale(1, -1)"
	style="font-family:Helvetica;font-weight:normal;font-style:normal;font-size:12pt">Throughput</text>
</g>
<text x="46.705" y="-41.661" transform="scale(1, -1)"
	style="font-family:Helvetica;font-weight:normal;font-style:normal;font-size:10pt">0</text>
<text x="18.555" y="-252.94" transform="scale(1, -1)"
	style="font-family:Helvetica;font-weight:normal;font-style:normal;font-size:10pt">1e+04</text>
<text x="18.555" y="-464.22" transform="scale(1, -1)"
	style="font-family:Helvetica;font-weight:normal;font-style:normal;font-size:10pt">2e+04</text>
<text x="18.555" y="-675.5" transform="scale(1, -1)"
	style="font-family:Helvetica;font-weight:normal;font-style:normal;font-size:10pt">3e+04</text>
<path d="M57.13,47.03L67.13,47.03" style="fill:none;stroke:#000000;stroke-width:0.625" />
<path d="M57.13,258.31L67.13,258.31" style="fill:none;stroke:#000000;stroke-width:0.625" />
<path d="M57.13,469.59L67.13,469.59" style="fill:none;stroke:#000000;stroke-width:0.625" />
<path d="M57.13,680.87L67.13,680.87" style="fill:none;stroke:#000000;stroke-width:0.625" />
<path d="M62.13,152.67L67.13,152.67" style="fill:none;stroke:#000000;stroke-width:0.625" />
<path d="M62.13,363.95L67.13,363.95" style="fill:none;stroke:#000000;stroke-width:0.625" />
<path d="M62.13,575.23L67.13,575.23" style="fill:none;stroke:#000000;stroke-width:0.625" />
<path d="M67.13,47.03L67.13,701.44" style="fill:none;stroke:#000000;stroke-width:0.625" />
<path d="M74.388,187L80.303,405.89L86.218,391.37L92.134,385.52L98.049,378.74L103.96,378.99L109.88,376.94L115.8,368.87L121.71,351.74L127.63,347.15L133.54,359.11L139.46,337.07L145.37,353.64L151.29,325.5L157.2,299.4L163.12,345.04L169.03,350.74L174.95,349.2L180.86,364.56L186.78,363.55L192.69,358.62L198.61,353.62L204.53,339.88L210.44,302.8L216.36,296.23L222.27,292.96L228.19,305.78L234.1,296.47L240.02,299.76L245.93,268.98L251.85,259.98L257.76,264.8L263.68,277.03L269.59,278.74L275.51,269.55L281.43,272.8L287.34,269.36L293.26,271.18L299.17,280.89L305.09,274.2L311,260.42L316.92,272.06L322.83,264.92L328.75,265.7L334.66,270.03L340.58,262.13L346.49,259.03L352.41,276.86L358.33,263.53L364.24,297.29L370.16,291.8L376.07,295.13L381.99,286.98L387.9,332.3L393.82,260.46L399.73,194.16L405.65,196.64L411.56,196.26L417.48,201.2L423.39,198.79L429.31,193.68L435.22,202.34L441.14,194.38L447.06,204.41L452.97,195.62L458.89,194.12L464.8,196.26L470.72,198.24L476.63,211.85L482.55,194.27L488.46,203.65L494.38,194.4L500.29,202.43L506.21,192.6L512.12,196.32L518.04,199.4L523.96,201.2L529.87,197.23L535.79,198.2L541.7,185.8L547.62,195.39L553.53,200.44L559.45,195.03L565.36,195.24L571.28,200.74L577.19,189.9L583.11,200.27L589.02,188.31L594.94,196.02L600.86,201.58L606.77,194.46L612.69,197.71L618.6,190.95L624.52,199.57L630.43,196.59L636.35,192.9L642.26,197.52L648.18,196.59L654.09,153.3L660.01,190.45L665.92,47.03L671.84,47.03L677.75,47.03L683.67,47.03L689.59,47.03L695.5,47.03L701.42,47.03L707.33,47.03L713.25,47.03L719.16,47.03L725.08,47.03L730.99,47.03L736.91,47.03L742.82,47.03L748.74,47.03L754.65,47.03L760.57,47.03L766.49,47.03L772.4,47.03L778.32,47.03L784.23,47.03L790.15,47.03L796.06,47.03L801.98,47.03" style="fill:none;stroke:#F15A60;stroke-width:1.875" />
<path d="M74.388,284.32L80.303,561.62L86.218,581.99L92.134,643.58L98.049,600.62L103.96,564.66L109.88,529.17L115.8,595.81L121.71,656.91L127.63,390.13L133.54,384.93L139.46,658.11L145.37,701.44L151.29,620.25L157.2,649.68L163.12,610.57L169.03,186.94L174.95,594.01L180.86,592.7L186.78,631.19L192.69,656.27L198.61,574.95L204.53,419.85L210.44,431.16L216.36,564.18L222.27,403.03L228.19,432.23L234.1,57.319L240.02,53.389L245.93,49.671L251.85,47.03L257.76,47.03L263.68,47.03L269.59,47.03L275.51,47.03L281.43,47.03L287.34,47.03L293.26,47.03L299.17,47.03L305.09,47.03L311,47.03L316.92,47.03L322.83,47.03L328.75,47.03L334.66,47.03L340.58,47.03L346.49,47.03L352.41,47.03L358.33,47.03L364.24,47.03L370.16,47.03L376.07,47.03L381.99,47.03L387.9,47.03L393.82,47.03L399.73,47.03L405.65,47.727L411.56,47.03L417.48,47.03L423.39,47.03L429.31,47.03L435.22,47.03L441.14,47.03L447.06,47.03L452.97,47.03L458.89,47.03L464.8,47.03L470.72,47.03L476.63,47.03L482.55,47.03L488.46,47.03L494.38,47.03L500.29,47.03L506.21,47.03L512.12,47.03L518.04,47.03L523.96,76.926L529.87,375L535.79,93.532L541.7,405.68L547.62,473.37L553.53,119.1L559.45,47.03L565.36,47.03L571.28,47.03L577.19,47.03L583.11,47.03L589.02,47.03L594.94,47.03L600.86,47.03L606.77,99.913L612.69,381.46L618.6,384.99L624.52,376.77L630.43,368.13L636.35,381.74L642.26,357.31L648.18,532.06L654.09,386.7L660.01,206.46L665.92,403.06L671.84,113.46L677.75,47.03L683.67,47.03L689.59,47.03L695.5,47.03L701.42,47.03L707.33,47.03L713.25,47.03L719.16,47.03L725.08,47.03L730.99,50.622L736.91,47.03L742.82,47.115L748.74,47.03L754.65,47.03L760.57,47.03L766.49,47.03L772.4,47.03L778.32,47.03L784.23,47.03L790.15,47.03L796.06,47.03L801.98,47.03L807.89,47.03L813.81,47.03L819.72,47.03L825.64,47.03L831.55,47.03L837.47,47.03L843.39,47.03L849.3,47.03L855.22,47.03L861.13,47.03L867.05,47.03L872.96,47.03L878.88,47.03L884.79,47.03L890.71,47.03L896.62,47.03L902.54,47.03L908.45,47.03L914.37,47.03L920.29,47.03L926.2,47.03L932.12,47.03L938.03,47.03L943.95,47.03L949.86,47.03L955.78,47.03L961.69,47.03L967.61,47.03L973.52,47.03L979.44,47.03L985.35,47.03L991.27,47.03L997.18,47.03L1003.1,47.03L1009,47.03L1014.9,47.03L1020.8,58.355L1026.8,54.53L1032.7,290.51L1038.6,583.55L1044.5,393.25L1050.4,139.55L1056.3,368.81L1062.3,376.65L1068.2,359.24L1074.1,369.67L1080,363.99" style="fill:none;stroke:#7AC36A;stroke-width:1.875;stroke-dasharray:7.5,2.5" />
<path d="M1055,694.3L1080,694.3" style="fill:none;stroke:#F15A60;stroke-width:1.875" />
<text x="1002.5" y="-687.85" transform="scale(1, -1)"
	style="font-family:Helvetica;font-weight:normal;font-style:normal;font-size:12pt">etcd v3</text>
<path d="M1055,680L1080,680" style="fill:none;stroke:#7AC36A;stroke-width:1.875;stroke-dasharray:7.5,2.5" />
<text x="934.1" y="-673.56" transform="scale(1, -1)"
	style="font-family:Helvetica;font-weight:normal;font-style:normal;font-size:12pt">Zookeeper v3.4.8</text>
</g>
</svg>
