<?xml version="1.0"?>
<!-- Generated by SVGo and Plotinum VG -->
<svg width="12in" height="8in"
	xmlns="http://www.w3.org/2000/svg"
	xmlns:xlink="http://www.w3.org/1999/xlink">
<g transform="scale(1, -1) translate(0, -720)">
<path d="M0,0L1080,0L1080,720L0,720Z" style="fill:#FFFFFF" />
<text x="285.31" y="-706.41" transform="scale(1, -1)"
	style="font-family:Helvetica;font-weight:normal;font-style:normal;font-size:12pt">Write 1M keys, 1K clients(50 etcd conns), key 8 bytes, value 256 bytes, CPU</text>
<text x="544.64" y="-4.965" transform="scale(1, -1)"
	style="font-family:Helvetica;font-weight:normal;font-style:normal;font-size:12pt">Second</text>
<text x="56.662" y="-19.142" transform="scale(1, -1)"
	style="font-family:Helvetica;font-weight:normal;font-style:normal;font-size:10pt">0</text>
<text x="359.15" y="-19.142" transform="scale(1, -1)"
	style="font-family:Helvetica;font-weight:normal;font-style:normal;font-size:10pt">60</text>
<text x="661.63" y="-19.142" transform="scale(1, -1)"
	style="font-family:Helvetica;font-weight:normal;font-style:normal;font-size:10pt">120</text>
<text x="967.59" y="-19.142" transform="scale(1, -1)"
	style="font-family:Helvetica;font-weight:normal;font-style:normal;font-size:10pt">180</text>
<path d="M60.137,30.467L60.137,40.467" style="fill:none;stroke:#000000;stroke-width:0.625" />
<path d="M366.1,30.467L366.1,40.467" style="fill:none;stroke:#000000;stroke-width:0.625" />
<path d="M672.05,30.467L672.05,40.467" style="fill:none;stroke:#000000;stroke-width:0.625" />
<path d="M978.01,30.467L978.01,40.467" style="fill:none;stroke:#000000;stroke-width:0.625" />
<path d="M162.12,35.468L162.12,40.467" style="fill:none;stroke:#000000;stroke-width:0.625" />
<path d="M264.11,35.468L264.11,40.467" style="fill:none;stroke:#000000;stroke-width:0.625" />
<path d="M468.08,35.468L468.08,40.467" style="fill:none;stroke:#000000;stroke-width:0.625" />
<path d="M570.07,35.468L570.07,40.467" style="fill:none;stroke:#000000;stroke-width:0.625" />
<path d="M774.04,35.468L774.04,40.467" style="fill:none;stroke:#000000;stroke-width:0.625" />
<path d="M876.03,35.468L876.03,40.467" style="fill:none;stroke:#000000;stroke-width:0.625" />
<path d="M1080,35.468L1080,40.467" style="fill:none;stroke:#000000;stroke-width:0.625" />
<path d="M60.137,40.467L1080,40.467" style="fill:none;stroke:#000000;stroke-width:0.625" />
<g transform="rotate(90)">
<text x="358.4" y="13.59" transform="scale(1, -1)"
	style="font-family:Helvetica;font-weight:normal;font-style:normal;font-size:12pt">CPU</text>
</g>
<text x="18.555" y="-221.98" transform="scale(1, -1)"
	style="font-family:Helvetica;font-weight:normal;font-style:normal;font-size:10pt">100</text>
<text x="18.555" y="-406.1" transform="scale(1, -1)"
	style="font-family:Helvetica;font-weight:normal;font-style:normal;font-size:10pt">200</text>
<text x="18.555" y="-590.21" transform="scale(1, -1)"
	style="font-family:Helvetica;font-weight:normal;font-style:normal;font-size:10pt">300</text>
<path d="M42.88,227.35L52.88,227.35" style="fill:none;stroke:#000000;stroke-width:0.625" />
<path d="M42.88,411.47L52.88,411.47" style="fill:none;stroke:#000000;stroke-width:0.625" />
<path d="M42.88,595.58L52.88,595.58" style="fill:none;stroke:#000000;stroke-width:0.625" />
<path d="M47.88,135.29L52.88,135.29" style="fill:none;stroke:#000000;stroke-width:0.625" />
<path d="M47.88,319.41L52.88,319.41" style="fill:none;stroke:#000000;stroke-width:0.625" />
<path d="M47.88,503.52L52.88,503.52" style="fill:none;stroke:#000000;stroke-width:0.625" />
<path d="M47.88,687.64L52.88,687.64" style="fill:none;stroke:#000000;stroke-width:0.625" />
<path d="M52.88,47.03L52.88,701.44" style="fill:none;stroke:#000000;stroke-width:0.625" />
<path d="M60.137,48.595L65.237,143.17L70.336,226.21L75.435,297.06L80.535,359.56L85.634,407.29L90.733,410.93L95.833,392.63L100.93,376.37L106.03,375.64L111.13,361.48L116.23,349.03L121.33,337.91L126.43,328.52L131.53,319.39L136.63,310.42L141.73,302.97L146.83,303.98L151.93,302.41L157.02,295.36L162.12,287.85L167.22,280.17L172.32,272.44L177.42,265.06L182.52,258.08L187.62,251.51L192.72,245.27L197.82,239.39L202.92,233.91L208.02,228.66L213.12,223.74L218.22,219.07L223.32,214.65L228.41,210.43L233.51,206.44L238.61,202.62L243.71,198.98L248.81,195.52L253.91,192.19L259.01,189.02L264.11,186L269.21,183.09L274.31,180.27L279.41,177.6L284.51,175.03L289.61,172.58L294.71,170.18L299.81,167.88L304.9,165.67L310,163.56L315.1,161.48L320.2,159.51L325.3,157.57L330.4,155.71L335.5,153.93L340.6,152.2L345.7,150.54L350.8,148.88L355.9,147.3L361,145.77L366.1,144.46L371.2,151.4L376.29,162.91L381.39,175.28L386.49,186.61L391.59,198.24L396.69,209.2L401.79,221.11L406.89,232.41L411.99,241.36L417.09,248.43L422.19,254.08L427.29,257.27L432.39,258.26L437.49,257.09L442.59,255.72L447.69,254.53L452.78,253.35L457.88,253.15L462.98,254.67L468.08,256.55L473.18,255.28L478.28,254.21L483.38,253.29L488.48,251.86L493.58,250.22L498.68,248.41L503.78,246.66L508.88,244.97L513.98,243.15L519.08,241.22L524.17,239.3L529.27,237.44L534.37,235.56L539.47,233.72L544.57,231.9L549.67,230.08L554.77,228.31L559.87,226.56L564.97,224.85L570.07,223.19L575.17,221.51L580.27,219.91L585.37,218.33L590.47,216.76L595.57,215.24L600.66,213.75L605.76,212.25L610.86,210.82L615.96,209.38L621.06,208L626.16,206.6L631.26,205.26L636.36,203.93L641.46,202.83L646.56,201.74L651.66,200.47L656.76,199.22L661.86,197.99L666.96,196.79L672.05,195.57L677.15,194.67L682.25,197.49L687.35,204.1L692.45,211.33L697.55,218.83L702.65,226.27L707.75,233.04L712.85,240.24L717.95,247.24L723.05,254.43L728.15,260.97L733.25,267.47L738.35,274.1L743.45,280.78L748.54,287.8L753.64,294.02L758.74,298.88L763.84,302.75L768.94,306.24L774.04,307.37L779.14,308.71L784.24,309.08L789.34,309.48L794.44,307.97L799.54,306.43L804.64,304.79L809.74,302.87L814.84,301.18L819.94,299.54L825.03,298.01L830.13,296.8L835.23,295.55L840.33,294.39L845.43,293.85L850.53,293.19L855.63,293.21L860.73,294L865.83,294.22L870.93,293.5L876.03,292.14L881.13,290.89L886.23,289.6L891.33,288.35L896.42,287.11L901.52,285.95L906.62,284.72L911.72,283.52L916.82,282.31L921.92,281.04L927.02,279.73L932.12,278.48L937.22,277.25L942.32,276.03L947.42,274.74L952.52,273.47L957.62,272.24L962.72,271.04L967.82,269.83L972.91,268.63L978.01,267.45L983.11,266.71L988.21,267.8L993.31,270.89L998.41,274.83L1003.5,278.85L1008.6,283.23L1013.7,287L1018.8,291.44L1023.9,295.51L1029,298.7L1034.1,302.53L1039.2,306.21L1044.3,310.35L1049.4,314.47L1054.5,319.52L1059.6,323.27L1064.7,327.91L1069.8,331.39L1074.9,335.3L1080,338.96" style="fill:none;stroke:#F15A60;stroke-width:1.875" />
<path d="M60.137,48.853L65.237,73.193L70.336,148.22L75.435,211.96L80.535,268.72L85.634,314.47L90.733,355.61L95.833,390.57L100.93,420.74L106.03,448.21L111.13,473.6L116.23,492.24L121.33,510.45L126.43,527L131.53,543.24L136.63,558.31L141.73,571.06L146.83,582.69L151.93,594.6L157.02,604.62L162.12,612.2L167.22,619.64L172.32,629.38L177.42,636.16L182.52,642.77L187.62,648.59L192.72,656.28L197.82,662.58L202.92,666.56L208.02,670.09L213.12,673.31L218.22,678.52L223.32,683.55L228.41,686.83L233.51,690.82L238.61,695.39L243.71,699.05L248.81,701.44" style="fill:none;stroke:#7AC36A;stroke-width:1.875;stroke-dasharray:7.5,2.5" />
<path d="M60.137,58.684L65.237,157.52L70.336,209.53L75.435,244.69L80.535,287.13L85.634,317.64L90.733,350.28L95.833,370.65L100.93,395.59L106.03,413.53L111.13,432.95L116.23,441.26L121.33,452.32L126.43,470.09L131.53,483.66L136.63,494.65L141.73,507.09L146.83,510.85L151.93,521.99L157.02,529.28L162.12,543.66L167.22,548.78L172.32,553.4L177.42,559.36L182.52,565.57L187.62,569.38L192.72,572.31L197.82,578.03L202.92,583.76L208.02,586.61L213.12,584.02L218.22,586.02" style="fill:none;stroke:#5A9BD4;stroke-width:1.875;stroke-dasharray:2.5,2.5" />
<path d="M60.137,157.22L65.237,220.41L70.336,252.04L75.435,284.85L80.535,314.01L85.634,349.22L90.733,373.52L95.833,400.69L100.93,426.25L106.03,452.6L111.13,472.41L116.23,467.16L121.33,493.91L126.43,507.43L131.53,513.04L136.63,523.63L141.73,519.67L146.83,524.11L151.93,530.51L157.02,540.44L162.12,551.52L167.22,556.27L172.32,559.53L177.42,561.92L182.52,564.94L187.62,567.04L192.72,570.71" style="fill:none;stroke:#FAA75B;stroke-width:1.875;stroke-dasharray:1.25,1.25" />
<path d="M60.137,47.03L65.237,101.23L70.336,141.85L75.435,178.75L80.535,206.77L85.634,229.89L90.733,250.03L95.833,267.95L100.93,281.98L106.03,295.73L111.13,307.96L116.23,318.67L121.33,327.49L126.43,335.67L131.53,344.25L136.63,349.93L141.73,356.93L146.83,361.63L151.93,367.26L157.02,372.16L162.12,377.35L167.22,380.9L172.32,384.62L177.42,388.78L182.52,391.86L187.62,395.3L192.72,399.3L197.82,402.35L202.92,405.98L208.02,409.31L213.12,411.39L218.22,412.98L223.32,414.85L228.41,417.63L233.51,419.46L238.61,421.22L243.71,423.23L248.81,425.07L253.91,426.1L259.01,427.91L264.11,428.9L269.21,429.95L274.31,432.4L279.41,433.49L284.51,435.18L289.61,436.5L294.71,438.16L299.81,438L304.9,438.82L310,438.57L315.1,439.43L320.2,438.38L325.3,438.64L330.4,439.25L335.5,439.49L340.6,439.97L345.7,439.65L350.8,440.81L355.9,441.64L361,442.4L366.1,443.23L371.2,444.48L376.29,444.72L381.39,445.21L386.49,445.82L391.59,446.37L396.69,447.18L401.79,448.09L406.89,448.25L411.99,448.99L417.09,449.85L422.19,449.71L427.29,450.87L432.39,451.69L437.49,452.32L442.59,453.59L447.69,453.31L452.78,453.72L457.88,455.23L462.98,455.32L468.08,455.8L473.18,457.05L478.28,457.05L483.38,457.09L488.48,457.94L493.58,458.51L498.68,458.29L503.78,459.52L508.88,460.31L513.98,460.24L519.08,460.46L524.17,462.08L529.27,461.93L534.37,461.19L539.47,462.69L544.57,463.22L549.67,462.72L554.77,462.12L559.87,463.72L564.97,464.03L570.07,463.22L575.17,463.62L580.27,464.34L585.37,464.77L590.47,463.99L595.57,464.66L600.66,465.47L605.76,465.89L610.86,464.67L615.96,464.69" style="fill:none;stroke:#9E67AB;stroke-width:1.875;stroke-dasharray:6.25,2.5,1.25,2.5" />
<path d="M1055,694.3L1080,694.3" style="fill:none;stroke:#F15A60;stroke-width:1.875" />
<text x="1002.5" y="-687.85" transform="scale(1, -1)"
	style="font-family:Helvetica;font-weight:normal;font-style:normal;font-size:12pt">etcd v2</text>
<path d="M1055,680L1080,680" style="fill:none;stroke:#7AC36A;stroke-width:1.875;stroke-dasharray:7.5,2.5" />
<text x="1002.5" y="-673.56" transform="scale(1, -1)"
	style="font-family:Helvetica;font-weight:normal;font-style:normal;font-size:12pt">etcd v3</text>
<path d="M1055,665.71L1080,665.71" style="fill:none;stroke:#5A9BD4;stroke-width:1.875;stroke-dasharray:2.5,2.5" />
<text x="934.1" y="-659.26" transform="scale(1, -1)"
	style="font-family:Helvetica;font-weight:normal;font-style:normal;font-size:12pt">Zookeeper v3.4.8</text>
<path d="M1055,651.41L1080,651.41" style="fill:none;stroke:#FAA75B;stroke-width:1.875;stroke-dasharray:1.25,1.25" />
<text x="833.22" y="-644.97" transform="scale(1, -1)"
	style="font-family:Helvetica;font-weight:normal;font-style:normal;font-size:12pt">Zookeeper v3.4.8 (No Snapshot)</text>
<path d="M1055,637.12L1080,637.12" style="fill:none;stroke:#9E67AB;stroke-width:1.875;stroke-dasharray:6.25,2.5,1.25,2.5" />
<text x="959.12" y="-630.67" transform="scale(1, -1)"
	style="font-family:Helvetica;font-weight:normal;font-style:normal;font-size:12pt">Consul v0.6.4</text>
</g>
</svg>
