<?xml version="1.0"?>
<!-- Generated by SVGo and Plotinum VG -->
<svg width="12in" height="8in"
	xmlns="http://www.w3.org/2000/svg"
	xmlns:xlink="http://www.w3.org/1999/xlink">
<g transform="scale(1, -1) translate(0, -720)">
<path d="M0,0L1080,0L1080,720L0,720Z" style="fill:#FFFFFF" />
<text x="246.97" y="-706.41" transform="scale(1, -1)"
	style="font-family:Helvetica;font-weight:normal;font-style:normal;font-size:12pt">Write 2M keys, 1K clients(50 etcd conns), key 64 bytes, value 1 kb, Latency(millisecond)</text>
<text x="548.11" y="-4.965" transform="scale(1, -1)"
	style="font-family:Helvetica;font-weight:normal;font-style:normal;font-size:12pt">Second</text>
<text x="63.613" y="-19.142" transform="scale(1, -1)"
	style="font-family:Helvetica;font-weight:normal;font-style:normal;font-size:10pt">0</text>
<text x="366.9" y="-19.142" transform="scale(1, -1)"
	style="font-family:Helvetica;font-weight:normal;font-style:normal;font-size:10pt">200</text>
<text x="677.13" y="-19.142" transform="scale(1, -1)"
	style="font-family:Helvetica;font-weight:normal;font-style:normal;font-size:10pt">400</text>
<text x="987.36" y="-19.142" transform="scale(1, -1)"
	style="font-family:Helvetica;font-weight:normal;font-style:normal;font-size:10pt">600</text>
<path d="M67.088,30.467L67.088,40.467" style="fill:none;stroke:#000000;stroke-width:0.625" />
<path d="M377.32,30.467L377.32,40.467" style="fill:none;stroke:#000000;stroke-width:0.625" />
<path d="M687.55,30.467L687.55,40.467" style="fill:none;stroke:#000000;stroke-width:0.625" />
<path d="M997.79,30.467L997.79,40.467" style="fill:none;stroke:#000000;stroke-width:0.625" />
<path d="M222.2,35.468L222.2,40.467" style="fill:none;stroke:#000000;stroke-width:0.625" />
<path d="M532.44,35.468L532.44,40.467" style="fill:none;stroke:#000000;stroke-width:0.625" />
<path d="M842.67,35.468L842.67,40.467" style="fill:none;stroke:#000000;stroke-width:0.625" />
<path d="M67.088,40.467L1080,40.467" style="fill:none;stroke:#000000;stroke-width:0.625" />
<g transform="rotate(90)">
<text x="305.89" y="13.59" transform="scale(1, -1)"
	style="font-family:Helvetica;font-weight:normal;font-style:normal;font-size:12pt">Latency(millisecond)</text>
</g>
<text x="39.405" y="-41.661" transform="scale(1, -1)"
	style="font-family:Helvetica;font-weight:normal;font-style:normal;font-size:10pt">0</text>
<text x="18.555" y="-183.04" transform="scale(1, -1)"
	style="font-family:Helvetica;font-weight:normal;font-style:normal;font-size:10pt">1000</text>
<text x="18.555" y="-324.42" transform="scale(1, -1)"
	style="font-family:Helvetica;font-weight:normal;font-style:normal;font-size:10pt">2000</text>
<text x="18.555" y="-465.8" transform="scale(1, -1)"
	style="font-family:Helvetica;font-weight:normal;font-style:normal;font-size:10pt">3000</text>
<text x="18.555" y="-607.18" transform="scale(1, -1)"
	style="font-family:Helvetica;font-weight:normal;font-style:normal;font-size:10pt">4000</text>
<path d="M49.83,47.03L59.83,47.03" style="fill:none;stroke:#000000;stroke-width:0.625" />
<path d="M49.83,188.41L59.83,188.41" style="fill:none;stroke:#000000;stroke-width:0.625" />
<path d="M49.83,329.79L59.83,329.79" style="fill:none;stroke:#000000;stroke-width:0.625" />
<path d="M49.83,471.17L59.83,471.17" style="fill:none;stroke:#000000;stroke-width:0.625" />
<path d="M49.83,612.55L59.83,612.55" style="fill:none;stroke:#000000;stroke-width:0.625" />
<path d="M54.83,117.72L59.83,117.72" style="fill:none;stroke:#000000;stroke-width:0.625" />
<path d="M54.83,259.1L59.83,259.1" style="fill:none;stroke:#000000;stroke-width:0.625" />
<path d="M54.83,400.48L59.83,400.48" style="fill:none;stroke:#000000;stroke-width:0.625" />
<path d="M54.83,541.86L59.83,541.86" style="fill:none;stroke:#000000;stroke-width:0.625" />
<path d="M54.83,683.24L59.83,683.24" style="fill:none;stroke:#000000;stroke-width:0.625" />
<path d="M59.83,47.03L59.83,701.44" style="fill:none;stroke:#000000;stroke-width:0.625" />
<path d="M67.088,53.029L68.639,53.023L70.19,53.294L71.741,53.085L73.292,53.29L74.843,53.433L76.395,53.283L77.946,53.185L79.497,53.415L81.048,53.376L82.599,53.459L84.15,53.158L85.702,53.424L87.253,53.517L88.804,53.532L90.355,53.28L91.906,53.682L93.457,53.206L95.009,68.399L96.56,62.904L98.111,61.12L99.662,61.978L101.21,62.381L102.76,63.05L104.32,61.483L105.87,63.166L107.42,62.903L108.97,60.605L110.52,64.057L112.07,62.267L113.62,61.042L115.17,63.075L116.72,61.998L118.28,63.058L119.83,61.498L121.38,63.504L122.93,63.146L124.48,62.132L126.03,62.722L127.58,62.86L129.13,63.069L130.69,62.773L132.24,63.36L133.79,62.156L135.34,63.211L136.89,62.466L138.44,62.249L139.99,63.803L141.54,61.999L143.09,63.189L144.65,61.975L146.2,62.975L147.75,63.663L149.3,62.883L150.85,62.489L152.4,62.846L153.95,62.137L155.5,63.49L157.06,63.313L158.61,62.342L160.16,62.919L161.71,62.316L163.26,62.873L164.81,62.862L166.36,62.796L167.91,62.49L169.46,62.649L171.02,62.214L172.57,63.622L174.12,62.779L175.67,62.094L177.22,62.65L178.77,62.361L180.32,62.86L181.87,62.888L183.43,62.719L184.98,63.812L186.53,62.962L188.08,61.303L189.63,62.872L191.18,62.467L192.73,63.122L194.28,63.123L195.83,62.87L197.39,62.861L198.94,62.888L200.49,62.256L202.04,62.608L203.59,62.24L205.14,62.668L206.69,63.017L208.24,62.696L209.79,64.311L211.35,61.332L212.9,63.325L214.45,62.362L216,62.432L217.55,63.427L219.1,62.542L220.65,62.436L222.2,63.176L223.76,62.443L225.31,62.347L226.86,64.135L228.41,61.482L229.96,63.257L231.51,62.629L233.06,62.586L234.61,62.628L236.16,63.016L237.72,62.876L239.27,63.296L240.82,62.242L242.37,62.746L243.92,62.793L245.47,63.707L247.02,61.733L248.57,63.007L250.13,62.955L251.68,62.638L253.23,62.768L254.78,63.093L256.33,62.504L257.88,61.533L259.43,63.446L260.98,63.199L262.53,63.025L264.09,62.215L265.64,63.436L267.19,62.676L268.74,62.117L270.29,63.023L271.84,62.399L273.39,62.958L274.94,63.389L276.5,62.294L278.05,61.936L279.6,62.884L281.15,64.161L282.7,62.731L284.25,61.939L285.8,63.037L287.35,63.524L288.9,62.085L290.46,63.388L292.01,62.157L293.56,63.594" style="fill:none;stroke:#F15A60;stroke-width:1.875" />
<path d="M67.088,60.265L68.639,49.22L70.19,52.026L71.741,52.956L73.292,53.491L74.843,52.07L76.395,51.684L77.946,52.262L79.497,52.605L81.048,50.757L82.599,55.702L84.15,53.015L85.702,51.964L87.253,51.734L88.804,50.888L90.355,52.702L91.906,52.648L93.457,55.329L95.009,51.38L96.56,51.755L98.111,51.75L99.662,126.61L101.21,54.349L102.76,51.452L104.32,51.041L105.87,56.101L107.42,136L108.97,229.33L110.52,47.03L112.07,47.03L113.62,47.03L115.17,47.03L116.72,47.03L118.28,47.03L119.83,47.03L121.38,47.03L122.93,47.03L124.48,47.03L126.03,47.03L127.58,47.03L129.13,47.03L130.69,47.03L132.24,47.03L133.79,47.03L135.34,47.03L136.89,47.03L138.44,47.03L139.99,47.03L141.54,47.03L143.09,47.03L144.65,47.03L146.2,47.03L147.75,47.03L149.3,47.03L150.85,47.03L152.4,47.03L153.95,47.03L155.5,47.03L157.06,47.03L158.61,47.03L160.16,47.03L161.71,47.03L163.26,47.03L164.81,47.03L166.36,47.03L167.91,47.03L169.46,47.03L171.02,47.03L172.57,47.03L174.12,47.03L175.67,47.03L177.22,47.03L178.77,47.03L180.32,47.03L181.87,47.03L183.43,47.03L184.98,67.152L186.53,65.662L188.08,50.227L189.63,51.467L191.18,51.794L192.73,47.03L194.28,47.03L195.83,47.03L197.39,47.03L198.94,47.03L200.49,64.115L202.04,72.953L203.59,53.035L205.14,51.623L206.69,53.707L208.24,53.405L209.79,53.579L211.35,56.956L212.9,47.03L214.45,381.78L216,501.76L217.55,239.11L219.1,47.03L220.65,47.03L222.2,47.03L223.76,47.03L225.31,47.03L226.86,47.03L228.41,47.03L229.96,47.03L231.51,47.03L233.06,47.03L234.61,47.03L236.16,47.03L237.72,47.03L239.27,47.03L240.82,47.03L242.37,47.03L243.92,47.03L245.47,47.03L247.02,47.03L248.57,47.03L250.13,47.03L251.68,47.03L253.23,47.03L254.78,47.03L256.33,47.03L257.88,47.03L259.43,47.03L260.98,47.03L262.53,47.03L264.09,47.03L265.64,47.03L267.19,47.03L268.74,47.03L270.29,47.03L271.84,47.03L273.39,47.03L274.94,47.03L276.5,47.03L278.05,47.03L279.6,47.03L281.15,47.03L282.7,47.03L284.25,47.03L285.8,47.03L287.35,47.03L288.9,47.03L290.46,47.03L292.01,47.03L293.56,47.03L295.11,81.961L296.66,54.421L298.21,55.107L299.76,54.366L301.31,54.437L302.86,53.623L304.42,55.41L305.97,47.03L307.52,100.09L309.07,102.63L310.62,52.673L312.17,55.415L313.72,53.11L315.27,58.402L316.83,47.03L318.38,69.672L319.93,53.07L321.48,51.18L323.03,189.68L324.58,330.73L326.13,47.03L327.68,47.03L329.23,47.03L330.79,47.03L332.34,47.03L333.89,47.03L335.44,47.03L336.99,47.03L338.54,47.03L340.09,47.03L341.64,47.03L343.2,47.03L344.75,47.03L346.3,47.03L347.85,47.03L349.4,47.03L350.95,47.03L352.5,47.03L354.05,47.03L355.6,47.03L357.16,47.03L358.71,47.03L360.26,47.03L361.81,47.03L363.36,47.03L364.91,47.03L366.46,47.03L368.01,47.03L369.57,47.03L371.12,47.03L372.67,47.03L374.22,47.03L375.77,47.03L377.32,47.03L378.87,47.03L380.42,47.03L381.97,47.03L383.53,47.03L385.08,528.58L386.63,47.03L388.18,47.03L389.73,47.03L391.28,47.03L392.83,47.03L394.38,47.03L395.94,47.03L397.49,47.03L399.04,47.03L400.59,47.03L402.14,47.03L403.69,47.03L405.24,47.03L406.79,47.03L408.34,47.03L409.9,47.03L411.45,47.03L413,47.03L414.55,47.03L416.1,47.03L417.65,47.03L419.2,47.03L420.75,47.03L422.3,47.03L423.86,47.03L425.41,47.03L426.96,47.03L428.51,47.03L430.06,47.03L431.61,47.03L433.16,47.03L434.71,47.03L436.27,47.03L437.82,701.44L439.37,47.03L440.92,47.03L442.47,47.03L444.02,47.03L445.57,47.03L447.12,47.03L448.67,47.03L450.23,47.03L451.78,47.03L453.33,47.03L454.88,47.03L456.43,47.03L457.98,47.03L459.53,47.03L461.08,47.03L462.64,47.03L464.19,47.03L465.74,73.868L467.29,52.31L468.84,51.909L470.39,52.026L471.94,52.016L473.49,51.753L475.04,51.866L476.6,52.863L478.15,54.846L479.7,56.269L481.25,54.353L482.8,54.971L484.35,47.03L485.9,76.519L487.45,51.67L489.01,54.916L490.56,52.714L492.11,47.03L493.66,47.03L495.21,47.03L496.76,47.03L498.31,47.03L499.86,47.03L501.41,47.03L502.97,47.03L504.52,47.03L506.07,47.03L507.62,47.03L509.17,47.03L510.72,47.03L512.27,47.03L513.82,47.03L515.37,47.03L516.93,47.03L518.48,47.03L520.03,47.03L521.58,47.03L523.13,47.03L524.68,47.03L526.23,47.03L527.78,47.03L529.34,47.03L530.89,47.03L532.44,47.03L533.99,47.03L535.54,47.03L537.09,47.03L538.64,47.03L540.19,47.03L541.74,47.03L543.3,47.03L544.85,47.03L546.4,47.03L547.95,47.03L549.5,47.03L551.05,47.03L552.6,47.03L554.15,47.03L555.71,47.03L557.26,47.03L558.81,47.03L560.36,47.03L561.91,47.03L563.46,47.03L565.01,47.03L566.56,47.03L568.11,47.03L569.67,47.03L571.22,47.03L572.77,47.03L574.32,47.03L575.87,47.03L577.42,47.03L578.97,47.03L580.52,47.03L582.08,47.03L583.63,47.03L585.18,47.03L586.73,313.26L588.28,56.646L589.83,52.644L591.38,52.041L592.93,52.009L594.48,47.03L596.04,294.44L597.59,47.03L599.14,47.03L600.69,47.03L602.24,47.03L603.79,47.03L605.34,47.03L606.89,47.03L608.45,47.03L610,47.03L611.55,47.03L613.1,47.03L614.65,47.03L616.2,47.03L617.75,47.03L619.3,47.03L620.85,47.03L622.41,47.03L623.96,47.03L625.51,47.03L627.06,47.03L628.61,47.03L630.16,47.03L631.71,47.03L633.26,47.03L634.81,47.03L636.37,47.03L637.92,47.03L639.47,47.03L641.02,47.03L642.57,47.03L644.12,47.03L645.67,47.03L647.22,47.03L648.78,47.03L650.33,47.03L651.88,47.03L653.43,47.03L654.98,47.03L656.53,47.03L658.08,47.03L659.63,47.03L661.18,47.03L662.74,47.03L664.29,47.03L665.84,47.03L667.39,47.03L668.94,47.03L670.49,47.03L672.04,47.03L673.59,77.501L675.15,52.289L676.7,52.765L678.25,51.752L679.8,51.887L681.35,52.28L682.9,47.03L684.45,86.126L686,50.937L687.55,51.949L689.11,53.703L690.66,254.08L692.21,342.09L693.76,296.8L695.31,47.03L696.86,47.03L698.41,47.03L699.96,47.03L701.52,47.03L703.07,47.03L704.62,47.03L706.17,47.03L707.72,47.03L709.27,47.03L710.82,47.03L712.37,47.03L713.92,47.03L715.48,47.03L717.03,89.008L718.58,47.03L720.13,47.03L721.68,47.03L723.23,47.03L724.78,47.03L726.33,47.03L727.88,47.03L729.44,47.03L730.99,47.03L732.54,47.03L734.09,47.03L735.64,47.03L737.19,47.03L738.74,47.03L740.29,47.03L741.85,47.03L743.4,47.03L744.95,47.03L746.5,47.03L748.05,47.03L749.6,47.03L751.15,47.03L752.7,47.03L754.25,47.03L755.81,47.03L757.36,47.03L758.91,47.03L760.46,47.03L762.01,47.03L763.56,47.03L765.11,47.03L766.66,47.03L768.22,47.03L769.77,47.03L771.32,47.03L772.87,47.03L774.42,47.03L775.97,47.03L777.52,47.03L779.07,47.03L780.62,47.03L782.18,47.03L783.73,47.03L785.28,47.03L786.83,47.03L788.38,47.03L789.93,47.03L791.48,548.67L793.03,47.03L794.59,116.11L796.14,47.03L797.69,47.03L799.24,52.142L800.79,51.068L802.34,52.116L803.89,50.677L805.44,50.501L806.99,47.03L808.55,70.42L810.1,47.03L811.65,83.964L813.2,47.03L814.75,47.03L816.3,392.81L817.85,47.03L819.4,47.03L820.95,47.03L822.51,47.03L824.06,47.03L825.61,47.03L827.16,47.03L828.71,47.03L830.26,47.03L831.81,47.03L833.36,47.03L834.92,47.03L836.47,47.03L838.02,47.03L839.57,47.03L841.12,47.03L842.67,47.03L844.22,47.03L845.77,492.04L847.32,47.03L848.88,687.24L850.43,554.54L851.98,47.03L853.53,47.03L855.08,47.03L856.63,47.03L858.18,47.03L859.73,47.03L861.29,47.03L862.84,47.03L864.39,47.03L865.94,47.03L867.49,47.03L869.04,47.03L870.59,47.03L872.14,47.03L873.69,47.03L875.25,47.03L876.8,47.03L878.35,47.03L879.9,47.03L881.45,47.03L883,47.03L884.55,47.03L886.1,47.03L887.66,47.03L889.21,47.03L890.76,47.03L892.31,47.03L893.86,47.03L895.41,47.03L896.96,47.03L898.51,47.03L900.06,47.03L901.62,47.03L903.17,47.03L904.72,47.03L906.27,47.03L907.82,47.03L909.37,47.03L910.92,47.03L912.47,47.03L914.03,47.03L915.58,47.03L917.13,47.03L918.68,47.03L920.23,47.03L921.78,605.81L923.33,544.74L924.88,47.03L926.43,461.55L927.99,505.26L929.54,47.03L931.09,479.95L932.64,473.12L934.19,47.03L935.74,512.1L937.29,525.99L938.84,47.03L940.39,539.48L941.95,522.74L943.5,47.03L945.05,516.9L946.6,507.32L948.15,47.03L949.7,497.38L951.25,482.64L952.8,47.03L954.36,495L955.91,47.03L957.46,516.47L959.01,353.43L960.56,47.03L962.11,522.75L963.66,533.88L965.21,47.03L966.76,534.77L968.32,47.03L969.87,573.23L971.42,47.03L972.97,701.18L974.52,47.03L976.07,84.563L977.62,47.03L979.17,356.68L980.73,47.03L982.28,339.24L983.83,435.28L985.38,526.63L986.93,630.37L988.48,47.03L990.03,520.24L991.58,537.53L993.13,47.03L994.69,530.66L996.24,462.1L997.79,267.35L999.34,423.36L1000.9,47.03L1002.4,434L1004,47.03L1005.5,579.23L1007.1,578.15L1008.6,47.03L1010.2,551.66L1011.7,47.03L1013.3,47.03L1014.9,639.17L1016.4,47.03L1018,47.03L1019.5,47.03L1021.1,47.03L1022.6,493.49L1024.2,47.03L1025.7,644.47L1027.3,47.03L1028.8,542.37L1030.4,496.58L1031.9,47.03L1033.5,576.92L1035,47.03L1036.6,521.88L1038.1,497.16L1039.7,47.03L1041.2,507.81L1042.8,47.03L1044.3,513.24L1045.9,529.24L1047.4,47.03L1049,415.07L1050.5,47.03L1052.1,95.651L1053.6,47.03L1055.2,55.057L1056.7,49.037L1058.3,102.21L1059.8,49.568L1061.4,78.366L1062.9,49.72L1064.5,181.02L1066,49.81L1067.6,47.03L1069.1,145.5L1070.7,47.03L1072.2,47.03L1073.8,47.03L1075.3,53.508L1076.9,47.03L1078.4,89.213L1080,47.03" style="fill:none;stroke:#7AC36A;stroke-width:1.875;stroke-dasharray:7.5,2.5" />
<path d="M1055,694.3L1080,694.3" style="fill:none;stroke:#F15A60;stroke-width:1.875" />
<text x="1002.5" y="-687.85" transform="scale(1, -1)"
	style="font-family:Helvetica;font-weight:normal;font-style:normal;font-size:12pt">etcd v3</text>
<path d="M1055,680L1080,680" style="fill:none;stroke:#7AC36A;stroke-width:1.875;stroke-dasharray:7.5,2.5" />
<text x="934.1" y="-673.56" transform="scale(1, -1)"
	style="font-family:Helvetica;font-weight:normal;font-style:normal;font-size:12pt">Zookeeper v3.4.8</text>
</g>
</svg>
