<?xml version="1.0"?>
<!-- Generated by SVGo and Plotinum VG -->
<svg width="12in" height="8in"
	xmlns="http://www.w3.org/2000/svg"
	xmlns:xlink="http://www.w3.org/1999/xlink">
<g transform="scale(1, -1) translate(0, -720)">
<path d="M0,0L1080,0L1080,720L0,720Z" style="fill:#FFFFFF" />
<text x="248.08" y="-705.6" transform="scale(1, -1)"
	style="font-family:Helvetica;font-weight:normal;font-style:normal;font-size:12pt">Write 2M keys, 1000-client (etcd v3 100-conn), 8-byte key, 256-byte value, Memory(MB)</text>
<text x="548.46" y="-4.8486" transform="scale(1, -1)"
	style="font-family:Helvetica;font-weight:normal;font-style:normal;font-size:12pt">Second</text>
<text x="64.31" y="-19.498" transform="scale(1, -1)"
	style="font-family:Helvetica;font-weight:normal;font-style:normal;font-size:10pt">0</text>
<text x="336.08" y="-19.498" transform="scale(1, -1)"
	style="font-family:Helvetica;font-weight:normal;font-style:normal;font-size:10pt">600</text>
<text x="611.32" y="-19.498" transform="scale(1, -1)"
	style="font-family:Helvetica;font-weight:normal;font-style:normal;font-size:10pt">1200</text>
<text x="890.04" y="-19.498" transform="scale(1, -1)"
	style="font-family:Helvetica;font-weight:normal;font-style:normal;font-size:10pt">1800</text>
<path d="M67.786,31.498L67.786,41.498" style="fill:none;stroke:#000000;stroke-width:0.625" />
<path d="M346.5,31.498L346.5,41.498" style="fill:none;stroke:#000000;stroke-width:0.625" />
<path d="M625.22,31.498L625.22,41.498" style="fill:none;stroke:#000000;stroke-width:0.625" />
<path d="M903.94,31.498L903.94,41.498" style="fill:none;stroke:#000000;stroke-width:0.625" />
<path d="M160.69,36.498L160.69,41.498" style="fill:none;stroke:#000000;stroke-width:0.625" />
<path d="M253.6,36.498L253.6,41.498" style="fill:none;stroke:#000000;stroke-width:0.625" />
<path d="M439.41,36.498L439.41,41.498" style="fill:none;stroke:#000000;stroke-width:0.625" />
<path d="M532.32,36.498L532.32,41.498" style="fill:none;stroke:#000000;stroke-width:0.625" />
<path d="M718.13,36.498L718.13,41.498" style="fill:none;stroke:#000000;stroke-width:0.625" />
<path d="M811.04,36.498L811.04,41.498" style="fill:none;stroke:#000000;stroke-width:0.625" />
<path d="M996.85,36.498L996.85,41.498" style="fill:none;stroke:#000000;stroke-width:0.625" />
<path d="M67.786,41.498L1080,41.498" style="fill:none;stroke:#000000;stroke-width:0.625" />
<g transform="rotate(90)">
<text x="331.08" y="14.399" transform="scale(1, -1)"
	style="font-family:Helvetica;font-weight:normal;font-style:normal;font-size:12pt">Memory(MB)</text>
</g>
<text x="19.248" y="-169.57" transform="scale(1, -1)"
	style="font-family:Helvetica;font-weight:normal;font-style:normal;font-size:10pt">1000</text>
<text x="19.248" y="-297.8" transform="scale(1, -1)"
	style="font-family:Helvetica;font-weight:normal;font-style:normal;font-size:10pt">2000</text>
<text x="19.248" y="-426.02" transform="scale(1, -1)"
	style="font-family:Helvetica;font-weight:normal;font-style:normal;font-size:10pt">3000</text>
<text x="19.248" y="-554.25" transform="scale(1, -1)"
	style="font-family:Helvetica;font-weight:normal;font-style:normal;font-size:10pt">4000</text>
<text x="19.248" y="-682.48" transform="scale(1, -1)"
	style="font-family:Helvetica;font-weight:normal;font-style:normal;font-size:10pt">5000</text>
<path d="M50.529,175.45L60.529,175.45" style="fill:none;stroke:#000000;stroke-width:0.625" />
<path d="M50.529,303.67L60.529,303.67" style="fill:none;stroke:#000000;stroke-width:0.625" />
<path d="M50.529,431.9L60.529,431.9" style="fill:none;stroke:#000000;stroke-width:0.625" />
<path d="M50.529,560.12L60.529,560.12" style="fill:none;stroke:#000000;stroke-width:0.625" />
<path d="M50.529,688.35L60.529,688.35" style="fill:none;stroke:#000000;stroke-width:0.625" />
<path d="M55.529,111.33L60.529,111.33" style="fill:none;stroke:#000000;stroke-width:0.625" />
<path d="M55.529,239.56L60.529,239.56" style="fill:none;stroke:#000000;stroke-width:0.625" />
<path d="M55.529,367.78L60.529,367.78" style="fill:none;stroke:#000000;stroke-width:0.625" />
<path d="M55.529,496.01L60.529,496.01" style="fill:none;stroke:#000000;stroke-width:0.625" />
<path d="M55.529,624.24L60.529,624.24" style="fill:none;stroke:#000000;stroke-width:0.625" />
<path d="M60.529,48.06L60.529,700.75" style="fill:none;stroke:#000000;stroke-width:0.625" />
<path d="M67.786,54.654L68.25,67.019L68.715,77.263L69.179,86.436L69.644,101.67L70.108,114.06L70.573,139.77L71.037,159.51L71.502,159.86L71.966,190.49L72.431,200.27L72.895,211.37L73.36,221.16L73.825,220.89L74.289,228.28L74.754,261.57L75.218,266.24L75.683,266.24L76.147,267.67L76.612,276.87L77.076,276.9L77.541,277.75L78.005,281.51L78.47,285.15L78.934,285.15L79.399,288.63L79.863,288.63L80.328,293.32L80.793,293.48L81.257,301.5L81.722,307.09L82.186,308.81L82.651,309.21L83.115,309.11L83.58,309.11L84.044,309.11L84.509,309.11L84.973,309.19L85.438,309.19L85.902,309.23L86.367,309.26L86.831,309.26L87.296,309.26L87.761,309.26L88.225,309.21L88.69,309.22L89.154,309.23L89.619,309.23L90.083,309.23L90.548,309.23L91.012,309.24L91.477,309.26L91.941,309.26L92.406,309.35L92.87,309.44L93.335,310.23L93.799,309.18L94.264,309.1L94.728,309.11L95.193,309.62L95.658,311.32L96.122,314.82L96.587,314.75L97.051,316.24L97.516,317.65L97.98,317.65L98.445,318.33L98.909,319L99.374,319L99.838,320.95L100.3,348.75L100.77,348.88L101.23,353.41L101.7,353.21L102.16,352.39L102.63,352.39L103.09,352.39L103.55,352.39L104.02,352.35L104.48,352.31L104.95,352.31L105.41,352.23L105.88,352.19L106.34,352.15L106.81,352.12L107.27,352.1L107.74,352.1L108.2,352.1L108.66,351.97L109.13,351.58L109.59,351.58L110.06,351.51L110.52,351.44L110.99,351.44L111.45,351.44L111.92,351.44L112.38,351.44L112.85,351.44L113.31,351.44L113.77,351.44L114.24,351.44L114.7,351.44L115.17,351.44L115.63,351.44L116.1,351.44L116.56,351.44L117.03,351.44L117.49,351.44L117.96,351.44L118.42,351.44L118.88,351.44L119.35,351.44L119.81,351.44L120.28,351.44L120.74,351.44L121.21,351.44L121.67,350.98L122.14,350.98L122.6,350.98L123.06,350.98L123.53,351.58L123.99,351.55L124.46,351.53L124.92,351.37L125.39,351.48L125.85,351.59L126.32,351.59L126.78,351.59L127.25,351.59L127.71,351.59L128.17,351.97L128.64,351.76L129.1,351.76L129.57,351.76L130.03,351.62L130.5,351.48L130.96,351.48L131.43,351.7L131.89,351.75L132.36,351.56L132.82,351.54L133.28,351.54L133.75,351.47L134.21,351.68L134.68,351.88L135.14,351.91L135.61,351.19L136.07,351.19L136.54,351.19L137,352.47L137.47,352.78L137.93,352.81L138.39,352.93L138.86,353.17L139.32,353.02L139.79,353.05L140.25,353.05L140.72,353.14L141.18,353.14L141.65,352.76L142.11,352.92L142.58,352.9L143.04,352.81L143.5,352.72L143.97,352.72L144.43,352.72L144.9,352.72L145.36,352.72L145.83,352.72L146.29,357L146.76,360.41L147.22,360.47L147.69,360.47L148.15,360.48L148.61,360.48L149.08,360.48L149.54,360.48L150.01,360.88L150.47,360.88L150.94,360.88L151.4,360.89L151.87,360.9L152.33,360.9L152.79,360.9L153.26,360.96L153.72,358.84L154.19,358.28L154.65,360.92L155.12,360.98L155.58,362.23L156.05,362.23L156.51,362.23L156.98,362.23L157.44,362.23L157.9,362.23L158.37,362.23L158.83,362.23L159.3,362.23L159.76,362.23L160.23,362.23L160.69,367.46L161.16,369.49L161.62,369.57L162.09,369.57L162.55,369.57L163.01,369.57L163.48,369.57L163.94,369.61L164.41,369.61L164.87,369.6L165.34,369.58L165.8,369.58L166.27,369.58L166.73,369.58L167.2,369.58L167.66,369.58L168.12,369.58L168.59,369.8L169.05,369.86L169.52,369L169.98,368.62L170.45,368.62L170.91,368.62L171.38,368.62L171.84,368.62L172.31,368.81L172.77,369L173.23,369.29L173.7,369.57L174.16,369.77L174.63,369.63L175.09,369.63L175.56,369.63L176.02,369.63L176.49,369.63L176.95,369.63L177.42,369.63L177.88,369.63L178.34,369.63L178.81,369.63L179.27,369.63L179.74,369.63L180.2,369.63L180.67,369.63L181.13,369.63L181.6,369.63L182.06,369.63L182.52,369.63L182.99,369.63L183.45,369.63L183.92,369.63L184.38,369.63L184.85,369.85L185.31,370.07L185.78,370.07L186.24,370.07L186.71,370.07L187.17,370.07L187.63,370.07L188.1,370.07L188.56,370.07L189.03,370.54L189.49,370.54L189.96,370.54L190.42,370.54L190.89,370.54L191.35,370.54L191.82,370.54L192.28,370.56L192.74,370.56L193.21,370.56L193.67,370.56L194.14,369.88L194.6,369.5L195.07,369.52L195.53,369.52L196,370.35L196.46,370.48L196.93,372.36L197.39,372.36L197.85,377.29L198.32,377.29L198.78,377.29L199.25,377.29L199.71,377.29L200.18,377.29L200.64,377.28L201.11,379.42L201.57,379.42L202.04,389.87L202.5,400.69L202.96,398.51L203.43,398.51L203.89,398.89L204.36,398.85L204.82,399.61L205.29,399.79L205.75,400.29L206.22,400.29L206.68,400.29L207.15,400.29L207.61,400.29L208.07,400.29" style="fill:none;stroke:#F15A60;stroke-width:1.875" />
<path d="M67.786,66.804L68.25,75.983L68.715,85.874L69.179,99.453L69.644,113.94L70.108,139.16L70.573,152.29L71.037,158.66L71.502,169.56L71.966,190.18L72.431,210.61L72.895,215.69L73.36,220.68L73.825,220.68L74.289,222.52L74.754,252.46L75.218,261.68L75.683,266.01L76.147,266.07L76.612,266.07L77.076,274.95L77.541,276.8L78.005,276.8L78.47,277.39L78.934,281.16L79.399,285.1L79.863,285.1L80.328,290.02L80.793,290.02L81.257,295.18L81.722,295.43L82.186,304.21L82.651,310.23L83.115,310.35L83.58,310.35L84.044,310.35L84.509,309.13L84.973,309.13L85.438,309.13L85.902,309.13L86.367,309.13L86.831,309.13L87.296,309.13L87.761,309.13L88.225,309.14L88.69,309.14L89.154,309.15L89.619,309.16L90.083,309.18L90.548,309.17L91.012,309.18L91.477,309.19L91.941,309.17L92.406,309.45L92.87,309.55L93.335,309.72L93.799,309.82L94.264,309.8L94.728,309.83L95.193,309.8L95.658,310.44L96.122,310.65L96.587,315.29L97.051,318.07L97.516,319.7L97.98,319.9L98.445,322.22L98.909,322.41L99.374,325.29L99.838,328.43L100.3,328.53L100.77,329.23L101.23,329.25L101.7,329.63L102.16,329.01L102.63,328.91L103.09,328.91L103.55,328.91L104.02,328.91L104.48,329.64L104.95,336.47L105.41,336.41L105.88,336.44L106.34,336.77L106.81,343.28L107.27,348.15L107.74,354.18L108.2,359.17L108.66,363.3L109.13,363.16L109.59,364.15L110.06,363.74L110.52,361.5L110.99,360.3L111.45,360.36L111.92,360.36L112.38,360.36L112.85,360.36L113.31,360.36L113.77,360.36L114.24,360.36L114.7,360.36L115.17,360.36L115.63,360.36L116.1,360.36L116.56,360.36L117.03,360.36L117.49,360.33L117.96,359.04L118.42,357.8L118.88,357.81L119.35,357.82L119.81,357.82L120.28,373.35L120.74,373.36L121.21,379.35L121.67,379.35L122.14,379.45L122.6,383.3L123.06,384.85L123.53,393.14L123.99,395.64L124.46,362.16L124.92,362.27L125.39,362.54L125.85,362.81L126.32,362.81L126.78,362.81L127.25,362.81L127.71,362.55L128.17,362.55L128.64,362.69L129.1,362.77L129.57,362.63L130.03,363.71L130.5,365.91" style="fill:none;stroke:#7AC36A;stroke-width:1.875;stroke-dasharray:7.5,2.5" />
<path d="M67.786,49.546L68.25,56.455L68.715,58.208L69.179,59.776L69.644,61.471L70.108,63.438L70.573,65.012L71.037,67.262L71.502,68.411L71.966,70.023L72.431,72.128L72.895,73.645L73.36,75.647L73.825,77.382L74.289,78.54L74.754,80.482L75.218,82.366L75.683,83.908L76.147,85.193L76.612,87.097L77.076,89.532L77.541,90.996L78.005,92.659L78.47,93.787L78.934,95.621L79.399,97.553L79.863,99.856L80.328,101.17L80.793,102.16L81.257,104.18L81.722,105.95L82.186,107.47L82.651,109.1L83.115,111.27L83.58,112.05L84.044,114.02L84.509,115.75L84.973,117.43L85.438,118.82L85.902,120.42L86.367,121.69L86.831,123.18L87.296,125.24L87.761,127.24L88.225,129.38L88.69,130.59L89.154,132.1L89.619,133.22L90.083,135.79L90.548,137.24L91.012,138.92L91.477,140.38L91.941,141.49L92.406,143.35L92.87,144.88" style="fill:none;stroke:#5A9BD4;stroke-width:1.875;stroke-dasharray:2.5,2.5" />
<path d="M67.786,49.888L68.25,56.789L68.715,58.186L69.179,59.956L69.644,61.316L70.108,63.273L70.573,64.416L71.037,66.027L71.502,67.369L71.966,68.507L72.431,70.278L72.895,72.037L73.36,73.213L73.825,74.702L74.289,76.653L74.754,78.509L75.218,79.948L75.683,81.014L76.147,82.685L76.612,84.528L77.076,86.099L77.541,88.372L78.005,89.373L78.47,91.299L78.934,92.375L79.399,93.551L79.863,95.755L80.328,97.167L80.793,97.756L81.257,98.822L81.722,101.07L82.186,102.58L82.651,103.87L83.115,106.09L83.58,107.27L84.044,108.54L84.509,109.47L84.973,110.89L85.438,113.05L85.902,114.46L86.367,116.13L86.831,117.25L87.296,118.35L87.761,120.08L88.225,121.32L88.69,122.93L89.154,124.69L89.619,126.16L90.083,127.66L90.548,128.94L91.012,129.84L91.477,132.03L91.941,133.08L92.406,134.35L92.87,136.56L93.335,138.01L93.799,138.61L94.264,140.65L94.728,141.32L95.193,143.35L95.658,145.06" style="fill:none;stroke:#FAA75B;stroke-width:1.875;stroke-dasharray:1.25,1.25" />
<path d="M67.786,50.018L68.25,56.903L68.715,58.888L69.179,60.323L69.644,62.274L70.108,63.359L70.573,64.917L71.037,66.411L71.502,68.128L71.966,69.036L72.431,70.71L72.895,72.268L73.36,73.768L73.825,75.306L74.289,76.788L74.754,78.109L75.218,79.776L75.683,81.111L76.147,82.279L76.612,83.691L77.076,85.536L77.541,86.663L78.005,88.395L78.47,89.545L78.934,90.924L79.399,92.441L79.863,93.725L80.328,95.609L80.793,96.691L81.257,97.989L81.722,99.323L82.186,100.53L82.651,101.92L83.115,103.6L83.58,104.81L84.044,106.55L84.509,107.84L84.973,109.44L85.438,110.88L85.902,111.6L86.367,113.56L86.831,115.02L87.296,116.05L87.761,117.84L88.225,119.08L88.69,120.07L89.154,121.5L89.619,123.29L90.083,125.2L90.548,126.11L91.012,127.81L91.477,129.11L91.941,130.51L92.406,131.74L92.87,133.56L93.335,134.54L93.799,135.91L94.264,137.79L94.728,139.18L95.193,140.3L95.658,142.31L96.122,143.79L96.587,144.89L97.051,145.78" style="fill:none;stroke:#9E67AB;stroke-width:1.875;stroke-dasharray:6.25,2.5,1.25,2.5" />
<path d="M67.786,48.06L68.25,49.752L68.715,50.38L69.179,51.025L69.644,51.462L70.108,53.382L70.573,53.788L71.037,53.855L71.502,53.888L71.966,54.007L72.431,57.081L72.895,57.395L73.36,58.039L73.825,58.152L74.289,58.383L74.754,63.428L75.218,64.124L75.683,64.271L76.147,64.527L76.612,64.539L77.076,65.555L77.541,67.585L78.005,69.138L78.47,69.541L78.934,70.291L79.399,70.623L79.863,70.933L80.328,73.856L80.793,81.123L81.257,81.123L81.722,81.39L82.186,81.462L82.651,84.364L83.115,86.676L83.58,86.676L84.044,86.822L84.509,86.96L84.973,87.038L85.438,87.967L85.902,89.14L86.367,89.15L86.831,89.15L87.296,89.161L87.761,89.161L88.225,89.595L88.69,93.478L89.154,93.62L89.619,93.674L90.083,93.674L90.548,93.674L91.012,93.793L91.477,94.255L91.941,95.526L92.406,97.394L92.87,97.394L93.335,100.73L93.799,100.74L94.264,104.44L94.728,109.06L95.193,109.34L95.658,109.58L96.122,113.28L96.587,117.83L97.051,121.61L97.516,131.79L97.98,131.79L98.445,131.79L98.909,131.8L99.374,132.57L99.838,132.98L100.3,133.03L100.77,133.04L101.23,133.13L101.7,133.13L102.16,133.5L102.63,135.66L103.09,135.68L103.55,135.68L104.02,135.68L104.48,135.69L104.95,135.69L105.41,135.7L105.88,135.7L106.34,135.71L106.81,135.71L107.27,135.77L107.74,135.79L108.2,135.87L108.66,137.22L109.13,137.24L109.59,137.24L110.06,137.26L110.52,137.26L110.99,137.28L111.45,145.88L111.92,145.89L112.38,145.89L112.85,145.98L113.31,145.98L113.77,145.98L114.24,146.16L114.7,146.16L115.17,146.35L115.63,146.35L116.1,146.53L116.56,146.53L117.03,146.53L117.49,146.53L117.96,146.54L118.42,146.9L118.88,146.91L119.35,146.94L119.81,146.94L120.28,146.94L120.74,146.94L121.21,146.94L121.67,146.95L122.14,150.57L122.6,150.62L123.06,161.15L123.53,166.28L123.99,166.28L124.46,166.3L124.92,166.3L125.39,168.41L125.85,178.66L126.32,180.76L126.78,189.19L127.25,193.5L127.71,197.3L128.17,198.27L128.64,198.27L129.1,198.27L129.57,199.18L130.03,199.18L130.5,206.19L130.96,206.19L131.43,206.19L131.89,206.19L132.36,206.19L132.82,206.19L133.28,206.19L133.75,206.19L134.21,206.19L134.68,206.21L135.14,210.45L135.61,210.45L136.07,210.45L136.54,210.45L137,210.45L137.47,210.45L137.93,210.46L138.39,210.46L138.86,210.46L139.32,210.46L139.79,210.46L140.25,210.46L140.72,210.49L141.18,210.93L141.65,210.94L142.11,210.94L142.58,210.94L143.04,210.97L143.5,210.97L143.97,210.97L144.43,210.97L144.9,210.97L145.36,219.15L145.83,226.13L146.29,226.13L146.76,226.13L147.22,226.14L147.69,226.14L148.15,226.14L148.61,228.34L149.08,235.19L149.54,235.19L150.01,235.19L150.47,235.73L150.94,235.74L151.4,235.75L151.87,238.53L152.33,238.54L152.79,238.54L153.26,239.4L153.72,239.82L154.19,239.82L154.65,239.82L155.12,239.82L155.58,239.82L156.05,239.83L156.51,243.13L156.98,247.95L157.44,247.95L157.9,247.95L158.37,248.23L158.83,248.23L159.3,248.23L159.76,248.23L160.23,248.23L160.69,248.24L161.16,248.26L161.62,248.47L162.09,248.88L162.55,248.88L163.01,248.89L163.48,248.89L163.94,248.89L164.41,248.89L164.87,248.9L165.34,248.9L165.8,248.9L166.27,250.73L166.73,250.74L167.2,250.74L167.66,250.74L168.12,250.74L168.59,250.74L169.05,250.74L169.52,250.74L169.98,250.74L170.45,250.74L170.91,250.78L171.38,250.78L171.84,250.78L172.31,250.78L172.77,256.05L173.23,256.05L173.7,256.06L174.16,256.06L174.63,256.4L175.09,261.88L175.56,261.88L176.02,261.89L176.49,261.89L176.95,261.89L177.42,261.89L177.88,261.89L178.34,261.89L178.81,261.92L179.27,261.92L179.74,267.9L180.2,267.91L180.67,267.91L181.13,267.91L181.6,267.91L182.06,273.61L182.52,273.61L182.99,273.63L183.45,273.98L183.92,274.18L184.38,274.18L184.85,275.09L185.31,275.44L185.78,275.44L186.24,275.45L186.71,275.69L187.17,281.57L187.63,281.57L188.1,281.57L188.56,281.59L189.03,282.16L189.49,282.16L189.96,282.75L190.42,282.75L190.89,283.1L191.35,283.1L191.82,283.1L192.28,283.12L192.74,283.12L193.21,283.13L193.67,283.15L194.14,283.42L194.6,283.5L195.07,283.52L195.53,283.78L196,283.78L196.46,283.78L196.93,283.78L197.39,283.78L197.85,284.13L198.32,284.13L198.78,284.13L199.25,284.13L199.71,290.55L200.18,290.55L200.64,296.95L201.11,296.95L201.57,296.95L202.04,296.95L202.5,296.96L202.96,297.43L203.43,303.82L203.89,303.84L204.36,304.28L204.82,304.29L205.29,304.64L205.75,304.64L206.22,305.08L206.68,305.08L207.15,305.08L207.61,305.1L208.07,305.1L208.54,305.27L209,318.69L209.47,326.31L209.93,333.16L210.4,333.18L210.86,333.18L211.33,341.25L211.79,341.25L212.25,348.01L212.72,348.02L213.18,348.63L213.65,348.63L214.11,348.63L214.58,355.05L215.04,359.09L215.51,359.44L215.97,373.82L216.44,380.92L216.9,382.41L217.36,382.41L217.83,382.42L218.29,382.42L218.76,382.68L219.22,382.68L219.69,383.21L220.15,383.21L220.62,383.57L221.08,386.9L221.55,386.9L222.01,390.24L222.47,391.73L222.94,391.83L223.4,391.83L223.87,391.83L224.33,391.83L224.8,391.83L225.26,391.83L225.73,392.18L226.19,392.18L226.66,392.18L227.12,392.18L227.58,392.51L228.05,397.94L228.51,398.81L228.98,399.92L229.44,399.92L229.91,399.92L230.37,399.92L230.84,399.92L231.3,399.92L231.77,400.27L232.23,400.27L232.69,400.27L233.16,400.27L233.62,400.27L234.09,414.75L234.55,414.75L235.02,414.75L235.48,414.75L235.95,414.75L236.41,414.75L236.88,415.1L237.34,415.1L237.8,416.39L238.27,416.43L238.73,423.67L239.2,424.37L239.66,424.37L240.13,424.37L240.59,424.37L241.06,424.37L241.52,424.46L241.98,424.46L242.45,424.46L242.91,424.81L243.38,424.81L243.84,432.56L244.31,432.74L244.77,433.26L245.24,435.4L245.7,435.38L246.17,436.12L246.63,436.12L247.09,436.12L247.56,436.12L248.02,436.12L248.49,436.12L248.95,436.15L249.42,442.37L249.88,442.37L250.35,442.37L250.81,442.4L251.28,442.4L251.74,442.4L252.2,442.44L252.67,443.25L253.13,443.25L253.6,443.25L254.06,443.29L254.53,448.59L254.99,448.59L255.46,448.59L255.92,451.74L256.39,455.55L256.85,455.61L257.31,455.61L257.78,455.61L258.24,455.61L258.71,455.61L259.17,455.62L259.64,455.62L260.1,455.62L260.57,455.62L261.03,455.62L261.5,455.65L261.96,455.65L262.42,455.65L262.89,455.66L263.35,455.66L263.82,464.16L264.28,464.17L264.75,464.17L265.21,464.64L265.68,464.64L266.14,464.64L266.61,464.65L267.07,464.65L267.53,464.65L268,465.19L268.46,465.46L268.93,465.73L269.39,465.73L269.86,465.73L270.32,465.74L270.79,465.74L271.25,465.74L271.72,465.74L272.18,465.75L272.64,465.75L273.11,470.31L273.57,470.31L274.04,470.31L274.5,470.31L274.97,470.31L275.43,470.31L275.9,470.31L276.36,470.31L276.82,471.54L277.29,471.56L277.75,471.56L278.22,471.56L278.68,471.57L279.15,471.57L279.61,471.57L280.08,471.57L280.54,471.58L281.01,471.58L281.47,471.58L281.93,472.13L282.4,472.15L282.86,472.15L283.33,472.15L283.79,472.26L284.26,472.28L284.72,472.54L285.19,472.54L285.65,472.54L286.12,472.55L286.58,485.81L287.04,485.84L287.51,485.84L287.97,485.84L288.44,485.84L288.9,485.85L289.37,485.85L289.83,485.86L290.3,485.86L290.76,485.86L291.23,485.86L291.69,485.86L292.15,485.87L292.62,485.87L293.08,485.87L293.55,486.79L294.01,486.81L294.48,486.81L294.94,486.81L295.41,486.81L295.87,486.82L296.34,486.82L296.8,486.82L297.26,486.82L297.73,486.83L298.19,486.83L298.66,486.83L299.12,486.83L299.59,486.83L300.05,486.84L300.52,486.84L300.98,486.84L301.45,486.84L301.91,486.85L302.37,486.85L302.84,486.85L303.3,486.86L303.77,486.86L304.23,486.86L304.7,486.86L305.16,486.87L305.63,486.87L306.09,486.87L306.55,486.87L307.02,486.88L307.48,486.88L307.95,486.88L308.41,486.88L308.88,486.88L309.34,486.89L309.81,486.89L310.27,486.89L310.74,486.89L311.2,486.91L311.66,486.91L312.13,486.91L312.59,486.91L313.06,486.91L313.52,486.92L313.99,486.92L314.45,486.92L314.92,486.93L315.38,486.93L315.85,486.93L316.31,486.93L316.77,486.93L317.24,486.93L317.7,486.93L318.17,486.93L318.63,486.93L319.1,486.93L319.56,486.93L320.03,486.93L320.49,486.93" style="fill:none;stroke:#CE7058;stroke-width:1.875;stroke-dasharray:12.5,2.5,2.5,2.5,2.5,2.5,2.5,2.5" />
<path d="M67.786,49.359L68.25,53.914L68.715,56.558L69.179,59.047L69.644,59.969L70.108,62.468L70.573,64.903L71.037,64.5L71.502,66.626L71.966,69.511L72.431,72.116L72.895,74.671L73.36,77.241L73.825,79.531L74.289,75.381L74.754,77.747L75.218,80.731L75.683,82.689L76.147,85.137L76.612,88.412L77.076,90.762L77.541,92.922L78.005,95.391L78.47,98.222L78.934,100.97L79.399,103.21L79.863,105.81L80.328,108.5L80.793,96.686L81.257,99.347L81.722,102.44L82.186,104.78L82.651,105.93L83.115,108.77L83.58,111.93L84.044,113.36L84.509,115.83L84.973,118.71L85.438,120.42L85.902,122.89L86.367,126.11L86.831,126.89L87.296,130.39L87.761,131.83L88.225,134.38L88.69,136.08L89.154,139.06L89.619,142.7L90.083,143.54L90.548,147.17L91.012,148.11L91.477,151.34L91.941,152.81L92.406,155.86L92.87,157.58L93.335,160.55L93.799,153.39L94.264,137L94.728,140.71L95.193,141.49L95.658,144.65L96.122,146.9L96.587,149.72L97.051,151.98L97.516,154.21L97.98,157.04L98.445,158.14L98.909,161.11L99.374,163.97L99.838,165.91L100.3,167.89L100.77,170.36L101.23,172.39L101.7,175.01L102.16,177.49L102.63,179.44L103.09,181.63L103.55,185.62L104.02,185.94L104.48,188.55L104.95,192.68L105.41,193.15L105.88,195.76L106.34,200.2L106.81,200.71L107.27,203.53L107.74,207.55L108.2,208.12L108.66,208.79L109.13,215.4L109.59,215.83L110.06,216.5L110.52,220.86L110.99,223.56L111.45,224.1L111.92,224.84L112.38,229.74L112.85,232.59L113.31,233.3L113.77,237.26L114.24,239.72L114.7,241.41L115.17,242.16L115.63,245.55L116.1,249.5L116.56,250.98L117.03,253.82L117.49,255.04L117.96,258.92L118.42,260.49L118.88,263.27L119.35,263.89L119.81,249.05L120.28,215.86L120.74,218.85L121.21,219.45L121.67,221.61L122.14,224.6L122.6,228.87L123.06,229.43L123.53,230.14L123.99,233.31L124.46,237.25L124.92,239.54L125.39,240.26L125.85,240.71L126.32,244.55L126.78,250.38L127.25,250.64L127.71,251.59L128.17,252.55L128.64,257.23L129.1,260.33L129.57,261.94L130.03,262.86L130.5,263.67L130.96,268.84L131.43,271.54L131.89,274.28L132.36,275.14L132.82,277.7L133.28,278.88L133.75,282.28L134.21,286.15L134.68,286.9L135.14,290.27L135.61,290.87L136.07,293.82L136.54,295.73L137,299.01L137.47,300.51L137.93,302.64L138.39,303.55L138.86,307.26L139.32,309.33L139.79,312.47L140.25,315.57L140.72,316.05L141.18,316.94L141.65,320.81L142.11,322.48L142.58,328.86L143.04,329.45L143.5,330.13L143.97,330.96L144.43,331.78L144.9,336.67L145.36,341.99L145.83,343.61L146.29,344.39L146.76,345.48L147.22,347.46L147.69,351.38L148.15,354.27L148.61,358.6L149.08,359.48L149.54,363.87L150.01,364.55L150.47,365.33L150.94,369.45L151.4,371.04L151.87,377.04L152.33,377.51L152.79,378L153.26,382.42L153.72,399.24L154.19,437.85L154.65,438.86L155.12,441.58L155.58,454.81L156.05,522.92L156.51,529.03L156.98,537.77L157.44,540.77L157.9,557.78L158.37,568.33L158.83,568.33L159.3,570.51L159.76,571.47L160.23,572.31L160.69,573.43L161.16,573.43L161.62,573.48L162.09,573.49L162.55,573.55L163.01,573.58L163.48,573.59L163.94,573.59L164.41,573.66L164.87,573.67L165.34,573.72L165.8,574.46L166.27,574.46L166.73,574.46L167.2,574.46L167.66,574.46L168.12,574.46L168.59,574.46L169.05,574.46L169.52,574.47L169.98,576.56L170.45,631.45L170.91,637.87L171.38,639.35L171.84,646.95L172.31,652.74L172.77,659.7L173.23,666.83L173.7,672.79L174.16,673.52L174.63,673.52L175.09,673.52L175.56,673.52L176.02,673.52L176.49,673.52L176.95,673.53L177.42,673.53L177.88,673.53L178.34,673.53L178.81,674.24L179.27,674.24L179.74,674.24L180.2,674.24L180.67,674.24L181.13,674.24L181.6,674.24L182.06,674.24L182.52,674.24L182.99,674.24L183.45,674.24L183.92,674.24L184.38,674.24L184.85,674.24L185.31,674.24L185.78,674.24L186.24,674.24L186.71,674.24L187.17,674.24L187.63,674.24L188.1,674.24L188.56,674.24L189.03,674.24L189.49,674.24L189.96,675.6L190.42,676.34L190.89,676.34L191.35,676.34L191.82,676.34L192.28,676.34L192.74,676.34L193.21,676.34L193.67,676.34L194.14,676.34L194.6,676.34L195.07,677.04L195.53,677.04L196,677.04L196.46,677.04L196.93,677.41L197.39,678.7L197.85,678.7L198.32,678.7L198.78,678.7L199.25,678.7L199.71,678.7L200.18,678.7L200.64,678.7L201.11,678.96L201.57,678.96L202.04,678.96L202.5,678.96L202.96,678.96L203.43,678.96L203.89,678.96L204.36,678.96L204.82,678.97L205.29,678.97L205.75,678.97L206.22,678.97L206.68,678.97L207.15,678.97L207.61,678.97L208.07,678.97L208.54,678.97L209,678.97L209.47,678.97L209.93,679.15L210.4,679.15L210.86,679.15L211.33,679.15L211.79,679.15L212.25,679.15L212.72,679.15L213.18,679.15L213.65,679.15L214.11,679.15L214.58,679.15L215.04,679.15L215.51,679.15L215.97,679.15L216.44,679.51L216.9,679.51L217.36,679.51L217.83,679.51L218.29,679.57L218.76,679.57L219.22,679.57L219.69,679.57L220.15,679.57L220.62,679.57L221.08,679.57L221.55,679.57L222.01,679.57L222.47,679.57L222.94,679.57L223.4,679.57L223.87,679.57L224.33,679.57L224.8,679.57L225.26,679.57L225.73,679.57L226.19,679.57L226.66,679.57L227.12,679.57L227.58,679.57L228.05,679.57L228.51,679.57L228.98,679.57L229.44,680.09L229.91,680.09L230.37,680.09L230.84,680.09L231.3,680.09L231.77,680.13L232.23,680.13L232.69,680.13L233.16,680.13L233.62,680.13L234.09,680.13L234.55,680.13L235.02,680.13L235.48,680.19L235.95,680.19L236.41,680.19L236.88,680.19L237.34,680.19L237.8,680.19L238.27,680.19L238.73,680.19L239.2,680.19L239.66,680.19L240.13,680.19L240.59,680.19L241.06,680.19L241.52,680.19L241.98,680.19L242.45,680.19L242.91,680.19L243.38,680.19L243.84,680.19L244.31,680.19L244.77,680.19L245.24,680.19L245.7,680.19L246.17,680.19L246.63,680.19L247.09,680.19L247.56,680.19L248.02,680.19L248.49,680.19L248.95,680.19L249.42,680.19L249.88,680.19L250.35,680.19L250.81,680.19L251.28,680.19L251.74,680.19L252.2,680.19L252.67,680.19L253.13,680.2L253.6,680.2L254.06,680.2L254.53,680.2L254.99,680.2L255.46,680.8L255.92,680.8L256.39,680.8L256.85,680.8L257.31,680.8L257.78,680.8L258.24,680.8L258.71,680.8L259.17,680.8L259.64,680.8L260.1,680.8L260.57,680.8L261.03,680.8L261.5,680.8L261.96,681.16L262.42,681.16L262.89,681.16L263.35,681.16L263.82,681.16L264.28,681.16L264.75,681.16L265.21,681.16L265.68,681.16L266.14,681.16L266.61,681.16L267.07,681.16L267.53,681.16L268,681.16L268.46,681.16L268.93,681.16L269.39,681.16L269.86,681.16L270.32,681.16L270.79,681.16L271.25,681.16L271.72,681.16L272.18,681.16L272.64,681.7L273.11,681.7L273.57,681.7L274.04,681.7L274.5,681.7L274.97,681.7L275.43,681.7L275.9,681.7L276.36,681.7L276.82,681.7L277.29,681.7L277.75,681.7L278.22,681.7L278.68,681.7L279.15,681.7L279.61,681.7L280.08,681.7L280.54,681.7L281.01,681.7L281.47,681.7L281.93,681.7L282.4,681.7L282.86,681.7L283.33,681.7L283.79,681.7L284.26,681.7L284.72,681.7L285.19,681.7L285.65,681.7L286.12,681.7L286.58,681.7L287.04,681.7L287.51,681.7L287.97,681.7L288.44,681.7L288.9,681.7L289.37,681.7L289.83,681.7L290.3,681.7L290.76,681.7L291.23,681.7L291.69,681.7L292.15,681.7L292.62,681.7L293.08,681.7L293.55,681.72L294.01,681.72L294.48,681.72L294.94,681.72L295.41,681.72L295.87,681.72L296.34,681.72L296.8,681.72L297.26,681.72L297.73,681.81L298.19,681.81L298.66,682.42L299.12,682.42L299.59,682.42L300.05,682.42L300.52,682.42L300.98,682.42L301.45,682.42L301.91,682.42L302.37,682.42L302.84,682.42L303.3,682.42L303.77,682.42L304.23,682.42L304.7,682.42L305.16,682.42L305.63,682.42L306.09,682.42L306.55,682.42L307.02,682.42L307.48,682.42L307.95,682.42L308.41,682.42L308.88,682.42L309.34,682.42L309.81,682.42L310.27,682.42L310.74,682.42L311.2,682.42L311.66,682.42L312.13,682.42L312.59,682.42L313.06,682.42L313.52,682.42L313.99,682.42L314.45,682.42L314.92,682.42L315.38,682.48L315.85,682.48L316.31,682.48L316.77,682.48L317.24,682.48L317.7,682.48L318.17,682.48L318.63,682.48L319.1,682.48L319.56,682.48L320.03,682.48L320.49,682.48L320.96,682.48L321.42,682.48L321.88,682.48L322.35,682.48L322.81,682.48L323.28,682.48L323.74,682.48L324.21,682.48L324.67,682.48L325.14,682.48L325.6,682.48L326.07,682.48L326.53,682.48L326.99,682.48L327.46,682.48L327.92,682.48L328.39,682.48L328.85,682.48L329.32,682.48L329.78,682.48L330.25,682.48L330.71,682.48L331.18,682.48L331.64,682.48L332.1,682.48L332.57,682.48L333.03,682.48L333.5,682.48L333.96,682.48L334.43,682.48L334.89,682.48L335.36,682.48L335.82,682.48L336.28,682.48L336.75,682.48L337.21,682.48L337.68,682.48L338.14,682.48L338.61,682.48L339.07,682.48L339.54,682.48L340,682.48L340.47,682.48L340.93,682.48L341.39,682.48L341.86,682.48L342.32,682.48L342.79,671.78L343.25,662.44L343.72,661.53L344.18,661.53L344.65,661.53L345.11,661.53L345.58,661.53L346.04,661.53L346.5,661.53L346.97,661.53L347.43,661.53L347.9,661.53L348.36,661.53L348.83,661.53L349.29,661.53L349.76,661.53L350.22,661.53L350.69,661.53L351.15,661.54L351.61,661.57L352.08,661.59L352.54,661.59L353.01,661.59L353.47,661.59L353.94,661.59L354.4,661.59L354.87,661.59L355.33,661.59L355.8,661.59L356.26,661.59L356.72,663.22L357.19,663.73L357.65,663.73L358.12,663.73L358.58,663.73L359.05,663.74L359.51,663.74L359.98,663.74L360.44,663.78L360.91,663.78L361.37,663.78L361.83,663.78L362.3,663.78L362.76,663.78L363.23,663.78L363.69,663.78L364.16,663.78L364.62,663.78L365.09,663.78L365.55,663.78L366.01,663.78L366.48,663.78L366.94,663.78L367.41,663.78L367.87,663.78L368.34,663.78L368.8,663.78L369.27,663.78L369.73,663.78L370.2,663.78L370.66,663.78L371.12,663.78L371.59,663.78L372.05,663.78L372.52,663.78L372.98,664.14L373.45,664.5L373.91,664.5L374.38,664.5L374.84,664.5L375.31,664.5L375.77,664.5L376.23,664.5L376.7,664.5L377.16,664.5L377.63,664.5L378.09,664.5L378.56,664.5L379.02,664.5L379.49,664.5L379.95,664.5L380.42,665.16L380.88,665.16L381.34,665.16L381.81,665.16L382.27,665.16L382.74,665.16L383.2,665.16L383.67,665.16L384.13,665.16L384.6,665.16L385.06,665.16L385.53,665.16L385.99,665.16L386.45,665.16L386.92,665.16L387.38,665.16L387.85,665.16L388.31,665.26L388.78,665.26L389.24,665.26L389.71,665.26L390.17,665.3L390.64,665.3L391.1,665.3L391.56,665.3L392.03,665.3L392.49,665.3L392.96,665.3L393.42,665.3L393.89,665.3L394.35,665.3L394.82,665.3L395.28,665.3L395.74,665.3L396.21,665.3L396.67,665.3L397.14,665.3L397.6,665.3L398.07,665.3L398.53,665.3L399,665.3L399.46,665.3L399.93,665.3L400.39,665.3L400.85,665.3L401.32,665.3L401.78,665.3L402.25,665.3L402.71,665.3L403.18,665.3L403.64,665.3L404.11,665.3L404.57,667.36L405.04,669.19L405.5,669.19L405.96,669.19L406.43,669.19L406.89,669.19L407.36,669.19L407.82,669.19L408.29,669.19L408.75,669.19L409.22,669.19L409.68,669.19L410.15,669.19L410.61,669.19L411.07,669.19L411.54,669.19L412,669.19L412.47,668.48L412.93,668.32L413.4,668.17L413.86,668.17L414.33,668.17L414.79,668.17L415.26,668.17L415.72,668.17L416.18,668.17L416.65,668.17L417.11,668.17L417.58,668.17L418.04,668.17L418.51,668.17L418.97,668.17L419.44,668.17L419.9,668.27L420.37,668.27L420.83,668.27L421.29,668.27L421.76,668.27L422.22,668.27L422.69,668.27L423.15,668.27L423.62,668.27L424.08,668.27L424.55,668.27L425.01,668.27L425.47,668.27L425.94,668.27L426.4,668.27L426.87,668.27L427.33,668.27L427.8,668.27L428.26,668.27L428.73,668.27L429.19,668.27L429.66,668.27L430.12,668.27L430.58,668.27L431.05,668.27L431.51,668.27L431.98,668.27L432.44,668.27L432.91,668.27L433.37,668.27L433.84,668.27L434.3,668.27L434.77,668.27L435.23,668.27L435.69,668.27L436.16,668.27L436.62,668.27L437.09,668.27L437.55,668.27L438.02,668.27L438.48,668.27L438.95,668.27L439.41,668.27L439.88,668.27L440.34,668.27L440.8,668.27L441.27,668.27L441.73,668.27L442.2,668.27L442.66,668.27L443.13,668.27L443.59,668.27L444.06,668.27L444.52,668.27L444.99,668.53L445.45,668.53L445.91,668.53L446.38,668.53L446.84,668.53L447.31,668.53L447.77,668.53L448.24,668.53L448.7,668.53L449.17,668.53L449.63,668.53L450.1,668.53L450.56,668.53L451.02,668.53L451.49,668.65L451.95,668.65L452.42,668.65L452.88,669.42L453.35,669.42L453.81,669.42L454.28,669.42L454.74,669.42L455.2,669.42L455.67,669.42L456.13,669.42L456.6,669.42L457.06,669.42L457.53,669.42L457.99,669.42L458.46,669.42L458.92,669.42L459.39,669.42L459.85,669.47L460.31,672.25L460.78,673.7L461.24,673.73L461.71,673.8L462.17,673.83L462.64,673.88L463.1,673.89L463.57,673.89L464.03,673.95L464.5,673.96L464.96,673.97L465.42,674L465.89,674L466.35,674.05L466.82,674.22L467.28,674.23L467.75,674.23L468.21,674.23L468.68,674.23L469.14,674.23L469.61,674.24L470.07,674.25L470.53,674.25L471,674.25L471.46,674.27L471.93,674.27L472.39,674.27L472.86,674.27L473.32,674.27L473.79,674.27L474.25,674.27L474.72,674.27L475.18,674.27L475.64,674.27L476.11,674.27L476.57,674.27L477.04,674.27L477.5,674.27L477.97,674.27L478.43,674.27L478.9,674.27L479.36,674.27L479.83,674.27L480.29,674.27L480.75,674.27L481.22,674.27L481.68,674.27L482.15,674.26L482.61,674.26L483.08,674.26L483.54,674.26L484.01,674.26L484.47,674.26L484.94,674.26L485.4,674.26L485.86,674.26L486.33,674.26L486.79,674.26L487.26,674.26L487.72,674.26L488.19,674.26L488.65,674.26L489.12,674.26L489.58,674.26L490.04,674.26L490.51,674.26L490.97,674.26L491.44,674.26L491.9,674.26L492.37,674.26L492.83,674.26L493.3,674.26L493.76,674.26L494.23,674.26L494.69,674.26L495.15,674.26L495.62,674.26L496.08,674.26L496.55,674.26L497.01,675.01L497.48,675.01L497.94,675.01L498.41,675.01L498.87,675.01L499.34,675.01L499.8,675.01L500.26,675.01L500.73,675.01L501.19,675.01L501.66,675.01L502.12,675.01L502.59,675.06L503.05,675.06L503.52,675.06L503.98,675.06L504.45,675.06L504.91,675.06L505.37,675.06L505.84,675.06L506.3,675.06L506.77,675.06L507.23,675.06L507.7,675.06L508.16,675.06L508.63,675.06L509.09,675.06L509.56,675.06L510.02,675.48L510.48,675.48L510.95,675.48L511.41,675.48L511.88,675.48L512.34,675.48L512.81,675.48L513.27,675.48L513.74,675.48L514.2,675.48L514.67,675.48L515.13,675.48L515.59,675.48L516.06,675.48L516.52,675.48L516.99,675.92L517.45,675.92L517.92,675.92L518.38,675.92L518.85,675.92L519.31,675.92L519.77,675.92L520.24,675.92L520.7,675.92L521.17,675.92L521.63,675.92L522.1,675.92L522.56,675.92L523.03,675.92L523.49,675.92L523.96,675.92L524.42,675.92L524.88,675.92L525.35,676.73L525.81,679.2L526.28,679.39L526.74,679.39L527.21,679.39L527.67,679.39L528.14,679.39L528.6,679.39L529.07,679.41L529.53,679.41L529.99,679.41L530.46,679.41L530.92,679.41L531.39,679.41L531.85,679.41L532.32,679.41L532.78,679.41L533.25,679.41L533.71,679.41L534.18,679.41L534.64,679.41L535.1,679.41L535.57,679.41L536.03,679.41L536.5,679.41L536.96,679.41L537.43,679.41L537.89,679.41L538.36,679.41L538.82,679.41L539.29,679.41L539.75,679.41L540.21,679.41L540.68,679.41L541.14,679.41L541.61,679.41L542.07,679.41L542.54,679.41L543,679.41L543.47,679.41L543.93,679.41L544.4,679.41L544.86,679.41L545.32,679.41L545.79,679.41L546.25,679.41L546.72,679.41L547.18,679.41L547.65,679.41L548.11,679.41L548.58,679.41L549.04,679.41L549.5,679.41L549.97,679.41L550.43,679.41L550.9,679.41L551.36,679.41L551.83,679.41L552.29,679.41L552.76,676.95L553.22,676.95L553.69,676.95L554.15,676.95L554.61,676.95L555.08,676.95L555.54,676.95L556.01,676.95L556.47,676.95L556.94,676.95L557.4,676.95L557.87,676.95L558.33,676.95L558.8,676.95L559.26,676.95L559.72,676.95L560.19,676.95L560.65,676.95L561.12,676.95L561.58,676.95L562.05,676.95L562.51,676.95L562.98,676.95L563.44,676.95L563.91,676.95L564.37,676.95L564.83,676.95L565.3,676.95L565.76,676.95L566.23,676.95L566.69,676.95L567.16,676.95L567.62,676.95L568.09,676.95L568.55,676.95L569.02,676.95L569.48,676.95L569.94,676.95L570.41,676.95L570.87,676.95L571.34,676.95L571.8,676.95L572.27,676.95L572.73,676.95L573.2,676.95L573.66,676.95L574.13,676.95L574.59,676.95L575.05,676.95L575.52,676.95L575.98,676.95L576.45,676.95L576.91,676.95L577.38,676.95L577.84,676.95L578.31,676.95L578.77,676.95L579.23,676.95L579.7,676.95L580.16,676.95L580.63,676.95L581.09,676.95L581.56,676.95L582.02,676.95L582.49,676.95L582.95,676.95L583.42,676.95L583.88,676.95L584.34,676.95L584.81,676.95L585.27,676.95L585.74,676.95L586.2,676.95L586.67,676.95L587.13,676.95L587.6,676.95L588.06,676.95L588.53,676.95L588.99,676.95L589.45,676.95L589.92,676.95L590.38,676.95L590.85,676.95L591.31,676.95L591.78,676.95L592.24,676.95L592.71,676.95L593.17,676.95L593.64,676.95L594.1,676.95L594.56,676.95L595.03,676.95L595.49,677.51L595.96,677.54L596.42,678.01L596.89,678.01L597.35,678.01L597.82,678.01L598.28,678.01L598.75,678.01L599.21,678.01L599.67,678.01L600.14,678.01L600.6,678.01L601.07,678.01L601.53,678.01L602,678.01L602.46,678.01L602.93,678.64L603.39,678.64L603.86,678.64L604.32,678.64L604.78,678.64L605.25,678.64L605.71,678.64L606.18,678.64L606.64,678.64L607.11,678.64L607.57,678.64L608.04,678.64L608.5,678.64L608.96,678.64L609.43,678.64L609.89,678.64L610.36,678.64L610.82,678.64L611.29,678.64L611.75,678.64L612.22,678.64L612.68,678.64L613.15,678.64L613.61,678.64L614.07,678.64L614.54,678.64L615,678.64L615.47,678.64L615.93,678.64L616.4,678.64L616.86,678.64L617.33,678.64L617.79,678.64L618.26,678.64L618.72,678.64L619.18,678.64L619.65,678.64L620.11,678.64L620.58,678.64L621.04,678.64L621.51,678.54L621.97,671.91L622.44,671.64L622.9,671.64L623.37,671.69L623.83,671.69L624.29,671.69L624.76,671.69L625.22,671.69L625.69,671.69L626.15,671.69L626.62,671.69L627.08,671.69L627.55,671.69L628.01,671.69L628.48,671.69L628.94,671.69L629.4,671.7L629.87,671.7L630.33,671.7L630.8,671.7L631.26,671.7L631.73,671.7L632.19,671.7L632.66,671.7L633.12,672.82L633.59,672.82L634.05,672.82L634.51,672.82L634.98,672.82L635.44,672.82L635.91,672.82L636.37,672.82L636.84,672.82L637.3,672.82L637.77,672.82L638.23,672.82L638.69,672.82L639.16,672.82L639.62,672.82L640.09,672.82L640.55,672.82L641.02,672.82L641.48,672.82L641.95,672.82L642.41,672.82L642.88,672.82L643.34,672.82L643.8,672.82L644.27,672.82L644.73,672.82L645.2,672.82L645.66,672.82L646.13,672.82L646.59,672.82L647.06,672.82L647.52,672.82L647.99,672.82L648.45,672.82L648.91,672.82L649.38,672.82L649.84,672.82L650.31,672.82L650.77,672.82L651.24,672.82L651.7,672.82L652.17,672.82L652.63,672.82L653.1,672.82L653.56,672.83L654.02,672.84L654.49,672.86L654.95,672.87L655.42,672.88L655.88,672.89L656.35,672.89L656.81,672.89L657.28,672.89L657.74,672.89L658.21,672.89L658.67,672.89L659.13,672.89L659.6,672.89L660.06,672.89L660.53,672.89L660.99,672.89L661.46,672.89L661.92,672.89L662.39,672.89L662.85,672.89L663.32,672.89L663.78,672.89L664.24,672.89L664.71,672.89L665.17,672.89L665.64,672.89L666.1,672.89L666.57,672.89L667.03,672.89L667.5,672.89L667.96,672.89L668.43,672.89L668.89,672.89L669.35,672.89L669.82,672.89L670.28,672.89L670.75,672.89L671.21,672.89L671.68,672.89L672.14,672.89L672.61,673.48L673.07,673.48L673.53,673.48L674,673.48L674.46,673.48L674.93,673.48L675.39,673.48L675.86,673.48L676.32,673.48L676.79,673.48L677.25,673.48L677.72,673.75L678.18,673.75L678.64,673.75L679.11,673.75L679.57,673.75L680.04,673.75L680.5,673.75L680.97,673.75L681.43,673.75L681.9,673.75L682.36,673.75L682.83,673.75L683.29,673.75L683.75,674.2L684.22,674.2L684.68,674.2L685.15,674.2L685.61,674.2L686.08,674.2L686.54,674.2L687.01,674.2L687.47,674.2L687.94,674.2L688.4,674.2L688.86,674.2L689.33,674.2L689.79,674.2L690.26,674.2L690.72,674.2L691.19,674.2L691.65,674.04L692.12,674.04L692.58,672.09L693.05,672.09L693.51,672.09L693.97,672.09L694.44,672.09L694.9,672.09L695.37,672.09L695.83,672.09L696.3,674.2L696.76,676.21L697.23,676.35L697.69,676.35L698.16,676.35L698.62,676.35L699.08,676.35L699.55,676.35L700.01,676.35L700.48,676.35L700.94,676.35L701.41,676.35L701.87,676.35L702.34,676.35L702.8,676.35L703.26,676.35L703.73,676.64L704.19,676.64L704.66,676.64L705.12,676.64L705.59,676.64L706.05,676.64L706.52,676.64L706.98,676.64L707.45,676.64L707.91,676.64L708.37,676.64L708.84,676.64L709.3,676.64L709.77,676.64L710.23,676.64L710.7,676.64L711.16,676.64L711.63,676.64L712.09,676.64L712.56,676.64L713.02,676.65L713.48,676.65L713.95,676.65L714.41,676.65L714.88,676.65L715.34,676.65L715.81,676.65L716.27,676.65L716.74,676.65L717.2,676.65L717.67,676.65L718.13,677.19L718.59,677.19L719.06,677.19L719.52,677.19L719.99,677.19L720.45,677.19L720.92,677.19L721.38,677.19L721.85,677.19L722.31,677.19L722.78,677.19L723.24,677.19L723.7,677.19L724.17,677.19L724.63,677.19L725.1,677.19L725.56,677.25L726.03,677.25L726.49,677.25L726.96,677.25L727.42,677.25L727.89,677.53L728.35,678.33L728.81,678.33L729.28,678.33L729.74,678.33L730.21,678.35L730.67,678.35L731.14,678.35L731.6,678.35L732.07,678.35L732.53,678.35L732.99,678.35L733.46,678.36L733.92,678.36L734.39,678.36L734.85,678.36L735.32,678.36L735.78,678.4L736.25,678.4L736.71,678.4L737.18,678.4L737.64,678.4L738.1,678.4L738.57,678.4L739.03,678.4L739.5,678.4L739.96,678.4L740.43,678.4L740.89,678.4L741.36,678.4L741.82,678.4L742.29,678.4L742.75,678.4L743.21,678.4L743.68,678.42L744.14,678.42L744.61,678.42L745.07,678.42L745.54,678.42L746,678.42L746.47,678.72L746.93,681.17L747.4,684.18L747.86,684.71L748.32,684.76L748.79,684.8L749.25,684.81L749.72,684.81L750.18,684.84L750.65,684.85L751.11,684.96L751.58,684.97L752.04,684.98L752.51,684.99L752.97,685.18L753.43,685.37L753.9,685.37L754.36,685.37L754.83,685.37L755.29,685.37L755.76,685.37L756.22,685.37L756.69,685.37L757.15,685.68L757.62,685.68L758.08,685.68L758.54,685.68L759.01,685.68L759.47,685.68L759.94,685.68L760.4,685.68L760.87,685.68L761.33,685.54L761.8,685.54L762.26,685.54L762.72,685.54L763.19,685.54L763.65,685.54L764.12,685.54L764.58,685.54L765.05,685.54L765.51,685.54L765.98,685.54L766.44,685.54L766.91,685.54L767.37,685.54L767.83,685.54L768.3,685.54L768.76,685.54L769.23,685.54L769.69,685.54L770.16,685.54L770.62,685.54L771.09,685.54L771.55,685.54L772.02,685.54L772.48,685.54L772.94,685.54L773.41,685.54L773.87,685.54L774.34,685.54L774.8,685.54L775.27,685.54L775.73,685.54L776.2,685.54L776.66,685.54L777.13,685.54L777.59,685.54L778.05,685.54L778.52,685.54L778.98,685.54L779.45,685.54L779.91,685.54L780.38,685.54L780.84,685.54L781.31,685.54L781.77,685.54L782.24,685.54L782.7,685.54L783.16,685.54L783.63,685.54L784.09,685.54L784.56,685.54L785.02,685.54L785.49,685.99L785.95,685.99L786.42,685.99L786.88,685.99L787.35,685.99L787.81,685.99L788.27,685.99L788.74,685.99L789.2,685.99L789.67,685.99L790.13,685.99L790.6,685.99L791.06,685.99L791.53,685.99L791.99,685.99L792.45,685.99L792.92,685.99L793.38,686.23L793.85,686.23L794.31,686.23L794.78,686.23L795.24,686.23L795.71,686.23L796.17,686.23L796.64,686.23L797.1,686.23L797.56,686.26L798.03,686.26L798.49,686.26L798.96,686.26L799.42,686.26L799.89,686.26L800.35,686.45L800.82,686.45L801.28,686.45L801.75,686.48L802.21,686.48L802.67,686.48L803.14,686.48L803.6,686.48L804.07,686.48L804.53,686.48L805,686.48L805.46,686.48L805.93,686.48L806.39,686.49L806.86,686.77L807.32,686.77L807.78,686.77L808.25,686.77L808.71,686.77L809.18,686.77L809.64,686.77L810.11,686.77L810.57,686.77L811.04,686.77L811.5,686.77L811.97,686.77L812.43,686.77L812.89,686.77L813.36,686.77L813.82,686.77L814.29,686.86L814.75,686.86L815.22,686.86L815.68,686.86L816.15,686.86L816.61,686.86L817.08,686.86L817.54,687.04L818,687.04L818.47,687.04L818.93,687.04L819.4,687.04L819.86,687.04L820.33,687.04L820.79,687.04L821.26,687.04L821.72,687.04L822.18,687.04L822.65,687.04L823.11,687.04L823.58,687.04L824.04,687.04L824.51,687.04L824.97,687.04L825.44,687.04L825.9,687.04L826.37,687.04L826.83,687.12L827.29,687.12L827.76,687.12L828.22,687.12L828.69,687.12L829.15,687.12L829.62,687.14L830.08,687.85L830.55,687.85L831.01,687.85L831.48,687.94L831.94,687.94L832.4,687.94L832.87,687.94L833.33,687.94L833.8,687.94L834.26,687.94L834.73,687.94L835.19,687.94L835.66,687.94L836.12,687.94L836.59,687.94L837.05,687.94L837.51,687.94L837.98,687.94L838.44,687.94L838.91,687.94L839.37,687.94L839.84,687.94L840.3,687.94L840.77,687.94L841.23,687.94L841.7,687.94L842.16,687.94L842.62,687.94L843.09,687.94L843.55,687.94L844.02,687.94L844.48,688.03L844.95,688.03L845.41,688.03L845.88,688.03L846.34,688.03L846.81,688.03L847.27,688.03L847.73,688.03L848.2,688.03L848.66,688.03L849.13,688.49L849.59,688.49L850.06,688.49L850.52,688.49L850.99,688.49L851.45,688.49L851.91,688.49L852.38,688.49L852.84,688.49L853.31,688.49L853.77,688.49L854.24,688.49L854.7,688.49L855.17,688.49L855.63,688.49L856.1,688.49L856.56,688.49L857.02,688.49L857.49,688.49L857.95,688.49L858.42,688.49L858.88,688.49L859.35,688.49L859.81,688.49L860.28,688.49L860.74,688.49L861.21,688.49L861.67,688.49L862.13,688.49L862.6,688.49L863.06,688.49L863.53,688.49L863.99,688.49L864.46,688.49L864.92,688.49L865.39,688.49L865.85,688.49L866.32,688.49L866.78,688.49L867.24,688.49L867.71,688.49L868.17,688.49L868.64,688.49L869.1,688.49L869.57,688.49L870.03,688.49L870.5,688.49L870.96,688.49L871.43,688.52L871.89,688.52L872.35,688.52L872.82,688.52L873.28,688.52L873.75,688.52L874.21,688.52L874.68,688.52L875.14,688.52L875.61,688.52L876.07,688.52L876.54,688.52L877,688.52L877.46,688.52L877.93,688.52L878.39,688.52L878.86,688.52L879.32,688.52L879.79,688.52L880.25,688.52L880.72,688.52L881.18,688.52L881.65,688.52L882.11,688.52L882.57,688.52L883.04,688.52L883.5,688.95L883.97,688.95L884.43,688.95L884.9,688.95L885.36,688.95L885.83,688.95L886.29,688.95L886.75,688.95L887.22,688.95L887.68,688.95L888.15,688.95L888.61,688.95L889.08,688.95L889.54,688.95L890.01,688.95L890.47,688.95L890.94,688.95L891.4,688.95L891.86,688.95L892.33,688.95L892.79,688.95L893.26,688.95L893.72,688.95L894.19,688.95L894.65,688.95L895.12,688.95L895.58,688.95L896.05,688.95L896.51,688.95L896.97,688.95L897.44,689.09L897.9,689.09L898.37,689.09L898.83,689.09L899.3,689.09L899.76,689.09L900.23,687.86L900.69,685.69L901.16,684.89L901.62,684.89L902.08,684.89L902.55,684.89L903.01,684.89L903.48,684.89L903.94,684.89L904.41,684.89L904.87,684.89L905.34,684.89L905.8,684.98L906.27,684.98L906.73,684.98L907.19,684.98L907.66,684.98L908.12,684.98L908.59,684.98L909.05,684.98L909.52,684.98L909.98,684.98L910.45,684.98L910.91,684.98L911.38,684.98L911.84,684.98L912.3,684.98L912.77,684.98L913.23,684.98L913.7,684.98L914.16,684.98L914.63,684.98L915.09,684.98L915.56,684.98L916.02,684.98L916.48,684.98L916.95,684.98L917.41,684.98L917.88,684.98L918.34,684.98L918.81,684.98L919.27,684.98L919.74,684.98L920.2,684.98L920.67,684.98L921.13,684.98L921.59,684.98L922.06,684.98L922.52,684.98L922.99,684.98L923.45,684.98L923.92,684.99L924.38,684.99L924.85,685.12L925.31,685.12L925.78,685.12L926.24,685.12L926.7,685.12L927.17,685.12L927.63,685.12L928.1,685.12L928.56,685.12L929.03,685.12L929.49,685.12L929.96,685.12L930.42,685.12L930.89,685.12L931.35,685.12L931.81,685.18L932.28,685.18L932.74,685.18L933.21,685.18L933.67,685.18L934.14,685.18L934.6,685.18L935.07,685.18L935.53,685.18L936,685.18L936.46,685.18L936.92,685.18L937.39,685.18L937.85,685.18L938.32,685.18L938.78,685.18L939.25,685.18L939.71,685.18L940.18,685.18L940.64,685.18L941.11,685.18L941.57,685.18L942.03,685.18L942.5,685.18L942.96,685.18L943.43,685.18L943.89,685.18L944.36,685.18L944.82,685.18L945.29,685.18L945.75,685.18L946.21,685.18L946.68,686.35L947.14,686.35L947.61,686.35L948.07,686.35L948.54,686.35L949,686.35L949.47,686.35L949.93,686.35L950.4,686.35L950.86,686.35L951.32,686.35L951.79,686.35L952.25,686.35L952.72,686.35L953.18,686.35L953.65,686.35L954.11,686.35L954.58,686.35L955.04,686.8L955.51,686.8L955.97,686.8L956.43,686.8L956.9,686.8L957.36,686.8L957.83,686.8L958.29,686.8L958.76,686.8L959.22,687.92L959.69,687.92L960.15,687.92L960.62,687.92L961.08,687.92L961.54,687.92L962.01,687.92L962.47,687.92L962.94,687.92L963.4,687.92L963.87,687.92L964.33,687.92L964.8,687.92L965.26,687.92L965.73,687.92L966.19,687.92L966.65,687.92L967.12,687.92L967.58,687.92L968.05,687.92L968.51,687.92L968.98,687.92L969.44,687.92L969.91,687.89L970.37,686.81L970.84,689.23L971.3,692.41L971.76,692.72L972.23,692.74L972.69,692.74L973.16,692.74L973.62,692.74L974.09,692.74L974.55,692.74L975.02,692.74L975.48,692.74L975.94,692.74L976.41,692.74L976.87,695.31L977.34,695.31L977.8,695.31L978.27,695.31L978.73,695.31L979.2,695.31L979.66,695.31L980.13,695.31L980.59,695.31L981.05,695.31L981.52,695.31L981.98,696.82L982.45,696.82L982.91,696.82L983.38,696.82L983.84,696.82L984.31,696.82L984.77,696.82L985.24,696.82L985.7,696.82L986.16,696.82L986.63,696.82L987.09,696.82L987.56,696.82L988.02,696.82L988.49,696.82L988.95,697.11L989.42,697.11L989.88,697.11L990.35,697.11L990.81,697.11L991.27,697.11L991.74,697.11L992.2,697.11L992.67,697.11L993.13,697.11L993.6,697.11L994.06,697.11L994.53,697.11L994.99,697.11L995.46,697.11L995.92,697.11L996.38,697.11L996.85,697.11L997.31,697.11L997.78,697.11L998.24,697.11L998.71,697.11L999.17,697.11L999.64,697.11L1000.1,697.11L1000.6,697.11L1001,697.11L1001.5,697.11L1002,697.11L1002.4,697.11L1002.9,697.11L1003.4,697.11L1003.8,697.11L1004.3,697.11L1004.7,697.11L1005.2,697.11L1005.7,697.11L1006.1,697.11L1006.6,697.11L1007.1,697.11L1007.5,697.11L1008,697.11L1008.5,697.11L1008.9,697.11L1009.4,697.11L1009.9,697.11L1010.3,697.11L1010.8,697.11L1011.2,697.11L1011.7,697.11L1012.2,697.11L1012.6,697.11L1013.1,697.11L1013.6,697.11L1014,697.11L1014.5,697.11L1015,697.11L1015.4,697.11L1015.9,697.11L1016.4,697.11L1016.8,697.11L1017.3,697.11L1017.8,697.11L1018.2,697.11L1018.7,697.11L1019.1,697.11L1019.6,697.11L1020.1,697.11L1020.5,697.11L1021,697.11L1021.5,697.11L1021.9,697.11L1022.4,697.11L1022.9,697.11L1023.3,697.11L1023.8,697.11L1024.3,697.11L1024.7,697.11L1025.2,697.11L1025.6,697.11L1026.1,697.11L1026.6,697.11L1027,697.11L1027.5,697.11L1028,697.11L1028.4,697.11L1028.9,697.11L1029.4,697.11L1029.8,697.11L1030.3,697.11L1030.8,697.11L1031.2,697.11L1031.7,697.11L1032.2,697.16L1032.6,699.61L1033.1,700.11L1033.5,700.11L1034,700.11L1034.5,700.11L1034.9,700.11L1035.4,700.11L1035.9,700.11L1036.3,700.18L1036.8,700.18L1037.3,700.18L1037.7,700.18L1038.2,700.18L1038.7,700.18L1039.1,700.18L1039.6,700.18L1040.1,700.18L1040.5,700.62L1041,700.62L1041.4,700.62L1041.9,700.62L1042.4,700.62L1042.8,700.62L1043.3,700.62L1043.8,700.62L1044.2,700.62L1044.7,700.62L1045.2,700.62L1045.6,700.62L1046.1,700.62L1046.6,700.62L1047,700.62L1047.5,700.62L1047.9,700.62L1048.4,700.62L1048.9,700.62L1049.3,700.62L1049.8,700.62L1050.3,700.62L1050.7,700.62L1051.2,700.62L1051.7,700.62L1052.1,700.62L1052.6,700.62L1053.1,700.62L1053.5,700.62L1054,700.62L1054.5,700.62L1054.9,700.62L1055.4,700.62L1055.8,700.62L1056.3,700.62L1056.8,700.62L1057.2,700.62L1057.7,700.62L1058.2,700.62L1058.6,700.62L1059.1,700.62L1059.6,700.62L1060,700.62L1060.5,700.62L1061,700.62L1061.4,700.62L1061.9,700.62L1062.3,700.62L1062.8,700.62L1063.3,700.62L1063.7,700.62L1064.2,700.62L1064.7,700.62L1065.1,700.62L1065.6,700.62L1066.1,700.62L1066.5,700.62L1067,700.62L1067.5,700.62L1067.9,700.62L1068.4,700.62L1068.9,700.62L1069.3,700.62L1069.8,700.62L1070.2,700.62L1070.7,700.62L1071.2,700.62L1071.6,700.62L1072.1,700.62L1072.6,700.62L1073,700.62L1073.5,700.62L1074,700.62L1074.4,700.62L1074.9,700.62L1075.4,700.62L1075.8,700.62L1076.3,700.75L1076.7,700.75L1077.2,700.75L1077.7,700.75L1078.1,700.75L1078.6,700.75L1079.1,700.75L1079.5,700.75L1080,700.75" style="fill:none;stroke:#D77FB4;stroke-width:1.875;stroke-dasharray:12.5,2.5,2.5,2.5" />
<path d="M1055,693.4L1080,693.4" style="fill:none;stroke:#F15A60;stroke-width:1.875" />
<text x="804.02" y="-686.35" transform="scale(1, -1)"
	style="font-family:Helvetica;font-weight:normal;font-style:normal;font-size:12pt">Zookeeper v3.4.8 (Java 8, Snap 10k)</text>
<path d="M1055,678.7L1080,678.7" style="fill:none;stroke:#7AC36A;stroke-width:1.875;stroke-dasharray:7.5,2.5" />
<text x="795.68" y="-671.65" transform="scale(1, -1)"
	style="font-family:Helvetica;font-weight:normal;font-style:normal;font-size:12pt">Zookeeper v3.4.8 (Java 8, Snap 100k)</text>
<path d="M1055,664L1080,664" style="fill:none;stroke:#5A9BD4;stroke-width:1.875;stroke-dasharray:2.5,2.5" />
<text x="944.13" y="-656.95" transform="scale(1, -1)"
	style="font-family:Helvetica;font-weight:normal;font-style:normal;font-size:12pt">etcd v3 (Go Tip)</text>
<path d="M1055,649.3L1080,649.3" style="fill:none;stroke:#FAA75B;stroke-width:1.875;stroke-dasharray:1.25,1.25" />
<text x="943.28" y="-642.25" transform="scale(1, -1)"
	style="font-family:Helvetica;font-weight:normal;font-style:normal;font-size:12pt">etcd v3 (Go 1.6)</text>
<path d="M1055,634.6L1080,634.6" style="fill:none;stroke:#9E67AB;stroke-width:1.875;stroke-dasharray:6.25,2.5,1.25,2.5" />
<text x="943.28" y="-627.55" transform="scale(1, -1)"
	style="font-family:Helvetica;font-weight:normal;font-style:normal;font-size:12pt">etcd v3 (Go 1.5)</text>
<path d="M1055,619.9L1080,619.9" style="fill:none;stroke:#CE7058;stroke-width:1.875;stroke-dasharray:12.5,2.5,2.5,2.5,2.5,2.5,2.5,2.5" />
<text x="943.28" y="-612.85" transform="scale(1, -1)"
	style="font-family:Helvetica;font-weight:normal;font-style:normal;font-size:12pt">etcd v2 (Go 1.4)</text>
<path d="M1055,605.2L1080,605.2" style="fill:none;stroke:#D77FB4;stroke-width:1.875;stroke-dasharray:12.5,2.5,2.5,2.5" />
<text x="959.11" y="-598.15" transform="scale(1, -1)"
	style="font-family:Helvetica;font-weight:normal;font-style:normal;font-size:12pt">Consul v0.6.4</text>
</g>
</svg>
