<?xml version="1.0"?>
<!-- Generated by SVGo and Plotinum VG -->
<svg width="12in" height="8in"
	xmlns="http://www.w3.org/2000/svg"
	xmlns:xlink="http://www.w3.org/1999/xlink">
<g transform="scale(1, -1) translate(0, -720)">
<path d="M0,0L1080,0L1080,720L0,720Z" style="fill:#FFFFFF" />
<text x="223.05" y="-705.6" transform="scale(1, -1)"
	style="font-family:Helvetica;font-weight:normal;font-style:normal;font-size:12pt">Write 2M keys, 1000-client (etcd v3 100-conn), 8-byte key, 256-byte value, Latency(millisecond)</text>
<text x="552.11" y="-4.8486" transform="scale(1, -1)"
	style="font-family:Helvetica;font-weight:normal;font-style:normal;font-size:12pt">Second</text>
<text x="71.609" y="-19.498" transform="scale(1, -1)"
	style="font-family:Helvetica;font-weight:normal;font-style:normal;font-size:10pt">0</text>
<text x="341.24" y="-19.498" transform="scale(1, -1)"
	style="font-family:Helvetica;font-weight:normal;font-style:normal;font-size:10pt">600</text>
<text x="614.35" y="-19.498" transform="scale(1, -1)"
	style="font-family:Helvetica;font-weight:normal;font-style:normal;font-size:10pt">1200</text>
<text x="890.93" y="-19.498" transform="scale(1, -1)"
	style="font-family:Helvetica;font-weight:normal;font-style:normal;font-size:10pt">1800</text>
<path d="M75.085,31.498L75.085,41.498" style="fill:none;stroke:#000000;stroke-width:0.625" />
<path d="M351.67,31.498L351.67,41.498" style="fill:none;stroke:#000000;stroke-width:0.625" />
<path d="M628.25,31.498L628.25,41.498" style="fill:none;stroke:#000000;stroke-width:0.625" />
<path d="M904.83,31.498L904.83,41.498" style="fill:none;stroke:#000000;stroke-width:0.625" />
<path d="M167.28,36.498L167.28,41.498" style="fill:none;stroke:#000000;stroke-width:0.625" />
<path d="M259.47,36.498L259.47,41.498" style="fill:none;stroke:#000000;stroke-width:0.625" />
<path d="M443.86,36.498L443.86,41.498" style="fill:none;stroke:#000000;stroke-width:0.625" />
<path d="M536.06,36.498L536.06,41.498" style="fill:none;stroke:#000000;stroke-width:0.625" />
<path d="M720.44,36.498L720.44,41.498" style="fill:none;stroke:#000000;stroke-width:0.625" />
<path d="M812.64,36.498L812.64,41.498" style="fill:none;stroke:#000000;stroke-width:0.625" />
<path d="M997.03,36.498L997.03,41.498" style="fill:none;stroke:#000000;stroke-width:0.625" />
<path d="M75.085,41.498L1080,41.498" style="fill:none;stroke:#000000;stroke-width:0.625" />
<g transform="rotate(90)">
<text x="306.05" y="14.399" transform="scale(1, -1)"
	style="font-family:Helvetica;font-weight:normal;font-style:normal;font-size:12pt">Latency(millisecond)</text>
</g>
<text x="47.404" y="-42.186" transform="scale(1, -1)"
	style="font-family:Helvetica;font-weight:normal;font-style:normal;font-size:10pt">0</text>
<text x="19.248" y="-237.07" transform="scale(1, -1)"
	style="font-family:Helvetica;font-weight:normal;font-style:normal;font-size:10pt">1e+04</text>
<text x="19.248" y="-431.96" transform="scale(1, -1)"
	style="font-family:Helvetica;font-weight:normal;font-style:normal;font-size:10pt">2e+04</text>
<text x="19.248" y="-626.85" transform="scale(1, -1)"
	style="font-family:Helvetica;font-weight:normal;font-style:normal;font-size:10pt">3e+04</text>
<path d="M57.828,48.06L67.828,48.06" style="fill:none;stroke:#000000;stroke-width:0.625" />
<path d="M57.828,242.95L67.828,242.95" style="fill:none;stroke:#000000;stroke-width:0.625" />
<path d="M57.828,437.83L67.828,437.83" style="fill:none;stroke:#000000;stroke-width:0.625" />
<path d="M57.828,632.72L67.828,632.72" style="fill:none;stroke:#000000;stroke-width:0.625" />
<path d="M62.828,145.5L67.828,145.5" style="fill:none;stroke:#000000;stroke-width:0.625" />
<path d="M62.828,340.39L67.828,340.39" style="fill:none;stroke:#000000;stroke-width:0.625" />
<path d="M62.828,535.28L67.828,535.28" style="fill:none;stroke:#000000;stroke-width:0.625" />
<path d="M67.828,48.06L67.828,700.75" style="fill:none;stroke:#000000;stroke-width:0.625" />
<path d="M75.085,48.342L75.546,48.494L76.007,49.588L76.468,48.615L76.929,48.529L77.39,48.572L77.851,48.545L78.312,48.54L78.773,48.512L79.234,48.512L79.695,48.604L80.156,48.962L80.617,48.812L81.078,48.503L81.539,48.477L82,48.584L82.461,48.821L82.922,48.457L83.383,48.551L83.844,49.046L84.305,48.481L84.766,48.517L85.227,48.497L85.688,48.599L86.149,48.528L86.61,48.499L87.071,48.471L87.532,48.06L87.993,55.388L88.454,48.06L88.915,49.333L89.376,60.351L89.836,64.905L90.297,60.489L90.758,60.131L91.219,61.152L91.68,87.991L92.141,48.06L92.602,48.06L93.063,48.06L93.524,48.06L93.985,48.06L94.446,48.06L94.907,48.06L95.368,48.06L95.829,48.06L96.29,48.06L96.751,48.06L97.212,48.06L97.673,48.06L98.134,48.06L98.595,48.06L99.056,48.06L99.517,48.06L99.978,49.828L100.44,48.53L100.9,48.377L101.36,48.374L101.82,48.375L102.28,48.378L102.74,48.453L103.2,48.358L103.67,49.183L104.13,48.589L104.59,59.536L105.05,48.06L105.51,50.677L105.97,48.377L106.43,48.391L106.89,48.43L107.35,48.335L107.81,48.537L108.28,48.369L108.74,48.06L109.2,58.325L109.66,49.018L110.12,48.06L110.58,48.06L111.04,48.06L111.5,48.06L111.96,48.06L112.42,48.06L112.88,48.06L113.35,48.06L113.81,48.06L114.27,48.06L114.73,48.06L115.19,48.06L115.65,48.06L116.11,48.06L116.57,48.06L117.03,48.06L117.49,48.06L117.96,48.06L118.42,48.06L118.88,48.06L119.34,48.06L119.8,48.06L120.26,48.06L120.72,48.06L121.18,48.06L121.64,48.06L122.1,48.06L122.57,48.06L123.03,48.06L123.49,48.06L123.95,48.06L124.41,48.06L124.87,48.06L125.33,48.06L125.79,48.06L126.25,48.06L126.71,48.06L127.18,48.06L127.64,48.06L128.1,48.06L128.56,48.06L129.02,48.06L129.48,48.06L129.94,48.06L130.4,48.06L130.86,48.06L131.32,48.06L131.78,48.06L132.25,48.06L132.71,48.06L133.17,48.06L133.63,48.06L134.09,48.06L134.55,48.06L135.01,48.06L135.47,48.06L135.93,48.06L136.39,48.06L136.86,48.06L137.32,48.06L137.78,48.06L138.24,48.06L138.7,48.06L139.16,48.06L139.62,48.06L140.08,48.06L140.54,48.06L141,55.195L141.47,48.395L141.93,49.443L142.39,48.06L142.85,76.268L143.31,50.502L143.77,49.646L144.23,48.06L144.69,81.083L145.15,48.06L145.61,48.06L146.07,48.06L146.54,48.06L147,48.06L147.46,48.06L147.92,48.06L148.38,48.06L148.84,48.06L149.3,48.06L149.76,48.06L150.22,48.06L150.68,48.06L151.15,48.06L151.61,48.06L152.07,48.06L152.53,48.06L152.99,48.06L153.45,48.06L153.91,48.06L154.37,48.06L154.83,48.06L155.29,48.06L155.76,48.06L156.22,48.06L156.68,48.06L157.14,48.06L157.6,48.06L158.06,48.06L158.52,48.06L158.98,48.06L159.44,51.283L159.9,49.113L160.36,48.632L160.83,48.58L161.29,48.673L161.75,48.595L162.21,48.918L162.67,59.033L163.13,48.06L163.59,48.06L164.05,48.06L164.51,48.06L164.97,48.06L165.44,48.06L165.9,48.06L166.36,48.06L166.82,48.06L167.28,48.06L167.74,48.06L168.2,48.06L168.66,48.06L169.12,48.06L169.58,48.06L170.05,48.06L170.51,48.06L170.97,48.06L171.43,48.06L171.89,48.06L172.35,48.06L172.81,48.06L173.27,48.06L173.73,48.06L174.19,48.06L174.65,48.06L175.12,48.06L175.58,48.06L176.04,48.06L176.5,48.06L176.96,48.06L177.42,48.06L177.88,48.06L178.34,48.06L178.8,48.06L179.26,48.06L179.73,48.06L180.19,48.06L180.65,48.06L181.11,48.06L181.57,48.06L182.03,48.06L182.49,48.06L182.95,48.06L183.41,48.06L183.87,48.06L184.34,48.06L184.8,48.06L185.26,48.06L185.72,48.06L186.18,48.06L186.64,48.06L187.1,48.06L187.56,48.06L188.02,48.06L188.48,48.06L188.95,48.06L189.41,48.06L189.87,48.06L190.33,48.06L190.79,48.06L191.25,48.06L191.71,48.06L192.17,48.06L192.63,48.06L193.09,48.06L193.55,48.06L194.02,48.06L194.48,53.879L194.94,48.444L195.4,48.456L195.86,55.39L196.32,59.965L196.78,48.06L197.24,48.06L197.7,48.06L198.16,48.06L198.63,48.06L199.09,48.06L199.55,48.06L200.01,48.06L200.47,48.06L200.93,48.06L201.39,48.06L201.85,48.06L202.31,48.06L202.77,48.06L203.24,48.06L203.7,48.06L204.16,48.06L204.62,48.06L205.08,48.06L205.54,48.06L206,48.06L206.46,48.06L206.92,48.06L207.38,48.06L207.84,48.06L208.31,48.06L208.77,48.06L209.23,48.06L209.69,48.06L210.15,48.06L210.61,48.06L211.07,48.06L211.53,48.06L211.99,48.06L212.45,48.06L212.92,48.06L213.38,48.06L213.84,48.06L214.3,49.952L214.76,48.968" style="fill:none;stroke:#F15A60;stroke-width:1.875" />
<path d="M75.085,48.318L75.546,48.857L76.007,49.185L76.468,48.569L76.929,48.583L77.39,48.545L77.851,48.579L78.312,48.563L78.773,48.54L79.234,48.52L79.695,48.523L80.156,48.991L80.617,49.304L81.078,48.528L81.539,48.557L82,48.532L82.461,48.567L82.922,49.188L83.383,48.495L83.844,48.643L84.305,52.475L84.766,48.526L85.227,48.53L85.688,48.548L86.149,48.593L86.61,48.521L87.071,48.597L87.532,48.504L87.993,48.505L88.454,48.06L88.915,49.935L89.376,48.06L89.836,50.88L90.297,48.522L90.758,48.586L91.219,48.567L91.68,48.802L92.141,48.564L92.602,49.669L93.063,58.793L93.524,59.591L93.985,56.276L94.446,48.06L94.907,88.951L95.368,61.453L95.829,48.06L96.29,48.06L96.751,48.06L97.212,48.06L97.673,48.06L98.134,48.06L98.595,48.06L99.056,48.06L99.517,48.06L99.978,48.06L100.44,48.06L100.9,48.06L101.36,48.06L101.82,48.06L102.28,48.06L102.74,113.38L103.2,48.429L103.67,48.383L104.13,48.406L104.59,48.399L105.05,48.409L105.51,48.377L105.97,48.347L106.43,55.501L106.89,50.57L107.35,48.06L107.81,48.06L108.28,48.06L108.74,48.06L109.2,48.06L109.66,48.06L110.12,48.06L110.58,48.06L111.04,52.68L111.5,48.758L111.96,48.06L112.42,49.619L112.88,48.912L113.35,48.677L113.81,48.619L114.27,48.541L114.73,48.602L115.19,48.06L115.65,50.175L116.11,48.588L116.57,48.544L117.03,48.51L117.49,48.62L117.96,48.964L118.42,48.791L118.88,60.57L119.34,48.06L119.8,79.84L120.26,48.06L120.72,80.733L121.18,48.06L121.64,48.06L122.1,48.06L122.57,48.06L123.03,48.06L123.49,48.06L123.95,48.06L124.41,48.06L124.87,48.06L125.33,48.06L125.79,48.06L126.25,48.06L126.71,48.06L127.18,48.06L127.64,48.06L128.1,48.06L128.56,48.06L129.02,48.06L129.48,48.06L129.94,48.06L130.4,48.06L130.86,48.06L131.32,48.06L131.78,48.06L132.25,48.06L132.71,48.06L133.17,48.06L133.63,48.06L134.09,48.06L134.55,48.06L135.01,48.06L135.47,48.06L135.93,48.06L136.39,48.06L136.86,49.308L137.32,48.695L137.78,49.08" style="fill:none;stroke:#7AC36A;stroke-width:1.875;stroke-dasharray:7.5,2.5" />
<path d="M75.085,48.532L75.546,48.522L76.007,48.605L76.468,48.555L76.929,48.579L77.39,48.568L77.851,48.575L78.312,48.578L78.773,48.584L79.234,48.591L79.695,48.588L80.156,48.587L80.617,48.589L81.078,48.576L81.539,48.594L82,48.587L82.461,48.601L82.922,48.577L83.383,48.576L83.844,48.597L84.305,48.574L84.766,48.584L85.227,48.605L85.688,48.622L86.149,48.579L86.61,48.614L87.071,48.625L87.532,48.604L87.993,48.595L88.454,48.698L88.915,48.608L89.376,48.598L89.836,48.704L90.297,48.559L90.758,48.59L91.219,48.598L91.68,48.666L92.141,48.616L92.602,48.585L93.063,48.604L93.524,48.611L93.985,48.585L94.446,48.588L94.907,48.606L95.368,48.631L95.829,48.606L96.29,48.598L96.751,48.592L97.212,48.632L97.673,48.631L98.134,48.602L98.595,48.645L99.056,48.645L99.517,48.53L99.978,48.638L100.44,48.662" style="fill:none;stroke:#5A9BD4;stroke-width:1.875;stroke-dasharray:2.5,2.5" />
<path d="M75.085,48.571L75.546,48.557L76.007,48.598L76.468,48.624L76.929,48.617L77.39,48.646L77.851,48.633L78.312,48.645L78.773,48.639L79.234,48.672L79.695,48.654L80.156,48.647L80.617,48.651L81.078,48.666L81.539,48.632L82,48.672L82.461,48.637L82.922,48.676L83.383,48.675L83.844,48.657L84.305,48.644L84.766,48.645L85.227,48.678L85.688,48.701L86.149,48.707L86.61,48.68L87.071,48.684L87.532,48.633L87.993,48.699L88.454,48.665L88.915,48.667L89.376,48.713L89.836,48.651L90.297,48.638L90.758,48.733L91.219,48.648L91.68,48.638L92.141,48.655L92.602,48.661L93.063,48.676L93.524,48.68L93.985,48.67L94.446,48.641L94.907,48.675L95.368,48.681L95.829,48.654L96.29,48.695L96.751,48.644L97.212,48.67L97.673,48.613L98.134,48.693L98.595,48.671L99.056,48.721L99.517,48.653L99.978,48.678L100.44,48.689L100.9,48.583L101.36,48.696L101.82,48.669L102.28,48.716L102.74,48.605L103.2,48.646" style="fill:none;stroke:#FAA75B;stroke-width:1.875;stroke-dasharray:1.25,1.25" />
<path d="M75.085,48.538L75.546,48.532L76.007,48.572L76.468,48.656L76.929,48.648L77.39,48.652L77.851,48.689L78.312,48.675L78.773,48.645L79.234,48.675L79.695,48.653L80.156,48.666L80.617,48.663L81.078,48.724L81.539,48.691L82,48.71L82.461,48.697L82.922,48.682L83.383,48.679L83.844,48.688L84.305,48.699L84.766,48.693L85.227,48.71L85.688,48.654L86.149,48.691L86.61,48.714L87.071,48.666L87.532,48.81L87.993,48.62L88.454,48.77L88.915,48.671L89.376,48.664L89.836,48.78L90.297,48.691L90.758,48.683L91.219,48.702L91.68,48.703L92.141,48.728L92.602,48.679L93.063,48.683L93.524,48.72L93.985,48.696L94.446,48.681L94.907,48.728L95.368,48.734L95.829,48.663L96.29,48.718L96.751,48.78L97.212,48.756L97.673,48.648L98.134,48.742L98.595,48.642L99.056,48.706L99.517,48.702L99.978,48.71L100.44,48.712L100.9,48.706L101.36,48.634L101.82,48.658L102.28,48.706L102.74,48.725L103.2,48.667L103.67,48.621L104.13,48.733L104.59,48.707" style="fill:none;stroke:#9E67AB;stroke-width:1.875;stroke-dasharray:6.25,2.5,1.25,2.5" />
<path d="M75.085,53.397L75.546,54.275L76.007,54.874L76.468,52.957L76.929,55.263L77.39,53.684L77.851,54.492L78.312,54.792L78.773,55.502L79.234,52.795L79.695,55.646L80.156,53.904L80.617,53.863L81.078,54.277L81.539,54.543L82,56.5L82.461,53.426L82.922,57.96L83.383,54.528L83.844,54.323L84.305,58.694L84.766,55.681L85.227,55.418L85.688,57.789L86.149,54.409L86.61,57.01L87.071,59.1L87.532,53.794L87.993,53.172L88.454,54.009L88.915,54.492L89.376,52.956L89.836,60.784L90.297,56.222L90.758,55.346L91.219,53.9L91.68,55.352L92.141,56.011L92.602,57.472L93.063,56.394L93.524,53.917L93.985,55.985L94.446,55.786L94.907,53.947L95.368,58.413L95.829,57.664L96.29,56.916L96.751,53.162L97.212,56.107L97.673,54.615L98.134,54.44L98.595,66.409L99.056,55.314L99.517,54.736L99.978,56.817L100.44,53.394L100.9,60.273L101.36,55.997L101.82,53.345L102.28,53.756L102.74,55.946L103.2,53.679L103.67,55.744L104.13,54.989L104.59,54.189L105.05,54.927L105.51,57.798L105.97,55.612L106.43,58.332L106.89,54.84L107.35,56.553L107.81,54.671L108.28,54.833L108.74,48.06L109.2,54.545L109.66,55.898L110.12,54.893L110.58,56.196L111.04,55.727L111.5,50.66L111.96,50.378L112.42,53.998L112.88,56.434L113.35,54.122L113.81,52.972L114.27,56.511L114.73,48.06L115.19,51.241L115.65,48.06L116.11,49.592L116.57,53.916L117.03,53.446L117.49,54.407L117.96,48.06L118.42,60.415L118.88,55.384L119.34,53.279L119.8,57.363L120.26,56.769L120.72,54.993L121.18,48.06L121.64,52.395L122.1,55.074L122.57,52.436L123.03,54.278L123.49,54.273L123.95,55.775L124.41,55.178L124.87,54.799L125.33,48.06L125.79,58.107L126.25,50.134L126.71,51.193L127.18,54.798L127.64,55.491L128.1,55.43L128.56,48.06L129.02,49.941L129.48,50.732L129.94,51.806L130.4,54.389L130.86,53.663L131.32,53.699L131.78,54.448L132.25,48.06L132.71,50.46L133.17,50.821L133.63,51.595L134.09,49.404L134.55,52.791L135.01,56.138L135.47,56.856L135.93,54.056L136.39,57.281L136.86,48.06L137.32,61.88L137.78,48.06L138.24,52.43L138.7,54.223L139.16,56.6L139.62,55.587L140.08,53.284L140.54,48.06L141,50.83L141.47,56.915L141.93,48.06L142.39,51.315L142.85,54.022L143.31,54.884L143.77,55.459L144.23,54.114L144.69,48.06L145.15,48.06L145.61,48.06L146.07,61.322L146.54,48.06L147,48.06L147.46,54.213L147.92,56.333L148.38,53.941L148.84,57.157L149.3,54.345L149.76,48.06L150.22,48.06L150.68,48.06L151.15,59.215L151.61,48.06L152.07,48.06L152.53,56.04L152.99,55.639L153.45,48.06L153.91,48.933L154.37,49.219L154.83,48.06L155.29,48.06L155.76,60.412L156.22,55.147L156.68,53.415L157.14,52.413L157.6,48.06L158.06,48.06L158.52,48.06L158.98,57.715L159.44,48.06L159.9,52.334L160.36,53.74L160.83,56.418L161.29,53.712L161.75,55.805L162.21,48.06L162.67,48.06L163.13,48.06L163.59,62.018L164.05,48.06L164.51,51.607L164.97,55.94L165.44,54.275L165.9,55.306L166.36,54.505L166.82,48.06L167.28,48.06L167.74,48.06L168.2,60.334L168.66,48.06L169.12,53.742L169.58,53.494L170.05,53.54L170.51,53.043L170.97,48.06L171.43,48.06L171.89,54.679L172.35,48.06L172.81,55.491L173.27,53.483L173.73,57.638L174.19,56.153L174.65,48.06L175.12,48.06L175.58,48.06L176.04,48.06L176.5,62.02L176.96,48.06L177.42,48.06L177.88,48.06L178.34,53.315L178.8,56.698L179.26,52.565L179.73,55.023L180.19,48.06L180.65,51.968L181.11,54.923L181.57,56.346L182.03,50.72L182.49,55.829L182.95,54.855L183.41,59.013L183.87,57.161L184.34,48.06L184.8,50.15L185.26,48.06L185.72,48.06L186.18,53.142L186.64,48.06L187.1,52.18L187.56,57.036L188.02,56.451L188.48,54.07L188.95,48.06L189.41,52.319L189.87,48.06L190.33,59.341L190.79,57.778L191.25,54.304L191.71,49.211L192.17,51.497L192.63,55.433L193.09,55.887L193.55,48.496L194.02,54.304L194.48,55.572L194.94,54.904L195.4,57.92L195.86,48.06L196.32,55.734L196.78,55.41L197.24,55.55L197.7,48.06L198.16,50.603L198.63,48.06L199.09,53.75L199.55,53.093L200.01,48.06L200.47,49.405L200.93,54.74L201.39,56.516L201.85,54.755L202.31,48.06L202.77,48.06L203.24,48.06L203.7,48.06L204.16,56.563L204.62,48.06L205.08,48.06L205.54,48.06L206,57.132L206.46,54.841L206.92,54.063L207.38,56.486L207.84,50.015L208.31,54.489L208.77,54.119L209.23,55.209L209.69,51.872L210.15,48.06L210.61,48.06L211.07,57.23L211.53,55.443L211.99,54.096L212.45,50.305L212.92,56.928L213.38,56.702L213.84,55.7L214.3,48.06L214.76,48.06L215.22,55.583L215.68,48.06L216.14,51.429L216.6,55.503L217.06,56.437L217.53,52.985L217.99,48.06L218.45,48.06L218.91,48.06L219.37,57.161L219.83,48.329L220.29,51.035L220.75,48.06L221.21,48.06L221.67,50.5L222.13,57.094L222.6,56.844L223.06,48.06L223.52,51.859L223.98,53.67L224.44,58.131L224.9,52.6L225.36,48.06L225.82,48.06L226.28,52.266L226.74,55.278L227.21,53.83L227.67,48.06L228.13,51.34L228.59,60.35L229.05,54.271L229.51,48.06L229.97,48.06L230.43,48.06L230.89,48.06L231.35,52.972L231.82,57.435L232.28,48.06L232.74,51.454L233.2,54.081L233.66,48.06L234.12,48.06L234.58,48.06L235.04,67.291L235.5,52.674L235.96,54.854L236.42,54.638L236.89,55.965L237.35,48.06L237.81,49.741L238.27,49.546L238.73,48.06L239.19,48.06L239.65,59.355L240.11,55.142L240.57,48.06L241.03,52.498L241.5,54.478L241.96,56.556L242.42,57.068L242.88,51.62L243.34,50.828L243.8,48.06L244.26,48.06L244.72,48.06L245.18,48.06L245.64,58.762L246.11,48.06L246.57,51.449L247.03,53.855L247.49,58.672L247.95,52.956L248.41,48.06L248.87,53.092L249.33,53.535L249.79,48.06L250.25,54.176L250.72,54.126L251.18,48.06L251.64,48.06L252.1,53.409L252.56,55.778L253.02,54.85L253.48,48.06L253.94,53.364L254.4,55.683L254.86,48.06L255.32,48.06L255.79,53.782L256.25,48.06L256.71,48.06L257.17,61.762L257.63,54.991L258.09,55.121L258.55,56.694L259.01,48.06L259.47,50.362L259.93,51.817L260.4,48.06L260.86,66.007L261.32,55.408L261.78,48.06L262.24,48.06L262.7,55.81L263.16,52.994L263.62,55.45L264.08,48.06L264.54,54.632L265.01,56.577L265.47,48.06L265.93,48.06L266.39,54.258L266.85,55.773L267.31,48.06L267.77,48.06L268.23,56.179L268.69,57.069L269.15,55.203L269.61,48.06L270.08,53.478L270.54,55.609L271,56.715L271.46,48.06L271.92,53.696L272.38,55.625L272.84,48.06L273.3,48.06L273.76,56.954L274.22,56.734L274.69,52.306L275.15,48.06L275.61,55.583L276.07,56.731L276.53,48.06L276.99,48.06L277.45,53.637L277.91,59.674L278.37,48.06L278.83,48.06L279.3,48.06L279.76,55.758L280.22,54.047L280.68,59.464L281.14,48.06L281.6,53.547L282.06,55.381L282.52,48.06L282.98,48.06L283.44,48.06L283.9,54.242L284.37,58.382L284.83,48.06L285.29,53.761L285.75,55.13L286.21,55.637L286.67,48.06L287.13,48.06L287.59,56.871L288.05,53.869L288.51,48.06L288.98,48.06L289.44,48.06L289.9,62.404L290.36,48.06L290.82,60.552L291.28,54.035L291.74,58.779L292.2,55.728L292.66,48.06L293.12,51.746L293.59,54.742L294.05,48.06L294.51,48.06L294.97,48.06L295.43,59.48L295.89,48.06L296.35,53.998L296.81,55.155L297.27,54.238L297.73,57.838L298.19,48.06L298.66,48.06L299.12,54.947L299.58,52.928L300.04,48.06L300.5,48.06L300.96,54.51L301.42,57.699L301.88,48.06L302.34,48.06L302.8,55.156L303.27,54.892L303.73,52.481L304.19,48.06L304.65,53.107L305.11,53.769L305.57,48.06L306.03,48.06L306.49,53.233L306.95,51.941L307.41,48.06L307.88,52.797L308.34,53.976L308.8,56.523L309.26,54.42L309.72,48.06L310.18,55.249L310.64,58.062L311.1,48.06L311.56,48.06L312.02,53.309L312.48,57.828L312.95,48.06L313.41,48.06L313.87,48.06L314.33,54.805L314.79,53.763L315.25,54.874L315.71,48.06L316.17,52.674L316.63,48.06L317.09,48.06L317.56,48.06L318.02,58.456L318.48,48.06L318.94,48.06L319.4,52.909L319.86,53.222L320.32,54.978L320.78,52.333L321.24,48.06L321.7,57.12L322.17,56.622L322.63,48.06L323.09,48.06L323.55,48.06L324.01,48.06L324.47,59.072L324.93,48.06L325.39,48.06L325.85,59.426L326.31,57.755" style="fill:none;stroke:#CE7058;stroke-width:1.875;stroke-dasharray:12.5,2.5,2.5,2.5,2.5,2.5,2.5,2.5" />
<path d="M75.085,49.565L75.546,50.108L76.007,50.169L76.468,50.125L76.929,50.234L77.39,50.207L77.851,50.136L78.312,50.212L78.773,50.059L79.234,50.177L79.695,50.2L80.156,50.255L80.617,50.16L81.078,50.111L81.539,50.277L82,50.071L82.461,50.361L82.922,50.039L83.383,50.096L83.844,50.179L84.305,50.224L84.766,50.224L85.227,50.144L85.688,50.163L86.149,50.103L86.61,50.115L87.071,50.285L87.532,50.134L87.993,50.053L88.454,50.129L88.915,50.088L89.376,50.262L89.836,50.472L90.297,50.056L90.758,50.162L91.219,50.443L91.68,50.005L92.141,50.24L92.602,50.35L93.063,50.213L93.524,50.165L93.985,49.921L94.446,50.24L94.907,50.412L95.368,50.047L95.829,50.32L96.29,50.101L96.751,50.249L97.212,50.089L97.673,50.395L98.134,50.054L98.595,50.402L99.056,49.973L99.517,50.705L99.978,49.939L100.44,50.496L100.9,50.009L101.36,50.556L101.82,50.107L102.28,50.366L102.74,50.017L103.2,49.939L103.67,50.39L104.13,49.876L104.59,50.555L105.05,50.019L105.51,50.421L105.97,50.136L106.43,50.002L106.89,50.528L107.35,49.894L107.81,50.091L108.28,50.45L108.74,49.989L109.2,50.663L109.66,50.062L110.12,50.079L110.58,50.506L111.04,50.044L111.5,50.041L111.96,50.609L112.42,49.957L112.88,50.136L113.35,50.656L113.81,49.97L114.27,49.935L114.73,50.587L115.19,50.019L115.65,49.928L116.11,50.544L116.57,49.922L117.03,50.05L117.49,50.644L117.96,50.019L118.42,49.984L118.88,50.037L119.34,50.601L119.8,49.912L120.26,49.885L120.72,50.784L121.18,50.019L121.64,50.026L122.1,49.992L122.57,50.552L123.03,50.013L123.49,49.968L123.95,50.846L124.41,50.055L124.87,50.249L125.33,49.928L125.79,50.921L126.25,50.068L126.71,50.119L127.18,49.918L127.64,51.2L128.1,50.149L128.56,50.066L129.02,50.11L129.48,50.737L129.94,50.159L130.4,50.018L130.86,50.062L131.32,50.305L131.78,50.659L132.25,50.122L132.71,49.994L133.17,49.996L133.63,51.191L134.09,50.038L134.55,50.158L135.01,50.117L135.47,50.041L135.93,50.748L136.39,49.954L136.86,49.943L137.32,50.007L137.78,51.393L138.24,50.025L138.7,50.083L139.16,49.883L139.62,50.117L140.08,50.83L140.54,49.897L141,50.449L141.47,49.973L141.93,50.055L142.39,51.01L142.85,49.95L143.31,50.219L143.77,50.241L144.23,50.154L144.69,51.374L145.15,50.005L145.61,49.958L146.07,50.052L146.54,50.063L147,51.79L147.46,50.094L147.92,50.027L148.38,50.012L148.84,50.118L149.3,50.312L149.76,50.925L150.22,50.189L150.68,50.099L151.15,50.003L151.61,49.919L152.07,51.478L152.53,49.976L152.99,50.025L153.45,49.985L153.91,50.195L154.37,51.619L154.83,50.105L155.29,50.112L155.76,50.103L156.22,50.186L156.68,51.564L157.14,50.18L157.6,49.992L158.06,50.103L158.52,50.564L158.98,51.489L159.44,50.168L159.9,50.164L160.36,50.201L160.83,48.06L161.29,48.06L161.75,106.54L162.21,57.854L162.67,54.933L163.13,58.611L163.59,54.099L164.05,54.568L164.51,55.295L164.97,53.399L165.44,56.114L165.9,53.55L166.36,63.375L166.82,79.085L167.28,86.63L167.74,48.06L168.2,120.49L168.66,48.06L169.12,48.06L169.58,171.67L170.05,48.06L170.51,48.06L170.97,231.7L171.43,48.06L171.89,267.57L172.35,48.06L172.81,48.06L173.27,333.4L173.73,48.06L174.19,48.06L174.65,48.06L175.12,48.06L175.58,48.06L176.04,440.04L176.5,48.06L176.96,481.73L177.42,48.06L177.88,48.06L178.34,522.22L178.8,160.32L179.26,78.754L179.73,86.683L180.19,85.22L180.65,86.916L181.11,83.808L181.57,87.146L182.03,87.428L182.49,88.634L182.95,89.789L183.41,85.159L183.87,84.023L184.34,87.121L184.8,84.834L185.26,86.404L185.72,86.785L186.18,86.037L186.64,85.75L187.1,86.342L187.56,89.365L188.02,94.261L188.48,107.67L188.95,137.96L189.41,48.06L189.87,48.06L190.33,202.02L190.79,48.06L191.25,48.06L191.71,247.55L192.17,263.36L192.63,275.29L193.09,283.4L193.55,290.14L194.02,203.12L194.48,144.13L194.94,144.06L195.4,145.71L195.86,147.42L196.32,155.04L196.78,157.09L197.24,165.25L197.7,171.9L198.16,178.69L198.63,185.35L199.09,190.83L199.55,195.58L200.01,204.9L200.47,208.43L200.93,211.37L201.39,218.22L201.85,223.56L202.31,227.69L202.77,234L203.24,240.73L203.7,245.72L204.16,252.35L204.62,257.88L205.08,262.48L205.54,266.71L206,272.15L206.46,275.66L206.92,279.33L207.38,283.17L207.84,287.25L208.31,296.89L208.77,296.67L209.23,299.2L209.69,299.16L210.15,300.55L210.61,301.55L211.07,301.28L211.53,304.98L211.99,302.6L212.45,304.22L212.92,306.71L213.38,308.33L213.84,306.64L214.3,304.85L214.76,307.69L215.22,306.4L215.68,308.85L216.14,308.85L216.6,308.9L217.06,311.06L217.53,313.5L217.99,313.49L218.45,315.59L218.91,314.22L219.37,315.87L219.83,316.06L220.29,316.59L220.75,318.52L221.21,318.16L221.67,318.28L222.13,319.54L222.6,320.63L223.06,320.5L223.52,320.77L223.98,321.21L224.44,322.39L224.9,322.3L225.36,321.8L225.82,324.61L226.28,326.38L226.74,324.81L227.21,327.16L227.67,329.15L228.13,327.26L228.59,330.2L229.05,330.09L229.51,331.41L229.97,331.04L230.43,330.59L230.89,334.11L231.35,333.79L231.82,336.32L232.28,336.51L232.74,336.26L233.2,336.92L233.66,338.81L234.12,338.91L234.58,342.87L235.04,341.17L235.5,342.05L235.96,343.79L236.42,342.91L236.89,347.08L237.35,346.28L237.81,347.39L238.27,349.08L238.73,347.06L239.19,346.86L239.65,347.58L240.11,350.67L240.57,349.15L241.03,350.91L241.5,348.87L241.96,350.09L242.42,351.3L242.88,348.11L243.34,349.08L243.8,344.03L244.26,343.87L244.72,341.12L245.18,342.33L245.64,338.87L246.11,338.62L246.57,48.06L247.03,48.06L247.49,48.06L247.95,364.23L248.41,48.06L248.87,48.06L249.33,48.06L249.79,48.06L250.25,48.06L250.72,48.06L251.18,48.06L251.64,48.06L252.1,420.71L252.56,48.06L253.02,48.06L253.48,48.06L253.94,48.06L254.4,48.06L254.86,48.06L255.32,382.59L255.79,48.06L256.25,48.06L256.71,48.06L257.17,48.06L257.63,295.94L258.09,296.79L258.55,173.39L259.01,85.485L259.47,83.675L259.93,92.884L260.4,86.542L260.86,94.125L261.32,90.569L261.78,83.394L262.24,92.075L262.7,92.313L263.16,94.765L263.62,103.9L264.08,113.13L264.54,127.57L265.01,130.97L265.47,129.88L265.93,130.13L266.39,131.65L266.85,134.73L267.31,135.51L267.77,135.15L268.23,135.53L268.69,137.28L269.15,140.22L269.61,140.42L270.08,144.23L270.54,145.59L271,145.29L271.46,162.2L271.92,48.06L272.38,48.06L272.84,48.06L273.3,235.24L273.76,48.06L274.22,48.06L274.69,48.06L275.15,307.99L275.61,292.84L276.07,272.13L276.53,125.12L276.99,113.74L277.45,123.33L277.91,127.52L278.37,131.1L278.83,138.13L279.3,144.9L279.76,152.43L280.22,160.92L280.68,169.07L281.14,176.04L281.6,182.29L282.06,192L282.52,201.02L282.98,204.06L283.44,210.3L283.9,214.1L284.37,221.86L284.83,228.49L285.29,234.77L285.75,239.45L286.21,243.06L286.67,244.27L287.13,246.44L287.59,249.3L288.05,250.56L288.51,245.4L288.98,247.48L289.44,245.84L289.9,246.51L290.36,245.38L290.82,245.28L291.28,245.5L291.74,245.12L292.2,245.47L292.66,246.91L293.12,246.57L293.59,246.62L294.05,246.2L294.51,246.69L294.97,245.86L295.43,245.77L295.89,245.88L296.35,248.26L296.81,246.27L297.27,246.48L297.73,245.2L298.19,244.38L298.66,245.9L299.12,244.67L299.58,245.99L300.04,247.19L300.5,242.59L300.96,242.23L301.42,242.42L301.88,242.48L302.34,242.56L302.8,242.45L303.27,243.14L303.73,241.96L304.19,243.32L304.65,242.07L305.11,243.78L305.57,257.49L306.03,48.06L306.49,48.06L306.95,48.06L307.41,272.17L307.88,48.06L308.34,48.06L308.8,48.06L309.26,48.06L309.72,303.83L310.18,48.06L310.64,48.06L311.1,48.06L311.56,48.06L312.02,48.06L312.48,48.06L312.95,48.06L313.41,48.06L313.87,48.06L314.33,48.06L314.79,48.06L315.25,48.06L315.71,48.06L316.17,48.06L316.63,48.06L317.09,413.04L317.56,178.47L318.02,92.862L318.48,90.574L318.94,88.721L319.4,88.347L319.86,89.291L320.32,90.127L320.78,94.554L321.24,90.485L321.7,87.969L322.17,92.03L322.63,91.236L323.09,87.968L323.55,93.284L324.01,105.02L324.47,112.87L324.93,121.34L325.39,124.37L325.85,120.7L326.31,126.92L326.78,129.78L327.24,132.49L327.7,135.97L328.16,135.13L328.62,135.57L329.08,134.82L329.54,137.83L330,137.2L330.46,139.91L330.92,137.95L331.38,137.2L331.85,138.89L332.31,140.24L332.77,142.59L333.23,143.22L333.69,145.52L334.15,145.33L334.61,146.18L335.07,146.12L335.53,149.8L335.99,149.99L336.46,149.72L336.92,149.74L337.38,151.42L337.84,151.42L338.3,151.59L338.76,153.26L339.22,151.43L339.68,152.8L340.14,153.69L340.6,157.63L341.07,155.54L341.53,157.85L341.99,165.62L342.45,165.16L342.91,163.16L343.37,162.84L343.83,166.58L344.29,165.69L344.75,166.6L345.21,169.51L345.67,169.69L346.14,168.38L346.6,172.77L347.06,171.1L347.52,172.9L347.98,171.11L348.44,171.98L348.9,170.99L349.36,173.54L349.82,174.8L350.28,176.41L350.75,178.15L351.21,176.45L351.67,181.53L352.13,182.57L352.59,183.79L353.05,182.49L353.51,181.54L353.97,185.69L354.43,184.03L354.89,184.79L355.36,185.54L355.82,182.36L356.28,181.13L356.74,181.07L357.2,182.66L357.66,182.23L358.12,181.85L358.58,182.39L359.04,184.26L359.5,184.5L359.96,186.31L360.43,186.26L360.89,188.59L361.35,189.72L361.81,189.72L362.27,191.66L362.73,193.23L363.19,193.25L363.65,192.23L364.11,192.21L364.57,193.54L365.04,196.89L365.5,196.29L365.96,197.1L366.42,198.75L366.88,202.02L367.34,199.59L367.8,200.38L368.26,200.58L368.72,200.49L369.18,201.73L369.65,200.74L370.11,202.1L370.57,203.24L371.03,202.19L371.49,203.01L371.95,203.43L372.41,204.7L372.87,229.82L373.33,48.06L373.79,264.54L374.25,265.73L374.72,266.19L375.18,266.48L375.64,266.96L376.1,267.32L376.56,270.25L377.02,271.25L377.48,273.86L377.94,266.49L378.4,221.63L378.86,228.9L379.33,227.38L379.79,226.08L380.25,227.89L380.71,232.93L381.17,240.71L381.63,244.98L382.09,245.14L382.55,244.76L383.01,247.37L383.47,244.71L383.94,249.83L384.4,249.9L384.86,252.48L385.32,252.43L385.78,252.35L386.24,253.72L386.7,253.09L387.16,255.77L387.62,257.34L388.08,256.47L388.55,256.8L389.01,257.21L389.47,258.48L389.93,257.89L390.39,257.9L390.85,256.9L391.31,255.52L391.77,255.35L392.23,255.54L392.69,255.59L393.15,255.29L393.62,255.38L394.08,256.67L394.54,255.61L395,255.71L395.46,254.69L395.92,256.9L396.38,255.58L396.84,258.31L397.3,270.6L397.76,48.06L398.23,48.06L398.69,48.06L399.15,296.75L399.61,48.06L400.07,48.06L400.53,48.06L400.99,48.06L401.45,48.06L401.91,48.06L402.37,48.06L402.84,48.06L403.3,48.06L403.76,48.06L404.22,48.06L404.68,372.62L405.14,48.06L405.6,48.06L406.06,48.06L406.52,48.06L406.98,48.06L407.44,387.54L407.91,48.06L408.37,440.35L408.83,315.12L409.29,235.93L409.75,118.71L410.21,91.377L410.67,89.528L411.13,89.151L411.59,87.232L412.05,89.082L412.52,93.168L412.98,91.698L413.44,88.779L413.9,88.094L414.36,90.204L414.82,89.933L415.28,101.2L415.74,111.5L416.2,121.79L416.66,130.84L417.13,130.57L417.59,130.03L418.05,127.23L418.51,130.05L418.97,128.82L419.43,127.99L419.89,127.64L420.35,128.62L420.81,130.98L421.27,134.33L421.73,133.71L422.2,137.05L422.66,138.01L423.12,137.54L423.58,138.02L424.04,139.98L424.5,139.24L424.96,143.42L425.42,147.12L425.88,147.23L426.34,151.06L426.81,149.97L427.27,150.01L427.73,151.3L428.19,150.04L428.65,149.95L429.11,154.15L429.57,155.18L430.03,154.03L430.49,152.96L430.95,152.33L431.42,151.58L431.88,157.28L432.34,157.35L432.8,156.54L433.26,155.22L433.72,157.43L434.18,159.5L434.64,160.61L435.1,161.7L435.56,162.38L436.02,161.6L436.49,160.15L436.95,162.97L437.41,158.43L437.87,157.01L438.33,160.03L438.79,161.51L439.25,163.34L439.71,163L440.17,164.26L440.63,164.9L441.1,165.75L441.56,167.74L442.02,167.18L442.48,167.29L442.94,166.57L443.4,166.04L443.86,171.15L444.32,173.87L444.78,177.87L445.24,176.7L445.71,176.65L446.17,177.71L446.63,175.82L447.09,179.08L447.55,180.62L448.01,179.61L448.47,181.77L448.93,182.09L449.39,178.48L449.85,181.66L450.32,183.9L450.78,182.12L451.24,182.38L451.7,183.49L452.16,181.77L452.62,181.73L453.08,185.57L453.54,185.03L454,187.84L454.46,185.59L454.92,186.52L455.39,185.78L455.85,185.52L456.31,185.61L456.77,186.13L457.23,182.85L457.69,185.03L458.15,187.32L458.61,185.66L459.07,188.42L459.53,48.06L460,48.06L460.46,48.06L460.92,48.06L461.38,236.15L461.84,48.06L462.3,48.06L462.76,48.06L463.22,237.72L463.68,48.06L464.14,48.06L464.61,48.06L465.07,48.06L465.53,302.64L465.99,48.06L466.45,260.36L466.91,48.06L467.37,48.06L467.83,48.06L468.29,328.29L468.75,48.06L469.21,48.06L469.68,48.06L470.14,48.06L470.6,430.63L471.06,393.86L471.52,132.35L471.98,85.623L472.44,89.629L472.9,89.904L473.36,90.014L473.82,92.016L474.29,90.723L474.75,91.641L475.21,89.324L475.67,86.116L476.13,89.907L476.59,91.937L477.05,99.557L477.51,110.88L477.97,119.66L478.43,130.91L478.9,133.01L479.36,130.04L479.82,132.17L480.28,132.01L480.74,131.92L481.2,132.91L481.66,132.35L482.12,132.87L482.58,132.8L483.04,133.48L483.5,137.61L483.97,139.54L484.43,143.17L484.89,148.1L485.35,147.96L485.81,146.82L486.27,150.61L486.73,149.86L487.19,155.85L487.65,156.77L488.11,157.94L488.58,158.41L489.04,158.28L489.5,157.34L489.96,161.7L490.42,161.91L490.88,162.4L491.34,162.14L491.8,160.45L492.26,161.16L492.72,161.56L493.19,166.02L493.65,169.18L494.11,169.66L494.57,169.86L495.03,168.85L495.49,169.87L495.95,173.32L496.41,175.18L496.87,185.14L497.33,48.06L497.79,219.98L498.26,239.53L498.72,241.76L499.18,241.84L499.64,241.86L500.1,241.83L500.56,241.78L501.02,241.61L501.48,192.01L501.94,188.26L502.4,199.31L502.87,203.72L503.33,205.24L503.79,204.85L504.25,208.76L504.71,218.89L505.17,219.5L505.63,223.96L506.09,226.29L506.55,223.93L507.01,226.25L507.48,225.32L507.94,224.11L508.4,223.93L508.86,223.39L509.32,225.34L509.78,225.68L510.24,226.44L510.7,223.06L511.16,225.26L511.62,225.47L512.08,223.9L512.55,225.3L513.01,223.39L513.47,226.38L513.93,224.77L514.39,223.36L514.85,223.32L515.31,225.77L515.77,223.55L516.23,223.56L516.69,224.79L517.16,222.97L517.62,224.32L518.08,225.82L518.54,226.12L519,227.54L519.46,228.79L519.92,226.12L520.38,223.88L520.84,223.83L521.3,223.18L521.77,225.18L522.23,223.87L522.69,223.81L523.15,223.91L523.61,223.88L524.07,225.43L524.53,225.14L524.99,225.89L525.45,226.14L525.91,224.08L526.38,227.25L526.84,226.69L527.3,224.21L527.76,226.54L528.22,225.63L528.68,226.8L529.14,228.84L529.6,227.83L530.06,226.3L530.52,226.69L530.98,226.38L531.45,229.05L531.91,226.85L532.37,229.17L532.83,231.08L533.29,230.5L533.75,230.53L534.21,230.65L534.67,230.8L535.13,230.82L535.59,229.53L536.06,228.11L536.52,229.33L536.98,228.16L537.44,233.35L537.9,230.81L538.36,230.57L538.82,229.39L539.28,230.36L539.74,229.43L540.2,229.37L540.67,228.3L541.13,229.82L541.59,48.06L542.05,48.06L542.51,48.06L542.97,275.15L543.43,48.06L543.89,48.06L544.35,48.06L544.81,48.06L545.27,48.06L545.74,48.06L546.2,48.06L546.66,300.36L547.12,48.06L547.58,48.06L548.04,48.06L548.5,48.06L548.96,48.06L549.42,324.45L549.88,328.06L550.35,48.06L550.81,48.06L551.27,48.06L551.73,48.06L552.19,48.06L552.65,48.06L553.11,48.06L553.57,388.27L554.03,277.68L554.49,88.755L554.96,87.28L555.42,87.234L555.88,89.274L556.34,90.67L556.8,90.189L557.26,91.89L557.72,89.659L558.18,89.577L558.64,89.956L559.1,90.318L559.56,96.235L560.03,91.528L560.49,81.595L560.95,87.893L561.41,106.4L561.87,111.45L562.33,122.57L562.79,127.92L563.25,130.38L563.71,132.68L564.17,129.13L564.64,132.58L565.1,132.59L565.56,133.22L566.02,134.91L566.48,139.19L566.94,140.02L567.4,140.71L567.86,139.02L568.32,140.79L568.78,140.91L569.25,143.18L569.71,143.52L570.17,142.28L570.63,143.44L571.09,146.86L571.55,147.8L572.01,150.89L572.47,156.32L572.93,176.72L573.39,48.06L573.85,215.72L574.32,215.83L574.78,217.98L575.24,221.62L575.7,221.65L576.16,221.89L576.62,217.7L577.08,172.72L577.54,179.03L578,184.16L578.46,187.87L578.93,196.59L579.39,201.87L579.85,208.68L580.31,214.87L580.77,218.34L581.23,219.34L581.69,220.9L582.15,219.16L582.61,219.87L583.07,219.05L583.54,221.16L584,221.27L584.46,222.52L584.92,222.21L585.38,223.69L585.84,224.08L586.3,223.42L586.76,222.79L587.22,222.75L587.68,223.82L588.15,221.48L588.61,222.81L589.07,224.94L589.53,224.02L589.99,222.65L590.45,224.4L590.91,226.49L591.37,226.32L591.83,228.67L592.29,228.82L592.75,230.3L593.22,229L593.68,228.56L594.14,228.82L594.6,231.38L595.06,232.55L595.52,232.6L595.98,231L596.44,233.73L596.9,233.43L597.36,235.97L597.83,234.26L598.29,233.56L598.75,236.11L599.21,236.2L599.67,237.24L600.13,240.16L600.59,241.46L601.05,242.74L601.51,243.95L601.97,241.66L602.44,242.55L602.9,243.1L603.36,243.73L603.82,245.48L604.28,246.68L604.74,243.52L605.2,246.22L605.66,244.16L606.12,245.09L606.58,246.24L607.04,245.3L607.51,245.85L607.97,246.19L608.43,244.37L608.89,245.77L609.35,245.86L609.81,249.27L610.27,247.44L610.73,249.39L611.19,251.89L611.65,249.95L612.12,250.04L612.58,250.29L613.04,250.32L613.5,252.05L613.96,249.82L614.42,249.61L614.88,251.08L615.34,249.85L615.8,249.82L616.26,249.85L616.73,250.25L617.19,251.1L617.65,252.16L618.11,252.14L618.57,252.39L619.03,253.74L619.49,252.01L619.95,254.77L620.41,252.46L620.87,252.53L621.33,252.27L621.8,252.4L622.26,254.32L622.72,252.18L623.18,252.94L623.64,253.56L624.1,256.44L624.56,254.69L625.02,256.48L625.48,255.53L625.94,254.72L626.41,255.7L626.87,254.56L627.33,254.64L627.79,255.19L628.25,254.73L628.71,254.87L629.17,256.99L629.63,255.26L630.09,255.76L630.55,254.78L631.02,254.65L631.48,255.65L631.94,257.11L632.4,257.22L632.86,257.07L633.32,257L633.78,256.99L634.24,256.89L634.7,256.11L635.16,257.85L635.62,259.08L636.09,257.59L636.55,257.96L637.01,260.99L637.47,256.74L637.93,257.24L638.39,257.57L638.85,258.01L639.31,259.56L639.77,258.65L640.23,259.12L640.7,256.5L641.16,258.47L641.62,254.71L642.08,254.06L642.54,252.8L643,254.09L643.46,252.79L643.92,252.69L644.38,252.12L644.84,252.79L645.31,254.59L645.77,254.58L646.23,251.62L646.69,252.21L647.15,252.23L647.61,266.35L648.07,48.06L648.53,48.06L648.99,48.06L649.45,48.06L649.92,308.47L650.38,48.06L650.84,48.06L651.3,268.53L651.76,48.06L652.22,230.82L652.68,48.06L653.14,48.06L653.6,209.07L654.06,48.06L654.52,48.06L654.99,48.06L655.45,48.06L655.91,48.06L656.37,48.06L656.83,48.06L657.29,48.06L657.75,48.06L658.21,48.06L658.67,410.34L659.13,48.06L659.6,426.35L660.06,367.68L660.52,124.9L660.98,93.965L661.44,85.308L661.9,85.996L662.36,98.484L662.82,87.2L663.28,84.909L663.74,90.264L664.21,86.61L664.67,87.375L665.13,94.552L665.59,89.454L666.05,90.897L666.51,95.111L666.97,100.78L667.43,96.708L667.89,119.55L668.35,126.9L668.81,128.21L669.28,131.67L669.74,126.55L670.2,132.39L670.66,134.87L671.12,136.65L671.58,136.86L672.04,140.88L672.5,142.46L672.96,141.02L673.42,142.4L673.89,143.53L674.35,143.3L674.81,146L675.27,145.31L675.73,145.16L676.19,145.66L676.65,160.37L677.11,48.06L677.57,189.62L678.03,48.06L678.5,221.95L678.96,222.23L679.42,222.59L679.88,223.47L680.34,222.94L680.8,182.38L681.26,159.54L681.72,169.61L682.18,182.61L682.64,189.18L683.1,196.33L683.57,206.54L684.03,208.63L684.49,215.33L684.95,219.04L685.41,223.19L685.87,227.79L686.33,227.97L686.79,226.78L687.25,226.76L687.71,227.8L688.18,226.71L688.64,228.96L689.1,228.88L689.56,234L690.02,228.6L690.48,229.89L690.94,230.49L691.4,229.6L691.86,232.03L692.32,230.9L692.79,232.07L693.25,229.81L693.71,229.27L694.17,229.76L694.63,231.67L695.09,230.67L695.55,234.59L696.01,232.07L696.47,232.12L696.93,233.5L697.39,234.64L697.86,234.48L698.32,236.77L698.78,234.26L699.24,234.89L699.7,234.3L700.16,233.77L700.62,234.08L701.08,235.42L701.54,234.31L702,236.49L702.47,234.51L702.93,234.14L703.39,235.78L703.85,234.48L704.31,237.7L704.77,236.9L705.23,236.89L705.69,238.12L706.15,238.61L706.61,236.76L707.08,236.5L707.54,236.26L708,236.5L708.46,236.2L708.92,238.94L709.38,240.66L709.84,238.73L710.3,239.89L710.76,238.48L711.22,238.64L711.68,241.37L712.15,241.14L712.61,242.82L713.07,241.74L713.53,241.69L713.99,244.3L714.45,244.39L714.91,245.27L715.37,246.47L715.83,244.25L716.29,244.52L716.76,244.65L717.22,244.14L717.68,244.08L718.14,244.18L718.6,246.66L719.06,246.62L719.52,250.39L719.98,251.96L720.44,251.95L720.9,251.76L721.37,249.84L721.83,250.01L722.29,249.85L722.75,250.88L723.21,249.95L723.67,250.1L724.13,250.08L724.59,249.68L725.05,252.43L725.51,251.28L725.98,254.26L726.44,251.76L726.9,253.9L727.36,251.97L727.82,254.42L728.28,251.99L728.74,251.93L729.2,251.89L729.66,251.92L730.12,255.8L730.58,252.06L731.05,254.57L731.51,255.29L731.97,257.01L732.43,256.28L732.89,256.54L733.35,255.3L733.81,253.32L734.27,255.84L734.73,254.12L735.19,252.4L735.66,253.88L736.12,254.11L736.58,255.45L737.04,253.49L737.5,252.34L737.96,252.27L738.42,253.76L738.88,252.43L739.34,252.41L739.8,253.94L740.27,250.14L740.73,250.09L741.19,250.36L741.65,250.78L742.11,251.03L742.57,48.06L743.03,275.31L743.49,48.06L743.95,270.24L744.41,48.06L744.87,48.06L745.34,284.66L745.8,48.06L746.26,48.06L746.72,48.06L747.18,48.06L747.64,48.06L748.1,302.55L748.56,48.06L749.02,48.06L749.48,48.06L749.95,330.73L750.41,48.06L750.87,48.06L751.33,48.06L751.79,48.06L752.25,48.06L752.71,48.06L753.17,441.39L753.63,48.06L754.09,48.06L754.56,454.08L755.02,352.62L755.48,179.8L755.94,101.36L756.4,85.424L756.86,83.075L757.32,90.105L757.78,89.69L758.24,90.635L758.7,90.273L759.16,88.753L759.63,89.173L760.09,88.427L760.55,112.75L761.01,125.02L761.47,131.55L761.93,140.39L762.39,149.64L762.85,133.68L763.31,136.95L763.77,135.63L764.24,134.84L764.7,134.78L765.16,133.98L765.62,137.48L766.08,139.98L766.54,140.7L767,143.08L767.46,145.45L767.92,145.63L768.38,146.19L768.85,148.89L769.31,151.02L769.77,151.78L770.23,151.02L770.69,151.7L771.15,152.49L771.61,153.81L772.07,156.07L772.53,157.7L772.99,158.6L773.45,159.05L773.92,161.67L774.38,160.44L774.84,160.36L775.3,160.5L775.76,162.08L776.22,164.21L776.68,165.95L777.14,170.39L777.6,169.96L778.06,169.08L778.53,169.51L778.99,170.8L779.45,170.82L779.91,175.17L780.37,173.57L780.83,174.37L781.29,177.1L781.75,176.99L782.21,178.45L782.67,178.19L783.14,181.13L783.6,181.4L784.06,182.34L784.52,184.18L784.98,186.02L785.44,186.91L785.9,185.4L786.36,184.52L786.82,188.28L787.28,190.64L787.75,192.3L788.21,204.17L788.67,229.34L789.13,48.06L789.59,253.62L790.05,253.71L790.51,253.65L790.97,253.79L791.43,253.65L791.89,253.79L792.35,258.05L792.82,255.27L793.28,202.09L793.74,204.4L794.2,204.55L794.66,213.83L795.12,220.35L795.58,224.09L796.04,230.66L796.5,236.46L796.96,239.81L797.43,239.84L797.89,239.71L798.35,239.74L798.81,239.83L799.27,239.39L799.73,240.79L800.19,239.96L800.65,239.73L801.11,241.02L801.57,241.78L802.04,242.16L802.5,239.53L802.96,239.64L803.42,238.92L803.88,239.69L804.34,240.99L804.8,239.32L805.26,240.67L805.72,239.39L806.18,239.36L806.64,239.55L807.11,239.57L807.57,241.2L808.03,239.27L808.49,240.8L808.95,241.72L809.41,239.1L809.87,240.4L810.33,239.11L810.79,239.04L811.25,240.28L811.72,241.57L812.18,241.49L812.64,241.35L813.1,241.88L813.56,241.34L814.02,241.3L814.48,241.37L814.94,241.32L815.4,241.34L815.86,241.33L816.33,242.51L816.79,242.51L817.25,241.47L817.71,242.52L818.17,241.39L818.63,243.66L819.09,242.49L819.55,241.38L820.01,241.35L820.47,241.48L820.93,241.5L821.4,242.72L821.86,241.41L822.32,242.75L822.78,243.88L823.24,243.92L823.7,241.9L824.16,242.14L824.62,243.05L825.08,242.84L825.54,244.28L826.01,244.65L826.47,246.33L826.93,246.29L827.39,248L827.85,244.54L828.31,244.28L828.77,241.74L829.23,241.84L829.69,242.94L830.15,241.83L830.62,241.55L831.08,243.17L831.54,244.27L832,244.34L832.46,244.27L832.92,257.59L833.38,48.06L833.84,48.06L834.3,48.06L834.76,269.44L835.22,48.06L835.69,48.06L836.15,48.06L836.61,48.06L837.07,48.06L837.53,48.06L837.99,48.06L838.45,48.06L838.91,48.06L839.37,48.06L839.83,48.06L840.3,48.06L840.76,406.9L841.22,48.06L841.68,48.06L842.14,369.14L842.6,48.06L843.06,48.06L843.52,48.06L843.98,48.06L844.44,48.06L844.91,477.31L845.37,240.81L845.83,220.79L846.29,91.67L846.75,88.61L847.21,87.274L847.67,91.676L848.13,92.185L848.59,86.399L849.05,89.19L849.52,92.735L849.98,90.546L850.44,97.892L850.9,89.864L851.36,122.28L851.82,48.06L852.28,48.06L852.74,169.94L853.2,48.06L853.66,48.06L854.12,228.68L854.59,48.06L855.05,282.81L855.51,48.06L855.97,48.06L856.43,48.06L856.89,349.88L857.35,48.06L857.81,48.06L858.27,48.06L858.73,424.49L859.2,448.78L859.66,443.57L860.12,425.22L860.58,157.4L861.04,107.57L861.5,107.54L861.96,113.97L862.42,121.24L862.88,130.21L863.34,139.74L863.81,148.84L864.27,154.71L864.73,159.5L865.19,166.84L865.65,172.72L866.11,179.29L866.57,187.41L867.03,204.32L867.49,194.93L867.95,182.06L868.41,186.7L868.88,190.63L869.34,196.31L869.8,204.11L870.26,209.85L870.72,217.55L871.18,223.71L871.64,236.6L872.1,248.1L872.56,263.74L873.02,269.22L873.49,271.92L873.95,279.15L874.41,281.63L874.87,286.78L875.33,294.49L875.79,302.17L876.25,307.35L876.71,304.79L877.17,307.48L877.63,311.85L878.1,313.23L878.56,314.56L879.02,312.22L879.48,312.45L879.94,314.25L880.4,312.38L880.86,312.51L881.32,314.84L881.78,316.33L882.24,312.44L882.7,313.75L883.17,313.92L883.63,312.46L884.09,313.62L884.55,313.23L885.01,314.83L885.47,315.47L885.93,313.17L886.39,313.24L886.85,314.81L887.31,315.81L887.78,309.34L888.24,313.37L888.7,313.6L889.16,311.48L889.62,311.53L890.08,309.61L890.54,310.09L891,308.82L891.46,312.41L891.92,310.95L892.39,310.31L892.85,309.11L893.31,316.21L893.77,48.06L894.23,327.03L894.69,48.06L895.15,324.05L895.61,48.06L896.07,48.06L896.53,48.06L896.99,48.06L897.46,345.83L897.92,48.06L898.38,48.06L898.84,48.06L899.3,48.06L899.76,48.06L900.22,373.05L900.68,48.06L901.14,48.06L901.6,48.06L902.07,48.06L902.53,48.06L902.99,48.06L903.45,48.06L903.91,48.06L904.37,48.06L904.83,447.38L905.29,48.06L905.75,332.43L906.21,294.24L906.68,134.35L907.14,91.433L907.6,89.731L908.06,89.723L908.52,89.575L908.98,88.491L909.44,89.184L909.9,92.808L910.36,91.923L910.82,85.925L911.28,89.58L911.75,89.203L912.21,104.72L912.67,116.02L913.13,123.78L913.59,128.23L914.05,125.65L914.51,129.38L914.97,127.48L915.43,132.8L915.89,131.68L916.36,131.33L916.82,131.34L917.28,131.34L917.74,132.64L918.2,132.39L918.66,132.7L919.12,138.46L919.58,138.48L920.04,138.7L920.5,137.24L920.97,138.99L921.43,143.77L921.89,147.19L922.35,150.53L922.81,154.98L923.27,157.48L923.73,158.06L924.19,158.46L924.65,164.91L925.11,164.31L925.58,164.36L926.04,165.07L926.5,162.88L926.96,163.95L927.42,162.87L927.88,163.64L928.34,162.08L928.8,163.5L929.26,163.32L929.72,164.32L930.18,165.06L930.65,166.06L931.11,165.2L931.57,165.24L932.03,163.11L932.49,165.07L932.95,163.58L933.41,163.74L933.87,164.73L934.33,163.98L934.79,164.36L935.26,164.97L935.72,164.81L936.18,166.75L936.64,166.59L937.1,165.62L937.56,165.66L938.02,166.29L938.48,168.25L938.94,168.92L939.4,169.83L939.87,169.71L940.33,169.51L940.79,168.1L941.25,167.99L941.71,168.16L942.17,169.71L942.63,168.29L943.09,170.14L943.55,169.3L944.01,168.24L944.47,168.13L944.94,169.68L945.4,168.16L945.86,168.1L946.32,169.02L946.78,174.74L947.24,176.1L947.7,177.54L948.16,178.91L948.62,179.76L949.08,178.95L949.55,180.99L950.01,178.69L950.47,179.76L950.93,181.01L951.39,179.35L951.85,181.95L952.31,186.08L952.77,183.5L953.23,183.57L953.69,183.45L954.16,183.44L954.62,183.44L955.08,186.06L955.54,186.39L956,204.69L956.46,48.06L956.92,233.94L957.38,245.07L957.84,245.75L958.3,246.29L958.76,246.9L959.23,247.28L959.69,251.9L960.15,263.91L960.61,277.77L961.07,309.52L961.53,48.06L961.99,338.83L962.45,48.06L962.91,371.69L963.37,48.06L963.84,406.26L964.3,48.06L964.76,452.16L965.22,48.06L965.68,48.06L966.14,498.59L966.6,48.06L967.06,48.06L967.52,563.7L967.98,48.06L968.45,599.38L968.91,48.06L969.37,48.06L969.83,48.06L970.29,666.86L970.75,48.06L971.21,700.75L971.67,624.08L972.13,560.76L972.59,246.98L973.05,123.4L973.52,130.47L973.98,139.95L974.44,149.4L974.9,157.43L975.36,161.83L975.82,164.43L976.28,169.75L976.74,176.57L977.2,183.23L977.66,192.87L978.13,200.04L978.59,212.34L979.05,224.43L979.51,227.89L979.97,230.73L980.43,236.03L980.89,242.6L981.35,249.07L981.81,253.38L982.27,260.58L982.74,265.18L983.2,269.41L983.66,275.93L984.12,282.96L984.58,48.06L985.04,48.06L985.5,48.06L985.96,48.06L986.42,48.06L986.88,350.74L987.35,48.06L987.81,48.06L988.27,48.06L988.73,344.12L989.19,48.06L989.65,48.06L990.11,349.84L990.57,48.06L991.03,48.06L991.49,296.68L991.95,212.4L992.42,110.03L992.88,89.541L993.34,102.58L993.8,112.73L994.26,123.1L994.72,128.65L995.18,126.32L995.64,129.53L996.1,128.01L996.56,132.48L997.03,134.05L997.49,134L997.95,133.33L998.41,136.62L998.87,136.7L999.33,137.65L999.79,137.65L1000.3,140.63L1000.7,140.49L1001.2,142.18L1001.6,143.63L1002.1,142.25L1002.6,147.46L1003,148.29L1003.5,149.17L1003.9,148.2L1004.4,148.61L1004.9,148.39L1005.3,147.8L1005.8,149.11L1006.2,150.11L1006.7,155.1L1007.2,154.26L1007.6,152.94L1008.1,153.01L1008.5,157.87L1009,156.6L1009.5,157.94L1009.9,158.37L1010.4,158.09L1010.9,158.41L1011.3,158.92L1011.8,159.4L1012.2,157.97L1012.7,158.65L1013.2,162L1013.6,161.9L1014.1,162.99L1014.5,162.91L1015,163.95L1015.5,163.94L1015.9,165.73L1016.4,168.48L1016.8,172.39L1017.3,171.32L1017.8,170.84L1018.2,172.29L1018.7,170.79L1019.2,171.99L1019.6,172.17L1020.1,169.85L1020.5,170.81L1021,173.73L1021.5,173.42L1021.9,174.15L1022.4,175.8L1022.8,174.53L1023.3,178.23L1023.8,178.44L1024.2,177.67L1024.7,178.52L1025.1,176.74L1025.6,177.17L1026.1,176.37L1026.5,179.89L1027,178.93L1027.4,181.23L1027.9,182.93L1028.4,185.48L1028.8,185L1029.3,185.37L1029.8,185.79L1030.2,184.04L1030.7,184.77L1031.1,184.47L1031.6,186.51L1032.1,187.81L1032.5,188.25L1033,189.59L1033.4,192.61L1033.9,192.66L1034.4,191.26L1034.8,194.51L1035.3,193.73L1035.7,191.93L1036.2,193.04L1036.7,192.04L1037.1,192.28L1037.6,194.68L1038.1,192.33L1038.5,193.97L1039,193.25L1039.4,195.21L1039.9,194.24L1040.4,195.03L1040.8,194.31L1041.3,196.47L1041.7,195.66L1042.2,206.96L1042.7,48.06L1043.1,237.21L1043.6,247.75L1044,248.2L1044.5,248.53L1045,248.76L1045.4,248.88L1045.9,250.35L1046.3,255.2L1046.8,245.95L1047.3,211.25L1047.7,216.12L1048.2,218.97L1048.7,225.36L1049.1,231.4L1049.6,233.43L1050,239.82L1050.5,240.64L1051,247.98L1051.4,250.24L1051.9,250.43L1052.3,248.7L1052.8,250.72L1053.3,252.04L1053.7,249.5L1054.2,251.13L1054.6,249.47L1055.1,249.44L1055.6,250.91L1056,250.44L1056.5,249.62L1057,249.58L1057.4,249.57L1057.9,249.56L1058.3,48.06L1058.8,267.76L1059.3,48.06L1059.7,48.06L1060.2,48.06L1060.6,48.06L1061.1,299.86L1061.6,48.06L1062,48.06L1062.5,48.06L1062.9,48.06L1063.4,48.06L1063.9,48.06L1064.3,48.06L1064.8,344.78L1065.2,48.06L1065.7,48.06L1066.2,48.06L1066.6,285.85L1067.1,48.06L1067.6,48.06L1068,48.06L1068.5,48.06L1068.9,48.06L1069.4,48.06L1069.9,48.06L1070.3,48.06L1070.8,474.25L1071.2,385.75L1071.7,267.52L1072.2,91.721L1072.6,89.463L1073.1,87.186L1073.5,90.801L1074,96.206L1074.5,88.372L1074.9,90.041L1075.4,91.09L1075.9,85.793L1076.3,88.755L1076.8,88.727L1077.2,89.52L1077.7,88.683L1078.2,94.802L1078.6,103.19L1079.1,102.73L1079.5,114.96L1080,117.91" style="fill:none;stroke:#D77FB4;stroke-width:1.875;stroke-dasharray:12.5,2.5,2.5,2.5" />
<path d="M1055,693.4L1080,693.4" style="fill:none;stroke:#F15A60;stroke-width:1.875" />
<text x="804.02" y="-686.35" transform="scale(1, -1)"
	style="font-family:Helvetica;font-weight:normal;font-style:normal;font-size:12pt">Zookeeper v3.4.8 (Java 8, Snap 10k)</text>
<path d="M1055,678.7L1080,678.7" style="fill:none;stroke:#7AC36A;stroke-width:1.875;stroke-dasharray:7.5,2.5" />
<text x="795.68" y="-671.65" transform="scale(1, -1)"
	style="font-family:Helvetica;font-weight:normal;font-style:normal;font-size:12pt">Zookeeper v3.4.8 (Java 8, Snap 100k)</text>
<path d="M1055,664L1080,664" style="fill:none;stroke:#5A9BD4;stroke-width:1.875;stroke-dasharray:2.5,2.5" />
<text x="944.13" y="-656.95" transform="scale(1, -1)"
	style="font-family:Helvetica;font-weight:normal;font-style:normal;font-size:12pt">etcd v3 (Go Tip)</text>
<path d="M1055,649.3L1080,649.3" style="fill:none;stroke:#FAA75B;stroke-width:1.875;stroke-dasharray:1.25,1.25" />
<text x="943.28" y="-642.25" transform="scale(1, -1)"
	style="font-family:Helvetica;font-weight:normal;font-style:normal;font-size:12pt">etcd v3 (Go 1.6)</text>
<path d="M1055,634.6L1080,634.6" style="fill:none;stroke:#9E67AB;stroke-width:1.875;stroke-dasharray:6.25,2.5,1.25,2.5" />
<text x="943.28" y="-627.55" transform="scale(1, -1)"
	style="font-family:Helvetica;font-weight:normal;font-style:normal;font-size:12pt">etcd v3 (Go 1.5)</text>
<path d="M1055,619.9L1080,619.9" style="fill:none;stroke:#CE7058;stroke-width:1.875;stroke-dasharray:12.5,2.5,2.5,2.5,2.5,2.5,2.5,2.5" />
<text x="943.28" y="-612.85" transform="scale(1, -1)"
	style="font-family:Helvetica;font-weight:normal;font-style:normal;font-size:12pt">etcd v2 (Go 1.4)</text>
<path d="M1055,605.2L1080,605.2" style="fill:none;stroke:#D77FB4;stroke-width:1.875;stroke-dasharray:12.5,2.5,2.5,2.5" />
<text x="959.11" y="-598.15" transform="scale(1, -1)"
	style="font-family:Helvetica;font-weight:normal;font-style:normal;font-size:12pt">Consul v0.6.4</text>
</g>
</svg>
