<?xml version="1.0"?>
<!-- Generated by SVGo and Plotinum VG -->
<svg width="12in" height="8in"
	xmlns="http://www.w3.org/2000/svg"
	xmlns:xlink="http://www.w3.org/1999/xlink">
<g transform="scale(1, -1) translate(0, -720)">
<path d="M0,0L1080,0L1080,720L0,720Z" style="fill:#FFFFFF" />
<text x="253.18" y="-705.6" transform="scale(1, -1)"
	style="font-family:Helvetica;font-weight:normal;font-style:normal;font-size:12pt">Write 2M keys, 1000-client (etcd v3 100-conn), 8-byte key, 256-byte value, Throughput</text>
<text x="552.11" y="-4.8486" transform="scale(1, -1)"
	style="font-family:Helvetica;font-weight:normal;font-style:normal;font-size:12pt">Second</text>
<text x="71.609" y="-19.498" transform="scale(1, -1)"
	style="font-family:Helvetica;font-weight:normal;font-style:normal;font-size:10pt">0</text>
<text x="341.24" y="-19.498" transform="scale(1, -1)"
	style="font-family:Helvetica;font-weight:normal;font-style:normal;font-size:10pt">600</text>
<text x="614.35" y="-19.498" transform="scale(1, -1)"
	style="font-family:Helvetica;font-weight:normal;font-style:normal;font-size:10pt">1200</text>
<text x="890.93" y="-19.498" transform="scale(1, -1)"
	style="font-family:Helvetica;font-weight:normal;font-style:normal;font-size:10pt">1800</text>
<path d="M75.085,31.498L75.085,41.498" style="fill:none;stroke:#000000;stroke-width:0.625" />
<path d="M351.67,31.498L351.67,41.498" style="fill:none;stroke:#000000;stroke-width:0.625" />
<path d="M628.25,31.498L628.25,41.498" style="fill:none;stroke:#000000;stroke-width:0.625" />
<path d="M904.83,31.498L904.83,41.498" style="fill:none;stroke:#000000;stroke-width:0.625" />
<path d="M167.28,36.498L167.28,41.498" style="fill:none;stroke:#000000;stroke-width:0.625" />
<path d="M259.47,36.498L259.47,41.498" style="fill:none;stroke:#000000;stroke-width:0.625" />
<path d="M443.86,36.498L443.86,41.498" style="fill:none;stroke:#000000;stroke-width:0.625" />
<path d="M536.06,36.498L536.06,41.498" style="fill:none;stroke:#000000;stroke-width:0.625" />
<path d="M720.44,36.498L720.44,41.498" style="fill:none;stroke:#000000;stroke-width:0.625" />
<path d="M812.64,36.498L812.64,41.498" style="fill:none;stroke:#000000;stroke-width:0.625" />
<path d="M997.03,36.498L997.03,41.498" style="fill:none;stroke:#000000;stroke-width:0.625" />
<path d="M75.085,41.498L1080,41.498" style="fill:none;stroke:#000000;stroke-width:0.625" />
<g transform="rotate(90)">
<text x="336.05" y="14.399" transform="scale(1, -1)"
	style="font-family:Helvetica;font-weight:normal;font-style:normal;font-size:12pt">Throughput</text>
</g>
<text x="47.404" y="-42.186" transform="scale(1, -1)"
	style="font-family:Helvetica;font-weight:normal;font-style:normal;font-size:10pt">0</text>
<text x="19.248" y="-183.14" transform="scale(1, -1)"
	style="font-family:Helvetica;font-weight:normal;font-style:normal;font-size:10pt">1e+04</text>
<text x="19.248" y="-324.09" transform="scale(1, -1)"
	style="font-family:Helvetica;font-weight:normal;font-style:normal;font-size:10pt">2e+04</text>
<text x="19.248" y="-465.04" transform="scale(1, -1)"
	style="font-family:Helvetica;font-weight:normal;font-style:normal;font-size:10pt">3e+04</text>
<text x="19.248" y="-605.99" transform="scale(1, -1)"
	style="font-family:Helvetica;font-weight:normal;font-style:normal;font-size:10pt">4e+04</text>
<path d="M57.828,48.06L67.828,48.06" style="fill:none;stroke:#000000;stroke-width:0.625" />
<path d="M57.828,189.01L67.828,189.01" style="fill:none;stroke:#000000;stroke-width:0.625" />
<path d="M57.828,329.96L67.828,329.96" style="fill:none;stroke:#000000;stroke-width:0.625" />
<path d="M57.828,470.92L67.828,470.92" style="fill:none;stroke:#000000;stroke-width:0.625" />
<path d="M57.828,611.87L67.828,611.87" style="fill:none;stroke:#000000;stroke-width:0.625" />
<path d="M62.828,118.54L67.828,118.54" style="fill:none;stroke:#000000;stroke-width:0.625" />
<path d="M62.828,259.49L67.828,259.49" style="fill:none;stroke:#000000;stroke-width:0.625" />
<path d="M62.828,400.44L67.828,400.44" style="fill:none;stroke:#000000;stroke-width:0.625" />
<path d="M62.828,541.39L67.828,541.39" style="fill:none;stroke:#000000;stroke-width:0.625" />
<path d="M62.828,682.34L67.828,682.34" style="fill:none;stroke:#000000;stroke-width:0.625" />
<path d="M67.828,48.06L67.828,700.75" style="fill:none;stroke:#000000;stroke-width:0.625" />
<path d="M75.085,108.42L75.546,271.5L76.007,400.17L76.468,510.82L76.929,569.19L77.39,643.98L77.851,620.86L78.312,607.78L78.773,616.63L79.234,600.76L79.695,585.34L80.156,314.47L80.617,315.87L81.078,634.24L81.539,588.05L82,608.1L82.461,416.11L82.922,394.15L83.383,700.75L83.844,469.28L84.305,196.34L84.766,647.02L85.227,654.29L85.688,638.28L86.149,477.27L86.61,600.56L87.071,580.18L87.532,627.13L87.993,666.53L88.454,48.06L88.915,278.09L89.376,93.08L89.836,230.75L90.297,662.92L90.758,547.62L91.219,605.07L91.68,481.33L92.141,653.52L92.602,599.37L93.063,544.2L93.524,74.052L93.985,76.335L94.446,62.367L94.907,76.265L95.368,48.074L95.829,48.06L96.29,48.06L96.751,48.06L97.212,48.06L97.673,48.06L98.134,48.06L98.595,48.06L99.056,48.06L99.517,48.06L99.978,48.06L100.44,48.06L100.9,48.06L101.36,48.06L101.82,48.06L102.28,48.06L102.74,48.06L103.2,358.03L103.67,125.23L104.13,655.15L104.59,602.51L105.05,538.21L105.51,645.56L105.97,388.6L106.43,95.307L106.89,336.25L107.35,48.088L107.81,48.06L108.28,48.06L108.74,48.06L109.2,48.06L109.66,48.06L110.12,48.06L110.58,48.06L111.04,229.59L111.5,533.79L111.96,442.03L112.42,645.54L112.88,608.77L113.35,481.32L113.81,48.06L114.27,57.462L114.73,660.27L115.19,564.54L115.65,595.43L116.11,645.75L116.57,604.59L117.03,694.45L117.49,473.14" style="fill:none;stroke:#F15A60;stroke-width:1.875" />
<path d="M75.085,350.81L75.546,636.75L76.007,548.13L76.468,597.66L76.929,571.56L77.39,586.62L77.851,577.29L78.312,572.71L78.773,568.54L79.234,561.72L79.695,565.28L80.156,568.05L80.617,562.44L81.078,578.53L81.539,554.88L82,569.03L82.461,549.4L82.922,579.39L83.383,578.57L83.844,556.56L84.305,575.94L84.766,567.4L85.227,542.89L85.688,544.35L86.149,566.59L86.61,547.34L87.071,531.72L87.532,549.07L87.993,520.14L88.454,493.91L88.915,564.94L89.376,542.65L89.836,484.12L90.297,593.74L90.758,563.87L91.219,539.01L91.68,515.44L92.141,539.05L92.602,561.93L93.063,550.26L93.524,544.28L93.985,571.94L94.446,568.89L94.907,547.35L95.368,529.61L95.829,544.13L96.29,554.33L96.751,570.5L97.212,527.34L97.673,525.44L98.134,546.44L98.595,522.39L99.056,515.27L99.517,614.26L99.978,533.06L100.44,502.88" style="fill:none;stroke:#7AC36A;stroke-width:1.875;stroke-dasharray:7.5,2.5" />
<path d="M75.085,154.14L75.546,585.76L76.007,549.78L76.468,526L76.929,530.74L77.39,512.93L77.851,522L78.312,504.93L78.773,523.32L79.234,491L79.695,496.34L80.156,517.82L80.617,502.36L81.078,501.52L81.539,508.35L82,501.76L82.461,516.13L82.922,482.16L83.383,502.08L83.844,501.57L84.305,502.52L84.766,497.39L85.227,503.12L85.688,483.31L86.149,472.58L86.61,481.01L87.071,486.62L87.532,524.66L87.993,474.14L88.454,495.19L88.915,494.16L89.376,463.47L89.836,512.06L90.297,521.53L90.758,452.9L91.219,509.87L91.68,517.92L92.141,507.65L92.602,488.97L93.063,493.45L93.524,467.46L93.985,523.46L94.446,501.05L94.907,503.12L95.368,487.03L95.829,489.93L96.29,491.69L96.751,500.08L97.212,486.55L97.673,528.35L98.134,515.16L98.595,481.63L99.056,460.64L99.517,518.06L99.978,468.66L100.44,495.7L100.9,574.63L101.36,469.93L101.82,502.5L102.28,466.76L102.74,483.11L103.2,575.38" style="fill:none;stroke:#5A9BD4;stroke-width:1.875;stroke-dasharray:2.5,2.5" />
<path d="M75.085,204L75.546,610.63L76.007,576.32L76.468,507.07L76.929,503.19L77.39,514.55L77.851,469.52L78.312,492.71L78.773,502.63L79.234,500.15L79.695,503.69L80.156,492.58L80.617,507.14L81.078,456.05L81.539,474.23L82,469.32L82.461,475.07L82.922,483.29L83.383,485.59L83.844,481.44L84.305,478.17L84.766,473.04L85.227,473.75L85.688,491.83L86.149,488.15L86.61,468.36L87.071,496.56L87.532,410.21L87.993,525.2L88.454,440.41L88.915,494.79L89.376,488.72L89.836,430.15L90.297,483.05L90.758,482.81L91.219,476.65L91.68,441.49L92.141,487.38L92.602,487.1L93.063,479.09L93.524,477.79L93.985,478.15L94.446,484.55L94.907,452.78L95.368,451.86L95.829,492.37L96.29,463.12L96.751,429.35L97.212,438.69L97.673,509.4L98.134,450.25L98.595,500.02L99.056,458.72L99.517,500.59L99.978,468.15L100.44,463.98L100.9,472.83L101.36,489.94L101.82,512.52L102.28,480.49L102.74,452.07L103.2,486.51L103.67,559.57L104.13,455.58L104.59,466.94" style="fill:none;stroke:#FAA75B;stroke-width:1.875;stroke-dasharray:1.25,1.25" />
<path d="M75.085,57.631L75.546,69.302L76.007,79.662L76.468,75.842L76.929,74.728L77.39,75.546L77.851,84.454L78.312,68.033L78.773,80.507L79.234,85.004L79.695,64.932L80.156,84.905L80.617,73.192L81.078,86.23L81.539,70.965L82,74.531L82.461,78.985L82.922,63.283L83.383,82.537L83.844,74.841L84.305,63.283L84.766,65.158L85.227,68.442L85.688,66.314L86.149,74.334L86.61,65.44L87.071,68.259L87.532,74.122L87.993,74.813L88.454,82.41L88.915,68.808L89.376,62.846L89.836,61.817L90.297,74.334L90.758,75.391L91.219,77.674L91.68,69.062L92.141,67.399L92.602,59.675L93.063,76.674L93.524,71.12L93.985,71.599L94.446,77.702L94.907,71.106L95.368,58.378L95.829,62.057L96.29,63.762L96.751,82.213L97.212,71.472L97.673,73.234L98.134,65.764L98.595,57.391L99.056,87.273L99.517,70.317L99.978,68.315L100.44,83.073L100.9,49.47L101.36,64.326L101.82,77.096L102.28,78.83L102.74,71.909L103.2,61.634L103.67,63.805L104.13,69.133L104.59,78.027L105.05,67.892L105.51,64.805L105.97,49.54L106.43,66.201L106.89,69.119L107.35,69.372L107.81,79.704L108.28,63.706L108.74,48.06L109.2,80.211L109.66,65.877L110.12,75.941L110.58,65.285L111.04,55.517L111.5,50.795L111.96,69.203L112.42,57.293L112.88,78.915L113.35,78.802L113.81,77.054L114.27,62.184L114.73,48.06L115.19,61.282L115.65,48.06L116.11,64.171L116.57,85.709L117.03,79.676L117.49,75.898L117.96,48.06L118.42,56.066L118.88,65.172L119.34,78.464L119.8,62.804L120.26,65.468L120.72,61.845L121.18,48.06L121.64,64.072L122.1,49.597L122.57,55.911L123.03,73.22L123.49,76.772L123.95,67.357L124.41,74.714L124.87,51.753L125.33,48.06L125.79,52.754L126.25,48.497L126.71,72.248L127.18,77.223L127.64,77.237L128.1,69.682L128.56,48.06L129.02,60.52L129.48,52.077L129.94,51.471L130.4,73.262L130.86,68.978L131.32,82.241L131.78,67.512L132.25,48.06L132.71,52.909L133.17,50.273L133.63,54.699L134.09,58.434L134.55,66.99L135.01,81.987L135.47,66.285L135.93,72.981L136.39,59.858L136.86,48.06L137.32,52.754L137.78,48.06L138.24,58.463L138.7,91.234L139.16,67.061L139.62,64.538L140.08,75.546L140.54,48.06L141,51.584L141.47,52.754L141.93,48.06L142.39,53.825L142.85,84.595L143.31,75.334L143.77,69.203L144.23,62.085L144.69,48.06L145.15,48.06L145.61,48.06L146.07,52.754L146.54,48.06L147,48.06L147.46,58.533L147.92,70.288L148.38,69.048L148.84,66.046L149.3,63.128L149.76,48.06L150.22,48.06L150.68,48.06L151.15,64.679L151.61,48.06L152.07,48.06L152.53,68.639L152.99,69.499L153.45,48.06L153.91,69.936L154.37,78.703L154.83,48.06L155.29,48.06L155.76,48.511L156.22,81.367L156.68,76.561L157.14,69.02L157.6,48.06L158.06,48.06L158.52,48.06L158.98,52.035L159.44,48.06L159.9,59.872L160.36,80.423L160.83,62.198L161.29,78.266L161.75,62.381L162.21,48.06L162.67,48.06L163.13,48.06L163.59,52.641L164.05,48.06L164.51,63.339L164.97,70.176L165.44,76.166L165.9,68.456L166.36,65.186L166.82,48.06L167.28,48.06L167.74,48.06L168.2,58.618L168.66,48.06L169.12,60.577L169.58,78.886L170.05,81.001L170.51,73.869L170.97,48.06L171.43,48.06L171.89,57.631L172.35,48.06L172.81,56.546L173.27,75.024L173.73,61.704L174.19,78.746L174.65,48.06L175.12,48.06L175.58,48.06L176.04,48.06L176.5,53.783L176.96,48.06L177.42,48.06L177.88,48.06L178.34,55.573L178.8,71.064L179.26,51.908L179.73,49.442L180.19,48.06L180.65,69.259L181.11,68.033L181.57,48.878L182.03,55.77L182.49,59.661L182.95,68.075L183.41,62.86L183.87,57.067L184.34,48.06L184.8,52.768L185.26,48.06L185.72,48.06L186.18,75.222L186.64,48.06L187.1,70.415L187.56,65.75L188.02,59.928L188.48,67.808L188.95,48.06L189.41,53.078L189.87,48.06L190.33,52.754L190.79,70.105L191.25,52.74L191.71,52.049L192.17,78.872L192.63,69.443L193.09,72.332L193.55,48.074L194.02,56.687L194.48,57.73L194.94,57.095L195.4,48.554L195.86,48.06L196.32,65.947L196.78,76.321L197.24,64.411L197.7,48.06L198.16,59.661L198.63,48.06L199.09,50.865L199.55,74.503L200.01,48.06L200.47,74.348L200.93,72.29L201.39,69.006L201.85,64.96L202.31,48.06L202.77,48.06L203.24,48.06L203.7,48.06L204.16,52.768L204.62,48.06L205.08,48.06L205.54,48.06L206,52.768L206.46,75.786L206.92,66.328L207.38,55.954L207.84,48.229L208.31,66.003L208.77,76.138L209.23,49.512L209.69,51.048L210.15,48.06L210.61,48.06L211.07,56.419L211.53,73.812L211.99,57.011L212.45,51.866L212.92,66.624L213.38,65.975L213.84,54.178L214.3,48.06L214.76,48.06L215.22,55.587L215.68,48.06L216.14,75.616L216.6,68.484L217.06,70.077L217.53,48.991L217.99,48.06L218.45,48.06L218.91,48.06L219.37,65.679L219.83,48.074L220.29,60.408L220.75,48.06L221.21,48.06L221.67,50.132L222.13,65.44L222.6,62.649L223.06,48.06L223.52,60.831L223.98,83.608L224.44,51.232L224.9,52.754L225.36,48.06L225.82,48.06L226.28,50.795L226.74,65.101L227.21,71.994L227.67,48.06L228.13,58.787L228.59,61.549L229.05,52.768L229.51,48.06L229.97,48.06L230.43,48.06L230.89,48.06L231.35,56.503L231.82,71.176L232.28,48.06L232.74,59.872L233.2,58.463L233.66,48.06L234.12,48.06L234.58,48.06L235.04,48.892L235.5,53.924L235.96,68.047L236.42,70.458L236.89,74.954L237.35,48.06L237.81,60.379L238.27,58.42L238.73,48.06L239.19,48.06L239.65,52.768L240.11,65.947L240.57,48.06L241.03,70.007L241.5,74.912L241.96,61.986L242.42,55.178L242.88,54.558L243.34,61.169L243.8,48.06L244.26,48.06L244.72,48.06L245.18,48.06L245.64,57.095L246.11,48.06L246.57,68.47L247.03,73.953L247.49,64.819L247.95,52.655L248.41,48.06L248.87,62.381L249.33,53.459L249.79,48.06L250.25,48.709L250.72,67.314L251.18,48.06L251.64,48.06L252.1,62.776L252.56,72.05L253.02,69.795L253.48,48.06L253.94,50.569L254.4,71.247L254.86,48.06L255.32,48.06L255.79,69.978L256.25,48.06L256.71,48.06L257.17,48.582L257.63,75.419L258.09,78.915L258.55,51.514L259.01,48.06L259.47,60.013L259.93,59.153L260.4,48.06L260.86,52.754L261.32,72.6L261.78,48.06L262.24,48.06L262.7,66.003L263.16,83.355L263.62,57.391L264.08,48.06L264.54,64.58L265.01,61.155L265.47,48.06L265.93,48.06L266.39,64.538L266.85,53.924L267.31,48.06L267.77,48.06L268.23,64.115L268.69,67.709L269.15,69.161L269.61,48.06L270.08,61.916L270.54,56.997L271,49.413L271.46,48.06L271.92,70.979L272.38,53.783L272.84,48.06L273.3,48.06L273.76,66.285L274.22,61.423L274.69,67.864L275.15,48.06L275.61,61.845L276.07,63.621L276.53,48.06L276.99,48.06L277.45,64.65L277.91,50.527L278.37,48.06L278.83,48.06L279.3,48.06L279.76,72.008L280.22,76.448L280.68,54.516L281.14,48.06L281.6,62.184L282.06,59.787L282.52,48.06L282.98,48.06L283.44,48.06L283.9,57.307L284.37,48.962L284.83,48.06L285.29,72.84L285.75,67.117L286.21,71.36L286.67,48.06L287.13,48.06L287.59,65.341L288.05,52.345L288.51,48.06L288.98,48.06L289.44,48.06L289.9,52.754L290.36,48.06L290.82,56.954L291.28,74.15L291.74,66.384L292.2,65.961L292.66,48.06L293.12,75.081L293.59,50.809L294.05,48.06L294.51,48.06L294.97,48.06L295.43,55.066L295.89,48.06L296.35,55.094L296.81,66.243L297.27,76.321L297.73,58.956L298.19,48.06L298.66,48.06L299.12,64.171L299.58,57.363L300.04,48.06L300.5,48.06L300.96,62.86L301.42,53.219L301.88,48.06L302.34,48.06L302.8,69.006L303.27,72.924L303.73,66.018L304.19,48.06L304.65,67.23L305.11,54.896L305.57,48.06L306.03,48.06L306.49,56.334L306.95,59.872L307.41,48.06L307.88,67.427L308.34,69.555L308.8,70.697L309.26,54.798L309.72,48.06L310.18,57.631L310.64,63.354L311.1,48.06L311.56,48.06L312.02,50.259L312.48,57.828L312.95,48.06L313.41,48.06L313.87,48.06L314.33,61.352L314.79,71.035L315.25,60.267L315.71,48.06L316.17,68.188L316.63,48.06L317.09,48.06L317.56,48.06L318.02,51.683L318.48,48.06L318.94,48.06L319.4,58.11L319.86,65.693L320.32,80.578L320.78,56.983L321.24,48.06L321.7,60.295L322.17,64.326L322.63,48.06L323.09,48.06L323.55,48.06L324.01,48.06L324.47,52.655L324.93,48.06L325.39,48.06L325.85,57.462L326.31,65.355" style="fill:none;stroke:#9E67AB;stroke-width:1.875;stroke-dasharray:6.25,2.5,1.25,2.5" />
<path d="M75.085,174.37L75.546,202.32L76.007,176.16L76.468,180.54L76.929,172.68L77.39,175.26L77.851,185.01L78.312,176.02L78.773,184.59L79.234,178.86L79.695,175.68L80.156,173.73L80.617,177.74L81.078,181.6L81.539,172.21L82,184.09L82.461,169.53L82.922,185.67L83.383,183.18L83.844,172.37L84.305,178.2L84.766,177.91L85.227,177.96L85.688,179.41L86.149,182.29L86.61,167.67L87.071,184.4L87.532,181.74L87.993,186.9L88.454,180.68L88.915,174.8L89.376,178.89L89.836,162.91L90.297,176.41L90.758,185.83L91.219,164.56L91.68,180.26L92.141,181.4L92.602,167.94L93.063,177.47L93.524,179.22L93.985,174.42L94.446,190.34L94.907,162.68L95.368,185.36L95.829,172.79L96.29,185.78L96.751,171.73L97.212,182.49L97.673,164.9L98.134,184.08L98.595,166.23L99.056,195.1L99.517,151.34L99.978,192.65L100.44,162.01L100.9,188.7L101.36,155.55L101.82,182.71L102.28,164.54L102.74,193.69L103.2,181.5L103.67,179.64L104.13,195.72L104.59,158.12L105.05,186.79L105.51,163.44L105.97,182.7L106.43,189.82L106.89,158.26L107.35,199.37L107.81,162.17L108.28,177.95L108.74,192.83L109.2,154.23L109.66,180.1L110.12,189.58L110.58,159.54L111.04,186.07L111.5,187.98L111.96,155.68L112.42,193.71L112.88,178.13L113.35,155.31L113.81,193.28L114.27,193.06L114.73,157.16L115.19,187.14L115.65,196.81L116.11,158L116.57,196.06L117.03,184.74L117.49,154.03L117.96,189.82L118.42,190.46L118.88,176.64L119.34,166.74L119.8,194.06L120.26,195.99L120.72,147.9L121.18,190.68L121.64,185.21L122.1,163.61L122.57,180.72L123.03,186.52L123.49,194.68L123.95,146.08L124.41,184.83L124.87,175.64L125.33,193.49L125.79,143.77L126.25,185.18L126.71,179.77L127.18,199.26L127.64,134.66L128.1,180.33L128.56,184.04L129.02,182.84L129.48,149.9L129.94,177.64L130.4,186.98L130.86,189.45L131.32,163.58L131.78,159.45L132.25,182.15L132.71,189.15L133.17,190.52L133.63,135.63L134.09,184.28L134.55,180.92L135.01,182.12L135.47,165.06L135.93,166.22L136.39,192.56L136.86,194.48L137.32,188.36L137.78,132.53L138.24,178.65L138.7,190.68L139.16,197.92L139.62,155.55L140.08,165.53L140.54,198.61L141,163.91L141.47,188.53L141.93,156.73L142.39,162.7L142.85,181.54L143.31,172.61L143.77,187.39L144.23,174.8L144.69,133.38L145.15,189.91L145.61,191.44L146.07,176.27L146.54,193.47L147,121.85L147.46,185.11L147.92,187.55L148.38,189.97L148.84,173.39L149.3,134.06L149.76,177.83L150.22,176.33L150.68,182.44L151.15,189.42L151.61,193L152.07,123.85L152.53,201.99L152.99,188.55L153.45,190.48L153.91,173.55L154.37,126.44L154.83,183.92L155.29,181.36L155.76,182.5L156.22,164.99L156.68,134.03L157.14,176.59L157.6,178.06L158.06,192.76L158.52,131.66L158.98,146.98L159.44,180.17L159.9,180.48L160.36,136.68L160.83,48.06L161.29,48.06L161.75,61.775L162.21,83.242L162.67,88.654L163.13,73.826L163.59,93.221L164.05,79.211L164.51,97.661L164.97,92.263L165.44,87.456L165.9,94.067L166.36,56.658L166.82,53.374L167.28,51.88L167.74,48.06L168.2,49.005L168.66,48.06L169.12,48.06L169.58,48.976L170.05,48.06L170.51,48.06L170.97,48.976L171.43,48.06L171.89,48.976L172.35,48.06L172.81,48.06L173.27,48.976L173.73,48.06L174.19,48.06L174.65,48.06L175.12,48.06L175.58,48.06L176.04,49.893L176.5,48.06L176.96,48.976L177.42,48.06L177.88,48.06L178.34,54.46L178.8,67.3L179.26,55.39L179.73,54.474L180.19,53.543L180.65,57.236L181.11,55.39L181.57,54.474L182.03,55.376L182.49,53.6L182.95,55.418L183.41,57.152L183.87,52.641L184.34,57.208L184.8,55.376L185.26,52.641L185.72,57.208L186.18,56.292L186.64,52.641L187.1,57.222L187.56,52.641L188.02,49.879L188.48,48.074L188.95,48.962L189.41,48.06L189.87,48.06L190.33,48.074L190.79,48.06L191.25,48.06L191.71,48.962L192.17,50.823L192.63,51.711L193.09,50.823L193.55,51.161L194.02,49.893L194.48,50.809L194.94,51.725L195.4,50.809L195.86,50.809L196.32,49.357L196.78,49.005L197.24,50.738L197.7,49.921L198.16,50.781L198.63,49.893L199.09,49.907L199.55,49.329L200.01,48.976L200.47,49.005L200.93,49.005L201.39,49.85L201.85,49.879L202.31,49.019L202.77,49.893L203.24,48.962L203.7,49.879L204.16,49.864L204.62,48.441L205.08,48.976L205.54,48.948L206,48.976L206.46,48.991L206.92,49.005L207.38,49.005L207.84,48.991L208.31,49.822L208.77,49.047L209.23,49.822L209.69,49.047L210.15,49.808L210.61,48.455L211.07,48.413L211.53,49.498L211.99,48.173L212.45,48.948L212.92,49.822L213.38,49.033L213.84,48.991L214.3,49.089L214.76,49.766L215.22,48.934L215.68,49.879L216.14,49.019L216.6,48.991L217.06,48.455L217.53,48.92L217.99,48.962L218.45,48.948L218.91,48.976L219.37,49.019L219.83,49.019L220.29,49.794L220.75,48.286L221.21,49.752L221.67,48.948L222.13,49.85L222.6,49.033L223.06,48.976L223.52,48.441L223.98,48.948L224.44,48.934L224.9,48.962L225.36,48.976L225.82,49.005L226.28,49.005L226.74,49.005L227.21,48.934L227.67,49.864L228.13,48.187L228.59,49.794L229.05,49.836L229.51,49.005L229.97,48.441L230.43,48.159L230.89,48.948L231.35,48.948L231.82,48.92L232.28,48.976L232.74,49.005L233.2,48.991L233.66,49.005L234.12,48.976L234.58,49.808L235.04,48.215L235.5,49.724L235.96,49.033L236.42,49.019L236.89,48.962L237.35,48.441L237.81,48.92L238.27,48.934L238.73,48.201L239.19,49.653L239.65,48.244L240.11,49.019L240.57,49.808L241.03,48.92L241.5,48.3L241.96,49.752L242.42,48.991L242.88,49.78L243.34,49.033L243.8,49.005L244.26,48.427L244.72,48.342L245.18,49.526L245.64,48.962L246.11,48.892L246.57,48.06L247.03,48.06L247.49,48.06L247.95,51.824L248.41,48.06L248.87,48.06L249.33,48.06L249.79,48.06L250.25,48.06L250.72,48.06L251.18,48.06L251.64,48.06L252.1,56.743L252.56,48.06L253.02,48.06L253.48,48.06L253.94,48.06L254.4,48.06L254.86,48.06L255.32,53.374L255.79,48.06L256.25,48.06L256.71,48.06L257.17,48.06L257.63,50.16L258.09,53.29L258.55,58.124L259.01,53.557L259.47,52.275L259.93,57.589L260.4,54.474L260.86,54.474L261.32,54.474L261.78,55.376L262.24,52.655L262.7,54.474L263.16,51.711L263.62,51.725L264.08,51.725L264.54,51.02L265.01,51.528L265.47,51.711L265.93,50.823L266.39,50.245L266.85,51.711L267.31,50.837L267.77,52.613L268.23,49.921L268.69,50.259L269.15,51.711L269.61,50.809L270.08,51.119L270.54,50.513L271,50.217L271.46,48.088L271.92,48.06L272.38,48.06L272.84,48.06L273.3,48.948L273.76,48.06L274.22,48.06L274.69,48.06L275.15,50.372L275.61,54.375L276.07,52.641L276.53,51.26L276.99,50.809L277.45,51.626L277.91,52.641L278.37,49.47L278.83,49.864L279.3,49.879L279.76,50.738L280.22,49.893L280.68,51.64L281.14,49.061L281.6,49.428L282.06,48.991L282.52,48.976L282.98,49.85L283.44,49.85L283.9,48.976L284.37,49.85L284.83,49.879L285.29,50.738L285.75,48.173L286.21,49.428L286.67,48.976L287.13,48.159L287.59,49.794L288.05,49.879L288.51,49.822L288.98,48.991L289.44,50.71L289.9,49.879L290.36,49.047L290.82,49.428L291.28,48.976L291.74,48.173L292.2,49.794L292.66,49.879L293.12,49.54L293.59,49.258L294.05,49.864L294.51,50.738L294.97,49.033L295.43,49.019L295.89,48.568L296.35,49.005L296.81,49.752L297.27,49.85L297.73,49.864L298.19,49.019L298.66,49.85L299.12,49.921L299.58,49.836L300.04,49.005L300.5,48.61L300.96,48.991L301.42,49.766L301.88,49.836L302.34,49.864L302.8,49.019L303.27,49.85L303.73,49.935L304.19,49.85L304.65,48.991L305.11,48.61L305.57,49.033L306.03,48.06L306.49,48.06L306.95,48.06L307.41,53.388L307.88,48.06L308.34,48.06L308.8,48.06L309.26,48.06L309.72,55.855L310.18,48.06L310.64,48.06L311.1,48.06L311.56,48.06L312.02,48.06L312.48,48.06L312.95,48.06L313.41,48.06L313.87,48.06L314.33,48.06L314.79,48.06L315.25,48.06L315.71,48.06L316.17,48.06L316.63,48.06L317.09,59.985L317.56,54.46L318.02,54.474L318.48,54.474L318.94,55.39L319.4,54.474L319.86,54.474L320.32,54.474L320.78,53.529L321.24,53.572L321.7,56.306L322.17,53.557L322.63,56.306L323.09,52.627L323.55,53.543L324.01,49.907L324.47,53.106L324.93,51.246L325.39,51.711L325.85,51.711L326.31,50.809L326.78,50.612L327.24,52.289L327.7,50.809L328.16,50.809L328.62,51.739L329.08,51.147L329.54,50.809L330,50.823L330.46,51.711L330.92,51.161L331.38,50.823L331.85,50.795L332.31,50.809L332.77,51.739L333.23,49.935L333.69,51.119L334.15,50.809L334.61,50.823L335.07,50.781L335.53,49.949L335.99,51.133L336.46,50.795L336.92,50.823L337.38,50.851L337.84,50.767L338.3,50.259L338.76,50.837L339.22,50.795L339.68,50.781L340.14,49.963L340.6,50.767L341.07,50.217L341.53,49.949L341.99,50.767L342.45,50.837L342.91,50.752L343.37,49.921L343.83,50.231L344.29,49.949L344.75,50.767L345.21,49.949L345.67,50.555L346.14,50.992L346.6,49.371L347.06,49.893L347.52,50.781L347.98,49.047L348.44,51.711L348.9,50.738L349.36,49.146L349.82,50.09L350.28,49.921L350.75,50.795L351.21,49.047L351.67,50.781L352.13,50.738L352.59,49.146L353.05,50.992L353.51,49.061L353.97,50.752L354.43,49.075L354.89,50.767L355.36,50.738L355.82,50.048L356.28,50.118L356.74,49.033L357.2,50.752L357.66,49.935L358.12,50.823L358.58,49.808L359.04,49.54L359.5,50.597L359.96,49.033L360.43,50.781L360.89,49.089L361.35,50.738L361.81,49.893L362.27,49.977L362.73,49.963L363.19,50.048L363.65,49.075L364.11,49.85L364.57,49.893L365.04,50.837L365.5,49.794L365.96,49.16L366.42,50.837L366.88,49.146L367.34,49.061L367.8,50.781L368.26,49.921L368.72,49.893L369.18,49.836L369.65,50.02L370.11,49.033L370.57,50.048L371.03,49.061L371.49,50.767L371.95,49.879L372.41,49.005L372.87,48.962L373.33,48.06L373.79,48.088L374.25,49.794L374.72,49.146L375.18,49.949L375.64,50.034L376.1,49.047L376.56,49.864L377.02,49.061L377.48,49.893L377.94,49.879L378.4,48.962L378.86,49.893L379.33,49.977L379.79,49.202L380.25,49.047L380.71,49.864L381.17,48.92L381.63,49.047L382.09,49.893L382.55,49.879L383.01,48.948L383.47,49.879L383.94,49.089L384.4,49.949L384.86,49.146L385.32,49.005L385.78,49.047L386.24,49.808L386.7,49.047L387.16,49.005L387.62,49.864L388.08,49.78L388.55,49.061L389.01,49.075L389.47,49.949L389.93,49.174L390.39,49.033L390.85,49.752L391.31,49.061L391.77,49.836L392.23,49.047L392.69,49.808L393.15,49.019L393.62,49.047L394.08,49.977L394.54,49.16L395,49.879L395.46,48.215L395.92,49.794L396.38,49.047L396.84,48.948L397.3,49.019L397.76,48.06L398.23,48.06L398.69,48.06L399.15,55.418L399.61,48.06L400.07,48.06L400.53,48.06L400.99,48.06L401.45,48.06L401.91,48.06L402.37,48.06L402.84,48.06L403.3,48.06L403.76,48.06L404.22,48.06L404.68,58.448L405.14,48.06L405.6,48.06L406.06,48.06L406.52,48.06L406.98,48.06L407.44,48.074L407.91,48.06L408.37,49.893L408.83,52.627L409.29,54.474L409.75,55.376L410.21,53.557L410.67,55.376L411.13,55.376L411.59,53.557L412.05,55.376L412.52,54.445L412.98,54.502L413.44,54.474L413.9,53.557L414.36,57.222L414.82,51.711L415.28,51.725L415.74,50.795L416.2,50.823L416.66,51.979L417.13,51.457L417.59,50.823L418.05,51.725L418.51,51.189L418.97,52.613L419.43,50.809L419.89,51.725L420.35,51.175L420.81,51.725L421.27,50.809L421.73,51.683L422.2,50.287L422.66,50.795L423.12,51.739L423.58,49.921L424.04,51.669L424.5,50.287L424.96,50.809L425.42,50.837L425.88,50.767L426.34,51.697L426.81,50.259L427.27,49.935L427.73,51.697L428.19,50.809L428.65,49.963L429.11,50.767L429.57,50.259L430.03,50.809L430.49,51.683L430.95,49.949L431.42,50.738L431.88,50.273L432.34,49.977L432.8,51.655L433.26,50.865L433.72,49.907L434.18,50.696L434.64,49.399L435.1,49.991L435.56,52.486L436.02,50.005L436.49,50.795L436.95,49.794L437.41,49.428L437.87,51.598L438.33,51.753L438.79,49.695L439.25,50.189L439.71,50.175L440.17,49.949L440.63,50.696L441.1,50.837L441.56,50.612L442.02,50.189L442.48,49.808L442.94,50.316L443.4,49.991L443.86,49.836L444.32,50.738L444.78,49.667L445.24,50.964L445.71,49.442L446.17,50.837L446.63,49.949L447.09,50.626L447.55,49.075L448.01,49.921L448.47,50.71L448.93,50.301L449.39,49.963L449.85,50.626L450.32,49.921L450.78,49.991L451.24,49.005L451.7,50.696L452.16,50.316L452.62,49.977L453.08,49.921L453.54,50.612L454,49.089L454.46,49.921L454.92,50.696L455.39,50.301L455.85,49.935L456.31,49.963L456.77,50.612L457.23,49.117L457.69,49.893L458.15,50.682L458.61,48.991L459.07,50.301L459.53,48.06L460,48.06L460.46,48.06L460.92,48.06L461.38,58.209L461.84,48.06L462.3,48.06L462.76,48.06L463.22,50.696L463.68,48.06L464.14,48.06L464.61,48.06L465.07,48.06L465.53,49.879L465.99,48.06L466.45,48.976L466.91,48.06L467.37,48.06L467.83,48.06L468.29,48.976L468.75,48.06L469.21,48.06L469.68,48.06L470.14,48.06L470.6,52.641L471.06,55.362L471.52,55.39L471.98,54.46L472.44,53.557L472.9,55.39L473.36,52.641L473.82,56.306L474.29,54.445L474.75,55.404L475.21,55.39L475.67,53.557L476.13,54.474L476.59,52.641L477.05,50.809L477.51,51.711L477.97,51.725L478.43,51.711L478.9,50.823L479.36,51.711L479.82,50.287L480.28,52.444L480.74,50.104L481.2,51.697L481.66,51.697L482.12,51.189L482.58,51.711L483.04,50.809L483.5,50.795L483.97,49.935L484.43,51.175L484.89,50.851L485.35,50.752L485.81,50.809L486.27,50.795L486.73,50.245L487.19,49.921L487.65,50.781L488.11,50.809L488.58,50.781L489.04,50.33L489.5,50.752L489.96,49.935L490.42,49.864L490.88,51.711L491.34,50.781L491.8,49.413L492.26,50.795L492.72,50.795L493.19,48.962L493.65,50.823L494.11,50.767L494.57,50.316L495.03,50.752L495.49,49.921L495.95,49.061L496.41,49.794L496.87,48.103L497.33,48.06L497.79,48.934L498.26,49.864L498.72,49.907L499.18,50.301L499.64,50.752L500.1,49.935L500.56,49.061L501.02,49.822L501.48,49.879L501.94,49.005L502.4,50.724L502.87,49.399L503.33,50.795L503.79,49.879L504.25,49.019L504.71,48.92L505.17,49.061L505.63,49.836L506.09,49.005L506.55,49.963L507.01,50.16L507.48,49.893L507.94,50.781L508.4,49.019L508.86,48.187L509.32,49.808L509.78,49.822L510.24,49.005L510.7,49.822L511.16,49.949L511.62,50.301L512.08,49.879L512.55,49.864L513.01,48.201L513.47,49.78L513.93,49.836L514.39,49.033L514.85,49.794L515.31,49.963L515.77,50.287L516.23,49.822L516.69,49.907L517.16,48.201L517.62,49.794L518.08,48.962L518.54,49.907L519,49.794L519.46,49.907L519.92,50.287L520.38,49.893L520.84,49.893L521.3,48.215L521.77,49.78L522.23,48.962L522.69,49.879L523.15,49.822L523.61,49.907L524.07,50.287L524.53,49.879L524.99,49.047L525.45,49.075L525.91,49.019L526.38,49.695L526.84,49.907L527.3,48.991L527.76,49.921L528.22,50.978L528.68,50.005L529.14,49.047L529.6,49.075L530.06,48.878L530.52,49.822L530.98,49.921L531.45,48.962L531.91,49.075L532.37,50.217L532.83,50.724L533.29,49.935L533.75,49.075L534.21,48.864L534.67,49.103L535.13,49.794L535.59,49.836L536.06,49.033L536.52,49.991L536.98,50.908L537.44,49.103L537.9,49.075L538.36,49.089L538.82,49.724L539.28,48.991L539.74,49.879L540.2,49.836L540.67,49.132L541.13,49.963L541.59,48.06L542.05,48.06L542.51,48.06L542.97,53.755L543.43,48.06L543.89,48.06L544.35,48.06L544.81,48.06L545.27,48.06L545.74,48.06L546.2,48.06L546.66,58.279L547.12,48.06L547.58,48.06L548.04,48.06L548.5,48.06L548.96,48.06L549.42,48.088L549.88,48.962L550.35,48.06L550.81,48.06L551.27,48.06L551.73,48.06L552.19,48.06L552.65,48.06L553.11,48.06L553.57,57.208L554.03,54.46L554.49,55.376L554.96,54.46L555.42,54.474L555.88,55.39L556.34,54.474L556.8,54.474L557.26,55.376L557.72,53.557L558.18,54.474L558.64,55.39L559.1,51.725L559.56,52.641L560.03,59.055L560.49,52.627L560.95,52.641L561.41,52.627L561.87,50.823L562.33,51.725L562.79,51.711L563.25,50.823L563.71,51.711L564.17,51.189L564.64,51.711L565.1,49.907L565.56,51.119L566.02,51.739L566.48,50.851L566.94,50.809L567.4,50.795L567.86,52.543L568.32,49.413L568.78,51.739L569.25,50.781L569.71,50.851L570.17,51.697L570.63,49.343L571.09,50.865L571.55,50.795L572.01,49.893L572.47,49.864L572.93,48.948L573.39,48.06L573.85,48.991L574.32,49.935L574.78,50.203L575.24,49.963L575.7,50.823L576.16,49.864L576.62,50.752L577.08,49.907L577.54,49.907L578,49.301L578.46,49.935L578.93,49.893L579.39,49.019L579.85,49.836L580.31,48.976L580.77,49.893L581.23,50.781L581.69,49.033L582.15,49.301L582.61,49.921L583.07,49.893L583.54,49.033L584,48.934L584.46,49.893L584.92,50.738L585.38,49.019L585.84,49.907L586.3,49.329L586.76,49.893L587.22,49.949L587.68,49.005L588.15,48.948L588.61,49.85L589.07,50.738L589.53,49.047L589.99,49.864L590.45,49.357L590.91,49.879L591.37,49.019L591.83,49.893L592.29,48.948L592.75,49.85L593.22,49.019L593.68,50.738L594.14,49.061L594.6,49.301L595.06,49.879L595.52,49.921L595.98,49.146L596.44,49.653L596.9,49.047L597.36,48.991L597.83,50.767L598.29,49.85L598.75,49.033L599.21,49.315L599.67,49.907L600.13,49.019L600.59,49.117L601.05,49.681L601.51,49.019L601.97,49.005L602.44,50.767L602.9,49.836L603.36,48.201L603.82,50.146L604.28,49.019L604.74,49.893L605.2,49.132L605.66,48.92L606.12,49.78L606.58,49.033L607.04,50.09L607.51,49.653L607.97,49.033L608.43,49.244L608.89,49.921L609.35,49.893L609.81,49.047L610.27,49.005L610.73,48.92L611.19,49.005L611.65,50.034L612.12,50.555L612.58,48.991L613.04,49.315L613.5,49.047L613.96,49.907L614.42,49.019L614.88,49.822L615.34,48.906L615.8,49.047L616.26,49.442L616.73,50.33L617.19,49.822L617.65,49.019L618.11,48.441L618.57,49.893L619.03,49.935L619.49,48.173L619.95,49.85L620.41,48.878L620.87,49.864L621.33,50.118L621.8,49.639L622.26,49.061L622.72,48.962L623.18,49.329L623.64,49.893L624.1,49.047L624.56,49.075L625.02,49.23L625.48,49.456L625.94,49.019L626.41,50.724L626.87,49.019L627.33,49.033L627.79,49.272L628.25,49.879L628.71,49.061L629.17,49.033L629.63,49.794L630.09,48.934L630.55,49.033L631.02,49.85L631.48,50.724L631.94,49.005L632.4,49.005L632.86,49.329L633.32,49.033L633.78,49.907L634.24,49.061L634.7,48.948L635.16,48.92L635.62,49.343L636.09,50.4L636.55,49.879L637.01,49.005L637.47,48.976L637.93,49.357L638.39,49.864L638.85,49.005L639.31,49.075L639.77,48.962L640.23,48.948L640.7,49.864L641.16,50.71L641.62,49.061L642.08,49.808L642.54,48.427L643,49.893L643.46,49.103L643.92,49.005L644.38,49.738L644.84,48.54L645.31,49.456L645.77,49.864L646.23,50.752L646.69,48.215L647.15,48.962L647.61,49.23L648.07,48.06L648.53,48.06L648.99,48.06L649.45,48.06L649.92,54.544L650.38,48.06L650.84,48.06L651.3,53.431L651.76,48.06L652.22,51.218L652.68,48.06L653.14,48.06L653.6,48.976L654.06,48.06L654.52,48.06L654.99,48.06L655.45,48.06L655.91,48.06L656.37,48.06L656.83,48.06L657.29,48.06L657.75,48.06L658.21,48.06L658.67,50.809L659.13,48.06L659.6,52.641L660.06,55.362L660.52,49.893L660.98,59.04L661.44,53.557L661.9,51.725L662.36,57.194L662.82,55.39L663.28,53.557L663.74,56.306L664.21,54.474L664.67,53.543L665.13,56.32L665.59,54.149L666.05,55.686L666.51,51.725L666.97,51.725L667.43,49.907L667.89,51.725L668.35,51.711L668.81,51.725L669.28,50.823L669.74,51.866L670.2,51.006L670.66,50.823L671.12,51.725L671.58,50.076L672.04,50.992L672.5,50.795L672.96,51.739L673.42,50.809L673.89,50.062L674.35,51.006L674.81,51.697L675.27,50.823L675.73,50.809L676.19,50.076L676.65,48.962L677.11,48.06L677.57,48.074L678.03,48.06L678.5,50.104L678.96,51.669L679.42,50.823L679.88,50.851L680.34,50.048L680.8,49.893L681.26,49.174L681.72,48.991L682.18,50.738L682.64,49.921L683.1,49.752L683.57,50.02L684.03,49.019L684.49,50.02L684.95,49.033L685.41,49.132L685.87,48.991L686.33,49.907L686.79,50.738L687.25,49.033L687.71,49.907L688.18,49.879L688.64,49.174L689.1,49.836L689.56,48.991L690.02,48.864L690.48,49.301L690.94,50.752L691.4,49.047L691.86,49.907L692.32,49.879L692.79,50.005L693.25,49.033L693.71,49.005L694.17,49.174L694.63,48.962L695.09,49.907L695.55,50.738L696.01,49.724L696.47,49.174L696.93,49.879L697.39,50.005L697.86,49.005L698.32,48.991L698.78,48.878L699.24,49.287L699.7,50.724L700.16,49.103L700.62,49.85L701.08,49.907L701.54,48.991L702,50.034L702.47,49.005L702.93,49.146L703.39,48.962L703.85,49.033L704.31,50.738L704.77,49.879L705.23,49.075L705.69,50.64L706.15,49.23L706.61,49.85L707.08,48.976L707.54,48.342L708,49.822L708.46,49.075L708.92,49.808L709.38,50.626L709.84,48.328L710.3,50.668L710.76,49.23L711.22,49.85L711.68,48.976L712.15,48.328L712.61,49.822L713.07,49.089L713.53,49.794L713.99,49.836L714.45,49.117L714.91,50.64L715.37,49.244L715.83,49.85L716.29,48.948L716.76,48.356L717.22,49.822L717.68,49.033L718.14,49.836L718.6,49.85L719.06,49.089L719.52,49.822L719.98,49.132L720.44,49.935L720.9,48.991L721.37,49.117L721.83,48.976L722.29,49.033L722.75,50.71L723.21,49.047L723.67,49.879L724.13,49.075L724.59,49.738L725.05,49.23L725.51,49.836L725.98,48.976L726.44,48.37L726.9,49.78L727.36,49.061L727.82,49.85L728.28,49.808L728.74,49.075L729.2,49.907L729.66,49.089L730.12,49.935L730.58,48.962L731.05,48.948L731.51,49.16L731.97,49.047L732.43,49.808L732.89,49.921L733.35,49.893L733.81,49.061L734.27,49.738L734.73,49.216L735.19,49.822L735.66,48.215L736.12,49.146L736.58,48.948L737.04,49.907L737.5,49.85L737.96,49.033L738.42,49.85L738.88,49.907L739.34,49.089L739.8,49.949L740.27,48.962L740.73,48.948L741.19,48.864L741.65,49.357L742.11,48.103L742.57,48.06L743.03,52.472L743.49,48.06L743.95,50.908L744.41,48.06L744.87,48.06L745.34,51.908L745.8,48.06L746.26,48.06L746.72,48.06L747.18,48.06L747.64,48.06L748.1,53.797L748.56,48.06L749.02,48.06L749.48,48.06L749.95,48.976L750.41,48.06L750.87,48.06L751.33,48.06L751.79,48.06L752.25,48.06L752.71,48.06L753.17,50.809L753.63,48.06L754.09,48.06L754.56,51.725L755.02,55.052L755.48,51.133L755.94,57.222L756.4,54.474L756.86,54.854L757.32,55.009L757.78,55.39L758.24,52.627L758.7,56.306L759.16,54.474L759.63,55.39L760.09,49.879L760.55,49.893L761.01,50.823L761.47,50.809L761.93,51.711L762.39,51.711L762.85,50.301L763.31,50.809L763.77,51.697L764.24,51.739L764.7,51.683L765.16,50.287L765.62,50.795L766.08,51.711L766.54,49.949L767,51.034L767.46,50.922L767.92,50.781L768.38,49.907L768.85,51.711L769.31,50.809L769.77,50.287L770.23,50.781L770.69,50.795L771.15,50.837L771.61,49.907L772.07,50.767L772.53,50.287L772.99,50.795L773.45,49.907L773.92,51.669L774.38,49.893L774.84,50.16L775.3,50.048L775.76,50.781L776.22,49.907L776.68,51.669L777.14,49.061L777.6,50.752L778.06,50.273L778.53,49.921L778.99,50.752L779.45,49.061L779.91,50.738L780.37,50.795L780.83,49.385L781.29,50.795L781.75,50.795L782.21,49.005L782.67,50.738L783.14,49.061L783.6,50.781L784.06,49.357L784.52,49.879L784.98,50.809L785.44,49.893L785.9,50.738L786.36,49.047L786.82,49.836L787.28,50.287L787.75,49.019L788.21,48.074L788.67,48.103L789.13,48.06L789.59,50.724L790.05,49.921L790.51,49.005L790.97,51.612L791.43,49.061L791.89,49.85L792.35,49.357L792.82,49.061L793.28,50.682L793.74,49.977L794.2,48.948L794.66,49.907L795.12,49.808L795.58,48.159L796.04,49.78L796.5,49.879L796.96,48.497L797.43,49.864L797.89,49.949L798.35,49.921L798.81,48.934L799.27,49.921L799.73,49.808L800.19,49.019L800.65,48.976L801.11,49.822L801.57,48.497L802.04,49.864L802.5,50.005L802.96,50.654L803.42,48.159L803.88,49.907L804.34,49.822L804.8,48.991L805.26,49.836L805.72,48.962L806.18,49.413L806.64,49.864L807.11,49.089L807.57,50.668L808.03,49.047L808.49,49.047L808.95,49.808L809.41,49.033L809.87,49.794L810.33,48.976L810.79,49.385L811.25,49.864L811.72,49.907L812.18,49.864L812.64,49.019L813.1,49.822L813.56,49.061L814.02,49.005L814.48,49.822L814.94,48.962L815.4,49.371L815.86,49.879L816.33,49.893L816.79,49.864L817.25,49.019L817.71,49.822L818.17,49.075L818.63,49.019L819.09,49.794L819.55,49.329L820.01,49.019L820.47,49.85L820.93,49.907L821.4,49.864L821.86,49.019L822.32,49.836L822.78,49.075L823.24,49.005L823.7,49.808L824.16,48.948L824.62,49.399L825.08,49.836L825.54,49.921L826.01,49.85L826.47,49.019L826.93,49.075L827.39,49.822L827.85,49.019L828.31,49.78L828.77,48.991L829.23,49.385L829.69,49.85L830.15,49.893L830.62,49.089L831.08,49.794L831.54,49.075L832,49.78L832.46,48.145L832.92,50.71L833.38,48.06L833.84,48.06L834.3,48.06L834.76,53.022L835.22,48.06L835.69,48.06L836.15,48.06L836.61,48.06L837.07,48.06L837.53,48.06L837.99,48.06L838.45,48.06L838.91,48.06L839.37,48.06L839.83,48.06L840.3,48.06L840.76,59.506L841.22,48.06L841.68,48.06L842.14,48.074L842.6,48.06L843.06,48.06L843.52,48.06L843.98,48.06L844.44,48.06L844.91,50.795L845.37,54.474L845.83,54.474L846.29,54.474L846.75,55.39L847.21,53.557L847.67,55.39L848.13,54.474L848.59,54.445L849.05,55.39L849.52,54.445L849.98,52.655L850.44,53.543L850.9,48.962L851.36,48.074L851.82,48.06L852.28,48.06L852.74,48.962L853.2,48.06L853.66,48.06L854.12,48.074L854.59,48.06L855.05,48.962L855.51,48.06L855.97,48.06L856.43,48.06L856.89,48.074L857.35,48.06L857.81,48.06L858.27,48.06L858.73,48.962L859.2,50.372L859.66,54.375L860.12,51.725L860.58,51.274L861.04,55.277L861.5,51.711L861.96,49.879L862.42,50.372L862.88,51.669L863.34,50.795L863.81,51.626L864.27,48.159L864.73,49.864L865.19,49.456L865.65,49.893L866.11,49.85L866.57,50.358L867.03,49.498L867.49,52.472L867.95,48.991L868.41,49.442L868.88,49.033L869.34,49.808L869.8,48.976L870.26,49.836L870.72,48.61L871.18,48.258L871.64,49.85L872.1,48.37L872.56,50.767L873.02,48.962L873.49,48.962L873.95,49.399L874.41,49.005L874.87,48.962L875.33,48.962L875.79,48.934L876.25,49.005L876.71,49.033L877.17,48.554L877.63,48.511L878.1,49.625L878.56,50.076L879.02,49.794L879.48,48.948L879.94,48.61L880.4,48.962L880.86,48.991L881.32,48.976L881.78,48.991L882.24,48.892L882.7,49.836L883.17,48.596L883.63,48.215L884.09,49.329L884.55,48.92L885.01,50.767L885.47,48.948L885.93,48.962L886.39,48.61L886.85,49.794L887.31,48.976L887.78,48.948L888.24,48.934L888.7,49.033L889.16,49.033L889.62,48.54L890.08,48.511L890.54,49.653L891,48.3L891.46,51.528L891.92,48.948L892.39,48.652L892.85,48.088L893.31,49.766L893.77,48.06L894.23,49.935L894.69,48.06L895.15,50.738L895.61,48.06L896.07,48.06L896.53,48.06L896.99,48.06L897.46,50.908L897.92,48.06L898.38,48.06L898.84,48.06L899.3,48.06L899.76,48.06L900.22,56.715L900.68,48.06L901.14,48.06L901.6,48.06L902.07,48.06L902.53,48.06L902.99,48.06L903.45,48.06L903.91,48.06L904.37,48.06L904.83,50.809L905.29,48.06L905.75,54.474L906.21,51.725L906.68,56.278L907.14,53.557L907.6,56.292L908.06,54.502L908.52,55.348L908.98,52.388L909.44,56.56L909.9,55.376L910.36,53.557L910.82,53.557L911.28,55.39L911.75,50.795L912.21,53.557L912.67,49.907L913.13,51.711L913.59,51.739L914.05,51.711L914.51,51.175L914.97,51.373L915.43,51.161L915.89,51.725L916.36,51.697L916.82,51.753L917.28,50.245L917.74,51.739L918.2,50.781L918.66,50.851L919.12,51.133L919.58,50.823L920.04,51.711L920.5,51.711L920.97,49.935L921.43,50.217L921.89,50.823L922.35,50.781L922.81,50.795L923.27,50.837L923.73,49.935L924.19,50.217L924.65,49.907L925.11,50.795L925.58,50.386L926.04,51.232L926.5,49.921L926.96,50.217L927.42,49.907L927.88,50.823L928.34,50.767L928.8,50.837L929.26,49.921L929.72,50.203L930.18,50.005L930.65,50.724L931.11,50.795L931.57,50.795L932.03,50.09L932.49,49.667L932.95,50.386L933.41,50.724L933.87,50.809L934.33,50.795L934.79,50.076L935.26,50.09L935.72,49.963L936.18,50.724L936.64,50.809L937.1,50.781L937.56,50.09L938.02,49.174L938.48,49.963L938.94,50.767L939.4,50.795L939.87,50.795L940.33,50.809L940.79,49.216L941.25,50.076L941.71,49.893L942.17,50.752L942.63,51.711L943.09,49.893L943.55,50.118L944.01,50.048L944.47,49.935L944.94,50.752L945.4,50.781L945.86,50.823L946.32,49.202L946.78,50.02L947.24,49.963L947.7,49.879L948.16,50.767L948.62,50.795L949.08,49.921L949.55,49.188L950.01,50.09L950.47,49.893L950.93,49.907L951.39,50.724L951.85,50.809L952.31,49.907L952.77,49.188L953.23,50.118L953.69,49.879L954.16,50.189L954.62,51.344L955.08,49.85L955.54,49.075L956,48.92L956.46,48.06L956.92,48.074L957.38,49.202L957.84,50.034L958.3,49.935L958.76,49.907L959.23,49.864L959.69,48.934L960.15,48.962L960.61,48.074L961.07,48.074L961.53,48.06L961.99,48.074L962.45,48.06L962.91,48.906L963.37,48.06L963.84,48.088L964.3,48.06L964.76,48.934L965.22,48.06L965.68,48.06L966.14,48.088L966.6,48.06L967.06,48.06L967.52,48.074L967.98,48.06L968.45,48.074L968.91,48.06L969.37,48.06L969.83,48.06L970.29,48.074L970.75,48.06L971.21,49.879L971.67,54.347L972.13,53.092L972.59,49.921L973.05,48.976L973.52,51.655L973.98,50.795L974.44,51.457L974.9,50.569L975.36,49.019L975.82,48.976L976.28,49.864L976.74,49.907L977.2,49.808L977.66,50.738L978.13,49.47L978.59,48.469L979.05,49.484L979.51,49.047L979.97,49.005L980.43,48.948L980.89,49.808L981.35,49.019L981.81,49.794L982.27,49.85L982.74,48.976L983.2,49.864L983.66,48.554L984.12,48.455L984.58,48.06L985.04,48.06L985.5,48.06L985.96,48.06L986.42,48.06L986.88,53.233L987.35,48.06L987.81,48.06L988.27,48.06L988.73,52.5L989.19,48.06L989.65,48.06L990.11,50.865L990.57,48.06L991.03,48.06L991.49,52.486L991.95,55.249L992.42,54.586L992.88,52.627L993.34,50.809L993.8,50.809L994.26,51.711L994.72,51.725L995.18,51.739L995.64,51.105L996.1,51.556L996.56,51.02L997.03,51.725L997.49,49.935L997.95,52.712L998.41,49.695L998.87,52.162L999.33,50.485L999.79,51.161L1000.3,50.922L1000.7,51.02L1001.2,50.809L1001.6,50.851L1002.1,50.809L1002.6,50.879L1003,50.146L1003.5,50.809L1003.9,50.865L1004.4,51.697L1004.9,50.259L1005.3,50.767L1005.8,50.823L1006.2,50.823L1006.7,49.907L1007.2,50.259L1007.6,51.457L1008.1,50.16L1008.5,50.767L1009,49.977L1009.5,50.809L1009.9,51.739L1010.4,49.921L1010.9,50.132L1011.3,50.795L1011.8,49.977L1012.2,50.795L1012.7,50.865L1013.2,50.104L1013.6,49.921L1014.1,50.795L1014.5,50.851L1015,50.245L1015.5,50.513L1015.9,49.963L1016.4,49.23L1016.8,50.767L1017.3,49.963L1017.8,50.823L1018.2,51.105L1018.7,49.653L1019.2,50.09L1019.6,49.921L1020.1,50.823L1020.5,50.809L1021,49.724L1021.5,50.118L1021.9,50.118L1022.4,49.949L1022.8,49.907L1023.3,50.837L1023.8,49.921L1024.2,50.217L1024.7,50.316L1025.1,49.413L1025.6,50.823L1026.1,49.935L1026.5,50.781L1027,49.117L1027.4,50.16L1027.9,51.218L1028.4,48.483L1028.8,50.823L1029.3,49.935L1029.8,50.781L1030.2,49.103L1030.7,50.175L1031.1,51.204L1031.6,48.483L1032.1,49.949L1032.5,50.809L1033,49.019L1033.4,50.767L1033.9,49.752L1034.4,50.738L1034.8,49.315L1035.3,49.216L1035.7,50.795L1036.2,49.893L1036.7,49.879L1037.1,50.034L1037.6,50.16L1038.1,49.766L1038.5,49.047L1039,49.921L1039.4,50.823L1039.9,49.033L1040.4,50.795L1040.8,49.061L1041.3,51.373L1041.7,49.103L1042.2,48.074L1042.7,48.06L1043.1,48.441L1043.6,49.075L1044,50.767L1044.5,49.893L1045,50.781L1045.4,49.117L1045.9,49.272L1046.3,50.344L1046.8,49.301L1047.3,49.019L1047.7,49.033L1048.2,49.879L1048.7,49.836L1049.1,49.075L1049.6,49.921L1050,49.019L1050.5,49.287L1051,50.16L1051.4,49.117L1051.9,48.469L1052.3,49.075L1052.8,50.71L1053.3,49.005L1053.7,49.061L1054.2,50.696L1054.6,49.089L1055.1,49.047L1055.6,49.766L1056,49.132L1056.5,49.103L1057,49.061L1057.4,49.864L1057.9,48.948L1058.3,48.06L1058.8,49.991L1059.3,48.06L1059.7,48.06L1060.2,48.06L1060.6,48.06L1061.1,55.178L1061.6,48.06L1062,48.06L1062.5,48.06L1062.9,48.06L1063.4,48.06L1063.9,48.06L1064.3,48.06L1064.8,55.869L1065.2,48.06L1065.7,48.06L1066.2,48.06L1066.6,48.976L1067.1,48.06L1067.6,48.06L1068,48.06L1068.5,48.06L1068.9,48.06L1069.4,48.06L1069.9,48.06L1070.3,48.06L1070.8,50.809L1071.2,54.46L1071.7,54.46L1072.2,53.557L1072.6,56.292L1073.1,54.474L1073.5,51.88L1074,57.053L1074.5,53.543L1074.9,55.39L1075.4,55.39L1075.9,54.474L1076.3,54.474L1076.8,54.474L1077.2,54.474L1077.7,48.976L1078.2,56.306L1078.6,53.557L1079.1,51.711L1079.5,51.725L1080,50.823" style="fill:none;stroke:#CE7058;stroke-width:1.875;stroke-dasharray:12.5,2.5,2.5,2.5,2.5,2.5,2.5,2.5" />
<path d="M1055,693.4L1080,693.4" style="fill:none;stroke:#F15A60;stroke-width:1.875" />
<text x="934.09" y="-686.35" transform="scale(1, -1)"
	style="font-family:Helvetica;font-weight:normal;font-style:normal;font-size:12pt">Zookeeper v3.4.8</text>
<path d="M1055,678.7L1080,678.7" style="fill:none;stroke:#7AC36A;stroke-width:1.875;stroke-dasharray:7.5,2.5" />
<text x="944.13" y="-671.65" transform="scale(1, -1)"
	style="font-family:Helvetica;font-weight:normal;font-style:normal;font-size:12pt">etcd v3 (Go Tip)</text>
<path d="M1055,664L1080,664" style="fill:none;stroke:#5A9BD4;stroke-width:1.875;stroke-dasharray:2.5,2.5" />
<text x="943.28" y="-656.95" transform="scale(1, -1)"
	style="font-family:Helvetica;font-weight:normal;font-style:normal;font-size:12pt">etcd v3 (Go 1.6)</text>
<path d="M1055,649.3L1080,649.3" style="fill:none;stroke:#FAA75B;stroke-width:1.875;stroke-dasharray:1.25,1.25" />
<text x="943.28" y="-642.25" transform="scale(1, -1)"
	style="font-family:Helvetica;font-weight:normal;font-style:normal;font-size:12pt">etcd v3 (Go 1.5)</text>
<path d="M1055,634.6L1080,634.6" style="fill:none;stroke:#9E67AB;stroke-width:1.875;stroke-dasharray:6.25,2.5,1.25,2.5" />
<text x="943.28" y="-627.55" transform="scale(1, -1)"
	style="font-family:Helvetica;font-weight:normal;font-style:normal;font-size:12pt">etcd v2 (Go 1.4)</text>
<path d="M1055,619.9L1080,619.9" style="fill:none;stroke:#CE7058;stroke-width:1.875;stroke-dasharray:12.5,2.5,2.5,2.5,2.5,2.5,2.5,2.5" />
<text x="959.11" y="-612.85" transform="scale(1, -1)"
	style="font-family:Helvetica;font-weight:normal;font-style:normal;font-size:12pt">Consul v0.6.4</text>
</g>
</svg>
