<?xml version="1.0"?>
<!-- Generated by SVGo and Plotinum VG -->
<svg width="12in" height="8in"
	xmlns="http://www.w3.org/2000/svg"
	xmlns:xlink="http://www.w3.org/1999/xlink">
<g transform="scale(1, -1) translate(0, -720)">
<path d="M0,0L1080,0L1080,720L0,720Z" style="fill:#FFFFFF" />
<text x="253.18" y="-705.6" transform="scale(1, -1)"
	style="font-family:Helvetica;font-weight:normal;font-style:normal;font-size:12pt">Write 2M keys, 1000-client (etcd v3 100-conn), 8-byte key, 256-byte value, Throughput</text>
<text x="552.11" y="-4.8486" transform="scale(1, -1)"
	style="font-family:Helvetica;font-weight:normal;font-style:normal;font-size:12pt">Second</text>
<text x="71.609" y="-19.498" transform="scale(1, -1)"
	style="font-family:Helvetica;font-weight:normal;font-style:normal;font-size:10pt">0</text>
<text x="341.24" y="-19.498" transform="scale(1, -1)"
	style="font-family:Helvetica;font-weight:normal;font-style:normal;font-size:10pt">600</text>
<text x="614.35" y="-19.498" transform="scale(1, -1)"
	style="font-family:Helvetica;font-weight:normal;font-style:normal;font-size:10pt">1200</text>
<text x="890.93" y="-19.498" transform="scale(1, -1)"
	style="font-family:Helvetica;font-weight:normal;font-style:normal;font-size:10pt">1800</text>
<path d="M75.085,31.498L75.085,41.498" style="fill:none;stroke:#000000;stroke-width:0.625" />
<path d="M351.67,31.498L351.67,41.498" style="fill:none;stroke:#000000;stroke-width:0.625" />
<path d="M628.25,31.498L628.25,41.498" style="fill:none;stroke:#000000;stroke-width:0.625" />
<path d="M904.83,31.498L904.83,41.498" style="fill:none;stroke:#000000;stroke-width:0.625" />
<path d="M167.28,36.498L167.28,41.498" style="fill:none;stroke:#000000;stroke-width:0.625" />
<path d="M259.47,36.498L259.47,41.498" style="fill:none;stroke:#000000;stroke-width:0.625" />
<path d="M443.86,36.498L443.86,41.498" style="fill:none;stroke:#000000;stroke-width:0.625" />
<path d="M536.06,36.498L536.06,41.498" style="fill:none;stroke:#000000;stroke-width:0.625" />
<path d="M720.44,36.498L720.44,41.498" style="fill:none;stroke:#000000;stroke-width:0.625" />
<path d="M812.64,36.498L812.64,41.498" style="fill:none;stroke:#000000;stroke-width:0.625" />
<path d="M997.03,36.498L997.03,41.498" style="fill:none;stroke:#000000;stroke-width:0.625" />
<path d="M75.085,41.498L1080,41.498" style="fill:none;stroke:#000000;stroke-width:0.625" />
<g transform="rotate(90)">
<text x="336.05" y="14.399" transform="scale(1, -1)"
	style="font-family:Helvetica;font-weight:normal;font-style:normal;font-size:12pt">Throughput</text>
</g>
<text x="47.404" y="-42.186" transform="scale(1, -1)"
	style="font-family:Helvetica;font-weight:normal;font-style:normal;font-size:10pt">0</text>
<text x="19.248" y="-175.15" transform="scale(1, -1)"
	style="font-family:Helvetica;font-weight:normal;font-style:normal;font-size:10pt">1e+04</text>
<text x="19.248" y="-308.11" transform="scale(1, -1)"
	style="font-family:Helvetica;font-weight:normal;font-style:normal;font-size:10pt">2e+04</text>
<text x="19.248" y="-441.07" transform="scale(1, -1)"
	style="font-family:Helvetica;font-weight:normal;font-style:normal;font-size:10pt">3e+04</text>
<text x="19.248" y="-574.03" transform="scale(1, -1)"
	style="font-family:Helvetica;font-weight:normal;font-style:normal;font-size:10pt">4e+04</text>
<path d="M57.828,48.06L67.828,48.06" style="fill:none;stroke:#000000;stroke-width:0.625" />
<path d="M57.828,181.02L67.828,181.02" style="fill:none;stroke:#000000;stroke-width:0.625" />
<path d="M57.828,313.98L67.828,313.98" style="fill:none;stroke:#000000;stroke-width:0.625" />
<path d="M57.828,446.94L67.828,446.94" style="fill:none;stroke:#000000;stroke-width:0.625" />
<path d="M57.828,579.9L67.828,579.9" style="fill:none;stroke:#000000;stroke-width:0.625" />
<path d="M62.828,114.54L67.828,114.54" style="fill:none;stroke:#000000;stroke-width:0.625" />
<path d="M62.828,247.5L67.828,247.5" style="fill:none;stroke:#000000;stroke-width:0.625" />
<path d="M62.828,380.46L67.828,380.46" style="fill:none;stroke:#000000;stroke-width:0.625" />
<path d="M62.828,513.42L67.828,513.42" style="fill:none;stroke:#000000;stroke-width:0.625" />
<path d="M62.828,646.38L67.828,646.38" style="fill:none;stroke:#000000;stroke-width:0.625" />
<path d="M67.828,48.06L67.828,700.75" style="fill:none;stroke:#000000;stroke-width:0.625" />
<path d="M75.085,142.54L75.546,317.11L76.007,244.98L76.468,531.98L76.929,604.12L77.39,553.62L77.851,582.11L78.312,585.02L78.773,626.4L79.234,618.16L79.695,350.03L80.156,322.46L80.617,534.4L81.078,632.97L81.539,652.77L82,419.71L82.461,481.95L82.922,700.75L83.383,263.08L83.844,466.24L84.305,661.32L84.766,615.87L85.227,635.73L85.688,530.91L86.149,603.66L86.61,635.02L87.071,661.87L87.532,48.06L87.993,100.13L88.454,48.06L88.915,463.08L89.376,68.909L89.836,62.114L90.297,72.831L90.758,62.952L91.219,55.692L91.68,53.871L92.141,48.06L92.602,48.06L93.063,48.06L93.524,48.06L93.985,48.06L94.446,48.06L94.907,48.06L95.368,48.06L95.829,48.06L96.29,48.06L96.751,48.06L97.212,48.06L97.673,48.06L98.134,48.06L98.595,48.06L99.056,48.06L99.517,48.06L99.978,145.79L100.44,571.94L100.9,591.76L101.36,597.41L101.82,596.31L102.28,591.54L102.74,486.86L103.2,302.76L103.67,287.2L104.13,346.42L104.59,57.088L105.05,48.06L105.51,206.56L105.97,600.91L106.43,603.93L106.89,515.03L107.35,675.16L107.81,410.42L108.28,138.22L108.74,48.06L109.2,120.76L109.66,113.46L110.12,48.06L110.58,48.06L111.04,48.06L111.5,48.06L111.96,48.06L112.42,48.06L112.88,48.06L113.35,48.06L113.81,48.06L114.27,48.06L114.73,48.06L115.19,48.06L115.65,48.06L116.11,48.06L116.57,48.06L117.03,48.06L117.49,48.06L117.96,48.06L118.42,48.06L118.88,48.06L119.34,48.06L119.8,48.06L120.26,48.06L120.72,48.06L121.18,48.06L121.64,48.06L122.1,48.06L122.57,48.06L123.03,48.06L123.49,48.06L123.95,48.06L124.41,48.06L124.87,48.06L125.33,48.06L125.79,48.06L126.25,48.06L126.71,48.06L127.18,48.06L127.64,48.06L128.1,48.06L128.56,48.06L129.02,48.06L129.48,48.06L129.94,48.06L130.4,48.06L130.86,48.06L131.32,48.06L131.78,48.06L132.25,48.06L132.71,48.06L133.17,48.06L133.63,48.06L134.09,48.06L134.55,48.06L135.01,48.06L135.47,48.06L135.93,48.06L136.39,48.06L136.86,48.06L137.32,48.06L137.78,48.06L138.24,48.06L138.7,48.06L139.16,48.06L139.62,48.06L140.08,48.06L140.54,48.06L141,97.801L141.47,469.33L141.93,299.68L142.39,48.06L142.85,51.039L143.31,347.04L143.77,128.44L144.23,48.06L144.69,50.188L145.15,48.06L145.61,48.06L146.07,48.06L146.54,48.06L147,48.06L147.46,48.06L147.92,48.06L148.38,48.06L148.84,48.06L149.3,48.06L149.76,48.06L150.22,48.06L150.68,48.06L151.15,48.06L151.61,48.06L152.07,48.06L152.53,48.06L152.99,48.06L153.45,48.06L153.91,48.06L154.37,48.06L154.83,48.06L155.29,48.06L155.76,48.06L156.22,48.06L156.68,48.06L157.14,48.06L157.6,48.06L158.06,48.06L158.52,48.06L158.98,48.06L159.44,139.2L159.9,548.59L160.36,523.04L160.83,546.8L161.29,470.42L161.75,532.97L162.21,222.28L162.67,56.384L163.13,48.06L163.59,48.06L164.05,48.06L164.51,48.06L164.97,48.06L165.44,48.06L165.9,48.06L166.36,48.06L166.82,48.06L167.28,48.06L167.74,48.06L168.2,48.06L168.66,48.06L169.12,48.06L169.58,48.06L170.05,48.06L170.51,48.06L170.97,48.06L171.43,48.06L171.89,48.06L172.35,48.06L172.81,48.06L173.27,48.06L173.73,48.06L174.19,48.06L174.65,48.06L175.12,48.06L175.58,48.06L176.04,48.06L176.5,48.06L176.96,48.06L177.42,48.06L177.88,48.06L178.34,48.06L178.8,48.06L179.26,48.06L179.73,48.06L180.19,48.06L180.65,48.06L181.11,48.06L181.57,48.06L182.03,48.06L182.49,48.06L182.95,48.06L183.41,48.06L183.87,48.06L184.34,48.06L184.8,48.06L185.26,48.06L185.72,48.06L186.18,48.06L186.64,48.06L187.1,48.06L187.56,48.06L188.02,48.06L188.48,48.06L188.95,48.06L189.41,48.06L189.87,48.06L190.33,48.06L190.79,48.06L191.25,48.06L191.71,48.06L192.17,48.06L192.63,48.06L193.09,48.06L193.55,48.06L194.02,48.06L194.48,114.35L194.94,614.06L195.4,468.63L195.86,59.375L196.32,57.009L196.78,48.06L197.24,48.06L197.7,48.06L198.16,48.06L198.63,48.06L199.09,48.06L199.55,48.06L200.01,48.06L200.47,48.06L200.93,48.06L201.39,48.06L201.85,48.06L202.31,48.06L202.77,48.06L203.24,48.06L203.7,48.06L204.16,48.06L204.62,48.06L205.08,48.06L205.54,48.06L206,48.06L206.46,48.06L206.92,48.06L207.38,48.06L207.84,48.06L208.31,48.06L208.77,48.06L209.23,48.06L209.69,48.06L210.15,48.06L210.61,48.06L211.07,48.06L211.53,48.06L211.99,48.06L212.45,48.06L212.92,48.06L213.38,48.06L213.84,48.06L214.3,220.43L214.76,286.67" style="fill:none;stroke:#F15A60;stroke-width:1.875" />
<path d="M75.085,251.8L75.546,351.22L76.007,306.95L76.468,557.93L76.929,544.6L77.39,581.21L77.851,547.59L78.312,563.68L78.773,588.21L79.234,610.95L79.695,411.32L80.156,408.73L80.617,267.23L81.078,598.51L81.539,569.96L82,596.52L82.461,250.08L82.922,417.2L83.383,643.38L83.844,430.89L84.305,114.58L84.766,607.59L85.227,598.64L85.688,580.14L86.149,533.02L86.61,611.85L87.071,510.51L87.532,654.48L87.993,562.11L88.454,48.06L88.915,338.34L89.376,48.06L89.836,233.54L90.297,605.94L90.758,538.98L91.219,558.8L91.68,394.92L92.141,567.78L92.602,144.39L93.063,74.679L93.524,74.719L93.985,61.37L94.446,48.06L94.907,61.356L95.368,48.113L95.829,48.06L96.29,48.06L96.751,48.06L97.212,48.06L97.673,48.06L98.134,48.06L98.595,48.06L99.056,48.06L99.517,48.06L99.978,48.06L100.44,48.06L100.9,48.06L101.36,48.06L101.82,48.06L102.28,48.06L102.74,56.995L103.2,598.9L103.67,582.88L104.13,547.71L104.59,558.52L105.05,544.18L105.51,592.35L105.97,630.52L106.43,63.524L106.89,104.78L107.35,48.06L107.81,48.06L108.28,48.06L108.74,48.06L109.2,48.06L109.66,48.06L110.12,48.06L110.58,48.06L111.04,93.533L111.5,430.99L111.96,48.06L112.42,340.61L112.88,439.91L113.35,518.58L113.81,537.04L114.27,587.46L114.73,92.815L115.19,48.06L115.65,404.04L116.11,539.07L116.57,586.46L117.03,615.84L117.49,514.5L117.96,335.54L118.42,218.37L118.88,74.679L119.34,48.06L119.8,61.356L120.26,48.06L120.72,48.14L121.18,48.06L121.64,48.06L122.1,48.06L122.57,48.06L123.03,48.06L123.49,48.06L123.95,48.06L124.41,48.06L124.87,48.06L125.33,48.06L125.79,48.06L126.25,48.06L126.71,48.06L127.18,48.06L127.64,48.06L128.1,48.06L128.56,48.06L129.02,48.06L129.48,48.06L129.94,48.06L130.4,48.06L130.86,48.06L131.32,48.06L131.78,48.06L132.25,48.06L132.71,48.06L133.17,48.06L133.63,48.06L134.09,48.06L134.55,48.06L135.01,48.06L135.47,48.06L135.93,48.06L136.39,48.06L136.86,301.43L137.32,428.33L137.78,282.48" style="fill:none;stroke:#7AC36A;stroke-width:1.875;stroke-dasharray:7.5,2.5" />
<path d="M75.085,333.65L75.546,603.37L76.007,519.78L76.468,566.5L76.929,541.88L77.39,556.09L77.851,547.29L78.312,542.97L78.773,539.03L79.234,532.6L79.695,535.96L80.156,538.57L80.617,533.27L81.078,548.46L81.539,526.15L82,539.5L82.461,520.98L82.922,549.27L83.383,548.5L83.844,527.73L84.305,546.01L84.766,537.95L85.227,514.83L85.688,516.22L86.149,537.2L86.61,519.03L87.071,504.3L87.532,520.67L87.993,493.37L88.454,468.63L88.915,535.64L89.376,514.61L89.836,459.4L90.297,562.81L90.758,534.63L91.219,511.18L91.68,488.95L92.141,511.22L92.602,532.8L93.063,521.79L93.524,516.15L93.985,542.24L94.446,539.36L94.907,519.05L95.368,502.31L95.829,516L96.29,525.63L96.751,540.88L97.212,500.17L97.673,498.37L98.134,518.18L98.595,495.5L99.056,488.79L99.517,582.16L99.978,505.57L100.44,477.1" style="fill:none;stroke:#5A9BD4;stroke-width:1.875;stroke-dasharray:2.5,2.5" />
<path d="M75.085,148.13L75.546,555.28L76.007,521.33L76.468,498.9L76.929,503.37L77.39,486.58L77.851,495.13L78.312,479.03L78.773,496.38L79.234,465.89L79.695,470.93L80.156,491.19L80.617,476.61L81.078,475.81L81.539,482.26L82,476.03L82.461,489.6L82.922,457.55L83.383,476.34L83.844,475.86L84.305,476.75L84.766,471.91L85.227,477.32L85.688,458.63L86.149,448.51L86.61,456.46L87.071,461.75L87.532,497.64L87.993,449.99L88.454,469.84L88.915,468.87L89.376,439.92L89.836,485.75L90.297,494.69L90.758,429.95L91.219,483.69L91.68,491.29L92.141,481.59L92.602,463.98L93.063,468.2L93.524,443.69L93.985,496.51L94.446,475.37L94.907,477.32L95.368,462.14L95.829,464.88L96.29,466.54L96.751,474.45L97.212,461.69L97.673,501.12L98.134,488.68L98.595,457.05L99.056,437.25L99.517,491.42L99.978,444.82L100.44,470.32L100.9,544.78L101.36,446.01L101.82,476.74L102.28,443.02L102.74,458.44L103.2,545.48" style="fill:none;stroke:#FAA75B;stroke-width:1.875;stroke-dasharray:1.25,1.25" />
<path d="M75.085,195.15L75.546,578.73L76.007,546.37L76.468,481.05L76.929,477.39L77.39,488.11L77.851,445.63L78.312,467.5L78.773,476.86L79.234,474.52L79.695,477.86L80.156,467.38L80.617,481.11L81.078,432.92L81.539,450.07L82,445.44L82.461,450.87L82.922,458.62L83.383,460.78L83.844,456.88L84.305,453.79L84.766,448.95L85.227,449.62L85.688,466.67L86.149,463.2L86.61,444.54L87.071,471.13L87.532,389.68L87.993,498.15L88.454,418.17L88.915,469.47L89.376,463.74L89.836,408.49L90.297,458.39L90.758,458.16L91.219,452.35L91.68,419.18L92.141,462.47L92.602,462.21L93.063,454.65L93.524,453.43L93.985,453.76L94.446,459.8L94.907,429.83L95.368,428.97L95.829,467.18L96.29,439.59L96.751,407.73L97.212,416.55L97.673,483.24L98.134,427.45L98.595,474.4L99.056,435.44L99.517,474.93L99.978,444.34L100.44,440.4L100.9,448.75L101.36,464.89L101.82,486.19L102.28,455.97L102.74,429.17L103.2,461.65L103.67,530.58L104.13,432.48L104.59,443.19" style="fill:none;stroke:#9E67AB;stroke-width:1.875;stroke-dasharray:6.25,2.5,1.25,2.5" />
<path d="M75.085,57.088L75.546,68.098L76.007,77.87L76.468,74.267L76.929,73.217L77.39,73.988L77.851,82.391L78.312,66.901L78.773,78.668L79.234,82.909L79.695,63.976L80.156,82.816L80.617,71.767L81.078,84.066L81.539,69.666L82,73.03L82.461,77.232L82.922,62.42L83.383,80.583L83.844,73.323L84.305,62.42L84.766,64.188L85.227,67.286L85.688,65.279L86.149,72.844L86.61,64.454L87.071,67.114L87.532,72.645L87.993,73.296L88.454,80.463L88.915,67.632L89.376,62.008L89.836,61.037L90.297,72.844L90.758,73.841L91.219,75.995L91.68,67.871L92.141,66.303L92.602,59.016L93.063,75.051L93.524,69.813L93.985,70.265L94.446,76.022L94.907,69.799L95.368,57.793L95.829,61.263L96.29,62.872L96.751,80.277L97.212,70.145L97.673,71.807L98.134,64.76L98.595,56.862L99.056,85.05L99.517,69.055L99.978,67.167L100.44,81.088L100.9,49.39L101.36,63.404L101.82,75.45L102.28,77.086L102.74,70.557L103.2,60.864L103.67,62.912L104.13,67.938L104.59,76.328L105.05,66.768L105.51,63.856L105.97,49.456L106.43,65.172L106.89,67.925L107.35,68.164L107.81,77.91L108.28,62.819L108.74,48.06L109.2,78.389L109.66,64.867L110.12,74.36L110.58,64.308L111.04,55.094L111.5,50.64L111.96,68.004L112.42,56.769L112.88,77.165L113.35,77.059L113.81,75.41L114.27,61.383L114.73,48.06L115.19,60.532L115.65,48.06L116.11,63.258L116.57,83.574L117.03,77.883L117.49,74.32L117.96,48.06L118.42,55.612L118.88,64.202L119.34,76.74L119.8,61.968L120.26,64.481L120.72,61.064L121.18,48.06L121.64,63.165L122.1,49.51L122.57,55.466L123.03,71.794L123.49,75.144L123.95,66.263L124.41,73.203L124.87,51.544L125.33,48.06L125.79,52.488L126.25,48.472L126.71,70.876L127.18,75.57L127.64,75.583L128.1,68.457L128.56,48.06L129.02,59.814L129.48,51.85L129.94,51.278L130.4,71.834L130.86,67.792L131.32,80.303L131.78,66.409L132.25,48.06L132.71,52.634L133.17,50.148L133.63,54.323L134.09,57.846L134.55,65.917L135.01,80.064L135.47,65.252L135.93,71.568L136.39,59.189L136.86,48.06L137.32,52.488L137.78,48.06L138.24,57.873L138.7,88.786L139.16,65.983L139.62,63.603L140.08,73.988L140.54,48.06L141,51.384L141.47,52.488L141.93,48.06L142.39,53.498L142.85,82.524L143.31,73.788L143.77,68.004L144.23,61.29L144.69,48.06L145.15,48.06L145.61,48.06L146.07,52.488L146.54,48.06L147,48.06L147.46,57.939L147.92,69.028L148.38,67.858L148.84,65.026L149.3,62.274L149.76,48.06L150.22,48.06L150.68,48.06L151.15,63.736L151.61,48.06L152.07,48.06L152.53,67.473L152.99,68.284L153.45,48.06L153.91,68.696L154.37,76.966L154.83,48.06L155.29,48.06L155.76,48.486L156.22,79.479L156.68,74.945L157.14,67.832L157.6,48.06L158.06,48.06L158.52,48.06L158.98,51.81L159.44,48.06L159.9,59.202L160.36,78.588L160.83,61.396L161.29,76.554L161.75,61.569L162.21,48.06L162.67,48.06L163.13,48.06L163.59,52.382L164.05,48.06L164.51,62.473L164.97,68.922L165.44,74.573L165.9,67.3L166.36,64.215L166.82,48.06L167.28,48.06L167.74,48.06L168.2,58.019L168.66,48.06L169.12,59.867L169.58,77.139L170.05,79.133L170.51,72.405L170.97,48.06L171.43,48.06L171.89,57.088L172.35,48.06L172.81,56.065L173.27,73.496L173.73,60.931L174.19,77.006L174.65,48.06L175.12,48.06L175.58,48.06L176.04,48.06L176.5,53.459L176.96,48.06L177.42,48.06L177.88,48.06L178.34,55.147L178.8,69.76L179.26,51.69L179.73,49.363L180.19,48.06L180.65,68.058L181.11,66.901L181.57,48.831L182.03,55.333L182.49,59.003L182.95,66.941L183.41,62.021L183.87,56.557L184.34,48.06L184.8,52.501L185.26,48.06L185.72,48.06L186.18,73.682L186.64,48.06L187.1,69.148L187.56,64.747L188.02,59.256L188.48,66.688L188.95,48.06L189.41,52.794L189.87,48.06L190.33,52.488L190.79,68.855L191.25,52.475L191.71,51.823L192.17,77.126L192.63,68.23L193.09,70.956L193.55,48.074L194.02,56.198L194.48,57.181L194.94,56.583L195.4,48.526L195.86,48.06L196.32,64.933L196.78,74.719L197.24,63.484L197.7,48.06L198.16,59.003L198.63,48.06L199.09,50.706L199.55,73.004L200.01,48.06L200.47,72.858L200.93,70.916L201.39,67.818L201.85,64.002L202.31,48.06L202.77,48.06L203.24,48.06L203.7,48.06L204.16,52.501L204.62,48.06L205.08,48.06L205.54,48.06L206,52.501L206.46,74.214L206.92,65.292L207.38,55.506L207.84,48.22L208.31,64.986L208.77,74.546L209.23,49.43L209.69,50.879L210.15,48.06L210.61,48.06L211.07,55.945L211.53,72.352L211.99,56.503L212.45,51.65L212.92,65.571L213.38,64.96L213.84,53.831L214.3,48.06L214.76,48.06L215.22,55.16L215.68,48.06L216.14,74.054L216.6,67.326L217.06,68.829L217.53,48.938L217.99,48.06L218.45,48.06L218.91,48.06L219.37,64.68L219.83,48.074L220.29,59.708L220.75,48.06L221.21,48.06L221.67,50.015L222.13,64.454L222.6,61.822L223.06,48.06L223.52,60.107L223.98,81.593L224.44,51.052L224.9,52.488L225.36,48.06L225.82,48.06L226.28,50.64L226.74,64.135L227.21,70.637L227.67,48.06L228.13,58.179L228.59,60.785L229.05,52.501L229.51,48.06L229.97,48.06L230.43,48.06L230.89,48.06L231.35,56.025L231.82,69.866L232.28,48.06L232.74,59.202L233.2,57.873L233.66,48.06L234.12,48.06L234.58,48.06L235.04,48.845L235.5,53.591L235.96,66.914L236.42,69.188L236.89,73.429L237.35,48.06L237.81,59.681L238.27,57.833L238.73,48.06L239.19,48.06L239.65,52.501L240.11,64.933L240.57,48.06L241.03,68.762L241.5,73.389L241.96,61.197L242.42,54.775L242.88,54.19L243.34,60.426L243.8,48.06L244.26,48.06L244.72,48.06L245.18,48.06L245.64,56.583L246.11,48.06L246.57,67.313L247.03,72.485L247.49,63.869L247.95,52.395L248.41,48.06L248.87,61.569L249.33,53.153L249.79,48.06L250.25,48.672L250.72,66.223L251.18,48.06L251.64,48.06L252.1,61.941L252.56,70.69L253.02,68.563L253.48,48.06L253.94,50.427L254.4,69.932L254.86,48.06L255.32,48.06L255.79,68.736L256.25,48.06L256.71,48.06L257.17,48.552L257.63,73.868L258.09,77.165L258.55,51.318L259.01,48.06L259.47,59.335L259.93,58.524L260.4,48.06L260.86,52.488L261.32,71.209L261.78,48.06L262.24,48.06L262.7,64.986L263.16,81.354L263.62,56.862L264.08,48.06L264.54,63.643L265.01,60.412L265.47,48.06L265.93,48.06L266.39,63.603L266.85,53.591L267.31,48.06L267.77,48.06L268.23,63.205L268.69,66.595L269.15,67.965L269.61,48.06L270.08,61.13L270.54,56.49L271,49.337L271.46,48.06L271.92,69.68L272.38,53.459L272.84,48.06L273.3,48.06L273.76,65.252L274.22,60.665L274.69,66.741L275.15,48.06L275.61,61.064L276.07,62.739L276.53,48.06L276.99,48.06L277.45,63.71L277.91,50.387L278.37,48.06L278.83,48.06L279.3,48.06L279.76,70.65L280.22,74.839L280.68,54.15L281.14,48.06L281.6,61.383L282.06,59.123L282.52,48.06L282.98,48.06L283.44,48.06L283.9,56.783L284.37,48.911L284.83,48.06L285.29,71.435L285.75,66.037L286.21,70.039L286.67,48.06L287.13,48.06L287.59,64.361L288.05,52.102L288.51,48.06L288.98,48.06L289.44,48.06L289.9,52.488L290.36,48.06L290.82,56.45L291.28,72.671L291.74,65.345L292.2,64.946L292.66,48.06L293.12,73.549L293.59,50.653L294.05,48.06L294.51,48.06L294.97,48.06L295.43,54.668L295.89,48.06L296.35,54.695L296.81,65.212L297.27,74.719L297.73,58.338L298.19,48.06L298.66,48.06L299.12,63.258L299.58,56.836L300.04,48.06L300.5,48.06L300.96,62.021L301.42,52.927L301.88,48.06L302.34,48.06L302.8,67.818L303.27,71.515L303.73,65L304.19,48.06L304.65,66.143L305.11,54.509L305.57,48.06L306.03,48.06L306.49,55.865L306.95,59.202L307.41,48.06L307.88,66.329L308.34,68.337L308.8,69.414L309.26,54.416L309.72,48.06L310.18,57.088L310.64,62.487L311.1,48.06L311.56,48.06L312.02,50.134L312.48,57.274L312.95,48.06L313.41,48.06L313.87,48.06L314.33,60.599L314.79,69.733L315.25,59.575L315.71,48.06L316.17,67.047L316.63,48.06L317.09,48.06L317.56,48.06L318.02,51.477L318.48,48.06L318.94,48.06L319.4,57.54L319.86,64.694L320.32,78.734L320.78,56.477L321.24,48.06L321.7,59.601L322.17,63.404L322.63,48.06L323.09,48.06L323.55,48.06L324.01,48.06L324.47,52.395L324.93,48.06L325.39,48.06L325.85,56.929L326.31,64.375" style="fill:none;stroke:#CE7058;stroke-width:1.875;stroke-dasharray:12.5,2.5,2.5,2.5,2.5,2.5,2.5,2.5" />
<path d="M75.085,167.21L75.546,193.57L76.007,168.9L76.468,173.03L76.929,165.61L77.39,168.04L77.851,177.25L78.312,168.76L78.773,176.85L79.234,171.45L79.695,168.44L80.156,166.61L80.617,170.38L81.078,174.03L81.539,165.17L82,176.38L82.461,162.65L82.922,177.87L83.383,175.52L83.844,165.32L84.305,170.82L84.766,170.54L85.227,170.6L85.688,171.97L86.149,174.68L86.61,160.89L87.071,176.67L87.532,174.16L87.993,179.03L88.454,173.16L88.915,167.62L89.376,171.47L89.836,156.4L90.297,169.13L90.758,178.02L91.219,157.95L91.68,172.76L92.141,173.84L92.602,161.14L93.063,170.13L93.524,171.78L93.985,167.26L94.446,182.27L94.907,156.18L95.368,177.58L95.829,165.72L96.29,177.98L96.751,164.72L97.212,174.87L97.673,158.27L98.134,176.37L98.595,159.53L99.056,186.77L99.517,145.48L99.978,184.45L100.44,155.55L100.9,180.73L101.36,149.46L101.82,175.08L102.28,157.94L102.74,185.44L103.2,173.93L103.67,172.18L104.13,187.35L104.59,151.88L105.05,178.92L105.51,156.9L105.97,175.06L106.43,181.78L106.89,152.01L107.35,190.79L107.81,155.71L108.28,170.58L108.74,184.62L109.2,148.21L109.66,172.62L110.12,181.55L110.58,153.22L111.04,178.24L111.5,180.05L111.96,149.58L112.42,185.45L112.88,170.76L113.35,149.23L113.81,185.05L114.27,184.84L114.73,150.97L115.19,179.25L115.65,188.37L116.11,151.77L116.57,187.67L117.03,176.99L117.49,148.02L117.96,181.78L118.42,182.39L118.88,169.35L119.34,160.01L119.8,185.78L120.26,187.6L120.72,142.24L121.18,182.59L121.64,177.43L122.1,157.06L122.57,173.2L123.03,178.67L123.49,186.37L123.95,140.52L124.41,177.07L124.87,168.4L125.33,185.25L125.79,138.34L126.25,177.4L126.71,172.3L127.18,190.69L127.64,129.75L128.1,172.83L128.56,176.33L129.02,175.2L129.48,144.12L129.94,170.29L130.4,179.11L130.86,181.43L131.32,157.04L131.78,153.14L132.25,174.55L132.71,181.15L133.17,182.44L133.63,130.67L134.09,176.55L134.55,173.39L135.01,174.52L135.47,158.43L135.93,159.52L136.39,184.37L136.86,186.18L137.32,180.41L137.78,127.74L138.24,171.25L138.7,182.59L139.16,189.42L139.62,149.46L140.08,158.87L140.54,190.08L141,157.34L141.47,180.57L141.93,150.57L142.39,156.2L142.85,173.97L143.31,165.54L143.77,179.49L144.23,167.62L144.69,128.54L145.15,181.87L145.61,183.31L146.07,169L146.54,185.22L147,117.67L147.46,177.34L147.92,179.64L148.38,181.93L148.84,166.29L149.3,129.18L149.76,170.48L150.22,169.05L150.68,174.83L151.15,181.41L151.61,184.78L152.07,119.55L152.53,193.27L152.99,180.58L153.45,182.4L153.91,166.44L154.37,122L154.83,176.22L155.29,173.8L155.76,174.88L156.22,158.36L156.68,129.15L157.14,169.31L157.6,170.69L158.06,184.56L158.52,126.92L158.98,141.37L159.44,172.68L159.9,172.98L160.36,131.65L160.83,48.06L161.29,48.06L161.75,60.997L162.21,81.247L162.67,86.353L163.13,72.366L163.59,90.661L164.05,77.445L164.51,94.849L164.97,89.757L165.44,85.223L165.9,91.459L166.36,56.171L166.82,53.073L167.28,51.664L167.74,48.06L168.2,48.951L168.66,48.06L169.12,48.06L169.58,48.925L170.05,48.06L170.51,48.06L170.97,48.925L171.43,48.06L171.89,48.925L172.35,48.06L172.81,48.06L173.27,48.925L173.73,48.06L174.19,48.06L174.65,48.06L175.12,48.06L175.58,48.06L176.04,49.789L176.5,48.06L176.96,48.925L177.42,48.06L177.88,48.06L178.34,54.097L178.8,66.209L179.26,54.974L179.73,54.11L180.19,53.232L180.65,56.716L181.11,54.974L181.57,54.11L182.03,54.961L182.49,53.286L182.95,55.001L183.41,56.636L183.87,52.382L184.34,56.689L184.8,54.961L185.26,52.382L185.72,56.689L186.18,55.825L186.64,52.382L187.1,56.703L187.56,52.382L188.02,49.775L188.48,48.074L188.95,48.911L189.41,48.06L189.87,48.06L190.33,48.074L190.79,48.06L191.25,48.06L191.71,48.911L192.17,50.666L192.63,51.504L193.09,50.666L193.55,50.985L194.02,49.789L194.48,50.653L194.94,51.517L195.4,50.653L195.86,50.653L196.32,49.284L196.78,48.951L197.24,50.587L197.7,49.815L198.16,50.626L198.63,49.789L199.09,49.802L199.55,49.257L200.01,48.925L200.47,48.951L200.93,48.951L201.39,49.749L201.85,49.775L202.31,48.964L202.77,49.789L203.24,48.911L203.7,49.775L204.16,49.762L204.62,48.419L205.08,48.925L205.54,48.898L206,48.925L206.46,48.938L206.92,48.951L207.38,48.951L207.84,48.938L208.31,49.722L208.77,48.991L209.23,49.722L209.69,48.991L210.15,49.709L210.61,48.433L211.07,48.393L211.53,49.417L211.99,48.167L212.45,48.898L212.92,49.722L213.38,48.978L213.84,48.938L214.3,49.031L214.76,49.669L215.22,48.885L215.68,49.775L216.14,48.964L216.6,48.938L217.06,48.433L217.53,48.871L217.99,48.911L218.45,48.898L218.91,48.925L219.37,48.964L219.83,48.964L220.29,49.696L220.75,48.273L221.21,49.656L221.67,48.898L222.13,49.749L222.6,48.978L223.06,48.925L223.52,48.419L223.98,48.898L224.44,48.885L224.9,48.911L225.36,48.925L225.82,48.951L226.28,48.951L226.74,48.951L227.21,48.885L227.67,49.762L228.13,48.18L228.59,49.696L229.05,49.736L229.51,48.951L229.97,48.419L230.43,48.153L230.89,48.898L231.35,48.898L231.82,48.871L232.28,48.925L232.74,48.951L233.2,48.938L233.66,48.951L234.12,48.925L234.58,49.709L235.04,48.207L235.5,49.629L235.96,48.978L236.42,48.964L236.89,48.911L237.35,48.419L237.81,48.871L238.27,48.885L238.73,48.193L239.19,49.563L239.65,48.233L240.11,48.964L240.57,49.709L241.03,48.871L241.5,48.286L241.96,49.656L242.42,48.938L242.88,49.682L243.34,48.978L243.8,48.951L244.26,48.406L244.72,48.326L245.18,49.443L245.64,48.911L246.11,48.845L246.57,48.06L247.03,48.06L247.49,48.06L247.95,51.61L248.41,48.06L248.87,48.06L249.33,48.06L249.79,48.06L250.25,48.06L250.72,48.06L251.18,48.06L251.64,48.06L252.1,56.251L252.56,48.06L253.02,48.06L253.48,48.06L253.94,48.06L254.4,48.06L254.86,48.06L255.32,53.073L255.79,48.06L256.25,48.06L256.71,48.06L257.17,48.06L257.63,50.041L258.09,52.993L258.55,57.554L259.01,53.246L259.47,52.036L259.93,57.048L260.4,54.11L260.86,54.11L261.32,54.11L261.78,54.961L262.24,52.395L262.7,54.11L263.16,51.504L263.62,51.517L264.08,51.517L264.54,50.852L265.01,51.331L265.47,51.504L265.93,50.666L266.39,50.121L266.85,51.504L267.31,50.68L267.77,52.355L268.23,49.815L268.69,50.134L269.15,51.504L269.61,50.653L270.08,50.946L270.54,50.374L271,50.095L271.46,48.087L271.92,48.06L272.38,48.06L272.84,48.06L273.3,48.898L273.76,48.06L274.22,48.06L274.69,48.06L275.15,50.241L275.61,54.017L276.07,52.382L276.53,51.079L276.99,50.653L277.45,51.424L277.91,52.382L278.37,49.39L278.83,49.762L279.3,49.775L279.76,50.587L280.22,49.789L280.68,51.438L281.14,49.004L281.6,49.35L282.06,48.938L282.52,48.925L282.98,49.749L283.44,49.749L283.9,48.925L284.37,49.749L284.83,49.775L285.29,50.587L285.75,48.167L286.21,49.35L286.67,48.925L287.13,48.153L287.59,49.696L288.05,49.775L288.51,49.722L288.98,48.938L289.44,50.56L289.9,49.775L290.36,48.991L290.82,49.35L291.28,48.925L291.74,48.167L292.2,49.696L292.66,49.775L293.12,49.456L293.59,49.19L294.05,49.762L294.51,50.587L294.97,48.978L295.43,48.964L295.89,48.539L296.35,48.951L296.81,49.656L297.27,49.749L297.73,49.762L298.19,48.964L298.66,49.749L299.12,49.815L299.58,49.736L300.04,48.951L300.5,48.579L300.96,48.938L301.42,49.669L301.88,49.736L302.34,49.762L302.8,48.964L303.27,49.749L303.73,49.829L304.19,49.749L304.65,48.938L305.11,48.579L305.57,48.978L306.03,48.06L306.49,48.06L306.95,48.06L307.41,53.086L307.88,48.06L308.34,48.06L308.8,48.06L309.26,48.06L309.72,55.413L310.18,48.06L310.64,48.06L311.1,48.06L311.56,48.06L312.02,48.06L312.48,48.06L312.95,48.06L313.41,48.06L313.87,48.06L314.33,48.06L314.79,48.06L315.25,48.06L315.71,48.06L316.17,48.06L316.63,48.06L317.09,59.309L317.56,54.097L318.02,54.11L318.48,54.11L318.94,54.974L319.4,54.11L319.86,54.11L320.32,54.11L320.78,53.219L321.24,53.259L321.7,55.839L322.17,53.246L322.63,55.839L323.09,52.368L323.55,53.232L324.01,49.802L324.47,52.82L324.93,51.065L325.39,51.504L325.85,51.504L326.31,50.653L326.78,50.467L327.24,52.049L327.7,50.653L328.16,50.653L328.62,51.531L329.08,50.972L329.54,50.653L330,50.666L330.46,51.504L330.92,50.985L331.38,50.666L331.85,50.64L332.31,50.653L332.77,51.531L333.23,49.829L333.69,50.946L334.15,50.653L334.61,50.666L335.07,50.626L335.53,49.842L335.99,50.959L336.46,50.64L336.92,50.666L337.38,50.693L337.84,50.613L338.3,50.134L338.76,50.68L339.22,50.64L339.68,50.626L340.14,49.855L340.6,50.613L341.07,50.095L341.53,49.842L341.99,50.613L342.45,50.68L342.91,50.6L343.37,49.815L343.83,50.108L344.29,49.842L344.75,50.613L345.21,49.842L345.67,50.414L346.14,50.826L346.6,49.297L347.06,49.789L347.52,50.626L347.98,48.991L348.44,51.504L348.9,50.587L349.36,49.084L349.82,49.975L350.28,49.815L350.75,50.64L351.21,48.991L351.67,50.626L352.13,50.587L352.59,49.084L353.05,50.826L353.51,49.004L353.97,50.6L354.43,49.018L354.89,50.613L355.36,50.587L355.82,49.935L356.28,50.002L356.74,48.978L357.2,50.6L357.66,49.829L358.12,50.666L358.58,49.709L359.04,49.456L359.5,50.454L359.96,48.978L360.43,50.626L360.89,49.031L361.35,50.587L361.81,49.789L362.27,49.869L362.73,49.855L363.19,49.935L363.65,49.018L364.11,49.749L364.57,49.789L365.04,50.68L365.5,49.696L365.96,49.097L366.42,50.68L366.88,49.084L367.34,49.004L367.8,50.626L368.26,49.815L368.72,49.789L369.18,49.736L369.65,49.908L370.11,48.978L370.57,49.935L371.03,49.004L371.49,50.613L371.95,49.775L372.41,48.951L372.87,48.911L373.33,48.06L373.79,48.087L374.25,49.696L374.72,49.084L375.18,49.842L375.64,49.922L376.1,48.991L376.56,49.762L377.02,49.004L377.48,49.789L377.94,49.775L378.4,48.911L378.86,49.789L379.33,49.869L379.79,49.137L380.25,48.991L380.71,49.762L381.17,48.871L381.63,48.991L382.09,49.789L382.55,49.775L383.01,48.898L383.47,49.775L383.94,49.031L384.4,49.842L384.86,49.084L385.32,48.951L385.78,48.991L386.24,49.709L386.7,48.991L387.16,48.951L387.62,49.762L388.08,49.682L388.55,49.004L389.01,49.018L389.47,49.842L389.93,49.111L390.39,48.978L390.85,49.656L391.31,49.004L391.77,49.736L392.23,48.991L392.69,49.709L393.15,48.964L393.62,48.991L394.08,49.869L394.54,49.097L395,49.775L395.46,48.207L395.92,49.696L396.38,48.991L396.84,48.898L397.3,48.964L397.76,48.06L398.23,48.06L398.69,48.06L399.15,55.001L399.61,48.06L400.07,48.06L400.53,48.06L400.99,48.06L401.45,48.06L401.91,48.06L402.37,48.06L402.84,48.06L403.3,48.06L403.76,48.06L404.22,48.06L404.68,57.86L405.14,48.06L405.6,48.06L406.06,48.06L406.52,48.06L406.98,48.06L407.44,48.074L407.91,48.06L408.37,49.789L408.83,52.368L409.29,54.11L409.75,54.961L410.21,53.246L410.67,54.961L411.13,54.961L411.59,53.246L412.05,54.961L412.52,54.083L412.98,54.137L413.44,54.11L413.9,53.246L414.36,56.703L414.82,51.504L415.28,51.517L415.74,50.64L416.2,50.666L416.66,51.757L417.13,51.265L417.59,50.666L418.05,51.517L418.51,51.012L418.97,52.355L419.43,50.653L419.89,51.517L420.35,50.999L420.81,51.517L421.27,50.653L421.73,51.477L422.2,50.161L422.66,50.64L423.12,51.531L423.58,49.815L424.04,51.464L424.5,50.161L424.96,50.653L425.42,50.68L425.88,50.613L426.34,51.491L426.81,50.134L427.27,49.829L427.73,51.491L428.19,50.653L428.65,49.855L429.11,50.613L429.57,50.134L430.03,50.653L430.49,51.477L430.95,49.842L431.42,50.587L431.88,50.148L432.34,49.869L432.8,51.451L433.26,50.706L433.72,49.802L434.18,50.547L434.64,49.323L435.1,49.882L435.56,52.235L436.02,49.895L436.49,50.64L436.95,49.696L437.41,49.35L437.87,51.398L438.33,51.544L438.79,49.603L439.25,50.068L439.71,50.055L440.17,49.842L440.63,50.547L441.1,50.68L441.56,50.467L442.02,50.068L442.48,49.709L442.94,50.188L443.4,49.882L443.86,49.736L444.32,50.587L444.78,49.576L445.24,50.799L445.71,49.363L446.17,50.68L446.63,49.842L447.09,50.48L447.55,49.018L448.01,49.815L448.47,50.56L448.93,50.174L449.39,49.855L449.85,50.48L450.32,49.815L450.78,49.882L451.24,48.951L451.7,50.547L452.16,50.188L452.62,49.869L453.08,49.815L453.54,50.467L454,49.031L454.46,49.815L454.92,50.547L455.39,50.174L455.85,49.829L456.31,49.855L456.77,50.467L457.23,49.058L457.69,49.789L458.15,50.533L458.61,48.938L459.07,50.174L459.53,48.06L460,48.06L460.46,48.06L460.92,48.06L461.38,57.633L461.84,48.06L462.3,48.06L462.76,48.06L463.22,50.547L463.68,48.06L464.14,48.06L464.61,48.06L465.07,48.06L465.53,49.775L465.99,48.06L466.45,48.925L466.91,48.06L467.37,48.06L467.83,48.06L468.29,48.925L468.75,48.06L469.21,48.06L469.68,48.06L470.14,48.06L470.6,52.382L471.06,54.948L471.52,54.974L471.98,54.097L472.44,53.246L472.9,54.974L473.36,52.382L473.82,55.839L474.29,54.083L474.75,54.988L475.21,54.974L475.67,53.246L476.13,54.11L476.59,52.382L477.05,50.653L477.51,51.504L477.97,51.517L478.43,51.504L478.9,50.666L479.36,51.504L479.82,50.161L480.28,52.195L480.74,49.988L481.2,51.491L481.66,51.491L482.12,51.012L482.58,51.504L483.04,50.653L483.5,50.64L483.97,49.829L484.43,50.999L484.89,50.693L485.35,50.6L485.81,50.653L486.27,50.64L486.73,50.121L487.19,49.815L487.65,50.626L488.11,50.653L488.58,50.626L489.04,50.201L489.5,50.6L489.96,49.829L490.42,49.762L490.88,51.504L491.34,50.626L491.8,49.337L492.26,50.64L492.72,50.64L493.19,48.911L493.65,50.666L494.11,50.613L494.57,50.188L495.03,50.6L495.49,49.815L495.95,49.004L496.41,49.696L496.87,48.1L497.33,48.06L497.79,48.885L498.26,49.762L498.72,49.802L499.18,50.174L499.64,50.6L500.1,49.829L500.56,49.004L501.02,49.722L501.48,49.775L501.94,48.951L502.4,50.573L502.87,49.323L503.33,50.64L503.79,49.775L504.25,48.964L504.71,48.871L505.17,49.004L505.63,49.736L506.09,48.951L506.55,49.855L507.01,50.041L507.48,49.789L507.94,50.626L508.4,48.964L508.86,48.18L509.32,49.709L509.78,49.722L510.24,48.951L510.7,49.722L511.16,49.842L511.62,50.174L512.08,49.775L512.55,49.762L513.01,48.193L513.47,49.682L513.93,49.736L514.39,48.978L514.85,49.696L515.31,49.855L515.77,50.161L516.23,49.722L516.69,49.802L517.16,48.193L517.62,49.696L518.08,48.911L518.54,49.802L519,49.696L519.46,49.802L519.92,50.161L520.38,49.789L520.84,49.789L521.3,48.207L521.77,49.682L522.23,48.911L522.69,49.775L523.15,49.722L523.61,49.802L524.07,50.161L524.53,49.775L524.99,48.991L525.45,49.018L525.91,48.964L526.38,49.603L526.84,49.802L527.3,48.938L527.76,49.815L528.22,50.813L528.68,49.895L529.14,48.991L529.6,49.018L530.06,48.831L530.52,49.722L530.98,49.815L531.45,48.911L531.91,49.018L532.37,50.095L532.83,50.573L533.29,49.829L533.75,49.018L534.21,48.818L534.67,49.044L535.13,49.696L535.59,49.736L536.06,48.978L536.52,49.882L536.98,50.746L537.44,49.044L537.9,49.018L538.36,49.031L538.82,49.629L539.28,48.938L539.74,49.775L540.2,49.736L540.67,49.071L541.13,49.855L541.59,48.06L542.05,48.06L542.51,48.06L542.97,53.432L543.43,48.06L543.89,48.06L544.35,48.06L544.81,48.06L545.27,48.06L545.74,48.06L546.2,48.06L546.66,57.7L547.12,48.06L547.58,48.06L548.04,48.06L548.5,48.06L548.96,48.06L549.42,48.087L549.88,48.911L550.35,48.06L550.81,48.06L551.27,48.06L551.73,48.06L552.19,48.06L552.65,48.06L553.11,48.06L553.57,56.689L554.03,54.097L554.49,54.961L554.96,54.097L555.42,54.11L555.88,54.974L556.34,54.11L556.8,54.11L557.26,54.961L557.72,53.246L558.18,54.11L558.64,54.974L559.1,51.517L559.56,52.382L560.03,58.431L560.49,52.368L560.95,52.382L561.41,52.368L561.87,50.666L562.33,51.517L562.79,51.504L563.25,50.666L563.71,51.504L564.17,51.012L564.64,51.504L565.1,49.802L565.56,50.946L566.02,51.531L566.48,50.693L566.94,50.653L567.4,50.64L567.86,52.288L568.32,49.337L568.78,51.531L569.25,50.626L569.71,50.693L570.17,51.491L570.63,49.27L571.09,50.706L571.55,50.64L572.01,49.789L572.47,49.762L572.93,48.898L573.39,48.06L573.85,48.938L574.32,49.829L574.78,50.081L575.24,49.855L575.7,50.666L576.16,49.762L576.62,50.6L577.08,49.802L577.54,49.802L578,49.23L578.46,49.829L578.93,49.789L579.39,48.964L579.85,49.736L580.31,48.925L580.77,49.789L581.23,50.626L581.69,48.978L582.15,49.23L582.61,49.815L583.07,49.789L583.54,48.978L584,48.885L584.46,49.789L584.92,50.587L585.38,48.964L585.84,49.802L586.3,49.257L586.76,49.789L587.22,49.842L587.68,48.951L588.15,48.898L588.61,49.749L589.07,50.587L589.53,48.991L589.99,49.762L590.45,49.284L590.91,49.775L591.37,48.964L591.83,49.789L592.29,48.898L592.75,49.749L593.22,48.964L593.68,50.587L594.14,49.004L594.6,49.23L595.06,49.775L595.52,49.815L595.98,49.084L596.44,49.563L596.9,48.991L597.36,48.938L597.83,50.613L598.29,49.749L598.75,48.978L599.21,49.244L599.67,49.802L600.13,48.964L600.59,49.058L601.05,49.589L601.51,48.964L601.97,48.951L602.44,50.613L602.9,49.736L603.36,48.193L603.82,50.028L604.28,48.964L604.74,49.789L605.2,49.071L605.66,48.871L606.12,49.682L606.58,48.978L607.04,49.975L607.51,49.563L607.97,48.978L608.43,49.177L608.89,49.815L609.35,49.789L609.81,48.991L610.27,48.951L610.73,48.871L611.19,48.951L611.65,49.922L612.12,50.414L612.58,48.938L613.04,49.244L613.5,48.991L613.96,49.802L614.42,48.964L614.88,49.722L615.34,48.858L615.8,48.991L616.26,49.363L616.73,50.201L617.19,49.722L617.65,48.964L618.11,48.419L618.57,49.789L619.03,49.829L619.49,48.167L619.95,49.749L620.41,48.831L620.87,49.762L621.33,50.002L621.8,49.549L622.26,49.004L622.72,48.911L623.18,49.257L623.64,49.789L624.1,48.991L624.56,49.018L625.02,49.164L625.48,49.377L625.94,48.964L626.41,50.573L626.87,48.964L627.33,48.978L627.79,49.204L628.25,49.775L628.71,49.004L629.17,48.978L629.63,49.696L630.09,48.885L630.55,48.978L631.02,49.749L631.48,50.573L631.94,48.951L632.4,48.951L632.86,49.257L633.32,48.978L633.78,49.802L634.24,49.004L634.7,48.898L635.16,48.871L635.62,49.27L636.09,50.267L636.55,49.775L637.01,48.951L637.47,48.925L637.93,49.284L638.39,49.762L638.85,48.951L639.31,49.018L639.77,48.911L640.23,48.898L640.7,49.762L641.16,50.56L641.62,49.004L642.08,49.709L642.54,48.406L643,49.789L643.46,49.044L643.92,48.951L644.38,49.643L644.84,48.512L645.31,49.377L645.77,49.762L646.23,50.6L646.69,48.207L647.15,48.911L647.61,49.164L648.07,48.06L648.53,48.06L648.99,48.06L649.45,48.06L649.92,54.177L650.38,48.06L650.84,48.06L651.3,53.126L651.76,48.06L652.22,51.039L652.68,48.06L653.14,48.06L653.6,48.925L654.06,48.06L654.52,48.06L654.99,48.06L655.45,48.06L655.91,48.06L656.37,48.06L656.83,48.06L657.29,48.06L657.75,48.06L658.21,48.06L658.67,50.653L659.13,48.06L659.6,52.382L660.06,54.948L660.52,49.789L660.98,58.418L661.44,53.246L661.9,51.517L662.36,56.676L662.82,54.974L663.28,53.246L663.74,55.839L664.21,54.11L664.67,53.232L665.13,55.852L665.59,53.804L666.05,55.253L666.51,51.517L666.97,51.517L667.43,49.802L667.89,51.517L668.35,51.504L668.81,51.517L669.28,50.666L669.74,51.65L670.2,50.839L670.66,50.666L671.12,51.517L671.58,49.962L672.04,50.826L672.5,50.64L672.96,51.531L673.42,50.653L673.89,49.948L674.35,50.839L674.81,51.491L675.27,50.666L675.73,50.653L676.19,49.962L676.65,48.911L677.11,48.06L677.57,48.074L678.03,48.06L678.5,49.988L678.96,51.464L679.42,50.666L679.88,50.693L680.34,49.935L680.8,49.789L681.26,49.111L681.72,48.938L682.18,50.587L682.64,49.815L683.1,49.656L683.57,49.908L684.03,48.964L684.49,49.908L684.95,48.978L685.41,49.071L685.87,48.938L686.33,49.802L686.79,50.587L687.25,48.978L687.71,49.802L688.18,49.775L688.64,49.111L689.1,49.736L689.56,48.938L690.02,48.818L690.48,49.23L690.94,50.6L691.4,48.991L691.86,49.802L692.32,49.775L692.79,49.895L693.25,48.978L693.71,48.951L694.17,49.111L694.63,48.911L695.09,49.802L695.55,50.587L696.01,49.629L696.47,49.111L696.93,49.775L697.39,49.895L697.86,48.951L698.32,48.938L698.78,48.831L699.24,49.217L699.7,50.573L700.16,49.044L700.62,49.749L701.08,49.802L701.54,48.938L702,49.922L702.47,48.951L702.93,49.084L703.39,48.911L703.85,48.978L704.31,50.587L704.77,49.775L705.23,49.018L705.69,50.493L706.15,49.164L706.61,49.749L707.08,48.925L707.54,48.326L708,49.722L708.46,49.018L708.92,49.709L709.38,50.48L709.84,48.313L710.3,50.52L710.76,49.164L711.22,49.749L711.68,48.925L712.15,48.313L712.61,49.722L713.07,49.031L713.53,49.696L713.99,49.736L714.45,49.058L714.91,50.493L715.37,49.177L715.83,49.749L716.29,48.898L716.76,48.34L717.22,49.722L717.68,48.978L718.14,49.736L718.6,49.749L719.06,49.031L719.52,49.722L719.98,49.071L720.44,49.829L720.9,48.938L721.37,49.058L721.83,48.925L722.29,48.978L722.75,50.56L723.21,48.991L723.67,49.775L724.13,49.018L724.59,49.643L725.05,49.164L725.51,49.736L725.98,48.925L726.44,48.353L726.9,49.682L727.36,49.004L727.82,49.749L728.28,49.709L728.74,49.018L729.2,49.802L729.66,49.031L730.12,49.829L730.58,48.911L731.05,48.898L731.51,49.097L731.97,48.991L732.43,49.709L732.89,49.815L733.35,49.789L733.81,49.004L734.27,49.643L734.73,49.151L735.19,49.722L735.66,48.207L736.12,49.084L736.58,48.898L737.04,49.802L737.5,49.749L737.96,48.978L738.42,49.749L738.88,49.802L739.34,49.031L739.8,49.842L740.27,48.911L740.73,48.898L741.19,48.818L741.65,49.284L742.11,48.1L742.57,48.06L743.03,52.222L743.49,48.06L743.95,50.746L744.41,48.06L744.87,48.06L745.34,51.69L745.8,48.06L746.26,48.06L746.72,48.06L747.18,48.06L747.64,48.06L748.1,53.472L748.56,48.06L749.02,48.06L749.48,48.06L749.95,48.925L750.41,48.06L750.87,48.06L751.33,48.06L751.79,48.06L752.25,48.06L752.71,48.06L753.17,50.653L753.63,48.06L754.09,48.06L754.56,51.517L755.02,54.655L755.48,50.959L755.94,56.703L756.4,54.11L756.86,54.469L757.32,54.615L757.78,54.974L758.24,52.368L758.7,55.839L759.16,54.11L759.63,54.974L760.09,49.775L760.55,49.789L761.01,50.666L761.47,50.653L761.93,51.504L762.39,51.504L762.85,50.174L763.31,50.653L763.77,51.491L764.24,51.531L764.7,51.477L765.16,50.161L765.62,50.64L766.08,51.504L766.54,49.842L767,50.866L767.46,50.759L767.92,50.626L768.38,49.802L768.85,51.504L769.31,50.653L769.77,50.161L770.23,50.626L770.69,50.64L771.15,50.68L771.61,49.802L772.07,50.613L772.53,50.161L772.99,50.64L773.45,49.802L773.92,51.464L774.38,49.789L774.84,50.041L775.3,49.935L775.76,50.626L776.22,49.802L776.68,51.464L777.14,49.004L777.6,50.6L778.06,50.148L778.53,49.815L778.99,50.6L779.45,49.004L779.91,50.587L780.37,50.64L780.83,49.31L781.29,50.64L781.75,50.64L782.21,48.951L782.67,50.587L783.14,49.004L783.6,50.626L784.06,49.284L784.52,49.775L784.98,50.653L785.44,49.789L785.9,50.587L786.36,48.991L786.82,49.736L787.28,50.161L787.75,48.964L788.21,48.074L788.67,48.1L789.13,48.06L789.59,50.573L790.05,49.815L790.51,48.951L790.97,51.411L791.43,49.004L791.89,49.749L792.35,49.284L792.82,49.004L793.28,50.533L793.74,49.869L794.2,48.898L794.66,49.802L795.12,49.709L795.58,48.153L796.04,49.682L796.5,49.775L796.96,48.472L797.43,49.762L797.89,49.842L798.35,49.815L798.81,48.885L799.27,49.815L799.73,49.709L800.19,48.964L800.65,48.925L801.11,49.722L801.57,48.472L802.04,49.762L802.5,49.895L802.96,50.507L803.42,48.153L803.88,49.802L804.34,49.722L804.8,48.938L805.26,49.736L805.72,48.911L806.18,49.337L806.64,49.762L807.11,49.031L807.57,50.52L808.03,48.991L808.49,48.991L808.95,49.709L809.41,48.978L809.87,49.696L810.33,48.925L810.79,49.31L811.25,49.762L811.72,49.802L812.18,49.762L812.64,48.964L813.1,49.722L813.56,49.004L814.02,48.951L814.48,49.722L814.94,48.911L815.4,49.297L815.86,49.775L816.33,49.789L816.79,49.762L817.25,48.964L817.71,49.722L818.17,49.018L818.63,48.964L819.09,49.696L819.55,49.257L820.01,48.964L820.47,49.749L820.93,49.802L821.4,49.762L821.86,48.964L822.32,49.736L822.78,49.018L823.24,48.951L823.7,49.709L824.16,48.898L824.62,49.323L825.08,49.736L825.54,49.815L826.01,49.749L826.47,48.964L826.93,49.018L827.39,49.722L827.85,48.964L828.31,49.682L828.77,48.938L829.23,49.31L829.69,49.749L830.15,49.789L830.62,49.031L831.08,49.696L831.54,49.018L832,49.682L832.46,48.14L832.92,50.56L833.38,48.06L833.84,48.06L834.3,48.06L834.76,52.741L835.22,48.06L835.69,48.06L836.15,48.06L836.61,48.06L837.07,48.06L837.53,48.06L837.99,48.06L838.45,48.06L838.91,48.06L839.37,48.06L839.83,48.06L840.3,48.06L840.76,58.857L841.22,48.06L841.68,48.06L842.14,48.074L842.6,48.06L843.06,48.06L843.52,48.06L843.98,48.06L844.44,48.06L844.91,50.64L845.37,54.11L845.83,54.11L846.29,54.11L846.75,54.974L847.21,53.246L847.67,54.974L848.13,54.11L848.59,54.083L849.05,54.974L849.52,54.083L849.98,52.395L850.44,53.232L850.9,48.911L851.36,48.074L851.82,48.06L852.28,48.06L852.74,48.911L853.2,48.06L853.66,48.06L854.12,48.074L854.59,48.06L855.05,48.911L855.51,48.06L855.97,48.06L856.43,48.06L856.89,48.074L857.35,48.06L857.81,48.06L858.27,48.06L858.73,48.911L859.2,50.241L859.66,54.017L860.12,51.517L860.58,51.092L861.04,54.868L861.5,51.504L861.96,49.775L862.42,50.241L862.88,51.464L863.34,50.64L863.81,51.424L864.27,48.153L864.73,49.762L865.19,49.377L865.65,49.789L866.11,49.749L866.57,50.228L867.03,49.417L867.49,52.222L867.95,48.938L868.41,49.363L868.88,48.978L869.34,49.709L869.8,48.925L870.26,49.736L870.72,48.579L871.18,48.246L871.64,49.749L872.1,48.353L872.56,50.613L873.02,48.911L873.49,48.911L873.95,49.323L874.41,48.951L874.87,48.911L875.33,48.911L875.79,48.885L876.25,48.951L876.71,48.978L877.17,48.526L877.63,48.486L878.1,49.536L878.56,49.962L879.02,49.696L879.48,48.898L879.94,48.579L880.4,48.911L880.86,48.938L881.32,48.925L881.78,48.938L882.24,48.845L882.7,49.736L883.17,48.566L883.63,48.207L884.09,49.257L884.55,48.871L885.01,50.613L885.47,48.898L885.93,48.911L886.39,48.579L886.85,49.696L887.31,48.925L887.78,48.898L888.24,48.885L888.7,48.978L889.16,48.978L889.62,48.512L890.08,48.486L890.54,49.563L891,48.286L891.46,51.331L891.92,48.898L892.39,48.619L892.85,48.087L893.31,49.669L893.77,48.06L894.23,49.829L894.69,48.06L895.15,50.587L895.61,48.06L896.07,48.06L896.53,48.06L896.99,48.06L897.46,50.746L897.92,48.06L898.38,48.06L898.84,48.06L899.3,48.06L899.76,48.06L900.22,56.224L900.68,48.06L901.14,48.06L901.6,48.06L902.07,48.06L902.53,48.06L902.99,48.06L903.45,48.06L903.91,48.06L904.37,48.06L904.83,50.653L905.29,48.06L905.75,54.11L906.21,51.517L906.68,55.812L907.14,53.246L907.6,55.825L908.06,54.137L908.52,54.934L908.98,52.142L909.44,56.078L909.9,54.961L910.36,53.246L910.82,53.246L911.28,54.974L911.75,50.64L912.21,53.246L912.67,49.802L913.13,51.504L913.59,51.531L914.05,51.504L914.51,50.999L914.97,51.185L915.43,50.985L915.89,51.517L916.36,51.491L916.82,51.544L917.28,50.121L917.74,51.531L918.2,50.626L918.66,50.693L919.12,50.959L919.58,50.666L920.04,51.504L920.5,51.504L920.97,49.829L921.43,50.095L921.89,50.666L922.35,50.626L922.81,50.64L923.27,50.68L923.73,49.829L924.19,50.095L924.65,49.802L925.11,50.64L925.58,50.254L926.04,51.052L926.5,49.815L926.96,50.095L927.42,49.802L927.88,50.666L928.34,50.613L928.8,50.68L929.26,49.815L929.72,50.081L930.18,49.895L930.65,50.573L931.11,50.64L931.57,50.64L932.03,49.975L932.49,49.576L932.95,50.254L933.41,50.573L933.87,50.653L934.33,50.64L934.79,49.962L935.26,49.975L935.72,49.855L936.18,50.573L936.64,50.653L937.1,50.626L937.56,49.975L938.02,49.111L938.48,49.855L938.94,50.613L939.4,50.64L939.87,50.64L940.33,50.653L940.79,49.151L941.25,49.962L941.71,49.789L942.17,50.6L942.63,51.504L943.09,49.789L943.55,50.002L944.01,49.935L944.47,49.829L944.94,50.6L945.4,50.626L945.86,50.666L946.32,49.137L946.78,49.908L947.24,49.855L947.7,49.775L948.16,50.613L948.62,50.64L949.08,49.815L949.55,49.124L950.01,49.975L950.47,49.789L950.93,49.802L951.39,50.573L951.85,50.653L952.31,49.802L952.77,49.124L953.23,50.002L953.69,49.775L954.16,50.068L954.62,51.158L955.08,49.749L955.54,49.018L956,48.871L956.46,48.06L956.92,48.074L957.38,49.137L957.84,49.922L958.3,49.829L958.76,49.802L959.23,49.762L959.69,48.885L960.15,48.911L960.61,48.074L961.07,48.074L961.53,48.06L961.99,48.074L962.45,48.06L962.91,48.858L963.37,48.06L963.84,48.087L964.3,48.06L964.76,48.885L965.22,48.06L965.68,48.06L966.14,48.087L966.6,48.06L967.06,48.06L967.52,48.074L967.98,48.06L968.45,48.074L968.91,48.06L969.37,48.06L969.83,48.06L970.29,48.074L970.75,48.06L971.21,49.775L971.67,53.99L972.13,52.807L972.59,49.815L973.05,48.925L973.52,51.451L973.98,50.64L974.44,51.265L974.9,50.427L975.36,48.964L975.82,48.925L976.28,49.762L976.74,49.802L977.2,49.709L977.66,50.587L978.13,49.39L978.59,48.446L979.05,49.403L979.51,48.991L979.97,48.951L980.43,48.898L980.89,49.709L981.35,48.964L981.81,49.696L982.27,49.749L982.74,48.925L983.2,49.762L983.66,48.526L984.12,48.433L984.58,48.06L985.04,48.06L985.5,48.06L985.96,48.06L986.42,48.06L986.88,52.94L987.35,48.06L987.81,48.06L988.27,48.06L988.73,52.249L989.19,48.06L989.65,48.06L990.11,50.706L990.57,48.06L991.03,48.06L991.49,52.235L991.95,54.841L992.42,54.216L992.88,52.368L993.34,50.653L993.8,50.653L994.26,51.504L994.72,51.517L995.18,51.531L995.64,50.932L996.1,51.358L996.56,50.852L997.03,51.517L997.49,49.829L997.95,52.448L998.41,49.603L998.87,51.929L999.33,50.347L999.79,50.985L1000.3,50.759L1000.7,50.852L1001.2,50.653L1001.6,50.693L1002.1,50.653L1002.6,50.72L1003,50.028L1003.5,50.653L1003.9,50.706L1004.4,51.491L1004.9,50.134L1005.3,50.613L1005.8,50.666L1006.2,50.666L1006.7,49.802L1007.2,50.134L1007.6,51.265L1008.1,50.041L1008.5,50.613L1009,49.869L1009.5,50.653L1009.9,51.531L1010.4,49.815L1010.9,50.015L1011.3,50.64L1011.8,49.869L1012.2,50.64L1012.7,50.706L1013.2,49.988L1013.6,49.815L1014.1,50.64L1014.5,50.693L1015,50.121L1015.5,50.374L1015.9,49.855L1016.4,49.164L1016.8,50.613L1017.3,49.855L1017.8,50.666L1018.2,50.932L1018.7,49.563L1019.2,49.975L1019.6,49.815L1020.1,50.666L1020.5,50.653L1021,49.629L1021.5,50.002L1021.9,50.002L1022.4,49.842L1022.8,49.802L1023.3,50.68L1023.8,49.815L1024.2,50.095L1024.7,50.188L1025.1,49.337L1025.6,50.666L1026.1,49.829L1026.5,50.626L1027,49.058L1027.4,50.041L1027.9,51.039L1028.4,48.459L1028.8,50.666L1029.3,49.829L1029.8,50.626L1030.2,49.044L1030.7,50.055L1031.1,51.025L1031.6,48.459L1032.1,49.842L1032.5,50.653L1033,48.964L1033.4,50.613L1033.9,49.656L1034.4,50.587L1034.8,49.244L1035.3,49.151L1035.7,50.64L1036.2,49.789L1036.7,49.775L1037.1,49.922L1037.6,50.041L1038.1,49.669L1038.5,48.991L1039,49.815L1039.4,50.666L1039.9,48.978L1040.4,50.64L1040.8,49.004L1041.3,51.185L1041.7,49.044L1042.2,48.074L1042.7,48.06L1043.1,48.419L1043.6,49.018L1044,50.613L1044.5,49.789L1045,50.626L1045.4,49.058L1045.9,49.204L1046.3,50.214L1046.8,49.23L1047.3,48.964L1047.7,48.978L1048.2,49.775L1048.7,49.736L1049.1,49.018L1049.6,49.815L1050,48.964L1050.5,49.217L1051,50.041L1051.4,49.058L1051.9,48.446L1052.3,49.018L1052.8,50.56L1053.3,48.951L1053.7,49.004L1054.2,50.547L1054.6,49.031L1055.1,48.991L1055.6,49.669L1056,49.071L1056.5,49.044L1057,49.004L1057.4,49.762L1057.9,48.898L1058.3,48.06L1058.8,49.882L1059.3,48.06L1059.7,48.06L1060.2,48.06L1060.6,48.06L1061.1,54.775L1061.6,48.06L1062,48.06L1062.5,48.06L1062.9,48.06L1063.4,48.06L1063.9,48.06L1064.3,48.06L1064.8,55.426L1065.2,48.06L1065.7,48.06L1066.2,48.06L1066.6,48.925L1067.1,48.06L1067.6,48.06L1068,48.06L1068.5,48.06L1068.9,48.06L1069.4,48.06L1069.9,48.06L1070.3,48.06L1070.8,50.653L1071.2,54.097L1071.7,54.097L1072.2,53.246L1072.6,55.825L1073.1,54.11L1073.5,51.664L1074,56.543L1074.5,53.232L1074.9,54.974L1075.4,54.974L1075.9,54.11L1076.3,54.11L1076.8,54.11L1077.2,54.11L1077.7,48.925L1078.2,55.839L1078.6,53.246L1079.1,51.504L1079.5,51.517L1080,50.666" style="fill:none;stroke:#D77FB4;stroke-width:1.875;stroke-dasharray:12.5,2.5,2.5,2.5" />
<path d="M1055,693.4L1080,693.4" style="fill:none;stroke:#F15A60;stroke-width:1.875" />
<text x="804.02" y="-686.35" transform="scale(1, -1)"
	style="font-family:Helvetica;font-weight:normal;font-style:normal;font-size:12pt">Zookeeper v3.4.8 (Java 8, Snap 10k)</text>
<path d="M1055,678.7L1080,678.7" style="fill:none;stroke:#7AC36A;stroke-width:1.875;stroke-dasharray:7.5,2.5" />
<text x="795.68" y="-671.65" transform="scale(1, -1)"
	style="font-family:Helvetica;font-weight:normal;font-style:normal;font-size:12pt">Zookeeper v3.4.8 (Java 8, Snap 100k)</text>
<path d="M1055,664L1080,664" style="fill:none;stroke:#5A9BD4;stroke-width:1.875;stroke-dasharray:2.5,2.5" />
<text x="944.13" y="-656.95" transform="scale(1, -1)"
	style="font-family:Helvetica;font-weight:normal;font-style:normal;font-size:12pt">etcd v3 (Go Tip)</text>
<path d="M1055,649.3L1080,649.3" style="fill:none;stroke:#FAA75B;stroke-width:1.875;stroke-dasharray:1.25,1.25" />
<text x="943.28" y="-642.25" transform="scale(1, -1)"
	style="font-family:Helvetica;font-weight:normal;font-style:normal;font-size:12pt">etcd v3 (Go 1.6)</text>
<path d="M1055,634.6L1080,634.6" style="fill:none;stroke:#9E67AB;stroke-width:1.875;stroke-dasharray:6.25,2.5,1.25,2.5" />
<text x="943.28" y="-627.55" transform="scale(1, -1)"
	style="font-family:Helvetica;font-weight:normal;font-style:normal;font-size:12pt">etcd v3 (Go 1.5)</text>
<path d="M1055,619.9L1080,619.9" style="fill:none;stroke:#CE7058;stroke-width:1.875;stroke-dasharray:12.5,2.5,2.5,2.5,2.5,2.5,2.5,2.5" />
<text x="943.28" y="-612.85" transform="scale(1, -1)"
	style="font-family:Helvetica;font-weight:normal;font-style:normal;font-size:12pt">etcd v2 (Go 1.4)</text>
<path d="M1055,605.2L1080,605.2" style="fill:none;stroke:#D77FB4;stroke-width:1.875;stroke-dasharray:12.5,2.5,2.5,2.5" />
<text x="959.11" y="-598.15" transform="scale(1, -1)"
	style="font-family:Helvetica;font-weight:normal;font-style:normal;font-size:12pt">Consul v0.6.4</text>
</g>
</svg>
