<?xml version="1.0"?>
<!-- Generated by SVGo and Plotinum VG -->
<svg width="12in" height="8in"
	xmlns="http://www.w3.org/2000/svg"
	xmlns:xlink="http://www.w3.org/1999/xlink">
<g transform="scale(1, -1) translate(0, -720)">
<path d="M0,0L1080,0L1080,720L0,720Z" style="fill:#FFFFFF" />
<text x="223.05" y="-705.6" transform="scale(1, -1)"
	style="font-family:Helvetica;font-weight:normal;font-style:normal;font-size:12pt">Write 2M keys, 1000-client (etcd v3 100-conn), 8-byte key, 256-byte value, Latency(millisecond)</text>
<text x="548.46" y="-4.8486" transform="scale(1, -1)"
	style="font-family:Helvetica;font-weight:normal;font-style:normal;font-size:12pt">Second</text>
<text x="64.31" y="-19.498" transform="scale(1, -1)"
	style="font-family:Helvetica;font-weight:normal;font-style:normal;font-size:10pt">0</text>
<text x="243.09" y="-19.498" transform="scale(1, -1)"
	style="font-family:Helvetica;font-weight:normal;font-style:normal;font-size:10pt">100</text>
<text x="428.81" y="-19.498" transform="scale(1, -1)"
	style="font-family:Helvetica;font-weight:normal;font-style:normal;font-size:10pt">200</text>
<text x="614.54" y="-19.498" transform="scale(1, -1)"
	style="font-family:Helvetica;font-weight:normal;font-style:normal;font-size:10pt">300</text>
<text x="800.27" y="-19.498" transform="scale(1, -1)"
	style="font-family:Helvetica;font-weight:normal;font-style:normal;font-size:10pt">400</text>
<text x="985.99" y="-19.498" transform="scale(1, -1)"
	style="font-family:Helvetica;font-weight:normal;font-style:normal;font-size:10pt">500</text>
<path d="M67.786,31.498L67.786,41.498" style="fill:none;stroke:#000000;stroke-width:0.625" />
<path d="M253.51,31.498L253.51,41.498" style="fill:none;stroke:#000000;stroke-width:0.625" />
<path d="M439.24,31.498L439.24,41.498" style="fill:none;stroke:#000000;stroke-width:0.625" />
<path d="M624.97,31.498L624.97,41.498" style="fill:none;stroke:#000000;stroke-width:0.625" />
<path d="M810.7,31.498L810.7,41.498" style="fill:none;stroke:#000000;stroke-width:0.625" />
<path d="M996.42,31.498L996.42,41.498" style="fill:none;stroke:#000000;stroke-width:0.625" />
<path d="M160.65,36.498L160.65,41.498" style="fill:none;stroke:#000000;stroke-width:0.625" />
<path d="M346.38,36.498L346.38,41.498" style="fill:none;stroke:#000000;stroke-width:0.625" />
<path d="M532.1,36.498L532.1,41.498" style="fill:none;stroke:#000000;stroke-width:0.625" />
<path d="M717.83,36.498L717.83,41.498" style="fill:none;stroke:#000000;stroke-width:0.625" />
<path d="M903.56,36.498L903.56,41.498" style="fill:none;stroke:#000000;stroke-width:0.625" />
<path d="M67.786,41.498L1080,41.498" style="fill:none;stroke:#000000;stroke-width:0.625" />
<g transform="rotate(90)">
<text x="306.05" y="14.399" transform="scale(1, -1)"
	style="font-family:Helvetica;font-weight:normal;font-style:normal;font-size:12pt">Latency(millisecond)</text>
</g>
<text x="40.104" y="-42.186" transform="scale(1, -1)"
	style="font-family:Helvetica;font-weight:normal;font-style:normal;font-size:10pt">0</text>
<text x="26.2" y="-214.36" transform="scale(1, -1)"
	style="font-family:Helvetica;font-weight:normal;font-style:normal;font-size:10pt">600</text>
<text x="19.248" y="-386.54" transform="scale(1, -1)"
	style="font-family:Helvetica;font-weight:normal;font-style:normal;font-size:10pt">1200</text>
<text x="19.248" y="-558.71" transform="scale(1, -1)"
	style="font-family:Helvetica;font-weight:normal;font-style:normal;font-size:10pt">1800</text>
<path d="M50.529,48.06L60.529,48.06" style="fill:none;stroke:#000000;stroke-width:0.625" />
<path d="M50.529,220.24L60.529,220.24" style="fill:none;stroke:#000000;stroke-width:0.625" />
<path d="M50.529,392.41L60.529,392.41" style="fill:none;stroke:#000000;stroke-width:0.625" />
<path d="M50.529,564.58L60.529,564.58" style="fill:none;stroke:#000000;stroke-width:0.625" />
<path d="M55.529,105.45L60.529,105.45" style="fill:none;stroke:#000000;stroke-width:0.625" />
<path d="M55.529,162.84L60.529,162.84" style="fill:none;stroke:#000000;stroke-width:0.625" />
<path d="M55.529,277.63L60.529,277.63" style="fill:none;stroke:#000000;stroke-width:0.625" />
<path d="M55.529,335.02L60.529,335.02" style="fill:none;stroke:#000000;stroke-width:0.625" />
<path d="M55.529,449.8L60.529,449.8" style="fill:none;stroke:#000000;stroke-width:0.625" />
<path d="M55.529,507.19L60.529,507.19" style="fill:none;stroke:#000000;stroke-width:0.625" />
<path d="M55.529,621.98L60.529,621.98" style="fill:none;stroke:#000000;stroke-width:0.625" />
<path d="M55.529,679.37L60.529,679.37" style="fill:none;stroke:#000000;stroke-width:0.625" />
<path d="M60.529,48.06L60.529,700.75" style="fill:none;stroke:#000000;stroke-width:0.625" />
<path d="M67.786,55.945L69.643,60.275L71.5,59.34L73.357,57.891L75.215,55.923L77.072,54.856L78.929,55.071L80.787,55.318L82.644,55.159L84.501,55.366L86.358,55.578L88.216,63.228L90.073,63.24L91.93,54.935L93.787,55.464L95.645,55.214L97.502,55.315L99.359,63.719L101.22,54.365L103.07,55.339L104.93,81.87L106.79,54.811L108.65,54.738L110.5,54.878L112.36,57.481L114.22,55.378L116.07,55.42L117.93,55.257L119.79,54.152L121.65,48.06L123.5,83.808L125.36,52.89L127.22,91.883L129.08,54.625L130.93,56.132L132.79,55.31L134.65,57.424L136.5,54.721L138.36,55.391L140.22,56.214L142.08,134.25L143.93,242.74L145.79,233.92L147.65,182.99L149.51,223.99L151.36,48.06L153.22,48.06L155.08,48.06L156.93,48.06L158.79,48.06L160.65,48.06L162.51,48.06L164.36,48.06L166.22,48.06L168.08,48.06L169.94,48.06L171.79,48.06L173.65,48.06L175.51,48.06L177.36,48.06L179.22,48.06L181.08,79.682L182.94,95.534L184.79,52.744L186.65,52.955L188.51,52.943L190.37,53.064L192.22,53.072L194.08,125.77L195.94,55.019L197.79,405.18L199.65,48.06L201.51,48.06L203.37,48.06L205.22,48.06L207.08,48.06L208.94,48.06L210.8,48.06L212.65,67.573L214.51,56.639L216.37,60.676L218.22,55.016L220.08,55.282L221.94,54.779L223.8,48.06L225.65,700.75L227.51,52.492L229.37,55.253L231.23,56.315L233.08,55.045L234.94,54.8L236.8,54.797L238.65,57.463" style="fill:none;stroke:#F15A60;stroke-width:1.875" />
<path d="M67.786,55.001L69.643,54.854L71.5,56.08L73.357,55.351L75.215,55.695L77.072,55.541L78.929,55.636L80.787,55.681L82.644,55.766L84.501,55.879L86.358,55.824L88.216,55.817L90.073,55.849L91.93,55.652L93.787,55.915L95.645,55.816L97.502,56.014L99.359,55.671L101.22,55.657L103.07,55.959L104.93,55.627L106.79,55.775L108.65,56.077L110.5,56.329L112.36,55.701L114.22,56.208L116.07,56.38L117.93,56.071L119.79,55.934L121.65,57.455L123.5,56.13L125.36,55.976L127.22,57.532L129.08,55.41L130.93,55.864L132.79,55.977L134.65,56.982L136.5,56.243L138.36,55.784L140.22,56.062L142.08,56.164L143.93,55.781L145.79,55.835L147.65,56.092L149.51,56.467L151.36,56.091L153.22,55.972L155.08,55.887L156.93,56.478L158.79,56.464L160.65,56.03L162.51,56.674L164.36,56.666L166.22,54.982L168.08,56.568L169.94,56.927" style="fill:none;stroke:#7AC36A;stroke-width:1.875;stroke-dasharray:7.5,2.5" />
<path d="M67.786,126.64L69.643,139.57L71.5,148.38L73.357,120.17L75.215,154.11L77.072,130.87L78.929,142.77L80.787,147.19L82.644,157.63L84.501,117.77L86.358,159.75L88.216,134.11L90.073,133.5L91.93,139.6L93.787,143.52L95.645,172.33L97.502,127.07L99.359,193.82L101.22,143.29L103.07,140.27L104.93,204.64L106.79,160.27L108.65,156.4L110.5,191.32L112.36,141.55L114.22,179.83L116.07,210.61L117.93,132.48L119.79,123.33L121.65,135.65L123.5,142.76L125.36,120.14L127.22,235.41L129.08,168.23L130.93,155.34L132.79,134.05L134.65,155.43L136.5,165.12L138.36,186.63L140.22,170.77L142.08,134.3L143.93,164.75L145.79,161.81L147.65,134.74L149.51,200.5L151.36,189.47L153.22,178.46L155.08,123.17L156.93,166.54L158.79,144.57L160.65,141.99L162.51,318.23L164.36,154.87L166.22,146.36L168.08,177L169.94,126.6L171.79,227.88L173.65,164.93L175.51,125.87L177.36,131.92L179.22,164.17L181.08,130.79L182.94,161.19L184.79,150.08L186.65,138.3L188.51,149.17L190.37,191.44L192.22,159.25L194.08,199.3L195.94,147.89L197.79,173.11L199.65,145.39L201.51,147.78L203.37,48.06L205.22,143.55L207.08,163.47L208.94,148.67L210.8,167.86L212.65,160.94L214.51,86.34L216.37,82.183L218.22,135.48L220.08,171.36L221.94,137.32L223.8,120.39L225.65,172.49L227.51,48.06L229.37,94.889L231.23,48.06L233.08,70.613L234.94,134.28L236.8,127.37L238.65,141.51L240.51,48.06L242.37,229.97L244.23,155.89L246.08,124.9L247.94,185.04L249.8,176.29L251.66,150.14L253.51,48.06L255.37,111.89L257.23,151.33L259.08,112.49L260.94,139.61L262.8,139.54L264.66,161.66L266.51,152.87L268.37,147.28L270.23,48.06L272.09,196L273.94,78.595L275.8,94.183L277.66,147.27L279.51,157.47L281.37,156.58L283.23,48.06L285.09,75.759L286.94,87.395L288.8,103.21L290.66,141.24L292.52,130.55L294.37,131.09L296.23,142.11L298.09,48.06L299.94,83.399L301.8,88.709L303.66,100.1L305.52,67.848L307.37,117.72L309.23,167L311.09,177.57L312.95,136.34L314.8,183.83L316.66,48.06L318.52,251.54L320.37,48.06L322.23,112.41L324.09,138.81L325.95,173.81L327.8,158.88L329.66,124.97L331.52,48.06L333.38,88.837L335.23,178.44L337.09,48.06L338.95,95.986L340.8,135.84L342.66,148.54L344.52,157.01L346.38,137.2L348.23,48.06L350.09,48.06L351.95,48.06L353.81,243.32L355.66,48.06L357.52,48.06L359.38,138.66L361.23,169.87L363.09,134.64L364.95,182L366.81,140.59L368.66,48.06L370.52,48.06L372.38,48.06L374.24,212.3L376.09,48.06L377.95,48.06L379.81,165.56L381.66,159.65L383.52,48.06L385.38,60.913L387.24,65.124L389.09,48.06L390.95,48.06L392.81,229.93L394.67,152.4L396.52,126.9L398.38,112.15L400.24,48.06L402.09,48.06L403.95,48.06L405.81,190.21L407.67,48.06L409.52,110.99L411.38,131.69L413.24,171.12L415.1,131.27L416.95,162.09L418.81,48.06L420.67,48.06L422.52,48.06L424.38,253.58L426.24,48.06L428.1,100.28L429.95,164.08L431.81,139.57L433.67,154.75L435.53,142.95L437.38,48.06L439.24,48.06L441.1,48.06L442.96,228.78L444.81,48.06L446.67,131.72L448.53,128.07L450.38,128.74L452.24,121.43L454.1,48.06L455.96,48.06L457.81,145.52L459.67,48.06L461.53,157.48L463.39,127.9L465.24,189.09L467.1,167.22L468.96,48.06L470.81,48.06L472.67,48.06L474.53,48.06L476.39,253.61L478.24,48.06L480.1,48.06L481.96,48.06L483.82,125.44L485.67,175.24L487.53,114.39L489.39,150.58L491.24,48.06L493.1,105.61L494.96,149.1L496.82,170.06L498.67,87.225L500.53,162.45L502.39,148.11L504.25,209.33L506.1,182.06L507.96,48.06L509.82,78.835L511.67,48.06L513.53,48.06L515.39,122.88L517.25,48.06L519.1,108.71L520.96,180.22L522.82,171.61L524.68,136.54L526.53,48.06L528.39,110.76L530.25,48.06L532.1,214.16L533.96,191.15L535.82,139.99L537.68,64.996L539.53,98.663L541.39,156.62L543.25,163.3L545.11,54.473L546.96,140L548.82,158.67L550.68,148.84L552.53,193.23L554.39,48.06L556.25,161.05L558.11,156.28L559.96,158.34L561.82,48.06L563.68,85.495L565.54,48.06L567.39,131.83L569.25,122.16L571.11,48.06L572.96,67.855L574.82,146.41L576.68,172.57L578.54,146.64L580.39,48.06L582.25,48.06L584.11,48.06L585.97,48.06L587.82,173.26L589.68,48.06L591.54,48.06L593.39,48.06L595.25,181.64L597.11,147.9L598.97,136.44L600.82,172.12L602.68,76.836L604.54,142.73L606.4,137.27L608.25,153.32L610.11,104.18L611.97,48.06L613.82,48.06L615.68,183.07L617.54,156.76L619.4,136.93L621.25,81.11L623.11,178.63L624.97,175.3L626.83,160.55L628.68,48.06L630.54,48.06L632.4,158.82L634.25,48.06L636.11,97.658L637.97,157.65L639.83,171.4L641.68,120.57L643.54,48.06L645.4,48.06L647.26,48.06L649.11,182.06L650.97,52.02L652.83,91.858L654.68,48.06L656.54,48.06L658.4,83.98L660.26,181.07L662.11,177.39L663.97,48.06L665.83,104L667.69,130.65L669.54,196.35L671.4,114.9L673.26,48.06L675.11,48.06L676.97,109.98L678.83,154.33L680.69,133.02L682.54,48.06L684.4,96.349L686.26,229.02L688.12,139.51L689.97,48.06L691.83,48.06L693.69,48.06L695.54,48.06L697.4,120.38L699.26,186.1L701.12,48.06L702.97,98.024L704.83,136.72L706.69,48.06L708.55,48.06L710.4,48.06L712.26,331.23L714.12,116L715.97,148.09L717.83,144.91L719.69,164.45L721.55,48.06L723.4,72.809L725.26,69.932L727.12,48.06L728.98,48.06L730.83,214.37L732.69,152.33L734.55,48.06L736.4,113.41L738.26,142.56L740.12,173.15L741.98,180.69L743.83,100.48L745.69,88.813L747.55,48.06L749.41,48.06L751.26,48.06L753.12,48.06L754.98,205.63L756.83,48.06L758.69,97.962L760.55,133.39L762.41,204.31L764.26,120.15L766.12,48.06L767.98,122.15L769.84,128.66L771.69,48.06L773.55,138.11L775.41,137.37L777.26,48.06L779.12,48.06L780.98,126.81L782.84,161.7L784.69,148.04L786.55,48.06L788.41,126.16L790.27,160.3L792.12,48.06L793.98,48.06L795.84,132.32L797.69,48.06L799.55,48.06L801.41,249.8L803.27,150.1L805.12,152.02L806.98,175.18L808.84,48.06L810.7,81.954L812.55,103.37L814.41,48.06L816.27,312.31L818.12,156.24L819.98,48.06L821.84,48.06L823.7,162.18L825.55,120.71L827.41,156.87L829.27,48.06L831.13,144.82L832.98,173.47L834.84,48.06L836.7,48.06L838.55,139.32L840.41,161.63L842.27,48.06L844.13,48.06L845.98,167.6L847.84,180.71L849.7,153.23L851.56,48.06L853.41,127.83L855.27,159.21L857.13,175.5L858.98,48.06L860.84,131.04L862.7,159.45L864.56,48.06L866.41,48.06L868.27,179.01L870.13,175.77L871.99,110.58L873.84,48.06L875.7,158.83L877.56,175.73L879.41,48.06L881.27,48.06L883.13,130.17L884.99,219.06L886.84,48.06L888.7,48.06L890.56,48.06L892.42,161.41L894.27,136.22L896.13,215.98L897.99,48.06L899.84,128.85L901.7,155.86L903.56,48.06L905.42,48.06L907.27,48.06L909.13,139.08L910.99,200.03L912.85,48.06L914.7,131.99L916.56,152.16L918.42,159.62L920.27,48.06L922.13,48.06L923.99,177.79L925.85,133.59L927.7,48.06L929.56,48.06L931.42,48.06L933.28,259.27L935.13,48.06L936.99,231.99L938.85,136.03L940.7,205.89L942.56,160.97L944.42,48.06L946.28,102.32L948.13,146.45L949.99,48.06L951.85,48.06L953.71,48.06L955.56,216.21L957.42,48.06L959.28,135.49L961.13,152.52L962.99,139.02L964.85,192.03L966.71,48.06L968.56,48.06L970.42,149.46L972.28,119.74L974.14,48.06L975.99,48.06L977.85,143.02L979.71,189.98L981.56,48.06L983.42,48.06L985.28,152.55L987.14,148.65L988.99,113.16L990.85,48.06L992.71,122.37L994.57,132.12L996.42,48.06L998.28,48.06L1000.1,124.23L1002,105.21L1003.9,48.06L1005.7,117.8L1007.6,135.17L1009.4,172.67L1011.3,141.7L1013.1,48.06L1015,153.91L1016.9,195.32L1018.7,48.06L1020.6,48.06L1022.4,125.35L1024.3,191.89L1026.1,48.06L1028,48.06L1029.9,48.06L1031.7,147.38L1033.6,132.03L1035.4,148.39L1037.3,48.06L1039.1,115.99L1041,48.06L1042.9,48.06L1044.7,48.06L1046.6,201.13L1048.4,48.06L1050.3,48.06L1052.1,119.45L1054,124.06L1055.9,149.92L1057.7,110.97L1059.6,48.06L1061.4,181.45L1063.3,174.13L1065.1,48.06L1067,48.06L1068.9,48.06L1070.7,48.06L1072.6,210.2L1074.4,48.06L1076.3,48.06L1078.1,215.41L1080,190.81" style="fill:none;stroke:#5A9BD4;stroke-width:1.875;stroke-dasharray:2.5,2.5" />
<path d="M1055,693.4L1080,693.4" style="fill:none;stroke:#F15A60;stroke-width:1.875" />
<text x="934.09" y="-686.35" transform="scale(1, -1)"
	style="font-family:Helvetica;font-weight:normal;font-style:normal;font-size:12pt">Zookeeper v3.4.8</text>
<path d="M1055,678.7L1080,678.7" style="fill:none;stroke:#7AC36A;stroke-width:1.875;stroke-dasharray:7.5,2.5" />
<text x="944.13" y="-671.65" transform="scale(1, -1)"
	style="font-family:Helvetica;font-weight:normal;font-style:normal;font-size:12pt">etcd v3 (Go Tip)</text>
<path d="M1055,664L1080,664" style="fill:none;stroke:#5A9BD4;stroke-width:1.875;stroke-dasharray:2.5,2.5" />
<text x="943.28" y="-656.95" transform="scale(1, -1)"
	style="font-family:Helvetica;font-weight:normal;font-style:normal;font-size:12pt">etcd v2 (Go 1.4)</text>
</g>
</svg>
