<?xml version="1.0"?>
<!-- Generated by SVGo and Plotinum VG -->
<svg width="12in" height="8in"
	xmlns="http://www.w3.org/2000/svg"
	xmlns:xlink="http://www.w3.org/1999/xlink">
<g transform="scale(1, -1) translate(0, -720)">
<path d="M0,0L1080,0L1080,720L0,720Z" style="fill:#FFFFFF" />
<text x="253.18" y="-705.6" transform="scale(1, -1)"
	style="font-family:Helvetica;font-weight:normal;font-style:normal;font-size:12pt">Write 2M keys, 1000-client (etcd v3 100-conn), 8-byte key, 256-byte value, Throughput</text>
<text x="552.11" y="-4.8486" transform="scale(1, -1)"
	style="font-family:Helvetica;font-weight:normal;font-style:normal;font-size:12pt">Second</text>
<text x="71.609" y="-19.498" transform="scale(1, -1)"
	style="font-family:Helvetica;font-weight:normal;font-style:normal;font-size:10pt">0</text>
<text x="249.05" y="-19.498" transform="scale(1, -1)"
	style="font-family:Helvetica;font-weight:normal;font-style:normal;font-size:10pt">100</text>
<text x="433.43" y="-19.498" transform="scale(1, -1)"
	style="font-family:Helvetica;font-weight:normal;font-style:normal;font-size:10pt">200</text>
<text x="617.82" y="-19.498" transform="scale(1, -1)"
	style="font-family:Helvetica;font-weight:normal;font-style:normal;font-size:10pt">300</text>
<text x="802.21" y="-19.498" transform="scale(1, -1)"
	style="font-family:Helvetica;font-weight:normal;font-style:normal;font-size:10pt">400</text>
<text x="986.6" y="-19.498" transform="scale(1, -1)"
	style="font-family:Helvetica;font-weight:normal;font-style:normal;font-size:10pt">500</text>
<path d="M75.085,31.498L75.085,41.498" style="fill:none;stroke:#000000;stroke-width:0.625" />
<path d="M259.47,31.498L259.47,41.498" style="fill:none;stroke:#000000;stroke-width:0.625" />
<path d="M443.86,31.498L443.86,41.498" style="fill:none;stroke:#000000;stroke-width:0.625" />
<path d="M628.25,31.498L628.25,41.498" style="fill:none;stroke:#000000;stroke-width:0.625" />
<path d="M812.64,31.498L812.64,41.498" style="fill:none;stroke:#000000;stroke-width:0.625" />
<path d="M997.03,31.498L997.03,41.498" style="fill:none;stroke:#000000;stroke-width:0.625" />
<path d="M167.28,36.498L167.28,41.498" style="fill:none;stroke:#000000;stroke-width:0.625" />
<path d="M351.67,36.498L351.67,41.498" style="fill:none;stroke:#000000;stroke-width:0.625" />
<path d="M536.06,36.498L536.06,41.498" style="fill:none;stroke:#000000;stroke-width:0.625" />
<path d="M720.44,36.498L720.44,41.498" style="fill:none;stroke:#000000;stroke-width:0.625" />
<path d="M904.83,36.498L904.83,41.498" style="fill:none;stroke:#000000;stroke-width:0.625" />
<path d="M75.085,41.498L1080,41.498" style="fill:none;stroke:#000000;stroke-width:0.625" />
<g transform="rotate(90)">
<text x="336.05" y="14.399" transform="scale(1, -1)"
	style="font-family:Helvetica;font-weight:normal;font-style:normal;font-size:12pt">Throughput</text>
</g>
<text x="47.404" y="-42.186" transform="scale(1, -1)"
	style="font-family:Helvetica;font-weight:normal;font-style:normal;font-size:10pt">0</text>
<text x="19.248" y="-183.14" transform="scale(1, -1)"
	style="font-family:Helvetica;font-weight:normal;font-style:normal;font-size:10pt">1e+04</text>
<text x="19.248" y="-324.09" transform="scale(1, -1)"
	style="font-family:Helvetica;font-weight:normal;font-style:normal;font-size:10pt">2e+04</text>
<text x="19.248" y="-465.04" transform="scale(1, -1)"
	style="font-family:Helvetica;font-weight:normal;font-style:normal;font-size:10pt">3e+04</text>
<text x="19.248" y="-605.99" transform="scale(1, -1)"
	style="font-family:Helvetica;font-weight:normal;font-style:normal;font-size:10pt">4e+04</text>
<path d="M57.828,48.06L67.828,48.06" style="fill:none;stroke:#000000;stroke-width:0.625" />
<path d="M57.828,189.01L67.828,189.01" style="fill:none;stroke:#000000;stroke-width:0.625" />
<path d="M57.828,329.96L67.828,329.96" style="fill:none;stroke:#000000;stroke-width:0.625" />
<path d="M57.828,470.92L67.828,470.92" style="fill:none;stroke:#000000;stroke-width:0.625" />
<path d="M57.828,611.87L67.828,611.87" style="fill:none;stroke:#000000;stroke-width:0.625" />
<path d="M62.828,118.54L67.828,118.54" style="fill:none;stroke:#000000;stroke-width:0.625" />
<path d="M62.828,259.49L67.828,259.49" style="fill:none;stroke:#000000;stroke-width:0.625" />
<path d="M62.828,400.44L67.828,400.44" style="fill:none;stroke:#000000;stroke-width:0.625" />
<path d="M62.828,541.39L67.828,541.39" style="fill:none;stroke:#000000;stroke-width:0.625" />
<path d="M62.828,682.34L67.828,682.34" style="fill:none;stroke:#000000;stroke-width:0.625" />
<path d="M67.828,48.06L67.828,700.75" style="fill:none;stroke:#000000;stroke-width:0.625" />
<path d="M75.085,108.42L76.929,271.5L78.773,400.17L80.617,510.82L82.461,569.19L84.305,643.98L86.149,620.86L87.993,607.78L89.836,616.63L91.68,600.76L93.524,585.34L95.368,314.47L97.212,315.87L99.056,634.24L100.9,588.05L102.74,608.1L104.59,416.11L106.43,394.15L108.28,700.75L110.12,469.28L111.96,196.34L113.81,647.02L115.65,654.29L117.49,638.28L119.34,477.27L121.18,600.56L123.03,580.18L124.87,627.13L126.71,666.53L128.56,48.06L130.4,278.09L132.25,93.08L134.09,230.75L135.93,662.92L137.78,547.62L139.62,605.07L141.47,481.33L143.31,653.52L145.15,599.37L147,544.2L148.84,74.052L150.68,76.335L152.53,62.367L154.37,76.265L156.22,48.074L158.06,48.06L159.9,48.06L161.75,48.06L163.59,48.06L165.44,48.06L167.28,48.06L169.12,48.06L170.97,48.06L172.81,48.06L174.65,48.06L176.5,48.06L178.34,48.06L180.19,48.06L182.03,48.06L183.87,48.06L185.72,48.06L187.56,358.03L189.41,125.23L191.25,655.15L193.09,602.51L194.94,538.21L196.78,645.56L198.63,388.6L200.47,95.307L202.31,336.25L204.16,48.088L206,48.06L207.84,48.06L209.69,48.06L211.53,48.06L213.38,48.06L215.22,48.06L217.06,48.06L218.91,229.59L220.75,533.79L222.6,442.03L224.44,645.54L226.28,608.77L228.13,481.32L229.97,48.06L231.82,57.462L233.66,660.27L235.5,564.54L237.35,595.43L239.19,645.75L241.03,604.59L242.88,694.45L244.72,473.14" style="fill:none;stroke:#F15A60;stroke-width:1.875" />
<path d="M75.085,350.81L76.929,636.75L78.773,548.13L80.617,597.66L82.461,571.56L84.305,586.62L86.149,577.29L87.993,572.71L89.836,568.54L91.68,561.72L93.524,565.28L95.368,568.05L97.212,562.44L99.056,578.53L100.9,554.88L102.74,569.03L104.59,549.4L106.43,579.39L108.28,578.57L110.12,556.56L111.96,575.94L113.81,567.4L115.65,542.89L117.49,544.35L119.34,566.59L121.18,547.34L123.03,531.72L124.87,549.07L126.71,520.14L128.56,493.91L130.4,564.94L132.25,542.65L134.09,484.12L135.93,593.74L137.78,563.87L139.62,539.01L141.47,515.44L143.31,539.05L145.15,561.93L147,550.26L148.84,544.28L150.68,571.94L152.53,568.89L154.37,547.35L156.22,529.61L158.06,544.13L159.9,554.33L161.75,570.5L163.59,527.34L165.44,525.44L167.28,546.44L169.12,522.39L170.97,515.27L172.81,614.26L174.65,533.06L176.5,502.88" style="fill:none;stroke:#7AC36A;stroke-width:1.875;stroke-dasharray:7.5,2.5" />
<path d="M75.085,57.631L76.929,69.302L78.773,79.662L80.617,75.842L82.461,74.728L84.305,75.546L86.149,84.454L87.993,68.033L89.836,80.507L91.68,85.004L93.524,64.932L95.368,84.905L97.212,73.192L99.056,86.23L100.9,70.965L102.74,74.531L104.59,78.985L106.43,63.283L108.28,82.537L110.12,74.841L111.96,63.283L113.81,65.158L115.65,68.442L117.49,66.314L119.34,74.334L121.18,65.44L123.03,68.259L124.87,74.122L126.71,74.813L128.56,82.41L130.4,68.808L132.25,62.846L134.09,61.817L135.93,74.334L137.78,75.391L139.62,77.674L141.47,69.062L143.31,67.399L145.15,59.675L147,76.674L148.84,71.12L150.68,71.599L152.53,77.702L154.37,71.106L156.22,58.378L158.06,62.057L159.9,63.762L161.75,82.213L163.59,71.472L165.44,73.234L167.28,65.764L169.12,57.391L170.97,87.273L172.81,70.317L174.65,68.315L176.5,83.073L178.34,49.47L180.19,64.326L182.03,77.096L183.87,78.83L185.72,71.909L187.56,61.634L189.41,63.805L191.25,69.133L193.09,78.027L194.94,67.892L196.78,64.805L198.63,49.54L200.47,66.201L202.31,69.119L204.16,69.372L206,79.704L207.84,63.706L209.69,48.06L211.53,80.211L213.38,65.877L215.22,75.941L217.06,65.285L218.91,55.517L220.75,50.795L222.6,69.203L224.44,57.293L226.28,78.915L228.13,78.802L229.97,77.054L231.82,62.184L233.66,48.06L235.5,61.282L237.35,48.06L239.19,64.171L241.03,85.709L242.88,79.676L244.72,75.898L246.57,48.06L248.41,56.066L250.25,65.172L252.1,78.464L253.94,62.804L255.79,65.468L257.63,61.845L259.47,48.06L261.32,64.072L263.16,49.597L265.01,55.911L266.85,73.22L268.69,76.772L270.54,67.357L272.38,74.714L274.22,51.753L276.07,48.06L277.91,52.754L279.76,48.497L281.6,72.248L283.44,77.223L285.29,77.237L287.13,69.682L288.98,48.06L290.82,60.52L292.66,52.077L294.51,51.471L296.35,73.262L298.19,68.978L300.04,82.241L301.88,67.512L303.73,48.06L305.57,52.909L307.41,50.273L309.26,54.699L311.1,58.434L312.95,66.99L314.79,81.987L316.63,66.285L318.48,72.981L320.32,59.858L322.17,48.06L324.01,52.754L325.85,48.06L327.7,58.463L329.54,91.234L331.38,67.061L333.23,64.538L335.07,75.546L336.92,48.06L338.76,51.584L340.6,52.754L342.45,48.06L344.29,53.825L346.14,84.595L347.98,75.334L349.82,69.203L351.67,62.085L353.51,48.06L355.36,48.06L357.2,48.06L359.04,52.754L360.89,48.06L362.73,48.06L364.57,58.533L366.42,70.288L368.26,69.048L370.11,66.046L371.95,63.128L373.79,48.06L375.64,48.06L377.48,48.06L379.33,64.679L381.17,48.06L383.01,48.06L384.86,68.639L386.7,69.499L388.55,48.06L390.39,69.936L392.23,78.703L394.08,48.06L395.92,48.06L397.76,48.511L399.61,81.367L401.45,76.561L403.3,69.02L405.14,48.06L406.98,48.06L408.83,48.06L410.67,52.035L412.52,48.06L414.36,59.872L416.2,80.423L418.05,62.198L419.89,78.266L421.73,62.381L423.58,48.06L425.42,48.06L427.27,48.06L429.11,52.641L430.95,48.06L432.8,63.339L434.64,70.176L436.49,76.166L438.33,68.456L440.17,65.186L442.02,48.06L443.86,48.06L445.71,48.06L447.55,58.618L449.39,48.06L451.24,60.577L453.08,78.886L454.92,81.001L456.77,73.869L458.61,48.06L460.46,48.06L462.3,57.631L464.14,48.06L465.99,56.546L467.83,75.024L469.68,61.704L471.52,78.746L473.36,48.06L475.21,48.06L477.05,48.06L478.9,48.06L480.74,53.783L482.58,48.06L484.43,48.06L486.27,48.06L488.11,55.573L489.96,71.064L491.8,51.908L493.65,49.442L495.49,48.06L497.33,69.259L499.18,68.033L501.02,48.878L502.87,55.77L504.71,59.661L506.55,68.075L508.4,62.86L510.24,57.067L512.08,48.06L513.93,52.768L515.77,48.06L517.62,48.06L519.46,75.222L521.3,48.06L523.15,70.415L524.99,65.75L526.84,59.928L528.68,67.808L530.52,48.06L532.37,53.078L534.21,48.06L536.06,52.754L537.9,70.105L539.74,52.74L541.59,52.049L543.43,78.872L545.27,69.443L547.12,72.332L548.96,48.074L550.81,56.687L552.65,57.73L554.49,57.095L556.34,48.554L558.18,48.06L560.03,65.947L561.87,76.321L563.71,64.411L565.56,48.06L567.4,59.661L569.25,48.06L571.09,50.865L572.93,74.503L574.78,48.06L576.62,74.348L578.46,72.29L580.31,69.006L582.15,64.96L584,48.06L585.84,48.06L587.68,48.06L589.53,48.06L591.37,52.768L593.22,48.06L595.06,48.06L596.9,48.06L598.75,52.768L600.59,75.786L602.44,66.328L604.28,55.954L606.12,48.229L607.97,66.003L609.81,76.138L611.65,49.512L613.5,51.048L615.34,48.06L617.19,48.06L619.03,56.419L620.87,73.812L622.72,57.011L624.56,51.866L626.41,66.624L628.25,65.975L630.09,54.178L631.94,48.06L633.78,48.06L635.62,55.587L637.47,48.06L639.31,75.616L641.16,68.484L643,70.077L644.84,48.991L646.69,48.06L648.53,48.06L650.38,48.06L652.22,65.679L654.06,48.074L655.91,60.408L657.75,48.06L659.6,48.06L661.44,50.132L663.28,65.44L665.13,62.649L666.97,48.06L668.81,60.831L670.66,83.608L672.5,51.232L674.35,52.754L676.19,48.06L678.03,48.06L679.88,50.795L681.72,65.101L683.57,71.994L685.41,48.06L687.25,58.787L689.1,61.549L690.94,52.768L692.79,48.06L694.63,48.06L696.47,48.06L698.32,48.06L700.16,56.503L702,71.176L703.85,48.06L705.69,59.872L707.54,58.463L709.38,48.06L711.22,48.06L713.07,48.06L714.91,48.892L716.76,53.924L718.6,68.047L720.44,70.458L722.29,74.954L724.13,48.06L725.98,60.379L727.82,58.42L729.66,48.06L731.51,48.06L733.35,52.768L735.19,65.947L737.04,48.06L738.88,70.007L740.73,74.912L742.57,61.986L744.41,55.178L746.26,54.558L748.1,61.169L749.95,48.06L751.79,48.06L753.63,48.06L755.48,48.06L757.32,57.095L759.16,48.06L761.01,68.47L762.85,73.953L764.7,64.819L766.54,52.655L768.38,48.06L770.23,62.381L772.07,53.459L773.92,48.06L775.76,48.709L777.6,67.314L779.45,48.06L781.29,48.06L783.14,62.776L784.98,72.05L786.82,69.795L788.67,48.06L790.51,50.569L792.35,71.247L794.2,48.06L796.04,48.06L797.89,69.978L799.73,48.06L801.57,48.06L803.42,48.582L805.26,75.419L807.11,78.915L808.95,51.514L810.79,48.06L812.64,60.013L814.48,59.153L816.33,48.06L818.17,52.754L820.01,72.6L821.86,48.06L823.7,48.06L825.54,66.003L827.39,83.355L829.23,57.391L831.08,48.06L832.92,64.58L834.76,61.155L836.61,48.06L838.45,48.06L840.3,64.538L842.14,53.924L843.98,48.06L845.83,48.06L847.67,64.115L849.52,67.709L851.36,69.161L853.2,48.06L855.05,61.916L856.89,56.997L858.73,49.413L860.58,48.06L862.42,70.979L864.27,53.783L866.11,48.06L867.95,48.06L869.8,66.285L871.64,61.423L873.49,67.864L875.33,48.06L877.17,61.845L879.02,63.621L880.86,48.06L882.7,48.06L884.55,64.65L886.39,50.527L888.24,48.06L890.08,48.06L891.92,48.06L893.77,72.008L895.61,76.448L897.46,54.516L899.3,48.06L901.14,62.184L902.99,59.787L904.83,48.06L906.68,48.06L908.52,48.06L910.36,57.307L912.21,48.962L914.05,48.06L915.89,72.84L917.74,67.117L919.58,71.36L921.43,48.06L923.27,48.06L925.11,65.341L926.96,52.345L928.8,48.06L930.65,48.06L932.49,48.06L934.33,52.754L936.18,48.06L938.02,56.954L939.87,74.15L941.71,66.384L943.55,65.961L945.4,48.06L947.24,75.081L949.08,50.809L950.93,48.06L952.77,48.06L954.62,48.06L956.46,55.066L958.3,48.06L960.15,55.094L961.99,66.243L963.84,76.321L965.68,58.956L967.52,48.06L969.37,48.06L971.21,64.171L973.05,57.363L974.9,48.06L976.74,48.06L978.59,62.86L980.43,53.219L982.27,48.06L984.12,48.06L985.96,69.006L987.81,72.924L989.65,66.018L991.49,48.06L993.34,67.23L995.18,54.896L997.03,48.06L998.87,48.06L1000.7,56.334L1002.6,59.872L1004.4,48.06L1006.2,67.427L1008.1,69.555L1009.9,70.697L1011.8,54.798L1013.6,48.06L1015.5,57.631L1017.3,63.354L1019.2,48.06L1021,48.06L1022.8,50.259L1024.7,57.828L1026.5,48.06L1028.4,48.06L1030.2,48.06L1032.1,61.352L1033.9,71.035L1035.7,60.267L1037.6,48.06L1039.4,68.188L1041.3,48.06L1043.1,48.06L1045,48.06L1046.8,51.683L1048.7,48.06L1050.5,48.06L1052.3,58.11L1054.2,65.693L1056,80.578L1057.9,56.983L1059.7,48.06L1061.6,60.295L1063.4,64.326L1065.2,48.06L1067.1,48.06L1068.9,48.06L1070.8,48.06L1072.6,52.655L1074.5,48.06L1076.3,48.06L1078.2,57.462L1080,65.355" style="fill:none;stroke:#5A9BD4;stroke-width:1.875;stroke-dasharray:2.5,2.5" />
<path d="M1055,693.4L1080,693.4" style="fill:none;stroke:#F15A60;stroke-width:1.875" />
<text x="934.09" y="-686.35" transform="scale(1, -1)"
	style="font-family:Helvetica;font-weight:normal;font-style:normal;font-size:12pt">Zookeeper v3.4.8</text>
<path d="M1055,678.7L1080,678.7" style="fill:none;stroke:#7AC36A;stroke-width:1.875;stroke-dasharray:7.5,2.5" />
<text x="944.13" y="-671.65" transform="scale(1, -1)"
	style="font-family:Helvetica;font-weight:normal;font-style:normal;font-size:12pt">etcd v3 (Go Tip)</text>
<path d="M1055,664L1080,664" style="fill:none;stroke:#5A9BD4;stroke-width:1.875;stroke-dasharray:2.5,2.5" />
<text x="943.28" y="-656.95" transform="scale(1, -1)"
	style="font-family:Helvetica;font-weight:normal;font-style:normal;font-size:12pt">etcd v2 (Go 1.4)</text>
</g>
</svg>
