<?xml version="1.0"?>
<!-- Generated by SVGo and Plotinum VG -->
<svg width="12in" height="8in"
	xmlns="http://www.w3.org/2000/svg"
	xmlns:xlink="http://www.w3.org/1999/xlink">
<g transform="scale(1, -1) translate(0, -720)">
<path d="M0,0L1080,0L1080,720L0,720Z" style="fill:#FFFFFF" />
<text x="223.05" y="-705.6" transform="scale(1, -1)"
	style="font-family:Helvetica;font-weight:normal;font-style:normal;font-size:12pt">Write 2M keys, 1000-client (etcd v3 100-conn), 8-byte key, 256-byte value, Latency(millisecond)</text>
<text x="548.25" y="-4.8486" transform="scale(1, -1)"
	style="font-family:Helvetica;font-weight:normal;font-style:normal;font-size:12pt">Second</text>
<text x="64.31" y="-19.498" transform="scale(1, -1)"
	style="font-family:Helvetica;font-weight:normal;font-style:normal;font-size:10pt">0</text>
<text x="391.29" y="-19.498" transform="scale(1, -1)"
	style="font-family:Helvetica;font-weight:normal;font-style:normal;font-size:10pt">100</text>
<text x="725.22" y="-19.498" transform="scale(1, -1)"
	style="font-family:Helvetica;font-weight:normal;font-style:normal;font-size:10pt">200</text>
<text x="1059.1" y="-19.498" transform="scale(1, -1)"
	style="font-family:Helvetica;font-weight:normal;font-style:normal;font-size:10pt">300</text>
<path d="M67.786,31.498L67.786,41.498" style="fill:none;stroke:#000000;stroke-width:0.625" />
<path d="M401.71,31.498L401.71,41.498" style="fill:none;stroke:#000000;stroke-width:0.625" />
<path d="M735.64,31.498L735.64,41.498" style="fill:none;stroke:#000000;stroke-width:0.625" />
<path d="M1069.6,31.498L1069.6,41.498" style="fill:none;stroke:#000000;stroke-width:0.625" />
<path d="M234.75,36.498L234.75,41.498" style="fill:none;stroke:#000000;stroke-width:0.625" />
<path d="M568.68,36.498L568.68,41.498" style="fill:none;stroke:#000000;stroke-width:0.625" />
<path d="M902.61,36.498L902.61,41.498" style="fill:none;stroke:#000000;stroke-width:0.625" />
<path d="M67.786,41.498L1079.6,41.498" style="fill:none;stroke:#000000;stroke-width:0.625" />
<g transform="rotate(90)">
<text x="306.05" y="14.399" transform="scale(1, -1)"
	style="font-family:Helvetica;font-weight:normal;font-style:normal;font-size:12pt">Latency(millisecond)</text>
</g>
<text x="40.104" y="-42.186" transform="scale(1, -1)"
	style="font-family:Helvetica;font-weight:normal;font-style:normal;font-size:10pt">0</text>
<text x="19.248" y="-236.91" transform="scale(1, -1)"
	style="font-family:Helvetica;font-weight:normal;font-style:normal;font-size:10pt">1000</text>
<text x="19.248" y="-431.64" transform="scale(1, -1)"
	style="font-family:Helvetica;font-weight:normal;font-style:normal;font-size:10pt">2000</text>
<text x="19.248" y="-626.36" transform="scale(1, -1)"
	style="font-family:Helvetica;font-weight:normal;font-style:normal;font-size:10pt">3000</text>
<path d="M50.529,48.06L60.529,48.06" style="fill:none;stroke:#000000;stroke-width:0.625" />
<path d="M50.529,242.79L60.529,242.79" style="fill:none;stroke:#000000;stroke-width:0.625" />
<path d="M50.529,437.51L60.529,437.51" style="fill:none;stroke:#000000;stroke-width:0.625" />
<path d="M50.529,632.24L60.529,632.24" style="fill:none;stroke:#000000;stroke-width:0.625" />
<path d="M55.529,145.42L60.529,145.42" style="fill:none;stroke:#000000;stroke-width:0.625" />
<path d="M55.529,340.15L60.529,340.15" style="fill:none;stroke:#000000;stroke-width:0.625" />
<path d="M55.529,534.88L60.529,534.88" style="fill:none;stroke:#000000;stroke-width:0.625" />
<path d="M60.529,48.06L60.529,700.75" style="fill:none;stroke:#000000;stroke-width:0.625" />
<path d="M67.786,50.878L71.125,52.394L74.464,63.329L77.804,53.598L81.143,52.739L84.482,53.175L87.821,52.902L91.161,52.851L94.5,52.572L97.839,52.575L101.18,53.497L104.52,57.067L107.86,55.57L111.2,52.48L114.54,52.226L117.87,53.294L121.21,55.661L124.55,52.025L127.89,52.962L131.23,57.909L134.57,52.266L137.91,52.619L141.25,52.419L144.59,53.448L147.93,52.735L151.27,52.444L154.61,52.162L157.95,48.06L161.29,121.28L164.63,48.06L167.96,60.776L171.3,170.87L174.64,216.37L177.98,172.24L181.32,168.66L184.66,178.87L188,447.04L191.34,48.06L194.68,48.06L198.02,48.06L201.36,48.06L204.7,48.06L208.04,48.06L211.38,48.06L214.71,48.06L218.05,48.06L221.39,48.06L224.73,48.06L228.07,48.06L231.41,48.06L234.75,48.06L238.09,48.06L241.43,48.06L244.77,48.06L248.11,65.725L251.45,52.754L254.79,51.226L258.13,51.194L261.46,51.206L264.8,51.232L268.14,51.988L271.48,51.036L274.82,59.282L278.16,53.338L281.5,162.73L284.84,48.06L288.18,74.21L291.52,51.229L294.86,51.364L298.2,51.752L301.54,50.808L304.88,52.819L308.21,51.148L311.55,48.06L314.89,150.63L318.23,57.634L321.57,48.06L324.91,48.06L328.25,48.06L331.59,48.06L334.93,48.06L338.27,48.06L341.61,48.06L344.95,48.06L348.29,48.06L351.63,48.06L354.96,48.06L358.3,48.06L361.64,48.06L364.98,48.06L368.32,48.06L371.66,48.06L375,48.06L378.34,48.06L381.68,48.06L385.02,48.06L388.36,48.06L391.7,48.06L395.04,48.06L398.38,48.06L401.71,48.06L405.05,48.06L408.39,48.06L411.73,48.06L415.07,48.06L418.41,48.06L421.75,48.06L425.09,48.06L428.43,48.06L431.77,48.06L435.11,48.06L438.45,48.06L441.79,48.06L445.13,48.06L448.46,48.06L451.8,48.06L455.14,48.06L458.48,48.06L461.82,48.06L465.16,48.06L468.5,48.06L471.84,48.06L475.18,48.06L478.52,48.06L481.86,48.06L485.2,48.06L488.54,48.06L491.88,48.06L495.21,48.06L498.55,48.06L501.89,48.06L505.23,48.06L508.57,48.06L511.91,48.06L515.25,48.06L518.59,48.06L521.93,48.06L525.27,48.06L528.61,48.06L531.95,48.06L535.29,48.06L538.63,48.06L541.96,48.06L545.3,119.35L548.64,51.409L551.98,61.877L555.32,48.06L558.66,329.91L562,72.461L565.34,63.899L568.68,48.06L572.02,378.01L575.36,48.06L578.7,48.06L582.04,48.06L585.38,48.06L588.71,48.06L592.05,48.06L595.39,48.06L598.73,48.06L602.07,48.06L605.41,48.06L608.75,48.06L612.09,48.06L615.43,48.06L618.77,48.06L622.11,48.06L625.45,48.06L628.79,48.06L632.13,48.06L635.46,48.06L638.8,48.06L642.14,48.06L645.48,48.06L648.82,48.06L652.16,48.06L655.5,48.06L658.84,48.06L662.18,48.06L665.52,48.06L668.86,48.06L672.2,48.06L675.54,48.06L678.88,80.256L682.21,58.582L685.55,53.772L688.89,53.252L692.23,54.185L695.57,53.403L698.91,56.628L702.25,157.7L705.59,48.06L708.93,48.06L712.27,48.06L715.61,48.06L718.95,48.06L722.29,48.06L725.63,48.06L728.96,48.06L732.3,48.06L735.64,48.06L738.98,48.06L742.32,48.06L745.66,48.06L749,48.06L752.34,48.06L755.68,48.06L759.02,48.06L762.36,48.06L765.7,48.06L769.04,48.06L772.38,48.06L775.71,48.06L779.05,48.06L782.39,48.06L785.73,48.06L789.07,48.06L792.41,48.06L795.75,48.06L799.09,48.06L802.43,48.06L805.77,48.06L809.11,48.06L812.45,48.06L815.79,48.06L819.13,48.06L822.46,48.06L825.8,48.06L829.14,48.06L832.48,48.06L835.82,48.06L839.16,48.06L842.5,48.06L845.84,48.06L849.18,48.06L852.52,48.06L855.86,48.06L859.2,48.06L862.54,48.06L865.88,48.06L869.21,48.06L872.55,48.06L875.89,48.06L879.23,48.06L882.57,48.06L885.91,48.06L889.25,48.06L892.59,48.06L895.93,48.06L899.27,48.06L902.61,48.06L905.95,48.06L909.29,48.06L912.63,48.06L915.96,48.06L919.3,48.06L922.64,48.06L925.98,48.06L929.32,48.06L932.66,106.2L936,51.899L939.34,52.017L942.68,121.3L946.02,167.01L949.36,48.06L952.7,48.06L956.04,48.06L959.38,48.06L962.71,48.06L966.05,48.06L969.39,48.06L972.73,48.06L976.07,48.06L979.41,48.06L982.75,48.06L986.09,48.06L989.43,48.06L992.77,48.06L996.11,48.06L999.45,48.06L1002.8,48.06L1006.1,48.06L1009.5,48.06L1012.8,48.06L1016.1,48.06L1019.5,48.06L1022.8,48.06L1026.2,48.06L1029.5,48.06L1032.8,48.06L1036.2,48.06L1039.5,48.06L1042.9,48.06L1046.2,48.06L1049.5,48.06L1052.9,48.06L1056.2,48.06L1059.6,48.06L1062.9,48.06L1066.2,48.06L1069.6,48.06L1072.9,48.06L1076.3,66.959L1079.6,57.132" style="fill:none;stroke:#F15A60;stroke-width:1.875" />
<path d="M67.786,50.637L71.125,56.026L74.464,59.301L77.804,53.146L81.143,53.288L84.482,52.904L87.821,53.246L91.161,53.079L94.5,52.856L97.839,52.653L101.18,52.686L104.52,57.364L107.86,60.49L111.2,52.736L114.54,53.027L117.87,52.778L121.21,53.119L124.55,59.328L127.89,52.401L131.23,53.882L134.57,92.166L137.91,52.709L141.25,52.749L144.59,52.932L147.93,53.385L151.27,52.66L154.61,53.424L157.95,52.495L161.29,52.5L164.63,48.06L167.96,66.792L171.3,48.06L174.64,76.234L177.98,52.673L181.32,53.315L184.66,53.125L188,55.475L191.34,53.09L194.68,64.137L198.02,155.3L201.36,163.27L204.7,130.15L208.04,48.06L211.38,456.63L214.71,181.88L218.05,48.06L221.39,48.06L224.73,48.06L228.07,48.06L231.41,48.06L234.75,48.06L238.09,48.06L241.43,48.06L244.77,48.06L248.11,48.06L251.45,48.06L254.79,48.06L258.13,48.06L261.46,48.06L264.8,48.06L268.14,700.75L271.48,51.74L274.82,51.288L278.16,51.51L281.5,51.44L284.84,51.541L288.18,51.229L291.52,50.926L294.86,122.41L298.2,73.138L301.54,48.06L304.88,48.06L308.21,48.06L311.55,48.06L314.89,48.06L318.23,48.06L321.57,48.06L324.91,48.06L328.25,94.221L331.59,55.033L334.93,48.06L338.27,63.631L341.61,56.573L344.95,54.22L348.29,53.643L351.63,52.864L354.96,53.468L358.3,48.06L361.64,69.191L364.98,53.329L368.32,52.888L371.66,52.551L375,53.652L378.34,57.092L381.68,55.365L385.02,173.05L388.36,48.06L391.7,365.6L395.04,48.06L398.38,374.52L401.71,48.06L405.05,48.06L408.39,48.06L411.73,48.06L415.07,48.06L418.41,48.06L421.75,48.06L425.09,48.06L428.43,48.06L431.77,48.06L435.11,48.06L438.45,48.06L441.79,48.06L445.13,48.06L448.46,48.06L451.8,48.06L455.14,48.06L458.48,48.06L461.82,48.06L465.16,48.06L468.5,48.06L471.84,48.06L475.18,48.06L478.52,48.06L481.86,48.06L485.2,48.06L488.54,48.06L491.88,48.06L495.21,48.06L498.55,48.06L501.89,48.06L505.23,48.06L508.57,48.06L511.91,48.06L515.25,60.527L518.59,54.398L521.93,58.244" style="fill:none;stroke:#7AC36A;stroke-width:1.875;stroke-dasharray:7.5,2.5" />
<path d="M67.786,52.77L71.125,52.671L74.464,53.502L77.804,53.008L81.143,53.241L84.482,53.136L87.821,53.201L91.161,53.232L94.5,53.289L97.839,53.366L101.18,53.329L104.52,53.324L107.86,53.345L111.2,53.212L114.54,53.391L117.87,53.323L121.21,53.458L124.55,53.225L127.89,53.215L131.23,53.42L134.57,53.195L137.91,53.296L141.25,53.501L144.59,53.671L147.93,53.245L151.27,53.589L154.61,53.706L157.95,53.496L161.29,53.403L164.63,54.436L167.96,53.537L171.3,53.432L174.64,54.488L177.98,53.048L181.32,53.356L184.66,53.432L188,54.115L191.34,53.613L194.68,53.302L198.02,53.49L201.36,53.56L204.7,53.3L208.04,53.336L211.38,53.511L214.71,53.765L218.05,53.51L221.39,53.429L224.73,53.372L228.07,53.772L231.41,53.763L234.75,53.468L238.09,53.906L241.43,53.9L244.77,52.757L248.11,53.834L251.45,54.077" style="fill:none;stroke:#5A9BD4;stroke-width:1.875;stroke-dasharray:2.5,2.5" />
<path d="M1055,693.4L1080,693.4" style="fill:none;stroke:#F15A60;stroke-width:1.875" />
<text x="804.02" y="-686.35" transform="scale(1, -1)"
	style="font-family:Helvetica;font-weight:normal;font-style:normal;font-size:12pt">Zookeeper v3.4.8 (Java 8, Snap 10k)</text>
<path d="M1055,678.7L1080,678.7" style="fill:none;stroke:#7AC36A;stroke-width:1.875;stroke-dasharray:7.5,2.5" />
<text x="795.68" y="-671.65" transform="scale(1, -1)"
	style="font-family:Helvetica;font-weight:normal;font-style:normal;font-size:12pt">Zookeeper v3.4.8 (Java 8, Snap 100k)</text>
<path d="M1055,664L1080,664" style="fill:none;stroke:#5A9BD4;stroke-width:1.875;stroke-dasharray:2.5,2.5" />
<text x="944.13" y="-656.95" transform="scale(1, -1)"
	style="font-family:Helvetica;font-weight:normal;font-style:normal;font-size:12pt">etcd v3 (Go Tip)</text>
</g>
</svg>
