<?xml version="1.0"?>
<!-- Generated by SVGo and Plotinum VG -->
<svg width="12in" height="8in"
	xmlns="http://www.w3.org/2000/svg"
	xmlns:xlink="http://www.w3.org/1999/xlink">
<g transform="scale(1, -1) translate(0, -720)">
<path d="M0,0L1080,0L1080,720L0,720Z" style="fill:#FFFFFF" />
<text x="275.57" y="-705.6" transform="scale(1, -1)"
	style="font-family:Helvetica;font-weight:normal;font-style:normal;font-size:12pt">Write 2M keys, 1000-client (etcd v3 100-conn), 8-byte key, 256-byte value, CPU</text>
<text x="544.98" y="-4.8486" transform="scale(1, -1)"
	style="font-family:Helvetica;font-weight:normal;font-style:normal;font-size:12pt">Second</text>
<text x="57.358" y="-19.498" transform="scale(1, -1)"
	style="font-family:Helvetica;font-weight:normal;font-style:normal;font-size:10pt">0</text>
<text x="389.87" y="-19.498" transform="scale(1, -1)"
	style="font-family:Helvetica;font-weight:normal;font-style:normal;font-size:10pt">30</text>
<text x="725.86" y="-19.498" transform="scale(1, -1)"
	style="font-family:Helvetica;font-weight:normal;font-style:normal;font-size:10pt">60</text>
<text x="1061.8" y="-19.498" transform="scale(1, -1)"
	style="font-family:Helvetica;font-weight:normal;font-style:normal;font-size:10pt">90</text>
<path d="M60.834,31.498L60.834,41.498" style="fill:none;stroke:#000000;stroke-width:0.625" />
<path d="M396.82,31.498L396.82,41.498" style="fill:none;stroke:#000000;stroke-width:0.625" />
<path d="M732.81,31.498L732.81,41.498" style="fill:none;stroke:#000000;stroke-width:0.625" />
<path d="M1068.8,31.498L1068.8,41.498" style="fill:none;stroke:#000000;stroke-width:0.625" />
<path d="M172.83,36.498L172.83,41.498" style="fill:none;stroke:#000000;stroke-width:0.625" />
<path d="M284.83,36.498L284.83,41.498" style="fill:none;stroke:#000000;stroke-width:0.625" />
<path d="M508.82,36.498L508.82,41.498" style="fill:none;stroke:#000000;stroke-width:0.625" />
<path d="M620.82,36.498L620.82,41.498" style="fill:none;stroke:#000000;stroke-width:0.625" />
<path d="M844.81,36.498L844.81,41.498" style="fill:none;stroke:#000000;stroke-width:0.625" />
<path d="M956.8,36.498L956.8,41.498" style="fill:none;stroke:#000000;stroke-width:0.625" />
<path d="M60.834,41.498L1080,41.498" style="fill:none;stroke:#000000;stroke-width:0.625" />
<g transform="rotate(90)">
<text x="358.57" y="14.399" transform="scale(1, -1)"
	style="font-family:Helvetica;font-weight:normal;font-style:normal;font-size:12pt">CPU</text>
</g>
<text x="19.248" y="-207.26" transform="scale(1, -1)"
	style="font-family:Helvetica;font-weight:normal;font-style:normal;font-size:10pt">100</text>
<text x="19.248" y="-376.57" transform="scale(1, -1)"
	style="font-family:Helvetica;font-weight:normal;font-style:normal;font-size:10pt">200</text>
<text x="19.248" y="-545.87" transform="scale(1, -1)"
	style="font-family:Helvetica;font-weight:normal;font-style:normal;font-size:10pt">300</text>
<path d="M43.577,213.13L53.577,213.13" style="fill:none;stroke:#000000;stroke-width:0.625" />
<path d="M43.577,382.44L53.577,382.44" style="fill:none;stroke:#000000;stroke-width:0.625" />
<path d="M43.577,551.75L53.577,551.75" style="fill:none;stroke:#000000;stroke-width:0.625" />
<path d="M48.577,128.48L53.577,128.48" style="fill:none;stroke:#000000;stroke-width:0.625" />
<path d="M48.577,297.79L53.577,297.79" style="fill:none;stroke:#000000;stroke-width:0.625" />
<path d="M48.577,467.09L53.577,467.09" style="fill:none;stroke:#000000;stroke-width:0.625" />
<path d="M48.577,636.4L53.577,636.4" style="fill:none;stroke:#000000;stroke-width:0.625" />
<path d="M53.577,48.06L53.577,700.75" style="fill:none;stroke:#000000;stroke-width:0.625" />
<path d="M60.834,59.15L72.033,135.1L83.233,194.65L94.433,224.05L105.63,264.55L116.83,293.71L128.03,329.14L139.23,356.5L150.43,383.88L161.63,406.4L172.83,425.61L184.03,434.82L195.23,444.42L206.43,456.07L217.63,465.86L228.83,470.85L240.03,481.48L251.23,484.82L262.43,491.85L273.63,500.56L284.83,514.14L296.03,518.66L307.23,521.9L318.43,527.15L329.62,532.63L340.82,535.9L352.02,538.83L363.22,542.13L374.42,545.16L385.62,548.53L396.82,546.94L408.02,552.05L419.22,562.63L430.42,562.24L441.62,563.36L452.82,565.21L464.02,568.19L475.22,567.81L486.42,569.4L497.62,571.86L508.82,567.66L520.02,557.69L531.22,548.34L542.42,539.79L553.62,530.8L564.82,521.54L576.02,513.35L587.22,506.08L598.42,499.14L609.62,491.95L620.82,484.31L632.01,477.01L643.21,469.68L654.41,463.42L665.61,456.61L676.81,450.09L688.01,443.37L699.21,438.09L710.41,432.98L721.61,428.25L732.81,423.58L744.01,422.19L755.21,420.42L766.41,421.96L777.61,425.85L788.81,428.49L800.01,432.11L811.21,434.62L822.41,432L833.61,433.64L844.81,434.03L856.01,430.32L867.21,427.51L878.41,426.14L889.61,425.43L900.81,421.63L912.01,417.89L923.21,414.32L934.4,411.8L945.6,413.49L956.8,415.2L968,418.84L979.2,421.55L990.4,424.07L1001.6,427.26L1012.8,432.35L1024,435.79L1035.2,438.92L1046.4,442.49L1057.6,445.81L1068.8,448.67L1080,451.52" style="fill:none;stroke:#F15A60;stroke-width:1.875" />
<path d="M60.834,48.06L72.033,131.87L83.233,197.57L94.433,252.55L105.63,302.14L116.83,343.13L128.03,377.14L139.23,406.62L150.43,431.47L161.63,453.07L172.83,472.04L184.03,488.98L195.23,505.51L206.43,519.19L217.63,532.6L228.83,543.64L240.03,554.91L251.23,564.75L262.43,573.43L273.63,582.91L284.83,590.75L296.03,597.76L307.23,604.69L318.43,609.8L329.62,616.23L340.82,621.62L352.02,625.61L363.22,630.76L374.42,634.27L385.62,638.28L396.82,641.21L408.02,644.41L419.22,647.54L430.42,650.67L441.62,654.68L452.82,658.1L464.02,661.15L475.22,663.74L486.42,666.33L497.62,668.43L508.82,670.92L520.02,673.44L531.22,675.97L542.42,678.37L553.62,680L564.82,681.57L576.02,683.52L587.22,685.84L598.42,688.12L609.62,689.37L620.82,690.61L632.01,692.78L643.21,694.18L654.41,695.33L665.61,696.72" style="fill:none;stroke:#7AC36A;stroke-width:1.875;stroke-dasharray:7.5,2.5" />
<path d="M60.834,48.67L72.033,130.68L83.233,197.41L94.433,256.93L105.63,304.02L116.83,342.01L128.03,375.5L139.23,403.98L150.43,428.54L161.63,449.35L172.83,468.57L184.03,485.72L195.23,500.12L206.43,513.89L217.63,527.15L228.83,538.59L240.03,548.53L251.23,558.04L262.43,566.71L273.63,575.04L284.83,582.58L296.03,590.08L307.23,595.83L318.43,601.91L329.62,606.82L340.82,611.49L352.02,617.42L363.22,621.43L374.42,625.94L385.62,629.27L396.82,633.47L408.02,636.89L419.22,640.99L430.42,644.68L441.62,648L452.82,651.21L464.02,654.63L475.22,657.77L486.42,660.22L497.62,662.76L508.82,665.4L520.02,668.11L531.22,670.01L542.42,672.48L553.62,674.87L564.82,676.51L576.02,678.54L587.22,680.03L598.42,682.35L609.62,684.48L620.82,686.06L632.01,687.34L643.21,688.92L654.41,690.92L665.61,692.34L676.81,694.08L688.01,695.52L699.21,696.71L710.41,697.96L721.61,699.08L732.81,700.75" style="fill:none;stroke:#5A9BD4;stroke-width:1.875;stroke-dasharray:2.5,2.5" />
<path d="M1055,693.4L1080,693.4" style="fill:none;stroke:#F15A60;stroke-width:1.875" />
<text x="875.74" y="-686.35" transform="scale(1, -1)"
	style="font-family:Helvetica;font-weight:normal;font-style:normal;font-size:12pt">Zookeeper v3.4.8 (Java 8)</text>
<path d="M1055,678.7L1080,678.7" style="fill:none;stroke:#7AC36A;stroke-width:1.875;stroke-dasharray:7.5,2.5" />
<text x="944.13" y="-671.65" transform="scale(1, -1)"
	style="font-family:Helvetica;font-weight:normal;font-style:normal;font-size:12pt">etcd v3 (Go Tip)</text>
<path d="M1055,664L1080,664" style="fill:none;stroke:#5A9BD4;stroke-width:1.875;stroke-dasharray:2.5,2.5" />
<text x="943.28" y="-656.95" transform="scale(1, -1)"
	style="font-family:Helvetica;font-weight:normal;font-style:normal;font-size:12pt">etcd v3 (Go 1.6)</text>
</g>
</svg>
