<?xml version="1.0"?>
<!-- Generated by SVGo and Plotinum VG -->
<svg width="12in" height="8in"
	xmlns="http://www.w3.org/2000/svg"
	xmlns:xlink="http://www.w3.org/1999/xlink">
<g transform="scale(1, -1) translate(0, -720)">
<path d="M0,0L1080,0L1080,720L0,720Z" style="fill:#FFFFFF" />
<text x="275.57" y="-705.6" transform="scale(1, -1)"
	style="font-family:Helvetica;font-weight:normal;font-style:normal;font-size:12pt">Write 2M keys, 1000-client (etcd v3 100-conn), 8-byte key, 256-byte value, CPU</text>
<text x="543.13" y="-4.8486" transform="scale(1, -1)"
	style="font-family:Helvetica;font-weight:normal;font-style:normal;font-size:12pt">Second</text>
<text x="57.358" y="-19.498" transform="scale(1, -1)"
	style="font-family:Helvetica;font-weight:normal;font-style:normal;font-size:10pt">0</text>
<text x="386.65" y="-19.498" transform="scale(1, -1)"
	style="font-family:Helvetica;font-weight:normal;font-style:normal;font-size:10pt">100</text>
<text x="722.9" y="-19.498" transform="scale(1, -1)"
	style="font-family:Helvetica;font-weight:normal;font-style:normal;font-size:10pt">200</text>
<text x="1059.1" y="-19.498" transform="scale(1, -1)"
	style="font-family:Helvetica;font-weight:normal;font-style:normal;font-size:10pt">300</text>
<path d="M60.834,31.498L60.834,41.498" style="fill:none;stroke:#000000;stroke-width:0.625" />
<path d="M397.08,31.498L397.08,41.498" style="fill:none;stroke:#000000;stroke-width:0.625" />
<path d="M733.33,31.498L733.33,41.498" style="fill:none;stroke:#000000;stroke-width:0.625" />
<path d="M1069.6,31.498L1069.6,41.498" style="fill:none;stroke:#000000;stroke-width:0.625" />
<path d="M228.96,36.498L228.96,41.498" style="fill:none;stroke:#000000;stroke-width:0.625" />
<path d="M565.2,36.498L565.2,41.498" style="fill:none;stroke:#000000;stroke-width:0.625" />
<path d="M901.45,36.498L901.45,41.498" style="fill:none;stroke:#000000;stroke-width:0.625" />
<path d="M60.834,41.498L1076.3,41.498" style="fill:none;stroke:#000000;stroke-width:0.625" />
<g transform="rotate(90)">
<text x="358.57" y="14.399" transform="scale(1, -1)"
	style="font-family:Helvetica;font-weight:normal;font-style:normal;font-size:12pt">CPU</text>
</g>
<text x="19.248" y="-208.28" transform="scale(1, -1)"
	style="font-family:Helvetica;font-weight:normal;font-style:normal;font-size:10pt">100</text>
<text x="19.248" y="-378.64" transform="scale(1, -1)"
	style="font-family:Helvetica;font-weight:normal;font-style:normal;font-size:10pt">200</text>
<text x="19.248" y="-549" transform="scale(1, -1)"
	style="font-family:Helvetica;font-weight:normal;font-style:normal;font-size:10pt">300</text>
<path d="M43.577,214.16L53.577,214.16" style="fill:none;stroke:#000000;stroke-width:0.625" />
<path d="M43.577,384.52L53.577,384.52" style="fill:none;stroke:#000000;stroke-width:0.625" />
<path d="M43.577,554.87L53.577,554.87" style="fill:none;stroke:#000000;stroke-width:0.625" />
<path d="M48.577,128.98L53.577,128.98" style="fill:none;stroke:#000000;stroke-width:0.625" />
<path d="M48.577,299.34L53.577,299.34" style="fill:none;stroke:#000000;stroke-width:0.625" />
<path d="M48.577,469.7L53.577,469.7" style="fill:none;stroke:#000000;stroke-width:0.625" />
<path d="M48.577,640.05L53.577,640.05" style="fill:none;stroke:#000000;stroke-width:0.625" />
<path d="M53.577,48.06L53.577,700.75" style="fill:none;stroke:#000000;stroke-width:0.625" />
<path d="M60.834,58.111L64.196,147.82L67.559,221.09L70.921,246.39L74.284,293.7L77.646,326.12L81.009,361.45L84.371,394.02L87.733,417.86L91.096,442.4L94.458,459.03L97.821,469.66L101.18,490.19L104.55,502.8L107.91,514.3L111.27,524.6L114.63,526.68L118,535.44L121.36,542.92L124.72,552.56L128.08,559.29L131.45,565.08L134.81,571.04L138.17,574.45L141.53,578.74L144.9,583.78L148.26,588.01L151.62,590.41L154.98,585.69L158.35,584.41L161.71,584.28L165.07,589.44L168.43,582.95L171.79,573.65L175.16,562.27L178.52,549.99L181.88,538.38L185.24,527.52L188.61,516.73L191.97,506.78L195.33,497.92L198.69,491.3L202.06,483.99L205.42,475.61L208.78,467.36L212.14,461.02L215.51,454.82L218.87,447.4L222.23,440.85L225.59,435.03L228.96,429.54L232.32,423.95L235.68,418.4L239.04,413.56L242.41,408.98L245.77,410.5L249.13,414.21L252.49,417.16L255.86,419.7L259.22,422.32L262.58,424.65L265.94,427.02L269.31,425.91L272.67,427.07L276.03,425.1L279.39,421.71L282.76,418.2L286.12,416.66L289.48,418.49L292.84,420.94L296.21,426.48L299.57,431.59L302.93,435.59L306.29,432.86L309.66,430.53L313.02,428.04L316.38,424.19L319.74,419.81L323.11,416.12L326.47,413.27L329.83,409.85L333.19,406.68L336.56,403.94L339.92,401.77L343.28,398.23L346.64,394.43L350.01,390.79L353.37,387.29L356.73,383.77L360.09,379.9L363.46,376.51L366.82,373.8L370.18,371.04L373.54,367.86L376.91,365.56L380.27,363.24L383.63,361.5L386.99,359.83L390.35,357.28L393.72,354.84L397.08,352.9L400.44,350.99L403.8,348.67L407.17,346.19L410.53,344.06L413.89,341.55L417.25,339.34L420.62,337.79L423.98,335.85L427.34,333.26L430.7,330.73L434.07,328.42L437.43,326.2L440.79,324.33L444.15,322.4L447.52,320.09L450.88,317.89L454.24,315.5L457.6,313.61L460.97,311.77L464.33,310.87L467.69,309.27L471.05,307.72L474.42,306.12L477.78,304.86L481.14,303.82L484.5,302.68L487.87,301.89L491.23,300.84L494.59,299.92L497.95,299.08L501.32,297.82L504.68,296.17L508.04,294.55L511.4,292.75L514.77,291.14L518.13,289.66L521.49,288.35L524.85,286.82L528.22,285.59L531.58,284.19L534.94,282.78L538.3,281.28L541.67,280.6L545.03,280.97L548.39,282.2L551.75,282.57L555.12,281.62L558.48,282.2L561.84,284.02L565.2,283.32L568.57,282.97L571.93,282.52L575.29,282.15L578.65,281.26L582.02,280.17L585.38,278.74L588.74,277.91L592.1,276.6L595.47,275.23L598.83,274.3L602.19,273.26L605.55,272.01L608.91,271.13L612.28,270.24L615.64,269.15L619,268.08L622.36,267.07L625.73,266.17L629.09,267.09L632.45,268.66L635.81,268.67L639.18,267.91L642.54,266.95L645.9,266.08L649.26,265.37L652.63,264.48L655.99,263.89L659.35,263.07L662.71,262.46L666.08,261.83L669.44,261.16L672.8,260.63L676.16,260.12L679.53,260.99L682.89,262.49L686.25,264.23L689.61,266.36L692.98,267.7L696.34,269.05L699.7,268.67L703.06,267.74L706.43,266.53L709.79,265.47L713.15,264.67L716.51,264.04L719.88,263.44L723.24,262.69L726.6,261.93L729.96,261.21L733.33,261.98L736.69,263.1L740.05,262.93L743.41,262.17L746.78,261.43L750.14,260.56L753.5,259.63L756.86,259.01L760.23,258.25L763.59,257.31L766.95,256.36L770.31,255.39L773.68,254.5L777.04,253.65L780.4,252.73L783.76,251.81L787.13,250.91L790.49,250.16L793.85,250.04L797.21,249.87L800.58,249.64L803.94,248.83L807.3,247.94L810.66,247.19L814.03,246.32L817.39,245.62L820.75,244.91L824.11,244.33L827.47,243.63L830.84,243.24L834.2,242.52L837.56,241.83L840.92,241.21L844.29,240.5L847.65,239.9L851.01,239.39L854.37,238.84L857.74,238.2L861.1,237.6L864.46,237.04L867.82,236.27L871.19,235.5L874.55,234.76L877.91,233.97L881.27,233.24L884.64,232.75L888,232.13L891.36,231.43L894.72,230.96L898.09,230.39L901.45,229.88L904.81,229.24L908.17,228.64L911.54,228.06L914.9,227.46L918.26,226.88L921.62,226.25L924.99,225.61L928.35,225.01L931.71,224.77L935.07,225.32L938.44,226.68L941.8,226.73L945.16,226.49L948.52,226.25L951.89,225.91L955.25,225.52L958.61,225.04L961.97,224.69L965.34,224.31L968.7,223.9L972.06,223.63L975.42,223.55L978.79,223.55L982.15,223.39L985.51,223.21L988.87,223.05L992.24,222.93L995.6,222.78L998.96,222.4L1002.3,222.1L1005.7,221.79L1009,221.48L1012.4,221.21L1015.8,221.06L1019.1,220.89L1022.5,220.75L1025.9,220.72L1029.2,220.51L1032.6,220.5L1035.9,221.42L1039.3,221.4L1042.7,221.16L1046,221.13L1049.4,221.23L1052.8,221.94L1056.1,222.22L1059.5,222.2L1062.8,221.83L1066.2,221.45L1069.6,221.08L1072.9,220.73L1076.3,220.82" style="fill:none;stroke:#F15A60;stroke-width:1.875" />
<path d="M60.834,143.94L64.196,197.4L67.559,222.98L70.921,267.84L74.284,297.96L77.646,325.1L81.009,348.32L84.371,366.19L87.733,384.77L91.096,403.49L94.458,416.02L97.821,422.25L101.18,437.16L104.55,446.08L107.91,450.97L111.27,462.73L114.63,467.65L118,474.69L121.36,479.2L124.72,487.82L128.08,495.91L131.45,505.93L134.81,510.45L138.17,514.69L141.53,521.59L144.9,526.58L148.26,531.5L151.62,535.78L154.98,540.94L158.35,545.15L161.71,546.63L165.07,544.72L168.43,556.6L171.79,560.14L175.16,562.83L178.52,565.33L181.88,568.2L185.24,566.49L188.61,568.35L191.97,559.13L195.33,549.36L198.69,540.27L202.06,530.89L205.42,521.23L208.78,511.98L212.14,503.09L215.51,494.4L218.87,487.23L222.23,480.79L225.59,473.67L228.96,466.36L232.32,459.66L235.68,452.71L239.04,447.02L242.41,440.7L245.77,434.84L249.13,429.03L252.49,423.22L255.86,417.55L259.22,413.14L262.58,409.51L265.94,406.68L269.31,410.04L272.67,413.58L276.03,417.52L279.39,421.18L282.76,424.47L286.12,427.52L289.48,430.39L292.84,429.17L296.21,425.68L299.57,422.98L302.93,419.9L306.29,418.66L309.66,415.59L313.02,413.7L316.38,410.24L319.74,406.87L323.11,403.39L326.47,402.51L329.83,405.3L333.19,404.91L336.56,407.24L339.92,408.23L343.28,411.59L346.64,414.59L350.01,417.04L353.37,423.17L356.73,425.35L360.09,427.43L363.46,430.84L366.82,433.82L370.18,436.61L373.54,438.21L376.91,437.45L380.27,434.52L383.63,431.09L386.99,427.57L390.35,424.02L393.72,420.46L397.08,416.88L400.44,413.94L403.8,411.23L407.17,408.26L410.53,405.06L413.89,402L417.25,398.88L420.62,396.34L423.98,393.8L427.34,391.94L430.7,390.34L434.07,389L437.43,387.23L440.79,386.61L444.15,387.58L447.52,388.42L450.88,388.91L454.24,386.9L457.6,385.73L460.97,384.47L464.33,383.27L467.69,381.89L471.05,381.42L474.42,380.46L477.78,379L481.14,378.06L484.5,375.96L487.87,373.72L491.23,371.76L494.59,369.81L497.95,368.06L501.32,366.42L504.68,366.08L508.04,367.17L511.4,367.55L514.77,369.92" style="fill:none;stroke:#7AC36A;stroke-width:1.875;stroke-dasharray:7.5,2.5" />
<path d="M60.834,48.06L64.196,132.39L67.559,198.5L70.921,253.82L74.284,303.72L77.646,344.96L81.009,379.18L84.371,408.84L87.733,433.85L91.096,455.59L94.458,474.67L97.821,491.72L101.18,508.35L104.55,522.11L107.91,535.61L111.27,546.71L114.63,558.06L118,567.96L121.36,576.7L124.72,586.24L128.08,594.13L131.45,601.18L134.81,608.15L138.17,613.29L141.53,619.76L144.9,625.18L148.26,629.2L151.62,634.38L154.98,637.91L158.35,641.94L161.71,644.89L165.07,648.11L168.43,651.26L171.79,654.41L175.16,658.45L178.52,661.89L181.88,664.96L185.24,667.57L188.61,670.17L191.97,672.29L195.33,674.79L198.69,677.33L202.06,679.87L205.42,682.29L208.78,683.92L212.14,685.5L215.51,687.46L218.87,689.8L222.23,692.1L225.59,693.36L228.96,694.6L232.32,696.78L235.68,698.2L239.04,699.36L242.41,700.75" style="fill:none;stroke:#5A9BD4;stroke-width:1.875;stroke-dasharray:2.5,2.5" />
<path d="M1055,693.4L1080,693.4" style="fill:none;stroke:#F15A60;stroke-width:1.875" />
<text x="804.02" y="-686.35" transform="scale(1, -1)"
	style="font-family:Helvetica;font-weight:normal;font-style:normal;font-size:12pt">Zookeeper v3.4.8 (Java 8, Snap 10k)</text>
<path d="M1055,678.7L1080,678.7" style="fill:none;stroke:#7AC36A;stroke-width:1.875;stroke-dasharray:7.5,2.5" />
<text x="795.68" y="-671.65" transform="scale(1, -1)"
	style="font-family:Helvetica;font-weight:normal;font-style:normal;font-size:12pt">Zookeeper v3.4.8 (Java 8, Snap 100k)</text>
<path d="M1055,664L1080,664" style="fill:none;stroke:#5A9BD4;stroke-width:1.875;stroke-dasharray:2.5,2.5" />
<text x="944.13" y="-656.95" transform="scale(1, -1)"
	style="font-family:Helvetica;font-weight:normal;font-style:normal;font-size:12pt">etcd v3 (Go Tip)</text>
</g>
</svg>
