<?xml version="1.0"?>
<!-- Generated by SVGo and Plotinum VG -->
<svg width="12in" height="8in"
	xmlns="http://www.w3.org/2000/svg"
	xmlns:xlink="http://www.w3.org/1999/xlink">
<g transform="scale(1, -1) translate(0, -720)">
<path d="M0,0L1080,0L1080,720L0,720Z" style="fill:#FFFFFF" />
<text x="253.18" y="-705.6" transform="scale(1, -1)"
	style="font-family:Helvetica;font-weight:normal;font-style:normal;font-size:12pt">Write 2M keys, 1000-client (etcd v3 100-conn), 8-byte key, 256-byte value, Throughput</text>
<text x="552.11" y="-4.8486" transform="scale(1, -1)"
	style="font-family:Helvetica;font-weight:normal;font-style:normal;font-size:12pt">Second</text>
<text x="71.609" y="-19.498" transform="scale(1, -1)"
	style="font-family:Helvetica;font-weight:normal;font-style:normal;font-size:10pt">0</text>
<text x="395.82" y="-19.498" transform="scale(1, -1)"
	style="font-family:Helvetica;font-weight:normal;font-style:normal;font-size:10pt">30</text>
<text x="723.51" y="-19.498" transform="scale(1, -1)"
	style="font-family:Helvetica;font-weight:normal;font-style:normal;font-size:10pt">60</text>
<text x="1051.2" y="-19.498" transform="scale(1, -1)"
	style="font-family:Helvetica;font-weight:normal;font-style:normal;font-size:10pt">90</text>
<path d="M75.085,31.498L75.085,41.498" style="fill:none;stroke:#000000;stroke-width:0.625" />
<path d="M402.77,31.498L402.77,41.498" style="fill:none;stroke:#000000;stroke-width:0.625" />
<path d="M730.46,31.498L730.46,41.498" style="fill:none;stroke:#000000;stroke-width:0.625" />
<path d="M1058.2,31.498L1058.2,41.498" style="fill:none;stroke:#000000;stroke-width:0.625" />
<path d="M184.32,36.498L184.32,41.498" style="fill:none;stroke:#000000;stroke-width:0.625" />
<path d="M293.55,36.498L293.55,41.498" style="fill:none;stroke:#000000;stroke-width:0.625" />
<path d="M512,36.498L512,41.498" style="fill:none;stroke:#000000;stroke-width:0.625" />
<path d="M621.23,36.498L621.23,41.498" style="fill:none;stroke:#000000;stroke-width:0.625" />
<path d="M839.69,36.498L839.69,41.498" style="fill:none;stroke:#000000;stroke-width:0.625" />
<path d="M948.92,36.498L948.92,41.498" style="fill:none;stroke:#000000;stroke-width:0.625" />
<path d="M75.085,41.498L1080,41.498" style="fill:none;stroke:#000000;stroke-width:0.625" />
<g transform="rotate(90)">
<text x="336.05" y="14.399" transform="scale(1, -1)"
	style="font-family:Helvetica;font-weight:normal;font-style:normal;font-size:12pt">Throughput</text>
</g>
<text x="47.404" y="-42.186" transform="scale(1, -1)"
	style="font-family:Helvetica;font-weight:normal;font-style:normal;font-size:10pt">0</text>
<text x="19.248" y="-183.14" transform="scale(1, -1)"
	style="font-family:Helvetica;font-weight:normal;font-style:normal;font-size:10pt">1e+04</text>
<text x="19.248" y="-324.09" transform="scale(1, -1)"
	style="font-family:Helvetica;font-weight:normal;font-style:normal;font-size:10pt">2e+04</text>
<text x="19.248" y="-465.04" transform="scale(1, -1)"
	style="font-family:Helvetica;font-weight:normal;font-style:normal;font-size:10pt">3e+04</text>
<text x="19.248" y="-605.99" transform="scale(1, -1)"
	style="font-family:Helvetica;font-weight:normal;font-style:normal;font-size:10pt">4e+04</text>
<path d="M57.828,48.06L67.828,48.06" style="fill:none;stroke:#000000;stroke-width:0.625" />
<path d="M57.828,189.01L67.828,189.01" style="fill:none;stroke:#000000;stroke-width:0.625" />
<path d="M57.828,329.96L67.828,329.96" style="fill:none;stroke:#000000;stroke-width:0.625" />
<path d="M57.828,470.92L67.828,470.92" style="fill:none;stroke:#000000;stroke-width:0.625" />
<path d="M57.828,611.87L67.828,611.87" style="fill:none;stroke:#000000;stroke-width:0.625" />
<path d="M62.828,118.54L67.828,118.54" style="fill:none;stroke:#000000;stroke-width:0.625" />
<path d="M62.828,259.49L67.828,259.49" style="fill:none;stroke:#000000;stroke-width:0.625" />
<path d="M62.828,400.44L67.828,400.44" style="fill:none;stroke:#000000;stroke-width:0.625" />
<path d="M62.828,541.39L67.828,541.39" style="fill:none;stroke:#000000;stroke-width:0.625" />
<path d="M62.828,682.34L67.828,682.34" style="fill:none;stroke:#000000;stroke-width:0.625" />
<path d="M67.828,48.06L67.828,700.75" style="fill:none;stroke:#000000;stroke-width:0.625" />
<path d="M75.085,108.42L86.008,271.5L96.931,400.17L107.85,510.82L118.78,569.19L129.7,643.98L140.62,620.86L151.55,607.78L162.47,616.63L173.39,600.76L184.32,585.34L195.24,314.47L206.16,315.87L217.08,634.24L228.01,588.05L238.93,608.1L249.85,416.11L260.78,394.15L271.7,700.75L282.62,469.28L293.55,196.34L304.47,647.02L315.39,654.29L326.31,638.28L337.24,477.27L348.16,600.56L359.08,580.18L370.01,627.13L380.93,666.53L391.85,48.06L402.77,278.09L413.7,93.08L424.62,230.75L435.54,662.92L446.47,547.62L457.39,605.07L468.31,481.33L479.24,653.52L490.16,599.37L501.08,544.2L512,74.052L522.93,76.335L533.85,62.367L544.77,76.265L555.7,48.074L566.62,48.06L577.54,48.06L588.47,48.06L599.39,48.06L610.31,48.06L621.23,48.06L632.16,48.06L643.08,48.06L654,48.06L664.93,48.06L675.85,48.06L686.77,48.06L697.7,48.06L708.62,48.06L719.54,48.06L730.46,48.06L741.39,358.03L752.31,125.23L763.23,655.15L774.16,602.51L785.08,538.21L796,645.56L806.93,388.6L817.85,95.307L828.77,336.25L839.69,48.088L850.62,48.06L861.54,48.06L872.46,48.06L883.39,48.06L894.31,48.06L905.23,48.06L916.16,48.06L927.08,229.59L938,533.79L948.92,442.03L959.85,645.54L970.77,608.77L981.69,481.32L992.62,48.06L1003.5,57.462L1014.5,660.27L1025.4,564.54L1036.3,595.43L1047.2,645.75L1058.2,604.59L1069.1,694.45L1080,473.14" style="fill:none;stroke:#F15A60;stroke-width:1.875" />
<path d="M75.085,350.81L86.008,636.75L96.931,548.13L107.85,597.66L118.78,571.56L129.7,586.62L140.62,577.29L151.55,572.71L162.47,568.54L173.39,561.72L184.32,565.28L195.24,568.05L206.16,562.44L217.08,578.53L228.01,554.88L238.93,569.03L249.85,549.4L260.78,579.39L271.7,578.57L282.62,556.56L293.55,575.94L304.47,567.4L315.39,542.89L326.31,544.35L337.24,566.59L348.16,547.34L359.08,531.72L370.01,549.07L380.93,520.14L391.85,493.91L402.77,564.94L413.7,542.65L424.62,484.12L435.54,593.74L446.47,563.87L457.39,539.01L468.31,515.44L479.24,539.05L490.16,561.93L501.08,550.26L512,544.28L522.93,571.94L533.85,568.89L544.77,547.35L555.7,529.61L566.62,544.13L577.54,554.33L588.47,570.5L599.39,527.34L610.31,525.44L621.23,546.44L632.16,522.39L643.08,515.27L654,614.26L664.93,533.06L675.85,502.88" style="fill:none;stroke:#7AC36A;stroke-width:1.875;stroke-dasharray:7.5,2.5" />
<path d="M75.085,154.14L86.008,585.76L96.931,549.78L107.85,526L118.78,530.74L129.7,512.93L140.62,522L151.55,504.93L162.47,523.32L173.39,491L184.32,496.34L195.24,517.82L206.16,502.36L217.08,501.52L228.01,508.35L238.93,501.76L249.85,516.13L260.78,482.16L271.7,502.08L282.62,501.57L293.55,502.52L304.47,497.39L315.39,503.12L326.31,483.31L337.24,472.58L348.16,481.01L359.08,486.62L370.01,524.66L380.93,474.14L391.85,495.19L402.77,494.16L413.7,463.47L424.62,512.06L435.54,521.53L446.47,452.9L457.39,509.87L468.31,517.92L479.24,507.65L490.16,488.97L501.08,493.45L512,467.46L522.93,523.46L533.85,501.05L544.77,503.12L555.7,487.03L566.62,489.93L577.54,491.69L588.47,500.08L599.39,486.55L610.31,528.35L621.23,515.16L632.16,481.63L643.08,460.64L654,518.06L664.93,468.66L675.85,495.7L686.77,574.63L697.7,469.93L708.62,502.5L719.54,466.76L730.46,483.11L741.39,575.38" style="fill:none;stroke:#5A9BD4;stroke-width:1.875;stroke-dasharray:2.5,2.5" />
<path d="M1055,693.4L1080,693.4" style="fill:none;stroke:#F15A60;stroke-width:1.875" />
<text x="875.74" y="-686.35" transform="scale(1, -1)"
	style="font-family:Helvetica;font-weight:normal;font-style:normal;font-size:12pt">Zookeeper v3.4.8 (Java 8)</text>
<path d="M1055,678.7L1080,678.7" style="fill:none;stroke:#7AC36A;stroke-width:1.875;stroke-dasharray:7.5,2.5" />
<text x="944.13" y="-671.65" transform="scale(1, -1)"
	style="font-family:Helvetica;font-weight:normal;font-style:normal;font-size:12pt">etcd v3 (Go Tip)</text>
<path d="M1055,664L1080,664" style="fill:none;stroke:#5A9BD4;stroke-width:1.875;stroke-dasharray:2.5,2.5" />
<text x="943.28" y="-656.95" transform="scale(1, -1)"
	style="font-family:Helvetica;font-weight:normal;font-style:normal;font-size:12pt">etcd v3 (Go 1.6)</text>
</g>
</svg>
