<?xml version="1.0"?>
<!-- Generated by SVGo and Plotinum VG -->
<svg width="12in" height="8in"
	xmlns="http://www.w3.org/2000/svg"
	xmlns:xlink="http://www.w3.org/1999/xlink">
<g transform="scale(1, -1) translate(0, -720)">
<path d="M0,0L1080,0L1080,720L0,720Z" style="fill:#FFFFFF" />
<text x="253.18" y="-705.6" transform="scale(1, -1)"
	style="font-family:Helvetica;font-weight:normal;font-style:normal;font-size:12pt">Write 2M keys, 1000-client (etcd v3 100-conn), 8-byte key, 256-byte value, Throughput</text>
<text x="551.86" y="-4.8486" transform="scale(1, -1)"
	style="font-family:Helvetica;font-weight:normal;font-style:normal;font-size:12pt">Second</text>
<text x="71.609" y="-19.498" transform="scale(1, -1)"
	style="font-family:Helvetica;font-weight:normal;font-style:normal;font-size:10pt">0</text>
<text x="396.15" y="-19.498" transform="scale(1, -1)"
	style="font-family:Helvetica;font-weight:normal;font-style:normal;font-size:10pt">100</text>
<text x="727.65" y="-19.498" transform="scale(1, -1)"
	style="font-family:Helvetica;font-weight:normal;font-style:normal;font-size:10pt">200</text>
<text x="1059.1" y="-19.498" transform="scale(1, -1)"
	style="font-family:Helvetica;font-weight:normal;font-style:normal;font-size:10pt">300</text>
<path d="M75.085,31.498L75.085,41.498" style="fill:none;stroke:#000000;stroke-width:0.625" />
<path d="M406.58,31.498L406.58,41.498" style="fill:none;stroke:#000000;stroke-width:0.625" />
<path d="M738.08,31.498L738.08,41.498" style="fill:none;stroke:#000000;stroke-width:0.625" />
<path d="M1069.6,31.498L1069.6,41.498" style="fill:none;stroke:#000000;stroke-width:0.625" />
<path d="M240.83,36.498L240.83,41.498" style="fill:none;stroke:#000000;stroke-width:0.625" />
<path d="M572.33,36.498L572.33,41.498" style="fill:none;stroke:#000000;stroke-width:0.625" />
<path d="M903.82,36.498L903.82,41.498" style="fill:none;stroke:#000000;stroke-width:0.625" />
<path d="M75.085,41.498L1079.5,41.498" style="fill:none;stroke:#000000;stroke-width:0.625" />
<g transform="rotate(90)">
<text x="336.05" y="14.399" transform="scale(1, -1)"
	style="font-family:Helvetica;font-weight:normal;font-style:normal;font-size:12pt">Throughput</text>
</g>
<text x="47.404" y="-42.186" transform="scale(1, -1)"
	style="font-family:Helvetica;font-weight:normal;font-style:normal;font-size:10pt">0</text>
<text x="19.248" y="-175.15" transform="scale(1, -1)"
	style="font-family:Helvetica;font-weight:normal;font-style:normal;font-size:10pt">1e+04</text>
<text x="19.248" y="-308.11" transform="scale(1, -1)"
	style="font-family:Helvetica;font-weight:normal;font-style:normal;font-size:10pt">2e+04</text>
<text x="19.248" y="-441.07" transform="scale(1, -1)"
	style="font-family:Helvetica;font-weight:normal;font-style:normal;font-size:10pt">3e+04</text>
<text x="19.248" y="-574.03" transform="scale(1, -1)"
	style="font-family:Helvetica;font-weight:normal;font-style:normal;font-size:10pt">4e+04</text>
<path d="M57.828,48.06L67.828,48.06" style="fill:none;stroke:#000000;stroke-width:0.625" />
<path d="M57.828,181.02L67.828,181.02" style="fill:none;stroke:#000000;stroke-width:0.625" />
<path d="M57.828,313.98L67.828,313.98" style="fill:none;stroke:#000000;stroke-width:0.625" />
<path d="M57.828,446.94L67.828,446.94" style="fill:none;stroke:#000000;stroke-width:0.625" />
<path d="M57.828,579.9L67.828,579.9" style="fill:none;stroke:#000000;stroke-width:0.625" />
<path d="M62.828,114.54L67.828,114.54" style="fill:none;stroke:#000000;stroke-width:0.625" />
<path d="M62.828,247.5L67.828,247.5" style="fill:none;stroke:#000000;stroke-width:0.625" />
<path d="M62.828,380.46L67.828,380.46" style="fill:none;stroke:#000000;stroke-width:0.625" />
<path d="M62.828,513.42L67.828,513.42" style="fill:none;stroke:#000000;stroke-width:0.625" />
<path d="M62.828,646.38L67.828,646.38" style="fill:none;stroke:#000000;stroke-width:0.625" />
<path d="M67.828,48.06L67.828,700.75" style="fill:none;stroke:#000000;stroke-width:0.625" />
<path d="M75.085,142.54L78.4,317.11L81.715,244.98L85.03,531.98L88.345,604.12L91.66,553.62L94.975,582.11L98.29,585.02L101.61,626.4L104.92,618.16L108.24,350.03L111.55,322.46L114.86,534.4L118.18,632.97L121.49,652.77L124.81,419.71L128.12,481.95L131.44,700.75L134.75,263.08L138.07,466.24L141.38,661.32L144.7,615.87L148.01,635.73L151.33,530.91L154.64,603.66L157.96,635.02L161.27,661.87L164.59,48.06L167.9,100.13L171.22,48.06L174.53,463.08L177.85,68.909L181.16,62.114L184.48,72.831L187.79,62.952L191.11,55.692L194.42,53.871L197.74,48.06L201.05,48.06L204.37,48.06L207.68,48.06L211,48.06L214.31,48.06L217.63,48.06L220.94,48.06L224.26,48.06L227.57,48.06L230.89,48.06L234.2,48.06L237.52,48.06L240.83,48.06L244.15,48.06L247.46,48.06L250.78,48.06L254.09,145.79L257.41,571.94L260.72,591.76L264.04,597.41L267.35,596.31L270.67,591.54L273.98,486.86L277.3,302.76L280.61,287.2L283.93,346.42L287.24,57.088L290.56,48.06L293.87,206.56L297.19,600.91L300.5,603.93L303.82,515.03L307.13,675.16L310.45,410.42L313.76,138.22L317.08,48.06L320.39,120.76L323.71,113.46L327.02,48.06L330.34,48.06L333.65,48.06L336.97,48.06L340.28,48.06L343.6,48.06L346.91,48.06L350.23,48.06L353.54,48.06L356.86,48.06L360.17,48.06L363.49,48.06L366.8,48.06L370.12,48.06L373.43,48.06L376.75,48.06L380.06,48.06L383.38,48.06L386.69,48.06L390.01,48.06L393.32,48.06L396.64,48.06L399.95,48.06L403.27,48.06L406.58,48.06L409.9,48.06L413.21,48.06L416.53,48.06L419.84,48.06L423.16,48.06L426.47,48.06L429.79,48.06L433.1,48.06L436.42,48.06L439.73,48.06L443.05,48.06L446.36,48.06L449.68,48.06L452.99,48.06L456.31,48.06L459.62,48.06L462.94,48.06L466.25,48.06L469.57,48.06L472.88,48.06L476.2,48.06L479.51,48.06L482.82,48.06L486.14,48.06L489.45,48.06L492.77,48.06L496.08,48.06L499.4,48.06L502.71,48.06L506.03,48.06L509.34,48.06L512.66,48.06L515.97,48.06L519.29,48.06L522.6,48.06L525.92,48.06L529.23,48.06L532.55,48.06L535.86,48.06L539.18,48.06L542.49,48.06L545.81,48.06L549.12,97.801L552.44,469.33L555.75,299.68L559.07,48.06L562.38,51.039L565.7,347.04L569.01,128.44L572.33,48.06L575.64,50.188L578.96,48.06L582.27,48.06L585.59,48.06L588.9,48.06L592.22,48.06L595.53,48.06L598.85,48.06L602.16,48.06L605.48,48.06L608.79,48.06L612.11,48.06L615.42,48.06L618.74,48.06L622.05,48.06L625.37,48.06L628.68,48.06L632,48.06L635.31,48.06L638.63,48.06L641.94,48.06L645.26,48.06L648.57,48.06L651.89,48.06L655.2,48.06L658.52,48.06L661.83,48.06L665.15,48.06L668.46,48.06L671.78,48.06L675.09,48.06L678.41,48.06L681.72,139.2L685.04,548.59L688.35,523.04L691.67,546.8L694.98,470.42L698.3,532.97L701.61,222.28L704.93,56.384L708.24,48.06L711.56,48.06L714.87,48.06L718.19,48.06L721.5,48.06L724.82,48.06L728.13,48.06L731.45,48.06L734.76,48.06L738.08,48.06L741.39,48.06L744.71,48.06L748.02,48.06L751.34,48.06L754.65,48.06L757.97,48.06L761.28,48.06L764.6,48.06L767.91,48.06L771.23,48.06L774.54,48.06L777.86,48.06L781.17,48.06L784.49,48.06L787.8,48.06L791.12,48.06L794.43,48.06L797.75,48.06L801.06,48.06L804.38,48.06L807.69,48.06L811.01,48.06L814.32,48.06L817.64,48.06L820.95,48.06L824.27,48.06L827.58,48.06L830.9,48.06L834.21,48.06L837.53,48.06L840.84,48.06L844.16,48.06L847.47,48.06L850.79,48.06L854.1,48.06L857.41,48.06L860.73,48.06L864.04,48.06L867.36,48.06L870.67,48.06L873.99,48.06L877.3,48.06L880.62,48.06L883.93,48.06L887.25,48.06L890.56,48.06L893.88,48.06L897.19,48.06L900.51,48.06L903.82,48.06L907.14,48.06L910.45,48.06L913.77,48.06L917.08,48.06L920.4,48.06L923.71,48.06L927.03,48.06L930.34,48.06L933.66,114.35L936.97,614.06L940.29,468.63L943.6,59.375L946.92,57.009L950.23,48.06L953.55,48.06L956.86,48.06L960.18,48.06L963.49,48.06L966.81,48.06L970.12,48.06L973.44,48.06L976.75,48.06L980.07,48.06L983.38,48.06L986.7,48.06L990.01,48.06L993.33,48.06L996.64,48.06L999.96,48.06L1003.3,48.06L1006.6,48.06L1009.9,48.06L1013.2,48.06L1016.5,48.06L1019.8,48.06L1023.2,48.06L1026.5,48.06L1029.8,48.06L1033.1,48.06L1036.4,48.06L1039.7,48.06L1043.1,48.06L1046.4,48.06L1049.7,48.06L1053,48.06L1056.3,48.06L1059.6,48.06L1062.9,48.06L1066.3,48.06L1069.6,48.06L1072.9,48.06L1076.2,220.43L1079.5,286.67" style="fill:none;stroke:#F15A60;stroke-width:1.875" />
<path d="M75.085,251.8L78.4,351.22L81.715,306.95L85.03,557.93L88.345,544.6L91.66,581.21L94.975,547.59L98.29,563.68L101.61,588.21L104.92,610.95L108.24,411.32L111.55,408.73L114.86,267.23L118.18,598.51L121.49,569.96L124.81,596.52L128.12,250.08L131.44,417.2L134.75,643.38L138.07,430.89L141.38,114.58L144.7,607.59L148.01,598.64L151.33,580.14L154.64,533.02L157.96,611.85L161.27,510.51L164.59,654.48L167.9,562.11L171.22,48.06L174.53,338.34L177.85,48.06L181.16,233.54L184.48,605.94L187.79,538.98L191.11,558.8L194.42,394.92L197.74,567.78L201.05,144.39L204.37,74.679L207.68,74.719L211,61.37L214.31,48.06L217.63,61.356L220.94,48.113L224.26,48.06L227.57,48.06L230.89,48.06L234.2,48.06L237.52,48.06L240.83,48.06L244.15,48.06L247.46,48.06L250.78,48.06L254.09,48.06L257.41,48.06L260.72,48.06L264.04,48.06L267.35,48.06L270.67,48.06L273.98,56.995L277.3,598.9L280.61,582.88L283.93,547.71L287.24,558.52L290.56,544.18L293.87,592.35L297.19,630.52L300.5,63.524L303.82,104.78L307.13,48.06L310.45,48.06L313.76,48.06L317.08,48.06L320.39,48.06L323.71,48.06L327.02,48.06L330.34,48.06L333.65,93.533L336.97,430.99L340.28,48.06L343.6,340.61L346.91,439.91L350.23,518.58L353.54,537.04L356.86,587.46L360.17,92.815L363.49,48.06L366.8,404.04L370.12,539.07L373.43,586.46L376.75,615.84L380.06,514.5L383.38,335.54L386.69,218.37L390.01,74.679L393.32,48.06L396.64,61.356L399.95,48.06L403.27,48.14L406.58,48.06L409.9,48.06L413.21,48.06L416.53,48.06L419.84,48.06L423.16,48.06L426.47,48.06L429.79,48.06L433.1,48.06L436.42,48.06L439.73,48.06L443.05,48.06L446.36,48.06L449.68,48.06L452.99,48.06L456.31,48.06L459.62,48.06L462.94,48.06L466.25,48.06L469.57,48.06L472.88,48.06L476.2,48.06L479.51,48.06L482.82,48.06L486.14,48.06L489.45,48.06L492.77,48.06L496.08,48.06L499.4,48.06L502.71,48.06L506.03,48.06L509.34,48.06L512.66,48.06L515.97,48.06L519.29,301.43L522.6,428.33L525.92,282.48" style="fill:none;stroke:#7AC36A;stroke-width:1.875;stroke-dasharray:7.5,2.5" />
<path d="M75.085,333.65L78.4,603.37L81.715,519.78L85.03,566.5L88.345,541.88L91.66,556.09L94.975,547.29L98.29,542.97L101.61,539.03L104.92,532.6L108.24,535.96L111.55,538.57L114.86,533.27L118.18,548.46L121.49,526.15L124.81,539.5L128.12,520.98L131.44,549.27L134.75,548.5L138.07,527.73L141.38,546.01L144.7,537.95L148.01,514.83L151.33,516.22L154.64,537.2L157.96,519.03L161.27,504.3L164.59,520.67L167.9,493.37L171.22,468.63L174.53,535.64L177.85,514.61L181.16,459.4L184.48,562.81L187.79,534.63L191.11,511.18L194.42,488.95L197.74,511.22L201.05,532.8L204.37,521.79L207.68,516.15L211,542.24L214.31,539.36L217.63,519.05L220.94,502.31L224.26,516L227.57,525.63L230.89,540.88L234.2,500.17L237.52,498.37L240.83,518.18L244.15,495.5L247.46,488.79L250.78,582.16L254.09,505.57L257.41,477.1" style="fill:none;stroke:#5A9BD4;stroke-width:1.875;stroke-dasharray:2.5,2.5" />
<path d="M1055,693.4L1080,693.4" style="fill:none;stroke:#F15A60;stroke-width:1.875" />
<text x="804.02" y="-686.35" transform="scale(1, -1)"
	style="font-family:Helvetica;font-weight:normal;font-style:normal;font-size:12pt">Zookeeper v3.4.8 (Java 8, Snap 10k)</text>
<path d="M1055,678.7L1080,678.7" style="fill:none;stroke:#7AC36A;stroke-width:1.875;stroke-dasharray:7.5,2.5" />
<text x="795.68" y="-671.65" transform="scale(1, -1)"
	style="font-family:Helvetica;font-weight:normal;font-style:normal;font-size:12pt">Zookeeper v3.4.8 (Java 8, Snap 100k)</text>
<path d="M1055,664L1080,664" style="fill:none;stroke:#5A9BD4;stroke-width:1.875;stroke-dasharray:2.5,2.5" />
<text x="944.13" y="-656.95" transform="scale(1, -1)"
	style="font-family:Helvetica;font-weight:normal;font-style:normal;font-size:12pt">etcd v3 (Go Tip)</text>
</g>
</svg>
