<?xml version="1.0"?>
<!-- Generated by SVGo and Plotinum VG -->
<svg width="12in" height="8in"
	xmlns="http://www.w3.org/2000/svg"
	xmlns:xlink="http://www.w3.org/1999/xlink">
<g transform="scale(1, -1) translate(0, -720)">
<path d="M0,0L1080,0L1080,720L0,720Z" style="fill:#FFFFFF" />
<text x="248.08" y="-705.6" transform="scale(1, -1)"
	style="font-family:Helvetica;font-weight:normal;font-style:normal;font-size:12pt">Write 2M keys, 1000-client (etcd v3 100-conn), 8-byte key, 256-byte value, Memory(MB)</text>
<text x="548.46" y="-4.8486" transform="scale(1, -1)"
	style="font-family:Helvetica;font-weight:normal;font-style:normal;font-size:12pt">Second</text>
<text x="64.31" y="-19.498" transform="scale(1, -1)"
	style="font-family:Helvetica;font-weight:normal;font-style:normal;font-size:10pt">0</text>
<text x="394.53" y="-19.498" transform="scale(1, -1)"
	style="font-family:Helvetica;font-weight:normal;font-style:normal;font-size:10pt">30</text>
<text x="728.23" y="-19.498" transform="scale(1, -1)"
	style="font-family:Helvetica;font-weight:normal;font-style:normal;font-size:10pt">60</text>
<text x="1061.9" y="-19.498" transform="scale(1, -1)"
	style="font-family:Helvetica;font-weight:normal;font-style:normal;font-size:10pt">90</text>
<path d="M67.786,31.498L67.786,41.498" style="fill:none;stroke:#000000;stroke-width:0.625" />
<path d="M401.48,31.498L401.48,41.498" style="fill:none;stroke:#000000;stroke-width:0.625" />
<path d="M735.18,31.498L735.18,41.498" style="fill:none;stroke:#000000;stroke-width:0.625" />
<path d="M1068.9,31.498L1068.9,41.498" style="fill:none;stroke:#000000;stroke-width:0.625" />
<path d="M179.02,36.498L179.02,41.498" style="fill:none;stroke:#000000;stroke-width:0.625" />
<path d="M290.25,36.498L290.25,41.498" style="fill:none;stroke:#000000;stroke-width:0.625" />
<path d="M512.72,36.498L512.72,41.498" style="fill:none;stroke:#000000;stroke-width:0.625" />
<path d="M623.95,36.498L623.95,41.498" style="fill:none;stroke:#000000;stroke-width:0.625" />
<path d="M846.41,36.498L846.41,41.498" style="fill:none;stroke:#000000;stroke-width:0.625" />
<path d="M957.64,36.498L957.64,41.498" style="fill:none;stroke:#000000;stroke-width:0.625" />
<path d="M67.786,41.498L1080,41.498" style="fill:none;stroke:#000000;stroke-width:0.625" />
<g transform="rotate(90)">
<text x="331.08" y="14.399" transform="scale(1, -1)"
	style="font-family:Helvetica;font-weight:normal;font-style:normal;font-size:12pt">Memory(MB)</text>
</g>
<text x="26.2" y="-245.5" transform="scale(1, -1)"
	style="font-family:Helvetica;font-weight:normal;font-style:normal;font-size:10pt">800</text>
<text x="19.248" y="-453.52" transform="scale(1, -1)"
	style="font-family:Helvetica;font-weight:normal;font-style:normal;font-size:10pt">1600</text>
<text x="19.248" y="-661.55" transform="scale(1, -1)"
	style="font-family:Helvetica;font-weight:normal;font-style:normal;font-size:10pt">2400</text>
<path d="M50.529,251.37L60.529,251.37" style="fill:none;stroke:#000000;stroke-width:0.625" />
<path d="M50.529,459.4L60.529,459.4" style="fill:none;stroke:#000000;stroke-width:0.625" />
<path d="M50.529,667.43L60.529,667.43" style="fill:none;stroke:#000000;stroke-width:0.625" />
<path d="M55.529,147.36L60.529,147.36" style="fill:none;stroke:#000000;stroke-width:0.625" />
<path d="M55.529,355.38L60.529,355.38" style="fill:none;stroke:#000000;stroke-width:0.625" />
<path d="M55.529,563.41L60.529,563.41" style="fill:none;stroke:#000000;stroke-width:0.625" />
<path d="M60.529,48.06L60.529,700.75" style="fill:none;stroke:#000000;stroke-width:0.625" />
<path d="M67.786,58.21L78.909,79.621L90.032,93.096L101.16,120.99L112.28,148.11L123.4,177.5L134.53,230.69L145.65,257.63L156.77,271.09L167.89,300.06L179.02,335.52L190.14,375.02L201.26,396L212.39,396.57L223.51,399L234.63,416.51L245.76,478.85L256.88,487.79L268,488.31L279.13,488.31L290.25,509.7L301.37,509.84L312.5,509.77L323.62,511.06L334.74,519.27L345.87,527.17L356.99,527.17L368.11,536.16L379.24,536.16L390.36,546.87L401.48,547.18L412.61,571.12L423.73,577.41L434.85,577.66L445.98,577.71L457.1,577.71L468.22,576.06L479.35,576.06L490.47,577.44L501.59,577.86L512.72,577.86L523.84,577.86L534.96,577.86L546.08,577.86L557.21,577.86L568.33,577.86L579.45,577.89L590.58,577.91L601.7,578.21L612.82,578.26L623.95,578.4L635.07,578.47L646.19,578.43L657.32,578.35L668.44,578.26L679.56,578.26L690.69,578.26L701.81,578.26L712.93,578.26L724.06,582.98L735.18,583.71L746.3,583.89L757.43,585.2L768.55,590.18L779.67,590.39L790.8,590.23L801.92,603.02L813.04,607.26L824.17,608.05L835.29,657.85L846.41,657.9L857.54,657.9L868.66,657.92L879.78,659.18L890.91,659.24L902.03,659.24L913.15,659.24L924.27,659.24L935.4,659.42L946.52,660.87L957.64,662.2L968.77,672.8L979.89,677.78L991.01,675.81L1002.1,682.47L1013.3,693.93L1024.4,700.58L1035.5,700.75L1046.6,699.78L1057.8,694.5L1068.9,693.26L1080,691.91" style="fill:none;stroke:#F15A60;stroke-width:1.875" />
<path d="M67.786,48.06L78.909,62.071L90.032,65.626L101.16,68.806L112.28,72.244L123.4,76.233L134.53,79.423L145.65,83.987L156.77,86.317L167.89,89.586L179.02,93.855L190.14,96.932L201.26,100.99L212.39,104.51L223.51,106.86L234.63,110.8L245.76,114.62L256.88,117.74L268,120.35L279.13,124.21L290.25,129.15L301.37,132.12L312.5,135.49L323.62,137.78L334.74,141.5L345.87,145.42L356.99,150.09L368.11,152.74L379.24,154.75L390.36,158.86L401.48,162.44L412.61,165.53L423.73,168.82L434.85,173.23L445.98,174.82L457.1,178.81L468.22,182.32L479.35,185.73L490.47,188.54L501.59,191.8L512.72,194.37L523.84,197.39L534.96,201.56L546.08,205.62L557.21,209.97L568.33,212.41L579.45,215.47L590.58,217.75L601.7,222.96L612.82,225.89L623.95,229.3L635.07,232.27L646.19,234.52L657.32,238.28L668.44,241.4" style="fill:none;stroke:#7AC36A;stroke-width:1.875;stroke-dasharray:7.5,2.5" />
<path d="M1055,693.4L1080,693.4" style="fill:none;stroke:#F15A60;stroke-width:1.875" />
<text x="875.74" y="-686.35" transform="scale(1, -1)"
	style="font-family:Helvetica;font-weight:normal;font-style:normal;font-size:12pt">Zookeeper v3.4.8 (Java 8)</text>
<path d="M1055,678.7L1080,678.7" style="fill:none;stroke:#7AC36A;stroke-width:1.875;stroke-dasharray:7.5,2.5" />
<text x="944.13" y="-671.65" transform="scale(1, -1)"
	style="font-family:Helvetica;font-weight:normal;font-style:normal;font-size:12pt">etcd v3 (Go Tip)</text>
</g>
</svg>
