<?xml version="1.0"?>
<!-- Generated by SVGo and Plotinum VG -->
<svg width="12in" height="8in"
	xmlns="http://www.w3.org/2000/svg"
	xmlns:xlink="http://www.w3.org/1999/xlink">
<g transform="scale(1, -1) translate(0, -720)">
<path d="M0,0L1080,0L1080,720L0,720Z" style="fill:#FFFFFF" />
<text x="248.08" y="-705.6" transform="scale(1, -1)"
	style="font-family:Helvetica;font-weight:normal;font-style:normal;font-size:12pt">Write 2M keys, 1000-client (etcd v3 100-conn), 8-byte key, 256-byte value, Memory(MB)</text>
<text x="548.46" y="-4.8486" transform="scale(1, -1)"
	style="font-family:Helvetica;font-weight:normal;font-style:normal;font-size:12pt">Second</text>
<text x="64.31" y="-19.498" transform="scale(1, -1)"
	style="font-family:Helvetica;font-weight:normal;font-style:normal;font-size:10pt">0</text>
<text x="360.75" y="-19.498" transform="scale(1, -1)"
	style="font-family:Helvetica;font-weight:normal;font-style:normal;font-size:10pt">40</text>
<text x="660.66" y="-19.498" transform="scale(1, -1)"
	style="font-family:Helvetica;font-weight:normal;font-style:normal;font-size:10pt">80</text>
<text x="957.1" y="-19.498" transform="scale(1, -1)"
	style="font-family:Helvetica;font-weight:normal;font-style:normal;font-size:10pt">120</text>
<path d="M67.786,31.498L67.786,41.498" style="fill:none;stroke:#000000;stroke-width:0.625" />
<path d="M367.7,31.498L367.7,41.498" style="fill:none;stroke:#000000;stroke-width:0.625" />
<path d="M667.62,31.498L667.62,41.498" style="fill:none;stroke:#000000;stroke-width:0.625" />
<path d="M967.53,31.498L967.53,41.498" style="fill:none;stroke:#000000;stroke-width:0.625" />
<path d="M217.74,36.498L217.74,41.498" style="fill:none;stroke:#000000;stroke-width:0.625" />
<path d="M517.66,36.498L517.66,41.498" style="fill:none;stroke:#000000;stroke-width:0.625" />
<path d="M817.57,36.498L817.57,41.498" style="fill:none;stroke:#000000;stroke-width:0.625" />
<path d="M67.786,41.498L1080,41.498" style="fill:none;stroke:#000000;stroke-width:0.625" />
<g transform="rotate(90)">
<text x="331.08" y="14.399" transform="scale(1, -1)"
	style="font-family:Helvetica;font-weight:normal;font-style:normal;font-size:12pt">Memory(MB)</text>
</g>
<text x="26.2" y="-231.25" transform="scale(1, -1)"
	style="font-family:Helvetica;font-weight:normal;font-style:normal;font-size:10pt">800</text>
<text x="19.248" y="-424.71" transform="scale(1, -1)"
	style="font-family:Helvetica;font-weight:normal;font-style:normal;font-size:10pt">1600</text>
<text x="19.248" y="-618.17" transform="scale(1, -1)"
	style="font-family:Helvetica;font-weight:normal;font-style:normal;font-size:10pt">2400</text>
<path d="M50.529,237.13L60.529,237.13" style="fill:none;stroke:#000000;stroke-width:0.625" />
<path d="M50.529,430.59L60.529,430.59" style="fill:none;stroke:#000000;stroke-width:0.625" />
<path d="M50.529,624.04L60.529,624.04" style="fill:none;stroke:#000000;stroke-width:0.625" />
<path d="M55.529,140.4L60.529,140.4" style="fill:none;stroke:#000000;stroke-width:0.625" />
<path d="M55.529,333.86L60.529,333.86" style="fill:none;stroke:#000000;stroke-width:0.625" />
<path d="M55.529,527.31L60.529,527.31" style="fill:none;stroke:#000000;stroke-width:0.625" />
<path d="M60.529,48.06L60.529,700.75" style="fill:none;stroke:#000000;stroke-width:0.625" />
<path d="M67.786,80.607L75.284,97.917L82.781,116.57L90.279,142.18L97.777,169.5L105.28,217.06L112.77,241.83L120.27,253.84L127.77,274.39L135.27,313.28L142.76,351.81L150.26,361.39L157.76,370.8L165.26,370.8L172.76,374.27L180.25,430.73L187.75,448.13L195.25,456.29L202.75,456.4L210.25,456.4L217.74,473.15L225.24,476.64L232.74,476.64L240.24,477.76L247.73,484.86L255.23,492.3L262.73,492.3L270.23,501.56L277.73,501.56L285.22,511.3L292.72,511.76L300.22,528.34L307.72,539.69L315.22,539.91L322.71,539.92L330.21,539.92L337.71,537.61L345.21,537.62L352.71,537.62L360.2,537.62L367.7,537.62L375.2,537.62L382.7,537.62L390.19,537.62L397.69,537.63L405.19,537.63L412.69,537.65L420.19,537.67L427.68,537.7L435.18,537.68L442.68,537.7L450.18,537.72L457.68,537.69L465.17,538.22L472.67,538.41L480.17,538.73L487.67,538.91L495.17,538.88L502.66,538.93L510.16,538.88L517.66,540.08L525.16,540.48L532.65,549.23L540.15,554.47L547.65,557.55L555.15,557.92L562.65,562.3L570.14,562.65L577.64,568.09L585.14,574.01L592.64,574.2L600.14,575.52L607.63,575.55L615.13,576.26L622.63,575.09L630.13,574.91L637.62,574.91L645.12,574.91L652.62,574.91L660.12,576.29L667.62,589.16L675.11,589.06L682.61,589.11L690.11,589.74L697.61,602.01L705.11,611.19L712.6,622.58L720.1,631.98L727.6,639.76L735.1,639.51L742.6,641.37L750.09,640.61L757.59,636.37L765.09,634.11L772.59,634.22L780.08,634.22L787.58,634.22L795.08,634.22L802.58,634.22L810.08,634.22L817.57,634.22L825.07,634.22L832.57,634.22L840.07,634.22L847.57,634.22L855.06,634.22L862.56,634.22L870.06,634.17L877.56,631.74L885.06,629.39L892.55,629.42L900.05,629.43L907.55,629.43L915.05,658.72L922.54,658.75L930.04,670.04L937.54,670.04L945.04,670.22L952.54,677.49L960.03,680.41L967.53,696.05L975.03,700.75L982.53,637.62L990.03,637.83L997.52,638.34L1005,638.85L1012.5,638.85L1020,638.85L1027.5,638.85L1035,638.36L1042.5,638.36L1050,638.61L1057.5,638.76L1065,638.5L1072.5,640.54L1080,644.69" style="fill:none;stroke:#F15A60;stroke-width:1.875" />
<path d="M67.786,48.06L75.284,61.09L82.781,64.395L90.279,67.353L97.777,70.55L105.28,74.259L112.77,77.226L120.27,81.47L127.77,83.637L135.27,86.677L142.76,90.648L150.26,93.508L157.76,97.283L165.26,100.55L172.76,102.74L180.25,106.4L187.75,109.95L195.25,112.86L202.75,115.29L210.25,118.88L217.74,123.47L225.24,126.23L232.74,129.37L240.24,131.49L247.73,134.95L255.23,138.6L262.73,142.94L270.23,145.41L277.73,147.27L285.22,151.1L292.72,154.43L300.22,157.3L307.72,160.36L315.22,164.46L322.71,165.94L330.21,169.65L337.71,172.92L345.21,176.09L352.71,178.7L360.2,181.73L367.7,184.12L375.2,186.93L382.7,190.81L390.19,194.59L397.69,198.63L405.19,200.9L412.69,203.74L420.19,205.87L427.68,210.71L435.18,213.44L442.68,216.61L450.18,219.37L457.68,221.46L465.17,224.96L472.67,227.86" style="fill:none;stroke:#7AC36A;stroke-width:1.875;stroke-dasharray:7.5,2.5" />
<path d="M1055,693.4L1080,693.4" style="fill:none;stroke:#F15A60;stroke-width:1.875" />
<text x="795.68" y="-686.35" transform="scale(1, -1)"
	style="font-family:Helvetica;font-weight:normal;font-style:normal;font-size:12pt">Zookeeper v3.4.8 (Java 8, Snap 100k)</text>
<path d="M1055,678.7L1080,678.7" style="fill:none;stroke:#7AC36A;stroke-width:1.875;stroke-dasharray:7.5,2.5" />
<text x="944.13" y="-671.65" transform="scale(1, -1)"
	style="font-family:Helvetica;font-weight:normal;font-style:normal;font-size:12pt">etcd v3 (Go Tip)</text>
</g>
</svg>
