<?xml version="1.0"?>
<!-- Generated by SVGo and Plotinum VG -->
<svg width="12in" height="8in"
	xmlns="http://www.w3.org/2000/svg"
	xmlns:xlink="http://www.w3.org/1999/xlink">
<g transform="scale(1, -1) translate(0, -720)">
<path d="M0,0L1080,0L1080,720L0,720Z" style="fill:#FFFFFF" />
<text x="223.05" y="-705.6" transform="scale(1, -1)"
	style="font-family:Helvetica;font-weight:normal;font-style:normal;font-size:12pt">Write 2M keys, 1000-client (etcd v3 100-conn), 8-byte key, 256-byte value, Latency(millisecond)</text>
<text x="548.46" y="-4.8486" transform="scale(1, -1)"
	style="font-family:Helvetica;font-weight:normal;font-style:normal;font-size:12pt">Second</text>
<text x="64.31" y="-19.498" transform="scale(1, -1)"
	style="font-family:Helvetica;font-weight:normal;font-style:normal;font-size:10pt">0</text>
<text x="390.9" y="-19.498" transform="scale(1, -1)"
	style="font-family:Helvetica;font-weight:normal;font-style:normal;font-size:10pt">30</text>
<text x="720.97" y="-19.498" transform="scale(1, -1)"
	style="font-family:Helvetica;font-weight:normal;font-style:normal;font-size:10pt">60</text>
<text x="1051" y="-19.498" transform="scale(1, -1)"
	style="font-family:Helvetica;font-weight:normal;font-style:normal;font-size:10pt">90</text>
<path d="M67.786,31.498L67.786,41.498" style="fill:none;stroke:#000000;stroke-width:0.625" />
<path d="M397.86,31.498L397.86,41.498" style="fill:none;stroke:#000000;stroke-width:0.625" />
<path d="M727.93,31.498L727.93,41.498" style="fill:none;stroke:#000000;stroke-width:0.625" />
<path d="M1058,31.498L1058,41.498" style="fill:none;stroke:#000000;stroke-width:0.625" />
<path d="M177.81,36.498L177.81,41.498" style="fill:none;stroke:#000000;stroke-width:0.625" />
<path d="M287.83,36.498L287.83,41.498" style="fill:none;stroke:#000000;stroke-width:0.625" />
<path d="M507.88,36.498L507.88,41.498" style="fill:none;stroke:#000000;stroke-width:0.625" />
<path d="M617.9,36.498L617.9,41.498" style="fill:none;stroke:#000000;stroke-width:0.625" />
<path d="M837.95,36.498L837.95,41.498" style="fill:none;stroke:#000000;stroke-width:0.625" />
<path d="M947.97,36.498L947.97,41.498" style="fill:none;stroke:#000000;stroke-width:0.625" />
<path d="M67.786,41.498L1080,41.498" style="fill:none;stroke:#000000;stroke-width:0.625" />
<g transform="rotate(90)">
<text x="306.05" y="14.399" transform="scale(1, -1)"
	style="font-family:Helvetica;font-weight:normal;font-style:normal;font-size:12pt">Latency(millisecond)</text>
</g>
<text x="40.104" y="-42.186" transform="scale(1, -1)"
	style="font-family:Helvetica;font-weight:normal;font-style:normal;font-size:10pt">0</text>
<text x="26.2" y="-214.36" transform="scale(1, -1)"
	style="font-family:Helvetica;font-weight:normal;font-style:normal;font-size:10pt">600</text>
<text x="19.248" y="-386.54" transform="scale(1, -1)"
	style="font-family:Helvetica;font-weight:normal;font-style:normal;font-size:10pt">1200</text>
<text x="19.248" y="-558.71" transform="scale(1, -1)"
	style="font-family:Helvetica;font-weight:normal;font-style:normal;font-size:10pt">1800</text>
<path d="M50.529,48.06L60.529,48.06" style="fill:none;stroke:#000000;stroke-width:0.625" />
<path d="M50.529,220.24L60.529,220.24" style="fill:none;stroke:#000000;stroke-width:0.625" />
<path d="M50.529,392.41L60.529,392.41" style="fill:none;stroke:#000000;stroke-width:0.625" />
<path d="M50.529,564.58L60.529,564.58" style="fill:none;stroke:#000000;stroke-width:0.625" />
<path d="M55.529,105.45L60.529,105.45" style="fill:none;stroke:#000000;stroke-width:0.625" />
<path d="M55.529,162.84L60.529,162.84" style="fill:none;stroke:#000000;stroke-width:0.625" />
<path d="M55.529,277.63L60.529,277.63" style="fill:none;stroke:#000000;stroke-width:0.625" />
<path d="M55.529,335.02L60.529,335.02" style="fill:none;stroke:#000000;stroke-width:0.625" />
<path d="M55.529,449.8L60.529,449.8" style="fill:none;stroke:#000000;stroke-width:0.625" />
<path d="M55.529,507.19L60.529,507.19" style="fill:none;stroke:#000000;stroke-width:0.625" />
<path d="M55.529,621.98L60.529,621.98" style="fill:none;stroke:#000000;stroke-width:0.625" />
<path d="M55.529,679.37L60.529,679.37" style="fill:none;stroke:#000000;stroke-width:0.625" />
<path d="M60.529,48.06L60.529,700.75" style="fill:none;stroke:#000000;stroke-width:0.625" />
<path d="M67.786,55.945L78.788,60.275L89.79,59.34L100.79,57.891L111.79,55.923L122.8,54.856L133.8,55.071L144.8,55.318L155.8,55.159L166.81,55.366L177.81,55.578L188.81,63.228L199.81,63.24L210.82,54.935L221.82,55.464L232.82,55.214L243.82,55.315L254.83,63.719L265.83,54.365L276.83,55.339L287.83,81.87L298.83,54.811L309.84,54.738L320.84,54.878L331.84,57.481L342.84,55.378L353.85,55.42L364.85,55.257L375.85,54.152L386.85,48.06L397.86,83.808L408.86,52.89L419.86,91.883L430.86,54.625L441.86,56.132L452.87,55.31L463.87,57.424L474.87,54.721L485.87,55.391L496.88,56.214L507.88,134.25L518.88,242.74L529.88,233.92L540.89,182.99L551.89,223.99L562.89,48.06L573.89,48.06L584.9,48.06L595.9,48.06L606.9,48.06L617.9,48.06L628.9,48.06L639.91,48.06L650.91,48.06L661.91,48.06L672.91,48.06L683.92,48.06L694.92,48.06L705.92,48.06L716.92,48.06L727.93,48.06L738.93,79.682L749.93,95.534L760.93,52.744L771.93,52.955L782.94,52.943L793.94,53.064L804.94,53.072L815.94,125.77L826.95,55.019L837.95,405.18L848.95,48.06L859.95,48.06L870.96,48.06L881.96,48.06L892.96,48.06L903.96,48.06L914.97,48.06L925.97,67.573L936.97,56.639L947.97,60.676L958.97,55.016L969.98,55.282L980.98,54.779L991.98,48.06L1003,700.75L1014,52.492L1025,55.253L1036,56.315L1047,55.045L1058,54.8L1069,54.797L1080,57.463" style="fill:none;stroke:#F15A60;stroke-width:1.875" />
<path d="M67.786,55.001L78.788,54.854L89.79,56.08L100.79,55.351L111.79,55.695L122.8,55.541L133.8,55.636L144.8,55.681L155.8,55.766L166.81,55.879L177.81,55.824L188.81,55.817L199.81,55.849L210.82,55.652L221.82,55.915L232.82,55.816L243.82,56.014L254.83,55.671L265.83,55.657L276.83,55.959L287.83,55.627L298.83,55.775L309.84,56.077L320.84,56.329L331.84,55.701L342.84,56.208L353.85,56.38L364.85,56.071L375.85,55.934L386.85,57.455L397.86,56.13L408.86,55.976L419.86,57.532L430.86,55.41L441.86,55.864L452.87,55.977L463.87,56.982L474.87,56.243L485.87,55.784L496.88,56.062L507.88,56.164L518.88,55.781L529.88,55.835L540.89,56.092L551.89,56.467L562.89,56.091L573.89,55.972L584.9,55.887L595.9,56.478L606.9,56.464L617.9,56.03L628.9,56.674L639.91,56.666L650.91,54.982L661.91,56.568L672.91,56.927" style="fill:none;stroke:#7AC36A;stroke-width:1.875;stroke-dasharray:7.5,2.5" />
<path d="M1055,693.4L1080,693.4" style="fill:none;stroke:#F15A60;stroke-width:1.875" />
<text x="875.74" y="-686.35" transform="scale(1, -1)"
	style="font-family:Helvetica;font-weight:normal;font-style:normal;font-size:12pt">Zookeeper v3.4.8 (Java 8)</text>
<path d="M1055,678.7L1080,678.7" style="fill:none;stroke:#7AC36A;stroke-width:1.875;stroke-dasharray:7.5,2.5" />
<text x="944.13" y="-671.65" transform="scale(1, -1)"
	style="font-family:Helvetica;font-weight:normal;font-style:normal;font-size:12pt">etcd v3 (Go Tip)</text>
</g>
</svg>
