<?xml version="1.0"?>
<!-- Generated by SVGo and Plotinum VG -->
<svg width="12in" height="8in"
	xmlns="http://www.w3.org/2000/svg"
	xmlns:xlink="http://www.w3.org/1999/xlink">
<g transform="scale(1, -1) translate(0, -720)">
<path d="M0,0L1080,0L1080,720L0,720Z" style="fill:#FFFFFF" />
<text x="275.57" y="-705.6" transform="scale(1, -1)"
	style="font-family:Helvetica;font-weight:normal;font-style:normal;font-size:12pt">Write 2M keys, 1000-client (etcd v3 100-conn), 8-byte key, 256-byte value, CPU</text>
<text x="544.98" y="-4.8486" transform="scale(1, -1)"
	style="font-family:Helvetica;font-weight:normal;font-style:normal;font-size:12pt">Second</text>
<text x="57.358" y="-19.498" transform="scale(1, -1)"
	style="font-family:Helvetica;font-weight:normal;font-style:normal;font-size:10pt">0</text>
<text x="389.87" y="-19.498" transform="scale(1, -1)"
	style="font-family:Helvetica;font-weight:normal;font-style:normal;font-size:10pt">30</text>
<text x="725.86" y="-19.498" transform="scale(1, -1)"
	style="font-family:Helvetica;font-weight:normal;font-style:normal;font-size:10pt">60</text>
<text x="1061.8" y="-19.498" transform="scale(1, -1)"
	style="font-family:Helvetica;font-weight:normal;font-style:normal;font-size:10pt">90</text>
<path d="M60.834,31.498L60.834,41.498" style="fill:none;stroke:#000000;stroke-width:0.625" />
<path d="M396.82,31.498L396.82,41.498" style="fill:none;stroke:#000000;stroke-width:0.625" />
<path d="M732.81,31.498L732.81,41.498" style="fill:none;stroke:#000000;stroke-width:0.625" />
<path d="M1068.8,31.498L1068.8,41.498" style="fill:none;stroke:#000000;stroke-width:0.625" />
<path d="M172.83,36.498L172.83,41.498" style="fill:none;stroke:#000000;stroke-width:0.625" />
<path d="M284.83,36.498L284.83,41.498" style="fill:none;stroke:#000000;stroke-width:0.625" />
<path d="M508.82,36.498L508.82,41.498" style="fill:none;stroke:#000000;stroke-width:0.625" />
<path d="M620.82,36.498L620.82,41.498" style="fill:none;stroke:#000000;stroke-width:0.625" />
<path d="M844.81,36.498L844.81,41.498" style="fill:none;stroke:#000000;stroke-width:0.625" />
<path d="M956.8,36.498L956.8,41.498" style="fill:none;stroke:#000000;stroke-width:0.625" />
<path d="M60.834,41.498L1080,41.498" style="fill:none;stroke:#000000;stroke-width:0.625" />
<g transform="rotate(90)">
<text x="358.57" y="14.399" transform="scale(1, -1)"
	style="font-family:Helvetica;font-weight:normal;font-style:normal;font-size:12pt">CPU</text>
</g>
<text x="19.248" y="-208.28" transform="scale(1, -1)"
	style="font-family:Helvetica;font-weight:normal;font-style:normal;font-size:10pt">100</text>
<text x="19.248" y="-378.64" transform="scale(1, -1)"
	style="font-family:Helvetica;font-weight:normal;font-style:normal;font-size:10pt">200</text>
<text x="19.248" y="-549" transform="scale(1, -1)"
	style="font-family:Helvetica;font-weight:normal;font-style:normal;font-size:10pt">300</text>
<path d="M43.577,214.16L53.577,214.16" style="fill:none;stroke:#000000;stroke-width:0.625" />
<path d="M43.577,384.52L53.577,384.52" style="fill:none;stroke:#000000;stroke-width:0.625" />
<path d="M43.577,554.87L53.577,554.87" style="fill:none;stroke:#000000;stroke-width:0.625" />
<path d="M48.577,128.98L53.577,128.98" style="fill:none;stroke:#000000;stroke-width:0.625" />
<path d="M48.577,299.34L53.577,299.34" style="fill:none;stroke:#000000;stroke-width:0.625" />
<path d="M48.577,469.7L53.577,469.7" style="fill:none;stroke:#000000;stroke-width:0.625" />
<path d="M48.577,640.05L53.577,640.05" style="fill:none;stroke:#000000;stroke-width:0.625" />
<path d="M53.577,48.06L53.577,700.75" style="fill:none;stroke:#000000;stroke-width:0.625" />
<path d="M60.834,59.219L72.033,135.64L83.233,195.56L94.433,225.15L105.63,265.9L116.83,295.23L128.03,330.89L139.23,358.42L150.43,385.96L161.63,408.62L172.83,427.96L184.03,437.23L195.23,446.88L206.43,458.61L217.63,468.45L228.83,473.48L240.03,484.18L251.23,487.53L262.43,494.6L273.63,503.38L284.83,517.04L296.03,521.59L307.23,524.84L318.43,530.12L329.62,535.64L340.82,538.93L352.02,541.88L363.22,545.2L374.42,548.25L385.62,551.64L396.82,550.04L408.02,555.18L419.22,565.83L430.42,565.44L441.62,566.56L452.82,568.42L464.02,571.42L475.22,571.04L486.42,572.64L497.62,575.11L508.82,570.89L520.02,560.85L531.22,551.45L542.42,542.85L553.62,533.8L564.82,524.48L576.02,516.24L587.22,508.93L598.42,501.94L609.62,494.7L620.82,487.02L632.01,479.68L643.21,472.3L654.41,466L665.61,459.15L676.81,452.59L688.01,445.83L699.21,440.51L710.41,435.37L721.61,430.62L732.81,425.91L744.01,424.52L755.21,422.73L766.41,424.28L777.61,428.2L788.81,430.85L800.01,434.5L811.21,437.02L822.41,434.38L833.61,436.03L844.81,436.42L856.01,432.69L867.21,429.87L878.41,428.49L889.61,427.77L900.81,423.95L912.01,420.19L923.21,416.6L934.4,414.06L945.6,415.76L956.8,417.48L968,421.14L979.2,423.87L990.4,426.41L1001.6,429.61L1012.8,434.74L1024,438.2L1035.2,441.35L1046.4,444.94L1057.6,448.28L1068.8,451.16L1080,454.02" style="fill:none;stroke:#F15A60;stroke-width:1.875" />
<path d="M60.834,48.06L72.033,132.39L83.233,198.5L94.433,253.82L105.63,303.72L116.83,344.96L128.03,379.18L139.23,408.84L150.43,433.85L161.63,455.59L172.83,474.67L184.03,491.72L195.23,508.35L206.43,522.11L217.63,535.61L228.83,546.71L240.03,558.06L251.23,567.96L262.43,576.7L273.63,586.24L284.83,594.13L296.03,601.18L307.23,608.15L318.43,613.29L329.62,619.76L340.82,625.18L352.02,629.2L363.22,634.38L374.42,637.91L385.62,641.94L396.82,644.89L408.02,648.11L419.22,651.26L430.42,654.41L441.62,658.45L452.82,661.89L464.02,664.96L475.22,667.57L486.42,670.17L497.62,672.29L508.82,674.79L520.02,677.33L531.22,679.87L542.42,682.29L553.62,683.92L564.82,685.5L576.02,687.46L587.22,689.8L598.42,692.1L609.62,693.36L620.82,694.6L632.01,696.78L643.21,698.2L654.41,699.36L665.61,700.75" style="fill:none;stroke:#7AC36A;stroke-width:1.875;stroke-dasharray:7.5,2.5" />
<path d="M1055,693.4L1080,693.4" style="fill:none;stroke:#F15A60;stroke-width:1.875" />
<text x="875.74" y="-686.35" transform="scale(1, -1)"
	style="font-family:Helvetica;font-weight:normal;font-style:normal;font-size:12pt">Zookeeper v3.4.8 (Java 8)</text>
<path d="M1055,678.7L1080,678.7" style="fill:none;stroke:#7AC36A;stroke-width:1.875;stroke-dasharray:7.5,2.5" />
<text x="944.13" y="-671.65" transform="scale(1, -1)"
	style="font-family:Helvetica;font-weight:normal;font-style:normal;font-size:12pt">etcd v3 (Go Tip)</text>
</g>
</svg>
