<?xml version="1.0"?>
<!-- Generated by SVGo and Plotinum VG -->
<svg width="12in" height="8in"
	xmlns="http://www.w3.org/2000/svg"
	xmlns:xlink="http://www.w3.org/1999/xlink">
<g transform="scale(1, -1) translate(0, -720)">
<path d="M0,0L1080,0L1080,720L0,720Z" style="fill:#FFFFFF" />
<text x="275.57" y="-705.6" transform="scale(1, -1)"
	style="font-family:Helvetica;font-weight:normal;font-style:normal;font-size:12pt">Write 2M keys, 1000-client (etcd v3 100-conn), 8-byte key, 256-byte value, CPU</text>
<text x="544.98" y="-4.8486" transform="scale(1, -1)"
	style="font-family:Helvetica;font-weight:normal;font-style:normal;font-size:12pt">Second</text>
<text x="57.358" y="-19.498" transform="scale(1, -1)"
	style="font-family:Helvetica;font-weight:normal;font-style:normal;font-size:10pt">0</text>
<text x="355.86" y="-19.498" transform="scale(1, -1)"
	style="font-family:Helvetica;font-weight:normal;font-style:normal;font-size:10pt">40</text>
<text x="657.83" y="-19.498" transform="scale(1, -1)"
	style="font-family:Helvetica;font-weight:normal;font-style:normal;font-size:10pt">80</text>
<text x="956.33" y="-19.498" transform="scale(1, -1)"
	style="font-family:Helvetica;font-weight:normal;font-style:normal;font-size:10pt">120</text>
<path d="M60.834,31.498L60.834,41.498" style="fill:none;stroke:#000000;stroke-width:0.625" />
<path d="M362.81,31.498L362.81,41.498" style="fill:none;stroke:#000000;stroke-width:0.625" />
<path d="M664.78,31.498L664.78,41.498" style="fill:none;stroke:#000000;stroke-width:0.625" />
<path d="M966.76,31.498L966.76,41.498" style="fill:none;stroke:#000000;stroke-width:0.625" />
<path d="M211.82,36.498L211.82,41.498" style="fill:none;stroke:#000000;stroke-width:0.625" />
<path d="M513.8,36.498L513.8,41.498" style="fill:none;stroke:#000000;stroke-width:0.625" />
<path d="M815.77,36.498L815.77,41.498" style="fill:none;stroke:#000000;stroke-width:0.625" />
<path d="M60.834,41.498L1080,41.498" style="fill:none;stroke:#000000;stroke-width:0.625" />
<g transform="rotate(90)">
<text x="358.57" y="14.399" transform="scale(1, -1)"
	style="font-family:Helvetica;font-weight:normal;font-style:normal;font-size:12pt">CPU</text>
</g>
<text x="19.248" y="-208.28" transform="scale(1, -1)"
	style="font-family:Helvetica;font-weight:normal;font-style:normal;font-size:10pt">100</text>
<text x="19.248" y="-378.64" transform="scale(1, -1)"
	style="font-family:Helvetica;font-weight:normal;font-style:normal;font-size:10pt">200</text>
<text x="19.248" y="-549" transform="scale(1, -1)"
	style="font-family:Helvetica;font-weight:normal;font-style:normal;font-size:10pt">300</text>
<path d="M43.577,214.16L53.577,214.16" style="fill:none;stroke:#000000;stroke-width:0.625" />
<path d="M43.577,384.52L53.577,384.52" style="fill:none;stroke:#000000;stroke-width:0.625" />
<path d="M43.577,554.87L53.577,554.87" style="fill:none;stroke:#000000;stroke-width:0.625" />
<path d="M48.577,128.98L53.577,128.98" style="fill:none;stroke:#000000;stroke-width:0.625" />
<path d="M48.577,299.34L53.577,299.34" style="fill:none;stroke:#000000;stroke-width:0.625" />
<path d="M48.577,469.7L53.577,469.7" style="fill:none;stroke:#000000;stroke-width:0.625" />
<path d="M48.577,640.05L53.577,640.05" style="fill:none;stroke:#000000;stroke-width:0.625" />
<path d="M53.577,48.06L53.577,700.75" style="fill:none;stroke:#000000;stroke-width:0.625" />
<path d="M60.834,143.94L68.383,197.4L75.932,222.98L83.482,267.84L91.031,297.96L98.581,325.1L106.13,348.32L113.68,366.19L121.23,384.77L128.78,403.49L136.33,416.02L143.88,422.25L151.43,437.16L158.98,446.08L166.53,450.97L174.07,462.73L181.62,467.65L189.17,474.69L196.72,479.2L204.27,487.82L211.82,495.91L219.37,505.93L226.92,510.45L234.47,514.69L242.02,521.59L249.57,526.58L257.12,531.5L264.67,535.78L272.22,540.94L279.77,545.15L287.32,546.63L294.86,544.72L302.41,556.6L309.96,560.14L317.51,562.83L325.06,565.33L332.61,568.2L340.16,566.49L347.71,568.35L355.26,559.13L362.81,549.36L370.36,540.27L377.91,530.89L385.46,521.23L393.01,511.98L400.56,503.09L408.11,494.4L415.65,487.23L423.2,480.79L430.75,473.67L438.3,466.36L445.85,459.66L453.4,452.71L460.95,447.02L468.5,440.7L476.05,434.84L483.6,429.03L491.15,423.22L498.7,417.55L506.25,413.14L513.8,409.51L521.35,406.68L528.9,410.04L536.44,413.58L543.99,417.52L551.54,421.18L559.09,424.47L566.64,427.52L574.19,430.39L581.74,429.17L589.29,425.68L596.84,422.98L604.39,419.9L611.94,418.66L619.49,415.59L627.04,413.7L634.59,410.24L642.14,406.87L649.69,403.39L657.23,402.51L664.78,405.3L672.33,404.91L679.88,407.24L687.43,408.23L694.98,411.59L702.53,414.59L710.08,417.04L717.63,423.17L725.18,425.35L732.73,427.43L740.28,430.84L747.83,433.82L755.38,436.61L762.93,438.21L770.48,437.45L778.02,434.52L785.57,431.09L793.12,427.57L800.67,424.02L808.22,420.46L815.77,416.88L823.32,413.94L830.87,411.23L838.42,408.26L845.97,405.06L853.52,402L861.07,398.88L868.62,396.34L876.17,393.8L883.72,391.94L891.27,390.34L898.81,389L906.36,387.23L913.91,386.61L921.46,387.58L929.01,388.42L936.56,388.91L944.11,386.9L951.66,385.73L959.21,384.47L966.76,383.27L974.31,381.89L981.86,381.42L989.41,380.46L996.96,379L1004.5,378.06L1012.1,375.96L1019.6,373.72L1027.2,371.76L1034.7,369.81L1042.3,368.06L1049.8,366.42L1057.4,366.08L1064.9,367.17L1072.5,367.55L1080,369.92" style="fill:none;stroke:#F15A60;stroke-width:1.875" />
<path d="M60.834,48.06L68.383,132.39L75.932,198.5L83.482,253.82L91.031,303.72L98.581,344.96L106.13,379.18L113.68,408.84L121.23,433.85L128.78,455.59L136.33,474.67L143.88,491.72L151.43,508.35L158.98,522.11L166.53,535.61L174.07,546.71L181.62,558.06L189.17,567.96L196.72,576.7L204.27,586.24L211.82,594.13L219.37,601.18L226.92,608.15L234.47,613.29L242.02,619.76L249.57,625.18L257.12,629.2L264.67,634.38L272.22,637.91L279.77,641.94L287.32,644.89L294.86,648.11L302.41,651.26L309.96,654.41L317.51,658.45L325.06,661.89L332.61,664.96L340.16,667.57L347.71,670.17L355.26,672.29L362.81,674.79L370.36,677.33L377.91,679.87L385.46,682.29L393.01,683.92L400.56,685.5L408.11,687.46L415.65,689.8L423.2,692.1L430.75,693.36L438.3,694.6L445.85,696.78L453.4,698.2L460.95,699.36L468.5,700.75" style="fill:none;stroke:#7AC36A;stroke-width:1.875;stroke-dasharray:7.5,2.5" />
<path d="M1055,693.4L1080,693.4" style="fill:none;stroke:#F15A60;stroke-width:1.875" />
<text x="795.68" y="-686.35" transform="scale(1, -1)"
	style="font-family:Helvetica;font-weight:normal;font-style:normal;font-size:12pt">Zookeeper v3.4.8 (Java 8, Snap 100k)</text>
<path d="M1055,678.7L1080,678.7" style="fill:none;stroke:#7AC36A;stroke-width:1.875;stroke-dasharray:7.5,2.5" />
<text x="944.13" y="-671.65" transform="scale(1, -1)"
	style="font-family:Helvetica;font-weight:normal;font-style:normal;font-size:12pt">etcd v3 (Go Tip)</text>
</g>
</svg>
