<?xml version="1.0"?>
<!-- Generated by SVGo and Plotinum VG -->
<svg width="12in" height="8in"
	xmlns="http://www.w3.org/2000/svg"
	xmlns:xlink="http://www.w3.org/1999/xlink">
<g transform="scale(1, -1) translate(0, -720)">
<path d="M0,0L1080,0L1080,720L0,720Z" style="fill:#FFFFFF" />
<text x="223.05" y="-705.6" transform="scale(1, -1)"
	style="font-family:Helvetica;font-weight:normal;font-style:normal;font-size:12pt">Write 2M keys, 1000-client (etcd v3 100-conn), 8-byte key, 256-byte value, Latency(millisecond)</text>
<text x="548.46" y="-4.8486" transform="scale(1, -1)"
	style="font-family:Helvetica;font-weight:normal;font-style:normal;font-size:12pt">Second</text>
<text x="64.31" y="-19.498" transform="scale(1, -1)"
	style="font-family:Helvetica;font-weight:normal;font-style:normal;font-size:10pt">0</text>
<text x="358.54" y="-19.498" transform="scale(1, -1)"
	style="font-family:Helvetica;font-weight:normal;font-style:normal;font-size:10pt">40</text>
<text x="656.25" y="-19.498" transform="scale(1, -1)"
	style="font-family:Helvetica;font-weight:normal;font-style:normal;font-size:10pt">80</text>
<text x="950.49" y="-19.498" transform="scale(1, -1)"
	style="font-family:Helvetica;font-weight:normal;font-style:normal;font-size:10pt">120</text>
<path d="M67.786,31.498L67.786,41.498" style="fill:none;stroke:#000000;stroke-width:0.625" />
<path d="M365.5,31.498L365.5,41.498" style="fill:none;stroke:#000000;stroke-width:0.625" />
<path d="M663.21,31.498L663.21,41.498" style="fill:none;stroke:#000000;stroke-width:0.625" />
<path d="M960.92,31.498L960.92,41.498" style="fill:none;stroke:#000000;stroke-width:0.625" />
<path d="M216.64,36.498L216.64,41.498" style="fill:none;stroke:#000000;stroke-width:0.625" />
<path d="M514.35,36.498L514.35,41.498" style="fill:none;stroke:#000000;stroke-width:0.625" />
<path d="M812.06,36.498L812.06,41.498" style="fill:none;stroke:#000000;stroke-width:0.625" />
<path d="M67.786,41.498L1080,41.498" style="fill:none;stroke:#000000;stroke-width:0.625" />
<g transform="rotate(90)">
<text x="306.05" y="14.399" transform="scale(1, -1)"
	style="font-family:Helvetica;font-weight:normal;font-style:normal;font-size:12pt">Latency(millisecond)</text>
</g>
<text x="40.104" y="-42.186" transform="scale(1, -1)"
	style="font-family:Helvetica;font-weight:normal;font-style:normal;font-size:10pt">0</text>
<text x="19.248" y="-236.91" transform="scale(1, -1)"
	style="font-family:Helvetica;font-weight:normal;font-style:normal;font-size:10pt">1000</text>
<text x="19.248" y="-431.64" transform="scale(1, -1)"
	style="font-family:Helvetica;font-weight:normal;font-style:normal;font-size:10pt">2000</text>
<text x="19.248" y="-626.36" transform="scale(1, -1)"
	style="font-family:Helvetica;font-weight:normal;font-style:normal;font-size:10pt">3000</text>
<path d="M50.529,48.06L60.529,48.06" style="fill:none;stroke:#000000;stroke-width:0.625" />
<path d="M50.529,242.79L60.529,242.79" style="fill:none;stroke:#000000;stroke-width:0.625" />
<path d="M50.529,437.51L60.529,437.51" style="fill:none;stroke:#000000;stroke-width:0.625" />
<path d="M50.529,632.24L60.529,632.24" style="fill:none;stroke:#000000;stroke-width:0.625" />
<path d="M55.529,145.42L60.529,145.42" style="fill:none;stroke:#000000;stroke-width:0.625" />
<path d="M55.529,340.15L60.529,340.15" style="fill:none;stroke:#000000;stroke-width:0.625" />
<path d="M55.529,534.88L60.529,534.88" style="fill:none;stroke:#000000;stroke-width:0.625" />
<path d="M60.529,48.06L60.529,700.75" style="fill:none;stroke:#000000;stroke-width:0.625" />
<path d="M67.786,50.637L75.228,56.026L82.671,59.301L90.114,53.146L97.557,53.288L105,52.904L112.44,53.246L119.88,53.079L127.33,52.856L134.77,52.653L142.21,52.686L149.66,57.364L157.1,60.49L164.54,52.736L171.98,53.027L179.43,52.778L186.87,53.119L194.31,59.328L201.76,52.401L209.2,53.882L216.64,92.166L224.08,52.709L231.53,52.749L238.97,52.932L246.41,53.385L253.85,52.66L261.3,53.424L268.74,52.495L276.18,52.5L283.63,48.06L291.07,66.792L298.51,48.06L305.95,76.234L313.4,52.673L320.84,53.315L328.28,53.125L335.72,55.475L343.17,53.09L350.61,64.137L358.05,155.3L365.5,163.27L372.94,130.15L380.38,48.06L387.82,456.63L395.27,181.88L402.71,48.06L410.15,48.06L417.6,48.06L425.04,48.06L432.48,48.06L439.92,48.06L447.37,48.06L454.81,48.06L462.25,48.06L469.69,48.06L477.14,48.06L484.58,48.06L492.02,48.06L499.47,48.06L506.91,48.06L514.35,700.75L521.79,51.74L529.24,51.288L536.68,51.51L544.12,51.44L551.56,51.541L559.01,51.229L566.45,50.926L573.89,122.41L581.34,73.138L588.78,48.06L596.22,48.06L603.66,48.06L611.11,48.06L618.55,48.06L625.99,48.06L633.43,48.06L640.88,48.06L648.32,94.221L655.76,55.033L663.21,48.06L670.65,63.631L678.09,56.573L685.53,54.22L692.98,53.643L700.42,52.864L707.86,53.468L715.31,48.06L722.75,69.191L730.19,53.329L737.63,52.888L745.08,52.551L752.52,53.652L759.96,57.092L767.4,55.365L774.85,173.05L782.29,48.06L789.73,365.6L797.18,48.06L804.62,374.52L812.06,48.06L819.5,48.06L826.95,48.06L834.39,48.06L841.83,48.06L849.27,48.06L856.72,48.06L864.16,48.06L871.6,48.06L879.05,48.06L886.49,48.06L893.93,48.06L901.37,48.06L908.82,48.06L916.26,48.06L923.7,48.06L931.14,48.06L938.59,48.06L946.03,48.06L953.47,48.06L960.92,48.06L968.36,48.06L975.8,48.06L983.24,48.06L990.69,48.06L998.13,48.06L1005.6,48.06L1013,48.06L1020.5,48.06L1027.9,48.06L1035.3,48.06L1042.8,48.06L1050.2,48.06L1057.7,48.06L1065.1,60.527L1072.6,54.398L1080,58.244" style="fill:none;stroke:#F15A60;stroke-width:1.875" />
<path d="M67.786,52.77L75.228,52.671L82.671,53.502L90.114,53.008L97.557,53.241L105,53.136L112.44,53.201L119.88,53.232L127.33,53.289L134.77,53.366L142.21,53.329L149.66,53.324L157.1,53.345L164.54,53.212L171.98,53.391L179.43,53.323L186.87,53.458L194.31,53.225L201.76,53.215L209.2,53.42L216.64,53.195L224.08,53.296L231.53,53.501L238.97,53.671L246.41,53.245L253.85,53.589L261.3,53.706L268.74,53.496L276.18,53.403L283.63,54.436L291.07,53.537L298.51,53.432L305.95,54.488L313.4,53.048L320.84,53.356L328.28,53.432L335.72,54.115L343.17,53.613L350.61,53.302L358.05,53.49L365.5,53.56L372.94,53.3L380.38,53.336L387.82,53.511L395.27,53.765L402.71,53.51L410.15,53.429L417.6,53.372L425.04,53.772L432.48,53.763L439.92,53.468L447.37,53.906L454.81,53.9L462.25,52.757L469.69,53.834L477.14,54.077" style="fill:none;stroke:#7AC36A;stroke-width:1.875;stroke-dasharray:7.5,2.5" />
<path d="M1055,693.4L1080,693.4" style="fill:none;stroke:#F15A60;stroke-width:1.875" />
<text x="795.68" y="-686.35" transform="scale(1, -1)"
	style="font-family:Helvetica;font-weight:normal;font-style:normal;font-size:12pt">Zookeeper v3.4.8 (Java 8, Snap 100k)</text>
<path d="M1055,678.7L1080,678.7" style="fill:none;stroke:#7AC36A;stroke-width:1.875;stroke-dasharray:7.5,2.5" />
<text x="944.13" y="-671.65" transform="scale(1, -1)"
	style="font-family:Helvetica;font-weight:normal;font-style:normal;font-size:12pt">etcd v3 (Go Tip)</text>
</g>
</svg>
