<?xml version="1.0"?>
<!-- Generated by SVGo and Plotinum VG -->
<svg width="12in" height="8in"
	xmlns="http://www.w3.org/2000/svg"
	xmlns:xlink="http://www.w3.org/1999/xlink">
<g transform="scale(1, -1) translate(0, -720)">
<path d="M0,0L1080,0L1080,720L0,720Z" style="fill:#FFFFFF" />
<text x="314.89" y="-706.41" transform="scale(1, -1)"
	style="font-family:Helvetica;font-weight:normal;font-style:normal;font-size:12pt">Write 3M keys, 1000 clients, key 64 bytes, value 256 bytes, Latency</text>
<text x="549.36" y="-4.965" transform="scale(1, -1)"
	style="font-family:Helvetica;font-weight:normal;font-style:normal;font-size:12pt">second</text>
<text x="63.613" y="-19.142" transform="scale(1, -1)"
	style="font-family:Helvetica;font-weight:normal;font-style:normal;font-size:10pt">0</text>
<text x="360.61" y="-19.142" transform="scale(1, -1)"
	style="font-family:Helvetica;font-weight:normal;font-style:normal;font-size:10pt">400</text>
<text x="664.56" y="-19.142" transform="scale(1, -1)"
	style="font-family:Helvetica;font-weight:normal;font-style:normal;font-size:10pt">800</text>
<text x="965.04" y="-19.142" transform="scale(1, -1)"
	style="font-family:Helvetica;font-weight:normal;font-style:normal;font-size:10pt">1200</text>
<path d="M67.088,30.467L67.088,40.467" style="fill:none;stroke:#000000;stroke-width:0.625" />
<path d="M371.04,30.467L371.04,40.467" style="fill:none;stroke:#000000;stroke-width:0.625" />
<path d="M674.99,30.467L674.99,40.467" style="fill:none;stroke:#000000;stroke-width:0.625" />
<path d="M978.94,30.467L978.94,40.467" style="fill:none;stroke:#000000;stroke-width:0.625" />
<path d="M219.06,35.468L219.06,40.467" style="fill:none;stroke:#000000;stroke-width:0.625" />
<path d="M523.01,35.468L523.01,40.467" style="fill:none;stroke:#000000;stroke-width:0.625" />
<path d="M826.96,35.468L826.96,40.467" style="fill:none;stroke:#000000;stroke-width:0.625" />
<path d="M67.088,40.467L1080,40.467" style="fill:none;stroke:#000000;stroke-width:0.625" />
<g transform="rotate(90)">
<text x="335.49" y="13.59" transform="scale(1, -1)"
	style="font-family:Helvetica;font-weight:normal;font-style:normal;font-size:12pt">latency(ms)</text>
</g>
<text x="18.555" y="-215.76" transform="scale(1, -1)"
	style="font-family:Helvetica;font-weight:normal;font-style:normal;font-size:10pt">1000</text>
<text x="18.555" y="-394.62" transform="scale(1, -1)"
	style="font-family:Helvetica;font-weight:normal;font-style:normal;font-size:10pt">2000</text>
<text x="18.555" y="-573.47" transform="scale(1, -1)"
	style="font-family:Helvetica;font-weight:normal;font-style:normal;font-size:10pt">3000</text>
<path d="M49.83,221.13L59.83,221.13" style="fill:none;stroke:#000000;stroke-width:0.625" />
<path d="M49.83,399.98L59.83,399.98" style="fill:none;stroke:#000000;stroke-width:0.625" />
<path d="M49.83,578.84L59.83,578.84" style="fill:none;stroke:#000000;stroke-width:0.625" />
<path d="M54.83,131.7L59.83,131.7" style="fill:none;stroke:#000000;stroke-width:0.625" />
<path d="M54.83,310.56L59.83,310.56" style="fill:none;stroke:#000000;stroke-width:0.625" />
<path d="M54.83,489.41L59.83,489.41" style="fill:none;stroke:#000000;stroke-width:0.625" />
<path d="M54.83,668.27L59.83,668.27" style="fill:none;stroke:#000000;stroke-width:0.625" />
<path d="M59.83,47.03L59.83,701.44" style="fill:none;stroke:#000000;stroke-width:0.625" />
<path d="M67.088,78.99L67.847,79.667L68.607,81.291L69.367,81.653L70.127,82.844L70.887,82.954L71.647,79.086L72.407,80.726L73.166,82.988L73.926,83.222L74.686,80.656L75.446,81.854L76.206,83.353L76.966,80.835L77.726,81.401L78.486,86.468L79.245,83.33L80.005,80.47L80.765,82.171L81.525,79.78L82.285,81.556L83.045,81.636L83.805,82.65L84.565,80.214L85.324,80.47L86.084,82.309L86.844,82.289L87.604,82.07L88.364,81.103L89.124,84.155L89.884,81.931L90.644,83.379L91.403,82.075L92.163,81.302L92.923,81.852L93.683,82.822L94.443,83.743L95.203,82.732L95.963,81.694L96.723,80.099L97.482,81.369L98.242,80.57L99.002,80.766L99.762,82.265L100.52,85.274L101.28,80.55L102.04,80.808L102.8,80.609L103.56,81.507L104.32,82.507L105.08,81.515L105.84,82.68L106.6,82.361L107.36,82.746L108.12,80.676L108.88,80.988L109.64,80.622L110.4,83.238L111.16,85.909L111.92,81.138L112.68,82.432L113.44,83.628L114.2,81.93L114.96,82.196L115.72,81.731L116.48,83.106L117.24,123.6L118,118.26L118.76,155.15L119.52,214.2L120.28,212.11L121.04,249.89L121.8,288.36L122.56,330.57L123.32,358.45L124.08,353.02L124.84,358.98L125.6,368.94L126.36,361.83L127.12,357.2L127.88,367.84L128.64,370.1L129.4,366.04L130.16,372.97L130.92,376.31L131.68,369.5L132.44,368.64L133.2,378.12L133.96,372.52L134.72,360.96L135.48,374.87L136.24,379.6L137,364.64L137.76,359.96L138.52,379L139.28,377.75L140.04,360.63L140.8,399.07L141.56,400.92L142.32,368.11L143.07,360.21L143.83,353.61L144.59,366.8L145.35,363.9L146.11,354.28L146.87,353.05L147.63,367L148.39,357.76L149.15,349.87L149.91,354.89L150.67,353.22L151.43,349.14L152.19,364.34L152.95,367.15L153.71,353.09L154.47,355.93L155.23,366.32L155.99,351.07L156.75,355.6L157.51,370.92L158.27,362.95L159.03,350.84L159.79,356.76L160.55,368.24L161.31,352.23L162.07,358.02L162.83,364.43L163.59,355.2L164.35,350.21L165.11,356.12L165.87,360.12L166.63,349.79L167.39,358.31L168.15,372.68L168.91,360.68L169.67,356.09L170.43,366.72L171.19,363.58L171.95,355.25L172.71,382.24L173.47,339.23L174.23,271.79L174.99,250.09L175.75,241.28L176.51,210.27L177.27,195.11L178.03,190.11L178.79,174.77L179.55,151.18L180.31,128.84L181.07,145.19L181.83,137.3L182.59,134.41L183.35,130.24L184.11,120.13L184.87,133.13L185.63,120.52L186.39,131.2L187.15,128.02L187.91,133.14L188.67,125.41L189.43,121.61L190.19,131.98L190.95,118.89L191.71,124.34L192.47,112.61L193.23,113.53L193.99,94.143L194.75,91.832L195.51,94.152L196.27,97.208L197.03,98.497L197.79,98.347L198.55,88.788L199.31,84.344L200.07,91.088L200.83,86.865L201.59,92.203L202.35,86.127L203.11,88.543L203.86,87.862L204.62,89.445L205.38,88.783L206.14,92.354L206.9,83.548L207.66,88.502L208.42,88.297L209.18,81.687L209.94,95.121L210.7,84.462L211.46,89.873L212.22,87.201L212.98,87.328L213.74,90.779L214.5,83.647L215.26,93.549L216.02,85.472L216.78,86.116L217.54,92.644L218.3,90.081L219.06,86.267L219.82,93.285L220.58,84.588L221.34,85.019L222.1,91.366L222.86,85.521L223.62,85.331L224.38,89.05L225.14,84.092L225.9,86.132L226.66,91.2L227.42,84.018L228.18,87.074L228.94,92.567L229.7,82.609L230.46,91.333L231.22,94.221L231.98,84.187L232.74,82.826L233.5,80.745L234.26,92.312L235.02,80.986L235.78,80.343L236.54,82.33L237.3,87.122L238.06,78.625L238.82,91.667L239.58,89.605L240.34,85.04L241.1,79.39L241.86,84.839L242.62,84.002L243.38,131.14L244.14,101.62L244.9,115.27L245.66,133.04L246.42,138.26L247.18,151.5L247.94,164.15L248.7,175.5L249.46,191.95L250.22,206.58L250.98,223.49L251.74,214.04L252.5,213.38L253.26,234.31L254.02,265.15L254.78,250.35L255.54,252.73L256.3,253.73L257.06,253.08L257.82,251.98L258.58,254.81L259.34,249.2L260.1,242.5L260.86,229.71L261.62,217.83L262.38,202.93L263.14,200.71L263.89,195.5L264.65,189.2L265.41,166.66L266.17,132.88L266.93,132.03L267.69,156.48L268.45,153.97L269.21,147.24L269.97,139.78L270.73,137.33L271.49,132.85L272.25,132.57L273.01,126.08L273.77,125.32L274.53,82.513L275.29,89.418L276.05,88.532L276.81,94.916L277.57,95.978L278.33,103.06L279.09,116.33L279.85,118.61L280.61,112.55L281.37,130.17L282.13,118.17L282.89,120.41L283.65,124.39L284.41,126.93L285.17,120.29L285.93,117.71L286.69,139.37L287.45,124.73L288.21,96.536L288.97,93.341L289.73,139.15L290.49,138.28L291.25,170.68L292.01,217.23L292.77,285.19L293.53,331.08L294.29,349.16L295.05,397.44L295.81,402.81L296.57,390.77L297.33,395.12L298.09,399.11L298.85,397.41L299.61,384.32L300.37,387.3L301.13,406.67L301.89,413.06L302.65,386.79L303.41,416.17L304.17,391.42L304.93,392.37L305.69,421.69L306.45,393.13L307.21,384.4L307.97,411.52L308.73,413.9L309.49,389.35L310.25,412.89L311.01,410.11L311.77,378.46L312.53,393.44L313.29,414.78L314.05,402.51L314.81,397.31L315.57,421.77L316.33,407.03L317.09,410.33L317.85,438.06L318.61,387.7L319.37,263.31L320.13,268.82L320.89,223.55L321.65,206.84L322.41,212.94L323.17,191.48L323.93,171.67L324.68,201.64L325.44,194.39L326.2,171.71L326.96,173.2L327.72,166.3L328.48,150.47L329.24,154.77L330,137.02L330.76,118.75L331.52,123.72L332.28,106.28L333.04,107.12L333.8,114.65L334.56,99.426L335.32,96.558L336.08,98.13L336.84,96.387L337.6,110.48L338.36,110.37L339.12,98.602L339.88,91.533L340.64,106.43L341.4,96.121L342.16,88.183L342.92,113.48L343.68,98.949L344.44,86.888L345.2,101.65L345.96,96.704L346.72,86.577L347.48,85.778L348.24,118.28L349,85.788L349.76,85.894L350.52,86.708L351.28,97.611L352.04,86.962L352.8,85.815L353.56,107.94L354.32,88.362L355.08,88.005L355.84,114.97L356.6,99.416L357.36,96.618L358.12,86.639L358.88,97.788L359.64,103.31L360.4,89.114L361.16,89.488L361.92,106.25L362.68,101.44L363.44,86.439L364.2,87.83L364.96,102.2L365.72,104.47L366.48,91.796L367.24,88.619L368,89.523L368.76,134.34L369.52,90.949L370.28,90.914L371.04,89.117L371.8,91.217L372.56,133.54L373.32,90.721L374.08,87.689L374.84,91.094L375.6,88.629L376.36,109.13L377.12,94.996L377.88,91.318L378.64,87.915L379.4,87.237L380.16,116.33L380.92,94.911L381.68,99.918L382.44,87.03L383.2,90.678L383.96,89.278L384.71,113.86L385.47,88.932L386.23,95.583L386.99,103.6L387.75,90.164L388.51,87.8L389.27,99.424L390.03,86.347L390.79,89.008L391.55,91.489L392.31,99.435L393.07,94.089L393.83,101.01L394.59,90.222L395.35,85.597L396.11,89.144L396.87,87.873L397.63,89.568L398.39,115.86L399.15,86.672L399.91,89.266L400.67,87.387L401.43,84.854L402.19,87.91L402.95,87.868L403.71,112.93L404.47,88.716L405.23,88.998L405.99,84.625L406.75,86.521L407.51,86.605L408.27,83.475L409.03,107.06L409.79,87.294L410.55,83.369L411.31,81.935L412.07,82.885L412.83,88.688L413.59,94.746L414.35,80.169L415.11,106.16L415.87,77.124L416.63,78.53L417.39,76.212L418.15,78.447L418.91,80.243L419.67,89.362L420.43,105.09L421.19,130.76L421.95,153.87L422.71,160.45L423.47,107.33L424.23,84.953L424.99,82.124L425.75,85.895L426.51,82.341L427.27,82.853L428.03,83.86L428.79,81.147L429.55,81.304L430.31,88.699L431.07,104.4L431.83,84.333L432.59,85.777L433.35,82.576L434.11,83.047L434.87,85.122L435.63,82.37L436.39,87.891L437.15,109.38L437.91,82.878L438.67,84.177L439.43,89.9L440.19,129.86L440.95,163.16L441.71,105.3L442.47,116.88L443.23,93.923L443.99,93.886L444.75,97.952L445.5,154.91L446.26,136.21L447.02,100.98L447.78,106.93L448.54,161.3L449.3,138.66L450.06,87.397L450.82,89.143L451.58,164.69L452.34,143.62L453.1,118.11L453.86,88.959L454.62,113.79L455.38,119.4L456.14,164.28L456.9,86.987L457.66,142.37L458.42,96.38L459.18,114.2L459.94,221.03L460.7,180.87L461.46,125.28L462.22,89.885L462.98,93.262L463.74,153.39L464.5,129.59L465.26,122.47L466.02,90.032L466.78,103.98L467.54,127.44L468.3,96.882L469.06,132.81L469.82,89.638L470.58,97.313L471.34,141.42L472.1,113.14L472.86,118.98L473.62,116.04L474.38,89.778L475.14,161.17L475.9,132.23L476.66,131.28L477.42,174.04L478.18,86.881L478.94,135.57L479.7,127.65L480.46,130.78L481.22,133.25L481.98,151.99L482.74,96.04L483.5,146.53L484.26,137.16L485.02,141.72L485.78,140.81L486.54,141.43L487.3,135.24L488.06,128.71L488.82,111.48L489.58,104.58L490.34,108.17L491.1,171.41L491.86,116.75L492.62,97.02L493.38,96.567L494.14,91.486L494.9,152.29L495.66,172.09L496.42,99.494L497.18,88.238L497.94,87.848L498.7,110.64L499.46,112.36L500.22,115.97L500.98,125.68L501.74,86.931L502.5,88.685L503.26,89.187L504.02,88.164L504.78,145.77L505.53,156.31L506.29,89.01L507.05,88.196L507.81,91.804L508.57,86.989L509.33,87.329L510.09,172.25L510.85,154.64L511.61,91.264L512.37,87.405L513.13,88.396L513.89,88.41L514.65,88.464L515.41,151.37L516.17,214.2L516.93,88.571L517.69,85.933L518.45,90.097L519.21,91.093L519.97,88.401L520.73,136.84L521.49,102.38L522.25,153.47L523.01,90.167L523.77,88.283L524.53,90.584L525.29,88.145L526.05,87.96L526.81,170.96L527.57,138.75L528.33,141.58L529.09,135.12L529.85,87.369L530.61,86.157L531.37,88.792L532.13,86.58L532.89,121.72L533.65,119.4L534.41,120.36L535.17,171.14L535.93,156.12L536.69,86.962L537.45,91.057L538.21,87.437L538.97,88.728L539.73,85.631L540.49,91.346L541.25,167.06L542.01,145.74L542.77,148.95L543.53,149.29L544.29,90.184L545.05,87.636L545.81,87.995L546.57,88.13L547.33,91.034L548.09,162.82L548.85,142.43L549.61,144.02L550.37,150.41L551.13,150.18L551.89,159.12L552.65,109.51L553.41,86.691L554.17,86.195L554.93,88.828L555.69,160.76L556.45,144.18L557.21,150.84L557.97,168.79L558.73,181.29L559.49,207.67L560.25,233.24L561.01,216.93L561.77,234.7L562.53,247.79L563.29,293.08L564.05,203.12L564.81,185.12L565.57,193.67L566.32,266.46L567.08,245.9L567.84,264.36L568.6,285.83L569.36,301.44L570.12,329.86L570.88,352.73L571.64,376.04L572.4,385.14L573.16,393.34L573.92,397.37L574.68,396.08L575.44,381.61L576.2,391L576.96,391.16L577.72,434.92L578.48,475.54L579.24,415.67L580,392.25L580.76,412.29L581.52,393.09L582.28,299.51L583.04,334.47L583.8,348.72L584.56,369.1L585.32,392.9L586.08,400.15L586.84,395.18L587.6,406.67L588.36,402.88L589.12,405.24L589.88,391.79L590.64,396.73L591.4,391.51L592.16,429.06L592.92,396.53L593.68,356.25L594.44,381.61L595.2,392.31L595.96,394.36L596.72,396.98L597.48,389.95L598.24,393.37L599,389.6L599.76,390.18L600.52,397.55L601.28,397.82L602.04,340.16L602.8,342.13L603.56,392.75L604.32,411.2L605.08,425.23L605.84,440.28L606.6,350.25L607.36,355.35L608.12,386.66L608.88,386.01L609.64,395.08L610.4,396.95L611.16,400.82L611.92,340.68L612.68,312.52L613.44,336.54L614.2,448.57L614.96,350.55L615.72,361.18L616.48,431.13L617.24,308.83L618,263.73L618.76,334.97L619.52,411.42L620.28,201.38L621.04,114.74L621.8,103.88L622.56,98.431L623.32,186.67L624.08,229.55L624.84,103.19L625.6,89.768L626.36,89.866L627.11,94.927L627.87,178.63L628.63,222.84L629.39,88.123L630.15,88.006L630.91,88.57L631.67,87.526L632.43,246.24L633.19,228.89L633.95,144.72L634.71,159.48L635.47,90.391L636.23,89.408L636.99,87.711L637.75,88.786L638.51,165.02L639.27,180.51L640.03,86.68L640.79,89.925L641.55,88.483L642.31,88.352L643.07,171.01L643.83,210.47L644.59,89.131L645.35,87.482L646.11,88.162L646.87,86.769L647.63,89.932L648.39,184.78L649.15,142.72L649.91,90.604L650.67,90.236L651.43,88.784L652.19,89.762L652.95,89.238L653.71,245.83L654.47,100.95L655.23,89.266L655.99,92.85L656.75,88.702L657.51,88.419L658.27,88.415L659.03,209.42L659.79,108.69L660.55,89.691L661.31,88.936L662.07,89.173L662.83,88.617L663.59,162.37L664.35,141.27L665.11,142.32L665.87,89.002L666.63,88.559L667.39,88.093L668.15,87.598L668.91,163.31L669.67,132.74L670.43,142.48L671.19,129.75L671.95,85.029L672.71,95.353L673.47,87.761L674.23,91.218L674.99,183.26L675.75,139.01L676.51,133.86L677.27,184.43L678.03,89.177L678.79,82.488L679.55,95.907L680.31,92.575L681.07,107.88L681.83,101.85L682.59,88.878L683.35,90.487L684.11,137.27L684.87,94.427L685.63,94.372L686.39,91.461L687.14,92.511L687.9,104.8L688.66,153.2L689.42,102.92L690.18,91.455L690.94,120.88L691.7,117.45L692.46,88.475L693.22,90.36L693.98,89.277L694.74,94.478L695.5,199.67L696.26,161.48L697.02,153.39L697.78,148.42L698.54,144.84L699.3,198.8L700.06,89.692L700.82,87.658L701.58,88.624L702.34,88.639L703.1,181.38L703.86,174.08L704.62,173.82L705.38,181.69L706.14,185.75L706.9,186.06L707.66,206.11L708.42,115.16L709.18,95.13L709.94,86.549L710.7,87L711.46,88.232L712.22,102.07L712.98,150.82L713.74,117.76L714.5,138.62L715.26,153.49L716.02,134.5L716.78,180.88L717.54,86.137L718.3,86.882L719.06,88.22L719.82,85.796L720.58,85.869L721.34,86.83L722.1,89.216L722.86,195.62L723.62,172.3L724.38,164.78L725.14,179.16L725.9,197.56L726.66,150.03L727.42,88.811L728.18,87.655L728.94,86.914L729.7,85.172L730.46,87.957L731.22,87.894L731.98,86.582L732.74,87.982L733.5,93.713L734.26,187.83L735.02,150.86L735.78,148.48L736.54,182.34L737.3,98.009L738.06,88.23L738.82,86.958L739.58,85.304L740.34,90.953L741.1,88.098L741.86,189.66L742.62,219.09L743.38,177.53L744.14,165.9L744.9,149.64L745.66,221.98L746.42,206.25L747.18,204.65L747.93,242.18L748.69,328.74L749.45,436.52L750.21,393.33L750.97,321.78L751.73,352.71L752.49,437.54L753.25,321.57L754.01,256.77L754.77,313.1L755.53,428.39L756.29,453.96L757.05,391.39L757.81,389.95L758.57,391.8L759.33,395.58L760.09,400.13L760.85,400.21L761.61,398.57L762.37,508.67L763.13,512.75L763.89,452.51L764.65,396.54L765.41,391.24L766.17,388.3L766.93,390.98L767.69,406.28L768.45,409.9L769.21,457.53L769.97,361.96L770.73,353.45L771.49,376.42L772.25,384.58L773.01,397.86L773.77,402.26L774.53,396.26L775.29,397.19L776.05,437.7L776.81,397.3L777.57,397.71L778.33,393.05L779.09,405L779.85,421.03L780.61,309.57L781.37,302.27L782.13,326.87L782.89,414.41L783.65,397.25L784.41,365.72L785.17,396.3L785.93,372.83L786.69,379.39L787.45,387.46L788.21,391.65L788.97,389.1L789.73,389.72L790.49,454.97L791.25,544.28L792.01,345.08L792.77,136.53L793.53,92.124L794.29,92.983L795.05,94.238L795.81,94.638L796.57,214.33L797.33,177.12L798.09,161.12L798.85,93.001L799.61,88.923L800.37,88.52L801.13,87.793L801.89,90.832L802.65,93.691L803.41,253.79L804.17,237.99L804.93,357.67L805.69,149.93L806.45,91.024L807.21,87.676L807.96,85.839L808.72,93.46L809.48,91.689L810.24,129.68L811,134.99L811.76,88.072L812.52,89.776L813.28,89.519L814.04,89.564L814.8,92.349L815.56,216.44L816.32,104.09L817.08,163.45L817.84,88.963L818.6,89.61L819.36,90.153L820.12,91.315L820.88,91.134L821.64,89.356L822.4,132.26L823.16,261.35L823.92,150.1L824.68,89.992L825.44,89.071L826.2,91.135L826.96,89.792L827.72,90.986L828.48,92.287L829.24,95.342L830,231.16L830.76,137.56L831.52,93.221L832.28,87.951L833.04,90.864L833.8,90.213L834.56,90.935L835.32,89.309L836.08,90.589L836.84,105.36L837.6,138.85L838.36,94.386L839.12,91.623L839.88,194.9L840.64,140.96L841.4,145.18L842.16,150.02L842.92,157.85L843.68,156.34L844.44,159.12L845.2,224.32L845.96,87.056L846.72,87.254L847.48,87.3L848.24,90.403L849,88.171L849.76,96.562L850.52,136.91L851.28,101.65L852.04,106.52L852.8,221.49L853.56,130L854.32,88.126L855.08,91.138L855.84,87.924L856.6,88.771L857.36,90.949L858.12,90.186L858.88,89.341L859.64,88.129L860.4,88.831L861.16,197.34L861.92,99.74L862.68,133.02L863.44,87.226L864.2,107.32L864.96,95.308L865.72,100.09L866.48,129.83L867.24,95.171L868,96.673L868.75,100.89L869.51,105.1L870.27,151.59L871.03,139.82L871.79,88.689L872.55,86.513L873.31,85.011L874.07,86.268L874.83,87.375L875.59,151.71L876.35,217.88L877.11,192.36L877.87,176.41L878.63,168.92L879.39,159L880.15,159.82L880.91,243.53L881.67,88.585L882.43,85.188L883.19,86.019L883.95,87.991L884.71,89.368L885.47,85.75L886.23,198.06L886.99,224.48L887.75,143.98L888.51,109.81L889.27,88.863L890.03,82.881L890.79,85.052L891.55,192.7L892.31,87.168L893.07,88.53L893.83,92.144L894.59,223.02L895.35,214.81L896.11,134.63L896.87,135.68L897.63,131.97L898.39,135.99L899.15,141.42L899.91,144.4L900.67,146.71L901.43,297.71L902.19,305.23L902.95,281.3L903.71,280.63L904.47,282.87L905.23,283.18L905.99,285.49L906.75,343.65L907.51,214.25L908.27,117.85L909.03,140.65L909.79,285.29L910.55,283.54L911.31,280.21L912.07,276.5L912.83,274.59L913.59,272.27L914.35,273.67L915.11,277.04L915.87,280.15L916.63,287.51L917.39,288.32L918.15,404.01L918.91,384.42L919.67,355.9L920.43,360.25L921.19,365.75L921.95,369.68L922.71,374.21L923.47,388.92L924.23,392.17L924.99,380L925.75,386.95L926.51,387.43L927.27,390.97L928.03,402.6L928.79,352.94L929.54,233.98L930.3,237.85L931.06,269.6L931.82,264.62L932.58,271.08L933.34,279.58L934.1,287.94L934.86,291.43L935.62,390.64L936.38,388.09L937.14,337.73L937.9,344.11L938.66,405.49L939.42,382.79L940.18,373.31L940.94,383.93L941.7,396.15L942.46,395.34L943.22,388.32L943.98,390.83L944.74,398.26L945.5,399.28L946.26,430.15L947.02,387.77L947.78,346.29L948.54,348.7L949.3,353.24L950.06,375.65L950.82,383.16L951.58,388.65L952.34,397.66L953.1,393.82L953.86,463.58L954.62,471.56L955.38,410.41L956.14,395L956.9,393.42L957.66,392.11L958.42,389.96L959.18,390.5L959.94,392.48L960.7,385.96L961.46,389.93L962.22,409.77L962.98,453.46L963.74,443.55L964.5,364.9L965.26,362.72L966.02,383.2L966.78,393.51L967.54,391.08L968.3,389.79L969.06,393.34L969.82,429.04L970.58,392.41L971.34,397.47L972.1,390.25L972.86,402.27L973.62,393.33L974.38,397.33L975.14,447.65L975.9,378.36L976.66,231.42L977.42,264.68L978.18,286.32L978.94,296.82L979.7,314.77L980.46,339.63L981.22,361.7L981.98,386.93L982.74,392.16L983.5,390.75L984.26,391.8L985.02,393.44L985.78,418.97L986.54,440.74L987.3,192.11L988.06,89.246L988.82,90.293L989.57,90.966L990.33,92.102L991.09,107.27L991.85,101.14L992.61,107.41L993.37,339.04L994.13,178.14L994.89,90.23L995.65,112.67L996.41,290.56L997.17,310.2L997.93,89.209L998.69,89.321L999.45,87.768L1000.2,80.718L1001,94.102L1001.7,113.93L1002.5,176L1003.3,131.15L1004,92.482L1004.8,88.101L1005.5,91.73L1006.3,90.212L1007.1,206.96L1007.8,163.53L1008.6,141.81L1009.3,186.67L1010.1,169.05L1010.9,91.352L1011.6,87.81L1012.4,88.029L1013.1,88.638L1013.9,168.8L1014.7,214.79L1015.4,182.78L1016.2,197.6L1016.9,186.68L1017.7,227.21L1018.5,90.416L1019.2,90.453L1020,91.121L1020.7,89.734L1021.5,89.74L1022.2,88.763L1023,137.58L1023.8,259.32L1024.5,236.6L1025.3,262.78L1026,209.75L1026.8,89.129L1027.6,88.799L1028.3,88.354L1029.1,90.473L1029.8,88.235L1030.6,88.964L1031.4,112.8L1032.1,255.99L1032.9,140.23L1033.6,165.81L1034.4,224.31L1035.2,89.756L1035.9,90.277L1036.7,91.325L1037.4,87.364L1038.2,97.104L1039,267.56L1039.7,223.33L1040.5,224.24L1041.2,248.89L1042,236.6L1042.8,242.82L1043.5,332.85L1044.3,140.18L1045,90.785L1045.8,86.067L1046.6,94.548L1047.3,176.48L1048.1,271.43L1048.8,234.26L1049.6,216.19L1050.4,213.23L1051.1,206.72L1051.9,208.9L1052.6,208.53L1053.4,248.47L1054.2,183.54L1054.9,91.201L1055.7,89.989L1056.4,251.11L1057.2,258.19L1058,253.28L1058.7,244.25L1059.5,236.54L1060.2,227.69L1061,214.68L1061.8,206.74L1062.5,207.04L1063.3,201.12L1064,241.81L1064.8,310.47L1065.6,147.14L1066.3,177.52L1067.1,144.21L1067.8,132.93L1068.6,129.98L1069.4,128.02L1070.1,128.36L1070.9,129.03L1071.6,224.11L1072.4,197.07L1073.2,171.37L1073.9,171.75L1074.7,206.42L1075.4,285.82L1076.2,324.77L1077,142.51L1077.7,89.632L1078.5,90.959L1079.2,89.91L1080,106.28" style="fill:none;stroke:#F15A60;stroke-width:1.875" />
<path d="M67.088,51.004L67.847,51.893L68.607,52.285L69.367,56.663L70.127,53.034L70.887,53.746L71.647,53.133L72.407,53.519L73.166,55.994L73.926,54.487L74.686,53.988L75.446,53.874L76.206,54.203L76.966,54.253L77.726,56.446L78.486,54.183L79.245,54.384L80.005,54.253L80.765,54.743L81.525,54.295L82.285,56.721L83.045,54.763L83.805,54.79L84.565,54.913L85.324,54.736L86.084,56.256L86.844,54.895L87.604,54.997L88.364,55.628L89.124,54.41L89.884,54.849L90.644,59.205L91.403,55.8L92.163,54.989L92.923,54.357L93.683,54.944L94.443,54.711L95.203,58.454L95.963,54.889L96.723,54.669L97.482,55.202L98.242,54.538L99.002,55.207L99.762,56.071L100.52,55.803L101.28,54.849L102.04,54.991L102.8,55.804L103.56,55.495L104.32,56.574L105.08,55.542L105.84,54.546L106.6,54.822L107.36,56.334L108.12,55.179L108.88,55.986L109.64,56.729L110.4,54.979L111.16,54.286L111.92,54.617L112.68,56.035L113.44,58.689L114.2,55.449L114.96,55.932L115.72,55.237L116.48,55.189L117.24,55.384L118,58.523L118.76,55.897L119.52,55.498L120.28,55.426L121.04,55.175L121.8,54.892L122.56,57.234L123.32,55.199L124.08,55.646L124.84,55.947L125.6,56.506L126.36,55.577L127.12,56.976L127.88,56.206L128.64,54.156L129.4,55.556L130.16,54.411L130.92,55.558L131.68,56.594L132.44,56.082L133.2,57.407L133.96,54.791L134.72,55.804L135.48,57.501L136.24,57.809L137,55.377L137.76,55.065L138.52,56.934L139.28,55.655L140.04,58.158L140.8,54.089L141.56,55.714L142.32,57.131L143.07,56.883L143.83,54.876L144.59,56.85L145.35,55.103L146.11,58.059L146.87,58.411L147.63,55.326L148.39,54.71L149.15,58.239L149.91,55.707L150.67,54.348L151.43,56.55L152.19,60.18L152.95,55.486L153.71,55.054L154.47,57.727L155.23,56.303L155.99,59.442L156.75,55.283L157.51,58.07L158.27,55.378L159.03,56.53L159.79,56.299L160.55,57.015L161.31,60.419L162.07,52.65L162.83,56.312L163.59,60.764L164.35,52.216L165.11,66.456L165.87,55.7L166.63,55.928L167.39,55.897L168.15,55.525L168.91,57.284L169.67,59.377L170.43,56.628L171.19,58.487L171.95,56.436L172.71,56.091L173.47,56.317L174.23,55.819L174.99,58.553L175.75,56.849L176.51,66.283L177.27,53.042L178.03,61.671L178.79,52.382L179.55,64.863L180.31,54.774L181.07,64.277L181.83,53.816L182.59,61.395L183.35,53.874L184.11,59.777L184.87,55.295L185.63,58.552L186.39,58.175L187.15,56.474L187.91,58.806L188.67,55.268L189.43,58.923L190.19,56.144L190.95,62.211L191.71,56.717L192.47,57.147L193.23,56.28L193.99,56.22L194.75,54.667L195.51,57.579L196.27,60.052L197.03,53.042L197.79,61.748L198.55,52.696L199.31,60.389L200.07,54.339L200.83,61.606L201.59,56.813L202.35,59.373L203.11,57.646L203.86,57.848L204.62,52.909L205.38,60.107L206.14,58.852L206.9,57.752L207.66,59.78L208.42,52.519L209.18,69.711L209.94,52.907L210.7,64.518L211.46,54.862L212.22,52.697L212.98,59.119L213.74,53.236L214.5,60.405L215.26,53.961L216.02,61.084L216.78,57.026L217.54,59.958L218.3,55.075L219.06,54.757L219.82,57.051L220.58,61.838L221.34,61.216L222.1,52.452L222.86,58.833L223.62,57.684L224.38,55.398L225.14,65.212L225.9,54.801L226.66,57.448L227.42,58.762L228.18,52.266L228.94,73.22L229.7,52.715L230.46,55.931L231.22,61.591L231.98,52.917L232.74,63.899L233.5,54.624L234.26,53.171L235.02,61.815L235.78,56.636L236.54,61.155L237.3,55.141L238.06,54.799L238.82,60.686L239.58,57.162L240.34,54.33L241.1,60.163L241.86,56.564L242.62,64.027L243.38,52.753L244.14,56.837L244.9,64.683" style="fill:none;stroke:#7AC36A;stroke-width:1.875;stroke-dasharray:7.5,2.5" />
<path d="M67.088,52.1L67.847,52.238L68.607,52.096L69.367,52.999L70.127,54.996L70.887,53.002L71.647,53.302L72.407,53.245L73.166,55.97L73.926,53.682L74.686,53.699L75.446,53.886L76.206,54.34L76.966,56.329L77.726,54.099L78.486,54.349L79.245,53.833L80.005,56.491L80.765,54.184L81.525,54.501L82.285,54.418L83.045,54.571L83.805,56.639L84.565,55.086L85.324,54.066L86.084,54.586L86.844,56.544L87.604,54.989L88.364,55.12L89.124,54.216L89.884,54.496L90.644,55.891L91.403,54.189L92.163,55.309L92.923,54.553L93.683,57.188L94.443,54.876L95.203,54.847L95.963,54.912L96.723,54.192L97.482,56.443L98.242,55.224L99.002,54.334L99.762,54.334L100.52,56.197L101.28,54.592L102.04,55.372L102.8,54.816L103.56,55.249L104.32,57.22L105.08,54.331L105.84,55.214L106.6,54.339L107.36,58.106L108.12,54.569L108.88,55.762L109.64,54.757L110.4,55.735L111.16,56.644L111.92,54.171L112.68,56.477L113.44,54.904L114.2,55.368L114.96,56.714L115.72,56.271L116.48,54.854L117.24,55.224L118,56.629L118.76,56.192L119.52,55.983L120.28,55.648L121.04,56.842L121.8,56.363L122.56,55.442L123.32,56.306L124.08,55.461L124.84,55.979L125.6,55.768L126.36,55.631L127.12,56.095L127.88,55.752L128.64,56.039L129.4,59.155L130.16,55.68L130.92,55.934L131.68,56.071L132.44,54.915L133.2,57.112L133.96,54.869L134.72,54.293L135.48,55.108L136.24,54.768L137,55.855L137.76,55.366L138.52,56.56L139.28,55.856L140.04,56.916L140.8,56.54L141.56,55.894L142.32,55.985L143.07,53.195L143.83,55.533L144.59,55.002L145.35,57.218L146.11,57.135L146.87,56.001L147.63,55.596L148.39,56.571L149.15,54.948L149.91,55.496L150.67,56.725L151.43,55.537L152.19,55.263L152.95,56.166L153.71,56.703L154.47,53.628L155.23,57.21L155.99,57.64L156.75,55.299L157.51,54.326L158.27,57.961L159.03,55.132L159.79,57.749L160.55,53.624L161.31,54.966L162.07,60.624L162.83,53.718L163.59,55.338L164.35,57.955L165.11,56.223L165.87,55.084L166.63,58.15L167.39,54.4L168.15,56.661L168.91,56.026L169.67,57.86L170.43,55.776L171.19,59.26L171.95,53.017L172.71,56.675L173.47,56.808L174.23,55.425L174.99,57.943L175.75,53.476L176.51,56.89L177.27,60.071L178.03,53.644L178.79,57.158L179.55,54.18L180.31,58.039L181.07,59.954L181.83,54.564L182.59,57.307L183.35,54.388L184.11,57.042L184.87,57.132L185.63,55.816L186.39,58.777L187.15,53.388L187.91,59.664L188.67,53.888L189.43,60.872L190.19,52.591L190.95,58.427L191.71,54.72L192.47,58.486L193.23,56.943L193.99,55.208L194.75,59.843L195.51,53.547L196.27,63.308L197.03,53.599L197.79,60.357L198.55,51.739L199.31,62.982L200.07,54.149L200.83,63.816L201.59,52.691L202.35,62.078L203.11,52.607L203.86,62.089L204.62,54.18L205.38,58.961L206.14,53.883L206.9,57.198L207.66,57.641L208.42,58.117L209.18,54.359L209.94,55.518L210.7,56.219L211.46,57.277L212.22,56.949L212.98,55.431L213.74,59.712L214.5,53.684L215.26,65.976L216.02,52.689L216.78,67.064L217.54,52.226L218.3,58.638L219.06,57.755L219.82,52.44L220.58,60.447L221.34,53.074L222.1,64.508L222.86,57.375L223.62,60.185L224.38,53.97L225.14,54.91L225.9,58.527L226.66,59.963L227.42,61.21L228.18,52.364L228.94,57.752L229.7,59.285L230.46,55.358L231.22,62.908L231.98,54.188L232.74,57.756L233.5,60.522L234.26,52.32L235.02,66.015L235.78,55.837L236.54,51.986L237.3,59.91L238.06,53.838L238.82,63.441" style="fill:none;stroke:#5A9BD4;stroke-width:1.875;stroke-dasharray:2.5,2.5" />
<path d="M67.088,51.193L67.847,53.325L68.607,55.035L69.367,54.675L70.127,56.404L70.887,57.604L71.647,56.719L72.407,55.161L73.166,60.79L73.926,60.356L74.686,65.489L75.446,100.12L76.206,111.15L76.966,120.71L77.726,132.82L78.486,139.76L79.245,136.1L80.005,122.12L80.765,138.13L81.525,117.23L82.285,140.77L83.045,103.04L83.805,98.851L84.565,163.04L85.324,140.48L86.084,92.748L86.844,108.73L87.604,90.501L88.364,102L89.124,113.53L89.884,179.73L90.644,159.38L91.403,129.41L92.163,175.62L92.923,115.37L93.683,139.11L94.443,136.53L95.203,144.89L95.963,65.912L96.723,87.638L97.482,117.65L98.242,77.134L99.002,84.236L99.762,69.011L100.52,701.44L101.28,118.05L102.04,80.983L102.8,472.86L103.56,135.11L104.32,617.31L105.08,62.21L105.84,60.364L106.6,56.154L107.36,63.305L108.12,62.033L108.88,60.354L109.64,76.628L110.4,60.253L111.16,73.584L111.92,63.075L112.68,65.392L113.44,105.22L114.2,124.92L114.96,138.11L115.72,106.12L116.48,67.084L117.24,62.135L118,63.443L118.76,115.75L119.52,132.82L120.28,158.54L121.04,68.375L121.8,89.496L122.56,142.28L123.32,160.79L124.08,118.95L124.84,170.23L125.6,191.69L126.36,138.02L127.12,120.92L127.88,139.81L128.64,138.56L129.4,100.72L130.16,146.5L130.92,140.39L131.68,120.94L132.44,125.27L133.2,136.14L133.96,107.46L134.72,127.57L135.48,152.79L136.24,149.75L137,144.12L137.76,106.06L138.52,149.65L139.28,117.34L140.04,152.87L140.8,144.11L141.56,129.72L142.32,180.6L143.07,153.55L143.83,100.41L144.59,143.8L145.35,214.99L146.11,177.45L146.87,208.72L147.63,285.75L148.39,178.83L149.15,156.31L149.91,155.51L150.67,91.249L151.43,58.698L152.19,65.752L152.95,61.265L153.71,70.458L154.47,92.474L155.23,82.049L155.99,64.634L156.75,80.513L157.51,91.483L158.27,68.399L159.03,148.48L159.79,141.61L160.55,137.54L161.31,154.58L162.07,132.62L162.83,63.147L163.59,104L164.35,155.33L165.11,77.882L165.87,150.53L166.63,157.93L167.39,68.408L168.15,61.375L168.91,129.74L169.67,114.04L170.43,93.451L171.19,147.24L171.95,85.765L172.71,60.125L173.47,67.567L174.23,204.66L174.99,196.52L175.75,197.29L176.51,157.92L177.27,145.59L178.03,132.56L178.79,216.59L179.55,346.08L180.31,107.14L181.07,99.769L181.83,114.64L182.59,123.97L183.35,113.95L184.11,102.03L184.87,126.73L185.63,128.85L186.39,126.62L187.15,134.42L187.91,125.01L188.67,112.72L189.43,126.03L190.19,105.48L190.95,112.1L191.71,160.38L192.47,172.21L193.23,156.19L193.99,144.97L194.75,116.3L195.51,132.31L196.27,101.13L197.03,60.993L197.79,72.993L198.55,64.118L199.31,70.134L200.07,71.965L200.83,80.379L201.59,60.299L202.35,89.908L203.11,103.46L203.86,87.238L204.62,165.59L205.38,112.41L206.14,203.76L206.9,93.877L207.66,132.02L208.42,169.42L209.18,75.531L209.94,159.83L210.7,177.43L211.46,99.531L212.22,91.455L212.98,70.71L213.74,121.9L214.5,140.9L215.26,129.65L216.02,63.36L216.78,104.02L217.54,133.32L218.3,80.218L219.06,145.55L219.82,120.19L220.58,67.597L221.34,109.98L222.1,131.61L222.86,132.55L223.62,129.61L224.38,89.815L225.14,153.35L225.9,130.09L226.66,109.88L227.42,137.12L228.18,84.111L228.94,186.87L229.7,161.3L230.46,89.973L231.22,80.708L231.98,102.07L232.74,96.325L233.5,93.582L234.26,88.006L235.02,91.464L235.78,138.95L236.54,163.04L237.3,105.04L238.06,126.87L238.82,91.518L239.58,104.16L240.34,173.99L241.1,130.68L241.86,116.07L242.62,82.095L243.38,68.575L244.14,160.74L244.9,102.13L245.66,61.937L246.42,66.839L247.18,71.159L247.94,221.33L248.7,147.17L249.46,136.6L250.22,154.7L250.98,68.234L251.74,73.808L252.5,113.82L253.26,135.72L254.02,101.2L254.78,130.09L255.54,107.84L256.3,76.456L257.06,113.13L257.82,213.37L258.58,215.38L259.34,149.07L260.1,183.69L260.86,137.27L261.62,73.964L262.38,151.07L263.14,204.15L263.89,201.42L264.65,146.1L265.41,181.7L266.17,64.258L266.93,116.27L267.69,113.55L268.45,72.669L269.21,85.293L269.97,125.75L270.73,74.433L271.49,120.27L272.25,58.5L273.01,75.567L273.77,63.977L274.53,146.06L275.29,77.489L276.05,132.12L276.81,102.87L277.57,152.93L278.33,191.55L279.09,94.165L279.85,173.23L280.61,157.68L281.37,117.49L282.13,64.473L282.89,143.88L283.65,72.229L284.41,107L285.17,125.75L285.93,151.74L286.69,80.84L287.45,135.04L288.21,122.86L288.97,182.75L289.73,58.059L290.49,144.03L291.25,116.05L292.01,140.98L292.77,116.19L293.53,112.39L294.29,70.685L295.05,108.18L295.81,119.94L296.57,177.86L297.33,146.2L298.09,124.32L298.85,146.84L299.61,95.135L300.37,133.98L301.13,205.37L301.89,81.436L302.65,74.451L303.41,55.641L304.17,104.99L304.93,183.25L305.69,190.78L306.45,64.413L307.21,109.12L307.97,79.539L308.73,55.549L309.49,202.32L310.25,124.06L311.01,76.704L311.77,90.769L312.53,100.69L313.29,123.31" style="fill:none;stroke:#FAA75B;stroke-width:1.875;stroke-dasharray:1.25,1.25" />
<path d="M67.088,48.486L67.847,56.742L68.607,53.824L69.367,47.966L70.127,47.873L70.887,47.626L71.647,48.386L72.407,48.051L73.166,47.948L73.926,47.706L74.686,54.235L75.446,50.573L76.206,47.4L76.966,48.34L77.726,47.747L78.486,48.543L79.245,59.044L80.005,47.334L80.765,52.61L81.525,47.837L82.285,48.438L83.045,47.781L83.805,48.129L84.565,47.7L85.324,48.269L86.084,61.01L86.844,48.908L87.604,47.901L88.364,47.827L89.124,64.838L89.884,48.082L90.644,49.155L91.403,47.811L92.163,48.286L92.923,47.804L93.683,48.12L94.443,72.162L95.203,61.496L95.963,47.881L96.723,215.79L97.482,91.678L98.242,50.353L99.002,48.215L99.762,49.658L100.52,51.661L101.28,48.592L102.04,47.776L102.8,48.475L103.56,48.827L104.32,48.519L105.08,48.643L105.84,48.938L106.6,48.205L107.36,48.553L108.12,47.713L108.88,48.335L109.64,48.807L110.4,48.476L111.16,48.602L111.92,51.071L112.68,50.542L113.44,48.362L114.2,193.5L114.96,89.767L115.72,57.834L116.48,51.282L117.24,49.336L118,48.659L118.76,49.532L119.52,48.181L120.28,171.68L121.04,47.356L121.8,48.494L122.56,47.03L123.32,50.342L124.08,49.554L124.84,49.247L125.6,49.387L126.36,49.757L127.12,47.947L127.88,53.639L128.64,50.216L129.4,48.693L130.16,49.726L130.92,50.701L131.68,49.296L132.44,49.363L133.2,48.216L133.96,224.22L134.72,55.396L135.48,52.824L136.24,57.235L137,163.8L137.76,49.72L138.52,50.172L139.28,50.272L140.04,48.724L140.8,50.047L141.56,55.185L142.32,50.251L143.07,50.75L143.83,49.979L144.59,48.856L145.35,49.836L146.11,49.037L146.87,69.523L147.63,47.738L148.39,52.674L149.15,50.247L149.91,49.562L150.67,49.553L151.43,49.868L152.19,49.529L152.95,49.953L153.71,49.521L154.47,49.278L155.23,50.151L155.99,52.939L156.75,61.211L157.51,54.667L158.27,60.809L159.03,50.955L159.79,52.839L160.55,60.078L161.31,49.185L162.07,49.091L162.83,49.525L163.59,49.484L164.35,49.274L165.11,48.806L165.87,49.211L166.63,49.786L167.39,47.921L168.15,58.38L168.91,64.068L169.67,225.09" style="fill:none;stroke:#9E67AB;stroke-width:1.875;stroke-dasharray:6.25,2.5,1.25,2.5" />
<path d="M1055,694.3L1080,694.3" style="fill:none;stroke:#F15A60;stroke-width:1.875" />
<text x="1007.5" y="-687.85" transform="scale(1, -1)"
	style="font-family:Helvetica;font-weight:normal;font-style:normal;font-size:12pt">consul</text>
<path d="M1055,680L1080,680" style="fill:none;stroke:#7AC36A;stroke-width:1.875;stroke-dasharray:7.5,2.5" />
<text x="1014.1" y="-673.56" transform="scale(1, -1)"
	style="font-family:Helvetica;font-weight:normal;font-style:normal;font-size:12pt">etcd3</text>
<path d="M1055,665.71L1080,665.71" style="fill:none;stroke:#5A9BD4;stroke-width:1.875;stroke-dasharray:2.5,2.5" />
<text x="870.77" y="-659.26" transform="scale(1, -1)"
	style="font-family:Helvetica;font-weight:normal;font-style:normal;font-size:12pt">etcd3-100-conns-1k-clients</text>
<path d="M1055,651.41L1080,651.41" style="fill:none;stroke:#FAA75B;stroke-width:1.875;stroke-dasharray:1.25,1.25" />
<text x="1014.1" y="-644.97" transform="scale(1, -1)"
	style="font-family:Helvetica;font-weight:normal;font-style:normal;font-size:12pt">etcd2</text>
<path d="M1055,637.12L1080,637.12" style="fill:none;stroke:#9E67AB;stroke-width:1.875;stroke-dasharray:6.25,2.5,1.25,2.5" />
<text x="1035.8" y="-630.67" transform="scale(1, -1)"
	style="font-family:Helvetica;font-weight:normal;font-style:normal;font-size:12pt">zk</text>
</g>
</svg>
