<?xml version="1.0"?>
<!-- Generated by SVGo and Plotinum VG -->
<svg width="12in" height="8in"
	xmlns="http://www.w3.org/2000/svg"
	xmlns:xlink="http://www.w3.org/1999/xlink">
<g transform="scale(1, -1) translate(0, -720)">
<path d="M0,0L1080,0L1080,720L0,720Z" style="fill:#FFFFFF" />
<text x="321.58" y="-706.41" transform="scale(1, -1)"
	style="font-family:Helvetica;font-weight:normal;font-style:normal;font-size:12pt">Read single key 1M times, 1 client, key 64 bytes, value 1 kb, CPU</text>
<text x="541.16" y="-4.965" transform="scale(1, -1)"
	style="font-family:Helvetica;font-weight:normal;font-style:normal;font-size:12pt">Second</text>
<text x="49.712" y="-19.142" transform="scale(1, -1)"
	style="font-family:Helvetica;font-weight:normal;font-style:normal;font-size:10pt">0</text>
<text x="287.83" y="-19.142" transform="scale(1, -1)"
	style="font-family:Helvetica;font-weight:normal;font-style:normal;font-size:10pt">100</text>
<text x="532.89" y="-19.142" transform="scale(1, -1)"
	style="font-family:Helvetica;font-weight:normal;font-style:normal;font-size:10pt">200</text>
<text x="777.95" y="-19.142" transform="scale(1, -1)"
	style="font-family:Helvetica;font-weight:normal;font-style:normal;font-size:10pt">300</text>
<text x="1023" y="-19.142" transform="scale(1, -1)"
	style="font-family:Helvetica;font-weight:normal;font-style:normal;font-size:10pt">400</text>
<path d="M53.188,30.467L53.188,40.467" style="fill:none;stroke:#000000;stroke-width:0.625" />
<path d="M298.25,30.467L298.25,40.467" style="fill:none;stroke:#000000;stroke-width:0.625" />
<path d="M543.31,30.467L543.31,40.467" style="fill:none;stroke:#000000;stroke-width:0.625" />
<path d="M788.38,30.467L788.38,40.467" style="fill:none;stroke:#000000;stroke-width:0.625" />
<path d="M1033.4,30.467L1033.4,40.467" style="fill:none;stroke:#000000;stroke-width:0.625" />
<path d="M175.72,35.468L175.72,40.467" style="fill:none;stroke:#000000;stroke-width:0.625" />
<path d="M420.78,35.468L420.78,40.467" style="fill:none;stroke:#000000;stroke-width:0.625" />
<path d="M665.84,35.468L665.84,40.467" style="fill:none;stroke:#000000;stroke-width:0.625" />
<path d="M910.91,35.468L910.91,40.467" style="fill:none;stroke:#000000;stroke-width:0.625" />
<path d="M53.188,40.467L1080,40.467" style="fill:none;stroke:#000000;stroke-width:0.625" />
<g transform="rotate(90)">
<text x="358.4" y="13.59" transform="scale(1, -1)"
	style="font-family:Helvetica;font-weight:normal;font-style:normal;font-size:12pt">CPU</text>
</g>
<text x="25.505" y="-183.86" transform="scale(1, -1)"
	style="font-family:Helvetica;font-weight:normal;font-style:normal;font-size:10pt">5</text>
<text x="18.555" y="-385.84" transform="scale(1, -1)"
	style="font-family:Helvetica;font-weight:normal;font-style:normal;font-size:10pt">10</text>
<text x="18.555" y="-587.82" transform="scale(1, -1)"
	style="font-family:Helvetica;font-weight:normal;font-style:normal;font-size:10pt">15</text>
<path d="M35.93,189.22L45.93,189.22" style="fill:none;stroke:#000000;stroke-width:0.625" />
<path d="M35.93,391.2L45.93,391.2" style="fill:none;stroke:#000000;stroke-width:0.625" />
<path d="M35.93,593.18L45.93,593.18" style="fill:none;stroke:#000000;stroke-width:0.625" />
<path d="M40.93,68.036L45.93,68.036" style="fill:none;stroke:#000000;stroke-width:0.625" />
<path d="M40.93,108.43L45.93,108.43" style="fill:none;stroke:#000000;stroke-width:0.625" />
<path d="M40.93,148.83L45.93,148.83" style="fill:none;stroke:#000000;stroke-width:0.625" />
<path d="M40.93,229.62L45.93,229.62" style="fill:none;stroke:#000000;stroke-width:0.625" />
<path d="M40.93,270.02L45.93,270.02" style="fill:none;stroke:#000000;stroke-width:0.625" />
<path d="M40.93,310.41L45.93,310.41" style="fill:none;stroke:#000000;stroke-width:0.625" />
<path d="M40.93,350.81L45.93,350.81" style="fill:none;stroke:#000000;stroke-width:0.625" />
<path d="M40.93,431.6L45.93,431.6" style="fill:none;stroke:#000000;stroke-width:0.625" />
<path d="M40.93,472L45.93,472" style="fill:none;stroke:#000000;stroke-width:0.625" />
<path d="M40.93,512.39L45.93,512.39" style="fill:none;stroke:#000000;stroke-width:0.625" />
<path d="M40.93,552.79L45.93,552.79" style="fill:none;stroke:#000000;stroke-width:0.625" />
<path d="M40.93,633.58L45.93,633.58" style="fill:none;stroke:#000000;stroke-width:0.625" />
<path d="M40.93,673.98L45.93,673.98" style="fill:none;stroke:#000000;stroke-width:0.625" />
<path d="M45.93,47.03L45.93,701.44" style="fill:none;stroke:#000000;stroke-width:0.625" />
<path d="M53.188,93.889L55.638,139.13L58.089,180.34L60.539,216.69L62.99,247.8L65.441,274.46L67.891,300.72L70.342,324.55L72.793,346.36L75.243,366.16L77.694,383.12L80.144,399.69L82.595,414.63L85.046,428.37L87.496,440.49L89.947,452.61L92.398,462.3L94.848,474.42L97.299,484.11L99.749,490.98L102.2,499.87L104.65,508.35L107.1,514.82L109.55,521.28L112,527.74L114.45,534.21L116.9,539.86L119.35,545.92L121.81,550.77L124.26,555.21L126.71,559.25L129.16,563.29L131.61,566.12L134.06,568.95L136.51,571.77L138.96,574.2L141.41,577.03L143.86,579.45L146.31,581.87L148.76,583.49L151.21,585.1L153.66,587.53L156.11,589.55L158.56,591.97L161.02,595.2L163.47,597.63L165.92,599.65L168.37,602.88L170.82,604.9L173.27,607.73L175.72,609.75L178.17,612.57L180.62,614.59L183.07,617.42L185.52,619.04L187.97,620.65L190.42,622.67L192.87,624.69L195.32,627.12L197.77,629.14L200.23,630.75L202.68,631.96L205.13,633.58L207.58,635.2L210.03,636.81L212.48,638.02L214.93,640.04L217.38,640.85L219.83,642.47L222.28,643.68L224.73,644.89L227.18,646.51L229.63,647.72L232.08,648.93L234.53,650.14L236.98,650.95L239.44,652.16L241.89,652.97L244.34,654.18L246.79,655.39L249.24,656.2L251.69,657.41L254.14,658.22L256.59,659.03L259.04,660.24L261.49,661.05L263.94,661.86L266.39,661.86L268.84,662.66L271.29,663.07L273.74,663.47L276.19,663.88L278.65,664.28L281.1,664.68L283.55,664.28L286,664.28L288.45,664.28L290.9,664.68L293.35,665.09L295.8,665.09L298.25,665.49L300.7,666.3L303.15,666.7L305.6,667.51L308.05,667.92L310.5,668.32L312.95,668.32L315.4,668.72L317.86,669.53L320.31,669.53L322.76,669.94L325.21,670.74L327.66,671.15L330.11,671.55L332.56,671.96L335.01,672.36L337.46,672.76L339.91,673.17L342.36,673.57L344.81,673.98L347.26,673.98L349.71,674.38L352.16,674.78L354.61,675.19L357.07,675.59L359.52,675.59L361.97,676.4L364.42,676.4L366.87,676.8L369.32,676.8L371.77,677.21L374.22,677.61L376.67,678.02L379.12,678.42L381.57,678.82L384.02,678.82L386.47,679.63L388.92,679.63L391.37,680.04L393.82,680.44L396.28,680.44L398.73,680.84L401.18,680.84L403.63,681.25L406.08,681.25L408.53,681.65L410.98,682.05L413.43,682.05L415.88,682.86L418.33,682.86L420.78,683.27L423.23,683.27L425.68,682.86L428.13,682.86L430.58,682.86L433.03,682.46L435.49,682.05L437.94,682.05L440.39,682.05L442.84,682.05L445.29,681.65L447.74,681.65L450.19,682.05L452.64,682.05L455.09,682.46L457.54,682.86L459.99,682.86L462.44,682.86L464.89,683.27L467.34,683.67L469.79,684.07L472.24,684.88L474.7,684.88L477.15,685.29L479.6,686.09L482.05,686.09L484.5,686.5L486.95,686.9L489.4,687.31L491.85,687.31L494.3,687.71L496.75,688.11L499.2,688.11L501.65,688.52L504.1,688.92L506.55,689.33L509,689.33L511.45,689.73L513.91,690.13L516.36,690.13L518.81,690.54L521.26,690.54L523.71,690.94L526.16,691.35L528.61,691.35L531.06,691.75L533.51,691.75L535.96,692.15L538.41,692.56L540.86,692.96L543.31,692.96L545.76,693.37L548.21,693.77L550.66,693.77L553.12,694.17L555.57,694.58L558.02,694.58L560.47,694.98L562.92,695.39L565.37,695.39L567.82,695.79L570.27,696.19L572.72,695.79L575.17,695.79L577.62,695.79L580.07,695.79L582.52,695.79L584.97,695.79L587.42,695.79L589.87,695.79L592.33,695.79L594.78,695.79L597.23,695.79L599.68,696.19L602.13,696.6L604.58,696.6L607.03,697L609.48,697.41L611.93,697.81L614.38,697.81L616.83,698.21L619.28,698.21L621.73,698.21L624.18,698.62L626.63,699.02L629.08,699.02L631.54,699.02L633.99,699.02L636.44,699.43L638.89,699.83L641.34,699.83L643.79,700.23L646.24,700.23L648.69,700.64L651.14,700.64L653.59,700.64L656.04,700.64L658.49,700.64L660.94,700.64L663.39,700.64L665.84,701.04L668.29,701.04L670.75,701.04L673.2,701.04L675.65,700.64L678.1,701.04L680.55,701.04L683,701.04L685.45,701.04L687.9,701.04L690.35,701.44L692.8,701.44L695.25,701.44L697.7,701.44L700.15,701.44L702.6,701.44L705.05,701.44" style="fill:none;stroke:#F15A60;stroke-width:1.875" />
<path d="M53.188,156.91L55.638,207.81L58.089,283.75L60.539,297.89L62.99,307.58L65.441,317.68L67.891,326.97L70.342,335.46L72.793,342.32L75.243,347.17L77.694,353.64L80.144,358.48L82.595,362.93L85.046,369.39L87.496,372.22L89.947,377.47L92.398,381.91L94.848,385.95L97.299,390.4L99.749,393.63L102.2,396.05L104.65,398.88L107.1,400.9L109.55,402.11L112,404.13L114.45,404.53L116.9,406.55L119.35,408.57L121.81,410.19L124.26,413.42L126.71,415.04L129.16,417.06L131.61,419.08L134.06,421.1L136.51,422.71L138.96,424.33L141.41,426.35L143.86,427.96L146.31,429.58L148.76,430.79L151.21,432.41L153.66,434.43L156.11,436.04L158.56,437.26L161.02,438.47L163.47,439.68L165.92,440.49L168.37,441.7L170.82,441.7L173.27,441.29L175.72,442.1L178.17,442.1L180.62,442.1L183.07,442.1L185.52,442.1L187.97,442.1L190.42,442.91L192.87,442.51L195.32,443.31L197.77,444.12L200.23,444.53L202.68,445.33L205.13,446.14L207.58,446.55L210.03,446.95L212.48,447.35L214.93,447.35L217.38,447.35L219.83,447.76L222.28,447.76L224.73,447.76L227.18,447.76L229.63,448.57L232.08,449.37L234.53,449.37L236.98,450.18L239.44,450.99L241.89,451.39L244.34,451.8L246.79,451.8L249.24,451.8L251.69,451.39L254.14,451.39L256.59,451.39L259.04,451.39L261.49,451.39L263.94,451.39L266.39,451.39L268.84,451.39L271.29,451.39L273.74,451.39L276.19,451.8L278.65,452.2L281.1,452.61L283.55,452.2L286,452.2L288.45,452.2L290.9,452.61L293.35,452.61L295.8,452.2L298.25,453.01L300.7,453.41L303.15,453.01L305.6,453.01L308.05,452.61L310.5,453.01L312.95,452.61L315.4,452.2L317.86,452.2L320.31,452.2L322.76,452.2L325.21,452.61L327.66,452.2L330.11,452.61L332.56,453.01L335.01,453.41L337.46,453.41L339.91,453.01L342.36,452.61L344.81,453.01L347.26,452.61L349.71,453.01L352.16,453.01L354.61,453.01L357.07,452.61L359.52,452.61L361.97,452.61L364.42,452.61L366.87,453.01L369.32,453.41L371.77,453.41L374.22,453.82L376.67,454.22L379.12,454.22L381.57,454.63L384.02,454.63L386.47,455.03L388.92,455.03L391.37,454.63L393.82,454.63L396.28,454.63L398.73,455.03L401.18,455.03L403.63,455.03L406.08,455.03L408.53,455.03L410.98,455.43L413.43,455.43L415.88,455.03L418.33,455.03L420.78,455.03L423.23,455.03L425.68,455.43L428.13,455.03L430.58,455.43L433.03,455.43L435.49,455.43L437.94,455.84L440.39,455.84L442.84,456.24L445.29,456.24L447.74,456.24L450.19,456.24L452.64,456.24L455.09,456.24L457.54,455.84L459.99,455.84L462.44,456.24L464.89,456.24L467.34,456.65L469.79,456.65L472.24,456.65L474.7,457.05L477.15,457.05L479.6,457.05L482.05,457.05L484.5,457.45L486.95,457.45L489.4,457.45L491.85,457.45L494.3,457.45L496.75,457.86L499.2,457.86L501.65,457.86L504.1,457.86L506.55,458.26L509,458.26L511.45,458.67L513.91,458.67L516.36,458.67L518.81,459.07L521.26,459.07L523.71,459.07L526.16,459.07L528.61,459.47L531.06,459.07L533.51,459.07L535.96,459.07L538.41,458.67L540.86,458.67L543.31,459.07L545.76,459.07L548.21,459.07L550.66,458.67L553.12,458.67L555.57,458.26L558.02,458.26L560.47,458.67L562.92,458.26L565.37,458.26L567.82,458.67L570.27,458.67L572.72,458.67L575.17,458.67L577.62,458.67L580.07,458.67L582.52,458.67L584.97,459.07L587.42,459.07L589.87,459.07L592.33,459.47L594.78,459.47L597.23,459.47L599.68,459.47L602.13,459.47L604.58,459.88L607.03,459.88L609.48,459.88L611.93,459.88L614.38,460.28L616.83,460.28L619.28,460.28L621.73,460.28L624.18,460.28L626.63,460.28L629.08,460.68L631.54,461.09L633.99,461.09L636.44,461.09L638.89,461.09L641.34,461.09L643.79,461.09L646.24,461.09L648.69,461.49L651.14,461.49L653.59,461.9L656.04,461.9L658.49,462.3L660.94,462.3L663.39,462.7L665.84,462.7L668.29,463.11L670.75,463.11L673.2,463.51L675.65,463.51L678.1,463.92L680.55,463.92L683,463.92L685.45,463.92" style="fill:none;stroke:#7AC36A;stroke-width:1.875;stroke-dasharray:7.5,2.5" />
<path d="M53.188,47.03L55.638,87.022L58.089,116.92L60.539,145.19L62.99,176.3L65.441,198.51L67.891,217.91L70.342,236.08L72.793,252.65L75.243,267.59L77.694,279.31L80.144,291.02L82.595,306.37L85.046,317.68L87.496,328.19L89.947,337.88L92.398,346.77L94.848,356.06L97.299,363.73L99.749,370.6L102.2,377.07L104.65,381.91L107.1,387.57L109.55,392.42L112,397.67L114.45,402.92L116.9,406.15L119.35,410.19L121.81,414.63L124.26,418.67L126.71,423.12L129.16,426.75L131.61,429.98L134.06,434.02L136.51,436.85L138.96,440.08L141.41,443.72L143.86,446.55L146.31,448.57L148.76,450.59L151.21,452.2L153.66,453.41L156.11,454.63L158.56,455.43L161.02,456.65L163.47,457.05L165.92,458.26L168.37,459.47L170.82,460.28L173.27,461.49L175.72,463.92L178.17,465.53L180.62,467.15L183.07,468.36L185.52,469.98L187.97,471.59L190.42,473.21L192.87,474.82L195.32,476.44L197.77,478.06L200.23,479.67L202.68,480.88L205.13,482.09L207.58,483.31L210.03,484.52L212.48,485.73L214.93,486.54L217.38,487.75L219.83,488.56L222.28,489.37L224.73,490.17L227.18,490.58L229.63,491.79L232.08,492.6L234.53,493.81L236.98,494.62L239.44,495.02L241.89,495.43L244.34,496.23L246.79,497.85L249.24,498.25L251.69,499.06L254.14,499.47L256.59,500.68L259.04,501.48L261.49,502.7L263.94,503.1L266.39,504.31L268.84,505.93L271.29,506.74L273.74,507.54L276.19,507.95L278.65,509.16L281.1,509.56L283.55,510.78L286,511.58L288.45,512.8L290.9,513.6L293.35,514.01L295.8,514.82L298.25,515.22L300.7,515.62L303.15,516.43L305.6,516.43L308.05,516.84L310.5,517.24L312.95,518.05L315.4,518.45L317.86,518.86L320.31,519.26L322.76,520.07L325.21,520.47L327.66,521.68L330.11,522.09L332.56,522.89L335.01,523.3L337.46,523.7L339.91,524.11L342.36,524.91L344.81,525.32L347.26,526.13L349.71,526.53L352.16,526.93L354.61,527.74L357.07,528.15L359.52,528.95L361.97,529.36L364.42,529.76L366.87,530.57L369.32,530.97L371.77,531.38L374.22,531.78L376.67,531.78L379.12,532.19L381.57,532.99L384.02,532.99L386.47,533.8L388.92,533.8L391.37,534.21L393.82,534.61L396.28,534.61L398.73,535.01L401.18,535.42L403.63,535.82L406.08,536.23L408.53,537.03L410.98,537.44L413.43,537.84L415.88,538.25L418.33,538.25L420.78,538.65L423.23,539.05L425.68,539.05L428.13,539.86L430.58,540.27L433.03,540.27L435.49,540.67L437.94,540.67L440.39,541.07L442.84,541.07L445.29,541.07L447.74,541.07L450.19,541.07L452.64,541.07L455.09,541.48L457.54,541.48L459.99,541.48L462.44,541.48L464.89,541.88L467.34,541.88L469.79,542.28L472.24,542.69L474.7,542.69L477.15,543.09L479.6,543.5L482.05,543.9L484.5,543.9L486.95,544.3L489.4,544.3L491.85,544.71L494.3,545.52L496.75,545.52L499.2,545.52L501.65,546.32L504.1,546.73L506.55,546.73L509,547.13L511.45,547.54L513.91,547.54L516.36,547.94L518.81,548.34L521.26,548.75L523.71,549.15L526.16,549.15L528.61,549.56L531.06,549.56L533.51,549.96L535.96,550.36L538.41,550.77L540.86,550.77L543.31,551.17L545.76,551.58L548.21,551.58L550.66,551.98L553.12,551.98L555.57,552.38L558.02,552.79L560.47,553.19L562.92,553.19L565.37,553.6L567.82,554L570.27,554.4L572.72,554.81L575.17,554.81L577.62,555.21L580.07,555.62L582.52,555.62L584.97,556.02L587.42,556.42L589.87,556.42L592.33,556.83L594.78,556.83L597.23,556.83L599.68,556.83L602.13,556.83L604.58,557.23L607.03,557.23L609.48,557.23L611.93,557.23L614.38,557.64L616.83,557.64L619.28,558.04L621.73,558.44L624.18,558.44L626.63,558.85L629.08,558.85L631.54,559.25L633.99,559.66L636.44,559.66L638.89,560.06L641.34,560.06L643.79,560.46L646.24,560.87L648.69,561.27L651.14,561.27L653.59,561.67L656.04,561.67L658.49,561.67L660.94,562.08L663.39,562.08L665.84,562.48L668.29,562.48L670.75,562.89L673.2,562.89L675.65,563.29L678.1,563.69L680.55,563.69L683,564.1L685.45,564.1L687.9,564.5L690.35,564.5L692.8,564.5L695.25,564.91L697.7,564.91L700.15,564.91L702.6,565.31L705.05,565.31L707.5,565.31L709.96,565.71L712.41,565.71L714.86,565.71L717.31,566.12L719.76,566.12L722.21,566.12L724.66,566.52L727.11,566.52L729.56,566.52L732.01,566.93L734.46,566.93L736.91,567.33L739.36,566.93L741.81,566.93L744.26,567.33L746.71,566.93L749.17,566.93L751.62,566.93L754.07,566.93L756.52,567.33L758.97,567.33L761.42,567.33L763.87,567.73L766.32,568.14L768.77,568.14L771.22,568.14L773.67,568.54L776.12,568.54L778.57,568.95L781.02,568.95L783.47,568.95L785.92,569.35L788.38,569.35L790.83,569.35L793.28,569.35L795.73,569.75L798.18,569.75L800.63,569.75L803.08,570.16L805.53,570.16L807.98,570.16L810.43,570.16L812.88,570.16L815.33,570.56L817.78,570.56L820.23,570.97L822.68,570.97L825.13,570.97L827.59,571.37L830.04,571.37L832.49,571.77L834.94,571.77L837.39,571.77L839.84,572.18L842.29,572.18L844.74,572.18L847.19,572.18L849.64,572.58L852.09,572.58L854.54,572.58L856.99,572.58L859.44,572.99L861.89,572.99L864.34,572.99L866.8,573.39L869.25,573.39L871.7,573.39L874.15,573.79L876.6,573.79L879.05,573.79L881.5,573.79L883.95,573.79L886.4,573.79L888.85,573.79L891.3,573.79L893.75,573.79L896.2,573.39L898.65,573.79L901.1,573.39L903.55,573.79L906.01,573.79L908.46,573.79L910.91,573.79L913.36,574.2L915.81,574.2L918.26,574.2L920.71,574.2L923.16,574.6L925.61,574.6L928.06,574.6L930.51,575.01L932.96,575.01L935.41,575.01L937.86,575.01L940.31,575.41L942.76,575.41L945.22,575.41L947.67,575.81L950.12,575.81L952.57,575.81L955.02,576.22L957.47,576.22L959.92,576.22L962.37,576.62L964.82,576.62L967.27,576.62L969.72,576.62L972.17,577.03L974.62,577.03L977.07,577.03L979.52,577.03L981.97,577.43L984.43,577.43L986.88,577.43L989.33,577.43L991.78,577.43L994.23,577.83L996.68,577.83L999.13,577.83L1001.6,577.83L1004,577.83L1006.5,578.24L1008.9,578.24L1011.4,578.24L1013.8,578.24L1016.3,578.64L1018.7,578.64L1021.2,578.64L1023.6,578.64L1026.1,578.64L1028.5,578.64L1031,578.64L1033.4,578.64L1035.9,578.64L1038.3,578.64L1040.8,578.64L1043.2,578.64L1045.7,578.64L1048.1,578.64L1050.6,578.64L1053,578.64L1055.5,578.64L1057.9,578.64L1060.4,578.64L1062.8,579.05L1065.3,579.05L1067.7,579.05L1070.2,579.05L1072.6,579.45L1075.1,579.45L1077.5,579.45L1080,579.45" style="fill:none;stroke:#5A9BD4;stroke-width:1.875;stroke-dasharray:2.5,2.5" />
<path d="M1055,694.3L1080,694.3" style="fill:none;stroke:#F15A60;stroke-width:1.875" />
<text x="1002.5" y="-687.85" transform="scale(1, -1)"
	style="font-family:Helvetica;font-weight:normal;font-style:normal;font-size:12pt">etcd v3</text>
<path d="M1055,680L1080,680" style="fill:none;stroke:#7AC36A;stroke-width:1.875;stroke-dasharray:7.5,2.5" />
<text x="941.6" y="-673.56" transform="scale(1, -1)"
	style="font-family:Helvetica;font-weight:normal;font-style:normal;font-size:12pt">Zookeeper 3.4.8</text>
<path d="M1055,665.71L1080,665.71" style="fill:none;stroke:#5A9BD4;stroke-width:1.875;stroke-dasharray:2.5,2.5" />
<text x="966.62" y="-659.26" transform="scale(1, -1)"
	style="font-family:Helvetica;font-weight:normal;font-style:normal;font-size:12pt">Consul 0.6.4</text>
</g>
</svg>
