<?xml version="1.0"?>
<!-- Generated by SVGo and Plotinum VG -->
<svg width="12in" height="8in"
	xmlns="http://www.w3.org/2000/svg"
	xmlns:xlink="http://www.w3.org/1999/xlink">
<g transform="scale(1, -1) translate(0, -720)">
<path d="M0,0L1080,0L1080,720L0,720Z" style="fill:#FFFFFF" />
<text x="309.49" y="-706.41" transform="scale(1, -1)"
	style="font-family:Helvetica;font-weight:normal;font-style:normal;font-size:12pt">Read single key 1M times, 100 clients, key 64 bytes, value 1 kb, CPU</text>
<text x="544.64" y="-4.965" transform="scale(1, -1)"
	style="font-family:Helvetica;font-weight:normal;font-style:normal;font-size:12pt">Second</text>
<text x="56.662" y="-19.142" transform="scale(1, -1)"
	style="font-family:Helvetica;font-weight:normal;font-style:normal;font-size:10pt">0</text>
<text x="322.71" y="-19.142" transform="scale(1, -1)"
	style="font-family:Helvetica;font-weight:normal;font-style:normal;font-size:10pt">6</text>
<text x="585.29" y="-19.142" transform="scale(1, -1)"
	style="font-family:Helvetica;font-weight:normal;font-style:normal;font-size:10pt">12</text>
<text x="851.34" y="-19.142" transform="scale(1, -1)"
	style="font-family:Helvetica;font-weight:normal;font-style:normal;font-size:10pt">18</text>
<path d="M60.137,30.467L60.137,40.467" style="fill:none;stroke:#000000;stroke-width:0.625" />
<path d="M326.19,30.467L326.19,40.467" style="fill:none;stroke:#000000;stroke-width:0.625" />
<path d="M592.24,30.467L592.24,40.467" style="fill:none;stroke:#000000;stroke-width:0.625" />
<path d="M858.29,30.467L858.29,40.467" style="fill:none;stroke:#000000;stroke-width:0.625" />
<path d="M148.82,35.468L148.82,40.467" style="fill:none;stroke:#000000;stroke-width:0.625" />
<path d="M237.5,35.468L237.5,40.467" style="fill:none;stroke:#000000;stroke-width:0.625" />
<path d="M414.87,35.468L414.87,40.467" style="fill:none;stroke:#000000;stroke-width:0.625" />
<path d="M503.56,35.468L503.56,40.467" style="fill:none;stroke:#000000;stroke-width:0.625" />
<path d="M680.92,35.468L680.92,40.467" style="fill:none;stroke:#000000;stroke-width:0.625" />
<path d="M769.61,35.468L769.61,40.467" style="fill:none;stroke:#000000;stroke-width:0.625" />
<path d="M946.97,35.468L946.97,40.467" style="fill:none;stroke:#000000;stroke-width:0.625" />
<path d="M1035.7,35.468L1035.7,40.467" style="fill:none;stroke:#000000;stroke-width:0.625" />
<path d="M60.137,40.467L1080,40.467" style="fill:none;stroke:#000000;stroke-width:0.625" />
<g transform="rotate(90)">
<text x="358.4" y="13.59" transform="scale(1, -1)"
	style="font-family:Helvetica;font-weight:normal;font-style:normal;font-size:12pt">CPU</text>
</g>
<text x="25.505" y="-223.2" transform="scale(1, -1)"
	style="font-family:Helvetica;font-weight:normal;font-style:normal;font-size:10pt">60</text>
<text x="18.555" y="-408.94" transform="scale(1, -1)"
	style="font-family:Helvetica;font-weight:normal;font-style:normal;font-size:10pt">120</text>
<text x="18.555" y="-594.69" transform="scale(1, -1)"
	style="font-family:Helvetica;font-weight:normal;font-style:normal;font-size:10pt">180</text>
<path d="M42.88,228.57L52.88,228.57" style="fill:none;stroke:#000000;stroke-width:0.625" />
<path d="M42.88,414.31L52.88,414.31" style="fill:none;stroke:#000000;stroke-width:0.625" />
<path d="M42.88,600.06L52.88,600.06" style="fill:none;stroke:#000000;stroke-width:0.625" />
<path d="M47.88,104.74L52.88,104.74" style="fill:none;stroke:#000000;stroke-width:0.625" />
<path d="M47.88,166.65L52.88,166.65" style="fill:none;stroke:#000000;stroke-width:0.625" />
<path d="M47.88,290.48L52.88,290.48" style="fill:none;stroke:#000000;stroke-width:0.625" />
<path d="M47.88,352.4L52.88,352.4" style="fill:none;stroke:#000000;stroke-width:0.625" />
<path d="M47.88,476.23L52.88,476.23" style="fill:none;stroke:#000000;stroke-width:0.625" />
<path d="M47.88,538.14L52.88,538.14" style="fill:none;stroke:#000000;stroke-width:0.625" />
<path d="M47.88,661.97L52.88,661.97" style="fill:none;stroke:#000000;stroke-width:0.625" />
<path d="M52.88,47.03L52.88,701.44" style="fill:none;stroke:#000000;stroke-width:0.625" />
<path d="M60.137,118.33L104.48,186.22L148.82,249L193.16,303.89L237.5,352.06L281.85,395.09L326.19,433.82L370.53,467.99L414.87,499.72L459.21,527.68L503.56,553.37L547.9,577.37L592.24,599.63L636.58,619.72L680.92,638.26L725.27,655.91L769.61,672.69L813.95,687.48L858.29,701.44" style="fill:none;stroke:#F15A60;stroke-width:1.875" />
<path d="M60.137,69.32L104.48,126.03L148.82,168.57L193.16,200.21L237.5,228.01L281.85,253.15L326.19,276.02L370.53,296.05" style="fill:none;stroke:#7AC36A;stroke-width:1.875;stroke-dasharray:7.5,2.5" />
<path d="M60.137,47.03L104.48,110.31L148.82,166.74L193.16,218.88L237.5,270.3L281.85,313.92L326.19,353.64L370.53,387.84L414.87,405.55L459.21,411.87L503.56,428.61L547.9,453.1L592.24,475.02L636.58,495.64L680.92,515.02L725.27,532.82L769.61,549.13L813.95,563.71L858.29,578.05L902.63,590.71L946.97,603.68L991.32,615.6L1035.7,626.56L1080,636.96" style="fill:none;stroke:#5A9BD4;stroke-width:1.875;stroke-dasharray:2.5,2.5" />
<path d="M1055,694.3L1080,694.3" style="fill:none;stroke:#F15A60;stroke-width:1.875" />
<text x="1002.5" y="-687.85" transform="scale(1, -1)"
	style="font-family:Helvetica;font-weight:normal;font-style:normal;font-size:12pt">etcd v3</text>
<path d="M1055,680L1080,680" style="fill:none;stroke:#7AC36A;stroke-width:1.875;stroke-dasharray:7.5,2.5" />
<text x="941.6" y="-673.56" transform="scale(1, -1)"
	style="font-family:Helvetica;font-weight:normal;font-style:normal;font-size:12pt">Zookeeper 3.4.8</text>
<path d="M1055,665.71L1080,665.71" style="fill:none;stroke:#5A9BD4;stroke-width:1.875;stroke-dasharray:2.5,2.5" />
<text x="966.62" y="-659.26" transform="scale(1, -1)"
	style="font-family:Helvetica;font-weight:normal;font-style:normal;font-size:12pt">Consul 0.6.4</text>
</g>
</svg>
