<?xml version="1.0"?>
<!-- Generated by SVGo and Plotinum VG -->
<svg width="12in" height="8in"
	xmlns="http://www.w3.org/2000/svg"
	xmlns:xlink="http://www.w3.org/1999/xlink">
<g transform="scale(1, -1) translate(0, -720)">
<path d="M0,0L1080,0L1080,720L0,720Z" style="fill:#FFFFFF" />
<text x="320.72" y="-706.41" transform="scale(1, -1)"
	style="font-family:Helvetica;font-weight:normal;font-style:normal;font-size:12pt">Read 1M keys, 1000 clients, key 64 bytes, value 1 kb, Throughput</text>
<text x="554.75" y="-4.965" transform="scale(1, -1)"
	style="font-family:Helvetica;font-weight:normal;font-style:normal;font-size:12pt">second</text>
<text x="81.337" y="-19.142" transform="scale(1, -1)"
	style="font-family:Helvetica;font-weight:normal;font-style:normal;font-size:10pt">0</text>
<text x="410.75" y="-19.142" transform="scale(1, -1)"
	style="font-family:Helvetica;font-weight:normal;font-style:normal;font-size:10pt">8</text>
<text x="736.69" y="-19.142" transform="scale(1, -1)"
	style="font-family:Helvetica;font-weight:normal;font-style:normal;font-size:10pt">16</text>
<text x="1066.1" y="-19.142" transform="scale(1, -1)"
	style="font-family:Helvetica;font-weight:normal;font-style:normal;font-size:10pt">24</text>
<path d="M84.812,30.467L84.812,40.467" style="fill:none;stroke:#000000;stroke-width:0.625" />
<path d="M414.23,30.467L414.23,40.467" style="fill:none;stroke:#000000;stroke-width:0.625" />
<path d="M743.64,30.467L743.64,40.467" style="fill:none;stroke:#000000;stroke-width:0.625" />
<path d="M1073,30.467L1073,40.467" style="fill:none;stroke:#000000;stroke-width:0.625" />
<path d="M249.52,35.468L249.52,40.467" style="fill:none;stroke:#000000;stroke-width:0.625" />
<path d="M578.93,35.468L578.93,40.467" style="fill:none;stroke:#000000;stroke-width:0.625" />
<path d="M908.34,35.468L908.34,40.467" style="fill:none;stroke:#000000;stroke-width:0.625" />
<path d="M84.812,40.467L1073,40.467" style="fill:none;stroke:#000000;stroke-width:0.625" />
<g transform="rotate(90)">
<text x="335.88" y="13.59" transform="scale(1, -1)"
	style="font-family:Helvetica;font-weight:normal;font-style:normal;font-size:12pt">Throughput</text>
</g>
<text x="28.98" y="-242.58" transform="scale(1, -1)"
	style="font-family:Helvetica;font-weight:normal;font-style:normal;font-size:10pt">4e+04</text>
<text x="28.98" y="-443.54" transform="scale(1, -1)"
	style="font-family:Helvetica;font-weight:normal;font-style:normal;font-size:10pt">8e+04</text>
<text x="18.555" y="-644.49" transform="scale(1, -1)"
	style="font-family:Helvetica;font-weight:normal;font-style:normal;font-size:10pt">1.2e+05</text>
<path d="M67.555,247.95L77.555,247.95" style="fill:none;stroke:#000000;stroke-width:0.625" />
<path d="M67.555,448.9L77.555,448.9" style="fill:none;stroke:#000000;stroke-width:0.625" />
<path d="M67.555,649.86L77.555,649.86" style="fill:none;stroke:#000000;stroke-width:0.625" />
<path d="M72.555,147.47L77.555,147.47" style="fill:none;stroke:#000000;stroke-width:0.625" />
<path d="M72.555,348.43L77.555,348.43" style="fill:none;stroke:#000000;stroke-width:0.625" />
<path d="M72.555,549.38L77.555,549.38" style="fill:none;stroke:#000000;stroke-width:0.625" />
<path d="M77.555,47.03L77.555,701.44" style="fill:none;stroke:#000000;stroke-width:0.625" />
<path d="M84.812,195.85L125.99,251.46L167.17,253.31L208.34,254.78L249.52,254.17L290.7,258.44L331.87,257.28L373.05,231.42L414.23,156.6L455.4,183.01L496.58,252.75L537.75,257.04L578.93,252.48L620.11,257.2L661.28,256.25L702.46,256.86L743.64,253.3L784.81,258.18L825.99,253.75L867.17,255.99L908.34,259.74L949.52,255.76L990.7,257.18L1031.9,255.97L1073,254.51" style="fill:none;stroke:#F15A60;stroke-width:1.875" />
<path d="M84.812,348.64L125.99,323.41L167.17,289.48L208.34,293.73L249.52,289.62L290.7,291.33L331.87,290.51L373.05,289.94L414.23,289.35L455.4,291.51L496.58,287.13L537.75,288.08L578.93,289.73L620.11,285.98L661.28,296.25L702.46,290.09L743.64,289.46L784.81,289.62L825.99,290.24L867.17,291.6" style="fill:none;stroke:#7AC36A;stroke-width:1.875;stroke-dasharray:7.5,2.5" />
<path d="M84.812,96.224L125.99,187.25L167.17,171.19L208.34,175.86L249.52,180.65L290.7,155.43L331.87,50.411L373.05,48.226L414.23,49.06L455.4,47.794L496.58,47.954L537.75,47.291L578.93,47.432L620.11,47.045L661.28,47.442L702.46,47.226L743.64,47.03" style="fill:none;stroke:#5A9BD4;stroke-width:1.875;stroke-dasharray:2.5,2.5" />
<path d="M84.812,119.78L125.99,277.69L167.17,453.4L208.34,662.4L249.52,674.64L290.7,663.97L331.87,660.03L373.05,683.99L414.23,701.44" style="fill:none;stroke:#FAA75B;stroke-width:1.875;stroke-dasharray:1.25,1.25" />
<path d="M1055,694.3L1080,694.3" style="fill:none;stroke:#F15A60;stroke-width:1.875" />
<text x="1007.5" y="-687.85" transform="scale(1, -1)"
	style="font-family:Helvetica;font-weight:normal;font-style:normal;font-size:12pt">consul</text>
<path d="M1055,680L1080,680" style="fill:none;stroke:#7AC36A;stroke-width:1.875;stroke-dasharray:7.5,2.5" />
<text x="1014.1" y="-673.56" transform="scale(1, -1)"
	style="font-family:Helvetica;font-weight:normal;font-style:normal;font-size:12pt">etcd3</text>
<path d="M1055,665.71L1080,665.71" style="fill:none;stroke:#5A9BD4;stroke-width:1.875;stroke-dasharray:2.5,2.5" />
<text x="1014.1" y="-659.26" transform="scale(1, -1)"
	style="font-family:Helvetica;font-weight:normal;font-style:normal;font-size:12pt">etcd2</text>
<path d="M1055,651.41L1080,651.41" style="fill:none;stroke:#FAA75B;stroke-width:1.875;stroke-dasharray:1.25,1.25" />
<text x="1035.8" y="-644.97" transform="scale(1, -1)"
	style="font-family:Helvetica;font-weight:normal;font-style:normal;font-size:12pt">zk</text>
</g>
</svg>
