<?xml version="1.0"?>
<!-- Generated by SVGo and Plotinum VG -->
<svg width="12in" height="8in"
	xmlns="http://www.w3.org/2000/svg"
	xmlns:xlink="http://www.w3.org/1999/xlink">
<g transform="scale(1, -1) translate(0, -720)">
<path d="M0,0L1080,0L1080,720L0,720Z" style="fill:#FFFFFF" />
<text x="302.81" y="-706.41" transform="scale(1, -1)"
	style="font-family:Helvetica;font-weight:normal;font-style:normal;font-size:12pt">Write 3M keys, 1000 clients, key 64 bytes, value 256 bytes, Throughput</text>
<text x="553.01" y="-4.965" transform="scale(1, -1)"
	style="font-family:Helvetica;font-weight:normal;font-style:normal;font-size:12pt">second</text>
<text x="70.912" y="-19.142" transform="scale(1, -1)"
	style="font-family:Helvetica;font-weight:normal;font-style:normal;font-size:10pt">0</text>
<text x="365.72" y="-19.142" transform="scale(1, -1)"
	style="font-family:Helvetica;font-weight:normal;font-style:normal;font-size:10pt">400</text>
<text x="667.48" y="-19.142" transform="scale(1, -1)"
	style="font-family:Helvetica;font-weight:normal;font-style:normal;font-size:10pt">800</text>
<text x="965.77" y="-19.142" transform="scale(1, -1)"
	style="font-family:Helvetica;font-weight:normal;font-style:normal;font-size:10pt">1200</text>
<path d="M74.388,30.467L74.388,40.467" style="fill:none;stroke:#000000;stroke-width:0.625" />
<path d="M376.15,30.467L376.15,40.467" style="fill:none;stroke:#000000;stroke-width:0.625" />
<path d="M677.91,30.467L677.91,40.467" style="fill:none;stroke:#000000;stroke-width:0.625" />
<path d="M979.67,30.467L979.67,40.467" style="fill:none;stroke:#000000;stroke-width:0.625" />
<path d="M225.27,35.468L225.27,40.467" style="fill:none;stroke:#000000;stroke-width:0.625" />
<path d="M527.03,35.468L527.03,40.467" style="fill:none;stroke:#000000;stroke-width:0.625" />
<path d="M828.79,35.468L828.79,40.467" style="fill:none;stroke:#000000;stroke-width:0.625" />
<path d="M74.388,40.467L1080,40.467" style="fill:none;stroke:#000000;stroke-width:0.625" />
<g transform="rotate(90)">
<text x="335.88" y="13.59" transform="scale(1, -1)"
	style="font-family:Helvetica;font-weight:normal;font-style:normal;font-size:12pt">Throughput</text>
</g>
<text x="18.555" y="-230.87" transform="scale(1, -1)"
	style="font-family:Helvetica;font-weight:normal;font-style:normal;font-size:10pt">1e+04</text>
<text x="18.555" y="-420.1" transform="scale(1, -1)"
	style="font-family:Helvetica;font-weight:normal;font-style:normal;font-size:10pt">2e+04</text>
<text x="18.555" y="-609.33" transform="scale(1, -1)"
	style="font-family:Helvetica;font-weight:normal;font-style:normal;font-size:10pt">3e+04</text>
<path d="M57.13,236.24L67.13,236.24" style="fill:none;stroke:#000000;stroke-width:0.625" />
<path d="M57.13,425.47L67.13,425.47" style="fill:none;stroke:#000000;stroke-width:0.625" />
<path d="M57.13,614.7L67.13,614.7" style="fill:none;stroke:#000000;stroke-width:0.625" />
<path d="M62.13,141.63L67.13,141.63" style="fill:none;stroke:#000000;stroke-width:0.625" />
<path d="M62.13,330.86L67.13,330.86" style="fill:none;stroke:#000000;stroke-width:0.625" />
<path d="M62.13,520.09L67.13,520.09" style="fill:none;stroke:#000000;stroke-width:0.625" />
<path d="M67.13,47.03L67.13,701.44" style="fill:none;stroke:#000000;stroke-width:0.625" />
<path d="M74.388,81.224L75.142,138.35L75.896,129.65L76.651,137.03L77.405,130.58L78.159,128.15L78.914,140.26L79.668,134.21L80.423,126.94L81.177,133.98L81.931,135.65L82.686,131.77L83.44,126.05L84.195,137.18L84.949,133.34L85.703,124.86L86.458,130.22L87.212,135.42L87.967,130.67L88.721,138.96L89.475,129.72L90.23,133.85L90.984,130.56L91.739,136.63L92.493,130.58L93.247,136.63L94.002,131.79L94.756,133.75L95.511,132.24L96.265,128.15L97.019,131.79L97.774,128.15L98.528,134.21L99.283,131.58L100.04,136.35L100.79,128.65L101.55,125.73L102.3,135.4L103.05,131.79L103.81,131.77L104.56,131.79L105.32,136.12L106.07,140.77L106.83,115.93L107.58,139.79L108.34,136.63L109.09,133.51L109.84,134.89L110.6,130.58L111.35,134.21L112.11,130.58L112.86,131.79L113.62,131.79L114.37,128.15L115.12,134.76L115.88,138.5L116.63,135.42L117.39,122.95L118.14,130.92L118.9,132.58L119.65,129.78L120.41,129.36L121.16,134.21L121.91,131.79L122.67,134.3L123.42,122.4L124.18,88.509L124.93,86.276L125.69,70.627L126.44,65.877L127.2,65.631L127.95,61.998L128.7,61.752L129.46,55.129L130.21,60.163L130.97,54.448L131.72,59.898L132.48,56.189L133.23,57.4L133.98,57.324L134.74,57.438L135.49,59.822L136.25,55.11L137,59.046L137.76,54.315L138.51,60.901L139.27,53.502L140.02,59.841L140.77,56.416L141.53,57.324L142.28,56.87L143.04,57.4L143.79,59.841L144.55,54.561L145.3,59.633L146.06,54.429L146.81,60.92L147.56,52.026L148.32,60.73L149.07,54.713L149.83,58.876L150.58,57.57L151.34,56L152.09,59.008L152.84,57.381L153.6,59.16L154.35,56.775L155.11,58.081L155.86,58.327L156.62,56.643L157.37,58.422L158.13,57.949L158.88,57.305L159.63,57.646L160.39,59.406L161.14,56.586L161.9,57.23L162.65,58.024L163.41,57.589L164.16,57.23L164.92,57.74L165.67,58.914L166.42,57.494L167.18,57.532L167.93,57.173L168.69,57.703L169.44,55.905L170.2,60.617L170.95,57.154L171.7,57.494L172.46,58.781L173.21,56.851L173.97,57.703L174.72,55.697L175.48,60.674L176.23,54.032L176.99,59.936L177.74,59.425L178.49,53.994L179.25,59.614L180,58.762L180.76,64.288L181.51,62.074L182.27,65.934L183.02,69.435L183.78,68.167L184.53,73.238L185.28,71.933L186.04,83.4L186.79,84.971L187.55,80.562L188.3,74.203L189.06,92.256L189.81,86.087L190.56,86.712L191.32,87.828L192.07,87.469L192.83,84.914L193.58,86.068L194.34,87.393L195.09,86.182L195.85,86.182L196.6,87.317L197.35,90.761L198.11,91.915L198.86,89.001L199.62,100.58L200.37,111.08L201.13,118.56L201.88,110.18L202.64,107.43L203.39,97.441L204.14,117.25L204.9,121.66L205.65,124.71L206.41,120.24L207.16,122.1L207.92,112.9L208.67,127.53L209.42,118.6L210.18,123.31L210.93,117.52L211.69,116.17L212.44,119.43L213.2,125.73L213.95,106.39L214.71,137.41L215.46,133L216.21,105.14L216.97,134.21L217.72,118.45L218.48,117.25L219.23,119.96L219.99,123.02L220.74,128.15L221.5,114.94L222.25,121.97L223,123.31L223.76,116.04L224.51,116.04L225.27,125.73L226.02,112.98L226.78,128.15L227.53,118.62L228.28,121.36L229.04,126.53L229.79,114.04L230.55,129.36L231.3,124.61L232.06,112.31L232.81,128.15L233.57,129.36L234.32,119.05L235.07,116.91L235.83,131.54L236.58,113.71L237.34,112.56L238.09,129.1L238.85,134.21L239.6,130.56L240.36,117.25L241.11,133L241.86,134.21L242.62,122.1L243.37,133.28L244.13,136.35L244.88,114.89L245.64,115.76L246.39,132.54L247.14,139.05L247.9,125.48L248.65,123.63L249.41,85.671L250.16,103.25L250.92,89.777L251.67,83.627L252.43,81.262L253.18,75.131L253.93,74.563L254.69,72.103L255.44,67.77L256.2,66.029L256.95,65.934L257.71,68.508L258.46,65.669L259.22,63.417L259.97,64.023L260.72,60.655L261.48,61.014L262.23,64.591L262.99,64.363L263.74,62.414L264.5,64.628L265.25,64.174L266,63.323L266.76,63.663L267.51,68.375L268.27,70.021L269.02,67.372L269.78,68.64L270.53,67.259L271.29,82.075L272.04,84.876L272.79,81.716L273.55,76.72L274.3,77.288L275.06,81.546L275.81,83.022L276.57,81.205L277.32,83.93L278.07,84.895L278.83,89.437L279.58,91.102L280.34,133.15L281.09,116.82L281.85,119.05L282.6,111.31L283.36,109.23L284.11,100.62L284.86,86.901L285.62,96.552L286.37,85.822L287.13,92.029L287.88,89.947L288.64,90.629L289.39,89.474L290.15,87.506L290.9,91.972L291.65,86.125L292.41,83.457L293.16,92.862L293.92,108.32L294.67,82.435L295.43,98.841L296.18,72.784L296.93,69.529L297.69,62.377L298.44,62.925L299.2,54.826L299.95,58.952L300.71,53.975L301.46,59.046L302.22,54.013L302.97,58.668L303.72,55.432L304.48,57.892L305.23,55.053L305.99,57.968L306.74,53.899L307.5,59.027L308.25,54.145L309.01,58.422L309.76,55.451L310.51,57.002L311.27,55.091L312.02,58.195L312.78,54.77L313.53,58.119L314.29,54.807L315.04,58.119L315.79,54.599L316.55,58.46L317.3,54.826L318.06,57.816L318.81,55.053L319.57,58.232L320.32,54.429L321.08,58.157L321.83,55.034L322.58,57.986L323.34,54.807L324.09,58.251L324.85,65.612L325.6,61.903L326.36,66.521L327.11,66.634L327.87,65.764L328.62,75.661L329.37,73.73L330.13,65.839L330.88,69.889L331.64,73.182L332.39,75.244L333.15,72.217L333.9,79.369L334.65,84.403L335.41,79.388L336.16,91.802L336.92,93.883L337.67,93.41L338.43,96.627L339.18,97.99L339.94,104.69L340.69,110.2L341.44,107.13L342.2,109.99L342.95,82.038L343.71,112.67L344.46,106.79L345.22,105.46L345.97,102L346.73,115.3L347.48,114.53L348.23,96.078L348.99,108.28L349.74,127.45L350.5,103.84L351.25,109.7L352.01,120.21L352.76,127.62L353.51,92.256L354.27,123.31L355.02,123.35L355.78,106.3L356.53,120.85L357.29,124.52L358.04,125.73L358.8,91.707L359.55,125.64L360.3,124.52L361.06,83.722L361.81,112.41L362.57,117.56L363.32,117.25L364.08,91.215L364.83,119.2L365.59,119.45L366.34,120.68L367.09,90.912L367.85,112.03L368.6,124.54L369.36,123.25L370.11,101.76L370.87,102.68L371.62,105.82L372.37,131.11L373.13,114.98L373.88,86.485L374.64,113.73L375.39,115.93L376.15,120.6L376.9,115.06L377.66,84.157L378.41,116.04L379.16,124.25L379.92,113.87L380.67,120.09L381.43,88.85L382.18,123.44L382.94,116.04L383.69,122.08L384.45,122.1L385.2,90.212L385.95,107L386.71,112.24L387.46,122.1L388.22,115.53L388.97,109.12L389.73,97.933L390.48,124.63L391.23,104.18L391.99,107.98L392.74,116.21L393.5,95.832L394.25,123.84L395.01,127.13L395.76,123.31L396.52,100.58L397.27,116.55L398.02,93.183L398.78,123.04L399.53,109.68L400.29,134.34L401.04,118.62L401.8,117.25L402.55,118.12L403.31,96.438L404.06,123.37L404.81,112.81L405.57,129.1L406.32,125.69L407.08,119.71L407.83,122.1L408.59,94.243L409.34,120.89L410.09,120.07L410.85,115.85L411.6,133.98L412.36,123.31L413.11,128.15L413.87,94.243L414.62,130.06L415.38,128.65L416.13,133L416.88,128.15L417.64,105.8L418.39,125.56L419.15,137.5L419.9,100.13L420.66,142.67L421.41,142.97L422.16,143.61L422.92,141.47L423.67,139.05L424.43,108.04L425.18,101.94L425.94,80.07L426.69,78.215L427.45,67.069L428.2,125.11L428.95,126.94L429.71,124.75L430.46,129.8L431.22,131.84L431.97,131.39L432.73,128.66L433.48,133.36L434.24,133L434.99,97.119L435.74,118.1L436.5,129.36L437.25,122.82L438.01,132.28L438.76,130.58L439.52,125.73L440.27,131.01L441.02,82.189L441.78,120.34L442.53,136.16L443.29,124.52L444.04,97.044L444.8,94.205L445.55,77.893L446.31,82.605L447.06,107.7L447.81,112.41L448.57,111.2L449.32,112.41L450.08,64.117L450.83,95.851L451.59,101.64L452.34,84.857L453.1,82.738L453.85,83.589L454.6,125.96L455.36,110.99L456.11,71.005L456.87,71.289L457.62,115.42L458.38,119.18L459.13,91.821L459.88,89.153L460.64,78.461L461.39,114.23L462.15,82.113L462.9,107.62L463.66,75.888L464.41,69.454L465.17,67.032L465.92,104.92L466.67,117.23L467.43,113.43L468.18,71.251L468.94,82.889L469.69,102.95L470.45,116.95L471.2,83.76L471.96,93.013L472.71,118.92L473.46,84.252L474.22,119.68L474.97,93.259L475.73,87.166L476.48,93.675L477.24,72.538L477.99,114.57L478.74,106.66L479.5,77.307L480.25,84.668L481.01,86.068L481.76,76.153L482.52,119.18L483.27,78.726L484.03,85.765L484.78,84.914L485.53,84.895L486.29,82.605L487.04,98.274L487.8,84.157L488.55,78.84L489.31,79.597L490.06,82.435L490.82,77.307L491.57,89.153L492.32,89.437L493.08,96.078L493.83,99.787L494.59,97.649L495.34,74.09L496.1,90.988L496.85,111.82L497.6,109.32L498.36,115.63L499.11,70.57L499.87,73.655L500.62,119.81L501.38,122.02L502.13,118.46L502.89,92.824L503.64,97.062L504.39,64.534L505.15,115.57L505.9,118.46L506.66,125.07L507.41,117.92L508.17,119.68L508.92,77.742L509.68,79.256L510.43,118.46L511.18,118.45L511.94,118.46L512.69,122.1L513.45,102.7L514.2,70.797L514.96,86.958L515.71,116.89L516.46,116.12L517.22,126.54L517.97,119.6L518.73,101.13L519.48,84.763L520.24,68.016L520.99,115.87L521.75,117.92L522.5,120.22L523.25,122.1L524.01,118.75L524.76,81.394L525.52,103.8L526.27,79.275L527.03,109.93L527.78,127.91L528.54,117.56L529.29,118.45L530.04,114.43L530.8,70.911L531.55,83.438L532.31,67.751L533.06,103.91L533.82,122.53L534.57,123.27L535.32,120.89L536.08,120.89L536.83,89.209L537.59,85.728L538.34,84.422L539.1,71.289L539.85,87.828L540.61,121.21L541.36,116.27L542.11,123.31L542.87,119.68L543.62,115.64L544.38,110.4L545.13,73.598L545.89,80.599L546.64,70.987L547.4,92.578L548.15,117.4L548.9,120.72L549.66,124.01L550.41,118.18L551.17,118.31L551.92,68.678L552.68,84.63L553.43,79.861L554.18,73.825L554.94,82.189L555.69,60.579L556.45,130.5L557.2,124.52L557.96,123.31L558.71,118.37L559.47,72.936L560.22,78.348L560.97,75.074L561.73,73.333L562.48,74.828L563.24,60.106L563.99,68.205L564.75,65.934L565.5,62.566L566.25,62.604L567.01,61.374L567.76,70.532L568.52,72.803L569.27,59.198L570.03,65.461L570.78,63.569L571.54,61.468L572.29,57.532L573.04,61.828L573.8,59.349L574.55,54.372L575.31,58.706L576.06,54.561L576.82,58.422L577.57,54.542L578.33,58.838L579.08,55.886L579.83,57.116L580.59,55.924L581.34,55.659L582.1,55.016L582.85,58.005L583.61,55.091L584.36,58.592L585.11,54.429L585.87,59.917L586.62,63.815L587.38,50.569L588.13,63.133L588.89,49.831L589.64,63.133L590.4,49.793L591.15,63.171L591.9,49.698L592.66,63.304L593.41,49.717L594.17,63.361L594.92,48.96L595.68,63.966L596.43,49.433L597.19,63.89L597.94,49.168L598.69,63.871L599.45,49.112L600.2,63.871L600.96,49.149L601.71,63.89L602.47,49.376L603.22,63.682L603.97,49.055L604.73,63.928L605.48,58.081L606.24,55.28L606.99,57.703L607.75,55.394L608.5,48.411L609.26,64.628L610.01,58.062L610.76,55.11L611.52,62.679L612.27,50.379L613.03,62.623L613.78,50.02L614.54,64.95L615.29,48.998L616.05,64.628L616.8,49.13L617.55,64.326L618.31,49.66L619.06,50.36L619.82,62.774L620.57,65.026L621.33,64.893L622.08,50.455L622.83,58.346L623.59,82.075L624.34,97.895L625.1,105.35L625.85,71.838L626.61,81.716L627.36,60.409L628.12,119.47L628.87,120.89L629.62,117.23L630.38,78.442L631.13,79.161L631.89,70.665L632.64,119.68L633.4,119.68L634.15,118.46L634.91,68.81L635.66,63.096L636.41,79.369L637.17,64.723L637.92,86.825L638.68,120.89L639.43,117.25L640.19,123.31L640.94,114.47L641.69,61.998L642.45,84.573L643.2,120.24L643.96,119.68L644.71,122.74L645.47,119.66L646.22,71.233L646.98,68.981L647.73,118.99L648.48,119.75L649.24,122.1L649.99,123.29L650.75,99.825L651.5,55.754L652.26,110.52L653.01,113.13L653.77,122.08L654.52,120.89L655.27,115.3L656.03,113.34L656.78,60.636L657.54,122.27L658.29,117.35L659.05,113.28L659.8,120.13L660.55,116.44L661.31,122.44L662.06,59.973L662.82,118.77L663.57,117.65L664.33,118.46L665.08,119.54L665.84,97.971L666.59,79.937L667.34,66.918L668.1,98.028L668.85,122.91L669.61,119.68L670.36,119.68L671.12,122.1L671.87,73.03L672.63,85.16L673.38,61.033L674.13,109.4L674.89,113.87L675.64,123.67L676.4,118.69L677.15,113.26L677.91,69.889L678.66,83.268L679.41,73.163L680.17,79.918L680.92,118.46L681.68,111.1L682.43,119.77L683.19,112.41L683.94,95.435L684.7,112.86L685.45,118.46L686.2,80.524L686.96,102.08L687.71,110.82L688.47,112.39L689.22,116.04L689.98,114.83L690.73,71.857L691.49,91.31L692.24,105.99L692.99,116.84L693.75,59.16L694.5,125.64L695.26,119.26L696.01,116.04L696.77,111.18L697.52,102.23L698.27,68.848L699.03,81.054L699.78,70.759L700.54,83.343L701.29,69.567L702.05,77.534L702.8,121.15L703.56,123.97L704.31,119.66L705.06,111.54L705.82,69.283L706.57,70.457L707.33,73.39L708.08,72.425L708.84,67.315L709.59,70.324L710.34,59.141L711.1,128.99L711.85,111.01L712.61,120.15L713.36,124.03L714.12,122.1L714.87,78.253L715.63,89.209L716.38,92.559L717.13,75.698L717.89,84.233L718.64,77.761L719.4,76.474L720.15,126.94L720.91,119.68L721.66,119.68L722.42,120.15L723.17,126.47L723.92,128.15L724.68,91.196L725.43,68.621L726.19,80.391L726.94,69.927L727.7,70.722L728.45,58.46L729.2,103.17L729.96,116.87L730.71,125.73L731.47,123.12L732.22,124.5L732.98,122.29L733.73,113.01L734.49,131.18L735.24,119.68L735.99,105.05L736.75,68.243L737.5,82.813L738.26,70.949L739.01,70.741L739.77,125.83L740.52,122.1L741.28,122.1L742.03,126.53L742.78,115.85L743.54,118.6L744.29,59.954L745.05,71.024L745.8,72.671L746.56,74.185L747.31,78.707L748.06,63.342L748.82,67.997L749.57,66.407L750.33,60.03L751.08,54.372L751.84,56.302L752.59,58.724L753.35,56.775L754.1,55.621L754.85,57.892L755.61,64.931L756.36,55.432L757.12,58.554L757.87,53.577L758.63,59.387L759.38,53.634L760.14,59.652L760.89,53.369L761.64,59.595L762.4,53.369L763.15,59.727L763.91,52.442L764.66,50.436L765.42,59.027L766.17,53.937L766.92,59.481L767.68,55.943L768.43,59.708L769.19,53.691L769.94,59.519L770.7,48.203L771.45,64.685L772.21,49.717L772.96,63.588L773.71,51.401L774.47,61.714L775.22,51.25L775.98,61.714L776.73,51.269L777.49,57.892L778.24,55.11L779,57.57L779.75,56.586L780.5,56.359L781.26,53.558L782.01,59.954L782.77,64.818L783.52,53.312L784.28,59.784L785.03,53.331L785.78,59.973L786.54,53.54L787.29,59.481L788.05,58.554L788.8,54.921L789.56,58.422L790.31,54.694L791.07,58.706L791.82,54.315L792.57,51.212L793.33,61.847L794.08,50.758L794.84,117.05L795.59,115.8L796.35,113.62L797.1,113.64L797.86,94.3L798.61,69.34L799.36,54.675L800.12,98.747L800.87,114.49L801.63,120.15L802.38,119.98L803.14,113.32L803.89,119.68L804.64,94.659L805.4,63.171L806.15,58.157L806.91,52.518L807.66,115.51L808.42,114.83L809.17,122.1L809.93,123.84L810.68,107.55L811.43,122.38L812.19,54.656L812.94,113.51L813.7,117.69L814.45,110.29L815.21,127.87L815.96,116.44L816.72,114.13L817.47,66.521L818.22,71.971L818.98,91.177L819.73,119.68L820.49,118.45L821.24,118.46L822,110.42L822.75,120L823.5,118.92L824.26,58.005L825.01,58.327L825.77,109.02L826.52,117.46L827.28,120.89L828.03,112.39L828.79,117.05L829.54,118.65L830.29,117.05L831.05,88.736L831.8,51.515L832.56,121.7L833.31,117.23L834.07,116.95L834.82,116.35L835.58,114.83L836.33,120.47L837.08,112.67L837.84,117.56L838.59,64.136L839.35,102.15L840.1,123.31L840.86,81.565L841.61,75.944L842.36,80.183L843.12,81.356L843.87,78.007L844.63,75.244L845.38,77.78L846.14,65.934L846.89,75.623L847.65,116.48L848.4,127.19L849.15,121.42L849.91,119.66L850.66,107.05L851.42,93.486L852.17,96.835L852.93,102.85L853.68,90.704L854.44,51.326L855.19,124.6L855.94,117.25L856.7,118.46L857.45,120.89L858.21,120.89L858.96,114.83L859.72,117.25L860.47,114.83L861.22,125.73L861.98,85.765L862.73,79.71L863.49,79.634L864.24,100.24L865,99.22L865.75,113.6L866.51,110.71L867.26,88.453L868.01,96.854L868.77,110.16L869.52,110.23L870.28,103.1L871.03,98.501L871.79,71.952L872.54,92.048L873.29,115.3L874.05,128.8L874.8,125.73L875.56,123.31L876.31,122.1L877.07,60.844L877.82,70.286L878.58,72.671L879.33,70.835L880.08,74.828L880.84,77.572L881.59,68.205L882.35,71.233L883.1,120.15L883.86,123.67L884.61,126.11L885.37,119.68L886.12,120.47L886.87,111.84L887.63,59.69L888.38,72.425L889.14,83.419L889.89,102.83L890.65,120.34L891.4,129.99L892.15,92.086L892.91,79.086L893.66,120.87L894.42,115.12L895.17,108.49L895.93,53.066L896.68,80.524L897.44,84.857L898.19,84.857L898.94,84.744L899.7,80.845L900.45,80.202L901.21,80.013L901.96,66.01L902.72,60.825L903.47,57.002L904.23,63.55L904.98,63.171L905.73,60.711L906.49,57.324L907.24,63.001L908,50.247L908.75,90.193L909.51,95.227L910.26,60.409L911.01,62.736L911.77,63.417L912.52,56.075L913.28,62.66L914.03,63.607L914.79,63.928L915.54,59.179L916.3,59.046L917.05,62.774L917.8,63.55L918.56,52.612L919.31,60.617L920.07,53.104L920.82,61.62L921.58,51.874L922.33,62.377L923.09,51.534L923.84,62.358L924.59,50.928L925.35,62.528L926.1,52.839L926.86,60.295L927.61,53.823L928.37,59.122L929.12,55.754L929.87,61.43L930.63,63.644L931.38,63.398L932.14,64.591L932.89,63.001L933.65,60.825L934.4,57.457L935.16,63.607L935.91,57.968L936.66,55.262L937.42,58.857L938.17,56.018L938.93,57.381L939.68,57.267L940.44,57.23L941.19,57.23L941.95,55.791L942.7,58.346L943.45,54.921L944.21,59.292L944.96,53.369L945.72,59.595L946.47,52.442L947.23,61.43L947.98,51.95L948.73,64.061L949.49,51.931L950.24,61.506L951,53.048L951.75,60.144L952.51,53.483L953.26,59.519L954.02,52.177L954.77,57.419L955.52,54.58L956.28,58.365L957.03,54.902L957.79,58.308L958.54,55.262L959.3,59.254L960.05,54.088L960.81,59.898L961.56,53.54L962.31,57.419L963.07,55.526L963.82,51.269L964.58,61.847L965.33,54.013L966.09,59.803L966.84,53.975L967.59,59.046L968.35,54.77L969.1,58.251L969.86,54.751L970.61,58.289L971.37,55.148L972.12,58.516L972.88,53.256L973.63,60.087L974.38,53.577L975.14,59.008L975.89,52.858L976.65,63.001L977.4,63.266L978.16,61.355L978.91,60.863L979.67,60.768L980.42,57.476L981.17,58.668L981.93,55.224L982.68,57.343L983.44,55.943L984.19,57.248L984.95,55.886L985.7,54.656L986.45,58.422L987.21,50.777L987.96,102.46L988.72,120.68L989.47,113.62L990.23,122.08L990.98,111.44L991.74,93.562L992.49,111.31L993.24,68.432L994,50.606L994.75,104.18L995.51,111.48L996.26,63.701L997.02,54.391L997.77,74.128L998.53,121.76L999.28,118.48L1000,119.09L1000.8,118.77L1001.5,121.11L1002.3,62.623L1003.1,91.537L1003.8,80.089L1004.6,123.35L1005.3,122.1L1006.1,113.05L1006.8,114.17L1007.6,62.395L1008.3,80.77L1009.1,79.294L1009.8,54.902L1010.6,93.505L1011.3,118.29L1012.1,124.03L1012.9,121.55L1013.6,116.97L1014.4,57.551L1015.1,76.682L1015.9,67.24L1016.6,67.524L1017.4,62.471L1018.1,78.139L1018.9,114.83L1019.6,115.34L1020.4,120.38L1021.2,117.67L1021.9,119.26L1022.7,114L1023.4,63.625L1024.2,64.837L1024.9,65.366L1025.7,51.023L1026.4,89.91L1027.2,121.36L1027.9,119.68L1028.7,120.89L1029.5,117.25L1030.2,114.76L1031,124.58L1031.7,64.136L1032.5,69.397L1033.2,83.211L1034,56.662L1034.7,80.883L1035.5,118.84L1036.2,113.03L1037,119.05L1037.8,123.29L1038.5,84.025L1039.3,64.988L1040,65.915L1040.8,60.711L1041.5,64.666L1042.3,63.058L1043,61.866L1043.8,51.136L1044.5,123.57L1045.3,118.46L1046.1,122.1L1046.8,92.862L1047.6,69.132L1048.3,63.039L1049.1,65.707L1049.8,66.199L1050.6,66.88L1051.3,67.94L1052.1,68.129L1052.8,66.237L1053.6,51.59L1054.4,95.076L1055.1,114.47L1055.9,93.808L1056.6,63.72L1057.4,58.138L1058.1,64.553L1058.9,64.439L1059.6,65.707L1060.4,65.745L1061.1,67.845L1061.9,65.991L1062.6,67.41L1063.4,68.735L1064.2,61.922L1064.9,66.123L1065.7,65.556L1066.4,78.253L1067.2,83.135L1067.9,84.876L1068.7,86.371L1069.4,85.765L1070.2,86.106L1070.9,77.269L1071.7,63.096L1072.5,73.39L1073.2,73.201L1074,71.971L1074.7,57.059L1075.5,63.493L1076.2,50.058L1077,127.28L1077.7,118.24L1078.5,116.87L1079.2,110.74L1080,71.611" style="fill:none;stroke:#F15A60;stroke-width:1.875" />
<path d="M74.388,126.2L75.142,394.19L75.896,383.01L76.651,284.8L77.405,360.96L78.159,343.65L78.914,356.82L79.668,340.32L80.423,293.2L81.177,330.06L81.931,333.92L82.686,334.96L83.44,323.55L84.195,333.69L84.949,279.76L85.703,325.79L86.458,328.64L87.212,332.94L87.967,328.81L88.721,283.42L89.475,313.18L90.23,312.73L90.984,324.35L91.739,306.67L92.493,315.81L93.247,292.71L94.002,313.07L94.756,310.68L95.511,304.63L96.265,324.95L97.019,316.08L97.774,237.55L98.528,304.38L99.283,308L100.04,328.76L100.79,315.04L101.55,324.37L102.3,248.94L103.05,321.51L103.81,314.01L104.56,318.63L105.32,317.95L106.07,308.62L106.83,280.09L107.58,310.38L108.34,293.41L109.09,325.69L109.84,291.7L110.6,313.6L111.35,285.48L112.11,299.99L112.86,317.7L113.62,303.66L114.37,303.66L115.12,302.68L115.88,296.42L116.63,281.56L117.39,310.7L118.14,328.81L118.9,297.63L119.65,301.32L120.41,263.49L121.16,294.03L121.91,298.16L122.67,307.37L123.42,317.1L124.18,289.02L124.93,265.27L125.69,283.38L126.44,312.88L127.2,303.83L127.95,311.59L128.7,312.8L129.46,270.23L130.21,311.73L130.97,297.55L131.72,296.64L132.48,285.25L133.23,301.43L133.98,275.07L134.74,288.24L135.49,336.89L136.25,286.86L137,321.96L137.76,313.69L138.51,271.15L139.27,305.97L140.02,270.42L140.77,288.51L141.53,320.32L142.28,270.59L143.04,243.58L143.79,327.73L144.55,307.22L145.3,283.28L146.06,300.37L146.81,258.08L147.56,291.02L148.32,336.36L149.07,272.88L149.83,280.37L150.58,317.86L151.34,262.9L152.09,322.66L152.84,258.93L153.6,256.45L154.35,300.11L155.11,324.57L155.86,263.57L156.62,300.26L157.37,291.99L158.13,309.64L158.88,237L159.63,300.45L160.39,308.15L161.14,247.37L161.9,248.47L162.65,295.39L163.41,306.75L164.16,255.49L164.92,290.21L165.67,305.08L166.42,241.77L167.18,319.98L167.93,233.78L168.69,310.38L169.44,329.27L170.2,232.17L170.95,338.41L171.7,205.38L172.46,299.16L173.21,289.98L173.97,293.84L174.72,301.3L175.48,231.25L176.23,287.07L176.99,242.03L177.74,291.95L178.49,282.36L179.25,290.95L180,290.12L180.76,295.17L181.51,208.88L182.27,329.82L183.02,188.76L183.78,362.53L184.53,220.78L185.28,371.92L186.04,198.57L186.79,316.55L187.55,187.91L188.3,347.64L189.06,218.7L189.81,305.65L190.56,261.62L191.32,275.53L192.07,281.22L192.83,250.66L193.58,313.28L194.34,226.08L195.09,345.82L195.85,195.33L196.6,315.89L197.35,228.24L198.11,297.91L198.86,254.22L199.62,311.12L200.37,266.59L201.13,344.44L201.88,208.59L202.64,287.84L203.39,277.06L204.14,270.95L204.9,301.7L205.65,252.02L206.41,323.48L207.16,239.27L207.92,284.8L208.67,244.32L209.42,267.67L210.18,263.89L210.93,301.79L211.69,217.98L212.44,308.04L213.2,261.92L213.95,243.66L214.71,316.83L215.46,191.96L216.21,361.97L216.97,200.76L217.72,318.03L218.48,261.5L219.23,311.1L219.99,311.52L220.74,241.03L221.5,362.67L222.25,214.5L223,298.63L223.76,237.13L224.51,277.42L225.27,305.5L226.02,297.85L226.78,234.33L227.53,223.01L228.28,321.55L229.04,256.64L229.79,300.79L230.55,266.71L231.3,216.56L232.06,310.8L232.81,257.91L233.57,265.72L234.32,352.39L235.07,165.77L235.83,371.39L236.58,230.77L237.34,269.55L238.09,361.64L238.85,192.59L239.6,338.27L240.36,246.69L241.11,257.93L241.86,312.03L242.62,230.2L243.37,267.12L244.13,351.33L244.88,230.15L245.64,272.57L246.39,252.95L247.14,286.69L247.9,284.32L248.65,205.08L249.41,352.16L250.16,284.89L250.92,202.79" style="fill:none;stroke:#7AC36A;stroke-width:1.875;stroke-dasharray:7.5,2.5" />
<path d="M74.388,305.88L75.142,387.44L75.896,385.45L76.651,361.83L77.405,314.45L78.159,360.47L78.914,348.34L79.668,357.01L80.423,290.72L81.177,351.99L81.931,339.43L82.686,332.98L83.44,326.03L84.195,294.69L84.949,325.54L85.703,333.37L86.458,343.31L87.212,283.51L87.967,329.7L88.721,322L89.475,318.05L90.23,275.2L90.984,322.55L91.739,314.96L92.493,335.45L93.247,320.81L94.002,277.19L94.756,318.27L95.511,307.28L96.265,333.01L97.019,284.4L97.774,332.29L98.528,332.98L99.283,303.57L100.04,320.34L100.79,275.45L101.55,314.32L102.3,319.41L103.05,312.58L103.81,302.23L104.56,308.53L105.32,304.74L106.07,310.42L106.83,336.97L107.58,301.39L108.34,318.52L109.09,300.66L109.84,323.46L110.6,299.75L111.35,269.6L112.11,336.72L112.86,304.42L113.62,327.7L114.37,263.3L115.12,325.22L115.88,296.59L116.63,317.18L117.39,290.3L118.14,288.58L118.9,329.74L119.65,285.97L120.41,300.81L121.16,318.46L121.91,278.84L122.67,290.42L123.42,314.62L124.18,309.66L124.93,281.73L125.69,283.38L126.44,290.76L127.2,282.83L127.95,298.25L128.7,283.15L129.46,286.78L130.21,314.36L130.97,302.11L131.72,286.71L132.48,274.73L133.23,313.73L133.98,305.65L134.74,301.62L135.49,289.7L136.25,246.63L137,299.92L137.76,296.36L138.51,286.78L139.27,288.24L140.02,282.89L140.77,315.45L141.53,319.54L142.28,316.95L143.04,294.15L143.79,330.52L144.55,309.61L145.3,287.67L146.06,282.09L146.81,291.08L147.56,283.89L148.32,296.91L149.07,293.63L149.83,311.01L150.58,336.15L151.34,312.67L152.09,275.66L152.84,262.62L153.6,303.82L154.35,278.67L155.11,302.74L155.86,304.27L156.62,313.49L157.37,276.38L158.13,286.73L158.88,326.43L159.63,293.11L160.39,274.45L161.14,272.72L161.9,333.35L162.65,264.17L163.41,299.08L164.16,278.02L164.92,305.08L165.67,304.61L166.42,272.65L167.18,335.59L167.93,312.27L168.69,238.21L169.44,300.28L170.2,343.01L170.95,261.54L171.7,288.64L172.46,314.54L173.21,248.83L173.97,289.17L174.72,323.08L175.48,281.11L176.23,269.26L176.99,282.53L177.74,260.78L178.49,337.14L179.25,301.85L180,221.48L180.76,355L181.51,273.69L182.27,302L183.02,314.81L183.78,238.15L184.53,341.23L185.28,260.01L186.04,292.76L186.79,301.15L187.55,240.44L188.3,318.37L189.06,277.87L189.81,314.37L190.56,279.93L191.32,252.48L192.07,316.57L192.83,234.39L193.58,368.63L194.34,252.23L195.09,328.49L195.85,235.28L196.6,336.06L197.35,277.12L198.11,273.94L198.86,288.75L199.62,258.59L200.37,309.42L201.13,260.65L201.88,317.18L202.64,223.2L203.39,334.89L204.14,239.5L204.9,365.05L205.65,229.45L206.41,321.22L207.16,206.83L207.92,373L208.67,218.34L209.42,349.99L210.18,226.34L210.93,340.72L211.69,249.83L212.44,338.16L213.2,262.09L213.95,268.43L214.71,261.48L215.46,302.64L216.21,267.31L216.97,323.67L217.72,279.78L218.48,295.11L219.23,298.74L219.99,243.91L220.74,318.22L221.5,203.81L222.25,360.58L223,187.27L223.76,389.01L224.51,217.9L225.27,303.4L226.02,313.49L226.78,263.91L227.53,360.68L228.28,192.06L229.04,286.2L229.79,234.92L230.55,296.97L231.3,314.96L232.06,268.86L232.81,250.02L233.57,229.2L234.32,320.11L235.07,284.99L235.83,265.44L236.58,240.01L237.34,219.91L238.09,383.35L238.85,260.82L239.6,236.53L240.36,329.48L241.11,160.97L241.86,384.81L242.62,290.66L243.37,296.44L244.13,340.45L244.88,197.13" style="fill:none;stroke:#5A9BD4;stroke-width:1.875;stroke-dasharray:2.5,2.5" />
<path d="M74.388,294.83L75.142,345.41L75.896,307.58L76.651,317.74L77.405,280.99L78.159,267.31L78.914,280.54L79.668,271.61L80.423,231.13L81.177,254.65L81.931,129.57L82.686,78.877L83.44,66.805L84.195,70.267L84.949,70.381L85.703,61.052L86.458,69.283L87.212,61.052L87.967,62.604L88.721,65.669L89.475,64.988L90.23,60.314L90.984,69.416L91.739,57.513L92.493,68.356L93.247,64.723L94.002,65.783L94.756,71.27L95.511,71.346L96.265,53.123L97.019,54.864L97.774,49.055L98.528,53.71L99.283,51.212L100.04,49.717L100.79,48.676L101.55,47.825L102.3,47.352L103.05,47.711L103.81,47.408L104.56,47.73L105.32,47.654L106.07,47.257L106.83,47.162L107.58,47.03L108.34,47.238L109.09,47.125L109.84,47.03L110.6,47.144L111.35,47.03L112.11,120.96L112.86,205.68L113.62,257.3L114.37,219.19L115.12,218.55L115.88,233.4L116.63,152.43L117.39,208.73L118.14,167.7L118.9,206.63L119.65,170.12L120.41,99.522L121.16,82.946L121.91,76.891L122.67,91.386L123.42,209.94L124.18,231.79L124.93,199.78L125.69,81.792L126.44,84.838L127.2,79.767L127.95,142.12L128.7,129.91L129.46,59.368L130.21,65.177L130.97,63.89L131.72,59.576L132.48,58.195L133.23,58.762L133.98,70.192L134.74,65.707L135.49,70.324L136.25,57.627L137,58.478L137.76,59.103L138.51,68.678L139.27,66.483L140.02,69.757L140.77,63.531L141.53,66.407L142.28,59.235L143.04,61.979L143.79,63.001L144.55,68.791L145.3,65.215L146.06,62.149L146.81,59.368L147.56,54.145L148.32,49.774L149.07,51.288L149.83,51.685L150.58,51.723L151.34,48.79L152.09,49.736L152.84,49.433L153.6,49.679L154.35,50.569L155.11,51.288L155.86,51.988L156.62,49.395L157.37,69.719L158.13,230.49L158.88,162.21L159.63,163.5L160.39,147.55L161.14,101.76L161.9,126.51L162.65,199.1L163.41,146.43L164.16,101.21L164.92,177.28L165.67,63.115L166.42,72.879L167.18,59.671L167.93,68.508L168.69,79.105L169.44,196.56L170.2,74.904L170.95,84.498L171.7,132.35L172.46,78.65L173.21,80.278L173.97,170.28L174.72,215.52L175.48,77.931L176.23,96.249L176.99,117.52L177.74,74.525L178.49,148.48L179.25,176.1L180,95.208L180.76,51.893L181.51,55.583L182.27,50.096L183.02,62.358L183.78,66.691L184.53,62.377L185.28,56.094L186.04,47.03L186.79,48.09L187.55,58.762L188.3,63.02L189.06,66.218L189.81,69L190.56,69.567L191.32,63.815L192.07,62.339L192.83,66.956L193.58,68.243L194.34,68.035L195.09,63.588L195.85,71.743L196.6,70.192L197.35,69.586L198.11,51.59L198.86,57.04L199.62,60.03L200.37,64.931L201.13,63.077L201.88,68.394L202.64,75.244L203.39,222.84L204.14,153.21L204.9,175.54L205.65,150.5L206.41,107.05L207.16,103.38L207.92,170.82L208.67,99.447L209.42,90.364L210.18,98.803L210.93,61.998L211.69,57.457L212.44,52.802L213.2,83.589L213.95,62.187L214.71,52.688L215.46,101.83L216.21,56.605L216.97,56.397L217.72,72.008L218.48,120.89L219.23,98.595L219.99,70.608L220.74,68.262L221.5,96.192L222.25,151.41L223,84.025L223.76,66.786L224.51,106.49L225.27,84.062L226.02,76.777L226.78,174.68L227.53,74.828L228.28,78.253L229.04,58.384L229.79,77.647L230.55,91.177L231.3,52.158L232.06,64.704L232.81,69.889L233.57,85.633L234.32,85.217L235.07,53.331L235.83,72.614L236.58,114.68L237.34,64.269L238.09,82.643L238.85,96.457L239.6,103.72L240.36,92.294L241.11,74.601L241.86,60.882L242.62,80.486L243.37,105.82L244.13,74.714L244.88,107.22L245.64,85.709L246.39,58.024L247.14,83.4L247.9,82.303L248.65,127.23L249.41,90.477L250.16,55.81L250.92,104.4L251.67,227.57L252.43,203.05L253.18,79.502L253.93,47.106L254.69,55.943L255.44,65.385L256.2,61.203L256.95,133.83L257.71,114.89L258.46,66.975L259.22,65.669L259.97,84.971L260.72,63.871L261.48,62.906L262.23,108.55L262.99,57.589L263.74,54.505L264.5,50.19L265.25,65.764L266,52.858L266.76,75.831L267.51,136.82L268.27,65.896L269.02,51.836L269.78,48.657L270.53,69.302L271.29,67.051L272.04,171.9L272.79,66.502L273.55,81.47L274.3,166.43L275.06,84.535L275.81,81.924L276.57,105.41L277.32,79.048L278.07,190.33L278.83,130.52L279.58,136.4L280.34,56.435L281.09,68.905L281.85,82.151L282.6,72.992L283.36,54.978L284.11,47.673L284.86,107.09L285.62,64.534L286.37,59.198L287.13,85.406L287.88,152.87L288.64,80.467L289.39,130.16L290.15,86.712L290.9,82.208L291.65,56.908L292.41,91.48L293.16,69.378L293.92,77.137L294.67,51.685L295.43,119.88L296.18,70.987L296.93,65.934L297.69,63.342L298.44,57.343L299.2,59.69L299.95,121.68L300.71,81.943L301.46,71.119L302.22,57.797L302.97,58.592L303.72,69L304.48,54.921L305.23,82.208L305.99,69.359L306.74,56.965L307.5,102.91L308.25,125.75L309.01,125.45L309.76,81.054L310.51,51.893L311.27,55.394L312.02,184.45L312.78,73.598L313.53,99.352L314.29,182.46L315.04,51.117L315.79,59.235L316.55,94.546L317.3,77.685L318.06,61.847L318.81,56.965" style="fill:none;stroke:#FAA75B;stroke-width:1.875;stroke-dasharray:1.25,1.25" />
<path d="M74.388,187.4L75.142,259.78L75.896,412.6L76.651,639.19L77.405,652.76L78.159,675.71L78.914,604.35L79.668,632.89L80.423,639.32L81.177,670.35L81.931,291.65L82.686,509.74L83.44,701.44L84.195,610.27L84.949,658.45L85.703,456.11L86.458,300.03L87.212,237.23L87.967,605.75L88.721,656.46L89.475,597.2L90.23,660.42L90.984,626.95L91.739,670.05L92.493,368.48L93.247,303.74L94.002,557.33L94.756,650.03L95.511,463.2L96.265,245.31L97.019,628.38L97.774,539.46L98.528,654.42L99.283,612.17L100.04,657.83L100.79,531.02L101.55,108.93L102.3,331.37L103.05,534.54L103.81,86.447L104.56,114.49L105.32,542.21L106.07,616.46L106.83,434.86L107.58,463.13L108.34,581.62L109.09,660.63L109.84,592.58L110.6,563.69L111.35,588.76L112.11,577.76L112.86,549.72L113.62,621.34L114.37,584.2L115.12,672.38L115.88,596.29L116.63,571.61L117.39,591.12L118.14,548.32L118.9,455.58L119.65,454.48L120.41,342.4L121.16,101.23L121.91,103.95L122.67,310.84L123.42,434.18L124.18,526.16L124.93,575.82L125.69,514.98L126.44,243.75L127.2,114.23L127.95,491.4L128.7,404.96L129.46,527.33L130.21,425.09L130.97,488.07L131.72,503.89L132.48,561.09L133.23,498.34L133.98,589.59L134.74,373.13L135.49,466.99L136.25,579.26L137,474.73L137.76,472.21L138.51,526.94L139.27,506.18L140.02,388.99L140.77,69.775L141.53,405.91L142.28,291.06L143.04,181.86L143.79,89.928L144.55,550.82L145.3,446.89L146.06,528.53L146.81,574.11L147.56,480.69L148.32,296.44L149.07,449.09L149.83,487.31L150.58,484.51L151.34,561.72L152.09,446.38L152.84,498.06L153.6,229.56L154.35,457.68L155.11,342.8L155.86,497.47L156.62,536.42L157.37,533.11L158.13,493.48L158.88,429.69L159.63,561.89L160.39,516.49L161.14,484.64L161.9,479.84L162.65,304.89L163.41,205.79L164.16,412.47L164.92,217.96L165.67,490.32L166.42,325.54L167.18,254.22L167.93,568.91L168.69,542.62L169.44,493.41L170.2,534.88L170.95,529.55L171.7,514.83L172.46,586.39L173.21,495.9L173.97,601.44L174.72,179.02L175.48,201.82L176.23,49.528" style="fill:none;stroke:#9E67AB;stroke-width:1.875;stroke-dasharray:6.25,2.5,1.25,2.5" />
<path d="M1055,694.3L1080,694.3" style="fill:none;stroke:#FAA75B;stroke-width:1.875;stroke-dasharray:1.25,1.25" />
<text x="1014.1" y="-687.85" transform="scale(1, -1)"
	style="font-family:Helvetica;font-weight:normal;font-style:normal;font-size:12pt">etcd2</text>
<path d="M1055,680L1080,680" style="fill:none;stroke:#9E67AB;stroke-width:1.875;stroke-dasharray:6.25,2.5,1.25,2.5" />
<text x="1035.8" y="-673.56" transform="scale(1, -1)"
	style="font-family:Helvetica;font-weight:normal;font-style:normal;font-size:12pt">zk</text>
<path d="M1055,665.71L1080,665.71" style="fill:none;stroke:#F15A60;stroke-width:1.875" />
<text x="1007.5" y="-659.26" transform="scale(1, -1)"
	style="font-family:Helvetica;font-weight:normal;font-style:normal;font-size:12pt">consul</text>
<path d="M1055,651.41L1080,651.41" style="fill:none;stroke:#7AC36A;stroke-width:1.875;stroke-dasharray:7.5,2.5" />
<text x="1014.1" y="-644.97" transform="scale(1, -1)"
	style="font-family:Helvetica;font-weight:normal;font-style:normal;font-size:12pt">etcd3</text>
<path d="M1055,637.12L1080,637.12" style="fill:none;stroke:#5A9BD4;stroke-width:1.875;stroke-dasharray:2.5,2.5" />
<text x="870.77" y="-630.67" transform="scale(1, -1)"
	style="font-family:Helvetica;font-weight:normal;font-style:normal;font-size:12pt">etcd3-100-conns-1k-clients</text>
</g>
</svg>
