<?xml version="1.0"?>
<!-- Generated by SVGo and Plotinum VG -->
<svg width="12in" height="8in"
	xmlns="http://www.w3.org/2000/svg"
	xmlns:xlink="http://www.w3.org/1999/xlink">
<g transform="scale(1, -1) translate(0, -720)">
<path d="M0,0L1080,0L1080,720L0,720Z" style="fill:#FFFFFF" />
<text x="329.5" y="-706.41" transform="scale(1, -1)"
	style="font-family:Helvetica;font-weight:normal;font-style:normal;font-size:12pt">Write 3M keys, 500 clients, key 64 bytes, value 256 bytes, CPU</text>
<text x="544.64" y="-4.965" transform="scale(1, -1)"
	style="font-family:Helvetica;font-weight:normal;font-style:normal;font-size:12pt">Second</text>
<text x="56.662" y="-19.142" transform="scale(1, -1)"
	style="font-family:Helvetica;font-weight:normal;font-style:normal;font-size:10pt">0</text>
<text x="310.32" y="-19.142" transform="scale(1, -1)"
	style="font-family:Helvetica;font-weight:normal;font-style:normal;font-size:10pt">600</text>
<text x="567.46" y="-19.142" transform="scale(1, -1)"
	style="font-family:Helvetica;font-weight:normal;font-style:normal;font-size:10pt">1200</text>
<text x="828.07" y="-19.142" transform="scale(1, -1)"
	style="font-family:Helvetica;font-weight:normal;font-style:normal;font-size:10pt">1800</text>
<path d="M60.137,30.467L60.137,40.467" style="fill:none;stroke:#000000;stroke-width:0.625" />
<path d="M320.75,30.467L320.75,40.467" style="fill:none;stroke:#000000;stroke-width:0.625" />
<path d="M581.36,30.467L581.36,40.467" style="fill:none;stroke:#000000;stroke-width:0.625" />
<path d="M841.97,30.467L841.97,40.467" style="fill:none;stroke:#000000;stroke-width:0.625" />
<path d="M147.01,35.468L147.01,40.467" style="fill:none;stroke:#000000;stroke-width:0.625" />
<path d="M233.88,35.468L233.88,40.467" style="fill:none;stroke:#000000;stroke-width:0.625" />
<path d="M407.62,35.468L407.62,40.467" style="fill:none;stroke:#000000;stroke-width:0.625" />
<path d="M494.49,35.468L494.49,40.467" style="fill:none;stroke:#000000;stroke-width:0.625" />
<path d="M668.23,35.468L668.23,40.467" style="fill:none;stroke:#000000;stroke-width:0.625" />
<path d="M755.1,35.468L755.1,40.467" style="fill:none;stroke:#000000;stroke-width:0.625" />
<path d="M928.84,35.468L928.84,40.467" style="fill:none;stroke:#000000;stroke-width:0.625" />
<path d="M1015.7,35.468L1015.7,40.467" style="fill:none;stroke:#000000;stroke-width:0.625" />
<path d="M60.137,40.467L1080,40.467" style="fill:none;stroke:#000000;stroke-width:0.625" />
<g transform="rotate(90)">
<text x="358.4" y="13.59" transform="scale(1, -1)"
	style="font-family:Helvetica;font-weight:normal;font-style:normal;font-size:12pt">CPU</text>
</g>
<text x="25.505" y="-251.45" transform="scale(1, -1)"
	style="font-family:Helvetica;font-weight:normal;font-style:normal;font-size:10pt">60</text>
<text x="18.555" y="-464" transform="scale(1, -1)"
	style="font-family:Helvetica;font-weight:normal;font-style:normal;font-size:10pt">120</text>
<text x="18.555" y="-676.56" transform="scale(1, -1)"
	style="font-family:Helvetica;font-weight:normal;font-style:normal;font-size:10pt">180</text>
<path d="M42.88,256.82L52.88,256.82" style="fill:none;stroke:#000000;stroke-width:0.625" />
<path d="M42.88,469.37L52.88,469.37" style="fill:none;stroke:#000000;stroke-width:0.625" />
<path d="M42.88,681.93L52.88,681.93" style="fill:none;stroke:#000000;stroke-width:0.625" />
<path d="M47.88,115.12L52.88,115.12" style="fill:none;stroke:#000000;stroke-width:0.625" />
<path d="M47.88,185.97L52.88,185.97" style="fill:none;stroke:#000000;stroke-width:0.625" />
<path d="M47.88,327.67L52.88,327.67" style="fill:none;stroke:#000000;stroke-width:0.625" />
<path d="M47.88,398.52L52.88,398.52" style="fill:none;stroke:#000000;stroke-width:0.625" />
<path d="M47.88,540.22L52.88,540.22" style="fill:none;stroke:#000000;stroke-width:0.625" />
<path d="M47.88,611.07L52.88,611.07" style="fill:none;stroke:#000000;stroke-width:0.625" />
<path d="M52.88,47.03L52.88,701.44" style="fill:none;stroke:#000000;stroke-width:0.625" />
<path d="M60.137,55.036L60.572,62.157L61.006,69.065L61.441,75.76L61.875,82.349L62.309,87.982L62.744,94.394L63.178,100.84L63.612,107.61L64.047,113.81L64.481,119.9L64.915,125.92L65.35,131.13L65.784,136.8L66.218,142.79L66.653,148.59L67.087,154.19L67.522,159.79L67.956,165.24L68.39,169.81L68.825,175.2L69.259,180.41L69.693,185.72L70.128,190.61L70.562,195.71L70.996,200.95L71.431,205.13L71.865,209.67L72.299,214.27L72.734,218.74L73.168,223.31L73.602,227.66L74.037,231.99L74.471,235.49L74.906,239.46L75.34,243.75L75.774,247.64L76.209,251.79L76.643,255.79L77.077,259.58L77.512,262.42L77.946,266.49L78.38,269.89L78.815,273.58L79.249,277.26L79.683,280.8L80.118,284.27L80.552,287.43L80.986,290.86L81.421,294.48L81.855,297.59L82.29,300.78L82.724,304.4L83.158,307.12L83.593,309.82L84.027,312.83L84.461,315.7L84.896,319.03L85.33,322.39L85.764,325.19L86.199,328.1L86.633,330.93L87.067,333.45L87.502,336.31L87.936,339.18L88.37,342.09L88.805,344.92L89.239,347.76L89.674,350.95L90.108,353.35L90.542,356.12L90.977,358.92L91.411,361.64L91.845,364.37L92.28,366.96L92.714,369.4L93.148,371.24L93.583,373.83L94.017,376.45L94.451,379.04L94.886,381.55L95.32,384.35L95.755,386.44L96.189,389.06L96.623,390.8L97.058,392.85L97.492,395.33L97.926,397.74L98.361,399.62L98.795,401.99L99.229,404.23L99.664,406L100.1,408.09L100.53,410.03L100.97,412.44L101.4,414.64L101.84,416.13L102.27,418.4L102.7,420.1L103.14,421.37L103.57,423.67L104.01,426.12L104.44,427.54L104.88,429.73L105.31,431.64L105.74,433.84L106.18,435.75L106.61,436.71L107.05,438.84L107.48,440.36L107.92,441.92L108.35,444.04L108.79,445.43L109.22,447.41L109.65,449.04L110.09,450.49L110.52,452.09L110.96,454.14L111.39,455.77L111.83,457.68L112.26,459.24L112.69,460.76L113.13,462.15L113.56,463.81L114,465.55L114.43,467.14L114.87,468.7L115.3,470.29L115.73,471.75L116.17,473.13L116.6,473.73L117.04,475.22L117.47,476.35L117.91,478.05L118.34,479.72L118.78,480.85L119.21,482.2L119.64,483.26L120.08,484.36L120.51,486.02L120.95,487.44L121.38,488.96L121.82,490.34L122.25,491.62L122.68,492.93L123.12,494.21L123.55,495.13L123.99,496.65L124.42,498.07L124.86,499.2L125.29,500.8L125.72,501.96L126.16,503.42L126.59,503.91L127.03,505.51L127.46,506.6L127.9,507.99L128.33,509.3L128.77,510.22L129.2,511.46L129.63,512.31L130.07,513.48L130.5,514.93L130.94,515.82L131.37,517.16L131.81,518.08L132.24,519.57L132.67,520.39L133.11,520.99L133.54,521.77L133.98,523.22L134.41,524.32L134.85,525.49L135.28,526.83L135.72,527.79L136.15,529.1L136.58,529.67L137.02,531.01L137.45,531.86L137.89,533.21L138.32,533.88L138.76,534.84L139.19,535.51L139.62,536.72L140.06,537.57L140.49,538.95L140.93,539.8L141.36,541L141.8,541.78L142.23,542.35L142.66,543.16L143.1,543.77L143.53,545.08L143.97,545.86L144.4,546.49L144.84,547.56L145.27,548.41L145.71,549.15L146.14,550.53L146.57,550.64L147.01,551.52L147.44,552.41L147.88,553.33L148.31,554.46L148.75,555.21L149.18,556.24L149.61,556.66L150.05,557.87L150.48,558.61L150.92,559.39L151.35,560.35L151.79,561.3L152.22,562.22L152.65,563.07L153.09,563.36L153.52,564.24L153.96,565.52L154.39,566.3L154.83,567.68L155.26,567.64L155.7,568.53L156.13,569.73L156.56,569.7L157,570.8L157.43,571.54L157.87,572.5L158.3,573.2L158.74,573.63L159.17,574.98L159.6,575.76L160.04,575.9L160.47,576.85L160.91,577.63L161.34,578.09L161.78,578.8L162.21,579.9L162.64,580.11L163.08,580.96L163.51,581.92L163.95,582.1L164.38,582.91L164.82,583.97L165.25,584.68L165.69,585.71L166.12,586.06L166.55,586.6L166.99,587.3L167.42,587.8L167.86,588.83L168.29,589.43L168.73,589.78L169.16,591.24L169.59,591.8L170.03,591.7L170.46,592.48L170.9,593.4L171.33,593.86L171.77,594.28L172.2,595.27L172.64,596.02L173.07,596.16L173.5,596.59L173.94,597.83L174.37,597.79L174.81,598.53L175.24,599.88L175.68,599.81L176.11,600.62L176.54,602.11L176.98,602.01L177.41,603L177.85,604.02L178.28,604.52L178.72,605.16L179.15,606.15L179.58,607.14L180.02,607.11L180.45,608.56L180.89,609.41L181.32,609.52L181.76,610.22L182.19,611L182.63,612.03L183.06,612.56L183.49,613.59L183.93,614.48L184.36,615.08L184.8,615.25L185.23,616.11L185.67,617.38L186.1,617.56L186.53,618.48L186.97,619.36L187.4,619.86L187.84,619.75L188.27,620.75L188.71,622.34L189.14,622.38L189.57,622.87L190.01,623.86L190.44,624.82L190.88,624.64L191.31,625.88L191.75,626.48L192.18,627.23L192.62,627.37L193.05,628.54L193.48,629.53L193.92,629.67L194.35,630.17L194.79,630.98L195.22,631.9L195.66,632.12L196.09,632.37L196.52,633.36L196.96,634.35L197.39,634.85L197.83,634.85L198.26,635.7L198.7,636.79L199.13,637.11L199.57,637.29L200,638.14" style="fill:none;stroke:#F15A60;stroke-width:1.875" />
<path d="M60.137,47.03L60.572,55.993L61.006,69.171L61.441,79.657L61.875,88.867L62.309,99.708L62.744,108.67L63.178,116.64L63.612,124.68L64.047,133.22L64.481,140.41L64.915,147.21L65.35,155.61L65.784,165.21L66.218,172.47L66.653,179.7L67.087,188.63L67.522,196.63L67.956,204.28L68.39,212.5L68.825,218.67L69.259,225.08L69.693,236.31L70.128,243.71L70.562,249.88L70.996,257.07L71.431,263.94L71.865,272.37L72.299,278.71L72.734,284.31L73.168,292.03L73.602,297.52L74.037,303.4L74.471,309.11L74.906,316.19L75.34,322.85L75.774,328.77L76.209,339.18L76.643,343.9L77.077,347.37L77.512,351.37L77.946,357.43L78.38,362.56L78.815,366.21L79.249,368.73L79.683,374.33L80.118,376.24L80.552,379.36L80.986,384.32L81.421,396.43L81.855,397.42L82.29,399.94L82.724,403.23L83.158,406.39L83.593,411.42L84.027,416.66L84.461,421.37L84.896,425.8L85.33,429.63L85.764,432.64L86.199,436.46L86.633,440.93L87.067,445.99L87.502,449.68L87.936,453.4L88.37,457.4L88.805,460.76L89.239,463.53L89.674,466.01L90.108,470.26L90.542,473.27L90.977,474.3L91.411,473.84L91.845,474.19L92.28,475.75L92.714,476.88L93.148,478.02L93.583,480.46L94.017,483.08L94.451,486.31L94.886,489.32L95.32,491.76L95.755,495.59L96.189,498L96.623,501.43L97.058,504.69L97.492,509.93L97.926,511.39L98.361,512.31L98.795,515.89L99.229,520.49L99.664,526.83L100.1,533.78L100.53,538.1L100.97,539.34L101.4,541.29L101.84,542.7L102.27,544.23L102.7,546.32L103.14,548.51L103.57,551.24L104.01,554L104.44,555.17L104.88,557.05L105.31,557.05L105.74,556.02L106.18,554.32L106.61,552.06L107.05,553.19L107.48,555.17L107.92,557.44L108.35,560.59L108.79,563.78L109.22,567.18L109.65,570.16L110.09,573.2L110.52,576.15L110.96,578.66L111.39,581.81L111.83,585.99L112.26,591.41L112.69,595.1L113.13,600.13L113.56,604.02L114,605.48L114.43,607.82L114.87,610.76L115.3,613.8L115.73,616.46L116.17,616.57L116.6,617.38L117.04,618.97L117.47,620.18L117.91,621.28L118.34,623.15L118.78,623.15L119.21,623.79L119.64,624.71L120.08,627.23L120.51,629.32L120.95,631.8L121.38,633.92L121.82,635.91L122.25,637.08L122.68,637.89L123.12,639.31L123.55,640.62L123.99,642.04L124.42,643.45L124.86,645.4L125.29,647.49L125.72,649.69L126.16,651.07L126.59,651.46L127.03,650.61L127.46,649.9L127.9,651.96L128.33,653.73L128.77,655.29L129.2,655.96L129.63,655.99L130.07,656.95L130.5,657.3L130.94,657.84L131.37,658.69L131.81,659.32L132.24,661.56L132.67,663.68L133.11,665.77L133.54,668L133.98,669.99L134.41,672.61L134.85,674.2L135.28,676.36L135.72,677.46L136.15,681.82L136.58,687.1L137.02,691.84L137.45,696.7L137.89,698.08L138.32,698.4L138.76,699.89L139.19,701.44" style="fill:none;stroke:#7AC36A;stroke-width:1.875;stroke-dasharray:7.5,2.5" />
<path d="M60.137,50.041L60.572,53.442L61.006,57.587L61.441,61.696L61.875,65.806L62.309,69.702L62.744,73.493L63.178,77.354L63.612,81.251L64.047,85.148L64.481,88.69L64.915,92.481L65.35,95.917L65.784,99.176L66.218,102.72L66.653,106.3L67.087,109.34L67.522,112.67L67.956,115.22L68.39,117.99L68.825,121L69.259,124.05L69.693,127.06L70.128,129.78L70.562,132.33L70.996,135.06L71.431,137.86L71.865,140.59L72.299,143.17L72.734,145.83L73.168,147.39L73.602,150.01L74.037,152.39L74.471,153.94L74.906,156.67L75.34,159.36L75.774,160.92L76.209,163.37L76.643,165.67L77.077,167.51L77.512,170.24L77.946,172.47L78.38,174.31L78.815,176.44L79.249,178.25L79.683,181.54L80.118,182.96L80.552,184.23L80.986,186.18L81.421,187.67L81.855,189.94L82.29,191.28L82.724,193.2L83.158,194.54L83.593,196.84L84.027,198.23L84.461,199.04L84.896,201.52L85.33,202.83L85.764,204.32L86.199,205.91L86.633,207.22L87.067,208.96L87.502,210.16L87.936,210.91L88.37,213.35L88.805,214.1L89.239,215.37L89.674,217.53L90.108,218.31L90.542,219.45L90.977,221.25L91.411,222.49L91.845,223.27L92.28,225.5L92.714,226.25L93.148,227.03L93.583,229.29L94.017,229.58L94.451,230.82L94.886,233.01L95.32,234.04L95.755,236.49L96.189,236.88L96.623,238.19L97.058,239.57L97.492,240.49L97.926,240.84L98.361,242.51L98.795,243.04L99.229,242.72L99.664,243L100.1,243.43L100.53,243.64L100.97,243.11L101.4,243.18L101.84,243L102.27,243.29L102.7,242.68L103.14,242.65L103.57,242.72L104.01,242.72L104.44,242.12L104.88,242.08L105.31,241.41L105.74,241.34L106.18,240.67L106.61,240.56L107.05,239.89L107.48,239.74L107.92,239.07L108.35,239.64L108.79,239L109.22,238.89L109.65,239L110.09,239.04L110.52,238.5L110.96,238.61L111.39,238.22L111.83,238.43L112.26,238.08L112.69,238.26L113.13,239.53L113.56,240.52L114,240.91L114.43,242.33L114.87,243.18L115.3,243.89L115.73,244.74L116.17,246.23L116.6,247.18L117.04,248.11L117.47,247.64L117.91,248.25L118.34,247.61L118.78,247.57L119.21,247.5L119.64,247.4L120.08,247.54L120.51,247.22L120.95,247.15L121.38,247.08L121.82,246.97L122.25,246.3L122.68,246.76L123.12,246.26L123.55,246.01L123.99,246.51L124.42,245.87L124.86,245.77L125.29,245.66L125.72,246.19L126.16,245.55L126.59,246.05L127.03,245.94L127.46,245.34L127.9,245.77L128.33,245.16L128.77,245.09L129.2,245.02L129.63,244.92L130.07,244.31L130.5,244.74L130.94,244.14L131.37,244.03L131.81,244.07L132.24,243.89L132.67,243.82L133.11,243.75L133.54,243.75L133.98,243.15L134.41,243.61L134.85,243L135.28,243L135.72,242.79L136.15,242.83L136.58,242.26L137.02,242.33L137.45,242.15L137.89,242.08L138.32,241.94L138.76,242.54L139.19,242.44L139.62,241.91L140.06,242.33L140.49,241.8L140.93,241.73L141.36,241.66L141.8,241.59L142.23,241.06L142.66,241.09L143.1,240.91L143.53,240.84L143.97,240.35L144.4,240.74L144.84,240.49L145.27,240.21L145.71,240.59L146.14,240.1L146.57,240.06L147.01,239.99L147.44,239.96L147.88,239.46L148.31,239.82L148.75,239.35L149.18,239.28L149.61,238.79L150.05,239.21L150.48,238.68L150.92,238.68L151.35,239.14L151.79,239.11L152.22,238.65L152.65,238.86L153.09,238.58L153.52,238.5L153.96,238.33L154.39,238.43L154.83,238.4L155.26,237.9L155.7,238.33L156.13,237.87L156.56,237.83L157,237.8L157.43,237.76L157.87,237.3L158.3,237.26L158.74,237.23L159.17,237.23L159.6,236.77L160.04,237.16L160.47,236.7L160.91,236.66L161.34,236.2L161.78,236.59L162.21,236.17L162.64,236.13L163.08,236.1L163.51,236.06L163.95,236.1L164.38,236.2L164.82,236.02L165.25,236.02L165.69,235.71L166.12,236.45L166.55,236.38L166.99,236.98L167.42,236.56L167.86,236.95L168.29,236.49L168.73,236.88L169.16,236.45L169.59,236.73L170.03,236.49L170.46,236.8L170.9,237.48L171.33,237.34L171.77,237.73L172.2,237.3L172.64,237.65L173.07,237.26L173.5,237.23L173.94,237.26L174.37,237.16L174.81,237.48L175.24,237.12L175.68,237.12L176.11,237.09L176.54,237.09L176.98,237.8L177.41,238.12L177.85,238.4L178.28,238.89L178.72,238.58L179.15,239L179.58,239L180.02,239.04L180.45,239.04L180.89,239.46L181.32,239.67L181.76,239.57L182.19,240.03L182.63,240.06L183.06,240.06L183.49,240.52L183.93,240.56L184.36,240.56L184.8,240.56L185.23,240.67L185.67,240.67L186.1,241.06L186.53,241.09L186.97,241.16L187.4,241.2L187.84,241.59L188.27,241.27L188.71,242.01L189.14,241.73L189.57,241.94L190.01,242.3L190.44,242.22L190.88,242.44L191.31,242.68L191.75,243L192.18,243.04L192.62,243.57L193.05,244L193.48,244.53L193.92,245.34L194.35,245.87L194.79,246.72L195.22,247.22L195.66,248.03L196.09,248.42L196.52,249.03L196.96,249.49L197.39,250.12L197.83,250.55L198.26,251.12L198.7,251.44L199.13,252.21L199.57,252.71L200,253.06L200.43,253.56L200.87,254.2L201.3,254.13L201.74,254.52L202.17,255.26L202.61,255.19L203.04,255.97L203.47,256.36L203.91,256.82L204.34,257.32L204.78,257.88L205.21,258.2L205.65,258.8L206.08,259.65L206.51,259.8L206.95,260.26L207.38,261.18L207.82,261.32L208.25,261.89L208.69,262.59L209.12,262.77L209.56,263.23L209.99,263.66L210.42,264.15L210.86,264.65L211.29,264.86L211.73,265.46L212.16,265.71L212.6,265.75L213.03,265.92L213.46,266.28L213.9,265.99L214.33,265.68L214.77,266.31L215.2,266.03L215.64,266.21L216.07,265.92L216.5,266.03L216.94,265.71L217.37,265.39L217.81,265.57L218.24,266.1L218.68,265.75L219.11,265.43L219.55,265.14L219.98,265.18L220.41,264.83L220.85,264.9L221.28,265L221.72,265.11L222.15,264.76L222.59,264.44L223.02,264.08L223.45,264.58L223.89,264.19L224.32,263.83L224.76,263.48L225.19,263.9L225.63,263.62L226.06,263.27L226.49,263.3L226.93,262.95L227.36,262.98L227.8,262.63L228.23,262.28L228.67,261.92L229.1,261.53L229.54,262.45L229.97,262.06L230.4,261.71L230.84,261.35L231.27,261.21L231.71,261.04L232.14,260.68L232.58,260.72L233.01,260.36L233.44,260.4L233.88,260.47L234.31,260.15L234.75,259.8L235.18,259.44L235.62,259.51L236.05,259.58L236.49,259.23L236.92,258.87L237.35,258.63L237.79,258.63L238.22,258.24L238.66,258.34L239.09,258.38L239.53,258.45L239.96,258.1L240.39,257.78L240.83,257.42L241.26,257.1L241.7,257.14L242.13,256.96L242.57,256.86L243,256.93L243.43,256.64L243.87,256.68L244.3,256.36L244.74,256L245.17,255.69L245.61,255.72L246.04,255.83L246.48,255.47L246.91,255.15L247.34,254.84L247.78,254.94L248.21,255.05L248.65,254.94L249.08,255.23L249.52,255.12L249.95,255.44L250.38,255.54L250.82,255.23L251.25,254.98L251.69,255.05L252.12,255.12L252.56,255.23L252.99,254.94L253.42,255.05L253.86,254.8L254.29,254.52L254.73,254.8L255.16,255.51L255.6,255.47L256.03,255.47L256.47,255.76L256.9,255.97L257.33,256.08L257.77,255.86L258.2,256L258.64,255.76L259.07,256.29L259.51,256.47L259.94,256.22L260.37,255.97L260.81,256.32L261.24,256.68L261.68,256.5L262.11,256.29L262.55,256.82L262.98,256.61L263.42,256.89L263.85,257.39L264.28,257.81L264.72,257.95L265.15,258.66L265.59,259.02L266.02,259.12L266.46,259.58L266.89,260.29L267.32,260.43L267.76,260.93L268.19,260.96L268.63,261.6L269.06,261.64L269.5,262.06L269.93,262.17L270.36,262.56L270.8,263.34L271.23,263.37L271.67,263.73L272.1,263.9L272.54,264.37L272.97,264.79L273.41,264.76L273.84,265.64L274.27,266.07L274.71,266.6L275.14,266.74L275.58,267.7L276.01,268.23L276.45,268.33L276.88,268.4L277.31,269.18L277.75,269.61L278.18,269.68L278.62,270.14L279.05,270.1L279.49,270.35L279.92,271.06L280.35,271.03L280.79,270.99L281.22,271.31L281.66,271.56L282.09,271.34L282.53,271.52L282.96,271.84L283.4,271.7L283.83,271.63L284.26,272.19L284.7,271.98L285.13,271.73L285.57,271.95L286,271.7L286.44,271.84L286.87,272.12L287.3,272.3L287.74,272.05L288.17,271.77L288.61,271.52L289.04,271.7L289.48,271.45L289.91,271.56L290.34,271.34L290.78,271.56L291.21,271.7L291.65,271.42L292.08,271.2L292.52,271.31L292.95,271.03L293.39,271.17L293.82,270.95L294.25,271.1L294.69,270.81L295.12,270.53L295.56,270.49L295.99,270.85L296.43,270.56L296.86,270.71L297.29,270.67L297.73,270.56L298.16,270.32L298.6,270.03L299.03,270.07L299.47,269.89L299.9,269.75L300.34,269.75L300.77,269.86L301.2,270.03L301.64,269.79L302.07,269.5L302.51,269.64L302.94,269.4L303.38,269.15L303.81,269.25L304.24,269.4L304.68,269.11L305.11,268.86L305.55,268.58L305.98,268.69L306.42,268.62L306.85,268.62L307.28,268.72L307.72,268.86L308.15,268.62L308.59,268.33L309.02,268.09L309.46,268.19L309.89,267.94L310.33,267.7L310.76,267.7L311.19,267.94L311.63,267.73L312.06,267.45L312.5,267.59L312.93,267.73L313.37,267.59L313.8,267.52L314.23,267.41L314.67,268.01L315.1,268.4L315.54,268.33L315.97,268.09L316.41,267.94L316.84,268.01L317.27,267.77L317.71,267.94L318.14,267.7L318.58,268.26L319.01,268.01L319.45,267.8L319.88,267.98L320.32,268.16L320.75,267.94L321.18,267.73L321.62,267.55L322.05,268.51L322.49,268.33L322.92,268.19L323.36,268.01L323.79,268.26L324.22,268.58L324.66,268.62L325.09,269.11L325.53,269.29L325.96,269.68L326.4,269.71L326.83,270.18L327.27,270.21L327.7,270.67L328.13,271.13L328.57,271.1L329,271.52L329.44,271.77L329.87,272.34L330.31,272.9L330.74,273.4L331.17,273.58L331.61,273.68L332.04,274.39L332.48,274.78L332.91,274.64L333.35,274.53L333.78,274.82L334.21,274.99L334.65,275.49L335.08,275.31L335.52,275.63L335.95,275.56L336.39,275.52L336.82,276.23L337.26,276.62L337.69,276.8L338.12,276.84L338.56,277.05L338.99,277.33L339.43,278.04L339.86,278.08L340.3,278.11L340.73,278.15L341.16,278.93L341.6,278.82L342.03,279.24L342.47,279.24L342.9,279.31L343.34,279.85L343.77,280.06L344.2,279.92L344.64,280.13L345.07,280.27L345.51,280.45L345.94,281.12L346.38,281.05L346.81,280.91L347.25,280.77L347.68,280.63L348.11,281.41L348.55,281.48L348.98,281.87L349.42,281.83L349.85,281.97L350.29,282.4L350.72,282.57L351.15,282.96L351.59,283.42L352.02,283.42L352.46,283.39L352.89,283.5L353.33,283.67L353.76,283.67L354.19,283.46L354.63,283.21L355.06,283.42L355.5,283.21L355.93,282.96L356.37,282.72L356.8,282.93L357.24,283.11L357.67,283.11L358.1,283.11L358.54,283.18L358.97,283.07L359.41,282.82L359.84,282.57L360.28,282.4L360.71,282.86L361.14,282.72L361.58,282.5L362.01,282.26L362.45,282.43L362.88,282.22L363.32,281.97L363.75,281.72L364.19,281.76L364.62,282.11L365.05,281.9L365.49,282.11L365.92,281.87L366.36,281.65L366.79,281.83L367.23,281.58L367.66,281.33L368.09,281.12L368.53,281.76L368.96,281.58L369.4,281.51L369.83,281.41L370.27,281.83L370.7,282.08L371.13,282.01L371.57,281.94L372,281.76L372.44,282.4L372.87,282.15L373.31,282.33L373.74,282.15L374.18,282.36L374.61,282.18L375.04,281.94L375.48,281.72L375.91,282.01L376.35,282.61L376.78,282.4L377.22,282.18L377.65,282.04L378.08,282.22L378.52,282.01L378.95,282.26L379.39,282.15L379.82,282.82L380.26,282.68L380.69,282.54L381.12,282.36L381.56,283.07L381.99,283.11L382.43,283.14L382.86,283.53L383.3,283.6L383.73,283.85L384.17,284.2L384.6,284.24L385.03,284.31L385.47,284.74L385.9,284.77L386.34,285.62L386.77,285.69L387.21,286.15L387.64,286.26L388.07,286.29L388.51,286.75L388.94,286.97L389.38,287.36L389.81,287.71L390.25,287.64L390.68,287.6L391.12,287.99L391.55,288.6L391.98,288.67L392.42,288.74L392.85,288.81L393.29,289.23L393.72,289.73L394.16,290.08L394.59,290.26L395.02,290.3L395.46,290.4L395.89,290.9L396.33,290.97L396.76,291.01L397.2,291.5L397.63,291.61L398.06,292.21L398.5,292.49L398.93,292.6L399.37,292.63L399.8,292.67L400.24,292.88L400.67,293.66L401.11,293.77L401.54,293.84L401.97,293.91L402.41,293.98L402.84,294.05L403.28,294.62L403.71,295.22L404.15,295.54L404.58,295.72L405.01,295.89L405.45,296.11L405.88,296.74L406.32,296.99L406.75,297.49L407.19,297.56L407.62,297.59L408.05,298.16L408.49,298.09L408.92,297.95L409.36,298.2L409.79,298.55L410.23,298.37L410.66,298.16L411.1,297.95L411.53,297.74L411.96,297.52L412.4,297.49L412.83,297.56L413.27,297.35L413.7,297.1L414.14,297.38L414.57,297.17L415,297.1L415.44,297.2L415.87,296.96L416.31,296.74L416.74,296.53L417.18,296.32L417.61,296.11L418.04,296.35L418.48,296.64L418.91,296.89L419.35,296.67L419.78,296.46L420.22,296.21L420.65,296L421.09,296.25L421.52,296.07L421.95,295.86L422.39,295.61L422.82,295.4L423.26,295.19L423.69,295.79L424.13,295.68L424.56,295.47L424.99,295.26L425.43,295.04L425.86,294.83L426.3,294.8L426.73,295.15L427.17,295.15L427.6,295.4L428.04,295.29L428.47,295.22L428.9,295.11L429.34,295.5L429.77,295.65L430.21,296.11L430.64,295.89L431.08,295.68L431.51,295.47L431.94,295.72L432.38,295.96L432.81,295.79L433.25,295.58L433.68,295.36L434.12,295.15L434.55,295.33L434.98,295.68L435.42,295.47L435.85,295.26L436.29,295.08L436.72,294.97L437.16,295.08L437.59,295.36L438.03,295.15L438.46,294.94L438.89,294.72L439.33,294.97L439.76,294.76L440.2,294.72L440.63,294.83L441.07,294.62L441.5,294.41L441.93,294.65L442.37,294.44L442.8,294.26L443.24,294.62L443.67,294.83L444.11,294.58L444.54,294.83L444.97,294.65L445.41,294.44L445.84,294.34L446.28,294.51L446.71,294.72L447.15,294.55L447.58,294.34L448.02,294.16L448.45,293.95L448.88,294.44L449.32,294.44L449.75,294.26L450.19,294.05L450.62,293.87L451.06,293.73L451.49,293.91L451.92,294.16L452.36,293.95L452.79,293.77L453.23,293.56L453.66,293.8L454.1,293.59L454.53,293.73L454.97,293.66L455.4,293.49L455.83,293.56L456.27,293.52L456.7,293.31L457.14,293.13L457.57,293.38L458.01,293.24L458.44,293.41L458.87,293.24L459.31,293.06L459.74,292.85L460.18,292.67L460.61,293.73L461.05,293.63L461.48,293.41L461.91,293.24L462.35,293.02L462.78,293.17L463.22,293.24L463.65,293.38L464.09,293.17L464.52,292.99L464.96,292.78L465.39,293.02L465.82,292.81L466.26,293.06L466.69,292.88L467.13,292.71L467.56,292.78L468,292.74L468.43,292.56L468.86,292.39L469.3,292.6L469.73,292.46L470.17,292.71L470.6,292.49L471.04,292.35L471.47,292.14L471.9,291.96L472.34,292.46L472.77,292.46L473.21,292.28L473.64,292.07L474.08,291.89L474.51,291.71L474.95,291.93L475.38,292.28L475.81,292.25L476.25,292.14L476.68,292.46L477.12,292.81L477.55,292.78L477.99,292.67L478.42,293.06L478.85,292.99L479.29,292.78L479.72,293.02L480.16,292.85L480.59,292.92L481.03,293.06L481.46,293.31L481.89,293.56L482.33,293.41L482.76,293.24L483.2,293.06L483.63,292.92L484.07,292.78L484.5,293.87L484.94,293.87L485.37,293.84L485.8,293.8L486.24,293.8L486.67,294.58L487.11,294.55L487.54,294.58L487.98,294.94L488.41,294.9L488.84,295.33L489.28,295.61L489.71,295.43L490.15,295.43L490.58,295.47L491.02,295.72L491.45,296.35L491.89,296.74L492.32,296.6L492.75,296.5L493.19,296.39L493.62,296.35L494.06,296.74L494.49,297.49L494.93,297.38L495.36,297.28L495.79,297.24L496.23,297.35L496.66,297.84L497.1,298.16L497.53,298.23L497.97,298.59L498.4,298.62L498.83,298.73L499.27,299.26L499.7,299.58L500.14,299.47L500.57,299.33L501.01,299.44L501.44,299.72L501.88,299.79L502.31,300.43L502.74,300.64L503.18,300.53L503.61,300.39L504.05,300.29L504.48,300.18L504.92,300.18L505.35,300.64L505.78,301.46L506.22,301.35L506.65,301.24L507.09,301.14L507.52,301.03L507.96,300.92L508.39,300.89L508.82,301.63L509.26,301.6L509.69,301.77L510.13,302.02L510.56,302.06L511,302.09L511.43,302.16L511.87,302.94L512.3,302.87L512.73,302.77L513.17,302.66L513.6,302.55L514.04,302.91L514.47,303.01L514.91,303.09L515.34,303.83L515.77,303.86L516.21,303.76L516.64,303.69L517.08,303.69L517.51,303.72L517.95,303.76L518.38,303.97L518.82,304.68L519.25,304.96L519.68,304.86L520.12,304.71L520.55,304.57L520.99,304.47L521.42,304.4L521.86,304.29L522.29,304.22L522.72,304.25L523.16,304.82L523.59,304.68L524.03,304.54L524.46,304.36L524.9,304.22L525.33,304.47L525.76,304.57L526.2,304.5L526.63,304.89L527.07,304.82L527.5,304.75L527.94,304.93L528.37,305.07L528.81,304.96L529.24,305.07L529.67,305.25L530.11,305.1L530.54,304.93L530.98,304.75L531.41,304.57L531.85,304.4L532.28,304.71L532.71,304.57L533.15,304.5L533.58,304.68L534.02,304.47L534.45,304.33L534.89,304.89L535.32,304.86L535.75,304.71L536.19,304.54L536.62,304.36L537.06,304.18L537.49,304.22L537.93,304.25L538.36,304.08L538.8,304.36L539.23,304.15L539.66,303.97L540.1,303.83L540.53,303.65L540.97,303.9L541.4,303.76L541.84,303.55L542.27,303.37L542.7,303.19L543.14,303.05L543.57,303.3L544.01,303.33L544.44,303.37L544.88,303.23L545.31,303.12L545.74,303.33L546.18,303.55L546.61,303.4L547.05,303.26L547.48,303.09L547.92,302.91L548.35,302.73L548.79,302.73L549.22,302.84L549.65,303.09L550.09,302.94L550.52,302.8L550.96,302.62L551.39,302.45L551.83,302.73L552.26,302.55L552.69,302.38L553.13,302.2L553.56,302.02L554,301.88L554.43,302.02L554.87,301.95L555.3,302.24L555.74,302.06L556.17,301.88L556.6,302.13L557.04,302.16L557.47,302.24L557.91,302.09L558.34,301.92L558.78,301.74L559.21,301.6L559.64,301.42L560.08,301.67L560.51,301.6L560.95,301.88L561.38,301.99L561.82,302.02L562.25,302.06L562.68,302.41L563.12,302.91L563.55,302.94L563.99,303.16L564.42,303.44L564.86,303.33L565.29,303.44L565.73,303.55L566.16,303.4L566.59,303.26L567.03,303.12L567.46,303.86L567.9,303.76L568.33,304.04L568.77,303.9L569.2,303.76L569.63,303.62L570.07,303.48L570.5,303.76L570.94,304.04L571.37,304.29L571.81,304.25L572.24,304.18L572.67,304.08L573.11,304.33L573.54,304.86L573.98,304.75L574.41,304.61L574.85,304.47L575.28,304.57L575.72,304.79L576.15,304.79L576.58,305L577.02,305.57L577.45,305.57L577.89,305.46L578.32,305.35L578.76,305.28L579.19,305.71L579.62,305.99L580.06,306.66L580.49,306.56L580.93,306.45L581.36,306.38L581.8,306.31L582.23,306.24L582.67,306.49L583.1,307.02L583.53,307.48L583.97,307.55L584.4,307.58L584.84,307.66L585.27,307.69L585.71,308.15L586.14,308.12L586.57,308.43L587.01,308.82L587.44,308.93L587.88,308.97L588.31,309.04L588.75,309.43L589.18,309.57L589.61,309.71L590.05,309.92L590.48,309.78L590.92,309.64L591.35,309.99L591.79,310.1L592.22,310.28L592.66,310.7L593.09,310.74L593.52,311.16L593.96,311.09L594.39,310.99L594.83,310.88L595.26,310.81L595.7,310.7L596.13,311.3L596.56,311.66L597,311.69L597.43,311.8L597.87,312.3L598.3,312.33L598.74,312.4L599.17,312.44L599.6,312.9L600.04,312.86L600.47,312.83L600.91,313.22L601.34,313.32L601.78,313.85L602.21,313.96L602.65,314L603.08,314.21L603.51,314.49L603.95,314.39L604.38,314.28L604.82,314.14L605.25,314.03L605.69,313.89L606.12,313.71L606.55,314.1L606.99,313.96L607.42,313.85L607.86,314.14L608.29,314L608.73,314.28L609.16,314.1L609.59,313.96L610.03,313.78L610.46,313.64L610.9,313.5L611.33,313.32L611.77,313.15L612.2,313L612.64,312.9L613.07,313.11L613.5,312.97L613.94,312.83L614.37,312.86L614.81,312.93L615.24,312.79L615.68,312.61L616.11,312.44L616.54,312.3L616.98,312.12L617.41,311.98L617.85,311.8L618.28,311.66L618.72,311.48L619.15,311.59L619.59,312.01L620.02,311.94L620.45,312.19L620.89,312.05L621.32,311.91L621.76,311.73L622.19,311.59L622.63,311.41L623.06,311.27L623.49,311.09L623.93,310.95L624.36,310.81L624.8,310.63L625.23,310.45L625.67,310.35L626.1,310.56L626.53,311.02L626.97,311.02L627.4,310.91L627.84,310.84L628.27,310.77L628.71,310.7L629.14,310.63L629.58,310.91L630.01,310.91L630.44,310.84L630.88,310.7L631.31,310.67L631.75,310.91L632.18,310.84L632.62,310.77L633.05,311.2L633.48,311.34L633.92,311.55L634.35,311.48L634.79,311.41L635.22,311.34L635.66,311.3L636.09,311.66L636.52,312.05L636.96,311.94L637.39,311.8L637.83,311.66L638.26,311.52L638.7,311.37L639.13,311.23L639.57,311.23L640,311.41L640.43,311.66L640.87,311.87L641.3,311.91L641.74,311.8L642.17,311.66L642.61,311.69L643.04,311.94L643.47,311.84L643.91,311.73L644.34,311.62L644.78,311.55L645.21,311.8L645.65,312.12L646.08,312.93L646.52,312.9L646.95,312.86L647.38,312.9L647.82,313L648.25,313.11L648.69,313.22L649.12,313.82L649.56,314.7L649.99,314.88L650.42,314.92L650.86,314.95L651.29,314.99L651.73,315.06L652.16,315.48L652.6,315.7L653.03,315.87L653.46,315.77L653.9,316.19L654.33,316.26L654.77,316.3L655.2,316.33L655.64,316.76L656.07,317.08L656.51,317.26L656.94,317.15L657.37,317.04L657.81,316.94L658.24,316.87L658.68,317.29L659.11,317.33L659.55,317.79L659.98,317.68L660.41,317.57L660.85,317.89L661.28,317.79L661.72,317.68L662.15,317.61L662.59,317.5L663.02,317.4L663.45,317.79L663.89,317.68L664.32,317.65L664.76,318.07L665.19,318.42L665.63,318.42L666.06,318.46L666.5,318.46L666.93,318.67L667.36,318.85L667.8,318.78L668.23,318.71L668.67,318.92L669.1,319.1L669.54,319.03L669.97,319.24L670.4,319.42L670.84,319.45L671.27,319.98L671.71,320.05L672.14,320.09L672.58,320.16L673.01,320.48L673.44,320.44L673.88,320.44L674.31,320.41L674.75,320.44L675.18,320.87L675.62,321.29L676.05,321.33L676.49,321.36L676.92,321.4L677.35,321.86L677.79,322.04L678.22,322L678.66,321.93L679.09,321.83L679.53,322.11L679.96,322.11L680.39,321.97L680.83,321.83L681.26,321.68L681.7,321.54L682.13,321.4L682.57,321.22L683,321.08L683.44,321.15L683.87,321.26L684.3,321.58L684.74,321.47L685.17,321.33L685.61,321.29L686.04,321.51L686.48,321.33L686.91,321.19L687.34,321.05L687.78,320.9L688.21,320.76L688.65,320.62L689.08,320.44L689.52,320.3L689.95,320.16L690.38,320.02L690.82,320.3L691.25,320.2L691.69,320.05L692.12,320.2L692.56,320.2L692.99,320.05L693.43,319.91L693.86,319.77L694.29,319.63L694.73,319.45L695.16,319.31L695.6,319.17L696.03,319.03L696.47,318.89L696.9,318.71L697.33,318.57L697.77,318.46L698.2,318.85L698.64,319.42L699.07,319.42L699.51,319.27L699.94,319.1L700.37,318.99L700.81,318.85L701.24,318.67L701.68,318.53L702.11,318.39L702.55,318.25L702.98,318.11L703.42,317.96L703.85,317.82L704.28,317.68L704.72,317.54L705.15,317.57L705.59,318.18L706.02,318.03L706.46,317.89L706.89,317.72L707.32,317.61L707.76,317.47L708.19,317.33L708.63,317.15L709.06,317.04L709.5,316.87L709.93,316.72L710.36,316.58L710.8,316.44L711.23,316.3L711.67,316.26L712.1,316.55L712.54,316.51L712.97,316.72L713.41,316.83L713.84,316.76L714.27,317.11L714.71,317.08L715.14,317.01L715.58,317.15L716.01,317.29L716.45,317.26L716.88,317.18L717.31,317.11L717.75,316.97L718.18,316.83L718.62,316.72L719.05,316.58L719.49,316.72L719.92,316.87L720.36,316.72L720.79,317.04L721.22,317.04L721.66,316.97L722.09,316.9L722.53,316.87L722.96,316.83L723.4,317.26L723.83,317.18L724.26,317.15L724.7,317.15L725.13,317.43L725.57,317.4L726,317.33L726.44,317.22L726.87,317.08L727.3,316.94L727.74,317.29L728.17,317.22L728.61,317.08L729.04,317.33L729.48,317.33L729.91,317.18L730.35,317.08L730.78,316.94L731.21,317.11L731.65,317.22L732.08,317.08L732.52,316.94L732.95,317.57L733.39,317.65L733.82,317.54L734.25,317.4L734.69,317.26L735.12,317.61L735.56,317.5L735.99,317.43L736.43,317.36L736.86,317.33L737.29,317.26L737.73,317.57L738.16,317.65L738.6,317.82L739.03,318.07L739.47,318L739.9,317.93L740.34,317.86L740.77,318.18L741.2,318.18L741.64,318.42L742.07,318.42L742.51,318.81L742.94,318.71L743.38,318.57L743.81,318.46L744.24,318.32L744.68,318.25L745.11,318.11L745.55,318.35L745.98,318.53L746.42,319.2L746.85,319.13L747.29,319.1L747.72,319.06L748.15,319.06L748.59,319.06L749.02,319.35L749.46,319.42L749.89,319.7L750.33,319.88L750.76,319.91L751.19,320.23L751.63,320.27L752.06,320.34L752.5,320.37L752.93,320.37L753.37,321.26L753.8,321.26L754.23,321.15L754.67,321.05L755.1,320.9L755.54,320.83L755.97,321.01L756.41,321.15L756.84,321.22L757.28,321.61L757.71,322.14L758.14,322.11L758.58,322L759.01,321.9L759.45,321.79L759.88,321.68L760.32,321.58L760.75,321.47L761.18,321.36L761.62,322.07L762.05,322.22L762.49,322.64L762.92,322.57L763.36,322.5L763.79,322.39L764.22,322.32L764.66,322.25L765.09,322.18L765.53,322.43L765.96,322.57L766.4,322.46L766.83,322.39L767.27,322.64L767.7,322.82L768.13,323.1L768.57,323.14L769,323.17L769.44,323.21L769.87,323.6L770.31,323.74L770.74,323.74L771.17,323.77L771.61,324.06L772.04,324.16L772.48,324.06L772.91,323.95L773.35,323.99L773.78,324.27L774.21,324.52L774.65,324.87L775.08,324.91L775.52,324.94L775.95,324.98L776.39,325.08L776.82,325.4L777.26,325.4L777.69,325.37L778.12,325.4L778.56,325.79L778.99,325.79L779.43,325.97L779.86,326.15L780.3,326.18L780.73,326.22L781.16,326.25L781.6,326.29L782.03,326.61L782.47,326.71L782.9,326.68L783.34,326.75L783.77,326.96L784.21,326.86L784.64,326.71L785.07,326.61L785.51,326.47L785.94,326.4L786.38,326.36L786.81,326.29L787.25,326.22L787.68,326.15L788.11,326.4L788.55,326.47L788.98,326.71L789.42,326.82L789.85,326.75L790.29,326.68L790.72,327.03L791.15,327.03L791.59,326.96L792.02,326.86L792.46,326.75L792.89,327.03L793.33,327.03L793.76,326.93L794.2,326.79L794.63,326.64L795.06,326.54L795.5,326.4L795.93,326.29L796.37,326.15L796.8,326.01L797.24,326.15L797.67,326.29L798.1,326.61L798.54,326.5L798.97,326.36L799.41,326.22L799.84,326.11L800.28,325.97L800.71,325.83L801.14,325.69L801.58,325.58L802.01,325.44L802.45,325.62L802.88,325.65L803.32,325.55L803.75,325.4L804.19,325.69L804.62,325.62L805.05,325.51L805.49,325.83L805.92,325.69L806.36,325.58L806.79,325.79L807.23,325.83L807.66,325.72L808.09,325.58L808.53,325.47L808.96,325.33L809.4,325.23L809.83,325.08L810.27,324.94L810.7,324.84L811.14,324.98L811.57,325.08L812,324.94L812.44,324.84L812.87,324.87L813.31,325.01L813.74,324.91L814.18,324.77L814.61,324.66L815.04,324.55L815.48,324.66L815.91,324.94L816.35,324.87L816.78,324.84L817.22,324.77L817.65,324.69L818.08,324.87L818.52,325.01L818.95,324.94L819.39,324.91L819.82,324.84L820.26,325.26L820.69,325.62L821.13,325.69L821.56,325.65L821.99,325.58L822.43,325.72L822.86,326.01L823.3,325.97L823.73,325.93L824.17,325.86L824.6,326.08L825.03,326.25L825.47,326.18L825.9,326.15L826.34,326.08L826.77,326.75L827.21,326.89L827.64,326.79L828.07,326.68L828.51,326.57L828.94,326.47L829.38,326.82L829.81,326.75L830.25,326.64L830.68,326.54L831.12,326.5L831.55,326.82L831.98,326.75L832.42,326.61L832.85,326.89L833.29,326.86L833.72,326.96L834.16,327.21L834.59,327.07L835.02,326.96L835.46,327.21L835.89,327.53L836.33,327.56L836.76,327.6L837.2,327.64L837.63,327.64L838.06,327.74L838.5,328.17L838.93,328.52L839.37,328.95L839.8,328.95L840.24,328.88L840.67,328.77L841.11,328.7L841.54,328.59L841.97,328.52L842.41,328.45L842.84,328.38L843.28,328.63L843.71,329.26L844.15,329.44L844.58,329.62L845.01,329.62L845.45,329.65L845.88,329.65L846.32,329.69L846.75,329.73L847.19,329.9L847.62,330.29L848.06,330.65L848.49,330.68L848.92,330.58L849.36,330.5L849.79,330.86L850.23,330.89L850.66,330.93L851.1,330.97L851.53,331L851.96,331.5L852.4,331.6L852.83,331.67L853.27,331.99L853.7,331.96L854.14,331.85L854.57,331.78L855,331.67L855.44,331.6L855.87,331.78L856.31,331.96L856.74,332.13L857.18,332.45L857.61,332.45L858.05,332.49L858.48,332.52L858.91,332.77L859.35,332.91L859.78,332.91L860.22,332.91L860.65,332.95L861.09,333.02L861.52,333.41L861.95,333.34L862.39,333.41L862.82,333.66L863.26,333.69L863.69,333.73L864.13,333.76L864.56,333.76L864.99,333.98L865.43,334.26L865.86,334.3L866.3,334.44L866.73,334.68L867.17,334.61L867.6,334.51L868.04,334.4L868.47,334.26L868.9,334.15L869.34,334.05L869.77,333.91L870.21,333.8L870.64,333.66L871.08,333.55L871.51,333.41L871.94,333.3L872.38,333.16L872.81,333.23L873.25,333.41L873.68,333.3L874.12,333.23L874.55,333.76L874.99,333.87L875.42,333.76L875.85,333.73L876.29,333.66L876.72,333.59L877.16,333.52L877.59,333.48L878.03,333.41L878.46,333.34L878.89,333.27L879.33,333.3L879.76,333.59L880.2,333.55L880.63,333.48L881.07,333.41L881.5,333.37L881.93,333.3L882.37,333.23L882.8,333.09L883.24,332.98L883.67,332.88L884.11,332.95L884.54,333.16L884.98,333.06L885.41,332.95L885.84,333.06L886.28,333.27L886.71,333.2L887.15,333.16L887.58,333.09L888.02,333.06L888.45,333.06L888.88,333.45L889.32,333.41L889.75,333.34L890.19,333.3L890.62,333.23L891.06,333.16L891.49,333.3L891.92,333.48L892.36,333.62L892.79,333.83L893.23,333.73L893.66,333.59L894.1,333.94L894.53,333.83L894.97,333.69L895.4,333.59L895.83,333.48L896.27,333.37L896.7,333.62L897.14,333.62L897.57,333.52L898.01,333.41L898.44,333.73L898.87,333.69L899.31,333.55L899.74,333.45L900.18,333.41L900.61,333.34L901.05,333.3L901.48,333.23L901.91,333.16L902.35,333.34L902.78,333.87L903.22,334.01L903.65,333.94L904.09,333.87L904.52,334.15L904.96,334.22L905.39,334.15L905.82,334.12L906.26,334.05L906.69,334.01L907.13,334.3L907.56,334.79L908,334.68L908.43,334.54L908.86,334.44L909.3,334.33L909.73,334.22L910.17,334.12L910.6,334.01L911.04,333.91L911.47,334.4L911.91,334.72L912.34,334.97L912.77,335.04L913.21,334.93L913.64,334.83L914.08,334.72L914.51,334.76L914.95,334.79L915.38,334.79L915.81,334.79L916.25,335.15L916.68,335.39L917.12,335.68L917.55,335.89L917.99,336.17L918.42,336.17L918.85,336.21L919.29,336.24L919.72,336.24L920.16,336.28L920.59,336.63L921.03,336.74L921.46,336.7L921.9,336.99L922.33,337.09L922.76,336.99L923.2,336.88L923.63,337.16L924.07,337.27L924.5,337.27L924.94,337.31L925.37,337.7L925.8,337.91L926.24,337.91L926.67,337.98L927.11,338.33L927.54,338.3L927.98,338.23L928.41,338.16L928.84,338.09L929.28,337.98L929.71,338.16L930.15,338.33L930.58,338.76L931.02,338.87L931.45,338.9L931.89,338.9L932.32,338.94L932.75,339.29L933.19,339.29L933.62,339.22L934.06,339.15L934.49,339.15L934.93,339.11L935.36,339.36L935.79,339.54L936.23,339.47L936.66,339.36L937.1,339.57L937.53,339.72L937.97,339.75L938.4,339.79L938.84,339.86L939.27,340.25L939.7,340.28L940.14,340.32L940.57,340.32L941.01,340.64L941.44,340.67L941.88,340.6L942.31,340.53L942.74,340.46L943.18,340.35L943.61,340.28L944.05,340.25L944.48,340.18L944.92,340.14L945.35,340.11L945.78,340.11L946.22,340.96L946.65,341.49L947.09,341.52L947.52,341.49L947.96,341.49L948.39,341.52L948.83,341.49L949.26,341.49L949.69,341.49L950.13,341.49L950.56,341.49L951,341.45L951.43,341.84L951.87,342.23L952.3,342.27L952.73,342.2L953.17,342.16L953.6,342.05L954.04,341.95L954.47,341.84L954.91,341.73L955.34,341.63L955.77,341.52L956.21,341.77L956.64,341.84L957.08,341.95L957.51,342.09L957.95,341.98L958.38,341.88L958.82,341.73L959.25,341.63L959.68,341.49L960.12,341.38L960.55,341.27L960.99,341.17L961.42,341.06L961.86,341.2L962.29,341.27L962.72,341.17L963.16,341.13L963.59,341.42L964.03,341.34L964.46,341.27L964.9,341.56L965.33,341.49L965.76,341.38L966.2,341.27L966.63,341.49L967.07,341.59L967.5,341.49L967.94,341.34L968.37,341.42L968.81,341.63L969.24,341.52L969.67,341.42L970.11,341.31L970.54,341.2L970.98,341.1L971.41,341.38L971.85,341.42L972.28,341.27L972.71,341.17L973.15,341.06L973.58,341.06L974.02,341.31L974.45,341.2L974.89,341.1L975.32,340.99L975.76,340.88L976.19,341.17L976.62,341.2L977.06,341.1L977.49,340.99L977.93,340.88L978.36,340.81L978.8,340.85L979.23,341.17L979.66,341.2L980.1,341.45L980.53,341.45L980.97,341.73L981.4,341.88L981.84,341.81L982.27,341.77L982.7,341.7L983.14,341.63L983.57,341.59L984.01,341.52L984.44,341.84L984.88,341.88L985.31,341.84L985.75,341.98L986.18,342.12L986.61,342.02L987.05,342.12L987.48,342.3L987.92,342.3L988.35,342.3L988.79,342.34L989.22,342.41L989.65,342.76L990.09,342.94L990.52,343.19L990.96,343.08L991.39,343.01L991.83,342.9L992.26,342.8L992.69,342.69L993.13,342.62L993.56,342.62L994,342.73L994.43,342.97L994.87,342.97L995.3,342.97L995.74,343.51L996.17,343.82L996.6,343.72L997.04,343.65L997.47,343.54L997.91,343.44L998.34,343.36L998.78,343.26L999.21,343.15L999.64,343.05L1000.1,342.97L1000.5,342.87L1000.9,342.9L1001.4,343.47L1001.8,343.82L1002.3,343.97L1002.7,343.9L1003.1,343.79L1003.6,343.72L1004,343.61L1004.4,343.54L1004.9,343.44L1005.3,343.36L1005.7,343.26L1006.2,343.15L1006.6,343.08L1007,343.4L1007.5,343.33L1007.9,343.26L1008.3,343.47L1008.8,343.54L1009.2,343.61L1009.6,343.82L1010.1,343.79L1010.5,343.75L1010.9,343.72L1011.4,343.72L1011.8,343.72L1012.2,344.11L1012.7,344.29L1013.1,344.36L1013.5,344.67L1014,344.78L1014.4,344.75L1014.8,344.67L1015.3,344.64L1015.7,344.6L1016.2,344.57L1016.6,344.75L1017,345.03L1017.5,345.1L1017.9,345.38L1018.3,346.02L1018.8,346.06L1019.2,346.02L1019.6,345.99L1020.1,345.95L1020.5,345.88L1020.9,345.81L1021.4,345.7L1021.8,345.63L1022.2,345.56L1022.7,345.45L1023.1,345.38L1023.5,345.28L1024,345.21L1024.4,345.63L1024.8,345.95L1025.3,345.88L1025.7,345.81L1026.1,345.77L1026.6,346.09L1027,346.13L1027.4,346.13L1027.9,346.16L1028.3,346.2L1028.7,346.2L1029.2,346.2L1029.6,346.55L1030,346.73L1030.5,346.98L1030.9,347.08L1031.4,347.01L1031.8,346.91L1032.2,346.84L1032.7,346.73L1033.1,346.66L1033.5,346.55L1034,346.45L1034.4,346.38L1034.8,346.27L1035.3,346.16L1035.7,346.45L1036.1,346.94L1036.6,346.94L1037,346.98L1037.4,346.98L1037.9,347.33L1038.3,347.33L1038.7,347.23L1039.2,347.15L1039.6,347.05L1040,346.94L1040.5,346.84L1040.9,346.77L1041.3,346.62L1041.8,346.55L1042.2,346.8L1042.6,346.84L1043.1,346.73L1043.5,346.59L1043.9,346.52L1044.4,346.38L1044.8,346.27L1045.3,346.2L1045.7,346.06L1046.1,345.95L1046.6,345.84L1047,345.91L1047.4,346.09L1047.9,345.99L1048.3,345.88L1048.7,345.81L1049.2,345.67L1049.6,345.91L1050,345.95L1050.5,345.84L1050.9,345.74L1051.3,345.84L1051.8,346.02L1052.2,345.95L1052.6,345.88L1053.1,345.84L1053.5,345.77L1053.9,345.7L1054.4,345.67L1054.8,345.88L1055.2,346.06L1055.7,346.02L1056.1,346.06L1056.5,346.02L1057,346.23L1057.4,346.48L1057.8,346.48L1058.3,346.48L1058.7,346.48L1059.2,346.48L1059.6,346.45L1060,346.45L1060.5,346.59L1060.9,347.05L1061.3,347.19L1061.8,347.19L1062.2,347.12L1062.6,347.08L1063.1,346.98L1063.5,346.91L1063.9,346.84L1064.4,346.91L1064.8,347.12L1065.2,347.05L1065.7,347.01L1066.1,347.01L1066.5,347.23L1067,347.44L1067.4,347.44L1067.8,347.4L1068.3,347.62L1068.7,347.79L1069.1,347.79L1069.6,347.79L1070,347.79L1070.4,347.83L1070.9,347.83L1071.3,348.29L1071.7,348.75L1072.2,348.71L1072.6,348.61L1073.1,348.5L1073.5,348.43L1073.9,348.32L1074.4,348.25L1074.8,348.15L1075.2,348.18L1075.7,348.47L1076.1,348.54L1076.5,348.54L1077,348.89L1077.4,349L1077.8,349L1078.3,349L1078.7,349.03L1079.1,349.03L1079.6,349.21L1080,349.46" style="fill:none;stroke:#5A9BD4;stroke-width:1.875;stroke-dasharray:2.5,2.5" />
<path d="M1055,694.3L1080,694.3" style="fill:none;stroke:#F15A60;stroke-width:1.875" />
<text x="1002.5" y="-687.85" transform="scale(1, -1)"
	style="font-family:Helvetica;font-weight:normal;font-style:normal;font-size:12pt">etcd v3</text>
<path d="M1055,680L1080,680" style="fill:none;stroke:#7AC36A;stroke-width:1.875;stroke-dasharray:7.5,2.5" />
<text x="941.6" y="-673.56" transform="scale(1, -1)"
	style="font-family:Helvetica;font-weight:normal;font-style:normal;font-size:12pt">Zookeeper 3.4.8</text>
<path d="M1055,665.71L1080,665.71" style="fill:none;stroke:#5A9BD4;stroke-width:1.875;stroke-dasharray:2.5,2.5" />
<text x="966.62" y="-659.26" transform="scale(1, -1)"
	style="font-family:Helvetica;font-weight:normal;font-style:normal;font-size:12pt">Consul 0.6.4</text>
</g>
</svg>
