<?xml version="1.0"?>
<!-- Generated by SVGo and Plotinum VG -->
<svg width="12in" height="8in"
	xmlns="http://www.w3.org/2000/svg"
	xmlns:xlink="http://www.w3.org/1999/xlink">
<g transform="scale(1, -1) translate(0, -720)">
<path d="M0,0L1080,0L1080,720L0,720Z" style="fill:#FFFFFF" />
<text x="349.07" y="-706.41" transform="scale(1, -1)"
	style="font-family:Helvetica;font-weight:normal;font-style:normal;font-size:12pt">Read 1M keys, 1 client, key 64 bytes, value 1 kb, Latency</text>
<text x="544.15" y="-4.965" transform="scale(1, -1)"
	style="font-family:Helvetica;font-weight:normal;font-style:normal;font-size:12pt">second</text>
<text x="53.188" y="-19.142" transform="scale(1, -1)"
	style="font-family:Helvetica;font-weight:normal;font-style:normal;font-size:10pt">0</text>
<text x="287.02" y="-19.142" transform="scale(1, -1)"
	style="font-family:Helvetica;font-weight:normal;font-style:normal;font-size:10pt">100</text>
<text x="527.81" y="-19.142" transform="scale(1, -1)"
	style="font-family:Helvetica;font-weight:normal;font-style:normal;font-size:10pt">200</text>
<text x="768.59" y="-19.142" transform="scale(1, -1)"
	style="font-family:Helvetica;font-weight:normal;font-style:normal;font-size:10pt">300</text>
<text x="1009.4" y="-19.142" transform="scale(1, -1)"
	style="font-family:Helvetica;font-weight:normal;font-style:normal;font-size:10pt">400</text>
<path d="M56.662,30.467L56.662,40.467" style="fill:none;stroke:#000000;stroke-width:0.625" />
<path d="M297.45,30.467L297.45,40.467" style="fill:none;stroke:#000000;stroke-width:0.625" />
<path d="M538.23,30.467L538.23,40.467" style="fill:none;stroke:#000000;stroke-width:0.625" />
<path d="M779.02,30.467L779.02,40.467" style="fill:none;stroke:#000000;stroke-width:0.625" />
<path d="M1019.8,30.467L1019.8,40.467" style="fill:none;stroke:#000000;stroke-width:0.625" />
<path d="M177.06,35.468L177.06,40.467" style="fill:none;stroke:#000000;stroke-width:0.625" />
<path d="M417.84,35.468L417.84,40.467" style="fill:none;stroke:#000000;stroke-width:0.625" />
<path d="M658.63,35.468L658.63,40.467" style="fill:none;stroke:#000000;stroke-width:0.625" />
<path d="M899.41,35.468L899.41,40.467" style="fill:none;stroke:#000000;stroke-width:0.625" />
<path d="M56.662,40.467L1080,40.467" style="fill:none;stroke:#000000;stroke-width:0.625" />
<g transform="rotate(90)">
<text x="335.49" y="13.59" transform="scale(1, -1)"
	style="font-family:Helvetica;font-weight:normal;font-style:normal;font-size:12pt">latency(ms)</text>
</g>
<text x="18.555" y="-151.5" transform="scale(1, -1)"
	style="font-family:Helvetica;font-weight:normal;font-style:normal;font-size:10pt">0.3</text>
<text x="18.555" y="-309.41" transform="scale(1, -1)"
	style="font-family:Helvetica;font-weight:normal;font-style:normal;font-size:10pt">0.4</text>
<text x="18.555" y="-467.32" transform="scale(1, -1)"
	style="font-family:Helvetica;font-weight:normal;font-style:normal;font-size:10pt">0.5</text>
<text x="18.555" y="-625.23" transform="scale(1, -1)"
	style="font-family:Helvetica;font-weight:normal;font-style:normal;font-size:10pt">0.6</text>
<path d="M39.405,156.87L49.405,156.87" style="fill:none;stroke:#000000;stroke-width:0.625" />
<path d="M39.405,314.78L49.405,314.78" style="fill:none;stroke:#000000;stroke-width:0.625" />
<path d="M39.405,472.69L49.405,472.69" style="fill:none;stroke:#000000;stroke-width:0.625" />
<path d="M39.405,630.6L49.405,630.6" style="fill:none;stroke:#000000;stroke-width:0.625" />
<path d="M44.405,77.917L49.405,77.917" style="fill:none;stroke:#000000;stroke-width:0.625" />
<path d="M44.405,156.87L49.405,156.87" style="fill:none;stroke:#000000;stroke-width:0.625" />
<path d="M44.405,235.83L49.405,235.83" style="fill:none;stroke:#000000;stroke-width:0.625" />
<path d="M44.405,314.78L49.405,314.78" style="fill:none;stroke:#000000;stroke-width:0.625" />
<path d="M44.405,393.73L49.405,393.73" style="fill:none;stroke:#000000;stroke-width:0.625" />
<path d="M44.405,472.69L49.405,472.69" style="fill:none;stroke:#000000;stroke-width:0.625" />
<path d="M44.405,551.64L49.405,551.64" style="fill:none;stroke:#000000;stroke-width:0.625" />
<path d="M49.405,47.03L49.405,701.44" style="fill:none;stroke:#000000;stroke-width:0.625" />
<path d="M56.662,335.15L59.07,348.32L61.478,335.98L63.886,323.2L66.294,323.49L68.702,320.05L71.11,319.06L73.517,330.29L75.925,341.06L78.333,356.06L80.741,373.76L83.149,354.3L85.557,345.43L87.965,355.54L90.372,335.75L92.78,335.33L95.188,334.13L97.596,346.91L100,363.08L102.41,354.79L104.82,363.63L107.23,346.95L109.64,339.48L112.04,314.25L114.45,330.02L116.86,341.6L119.27,321.71L121.67,325.01L124.08,339.96L126.49,333.46L128.9,348.21L131.31,347.01L133.71,336.5L136.12,340.05L138.53,351.16L140.94,358.43L143.35,335.46L145.75,350.6L148.16,343.42L150.57,384.96L152.98,395.8L155.38,417.52L157.79,434.12L160.2,435.73L162.61,441.16L165.02,404.79L167.42,413.64L169.83,405.78L172.24,386.2L174.65,358.54L177.06,319.53L179.46,317.04L181.87,335.08L184.28,321.46L186.69,325.28L189.09,325.79L191.5,310.77L193.91,306.67L196.32,306.22L198.73,331.68L201.13,311.89L203.54,306.55L205.95,321.29L208.36,314.74L210.77,318.06L213.17,332.35L215.58,327.09L217.99,315.92L220.4,329.81L222.8,323.43L225.21,342.03L227.62,358.59L230.03,322.5L232.44,322.15L234.84,328.85L237.25,314.71L239.66,360.69L242.07,347.92L244.48,303.89L246.88,309.48L249.29,320.73L251.7,338.72L254.11,360.7L256.51,326.99L258.92,327.2L261.33,336.41L263.74,341.92L266.15,316.23L268.55,317.68L270.96,324.62L273.37,335.08L275.78,345.47L278.18,341.6L280.59,329.51L283,324.06L285.41,341.88L287.82,339.87L290.22,353L292.63,351.78L295.04,393.55L297.45,419.16L299.86,392.98L302.26,409.5L304.67,426.96L307.08,410.28L309.49,388.93L311.89,383.55L314.3,365.83L316.71,393.76L319.12,332.15L321.53,338.53L323.93,341.72L326.34,342.19L328.75,352.09L331.16,343.84L333.57,340.89L335.97,357.14L338.38,342.98L340.79,344.66L343.2,346.2L345.6,331.36L348.01,333.53L350.42,335.66L352.83,339.78L355.24,330.75L357.64,311.81L360.05,329.97L362.46,331.23L364.87,312.57L367.28,316.54L369.68,313.03L372.09,303.81L374.5,316.41L376.91,331.21L379.31,368.89L381.72,334.76L384.13,308.16L386.54,330.9L388.95,346.48L391.35,352.29L393.76,328.45L396.17,341.57L398.58,325.29L400.99,339.08L403.39,335.4L405.8,331.49L408.21,324.91L410.62,326.18L413.02,351.97L415.43,332.22L417.84,345.64L420.25,345.57L422.66,329.55L425.06,316.89L427.47,337.05L429.88,357.15L432.29,380.29L434.7,360.21L437.1,365.83L439.51,395.31L441.92,434.28L444.33,408.79L446.73,394.06L449.14,430.81L451.55,405.06L453.96,383.47L456.37,377.14L458.77,379.92L461.18,385.16L463.59,346.44L466,336.94L468.41,348.14L470.81,332.87L473.22,325.24L475.63,328.03L478.04,322.38L480.44,317.98L482.85,346.43L485.26,352.86L487.67,336.05L490.08,333.49L492.48,333.93L494.89,327.96L497.3,328.91L499.71,336.22L502.12,333.55L504.52,372.37L506.93,353.77L509.34,357.68L511.75,334.66L514.15,339.8L516.56,336.3L518.97,350.54L521.38,354.1L523.79,346.56L526.19,348.28L528.6,374.42L531.01,340.55L533.42,344.04L535.83,355.56L538.23,350.77L540.64,333.05L543.05,368.16L545.46,365.38L547.86,340.89L550.27,356.71L552.68,330.27L555.09,310.26L557.5,303.39L559.9,304.26L562.31,316.57L564.72,319.25L567.13,311.79L569.54,316.63L571.94,310.65L574.35,329.93L576.76,372.36L579.17,357.52L581.57,338.06L583.98,379.86L586.39,407.35L588.8,396.57L591.21,409.33L593.61,417.01L596.02,387.22L598.43,380.62L600.84,376.33L603.25,408.71L605.65,409.27L608.06,352L610.47,320.16L612.88,322.38L615.28,366.79L617.69,345.89L620.1,319.04L622.51,326.15L624.92,343.8L627.32,334.46L629.73,332.72L632.14,332.63L634.55,349.08L636.96,332.84L639.36,331.25L641.77,325.41L644.18,317.21L646.59,337.64L648.99,324.57L651.4,372.73L653.81,354.31L656.22,352.81L658.63,330.06L661.03,343.92L663.44,333.37L665.85,323.6L668.26,326.55L670.66,329.07L673.07,318.47L675.48,335.78L677.89,334.39L680.3,333.34L682.7,348.35L685.11,328.85L687.52,336.79L689.93,318.02L692.34,325.44L694.74,366.26L697.15,332.84L699.56,354.5L701.97,342.37L704.37,352.44L706.78,345.1L709.19,347.62L711.6,337.11L714.01,338.33L716.41,352.43L718.82,361.37L721.23,343.01L723.64,345.01L726.05,377.11L728.45,377.88L730.86,415.16L733.27,429.55L735.68,417.13L738.08,388.22L740.49,390.94L742.9,386.69L745.31,417.58L747.72,421.01L750.12,393.12L752.53,347.55L754.94,325.3L757.35,320.3L759.76,323.1L762.16,350.43L764.57,350.3L766.98,338.91L769.39,350.48L771.79,340.5L774.2,340.43L776.61,337.22L779.02,340.07L781.43,331.91L783.83,348.48L786.24,339.2L788.65,333.12L791.06,339.01L793.47,325.74L795.87,336.21L798.28,343.67L800.69,332.52L803.1,317.3L805.5,318.54L807.91,342.84L810.32,345.92L812.73,329.7L815.14,338.38L817.54,324.25L819.95,330.9L822.36,316.9L824.77,332.71L827.18,326.49L829.58,320.98L831.99,348.83L834.4,352.93L836.81,332.8L839.21,368.98L841.62,324.91L844.03,350.37L846.44,361.84L848.85,318.44L851.25,323.82L853.66,318.03L856.07,332.97L858.48,327.48L860.89,336.8L863.29,354.75L865.7,361.85L868.11,363.49L870.52,374.46L872.92,399.63L875.33,436.37L877.74,398.17L880.15,400.38L882.56,436.42L884.96,432.29L887.37,389.17L889.78,387.84L892.19,385.19L894.6,418.08L897,359.71L899.41,323.01L901.82,354.43L904.23,343.01L906.63,352.84L909.04,326.61L911.45,324.52L913.86,346.93L916.27,329.9L918.67,339.04L921.08,343.82L923.49,333.43L925.9,363.44L928.31,333.19L930.71,323.09L933.12,326.43L935.53,334.95L937.94,334.77L940.34,326.28L942.75,337.05L945.16,330.55L947.57,337.99L949.98,351.74L952.38,334.19L954.79,360.06L957.2,333.97L959.61,326.01L962.02,339.47L964.42,339.87L966.83,329.13L969.24,336.01L971.65,369.6L974.05,331.56L976.46,348.28L978.87,336.44L981.28,346.73L983.69,358.8L986.09,345.04L988.5,340.52L990.91,356.85L993.32,318.46L995.73,305.21L998.13,347.94L1000.5,352.08L1002.9,357.46L1005.4,341.36L1007.8,356.81L1010.2,373.28L1012.6,339.06L1015,374.05L1017.4,426.71L1019.8,421.08L1022.2,429.79L1024.6,432.13L1027,413.13L1029.4,434.62L1031.8,419.04L1034.3,388.56L1036.7,392.98L1039.1,392.25L1041.5,352.9L1043.9,345.94L1046.3,342.71L1048.7,340.31L1051.1,364.67L1053.5,314.45L1055.9,313.85L1058.3,331.86L1060.7,318.03L1063.1,312.95L1065.6,352.03L1068,327.63L1070.4,349.88L1072.8,359.45L1075.2,338.88L1077.6,316.72L1080,303.28" style="fill:none;stroke:#F15A60;stroke-width:1.875" />
<path d="M56.662,256.04L59.07,244.46L61.478,248.81L63.886,237.92L66.294,250.08L68.702,234.34L71.11,243.88L73.517,239.07L75.925,254.63L78.333,244.43L80.741,243.59L83.149,253.76L85.557,243.16L87.965,250.22L90.372,270.16L92.78,336.58L95.188,313.13L97.596,310.54L100,254.06L102.41,247.14L104.82,243.25L107.23,226.85L109.64,232.1L112.04,249.92L114.45,227.96L116.86,250.1L119.27,247.03L121.67,235.32L124.08,257.89L126.49,246.46L128.9,263.84L131.31,284.71L133.71,347.33L136.12,342.34L138.53,341.33L140.94,318.97L143.35,328.95L145.75,301.15L148.16,317.96L150.57,326.58L152.98,308.39L155.38,298.55L157.79,245.99L160.2,243.62L162.61,259.04L165.02,239.15L167.42,241.06L169.83,240.55L172.24,243.53L174.65,241.83L177.06,239.92L179.46,231.54L181.87,227.94L184.28,231.62L186.69,252.36L189.09,238.7L191.5,229.37L193.91,226.66L196.32,240.52L198.73,227.35L201.13,265.81L203.54,252.9L205.95,242.32L208.36,241.98L210.77,256.83L213.17,308.38L215.58,277.73L217.99,231.61L220.4,229.37L222.8,244.75L225.21,234.57L227.62,230.81L230.03,233.52L232.44,269.18L234.84,251.85L237.25,251L239.66,252.94L242.07,245.31L244.48,238.7L246.88,246.2L249.29,244.01L251.7,252.42L254.11,276.64L256.51,295.64L258.92,307.33L261.33,235.4L263.74,243.41L266.15,277.27L268.55,240.37L270.96,246.78L273.37,262.12L275.78,282.66L278.18,338.79L280.59,340.65L283,332.87L285.41,337.38L287.82,360.35L290.22,338.77L292.63,323.36L295.04,301.87L297.45,294.3L299.86,310.13L302.26,236.56L304.67,244.13L307.08,257.8L309.49,267.07L311.89,250.21L314.3,244.74L316.71,237.43L319.12,244.6L321.53,243.38L323.93,244.89L326.34,238.16L328.75,251.86L331.16,230.86L333.57,253.35L335.97,255.01L338.38,241.84L340.79,243.18L343.2,253.09L345.6,244.4L348.01,237.47L350.42,244.86L352.83,227.9L355.24,234.72L357.64,230.98L360.05,229.92L362.46,223.34L364.87,239.35L367.28,239.74L369.68,212.75L372.09,221.86L374.5,218.6L376.91,215.63L379.31,216.66L381.72,211.25L384.13,221.66L386.54,237.02L388.95,230.63L391.35,222.01L393.76,222.69L396.17,228.14L398.58,231.8L400.99,228.69L403.39,235.17L405.8,234.63L408.21,227.36L410.62,234L413.02,229.17L415.43,238.36L417.84,253.45L420.25,275.34L422.66,335.93L425.06,340.35L427.47,335.01L429.88,352.93L432.29,342.34L434.7,341.83L437.1,340.28L439.51,315.09L441.92,290.62L444.33,299.7L446.73,255.41L449.14,252.03L451.55,253.48L453.96,259.7L456.37,261.9L458.77,233L461.18,254.75L463.59,261.88L466,244.63L468.41,240.15L470.81,246.3L473.22,230.25L475.63,231.24L478.04,245.93L480.44,273.1L482.85,248.88L485.26,251.06L487.67,243.9L490.08,251.8L492.48,260.47L494.89,254.32L497.3,243.52L499.71,234.22L502.12,235.17L504.52,232.92L506.93,250.62L509.34,237.42L511.75,261.94L514.15,248.42L516.56,257.39L518.97,249.14L521.38,248.9L523.79,253.29L526.19,238.11L528.6,219.01L531.01,248.56L533.42,243.9L535.83,231.66L538.23,250.73L540.64,245.95L543.05,249.44L545.46,246.71L547.86,248.35L550.27,249.34L552.68,249.32L555.09,242.61L557.5,243.94L559.9,237.07L562.31,262.12L564.72,283.37L567.13,319.82L569.54,331.85L571.94,331.24L574.35,339.11L576.76,335.13L579.17,310.39L581.57,340.02L583.98,329.27L586.39,322.13L588.8,302.47L591.21,251.42L593.61,241.85L596.02,222.96L598.43,241.54L600.84,236.43L603.25,226.71L605.65,234.06L608.06,252.72L610.47,245.66L612.88,250.62L615.28,252.29L617.69,255.23L620.1,273.56L622.51,252.08L624.92,258.91L627.32,252.37L629.73,248.63L632.14,243.5L634.55,242.13L636.96,248.89L639.36,245.68L641.77,231.73L644.18,248.18L646.59,250.72L648.99,255.87L651.4,243.66L653.81,231.13L656.22,264.26L658.63,241.99L661.03,251.76L663.44,249.51L665.85,245.71L668.26,277.49L670.66,231.99L673.07,241.67L675.48,263.11L677.89,236.99L680.3,262.61L682.7,246.33L685.11,245.55L687.52,242.26L689.93,235.16L692.34,230.48L694.74,234.88L697.15,258.46L699.56,230.73L701.97,248.25L704.37,250.78L706.78,251.98L709.19,277.72L711.6,341.15L714.01,330L716.41,347.04L718.82,330.17L721.23,337.85L723.64,358.2L726.05,330.91L728.45,330.13L730.86,294.76L733.27,286.25L735.68,246.3L738.08,228.27L740.49,229.28L742.9,237.48L745.31,232.38L747.72,230.82L750.12,231.94L752.53,236.49L754.94,241.43L757.35,229.76L759.76,250.82L762.16,226.84L764.57,264.95L766.98,235.51L769.39,232.82L771.79,246.82L774.2,260.77L776.61,259.77L779.02,234.99L781.43,236.07L783.83,232.8L786.24,230.6L788.65,248.45L791.06,233.66L793.47,237.66L795.87,233.85L798.28,219.84L800.69,217.14L803.1,218.25L805.5,227.5L807.91,233.09L810.32,224.98L812.73,233.55L815.14,243.02L817.54,222.18L819.95,241.53L822.36,235.58L824.77,254.64L827.18,250.45L829.58,245.57L831.99,253.45L834.4,251.41L836.81,253.44L839.21,268.87L841.62,236.87L844.03,243.98L846.44,239.5L848.85,246.61L851.25,281.75L853.66,285.89L856.07,341.03L858.48,365.42L860.89,341.57L863.29,337.6L865.7,317.16L868.11,308.03L870.52,331.45L872.92,320.87L875.33,280.53L877.74,292.81L880.15,254.93L882.56,226.29L884.96,246.37L887.37,221.99L889.78,237.74L892.19,232.23L894.6,234.87L897,245.34L899.41,252L901.82,246.11L904.23,254.6L906.63,244.67L909.04,237.39L911.45,240.92L913.86,247.64L916.27,243.02L918.67,254.2L921.08,244.68L923.49,260.57L925.9,260.11L928.31,248L930.71,230.6L933.12,254.96L935.53,231.75L937.94,249.84L940.34,251.91" style="fill:none;stroke:#7AC36A;stroke-width:1.875;stroke-dasharray:7.5,2.5" />
<path d="M56.662,701.44L59.07,329.91L61.478,317.44L63.886,314.71L66.294,334.94L68.702,316.9L71.11,312.58L73.517,304.85L75.925,302.18L78.333,309.83L80.741,303.4L83.149,328.97L85.557,348.84L87.965,340.17L90.372,346.26L92.78,335.47L95.188,327.86L97.596,344.14L100,314.37L102.41,323.27L104.82,322.47L107.23,322.01L109.64,313.06L112.04,311.64L114.45,340.22L116.86,321.29L119.27,313.96L121.67,318.36L124.08,311.76L126.49,324.59L128.9,311.87L131.31,309.58L133.71,307.99L136.12,297.61L138.53,332.93L140.94,342.64L143.35,347.25L145.75,351.06L148.16,337.82L150.57,331.73L152.98,332.64L155.38,343.34L157.79,325.4L160.2,349.07L162.61,283.73L165.02,283.1L167.42,287.92L169.83,284.86L172.24,261.01L174.65,262.02L177.06,267.68L179.46,295.84L181.87,256.02L184.28,275.31L186.69,281.86L189.09,259.71L191.5,278.26L193.91,298.55L196.32,322.84L198.73,328.15L201.13,311.66L203.54,317.75L205.95,314.24L208.36,328.69L210.77,332.9L213.17,326.73L215.58,332.76L217.99,325.26L220.4,303.06L222.8,327.99L225.21,346.84L227.62,334.59L230.03,323.86L232.44,321.34L234.84,332.2L237.25,336.32L239.66,336.4L242.07,331.37L244.48,321.03L246.88,338.6L249.29,344.92L251.7,327.91L254.11,319.67L256.51,327.06L258.92,335.66L261.33,341.04L263.74,327.62L266.15,342.76L268.55,334.23L270.96,344.58L273.37,336.24L275.78,314.95L278.18,325.82L280.59,327.84L283,359.69L285.41,367.03L287.82,375.51L290.22,386.94L292.63,370.24L295.04,374.22L297.45,383.65L299.86,383.61L302.26,375.55L304.67,372.11L307.08,333.02L309.49,297.06L311.89,306.96L314.3,309.88L316.71,310.37L319.12,327.63L321.53,327.39L323.93,343.89L326.34,347.91L328.75,342.8L331.16,353.57L333.57,360.09L335.97,348.99L338.38,366.83L340.79,377.94L343.2,399.09L345.6,404.05L348.01,383.61L350.42,382.35L352.83,382.04L355.24,388.65L357.64,401.83L360.05,380.74L362.46,357.97L364.87,349.75L367.28,344.61L369.68,286.28L372.09,300.37L374.5,282.44L376.91,291.44L379.31,266.05L381.72,292.45L384.13,266.96L386.54,285.35L388.95,268.04L391.35,284.14L393.76,273.4L396.17,277.33L398.58,281.79L400.99,267.07L403.39,280.44L405.8,275.86L408.21,295.09L410.62,281.96L413.02,310.91L415.43,312.8L417.84,304.47L420.25,296.31L422.66,305.06L425.06,309.14L427.47,367.26L429.88,364.88L432.29,373.78L434.7,371.21L437.1,356.98L439.51,356.25L441.92,356.24L444.33,354.31L446.73,353.48L449.14,368.38L451.55,314.37L453.96,313.55L456.37,318.56L458.77,318.72L461.18,292.66L463.59,295.69L466,307.84L468.41,307.39L470.81,299.89L473.22,294.82L475.63,289.03L478.04,326.28L480.44,325.17L482.85,330.74L485.26,322.15L487.67,354.84L490.08,361.06L492.48,346.85L494.89,349.61L497.3,360.82L499.71,361.77L502.12,361.38L504.52,392.36L506.93,331.03L509.34,325.53L511.75,317.71L514.15,331.55L516.56,330.81L518.97,315.96L521.38,306.57L523.79,320.91L526.19,328.56L528.6,328.63L531.01,324.02L533.42,314.83L535.83,320.6L538.23,328.06L540.64,332.21L543.05,308.24L545.46,302.78L547.86,322.97L550.27,326.65L552.68,344.89L555.09,315.21L557.5,328.77L559.9,339.73L562.31,327.29L564.72,339.9L567.13,315.21L569.54,318.76L571.94,340.63L574.35,373.07L576.76,369.91L579.17,382.93L581.57,378.26L583.98,373.46L586.39,369.53L588.8,361.73L591.21,363.85L593.61,338.11L596.02,284.31L598.43,293.29L600.84,269.02L603.25,266.05L605.65,271.85L608.06,297.21L610.47,291.07L612.88,304.99L615.28,313.02L617.69,313.82L620.1,299.81L622.51,296.41L624.92,269.31L627.32,295.08L629.73,312.46L632.14,317.86L634.55,311.49L636.96,328.19L639.36,320.04L641.77,318.53L644.18,294.78L646.59,294.79L648.99,306.66L651.4,275.82L653.81,281.39L656.22,276.9L658.63,276.07L661.03,271.44L663.44,271.88L665.85,281.52L668.26,270.37L670.66,275.63L673.07,284.2L675.48,285.69L677.89,271.88L680.3,270.45L682.7,272.5L685.11,284.23L687.52,274.85L689.93,283.55L692.34,284.71L694.74,315.19L697.15,308.67L699.56,307.96L701.97,288.26L704.37,275.21L706.78,317.87L709.19,310.63L711.6,297.92L714.01,298.36L716.41,361.76L718.82,381.39L721.23,377.83L723.64,381.21L726.05,367.27L728.45,375.35L730.86,383.09L733.27,369.47L735.68,384.19L738.08,382.55L740.49,348.06L742.9,335.32L745.31,321.77L747.72,342.34L750.12,351.91L752.53,331.56L754.94,332.85L757.35,337.13L759.76,319.61L762.16,312.38L764.57,314.32L766.98,310.04L769.39,332.4L771.79,340.06L774.2,362.52L776.61,356.57L779.02,365.04L781.43,366.83L783.83,395.51L786.24,358.81L788.65,377.31L791.06,364.87L793.47,362.27L795.87,338.65L798.28,331.23L800.69,324.58L803.1,315.17L805.5,296.63L807.91,295.99L810.32,284.6L812.73,325.16L815.14,324.89L817.54,301.34L819.95,292.12L822.36,294.9L824.77,290.47L827.18,263.83L829.58,281.84L831.99,272.12L834.4,270.92L836.81,295.81L839.21,296.05L841.62,277.93L844.03,274.66L846.44,274.88L848.85,283.38L851.25,270.69L853.66,283.04L856.07,295.92L858.48,300.29L860.89,354.63L863.29,363.51L865.7,370.75L868.11,367.01L870.52,370L872.92,390.64L875.33,383.94L877.74,394.7L880.15,373.15L882.56,354.71L884.96,319.21L887.37,326.35L889.78,307.72L892.19,300.29L894.6,293.59L897,278.59L899.41,281.62L901.82,297.94L904.23,285.94L906.63,299.08L909.04,318.73L911.45,327.43L913.86,320.01L916.27,360.89L918.67,365.55L921.08,360.17L923.49,372.81L925.9,375.69L928.31,376L930.71,367.5L933.12,370.71L935.53,368.55L937.94,358.93L940.34,316.22L942.75,309.5L945.16,321.29L947.57,334.87L949.98,331.66L952.38,300.71L954.79,300.72L957.2,313.62L959.61,293.59L962.02,288.99L964.42,282.1L966.83,288.24L969.24,280.07L971.65,299.96L974.05,291.66L976.46,296.8L978.87,289.02L981.28,312.18L983.69,293.71L986.09,295.36L988.5,276.69L990.91,267.8L993.32,263.79L995.73,263.38L998.13,261.72L1000.5,271.85L1002.9,271.91L1005.4,336.01L1007.8,326.78L1010.2,334.93L1012.6,349.92L1015,365.81L1017.4,358.65L1019.8,356.83L1022.2,367.38L1024.6,356.82L1027,351.41L1029.4,293.41L1031.8,299.07L1034.3,319.27L1036.7,316.03L1039.1,297.15L1041.5,305.06L1043.9,290.12" style="fill:none;stroke:#5A9BD4;stroke-width:1.875;stroke-dasharray:2.5,2.5" />
<path d="M56.662,203.24L59.07,134.26L61.478,126.52L63.886,68.804L66.294,94.715L68.702,83.609L71.11,126.72L73.517,104.44L75.925,115.88L78.333,92.204L80.741,124.27L83.149,107.21L85.557,124.09L87.965,107.56L90.372,90.338L92.78,156.34L95.188,106.86L97.596,93.73L100,100.46L102.41,73.694L104.82,82.269L107.23,95.123L109.64,135.47L112.04,159.16L114.45,133.26L116.86,119.03L119.27,155.19L121.67,154.61L124.08,133.58L126.49,137.87L128.9,144.58L131.31,172.59L133.71,103.76L136.12,99.366L138.53,97.096L140.94,87.162L143.35,92.714L145.75,96.781L148.16,78.387L150.57,87.524L152.98,108.86L155.38,110.88L157.79,115.89L160.2,84.544L162.61,88.492L165.02,101.18L167.42,74.544L169.83,75.946L172.24,60.632L174.65,52.044L177.06,82.266L179.46,56.519L181.87,50.848L184.28,47.03L186.69,54.889L189.09,90.027L191.5,55.042L193.91,69.046L196.32,76.118L198.73,74.418L201.13,68.098L203.54,68.984L205.95,59.996L208.36,75.897L210.77,87.496L213.17,84.208L215.58,99.265L217.99,133.78L220.4,129.92L222.8,118.22L225.21,108.49L227.62,119.35L230.03,138.49L232.44,134.99L234.84,113.96L237.25,136.59L239.66,77.849L242.07,93.975L244.48,87.338L246.88,75.452L249.29,73.546L251.7,99.571L254.11,134.52L256.51,146.19L258.92,131.46L261.33,134.27L263.74,133.81L266.15,194.17L268.55,125.71L270.96,132.64L273.37,130.01L275.78,149.11L278.18,61.807L280.59,78.514L283,77.296L285.41,71.102L287.82,77.378L290.22,82.724L292.63,82.053L295.04,77.339L297.45,75.782L299.86,78.043L302.26,65.213L304.67,78.233L307.08,60.915L309.49,73.843L311.89,54.663L314.3,69.822L316.71,64.627L319.12,61.78L321.53,70.768L323.93,62.289L326.34,79.406L328.75,72.685L331.16,99.94L333.57,98.522L335.97,67.17L338.38,72.976L340.79,65.712L343.2,74.103L345.6,87.112L348.01,96.176L350.42,86.477L352.83,75.196L355.24,90.407L357.64,80.191L360.05,118.28L362.46,119.36L364.87,120.26L367.28,125.47L369.68,119.54L372.09,122L374.5,135.26L376.91,150.98L379.31,132.01L381.72,136.49L384.13,98.47L386.54,82.406L388.95,77.525L391.35,54.471L393.76,78.536L396.17,80.508L398.58,117.58L400.99,126.55L403.39,141.62L405.8,131.68L408.21,129.92L410.62,122.84L413.02,105.55L415.43,112.86L417.84,124.4L420.25,123.72L422.66,73.915L425.06,86.248L427.47,86.411L429.88,81.899L432.29,95.641L434.7,97.141L437.1,109.76L439.51,90.957L441.92,100.32L444.33,77.329L446.73,76.406L449.14,64.529L451.55,63.332L453.96,71.428L456.37,65.368L458.77,86.002L461.18,88.604L463.59,85.182L466,86.234L468.41,68.368L470.81,67.005L473.22,82.193L475.63,64.39L478.04,72.589L480.44,91.004L482.85,82.326L485.26,63.212L487.67,70.746L490.08,72.488L492.48,111L494.89,84.391L497.3,103.74L499.71,71.877L502.12,71.575L504.52,123.85L506.93,115.5L509.34,113.18L511.75,102.49L514.15,128.91L516.56,123.71L518.97,107.56L521.38,104.26L523.79,114.42L526.19,120.55L528.6,80L531.01,92.947L533.42,64.799L535.83,62.6L538.23,89.863L540.64,62.432L543.05,107.58L545.46,94.333L547.86,101.24L550.27,129.62L552.68,119.56L555.09,123.76L557.5,123.76L559.9,103.85L562.31,124.1L564.72,118.27L567.13,63.083L569.54,96.743L571.94,89.935L574.35,95.718L576.76,84.817L579.17,93.236L581.57,83.726L583.98,67.864L586.39,68.03L588.8,68.048L591.21,65.425L593.61,87.513L596.02,91.394L598.43,94.849L600.84,127.42L603.25,88.443L605.65,98.194L608.06,81.137L610.47,69.492L612.88,68.885L615.28,92.576L617.69,88.46L620.1,73.282L622.51,76.518L624.92,77.003L627.32,78.544L629.73,73.218L632.14,64.823L634.55,124.13L636.96,80.486L639.36,72.938L641.77,79.667L644.18,81.604L646.59,92.478L648.99,117.88L651.4,118.46L653.81,123.19L656.22,130.6L658.63,107.73L661.03,98.478L663.44,122.66L665.85,146.31L668.26,127.27L670.66,102.69L673.07,78.669L675.48,57.536L677.89,78.196L680.3,91.961L682.7,69.047L685.11,61.785" style="fill:none;stroke:#FAA75B;stroke-width:1.875;stroke-dasharray:1.25,1.25" />
<path d="M1055,694.3L1080,694.3" style="fill:none;stroke:#F15A60;stroke-width:1.875" />
<text x="1007.5" y="-687.85" transform="scale(1, -1)"
	style="font-family:Helvetica;font-weight:normal;font-style:normal;font-size:12pt">consul</text>
<path d="M1055,680L1080,680" style="fill:none;stroke:#7AC36A;stroke-width:1.875;stroke-dasharray:7.5,2.5" />
<text x="1014.1" y="-673.56" transform="scale(1, -1)"
	style="font-family:Helvetica;font-weight:normal;font-style:normal;font-size:12pt">etcd3</text>
<path d="M1055,665.71L1080,665.71" style="fill:none;stroke:#5A9BD4;stroke-width:1.875;stroke-dasharray:2.5,2.5" />
<text x="1014.1" y="-659.26" transform="scale(1, -1)"
	style="font-family:Helvetica;font-weight:normal;font-style:normal;font-size:12pt">etcd2</text>
<path d="M1055,651.41L1080,651.41" style="fill:none;stroke:#FAA75B;stroke-width:1.875;stroke-dasharray:1.25,1.25" />
<text x="1035.8" y="-644.97" transform="scale(1, -1)"
	style="font-family:Helvetica;font-weight:normal;font-style:normal;font-size:12pt">zk</text>
</g>
</svg>
