<?xml version="1.0"?>
<!-- Generated by SVGo and Plotinum VG -->
<svg width="12in" height="8in"
	xmlns="http://www.w3.org/2000/svg"
	xmlns:xlink="http://www.w3.org/1999/xlink">
<g transform="scale(1, -1) translate(0, -720)">
<path d="M0,0L1080,0L1080,720L0,720Z" style="fill:#FFFFFF" />
<text x="325.33" y="-706.41" transform="scale(1, -1)"
	style="font-family:Helvetica;font-weight:normal;font-style:normal;font-size:12pt">Write 3M keys, 1000 clients, key 64 bytes, value 256 bytes, CPU</text>
<text x="545.89" y="-4.965" transform="scale(1, -1)"
	style="font-family:Helvetica;font-weight:normal;font-style:normal;font-size:12pt">second</text>
<text x="56.662" y="-19.142" transform="scale(1, -1)"
	style="font-family:Helvetica;font-weight:normal;font-style:normal;font-size:10pt">0</text>
<text x="356.9" y="-19.142" transform="scale(1, -1)"
	style="font-family:Helvetica;font-weight:normal;font-style:normal;font-size:10pt">400</text>
<text x="664.09" y="-19.142" transform="scale(1, -1)"
	style="font-family:Helvetica;font-weight:normal;font-style:normal;font-size:10pt">800</text>
<text x="967.8" y="-19.142" transform="scale(1, -1)"
	style="font-family:Helvetica;font-weight:normal;font-style:normal;font-size:10pt">1200</text>
<path d="M60.137,30.467L60.137,40.467" style="fill:none;stroke:#000000;stroke-width:0.625" />
<path d="M367.33,30.467L367.33,40.467" style="fill:none;stroke:#000000;stroke-width:0.625" />
<path d="M674.51,30.467L674.51,40.467" style="fill:none;stroke:#000000;stroke-width:0.625" />
<path d="M981.7,30.467L981.7,40.467" style="fill:none;stroke:#000000;stroke-width:0.625" />
<path d="M213.73,35.468L213.73,40.467" style="fill:none;stroke:#000000;stroke-width:0.625" />
<path d="M520.92,35.468L520.92,40.467" style="fill:none;stroke:#000000;stroke-width:0.625" />
<path d="M828.11,35.468L828.11,40.467" style="fill:none;stroke:#000000;stroke-width:0.625" />
<path d="M60.137,40.467L1080,40.467" style="fill:none;stroke:#000000;stroke-width:0.625" />
<g transform="rotate(90)">
<text x="358.4" y="13.59" transform="scale(1, -1)"
	style="font-family:Helvetica;font-weight:normal;font-style:normal;font-size:12pt">CPU</text>
</g>
<text x="25.505" y="-251.37" transform="scale(1, -1)"
	style="font-family:Helvetica;font-weight:normal;font-style:normal;font-size:10pt">80</text>
<text x="18.555" y="-465.27" transform="scale(1, -1)"
	style="font-family:Helvetica;font-weight:normal;font-style:normal;font-size:10pt">160</text>
<text x="18.555" y="-679.18" transform="scale(1, -1)"
	style="font-family:Helvetica;font-weight:normal;font-style:normal;font-size:10pt">240</text>
<path d="M42.88,256.74L52.88,256.74" style="fill:none;stroke:#000000;stroke-width:0.625" />
<path d="M42.88,470.64L52.88,470.64" style="fill:none;stroke:#000000;stroke-width:0.625" />
<path d="M42.88,684.55L52.88,684.55" style="fill:none;stroke:#000000;stroke-width:0.625" />
<path d="M47.88,149.78L52.88,149.78" style="fill:none;stroke:#000000;stroke-width:0.625" />
<path d="M47.88,363.69L52.88,363.69" style="fill:none;stroke:#000000;stroke-width:0.625" />
<path d="M47.88,577.59L52.88,577.59" style="fill:none;stroke:#000000;stroke-width:0.625" />
<path d="M52.88,47.03L52.88,701.44" style="fill:none;stroke:#000000;stroke-width:0.625" />
<path d="M60.137,47.03L60.905,49.543L61.673,52.805L62.441,55.934L63.209,58.795L63.977,61.709L64.745,64.704L65.513,67.832L66.281,70.56L67.049,73.26L67.817,76.255L68.585,79.142L69.353,81.602L70.121,84.33L70.889,86.95L71.657,89.704L72.425,91.709L73.193,94.169L73.961,96.442L74.729,99.009L75.497,101.34L76.265,103.55L77.033,105.85L77.801,108.07L78.569,110.29L79.337,112.54L80.105,114.7L80.873,116.84L81.641,118.58L82.409,120.77L83.177,122.78L83.945,124.57L84.712,126.12L85.48,128.26L86.248,130.11L87.016,131.66L87.784,133.71L88.552,135.45L89.32,137.03L90.088,139.04L90.856,140.53L91.624,142.35L92.392,144.01L93.16,145.43L93.928,147L94.696,148.37L95.464,149.97L96.232,151.63L97,153.02L97.768,154.6L98.536,155.93L99.304,157.16L100.07,158.72L100.84,159.84L101.61,161.39L102.38,162.73L103.14,164.2L103.91,165.37L104.68,166.36L105.45,167.46L106.22,168.72L106.98,170.11L107.75,171.17L108.52,172.65L109.29,174.33L110.06,177.38L110.82,178.45L111.59,179.01L112.36,179.68L113.13,180.27L113.9,180.24L114.66,180.61L115.43,180.05L116.2,180.4L116.97,180.64L117.74,180.11L118.5,180.37L119.27,179.81L120.04,180.19L120.81,180.21L121.57,179.89L122.34,180.11L123.11,179.62L123.88,180.43L124.65,179.92L125.41,180.13L126.18,179.92L126.95,179.89L127.72,179.76L128.49,179.65L129.25,179.52L130.02,179.44L130.79,179.28L131.56,179.22L132.33,179.06L133.09,179.28L133.86,178.88L134.63,179.36L135.4,179.09L136.17,179.41L136.93,178.98L137.7,179.25L138.47,178.8L139.24,179.06L140.01,178.61L140.77,178.85L141.54,178.37L142.31,178.63L143.08,178.53L143.85,178.45L144.61,178.37L145.38,178.72L146.15,178.8L146.92,178.5L147.69,178.74L148.45,178.34L149.22,178.58L149.99,178.18L150.76,178.45L151.53,178.02L152.29,178.29L153.06,177.86L153.83,178.13L154.6,177.7L155.37,177.99L156.13,177.94L156.9,178.23L157.67,177.81L158.44,178.07L159.21,177.7L159.97,177.81L160.74,177.59L161.51,177.59L162.28,177.46L163.05,177.43L163.81,177.35L164.58,177.3L165.35,177.91L166.12,178.29L166.89,178.42L167.65,178.77L168.42,178.85L169.19,179.17L169.96,179.25L170.72,179.62L171.49,179.73L172.26,180.08L173.03,180.21L173.8,180.93L174.56,180.99L175.33,181.87L176.1,181.79L176.87,182.67L177.64,182.83L178.4,183.45L179.17,183.85L179.94,183.85L180.71,184.73L181.48,184.62L182.24,185.51L183.01,185.56L183.78,186.39L184.55,186.63L185.32,187.16L186.08,187.51L186.85,187.51L187.62,188.45L188.39,188.58L189.16,189.81L189.92,190L190.69,191.12L191.46,191.23L192.23,191.92L193,192.7L193.76,193.15L194.53,194.36L195.3,194.57L196.07,195.8L196.84,196.04L197.6,196.6L198.37,197.49L199.14,198.02L199.91,198.42L200.68,199.28L201.44,199.68L202.21,200.29L202.98,201.18L203.75,201.39L204.52,202.3L205.28,202.86L206.05,203.42L206.82,203.93L207.59,204.52L208.36,205.03L209.12,205.21L209.89,206.15L210.66,206.66L211.43,206.76L212.2,207.3L212.96,207.83L213.73,208.37L214.5,208.88L215.27,209.06L216.04,209.62L216.8,210.56L217.57,210.72L218.34,211.01L219.11,211.63L219.88,212.06L220.64,212.73L221.41,213.15L222.18,213.29L222.95,213.53L223.71,214.41L224.48,214.97L225.25,215.11L226.02,215.59L226.79,215.69L227.55,216.23L228.32,216.44L229.09,217.43L229.86,217.59L230.63,217.78L231.39,218.29L232.16,218.96L232.93,219.12L233.7,219.65L234.47,219.68L235.23,220.32L236,220.45L236.77,221.1L237.54,221.18L238.31,221.95L239.07,221.98L239.84,221.82L240.61,221.6L241.38,221.36L242.15,221.07L242.91,220.8L243.68,220.51L244.45,220.67L245.22,220.35L245.99,220.59L246.75,220.27L247.52,219.92L248.29,219.97L249.06,219.76L249.83,219.38L250.59,219.04L251.36,218.69L252.13,218.34L252.9,217.97L253.67,217.65L254.43,217.3L255.2,216.95L255.97,216.6L256.74,216.31L257.51,216.01L258.27,215.72L259.04,215.56L259.81,215.83L260.58,215.96L261.35,215.77L262.11,215.75L262.88,215.83L263.65,215.59L264.42,215.37L265.19,215.19L265.95,214.97L266.72,214.81L267.49,214.62L268.26,214.46L269.02,215.32L269.79,215.51L270.56,216.04L271.33,216.1L272.1,216.12L272.86,216.26L273.63,216.44L274.4,217.38L275.17,218.29L275.94,218.34L276.7,218.31L277.47,218.66L278.24,218.5L279.01,218.39L279.78,218.77L280.54,218.72L281.31,219.17L282.08,219.81L282.85,220.48L283.62,221.18L284.38,221.18L285.15,221.63L285.92,221.92L286.69,221.68L287.46,221.84L288.22,222.03L288.99,221.71L289.76,221.84L290.53,222L291.3,221.68L292.06,221.82L292.83,221.98L293.6,221.84L294.37,221.79L295.14,221.98L295.9,222.03L296.67,221.79L297.44,221.5L298.21,222.08L298.98,221.79L299.74,221.5L300.51,222.62L301.28,222.32L302.05,222L302.82,222.41L303.58,222.32L304.35,222L305.12,222.14L305.89,222.32L306.66,222L307.42,221.68L308.19,222.32L308.96,222L309.73,221.9L310.5,222.7L311.26,222.59L312.03,222.49L312.8,223.45L313.57,223.61L314.34,223.34L315.1,223.55L315.87,224.2L316.64,223.96L317.41,224.17L318.17,224.87L318.94,224.7L319.71,224.92L320.48,225.61L321.25,225.4L322.01,225.67L322.78,226.15L323.55,226.23L324.32,226.44L325.09,226.76L325.85,227.08L326.62,227.38L327.39,227.78L328.16,228.18L328.93,228.55L329.69,228.98L330.46,229.38L331.23,229.78L332,230.24L332.77,230.67L333.53,230.96L334.3,231.31L335.07,231.44L335.84,232.35L336.61,232.7L337.37,232.81L338.14,233.61L338.91,233.9L339.68,234.17L340.45,234.57L341.21,235.08L341.98,235.56L342.75,235.59L343.52,236.28L344.29,236.95L345.05,236.98L345.82,237.49L346.59,238.37L347.36,238.42L348.13,238.45L348.89,239.04L349.66,239.89L350.43,239.95L351.2,240.35L351.97,240.77L352.73,241.23L353.5,241.31L354.27,241.84L355.04,242.41L355.81,242.46L356.57,242.99L357.34,243.47L358.11,243.98L358.88,244.12L359.65,244.52L360.41,244.95L361.18,245.56L361.95,245.75L362.72,245.8L363.49,246.15L364.25,246.82L365.02,247.41L365.79,247.43L366.56,247.43L367.33,247.49L368.09,248.5L368.86,249.01L369.63,249.06L370.4,249.09L371.16,249.14L371.93,249.7L372.7,250.67L373.47,250.69L374.24,250.72L375,250.77L375.77,250.99L376.54,251.82L377.31,252.24L378.08,252.33L378.84,252.35L379.61,252.38L380.38,252.86L381.15,253.42L381.92,253.45L382.68,253.88L383.45,253.85L384.22,253.9L384.99,254.46L385.76,255.05L386.52,255.11L387.29,255.11L388.06,255.56L388.83,255.59L389.6,256.15L390.36,256.26L391.13,256.76L391.9,256.79L392.67,256.82L393.44,256.84L394.2,257.75L394.97,257.97L395.74,257.99L396.51,258.58L397.28,258.61L398.04,258.64L398.81,258.66L399.58,259.12L400.35,259.22L401.12,259.46L401.88,259.79L402.65,260.37L403.42,260.43L404.19,260.45L404.96,260.59L405.72,261.1L406.49,261.12L407.26,261.18L408.03,261.28L408.8,261.76L409.56,262.41L410.33,262.49L411.1,262.78L411.87,263.23L412.64,263.31L413.4,263.45L414.17,263.56L414.94,263.66L415.71,263.96L416.48,264.25L417.24,264.09L418.01,263.88L418.78,264.22L419.55,264.81L420.31,264.92L421.08,264.92L421.85,264.97L422.62,265L423.39,265.05L424.15,265.11L424.92,265.16L425.69,265.24L426.46,265.83L427.23,266.5L427.99,266.84L428.76,267.19L429.53,267.38L430.3,267.73L431.07,268.05L431.83,268.42L432.6,268.85L433.37,269.6L434.14,270.56L434.91,270.93L435.67,271.5L436.44,272.14L437.21,272.22L437.98,272.86L438.75,273.82L439.51,273.98L440.28,274.14L441.05,274.46L441.82,275.61L442.59,276.36L443.35,276.47L444.12,276.42L444.89,276.9L445.66,277.41L446.43,278.21L447.19,278.23L447.96,278.74L448.73,278.64L449.5,279.89L450.27,279.92L451.03,280.24L451.8,280.32L452.57,281.31L453.34,281.6L454.11,281.44L454.87,281.39L455.64,282.33L456.41,282.46L457.18,282.41L457.95,282.83L458.71,282.81L459.48,283.15L460.25,284.04L461.02,283.88L461.79,284.46L462.55,284.44L463.32,284.73L464.09,285.32L464.86,285.61L465.62,286.18L466.39,286.23L467.16,286.42L467.93,287.41L468.7,287.27L469.46,287.35L470.23,287.81L471,287.81L471.77,288.96L472.54,288.8L473.3,288.64L474.07,288.98L474.84,289.14L475.61,290.27L476.38,290.16L477.14,290L477.91,289.81L478.68,290.32L479.45,291.12L480.22,291.52L480.98,291.34L481.75,291.15L482.52,290.99L483.29,291.87L484.06,292.62L484.82,292.65L485.59,292.54L486.36,292.46L487.13,292.51L487.9,293.5L488.66,294.12L489.43,294.09L490.2,294.04L490.97,293.98L491.74,294.44L492.5,294.87L493.27,295.61L494.04,295.61L494.81,295.61L495.58,296.2L496.34,296.12L497.11,296.79L497.88,297.3L498.65,297.27L499.42,297.27L500.18,297.97L500.95,297.97L501.72,298.42L502.49,299.04L503.26,299.06L504.02,299.04L504.79,299.71L505.56,299.76L506.33,299.84L507.1,300.16L507.86,300.72L508.63,300.69L509.4,301.02L510.17,301.39L510.94,301.36L511.7,301.5L512.47,301.71L513.24,302.16L514.01,302.22L514.77,302.81L515.54,302.86L516.31,302.83L517.08,302.81L517.85,303.23L518.61,303.15L519.38,303.69L520.15,304.17L520.92,304.44L521.69,304.38L522.45,304.38L523.22,304.41L523.99,304.79L524.76,304.6L525.53,304.79L526.29,305.8L527.06,305.77L527.83,305.77L528.6,305.75L529.37,305.72L530.13,306.2L530.9,306.1L531.67,306.36L532.44,306.6L533.21,307.06L533.97,307.06L534.74,307.03L535.51,307L536.28,306.95L537.05,307.41L537.81,307.94L538.58,307.94L539.35,307.7L540.12,307.75L540.89,308.13L541.65,308.07L542.42,308.05L543.19,307.99L543.96,307.94L544.73,308.72L545.49,308.88L546.26,308.69L547.03,308.5L547.8,308.26L548.57,308.13L549.33,308.66L550.1,308.77L550.87,308.88L551.64,309.57L552.41,310L553.17,310.37L553.94,310.32L554.71,310.21L555.48,310.11L556.25,310L557.01,310.19L557.78,310.35L558.55,310.08L559.32,309.84L560.09,309.57L560.85,309.97L561.62,309.89L562.39,310.24L563.16,310.61L563.92,310.35L564.69,310.11L565.46,309.84L566.23,310.08L567,310L567.76,309.71L568.53,309.44L569.3,309.14L570.07,308.9L570.84,309.25L571.6,308.98L572.37,308.69L573.14,308.39L573.91,308.1L574.68,308.1L575.44,308.21L576.21,308.58L576.98,308.29L577.75,308.13L578.52,308.39L579.28,308.13L580.05,308.13L580.82,308.26L581.59,307.97L582.36,307.73L583.12,307.43L583.89,307.16L584.66,307.19L585.43,307.27L586.2,306.98L586.96,306.74L587.73,306.82L588.5,306.82L589.27,307L590.04,306.95L590.8,306.63L591.57,306.39L592.34,306.12L593.11,305.85L593.88,306.2L594.64,305.96L595.41,305.69L596.18,305.43L596.95,305.16L597.72,304.89L598.48,305.83L599.25,305.61L600.02,305.37L600.79,305.11L601.56,305.48L602.32,305.43L603.09,305.77L603.86,305.59L604.63,305.51L605.4,305.43L606.16,305.4L606.93,305.72L607.7,305.96L608.47,306.44L609.24,306.5L610,306.44L610.77,306.79L611.54,307.25L612.31,307.27L613.08,307.27L613.84,307.54L614.61,307.3L615.38,307.08L616.15,307.46L616.91,307.49L617.68,308.37L618.45,308.34L619.22,308.23L619.99,308.37L620.75,308.64L621.52,308.74L622.29,309.73L623.06,309.73L623.83,309.71L624.59,309.76L625.36,310.16L626.13,310.8L626.9,311.23L627.67,311.18L628.43,311.18L629.2,311.12L629.97,310.85L630.74,311.12L631.51,311.6L632.27,312.22L633.04,312.33L633.81,312.3L634.58,312.27L635.35,312.35L636.11,313.31L636.88,313.74L637.65,313.96L638.42,313.93L639.19,313.9L639.95,313.9L640.72,314.79L641.49,315.21L642.26,315.48L643.03,315.48L643.79,315.45L644.56,315.45L645.33,315.8L646.1,316.63L646.87,317.14L647.63,317.11L648.4,317.11L649.17,317.06L649.94,317.03L650.71,317.65L651.47,318.45L652.24,318.82L653.01,318.77L653.78,318.72L654.55,318.69L655.31,318.8L656.08,319.33L656.85,319.62L657.62,320.4L658.39,320.43L659.15,320.4L659.92,320.35L660.69,320.48L661.46,320.85L662.23,320.72L662.99,321.23L663.76,321.82L664.53,321.84L665.3,321.79L666.06,321.76L666.83,322.22L667.6,322.17L668.37,322.14L669.14,322.57L669.9,322.97L670.67,323.18L671.44,323.13L672.21,323.1L672.98,323.61L673.74,323.48L674.51,323.31L675.28,323.69L676.05,323.77L676.82,324.06L677.58,324.36L678.35,324.28L679.12,324.57L679.89,324.81L680.66,324.79L681.42,324.81L682.19,325.24L682.96,325.19L683.73,325.11L684.5,325.69L685.26,325.67L686.03,326.04L686.8,326.1L687.57,325.99L688.34,325.94L689.1,326.15L689.87,326.42L690.64,326.36L691.41,326.31L692.18,326.58L692.94,327.11L693.71,327.35L694.48,327.17L695.25,326.98L696.02,326.79L696.78,326.6L697.55,327.08L698.32,327.08L699.09,327.06L699.86,327L700.62,327.08L701.39,328.1L702.16,327.97L702.93,327.86L703.7,327.75L704.46,327.65L705.23,327.54L706,327.75L706.77,328.1L707.54,328.69L708.3,328.8L709.07,328.85L709.84,328.9L710.61,329.25L711.37,329.38L712.14,329.33L712.91,329.71L713.68,329.87L714.45,329.71L715.21,330.13L715.98,330.13L716.75,330.11L717.52,330.08L718.29,330.43L719.05,330.72L719.82,330.69L720.59,330.91L721.36,331.02L722.13,330.83L722.89,330.69L723.66,331.15L724.43,331.12L725.2,331.44L725.97,331.42L726.73,331.36L727.5,331.31L728.27,331.23L729.04,331.18L729.81,331.44L730.57,331.82L731.34,331.76L732.11,331.82L732.88,332.14L733.65,332.08L734.41,332L735.18,333.1L735.95,333.37L736.72,333.42L737.49,333.48L738.25,333.53L739.02,333.56L739.79,333.66L740.56,334.79L741.33,334.81L742.09,334.71L742.86,334.6L743.63,334.52L744.4,334.33L745.17,334.14L745.93,333.93L746.7,334.28L747.47,334.6L748.24,334.68L749.01,334.44L749.77,334.2L750.54,334.04L751.31,334.38L752.08,334.22L752.85,334.04L753.61,335L754.38,334.95L755.15,334.71L755.92,334.46L756.69,334.22L757.45,333.98L758.22,333.77L758.99,333.5L759.76,333.26L760.52,334.12L761.29,334.2L762.06,333.98L762.83,333.74L763.6,333.5L764.36,333.26L765.13,333.05L765.9,333.05L766.67,333.26L767.44,333.58L768.2,333.4L768.97,333.15L769.74,332.94L770.51,332.7L771.28,332.49L772.04,332.78L772.81,332.67L773.58,332.54L774.35,332.91L775.12,332.7L775.88,332.49L776.65,332.25L777.42,332.27L778.19,332.75L778.96,332.81L779.72,332.65L780.49,332.49L781.26,332.89L782.03,332.91L782.8,332.78L783.56,333.26L784.33,333.18L785.1,333.05L785.87,332.89L786.64,332.75L787.4,332.62L788.17,332.86L788.94,333.29L789.71,333.48L790.48,333.9L791.24,333.85L792.01,333.8L792.78,333.74L793.55,333.69L794.32,333.93L795.08,334.71L795.85,334.71L796.62,334.95L797.39,335.16L798.16,335.11L798.92,335.05L799.69,335.03L800.46,335.21L801.23,335.59L802,335.67L802.76,335.94L803.53,335.88L804.3,336.18L805.07,336.15L805.84,336.1L806.6,336.07L807.37,336.04L808.14,336.44L808.91,336.55L809.68,337L810.44,337.03L811.21,337.25L811.98,337.65L812.75,337.62L813.51,337.57L814.28,337.83L815.05,337.99L815.82,338.21L816.59,338.48L817.35,338.42L818.12,338.37L818.89,338.31L819.66,338.74L820.43,338.9L821.19,339.09L821.96,339.33L822.73,339.79L823.5,339.81L824.27,339.76L825.03,339.71L825.8,339.65L826.57,339.6L827.34,339.54L828.11,339.68L828.87,340.69L829.64,341.2L830.41,341.2L831.18,341.15L831.95,341.07L832.71,341.02L833.48,340.96L834.25,340.91L835.02,340.85L835.79,340.8L836.55,341.36L837.32,341.9L838.09,342.06L838.86,342.3L839.63,342.17L840.39,342L841.16,341.84L841.93,341.68L842.7,341.52L843.47,341.36L844.23,341.55L845,341.87L845.77,342.38L846.54,342.38L847.31,342.33L848.07,342.27L848.84,342.41L849.61,342.75L850.38,342.75L851.15,342.73L851.91,342.91L852.68,343.74L853.45,343.98L854.22,344.01L854.99,344.04L855.75,344.09L856.52,344.09L857.29,344.12L858.06,344.14L858.82,344.63L859.59,344.81L860.36,345.19L861.13,345.69L861.9,345.96L862.66,346.02L863.43,345.91L864.2,345.83L864.97,345.83L865.74,346.26L866.5,346.23L867.27,346.15L868.04,346.07L868.81,345.96L869.58,346.02L870.34,346.34L871.11,346.36L871.88,346.84L872.65,346.95L873.42,346.9L874.18,346.84L874.95,347.19L875.72,347.17L876.49,347L877.26,346.87L878.02,346.79L878.79,346.68L879.56,347.03L880.33,347.57L881.1,347.81L881.86,347.86L882.63,347.89L883.4,347.91L884.17,347.94L884.94,347.99L885.7,348.66L886.47,349.09L887.24,349.01L888.01,348.96L888.78,348.96L889.54,348.98L890.31,348.98L891.08,349.38L891.85,349.44L892.62,349.52L893.38,350.11L894.15,350.53L894.92,350.45L895.69,350.29L896.46,350.16L897.22,350.03L897.99,349.87L898.76,349.73L899.53,349.57L900.3,349.81L901.06,350.61L901.83,350.48L902.6,350.27L903.37,350.08L904.14,349.87L904.9,349.68L905.67,349.49L906.44,349.57L907.21,349.76L907.98,349.68L908.74,350.4L909.51,350.75L910.28,350.56L911.05,350.37L911.81,350.19L912.58,349.97L913.35,349.79L914.12,349.6L914.89,349.41L915.65,349.52L916.42,349.73L917.19,349.71L917.96,350.03L918.73,349.84L919.49,349.63L920.26,349.41L921.03,349.22L921.8,349.01L922.57,348.82L923.33,349.14L924.1,349.09L924.87,348.9L925.64,348.69L926.41,348.96L927.17,348.93L927.94,349.17L928.71,349.2L929.48,349.01L930.25,349.06L931.01,349.36L931.78,349.17L932.55,348.98L933.32,348.8L934.09,348.61L934.85,348.58L935.62,348.8L936.39,348.61L937.16,348.42L937.93,348.56L938.69,348.72L939.46,348.53L940.23,348.34L941,348.13L941.77,347.94L942.53,347.73L943.3,347.54L944.07,347.59L944.84,347.73L945.61,347.81L946.37,348.05L947.14,347.86L947.91,347.67L948.68,347.46L949.45,347.27L950.21,347.06L950.98,346.87L951.75,346.66L952.52,346.79L953.29,347.38L954.05,348.1L954.82,347.91L955.59,347.73L956.36,347.51L957.12,347.33L957.89,347.14L958.66,346.92L959.43,346.74L960.2,346.55L960.96,346.42L961.73,346.79L962.5,346.76L963.27,347.03L964.04,346.87L964.8,346.66L965.57,346.47L966.34,346.28L967.11,346.07L967.88,345.88L968.64,345.69L969.41,345.91L970.18,346.02L970.95,345.8L971.72,345.61L972.48,345.94L973.25,345.96L974.02,345.83L974.79,345.69L975.56,345.99L976.32,346.04L977.09,346.1L977.86,346.47L978.63,346.39L979.4,346.28L980.16,346.15L980.93,346.02L981.7,345.91L982.47,346.31L983.24,346.23L984,346.1L984.77,345.99L985.54,346.26L986.31,346.36L987.08,346.58L987.84,346.74L988.61,346.74L989.38,346.71L990.15,346.66L990.92,346.63L991.68,347.06L992.45,347.14L993.22,347.51L993.99,347.86L994.76,348.02L995.52,348.02L996.29,347.89L997.06,347.75L997.83,347.7L998.6,347.73L999.36,347.75L1000.1,347.83L1000.9,348.31L1001.7,348.42L1002.4,348.74L1003.2,349.17L1004,349.52L1004.7,349.54L1005.5,349.57L1006.3,349.6L1007,349.87L1007.8,350.13L1008.6,350.11L1009.3,350.03L1010.1,350.35L1010.9,350.53L1011.7,350.51L1012.4,350.45L1013.2,350.4L1014,350.53L1014.7,350.72L1015.5,350.67L1016.3,351.04L1017,350.99L1017.8,351.1L1018.6,351.44L1019.3,351.5L1020.1,351.52L1020.9,351.55L1021.6,351.58L1022.4,351.6L1023.2,352.27L1023.9,352.73L1024.7,352.67L1025.5,352.57L1026.2,352.83L1027,353.13L1027.8,353.18L1028.5,353.18L1029.3,353.21L1030.1,353.31L1030.8,353.82L1031.6,354.12L1032.4,354.44L1033.2,354.41L1033.9,354.3L1034.7,354.52L1035.5,354.76L1036.2,354.73L1037,354.68L1037.8,354.6L1038.5,354.71L1039.3,355.05L1040.1,354.97L1040.8,355L1041.6,355.27L1042.4,355.13L1043.1,354.95L1043.9,354.92L1044.7,355.27L1045.4,355.24L1046.2,355.19L1047,355.27L1047.7,355.64L1048.5,356.07L1049.3,356.1L1050,355.94L1050.8,355.77L1051.6,355.61L1052.4,355.45L1053.1,355.29L1053.9,355.13L1054.7,355.43L1055.4,355.56L1056.2,355.91L1057,356.6L1057.7,356.5L1058.5,356.34L1059.3,356.15L1060,355.99L1060.8,355.86L1061.6,355.67L1062.3,355.51L1063.1,355.37L1063.9,355.27L1064.6,355.59L1065.4,355.75L1066.2,356.34L1066.9,356.47L1067.7,356.34L1068.5,356.23L1069.2,356.1L1070,355.99L1070.8,355.86L1071.6,355.75L1072.3,356.02L1073.1,356.12L1073.9,355.96L1074.6,355.83L1075.4,356.04L1076.2,356.12L1076.9,356.12L1077.7,356.42L1078.5,356.39L1079.2,356.34L1080,356.28" style="fill:none;stroke:#F15A60;stroke-width:1.875" />
<path d="M60.137,48.287L60.905,55.747L61.673,63.233L62.441,69.49L63.209,76.977L63.977,84.33L64.745,91.442L65.513,99.356L66.281,106.44L67.049,111.76L67.817,118.63L68.585,125.43L69.353,131.71L70.121,138.13L70.889,143.39L71.657,149.57L72.425,155.61L73.193,161.84L73.961,167.89L74.729,173.55L75.497,178.21L76.265,184.12L77.033,189.46L77.801,194.73L78.569,200.24L79.337,204.92L80.105,209.87L80.873,214.65L81.641,219.44L82.409,224.65L83.177,229.49L83.945,232.78L84.712,237.41L85.48,241.95L86.248,246.36L87.016,250.77L87.784,255.56L88.552,258.66L89.32,263.1L90.088,267.08L90.856,271.63L91.624,275.59L92.392,279.92L93.16,283.02L93.928,287.46L94.696,291.04L95.464,294.71L96.232,298.77L97,301.9L97.768,304.65L98.536,309.06L99.304,312.49L100.07,315.85L100.84,318.96L101.61,322.65L102.38,325.72L103.14,328.98L103.91,331.92L104.68,335.19L105.45,338.53L106.22,341.76L106.98,343.72L107.75,346.71L108.52,350.08L109.29,352.99L110.06,355.86L110.82,358.88L111.59,360.83L112.36,363.69L113.13,366.92L113.9,369.6L114.66,372.3L115.43,375.11L116.2,376.44L116.97,378.88L117.74,381.52L118.5,383.98L119.27,386.36L120.04,388.96L120.81,391.36L121.57,393.8L122.34,396.66L123.11,399.14L123.88,401.55L124.65,403.34L125.41,405.27L126.18,407.65L126.95,409.79L127.72,412.11L128.49,413.69L129.25,415.78L130.02,417.65L130.79,420.11L131.56,421.52L132.33,423.45L133.09,425.94L133.86,428.13L134.63,429.28L135.4,431.58L136.17,433.66L136.93,435.91L137.7,437.17L138.47,439.28L139.24,440.78L140.01,442.22L140.77,444.04L141.54,446.15L142.31,447.81L143.08,449.25L143.85,451.84L144.61,453.45L145.38,455.35L146.15,457.65L146.92,459.33L147.69,461.36L148.45,463.58L149.22,464.3L149.99,466.6L150.76,468.53L151.53,470.27L152.29,472.46L153.06,473.58L153.83,475.78L154.6,476.87L155.37,478.66L156.13,481.47L156.9,482.46L157.67,484.79L158.44,485.88L159.21,487.46L159.97,488.98L160.74,490.8L161.51,492.94L162.28,494.17L163.05,496.31L163.81,497.03L164.58,498.88L165.35,499.84L166.12,502.01L166.89,502.94L167.65,505.13L168.42,506.34L169.19,507.99L169.96,509.01L170.72,510.86L171.49,511.9L172.26,513.93L173.03,514.95L173.8,516.82L174.56,517.27L175.33,519.2L176.1,520.11L176.87,522.11L177.64,522.89L178.4,524.87L179.17,525.37L179.94,527.17L180.71,527.94L181.48,529.76L182.24,530.7L183.01,532.57L183.78,533.61L184.55,534.09L185.32,535.7L186.08,536.52L186.85,538.58L187.62,539.17L188.39,541.71L189.16,541.93L189.92,543.61L190.69,544.79L191.46,546.07L192.23,547.41L193,548.24L193.76,550.03L194.53,550.35L195.3,552.19L196.07,552.89L196.84,554.01L197.6,555.32L198.37,555.94L199.14,557.78L199.91,558.02L200.68,559.41L201.44,560.56L202.21,560.94L202.98,562.91L203.75,563.37L204.52,565.11L205.28,565.8L206.05,566.34L206.82,568.8L207.59,569.28L208.36,570.94L209.12,571.9L209.89,572.46L210.66,574.36L211.43,574.87L212.2,576.18L212.96,577.3L213.73,577.86L214.5,579.71L215.27,579.76L216.04,580.46L216.8,582.11L217.57,582.67L218.34,583.88L219.11,584.95L219.88,585.19L220.64,586.52L221.41,587.49L222.18,587.97L222.95,590.11L223.71,590.46L224.48,591.55L225.25,592.86L226.02,593.13L226.79,594.68L227.55,595.72L228.32,596.12L229.09,597.59L229.86,598.29L230.63,598.53L231.39,600.03L232.16,600.78L232.93,601.26L233.7,603L234.47,603.48L235.23,603.61L236,605.35L236.77,605.91L237.54,606.2L238.31,608.02" style="fill:none;stroke:#7AC36A;stroke-width:1.875;stroke-dasharray:7.5,2.5" />
<path d="M60.137,47.966L60.905,54.757L61.673,61.816L62.441,69.089L63.209,76.576L63.977,82.725L64.745,90.159L65.513,97.084L66.281,103.9L67.049,109.49L67.817,116.15L68.585,122.75L69.353,128.85L70.121,134.17L70.889,140.24L71.657,146.15L72.425,151.95L73.193,157.91L73.961,162.7L74.729,168.07L75.497,173.26L76.265,178.96L77.033,183.26L77.801,188.1L78.569,193.18L79.337,198.45L80.105,203.47L80.873,207.7L81.641,212.06L82.409,216.92L83.177,221.68L83.945,225.69L84.712,230.32L85.48,234.54L86.248,238.93L87.016,243.5L87.784,246.82L88.552,251.18L89.32,255.43L90.088,259.57L90.856,262.57L91.624,266.66L92.392,270.85L93.16,274.54L93.928,278.37L94.696,282.14L95.464,285.4L96.232,289.04L97,292.49L97.768,295.61L98.536,298.82L99.304,302.89L100.07,306.04L100.84,309.65L101.61,312L102.38,314.97L103.14,318.53L103.91,321.44L104.68,323.93L105.45,326.92L106.22,330.21L106.98,332.94L107.75,335.8L108.52,337.97L109.29,340.77L110.06,343.96L110.82,346.63L111.59,349.25L112.36,351.31L113.13,353.77L113.9,356.12L114.66,358.64L115.43,361.2L116.2,363.23L116.97,365.59L117.74,367.91L118.5,370.11L119.27,372.38L120.04,374.57L120.81,376.84L121.57,379.09L122.34,381.34L123.11,383.18L123.88,385.24L124.65,387.27L125.41,389.3L126.18,391.42L126.95,392.89L127.72,394.95L128.49,397.49L129.25,399.97L130.02,402.17L130.79,404.25L131.56,406.12L132.33,408.13L133.09,409.71L133.86,411.87L134.63,413.53L135.4,415.43L136.17,417.35L136.93,419.2L137.7,421.2L138.47,423.5L139.24,425.19L140.01,426.92L140.77,429.01L141.54,430.83L142.31,432.43L143.08,434.2L143.85,436.47L144.61,438.53L145.38,439.47L146.15,441.39L146.92,443.82L147.69,445.56L148.45,446.87L149.22,448.74L149.99,450.29L150.76,452.01L151.53,453.93L152.29,455.45L153.06,456.82L153.83,458.96L154.6,460.35L155.37,461.98L156.13,464.06L156.9,465.05L157.67,466.82L158.44,468.5L159.21,470.45L159.97,471.58L160.74,472.99L161.51,474.28L162.28,475.88L163.05,477.25L163.81,478.72L164.58,479.81L165.35,481.66L166.12,482.81L166.89,484.41L167.65,485.59L168.42,487.06L169.19,489.49L169.96,490.88L170.72,492.49L171.49,493.93L172.26,495.24L173.03,497.03L173.8,498.4L174.56,499.92L175.33,501.04L176.1,502.57L176.87,503.96L177.64,505.62L178.4,506.68L179.17,507.99L179.94,509.36L180.71,511.6L181.48,512.51L182.24,514.65L183.01,515.16L183.78,516.68L184.55,518.16L185.32,519.81L186.08,520.8L186.85,522.03L187.62,523.18L188.39,524.49L189.16,525.78L189.92,526.98L190.69,528.13L191.46,529.28L192.23,530.72L193,532.01L193.76,533.4L194.53,533.88L195.3,535.75L196.07,536.2L196.84,538.48L197.6,538.77L198.37,540.24L199.14,541.36L199.91,543.02L200.68,544.14L201.44,545.21L202.21,546.5L202.98,547.19L203.75,548.5L204.52,549.6L205.28,550.72L206.05,551.79L206.82,552.7L207.59,554.14L208.36,554.84L209.12,556.04L209.89,557.22L210.66,558.05L211.43,559.76L212.2,560.05L212.96,562.17L213.73,562.51L214.5,563.96L215.27,565.19L216.04,565.51L216.8,566.71L217.57,567.54L218.34,568L219.11,569.65L219.88,570.35L220.64,571.36L221.41,572.33L222.18,572.81L222.95,573.74L223.71,574.97L224.48,575.32L225.25,576.63L226.02,577.41L226.79,578L227.55,579.6L228.32,580.03L229.09,580.8L229.86,582.25L230.63,582.46L231.39,584.44L232.16,585.37" style="fill:none;stroke:#5A9BD4;stroke-width:1.875;stroke-dasharray:2.5,2.5" />
<path d="M60.137,50.907L60.905,60.105L61.673,70.185L62.441,80.506L63.209,92.271L63.977,104.09L64.745,116.95L65.513,129.54L66.281,142.11L67.049,154.54L67.817,164.57L68.585,169.41L69.353,173.26L70.121,176.31L70.889,177.81L71.657,177.22L72.425,176.71L73.193,176.26L73.961,175.59L74.729,175.08L75.497,174.57L76.265,174.28L77.033,175.45L77.801,178.13L78.569,179.57L79.337,179.04L80.105,178.5L80.873,177.99L81.641,177.51L82.409,176.87L83.177,176.09L83.945,175.29L84.712,174.6L85.48,173.72L86.248,172.86L87.016,171.98L87.784,171.09L88.552,170.11L89.32,169.25L90.088,168.34L90.856,167.46L91.624,166.55L92.392,165.61L93.16,164.73L93.928,163.82L94.696,162.89L95.464,162.03L96.232,161.17L97,160.29L97.768,159.46L98.536,158.61L99.304,157.81L100.07,157L100.84,156.17L101.61,155.4L102.38,154.62L103.14,153.85L103.91,153.1L104.68,152.35L105.45,151.6L106.22,152.22L106.98,157.27L107.75,164.81L108.52,172.54L109.29,180.77L110.06,190.03L110.82,199.6L111.59,208.26L112.36,216.31L113.13,224.49L113.9,232.94L114.66,238.18L115.43,242.99L116.2,246.84L116.97,249.65L117.74,253.37L118.5,260.43L119.27,267.54L120.04,275.24L120.81,280.08L121.57,285.75L122.34,291.52L123.11,294.97L123.88,298.42L124.65,300.03L125.41,300.53L126.18,302.27L126.95,301.12L127.72,300L128.49,299.73L129.25,300.69L130.02,301.6L130.79,302.49L131.56,303.34L132.33,303.53L133.09,302.54L133.86,301.82L134.63,300.85L135.4,300.03L136.17,299.62L136.93,299.97L137.7,300.45L138.47,301.76L139.24,302.54L140.01,302.91L140.77,302.3L141.54,301.26L142.31,300.13L143.08,298.98L143.85,297.89L144.61,296.71L145.38,295.64L146.15,294.49L146.92,293.42L147.69,292.3L148.45,291.23L149.22,290.16L149.99,289.09L150.76,288.05L151.53,287L152.29,286.55L153.06,288.64L153.83,292.03L154.6,296.9L155.37,301.47L156.13,306.63L156.9,312.99L157.67,317.97L158.44,324.65L159.21,329.12L159.97,335.13L160.74,338.29L161.51,342.43L162.28,347.06L163.05,350.48L163.81,353.48L164.58,357.83L165.35,360.05L166.12,362.11L166.89,365.48L167.65,368.02L168.42,369.89L169.19,373.74L169.96,377.67L170.72,381.55L171.49,384.09L172.26,388.9L173.03,392.46L173.8,395.78L174.56,399.81L175.33,404.76L176.1,407.3L176.87,411.34L177.64,412.81L178.4,414.12L179.17,416.36L179.94,417.81L180.71,418.02L181.48,417.19L182.24,416.02L183.01,414.95L183.78,415.11L184.55,415L185.32,415.4L186.08,415.64L186.85,415.75L187.62,416.02L188.39,416.76L189.16,415.94L189.92,414.79L190.69,414.6L191.46,414.46L192.23,415.19L193,415.08L193.76,415.27L194.53,415.45L195.3,415.69L196.07,416.28L196.84,415.29L197.6,414.17L198.37,413.58L199.14,414.92L199.91,417.3L200.68,419.95L201.44,424.55L202.21,428.5L202.98,433.74L203.75,437.83L204.52,442.14L205.28,447.25L206.05,451.02L206.82,455.4L207.59,458.56L208.36,462.09L209.12,465.43L209.89,467.7L210.66,470.05L211.43,473.05L212.2,475.4L212.96,477.73L213.73,478.48L214.5,479.65L215.27,482.65L216.04,484.68L216.8,486.42L217.57,488.1L218.34,489.55L219.11,492.78L219.88,495.99L220.64,497.91L221.41,498.56L222.18,501.26L222.95,505.05L223.71,506.95L224.48,507.99L225.25,511.39L226.02,513.4L226.79,515.35L227.55,516.1L228.32,517.73L229.09,519.33L229.86,522.01L230.63,523.58L231.39,524.22L232.16,526.52L232.93,527.43L233.7,528.61L234.47,529.31L235.23,531.18L236,532.33L236.77,534.73L237.54,536.9L238.31,537.33L239.07,537.83L239.84,540.27L240.61,541.74L241.38,545.51L242.15,546.42L242.91,546.82L243.68,549.81L244.45,551.28L245.22,554.49L245.99,555.54L246.75,556.44L247.52,558.5L248.29,561.2L249.06,565.29L249.83,569.06L250.59,571.95L251.36,574.06L252.13,577.19L252.9,580.16L253.67,583.53L254.43,586.93L255.2,589.68L255.97,592.33L256.74,595.48L257.51,598.82L258.27,602.27L259.04,604.71L259.81,606.79L260.58,607.62L261.35,610.54L262.11,611.6L262.88,613.24L263.65,614.44L264.42,614.76L265.19,616.55L265.95,617.33L266.72,619.33L267.49,621.42L268.26,623.45L269.02,625.64L269.79,627.33L270.56,628.98L271.33,631.31L272.1,633.56L272.86,636.26L273.63,637.19L274.4,638.98L275.17,641.55L275.94,643.82L276.7,646.23L277.47,648.82L278.24,651.71L279.01,654.28L279.78,656.63L280.54,658.85L281.31,662.59L282.08,664.6L282.85,666.34L283.62,668.53L284.38,671.9L285.15,675.38L285.92,677.7L286.69,679.07L287.46,679.87L288.22,683.05L288.99,685.4L289.76,687.51L290.53,689.25L291.3,691.1L292.06,692.65L292.83,694.41L293.6,695.96L294.37,697.46L295.14,698.8L295.9,701.44" style="fill:none;stroke:#FAA75B;stroke-width:1.875;stroke-dasharray:1.25,1.25" />
<path d="M60.137,47.164L60.905,56.469L61.673,63.554L62.441,72.779L63.209,83.046L63.977,91.442L64.745,100.53L65.513,109.86L66.281,118.18L67.049,125.67L67.817,136.07L68.585,143.93L69.353,150.99L70.121,158.31L70.889,167.03L71.657,174.33L72.425,181.12L73.193,190.91L73.961,201.01L74.729,208.07L75.497,214.76L76.265,222.54L77.033,229.68L77.801,236.58L78.569,242.33L79.337,247.46L80.105,251.95L80.873,258.56L81.641,265.35L82.409,275.99L83.177,281.1L83.945,286.1L84.712,292.46L85.48,298.96L86.248,304.6L87.016,309.22L87.784,318.64L88.552,324.84L89.32,328.61L90.088,333.45L90.856,335.88L91.624,334.87L92.392,335.51L93.16,338.56L93.928,341.52L94.696,343.88L95.464,348.45L96.232,353.42L97,358.21L97.768,362.35L98.536,366.31L99.304,369.63L100.07,374.04L100.84,378.37L101.61,383.13L102.38,387.7L103.14,391.52L103.91,395.53L104.68,399.97L105.45,404.12L106.22,407.14L106.98,409.89L107.75,413.77L108.52,417.57L109.29,418.37L110.06,417.41L110.82,417.86L111.59,421.6L112.36,424.22L113.13,428.61L113.9,431.84L114.66,434.49L115.43,437.3L116.2,438.96L116.97,444.49L117.74,450.29L118.5,452.99L119.27,456.1L120.04,458.66L120.81,460.86L121.57,464.3L122.34,468.37L123.11,471.04L123.88,473.45L124.65,475.83L125.41,478.88L126.18,482.11L126.95,485.32L127.72,487.65L128.49,490.11L129.25,492.49L130.02,494.65L130.79,496.74L131.56,497.33L132.33,497.49L133.09,499.2L133.86,502.89L134.63,506.1L135.4,506.12L136.17,508.02L136.93,510L137.7,513.18L138.47,516.15L139.24,518.93L140.01,519.68L140.77,521.47L141.54,522.54L142.31,525.03L143.08,526.98L143.85,529.28L144.61,530.72L145.38,532.54L146.15,535.83L146.92,538.66L147.69,540.67L148.45,542.83L149.22,545.64L149.99,548.05L150.76,550.43L151.53,552.89L152.29,554.84L153.06,556.71L153.83,558.82L154.6,559.63L155.37,560.72L156.13,562.81L156.9,564.65L157.67,566.58L158.44,567.11L159.21,568.34L159.97,568.56L160.74,569.79L161.51,570.16L162.28,570.27L163.05,571.87" style="fill:none;stroke:#9E67AB;stroke-width:1.875;stroke-dasharray:6.25,2.5,1.25,2.5" />
<path d="M1055,694.3L1080,694.3" style="fill:none;stroke:#9E67AB;stroke-width:1.875;stroke-dasharray:6.25,2.5,1.25,2.5" />
<text x="1035.8" y="-687.85" transform="scale(1, -1)"
	style="font-family:Helvetica;font-weight:normal;font-style:normal;font-size:12pt">zk</text>
<path d="M1055,680L1080,680" style="fill:none;stroke:#F15A60;stroke-width:1.875" />
<text x="1007.5" y="-673.56" transform="scale(1, -1)"
	style="font-family:Helvetica;font-weight:normal;font-style:normal;font-size:12pt">consul</text>
<path d="M1055,665.71L1080,665.71" style="fill:none;stroke:#7AC36A;stroke-width:1.875;stroke-dasharray:7.5,2.5" />
<text x="1014.1" y="-659.26" transform="scale(1, -1)"
	style="font-family:Helvetica;font-weight:normal;font-style:normal;font-size:12pt">etcd3</text>
<path d="M1055,651.41L1080,651.41" style="fill:none;stroke:#5A9BD4;stroke-width:1.875;stroke-dasharray:2.5,2.5" />
<text x="870.77" y="-644.97" transform="scale(1, -1)"
	style="font-family:Helvetica;font-weight:normal;font-style:normal;font-size:12pt">etcd3-100-conns-1k-clients</text>
<path d="M1055,637.12L1080,637.12" style="fill:none;stroke:#FAA75B;stroke-width:1.875;stroke-dasharray:1.25,1.25" />
<text x="1014.1" y="-630.67" transform="scale(1, -1)"
	style="font-family:Helvetica;font-weight:normal;font-style:normal;font-size:12pt">etcd2</text>
</g>
</svg>
