<?xml version="1.0"?>
<!-- Generated by SVGo and Plotinum VG -->
<svg width="12in" height="8in"
	xmlns="http://www.w3.org/2000/svg"
	xmlns:xlink="http://www.w3.org/1999/xlink">
<g transform="scale(1, -1) translate(0, -720)">
<path d="M0,0L1080,0L1080,720L0,720Z" style="fill:#FFFFFF" />
<text x="276.98" y="-706.41" transform="scale(1, -1)"
	style="font-family:Helvetica;font-weight:normal;font-style:normal;font-size:12pt">Write 3M keys, 500 clients, key 64 bytes, value 256 bytes, Latency(millisecond)</text>
<text x="548.11" y="-4.965" transform="scale(1, -1)"
	style="font-family:Helvetica;font-weight:normal;font-style:normal;font-size:12pt">Second</text>
<text x="63.613" y="-19.142" transform="scale(1, -1)"
	style="font-family:Helvetica;font-weight:normal;font-style:normal;font-size:10pt">0</text>
<text x="314.62" y="-19.142" transform="scale(1, -1)"
	style="font-family:Helvetica;font-weight:normal;font-style:normal;font-size:10pt">600</text>
<text x="569.1" y="-19.142" transform="scale(1, -1)"
	style="font-family:Helvetica;font-weight:normal;font-style:normal;font-size:10pt">1200</text>
<text x="827.06" y="-19.142" transform="scale(1, -1)"
	style="font-family:Helvetica;font-weight:normal;font-style:normal;font-size:10pt">1800</text>
<path d="M67.088,30.467L67.088,40.467" style="fill:none;stroke:#000000;stroke-width:0.625" />
<path d="M325.04,30.467L325.04,40.467" style="fill:none;stroke:#000000;stroke-width:0.625" />
<path d="M583,30.467L583,40.467" style="fill:none;stroke:#000000;stroke-width:0.625" />
<path d="M840.96,30.467L840.96,40.467" style="fill:none;stroke:#000000;stroke-width:0.625" />
<path d="M153.07,35.468L153.07,40.467" style="fill:none;stroke:#000000;stroke-width:0.625" />
<path d="M239.06,35.468L239.06,40.467" style="fill:none;stroke:#000000;stroke-width:0.625" />
<path d="M411.03,35.468L411.03,40.467" style="fill:none;stroke:#000000;stroke-width:0.625" />
<path d="M497.02,35.468L497.02,40.467" style="fill:none;stroke:#000000;stroke-width:0.625" />
<path d="M668.99,35.468L668.99,40.467" style="fill:none;stroke:#000000;stroke-width:0.625" />
<path d="M754.97,35.468L754.97,40.467" style="fill:none;stroke:#000000;stroke-width:0.625" />
<path d="M926.95,35.468L926.95,40.467" style="fill:none;stroke:#000000;stroke-width:0.625" />
<path d="M1012.9,35.468L1012.9,40.467" style="fill:none;stroke:#000000;stroke-width:0.625" />
<path d="M67.088,40.467L1080,40.467" style="fill:none;stroke:#000000;stroke-width:0.625" />
<g transform="rotate(90)">
<text x="305.89" y="13.59" transform="scale(1, -1)"
	style="font-family:Helvetica;font-weight:normal;font-style:normal;font-size:12pt">Latency(millisecond)</text>
</g>
<text x="18.555" y="-201.2" transform="scale(1, -1)"
	style="font-family:Helvetica;font-weight:normal;font-style:normal;font-size:10pt">1000</text>
<text x="18.555" y="-364.01" transform="scale(1, -1)"
	style="font-family:Helvetica;font-weight:normal;font-style:normal;font-size:10pt">2000</text>
<text x="18.555" y="-526.81" transform="scale(1, -1)"
	style="font-family:Helvetica;font-weight:normal;font-style:normal;font-size:10pt">3000</text>
<text x="18.555" y="-689.62" transform="scale(1, -1)"
	style="font-family:Helvetica;font-weight:normal;font-style:normal;font-size:10pt">4000</text>
<path d="M49.83,206.57L59.83,206.57" style="fill:none;stroke:#000000;stroke-width:0.625" />
<path d="M49.83,369.37L59.83,369.37" style="fill:none;stroke:#000000;stroke-width:0.625" />
<path d="M49.83,532.18L59.83,532.18" style="fill:none;stroke:#000000;stroke-width:0.625" />
<path d="M49.83,694.99L59.83,694.99" style="fill:none;stroke:#000000;stroke-width:0.625" />
<path d="M54.83,125.17L59.83,125.17" style="fill:none;stroke:#000000;stroke-width:0.625" />
<path d="M54.83,287.97L59.83,287.97" style="fill:none;stroke:#000000;stroke-width:0.625" />
<path d="M54.83,450.78L59.83,450.78" style="fill:none;stroke:#000000;stroke-width:0.625" />
<path d="M54.83,613.58L59.83,613.58" style="fill:none;stroke:#000000;stroke-width:0.625" />
<path d="M59.83,47.03L59.83,701.44" style="fill:none;stroke:#000000;stroke-width:0.625" />
<path d="M67.088,50.622L67.517,50.935L67.947,50.988L68.377,51.151L68.807,51.324L69.237,52.805L69.667,51.188L70.097,51.112L70.527,51.011L70.957,51.796L71.387,51.816L71.817,51.493L72.247,52.853L72.677,51.491L73.107,51.255L73.536,51.702L73.966,51.824L74.396,51.646L74.826,51.244L75.256,52.844L75.686,51.731L76.116,51.733L76.546,51.667L76.976,51.289L77.406,51.637L77.836,51.376L78.266,52.896L78.696,51.581L79.126,51.761L79.555,52.073L79.985,51.663L80.415,51.75L80.845,51.821L81.275,53.608L81.705,51.7L82.135,51.931L82.565,51.946L82.995,51.77L83.425,51.348L83.855,51.932L84.285,53.905L84.715,51.717L85.145,52.184L85.574,52.143L86.004,51.88L86.434,51.628L86.864,52.009L87.294,52.99L87.724,52.272L88.154,51.395L88.584,52.419L89.014,51.95L89.444,51.795L89.874,52.251L90.304,53.497L90.734,51.608L91.164,51.81L91.593,51.953L92.023,51.1L92.453,52.338L92.883,51.865L93.313,53.122L93.743,52.543L94.173,51.806L94.603,51.956L95.033,52.313L95.463,52.209L95.893,53.339L96.323,52.083L96.753,53.655L97.183,52.135L97.612,51.958L98.042,52.203L98.472,52.11L98.902,52.521L99.332,52.738L99.762,53.559L100.19,52.323L100.62,52.087L101.05,52.381L101.48,52.531L101.91,52.483L102.34,52.383L102.77,52.349L103.2,53.104L103.63,51.968L104.06,52.397L104.49,52.772L104.92,52.709L105.35,52.545L105.78,53.179L106.21,51.975L106.64,53.956L107.07,52.186L107.5,52.437L107.93,51.612L108.36,52.654L108.79,52.835L109.22,52.625L109.65,54.617L110.08,52.599L110.51,51.817L110.94,51.969L111.37,51.893L111.8,52.731L112.23,52.27L112.66,52.422L113.09,52.969L113.52,53.28L113.95,53.141L114.38,52.854L114.81,52.022L115.24,52.344L115.67,52.399L116.1,53.635L116.53,52.53L116.96,52.236L117.39,53.21L117.82,52.49L118.25,51.516L118.68,52.465L119.11,52.86L119.54,54.224L119.97,51.665L120.4,52.76L120.83,52.664L121.26,51.402L121.69,52.827L122.12,53.869L122.55,51.651L122.98,55.377L123.41,53.249L123.84,51.579L124.27,53.06L124.7,53.077L125.13,51.849L125.56,53.16L125.99,52.382L126.42,53.406L126.85,52.508L127.28,51.499L127.71,53.071L128.14,53.474L128.57,51.712L129,52.752L129.43,54.564L129.86,51.468L130.29,53.104L130.72,51.564L131.15,52.863L131.58,53.573L132.01,51.501L132.44,53.545L132.87,52.74L133.3,53.398L133.73,51.383L134.16,52.612L134.59,53.374L135.02,52.122L135.45,53.313L135.88,53.234L136.31,52.543L136.74,51.994L137.17,52.699L137.6,53.534L138.03,51.78L138.46,53.156L138.89,51.547L139.32,57.077L139.75,51.491L140.18,53.586L140.61,51.48L141.04,53.526L141.47,51.389L141.9,53.776L142.33,51.709L142.75,55.343L143.18,51.801L143.61,53.369L144.04,51.468L144.47,53.618L144.9,51.907L145.33,53.822L145.76,51.828L146.19,54.316L146.62,51.575L147.05,54.064L147.48,51.439L147.91,54.507L148.34,51.574L148.77,55.108L149.2,53.143L149.63,53.649L150.06,51.515L150.49,54.587L150.92,51.939L151.35,53.335L151.78,52.424L152.21,51.874L152.64,55.166L153.07,51.822L153.5,54.389L153.93,51.761L154.36,54.186L154.79,51.496L155.22,54.431L155.65,51.658L156.08,53.565L156.51,52.677L156.94,51.633L157.37,54.212L157.8,51.481L158.23,53.729L158.66,51.552L159.09,54.89L159.52,52.822L159.95,51.665L160.38,53.662L160.81,51.65L161.24,54.307L161.67,51.716L162.1,53.608L162.53,52.31L162.96,53.364L163.39,55.379L163.82,51.072L164.25,55.634L164.68,51.546L165.11,51.001L165.54,53.905L165.97,52.989L166.4,54.213L166.83,51.597L167.26,52.2L167.69,55.322L168.12,51.972L168.55,55.155L168.98,51.338L169.41,53.097L169.84,54.647L170.27,51.677L170.7,52.757L171.13,52.627L171.56,51.639L171.99,55.478L172.42,50.954L172.85,53.63L173.28,55.56L173.71,51.031L174.14,56.308L174.57,51.899L175,50.889L175.43,55.193L175.86,51.757L176.29,52.669L176.72,55.615L177.15,51.84L177.58,51.095L178.01,54.783L178.44,51.956L178.87,55.563L179.3,51.586L179.73,52.252L180.16,56.863L180.59,51.022L181.02,51.613L181.45,56.672L181.88,51.077L182.31,51.632L182.74,54.97L183.17,52.303L183.6,52.152L184.03,56.504L184.46,51.796L184.89,52.218L185.32,55.311L185.75,52.261L186.18,51.495L186.61,59.023L187.04,52.761L187.47,51.302L187.9,57.299L188.33,52.693L188.76,52.399L189.19,56.153L189.62,51.825L190.05,53.163L190.48,55.765L190.91,51.354L191.34,52.267L191.77,56.478L192.2,52.938L192.63,52.593L193.06,53.085L193.49,57.991L193.92,51.013L194.35,52.41L194.78,59.122L195.21,51.139L195.64,51.003L196.07,59.155L196.5,52.771L196.93,52.422L197.36,53.747L197.79,53.193L198.22,52.681L198.65,51.321L199.08,58.112L199.51,52.09L199.94,51.522L200.37,57.745L200.8,54.077L201.23,52.535L201.66,51.795L202.09,55.649L202.52,52.283L202.95,52.504L203.37,57.48L203.8,51.261L204.23,53.395L204.66,53.166L205.09,56.328L205.52,50.914L205.95,52.298L206.38,59.967L206.81,51.298" style="fill:none;stroke:#F15A60;stroke-width:1.875" />
<path d="M67.088,50.211L67.517,51.307L67.947,47.922L68.377,47.225L68.807,47.168L69.237,47.466L69.667,47.083L70.097,47.32L70.527,47.181L70.957,47.477L71.387,47.19L71.817,49.507L72.247,47.097L72.677,48.824L73.107,47.396L73.536,47.473L73.966,47.345L74.396,47.223L74.826,47.418L75.256,51.187L75.686,47.152L76.116,48.497L76.546,52.403L76.976,47.423L77.406,47.109L77.836,47.253L78.266,47.533L78.696,47.248L79.126,47.294L79.555,47.45L79.985,64.35L80.415,47.362L80.845,47.443L81.275,47.656L81.705,47.314L82.135,47.28L82.565,47.03L82.995,53.254L83.425,47.294L83.855,47.174L84.285,47.659L84.715,48.869L85.145,47.454L85.574,51.533L86.004,47.787L86.434,145.8L86.864,48.715L87.294,49.043L87.724,47.327L88.154,87.879L88.584,47.726L89.014,47.512L89.444,47.145L89.874,47.929L90.304,47.123L90.734,47.095L91.164,47.389L91.593,47.607L92.023,47.399L92.453,47.658L92.883,47.2L93.313,48.046L93.743,47.298L94.173,47.662L94.603,47.398L95.033,47.424L95.463,47.37L95.893,47.71L96.323,47.507L96.753,48.418L97.183,49.982L97.612,51.615L98.042,88.197L98.472,49.573L98.902,49.137L99.332,48.675L99.762,49.479L100.19,47.477L100.62,49.039L101.05,48.101L101.48,48.239L101.91,47.491L102.34,48.024L102.77,48.242L103.2,48.579L103.63,51.515L104.06,86.556L104.49,47.376L104.92,47.997L105.35,47.35L105.78,47.073L106.21,475.57L106.64,51.559L107.07,47.677L107.5,48.526L107.93,48.584L108.36,47.237L108.79,49.574L109.22,47.415L109.65,49.97L110.08,47.743L110.51,52.236L110.94,52.389L111.37,103.74L111.8,103.85L112.23,87.499L112.66,52.409L113.09,48.715L113.52,47.964L113.95,47.955L114.38,48.739L114.81,47.733L115.24,47.973L115.67,47.62L116.1,47.804L116.53,47.729L116.96,47.813L117.39,47.117L117.82,48.518L118.25,68.809L118.68,51.17L119.11,48.732L119.54,47.79L119.97,48.734L120.4,48.309L120.83,70.967L121.26,53.537L121.69,48.393L122.12,48.62L122.55,48.387L122.98,55.508L123.41,92.355L123.84,95.349L124.27,48.849L124.7,48.002L125.13,47.283L125.56,48.2L125.99,47.804L126.42,47.441L126.85,48.478L127.28,47.218L127.71,48.029L128.14,47.36L128.57,50.665L129,48.279L129.43,47.949L129.86,48.387L130.29,47.949L130.72,50.2L131.15,51.712L131.58,67.518L132.01,103.48L132.44,339.87L132.87,56.066L133.3,48.351L133.73,50.368L134.16,52.56L134.59,47.271L135.02,50.49L135.45,47.787L135.88,47.998L136.31,47.553L136.74,48.018L137.17,47.586L137.6,48.654L138.03,47.621L138.46,48.159L138.89,47.324L139.32,47.303L139.75,62.865L140.18,58.064L140.61,47.82L141.04,48.488L141.47,47.615L141.9,50.187L142.33,48.294L142.75,47.93L143.18,52.433L143.61,48.955L144.04,111.9L144.47,101.72L144.9,61.69L145.33,48.746L145.76,47.333" style="fill:none;stroke:#7AC36A;stroke-width:1.875;stroke-dasharray:7.5,2.5" />
<path d="M67.088,63.272L67.517,61.583L67.947,61.329L68.377,61.903L68.807,61.653L69.237,62.508L69.667,61.199L70.097,62.442L70.527,61.458L70.957,62.312L71.387,61.142L71.817,61.426L72.247,61.946L72.677,61.163L73.107,62.372L73.536,61.044L73.966,61.745L74.396,62.268L74.826,66.03L75.256,62.174L75.686,62.089L76.116,61.486L76.546,62.426L76.976,62.097L77.406,62.266L77.836,61.402L78.266,61.438L78.696,62.665L79.126,63.144L79.555,62.529L79.985,62.983L80.415,62.359L80.845,66.706L81.275,61.84L81.705,62.105L82.135,63.125L82.565,62.819L82.995,62.799L83.425,62.422L83.855,61.725L84.285,61.981L84.715,60.989L85.145,63.338L85.574,62.748L86.004,61.517L86.434,64.277L86.864,70.519L87.294,67.913L87.724,63.191L88.154,64.379L88.584,66.016L89.014,64.214L89.444,64.497L89.874,62.788L90.304,63.684L90.734,65.962L91.164,62.688L91.593,63.642L92.023,64.152L92.453,64.389L92.883,64.03L93.313,64.181L93.743,66.65L94.173,65.494L94.603,63.304L95.033,64.228L95.463,63.572L95.893,62.588L96.323,65.302L96.753,62.515L97.183,65.393L97.612,62.607L98.042,63.347L98.472,61.848L98.902,65.469L99.332,61.602L99.762,61.815L100.19,66.724L100.62,64.87L101.05,63.073L101.48,64.637L101.91,65.739L102.34,62.52L102.77,70.295L103.2,74.576L103.63,64.232L104.06,66.519L104.49,72.799L104.92,67.634L105.35,80.497L105.78,83.153L106.21,86.917L106.64,89.901L107.07,95.656L107.5,108.91L107.93,112.51L108.36,118.12L108.79,131.55L109.22,140.66L109.65,145.69L110.08,142.97L110.51,129.35L110.94,140.77L111.37,146.13L111.8,153.53L112.23,161.96L112.66,175.88L113.09,195.16L113.52,207.38L113.95,220.27L114.38,190.14L114.81,186.81L115.24,176.21L115.67,170.62L116.1,152.95L116.53,127.74L116.96,113.76L117.39,107.8L117.82,102.6L118.25,102.16L118.68,91.982L119.11,83.096L119.54,74.285L119.97,61.519L120.4,62.459L120.83,65.901L121.26,66.737L121.69,69.214L122.12,67.812L122.55,77.644L122.98,69.312L123.41,102.16L123.84,122.24L124.27,162.64L124.7,177.03L125.13,204.84L125.56,225.66L125.99,234.69L126.42,257.04L126.85,292.37L127.28,302.37L127.71,317.64L128.14,344.09L128.57,349.92L129,332.57L129.43,333.68L129.86,342.85L130.29,343.82L130.72,342.77L131.15,344.08L131.58,352.65L132.01,356.17L132.44,345.73L132.87,342.19L133.3,346.79L133.73,353.19L134.16,358.01L134.59,353.92L135.02,349.97L135.45,354.48L135.88,358.42L136.31,356.1L136.74,366.61L137.17,369.07L137.6,361.33L138.03,353.86L138.46,357.04L138.89,359.99L139.32,360.7L139.75,361.54L140.18,354.96L140.61,351.04L141.04,364.03L141.47,359.45L141.9,346.68L142.33,359.26L142.75,357.19L143.18,347.29L143.61,353.13L144.04,365.13L144.47,362.32L144.9,362.1L145.33,366.28L145.76,353.17L146.19,350.58L146.62,362.78L147.05,368.91L147.48,356.86L147.91,345.84L148.34,352.01L148.77,351.85L149.2,355.71L149.63,354.67L150.06,360.04L150.49,359.94L150.92,355.26L151.35,350.78L151.78,352.73L152.21,355.93L152.64,353.84L153.07,350.33L153.5,356.3L153.93,356.73L154.36,354.94L154.79,359.55L155.22,361.14L155.65,358.69L156.08,356.49L156.51,359.76L156.94,353.97L157.37,351.39L157.8,359.16L158.23,351.81L158.66,353.6L159.09,356.56L159.52,349.42L159.95,350.57L160.38,354.08L160.81,354.09L161.24,349.6L161.67,357.08L162.1,357L162.53,356.18L162.96,353.86L163.39,361.03L163.82,358.71L164.25,349.22L164.68,359.84L165.11,357.28L165.54,353L165.97,348.07L166.4,363.67L166.83,360.56L167.26,355.85L167.69,356.39L168.12,356.94L168.55,353.38L168.98,358.19L169.41,364.7L169.84,360.37L170.27,363.02L170.7,357.17L171.13,358.02L171.56,351.67L171.99,354.11L172.42,360.35L172.85,349.6L173.28,347.86L173.71,354.99L174.14,358.53L174.57,354.5L175,353.46L175.43,348.91L175.86,347.45L176.29,351.33L176.72,352.12L177.15,363.52L177.58,352.17L178.01,351.06L178.44,353.37L178.87,359.98L179.3,361.89L179.73,356.49L180.16,355.07L180.59,359.28L181.02,356.39L181.45,348.9L181.88,356.21L182.31,357.25L182.74,352.41L183.17,352.38L183.6,348.4L184.03,375.88L184.46,364.73L184.89,315.06L185.32,291.89L185.75,286.53L186.18,261.67L186.61,242L187.04,238.38L187.47,213.05L187.9,208.08L188.33,227.92L188.76,208.69L189.19,214.25L189.62,211.11L190.05,203.94L190.48,254.08L190.91,260.39L191.34,215.54L191.77,212.82L192.2,225.49L192.63,214.55L193.06,210.54L193.49,220.75L193.92,202.21L194.35,193.06L194.78,210.96L195.21,178.86L195.64,186.32L196.07,185.87L196.5,168.25L196.93,176.66L197.36,146.5L197.79,94.836L198.22,94.29L198.65,81.612L199.08,65.228L199.51,70.982L199.94,62.637L200.37,71.681L200.8,63.867L201.23,70.677L201.66,71.957L202.09,69.552L202.52,83.109L202.95,66.045L203.37,79.799L203.8,69.913L204.23,67.776L204.66,77.962L205.09,65.976L205.52,71.712L205.95,75.911L206.38,67.055L206.81,80.322L207.24,90.269L207.67,71.28L208.1,75.747L208.53,75.535L208.96,74.504L209.39,67.919L209.82,66.201L210.25,67.681L210.68,67.384L211.11,66.024L211.54,68.595L211.97,64.058L212.4,64.37L212.83,76.95L213.26,64.26L213.69,63.005L214.12,70.964L214.55,71.113L214.98,62.211L215.41,66.604L215.84,77.717L216.27,68.75L216.7,62.642L217.13,69.852L217.56,88.103L217.99,82.565L218.42,68.939L218.85,84.334L219.28,114.55L219.71,116.9L220.14,118.69L220.57,118.28L221,110.04L221.43,107.94L221.86,117.26L222.29,139.58L222.72,144.43L223.15,146.11L223.58,152.65L224.01,147.86L224.44,153.33L224.87,159.37L225.3,170.22L225.73,186.33L226.16,186.53L226.59,193.85L227.02,203.83L227.45,196.38L227.88,185.43L228.31,183.55L228.74,196.73L229.17,216.75L229.6,229.61L230.03,243.2L230.46,260.23L230.89,282.41L231.32,274.64L231.75,280.25L232.18,296.54L232.61,299.55L233.04,305.19L233.47,324.4L233.9,334.7L234.33,337.78L234.76,351.9L235.19,376.55L235.62,357.8L236.05,328.98L236.48,349.9L236.91,355.43L237.34,363.38L237.77,362.33L238.2,357.06L238.63,353.46L239.06,363.21L239.49,368.13L239.92,359.67L240.35,337.4L240.78,329.11L241.21,349.91L241.64,353.62L242.07,349.51L242.5,352.12L242.93,357.68L243.36,356.24L243.79,348.61L244.22,349.6L244.65,345.33L245.08,350.43L245.51,342.13L245.94,331.68L246.37,349.55L246.8,350L247.23,348.33L247.66,351.91L248.09,358.78L248.52,354.11L248.95,349.64L249.38,335.23L249.81,341.28L250.24,345.24L250.67,347.56L251.1,355.61L251.53,363.5L251.96,345.5L252.39,351.68L252.82,356.69L253.25,359.9L253.68,342.41L254.11,338.48L254.54,354.2L254.97,353.85L255.4,356.09L255.83,323.84L256.26,286.62L256.69,265.18L257.12,262.68L257.55,234.25L257.98,216.12L258.41,203.96L258.84,194.58L259.27,167.75L259.7,171.99L260.13,172.5L260.56,186.6L260.99,138.01L261.42,133.49L261.85,164.02L262.28,166.17L262.71,124.76L263.14,130.18L263.57,157.56L263.99,151.75L264.42,128.7L264.85,132.41L265.28,139.16L265.71,143.69L266.14,123.2L266.57,123.01L267,118.97L267.43,121.43L267.86,130.1L268.29,117.67L268.72,76.792L269.15,63.589L269.58,66.792L270.01,62.819L270.44,80.388L270.87,69.447L271.3,65.117L271.73,64.163L272.16,77.226L272.59,63.602L273.02,63.753L273.45,67.802L273.88,76.214L274.31,76.875L274.74,66.57L275.17,67.721L275.6,65.189L276.03,73.496L276.46,66.389L276.89,68.142L277.32,65.529L277.75,63.527L278.18,72.319L278.61,77.774L279.04,69.991L279.47,64.582L279.9,77.474L280.33,71.767L280.76,71.585L281.19,63.364L281.62,66.034L282.05,64.175L282.48,77.808L282.91,72.578L283.34,63.088L283.77,66.425L284.2,73.061L284.63,99.61L285.06,91.866L285.49,70.557L285.92,76.538L286.35,79.724L286.78,111.24L287.21,114.99L287.64,118.03L288.07,113.54L288.5,86.311L288.93,88.969L289.36,119.6L289.79,122.29L290.22,130.32L290.65,137.02L291.08,146.68L291.51,164.43L291.94,139.23L292.37,154.39L292.8,160.14L293.23,163.55L293.66,166.6L294.09,173.15L294.52,172.48L294.95,183.11L295.38,208.91L295.81,212.64L296.24,212.56L296.67,177.71L297.1,194.92L297.53,216.27L297.96,213.17L298.39,239.88L298.82,241.22L299.25,252.73L299.68,262.43L300.11,264.4L300.54,274.24L300.97,291.32L301.4,271.46L301.83,272.71L302.26,280.49L302.69,289.82L303.12,300.05L303.55,308.69L303.98,316.84L304.41,320.11L304.84,327.8L305.27,351.06L305.7,349.76L306.13,355.93L306.56,334.37L306.99,310.17L307.42,317.08L307.85,319.34L308.28,323.26L308.71,337.83L309.14,340.59L309.57,335.86L310,356.42L310.43,337.06L310.86,329.88L311.29,354.1L311.72,355.99L312.15,346.75L312.58,323.88L313.01,342.13L313.44,343.44L313.87,337.45L314.3,340.74L314.73,361.66L315.16,359.76L315.59,345.37L316.02,347.6L316.45,364.78L316.88,354.71L317.31,352.58L317.74,357.15L318.17,343.98L318.6,340.74L319.03,344.42L319.46,359.51L319.89,377.16L320.32,366.76L320.75,346.36L321.18,297.7L321.61,267.22L322.04,256.36L322.47,254.28L322.9,214.59L323.33,221.61L323.76,209.57L324.18,200.34L324.61,195.59L325.04,167.25L325.47,143.31L325.9,148.31L326.33,147.22L326.76,154.03L327.19,124.73L327.62,114.27L328.05,108.74L328.48,101.46L328.91,85.306L329.34,64.085L329.77,74.612L330.2,77.827L330.63,78.752L331.06,65.547L331.49,63.788L331.92,65.203L332.35,69.683L332.78,63.792L333.21,75.137L333.64,76.499L334.07,64.353L334.5,78.89L334.93,64.34L335.36,76.154L335.79,64.69L336.22,70.567L336.65,75.974L337.08,67.786L337.51,93.657L337.94,90.818L338.37,90.495L338.8,83.96L339.23,79.457L339.66,93.539L340.09,86.356L340.52,75.979L340.95,73.127L341.38,73.216L341.81,76.422L342.24,63.95L342.67,64.147L343.1,64.126L343.53,79.737L343.96,81.493L344.39,67.603L344.82,64.342L345.25,65.068L345.68,72.896L346.11,90.949L346.54,84.039L346.97,63.523L347.4,63.385L347.83,63.59L348.26,99.408L348.69,92.55L349.12,91.648L349.55,72.322L349.98,63.967L350.41,63.835L350.84,91.676L351.27,87.326L351.7,89.946L352.13,97.864L352.56,103.74L352.99,66.559L353.42,63.199L353.85,80.271L354.28,65.577L354.71,69.872L355.14,85.009L355.57,98.539L356,141.39L356.43,90.596L356.86,100.83L357.29,117.18L357.72,145.75L358.15,206.39L358.58,212.53L359.01,231.19L359.44,245.25L359.87,268.34L360.3,294.62L360.73,307.85L361.16,327.97L361.59,351.63L362.02,377.73L362.45,352.77L362.88,337.57L363.31,314.51L363.74,333.89L364.17,351.2L364.6,349.9L365.03,359.51L365.46,374.63L365.89,363.11L366.32,351.9L366.75,355.07L367.18,359.08L367.61,354.3L368.04,352.13L368.47,355L368.9,358.88L369.33,381.01L369.76,383.61L370.19,352.23L370.62,322.48L371.05,321.12L371.48,351.93L371.91,355.36L372.34,353.05L372.77,350.75L373.2,378.99L373.63,373.91L374.06,351.93L374.49,352.5L374.92,362.47L375.35,364.68L375.78,327.08L376.21,344.28L376.64,350.19L377.07,364.07L377.5,327.15L377.93,297.61L378.36,244.97L378.79,242.41L379.22,236.55L379.65,224.69L380.08,218.6L380.51,241.79L380.94,222.14L381.37,185.82L381.8,179.46L382.23,173.17L382.66,162.06L383.09,152.21L383.52,118.07L383.95,88.405L384.38,119.77L384.8,113.6L385.23,106.83L385.66,105.32L386.09,76.623L386.52,63.554L386.95,63.71L387.38,108.75L387.81,74.901L388.24,67.654L388.67,72.109L389.1,63.594L389.53,65.013L389.96,63.547L390.39,73.911L390.82,64.103L391.25,64.802L391.68,65.198L392.11,65.791L392.54,65.075L392.97,81.111L393.4,65.09L393.83,73.874L394.26,84.819L394.69,79.014L395.12,70.004L395.55,77.13L395.98,67.373L396.41,66.275L396.84,64.14L397.27,64.249L397.7,65.872L398.13,86.671L398.56,82.139L398.99,64.866L399.42,65.458L399.85,64.512L400.28,64.132L400.71,64.29L401.14,64.537L401.57,76.299L402,63.222L402.43,77.588L402.86,68.488L403.29,64.591L403.72,64.323L404.15,69.172L404.58,83.99L405.01,64.171L405.44,64.204L405.87,63.418L406.3,63.093L406.73,64.078L407.16,63.268L407.59,68.145L408.02,101.44L408.45,64.645L408.88,64.194L409.31,62.692L409.74,62.076L410.17,63.863L410.6,62.496L411.03,85.487L411.46,101.04L411.89,85.168L412.32,100.15L412.75,87.978L413.18,119.38L413.61,176.78L414.04,223.03L414.47,234.44L414.9,261.01L415.33,301.31L415.76,318.34L416.19,338.56L416.62,340.8L417.05,349.06L417.48,345.56L417.91,339.61L418.34,348.16L418.77,353.77L419.2,347.03L419.63,348.28L420.06,351.92L420.49,353.77L420.92,350.92L421.35,350.37L421.78,358.47L422.21,364.05L422.64,358.93L423.07,377L423.5,369.41L423.93,355.24L424.36,348.76L424.79,351.61L425.22,346.8L425.65,342.86L426.08,347.59L426.51,348.25L426.94,345.03L427.37,344.26L427.8,372.56L428.23,386.02L428.66,366.05L429.09,352.42L429.52,353.62L429.95,350.49L430.38,351.59L430.81,353.38L431.24,352.23L431.67,355.76L432.1,349.35L432.53,352.31L432.96,353.06L433.39,351.47L433.82,389.97L434.25,360.54L434.68,293.8L435.11,323.27L435.54,346.6L435.97,357.7L436.4,377.37L436.83,383.35L437.26,333.81L437.69,350.34L438.12,352.75L438.55,356.31L438.98,391.7L439.41,386.89L439.84,349.75L440.27,348.88L440.7,346.21L441.13,354.93L441.56,382.16L441.99,358.74L442.42,348.24L442.85,350.36L443.28,358.8L443.71,355.28L444.14,353.49L444.57,355.35L445,404.24L445.42,363.48L445.85,315.23L446.28,341.08L446.71,353.1L447.14,358.34L447.57,357.95L448,341.03L448.43,345.2L448.86,357.26L449.29,358.29L449.72,346.86L450.15,348.9L450.58,381.37L451.01,365.91L451.44,332.21L451.87,341L452.3,348.96L452.73,347.77L453.16,387.08L453.59,382.34L454.02,349.97L454.45,346.11L454.88,348.49L455.31,348.02L455.74,390.11L456.17,355.96L456.6,335.16L457.03,340.08L457.46,356.08L457.89,352.37L458.32,350.76L458.75,352.32L459.18,351.46L459.61,352.29L460.04,356.13L460.47,349.34L460.9,347.22L461.33,345.29L461.76,346.52L462.19,361.28L462.62,355.96L463.05,343.15L463.48,347.58L463.91,346.44L464.34,346.61L464.77,386.55L465.2,364.48L465.63,344.9L466.06,344.72L466.49,345.48L466.92,350.11L467.35,387.35L467.78,354.49L468.21,331.13L468.64,343.89L469.07,354.9L469.5,350.32L469.93,352.39L470.36,344.13L470.79,346.07L471.22,342.39L471.65,359.04L472.08,360.61L472.51,343.17L472.94,350.25L473.37,343.8L473.8,362.62L474.23,356.18L474.66,350.12L475.09,346.85L475.52,348.69L475.95,351.67L476.38,378.26L476.81,363.9L477.24,342.63L477.67,345.37L478.1,344.95L478.53,351.35L478.96,365.61L479.39,360.47L479.82,342.91L480.25,356.52L480.68,347.78L481.11,322.26L481.54,340.79L481.97,344.98L482.4,350.1L482.83,347.7L483.26,310.39L483.69,293.79L484.12,288.64L484.55,289.1L484.98,212.22L485.41,200.09L485.84,226.31L486.27,209.24L486.7,200.56L487.13,186.87L487.56,166.08L487.99,193.49L488.42,141.36L488.85,120.87L489.28,108.47L489.71,103.25L490.14,109.28L490.57,166.77L491,158.2L491.43,125.75L491.86,85.739L492.29,89.771L492.72,87.354L493.15,174.69L493.58,83.619L494.01,64.187L494.44,63.969L494.87,75.062L495.3,65.44L495.73,117.74L496.16,102.38L496.59,94.183L497.02,88.73L497.45,86.462L497.88,92.4L498.31,110.1L498.74,96.853L499.17,87.919L499.6,64.48L500.03,63.789L500.46,78.724L500.89,114.69L501.32,88.471L501.75,63.251L502.18,64.64L502.61,63.506L503.04,85.402L503.47,138.49L503.9,135.4L504.33,134.86L504.76,88.046L505.19,65.186L505.61,64.555L506.04,104.62L506.47,117.2L506.9,110.92L507.33,102.86L507.76,95.648L508.19,90.818L508.62,100.02L509.05,72.835L509.48,119.8L509.91,108.05L510.34,101.74L510.77,97.408L511.2,92.311L511.63,85.845L512.06,94.217L512.49,124.99L512.92,107.97L513.35,90.829L513.78,64.155L514.21,64.834L514.64,64.376L515.07,64.531L515.5,119.34L515.93,109.99L516.36,102.47L516.79,93.911L517.22,88.828L517.65,78.096L518.08,64.981L518.51,65.155L518.94,126.25L519.37,115.11L519.8,90.805L520.23,74.542L520.66,67.049L521.09,63.759L521.52,65.792L521.95,96.134L522.38,93.755L522.81,114.54L523.24,110.04L523.67,116.08L524.1,120.63L524.53,90.881L524.96,85.182L525.39,87.883L525.82,96.146L526.25,109.95L526.68,170.27L527.11,170.39L527.54,182.52L527.97,196.23L528.4,213.45L528.83,247.67L529.26,148.32L529.69,150.47L530.12,186.62L530.55,178.88L530.98,200.17L531.41,238.91L531.84,264.75L532.27,276.97L532.7,316.66L533.13,325.73L533.56,322.7L533.99,340.46L534.42,356.16L534.85,361.27L535.28,357.11L535.71,358.29L536.14,350.25L536.57,348.34L537,351.71L537.43,352.43L537.86,354.61L538.29,380.23L538.72,325.18L539.15,285.89L539.58,308.76L540.01,333.92L540.44,352.53L540.87,369.57L541.3,369.83L541.73,352.53L542.16,382.14L542.59,381.09L543.02,326.43L543.45,330.09L543.88,339.42L544.31,351.99L544.74,361.51L545.17,357.87L545.6,357.86L546.03,352.21L546.46,355.38L546.89,363.33L547.32,376.32L547.75,359.51L548.18,330.94L548.61,358.87L549.04,347.03L549.47,302.74L549.9,293.91L550.33,303.21L550.76,313.51L551.19,327.27L551.62,340.36L552.05,352.29L552.48,356.56L552.91,380.98L553.34,354.28L553.77,318.21L554.2,329.56L554.63,350.33L555.06,357.23L555.49,351.65L555.92,346.28L556.35,351.37L556.78,356.58L557.21,352.38L557.64,359.56L558.07,367.08L558.5,372.09L558.93,352.64L559.36,349.87L559.79,372.03L560.22,341.16L560.65,301.89L561.08,330.63L561.51,346.32L561.94,353.79L562.37,344.19L562.8,344.76L563.23,367.01L563.66,360.88L564.09,350.38L564.52,348.69L564.95,346.58L565.38,346.43L565.81,357.06L566.23,375.97L566.66,306.87L567.09,294.99L567.52,321.63L567.95,315.26L568.38,297.26L568.81,330.26L569.24,295.06L569.67,275.86L570.1,264.19L570.53,234.4L570.96,146.53L571.39,192.63L571.82,190.97L572.25,174.88L572.68,166.46L573.11,156.53L573.54,148.03L573.97,166.07L574.4,162.64L574.83,91.561L575.26,86.099L575.69,83.946L576.12,64.93L576.55,104.67L576.98,115.39L577.41,130.69L577.84,122.14L578.27,89.94L578.7,65.924L579.13,64.363L579.56,67.227L579.99,135.89L580.42,119.75L580.85,110.99L581.28,101.77L581.71,95.223L582.14,87.25L582.57,62.382L583,99.061L583.43,113.53L583.86,109.04L584.29,97.199L584.72,89.737L585.15,89.609L585.58,97.934L586.01,114.5L586.44,69.103L586.87,64.353L587.3,64.481L587.73,63.993L588.16,66.517L588.59,87.648L589.02,76.771L589.45,132.91L589.88,91.981L590.31,65.286L590.74,64.088L591.17,64.635L591.6,69.857L592.03,72.959L592.46,76.749L592.89,150.37L593.32,140.94L593.75,139.94L594.18,133.74L594.61,65.233L595.04,65.46L595.47,65.264L595.9,64.502L596.33,103.27L596.76,114.6L597.19,113.09L597.62,102.45L598.05,95.072L598.48,93.688L598.91,101.13L599.34,78.42L599.77,66.169L600.2,64.611L600.63,65.689L601.06,65.363L601.49,64.646L601.92,64.529L602.35,92.95L602.78,74.347L603.21,73.158L603.64,108.5L604.07,63.504L604.5,64.812L604.93,64.411L605.36,64.6L605.79,63.693L606.22,114.59L606.65,101.64L607.08,112.39L607.51,122.37L607.94,135.7L608.37,149.99L608.8,169.1L609.23,226.29L609.66,248.23L610.09,245.53L610.52,272.73L610.95,226.35L611.38,245.44L611.81,233.83L612.24,246.22L612.67,264.89L613.1,277.38L613.53,291.39L613.96,312.96L614.39,326.18L614.82,348.15L615.25,351.54L615.68,350.47L616.11,352.23L616.54,354.41L616.97,355.14L617.4,373L617.83,354.28L618.26,340.52L618.69,342.97L619.12,349.51L619.55,348.05L619.98,349.83L620.41,355.87L620.84,354.84L621.27,359.29L621.7,364.8L622.13,360.4L622.56,331.33L622.99,342.91L623.42,353.22L623.85,342.33L624.28,346.66L624.71,354.4L625.14,357.57L625.57,360.24L626,357.34L626.43,361.85L626.85,360.11L627.28,360.65L627.71,362.64L628.14,359.57L628.57,362.12L629,392.71L629.43,427.27L629.86,377.26L630.29,359.78L630.72,353.12L631.15,349.41L631.58,351.33L632.01,356.73L632.44,364.64L632.87,350.09L633.3,352.68L633.73,365.33L634.16,394.57L634.59,311.58L635.02,292.83L635.45,334.9L635.88,346.66L636.31,386.5L636.74,365.9L637.17,335.14L637.6,346.3L638.03,344.49L638.46,342.14L638.89,371.83L639.32,273.84L639.75,219.57L640.18,207.26L640.61,192.1L641.04,181.3L641.47,171.37L641.9,170.37L642.33,170.52L642.76,181.12L643.19,255.13L643.62,212.74L644.05,138.08L644.48,131.63L644.91,120.66L645.34,119.07L645.77,109.55L646.2,114.65L646.63,117.65L647.06,122.92L647.49,127.36L647.92,83.507L648.35,89.557L648.78,151.38L649.21,152.69L649.64,91.33L650.07,63.836L650.5,63.568L650.93,64.499L651.36,63.942L651.79,74.206L652.22,80.945L652.65,64.384L653.08,68.155L653.51,64.275L653.94,64.646L654.37,67.819L654.8,95.327L655.23,181.83L655.66,151.37L656.09,192.44L656.52,66.787L656.95,64.946L657.38,65.735L657.81,63.921L658.24,65.7L658.67,136.88L659.1,123.1L659.53,113.09L659.96,105.62L660.39,102.9L660.82,149.93L661.25,64.01L661.68,70.808L662.11,151.88L662.54,116.2L662.97,136.71L663.4,122.67L663.83,121.63L664.26,121.58L664.69,118.45L665.12,113.83L665.55,114.19L665.98,142.28L666.41,127.61L666.84,118.2L667.27,91.082L667.7,68.207L668.13,67.98L668.56,64.528L668.99,64.783L669.42,86.026L669.85,89.848L670.28,82.814L670.71,78.462L671.14,113.75L671.57,86.511L672,79.833L672.43,81.474L672.86,64.042L673.29,63.866L673.72,66.627L674.15,64.639L674.58,64.764L675.01,88.987L675.44,81.239L675.87,69.919L676.3,71.236L676.73,72.41L677.16,69.85L677.59,119.03L678.02,75.359L678.45,63.962L678.88,64.295L679.31,63.95L679.74,64.719L680.17,69.684L680.6,85.397L681.03,103.75L681.46,126.49L681.89,196.29L682.32,198.83L682.75,222.11L683.18,248.23L683.61,278.57L684.04,308.27L684.47,327.97L684.9,351.7L685.33,357.59L685.76,356.37L686.19,355.93L686.62,352.33L687.04,312.56L687.47,293.43L687.9,326.55L688.33,358.04L688.76,354.46L689.19,350.28L689.62,346.92L690.05,347.37L690.48,352.76L690.91,354.51L691.34,361.33L691.77,365.71L692.2,362.4L692.63,355.76L693.06,354.05L693.49,358.29L693.92,354.65L694.35,361.51L694.78,359.44L695.21,359.55L695.64,360.15L696.07,355.71L696.5,350.37L696.93,352.55L697.36,353.09L697.79,358.27L698.22,355.55L698.65,357.38L699.08,353.63L699.51,354.99L699.94,352.6L700.37,371.28L700.8,363.29L701.23,282.88L701.66,281.01L702.09,300.2L702.52,335.87L702.95,348.3L703.38,354.59L703.81,354.83L704.24,352.35L704.67,350.44L705.1,353.74L705.53,362.46L705.96,366.68L706.39,359.94L706.82,356.83L707.25,374.96L707.68,414.23L708.11,401.17L708.54,354.27L708.97,349.72L709.4,355.19L709.83,357.05L710.26,355.51L710.69,353.1L711.12,353.89L711.55,354.33L711.98,358.46L712.41,357.98L712.84,358.67L713.27,352.43L713.7,350.22L714.13,359.22L714.56,355.2L714.99,352.49L715.42,347.56L715.85,355.31L716.28,387.52L716.71,298.47L717.14,283.59L717.57,304.23L718,357.96L718.43,367.95L718.86,347L719.29,346.23L719.72,363.84L720.15,364.42L720.58,355.51L721.01,353.65L721.44,365.45L721.87,374.25L722.3,358.22L722.73,368.37L723.16,347.62L723.59,347.9L724.02,350.34L724.45,352.37L724.88,365.39L725.31,379.83L725.74,371.81L726.17,366.74L726.6,362.47L727.03,360.51L727.46,362.3L727.89,362.06L728.32,380.84L728.75,399.59L729.18,349.42L729.61,345.89L730.04,348.79L730.47,349.21L730.9,371.76L731.33,358.85L731.76,355.18L732.19,349.62L732.62,350.57L733.05,350.78L733.48,350.27L733.91,344.15L734.34,344.04L734.77,369.42L735.2,348.03L735.63,309.41L736.06,340.81L736.49,343.65L736.92,425.38L737.35,465.59L737.78,457.81L738.21,368.98L738.64,352.96L739.07,356.43L739.5,362.75L739.93,359.13L740.36,359.57L740.79,353.23L741.22,345.54L741.65,348.22L742.08,349.38L742.51,368.83L742.94,281.38L743.37,265.52L743.8,248.31L744.23,259.14L744.66,288.2L745.09,247.32L745.52,242.98L745.95,233.02L746.38,213.53L746.81,190.02L747.24,206.02L747.66,268.08L748.09,183.83L748.52,91.793L748.95,79.122L749.38,71.085L749.81,68.289L750.24,63.459L750.67,92.081L751.1,166.14L751.53,86.422L751.96,63.801L752.39,65.072L752.82,82.802L753.25,64.564L753.68,65.175L754.11,64.734L754.54,64.809L754.97,154.87L755.4,178.52L755.83,170.76L756.26,162.66L756.69,155.59L757.12,157.72L757.55,145.5L757.98,64.234L758.41,63.602L758.84,64.812L759.27,116.85L759.7,170L760.13,159.73L760.56,153.76L760.99,155.98L761.42,147.73L761.85,145.17L762.28,145.2L762.71,140.82L763.14,150.68L763.57,66.863L764,109.55L764.43,135.37L764.86,124.02L765.29,115.83L765.72,104.17L766.15,93.098L766.58,84.044L767.01,81.088L767.44,131.28L767.87,111.15L768.3,105.78L768.73,121.98L769.16,188.93L769.59,87.675L770.02,63.9L770.45,64.477L770.88,64.656L771.31,69.32L771.74,72.634L772.17,67.736L772.6,64.327L773.03,71.994L773.46,145.27L773.89,126.95L774.32,120.76L774.75,125.57L775.18,84.684L775.61,64.637L776.04,64.979L776.47,64.578L776.9,64.054L777.33,64.764L777.76,63.613L778.19,103.42L778.62,80.848L779.05,72.758L779.48,65.089L779.91,68.253L780.34,143.93L780.77,162.09L781.2,81.175L781.63,64.101L782.06,66.394L782.49,63.289L782.92,62.846L783.35,65.55L783.78,74.873L784.21,82.736L784.64,96.509L785.07,161.11L785.5,207.86L785.93,205.01L786.36,226.61L786.79,252.92L787.22,275.22L787.65,288.35L788.08,308.63L788.51,328.89L788.94,351.14L789.37,351.7L789.8,360.32L790.23,351.46L790.66,358.77L791.09,291.55L791.52,294.57L791.95,321.42L792.38,354.44L792.81,365.39L793.24,353.34L793.67,363.57L794.1,362.04L794.53,365.53L794.96,359.3L795.39,362.66L795.82,363.07L796.25,363.29L796.68,352.59L797.11,345.93L797.54,348.64L797.97,350.67L798.4,355.8L798.83,358.1L799.26,365.51L799.69,387.97L800.12,351.01L800.55,350.35L800.98,349.54L801.41,350.83L801.84,350.16L802.27,359.75L802.7,352.5L803.13,350.29L803.56,352.16L803.99,352.31L804.42,349.49L804.85,349.03L805.28,386.9L805.71,369.51L806.14,247.44L806.57,267.49L807,291.74L807.43,302.76L807.86,332.39L808.28,370.18L808.71,354.02L809.14,354.59L809.57,345.73L810,342.29L810.43,347.3L810.86,346.96L811.29,341.27L811.72,343.61L812.15,347.98L812.58,358.04L813.01,364.2L813.44,351.97L813.87,351.08L814.3,350.35L814.73,346.14L815.16,349.82L815.59,351.11L816.02,352.35L816.45,348.83L816.88,352.09L817.31,349.82L817.74,349.81L818.17,342.91L818.6,342.48L819.03,343.18L819.46,348.86L819.89,349.05L820.32,354.99L820.75,348.96L821.18,367.94L821.61,388.38L822.04,375.21L822.47,281.54L822.9,285.32L823.33,310.63L823.76,348.25L824.19,356.92L824.62,352.64L825.05,353.75L825.48,356.46L825.91,358.58L826.34,354.84L826.77,354.07L827.2,352.48L827.63,383.75L828.06,377.86L828.49,227.94L828.92,179.02L829.35,171.29L829.78,172.6L830.21,185.89L830.64,279.3L831.07,261.08L831.5,245.93L831.93,254.65L832.36,256.69L832.79,251.69L833.22,243.35L833.65,251.37L834.08,169.53L834.51,105.22L834.94,144.44L835.37,230.36L835.8,205.22L836.23,87.443L836.66,64.759L837.09,64.324L837.52,65.522L837.95,65.636L838.38,66.198L838.81,64.373L839.24,130.41L839.67,69.238L840.1,65.658L840.53,153.4L840.96,112.06L841.39,111.72L841.82,113.06L842.25,109.4L842.68,107.58L843.11,107.77L843.54,96.435L843.97,88.586L844.4,105.17L844.83,208.78L845.26,119.73L845.69,63.091L846.12,66.305L846.55,66.717L846.98,64.007L847.41,64.452L847.84,65.269L848.27,64.406L848.7,66.489L849.13,164.39L849.56,124.1L849.99,122.89L850.42,141.41L850.85,81.819L851.28,64.392L851.71,64.014L852.14,63.873L852.57,64.296L853,65.659L853.43,63.622L853.86,68.759L854.29,152.76L854.72,122.75L855.15,117.56L855.58,114.42L856.01,110.84L856.44,106.96L856.87,106.53L857.3,65.864L857.73,64.715L858.16,66.001L858.59,64.817L859.02,64.444L859.45,64.945L859.88,90.18L860.31,72.661L860.74,66.531L861.17,63.63L861.6,64.521L862.03,64.844L862.46,128.28L862.89,123.57L863.32,182.44L863.75,63.376L864.18,63.541L864.61,63.297L865.04,64.094L865.47,66.979L865.9,64.636L866.33,63.063L866.76,63.137L867.19,64.297L867.62,148.75L868.05,131.86L868.47,159.08L868.9,183.31L869.33,210.56L869.76,243.64L870.19,269.12L870.62,290.71L871.05,311.64L871.48,320.13L871.91,337.18L872.34,346.28L872.77,347.86L873.2,353.17L873.63,412.27L874.06,266.46L874.49,215.45L874.92,226.6L875.35,255.53L875.78,326.23L876.21,343.1L876.64,342.04L877.07,353.4L877.5,353.19L877.93,356.89L878.36,352.31L878.79,349.48L879.22,347.44L879.65,343L880.08,342.1L880.51,343.86L880.94,347.16L881.37,349.47L881.8,359.43L882.23,359.79L882.66,360.82L883.09,354.18L883.52,349.51L883.95,343.13L884.38,341.53L884.81,344.67L885.24,348.85L885.67,343.67L886.1,347.24L886.53,348.69L886.96,358.29L887.39,353.18L887.82,349.97L888.25,351.32L888.68,358.58L889.11,360.11L889.54,358.73L889.97,350.24L890.4,346.15L890.83,346.78L891.26,348.19L891.69,349.27L892.12,374.4L892.55,472.72L892.98,483.37L893.41,371.11L893.84,276.15L894.27,305.41L894.7,340.28L895.13,359.32L895.56,352.71L895.99,352.16L896.42,349.67L896.85,354.83L897.28,349.37L897.71,349.44L898.14,354.67L898.57,350.78L899,352.42L899.43,352.79L899.86,464.62L900.29,366.94L900.72,235.98L901.15,280.23L901.58,309.47L902.01,345.51L902.44,350.34L902.87,351.32L903.3,364.62L903.73,468.76L904.16,395.84L904.59,272.01L905.02,298.6L905.45,271.93L905.88,222.04L906.31,258.77L906.74,288.3L907.17,316.21L907.6,352.98L908.03,429.02L908.46,441.18L908.89,348.86L909.32,324.91L909.75,319.23L910.18,306.49L910.61,296.11L911.04,286.15L911.47,281.92L911.9,350.76L912.33,219.19L912.76,156.48L913.19,217.69L913.62,183.84L914.05,168.52L914.48,129.61L914.91,64.087L915.34,64.562L915.77,67.409L916.2,65.113L916.63,63.308L917.06,64.778L917.49,73.116L917.92,219.26L918.35,93.645L918.78,65.66L919.21,64.916L919.64,64.282L920.07,64.123L920.5,64.867L920.93,72.55L921.36,79.103L921.79,81.35L922.22,104.91L922.65,220.61L923.08,188.97L923.51,180.18L923.94,186.47L924.37,63.855L924.8,63.816L925.23,63.928L925.66,67.017L926.09,64.927L926.52,63.741L926.95,63.686L927.38,99.105L927.81,123.8L928.24,105.82L928.67,100.9L929.09,95.212L929.52,95.059L929.95,117.2L930.38,86.274L930.81,63.261L931.24,65.043L931.67,65.023L932.1,64.15L932.53,64.603L932.96,92.136L933.39,109.1L933.82,97.176L934.25,84.103L934.68,74.893L935.11,71.14L935.54,68.428L935.97,140.41L936.4,130.94L936.83,134.77L937.26,169.27L937.69,82.02L938.12,64.405L938.55,64.363L938.98,63.522L939.41,70.019L939.84,63.919L940.27,63.986L940.7,64.631L941.13,66.17L941.56,123.64L941.99,101.18L942.42,106.82L942.85,110.33L943.28,118.3L943.71,126.98L944.14,137.64L944.57,145.59L945,163.33L945.43,173.08L945.86,183.99L946.29,240.49L946.72,187.05L947.15,216.39L947.58,226.85L948.01,236.57L948.44,252.74L948.87,263.1L949.3,280.58L949.73,301.63L950.16,311.27L950.59,324.51L951.02,337.16L951.45,366.16L951.88,384.82L952.31,502.57L952.74,469.12L953.17,309.59L953.6,327.23L954.03,338.24L954.46,345.26L954.89,350.38L955.32,350.26L955.75,357.77L956.18,357.7L956.61,350.57L957.04,344.37L957.47,387.01L957.9,342.24L958.33,287.88L958.76,303.34L959.19,440.68L959.62,599.31L960.05,701.44L960.48,450.89L960.91,300.38L961.34,322.94L961.77,335.18L962.2,357.46L962.63,362.13L963.06,364.68L963.49,361.4L963.92,357.21L964.35,354.39L964.78,395.81L965.21,249.46L965.64,221.51L966.07,225.59L966.5,236.34L966.93,252.11L967.36,240.74L967.79,238.43L968.22,256.75L968.65,339.5L969.08,359.13L969.51,302.26L969.94,323.28L970.37,345.27L970.8,345.82L971.23,343.21L971.66,335.34L972.09,346.22L972.52,342.33L972.95,341.37L973.38,348.29L973.81,350.42L974.24,351.79L974.67,349.26L975.1,351.12L975.53,344.35L975.96,339.49L976.39,348.25L976.82,348.13L977.25,340.8L977.68,340.87L978.11,348.6L978.54,348.22L978.97,346.68L979.4,363.67L979.83,388.44L980.26,269.09L980.69,212.46L981.12,241.87L981.55,259.45L981.98,281.52L982.41,296.44L982.84,327.62L983.27,343.92L983.7,348.09L984.13,350.83L984.56,355.54L984.99,346.44L985.42,362.42L985.85,322.07L986.28,302.16L986.71,282.54L987.14,204.86L987.57,81.579L988,70.04L988.43,64.46L988.86,66.06L989.29,79.957L989.71,92.185L990.14,93.759L990.57,172.05L991,153.09L991.43,159.16L991.86,174.61L992.29,193.54L992.72,199.71L993.15,87.319L993.58,63.978L994.01,118.63L994.44,65.617L994.87,65.901L995.3,64.272L995.73,70.643L996.16,184.03L996.59,160.65L997.02,161.73L997.45,160.8L997.88,164.52L998.31,165.17L998.74,164.73L999.17,164.62L999.6,166.2L1000,166.88L1000.5,162.95L1000.9,251.11L1001.3,69.929L1001.8,114.31L1002.2,149.15L1002.6,146.07L1003,147.62L1003.5,149.16L1003.9,148.98L1004.3,147.64L1004.8,149.27L1005.2,150.99L1005.6,153.99L1006.1,152.56L1006.5,152.01L1006.9,169.01L1007.3,155.13L1007.8,154.95L1008.2,241.33L1008.6,278.22L1009.1,297.64L1009.5,91.232L1009.9,79.472L1010.4,75.579L1010.8,71.669L1011.2,65.699L1011.6,65.464L1012.1,65.691L1012.5,64.796L1012.9,65.047L1013.4,167.87L1013.8,140.07L1014.2,142.3L1014.7,139.74L1015.1,130.88L1015.5,120.15L1015.9,115.69L1016.4,195.01L1016.8,64.327L1017.2,65.9L1017.7,65.487L1018.1,160.24L1018.5,196.84L1019,175.44L1019.4,157.29L1019.8,154.52L1020.2,153.27L1020.7,145.57L1021.1,136.26L1021.5,133.21L1022,125.61L1022.4,112.32L1022.8,103.9L1023.2,106.05L1023.7,110.3L1024.1,114.69L1024.5,191.58L1025,204.43L1025.4,143.46L1025.8,185.1L1026.3,90.669L1026.7,64.841L1027.1,64.357L1027.5,63.87L1028,64.6L1028.4,64.62L1028.8,65.1L1029.3,64.128L1029.7,64.977L1030.1,68.825L1030.6,146.99L1031,120.89L1031.4,129.63L1031.8,131.87L1032.3,137.38L1032.7,143.9L1033.1,156.53L1033.6,167L1034,175.11L1034.4,187.17L1034.9,204.69L1035.3,252.77L1035.7,99.216L1036.1,64L1036.6,63.709L1037,63.841L1037.4,69.871L1037.9,161.39L1038.3,172.08L1038.7,191.28L1039.2,202.89L1039.6,221.36L1040,242.79L1040.4,249.64L1040.9,262.15L1041.3,282L1041.7,330.13L1042.2,344.32L1042.6,342.64L1043,349.34L1043.5,352.87L1043.9,350.93L1044.3,346.43L1044.7,350.73L1045.2,359.96L1045.6,355.89L1046,343.51L1046.5,341.39L1046.9,358.82L1047.3,353.95L1047.8,352.25L1048.2,348.91L1048.6,351.43L1049,359.32L1049.5,367.03L1049.9,365.84L1050.3,359.91L1050.8,382.47L1051.2,354.81L1051.6,243.64L1052.1,256.06L1052.5,282.82L1052.9,309.08L1053.3,329.95L1053.8,352L1054.2,365.22L1054.6,364.39L1055.1,355.97L1055.5,345.71L1055.9,354.11L1056.4,363.96L1056.8,363.6L1057.2,357.98L1057.6,359.77L1058.1,359.71L1058.5,358.73L1058.9,351.32L1059.4,350.47L1059.8,355.87L1060.2,413.96L1060.7,291.38L1061.1,208.74L1061.5,223.23L1061.9,231.64L1062.4,163.61L1062.8,152.72L1063.2,127.59L1063.7,112.78L1064.1,211.41L1064.5,182.61L1065,95.176L1065.4,66.159L1065.8,64.175L1066.2,65.599L1066.7,64.779L1067.1,65.261L1067.5,167.46L1068,84.33L1068.4,66.368L1068.8,65.108L1069.3,64.601L1069.7,64.64L1070.1,63.84L1070.5,63.75L1071,156.22L1071.4,195.51L1071.8,180.14L1072.3,177.9L1072.7,169.15L1073.1,155.31L1073.6,141.1L1074,131.97L1074.4,145.36L1074.8,107.81L1075.3,63.472L1075.7,64.071L1076.1,64.755L1076.6,66.135L1077,64.718L1077.4,64.187L1077.9,65.05L1078.3,65.089L1078.7,73.429L1079.1,65.948L1079.6,67.532L1080,64.288" style="fill:none;stroke:#5A9BD4;stroke-width:1.875;stroke-dasharray:2.5,2.5" />
<path d="M1055,694.3L1080,694.3" style="fill:none;stroke:#F15A60;stroke-width:1.875" />
<text x="1002.5" y="-687.85" transform="scale(1, -1)"
	style="font-family:Helvetica;font-weight:normal;font-style:normal;font-size:12pt">etcd v3</text>
<path d="M1055,680L1080,680" style="fill:none;stroke:#7AC36A;stroke-width:1.875;stroke-dasharray:7.5,2.5" />
<text x="941.6" y="-673.56" transform="scale(1, -1)"
	style="font-family:Helvetica;font-weight:normal;font-style:normal;font-size:12pt">Zookeeper 3.4.8</text>
<path d="M1055,665.71L1080,665.71" style="fill:none;stroke:#5A9BD4;stroke-width:1.875;stroke-dasharray:2.5,2.5" />
<text x="966.62" y="-659.26" transform="scale(1, -1)"
	style="font-family:Helvetica;font-weight:normal;font-style:normal;font-size:12pt">Consul 0.6.4</text>
</g>
</svg>
