<?xml version="1.0"?>
<!-- Generated by SVGo and Plotinum VG -->
<svg width="12in" height="8in"
	xmlns="http://www.w3.org/2000/svg"
	xmlns:xlink="http://www.w3.org/1999/xlink">
<g transform="scale(1, -1) translate(0, -720)">
<path d="M0,0L1080,0L1080,720L0,720Z" style="fill:#FFFFFF" />
<text x="281.99" y="-706.41" transform="scale(1, -1)"
	style="font-family:Helvetica;font-weight:normal;font-style:normal;font-size:12pt">Read single key 1M times, 100 clients, key 64 bytes, value 1 kb, Memory(MB)</text>
<text x="544.64" y="-4.965" transform="scale(1, -1)"
	style="font-family:Helvetica;font-weight:normal;font-style:normal;font-size:12pt">Second</text>
<text x="56.662" y="-19.142" transform="scale(1, -1)"
	style="font-family:Helvetica;font-weight:normal;font-style:normal;font-size:10pt">0</text>
<text x="356.62" y="-19.142" transform="scale(1, -1)"
	style="font-family:Helvetica;font-weight:normal;font-style:normal;font-size:10pt">5</text>
<text x="653.11" y="-19.142" transform="scale(1, -1)"
	style="font-family:Helvetica;font-weight:normal;font-style:normal;font-size:10pt">10</text>
<text x="953.07" y="-19.142" transform="scale(1, -1)"
	style="font-family:Helvetica;font-weight:normal;font-style:normal;font-size:10pt">15</text>
<path d="M60.137,30.467L60.137,40.467" style="fill:none;stroke:#000000;stroke-width:0.625" />
<path d="M360.1,30.467L360.1,40.467" style="fill:none;stroke:#000000;stroke-width:0.625" />
<path d="M660.06,30.467L660.06,40.467" style="fill:none;stroke:#000000;stroke-width:0.625" />
<path d="M960.02,30.467L960.02,40.467" style="fill:none;stroke:#000000;stroke-width:0.625" />
<path d="M120.13,35.468L120.13,40.467" style="fill:none;stroke:#000000;stroke-width:0.625" />
<path d="M180.12,35.468L180.12,40.467" style="fill:none;stroke:#000000;stroke-width:0.625" />
<path d="M240.11,35.468L240.11,40.467" style="fill:none;stroke:#000000;stroke-width:0.625" />
<path d="M300.11,35.468L300.11,40.467" style="fill:none;stroke:#000000;stroke-width:0.625" />
<path d="M420.09,35.468L420.09,40.467" style="fill:none;stroke:#000000;stroke-width:0.625" />
<path d="M480.08,35.468L480.08,40.467" style="fill:none;stroke:#000000;stroke-width:0.625" />
<path d="M540.07,35.468L540.07,40.467" style="fill:none;stroke:#000000;stroke-width:0.625" />
<path d="M600.06,35.468L600.06,40.467" style="fill:none;stroke:#000000;stroke-width:0.625" />
<path d="M720.05,35.468L720.05,40.467" style="fill:none;stroke:#000000;stroke-width:0.625" />
<path d="M780.04,35.468L780.04,40.467" style="fill:none;stroke:#000000;stroke-width:0.625" />
<path d="M840.03,35.468L840.03,40.467" style="fill:none;stroke:#000000;stroke-width:0.625" />
<path d="M900.02,35.468L900.02,40.467" style="fill:none;stroke:#000000;stroke-width:0.625" />
<path d="M1020,35.468L1020,40.467" style="fill:none;stroke:#000000;stroke-width:0.625" />
<path d="M1080,35.468L1080,40.467" style="fill:none;stroke:#000000;stroke-width:0.625" />
<path d="M60.137,40.467L1080,40.467" style="fill:none;stroke:#000000;stroke-width:0.625" />
<g transform="rotate(90)">
<text x="330.91" y="13.59" transform="scale(1, -1)"
	style="font-family:Helvetica;font-weight:normal;font-style:normal;font-size:12pt">Memory(MB)</text>
</g>
<text x="25.505" y="-196.99" transform="scale(1, -1)"
	style="font-family:Helvetica;font-weight:normal;font-style:normal;font-size:10pt">80</text>
<text x="18.555" y="-391" transform="scale(1, -1)"
	style="font-family:Helvetica;font-weight:normal;font-style:normal;font-size:10pt">160</text>
<text x="18.555" y="-585.01" transform="scale(1, -1)"
	style="font-family:Helvetica;font-weight:normal;font-style:normal;font-size:10pt">240</text>
<path d="M42.88,202.36L52.88,202.36" style="fill:none;stroke:#000000;stroke-width:0.625" />
<path d="M42.88,396.37L52.88,396.37" style="fill:none;stroke:#000000;stroke-width:0.625" />
<path d="M42.88,590.38L52.88,590.38" style="fill:none;stroke:#000000;stroke-width:0.625" />
<path d="M47.88,105.35L52.88,105.35" style="fill:none;stroke:#000000;stroke-width:0.625" />
<path d="M47.88,299.36L52.88,299.36" style="fill:none;stroke:#000000;stroke-width:0.625" />
<path d="M47.88,493.37L52.88,493.37" style="fill:none;stroke:#000000;stroke-width:0.625" />
<path d="M47.88,687.38L52.88,687.38" style="fill:none;stroke:#000000;stroke-width:0.625" />
<path d="M52.88,47.03L52.88,701.44" style="fill:none;stroke:#000000;stroke-width:0.625" />
<path d="M60.137,229.2L120.13,230.47L180.12,240.34L240.11,240.34L300.11,244.92L360.1,244.92L420.09,244.92L480.08,244.92L540.07,245.14L600.06,245.33L660.06,245.33L720.05,245.52L780.04,254.21L840.03,254.21L900.02,262.96L960.02,262.96L1020,263.18L1080,263.18" style="fill:none;stroke:#F15A60;stroke-width:1.875" />
<path d="M60.137,198.77L120.13,363.02L180.12,376.67L240.11,438.66L300.11,579.03L360.1,701.44L420.09,698.9L480.08,686.29" style="fill:none;stroke:#7AC36A;stroke-width:1.875;stroke-dasharray:7.5,2.5" />
<path d="M60.137,47.03L120.13,51.638L180.12,51.856L240.11,52.559L300.11,52.947L360.1,53.166L420.09,53.166L480.08,53.166L540.07,53.166L600.06,53.723L660.06,53.723L720.05,53.723L780.04,53.723L840.03,53.723L900.02,54.912L960.02,54.912L1020,55.275" style="fill:none;stroke:#5A9BD4;stroke-width:1.875;stroke-dasharray:2.5,2.5" />
<path d="M1055,694.3L1080,694.3" style="fill:none;stroke:#5A9BD4;stroke-width:1.875;stroke-dasharray:2.5,2.5" />
<text x="966.62" y="-687.85" transform="scale(1, -1)"
	style="font-family:Helvetica;font-weight:normal;font-style:normal;font-size:12pt">Consul 0.6.4</text>
<path d="M1055,680L1080,680" style="fill:none;stroke:#F15A60;stroke-width:1.875" />
<text x="1002.5" y="-673.56" transform="scale(1, -1)"
	style="font-family:Helvetica;font-weight:normal;font-style:normal;font-size:12pt">etcd v3</text>
<path d="M1055,665.71L1080,665.71" style="fill:none;stroke:#7AC36A;stroke-width:1.875;stroke-dasharray:7.5,2.5" />
<text x="941.6" y="-659.26" transform="scale(1, -1)"
	style="font-family:Helvetica;font-weight:normal;font-style:normal;font-size:12pt">Zookeeper 3.4.8</text>
</g>
</svg>
