<?xml version="1.0"?>
<!-- Generated by SVGo and Plotinum VG -->
<svg width="12in" height="8in"
	xmlns="http://www.w3.org/2000/svg"
	xmlns:xlink="http://www.w3.org/1999/xlink">
<g transform="scale(1, -1) translate(0, -720)">
<path d="M0,0L1080,0L1080,720L0,720Z" style="fill:#FFFFFF" />
<text x="310.31" y="-706.41" transform="scale(1, -1)"
	style="font-family:Helvetica;font-weight:normal;font-style:normal;font-size:12pt">Write 3M keys, 1K clients, key 64 bytes, value 256 bytes, Throughput</text>
<text x="551.76" y="-4.965" transform="scale(1, -1)"
	style="font-family:Helvetica;font-weight:normal;font-style:normal;font-size:12pt">Second</text>
<text x="70.912" y="-19.142" transform="scale(1, -1)"
	style="font-family:Helvetica;font-weight:normal;font-style:normal;font-size:10pt">0</text>
<text x="365.72" y="-19.142" transform="scale(1, -1)"
	style="font-family:Helvetica;font-weight:normal;font-style:normal;font-size:10pt">400</text>
<text x="667.48" y="-19.142" transform="scale(1, -1)"
	style="font-family:Helvetica;font-weight:normal;font-style:normal;font-size:10pt">800</text>
<text x="965.77" y="-19.142" transform="scale(1, -1)"
	style="font-family:Helvetica;font-weight:normal;font-style:normal;font-size:10pt">1200</text>
<path d="M74.388,30.467L74.388,40.467" style="fill:none;stroke:#000000;stroke-width:0.625" />
<path d="M376.15,30.467L376.15,40.467" style="fill:none;stroke:#000000;stroke-width:0.625" />
<path d="M677.91,30.467L677.91,40.467" style="fill:none;stroke:#000000;stroke-width:0.625" />
<path d="M979.67,30.467L979.67,40.467" style="fill:none;stroke:#000000;stroke-width:0.625" />
<path d="M225.27,35.468L225.27,40.467" style="fill:none;stroke:#000000;stroke-width:0.625" />
<path d="M527.03,35.468L527.03,40.467" style="fill:none;stroke:#000000;stroke-width:0.625" />
<path d="M828.79,35.468L828.79,40.467" style="fill:none;stroke:#000000;stroke-width:0.625" />
<path d="M74.388,40.467L1080,40.467" style="fill:none;stroke:#000000;stroke-width:0.625" />
<g transform="rotate(90)">
<text x="335.88" y="13.59" transform="scale(1, -1)"
	style="font-family:Helvetica;font-weight:normal;font-style:normal;font-size:12pt">Throughput</text>
</g>
<text x="18.555" y="-230.04" transform="scale(1, -1)"
	style="font-family:Helvetica;font-weight:normal;font-style:normal;font-size:10pt">1e+04</text>
<text x="18.555" y="-419.61" transform="scale(1, -1)"
	style="font-family:Helvetica;font-weight:normal;font-style:normal;font-size:10pt">2e+04</text>
<text x="18.555" y="-609.18" transform="scale(1, -1)"
	style="font-family:Helvetica;font-weight:normal;font-style:normal;font-size:10pt">3e+04</text>
<path d="M57.13,235.41L67.13,235.41" style="fill:none;stroke:#000000;stroke-width:0.625" />
<path d="M57.13,424.98L67.13,424.98" style="fill:none;stroke:#000000;stroke-width:0.625" />
<path d="M57.13,614.55L67.13,614.55" style="fill:none;stroke:#000000;stroke-width:0.625" />
<path d="M62.13,140.62L67.13,140.62" style="fill:none;stroke:#000000;stroke-width:0.625" />
<path d="M62.13,330.19L67.13,330.19" style="fill:none;stroke:#000000;stroke-width:0.625" />
<path d="M62.13,519.76L67.13,519.76" style="fill:none;stroke:#000000;stroke-width:0.625" />
<path d="M67.13,47.03L67.13,701.44" style="fill:none;stroke:#000000;stroke-width:0.625" />
<path d="M74.388,125.17L75.142,393.64L75.896,382.44L76.651,284.05L77.405,360.35L78.159,343.01L78.914,356.2L79.668,339.67L80.423,292.47L81.177,329.39L81.931,333.26L82.686,334.3L83.44,322.87L84.195,333.03L84.949,279.01L85.703,325.11L86.458,327.97L87.212,332.28L87.967,328.14L88.721,282.67L89.475,312.49L90.23,312.03L90.984,323.67L91.739,305.96L92.493,315.12L93.247,291.97L94.002,312.37L94.756,309.98L95.511,303.92L96.265,324.28L97.019,315.39L97.774,236.71L98.528,303.67L99.283,307.29L100.04,328.09L100.79,314.34L101.55,323.69L102.3,248.13L103.05,320.83L103.81,313.32L104.56,317.94L105.32,317.26L106.07,307.92L106.83,279.33L107.58,309.68L108.34,292.67L109.09,325.02L109.84,290.97L110.6,312.9L111.35,284.73L112.11,299.27L112.86,317.02L113.62,302.95L114.37,302.95L115.12,301.96L115.88,295.69L116.63,280.81L117.39,310L118.14,328.14L118.9,296.9L119.65,300.6L120.41,262.7L121.16,293.3L121.91,297.43L122.67,306.67L123.42,316.41L124.18,288.28L124.93,264.49L125.69,282.63L126.44,312.18L127.2,303.12L127.95,310.89L128.7,312.11L129.46,269.45L130.21,311.03L130.97,296.83L131.72,295.92L132.48,284.5L133.23,300.71L133.98,274.31L134.74,287.5L135.49,336.24L136.25,286.12L137,321.28L137.76,313L138.51,270.38L139.27,305.26L140.02,269.64L140.77,287.77L141.53,319.63L142.28,269.81L143.04,242.76L143.79,327.06L144.55,306.51L145.3,282.53L146.06,299.65L146.81,257.28L147.56,290.29L148.32,335.71L149.07,272.11L149.83,279.61L150.58,317.17L151.34,262.12L152.09,321.98L152.84,258.14L153.6,255.65L154.35,299.39L155.11,323.9L155.86,262.78L156.62,299.54L157.37,291.25L158.13,308.94L158.88,236.16L159.63,299.73L160.39,307.44L161.14,246.55L161.9,247.65L162.65,294.67L163.41,306.04L164.16,254.69L164.92,289.47L165.67,304.37L166.42,240.94L167.18,319.29L167.93,232.94L168.69,309.68L169.44,328.6L170.2,231.33L170.95,337.75L171.7,204.49L172.46,298.44L173.21,289.24L173.97,293.11L174.72,300.58L175.48,230.4L176.23,286.32L176.99,241.21L177.74,291.22L178.49,281.6L179.25,290.21L180,289.38L180.76,294.44L181.51,207.99L182.27,329.15L183.02,187.84L183.78,361.92L184.53,219.92L185.28,371.33L186.04,197.66L186.79,315.86L187.55,186.99L188.3,347.01L189.06,217.83L189.81,304.94L190.56,260.83L191.32,274.76L192.07,280.47L192.83,249.85L193.58,312.58L194.34,225.23L195.09,345.19L195.85,194.42L196.6,315.2L197.35,227.39L198.11,297.19L198.86,253.41L199.62,310.42L200.37,265.81L201.13,343.8L201.88,207.71L202.64,287.1L203.39,276.3L204.14,270.17L204.9,300.98L205.65,251.22L206.41,322.8L207.16,238.44L207.92,284.05L208.67,243.5L209.42,266.89L210.18,263.1L210.93,301.07L211.69,217.11L212.44,307.33L213.2,261.13L213.95,242.84L214.71,316.14L215.46,191.05L216.21,361.36L216.97,199.86L217.72,317.34L218.48,260.71L219.23,310.4L219.99,310.82L220.74,240.2L221.5,362.06L222.25,213.62L223,297.91L223.76,236.3L224.51,276.66L225.27,304.79L226.02,297.13L226.78,233.49L227.53,222.15L228.28,320.86L229.04,255.84L229.79,300.07L230.55,265.93L231.3,215.69L232.06,310.1L232.81,257.11L233.57,264.94L234.32,351.76L235.07,164.81L235.83,370.8L236.58,229.93L237.34,268.77L238.09,361.03L238.85,191.67L239.6,337.62L240.36,245.87L241.11,257.13L241.86,311.33L242.62,229.36L243.37,266.34L244.13,350.7L244.88,229.3L245.64,271.8L246.39,252.14L247.14,285.95L247.9,283.58L248.65,204.18L249.41,351.54L250.16,284.14L250.92,201.89" style="fill:none;stroke:#F15A60;stroke-width:1.875" />
<path d="M74.388,186.48L75.142,258.99L75.896,412.09L76.651,639.08L77.405,652.67L78.159,675.66L78.914,604.18L79.668,632.76L80.423,639.21L81.177,670.3L81.931,290.91L82.686,509.39L83.44,701.44L84.195,610.11L84.949,658.37L85.703,455.67L86.458,299.31L87.212,236.39L87.967,605.58L88.721,656.38L89.475,597.01L90.23,660.35L90.984,626.81L91.739,670L92.493,367.88L93.247,303.03L94.002,557.07L94.756,649.94L95.511,462.78L96.265,244.49L97.019,628.25L97.774,539.17L98.528,654.34L99.283,612.01L100.04,657.75L100.79,530.72L101.55,107.86L102.3,330.7L103.05,534.24L103.81,85.342L104.56,113.44L105.32,541.92L106.07,616.31L106.83,434.38L107.58,462.7L108.34,581.41L109.09,660.55L109.84,592.39L110.6,563.44L111.35,588.56L112.11,577.54L112.86,549.45L113.62,621.2L114.37,583.99L115.12,672.33L115.88,596.1L116.63,571.38L117.39,590.93L118.14,548.04L118.9,455.14L119.65,454.04L120.41,341.75L121.16,100.15L121.91,102.88L122.67,310.13L123.42,433.7L124.18,525.85L124.93,575.59L125.69,514.64L126.44,242.93L127.2,113.17L127.95,491.02L128.7,404.43L129.46,527.02L130.21,424.6L130.97,487.69L131.72,503.53L132.48,560.84L133.23,497.98L133.98,589.39L134.74,372.54L135.49,466.57L136.25,579.04L137,474.32L137.76,471.8L138.51,526.62L139.27,505.83L140.02,388.43L140.77,68.641L141.53,405.37L142.28,290.32L143.04,180.92L143.79,88.83L144.55,550.55L145.3,446.44L146.06,528.22L146.81,573.88L147.56,480.29L148.32,295.71L149.07,448.63L149.83,486.93L150.58,484.12L151.34,561.47L152.09,445.92L152.84,497.7L153.6,228.71L154.35,457.24L155.11,342.15L155.86,497.11L156.62,536.12L157.37,532.8L158.13,493.11L158.88,429.2L159.63,561.64L160.39,516.16L161.14,484.25L161.9,479.44L162.65,304.18L163.41,204.9L164.16,411.95L164.92,217.09L165.67,489.94L166.42,324.86L167.18,253.41L167.93,568.67L168.69,542.34L169.44,493.03L170.2,534.59L170.95,529.24L171.7,514.49L172.46,586.19L173.21,495.53L173.97,601.26L174.72,178.08L175.48,200.92L176.23,48.357" style="fill:none;stroke:#7AC36A;stroke-width:1.875;stroke-dasharray:7.5,2.5" />
<path d="M74.388,80.11L75.142,137.34L75.896,128.62L76.651,136.01L77.405,129.55L78.159,127.12L78.914,139.26L79.668,133.19L80.423,125.91L81.177,132.96L81.931,134.63L82.686,130.74L83.44,125.02L84.195,136.17L84.949,132.32L85.703,123.82L86.458,129.19L87.212,134.4L87.967,129.64L88.721,137.95L89.475,128.7L90.23,132.83L90.984,129.53L91.739,135.62L92.493,129.55L93.247,135.62L94.002,130.76L94.756,132.73L95.511,131.22L96.265,127.12L97.019,130.76L97.774,127.12L98.528,133.19L99.283,130.55L100.04,135.33L100.79,127.62L101.55,124.7L102.3,134.38L103.05,130.76L103.81,130.74L104.56,130.76L105.32,135.1L106.07,139.77L106.83,114.88L107.58,138.78L108.34,135.62L109.09,132.49L109.84,133.87L110.6,129.55L111.35,133.19L112.11,129.55L112.86,130.76L113.62,130.76L114.37,127.12L115.12,133.74L115.88,137.49L116.63,134.4L117.39,121.91L118.14,129.89L118.9,131.56L119.65,128.75L120.41,128.34L121.16,133.19L121.91,130.76L122.67,133.28L123.42,121.36L124.18,87.408L124.93,85.172L125.69,69.494L126.44,64.736L127.2,64.489L127.95,60.85L128.7,60.603L129.46,53.968L130.21,59.011L130.97,53.286L131.72,58.745L132.48,55.03L133.23,56.243L133.98,56.167L134.74,56.281L135.49,58.67L136.25,53.949L137,57.892L137.76,53.153L138.51,59.75L139.27,52.338L140.02,58.689L140.77,55.257L141.53,56.167L142.28,55.712L143.04,56.243L143.79,58.689L144.55,53.4L145.3,58.48L146.06,53.267L146.81,59.769L147.56,50.859L148.32,59.58L149.07,53.551L149.83,57.722L150.58,56.414L151.34,54.84L152.09,57.854L152.84,56.224L153.6,58.006L154.35,55.618L155.11,56.926L155.86,57.172L156.62,55.485L157.37,57.267L158.13,56.793L158.88,56.148L159.63,56.49L160.39,58.253L161.14,55.428L161.9,56.072L162.65,56.869L163.41,56.433L164.16,56.072L164.92,56.584L165.67,57.76L166.42,56.338L167.18,56.376L167.93,56.016L168.69,56.546L169.44,54.746L170.2,59.466L170.95,55.997L171.7,56.338L172.46,57.627L173.21,55.693L173.97,56.546L174.72,54.537L175.48,59.523L176.23,52.869L176.99,58.783L177.74,58.272L178.49,52.831L179.25,58.461L180,57.608L180.76,63.143L181.51,60.925L182.27,64.793L183.02,68.3L183.78,67.03L184.53,72.11L185.28,70.802L186.04,82.29L186.79,83.863L187.55,79.446L188.3,73.077L189.06,91.162L189.81,84.982L190.56,85.608L191.32,86.726L192.07,86.366L192.83,83.807L193.58,84.963L194.34,86.29L195.09,85.077L195.85,85.077L196.6,86.214L197.35,89.664L198.11,90.821L198.86,87.901L199.62,99.503L200.37,110.02L201.13,117.51L201.88,109.11L202.64,106.37L203.39,96.356L204.14,116.2L204.9,120.62L205.65,123.67L206.41,119.2L207.16,121.06L207.92,111.84L208.67,126.5L209.42,117.55L210.18,122.27L210.93,116.47L211.69,115.12L212.44,118.38L213.2,124.7L213.95,105.32L214.71,136.39L215.46,131.98L216.21,104.07L216.97,133.19L217.72,117.4L218.48,116.2L219.23,118.91L219.99,121.99L220.74,127.12L221.5,113.89L222.25,120.92L223,122.27L223.76,114.99L224.51,114.99L225.27,124.7L226.02,111.92L226.78,127.12L227.53,117.57L228.28,120.32L229.04,125.49L229.79,112.98L230.55,128.34L231.3,123.58L232.06,111.26L232.81,127.12L233.57,128.34L234.32,118.01L235.07,115.86L235.83,130.52L236.58,112.66L237.34,111.5L238.09,128.07L238.85,133.19L239.6,129.53L240.36,116.2L241.11,131.98L241.86,133.19L242.62,121.06L243.37,132.26L244.13,135.33L244.88,113.83L245.64,114.71L246.39,131.52L247.14,138.04L247.9,124.45L248.65,122.59L249.41,84.565L250.16,102.18L250.92,88.679L251.67,82.518L252.43,80.148L253.18,74.006L253.93,73.437L254.69,70.973L255.44,66.632L256.2,64.888L256.95,64.793L257.71,67.371L258.46,64.527L259.22,62.271L259.97,62.878L260.72,59.504L261.48,59.864L262.23,63.447L262.99,63.219L263.74,61.267L264.5,63.485L265.25,63.03L266,62.177L266.76,62.518L267.51,67.238L268.27,68.887L269.02,66.233L269.78,67.504L270.53,66.12L271.29,80.963L272.04,83.769L272.79,80.603L273.55,75.598L274.3,76.167L275.06,80.432L275.81,81.911L276.57,80.091L277.32,82.821L278.07,83.788L278.83,88.337L279.58,90.006L280.34,132.13L281.09,115.77L281.85,118.01L282.6,110.25L283.36,108.17L284.11,99.541L284.86,85.797L285.62,95.465L286.37,84.717L287.13,90.934L287.88,88.849L288.64,89.532L289.39,88.375L290.15,86.404L290.9,90.878L291.65,85.02L292.41,82.347L293.16,91.769L293.92,107.26L294.67,81.323L295.43,97.759L296.18,71.655L296.93,68.395L297.69,61.229L298.44,61.779L299.2,53.665L299.95,57.798L300.71,52.812L301.46,57.892L302.22,52.85L302.97,57.513L303.72,54.272L304.48,56.736L305.23,53.892L305.99,56.812L306.74,52.736L307.5,57.873L308.25,52.983L309.01,57.267L309.76,54.291L310.51,55.845L311.27,53.93L312.02,57.039L312.78,53.608L313.53,56.963L314.29,53.646L315.04,56.963L315.79,53.437L316.55,57.305L317.3,53.665L318.06,56.66L318.81,53.892L319.57,57.077L320.32,53.267L321.08,57.001L321.83,53.873L322.58,56.831L323.34,53.646L324.09,57.096L324.85,64.47L325.6,60.755L326.36,65.38L327.11,65.494L327.87,64.622L328.62,74.537L329.37,72.603L330.13,64.698L330.88,68.755L331.64,72.053L332.39,74.12L333.15,71.086L333.9,78.252L334.65,83.295L335.41,78.271L336.16,90.707L336.92,92.792L337.67,92.318L338.43,95.541L339.18,96.906L339.94,103.62L340.69,109.13L341.44,106.06L342.2,108.92L342.95,80.925L343.71,111.62L344.46,105.72L345.22,104.39L345.97,100.92L346.73,114.25L347.48,113.47L348.23,94.991L348.99,107.22L349.74,126.42L350.5,102.76L351.25,108.64L352.01,119.16L352.76,126.59L353.51,91.162L354.27,122.27L355.02,122.31L355.78,105.23L356.53,119.81L357.29,123.48L358.04,124.7L358.8,90.612L359.55,124.6L360.3,123.48L361.06,82.612L361.81,111.35L362.57,116.51L363.32,116.2L364.08,90.119L364.83,118.16L365.59,118.4L366.34,119.64L367.09,89.816L367.85,110.97L368.6,123.5L369.36,122.21L370.11,100.68L370.87,101.61L371.62,104.75L372.37,130.08L373.13,113.93L373.88,85.38L374.64,112.68L375.39,114.88L376.15,119.56L376.9,114.01L377.66,83.048L378.41,114.99L379.16,123.22L379.92,112.81L380.67,119.05L381.43,87.75L382.18,122.4L382.94,114.99L383.69,121.04L384.45,121.06L385.2,89.115L385.95,105.93L386.71,111.18L387.46,121.06L388.22,114.48L388.97,108.05L389.73,96.849L390.48,123.6L391.23,103.1L391.99,106.92L392.74,115.16L393.5,94.745L394.25,122.8L395.01,126.1L395.76,122.27L396.52,99.503L397.27,115.5L398.02,92.091L398.78,122L399.53,108.62L400.29,133.32L401.04,117.57L401.8,116.2L402.55,117.08L403.31,95.351L404.06,122.33L404.81,111.75L405.57,128.07L406.32,124.66L407.08,118.67L407.83,121.06L408.59,93.152L409.34,119.84L410.09,119.03L410.85,114.8L411.6,132.96L412.36,122.27L413.11,127.12L413.87,93.152L414.62,129.04L415.38,127.62L416.13,131.98L416.88,127.12L417.64,104.74L418.39,124.53L419.15,136.49L419.9,99.048L420.66,141.66L421.41,141.97L422.16,142.61L422.92,140.47L423.67,138.04L424.43,106.97L425.18,100.87L425.94,78.954L426.69,77.096L427.45,65.93L428.2,124.07L428.95,125.91L429.71,123.71L430.46,128.77L431.22,130.82L431.97,130.37L432.73,127.64L433.48,132.34L434.24,131.98L434.99,96.034L435.74,117.06L436.5,128.34L437.25,121.78L438.01,131.26L438.76,129.55L439.52,124.7L440.27,129.99L441.02,81.077L441.78,119.29L442.53,135.14L443.29,123.48L444.04,95.958L444.8,93.114L445.55,76.774L446.31,81.494L447.06,106.63L447.81,111.35L448.57,110.14L449.32,111.35L450.08,62.973L450.83,94.764L451.59,100.56L452.34,83.75L453.1,81.627L453.85,82.48L454.6,124.92L455.36,109.93L456.11,69.873L456.87,70.158L457.62,114.37L458.38,118.14L459.13,90.726L459.88,88.053L460.64,77.342L461.39,113.17L462.15,81.001L462.9,106.56L463.66,74.764L464.41,68.319L465.17,65.892L465.92,103.84L466.67,116.19L467.43,112.37L468.18,70.12L468.94,81.778L469.69,101.87L470.45,115.9L471.2,82.65L471.96,91.92L472.71,117.87L473.46,83.143L474.22,118.63L474.97,92.167L475.73,86.062L476.48,92.584L477.24,71.409L477.99,113.51L478.74,105.59L479.5,76.186L480.25,83.56L481.01,84.963L481.76,75.03L482.52,118.14L483.27,77.608L484.03,84.66L484.78,83.807L485.53,83.788L486.29,81.494L487.04,97.19L487.8,83.048L488.55,77.721L489.31,78.48L490.06,81.323L490.82,76.186L491.57,88.053L492.32,88.337L493.08,94.991L493.83,98.707L494.59,96.565L495.34,72.963L496.1,89.892L496.85,110.76L497.6,108.26L498.36,114.57L499.11,69.437L499.87,72.527L500.62,118.76L501.38,120.98L502.13,117.42L502.89,91.731L503.64,95.977L504.39,63.39L505.15,114.52L505.9,117.42L506.66,124.03L507.41,116.87L508.17,118.63L508.92,76.622L509.68,78.138L510.43,117.42L511.18,117.4L511.94,117.42L512.69,121.06L513.45,101.63L514.2,69.665L514.96,85.854L515.71,115.84L516.46,115.07L517.22,125.51L517.97,118.55L518.73,100.05L519.48,83.655L520.24,66.878L520.99,114.82L521.75,116.87L522.5,119.18L523.25,121.06L524.01,117.7L524.76,80.281L525.52,102.73L526.27,78.157L527.03,108.87L527.78,126.88L528.54,116.51L529.29,117.4L530.04,113.38L530.8,69.778L531.55,82.328L532.31,66.613L533.06,102.84L533.82,121.49L534.57,122.23L535.32,119.84L536.08,119.84L536.83,88.11L537.59,84.622L538.34,83.314L539.1,70.158L539.85,86.726L540.61,120.17L541.36,115.22L542.11,122.27L542.87,118.63L543.62,114.59L544.38,109.34L545.13,72.47L545.89,79.484L546.64,69.854L547.4,91.484L548.15,116.36L548.9,119.67L549.66,122.97L550.41,117.13L551.17,117.27L551.92,67.541L552.68,83.522L553.43,78.745L554.18,72.698L554.94,81.077L555.69,59.428L556.45,129.47L557.2,123.48L557.96,122.27L558.71,117.32L559.47,71.807L560.22,77.229L560.97,73.949L561.73,72.205L562.48,73.703L563.24,58.954L563.99,67.068L564.75,64.793L565.5,61.418L566.25,61.456L567.01,60.224L567.76,69.399L568.52,71.674L569.27,58.044L570.03,64.319L570.78,62.423L571.54,60.319L572.29,56.376L573.04,60.679L573.8,58.196L574.55,53.21L575.31,57.551L576.06,53.4L576.82,57.267L577.57,53.381L578.33,57.684L579.08,54.727L579.83,55.959L580.59,54.764L581.34,54.499L582.1,53.855L582.85,56.85L583.61,53.93L584.36,57.437L585.11,53.267L585.87,58.764L586.62,62.67L587.38,49.4L588.13,61.987L588.89,48.66L589.64,61.987L590.4,48.622L591.15,62.025L591.9,48.528L592.66,62.158L593.41,48.547L594.17,62.215L594.92,47.788L595.68,62.821L596.43,48.262L597.19,62.745L597.94,47.997L598.69,62.726L599.45,47.94L600.2,62.726L600.96,47.978L601.71,62.745L602.47,48.205L603.22,62.537L603.97,47.883L604.73,62.783L605.48,56.926L606.24,54.12L606.99,56.546L607.75,54.234L608.5,47.239L609.26,63.485L610.01,56.907L610.76,53.949L611.52,61.532L612.27,49.21L613.03,61.475L613.78,48.85L614.54,63.807L615.29,47.826L616.05,63.485L616.8,47.959L617.55,63.181L618.31,48.49L619.06,49.191L619.82,61.627L620.57,63.883L621.33,63.75L622.08,49.286L622.83,57.191L623.59,80.963L624.34,96.811L625.1,104.28L625.85,70.707L626.61,80.603L627.36,59.257L628.12,118.42L628.87,119.84L629.62,116.19L630.38,77.323L631.13,78.044L631.89,69.532L632.64,118.63L633.4,118.63L634.15,117.42L634.91,67.674L635.66,61.949L636.41,78.252L637.17,63.579L637.92,85.721L638.68,119.84L639.43,116.2L640.19,122.27L640.94,113.42L641.69,60.85L642.45,83.465L643.2,119.2L643.96,118.63L644.71,121.7L645.47,118.61L646.22,70.101L646.98,67.845L647.73,117.95L648.48,118.71L649.24,121.06L649.99,122.25L650.75,98.745L651.5,54.594L652.26,109.46L653.01,112.07L653.77,121.04L654.52,119.84L655.27,114.25L656.03,112.28L656.78,59.485L657.54,121.23L658.29,116.3L659.05,112.22L659.8,119.09L660.55,115.39L661.31,121.4L662.06,58.821L662.82,117.72L663.57,116.6L664.33,117.42L665.08,118.5L665.84,96.887L666.59,78.821L667.34,65.778L668.1,96.944L668.85,121.87L669.61,118.63L670.36,118.63L671.12,121.06L671.87,71.902L672.63,84.053L673.38,59.883L674.13,108.34L674.89,112.81L675.64,122.63L676.4,117.64L677.15,112.2L677.91,68.755L678.66,82.157L679.41,72.034L680.17,78.802L680.92,117.42L681.68,110.04L682.43,118.73L683.19,111.35L683.94,94.347L684.7,111.81L685.45,117.42L686.2,79.409L686.96,101L687.71,109.76L688.47,111.33L689.22,114.99L689.98,113.78L690.73,70.726L691.49,90.214L692.24,104.92L692.99,115.79L693.75,58.006L694.5,124.6L695.26,118.21L696.01,114.99L696.77,110.12L697.52,101.15L698.27,67.712L699.03,79.939L699.78,69.627L700.54,82.233L701.29,68.432L702.05,76.413L702.8,120.11L703.56,122.93L704.31,118.61L705.06,110.48L705.82,68.148L706.57,69.323L707.33,72.262L708.08,71.295L708.84,66.177L709.59,69.191L710.34,57.987L711.1,127.96L711.85,109.95L712.61,119.1L713.36,122.99L714.12,121.06L714.87,77.134L715.63,88.11L716.38,91.465L717.13,74.575L717.89,83.124L718.64,76.641L719.4,75.352L720.15,125.91L720.91,118.63L721.66,118.63L722.42,119.1L723.17,125.44L723.92,127.12L724.68,90.1L725.43,67.485L726.19,79.276L726.94,68.793L727.7,69.589L728.45,57.305L729.2,102.1L729.96,115.82L730.71,124.7L731.47,122.08L732.22,123.46L732.98,121.25L733.73,111.96L734.49,130.16L735.24,118.63L735.99,103.98L736.75,67.105L737.5,81.702L738.26,69.816L739.01,69.608L739.77,124.79L740.52,121.06L741.28,121.06L742.03,125.49L742.78,114.8L743.54,117.55L744.29,58.802L745.05,69.892L745.8,71.541L746.56,73.058L747.31,77.589L748.06,62.196L748.82,66.859L749.57,65.267L750.33,58.878L751.08,53.21L751.84,55.144L752.59,57.57L753.35,55.618L754.1,54.461L754.85,56.736L755.61,63.788L756.36,54.272L757.12,57.399L757.87,52.414L758.63,58.234L759.38,52.471L760.14,58.499L760.89,52.205L761.64,58.442L762.4,52.205L763.15,58.575L763.91,51.276L764.66,49.267L765.42,57.873L766.17,52.774L766.92,58.328L767.68,54.783L768.43,58.556L769.19,52.528L769.94,58.366L770.7,47.03L771.45,63.542L772.21,48.547L772.96,62.442L773.71,50.234L774.47,60.565L775.22,50.082L775.98,60.565L776.73,50.101L777.49,56.736L778.24,53.949L779,56.414L779.75,55.428L780.5,55.2L781.26,52.395L782.01,58.802L782.77,63.674L783.52,52.148L784.28,58.632L785.03,52.167L785.78,58.821L786.54,52.376L787.29,58.328L788.05,57.399L788.8,53.76L789.56,57.267L790.31,53.532L791.07,57.551L791.82,53.153L792.57,50.044L793.33,60.698L794.08,49.589L794.84,116L795.59,114.74L796.35,112.56L797.1,112.58L797.86,93.209L798.61,68.205L799.36,53.513L800.12,97.664L800.87,113.44L801.63,119.1L802.38,118.93L803.14,112.26L803.89,118.63L804.64,93.569L805.4,62.025L806.15,57.001L806.91,51.352L807.66,114.46L808.42,113.78L809.17,121.06L809.93,122.8L810.68,106.48L811.43,121.34L812.19,53.494L812.94,112.45L813.7,116.64L814.45,109.23L815.21,126.84L815.96,115.39L816.72,113.08L817.47,65.38L818.22,70.84L818.98,90.081L819.73,118.63L820.49,117.4L821.24,117.42L822,109.36L822.75,118.95L823.5,117.87L824.26,56.85L825.01,57.172L825.77,107.96L826.52,116.41L827.28,119.84L828.03,111.33L828.79,116L829.54,117.61L830.29,116L831.05,87.636L831.8,50.347L832.56,120.66L833.31,116.19L834.07,115.9L834.82,115.29L835.58,113.78L836.33,119.43L837.08,111.62L837.84,116.51L838.59,62.992L839.35,101.08L840.1,122.27L840.86,80.451L841.61,74.821L842.36,79.067L843.12,80.243L843.87,76.887L844.63,74.12L845.38,76.66L846.14,64.793L846.89,74.499L847.65,115.43L848.4,126.16L849.15,120.37L849.91,118.61L850.66,105.99L851.42,92.394L852.17,95.75L852.93,101.78L853.68,89.607L854.44,50.158L855.19,123.56L855.94,116.2L856.7,117.42L857.45,119.84L858.21,119.84L858.96,113.78L859.72,116.2L860.47,113.78L861.22,124.7L861.98,84.66L862.73,78.593L863.49,78.518L864.24,99.162L865,98.138L865.75,112.55L866.51,109.65L867.26,87.352L868.01,95.768L868.77,109.1L869.52,109.17L870.28,102.02L871.03,97.418L871.79,70.821L872.54,90.953L873.29,114.25L874.05,127.77L874.8,124.7L875.56,122.27L876.31,121.06L877.07,59.693L877.82,69.153L878.58,71.541L879.33,69.703L880.08,73.703L880.84,76.451L881.59,67.068L882.35,70.101L883.1,119.1L883.86,122.63L884.61,125.08L885.37,118.63L886.12,119.43L886.87,110.78L887.63,58.537L888.38,71.295L889.14,82.309L889.89,101.76L890.65,119.29L891.4,128.96L892.15,90.991L892.91,77.968L893.66,119.82L894.42,114.06L895.17,107.43L895.93,51.902L896.68,79.409L897.44,83.75L898.19,83.75L898.94,83.636L899.7,79.731L900.45,79.086L901.21,78.897L901.96,64.869L902.72,59.674L903.47,55.845L904.23,62.404L904.98,62.025L905.73,59.561L906.49,56.167L907.24,61.854L908,49.077L908.75,89.096L909.51,94.138L910.26,59.257L911.01,61.589L911.77,62.271L912.52,54.916L913.28,61.513L914.03,62.461L914.79,62.783L915.54,58.025L916.3,57.892L917.05,61.627L917.8,62.404L918.56,51.447L919.31,59.466L920.07,51.94L920.82,60.471L921.58,50.708L922.33,61.229L923.09,50.366L923.84,61.21L924.59,49.76L925.35,61.38L926.1,51.674L926.86,59.144L927.61,52.66L928.37,57.968L929.12,54.594L929.87,60.281L930.63,62.499L931.38,62.252L932.14,63.447L932.89,61.854L933.65,59.674L934.4,56.3L935.16,62.461L935.91,56.812L936.66,54.101L937.42,57.703L938.17,54.859L938.93,56.224L939.68,56.11L940.44,56.072L941.19,56.072L941.95,54.632L942.7,57.191L943.45,53.76L944.21,58.139L944.96,52.205L945.72,58.442L946.47,51.276L947.23,60.281L947.98,50.783L948.73,62.916L949.49,50.765L950.24,60.357L951,51.883L951.75,58.992L952.51,52.319L953.26,58.366L954.02,51.011L954.77,56.262L955.52,53.419L956.28,57.21L957.03,53.741L957.79,57.153L958.54,54.101L959.3,58.101L960.05,52.926L960.81,58.745L961.56,52.376L962.31,56.262L963.07,54.366L963.82,50.101L964.58,60.698L965.33,52.85L966.09,58.651L966.84,52.812L967.59,57.892L968.35,53.608L969.1,57.096L969.86,53.589L970.61,57.134L971.37,53.987L972.12,57.362L972.88,52.092L973.63,58.935L974.38,52.414L975.14,57.854L975.89,51.693L976.65,61.854L977.4,62.12L978.16,60.205L978.91,59.712L979.67,59.617L980.42,56.319L981.17,57.513L981.93,54.063L982.68,56.186L983.44,54.783L984.19,56.091L984.95,54.727L985.7,53.494L986.45,57.267L987.21,49.608L987.96,101.38L988.72,119.64L989.47,112.56L990.23,121.04L990.98,110.38L991.74,92.47L992.49,110.25L993.24,67.295L994,49.438L994.75,103.1L995.51,110.42L996.26,62.556L997.02,53.229L997.77,73.001L998.53,120.72L999.28,117.44L1000,118.04L1000.8,117.72L1001.5,120.07L1002.3,61.475L1003.1,90.442L1003.8,78.973L1004.6,122.31L1005.3,121.06L1006.1,112L1006.8,113.11L1007.6,61.248L1008.3,79.655L1009.1,78.176L1009.8,53.741L1010.6,92.413L1011.3,117.25L1012.1,122.99L1012.9,120.51L1013.6,115.92L1014.4,56.395L1015.1,75.56L1015.9,66.101L1016.6,66.385L1017.4,61.324L1018.1,77.02L1018.9,113.78L1019.6,114.29L1020.4,119.33L1021.2,116.62L1021.9,118.21L1022.7,112.94L1023.4,62.48L1024.2,63.693L1024.9,64.224L1025.7,49.855L1026.4,88.811L1027.2,120.32L1027.9,118.63L1028.7,119.84L1029.5,116.2L1030.2,113.7L1031,123.54L1031.7,62.992L1032.5,68.262L1033.2,82.1L1034,55.504L1034.7,79.769L1035.5,117.8L1036.2,111.98L1037,118.01L1037.8,122.25L1038.5,82.916L1039.3,63.845L1040,64.774L1040.8,59.561L1041.5,63.523L1042.3,61.911L1043,60.717L1043.8,49.968L1044.5,122.54L1045.3,117.42L1046.1,121.06L1046.8,91.769L1047.6,67.996L1048.3,61.892L1049.1,64.565L1049.8,65.058L1050.6,65.741L1051.3,66.802L1052.1,66.992L1052.8,65.096L1053.6,50.423L1054.4,93.987L1055.1,113.42L1055.9,92.716L1056.6,62.575L1057.4,56.982L1058.1,63.409L1058.9,63.295L1059.6,64.565L1060.4,64.603L1061.1,66.707L1061.9,64.85L1062.6,66.271L1063.4,67.598L1064.2,60.774L1064.9,64.982L1065.7,64.414L1066.4,77.134L1067.2,82.025L1067.9,83.769L1068.7,85.266L1069.4,84.66L1070.2,85.001L1070.9,76.148L1071.7,61.949L1072.5,72.262L1073.2,72.072L1074,70.84L1074.7,55.902L1075.5,62.347L1076.2,48.888L1077,126.25L1077.7,117.19L1078.5,115.82L1079.2,109.68L1080,70.48" style="fill:none;stroke:#5A9BD4;stroke-width:1.875;stroke-dasharray:2.5,2.5" />
<path d="M1055,694.3L1080,694.3" style="fill:none;stroke:#F15A60;stroke-width:1.875" />
<text x="1002.5" y="-687.85" transform="scale(1, -1)"
	style="font-family:Helvetica;font-weight:normal;font-style:normal;font-size:12pt">etcd v3</text>
<path d="M1055,680L1080,680" style="fill:none;stroke:#7AC36A;stroke-width:1.875;stroke-dasharray:7.5,2.5" />
<text x="941.6" y="-673.56" transform="scale(1, -1)"
	style="font-family:Helvetica;font-weight:normal;font-style:normal;font-size:12pt">Zookeeper 3.4.8</text>
<path d="M1055,665.71L1080,665.71" style="fill:none;stroke:#5A9BD4;stroke-width:1.875;stroke-dasharray:2.5,2.5" />
<text x="966.62" y="-659.26" transform="scale(1, -1)"
	style="font-family:Helvetica;font-weight:normal;font-style:normal;font-size:12pt">Consul 0.6.4</text>
</g>
</svg>
