<?xml version="1.0"?>
<!-- Generated by SVGo and Plotinum VG -->
<svg width="12in" height="8in"
	xmlns="http://www.w3.org/2000/svg"
	xmlns:xlink="http://www.w3.org/1999/xlink">
<g transform="scale(1, -1) translate(0, -720)">
<path d="M0,0L1080,0L1080,720L0,720Z" style="fill:#FFFFFF" />
<text x="318.25" y="-706.41" transform="scale(1, -1)"
	style="font-family:Helvetica;font-weight:normal;font-style:normal;font-size:12pt">Write 3M keys, 500 clients, key 64 bytes, value 256 bytes, Memory</text>
<text x="558.23" y="-4.965" transform="scale(1, -1)"
	style="font-family:Helvetica;font-weight:normal;font-style:normal;font-size:12pt">second</text>
<text x="81.337" y="-19.142" transform="scale(1, -1)"
	style="font-family:Helvetica;font-weight:normal;font-style:normal;font-size:10pt">0</text>
<text x="330" y="-19.142" transform="scale(1, -1)"
	style="font-family:Helvetica;font-weight:normal;font-style:normal;font-size:10pt">600</text>
<text x="582.14" y="-19.142" transform="scale(1, -1)"
	style="font-family:Helvetica;font-weight:normal;font-style:normal;font-size:10pt">1200</text>
<text x="837.75" y="-19.142" transform="scale(1, -1)"
	style="font-family:Helvetica;font-weight:normal;font-style:normal;font-size:10pt">1800</text>
<path d="M84.812,30.467L84.812,40.467" style="fill:none;stroke:#000000;stroke-width:0.625" />
<path d="M340.43,30.467L340.43,40.467" style="fill:none;stroke:#000000;stroke-width:0.625" />
<path d="M596.04,30.467L596.04,40.467" style="fill:none;stroke:#000000;stroke-width:0.625" />
<path d="M851.65,30.467L851.65,40.467" style="fill:none;stroke:#000000;stroke-width:0.625" />
<path d="M170.02,35.468L170.02,40.467" style="fill:none;stroke:#000000;stroke-width:0.625" />
<path d="M255.22,35.468L255.22,40.467" style="fill:none;stroke:#000000;stroke-width:0.625" />
<path d="M425.63,35.468L425.63,40.467" style="fill:none;stroke:#000000;stroke-width:0.625" />
<path d="M510.83,35.468L510.83,40.467" style="fill:none;stroke:#000000;stroke-width:0.625" />
<path d="M681.24,35.468L681.24,40.467" style="fill:none;stroke:#000000;stroke-width:0.625" />
<path d="M766.45,35.468L766.45,40.467" style="fill:none;stroke:#000000;stroke-width:0.625" />
<path d="M936.86,35.468L936.86,40.467" style="fill:none;stroke:#000000;stroke-width:0.625" />
<path d="M1022.1,35.468L1022.1,40.467" style="fill:none;stroke:#000000;stroke-width:0.625" />
<path d="M84.812,40.467L1080,40.467" style="fill:none;stroke:#000000;stroke-width:0.625" />
<g transform="rotate(90)">
<text x="330.91" y="13.59" transform="scale(1, -1)"
	style="font-family:Helvetica;font-weight:normal;font-style:normal;font-size:12pt">Memory(MB)</text>
</g>
<text x="36.28" y="-246.86" transform="scale(1, -1)"
	style="font-family:Helvetica;font-weight:normal;font-style:normal;font-size:10pt">4000</text>
<text x="36.28" y="-453.11" transform="scale(1, -1)"
	style="font-family:Helvetica;font-weight:normal;font-style:normal;font-size:10pt">8000</text>
<text x="18.555" y="-659.36" transform="scale(1, -1)"
	style="font-family:Helvetica;font-weight:normal;font-style:normal;font-size:10pt">1.2e+04</text>
<path d="M67.555,252.23L77.555,252.23" style="fill:none;stroke:#000000;stroke-width:0.625" />
<path d="M67.555,458.48L77.555,458.48" style="fill:none;stroke:#000000;stroke-width:0.625" />
<path d="M67.555,664.73L77.555,664.73" style="fill:none;stroke:#000000;stroke-width:0.625" />
<path d="M72.555,149.1L77.555,149.1" style="fill:none;stroke:#000000;stroke-width:0.625" />
<path d="M72.555,355.35L77.555,355.35" style="fill:none;stroke:#000000;stroke-width:0.625" />
<path d="M72.555,561.6L77.555,561.6" style="fill:none;stroke:#000000;stroke-width:0.625" />
<path d="M77.555,47.03L77.555,701.44" style="fill:none;stroke:#000000;stroke-width:0.625" />
<path d="M84.812,47.03L85.239,47.906L85.665,48.346L86.091,48.758L86.517,48.991L86.943,49.502L87.369,50.033L87.795,50.501L88.221,50.461L88.647,51.046L89.073,51.537L89.499,52.09L89.925,52.663L90.351,53.239L90.777,53.637L91.203,53.109L91.629,53.453L92.055,54.114L92.481,54.582L92.907,54.946L93.333,55.63L93.759,56.099L94.185,56.668L94.611,57.224L95.037,57.78L95.463,58.166L95.889,58.785L96.315,59.377L96.741,60.023L97.167,60.669L97.593,58.076L98.019,58.764L98.445,59.481L98.871,59.84L99.297,60.136L99.723,61.011L100.15,61.406L100.58,61.766L101,62.456L101.43,62.641L101.85,63.406L102.28,64.001L102.71,64.334L103.13,64.944L103.56,65.23L103.98,66.304L104.41,69.319L104.84,70.912L105.26,70.985L105.69,71.212L106.11,71.609L106.54,71.639L106.97,72.35L107.39,72.378L107.82,73.102L108.24,73.128L108.67,73.215L109.1,73.887L109.52,73.941L109.95,74.653L110.37,74.711L110.8,71.214L111.23,72.026L111.65,72.217L112.08,72.269L112.5,73.216L112.93,73.226L113.36,73.547L113.78,74.441L114.21,74.455L114.63,74.793L115.06,75.606L115.49,75.816L115.91,76.024L116.34,76.99L116.76,77.071L117.19,77.433L117.62,78.317L118.04,78.35L118.47,78.67L118.89,79.599L119.32,79.855L119.75,85.845L120.17,88.05L120.6,88.808L121.02,89.44L121.45,89.474L121.88,89.716L122.3,90.192L122.73,90.21L123.15,90.26L123.58,90.914L124.01,91.161L124.43,91.183L124.86,91.194L125.28,91.491L125.71,91.856L126.14,92.134L126.56,92.15L126.99,92.441L127.41,92.567L127.84,92.721L128.27,92.734L128.69,92.747L129.12,92.759L129.54,92.77L129.97,92.789L130.4,92.798L130.82,92.863L131.25,93.081L131.67,93.317L132.1,93.646L132.53,93.669L132.95,93.775L133.38,93.807L133.81,93.848L134.23,93.879L134.66,93.886L135.08,93.911L135.51,93.93L135.94,93.996L136.36,94.069L136.79,94.133L137.21,94.245L137.64,94.288L138.07,94.468L138.49,95.024L138.92,95.114L139.34,95.157L139.77,96.731L140.2,101.9L140.62,103.87L141.05,105.01L141.47,106.8L141.9,106.82L142.33,107.06L142.75,107.5L143.18,107.63L143.6,107.64L144.03,107.67L144.46,107.67L144.88,107.79L145.31,107.85L145.73,107.9L146.16,108.01L146.59,108.07L147.01,108.25L147.44,108.36L147.86,108.51L148.29,108.68L148.72,108.82L149.14,108.92L149.57,108.92L149.99,108.93L150.42,108.93L150.85,108.94L151.27,109.01L151.7,109.01L152.12,109.01L152.55,109.03L152.98,109.03L153.4,109.04L153.83,109.05L154.25,109.05L154.68,109.07L155.11,109.08L155.53,109.1L155.96,109.11L156.38,109.12L156.81,109.13L157.24,109.13L157.66,109.13L158.09,109.14L158.51,109.15L158.94,109.16L159.37,109.2L159.79,109.3L160.22,105.04L160.64,105.19L161.07,105.32L161.5,105.46L161.92,105.5L162.35,105.5L162.77,105.5L163.2,105.5L163.63,105.5L164.05,105.55L164.48,105.55L164.9,105.56L165.33,105.57L165.76,105.58L166.18,105.58L166.61,105.58L167.03,105.59L167.46,105.6L167.89,105.6L168.31,105.6L168.74,105.6L169.16,105.6L169.59,105.61L170.02,105.62L170.44,105.62L170.87,105.63L171.29,105.65L171.72,105.68L172.15,105.69L172.57,105.69L173,105.7L173.43,105.72L173.85,105.73L174.28,105.77L174.7,105.78L175.13,105.78L175.56,105.81L175.98,105.85L176.41,105.86L176.83,105.86L177.26,105.86L177.69,105.87L178.11,105.87L178.54,105.87L178.96,105.87L179.39,105.87L179.82,105.87L180.24,105.89L180.67,105.89L181.09,105.92L181.52,105.96L181.95,105.97L182.37,105.99L182.8,106.03L183.22,106.04L183.65,106.04L184.08,106.04L184.5,106.04L184.93,106.05L185.35,106.05L185.78,106.06L186.21,106.1L186.63,106.23L187.06,106.23L187.48,106.25L187.91,106.25L188.34,106.25L188.76,106.33L189.19,106.35L189.61,106.36L190.04,106.36L190.47,106.48L190.89,106.48L191.32,107.01L191.74,107.01L192.17,107.01L192.6,107.04L193.02,107.05L193.45,107.05L193.87,107.08L194.3,107.15L194.73,107.15L195.15,107.19L195.58,107.19L196,107.19L196.43,107.2L196.86,107.2L197.28,107.2L197.71,107.2L198.13,107.22L198.56,107.28L198.99,107.4L199.41,107.46L199.84,107.46L200.26,110.94L200.69,113.18L201.12,114.37L201.54,116.26L201.97,117.73L202.39,117.74L202.82,117.76L203.25,117.77L203.67,117.77L204.1,117.77L204.52,117.78L204.95,117.78L205.38,117.78L205.8,117.78L206.23,117.79L206.65,117.79L207.08,117.79L207.51,117.8L207.93,117.8L208.36,117.8L208.78,117.8L209.21,117.8L209.64,117.8L210.06,117.8L210.49,117.8L210.92,117.8L211.34,117.8L211.77,117.8L212.19,117.8L212.62,117.8L213.05,117.8L213.47,117.8L213.9,117.8L214.32,117.8L214.75,117.8L215.18,117.8L215.6,117.8L216.03,117.8L216.45,117.81L216.88,117.81L217.31,117.81L217.73,117.81L218.16,117.81L218.58,117.81L219.01,117.81L219.44,117.81L219.86,117.81L220.29,117.81L220.71,117.81L221.14,117.81L221.57,117.81L221.99,117.81L222.42,117.81L222.84,117.81L223.27,117.81L223.7,117.81L224.12,117.88L224.55,117.88L224.97,117.88L225.4,117.88L225.83,117.88L226.25,117.88L226.68,117.89L227.1,117.89L227.53,117.89L227.96,117.89L228.38,117.89L228.81,117.9L229.23,117.9L229.66,117.9L230.09,117.9L230.51,117.99L230.94,117.99L231.36,117.99L231.79,118.29L232.22,118.3L232.64,118.3L233.07,118.5L233.49,118.61L233.92,118.61L234.35,118.61L234.77,119.24L235.2,119.5L235.62,119.51L236.05,119.55L236.48,120.61L236.9,121.29L237.33,121.88L237.75,121.88L238.18,121.88L238.61,121.88L239.03,121.89L239.46,122.36L239.88,122.66L240.31,122.67L240.74,122.67L241.16,122.67L241.59,122.77L242.01,122.88L242.44,123.03L242.87,123.55L243.29,123.58L243.72,123.59L244.14,123.59L244.57,123.59L245,124.1L245.42,124.11L245.85,124.11L246.27,124.11L246.7,124.34L247.13,124.34L247.55,124.39L247.98,124.65L248.4,124.65L248.83,124.84L249.26,124.85L249.68,124.85L250.11,124.85L250.54,124.89L250.96,125.42L251.39,125.43L251.81,125.43L252.24,125.43L252.67,125.43L253.09,125.43L253.52,125.43L253.94,125.63L254.37,125.63L254.8,125.65L255.22,125.66L255.65,125.66L256.07,125.66L256.5,125.66L256.93,125.66L257.35,125.66L257.78,125.66L258.2,125.66L258.63,125.66L259.06,125.73L259.48,125.73L259.91,125.76L260.33,125.76L260.76,125.76L261.19,125.76L261.61,125.76L262.04,125.76L262.46,125.76L262.89,125.76L263.32,125.76L263.74,125.76L264.17,125.76L264.59,125.77L265.02,125.77L265.45,125.77L265.87,125.77L266.3,125.77L266.72,125.77L267.15,125.77L267.58,125.77L268,125.77L268.43,125.77L268.85,125.77L269.28,125.84L269.71,125.84L270.13,125.87L270.56,125.89L270.98,125.89L271.41,125.89L271.84,126.38L272.26,128.31L272.69,128.92L273.11,128.94L273.54,128.94L273.97,128.94L274.39,128.94L274.82,128.94L275.24,128.94L275.67,128.94L276.1,128.96L276.52,128.96L276.95,128.99L277.37,129.01L277.8,129.01L278.23,129.19L278.65,131.43L279.08,132.08L279.5,132.08L279.93,132.08L280.36,132.08L280.78,132.08L281.21,132.08L281.63,132.08L282.06,132.08L282.49,132.08L282.91,132.08L283.34,132.08L283.76,132.08L284.19,132.08L284.62,132.08L285.04,132.09L285.47,132.12L285.89,132.11L286.32,132.11L286.75,132.11L287.17,132.11L287.6,132.12L288.03,132.12L288.45,132.12L288.88,132.12L289.3,132.13L289.73,132.13L290.16,132.13L290.58,132.13L291.01,132.13L291.43,132.13L291.86,132.13L292.29,132.13L292.71,132.13L293.14,132.13L293.56,132.14L293.99,132.14L294.42,132.14L294.84,132.17L295.27,133.01L295.69,133.01L296.12,133.53L296.55,135.13L296.97,135.75L297.4,138.49L297.82,139.32L298.25,139.33L298.68,139.33L299.1,139.72L299.53,139.72L299.95,139.72L300.38,140.27L300.81,140.27L301.23,140.27L301.66,140.42L302.08,140.42L302.51,140.42L302.94,141.42L303.36,141.42L303.79,141.42L304.21,141.66L304.64,141.82L305.07,141.82L305.49,141.82L305.92,141.88L306.34,141.93L306.77,142.57L307.2,143.38L307.62,143.61L308.05,143.63L308.47,143.63L308.9,143.63L309.33,143.84L309.75,143.84L310.18,144.35L310.6,144.59L311.03,145.3L311.46,145.35L311.88,145.35L312.31,145.37L312.73,145.38L313.16,145.38L313.59,145.51L314.01,145.53L314.44,145.88L314.86,145.88L315.29,145.88L315.72,146.23L316.14,146.29L316.57,146.53L316.99,146.74L317.42,146.75L317.85,146.9L318.27,146.9L318.7,146.9L319.12,146.9L319.55,146.9L319.98,146.9L320.4,146.97L320.83,147.29L321.25,147.35L321.68,147.36L322.11,147.36L322.53,147.36L322.96,147.36L323.38,147.36L323.81,147.43L324.24,147.44L324.66,147.44L325.09,147.44L325.51,147.44L325.94,147.51L326.37,147.55L326.79,147.55L327.22,147.57L327.65,147.57L328.07,147.58L328.5,147.58L328.92,147.58L329.35,147.58L329.78,147.58L330.2,147.58L330.63,147.58L331.05,147.58L331.48,147.58L331.91,147.58L332.33,147.58L332.76,147.58L333.18,147.59L333.61,147.59L334.04,147.6L334.46,147.63L334.89,147.65L335.31,147.65L335.74,147.65L336.17,147.65L336.59,149.04L337.02,150.97L337.44,151.12L337.87,151.13L338.3,151.13L338.72,151.14L339.15,151.14L339.57,151.15L340,151.15L340.43,151.15L340.85,151.16L341.28,151.16L341.7,151.16L342.13,151.16L342.56,151.16L342.98,151.16L343.41,151.16L343.83,151.16L344.26,151.16L344.69,151.16L345.11,151.16L345.54,151.16L345.96,151.16L346.39,151.16L346.82,151.18L347.24,151.2L347.67,151.2L348.09,151.2L348.52,151.2L348.95,151.22L349.37,151.25L349.8,151.25L350.22,151.25L350.65,151.25L351.08,151.41L351.5,151.44L351.93,152.54L352.35,154.65L352.78,156.67L353.21,157.12L353.63,157.12L354.06,157.13L354.48,157.13L354.91,157.5L355.34,157.5L355.76,157.5L356.19,157.5L356.61,157.5L357.04,157.5L357.47,157.5L357.89,157.5L358.32,157.5L358.74,157.5L359.17,157.5L359.6,157.5L360.02,157.5L360.45,157.51L360.87,157.51L361.3,157.51L361.73,157.51L362.15,157.51L362.58,157.51L363,157.51L363.43,157.51L363.86,157.52L364.28,157.52L364.71,157.52L365.14,157.52L365.56,157.52L365.99,157.52L366.41,157.52L366.84,157.52L367.27,157.52L367.69,157.52L368.12,157.52L368.54,157.52L368.97,157.52L369.4,157.55L369.82,157.6L370.25,157.6L370.67,157.6L371.1,157.6L371.53,157.6L371.95,157.6L372.38,158.16L372.8,158.39L373.23,161.29L373.66,164.14L374.08,165.11L374.51,165.11L374.93,165.14L375.36,165.78L375.79,167.66L376.21,168.77L376.64,169.31L377.06,169.35L377.49,169.35L377.92,169.36L378.34,169.36L378.77,169.37L379.19,169.38L379.62,169.38L380.05,169.45L380.47,169.45L380.9,169.45L381.32,169.46L381.75,169.47L382.18,169.48L382.6,169.48L383.03,169.48L383.45,169.92L383.88,170.54L384.31,170.69L384.73,170.69L385.16,170.69L385.58,170.69L386.01,170.69L386.44,170.69L386.86,170.69L387.29,170.78L387.71,170.79L388.14,170.79L388.57,170.8L388.99,170.81L389.42,170.81L389.84,170.81L390.27,170.81L390.7,170.81L391.12,170.81L391.55,170.83L391.97,170.84L392.4,170.84L392.83,170.84L393.25,170.84L393.68,171.26L394.1,173.21L394.53,175.06L394.96,175.15L395.38,175.16L395.81,175.16L396.23,175.16L396.66,175.16L397.09,175.16L397.51,175.16L397.94,175.16L398.36,175.16L398.79,175.16L399.22,175.16L399.64,175.16L400.07,175.16L400.49,175.16L400.92,175.16L401.35,175.16L401.77,175.16L402.2,175.16L402.62,175.16L403.05,175.16L403.48,175.16L403.9,175.16L404.33,175.17L404.76,175.27L405.18,175.27L405.61,175.27L406.03,175.27L406.46,175.27L406.89,175.27L407.31,175.27L407.74,175.28L408.16,175.29L408.59,175.29L409.02,175.29L409.44,175.29L409.87,175.29L410.29,175.29L410.72,175.29L411.15,175.29L411.57,175.3L412,175.3L412.42,175.3L412.85,175.3L413.28,175.3L413.7,175.3L414.13,175.3L414.55,175.3L414.98,175.31L415.41,175.31L415.83,175.33L416.26,175.35L416.68,175.35L417.11,175.35L417.54,175.35L417.96,175.35L418.39,175.36L418.81,175.37L419.24,175.37L419.67,175.37L420.09,175.37L420.52,175.38L420.94,175.4L421.37,175.48L421.8,175.51L422.22,175.52L422.65,175.52L423.07,175.52L423.5,175.57L423.93,175.7L424.35,175.87L424.78,175.91L425.2,175.92L425.63,175.94L426.06,176.01L426.48,178.34L426.91,180.88L427.33,183.28L427.76,184.65L428.19,184.66L428.61,184.68L429.04,184.68L429.46,185.27L429.89,187.72L430.32,189.83L430.74,190.25L431.17,190.25L431.59,191.03L432.02,191.65L432.45,191.65L432.87,191.67L433.3,191.67L433.72,191.67L434.15,191.79L434.58,192.24L435,192.62L435.43,193.04L435.85,193.47L436.28,193.6L436.71,193.6L437.13,193.6L437.56,193.6L437.98,193.6L438.41,193.6L438.84,193.63L439.26,193.65L439.69,193.65L440.11,193.65L440.54,193.65L440.97,193.65L441.39,193.65L441.82,193.65L442.24,193.65L442.67,193.65L443.1,193.65L443.52,193.65L443.95,193.65L444.38,193.7L444.8,193.71L445.23,193.71L445.65,193.71L446.08,193.71L446.51,193.71L446.93,194.17L447.36,194.4L447.78,194.44L448.21,194.44L448.64,194.44L449.06,194.44L449.49,197.06L449.91,199.05L450.34,199.05L450.77,199.05L451.19,199.06L451.62,199.06L452.04,199.06L452.47,199.09L452.9,199.1L453.32,199.1L453.75,199.11L454.17,199.12L454.6,199.12L455.03,199.12L455.45,199.13L455.88,199.13L456.3,199.13L456.73,199.13L457.16,199.13L457.58,199.13L458.01,199.13L458.43,199.13L458.86,199.13L459.29,199.13L459.71,199.13L460.14,199.13L460.56,199.33L460.99,199.34L461.42,199.34L461.84,199.34L462.27,199.34L462.69,199.34L463.12,199.34L463.55,199.34L463.97,199.34L464.4,199.34L464.82,199.34L465.25,199.34L465.68,199.34L466.1,199.34L466.53,199.34L466.95,199.34L467.38,199.34L467.81,199.34L468.23,199.34L468.66,199.34L469.08,199.34L469.51,199.34L469.94,199.34L470.36,199.34L470.79,199.34L471.21,199.34L471.64,199.34L472.07,199.34L472.49,199.34L472.92,199.35L473.34,199.39L473.77,199.39L474.2,199.39L474.62,199.39L475.05,199.39L475.47,199.39L475.9,199.39L476.33,199.4L476.75,199.4L477.18,199.4L477.6,199.4L478.03,199.4L478.46,199.4L478.88,199.4L479.31,199.4L479.73,199.4L480.16,199.4L480.59,199.4L481.01,199.4L481.44,199.4L481.87,199.4L482.29,199.4L482.72,199.4L483.14,199.4L483.57,199.4L484,199.4L484.42,199.4L484.85,199.4L485.27,199.4L485.7,199.4L486.13,199.4L486.55,199.4L486.98,199.4L487.4,199.4L487.83,199.4L488.26,199.41L488.68,199.41L489.11,199.42L489.53,199.5L489.96,199.5L490.39,199.5L490.81,199.5L491.24,199.5L491.66,199.5L492.09,199.5L492.52,199.51L492.94,199.56L493.37,199.54L493.79,199.54L494.22,199.54L494.65,199.54L495.07,199.54L495.5,199.54L495.92,199.54L496.35,199.54L496.78,199.88L497.2,201.3L497.63,201.37L498.05,201.37L498.48,201.37L498.91,201.37L499.33,201.38L499.76,202.71L500.18,204.53L500.61,206.34L501.04,206.69L501.46,206.69L501.89,206.69L502.31,206.69L502.74,206.69L503.17,206.69L503.59,206.69L504.02,206.7L504.44,206.7L504.87,206.77L505.3,206.77L505.72,206.77L506.15,206.77L506.57,206.77L507,206.77L507.43,206.77L507.85,206.78L508.28,206.78L508.7,206.78L509.13,206.78L509.56,206.78L509.98,206.78L510.41,206.78L510.83,206.78L511.26,206.78L511.69,206.78L512.11,206.78L512.54,206.78L512.96,206.78L513.39,206.78L513.82,206.78L514.24,206.78L514.67,206.78L515.09,206.78L515.52,206.78L515.95,206.78L516.37,206.78L516.8,206.78L517.22,206.78L517.65,206.78L518.08,206.78L518.5,206.78L518.93,206.78L519.35,206.78L519.78,206.78L520.21,206.79L520.63,206.79L521.06,206.79L521.49,206.79L521.91,206.79L522.34,206.79L522.76,206.79L523.19,206.79L523.62,206.79L524.04,206.79L524.47,206.79L524.89,206.79L525.32,206.79L525.75,206.79L526.17,206.79L526.6,206.79L527.02,206.79L527.45,206.79L527.88,206.79L528.3,206.79L528.73,206.79L529.15,206.79L529.58,206.79L530.01,206.79L530.43,206.79L530.86,206.79L531.28,206.79L531.71,206.79L532.14,206.79L532.56,206.79L532.99,206.79L533.41,206.79L533.84,206.79L534.27,206.79L534.69,206.79L535.12,206.79L535.54,206.79L535.97,206.79L536.4,206.79L536.82,206.79L537.25,206.79L537.67,206.79L538.1,206.79L538.53,206.79L538.95,206.79L539.38,206.79L539.8,206.79L540.23,206.79L540.66,206.79L541.08,206.79L541.51,206.79L541.93,206.81L542.36,206.81L542.79,206.81L543.21,206.81L543.64,206.81L544.06,206.92L544.49,206.97L544.92,206.96L545.34,206.96L545.77,206.96L546.19,206.96L546.62,206.96L547.05,209.68L547.47,212.6L547.9,213.97L548.32,213.97L548.75,214.59L549.18,214.9L549.6,214.91L550.03,214.91L550.45,214.91L550.88,214.91L551.31,214.91L551.73,214.91L552.16,214.91L552.58,214.91L553.01,214.91L553.44,214.91L553.86,214.91L554.29,214.91L554.71,214.91L555.14,214.91L555.57,214.92L555.99,214.92L556.42,214.92L556.84,214.92L557.27,214.92L557.7,214.92L558.12,214.92L558.55,214.92L558.98,214.92L559.4,214.92L559.83,214.92L560.25,214.92L560.68,212.39L561.11,212.39L561.53,212.39L561.96,212.39L562.38,212.39L562.81,212.39L563.24,212.39L563.66,212.39L564.09,212.39L564.51,212.39L564.94,212.44L565.37,212.44L565.79,212.44L566.22,212.44L566.64,212.44L567.07,212.44L567.5,212.44L567.92,212.44L568.35,212.44L568.77,212.44L569.2,212.44L569.63,212.44L570.05,212.44L570.48,212.44L570.9,212.44L571.33,212.44L571.76,212.44L572.18,212.44L572.61,212.44L573.03,212.44L573.46,212.45L573.89,212.45L574.31,212.45L574.74,212.45L575.16,212.45L575.59,212.45L576.02,212.45L576.44,212.45L576.87,212.45L577.29,212.47L577.72,213.11L578.15,214.16L578.57,215.05L579,215.05L579.42,215.05L579.85,215.05L580.28,215.05L580.7,215.05L581.13,215.05L581.55,215.05L581.98,216.45L582.41,216.55L582.83,216.56L583.26,216.56L583.68,216.56L584.11,216.56L584.54,216.57L584.96,217.43L585.39,217.92L585.81,219.16L586.24,220.15L586.67,220.17L587.09,220.17L587.52,220.17L587.94,220.17L588.37,220.17L588.8,220.17L589.22,220.17L589.65,220.17L590.07,220.17L590.5,220.17L590.93,220.17L591.35,220.17L591.78,220.17L592.2,220.17L592.63,220.17L593.06,220.17L593.48,220.17L593.91,220.17L594.33,220.17L594.76,220.17L595.19,220.17L595.61,220.17L596.04,220.17L596.46,220.17L596.89,220.17L597.32,220.18L597.74,220.18L598.17,220.18L598.6,220.18L599.02,220.18L599.45,220.18L599.87,220.18L600.3,220.18L600.73,220.18L601.15,220.18L601.58,220.18L602,220.18L602.43,220.18L602.86,220.18L603.28,220.18L603.71,220.18L604.13,220.18L604.56,220.18L604.99,220.18L605.41,220.18L605.84,220.18L606.26,220.18L606.69,220.18L607.12,220.18L607.54,220.18L607.97,220.18L608.39,220.18L608.82,220.18L609.25,220.18L609.67,220.18L610.1,220.18L610.52,220.18L610.95,220.18L611.38,220.18L611.8,220.18L612.23,220.18L612.65,220.18L613.08,220.18L613.51,220.18L613.93,220.18L614.36,220.18L614.78,220.18L615.21,220.19L615.64,220.19L616.06,220.19L616.49,220.19L616.91,220.19L617.34,220.19L617.77,220.19L618.19,220.19L618.62,220.19L619.04,220.19L619.47,220.19L619.9,220.19L620.32,220.19L620.75,220.19L621.17,220.19L621.6,220.19L622.03,220.19L622.45,220.19L622.88,220.19L623.3,220.19L623.73,220.19L624.16,220.19L624.58,220.19L625.01,220.19L625.43,220.19L625.86,220.19L626.29,220.19L626.71,220.62L627.14,221.05L627.56,221.06L627.99,221.06L628.42,221.79L628.84,221.89L629.27,221.89L629.69,221.89L630.12,221.89L630.55,221.89L630.97,221.89L631.4,221.89L631.82,222.21L632.25,222.81L632.68,223.43L633.1,223.85L633.53,224.06L633.95,224.16L634.38,224.34L634.81,224.34L635.23,224.34L635.66,224.34L636.09,224.34L636.51,224.34L636.94,224.34L637.36,224.36L637.79,224.36L638.22,224.36L638.64,224.36L639.07,224.36L639.49,224.36L639.92,224.36L640.35,224.36L640.77,224.36L641.2,224.36L641.62,224.37L642.05,224.39L642.48,224.41L642.9,224.43L643.33,224.43L643.75,224.43L644.18,224.43L644.61,224.43L645.03,224.43L645.46,224.43L645.88,224.82L646.31,227.7L646.74,228.51L647.16,228.51L647.59,228.55L648.01,228.58L648.44,228.61L648.87,228.63L649.29,228.66L649.72,230.53L650.14,230.76L650.57,230.76L651,230.76L651.42,230.76L651.85,230.76L652.27,230.76L652.7,231.46L653.13,233.35L653.55,235.16L653.98,237.01L654.4,238.15L654.83,238.17L655.26,238.17L655.68,238.17L656.11,238.17L656.53,238.17L656.96,238.17L657.39,238.17L657.81,238.17L658.24,238.17L658.66,238.18L659.09,238.18L659.52,238.18L659.94,238.18L660.37,238.18L660.79,238.18L661.22,238.18L661.65,238.22L662.07,238.25L662.5,238.28L662.92,238.29L663.35,238.29L663.78,238.29L664.2,238.29L664.63,238.29L665.05,238.56L665.48,240.69L665.91,242.18L666.33,242.37L666.76,242.38L667.18,242.38L667.61,242.38L668.04,242.39L668.46,242.4L668.89,242.4L669.31,242.4L669.74,242.5L670.17,242.5L670.59,242.5L671.02,242.5L671.44,242.5L671.87,242.5L672.3,242.5L672.72,242.5L673.15,242.5L673.57,244.09L674,244.41L674.43,244.41L674.85,244.41L675.28,244.42L675.71,244.42L676.13,244.42L676.56,244.42L676.98,244.42L677.41,244.42L677.84,245.27L678.26,245.48L678.69,245.48L679.11,245.48L679.54,245.48L679.97,245.48L680.39,245.49L680.82,245.49L681.24,245.49L681.67,245.49L682.1,245.49L682.52,245.49L682.95,245.49L683.37,245.49L683.8,245.49L684.23,245.49L684.65,245.49L685.08,245.49L685.5,245.49L685.93,245.49L686.36,245.49L686.78,245.5L687.21,245.5L687.63,245.5L688.06,245.5L688.49,245.5L688.91,245.5L689.34,245.5L689.76,245.5L690.19,245.5L690.62,245.5L691.04,245.5L691.47,245.5L691.89,245.5L692.32,245.5L692.75,245.5L693.17,245.5L693.6,245.5L694.02,245.5L694.45,245.5L694.88,245.5L695.3,245.5L695.73,245.5L696.15,245.5L696.58,245.5L697.01,245.5L697.43,245.5L697.86,245.5L698.28,245.5L698.71,245.5L699.14,245.5L699.56,245.5L699.99,245.5L700.41,245.5L700.84,245.5L701.27,245.5L701.69,245.5L702.12,245.5L702.54,245.5L702.97,246.32L703.4,247.06L703.82,247.06L704.25,247.06L704.67,247.06L705.1,247.07L705.53,247.07L705.95,247.07L706.38,247.07L706.8,247.07L707.23,247.07L707.66,247.07L708.08,247.07L708.51,247.07L708.93,247.07L709.36,247.07L709.79,247.08L710.21,247.08L710.64,247.2L711.06,247.2L711.49,247.2L711.92,247.2L712.34,247.2L712.77,247.2L713.2,247.2L713.62,247.2L714.05,247.2L714.47,247.2L714.9,247.2L715.33,247.2L715.75,247.2L716.18,247.21L716.6,247.21L717.03,247.21L717.46,247.21L717.88,247.37L718.31,247.37L718.73,247.37L719.16,247.38L719.59,247.38L720.01,247.39L720.44,247.39L720.86,247.39L721.29,247.39L721.72,247.39L722.14,247.39L722.57,247.39L722.99,247.39L723.42,247.39L723.85,247.39L724.27,247.39L724.7,247.39L725.12,247.39L725.55,247.39L725.98,247.39L726.4,247.39L726.83,247.42L727.25,247.44L727.68,247.46L728.11,247.46L728.53,247.46L728.96,247.46L729.38,247.46L729.81,247.46L730.24,247.46L730.66,247.46L731.09,247.46L731.51,248.22L731.94,248.36L732.37,248.36L732.79,248.36L733.22,248.36L733.64,248.36L734.07,248.61L734.5,251.49L734.92,254.21L735.35,254.98L735.77,254.98L736.2,255.01L736.63,255.03L737.05,255.03L737.48,255.03L737.9,255.03L738.33,255.03L738.76,255.03L739.18,255.03L739.61,255.03L740.03,255.03L740.46,255.03L740.89,255.8L741.31,256.11L741.74,256.11L742.16,256.11L742.59,256.11L743.02,256.11L743.44,256.11L743.87,256.11L744.29,258.46L744.72,259.7L745.15,260.16L745.57,260.16L746,260.16L746.42,260.16L746.85,260.16L747.28,260.16L747.7,260.16L748.13,260.16L748.55,260.16L748.98,260.17L749.41,260.17L749.83,260.17L750.26,260.17L750.68,260.25L751.11,260.27L751.54,260.29L751.96,260.32L752.39,260.29L752.82,260.29L753.24,260.29L753.67,260.29L754.09,260.29L754.52,260.29L754.95,260.29L755.37,260.59L755.8,262.39L756.22,264.2L756.65,266.04L757.08,267.53L757.5,269.23L757.93,269.77L758.35,269.78L758.78,269.78L759.21,269.78L759.63,269.78L760.06,269.78L760.48,269.78L760.91,269.78L761.34,269.78L761.76,269.78L762.19,269.78L762.61,269.78L763.04,269.78L763.47,269.78L763.89,269.78L764.32,269.78L764.74,269.9L765.17,269.9L765.6,269.9L766.02,269.9L766.45,269.9L766.87,269.9L767.3,269.91L767.73,269.91L768.15,269.91L768.58,269.91L769,269.91L769.43,269.91L769.86,269.91L770.28,269.91L770.71,269.91L771.13,269.91L771.56,269.91L771.99,269.91L772.41,269.92L772.84,269.92L773.26,269.92L773.69,269.92L774.12,269.92L774.54,269.92L774.97,269.92L775.39,269.92L775.82,269.92L776.25,269.92L776.67,269.92L777.1,269.92L777.52,269.92L777.95,269.92L778.38,269.92L778.8,269.92L779.23,269.92L779.65,269.92L780.08,269.93L780.51,269.93L780.93,269.93L781.36,269.93L781.78,269.93L782.21,269.93L782.64,269.93L783.06,269.93L783.49,269.93L783.91,269.93L784.34,269.93L784.77,269.93L785.19,269.93L785.62,269.93L786.04,269.93L786.47,269.93L786.9,269.93L787.32,269.93L787.75,269.93L788.17,269.93L788.6,269.93L789.03,269.93L789.45,269.93L789.88,269.93L790.31,269.93L790.73,269.93L791.16,269.93L791.58,269.93L792.01,269.93L792.44,269.93L792.86,269.93L793.29,269.93L793.71,269.93L794.14,269.93L794.57,269.93L794.99,269.93L795.42,269.93L795.84,269.93L796.27,269.93L796.7,269.93L797.12,269.93L797.55,269.93L797.97,269.93L798.4,269.93L798.83,269.93L799.25,269.93L799.68,269.93L800.1,269.93L800.53,269.93L800.96,269.93L801.38,269.93L801.81,269.93L802.23,269.95L802.66,270.01L803.09,270.01L803.51,269.98L803.94,269.98L804.36,269.98L804.79,269.98L805.22,269.98L805.64,269.98L806.07,269.98L806.49,269.98L806.92,271.25L807.35,273.96L807.77,275.39L808.2,276.28L808.62,276.28L809.05,276.28L809.48,276.28L809.9,276.28L810.33,276.28L810.75,276.28L811.18,276.28L811.61,276.28L812.03,276.28L812.46,276.28L812.88,276.28L813.31,276.28L813.74,276.28L814.16,276.28L814.59,276.28L815.01,276.28L815.44,276.28L815.87,276.28L816.29,276.28L816.72,276.28L817.14,276.28L817.57,276.28L818,276.28L818.42,276.28L818.85,276.28L819.27,276.28L819.7,276.28L820.13,276.28L820.55,276.28L820.98,276.28L821.4,276.28L821.83,276.28L822.26,276.28L822.68,276.28L823.11,276.28L823.53,276.28L823.96,276.28L824.39,276.28L824.81,276.28L825.24,276.28L825.66,276.28L826.09,276.28L826.52,276.28L826.94,276.28L827.37,276.28L827.79,276.3L828.22,276.31L828.65,276.31L829.07,276.31L829.5,276.32L829.93,276.32L830.35,276.32L830.78,276.32L831.2,276.32L831.63,276.32L832.06,276.32L832.48,276.32L832.91,276.32L833.33,276.32L833.76,276.32L834.19,276.32L834.61,276.32L835.04,276.33L835.46,277.34L835.89,280.44L836.32,283.42L836.74,284.45L837.17,284.53L837.59,284.53L838.02,284.53L838.45,284.53L838.87,284.53L839.3,284.53L839.72,284.53L840.15,284.53L840.58,286.09L841,287.99L841.43,289.85L841.85,291.74L842.28,293.72L842.71,294.21L843.13,294.23L843.56,294.24L843.98,294.24L844.41,294.24L844.84,294.24L845.26,294.25L845.69,294.25L846.11,294.26L846.54,294.27L846.97,294.27L847.39,294.27L847.82,294.28L848.24,294.28L848.67,294.28L849.1,294.28L849.52,294.28L849.95,294.28L850.37,294.28L850.8,294.28L851.23,294.28L851.65,294.28L852.08,294.29L852.5,294.29L852.93,294.29L853.36,294.29L853.78,294.29L854.21,294.29L854.63,294.29L855.06,294.29L855.49,294.29L855.91,294.29L856.34,294.29L856.76,294.29L857.19,294.29L857.62,294.29L858.04,294.29L858.47,294.29L858.89,294.29L859.32,294.29L859.75,294.29L860.17,294.29L860.6,294.29L861.02,294.29L861.45,294.29L861.88,294.29L862.3,294.29L862.73,294.29L863.15,294.29L863.58,294.29L864.01,294.29L864.43,294.29L864.86,294.29L865.28,294.29L865.71,294.29L866.14,294.3L866.56,294.3L866.99,294.3L867.41,294.3L867.84,294.3L868.27,294.3L868.69,294.3L869.12,294.3L869.55,294.3L869.97,294.3L870.4,294.3L870.82,294.3L871.25,294.3L871.68,294.3L872.1,294.3L872.53,294.3L872.95,294.3L873.38,294.3L873.81,294.3L874.23,294.3L874.66,294.3L875.08,294.3L875.51,294.3L875.94,294.3L876.36,294.3L876.79,294.3L877.21,294.3L877.64,294.3L878.07,294.3L878.49,294.3L878.92,294.3L879.34,294.3L879.77,294.3L880.2,294.3L880.62,294.3L881.05,294.3L881.47,294.3L881.9,294.3L882.33,294.3L882.75,294.3L883.18,294.3L883.6,294.3L884.03,294.3L884.46,294.3L884.88,294.3L885.31,294.3L885.73,294.3L886.16,294.3L886.59,294.32L887.01,294.4L887.44,294.42L887.86,294.44L888.29,294.42L888.72,294.42L889.14,294.42L889.57,294.42L889.99,294.42L890.42,294.42L890.85,294.42L891.27,294.42L891.7,294.42L892.12,294.42L892.55,294.42L892.98,294.42L893.4,294.42L893.83,294.42L894.25,294.43L894.68,294.43L895.11,294.43L895.53,294.43L895.96,294.43L896.38,295.99L896.81,299L897.24,301.62L897.66,302.87L898.09,302.91L898.51,302.93L898.94,302.95L899.37,302.96L899.79,302.99L900.22,303L900.64,303L901.07,303L901.5,303L901.92,303L902.35,303L902.77,303L903.2,303L903.63,305.28L904.05,308.05L904.48,310.62L904.9,313.26L905.33,314.61L905.76,314.84L906.18,314.84L906.61,314.84L907.04,314.84L907.46,314.84L907.89,314.84L908.31,314.84L908.74,314.84L909.17,314.85L909.59,314.86L910.02,314.86L910.44,314.87L910.87,314.87L911.3,314.88L911.72,314.88L912.15,314.88L912.57,314.91L913,314.92L913.43,314.92L913.85,314.92L914.28,314.93L914.7,314.93L915.13,314.93L915.56,314.93L915.98,314.93L916.41,314.93L916.83,314.93L917.26,314.93L917.69,314.93L918.11,314.94L918.54,314.95L918.96,315.31L919.39,317.16L919.82,317.57L920.24,317.61L920.67,317.62L921.09,317.62L921.52,317.62L921.95,317.62L922.37,317.62L922.8,317.62L923.22,317.62L923.65,317.62L924.08,317.62L924.5,317.62L924.93,317.62L925.35,317.62L925.78,317.62L926.21,317.62L926.63,317.62L927.06,317.62L927.48,317.62L927.91,317.62L928.34,317.62L928.76,317.62L929.19,317.63L929.61,317.63L930.04,317.63L930.47,317.63L930.89,317.63L931.32,317.63L931.74,317.63L932.17,317.63L932.6,317.63L933.02,317.63L933.45,317.63L933.87,317.63L934.3,317.63L934.73,317.63L935.15,317.63L935.58,317.63L936,317.63L936.43,317.63L936.86,317.63L937.28,317.63L937.71,317.63L938.13,317.63L938.56,317.63L938.99,317.63L939.41,317.63L939.84,317.63L940.26,317.63L940.69,317.63L941.12,317.63L941.54,317.63L941.97,317.63L942.39,317.63L942.82,317.63L943.25,317.63L943.67,317.63L944.1,317.63L944.52,317.63L944.95,317.63L945.38,317.63L945.8,317.63L946.23,317.63L946.66,317.63L947.08,317.63L947.51,317.63L947.93,317.63L948.36,317.63L948.79,317.63L949.21,317.63L949.64,317.63L950.06,317.63L950.49,317.63L950.92,317.63L951.34,317.63L951.77,317.63L952.19,317.63L952.62,317.63L953.05,317.63L953.47,317.63L953.9,317.63L954.32,317.63L954.75,317.63L955.18,317.63L955.6,317.63L956.03,317.63L956.45,317.63L956.88,317.63L957.31,317.63L957.73,317.66L958.16,317.68L958.58,317.69L959.01,317.72L959.44,317.72L959.86,317.72L960.29,317.72L960.71,317.72L961.14,317.72L961.57,317.72L961.99,317.72L962.42,317.72L962.84,320.45L963.27,323.49L963.7,324.55L964.12,325.06L964.55,325.06L964.97,325.06L965.4,325.06L965.83,325.06L966.25,325.06L966.68,325.06L967.1,325.06L967.53,325.06L967.96,325.06L968.38,325.06L968.81,325.07L969.23,325.08L969.66,325.09L970.09,325.88L970.51,328.11L970.94,329.33L971.36,329.33L971.79,329.33L972.22,329.33L972.64,329.33L973.07,329.35L973.49,329.35L973.92,329.35L974.35,329.35L974.77,329.35L975.2,329.35L975.62,329.35L976.05,329.35L976.48,329.35L976.9,329.35L977.33,329.35L977.75,329.35L978.18,329.35L978.61,329.35L979.03,329.35L979.46,329.35L979.88,329.35L980.31,329.35L980.74,329.37L981.16,329.37L981.59,329.37L982.01,329.37L982.44,329.37L982.87,329.37L983.29,329.37L983.72,329.37L984.15,329.37L984.57,329.37L985,329.37L985.42,329.37L985.85,329.37L986.28,329.37L986.7,329.37L987.13,329.37L987.55,329.37L987.98,329.37L988.41,329.37L988.83,329.37L989.26,329.37L989.68,329.37L990.11,329.37L990.54,329.37L990.96,329.37L991.39,329.37L991.81,329.39L992.24,329.41L992.67,329.41L993.09,329.41L993.52,329.41L993.94,329.41L994.37,329.41L994.8,329.41L995.22,329.41L995.65,329.41L996.07,329.41L996.5,329.41L996.93,329.41L997.35,329.41L997.78,329.41L998.2,329.41L998.63,329.41L999.06,329.42L999.48,329.55L999.91,329.71L1000.3,331.18L1000.8,332.04L1001.2,332.13L1001.6,332.13L1002,332.13L1002.5,332.13L1002.9,332.13L1003.3,332.13L1003.7,332.13L1004.2,332.13L1004.6,332.13L1005,332.13L1005.4,332.13L1005.9,332.13L1006.3,332.14L1006.7,332.14L1007.2,333.04L1007.6,334.03L1008,334.06L1008.4,334.06L1008.9,334.06L1009.3,334.06L1009.7,334.06L1010.1,334.06L1010.6,334.06L1011,334.06L1011.4,334.06L1011.8,334.07L1012.3,334.08L1012.7,334.08L1013.1,334.08L1013.5,334.08L1014,334.08L1014.4,334.08L1014.8,334.3L1015.2,335.66L1015.7,336.27L1016.1,336.37L1016.5,336.37L1016.9,336.38L1017.4,336.38L1017.8,336.38L1018.2,336.38L1018.7,336.39L1019.1,336.39L1019.5,336.39L1019.9,336.39L1020.4,336.39L1020.8,336.39L1021.2,336.39L1021.6,336.39L1022.1,336.39L1022.5,336.39L1022.9,336.39L1023.3,336.39L1023.8,336.39L1024.2,336.39L1024.6,336.39L1025,336.4L1025.5,336.4L1025.9,336.4L1026.3,336.4L1026.7,336.4L1027.2,336.4L1027.6,336.41L1028,336.41L1028.5,336.41L1028.9,336.41L1029.3,336.41L1029.7,336.41L1030.2,336.41L1030.6,336.42L1031,336.42L1031.4,336.42L1031.9,336.42L1032.3,336.42L1032.7,336.42L1033.1,336.42L1033.6,336.42L1034,336.42L1034.4,336.42L1034.8,336.42L1035.3,336.42L1035.7,336.42L1036.1,336.42L1036.5,336.42L1037,336.42L1037.4,336.42L1037.8,336.42L1038.2,336.42L1038.7,336.42L1039.1,336.42L1039.5,336.42L1040,336.42L1040.4,336.42L1040.8,336.42L1041.2,336.42L1041.7,336.42L1042.1,336.42L1042.5,336.42L1042.9,336.42L1043.4,336.42L1043.8,336.42L1044.2,336.42L1044.6,336.42L1045.1,336.42L1045.5,336.42L1045.9,336.42L1046.3,336.42L1046.8,336.42L1047.2,336.42L1047.6,336.42L1048,336.42L1048.5,336.42L1048.9,336.42L1049.3,336.42L1049.8,336.42L1050.2,336.42L1050.6,336.42L1051,336.42L1051.5,336.42L1051.9,336.42L1052.3,336.42L1052.7,336.42L1053.2,336.42L1053.6,336.42L1054,336.42L1054.4,336.42L1054.9,337.07L1055.3,338.03L1055.7,338.47L1056.1,338.47L1056.6,338.47L1057,338.48L1057.4,338.48L1057.8,338.48L1058.3,338.48L1058.7,338.48L1059.1,338.48L1059.6,338.48L1060,338.48L1060.4,338.48L1060.8,338.48L1061.3,338.48L1061.7,338.48L1062.1,338.48L1062.5,338.48L1063,338.48L1063.4,338.48L1063.8,338.48L1064.2,338.49L1064.7,338.53L1065.1,338.56L1065.5,338.6L1065.9,338.63L1066.4,338.64L1066.8,338.64L1067.2,338.64L1067.6,338.64L1068.1,338.64L1068.5,338.64L1068.9,338.64L1069.3,338.64L1069.8,338.64L1070.2,338.64L1070.6,338.64L1071.1,338.64L1071.5,340.15L1071.9,341.04L1072.3,341.66L1072.8,341.66L1073.2,341.66L1073.6,341.66L1074,341.66L1074.5,341.66L1074.9,341.66L1075.3,341.66L1075.7,341.66L1076.2,341.67L1076.6,341.67L1077,341.67L1077.4,341.67L1077.9,341.67L1078.3,341.67L1078.7,341.67L1079.1,341.67L1079.6,341.67L1080,341.67" style="fill:none;stroke:#F15A60;stroke-width:1.875" />
<path d="M84.812,50.184L85.239,50.826L85.665,51.105L86.091,51.385L86.517,51.712L86.943,51.866L87.369,52.223L87.795,52.421L88.221,52.769L88.647,53.047L89.073,53.313L89.499,53.623L89.925,53.759L90.351,54.037L90.777,54.319L91.203,54.543L91.629,54.775L92.055,55.043L92.481,55.361L92.907,55.529L93.333,55.716L93.759,55.977L94.185,56.299L94.611,56.556L95.037,56.835L95.463,57.081L95.889,57.241L96.315,57.419L96.741,57.775L97.167,58.005L97.593,58.207L98.019,58.515L98.445,58.821L98.871,59.037L99.297,59.293L99.723,59.516L100.15,59.649L100.58,59.918L101,60.175L101.43,60.497L101.85,60.725L102.28,60.815L102.71,61.094L103.13,61.396L103.56,61.707L103.98,61.902L104.41,62.169L104.84,62.347L105.26,62.588L105.69,62.769L106.11,63.012L106.54,63.489L106.97,63.707L107.39,63.863L107.82,64.083L108.24,64.291L108.67,64.538L109.1,64.746L109.52,65.059L109.95,65.183L110.37,65.533L110.8,65.684L111.23,65.818L111.65,66.224L112.08,66.41L112.5,66.555L112.93,67.017L113.36,67.24L113.78,67.466L114.21,67.553L114.63,68.115L115.06,68.355L115.49,68.547L115.91,68.689L116.34,68.924L116.76,69.129L117.19,69.435L117.62,69.636L118.04,69.926L118.47,70.218L118.89,70.646L119.32,70.889L119.75,71.055L120.17,71.372L120.6,71.509L121.02,71.661L121.45,71.986L121.88,72.356L122.3,72.562L122.73,72.728L123.15,72.967L123.58,73.207L124.01,73.483L124.43,73.796L124.86,73.967L125.28,74.233L125.71,74.369L126.14,74.699L126.56,74.842L126.99,75.1L127.41,75.294L127.84,75.691L128.27,75.888L128.69,76.203L129.12,76.378L129.54,76.643L129.97,76.936L130.4,77.183L130.82,77.514L131.25,77.601L131.67,77.848L132.1,78.001L132.53,78.13L132.95,78.375L133.38,78.741L133.81,78.992L134.23,79.17L134.66,79.356L135.08,79.492L135.51,79.919L135.94,80.045L136.36,80.129L136.79,80.376L137.21,80.633L137.64,81.043L138.07,81.362L138.49,81.519L138.92,81.716L139.34,81.951L139.77,82.123L140.2,82.217L140.62,82.429L141.05,82.787L141.47,82.97L141.9,83.26L142.33,83.615L142.75,83.811L143.18,83.932L143.6,84.08L144.03,84.371L144.46,84.609L144.88,84.749L145.31,84.896L145.73,85.304L146.16,85.547L146.59,85.772L147.01,85.866L147.44,85.906L147.86,86.306L148.29,86.688L148.72,86.936L149.14,87.079L149.57,87.356L149.99,87.477L150.42,87.723L150.85,87.983L151.27,88.253L151.7,88.506L152.12,88.604L152.55,88.817L152.98,89.043L153.4,89.25L153.83,89.628L154.25,89.787L154.68,89.983L155.11,90.115L155.53,90.533L155.96,90.726L156.38,90.887L156.81,91.091L157.24,91.304L157.66,91.629L158.09,91.921L158.51,92.147L158.94,92.23L159.37,92.472L159.79,92.675L160.22,93.043L160.64,93.198L161.07,93.42L161.5,93.509L161.92,93.785L162.35,93.875L162.77,94.085L163.2,94.284L163.63,94.633L164.05,94.835L164.48,95.178L164.9,95.402L165.33,95.594L165.76,95.838L166.18,96.002L166.61,96.316L167.03,96.499L167.46,96.679L167.89,96.929L168.31,97.158L168.74,97.341L169.16,97.66L169.59,97.713L170.02,97.988L170.44,98.179L170.87,98.489L171.29,98.745L171.72,98.812L172.15,99.058L172.57,99.18L173,99.532L173.43,99.681L173.85,100.03L174.28,100.34L174.7,100.54L175.13,100.67L175.56,101.03L175.98,101.1L176.41,101.31L176.83,101.61L177.26,101.81L177.69,102.22L178.11,102.28L178.54,102.52L178.96,102.69L179.39,102.85L179.82,103.16L180.24,103.45L180.67,103.8L181.09,103.97L181.52,104.07L181.95,104.34L182.37,104.52L182.8,104.58L183.22,104.97L183.65,105.16L184.08,105.4L184.5,105.54L184.93,105.87L185.35,106.06L185.78,106.3L186.21,106.55L186.63,106.64L187.06,106.79L187.48,107L187.91,107.32L188.34,107.76L188.76,107.87L189.19,107.96L189.61,108.3L190.04,108.43L190.47,108.65L190.89,108.94L191.32,109.03L191.74,109.41L192.17,109.64L192.6,109.69L193.02,110.09L193.45,110.3L193.87,110.45L194.3,110.66L194.73,110.89L195.15,111.16L195.58,111.34L196,111.62L196.43,111.99L196.86,112.04L197.28,112.12L197.71,112.41L198.13,112.44L198.56,112.62L198.99,112.97L199.41,112.97L199.84,113.29L200.26,113.75L200.69,113.91L201.12,114.16L201.54,114.5L201.97,114.78L202.39,114.98L202.82,115.16L203.25,115.37L203.67,115.53L204.1,115.78L204.52,115.98L204.95,116.26L205.38,116.43L205.8,116.58L206.23,116.8L206.65,117.06L207.08,117.27L207.51,117.48L207.93,117.79L208.36,117.87L208.78,118.15L209.21,118.42L209.64,118.53L210.06,118.54L210.49,118.73L210.92,119.29L211.34,119.36L211.77,119.57L212.19,119.87L212.62,120.02L213.05,120.11L213.47,120.42L213.9,120.64L214.32,120.8L214.75,120.97L215.18,121.26L215.6,121.58L216.03,121.66L216.45,121.89L216.88,122.03L217.31,122.25L217.73,122.42L218.16,122.47L218.58,122.69L219.01,123.08L219.44,123.45L219.86,123.69L220.29,123.88L220.71,124.19L221.14,124.33L221.57,124.47L221.99,124.65" style="fill:none;stroke:#7AC36A;stroke-width:1.875;stroke-dasharray:7.5,2.5" />
<path d="M84.812,47.731L85.239,50.511L85.665,52.953L86.091,57.461L86.517,62.302L86.943,67.395L87.369,72.346L87.795,75.704L88.221,86.164L88.647,90.447L89.073,93.273L89.499,96.076L89.925,101.3L90.351,109.1L90.777,109.1L91.203,113.93L91.629,113.93L92.055,113.93L92.481,113.93L92.907,113.94L93.333,113.94L93.759,113.94L94.185,113.94L94.611,113.94L95.037,113.94L95.463,113.95L95.889,116.6L96.315,128.03L96.741,128.03L97.167,128.03L97.593,128.03L98.019,128.03L98.445,128.03L98.871,128.03L99.297,128.03L99.723,128.03L100.15,128.03L100.58,128.03L101,128.03L101.43,128.03L101.85,128.03L102.28,128.03L102.71,128.03L103.13,128.03L103.56,128.03L103.98,128.03L104.41,128.03L104.84,128.03L105.26,128.03L105.69,128.03L106.11,128.03L106.54,128.03L106.97,128.03L107.39,128.03L107.82,128.03L108.24,128.03L108.67,128.03L109.1,128.03L109.52,128.03L109.95,128.03L110.37,128.03L110.8,128.04L111.23,133.16L111.65,145.56L112.08,145.78L112.5,154.68L112.93,156.97L113.36,169.12L113.78,176.63L114.21,180.87L114.63,181.9L115.06,187.24L115.49,188.38L115.91,200.86L116.34,207.61L116.76,216.41L117.19,216.41L117.62,225.6L118.04,230.78L118.47,230.78L118.89,230.86L119.32,233.6L119.75,235.61L120.17,235.86L120.6,235.86L121.02,235.86L121.45,235.86L121.88,235.86L122.3,235.86L122.73,235.86L123.15,235.86L123.58,235.86L124.01,235.86L124.43,235.86L124.86,242.42L125.28,242.42L125.71,242.42L126.14,242.42L126.56,242.42L126.99,242.42L127.41,242.42L127.84,242.42L128.27,243.66L128.69,264.64L129.12,264.64L129.54,264.64L129.97,264.64L130.4,264.64L130.82,264.64L131.25,264.64L131.67,264.64L132.1,264.65L132.53,264.65L132.95,264.65L133.38,264.65L133.81,264.65L134.23,264.65L134.66,264.65L135.08,264.65L135.51,264.65L135.94,264.65L136.36,264.65L136.79,264.65L137.21,264.73L137.64,264.74L138.07,269.63L138.49,274.48L138.92,301.21L139.34,303.65L139.77,316.68L140.2,319.77L140.62,319.77L141.05,319.77L141.47,321.37L141.9,325.38L142.33,325.38L142.75,325.49L143.18,325.49L143.6,325.49L144.03,325.49L144.46,325.53L144.88,325.53L145.31,325.54L145.73,337.16L146.16,337.16L146.59,340.49L147.01,347.74L147.44,347.75L147.86,347.79L148.29,347.79L148.72,363.81L149.14,365.75L149.57,374.03L149.99,374.03L150.42,374.03L150.85,374.03L151.27,374.03L151.7,374.03L152.12,374.03L152.55,374.03L152.98,374.03L153.4,375.37L153.83,375.37L154.25,376.91L154.68,376.91L155.11,376.91L155.53,378.25L155.96,378.25L156.38,378.25L156.81,378.25L157.24,379.2L157.66,379.2L158.09,379.2L158.51,379.2L158.94,379.2L159.37,379.2L159.79,379.2L160.22,379.2L160.64,379.2L161.07,379.2L161.5,379.2L161.92,379.2L162.35,379.2L162.77,379.21L163.2,379.21L163.63,379.21L164.05,379.21L164.48,379.21L164.9,379.21L165.33,379.22L165.76,379.28L166.18,379.28L166.61,381.16L167.03,399.42L167.46,408.74L167.89,410.09L168.31,410.09L168.74,410.09L169.16,410.14L169.59,410.14L170.02,410.16L170.44,410.17L170.87,410.17L171.29,410.81L171.72,410.88L172.15,410.9L172.57,410.9L173,411.08L173.43,411.08L173.85,411.11L174.28,415.94L174.7,425.73L175.13,428.35L175.56,428.37L175.98,428.37L176.41,439.02L176.83,439.02L177.26,439.07L177.69,439.07L178.11,439.07L178.54,439.07L178.96,439.07L179.39,439.07L179.82,440.8L180.24,447.71L180.67,458.28L181.09,479.46L181.52,492.64L181.95,513.79L182.37,534.93L182.8,534.93L183.22,534.93L183.65,534.93L184.08,534.93L184.5,534.93L184.93,534.93L185.35,534.93L185.78,534.93L186.21,534.93L186.63,534.93L187.06,534.93L187.48,534.93L187.91,534.94L188.34,534.95L188.76,535.02L189.19,535.1L189.61,535.1L190.04,535.1L190.47,535.14L190.89,535.16L191.32,535.2L191.74,535.19L192.17,535.19L192.6,535.19L193.02,535.19L193.45,536.76L193.87,536.78L194.3,541.31L194.73,541.95L195.15,542.27L195.58,542.28L196,542.46L196.43,543.8L196.86,547.05L197.28,552.98L197.71,570.49L198.13,574.18L198.56,574.19L198.99,574.19L199.41,574.19L199.84,577.54L200.26,582.07L200.69,582.07L201.12,582.14L201.54,582.26L201.97,582.26L202.39,582.49L202.82,582.49L203.25,582.49L203.67,582.49L204.1,583.18L204.52,604.32L204.95,604.33L205.38,613.88L205.8,617.79L206.23,617.79L206.65,617.79L207.08,617.79L207.51,617.79L207.93,617.79L208.36,617.79L208.78,617.79L209.21,617.79L209.64,617.79L210.06,617.79L210.49,617.79L210.92,617.79L211.34,617.79L211.77,617.79L212.19,617.79L212.62,617.79L213.05,617.79L213.47,617.79L213.9,617.79L214.32,617.79L214.75,617.79L215.18,617.86L215.6,617.86L216.03,617.86L216.45,617.86L216.88,617.86L217.31,617.86L217.73,617.86L218.16,617.86L218.58,617.86L219.01,617.87L219.44,617.89L219.86,617.89L220.29,617.89L220.71,617.89L221.14,617.89L221.57,631.01L221.99,641.31L222.42,642.8L222.84,642.8L223.27,642.8L223.7,655.11L224.12,656.99L224.55,658.2L224.97,665.33L225.4,674L225.83,674L226.25,682.4L226.68,684.58L227.1,687.23L227.53,688.76L227.96,689.17L228.38,689.17L228.81,689.17L229.23,689.17L229.66,692.15L230.09,694.82L230.51,694.82L230.94,695.89L231.36,701.44" style="fill:none;stroke:#5A9BD4;stroke-width:1.875;stroke-dasharray:2.5,2.5" />
<path d="M84.812,50.008L85.239,54L85.665,55.853L86.091,60.104L86.517,64.067L86.943,69.925L87.369,74.874L87.795,80.159L88.221,85.414L88.647,90.305L89.073,93.773L89.499,93.773L89.925,96.017L90.351,108.28L90.777,108.55L91.203,112.62L91.629,115.98L92.055,119.19L92.481,119.19L92.907,121.09L93.333,121.31L93.759,128L94.185,136.22L94.611,136.65L95.037,137.04L95.463,137.04L95.889,137.04L96.315,140.68L96.741,140.68L97.167,140.68L97.593,142.83L98.019,142.85L98.445,143.27L98.871,143.73L99.297,143.73L99.723,143.73L100.15,146.02L100.58,148.3L101,148.5L101.43,148.5L101.85,148.51L102.28,150.17L102.71,150.55L103.13,150.55L103.56,150.55L103.98,153.37L104.41,153.39L104.84,153.39L105.26,158.76L105.69,160.8L106.11,160.84L106.54,160.45L106.97,160.45L107.39,160.45L107.82,160.45L108.24,160.45L108.67,160.45L109.1,160.45L109.52,160.45L109.95,160.45L110.37,160.45L110.8,160.84L111.23,162.52L111.65,162.52L112.08,164.06L112.5,165.23L112.93,166.35L113.36,166.35L113.78,166.35L114.21,170.23L114.63,170.25L115.06,170.25L115.49,170.25L115.91,170.25L116.34,170.25L116.76,170.25L117.19,170.25L117.62,170.25L118.04,170.23L118.47,170.18L118.89,170.18L119.32,170.2L119.75,170.16L120.17,170.16L120.6,171.63L121.02,173.37L121.45,174.67L121.88,174.67L122.3,174.67L122.73,176.55L123.15,179.8L123.58,183L124.01,183L124.43,184.11L124.86,184.18L125.28,185.44L125.71,185.45L126.14,185.69L126.56,185.43L126.99,185.43L127.41,185.37L127.84,184.98L128.27,184.98L128.69,185.03L129.12,185.04L129.54,185.04L129.97,185.04L130.4,185.04L130.82,184.4L131.25,184.42L131.67,185.24L132.1,186.79L132.53,187.73L132.95,189.05L133.38,189.73L133.81,190.72L134.23,192.15L134.66,193.12L135.08,195.12L135.51,195.47L135.94,198.81L136.36,198.85L136.79,200.95L137.21,201.2L137.64,201.64L138.07,201.99L138.49,202.82L138.92,202.81L139.34,203.62L139.77,203.72L140.2,203.77L140.62,204.39L141.05,204.75L141.47,204.96L141.9,205.28L142.33,205.32L142.75,205.28L143.18,205.34L143.6,204.81L144.03,204.38L144.46,204.74L144.88,205.03L145.31,205.09L145.73,205.83L146.16,205.83L146.59,206.51L147.01,206.49L147.44,207.08L147.86,207.1L148.29,207.83L148.72,207.91L149.14,208.65L149.57,208.69L149.99,208.71L150.42,208.71L150.85,209.86L151.27,209.86L151.7,210.23L152.12,210.26L152.55,210.26L152.98,210.44L153.4,210.69L153.83,211.09L154.25,212.6L154.68,213.06L155.11,213.7L155.53,214.49L155.96,215.43L156.38,216.38L156.81,217.5L157.24,218.66L157.66,222.32L158.09,222.68L158.51,224.5L158.94,224.5L159.37,227L159.79,227L160.22,229.73L160.64,229.73L161.07,229.95L161.5,230.59L161.92,231.14L162.35,231.57" style="fill:none;stroke:#FAA75B;stroke-width:1.875;stroke-dasharray:1.25,1.25" />
<path d="M1055,694.3L1080,694.3" style="fill:none;stroke:#5A9BD4;stroke-width:1.875;stroke-dasharray:2.5,2.5" />
<text x="1014.1" y="-687.85" transform="scale(1, -1)"
	style="font-family:Helvetica;font-weight:normal;font-style:normal;font-size:12pt">etcd2</text>
<path d="M1055,680L1080,680" style="fill:none;stroke:#FAA75B;stroke-width:1.875;stroke-dasharray:1.25,1.25" />
<text x="1035.8" y="-673.56" transform="scale(1, -1)"
	style="font-family:Helvetica;font-weight:normal;font-style:normal;font-size:12pt">zk</text>
<path d="M1055,665.71L1080,665.71" style="fill:none;stroke:#F15A60;stroke-width:1.875" />
<text x="1007.5" y="-659.26" transform="scale(1, -1)"
	style="font-family:Helvetica;font-weight:normal;font-style:normal;font-size:12pt">consul</text>
<path d="M1055,651.41L1080,651.41" style="fill:none;stroke:#7AC36A;stroke-width:1.875;stroke-dasharray:7.5,2.5" />
<text x="1014.1" y="-644.97" transform="scale(1, -1)"
	style="font-family:Helvetica;font-weight:normal;font-style:normal;font-size:12pt">etcd3</text>
</g>
</svg>
