<?xml version="1.0"?>
<!-- Generated by SVGo and Plotinum VG -->
<svg width="12in" height="8in"
	xmlns="http://www.w3.org/2000/svg"
	xmlns:xlink="http://www.w3.org/1999/xlink">
<g transform="scale(1, -1) translate(0, -720)">
<path d="M0,0L1080,0L1080,720L0,720Z" style="fill:#FFFFFF" />
<text x="269.06" y="-706.41" transform="scale(1, -1)"
	style="font-family:Helvetica;font-weight:normal;font-style:normal;font-size:12pt">Read single key 1M times, 1 client, key 64 bytes, value 1 kb, Latency(millisecond)</text>
<text x="546.37" y="-4.965" transform="scale(1, -1)"
	style="font-family:Helvetica;font-weight:normal;font-style:normal;font-size:12pt">Second</text>
<text x="60.137" y="-19.142" transform="scale(1, -1)"
	style="font-family:Helvetica;font-weight:normal;font-style:normal;font-size:10pt">0</text>
<text x="292.34" y="-19.142" transform="scale(1, -1)"
	style="font-family:Helvetica;font-weight:normal;font-style:normal;font-size:10pt">100</text>
<text x="531.49" y="-19.142" transform="scale(1, -1)"
	style="font-family:Helvetica;font-weight:normal;font-style:normal;font-size:10pt">200</text>
<text x="770.64" y="-19.142" transform="scale(1, -1)"
	style="font-family:Helvetica;font-weight:normal;font-style:normal;font-size:10pt">300</text>
<text x="1009.8" y="-19.142" transform="scale(1, -1)"
	style="font-family:Helvetica;font-weight:normal;font-style:normal;font-size:10pt">400</text>
<path d="M63.613,30.467L63.613,40.467" style="fill:none;stroke:#000000;stroke-width:0.625" />
<path d="M302.76,30.467L302.76,40.467" style="fill:none;stroke:#000000;stroke-width:0.625" />
<path d="M541.91,30.467L541.91,40.467" style="fill:none;stroke:#000000;stroke-width:0.625" />
<path d="M781.06,30.467L781.06,40.467" style="fill:none;stroke:#000000;stroke-width:0.625" />
<path d="M1020.2,30.467L1020.2,40.467" style="fill:none;stroke:#000000;stroke-width:0.625" />
<path d="M183.19,35.468L183.19,40.467" style="fill:none;stroke:#000000;stroke-width:0.625" />
<path d="M422.34,35.468L422.34,40.467" style="fill:none;stroke:#000000;stroke-width:0.625" />
<path d="M661.49,35.468L661.49,40.467" style="fill:none;stroke:#000000;stroke-width:0.625" />
<path d="M900.64,35.468L900.64,40.467" style="fill:none;stroke:#000000;stroke-width:0.625" />
<path d="M63.613,40.467L1080,40.467" style="fill:none;stroke:#000000;stroke-width:0.625" />
<g transform="rotate(90)">
<text x="302.95" y="13.59" transform="scale(1, -1)"
	style="font-family:Helvetica;font-weight:normal;font-style:normal;font-size:12pt">Latency(millisecond)</text>
</g>
<text x="18.555" y="-66.502" transform="scale(1, -1)"
	style="font-family:Helvetica;font-weight:normal;font-style:normal;font-size:10pt">0.24</text>
<text x="18.555" y="-274.37" transform="scale(1, -1)"
	style="font-family:Helvetica;font-weight:normal;font-style:normal;font-size:10pt">0.32</text>
<text x="25.505" y="-482.25" transform="scale(1, -1)"
	style="font-family:Helvetica;font-weight:normal;font-style:normal;font-size:10pt">0.4</text>
<text x="18.555" y="-690.12" transform="scale(1, -1)"
	style="font-family:Helvetica;font-weight:normal;font-style:normal;font-size:10pt">0.48</text>
<path d="M46.355,71.871L56.355,71.871" style="fill:none;stroke:#000000;stroke-width:0.625" />
<path d="M46.355,279.74L56.355,279.74" style="fill:none;stroke:#000000;stroke-width:0.625" />
<path d="M46.355,487.62L56.355,487.62" style="fill:none;stroke:#000000;stroke-width:0.625" />
<path d="M46.355,695.49L56.355,695.49" style="fill:none;stroke:#000000;stroke-width:0.625" />
<path d="M51.355,71.871L56.355,71.871" style="fill:none;stroke:#000000;stroke-width:0.625" />
<path d="M51.355,175.81L56.355,175.81" style="fill:none;stroke:#000000;stroke-width:0.625" />
<path d="M51.355,383.68L56.355,383.68" style="fill:none;stroke:#000000;stroke-width:0.625" />
<path d="M51.355,487.62L56.355,487.62" style="fill:none;stroke:#000000;stroke-width:0.625" />
<path d="M51.355,591.55L56.355,591.55" style="fill:none;stroke:#000000;stroke-width:0.625" />
<path d="M51.355,695.49L56.355,695.49" style="fill:none;stroke:#000000;stroke-width:0.625" />
<path d="M56.355,47.03L56.355,695.57" style="fill:none;stroke:#000000;stroke-width:0.625" />
<path d="M63.613,390.95L66.004,371.91L68.395,379.07L70.787,361.14L73.178,381.15L75.57,355.25L77.962,370.96L80.353,363.04L82.745,388.64L85.136,371.86L87.528,370.47L89.919,387.21L92.31,369.77L94.702,381.39L97.094,414.2L99.485,523.48L101.88,484.9L104.27,480.65L106.66,387.7L109.05,376.31L111.44,369.91L113.83,342.93L116.23,351.56L118.62,380.9L121.01,344.75L123.4,381.19L125.79,376.13L128.18,356.86L130.57,394.01L132.97,375.2L135.36,403.8L137.75,438.14L140.14,541.18L142.53,532.97L144.92,531.3L147.31,494.51L149.71,510.93L152.1,465.18L154.49,492.85L156.88,507.03L159.27,477.11L161.66,460.91L164.06,374.41L166.45,370.53L168.84,395.89L171.23,363.17L173.62,366.31L176.01,365.47L178.4,370.38L180.8,367.57L183.19,364.44L185.58,350.64L187.97,344.72L190.36,350.77L192.75,384.91L195.15,362.42L197.54,347.07L199.93,342.62L202.32,365.42L204.71,343.76L207.1,407.03L209.49,385.79L211.89,368.39L214.28,367.83L216.67,392.27L219.06,477.08L221.45,426.65L223.84,350.76L226.23,347.07L228.63,372.38L231.02,355.62L233.41,349.44L235.8,353.9L238.19,412.58L240.58,384.06L242.98,382.66L245.37,385.87L247.76,373.3L250.15,362.43L252.54,374.77L254.93,371.16L257.32,385.01L259.72,424.85L262.11,456.12L264.5,475.36L266.89,356.99L269.28,370.17L271.67,425.89L274.06,365.18L276.46,375.72L278.85,400.96L281.24,434.77L283.63,527.13L286.02,530.19L288.41,517.39L290.81,524.8L293.2,562.61L295.59,527.09L297.98,501.74L300.37,466.38L302.76,453.91L305.15,479.96L307.55,358.91L309.94,371.36L312.33,393.86L314.72,409.11L317.11,381.37L319.5,372.36L321.89,360.33L324.29,372.14L326.68,370.12L329.07,372.61L331.46,361.54L333.85,384.07L336.24,349.53L338.63,386.54L341.03,389.26L343.42,367.59L345.81,369.8L348.2,386.1L350.59,371.81L352.98,360.4L355.38,372.57L357.77,344.65L360.16,355.87L362.55,349.72L364.94,347.99L367.33,337.16L369.72,363.49L372.12,364.14L374.51,319.73L376.9,334.71L379.29,329.35L381.68,324.47L384.07,326.16L386.46,317.25L388.86,334.39L391.25,359.66L393.64,349.15L396.03,334.96L398.42,336.08L400.81,345.06L403.21,351.07L405.6,345.95L407.99,356.61L410.38,355.72L412.77,343.76L415.16,354.7L417.55,346.74L419.95,361.87L422.34,386.7L424.73,422.72L427.12,522.42L429.51,529.7L431.9,520.91L434.3,550.39L436.69,532.97L439.08,532.13L441.47,529.58L443.86,488.13L446.25,447.87L448.64,462.8L451.04,389.92L453.43,384.37L455.82,386.74L458.21,396.98L460.6,400.6L462.99,353.05L465.38,388.84L467.78,400.56L470.17,372.19L472.56,364.81L474.95,374.93L477.34,348.53L479.73,350.15L482.12,374.32L484.52,419.04L486.91,379.17L489.3,382.76L491.69,370.98L494.08,383.98L496.47,398.24L498.87,388.12L501.26,370.37L503.65,355.05L506.04,356.62L508.43,352.91L510.82,382.04L513.21,360.32L515.61,400.66L518,378.42L520.39,393.18L522.78,379.61L525.17,379.21L527.56,386.44L529.95,361.46L532.35,330.03L534.74,378.66L537.13,370.98L539.52,350.84L541.91,382.22L544.3,374.35L546.7,380.1L549.09,375.6L551.48,378.31L553.87,379.93L556.26,379.9L558.65,368.87L561.04,371.05L563.44,359.74L565.83,400.97L568.22,435.93L570.61,495.92L573,515.7L575.39,514.7L577.78,527.66L580.18,521.11L582.57,480.39L584.96,529.14L587.35,511.46L589.74,499.71L592.13,467.36L594.53,383.35L596.92,367.61L599.31,336.52L601.7,367.09L604.09,358.7L606.48,342.7L608.87,354.79L611.27,385.49L613.66,373.88L616.05,382.05L618.44,384.79L620.83,389.63L623.22,419.79L625.62,384.44L628.01,395.69L630.4,384.92L632.79,378.77L635.18,370.32L637.57,368.07L639.96,379.2L642.36,373.91L644.75,350.96L647.14,378.02L649.53,382.2L651.92,390.67L654.31,370.59L656.7,349.97L659.1,404.49L661.49,367.84L663.88,383.91L666.27,380.21L668.66,373.96L671.05,426.26L673.44,351.39L675.84,367.31L678.23,402.6L680.62,359.61L683.01,401.77L685.4,374.98L687.79,373.7L690.19,368.28L692.58,356.6L694.97,348.91L697.36,356.15L699.75,394.94L702.14,349.31L704.53,378.13L706.93,382.31L709.32,384.28L711.71,426.64L714.1,531L716.49,512.65L718.88,540.71L721.27,512.95L723.67,525.57L726.06,559.06L728.45,514.16L730.84,512.88L733.23,454.67L735.62,440.66L738.02,374.94L740.41,345.27L742.8,346.93L745.19,360.42L747.58,352.02L749.97,349.46L752.36,351.3L754.76,358.79L757.15,366.91L759.54,347.72L761.93,382.37L764.32,342.9L766.71,405.62L769.1,357.18L771.5,352.76L773.89,375.79L776.28,398.74L778.67,397.1L781.06,356.32L783.45,358.11L785.85,352.72L788.24,349.09L790.63,378.48L793.02,354.13L795.41,360.71L797.8,354.45L800.19,331.4L802.59,326.95L804.98,328.78L807.37,344L809.76,353.2L812.15,339.86L814.54,353.96L816.93,369.53L819.33,335.25L821.72,367.08L824.11,357.29L826.5,388.65L828.89,381.76L831.28,373.74L833.68,386.69L836.07,383.35L838.46,386.68L840.85,412.08L843.24,359.41L845.63,371.12L848.02,363.73L850.42,375.45L852.81,433.27L855.2,440.08L857.59,530.81L859.98,570.94L862.37,531.71L864.76,525.16L867.16,491.53L869.55,476.51L871.94,515.04L874.33,497.63L876.72,431.25L879.11,451.47L881.51,389.13L883.9,342.01L886.29,375.04L888.68,334.93L891.07,360.84L893.46,351.78L895.85,356.12L898.25,373.35L900.64,384.32L903.03,374.61L905.42,388.6L907.81,372.26L910.2,360.28L912.6,366.08L914.99,377.14L917.38,369.53L919.77,387.94L922.16,372.26L924.55,398.41L926.94,397.66L929.34,377.73L931.73,349.1L934.12,389.18L936.51,350.99L938.9,380.76L941.29,384.16" style="fill:none;stroke:#F15A60;stroke-width:1.875" />
<path d="M63.613,304.07L66.004,190.57L68.395,177.83L70.787,82.859L73.178,125.5L75.57,107.22L77.962,178.17L80.353,141.5L82.745,160.33L85.136,121.37L87.528,174.13L89.919,146.06L92.31,173.83L94.702,146.64L97.094,118.29L99.485,226.91L101.88,145.48L104.27,123.88L106.66,134.95L109.05,90.907L111.44,105.02L113.83,126.17L116.23,192.55L118.62,231.54L121.01,188.92L123.4,165.5L125.79,225.01L128.18,224.05L130.57,189.45L132.97,196.51L135.36,207.56L137.75,253.65L140.14,140.38L142.53,133.15L144.92,129.42L147.31,113.07L149.71,122.2L152.1,128.9L154.49,98.629L156.88,113.66L159.27,148.77L161.66,152.09L164.06,160.34L166.45,108.76L168.84,115.26L171.23,136.13L173.62,92.305L176.01,94.612L178.4,69.413L180.8,55.28L183.19,105.01L185.58,62.644L187.97,53.313L190.36,47.03L192.75,59.962L195.15,117.78L197.54,60.214L199.93,83.257L202.32,94.895L204.71,92.097L207.1,81.698L209.49,83.156L211.89,68.366L214.28,94.532L216.67,113.62L219.06,108.21L221.45,132.98L223.84,189.77L226.23,183.43L228.63,164.17L231.02,148.16L233.41,166.03L235.8,197.53L238.19,191.77L240.58,157.17L242.98,194.4L245.37,97.743L247.76,124.28L250.15,113.36L252.54,93.799L254.93,90.662L257.32,133.49L259.72,190.99L262.11,210.2L264.5,185.97L266.89,190.59L269.28,189.83L271.67,289.15L274.06,176.5L276.46,187.91L278.85,183.57L281.24,215.01L283.63,71.346L286.02,98.837L288.41,96.834L290.81,86.64L293.2,96.969L295.59,105.76L297.98,104.66L300.37,96.904L302.76,94.342L305.15,98.063L307.55,76.951L309.94,98.375L312.33,69.878L314.72,91.151L317.11,59.591L319.5,84.535L321.89,75.987L324.29,71.302L326.68,86.092L329.07,72.138L331.46,100.31L333.85,89.246L336.24,134.09L338.63,131.76L341.03,80.17L343.42,89.724L345.81,77.772L348.2,91.58L350.59,112.99L352.98,127.9L355.38,111.94L357.77,93.378L360.16,118.41L362.55,101.6L364.94,164.28L367.33,166.05L369.72,167.53L372.12,176.11L374.51,166.35L376.9,170.39L379.29,192.21L381.68,218.08L384.07,186.86L386.46,194.24L388.86,131.68L391.25,105.24L393.64,97.21L396.03,59.274L398.42,98.873L400.81,102.12L403.21,163.13L405.6,177.89L407.99,202.68L410.38,186.33L412.77,183.43L415.16,171.78L417.55,143.32L419.95,155.35L422.34,174.34L424.73,173.22L427.12,91.27L429.51,111.56L431.9,111.83L434.3,104.41L436.69,127.02L439.08,129.49L441.47,150.25L443.86,119.31L446.25,134.72L448.64,96.888L451.04,95.368L453.43,75.826L455.82,73.856L458.21,87.178L460.6,77.205L462.99,111.16L465.38,115.44L467.78,109.81L470.17,111.54L472.56,82.142L474.95,79.9L477.34,104.89L479.73,75.597L482.12,89.088L484.52,119.39L486.91,105.11L489.3,73.658L491.69,86.055L494.08,88.922L496.47,152.29L498.87,108.51L501.26,140.34L503.65,87.916L506.04,87.42L508.43,173.43L510.82,159.7L513.21,155.89L515.61,138.29L518,181.77L520.39,173.21L522.78,146.63L525.17,141.2L527.56,157.92L529.95,168.01L532.35,101.28L534.74,122.59L537.13,76.27L539.52,72.65L541.91,117.51L544.3,72.375L546.7,146.67L549.09,124.87L551.48,136.24L553.87,182.93L556.26,166.38L558.65,173.28L561.04,173.28L563.44,140.53L565.83,173.85L568.22,164.26L570.61,73.445L573,128.83L575.39,117.63L577.78,127.15L580.18,109.21L582.57,123.06L584.96,107.41L587.35,81.313L589.74,81.586L592.13,81.615L594.53,77.299L596.92,113.65L599.31,120.03L601.7,125.72L604.09,179.31L606.48,115.18L608.87,131.22L611.27,103.15L613.66,83.992L616.05,82.992L618.44,121.98L620.83,115.2L623.22,90.229L625.62,95.553L628.01,96.35L630.4,98.886L632.79,90.122L635.18,76.309L637.57,173.9L639.96,102.08L642.36,89.662L644.75,100.73L647.14,103.92L649.53,121.81L651.92,163.61L654.31,164.56L656.7,172.35L659.1,184.54L661.49,146.91L663.88,131.69L666.27,171.48L668.66,210.39L671.05,179.07L673.44,138.61L675.84,99.092L678.23,64.317L680.62,98.315L683.01,120.97L685.4,83.26L687.79,71.31" style="fill:none;stroke:#7AC36A;stroke-width:1.875;stroke-dasharray:7.5,2.5" />
<path d="M63.613,521.14L66.004,542.8L68.395,522.5L70.787,501.47L73.178,501.96L75.57,496.28L77.962,494.66L80.353,513.15L82.745,530.86L85.136,555.54L87.528,584.67L89.919,552.65L92.31,538.05L94.702,554.69L97.094,522.12L99.485,521.43L101.88,519.46L104.27,540.49L106.66,567.1L109.05,553.45L111.44,568.01L113.83,540.55L116.23,528.26L118.62,486.74L121.01,512.69L123.4,531.76L125.79,499.03L128.18,504.45L130.57,529.05L132.97,518.36L135.36,542.62L137.75,540.65L140.14,523.35L142.53,529.2L144.92,547.48L147.31,559.45L149.71,521.64L152.1,546.56L154.49,534.75L156.88,603.1L159.27,620.94L161.66,656.68L164.06,684L166.45,686.64L168.84,695.57L171.23,635.74L173.62,650.29L176.01,637.35L178.4,605.13L180.8,559.63L183.19,495.43L185.58,491.34L187.97,521.03L190.36,498.61L192.75,504.9L195.15,505.73L197.54,481.01L199.93,474.27L202.32,473.54L204.71,515.42L207.1,482.86L209.49,474.08L211.89,498.33L214.28,487.54L216.67,493.01L219.06,516.54L221.45,507.87L223.84,489.5L226.23,512.36L228.63,501.85L231.02,532.46L233.41,559.7L235.8,500.32L238.19,499.74L240.58,510.76L242.98,487.51L245.37,563.16L247.76,542.15L250.15,469.7L252.54,478.9L254.93,497.41L257.32,527.02L259.72,563.18L262.11,507.71L264.5,508.06L266.89,523.21L269.28,532.28L271.67,490.01L274.06,492.38L276.46,503.81L278.85,521.02L281.24,538.12L283.63,531.76L286.02,511.85L288.41,502.88L290.81,532.22L293.2,528.9L295.59,550.51L297.98,548.5L300.37,617.24L302.76,659.38L305.15,616.29L307.55,643.48L309.94,672.21L312.33,644.77L314.72,609.62L317.11,600.77L319.5,571.62L321.89,617.57L324.29,516.2L326.68,526.7L329.07,531.94L331.46,532.73L333.85,549.02L336.24,535.44L338.63,530.59L341.03,557.32L343.42,534.01L345.81,536.78L348.2,539.32L350.59,514.9L352.98,518.46L355.38,521.97L357.77,528.76L360.16,513.9L362.55,482.74L364.94,512.61L367.33,514.68L369.72,483.98L372.12,490.52L374.51,484.74L376.9,469.57L379.29,490.3L381.68,514.66L384.07,576.66L386.46,520.5L388.86,476.73L391.25,514.15L393.64,539.78L396.03,549.35L398.42,510.11L400.81,531.71L403.21,504.91L405.6,527.61L407.99,521.55L410.38,515.11L412.77,504.29L415.16,506.37L417.55,548.81L419.95,516.32L422.34,538.4L424.73,538.27L427.12,511.92L429.51,491.09L431.9,524.27L434.3,557.34L436.69,595.42L439.08,562.37L441.47,571.62L443.86,620.13L446.25,684.26L448.64,642.31L451.04,618.08L453.43,678.54L455.82,636.17L458.21,600.65L460.6,590.24L462.99,594.81L465.38,603.43L467.78,539.72L470.17,524.08L472.56,542.51L474.95,517.38L477.34,504.83L479.73,509.43L482.12,500.13L484.52,492.88L486.91,539.7L489.3,550.28L491.69,522.62L494.08,518.4L496.47,519.12L498.87,509.3L501.26,510.86L503.65,522.9L506.04,518.51L508.43,582.38L510.82,551.77L513.21,558.22L515.61,520.34L518,528.78L520.39,523.03L522.78,546.46L525.17,552.31L527.56,539.91L529.95,542.74L532.35,585.75L534.74,530.01L537.13,535.76L539.52,554.73L541.91,546.83L544.3,517.69L546.7,575.45L549.09,570.89L551.48,530.58L553.87,556.61L556.26,513.1L558.65,480.18L561.04,468.88L563.44,470.31L565.83,490.57L568.22,494.97L570.61,482.71L573,490.67L575.39,480.82L577.78,512.54L580.18,582.37L582.57,557.95L584.96,525.93L587.35,594.71L589.74,639.95L592.13,622.2L594.53,643.2L596.92,655.84L599.31,606.82L601.7,595.96L604.09,588.89L606.48,642.19L608.87,643.09L611.27,548.87L613.66,496.48L616.05,500.13L618.44,573.2L620.83,538.8L623.22,494.62L625.62,506.32L628.01,535.36L630.4,520.01L632.79,517.13L635.18,516.99L637.57,544.06L639.96,517.34L642.36,514.71L644.75,505.11L647.14,491.62L649.53,525.24L651.92,503.72L654.31,582.98L656.7,552.66L659.1,550.2L661.49,512.76L663.88,535.57L666.27,518.21L668.66,502.14L671.05,506.99L673.44,511.13L675.84,493.69L678.23,522.18L680.62,519.88L683.01,518.17L685.4,542.86L687.79,510.77L690.19,523.83L692.58,492.94L694.97,505.16L697.36,572.32L699.75,517.33L702.14,552.98L704.53,533.01L706.93,549.59L709.32,537.51L711.71,541.66L714.1,524.37L716.49,526.37L718.88,549.58L721.27,564.28L723.67,534.07L726.06,537.37L728.45,590.18L730.84,591.45L733.23,652.79L735.62,676.47L738.02,656.03L740.41,608.47L742.8,612.95L745.19,605.94L747.58,656.78L749.97,662.42L752.36,616.53L754.76,541.55L757.15,504.93L759.54,496.7L761.93,501.31L764.32,546.28L766.71,546.07L769.1,527.32L771.5,546.36L773.89,529.93L776.28,529.83L778.67,524.53L781.06,529.23L783.45,515.81L785.85,543.07L788.24,527.81L790.63,517.8L793.02,527.49L795.41,505.65L797.8,522.88L800.19,535.15L802.59,516.81L804.98,491.76L807.37,493.8L809.76,533.79L812.15,538.85L814.54,512.17L816.93,526.44L819.33,503.19L821.72,514.14L824.11,491.11L826.5,517.13L828.89,506.89L831.28,497.82L833.68,543.65L836.07,550.4L838.46,517.27L840.85,576.8L843.24,504.29L845.63,546.18L848.02,565.06L850.42,493.64L852.81,502.5L855.2,492.96L857.59,517.55L859.98,508.51L862.37,523.86L864.76,553.39L867.16,565.07L869.55,567.77L871.94,585.83L874.33,627.23L876.72,687.69L879.11,624.84L881.51,628.48L883.9,687.78L886.29,680.99L888.68,610.03L891.07,607.84L893.46,603.48L895.85,657.6L898.25,561.55L900.64,501.16L903.03,552.86L905.42,534.07L907.81,550.25L910.2,507.09L912.6,503.65L914.99,540.52L917.38,512.5L919.77,527.54L922.16,535.41L924.55,518.31L926.94,567.69L929.34,517.92L931.73,501.3L934.12,506.79L936.51,520.8L938.9,520.51L941.29,506.55L943.68,524.26L946.08,513.57L948.47,525.82L950.86,548.44L953.25,519.56L955.64,562.12L958.03,519.2L960.43,506.09L962.82,528.25L965.21,528.9L967.6,511.24L969.99,522.54L972.38,577.82L974.77,515.23L977.17,542.74L979.56,523.25L981.95,540.19L984.34,560.05L986.73,537.41L989.12,529.98L991.51,556.84L993.91,493.68L996.3,471.86L998.69,542.18L1001.1,549L1003.5,557.85L1005.9,531.36L1008.3,556.78L1010.6,583.87L1013,527.56L1015.4,585.14L1017.8,671.79L1020.2,662.54L1022.6,676.87L1025,680.71L1027.4,649.46L1029.8,684.82L1032.2,659.19L1034.6,609.02L1037,616.29L1039.3,615.1L1041.7,550.34L1044.1,538.89L1046.5,533.57L1048.9,529.63L1051.3,569.71L1053.7,487.08L1056.1,486.08L1058.5,515.73L1060.9,492.96L1063.3,484.61L1065.7,548.92L1068,508.75L1070.4,545.38L1072.8,561.12L1075.2,527.27L1077.6,490.82L1080,468.7" style="fill:none;stroke:#5A9BD4;stroke-width:1.875;stroke-dasharray:2.5,2.5" />
<path d="M1055,694.3L1080,694.3" style="fill:none;stroke:#F15A60;stroke-width:1.875" />
<text x="1002.5" y="-687.85" transform="scale(1, -1)"
	style="font-family:Helvetica;font-weight:normal;font-style:normal;font-size:12pt">etcd v3</text>
<path d="M1055,680L1080,680" style="fill:none;stroke:#7AC36A;stroke-width:1.875;stroke-dasharray:7.5,2.5" />
<text x="941.6" y="-673.56" transform="scale(1, -1)"
	style="font-family:Helvetica;font-weight:normal;font-style:normal;font-size:12pt">Zookeeper 3.4.8</text>
<path d="M1055,665.71L1080,665.71" style="fill:none;stroke:#5A9BD4;stroke-width:1.875;stroke-dasharray:2.5,2.5" />
<text x="966.62" y="-659.26" transform="scale(1, -1)"
	style="font-family:Helvetica;font-weight:normal;font-style:normal;font-size:12pt">Consul 0.6.4</text>
</g>
</svg>
