<?xml version="1.0"?>
<!-- Generated by SVGo and Plotinum VG -->
<svg width="12in" height="8in"
	xmlns="http://www.w3.org/2000/svg"
	xmlns:xlink="http://www.w3.org/1999/xlink">
<g transform="scale(1, -1) translate(0, -720)">
<path d="M0,0L1080,0L1080,720L0,720Z" style="fill:#FFFFFF" />
<text x="329.5" y="-706.41" transform="scale(1, -1)"
	style="font-family:Helvetica;font-weight:normal;font-style:normal;font-size:12pt">Write 3M keys, 500 clients, key 64 bytes, value 256 bytes, CPU</text>
<text x="545.89" y="-4.965" transform="scale(1, -1)"
	style="font-family:Helvetica;font-weight:normal;font-style:normal;font-size:12pt">second</text>
<text x="56.662" y="-19.142" transform="scale(1, -1)"
	style="font-family:Helvetica;font-weight:normal;font-style:normal;font-size:10pt">0</text>
<text x="310.32" y="-19.142" transform="scale(1, -1)"
	style="font-family:Helvetica;font-weight:normal;font-style:normal;font-size:10pt">600</text>
<text x="567.46" y="-19.142" transform="scale(1, -1)"
	style="font-family:Helvetica;font-weight:normal;font-style:normal;font-size:10pt">1200</text>
<text x="828.07" y="-19.142" transform="scale(1, -1)"
	style="font-family:Helvetica;font-weight:normal;font-style:normal;font-size:10pt">1800</text>
<path d="M60.137,30.467L60.137,40.467" style="fill:none;stroke:#000000;stroke-width:0.625" />
<path d="M320.75,30.467L320.75,40.467" style="fill:none;stroke:#000000;stroke-width:0.625" />
<path d="M581.36,30.467L581.36,40.467" style="fill:none;stroke:#000000;stroke-width:0.625" />
<path d="M841.97,30.467L841.97,40.467" style="fill:none;stroke:#000000;stroke-width:0.625" />
<path d="M147.01,35.468L147.01,40.467" style="fill:none;stroke:#000000;stroke-width:0.625" />
<path d="M233.88,35.468L233.88,40.467" style="fill:none;stroke:#000000;stroke-width:0.625" />
<path d="M407.62,35.468L407.62,40.467" style="fill:none;stroke:#000000;stroke-width:0.625" />
<path d="M494.49,35.468L494.49,40.467" style="fill:none;stroke:#000000;stroke-width:0.625" />
<path d="M668.23,35.468L668.23,40.467" style="fill:none;stroke:#000000;stroke-width:0.625" />
<path d="M755.1,35.468L755.1,40.467" style="fill:none;stroke:#000000;stroke-width:0.625" />
<path d="M928.84,35.468L928.84,40.467" style="fill:none;stroke:#000000;stroke-width:0.625" />
<path d="M1015.7,35.468L1015.7,40.467" style="fill:none;stroke:#000000;stroke-width:0.625" />
<path d="M60.137,40.467L1080,40.467" style="fill:none;stroke:#000000;stroke-width:0.625" />
<g transform="rotate(90)">
<text x="356.02" y="13.59" transform="scale(1, -1)"
	style="font-family:Helvetica;font-weight:normal;font-style:normal;font-size:12pt">CPU</text>
</g>
<text x="25.505" y="-202.19" transform="scale(1, -1)"
	style="font-family:Helvetica;font-weight:normal;font-style:normal;font-size:10pt">60</text>
<text x="18.555" y="-364.83" transform="scale(1, -1)"
	style="font-family:Helvetica;font-weight:normal;font-style:normal;font-size:10pt">120</text>
<text x="18.555" y="-527.48" transform="scale(1, -1)"
	style="font-family:Helvetica;font-weight:normal;font-style:normal;font-size:10pt">180</text>
<text x="18.555" y="-690.12" transform="scale(1, -1)"
	style="font-family:Helvetica;font-weight:normal;font-style:normal;font-size:10pt">240</text>
<path d="M42.88,207.56L52.88,207.56" style="fill:none;stroke:#000000;stroke-width:0.625" />
<path d="M42.88,370.2L52.88,370.2" style="fill:none;stroke:#000000;stroke-width:0.625" />
<path d="M42.88,532.85L52.88,532.85" style="fill:none;stroke:#000000;stroke-width:0.625" />
<path d="M42.88,695.49L52.88,695.49" style="fill:none;stroke:#000000;stroke-width:0.625" />
<path d="M47.88,99.13L52.88,99.13" style="fill:none;stroke:#000000;stroke-width:0.625" />
<path d="M47.88,153.34L52.88,153.34" style="fill:none;stroke:#000000;stroke-width:0.625" />
<path d="M47.88,261.77L52.88,261.77" style="fill:none;stroke:#000000;stroke-width:0.625" />
<path d="M47.88,315.99L52.88,315.99" style="fill:none;stroke:#000000;stroke-width:0.625" />
<path d="M47.88,424.42L52.88,424.42" style="fill:none;stroke:#000000;stroke-width:0.625" />
<path d="M47.88,478.63L52.88,478.63" style="fill:none;stroke:#000000;stroke-width:0.625" />
<path d="M47.88,587.06L52.88,587.06" style="fill:none;stroke:#000000;stroke-width:0.625" />
<path d="M47.88,641.27L52.88,641.27" style="fill:none;stroke:#000000;stroke-width:0.625" />
<path d="M52.88,47.03L52.88,696.68" style="fill:none;stroke:#000000;stroke-width:0.625" />
<path d="M60.137,49.334L60.572,51.936L61.006,55.108L61.441,58.252L61.875,61.397L62.309,64.379L62.744,67.279L63.178,70.234L63.612,73.216L64.047,76.197L64.481,78.908L64.915,81.809L65.35,84.438L65.784,86.932L66.218,89.643L66.653,92.38L67.087,94.712L67.522,97.26L67.956,99.211L68.39,101.33L68.825,103.63L69.259,105.96L69.693,108.27L70.128,110.35L70.562,112.3L70.996,114.39L71.431,116.53L71.865,118.62L72.299,120.6L72.734,122.63L73.168,123.82L73.602,125.83L74.037,127.65L74.471,128.84L74.906,130.93L75.34,132.99L75.774,134.18L76.209,136.05L76.643,137.81L77.077,139.22L77.512,141.31L77.946,143.02L78.38,144.43L78.815,146.05L79.249,147.44L79.683,149.96L80.118,151.04L80.552,152.02L80.986,153.51L81.421,154.65L81.855,156.38L82.29,157.41L82.724,158.87L83.158,159.9L83.593,161.67L84.027,162.72L84.461,163.35L84.896,165.24L85.33,166.25L85.764,167.39L86.199,168.61L86.633,169.61L87.067,170.94L87.502,171.86L87.936,172.43L88.37,174.3L88.805,174.87L89.239,175.84L89.674,177.5L90.108,178.09L90.542,178.96L90.977,180.34L91.411,181.29L91.845,181.89L92.28,183.6L92.714,184.17L93.148,184.76L93.583,186.5L94.017,186.71L94.451,187.66L94.886,189.34L95.32,190.13L95.755,192L96.189,192.3L96.623,193.3L97.058,194.36L97.492,195.06L97.926,195.33L98.361,196.61L98.795,197.01L99.229,196.77L99.664,196.99L100.1,197.31L100.53,197.48L100.97,197.07L101.4,197.12L101.84,196.99L102.27,197.2L102.7,196.74L103.14,196.72L103.57,196.77L104.01,196.77L104.44,196.31L104.88,196.28L105.31,195.77L105.74,195.71L106.18,195.2L106.61,195.12L107.05,194.6L107.48,194.49L107.92,193.98L108.35,194.41L108.79,193.92L109.22,193.84L109.65,193.92L110.09,193.95L110.52,193.54L110.96,193.63L111.39,193.33L111.83,193.49L112.26,193.22L112.69,193.35L113.13,194.33L113.56,195.09L114,195.39L114.43,196.47L114.87,197.12L115.3,197.66L115.73,198.32L116.17,199.45L116.6,200.19L117.04,200.89L117.47,200.54L117.91,201L118.34,200.51L118.78,200.48L119.21,200.43L119.64,200.35L120.08,200.46L120.51,200.21L120.95,200.16L121.38,200.1L121.82,200.02L122.25,199.51L122.68,199.86L123.12,199.48L123.55,199.29L123.99,199.67L124.42,199.18L124.86,199.1L125.29,199.02L125.72,199.43L126.16,198.94L126.59,199.32L127.03,199.24L127.46,198.78L127.9,199.1L128.33,198.64L128.77,198.59L129.2,198.53L129.63,198.45L130.07,197.99L130.5,198.32L130.94,197.85L131.37,197.77L131.81,197.8L132.24,197.66L132.67,197.61L133.11,197.56L133.54,197.56L133.98,197.1L134.41,197.45L134.85,196.99L135.28,196.99L135.72,196.82L136.15,196.85L136.58,196.42L137.02,196.47L137.45,196.34L137.89,196.28L138.32,196.17L138.76,196.63L139.19,196.55L139.62,196.15L140.06,196.47L140.49,196.07L140.93,196.01L141.36,195.96L141.8,195.9L142.23,195.5L142.66,195.52L143.1,195.39L143.53,195.33L143.97,194.95L144.4,195.25L144.84,195.06L145.27,194.85L145.71,195.14L146.14,194.76L146.57,194.74L147.01,194.68L147.44,194.66L147.88,194.28L148.31,194.55L148.75,194.2L149.18,194.14L149.61,193.76L150.05,194.09L150.48,193.68L150.92,193.68L151.35,194.03L151.79,194.01L152.22,193.65L152.65,193.82L153.09,193.6L153.52,193.54L153.96,193.41L154.39,193.49L154.83,193.46L155.26,193.08L155.7,193.41L156.13,193.06L156.56,193.03L157,193L157.43,192.98L157.87,192.62L158.3,192.6L158.74,192.57L159.17,192.57L159.6,192.22L160.04,192.51L160.47,192.16L160.91,192.13L161.34,191.78L161.78,192.08L162.21,191.76L162.64,191.73L163.08,191.7L163.51,191.67L163.95,191.7L164.38,191.78L164.82,191.65L165.25,191.65L165.69,191.4L166.12,191.97L166.55,191.92L166.99,192.38L167.42,192.05L167.86,192.35L168.29,192L168.73,192.3L169.16,191.97L169.59,192.19L170.03,192L170.46,192.24L170.9,192.76L171.33,192.65L171.77,192.95L172.2,192.62L172.64,192.89L173.07,192.6L173.5,192.57L173.94,192.6L174.37,192.51L174.81,192.76L175.24,192.49L175.68,192.49L176.11,192.46L176.54,192.46L176.98,193L177.41,193.25L177.85,193.46L178.28,193.84L178.72,193.6L179.15,193.92L179.58,193.92L180.02,193.95L180.45,193.95L180.89,194.28L181.32,194.44L181.76,194.36L182.19,194.71L182.63,194.74L183.06,194.74L183.49,195.09L183.93,195.12L184.36,195.12L184.8,195.12L185.23,195.2L185.67,195.2L186.1,195.5L186.53,195.52L186.97,195.58L187.4,195.6L187.84,195.9L188.27,195.66L188.71,196.23L189.14,196.01L189.57,196.17L190.01,196.44L190.44,196.39L190.88,196.55L191.31,196.74L191.75,196.99L192.18,197.01L192.62,197.42L193.05,197.75L193.48,198.15L193.92,198.78L194.35,199.18L194.79,199.83L195.22,200.21L195.66,200.84L196.09,201.13L196.52,201.6L196.96,201.95L197.39,202.44L197.83,202.76L198.26,203.19L198.7,203.44L199.13,204.03L199.57,204.41L200,204.69L200.43,205.07L200.87,205.55L201.3,205.5L201.74,205.8L202.17,206.37L202.61,206.31L203.04,206.91L203.47,207.21L203.91,207.56L204.34,207.94L204.78,208.37L205.21,208.62L205.65,209.08L206.08,209.73L206.51,209.84L206.95,210.19L207.38,210.89L207.82,211L208.25,211.44L208.69,211.98L209.12,212.11L209.56,212.47L209.99,212.79L210.42,213.17L210.86,213.55L211.29,213.71L211.73,214.17L212.16,214.36L212.6,214.39L213.03,214.53L213.46,214.8L213.9,214.58L214.33,214.34L214.77,214.82L215.2,214.61L215.64,214.74L216.07,214.53L216.5,214.61L216.94,214.36L217.37,214.12L217.81,214.25L218.24,214.66L218.68,214.39L219.11,214.15L219.55,213.93L219.98,213.96L220.41,213.69L220.85,213.74L221.28,213.82L221.72,213.9L222.15,213.63L222.59,213.39L223.02,213.12L223.45,213.5L223.89,213.2L224.32,212.93L224.76,212.66L225.19,212.98L225.63,212.76L226.06,212.49L226.49,212.52L226.93,212.25L227.36,212.28L227.8,212L228.23,211.73L228.67,211.46L229.1,211.16L229.54,211.87L229.97,211.57L230.4,211.3L230.84,211.03L231.27,210.92L231.71,210.78L232.14,210.51L232.58,210.54L233.01,210.27L233.44,210.3L233.88,210.35L234.31,210.11L234.75,209.84L235.18,209.56L235.62,209.62L236.05,209.67L236.49,209.4L236.92,209.13L237.35,208.94L237.79,208.94L238.22,208.64L238.66,208.72L239.09,208.75L239.53,208.81L239.96,208.53L240.39,208.29L240.83,208.02L241.26,207.78L241.7,207.8L242.13,207.67L242.57,207.59L243,207.64L243.43,207.42L243.87,207.45L244.3,207.21L244.74,206.94L245.17,206.69L245.61,206.72L246.04,206.8L246.48,206.53L246.91,206.28L247.34,206.04L247.78,206.12L248.21,206.2L248.65,206.12L249.08,206.34L249.52,206.26L249.95,206.5L250.38,206.58L250.82,206.34L251.25,206.15L251.69,206.2L252.12,206.26L252.56,206.34L252.99,206.12L253.42,206.2L253.86,206.01L254.29,205.8L254.73,206.01L255.16,206.56L255.6,206.53L256.03,206.53L256.47,206.75L256.9,206.91L257.33,206.99L257.77,206.83L258.2,206.94L258.64,206.75L259.07,207.15L259.51,207.29L259.94,207.1L260.37,206.91L260.81,207.18L261.24,207.45L261.68,207.31L262.11,207.15L262.55,207.56L262.98,207.4L263.42,207.61L263.85,207.99L264.28,208.32L264.72,208.43L265.15,208.97L265.59,209.24L266.02,209.32L266.46,209.67L266.89,210.22L267.32,210.32L267.76,210.7L268.19,210.73L268.63,211.22L269.06,211.25L269.5,211.57L269.93,211.65L270.36,211.95L270.8,212.55L271.23,212.57L271.67,212.84L272.1,212.98L272.54,213.33L272.97,213.66L273.41,213.63L273.84,214.31L274.27,214.63L274.71,215.04L275.14,215.15L275.58,215.88L276.01,216.29L276.45,216.37L276.88,216.42L277.31,217.02L277.75,217.34L278.18,217.4L278.62,217.75L279.05,217.72L279.49,217.91L279.92,218.46L280.35,218.43L280.79,218.4L281.22,218.65L281.66,218.84L282.09,218.67L282.53,218.81L282.96,219.05L283.4,218.94L283.83,218.89L284.26,219.32L284.7,219.16L285.13,218.97L285.57,219.13L286,218.94L286.44,219.05L286.87,219.27L287.3,219.4L287.74,219.22L288.17,219L288.61,218.81L289.04,218.94L289.48,218.75L289.91,218.84L290.34,218.67L290.78,218.84L291.21,218.94L291.65,218.73L292.08,218.56L292.52,218.65L292.95,218.43L293.39,218.54L293.82,218.37L294.25,218.48L294.69,218.27L295.12,218.05L295.56,218.02L295.99,218.29L296.43,218.08L296.86,218.18L297.29,218.16L297.73,218.08L298.16,217.89L298.6,217.67L299.03,217.7L299.47,217.56L299.9,217.45L300.34,217.45L300.77,217.53L301.2,217.67L301.64,217.48L302.07,217.26L302.51,217.37L302.94,217.18L303.38,216.99L303.81,217.07L304.24,217.18L304.68,216.97L305.11,216.78L305.55,216.56L305.98,216.64L306.42,216.59L306.85,216.59L307.28,216.67L307.72,216.78L308.15,216.59L308.59,216.37L309.02,216.18L309.46,216.26L309.89,216.07L310.33,215.88L310.76,215.88L311.19,216.07L311.63,215.91L312.06,215.69L312.5,215.8L312.93,215.91L313.37,215.8L313.8,215.75L314.23,215.66L314.67,216.12L315.1,216.42L315.54,216.37L315.97,216.18L316.41,216.07L316.84,216.12L317.27,215.94L317.71,216.07L318.14,215.88L318.58,216.31L319.01,216.12L319.45,215.96L319.88,216.1L320.32,216.23L320.75,216.07L321.18,215.91L321.62,215.77L322.05,216.5L322.49,216.37L322.92,216.26L323.36,216.12L323.79,216.31L324.22,216.56L324.66,216.59L325.09,216.97L325.53,217.1L325.96,217.4L326.4,217.43L326.83,217.78L327.27,217.81L327.7,218.16L328.13,218.51L328.57,218.48L329,218.81L329.44,219L329.87,219.43L330.31,219.87L330.74,220.25L331.17,220.38L331.61,220.46L332.04,221L332.48,221.3L332.91,221.19L333.35,221.11L333.78,221.33L334.21,221.46L334.65,221.84L335.08,221.71L335.52,221.95L335.95,221.9L336.39,221.87L336.82,222.41L337.26,222.71L337.69,222.85L338.12,222.87L338.56,223.04L338.99,223.25L339.43,223.8L339.86,223.82L340.3,223.85L340.73,223.88L341.16,224.47L341.6,224.39L342.03,224.72L342.47,224.72L342.9,224.77L343.34,225.18L343.77,225.34L344.2,225.23L344.64,225.4L345.07,225.5L345.51,225.64L345.94,226.15L346.38,226.1L346.81,225.99L347.25,225.88L347.68,225.77L348.11,226.37L348.55,226.43L348.98,226.72L349.42,226.7L349.85,226.81L350.29,227.13L350.72,227.27L351.15,227.56L351.59,227.92L352.02,227.92L352.46,227.89L352.89,227.97L353.33,228.11L353.76,228.11L354.19,227.94L354.63,227.75L355.06,227.92L355.5,227.75L355.93,227.56L356.37,227.37L356.8,227.54L357.24,227.67L357.67,227.67L358.1,227.67L358.54,227.73L358.97,227.65L359.41,227.46L359.84,227.27L360.28,227.13L360.71,227.48L361.14,227.37L361.58,227.21L362.01,227.02L362.45,227.16L362.88,226.99L363.32,226.81L363.75,226.62L364.19,226.64L364.62,226.91L365.05,226.75L365.49,226.91L365.92,226.72L366.36,226.56L366.79,226.7L367.23,226.51L367.66,226.32L368.09,226.15L368.53,226.64L368.96,226.51L369.4,226.45L369.83,226.37L370.27,226.7L370.7,226.89L371.13,226.83L371.57,226.78L372,226.64L372.44,227.13L372.87,226.94L373.31,227.08L373.74,226.94L374.18,227.1L374.61,226.97L375.04,226.78L375.48,226.62L375.91,226.83L376.35,227.29L376.78,227.13L377.22,226.97L377.65,226.86L378.08,226.99L378.52,226.83L378.95,227.02L379.39,226.94L379.82,227.46L380.26,227.35L380.69,227.24L381.12,227.1L381.56,227.65L381.99,227.67L382.43,227.7L382.86,228L383.3,228.05L383.73,228.24L384.17,228.51L384.6,228.54L385.03,228.59L385.47,228.92L385.9,228.95L386.34,229.6L386.77,229.65L387.21,230L387.64,230.09L388.07,230.11L388.51,230.46L388.94,230.63L389.38,230.93L389.81,231.2L390.25,231.14L390.68,231.12L391.12,231.41L391.55,231.87L391.98,231.93L392.42,231.98L392.85,232.04L393.29,232.36L393.72,232.74L394.16,233.01L394.59,233.15L395.02,233.18L395.46,233.26L395.89,233.64L396.33,233.69L396.76,233.72L397.2,234.1L397.63,234.18L398.06,234.64L398.5,234.86L398.93,234.94L399.37,234.96L399.8,234.99L400.24,235.15L400.67,235.75L401.11,235.83L401.54,235.89L401.97,235.94L402.41,235.99L402.84,236.05L403.28,236.48L403.71,236.94L404.15,237.19L404.58,237.32L405.01,237.46L405.45,237.62L405.88,238.11L406.32,238.3L406.75,238.68L407.19,238.73L407.62,238.76L408.05,239.19L408.49,239.14L408.92,239.03L409.36,239.22L409.79,239.49L410.23,239.36L410.66,239.19L411.1,239.03L411.53,238.87L411.96,238.71L412.4,238.68L412.83,238.73L413.27,238.57L413.7,238.38L414.14,238.6L414.57,238.43L415,238.38L415.44,238.46L415.87,238.27L416.31,238.11L416.74,237.95L417.18,237.78L417.61,237.62L418.04,237.81L418.48,238.03L418.91,238.22L419.35,238.05L419.78,237.89L420.22,237.7L420.65,237.54L421.09,237.73L421.52,237.59L421.95,237.43L422.39,237.24L422.82,237.08L423.26,236.92L423.69,237.38L424.13,237.3L424.56,237.13L424.99,236.97L425.43,236.81L425.86,236.64L426.3,236.62L426.73,236.89L427.17,236.89L427.6,237.08L428.04,237L428.47,236.94L428.9,236.86L429.34,237.16L429.77,237.27L430.21,237.62L430.64,237.46L431.08,237.3L431.51,237.13L431.94,237.32L432.38,237.51L432.81,237.38L433.25,237.21L433.68,237.05L434.12,236.89L434.55,237.02L434.98,237.3L435.42,237.13L435.85,236.97L436.29,236.83L436.72,236.75L437.16,236.83L437.59,237.05L438.03,236.89L438.46,236.73L438.89,236.56L439.33,236.75L439.76,236.59L440.2,236.56L440.63,236.64L441.07,236.48L441.5,236.32L441.93,236.51L442.37,236.35L442.8,236.21L443.24,236.48L443.67,236.64L444.11,236.46L444.54,236.64L444.97,236.51L445.41,236.35L445.84,236.27L446.28,236.4L446.71,236.56L447.15,236.43L447.58,236.27L448.02,236.13L448.45,235.97L448.88,236.35L449.32,236.35L449.75,236.21L450.19,236.05L450.62,235.91L451.06,235.8L451.49,235.94L451.92,236.13L452.36,235.97L452.79,235.83L453.23,235.67L453.66,235.86L454.1,235.7L454.53,235.8L454.97,235.75L455.4,235.61L455.83,235.67L456.27,235.64L456.7,235.48L457.14,235.34L457.57,235.53L458.01,235.43L458.44,235.56L458.87,235.43L459.31,235.29L459.74,235.13L460.18,234.99L460.61,235.8L461.05,235.72L461.48,235.56L461.91,235.43L462.35,235.26L462.78,235.37L463.22,235.43L463.65,235.53L464.09,235.37L464.52,235.24L464.96,235.07L465.39,235.26L465.82,235.1L466.26,235.29L466.69,235.15L467.13,235.02L467.56,235.07L468,235.05L468.43,234.91L468.86,234.77L469.3,234.94L469.73,234.83L470.17,235.02L470.6,234.86L471.04,234.75L471.47,234.58L471.9,234.45L472.34,234.83L472.77,234.83L473.21,234.69L473.64,234.53L474.08,234.4L474.51,234.26L474.95,234.42L475.38,234.69L475.81,234.67L476.25,234.58L476.68,234.83L477.12,235.1L477.55,235.07L477.99,234.99L478.42,235.29L478.85,235.24L479.29,235.07L479.72,235.26L480.16,235.13L480.59,235.18L481.03,235.29L481.46,235.48L481.89,235.67L482.33,235.56L482.76,235.43L483.2,235.29L483.63,235.18L484.07,235.07L484.5,235.91L484.94,235.91L485.37,235.89L485.8,235.86L486.24,235.86L486.67,236.46L487.11,236.43L487.54,236.46L487.98,236.73L488.41,236.7L488.84,237.02L489.28,237.24L489.71,237.11L490.15,237.11L490.58,237.13L491.02,237.32L491.45,237.81L491.89,238.11L492.32,238L492.75,237.92L493.19,237.84L493.62,237.81L494.06,238.11L494.49,238.68L494.93,238.6L495.36,238.52L495.79,238.49L496.23,238.57L496.66,238.95L497.1,239.19L497.53,239.25L497.97,239.52L498.4,239.55L498.83,239.63L499.27,240.03L499.7,240.28L500.14,240.2L500.57,240.09L501.01,240.17L501.44,240.39L501.88,240.44L502.31,240.93L502.74,241.09L503.18,241.01L503.61,240.9L504.05,240.82L504.48,240.74L504.92,240.74L505.35,241.09L505.78,241.71L506.22,241.63L506.65,241.55L507.09,241.47L507.52,241.39L507.96,241.31L508.39,241.28L508.82,241.85L509.26,241.82L509.69,241.96L510.13,242.15L510.56,242.17L511,242.2L511.43,242.26L511.87,242.85L512.3,242.8L512.73,242.72L513.17,242.64L513.6,242.55L514.04,242.83L514.47,242.91L514.91,242.96L515.34,243.53L515.77,243.56L516.21,243.48L516.64,243.42L517.08,243.42L517.51,243.45L517.95,243.48L518.38,243.64L518.82,244.18L519.25,244.4L519.68,244.32L520.12,244.21L520.55,244.1L520.99,244.02L521.42,243.96L521.86,243.88L522.29,243.83L522.72,243.86L523.16,244.29L523.59,244.18L524.03,244.07L524.46,243.94L524.9,243.83L525.33,244.02L525.76,244.1L526.2,244.05L526.63,244.34L527.07,244.29L527.5,244.23L527.94,244.37L528.37,244.48L528.81,244.4L529.24,244.48L529.67,244.61L530.11,244.51L530.54,244.37L530.98,244.23L531.41,244.1L531.85,243.96L532.28,244.21L532.71,244.1L533.15,244.05L533.58,244.18L534.02,244.02L534.45,243.91L534.89,244.34L535.32,244.32L535.75,244.21L536.19,244.07L536.62,243.94L537.06,243.8L537.49,243.83L537.93,243.86L538.36,243.72L538.8,243.94L539.23,243.77L539.66,243.64L540.1,243.53L540.53,243.39L540.97,243.58L541.4,243.48L541.84,243.31L542.27,243.18L542.7,243.04L543.14,242.93L543.57,243.12L544.01,243.15L544.44,243.18L544.88,243.07L545.31,242.99L545.74,243.15L546.18,243.31L546.61,243.2L547.05,243.1L547.48,242.96L547.92,242.83L548.35,242.69L548.79,242.69L549.22,242.77L549.65,242.96L550.09,242.85L550.52,242.74L550.96,242.61L551.39,242.47L551.83,242.69L552.26,242.55L552.69,242.42L553.13,242.28L553.56,242.15L554,242.04L554.43,242.15L554.87,242.09L555.3,242.31L555.74,242.17L556.17,242.04L556.6,242.23L557.04,242.26L557.47,242.31L557.91,242.2L558.34,242.07L558.78,241.93L559.21,241.82L559.64,241.69L560.08,241.88L560.51,241.82L560.95,242.04L561.38,242.12L561.82,242.15L562.25,242.17L562.68,242.45L563.12,242.83L563.55,242.85L563.99,243.02L564.42,243.23L564.86,243.15L565.29,243.23L565.73,243.31L566.16,243.2L566.59,243.1L567.03,242.99L567.46,243.56L567.9,243.48L568.33,243.69L568.77,243.58L569.2,243.48L569.63,243.37L570.07,243.26L570.5,243.48L570.94,243.69L571.37,243.88L571.81,243.86L572.24,243.8L572.67,243.72L573.11,243.91L573.54,244.32L573.98,244.23L574.41,244.13L574.85,244.02L575.28,244.1L575.72,244.26L576.15,244.26L576.58,244.42L577.02,244.86L577.45,244.86L577.89,244.78L578.32,244.7L578.76,244.64L579.19,244.97L579.62,245.18L580.06,245.7L580.49,245.62L580.93,245.54L581.36,245.48L581.8,245.43L582.23,245.37L582.67,245.56L583.1,245.97L583.53,246.32L583.97,246.38L584.4,246.4L584.84,246.46L585.27,246.48L585.71,246.84L586.14,246.81L586.57,247.05L587.01,247.35L587.44,247.43L587.88,247.46L588.31,247.51L588.75,247.81L589.18,247.92L589.61,248.03L590.05,248.19L590.48,248.08L590.92,247.98L591.35,248.25L591.79,248.33L592.22,248.46L592.66,248.79L593.09,248.82L593.52,249.14L593.96,249.09L594.39,249.01L594.83,248.92L595.26,248.87L595.7,248.79L596.13,249.25L596.56,249.52L597,249.55L597.43,249.63L597.87,250.01L598.3,250.04L598.74,250.09L599.17,250.12L599.6,250.47L600.04,250.44L600.47,250.42L600.91,250.71L601.34,250.79L601.78,251.2L602.21,251.28L602.65,251.31L603.08,251.47L603.51,251.69L603.95,251.61L604.38,251.53L604.82,251.42L605.25,251.34L605.69,251.23L606.12,251.09L606.55,251.39L606.99,251.28L607.42,251.2L607.86,251.42L608.29,251.31L608.73,251.53L609.16,251.39L609.59,251.28L610.03,251.15L610.46,251.04L610.9,250.93L611.33,250.79L611.77,250.66L612.2,250.55L612.64,250.47L613.07,250.63L613.5,250.52L613.94,250.42L614.37,250.44L614.81,250.5L615.24,250.39L615.68,250.25L616.11,250.12L616.54,250.01L616.98,249.87L617.41,249.76L617.85,249.63L618.28,249.52L618.72,249.39L619.15,249.47L619.59,249.79L620.02,249.74L620.45,249.93L620.89,249.82L621.32,249.71L621.76,249.58L622.19,249.47L622.63,249.33L623.06,249.22L623.49,249.09L623.93,248.98L624.36,248.87L624.8,248.73L625.23,248.6L625.67,248.52L626.1,248.68L626.53,249.03L626.97,249.03L627.4,248.95L627.84,248.9L628.27,248.84L628.71,248.79L629.14,248.73L629.58,248.95L630.01,248.95L630.44,248.9L630.88,248.79L631.31,248.76L631.75,248.95L632.18,248.9L632.62,248.84L633.05,249.17L633.48,249.28L633.92,249.44L634.35,249.39L634.79,249.33L635.22,249.28L635.66,249.25L636.09,249.52L636.52,249.82L636.96,249.74L637.39,249.63L637.83,249.52L638.26,249.41L638.7,249.3L639.13,249.2L639.57,249.2L640,249.33L640.43,249.52L640.87,249.68L641.3,249.71L641.74,249.63L642.17,249.52L642.61,249.55L643.04,249.74L643.47,249.66L643.91,249.58L644.34,249.49L644.78,249.44L645.21,249.63L645.65,249.87L646.08,250.5L646.52,250.47L646.95,250.44L647.38,250.47L647.82,250.55L648.25,250.63L648.69,250.71L649.12,251.17L649.56,251.85L649.99,251.99L650.42,252.01L650.86,252.04L651.29,252.07L651.73,252.12L652.16,252.45L652.6,252.61L653.03,252.75L653.46,252.67L653.9,252.99L654.33,253.04L654.77,253.07L655.2,253.1L655.64,253.42L656.07,253.67L656.51,253.8L656.94,253.72L657.37,253.64L657.81,253.56L658.24,253.51L658.68,253.83L659.11,253.86L659.55,254.21L659.98,254.13L660.41,254.05L660.85,254.29L661.28,254.21L661.72,254.13L662.15,254.07L662.59,253.99L663.02,253.91L663.45,254.21L663.89,254.13L664.32,254.1L664.76,254.43L665.19,254.7L665.63,254.7L666.06,254.73L666.5,254.73L666.93,254.89L667.36,255.02L667.8,254.97L668.23,254.92L668.67,255.08L669.1,255.21L669.54,255.16L669.97,255.32L670.4,255.46L670.84,255.48L671.27,255.89L671.71,255.95L672.14,255.97L672.58,256.03L673.01,256.27L673.44,256.24L673.88,256.24L674.31,256.22L674.75,256.24L675.18,256.57L675.62,256.89L676.05,256.92L676.49,256.95L676.92,256.98L677.35,257.33L677.79,257.46L678.22,257.44L678.66,257.38L679.09,257.3L679.53,257.52L679.96,257.52L680.39,257.41L680.83,257.3L681.26,257.19L681.7,257.08L682.13,256.98L682.57,256.84L683,256.73L683.44,256.79L683.87,256.87L684.3,257.11L684.74,257.03L685.17,256.92L685.61,256.89L686.04,257.06L686.48,256.92L686.91,256.81L687.34,256.7L687.78,256.6L688.21,256.49L688.65,256.38L689.08,256.24L689.52,256.14L689.95,256.03L690.38,255.92L690.82,256.14L691.25,256.05L691.69,255.95L692.12,256.05L692.56,256.05L692.99,255.95L693.43,255.84L693.86,255.73L694.29,255.62L694.73,255.48L695.16,255.38L695.6,255.27L696.03,255.16L696.47,255.05L696.9,254.92L697.33,254.81L697.77,254.73L698.2,255.02L698.64,255.46L699.07,255.46L699.51,255.35L699.94,255.21L700.37,255.13L700.81,255.02L701.24,254.89L701.68,254.78L702.11,254.67L702.55,254.56L702.98,254.45L703.42,254.35L703.85,254.24L704.28,254.13L704.72,254.02L705.15,254.05L705.59,254.51L706.02,254.4L706.46,254.29L706.89,254.16L707.32,254.07L707.76,253.97L708.19,253.86L708.63,253.72L709.06,253.64L709.5,253.51L709.93,253.4L710.36,253.29L710.8,253.18L711.23,253.07L711.67,253.04L712.1,253.26L712.54,253.23L712.97,253.4L713.41,253.48L713.84,253.42L714.27,253.7L714.71,253.67L715.14,253.61L715.58,253.72L716.01,253.83L716.45,253.8L716.88,253.75L717.31,253.7L717.75,253.59L718.18,253.48L718.62,253.4L719.05,253.29L719.49,253.4L719.92,253.51L720.36,253.4L720.79,253.64L721.22,253.64L721.66,253.59L722.09,253.53L722.53,253.51L722.96,253.48L723.4,253.8L723.83,253.75L724.26,253.72L724.7,253.72L725.13,253.94L725.57,253.91L726,253.86L726.44,253.78L726.87,253.67L727.3,253.56L727.74,253.83L728.17,253.78L728.61,253.67L729.04,253.86L729.48,253.86L729.91,253.75L730.35,253.67L730.78,253.56L731.21,253.7L731.65,253.78L732.08,253.67L732.52,253.56L732.95,254.05L733.39,254.1L733.82,254.02L734.25,253.91L734.69,253.8L735.12,254.07L735.56,253.99L735.99,253.94L736.43,253.89L736.86,253.86L737.29,253.8L737.73,254.05L738.16,254.1L738.6,254.24L739.03,254.43L739.47,254.37L739.9,254.32L740.34,254.26L740.77,254.51L741.2,254.51L741.64,254.7L742.07,254.7L742.51,255L742.94,254.92L743.38,254.81L743.81,254.73L744.24,254.62L744.68,254.56L745.11,254.45L745.55,254.64L745.98,254.78L746.42,255.29L746.85,255.24L747.29,255.21L747.72,255.19L748.15,255.19L748.59,255.19L749.02,255.4L749.46,255.46L749.89,255.67L750.33,255.81L750.76,255.84L751.19,256.08L751.63,256.11L752.06,256.16L752.5,256.19L752.93,256.19L753.37,256.87L753.8,256.87L754.23,256.79L754.67,256.7L755.1,256.6L755.54,256.54L755.97,256.68L756.41,256.79L756.84,256.84L757.28,257.14L757.71,257.54L758.14,257.52L758.58,257.44L759.01,257.35L759.45,257.27L759.88,257.19L760.32,257.11L760.75,257.03L761.18,256.95L761.62,257.49L762.05,257.6L762.49,257.92L762.92,257.87L763.36,257.82L763.79,257.73L764.22,257.68L764.66,257.63L765.09,257.57L765.53,257.76L765.96,257.87L766.4,257.79L766.83,257.73L767.27,257.92L767.7,258.06L768.13,258.28L768.57,258.3L769,258.33L769.44,258.36L769.87,258.66L770.31,258.76L770.74,258.76L771.17,258.79L771.61,259.01L772.04,259.09L772.48,259.01L772.91,258.93L773.35,258.95L773.78,259.17L774.21,259.36L774.65,259.63L775.08,259.66L775.52,259.69L775.95,259.71L776.39,259.79L776.82,260.04L777.26,260.04L777.69,260.01L778.12,260.04L778.56,260.34L778.99,260.34L779.43,260.47L779.86,260.61L780.3,260.63L780.73,260.66L781.16,260.69L781.6,260.72L782.03,260.96L782.47,261.04L782.9,261.01L783.34,261.07L783.77,261.23L784.21,261.15L784.64,261.04L785.07,260.96L785.51,260.85L785.94,260.8L786.38,260.77L786.81,260.72L787.25,260.66L787.68,260.61L788.11,260.8L788.55,260.85L788.98,261.04L789.42,261.12L789.85,261.07L790.29,261.01L790.72,261.29L791.15,261.29L791.59,261.23L792.02,261.15L792.46,261.07L792.89,261.29L793.33,261.29L793.76,261.2L794.2,261.1L794.63,260.99L795.06,260.91L795.5,260.8L795.93,260.72L796.37,260.61L796.8,260.5L797.24,260.61L797.67,260.72L798.1,260.96L798.54,260.88L798.97,260.77L799.41,260.66L799.84,260.58L800.28,260.47L800.71,260.36L801.14,260.26L801.58,260.17L802.01,260.07L802.45,260.2L802.88,260.23L803.32,260.15L803.75,260.04L804.19,260.26L804.62,260.2L805.05,260.12L805.49,260.36L805.92,260.26L806.36,260.17L806.79,260.34L807.23,260.36L807.66,260.28L808.09,260.17L808.53,260.09L808.96,259.98L809.4,259.9L809.83,259.79L810.27,259.69L810.7,259.6L811.14,259.71L811.57,259.79L812,259.69L812.44,259.6L812.87,259.63L813.31,259.74L813.74,259.66L814.18,259.55L814.61,259.47L815.04,259.39L815.48,259.47L815.91,259.69L816.35,259.63L816.78,259.6L817.22,259.55L817.65,259.5L818.08,259.63L818.52,259.74L818.95,259.69L819.39,259.66L819.82,259.6L820.26,259.93L820.69,260.2L821.13,260.26L821.56,260.23L821.99,260.17L822.43,260.28L822.86,260.5L823.3,260.47L823.73,260.45L824.17,260.39L824.6,260.55L825.03,260.69L825.47,260.63L825.9,260.61L826.34,260.55L826.77,261.07L827.21,261.18L827.64,261.1L828.07,261.01L828.51,260.93L828.94,260.85L829.38,261.12L829.81,261.07L830.25,260.99L830.68,260.91L831.12,260.88L831.55,261.12L831.98,261.07L832.42,260.96L832.85,261.18L833.29,261.15L833.72,261.23L834.16,261.42L834.59,261.31L835.02,261.23L835.46,261.42L835.89,261.66L836.33,261.69L836.76,261.72L837.2,261.75L837.63,261.75L838.06,261.83L838.5,262.15L838.93,262.42L839.37,262.75L839.8,262.75L840.24,262.69L840.67,262.61L841.11,262.56L841.54,262.48L841.97,262.42L842.41,262.37L842.84,262.32L843.28,262.51L843.71,262.99L844.15,263.13L844.58,263.26L845.01,263.26L845.45,263.29L845.88,263.29L846.32,263.32L846.75,263.35L847.19,263.48L847.62,263.78L848.06,264.05L848.49,264.08L848.92,264L849.36,263.94L849.79,264.21L850.23,264.24L850.66,264.27L851.1,264.29L851.53,264.32L851.96,264.7L852.4,264.78L852.83,264.84L853.27,265.08L853.7,265.05L854.14,264.97L854.57,264.92L855,264.84L855.44,264.78L855.87,264.92L856.31,265.05L856.74,265.19L857.18,265.43L857.61,265.43L858.05,265.46L858.48,265.49L858.91,265.68L859.35,265.79L859.78,265.79L860.22,265.79L860.65,265.81L861.09,265.87L861.52,266.16L861.95,266.11L862.39,266.16L862.82,266.35L863.26,266.38L863.69,266.41L864.13,266.44L864.56,266.44L864.99,266.6L865.43,266.82L865.86,266.84L866.3,266.95L866.73,267.14L867.17,267.09L867.6,267.01L868.04,266.92L868.47,266.82L868.9,266.73L869.34,266.65L869.77,266.54L870.21,266.46L870.64,266.35L871.08,266.27L871.51,266.16L871.94,266.08L872.38,265.97L872.81,266.03L873.25,266.16L873.68,266.08L874.12,266.03L874.55,266.44L874.99,266.52L875.42,266.44L875.85,266.41L876.29,266.35L876.72,266.3L877.16,266.25L877.59,266.22L878.03,266.16L878.46,266.11L878.89,266.06L879.33,266.08L879.76,266.3L880.2,266.27L880.63,266.22L881.07,266.16L881.5,266.14L881.93,266.08L882.37,266.03L882.8,265.92L883.24,265.84L883.67,265.76L884.11,265.81L884.54,265.97L884.98,265.89L885.41,265.81L885.84,265.89L886.28,266.06L886.71,266L887.15,265.97L887.58,265.92L888.02,265.89L888.45,265.89L888.88,266.19L889.32,266.16L889.75,266.11L890.19,266.08L890.62,266.03L891.06,265.97L891.49,266.08L891.92,266.22L892.36,266.33L892.79,266.49L893.23,266.41L893.66,266.3L894.1,266.57L894.53,266.49L894.97,266.38L895.4,266.3L895.83,266.22L896.27,266.14L896.7,266.33L897.14,266.33L897.57,266.25L898.01,266.16L898.44,266.41L898.87,266.38L899.31,266.27L899.74,266.19L900.18,266.16L900.61,266.11L901.05,266.08L901.48,266.03L901.91,265.97L902.35,266.11L902.78,266.52L903.22,266.63L903.65,266.57L904.09,266.52L904.52,266.73L904.96,266.79L905.39,266.73L905.82,266.71L906.26,266.65L906.69,266.63L907.13,266.84L907.56,267.22L908,267.14L908.43,267.03L908.86,266.95L909.3,266.87L909.73,266.79L910.17,266.71L910.6,266.63L911.04,266.54L911.47,266.92L911.91,267.17L912.34,267.36L912.77,267.41L913.21,267.33L913.64,267.25L914.08,267.17L914.51,267.19L914.95,267.22L915.38,267.22L915.81,267.22L916.25,267.49L916.68,267.68L917.12,267.9L917.55,268.06L917.99,268.28L918.42,268.28L918.85,268.31L919.29,268.33L919.72,268.33L920.16,268.36L920.59,268.63L921.03,268.71L921.46,268.69L921.9,268.9L922.33,268.98L922.76,268.9L923.2,268.82L923.63,269.04L924.07,269.12L924.5,269.12L924.94,269.15L925.37,269.44L925.8,269.61L926.24,269.61L926.67,269.66L927.11,269.93L927.54,269.91L927.98,269.85L928.41,269.8L928.84,269.74L929.28,269.66L929.71,269.8L930.15,269.93L930.58,270.26L931.02,270.34L931.45,270.37L931.89,270.37L932.32,270.39L932.75,270.66L933.19,270.66L933.62,270.61L934.06,270.56L934.49,270.56L934.93,270.53L935.36,270.72L935.79,270.85L936.23,270.8L936.66,270.72L937.1,270.88L937.53,270.99L937.97,271.02L938.4,271.04L938.84,271.1L939.27,271.4L939.7,271.42L940.14,271.45L940.57,271.45L941.01,271.69L941.44,271.72L941.88,271.67L942.31,271.61L942.74,271.56L943.18,271.48L943.61,271.42L944.05,271.4L944.48,271.34L944.92,271.32L945.35,271.29L945.78,271.29L946.22,271.94L946.65,272.35L947.09,272.37L947.52,272.35L947.96,272.35L948.39,272.37L948.83,272.35L949.26,272.35L949.69,272.35L950.13,272.35L950.56,272.35L951,272.32L951.43,272.62L951.87,272.91L952.3,272.94L952.73,272.89L953.17,272.86L953.6,272.78L954.04,272.7L954.47,272.62L954.91,272.53L955.34,272.45L955.77,272.37L956.21,272.56L956.64,272.62L957.08,272.7L957.51,272.81L957.95,272.72L958.38,272.64L958.82,272.53L959.25,272.45L959.68,272.35L960.12,272.26L960.55,272.18L960.99,272.1L961.42,272.02L961.86,272.13L962.29,272.18L962.72,272.1L963.16,272.07L963.59,272.29L964.03,272.24L964.46,272.18L964.9,272.4L965.33,272.35L965.76,272.26L966.2,272.18L966.63,272.35L967.07,272.43L967.5,272.35L967.94,272.24L968.37,272.29L968.81,272.45L969.24,272.37L969.67,272.29L970.11,272.21L970.54,272.13L970.98,272.05L971.41,272.26L971.85,272.29L972.28,272.18L972.71,272.1L973.15,272.02L973.58,272.02L974.02,272.21L974.45,272.13L974.89,272.05L975.32,271.97L975.76,271.88L976.19,272.1L976.62,272.13L977.06,272.05L977.49,271.97L977.93,271.88L978.36,271.83L978.8,271.86L979.23,272.1L979.66,272.13L980.1,272.32L980.53,272.32L980.97,272.53L981.4,272.64L981.84,272.59L982.27,272.56L982.7,272.51L983.14,272.45L983.57,272.43L984.01,272.37L984.44,272.62L984.88,272.64L985.31,272.62L985.75,272.72L986.18,272.83L986.61,272.75L987.05,272.83L987.48,272.97L987.92,272.97L988.35,272.97L988.79,273L989.22,273.05L989.65,273.32L990.09,273.46L990.52,273.65L990.96,273.56L991.39,273.51L991.83,273.43L992.26,273.35L992.69,273.27L993.13,273.21L993.56,273.21L994,273.29L994.43,273.48L994.87,273.48L995.3,273.48L995.74,273.89L996.17,274.13L996.6,274.05L997.04,274L997.47,273.92L997.91,273.84L998.34,273.78L998.78,273.7L999.21,273.62L999.64,273.54L1000.1,273.48L1000.5,273.4L1000.9,273.43L1001.4,273.86L1001.8,274.13L1002.3,274.24L1002.7,274.19L1003.1,274.11L1003.6,274.05L1004,273.97L1004.4,273.92L1004.9,273.84L1005.3,273.78L1005.7,273.7L1006.2,273.62L1006.6,273.56L1007,273.81L1007.5,273.75L1007.9,273.7L1008.3,273.86L1008.8,273.92L1009.2,273.97L1009.6,274.13L1010.1,274.11L1010.5,274.08L1010.9,274.05L1011.4,274.05L1011.8,274.05L1012.2,274.35L1012.7,274.49L1013.1,274.54L1013.5,274.78L1014,274.87L1014.4,274.84L1014.8,274.78L1015.3,274.76L1015.7,274.73L1016.2,274.7L1016.6,274.84L1017,275.06L1017.5,275.11L1017.9,275.33L1018.3,275.81L1018.8,275.84L1019.2,275.81L1019.6,275.79L1020.1,275.76L1020.5,275.71L1020.9,275.65L1021.4,275.57L1021.8,275.52L1022.2,275.46L1022.7,275.38L1023.1,275.33L1023.5,275.25L1024,275.19L1024.4,275.52L1024.8,275.76L1025.3,275.71L1025.7,275.65L1026.1,275.63L1026.6,275.87L1027,275.9L1027.4,275.9L1027.9,275.92L1028.3,275.95L1028.7,275.95L1029.2,275.95L1029.6,276.22L1030,276.36L1030.5,276.55L1030.9,276.63L1031.4,276.57L1031.8,276.49L1032.2,276.44L1032.7,276.36L1033.1,276.3L1033.5,276.22L1034,276.14L1034.4,276.09L1034.8,276L1035.3,275.92L1035.7,276.14L1036.1,276.52L1036.6,276.52L1037,276.55L1037.4,276.55L1037.9,276.82L1038.3,276.82L1038.7,276.74L1039.2,276.68L1039.6,276.6L1040,276.52L1040.5,276.44L1040.9,276.38L1041.3,276.28L1041.8,276.22L1042.2,276.41L1042.6,276.44L1043.1,276.36L1043.5,276.25L1043.9,276.19L1044.4,276.09L1044.8,276L1045.3,275.95L1045.7,275.84L1046.1,275.76L1046.6,275.68L1047,275.73L1047.4,275.87L1047.9,275.79L1048.3,275.71L1048.7,275.65L1049.2,275.54L1049.6,275.73L1050,275.76L1050.5,275.68L1050.9,275.6L1051.3,275.68L1051.8,275.81L1052.2,275.76L1052.6,275.71L1053.1,275.68L1053.5,275.63L1053.9,275.57L1054.4,275.54L1054.8,275.71L1055.2,275.84L1055.7,275.81L1056.1,275.84L1056.5,275.81L1057,275.98L1057.4,276.17L1057.8,276.17L1058.3,276.17L1058.7,276.17L1059.2,276.17L1059.6,276.14L1060,276.14L1060.5,276.25L1060.9,276.6L1061.3,276.71L1061.8,276.71L1062.2,276.66L1062.6,276.63L1063.1,276.55L1063.5,276.49L1063.9,276.44L1064.4,276.49L1064.8,276.66L1065.2,276.6L1065.7,276.57L1066.1,276.57L1066.5,276.74L1067,276.9L1067.4,276.9L1067.8,276.87L1068.3,277.03L1068.7,277.17L1069.1,277.17L1069.6,277.17L1070,277.17L1070.4,277.2L1070.9,277.2L1071.3,277.55L1071.7,277.9L1072.2,277.88L1072.6,277.79L1073.1,277.71L1073.5,277.66L1073.9,277.58L1074.4,277.52L1074.8,277.44L1075.2,277.47L1075.7,277.69L1076.1,277.74L1076.5,277.74L1077,278.01L1077.4,278.09L1077.8,278.09L1078.3,278.09L1078.7,278.12L1079.1,278.12L1079.6,278.25L1080,278.44" style="fill:none;stroke:#F15A60;stroke-width:1.875" />
<path d="M60.137,53.156L60.572,58.605L61.006,63.891L61.441,69.014L61.875,74.056L62.309,78.366L62.744,83.272L63.178,88.206L63.612,93.383L64.047,98.127L64.481,102.79L64.915,107.4L65.35,111.38L65.784,115.72L66.218,120.3L66.653,124.75L67.087,129.03L67.522,133.31L67.956,137.49L68.39,140.98L68.825,145.1L69.259,149.09L69.693,153.15L70.128,156.9L70.562,160.8L70.996,164.81L71.431,168.01L71.865,171.48L72.299,175L72.734,178.42L73.168,181.92L73.602,185.25L74.037,188.56L74.471,191.24L74.906,194.28L75.34,197.56L75.774,200.54L76.209,203.71L76.643,206.77L77.077,209.67L77.512,211.84L77.946,214.96L78.38,217.56L78.815,220.38L79.249,223.2L79.683,225.91L80.118,228.57L80.552,230.98L80.986,233.61L81.421,236.37L81.855,238.76L82.29,241.2L82.724,243.96L83.158,246.05L83.593,248.11L84.027,250.42L84.461,252.61L84.896,255.16L85.33,257.73L85.764,259.88L86.199,262.1L86.633,264.27L87.067,266.19L87.502,268.39L87.936,270.58L88.37,272.81L88.805,274.97L89.239,277.14L89.674,279.58L90.108,281.43L90.542,283.54L90.977,285.68L91.411,287.77L91.845,289.86L92.28,291.84L92.714,293.71L93.148,295.12L93.583,297.09L94.017,299.1L94.451,301.08L94.886,303L95.32,305.14L95.755,306.74L96.189,308.75L96.623,310.08L97.058,311.65L97.492,313.55L97.926,315.39L98.361,316.83L98.795,318.64L99.229,320.35L99.664,321.71L100.1,323.31L100.53,324.8L100.97,326.64L101.4,328.32L101.84,329.46L102.27,331.19L102.7,332.5L103.14,333.47L103.57,335.23L104.01,337.1L104.44,338.19L104.88,339.87L105.31,341.33L105.74,343.01L106.18,344.48L106.61,345.21L107.05,346.84L107.48,348L107.92,349.19L108.35,350.82L108.79,351.88L109.22,353.4L109.65,354.64L110.09,355.75L110.52,356.97L110.96,358.55L111.39,359.79L111.83,361.26L112.26,362.45L112.69,363.62L113.13,364.67L113.56,365.95L114,367.27L114.43,368.49L114.87,369.69L115.3,370.91L115.73,372.02L116.17,373.08L116.6,373.54L117.04,374.67L117.47,375.54L117.91,376.84L118.34,378.12L118.78,378.98L119.21,380.02L119.64,380.83L120.08,381.67L120.51,382.94L120.95,384.03L121.38,385.19L121.82,386.25L122.25,387.23L122.68,388.23L123.12,389.2L123.55,389.91L123.99,391.07L124.42,392.16L124.86,393.03L125.29,394.25L125.72,395.14L126.16,396.25L126.59,396.63L127.03,397.85L127.46,398.69L127.9,399.75L128.33,400.75L128.77,401.46L129.2,402.41L129.63,403.06L130.07,403.95L130.5,405.06L130.94,405.74L131.37,406.77L131.81,407.47L132.24,408.61L132.67,409.24L133.11,409.7L133.54,410.29L133.98,411.41L134.41,412.25L134.85,413.14L135.28,414.17L135.72,414.9L136.15,415.9L136.58,416.34L137.02,417.37L137.45,418.02L137.89,419.05L138.32,419.56L138.76,420.3L139.19,420.81L139.62,421.73L140.06,422.38L140.49,423.44L140.93,424.09L141.36,425.01L141.8,425.61L142.23,426.04L142.66,426.67L143.1,427.13L143.53,428.13L143.97,428.73L144.4,429.21L144.84,430.03L145.27,430.68L145.71,431.25L146.14,432.3L146.57,432.39L147.01,433.06L147.44,433.74L147.88,434.45L148.31,435.31L148.75,435.88L149.18,436.67L149.61,436.99L150.05,437.92L150.48,438.49L150.92,439.08L151.35,439.81L151.79,440.55L152.22,441.25L152.65,441.9L153.09,442.12L153.52,442.8L153.96,443.77L154.39,444.37L154.83,445.42L155.26,445.4L155.7,446.08L156.13,447L156.56,446.97L157,447.81L157.43,448.38L157.87,449.11L158.3,449.65L158.74,449.98L159.17,451.01L159.6,451.61L160.04,451.71L160.47,452.45L160.91,453.04L161.34,453.39L161.78,453.94L162.21,454.78L162.64,454.94L163.08,455.59L163.51,456.32L163.95,456.46L164.38,457.08L164.82,457.89L165.25,458.44L165.69,459.22L166.12,459.49L166.55,459.9L166.99,460.44L167.42,460.82L167.86,461.61L168.29,462.07L168.73,462.34L169.16,463.45L169.59,463.88L170.03,463.8L170.46,464.4L170.9,465.1L171.33,465.46L171.77,465.78L172.2,466.54L172.64,467.11L173.07,467.22L173.5,467.54L173.94,468.49L174.37,468.47L174.81,469.04L175.24,470.07L175.68,470.01L176.11,470.63L176.54,471.77L176.98,471.69L177.41,472.45L177.85,473.24L178.28,473.62L178.72,474.1L179.15,474.86L179.58,475.62L180.02,475.6L180.45,476.71L180.89,477.36L181.32,477.44L181.76,477.98L182.19,478.58L182.63,479.36L183.06,479.77L183.49,480.56L183.93,481.23L184.36,481.69L184.8,481.83L185.23,482.48L185.67,483.46L186.1,483.59L186.53,484.3L186.97,484.97L187.4,485.35L187.84,485.27L188.27,486.03L188.71,487.25L189.14,487.28L189.57,487.66L190.01,488.42L190.44,489.15L190.88,489.01L191.31,489.96L191.75,490.42L192.18,490.99L192.62,491.1L193.05,491.99L193.48,492.75L193.92,492.86L194.35,493.24L194.79,493.87L195.22,494.57L195.66,494.73L196.09,494.92L196.52,495.68L196.96,496.44L197.39,496.82L197.83,496.82L198.26,497.47L198.7,498.31L199.13,498.55L199.57,498.69L200,499.34" style="fill:none;stroke:#7AC36A;stroke-width:1.875;stroke-dasharray:7.5,2.5" />
<path d="M60.137,49.388L60.572,55.813L61.006,62.237L61.441,69.095L61.875,76.767L62.309,85.224L62.744,93.194L63.178,101.89L63.612,110.95L64.047,119.27L64.481,127.62L64.915,137.7L65.35,147.35L65.784,152.91L66.218,157.11L66.653,159.42L67.087,159.36L67.522,159.42L67.956,159.55L68.39,161.88L68.825,165.33L69.259,167.17L69.693,167.03L70.128,166.76L70.562,166.52L70.996,167.2L71.431,169.85L71.865,173.46L72.299,172.78L72.734,172.13L73.168,171.4L73.602,170.67L74.037,170.04L74.471,169.42L74.906,168.74L75.34,168.06L75.774,167.3L76.209,166.44L76.643,165.62L77.077,164.76L77.512,163.89L77.946,163.05L78.38,162.13L78.815,161.23L79.249,160.34L79.683,159.47L80.118,158.63L80.552,157.76L80.986,156.92L81.421,156.08L81.855,155.27L82.29,154.46L82.724,153.67L83.158,152.91L83.593,152.12L84.027,151.37L84.461,150.61L84.896,149.87L85.33,149.14L85.764,148.44L86.199,147.76L86.633,149.6L87.067,153.72L87.502,160.26L87.936,166.63L88.37,174.11L88.805,181.54L89.239,188.83L89.674,196.53L90.108,203.14L90.542,210.84L90.977,218L91.411,225.26L91.845,232.8L92.28,237.92L92.714,243.86L93.148,247.43L93.583,249.87L94.017,250.55L94.451,250.82L94.886,252.86L95.32,254.89L95.755,255.92L96.189,259.14L96.623,260.61L97.058,262.29L97.492,263.91L97.926,264.54L98.361,263.81L98.795,263.1L99.229,262.64L99.664,263.62L100.1,264.57L100.53,265.43L100.97,267.41L101.4,267.25L101.84,266.6L102.27,266L102.7,265.32L103.14,265.05L103.57,265.76L104.01,266.57L104.44,267.66L104.88,268.88L105.31,269.04L105.74,268.28L106.18,267.49L106.61,267.55L107.05,268.69L107.48,270.01L107.92,270.8L108.35,271.99L108.79,271.15L109.22,270.29L109.65,269.42L110.09,268.55L110.52,267.66L110.96,266.82L111.39,265.95L111.83,265.13L112.26,264.32L112.69,265L113.13,267.36L113.56,271.23L114,276.49L114.43,281.62L114.87,286.74L115.3,293.06L115.73,298.69L116.17,303.27L116.6,307.12L117.04,309.97L117.47,311.95L117.91,313.01L118.34,313.58L118.78,315.39L119.21,318.4L119.64,321.84L120.08,326.48L120.51,332.01L120.95,338.32L121.38,343.58L121.82,348.95L122.25,354.24L122.68,359.06L123.12,363.02L123.55,367.08L123.99,371.39L124.42,375.35L124.86,377.95L125.29,381.42L125.72,383.4L126.16,385.44L126.59,385.63L127.03,386.49L127.46,385.6L127.9,384.46L128.33,384.43L128.77,385.08L129.2,386.36L129.63,386.52L130.07,387.58L130.5,387.93L130.94,388.09L131.37,388.01L131.81,388.17L132.24,388.26L132.67,388.77L133.11,389.67L133.54,389.69L133.98,390.45L134.41,391.21L134.85,391.16L135.28,391.18L135.72,392.16L136.15,392.19L136.58,392.62L137.02,392.95L137.45,392.16L137.89,391.1L138.32,390.56L138.76,391.59L139.19,393L139.62,395.09L140.06,397.28L140.49,399.88L140.93,402.97L141.36,406.99L141.8,410.35L142.23,413.33L142.66,416.99L143.1,418.53L143.53,420.19L143.97,422.65L144.4,426.75L144.84,427.7L145.27,429.84L145.71,431.41L146.14,433.42L146.57,435.37L147.01,438.11L147.44,441.85L147.88,443.34L148.31,447.19L148.75,450.25L149.18,454.59L149.61,457.08L150.05,459.28L150.48,463.18L150.92,467L151.35,469.85L151.79,471.94L152.22,473.62L152.65,475.81L153.09,476.98L153.52,478.44L153.96,480.5L154.39,483L154.83,486.55L155.26,489.47L155.7,492.84L156.13,495L156.56,498.15L157,500.32L157.43,502.97L157.87,504.84L158.3,506.04L158.74,509.21L159.17,510.51L159.6,512.3L160.04,512.84L160.47,512.49L160.91,512.16L161.34,513.08L161.78,513.14L162.21,512.95L162.64,512.84L163.08,512.6L163.51,512.27L163.95,512.08L164.38,512.05L164.82,512.65L165.25,514.36L165.69,515.44L166.12,516.72L166.55,519.45L166.99,520.51L167.42,522.95L167.86,524.85L168.29,526.88L168.73,530.49L169.16,533.5L169.59,536.1L170.03,538.75L170.46,542.01L170.9,544.37L171.33,547.13L171.77,550.09L172.2,552.17L172.64,554.34L173.07,557.78L173.5,559.6L173.94,562.23L174.37,564.4L174.81,565.56L175.24,568.14L175.68,570.88L176.11,572.88L176.54,574.78L176.98,577.74L177.41,579.66L177.85,582.05L178.28,584.78L178.72,586.98L179.15,589.96L179.58,591.78L180.02,593.81L180.45,597.33L180.89,599.45L181.32,601.18L181.76,604.06L182.19,605.85L182.63,607.15L183.06,609.18L183.49,611.32L183.93,611.75L184.36,612.43L184.8,613.41L185.23,615.12L185.67,616.72L186.1,617.72L186.53,618.64L186.97,619.18L187.4,618.72L187.84,619.32L188.27,619.97L188.71,620.73L189.14,621.3L189.57,622.62L190.01,624.33L190.44,625.71L190.88,627.67L191.31,629.35L191.75,630.35L192.18,632.46L192.62,633.87L193.05,635.39L193.48,638.27L193.92,639.89L194.35,641.19L194.79,644.26L195.22,645.86L195.66,646.94L196.09,650.03L196.52,651.52L196.96,652.98L197.39,654.86L197.83,656.7L198.26,658.27L198.7,659.57L199.13,660.06L199.57,661.41L200,662.2L200.43,663.61L200.87,664.18L201.3,665.32L201.74,665.89L202.17,666.65L202.61,668.03L203.04,668.76L203.47,669.71L203.91,671.55L204.34,672.1L204.78,673.26L205.21,674.64L205.65,676.62L206.08,678.79L206.51,681.85L206.95,684.54L207.38,686.68L207.82,688.68L208.25,691.29L208.69,693.21L209.12,695.22L209.56,696.68" style="fill:none;stroke:#5A9BD4;stroke-width:1.875;stroke-dasharray:2.5,2.5" />
<path d="M60.137,47.03L60.572,53.888L61.006,63.972L61.441,71.996L61.875,79.044L62.309,87.338L62.744,94.197L63.178,100.3L63.612,106.45L64.047,112.98L64.481,118.48L64.915,123.69L65.35,130.11L65.784,137.46L66.218,143.02L66.653,148.55L67.087,155.38L67.522,161.5L67.956,167.36L68.39,173.65L68.825,178.36L69.259,183.27L69.693,191.86L70.128,197.53L70.562,202.25L70.996,207.75L71.431,213.01L71.865,219.46L72.299,224.31L72.734,228.59L73.168,234.5L73.602,238.71L74.037,243.2L74.471,247.57L74.906,252.99L75.34,258.09L75.774,262.61L76.209,270.58L76.643,274.19L77.077,276.84L77.512,279.91L77.946,284.54L78.38,288.47L78.815,291.27L79.249,293.19L79.683,297.47L80.118,298.94L80.552,301.32L80.986,305.12L81.421,314.39L81.855,315.15L82.29,317.07L82.724,319.59L83.158,322.01L83.593,325.85L84.027,329.87L84.461,333.47L84.896,336.86L85.33,339.79L85.764,342.09L86.199,345.02L86.633,348.44L87.067,352.31L87.502,355.13L87.936,357.98L88.37,361.04L88.805,363.62L89.239,365.73L89.674,367.63L90.108,370.88L90.542,373.18L90.977,373.97L91.411,373.62L91.845,373.89L92.28,375.08L92.714,375.95L93.148,376.82L93.583,378.69L94.017,380.69L94.451,383.16L94.886,385.46L95.32,387.33L95.755,390.26L96.189,392.1L96.623,394.73L97.058,397.23L97.492,401.24L97.926,402.35L98.361,403.06L98.795,405.79L99.229,409.32L99.664,414.17L100.1,419.48L100.53,422.79L100.97,423.74L101.4,425.23L101.84,426.31L102.27,427.48L102.7,429.08L103.14,430.76L103.57,432.85L104.01,434.96L104.44,435.86L104.88,437.29L105.31,437.29L105.74,436.51L106.18,435.21L106.61,433.47L107.05,434.34L107.48,435.86L107.92,437.59L108.35,440L108.79,442.44L109.22,445.05L109.65,447.32L110.09,449.65L110.52,451.9L110.96,453.83L111.39,456.24L111.83,459.44L112.26,463.59L112.69,466.41L113.13,470.25L113.56,473.24L114,474.35L114.43,476.14L114.87,478.39L115.3,480.72L115.73,482.75L116.17,482.83L116.6,483.46L117.04,484.68L117.47,485.6L117.91,486.44L118.34,487.87L118.78,487.87L119.21,488.36L119.64,489.07L120.08,490.99L120.51,492.59L120.95,494.49L121.38,496.12L121.82,497.63L122.25,498.53L122.68,499.15L123.12,500.24L123.55,501.24L123.99,502.32L124.42,503.41L124.86,504.9L125.29,506.5L125.72,508.18L126.16,509.24L126.59,509.53L127.03,508.88L127.46,508.34L127.9,509.91L128.33,511.27L128.77,512.46L129.2,512.98L129.63,513L130.07,513.73L130.5,514.01L130.94,514.41L131.37,515.06L131.81,515.55L132.24,517.26L132.67,518.89L133.11,520.48L133.54,522.19L133.98,523.71L134.41,525.72L134.85,526.94L135.28,528.59L135.72,529.43L136.15,532.76L136.58,536.8L137.02,540.44L137.45,544.15L137.89,545.21L138.32,545.45L138.76,546.59L139.19,547.78" style="fill:none;stroke:#FAA75B;stroke-width:1.875;stroke-dasharray:1.25,1.25" />
<path d="M1055,694.3L1080,694.3" style="fill:none;stroke:#FAA75B;stroke-width:1.875;stroke-dasharray:1.25,1.25" />
<text x="1035.8" y="-687.85" transform="scale(1, -1)"
	style="font-family:Helvetica;font-weight:normal;font-style:normal;font-size:12pt">zk</text>
<path d="M1055,680L1080,680" style="fill:none;stroke:#F15A60;stroke-width:1.875" />
<text x="1007.5" y="-673.56" transform="scale(1, -1)"
	style="font-family:Helvetica;font-weight:normal;font-style:normal;font-size:12pt">consul</text>
<path d="M1055,665.71L1080,665.71" style="fill:none;stroke:#7AC36A;stroke-width:1.875;stroke-dasharray:7.5,2.5" />
<text x="1014.1" y="-659.26" transform="scale(1, -1)"
	style="font-family:Helvetica;font-weight:normal;font-style:normal;font-size:12pt">etcd3</text>
<path d="M1055,651.41L1080,651.41" style="fill:none;stroke:#5A9BD4;stroke-width:1.875;stroke-dasharray:2.5,2.5" />
<text x="1014.1" y="-644.97" transform="scale(1, -1)"
	style="font-family:Helvetica;font-weight:normal;font-style:normal;font-size:12pt">etcd2</text>
</g>
</svg>
