<?xml version="1.0"?>
<!-- Generated by SVGo and Plotinum VG -->
<svg width="12in" height="8in"
	xmlns="http://www.w3.org/2000/svg"
	xmlns:xlink="http://www.w3.org/1999/xlink">
<g transform="scale(1, -1) translate(0, -720)">
<path d="M0,0L1080,0L1080,720L0,720Z" style="fill:#FFFFFF" />
<text x="286.96" y="-706.41" transform="scale(1, -1)"
	style="font-family:Helvetica;font-weight:normal;font-style:normal;font-size:12pt">Read single key 1M times, 100 clients, key 64 bytes, value 1 kb, Throughput</text>
<text x="553.5" y="-4.965" transform="scale(1, -1)"
	style="font-family:Helvetica;font-weight:normal;font-style:normal;font-size:12pt">Second</text>
<text x="81.337" y="-19.142" transform="scale(1, -1)"
	style="font-family:Helvetica;font-weight:normal;font-style:normal;font-size:10pt">0</text>
<text x="410.75" y="-19.142" transform="scale(1, -1)"
	style="font-family:Helvetica;font-weight:normal;font-style:normal;font-size:10pt">8</text>
<text x="736.69" y="-19.142" transform="scale(1, -1)"
	style="font-family:Helvetica;font-weight:normal;font-style:normal;font-size:10pt">16</text>
<text x="1066.1" y="-19.142" transform="scale(1, -1)"
	style="font-family:Helvetica;font-weight:normal;font-style:normal;font-size:10pt">24</text>
<path d="M84.812,30.467L84.812,40.467" style="fill:none;stroke:#000000;stroke-width:0.625" />
<path d="M414.23,30.467L414.23,40.467" style="fill:none;stroke:#000000;stroke-width:0.625" />
<path d="M743.64,30.467L743.64,40.467" style="fill:none;stroke:#000000;stroke-width:0.625" />
<path d="M1073,30.467L1073,40.467" style="fill:none;stroke:#000000;stroke-width:0.625" />
<path d="M249.52,35.468L249.52,40.467" style="fill:none;stroke:#000000;stroke-width:0.625" />
<path d="M578.93,35.468L578.93,40.467" style="fill:none;stroke:#000000;stroke-width:0.625" />
<path d="M908.34,35.468L908.34,40.467" style="fill:none;stroke:#000000;stroke-width:0.625" />
<path d="M84.812,40.467L1073,40.467" style="fill:none;stroke:#000000;stroke-width:0.625" />
<g transform="rotate(90)">
<text x="335.88" y="13.59" transform="scale(1, -1)"
	style="font-family:Helvetica;font-weight:normal;font-style:normal;font-size:12pt">Throughput</text>
</g>
<text x="28.98" y="-129.34" transform="scale(1, -1)"
	style="font-family:Helvetica;font-weight:normal;font-style:normal;font-size:10pt">3e+04</text>
<text x="28.98" y="-298.91" transform="scale(1, -1)"
	style="font-family:Helvetica;font-weight:normal;font-style:normal;font-size:10pt">6e+04</text>
<text x="28.98" y="-468.47" transform="scale(1, -1)"
	style="font-family:Helvetica;font-weight:normal;font-style:normal;font-size:10pt">9e+04</text>
<text x="18.555" y="-638.04" transform="scale(1, -1)"
	style="font-family:Helvetica;font-weight:normal;font-style:normal;font-size:10pt">1.2e+05</text>
<path d="M67.555,134.71L77.555,134.71" style="fill:none;stroke:#000000;stroke-width:0.625" />
<path d="M67.555,304.27L77.555,304.27" style="fill:none;stroke:#000000;stroke-width:0.625" />
<path d="M67.555,473.84L77.555,473.84" style="fill:none;stroke:#000000;stroke-width:0.625" />
<path d="M67.555,643.41L77.555,643.41" style="fill:none;stroke:#000000;stroke-width:0.625" />
<path d="M72.555,78.185L77.555,78.185" style="fill:none;stroke:#000000;stroke-width:0.625" />
<path d="M72.555,191.23L77.555,191.23" style="fill:none;stroke:#000000;stroke-width:0.625" />
<path d="M72.555,247.75L77.555,247.75" style="fill:none;stroke:#000000;stroke-width:0.625" />
<path d="M72.555,360.8L77.555,360.8" style="fill:none;stroke:#000000;stroke-width:0.625" />
<path d="M72.555,417.32L77.555,417.32" style="fill:none;stroke:#000000;stroke-width:0.625" />
<path d="M72.555,530.36L77.555,530.36" style="fill:none;stroke:#000000;stroke-width:0.625" />
<path d="M72.555,586.89L77.555,586.89" style="fill:none;stroke:#000000;stroke-width:0.625" />
<path d="M72.555,699.93L77.555,699.93" style="fill:none;stroke:#000000;stroke-width:0.625" />
<path d="M77.555,47.03L77.555,701.44" style="fill:none;stroke:#000000;stroke-width:0.625" />
<path d="M84.812,304.52L125.99,276.13L167.17,237.95L208.34,242.73L249.52,238.11L290.7,240.04L331.87,239.12L373.05,238.47L414.23,237.81L455.4,240.24L496.58,235.31L537.75,236.37L578.93,238.24L620.11,234.01L661.28,245.57L702.46,238.64L743.64,237.93L784.81,238.11L825.99,238.8L867.17,240.34" style="fill:none;stroke:#F15A60;stroke-width:1.875" />
<path d="M84.812,47.03L125.99,224.69L167.17,422.37L208.34,657.52L249.52,671.29L290.7,659.29L331.87,654.85L373.05,681.81L414.23,701.44" style="fill:none;stroke:#7AC36A;stroke-width:1.875;stroke-dasharray:7.5,2.5" />
<path d="M84.812,132.61L125.99,195.18L167.17,197.25L208.34,198.91L249.52,198.23L290.7,203.03L331.87,201.73L373.05,172.63L414.23,88.45L455.4,118.16L496.58,196.63L537.75,201.45L578.93,196.33L620.11,201.64L661.28,200.57L702.46,201.26L743.64,197.25L784.81,202.74L825.99,197.76L867.17,200.27L908.34,204.5L949.52,200.01L990.7,201.61L1031.9,200.25L1073,198.61" style="fill:none;stroke:#5A9BD4;stroke-width:1.875;stroke-dasharray:2.5,2.5" />
<path d="M1055,694.3L1080,694.3" style="fill:none;stroke:#F15A60;stroke-width:1.875" />
<text x="1002.5" y="-687.85" transform="scale(1, -1)"
	style="font-family:Helvetica;font-weight:normal;font-style:normal;font-size:12pt">etcd v3</text>
<path d="M1055,680L1080,680" style="fill:none;stroke:#7AC36A;stroke-width:1.875;stroke-dasharray:7.5,2.5" />
<text x="941.6" y="-673.56" transform="scale(1, -1)"
	style="font-family:Helvetica;font-weight:normal;font-style:normal;font-size:12pt">Zookeeper 3.4.8</text>
<path d="M1055,665.71L1080,665.71" style="fill:none;stroke:#5A9BD4;stroke-width:1.875;stroke-dasharray:2.5,2.5" />
<text x="966.62" y="-659.26" transform="scale(1, -1)"
	style="font-family:Helvetica;font-weight:normal;font-style:normal;font-size:12pt">Consul 0.6.4</text>
</g>
</svg>
