<?xml version="1.0"?>
<!-- Generated by SVGo and Plotinum VG -->
<svg width="12in" height="8in"
	xmlns="http://www.w3.org/2000/svg"
	xmlns:xlink="http://www.w3.org/1999/xlink">
<g transform="scale(1, -1) translate(0, -720)">
<path d="M0,0L1080,0L1080,720L0,720Z" style="fill:#FFFFFF" />
<text x="306.17" y="-706.41" transform="scale(1, -1)"
	style="font-family:Helvetica;font-weight:normal;font-style:normal;font-size:12pt">Write 1M keys, 10 clients, key 64 bytes, value 256 bytes, Memory(MB)</text>
<text x="548.11" y="-4.965" transform="scale(1, -1)"
	style="font-family:Helvetica;font-weight:normal;font-style:normal;font-size:12pt">Second</text>
<text x="63.613" y="-19.142" transform="scale(1, -1)"
	style="font-family:Helvetica;font-weight:normal;font-style:normal;font-size:10pt">0</text>
<text x="292.87" y="-19.142" transform="scale(1, -1)"
	style="font-family:Helvetica;font-weight:normal;font-style:normal;font-size:10pt">1000</text>
<text x="532.56" y="-19.142" transform="scale(1, -1)"
	style="font-family:Helvetica;font-weight:normal;font-style:normal;font-size:10pt">2000</text>
<text x="772.25" y="-19.142" transform="scale(1, -1)"
	style="font-family:Helvetica;font-weight:normal;font-style:normal;font-size:10pt">3000</text>
<text x="1011.9" y="-19.142" transform="scale(1, -1)"
	style="font-family:Helvetica;font-weight:normal;font-style:normal;font-size:10pt">4000</text>
<path d="M67.088,30.467L67.088,40.467" style="fill:none;stroke:#000000;stroke-width:0.625" />
<path d="M306.77,30.467L306.77,40.467" style="fill:none;stroke:#000000;stroke-width:0.625" />
<path d="M546.46,30.467L546.46,40.467" style="fill:none;stroke:#000000;stroke-width:0.625" />
<path d="M786.15,30.467L786.15,40.467" style="fill:none;stroke:#000000;stroke-width:0.625" />
<path d="M1025.8,30.467L1025.8,40.467" style="fill:none;stroke:#000000;stroke-width:0.625" />
<path d="M186.93,35.468L186.93,40.467" style="fill:none;stroke:#000000;stroke-width:0.625" />
<path d="M426.62,35.468L426.62,40.467" style="fill:none;stroke:#000000;stroke-width:0.625" />
<path d="M666.3,35.468L666.3,40.467" style="fill:none;stroke:#000000;stroke-width:0.625" />
<path d="M905.99,35.468L905.99,40.467" style="fill:none;stroke:#000000;stroke-width:0.625" />
<path d="M67.088,40.467L1080,40.467" style="fill:none;stroke:#000000;stroke-width:0.625" />
<g transform="rotate(90)">
<text x="330.91" y="13.59" transform="scale(1, -1)"
	style="font-family:Helvetica;font-weight:normal;font-style:normal;font-size:12pt">Memory(MB)</text>
</g>
<text x="25.505" y="-251.71" transform="scale(1, -1)"
	style="font-family:Helvetica;font-weight:normal;font-style:normal;font-size:10pt">600</text>
<text x="18.555" y="-468.62" transform="scale(1, -1)"
	style="font-family:Helvetica;font-weight:normal;font-style:normal;font-size:10pt">1200</text>
<text x="18.555" y="-685.53" transform="scale(1, -1)"
	style="font-family:Helvetica;font-weight:normal;font-style:normal;font-size:10pt">1800</text>
<path d="M49.83,257.08L59.83,257.08" style="fill:none;stroke:#000000;stroke-width:0.625" />
<path d="M49.83,473.99L59.83,473.99" style="fill:none;stroke:#000000;stroke-width:0.625" />
<path d="M49.83,690.9L59.83,690.9" style="fill:none;stroke:#000000;stroke-width:0.625" />
<path d="M54.83,112.47L59.83,112.47" style="fill:none;stroke:#000000;stroke-width:0.625" />
<path d="M54.83,184.77L59.83,184.77" style="fill:none;stroke:#000000;stroke-width:0.625" />
<path d="M54.83,329.38L59.83,329.38" style="fill:none;stroke:#000000;stroke-width:0.625" />
<path d="M54.83,401.68L59.83,401.68" style="fill:none;stroke:#000000;stroke-width:0.625" />
<path d="M54.83,546.29L59.83,546.29" style="fill:none;stroke:#000000;stroke-width:0.625" />
<path d="M54.83,618.59L59.83,618.59" style="fill:none;stroke:#000000;stroke-width:0.625" />
<path d="M59.83,47.03L59.83,701.44" style="fill:none;stroke:#000000;stroke-width:0.625" />
<path d="M67.088,53.255L67.327,56.039L67.567,57.716L67.807,58.226L68.046,58.685L68.286,59.184L68.526,59.502L68.765,59.846L69.005,60.417L69.245,60.648L69.484,61.003L69.724,61.69L69.964,62.181L70.203,62.413L70.443,62.987L70.683,63.801L70.922,63.833L71.162,64.18L71.402,64.18L71.642,64.278L71.881,64.546L72.121,64.546L72.361,64.596L72.6,65.109L72.84,65.363L73.08,65.598L73.319,66.021L73.559,66.603L73.799,66.693L74.038,67.467L74.278,67.781L74.518,68.399L74.757,68.508L74.997,68.638L75.237,68.681L75.477,68.75L75.716,68.793L75.956,68.851L76.196,68.96L76.435,68.96L76.675,69.079L76.915,69.487L77.154,69.722L77.394,69.896L77.634,70.037L77.873,70.558L78.113,71.017L78.353,71.273L78.592,71.4L78.832,71.4L79.072,71.4L79.311,71.523L79.551,71.682L79.791,71.682L80.031,71.816L80.27,71.816L80.51,72.054L80.75,72.289L80.989,72.925L81.229,73.132L81.469,73.276L81.708,73.869L81.948,74.306L82.188,74.675L82.427,74.874L82.667,74.874L82.907,74.914L83.146,75.044L83.386,75.091L83.626,75.091L83.866,75.283L84.105,75.283L84.345,75.424L84.585,75.883L84.824,75.944L85.064,75.944L85.304,76.656L85.543,77.289L85.783,77.434L86.023,77.741L86.262,77.741L86.502,77.846L86.742,77.846L86.981,77.947L87.221,78.142L87.461,78.186L87.7,78.247L87.94,78.395L88.18,78.883L88.42,79.097L88.659,79.097L88.899,79.548L89.139,79.798L89.378,80.199L89.618,80.384L89.858,80.481L90.097,80.745L90.337,80.745L90.577,80.745L90.816,80.803L91.056,80.991L91.296,81.056L91.535,81.056L91.775,81.96L92.015,82.198L92.255,82.198L92.494,82.419L92.734,82.936L92.974,83.348L93.213,83.59L93.453,83.894L93.693,83.93L93.932,84.01L94.172,84.01L94.412,84.057L94.651,84.295L94.891,84.339L95.131,84.339L95.37,84.508L95.61,85.025L95.85,85.101L96.089,85.514L96.329,85.756L96.569,86.641L96.809,86.674L97.048,87.083L97.288,87.083L97.528,87.119L97.767,87.166L98.007,87.166L98.247,87.321L98.486,87.552L98.726,87.643L98.966,87.643L99.205,88.153L99.445,88.174L99.685,88.236L99.924,88.644L100.16,88.818L100.4,89.168L100.64,89.87L100.88,89.938L101.12,90.029L101.36,90.029L101.6,90.17L101.84,90.17L102.08,90.336L102.32,90.394L102.56,90.394L102.8,90.463L103.04,91.189L103.28,91.189L103.52,91.46L103.76,91.63L104,92.444L104.24,92.737L104.48,93.131L104.72,93.409L104.96,93.565L105.2,93.565L105.44,93.565L105.68,93.565L105.92,93.648L106.16,93.648L106.4,93.705L106.64,93.705L106.88,93.901L107.12,94.183L107.35,94.28L107.59,94.815L107.83,95.56L108.07,95.712L108.31,96.07L108.55,96.392L108.79,96.496L109.03,96.561L109.27,96.561L109.51,96.706L109.75,96.782L109.99,96.887L110.23,96.887L110.47,97.068L110.71,97.068L110.95,97.404L111.19,97.483L111.43,97.899L111.67,98.904L111.91,99.07L112.15,99.07L112.39,99.208L112.63,99.208L112.87,99.208L113.11,99.302L113.35,99.414L113.59,99.464L113.83,99.584L114.07,99.689L114.31,100.06L114.55,100.12L114.78,100.76L115.02,100.93L115.26,101.61L115.5,101.92L115.74,102.54L115.98,102.78L116.22,103L116.46,103.04L116.7,103.06L116.94,103.06L117.18,103.06L117.42,103.18L117.66,103.18L117.9,103.34L118.14,103.56L118.38,103.61L118.62,103.61L118.86,104.46L119.1,104.96L119.34,105.08L119.58,105.22L119.82,105.36L120.06,105.41L120.3,105.6L120.54,105.72L120.78,105.88L121.02,105.95L121.26,106.19L121.5,106.58L121.74,106.88L121.98,106.88L122.22,106.88L122.45,107.65L122.69,107.96L122.93,108.21L123.17,108.3L123.41,108.7L123.65,108.7L123.89,108.7L124.13,108.75L124.37,109.03L124.61,109.09L124.85,109.14L125.09,109.25L125.33,109.68L125.57,109.68L125.81,110.12L126.05,110.12L126.29,110.42L126.53,110.97L126.77,111.08L127.01,111.44L127.25,111.85L127.49,111.9L127.73,111.93L127.97,112.05L128.21,112.1L128.45,112.18L128.69,112.23L128.93,112.88L129.17,113.12L129.41,113.38L129.65,113.68L129.89,114.03L130.12,114.06L130.36,114.06L130.6,114.06L130.84,114.06L131.08,114.06L131.32,114.06L131.56,114.13L131.8,114.24L132.04,114.34L132.28,114.34L132.52,114.52L132.76,114.7L133,114.94L133.24,115.04L133.48,115.27L133.72,115.34L133.96,116.43L134.2,117.07L134.44,117.17L134.68,117.52L134.92,117.96L135.16,118.12L135.4,118.12L135.64,118.18L135.88,118.26L136.12,118.57L136.36,118.77L136.6,118.77L136.84,118.77L137.08,119.24L137.32,119.43L137.56,119.43L137.79,119.75L138.03,120.58L138.27,121.24L138.51,121.52L138.75,121.56L138.99,121.61L139.23,121.76L139.47,121.76L139.71,121.76L139.95,121.76L140.19,122.04L140.43,122.21L140.67,122.42L140.91,122.71L141.15,122.79L141.39,123.32L141.63,123.4L141.87,123.81L142.11,124.07L142.35,124.17L142.59,124.22L142.83,124.43L143.07,124.47L143.31,124.54L143.55,124.87L143.79,125.2L144.03,125.2L144.27,125.29L144.51,125.29L144.75,126.12L144.99,126.12L145.23,126.25L145.46,126.25L145.7,126.68L145.94,127.43L146.18,127.65L146.42,127.65L146.66,127.72L146.9,127.84L147.14,127.97L147.38,128.04L147.62,128.62L147.86,128.62L148.1,128.79L148.34,128.94L148.58,128.98L148.82,129.21L149.06,129.36L149.3,129.61L149.54,130.49L149.78,130.63L150.02,130.72L150.26,130.87L150.5,131.09L150.74,131.17L150.98,131.21L151.22,131.59L151.46,131.59L151.7,131.9L151.94,131.99L152.18,132.18L152.42,132.27L152.66,132.4L152.9,133.24L153.13,133.71L153.37,133.71L153.61,133.8L153.85,134.08L154.09,134.28L154.33,134.44L154.57,134.47L154.81,134.47L155.05,134.72L155.29,134.85L155.53,135.27L155.77,135.27L156.01,135.52L156.25,135.52L156.49,135.88L156.73,136.45L156.97,136.53L157.21,136.68L157.45,136.74L157.69,136.94L157.93,137.23L158.17,137.32L158.41,137.32L158.65,137.54L158.89,137.54L159.13,137.61L159.37,138.38L159.61,138.54L159.85,138.62L160.09,138.83L160.33,139.03L160.56,140.41L160.8,140.48L161.04,140.54L161.28,140.54L161.52,140.84L161.76,141.12L162,141.18L162.24,141.3L162.48,141.3L162.72,141.35L162.96,141.35L163.2,141.56L163.44,141.56L163.68,141.8L163.92,142.3L164.16,142.36L164.4,143.24L164.64,143.8L164.88,143.8L165.12,143.85L165.36,143.9L165.6,143.9L165.84,144.12L166.08,144.33L166.32,144.49L166.56,144.49L166.8,144.49L167.04,144.54L167.28,144.93L167.52,145.26L167.76,145.31L168,145.31L168.23,145.4L168.47,145.45L168.71,145.73L168.95,145.83L169.19,145.94L169.43,145.94L169.67,146.74L169.91,146.92L170.15,146.99L170.39,147.09L170.63,147.23L170.87,147.3L171.11,147.52L171.35,148.72L171.59,148.72L171.83,148.85L172.07,148.95L172.31,149.09L172.55,149.34L172.79,149.72L173.03,149.72L173.27,149.87L173.51,150L173.75,150L173.99,150.08L174.23,150.38L174.47,150.43L174.71,150.89L174.95,151.06L175.19,151.15L175.43,151.56L175.67,152.52L175.9,152.68L176.14,152.92L176.38,153.05L176.62,153.09L176.86,153.09L177.1,153.63L177.34,153.69L177.58,153.73L177.82,153.79L178.06,154.09L178.3,154.13L178.54,154.63L178.78,155.02L179.02,155.21L179.26,155.28L179.5,155.35L179.74,155.35L179.98,155.68L180.22,155.86L180.46,155.86L180.7,155.86L180.94,156.24L181.18,156.38L181.42,156.38L181.66,156.93L181.9,156.99L182.14,156.99L182.38,157.43L182.62,157.68L182.86,157.96L183.1,158.55L183.34,159.18L183.57,159.24L183.81,159.39L184.05,159.39L184.29,159.39L184.53,159.81L184.77,160.04L185.01,160.04L185.25,160.25L185.49,160.51L185.73,160.51L185.97,160.72L186.21,160.77L186.45,161.17L186.69,161.65L186.93,161.71L187.17,161.71L187.41,161.92L187.65,161.92L187.89,162.2L188.13,162.36L188.37,162.51L188.61,162.56L188.85,162.63L189.09,162.63L189.33,162.94L189.57,163.31L189.81,163.31L190.05,163.31L190.29,163.31L190.53,163.37L190.77,163.62L191.01,163.7L191.24,164.03L191.48,164.03L191.72,164.03L191.96,164.03L192.2,165L192.44,165L192.68,165.78L192.92,165.82L193.16,165.98L193.4,166.08L193.64,166.49L193.88,166.61L194.12,166.66L194.36,167.89L194.6,168.13L194.84,168.24L195.08,168.29L195.32,168.39L195.56,168.45L195.8,168.85L196.04,169.19L196.28,169.3L196.52,169.35L196.76,169.4L197,169.4L197.24,169.6L197.48,169.6L197.72,170.46L197.96,171.14L198.2,171.22L198.44,171.22L198.68,171.49L198.91,171.54L199.15,171.67L199.39,171.83L199.63,171.97L199.87,171.97L200.11,172.08L200.35,172.08L200.59,172.15L200.83,172.48L201.07,172.83L201.31,173.19L201.55,173.3L201.79,173.3L202.03,173.3L202.27,173.6L202.51,173.6L202.75,173.88L202.99,174.13L203.23,174.63L203.47,174.66L203.71,174.7L203.95,174.78L204.19,174.87L204.43,174.87L204.67,176.03L204.91,176.07L205.15,176.12L205.39,176.8L205.63,176.83L205.87,176.89L206.11,176.89L206.34,177.05L206.58,177.1L206.82,177.1L207.06,177.56L207.3,177.56L207.54,177.56L207.78,177.63L208.02,177.91L208.26,178.98L208.5,179.44L208.74,179.44L208.98,179.44L209.22,179.44L209.46,179.44L209.7,179.49L209.94,179.7L210.18,179.98L210.42,179.98L210.66,180.04L210.9,180.34L211.14,180.47L211.38,180.54L211.62,180.61L211.86,181.86L212.1,181.99L212.34,182.23L212.58,182.23L212.82,182.32L213.06,182.37L213.3,183.07L213.54,183.21L213.78,183.47L214.01,183.5L214.25,183.58L214.49,183.66L214.73,183.74L214.97,184.08L215.21,184.13L215.45,184.68L215.69,185.18L215.93,185.42L216.17,185.42L216.41,185.42L216.65,185.92L216.89,186.08L217.13,186.12L217.37,186.98L217.61,186.98L217.85,186.98L218.09,187.02L218.33,187.28L218.57,187.34L218.81,187.43L219.05,187.48L219.29,188.18L219.53,188.56L219.77,188.56L220.01,188.82L220.25,188.87L220.49,188.98L220.73,188.98L220.97,188.98L221.21,189.23L221.45,189.54L221.68,189.54L221.92,189.54L222.16,189.83L222.4,189.83L222.64,189.83L222.88,189.89L223.12,190.55L223.36,191.41L223.6,191.63L223.84,191.66L224.08,191.85L224.32,191.85L224.56,191.85L224.8,191.94L225.04,192.03L225.28,192.34L225.52,192.34L225.76,192.48L226,192.6L226.24,192.74L226.48,192.76L226.72,192.99L226.96,193.61L227.2,194.54L227.44,194.64L227.68,194.64L227.92,194.64L228.16,194.64L228.4,194.75L228.64,195.39L228.88,195.39L229.12,195.62L229.35,195.85L229.59,196.15L229.83,196.15L230.07,196.15L230.31,196.57L230.55,196.71L230.79,196.77L231.03,197.23L231.27,197.78L231.51,197.96L231.75,198.1L231.99,198.21L232.23,198.97L232.47,198.97L232.71,199.1L232.95,199.21L233.19,199.35L233.43,199.79L233.67,199.79L233.91,200.13L234.15,200.17L234.39,200.34L234.63,200.34L234.87,200.41L235.11,200.56L235.35,201.35L235.59,201.96L235.83,202.42L236.07,202.42L236.31,202.54L236.55,202.67L236.79,202.71L237.02,202.9L237.26,203.05L237.5,203.26L237.74,203.32L237.98,203.63L238.22,203.7L238.46,203.82L238.7,203.82L238.94,203.89L239.18,203.89L239.42,205.02L239.66,205.67L239.9,205.77L240.14,205.82L240.38,205.82L240.62,205.82L240.86,206.24L241.1,206.52L241.34,206.76L241.58,206.9L241.82,207.1L242.06,207.15L242.3,207.28L242.54,207.32L242.78,207.32L243.02,207.32L243.26,207.89L243.5,207.89L243.74,208.61L243.98,208.61L244.22,208.61L244.46,208.83L244.69,208.98L244.93,209.04L245.17,209.15L245.41,209.15L245.65,209.15L245.89,209.8L246.13,210.71L246.37,210.79L246.61,210.79L246.85,210.93L247.09,211.29L247.33,211.41L247.57,211.41L247.81,211.45L248.05,211.53L248.29,212.28L248.53,212.28L248.77,212.34L249.01,212.41L249.25,212.61L249.49,212.75L249.73,212.75L249.97,212.75L250.21,212.83L250.45,213.96L250.69,214.35L250.93,215.06L251.17,215.23L251.41,215.27L251.65,215.35L251.89,215.57L252.12,215.62L252.36,215.62L252.6,215.89L252.84,216.38L253.08,216.43L253.32,216.43L253.56,216.43L253.8,216.53L254.04,216.53L254.28,216.53L254.52,216.53L254.76,217.66L255,218.7L255.24,219.18L255.48,219.22L255.72,219.4L255.96,219.46L256.2,219.57L256.44,219.57L256.68,219.57L256.92,219.76L257.16,219.95L257.4,220.12L257.64,220.12L257.88,220.18L258.12,220.18L258.36,220.3L258.6,220.43L258.84,220.53L259.08,220.53L259.32,220.62L259.56,220.62L259.79,220.71L260.03,220.71L260.27,220.79L260.51,220.79L260.75,221.56L260.99,221.56L261.23,221.6L261.47,221.67L261.71,222.3L261.95,223.19L262.19,223.52L262.43,223.58L262.67,223.62L262.91,223.75L263.15,224.16L263.39,224.29L263.63,224.47L263.87,224.47L264.11,224.53L264.35,224.77L264.59,225.07L264.83,225.19L265.07,225.79L265.31,225.87L265.55,225.87L265.79,225.95L266.03,226.11L266.27,226.11L266.51,226.15L266.75,226.15L266.99,226.44L267.23,226.44L267.46,226.44L267.7,226.52L267.94,226.52L268.18,226.52L268.42,226.56L268.66,226.56L268.9,227.84L269.14,229.13L269.38,229.44L269.62,229.68L269.86,229.68L270.1,229.72L270.34,229.72L270.58,229.94L270.82,229.94L271.06,229.94L271.3,230.88L271.54,231.22L271.78,231.43L272.02,231.43L272.26,231.43L272.5,231.43L272.74,231.7L272.98,231.7L273.22,231.77L273.46,232.6L273.7,233.08L273.94,233.56L274.18,233.56L274.42,233.73L274.66,233.89L274.9,233.89L275.13,234.14L275.37,234.47L275.61,234.81L275.85,234.92L276.09,234.96L276.33,235.19L276.57,235.86L276.81,235.96L277.05,235.96L277.29,236.06L277.53,236.22L277.77,236.22L278.01,236.33L278.25,236.45L278.49,236.54L278.73,236.54L278.97,237.16L279.21,237.16L279.45,237.35L279.69,237.35L279.93,238.19L280.17,238.29L280.41,238.35L280.65,238.46L280.89,238.67L281.13,238.67L281.37,239.66L281.61,240.12L281.85,240.12L282.09,240.24L282.33,240.3L282.57,240.4L282.8,240.48L283.04,240.71L283.28,240.71L283.52,240.77L283.76,241.08L284,242.19L284.24,243.09L284.48,243.12L284.72,243.12L284.96,243.25L285.2,243.28L285.44,243.57L285.68,243.63L285.92,243.68L286.16,243.68L286.4,243.68L286.64,244.29L286.88,244.39L287.12,244.39L287.36,244.43L287.6,244.43L287.84,244.49L288.08,244.49L288.32,244.49L288.56,244.64L288.8,244.64L289.04,245.03L289.28,245.1L289.52,245.34L289.76,245.4L290,245.54L290.24,245.54L290.47,245.58L290.71,245.58L290.95,245.94L291.19,246.5L291.43,246.5L291.67,247.76L291.91,249L292.15,249.14L292.39,249.14L292.63,249.21L292.87,249.21L293.11,249.32L293.35,249.68L293.59,249.75L293.83,249.92L294.07,250.01L294.31,250.51L294.55,251.08L294.79,251.23L295.03,251.23L295.27,251.27L295.51,251.53L295.75,252.1L295.99,252.1L296.23,252.19L296.47,252.35L296.71,252.35L296.95,252.42L297.19,252.67L297.43,253.07L297.67,253.07L297.9,253.15L298.14,253.32L298.38,253.46L298.62,253.53L298.86,253.53L299.1,253.59L299.34,253.75L299.58,253.75L299.82,255.02L300.06,255.96L300.3,255.99L300.54,255.99L300.78,256.08L301.02,256.2L301.26,256.37L301.5,256.44L301.74,256.51L301.98,256.51L302.22,256.51L302.46,256.84L302.7,257.68L302.94,258.94L303.18,259L303.42,259L303.66,259.05L303.9,259.15L304.14,259.15L304.38,259.15L304.62,259.15L304.86,259.27L305.1,259.27L305.34,259.48L305.57,260.22L305.81,260.34L306.05,260.34L306.29,260.37L306.53,260.48L306.77,260.48L307.01,260.48L307.25,260.48L307.49,260.77L307.73,260.89L307.97,260.89L308.21,261.29L308.45,261.75L308.69,261.84L308.93,261.89L309.17,262.02L309.41,262.19L309.65,262.26L309.89,262.32L310.13,262.7L310.37,263.45L310.61,263.64L310.85,263.81L311.09,264.78L311.33,266.04L311.57,266.12L311.81,266.32L312.05,266.32L312.29,266.32L312.53,266.37L312.77,266.76L313.01,266.76L313.24,266.76L313.48,266.76L313.72,266.84L313.96,267.35L314.2,268.11L314.44,268.17L314.68,268.17L314.92,268.17L315.16,268.29L315.4,268.29L315.64,268.29L315.88,268.29L316.12,268.29L316.36,268.34L316.6,268.34L316.84,268.76L317.08,269.05L317.32,269.16L317.56,269.25L317.8,270.44L318.04,270.5L318.28,270.5L318.52,270.55L318.76,270.94L319,271.04L319.24,271.04L319.48,271.04L319.72,271.34L319.96,271.43L320.2,271.59L320.44,272.18L320.68,272.28L320.91,272.28L321.15,272.28L321.39,272.4L321.63,272.4L321.87,272.56L322.11,272.64L322.35,272.64L322.59,272.64L322.83,272.64L323.07,272.98L323.31,272.98L323.55,272.98L323.79,273.27L324.03,273.36L324.27,273.46L324.51,273.61L324.75,273.76L324.99,273.76L325.23,273.76L325.47,275.11L325.71,276.34L325.95,276.9L326.19,277.57L326.43,277.57L326.67,277.57L326.91,277.57L327.15,277.57L327.39,277.66L327.63,277.66L327.87,277.74L328.11,278.19L328.35,278.51L328.58,278.83L328.82,279.58L329.06,279.88L329.3,280.17L329.54,280.17L329.78,280.17L330.02,280.32L330.26,280.32L330.5,280.32L330.74,280.4L330.98,280.65L331.22,280.68L331.46,280.78L331.7,280.78L331.94,281.16L332.18,281.16L332.42,281.63L332.66,281.63L332.9,282.02L333.14,282.02L333.38,282.02L333.62,283.21L333.86,283.5L334.1,283.53L334.34,283.53L334.58,283.59L334.82,283.63L335.06,283.98L335.3,284.1L335.54,284.41L335.78,284.41L336.02,284.41L336.25,284.61L336.49,285L336.73,285L336.97,285.07L337.21,285.15L337.45,285.23L337.69,285.23L337.93,285.33L338.17,285.9L338.41,285.9L338.65,286.28L338.89,286.28L339.13,286.76L339.37,286.9L339.61,286.9L339.85,286.96L340.09,286.96L340.33,287.04L340.57,287.09L340.81,287.2L341.05,287.33L341.29,288.49L341.53,288.53L341.77,289.08L342.01,289.08L342.25,289.17L342.49,289.17L342.73,289.17L342.97,289.25L343.21,289.38L343.45,289.44L343.68,289.44L343.92,289.58L344.16,290.03L344.4,290.52L344.64,292.04L344.88,293.39L345.12,293.77L345.36,293.9L345.6,293.95L345.84,293.99L346.08,293.99L346.32,294.04L346.56,294.11L346.8,294.11L347.04,294.11L347.28,294.11L347.52,294.54L347.76,295.13L348,295.65L348.24,296.13L348.48,296.13L348.72,296.18L348.96,296.33L349.2,296.4L349.44,296.47L349.68,296.58L349.92,296.58L350.16,296.79L350.4,297.19L350.64,297.19L350.88,297.19L351.12,297.93L351.35,297.93L351.59,298.58L351.83,298.79L352.07,298.84L352.31,298.92L352.55,298.96L352.79,298.96L353.03,299.03L353.27,299.16L353.51,299.16L353.75,299.25L353.99,299.33L354.23,299.51L354.47,300.08L354.71,300.08L354.95,300.51L355.19,300.51L355.43,300.83L355.67,301.09L355.91,301.22L356.15,302.17L356.39,302.21L356.63,302.26L356.87,302.46L357.11,302.46L357.35,302.5L357.59,302.76L357.83,303.17L358.07,303.2L358.31,303.61L358.55,303.61L358.79,303.69L359.02,304.23L359.26,304.23L359.5,304.23L359.74,304.23L359.98,304.4L360.22,304.4L360.46,304.49L360.7,304.49L360.94,304.64L361.18,305.33L361.42,305.66L361.66,306.22L361.9,306.3L362.14,306.69L362.38,306.79L362.62,306.79L362.86,306.9L363.1,306.9L363.34,306.9L363.58,306.9L363.82,306.9L364.06,307.06L364.3,307.25L364.54,307.77L364.78,307.88L365.02,308.72L365.26,309.01L365.5,309.01L365.74,309.01L365.98,309.06L366.22,309.06L366.46,309.06L366.69,309.12L366.93,309.22L367.17,309.36L367.41,309.36L367.65,309.67L367.89,310.47L368.13,311.33L368.37,311.54L368.61,312.16L368.85,312.16L369.09,312.16L369.33,312.35L369.57,312.35L369.81,312.35L370.05,312.35L370.29,312.48L370.53,312.48L370.77,312.64L371.01,313.49L371.25,314.05L371.49,314.71L371.73,315.11L371.97,315.65L372.21,315.71L372.45,315.74L372.69,315.74L372.93,315.81L373.17,315.86L373.41,315.98L373.65,315.98L373.89,316.04L374.13,316.62L374.36,316.9L374.6,316.9L374.84,316.97L375.08,317.63L375.32,318.05L375.56,319.16L375.8,319.43L376.04,319.49L376.28,319.49L376.52,319.49L376.76,319.49L377,319.61L377.24,319.98L377.48,320.28L377.72,320.28L377.96,320.28L378.2,320.34L378.44,320.34L378.68,320.92L378.92,321.47L379.16,322.22L379.4,322.25L379.64,322.33L379.88,322.36L380.12,322.51L380.36,322.97L380.6,323.05L380.84,323.05L381.08,323.12L381.32,323.2L381.56,323.2L381.8,323.2L382.03,323.2L382.27,323.64L382.51,324.03L382.75,324.5L382.99,324.53L383.23,324.7L383.47,324.77L383.71,324.77L383.95,324.77L384.19,324.87L384.43,324.87L384.67,325.03L384.91,325.11L385.15,325.22L385.39,325.22L385.63,325.41L385.87,325.79L386.11,326.34L386.35,326.34L386.59,327.44L386.83,327.57L387.07,327.68L387.31,327.81L387.55,327.91L387.79,327.91L388.03,327.91L388.27,327.99L388.51,327.99L388.75,327.99L388.99,327.99L389.23,327.99L389.46,327.99L389.7,329.09L389.94,330.37L390.18,331.35L390.42,331.51L390.66,331.55L390.9,331.58L391.14,331.63L391.38,331.69L391.62,331.69L391.86,331.69L392.1,331.69L392.34,331.83L392.58,331.83L392.82,331.99L393.06,332.31L393.3,333.2L393.54,333.67L393.78,333.7L394.02,334.48L394.26,334.52L394.5,334.57L394.74,334.63L394.98,334.63L395.22,334.75L395.46,334.84L395.7,334.9L395.94,334.9L396.18,334.9L396.42,335.21L396.66,335.44L396.9,335.53L397.13,336.07L397.37,336.4L397.61,336.4L397.85,337.41L398.09,337.41L398.33,337.41L398.57,337.54L398.81,337.59L399.05,337.66L399.29,337.66L399.53,337.77L399.77,338.04L400.01,338.13L400.25,338.17L400.49,338.25L400.73,338.34L400.97,338.79L401.21,339.44L401.45,339.44L401.69,340.19L401.93,340.26L402.17,340.26L402.41,340.26L402.65,340.37L402.89,340.37L403.13,340.86L403.37,340.93L403.61,341.09L403.85,341.19L404.09,341.31L404.33,341.55L404.57,341.6L404.8,341.68L405.04,342.49L405.28,342.49L405.52,342.6L405.76,343.34L406,343.4L406.24,343.46L406.48,344.02L406.72,344.22L406.96,344.22L407.2,344.22L407.44,344.27L407.68,344.27L407.92,344.27L408.16,344.27L408.4,344.27L408.64,344.33L408.88,345.07L409.12,345.42L409.36,345.42L409.6,346.2L409.84,346.95L410.08,347.23L410.32,347.36L410.56,347.36L410.8,347.41L411.04,347.46L411.28,347.52L411.52,347.52L411.76,347.52L412,347.6L412.24,347.69L412.47,347.75L412.71,347.75L412.95,348.78L413.19,348.86L413.43,349.48L413.67,350.23L413.91,350.23L414.15,350.31L414.39,350.31L414.63,350.35L414.87,350.45L415.11,350.55L415.35,350.61L415.59,350.72L415.83,350.72L416.07,350.72L416.31,350.72L416.55,350.93L416.79,352.01L417.03,353.21L417.27,353.21L417.51,353.3L417.75,353.51L417.99,353.51L418.23,353.71L418.47,353.77L418.71,353.88L418.95,353.88L419.19,353.88L419.43,353.88L419.67,353.88L419.91,353.88L420.14,353.98L420.38,354.96L420.62,355L420.86,355.27L421.1,355.84L421.34,355.84L421.58,356.52L421.82,356.52L422.06,356.52L422.3,356.62L422.54,356.72L422.78,356.79L423.02,356.95L423.26,357.07L423.5,357.29L423.74,357.29L423.98,357.99L424.22,358.17L424.46,358.25L424.7,358.25L424.94,358.57L425.18,359.08L425.42,359.12L425.66,359.98L425.9,360.05L426.14,360.05L426.38,360.1L426.62,360.28L426.86,360.33L427.1,360.48L427.34,360.59L427.58,361.12L427.81,361.16L428.05,361.16L428.29,361.31L428.53,361.31L428.77,361.31L429.01,361.43L429.25,361.7L429.49,361.88L429.73,362.71L429.97,362.71L430.21,362.71L430.45,362.92L430.69,363.03L430.93,363.08L431.17,363.63L431.41,363.72L431.65,363.72L431.89,363.76L432.13,363.76L432.37,363.76L432.61,363.84L432.85,363.84L433.09,363.98L433.33,364.89L433.57,364.89L433.81,365.51L434.05,365.99L434.29,366.13L434.53,366.18L434.77,366.96L435.01,366.96L435.25,366.96L435.48,367.01L435.72,367.01L435.96,367.01L436.2,367.15L436.44,367.2L436.68,367.28L436.92,367.28L437.16,367.54L437.4,368.36L437.64,368.4L437.88,368.98L438.12,369.54L438.36,370.12L438.6,370.12L438.84,370.24L439.08,370.25L439.32,370.25L439.56,370.25L439.8,370.25L440.04,370.3L440.28,370.3" style="fill:none;stroke:#F15A60;stroke-width:1.875" />
<path d="M67.088,66.255L67.327,71.837L67.567,78.381L67.807,82.296L68.046,85.517L68.286,90.441L68.526,92.44L68.765,92.306L69.005,91.692L69.245,94.197L69.484,94.689L69.724,94.678L69.964,94.678L70.203,94.747L70.443,95.307L70.683,96.54L70.922,96.359L71.162,96.482L71.402,97.053L71.642,97.053L71.881,97.827L72.121,99.37L72.361,100.36L72.6,100.42L72.84,100.42L73.08,100.91L73.319,101.41L73.559,102.17L73.799,102.4L74.038,102.66L74.278,102.79L74.518,102.79L74.757,104.43L74.997,106.94L75.237,106.94L75.477,106.95L75.716,106.95L75.956,108.09L76.196,108.34L76.435,108.61L76.675,109.59L76.915,109.59L77.154,109.59L77.394,110.34L77.634,111.24L77.873,111.24L78.113,111.24L78.353,112.29L78.592,112.37L78.832,112.37L79.072,113.37L79.311,113.93L79.551,115.23L79.791,115.36L80.031,115.36L80.27,116.38L80.51,116.39L80.75,117.41L80.989,118.53L81.229,118.53L81.469,118.81L81.708,120.04L81.948,120.57L82.188,120.82L82.427,120.82L82.667,120.83L82.907,121.57L83.146,121.94L83.386,123.84L83.626,123.84L83.866,123.84L84.105,124.35L84.345,125.02L84.585,125.07L84.824,125.07L85.064,125.63L85.304,125.63L85.543,125.87L85.783,126.19L86.023,126.2L86.262,126.2L86.502,126.43L86.742,126.82L86.981,126.4L87.221,126.46L87.461,126.71L87.7,126.71L87.94,127.29L88.18,127.29L88.42,127.61L88.659,127.61L88.899,127.86L89.139,127.94L89.378,127.94L89.618,128.32L89.858,128.62L90.097,129.7L90.337,130.44L90.577,130.42L90.816,130.81L91.056,131.44L91.296,131.44L91.535,131.44L91.775,131.76L92.015,132.07L92.255,132.13L92.494,132.13L92.734,132.13L92.974,132.58L93.213,132.59L93.453,132.59L93.693,132.65L93.932,133.12L94.172,133.3L94.412,133.3L94.651,133.3L94.891,133.7L95.131,133.88L95.37,133.95L95.61,133.95L95.85,133.95L96.089,134.13L96.329,134.13L96.569,134.19L96.809,134.19L97.048,135.05L97.288,135.05L97.528,135.05L97.767,135.3L98.007,135.82L98.247,135.54L98.486,135.54L98.726,135.72L98.966,135.92L99.205,135.92L99.445,135.74L99.685,135.74L99.924,136.17L100.16,136.17L100.4,136.76L100.64,138.38L100.88,138.95L101.12,138.88L101.36,139.07L101.6,139.15L101.84,139.15L102.08,139.15L102.32,139.09L102.56,139.4L102.8,139.73L103.04,141.18L103.28,141.43L103.52,141.49L103.76,141.95L104,141.95L104.24,142.5L104.48,142.5L104.72,142.56L104.96,142.56L105.2,142.75L105.44,143.28L105.68,143.53L105.92,143.53L106.16,144.08L106.4,144.14L106.64,144.39L106.88,144.46L107.12,144.72L107.35,145.22L107.59,145.67L107.83,146.02L108.07,146.21L108.31,146.21L108.55,146.52L108.79,146.52L109.03,147.08L109.27,147.14L109.51,147.39L109.75,147.39L109.99,147.45L110.23,147.8L110.47,148.04L110.71,148.35L110.95,148.78L111.19,148.78L111.43,149.83L111.67,150.68L111.91,150.97L112.15,153.44L112.39,158.48L112.63,158.48L112.87,158.5L113.11,158.34L113.35,158.34L113.59,158.34L113.83,158.3L114.07,158.3L114.31,158.3L114.55,157.93L114.78,157.93L115.02,157.93L115.26,157.84L115.5,157.77L115.74,158.02L115.98,158.27L116.22,158.57L116.46,158.94L116.7,159.19L116.94,159.38L117.18,159.82L117.42,160.89L117.66,160.89L117.9,161.01L118.14,161.26L118.38,161.26L118.62,161.39L118.86,162L119.1,162.25L119.34,162.25L119.58,162.5L119.82,162.62L120.06,162.86L120.3,163.37L120.54,163.76L120.78,163.76L121.02,163.89L121.26,164.14L121.5,164.39L121.74,164.64L121.98,165.01L122.22,165.01L122.45,165.25L122.69,165.38L122.93,165.62L123.17,166.36L123.41,166.36L123.65,166.49L123.89,167.02L124.13,167.02L124.37,167.76L124.61,167.88L124.85,168.13L125.09,168.37L125.33,168.87L125.57,168.87L125.81,169L126.05,169.25L126.29,169.5L126.53,169.87L126.77,170.11L127.01,170.11L127.25,170.85L127.49,170.85L127.73,171.1L127.97,171.59L128.21,171.59L128.45,171.84L128.69,172.58L128.93,172.83L129.17,173.33L129.41,175.21L129.65,175.21L129.89,175.97L130.12,175.97L130.36,175.97L130.6,176.49L130.84,176.73L131.08,176.73L131.32,177.82L131.56,177.82L131.8,178.4L132.04,180.14L132.28,180.16L132.52,180.16L132.76,180.43L133,180.93L133.24,181.05L133.48,181.56L133.72,181.56L133.96,181.83L134.2,182.32L134.44,182.81L134.68,183.31L134.92,183.55L135.16,183.55L135.4,184.05L135.64,184.29L135.88,184.79L136.12,184.79L136.36,185.28L136.6,185.55L136.84,185.55L137.08,185.79L137.32,186.23L137.56,186.23L137.79,186.75L138.03,187.25L138.27,187.74L138.51,188.24L138.75,188.24L138.99,188.48L139.23,188.73L139.47,188.98L139.71,189.16L139.95,189.72L140.19,189.72L140.43,190.21L140.67,190.73L140.91,190.73L141.15,191.5L141.39,191.99L141.63,192.24L141.87,192.75L142.11,193L142.35,193.25L142.59,193.25L142.83,193.25L143.07,194.11L143.31,194.11L143.55,194.36L143.79,194.85L144.03,195.1L144.27,195.6L144.51,195.84L144.75,195.84L144.99,196.15L145.23,196.15L145.46,196.64L145.7,196.89L145.94,196.89L146.18,197.65L146.42,197.9L146.66,198.55L146.9,198.55L147.14,198.79L147.38,199.29L147.62,199.78L147.86,199.79L148.1,200.07L148.34,200.32L148.58,200.32L148.82,200.66L149.06,200.91L149.3,201.16L149.54,201.25L149.78,201.49L150.02,201.49L150.26,201.49L150.5,202.12L150.74,202.23L150.98,202.98L151.22,203.5L151.46,203.89L151.7,203.89L151.94,203.89L152.18,204.6L152.42,204.6L152.66,204.85L152.9,205.89L153.13,205.89L153.37,205.89L153.61,206.08L153.85,206.57L154.09,207.78L154.33,208.02L154.57,208.02L154.81,208.72L155.05,209.25L155.29,209.37L155.53,209.86L155.77,210.11L156.01,212.81L156.25,215.04L156.49,216.89L156.73,218.25L156.97,219.18L157.21,221.43L157.45,221.68L157.69,221.68L157.93,222.71L158.17,222.71L158.41,222.95L158.65,223.44L158.89,223.44L159.13,223.44L159.37,225.01L159.61,225.01L159.85,225.01L160.09,225.5L160.33,226.01L160.56,226.01L160.8,226.26L161.04,226.27L161.28,226.34L161.52,226.59L161.76,226.59L162,227.25L162.24,227.25L162.48,227.5L162.72,227.74L162.96,227.74L163.2,228.5L163.44,228.5L163.68,228.91L163.92,228.91L164.16,229.68L164.4,229.71L164.64,230.23L164.88,230.23L165.12,230.23L165.36,230.23L165.6,230.24L165.84,230.24L166.08,230.24L166.32,230.98L166.56,230.98L166.8,230.98L167.04,230.98L167.28,230.98L167.52,231.78L167.76,232.69L168,232.7L168.23,233.44L168.47,233.44L168.71,234.18L168.95,235.41L169.19,237.44L169.43,238.67L169.67,240.43L169.91,240.43L170.15,240.43L170.39,241.18L170.63,241.18L170.87,242.88L171.11,243.87L171.35,243.87L171.59,244.61L171.83,244.61L172.07,244.86L172.31,245.11L172.55,245.11L172.79,246.05L173.03,246.54L173.27,247.04L173.51,247.04L173.75,247.53L173.99,248.51L174.23,249.5L174.47,250.28L174.71,250.28L174.95,250.52L175.19,250.77L175.43,251.02L175.67,251.02L175.9,251.02L176.14,252.49L176.38,252.49L176.62,253.23L176.86,253.23L177.1,253.23L177.34,253.72L177.58,253.72L177.82,253.97L178.06,253.97L178.3,253.97L178.54,254.95L178.78,254.95L179.02,254.95L179.26,254.95L179.5,255.69L179.74,256.19L179.98,256.19L180.22,256.19L180.46,256.19L180.7,256.19L180.94,257.42L181.18,257.42L181.42,257.42L181.66,257.43L181.9,257.43L182.14,257.43L182.38,258.41L182.62,258.41L182.86,258.66L183.1,259.92L183.34,261.04L183.57,262.31L183.81,264.72L184.05,264.72L184.29,265.65L184.53,265.65L184.77,266.66L185.01,269.18L185.25,269.18L185.49,269.68L185.73,270.45L185.97,270.45L186.21,270.45L186.45,271.2L186.69,272.2L186.93,272.2L187.17,272.2L187.41,273.19L187.65,273.19L187.89,273.19L188.13,274.95L188.37,276.68L188.61,277.45L188.85,279.43L189.09,281.04L189.33,282.85L189.57,282.85L189.81,283.9L190.05,283.9L190.29,283.9L190.53,283.9L190.77,283.9L191.01,285.39L191.24,285.39L191.48,285.39L191.72,285.39L191.96,285.39L192.2,285.64L192.44,285.64L192.68,287.12L192.92,287.12L193.16,287.12L193.4,288.61L193.64,288.61L193.88,288.61L194.12,288.61L194.36,288.61L194.6,288.61L194.84,289.35L195.08,289.35L195.32,289.35L195.56,289.35L195.8,289.35L196.04,290.33L196.28,290.33L196.52,292.56L196.76,292.56L197,292.56L197.24,292.56L197.48,292.56L197.72,293.79L197.96,293.79L198.2,294.54L198.44,294.54L198.68,294.79L198.91,294.79L199.15,294.79L199.39,295.54L199.63,295.54L199.87,295.54L200.11,296.78L200.35,296.78L200.59,299.77L200.83,299.77L201.07,300.27L201.31,300.27L201.55,300.27L201.79,300.27L202.03,302.28L202.27,304.5L202.51,304.5L202.75,305.24L202.99,305.24L203.23,305.25L203.47,305.74L203.71,305.74L203.95,305.74L204.19,308.22L204.43,308.22L204.67,308.21L204.91,308.21L205.15,308.71L205.39,308.71L205.63,310.71L205.87,310.71L206.11,310.71L206.34,312.44L206.58,313.18L206.82,313.18L207.06,313.18L207.3,314.17L207.54,314.17L207.78,315.16L208.02,315.9L208.26,315.9L208.5,315.9L208.74,315.9L208.98,316.89L209.22,316.89L209.46,316.89L209.7,316.89L209.94,316.89L210.18,318.12L210.42,318.87L210.66,322.33L210.9,322.33L211.14,322.33L211.38,322.33L211.62,323.07L211.86,323.07L212.1,323.07L212.34,323.07L212.58,323.07L212.82,323.07L213.06,323.07L213.3,324.06L213.54,326.05L213.78,326.05L214.01,326.05L214.25,326.05L214.49,326.05L214.73,326.05L214.97,327.54L215.21,327.54L215.45,327.54L215.69,332.23L215.93,332.79L216.17,334.79L216.41,336.77L216.65,337.26L216.89,338.75L217.13,338.75L217.37,338.75L217.61,338.75L217.85,338.75L218.09,338.75L218.33,340.99L218.57,343.3L218.81,343.3L219.05,343.3L219.29,343.3L219.53,343.3L219.77,343.3L220.01,344.44L220.25,344.44L220.49,344.93L220.73,344.93L220.97,347.91L221.21,347.91L221.45,347.91L221.68,348.9L221.92,348.9L222.16,349.09L222.4,350.82L222.64,350.82L222.88,350.83L223.12,350.83L223.36,354.29L223.6,354.29L223.84,354.29L224.08,354.29L224.32,354.29L224.56,354.29L224.8,354.87L225.04,354.87L225.28,354.87L225.52,355.36L225.76,355.36L226,356.59L226.24,356.6L226.48,356.6L226.72,356.6L226.96,356.6L227.2,356.6L227.44,359.84L227.68,361.32L227.92,361.32L228.16,361.32L228.4,368.01L228.64,368.01L228.88,369.25L229.12,369.25L229.35,369.25L229.59,369.25L229.83,369.25L230.07,369.25L230.31,369.25L230.55,369.25L230.79,372.24L231.03,372.49L231.27,372.49L231.51,372.49L231.75,372.49L231.99,372.49L232.23,372.49L232.47,372.49L232.71,372.49L232.95,373.97L233.19,373.97L233.43,373.97L233.67,377.7L233.91,377.7L234.15,377.7L234.39,377.7L234.63,377.7L234.87,377.7L235.11,377.7L235.35,377.7L235.59,378.68L235.83,378.68L236.07,378.68L236.31,380.93L236.55,380.93L236.79,380.93L237.02,382.69L237.26,382.69L237.5,382.69L237.74,382.69L237.98,385.16L238.22,385.16L238.46,385.16L238.7,385.16L238.94,385.16L239.18,385.16L239.42,385.16L239.66,385.16L239.9,385.16L240.14,385.16L240.38,387.39L240.62,387.39L240.86,387.39L241.1,387.39L241.34,387.39L241.58,387.39L241.82,387.39L242.06,387.39L242.3,387.39L242.54,387.39L242.78,387.39L243.02,390.63L243.26,392.11L243.5,392.11L243.74,392.11L243.98,392.11L244.22,392.36L244.46,394.84L244.69,395.61L244.93,395.61L245.17,395.61L245.41,395.61L245.65,396.6L245.89,396.6L246.13,396.6L246.37,399.4L246.61,402.98L246.85,403.1L247.09,403.1L247.33,403.1L247.57,403.1L247.81,403.1L248.05,406.3L248.29,406.3L248.53,406.3L248.77,406.3L249.01,406.3L249.25,406.3L249.49,406.3L249.73,406.3L249.97,406.3L250.21,406.3L250.45,412.25L250.69,412.25L250.93,416.37L251.17,416.37L251.41,416.76L251.65,422.27L251.89,422.27L252.12,422.27L252.36,422.27L252.6,422.27L252.84,422.27L253.08,422.27L253.32,423.15L253.56,423.15L253.8,423.15L254.04,423.15L254.28,423.15L254.52,423.15L254.76,424.14L255,424.14L255.24,424.14L255.48,424.14L255.72,424.14L255.96,429.25L256.2,429.25L256.44,429.25L256.68,429.25L256.92,429.25L257.16,429.25L257.4,429.25L257.64,431.23L257.88,431.23L258.12,431.23L258.36,431.23L258.6,431.23L258.84,431.23L259.08,431.23L259.32,431.23L259.56,431.23L259.79,436.58L260.03,436.58L260.27,438.8L260.51,438.8L260.75,438.8L260.99,438.8L261.23,438.8L261.47,440.28L261.71,440.31L261.95,440.31L262.19,440.31L262.43,440.31L262.67,440.31L262.91,442.53L263.15,442.8L263.39,442.8L263.63,442.8L263.87,448.53L264.11,448.53L264.35,449.2L264.59,449.2L264.83,449.2L265.07,449.2L265.31,452.73L265.55,452.73L265.79,452.73L266.03,452.73L266.27,452.73L266.51,454.98L266.75,454.98L266.99,454.98L267.23,454.98L267.46,454.98L267.7,454.98L267.94,454.98L268.18,454.98L268.42,454.98L268.66,454.98L268.9,457.75L269.14,460.03L269.38,460.95L269.62,460.95L269.86,460.95L270.1,460.95L270.34,461.17L270.58,461.17L270.82,461.17L271.06,461.17L271.3,461.17L271.54,461.17L271.78,461.17L272.02,463.39L272.26,463.39L272.5,463.39L272.74,463.39L272.98,463.39L273.22,463.39L273.46,463.39L273.7,463.39L273.94,463.39L274.18,463.39L274.42,470.06L274.66,474.51L274.9,474.51L275.13,474.51L275.37,474.51L275.61,474.51L275.85,474.51L276.09,474.51L276.33,474.51L276.57,474.51L276.81,474.51L277.05,474.51L277.29,474.51L277.53,474.61L277.77,474.61L278.01,474.61L278.25,474.61L278.49,474.61L278.73,474.61L278.97,477.83L279.21,477.83L279.45,477.83L279.69,477.83L279.93,477.83L280.17,481.79L280.41,483.65L280.65,483.65L280.89,483.65L281.13,483.65L281.37,483.65L281.61,483.66L281.85,483.66L282.09,483.66L282.33,483.66L282.57,483.66L282.8,484.51L283.04,484.51L283.28,484.51L283.52,487.47L283.76,487.47L284,487.47L284.24,487.47L284.48,487.47L284.72,487.47L284.96,487.47L285.2,487.47L285.44,487.47L285.68,492.42L285.92,492.42L286.16,493.16L286.4,493.16L286.64,493.16L286.88,493.16L287.12,493.9L287.36,493.9L287.6,493.9L287.84,493.9L288.08,493.9L288.32,493.9L288.56,493.9L288.8,493.9L289.04,493.9L289.28,493.9L289.52,493.9L289.76,493.9L290,493.91L290.24,493.91L290.47,493.91L290.71,497.61L290.95,497.61L291.19,497.61L291.43,497.61L291.67,497.61L291.91,497.61L292.15,497.61L292.39,502.79L292.63,502.79L292.87,502.79L293.11,502.79L293.35,502.79L293.59,502.79L293.83,502.79L294.07,502.79L294.31,507.73" style="fill:none;stroke:#7AC36A;stroke-width:1.875;stroke-dasharray:7.5,2.5" />
<path d="M67.088,47.03L67.327,47.287L67.567,47.384L67.807,47.504L68.046,47.63L68.286,47.97L68.526,48.1L68.765,48.411L69.005,48.382L69.245,48.646L69.484,48.827L69.724,49.141L69.964,49.391L70.203,49.723L70.443,50.107L70.683,50.367L70.922,49.835L71.162,49.969L71.402,50.295L71.642,50.457L71.881,50.656L72.121,50.978L72.361,51.271L72.6,51.567L72.84,51.835L73.08,52.102L73.319,52.279L73.559,52.742L73.799,52.887L74.038,53.291L74.278,52.008L74.518,52.008L74.757,52.323L74.997,52.637L75.237,52.944L75.477,53.205L75.716,53.505L75.956,53.707L76.196,54.04L76.435,54.239L76.675,54.376L76.915,54.676L77.154,54.947L77.394,55.15L77.634,55.414L77.873,55.677L78.113,55.876L78.353,56.072L78.592,56.209L78.832,56.513L79.072,56.78L79.311,56.983L79.551,57.312L79.791,57.438L80.031,57.785L80.27,58.056L80.51,58.349L80.75,58.515L80.989,58.819L81.229,58.953L81.469,59.148L81.708,56.408L81.948,56.777L82.188,56.907L82.427,57.04L82.667,57.243L82.907,57.528L83.146,57.865L83.386,57.998L83.626,58.295L83.866,58.508L84.105,58.74L84.345,59.069L84.585,59.195L84.824,59.3L85.064,59.629L85.304,59.929L85.543,60.095L85.783,60.287L86.023,60.489L86.262,60.847L86.502,60.985L86.742,61.194L86.981,61.563L87.221,61.697L87.461,61.935L87.7,62.272L87.94,62.51L88.18,62.644L88.42,62.908L88.659,63.172L88.899,63.306L89.139,63.649L89.378,63.96L89.618,64.235L89.858,64.506L90.097,64.744L90.337,64.979L90.577,65.211L90.816,65.359L91.056,65.626L91.296,65.789L91.535,65.995L91.775,66.194L92.015,66.53L92.255,66.859L92.494,67.022L92.734,67.358L92.974,67.564L93.213,67.864L93.453,67.973L93.693,68.316L93.932,68.486L94.172,68.764L94.412,68.837L94.651,69.075L94.891,69.473L95.131,69.614L95.37,69.845L95.61,70.048L95.85,70.308L96.089,70.543L96.329,64.737L96.569,64.983L96.809,65.334L97.048,65.594L97.288,68.938L97.528,70.214L97.767,74.466L98.007,75.919L98.247,75.951L98.486,76.1L98.726,76.353L98.966,76.385L99.205,76.45L99.445,76.577L99.685,76.577L99.924,76.577L100.16,76.772L100.4,76.772L100.64,76.805L100.88,76.805L101.12,76.805L101.36,76.899L101.6,77L101.84,77.065L102.08,77.065L102.32,77.097L102.56,77.199L102.8,77.231L103.04,77.231L103.28,77.303L103.52,77.303L103.76,77.546L104,77.582L104.24,77.82L104.48,77.82L104.72,77.82L104.96,77.998L105.2,78.03L105.44,78.204L105.68,78.272L105.92,78.442L106.16,78.536L106.4,78.572L106.64,78.637L106.88,78.637L107.12,78.887L107.35,78.952L107.59,79.024L107.83,79.201L108.07,79.238L108.31,79.346L108.55,79.48L108.79,79.556L109.03,84.635L109.27,86.526L109.51,86.623L109.75,86.873L109.99,86.873L110.23,87.122L110.47,87.155L110.71,87.404L110.95,87.404L111.19,87.661L111.43,87.661L111.67,87.881L111.91,87.881L112.15,88.069L112.39,88.069L112.63,88.294L112.87,88.294L113.11,88.449L113.35,88.608L113.59,88.608L113.83,88.901L114.07,88.995L114.31,89.056L114.55,89.371L114.78,89.371L115.02,89.497L115.26,89.685L115.5,89.685L115.74,89.877L115.98,90.032L116.22,90.032L116.46,90.13L116.7,90.318L116.94,90.351L117.18,90.351L117.42,90.575L117.66,90.676L117.9,90.774L118.14,90.972L118.38,91.301L118.62,91.5L118.86,91.569L119.1,91.706L119.34,91.985L119.58,92.18L119.82,92.314L120.06,92.473L120.3,92.697L120.54,92.925L120.78,92.993L121.02,93.029L121.26,93.301L121.5,93.633L121.74,93.702L121.98,93.807L122.22,94.071L122.45,94.494L122.69,94.555L122.93,94.721L123.17,94.917L123.41,94.989L123.65,95.209L123.89,95.3L124.13,95.426L124.37,95.777L124.61,96.102L124.85,96.301L125.09,96.334L125.33,96.464L125.57,96.674L125.81,96.898L126.05,96.966L126.29,97.068L126.53,97.324L126.77,97.454L127.01,97.617L127.25,97.87L127.49,98.102L127.73,98.261L127.97,98.456L128.21,98.521L128.45,98.774L128.69,98.872L128.93,99.132L129.17,99.262L129.41,99.421L129.65,99.454L129.89,99.519L130.12,99.62L130.36,99.815L130.6,100.04L130.84,100.04L131.08,100.14L131.32,100.27L131.56,100.4L131.8,100.6L132.04,100.63L132.28,100.72L132.52,100.98L132.76,101.01L133,102.09L133.24,105.1L133.48,106.15L133.72,107.61L133.96,107.79L134.2,107.82L134.44,108.04L134.68,108.11L134.92,108.11L135.16,108.11L135.4,108.14L135.64,108.27L135.88,108.27L136.12,108.3L136.36,108.33L136.6,108.36L136.84,108.39L137.08,108.49L137.32,108.52L137.56,108.52L137.79,108.55L138.03,108.71L138.27,108.81L138.51,108.9L138.75,108.9L138.99,109.03L139.23,109.03L139.47,109.09L139.71,109.44L139.95,109.47L140.19,109.47L140.43,109.51L140.67,109.54L140.91,109.54L141.15,109.74L141.39,109.74L141.63,109.77L141.87,109.89L142.11,109.95L142.35,109.95L142.59,110.11L142.83,110.21L143.07,110.24L143.31,110.24L143.55,110.27L143.79,110.3L144.03,110.46L144.27,110.49L144.51,110.49L144.75,110.52L144.99,110.52L145.23,110.68L145.46,110.84L145.7,110.84L145.94,110.84L146.18,110.87L146.42,111L146.66,111.03L146.9,111.22L147.14,111.22L147.38,111.26L147.62,111.26L147.86,111.38L148.1,111.38L148.34,111.51L148.58,111.51L148.82,111.58L149.06,111.64L149.3,111.89L149.54,111.93L149.78,111.99L150.02,112.15L150.26,112.21L150.5,112.31L150.74,112.37L150.98,112.37L151.22,112.4L151.46,112.63L151.7,112.7L151.94,112.99L152.18,112.99L152.42,113.06L152.66,113.09L152.9,113.38L153.13,113.44L153.37,115.68L153.61,118.67L153.85,120.13L154.09,121.12L154.33,121.22L154.57,121.25L154.81,121.31L155.05,121.63L155.29,121.73L155.53,121.76L155.77,121.76L156.01,121.76L156.25,121.76L156.49,121.83L156.73,121.87L156.97,121.9L157.21,122L157.45,122.2L157.69,122.2L157.93,122.2L158.17,122.2L158.41,122.31L158.65,122.58L158.89,122.61L159.13,122.65L159.37,123.78L159.61,127.1L159.85,127.23L160.09,128.79L160.33,128.79L160.56,128.82L160.8,128.82L161.04,128.82L161.28,128.82L161.52,128.82L161.76,128.82L162,128.82L162.24,128.82L162.48,128.82L162.72,128.82L162.96,128.82L163.2,128.82L163.44,128.82L163.68,128.82L163.92,128.82L164.16,128.82L164.4,128.82L164.64,128.82L164.88,128.82L165.12,128.82L165.36,128.82L165.6,128.85L165.84,128.85L166.08,128.88L166.32,128.88L166.56,129.01L166.8,129.01L167.04,129.01L167.28,129.01L167.52,129.04L167.76,129.17L168,129.17L168.23,129.2L168.47,129.2L168.71,129.48L168.95,129.48L169.19,129.48L169.43,129.51L169.67,129.54L169.91,129.73L170.15,129.73L170.39,129.73L170.63,129.73L170.87,129.89L171.11,129.92L171.35,129.92L171.59,129.92L171.83,129.92L172.07,129.99L172.31,130.18L172.55,130.18L172.79,130.18L173.03,130.18L173.27,130.18L173.51,130.49L173.75,130.49L173.99,130.49L174.23,130.49L174.47,130.49L174.71,130.56L174.95,130.63L175.19,130.99L175.43,131.02L175.67,131.06L175.9,131.09L176.14,131.09L176.38,131.13L176.62,131.17L176.86,131.6L177.1,131.68L177.34,131.71L177.58,131.71L177.82,131.75L178.06,131.75L178.3,131.78L178.54,132.22L178.78,132.25L179.02,132.25L179.26,132.25L179.5,132.32L179.74,132.36L179.98,132.36L180.22,132.58L180.46,132.85L180.7,132.89L180.94,132.93L181.18,132.97L181.42,132.97L181.66,133.1L181.9,133.74L182.14,135.82L182.38,136.59L182.62,139.99L182.86,141.36L183.1,141.45L183.34,141.83L183.57,141.83L183.81,142.09L184.05,142.12L184.29,142.12L184.53,142.18L184.77,142.22L185.01,142.28L185.25,142.28L185.49,142.28L185.73,142.34L185.97,142.37L186.21,142.37L186.45,142.62L186.69,142.65L186.93,142.9L187.17,142.9L187.41,143.03L187.65,143.03L187.89,143.26L188.13,143.26L188.37,143.32L188.61,143.54L188.85,143.54L189.09,143.85L189.33,143.85L189.57,143.95L189.81,143.95L190.05,143.95L190.29,144.17L190.53,144.2L190.77,144.51L191.01,144.51L191.24,144.51L191.48,144.77L191.72,144.77L191.96,145.05L192.2,145.05L192.44,145.05L192.68,145.21L192.92,145.21L193.16,147.05L193.4,150.26L193.64,154.08L193.88,154.59L194.12,154.75L194.36,154.81L194.6,154.81L194.84,154.81L195.08,154.81L195.32,155.04L195.56,155.73L195.8,155.73L196.04,155.73L196.28,155.73L196.52,155.73L196.76,155.73L197,155.73L197.24,155.73L197.48,155.77L197.72,155.77L197.96,155.8L198.2,155.8L198.44,155.8L198.68,155.8L198.91,155.8L199.15,155.8L199.39,155.8L199.63,155.8L199.87,155.8L200.11,155.8L200.35,155.8L200.59,155.8L200.83,155.84L201.07,155.87L201.31,155.9L201.55,155.93L201.79,155.93L202.03,155.97L202.27,156L202.51,156.03L202.75,156.07L202.99,156.07L203.23,156.07L203.47,156.07L203.71,156.07L203.95,156.07L204.19,156.07L204.43,156.14L204.67,156.14L204.91,156.14L205.15,156.23L205.39,156.43L205.63,156.46L205.87,156.49L206.11,156.49L206.34,156.49L206.58,156.49L206.82,156.49L207.06,156.56L207.3,156.56L207.54,156.56L207.78,156.85L208.02,156.89L208.26,156.89L208.5,156.89L208.74,156.92L208.98,156.96L209.22,156.96L209.46,157.03L209.7,157.41L209.94,157.41L210.18,157.44L210.42,157.44L210.66,157.44L210.9,157.48L211.14,157.51L211.38,157.51L211.62,157.86L211.86,158.15L212.1,158.21L212.34,150.38L212.58,150.38L212.82,150.49L213.06,150.49L213.3,150.49L213.54,150.53L213.78,150.8L214.01,150.83L214.25,150.86L214.49,150.86L214.73,150.94L214.97,151.01L215.21,151.05L215.45,151.09L215.69,151.6L215.93,151.63L216.17,151.7L216.41,153.76L216.65,163.03L216.89,167.16L217.13,168.63L217.37,168.63L217.61,169.71L217.85,169.77L218.09,169.77L218.33,171.55L218.57,172.79L218.81,172.98L219.05,173.07L219.29,174.05L219.53,174.08L219.77,174.11L220.01,174.11L220.25,174.11L220.49,174.11L220.73,174.11L220.97,174.11L221.21,174.11L221.45,174.11L221.68,174.11L221.92,174.11L222.16,174.11L222.4,174.14L222.64,174.14L222.88,174.14L223.12,174.14L223.36,174.14L223.6,174.14L223.84,174.14L224.08,174.14L224.32,174.14L224.56,174.14L224.8,174.14L225.04,174.14L225.28,174.14L225.52,174.14L225.76,174.14L226,174.14L226.24,174.14L226.48,174.14L226.72,174.14L226.96,174.14L227.2,174.14L227.44,174.14L227.68,174.14L227.92,174.14L228.16,174.14L228.4,174.14L228.64,174.14L228.88,174.14L229.12,174.14L229.35,174.14L229.59,174.14L229.83,174.17L230.07,174.17L230.31,174.17L230.55,175.22L230.79,175.28L231.03,176.49L231.27,178.08L231.51,178.11L231.75,178.15L231.99,178.21L232.23,178.33L232.47,178.33L232.71,178.33L232.95,178.33L233.19,178.33L233.43,178.37L233.67,178.37L233.91,178.37L234.15,178.37L234.39,178.37L234.63,178.37L234.87,178.37L235.11,178.37L235.35,178.37L235.59,178.37L235.83,178.37L236.07,178.37L236.31,178.37L236.55,178.37L236.79,178.37L237.02,178.37L237.26,178.37L237.5,178.37L237.74,178.37L237.98,178.37L238.22,178.37L238.46,178.37L238.7,178.37L238.94,178.37L239.18,178.37L239.42,178.37L239.66,178.37L239.9,178.37L240.14,178.37L240.38,178.37L240.62,178.37L240.86,178.37L241.1,178.37L241.34,178.37L241.58,178.37L241.82,178.37L242.06,178.37L242.3,178.37L242.54,178.37L242.78,178.37L243.02,178.37L243.26,178.37L243.5,178.37L243.74,178.37L243.98,178.37L244.22,178.37L244.46,178.37L244.69,178.37L244.93,178.37L245.17,178.37L245.41,178.37L245.65,178.37L245.89,178.37L246.13,178.37L246.37,178.37L246.61,178.46L246.85,178.46L247.09,178.46L247.33,178.46L247.57,178.46L247.81,178.46L248.05,178.46L248.29,178.75L248.53,178.75L248.77,178.75L249.01,178.75L249.25,178.75L249.49,178.75L249.73,178.75L249.97,179.09L250.21,179.09L250.45,179.09L250.69,179.09L250.93,179.09L251.17,179.09L251.41,179.12L251.65,179.12L251.89,179.5L252.12,179.63L252.36,179.63L252.6,179.63L252.84,179.63L253.08,179.63L253.32,179.63L253.56,179.63L253.8,179.63L254.04,179.63L254.28,180.13L254.52,180.17L254.76,180.17L255,180.17L255.24,180.17L255.48,180.21L255.72,180.27L255.96,180.27L256.2,180.33L256.44,180.33L256.68,180.37L256.92,180.4L257.16,180.98L257.4,181.29L257.64,181.29L257.88,181.32L258.12,181.35L258.36,181.35L258.6,181.83L258.84,181.83L259.08,181.86L259.32,181.86L259.56,181.89L259.79,181.92L260.03,181.96L260.27,181.99L260.51,181.99L260.75,182.44L260.99,182.98L261.23,182.98L261.47,183.01L261.71,183.01L261.95,183.04L262.19,183.07L262.43,183.11L262.67,183.14L262.91,183.14L263.15,183.17L263.39,183.17L263.63,183.2L263.87,183.24L264.11,183.24L264.35,183.27L264.59,183.3L264.83,183.65L265.07,183.65L265.31,183.65L265.55,183.68L265.79,183.68L266.03,183.71L266.27,183.74L266.51,183.74L266.75,183.78L266.99,183.81L267.23,183.88L267.46,183.91L267.7,176.04L267.94,176.51L268.18,183.37L268.42,187.47L268.66,187.73L268.9,190.4L269.14,195.39L269.38,198.35L269.62,201.05L269.86,205.06L270.1,206.43L270.34,207.13L270.58,207.13L270.82,207.13L271.06,207.13L271.3,210.56L271.54,212.28L271.78,216.19L272.02,220.36L272.26,222.2L272.5,222.24L272.74,222.24L272.98,222.24L273.22,222.24L273.46,222.24L273.7,222.24L273.94,222.24L274.18,222.24L274.42,222.24L274.66,222.24L274.9,222.24L275.13,222.24L275.37,222.24L275.61,222.24L275.85,222.24L276.09,222.24L276.33,222.24L276.57,222.24L276.81,222.24L277.05,222.24L277.29,222.24L277.53,222.24L277.77,222.24L278.01,222.24L278.25,222.24L278.49,222.24L278.73,222.24L278.97,222.24L279.21,222.24L279.45,222.24L279.69,222.24L279.93,222.24L280.17,222.24L280.41,222.24L280.65,222.24L280.89,222.24L281.13,222.24L281.37,222.24L281.61,222.24L281.85,222.24L282.09,222.24L282.33,222.24L282.57,222.24L282.8,222.24L283.04,222.24L283.28,222.24L283.52,222.24L283.76,222.24L284,222.24L284.24,222.24L284.48,222.24L284.72,222.24L284.96,222.24L285.2,222.24L285.44,222.24L285.68,222.24L285.92,222.24L286.16,222.24L286.4,222.24L286.64,222.24L286.88,222.24L287.12,222.24L287.36,222.24L287.6,222.24L287.84,222.24L288.08,222.24L288.32,222.24L288.56,222.24L288.8,222.24L289.04,222.24L289.28,222.24L289.52,222.24L289.76,222.24L290,222.24L290.24,222.24L290.47,222.24L290.71,222.24L290.95,222.24L291.19,222.24L291.43,222.24L291.67,222.24L291.91,222.24L292.15,222.24L292.39,222.24L292.63,222.24L292.87,222.24L293.11,222.24L293.35,222.24L293.59,222.24L293.83,222.24L294.07,222.24L294.31,222.24L294.55,222.24L294.79,222.24L295.03,222.24L295.27,222.24L295.51,222.24L295.75,222.24L295.99,222.24L296.23,222.24L296.47,222.24L296.71,222.24L296.95,222.24L297.19,222.24L297.43,222.24L297.67,222.24L297.9,222.24L298.14,222.24L298.38,222.24L298.62,222.24L298.86,222.24L299.1,222.24L299.34,222.24L299.58,222.24L299.82,222.24L300.06,222.24L300.3,222.24L300.54,222.24L300.78,222.24L301.02,222.24L301.26,222.24L301.5,222.24L301.74,222.24L301.98,222.24L302.22,222.24L302.46,222.3L302.7,222.3L302.94,222.33L303.18,222.33L303.42,222.33L303.66,225.45L303.9,228.76L304.14,228.76L304.38,228.82L304.62,228.85L304.86,229.01L305.1,229.01L305.34,229.01L305.57,229.04L305.81,229.04L306.05,229.04L306.29,229.04L306.53,229.04L306.77,229.04L307.01,229.04L307.25,229.04L307.49,229.1L307.73,229.1L307.97,229.1L308.21,229.1L308.45,229.1L308.69,229.1L308.93,229.1L309.17,229.1L309.41,229.1L309.65,229.1L309.89,229.1L310.13,229.1L310.37,229.1L310.61,229.1L310.85,229.1L311.09,229.1L311.33,229.1L311.57,229.1L311.81,229.1L312.05,229.1L312.29,229.1L312.53,229.1L312.77,229.1L313.01,229.1L313.24,229.1L313.48,229.1L313.72,229.1L313.96,229.1L314.2,229.1L314.44,229.1L314.68,229.1L314.92,229.1L315.16,229.1L315.4,229.14L315.64,229.14L315.88,229.17L316.12,229.21L316.36,229.25L316.6,229.25L316.84,229.28L317.08,229.28L317.32,229.31L317.56,229.34L317.8,229.34L318.04,229.38L318.28,229.4L318.52,229.51L318.76,229.57L319,232.66L319.24,236.87L319.48,237.7L319.72,237.74L319.96,237.81L320.2,239.55L320.44,242.32L320.68,242.45L320.91,242.45L321.15,242.45L321.39,242.69L321.63,242.69L321.87,242.82L322.11,242.9L322.35,242.9L322.59,242.9L322.83,242.95L323.07,242.95L323.31,242.95L323.55,242.98L323.79,243.07L324.03,243.12L324.27,243.12L324.51,243.24L324.75,243.28L324.99,243.28L325.23,243.28L325.47,243.28L325.71,244.47L325.95,246.22L326.19,250.56L326.43,255.17L326.67,259.59L326.91,259.69L327.15,259.82L327.39,259.89L327.63,259.89L327.87,260.11L328.11,260.11L328.35,260.11L328.58,260.11L328.82,260.11L329.06,260.11L329.3,260.11L329.54,260.11L329.78,260.11L330.02,260.11L330.26,260.14L330.5,260.14L330.74,260.14L330.98,260.14L331.22,260.14L331.46,260.14L331.7,260.14L331.94,260.14L332.18,260.14L332.42,260.14L332.66,260.14L332.9,260.14L333.14,260.14L333.38,260.14L333.62,260.14L333.86,260.14L334.1,260.14L334.34,260.14L334.58,260.14L334.82,260.14L335.06,260.14L335.3,260.17L335.54,260.17L335.78,260.17L336.02,260.17L336.25,260.17L336.49,260.17L336.73,260.17L336.97,260.17L337.21,260.17L337.45,260.21L337.69,260.21L337.93,260.21L338.17,260.21L338.41,260.21L338.65,260.21L338.89,260.21L339.13,260.21L339.37,260.21L339.61,260.21L339.85,260.27L340.09,260.31L340.33,260.31L340.57,260.31L340.81,264.25L341.05,264.82L341.29,264.82L341.53,265.08L341.77,267.29L342.01,271.04L342.25,273.68L342.49,273.68L342.73,274.11L342.97,274.24L343.21,274.31L343.45,274.46L343.68,274.62L343.92,274.62L344.16,275.27L344.4,275.27L344.64,275.27L344.88,275.27L345.12,275.27L345.36,275.27L345.6,275.27L345.84,275.27L346.08,275.27L346.32,275.27L346.56,275.27L346.8,275.27L347.04,275.27L347.28,275.27L347.52,275.27L347.76,275.27L348,275.27L348.24,275.27L348.48,275.27L348.72,275.27L348.96,275.27L349.2,275.27L349.44,275.27L349.68,275.27L349.92,275.27L350.16,275.27L350.4,275.27L350.64,275.27L350.88,275.33L351.12,275.33L351.35,275.33L351.59,275.33L351.83,275.33L352.07,277.2L352.31,277.46L352.55,277.46L352.79,277.46L353.03,277.46L353.27,277.46L353.51,277.46L353.75,277.46L353.99,277.46L354.23,277.46L354.47,277.46L354.71,277.46L354.95,277.46L355.19,277.46L355.43,277.46L355.67,277.46L355.91,277.46L356.15,277.46L356.39,277.46L356.63,277.46L356.87,277.46L357.11,277.46L357.35,277.46L357.59,277.46L357.83,277.46L358.07,277.46L358.31,277.46L358.55,277.46L358.79,277.46L359.02,277.46L359.26,277.46L359.5,277.46L359.74,277.46L359.98,277.46L360.22,277.46L360.46,277.46L360.7,277.46L360.94,277.46L361.18,277.46L361.42,277.46L361.66,277.46L361.9,277.46L362.14,277.46L362.38,277.46L362.62,277.46L362.86,277.46L363.1,277.46L363.34,277.46L363.58,277.46L363.82,277.46L364.06,277.46L364.3,278.09L364.54,278.98L364.78,278.98L365.02,278.98L365.26,278.98L365.5,278.98L365.74,278.98L365.98,278.98L366.22,278.98L366.46,278.98L366.69,278.98L366.93,278.98L367.17,278.98L367.41,278.98L367.65,278.98L367.89,278.98L368.13,278.98L368.37,278.98L368.61,278.98L368.85,278.98L369.09,278.98L369.33,279.03L369.57,279.03L369.81,279.03L370.05,279.03L370.29,279.03L370.53,279.03L370.77,279.13L371.01,279.13L371.25,279.13L371.49,279.13L371.73,279.13L371.97,279.39L372.21,279.39L372.45,281.89L372.69,282.66L372.93,282.66L373.17,283.74L373.41,283.86L373.65,283.86L373.89,283.9L374.13,283.93L374.36,283.93L374.6,283.93L374.84,283.93L375.08,283.93L375.32,283.93L375.56,283.93L375.8,283.93L376.04,283.93L376.28,283.93L376.52,283.93L376.76,283.93L377,283.93L377.24,283.93L377.48,283.93L377.72,283.93L377.96,283.93L378.2,283.93L378.44,283.93L378.68,283.93L378.92,283.93L379.16,283.93L379.4,283.93L379.64,283.93L379.88,283.93L380.12,283.93L380.36,283.93L380.6,283.93L380.84,283.93L381.08,283.93L381.32,283.93L381.56,283.93L381.8,283.93L382.03,283.93L382.27,283.93L382.51,283.93L382.75,283.93L382.99,283.93L383.23,283.93L383.47,284.12L383.71,287.46L383.95,287.46L384.19,287.52L384.43,287.52L384.67,287.55L384.91,287.58L385.15,287.58L385.39,287.58L385.63,287.58L385.87,287.58L386.11,287.58L386.35,287.58L386.59,287.58L386.83,287.58L387.07,287.58L387.31,287.58L387.55,287.58L387.79,287.58L388.03,287.58L388.27,287.58L388.51,287.58L388.75,287.58L388.99,287.58L389.23,287.58L389.46,287.58L389.7,287.58L389.94,287.58L390.18,287.58L390.42,287.58L390.66,287.58L390.9,287.58L391.14,287.65L391.38,287.65L391.62,287.65L391.86,287.65L392.1,287.65L392.34,287.65L392.58,287.65L392.82,287.65L393.06,287.65L393.3,287.65L393.54,287.65L393.78,287.65L394.02,287.65L394.26,287.65L394.5,287.65L394.74,287.65L394.98,287.65L395.22,287.65L395.46,287.65L395.7,287.65L395.94,287.65L396.18,287.65L396.42,287.65L396.66,287.65L396.9,287.74L397.13,287.74L397.37,287.74L397.61,287.74L397.85,287.74L398.09,287.74L398.33,287.74L398.57,287.74L398.81,287.74L399.05,287.74L399.29,287.74L399.53,287.74L399.77,287.74L400.01,287.74L400.25,287.74L400.49,287.74L400.73,287.74L400.97,287.74L401.21,287.74L401.45,287.74L401.69,287.74L401.93,287.74L402.17,287.74L402.41,287.74L402.65,287.74L402.89,287.74L403.13,287.74L403.37,287.74L403.61,287.74L403.85,287.74L404.09,287.74L404.33,287.74L404.57,287.74L404.8,287.74L405.04,287.74L405.28,287.74L405.52,287.74L405.76,287.74L406,287.74L406.24,287.74L406.48,287.74L406.72,287.74L406.96,287.74L407.2,287.74L407.44,287.74L407.68,287.74L407.92,287.74L408.16,287.74L408.4,287.74L408.64,287.74L408.88,287.74L409.12,287.74L409.36,287.74L409.6,287.74L409.84,287.74L410.08,287.74L410.32,287.74L410.56,287.74L410.8,287.74L411.04,287.74L411.28,287.74L411.52,287.74L411.76,287.74L412,287.74L412.24,287.74L412.47,287.74L412.71,287.74L412.95,287.74L413.19,287.74L413.43,287.74L413.67,287.74L413.91,287.74L414.15,287.74L414.39,287.74L414.63,287.74L414.87,287.77L415.11,287.8L415.35,287.8L415.59,287.83L415.83,287.83L416.07,287.83L416.31,287.88L416.55,287.88L416.79,291.63L417.03,295.39L417.27,298.66L417.51,298.66L417.75,302.61L417.99,307.06L418.23,309.8L418.47,309.96L418.71,310.14L418.95,310.71L419.19,310.81L419.43,310.94L419.67,313.39L419.91,313.39L420.14,313.45L420.38,313.45L420.62,313.45L420.86,313.99L421.1,313.99L421.34,314.15L421.58,314.15L421.82,314.22L422.06,314.22L422.3,314.22L422.54,314.22L422.78,314.22L423.02,314.22L423.26,314.22L423.5,314.22L423.74,314.31L423.98,314.31L424.22,314.31L424.46,314.31L424.7,314.31L424.94,314.31L425.18,314.31L425.42,314.31L425.66,314.31L425.9,316.19L426.14,320.03L426.38,322.29L426.62,322.29L426.86,322.29L427.1,322.29L427.34,322.39L427.58,322.45L427.81,322.64L428.05,322.64L428.29,322.64L428.53,322.64L428.77,322.64L429.01,322.64L429.25,322.64L429.49,322.64L429.73,322.64L429.97,322.64L430.21,322.64L430.45,322.64L430.69,322.64L430.93,322.64L431.17,322.64L431.41,322.64L431.65,322.64L431.89,322.64L432.13,322.64L432.37,322.64L432.61,322.64L432.85,322.64L433.09,322.64L433.33,322.64L433.57,322.64L433.81,322.64L434.05,322.64L434.29,322.64L434.53,322.64L434.77,322.64L435.01,322.64L435.25,322.64L435.48,322.64L435.72,322.64L435.96,322.64L436.2,322.64L436.44,322.64L436.68,322.64L436.92,322.64L437.16,322.64L437.4,322.64L437.64,322.64L437.88,322.64L438.12,322.64L438.36,322.64L438.6,322.64L438.84,322.64L439.08,322.64L439.32,322.64L439.56,322.64L439.8,322.64L440.04,322.64L440.28,322.64L440.52,322.64L440.76,322.64L441,322.64L441.24,322.64L441.48,322.64L441.72,322.64L441.96,322.64L442.2,322.64L442.44,322.64L442.68,322.64L442.91,322.64L443.15,322.64L443.39,322.64L443.63,322.64L443.87,322.64L444.11,322.64L444.35,322.64L444.59,322.64L444.83,322.64L445.07,322.64L445.31,322.64L445.55,322.64L445.79,322.64L446.03,322.64L446.27,322.64L446.51,322.64L446.75,322.64L446.99,322.64L447.23,322.64L447.47,322.64L447.71,322.64L447.95,322.64L448.19,322.64L448.43,322.64L448.67,322.64L448.91,322.64L449.15,322.64L449.39,322.64L449.63,322.64L449.87,322.64L450.11,322.64L450.35,322.64L450.58,322.64L450.82,322.64L451.06,322.64L451.3,322.64L451.54,322.64L451.78,322.64L452.02,322.64L452.26,322.64L452.5,322.64L452.74,322.64L452.98,322.64L453.22,322.64L453.46,322.64L453.7,322.64L453.94,322.64L454.18,322.64L454.42,322.64L454.66,322.64L454.9,322.64L455.14,322.64L455.38,322.64L455.62,322.64L455.86,322.64L456.1,322.64L456.34,322.64L456.58,322.64L456.82,322.64L457.06,322.64L457.3,322.64L457.54,322.64L457.78,322.64L458.02,322.64L458.25,322.64L458.49,322.64L458.73,322.64L458.97,322.64L459.21,322.64L459.45,322.64L459.69,322.64L459.93,322.64L460.17,322.64L460.41,322.64L460.65,322.64L460.89,322.68L461.13,322.68L461.37,322.68L461.61,322.68L461.85,322.68L462.09,322.68L462.33,322.77L462.57,322.77L462.81,322.74L463.05,322.74L463.29,322.78L463.53,322.82L463.77,322.82L464.01,322.85L464.25,322.85L464.49,322.89L464.73,322.94L464.97,322.98L465.21,323.02L465.45,323.02L465.69,323.06L465.92,323.09L466.16,315.23L466.4,315.28L466.64,315.28L466.88,315.31L467.12,315.34L467.36,315.34L467.6,315.37L467.84,315.37L468.08,315.41L468.32,315.44L468.56,315.44L468.8,315.47L469.04,315.51L469.28,315.54L469.52,315.61L469.76,315.65L470,315.69L470.24,315.69L470.48,315.73L470.72,315.77L470.96,315.81L471.2,323.03L471.44,323.05L471.68,323.05L471.92,326.9L472.16,331.24L472.4,335.56L472.64,339.7L472.88,343.71L473.12,344.58L473.36,344.67L473.59,348.14L473.83,352.47L474.07,356.98L474.31,359.75L474.55,359.88L474.79,361.06L475.03,361.15L475.27,361.15L475.51,361.15L475.75,361.15L475.99,361.15L476.23,361.15L476.47,361.15L476.71,361.15L476.95,361.15L477.19,361.15L477.43,361.15L477.67,361.15L477.91,361.15L478.15,361.15L478.39,361.31L478.63,361.31L478.87,361.37L479.11,361.37L479.35,361.37L479.59,361.63L479.83,365.77L480.07,369.87L480.31,369.93L480.55,369.96L480.79,370L481.03,370.88L481.26,375.02L481.5,379.09L481.74,383.26L481.98,383.32L482.22,383.42L482.46,383.42L482.7,383.42L482.94,383.52L483.18,383.64L483.42,383.77L483.66,383.77L483.9,383.77L484.14,383.77L484.38,383.77L484.62,383.8L484.86,383.8L485.1,383.8L485.34,383.8L485.58,383.8L485.82,383.8L486.06,383.8L486.3,383.8L486.54,383.8L486.78,383.8L487.02,383.8L487.26,383.8L487.5,383.8L487.74,383.8L487.98,383.8L488.22,383.8L488.46,383.8L488.69,383.8L488.93,383.8L489.17,383.8L489.41,383.8L489.65,383.8L489.89,383.8L490.13,383.8L490.37,383.8L490.61,383.8L490.85,383.8L491.09,383.8L491.33,383.8L491.57,383.8L491.81,383.8L492.05,383.8L492.29,383.8L492.53,383.8L492.77,383.8L493.01,383.8L493.25,383.8L493.49,383.8L493.73,383.8L493.97,383.8L494.21,383.8L494.45,383.8L494.69,383.8L494.93,383.8L495.17,383.8L495.41,383.8L495.65,383.8L495.89,383.8L496.13,383.8L496.36,383.8L496.6,383.8L496.84,383.8L497.08,383.8L497.32,383.8L497.56,383.8L497.8,383.8L498.04,383.8L498.28,383.8L498.52,383.8L498.76,383.8L499,383.8L499.24,383.8L499.48,383.8L499.72,383.8L499.96,383.8L500.2,383.8L500.44,383.8L500.68,383.8L500.92,383.8L501.16,383.8L501.4,383.8L501.64,383.8L501.88,383.8L502.12,383.8L502.36,383.8L502.6,383.8L502.84,383.8L503.08,383.8L503.32,383.8L503.56,383.8L503.8,383.8L504.03,383.8L504.27,383.8L504.51,383.8L504.75,383.8L504.99,383.8L505.23,383.8L505.47,383.8L505.71,383.8L505.95,383.8L506.19,383.8L506.43,383.8L506.67,383.8L506.91,383.8L507.15,383.8L507.39,383.8L507.63,383.8L507.87,383.8L508.11,383.8L508.35,383.8L508.59,383.8L508.83,383.8L509.07,383.8L509.31,383.8L509.55,383.8L509.79,383.8L510.03,383.8L510.27,383.8L510.51,383.83L510.75,384.88L510.99,384.88L511.23,384.88L511.47,384.88L511.7,384.88L511.94,384.88L512.18,384.88L512.42,385.95L512.66,385.95L512.9,386.04L513.14,386.04L513.38,386.08L513.62,386.08L513.86,386.08L514.1,386.08L514.34,388.97L514.58,389.61L514.82,389.71L515.06,389.73L515.3,389.73L515.54,389.73L515.78,389.73L516.02,389.73L516.26,389.73L516.5,389.9L516.74,389.9L516.98,390.02L517.22,390.06L517.46,390.06L517.7,390.06L517.94,390.06L518.18,390.06L518.42,390.06L518.66,390.06L518.9,390.06L519.14,390.06L519.37,390.06L519.61,390.06L519.85,390.06L520.09,390.06L520.33,390.06L520.57,390.06L520.81,390.06L521.05,390.06L521.29,390.06L521.53,390.06L521.77,390.06L522.01,390.06L522.25,390.06L522.49,390.06L522.73,390.06L522.97,390.06L523.21,390.06L523.45,390.06L523.69,390.06L523.93,390.06L524.17,390.06L524.41,390.06L524.65,390.06L524.89,390.06L525.13,390.06L525.37,390.06L525.61,390.06L525.85,390.06L526.09,390.06L526.33,390.06L526.57,390.06L526.81,390.06L527.04,390.06L527.28,390.06L527.52,390.06L527.76,390.06L528,390.06L528.24,390.06L528.48,390.06L528.72,390.06L528.96,390.06L529.2,390.06L529.44,390.06L529.68,390.15L529.92,390.15L530.16,390.15L530.4,390.15L530.64,390.15L530.88,390.15L531.12,390.15L531.36,390.15L531.6,390.15L531.84,390.15L532.08,390.15L532.32,390.15L532.56,390.15L532.8,390.15L533.04,390.15L533.28,390.15L533.52,390.15L533.76,390.15L534,390.15L534.24,390.15L534.47,390.15L534.71,390.15L534.95,390.15L535.19,390.15L535.43,390.15L535.67,390.15L535.91,390.15L536.15,390.15L536.39,390.15L536.63,390.15L536.87,390.15L537.11,390.15L537.35,390.15L537.59,390.15L537.83,390.15L538.07,390.15L538.31,390.15L538.55,390.15L538.79,390.15L539.03,390.15L539.27,390.15L539.51,390.15L539.75,390.15L539.99,390.15L540.23,390.15L540.47,390.15L540.71,390.15L540.95,390.15L541.19,390.15L541.43,390.15L541.67,390.21L541.91,390.24L542.14,390.24L542.38,390.24L542.62,390.24L542.86,390.24L543.1,390.24L543.34,390.24L543.58,391.42L543.82,394.47L544.06,394.47L544.3,394.47L544.54,394.57L544.78,394.57L545.02,394.57L545.26,394.57L545.5,394.57L545.74,394.57L545.98,394.57L546.22,394.57L546.46,394.57L546.7,394.57L546.94,394.57L547.18,394.57L547.42,394.57L547.66,394.63L547.9,394.63L548.14,394.63L548.38,394.63L548.62,394.63L548.86,394.63L549.1,394.63L549.34,394.67L549.58,394.67L549.81,394.67L550.05,394.67L550.29,394.67L550.53,394.67L550.77,394.67L551.01,394.67L551.25,394.67L551.49,394.67L551.73,394.67L551.97,394.67L552.21,394.67L552.45,394.67L552.69,394.67L552.93,396.31L553.17,396.34L553.41,396.34L553.65,396.34L553.89,396.34L554.13,396.34L554.37,396.34L554.61,396.34L554.85,396.34L555.09,396.72L555.33,396.72L555.57,396.81L555.81,396.81L556.05,396.81L556.29,396.81L556.53,396.81L556.77,396.81L557.01,396.81L557.25,396.91L557.48,396.91L557.72,396.91L557.96,396.91L558.2,396.91L558.44,396.91L558.68,396.91L558.92,396.91L559.16,396.91L559.4,396.91L559.64,396.94L559.88,396.94L560.12,396.94L560.36,396.94L560.6,397.65L560.84,399.35L561.08,399.35L561.32,399.35L561.56,399.35L561.8,399.35L562.04,399.35L562.28,399.35L562.52,399.35L562.76,399.35L563,399.73L563.24,399.77L563.48,399.77L563.72,399.77L563.96,399.79L564.2,399.79L564.44,399.79L564.68,399.79L564.92,399.83L565.15,399.83L565.39,399.83L565.63,399.83L565.87,399.83L566.11,399.83L566.35,399.83L566.59,399.83L566.83,399.83L567.07,399.83L567.31,399.83L567.55,399.83L567.79,399.83L568.03,399.83L568.27,399.83L568.51,399.83L568.75,399.83L568.99,399.83L569.23,399.83L569.47,399.83L569.71,399.83L569.95,399.83L570.19,399.83L570.43,399.83L570.67,399.83L570.91,399.83L571.15,399.83L571.39,399.83L571.63,399.83L571.87,399.83L572.11,399.83L572.35,399.83L572.59,399.83L572.82,399.83L573.06,399.83L573.3,399.83L573.54,399.83L573.78,399.83L574.02,399.83L574.26,399.83L574.5,399.83L574.74,399.83L574.98,399.83L575.22,399.83L575.46,399.83L575.7,399.83L575.94,399.83L576.18,399.83L576.42,399.83L576.66,399.83L576.9,399.83L577.14,399.83L577.38,399.83L577.62,399.83L577.86,399.83L578.1,399.83L578.34,399.83L578.58,399.83L578.82,399.83L579.06,399.83L579.3,399.83L579.54,399.83L579.78,399.83L580.02,399.83L580.25,399.83L580.49,399.83L580.73,399.83L580.97,399.83L581.21,399.83L581.45,399.83L581.69,399.83L581.93,399.83L582.17,399.83L582.41,399.83L582.65,399.83L582.89,399.83L583.13,399.83L583.37,399.83L583.61,399.86L583.85,399.86L584.09,399.86L584.33,399.86L584.57,399.86L584.81,399.86L585.05,399.86L585.29,401.45L585.53,405.93L585.77,407.46L586.01,407.46L586.25,407.46L586.49,407.46L586.73,407.46L586.97,407.46L587.21,407.46L587.45,407.46L587.69,407.46L587.92,407.46L588.16,407.46L588.4,407.46L588.64,407.46L588.88,407.46L589.12,407.46L589.36,407.46L589.6,407.46L589.84,407.46L590.08,407.46L590.32,407.46L590.56,407.46L590.8,407.46L591.04,407.46L591.28,407.46L591.52,407.46L591.76,407.46L592,407.46L592.24,407.46L592.48,407.46L592.72,407.46L592.96,407.46L593.2,407.46L593.44,407.46L593.68,407.46L593.92,407.46L594.16,407.46L594.4,407.46L594.64,407.46L594.88,407.46L595.12,407.46L595.36,407.46L595.59,407.46L595.83,407.46L596.07,407.46L596.31,407.46L596.55,407.46L596.79,407.46L597.03,407.46L597.27,407.46L597.51,407.46L597.75,407.46L597.99,407.46L598.23,407.46L598.47,407.46L598.71,407.46L598.95,407.46L599.19,407.46L599.43,407.46L599.67,407.46L599.91,407.46L600.15,407.46L600.39,407.46L600.63,407.46L600.87,407.46L601.11,407.46L601.35,407.46L601.59,407.46L601.83,407.46L602.07,407.46L602.31,407.46L602.55,407.46L602.79,407.46L603.03,407.46L603.26,407.46L603.5,407.46L603.74,407.46L603.98,407.46L604.22,407.46L604.46,407.46L604.7,409.48L604.94,413.61L605.18,415.11L605.42,415.11L605.66,415.11L605.9,415.14L606.14,415.17L606.38,415.3L606.62,415.3L606.86,415.3L607.1,415.3L607.34,416.73L607.58,416.92L607.82,416.92L608.06,416.92L608.3,419.47L608.54,423.44L608.78,423.47L609.02,423.5L609.26,423.5L609.5,423.5L609.74,423.5L609.98,423.54L610.22,423.66L610.46,423.69L610.7,423.69L610.93,423.69L611.17,423.76L611.41,423.76L611.65,423.76L611.89,423.76L612.13,423.76L612.37,423.76L612.61,423.76L612.85,423.8L613.09,423.8L613.33,423.8L613.57,423.8L613.81,423.8L614.05,423.8L614.29,423.8L614.53,423.8L614.77,423.8L615.01,423.8L615.25,423.8L615.49,423.8L615.73,423.8L615.97,423.8L616.21,423.8L616.45,423.8L616.69,423.8L616.93,423.8L617.17,423.8L617.41,423.8L617.65,423.8L617.89,423.8L618.13,423.8L618.37,423.8L618.6,423.8L618.84,423.8L619.08,423.8L619.32,423.8L619.56,423.8L619.8,423.8L620.04,423.8L620.28,423.8L620.52,423.8L620.76,423.8L621,423.8L621.24,423.8L621.48,423.8L621.72,423.8L621.96,423.8L622.2,423.8L622.44,423.8L622.68,423.8L622.92,423.8L623.16,423.8L623.4,423.8L623.64,423.8L623.88,423.8L624.12,423.8L624.36,423.8L624.6,423.8L624.84,423.8L625.08,423.8L625.32,423.8L625.56,423.8L625.8,423.8L626.03,423.8L626.27,423.8L626.51,423.8L626.75,423.8L626.99,423.8L627.23,423.8L627.47,423.8L627.71,423.8L627.95,423.8L628.19,423.8L628.43,423.8L628.67,423.8L628.91,423.8L629.15,423.8L629.39,423.8L629.63,423.8L629.87,423.8L630.11,423.8L630.35,423.8L630.59,423.8L630.83,423.8L631.07,423.8L631.31,423.8L631.55,423.8L631.79,423.8L632.03,423.8L632.27,423.8L632.51,423.8L632.75,423.8L632.99,423.8L633.23,423.8L633.47,423.8L633.7,423.8L633.94,423.8L634.18,423.8L634.42,423.8L634.66,423.8L634.9,423.8L635.14,423.8L635.38,423.8L635.62,423.8L635.86,423.8L636.1,423.8L636.34,423.8L636.58,423.8L636.82,423.8L637.06,423.8L637.3,423.8L637.54,423.8L637.78,423.8L638.02,423.8L638.26,423.98L638.5,424.18L638.74,424.1L638.98,424.1L639.22,424.1L639.46,424.1L639.7,424.1L639.94,424.1L640.18,425.69L640.42,429.99L640.66,434.22L640.9,438.55L641.14,439.19L641.37,439.19L641.61,439.19L641.85,439.25L642.09,439.25L642.33,439.25L642.57,439.25L642.81,439.25L643.05,439.25L643.29,439.25L643.53,439.25L643.77,439.25L644.01,439.25L644.25,439.25L644.49,439.25L644.73,439.25L644.97,439.25L645.21,439.25L645.45,439.25L645.69,439.25L645.93,439.25L646.17,439.25L646.41,439.25L646.65,439.25L646.89,439.25L647.13,439.25L647.37,439.25L647.61,439.25L647.85,439.25L648.09,439.25L648.33,439.25L648.57,439.25L648.81,439.25L649.04,439.25L649.28,439.25L649.52,439.25L649.76,439.25L650,439.25L650.24,439.25L650.48,439.25L650.72,439.25L650.96,439.25L651.2,439.25L651.44,439.25L651.68,439.25L651.92,439.25L652.16,439.25L652.4,439.25L652.64,439.28L652.88,439.28L653.12,439.28L653.36,439.28L653.6,439.28L653.84,439.28L654.08,439.28L654.32,439.28L654.56,439.28L654.8,439.28L655.04,439.28L655.28,439.5L655.52,443.77L655.76,446.6L656,446.6L656.24,446.6L656.48,446.6L656.71,446.6L656.95,446.69L657.19,446.76L657.43,446.96L657.67,447.09L657.91,447.09L658.15,447.09L658.39,447.09L658.63,447.09L658.87,447.09L659.11,448.43L659.35,452.18L659.59,452.34L659.83,452.34L660.07,452.34L660.31,452.34L660.55,452.4L660.79,452.46L661.03,452.5L661.27,452.5L661.51,455.3L661.75,458.86L661.99,458.92L662.23,458.92L662.47,458.92L662.71,458.92L662.95,458.95L663.19,458.95L663.43,458.95L663.67,458.95L663.91,458.95L664.15,458.95L664.38,458.95L664.62,458.95L664.86,458.95L665.1,458.95L665.34,458.95L665.58,458.95L665.82,458.95L666.06,458.95L666.3,458.95L666.54,458.95L666.78,458.95L667.02,458.95L667.26,458.95L667.5,458.95L667.74,458.95L667.98,458.95L668.22,458.95L668.46,458.95L668.7,458.95L668.94,458.95L669.18,458.95L669.42,458.95L669.66,458.95L669.9,458.95L670.14,458.95L670.38,458.95L670.62,458.95L670.86,458.95L671.1,458.95L671.34,458.95L671.58,458.95L671.81,458.95L672.05,458.95L672.29,458.95L672.53,458.95L672.77,458.95L673.01,458.95L673.25,458.95L673.49,458.95L673.73,458.95L673.97,458.95L674.21,458.95L674.45,458.95L674.69,458.95L674.93,458.95L675.17,458.95L675.41,458.95L675.65,458.95L675.89,458.95L676.13,458.95L676.37,458.95L676.61,458.95L676.85,458.95L677.09,458.95L677.33,458.95L677.57,458.95L677.81,458.95L678.05,458.95L678.29,458.95L678.53,458.95L678.77,458.95L679.01,458.95L679.25,458.95L679.48,458.95L679.72,458.95L679.96,458.95L680.2,458.95L680.44,458.95L680.68,458.95L680.92,458.95L681.16,458.95L681.4,458.95L681.64,458.95L681.88,458.95L682.12,458.95L682.36,458.95L682.6,458.95L682.84,458.95L683.08,458.95L683.32,458.95L683.56,458.95L683.8,458.95L684.04,458.95L684.28,458.95L684.52,458.95L684.76,458.95L685,458.95L685.24,458.95L685.48,458.95L685.72,458.95L685.96,458.95L686.2,458.95L686.44,458.95L686.68,458.95L686.92,458.95L687.15,458.95L687.39,458.95L687.63,458.95L687.87,458.95L688.11,458.95L688.35,458.95L688.59,458.95L688.83,458.95L689.07,458.95L689.31,458.95L689.55,458.95L689.79,458.95L690.03,458.95L690.27,458.95L690.51,461.4L690.75,461.4L690.99,461.44L691.23,461.44L691.47,461.44L691.71,461.44L691.95,461.44L692.19,461.44L692.43,461.44L692.67,461.44L692.91,461.47L693.15,461.47L693.39,461.47L693.63,461.47L693.87,461.47L694.11,461.47L694.35,461.47L694.59,461.5L694.82,461.5L695.06,461.5L695.3,461.5L695.54,461.5L695.78,461.5L696.02,461.5L696.26,461.5L696.5,461.5L696.74,461.5L696.98,461.5L697.22,461.5L697.46,461.5L697.7,461.5L697.94,461.5L698.18,461.5L698.42,461.5L698.66,461.5L698.9,461.5L699.14,461.5L699.38,461.5L699.62,461.5L699.86,461.5L700.1,461.5L700.34,461.5L700.58,461.5L700.82,461.5L701.06,461.5L701.3,461.5L701.54,461.5L701.78,461.5L702.02,461.57L702.26,461.57L702.49,461.57L702.73,461.57L702.97,461.57L703.21,461.57L703.45,461.57L703.69,461.57L703.93,461.57L704.17,461.57L704.41,461.57L704.65,461.57L704.89,461.57L705.13,461.57L705.37,461.57L705.61,461.57L705.85,461.57L706.09,461.57L706.33,461.57L706.57,461.57L706.81,461.57L707.05,461.57L707.29,461.57L707.53,461.79L707.77,461.92L708.01,461.94L708.25,462.1L708.49,462.1L708.73,462.1L708.97,462.1L709.21,462.1L709.45,464.67L709.69,468.84L709.93,473.87L710.16,481.76L710.4,489.45L710.64,494.77L710.88,498.81L711.12,502.85L711.36,504.47L711.6,504.53L711.84,504.53L712.08,504.57L712.32,504.69L712.56,504.79L712.8,504.98L713.04,505.24L713.28,505.43L713.52,505.52L713.76,505.71L714,505.71L714.24,505.71L714.48,505.87L714.72,505.87L714.96,505.87L715.2,505.93L715.44,505.93L715.68,505.93L715.92,505.93L716.16,505.93L716.4,505.93L716.64,505.93L716.88,505.93L717.12,505.93L717.36,505.93L717.59,505.93L717.83,505.93L718.07,505.93L718.31,505.93L718.55,505.93L718.79,505.93L719.03,505.93L719.27,505.93L719.51,505.93L719.75,505.93L719.99,505.93L720.23,505.93L720.47,505.93L720.71,505.93L720.95,505.93L721.19,505.93L721.43,505.93L721.67,505.93L721.91,505.93L722.15,505.93L722.39,505.93L722.63,505.93L722.87,505.93L723.11,505.93L723.35,505.93L723.59,505.93L723.83,505.93L724.07,505.93L724.31,505.93L724.55,505.93L724.79,505.93L725.03,505.93L725.26,505.93L725.5,505.93L725.74,505.93L725.98,507.97L726.22,512.33L726.46,513.89L726.7,513.89L726.94,513.89L727.18,513.92L727.42,513.92L727.66,513.92L727.9,513.95L728.14,514.08L728.38,514.17L728.62,514.17L728.86,514.17L729.1,514.17L729.34,514.17L729.58,514.17L729.82,514.17L730.06,514.17L730.3,514.17L730.54,514.17L730.78,514.17L731.02,514.17L731.26,514.17L731.5,514.17L731.74,514.17L731.98,514.17L732.22,514.17L732.46,514.17L732.7,514.17L732.93,514.17L733.17,514.17L733.41,514.17L733.65,514.17L733.89,514.17L734.13,514.17L734.37,514.17L734.61,514.17L734.85,514.17L735.09,514.17L735.33,514.17L735.57,514.17L735.81,514.17L736.05,514.17L736.29,514.17L736.53,514.17L736.77,514.17L737.01,514.17L737.25,514.17L737.49,514.17L737.73,514.17L737.97,514.17L738.21,514.17L738.45,514.17L738.69,514.17L738.93,514.17L739.17,514.17L739.41,514.17L739.65,514.17L739.89,514.17L740.13,514.17L740.37,514.17L740.6,514.17L740.84,514.17L741.08,514.17L741.32,514.24L741.56,514.24L741.8,514.24L742.04,514.24L742.28,514.24L742.52,514.24L742.76,514.24L743,514.24L743.24,514.24L743.48,514.24L743.72,514.24L743.96,514.24L744.2,514.24L744.44,514.24L744.68,514.24L744.92,514.24L745.16,514.24L745.4,514.24L745.64,514.24L745.88,514.24L746.12,514.24L746.36,514.24L746.6,514.24L746.84,514.24L747.08,514.24L747.32,514.24L747.56,514.24L747.8,514.24L748.04,514.24L748.27,514.24L748.51,514.24L748.75,514.24L748.99,514.24L749.23,514.24L749.47,514.24L749.71,514.24L749.95,514.24L750.19,514.24L750.43,514.24L750.67,514.24L750.91,514.24L751.15,514.24L751.39,514.24L751.63,514.24L751.87,514.24L752.11,514.24L752.35,514.24L752.59,514.24L752.83,514.24L753.07,514.24L753.31,514.24L753.55,514.27L753.79,514.27L754.03,514.27L754.27,514.27L754.51,514.27L754.75,514.27L754.99,514.27L755.23,514.27L755.47,514.27L755.71,514.27L755.94,514.28L756.18,514.28L756.42,514.28L756.66,514.28L756.9,514.28L757.14,514.28L757.38,515.94L757.62,518.29L757.86,518.29L758.1,518.29L758.34,518.29L758.58,518.29L758.82,518.29L759.06,518.29L759.3,518.29L759.54,518.29L759.78,518.29L760.02,518.29L760.26,518.29L760.5,518.29L760.74,518.29L760.98,518.29L761.22,518.29L761.46,518.32L761.7,518.32L761.94,518.35L762.18,518.35L762.42,518.35L762.66,518.35L762.9,518.35L763.14,518.35L763.37,518.35L763.61,518.83L763.85,518.86L764.09,518.86L764.33,518.86L764.57,518.89L764.81,521.79L765.05,526.12L765.29,530.28L765.53,530.28L765.77,530.28L766.01,530.28L766.25,530.28L766.49,530.35L766.73,530.44L766.97,530.44L767.21,530.44L767.45,530.44L767.69,530.44L767.93,530.51L768.17,530.51L768.41,530.51L768.65,530.51L768.89,530.51L769.13,530.51L769.37,530.51L769.61,530.51L769.85,530.51L770.09,530.51L770.33,530.51L770.57,530.51L770.81,530.51L771.04,530.51L771.28,530.51L771.52,530.51L771.76,530.51L772,530.51L772.24,530.51L772.48,530.51L772.72,530.51L772.96,530.51L773.2,530.79L773.44,530.79L773.68,530.79L773.92,530.79L774.16,530.79L774.4,530.88L774.64,530.88L774.88,530.88L775.12,530.88L775.36,530.88L775.6,530.88L775.84,530.88L776.08,530.88L776.32,530.88L776.56,530.88L776.8,530.88L777.04,530.88L777.28,530.88L777.52,530.88L777.76,530.88L778,530.88L778.24,530.88L778.48,530.88L778.71,530.88L778.95,530.88L779.19,530.88L779.43,530.88L779.67,530.88L779.91,530.88L780.15,530.88L780.39,530.88L780.63,530.88L780.87,530.88L781.11,530.88L781.35,530.88L781.59,530.88L781.83,530.88L782.07,530.88L782.31,530.88L782.55,530.88L782.79,530.88L783.03,530.92L783.27,530.92L783.51,530.92L783.75,530.92L783.99,530.92L784.23,530.92L784.47,530.92L784.71,530.92L784.95,530.92L785.19,530.92L785.43,531.3L785.67,533.11L785.91,533.11L786.15,533.11L786.38,533.11L786.62,533.23L786.86,533.23L787.1,533.23L787.34,533.26L787.58,533.26L787.82,533.26L788.06,533.26L788.3,534.12L788.54,534.68L788.78,534.68L789.02,534.68L789.26,534.71L789.5,534.71L789.74,534.71L789.98,534.71L790.22,534.78L790.46,534.78L790.7,534.78L790.94,534.78L791.18,534.78L791.42,534.78L791.66,534.78L791.9,534.78L792.14,534.78L792.38,534.78L792.62,534.78L792.86,534.78L793.1,534.78L793.34,534.81L793.58,534.84L793.82,534.84L794.05,534.84L794.29,534.84L794.53,534.84L794.77,534.84L795.01,534.84L795.25,534.84L795.49,534.84L795.73,534.84L795.97,534.84L796.21,534.84L796.45,534.84L796.69,534.84L796.93,534.84L797.17,534.84L797.41,534.84L797.65,534.84L797.89,534.84L798.13,534.84L798.37,534.84L798.61,534.84L798.85,536.91L799.09,536.91L799.33,536.91L799.57,536.91L799.81,536.91L800.05,537.01L800.29,537.01L800.53,537.01L800.77,537.01L801.01,537.01L801.25,537.01L801.49,537.01L801.72,537.01L801.96,537.01L802.2,537.01L802.44,537.01L802.68,537.01L802.92,537.01L803.16,537.01L803.4,537.01L803.64,537.01L803.88,537.01L804.12,537.01L804.36,537.01L804.6,537.01L804.84,537.01L805.08,537.01L805.32,537.01L805.56,537.01L805.8,537.01L806.04,537.01L806.28,537.01L806.52,537.01L806.76,537.01L807,537.01L807.24,537.01L807.48,537.01L807.72,537.01L807.96,537.01L808.2,537.01L808.44,537.01L808.68,537.01L808.92,537.01L809.15,537.01L809.39,537.01L809.63,537.01L809.87,537.01L810.11,537.01L810.35,537.01L810.59,537.01L810.83,537.01L811.07,537.01L811.31,537.01L811.55,537.01L811.79,537.01L812.03,537.01L812.27,537.01L812.51,537.01L812.75,537.01L812.99,537.01L813.23,537.01L813.47,537.01L813.71,537.01L813.95,537.01L814.19,537.01L814.43,537.01L814.67,537.01L814.91,537.01L815.15,537.01L815.39,537.01L815.63,537.01L815.87,537.01L816.11,537.01L816.35,537.07L816.59,537.23L816.82,537.23L817.06,537.23L817.3,537.23L817.54,537.23L817.78,537.23L818.02,537.23L818.26,537.23L818.5,537.23L818.74,537.23L818.98,537.67L819.22,542.1L819.46,545.15L819.7,545.15L819.94,545.15L820.18,545.15L820.42,545.15L820.66,545.15L820.9,545.15L821.14,545.15L821.38,545.15L821.62,545.15L821.86,545.15L822.1,545.15L822.34,545.56L822.58,546.29L822.82,546.29L823.06,546.29L823.3,546.29L823.54,546.29L823.78,546.29L824.02,546.29L824.26,546.29L824.49,546.29L824.73,546.29L824.97,546.29L825.21,546.29L825.45,546.29L825.69,546.52L825.93,546.52L826.17,546.52L826.41,546.55L826.65,546.55L826.89,546.55L827.13,546.55L827.37,546.55L827.61,546.58L827.85,546.64L828.09,546.64L828.33,546.64L828.57,546.64L828.81,546.64L829.05,546.64L829.29,546.64L829.53,546.64L829.77,546.64L830.01,546.64L830.25,546.64L830.49,547.44L830.73,551.89L830.97,559.65L831.21,563.02L831.45,563.02L831.69,563.02L831.93,563.02L832.16,563.06L832.4,563.09L832.64,563.09L832.88,563.09L833.12,563.09L833.36,563.09L833.6,563.09L833.84,563.15L834.08,563.25L834.32,563.34L834.56,563.34L834.8,563.34L835.04,563.34L835.28,563.34L835.52,563.34L835.76,563.34L836,563.34L836.24,563.34L836.48,563.47L836.72,563.47L836.96,563.47L837.2,563.47L837.44,563.47L837.68,563.47L837.92,563.47L838.16,563.47L838.4,563.47L838.64,563.47L838.88,563.47L839.12,563.47L839.36,563.47L839.6,563.47L839.83,563.47L840.07,563.47L840.31,563.47L840.55,563.47L840.79,563.47L841.03,563.47L841.27,563.47L841.51,563.47L841.75,563.47L841.99,563.47L842.23,563.47L842.47,563.47L842.71,563.47L842.95,563.47L843.19,563.47L843.43,563.47L843.67,563.47L843.91,563.47L844.15,563.47L844.39,563.47L844.63,563.47L844.87,563.47L845.11,563.47L845.35,563.47L845.59,563.47L845.83,563.47L846.07,563.47L846.31,563.47L846.55,563.47L846.79,563.47L847.03,563.47L847.27,563.47L847.5,563.47L847.74,563.47L847.98,563.47L848.22,563.47L848.46,563.47L848.7,563.47L848.94,563.47L849.18,563.47L849.42,563.47L849.66,563.47L849.9,563.47L850.14,563.47L850.38,563.47L850.62,563.47L850.86,563.47L851.1,563.47L851.34,563.47L851.58,563.47L851.82,563.47L852.06,563.47L852.3,563.47L852.54,563.47L852.78,563.47L853.02,563.47L853.26,563.47L853.5,563.47L853.74,563.47L853.98,563.47L854.22,563.47L854.46,563.47L854.7,563.47L854.93,563.47L855.17,563.47L855.41,563.47L855.65,563.47L855.89,563.47L856.13,563.47L856.37,563.47L856.61,563.47L856.85,563.47L857.09,563.47L857.33,563.47L857.57,563.47L857.81,563.47L858.05,563.47L858.29,563.47L858.53,563.47L858.77,563.47L859.01,563.47L859.25,563.47L859.49,564.9L859.73,565.44L859.97,565.44L860.21,565.44L860.45,565.44L860.69,565.44L860.93,565.44L861.17,565.5L861.41,565.54L861.65,565.54L861.89,565.54L862.13,565.54L862.37,565.54L862.6,565.54L862.84,565.54L863.08,565.54L863.32,565.54L863.56,565.54L863.8,565.54L864.04,565.54L864.28,565.54L864.52,565.54L864.76,565.54L865,565.54L865.24,565.54L865.48,565.54L865.72,565.54L865.96,565.57L866.2,565.57L866.44,565.57L866.68,565.57L866.92,565.57L867.16,565.57L867.4,565.57L867.64,565.57L867.88,565.57L868.12,565.57L868.36,565.57L868.6,565.57L868.84,565.57L869.08,565.57L869.32,565.57L869.56,565.57L869.8,565.57L870.04,565.57L870.27,565.57L870.51,565.57L870.75,565.57L870.99,565.57L871.23,565.57L871.47,565.6L871.71,567.67L871.95,567.67L872.19,567.67L872.43,567.7L872.67,567.7L872.91,567.7L873.15,567.7L873.39,567.7L873.63,567.76L873.87,567.89L874.11,567.98L874.35,567.98L874.59,567.98L874.83,567.98L875.07,567.98L875.31,568.02L875.55,568.02L875.79,568.02L876.03,568.02L876.27,568.02L876.51,568.02L876.75,569.26L876.99,573.33L877.23,577.34L877.47,581.03L877.71,581.28L877.94,581.28L878.18,581.28L878.42,581.28L878.66,581.28L878.9,581.28L879.14,581.38L879.38,581.38L879.62,581.38L879.86,581.38L880.1,581.38L880.34,581.38L880.58,581.38L880.82,581.38L881.06,581.38L881.3,581.38L881.54,581.38L881.78,581.38L882.02,581.38L882.26,581.38L882.5,581.38L882.74,581.38L882.98,581.38L883.22,581.38L883.46,581.38L883.7,581.38L883.94,581.38L884.18,581.38L884.42,581.38L884.66,581.38L884.9,581.38L885.14,581.38L885.38,581.38L885.61,581.38L885.85,581.38L886.09,581.38L886.33,581.38L886.57,581.38L886.81,581.38L887.05,581.38L887.29,581.38L887.53,581.38L887.77,581.38L888.01,581.38L888.25,581.38L888.49,581.38L888.73,581.38L888.97,581.38L889.21,581.38L889.45,581.38L889.69,581.38L889.93,581.38L890.17,581.38L890.41,581.38L890.65,581.38L890.89,581.38L891.13,581.38L891.37,581.38L891.61,581.38L891.85,581.38L892.09,581.38L892.33,581.41L892.57,581.41L892.81,581.41L893.05,581.41L893.28,581.41L893.52,581.41L893.76,581.41L894,581.41L894.24,581.41L894.48,581.41L894.72,581.41L894.96,581.41L895.2,581.41L895.44,581.41L895.68,581.41L895.92,581.41L896.16,581.41L896.4,581.41L896.64,581.41L896.88,581.41L897.12,581.41L897.36,581.41L897.6,582.3L897.84,586.44L898.08,590.73L898.32,593.97L898.56,593.97L898.8,593.97L899.04,593.97L899.28,593.97L899.52,593.97L899.76,594.04L900,594.04L900.24,594.04L900.48,594.04L900.71,594.04L900.95,594.04L901.19,594.04L901.43,594.04L901.67,594.04L901.91,594.04L902.15,594.04L902.39,594.04L902.63,594.04L902.87,594.04L903.11,594.04L903.35,594.04L903.59,594.04L903.83,594.04L904.07,594.04L904.31,594.04L904.55,594.04L904.79,594.04L905.03,594.04L905.27,594.04L905.51,594.14L905.75,594.16L905.99,594.16L906.23,594.16L906.47,594.16L906.71,594.16L906.95,594.16L907.19,594.16L907.43,594.16L907.67,594.16L907.91,594.16L908.15,594.16L908.38,594.16L908.62,594.16L908.86,595.28L909.1,599.23L909.34,600.5L909.58,600.5L909.82,600.5L910.06,600.5L910.3,600.5L910.54,600.5L910.78,600.5L911.02,600.63L911.26,600.63L911.5,600.63L911.74,600.63L911.98,600.63L912.22,600.63L912.46,600.63L912.7,600.63L912.94,600.63L913.18,600.63L913.42,600.63L913.66,600.63L913.9,600.63L914.14,600.63L914.38,600.63L914.62,600.63L914.86,600.63L915.1,600.63L915.34,600.63L915.58,600.63L915.82,600.63L916.05,600.63L916.29,600.63L916.53,600.63L916.77,600.63L917.01,600.63L917.25,600.63L917.49,600.63L917.73,600.63L917.97,600.63L918.21,600.63L918.45,600.63L918.69,600.63L918.93,600.63L919.17,600.63L919.41,600.63L919.65,600.63L919.89,600.63L920.13,600.63L920.37,600.63L920.61,600.63L920.85,600.63L921.09,600.63L921.33,600.63L921.57,600.63L921.81,600.63L922.05,600.63L922.29,600.63L922.53,600.63L922.77,600.63L923.01,600.63L923.25,600.63L923.49,600.63L923.72,600.63L923.96,600.63L924.2,600.63L924.44,600.63L924.68,600.63L924.92,600.63L925.16,600.63L925.4,600.63L925.64,600.63L925.88,600.63L926.12,600.63L926.36,600.63L926.6,600.63L926.84,600.63L927.08,600.63L927.32,600.63L927.56,600.63L927.8,600.63L928.04,600.63L928.28,600.63L928.52,600.63L928.76,600.63L929,600.63L929.24,600.64L929.48,600.64L929.72,600.64L929.96,600.64L930.2,600.64L930.44,600.64L930.68,600.64L930.92,602.45L931.16,606.43L931.39,610.51L931.63,611.4L931.87,611.4L932.11,611.4L932.35,611.4L932.59,611.4L932.83,611.4L933.07,611.43L933.31,611.46L933.55,611.46L933.79,611.46L934.03,611.46L934.27,611.46L934.51,611.46L934.75,611.46L934.99,611.46L935.23,611.5L935.47,611.5L935.71,611.5L935.95,611.5L936.19,611.5L936.43,611.5L936.67,611.5L936.91,611.5L937.15,611.53L937.39,611.56L937.63,611.56L937.87,611.56L938.11,611.56L938.35,611.56L938.59,611.56L938.83,611.56L939.06,611.56L939.3,611.56L939.54,611.56L939.78,611.56L940.02,611.56L940.26,611.56L940.5,611.56L940.74,611.56L940.98,611.56L941.22,611.56L941.46,611.56L941.7,611.56L941.94,611.56L942.18,611.56L942.42,611.56L942.66,611.56L942.9,611.56L943.14,611.56L943.38,611.56L943.62,611.59L943.86,611.72L944.1,611.78L944.34,611.78L944.58,611.78L944.82,611.78L945.06,611.78L945.3,611.78L945.54,611.78L945.78,611.78L946.02,611.78L946.26,611.78L946.49,611.78L946.73,611.78L946.97,616.3L947.21,619.29L947.45,619.29L947.69,619.29L947.93,619.29L948.17,619.29L948.41,619.29L948.65,619.29L948.89,619.38L949.13,619.38L949.37,619.38L949.61,619.38L949.85,619.38L950.09,619.67L950.33,619.6L950.57,619.6L950.81,621.51L951.05,621.96L951.29,621.96L951.53,621.96L951.77,621.96L952.01,621.96L952.25,621.96L952.49,621.96L952.73,622.05L952.97,622.08L953.21,622.24L953.45,626.19L953.69,629.37L953.93,629.37L954.16,629.37L954.4,629.37L954.64,629.37L954.88,629.37L955.12,629.37L955.36,629.37L955.6,629.47L955.84,629.47L956.08,629.47L956.32,629.47L956.56,629.47L956.8,629.47L957.04,629.5L957.28,629.53L957.52,629.53L957.76,629.53L958,629.53L958.24,629.53L958.48,629.53L958.72,629.53L958.96,629.53L959.2,629.53L959.44,629.53L959.68,629.53L959.92,629.53L960.16,629.56L960.4,629.56L960.64,629.56L960.88,629.56L961.12,629.56L961.36,629.56L961.6,629.56L961.83,629.56L962.07,629.56L962.31,629.56L962.55,629.56L962.79,629.56L963.03,629.56L963.27,629.56L963.51,629.56L963.75,629.56L963.99,629.56L964.23,629.56L964.47,629.56L964.71,629.56L964.95,629.56L965.19,629.56L965.43,629.56L965.67,629.56L965.91,629.56L966.15,629.56L966.39,629.56L966.63,629.56L966.87,629.56L967.11,629.56L967.35,629.56L967.59,629.56L967.83,629.59L968.07,629.59L968.31,629.59L968.55,629.59L968.79,629.59L969.03,629.59L969.27,629.59L969.5,629.59L969.74,629.59L969.98,629.59L970.22,629.59L970.46,629.59L970.7,629.59L970.94,629.59L971.18,629.59L971.42,629.59L971.66,633L971.9,636.97L972.14,637.83L972.38,637.83L972.62,637.83L972.86,637.83L973.1,637.83L973.34,637.83L973.58,637.83L973.82,637.83L974.06,637.83L974.3,637.83L974.54,637.83L974.78,637.83L975.02,637.83L975.26,637.83L975.5,637.83L975.74,637.83L975.98,637.83L976.22,637.83L976.46,637.83L976.7,637.83L976.94,637.83L977.17,637.83L977.41,637.83L977.65,637.83L977.89,637.83L978.13,637.83L978.37,637.83L978.61,637.83L978.85,637.83L979.09,637.83L979.33,637.83L979.57,637.83L979.81,637.83L980.05,637.83L980.29,637.83L980.53,637.83L980.77,637.83L981.01,637.83L981.25,637.83L981.49,637.83L981.73,637.83L981.97,637.83L982.21,640.85L982.45,643.97L982.69,643.97L982.93,643.97L983.17,643.97L983.41,643.97L983.65,643.97L983.89,643.97L984.13,643.97L984.37,643.97L984.61,643.97L984.84,643.97L985.08,643.97L985.32,643.97L985.56,643.97L985.8,643.97L986.04,643.97L986.28,643.97L986.52,643.97L986.76,643.97L987,643.97L987.24,643.97L987.48,643.97L987.72,643.97L987.96,644.2L988.2,647.89L988.44,649.18L988.68,649.18L988.92,649.18L989.16,649.18L989.4,649.18L989.64,649.18L989.88,649.18L990.12,649.18L990.36,649.18L990.6,649.18L990.84,649.27L991.08,649.27L991.32,649.27L991.56,649.27L991.8,649.27L992.04,649.27L992.27,649.31L992.51,649.31L992.75,649.31L992.99,649.31L993.23,649.31L993.47,649.31L993.71,649.31L993.95,649.31L994.19,649.31L994.43,649.31L994.67,649.31L994.91,649.51L995.15,649.51L995.39,649.51L995.63,649.51L995.87,649.51L996.11,649.51L996.35,649.51L996.59,649.51L996.83,649.51L997.07,649.51L997.31,649.53L997.55,649.53L997.79,649.53L998.03,649.53L998.27,649.53L998.51,649.53L998.75,649.53L998.99,649.53L999.23,649.53L999.47,649.53L999.71,649.53L999.94,649.53L1000.2,649.53L1000.4,649.53L1000.7,649.53L1000.9,649.53L1001.1,649.53L1001.4,649.53L1001.6,649.53L1001.9,649.53L1002.1,649.53L1002.3,649.53L1002.6,649.53L1002.8,649.53L1003.1,649.53L1003.3,649.53L1003.5,649.53L1003.8,649.53L1004,649.53L1004.3,649.53L1004.5,649.53L1004.7,649.53L1005,649.53L1005.2,649.53L1005.5,649.53L1005.7,649.53L1005.9,649.53L1006.2,649.53L1006.4,649.53L1006.7,649.53L1006.9,649.53L1007.1,649.53L1007.4,649.53L1007.6,649.53L1007.9,649.53L1008.1,649.53L1008.3,649.53L1008.6,649.53L1008.8,649.53L1009.1,649.53L1009.3,649.53L1009.5,649.53L1009.8,649.53L1010,649.53L1010.3,649.53L1010.5,649.53L1010.7,649.53L1011,649.53L1011.2,649.53L1011.4,649.53L1011.7,649.53L1011.9,649.53L1012.2,649.53L1012.4,649.53L1012.6,649.53L1012.9,649.53L1013.1,649.53L1013.4,649.53L1013.6,649.53L1013.8,649.53L1014.1,649.53L1014.3,649.53L1014.6,649.53L1014.8,649.53L1015,649.53L1015.3,649.53L1015.5,649.53L1015.8,649.53L1016,649.53L1016.2,649.53L1016.5,649.53L1016.7,649.53L1017,649.53L1017.2,649.53L1017.4,649.53L1017.7,649.53L1017.9,649.76L1018.2,649.89L1018.4,649.82L1018.6,649.82L1018.9,649.82L1019.1,649.82L1019.4,649.82L1019.6,649.82L1019.8,649.82L1020.1,649.82L1020.3,649.82L1020.6,649.82L1020.8,649.82L1021,649.82L1021.3,651.69L1021.5,655.96L1021.8,660.03L1022,664.07L1022.2,665.45L1022.5,665.45L1022.7,665.45L1023,665.45L1023.2,665.45L1023.4,665.45L1023.7,665.45L1023.9,665.51L1024.2,665.58L1024.4,665.73L1024.6,665.86L1024.9,666.02L1025.1,666.02L1025.4,666.05L1025.6,666.05L1025.8,666.05L1026.1,666.05L1026.3,666.05L1026.6,666.05L1026.8,666.05L1027,666.05L1027.3,666.05L1027.5,666.05L1027.7,666.05L1028,666.05L1028.2,666.05L1028.5,666.05L1028.7,666.05L1028.9,666.05L1029.2,666.05L1029.4,666.05L1029.7,666.05L1029.9,668.28L1030.1,672.11L1030.4,675.99L1030.6,677.67L1030.9,677.86L1031.1,677.88L1031.3,677.88L1031.6,677.88L1031.8,677.88L1032.1,677.88L1032.3,677.88L1032.5,677.91L1032.8,677.91L1033,677.91L1033.3,677.91L1033.5,677.91L1033.7,677.91L1034,677.91L1034.2,677.94L1034.5,681.79L1034.7,682.49L1034.9,682.49L1035.2,682.49L1035.4,682.49L1035.7,682.49L1035.9,682.49L1036.1,682.52L1036.4,682.52L1036.6,682.52L1036.9,682.52L1037.1,682.52L1037.3,682.56L1037.6,682.56L1037.8,684.66L1038.1,686.72L1038.3,689.43L1038.5,690.67L1038.8,690.67L1039,690.67L1039.3,690.67L1039.5,690.67L1039.7,690.67L1040,690.67L1040.2,690.7L1040.5,690.7L1040.7,690.7L1040.9,690.7L1041.2,690.7L1041.4,690.7L1041.7,690.7L1041.9,690.7L1042.1,690.7L1042.4,690.7L1042.6,690.7L1042.8,690.7L1043.1,690.7L1043.3,690.7L1043.6,690.7L1043.8,690.7L1044,690.7L1044.3,690.7L1044.5,690.7L1044.8,690.7L1045,690.7L1045.2,690.7L1045.5,690.7L1045.7,690.7L1046,690.7L1046.2,690.7L1046.4,690.7L1046.7,690.7L1046.9,690.7L1047.2,690.7L1047.4,690.7L1047.6,690.7L1047.9,690.7L1048.1,690.7L1048.4,690.7L1048.6,690.7L1048.8,690.7L1049.1,690.7L1049.3,690.7L1049.6,690.7L1049.8,690.7L1050,690.7L1050.3,690.7L1050.5,690.7L1050.8,690.7L1051,690.7L1051.2,690.7L1051.5,690.7L1051.7,690.7L1052,690.7L1052.2,690.7L1052.4,690.7L1052.7,690.7L1052.9,690.7L1053.2,690.7L1053.4,690.7L1053.6,690.7L1053.9,690.7L1054.1,690.7L1054.4,690.7L1054.6,690.7L1054.8,690.7L1055.1,690.92L1055.3,695.02L1055.6,696.86L1055.8,696.86L1056,696.86L1056.3,696.86L1056.5,696.86L1056.8,696.86L1057,696.86L1057.2,696.86L1057.5,696.86L1057.7,696.86L1057.9,696.9L1058.2,697.02L1058.4,697.06L1058.7,697.06L1058.9,697.06L1059.1,697.06L1059.4,697.06L1059.6,697.09L1059.9,697.09L1060.1,697.09L1060.3,697.09L1060.6,697.09L1060.8,697.09L1061.1,697.09L1061.3,697.09L1061.5,697.09L1061.8,697.09L1062,697.09L1062.3,697.09L1062.5,697.09L1062.7,697.09L1063,697.12L1063.2,697.12L1063.5,697.12L1063.7,697.12L1063.9,697.12L1064.2,700.68L1064.4,701.44L1064.7,701.44L1064.9,701.44L1065.1,701.44L1065.4,701.44L1065.6,701.44L1065.9,701.44L1066.1,701.44L1066.3,701.44L1066.6,701.44L1066.8,701.44L1067.1,701.44L1067.3,701.44L1067.5,701.44L1067.8,701.44L1068,701.44L1068.3,701.44L1068.5,701.44L1068.7,701.44L1069,701.44L1069.2,701.44L1069.5,701.44L1069.7,701.44L1069.9,701.44L1070.2,701.44L1070.4,701.44L1070.7,701.44L1070.9,701.44L1071.1,701.44L1071.4,701.44L1071.6,701.44L1071.9,701.44L1072.1,701.44L1072.3,701.44L1072.6,701.44L1072.8,701.44L1073,701.44L1073.3,701.44L1073.5,701.44L1073.8,701.44L1074,701.44L1074.2,701.44L1074.5,701.44L1074.7,701.44L1075,701.44L1075.2,701.44L1075.4,701.44L1075.7,701.44L1075.9,701.44L1076.2,701.44L1076.4,701.44L1076.6,701.44L1076.9,701.44L1077.1,701.44L1077.4,701.44L1077.6,701.44L1077.8,701.44L1078.1,701.44L1078.3,701.44L1078.6,701.44L1078.8,701.44L1079,701.44L1079.3,701.44L1079.5,701.44L1079.8,701.44L1080,701.44" style="fill:none;stroke:#5A9BD4;stroke-width:1.875;stroke-dasharray:2.5,2.5" />
<path d="M1055,694.3L1080,694.3" style="fill:none;stroke:#7AC36A;stroke-width:1.875;stroke-dasharray:7.5,2.5" />
<text x="941.6" y="-687.85" transform="scale(1, -1)"
	style="font-family:Helvetica;font-weight:normal;font-style:normal;font-size:12pt">Zookeeper 3.4.8</text>
<path d="M1055,680L1080,680" style="fill:none;stroke:#5A9BD4;stroke-width:1.875;stroke-dasharray:2.5,2.5" />
<text x="966.62" y="-673.56" transform="scale(1, -1)"
	style="font-family:Helvetica;font-weight:normal;font-style:normal;font-size:12pt">Consul 0.6.4</text>
<path d="M1055,665.71L1080,665.71" style="fill:none;stroke:#F15A60;stroke-width:1.875" />
<text x="1002.5" y="-659.26" transform="scale(1, -1)"
	style="font-family:Helvetica;font-weight:normal;font-style:normal;font-size:12pt">etcd v3</text>
</g>
</svg>
