<?xml version="1.0"?>
<!-- Generated by SVGo and Plotinum VG -->
<svg width="12in" height="8in"
	xmlns="http://www.w3.org/2000/svg"
	xmlns:xlink="http://www.w3.org/1999/xlink">
<g transform="scale(1, -1) translate(0, -720)">
<path d="M0,0L1080,0L1080,720L0,720Z" style="fill:#FFFFFF" />
<text x="311.14" y="-706.41" transform="scale(1, -1)"
	style="font-family:Helvetica;font-weight:normal;font-style:normal;font-size:12pt">Write 1M keys, 10 clients, key 64 bytes, value 256 bytes, Throughput</text>
<text x="544.64" y="-4.965" transform="scale(1, -1)"
	style="font-family:Helvetica;font-weight:normal;font-style:normal;font-size:12pt">Second</text>
<text x="56.662" y="-19.142" transform="scale(1, -1)"
	style="font-family:Helvetica;font-weight:normal;font-style:normal;font-size:10pt">0</text>
<text x="286.54" y="-19.142" transform="scale(1, -1)"
	style="font-family:Helvetica;font-weight:normal;font-style:normal;font-size:10pt">1000</text>
<text x="526.85" y="-19.142" transform="scale(1, -1)"
	style="font-family:Helvetica;font-weight:normal;font-style:normal;font-size:10pt">2000</text>
<text x="767.16" y="-19.142" transform="scale(1, -1)"
	style="font-family:Helvetica;font-weight:normal;font-style:normal;font-size:10pt">3000</text>
<text x="1007.5" y="-19.142" transform="scale(1, -1)"
	style="font-family:Helvetica;font-weight:normal;font-style:normal;font-size:10pt">4000</text>
<path d="M60.137,30.467L60.137,40.467" style="fill:none;stroke:#000000;stroke-width:0.625" />
<path d="M300.44,30.467L300.44,40.467" style="fill:none;stroke:#000000;stroke-width:0.625" />
<path d="M540.75,30.467L540.75,40.467" style="fill:none;stroke:#000000;stroke-width:0.625" />
<path d="M781.06,30.467L781.06,40.467" style="fill:none;stroke:#000000;stroke-width:0.625" />
<path d="M1021.4,30.467L1021.4,40.467" style="fill:none;stroke:#000000;stroke-width:0.625" />
<path d="M180.29,35.468L180.29,40.467" style="fill:none;stroke:#000000;stroke-width:0.625" />
<path d="M420.6,35.468L420.6,40.467" style="fill:none;stroke:#000000;stroke-width:0.625" />
<path d="M660.9,35.468L660.9,40.467" style="fill:none;stroke:#000000;stroke-width:0.625" />
<path d="M901.21,35.468L901.21,40.467" style="fill:none;stroke:#000000;stroke-width:0.625" />
<path d="M60.137,40.467L1080,40.467" style="fill:none;stroke:#000000;stroke-width:0.625" />
<g transform="rotate(90)">
<text x="335.88" y="13.59" transform="scale(1, -1)"
	style="font-family:Helvetica;font-weight:normal;font-style:normal;font-size:12pt">Throughput</text>
</g>
<text x="18.555" y="-198.06" transform="scale(1, -1)"
	style="font-family:Helvetica;font-weight:normal;font-style:normal;font-size:10pt">300</text>
<text x="18.555" y="-382.06" transform="scale(1, -1)"
	style="font-family:Helvetica;font-weight:normal;font-style:normal;font-size:10pt">600</text>
<text x="18.555" y="-566.05" transform="scale(1, -1)"
	style="font-family:Helvetica;font-weight:normal;font-style:normal;font-size:10pt">900</text>
<path d="M42.88,203.43L52.88,203.43" style="fill:none;stroke:#000000;stroke-width:0.625" />
<path d="M42.88,387.42L52.88,387.42" style="fill:none;stroke:#000000;stroke-width:0.625" />
<path d="M42.88,571.42L52.88,571.42" style="fill:none;stroke:#000000;stroke-width:0.625" />
<path d="M47.88,80.763L52.88,80.763" style="fill:none;stroke:#000000;stroke-width:0.625" />
<path d="M47.88,142.09L52.88,142.09" style="fill:none;stroke:#000000;stroke-width:0.625" />
<path d="M47.88,264.76L52.88,264.76" style="fill:none;stroke:#000000;stroke-width:0.625" />
<path d="M47.88,326.09L52.88,326.09" style="fill:none;stroke:#000000;stroke-width:0.625" />
<path d="M47.88,448.76L52.88,448.76" style="fill:none;stroke:#000000;stroke-width:0.625" />
<path d="M47.88,510.09L52.88,510.09" style="fill:none;stroke:#000000;stroke-width:0.625" />
<path d="M47.88,632.75L52.88,632.75" style="fill:none;stroke:#000000;stroke-width:0.625" />
<path d="M47.88,694.09L52.88,694.09" style="fill:none;stroke:#000000;stroke-width:0.625" />
<path d="M52.88,47.03L52.88,701.44" style="fill:none;stroke:#000000;stroke-width:0.625" />
<path d="M60.137,181.96L60.378,398.46L60.618,397.85L60.858,415.02L61.099,429.74L61.339,406.44L61.579,423L61.82,413.8L62.06,415.02L62.3,421.77L62.541,425.45L62.781,440.17L63.021,438.33L63.261,424.22L63.502,423.61L63.742,419.32L63.982,430.36L64.223,419.93L64.463,418.7L64.703,418.7L64.944,418.09L65.184,431.58L65.424,422.38L65.665,421.77L65.905,417.48L66.145,427.29L66.385,407.66L66.626,423.61L66.866,405.82L67.106,418.09L67.347,423.61L67.587,425.45L67.827,411.96L68.068,411.34L68.308,432.81L68.548,431.58L68.789,409.5L69.029,410.12L69.269,416.86L69.509,427.9L69.75,427.9L69.99,416.25L70.23,395.4L70.471,406.44L70.711,390.49L70.951,408.89L71.192,399.69L71.432,422.38L71.672,408.28L71.913,411.34L72.153,422.38L72.393,427.29L72.633,421.16L72.874,407.66L73.114,414.41L73.354,398.46L73.595,400.3L73.835,405.82L74.075,416.25L74.316,413.18L74.556,428.52L74.796,411.34L75.037,418.7L75.277,416.86L75.517,416.86L75.757,419.93L75.998,418.09L76.238,435.26L76.478,427.29L76.719,421.77L76.959,418.09L77.199,432.81L77.44,417.48L77.68,423L77.92,423L78.161,422.38L78.401,425.45L78.641,438.33L78.881,421.16L79.122,421.77L79.362,427.29L79.602,406.44L79.843,407.05L80.083,424.22L80.323,396.62L80.564,421.77L80.804,418.7L81.044,423.61L81.285,420.54L81.525,420.54L81.765,418.7L82.005,415.02L82.246,411.34L82.486,430.36L82.726,419.32L82.967,421.77L83.207,434.65L83.447,416.25L83.688,430.36L83.928,429.13L84.168,427.29L84.408,425.45L84.649,397.85L84.889,410.73L85.129,400.92L85.37,400.92L85.61,397.24L85.85,409.5L86.091,414.41L86.331,405.82L86.571,430.36L86.812,437.72L87.052,415.02L87.292,435.88L87.532,431.58L87.773,407.05L88.013,410.73L88.253,442.01L88.494,424.22L88.734,417.48L88.974,407.66L89.215,416.86L89.455,413.8L89.695,419.93L89.936,415.64L90.176,401.53L90.416,401.53L90.656,416.25L90.897,435.26L91.137,440.78L91.377,415.02L91.618,423.61L91.858,421.77L92.098,423L92.339,399.69L92.579,413.18L92.819,420.54L93.06,413.8L93.3,405.21L93.54,413.18L93.78,405.21L94.021,419.32L94.261,389.26L94.501,392.94L94.742,397.24L94.982,396.01L95.222,413.8L95.463,394.17L95.703,389.26L95.943,378.84L96.184,396.01L96.424,410.73L96.664,400.92L96.904,415.64L97.145,406.44L97.385,419.32L97.625,416.86L97.866,418.09L98.106,406.44L98.346,405.21L98.587,420.54L98.827,414.41L99.067,405.82L99.308,298.49L99.548,421.16L99.788,422.38L100.03,398.46L100.27,415.02L100.51,431.58L100.75,419.32L100.99,405.82L101.23,389.26L101.47,405.21L101.71,411.34L101.95,415.02L102.19,414.41L102.43,400.3L102.67,403.98L102.91,399.69L103.15,413.18L103.39,415.02L103.63,427.9L103.87,422.38L104.11,426.68L104.35,429.13L104.59,428.52L104.83,419.93L105.07,425.45L105.32,399.08L105.56,399.69L105.8,434.04L106.04,406.44L106.28,402.14L106.52,412.57L106.76,429.74L107,418.09L107.24,420.54L107.48,420.54L107.72,415.64L107.96,409.5L108.2,405.82L108.44,408.28L108.68,424.22L108.92,415.02L109.16,419.32L109.4,421.16L109.64,431.58L109.88,412.57L110.12,426.68L110.36,423L110.6,399.08L110.84,419.93L111.08,417.48L111.32,421.16L111.56,429.74L111.8,439.56L112.04,411.96L112.28,419.32L112.52,421.77L112.76,400.92L113.01,428.52L113.25,429.13L113.49,409.5L113.73,407.05L113.97,408.28L114.21,411.96L114.45,422.38L114.69,400.92L114.93,403.37L115.17,415.02L115.41,434.65L115.65,430.97L115.89,413.8L116.13,438.33L116.37,426.68L116.61,403.37L116.85,410.73L117.09,410.73L117.33,422.38L117.57,421.16L117.81,416.25L118.05,392.33L118.29,411.34L118.53,407.05L118.77,427.9L119.01,416.25L119.25,410.73L119.49,392.94L119.73,415.02L119.97,419.32L120.21,411.96L120.45,405.21L120.69,427.9L120.94,434.04L121.18,412.57L121.42,409.5L121.66,423.61L121.9,435.88L122.14,401.53L122.38,407.05L122.62,411.96L122.86,421.16L123.1,410.73L123.34,390.49L123.58,402.14L123.82,426.06L124.06,424.22L124.3,410.73L124.54,418.7L124.78,422.38L125.02,415.64L125.26,398.46L125.5,385.58L125.74,406.44L125.98,400.92L126.22,415.64L126.46,431.58L126.7,394.17L126.94,394.78L127.18,424.84L127.42,419.32L127.66,407.66L127.9,427.29L128.14,415.64L128.38,411.96L128.62,411.34L128.87,400.92L129.11,405.21L129.35,416.25L129.59,437.1L129.83,414.41L130.07,399.08L130.31,402.14L130.55,415.64L130.79,429.13L131.03,411.96L131.27,414.41L131.51,413.8L131.75,391.1L131.99,401.53L132.23,401.53L132.47,411.96L132.71,418.09L132.95,423L133.19,389.26L133.43,414.41L133.67,398.46L133.91,412.57L134.15,421.16L134.39,424.84L134.63,424.22L134.87,427.9L135.11,410.73L135.35,410.12L135.59,428.52L135.83,415.64L136.07,411.34L136.31,411.96L136.56,430.36L136.8,416.25L137.04,385.58L137.28,400.3L137.52,404.6L137.76,418.7L138,396.62L138.24,408.89L138.48,410.12L138.72,419.93L138.96,421.16L139.2,415.02L139.44,426.06L139.68,416.86L139.92,416.25L140.16,411.96L140.4,415.64L140.64,423.61L140.88,401.53L141.12,411.96L141.36,415.64L141.6,419.93L141.84,413.8L142.08,400.3L142.32,411.34L142.56,410.12L142.8,403.37L143.04,396.01L143.28,421.16L143.52,416.25L143.76,433.42L144,420.54L144.24,400.92L144.49,425.45L144.73,418.09L144.97,415.02L145.21,407.66L145.45,418.09L145.69,417.48L145.93,436.49L146.17,435.88L146.41,410.73L146.65,429.74L146.89,415.02L147.13,418.09L147.37,410.73L147.61,430.97L147.85,413.18L148.09,398.46L148.33,371.48L148.57,421.16L148.81,414.41L149.05,429.74L149.29,416.25L149.53,418.09L149.77,423.61L150.01,426.68L150.25,407.05L150.49,407.05L150.73,425.45L150.97,427.29L151.21,423L151.45,396.01L151.69,382.52L151.93,399.08L152.18,410.12L152.42,418.7L152.66,428.52L152.9,407.66L153.14,433.42L153.38,424.84L153.62,435.88L153.86,411.34L154.1,420.54L154.34,437.72L154.58,425.45L154.82,426.06L155.06,423L155.3,426.06L155.54,420.54L155.78,400.92L156.02,416.25L156.26,406.44L156.5,428.52L156.74,398.46L156.98,406.44L157.22,430.97L157.46,434.65L157.7,410.12L157.94,405.82L158.18,410.73L158.42,405.82L158.66,419.93L158.9,416.25L159.14,426.06L159.38,419.93L159.62,414.41L159.86,420.54L160.11,424.84L160.35,430.36L160.59,409.5L160.83,389.88L161.07,413.18L161.31,422.38L161.55,430.97L161.79,418.09L162.03,403.98L162.27,402.76L162.51,409.5L162.75,432.81L162.99,432.81L163.23,399.08L163.47,421.77L163.71,413.8L163.95,409.5L164.19,400.3L164.43,412.57L164.67,413.8L164.91,378.22L165.15,410.12L165.39,418.09L165.63,415.02L165.87,381.9L166.11,416.25L166.35,403.98L166.59,407.05L166.83,423L167.07,399.08L167.31,400.3L167.55,413.8L167.79,412.57L168.04,418.09L168.28,395.4L168.52,396.62L168.76,424.22L169,440.78L169.24,405.82L169.48,404.6L169.72,424.84L169.96,417.48L170.2,415.64L170.44,433.42L170.68,407.05L170.92,383.13L171.16,410.73L171.4,407.66L171.64,426.06L171.88,430.97L172.12,397.85L172.36,423L172.6,417.48L172.84,416.86L173.08,415.64L173.32,398.46L173.56,410.12L173.8,401.53L174.04,420.54L174.28,405.82L174.52,398.46L174.76,406.44L175,426.68L175.24,419.32L175.48,424.84L175.73,422.38L175.97,410.12L176.21,416.86L176.45,426.06L176.69,397.24L176.93,408.89L177.17,411.96L177.41,399.08L177.65,420.54L177.89,398.46L178.13,403.37L178.37,413.8L178.61,405.82L178.85,413.18L179.09,410.12L179.33,426.06L179.57,400.3L179.81,380.06L180.05,386.2L180.29,392.94L180.53,415.64L180.77,412.57L181.01,398.46L181.25,402.76L181.49,380.68L181.73,421.77L181.97,427.29L182.21,416.86L182.45,415.64L182.69,422.38L182.93,389.88L183.17,402.76L183.41,406.44L183.66,405.82L183.9,411.96L184.14,421.16L184.38,408.28L184.62,438.33L184.86,421.77L185.1,420.54L185.34,419.93L185.58,415.64L185.82,389.26L186.06,389.26L186.3,391.1L186.54,416.25L186.78,422.38L187.02,416.86L187.26,413.18L187.5,407.05L187.74,407.05L187.98,411.96L188.22,425.45L188.46,415.64L188.7,402.14L188.94,422.38L189.18,416.86L189.42,408.28L189.66,399.69L189.9,408.28L190.14,392.94L190.38,407.05L190.62,423L190.86,426.68L191.1,427.29L191.35,429.74L191.59,396.62L191.83,420.54L192.07,413.18L192.31,413.8L192.55,421.16L192.79,425.45L193.03,403.37L193.27,430.97L193.51,417.48L193.75,405.21L193.99,413.8L194.23,420.54L194.47,396.01L194.71,409.5L194.95,392.33L195.19,408.28L195.43,434.04L195.67,416.25L195.91,400.3L196.15,432.81L196.39,405.21L196.63,394.17L196.87,420.54L197.11,423.61L197.35,415.64L197.59,372.7L197.83,389.26L198.07,396.01L198.31,418.09L198.55,421.77L198.79,415.02L199.03,397.24L199.28,403.37L199.52,412.57L199.76,430.36L200,393.56L200.24,400.3L200.48,407.05L200.72,401.53L200.96,422.38L201.2,424.22L201.44,403.37L201.68,402.76L201.92,416.86L202.16,424.22L202.4,397.85L202.64,391.1L202.88,405.21L203.12,413.18L203.36,423L203.6,411.34L203.84,387.42L204.08,398.46L204.32,403.37L204.56,426.68L204.8,419.32L205.04,422.38L205.28,413.18L205.52,402.76L205.76,405.82L206,426.68L206.24,402.14L206.48,418.7L206.72,422.38L206.97,419.32L207.21,398.46L207.45,401.53L207.69,424.84L207.93,419.93L208.17,418.7L208.41,429.74L208.65,397.24L208.89,390.49L209.13,363.5L209.37,405.21L209.61,426.06L209.85,431.58L210.09,418.7L210.33,415.64L210.57,418.09L210.81,414.41L211.05,413.18L211.29,410.12L211.53,424.22L211.77,396.62L212.01,380.68L212.25,403.98L212.49,408.89L212.73,421.77L212.97,397.24L213.21,412.57L213.45,407.66L213.69,403.37L213.93,413.8L214.17,405.82L214.41,398.46L214.65,429.13L214.9,419.32L215.14,402.76L215.38,395.4L215.62,422.38L215.86,415.64L216.1,399.69L216.34,405.21L216.58,408.28L216.82,389.26L217.06,423L217.3,421.16L217.54,413.8L217.78,424.22L218.02,415.64L218.26,393.56L218.5,397.24L218.74,399.69L218.98,389.26L219.22,407.66L219.46,409.5L219.7,409.5L219.94,421.77L220.18,422.38L220.42,408.28L220.66,396.01L220.9,392.33L221.14,418.09L221.38,421.77L221.62,413.8L221.86,391.72L222.1,415.02L222.34,392.94L222.58,429.74L222.83,413.8L223.07,396.62L223.31,386.81L223.55,393.56L223.79,408.28L224.03,411.34L224.27,375.77L224.51,388.04L224.75,421.77L224.99,423.61L225.23,391.72L225.47,403.98L225.71,404.6L225.95,396.01L226.19,415.64L226.43,411.34L226.67,397.85L226.91,403.98L227.15,421.16L227.39,399.08L227.63,404.6L227.87,400.92L228.11,407.05L228.35,424.22L228.59,415.02L228.83,422.38L229.07,410.73L229.31,402.76L229.55,399.08L229.79,398.46L230.03,404.6L230.27,393.56L230.52,401.53L230.76,416.86L231,437.1L231.24,414.41L231.48,397.85L231.72,399.08L231.96,405.82L232.2,402.76L232.44,430.97L232.68,425.45L232.92,438.94L233.16,423.61L233.4,396.01L233.64,411.96L233.88,417.48L234.12,430.36L234.36,423L234.6,424.22L234.84,403.37L235.08,415.02L235.32,393.56L235.56,407.66L235.8,388.04L236.04,407.66L236.28,429.13L236.52,420.54L236.76,431.58L237,410.73L237.24,398.46L237.48,420.54L237.72,415.64L237.96,411.96L238.2,433.42L238.45,423.61L238.69,422.38L238.93,399.08L239.17,424.84L239.41,420.54L239.65,398.46L239.89,388.65L240.13,398.46L240.37,421.77L240.61,426.68L240.85,402.76L241.09,419.93L241.33,428.52L241.57,405.21L241.81,394.17L242.05,419.93L242.29,418.09L242.53,431.58L242.77,398.46L243.01,415.64L243.25,429.13L243.49,408.28L243.73,420.54L243.97,424.84L244.21,415.64L244.45,405.82L244.69,403.98L244.93,408.89L245.17,418.09L245.41,409.5L245.65,403.37L245.89,417.48L246.14,406.44L246.38,418.7L246.62,422.38L246.86,367.8L247.1,410.12L247.34,407.66L247.58,421.16L247.82,411.34L248.06,404.6L248.3,439.56L248.54,423L248.78,392.94L249.02,405.21L249.26,421.77L249.5,428.52L249.74,415.64L249.98,424.84L250.22,416.25L250.46,427.29L250.7,403.98L250.94,421.16L251.18,405.82L251.42,416.86L251.66,432.2L251.9,427.9L252.14,391.72L252.38,397.24L252.62,408.89L252.86,384.97L253.1,403.98L253.34,414.41L253.58,400.92L253.82,432.81L254.07,417.48L254.31,407.66L254.55,421.16L254.79,373.32L255.03,397.85L255.27,392.33L255.51,412.57L255.75,424.22L255.99,408.89L256.23,397.85L256.47,402.76L256.71,405.21L256.95,394.17L257.19,421.77L257.43,413.8L257.67,418.7L257.91,405.21L258.15,411.96L258.39,412.57L258.63,424.22L258.87,407.66L259.11,384.97L259.35,415.02L259.59,420.54L259.83,426.68L260.07,431.58L260.31,410.12L260.55,415.64L260.79,403.37L261.03,396.01L261.27,418.09L261.51,415.64L261.75,407.05L262,426.06L262.24,423.61L262.48,397.24L262.72,412.57L262.96,407.66L263.2,381.29L263.44,430.36L263.68,424.22L263.92,423.61L264.16,437.1L264.4,436.49L264.64,410.12L264.88,421.16L265.12,424.22L265.36,375.77L265.6,408.89L265.84,410.12L266.08,420.54L266.32,403.37L266.56,416.25L266.8,425.45L267.04,414.41L267.28,421.16L267.52,401.53L267.76,421.16L268,423L268.24,418.09L268.48,429.74L268.72,421.16L268.96,406.44L269.2,409.5L269.44,408.28L269.69,402.14L269.93,405.82L270.17,424.22L270.41,413.18L270.65,414.41L270.89,438.33L271.13,423L271.37,416.86L271.61,414.41L271.85,393.56L272.09,419.32L272.33,411.34L272.57,422.38L272.81,411.96L273.05,415.64L273.29,430.36L273.53,428.52L273.77,426.68L274.01,379.45L274.25,424.84L274.49,419.93L274.73,415.64L274.97,413.8L275.21,419.93L275.45,406.44L275.69,432.2L275.93,416.86L276.17,396.62L276.41,430.36L276.65,415.02L276.89,428.52L277.13,411.34L277.37,412.57L277.62,413.8L277.86,421.77L278.1,434.04L278.34,396.01L278.58,410.73L278.82,394.78L279.06,420.54L279.3,410.73L279.54,427.29L279.78,415.02L280.02,411.96L280.26,403.37L280.5,407.66L280.74,394.78L280.98,415.02L281.22,408.89L281.46,429.74L281.7,421.16L281.94,405.82L282.18,432.81L282.42,417.48L282.66,399.69L282.9,394.17L283.14,402.14L283.38,411.96L283.62,419.32L283.86,426.06L284.1,418.7L284.34,423.61L284.58,429.74L284.82,421.16L285.06,424.22L285.31,411.96L285.55,423L285.79,416.86L286.03,405.82L286.27,405.21L286.51,384.36L286.75,425.45L286.99,430.36L287.23,418.7L287.47,401.53L287.71,430.97L287.95,433.42L288.19,423.61L288.43,415.02L288.67,415.02L288.91,411.34L289.15,423.61L289.39,430.97L289.63,428.52L289.87,388.65L290.11,427.9L290.35,406.44L290.59,404.6L290.83,396.62L291.07,432.81L291.31,411.34L291.55,392.94L291.79,405.82L292.03,413.18L292.27,395.4L292.51,434.65L292.75,401.53L292.99,425.45L293.24,413.8L293.48,416.86L293.72,416.25L293.96,422.38L294.2,394.17L294.44,396.62L294.68,373.93L294.92,419.32L295.16,424.84L295.4,407.05L295.64,424.84L295.88,420.54L296.12,404.6L296.36,421.16L296.6,424.84L296.84,411.34L297.08,402.14L297.32,397.85L297.56,412.57L297.8,415.64L298.04,424.22L298.28,430.36L298.52,417.48L298.76,410.73L299,408.89L299.24,408.28L299.48,397.24L299.72,412.57L299.96,419.32L300.2,392.33L300.44,426.06L300.68,427.29L300.93,420.54L301.17,429.74L301.41,414.41L301.65,409.5L301.89,384.36L302.13,389.88L302.37,379.45L302.61,407.05L302.85,392.94L303.09,397.85L303.33,396.01L303.57,418.7L303.81,412.57L304.05,426.68L304.29,422.38L304.53,403.37L304.77,440.78L305.01,429.74L305.25,416.86L305.49,417.48L305.73,419.93L305.97,430.36L306.21,430.36L306.45,434.04L306.69,415.64L306.93,404.6L307.17,411.96L307.41,419.93L307.65,422.38L307.89,407.66L308.13,402.14L308.37,399.08L308.61,372.7L308.86,419.93L309.1,420.54L309.34,419.93L309.58,386.2L309.82,408.89L310.06,392.94L310.3,387.42L310.54,434.65L310.78,434.65L311.02,427.29L311.26,419.32L311.5,416.25L311.74,405.82L311.98,375.77L312.22,416.86L312.46,430.36L312.7,421.77L312.94,396.62L313.18,408.28L313.42,421.16L313.66,410.12L313.9,393.56L314.14,401.53L314.38,421.16L314.62,381.9L314.86,404.6L315.1,399.08L315.34,419.93L315.58,403.37L315.82,421.77L316.06,418.7L316.3,421.16L316.54,416.86L316.79,440.17L317.03,410.73L317.27,377.61L317.51,399.69L317.75,399.08L317.99,414.41L318.23,410.73L318.47,411.96L318.71,416.86L318.95,421.16L319.19,427.29L319.43,437.72L319.67,416.86L319.91,392.33L320.15,423.61L320.39,414.41L320.63,420.54L320.87,409.5L321.11,415.64L321.35,425.45L321.59,401.53L321.83,421.16L322.07,391.72L322.31,391.72L322.55,387.42L322.79,431.58L323.03,396.62L323.27,387.42L323.51,397.24L323.75,416.25L323.99,415.64L324.23,416.86L324.48,422.38L324.72,427.29L324.96,409.5L325.2,356.76L325.44,411.34L325.68,399.69L325.92,412.57L326.16,426.06L326.4,410.12L326.64,399.69L326.88,416.86L327.12,398.46L327.36,409.5L327.6,425.45L327.84,416.86L328.08,380.06L328.32,417.48L328.56,416.86L328.8,423.61L329.04,415.02L329.28,405.82L329.52,407.05L329.76,405.21L330,403.37L330.24,400.3L330.48,416.25L330.72,369.02L330.96,425.45L331.2,413.8L331.44,409.5L331.68,418.09L331.92,415.02L332.16,415.64L332.41,402.14L332.65,418.09L332.89,413.18L333.13,411.34L333.37,394.78L333.61,390.49L333.85,412.57L334.09,426.68L334.33,425.45L334.57,411.96L334.81,409.5L335.05,410.73L335.29,415.02L335.53,435.88L335.77,403.98L336.01,388.04L336.25,392.33L336.49,430.97L336.73,435.26L336.97,419.93L337.21,425.45L337.45,417.48L337.69,418.7L337.93,413.8L338.17,421.16L338.41,392.33L338.65,407.66L338.89,389.88L339.13,385.58L339.37,404.6L339.61,392.94L339.85,418.09L340.1,427.29L340.34,394.17L340.58,405.82L340.82,416.25L341.06,415.02L341.3,397.24L341.54,402.14L341.78,433.42L342.02,391.72L342.26,383.13L342.5,420.54L342.74,405.21L342.98,411.34L343.22,412.57L343.46,408.28L343.7,416.86L343.94,399.08L344.18,421.16L344.42,421.77L344.66,419.32L344.9,387.42L345.14,417.48L345.38,429.74L345.62,401.53L345.86,428.52L346.1,386.81L346.34,410.12L346.58,414.41L346.82,433.42L347.06,429.13L347.3,416.86L347.54,402.14L347.78,409.5L348.03,423.61L348.27,405.82L348.51,423.61L348.75,398.46L348.99,393.56L349.23,392.94L349.47,395.4L349.71,403.37L349.95,381.29L350.19,404.6L350.43,409.5L350.67,385.58L350.91,423L351.15,406.44L351.39,427.29L351.63,394.78L351.87,414.41L352.11,402.76L352.35,419.32L352.59,425.45L352.83,393.56L353.07,408.89L353.31,435.26L353.55,365.96L353.79,427.9L354.03,421.16L354.27,427.29L354.51,429.74L354.75,435.88L354.99,413.18L355.23,399.69L355.47,402.14L355.71,411.96L355.96,406.44L356.2,400.3L356.44,370.25L356.68,416.25L356.92,409.5L357.16,399.08L357.4,401.53L357.64,411.34L357.88,425.45L358.12,406.44L358.36,396.01L358.6,405.21L358.84,399.08L359.08,408.28L359.32,400.3L359.56,363.5L359.8,400.3L360.04,422.38L360.28,424.22L360.52,411.34L360.76,424.84L361,417.48L361.24,390.49L361.48,426.68L361.72,416.25L361.96,410.73L362.2,400.92L362.44,408.89L362.68,377L362.92,411.96L363.16,408.28L363.4,415.64L363.65,410.12L363.89,408.89L364.13,410.73L364.37,427.9L364.61,423.61L364.85,415.64L365.09,421.16L365.33,421.77L365.57,386.2L365.81,423L366.05,416.25L366.29,392.33L366.53,400.3L366.77,410.73L367.01,403.98L367.25,423L367.49,400.92L367.73,408.89L367.97,413.8L368.21,418.7L368.45,408.28L368.69,375.77L368.93,398.46L369.17,415.64L369.41,409.5L369.65,385.58L369.89,397.24L370.13,407.05L370.37,416.86L370.61,425.45L370.85,415.02L371.09,419.32L371.33,429.74L371.58,412.57L371.82,386.81L372.06,424.22L372.3,435.88L372.54,418.09L372.78,411.34L373.02,418.09L373.26,404.6L373.5,417.48L373.74,399.08L373.98,413.18L374.22,442.62L374.46,432.2L374.7,416.25L374.94,381.29L375.18,412.57L375.42,398.46L375.66,427.9L375.9,400.3L376.14,428.52L376.38,416.86L376.62,412.57L376.86,400.92L377.1,405.82L377.34,405.82L377.58,418.09L377.82,441.4L378.06,378.84L378.3,388.65L378.54,393.56L378.78,401.53L379.02,418.09L379.27,425.45L379.51,419.93L379.75,412.57L379.99,416.25L380.23,417.48L380.47,404.6L380.71,405.82L380.95,405.21L381.19,368.41L381.43,399.08L381.67,378.22L381.91,397.24L382.15,419.32L382.39,414.41L382.63,427.29L382.87,411.34L383.11,423.61L383.35,423L383.59,418.09L383.83,402.76L384.07,414.41L384.31,400.3L384.55,380.68L384.79,404.6L385.03,400.92L385.27,400.3L385.51,403.98L385.75,419.93L385.99,429.13L386.23,408.89L386.47,419.32L386.71,412.57L386.95,400.92L387.2,414.41L387.44,413.18L387.68,427.29L387.92,391.1L388.16,411.96L388.4,419.32L388.64,405.21L388.88,416.25L389.12,427.29L389.36,424.84L389.6,409.5L389.84,396.62L390.08,402.14L390.32,408.89L390.56,407.05L390.8,429.74L391.04,379.45L391.28,391.72L391.52,391.72L391.76,408.28L392,402.14L392.24,409.5L392.48,416.86L392.72,394.17L392.96,392.33L393.2,379.45L393.44,402.76L393.68,413.8L393.92,424.84L394.16,421.77L394.4,381.9L394.64,423L394.89,430.36L395.13,416.86L395.37,394.17L395.61,407.05L395.85,400.92L396.09,403.98L396.33,399.08L396.57,401.53L396.81,390.49L397.05,416.25L397.29,411.34L397.53,399.69L397.77,370.86L398.01,394.78L398.25,414.41L398.49,425.45L398.73,408.28L398.97,395.4L399.21,402.14L399.45,384.97L399.69,378.84L399.93,419.32L400.17,418.7L400.41,401.53L400.65,406.44L400.89,412.57L401.13,421.16L401.37,363.5L401.61,416.25L401.85,423.61L402.09,408.28L402.33,396.62L402.57,410.73L402.82,426.68L403.06,427.29L403.3,414.41L403.54,413.18L403.78,390.49L404.02,422.38L404.26,412.57L404.5,391.72L404.74,349.4L404.98,410.73L405.22,400.3L405.46,435.88L405.7,418.7L405.94,407.66L406.18,411.34L406.42,413.8L406.66,424.84L406.9,430.97L407.14,431.58L407.38,403.37L407.62,412.57L407.86,411.34L408.1,385.58L408.34,394.17L408.58,407.05L408.82,391.72L409.06,387.42L409.3,411.96L409.54,403.37L409.78,418.7L410.02,404.6L410.26,393.56L410.5,403.37L410.75,418.09L410.99,410.12L411.23,410.73L411.47,397.24L411.71,377L411.95,418.09L412.19,427.9L412.43,408.89L412.67,402.76L412.91,401.53L413.15,417.48L413.39,418.7L413.63,410.12L413.87,405.82L414.11,416.86L414.35,427.9L414.59,415.64L414.83,412.57L415.07,384.36L415.31,384.97L415.55,430.36L415.79,401.53L416.03,417.48L416.27,400.3L416.51,401.53L416.75,413.18L416.99,410.12L417.23,432.2L417.47,419.93L417.71,429.74L417.95,430.97L418.19,422.38L418.44,416.25L418.68,372.09L418.92,405.82L419.16,402.14L419.4,415.02L419.64,416.86L419.88,403.37L420.12,408.89L420.36,425.45L420.6,401.53L420.84,406.44L421.08,417.48L421.32,418.09L421.56,416.86L421.8,431.58L422.04,424.84L422.28,378.84L422.52,416.25L422.76,405.82L423,415.02L423.24,415.64L423.48,405.82L423.72,407.66L423.96,405.82L424.2,436.49L424.44,415.64L424.68,386.81L424.92,405.21L425.16,398.46L425.4,421.77L425.64,415.64L425.88,378.22L426.12,407.05L426.37,397.24L426.61,397.85L426.85,416.25L427.09,430.36L427.33,423L427.57,418.7L427.81,398.46L428.05,400.3L428.29,423L428.53,435.88L428.77,406.44L429.01,418.7L429.25,407.66L429.49,369.64L429.73,405.82L429.97,402.76L430.21,407.05L430.45,428.52L430.69,394.17L430.93,417.48L431.17,429.13L431.41,432.2L431.65,421.16L431.89,426.68L432.13,418.09L432.37,422.38L432.61,426.68L432.85,421.77L433.09,380.68L433.33,424.22L433.57,427.29L433.81,414.41L434.06,421.77L434.3,427.9L434.54,427.9L434.78,402.76L435.02,403.98L435.26,410.73L435.5,418.7" style="fill:none;stroke:#F15A60;stroke-width:1.875" />
<path d="M60.137,519.29L60.378,662.19L60.618,650.54L60.858,687.95L61.099,677.53L61.339,685.5L61.579,683.05L61.82,675.07L62.06,680.59L62.3,674.46L62.541,663.42L62.781,675.69L63.021,675.69L63.261,668.33L63.502,675.69L63.742,675.69L63.982,657.29L64.223,699.61L64.463,674.46L64.703,679.37L64.944,684.27L65.184,645.02L65.424,680.59L65.665,689.18L65.905,686.73L66.145,681.21L66.385,692.86L66.626,670.17L66.866,692.86L67.106,664.03L67.347,687.95L67.587,668.33L67.827,669.55L68.068,668.94L68.308,683.05L68.548,669.55L68.789,679.98L69.029,670.17L69.269,679.98L69.509,664.03L69.75,681.21L69.99,662.81L70.23,664.65L70.471,688.57L70.711,690.41L70.951,687.95L71.192,681.82L71.432,675.07L71.672,684.89L71.913,678.75L72.153,675.69L72.393,676.91L72.633,660.97L72.874,675.69L73.114,669.55L73.354,662.19L73.595,668.33L73.835,671.39L74.075,672.01L74.316,654.22L74.556,660.97L74.796,645.63L75.037,653.61L75.277,664.65L75.517,684.89L75.757,670.78L75.998,664.03L76.238,675.69L76.478,676.3L76.719,667.71L76.959,659.13L77.199,678.75L77.44,659.74L77.68,669.55L77.92,667.1L78.161,672.01L78.401,678.75L78.641,688.57L78.881,676.3L79.122,671.39L79.362,664.65L79.602,647.47L79.843,655.45L80.083,673.23L80.323,667.1L80.564,689.18L80.804,662.19L81.044,690.41L81.285,687.34L81.525,670.78L81.765,678.14L82.005,684.27L82.246,686.11L82.486,660.97L82.726,631.53L82.967,678.14L83.207,669.55L83.447,616.19L83.688,657.9L83.928,662.81L84.168,671.39L84.408,672.62L84.649,656.06L84.889,654.22L85.129,692.25L85.37,698.38L85.61,683.05L85.85,667.71L86.091,667.71L86.331,679.37L86.571,688.57L86.812,670.78L87.052,664.65L87.292,668.94L87.532,657.9L87.773,679.37L88.013,672.62L88.253,679.37L88.494,664.03L88.734,661.58L88.974,680.59L89.215,668.33L89.455,657.9L89.695,672.62L89.936,692.86L90.176,682.43L90.416,687.95L90.656,696.54L90.897,677.53L91.137,679.37L91.377,676.3L91.618,695.31L91.858,663.42L92.098,672.62L92.339,681.82L92.579,691.02L92.819,682.43L93.06,678.14L93.3,691.63L93.54,681.82L93.78,673.85L94.021,675.69L94.261,656.06L94.501,670.78L94.742,660.97L94.982,672.01L95.222,672.01L95.463,673.23L95.703,668.94L95.943,678.14L96.184,659.13L96.424,664.03L96.664,668.33L96.904,659.13L97.145,683.05L97.385,669.55L97.625,675.69L97.866,677.53L98.106,679.37L98.346,688.57L98.587,654.83L98.827,677.53L99.067,674.46L99.308,683.05L99.548,680.59L99.788,676.91L100.03,666.49L100.27,670.78L100.51,673.23L100.75,657.9L100.99,670.17L101.23,655.45L101.47,637.05L101.71,665.26L101.95,656.06L102.19,666.49L102.43,659.13L102.67,654.83L102.91,646.86L103.15,662.19L103.39,651.15L103.63,667.1L103.87,660.35L104.11,662.81L104.35,667.1L104.59,630.91L104.83,663.42L105.07,670.17L105.32,640.73L105.56,374.54L105.8,667.71L106.04,662.19L106.28,674.46L106.52,683.66L106.76,683.66L107,676.91L107.24,686.11L107.48,674.46L107.72,667.71L107.96,666.49L108.2,674.46L108.44,682.43L108.68,662.19L108.92,672.62L109.16,660.35L109.4,662.19L109.64,666.49L109.88,670.17L110.12,678.14L110.36,660.97L110.6,665.26L110.84,673.85L111.08,675.07L111.32,669.55L111.56,682.43L111.8,668.94L112.04,676.3L112.28,673.85L112.52,675.69L112.76,668.94L113.01,682.43L113.25,673.85L113.49,680.59L113.73,646.86L113.97,680.59L114.21,668.33L114.45,656.67L114.69,660.35L114.93,680.59L115.17,654.83L115.41,672.01L115.65,658.51L115.89,682.43L116.13,687.34L116.37,675.69L116.61,682.43L116.85,675.07L117.09,664.03L117.33,663.42L117.57,667.1L117.81,664.03L118.05,667.71L118.29,656.67L118.53,667.71L118.77,664.65L119.01,654.83L119.25,657.29L119.49,670.17L119.73,675.07L119.97,674.46L120.21,644.41L120.45,672.01L120.69,701.44L120.94,695.31L121.18,690.41L121.42,688.57L121.66,692.25L121.9,680.59L122.14,689.79L122.38,687.95L122.62,686.73L122.86,688.57L123.1,681.21L123.34,679.98L123.58,676.91L123.82,657.9L124.06,679.37L124.3,675.69L124.54,501.5L124.78,662.81L125.02,676.3L125.26,604.54L125.5,622.33L125.74,681.82L125.98,672.62L126.22,649.93L126.46,670.17L126.7,678.14L126.94,670.78L127.18,672.62L127.42,679.98L127.66,683.66L127.9,683.05L128.14,666.49L128.38,683.05L128.62,657.9L128.87,651.15L129.11,660.97L129.35,672.62L129.59,667.1L129.83,669.55L130.07,684.27L130.31,676.3L130.55,685.5L130.79,667.1L131.03,685.5L131.27,670.78L131.51,680.59L131.75,665.26L131.99,670.17L132.23,675.69L132.47,665.87L132.71,680.59L132.95,675.07L133.19,679.37L133.43,661.58L133.67,635.82L133.91,663.42L134.15,665.87L134.39,677.53L134.63,676.91L134.87,668.94L135.11,666.49L135.35,673.85L135.59,681.82L135.83,687.95L136.07,681.82L136.31,687.95L136.56,670.78L136.8,676.3L137.04,673.85L137.28,681.82L137.52,666.49L137.76,670.17L138,679.37L138.24,665.26L138.48,664.65L138.72,650.54L138.96,675.69L139.2,684.89L139.44,689.79L139.68,687.34L139.92,654.83L140.16,679.37L140.4,672.01L140.64,675.69L140.88,691.63L141.12,327.32L141.36,683.05L141.6,684.89L141.84,659.74L142.08,665.87L142.32,678.14L142.56,656.67L142.8,573.87L143.04,666.49L143.28,667.71L143.52,677.53L143.76,587.37L144,638.27L144.24,688.57L144.49,673.85L144.73,697.15L144.97,676.3L145.21,668.33L145.45,664.03L145.69,667.71L145.93,670.17L146.17,676.3L146.41,668.33L146.65,668.94L146.89,667.1L147.13,681.21L147.37,675.69L147.61,665.87L147.85,678.75L148.09,679.98L148.33,636.43L148.57,670.17L148.81,676.91L149.05,678.75L149.29,597.18L149.53,656.06L149.77,666.49L150.01,661.58L150.25,667.1L150.49,675.07L150.73,678.14L150.97,691.02L151.21,677.53L151.45,676.91L151.69,673.23L151.93,673.85L152.18,649.93L152.42,668.33L152.66,672.62L152.9,675.07L153.14,675.07L153.38,675.07L153.62,569.58L153.86,660.97L154.1,670.78L154.34,668.33L154.58,656.06L154.82,667.1L155.06,660.97L155.3,654.22L155.54,658.51L155.78,664.65L156.02,656.06L156.26,651.77L156.5,346.33L156.74,589.82L156.98,670.78L157.22,676.91L157.46,667.71L157.7,553.63L157.94,660.35L158.18,666.49L158.42,672.01L158.66,676.3L158.9,647.47L159.14,666.49L159.38,659.74L159.62,662.81L159.86,665.26L160.11,666.49L160.35,642.57L160.59,638.27L160.83,657.9L161.07,654.83L161.31,652.99L161.55,663.42L161.79,668.94L162.03,673.85L162.27,663.42L162.51,650.54L162.75,610.67L162.99,649.93L163.23,659.74L163.47,675.69L163.71,667.71L163.95,672.01L164.19,653.61L164.43,635.21L164.67,657.29L164.91,674.46L165.15,673.23L165.39,678.75L165.63,677.53L165.87,672.62L166.11,681.82L166.35,658.51L166.59,677.53L166.83,683.05L167.07,671.39L167.31,664.65L167.55,676.3L167.79,676.3L168.04,681.82L168.28,673.23L168.52,674.46L168.76,671.39L169,666.49L169.24,674.46L169.48,679.37L169.72,633.37L169.96,648.7L170.2,670.17L170.44,681.82L170.68,667.1L170.92,678.14L171.16,676.3L171.4,652.99L171.64,684.27L171.88,674.46L172.12,663.42L172.36,661.58L172.6,630.3L172.84,654.22L173.08,673.85L173.32,674.46L173.56,671.39L173.8,668.33L174.04,670.17L174.28,659.13L174.52,643.79L174.76,652.38L175,652.38L175.24,649.31L175.48,659.13L175.73,652.99L175.97,670.78L176.21,674.46L176.45,664.65L176.69,679.98L176.93,647.47L177.17,587.98L177.41,550.57L177.65,656.67L177.89,651.15L178.13,606.38L178.37,656.67L178.61,638.27L178.85,667.1L179.09,676.3L179.33,662.19L179.57,668.33L179.81,660.97L180.05,670.17L180.29,683.05L180.53,675.07L180.77,681.21L181.01,668.33L181.25,667.1L181.49,667.71L181.73,667.71L181.97,387.42L182.21,443.85L182.45,630.3L182.69,540.14L182.93,658.51L183.17,674.46L183.41,657.9L183.66,661.58L183.9,668.94L184.14,670.17L184.38,656.06L184.62,647.47L184.86,672.01L185.1,660.97L185.34,676.3L185.58,669.55L185.82,656.06L186.06,676.3L186.3,675.69L186.54,681.21L186.78,676.91L187.02,674.46L187.26,686.73L187.5,670.17L187.74,669.55L187.98,673.85L188.22,659.74L188.46,672.62L188.7,681.82L188.94,661.58L189.18,666.49L189.42,656.06L189.66,654.22L189.9,627.23L190.14,650.54L190.38,645.02L190.62,664.65L190.86,672.01L191.1,687.34L191.35,665.26L191.59,667.71L191.83,665.26L192.07,659.13L192.31,651.77L192.55,662.81L192.79,649.31L193.03,686.11L193.27,672.62L193.51,679.98L193.75,670.17L193.99,673.85L194.23,657.9L194.47,670.78L194.71,661.58L194.95,681.82L195.19,687.34L195.43,687.34L195.67,656.67L195.91,697.15L196.15,665.87L196.39,683.05L196.63,686.11L196.87,657.9L197.11,675.69L197.35,657.29L197.59,654.83L197.83,650.54L198.07,657.29L198.31,650.54L198.55,649.93L198.79,633.98L199.03,657.29L199.28,655.45L199.52,663.42L199.76,674.46L200,645.63L200.24,673.23L200.48,651.77L200.72,685.5L200.96,653.61L201.2,638.89L201.44,646.86L201.68,672.01L201.92,664.03L202.16,663.42L202.4,611.29L202.64,670.17L202.88,636.43L203.12,682.43L203.36,668.33L203.6,654.22L203.84,643.18L204.08,661.58L204.32,662.19L204.56,671.39L204.8,667.71L205.04,655.45L205.28,657.9L205.52,662.19L205.76,678.75L206,671.39L206.24,677.53L206.48,676.3L206.72,673.85L206.97,662.19L207.21,693.47L207.45,681.82L207.69,668.33L207.93,678.14L208.17,679.37L208.41,686.11L208.65,578.78L208.89,681.21L209.13,671.39L209.37,568.97L209.61,650.54L209.85,655.45L210.09,652.38L210.33,671.39L210.57,683.05L210.81,671.39L211.05,669.55L211.29,679.37L211.53,660.35L211.77,673.23L212.01,523.58L212.25,629.69L212.49,672.62L212.73,662.81L212.97,664.03L213.21,663.42L213.45,664.03L213.69,664.65L213.93,665.26L214.17,665.26L214.41,674.46L214.65,673.85L214.9,697.15L215.14,655.45L215.38,692.86L215.62,679.98L215.86,666.49L216.1,656.67L216.34,679.37L216.58,650.54L216.82,676.3L217.06,662.19L217.3,664.65L217.54,675.69L217.78,663.42L218.02,662.19L218.26,654.83L218.5,652.38L218.74,659.74L218.98,665.26L219.22,672.01L219.46,619.26L219.7,649.93L219.94,645.02L220.18,666.49L220.42,674.46L220.66,670.17L220.9,672.62L221.14,661.58L221.38,681.82L221.62,667.71L221.86,676.91L222.1,123.08L222.34,675.07L222.58,676.91L222.83,672.01L223.07,676.91L223.31,693.47L223.55,679.37L223.79,692.25L224.03,675.07L224.27,676.3L224.51,610.06L224.75,660.35L224.99,677.53L225.23,670.78L225.47,672.62L225.71,680.59L225.95,654.22L226.19,684.89L226.43,664.65L226.67,649.93L226.91,645.02L227.15,661.58L227.39,668.33L227.63,682.43L227.87,669.55L228.11,680.59L228.35,664.65L228.59,660.35L228.83,674.46L229.07,674.46L229.31,655.45L229.55,683.66L229.79,661.58L230.03,685.5L230.27,626.62L230.52,675.69L230.76,661.58L231,659.74L231.24,672.62L231.48,673.23L231.72,663.42L231.96,658.51L232.2,671.39L232.44,673.85L232.68,659.13L232.92,661.58L233.16,665.26L233.4,676.3L233.64,669.55L233.88,669.55L234.12,660.35L234.36,647.47L234.6,665.87L234.84,673.23L235.08,664.65L235.32,675.07L235.56,671.39L235.8,680.59L236.04,672.01L236.28,672.62L236.52,672.01L236.76,660.97L237,670.17L237.24,681.82L237.48,682.43L237.72,654.22L237.96,669.55L238.2,614.35L238.45,486.17L238.69,681.21L238.93,693.47L239.17,684.27L239.41,686.11L239.65,646.86L239.89,570.19L240.13,677.53L240.37,635.82L240.61,456.73L240.85,672.01L241.09,669.55L241.33,676.3L241.57,676.91L241.81,638.27L242.05,667.71L242.29,658.51L242.53,676.91L242.77,606.99L243.01,659.74L243.25,665.87L243.49,670.78L243.73,689.18L243.97,669.55L244.21,640.11L244.45,665.26L244.69,664.03L244.93,675.69L245.17,674.46L245.41,659.74L245.65,660.97L245.89,681.82L246.14,382.52L246.38,664.03L246.62,676.91L246.86,665.26L247.1,633.37L247.34,651.15L247.58,678.14L247.82,654.22L248.06,666.49L248.3,659.13L248.54,645.02L248.78,667.1L249.02,658.51L249.26,639.5L249.5,672.62L249.74,655.45L249.98,671.39L250.22,670.17L250.46,679.98L250.7,670.17L250.94,664.03L251.18,667.1L251.42,657.9L251.66,668.94L251.9,667.1L252.14,662.81L252.38,671.39L252.62,646.86L252.86,679.98L253.1,670.78L253.34,672.62L253.58,622.94L253.82,659.74L254.07,643.79L254.31,653.61L254.55,661.58L254.79,667.71L255.03,654.22L255.27,652.99L255.51,613.13L255.75,641.34L255.99,646.25L256.23,647.47L256.47,652.38L256.71,594.11L256.95,423L257.19,643.18L257.43,649.31L257.67,636.43L257.91,661.58L258.15,656.06L258.39,672.01L258.63,614.35L258.87,690.41L259.11,649.31L259.35,668.33L259.59,694.7L259.83,677.53L260.07,659.13L260.31,631.53L260.55,670.78L260.79,674.46L261.03,669.55L261.27,663.42L261.51,658.51L261.75,654.83L262,638.27L262.24,645.02L262.48,667.71L262.72,602.09L262.96,440.17L263.2,614.35L263.44,667.71L263.68,657.9L263.92,668.94L264.16,649.31L264.4,624.78L264.64,652.38L264.88,669.55L265.12,675.07L265.36,657.29L265.6,638.27L265.84,675.07L266.08,662.81L266.32,646.86L266.56,603.93L266.8,681.82L267.04,664.65L267.28,668.94L267.52,667.1L267.76,675.69L268,664.65L268.24,623.55L268.48,651.15L268.72,668.94L268.96,673.85L269.2,670.78L269.44,670.78L269.69,667.71L269.93,667.71L270.17,664.03L270.41,674.46L270.65,664.65L270.89,680.59L271.13,649.31L271.37,647.47L271.61,673.85L271.85,658.51L272.09,641.34L272.33,679.98L272.57,666.49L272.81,675.69L273.05,672.01L273.29,678.14L273.53,662.19L273.77,585.53L274.01,484.33L274.25,666.49L274.49,655.45L274.73,682.43L274.97,682.43L275.21,676.3L275.45,667.71L275.69,681.21L275.93,672.62L276.17,665.26L276.41,683.05L276.65,675.07L276.89,687.34L277.13,688.57L277.37,657.29L277.62,680.59L277.86,681.21L278.1,693.47L278.34,688.57L278.58,687.95L278.82,698.38L279.06,689.18L279.3,687.34L279.54,662.19L279.78,601.47L280.02,657.29L280.26,668.94L280.5,668.33L280.74,628.46L280.98,666.49L281.22,619.26L281.46,684.27L281.7,666.49L281.94,662.81L282.18,664.03L282.42,668.33L282.66,663.42L282.9,652.99L283.14,661.58L283.38,660.97L283.62,633.37L283.86,601.47L284.1,657.29L284.34,638.89L284.58,658.51L284.82,670.78L285.06,657.29L285.31,668.94L285.55,664.65L285.79,676.3L286.03,680.59L286.27,661.58L286.51,675.69L286.75,657.9L286.99,674.46L287.23,662.81L287.47,663.42L287.71,660.35L287.95,669.55L288.19,621.1L288.43,657.29L288.67,654.22L288.91,673.85L289.15,666.49" style="fill:none;stroke:#7AC36A;stroke-width:1.875;stroke-dasharray:7.5,2.5" />
<path d="M60.137,102.84L60.378,160.49L60.618,173.37L60.858,188.09L61.099,180.12L61.339,185.03L61.579,185.03L61.82,191.77L62.06,177.05L62.3,194.23L62.541,192.39L62.781,173.37L63.021,191.77L63.261,186.25L63.502,185.03L63.742,186.25L63.982,179.51L64.223,193L64.463,186.87L64.703,200.97L64.944,188.09L65.184,158.04L65.424,189.93L65.665,187.48L65.905,186.25L66.145,187.48L66.385,187.48L66.626,189.32L66.866,179.51L67.106,191.77L67.347,194.84L67.587,177.67L67.827,182.57L68.068,185.03L68.308,172.76L68.548,188.71L68.789,194.84L69.029,193.61L69.269,195.45L69.509,186.87L69.75,188.09L69.99,177.67L70.23,194.23L70.471,154.36L70.711,146.39L70.951,186.25L71.192,197.29L71.432,189.93L71.672,185.03L71.913,193L72.153,190.55L72.393,176.44L72.633,183.8L72.874,184.41L73.114,183.8L73.354,175.21L73.595,164.17L73.835,175.83L74.075,174.6L74.316,174.6L74.556,163.56L74.796,150.07L75.037,191.16L75.277,179.51L75.517,190.55L75.757,177.05L75.998,162.95L76.238,190.55L76.478,188.71L76.719,182.57L76.959,170.31L77.199,181.96L77.44,186.25L77.68,175.21L77.92,163.56L78.161,181.35L78.401,188.09L78.641,181.35L78.881,187.48L79.122,180.73L79.362,187.48L79.602,183.19L79.843,186.87L80.083,172.76L80.323,183.19L80.564,178.28L80.804,181.96L81.044,178.89L81.285,185.03L81.525,183.19L81.765,186.25L82.005,195.45L82.246,185.64L82.486,185.03L82.726,170.92L82.967,182.57L83.207,189.93L83.447,192.39L83.688,182.57L83.928,181.35L84.168,191.16L84.408,191.77L84.649,158.65L84.889,182.57L85.129,188.09L85.37,185.64L85.61,185.64L85.85,188.09L86.091,191.16L86.331,195.45L86.571,194.84L86.812,187.48L87.052,185.03L87.292,189.32L87.532,172.76L87.773,177.67L88.013,185.03L88.253,185.03L88.494,186.25L88.734,172.15L88.974,178.89L89.215,196.68L89.455,186.87L89.695,181.96L89.936,181.96L90.176,184.41L90.416,162.95L90.656,122.47L90.897,120.02L91.137,108.98L91.377,99.776L91.618,104.68L91.858,167.24L92.098,104.68L92.339,94.256L92.579,93.029L92.819,95.482L93.06,94.869L93.3,102.84L93.54,99.162L93.78,99.162L94.021,140.87L94.261,93.643L94.501,103.46L94.742,144.55L94.982,179.51L95.222,190.55L95.463,194.23L95.703,202.81L95.943,215.69L96.184,197.29L96.424,208.33L96.664,207.72L96.904,203.43L97.145,204.04L97.385,203.43L97.625,199.75L97.866,200.36L98.106,210.79L98.346,208.95L98.587,208.95L98.827,202.81L99.067,204.65L99.308,217.53L99.548,213.24L99.788,185.64L100.03,207.11L100.27,223.05L100.51,214.47L100.75,222.44L100.99,211.4L101.23,212.63L101.47,213.85L101.71,220.6L101.95,213.24L102.19,209.56L102.43,216.92L102.67,220.6L102.91,220.6L103.15,221.83L103.39,212.01L103.63,221.83L103.87,226.73L104.11,218.76L104.35,220.6L104.59,219.37L104.83,207.11L105.07,229.19L105.32,229.19L105.56,226.73L105.8,225.51L106.04,230.41L106.28,224.28L106.52,219.37L106.76,205.88L107,212.63L107.24,221.21L107.48,220.6L107.72,221.83L107.96,223.67L108.2,214.47L108.44,221.21L108.68,227.96L108.92,231.64L109.16,229.19L109.4,227.96L109.64,229.8L109.88,226.73L110.12,210.17L110.36,228.57L110.6,219.99L110.84,196.07L111.08,154.97L111.32,185.03L111.56,186.87L111.8,180.12L112.04,199.75L112.28,197.91L112.52,181.35L112.76,152.52L113.01,173.37L113.25,179.51L113.49,167.85L113.73,154.36L113.97,172.76L114.21,200.97L114.45,189.93L114.69,159.88L114.93,189.32L115.17,178.28L115.41,152.52L115.65,188.71L115.89,138.42L116.13,155.59L116.37,180.12L116.61,173.99L116.85,174.6L117.09,145.16L117.33,148.84L117.57,155.59L117.81,151.91L118.05,173.99L118.29,134.12L118.53,148.84L118.77,144.55L119.01,148.23L119.25,159.27L119.49,162.33L119.73,143.32L119.97,158.65L120.21,144.55L120.45,150.68L120.69,164.17L120.94,158.04L121.18,173.99L121.42,144.55L121.66,142.09L121.9,118.18L122.14,159.88L122.38,151.91L122.62,138.42L122.86,135.35L123.1,117.56L123.34,107.75L123.58,127.38L123.82,162.95L124.06,153.75L124.3,137.19L124.54,124.31L124.78,154.36L125.02,133.51L125.26,140.87L125.5,118.79L125.74,110.2L125.98,139.03L126.22,124.31L126.46,86.283L126.7,86.896L126.94,88.736L127.18,88.736L127.42,86.896L127.66,86.896L127.9,108.98L128.14,110.82L128.38,108.36L128.62,99.776L128.87,108.36L129.11,102.23L129.35,101L129.59,116.95L129.83,123.08L130.07,130.44L130.31,126.76L130.55,122.47L130.79,110.2L131.03,109.59L131.27,125.54L131.51,120.02L131.75,110.82L131.99,115.72L132.23,118.18L132.47,106.52L132.71,105.3L132.95,98.549L133.19,114.5L133.43,135.96L133.67,129.22L133.91,114.5L134.15,115.72L134.39,103.46L134.63,102.23L134.87,99.162L135.11,99.162L135.35,100.39L135.59,102.84L135.83,101.62L136.07,97.322L136.31,100.39L136.56,101.62L136.8,98.549L137.04,99.776L137.28,108.36L137.52,106.52L137.76,108.98L138,104.07L138.24,96.709L138.48,102.23L138.72,96.096L138.96,99.162L139.2,102.23L139.44,102.23L139.68,103.46L139.92,109.59L140.16,101L140.4,101.62L140.64,98.549L140.88,100.39L141.12,101.62L141.36,98.549L141.6,97.322L141.84,96.709L142.08,113.88L142.32,111.43L142.56,116.95L142.8,125.54L143.04,106.52L143.28,120.63L143.52,111.43L143.76,144.55L144,173.37L144.24,153.75L144.49,172.76L144.73,130.44L144.97,120.63L145.21,172.76L145.45,143.32L145.69,147L145.93,112.66L146.17,120.02L146.41,123.7L146.65,142.09L146.89,93.029L147.13,78.309L147.37,82.603L147.61,80.149L147.85,91.189L148.09,98.549L148.33,142.71L148.57,192.39L148.81,115.11L149.05,99.776L149.29,153.75L149.53,196.68L149.77,198.52L150.01,198.52L150.25,192.39L150.49,192.39L150.73,183.8L150.97,188.09L151.21,204.65L151.45,197.29L151.69,196.07L151.93,199.13L152.18,192.39L152.42,214.47L152.66,191.77L152.9,185.03L153.14,204.04L153.38,193L153.62,187.48L153.86,197.29L154.1,195.45L154.34,195.45L154.58,198.52L154.82,199.13L155.06,195.45L155.3,197.29L155.54,196.68L155.78,201.59L156.02,204.04L156.26,188.09L156.5,204.04L156.74,207.11L156.98,202.81L157.22,212.01L157.46,194.84L157.7,200.97L157.94,210.17L158.18,210.79L158.42,200.36L158.66,213.24L158.9,215.69L159.14,204.65L159.38,207.72L159.62,204.65L159.86,205.27L160.11,217.53L160.35,207.72L160.59,207.11L160.83,212.01L161.07,193L161.31,226.73L161.55,205.27L161.79,224.89L162.03,204.65L162.27,208.95L162.51,202.2L162.75,223.05L162.99,211.4L163.23,212.63L163.47,219.37L163.71,208.33L163.95,212.01L164.19,205.27L164.43,216.31L164.67,215.69L164.91,207.11L165.15,229.19L165.39,225.51L165.63,207.11L165.87,211.4L166.11,229.8L166.35,226.73L166.59,226.12L166.83,235.32L167.07,214.47L167.31,221.83L167.55,223.67L167.79,225.51L168.04,218.76L168.28,196.07L168.52,181.35L168.76,200.97L169,198.52L169.24,202.2L169.48,199.75L169.72,196.68L169.96,188.09L170.2,160.49L170.44,177.67L170.68,199.75L170.92,194.23L171.16,202.81L171.4,204.04L171.64,186.87L171.88,143.93L172.12,153.75L172.36,172.76L172.6,189.93L172.84,178.28L173.08,193L173.32,210.17L173.56,205.88L173.8,210.79L174.04,208.33L174.28,180.73L174.52,191.77L174.76,193L175,170.92L175.24,134.74L175.48,191.16L175.73,204.65L175.97,188.09L176.21,178.28L176.45,155.59L176.69,137.19L176.93,133.51L177.17,172.76L177.41,146.39L177.65,123.08L177.89,153.13L178.13,213.24L178.37,214.47L178.61,190.55L178.85,213.85L179.09,206.49L179.33,213.24L179.57,215.08L179.81,213.85L180.05,221.21L180.29,216.92L180.53,193.61L180.77,210.17L181.01,221.83L181.25,205.88L181.49,142.09L181.73,161.72L181.97,174.6L182.21,199.13L182.45,218.76L182.69,218.76L182.93,218.76L183.17,224.89L183.41,228.57L183.66,198.52L183.9,218.15L184.14,202.81L184.38,221.83L184.62,226.12L184.86,199.75L185.1,218.15L185.34,196.07L185.58,193.61L185.82,206.49L186.06,218.76L186.3,202.2L186.54,211.4L186.78,86.896L187.02,78.309L187.26,80.149L187.5,84.443L187.74,85.669L187.98,80.149L188.22,80.763L188.46,79.536L188.7,85.669L188.94,83.829L189.18,83.216L189.42,80.763L189.66,91.189L189.9,88.736L190.14,89.963L190.38,89.963L190.62,89.963L190.86,88.736L191.1,88.123L191.35,91.803L191.59,89.349L191.83,89.349L192.07,91.803L192.31,91.803L192.55,86.896L192.79,86.896L193.03,91.803L193.27,88.736L193.51,90.576L193.75,90.576L193.99,92.416L194.23,88.736L194.47,88.123L194.71,89.349L194.95,92.416L195.19,94.869L195.43,154.36L195.67,180.12L195.91,172.15L196.15,121.24L196.39,103.46L196.63,88.123L196.87,96.709L197.11,89.963L197.35,88.736L197.59,103.46L197.83,90.576L198.07,94.869L198.31,89.349L198.55,90.576L198.79,142.71L199.03,181.96L199.28,107.75L199.52,89.963L199.76,89.963L200,91.189L200.24,92.416L200.48,101L200.72,118.79L200.96,112.04L201.2,190.55L201.44,196.68L201.68,175.21L201.92,188.71L202.16,201.59L202.4,205.27L202.64,180.73L202.88,203.43L203.12,183.19L203.36,182.57L203.6,101L203.84,96.709L204.08,102.23L204.32,170.92L204.56,167.85L204.8,215.08L205.04,199.75L205.28,189.32L205.52,145.77L205.76,210.79L206,204.65L206.24,204.04L206.48,195.45L206.72,199.13L206.97,207.72L207.21,205.88L207.45,169.69L207.69,204.65L207.93,210.79L208.17,210.17L208.41,193L208.65,205.27L208.89,213.24L209.13,202.2L209.37,201.59L209.61,206.49L209.85,214.47L210.09,181.35L210.33,189.93L210.57,188.71L210.81,197.29L211.05,187.48L211.29,197.29L211.53,187.48L211.77,189.32L212.01,182.57L212.25,194.23L212.49,190.55L212.73,194.84L212.97,186.87L213.21,184.41L213.45,199.13L213.69,180.73L213.93,182.57L214.17,190.55L214.41,191.16L214.65,199.13L214.9,192.39L215.14,185.64L215.38,192.39L215.62,185.64L215.86,193L216.1,196.68L216.34,178.89L216.58,197.29L216.82,190.55L217.06,191.77L217.3,207.72L217.54,177.05L217.78,195.45L218.02,192.39L218.26,199.13L218.5,191.77L218.74,199.75L218.98,196.07L219.22,202.2L219.46,189.32L219.7,202.2L219.94,195.45L220.18,192.39L220.42,192.39L220.66,208.95L220.9,205.27L221.14,198.52L221.38,213.85L221.62,202.81L221.86,195.45L222.1,202.2L222.34,204.04L222.58,196.07L222.83,193.61L223.07,202.81L223.31,191.77L223.55,197.91L223.79,186.25L224.03,185.64L224.27,189.32L224.51,193.61L224.75,196.07L224.99,183.8L225.23,189.32L225.47,199.13L225.71,177.67L225.95,200.36L226.19,194.23L226.43,200.36L226.67,192.39L226.91,185.64L227.15,188.71L227.39,194.23L227.63,194.84L227.87,185.03L228.11,199.13L228.35,207.11L228.59,200.36L228.83,185.03L229.07,188.71L229.31,196.68L229.55,204.65L229.79,199.75L230.03,182.57L230.27,201.59L230.52,204.65L230.76,193L231,202.2L231.24,183.8L231.48,197.91L231.72,203.43L231.96,199.13L232.2,205.27L232.44,188.09L232.68,213.85L232.92,202.81L233.16,200.97L233.4,183.8L233.64,199.75L233.88,208.95L234.12,205.88L234.36,204.65L234.6,208.33L234.84,205.88L235.08,199.13L235.32,200.36L235.56,205.88L235.8,202.2L236.04,205.27L236.28,221.83L236.52,210.79L236.76,208.33L237,200.36L237.24,213.85L237.48,201.59L237.72,211.4L237.96,205.27L238.2,174.6L238.45,189.32L238.69,214.47L238.93,207.11L239.17,207.72L239.41,221.83L239.65,223.67L239.89,222.44L240.13,210.17L240.37,219.99L240.61,215.08L240.85,212.01L241.09,213.24L241.33,207.11L241.57,215.69L241.81,221.83L242.05,219.99L242.29,213.24L242.53,231.03L242.77,222.44L243.01,216.31L243.25,223.05L243.49,219.99L243.73,200.36L243.97,228.57L244.21,224.89L244.45,230.41L244.69,219.99L244.93,227.35L245.17,219.99L245.41,222.44L245.65,217.53L245.89,191.77L246.14,220.6L246.38,229.8L246.62,227.96L246.86,215.69L247.1,208.33L247.34,226.12L247.58,224.28L247.82,232.87L248.06,225.51L248.3,237.77L248.54,235.93L248.78,237.77L249.02,185.03L249.26,115.11L249.5,123.08L249.74,143.32L249.98,148.23L250.22,148.23L250.46,128.6L250.7,132.28L250.94,126.15L251.18,112.66L251.42,114.5L251.66,108.36L251.9,104.68L252.14,119.4L252.38,101L252.62,103.46L252.86,101L253.1,98.549L253.34,108.98L253.58,128.6L253.82,113.27L254.07,107.75L254.31,132.28L254.55,101L254.79,101L255.03,97.936L255.27,96.709L255.51,94.869L255.75,99.776L255.99,94.869L256.23,99.776L256.47,117.56L256.71,103.46L256.95,97.936L257.19,98.549L257.43,104.68L257.67,96.096L257.91,99.776L258.15,99.776L258.39,97.936L258.63,96.709L258.87,116.95L259.11,104.07L259.35,97.322L259.59,105.3L259.83,132.9L260.07,152.52L260.31,136.58L260.55,111.43L260.79,123.7L261.03,130.44L261.27,164.17L261.51,217.53L261.75,185.64L262,200.97L262.24,164.79L262.48,148.23L262.72,99.162L262.96,74.63L263.2,80.763L263.44,81.989L263.68,80.149L263.92,77.696L264.16,82.603L264.4,81.376L264.64,81.989L264.88,79.536L265.12,80.763L265.36,148.23L265.6,171.53L265.84,147.61L266.08,164.79L266.32,191.16L266.56,162.33L266.8,153.75L267.04,151.91L267.28,159.27L267.52,177.67L267.76,171.53L268,176.44L268.24,172.15L268.48,183.8L268.72,168.47L268.96,175.83L269.2,175.21L269.44,172.15L269.69,150.68L269.93,163.56L270.17,185.64L270.41,173.37L270.65,182.57L270.89,189.32L271.13,169.08L271.37,184.41L271.61,188.09L271.85,186.25L272.09,185.03L272.33,184.41L272.57,183.19L272.81,138.42L273.05,186.87L273.29,178.28L273.53,197.29L273.77,191.77L274.01,179.51L274.25,179.51L274.49,188.71L274.73,188.71L274.97,170.31L275.21,202.2L275.45,167.85L275.69,196.68L275.93,178.28L276.17,202.2L276.41,199.13L276.65,191.16L276.89,181.35L277.13,194.23L277.37,196.68L277.62,184.41L277.86,174.6L278.1,201.59L278.34,186.25L278.58,197.29L278.82,183.8L279.06,196.07L279.3,191.16L279.54,193.61L279.78,208.33L280.02,172.15L280.26,186.25L280.5,192.39L280.74,200.36L280.98,194.23L281.22,193.61L281.46,199.13L281.7,191.77L281.94,192.39L282.18,194.84L282.42,198.52L282.66,186.87L282.9,191.77L283.14,178.28L283.38,186.25L283.62,198.52L283.86,196.68L284.1,177.67L284.34,189.93L284.58,190.55L284.82,197.29L285.06,187.48L285.31,181.96L285.55,202.2L285.79,191.77L286.03,203.43L286.27,200.36L286.51,191.77L286.75,172.15L286.99,205.88L287.23,203.43L287.47,186.25L287.71,207.72L287.95,205.88L288.19,182.57L288.43,210.17L288.67,202.2L288.91,198.52L289.15,212.01L289.39,211.4L289.63,204.04L289.87,194.23L290.11,211.4L290.35,196.68L290.59,210.79L290.83,206.49L291.07,189.93L291.31,213.24L291.55,218.15L291.79,218.15L292.03,208.33L292.27,212.63L292.51,186.87L292.75,217.53L292.99,210.79L293.24,219.37L293.48,212.01L293.72,208.95L293.96,209.56L294.2,207.72L294.44,206.49L294.68,172.15L294.92,182.57L295.16,190.55L295.4,213.85L295.64,210.17L295.88,224.89L296.12,226.12L296.36,195.45L296.6,211.4L296.84,196.68L297.08,183.19L297.32,201.59L297.56,168.47L297.8,197.91L298.04,214.47L298.28,212.01L298.52,213.24L298.76,212.01L299,202.2L299.24,211.4L299.48,166.63L299.72,204.65L299.96,208.33L300.2,210.17L300.44,210.17L300.68,217.53L300.93,194.23L301.17,206.49L301.41,212.63L301.65,185.03L301.89,221.21L302.13,218.15L302.37,208.95L302.61,201.59L302.85,202.81L303.09,170.31L303.33,211.4L303.57,175.21L303.81,169.69L304.05,204.65L304.29,189.93L304.53,194.23L304.77,205.27L305.01,227.96L305.25,208.95L305.49,178.89L305.73,219.37L305.97,210.17L306.21,197.29L306.45,177.67L306.69,212.01L306.93,235.93L307.17,224.28L307.41,224.28L307.65,226.73L307.89,222.44L308.13,232.87L308.37,197.91L308.61,232.87L308.86,232.25L309.1,230.41L309.34,207.72L309.58,201.59L309.82,229.8L310.06,145.16L310.3,115.72L310.54,106.52L310.78,120.63L311.02,113.88L311.26,112.66L311.5,132.9L311.74,112.66L311.98,108.36L312.22,95.482L312.46,112.66L312.7,133.51L312.94,172.15L313.18,178.89L313.42,164.17L313.66,176.44L313.9,172.15L314.14,191.16L314.38,197.29L314.62,182.57L314.86,194.23L315.1,196.07L315.34,181.35L315.58,179.51L315.82,187.48L316.06,193L316.3,195.45L316.54,199.75L316.79,186.87L317.03,199.75L317.27,197.91L317.51,191.16L317.75,184.41L317.99,185.64L318.23,193L318.47,193L318.71,183.8L318.95,189.32L319.19,199.13L319.43,196.07L319.67,157.43L319.91,174.6L320.15,191.16L320.39,196.68L320.63,189.32L320.87,187.48L321.11,180.73L321.35,186.87L321.59,194.23L321.83,187.48L322.07,201.59L322.31,190.55L322.55,187.48L322.79,188.71L323.03,193.61L323.27,197.91L323.51,195.45L323.75,200.36L323.99,197.91L324.23,194.84L324.48,200.36L324.72,164.17L324.96,201.59L325.2,194.84L325.44,197.91L325.68,202.81L325.92,190.55L326.16,196.07L326.4,213.24L326.64,198.52L326.88,190.55L327.12,176.44L327.36,194.84L327.6,205.27L327.84,199.13L328.08,208.95L328.32,193.61L328.56,184.41L328.8,205.27L329.04,207.72L329.28,202.2L329.52,202.2L329.76,186.87L330,199.75L330.24,212.01L330.48,207.11L330.72,205.88L330.96,210.17L331.2,192.39L331.44,202.2L331.68,215.69L331.92,205.88L332.16,216.31L332.41,199.75L332.65,223.05L332.89,204.65L333.13,211.4L333.37,208.33L333.61,208.95L333.85,208.33L334.09,217.53L334.33,191.16L334.57,127.99L334.81,86.896L335.05,79.536L335.29,80.763L335.53,99.162L335.77,81.989L336.01,98.549L336.25,80.763L336.49,80.149L336.73,80.149L336.97,83.829L337.21,102.84L337.45,93.643L337.69,80.149L337.93,78.309L338.17,82.603L338.41,83.829L338.65,86.896L338.89,83.216L339.13,104.07L339.37,78.923L339.61,82.603L339.85,81.376L340.1,80.763L340.34,78.309L340.58,75.243L340.82,81.376L341.06,145.77L341.3,146.39L341.54,94.256L341.78,86.283L342.02,82.603L342.26,80.149L342.5,77.696L342.74,85.669L342.98,103.46L343.22,82.603L343.46,83.216L343.7,80.149L343.94,80.149L344.18,82.603L344.42,82.603L344.66,105.91L344.9,100.39L345.14,89.349L345.38,158.65L345.62,183.19L345.86,186.87L346.1,183.19L346.34,182.57L346.58,182.57L346.82,186.87L347.06,179.51L347.3,194.84L347.54,177.67L347.78,183.19L348.03,189.32L348.27,188.09L348.51,185.64L348.75,153.75L348.99,190.55L349.23,188.09L349.47,189.32L349.71,191.77L349.95,170.92L350.19,182.57L350.43,190.55L350.67,178.28L350.91,194.84L351.15,184.41L351.39,183.8L351.63,181.96L351.87,170.31L352.11,154.97L352.35,169.69L352.59,175.83L352.83,202.81L353.07,192.39L353.31,189.32L353.55,180.12L353.79,140.26L354.03,183.8L354.27,196.07L354.51,198.52L354.75,186.87L354.99,178.28L355.23,191.16L355.47,163.56L355.71,191.77L355.96,195.45L356.2,193.61L356.44,179.51L356.68,183.19L356.92,189.93L357.16,186.25L357.4,154.36L357.64,178.89L357.88,170.92L358.12,194.23L358.36,192.39L358.6,188.09L358.84,188.71L359.08,160.49L359.32,178.28L359.56,186.25L359.8,201.59L360.04,197.91L360.28,206.49L360.52,180.12L360.76,187.48L361,185.64L361.24,195.45L361.48,197.29L361.72,197.29L361.96,186.87L362.2,193L362.44,189.32L362.68,179.51L362.92,144.55L363.16,190.55L363.4,179.51L363.65,179.51L363.89,192.39L364.13,200.36L364.37,183.8L364.61,177.67L364.85,158.65L365.09,175.83L365.33,148.23L365.57,84.443L365.81,80.763L366.05,78.309L366.29,78.923L366.53,80.763L366.77,87.509L367.01,126.15L367.25,85.056L367.49,77.696L367.73,84.443L367.97,94.256L368.21,86.283L368.45,77.083L368.69,86.896L368.93,86.896L369.17,81.376L369.41,80.149L369.65,80.149L369.89,75.856L370.13,79.536L370.37,80.763L370.61,100.39L370.85,105.91L371.09,81.989L371.33,79.536L371.58,83.216L371.82,85.056L372.06,67.883L372.3,89.349L372.54,99.776L372.78,117.56L373.02,77.696L373.26,86.283L373.5,82.603L373.74,80.763L373.98,81.989L374.22,80.149L374.46,98.549L374.7,84.443L374.94,81.376L375.18,79.536L375.42,80.763L375.66,81.989L375.9,86.896L376.14,89.349L376.38,82.603L376.62,101.62L376.86,159.88L377.1,174.6L377.34,169.08L377.58,172.76L377.82,162.95L378.06,175.21L378.3,166.01L378.54,175.83L378.78,188.09L379.02,186.25L379.27,181.35L379.51,150.07L379.75,180.12L379.99,191.16L380.23,193L380.47,184.41L380.71,185.03L380.95,179.51L381.19,180.12L381.43,185.64L381.67,178.28L381.91,185.03L382.15,169.69L382.39,194.23L382.63,189.93L382.87,177.05L383.11,182.57L383.35,179.51L383.59,129.22L383.83,177.05L384.07,176.44L384.31,189.93L384.55,174.6L384.79,184.41L385.03,169.69L385.27,188.71L385.51,189.93L385.75,189.93L385.99,176.44L386.23,196.07L386.47,162.95L386.71,184.41L386.95,189.93L387.2,195.45L387.44,194.23L387.68,186.87L387.92,179.51L388.16,187.48L388.4,181.35L388.64,186.87L388.88,194.84L389.12,196.68L389.36,179.51L389.6,200.36L389.84,202.2L390.08,185.64L390.32,190.55L390.56,196.68L390.8,182.57L391.04,195.45L391.28,199.13L391.52,199.75L391.76,201.59L392,189.93L392.24,150.68L392.48,187.48L392.72,197.91L392.96,203.43L393.2,198.52L393.44,195.45L393.68,189.93L393.92,193L394.16,161.72L394.4,194.84L394.64,207.72L394.89,197.91L395.13,202.2L395.37,189.93L395.61,204.04L395.85,188.09L396.09,202.2L396.33,192.39L396.57,205.88L396.81,202.2L397.05,188.09L397.29,207.72L397.53,199.13L397.77,205.27L398.01,196.68L398.25,206.49L398.49,204.65L398.73,179.51L398.97,204.65L399.21,203.43L399.45,198.52L399.69,196.68L399.93,181.96L400.17,199.13L400.41,190.55L400.65,202.81L400.89,208.95L401.13,196.68L401.37,212.01L401.61,217.53L401.85,202.2L402.09,207.11L402.33,200.36L402.57,206.49L402.82,213.85L403.06,227.35L403.3,212.63L403.54,219.37L403.78,218.15L404.02,207.11L404.26,222.44L404.5,206.49L404.74,211.4L404.98,218.76L405.22,222.44L405.46,229.19L405.7,215.08L405.94,209.56L406.18,225.51L406.42,225.51L406.66,204.04L406.9,219.37L407.14,217.53L407.38,213.85L407.62,213.24L407.86,208.33L408.1,216.31L408.34,221.21L408.58,234.09L408.82,226.73L409.06,221.21L409.3,227.35L409.54,223.05L409.78,229.8L410.02,190.55L410.26,213.85L410.5,223.05L410.75,219.99L410.99,215.08L411.23,207.72L411.47,195.45L411.71,126.76L411.95,80.149L412.19,78.309L412.43,89.349L412.67,74.016L412.91,75.243L413.15,78.309L413.39,76.469L413.63,74.63L413.87,77.696L414.11,78.309L414.35,70.95L414.59,75.243L414.83,77.083L415.07,79.536L415.31,78.923L415.55,77.696L415.79,73.403L416.03,108.36L416.27,81.376L416.51,78.309L416.75,81.376L416.99,83.829L417.23,78.923L417.47,84.443L417.71,61.75L417.95,80.149L418.19,83.829L418.44,107.14L418.68,131.06L418.92,164.79L419.16,161.72L419.4,167.85L419.64,160.49L419.88,170.31L420.12,173.99L420.36,172.76L420.6,179.51L420.84,133.51L421.08,156.2L421.32,184.41L421.56,173.99L421.8,172.15L422.04,162.95L422.28,159.88L422.52,164.17L422.76,150.07L423,175.83L423.24,172.15L423.48,178.89L423.72,179.51L423.96,160.49L424.2,182.57L424.44,185.03L424.68,143.32L424.92,178.28L425.16,176.44L425.4,171.53L425.64,117.56L425.88,150.68L426.12,181.96L426.37,186.25L426.61,178.89L426.85,127.38L427.09,182.57L427.33,162.33L427.57,183.19L427.81,177.67L428.05,190.55L428.29,187.48L428.53,182.57L428.77,156.2L429.01,177.05L429.25,185.64L429.49,183.19L429.73,193.61L429.97,185.64L430.21,186.25L430.45,172.15L430.69,188.09L430.93,159.27L431.17,180.73L431.41,194.23L431.65,191.77L431.89,197.29L432.13,178.28L432.37,195.45L432.61,187.48L432.85,195.45L433.09,178.89L433.33,194.23L433.57,200.36L433.81,179.51L434.06,190.55L434.3,188.09L434.54,189.32L434.78,192.39L435.02,202.81L435.26,181.96L435.5,174.6L435.74,188.09L435.98,191.77L436.22,199.75L436.46,198.52L436.7,196.68L436.94,197.91L437.18,203.43L437.42,186.25L437.66,189.93L437.9,155.59L438.14,178.28L438.38,191.77L438.62,186.25L438.86,198.52L439.1,180.73L439.34,195.45L439.58,200.36L439.82,183.8L440.06,191.77L440.3,139.64L440.54,200.97L440.78,204.65L441.02,197.91L441.26,196.07L441.5,200.97L441.74,203.43L441.99,202.2L442.23,206.49L442.47,197.29L442.71,219.99L442.95,168.47L443.19,201.59L443.43,199.13L443.67,206.49L443.91,199.13L444.15,199.75L444.39,204.65L444.63,199.75L444.87,197.91L445.11,189.93L445.35,195.45L445.59,215.08L445.83,180.12L446.07,215.69L446.31,220.6L446.55,218.15L446.79,213.24L447.03,193.61L447.27,206.49L447.51,216.92L447.75,210.17L447.99,213.24L448.23,219.99L448.47,212.63L448.71,212.63L448.95,216.31L449.19,180.73L449.43,220.6L449.67,207.72L449.92,212.01L450.16,199.13L450.4,207.11L450.64,212.01L450.88,215.69L451.12,221.83L451.36,215.69L451.6,199.13L451.84,210.17L452.08,219.37L452.32,213.85L452.56,221.21L452.8,183.8L453.04,211.4L453.28,221.21L453.52,204.65L453.76,227.35L454,190.55L454.24,210.17L454.48,215.69L454.72,223.67L454.96,217.53L455.2,211.4L455.44,200.97L455.68,224.89L455.92,220.6L456.16,213.24L456.4,208.95L456.64,218.15L456.88,213.24L457.12,225.51L457.36,224.89L457.61,196.07L457.85,229.19L458.09,204.65L458.33,205.88L458.57,187.48L458.81,193L459.05,197.91L459.29,207.72L459.53,188.71L459.77,170.92L460.01,189.32L460.25,185.64L460.49,192.39L460.73,156.81L460.97,121.24L461.21,107.14L461.45,108.36L461.69,107.14L461.93,109.59L462.17,99.162L462.41,113.88L462.65,135.96L462.89,116.95L463.13,117.56L463.37,124.92L463.61,167.85L463.85,206.49L464.09,219.37L464.33,216.31L464.57,216.31L464.81,214.47L465.05,217.53L465.29,207.72L465.54,213.24L465.78,202.2L466.02,156.81L466.26,175.21L466.5,208.33L466.74,188.09L466.98,84.443L467.22,94.256L467.46,71.563L467.7,73.403L467.94,77.696L468.18,76.469L468.42,75.856L468.66,74.63L468.9,75.856L469.14,74.63L469.38,75.856L469.62,75.243L469.86,75.856L470.1,79.536L470.34,78.923L470.58,78.309L470.82,71.563L471.06,77.696L471.3,78.923L471.54,79.536L471.78,75.856L472.02,75.243L472.26,78.309L472.5,73.403L472.74,77.083L472.98,75.243L473.23,74.016L473.47,78.309L473.71,75.243L473.95,74.016L474.19,74.63L474.43,91.189L474.67,86.283L474.91,116.34L475.15,157.43L475.39,164.17L475.63,180.73L475.87,175.21L476.11,158.04L476.35,130.44L476.59,164.17L476.83,156.2L477.07,123.08L477.31,160.49L477.55,169.08L477.79,166.63L478.03,146.39L478.27,172.15L478.51,156.81L478.75,172.76L478.99,147.61L479.23,97.322L479.47,127.38L479.71,172.15L479.95,175.21L480.19,160.49L480.43,119.4L480.67,96.096L480.91,83.216L481.16,168.47L481.4,164.17L481.64,146.39L481.88,126.15L482.12,149.45L482.36,185.03L482.6,179.51L482.84,176.44L483.08,160.49L483.32,113.27L483.56,177.67L483.8,192.39L484.04,160.49L484.28,122.47L484.52,112.04L484.76,94.869L485,118.18L485.24,166.01L485.48,188.09L485.72,153.13L485.96,154.97L486.2,187.48L486.44,189.32L486.68,182.57L486.92,180.73L487.16,116.34L487.4,156.2L487.64,186.25L487.88,167.85L488.12,183.19L488.36,175.21L488.6,162.33L488.85,105.3L489.09,110.2L489.33,154.36L489.57,191.16L489.81,164.17L490.05,161.11L490.29,169.08L490.53,167.85L490.77,173.99L491.01,168.47L491.25,177.67L491.49,85.669L491.73,133.51L491.97,184.41L492.21,188.71L492.45,170.31L492.69,187.48L492.93,189.32L493.17,180.73L493.41,178.28L493.65,141.48L493.89,188.71L494.13,168.47L494.37,185.64L494.61,182.57L494.85,188.71L495.09,181.35L495.33,189.93L495.57,194.23L495.81,165.4L496.05,134.74L496.29,182.57L496.53,161.11L496.78,171.53L497.02,194.84L497.26,189.93L497.5,185.64L497.74,191.16L497.98,166.63L498.22,184.41L498.46,142.09L498.7,173.37L498.94,189.93L499.18,190.55L499.42,194.84L499.66,147.61L499.9,126.15L500.14,139.03L500.38,186.25L500.62,194.23L500.86,162.33L501.1,182.57L501.34,179.51L501.58,189.93L501.82,189.93L502.06,193.61L502.3,170.31L502.54,212.01L502.78,202.81L503.02,179.51L503.26,137.19L503.5,127.99L503.74,180.12L503.98,192.39L504.22,203.43L504.46,197.91L504.71,163.56L504.95,197.29L505.19,113.27L505.43,88.736L505.67,82.603L505.91,166.63L506.15,189.93L506.39,173.37L506.63,188.71L506.87,187.48L507.11,185.03L507.35,191.77L507.59,97.936L507.83,101L508.07,134.12L508.31,172.15L508.55,165.4L508.79,112.04L509.03,96.096L509.27,88.123L509.51,117.56L509.75,139.64L509.99,83.829L510.23,86.283L510.47,131.06L510.71,153.75L510.95,129.83L511.19,89.349L511.43,90.576L511.67,161.11L511.91,158.04L512.15,139.03L512.4,80.763L512.64,100.39L512.88,153.75L513.12,153.75L513.36,123.08L513.6,83.216L513.84,78.309L514.08,82.603L514.32,128.6L514.56,160.49L514.8,158.04L515.04,102.84L515.28,61.75L515.52,91.189L515.76,153.13L516,169.69L516.24,145.16L516.48,123.08L516.72,162.95L516.96,142.71L517.2,115.11L517.44,150.07L517.68,127.99L517.92,178.28L518.16,170.31L518.4,166.63L518.64,158.04L518.88,151.29L519.12,150.68L519.36,147.61L519.6,149.45L519.84,180.73L520.08,178.28L520.33,179.51L520.57,164.79L520.81,143.93L521.05,154.36L521.29,172.76L521.53,187.48L521.77,172.76L522.01,179.51L522.25,175.21L522.49,152.52L522.73,177.05L522.97,141.48L523.21,106.52L523.45,123.7L523.69,145.77L523.93,164.79L524.17,169.69L524.41,166.01L524.65,151.91L524.89,120.02L525.13,93.643L525.37,100.39L525.61,139.64L525.85,148.84L526.09,131.67L526.33,116.34L526.57,145.77L526.81,181.96L527.05,177.67L527.29,139.03L527.53,120.02L527.77,140.87L528.02,156.81L528.26,162.33L528.5,185.03L528.74,184.41L528.98,172.76L529.22,140.87L529.46,162.95L529.7,97.936L529.94,159.88L530.18,134.12L530.42,107.14L530.66,143.32L530.9,166.01L531.14,189.32L531.38,187.48L531.62,178.28L531.86,172.76L532.1,177.05L532.34,156.2L532.58,115.72L532.82,93.029L533.06,173.37L533.3,193L533.54,183.8L533.78,178.89L534.02,163.56L534.26,164.17L534.5,170.92L534.74,161.72L534.98,130.44L535.22,125.54L535.46,113.27L535.7,178.28L535.95,194.84L536.19,182.57L536.43,162.33L536.67,123.08L536.91,99.162L537.15,91.803L537.39,83.829L537.63,111.43L537.87,147L538.11,114.5L538.35,119.4L538.59,153.75L538.83,171.53L539.07,181.35L539.31,131.67L539.55,115.11L539.79,118.79L540.03,91.189L540.27,101L540.51,127.99L540.75,162.95L540.99,181.35L541.23,191.16L541.47,181.96L541.71,138.42L541.95,126.15L542.19,125.54L542.43,162.33L542.67,173.99L542.91,191.16L543.15,179.51L543.39,115.72L543.63,112.04L543.88,89.349L544.12,86.896L544.36,87.509L544.6,86.283L544.84,173.37L545.08,193.61L545.32,197.91L545.56,191.77L545.8,181.35L546.04,183.8L546.28,177.05L546.52,181.35L546.76,189.93L547,188.71L547.24,188.71L547.48,187.48L547.72,188.09L547.96,188.71L548.2,177.67L548.44,186.87L548.68,191.16L548.92,189.32L549.16,196.68L549.4,191.77L549.64,177.67L549.88,184.41L550.12,189.32L550.36,170.92L550.6,188.71L550.84,188.09L551.08,187.48L551.32,187.48L551.57,194.84L551.81,193L552.05,122.47L552.29,195.45L552.53,174.6L552.77,161.72L553.01,190.55L553.25,180.12L553.49,168.47L553.73,159.27L553.97,150.68L554.21,176.44L554.45,183.8L554.69,158.65L554.93,141.48L555.17,135.96L555.41,149.45L555.65,155.59L555.89,176.44L556.13,185.64L556.37,135.96L556.61,123.08L556.85,142.71L557.09,178.28L557.33,153.13L557.57,179.51L557.81,129.22L558.05,149.45L558.29,113.88L558.53,181.96L558.77,191.77L559.01,167.24L559.25,185.03L559.5,166.01L559.74,113.88L559.98,176.44L560.22,183.8L560.46,162.33L560.7,115.72L560.94,95.482L561.18,86.283L561.42,135.35L561.66,186.87L561.9,151.29L562.14,88.736L562.38,89.349L562.62,96.709L562.86,180.73L563.1,181.96L563.34,178.89L563.58,131.06L563.82,146.39L564.06,161.72L564.3,187.48L564.54,132.9L564.78,175.21L565.02,171.53L565.26,166.63L565.5,176.44L565.74,184.41L565.98,184.41L566.22,164.17L566.46,124.92L566.7,108.98L566.94,95.482L567.19,114.5L567.43,185.03L567.67,191.16L567.91,182.57L568.15,161.72L568.39,185.64L568.63,142.09L568.87,197.91L569.11,195.45L569.35,186.25L569.59,177.05L569.83,104.68L570.07,123.08L570.31,160.49L570.55,183.19L570.79,188.71L571.03,169.69L571.27,159.27L571.51,142.71L571.75,123.7L571.99,110.82L572.23,185.64L572.47,163.56L572.71,152.52L572.95,108.36L573.19,92.416L573.43,103.46L573.67,101.62L573.91,173.99L574.15,140.26L574.39,99.162L574.63,88.123L574.87,91.803L575.12,96.096L575.36,93.029L575.6,171.53L575.84,199.75L576.08,169.08L576.32,143.93L576.56,177.05L576.8,148.23L577.04,152.52L577.28,162.95L577.52,180.12L577.76,159.27L578,126.76L578.24,192.39L578.48,107.14L578.72,75.243L578.96,73.403L579.2,77.696L579.44,73.403L579.68,77.696L579.92,77.696L580.16,95.482L580.4,150.07L580.64,167.24L580.88,151.29L581.12,135.35L581.36,89.963L581.6,88.736L581.84,86.896L582.08,84.443L582.32,85.669L582.56,86.896L582.81,85.056L583.05,91.803L583.29,124.31L583.53,127.99L583.77,94.256L584.01,89.349L584.25,88.123L584.49,110.2L584.73,93.643L584.97,88.736L585.21,89.349L585.45,102.23L585.69,85.669L585.93,86.283L586.17,120.63L586.41,139.64L586.65,189.93L586.89,175.83L587.13,164.17L587.37,124.92L587.61,102.84L587.85,91.803L588.09,106.52L588.33,91.189L588.57,90.576L588.81,93.029L589.05,86.283L589.29,89.349L589.53,134.74L589.77,166.01L590.01,142.09L590.25,127.38L590.49,164.17L590.74,104.07L590.98,96.096L591.22,112.04L591.46,112.04L591.7,122.47L591.94,114.5L592.18,91.189L592.42,91.803L592.66,93.029L592.9,96.709L593.14,103.46L593.38,165.4L593.62,123.08L593.86,89.349L594.1,83.216L594.34,134.74L594.58,91.189L594.82,91.189L595.06,91.803L595.3,89.349L595.54,96.096L595.78,91.803L596.02,88.736L596.26,97.322L596.5,91.803L596.74,89.963L596.98,99.776L597.22,129.22L597.46,93.643L597.7,161.72L597.94,187.48L598.18,193.61L598.42,193.61L598.67,174.6L598.91,192.39L599.15,182.57L599.39,194.23L599.63,191.16L599.87,191.77L600.11,188.71L600.35,181.35L600.59,173.37L600.83,165.4L601.07,193.61L601.31,199.13L601.55,142.09L601.79,94.256L602.03,75.856L602.27,76.469L602.51,90.576L602.75,158.04L602.99,123.7L603.23,141.48L603.47,156.81L603.71,177.67L603.95,188.71L604.19,178.28L604.43,171.53L604.67,171.53L604.91,148.84L605.15,140.87L605.39,166.63L605.63,162.33L605.87,185.64L606.11,173.99L606.36,172.15L606.6,177.67L606.84,173.99L607.08,161.72L607.32,170.92L607.56,166.63L607.8,177.05L608.04,167.85L608.28,131.67L608.52,173.99L608.76,163.56L609,177.05L609.24,173.99L609.48,181.96L609.72,185.03L609.96,164.17L610.2,170.92L610.44,179.51L610.68,149.45L610.92,145.16L611.16,177.67L611.4,189.32L611.64,180.12L611.88,194.84L612.12,172.15L612.36,139.64L612.6,185.03L612.84,181.35L613.08,184.41L613.32,188.09L613.56,120.02L613.8,148.84L614.04,173.37L614.29,186.87L614.53,180.12L614.77,164.79L615.01,159.27L615.25,180.73L615.49,180.73L615.73,187.48L615.97,181.35L616.21,192.39L616.45,149.45L616.69,187.48L616.93,195.45L617.17,177.05L617.41,155.59L617.65,197.29L617.89,188.09L618.13,176.44L618.37,181.35L618.61,170.92L618.85,189.32L619.09,193L619.33,182.57L619.57,205.88L619.81,187.48L620.05,166.01L620.29,186.25L620.53,162.33L620.77,176.44L621.01,179.51L621.25,179.51L621.49,183.8L621.73,165.4L621.98,196.07L622.22,196.07L622.46,146.39L622.7,186.87L622.94,162.95L623.18,180.12L623.42,174.6L623.66,145.16L623.9,188.71L624.14,194.84L624.38,210.79L624.62,202.81L624.86,206.49L625.1,193L625.34,193L625.58,165.4L625.82,140.87L626.06,174.6L626.3,194.84L626.54,207.72L626.78,205.27L627.02,203.43L627.26,197.91L627.5,202.81L627.74,209.56L627.98,200.36L628.22,192.39L628.46,172.76L628.7,194.84L628.94,187.48L629.18,190.55L629.42,193.61L629.66,202.81L629.91,207.11L630.15,215.69L630.39,202.2L630.63,206.49L630.87,204.65L631.11,193L631.35,193.61L631.59,174.6L631.83,197.91L632.07,196.68L632.31,181.96L632.55,199.75L632.79,204.04L633.03,192.39L633.27,199.13L633.51,204.04L633.75,193L633.99,194.84L634.23,83.216L634.47,72.79L634.71,76.469L634.95,75.856L635.19,79.536L635.43,126.76L635.67,102.23L635.91,85.669L636.15,89.349L636.39,89.349L636.63,92.416L636.87,99.776L637.11,104.07L637.35,126.15L637.59,132.28L637.84,106.52L638.08,96.096L638.32,91.803L638.56,94.869L638.8,108.98L639.04,154.97L639.28,197.29L639.52,148.84L639.76,143.32L640,198.52L640.24,147L640.48,118.18L640.72,106.52L640.96,139.03L641.2,186.87L641.44,113.27L641.68,96.096L641.92,97.936L642.16,107.14L642.4,95.482L642.64,94.256L642.88,93.029L643.12,94.256L643.36,95.482L643.6,95.482L643.84,94.256L644.08,178.28L644.32,180.73L644.56,126.76L644.8,107.75L645.04,95.482L645.28,97.936L645.53,104.68L645.77,164.79L646.01,208.33L646.25,200.97L646.49,122.47L646.73,128.6L646.97,173.99L647.21,116.34L647.45,99.776L647.69,89.963L647.93,104.07L648.17,106.52L648.41,79.536L648.65,75.243L648.89,68.496L649.13,75.856L649.37,77.083L649.61,75.856L649.85,74.016L650.09,75.856L650.33,77.083L650.57,76.469L650.81,77.083L651.05,75.856L651.29,80.149L651.53,75.243L651.77,78.923L652.01,80.763L652.25,82.603L652.49,81.376L652.73,80.149L652.97,83.216L653.21,77.696L653.46,104.68L653.7,149.45L653.94,169.08L654.18,173.37L654.42,178.28L654.66,176.44L654.9,175.83L655.14,163.56L655.38,153.75L655.62,155.59L655.86,165.4L656.1,174.6L656.34,169.69L656.58,167.24L656.82,177.05L657.06,183.19L657.3,187.48L657.54,167.85L657.78,162.33L658.02,175.21L658.26,158.65L658.5,164.79L658.74,173.99L658.98,173.99L659.22,175.83L659.46,185.64L659.7,165.4L659.94,173.37L660.18,156.2L660.42,102.23L660.66,186.25L660.9,184.41L661.15,174.6L661.39,127.38L661.63,157.43L661.87,153.13L662.11,178.28L662.35,186.87L662.59,169.69L662.83,160.49L663.07,194.23L663.31,193.61L663.55,204.65L663.79,174.6L664.03,153.13L664.27,178.89L664.51,183.8L664.75,185.64L664.99,187.48L665.23,159.88L665.47,180.73L665.71,173.99L665.95,194.84L666.19,200.97L666.43,192.39L666.67,180.12L666.91,146.39L667.15,176.44L667.39,180.73L667.63,185.64L667.87,159.27L668.11,183.19L668.35,184.41L668.59,193L668.83,193.61L669.08,189.32L669.32,194.23L669.56,191.77L669.8,175.21L670.04,121.24L670.28,142.09L670.52,155.59L670.76,192.39L671,183.19L671.24,183.19L671.48,190.55L671.72,186.87L671.96,185.64L672.2,190.55L672.44,200.97L672.68,199.75L672.92,189.32L673.16,142.71L673.4,169.69L673.64,203.43L673.88,187.48L674.12,194.84L674.36,197.91L674.6,189.32L674.84,200.97L675.08,201.59L675.32,196.68L675.56,189.93L675.8,194.84L676.04,183.8L676.28,186.25L676.52,199.75L676.77,194.23L677.01,181.35L677.25,171.53L677.49,139.03L677.73,188.71L677.97,195.45L678.21,201.59L678.45,196.07L678.69,181.35L678.93,191.77L679.17,167.24L679.41,192.39L679.65,193.61L679.89,201.59L680.13,185.64L680.37,210.17L680.61,194.23L680.85,197.91L681.09,195.45L681.33,199.75L681.57,187.48L681.81,186.25L682.05,197.91L682.29,164.17L682.53,189.93L682.77,149.45L683.01,141.48L683.25,178.89L683.49,189.32L683.73,197.29L683.97,199.75L684.21,189.32L684.45,183.8L684.7,177.05L684.94,192.39L685.18,202.81L685.42,165.4L685.66,133.51L685.9,167.24L686.14,161.11L686.38,132.28L686.62,124.31L686.86,104.07L687.1,131.67L687.34,177.67L687.58,201.59L687.82,200.97L688.06,203.43L688.3,196.68L688.54,210.79L688.78,178.28L689.02,178.28L689.26,162.33L689.5,173.99L689.74,166.63L689.98,210.79L690.22,181.35L690.46,193L690.7,162.95L690.94,194.23L691.18,197.91L691.42,202.2L691.66,219.37L691.9,221.21L692.14,210.17L692.38,211.4L692.63,210.79L692.87,210.17L693.11,179.51L693.35,215.08L693.59,208.95L693.83,164.17L694.07,154.97L694.31,127.38L694.55,186.25L694.79,175.83L695.03,169.69L695.27,208.33L695.51,196.07L695.75,197.91L695.99,154.36L696.23,162.95L696.47,207.11L696.71,171.53L696.95,198.52L697.19,216.31L697.43,213.85L697.67,177.05L697.91,207.72L698.15,191.77L698.39,219.37L698.63,195.45L698.87,190.55L699.11,175.83L699.35,159.27L699.59,123.7L699.83,137.8L700.07,154.36L700.32,187.48L700.56,218.76L700.8,187.48L701.04,138.42L701.28,97.936L701.52,119.4L701.76,223.05L702,216.92L702.24,218.15L702.48,209.56L702.72,222.44L702.96,168.47L703.2,225.51L703.44,201.59L703.68,219.99L703.92,147L704.16,78.923L704.4,85.056L704.64,88.123L704.88,141.48L705.12,170.92L705.36,150.68L705.6,106.52L705.84,103.46L706.08,175.21L706.32,185.03L706.56,178.28L706.8,183.19L707.04,191.16L707.28,161.11L707.52,169.69L707.76,180.73L708,164.17L708.25,175.83L708.49,187.48L708.73,183.8L708.97,178.28L709.21,183.19L709.45,177.67L709.69,182.57L709.93,161.72L710.17,188.71L710.41,191.16L710.65,196.07L710.89,139.03L711.13,134.74L711.37,186.25L711.61,186.25L711.85,175.83L712.09,183.19L712.33,183.8L712.57,192.39L712.81,167.24L713.05,186.87L713.29,188.71L713.53,181.35L713.77,184.41L714.01,188.09L714.25,183.8L714.49,191.16L714.73,190.55L714.97,177.05L715.21,186.25L715.45,163.56L715.69,195.45L715.94,193.61L716.18,193L716.42,192.39L716.66,189.32L716.9,193L717.14,198.52L717.38,188.71L717.62,193.61L717.86,185.03L718.1,142.71L718.34,166.01L718.58,153.13L718.82,133.51L719.06,178.89L719.3,180.12L719.54,175.21L719.78,166.63L720.02,140.87L720.26,139.03L720.5,178.89L720.74,181.35L720.98,139.64L721.22,134.74L721.46,165.4L721.7,180.12L721.94,189.93L722.18,186.25L722.42,180.73L722.66,175.83L722.9,157.43L723.14,148.84L723.38,175.21L723.62,191.77L723.87,193L724.11,138.42L724.35,147L724.59,169.08L724.83,186.25L725.07,177.67L725.31,194.23L725.55,169.69L725.79,137.19L726.03,99.776L726.27,137.19L726.51,181.35L726.75,193L726.99,185.03L727.23,171.53L727.47,113.27L727.71,120.02L727.95,110.2L728.19,154.97L728.43,183.19L728.67,189.32L728.91,185.03L729.15,153.75L729.39,162.33L729.63,174.6L729.87,185.64L730.11,193L730.35,181.96L730.59,159.27L730.83,110.2L731.07,159.88L731.31,196.07L731.55,194.23L731.8,197.29L732.04,193.61L732.28,177.05L732.52,188.09L732.76,190.55L733,197.91L733.24,199.13L733.48,181.35L733.72,199.13L733.96,191.16L734.2,174.6L734.44,181.96L734.68,134.12L734.92,201.59L735.16,200.36L735.4,198.52L735.64,169.69L735.88,156.2L736.12,165.4L736.36,194.84L736.6,187.48L736.84,186.87L737.08,194.23L737.32,195.45L737.56,188.09L737.8,188.09L738.04,192.39L738.28,161.72L738.52,185.03L738.76,197.91L739,184.41L739.24,204.04L739.49,197.91L739.73,201.59L739.97,193.61L740.21,199.13L740.45,191.16L740.69,194.23L740.93,171.53L741.17,195.45L741.41,197.91L741.65,205.88L741.89,193.61L742.13,193.61L742.37,188.09L742.61,204.65L742.85,198.52L743.09,194.84L743.33,192.39L743.57,93.643L743.81,179.51L744.05,181.35L744.29,191.77L744.53,199.75L744.77,197.91L745.01,201.59L745.25,199.75L745.49,208.33L745.73,205.88L745.97,202.81L746.21,198.52L746.45,208.95L746.69,161.72L746.93,200.36L747.17,209.56L747.42,193.61L747.66,204.65L747.9,197.91L748.14,211.4L748.38,210.79L748.62,211.4L748.86,208.95L749.1,199.75L749.34,192.39L749.58,186.25L749.82,193L750.06,208.95L750.3,189.93L750.54,194.84L750.78,193L751.02,184.41L751.26,194.23L751.5,191.77L751.74,202.2L751.98,196.07L752.22,203.43L752.46,205.27L752.7,168.47L752.94,186.87L753.18,189.32L753.42,194.84L753.66,186.25L753.9,192.39L754.14,205.27L754.38,217.53L754.62,193L754.86,199.13L755.11,204.04L755.35,199.13L755.59,206.49L755.83,188.09L756.07,191.16L756.31,207.11L756.55,203.43L756.79,199.75L757.03,156.2L757.27,204.04L757.51,204.65L757.75,142.71L757.99,78.923L758.23,77.696L758.47,75.243L758.71,74.016L758.95,71.563L759.19,78.309L759.43,77.083L759.67,76.469L759.91,108.36L760.15,83.216L760.39,75.243L760.63,78.309L760.87,80.763L761.11,80.149L761.35,74.63L761.59,72.79L761.83,75.243L762.07,78.309L762.31,82.603L762.55,83.829L762.79,85.669L763.04,78.309L763.28,83.829L763.52,79.536L763.76,83.829L764,82.603L764.24,108.36L764.48,83.216L764.72,82.603L764.96,83.216L765.2,85.669L765.44,85.669L765.68,87.509L765.92,83.216L766.16,80.149L766.4,74.63L766.64,85.669L766.88,88.123L767.12,84.443L767.36,84.443L767.6,83.829L767.84,85.056L768.08,84.443L768.32,84.443L768.56,107.75L768.8,83.216L769.04,85.669L769.28,85.056L769.52,81.376L769.76,85.056L770,83.216L770.24,83.829L770.48,92.416L770.73,109.59L770.97,129.83L771.21,156.2L771.45,97.322L771.69,86.896L771.93,85.669L772.17,83.216L772.41,81.376L772.65,80.763L772.89,107.14L773.13,106.52L773.37,82.603L773.61,85.669L773.85,88.123L774.09,88.123L774.33,83.216L774.57,83.829L774.81,80.763L775.05,84.443L775.29,85.056L775.53,82.603L775.77,82.603L776.01,88.736L776.25,78.923L776.49,85.669L776.73,83.216L776.97,81.989L777.21,81.376L777.45,80.763L777.69,113.88L777.93,88.736L778.17,85.669L778.41,85.056L778.66,83.829L778.9,102.23L779.14,109.59L779.38,87.509L779.62,149.45L779.86,158.04L780.1,179.51L780.34,177.05L780.58,183.8L780.82,185.03L781.06,190.55L781.3,185.03L781.54,176.44L781.78,177.05L782.02,142.09L782.26,185.64L782.5,180.73L782.74,193L782.98,189.32L783.22,187.48L783.46,169.69L783.7,184.41L783.94,185.64L784.18,188.09L784.42,185.03L784.66,182.57L784.9,154.36L785.14,191.16L785.38,180.73L785.62,186.87L785.86,193L786.1,187.48L786.34,198.52L786.59,186.25L786.83,167.24L787.07,97.936L787.31,201.59L787.55,188.09L787.79,183.19L788.03,161.11L788.27,191.77L788.51,200.36L788.75,190.55L788.99,193.61L789.23,191.77L789.47,197.91L789.71,188.71L789.95,193L790.19,182.57L790.43,186.87L790.67,188.09L790.91,148.84L791.15,141.48L791.39,81.376L791.63,169.08L791.87,185.03L792.11,139.03L792.35,177.05L792.59,178.89L792.83,188.71L793.07,166.01L793.31,162.95L793.55,168.47L793.79,132.28L794.03,153.75L794.28,167.85L794.52,193L794.76,150.68L795,172.76L795.24,190.55L795.48,177.67L795.72,186.25L795.96,190.55L796.2,190.55L796.44,198.52L796.68,198.52L796.92,186.87L797.16,187.48L797.4,151.29L797.64,195.45L797.88,185.03L798.12,182.57L798.36,189.32L798.6,145.77L798.84,180.12L799.08,180.12L799.32,178.89L799.56,187.48L799.8,198.52L800.04,200.36L800.28,188.71L800.52,172.76L800.76,150.07L801,189.93L801.24,189.93L801.48,191.16L801.72,190.55L801.96,192.39L802.21,151.91L802.45,102.84L802.69,150.68L802.93,196.68L803.17,203.43L803.41,193L803.65,197.91L803.89,203.43L804.13,158.65L804.37,140.87L804.61,205.27L804.85,200.36L805.09,202.2L805.33,194.23L805.57,199.13L805.81,204.04L806.05,204.65L806.29,204.65L806.53,147L806.77,196.07L807.01,199.75L807.25,202.2L807.49,199.75L807.73,197.29L807.97,153.13L808.21,173.37L808.45,192.39L808.69,203.43L808.93,199.13L809.17,186.87L809.41,191.16L809.65,195.45L809.9,192.39L810.14,202.81L810.38,195.45L810.62,209.56L810.86,215.08L811.1,158.04L811.34,207.72L811.58,203.43L811.82,196.68L812.06,203.43L812.3,178.89L812.54,211.4L812.78,213.85L813.02,169.08L813.26,141.48L813.5,108.36L813.74,74.63L813.98,74.016L814.22,77.083L814.46,75.856L814.7,73.403L814.94,81.376L815.18,86.896L815.42,91.189L815.66,86.896L815.9,83.216L816.14,88.736L816.38,87.509L816.62,89.349L816.86,90.576L817.1,91.803L817.34,81.989L817.58,164.79L817.83,143.32L818.07,129.22L818.31,96.096L818.55,94.869L818.79,91.189L819.03,90.576L819.27,86.283L819.51,86.283L819.75,89.349L819.99,93.029L820.23,94.256L820.47,86.283L820.71,85.669L820.95,86.896L821.19,89.963L821.43,91.189L821.67,93.029L821.91,89.349L822.15,103.46L822.39,92.416L822.63,80.763L822.87,88.123L823.11,124.31L823.35,101.62L823.59,80.763L823.83,78.309L824.07,76.469L824.31,79.536L824.55,97.936L824.79,119.4L825.03,153.75L825.27,162.33L825.51,170.31L825.76,123.7L826,85.669L826.24,125.54L826.48,172.76L826.72,166.63L826.96,132.28L827.2,123.08L827.44,164.17L827.68,134.12L827.92,131.06L828.16,158.65L828.4,132.28L828.64,159.88L828.88,158.04L829.12,169.69L829.36,146.39L829.6,147.61L829.84,167.24L830.08,173.99L830.32,179.51L830.56,181.35L830.8,178.28L831.04,138.42L831.28,134.74L831.52,105.3L831.76,147.61L832,186.25L832.24,185.03L832.48,179.51L832.72,186.25L832.96,189.93L833.2,187.48L833.45,183.19L833.69,181.35L833.93,175.83L834.17,176.44L834.41,161.11L834.65,119.4L834.89,151.29L835.13,158.65L835.37,174.6L835.61,188.09L835.85,183.19L836.09,185.03L836.33,186.87L836.57,180.12L836.81,178.89L837.05,185.03L837.29,170.92L837.53,147L837.77,169.08L838.01,136.58L838.25,169.08L838.49,185.64L838.73,181.35L838.97,186.87L839.21,176.44L839.45,196.07L839.69,153.13L839.93,179.51L840.17,179.51L840.41,167.85L840.65,152.52L840.89,154.97L841.13,182.57L841.38,143.93L841.62,140.87L841.86,182.57L842.1,182.57L842.34,186.25L842.58,191.77L842.82,191.77L843.06,192.39L843.3,165.4L843.54,177.05L843.78,166.01L844.02,185.64L844.26,167.85L844.5,159.27L844.74,156.81L844.98,149.45L845.22,119.4L845.46,131.06L845.7,176.44L845.94,185.03L846.18,173.37L846.42,188.71L846.66,181.96L846.9,197.29L847.14,189.32L847.38,202.2L847.62,200.36L847.86,192.39L848.1,159.27L848.34,183.8L848.58,197.91L848.82,180.12L849.07,108.98L849.31,176.44L849.55,195.45L849.79,190.55L850.03,189.32L850.27,192.39L850.51,205.27L850.75,189.93L850.99,195.45L851.23,191.77L851.47,185.64L851.71,194.84L851.95,156.2L852.19,186.25L852.43,197.29L852.67,172.76L852.91,183.19L853.15,127.38L853.39,105.3L853.63,134.12L853.87,163.56L854.11,136.58L854.35,125.54L854.59,167.24L854.83,176.44L855.07,192.39L855.31,190.55L855.55,185.03L855.79,193.61L856.03,155.59L856.27,191.16L856.51,188.09L856.75,180.12L857,170.92L857.24,178.89L857.48,150.68L857.72,142.09L857.96,171.53L858.2,190.55L858.44,199.13L858.68,182.57L858.92,173.37L859.16,200.36L859.4,200.36L859.64,201.59L859.88,202.81L860.12,212.01L860.36,161.11L860.6,201.59L860.84,193L861.08,204.65L861.32,200.97L861.56,214.47L861.8,213.24L862.04,191.16L862.28,125.54L862.52,173.99L862.76,133.51L863,183.8L863.24,185.03L863.48,183.19L863.72,195.45L863.96,197.91L864.2,199.13L864.44,185.03L864.69,198.52L864.93,202.2L865.17,196.68L865.41,139.03L865.65,185.64L865.89,189.32L866.13,193.61L866.37,198.52L866.61,193L866.85,191.16L867.09,199.13L867.33,199.13L867.57,200.36L867.81,203.43L868.05,192.39L868.29,199.75L868.53,150.68L868.77,197.29L869.01,176.44L869.25,190.55L869.49,185.64L869.73,198.52L869.97,204.65L870.21,70.336L870.45,196.68L870.69,202.2L870.93,180.73L871.17,175.83L871.41,187.48L871.65,188.71L871.89,181.96L872.13,158.04L872.37,180.73L872.62,178.89L872.86,181.35L873.1,163.56L873.34,169.08L873.58,180.12L873.82,177.67L874.06,173.37L874.3,186.87L874.54,188.71L874.78,172.76L875.02,198.52L875.26,186.87L875.5,139.03L875.74,190.55L875.98,195.45L876.22,188.09L876.46,199.13L876.7,188.71L876.94,180.73L877.18,160.49L877.42,178.89L877.66,183.8L877.9,197.91L878.14,207.11L878.38,198.52L878.62,171.53L878.86,185.03L879.1,164.17L879.34,197.29L879.58,208.33L879.82,202.2L880.06,194.84L880.3,129.22L880.55,177.05L880.79,203.43L881.03,178.89L881.27,188.71L881.51,180.73L881.75,164.17L881.99,185.03L882.23,176.44L882.47,196.07L882.71,169.08L882.95,193.61L883.19,198.52L883.43,193L883.67,181.96L883.91,180.12L884.15,167.24L884.39,158.65L884.63,196.07L884.87,200.36L885.11,196.68L885.35,198.52L885.59,185.64L885.83,178.89L886.07,199.75L886.31,161.72L886.55,186.87L886.79,199.75L887.03,205.88L887.27,193.61L887.51,189.32L887.75,169.08L887.99,199.13L888.24,193.61L888.48,197.91L888.72,200.36L888.96,205.27L889.2,137.8L889.44,126.76L889.68,107.14L889.92,75.243L890.16,77.083L890.4,75.856L890.64,74.016L890.88,76.469L891.12,75.856L891.36,93.029L891.6,84.443L891.84,86.283L892.08,87.509L892.32,78.309L892.56,85.669L892.8,86.283L893.04,83.216L893.28,81.989L893.52,86.283L893.76,85.056L894,88.123L894.24,88.736L894.48,86.283L894.72,85.056L894.96,86.896L895.2,90.576L895.44,100.39L895.68,91.803L895.92,108.36L896.17,97.322L896.41,134.74L896.65,101.62L896.89,89.349L897.13,91.803L897.37,96.709L897.61,91.803L897.85,89.349L898.09,91.189L898.33,91.803L898.57,95.482L898.81,92.416L899.05,102.84L899.29,100.39L899.53,85.669L899.77,97.322L900.01,89.963L900.25,102.23L900.49,110.2L900.73,91.189L900.97,75.243L901.21,86.896L901.45,104.07L901.69,110.82L901.93,105.91L902.17,115.72L902.41,91.189L902.65,108.36L902.89,181.35L903.13,166.63L903.37,179.51L903.61,181.96L903.86,186.25L904.1,185.03L904.34,179.51L904.58,183.8L904.82,184.41L905.06,183.8L905.3,172.76L905.54,188.09L905.78,183.8L906.02,170.92L906.26,166.63L906.5,167.85L906.74,185.03L906.98,194.84L907.22,186.25L907.46,193.61L907.7,186.25L907.94,187.48L908.18,189.93L908.42,193L908.66,173.99L908.9,78.309L909.14,186.87L909.38,191.16L909.62,193.61L909.86,162.33L910.1,198.52L910.34,194.84L910.58,195.45L910.82,199.75L911.06,194.84L911.3,199.75L911.54,189.32L911.79,185.64L912.03,202.2L912.27,199.13L912.51,204.65L912.75,195.45L912.99,183.8L913.23,167.24L913.47,199.75L913.71,196.68L913.95,206.49L914.19,198.52L914.43,191.77L914.67,198.52L914.91,210.79L915.15,200.97L915.39,199.13L915.63,204.65L915.87,191.77L916.11,200.36L916.35,199.75L916.59,199.13L916.83,147.61L917.07,200.36L917.31,194.23L917.55,197.29L917.79,198.52L918.03,193L918.27,206.49L918.51,205.88L918.75,204.65L918.99,195.45L919.23,202.81L919.47,204.04L919.72,191.77L919.96,207.11L920.2,206.49L920.44,210.17L920.68,167.24L920.92,210.17L921.16,206.49L921.4,204.65L921.64,193L921.88,199.75L922.12,206.49L922.36,189.32L922.6,187.48L922.84,196.07L923.08,193.61L923.32,190.55L923.56,147.61L923.8,93.643L924.04,77.696L924.28,94.256L924.52,90.576L924.76,135.35L925,183.19L925.24,167.24L925.48,109.59L925.72,123.7L925.96,147L926.2,172.76L926.44,172.15L926.68,181.96L926.92,147L927.16,170.31L927.41,178.89L927.65,188.09L927.89,188.71L928.13,202.81L928.37,180.12L928.61,97.936L928.85,105.3L929.09,103.46L929.33,139.64L929.57,135.35L929.81,158.65L930.05,177.05L930.29,117.56L930.53,88.736L930.77,112.66L931.01,156.2L931.25,208.95L931.49,203.43L931.73,164.79L931.97,153.13L932.21,126.76L932.45,97.936L932.69,90.576L932.93,143.93L933.17,186.25L933.41,162.33L933.65,191.77L933.89,168.47L934.13,175.21L934.37,178.89L934.61,185.64L934.85,190.55L935.09,193.61L935.34,194.23L935.58,178.28L935.82,109.59L936.06,91.803L936.3,93.029L936.54,104.68L936.78,140.87L937.02,191.16L937.26,196.07L937.5,188.71L937.74,151.91L937.98,169.69L938.22,171.53L938.46,209.56L938.7,108.98L938.94,183.19L939.18,168.47L939.42,178.28L939.66,135.96L939.9,120.63L940.14,127.99L940.38,154.36L940.62,148.23L940.86,210.79L941.1,157.43L941.34,120.02L941.58,74.016L941.82,72.79L942.06,78.309L942.3,75.243L942.54,74.016L942.78,75.243L943.03,78.309L943.27,76.469L943.51,85.669L943.75,84.443L943.99,77.083L944.23,80.149L944.47,85.056L944.71,85.669L944.95,85.669L945.19,91.189L945.43,116.95L945.67,83.216L945.91,82.603L946.15,81.989L946.39,83.216L946.63,84.443L946.87,85.056L947.11,81.376L947.35,85.669L947.59,136.58L947.83,189.93L948.07,183.19L948.31,167.85L948.55,159.27L948.79,166.63L949.03,185.64L949.27,181.35L949.51,183.19L949.75,183.19L949.99,180.73L950.23,183.19L950.47,172.15L950.71,185.64L950.96,145.16L951.2,181.96L951.44,180.73L951.68,188.71L951.92,180.12L952.16,185.64L952.4,181.35L952.64,182.57L952.88,205.27L953.12,162.95L953.36,168.47L953.6,187.48L953.84,178.89L954.08,177.67L954.32,193L954.56,108.36L954.8,108.98L955.04,189.32L955.28,191.77L955.52,183.19L955.76,190.55L956,180.12L956.24,187.48L956.48,181.35L956.72,195.45L956.96,193L957.2,204.04L957.44,193L957.68,194.84L957.92,189.93L958.16,181.96L958.4,153.75L958.65,137.19L958.89,180.12L959.13,196.68L959.37,189.32L959.61,194.23L959.85,192.39L960.09,191.77L960.33,198.52L960.57,203.43L960.81,194.23L961.05,201.59L961.29,210.17L961.53,203.43L961.77,197.29L962.01,191.77L962.25,158.04L962.49,208.33L962.73,203.43L962.97,193.61L963.21,197.91L963.45,204.04L963.69,181.35L963.93,184.41L964.17,191.16L964.41,193.61L964.65,194.84L964.89,172.15L965.13,177.67L965.37,147.61L965.61,167.85L965.85,162.95L966.09,123.7L966.33,159.88L966.58,173.37L966.82,143.32L967.06,89.349L967.3,78.923L967.54,79.536L967.78,83.829L968.02,98.549L968.26,101.62L968.5,120.63L968.74,113.27L968.98,171.53L969.22,177.05L969.46,173.37L969.7,184.41L969.94,194.84L970.18,173.99L970.42,131.06L970.66,93.029L970.9,167.85L971.14,179.51L971.38,182.57L971.62,172.76L971.86,183.8L972.1,151.91L972.34,150.68L972.58,192.39L972.82,185.64L973.06,181.35L973.3,166.01L973.54,128.6L973.78,127.99L974.02,153.75L974.26,116.95L974.51,200.97L974.75,178.89L974.99,109.59L975.23,70.95L975.47,105.91L975.71,76.469L975.95,74.63L976.19,55.617L976.43,77.696L976.67,76.469L976.91,77.083L977.15,79.536L977.39,78.923L977.63,75.856L977.87,73.403L978.11,77.696L978.35,80.763L978.59,77.696L978.83,81.376L979.07,80.149L979.31,78.923L979.55,83.216L979.79,89.963L980.03,123.7L980.27,91.803L980.51,81.376L980.75,100.39L980.99,168.47L981.23,158.04L981.47,167.85L981.71,185.64L981.95,156.2L982.2,150.68L982.44,178.89L982.68,182.57L982.92,180.12L983.16,155.59L983.4,151.91L983.64,162.33L983.88,172.76L984.12,173.99L984.36,183.8L984.6,173.99L984.84,167.24L985.08,177.67L985.32,178.89L985.56,160.49L985.8,151.29L986.04,181.35L986.28,180.12L986.52,175.21L986.76,174.6L987,180.12L987.24,103.46L987.48,130.44L987.72,186.87L987.96,191.16L988.2,189.93L988.44,179.51L988.68,189.93L988.92,175.21L989.16,184.41L989.4,180.12L989.64,162.95L989.88,146.39L990.13,177.05L990.37,155.59L990.61,139.03L990.85,177.67L991.09,179.51L991.33,188.71L991.57,185.03L991.81,191.77L992.05,190.55L992.29,202.81L992.53,196.07L992.77,189.93L993.01,175.21L993.25,186.87L993.49,188.09L993.73,158.65L993.97,182.57L994.21,188.71L994.45,190.55L994.69,185.64L994.93,180.73L995.17,158.65L995.41,128.6L995.65,193L995.89,197.29L996.13,196.07L996.37,193L996.61,189.93L996.85,185.03L997.09,185.03L997.33,200.97L997.57,167.24L997.82,196.68L998.06,196.68L998.3,192.39L998.54,181.96L998.78,191.16L999.02,197.91L999.26,193L999.5,200.97L999.74,193.61L999.98,192.39L1000.2,186.87L1000.5,169.08L1000.7,134.74L1000.9,192.39L1001.2,206.49L1001.4,204.65L1001.7,194.84L1001.9,160.49L1002.1,189.93L1002.4,202.2L1002.6,186.25L1002.9,183.19L1003.1,198.52L1003.3,202.81L1003.6,206.49L1003.8,200.97L1004.1,202.81L1004.3,201.59L1004.5,206.49L1004.8,186.87L1005,194.23L1005.3,199.75L1005.5,210.17L1005.7,199.75L1006,210.79L1006.2,199.13L1006.5,151.29L1006.7,164.17L1006.9,211.4L1007.2,193.61L1007.4,190.55L1007.7,205.88L1007.9,207.72L1008.1,206.49L1008.4,210.79L1008.6,209.56L1008.9,210.79L1009.1,204.04L1009.3,205.27L1009.6,206.49L1009.8,200.97L1010.1,208.33L1010.3,225.51L1010.6,219.99L1010.8,221.83L1011,216.31L1011.3,191.77L1011.5,219.37L1011.8,208.95L1012,202.2L1012.2,194.23L1012.5,191.77L1012.7,205.27L1013,212.63L1013.2,212.63L1013.4,156.81L1013.7,212.01L1013.9,223.67L1014.2,223.67L1014.4,227.35L1014.6,220.6L1014.9,223.67L1015.1,217.53L1015.4,223.67L1015.6,216.92L1015.8,185.64L1016.1,91.803L1016.3,99.776L1016.6,102.84L1016.8,138.42L1017,96.096L1017.3,107.75L1017.5,85.669L1017.8,134.74L1018,203.43L1018.2,191.16L1018.5,177.67L1018.7,120.63L1019,126.76L1019.2,147.61L1019.4,151.91L1019.7,186.25L1019.9,205.88L1020.2,182.57L1020.4,216.92L1020.6,198.52L1020.9,186.87L1021.1,170.92L1021.4,121.24L1021.6,97.936L1021.8,108.98L1022.1,169.69L1022.3,161.72L1022.6,180.12L1022.8,207.72L1023,207.11L1023.3,200.97L1023.5,195.45L1023.8,183.8L1024,150.07L1024.2,182.57L1024.5,167.24L1024.7,202.2L1025,193L1025.2,186.25L1025.5,197.91L1025.7,191.77L1025.9,180.73L1026.2,191.77L1026.4,193L1026.7,203.43L1026.9,196.07L1027.1,192.39L1027.4,188.71L1027.6,193.61L1027.9,189.32L1028.1,193.61L1028.3,153.75L1028.6,191.16L1028.8,172.15L1029.1,193L1029.3,178.28L1029.5,65.43L1029.8,156.81L1030,175.83L1030.3,169.69L1030.5,144.55L1030.7,181.96L1031,177.67L1031.2,185.03L1031.5,177.67L1031.7,178.89L1031.9,134.12L1032.2,156.2L1032.4,131.06L1032.7,127.99L1032.9,180.73L1033.1,177.67L1033.4,175.83L1033.6,175.21L1033.9,181.96L1034.1,181.96L1034.3,185.64L1034.6,181.96L1034.8,148.84L1035.1,150.07L1035.3,192.39L1035.5,173.99L1035.8,164.79L1036,148.84L1036.3,173.99L1036.5,137.8L1036.7,180.12L1037,185.03L1037.2,172.15L1037.5,149.45L1037.7,178.28L1037.9,187.48L1038.2,158.65L1038.4,177.67L1038.7,178.89L1038.9,168.47L1039.1,191.16L1039.4,193L1039.6,181.96L1039.9,177.05L1040.1,188.71L1040.3,187.48L1040.6,191.16L1040.8,154.36L1041.1,186.87L1041.3,174.6L1041.6,147.61L1041.8,191.16L1042,155.59L1042.3,175.21L1042.5,154.97L1042.8,181.35L1043,170.31L1043.2,135.96L1043.5,186.25L1043.7,192.39L1044,178.89L1044.2,191.16L1044.4,198.52L1044.7,184.41L1044.9,186.25L1045.2,185.03L1045.4,156.81L1045.6,199.13L1045.9,197.91L1046.1,197.29L1046.4,153.13L1046.6,96.096L1046.8,131.06L1047.1,189.32L1047.3,129.83L1047.6,81.989L1047.8,78.923L1048,75.856L1048.3,74.016L1048.5,76.469L1048.8,76.469L1049,74.63L1049.2,62.976L1049.5,76.469L1049.7,77.696L1050,77.696L1050.2,80.763L1050.4,84.443L1050.7,85.669L1050.9,127.99L1051.2,151.91L1051.4,97.322L1051.6,78.923L1051.9,79.536L1052.1,79.536L1052.4,81.376L1052.6,72.79L1052.8,84.443L1053.1,79.536L1053.3,80.763L1053.6,81.376L1053.8,81.989L1054,80.149L1054.3,81.989L1054.5,81.376L1054.8,89.963L1055,85.669L1055.2,85.669L1055.5,83.829L1055.7,83.216L1056,80.149L1056.2,83.216L1056.4,150.68L1056.7,135.35L1056.9,88.736L1057.2,83.829L1057.4,72.176L1057.7,154.97L1057.9,175.21L1058.1,173.99L1058.4,156.2L1058.6,183.8L1058.9,181.96L1059.1,180.73L1059.3,189.93L1059.6,173.37L1059.8,179.51L1060.1,188.71L1060.3,183.8L1060.5,172.76L1060.8,159.27L1061,175.83L1061.3,179.51L1061.5,186.87L1061.7,172.76L1062,180.73L1062.2,138.42L1062.5,173.37L1062.7,135.96L1062.9,194.84L1063.2,183.8L1063.4,47.03L1063.7,179.51L1063.9,180.73L1064.1,188.09L1064.4,184.41L1064.6,192.39L1064.9,188.71L1065.1,188.09L1065.3,190.55L1065.6,190.55L1065.8,192.39L1066.1,188.71L1066.3,177.67L1066.5,148.84L1066.8,198.52L1067,199.13L1067.3,196.68L1067.5,197.29L1067.7,197.29L1068,185.03L1068.2,180.73L1068.5,154.97L1068.7,184.41L1068.9,194.23L1069.2,195.45L1069.4,197.91L1069.7,194.23L1069.9,196.68L1070.1,192.39L1070.4,193.61L1070.6,164.17L1070.9,194.84L1071.1,190.55L1071.3,191.77L1071.6,191.77L1071.8,193.61L1072.1,195.45L1072.3,197.91L1072.6,205.27L1072.8,200.36L1073,196.07L1073.3,197.29L1073.5,206.49L1073.8,209.56L1074,197.91L1074.2,194.23L1074.5,174.6L1074.7,176.44L1075,166.01L1075.2,204.04L1075.4,203.43L1075.7,195.45L1075.9,202.2L1076.2,191.77L1076.4,209.56L1076.6,209.56L1076.9,210.17L1077.1,207.72L1077.4,210.79L1077.6,204.65L1077.8,200.36L1078.1,187.48L1078.3,200.97L1078.6,202.81L1078.8,199.13L1079,200.97L1079.3,200.36L1079.5,181.35L1079.8,164.17L1080,185.03" style="fill:none;stroke:#5A9BD4;stroke-width:1.875;stroke-dasharray:2.5,2.5" />
<path d="M1055,694.3L1080,694.3" style="fill:none;stroke:#F15A60;stroke-width:1.875" />
<text x="1002.5" y="-687.85" transform="scale(1, -1)"
	style="font-family:Helvetica;font-weight:normal;font-style:normal;font-size:12pt">etcd v3</text>
<path d="M1055,680L1080,680" style="fill:none;stroke:#7AC36A;stroke-width:1.875;stroke-dasharray:7.5,2.5" />
<text x="941.6" y="-673.56" transform="scale(1, -1)"
	style="font-family:Helvetica;font-weight:normal;font-style:normal;font-size:12pt">Zookeeper 3.4.8</text>
<path d="M1055,665.71L1080,665.71" style="fill:none;stroke:#5A9BD4;stroke-width:1.875;stroke-dasharray:2.5,2.5" />
<text x="966.62" y="-659.26" transform="scale(1, -1)"
	style="font-family:Helvetica;font-weight:normal;font-style:normal;font-size:12pt">Consul 0.6.4</text>
</g>
</svg>
