<?xml version="1.0"?>
<!-- Generated by SVGo and Plotinum VG -->
<svg width="12in" height="8in"
	xmlns="http://www.w3.org/2000/svg"
	xmlns:xlink="http://www.w3.org/1999/xlink">
<g transform="scale(1, -1) translate(0, -720)">
<path d="M0,0L1080,0L1080,720L0,720Z" style="fill:#FFFFFF" />
<text x="336.98" y="-706.41" transform="scale(1, -1)"
	style="font-family:Helvetica;font-weight:normal;font-style:normal;font-size:12pt">Read 1M keys, 1 client, key 64 bytes, value 1 kb, Throughput</text>
<text x="549.36" y="-4.965" transform="scale(1, -1)"
	style="font-family:Helvetica;font-weight:normal;font-style:normal;font-size:12pt">second</text>
<text x="63.613" y="-19.142" transform="scale(1, -1)"
	style="font-family:Helvetica;font-weight:normal;font-style:normal;font-size:10pt">0</text>
<text x="294.99" y="-19.142" transform="scale(1, -1)"
	style="font-family:Helvetica;font-weight:normal;font-style:normal;font-size:10pt">100</text>
<text x="533.33" y="-19.142" transform="scale(1, -1)"
	style="font-family:Helvetica;font-weight:normal;font-style:normal;font-size:10pt">200</text>
<text x="771.66" y="-19.142" transform="scale(1, -1)"
	style="font-family:Helvetica;font-weight:normal;font-style:normal;font-size:10pt">300</text>
<text x="1010" y="-19.142" transform="scale(1, -1)"
	style="font-family:Helvetica;font-weight:normal;font-style:normal;font-size:10pt">400</text>
<path d="M67.088,30.467L67.088,40.467" style="fill:none;stroke:#000000;stroke-width:0.625" />
<path d="M305.42,30.467L305.42,40.467" style="fill:none;stroke:#000000;stroke-width:0.625" />
<path d="M543.75,30.467L543.75,40.467" style="fill:none;stroke:#000000;stroke-width:0.625" />
<path d="M782.08,30.467L782.08,40.467" style="fill:none;stroke:#000000;stroke-width:0.625" />
<path d="M1020.4,30.467L1020.4,40.467" style="fill:none;stroke:#000000;stroke-width:0.625" />
<path d="M186.25,35.468L186.25,40.467" style="fill:none;stroke:#000000;stroke-width:0.625" />
<path d="M424.59,35.468L424.59,40.467" style="fill:none;stroke:#000000;stroke-width:0.625" />
<path d="M662.92,35.468L662.92,40.467" style="fill:none;stroke:#000000;stroke-width:0.625" />
<path d="M901.25,35.468L901.25,40.467" style="fill:none;stroke:#000000;stroke-width:0.625" />
<path d="M67.088,40.467L1080,40.467" style="fill:none;stroke:#000000;stroke-width:0.625" />
<g transform="rotate(90)">
<text x="335.88" y="13.59" transform="scale(1, -1)"
	style="font-family:Helvetica;font-weight:normal;font-style:normal;font-size:12pt">Throughput</text>
</g>
<text x="18.555" y="-192.28" transform="scale(1, -1)"
	style="font-family:Helvetica;font-weight:normal;font-style:normal;font-size:10pt">1000</text>
<text x="18.555" y="-344.58" transform="scale(1, -1)"
	style="font-family:Helvetica;font-weight:normal;font-style:normal;font-size:10pt">2000</text>
<text x="18.555" y="-496.87" transform="scale(1, -1)"
	style="font-family:Helvetica;font-weight:normal;font-style:normal;font-size:10pt">3000</text>
<text x="18.555" y="-649.17" transform="scale(1, -1)"
	style="font-family:Helvetica;font-weight:normal;font-style:normal;font-size:10pt">4000</text>
<path d="M49.83,197.65L59.83,197.65" style="fill:none;stroke:#000000;stroke-width:0.625" />
<path d="M49.83,349.95L59.83,349.95" style="fill:none;stroke:#000000;stroke-width:0.625" />
<path d="M49.83,502.24L59.83,502.24" style="fill:none;stroke:#000000;stroke-width:0.625" />
<path d="M49.83,654.54L59.83,654.54" style="fill:none;stroke:#000000;stroke-width:0.625" />
<path d="M54.83,121.5L59.83,121.5" style="fill:none;stroke:#000000;stroke-width:0.625" />
<path d="M54.83,273.8L59.83,273.8" style="fill:none;stroke:#000000;stroke-width:0.625" />
<path d="M54.83,426.09L59.83,426.09" style="fill:none;stroke:#000000;stroke-width:0.625" />
<path d="M54.83,578.39L59.83,578.39" style="fill:none;stroke:#000000;stroke-width:0.625" />
<path d="M59.83,47.03L59.83,701.44" style="fill:none;stroke:#000000;stroke-width:0.625" />
<path d="M67.088,346.9L69.471,400.66L71.854,407.21L74.237,414.37L76.621,413.91L79.004,415.89L81.387,416.5L83.771,410.56L86.154,404.47L88.537,396.55L90.921,387.87L93.304,397.46L95.687,402.03L98.071,396.85L100.45,406.9L102.84,407.36L105.22,408.12L107.6,401.57L109.99,392.89L112.37,397.16L114.75,393.05L117.14,401.42L119.52,405.53L121.9,419.39L124.29,410.26L126.67,404.16L129.05,416.5L131.44,414.98L133.82,405.69L136.2,408.43L138.59,400.36L140.97,401.12L143.35,406.6L145.74,405.08L148.12,399.14L150.5,395.64L152.89,407.36L155.27,399.44L157.65,403.4L160.04,382.84L162.42,378.73L164.8,369.29L167.19,361.22L169.57,360.61L171.95,358.17L174.34,373.1L176.72,369.14L179.1,372.49L181.49,381.62L183.87,395.64L186.25,416.65L188.64,418.02L191.02,408.12L193.4,415.43L195.79,413.45L198.17,412.84L200.55,421.83L202.94,424.11L205.32,423.96L207.7,409.8L210.09,421.22L212.47,424.57L214.85,415.74L217.24,419.09L219.62,417.57L222,409.19L224.39,411.93L226.77,418.78L229.15,410.56L231.54,414.52L233.92,403.86L236.3,395.64L238.69,414.82L241.07,414.98L243.45,411.32L245.84,419.24L248.22,394.57L250.6,400.81L252.99,425.64L255.37,421.98L257.75,415.74L260.14,406.45L262.52,395.48L264.9,415.13L267.29,414.98L269.67,407.51L272.05,404.32L274.44,421.53L276.82,419.09L279.2,413.61L281.59,408.28L283.97,402.79L286.35,404.62L288.74,414.37L291.12,417.87L293.5,407.67L295.89,408.73L298.27,400.97L300.65,401.57L303.04,380.86L305.42,369.14L307.8,380.86L310.19,373.25L312.57,365.79L314.95,372.79L317.34,382.84L319.72,383.15L322.1,392.13L324.49,377.36L326.87,408.73L329.25,405.53L331.64,404.93L334.02,403.86L336.4,398.83L338.79,403.4L341.17,404.93L343.55,396.24L345.94,403.25L348.32,405.08L350.7,404.62L353.09,412.84L355.47,411.47L357.85,410.56L360.24,408.43L362.62,413.61L365,425.03L367.39,414.22L369.77,413.3L372.15,424.42L374.54,421.37L376.92,423.66L379.3,429.29L381.69,420.46L384.07,409.95L386.45,390.3L388.84,409.49L391.22,426.25L393.6,412.69L395.99,404.16L398.37,400.05L400.75,414.37L403.14,407.06L405.52,416.19L407.9,407.97L410.29,410.1L412.67,411.63L415.05,417.11L417.44,415.59L419.82,401.42L422.2,412.08L424.59,404.47L426.97,404.77L429.35,413.45L431.74,420.46L434.12,409.49L436.5,398.83L438.89,386.65L441.27,395.33L443.65,392.44L446.04,376.9L448.42,360.15L450.8,370.51L453.19,377.05L455.57,361.06L457.95,373.1L460.34,385.43L462.72,388.78L465.1,387.11L467.49,384.67L469.87,404.16L472.25,409.34L474.64,401.12L477.02,409.34L479.4,413.91L481.79,413.61L484.17,417.72L486.55,420.15L488.94,404.16L491.32,400.81L493.7,410.1L496.09,411.47L498.47,411.47L500.85,414.52L503.24,414.37L505.62,409.8L508,409.34L510.39,388.63L512.77,398.22L515.15,395.79L517.54,408.43L519.92,405.84L522.3,407.36L524.69,400.05L527.07,397.92L529.45,401.88L531.84,401.12L534.22,388.17L536.6,405.23L538.99,403.4L541.37,397.31L543.75,399.75L546.14,410.56L548.52,390.76L550.9,391.83L553.29,404.62L555.67,396.7L558.05,410.86L560.44,425.03L562.82,429.6L565.2,425.18L567.59,417.87L569.97,416.65L572.35,421.22L574.74,418.17L577.12,421.37L579.5,410.56L581.89,388.78L584.27,396.4L586.65,406.14L589.04,384.37L591.42,371.72L593.8,377.97L596.19,371.88L598.57,370.05L600.95,381.47L603.34,384.97L605.72,386.5L608.1,371.12L610.49,371.12L612.87,401.57L615.25,419.39L617.64,418.33L620.02,393.81L622.4,404.47L624.79,420L627.17,416.35L629.55,405.99L631.94,411.02L634.32,411.17L636.7,411.63L639.09,402.49L641.47,411.02L643.85,412.69L646.24,415.89L648.62,419.24L651,406.6L653.39,413.61L655.77,388.17L658.15,399.59L660.54,399.9L662.92,413.15L665.3,404.77L667.69,411.63L670.07,417.41L672.45,415.28L674.83,413.15L677.22,420L679.6,407.82L681.98,408.43L684.37,408.88L686.75,400.81L689.13,411.32L691.52,406.75L693.9,417.57L696.28,413.3L698.67,392.74L701.05,409.04L703.43,397.61L705.82,403.71L708.2,398.68L710.58,402.64L712.97,400.97L715.35,406.75L717.73,406.45L720.12,398.68L722.5,393.66L724.88,404.01L727.27,402.79L729.65,386.04L732.03,385.13L734.42,367.31L736.8,361.52L739.18,366.7L741.57,379.95L743.95,378.58L746.33,380.71L748.72,366.55L751.1,366.09L753.48,378.73L755.87,402.03L758.25,414.98L760.63,417.11L763.02,417.26L765.4,402.49L767.78,400.05L770.17,405.53L772.55,399.44L774.93,405.08L777.32,405.08L779.7,406.6L782.08,404.93L784.47,409.04L786.85,400.51L789.23,405.53L791.62,411.78L794,408.12L796.38,415.74L798.77,409.49L801.15,403.25L803.53,409.19L805.92,417.87L808.3,417.11L810.68,403.4L813.07,402.03L815.45,413.15L817.83,409.04L820.22,417.11L822.6,413.3L824.98,421.68L827.37,412.39L829.75,415.89L832.13,418.48L834.52,403.1L836.9,401.12L839.28,412.54L841.67,392.59L844.05,416.96L846.43,402.79L848.82,394.87L851.2,418.78L853.58,416.65L855.97,420.31L858.35,411.63L860.73,414.52L863.12,409.34L865.5,399.75L867.88,396.24L870.27,395.64L872.65,390.15L875.03,377.66L877.42,358.78L879.8,376.45L882.18,377.51L884.57,359.39L886.95,360.76L889.33,381.17L891.72,381.01L894.1,381.93L896.48,368.68L898.87,397.61L901.25,417.87L903.63,400.51L906.02,405.69L908.4,400.36L910.78,415.43L913.17,416.96L915.55,403.4L917.93,411.47L920.32,406.9L922.7,405.84L925.08,412.24L927.47,395.33L929.85,412.08L932.23,417.87L934.62,415.59L937,411.32L939.38,411.02L941.77,416.19L944.15,410.1L946.53,412.69L948.92,409.49L951.3,401.73L953.68,411.32L956.07,397.16L958.45,411.32L960.83,413.3L963.22,405.38L965.6,406.45L967.98,414.52L970.37,410.71L972.75,390.76L975.13,409.49L977.52,400.66L979.9,406.9L982.28,401.27L984.67,394.87L987.05,402.03L989.43,404.77L991.82,397.61L994.2,419.7L996.58,428.07L998.97,403.71L1001.4,401.12L1003.7,397.92L1006.1,406.9L1008.5,398.83L1010.9,389.54L1013.3,406.75L1015.7,388.93L1018,363.81L1020.4,365.63L1022.8,361.67L1025.2,360.76L1027.6,368.83L1030,360.15L1032.3,366.55L1034.7,380.25L1037.1,378.12L1039.5,378.43L1041.9,398.68L1044.3,402.18L1046.6,404.16L1049,405.23L1051.4,392.89L1053.8,423.05L1056.2,422.44L1058.6,412.24L1060.9,419.85L1063.3,423.81L1065.7,398.68L1068.1,411.78L1070.5,399.59L1072.9,395.18L1075.2,405.69L1077.6,417.57L1080,425.49" style="fill:none;stroke:#F15A60;stroke-width:1.875" />
<path d="M67.088,440.26L69.471,469.19L71.854,465.84L74.237,474.22L76.621,464.63L79.004,476.66L81.387,469.19L83.771,473.31L86.154,461.43L88.537,468.89L90.921,469.96L93.304,461.88L95.687,469.5L98.071,464.93L100.45,449.85L102.84,407.67L105.22,421.98L107.6,423.51L109.99,461.73L112.37,466.76L114.75,469.35L117.14,481.38L119.52,476.81L121.9,464.02L124.29,480.46L126.67,463.56L129.05,466L131.44,474.68L133.82,457.77L136.2,465.84L138.59,452.59L140.97,438.73L143.35,401.27L145.74,404.16L148.12,404.62L150.5,417.72L152.89,412.24L155.27,429.44L157.65,419.09L160.04,413.76L162.42,425.33L164.8,431.42L167.19,467.52L169.57,468.58L171.95,457.16L174.34,471.78L176.72,470.56L179.1,470.26L181.49,467.21L183.87,468.89L186.25,470.72L188.64,477.11L191.02,480.92L193.4,478.33L195.79,461.73L198.17,472.09L200.55,479.85L202.94,481.68L205.32,471.17L207.7,481.53L210.09,452.44L212.47,461.27L214.85,469.35L217.24,469.04L219.62,457.92L222,423.81L224.39,443.61L226.77,477.11L229.15,478.48L231.54,467.52L233.92,475.29L236.3,477.87L238.69,476.5L241.07,451.07L243.45,462.95L245.84,463.71L248.22,462.34L250.6,467.98L252.99,473.76L255.37,467.52L257.75,469.04L260.14,463.1L262.52,445.74L264.9,432.64L267.29,424.42L269.67,473.31L272.05,469.5L274.44,445.13L276.82,472.54L279.2,467.21L281.59,455.94L283.97,440.87L286.35,407.06L288.74,406.3L291.12,410.41L293.5,407.82L295.89,395.48L298.27,406.75L300.65,415.89L303.04,429.6L305.42,433.71L307.8,424.42L310.19,476.05L312.57,468.89L314.95,458.84L317.34,452.44L319.72,464.02L322.1,468.58L324.49,474.07L326.87,467.67L329.25,469.35L331.64,468.43L334.02,473.76L336.4,463.41L338.79,479.55L341.17,461.88L343.55,460.36L345.94,470.56L348.32,469.8L350.7,460.67L353.09,467.37L355.47,473.92L357.85,469.04L360.24,481.99L362.62,476.35L365,478.94L367.39,479.55L369.77,484.88L372.15,471.78L374.54,471.17L376.92,492.95L379.3,485.64L381.69,488.84L384.07,490.97L386.45,490.67L388.84,495.08L391.22,485.34L393.6,474.07L395.99,479.4L398.37,486.4L400.75,485.18L403.14,480.62L405.52,478.33L407.9,480.77L410.29,474.98L412.67,476.05L415.05,481.23L417.44,476.05L419.82,480.46L422.2,472.85L424.59,463.1L426.97,445.74L429.35,408.28L431.74,406.14L434.12,409.8L436.5,399.59L438.89,405.69L441.27,405.84L443.65,406.45L446.04,420.61L448.42,434.93L450.8,429.14L453.19,459.14L455.57,462.04L457.95,461.58L460.34,457.31L462.72,455.94L465.1,477.11L467.49,460.97L469.87,455.79L472.25,468.13L474.64,472.39L477.02,467.21L479.4,480.16L481.79,479.09L484.17,467.67L486.55,447.57L488.94,463.25L491.32,462.49L493.7,467.52L496.09,462.65L498.47,454.73L500.85,460.06L503.24,467.67L505.62,474.98L508,475.29L510.39,477.11L512.77,463.25L515.15,473L517.54,454.42L519.92,464.78L522.3,457.92L524.69,463.71L527.07,464.47L529.45,461.43L531.84,472.54L534.22,488.08L536.6,465.23L538.99,469.96L541.37,479.09L543.75,464.32L546.14,467.82L548.52,465.69L550.9,467.06L553.29,466.3L555.67,465.23L558.05,465.39L560.44,470.11L562.82,468.89L565.2,474.07L567.59,456.1L569.97,441.63L572.35,418.17L574.74,410.56L577.12,411.32L579.5,406.75L581.89,410.1L584.27,424.88L586.65,406.9L589.04,413.15L591.42,417.26L593.8,428.99L596.19,464.32L598.57,471.94L600.95,486.4L603.34,472.39L605.72,476.2L608.1,484.27L610.49,477.42L612.87,463.1L615.25,467.52L617.64,464.17L620.02,463.1L622.4,460.67L624.79,445.59L627.17,461.27L629.55,457.47L631.94,462.34L634.32,464.93L636.7,468.89L639.09,469.8L641.47,464.32L643.85,467.21L646.24,477.72L648.62,464.78L651,463.86L653.39,459.45L655.77,468.74L658.15,479.09L660.54,453.2L662.92,469.65L665.3,461.88L667.69,463.71L670.07,466.6L672.45,444.37L674.83,477.42L677.22,469.65L679.6,454.57L681.98,473.61L684.37,455.94L686.75,467.21L689.13,467.52L691.52,470.26L693.9,476.66L696.28,479.85L698.67,476.05L701.05,458.84L703.43,479.55L705.82,466.3L708.2,464.47L710.58,463.41L712.97,444.37L715.35,405.53L717.73,412.08L720.12,401.57L722.5,410.86L724.88,406.9L727.27,395.79L729.65,411.63L732.03,411.63L734.42,432.8L736.8,438.73L739.18,467.52L741.57,480.92L743.95,479.4L746.33,472.85L748.72,477.27L751.1,478.48L753.48,477.57L755.87,473.92L758.25,470.26L760.63,479.55L763.02,463.25L765.4,481.99L767.78,452.9L770.17,473.92L772.55,476.05L774.93,464.78L777.32,456.71L779.7,459.45L782.08,477.42L784.47,475.44L786.85,477.87L789.23,480.01L791.62,466L794,477.11L796.38,473.92L798.77,477.57L801.15,489.3L803.53,490.82L805.92,490.97L808.3,482.9L810.68,478.79L813.07,485.18L815.45,478.33L817.83,471.02L820.22,487.93L822.6,471.94L824.98,476.96L827.37,462.34L829.75,465.23L832.13,467.21L834.52,460.97L836.9,462.65L839.28,460.82L841.67,450.77L844.05,473.31L846.43,468.28L848.82,471.63L851.2,466.76L853.58,441.63L855.97,438.43L858.35,404.62L860.73,391.98L863.12,406.3L865.5,408.58L867.88,419.39L870.27,424.42L872.65,410.56L875.03,416.5L877.42,443.3L879.8,434.47L882.18,460.67L884.57,482.6L886.95,467.82L889.33,486.86L891.72,474.22L894.1,478.48L896.48,476.66L898.87,468.74L901.25,462.65L903.63,467.06L906.02,461.58L908.4,469.19L910.78,474.07L913.17,471.48L915.55,465.84L917.93,469.35L920.32,461.27L922.7,468.13L925.08,457.01L927.47,456.1L929.85,465.39L932.23,478.48L934.62,459.6L937,476.96L939.38,463.41L941.77,462.49" style="fill:none;stroke:#7AC36A;stroke-width:1.875;stroke-dasharray:7.5,2.5" />
<path d="M67.088,47.03L69.471,412.24L71.854,420.15L74.237,422.74L76.621,410.71L79.004,420.92L81.387,423.96L83.771,428.53L86.154,430.36L88.537,425.49L90.921,429.29L93.304,414.06L95.687,402.18L98.071,407.67L100.45,404.32L102.84,410.1L105.22,414.67L107.6,405.53L109.99,422.59L112.37,418.02L114.75,418.02L117.14,418.17L119.52,423.96L121.9,424.42L124.29,408.12L126.67,418.78L129.05,423.2L131.44,420.46L133.82,425.03L136.2,416.65L138.59,422.59L140.97,423.96L143.35,424.57L145.74,431.12L148.12,408.88L150.5,403.1L152.89,401.12L155.27,399.29L157.65,406.3L160.04,409.65L162.42,408.88L164.8,402.95L167.19,413L169.57,401.12L171.95,441.32L174.34,439.95L176.72,437.36L179.1,439.65L181.49,457.92L183.87,455.94L186.25,452.9L188.64,434.17L191.02,461.27L193.4,448.18L195.79,442.85L198.17,457.92L200.55,446.04L202.94,432.8L205.32,414.98L207.7,412.08L210.09,421.37L212.47,417.72L214.85,420L217.24,411.78L219.62,409.49L222,412.69L224.39,409.49L226.77,413.91L229.15,426.55L231.54,411.93L233.92,401.42L236.3,408.58L238.69,414.22L241.07,415.89L243.45,409.65L245.84,407.67L248.22,407.21L250.6,409.95L252.99,416.19L255.37,406.3L257.75,402.64L260.14,412.24L262.52,416.8L264.9,412.69L267.29,407.97L269.67,404.93L272.05,412.39L274.44,404.16L276.82,408.43L279.2,403.55L281.59,407.36L283.97,419.7L286.35,413.15L288.74,411.78L291.12,394.11L293.5,390.3L295.89,386.35L298.27,380.71L300.65,388.78L303.04,386.95L305.42,381.93L307.8,382.08L310.19,386.35L312.57,387.72L314.95,409.04L317.34,430.66L319.72,424.57L322.1,422.74L324.49,422.59L326.87,412.24L329.25,412.24L331.64,403.1L334.02,401.12L336.4,404.16L338.79,399.29L341.17,396.09L343.55,402.03L345.94,392.74L348.32,387.11L350.7,375.68L353.09,373.7L355.47,383.3L357.85,383.6L360.24,383.76L362.62,380.56L365,374.47L367.39,384.06L369.77,395.64L372.15,400.36L374.54,403.25L376.92,439.95L379.3,432.19L381.69,443.76L384.07,436.15L386.45,451.83L388.84,434.93L391.22,454.42L393.6,441.78L395.99,450.46L398.37,438.13L400.75,445.28L403.14,441.93L405.52,439.8L407.9,449.7L410.29,441.02L412.67,443.46L415.05,431.12L417.44,439.34L419.82,421.98L422.2,420.46L424.59,425.64L426.97,430.21L429.35,425.49L431.74,422.9L434.12,390.76L436.5,391.22L438.89,387.11L441.27,388.17L443.65,396.09L446.04,395.79L448.42,395.94L450.8,397.31L453.19,397.77L455.57,390.91L457.95,421.83L460.34,421.83L462.72,418.48L465.1,418.33L467.49,434.01L469.87,432.34L472.25,426.86L474.64,427.31L477.02,431.88L479.4,434.93L481.79,439.04L484.17,415.28L486.55,416.5L488.94,413.15L491.32,417.41L493.7,399.9L496.09,396.85L498.47,404.16L500.85,402.79L503.24,396.24L505.62,395.79L508,395.33L510.39,380.25L512.77,412.39L515.15,415.89L517.54,418.94L519.92,408.88L522.3,409.65L524.69,417.87L527.07,424.42L529.45,415.59L531.84,411.32L534.22,411.17L536.6,413.3L538.99,419.55L541.37,415.89L543.75,411.02L546.14,409.04L548.52,423.05L550.9,426.55L553.29,414.67L555.67,412.24L558.05,401.73L560.44,418.17L562.82,411.47L565.2,405.38L567.59,411.78L569.97,404.01L572.35,418.02L574.74,417.11L577.12,404.32L579.5,387.41L581.89,388.32L584.27,382.54L586.65,384.82L589.04,387.72L591.42,388.63L593.8,392.89L596.19,391.68L598.57,406.3L600.95,441.48L603.34,435.38L605.72,449.7L608.1,451.22L610.49,447.72L612.87,431.42L615.25,435.23L617.64,426.55L620.02,420.61L622.4,422.74L624.79,431.88L627.17,432.8L629.55,449.4L631.94,432.49L634.32,422.13L636.7,418.94L639.09,422.44L641.47,413.3L643.85,417.87L646.24,418.78L648.62,435.08L651,434.93L653.39,427.31L655.77,446.5L658.15,443.91L660.54,444.52L662.92,445.89L665.3,449.7L667.69,447.57L670.07,440.41L672.45,447.72L674.83,443.3L677.22,437.67L679.6,436.91L681.98,446.2L684.37,448.02L686.75,446.81L689.13,440.56L691.52,444.67L693.9,438.58L696.28,437.97L698.67,419.39L701.05,423.2L703.43,423.51L705.82,435.54L708.2,444.67L710.58,417.57L712.97,421.83L715.35,429.75L717.73,429.29L720.12,393.05L722.5,383.3L724.88,385.13L727.27,383.6L729.65,390L732.03,386.35L734.42,382.69L736.8,389.09L739.18,381.32L741.57,383.15L743.95,400.97L746.33,407.97L748.72,415.59L751.1,403.86L753.48,398.99L755.87,409.95L758.25,409.49L760.63,406.9L763.02,417.11L765.4,420.92L767.78,419.85L770.17,422.13L772.55,409.8L774.93,405.38L777.32,393.2L779.7,396.24L782.08,391.98L784.47,391.37L786.85,377.82L789.23,395.48L791.62,386.04L794,392.28L796.38,393.66L798.77,406.3L801.15,410.26L803.53,414.06L805.92,419.09L808.3,430.51L810.68,431.12L813.07,438.43L815.45,413.76L817.83,413.61L820.22,429.44L822.6,436.3L824.98,432.95L827.37,435.23L829.75,452.75L832.13,441.32L834.52,448.33L836.9,448.02L839.28,431.88L841.67,431.42L844.05,443.61L846.43,445.74L848.82,445.28L851.2,439.8L853.58,448.02L855.97,440.11L858.35,432.19L860.73,429.6L863.12,397.16L865.5,393.66L867.88,390.46L870.27,392.13L872.65,388.93L875.03,378.88L877.42,382.23L879.8,377.21L882.18,387.41L884.57,396.85L886.95,417.11L889.33,413.3L891.72,423.81L894.1,429.14L896.48,436.45L898.87,446.35L901.25,443.61L903.63,432.8L906.02,440.41L908.4,431.27L910.78,417.87L913.17,412.39L915.55,416.19L917.93,394.11L920.32,391.83L922.7,394.42L925.08,387.87L927.47,386.95L929.85,386.5L932.23,391.07L934.62,389.39L937,390.3L939.38,395.18L941.77,418.48L944.15,422.44L946.53,416.04L948.92,408.43L951.3,410.26L953.68,427.92L956.07,428.23L958.45,420.46L960.83,432.19L963.22,435.54L965.6,439.65L967.98,435.69L970.37,440.87L972.75,428.38L975.13,433.86L977.52,430.82L979.9,435.54L982.28,421.22L984.67,432.34L987.05,430.97L989.43,446.2L991.82,449.7L994.2,453.66L996.58,453.66L998.97,454.88L1001.4,447.57L1003.7,447.57L1006.1,407.51L1008.5,412.08L1010.9,407.36L1013.3,400.66L1015.7,393.05L1018,395.18L1020.4,395.94L1022.8,390.61L1025.2,395.94L1027.6,398.53L1030,433.4L1032.3,430.05L1034.7,418.02L1037.1,420.76L1039.5,432.49L1041.9,426.25L1044.3,435.84" style="fill:none;stroke:#5A9BD4;stroke-width:1.875;stroke-dasharray:2.5,2.5" />
<path d="M67.088,449.55L69.471,576.26L71.854,585.09L74.237,664.74L76.621,626.36L79.004,642.51L81.387,584.79L83.771,612.66L86.154,597.88L88.537,629.87L90.921,587.53L93.304,609.15L95.687,587.83L98.071,608.85L100.45,632.46L102.84,550.82L105.22,609.61L107.6,627.58L109.99,617.99L112.37,657.28L114.75,644.18L117.14,625.6L119.52,573.82L121.9,547.78L124.29,576.41L126.67,593.92L129.05,552.04L131.44,552.65L133.82,576.41L136.2,571.08L138.59,563.77L140.97,533.92L143.35,613.57L145.74,619.51L148.12,622.71L150.5,636.57L152.89,628.95L155.27,623.32L157.65,649.97L160.04,636.26L162.42,606.87L164.8,604.43L167.19,597.58L169.57,640.83L171.95,634.89L174.34,616.92L176.72,655.6L179.1,653.47L181.49,678.3L183.87,692.92L186.25,644.33L188.64,685.45L191.02,695.05L193.4,701.44L195.79,688.65L198.17,632.76L200.55,687.89L202.94,664.74L205.32,653.47L207.7,656.21L210.09,665.81L212.47,664.74L214.85,679.36L217.24,653.93L219.62,636.57L222,640.98L224.39,619.51L226.77,575.8L229.15,579.76L231.54,594.23L233.92,606.87L236.3,592.86L238.69,570.17L241.07,574.13L243.45,599.71L245.84,572.3L248.22,650.43L250.6,626.67L252.99,635.81L255.37,654.08L257.75,656.82L260.14,619.05L262.52,574.89L264.9,561.64L267.29,578.54L269.67,575.19L272.05,575.95L274.44,513.51L276.82,585.55L279.2,577.17L281.59,580.37L283.97,558.59L286.35,675.86L288.74,649.36L291.12,651.19L293.5,660.78L295.89,651.19L298.27,643.12L300.65,643.72L303.04,651.04L305.42,653.62L307.8,650.12L310.19,670.53L312.57,649.97L314.95,677.53L317.34,656.37L319.72,688.04L322.1,662.91L324.49,671.29L326.87,676.62L329.25,661.85L331.64,675.55L334.02,648.75L336.4,659.11L338.79,618.75L341.17,620.42L343.55,667.48L345.94,657.74L348.32,669.16L350.7,656.21L353.09,636.11L355.47,623.93L357.85,637.48L360.24,654.54L362.62,631.85L365,646.47L367.39,594.69L369.77,593.31L372.15,592.25L374.54,585.85L376.92,593.01L379.3,590.12L381.69,573.82L384.07,556.31L386.45,577.78L388.84,572.45L391.22,620.42L393.6,643.27L395.99,650.73L398.37,687.89L400.75,649.21L403.14,646.31L405.52,595.45L407.9,584.48L410.29,566.82L412.67,578.09L415.05,580.37L417.44,588.75L419.82,610.83L422.2,601.23L424.59,586.77L426.97,587.98L429.35,656.37L431.74,637.79L434.12,637.33L436.5,643.72L438.89,624.23L441.27,622.1L443.65,605.19L446.04,630.63L448.42,617.99L450.8,650.73L453.19,652.1L455.57,671.14L457.95,673.12L460.34,660.02L462.72,669.92L465.1,638.09L467.49,634.13L469.87,639.31L472.25,637.94L474.64,665.35L477.02,667.18L479.4,643.72L481.79,671.6L484.17,658.35L486.55,631.08L488.94,643.57L491.32,673.42L493.7,661.39L496.09,658.5L498.47,603.82L500.85,640.37L503.24,613.42L505.62,659.56L508,660.02L510.39,587.38L512.77,598.04L515.15,600.63L517.54,615.25L519.92,581.44L522.3,587.83L524.69,608.39L527.07,612.5L529.45,599.41L531.84,591.79L534.22,647.23L536.6,628.34L538.99,670.99L541.37,674.64L543.75,632.76L546.14,675.1L548.52,608.39L550.9,626.36L553.29,617.07L555.67,580.83L558.05,593.31L560.44,587.98L562.82,588.14L565.2,614.18L567.59,587.98L569.97,595.14L572.35,674.49L574.74,623.01L577.12,633.06L579.5,624.69L581.89,640.53L584.27,628.5L586.65,642.35L589.04,666.72L591.42,666.57L593.8,666.42L596.19,670.68L598.57,636.72L600.95,630.93L603.34,626.21L605.72,583.72L608.1,635.35L610.49,621.34L612.87,645.86L615.25,664.13L617.64,664.74L620.02,629.56L622.4,635.5L624.79,658.04L627.17,653.17L629.55,652.56L631.94,649.97L634.32,658.04L636.7,671.6L639.09,587.98L641.47,647.08L643.85,658.5L646.24,648.14L648.62,645.4L651,630.02L653.39,596.06L655.77,595.45L658.15,589.36L660.54,579.91L662.92,608.54L665.3,620.58L667.69,589.2L670.07,561.79L672.45,583.72L674.83,615.25L677.22,649.51L679.6,683.17L681.98,650.12L684.37,630.02L686.75,664.44L689.13,676.16" style="fill:none;stroke:#FAA75B;stroke-width:1.875;stroke-dasharray:1.25,1.25" />
<path d="M1055,694.3L1080,694.3" style="fill:none;stroke:#F15A60;stroke-width:1.875" />
<text x="1007.5" y="-687.85" transform="scale(1, -1)"
	style="font-family:Helvetica;font-weight:normal;font-style:normal;font-size:12pt">consul</text>
<path d="M1055,680L1080,680" style="fill:none;stroke:#7AC36A;stroke-width:1.875;stroke-dasharray:7.5,2.5" />
<text x="1014.1" y="-673.56" transform="scale(1, -1)"
	style="font-family:Helvetica;font-weight:normal;font-style:normal;font-size:12pt">etcd3</text>
<path d="M1055,665.71L1080,665.71" style="fill:none;stroke:#5A9BD4;stroke-width:1.875;stroke-dasharray:2.5,2.5" />
<text x="1014.1" y="-659.26" transform="scale(1, -1)"
	style="font-family:Helvetica;font-weight:normal;font-style:normal;font-size:12pt">etcd2</text>
<path d="M1055,651.41L1080,651.41" style="fill:none;stroke:#FAA75B;stroke-width:1.875;stroke-dasharray:1.25,1.25" />
<text x="1035.8" y="-644.97" transform="scale(1, -1)"
	style="font-family:Helvetica;font-weight:normal;font-style:normal;font-size:12pt">zk</text>
</g>
</svg>
