<?xml version="1.0"?>
<!-- Generated by SVGo and Plotinum VG -->
<svg width="12in" height="8in"
	xmlns="http://www.w3.org/2000/svg"
	xmlns:xlink="http://www.w3.org/1999/xlink">
<g transform="scale(1, -1) translate(0, -720)">
<path d="M0,0L1080,0L1080,720L0,720Z" style="fill:#FFFFFF" />
<text x="281.15" y="-706.41" transform="scale(1, -1)"
	style="font-family:Helvetica;font-weight:normal;font-style:normal;font-size:12pt">Write 1M keys, 10 clients, key 64 bytes, value 256 bytes, Latency(millisecond)</text>
<text x="544.64" y="-4.965" transform="scale(1, -1)"
	style="font-family:Helvetica;font-weight:normal;font-style:normal;font-size:12pt">Second</text>
<text x="56.662" y="-19.142" transform="scale(1, -1)"
	style="font-family:Helvetica;font-weight:normal;font-style:normal;font-size:10pt">0</text>
<text x="286.54" y="-19.142" transform="scale(1, -1)"
	style="font-family:Helvetica;font-weight:normal;font-style:normal;font-size:10pt">1000</text>
<text x="526.85" y="-19.142" transform="scale(1, -1)"
	style="font-family:Helvetica;font-weight:normal;font-style:normal;font-size:10pt">2000</text>
<text x="767.16" y="-19.142" transform="scale(1, -1)"
	style="font-family:Helvetica;font-weight:normal;font-style:normal;font-size:10pt">3000</text>
<text x="1007.5" y="-19.142" transform="scale(1, -1)"
	style="font-family:Helvetica;font-weight:normal;font-style:normal;font-size:10pt">4000</text>
<path d="M60.137,30.467L60.137,40.467" style="fill:none;stroke:#000000;stroke-width:0.625" />
<path d="M300.44,30.467L300.44,40.467" style="fill:none;stroke:#000000;stroke-width:0.625" />
<path d="M540.75,30.467L540.75,40.467" style="fill:none;stroke:#000000;stroke-width:0.625" />
<path d="M781.06,30.467L781.06,40.467" style="fill:none;stroke:#000000;stroke-width:0.625" />
<path d="M1021.4,30.467L1021.4,40.467" style="fill:none;stroke:#000000;stroke-width:0.625" />
<path d="M180.29,35.468L180.29,40.467" style="fill:none;stroke:#000000;stroke-width:0.625" />
<path d="M420.6,35.468L420.6,40.467" style="fill:none;stroke:#000000;stroke-width:0.625" />
<path d="M660.9,35.468L660.9,40.467" style="fill:none;stroke:#000000;stroke-width:0.625" />
<path d="M901.21,35.468L901.21,40.467" style="fill:none;stroke:#000000;stroke-width:0.625" />
<path d="M60.137,40.467L1080,40.467" style="fill:none;stroke:#000000;stroke-width:0.625" />
<g transform="rotate(90)">
<text x="305.89" y="13.59" transform="scale(1, -1)"
	style="font-family:Helvetica;font-weight:normal;font-style:normal;font-size:12pt">Latency(millisecond)</text>
</g>
<text x="25.505" y="-207.97" transform="scale(1, -1)"
	style="font-family:Helvetica;font-weight:normal;font-style:normal;font-size:10pt">50</text>
<text x="18.555" y="-410.84" transform="scale(1, -1)"
	style="font-family:Helvetica;font-weight:normal;font-style:normal;font-size:10pt">100</text>
<text x="18.555" y="-613.7" transform="scale(1, -1)"
	style="font-family:Helvetica;font-weight:normal;font-style:normal;font-size:10pt">150</text>
<path d="M42.88,213.34L52.88,213.34" style="fill:none;stroke:#000000;stroke-width:0.625" />
<path d="M42.88,416.2L52.88,416.2" style="fill:none;stroke:#000000;stroke-width:0.625" />
<path d="M42.88,619.07L52.88,619.07" style="fill:none;stroke:#000000;stroke-width:0.625" />
<path d="M47.88,51.052L52.88,51.052" style="fill:none;stroke:#000000;stroke-width:0.625" />
<path d="M47.88,91.625L52.88,91.625" style="fill:none;stroke:#000000;stroke-width:0.625" />
<path d="M47.88,132.2L52.88,132.2" style="fill:none;stroke:#000000;stroke-width:0.625" />
<path d="M47.88,172.77L52.88,172.77" style="fill:none;stroke:#000000;stroke-width:0.625" />
<path d="M47.88,253.91L52.88,253.91" style="fill:none;stroke:#000000;stroke-width:0.625" />
<path d="M47.88,294.49L52.88,294.49" style="fill:none;stroke:#000000;stroke-width:0.625" />
<path d="M47.88,335.06L52.88,335.06" style="fill:none;stroke:#000000;stroke-width:0.625" />
<path d="M47.88,375.63L52.88,375.63" style="fill:none;stroke:#000000;stroke-width:0.625" />
<path d="M47.88,456.78L52.88,456.78" style="fill:none;stroke:#000000;stroke-width:0.625" />
<path d="M47.88,497.35L52.88,497.35" style="fill:none;stroke:#000000;stroke-width:0.625" />
<path d="M47.88,537.92L52.88,537.92" style="fill:none;stroke:#000000;stroke-width:0.625" />
<path d="M47.88,578.49L52.88,578.49" style="fill:none;stroke:#000000;stroke-width:0.625" />
<path d="M47.88,659.64L52.88,659.64" style="fill:none;stroke:#000000;stroke-width:0.625" />
<path d="M47.88,700.21L52.88,700.21" style="fill:none;stroke:#000000;stroke-width:0.625" />
<path d="M52.88,47.03L52.88,701.44" style="fill:none;stroke:#000000;stroke-width:0.625" />
<path d="M60.137,73.824L60.378,76.051L60.618,75.471L60.858,73.35L61.099,71.871L61.339,74.72L61.579,72.043L61.82,73.49L62.06,72.887L62.3,72.519L62.541,71.776L62.781,69.765L63.021,69.998L63.261,71.72L63.502,71.594L63.742,73.293L63.982,70.101L64.223,73.291L64.463,72.683L64.703,72.698L64.944,72.335L65.184,71.553L65.424,72.468L65.665,71.959L65.905,72.956L66.145,71.139L66.385,74.781L66.626,71.93L66.866,75.234L67.106,72.516L67.347,71.928L67.587,72.243L67.827,73.697L68.068,73.756L68.308,70.854L68.548,70.521L68.789,74.011L69.029,74.073L69.269,73.435L69.509,71.344L69.75,71.401L69.99,73.34L70.23,76.455L70.471,75.038L70.711,76.863L70.951,74.749L71.192,75.867L71.432,72.227L71.672,74.312L71.913,73.92L72.153,72.52L72.393,70.989L72.633,72.732L72.874,74.195L73.114,73.583L73.354,75.954L73.595,76.043L73.835,74.801L74.075,72.989L74.316,73.821L74.556,71.299L74.796,73.871L75.037,72.718L75.277,73.033L75.517,73.354L75.757,72.557L75.998,72.077L76.238,70.926L76.478,71.399L76.719,72.217L76.959,72.75L77.199,70.797L77.44,73.012L77.68,72.126L77.92,71.834L78.161,72.35L78.401,71.59L78.641,69.823L78.881,71.878L79.122,72.912L79.362,71.842L79.602,74.533L79.843,74.174L80.083,72.344L80.323,76.5L80.564,72.315L80.804,72.674L81.044,71.657L81.285,73.017L81.525,71.418L81.765,73.356L82.005,73.374L82.246,74.345L82.486,70.554L82.726,72.825L82.967,72.3L83.207,70.469L83.447,73.275L83.688,70.906L83.928,71.168L84.168,71.413L84.408,72.029L84.649,75.539L84.889,74.455L85.129,75.792L85.37,75.712L85.61,76.059L85.85,73.976L86.091,73.941L86.331,74.422L86.571,71.026L86.812,70.088L87.052,73.247L87.292,70.449L87.532,70.775L87.773,74.19L88.013,73.665L88.253,70.09L88.494,71.886L88.734,73.064L88.974,74.74L89.215,73.017L89.455,73.471L89.695,72.306L89.936,73.049L90.176,75.516L90.416,75.607L90.656,73.41L90.897,70.206L91.137,69.623L91.377,73.134L91.618,71.926L91.858,72.064L92.098,72.491L92.339,75.67L92.579,73.787L92.819,72.623L93.06,73.449L93.3,74.676L93.54,74.168L93.78,74.276L94.021,73.195L94.261,77.69L94.501,76.589L94.742,76.798L94.982,76.937L95.222,73.484L95.463,76.656L95.703,77.393L95.943,80.032L96.184,76.276L96.424,73.787L96.664,75.987L96.904,73.271L97.145,74.915L97.385,72.555L97.625,72.392L97.866,73.546L98.106,74.264L98.346,74.671L98.587,73.437L98.827,73.255L99.067,74.793L99.308,99.316L99.548,72.234L99.788,72.611L100.03,76.009L100.27,73.073L100.51,70.878L100.75,72.774L100.99,74.861L101.23,77.399L101.47,75.129L101.71,73.835L101.95,73.485L102.19,73.576L102.43,75.398L102.67,75.694L102.91,75.546L103.15,73.928L103.39,73.229L103.63,71.573L103.87,71.902L104.11,71.733L104.35,71.159L104.59,71.033L104.83,72.898L105.07,70.633L105.32,76.573L105.56,76.162L105.8,70.702L106.04,73.851L106.28,76.236L106.52,73.546L106.76,71.033L107,73.017L107.24,72.641L107.48,71.998L107.72,73.551L107.96,74.181L108.2,74.765L108.44,74.309L108.68,72.372L108.92,73.509L109.16,72.212L109.4,72.776L109.64,70.131L109.88,74.167L110.12,71.908L110.36,72.086L110.6,75.346L110.84,73.033L111.08,72.817L111.32,71.423L111.56,71.746L111.8,69.895L112.04,73.529L112.28,72.781L112.52,72.429L112.76,75.136L113.01,71.885L113.25,71.29L113.49,74.112L113.73,74.593L113.97,74.211L114.21,72.986L114.45,72.771L114.69,76.365L114.93,75.079L115.17,73.296L115.41,69.978L115.65,71.295L115.89,73.896L116.13,69.61L116.37,71.536L116.61,74.985L116.85,74.089L117.09,74.288L117.33,72.389L117.57,72.259L117.81,73.122L118.05,76.32L118.29,74.637L118.53,74.624L118.77,71.503L119.01,72.925L119.25,74.494L119.49,76.287L119.73,73.239L119.97,73.163L120.21,74.045L120.45,74.344L120.69,71.798L120.94,70.518L121.18,73.422L121.42,74.217L121.66,72.259L121.9,70.234L122.14,75.255L122.38,74.63L122.62,74.254L122.86,72.103L123.1,73.626L123.34,77.793L123.58,75.613L123.82,71.924L124.06,71.259L124.3,74.297L124.54,73.154L124.78,71.935L125.02,72.643L125.26,76.237L125.5,78.837L125.74,74.757L125.98,75.522L126.22,72.981L126.46,71.355L126.7,75.976L126.94,76.665L127.18,72.487L127.42,72.647L127.66,74.094L127.9,71.658L128.14,73.395L128.38,74.061L128.62,74.302L128.87,74.975L129.11,75.034L129.35,72.641L129.59,70.659L129.83,73.791L130.07,75.228L130.31,75.738L130.55,73.389L130.79,70.965L131.03,74.184L131.27,73.408L131.51,73.355L131.75,76.976L131.99,75.713L132.23,75.737L132.47,73.729L132.71,72.64L132.95,72.752L133.19,77.764L133.43,73.251L133.67,75.975L133.91,73.553L134.15,72.469L134.39,72.193L134.63,71.366L134.87,71.433L135.11,74.017L135.35,74.292L135.59,71.45L135.83,73.094L136.07,73.852L136.31,73.261L136.56,71.806L136.8,73.116L137.04,78.248L137.28,75.511L137.52,75.436L137.76,72.843L138,76.458L138.24,74.218L138.48,74.498L138.72,72.151L138.96,72.463L139.2,73.22L139.44,71.21L139.68,73.3L139.92,73.821L140.16,73.64L140.4,73.278L140.64,71.677L140.88,75.604L141.12,73.797L141.36,73.442L141.6,72.381L141.84,73.458L142.08,76.077L142.32,73.668L142.56,74.062L142.8,75.449L143.04,76.335L143.28,72.994L143.52,72.237L143.76,71.101L144,72.698L144.24,75.01L144.49,71.504L144.73,73.55L144.97,72.62L145.21,75.423L145.45,72.553L145.69,73.137L145.93,70.085L146.17,69.952L146.41,74.091L146.65,71.525L146.89,72.924L147.13,72.958L147.37,73.76L147.61,71.298L147.85,72.826L148.09,76.861L148.33,81.238L148.57,72.453L148.81,73.381L149.05,71.221L149.29,73.217L149.53,72.634L149.77,71.831L150.01,71.803L150.25,74.289L150.49,74.982L150.73,71.477L150.97,71.548L151.21,72.07L151.45,76.514L151.69,78.311L151.93,76.833L152.18,74.099L152.42,72.753L152.66,71.163L152.9,74.706L153.14,70.426L153.38,71.967L153.62,69.922L153.86,74.458L154.1,71.684L154.34,70.356L154.58,71.497L154.82,72.002L155.06,71.805L155.3,71.92L155.54,72.196L155.78,75.939L156.02,72.757L156.26,74.733L156.5,71.34L156.74,76.304L156.98,74.516L157.22,70.852L157.46,70.5L157.7,74.46L157.94,74.897L158.18,73.833L158.42,74.397L158.66,72.816L158.9,73.459L159.14,71.488L159.38,72.462L159.62,73.411L159.86,72.52L160.11,71.974L160.35,71.13L160.59,74.227L160.83,77.456L161.07,73.405L161.31,72.327L161.55,71.04L161.79,72.78L162.03,75.477L162.27,74.787L162.51,74.718L162.75,70.442L162.99,70.665L163.23,76.104L163.47,71.919L163.71,73.831L163.95,74.282L164.19,75.785L164.43,73.239L164.67,74.048L164.91,79.309L165.15,74.147L165.39,72.941L165.63,73.535L165.87,77.926L166.11,74.042L166.35,75.215L166.59,75.105L166.83,71.999L167.07,76.062L167.31,75.168L167.55,73.861L167.79,73.766L168.04,72.676L168.28,76.538L168.52,76.586L168.76,72.02L169,69.36L169.24,75.065L169.48,74.7L169.72,72.142L169.96,72.724L170.2,73.321L170.44,70.786L170.68,74.779L170.92,78.447L171.16,73.612L171.4,74.481L171.64,72.018L171.88,71.184L172.12,75.691L172.36,72.501L172.6,72.645L172.84,72.969L173.08,73.477L173.32,76.143L173.56,74.197L173.8,75.379L174.04,72.693L174.28,74.759L174.52,76.057L174.76,74.878L175,71.576L175.24,72.308L175.48,71.88L175.73,72.406L175.97,74.388L176.21,73.018L176.45,71.58L176.69,76.039L176.93,74.576L177.17,73.955L177.41,75.771L177.65,72.223L177.89,76.414L178.13,75.209L178.37,73.633L178.61,74.903L178.85,73.434L179.09,74.201L179.33,71.667L179.57,75.123L179.81,79.441L180.05,78.748L180.29,77.296L180.53,73.243L180.77,73.455L181.01,76.187L181.25,75.336L181.49,78.271L181.73,73.14L181.97,71.554L182.21,73.31L182.45,72.9L182.69,72.53L182.93,77.101L183.17,76.098L183.41,74.208L183.66,75.145L183.9,73.656L184.14,72.404L184.38,74.398L184.62,69.845L184.86,72.593L185.1,72.309L185.34,72.721L185.58,72.772L185.82,77.957L186.06,78.007L186.3,76.909L186.54,73.451L186.78,71.865L187.02,73.166L187.26,73.908L187.5,74.513L187.74,74.462L187.98,74.06L188.22,71.837L188.46,73.099L188.7,75.422L188.94,72.099L189.18,72.943L189.42,74.652L189.66,75.613L189.9,74.605L190.14,77.009L190.38,74.446L190.62,72.71L190.86,71.328L191.1,71.428L191.35,70.495L191.59,76.924L191.83,72.567L192.07,73.569L192.31,73.489L192.55,72.781L192.79,71.489L193.03,74.819L193.27,71.378L193.51,72.709L193.75,75.286L193.99,73.324L194.23,72.776L194.47,76.512L194.71,74.075L194.95,76.93L195.19,74.357L195.43,71.058L195.67,72.75L195.91,75.974L196.15,70.251L196.39,74.399L196.63,77.156L196.87,73.146L197.11,71.824L197.35,73.167L197.59,81.199L197.83,77.151L198.07,76.652L198.31,72.856L198.55,72.421L198.79,73.446L199.03,76.431L199.28,75.207L199.52,73.558L199.76,70.592L200,77.362L200.24,75.575L200.48,75.056L200.72,75.34L200.96,72.394L201.2,71.969L201.44,75.183L201.68,75.037L201.92,73.618L202.16,71.507L202.4,76.514L202.64,76.65L202.88,75.468L203.12,73.335L203.36,72.331L203.6,74.189L203.84,78.029L204.08,76.393L204.32,74.449L204.56,72.079L204.8,72.417L205.04,72.409L205.28,73.551L205.52,74.672L205.76,75.605L206,71.163L206.24,75.331L206.48,73.206L206.72,72.235L206.97,72.3L207.21,75.994L207.45,75.603L207.69,72.077L207.93,72.775L208.17,72.584L208.41,71.04L208.65,76.438L208.89,77.148L209.13,82.955L209.37,74.809L209.61,71.695L209.85,71.237L210.09,72.488L210.33,73.078L210.57,72.951L210.81,73.467L211.05,73.317L211.29,74.508L211.53,72.188L211.77,75.753L212.01,79.746L212.25,75.115L212.49,74.595L212.73,71.577L212.97,76.429L213.21,74.282L213.45,74.298L213.69,75.323L213.93,73.264L214.17,74.984L214.41,76.157L214.65,71.32L214.9,72.603L215.14,75.335L215.38,76.319L215.62,72.123L215.86,73.454L216.1,75.683L216.34,75.595L216.58,74.095L216.82,76.997L217.06,72.582L217.3,72.882L217.54,73.415L217.78,71.701L218.02,73.28L218.26,77.16L218.5,75.926L218.74,75.84L218.98,77.357L219.22,74.588L219.46,74.482L219.7,74.165L219.94,72.319L220.18,72.175L220.42,74.683L220.66,76.199L220.9,77.339L221.14,72.928L221.38,72.451L221.62,73.551L221.86,76.919L222.1,73.695L222.34,76.951L222.58,71.195L222.83,73.522L223.07,76.425L223.31,77.834L223.55,76.737L223.79,74.861L224.03,73.908L224.27,80.092L224.51,78.143L224.75,72.231L224.99,72.01L225.23,76.751L225.47,75.682L225.71,75.029L225.95,76.816L226.19,73.078L226.43,73.977L226.67,76.178L226.91,75.072L227.15,72.339L227.39,75.883L227.63,74.826L227.87,76.263L228.11,74.423L228.35,72.068L228.59,72.831L228.83,72.419L229.07,73.784L229.31,75.44L229.55,75.654L229.79,76.922L230.03,74.769L230.27,76.71L230.52,75.845L230.76,73.075L231,70.164L231.24,72.796L231.48,76.436L231.72,76.369L231.96,74.767L232.2,75.044L232.44,71.217L232.68,71.976L232.92,69.569L233.16,71.845L233.4,76.695L233.64,73.864L233.88,72.185L234.12,71.501L234.36,72.336L234.6,71.488L234.84,74.866L235.08,74.334L235.32,76.481L235.56,74.671L235.8,77.584L236.04,74.904L236.28,71.257L236.52,72.394L236.76,70.837L237,74.021L237.24,75.92L237.48,72.607L237.72,73.075L237.96,73.823L238.2,70.556L238.45,72.324L238.69,71.953L238.93,76.091L239.17,71.863L239.41,72.45L239.65,75.846L239.89,77.505L240.13,76.092L240.37,72.79L240.61,71.697L240.85,75.518L241.09,72.236L241.33,71.282L241.57,74.623L241.81,76.942L242.05,71.929L242.29,73.745L242.53,70.835L242.77,76.332L243.01,73.114L243.25,71.129L243.49,74.232L243.73,72.511L243.97,71.855L244.21,73.149L244.45,74.752L244.69,75.061L244.93,74.427L245.17,73.095L245.41,74.581L245.65,74.995L245.89,72.879L246.14,74.694L246.38,72.711L246.62,72.417L246.86,81.66L247.1,74.139L247.34,74.349L247.58,72.715L247.82,73.921L248.06,74.639L248.3,69.645L248.54,72.104L248.78,77.429L249.02,74.653L249.26,72.395L249.5,71.335L249.74,72.596L249.98,71.931L250.22,73.542L250.46,71.964L250.7,74.808L250.94,72.226L251.18,74.899L251.42,73.059L251.66,70.269L251.9,71.741L252.14,77.049L252.38,76.489L252.62,74.424L252.86,78.435L253.1,74.851L253.34,73.876L253.58,75.858L253.82,70.423L254.07,73.086L254.31,74.542L254.55,71.92L254.79,80.906L255.03,76.5L255.27,77.36L255.51,73.118L255.75,72.149L255.99,74.115L256.23,76.422L256.47,75.698L256.71,74.982L256.95,76.469L257.19,72.193L257.43,73.931L257.67,72.284L257.91,75.114L258.15,73.926L258.39,73.947L258.63,71.953L258.87,74.344L259.11,78.387L259.35,73.43L259.59,72.312L259.83,71.648L260.07,70.953L260.31,73.889L260.55,73.737L260.79,75.112L261.03,76.311L261.27,72.624L261.51,73.458L261.75,74.328L262,72.183L262.24,71.933L262.48,76.248L262.72,73.439L262.96,74.63L263.2,77.829L263.44,72.469L263.68,71.137L263.92,72.753L264.16,70.065L264.4,70.182L264.64,73.814L264.88,72.727L265.12,71.673L265.36,79.948L265.6,74.495L265.84,74.185L266.08,72.583L266.32,75.08L266.56,73.303L266.8,71.502L267.04,73.562L267.28,72.671L267.52,75.587L267.76,71.376L268,72.118L268.24,73.042L268.48,71.497L268.72,72.883L268.96,73.385L269.2,75.127L269.44,74.526L269.69,75.359L269.93,74.923L270.17,72.227L270.41,73.527L270.65,73.566L270.89,69.595L271.13,72.089L271.37,72.979L271.61,73.006L271.85,77.695L272.09,72.42L272.33,74.373L272.57,72.1L272.81,73.453L273.05,73.029L273.29,71.509L273.53,70.822L273.77,71.99L274.01,79.786L274.25,71.126L274.49,72.585L274.73,73.002L274.97,74.164L275.21,72.36L275.45,74.626L275.69,71.024L275.93,73.123L276.17,76.147L276.41,70.85L276.65,73.398L276.89,71.905L277.13,73.465L277.37,73.65L277.62,73.452L277.86,72.548L278.1,70.531L278.34,76.653L278.58,73.53L278.82,76.667L279.06,72.349L279.3,73.691L279.54,72.248L279.78,73.364L280.02,73.236L280.26,75.879L280.5,73.978L280.74,77.275L280.98,73.362L281.22,74.091L281.46,71.481L281.7,72.008L281.94,74.981L282.18,70.318L282.42,73.435L282.66,75.642L282.9,76.941L283.14,75.635L283.38,73.717L283.62,72.525L283.86,71.754L284.1,72.405L284.34,72.522L284.58,71.003L284.82,72.12L285.06,72.333L285.31,73.441L285.55,72.43L285.79,72.341L286.03,74.976L286.27,75.569L286.51,78.218L286.75,71.939L286.99,71.175L287.23,72.355L287.47,75.803L287.71,71.057L287.95,70.334L288.19,72.085L288.43,72.523L288.67,74.292L288.91,73.431L289.15,72.281L289.39,70.933L289.63,71.402L289.87,76.767L290.11,71.954L290.35,75.099L290.59,75.3L290.83,75.917L291.07,70.818L291.31,74.107L291.55,76.845L291.79,74.441L292.03,74.28L292.27,76.575L292.51,70.048L292.75,75.871L292.99,71.541L293.24,73.468L293.48,73.09L293.72,73.03L293.96,72.486L294.2,76.917L294.44,76.218L294.68,80.561L294.92,72.551L295.16,72.209L295.4,74.625L295.64,71.815L295.88,72.666L296.12,74.127L296.36,72.825L296.6,71.757L296.84,73.756L297.08,75.702L297.32,76.215L297.56,73.702L297.8,73.499L298.04,71.679L298.28,71.017L298.52,73.059L298.76,73.771L299,75.013L299.24,73.93L299.48,76.485L299.72,73.359L299.96,72.424L300.2,77.655L300.44,71.666L300.68,71.1L300.93,72.784L301.17,71.127L301.41,73.439L301.65,74.303L301.89,78.169L302.13,77.947L302.37,79.298L302.61,75.012L302.85,76.906L303.09,76.383L303.33,76.231L303.57,73.038L303.81,73.798L304.05,71.316L304.29,72.574L304.53,75.073L304.77,69.265L305.01,71.004L305.25,72.113L305.49,72.699L305.73,73.594L305.97,71.503L306.21,70.533L306.45,70.779L306.69,73.278L306.93,75.19L307.17,73.669L307.41,72.932L307.65,72.01L307.89,73.5L308.13,76.532L308.37,75.496L308.61,80.536L308.86,73.331L309.1,72.131L309.34,72.932L309.58,77.91L309.82,74.63L310.06,77.024L310.3,77.917L310.54,70.484L310.78,70.165L311.02,71.643L311.26,72.621L311.5,73.074L311.74,74.979L311.98,80.188L312.22,73.345L312.46,70.776L312.7,72.326L312.94,75.84L313.18,74.833L313.42,72.379L313.66,74.029L313.9,76.877L314.14,75.671L314.38,72.805L314.62,78.838L314.86,74.327L315.1,76.199L315.34,72.994L315.58,75.593L315.82,71.747L316.06,72.699L316.3,72.355L316.54,73.53L316.79,69.405L317.03,74.259L317.27,78.935L317.51,76.534L317.75,76.454L317.99,73.03L318.23,73.574L318.47,74.639L318.71,72.586L318.95,72.803L319.19,71.001L319.43,70.264L319.67,73.071L319.91,77.12L320.15,72.039L320.39,73.461L320.63,72.452L320.87,73.902L321.11,73.287L321.35,71.589L321.59,74.771L321.83,73.549L322.07,76.73L322.31,77.735L322.55,77.536L322.79,71.11L323.03,76.216L323.27,78.261L323.51,76.308L323.75,72.854L323.99,73.463L324.23,72.922L324.48,72.634L324.72,71.691L324.96,73.99L325.2,82.199L325.44,75.976L325.68,75.215L325.92,73.68L326.16,71.427L326.4,74.728L326.64,75.599L326.88,73.465L327.12,76.089L327.36,74.004L327.6,71.687L327.84,73.164L328.08,79.22L328.32,72.557L328.56,73.763L328.8,72.008L329.04,73.436L329.28,74.249L329.52,74.292L329.76,75.513L330,75.061L330.24,76.324L330.48,72.887L330.72,81.371L330.96,71.836L331.2,73.399L331.44,74.486L331.68,72.388L331.92,73.858L332.16,72.996L332.41,74.744L332.65,73.994L332.89,73.486L333.13,73.834L333.37,76.604L333.61,77.879L333.85,73.712L334.09,71.519L334.33,71.686L334.57,73.683L334.81,74.587L335.05,73.974L335.29,73.14L335.53,70.217L335.77,75.019L336.01,77.095L336.25,77.83L336.49,71.212L336.73,70.339L336.97,72.543L337.21,71.925L337.45,72.928L337.69,72.468L337.93,73.592L338.17,72.265L338.41,77.277L338.65,74.456L338.89,77.706L339.13,78.917L339.37,74.619L339.61,77.108L339.85,72.69L340.1,71.63L340.34,76.807L340.58,75.124L340.82,72.038L341.06,73.963L341.3,76.818L341.54,74.577L341.78,71.293L342.02,77.085L342.26,78.617L342.5,72.83L342.74,74.932L342.98,73.786L343.22,74.011L343.46,74.356L343.7,72.789L343.94,76.131L344.18,72.416L344.42,71.719L344.66,73.309L344.9,78.161L345.14,72.695L345.38,71.103L345.62,75.598L345.86,71.386L346.1,78.255L346.34,73.908L346.58,73.317L346.82,70.985L347.06,70.829L347.3,73.318L347.54,72.97L347.78,76.788L348.03,71.853L348.27,74.375L348.51,72.459L348.75,75.071L348.99,78.153L349.23,75.691L349.47,77.617L349.71,75.303L349.95,79.253L350.19,75.383L350.43,73.744L350.67,78.58L350.91,71.777L351.15,74.806L351.39,71.964L351.63,76.292L351.87,73.792L352.11,75.08L352.35,72.893L352.59,71.118L352.83,77.548L353.07,74.136L353.31,70.54L353.55,79.557L353.79,73.585L354.03,72.508L354.27,70.919L354.51,71.432L354.75,70.396L354.99,73.3L355.23,75.801L355.47,74.508L355.71,75.253L355.96,74.475L356.2,75.34L356.44,77.643L356.68,76.887L356.92,74.235L357.16,75.714L357.4,75.449L357.64,74.26L357.88,71.806L358.12,74.913L358.36,76.224L358.6,74.671L358.84,76.091L359.08,74.079L359.32,76.418L359.56,83.012L359.8,75.487L360.04,72.023L360.28,72.293L360.52,73.836L360.76,71.745L361,72.989L361.24,76.708L361.48,71.662L361.72,73.814L361.96,74.146L362.2,75.052L362.44,74.609L362.68,80.359L362.92,74.052L363.16,74.102L363.4,73.309L363.65,74L363.89,74.295L364.13,73.989L364.37,71.673L364.61,71.826L364.85,73.463L365.09,72.042L365.33,72.462L365.57,78.189L365.81,71.815L366.05,73.56L366.29,76.888L366.53,75.579L366.77,74.503L367.01,74.678L367.25,72.476L367.49,75.767L367.73,74.387L367.97,73.137L368.21,73.06L368.45,74.306L368.69,80.859L368.93,75.461L369.17,73.413L369.41,74.451L369.65,78.145L369.89,76.543L370.13,74.276L370.37,72.987L370.61,72.063L370.85,73.206L371.09,72.52L371.33,71.151L371.58,73.738L371.82,78.5L372.06,71.928L372.3,69.685L372.54,73.139L372.78,74.086L373.02,72.923L373.26,74.392L373.5,73.279L373.74,76.167L373.98,73.213L374.22,69.549L374.46,70.848L374.7,73.113L374.94,78.896L375.18,73.966L375.42,75.71L375.66,71.936L375.9,75.478L376.14,71.487L376.38,72.823L376.62,73.645L376.86,75.87L377.1,74.82L377.34,74.846L377.58,72.621L377.82,69.599L378.06,80.036L378.3,77.668L378.54,76.886L378.78,75.365L379.02,73.367L379.27,71.491L379.51,72.229L379.75,74.135L379.99,73.048L380.23,73.022L380.47,74.452L380.71,75.495L380.95,74.779L381.19,80.855L381.43,76.997L381.67,79.332L381.91,75.965L382.15,73.463L382.39,73.029L382.63,71.86L382.87,73.776L383.11,71.77L383.35,71.748L383.59,73.513L383.83,74.937L384.07,73.558L384.31,75.819L384.55,79.081L384.79,73.264L385.03,77.996L385.27,75.296L385.51,75.534L385.75,72.26L385.99,71.373L386.23,74.394L386.47,72.648L386.71,73.383L386.95,76.291L387.2,72.942L387.44,73.892L387.68,71.394L387.92,77.436L388.16,74.113L388.4,72.395L388.64,74.969L388.88,72.683L389.12,71.598L389.36,71.958L389.6,74.387L389.84,76.412L390.08,75.416L390.32,74.416L390.56,74.34L390.8,71.388L391.04,79.18L391.28,77.691L391.52,77.086L391.76,74.503L392,75.634L392.24,73.894L392.48,73.197L392.72,76.843L392.96,77.096L393.2,79.919L393.44,75.088L393.68,73.535L393.92,71.585L394.16,72.689L394.4,78.786L394.64,72.038L394.89,70.878L395.13,73.148L395.37,76.606L395.61,74.884L395.85,75.987L396.09,74.845L396.33,75.612L396.57,76.263L396.81,76.401L397.05,74.006L397.29,74.081L397.53,75.575L397.77,81.256L398.01,76.666L398.25,73.773L398.49,71.215L398.73,75.061L398.97,76.132L399.21,75.506L399.45,78.733L399.69,79.586L399.93,72.728L400.17,72.683L400.41,75.649L400.65,74.802L400.89,73.937L401.13,71.499L401.37,83.299L401.61,73.264L401.85,72.035L402.09,74.518L402.33,76.641L402.57,73.44L402.82,71.897L403.06,71.582L403.3,73.617L403.54,73.452L403.78,76.909L404.02,72.597L404.26,73.229L404.5,77.977L404.74,84.838L404.98,74.846L405.22,75.569L405.46,70.023L405.7,73.092L405.94,74.332L406.18,74.386L406.42,73.558L406.66,71.582L406.9,70.884L407.14,70.938L407.38,75.186L407.62,73.818L407.86,73.338L408.1,79.018L408.34,76.509L408.58,74.768L408.82,77.367L409.06,77.995L409.3,73.993L409.54,74.767L409.78,73.232L410.02,74.837L410.26,76.761L410.5,75.39L410.75,73.276L410.99,73.866L411.23,73.826L411.47,76.03L411.71,80.735L411.95,71.929L412.19,72.437L412.43,73.866L412.67,75.538L412.91,75.136L413.15,73.339L413.39,72.858L413.63,73.994L413.87,74.781L414.11,73.08L414.35,71.594L414.59,73.083L414.83,73.246L415.07,75.78L415.31,81.787L415.55,71.024L415.79,75.759L416.03,72.69L416.27,75.343L416.51,76.034L416.75,73.714L416.99,74.439L417.23,70.456L417.47,72.352L417.71,71.497L417.95,70.858L418.19,71.863L418.44,73.461L418.68,80.996L418.92,74.872L419.16,75.136L419.4,73.183L419.64,73.044L419.88,75.7L420.12,74.514L420.36,71.212L420.6,75.718L420.84,74.53L421.08,73.227L421.32,72.539L421.56,73.358L421.8,70.779L422.04,71.944L422.28,79.279L422.52,73.443L422.76,74.862L423,73.051L423.24,73.662L423.48,74.64L423.72,74.651L423.96,74.647L424.2,70.052L424.44,73.182L424.68,78.307L424.92,75.324L425.16,76.08L425.4,71.915L425.64,73.503L425.88,79.521L426.12,74.851L426.37,75.47L426.61,76.653L426.85,73.255L427.09,70.857L427.33,72.399L427.57,72.789L427.81,75.967L428.05,75.504L428.29,72.175L428.53,70.746L428.77,74.906L429.01,72.196L429.25,74.775L429.49,81.313L429.73,74.564L429.97,75.779L430.21,74.592L430.45,71.53L430.69,76.589L430.93,73.008L431.17,71.007L431.41,70.732L431.65,72.779L431.89,71.243L432.13,72.679L432.37,72.607L432.61,71.362L432.85,71.461L433.09,79.94L433.33,72.011L433.57,71.394L433.81,73.215L434.06,72.956L434.3,71.094L434.54,71.595L434.78,75.125L435.02,75.311L435.26,73.864L435.5,72.854" style="fill:none;stroke:#F15A60;stroke-width:1.875" />
<path d="M60.137,53.487L60.378,49.304L60.618,49.836L60.858,47.673L61.099,48.121L61.339,47.866L61.579,47.915L61.82,48.414L62.06,48.065L62.3,48.594L62.541,48.986L62.781,48.357L63.021,48.531L63.261,48.762L63.502,48.351L63.742,48.359L63.982,49.309L64.223,47.186L64.463,48.303L64.703,48.189L64.944,47.986L65.184,50.003L65.424,48.207L65.665,47.528L65.905,47.865L66.145,47.975L66.385,47.47L66.626,48.729L66.866,47.276L67.106,49.049L67.347,47.662L67.587,48.788L67.827,48.565L68.068,48.837L68.308,48.073L68.548,48.613L68.789,48.291L69.029,48.598L69.269,48.252L69.509,48.808L69.75,48.206L69.99,49.046L70.23,49.064L70.471,47.62L70.711,47.645L70.951,47.675L71.192,48.026L71.432,48.284L71.672,47.789L71.913,48.165L72.153,48.365L72.393,48.364L72.633,48.965L72.874,48.655L73.114,48.602L73.354,49.204L73.595,48.873L73.835,48.603L74.075,48.623L74.316,49.586L74.556,49.135L74.796,50.314L75.037,49.732L75.277,48.972L75.517,47.736L75.757,48.806L75.998,49.016L76.238,48.359L76.478,48.394L76.719,48.72L76.959,49.298L77.199,48.283L77.44,49.326L77.68,48.621L77.92,48.922L78.161,48.527L78.401,48.085L78.641,47.811L78.881,48.215L79.122,48.571L79.362,49.059L79.602,49.966L79.843,49.61L80.083,48.666L80.323,48.858L80.564,47.559L80.804,49.188L81.044,47.544L81.285,47.735L81.525,48.623L81.765,48.243L82.005,47.783L82.246,47.916L82.486,49.182L82.726,51.116L82.967,48.182L83.207,48.669L83.447,52.251L83.688,49.523L83.928,48.915L84.168,48.694L84.408,48.71L84.649,49.373L84.889,49.631L85.129,47.511L85.37,47.123L85.61,47.815L85.85,48.942L86.091,48.726L86.331,48.267L86.571,47.466L86.812,48.578L87.052,49.19L87.292,48.903L87.532,49.221L87.773,48.266L88.013,48.539L88.253,48.224L88.494,48.848L88.734,49.154L88.974,48.211L89.215,48.865L89.455,49.334L89.695,48.456L89.936,47.497L90.176,48L90.416,47.5L90.656,47.087L90.897,48.419L91.137,48.324L91.377,48.09L91.618,47.386L91.858,49.212L92.098,48.33L92.339,48.1L92.579,47.401L92.819,47.955L93.06,48.334L93.3,47.631L93.54,47.862L93.78,48.386L94.021,48.538L94.261,49.577L94.501,48.675L94.742,49.036L94.982,48.639L95.222,48.465L95.463,48.628L95.703,48.824L95.943,48.269L96.184,49.148L96.424,49.247L96.664,48.753L96.904,49.409L97.145,47.824L97.385,48.77L97.625,48.349L97.866,48.306L98.106,48.075L98.346,47.723L98.587,49.554L98.827,48.242L99.067,48.404L99.308,47.943L99.548,48.087L99.788,48.234L100.03,48.83L100.27,48.821L100.51,48.623L100.75,49.168L100.99,48.75L101.23,49.715L101.47,50.569L101.71,48.966L101.95,49.654L102.19,48.932L102.43,49.5L102.67,49.378L102.91,49.984L103.15,49.47L103.39,49.715L103.63,48.738L103.87,49.248L104.11,49.286L104.35,48.865L104.59,51.018L104.83,49.1L105.07,48.828L105.32,49.594L105.56,74.272L105.8,53.174L106.04,49.031L106.28,48.343L106.52,48.057L106.76,48.062L107,48.046L107.24,48.013L107.48,48.369L107.72,48.695L107.96,48.937L108.2,48.435L108.44,47.827L108.68,49.287L108.92,48.729L109.16,49.085L109.4,49.37L109.64,48.822L109.88,48.664L110.12,48.04L110.36,49.461L110.6,48.879L110.84,48.509L111.08,48.422L111.32,48.741L111.56,48.033L111.8,48.734L112.04,48.352L112.28,48.382L112.52,48.427L112.76,48.636L113.01,48.076L113.25,48.573L113.49,47.994L113.73,49.961L113.97,48.262L114.21,48.868L114.45,49.394L114.69,49.281L114.93,48.051L115.17,49.69L115.41,48.459L115.65,49.457L115.89,48.09L116.13,47.674L116.37,48.362L116.61,47.912L116.85,48.188L117.09,49.171L117.33,48.953L117.57,49.159L117.81,48.882L118.05,49.012L118.29,49.289L118.53,48.83L118.77,49.102L119.01,49.663L119.25,49.423L119.49,48.663L119.73,48.269L119.97,48.581L120.21,50.122L120.45,48.663L120.69,47.03L120.94,47.22L121.18,47.522L121.42,47.639L121.66,47.423L121.9,48.09L122.14,47.406L122.38,47.694L122.62,47.882L122.86,47.421L123.1,48.233L123.34,48.024L123.58,48.405L123.82,49.303L124.06,48.349L124.3,48.355L124.54,62.077L124.78,48.967L125.02,48.284L125.26,52.698L125.5,52.007L125.74,47.908L125.98,48.768L126.22,49.777L126.46,48.757L126.7,48.245L126.94,48.547L127.18,48.732L127.42,48.151L127.66,47.861L127.9,47.821L128.14,48.796L128.38,48.243L128.62,49.281L128.87,49.84L129.11,49.188L129.35,48.603L129.59,48.87L129.83,48.664L130.07,48.041L130.31,48.348L130.55,47.823L130.79,48.681L131.03,47.878L131.27,48.659L131.51,48.164L131.75,49.035L131.99,48.394L132.23,48.364L132.47,48.903L132.71,48.381L132.95,48.353L133.19,48.109L133.43,49.26L133.67,50.503L133.91,49.253L134.15,49.009L134.39,48.121L134.63,48.482L134.87,48.558L135.11,49.004L135.35,48.497L135.59,48.007L135.83,47.778L136.07,47.916L136.31,47.642L136.56,48.583L136.8,48.427L137.04,48.505L137.28,47.943L137.52,48.94L137.76,48.598L138,48.326L138.24,48.853L138.48,49.116L138.72,49.86L138.96,48.4L139.2,47.64L139.44,47.6L139.68,47.746L139.92,49.657L140.16,48.245L140.4,48.489L140.64,48.246L140.88,47.69L141.12,91.358L141.36,47.879L141.6,47.893L141.84,49.238L142.08,48.768L142.32,48.391L142.56,48.846L142.8,55.925L143.04,48.94L143.28,48.788L143.52,48.298L143.76,49.522L144,54.892L144.24,47.764L144.49,48.316L144.73,47.376L144.97,48.104L145.21,49.03L145.45,48.95L145.69,48.877L145.93,48.742L146.17,48.315L146.41,48.907L146.65,48.46L146.89,49.064L147.13,48.026L147.37,48.371L147.61,48.936L147.85,48.278L148.09,48.131L148.33,50.738L148.57,48.757L148.81,48.206L149.05,48.259L149.29,53.323L149.53,49.722L149.77,48.853L150.01,49.123L150.25,48.998L150.49,48.386L150.73,48.139L150.97,47.593L151.21,48.239L151.45,48.256L151.69,48.428L151.93,48.691L152.18,49.788L152.42,48.673L152.66,48.547L152.9,48.555L153.14,48.417L153.38,48.372L153.62,48.122L153.86,55.579L154.1,48.909L154.34,48.747L154.58,49.274L154.82,48.961L155.06,49.359L155.3,49.585L155.54,49.324L155.78,49.054L156.02,49.546L156.26,49.785L156.5,48.379L156.74,76.076L156.98,48.495L157.22,48.437L157.46,48.845L157.7,57.106L157.94,49.08L158.18,48.995L158.42,48.552L158.66,48.34L158.9,49.911L159.14,49.083L159.38,49.238L159.62,49.192L159.86,49.013L160.11,48.94L160.35,50.167L160.59,50.657L160.83,49.615L161.07,49.625L161.31,49.669L161.55,49.044L161.79,48.858L162.03,48.427L162.27,49.086L162.51,49.785L162.75,52.261L162.99,50.239L163.23,49.154L163.47,48.346L163.71,48.955L163.95,48.481L164.19,49.234L164.43,50.991L164.67,49.337L164.91,48.787L165.15,48.493L165.39,48.067L165.63,48.278L165.87,48.611L166.11,47.926L166.35,49.508L166.59,48.265L166.83,47.822L167.07,48.556L167.31,48.949L167.55,48.432L167.79,48.444L168.04,47.8L168.28,48.681L168.52,48.282L168.76,48.806L169,48.817L169.24,48.463L169.48,48.265L169.72,50.736L169.96,50.235L170.2,48.478L170.44,47.989L170.68,48.951L170.92,48.383L171.16,48.27L171.4,49.742L171.64,47.808L171.88,48.515L172.12,49.031L172.36,49.303L172.6,50.883L172.84,49.825L173.08,48.51L173.32,48.217L173.56,48.828L173.8,48.626L174.04,48.647L174.28,49.563L174.52,50.164L174.76,49.854L175,49.703L175.24,50.013L175.48,49.297L175.73,49.679L175.97,48.69L176.21,48.387L176.45,49.081L176.69,48.103L176.93,49.169L177.17,50.366L177.41,62.427L177.65,49.372L177.89,49.959L178.13,52.023L178.37,50.222L178.61,50.673L178.85,48.944L179.09,48.191L179.33,49.235L179.57,48.715L179.81,49.393L180.05,48.729L180.29,47.951L180.53,48.352L180.77,48.117L181.01,48.813L181.25,48.781L181.49,48.639L181.73,48.797L181.97,48.231L182.21,94.962L182.45,48.086L182.69,62.024L182.93,49.469L183.17,48.361L183.41,49.275L183.66,49.314L183.9,48.89L184.14,48.573L184.38,49.607L184.62,50.2L184.86,48.364L185.1,49.182L185.34,48.523L185.58,48.73L185.82,49.412L186.06,48.285L186.3,48.388L186.54,48.077L186.78,48.183L187.02,48.662L187.26,47.769L187.5,48.557L187.74,48.673L187.98,48.557L188.22,49.377L188.46,48.587L188.7,47.795L188.94,49.173L189.18,49.103L189.42,49.471L189.66,49.689L189.9,51.328L190.14,49.81L190.38,50.115L190.62,49.167L190.86,48.458L191.1,47.927L191.35,48.789L191.59,48.89L191.83,49.028L192.07,49.386L192.31,49.791L192.55,49.094L192.79,49.942L193.03,47.685L193.27,48.453L193.51,48.218L193.75,48.863L193.99,48.255L194.23,49.688L194.47,48.398L194.71,49.23L194.95,47.929L195.19,47.884L195.43,47.765L195.67,49.401L195.91,47.281L196.15,48.95L196.39,47.994L196.63,47.701L196.87,49.351L197.11,48.355L197.35,49.337L197.59,49.785L197.83,49.848L198.07,49.287L198.31,49.998L198.55,50.052L198.79,50.841L199.03,49.4L199.28,49.576L199.52,49.098L199.76,48.562L200,49.992L200.24,48.591L200.48,49.703L200.72,47.9L200.96,49.637L201.2,50.471L201.44,50.349L201.68,48.556L201.92,49.05L202.16,49.041L202.4,52.369L202.64,48.699L202.88,50.844L203.12,48.019L203.36,48.688L203.6,49.717L203.84,50.513L204.08,48.984L204.32,49.338L204.56,48.418L204.8,49.041L205.04,49.461L205.28,49.383L205.52,49.312L205.76,48.132L206,48.639L206.24,48.274L206.48,48.219L206.72,48.675L206.97,48.984L207.21,47.499L207.45,48.067L207.69,48.629L207.93,48.154L208.17,48.169L208.41,47.929L208.65,54.968L208.89,47.849L209.13,48.619L209.37,48.748L209.61,56.078L209.85,49.571L210.09,49.592L210.33,48.663L210.57,48.055L210.81,48.398L211.05,49.041L211.29,48.135L211.53,49.055L211.77,48.643L212.01,48.723L212.25,60.378L212.49,48.59L212.73,49.12L212.97,49.18L213.21,48.887L213.45,49.089L213.69,49.143L213.93,48.762L214.17,48.974L214.41,48.711L214.65,48.383L214.9,47.167L215.14,49.579L215.38,47.403L215.62,48.165L215.86,48.79L216.1,49.519L216.34,48.105L216.58,49.921L216.82,48.249L217.06,49.239L217.3,48.991L217.54,48.483L217.78,49.068L218.02,49.061L218.26,49.795L218.5,49.699L218.74,49.201L218.98,48.813L219.22,48.686L219.46,51.855L219.7,49.936L219.94,50.476L220.18,48.692L220.42,48.61L220.66,48.633L220.9,48.526L221.14,49.155L221.38,48.087L221.62,48.776L221.86,48.252L222.1,249.95L222.34,48.456L222.58,48.311L222.83,48.632L223.07,48.231L223.31,47.525L223.55,48.036L223.79,47.467L224.03,48.465L224.27,48.1L224.51,52.848L224.75,49.139L224.99,48.374L225.23,48.62L225.47,48.593L225.71,48.092L225.95,49.441L226.19,48.022L226.43,48.836L226.67,50.12L226.91,50.237L227.15,49.112L227.39,48.77L227.63,48.019L227.87,48.492L228.11,48.322L228.35,48.963L228.59,49.167L228.83,48.588L229.07,48.339L229.31,49.553L229.55,47.983L229.79,49.193L230.03,47.887L230.27,51.265L230.52,48.489L230.76,49.135L231,49.135L231.24,48.746L231.48,48.302L231.72,49.327L231.96,49.314L232.2,48.705L232.44,48.297L232.68,49.36L232.92,49.162L233.16,48.88L233.4,48.534L233.64,48.767L233.88,48.765L234.12,48.941L234.36,50.345L234.6,48.827L234.84,48.702L235.08,48.988L235.32,48.34L235.56,48.521L235.8,48.029L236.04,48.8L236.28,48.544L236.52,48.529L236.76,49.033L237,48.973L237.24,47.94L237.48,48.043L237.72,49.585L237.96,48.581L238.2,52.181L238.45,64.142L238.69,47.908L238.93,47.421L239.17,47.918L239.41,47.686L239.65,50.202L239.89,55.68L240.13,48.166L240.37,47.712L240.61,71.737L240.85,48.644L241.09,48.74L241.33,48.375L241.57,48.042L241.81,50.68L242.05,48.8L242.29,49.557L242.53,48.33L242.77,52.599L243.01,49.563L243.25,48.763L243.49,48.46L243.73,47.778L243.97,48.69L244.21,50.672L244.45,49.009L244.69,48.805L244.93,48.319L245.17,48.584L245.41,49.391L245.65,49.092L245.89,48.071L246.14,79.017L246.38,49.128L246.62,48.162L246.86,49.174L247.1,50.914L247.34,49.791L247.58,48.233L247.82,49.656L248.06,48.92L248.3,49.436L248.54,49.984L248.78,49.012L249.02,49.491L249.26,50.386L249.5,48.602L249.74,49.484L249.98,48.794L250.22,48.564L250.46,48.166L250.7,48.847L250.94,48.797L251.18,49.044L251.42,49.34L251.66,48.619L251.9,49.054L252.14,48.931L252.38,48.785L252.62,50.162L252.86,48.065L253.1,48.564L253.34,48.677L253.58,51.637L253.82,49.191L254.07,50.388L254.31,49.797L254.55,49.168L254.79,48.707L255.03,49.821L255.27,49.505L255.51,50.685L255.75,52.084L255.99,50.183L256.23,50.183L256.47,49.684L256.71,49.635L256.95,78.152L257.19,50.176L257.43,50.139L257.67,50.665L257.91,49.282L258.15,49.454L258.39,48.426L258.63,52.512L258.87,47.433L259.11,50.034L259.35,48.693L259.59,47.339L259.83,48.313L260.07,49.176L260.31,51.256L260.55,48.758L260.79,48.259L261.03,48.86L261.27,48.943L261.51,49.422L261.75,49.656L262,50.719L262.24,50.097L262.48,48.953L262.72,49.371L262.96,133.83L263.2,52.233L263.44,48.976L263.68,49.27L263.92,48.689L264.16,50.211L264.4,51.352L264.64,49.727L264.88,48.897L265.12,48.205L265.36,49.545L265.6,50.625L265.84,48.412L266.08,48.941L266.32,50.377L266.56,52.946L266.8,48.194L267.04,48.782L267.28,48.754L267.52,48.9L267.76,48.518L268,48.736L268.24,51.952L268.48,49.703L268.72,48.852L268.96,48.412L269.2,48.528L269.44,48.59L269.69,49.029L269.93,48.835L270.17,49.134L270.41,48.322L270.65,48.874L270.89,48.221L271.13,50.058L271.37,49.839L271.61,48.712L271.85,49.119L272.09,50.509L272.33,48.205L272.57,48.77L272.81,48.292L273.05,48.747L273.29,48.164L273.53,49.352L273.77,53.821L274.01,47.871L274.25,60.893L274.49,49.531L274.73,47.944L274.97,48.028L275.21,48.229L275.45,48.863L275.69,48.059L275.93,48.498L276.17,49.16L276.41,47.725L276.65,48.544L276.89,47.736L277.13,47.597L277.37,49.51L277.62,48.146L277.86,48.076L278.1,47.275L278.34,47.636L278.58,47.665L278.82,47.092L279.06,47.513L279.3,47.856L279.54,48.989L279.78,53.355L280.02,49.399L280.26,48.634L280.5,48.928L280.74,51.081L280.98,49.168L281.22,51.871L281.46,47.813L281.7,48.838L281.94,49.199L282.18,49.147L282.42,48.837L282.66,49.05L282.9,49.614L283.14,49.198L283.38,49.3L283.62,50.889L283.86,53.372L284.1,49.299L284.34,50.732L284.58,49.315L284.82,48.753L285.06,49.442L285.31,48.748L285.55,48.933L285.79,48.369L286.03,48.092L286.27,49.036L286.51,48.439L286.75,49.471L286.99,48.516L287.23,48.929L287.47,49.255L287.71,49.226L287.95,48.767L288.19,51.657L288.43,49.294L288.67,49.836L288.91,48.64L289.15,48.798" style="fill:none;stroke:#7AC36A;stroke-width:1.875;stroke-dasharray:7.5,2.5" />
<path d="M60.137,162.28L60.378,186.06L60.618,170.32L60.858,158.14L61.099,165.47L61.339,162.82L61.579,159.16L61.82,155.72L62.06,166.41L62.3,154.9L62.541,153.84L62.781,168.31L63.021,158.96L63.261,158.85L63.502,160.1L63.742,159.13L63.982,165.3L64.223,156.1L64.463,157.18L64.703,147.8L64.944,157.91L65.184,188.07L65.424,158.3L65.665,159.63L65.905,159.84L66.145,156.58L66.385,159.73L66.626,155.33L66.866,167.52L67.106,155.27L67.347,151.57L67.587,166.08L67.827,163.62L68.068,161.09L68.308,171.32L68.548,157.96L68.789,152.05L69.029,154.93L69.269,152.24L69.509,158.86L69.75,158.19L69.99,165.23L70.23,153.97L70.471,192.6L70.711,209.16L70.951,157.92L71.192,149.98L71.432,156.79L71.672,161.81L71.913,153.17L72.153,154.56L72.393,172.5L72.633,160.53L72.874,161.26L73.114,161.36L73.354,170.78L73.595,181.3L73.835,170.58L74.075,169.38L74.316,173.3L74.556,180.01L74.796,201.71L75.037,155.23L75.277,166.2L75.517,157.42L75.757,166.22L75.998,185.24L76.238,155.29L76.478,159.12L76.719,161.15L76.959,175.7L77.199,161.9L77.44,162.29L77.68,164.9L77.92,188.23L78.161,163.85L78.401,158.17L78.641,163.61L78.881,158.58L79.122,162.63L79.362,160.79L79.602,162.15L79.843,158.41L80.083,171.6L80.323,165.32L80.564,166.76L80.804,162.79L81.044,165.32L81.285,161.39L81.525,161.02L81.765,159.64L82.005,153.43L82.246,157.72L82.486,161.25L82.726,176.88L82.967,162.68L83.207,156.91L83.447,151.21L83.688,164.67L83.928,165.8L84.168,155.22L84.408,154L84.649,187.44L84.889,163.5L85.129,159.02L85.37,160.07L85.61,159.97L85.85,158.87L86.091,153.03L86.331,153.3L86.571,153.83L86.812,156.62L87.052,160.13L87.292,158.85L87.532,172.2L87.773,164.85L88.013,164L88.253,159.51L88.494,159.57L88.734,173.1L88.974,165.29L89.215,150.81L89.455,161.93L89.695,161.74L89.936,160.64L90.176,163.53L90.416,182.27L90.656,253.03L90.897,257.1L91.137,285.67L91.377,323.25L91.618,302.12L91.858,179.75L92.098,296.91L92.339,345.78L92.579,347.04L92.819,340.59L93.06,339.73L93.3,308.79L93.54,318.33L93.78,326.43L94.021,213.28L94.261,347.07L94.501,311.3L94.742,210.72L94.982,165.76L95.222,155L95.463,152.34L95.703,145.85L95.943,138.65L96.184,149.4L96.424,143.39L96.664,141.16L96.904,147.32L97.145,143.05L97.385,146.72L97.625,147.46L97.866,148.48L98.106,141.31L98.346,142.26L98.587,142.11L98.827,145.64L99.067,143.22L99.308,137.69L99.548,137.72L99.788,158.9L100.03,144.83L100.27,132.61L100.51,137.59L100.75,134.4L100.99,137.82L101.23,140.7L101.47,138.88L101.71,133.34L101.95,137.68L102.19,140.98L102.43,134.82L102.67,135.02L102.91,137.06L103.15,133.71L103.39,138.74L103.63,133.17L103.87,129.91L104.11,136.77L104.35,133.11L104.59,135.3L104.83,140.78L105.07,130.5L105.32,128.76L105.56,130.45L105.8,131.55L106.04,129.05L106.28,130.58L106.52,136.02L106.76,143.03L107,139.11L107.24,133.31L107.48,135.79L107.72,131.93L107.96,132.96L108.2,136L108.44,135.73L108.68,128.78L108.92,128.11L109.16,130.84L109.4,129.6L109.64,125.03L109.88,133.51L110.12,140.06L110.36,130.85L110.6,132.69L110.84,152.37L111.08,192.38L111.32,159.53L111.56,160.34L111.8,164.2L112.04,147.19L112.28,152.67L112.52,161.98L112.76,198.2L113.01,174.66L113.25,163.74L113.49,177.62L113.73,194.81L113.97,171.27L114.21,151.37L114.45,153.41L114.69,186.22L114.93,160.09L115.17,162.91L115.41,200.04L115.65,158.64L115.89,217.42L116.13,193.05L116.37,166.37L116.61,172.13L116.85,169.27L117.09,206.58L117.33,206.15L117.57,193.19L117.81,198.59L118.05,170.69L118.29,227.15L118.53,200.85L118.77,210.2L119.01,204.1L119.25,186.94L119.49,187.57L119.73,208.3L119.97,189.55L120.21,209.67L120.45,202.59L120.69,178.63L120.94,192.08L121.18,171.83L121.42,207.52L121.66,212.88L121.9,264.13L122.14,188.67L122.38,196.55L122.62,218.79L122.86,221.97L123.1,268.12L123.34,291.01L123.58,242.18L123.82,184.88L124.06,196.1L124.3,218.03L124.54,249.93L124.78,196.32L125.02,225.09L125.26,216.53L125.5,259.76L125.74,282.07L125.98,222.31L126.22,243.23L126.46,380.26L126.7,382.83L126.94,369.65L127.18,366.32L127.42,379.1L127.66,374.31L127.9,295.21L128.14,285.21L128.38,289.24L128.62,318.52L128.87,289.21L129.11,311.55L129.35,319.32L129.59,264.35L129.83,250.83L130.07,236.31L130.31,244.3L130.55,248.78L130.79,281.07L131.03,287.13L131.27,247.03L131.51,258.53L131.75,281.81L131.99,269.03L132.23,260.38L132.47,296.16L132.71,301.06L132.95,317.62L133.19,278.77L133.43,226.94L133.67,235.47L133.91,270.19L134.15,269.61L134.39,305.67L134.63,310.03L134.87,324.11L135.11,320.06L135.35,318.76L135.59,307.97L135.83,313.57L136.07,328.13L136.31,319.43L136.56,316.75L136.8,319.62L137.04,322.31L137.28,293.95L137.52,294.14L137.76,288.98L138,302L138.24,332.12L138.48,313.05L138.72,332.11L138.96,322.16L139.2,314.92L139.44,310.8L139.68,305.18L139.92,286.79L140.16,313.5L140.4,318.16L140.64,323.07L140.88,319.39L141.12,312.35L141.36,320.74L141.6,329.59L141.84,333.59L142.08,274.76L142.32,280.36L142.56,270.77L142.8,241.99L143.04,297.57L143.28,254.54L143.52,280.87L143.76,209.85L144,173.04L144.24,198.22L144.49,171.34L144.73,233.39L144.97,253.17L145.21,177.13L145.45,208.39L145.69,204.68L145.93,274.13L146.17,259.68L146.41,250.19L146.65,215.46L146.89,339.48L147.13,433.61L147.37,401.33L147.61,419.34L147.85,364.56L148.09,324.52L148.33,214.18L148.57,153.93L148.81,266.89L149.05,323.66L149.29,198.41L149.53,149.71L149.77,151.23L150.01,147.88L150.25,152.57L150.49,157.67L150.73,157.15L150.97,161.56L151.21,143.64L151.45,151.41L151.69,153.23L151.93,148.06L152.18,153.54L152.42,138.62L152.66,151.8L152.9,160.66L153.14,148.83L153.38,151.24L153.62,160.2L153.86,150.07L154.1,149.91L154.34,150.47L154.58,153.08L154.82,147.91L155.06,150.26L155.3,149.76L155.54,152.3L155.78,147.65L156.02,145.52L156.26,155.24L156.5,147.88L156.74,142.97L156.98,141.46L157.22,143.86L157.46,151.97L157.7,147.04L157.94,142.74L158.18,138.61L158.42,148.61L158.66,137.41L158.9,138.82L159.14,146.02L159.38,142.26L159.62,144.6L159.86,143.27L160.11,137.31L160.35,141.39L160.59,143.57L160.83,138.68L161.07,152.7L161.31,132.72L161.55,142.58L161.79,133.06L162.03,143.43L162.27,140.36L162.51,147.55L162.75,133.81L162.99,139.97L163.23,137.96L163.47,135.88L163.71,142.08L163.95,138.44L164.19,144.66L164.43,138.11L164.67,134.35L164.91,143.12L165.15,129.98L165.39,132.03L165.63,141.46L165.87,139.73L166.11,131.04L166.35,129.15L166.59,131.66L166.83,125.67L167.07,137.77L167.31,133.42L167.55,132.64L167.79,129.92L168.04,134.49L168.28,151.1L168.52,163.87L168.76,148.98L169,147.8L169.24,147.57L169.48,147.71L169.72,151.99L169.96,157.53L170.2,188.17L170.44,166.39L170.68,149.67L170.92,151.06L171.16,145.99L171.4,146.35L171.64,158.06L171.88,207.08L172.12,197.82L172.36,174.97L172.6,155.26L172.84,167.71L173.08,153.09L173.32,142.51L173.56,142.51L173.8,136.65L174.04,147.04L174.28,163.4L174.52,155.76L174.76,152.62L175,171.81L175.24,228.02L175.48,156.56L175.73,144.5L175.97,159.39L176.21,165.16L176.45,195.63L176.69,215.88L176.93,231.11L177.17,174.24L177.41,205.04L177.65,250.16L177.89,198.89L178.13,138.13L178.37,138.27L178.61,154.6L178.85,139.47L179.09,143.19L179.33,139.15L179.57,138.85L179.81,137.06L180.05,132.45L180.29,138.03L180.53,153.73L180.77,140.8L181.01,133.6L181.25,140.63L181.49,215.47L181.73,186.08L181.97,171.6L182.21,148.8L182.45,133.13L182.69,137.73L182.93,134.41L183.17,131.74L183.41,130.09L183.66,148.35L183.9,135.79L184.14,147.25L184.38,132.46L184.62,129.91L184.86,148.35L185.1,137.64L185.34,149.91L185.58,155.11L185.82,141.06L186.06,136.8L186.3,145.45L186.54,136.65L186.78,378.82L187.02,432.04L187.26,422.16L187.5,392.77L187.74,388.28L187.98,417.9L188.22,414.83L188.46,426.18L188.7,385.39L188.94,393.86L189.18,403.59L189.42,415.25L189.66,360.67L189.9,367.81L190.14,364.33L190.38,362.03L190.62,362.93L190.86,371.15L191.1,371.35L191.35,355.45L191.59,363.59L191.83,368.58L192.07,356.18L192.31,352.56L192.55,379.36L192.79,377.22L193.03,353.72L193.27,372.5L193.51,360.01L193.75,359.26L193.99,353.23L194.23,364.77L194.47,376.67L194.71,364.72L194.95,352.89L195.19,344.63L195.43,194.23L195.67,166.67L195.91,172.35L196.15,252.04L196.39,303.45L196.63,374.61L196.87,334.85L197.11,361.55L197.35,370.8L197.59,303.62L197.83,366.06L198.07,337.3L198.31,365.78L198.55,361.67L198.79,216.98L199.03,162.37L199.28,289.79L199.52,359.18L199.76,362.91L200,358.21L200.24,349.5L200.48,320.57L200.72,262.12L200.96,282.87L201.2,154.68L201.44,151.23L201.68,169.87L201.92,157.45L202.16,146.05L202.4,146.03L202.64,163.07L202.88,145.8L203.12,159L203.36,168.76L203.6,305.97L203.84,330.35L204.08,311.26L204.32,179.85L204.56,176.2L204.8,139.65L205.04,146.14L205.28,153.97L205.52,214.72L205.76,139.74L206,143.37L206.24,144.12L206.48,154.97L206.72,147.63L206.97,142.52L207.21,141.21L207.45,180.05L207.69,144.71L207.93,140.33L208.17,141.64L208.41,151.97L208.65,144.04L208.89,139.99L209.13,145.06L209.37,146.4L209.61,146.01L209.85,138.29L210.09,159.59L210.33,160.08L210.57,154.99L210.81,152.68L211.05,159.4L211.29,148.69L211.53,157.61L211.77,159.13L212.01,161.4L212.25,154.35L212.49,152.97L212.73,152.76L212.97,158.06L213.21,161.97L213.45,150.14L213.69,163.23L213.93,162.27L214.17,155.91L214.41,156.46L214.65,149.07L214.9,152.86L215.14,160.01L215.38,157.66L215.62,157.92L215.86,154.32L216.1,149.82L216.34,167.73L216.58,151.54L216.82,153.17L217.06,155.78L217.3,142.32L217.54,167.93L217.78,154.48L218.02,151.92L218.26,148.01L218.5,157.77L218.74,147.2L218.98,149.49L219.22,149.82L219.46,154.13L219.7,148.5L219.94,149.79L220.18,154.48L220.42,153.2L220.66,144.45L220.9,143.74L221.14,147.03L221.38,138.8L221.62,147.92L221.86,149.8L222.1,148.65L222.34,144.83L222.58,149.8L222.83,154.94L223.07,142.96L223.31,155.59L223.55,151.34L223.79,158.6L224.03,158.16L224.27,157.85L224.51,153.24L224.75,155.35L224.99,157.82L225.23,158.15L225.47,147.36L225.71,168.69L225.95,149.99L226.19,152.72L226.43,147.62L226.67,150.32L226.91,164.39L227.15,158.25L227.39,152.82L227.63,149.81L227.87,161.86L228.11,148.05L228.35,144.14L228.59,146.58L228.83,161.34L229.07,156.4L229.31,151.73L229.55,144.42L229.79,149.41L230.03,161.59L230.27,146.93L230.52,143.35L230.76,157.71L231,145.12L231.24,160.33L231.48,151.57L231.72,145.83L231.96,147.09L232.2,146.93L232.44,155.64L232.68,138.52L232.92,146.41L233.16,146.29L233.4,165.07L233.64,147.27L233.88,142.78L234.12,143.38L234.36,144.51L234.6,141.56L234.84,144.28L235.08,149.4L235.32,146.77L235.56,143.34L235.8,145.64L236.04,145.21L236.28,135.21L236.52,139.74L236.76,142.69L237,146.65L237.24,139L237.48,145.72L237.72,140.67L237.96,143.21L238.2,173.57L238.45,151.78L238.69,141.98L238.93,142.75L239.17,143.85L239.41,132.05L239.65,132.22L239.89,133.44L240.13,140.52L240.37,134.65L240.61,137.87L240.85,138.56L241.09,139.84L241.33,143.26L241.57,136.3L241.81,133.2L242.05,135.19L242.29,137.71L242.53,127.73L242.77,135.05L243.01,135.85L243.25,133.01L243.49,133.8L243.73,146.51L243.97,131.01L244.21,129.75L244.45,129.02L244.69,135.66L244.93,128.88L245.17,136.53L245.41,131.9L245.65,134.91L245.89,153.42L246.14,137.16L246.38,128.74L246.62,129.19L246.86,137.68L247.1,139.43L247.34,132.41L247.58,131.52L247.82,127.98L248.06,132.08L248.3,123.03L248.54,124.04L248.78,125.84L249.02,159.42L249.26,265.75L249.5,253.27L249.74,212.59L249.98,205.3L250.22,200.65L250.46,235.77L250.7,233.37L250.94,242.45L251.18,277.37L251.42,272.79L251.66,292.81L251.9,296.48L252.14,262.44L252.38,312.07L252.62,307.65L252.86,317.2L253.1,322.91L253.34,288.71L253.58,241.8L253.82,272.15L254.07,299.8L254.31,224.69L254.55,315.56L254.79,319.19L255.03,322.51L255.27,333.78L255.51,340.81L255.75,317.82L255.99,341.14L256.23,320.88L256.47,267.31L256.71,302.76L256.95,325.49L257.19,327.67L257.43,304.13L257.67,333.23L257.91,322.16L258.15,317.88L258.39,327.77L258.63,329.77L258.87,267.31L259.11,303.83L259.35,330.44L259.59,304.82L259.83,229.71L260.07,198.84L260.31,218.63L260.55,284.11L260.79,248.67L261.03,234.6L261.27,185.39L261.51,134.96L261.75,159.64L262,148.12L262.24,178.89L262.48,203.57L262.72,316.69L262.96,458.91L263.2,422.55L263.44,403.72L263.68,419.47L263.92,440.41L264.16,404.37L264.4,413.58L264.64,407.06L264.88,423.21L265.12,420.58L265.36,203.69L265.6,177.85L265.84,202.61L266.08,182.29L266.32,155.39L266.56,184L266.8,197.66L267.04,197.54L267.28,188.21L267.52,167.93L267.76,172.77L268,169.79L268.24,171L268.48,166.11L268.72,172.84L268.96,172.75L269.2,167.7L269.44,175.65L269.69,201.73L269.93,180.27L270.17,160.47L270.41,172.36L270.65,160.79L270.89,159.37L271.13,176.24L271.37,161.72L271.61,157.01L271.85,157.53L272.09,163.31L272.33,161.75L272.57,162.65L272.81,218.27L273.05,160.02L273.29,164.72L273.53,150.44L273.77,155.01L274.01,165.44L274.25,166.88L274.49,158.82L274.73,157.89L274.97,164.9L275.21,154.95L275.45,176.26L275.69,152.9L275.93,160.41L276.17,151.66L276.41,148.41L276.65,155.35L276.89,162.08L277.13,153.74L277.37,148.63L277.62,163.86L277.86,164.31L278.1,153.68L278.34,157.87L278.58,150.5L278.82,160.28L279.06,153.06L279.3,155.08L279.54,152.45L279.78,143.12L280.02,171.28L280.26,162.24L280.5,152.37L280.74,148.8L280.98,153.34L281.22,154.26L281.46,147.79L281.7,154.86L281.94,155.48L282.18,151.38L282.42,149.79L282.66,156.11L282.9,155.66L283.14,169.89L283.38,157.64L283.62,147.34L283.86,153.19L284.1,167.92L284.34,156.21L284.58,156.6L284.82,151.46L285.06,156.34L285.31,158.26L285.55,151.28L285.79,153.91L286.03,145.83L286.27,148.62L286.51,156.66L286.75,169.25L286.99,144.84L287.23,146.46L287.47,159.36L287.71,142.18L287.95,145.85L288.19,160.67L288.43,141.78L288.67,146.44L288.91,147.45L289.15,143L289.39,139.73L289.63,143.8L289.87,153.74L290.11,140.3L290.35,148.3L290.59,143.07L290.83,142.28L291.07,156.66L291.31,138.6L291.55,135.68L291.79,136.89L292.03,140.05L292.27,140.53L292.51,158.14L292.75,137.19L292.99,140.53L293.24,134.04L293.48,139.48L293.72,142.89L293.96,137.97L294.2,145.09L294.44,144L294.68,168.98L294.92,166.75L295.16,153.92L295.4,139.99L295.64,139.38L295.88,132.65L296.12,130.67L296.36,152.28L296.6,140.85L296.84,149.55L297.08,163.02L297.32,145.02L297.56,178.94L297.8,147.61L298.04,138.36L298.28,140.34L298.52,139.76L298.76,139.22L299,147.02L299.24,140.37L299.48,179.42L299.72,143.53L299.96,143.58L300.2,140.72L300.44,140.64L300.68,136.07L300.93,148.64L301.17,145.03L301.41,140.42L301.65,161.1L301.89,133.63L302.13,137.23L302.37,141.45L302.61,147.46L302.85,144.19L303.09,175.76L303.33,140.2L303.57,169.82L303.81,176.05L304.05,145.27L304.29,156L304.53,152.24L304.77,144.79L305.01,129.62L305.25,141.46L305.49,168.22L305.73,135.47L305.97,139.21L306.21,152.09L306.45,164.53L306.69,138.94L306.93,127.38L307.17,132.84L307.41,131.41L307.65,129.45L307.89,131.46L308.13,129.57L308.37,149.65L308.61,127.14L308.86,127.85L309.1,127.72L309.34,138.62L309.58,150.12L309.82,129.69L310.06,205.9L310.3,266.88L310.54,293.81L310.78,257.72L311.02,271.28L311.26,279.65L311.5,228.89L311.74,280.19L311.98,286.68L312.22,332.77L312.46,282.84L312.7,227.65L312.94,177.91L313.18,163.9L313.42,184.15L313.66,165.57L313.9,174.63L314.14,156.75L314.38,149.89L314.62,162.89L314.86,154.34L315.1,149.88L315.34,165.1L315.58,165.76L315.82,157.67L316.06,154.52L316.3,152.32L316.54,145.91L316.79,159.15L317.03,151.98L317.27,147.47L317.51,153.32L317.75,165.52L317.99,157.07L318.23,155.06L318.47,151.52L318.71,163.66L318.95,156.82L319.19,149.11L319.43,151.64L319.67,192.05L319.91,167.2L320.15,155.88L320.39,153.05L320.63,155.5L320.87,159.54L321.11,165.38L321.35,157.67L321.59,155.31L321.83,155.03L322.07,147.94L322.31,155.07L322.55,158.19L322.79,158.34L323.03,153.59L323.27,150.58L323.51,150.97L323.75,147.78L323.99,149.46L324.23,151.5L324.48,149.07L324.72,183.09L324.96,148.44L325.2,149.07L325.44,150.22L325.68,146.88L325.92,156.89L326.16,150.16L326.4,139.29L326.64,148.85L326.88,153.61L327.12,171.73L327.36,153.8L327.6,143.32L327.84,147.99L328.08,141.35L328.32,151.72L328.56,164.8L328.8,143.21L329.04,143.16L329.28,147.69L329.52,144.93L329.76,158L330,148.68L330.24,142.03L330.48,141.46L330.72,143.93L330.96,141.46L331.2,152.05L331.44,148.51L331.68,136.98L331.92,144.15L332.16,135.96L332.41,150.22L332.65,132.22L332.89,144.89L333.13,139.8L333.37,140.66L333.61,141.82L333.85,142.9L334.09,137.4L334.33,154.38L334.57,229.8L334.81,379.89L335.05,418.64L335.29,423.19L335.53,320.73L335.77,410.91L336.01,328.88L336.25,409.32L336.49,422.74L336.73,420.75L336.97,395.08L337.21,316.28L337.45,339.06L337.69,420.69L337.93,431.34L338.17,406.96L338.41,395.68L338.65,376.1L338.89,403.11L339.13,304.34L339.37,424.32L339.61,404.91L339.85,414.71L340.1,416.03L340.34,431.27L340.58,456.75L340.82,413.28L341.06,214.23L341.3,202.9L341.54,337.13L341.78,382.66L342.02,404.95L342.26,419.7L342.5,438.54L342.74,396.73L342.98,298.49L343.22,402.22L343.46,402.51L343.7,418.05L343.94,413.6L344.18,414.29L344.42,402.67L344.66,303.89L344.9,312.06L345.14,376.91L345.38,188.39L345.62,161.63L345.86,160.49L346.1,164.16L346.34,156.84L346.58,167.4L346.82,156.96L347.06,165.87L347.3,155.48L347.54,166.22L347.78,163.09L348.03,155.93L348.27,158L348.51,161.75L348.75,190.64L348.99,158.97L349.23,158.84L349.47,154.28L349.71,156.42L349.95,173.62L350.19,163.09L350.43,155.6L350.67,164L350.91,156.36L351.15,161.52L351.39,159.81L351.63,164.46L351.87,174.36L352.11,174.95L352.35,195.07L352.59,166.98L352.83,145.71L353.07,157.36L353.31,156.52L353.55,162.9L353.79,214.93L354.03,164.46L354.27,151.96L354.51,150.33L354.75,154.73L354.99,159.71L355.23,164.96L355.47,181.22L355.71,157.74L355.96,151.71L356.2,153.12L356.44,163.74L356.68,160.02L356.92,159.81L357.16,160.51L357.4,193.16L357.64,164.62L357.88,174.86L358.12,154.45L358.36,152.16L358.6,159.05L358.84,159.19L359.08,177.7L359.32,174.17L359.56,160.63L359.8,146.19L360.04,149.77L360.28,144.84L360.52,162.95L360.76,159.61L361,158.68L361.24,151.49L361.48,152.7L361.72,149.4L361.96,156.92L362.2,156.47L362.44,157.15L362.68,162.19L362.92,211.85L363.16,154.6L363.4,168.53L363.65,165.76L363.89,154.11L364.13,147.58L364.37,160.85L364.61,167.81L364.85,191.52L365.09,166.82L365.33,203.7L365.57,382.56L365.81,415.48L366.05,432.61L366.29,430.61L366.53,413.5L366.77,386.85L367.01,243.68L367.25,378.32L367.49,437.33L367.73,398.62L367.97,343.03L368.21,378.48L368.45,443.94L368.69,380.32L368.93,377.7L369.17,413.85L369.41,421.47L369.65,417.11L369.89,451.76L370.13,429.13L370.37,412.71L370.61,323.75L370.85,292.06L371.09,409.99L371.33,423.26L371.58,402.89L371.82,390.3L372.06,516.28L372.3,372.37L372.54,328.01L372.78,253.84L373.02,441.41L373.26,385.24L373.5,399.34L373.74,418.29L373.98,407.61L374.22,417.5L374.46,331.61L374.7,386.22L374.94,415.43L375.18,422.17L375.42,414.91L375.66,411.89L375.9,380.06L376.14,362.27L376.38,412.01L376.62,313.57L376.86,192.13L377.1,170.22L377.34,175.71L377.58,171.2L377.82,186.86L378.06,168.99L378.3,182.02L378.54,165.15L378.78,161.03L379.02,159.74L379.27,164.52L379.51,196.95L379.75,164.9L379.99,155.56L380.23,155.59L380.47,159.12L380.71,160.6L380.95,167.46L381.19,165.77L381.43,161.45L381.67,163.02L381.91,163.18L382.15,176.21L382.39,151.62L382.63,158.57L382.87,166.43L383.11,164.13L383.35,164.37L383.59,238.51L383.83,166.41L384.07,169.11L384.31,156.85L384.55,174.05L384.79,159.55L385.03,175.72L385.27,157.23L385.51,155.58L385.75,158.74L385.99,167.16L386.23,153.32L386.47,179.5L386.71,161.33L386.95,159.73L387.2,148.68L387.44,154.2L387.68,157.17L387.92,167.18L388.16,157.84L388.4,163.37L388.64,161.14L388.88,150.6L389.12,151.71L389.36,165.37L389.6,149.03L389.84,148.49L390.08,157.55L390.32,156.95L390.56,149.54L390.8,162.82L391.04,152.7L391.28,150.93L391.52,146.57L391.76,148.13L392,153.9L392.24,203.59L392.48,154.11L392.72,154.24L392.96,142.3L393.2,151.62L393.44,151.09L393.68,145.87L393.92,162.68L394.16,184.62L394.4,156.03L394.64,142.27L394.89,146.05L395.13,149.67L395.37,156.58L395.61,146.1L395.85,155.43L396.09,147.08L396.33,154.44L396.57,144.34L396.81,144.68L397.05,158.77L397.29,143.26L397.53,146.93L397.77,147.63L398.01,148.29L398.25,145.21L398.49,144.69L398.73,163.45L398.97,145.57L399.21,147.42L399.45,145.72L399.69,152.99L399.93,163.19L400.17,149.94L400.41,155.6L400.65,144.82L400.89,142.94L401.13,151.46L401.37,138.26L401.61,137.38L401.85,144.62L402.09,143.99L402.33,148.83L402.57,141.96L402.82,137.71L403.06,132.75L403.3,138.21L403.54,133.94L403.78,136.11L404.02,144.75L404.26,132.27L404.5,141.69L404.74,141.09L404.98,134.84L405.22,133.09L405.46,130.55L405.7,133.97L405.94,144.58L406.18,130.58L406.42,131.43L406.66,144.23L406.9,136.49L407.14,135.13L407.38,137.27L407.62,139.61L407.86,143.37L408.1,137.02L408.34,133.44L408.58,126.23L408.82,129.65L409.06,134.45L409.3,129.85L409.54,132.37L409.78,129.16L410.02,156.5L410.26,137.78L410.5,130.98L410.75,134.93L410.99,137.25L411.23,142.11L411.47,153.51L411.71,232.7L411.95,424.12L412.19,430.24L412.43,371.41L412.67,458.48L412.91,458.44L413.15,431.77L413.39,445.72L413.63,459.54L413.87,443.82L414.11,432.33L414.35,494.96L414.59,450.47L414.83,443.12L415.07,425.68L415.31,431.37L415.55,434.34L415.79,470.77L416.03,294.41L416.27,409.05L416.51,429.02L416.75,416.17L416.99,396.94L417.23,430.8L417.47,391.8L417.71,598.23L417.95,415.72L418.19,404.37L418.44,291.67L418.68,235.42L418.92,180.65L419.16,188.23L419.4,178.89L419.64,186.86L419.88,176.63L420.12,171.85L420.36,171.45L420.6,167.63L420.84,226.56L421.08,191.79L421.32,163.64L421.56,168.6L421.8,172.96L422.04,182.31L422.28,187.88L422.52,184.18L422.76,201.4L423,168.99L423.24,172.22L423.48,170.16L423.72,164.7L423.96,185.07L424.2,162.74L424.44,162.69L424.68,209.39L424.92,166.83L425.16,169.81L425.4,175.67L425.64,264.56L425.88,196.07L426.12,163.3L426.37,161.58L426.61,164L426.85,240.99L427.09,164.24L427.33,183.54L427.57,163.8L427.81,167.56L428.05,155.55L428.29,160.8L428.53,160.28L428.77,192.4L429.01,169.47L429.25,157.99L429.49,162.43L429.73,152.41L429.97,162.04L430.21,158.27L430.45,174.94L430.69,157.85L430.93,188.54L431.17,163.59L431.41,156.31L431.65,152.02L431.89,151.36L432.13,167.21L432.37,153.37L432.61,156.47L432.85,152.21L433.09,164.73L433.33,153.93L433.57,149.44L433.81,165.14L434.06,156.05L434.3,157.69L434.54,154.91L434.78,156.18L435.02,145.84L435.26,158.1L435.5,166.17L435.74,164.47L435.98,156.14L436.22,149.56L436.46,148.98L436.7,150.83L436.94,149.99L437.18,146.9L437.42,156.84L437.66,155.9L437.9,194.7L438.14,166.74L438.38,155.72L438.62,158.54L438.86,151.37L439.1,163.78L439.34,151.28L439.58,148.84L439.82,162.53L440.06,151.99L440.3,218.61L440.54,149.55L440.78,143.17L441.02,150.42L441.26,150.98L441.5,147.79L441.74,145.65L441.99,147.34L442.23,143.53L442.47,148.61L442.71,135.24L442.95,176.85L443.19,147.9L443.43,148.03L443.67,143.65L443.91,147.36L444.15,150.2L444.39,143.97L444.63,149.68L444.87,150.3L445.11,156.32L445.35,151.25L445.59,138.35L445.83,163.25L446.07,138.82L446.31,133.3L446.55,135.9L446.79,138.65L447.03,151.66L447.27,142.61L447.51,138.17L447.75,140.51L447.99,139.39L448.23,134.88L448.47,140.34L448.71,137.67L448.95,137.03L449.19,163.72L449.43,134.49L449.67,142.66L449.92,141.46L450.16,147.77L450.4,142.23L450.64,140.18L450.88,136.83L451.12,133.75L451.36,137.18L451.6,148.38L451.84,142.57L452.08,133.26L452.32,138.89L452.56,132.89L452.8,164.64L453.04,136.84L453.28,135.55L453.52,143.57L453.76,132.09L454,153.14L454.24,140.04L454.48,138.43L454.72,132.13L454.96,137.41L455.2,139.08L455.44,143.33L455.68,134.65L455.92,136.03L456.16,136.61L456.4,135.31L456.64,144.2L456.88,136.97L457.12,133.09L457.36,130.26L457.61,150.59L457.85,130.57L458.09,143.14L458.33,145.01L458.57,156L458.81,155.76L459.05,149.49L459.29,143.94L459.53,156.06L459.77,172.78L460.01,156.39L460.25,160.25L460.49,156.34L460.73,191.19L460.97,250.43L461.21,295.01L461.45,288.72L461.69,292.66L461.93,288.17L462.17,324.99L462.41,273.2L462.65,227.02L462.89,263.8L463.13,265.37L463.37,244.3L463.61,182.63L463.85,140.03L464.09,136.51L464.33,136.51L464.57,137.41L464.81,138.83L465.05,135.72L465.29,141.83L465.54,140.16L465.78,144.59L466.02,190.7L466.26,170.77L466.5,143.42L466.74,153.58L466.98,388.76L467.22,343.25L467.46,485.79L467.7,472.46L467.94,437.9L468.18,445.49L468.42,450.82L468.66,465.31L468.9,450.8L469.14,463.22L469.38,448.1L469.62,453.03L469.86,455.64L470.1,424.38L470.34,425.64L470.58,439.18L470.82,486.02L471.06,438.64L471.3,425.3L471.54,427.54L471.78,446.64L472.02,458.44L472.26,435.1L472.5,464.32L472.74,446.67L472.98,456.48L473.23,469.22L473.47,430.9L473.71,450.07L473.95,471.35L474.19,466.91L474.43,353.09L474.67,389.84L474.91,270.67L475.15,193.48L475.39,179.94L475.63,165.29L475.87,170.88L476.11,186.77L476.35,237.92L476.59,182.49L476.83,190.38L477.07,251.83L477.31,189.15L477.55,172.16L477.79,180.37L478.03,208.42L478.27,174.11L478.51,190.82L478.75,171.88L478.99,202.7L479.23,326.22L479.47,249.04L479.71,171.57L479.95,168.84L480.19,185.63L480.43,261.64L480.67,331.36L480.91,292.84L481.16,228.18L481.4,180.16L481.64,205.43L481.88,246.61L482.12,203.63L482.36,161.07L482.6,165.12L482.84,166.33L483.08,188.76L483.32,273.15L483.56,167.39L483.8,153.93L484.04,188.08L484.28,246.53L484.52,282.29L484.76,335.72L485,263.6L485.24,184.66L485.48,158.76L485.72,195.57L485.96,194.46L486.2,157.47L486.44,154.74L486.68,164.19L486.92,164.7L487.16,263.4L487.4,194.23L487.64,162.63L487.88,177.62L488.12,161.21L488.36,171.69L488.6,178.53L488.85,303.64L489.09,287.72L489.33,193.47L489.57,156.37L489.81,182.86L490.05,184.67L490.29,177.73L490.53,176.49L490.77,174.11L491.01,177.3L491.25,168.66L491.49,369.43L491.73,235.82L491.97,160.98L492.21,157.57L492.45,175.12L492.69,160.36L492.93,156.98L493.17,163.76L493.41,164.93L493.65,215.71L493.89,157.06L494.13,178.5L494.37,161.59L494.61,161.46L494.85,157.31L495.09,163.56L495.33,157.58L495.57,153.55L495.81,178.81L496.05,227.07L496.29,160.77L496.53,187.37L496.78,173.42L497.02,154.96L497.26,153.3L497.5,160.47L497.74,157.11L497.98,176.39L498.22,162.32L498.46,212.22L498.7,172.17L498.94,158.82L499.18,154.43L499.42,154.33L499.66,200.82L499.9,245.08L500.14,216.72L500.38,162.23L500.62,152.41L500.86,181.04L501.1,164.57L501.34,167.34L501.58,155.97L501.82,155.69L502.06,154.82L502.3,169.17L502.54,143.1L502.78,147.74L503.02,164.02L503.26,220.44L503.5,238.6L503.74,166.33L503.98,153.71L504.22,146.11L504.46,149.73L504.71,183.19L504.95,150.73L505.19,269.96L505.43,366.47L505.67,393.69L505.91,188.14L506.15,158.08L506.39,174.06L506.63,154.71L506.87,156.88L507.11,162.68L507.35,156.15L507.59,314.33L507.83,323.04L508.07,225.91L508.31,175.36L508.55,180.35L508.79,276.03L509.03,335.9L509.27,367.32L509.51,271.57L509.75,216.17L509.99,383.03L510.23,392.69L510.47,238.37L510.71,193.78L510.95,231.2L511.19,369.33L511.43,362.44L511.67,189.19L511.91,188.03L512.15,217.07L512.4,405.34L512.64,327.06L512.88,193.36L513.12,195.9L513.36,237.63L513.6,421.91L513.84,423.98L514.08,408.47L514.32,242.6L514.56,187.64L514.8,189.94L515.04,293.01L515.28,617.52L515.52,354.52L515.76,203.39L516,175.24L516.24,204.41L516.48,257.39L516.72,181.69L516.96,211.96L517.2,273.88L517.44,195.31L517.68,245.43L517.92,166.54L518.16,174.58L518.4,182.07L518.64,188.5L518.88,197.04L519.12,203.2L519.36,204.37L519.6,201.93L519.84,162.91L520.08,166.57L520.33,166.7L520.57,179.99L520.81,209.87L521.05,198.14L521.29,173.16L521.53,157.89L521.77,174.07L522.01,164.08L522.25,169.96L522.49,196.62L522.73,169.63L522.97,211.54L523.21,296.28L523.45,250.56L523.69,198.39L523.93,189.81L524.17,174.96L524.41,182.21L524.65,193.81L524.89,261.14L525.13,341.56L525.37,314.81L525.61,222.26L525.85,204.23L526.09,228.61L526.33,268.64L526.57,207.14L526.81,166L527.05,165.98L527.29,218.36L527.53,253.56L527.77,219.19L528.02,190.61L528.26,187L528.5,158.28L528.74,163.96L528.98,170.84L529.22,210.43L529.46,187.59L529.7,324.88L529.94,186.65L530.18,228.76L530.42,292.17L530.66,215.89L530.9,180.37L531.14,155.94L531.38,158.12L531.62,163.29L531.86,175.87L532.1,169.26L532.34,190.19L532.58,271.54L532.82,348.47L533.06,173.68L533.3,152.5L533.54,163.99L533.78,162.45L534.02,186.93L534.26,179.25L534.5,176.29L534.74,181.81L534.98,234.36L535.22,248.94L535.46,274.31L535.7,168.71L535.95,151.95L536.19,164.4L536.43,179.61L536.67,251.72L536.91,318.03L537.15,353.13L537.39,399.97L537.63,284.57L537.87,206.52L538.11,271.51L538.35,260.56L538.59,195.53L538.83,171.56L539.07,167.68L539.31,228.31L539.55,266.92L539.79,264.69L540.03,353.96L540.27,315L540.51,243.27L540.75,184.41L540.99,165.59L541.23,151.97L541.47,166.71L541.71,220.02L541.95,242.59L542.19,242.32L542.43,184.07L542.67,174.34L542.91,153.43L543.15,168.15L543.39,264.14L543.63,276.48L543.88,367.57L544.12,374.15L544.36,375.77L544.6,391.56L544.84,173.92L545.08,153.32L545.32,151.25L545.56,152.56L545.8,164.93L546.04,158.83L546.28,167.06L546.52,170.14L546.76,155.55L547,158.48L547.24,155.52L547.48,158.58L547.72,155.2L547.96,158.63L548.2,165.76L548.44,163.86L548.68,155.07L548.92,154.68L549.16,151.93L549.4,155.56L549.64,162.2L549.88,164.94L550.12,155.89L550.36,175.67L550.6,158.24L550.84,157.46L551.08,157.88L551.32,158.1L551.57,153.37L551.81,156.25L552.05,248.06L552.29,151.9L552.53,168.8L552.77,187.92L553.01,157.06L553.25,165.8L553.49,174.15L553.73,190.84L553.97,193.91L554.21,172.76L554.45,161.6L554.69,188.7L554.93,209.4L555.17,232.11L555.41,199.83L555.65,193.95L555.89,166.94L556.13,161.51L556.37,218.95L556.61,254.9L556.85,211.78L557.09,168.7L557.33,193.41L557.57,166.87L557.81,240.42L558.05,195.47L558.29,277.79L558.53,164.86L558.77,155.11L559.01,177.72L559.25,162.56L559.5,172.95L559.74,282.58L559.98,168.49L560.22,162.55L560.46,181.6L560.7,265.4L560.94,337.02L561.18,387.32L561.42,226.75L561.66,163.22L561.9,195.28L562.14,362L562.38,360.95L562.62,339.22L562.86,168.96L563.1,161.57L563.34,166.24L563.58,233.08L563.82,209.75L564.06,182.83L564.3,159.71L564.54,226.41L564.78,171.39L565.02,176.12L565.26,177.41L565.5,168.68L565.74,159.22L565.98,162.7L566.22,182.1L566.46,245.99L566.7,286.06L566.94,336.8L567.19,279.18L567.43,161.45L567.67,154.42L567.91,163.83L568.15,182.85L568.39,163.44L568.63,189.85L568.87,164.14L569.11,152.87L569.35,158.59L569.59,167.46L569.83,299.97L570.07,248.93L570.31,191.06L570.55,161.4L570.79,158.75L571.03,171.49L571.27,189.03L571.51,211.46L571.75,249.56L571.99,285.12L572.23,160.51L572.47,180.18L572.71,198.96L572.95,286.78L573.19,353.44L573.43,305.48L573.67,316.91L573.91,164.93L574.15,221.6L574.39,322.29L574.63,375.49L574.87,353.44L575.12,334.17L575.36,356.96L575.6,173.91L575.84,149.36L576.08,174.31L576.32,209.01L576.56,170.48L576.8,205.49L577.04,194.37L577.28,187.06L577.52,165.37L577.76,183.24L578,246.61L578.24,153.85L578.48,284.96L578.72,455.21L578.96,472.49L579.2,437.13L579.44,470.81L579.68,439.4L579.92,439.38L580.16,350.59L580.4,197.61L580.64,178.24L580.88,202.54L581.12,220.84L581.36,357.93L581.6,366.92L581.84,382.79L582.08,390.63L582.32,389.07L582.56,379.74L582.81,390.09L583.05,351.98L583.29,252.93L583.53,239.83L583.77,337.75L584.01,365.18L584.25,377.68L584.49,284.8L584.73,340.47L584.97,371.21L585.21,367.25L585.45,310.16L585.69,384.26L585.93,385.42L586.17,257.58L586.41,220.2L586.65,154.11L586.89,172.9L587.13,180.21L587.37,243.62L587.61,307.52L587.85,353.01L588.09,298.57L588.33,356.61L588.57,359.86L588.81,347.38L589.05,378.65L589.29,372.23L589.53,230.74L589.77,178.26L590.01,215.75L590.25,238.33L590.49,182L590.74,300.29L590.98,341.69L591.22,277.44L591.46,277L591.7,252.38L591.94,275.14L592.18,350.07L592.42,355.96L592.66,351.34L592.9,330.86L593.14,307.68L593.38,182.53L593.62,249.08L593.86,364.6L594.1,367.63L594.34,243.66L594.58,357.75L594.82,356.7L595.06,354.94L595.3,362.7L595.54,340.18L595.78,349.99L596.02,368.56L596.26,330.29L596.5,355.76L596.74,362.51L596.98,321.17L597.22,236.26L597.46,344.35L597.7,192.38L597.94,155.15L598.18,157.08L598.42,153.31L598.67,170.35L598.91,152.22L599.15,162.01L599.39,155.77L599.63,154.39L599.87,154.46L600.11,156.28L600.35,164.85L600.59,170.18L600.83,183.85L601.07,152.03L601.31,151.14L601.55,204.62L601.79,331.55L602.03,466.5L602.27,449.94L602.51,366.81L602.75,188.83L602.99,249.64L603.23,215.16L603.47,194.33L603.71,165.77L603.95,158.81L604.19,164.11L604.43,174.59L604.67,173.16L604.91,176.16L605.15,245.35L605.39,181.32L605.63,183.98L605.87,159.1L606.11,174.1L606.36,170.84L606.6,167.1L606.84,172.27L607.08,183.94L607.32,175.92L607.56,175.43L607.8,172.71L608.04,176.04L608.28,233.81L608.52,171.85L608.76,180.78L609,172.71L609.24,168.2L609.48,161.68L609.72,163.3L609.96,181.91L610.2,172.14L610.44,167.54L610.68,196.76L610.92,211.17L611.16,170.51L611.4,157.08L611.64,165.3L611.88,153.19L612.12,171.73L612.36,215.9L612.6,164.36L612.84,161.39L613.08,160.75L613.32,159.2L613.56,251.88L613.8,207.59L614.04,171.95L614.29,161.61L614.53,165.11L614.77,176.85L615.01,189.67L615.25,164.4L615.49,164.26L615.73,157.28L615.97,166.35L616.21,154.19L616.45,202.5L616.69,156.94L616.93,153.88L617.17,166.94L617.41,193.39L617.65,149.49L617.89,158.88L618.13,170.01L618.37,162.24L618.61,177.03L618.85,158.06L619.09,152.3L619.33,162.23L619.57,145.28L619.81,157.76L620.05,179.9L620.29,158.82L620.53,183.81L620.77,168.74L621.01,166.04L621.25,167.99L621.49,162.85L621.73,178.15L621.98,151.31L622.22,148.69L622.46,212.68L622.7,157.09L622.94,184.73L623.18,166.59L623.42,167.96L623.66,212.29L623.9,156.23L624.14,151.16L624.38,142.64L624.62,145.47L624.86,142.41L625.1,153.67L625.34,152.14L625.58,183.56L625.82,213.82L626.06,171.16L626.3,151.33L626.54,145.46L626.78,143.87L627.02,145.23L627.26,148.61L627.5,146.76L627.74,139.9L627.98,148.8L628.22,153.1L628.46,175.74L628.7,151.19L628.94,159.21L629.18,155.32L629.42,152.69L629.66,146.92L629.91,141.97L630.15,137.32L630.39,145.76L630.63,146.23L630.87,143.16L631.11,153.14L631.35,154.64L631.59,171.34L631.83,149.65L632.07,150.04L632.31,163.12L632.55,148.55L632.79,145.32L633.03,155.39L633.27,147.53L633.51,146.36L633.75,151.44L633.99,153.66L634.23,365.91L634.47,501.11L634.71,446.26L634.95,452.77L635.19,430.08L635.43,244.38L635.67,305.17L635.91,389.16L636.15,368.52L636.39,363.09L636.63,354.59L636.87,318.96L637.11,305.54L637.35,248.68L637.59,231.64L637.84,289.22L638.08,330.59L638.32,357.35L638.56,339.37L638.8,293L639.04,194.07L639.28,151.1L639.52,202.14L639.76,211.25L640,149.95L640.24,204.85L640.48,260.32L640.72,295.38L640.96,221.47L641.2,159.03L641.44,271.71L641.68,333.16L641.92,326.93L642.16,297.54L642.4,333.18L642.64,342.79L642.88,348.54L643.12,346.7L643.36,333.19L643.6,331.91L643.84,350.21L644.08,170.84L644.32,165.53L644.56,238.97L644.8,291.55L645.04,336.15L645.28,327.64L645.53,301.89L645.77,185.14L646.01,141.99L646.25,147.52L646.49,247.11L646.73,242.01L646.97,172.18L647.21,262.52L647.45,318.88L647.69,361.73L647.93,306.62L648.17,298.91L648.41,415.08L648.65,452.63L648.89,501.38L649.13,467.94L649.37,443.18L649.61,449.97L649.85,465.49L650.09,454.67L650.33,441.46L650.57,440.8L650.81,448.68L651.05,448.68L651.29,420.9L651.53,458.8L651.77,423.94L652.01,418.2L652.25,406.55L652.49,409.3L652.73,422.1L652.97,403.87L653.21,455.47L653.46,289.9L653.7,205.7L653.94,176.13L654.18,172.9L654.42,169.04L654.66,164.92L654.9,171.43L655.14,177.1L655.38,202.2L655.62,185.98L655.86,188.77L656.1,170.58L656.34,173.87L656.58,178.98L656.82,171.7L657.06,158.39L657.3,160.59L657.54,176.24L657.78,185.39L658.02,170.56L658.26,186.68L658.5,182.02L658.74,172.91L658.98,174.32L659.22,165.01L659.46,163.05L659.7,180.17L659.94,173.54L660.18,188.61L660.42,315.75L660.66,157.42L660.9,162.25L661.15,171.46L661.39,240.25L661.63,188.04L661.87,201.71L662.11,162.41L662.35,160.64L662.59,174.94L662.83,188.25L663.07,155.55L663.31,150.71L663.55,147.73L663.79,165.43L664.03,196.91L664.27,167.08L664.51,164.18L664.75,158.2L664.99,160.44L665.23,187.19L665.47,162.86L665.71,171.46L665.95,154.71L666.19,147.3L666.43,153.8L666.67,166.28L666.91,203.36L667.15,169.09L667.39,163.45L667.63,163.81L667.87,188.78L668.11,159.95L668.35,160.79L668.59,156.91L668.83,151.74L669.08,156.85L669.32,151.7L669.56,157.77L669.8,166.47L670.04,251.5L670.28,216.5L670.52,196.22L670.76,152.65L671,160.91L671.24,162.39L671.48,157.01L671.72,159.9L671.96,158.22L672.2,155.63L672.44,151.02L672.68,148.36L672.92,155.69L673.16,209.33L673.4,177.38L673.64,146.26L673.88,156.4L674.12,152.34L674.36,152.64L674.6,154.97L674.84,148.41L675.08,146.47L675.32,149.25L675.56,160.11L675.8,150.06L676.04,157.63L676.28,163.1L676.52,150.73L676.77,150.42L677.01,164.66L677.25,174.51L677.49,215.69L677.73,160.31L677.97,148.49L678.21,148.66L678.45,152.36L678.69,163.54L678.93,155.03L679.17,179.64L679.41,154.31L679.65,153.36L679.89,143.42L680.13,162.89L680.37,142.83L680.61,149.38L680.85,152.07L681.09,153.13L681.33,148.1L681.57,157.28L681.81,157.4L682.05,152.09L682.29,180.7L682.53,157.36L682.77,199.01L683.01,214.84L683.25,168.48L683.49,158.36L683.73,146.69L683.97,148.57L684.21,159.53L684.45,161.77L684.7,166.94L684.94,152.93L685.18,149.42L685.42,180.12L685.66,226.58L685.9,176.95L686.14,187.24L686.38,227.9L686.62,248.1L686.86,302.64L687.1,234.95L687.34,170.29L687.58,146.98L687.82,147.74L688.06,146.16L688.3,150.65L688.54,140.5L688.78,164.23L689.02,170.92L689.26,184.4L689.5,169.04L689.74,179.73L689.98,142.63L690.22,160.53L690.46,153.87L690.7,183.82L690.94,155.42L691.18,148.06L691.42,147.66L691.66,133.91L691.9,134.82L692.14,139.97L692.38,139.72L692.63,141.34L692.87,141.22L693.11,165.72L693.35,135.97L693.59,142.46L693.83,180.99L694.07,191.9L694.31,243.56L694.55,160.7L694.79,170.06L695.03,174.55L695.27,142.81L695.51,153.19L695.75,148.31L695.99,192.74L696.23,185.1L696.47,143.2L696.71,175.54L696.95,146.87L697.19,136.98L697.43,139.72L697.67,168.86L697.91,142.73L698.15,154.19L698.39,135.15L698.63,152.03L698.87,154.95L699.11,169.86L699.35,188.49L699.59,247.4L699.83,221.26L700.07,194.96L700.32,159.33L700.56,137.06L700.8,154.06L701.04,219.07L701.28,325.39L701.52,265.77L701.76,132.23L702,137.49L702.24,134.56L702.48,143.37L702.72,131.79L702.96,171.1L703.2,134.95L703.44,146.13L703.68,137.26L703.92,198.03L704.16,426.26L704.4,397.71L704.64,370.81L704.88,217.62L705.12,172.69L705.36,201.1L705.6,292.14L705.84,303.52L706.08,175.99L706.32,161.58L706.56,166.57L706.8,163.24L707.04,154.87L707.28,184.96L707.52,174.23L707.76,167.51L708,178.11L708.25,173.13L708.49,157.96L708.73,160.25L708.97,168.51L709.21,162.46L709.45,165.74L709.69,163.66L709.93,186.5L710.17,157.05L710.41,154.65L710.65,153.62L710.89,167.88L711.13,278.74L711.37,158.83L711.61,158.38L711.85,170.56L712.09,160.67L712.33,161.16L712.57,156.59L712.81,178.64L713.05,157.48L713.29,159.72L713.53,163.32L713.77,159.51L714.01,156.08L714.25,164.93L714.49,154.25L714.73,157.33L714.97,167.11L715.21,156.98L715.45,188.39L715.69,151.02L715.94,153.4L716.18,153.74L716.42,154.87L716.66,155.45L716.9,155.29L717.14,148.56L717.38,156.89L717.62,154.25L717.86,159.72L718.1,207.9L718.34,182.44L718.58,195.55L718.82,229.3L719.06,168.3L719.3,164.35L719.54,170.2L719.78,178.12L720.02,217.53L720.26,215.68L720.5,166.36L720.74,162.58L720.98,222.64L721.22,227.99L721.46,180.86L721.7,161.84L721.94,158.33L722.18,161.91L722.42,163.28L722.66,168.14L722.9,190.83L723.14,200.88L723.38,170.24L723.62,156.19L723.87,153.25L724.11,221.94L724.35,203.27L724.59,175.07L724.83,162.36L725.07,166.95L725.31,153.81L725.55,174.13L725.79,219.64L726.03,315.19L726.27,229.11L726.51,160.55L726.75,157.35L726.99,159.21L727.23,172.07L727.47,276.57L727.71,254.19L727.95,287.75L728.19,191.31L728.43,167.42L728.67,157.86L728.91,160.57L729.15,192.58L729.39,188.08L729.63,168.28L729.87,160.28L730.11,154.79L730.35,164.75L730.59,185.12L730.83,284.5L731.07,191.18L731.31,148.81L731.55,155.09L731.8,149.55L732.04,153.43L732.28,167.88L732.52,158.09L732.76,154.51L733,150L733.24,150.97L733.48,161.72L733.72,150.27L733.96,156.14L734.2,159.33L734.44,171.11L734.68,229.86L734.92,146.32L735.16,146.93L735.4,150.1L735.64,177.23L735.88,172.36L736.12,200.78L736.36,152.51L736.6,154.33L736.84,162.38L737.08,152.47L737.32,152.83L737.56,157.35L737.8,156.96L738.04,155.76L738.28,173.52L738.52,168.32L738.76,150.22L739,162.84L739.24,146.22L739.49,146.62L739.73,149.86L739.97,151.79L740.21,149.03L740.45,157.19L740.69,151.85L740.93,169.61L741.17,156.52L741.41,148.15L741.65,142.66L741.89,156.24L742.13,149.69L742.37,160.78L742.61,145.82L742.85,147.8L743.09,151.86L743.33,152.45L743.57,352.36L743.81,165.67L744.05,164.55L744.29,154.87L744.53,147.66L744.77,149.54L745.01,147.97L745.25,146.65L745.49,143.05L745.73,142.86L745.97,147.09L746.21,149.2L746.45,143.29L746.69,182.51L746.93,147.62L747.17,143.69L747.42,151.84L747.66,145.91L747.9,147.96L748.14,141.11L748.38,141.57L748.62,139.08L748.86,142.47L749.1,146.91L749.34,155.55L749.58,155.4L749.82,157.1L750.06,142.56L750.3,154.4L750.54,152.87L750.78,155.51L751.02,157.94L751.26,153.65L751.5,153.62L751.74,148.15L751.98,150.53L752.22,146.4L752.46,145.66L752.7,176.23L752.94,156.51L753.18,157.64L753.42,155.19L753.66,158.61L753.9,152.37L754.14,145.15L754.38,138.01L754.62,152.26L754.86,149.09L755.11,145.46L755.35,146.64L755.59,145.16L755.83,148.22L756.07,163.21L756.31,144.64L756.55,145.39L756.79,147.03L757.03,190.85L757.27,146.21L757.51,146.66L757.75,208.45L757.99,420.31L758.23,440.98L758.47,455.56L758.71,466.42L758.95,487.59L759.19,432.14L759.43,442.92L759.67,444.78L759.91,294.31L760.15,395.95L760.39,453.27L760.63,437.31L760.87,414.03L761.11,423.81L761.35,456.58L761.59,482.79L761.83,449.27L762.07,437.34L762.31,403.47L762.55,397.76L762.79,389.99L763.04,426.87L763.28,394.82L763.52,425.93L763.76,402.61L764,403.07L764.24,292.05L764.48,392.06L764.72,408.18L764.96,404L765.2,380.72L765.44,389.49L765.68,375.68L765.92,397.98L766.16,420.82L766.4,462.18L766.64,389.99L766.88,369.4L767.12,394.67L767.36,392.31L767.6,396.62L767.84,391.6L768.08,392.35L768.32,390.84L768.56,293.35L768.8,403.61L769.04,383.89L769.28,390.44L769.52,410.23L769.76,390.98L770,398.61L770.24,399.57L770.48,349.72L770.73,293.32L770.97,237.88L771.21,188.58L771.45,324.29L771.69,383.47L771.93,384.94L772.17,397.11L772.41,412.2L772.65,417.98L772.89,300.72L773.13,288.81L773.37,402.19L773.61,387.54L773.85,377.22L774.09,371.28L774.33,403.02L774.57,394.34L774.81,411.32L775.05,394.41L775.29,393.55L775.53,403.06L775.77,405.03L776.01,371.96L776.25,429.47L776.49,382.05L776.73,397.96L776.97,410.22L777.21,412.78L777.45,410.25L777.69,279.31L777.93,368.63L778.17,386.91L778.41,385.6L778.66,399.99L778.9,316.97L779.14,283.42L779.38,380.11L779.62,204.04L779.86,190.58L780.1,163.45L780.34,167.73L780.58,164.15L780.82,159.32L781.06,154.78L781.3,161.93L781.54,167.48L781.78,169.07L782.02,208.26L782.26,164.87L782.5,165.2L782.74,152.32L782.98,159.96L783.22,156.11L783.46,174.01L783.7,164.81L783.94,156.68L784.18,161.81L784.42,158.01L784.66,163.84L784.9,191.93L785.14,158.32L785.38,164.95L785.62,157.21L785.86,154.69L786.1,155.86L786.34,152.74L786.59,157.15L786.83,162.78L787.07,362.24L787.31,147.79L787.55,155.03L787.79,161.08L788.03,190.39L788.27,153.21L788.51,149.27L788.75,157.1L788.99,152.23L789.23,153.07L789.47,148.09L789.71,159.07L789.95,154.89L790.19,163.08L790.43,158.85L790.67,158.61L790.91,201.3L791.15,213.98L791.39,404.96L791.63,179.04L791.87,158.7L792.11,222.09L792.35,169.44L792.59,164.47L792.83,158.42L793.07,180.88L793.31,184.14L793.55,177.66L793.79,229.1L794.03,197.65L794.28,176.13L794.52,153.51L794.76,201.48L795,171.81L795.24,155.45L795.48,170.2L795.72,158.51L795.96,156.27L796.2,153.25L796.44,150.11L796.68,150.32L796.92,157.69L797.16,160.8L797.4,197.34L797.64,153.32L797.88,159.4L798.12,161.51L798.36,153.17L798.6,215.68L798.84,164.68L799.08,164.75L799.32,165.66L799.56,157.54L799.8,150.74L800.04,150.11L800.28,155.29L800.52,172.07L800.76,202.48L801,154.22L801.24,157.43L801.48,156.85L801.72,156.43L801.96,151.26L802.21,199.68L802.45,301.33L802.69,207.36L802.93,149.96L803.17,147.22L803.41,149.84L803.65,151.33L803.89,144.9L804.13,189.14L804.37,216.98L804.61,144.53L804.85,148.02L805.09,145.64L805.33,153.15L805.57,147.55L805.81,146.45L806.05,146.25L806.29,144.3L806.53,201.87L806.77,153.95L807.01,146.32L807.25,148.87L807.49,147.3L807.73,150.48L807.97,195.34L808.21,173.07L808.45,154L808.69,145.52L808.93,150.51L809.17,158.5L809.41,154.36L809.65,151.41L809.9,156.15L810.14,143.42L810.38,152.6L810.62,141.53L810.86,139.59L811.1,186.81L811.34,143.07L811.58,144.98L811.82,151.15L812.06,147.95L812.3,163.84L812.54,141.69L812.78,138.42L813.02,173.56L813.26,217.84L813.5,279.2L813.74,458.91L813.98,470.12L814.22,442.26L814.46,451.71L814.7,468.3L814.94,416.09L815.18,378.41L815.42,356.63L815.66,380.55L815.9,396.52L816.14,371.64L816.38,379.32L816.62,365.19L816.86,362.39L817.1,351.19L817.34,371.35L817.58,199.65L817.83,216.74L818.07,229.78L818.31,335.81L818.55,340.39L818.79,352.25L819.03,363.5L819.27,383.14L819.51,381.29L819.75,366.98L819.99,348.81L820.23,340.83L820.47,383.37L820.71,387.53L820.95,375.94L821.19,364.84L821.43,358.7L821.67,352.99L821.91,361.9L822.15,309.35L822.39,346.24L822.63,414.21L822.87,375.68L823.11,252.82L823.35,301.89L823.59,421.27L823.83,432.8L824.07,445.05L824.31,427.38L824.55,332.06L824.79,256.23L825.03,199.37L825.27,184.45L825.51,175.08L825.76,243.23L826,386.75L826.24,252.97L826.48,172.6L826.72,177.81L826.96,231.93L827.2,251.67L827.44,182.11L827.68,226.2L827.92,231.99L828.16,192.45L828.4,227.68L828.64,186.99L828.88,190.51L829.12,176.68L829.36,207.89L829.6,204.21L829.84,179.33L830.08,170.85L830.32,166.12L830.56,163.06L830.8,166.5L831.04,220.73L831.28,227.08L831.52,242.65L831.76,241.76L832,158.99L832.24,161.5L832.48,166.33L832.72,159.94L832.96,156.6L833.2,155.6L833.45,163.94L833.69,164.79L833.93,168.81L834.17,170.15L834.41,186.09L834.65,259.07L834.89,197.86L835.13,192.72L835.37,169.6L835.61,157.48L835.85,162.7L836.09,159.3L836.33,157.2L836.57,166.48L836.81,165.98L837.05,162.33L837.29,174.35L837.53,188.32L837.77,194.53L838.01,216.64L838.25,180.33L838.49,159.86L838.73,162.98L838.97,158.54L839.21,165.81L839.45,156.65L839.69,193.84L839.93,163.98L840.17,168.61L840.41,174.69L840.65,201.38L840.89,187.75L841.13,167.41L841.38,206.97L841.62,219.96L841.86,161.83L842.1,164.38L842.34,159.51L842.58,153.84L842.82,154.11L843.06,154.53L843.3,179.9L843.54,171.15L843.78,180.05L844.02,158.57L844.26,177.17L844.5,188.45L844.74,193.07L844.98,197.29L845.22,264.52L845.46,234.74L845.7,166.8L845.94,160.49L846.18,172.98L846.42,159.23L846.66,160.84L846.9,153.21L847.14,153.97L847.38,146.65L847.62,150.43L847.86,150.91L848.1,188.33L848.34,164.58L848.58,149.24L848.82,165.75L849.07,283.84L849.31,171.1L849.55,150.65L849.79,157.75L850.03,157.72L850.27,152.35L850.51,143.7L850.75,159.1L850.99,151.21L851.23,154.01L851.47,158.47L851.71,154.15L851.95,189.6L852.19,158.54L852.43,154.15L852.67,170.03L852.91,161.9L853.15,236.98L853.39,305.05L853.63,228.24L853.87,182.7L854.11,225.89L854.35,241.34L854.59,180.54L854.83,169.05L855.07,154.44L855.31,157.08L855.55,159.32L855.79,152.01L856.03,194.75L856.27,154.98L856.51,156.7L856.75,168.72L857,172.74L857.24,168.49L857.48,196.92L857.72,216.05L857.96,172.13L858.2,156.89L858.44,148.95L858.68,160.64L858.92,173.3L859.16,147.41L859.4,147.18L859.64,147.75L859.88,148.1L860.12,139.03L860.36,186.49L860.6,147.07L860.84,153.61L861.08,143.34L861.32,149.3L861.56,138.39L861.8,138.83L862.04,154.04L862.28,241.94L862.52,172.52L862.76,229.08L863,162.52L863.24,161.04L863.48,159.41L863.72,155.34L863.96,147.99L864.2,148.1L864.44,161.35L864.69,150.94L864.93,144.66L865.17,151.34L865.41,221.13L865.65,159.75L865.89,156.18L866.13,154.56L866.37,146.71L866.61,154.2L866.85,154.76L867.09,152.56L867.33,145.88L867.57,148.64L867.81,146.14L868.05,151.13L868.29,151.29L868.53,179.76L868.77,166.46L869.01,167.17L869.25,157.93L869.49,157.47L869.73,151.14L869.97,143.54L870.21,497.32L870.45,150.18L870.69,145.68L870.93,166.52L871.17,170.64L871.41,159.14L871.65,156.36L871.89,165.41L872.13,185.78L872.37,168.17L872.62,165.67L872.86,163.76L873.1,178.13L873.34,179.89L873.58,166.84L873.82,166.48L874.06,172.41L874.3,159.27L874.54,155.47L874.78,174.02L875.02,149.73L875.26,160.93L875.5,216.7L875.74,155.33L875.98,153.28L876.22,154.14L876.46,153.14L876.7,155.97L876.94,163.6L877.18,185.19L877.42,169.02L877.66,161.01L877.9,148.99L878.14,143.81L878.38,150.8L878.62,172.01L878.86,161.11L879.1,183.66L879.34,147.88L879.58,143.32L879.82,148.83L880.06,151.63L880.3,229.1L880.55,172.32L880.79,147.16L881.03,163.52L881.27,159.12L881.51,163.59L881.75,182.57L881.99,159.02L882.23,169.68L882.47,152.74L882.71,177.25L882.95,152.79L883.19,148.9L883.43,154.24L883.67,163.08L883.91,166.19L884.15,174.78L884.39,194.03L884.63,152.32L884.87,146.98L885.11,148.54L885.35,152.94L885.59,157.9L885.83,165.56L886.07,150.22L886.31,184.87L886.55,154.2L886.79,153.32L887.03,143.31L887.27,152.41L887.51,156.62L887.75,177.46L887.99,149.88L888.24,152.95L888.48,150.89L888.72,147.42L888.96,141.21L889.2,221.42L889.44,243.17L889.68,285.58L889.92,457.14L890.16,443.16L890.4,450.1L890.64,467.81L890.88,445.63L891.12,441.99L891.36,356.13L891.6,397.1L891.84,380.21L892.08,378.29L892.32,433.85L892.56,384.64L892.8,382.52L893.04,399.59L893.28,405.63L893.52,388.31L893.76,387.46L894,372.89L894.24,370.65L894.48,380.71L894.72,388.2L894.96,382.59L895.2,361.12L895.44,314.67L895.68,355.74L895.92,293.92L896.17,325.76L896.41,232.8L896.65,305.95L896.89,366.4L897.13,353.9L897.37,333.18L897.61,349.68L897.85,368.83L898.09,360.15L898.33,354.21L898.57,334.97L898.81,352.13L899.05,310.75L899.29,312.88L899.53,389.3L899.77,331.98L900.01,363.1L900.25,312.14L900.49,281.58L900.73,358.27L900.97,450.59L901.21,379.89L901.45,316.27L901.69,278.81L901.93,298.2L902.17,267.24L902.41,351.51L902.65,299.13L902.89,161.86L903.13,181.64L903.37,167.12L903.61,164.39L903.86,158.75L904.1,159.95L904.34,167.51L904.58,160.13L904.82,161.21L905.06,161.05L905.3,172.64L905.54,156.94L905.78,162.23L906.02,177.1L906.26,178.03L906.5,181.37L906.74,156.26L906.98,154.27L907.22,156.89L907.46,156.53L907.7,160.66L907.94,157.11L908.18,156.56L908.42,152.02L908.66,159.79L908.9,471.7L909.14,157.27L909.38,157.59L909.62,152.22L909.86,181.51L910.1,151.09L910.34,153.28L910.58,150.79L910.82,146.52L911.06,152.48L911.3,148.9L911.54,158.05L911.79,157.46L912.03,150.59L912.27,149.32L912.51,144.3L912.75,151L912.99,160.73L913.23,178.77L913.47,148.96L913.71,150.59L913.95,143.34L914.19,149.92L914.43,152L914.67,149.69L914.91,143.91L915.15,146.81L915.39,148.05L915.63,143.93L915.87,156.03L916.11,149.07L916.35,145.96L916.59,148.77L916.83,205.8L917.07,148.89L917.31,152.7L917.55,150.13L917.79,149.47L918.03,154.45L918.27,142.96L918.51,143.19L918.75,146.15L918.99,152.06L919.23,145.86L919.47,146.04L919.72,152.55L919.96,144.65L920.2,142.93L920.44,140.77L920.68,179.18L920.92,140.7L921.16,142.79L921.4,144.09L921.64,155.5L921.88,146.7L922.12,142.63L922.36,153.44L922.6,162.05L922.84,153.88L923.08,151.34L923.32,157.77L923.56,198.86L923.8,345.71L924.04,434.84L924.28,344.5L924.52,362.85L924.76,227.3L925,162.17L925.24,178.34L925.48,286.08L925.72,251.09L925.96,203.97L926.2,174.57L926.44,173.96L926.68,161.79L926.92,202.43L927.16,178.2L927.41,165.71L927.65,159.1L927.89,159.49L928.13,146.28L928.37,155.22L928.61,341.44L928.85,297.11L929.09,312.48L929.33,214.27L929.57,225.33L929.81,190.85L930.05,168.08L930.29,262.08L930.53,365.1L930.77,284.31L931.01,189.9L931.25,142.75L931.49,147.75L931.73,179L931.97,197.48L932.21,243.12L932.45,319.54L932.69,355.61L932.93,219.43L933.17,158.8L933.41,183.24L933.65,154.94L933.89,179L934.13,168.69L934.37,168.34L934.61,156.58L934.85,158.21L935.09,153.12L935.34,150.93L935.58,169.22L935.82,279.21L936.06,355.67L936.3,344.64L936.54,305.56L936.78,219.18L937.02,154.87L937.26,151.6L937.5,156.63L937.74,199.23L937.98,176.05L938.22,176.62L938.46,139.66L938.7,268.87L938.94,173.7L939.18,177.5L939.42,168.05L939.66,221.5L939.9,249.64L940.14,241.72L940.38,194.09L940.62,208.69L940.86,141L941.1,188.51L941.34,252.89L941.58,462.3L941.82,477.12L942.06,435.69L942.3,452.32L942.54,466.72L942.78,455.89L943.03,434.72L943.27,448.26L943.51,387.1L943.75,391.33L943.99,444.5L944.23,417.24L944.47,392.39L944.71,387.73L944.95,384.7L945.19,366.25L945.43,259.11L945.67,401.13L945.91,402.13L946.15,409.47L946.39,398.95L946.63,393.96L946.87,390.57L947.11,410.35L947.35,389.09L947.59,224.86L947.83,158.85L948.07,160.98L948.31,178.31L948.55,190.79L948.79,177.31L949.03,160.71L949.27,163.93L949.51,163.5L949.75,163.03L949.99,164.99L950.23,160.97L950.47,171.96L950.71,159.96L950.96,197.07L951.2,175.59L951.44,159.97L951.68,158.94L951.92,164.51L952.16,163.65L952.4,161.26L952.64,165.17L952.88,144.87L953.12,179.14L953.36,181.01L953.6,157.79L953.84,167.24L954.08,165.65L954.32,154.71L954.56,213.98L954.8,363.42L955.04,158.61L955.28,155.42L955.52,159.98L955.76,158.16L956,161.2L956.24,161.55L956.48,160.76L956.72,155.87L956.96,151.61L957.2,146.73L957.44,152.46L957.68,152.6L957.92,156.88L958.16,160.53L958.4,196.04L958.65,223.67L958.89,166.55L959.13,151.95L959.37,152.51L959.61,154.49L959.85,155.75L960.09,152.28L960.33,151.94L960.57,146.85L960.81,149.03L961.05,147.33L961.29,143.16L961.53,145.57L961.77,151.11L962.01,149.59L962.25,193.84L962.49,142L962.73,145.73L962.97,155.47L963.21,148.42L963.45,145.22L963.69,164.85L963.93,159.6L964.17,155.62L964.41,151.26L964.65,156.23L964.89,169.48L965.13,169.32L965.37,201.31L965.61,182.27L965.85,181.22L966.09,246.99L966.33,191.76L966.58,171.12L966.82,209.07L967.06,358.18L967.3,430.75L967.54,425.55L967.78,398.52L968.02,323.45L968.26,315.96L968.5,257.17L968.74,276.84L968.98,176.5L969.22,166.04L969.46,172.96L969.7,163.44L969.94,148.99L970.18,169.64L970.42,233.93L970.66,351.7L970.9,180.71L971.14,163.55L971.38,165L971.62,171.49L971.86,160.93L972.1,201.61L972.34,201.72L972.58,153.16L972.82,159.75L973.06,163.47L973.3,178.74L973.54,239.63L973.78,240.09L974.02,189.93L974.26,272.44L974.51,150.02L974.75,163.53L974.99,272.82L975.23,475.54L975.47,315.89L975.71,445.58L975.95,459.86L976.19,701.44L976.43,433.94L976.67,448.53L976.91,443.45L977.15,427.91L977.39,424.9L977.63,450.17L977.87,472.32L978.11,440.05L978.35,417.5L978.59,431.75L978.83,417.81L979.07,417.86L979.31,428.32L979.55,400.22L979.79,366.53L980.03,250.21L980.27,350.97L980.51,411.08L980.75,323.45L980.99,179.88L981.23,189.53L981.47,175.09L981.71,163.02L981.95,193.53L982.2,201.5L982.44,161.16L982.68,165.4L982.92,165.61L983.16,192.37L983.4,195.94L983.64,186.56L983.88,173.22L984.12,170.58L984.36,161.95L984.6,174.09L984.84,176.18L985.08,169.94L985.32,166.96L985.56,186.56L985.8,197.25L986.04,163.68L986.28,165.51L986.52,170.55L986.76,168.53L987,165.08L987.24,169.84L987.48,339.81L987.72,158.47L987.96,155.36L988.2,159.11L988.44,164.91L988.68,157.58L988.92,167.43L989.16,160.73L989.4,166.81L989.64,178.44L989.88,210.91L990.13,167.82L990.37,193.44L990.61,219.77L990.85,169.66L991.09,162.47L991.33,158.21L991.57,162.02L991.81,155.39L992.05,156.41L992.29,145.18L992.53,151.04L992.77,157.43L993.01,169.02L993.25,160.97L993.49,158.8L993.73,188.53L993.97,159.53L994.21,158.49L994.45,155.25L994.69,160.07L994.93,163.68L995.17,185.2L995.41,249.42L995.65,152.26L995.89,150.27L996.13,149.99L996.37,154.1L996.61,155.48L996.85,159.95L997.09,163.37L997.33,148.86L997.57,172.88L997.82,153.46L998.06,151.54L998.3,154.84L998.54,163.92L998.78,155.28L999.02,149.22L999.26,151.36L999.5,147.98L999.74,154.49L999.98,156.53L1000.2,159.63L1000.5,171.53L1000.7,229.33L1000.9,152.64L1001.2,146.53L1001.4,145.4L1001.7,149.88L1001.9,189.16L1002.1,153.14L1002.4,149.58L1002.6,157.89L1002.9,162.97L1003.1,147.41L1003.3,147.31L1003.6,143.68L1003.8,146.56L1004.1,147.16L1004.3,146.66L1004.5,146.08L1004.8,158.14L1005,153.4L1005.3,146.75L1005.5,141.4L1005.7,146.3L1006,141.12L1006.2,145.13L1006.5,200.68L1006.7,186.3L1006.9,141.03L1007.2,150.83L1007.4,157.29L1007.7,145.17L1007.9,143L1008.1,142.25L1008.4,140.9L1008.6,140.45L1008.9,142.28L1009.1,143.08L1009.3,144.47L1009.6,145.28L1009.8,146.05L1010.1,140.93L1010.3,132.57L1010.6,133.49L1010.8,133.3L1011,132.19L1011.3,161.28L1011.5,135.36L1011.8,140.58L1012,147.04L1012.2,152.68L1012.5,154.55L1012.7,146.22L1013,137.57L1013.2,139.54L1013.4,191.78L1013.7,139.08L1013.9,132.96L1014.2,132.3L1014.4,129.66L1014.6,132.14L1014.9,135.22L1015.1,134.62L1015.4,134.21L1015.6,135.38L1015.8,156.29L1016.1,355.36L1016.3,316.15L1016.6,310.61L1016.8,218.5L1017,340.73L1017.3,289.78L1017.5,329.26L1017.8,264.37L1018,144.16L1018.2,155.96L1018.5,168.25L1018.7,250.22L1019,246.33L1019.2,206.23L1019.4,197.77L1019.7,158.88L1019.9,145.44L1020.2,160.26L1020.4,138.39L1020.6,149.52L1020.9,156.48L1021.1,174.88L1021.4,250.85L1021.6,328.19L1021.8,290.47L1022.1,180.44L1022.3,184.03L1022.6,164.74L1022.8,143.65L1023,142.24L1023.3,148.02L1023.5,150.53L1023.8,157.88L1024,205.84L1024.2,161.27L1024.5,183.6L1024.7,146.18L1025,152.69L1025.2,159.68L1025.5,148.99L1025.7,156.62L1025.9,162.46L1026.2,154.52L1026.4,155.48L1026.7,143.25L1026.9,153.95L1027.1,154.28L1027.4,156.91L1027.6,149.47L1027.9,156.86L1028.1,154.57L1028.3,198.92L1028.6,154.71L1028.8,172.58L1029.1,153.25L1029.3,169.78L1029.5,322.92L1029.8,265.22L1030,172.82L1030.3,174.63L1030.5,208.76L1030.7,162.03L1031,169.66L1031.2,160.52L1031.5,166.98L1031.7,166.79L1031.9,226.65L1032.2,193.32L1032.4,234.32L1032.7,233.91L1032.9,164.32L1033.1,172.15L1033.4,170.54L1033.6,167.13L1033.9,165.37L1034.1,162.44L1034.3,161.24L1034.6,163.28L1034.8,199.87L1035.1,201.46L1035.3,157.03L1035.5,167.47L1035.8,183.83L1036,200.79L1036.3,170.35L1036.5,226.76L1036.7,161.97L1037,161.4L1037.2,173.66L1037.5,202.97L1037.7,165.8L1037.9,159.27L1038.2,188.21L1038.4,168.3L1038.7,165.97L1038.9,175.44L1039.1,157.34L1039.4,154.62L1039.6,160.54L1039.9,169.77L1040.1,156.77L1040.3,158.07L1040.6,158.76L1040.8,194.77L1041.1,154.76L1041.3,173.57L1041.6,203.4L1041.8,157.65L1042,192.76L1042.3,166.74L1042.5,196.77L1042.8,163.07L1043,177.39L1043.2,219.81L1043.5,160.52L1043.7,154.95L1044,168.06L1044.2,152.39L1044.4,151.44L1044.7,160.17L1044.9,158.1L1045.2,162.72L1045.4,189.9L1045.6,151.25L1045.9,146.94L1046.1,152.62L1046.4,183.69L1046.6,356.68L1046.8,232.63L1047.1,158.16L1047.3,227.66L1047.6,409.9L1047.8,425.35L1048,456.43L1048.3,460.29L1048.5,445.81L1048.8,446.38L1049,465.06L1049.2,583.29L1049.5,445.02L1049.7,435.91L1050,441.35L1050.2,415.1L1050.4,396.45L1050.7,386.81L1050.9,247.94L1051.2,195.43L1051.4,321.5L1051.6,428.06L1051.9,422.95L1052.1,424.93L1052.4,413.23L1052.6,479.05L1052.8,389.72L1053.1,424.05L1053.3,416.41L1053.6,410.8L1053.8,410.53L1054,417.2L1054.3,413.22L1054.5,413.59L1054.8,365.69L1055,378.35L1055.2,390.42L1055.5,396.89L1055.7,399.35L1056,417.37L1056.2,411.51L1056.4,200.22L1056.7,225.9L1056.9,360.35L1057.2,396.98L1057.4,465.8L1057.7,207.34L1057.9,170.12L1058.1,166.47L1058.4,195.65L1058.6,160.71L1058.9,164.6L1059.1,164.07L1059.3,158.01L1059.6,170.02L1059.8,163.95L1060.1,159.48L1060.3,160.31L1060.5,175.29L1060.8,189L1061,167.2L1061.3,165.52L1061.5,162.4L1061.7,170.96L1062,163.81L1062.2,224.21L1062.5,166.9L1062.7,226.37L1062.9,154.64L1063.2,159.18L1063.4,663.25L1063.7,209.04L1063.9,163.84L1064.1,158.94L1064.4,162.89L1064.6,153.93L1064.9,155.51L1065.1,159.71L1065.3,156.88L1065.6,154.37L1065.8,154.89L1066.1,156.68L1066.3,167.25L1066.5,201.9L1066.8,148.63L1067,151.37L1067.3,150.45L1067.5,148.46L1067.7,153.14L1068,159.3L1068.2,167.59L1068.5,190.14L1068.7,159.51L1068.9,154.8L1069.2,151.94L1069.4,148.41L1069.7,155.58L1069.9,149.6L1070.1,156.46L1070.4,151.78L1070.6,183.64L1070.9,150.46L1071.1,155.75L1071.3,155.33L1071.6,156.44L1071.8,152.9L1072.1,150.54L1072.3,150.11L1072.6,144.26L1072.8,147.34L1073,153.24L1073.3,149.2L1073.5,144.03L1073.8,141L1074,149.86L1074.2,154.16L1074.5,168.46L1074.7,166.74L1075,185.06L1075.2,143.62L1075.4,147.07L1075.7,150.21L1075.9,147.32L1076.2,151.87L1076.4,143.53L1076.6,142.72L1076.9,139.51L1077.1,141.17L1077.4,139.97L1077.6,147.09L1077.8,147.12L1078.1,159.04L1078.3,146.93L1078.6,144.35L1078.8,151.01L1079,147.3L1079.3,149.74L1079.5,163.46L1079.8,181.06L1080,161.3" style="fill:none;stroke:#5A9BD4;stroke-width:1.875;stroke-dasharray:2.5,2.5" />
<path d="M1055,694.3L1080,694.3" style="fill:none;stroke:#F15A60;stroke-width:1.875" />
<text x="1002.5" y="-687.85" transform="scale(1, -1)"
	style="font-family:Helvetica;font-weight:normal;font-style:normal;font-size:12pt">etcd v3</text>
<path d="M1055,680L1080,680" style="fill:none;stroke:#7AC36A;stroke-width:1.875;stroke-dasharray:7.5,2.5" />
<text x="941.6" y="-673.56" transform="scale(1, -1)"
	style="font-family:Helvetica;font-weight:normal;font-style:normal;font-size:12pt">Zookeeper 3.4.8</text>
<path d="M1055,665.71L1080,665.71" style="fill:none;stroke:#5A9BD4;stroke-width:1.875;stroke-dasharray:2.5,2.5" />
<text x="966.62" y="-659.26" transform="scale(1, -1)"
	style="font-family:Helvetica;font-weight:normal;font-style:normal;font-size:12pt">Consul 0.6.4</text>
</g>
</svg>
