<?xml version="1.0"?>
<!-- Generated by SVGo and Plotinum VG -->
<svg width="12in" height="8in"
	xmlns="http://www.w3.org/2000/svg"
	xmlns:xlink="http://www.w3.org/1999/xlink">
<g transform="scale(1, -1) translate(0, -720)">
<path d="M0,0L1080,0L1080,720L0,720Z" style="fill:#FFFFFF" />
<text x="332.81" y="-706.41" transform="scale(1, -1)"
	style="font-family:Helvetica;font-weight:normal;font-style:normal;font-size:12pt">Read 1M keys, 1000 clients, key 64 bytes, value 1 kb, Latency</text>
<text x="549.36" y="-4.965" transform="scale(1, -1)"
	style="font-family:Helvetica;font-weight:normal;font-style:normal;font-size:12pt">second</text>
<text x="63.613" y="-19.142" transform="scale(1, -1)"
	style="font-family:Helvetica;font-weight:normal;font-style:normal;font-size:10pt">0</text>
<text x="388.65" y="-19.142" transform="scale(1, -1)"
	style="font-family:Helvetica;font-weight:normal;font-style:normal;font-size:10pt">60</text>
<text x="713.69" y="-19.142" transform="scale(1, -1)"
	style="font-family:Helvetica;font-weight:normal;font-style:normal;font-size:10pt">120</text>
<text x="1042.2" y="-19.142" transform="scale(1, -1)"
	style="font-family:Helvetica;font-weight:normal;font-style:normal;font-size:10pt">180</text>
<path d="M67.088,30.467L67.088,40.467" style="fill:none;stroke:#000000;stroke-width:0.625" />
<path d="M395.6,30.467L395.6,40.467" style="fill:none;stroke:#000000;stroke-width:0.625" />
<path d="M724.11,30.467L724.11,40.467" style="fill:none;stroke:#000000;stroke-width:0.625" />
<path d="M1052.6,30.467L1052.6,40.467" style="fill:none;stroke:#000000;stroke-width:0.625" />
<path d="M176.59,35.468L176.59,40.467" style="fill:none;stroke:#000000;stroke-width:0.625" />
<path d="M286.1,35.468L286.1,40.467" style="fill:none;stroke:#000000;stroke-width:0.625" />
<path d="M505.1,35.468L505.1,40.467" style="fill:none;stroke:#000000;stroke-width:0.625" />
<path d="M614.61,35.468L614.61,40.467" style="fill:none;stroke:#000000;stroke-width:0.625" />
<path d="M833.62,35.468L833.62,40.467" style="fill:none;stroke:#000000;stroke-width:0.625" />
<path d="M943.12,35.468L943.12,40.467" style="fill:none;stroke:#000000;stroke-width:0.625" />
<path d="M67.088,40.467L1080,40.467" style="fill:none;stroke:#000000;stroke-width:0.625" />
<g transform="rotate(90)">
<text x="335.49" y="13.59" transform="scale(1, -1)"
	style="font-family:Helvetica;font-weight:normal;font-style:normal;font-size:12pt">latency(ms)</text>
</g>
<text x="18.555" y="-206.01" transform="scale(1, -1)"
	style="font-family:Helvetica;font-weight:normal;font-style:normal;font-size:10pt">1000</text>
<text x="18.555" y="-370.68" transform="scale(1, -1)"
	style="font-family:Helvetica;font-weight:normal;font-style:normal;font-size:10pt">2000</text>
<text x="18.555" y="-535.35" transform="scale(1, -1)"
	style="font-family:Helvetica;font-weight:normal;font-style:normal;font-size:10pt">3000</text>
<path d="M49.83,211.38L59.83,211.38" style="fill:none;stroke:#000000;stroke-width:0.625" />
<path d="M49.83,376.05L59.83,376.05" style="fill:none;stroke:#000000;stroke-width:0.625" />
<path d="M49.83,540.72L59.83,540.72" style="fill:none;stroke:#000000;stroke-width:0.625" />
<path d="M54.83,129.05L59.83,129.05" style="fill:none;stroke:#000000;stroke-width:0.625" />
<path d="M54.83,293.72L59.83,293.72" style="fill:none;stroke:#000000;stroke-width:0.625" />
<path d="M54.83,458.38L59.83,458.38" style="fill:none;stroke:#000000;stroke-width:0.625" />
<path d="M54.83,623.05L59.83,623.05" style="fill:none;stroke:#000000;stroke-width:0.625" />
<path d="M59.83,47.03L59.83,701.44" style="fill:none;stroke:#000000;stroke-width:0.625" />
<path d="M67.088,47.03L72.563,47.047L78.038,47.037L83.513,47.04L88.988,47.041L94.464,47.036L99.939,47.038L105.41,47.096L110.89,47.409L116.36,47.263L121.84,47.052L127.31,47.044L132.79,47.045L138.27,47.038L143.74,47.039L149.22,47.04L154.69,47.049L160.17,47.039L165.64,47.045L171.12,47.042L176.59,47.036L182.07,47.042L187.54,47.038L193.02,47.042L198.49,47.047" style="fill:none;stroke:#F15A60;stroke-width:1.875" />
<path d="M67.088,49.207L72.563,49.592L78.038,50.132L83.513,49.918L88.988,50.068L94.464,50.005L99.939,50.044L105.41,50.079L110.89,50.041L116.36,49.988L121.84,50.078L127.31,50.076L132.79,50.079L138.27,50.027L143.74,50.022L149.22,50.05L154.69,50.044L160.17,50.06L165.64,50.061L171.12,49.977" style="fill:none;stroke:#7AC36A;stroke-width:1.875;stroke-dasharray:7.5,2.5" />
<path d="M67.088,52.793L72.563,51.854L78.038,52.343L83.513,52.134L88.988,52.036L94.464,52.493L99.939,114.91L105.41,195.42L110.89,162.86L116.36,187.72L121.84,214.93L127.31,115.9L132.79,220.9L138.27,202.55L143.74,106.42L149.22,127.63L154.69,289.52L160.17,459.99L165.64,185.69L171.12,135.57L176.59,147.88L182.07,167.37L187.54,332.44L193.02,230.29L198.49,288.33L203.97,463.36L209.44,58.446L214.92,52.317L220.39,52.187L225.87,51.948L231.34,51.988L236.82,51.647L242.29,71.912L247.77,142.12L253.24,158.33L258.72,171.2L264.19,138.79L269.67,175.78L275.15,109.14L280.62,220.48L286.1,396.04L291.57,187.54L297.05,109.55L302.52,86.218L308,100.31L313.47,75.878L318.95,243.46L324.42,365.33L329.9,195.68L335.37,127.13L340.85,143.55L346.32,361.24L351.8,490.86L357.27,204.89L362.75,71.702L368.22,53.115L373.7,52.183L379.17,52.228L384.65,52.265L390.12,51.954L395.6,56.687L401.07,93.312L406.55,194.54L412.03,147.26L417.5,146.66L422.98,173.55L428.45,396.5L433.93,132.08L439.4,191.53L444.88,221.5L450.35,244.29L455.83,121.69L461.3,119.93L466.78,394.91L472.25,434.79L477.73,298.89L483.2,376.65L488.68,250.74L494.15,74.753L499.63,67.18L505.1,334.78L510.58,72.337L516.05,421.49L521.53,283.44L527,382.49L532.48,217.86L537.95,143.44L543.43,54.432L548.91,52.062L554.38,52.291L559.86,52.235L565.33,51.965L570.81,53.781L576.28,93.266L581.76,147.55L587.23,147.12L592.71,145.87L598.18,224.52L603.66,140.91L609.13,112.19L614.61,266.03L620.08,163.02L625.56,165.58L631.03,108.67L636.51,154.75L641.98,284.67L647.46,125.93L652.93,141.93L658.41,111.6L663.88,302.46L669.36,104.09L674.83,95.938L680.31,300.03L685.79,271.12L691.26,171.81L696.74,102.61L702.21,220.21L707.69,503.28L713.16,192.69L718.64,182.21L724.11,284.4L729.59,55.013L735.06,52.497L740.54,52.32L746.01,52.482L751.49,52.134L756.96,52.942L762.44,91.871L767.91,99.109L773.39,158.56L778.86,173.77L784.34,160.74L789.81,121.32L795.29,134.06L800.76,147.57L806.24,201.23L811.72,292.3L817.19,180.34L822.67,112.69L828.14,173.47L833.62,101.26L839.09,91.045L844.57,117.28L850.04,204.25L855.52,214.65L860.99,212.19L866.47,194.86L871.94,63.384L877.42,268.69L882.89,364.05L888.37,701.44L893.84,305.29L899.32,442.55L904.79,55.311L910.27,52.604L915.74,52.117L921.22,52.269L926.69,52.391L932.17,52.906L937.64,72.2L943.12,112.66L948.6,97.474L954.07,204.21L959.55,89.655L965.02,139.25L970.5,121.14L975.97,158.37L981.45,157.21L986.92,187.23L992.4,85.88L997.87,101.95L1003.3,254.84L1008.8,114.07L1014.3,95.847L1019.8,206.17L1025.2,134.51L1030.7,76.439L1036.2,222.45L1041.7,68.302L1047.1,239.54L1052.6,82.386L1058.1,118.09L1063.6,366.28L1069,72.758L1074.5,168.56L1080,102.37" style="fill:none;stroke:#5A9BD4;stroke-width:1.875;stroke-dasharray:2.5,2.5" />
<path d="M67.088,49.492L72.563,50.052L78.038,48.241L83.513,47.773L88.988,47.893L94.464,47.898L99.939,47.95L105.41,47.873L110.89,47.81" style="fill:none;stroke:#FAA75B;stroke-width:1.875;stroke-dasharray:1.25,1.25" />
<path d="M1055,694.3L1080,694.3" style="fill:none;stroke:#F15A60;stroke-width:1.875" />
<text x="1007.5" y="-687.85" transform="scale(1, -1)"
	style="font-family:Helvetica;font-weight:normal;font-style:normal;font-size:12pt">consul</text>
<path d="M1055,680L1080,680" style="fill:none;stroke:#7AC36A;stroke-width:1.875;stroke-dasharray:7.5,2.5" />
<text x="1014.1" y="-673.56" transform="scale(1, -1)"
	style="font-family:Helvetica;font-weight:normal;font-style:normal;font-size:12pt">etcd3</text>
<path d="M1055,665.71L1080,665.71" style="fill:none;stroke:#5A9BD4;stroke-width:1.875;stroke-dasharray:2.5,2.5" />
<text x="1014.1" y="-659.26" transform="scale(1, -1)"
	style="font-family:Helvetica;font-weight:normal;font-style:normal;font-size:12pt">etcd2</text>
<path d="M1055,651.41L1080,651.41" style="fill:none;stroke:#FAA75B;stroke-width:1.875;stroke-dasharray:1.25,1.25" />
<text x="1035.8" y="-644.97" transform="scale(1, -1)"
	style="font-family:Helvetica;font-weight:normal;font-style:normal;font-size:12pt">zk</text>
</g>
</svg>
