<?xml version="1.0"?>
<!-- Generated by SVGo and Plotinum VG -->
<svg width="12in" height="8in"
	xmlns="http://www.w3.org/2000/svg"
	xmlns:xlink="http://www.w3.org/1999/xlink">
<g transform="scale(1, -1) translate(0, -720)">
<path d="M0,0L1080,0L1080,720L0,720Z" style="fill:#FFFFFF" />
<text x="343.25" y="-706.41" transform="scale(1, -1)"
	style="font-family:Helvetica;font-weight:normal;font-style:normal;font-size:12pt">Read 1M keys, 1000 clients, key 64 bytes, value 1 kb, CPU</text>
<text x="545.89" y="-4.965" transform="scale(1, -1)"
	style="font-family:Helvetica;font-weight:normal;font-style:normal;font-size:12pt">second</text>
<text x="56.662" y="-19.142" transform="scale(1, -1)"
	style="font-family:Helvetica;font-weight:normal;font-style:normal;font-size:10pt">0</text>
<text x="342.51" y="-19.142" transform="scale(1, -1)"
	style="font-family:Helvetica;font-weight:normal;font-style:normal;font-size:10pt">40</text>
<text x="631.83" y="-19.142" transform="scale(1, -1)"
	style="font-family:Helvetica;font-weight:normal;font-style:normal;font-size:10pt">80</text>
<text x="917.68" y="-19.142" transform="scale(1, -1)"
	style="font-family:Helvetica;font-weight:normal;font-style:normal;font-size:10pt">120</text>
<path d="M60.137,30.467L60.137,40.467" style="fill:none;stroke:#000000;stroke-width:0.625" />
<path d="M349.46,30.467L349.46,40.467" style="fill:none;stroke:#000000;stroke-width:0.625" />
<path d="M638.78,30.467L638.78,40.467" style="fill:none;stroke:#000000;stroke-width:0.625" />
<path d="M928.11,30.467L928.11,40.467" style="fill:none;stroke:#000000;stroke-width:0.625" />
<path d="M204.8,35.468L204.8,40.467" style="fill:none;stroke:#000000;stroke-width:0.625" />
<path d="M494.12,35.468L494.12,40.467" style="fill:none;stroke:#000000;stroke-width:0.625" />
<path d="M783.44,35.468L783.44,40.467" style="fill:none;stroke:#000000;stroke-width:0.625" />
<path d="M1072.8,35.468L1072.8,40.467" style="fill:none;stroke:#000000;stroke-width:0.625" />
<path d="M60.137,40.467L1080,40.467" style="fill:none;stroke:#000000;stroke-width:0.625" />
<g transform="rotate(90)">
<text x="358.4" y="13.59" transform="scale(1, -1)"
	style="font-family:Helvetica;font-weight:normal;font-style:normal;font-size:12pt">CPU</text>
</g>
<text x="25.505" y="-223.2" transform="scale(1, -1)"
	style="font-family:Helvetica;font-weight:normal;font-style:normal;font-size:10pt">60</text>
<text x="18.555" y="-408.94" transform="scale(1, -1)"
	style="font-family:Helvetica;font-weight:normal;font-style:normal;font-size:10pt">120</text>
<text x="18.555" y="-594.69" transform="scale(1, -1)"
	style="font-family:Helvetica;font-weight:normal;font-style:normal;font-size:10pt">180</text>
<path d="M42.88,228.57L52.88,228.57" style="fill:none;stroke:#000000;stroke-width:0.625" />
<path d="M42.88,414.31L52.88,414.31" style="fill:none;stroke:#000000;stroke-width:0.625" />
<path d="M42.88,600.06L52.88,600.06" style="fill:none;stroke:#000000;stroke-width:0.625" />
<path d="M47.88,104.74L52.88,104.74" style="fill:none;stroke:#000000;stroke-width:0.625" />
<path d="M47.88,166.65L52.88,166.65" style="fill:none;stroke:#000000;stroke-width:0.625" />
<path d="M47.88,290.48L52.88,290.48" style="fill:none;stroke:#000000;stroke-width:0.625" />
<path d="M47.88,352.4L52.88,352.4" style="fill:none;stroke:#000000;stroke-width:0.625" />
<path d="M47.88,476.23L52.88,476.23" style="fill:none;stroke:#000000;stroke-width:0.625" />
<path d="M47.88,538.14L52.88,538.14" style="fill:none;stroke:#000000;stroke-width:0.625" />
<path d="M47.88,661.97L52.88,661.97" style="fill:none;stroke:#000000;stroke-width:0.625" />
<path d="M52.88,47.03L52.88,701.44" style="fill:none;stroke:#000000;stroke-width:0.625" />
<path d="M60.137,47.03L67.371,110.31L74.604,166.74L81.837,218.88L89.07,270.3L96.303,313.92L103.54,353.64L110.77,387.84L118,405.55L125.24,411.87L132.47,428.61L139.7,453.1L146.93,475.02L154.17,495.64L161.4,515.02L168.63,532.82L175.87,549.13L183.1,563.71L190.33,578.05L197.57,590.71L204.8,603.68L212.03,615.6L219.26,626.56L226.5,636.96" style="fill:none;stroke:#F15A60;stroke-width:1.875" />
<path d="M60.137,118.33L67.371,186.22L74.604,249L81.837,303.89L89.07,352.06L96.303,395.09L103.54,433.82L110.77,467.99L118,499.72L125.24,527.68L132.47,553.37L139.7,577.37L146.93,599.63L154.17,619.72L161.4,638.26L168.63,655.91L175.87,672.69L183.1,687.48L190.33,701.44" style="fill:none;stroke:#7AC36A;stroke-width:1.875;stroke-dasharray:7.5,2.5" />
<path d="M60.137,48.64L67.371,85.046L74.604,126.47L81.837,167.61L89.07,206.03L96.303,240.67L103.54,246.34L110.77,238.13L118,230.45L125.24,222.99L132.47,216.06L139.7,209.71L146.93,203.68L154.17,198.13L161.4,192.96L168.63,188.17L175.87,183.65L183.1,179.41L190.33,175.35L197.57,171.7L204.8,168.11L212.03,164.82L219.26,161.67L226.5,158.63L233.73,155.78L240.96,153.09L248.2,150.52L255.43,148.08L262.66,145.69L269.9,143.49L277.13,141.36L284.36,139.31L291.6,137.33L298.83,135.45L306.06,133.71L313.29,131.98L320.53,130.34L327.76,128.73L334.99,127.21L342.23,125.72L349.46,124.3L356.69,122.97L363.93,121.64L371.16,120.34L378.39,119.1L385.63,117.92L392.86,116.78L400.09,115.66L407.32,114.58L414.56,113.53L421.79,112.54L429.02,111.58L436.26,110.59L443.49,109.69L450.72,108.82L457.96,107.92L465.19,107.09L472.42,106.25L479.66,105.48L486.89,104.7L494.12,103.93L501.35,109.04L508.59,118.02L515.82,127.09L523.05,136.44L530.29,145.94L537.52,149.9L544.75,149.04L551.99,147.98L559.22,146.96L566.45,145.91L573.69,144.79L580.92,143.68L588.15,142.63L595.38,141.54L602.62,140.52L609.85,139.5L617.08,138.51L624.32,137.55L631.55,136.59L638.78,135.69L646.02,134.76L653.25,133.9L660.48,133.03L667.72,132.13L674.95,131.3L682.18,130.49L689.41,129.66L696.65,128.88L703.88,128.11L711.11,127.37L718.35,126.59L725.58,125.88L732.81,125.14L740.05,124.42L747.28,123.74L754.51,123.06L761.75,122.41L768.98,121.73L776.21,121.08L783.44,120.46L790.68,119.84L797.91,119.22L805.14,118.64L812.38,118.02L819.61,117.43L826.84,116.87L834.08,116.31L841.31,115.76L848.54,115.2L855.77,114.67L863.01,114.12L870.24,113.59L877.47,113.09L884.71,112.57L891.94,112.1L899.17,111.61L906.41,111.11L913.64,110.65L920.87,110.18L928.11,109.72L935.34,112.38L942.57,116.72L949.8,121.58L957.04,126.78L964.27,131.89L971.5,134.98L978.74,134.83L985.97,134.33L993.2,133.77L1000.4,133.28L1007.7,132.72L1014.9,132.16L1022.1,131.61L1029.4,131.08L1036.6,130.52L1043.8,129.97L1051.1,129.44L1058.3,128.94L1065.5,128.42L1072.8,127.89L1080,127.4" style="fill:none;stroke:#5A9BD4;stroke-width:1.875;stroke-dasharray:2.5,2.5" />
<path d="M60.137,69.32L67.371,126.03L74.604,168.57L81.837,200.21L89.07,228.01L96.303,253.15L103.54,276.02L110.77,296.05" style="fill:none;stroke:#FAA75B;stroke-width:1.875;stroke-dasharray:1.25,1.25" />
<path d="M1055,694.3L1080,694.3" style="fill:none;stroke:#F15A60;stroke-width:1.875" />
<text x="1007.5" y="-687.85" transform="scale(1, -1)"
	style="font-family:Helvetica;font-weight:normal;font-style:normal;font-size:12pt">consul</text>
<path d="M1055,680L1080,680" style="fill:none;stroke:#7AC36A;stroke-width:1.875;stroke-dasharray:7.5,2.5" />
<text x="1014.1" y="-673.56" transform="scale(1, -1)"
	style="font-family:Helvetica;font-weight:normal;font-style:normal;font-size:12pt">etcd3</text>
<path d="M1055,665.71L1080,665.71" style="fill:none;stroke:#5A9BD4;stroke-width:1.875;stroke-dasharray:2.5,2.5" />
<text x="1014.1" y="-659.26" transform="scale(1, -1)"
	style="font-family:Helvetica;font-weight:normal;font-style:normal;font-size:12pt">etcd2</text>
<path d="M1055,651.41L1080,651.41" style="fill:none;stroke:#FAA75B;stroke-width:1.875;stroke-dasharray:1.25,1.25" />
<text x="1035.8" y="-644.97" transform="scale(1, -1)"
	style="font-family:Helvetica;font-weight:normal;font-style:normal;font-size:12pt">zk</text>
</g>
</svg>
