<?xml version="1.0"?>
<!-- Generated by SVGo and Plotinum VG -->
<svg width="12in" height="8in"
	xmlns="http://www.w3.org/2000/svg"
	xmlns:xlink="http://www.w3.org/1999/xlink">
<g transform="scale(1, -1) translate(0, -720)">
<path d="M0,0L1080,0L1080,720L0,720Z" style="fill:#FFFFFF" />
<text x="302" y="-706.41" transform="scale(1, -1)"
	style="font-family:Helvetica;font-weight:normal;font-style:normal;font-size:12pt">Write 3M keys, 500 clients, key 64 bytes, value 256 bytes, Memory(MB)</text>
<text x="548.11" y="-4.965" transform="scale(1, -1)"
	style="font-family:Helvetica;font-weight:normal;font-style:normal;font-size:12pt">Second</text>
<text x="63.613" y="-19.142" transform="scale(1, -1)"
	style="font-family:Helvetica;font-weight:normal;font-style:normal;font-size:10pt">0</text>
<text x="316.83" y="-19.142" transform="scale(1, -1)"
	style="font-family:Helvetica;font-weight:normal;font-style:normal;font-size:10pt">600</text>
<text x="573.52" y="-19.142" transform="scale(1, -1)"
	style="font-family:Helvetica;font-weight:normal;font-style:normal;font-size:10pt">1200</text>
<text x="833.69" y="-19.142" transform="scale(1, -1)"
	style="font-family:Helvetica;font-weight:normal;font-style:normal;font-size:10pt">1800</text>
<path d="M67.088,30.467L67.088,40.467" style="fill:none;stroke:#000000;stroke-width:0.625" />
<path d="M327.25,30.467L327.25,40.467" style="fill:none;stroke:#000000;stroke-width:0.625" />
<path d="M587.42,30.467L587.42,40.467" style="fill:none;stroke:#000000;stroke-width:0.625" />
<path d="M847.59,30.467L847.59,40.467" style="fill:none;stroke:#000000;stroke-width:0.625" />
<path d="M153.81,35.468L153.81,40.467" style="fill:none;stroke:#000000;stroke-width:0.625" />
<path d="M240.53,35.468L240.53,40.467" style="fill:none;stroke:#000000;stroke-width:0.625" />
<path d="M413.98,35.468L413.98,40.467" style="fill:none;stroke:#000000;stroke-width:0.625" />
<path d="M500.7,35.468L500.7,40.467" style="fill:none;stroke:#000000;stroke-width:0.625" />
<path d="M674.14,35.468L674.14,40.467" style="fill:none;stroke:#000000;stroke-width:0.625" />
<path d="M760.86,35.468L760.86,40.467" style="fill:none;stroke:#000000;stroke-width:0.625" />
<path d="M934.31,35.468L934.31,40.467" style="fill:none;stroke:#000000;stroke-width:0.625" />
<path d="M1021,35.468L1021,40.467" style="fill:none;stroke:#000000;stroke-width:0.625" />
<path d="M67.088,40.467L1080,40.467" style="fill:none;stroke:#000000;stroke-width:0.625" />
<g transform="rotate(90)">
<text x="330.91" y="13.59" transform="scale(1, -1)"
	style="font-family:Helvetica;font-weight:normal;font-style:normal;font-size:12pt">Memory(MB)</text>
</g>
<text x="18.555" y="-153.85" transform="scale(1, -1)"
	style="font-family:Helvetica;font-weight:normal;font-style:normal;font-size:10pt">1000</text>
<text x="18.555" y="-268.37" transform="scale(1, -1)"
	style="font-family:Helvetica;font-weight:normal;font-style:normal;font-size:10pt">2000</text>
<text x="18.555" y="-382.89" transform="scale(1, -1)"
	style="font-family:Helvetica;font-weight:normal;font-style:normal;font-size:10pt">3000</text>
<text x="18.555" y="-497.42" transform="scale(1, -1)"
	style="font-family:Helvetica;font-weight:normal;font-style:normal;font-size:10pt">4000</text>
<text x="18.555" y="-611.94" transform="scale(1, -1)"
	style="font-family:Helvetica;font-weight:normal;font-style:normal;font-size:10pt">5000</text>
<path d="M49.83,159.22L59.83,159.22" style="fill:none;stroke:#000000;stroke-width:0.625" />
<path d="M49.83,273.74L59.83,273.74" style="fill:none;stroke:#000000;stroke-width:0.625" />
<path d="M49.83,388.26L59.83,388.26" style="fill:none;stroke:#000000;stroke-width:0.625" />
<path d="M49.83,502.78L59.83,502.78" style="fill:none;stroke:#000000;stroke-width:0.625" />
<path d="M49.83,617.31L59.83,617.31" style="fill:none;stroke:#000000;stroke-width:0.625" />
<path d="M54.83,101.96L59.83,101.96" style="fill:none;stroke:#000000;stroke-width:0.625" />
<path d="M54.83,216.48L59.83,216.48" style="fill:none;stroke:#000000;stroke-width:0.625" />
<path d="M54.83,331L59.83,331" style="fill:none;stroke:#000000;stroke-width:0.625" />
<path d="M54.83,445.52L59.83,445.52" style="fill:none;stroke:#000000;stroke-width:0.625" />
<path d="M54.83,560.05L59.83,560.05" style="fill:none;stroke:#000000;stroke-width:0.625" />
<path d="M54.83,674.57L59.83,674.57" style="fill:none;stroke:#000000;stroke-width:0.625" />
<path d="M59.83,47.03L59.83,701.44" style="fill:none;stroke:#000000;stroke-width:0.625" />
<path d="M67.088,54.035L67.521,55.46L67.955,56.081L68.388,56.703L68.822,57.43L69.256,57.771L69.689,58.564L70.123,59.003L70.556,59.776L70.99,60.395L71.424,60.986L71.857,61.674L72.291,61.976L72.724,62.594L73.158,63.219L73.592,63.716L74.025,64.232L74.459,64.827L74.892,65.533L75.326,65.907L75.76,66.323L76.193,66.901L76.627,67.617L77.061,68.188L77.494,68.808L77.928,69.353L78.361,69.709L78.795,70.105L79.229,70.895L79.662,71.405L80.096,71.854L80.529,72.539L80.963,73.219L81.397,73.699L81.83,74.267L82.264,74.762L82.697,75.058L83.131,75.654L83.565,76.226L83.998,76.941L84.432,77.446L84.866,77.647L85.299,78.266L85.733,78.938L86.166,79.628L86.6,80.062L87.034,80.655L87.467,81.049L87.901,81.586L88.334,81.988L88.768,82.526L89.202,83.586L89.635,84.071L90.069,84.416L90.502,84.905L90.936,85.366L91.37,85.915L91.803,86.378L92.237,87.073L92.67,87.348L93.104,88.125L93.538,88.462L93.971,88.76L94.405,89.66L94.839,90.075L95.272,90.396L95.706,91.421L96.139,91.917L96.573,92.419L97.007,92.613L97.44,93.862L97.874,94.394L98.307,94.82L98.741,95.136L99.175,95.658L99.608,96.112L100.04,96.794L100.48,97.238L100.91,97.883L101.34,98.531L101.78,99.481L102.21,100.02L102.64,100.39L103.08,101.1L103.51,101.4L103.94,101.74L104.38,102.46L104.81,103.28L105.25,103.74L105.68,104.11L106.11,104.64L106.55,105.17L106.98,105.78L107.41,106.48L107.85,106.86L108.28,107.45L108.71,107.75L109.15,108.48L109.58,108.8L110.01,109.37L110.45,109.81L110.88,110.69L111.32,111.12L111.75,111.82L112.18,112.21L112.62,112.8L113.05,113.45L113.48,114L113.92,114.74L114.35,114.93L114.78,115.48L115.22,115.82L115.65,116.1L116.09,116.65L116.52,117.46L116.95,118.02L117.39,118.42L117.82,118.83L118.25,119.13L118.69,120.08L119.12,120.36L119.55,120.54L119.99,121.09L120.42,121.66L120.86,122.57L121.29,123.28L121.72,123.63L122.16,124.07L122.59,124.59L123.02,124.97L123.46,125.18L123.89,125.65L124.32,126.45L124.76,126.85L125.19,127.5L125.62,128.29L126.06,128.72L126.49,128.99L126.93,129.32L127.36,129.97L127.79,130.49L128.23,130.8L128.66,131.13L129.09,132.04L129.53,132.58L129.96,133.08L130.39,133.29L130.83,133.37L131.26,134.26L131.7,135.11L132.13,135.66L132.56,135.98L133,136.6L133.43,136.86L133.86,137.41L134.3,137.99L134.73,138.59L135.16,139.15L135.6,139.37L136.03,139.84L136.47,140.34L136.9,140.8L137.33,141.64L137.77,142L138.2,142.43L138.63,142.72L139.07,143.65L139.5,144.08L139.93,144.44L140.37,144.89L140.8,145.36L141.23,146.09L141.67,146.74L142.1,147.24L142.54,147.42L142.97,147.96L143.4,148.41L143.84,149.23L144.27,149.57L144.7,150.06L145.14,150.26L145.57,150.87L146,151.07L146.44,151.54L146.87,151.98L147.31,152.76L147.74,153.21L148.17,153.97L148.61,154.47L149.04,154.89L149.47,155.43L149.91,155.8L150.34,156.5L150.77,156.9L151.21,157.3L151.64,157.86L152.08,158.37L152.51,158.77L152.94,159.48L153.38,159.6L153.81,160.21L154.24,160.63L154.68,161.32L155.11,161.89L155.54,162.04L155.98,162.59L156.41,162.86L156.84,163.64L157.28,163.97L157.71,164.74L158.15,165.43L158.58,165.87L159.01,166.17L159.45,166.96L159.88,167.13L160.31,167.58L160.75,168.25L161.18,168.7L161.61,169.62L162.05,169.74L162.48,170.27L162.92,170.64L163.35,171L163.78,171.69L164.22,172.34L164.65,173.12L165.08,173.5L165.52,173.72L165.95,174.31L166.38,174.71L166.82,174.85L167.25,175.71L167.68,176.14L168.12,176.68L168.55,176.99L168.99,177.73L169.42,178.13L169.85,178.68L170.29,179.22L170.72,179.43L171.15,179.75L171.59,180.22L172.02,180.94L172.45,181.92L172.89,182.17L173.32,182.35L173.76,183.12L174.19,183.4L174.62,183.9L175.06,184.54L175.49,184.73L175.92,185.59L176.36,186.08L176.79,186.21L177.22,187.08L177.66,187.57L178.09,187.89L178.53,188.36L178.96,188.87L179.39,189.46L179.83,189.87L180.26,190.49L180.69,191.31L181.13,191.41L181.56,191.6L181.99,192.25L182.43,192.31L182.86,192.7L183.29,193.48L183.73,193.48L184.16,194.2L184.6,195.22L185.03,195.58L185.46,196.14L185.9,196.88L186.33,197.5L186.76,197.96L187.2,198.35L187.63,198.82L188.06,199.16L188.5,199.73L188.93,200.18L189.37,200.79L189.8,201.18L190.23,201.5L190.67,201.98L191.1,202.56L191.53,203.03L191.97,203.5L192.4,204.18L192.83,204.36L193.27,204.99L193.7,205.6L194.14,205.83L194.57,205.86L195,206.28L195.44,207.53L195.87,207.68L196.3,208.15L196.74,208.82L197.17,209.15L197.6,209.35L198.04,210.03L198.47,210.52L198.9,210.88L199.34,211.25L199.77,211.9L200.21,212.61L200.64,212.79L201.07,213.29L201.51,213.6L201.94,214.11L202.37,214.47L202.81,214.59L203.24,215.08L203.67,215.94L204.11,216.75L204.54,217.3L204.98,217.71L205.41,218.41L205.84,218.71L206.28,219.04L206.71,219.42" style="fill:none;stroke:#F15A60;stroke-width:1.875" />
<path d="M67.088,53.645L67.521,62.51L67.955,66.626L68.388,76.067L68.822,84.871L69.256,97.882L69.689,108.87L70.123,120.61L70.556,132.28L70.99,143.15L71.424,150.85L71.857,150.85L72.291,155.83L72.724,183.07L73.158,183.67L73.592,192.72L74.025,200.16L74.459,207.3L74.892,207.3L75.326,211.51L75.76,212L76.193,226.86L76.627,245.11L77.061,246.07L77.494,246.94L77.928,246.94L78.361,246.94L78.795,255.03L79.229,255.03L79.662,255.03L80.096,259.81L80.529,259.84L80.963,260.78L81.397,261.81L81.83,261.81L82.264,261.81L82.697,266.88L83.131,271.94L83.565,272.41L83.998,272.41L84.432,272.41L84.866,276.1L85.299,276.95L85.733,276.95L86.166,276.95L86.6,283.21L87.034,283.26L87.467,283.26L87.901,295.18L88.334,299.72L88.768,299.81L89.202,298.93L89.635,298.93L90.069,298.93L90.502,298.93L90.936,298.93L91.37,298.93L91.803,298.93L92.237,298.93L92.67,298.93L93.104,298.93L93.538,299.8L93.971,303.54L94.405,303.54L94.839,306.97L95.272,309.56L95.706,312.05L96.139,312.05L96.573,312.05L97.007,320.66L97.44,320.7L97.874,320.7L98.307,320.7L98.741,320.71L99.175,320.71L99.608,320.71L100.04,320.71L100.48,320.71L100.91,320.67L101.34,320.55L101.78,320.55L102.21,320.59L102.64,320.51L103.08,320.51L103.51,323.77L103.94,327.63L104.38,330.53L104.81,330.53L105.25,330.52L105.68,334.69L106.11,341.91L106.55,349.03L106.98,349.03L107.41,351.49L107.85,351.65L108.28,354.44L108.71,354.47L109.15,355L109.58,354.43L110.01,354.43L110.45,354.29L110.88,353.41L111.32,353.41L111.75,353.53L112.18,353.57L112.62,353.57L113.05,353.57L113.48,353.57L113.92,352.13L114.35,352.18L114.78,354L115.22,357.43L115.65,359.54L116.09,362.45L116.52,363.97L116.95,366.16L117.39,369.36L117.82,371.5L118.25,375.95L118.69,376.72L119.12,384.14L119.55,384.22L119.99,388.89L120.42,389.45L120.86,390.41L121.29,391.2L121.72,393.04L122.16,393.03L122.59,394.82L123.02,395.05L123.46,395.16L123.89,396.53L124.32,397.33L124.76,397.8L125.19,398.51L125.62,398.61L126.06,398.52L126.49,398.64L126.93,397.47L127.36,396.52L127.79,397.31L128.23,397.94L128.66,398.1L129.09,399.73L129.53,399.73L129.96,401.24L130.39,401.19L130.83,402.51L131.26,402.56L131.7,404.17L132.13,404.34L132.56,406L133,406.09L133.43,406.13L133.86,406.13L134.3,408.69L134.73,408.69L135.16,409.5L135.6,409.56L136.03,409.56L136.47,409.98L136.9,410.52L137.33,411.41L137.77,414.77L138.2,415.79L138.63,417.21L139.07,418.97L139.5,421.05L139.93,423.16L140.37,425.66L140.8,428.23L141.23,436.36L141.67,437.15L142.1,441.2L142.54,441.2L142.97,446.76L143.4,446.76L143.84,452.81L144.27,452.81L144.7,453.31L145.14,454.73L145.57,455.96L146,456.91" style="fill:none;stroke:#7AC36A;stroke-width:1.875;stroke-dasharray:7.5,2.5" />
<path d="M67.088,47.03L67.521,48.976L67.955,49.953L68.388,50.868L68.822,51.385L69.256,52.52L69.689,53.7L70.123,54.74L70.556,54.65L70.99,55.95L71.424,57.039L71.857,58.268L72.291,59.54L72.724,60.82L73.158,61.704L73.592,60.532L74.025,61.295L74.459,62.764L74.892,63.803L75.326,64.612L75.76,66.131L76.193,67.173L76.627,68.437L77.061,69.671L77.494,70.907L77.928,71.765L78.361,73.138L78.795,74.454L79.229,75.889L79.662,77.324L80.096,71.563L80.529,73.091L80.963,74.684L81.397,75.482L81.83,76.139L82.264,78.082L82.697,78.96L83.131,79.758L83.565,81.293L83.998,81.703L84.432,83.402L84.866,84.724L85.299,85.463L85.733,86.817L86.166,87.453L86.6,89.839L87.034,96.535L87.467,100.07L87.901,100.23L88.334,100.74L88.768,101.62L89.202,101.69L89.635,103.27L90.069,103.33L90.502,104.94L90.936,105L91.37,105.19L91.803,106.68L92.237,106.8L92.67,108.38L93.104,108.51L93.538,100.74L93.971,102.55L94.405,102.97L94.839,103.09L95.272,105.19L95.706,105.21L96.139,105.93L96.573,107.91L97.007,107.94L97.44,108.69L97.874,110.5L98.307,110.97L98.741,111.43L99.175,113.57L99.608,113.75L100.04,114.56L100.48,116.52L100.91,116.59L101.34,117.3L101.78,119.37L102.21,119.94L102.64,133.24L103.08,138.14L103.51,139.82L103.94,141.22L104.38,141.3L104.81,141.84L105.25,142.89L105.68,142.93L106.11,143.04L106.55,144.5L106.98,145.05L107.41,145.1L107.85,145.12L108.28,145.78L108.71,146.59L109.15,147.21L109.58,147.24L110.01,147.89L110.45,148.17L110.88,148.51L111.32,148.54L111.75,148.57L112.18,148.6L112.62,148.62L113.05,148.66L113.48,148.68L113.92,148.83L114.35,149.31L114.78,149.84L115.22,150.57L115.65,150.62L116.09,150.85L116.52,150.92L116.95,151.01L117.39,151.08L117.82,151.1L118.25,151.16L118.69,151.2L119.12,151.34L119.55,151.51L119.99,151.65L120.42,151.9L120.86,151.99L121.29,152.39L121.72,153.63L122.16,153.83L122.59,153.92L123.02,157.42L123.46,168.9L123.89,173.27L124.32,175.8L124.76,179.79L125.19,179.82L125.62,180.36L126.06,181.33L126.49,181.62L126.93,181.65L127.36,181.71L127.79,181.71L128.23,181.99L128.66,182.11L129.09,182.23L129.53,182.47L129.96,182.59L130.39,182.99L130.83,183.25L131.26,183.57L131.7,183.95L132.13,184.27L132.56,184.48L133,184.48L133.43,184.5L133.86,184.51L134.3,184.53L134.73,184.68L135.16,184.68L135.6,184.7L136.03,184.72L136.47,184.74L136.9,184.77L137.33,184.78L137.77,184.78L138.2,184.81L138.63,184.84L139.07,184.89L139.5,184.9L139.93,184.93L140.37,184.95L140.8,184.96L141.23,184.96L141.67,184.99L142.1,185L142.54,185.03L142.97,185.11L143.4,185.34L143.84,175.86L144.27,176.21L144.7,176.49L145.14,176.81L145.57,176.89L146,176.9L146.44,176.9L146.87,176.9L147.31,176.9L147.74,177L148.17,177.01L148.61,177.02L149.04,177.05L149.47,177.06L149.91,177.07L150.34,177.07L150.77,177.1L151.21,177.11L151.64,177.11L152.08,177.11L152.51,177.11L152.94,177.13L153.38,177.15L153.81,177.16L154.24,177.16L154.68,177.19L155.11,177.24L155.54,177.29L155.98,177.32L156.41,177.32L156.84,177.33L157.28,177.39L157.71,177.4L158.15,177.49L158.58,177.51L159.01,177.52L159.45,177.58L159.88,177.68L160.31,177.69L160.75,177.69L161.18,177.69L161.61,177.71L162.05,177.71L162.48,177.72L162.92,177.72L163.35,177.72L163.78,177.72L164.22,177.76L164.65,177.76L165.08,177.83L165.52,177.92L165.95,177.95L166.38,177.98L166.82,178.07L167.25,178.09L167.68,178.1L168.12,178.1L168.55,178.1L168.99,178.12L169.42,178.12L169.85,178.14L170.29,178.23L170.72,178.51L171.15,178.51L171.59,178.55L172.02,178.55L172.45,178.55L172.89,178.73L173.32,178.78L173.76,178.81L174.19,178.81L174.62,179.06L175.06,179.07L175.49,180.25L175.92,180.26L176.36,180.26L176.79,180.31L177.22,180.33L177.66,180.33L178.09,180.41L178.53,180.56L178.96,180.56L179.39,180.64L179.83,180.64L180.26,180.66L180.69,180.67L181.13,180.67L181.56,180.67L181.99,180.67L182.43,180.72L182.86,180.85L183.29,181.11L183.73,181.24L184.16,181.26L184.6,188.98L185.03,193.96L185.46,196.59L185.9,200.8L186.33,204.06L186.76,204.07L187.2,204.11L187.63,204.14L188.06,204.15L188.5,204.15L188.93,204.16L189.37,204.16L189.8,204.16L190.23,204.16L190.67,204.19L191.1,204.19L191.53,204.2L191.97,204.21L192.4,204.21L192.83,204.21L193.27,204.21L193.7,204.21L194.14,204.21L194.57,204.21L195,204.21L195.44,204.21L195.87,204.21L196.3,204.21L196.74,204.21L197.17,204.21L197.6,204.22L198.04,204.22L198.47,204.22L198.9,204.22L199.34,204.22L199.77,204.22L200.21,204.22L200.64,204.22L201.07,204.23L201.51,204.23L201.94,204.23L202.37,204.23L202.81,204.23L203.24,204.23L203.67,204.23L204.11,204.23L204.54,204.23L204.98,204.23L205.41,204.24L205.84,204.24L206.28,204.24L206.71,204.24L207.14,204.24L207.58,204.24L208.01,204.24L208.44,204.24L208.88,204.39L209.31,204.39L209.75,204.39L210.18,204.39L210.61,204.39L211.05,204.4L211.48,204.41L211.91,204.41L212.35,204.42L212.78,204.42L213.21,204.42L213.65,204.43L214.08,204.43L214.51,204.43L214.95,204.44L215.38,204.63L215.82,204.63L216.25,204.64L216.68,205.29L217.12,205.33L217.55,205.33L217.98,205.78L218.42,206.01L218.85,206.02L219.28,206.02L219.72,207.42L220.15,207.98L220.59,208.01L221.02,208.09L221.45,210.46L221.89,211.97L222.32,213.27L222.75,213.28L223.19,213.28L223.62,213.28L224.05,213.3L224.49,214.33L224.92,215L225.36,215.02L225.79,215.02L226.22,215.02L226.66,215.26L227.09,215.5L227.52,215.82L227.96,216.99L228.39,217.05L228.82,217.08L229.26,217.08L229.69,217.08L230.12,218.21L230.56,218.22L230.99,218.22L231.43,218.22L231.86,218.73L232.29,218.74L232.73,218.84L233.16,219.42L233.59,219.42L234.03,219.85L234.46,219.87L234.89,219.88L235.33,219.88L235.76,219.95L236.2,221.13L236.63,221.15L237.06,221.15L237.5,221.15L237.93,221.15L238.36,221.15L238.8,221.15L239.23,221.61L239.66,221.61L240.1,221.65L240.53,221.66L240.97,221.66L241.4,221.66L241.83,221.66L242.27,221.66L242.7,221.66L243.13,221.66L243.57,221.66L244,221.66L244.43,221.83L244.87,221.83L245.3,221.9L245.73,221.9L246.17,221.9L246.6,221.9L247.04,221.9L247.47,221.9L247.9,221.9L248.34,221.9L248.77,221.9L249.2,221.9L249.64,221.9L250.07,221.91L250.5,221.91L250.94,221.91L251.37,221.91L251.81,221.91L252.24,221.91L252.67,221.91L253.11,221.91L253.54,221.91L253.97,221.91L254.41,221.91L254.84,222.08L255.27,222.08L255.71,222.13L256.14,222.19L256.57,222.19L257.01,222.19L257.44,223.28L257.88,227.57L258.31,228.92L258.74,228.95L259.18,228.95L259.61,228.95L260.04,228.95L260.48,228.95L260.91,228.95L261.34,228.97L261.78,229L262.21,229L262.65,229.08L263.08,229.11L263.51,229.11L263.95,229.51L264.38,234.48L264.81,235.93L265.25,235.93L265.68,235.93L266.11,235.93L266.55,235.93L266.98,235.93L267.42,235.93L267.85,235.93L268.28,235.93L268.72,235.93L269.15,235.93L269.58,235.93L270.02,235.93L270.45,235.93L270.88,235.95L271.32,236.01L271.75,235.99L272.18,235.99L272.62,235.99L273.05,235.99L273.49,236.02L273.92,236.02L274.35,236.02L274.79,236.02L275.22,236.04L275.65,236.04L276.09,236.04L276.52,236.04L276.95,236.04L277.39,236.04L277.82,236.04L278.26,236.04L278.69,236.04L279.12,236.04L279.56,236.06L279.99,236.06L280.42,236.06L280.86,236.14L281.29,237.99L281.72,237.99L282.16,239.15L282.59,242.71L283.03,244.07L283.46,250.17L283.89,252.02L284.33,252.03L284.76,252.04L285.19,252.91L285.63,252.91L286.06,252.91L286.49,254.11L286.93,254.11L287.36,254.11L287.79,254.45L288.23,254.45L288.66,254.45L289.1,256.68L289.53,256.68L289.96,256.68L290.4,257.21L290.83,257.57L291.26,257.57L291.7,257.57L292.13,257.69L292.56,257.8L293,259.22L293.43,261.03L293.87,261.53L294.3,261.59L294.73,261.59L295.17,261.59L295.6,262.05L296.03,262.05L296.47,263.18L296.9,263.72L297.33,265.29L297.77,265.4L298.2,265.4L298.64,265.45L299.07,265.46L299.5,265.46L299.94,265.77L300.37,265.8L300.8,266.57L301.24,266.57L301.67,266.58L302.1,267.37L302.54,267.49L302.97,268.01L303.4,268.49L303.84,268.52L304.27,268.84L304.71,268.84L305.14,268.84L305.57,268.84L306.01,268.84L306.44,268.84L306.87,269.01L307.31,269.72L307.74,269.85L308.17,269.86L308.61,269.86L309.04,269.86L309.48,269.86L309.91,269.86L310.34,270.02L310.78,270.05L311.21,270.05L311.64,270.05L312.08,270.05L312.51,270.21L312.94,270.29L313.38,270.29L313.81,270.34L314.25,270.34L314.68,270.36L315.11,270.36L315.55,270.36L315.98,270.36L316.41,270.36L316.85,270.36L317.28,270.36L317.71,270.36L318.15,270.36L318.58,270.36L319.01,270.36L319.45,270.36L319.88,270.37L320.32,270.37L320.75,270.41L321.18,270.47L321.62,270.51L322.05,270.51L322.48,270.51L322.92,270.51L323.35,273.6L323.78,277.88L324.22,278.23L324.65,278.25L325.09,278.25L325.52,278.26L325.95,278.26L326.39,278.28L326.82,278.28L327.25,278.28L327.69,278.3L328.12,278.3L328.55,278.3L328.99,278.3L329.42,278.3L329.86,278.3L330.29,278.3L330.72,278.3L331.16,278.3L331.59,278.31L332.02,278.31L332.46,278.31L332.89,278.31L333.32,278.31L333.76,278.35L334.19,278.39L334.62,278.39L335.06,278.39L335.49,278.39L335.93,278.43L336.36,278.52L336.79,278.52L337.23,278.52L337.66,278.52L338.09,278.87L338.53,278.94L338.96,281.38L339.39,286.07L339.83,290.54L340.26,291.54L340.7,291.55L341.13,291.56L341.56,291.58L342,292.39L342.43,292.39L342.86,292.39L343.3,292.39L343.73,292.39L344.16,292.39L344.6,292.39L345.03,292.39L345.46,292.39L345.9,292.39L346.33,292.39L346.77,292.39L347.2,292.39L347.63,292.41L348.07,292.41L348.5,292.41L348.93,292.41L349.37,292.41L349.8,292.42L350.23,292.42L350.67,292.42L351.1,292.43L351.54,292.43L351.97,292.43L352.4,292.44L352.84,292.44L353.27,292.44L353.7,292.44L354.14,292.44L354.57,292.44L355,292.44L355.44,292.44L355.87,292.44L356.31,292.44L356.74,292.5L357.17,292.61L357.61,292.61L358.04,292.61L358.47,292.61L358.91,292.61L359.34,292.61L359.77,293.85L360.21,294.37L360.64,300.8L361.07,307.13L361.51,309.29L361.94,309.29L362.38,309.36L362.81,310.77L363.24,314.95L363.68,317.43L364.11,318.62L364.54,318.7L364.98,318.71L365.41,318.72L365.84,318.73L366.28,318.75L366.71,318.78L367.15,318.78L367.58,318.94L368.01,318.94L368.45,318.94L368.88,318.96L369.31,318.97L369.75,318.99L370.18,318.99L370.61,318.99L371.05,319.98L371.48,321.34L371.92,321.69L372.35,321.69L372.78,321.69L373.22,321.69L373.65,321.69L374.08,321.69L374.52,321.69L374.95,321.88L375.38,321.9L375.82,321.9L376.25,321.92L376.68,321.96L377.12,321.96L377.55,321.96L377.99,321.96L378.42,321.96L378.85,321.96L379.29,322L379.72,322.01L380.15,322.01L380.59,322.01L381.02,322.01L381.45,322.95L381.89,327.28L382.32,331.38L382.76,331.59L383.19,331.61L383.62,331.61L384.06,331.61L384.49,331.61L384.92,331.61L385.36,331.61L385.79,331.61L386.22,331.61L386.66,331.61L387.09,331.61L387.53,331.61L387.96,331.61L388.39,331.61L388.83,331.61L389.26,331.61L389.69,331.61L390.13,331.62L390.56,331.62L390.99,331.62L391.43,331.62L391.86,331.62L392.29,331.63L392.73,331.85L393.16,331.85L393.6,331.85L394.03,331.85L394.46,331.85L394.9,331.85L395.33,331.85L395.76,331.88L396.2,331.89L396.63,331.89L397.06,331.89L397.5,331.89L397.93,331.89L398.37,331.89L398.8,331.9L399.23,331.9L399.67,331.92L400.1,331.93L400.53,331.93L400.97,331.93L401.4,331.93L401.83,331.93L402.27,331.93L402.7,331.93L403.14,331.94L403.57,331.95L404,331.99L404.44,332.03L404.87,332.03L405.3,332.03L405.74,332.03L406.17,332.03L406.6,332.06L407.04,332.08L407.47,332.08L407.9,332.08L408.34,332.08L408.77,332.1L409.21,332.15L409.64,332.32L410.07,332.39L410.51,332.41L410.94,332.41L411.37,332.41L411.81,332.52L412.24,332.8L412.67,333.19L413.11,333.28L413.54,333.31L413.98,333.34L414.41,333.5L414.84,338.67L415.28,344.32L415.71,349.64L416.14,352.68L416.58,352.72L417.01,352.75L417.44,352.76L417.88,354.07L418.31,359.51L418.75,364.18L419.18,365.13L419.61,365.13L420.05,366.86L420.48,368.24L420.91,368.25L421.35,368.28L421.78,368.28L422.21,368.28L422.65,368.54L423.08,369.55L423.51,370.39L423.95,371.32L424.38,372.29L424.82,372.56L425.25,372.56L425.68,372.56L426.12,372.56L426.55,372.56L426.98,372.56L427.42,372.64L427.85,372.67L428.28,372.67L428.72,372.67L429.15,372.67L429.59,372.67L430.02,372.67L430.45,372.67L430.89,372.67L431.32,372.67L431.75,372.67L432.19,372.67L432.62,372.67L433.05,372.78L433.49,372.81L433.92,372.81L434.36,372.81L434.79,372.81L435.22,372.82L435.66,373.83L436.09,374.34L436.52,374.44L436.96,374.44L437.39,374.44L437.82,374.44L438.26,380.25L438.69,384.68L439.12,384.68L439.56,384.68L439.99,384.7L440.43,384.7L440.86,384.7L441.29,384.77L441.73,384.78L442.16,384.79L442.59,384.81L443.03,384.82L443.46,384.82L443.89,384.82L444.33,384.84L444.76,384.84L445.2,384.84L445.63,384.84L446.06,384.84L446.5,384.84L446.93,384.86L447.36,384.86L447.8,384.86L448.23,384.86L448.66,384.86L449.1,384.86L449.53,385.3L449.96,385.31L450.4,385.31L450.83,385.31L451.27,385.31L451.7,385.31L452.13,385.31L452.57,385.31L453,385.31L453.43,385.31L453.87,385.31L454.3,385.31L454.73,385.31L455.17,385.31L455.6,385.31L456.04,385.31L456.47,385.31L456.9,385.31L457.34,385.31L457.77,385.31L458.2,385.31L458.64,385.31L459.07,385.31L459.5,385.31L459.94,385.31L460.37,385.31L460.81,385.31L461.24,385.32L461.67,385.32L462.11,385.33L462.54,385.43L462.97,385.43L463.41,385.43L463.84,385.43L464.27,385.43L464.71,385.43L465.14,385.44L465.57,385.44L466.01,385.44L466.44,385.44L466.88,385.44L467.31,385.44L467.74,385.44L468.18,385.44L468.61,385.44L469.04,385.44L469.48,385.44L469.91,385.44L470.34,385.44L470.78,385.46L471.21,385.46L471.65,385.46L472.08,385.46L472.51,385.46L472.95,385.46L473.38,385.46L473.81,385.46L474.25,385.46L474.68,385.46L475.11,385.46L475.55,385.46L475.98,385.46L476.42,385.46L476.85,385.46L477.28,385.46L477.72,385.48L478.15,385.48L478.58,385.51L479.02,385.67L479.45,385.67L479.88,385.67L480.32,385.67L480.75,385.67L481.18,385.67L481.62,385.67L482.05,385.69L482.49,385.8L482.92,385.76L483.35,385.76L483.79,385.77L484.22,385.77L484.65,385.77L485.09,385.77L485.52,385.77L485.95,385.77L486.39,386.52L486.82,389.68L487.26,389.82L487.69,389.82L488.12,389.82L488.56,389.82L488.99,389.84L489.42,392.8L489.86,396.83L490.29,400.87L490.72,401.64L491.16,401.64L491.59,401.64L492.03,401.64L492.46,401.64L492.89,401.65L493.33,401.65L493.76,401.66L494.19,401.66L494.63,401.82L495.06,401.82L495.49,401.82L495.93,401.82L496.36,401.82L496.79,401.82L497.23,401.82L497.66,401.83L498.1,401.83L498.53,401.83L498.96,401.83L499.4,401.83L499.83,401.83L500.26,401.84L500.7,401.84L501.13,401.84L501.56,401.84L502,401.84L502.43,401.84L502.87,401.84L503.3,401.84L503.73,401.84L504.17,401.84L504.6,401.84L505.03,401.84L505.47,401.84L505.9,401.84L506.33,401.84L506.77,401.84L507.2,401.84L507.64,401.84L508.07,401.84L508.5,401.84L508.94,401.84L509.37,401.84L509.8,401.84L510.24,401.85L510.67,401.85L511.1,401.85L511.54,401.85L511.97,401.85L512.4,401.85L512.84,401.85L513.27,401.85L513.71,401.85L514.14,401.85L514.57,401.85L515.01,401.85L515.44,401.85L515.87,401.85L516.31,401.85L516.74,401.85L517.17,401.85L517.61,401.85L518.04,401.85L518.48,401.85L518.91,401.85L519.34,401.85L519.78,401.85L520.21,401.85L520.64,401.85L521.08,401.85L521.51,401.85L521.94,401.85L522.38,401.85L522.81,401.85L523.25,401.85L523.68,401.85L524.11,401.85L524.55,401.85L524.98,401.85L525.41,401.85L525.85,401.85L526.28,401.85L526.71,401.85L527.15,401.85L527.58,401.85L528.01,401.85L528.45,401.85L528.88,401.85L529.32,401.85L529.75,401.85L530.18,401.85L530.62,401.85L531.05,401.85L531.48,401.85L531.92,401.85L532.35,401.9L532.78,401.91L533.22,401.91L533.65,401.91L534.09,401.91L534.52,402.14L534.95,402.25L535.39,402.23L535.82,402.23L536.25,402.23L536.69,402.23L537.12,402.23L537.55,408.28L537.99,414.77L538.42,417.8L538.85,417.8L539.29,419.19L539.72,419.87L540.16,419.9L540.59,419.91L541.02,419.91L541.46,419.91L541.89,419.91L542.32,419.91L542.76,419.91L543.19,419.91L543.62,419.91L544.06,419.91L544.49,419.91L544.93,419.91L545.36,419.91L545.79,419.91L546.23,419.92L546.66,419.93L547.09,419.93L547.53,419.93L547.96,419.93L548.39,419.93L548.83,419.93L549.26,419.93L549.7,419.93L550.13,419.93L550.56,419.93L551,419.93L551.43,414.3L551.86,414.3L552.3,414.31L552.73,414.31L553.16,414.31L553.6,414.31L554.03,414.31L554.46,414.31L554.9,414.31L555.33,414.31L555.77,414.41L556.2,414.42L556.63,414.42L557.07,414.42L557.5,414.42L557.93,414.42L558.37,414.42L558.8,414.42L559.23,414.42L559.67,414.42L560.1,414.42L560.54,414.42L560.97,414.42L561.4,414.42L561.84,414.42L562.27,414.42L562.7,414.42L563.14,414.42L563.57,414.42L564,414.42L564.44,414.43L564.87,414.43L565.31,414.43L565.74,414.43L566.17,414.43L566.61,414.43L567.04,414.43L567.47,414.43L567.91,414.44L568.34,414.49L568.77,415.91L569.21,418.24L569.64,420.2L570.07,420.22L570.51,420.22L570.94,420.22L571.38,420.22L571.81,420.22L572.24,420.22L572.68,420.22L573.11,423.32L573.54,423.54L573.98,423.56L574.41,423.56L574.84,423.56L575.28,423.56L575.71,423.58L576.15,425.49L576.58,426.58L577.01,429.34L577.45,431.53L577.88,431.59L578.31,431.59L578.75,431.59L579.18,431.59L579.61,431.59L580.05,431.59L580.48,431.59L580.92,431.59L581.35,431.59L581.78,431.59L582.22,431.59L582.65,431.59L583.08,431.59L583.52,431.59L583.95,431.59L584.38,431.59L584.82,431.59L585.25,431.59L585.68,431.59L586.12,431.59L586.55,431.59L586.99,431.59L587.42,431.59L587.85,431.59L588.29,431.59L588.72,431.6L589.15,431.6L589.59,431.6L590.02,431.6L590.45,431.6L590.89,431.6L591.32,431.6L591.76,431.6L592.19,431.6L592.62,431.6L593.06,431.61L593.49,431.61L593.92,431.61L594.36,431.61L594.79,431.61L595.22,431.61L595.66,431.61L596.09,431.61L596.53,431.61L596.96,431.61L597.39,431.61L597.83,431.61L598.26,431.61L598.69,431.61L599.13,431.61L599.56,431.61L599.99,431.61L600.43,431.61L600.86,431.61L601.29,431.61L601.73,431.61L602.16,431.61L602.6,431.61L603.03,431.61L603.46,431.61L603.9,431.61L604.33,431.61L604.76,431.61L605.2,431.61L605.63,431.61L606.06,431.61L606.5,431.61L606.93,431.62L607.37,431.62L607.8,431.62L608.23,431.62L608.67,431.62L609.1,431.62L609.53,431.62L609.97,431.62L610.4,431.62L610.83,431.62L611.27,431.62L611.7,431.62L612.14,431.62L612.57,431.62L613,431.62L613.44,431.62L613.87,431.62L614.3,431.62L614.74,431.62L615.17,431.62L615.6,431.62L616.04,431.62L616.47,431.63L616.9,431.63L617.34,431.63L617.77,431.63L618.21,431.63L618.64,432.58L619.07,433.54L619.51,433.56L619.94,433.56L620.37,435.17L620.81,435.39L621.24,435.39L621.67,435.39L622.11,435.39L622.54,435.39L622.98,435.39L623.41,435.39L623.84,436.11L624.28,437.44L624.71,438.82L625.14,439.77L625.58,440.22L626.01,440.44L626.44,440.84L626.88,440.84L627.31,440.84L627.74,440.84L628.18,440.84L628.61,440.84L629.05,440.84L629.48,440.88L629.91,440.88L630.35,440.88L630.78,440.88L631.21,440.88L631.65,440.88L632.08,440.88L632.51,440.88L632.95,440.88L633.38,440.88L633.82,440.9L634.25,440.95L634.68,441L635.12,441.03L635.55,441.05L635.98,441.05L636.42,441.05L636.85,441.05L637.28,441.05L637.72,441.05L638.15,441.92L638.59,448.31L639.02,450.1L639.45,450.1L639.89,450.18L640.32,450.26L640.75,450.33L641.19,450.38L641.62,450.44L642.05,454.6L642.49,455.09L642.92,455.09L643.35,455.09L643.79,455.09L644.22,455.1L644.66,455.1L645.09,456.66L645.52,460.85L645.96,464.88L646.39,468.98L646.82,471.51L647.26,471.55L647.69,471.55L648.12,471.55L648.56,471.55L648.99,471.55L649.43,471.55L649.86,471.55L650.29,471.55L650.73,471.57L651.16,471.59L651.59,471.59L652.03,471.59L652.46,471.59L652.89,471.59L653.33,471.59L653.76,471.59L654.2,471.67L654.63,471.74L655.06,471.81L655.5,471.83L655.93,471.83L656.36,471.83L656.8,471.83L657.23,471.83L657.66,472.42L658.1,477.16L658.53,480.46L658.96,480.89L659.4,480.92L659.83,480.92L660.27,480.92L660.7,480.94L661.13,480.96L661.57,480.96L662,480.96L662.43,481.17L662.87,481.17L663.3,481.17L663.73,481.17L664.17,481.17L664.6,481.19L665.04,481.19L665.47,481.19L665.9,481.19L666.34,484.7L666.77,485.42L667.2,485.43L667.64,485.43L668.07,485.44L668.5,485.45L668.94,485.45L669.37,485.45L669.81,485.45L670.24,485.45L670.67,487.34L671.11,487.8L671.54,487.8L671.97,487.8L672.41,487.8L672.84,487.8L673.27,487.81L673.71,487.81L674.14,487.81L674.57,487.81L675.01,487.81L675.44,487.81L675.88,487.81L676.31,487.81L676.74,487.82L677.18,487.82L677.61,487.82L678.04,487.82L678.48,487.82L678.91,487.82L679.34,487.82L679.78,487.83L680.21,487.83L680.65,487.83L681.08,487.83L681.51,487.83L681.95,487.83L682.38,487.83L682.81,487.83L683.25,487.83L683.68,487.83L684.11,487.83L684.55,487.83L684.98,487.83L685.42,487.83L685.85,487.83L686.28,487.83L686.72,487.83L687.15,487.83L687.58,487.83L688.02,487.83L688.45,487.83L688.88,487.83L689.32,487.83L689.75,487.83L690.18,487.83L690.62,487.83L691.05,487.83L691.49,487.83L691.92,487.83L692.35,487.83L692.79,487.83L693.22,487.83L693.65,487.83L694.09,487.83L694.52,487.83L694.95,487.83L695.39,487.83L695.82,487.83L696.26,489.66L696.69,491.3L697.12,491.3L697.56,491.3L697.99,491.3L698.42,491.32L698.86,491.32L699.29,491.32L699.72,491.32L700.16,491.32L700.59,491.32L701.03,491.32L701.46,491.32L701.89,491.32L702.33,491.32L702.76,491.32L703.19,491.34L703.63,491.34L704.06,491.62L704.49,491.62L704.93,491.62L705.36,491.62L705.79,491.62L706.23,491.62L706.66,491.62L707.1,491.62L707.53,491.62L707.96,491.62L708.4,491.62L708.83,491.62L709.26,491.62L709.7,491.63L710.13,491.63L710.56,491.63L711,491.63L711.43,492L711.87,492L712.3,492L712.73,492.03L713.17,492.03L713.6,492.04L714.03,492.04L714.47,492.04L714.9,492.04L715.33,492.04L715.77,492.04L716.2,492.04L716.63,492.04L717.07,492.04L717.5,492.04L717.94,492.04L718.37,492.04L718.8,492.04L719.24,492.04L719.67,492.04L720.1,492.04L720.54,492.1L720.97,492.15L721.4,492.19L721.84,492.2L722.27,492.2L722.71,492.2L723.14,492.2L723.57,492.2L724.01,492.2L724.44,492.2L724.87,492.2L725.31,493.89L725.74,494.19L726.17,494.19L726.61,494.19L727.04,494.19L727.48,494.19L727.91,494.75L728.34,501.14L728.78,507.19L729.21,508.9L729.64,508.9L730.08,508.97L730.51,509L730.94,509L731.38,509L731.81,509L732.24,509L732.68,509L733.11,509L733.55,509L733.98,509L734.41,509L734.85,510.72L735.28,511.4L735.71,511.4L736.15,511.4L736.58,511.4L737.01,511.4L737.45,511.4L737.88,511.4L738.32,516.64L738.75,519.39L739.18,520.41L739.62,520.41L740.05,520.41L740.48,520.41L740.92,520.41L741.35,520.41L741.78,520.41L742.22,520.41L742.65,520.41L743.09,520.42L743.52,520.42L743.95,520.42L744.39,520.42L744.82,520.59L745.25,520.65L745.69,520.7L746.12,520.76L746.55,520.68L746.99,520.68L747.42,520.68L747.85,520.68L748.29,520.68L748.72,520.68L749.16,520.68L749.59,521.35L750.02,525.36L750.46,529.36L750.89,533.47L751.32,536.77L751.76,540.55L752.19,541.74L752.62,541.76L753.06,541.76L753.49,541.76L753.93,541.76L754.36,541.76L754.79,541.76L755.23,541.76L755.66,541.76L756.09,541.77L756.53,541.77L756.96,541.77L757.39,541.77L757.83,541.77L758.26,541.77L758.7,541.77L759.13,542.04L759.56,542.04L760,542.04L760.43,542.04L760.86,542.04L761.3,542.04L761.73,542.06L762.16,542.06L762.6,542.06L763.03,542.06L763.46,542.06L763.9,542.06L764.33,542.06L764.77,542.06L765.2,542.06L765.63,542.06L766.07,542.06L766.5,542.06L766.93,542.08L767.37,542.08L767.8,542.08L768.23,542.08L768.67,542.08L769.1,542.08L769.54,542.08L769.97,542.08L770.4,542.08L770.84,542.08L771.27,542.08L771.7,542.08L772.14,542.08L772.57,542.08L773,542.09L773.44,542.09L773.87,542.09L774.31,542.09L774.74,542.09L775.17,542.09L775.61,542.09L776.04,542.09L776.47,542.09L776.91,542.09L777.34,542.09L777.77,542.09L778.21,542.09L778.64,542.09L779.07,542.1L779.51,542.1L779.94,542.1L780.38,542.1L780.81,542.1L781.24,542.1L781.68,542.1L782.11,542.1L782.54,542.1L782.98,542.1L783.41,542.1L783.84,542.1L784.28,542.1L784.71,542.1L785.15,542.1L785.58,542.1L786.01,542.1L786.45,542.1L786.88,542.1L787.31,542.1L787.75,542.1L788.18,542.1L788.61,542.1L789.05,542.1L789.48,542.1L789.92,542.1L790.35,542.1L790.78,542.1L791.22,542.1L791.65,542.1L792.08,542.1L792.52,542.1L792.95,542.1L793.38,542.1L793.82,542.1L794.25,542.1L794.68,542.1L795.12,542.1L795.55,542.1L795.99,542.1L796.42,542.1L796.85,542.1L797.29,542.16L797.72,542.29L798.15,542.29L798.59,542.2L799.02,542.2L799.45,542.2L799.89,542.2L800.32,542.2L800.76,542.2L801.19,542.2L801.62,542.2L802.06,545.03L802.49,551.05L802.92,554.22L803.36,556.2L803.79,556.2L804.22,556.2L804.66,556.2L805.09,556.2L805.52,556.2L805.96,556.2L806.39,556.2L806.83,556.2L807.26,556.2L807.69,556.2L808.13,556.2L808.56,556.2L808.99,556.2L809.43,556.2L809.86,556.2L810.29,556.2L810.73,556.2L811.16,556.2L811.6,556.2L812.03,556.2L812.46,556.2L812.9,556.2L813.33,556.2L813.76,556.2L814.2,556.2L814.63,556.2L815.06,556.21L815.5,556.21L815.93,556.21L816.37,556.21L816.8,556.21L817.23,556.21L817.67,556.21L818.1,556.21L818.53,556.21L818.97,556.21L819.4,556.21L819.83,556.21L820.27,556.21L820.7,556.21L821.13,556.21L821.57,556.21L822,556.21L822.44,556.21L822.87,556.21L823.3,556.25L823.74,556.27L824.17,556.27L824.6,556.27L825.04,556.29L825.47,556.29L825.9,556.29L826.34,556.29L826.77,556.29L827.21,556.29L827.64,556.29L828.07,556.29L828.51,556.29L828.94,556.29L829.37,556.29L829.81,556.29L830.24,556.29L830.67,556.32L831.11,558.55L831.54,565.45L831.98,572.06L832.41,574.34L832.84,574.52L833.28,574.52L833.71,574.52L834.14,574.52L834.58,574.52L835.01,574.52L835.44,574.52L835.88,574.52L836.31,577.99L836.74,582.21L837.18,586.33L837.61,590.54L838.05,594.94L838.48,596.04L838.91,596.08L839.35,596.1L839.78,596.1L840.21,596.1L840.65,596.1L841.08,596.12L841.51,596.12L841.95,596.13L842.38,596.16L842.82,596.17L843.25,596.17L843.68,596.18L844.12,596.18L844.55,596.18L844.98,596.18L845.42,596.18L845.85,596.18L846.28,596.18L846.72,596.18L847.15,596.18L847.59,596.18L848.02,596.2L848.45,596.2L848.89,596.2L849.32,596.2L849.75,596.2L850.19,596.2L850.62,596.2L851.05,596.2L851.49,596.2L851.92,596.2L852.35,596.2L852.79,596.2L853.22,596.2L853.66,596.2L854.09,596.2L854.52,596.2L854.96,596.2L855.39,596.2L855.82,596.2L856.26,596.2L856.69,596.2L857.12,596.21L857.56,596.21L857.99,596.21L858.43,596.21L858.86,596.21L859.29,596.21L859.73,596.21L860.16,596.21L860.59,596.21L861.03,596.21L861.46,596.21L861.89,596.21L862.33,596.22L862.76,596.22L863.2,596.22L863.63,596.22L864.06,596.22L864.5,596.22L864.93,596.22L865.36,596.22L865.8,596.23L866.23,596.23L866.66,596.23L867.1,596.23L867.53,596.23L867.96,596.23L868.4,596.23L868.83,596.23L869.27,596.23L869.7,596.23L870.13,596.23L870.57,596.23L871,596.24L871.43,596.24L871.87,596.24L872.3,596.24L872.73,596.24L873.17,596.24L873.6,596.24L874.04,596.24L874.47,596.24L874.9,596.24L875.34,596.24L875.77,596.24L876.2,596.24L876.64,596.24L877.07,596.24L877.5,596.24L877.94,596.24L878.37,596.24L878.81,596.24L879.24,596.24L879.67,596.24L880.11,596.24L880.54,596.24L880.97,596.24L881.41,596.24L881.84,596.24L882.27,596.24L882.71,596.24L883.14,596.28L883.57,596.45L884.01,596.5L884.44,596.54L884.88,596.49L885.31,596.5L885.74,596.5L886.18,596.5L886.61,596.5L887.04,596.5L887.48,596.5L887.91,596.5L888.34,596.5L888.78,596.5L889.21,596.5L889.65,596.5L890.08,596.5L890.51,596.5L890.95,596.51L891.38,596.51L891.81,596.51L892.25,596.51L892.68,596.51L893.11,599.97L893.55,606.66L893.98,612.48L894.42,615.27L894.85,615.34L895.28,615.39L895.72,615.43L896.15,615.47L896.58,615.52L897.02,615.55L897.45,615.55L897.88,615.55L898.32,615.55L898.75,615.55L899.18,615.55L899.62,615.55L900.05,615.55L900.49,620.61L900.92,626.76L901.35,632.48L901.79,638.33L902.22,641.33L902.65,641.85L903.09,641.85L903.52,641.85L903.95,641.85L904.39,641.85L904.82,641.85L905.26,641.85L905.69,641.85L906.12,641.87L906.56,641.88L906.99,641.88L907.42,641.9L907.86,641.92L908.29,641.93L908.72,641.93L909.16,641.93L909.59,642L910.02,642.01L910.46,642.01L910.89,642.02L911.33,642.05L911.76,642.05L912.19,642.05L912.63,642.05L913.06,642.05L913.49,642.05L913.93,642.05L914.36,642.05L914.79,642.05L915.23,642.07L915.66,642.08L916.1,642.9L916.53,647L916.96,647.91L917.4,648L917.83,648.02L918.26,648.02L918.7,648.02L919.13,648.02L919.56,648.02L920,648.02L920.43,648.02L920.87,648.02L921.3,648.03L921.73,648.03L922.17,648.03L922.6,648.03L923.03,648.03L923.47,648.03L923.9,648.03L924.33,648.03L924.77,648.03L925.2,648.03L925.63,648.03L926.07,648.03L926.5,648.04L926.94,648.04L927.37,648.04L927.8,648.04L928.24,648.04L928.67,648.04L929.1,648.05L929.54,648.05L929.97,648.05L930.4,648.05L930.84,648.05L931.27,648.05L931.71,648.05L932.14,648.05L932.57,648.05L933.01,648.05L933.44,648.05L933.87,648.05L934.31,648.05L934.74,648.05L935.17,648.05L935.61,648.05L936.04,648.05L936.48,648.05L936.91,648.05L937.34,648.05L937.78,648.05L938.21,648.05L938.64,648.05L939.08,648.05L939.51,648.05L939.94,648.05L940.38,648.05L940.81,648.05L941.24,648.05L941.68,648.05L942.11,648.05L942.55,648.05L942.98,648.05L943.41,648.05L943.85,648.05L944.28,648.05L944.71,648.05L945.15,648.05L945.58,648.05L946.01,648.05L946.45,648.05L946.88,648.05L947.32,648.05L947.75,648.05L948.18,648.05L948.62,648.05L949.05,648.05L949.48,648.05L949.92,648.05L950.35,648.05L950.78,648.05L951.22,648.06L951.65,648.06L952.09,648.06L952.52,648.06L952.95,648.06L953.39,648.06L953.82,648.06L954.25,648.06L954.69,648.06L955.12,648.06L955.55,648.11L955.99,648.15L956.42,648.19L956.85,648.24L957.29,648.25L957.72,648.25L958.16,648.25L958.59,648.25L959.02,648.25L959.46,648.25L959.89,648.25L960.32,648.25L960.76,654.32L961.19,661.07L961.62,663.42L962.06,664.54L962.49,664.54L962.93,664.54L963.36,664.54L963.79,664.54L964.23,664.54L964.66,664.54L965.09,664.54L965.53,664.54L965.96,664.54L966.39,664.54L966.83,664.57L967.26,664.6L967.7,664.61L968.13,666.37L968.56,671.31L969,674.02L969.43,674.04L969.86,674.04L970.3,674.04L970.73,674.04L971.16,674.08L971.6,674.08L972.03,674.08L972.46,674.08L972.9,674.08L973.33,674.08L973.77,674.08L974.2,674.09L974.63,674.09L975.07,674.09L975.5,674.09L975.93,674.09L976.37,674.09L976.8,674.09L977.23,674.09L977.67,674.09L978.1,674.09L978.54,674.09L978.97,674.12L979.4,674.12L979.84,674.12L980.27,674.12L980.7,674.12L981.14,674.12L981.57,674.12L982,674.12L982.44,674.13L982.87,674.13L983.31,674.13L983.74,674.13L984.17,674.13L984.61,674.13L985.04,674.13L985.47,674.13L985.91,674.13L986.34,674.13L986.77,674.13L987.21,674.13L987.64,674.13L988.07,674.13L988.51,674.13L988.94,674.13L989.38,674.13L989.81,674.13L990.24,674.17L990.68,674.21L991.11,674.21L991.54,674.21L991.98,674.21L992.41,674.21L992.84,674.21L993.28,674.21L993.71,674.21L994.15,674.21L994.58,674.21L995.01,674.21L995.45,674.21L995.88,674.21L996.31,674.21L996.75,674.21L997.18,674.21L997.61,674.23L998.05,674.53L998.48,674.88L998.91,678.13L999.35,680.06L999.78,680.25L1000.2,680.25L1000.6,680.25L1001.1,680.25L1001.5,680.25L1002,680.25L1002.4,680.25L1002.8,680.26L1003.3,680.26L1003.7,680.26L1004.1,680.26L1004.6,680.26L1005,680.27L1005.4,680.27L1005.9,682.28L1006.3,684.47L1006.7,684.54L1007.2,684.54L1007.6,684.54L1008,684.54L1008.5,684.54L1008.9,684.54L1009.3,684.54L1009.8,684.54L1010.2,684.55L1010.6,684.56L1011.1,684.58L1011.5,684.58L1011.9,684.58L1012.4,684.58L1012.8,684.58L1013.2,684.58L1013.7,685.06L1014.1,688.08L1014.5,689.44L1015,689.67L1015.4,689.67L1015.8,689.69L1016.3,689.69L1016.7,689.69L1017.1,689.69L1017.6,689.7L1018,689.71L1018.4,689.71L1018.9,689.71L1019.3,689.71L1019.7,689.71L1020.2,689.71L1020.6,689.71L1021,689.71L1021.5,689.71L1021.9,689.72L1022.3,689.72L1022.8,689.72L1023.2,689.72L1023.6,689.72L1024.1,689.73L1024.5,689.73L1024.9,689.73L1025.4,689.73L1025.8,689.73L1026.2,689.73L1026.7,689.75L1027.1,689.75L1027.5,689.75L1028,689.75L1028.4,689.75L1028.8,689.75L1029.3,689.75L1029.7,689.77L1030.1,689.77L1030.6,689.77L1031,689.77L1031.4,689.78L1031.9,689.78L1032.3,689.78L1032.7,689.78L1033.2,689.78L1033.6,689.78L1034,689.78L1034.5,689.78L1034.9,689.78L1035.3,689.78L1035.8,689.78L1036.2,689.78L1036.6,689.78L1037.1,689.78L1037.5,689.78L1037.9,689.78L1038.4,689.78L1038.8,689.78L1039.2,689.78L1039.7,689.78L1040.1,689.78L1040.5,689.78L1041,689.78L1041.4,689.78L1041.8,689.78L1042.3,689.78L1042.7,689.78L1043.1,689.78L1043.6,689.78L1044,689.78L1044.4,689.78L1044.9,689.78L1045.3,689.78L1045.7,689.78L1046.2,689.78L1046.6,689.78L1047,689.78L1047.5,689.78L1047.9,689.78L1048.3,689.78L1048.8,689.78L1049.2,689.78L1049.6,689.78L1050.1,689.78L1050.5,689.78L1050.9,689.78L1051.4,689.78L1051.8,689.78L1052.2,689.78L1052.7,689.78L1053.1,689.78L1053.5,689.78L1054,689.78L1054.4,691.22L1054.9,693.35L1055.3,694.34L1055.7,694.34L1056.2,694.34L1056.6,694.35L1057,694.35L1057.5,694.35L1057.9,694.35L1058.3,694.35L1058.8,694.35L1059.2,694.35L1059.6,694.35L1060.1,694.35L1060.5,694.35L1060.9,694.35L1061.4,694.35L1061.8,694.35L1062.2,694.35L1062.7,694.35L1063.1,694.35L1063.5,694.35L1064,694.38L1064.4,694.46L1064.8,694.54L1065.3,694.62L1065.7,694.68L1066.1,694.71L1066.6,694.71L1067,694.71L1067.4,694.71L1067.9,694.71L1068.3,694.71L1068.7,694.71L1069.2,694.71L1069.6,694.72L1070,694.72L1070.5,694.72L1070.9,694.72L1071.3,698.07L1071.8,700.04L1072.2,701.43L1072.6,701.43L1073.1,701.43L1073.5,701.43L1073.9,701.43L1074.4,701.43L1074.8,701.43L1075.2,701.43L1075.7,701.43L1076.1,701.44L1076.5,701.44L1077,701.44L1077.4,701.44L1077.8,701.44L1078.3,701.44L1078.7,701.44L1079.1,701.44L1079.6,701.44L1080,701.44" style="fill:none;stroke:#5A9BD4;stroke-width:1.875;stroke-dasharray:2.5,2.5" />
<path d="M1055,694.3L1080,694.3" style="fill:none;stroke:#F15A60;stroke-width:1.875" />
<text x="1002.5" y="-687.85" transform="scale(1, -1)"
	style="font-family:Helvetica;font-weight:normal;font-style:normal;font-size:12pt">etcd v3</text>
<path d="M1055,680L1080,680" style="fill:none;stroke:#7AC36A;stroke-width:1.875;stroke-dasharray:7.5,2.5" />
<text x="941.6" y="-673.56" transform="scale(1, -1)"
	style="font-family:Helvetica;font-weight:normal;font-style:normal;font-size:12pt">Zookeeper 3.4.8</text>
<path d="M1055,665.71L1080,665.71" style="fill:none;stroke:#5A9BD4;stroke-width:1.875;stroke-dasharray:2.5,2.5" />
<text x="966.62" y="-659.26" transform="scale(1, -1)"
	style="font-family:Helvetica;font-weight:normal;font-style:normal;font-size:12pt">Consul 0.6.4</text>
</g>
</svg>
