<?xml version="1.0"?>
<!-- Generated by SVGo and Plotinum VG -->
<svg width="12in" height="8in"
	xmlns="http://www.w3.org/2000/svg"
	xmlns:xlink="http://www.w3.org/1999/xlink">
<g transform="scale(1, -1) translate(0, -720)">
<path d="M0,0L1080,0L1080,720L0,720Z" style="fill:#FFFFFF" />
<text x="256.97" y="-706.41" transform="scale(1, -1)"
	style="font-family:Helvetica;font-weight:normal;font-style:normal;font-size:12pt">Read single key 1M times, 100 clients, key 64 bytes, value 1 kb, Latency(millisecond)</text>
<text x="537.69" y="-4.965" transform="scale(1, -1)"
	style="font-family:Helvetica;font-weight:normal;font-style:normal;font-size:12pt">Second</text>
<text x="49.712" y="-19.142" transform="scale(1, -1)"
	style="font-family:Helvetica;font-weight:normal;font-style:normal;font-size:10pt">0</text>
<text x="389.67" y="-19.142" transform="scale(1, -1)"
	style="font-family:Helvetica;font-weight:normal;font-style:normal;font-size:10pt">8</text>
<text x="726.15" y="-19.142" transform="scale(1, -1)"
	style="font-family:Helvetica;font-weight:normal;font-style:normal;font-size:10pt">16</text>
<text x="1066.1" y="-19.142" transform="scale(1, -1)"
	style="font-family:Helvetica;font-weight:normal;font-style:normal;font-size:10pt">24</text>
<path d="M53.188,30.467L53.188,40.467" style="fill:none;stroke:#000000;stroke-width:0.625" />
<path d="M393.14,30.467L393.14,40.467" style="fill:none;stroke:#000000;stroke-width:0.625" />
<path d="M733.1,30.467L733.1,40.467" style="fill:none;stroke:#000000;stroke-width:0.625" />
<path d="M1073,30.467L1073,40.467" style="fill:none;stroke:#000000;stroke-width:0.625" />
<path d="M223.16,35.468L223.16,40.467" style="fill:none;stroke:#000000;stroke-width:0.625" />
<path d="M563.12,35.468L563.12,40.467" style="fill:none;stroke:#000000;stroke-width:0.625" />
<path d="M903.07,35.468L903.07,40.467" style="fill:none;stroke:#000000;stroke-width:0.625" />
<path d="M53.188,40.467L1073,40.467" style="fill:none;stroke:#000000;stroke-width:0.625" />
<g transform="rotate(90)">
<text x="305.89" y="13.59" transform="scale(1, -1)"
	style="font-family:Helvetica;font-weight:normal;font-style:normal;font-size:12pt">Latency(millisecond)</text>
</g>
<text x="25.505" y="-183.83" transform="scale(1, -1)"
	style="font-family:Helvetica;font-weight:normal;font-style:normal;font-size:10pt">6</text>
<text x="18.555" y="-392.23" transform="scale(1, -1)"
	style="font-family:Helvetica;font-weight:normal;font-style:normal;font-size:10pt">12</text>
<text x="18.555" y="-600.64" transform="scale(1, -1)"
	style="font-family:Helvetica;font-weight:normal;font-style:normal;font-size:10pt">18</text>
<path d="M35.93,189.2L45.93,189.2" style="fill:none;stroke:#000000;stroke-width:0.625" />
<path d="M35.93,397.6L45.93,397.6" style="fill:none;stroke:#000000;stroke-width:0.625" />
<path d="M35.93,606.01L45.93,606.01" style="fill:none;stroke:#000000;stroke-width:0.625" />
<path d="M40.93,50.259L45.93,50.259" style="fill:none;stroke:#000000;stroke-width:0.625" />
<path d="M40.93,119.73L45.93,119.73" style="fill:none;stroke:#000000;stroke-width:0.625" />
<path d="M40.93,258.67L45.93,258.67" style="fill:none;stroke:#000000;stroke-width:0.625" />
<path d="M40.93,328.13L45.93,328.13" style="fill:none;stroke:#000000;stroke-width:0.625" />
<path d="M40.93,467.07L45.93,467.07" style="fill:none;stroke:#000000;stroke-width:0.625" />
<path d="M40.93,536.54L45.93,536.54" style="fill:none;stroke:#000000;stroke-width:0.625" />
<path d="M40.93,675.48L45.93,675.48" style="fill:none;stroke:#000000;stroke-width:0.625" />
<path d="M45.93,47.03L45.93,701.44" style="fill:none;stroke:#000000;stroke-width:0.625" />
<path d="M53.188,506.3L95.682,587.38L138.18,701.44L180.67,656.17L223.16,687.87L265.66,674.53L308.15,682.75L350.65,690.08L393.14,682.24L435.64,670.9L478.13,690.05L520.62,689.49L563.12,690.17L605.61,679.21L648.11,678.08L690.6,684.13L733.1,682.89L775.59,686.15L818.08,686.44L860.58,668.76" style="fill:none;stroke:#F15A60;stroke-width:1.875" />
<path d="M53.188,566.32L95.682,684.56L138.18,302.54L180.67,203.77L223.16,229.05L265.66,230.16L308.15,241.15L350.65,224.82L393.14,211.54" style="fill:none;stroke:#7AC36A;stroke-width:1.875;stroke-dasharray:7.5,2.5" />
<path d="M53.188,47.03L95.682,50.535L138.18,48.422L180.67,49.155L223.16,49.352L265.66,48.227L308.15,48.636L350.65,60.951L393.14,126.94L435.64,96.139L478.13,51.599L520.62,50.021L563.12,50.191L605.61,48.616L648.11,48.915L690.6,49.058L733.1,50.985L775.59,48.834L818.08,50.143L860.58,49.471L903.07,48.193L945.57,49.462L988.06,48.81L1030.6,49.528L1073,50.537" style="fill:none;stroke:#5A9BD4;stroke-width:1.875;stroke-dasharray:2.5,2.5" />
<path d="M1055,694.3L1080,694.3" style="fill:none;stroke:#F15A60;stroke-width:1.875" />
<text x="1002.5" y="-687.85" transform="scale(1, -1)"
	style="font-family:Helvetica;font-weight:normal;font-style:normal;font-size:12pt">etcd v3</text>
<path d="M1055,680L1080,680" style="fill:none;stroke:#7AC36A;stroke-width:1.875;stroke-dasharray:7.5,2.5" />
<text x="941.6" y="-673.56" transform="scale(1, -1)"
	style="font-family:Helvetica;font-weight:normal;font-style:normal;font-size:12pt">Zookeeper 3.4.8</text>
<path d="M1055,665.71L1080,665.71" style="fill:none;stroke:#5A9BD4;stroke-width:1.875;stroke-dasharray:2.5,2.5" />
<text x="966.62" y="-659.26" transform="scale(1, -1)"
	style="font-family:Helvetica;font-weight:normal;font-style:normal;font-size:12pt">Consul 0.6.4</text>
</g>
</svg>
