<?xml version="1.0"?>
<!-- Generated by SVGo and Plotinum VG -->
<svg width="12in" height="8in"
	xmlns="http://www.w3.org/2000/svg"
	xmlns:xlink="http://www.w3.org/1999/xlink">
<g transform="scale(1, -1) translate(0, -720)">
<path d="M0,0L1080,0L1080,720L0,720Z" style="fill:#FFFFFF" />
<text x="314.08" y="-706.41" transform="scale(1, -1)"
	style="font-family:Helvetica;font-weight:normal;font-style:normal;font-size:12pt">Write 3M keys, 1000 clients, key 64 bytes, value 256 bytes, Memory</text>
<text x="558.23" y="-4.965" transform="scale(1, -1)"
	style="font-family:Helvetica;font-weight:normal;font-style:normal;font-size:12pt">second</text>
<text x="81.337" y="-19.142" transform="scale(1, -1)"
	style="font-family:Helvetica;font-weight:normal;font-style:normal;font-size:10pt">0</text>
<text x="377.34" y="-19.142" transform="scale(1, -1)"
	style="font-family:Helvetica;font-weight:normal;font-style:normal;font-size:10pt">400</text>
<text x="680.29" y="-19.142" transform="scale(1, -1)"
	style="font-family:Helvetica;font-weight:normal;font-style:normal;font-size:10pt">800</text>
<text x="979.76" y="-19.142" transform="scale(1, -1)"
	style="font-family:Helvetica;font-weight:normal;font-style:normal;font-size:10pt">1200</text>
<path d="M84.812,30.467L84.812,40.467" style="fill:none;stroke:#000000;stroke-width:0.625" />
<path d="M387.76,30.467L387.76,40.467" style="fill:none;stroke:#000000;stroke-width:0.625" />
<path d="M690.71,30.467L690.71,40.467" style="fill:none;stroke:#000000;stroke-width:0.625" />
<path d="M993.66,30.467L993.66,40.467" style="fill:none;stroke:#000000;stroke-width:0.625" />
<path d="M236.29,35.468L236.29,40.467" style="fill:none;stroke:#000000;stroke-width:0.625" />
<path d="M539.24,35.468L539.24,40.467" style="fill:none;stroke:#000000;stroke-width:0.625" />
<path d="M842.19,35.468L842.19,40.467" style="fill:none;stroke:#000000;stroke-width:0.625" />
<path d="M84.812,40.467L1080,40.467" style="fill:none;stroke:#000000;stroke-width:0.625" />
<g transform="rotate(90)">
<text x="330.91" y="13.59" transform="scale(1, -1)"
	style="font-family:Helvetica;font-weight:normal;font-style:normal;font-size:12pt">Memory(MB)</text>
</g>
<text x="36.28" y="-251.91" transform="scale(1, -1)"
	style="font-family:Helvetica;font-weight:normal;font-style:normal;font-size:10pt">5000</text>
<text x="28.98" y="-463.03" transform="scale(1, -1)"
	style="font-family:Helvetica;font-weight:normal;font-style:normal;font-size:10pt">1e+04</text>
<text x="18.555" y="-674.16" transform="scale(1, -1)"
	style="font-family:Helvetica;font-weight:normal;font-style:normal;font-size:10pt">1.5e+04</text>
<path d="M67.555,257.28L77.555,257.28" style="fill:none;stroke:#000000;stroke-width:0.625" />
<path d="M67.555,468.4L77.555,468.4" style="fill:none;stroke:#000000;stroke-width:0.625" />
<path d="M67.555,679.53L77.555,679.53" style="fill:none;stroke:#000000;stroke-width:0.625" />
<path d="M72.555,88.373L77.555,88.373" style="fill:none;stroke:#000000;stroke-width:0.625" />
<path d="M72.555,130.6L77.555,130.6" style="fill:none;stroke:#000000;stroke-width:0.625" />
<path d="M72.555,172.82L77.555,172.82" style="fill:none;stroke:#000000;stroke-width:0.625" />
<path d="M72.555,215.05L77.555,215.05" style="fill:none;stroke:#000000;stroke-width:0.625" />
<path d="M72.555,299.5L77.555,299.5" style="fill:none;stroke:#000000;stroke-width:0.625" />
<path d="M72.555,341.73L77.555,341.73" style="fill:none;stroke:#000000;stroke-width:0.625" />
<path d="M72.555,383.95L77.555,383.95" style="fill:none;stroke:#000000;stroke-width:0.625" />
<path d="M72.555,426.18L77.555,426.18" style="fill:none;stroke:#000000;stroke-width:0.625" />
<path d="M72.555,510.63L77.555,510.63" style="fill:none;stroke:#000000;stroke-width:0.625" />
<path d="M72.555,552.85L77.555,552.85" style="fill:none;stroke:#000000;stroke-width:0.625" />
<path d="M72.555,595.08L77.555,595.08" style="fill:none;stroke:#000000;stroke-width:0.625" />
<path d="M72.555,637.31L77.555,637.31" style="fill:none;stroke:#000000;stroke-width:0.625" />
<path d="M77.555,47.03L77.555,701.44" style="fill:none;stroke:#000000;stroke-width:0.625" />
<path d="M84.812,47.03L85.57,48.3L86.327,48.654L87.085,49.031L87.842,49.191L88.599,49.619L89.357,50.085L90.114,50.528L90.871,50.373L91.629,50.849L92.386,51.319L93.144,51.777L93.901,52.198L94.658,52.759L95.416,53.149L96.173,52.546L96.93,52.88L97.688,53.341L98.445,53.74L99.203,54.365L99.96,54.775L100.72,55.189L101.47,55.648L102.23,56.064L102.99,56.617L103.75,57.086L104.5,57.553L105.26,58.11L106.02,58.321L106.78,56.57L107.53,57.141L108.29,57.448L109.05,57.716L109.81,58.394L110.56,58.782L111.32,59.176L112.08,59.695L112.84,60.162L113.59,60.467L114.35,61.145L115.11,61.552L115.86,61.947L116.62,62.371L117.38,62.742L118.14,63.201L118.89,63.718L119.65,64.052L120.41,64.643L121.17,65.043L121.92,65.486L122.68,65.776L123.44,66.211L124.2,66.694L124.95,67.032L125.71,67.675L126.47,68.075L127.23,68.664L127.98,68.946L128.74,64.772L129.5,65.042L130.25,65.393L131.01,66.026L131.77,66.398L132.53,67.189L133.28,67.281L134.04,72.592L134.8,77.908L135.56,79.67L136.31,80.893L137.07,81.645L137.83,81.757L138.59,82.092L139.34,82.092L140.1,82.3L140.86,82.363L141.62,82.363L142.37,82.513L143.13,82.571L143.89,82.612L144.64,82.649L145.4,82.717L146.16,82.861L146.92,83.043L147.67,83.152L148.43,83.152L149.19,83.157L149.95,83.157L150.7,83.167L151.46,83.167L152.22,83.167L152.98,83.171L153.73,83.171L154.49,83.171L155.25,83.18L156.01,83.208L156.76,83.232L157.52,83.293L158.28,83.375L159.04,83.375L159.79,83.388L160.55,83.392L161.31,83.48L162.06,83.486L162.82,83.53L163.58,83.53L164.34,83.548L165.09,83.548L165.85,83.596L166.61,83.596L167.37,83.619L168.12,83.645L168.88,83.663L169.64,83.67L170.4,83.67L171.15,83.675L171.91,83.689L172.67,83.739L173.43,83.739L174.18,83.739L174.94,83.75L175.7,83.768L176.45,83.768L177.21,83.779L177.97,83.796L178.73,83.881L179.48,84.031L180.24,84.038L181,84.045L181.76,84.052L182.51,84.058L183.27,84.063L184.03,84.069L184.79,84.086L185.54,84.086L186.3,84.086L187.06,84.138L187.82,84.147L188.57,84.393L189.33,84.397L190.09,89.06L190.84,89.71L191.6,91.505L192.36,91.528L193.12,91.535L193.87,91.535L194.63,91.535L195.39,91.535L196.15,91.535L196.9,91.535L197.66,91.535L198.42,91.535L199.18,91.539L199.93,91.539L200.69,91.539L201.45,91.539L202.21,91.539L202.96,91.539L203.72,91.539L204.48,91.539L205.23,91.539L205.99,91.539L206.75,91.539L207.51,91.539L208.26,91.539L209.02,91.539L209.78,91.539L210.54,91.543L211.29,91.543L212.05,91.543L212.81,91.543L213.57,91.543L214.32,91.543L215.08,91.55L215.84,91.55L216.6,91.55L217.35,91.55L218.11,91.55L218.87,91.556L219.62,91.556L220.38,91.556L221.14,91.571L221.9,91.571L222.65,91.571L223.41,91.578L224.17,91.578L224.93,91.658L225.68,91.684L226.44,91.695L227.2,92.123L227.96,92.208L228.71,92.222L229.47,92.452L230.23,92.716L230.99,92.738L231.74,92.741L232.5,93.164L233.26,93.232L234.01,93.24L234.77,93.384L235.53,93.938L236.29,93.986L237.04,94.201L237.8,94.223L238.56,94.516L239.32,94.987L240.07,95.002L240.83,95.221L241.59,95.551L242.35,95.8L243.1,96.16L243.86,96.186L244.62,96.189L245.38,96.572L246.13,96.873L246.89,97.331L247.65,97.345L248.4,97.634L249.16,97.665L249.92,98.21L250.68,98.373L251.43,99.177L252.19,99.235L252.95,99.278L253.71,99.597L254.46,100.27L255.22,100.47L255.98,101.07L256.74,101.46L257.49,101.68L258.25,101.84L259.01,102.47L259.77,102.95L260.52,103.54L261.28,103.58L262.04,103.64L262.8,103.7L263.55,103.76L264.31,103.83L265.07,103.87L265.82,104.25L266.58,104.52L267.34,104.86L268.1,105.17L268.85,105.26L269.61,105.54L270.37,105.77L271.13,105.8L271.88,105.82L272.64,105.85L273.4,105.88L274.16,105.88L274.91,105.9L275.67,105.92L276.43,105.95L277.19,105.99L277.94,106.05L278.7,106.09L279.46,106.32L280.21,106.62L280.97,106.91L281.73,107.05L282.49,107.13L283.24,107.3L284,107.7L284.76,107.78L285.52,107.83L286.27,107.92L287.03,107.97L287.79,108.05L288.55,108.11L289.3,108.2L290.06,108.26L290.82,108.71L291.58,108.76L292.33,109.18L293.09,109.35L293.85,109.43L294.6,109.51L295.36,109.6L296.12,111.65L296.88,112.11L297.63,112.23L298.39,113.96L299.15,115.12L299.91,115.51L300.66,117.77L301.42,118.42L302.18,118.5L302.94,119.32L303.69,119.99L304.45,120.25L305.21,120.33L305.97,121.25L306.72,121.95L307.48,124.45L308.24,126.95L308.99,127.77L309.75,128.38L310.51,128.78L311.27,129.05L312.02,129.36L312.78,129.36L313.54,129.56L314.3,129.58L315.05,129.58L315.81,129.58L316.57,129.58L317.33,129.61L318.08,129.83L318.84,129.99L319.6,130.11L320.36,130.28L321.11,130.42L321.87,130.43L322.63,130.45L323.38,130.45L324.14,130.47L324.9,130.58L325.66,130.58L326.41,130.58L327.17,130.58L327.93,130.59L328.69,130.61L329.44,130.61L330.2,130.61L330.96,130.63L331.72,130.63L332.47,131.15L333.23,132.29L333.99,132.59L334.75,133.78L335.5,136.15L336.26,138.46L337.02,138.69L337.77,138.7L338.53,138.71L339.29,139.19L340.05,139.19L340.8,139.19L341.56,139.19L342.32,139.19L343.08,139.19L343.83,139.19L344.59,139.19L345.35,139.19L346.11,139.19L346.86,139.19L347.62,139.19L348.38,139.19L349.14,139.2L349.89,139.2L350.65,139.2L351.41,139.2L352.17,139.2L352.92,139.2L353.68,139.2L354.44,139.2L355.19,139.2L355.95,139.2L356.71,139.2L357.47,139.2L358.22,139.2L358.98,139.21L359.74,139.21L360.5,139.21L361.25,139.21L362.01,139.21L362.77,139.21L363.53,139.21L364.28,139.21L365.04,139.21L365.8,139.21L366.56,139.26L367.31,139.26L368.07,139.26L368.83,139.26L369.58,139.26L370.34,139.26L371.1,139.26L371.86,139.26L372.61,139.26L373.37,139.26L374.13,139.26L374.89,139.26L375.64,139.26L376.4,139.26L377.16,139.26L377.92,139.26L378.67,139.26L379.43,139.26L380.19,139.27L380.95,139.27L381.7,139.27L382.46,139.27L383.22,139.27L383.97,139.27L384.73,139.27L385.49,139.27L386.25,139.27L387,139.27L387.76,139.27L388.52,139.27L389.28,139.27L390.03,139.27L390.79,139.27L391.55,139.27L392.31,139.27L393.06,139.27L393.82,139.27L394.58,139.27L395.34,139.27L396.09,139.27L396.85,139.29L397.61,139.3L398.36,139.3L399.12,139.3L399.88,139.3L400.64,139.3L401.39,139.31L402.15,139.31L402.91,139.32L403.67,139.32L404.42,139.32L405.18,139.32L405.94,139.33L406.7,139.33L407.45,139.33L408.21,139.35L408.97,139.35L409.73,139.35L410.48,139.36L411.24,139.36L412,139.36L412.75,139.36L413.51,139.37L414.27,139.38L415.03,139.38L415.78,139.39L416.54,139.39L417.3,139.39L418.06,139.39L418.81,139.4L419.57,139.4L420.33,139.41L421.09,139.43L421.84,139.45L422.6,139.46L423.36,139.46L424.12,139.46L424.87,139.47L425.63,139.47L426.39,139.47L427.14,139.47L427.9,139.5L428.66,140.38L429.42,140.67L430.17,140.71L430.93,140.94L431.69,141L432.45,141.05L433.2,141.06L433.96,141.13L434.72,141.2L435.48,141.88L436.23,142.09L436.99,142.29L437.75,142.86L438.51,143.81L439.26,143.92L440.02,143.98L440.78,144.05L441.53,136.85L442.29,136.97L443.05,137.15L443.81,137.25L444.56,137.44L445.32,130.86L446.08,132.1L446.84,132.5L447.59,133.35L448.35,133.46L449.11,133.51L449.87,133.69L450.62,126.59L451.38,127.33L452.14,130.03L452.9,131.52L453.65,131.61L454.41,131.67L455.17,132.9L455.93,140.85L456.68,151.08L457.44,155.23L458.2,155.48L458.95,157.58L459.71,161.93L460.47,167.93L461.23,170.34L461.98,171.9L462.74,178.71L463.5,181.82L464.26,185.22L465.01,189.05L465.77,189.2L466.53,189.21L467.29,189.23L468.04,189.23L468.8,189.25L469.56,189.25L470.32,189.55L471.07,189.64L471.83,189.64L472.59,189.64L473.34,189.66L474.1,189.66L474.86,189.67L475.62,189.67L476.37,189.67L477.13,189.67L477.89,189.67L478.65,189.67L479.4,189.68L480.16,189.68L480.92,189.68L481.68,189.68L482.43,189.68L483.19,189.68L483.95,189.68L484.71,189.68L485.46,189.68L486.22,189.68L486.98,189.68L487.73,189.68L488.49,189.68L489.25,189.68L490.01,189.69L490.76,189.77L491.52,189.77L492.28,189.77L493.04,190.03L493.79,190.13L494.55,190.74L495.31,190.74L496.07,190.74L496.82,190.74L497.58,190.99L498.34,191.34L499.1,191.46L499.85,191.46L500.61,191.46L501.37,191.46L502.12,192L502.88,192.15L503.64,192.19L504.4,192.19L505.15,192.19L505.91,192.19L506.67,192.19L507.43,192.19L508.18,192.19L508.94,192.19L509.7,192.19L510.46,192.19L511.21,192.19L511.97,192.19L512.73,192.19L513.49,192.19L514.24,192.19L515,192.19L515.76,192.19L516.51,192.19L517.27,192.19L518.03,192.19L518.79,192.19L519.54,192.19L520.3,192.19L521.06,192.19L521.82,192.19L522.57,192.19L523.33,192.31L524.09,192.31L524.85,192.31L525.6,192.31L526.36,192.31L527.12,192.31L527.88,192.31L528.63,192.31L529.39,192.31L530.15,192.31L530.9,192.31L531.66,192.31L532.42,192.31L533.18,192.31L533.93,192.31L534.69,192.31L535.45,192.31L536.21,192.31L536.96,192.31L537.72,192.31L538.48,192.31L539.24,192.31L539.99,192.31L540.75,192.31L541.51,192.31L542.27,192.31L543.02,192.31L543.78,192.31L544.54,192.31L545.29,192.31L546.05,192.31L546.81,192.31L547.57,192.31L548.32,192.31L549.08,192.31L549.84,192.31L550.6,192.31L551.35,192.31L552.11,192.31L552.87,192.31L553.63,192.31L554.38,192.31L555.14,192.31L555.9,192.31L556.66,192.31L557.41,192.31L558.17,192.31L558.93,192.31L559.69,192.31L560.44,192.31L561.2,192.31L561.96,192.31L562.71,192.31L563.47,192.31L564.23,192.31L564.99,192.31L565.74,192.31L566.5,192.31L567.26,192.31L568.02,192.32L568.77,192.34L569.53,192.34L570.29,192.34L571.05,192.34L571.8,192.34L572.56,192.34L573.32,192.35L574.08,192.38L574.83,192.5L575.59,192.5L576.35,192.5L577.1,195.15L577.86,198.12L578.62,201.09L579.38,203.67L580.13,203.79L580.89,203.88L581.65,203.88L582.41,203.89L583.16,203.89L583.92,203.9L584.68,203.9L585.44,203.9L586.19,203.9L586.95,203.9L587.71,203.9L588.47,203.9L589.22,203.9L589.98,203.9L590.74,203.9L591.49,204.45L592.25,205.22L593.01,205.39L593.77,205.4L594.52,205.77L595.28,206.21L596.04,206.26L596.8,206.26L597.55,206.26L598.31,206.26L599.07,206.26L599.83,206.26L600.58,206.26L601.34,206.26L602.1,206.26L602.86,206.26L603.61,206.27L604.37,206.27L605.13,206.27L605.88,206.27L606.64,206.44L607.4,206.66L608.16,206.66L608.91,206.66L609.67,206.66L610.43,206.66L611.19,206.66L611.94,206.66L612.7,206.66L613.46,206.66L614.22,206.66L614.97,206.66L615.73,206.7L616.49,206.7L617.25,206.71L618,206.71L618.76,206.71L619.52,206.71L620.27,206.71L621.03,206.72L621.79,206.72L622.55,206.72L623.3,206.74L624.06,206.76L624.82,206.8L625.58,206.82L626.33,206.84L627.09,206.89L627.85,206.91L628.61,206.91L629.36,208.84L630.12,211.5L630.88,212.15L631.64,212.35L632.39,215.22L633.15,217.37L633.91,219.34L634.66,219.56L635.42,219.57L636.18,219.57L636.94,219.57L637.69,219.58L638.45,219.58L639.21,219.58L639.97,219.58L640.72,219.58L641.48,219.58L642.24,219.58L643,219.58L643.75,219.58L644.51,219.58L645.27,219.58L646.03,219.58L646.78,219.58L647.54,219.58L648.3,219.58L649.06,219.58L649.81,219.58L650.57,219.58L651.33,219.58L652.08,219.6L652.84,219.6L653.6,219.6L654.36,219.6L655.11,219.6L655.87,219.6L656.63,219.6L657.39,219.6L658.14,219.6L658.9,219.6L659.66,219.6L660.42,219.6L661.17,219.6L661.93,219.6L662.69,219.6L663.45,219.6L664.2,219.6L664.96,219.6L665.72,219.6L666.47,219.6L667.23,219.6L667.99,219.6L668.75,219.6L669.5,219.6L670.26,219.6L671.02,219.6L671.78,219.6L672.53,219.6L673.29,219.6L674.05,219.6L674.81,219.6L675.56,219.6L676.32,219.6L677.08,219.6L677.84,219.6L678.59,219.6L679.35,219.61L680.11,219.61L680.86,219.61L681.62,219.61L682.38,219.61L683.14,219.61L683.89,219.61L684.65,219.61L685.41,219.61L686.17,219.61L686.92,219.61L687.68,219.61L688.44,219.61L689.2,219.61L689.95,219.61L690.71,219.61L691.47,219.61L692.23,219.61L692.98,219.61L693.74,219.61L694.5,219.61L695.25,219.61L696.01,219.61L696.77,219.61L697.53,219.61L698.28,219.61L699.04,219.61L699.8,219.61L700.56,219.61L701.31,219.61L702.07,219.61L702.83,219.61L703.59,219.61L704.34,219.61L705.1,219.61L705.86,219.61L706.62,219.61L707.37,219.61L708.13,219.61L708.89,219.61L709.64,219.61L710.4,219.61L711.16,219.61L711.92,219.61L712.67,219.61L713.43,219.61L714.19,219.61L714.95,219.61L715.7,219.61L716.46,219.61L717.22,219.61L717.98,219.61L718.73,219.61L719.49,219.61L720.25,219.61L721.01,219.61L721.76,219.61L722.52,219.64L723.28,219.64L724.03,219.64L724.79,219.64L725.55,219.64L726.31,219.64L727.06,219.64L727.82,219.65L728.58,219.66L729.34,219.67L730.09,219.67L730.85,220.54L731.61,223.36L732.37,225.97L733.12,228.66L733.88,229.83L734.64,229.88L735.4,229.88L736.15,229.89L736.91,229.89L737.67,229.89L738.42,229.9L739.18,229.9L739.94,229.9L740.7,229.9L741.45,229.9L742.21,229.9L742.97,229.9L743.73,229.9L744.48,229.9L745.24,229.9L746,229.91L746.76,229.92L747.51,229.95L748.27,229.95L749.03,229.96L749.79,230L750.54,229.97L751.3,229.97L752.06,229.98L752.82,230.05L753.57,230.07L754.33,230.09L755.09,230.09L755.84,230.09L756.6,230.09L757.36,230.09L758.12,230.09L758.87,230.09L759.63,230.09L760.39,230.5L761.15,233.56L761.9,236.99L762.66,238.52L763.42,238.76L764.18,238.76L764.93,238.76L765.69,238.77L766.45,240.27L767.21,243.18L767.96,247.04L768.72,248.17L769.48,248.32L770.23,248.32L770.99,248.32L771.75,248.32L772.51,248.33L773.26,248.33L774.02,248.34L774.78,248.34L775.54,249.02L776.29,249.53L777.05,249.53L777.81,249.53L778.57,249.53L779.32,249.53L780.08,249.53L780.84,249.53L781.6,249.53L782.35,249.53L783.11,249.53L783.87,249.57L784.62,250.01L785.38,250.41L786.14,250.83L786.9,251.21L787.65,251.52L788.41,251.91L789.17,252.31L789.93,252.73L790.68,253.15L791.44,253.55L792.2,253.93L792.96,254.14L793.71,254.15L794.47,254.15L795.23,254.15L795.99,254.15L796.74,254.15L797.5,254.15L798.26,254.15L799.01,254.16L799.77,254.17L800.53,254.19L801.29,254.21L802.04,254.24L802.8,254.29L803.56,254.32L804.32,254.34L805.07,254.34L805.83,254.35L806.59,254.35L807.35,254.38L808.1,256.42L808.86,258.9L809.62,261.09L810.38,263.42L811.13,264.32L811.89,264.32L812.65,264.32L813.4,264.32L814.16,264.33L814.92,264.34L815.68,264.34L816.43,264.34L817.19,264.34L817.95,264.34L818.71,264.34L819.46,264.34L820.22,264.34L820.98,264.34L821.74,264.34L822.49,264.34L823.25,264.34L824.01,264.34L824.77,264.34L825.52,264.34L826.28,264.34L827.04,264.34L827.79,264.34L828.55,264.34L829.31,264.34L830.07,264.34L830.82,264.35L831.58,264.35L832.34,264.35L833.1,264.35L833.85,264.35L834.61,264.35L835.37,264.35L836.13,264.35L836.88,264.35L837.64,264.35L838.4,264.35L839.16,264.35L839.91,264.35L840.67,264.35L841.43,264.35L842.19,264.35L842.94,264.35L843.7,264.35L844.46,264.35L845.21,264.35L845.97,264.35L846.73,264.35L847.49,264.35L848.24,264.35L849,264.35L849.76,264.35L850.52,264.35L851.27,264.35L852.03,264.35L852.79,264.35L853.55,264.35L854.3,264.35L855.06,264.35L855.82,264.35L856.58,264.35L857.33,264.35L858.09,265L858.85,265L859.6,265L860.36,265L861.12,265L861.88,265L862.63,265.01L863.39,265.01L864.15,265.01L864.91,265.01L865.66,265.01L866.42,265.01L867.18,265.01L867.94,265.01L868.69,265.01L869.45,265.01L870.21,265.01L870.97,265.01L871.72,265.02L872.48,265.08L873.24,265.09L873.99,265.09L874.75,265.07L875.51,265.07L876.27,265.07L877.02,265.07L877.78,265.07L878.54,265.07L879.3,265.07L880.05,265.07L880.81,265.07L881.57,265.07L882.33,265.07L883.08,265.2L883.84,265.2L884.6,265.2L885.36,265.2L886.11,265.2L886.87,265.21L887.63,265.22L888.38,265.23L889.14,265.23L889.9,265.23L890.66,265.23L891.41,265.23L892.17,265.23L892.93,265.23L893.69,265.23L894.44,265.23L895.2,265.24L895.96,265.27L896.72,265.29L897.47,265.31L898.23,265.33L898.99,265.34L899.75,265.34L900.5,265.34L901.26,265.34L902.02,265.34L902.77,265.34L903.53,265.34L904.29,265.34L905.05,265.34L905.8,266.88L906.56,269.03L907.32,269.22L908.08,269.22L908.83,269.23L909.59,269.23L910.35,271.02L911.11,273.82L911.86,276.59L912.62,279.36L913.38,281.37L914.14,281.52L914.89,281.54L915.65,281.54L916.41,281.54L917.16,281.55L917.92,281.55L918.68,281.55L919.44,281.55L920.19,281.56L920.95,282.57L921.71,283.9L922.47,284.19L923.22,284.19L923.98,284.19L924.74,284.19L925.5,284.19L926.25,284.19L927.01,284.19L927.77,284.19L928.53,284.63L929.28,284.88L930.04,285.62L930.8,286.18L931.55,286.18L932.31,286.18L933.07,286.18L933.83,286.18L934.58,286.18L935.34,286.18L936.1,286.81L936.86,286.86L937.61,286.86L938.37,286.86L939.13,286.87L939.89,286.97L940.64,286.97L941.4,286.97L942.16,286.97L942.92,286.97L943.67,286.97L944.43,286.97L945.19,286.97L945.95,286.97L946.7,286.97L947.46,286.97L948.22,286.97L948.97,286.97L949.73,286.97L950.49,286.98L951.25,286.98L952,286.98L952.76,286.98L953.52,286.98L954.28,286.98L955.03,286.98L955.79,286.98L956.55,286.98L957.31,287.38L958.06,287.41L958.82,287.66L959.58,287.66L960.34,287.66L961.09,287.66L961.85,287.66L962.61,287.66L963.36,287.66L964.12,287.66L964.88,287.66L965.64,287.66L966.39,287.66L967.15,287.66L967.91,287.66L968.67,287.66L969.42,287.66L970.18,287.66L970.94,287.66L971.7,287.66L972.45,287.66L973.21,287.66L973.97,287.66L974.73,287.66L975.48,287.83L976.24,287.83L977,287.83L977.75,287.83L978.51,287.83L979.27,287.83L980.03,287.83L980.78,287.83L981.54,287.83L982.3,287.83L983.06,287.83L983.81,287.83L984.57,287.83L985.33,287.83L986.09,287.83L986.84,287.83L987.6,287.83L988.36,287.83L989.12,287.83L989.87,287.83L990.63,287.83L991.39,287.83L992.14,287.83L992.9,287.83L993.66,287.83L994.42,287.83L995.17,287.83L995.93,287.84L996.69,287.86L997.45,287.89L998.2,287.89L998.96,287.89L999.72,287.89L1000.5,287.89L1001.2,287.89L1002,287.89L1002.7,288.95L1003.5,291.6L1004.3,294.18L1005,296.47L1005.8,296.92L1006.5,296.92L1007.3,296.92L1008,296.92L1008.8,296.92L1009.6,296.92L1010.3,296.92L1011.1,296.92L1011.8,296.92L1012.6,296.92L1013.4,296.93L1014.1,296.93L1014.9,296.93L1015.6,296.93L1016.4,296.93L1017.1,296.93L1017.9,296.93L1018.7,296.93L1019.4,296.93L1020.2,296.93L1020.9,296.93L1021.7,296.93L1022.4,296.93L1023.2,296.93L1024,296.93L1024.7,296.93L1025.5,296.93L1026.2,296.93L1027,296.93L1027.7,296.93L1028.5,296.93L1029.3,297.38L1030,297.42L1030.8,297.42L1031.5,297.42L1032.3,297.42L1033,297.43L1033.8,297.45L1034.6,297.47L1035.3,297.48L1036.1,297.48L1036.8,297.48L1037.6,297.48L1038.3,297.48L1039.1,297.48L1039.9,297.48L1040.6,297.48L1041.4,297.49L1042.1,297.51L1042.9,297.54L1043.6,297.54L1044.4,297.54L1045.2,297.54L1045.9,297.54L1046.7,297.54L1047.4,297.54L1048.2,297.54L1048.9,297.54L1049.7,297.65L1050.5,299.29L1051.2,301.93L1052,303.8L1052.7,304.01L1053.5,304.01L1054.2,304.01L1055,304.01L1055.8,304.01L1056.5,304.01L1057.3,304.01L1058,304.02L1058.8,305.81L1059.6,306.18L1060.3,306.21L1061.1,306.21L1061.8,306.21L1062.6,306.21L1063.3,306.21L1064.1,306.22L1064.9,306.22L1065.6,306.22L1066.4,306.22L1067.1,306.87L1067.9,306.98L1068.6,306.98L1069.4,306.98L1070.2,306.98L1070.9,306.98L1071.7,306.98L1072.4,306.98L1073.2,306.98L1073.9,306.98L1074.7,307.66L1075.5,307.98L1076.2,308.68L1077,308.77L1077.7,308.81L1078.5,308.81L1079.2,308.81L1080,308.81" style="fill:none;stroke:#F15A60;stroke-width:1.875" />
<path d="M84.812,48.255L85.57,51.299L86.327,51.799L87.085,51.933L87.842,52.336L88.599,52.629L89.357,52.932L90.114,53.22L90.871,53.577L91.629,53.842L92.386,54.227L93.144,54.39L93.901,54.602L94.658,54.96L95.416,55.199L96.173,55.537L96.93,55.783L97.688,56.004L98.445,56.328L99.203,56.574L99.96,56.756L100.72,57.179L101.47,57.41L102.23,57.748L102.99,58.092L103.75,58.205L104.5,58.449L105.26,58.654L106.02,59.11L106.78,59.428L107.53,59.569L108.29,59.704L109.05,60.166L109.81,60.315L110.56,60.687L111.32,60.982L112.08,61.095L112.84,61.53L113.59,61.714L114.35,61.996L115.11,62.29L115.86,62.576L116.62,62.861L117.38,63.105L118.14,63.56L118.89,63.72L119.65,63.956L120.41,64.204L121.17,64.479L121.92,64.676L122.68,65.134L123.44,65.319L124.2,65.598L124.95,65.926L125.71,66.215L126.47,66.305L127.23,66.714L127.98,66.938L128.74,67.183L129.5,67.381L130.25,67.729L131.01,67.886L131.77,68.093L132.53,68.413L133.28,68.842L134.04,69.181L134.8,69.362L135.56,69.503L136.31,69.859L137.07,70.103L137.83,70.413L138.59,70.55L139.34,70.754L140.1,71.056L140.86,71.574L141.62,71.851L142.37,72.109L143.13,72.393L143.89,72.619L144.64,72.91L145.4,73.199L146.16,73.469L146.92,73.868L147.67,74.127L148.43,74.391L149.19,74.575L149.95,75.152L150.7,75.461L151.46,75.679L152.22,75.86L152.98,76.118L153.73,76.485L154.49,76.68L155.25,76.788L156.01,77.017L156.76,77.423L157.52,77.765L158.28,77.838L159.04,77.997L159.79,78.357L160.55,78.774L161.31,78.909L162.06,79.219L162.82,79.504L163.58,79.839L164.34,79.954L165.09,80.25L165.85,80.54L166.61,80.7L167.37,80.996L168.12,81.288L168.88,81.459L169.64,81.659L170.4,81.958L171.15,82.203L171.91,82.508L172.67,82.754L173.43,82.964L174.18,83.249L174.94,83.537L175.7,83.839L176.45,84.007L177.21,84.354L177.97,84.541L178.73,84.723L179.48,85.261L180.24,85.395L181,85.705L181.76,85.81L182.51,86.052L183.27,86.459L184.03,86.64L184.79,86.91L185.54,87.125L186.3,87.536L187.06,87.624L187.82,87.959L188.57,88.123L189.33,88.39L190.09,88.464L190.84,88.811L191.6,89.036L192.36,89.283L193.12,89.453L193.87,89.683L194.63,90.034L195.39,90.307L196.15,90.522L196.9,90.742L197.66,90.916L198.42,91.163L199.18,91.291L199.93,91.645L200.69,91.797L201.45,92.262L202.21,92.472L202.96,92.655L203.72,92.854L204.48,93.102L205.23,93.227L205.99,93.499L206.75,93.734L207.51,93.965L208.26,94.23L209.02,94.354L209.78,94.761L210.54,94.786L211.29,95.269L212.05,95.355L212.81,95.918L213.57,96.072L214.32,96.26L215.08,96.454L215.84,96.692L216.6,97.072L217.35,97.196L218.11,97.437L218.87,97.676L219.62,97.978L220.38,98.213L221.14,98.25L221.9,98.538L222.65,98.767L223.41,99.148L224.17,99.459L224.93,99.526L225.68,99.823L226.44,99.92L227.2,100.27L227.96,100.42L228.71,100.55L229.47,101.04L230.23,101.17L230.99,101.5L231.74,101.61L232.5,101.84L233.26,102.19L234.01,102.37L234.77,102.68L235.53,102.87L236.29,103L237.04,103.39L237.8,103.52L238.56,103.61L239.32,103.97L240.07,104.21L240.83,104.58L241.59,104.87L242.35,104.93L243.1,105.29L243.86,105.58L244.62,105.68L245.38,106.16L246.13,106.22L246.89,106.52L247.65,106.69L248.4,106.72L249.16,107.07L249.92,107.34L250.68,107.53L251.43,108.03L252.19,108.18L252.95,108.37L253.71,108.78L254.46,108.89L255.22,109.1L255.98,109.39L256.74,109.56L257.49,109.69L258.25,110.05L259.01,110.3L259.77,110.39L260.52,110.58" style="fill:none;stroke:#7AC36A;stroke-width:1.875;stroke-dasharray:7.5,2.5" />
<path d="M84.812,48.125L85.57,49.692L86.327,50.002L87.085,50.367L87.842,50.697L88.599,50.962L89.357,51.248L90.114,51.631L90.871,51.898L91.629,52.12L92.386,52.434L93.144,52.841L93.901,53.029L94.658,53.32L95.416,53.575L96.173,54.005L96.93,54.178L97.688,54.501L98.445,54.776L99.203,55.076L99.96,55.29L100.72,55.572L101.47,55.761L102.23,56.091L102.99,56.406L103.75,56.66L104.5,56.961L105.26,57.2L106.02,57.694L106.78,57.776L107.53,58.036L108.29,58.321L109.05,58.534L109.81,58.813L110.56,59.146L111.32,59.511L112.08,59.653L112.84,59.92L113.59,60.313L114.35,60.597L115.11,60.724L115.86,61.051L116.62,61.41L117.38,61.587L118.14,61.801L118.89,62.204L119.65,62.364L120.41,62.693L121.17,62.941L121.92,63.144L122.68,63.428L123.44,64.063L124.2,64.235L124.95,64.503L125.71,64.571L126.47,64.7L127.23,65.293L127.98,65.468L128.74,65.669L129.5,65.875L130.25,66.196L131.01,66.499L131.77,66.8L132.53,67.033L133.28,67.167L134.04,67.555L134.8,67.812L135.56,68.187L136.31,68.378L137.07,68.573L137.83,68.663L138.59,69.015L139.34,69.386L140.1,69.699L140.86,69.923L141.62,70.181L142.37,70.311L143.13,70.692L143.89,70.811L144.64,71.169L145.4,71.544L146.16,71.691L146.92,71.952L147.67,72.272L148.43,72.584L149.19,72.754L149.95,72.992L150.7,73.152L151.46,73.407L152.22,73.584L152.98,74.037L153.73,74.285L154.49,74.556L155.25,74.841L156.01,74.976L156.76,75.308L157.52,75.518L158.28,75.936L159.04,76.128L159.79,76.43L160.55,76.647L161.31,76.825L162.06,77.122L162.82,77.426L163.58,77.616L164.34,77.978L165.09,78.22L165.85,78.405L166.61,78.646L167.37,78.941L168.12,79.343L168.88,79.553L169.64,79.684L170.4,79.93L171.15,80.248L171.91,80.541L172.67,80.777L173.43,81.02L174.18,81.289L174.94,81.568L175.7,81.759L176.45,81.939L177.21,82.557L177.97,82.818L178.73,82.956L179.48,83.151L180.24,83.279L181,83.589L181.76,83.902L182.51,84.063L183.27,84.27L184.03,84.521L184.79,84.894L185.54,85.207L186.3,85.376L187.06,85.623L187.82,85.896L188.57,86.292L189.33,86.523L190.09,86.754L190.84,86.994L191.6,87.15L192.36,87.493L193.12,87.667L193.87,87.886L194.63,88.234L195.39,88.357L196.15,88.63L196.9,88.952L197.66,89.151L198.42,89.466L199.18,89.765L199.93,89.96L200.69,90.322L201.45,90.506L202.21,90.668L202.96,90.897L203.72,91.144L204.48,91.258L205.23,91.596L205.99,91.816L206.75,92.228L207.51,92.504L208.26,92.71L209.02,93.023L209.78,93.186L210.54,93.322L211.29,93.587L212.05,93.845L212.81,94.144L213.57,94.414L214.32,94.65L215.08,94.907L215.84,95.065L216.6,95.369L217.35,95.532L218.11,95.975L218.87,96.114L219.62,96.45L220.38,96.512L221.14,96.776L221.9,97.003L222.65,97.3L223.41,97.43L224.17,97.792L224.93,98.141L225.68,98.364L226.44,98.688L227.2,98.879L227.96,99.031L228.71,99.367L229.47,99.573L230.23,99.942L230.99,100.1L231.74,100.32L232.5,100.58L233.26,100.76L234.01,101.09L234.77,101.12L235.53,101.5L236.29,101.63L237.04,101.93L237.8,102.22L238.56,102.35L239.32,102.74L240.07,102.86L240.83,103.04L241.59,103.49L242.35,103.77L243.1,104.06L243.86,104.26L244.62,104.48L245.38,104.69L246.13,104.91L246.89,105L247.65,105.38L248.4,105.71L249.16,105.9L249.92,106.18L250.68,106.28L251.43,106.46L252.19,106.82L252.95,106.91L253.71,107.34L254.46,107.48" style="fill:none;stroke:#5A9BD4;stroke-width:1.875;stroke-dasharray:2.5,2.5" />
<path d="M84.812,48.921L85.57,52.331L86.327,60.857L87.085,65.693L87.842,69.789L88.599,78.068L89.357,85.253L90.114,88.146L90.871,95.194L91.629,99.519L92.386,105.13L93.144,115.93L93.901,124.46L94.658,127.43L95.416,131.74L96.173,131.74L96.93,131.74L97.688,131.74L98.445,131.74L99.203,131.74L99.96,131.74L100.72,131.74L101.47,131.83L102.23,132.03L102.99,132.15L103.75,132.15L104.5,132.15L105.26,132.15L106.02,132.15L106.78,132.15L107.53,132.15L108.29,132.15L109.05,132.15L109.81,132.15L110.56,132.15L111.32,132.15L112.08,132.15L112.84,132.15L113.59,132.15L114.35,132.15L115.11,132.15L115.86,132.15L116.62,132.15L117.38,132.15L118.14,132.15L118.89,132.15L119.65,132.15L120.41,132.15L121.17,132.15L121.92,132.15L122.68,132.15L123.44,132.15L124.2,132.15L124.95,132.15L125.71,132.15L126.47,132.15L127.23,132.15L127.98,132.15L128.74,132.15L129.5,132.15L130.25,132.16L131.01,132.2L131.77,132.2L132.53,136.07L133.28,140.73L134.04,149.8L134.8,158.84L135.56,168.68L136.31,178.83L137.07,184.02L137.83,187.57L138.59,198.4L139.34,209.77L140.1,211.65L140.86,212.31L141.62,215.21L142.37,215.24L143.13,215.63L143.89,224.76L144.64,229.37L145.4,242.1L146.16,267.38L146.92,275.05L147.67,280.94L148.43,280.94L149.19,280.94L149.95,281.11L150.7,281.11L151.46,281.11L152.22,281.11L152.98,281.11L153.73,281.11L154.49,281.11L155.25,281.29L156.01,281.29L156.76,281.29L157.52,281.29L158.28,281.29L159.04,281.29L159.79,281.29L160.55,281.29L161.31,285.04L162.06,285.04L162.82,288.78L163.58,288.78L164.34,288.78L165.09,288.78L165.85,288.78L166.61,288.78L167.37,288.78L168.12,288.78L168.88,288.78L169.64,288.78L170.4,288.78L171.15,288.78L171.91,288.78L172.67,288.78L173.43,288.78L174.18,288.78L174.94,288.78L175.7,288.78L176.45,288.79L177.21,288.84L177.97,288.9L178.73,288.9L179.48,288.91L180.24,288.92L181,288.93L181.76,288.97L182.51,290.09L183.27,295.96L184.03,309.41L184.79,309.96L185.54,309.96L186.3,310.64L187.06,310.64L187.82,310.68L188.57,310.68L189.33,311.99L190.09,318.71L190.84,318.72L191.6,318.75L192.36,318.75L193.12,318.92L193.87,318.92L194.63,319.97L195.39,319.97L196.15,320L196.9,320L197.66,320.04L198.42,320.06L199.18,320.06L199.93,320.06L200.69,320.06L201.45,323.73L202.21,323.73L202.96,323.73L203.72,323.73L204.48,331.55L205.23,331.61L205.99,331.61L206.75,331.61L207.51,331.61L208.26,331.61L209.02,331.61L209.78,331.61L210.54,331.61L211.29,331.61L212.05,331.61L212.81,331.61L213.57,331.61L214.32,331.61L215.08,331.61L215.84,331.61L216.6,331.61L217.35,331.61L218.11,331.61L218.87,331.61L219.62,331.61L220.38,331.61L221.14,331.61L221.9,331.61L222.65,331.61L223.41,331.65L224.17,331.68L224.93,331.68L225.68,331.7L226.44,331.71L227.2,331.72L227.96,331.73L228.71,331.73L229.47,332.3L230.23,351.42L230.99,403.27L231.74,420.62L232.5,425.1L233.26,455.13L234.01,463.78L234.77,463.78L235.53,463.78L236.29,463.78L237.04,463.78L237.8,463.78L238.56,463.78L239.32,463.78L240.07,463.78L240.83,463.78L241.59,463.78L242.35,463.78L243.1,463.78L243.86,463.78L244.62,463.78L245.38,463.78L246.13,463.78L246.89,463.78L247.65,463.78L248.4,463.78L249.16,463.78L249.92,463.78L250.68,463.78L251.43,463.78L252.19,463.78L252.95,463.78L253.71,463.78L254.46,463.78L255.22,463.78L255.98,463.78L256.74,463.78L257.49,463.78L258.25,463.78L259.01,463.78L259.77,463.78L260.52,463.78L261.28,463.78L262.04,463.78L262.8,463.78L263.55,467.14L264.31,467.14L265.07,467.14L265.82,467.14L266.58,467.14L267.34,467.14L268.1,467.14L268.85,467.14L269.61,467.16L270.37,467.24L271.13,467.38L271.88,467.42L272.64,467.42L273.4,467.42L274.16,467.42L274.91,467.42L275.67,467.42L276.43,467.42L277.19,467.48L277.94,467.48L278.7,476.81L279.46,477.87L280.21,483.66L280.97,515.39L281.73,539.66L282.49,564.48L283.24,571.85L284,596.01L284.76,609.93L285.52,614.62L286.27,630.08L287.03,647.63L287.79,659.19L288.55,659.2L289.3,659.2L290.06,659.2L290.82,659.2L291.58,659.2L292.33,659.2L293.09,660.31L293.85,660.33L294.6,660.33L295.36,663.42L296.12,665.96L296.88,665.96L297.63,665.96L298.39,665.99L299.15,665.99L299.91,665.99L300.66,666L301.42,665.99L302.18,666L302.94,666L303.69,666L304.45,666L305.21,666L305.97,666L306.72,666L307.48,666L308.24,667.12L308.99,670.33L309.75,677.11L310.51,680.49L311.27,681.45L312.02,682.78L312.78,684.06L313.54,692.34L314.3,697.29L315.05,701.41L315.81,701.44L316.57,701.44L317.33,701.44" style="fill:none;stroke:#FAA75B;stroke-width:1.875;stroke-dasharray:1.25,1.25" />
<path d="M84.812,50.609L85.57,53.291L86.327,54.462L87.085,59.103L87.842,64.868L88.599,68.242L89.357,76.71L90.114,80.171L90.871,83.57L91.629,83.551L92.386,95.969L93.144,99.765L93.901,99.765L94.658,104.01L95.416,104.01L96.173,104.04L96.93,108.65L97.688,119.72L98.445,120.22L99.203,120.19L99.96,120.93L100.72,123.77L101.47,124.21L102.23,124.21L102.99,124.73L103.75,127L104.5,127.01L105.26,127.01L106.02,127.01L106.78,130.56L107.53,130.64L108.29,131.15L109.05,131.11L109.81,132.72L110.56,132.72L111.32,134.18L112.08,138.16L112.84,139.02L113.59,139.04L114.35,141.39L115.11,141.41L115.86,141.41L116.62,141.41L117.38,141.41L118.14,141.41L118.89,141.41L119.65,141.41L120.41,141.41L121.17,141.41L121.92,141.82L122.68,142.14L123.44,142.14L124.2,142.9L124.95,144.57L125.71,144.97L126.47,146.5L127.23,146.5L127.98,147.09L128.74,147.09L129.5,148.63L130.25,149.3L131.01,150.33L131.77,151.02L132.53,152.37L133.28,152.39L134.04,152.39L134.8,152.39L135.56,152.86L136.31,153.36L137.07,154.06L137.83,154.34L138.59,156.02L139.34,156.31L140.1,157.17L140.86,158.21L141.62,159.25L142.37,159.32L143.13,160.28L143.89,160.55L144.64,160.6L145.4,160.19L146.16,160.24L146.92,160.08L147.67,161.81L148.43,162.75L149.19,163.08L149.95,164.08L150.7,166.02L151.46,166.95L152.22,168.35L152.98,169.67L153.73,169.67L154.49,170.73L155.25,171.57L156.01,171.72L156.76,172.12L157.52,173.68L158.28,174.29L159.04,174.33L159.79,175.16L160.55,175.41L161.31,175.4L162.06,175.36L162.82,175.5L163.58,175.57L164.34,175.4L165.09,175.24L165.85,175.16L166.61,175.1L167.37,175.48L168.12,176.21L168.88,176.79L169.64,177.88L170.4,177.87L171.15,178.75L171.91,178.79L172.67,179.74L173.43,180.17L174.18,180.89L174.94,182.48L175.7,183.29L176.45,185.13L177.21,187.22L177.97,187.88L178.73,189.77L179.48,190.19L180.24,191.21L181,191.21L181.76,192.1L182.51,192.53L183.27,193.44L184.03,193.47L184.79,193.66L185.54,193.9L186.3,193.88" style="fill:none;stroke:#9E67AB;stroke-width:1.875;stroke-dasharray:6.25,2.5,1.25,2.5" />
<path d="M1055,694.3L1080,694.3" style="fill:none;stroke:#FAA75B;stroke-width:1.875;stroke-dasharray:1.25,1.25" />
<text x="1014.1" y="-687.85" transform="scale(1, -1)"
	style="font-family:Helvetica;font-weight:normal;font-style:normal;font-size:12pt">etcd2</text>
<path d="M1055,680L1080,680" style="fill:none;stroke:#9E67AB;stroke-width:1.875;stroke-dasharray:6.25,2.5,1.25,2.5" />
<text x="1035.8" y="-673.56" transform="scale(1, -1)"
	style="font-family:Helvetica;font-weight:normal;font-style:normal;font-size:12pt">zk</text>
<path d="M1055,665.71L1080,665.71" style="fill:none;stroke:#F15A60;stroke-width:1.875" />
<text x="1007.5" y="-659.26" transform="scale(1, -1)"
	style="font-family:Helvetica;font-weight:normal;font-style:normal;font-size:12pt">consul</text>
<path d="M1055,651.41L1080,651.41" style="fill:none;stroke:#7AC36A;stroke-width:1.875;stroke-dasharray:7.5,2.5" />
<text x="1014.1" y="-644.97" transform="scale(1, -1)"
	style="font-family:Helvetica;font-weight:normal;font-style:normal;font-size:12pt">etcd3</text>
<path d="M1055,637.12L1080,637.12" style="fill:none;stroke:#5A9BD4;stroke-width:1.875;stroke-dasharray:2.5,2.5" />
<text x="870.77" y="-630.67" transform="scale(1, -1)"
	style="font-family:Helvetica;font-weight:normal;font-style:normal;font-size:12pt">etcd3-100-conns-1k-clients</text>
</g>
</svg>
