<?xml version="1.0"?>
<!-- Generated by SVGo and Plotinum VG -->
<svg width="12in" height="8in"
	xmlns="http://www.w3.org/2000/svg"
	xmlns:xlink="http://www.w3.org/1999/xlink">
<g transform="scale(1, -1) translate(0, -720)">
<path d="M0,0L1080,0L1080,720L0,720Z" style="fill:#FFFFFF" />
<text x="305.34" y="-706.41" transform="scale(1, -1)"
	style="font-family:Helvetica;font-weight:normal;font-style:normal;font-size:12pt">Write 3M keys, 1K clients, key 64 bytes, value 256 bytes, Memory(MB)</text>
<text x="548.11" y="-4.965" transform="scale(1, -1)"
	style="font-family:Helvetica;font-weight:normal;font-style:normal;font-size:12pt">Second</text>
<text x="63.613" y="-19.142" transform="scale(1, -1)"
	style="font-family:Helvetica;font-weight:normal;font-style:normal;font-size:10pt">0</text>
<text x="365.01" y="-19.142" transform="scale(1, -1)"
	style="font-family:Helvetica;font-weight:normal;font-style:normal;font-size:10pt">400</text>
<text x="673.35" y="-19.142" transform="scale(1, -1)"
	style="font-family:Helvetica;font-weight:normal;font-style:normal;font-size:10pt">800</text>
<text x="978.22" y="-19.142" transform="scale(1, -1)"
	style="font-family:Helvetica;font-weight:normal;font-style:normal;font-size:10pt">1200</text>
<path d="M67.088,30.467L67.088,40.467" style="fill:none;stroke:#000000;stroke-width:0.625" />
<path d="M375.43,30.467L375.43,40.467" style="fill:none;stroke:#000000;stroke-width:0.625" />
<path d="M683.78,30.467L683.78,40.467" style="fill:none;stroke:#000000;stroke-width:0.625" />
<path d="M992.12,30.467L992.12,40.467" style="fill:none;stroke:#000000;stroke-width:0.625" />
<path d="M221.26,35.468L221.26,40.467" style="fill:none;stroke:#000000;stroke-width:0.625" />
<path d="M529.6,35.468L529.6,40.467" style="fill:none;stroke:#000000;stroke-width:0.625" />
<path d="M837.95,35.468L837.95,40.467" style="fill:none;stroke:#000000;stroke-width:0.625" />
<path d="M67.088,40.467L1080,40.467" style="fill:none;stroke:#000000;stroke-width:0.625" />
<g transform="rotate(90)">
<text x="330.91" y="13.59" transform="scale(1, -1)"
	style="font-family:Helvetica;font-weight:normal;font-style:normal;font-size:12pt">Memory(MB)</text>
</g>
<text x="18.555" y="-250.57" transform="scale(1, -1)"
	style="font-family:Helvetica;font-weight:normal;font-style:normal;font-size:10pt">2000</text>
<text x="18.555" y="-461.69" transform="scale(1, -1)"
	style="font-family:Helvetica;font-weight:normal;font-style:normal;font-size:10pt">4000</text>
<text x="18.555" y="-672.81" transform="scale(1, -1)"
	style="font-family:Helvetica;font-weight:normal;font-style:normal;font-size:10pt">6000</text>
<path d="M49.83,255.94L59.83,255.94" style="fill:none;stroke:#000000;stroke-width:0.625" />
<path d="M49.83,467.06L59.83,467.06" style="fill:none;stroke:#000000;stroke-width:0.625" />
<path d="M49.83,678.17L59.83,678.17" style="fill:none;stroke:#000000;stroke-width:0.625" />
<path d="M54.83,150.38L59.83,150.38" style="fill:none;stroke:#000000;stroke-width:0.625" />
<path d="M54.83,361.5L59.83,361.5" style="fill:none;stroke:#000000;stroke-width:0.625" />
<path d="M54.83,572.62L59.83,572.62" style="fill:none;stroke:#000000;stroke-width:0.625" />
<path d="M59.83,47.03L59.83,701.44" style="fill:none;stroke:#000000;stroke-width:0.625" />
<path d="M67.088,50.093L67.858,57.701L68.629,58.953L69.4,59.286L70.171,60.296L70.942,61.026L71.713,61.785L72.484,62.504L73.254,63.397L74.025,64.06L74.796,65.021L75.567,65.429L76.338,65.959L77.109,66.855L77.88,67.451L78.65,68.297L79.421,68.912L80.192,69.463L80.963,70.273L81.734,70.888L82.505,71.343L83.276,72.401L84.046,72.978L84.817,73.823L85.588,74.684L86.359,74.967L87.13,75.575L87.901,76.088L88.672,77.228L89.442,78.024L90.213,78.376L90.984,78.713L91.755,79.867L92.526,80.24L93.297,81.171L94.068,81.909L94.839,82.192L95.609,83.279L96.38,83.739L97.151,84.442L97.922,85.178L98.693,85.893L99.464,86.606L100.23,87.216L101.01,88.354L101.78,88.753L102.55,89.342L103.32,89.962L104.09,90.651L104.86,91.143L105.63,92.287L106.4,92.749L107.17,93.447L107.94,94.266L108.71,94.989L109.48,95.214L110.26,96.238L111.03,96.797L111.8,97.41L112.57,97.904L113.34,98.775L114.11,99.167L114.88,99.685L115.65,100.49L116.42,101.56L117.19,102.4L117.96,102.86L118.74,103.21L119.51,104.1L120.28,104.71L121.05,105.48L121.82,105.83L122.59,106.34L123.36,107.09L124.13,108.39L124.9,109.08L125.67,109.73L126.44,110.43L127.21,111L127.99,111.73L128.76,112.45L129.53,113.12L130.3,114.12L131.07,114.77L131.84,115.43L132.61,115.89L133.38,117.33L134.15,118.1L134.92,118.65L135.69,119.1L136.47,119.75L137.24,120.66L138.01,121.15L138.78,121.42L139.55,121.99L140.32,123.01L141.09,123.86L141.86,124.05L142.63,124.44L143.4,125.34L144.17,126.39L144.94,126.72L145.72,127.5L146.49,128.21L147.26,129.05L148.03,129.34L148.8,130.08L149.57,130.8L150.34,131.2L151.11,131.94L151.88,132.67L152.65,133.1L153.42,133.6L154.19,134.35L154.97,134.96L155.74,135.72L156.51,136.34L157.28,136.86L158.05,137.57L158.82,138.29L159.59,139.05L160.36,139.47L161.13,140.34L161.9,140.8L162.67,141.26L163.45,142.6L164.22,142.94L164.99,143.71L165.76,143.98L166.53,144.58L167.3,145.6L168.07,146.05L168.84,146.72L169.61,147.26L170.38,148.29L171.15,148.51L171.92,149.35L172.7,149.76L173.47,150.42L174.24,150.61L175.01,151.48L175.78,152.04L176.55,152.66L177.32,153.08L178.09,153.66L178.86,154.53L179.63,155.22L180.4,155.75L181.18,156.3L181.95,156.74L182.72,157.36L183.49,157.68L184.26,158.56L185.03,158.94L185.8,160.1L186.57,160.63L187.34,161.09L188.11,161.59L188.88,162.2L189.65,162.52L190.43,163.2L191.2,163.78L191.97,164.36L192.74,165.02L193.51,165.33L194.28,166.35L195.05,166.41L195.82,167.62L196.59,167.84L197.36,169.24L198.13,169.63L198.9,170.1L199.68,170.58L200.45,171.18L201.22,172.13L201.99,172.44L202.76,173.04L203.53,173.64L204.3,174.39L205.07,174.98L205.84,175.07L206.61,175.79L207.38,176.36L208.16,177.32L208.93,178.1L209.7,178.26L210.47,179.01L211.24,179.25L212.01,180.12L212.78,180.5L213.55,180.83L214.32,182.05L215.09,182.37L215.86,183.19L216.63,183.48L217.41,184.05L218.18,184.92L218.95,185.38L219.72,186.14L220.49,186.61L221.26,186.94L222.03,187.91L222.8,188.25L223.57,188.46L224.34,189.37L225.11,189.98L225.89,190.9L226.66,191.61L227.43,191.78L228.2,192.68L228.97,193.4L229.74,193.66L230.51,194.85L231.28,195.01L232.05,195.76L232.82,196.17L233.59,196.25L234.36,197.12L235.14,197.81L235.91,198.27L236.68,199.53L237.45,199.91L238.22,200.38L238.99,201.41L239.76,201.66L240.53,202.19L241.3,202.93L242.07,203.36L242.84,203.67L243.61,204.58L244.39,205.21L245.16,205.42L245.93,205.9" style="fill:none;stroke:#F15A60;stroke-width:1.875" />
<path d="M67.088,55.977L67.858,62.681L68.629,65.608L69.4,77.211L70.171,91.622L70.942,100.06L71.713,121.23L72.484,129.88L73.254,138.38L74.025,138.33L74.796,169.37L75.567,178.86L76.338,178.86L77.109,189.47L77.88,189.47L78.65,189.55L79.421,201.07L80.192,228.74L80.963,230L81.734,229.93L82.505,231.78L83.276,238.88L84.046,239.96L84.817,239.96L85.588,241.27L86.359,246.94L87.13,246.97L87.901,246.97L88.672,246.97L89.442,255.85L90.213,256.03L90.984,257.33L91.755,257.23L92.526,261.25L93.297,261.25L94.068,264.9L94.839,274.85L95.609,276.98L96.38,277.04L97.151,282.92L97.922,282.97L98.693,282.97L99.464,282.97L100.23,282.97L101.01,282.97L101.78,282.97L102.55,282.97L103.32,282.97L104.09,282.97L104.86,284L105.63,284.79L106.4,284.79L107.17,286.68L107.94,290.87L108.71,291.86L109.48,295.7L110.26,295.7L111.03,297.17L111.8,297.17L112.57,301.02L113.34,302.69L114.11,305.27L114.88,307L115.65,310.36L116.42,310.41L117.19,310.41L117.96,310.41L118.74,311.59L119.51,312.85L120.28,314.58L121.05,315.3L121.82,319.48L122.59,320.2L123.36,322.37L124.13,324.97L124.9,327.57L125.67,327.75L126.44,330.15L127.21,330.81L127.99,330.94L128.76,329.91L129.53,330.04L130.3,329.64L131.07,333.98L131.84,336.31L132.61,337.13L133.38,339.63L134.15,344.5L134.92,346.81L135.69,350.3L136.47,353.6L137.24,353.6L138.01,356.27L138.78,358.37L139.55,358.75L140.32,359.74L141.09,363.65L141.86,365.17L142.63,365.27L143.4,367.33L144.17,367.97L144.94,367.95L145.72,367.83L146.49,368.19L147.26,368.36L148.03,367.94L148.8,367.53L149.57,367.33L150.34,367.18L151.11,368.13L151.88,369.97L152.65,371.42L153.42,374.14L154.19,374.13L154.97,376.3L155.74,376.42L156.51,378.79L157.28,379.87L158.05,381.67L158.82,385.64L159.59,387.67L160.36,392.26L161.13,397.5L161.9,399.14L162.67,403.86L163.45,404.91L164.22,407.45L164.99,407.45L165.76,409.68L166.53,410.76L167.3,413.04L168.07,413.1L168.84,413.59L169.61,414.18L170.38,414.15" style="fill:none;stroke:#7AC36A;stroke-width:1.875;stroke-dasharray:7.5,2.5" />
<path d="M67.088,47.03L67.858,50.205L68.629,51.089L69.4,52.032L70.171,52.432L70.942,53.503L71.713,54.666L72.484,55.774L73.254,55.388L74.025,56.578L74.796,57.752L75.567,58.897L76.338,59.948L77.109,61.352L77.88,62.326L78.65,60.819L79.421,61.654L80.192,62.806L80.963,63.804L81.734,65.367L82.505,66.39L83.276,67.426L84.046,68.573L84.817,69.614L85.588,70.997L86.359,72.17L87.13,73.337L87.901,74.729L88.672,75.255L89.442,70.878L90.213,72.307L90.984,73.073L91.755,73.744L92.526,75.439L93.297,76.408L94.068,77.394L94.839,78.691L95.609,79.858L96.38,80.621L97.151,82.315L97.922,83.334L98.693,84.321L99.464,85.38L100.23,86.308L101.01,87.456L101.78,88.748L102.55,89.582L103.32,91.061L104.09,92.059L104.86,93.167L105.63,93.894L106.4,94.979L107.17,96.189L107.94,97.032L108.71,98.641L109.48,99.639L110.26,101.11L111.03,101.82L111.8,91.381L112.57,92.058L113.34,92.935L114.11,94.519L114.88,95.447L115.65,97.426L116.42,97.654L117.19,110.93L117.96,124.22L118.74,128.62L119.51,131.68L120.28,133.56L121.05,133.84L121.82,134.68L122.59,134.68L123.36,135.2L124.13,135.36L124.9,135.36L125.67,135.73L126.44,135.88L127.21,135.98L127.99,136.07L128.76,136.24L129.53,136.6L130.3,137.06L131.07,137.33L131.84,137.33L132.61,137.34L133.38,137.34L134.15,137.37L134.92,137.37L135.69,137.37L136.47,137.38L137.24,137.38L138.01,137.38L138.78,137.4L139.55,137.47L140.32,137.53L141.09,137.68L141.86,137.89L142.63,137.89L143.4,137.92L144.17,137.93L144.94,138.15L145.72,138.17L146.49,138.28L147.26,138.28L148.03,138.32L148.8,138.32L149.57,138.44L150.34,138.44L151.11,138.5L151.88,138.56L152.65,138.61L153.42,138.62L154.19,138.62L154.97,138.64L155.74,138.67L156.51,138.8L157.28,138.8L158.05,138.8L158.82,138.83L159.59,138.87L160.36,138.87L161.13,138.9L161.9,138.94L162.67,139.15L163.45,139.53L164.22,139.55L164.99,139.56L165.76,139.58L166.53,139.6L167.3,139.61L168.07,139.62L168.84,139.66L169.61,139.66L170.38,139.66L171.15,139.8L171.92,139.82L172.7,140.43L173.47,140.44L174.24,152.1L175.01,153.73L175.78,158.21L176.55,158.27L177.32,158.29L178.09,158.29L178.86,158.29L179.63,158.29L180.4,158.29L181.18,158.29L181.95,158.29L182.72,158.29L183.49,158.3L184.26,158.3L185.03,158.3L185.8,158.3L186.57,158.3L187.34,158.3L188.11,158.3L188.88,158.3L189.65,158.3L190.43,158.3L191.2,158.3L191.97,158.3L192.74,158.3L193.51,158.3L194.28,158.3L195.05,158.31L195.82,158.31L196.59,158.31L197.36,158.31L198.13,158.31L198.9,158.31L199.68,158.32L200.45,158.32L201.22,158.32L201.99,158.32L202.76,158.32L203.53,158.34L204.3,158.34L205.07,158.34L205.84,158.38L206.61,158.38L207.38,158.38L208.16,158.39L208.93,158.39L209.7,158.59L210.47,158.66L211.24,158.69L212.01,159.76L212.78,159.97L213.55,160.01L214.32,160.58L215.09,161.24L215.86,161.29L216.63,161.3L217.41,162.36L218.18,162.53L218.95,162.55L219.72,162.91L220.49,164.29L221.26,164.41L222.03,164.95L222.8,165.01L223.57,165.74L224.34,166.92L225.11,166.95L225.89,167.5L226.66,168.33L227.43,168.95L228.2,169.85L228.97,169.91L229.74,169.92L230.51,170.88L231.28,171.63L232.05,172.78L232.82,172.81L233.59,173.53L234.36,173.61L235.14,174.97L235.91,175.38L236.68,177.39L237.45,177.54L238.22,177.64L238.99,178.44L239.76,180.13L240.53,180.62L241.3,182.12L242.07,183.09L242.84,183.65L243.61,184.05L244.39,185.62L245.16,186.81L245.93,188.29L246.7,188.39L247.47,188.56L248.24,188.69L249.01,188.85L249.78,189.03L250.55,189.13L251.32,190.06L252.09,190.74L252.87,191.61L253.64,192.37L254.41,192.6L255.18,193.3L255.95,193.88L256.72,193.94L257.49,194L258.26,194.07L259.03,194.14L259.8,194.15L260.57,194.2L261.34,194.24L262.12,194.33L262.89,194.42L263.66,194.56L264.43,194.68L265.2,195.26L265.97,195.99L266.74,196.73L267.51,197.06L268.28,197.27L269.05,197.7L269.82,198.7L270.6,198.89L271.37,199.03L272.14,199.26L272.91,199.38L273.68,199.56L274.45,199.73L275.22,199.95L275.99,200.11L276.76,201.21L277.53,201.34L278.3,202.39L279.07,202.81L279.85,203.02L280.62,203.21L281.39,203.45L282.16,208.57L282.93,209.73L283.7,210.01L284.47,214.34L285.24,217.24L286.01,218.23L286.78,223.87L287.55,225.49L288.32,225.69L289.1,227.75L289.87,229.42L290.64,230.07L291.41,230.27L292.18,232.56L292.95,234.33L293.72,240.57L294.49,246.81L295.26,248.88L296.03,250.39L296.8,251.38L297.58,252.06L298.35,252.86L299.12,252.86L299.89,253.35L300.66,253.39L301.43,253.39L302.2,253.39L302.97,253.39L303.74,253.46L304.51,254.02L305.28,254.43L306.05,254.72L306.83,255.14L307.6,255.5L308.37,255.53L309.14,255.56L309.91,255.56L310.68,255.61L311.45,255.9L312.22,255.9L312.99,255.9L313.76,255.9L314.53,255.92L315.31,255.96L316.08,255.96L316.85,255.96L317.62,256.01L318.39,256.01L319.16,257.32L319.93,260.17L320.7,260.93L321.47,263.9L322.24,269.81L323.01,275.59L323.78,276.18L324.56,276.2L325.33,276.21L326.1,277.42L326.87,277.42L327.64,277.42L328.41,277.42L329.18,277.42L329.95,277.42L330.72,277.42L331.49,277.42L332.26,277.42L333.03,277.42L333.81,277.42L334.58,277.42L335.35,277.42L336.12,277.43L336.89,277.43L337.66,277.44L338.43,277.44L339.2,277.44L339.97,277.44L340.74,277.44L341.51,277.44L342.29,277.44L343.06,277.45L343.83,277.45L344.6,277.45L345.37,277.45L346.14,277.46L346.91,277.46L347.68,277.46L348.45,277.46L349.22,277.46L349.99,277.46L350.76,277.46L351.54,277.46L352.31,277.47L353.08,277.47L353.85,277.59L354.62,277.59L355.39,277.59L356.16,277.59L356.93,277.59L357.7,277.59L358.47,277.59L359.24,277.59L360.02,277.59L360.79,277.59L361.56,277.59L362.33,277.59L363.1,277.59L363.87,277.59L364.64,277.6L365.41,277.6L366.18,277.6L366.95,277.6L367.72,277.61L368.49,277.61L369.27,277.61L370.04,277.61L370.81,277.61L371.58,277.62L372.35,277.63L373.12,277.63L373.89,277.63L374.66,277.63L375.43,277.63L376.2,277.63L376.97,277.63L377.74,277.63L378.52,277.63L379.29,277.63L380.06,277.63L380.83,277.63L381.6,277.63L382.37,277.63L383.14,277.63L383.91,277.63L384.68,277.67L385.45,277.68L386.22,277.68L387,277.68L387.77,277.68L388.54,277.7L389.31,277.72L390.08,277.72L390.85,277.74L391.62,277.74L392.39,277.74L393.16,277.74L393.93,277.77L394.7,277.77L395.47,277.78L396.25,277.81L397.02,277.81L397.79,277.83L398.56,277.84L399.33,277.85L400.1,277.85L400.87,277.85L401.64,277.87L402.41,277.9L403.18,277.9L403.95,277.92L404.73,277.92L405.5,277.92L406.27,277.92L407.04,277.94L407.81,277.95L408.58,277.97L409.35,278.01L410.12,278.07L410.89,278.09L411.66,278.09L412.43,278.09L413.2,278.11L413.98,278.11L414.75,278.11L415.52,278.11L416.29,278.2L417.06,280.4L417.83,281.12L418.6,281.21L419.37,281.78L420.14,281.95L420.91,282.07L421.68,282.09L422.45,282.26L423.23,282.45L424,284.14L424.77,284.66L425.54,285.18L426.31,286.59L427.08,288.97L427.85,289.25L428.62,289.4L429.39,289.56L430.16,271.57L430.93,271.88L431.71,272.33L432.48,272.56L433.25,273.05L434.02,256.59L434.79,259.69L435.56,260.69L436.33,262.81L437.1,263.11L437.87,263.21L438.64,263.67L439.41,245.92L440.18,247.77L440.96,254.51L441.73,258.25L442.5,258.47L443.27,258.63L444.04,261.69L444.81,281.57L445.58,307.15L446.35,317.53L447.12,318.14L447.89,323.39L448.66,334.26L449.43,349.27L450.21,355.28L450.98,359.19L451.75,376.22L452.52,383.99L453.29,392.49L454.06,402.05L454.83,402.45L455.6,402.47L456.37,402.5L457.14,402.51L457.91,402.56L458.69,402.56L459.46,403.31L460.23,403.55L461,403.55L461.77,403.55L462.54,403.59L463.31,403.59L464.08,403.6L464.85,403.6L465.62,403.6L466.39,403.6L467.16,403.6L467.94,403.6L468.71,403.63L469.48,403.63L470.25,403.63L471.02,403.63L471.79,403.63L472.56,403.63L473.33,403.63L474.1,403.63L474.87,403.63L475.64,403.63L476.42,403.63L477.19,403.63L477.96,403.63L478.73,403.63L479.5,403.66L480.27,403.87L481.04,403.87L481.81,403.87L482.58,404.52L483.35,404.77L484.12,406.28L484.89,406.28L485.67,406.28L486.44,406.28L487.21,406.91L487.98,407.78L488.75,408.08L489.52,408.08L490.29,408.08L491.06,408.08L491.83,409.44L492.6,409.81L493.37,409.9L494.14,409.9L494.92,409.9L495.69,409.9L496.46,409.9L497.23,409.9L498,409.9L498.77,409.9L499.54,409.9L500.31,409.9L501.08,409.9L501.85,409.9L502.62,409.9L503.4,409.9L504.17,409.9L504.94,409.9L505.71,409.9L506.48,409.9L507.25,409.9L508.02,409.9L508.79,409.91L509.56,409.91L510.33,409.91L511.1,409.91L511.87,409.91L512.65,409.91L513.42,410.21L514.19,410.21L514.96,410.21L515.73,410.21L516.5,410.21L517.27,410.21L518.04,410.21L518.81,410.21L519.58,410.21L520.35,410.21L521.13,410.21L521.9,410.21L522.67,410.21L523.44,410.21L524.21,410.21L524.98,410.21L525.75,410.21L526.52,410.21L527.29,410.21L528.06,410.21L528.83,410.21L529.6,410.21L530.38,410.21L531.15,410.21L531.92,410.21L532.69,410.21L533.46,410.21L534.23,410.21L535,410.21L535.77,410.21L536.54,410.21L537.31,410.21L538.08,410.21L538.85,410.21L539.63,410.21L540.4,410.22L541.17,410.22L541.94,410.22L542.71,410.22L543.48,410.22L544.25,410.22L545.02,410.22L545.79,410.22L546.56,410.22L547.33,410.22L548.11,410.22L548.88,410.22L549.65,410.22L550.42,410.22L551.19,410.22L551.96,410.22L552.73,410.22L553.5,410.22L554.27,410.22L555.04,410.22L555.81,410.22L556.58,410.22L557.36,410.22L558.13,410.22L558.9,410.23L559.67,410.27L560.44,410.28L561.21,410.28L561.98,410.28L562.75,410.29L563.52,410.29L564.29,410.32L565.06,410.37L565.84,410.68L566.61,410.68L567.38,410.68L568.15,417.32L568.92,424.74L569.69,432.17L570.46,438.61L571.23,438.9L572,439.13L572.77,439.13L573.54,439.15L574.31,439.17L575.09,439.19L575.86,439.19L576.63,439.19L577.4,439.19L578.17,439.19L578.94,439.19L579.71,439.19L580.48,439.19L581.25,439.19L582.02,439.19L582.79,440.56L583.56,442.48L584.34,442.92L585.11,442.94L585.88,443.86L586.65,444.97L587.42,445.07L588.19,445.09L588.96,445.09L589.73,445.09L590.5,445.09L591.27,445.09L592.04,445.09L592.82,445.09L593.59,445.09L594.36,445.09L595.13,445.1L595.9,445.1L596.67,445.1L597.44,445.1L598.21,445.53L598.98,446.07L599.75,446.07L600.52,446.08L601.29,446.08L602.07,446.08L602.84,446.08L603.61,446.08L604.38,446.08L605.15,446.08L605.92,446.08L606.69,446.08L607.46,446.19L608.23,446.19L609,446.21L609.77,446.21L610.55,446.21L611.32,446.21L612.09,446.21L612.86,446.22L613.63,446.23L614.4,446.24L615.17,446.28L615.94,446.33L616.71,446.42L617.48,446.48L618.25,446.53L619.02,446.66L619.8,446.7L620.57,446.7L621.34,451.53L622.11,458.18L622.88,459.8L623.65,460.3L624.42,467.48L625.19,472.85L625.96,477.79L626.73,478.32L627.5,478.37L628.27,478.37L629.05,478.37L629.82,478.38L630.59,478.38L631.36,478.38L632.13,478.38L632.9,478.38L633.67,478.38L634.44,478.38L635.21,478.38L635.98,478.38L636.75,478.38L637.53,478.39L638.3,478.39L639.07,478.39L639.84,478.39L640.61,478.39L641.38,478.39L642.15,478.39L642.92,478.39L643.69,478.39L644.46,478.43L645.23,478.43L646,478.43L646.78,478.43L647.55,478.43L648.32,478.43L649.09,478.43L649.86,478.43L650.63,478.43L651.4,478.43L652.17,478.43L652.94,478.43L653.71,478.44L654.48,478.44L655.26,478.44L656.03,478.44L656.8,478.44L657.57,478.44L658.34,478.44L659.11,478.44L659.88,478.44L660.65,478.44L661.42,478.44L662.19,478.44L662.96,478.44L663.73,478.44L664.51,478.44L665.28,478.44L666.05,478.44L666.82,478.44L667.59,478.44L668.36,478.44L669.13,478.44L669.9,478.44L670.67,478.44L671.44,478.44L672.21,478.47L672.98,478.47L673.76,478.47L674.53,478.47L675.3,478.47L676.07,478.47L676.84,478.47L677.61,478.47L678.38,478.47L679.15,478.47L679.92,478.47L680.69,478.47L681.46,478.47L682.24,478.47L683.01,478.47L683.78,478.47L684.55,478.47L685.32,478.47L686.09,478.47L686.86,478.47L687.63,478.47L688.4,478.47L689.17,478.47L689.94,478.47L690.71,478.47L691.49,478.47L692.26,478.47L693.03,478.47L693.8,478.47L694.57,478.47L695.34,478.47L696.11,478.47L696.88,478.47L697.65,478.47L698.42,478.47L699.19,478.47L699.97,478.47L700.74,478.47L701.51,478.47L702.28,478.47L703.05,478.47L703.82,478.47L704.59,478.47L705.36,478.47L706.13,478.47L706.9,478.47L707.67,478.47L708.44,478.47L709.22,478.47L709.99,478.47L710.76,478.47L711.53,478.47L712.3,478.47L713.07,478.47L713.84,478.47L714.61,478.47L715.38,478.47L716.15,478.52L716.92,478.52L717.69,478.52L718.47,478.52L719.24,478.52L720.01,478.52L720.78,478.52L721.55,478.57L722.32,478.59L723.09,478.6L723.86,478.6L724.63,480.78L725.4,487.83L726.17,494.35L726.95,501.08L727.72,504L728.49,504.12L729.26,504.12L730.03,504.15L730.8,504.16L731.57,504.17L732.34,504.18L733.11,504.18L733.88,504.18L734.65,504.18L735.42,504.18L736.2,504.18L736.97,504.18L737.74,504.18L738.51,504.18L739.28,504.18L740.05,504.2L740.82,504.24L741.59,504.31L742.36,504.31L743.13,504.34L743.9,504.44L744.68,504.36L745.45,504.36L746.22,504.39L746.99,504.56L747.76,504.61L748.53,504.66L749.3,504.66L750.07,504.67L750.84,504.67L751.61,504.67L752.38,504.67L753.15,504.67L753.93,504.67L754.7,505.67L755.47,513.34L756.24,521.91L757.01,525.72L757.78,526.32L758.55,526.33L759.32,526.34L760.09,526.37L760.86,530.1L761.63,537.37L762.4,547.04L763.18,549.85L763.95,550.23L764.72,550.23L765.49,550.23L766.26,550.23L767.03,550.25L767.8,550.26L768.57,550.27L769.34,550.28L770.11,551.99L770.88,553.26L771.66,553.26L772.43,553.26L773.2,553.26L773.97,553.26L774.74,553.26L775.51,553.26L776.28,553.26L777.05,553.26L777.82,553.26L778.59,553.36L779.36,554.45L780.13,555.45L780.91,556.51L781.68,557.44L782.45,558.23L783.22,559.21L783.99,560.22L784.76,561.26L785.53,562.31L786.3,563.3L787.07,564.24L787.84,564.78L788.61,564.79L789.39,564.79L790.16,564.79L790.93,564.79L791.7,564.79L792.47,564.79L793.24,564.79L794.01,564.82L794.78,564.86L795.55,564.91L796.32,564.95L797.09,565.02L797.86,565.16L798.64,565.23L799.41,565.27L800.18,565.28L800.95,565.29L801.72,565.29L802.49,565.38L803.26,570.48L804.03,576.68L804.8,582.14L805.57,587.98L806.34,590.21L807.11,590.21L807.89,590.21L808.66,590.23L809.43,590.24L810.2,590.27L810.97,590.28L811.74,590.28L812.51,590.28L813.28,590.28L814.05,590.28L814.82,590.28L815.59,590.28L816.37,590.28L817.14,590.29L817.91,590.29L818.68,590.29L819.45,590.29L820.22,590.29L820.99,590.29L821.76,590.29L822.53,590.29L823.3,590.29L824.07,590.29L824.84,590.29L825.62,590.29L826.39,590.3L827.16,590.3L827.93,590.3L828.7,590.3L829.47,590.3L830.24,590.3L831.01,590.3L831.78,590.3L832.55,590.3L833.32,590.3L834.1,590.3L834.87,590.3L835.64,590.3L836.41,590.3L837.18,590.3L837.95,590.3L838.72,590.3L839.49,590.3L840.26,590.3L841.03,590.3L841.8,590.3L842.57,590.3L843.35,590.3L844.12,590.3L844.89,590.3L845.66,590.3L846.43,590.3L847.2,590.3L847.97,590.31L848.74,590.31L849.51,590.31L850.28,590.31L851.05,590.31L851.82,590.31L852.6,590.31L853.37,590.31L854.14,591.94L854.91,591.94L855.68,591.94L856.45,591.94L857.22,591.94L857.99,591.94L858.76,591.95L859.53,591.95L860.3,591.95L861.08,591.95L861.85,591.95L862.62,591.95L863.39,591.95L864.16,591.95L864.93,591.95L865.7,591.95L866.47,591.95L867.24,591.95L868.01,591.97L868.78,592.12L869.55,592.15L870.33,592.16L871.1,592.1L871.87,592.1L872.64,592.1L873.41,592.1L874.18,592.1L874.95,592.1L875.72,592.1L876.49,592.1L877.26,592.1L878.03,592.1L878.81,592.1L879.58,592.42L880.35,592.42L881.12,592.42L881.89,592.42L882.66,592.43L883.43,592.45L884.2,592.48L884.97,592.49L885.74,592.49L886.51,592.49L887.28,592.49L888.06,592.49L888.83,592.49L889.6,592.49L890.37,592.49L891.14,592.49L891.91,592.53L892.68,592.6L893.45,592.65L894.22,592.7L894.99,592.76L895.76,592.77L896.53,592.77L897.31,592.77L898.08,592.77L898.85,592.77L899.62,592.77L900.39,592.77L901.16,592.77L901.93,592.77L902.7,596.62L903.47,602L904.24,602.47L905.01,602.47L905.79,602.49L906.56,602.49L907.33,606.96L908.1,613.99L908.87,620.9L909.64,627.82L910.41,632.86L911.18,633.23L911.95,633.27L912.72,633.27L913.49,633.28L914.26,633.3L915.04,633.3L915.81,633.3L916.58,633.31L917.35,633.32L918.12,635.85L918.89,639.18L919.66,639.89L920.43,639.89L921.2,639.89L921.97,639.89L922.74,639.89L923.52,639.89L924.29,639.89L925.06,639.89L925.83,641.01L926.6,641.61L927.37,643.47L928.14,644.86L928.91,644.86L929.68,644.86L930.45,644.86L931.22,644.86L931.99,644.86L932.77,644.86L933.54,646.44L934.31,646.58L935.08,646.58L935.85,646.58L936.62,646.61L937.39,646.84L938.16,646.84L938.93,646.84L939.7,646.84L940.47,646.84L941.24,646.84L942.02,646.84L942.79,646.84L943.56,646.84L944.33,646.86L945.1,646.86L945.87,646.86L946.64,646.86L947.41,646.86L948.18,646.86L948.95,646.86L949.72,646.86L950.5,646.86L951.27,646.86L952.04,646.86L952.81,646.86L953.58,646.86L954.35,646.86L955.12,647.89L955.89,647.94L956.66,648.56L957.43,648.56L958.2,648.56L958.97,648.56L959.75,648.56L960.52,648.56L961.29,648.56L962.06,648.56L962.83,648.56L963.6,648.56L964.37,648.56L965.14,648.56L965.91,648.57L966.68,648.57L967.45,648.57L968.23,648.57L969,648.57L969.77,648.57L970.54,648.57L971.31,648.57L972.08,648.57L972.85,648.57L973.62,648.99L974.39,648.99L975.16,648.99L975.93,648.99L976.7,648.99L977.48,648.99L978.25,648.99L979.02,648.99L979.79,648.99L980.56,648.99L981.33,648.99L982.1,648.99L982.87,648.99L983.64,648.99L984.41,648.99L985.18,648.99L985.95,648.99L986.73,648.99L987.5,648.99L988.27,648.99L989.04,648.99L989.81,648.99L990.58,648.99L991.35,648.99L992.12,648.99L992.89,648.99L993.66,649L994.43,649.04L995.21,649.08L995.98,649.15L996.75,649.15L997.52,649.15L998.29,649.15L999.06,649.15L999.83,649.15L1000.6,649.15L1001.4,651.79L1002.1,658.43L1002.9,664.86L1003.7,670.59L1004.5,671.71L1005.2,671.71L1006,671.71L1006.8,671.71L1007.5,671.71L1008.3,671.71L1009.1,671.71L1009.9,671.71L1010.6,671.71L1011.4,671.71L1012.2,671.74L1012.9,671.74L1013.7,671.74L1014.5,671.74L1015.2,671.74L1016,671.74L1016.8,671.74L1017.6,671.74L1018.3,671.74L1019.1,671.75L1019.9,671.75L1020.6,671.75L1021.4,671.75L1022.2,671.75L1023,671.75L1023.7,671.75L1024.5,671.76L1025.3,671.76L1026,671.76L1026.8,671.76L1027.6,671.76L1028.4,672.88L1029.1,672.97L1029.9,672.97L1030.7,672.97L1031.4,672.97L1032.2,673L1033,673.06L1033.7,673.09L1034.5,673.11L1035.3,673.11L1036.1,673.11L1036.8,673.11L1037.6,673.11L1038.4,673.11L1039.1,673.11L1039.9,673.11L1040.7,673.14L1041.5,673.2L1042.2,673.26L1043,673.26L1043.8,673.26L1044.5,673.26L1045.3,673.26L1046.1,673.26L1046.9,673.26L1047.6,673.26L1048.4,673.26L1049.2,673.56L1049.9,677.65L1050.7,684.24L1051.5,688.91L1052.2,689.44L1053,689.44L1053.8,689.44L1054.6,689.45L1055.3,689.45L1056.1,689.45L1056.9,689.45L1057.6,689.46L1058.4,693.95L1059.2,694.88L1060,694.94L1060.7,694.94L1061.5,694.94L1062.3,694.94L1063,694.94L1063.8,694.96L1064.6,694.96L1065.4,694.96L1066.1,694.96L1066.9,696.6L1067.7,696.88L1068.4,696.88L1069.2,696.88L1070,696.88L1070.7,696.88L1071.5,696.88L1072.3,696.88L1073.1,696.88L1073.8,696.88L1074.6,698.56L1075.4,699.38L1076.1,701.12L1076.9,701.33L1077.7,701.44L1078.5,701.44L1079.2,701.44L1080,701.44" style="fill:none;stroke:#5A9BD4;stroke-width:1.875;stroke-dasharray:2.5,2.5" />
<path d="M1055,694.3L1080,694.3" style="fill:none;stroke:#F15A60;stroke-width:1.875" />
<text x="1002.5" y="-687.85" transform="scale(1, -1)"
	style="font-family:Helvetica;font-weight:normal;font-style:normal;font-size:12pt">etcd v3</text>
<path d="M1055,680L1080,680" style="fill:none;stroke:#7AC36A;stroke-width:1.875;stroke-dasharray:7.5,2.5" />
<text x="941.6" y="-673.56" transform="scale(1, -1)"
	style="font-family:Helvetica;font-weight:normal;font-style:normal;font-size:12pt">Zookeeper 3.4.8</text>
<path d="M1055,665.71L1080,665.71" style="fill:none;stroke:#5A9BD4;stroke-width:1.875;stroke-dasharray:2.5,2.5" />
<text x="966.62" y="-659.26" transform="scale(1, -1)"
	style="font-family:Helvetica;font-weight:normal;font-style:normal;font-size:12pt">Consul 0.6.4</text>
</g>
</svg>
