<?xml version="1.0"?>
<!-- Generated by SVGo and Plotinum VG -->
<svg width="12in" height="8in"
	xmlns="http://www.w3.org/2000/svg"
	xmlns:xlink="http://www.w3.org/1999/xlink">
<g transform="scale(1, -1) translate(0, -720)">
<path d="M0,0L1080,0L1080,720L0,720Z" style="fill:#FFFFFF" />
<text x="299.06" y="-706.41" transform="scale(1, -1)"
	style="font-family:Helvetica;font-weight:normal;font-style:normal;font-size:12pt">Read single key 1M times, 1 client, key 64 bytes, value 1 kb, Throughput</text>
<text x="548.11" y="-4.965" transform="scale(1, -1)"
	style="font-family:Helvetica;font-weight:normal;font-style:normal;font-size:12pt">Second</text>
<text x="63.613" y="-19.142" transform="scale(1, -1)"
	style="font-family:Helvetica;font-weight:normal;font-style:normal;font-size:10pt">0</text>
<text x="294.99" y="-19.142" transform="scale(1, -1)"
	style="font-family:Helvetica;font-weight:normal;font-style:normal;font-size:10pt">100</text>
<text x="533.33" y="-19.142" transform="scale(1, -1)"
	style="font-family:Helvetica;font-weight:normal;font-style:normal;font-size:10pt">200</text>
<text x="771.66" y="-19.142" transform="scale(1, -1)"
	style="font-family:Helvetica;font-weight:normal;font-style:normal;font-size:10pt">300</text>
<text x="1010" y="-19.142" transform="scale(1, -1)"
	style="font-family:Helvetica;font-weight:normal;font-style:normal;font-size:10pt">400</text>
<path d="M67.088,30.467L67.088,40.467" style="fill:none;stroke:#000000;stroke-width:0.625" />
<path d="M305.42,30.467L305.42,40.467" style="fill:none;stroke:#000000;stroke-width:0.625" />
<path d="M543.75,30.467L543.75,40.467" style="fill:none;stroke:#000000;stroke-width:0.625" />
<path d="M782.08,30.467L782.08,40.467" style="fill:none;stroke:#000000;stroke-width:0.625" />
<path d="M1020.4,30.467L1020.4,40.467" style="fill:none;stroke:#000000;stroke-width:0.625" />
<path d="M186.25,35.468L186.25,40.467" style="fill:none;stroke:#000000;stroke-width:0.625" />
<path d="M424.59,35.468L424.59,40.467" style="fill:none;stroke:#000000;stroke-width:0.625" />
<path d="M662.92,35.468L662.92,40.467" style="fill:none;stroke:#000000;stroke-width:0.625" />
<path d="M901.25,35.468L901.25,40.467" style="fill:none;stroke:#000000;stroke-width:0.625" />
<path d="M67.088,40.467L1080,40.467" style="fill:none;stroke:#000000;stroke-width:0.625" />
<g transform="rotate(90)">
<text x="335.88" y="13.59" transform="scale(1, -1)"
	style="font-family:Helvetica;font-weight:normal;font-style:normal;font-size:12pt">Throughput</text>
</g>
<text x="18.555" y="-159.73" transform="scale(1, -1)"
	style="font-family:Helvetica;font-weight:normal;font-style:normal;font-size:10pt">2400</text>
<text x="18.555" y="-328.39" transform="scale(1, -1)"
	style="font-family:Helvetica;font-weight:normal;font-style:normal;font-size:10pt">3000</text>
<text x="18.555" y="-497.05" transform="scale(1, -1)"
	style="font-family:Helvetica;font-weight:normal;font-style:normal;font-size:10pt">3600</text>
<text x="18.555" y="-665.72" transform="scale(1, -1)"
	style="font-family:Helvetica;font-weight:normal;font-style:normal;font-size:10pt">4200</text>
<path d="M49.83,165.09L59.83,165.09" style="fill:none;stroke:#000000;stroke-width:0.625" />
<path d="M49.83,333.76L59.83,333.76" style="fill:none;stroke:#000000;stroke-width:0.625" />
<path d="M49.83,502.42L59.83,502.42" style="fill:none;stroke:#000000;stroke-width:0.625" />
<path d="M49.83,671.09L59.83,671.09" style="fill:none;stroke:#000000;stroke-width:0.625" />
<path d="M54.83,52.652L59.83,52.652" style="fill:none;stroke:#000000;stroke-width:0.625" />
<path d="M54.83,108.87L59.83,108.87" style="fill:none;stroke:#000000;stroke-width:0.625" />
<path d="M54.83,221.32L59.83,221.32" style="fill:none;stroke:#000000;stroke-width:0.625" />
<path d="M54.83,277.54L59.83,277.54" style="fill:none;stroke:#000000;stroke-width:0.625" />
<path d="M54.83,389.98L59.83,389.98" style="fill:none;stroke:#000000;stroke-width:0.625" />
<path d="M54.83,446.2L59.83,446.2" style="fill:none;stroke:#000000;stroke-width:0.625" />
<path d="M54.83,558.64L59.83,558.64" style="fill:none;stroke:#000000;stroke-width:0.625" />
<path d="M54.83,614.86L59.83,614.86" style="fill:none;stroke:#000000;stroke-width:0.625" />
<path d="M59.83,47.03L59.83,701.44" style="fill:none;stroke:#000000;stroke-width:0.625" />
<path d="M67.088,219.35L69.471,272.76L71.854,266.57L74.237,282.03L76.621,264.33L79.004,286.53L81.387,272.76L83.771,280.35L86.154,258.42L88.537,272.2L90.921,274.16L93.304,259.27L95.687,273.32L98.071,264.89L100.45,237.06L102.84,159.19L105.22,185.62L107.6,188.43L109.99,258.98L112.37,268.26L114.75,273.04L117.14,295.25L119.52,286.81L121.9,263.2L124.29,293.56L126.67,262.36L129.05,266.85L131.44,282.88L133.82,251.68L136.2,266.57L138.59,242.12L140.97,216.54L143.35,147.38L145.74,152.73L148.12,153.57L150.5,177.74L152.89,167.62L155.27,199.39L157.65,180.27L160.04,170.44L162.42,191.8L164.8,203.04L167.19,269.67L169.57,271.63L171.95,250.55L174.34,277.54L176.72,275.29L179.1,274.73L181.49,269.1L183.87,272.2L186.25,275.57L188.64,287.38L191.02,294.4L193.4,289.62L195.79,258.98L198.17,278.1L200.55,292.44L202.94,295.81L205.32,276.41L207.7,295.53L210.09,241.84L212.47,258.14L214.85,273.04L217.24,272.48L219.62,251.96L222,188.99L224.39,225.53L226.77,287.38L229.15,289.91L231.54,269.67L233.92,284L236.3,288.78L238.69,286.25L241.07,239.31L243.45,261.23L245.84,262.64L248.22,260.11L250.6,270.51L252.99,281.19L255.37,269.67L257.75,272.48L260.14,261.51L262.52,229.47L264.9,205.29L267.29,190.11L269.67,280.35L272.05,273.32L274.44,228.34L276.82,278.94L279.2,269.1L281.59,248.3L283.97,220.47L286.35,158.07L288.74,156.66L291.12,164.25L293.5,159.47L295.89,136.7L298.27,157.5L300.65,174.37L303.04,199.67L305.42,207.26L307.8,190.11L310.19,285.41L312.57,272.2L314.95,253.64L317.34,241.84L319.72,263.2L322.1,271.63L324.49,281.75L326.87,269.95L329.25,273.04L331.64,271.35L334.02,281.19L336.4,262.08L338.79,291.87L341.17,259.27L343.55,256.45L345.94,275.29L348.32,273.88L350.7,257.02L353.09,269.38L355.47,281.47L357.85,272.48L360.24,296.37L362.62,285.97L365,290.75L367.39,291.87L369.77,301.71L372.15,277.54L374.54,276.41L376.92,316.61L379.3,303.12L381.69,309.02L384.07,312.96L386.45,312.39L388.84,320.55L391.22,302.56L393.6,281.75L395.99,291.59L398.37,304.52L400.75,302.27L403.14,293.84L405.52,289.62L407.9,294.12L410.29,283.44L412.67,285.41L415.05,294.97L417.44,285.41L419.82,293.56L422.2,279.5L424.59,261.51L426.97,229.47L429.35,160.32L431.74,156.38L434.12,163.13L436.5,144.29L438.89,155.54L441.27,155.82L443.65,156.94L446.04,183.09L448.42,209.51L450.8,198.83L453.19,254.21L455.57,259.55L457.95,258.7L460.34,250.83L462.72,248.3L465.1,287.38L467.49,257.58L469.87,248.02L472.25,270.79L474.64,278.66L477.02,269.1L479.4,293L481.79,291.03L484.17,269.95L486.55,232.84L488.94,261.8L491.32,260.39L493.7,269.67L496.09,260.67L498.47,246.05L500.85,255.89L503.24,269.95L505.62,283.44L508,284L510.39,287.38L512.77,261.8L515.15,279.79L517.54,245.49L519.92,264.61L522.3,251.96L524.69,262.64L527.07,264.04L529.45,258.42L531.84,278.94L534.22,307.62L536.6,265.45L538.99,274.16L541.37,291.03L543.75,263.76L546.14,270.23L548.52,266.29L550.9,268.82L553.29,267.42L555.67,265.45L558.05,265.73L560.44,274.44L562.82,272.2L565.2,281.75L567.59,248.58L569.97,221.88L572.35,178.59L574.74,164.53L577.12,165.94L579.5,157.5L581.89,163.69L584.27,190.96L586.65,157.79L589.04,169.31L591.42,176.9L593.8,198.55L596.19,263.76L598.57,277.82L600.95,304.52L603.34,278.66L605.72,285.69L608.1,300.59L610.49,287.94L612.87,261.51L615.25,269.67L617.64,263.48L620.02,261.51L622.4,257.02L624.79,229.19L627.17,258.14L629.55,251.11L631.94,260.11L634.32,264.89L636.7,272.2L639.09,273.88L641.47,263.76L643.85,269.1L646.24,288.5L648.62,264.61L651,262.92L653.39,254.77L655.77,271.91L658.15,291.03L660.54,243.24L662.92,273.6L665.3,259.27L667.69,262.64L670.07,267.98L672.45,226.94L674.83,287.94L677.22,273.6L679.6,245.77L681.98,280.91L684.37,248.3L686.75,269.1L689.13,269.67L691.52,274.73L693.9,286.53L696.28,292.44L698.67,285.41L701.05,253.64L703.43,291.87L705.82,267.42L708.2,264.04L710.58,262.08L712.97,226.94L715.35,155.26L717.73,167.34L720.12,147.95L722.5,165.09L724.88,157.79L727.27,137.27L729.65,166.5L732.03,166.5L734.42,205.57L736.8,216.54L739.18,269.67L741.57,294.4L743.95,291.59L746.33,279.5L748.72,287.66L751.1,289.91L753.48,288.22L755.87,281.47L758.25,274.73L760.63,291.87L763.02,261.8L765.4,296.37L767.78,242.68L770.17,281.47L772.55,285.41L774.93,264.61L777.32,249.71L779.7,254.77L782.08,287.94L784.47,284.28L786.85,288.78L789.23,292.72L791.62,266.85L794,287.38L796.38,281.47L798.77,288.22L801.15,309.86L803.53,312.68L805.92,312.96L808.3,298.06L810.68,290.47L813.07,302.27L815.45,289.62L817.83,276.13L820.22,307.33L822.6,277.82L824.98,287.09L827.37,260.11L829.75,265.45L832.13,269.1L834.52,257.58L836.9,260.67L839.28,257.3L841.67,238.74L844.05,280.35L846.43,271.07L848.82,277.26L851.2,268.26L853.58,221.88L855.97,215.97L858.35,153.57L860.73,130.24L863.12,156.66L865.5,160.88L867.88,180.84L870.27,190.11L872.65,164.53L875.03,175.5L877.42,224.97L879.8,208.67L882.18,257.02L884.57,297.5L886.95,270.23L889.33,305.37L891.72,282.03L894.1,289.91L896.48,286.53L898.87,271.91L901.25,260.67L903.63,268.82L906.02,258.7L908.4,272.76L910.78,281.75L913.17,276.97L915.55,266.57L917.93,273.04L920.32,258.14L922.7,270.79L925.08,250.27L927.47,248.58L929.85,265.73L932.23,289.91L934.62,255.05L937,287.09L939.38,262.08L941.77,260.39" style="fill:none;stroke:#F15A60;stroke-width:1.875" />
<path d="M67.088,236.5L69.471,470.38L71.854,486.68L74.237,633.7L76.621,562.86L79.004,592.66L81.387,486.12L83.771,537.56L86.154,510.29L88.537,569.33L90.921,491.18L93.304,531.09L95.687,491.74L98.071,530.53L100.45,574.1L102.84,423.43L105.22,531.94L107.6,565.11L109.99,547.4L112.37,619.92L114.75,595.75L117.14,561.45L119.52,465.88L121.9,417.81L124.29,470.66L126.67,502.98L129.05,425.68L131.44,426.8L133.82,470.66L136.2,460.82L138.59,447.33L140.97,392.23L143.35,539.25L145.74,550.21L148.12,556.11L150.5,581.69L152.89,567.64L155.27,557.24L157.65,606.43L160.04,581.13L162.42,526.88L164.8,522.38L167.19,509.73L169.57,589.56L171.95,578.6L174.34,545.43L176.72,616.83L179.1,612.9L181.49,658.72L183.87,685.7L186.25,596.03L188.64,671.93L191.02,689.64L193.4,701.44L195.79,677.83L198.17,574.67L200.55,676.43L202.94,633.7L205.32,612.9L207.7,617.96L210.09,635.67L212.47,633.7L214.85,660.68L217.24,613.74L219.62,581.69L222,589.85L224.39,550.21L226.77,469.53L229.15,476.84L231.54,503.55L233.92,526.88L236.3,501.02L238.69,459.13L241.07,466.44L243.45,513.67L245.84,463.07L248.22,607.27L250.6,563.42L252.99,580.29L255.37,614.02L257.75,619.08L260.14,549.37L262.52,467.85L264.9,443.39L267.29,474.59L269.67,468.41L272.05,469.81L274.44,354.56L276.82,487.52L279.2,472.06L281.59,477.97L283.97,437.77L286.35,654.22L288.74,605.31L291.12,608.68L293.5,626.39L295.89,608.68L298.27,593.78L300.65,594.91L303.04,608.4L305.42,613.18L307.8,606.71L310.19,644.38L312.57,606.43L314.95,657.31L317.34,618.24L319.72,676.71L322.1,630.33L324.49,645.79L326.87,655.62L329.25,628.36L331.64,653.66L334.02,604.18L336.4,623.3L338.79,548.8L341.17,551.9L343.55,638.76L345.94,620.77L348.32,641.85L350.7,617.96L353.09,580.85L355.47,558.36L357.85,583.38L360.24,614.86L362.62,572.98L365,599.97L367.39,504.39L369.77,501.86L372.15,499.89L374.54,488.09L376.92,501.3L379.3,495.96L381.69,465.88L384.07,433.55L386.45,473.19L388.84,463.35L391.22,551.9L393.6,594.06L395.99,607.84L398.37,676.43L400.75,605.03L403.14,599.68L405.52,505.8L407.9,485.56L410.29,452.95L412.67,473.75L415.05,477.97L417.44,493.43L419.82,534.19L422.2,516.48L424.59,489.77L426.97,492.02L429.35,618.24L431.74,583.94L434.12,583.1L436.5,594.91L438.89,558.92L441.27,554.99L443.65,523.79L446.04,570.73L448.42,547.4L450.8,607.84L453.19,610.37L455.57,645.5L457.95,649.16L460.34,624.98L462.72,643.26L465.1,584.5L467.49,577.2L469.87,586.75L472.25,584.22L474.64,634.82L477.02,638.2L479.4,594.91L481.79,646.35L484.17,621.89L486.55,571.57L488.94,594.62L491.32,649.72L493.7,627.51L496.09,622.17L498.47,521.26L500.85,588.72L503.24,538.97L505.62,624.14L508,624.98L510.39,490.9L512.77,510.57L515.15,515.35L517.54,542.34L519.92,479.93L522.3,491.74L524.69,529.69L527.07,537.28L529.45,513.1L531.84,499.05L534.22,601.37L536.6,566.51L538.99,645.22L541.37,651.97L543.75,574.67L546.14,652.81L548.52,529.69L550.9,562.86L553.29,545.71L555.67,478.81L558.05,501.86L560.44,492.02L562.82,492.3L565.2,540.37L567.59,492.02L569.97,505.23L572.35,651.69L574.74,556.68L577.12,575.23L579.5,559.77L581.89,589L584.27,566.8L586.65,592.38L589.04,637.35L591.42,637.07L593.8,636.79L596.19,644.66L598.57,581.97L600.95,571.29L603.34,562.58L605.72,484.15L608.1,579.44L610.49,553.58L612.87,598.84L615.25,632.57L617.64,633.7L620.02,568.76L622.4,579.73L624.79,621.33L627.17,612.33L629.55,611.21L631.94,606.43L634.32,621.33L636.7,646.35L639.09,492.02L641.47,601.09L643.85,622.17L646.24,603.06L648.62,598L651,569.61L653.39,506.92L655.77,505.8L658.15,494.55L660.54,477.12L662.92,529.97L665.3,552.18L667.69,494.27L670.07,443.67L672.45,484.15L674.83,542.34L677.22,605.59L679.6,667.71L681.98,606.71L684.37,569.61L686.75,633.14L689.13,654.78" style="fill:none;stroke:#7AC36A;stroke-width:1.875;stroke-dasharray:7.5,2.5" />
<path d="M67.088,47.03L69.471,146.26L71.854,158.35L74.237,171.56L76.621,170.72L79.004,174.37L81.387,175.5L83.771,164.53L86.154,153.29L88.537,138.67L90.921,122.65L93.304,140.36L95.687,148.79L98.071,139.23L100.45,157.79L102.84,158.63L105.22,160.03L107.6,147.95L109.99,131.92L112.37,139.8L114.75,132.21L117.14,147.67L119.52,155.26L121.9,180.84L124.29,163.97L126.67,152.73L129.05,175.5L131.44,172.68L133.82,155.54L136.2,160.6L138.59,145.7L140.97,147.1L143.35,157.22L145.74,154.41L148.12,143.45L150.5,136.98L152.89,158.63L155.27,144.01L157.65,151.32L160.04,113.37L162.42,105.78L164.8,88.353L167.19,73.454L169.57,72.33L171.95,67.832L174.34,95.38L176.72,88.071L179.1,94.256L181.49,111.12L183.87,136.98L186.25,175.78L188.64,178.31L191.02,160.03L193.4,173.53L195.79,169.87L198.17,168.75L200.55,185.33L202.94,189.55L205.32,189.27L207.7,163.13L210.09,184.21L212.47,190.39L214.85,174.09L217.24,180.27L219.62,177.46L222,162L224.39,167.06L226.77,179.71L229.15,164.53L231.54,171.84L233.92,152.16L236.3,136.98L238.69,172.4L241.07,172.68L243.45,165.94L245.84,180.56L248.22,135.02L250.6,146.54L252.99,192.36L255.37,185.62L257.75,174.09L260.14,156.94L262.52,136.7L264.9,172.97L267.29,172.68L269.67,158.91L272.05,153.01L274.44,184.77L276.82,180.27L279.2,170.15L281.59,160.32L283.97,150.2L286.35,153.57L288.74,171.56L291.12,178.03L293.5,159.19L295.89,161.16L298.27,146.82L300.65,147.95L303.04,109.72L305.42,88.071L307.8,109.72L310.19,95.661L312.57,81.887L314.95,94.818L317.34,113.37L319.72,113.93L322.1,130.52L324.49,103.25L326.87,161.16L329.25,155.26L331.64,154.13L334.02,152.16L336.4,142.89L338.79,151.32L341.17,154.13L343.55,138.11L345.94,151.04L348.32,154.41L350.7,153.57L353.09,168.75L355.47,166.22L357.85,164.53L360.24,160.6L362.62,170.15L365,191.24L367.39,171.28L369.77,169.59L372.15,190.11L374.54,184.49L376.92,188.71L379.3,199.11L381.69,182.8L384.07,163.41L386.45,127.15L388.84,162.56L391.22,193.49L393.6,168.47L395.99,152.73L398.37,145.14L400.75,171.56L403.14,158.07L405.52,174.93L407.9,159.75L410.29,163.69L412.67,166.5L415.05,176.62L417.44,173.81L419.82,147.67L422.2,167.34L424.59,153.29L426.97,153.85L429.35,169.87L431.74,182.8L434.12,162.56L436.5,142.89L438.89,120.4L441.27,136.42L443.65,131.08L446.04,102.41L448.42,71.486L450.8,90.601L453.19,102.69L455.57,73.173L457.95,95.38L460.34,118.15L462.72,124.33L465.1,121.24L467.49,116.74L469.87,152.73L472.25,162.28L474.64,147.1L477.02,162.28L479.4,170.72L481.79,170.15L484.17,177.74L486.55,182.24L488.94,152.73L491.32,146.54L493.7,163.69L496.09,166.22L498.47,166.22L500.85,171.84L503.24,171.56L505.62,163.13L508,162.28L510.39,124.05L512.77,141.76L515.15,137.27L517.54,160.6L519.92,155.82L522.3,158.63L524.69,145.14L527.07,141.2L529.45,148.51L531.84,147.1L534.22,123.21L536.6,154.69L538.99,151.32L541.37,140.08L543.75,144.57L546.14,164.53L548.52,127.99L550.9,129.96L553.29,153.57L555.67,138.95L558.05,165.09L560.44,191.24L562.82,199.67L565.2,191.52L567.59,178.03L569.97,175.78L572.35,184.21L574.74,178.59L577.12,184.49L579.5,164.53L581.89,124.33L584.27,138.39L586.65,156.38L589.04,116.18L591.42,92.85L593.8,104.38L596.19,93.131L598.57,89.758L600.95,110.84L603.34,117.31L605.72,120.12L608.1,91.726L610.49,91.726L612.87,147.95L615.25,180.84L617.64,178.87L620.02,133.61L622.4,153.29L624.79,181.96L627.17,175.21L629.55,156.1L631.94,165.38L634.32,165.66L636.7,166.5L639.09,149.63L641.47,165.38L643.85,168.47L646.24,174.37L648.62,180.56L651,157.22L653.39,170.15L655.77,123.21L658.15,144.29L660.54,144.85L662.92,169.31L665.3,153.85L667.69,166.5L670.07,177.18L672.45,173.25L674.83,169.31L677.22,181.96L679.6,159.47L681.98,160.6L684.37,161.44L686.75,146.54L689.13,165.94L691.52,157.5L693.9,177.46L696.28,169.59L698.67,131.64L701.05,161.72L703.43,140.64L705.82,151.88L708.2,142.61L710.58,149.91L712.97,146.82L715.35,157.5L717.73,156.94L720.12,142.61L722.5,133.33L724.88,152.44L727.27,150.2L729.65,119.27L732.03,117.59L734.42,84.698L736.8,74.016L739.18,83.574L741.57,108.03L743.95,105.5L746.33,109.44L748.72,83.293L751.1,82.449L753.48,105.78L755.87,148.79L758.25,172.68L760.63,176.62L763.02,176.9L765.4,149.63L767.78,145.14L770.17,155.26L772.55,144.01L774.93,154.41L777.32,154.41L779.7,157.22L782.08,154.13L784.47,161.72L786.85,145.98L789.23,155.26L791.62,166.78L794,160.03L796.38,174.09L798.77,162.56L801.15,151.04L803.53,162L805.92,178.03L808.3,176.62L810.68,151.32L813.07,148.79L815.45,169.31L817.83,161.72L820.22,176.62L822.6,169.59L824.98,185.05L827.37,167.91L829.75,174.37L832.13,179.15L834.52,150.76L836.9,147.1L839.28,168.19L841.67,131.36L844.05,176.34L846.43,150.2L848.82,135.58L851.2,179.71L853.58,175.78L855.97,182.52L858.35,166.5L860.73,171.84L863.12,162.28L865.5,144.57L867.88,138.11L870.27,136.98L872.65,126.86L875.03,103.81L877.42,68.956L879.8,101.56L882.18,103.53L884.57,70.081L886.95,72.611L889.33,110.28L891.72,110L894.1,111.68L896.48,87.228L898.87,140.64L901.25,178.03L903.63,145.98L906.02,155.54L908.4,145.7L910.78,173.53L913.17,176.34L915.55,151.32L917.93,166.22L920.32,157.79L922.7,155.82L925.08,167.62L927.47,136.42L929.85,167.34L932.23,178.03L934.62,173.81L937,165.94L939.38,165.38L941.77,174.93L944.15,163.69L946.53,168.47L948.92,162.56L951.3,148.23L953.68,165.94L956.07,139.8L958.45,165.94L960.83,169.59L963.22,154.97L965.6,156.94L967.98,171.84L970.37,164.81L972.75,127.99L975.13,162.56L977.52,146.26L979.9,157.79L982.28,147.38L984.67,135.58L987.05,148.79L989.43,153.85L991.82,140.64L994.2,181.4L996.58,196.86L998.97,151.88L1001.4,147.1L1003.7,141.2L1006.1,157.79L1008.5,142.89L1010.9,125.74L1013.3,157.5L1015.7,124.62L1018,78.233L1020.4,81.606L1022.8,74.297L1025.2,72.611L1027.6,87.509L1030,71.486L1032.3,83.293L1034.7,108.59L1037.1,104.66L1039.5,105.22L1041.9,142.61L1044.3,149.07L1046.6,152.73L1049,154.69L1051.4,131.92L1053.8,187.58L1056.2,186.46L1058.6,167.62L1060.9,181.68L1063.3,188.99L1065.7,142.61L1068.1,166.78L1070.5,144.29L1072.9,136.14L1075.2,155.54L1077.6,177.46L1080,192.08" style="fill:none;stroke:#5A9BD4;stroke-width:1.875;stroke-dasharray:2.5,2.5" />
<path d="M1055,694.3L1080,694.3" style="fill:none;stroke:#F15A60;stroke-width:1.875" />
<text x="1002.5" y="-687.85" transform="scale(1, -1)"
	style="font-family:Helvetica;font-weight:normal;font-style:normal;font-size:12pt">etcd v3</text>
<path d="M1055,680L1080,680" style="fill:none;stroke:#7AC36A;stroke-width:1.875;stroke-dasharray:7.5,2.5" />
<text x="941.6" y="-673.56" transform="scale(1, -1)"
	style="font-family:Helvetica;font-weight:normal;font-style:normal;font-size:12pt">Zookeeper 3.4.8</text>
<path d="M1055,665.71L1080,665.71" style="fill:none;stroke:#5A9BD4;stroke-width:1.875;stroke-dasharray:2.5,2.5" />
<text x="966.62" y="-659.26" transform="scale(1, -1)"
	style="font-family:Helvetica;font-weight:normal;font-style:normal;font-size:12pt">Consul 0.6.4</text>
</g>
</svg>
