<?xml version="1.0"?>
<!-- Generated by SVGo and Plotinum VG -->
<svg width="12in" height="8in"
	xmlns="http://www.w3.org/2000/svg"
	xmlns:xlink="http://www.w3.org/1999/xlink">
<g transform="scale(1, -1) translate(0, -720)">
<path d="M0,0L1080,0L1080,720L0,720Z" style="fill:#FFFFFF" />
<text x="332.84" y="-706.41" transform="scale(1, -1)"
	style="font-family:Helvetica;font-weight:normal;font-style:normal;font-size:12pt">Write 3M keys, 1K clients, key 64 bytes, value 256 bytes, CPU</text>
<text x="544.64" y="-4.965" transform="scale(1, -1)"
	style="font-family:Helvetica;font-weight:normal;font-style:normal;font-size:12pt">Second</text>
<text x="56.662" y="-19.142" transform="scale(1, -1)"
	style="font-family:Helvetica;font-weight:normal;font-style:normal;font-size:10pt">0</text>
<text x="356.9" y="-19.142" transform="scale(1, -1)"
	style="font-family:Helvetica;font-weight:normal;font-style:normal;font-size:10pt">400</text>
<text x="664.09" y="-19.142" transform="scale(1, -1)"
	style="font-family:Helvetica;font-weight:normal;font-style:normal;font-size:10pt">800</text>
<text x="967.8" y="-19.142" transform="scale(1, -1)"
	style="font-family:Helvetica;font-weight:normal;font-style:normal;font-size:10pt">1200</text>
<path d="M60.137,30.467L60.137,40.467" style="fill:none;stroke:#000000;stroke-width:0.625" />
<path d="M367.33,30.467L367.33,40.467" style="fill:none;stroke:#000000;stroke-width:0.625" />
<path d="M674.51,30.467L674.51,40.467" style="fill:none;stroke:#000000;stroke-width:0.625" />
<path d="M981.7,30.467L981.7,40.467" style="fill:none;stroke:#000000;stroke-width:0.625" />
<path d="M213.73,35.468L213.73,40.467" style="fill:none;stroke:#000000;stroke-width:0.625" />
<path d="M520.92,35.468L520.92,40.467" style="fill:none;stroke:#000000;stroke-width:0.625" />
<path d="M828.11,35.468L828.11,40.467" style="fill:none;stroke:#000000;stroke-width:0.625" />
<path d="M60.137,40.467L1080,40.467" style="fill:none;stroke:#000000;stroke-width:0.625" />
<g transform="rotate(90)">
<text x="358.4" y="13.59" transform="scale(1, -1)"
	style="font-family:Helvetica;font-weight:normal;font-style:normal;font-size:12pt">CPU</text>
</g>
<text x="25.505" y="-223.91" transform="scale(1, -1)"
	style="font-family:Helvetica;font-weight:normal;font-style:normal;font-size:10pt">60</text>
<text x="18.555" y="-411.05" transform="scale(1, -1)"
	style="font-family:Helvetica;font-weight:normal;font-style:normal;font-size:10pt">120</text>
<text x="18.555" y="-598.2" transform="scale(1, -1)"
	style="font-family:Helvetica;font-weight:normal;font-style:normal;font-size:10pt">180</text>
<path d="M42.88,229.28L52.88,229.28" style="fill:none;stroke:#000000;stroke-width:0.625" />
<path d="M42.88,416.42L52.88,416.42" style="fill:none;stroke:#000000;stroke-width:0.625" />
<path d="M42.88,603.57L52.88,603.57" style="fill:none;stroke:#000000;stroke-width:0.625" />
<path d="M47.88,104.51L52.88,104.51" style="fill:none;stroke:#000000;stroke-width:0.625" />
<path d="M47.88,166.9L52.88,166.9" style="fill:none;stroke:#000000;stroke-width:0.625" />
<path d="M47.88,291.66L52.88,291.66" style="fill:none;stroke:#000000;stroke-width:0.625" />
<path d="M47.88,354.04L52.88,354.04" style="fill:none;stroke:#000000;stroke-width:0.625" />
<path d="M47.88,478.8L52.88,478.8" style="fill:none;stroke:#000000;stroke-width:0.625" />
<path d="M47.88,541.19L52.88,541.19" style="fill:none;stroke:#000000;stroke-width:0.625" />
<path d="M47.88,665.95L52.88,665.95" style="fill:none;stroke:#000000;stroke-width:0.625" />
<path d="M52.88,47.03L52.88,701.44" style="fill:none;stroke:#000000;stroke-width:0.625" />
<path d="M60.137,48.496L60.905,57.198L61.673,65.932L62.441,73.23L63.209,81.964L63.977,90.541L64.745,98.838L65.513,108.07L66.281,116.34L67.049,122.54L67.817,130.56L68.585,138.48L69.353,145.81L70.121,153.3L70.889,159.44L71.657,166.65L72.425,173.7L73.193,180.96L73.961,188.01L74.729,194.63L75.497,200.05L76.265,206.95L77.033,213.18L77.801,219.33L78.569,225.75L79.337,231.21L80.105,236.98L80.873,242.57L81.641,248.15L82.409,254.23L83.177,259.88L83.945,263.71L84.712,269.11L85.48,274.41L86.248,279.56L87.016,284.7L87.784,290.29L88.552,293.91L89.32,299.08L90.088,303.73L90.856,309.03L91.624,313.65L92.392,318.7L93.16,322.32L93.928,327.5L94.696,331.68L95.464,335.95L96.232,340.69L97,344.34L97.768,347.55L98.536,352.7L99.304,356.69L100.07,360.62L100.84,364.24L101.61,368.55L102.38,372.13L103.14,375.94L103.91,379.37L104.68,383.17L105.45,387.07L106.22,390.85L106.98,393.12L107.75,396.62L108.52,400.55L109.29,403.95L110.06,407.28L110.82,410.81L111.59,413.09L112.36,416.42L113.13,420.2L113.9,423.32L114.66,426.47L115.43,429.74L116.2,431.3L116.97,434.14L117.74,437.23L118.5,440.1L119.27,442.87L120.04,445.9L120.81,448.71L121.57,451.54L122.34,454.88L123.11,457.78L123.88,460.59L124.65,462.68L125.41,464.92L126.18,467.7L126.95,470.2L127.72,472.91L128.49,474.75L129.25,477.18L130.02,479.37L130.79,482.24L131.56,483.89L132.33,486.13L133.09,489.04L133.86,491.59L134.63,492.93L135.4,495.62L136.17,498.05L136.93,500.67L137.7,502.14L138.47,504.6L139.24,506.35L140.01,508.03L140.77,510.15L141.54,512.62L142.31,514.55L143.08,516.23L143.85,519.26L144.61,521.13L145.38,523.35L146.15,526.03L146.92,527.99L147.69,530.36L148.45,532.95L149.22,533.79L149.99,536.48L150.76,538.72L151.53,540.75L152.29,543.31L153.06,544.62L153.83,547.18L154.6,548.45L155.37,550.54L156.13,553.82L156.9,554.97L157.67,557.69L158.44,558.97L159.21,560.81L159.97,562.58L160.74,564.7L161.51,567.2L162.28,568.63L163.05,571.13L163.81,571.97L164.58,574.12L165.35,575.25L166.12,577.77L166.89,578.87L167.65,581.42L168.42,582.83L169.19,584.76L169.96,585.95L170.72,588.1L171.49,589.31L172.26,591.68L173.03,592.87L173.8,595.05L174.56,595.58L175.33,597.83L176.1,598.89L176.87,601.23L177.64,602.13L178.4,604.44L179.17,605.03L179.94,607.12L180.71,608.03L181.48,610.15L182.24,611.24L183.01,613.42L183.78,614.64L184.55,615.2L185.32,617.07L186.08,618.04L186.85,620.44L187.62,621.13L188.39,624.09L189.16,624.34L189.92,626.31L190.69,627.68L191.46,629.18L192.23,630.74L193,631.7L193.76,633.79L194.53,634.17L195.3,636.32L196.07,637.13L196.84,638.44L197.6,639.97L198.37,640.69L199.14,642.84L199.91,643.12L200.68,644.74L201.44,646.08L202.21,646.52L202.98,648.83L203.75,649.36L204.52,651.38L205.28,652.19L206.05,652.82L206.82,655.69L207.59,656.25L208.36,658.18L209.12,659.31L209.89,659.96L210.66,662.18L211.43,662.77L212.2,664.3L212.96,665.61L213.73,666.26L214.5,668.41L215.27,668.48L216.04,669.29L216.8,671.22L217.57,671.88L218.34,673.28L219.11,674.53L219.88,674.81L220.64,676.37L221.41,677.49L222.18,678.05L222.95,680.55L223.71,680.95L224.48,682.23L225.25,683.76L226.02,684.07L226.79,685.88L227.55,687.1L228.32,687.57L229.09,689.28L229.86,690.09L230.63,690.37L231.39,692.12L232.16,692.99L232.93,693.55L233.7,695.58L234.47,696.14L235.23,696.3L236,698.33L236.77,698.98L237.54,699.32L238.31,701.44" style="fill:none;stroke:#F15A60;stroke-width:1.875" />
<path d="M60.137,47.186L60.905,58.04L61.673,66.306L62.441,77.067L63.209,89.044L63.977,98.838L64.745,109.44L65.513,120.33L66.281,130.03L67.049,138.76L67.817,150.9L68.585,160.07L69.353,168.3L70.121,176.85L70.889,187.01L71.657,195.53L72.425,203.45L73.193,214.87L73.961,226.66L74.729,234.89L75.497,242.69L76.265,251.77L77.033,260.09L77.801,268.14L78.569,274.85L79.337,280.84L80.105,286.08L80.873,293.78L81.641,301.7L82.409,314.12L83.177,320.07L83.945,325.91L84.712,333.33L85.48,340.91L86.248,347.49L87.016,352.89L87.784,363.87L88.552,371.1L89.32,375.5L90.088,381.15L90.856,383.98L91.624,382.8L92.392,383.55L93.16,387.1L93.928,390.57L94.696,393.31L95.464,398.64L96.232,404.45L97,410.03L97.768,414.86L98.536,419.48L99.304,423.35L100.07,428.49L100.84,433.55L101.61,439.1L102.38,444.43L103.14,448.89L103.91,453.57L104.68,458.75L105.45,463.58L106.22,467.11L106.98,470.32L107.75,474.84L108.52,479.27L109.29,480.21L110.06,479.09L110.82,479.62L111.59,483.98L112.36,487.04L113.13,492.15L113.9,495.93L114.66,499.02L115.43,502.29L116.2,504.23L116.97,510.68L117.74,517.45L118.5,520.6L119.27,524.22L120.04,527.21L120.81,529.77L121.57,533.79L122.34,538.54L123.11,541.65L123.88,544.46L124.65,547.24L125.41,550.79L126.18,554.57L126.95,558.31L127.72,561.02L128.49,563.89L129.25,566.67L130.02,569.2L130.79,571.63L131.56,572.31L132.33,572.5L133.09,574.5L133.86,578.8L134.63,582.55L135.4,582.58L136.17,584.79L136.93,587.1L137.7,590.81L138.47,594.27L139.24,597.52L140.01,598.39L140.77,600.48L141.54,601.73L142.31,604.63L143.08,606.91L143.85,609.59L144.61,611.27L145.38,613.39L146.15,617.23L146.92,620.54L147.69,622.88L148.45,625.4L149.22,628.68L149.99,631.48L150.76,634.26L151.53,637.13L152.29,639.41L153.06,641.59L153.83,644.05L154.6,644.99L155.37,646.27L156.13,648.7L156.9,650.85L157.67,653.1L158.44,653.72L159.21,655.16L159.97,655.41L160.74,656.84L161.51,657.28L162.28,657.4L163.05,659.27" style="fill:none;stroke:#7AC36A;stroke-width:1.875;stroke-dasharray:7.5,2.5" />
<path d="M60.137,47.03L60.905,49.962L61.673,53.767L62.441,57.417L63.209,60.754L63.977,64.154L64.745,67.647L65.513,71.296L66.281,74.478L67.049,77.628L67.817,81.122L68.585,84.49L69.353,87.36L70.121,90.541L70.889,93.598L71.657,96.811L72.425,99.15L73.193,102.02L73.961,104.67L74.729,107.66L75.497,110.38L76.265,112.97L77.033,115.65L77.801,118.24L78.569,120.83L79.337,123.45L80.105,125.97L80.873,128.47L81.641,130.5L82.409,133.05L83.177,135.39L83.945,137.48L84.712,139.29L85.48,141.79L86.248,143.94L87.016,145.75L87.784,148.15L88.552,150.18L89.32,152.02L90.088,154.36L90.856,156.1L91.624,158.23L92.392,160.16L93.16,161.81L93.928,163.65L94.696,165.24L95.464,167.11L96.232,169.05L97,170.67L97.768,172.51L98.536,174.07L99.304,175.51L100.07,177.31L100.84,178.62L101.61,180.43L102.38,181.99L103.14,183.71L103.91,185.08L104.68,186.23L105.45,187.51L106.22,188.98L106.98,190.6L107.75,191.85L108.52,193.56L109.29,195.53L110.06,199.09L110.82,200.33L111.59,200.99L112.36,201.77L113.13,202.45L113.9,202.42L114.66,202.86L115.43,202.2L116.2,202.61L116.97,202.89L117.74,202.27L118.5,202.58L119.27,201.92L120.04,202.36L120.81,202.39L121.57,202.02L122.34,202.27L123.11,201.71L123.88,202.64L124.65,202.05L125.41,202.3L126.18,202.05L126.95,202.02L127.72,201.86L128.49,201.74L129.25,201.58L130.02,201.49L130.79,201.3L131.56,201.24L132.33,201.05L133.09,201.3L133.86,200.83L134.63,201.39L135.4,201.08L136.17,201.46L136.93,200.96L137.7,201.27L138.47,200.74L139.24,201.05L140.01,200.52L140.77,200.8L141.54,200.24L142.31,200.55L143.08,200.43L143.85,200.33L144.61,200.24L145.38,200.64L146.15,200.74L146.92,200.4L147.69,200.68L148.45,200.21L149.22,200.49L149.99,200.02L150.76,200.33L151.53,199.83L152.29,200.15L153.06,199.65L153.83,199.96L154.6,199.46L155.37,199.8L156.13,199.74L156.9,200.08L157.67,199.58L158.44,199.9L159.21,199.46L159.97,199.58L160.74,199.33L161.51,199.33L162.28,199.18L163.05,199.15L163.81,199.05L164.58,198.99L165.35,199.71L166.12,200.15L166.89,200.3L167.65,200.71L168.42,200.8L169.19,201.18L169.96,201.27L170.72,201.71L171.49,201.83L172.26,202.24L173.03,202.39L173.8,203.23L174.56,203.3L175.33,204.33L176.1,204.23L176.87,205.26L177.64,205.45L178.4,206.17L179.17,206.63L179.94,206.63L180.71,207.66L181.48,207.54L182.24,208.57L183.01,208.63L183.78,209.6L184.55,209.88L185.32,210.5L186.08,210.91L186.85,210.91L187.62,212L188.39,212.15L189.16,213.59L189.92,213.81L190.69,215.12L191.46,215.24L192.23,216.05L193,216.96L193.76,217.49L194.53,218.89L195.3,219.14L196.07,220.58L196.84,220.86L197.6,221.51L198.37,222.54L199.14,223.16L199.91,223.63L200.68,224.63L201.44,225.1L202.21,225.82L202.98,226.85L203.75,227.09L204.52,228.16L205.28,228.81L206.05,229.47L206.82,230.06L207.59,230.74L208.36,231.34L209.12,231.56L209.89,232.65L210.66,233.24L211.43,233.36L212.2,233.99L212.96,234.61L213.73,235.24L214.5,235.83L215.27,236.05L216.04,236.7L216.8,237.79L217.57,237.98L218.34,238.32L219.11,239.04L219.88,239.54L220.64,240.32L221.41,240.82L222.18,240.97L222.95,241.26L223.71,242.28L224.48,242.94L225.25,243.1L226.02,243.66L226.79,243.78L227.55,244.41L228.32,244.66L229.09,245.81L229.86,246L230.63,246.21L231.39,246.81L232.16,247.59L232.93,247.77L233.7,248.4L234.47,248.43L235.23,249.18L236,249.33L236.77,250.08L237.54,250.18L238.31,251.08L239.07,251.11L239.84,250.92L240.61,250.67L241.38,250.39L242.15,250.05L242.91,249.74L243.68,249.4L244.45,249.58L245.22,249.21L245.99,249.49L246.75,249.12L247.52,248.71L248.29,248.77L249.06,248.52L249.83,248.09L250.59,247.68L251.36,247.28L252.13,246.87L252.9,246.43L253.67,246.06L254.43,245.65L255.2,245.25L255.97,244.84L256.74,244.5L257.51,244.16L258.27,243.81L259.04,243.63L259.81,243.94L260.58,244.09L261.35,243.88L262.11,243.84L262.88,243.94L263.65,243.66L264.42,243.41L265.19,243.19L265.95,242.94L266.72,242.75L267.49,242.53L268.26,242.35L269.02,243.35L269.79,243.56L270.56,244.19L271.33,244.25L272.1,244.28L272.86,244.44L273.63,244.66L274.4,245.75L275.17,246.81L275.94,246.87L276.7,246.84L277.47,247.24L278.24,247.06L279.01,246.93L279.78,247.37L280.54,247.31L281.31,247.84L282.08,248.59L282.85,249.36L283.62,250.18L284.38,250.18L285.15,250.71L285.92,251.05L286.69,250.77L287.46,250.96L288.22,251.17L288.99,250.8L289.76,250.96L290.53,251.14L291.3,250.77L292.06,250.92L292.83,251.11L293.6,250.96L294.37,250.89L295.14,251.11L295.9,251.17L296.67,250.89L297.44,250.55L298.21,251.24L298.98,250.89L299.74,250.55L300.51,251.86L301.28,251.52L302.05,251.14L302.82,251.61L303.58,251.52L304.35,251.14L305.12,251.3L305.89,251.52L306.66,251.14L307.42,250.77L308.19,251.52L308.96,251.14L309.73,251.02L310.5,251.95L311.26,251.83L312.03,251.7L312.8,252.83L313.57,253.01L314.34,252.7L315.1,252.95L315.87,253.7L316.64,253.42L317.41,253.67L318.17,254.48L318.94,254.29L319.71,254.54L320.48,255.35L321.25,255.1L322.01,255.42L322.78,255.98L323.55,256.07L324.32,256.32L325.09,256.69L325.85,257.07L326.62,257.41L327.39,257.88L328.16,258.35L328.93,258.78L329.69,259.28L330.46,259.75L331.23,260.22L332,260.75L332.77,261.25L333.53,261.59L334.3,262L335.07,262.15L335.84,263.21L336.61,263.62L337.37,263.74L338.14,264.68L338.91,265.02L339.68,265.33L340.45,265.8L341.21,266.4L341.98,266.96L342.75,266.99L343.52,267.8L344.29,268.58L345.05,268.61L345.82,269.2L346.59,270.23L347.36,270.29L348.13,270.33L348.89,271.01L349.66,272.01L350.43,272.07L351.2,272.54L351.97,273.04L352.73,273.57L353.5,273.66L354.27,274.29L355.04,274.94L355.81,275L356.57,275.63L357.34,276.19L358.11,276.78L358.88,276.94L359.65,277.41L360.41,277.9L361.18,278.62L361.95,278.84L362.72,278.9L363.49,279.31L364.25,280.09L365.02,280.77L365.79,280.81L366.56,280.81L367.33,280.87L368.09,282.05L368.86,282.65L369.63,282.71L370.4,282.74L371.16,282.8L371.93,283.46L372.7,284.58L373.47,284.61L374.24,284.64L375,284.7L375.77,284.95L376.54,285.92L377.31,286.42L378.08,286.51L378.84,286.54L379.61,286.58L380.38,287.14L381.15,287.79L381.92,287.82L382.68,288.32L383.45,288.29L384.22,288.35L384.99,289.01L385.76,289.69L386.52,289.76L387.29,289.76L388.06,290.29L388.83,290.32L389.6,290.97L390.36,291.1L391.13,291.69L391.9,291.72L392.67,291.75L393.44,291.78L394.2,292.85L394.97,293.09L395.74,293.13L396.51,293.81L397.28,293.84L398.04,293.87L398.81,293.91L399.58,294.44L400.35,294.56L401.12,294.84L401.88,295.22L402.65,295.9L403.42,295.96L404.19,296L404.96,296.15L405.72,296.74L406.49,296.78L407.26,296.84L408.03,296.96L408.8,297.52L409.56,298.27L410.33,298.37L411.1,298.71L411.87,299.24L412.64,299.33L413.4,299.49L414.17,299.61L414.94,299.74L415.71,300.08L416.48,300.42L417.24,300.24L418.01,299.99L418.78,300.39L419.55,301.08L420.31,301.2L421.08,301.2L421.85,301.27L422.62,301.3L423.39,301.36L424.15,301.42L424.92,301.48L425.69,301.58L426.46,302.26L427.23,303.04L427.99,303.45L428.76,303.86L429.53,304.07L430.3,304.48L431.07,304.85L431.83,305.29L432.6,305.79L433.37,306.66L434.14,307.79L434.91,308.22L435.67,308.88L436.44,309.63L437.21,309.72L437.98,310.47L438.75,311.59L439.51,311.78L440.28,311.96L441.05,312.34L441.82,313.68L442.59,314.55L443.35,314.68L444.12,314.62L444.89,315.18L445.66,315.77L446.43,316.71L447.19,316.74L447.96,317.33L448.73,317.21L449.5,318.67L450.27,318.7L451.03,319.08L451.8,319.17L452.57,320.32L453.34,320.67L454.11,320.48L454.87,320.42L455.64,321.51L456.41,321.67L457.18,321.6L457.95,322.1L458.71,322.07L459.48,322.48L460.25,323.51L461.02,323.32L461.79,324L462.55,323.97L463.32,324.32L464.09,325L464.86,325.35L465.62,326L466.39,326.06L467.16,326.28L467.93,327.44L468.7,327.28L469.46,327.37L470.23,327.9L471,327.9L471.77,329.24L472.54,329.06L473.3,328.87L474.07,329.28L474.84,329.46L475.61,330.77L476.38,330.65L477.14,330.46L477.91,330.24L478.68,330.84L479.45,331.77L480.22,332.24L480.98,332.02L481.75,331.8L482.52,331.62L483.29,332.64L484.06,333.52L484.82,333.55L485.59,333.42L486.36,333.33L487.13,333.39L487.9,334.55L488.66,335.26L489.43,335.23L490.2,335.17L490.97,335.11L491.74,335.64L492.5,336.14L493.27,337.01L494.04,337.01L494.81,337.01L495.58,337.7L496.34,337.6L497.11,338.38L497.88,338.98L498.65,338.95L499.42,338.95L500.18,339.76L500.95,339.76L501.72,340.29L502.49,341L503.26,341.03L504.02,341L504.79,341.78L505.56,341.85L506.33,341.94L507.1,342.31L507.86,342.97L508.63,342.94L509.4,343.31L510.17,343.75L510.94,343.72L511.7,343.87L512.47,344.12L513.24,344.65L514.01,344.72L514.77,345.4L515.54,345.46L516.31,345.43L517.08,345.4L517.85,345.9L518.61,345.81L519.38,346.43L520.15,346.99L520.92,347.3L521.69,347.24L522.45,347.24L523.22,347.27L523.99,347.71L524.76,347.49L525.53,347.71L526.29,348.89L527.06,348.86L527.83,348.86L528.6,348.83L529.37,348.8L530.13,349.36L530.9,349.24L531.67,349.55L532.44,349.83L533.21,350.36L533.97,350.36L534.74,350.33L535.51,350.3L536.28,350.24L537.05,350.77L537.81,351.39L538.58,351.39L539.35,351.11L540.12,351.17L540.89,351.61L541.65,351.55L542.42,351.51L543.19,351.45L543.96,351.39L544.73,352.29L545.49,352.48L546.26,352.26L547.03,352.05L547.8,351.76L548.57,351.61L549.33,352.23L550.1,352.36L550.87,352.48L551.64,353.29L552.41,353.79L553.17,354.23L553.94,354.17L554.71,354.04L555.48,353.92L556.25,353.79L557.01,354.01L557.78,354.2L558.55,353.89L559.32,353.6L560.09,353.29L560.85,353.76L561.62,353.67L562.39,354.07L563.16,354.51L563.92,354.2L564.69,353.92L565.46,353.6L566.23,353.89L567,353.79L567.76,353.45L568.53,353.14L569.3,352.79L570.07,352.51L570.84,352.92L571.6,352.61L572.37,352.26L573.14,351.92L573.91,351.58L574.68,351.58L575.44,351.7L576.21,352.14L576.98,351.8L577.75,351.61L578.52,351.92L579.28,351.61L580.05,351.61L580.82,351.76L581.59,351.42L582.36,351.14L583.12,350.8L583.89,350.49L584.66,350.52L585.43,350.61L586.2,350.27L586.96,349.99L587.73,350.08L588.5,350.08L589.27,350.3L590.04,350.24L590.8,349.86L591.57,349.58L592.34,349.27L593.11,348.96L593.88,349.36L594.64,349.08L595.41,348.77L596.18,348.46L596.95,348.15L597.72,347.83L598.48,348.93L599.25,348.68L600.02,348.4L600.79,348.08L601.56,348.52L602.32,348.46L603.09,348.86L603.86,348.65L604.63,348.55L605.4,348.46L606.16,348.43L606.93,348.8L607.7,349.08L608.47,349.64L609.24,349.71L610,349.64L610.77,350.05L611.54,350.58L612.31,350.61L613.08,350.61L613.84,350.92L614.61,350.64L615.38,350.39L616.15,350.83L616.91,350.86L617.68,351.89L618.45,351.86L619.22,351.73L619.99,351.89L620.75,352.2L621.52,352.33L622.29,353.48L623.06,353.48L623.83,353.45L624.59,353.51L625.36,353.98L626.13,354.73L626.9,355.23L627.67,355.16L628.43,355.16L629.2,355.1L629.97,354.79L630.74,355.1L631.51,355.66L632.27,356.38L633.04,356.51L633.81,356.47L634.58,356.44L635.35,356.54L636.11,357.66L636.88,358.16L637.65,358.41L638.42,358.38L639.19,358.35L639.95,358.35L640.72,359.38L641.49,359.87L642.26,360.19L643.03,360.19L643.79,360.15L644.56,360.15L645.33,360.56L646.1,361.53L646.87,362.12L647.63,362.09L648.4,362.09L649.17,362.03L649.94,362L650.71,362.71L651.47,363.65L652.24,364.08L653.01,364.02L653.78,363.96L654.55,363.93L655.31,364.05L656.08,364.68L656.85,365.02L657.62,365.93L658.39,365.96L659.15,365.93L659.92,365.86L660.69,366.02L661.46,366.46L662.23,366.3L662.99,366.89L663.76,367.58L664.53,367.61L665.3,367.55L666.06,367.52L666.83,368.05L667.6,367.98L668.37,367.95L669.14,368.45L669.9,368.92L670.67,369.17L671.44,369.11L672.21,369.08L672.98,369.67L673.74,369.51L674.51,369.32L675.28,369.76L676.05,369.86L676.82,370.2L677.58,370.54L678.35,370.45L679.12,370.79L679.89,371.07L680.66,371.04L681.42,371.07L682.19,371.57L682.96,371.51L683.73,371.41L684.5,372.1L685.26,372.07L686.03,372.51L686.8,372.57L687.57,372.44L688.34,372.38L689.1,372.63L689.87,372.94L690.64,372.88L691.41,372.82L692.18,373.13L692.94,373.75L693.71,374.03L694.48,373.82L695.25,373.6L696.02,373.38L696.78,373.16L697.55,373.72L698.32,373.72L699.09,373.69L699.86,373.63L700.62,373.72L701.39,374.91L702.16,374.75L702.93,374.63L703.7,374.5L704.46,374.38L705.23,374.25L706,374.5L706.77,374.91L707.54,375.59L708.3,375.72L709.07,375.78L709.84,375.84L710.61,376.25L711.37,376.41L712.14,376.34L712.91,376.78L713.68,376.97L714.45,376.78L715.21,377.28L715.98,377.28L716.75,377.25L717.52,377.22L718.29,377.62L719.05,377.96L719.82,377.93L720.59,378.18L721.36,378.31L722.13,378.09L722.89,377.93L723.66,378.46L724.43,378.43L725.2,378.81L725.97,378.78L726.73,378.71L727.5,378.65L728.27,378.56L729.04,378.5L729.81,378.81L730.57,379.24L731.34,379.18L732.11,379.24L732.88,379.62L733.65,379.56L734.41,379.46L735.18,380.74L735.95,381.05L736.72,381.12L737.49,381.18L738.25,381.24L739.02,381.27L739.79,381.4L740.56,382.71L741.33,382.74L742.09,382.61L742.86,382.49L743.63,382.39L744.4,382.18L745.17,381.96L745.93,381.71L746.7,382.11L747.47,382.49L748.24,382.58L749.01,382.3L749.77,382.02L750.54,381.83L751.31,382.24L752.08,382.05L752.85,381.83L753.61,382.96L754.38,382.89L755.15,382.61L755.92,382.33L756.69,382.05L757.45,381.77L758.22,381.52L758.99,381.21L759.76,380.93L760.52,381.93L761.29,382.02L762.06,381.77L762.83,381.49L763.6,381.21L764.36,380.93L765.13,380.68L765.9,380.68L766.67,380.93L767.44,381.3L768.2,381.08L768.97,380.8L769.74,380.55L770.51,380.27L771.28,380.02L772.04,380.37L772.81,380.24L773.58,380.09L774.35,380.52L775.12,380.27L775.88,380.02L776.65,379.74L777.42,379.77L778.19,380.34L778.96,380.4L779.72,380.21L780.49,380.02L781.26,380.49L782.03,380.52L782.8,380.37L783.56,380.93L784.33,380.83L785.1,380.68L785.87,380.49L786.64,380.34L787.4,380.18L788.17,380.46L788.94,380.96L789.71,381.18L790.48,381.68L791.24,381.61L792.01,381.55L792.78,381.49L793.55,381.43L794.32,381.71L795.08,382.61L795.85,382.61L796.62,382.89L797.39,383.14L798.16,383.08L798.92,383.02L799.69,382.99L800.46,383.2L801.23,383.64L802,383.74L802.76,384.05L803.53,383.98L804.3,384.33L805.07,384.3L805.84,384.23L806.6,384.2L807.37,384.17L808.14,384.64L808.91,384.76L809.68,385.29L810.44,385.33L811.21,385.58L811.98,386.04L812.75,386.01L813.51,385.95L814.28,386.26L815.05,386.45L815.82,386.7L816.59,387.01L817.35,386.95L818.12,386.89L818.89,386.82L819.66,387.32L820.43,387.51L821.19,387.73L821.96,388.01L822.73,388.54L823.5,388.57L824.27,388.51L825.03,388.44L825.8,388.38L826.57,388.32L827.34,388.26L828.11,388.41L828.87,389.6L829.64,390.19L830.41,390.19L831.18,390.13L831.95,390.04L832.71,389.97L833.48,389.91L834.25,389.85L835.02,389.79L835.79,389.72L836.55,390.38L837.32,391L838.09,391.19L838.86,391.47L839.63,391.31L840.39,391.13L841.16,390.94L841.93,390.75L842.7,390.57L843.47,390.38L844.23,390.6L845,390.97L845.77,391.56L846.54,391.56L847.31,391.5L848.07,391.44L848.84,391.6L849.61,392L850.38,392L851.15,391.97L851.91,392.19L852.68,393.15L853.45,393.44L854.22,393.47L854.99,393.5L855.75,393.56L856.52,393.56L857.29,393.59L858.06,393.62L858.82,394.18L859.59,394.4L860.36,394.84L861.13,395.43L861.9,395.74L862.66,395.81L863.43,395.68L864.2,395.59L864.97,395.59L865.74,396.09L866.5,396.06L867.27,395.96L868.04,395.87L868.81,395.74L869.58,395.81L870.34,396.18L871.11,396.21L871.88,396.77L872.65,396.9L873.42,396.84L874.18,396.77L874.95,397.18L875.72,397.15L876.49,396.96L877.26,396.8L878.02,396.71L878.79,396.59L879.56,396.99L880.33,397.62L881.1,397.9L881.86,397.96L882.63,397.99L883.4,398.02L884.17,398.05L884.94,398.11L885.7,398.89L886.47,399.39L887.24,399.3L888.01,399.24L888.78,399.24L889.54,399.27L890.31,399.27L891.08,399.74L891.85,399.8L892.62,399.89L893.38,400.58L894.15,401.08L894.92,400.98L895.69,400.8L896.46,400.64L897.22,400.48L897.99,400.3L898.76,400.14L899.53,399.95L900.3,400.24L901.06,401.17L901.83,401.01L902.6,400.77L903.37,400.55L904.14,400.3L904.9,400.08L905.67,399.86L906.44,399.95L907.21,400.17L907.98,400.08L908.74,400.92L909.51,401.33L910.28,401.11L911.05,400.89L911.81,400.67L912.58,400.42L913.35,400.2L914.12,399.99L914.89,399.77L915.65,399.89L916.42,400.14L917.19,400.11L917.96,400.48L918.73,400.27L919.49,400.02L920.26,399.77L921.03,399.55L921.8,399.3L922.57,399.08L923.33,399.46L924.1,399.39L924.87,399.17L925.64,398.93L926.41,399.24L927.17,399.21L927.94,399.49L928.71,399.52L929.48,399.3L930.25,399.36L931.01,399.7L931.78,399.49L932.55,399.27L933.32,399.05L934.09,398.83L934.85,398.8L935.62,399.05L936.39,398.83L937.16,398.61L937.93,398.77L938.69,398.96L939.46,398.74L940.23,398.52L941,398.27L941.77,398.05L942.53,397.8L943.3,397.58L944.07,397.65L944.84,397.8L945.61,397.9L946.37,398.18L947.14,397.96L947.91,397.74L948.68,397.49L949.45,397.27L950.21,397.02L950.98,396.8L951.75,396.55L952.52,396.71L953.29,397.4L954.05,398.24L954.82,398.02L955.59,397.8L956.36,397.55L957.12,397.33L957.89,397.12L958.66,396.87L959.43,396.65L960.2,396.43L960.96,396.27L961.73,396.71L962.5,396.68L963.27,396.99L964.04,396.8L964.8,396.55L965.57,396.34L966.34,396.12L967.11,395.87L967.88,395.65L968.64,395.43L969.41,395.68L970.18,395.81L970.95,395.56L971.72,395.34L972.48,395.71L973.25,395.74L974.02,395.59L974.79,395.43L975.56,395.77L976.32,395.84L977.09,395.9L977.86,396.34L978.63,396.24L979.4,396.12L980.16,395.96L980.93,395.81L981.7,395.68L982.47,396.15L983.24,396.06L984,395.9L984.77,395.77L985.54,396.09L986.31,396.21L987.08,396.46L987.84,396.65L988.61,396.65L989.38,396.62L990.15,396.55L990.92,396.52L991.68,397.02L992.45,397.12L993.22,397.55L993.99,397.96L994.76,398.15L995.52,398.15L996.29,397.99L997.06,397.83L997.83,397.77L998.6,397.8L999.36,397.83L1000.1,397.93L1000.9,398.49L1001.7,398.61L1002.4,398.99L1003.2,399.49L1004,399.89L1004.7,399.92L1005.5,399.95L1006.3,399.99L1007,400.3L1007.8,400.61L1008.6,400.58L1009.3,400.48L1010.1,400.86L1010.9,401.08L1011.7,401.05L1012.4,400.98L1013.2,400.92L1014,401.08L1014.7,401.3L1015.5,401.23L1016.3,401.67L1017,401.61L1017.8,401.73L1018.6,402.14L1019.3,402.2L1020.1,402.23L1020.9,402.26L1021.6,402.29L1022.4,402.32L1023.2,403.1L1023.9,403.63L1024.7,403.57L1025.5,403.45L1026.2,403.76L1027,404.1L1027.8,404.17L1028.5,404.17L1029.3,404.2L1030.1,404.32L1030.8,404.91L1031.6,405.26L1032.4,405.63L1033.2,405.6L1033.9,405.48L1034.7,405.72L1035.5,406.01L1036.2,405.97L1037,405.91L1037.8,405.82L1038.5,405.94L1039.3,406.35L1040.1,406.25L1040.8,406.29L1041.6,406.6L1042.4,406.44L1043.1,406.22L1043.9,406.19L1044.7,406.6L1045.4,406.57L1046.2,406.5L1047,406.6L1047.7,407.03L1048.5,407.53L1049.3,407.56L1050,407.38L1050.8,407.19L1051.6,407L1052.4,406.82L1053.1,406.63L1053.9,406.44L1054.7,406.79L1055.4,406.94L1056.2,407.35L1057,408.16L1057.7,408.03L1058.5,407.85L1059.3,407.63L1060,407.44L1060.8,407.28L1061.6,407.07L1062.3,406.88L1063.1,406.72L1063.9,406.6L1064.6,406.97L1065.4,407.16L1066.2,407.85L1066.9,408L1067.7,407.85L1068.5,407.72L1069.2,407.56L1070,407.44L1070.8,407.28L1071.6,407.16L1072.3,407.47L1073.1,407.6L1073.9,407.41L1074.6,407.25L1075.4,407.5L1076.2,407.6L1076.9,407.6L1077.7,407.94L1078.5,407.91L1079.2,407.85L1080,407.78" style="fill:none;stroke:#5A9BD4;stroke-width:1.875;stroke-dasharray:2.5,2.5" />
<path d="M1055,694.3L1080,694.3" style="fill:none;stroke:#F15A60;stroke-width:1.875" />
<text x="1002.5" y="-687.85" transform="scale(1, -1)"
	style="font-family:Helvetica;font-weight:normal;font-style:normal;font-size:12pt">etcd v3</text>
<path d="M1055,680L1080,680" style="fill:none;stroke:#7AC36A;stroke-width:1.875;stroke-dasharray:7.5,2.5" />
<text x="941.6" y="-673.56" transform="scale(1, -1)"
	style="font-family:Helvetica;font-weight:normal;font-style:normal;font-size:12pt">Zookeeper 3.4.8</text>
<path d="M1055,665.71L1080,665.71" style="fill:none;stroke:#5A9BD4;stroke-width:1.875;stroke-dasharray:2.5,2.5" />
<text x="966.62" y="-659.26" transform="scale(1, -1)"
	style="font-family:Helvetica;font-weight:normal;font-style:normal;font-size:12pt">Consul 0.6.4</text>
</g>
</svg>
