<?xml version="1.0"?>
<!-- Generated by SVGo and Plotinum VG -->
<svg width="12in" height="8in"
	xmlns="http://www.w3.org/2000/svg"
	xmlns:xlink="http://www.w3.org/1999/xlink">
<g transform="scale(1, -1) translate(0, -720)">
<path d="M0,0L1080,0L1080,720L0,720Z" style="fill:#FFFFFF" />
<text x="280.32" y="-706.41" transform="scale(1, -1)"
	style="font-family:Helvetica;font-weight:normal;font-style:normal;font-size:12pt">Write 3M keys, 1K clients, key 64 bytes, value 256 bytes, Latency(millisecond)</text>
<text x="548.11" y="-4.965" transform="scale(1, -1)"
	style="font-family:Helvetica;font-weight:normal;font-style:normal;font-size:12pt">Second</text>
<text x="63.613" y="-19.142" transform="scale(1, -1)"
	style="font-family:Helvetica;font-weight:normal;font-style:normal;font-size:10pt">0</text>
<text x="360.61" y="-19.142" transform="scale(1, -1)"
	style="font-family:Helvetica;font-weight:normal;font-style:normal;font-size:10pt">400</text>
<text x="664.56" y="-19.142" transform="scale(1, -1)"
	style="font-family:Helvetica;font-weight:normal;font-style:normal;font-size:10pt">800</text>
<text x="965.04" y="-19.142" transform="scale(1, -1)"
	style="font-family:Helvetica;font-weight:normal;font-style:normal;font-size:10pt">1200</text>
<path d="M67.088,30.467L67.088,40.467" style="fill:none;stroke:#000000;stroke-width:0.625" />
<path d="M371.04,30.467L371.04,40.467" style="fill:none;stroke:#000000;stroke-width:0.625" />
<path d="M674.99,30.467L674.99,40.467" style="fill:none;stroke:#000000;stroke-width:0.625" />
<path d="M978.94,30.467L978.94,40.467" style="fill:none;stroke:#000000;stroke-width:0.625" />
<path d="M219.06,35.468L219.06,40.467" style="fill:none;stroke:#000000;stroke-width:0.625" />
<path d="M523.01,35.468L523.01,40.467" style="fill:none;stroke:#000000;stroke-width:0.625" />
<path d="M826.96,35.468L826.96,40.467" style="fill:none;stroke:#000000;stroke-width:0.625" />
<path d="M67.088,40.467L1080,40.467" style="fill:none;stroke:#000000;stroke-width:0.625" />
<g transform="rotate(90)">
<text x="305.89" y="13.59" transform="scale(1, -1)"
	style="font-family:Helvetica;font-weight:normal;font-style:normal;font-size:12pt">Latency(millisecond)</text>
</g>
<text x="25.505" y="-223.71" transform="scale(1, -1)"
	style="font-family:Helvetica;font-weight:normal;font-style:normal;font-size:10pt">800</text>
<text x="18.555" y="-412.02" transform="scale(1, -1)"
	style="font-family:Helvetica;font-weight:normal;font-style:normal;font-size:10pt">1600</text>
<text x="18.555" y="-600.33" transform="scale(1, -1)"
	style="font-family:Helvetica;font-weight:normal;font-style:normal;font-size:10pt">2400</text>
<path d="M49.83,229.08L59.83,229.08" style="fill:none;stroke:#000000;stroke-width:0.625" />
<path d="M49.83,417.39L59.83,417.39" style="fill:none;stroke:#000000;stroke-width:0.625" />
<path d="M49.83,605.7L59.83,605.7" style="fill:none;stroke:#000000;stroke-width:0.625" />
<path d="M54.83,134.92L59.83,134.92" style="fill:none;stroke:#000000;stroke-width:0.625" />
<path d="M54.83,323.23L59.83,323.23" style="fill:none;stroke:#000000;stroke-width:0.625" />
<path d="M54.83,511.54L59.83,511.54" style="fill:none;stroke:#000000;stroke-width:0.625" />
<path d="M54.83,699.85L59.83,699.85" style="fill:none;stroke:#000000;stroke-width:0.625" />
<path d="M59.83,47.03L59.83,701.44" style="fill:none;stroke:#000000;stroke-width:0.625" />
<path d="M67.088,52.26L67.847,53.43L68.607,53.946L69.367,59.707L70.127,54.931L70.887,55.868L71.647,55.061L72.407,55.57L73.166,58.827L73.926,56.844L74.686,56.187L75.446,56.037L76.206,56.471L76.966,56.536L77.726,59.422L78.486,56.444L79.245,56.708L80.005,56.535L80.765,57.18L81.525,56.591L82.285,59.785L83.045,57.208L83.805,57.242L84.565,57.405L85.324,57.172L86.084,59.172L86.844,57.381L87.604,57.515L88.364,58.345L89.124,56.743L89.884,57.32L90.644,63.053L91.403,58.572L92.163,57.505L92.923,56.672L93.683,57.445L94.443,57.138L95.203,62.065L95.963,57.373L96.723,57.084L97.482,57.785L98.242,56.911L99.002,57.791L99.762,58.928L100.52,58.576L101.28,57.32L102.04,57.508L102.8,58.578L103.56,58.171L104.32,59.591L105.08,58.233L105.84,56.921L106.6,57.285L107.36,59.274L108.12,57.755L108.88,58.817L109.64,59.794L110.4,57.491L111.16,56.579L111.92,57.015L112.68,58.882L113.44,62.374L114.2,58.109L114.96,58.746L115.72,57.831L116.48,57.768L117.24,58.024L118,62.155L118.76,58.7L119.52,58.174L120.28,58.079L121.04,57.749L121.8,57.377L122.56,60.459L123.32,57.781L124.08,58.369L124.84,58.765L125.6,59.501L126.36,58.279L127.12,60.12L127.88,59.106L128.64,56.409L129.4,58.25L130.16,56.744L130.92,58.254L131.68,59.616L132.44,58.943L133.2,60.686L133.96,57.244L134.72,58.578L135.48,60.811L136.24,61.216L137,58.016L137.76,57.605L138.52,60.064L139.28,58.381L140.04,61.675L140.8,56.32L141.56,58.459L142.32,60.324L143.07,59.997L143.83,57.356L144.59,59.954L145.35,57.654L146.11,61.545L146.87,62.008L147.63,57.948L148.39,57.138L149.15,61.782L149.91,58.45L150.67,56.661L151.43,59.559L152.19,64.337L152.95,58.159L153.71,57.59L154.47,61.109L155.23,59.234L155.99,63.365L156.75,57.891L157.51,61.56L158.27,58.017L159.03,59.532L159.79,59.229L160.55,60.171L161.31,64.651L162.07,54.426L162.83,59.245L163.59,65.104L164.35,53.855L165.11,72.596L165.87,58.441L166.63,58.74L167.39,58.699L168.15,58.21L168.91,60.525L169.67,63.28L170.43,59.662L171.19,62.108L171.95,59.409L172.71,58.955L173.47,59.252L174.23,58.596L174.99,62.195L175.75,59.952L176.51,72.369L177.27,54.943L178.03,66.298L178.79,54.074L179.55,70.499L180.31,57.222L181.07,69.728L181.83,55.96L182.59,65.936L183.35,56.037L184.11,63.806L184.87,57.907L185.63,62.194L186.39,61.697L187.15,59.459L187.91,62.528L188.67,57.872L189.43,62.682L190.19,59.024L190.95,67.01L191.71,59.779L192.47,60.344L193.23,59.203L193.99,59.125L194.75,57.081L195.51,60.913L196.27,64.168L197.03,54.942L197.79,66.401L198.55,54.487L199.31,64.612L200.07,56.649L200.83,66.213L201.59,59.905L202.35,63.275L203.11,61.001L203.86,61.267L204.62,54.768L205.38,64.24L206.14,62.589L206.9,61.141L207.66,63.81L208.42,54.254L209.18,76.879L209.94,54.765L210.7,70.046L211.46,57.337L212.22,54.488L212.98,62.94L213.74,55.197L214.5,64.633L215.26,56.152L216.02,65.526L216.78,60.185L217.54,64.044L218.3,57.618L219.06,57.199L219.82,60.218L220.58,66.518L221.34,65.7L222.1,54.166L222.86,62.564L223.62,61.052L224.38,58.043L225.14,70.958L225.9,57.257L226.66,60.74L227.42,62.47L228.18,53.921L228.94,81.497L229.7,54.511L230.46,58.744L231.22,66.193L231.98,54.778L232.74,69.23L233.5,57.024L234.26,55.112L235.02,66.488L235.78,59.673L236.54,65.619L237.3,57.705L238.06,57.254L238.82,65.003L239.58,60.364L240.34,56.637L241.1,64.313L241.86,59.577L242.62,69.399L243.38,54.562L244.14,59.937L244.9,70.262" style="fill:none;stroke:#F15A60;stroke-width:1.875" />
<path d="M67.088,48.947L67.847,59.811L68.607,55.971L69.367,48.262L70.127,48.14L70.887,47.814L71.647,48.814L72.407,48.373L73.166,48.238L73.926,47.92L74.686,56.513L75.446,51.693L76.206,47.517L76.966,48.754L77.726,47.973L78.486,49.022L79.245,62.841L80.005,47.431L80.765,54.374L81.525,48.092L82.285,48.882L83.045,48.019L83.805,48.476L84.565,47.912L85.324,48.661L86.084,65.428L86.844,49.502L87.604,48.177L88.364,48.079L89.124,70.466L89.884,48.415L90.644,49.827L91.403,48.058L92.163,48.683L92.923,48.049L93.683,48.465L94.443,80.105L95.203,66.068L95.963,48.149L96.723,269.13L97.482,105.79L98.242,51.403L99.002,48.589L99.762,50.488L100.52,53.125L101.28,49.085L102.04,48.012L102.8,48.931L103.56,49.395L104.32,48.989L105.08,49.152L105.84,49.541L106.6,48.577L107.36,49.035L108.12,47.929L108.88,48.748L109.64,49.369L110.4,48.934L111.16,49.099L111.92,52.349L112.68,51.651L113.44,48.783L114.2,239.8L114.96,103.28L115.72,61.249L116.48,52.626L117.24,50.064L118,49.174L118.76,50.323L119.52,48.545L120.28,211.08L121.04,47.459L121.8,48.957L122.56,47.03L123.32,51.388L124.08,50.352L124.84,49.948L125.6,50.132L126.36,50.619L127.12,48.236L127.88,55.728L128.64,51.223L129.4,49.218L130.16,50.578L130.92,51.862L131.68,50.012L132.44,50.101L133.2,48.59L133.96,280.23L134.72,58.04L135.48,54.655L136.24,60.461L137,200.7L137.76,50.57L138.52,51.165L139.28,51.296L140.04,49.259L140.8,51L141.56,57.762L142.32,51.269L143.07,51.926L143.83,50.912L144.59,49.433L145.35,50.723L146.11,49.671L146.87,76.632L147.63,47.962L148.39,54.458L149.15,51.264L149.91,50.362L150.67,50.35L151.43,50.765L152.19,50.319L152.95,50.877L153.71,50.309L154.47,49.988L155.23,51.138L155.99,54.806L156.75,65.693L157.51,57.081L158.27,65.164L159.03,52.195L159.79,54.674L160.55,64.201L161.31,49.866L162.07,49.742L162.83,50.313L163.59,50.259L164.35,49.983L165.11,49.367L165.87,49.901L166.63,50.658L167.39,48.202L168.15,61.967L168.91,69.453L169.67,281.37" style="fill:none;stroke:#7AC36A;stroke-width:1.875;stroke-dasharray:7.5,2.5" />
<path d="M67.088,89.091L67.847,89.983L68.607,92.12L69.367,92.596L70.127,94.164L70.887,94.308L71.647,89.218L72.407,91.376L73.166,94.353L73.926,94.662L74.686,91.284L75.446,92.86L76.206,94.833L76.966,91.52L77.726,92.265L78.486,98.933L79.245,94.803L80.005,91.04L80.765,93.278L81.525,90.132L82.285,92.468L83.045,92.574L83.805,93.908L84.565,90.702L85.324,91.039L86.084,93.46L86.844,93.434L87.604,93.145L88.364,91.872L89.124,95.889L89.884,92.962L90.644,94.868L91.403,93.152L92.163,92.135L92.923,92.858L93.683,94.135L94.443,95.347L95.203,94.017L95.963,92.651L96.723,90.551L97.482,92.223L98.242,91.171L99.002,91.428L99.762,93.402L100.52,97.362L101.28,91.145L102.04,91.484L102.8,91.222L103.56,92.403L104.32,93.72L105.08,92.414L105.84,93.949L106.6,93.528L107.36,94.034L108.12,91.31L108.88,91.721L109.64,91.239L110.4,94.682L111.16,98.198L111.92,91.919L112.68,93.622L113.44,95.195L114.2,92.961L114.96,93.311L115.72,92.698L116.48,94.508L117.24,147.81L118,140.77L118.76,189.32L119.52,267.04L120.28,264.29L121.04,314.01L121.8,364.64L122.56,420.18L123.32,456.88L124.08,449.73L124.84,457.58L125.6,470.69L126.36,461.34L127.12,455.23L127.88,469.24L128.64,472.21L129.4,466.87L130.16,475.98L130.92,480.38L131.68,471.42L132.44,470.29L133.2,482.76L133.96,475.4L134.72,460.18L135.48,478.49L136.24,484.71L137,465.03L137.76,458.86L138.52,483.92L139.28,482.28L140.04,459.76L140.8,510.33L141.56,512.77L142.32,469.59L143.07,459.2L143.83,450.51L144.59,467.87L145.35,464.05L146.11,451.39L146.87,449.77L147.63,468.14L148.39,455.98L149.15,445.59L149.91,452.2L150.67,450L151.43,444.63L152.19,464.63L152.95,468.33L153.71,449.82L154.47,453.57L155.23,467.23L155.99,447.17L156.75,453.13L157.51,473.29L158.27,462.8L159.03,446.86L159.79,454.66L160.55,469.76L161.31,448.7L162.07,456.32L162.83,464.75L163.59,452.6L164.35,446.04L165.11,453.81L165.87,459.07L166.63,445.48L167.39,456.7L168.15,475.61L168.91,459.81L169.67,453.77L170.43,467.76L171.19,463.63L171.95,452.67L172.71,488.19L173.47,431.58L174.23,342.82L174.99,314.27L175.75,302.67L176.51,261.87L177.27,241.92L178.03,235.33L178.79,215.14L179.55,184.1L180.31,154.7L181.07,176.22L181.83,165.83L182.59,162.02L183.35,156.54L184.11,143.24L184.87,160.34L185.63,143.74L186.39,157.81L187.15,153.62L187.91,160.36L188.67,150.18L189.43,145.19L190.19,158.83L190.95,141.6L191.71,148.78L192.47,133.34L193.23,134.55L193.99,109.03L194.75,105.99L195.51,109.05L196.27,113.07L197.03,114.76L197.79,114.57L198.55,101.99L199.31,96.137L200.07,105.01L200.83,99.456L201.59,106.48L202.35,98.484L203.11,101.66L203.86,100.77L204.62,102.85L205.38,101.98L206.14,106.68L206.9,95.09L207.66,101.61L208.42,101.34L209.18,92.641L209.94,110.32L210.7,96.293L211.46,103.41L212.22,99.898L212.98,100.07L213.74,104.61L214.5,95.22L215.26,108.25L216.02,97.623L216.78,98.47L217.54,107.06L218.3,103.69L219.06,98.669L219.82,107.91L220.58,96.459L221.34,97.026L222.1,105.38L222.86,97.687L223.62,97.436L224.38,102.33L225.14,95.807L225.9,98.491L226.66,105.16L227.42,95.709L228.18,99.731L228.94,106.96L229.7,93.855L230.46,105.34L231.22,109.14L231.98,95.932L232.74,94.141L233.5,91.401L234.26,106.62L235.02,91.719L235.78,90.873L236.54,93.487L237.3,99.794L238.06,88.611L238.82,105.78L239.58,103.06L240.34,97.054L241.1,89.618L241.86,96.789L242.62,95.688L243.38,157.72L244.14,118.88L244.9,136.83L245.66,160.23L246.42,167.09L247.18,184.53L247.94,201.17L248.7,216.11L249.46,237.76L250.22,257.01L250.98,279.26L251.74,266.82L252.5,265.96L253.26,293.51L254.02,334.09L254.78,314.61L255.54,317.74L256.3,319.06L257.06,318.2L257.82,316.76L258.58,320.48L259.34,313.1L260.1,304.28L260.86,287.45L261.62,271.82L262.38,252.2L263.14,249.29L263.89,242.42L264.65,234.14L265.41,204.48L266.17,160.01L266.93,158.89L267.69,191.08L268.45,187.76L269.21,178.92L269.97,169.1L270.73,165.86L271.49,159.98L272.25,159.61L273.01,151.07L273.77,150.07L274.53,93.728L275.29,102.82L276.05,101.65L276.81,110.05L277.57,111.45L278.33,120.77L279.09,138.24L279.85,141.24L280.61,133.26L281.37,156.45L282.13,140.66L282.89,143.6L283.65,148.84L284.41,152.18L285.17,143.44L285.93,140.06L286.69,168.55L287.45,149.29L288.21,112.18L288.97,107.98L289.73,168.27L290.49,167.12L291.25,209.76L292.01,271.02L292.77,360.46L293.53,420.86L294.29,444.65L295.05,508.2L295.81,515.26L296.57,499.42L297.33,505.15L298.09,510.39L298.85,508.15L299.61,490.92L300.37,494.84L301.13,520.34L301.89,528.75L302.65,494.17L303.41,532.84L304.17,500.27L304.93,501.52L305.69,540.11L306.45,502.52L307.21,491.03L307.97,526.72L308.73,529.85L309.49,497.55L310.25,528.52L311.01,524.87L311.77,483.22L312.53,502.92L313.29,531.01L314.05,514.86L314.81,508.02L315.57,540.21L316.33,520.81L317.09,525.16L317.85,561.66L318.61,495.37L319.37,331.67L320.13,338.92L320.89,279.34L321.65,257.35L322.41,265.39L323.17,237.14L323.93,211.06L324.68,250.5L325.44,240.96L326.2,211.12L326.96,213.08L327.72,203.99L328.48,183.16L329.24,188.82L330,165.46L330.76,141.42L331.52,147.96L332.28,125L333.04,126.12L333.8,136.03L334.56,115.99L335.32,112.21L336.08,114.28L336.84,111.99L337.6,130.54L338.36,130.39L339.12,114.9L339.88,105.6L340.64,125.2L341.4,111.64L342.16,101.19L342.92,134.48L343.68,115.36L344.44,99.486L345.2,118.91L345.96,112.4L346.72,99.077L347.48,98.025L348.24,140.81L349,98.038L349.76,98.178L350.52,99.248L351.28,113.6L352.04,99.583L352.8,98.074L353.56,127.19L354.32,101.43L355.08,100.96L355.84,136.45L356.6,115.97L357.36,112.29L358.12,99.159L358.88,113.83L359.64,121.1L360.4,102.42L361.16,102.91L361.92,124.96L362.68,118.64L363.44,98.895L364.2,100.73L364.96,119.63L365.72,122.63L366.48,105.94L367.24,101.76L368,102.95L368.76,161.94L369.52,104.83L370.28,104.78L371.04,102.42L371.8,105.18L372.56,160.88L373.32,104.53L374.08,100.54L374.84,105.02L375.6,101.78L376.36,128.76L377.12,110.16L377.88,105.32L378.64,100.84L379.4,99.945L380.16,138.23L380.92,110.04L381.68,116.63L382.44,99.673L383.2,104.47L383.96,102.63L384.71,134.98L385.47,102.18L386.23,110.93L386.99,121.48L387.75,103.8L388.51,100.69L389.27,115.98L390.03,98.774L390.79,102.28L391.55,105.54L392.31,116L393.07,108.96L393.83,118.07L394.59,103.87L395.35,97.787L396.11,102.45L396.87,100.78L397.63,103.01L398.39,137.61L399.15,99.202L399.91,102.62L400.67,100.14L401.43,96.809L402.19,100.83L402.95,100.78L403.71,133.77L404.47,101.89L405.23,102.26L405.99,96.507L406.75,99.003L407.51,99.113L408.27,94.994L409.03,126.03L409.79,100.02L410.55,94.855L411.31,92.967L412.07,94.218L412.83,101.85L413.59,109.83L414.35,90.644L415.11,124.85L415.87,86.636L416.63,88.486L417.39,85.435L418.15,88.377L418.91,90.74L419.67,102.74L420.43,123.45L421.19,157.23L421.95,187.64L422.71,196.3L423.47,126.38L424.23,96.94L424.99,93.216L425.75,98.179L426.51,93.501L427.27,94.175L428.03,95.5L428.79,91.93L429.55,92.138L430.31,101.87L431.07,122.53L431.83,96.123L432.59,98.023L433.35,93.811L434.11,94.431L434.87,97.162L435.63,93.54L436.39,100.81L437.15,129.09L437.91,94.209L438.67,95.918L439.43,103.45L440.19,156.05L440.95,199.87L441.71,123.71L442.47,138.96L443.23,108.74L443.99,108.7L444.75,114.05L445.5,189.01L446.26,164.39L447.02,118.03L447.78,125.86L448.54,197.41L449.3,167.63L450.06,100.16L450.82,102.45L451.58,201.88L452.34,174.15L453.1,140.58L453.86,102.21L454.62,134.89L455.38,142.28L456.14,201.34L456.9,99.616L457.66,172.51L458.42,111.98L459.18,135.42L459.94,276.03L460.7,223.17L461.46,150.01L462.22,103.43L462.98,107.87L463.74,187.01L464.5,155.68L465.26,146.31L466.02,103.62L466.78,121.98L467.54,152.86L468.3,112.64L469.06,159.92L469.82,103.11L470.58,113.21L471.34,171.25L472.1,134.04L472.86,141.72L473.62,137.86L474.38,103.29L475.14,197.25L475.9,159.16L476.66,157.91L477.42,214.18L478.18,99.476L478.94,163.56L479.7,153.13L480.46,157.26L481.22,160.5L481.98,185.16L482.74,111.53L483.5,177.98L484.26,165.65L485.02,171.64L485.78,170.45L486.54,171.26L487.3,163.12L488.06,154.53L488.82,131.85L489.58,122.77L490.34,127.49L491.1,210.73L491.86,138.79L492.62,112.82L493.38,112.22L494.14,105.54L494.9,185.56L495.66,211.62L496.42,116.08L497.18,101.26L497.94,100.75L498.7,130.75L499.46,133.01L500.22,137.76L500.98,150.54L501.74,99.543L502.5,101.85L503.26,102.51L504.02,101.16L504.78,176.98L505.53,190.85L506.29,102.28L507.05,101.21L507.81,105.96L508.57,99.619L509.33,100.07L510.09,211.83L510.85,188.66L511.61,105.24L512.37,100.17L513.13,101.47L513.89,101.49L514.65,101.56L515.41,184.35L516.17,267.03L516.93,101.7L517.69,98.23L518.45,103.71L519.21,105.02L519.97,101.48L520.73,165.23L521.49,119.87L522.25,187.12L523.01,103.8L523.77,101.32L524.53,104.35L525.29,101.14L526.05,100.9L526.81,210.13L527.57,167.74L528.33,171.46L529.09,162.97L529.85,100.12L530.61,98.523L531.37,101.99L532.13,99.081L532.89,145.33L533.65,142.27L534.41,143.53L535.17,210.37L535.93,190.59L536.69,99.584L537.45,104.97L538.21,100.21L538.97,101.91L539.73,97.832L540.49,105.35L541.25,204.99L542.01,176.94L542.77,181.16L543.53,181.62L544.29,103.82L545.05,100.47L545.81,100.94L546.57,101.12L547.33,104.94L548.09,199.42L548.85,172.59L549.61,174.68L550.37,183.08L551.13,182.79L551.89,194.55L552.65,129.26L553.41,99.227L554.17,98.574L554.93,102.04L555.69,196.7L556.45,174.89L557.21,183.65L557.97,207.28L558.73,223.73L559.49,258.45L560.25,292.1L561.01,270.64L561.77,294.02L562.53,311.25L563.29,370.85L564.05,252.45L564.81,228.77L565.57,240.02L566.32,335.81L567.08,308.76L567.84,333.05L568.6,361.31L569.36,381.86L570.12,419.25L570.88,449.35L571.64,480.02L572.4,492.01L573.16,502.8L573.92,508.1L574.68,506.41L575.44,487.36L576.2,499.72L576.96,499.93L577.72,557.52L578.48,610.98L579.24,532.18L580,501.36L580.76,527.73L581.52,502.48L582.28,379.31L583.04,425.32L583.8,444.08L584.56,470.9L585.32,502.23L586.08,511.77L586.84,505.23L587.6,520.34L588.36,515.36L589.12,518.46L589.88,500.76L590.64,507.26L591.4,500.39L592.16,549.81L592.92,507L593.68,453.99L594.44,487.36L595.2,501.44L595.96,504.15L596.72,507.59L597.48,498.34L598.24,502.83L599,497.87L599.76,498.64L600.52,508.34L601.28,508.69L602.04,432.81L602.8,435.41L603.56,502.02L604.32,526.3L605.08,544.77L605.84,564.57L606.6,446.09L607.36,452.8L608.12,494.01L608.88,493.15L609.64,505.08L610.4,507.55L611.16,512.64L611.92,433.49L612.68,396.43L613.44,428.04L614.2,575.49L614.96,446.48L615.72,460.47L616.48,552.53L617.24,391.58L618,332.22L618.76,425.98L619.52,526.59L620.28,250.16L621.04,136.14L621.8,121.85L622.56,114.68L623.32,230.81L624.08,287.24L624.84,120.94L625.6,103.28L626.36,103.4L627.11,110.07L627.87,220.23L628.63,278.4L629.39,101.11L630.15,100.96L630.91,101.7L631.67,100.33L632.43,309.2L633.19,286.37L633.95,175.59L634.71,195.03L635.47,104.1L636.23,102.8L636.99,100.57L637.75,101.98L638.51,202.31L639.27,222.7L640.03,99.212L640.79,103.48L641.55,101.59L642.31,101.41L643.07,210.2L643.83,262.13L644.59,102.44L645.35,100.27L646.11,101.16L646.87,99.33L647.63,103.49L648.39,228.31L649.15,172.97L649.91,104.38L650.67,103.89L651.43,101.98L652.19,103.27L652.95,102.58L653.71,308.67L654.47,118L655.23,102.62L655.99,107.33L656.75,101.87L657.51,101.5L658.27,101.5L659.03,260.74L659.79,128.18L660.55,103.17L661.31,102.18L662.07,102.49L662.83,101.76L663.59,198.82L664.35,171.05L665.11,172.44L665.87,102.27L666.63,101.68L667.39,101.07L668.15,100.42L668.91,200.06L669.67,159.84L670.43,172.65L671.19,155.89L671.95,97.04L672.71,110.63L673.47,100.64L674.23,105.18L674.99,226.32L675.75,168.09L676.51,161.31L677.27,227.85L678.03,102.5L678.79,93.695L679.55,111.36L680.31,106.97L681.07,127.11L681.83,119.18L682.59,102.1L683.35,104.22L684.11,165.79L684.87,109.41L685.63,109.34L686.39,105.5L687.14,106.89L687.9,123.05L688.66,186.76L689.42,120.59L690.18,105.5L690.94,144.22L691.7,139.71L692.46,101.57L693.22,104.05L693.98,102.63L694.74,109.48L695.5,247.91L696.26,197.65L697.02,187L697.78,180.47L698.54,175.76L699.3,246.77L700.06,103.18L700.82,100.5L701.58,101.77L702.34,101.79L703.1,223.84L703.86,214.24L704.62,213.9L705.38,224.26L706.14,229.6L706.9,230.01L707.66,256.38L708.42,136.7L709.18,110.33L709.94,99.04L710.7,99.633L711.46,101.25L712.22,119.47L712.98,183.63L713.74,140.11L714.5,167.57L715.26,187.14L716.02,162.15L716.78,223.18L717.54,98.498L718.3,99.478L719.06,101.24L719.82,98.048L720.58,98.145L721.34,99.41L722.1,102.55L722.86,242.58L723.62,211.89L724.38,202L725.14,220.93L725.9,245.13L726.66,182.58L727.42,102.02L728.18,100.5L728.94,99.52L729.7,97.228L730.46,100.89L731.22,100.81L731.98,99.083L732.74,100.93L733.5,108.47L734.26,232.33L735.02,183.67L735.78,180.54L736.54,225.1L737.3,114.12L738.06,101.25L738.82,99.578L739.58,97.401L740.34,104.84L741.1,101.08L741.86,234.74L742.62,273.48L743.38,218.78L744.14,203.47L744.9,182.07L745.66,277.28L746.42,256.58L747.18,254.46L747.93,303.86L748.69,417.78L749.45,559.62L750.21,502.79L750.97,408.62L751.73,449.32L752.49,560.96L753.25,408.34L754.01,323.06L754.77,397.19L755.53,548.92L756.29,582.58L757.05,500.24L757.81,498.34L758.57,500.77L759.33,505.74L760.09,511.73L760.85,511.83L761.61,509.68L762.37,654.59L763.13,659.95L763.89,580.68L764.65,507L765.41,500.03L766.17,496.17L766.93,499.69L767.69,519.83L768.45,524.59L769.21,587.28L769.97,461.5L770.73,450.31L771.49,480.54L772.25,491.27L773.01,508.74L773.77,514.53L774.53,506.64L775.29,507.86L776.05,561.18L776.81,508.02L777.57,508.56L778.33,502.42L779.09,518.15L779.85,539.24L780.61,392.56L781.37,382.94L782.13,415.31L782.89,530.53L783.65,507.94L784.41,466.44L785.17,506.7L785.93,475.8L786.69,484.44L787.45,495.06L788.21,500.58L788.97,497.21L789.73,498.03L790.49,583.91L791.25,701.44L792.01,439.28L792.77,164.81L793.53,106.38L794.29,107.51L795.05,109.16L795.81,109.69L796.57,267.21L797.33,218.24L798.09,197.19L798.85,107.53L799.61,102.16L800.37,101.63L801.13,100.68L801.89,104.68L802.65,108.44L803.41,319.14L804.17,298.35L804.93,455.86L805.69,182.45L806.45,104.93L807.21,100.52L807.96,98.105L808.72,108.14L809.48,105.8L810.24,155.81L811,162.8L811.76,101.04L812.52,103.29L813.28,102.95L814.04,103.01L814.8,106.67L815.56,269.99L816.32,122.12L817.08,200.24L817.84,102.22L818.6,103.07L819.36,103.78L820.12,105.31L820.88,105.07L821.64,102.73L822.4,159.2L823.16,329.09L823.92,182.68L824.68,103.57L825.44,102.36L826.2,105.07L826.96,103.31L827.72,104.88L828.48,106.59L829.24,110.61L830,289.36L830.76,166.18L831.52,107.82L832.28,100.88L833.04,104.72L833.8,103.86L834.56,104.81L835.32,102.67L836.08,104.36L836.84,123.79L837.6,167.87L838.36,109.35L839.12,105.72L839.88,241.63L840.64,170.65L841.4,176.2L842.16,182.58L842.92,192.87L843.68,190.89L844.44,194.55L845.2,280.36L845.96,99.707L846.72,99.967L847.48,100.03L848.24,104.11L849,101.17L849.76,112.22L850.52,165.31L851.28,118.92L852.04,125.32L852.8,276.64L853.56,156.22L854.32,101.12L855.08,105.08L855.84,100.85L856.6,101.96L857.36,104.83L858.12,103.83L858.88,102.71L859.64,101.12L860.4,102.04L861.16,244.85L861.92,116.4L862.68,160.2L863.44,99.931L864.2,126.38L864.96,110.57L865.72,116.86L866.48,156L867.24,110.39L868,112.36L868.75,117.91L869.51,123.45L870.27,184.64L871.03,169.15L871.79,101.86L872.55,98.992L873.31,97.016L874.07,98.67L874.83,100.13L875.59,184.79L876.35,271.88L877.11,238.29L877.87,217.3L878.63,207.44L879.39,194.39L880.15,195.47L880.91,305.64L881.67,101.72L882.43,97.248L883.19,98.343L883.95,100.94L884.71,102.75L885.47,97.988L886.23,245.8L886.99,280.57L887.75,174.62L888.51,129.65L889.27,102.08L890.03,94.212L890.79,97.069L891.55,238.74L892.31,99.854L893.07,101.65L893.83,106.4L894.59,278.64L895.35,267.84L896.11,162.32L896.87,163.7L897.63,158.81L898.39,164.1L899.15,171.25L899.91,175.18L900.67,178.22L901.43,376.94L902.19,386.84L902.95,355.35L903.71,354.46L904.47,357.42L905.23,357.82L905.99,360.86L906.75,437.4L907.51,267.1L908.27,140.23L909.03,170.25L909.79,360.6L910.55,358.3L911.31,353.91L912.07,349.02L912.83,346.52L913.59,343.46L914.35,345.31L915.11,349.74L915.87,353.83L916.63,363.51L917.39,364.58L918.15,516.84L918.91,491.06L919.67,453.52L920.43,459.25L921.19,466.48L921.95,471.65L922.71,477.63L923.47,496.99L924.23,501.26L924.99,485.25L925.75,494.39L926.51,495.03L927.27,499.68L928.03,514.99L928.79,449.62L929.54,293.06L930.3,298.16L931.06,339.95L931.82,333.39L932.58,341.9L933.34,353.08L934.1,364.08L934.86,368.68L935.62,499.24L936.38,495.89L937.14,429.62L937.9,438.01L938.66,518.79L939.42,488.91L940.18,476.43L940.94,490.42L941.7,506.49L942.46,505.44L943.22,496.19L943.98,499.5L944.74,509.27L945.5,510.62L946.26,551.24L947.02,495.47L947.78,440.87L948.54,444.05L949.3,450.02L950.06,479.52L950.82,489.4L951.58,496.63L952.34,508.49L953.1,503.43L953.86,595.25L954.62,605.74L955.38,525.27L956.14,504.99L956.9,502.91L957.66,501.18L958.42,498.35L959.18,499.06L959.94,501.67L960.7,493.08L961.46,498.31L962.22,524.42L962.98,581.92L963.74,568.88L964.5,465.36L965.26,462.5L966.02,489.45L966.78,503.02L967.54,499.82L968.3,498.13L969.06,502.8L969.82,549.79L970.58,501.57L971.34,508.23L972.1,498.74L972.86,514.55L973.62,502.78L974.38,508.05L975.14,574.28L975.9,483.09L976.66,289.71L977.42,333.47L978.18,361.96L978.94,375.77L979.7,399.39L980.46,432.12L981.22,461.16L981.98,494.36L982.74,501.25L983.5,499.39L984.26,500.77L985.02,502.93L985.78,536.53L986.54,565.17L987.3,237.96L988.06,102.59L988.82,103.97L989.57,104.85L990.33,106.35L991.09,126.31L991.85,118.24L992.61,126.49L993.37,431.33L994.13,219.57L994.89,103.88L995.65,133.41L996.41,367.53L997.17,393.38L997.93,102.54L998.69,102.69L999.45,100.64L1000.2,91.366L1001,108.98L1001.7,135.07L1002.5,216.76L1003.3,157.74L1004,106.85L1004.8,101.08L1005.5,105.86L1006.3,103.86L1007.1,257.51L1007.8,200.35L1008.6,171.77L1009.3,230.81L1010.1,207.62L1010.9,105.36L1011.6,100.7L1012.4,100.99L1013.1,101.79L1013.9,207.29L1014.7,267.81L1015.4,225.69L1016.2,245.19L1016.9,230.82L1017.7,284.16L1018.5,104.13L1019.2,104.18L1020,105.06L1020.7,103.23L1021.5,103.24L1022.2,101.95L1023,166.2L1023.8,326.42L1024.5,296.52L1025.3,330.97L1026,261.18L1026.8,102.44L1027.6,102L1028.3,101.42L1029.1,104.2L1029.8,101.26L1030.6,102.22L1031.4,133.59L1032.1,322.03L1032.9,169.69L1033.6,203.35L1034.4,280.34L1035.2,103.26L1035.9,103.95L1036.7,105.33L1037.4,100.11L1038.2,112.93L1039,337.26L1039.7,279.05L1040.5,280.25L1041.2,312.69L1042,296.52L1042.8,304.71L1043.5,423.19L1044.3,169.62L1045,104.61L1045.8,98.405L1046.6,109.57L1047.3,217.39L1048.1,342.36L1048.8,293.44L1049.6,269.66L1050.4,265.76L1051.1,257.2L1051.9,260.06L1052.6,259.57L1053.4,312.14L1054.2,226.69L1054.9,105.16L1055.7,103.57L1056.4,315.62L1057.2,324.93L1058,318.47L1058.7,306.59L1059.5,296.44L1060.2,284.79L1061,267.67L1061.8,257.22L1062.5,257.61L1063.3,249.83L1064,303.37L1064.8,393.73L1065.6,178.78L1066.3,218.77L1067.1,174.93L1067.8,160.08L1068.6,156.2L1069.4,153.61L1070.1,154.06L1070.9,154.95L1071.6,280.07L1072.4,244.49L1073.2,210.68L1073.9,211.17L1074.7,256.79L1075.4,361.29L1076.2,412.56L1077,172.69L1077.7,103.1L1078.5,104.84L1079.2,103.46L1080,125.01" style="fill:none;stroke:#5A9BD4;stroke-width:1.875;stroke-dasharray:2.5,2.5" />
<path d="M1055,694.3L1080,694.3" style="fill:none;stroke:#F15A60;stroke-width:1.875" />
<text x="1002.5" y="-687.85" transform="scale(1, -1)"
	style="font-family:Helvetica;font-weight:normal;font-style:normal;font-size:12pt">etcd v3</text>
<path d="M1055,680L1080,680" style="fill:none;stroke:#7AC36A;stroke-width:1.875;stroke-dasharray:7.5,2.5" />
<text x="941.6" y="-673.56" transform="scale(1, -1)"
	style="font-family:Helvetica;font-weight:normal;font-style:normal;font-size:12pt">Zookeeper 3.4.8</text>
<path d="M1055,665.71L1080,665.71" style="fill:none;stroke:#5A9BD4;stroke-width:1.875;stroke-dasharray:2.5,2.5" />
<text x="966.62" y="-659.26" transform="scale(1, -1)"
	style="font-family:Helvetica;font-weight:normal;font-style:normal;font-size:12pt">Consul 0.6.4</text>
</g>
</svg>
