<?xml version="1.0"?>
<!-- Generated by SVGo and Plotinum VG -->
<svg width="12in" height="8in"
	xmlns="http://www.w3.org/2000/svg"
	xmlns:xlink="http://www.w3.org/1999/xlink">
<g transform="scale(1, -1) translate(0, -720)">
<path d="M0,0L1080,0L1080,720L0,720Z" style="fill:#FFFFFF" />
<text x="334.49" y="-706.41" transform="scale(1, -1)"
	style="font-family:Helvetica;font-weight:normal;font-style:normal;font-size:12pt">Write 300K keys, 1 client, key 64 bytes, value 256 bytes, CPU</text>
<text x="541.16" y="-4.965" transform="scale(1, -1)"
	style="font-family:Helvetica;font-weight:normal;font-style:normal;font-size:12pt">Second</text>
<text x="49.712" y="-19.142" transform="scale(1, -1)"
	style="font-family:Helvetica;font-weight:normal;font-style:normal;font-size:10pt">0</text>
<text x="266.76" y="-19.142" transform="scale(1, -1)"
	style="font-family:Helvetica;font-weight:normal;font-style:normal;font-size:10pt">1000</text>
<text x="494.23" y="-19.142" transform="scale(1, -1)"
	style="font-family:Helvetica;font-weight:normal;font-style:normal;font-size:10pt">2000</text>
<text x="721.71" y="-19.142" transform="scale(1, -1)"
	style="font-family:Helvetica;font-weight:normal;font-style:normal;font-size:10pt">3000</text>
<text x="949.18" y="-19.142" transform="scale(1, -1)"
	style="font-family:Helvetica;font-weight:normal;font-style:normal;font-size:10pt">4000</text>
<path d="M53.188,30.467L53.188,40.467" style="fill:none;stroke:#000000;stroke-width:0.625" />
<path d="M280.66,30.467L280.66,40.467" style="fill:none;stroke:#000000;stroke-width:0.625" />
<path d="M508.13,30.467L508.13,40.467" style="fill:none;stroke:#000000;stroke-width:0.625" />
<path d="M735.61,30.467L735.61,40.467" style="fill:none;stroke:#000000;stroke-width:0.625" />
<path d="M963.08,30.467L963.08,40.467" style="fill:none;stroke:#000000;stroke-width:0.625" />
<path d="M166.92,35.468L166.92,40.467" style="fill:none;stroke:#000000;stroke-width:0.625" />
<path d="M394.4,35.468L394.4,40.467" style="fill:none;stroke:#000000;stroke-width:0.625" />
<path d="M621.87,35.468L621.87,40.467" style="fill:none;stroke:#000000;stroke-width:0.625" />
<path d="M849.34,35.468L849.34,40.467" style="fill:none;stroke:#000000;stroke-width:0.625" />
<path d="M1076.8,35.468L1076.8,40.467" style="fill:none;stroke:#000000;stroke-width:0.625" />
<path d="M53.188,40.467L1080,40.467" style="fill:none;stroke:#000000;stroke-width:0.625" />
<g transform="rotate(90)">
<text x="358.4" y="13.59" transform="scale(1, -1)"
	style="font-family:Helvetica;font-weight:normal;font-style:normal;font-size:12pt">CPU</text>
</g>
<text x="25.505" y="-202.65" transform="scale(1, -1)"
	style="font-family:Helvetica;font-weight:normal;font-style:normal;font-size:10pt">6</text>
<text x="18.555" y="-419.22" transform="scale(1, -1)"
	style="font-family:Helvetica;font-weight:normal;font-style:normal;font-size:10pt">12</text>
<text x="18.555" y="-635.8" transform="scale(1, -1)"
	style="font-family:Helvetica;font-weight:normal;font-style:normal;font-size:10pt">18</text>
<path d="M35.93,208.02L45.93,208.02" style="fill:none;stroke:#000000;stroke-width:0.625" />
<path d="M35.93,424.59L45.93,424.59" style="fill:none;stroke:#000000;stroke-width:0.625" />
<path d="M35.93,641.17L45.93,641.17" style="fill:none;stroke:#000000;stroke-width:0.625" />
<path d="M40.93,63.634L45.93,63.634" style="fill:none;stroke:#000000;stroke-width:0.625" />
<path d="M40.93,135.83L45.93,135.83" style="fill:none;stroke:#000000;stroke-width:0.625" />
<path d="M40.93,280.21L45.93,280.21" style="fill:none;stroke:#000000;stroke-width:0.625" />
<path d="M40.93,352.4L45.93,352.4" style="fill:none;stroke:#000000;stroke-width:0.625" />
<path d="M40.93,496.78L45.93,496.78" style="fill:none;stroke:#000000;stroke-width:0.625" />
<path d="M40.93,568.97L45.93,568.97" style="fill:none;stroke:#000000;stroke-width:0.625" />
<path d="M45.93,47.03L45.93,701.44" style="fill:none;stroke:#000000;stroke-width:0.625" />
<path d="M53.188,70.853L53.415,97.564L53.642,150.62L53.87,191.77L54.097,231.48L54.325,265.41L54.552,292.48L54.78,317.75L55.007,333.99L55.235,353.48L55.462,369L55.69,384.52L55.917,398.6L56.145,411.96L56.372,426.76L56.6,437.22L56.827,446.61L57.055,456.72L57.282,465.74L57.509,472.6L57.737,480.54L57.964,487.4L58.192,493.17L58.419,499.67L58.647,505.45L58.874,510.86L59.102,517.36L59.329,522.05L59.557,527.1L59.784,531.43L60.012,535.77L60.239,537.93L60.467,541.54L60.694,545.15L60.922,548.04L61.149,551.29L61.377,553.09L61.604,555.26L61.831,557.78L62.059,559.23L62.286,560.67L62.514,562.48L62.741,564.64L62.969,565.73L63.196,566.81L63.424,568.61L63.651,569.7L63.879,572.22L64.106,574.03L64.334,576.91L64.561,579.08L64.789,580.89L65.016,583.05L65.244,584.13L65.471,585.94L65.699,588.1L65.926,589.91L66.153,591.71L66.381,592.44L66.608,594.24L66.836,595.32L67.063,596.77L67.291,597.85L67.518,599.66L67.746,600.74L67.973,602.18L68.201,603.26L68.428,603.99L68.656,605.79L68.883,606.15L69.111,607.6L69.338,607.6L69.566,607.96L69.793,608.68L70.02,609.76L70.248,609.4L70.475,609.04L70.703,609.04L70.93,610.12L71.158,610.48L71.385,611.21L71.613,611.21L71.84,612.29L72.068,613.01L72.295,613.01L72.523,614.09L72.75,614.45L72.978,615.18L73.205,616.26L73.433,616.98L73.66,618.42L73.888,619.15L74.115,620.23L74.342,620.59L74.57,622.4L74.797,623.84L75.025,624.56L75.252,624.92L75.48,626.37L75.707,627.45L75.935,628.17L76.162,628.53L76.39,629.25L76.617,629.98L76.845,630.34L77.072,631.42L77.3,631.06L77.527,631.06L77.755,631.06L77.982,631.78L78.21,631.78L78.437,632.14L78.664,632.14L78.892,632.86L79.119,632.86L79.347,633.22L79.574,633.95L79.802,633.95L80.029,634.31L80.257,634.31L80.484,634.67L80.712,635.03L80.939,635.03L81.167,634.67L81.394,634.67L81.622,635.03L81.849,635.75L82.077,635.75L82.304,635.75L82.531,635.75L82.759,636.47L82.986,636.47L83.214,636.83L83.441,636.83L83.669,637.19L83.896,637.19L84.124,637.92L84.351,637.92L84.579,637.92L84.806,638.28L85.034,638.28L85.261,638.28L85.489,638.64L85.716,638.64L85.944,638.64L86.171,638.28L86.399,638.28L86.626,638.28L86.853,638.64L87.081,638.64L87.308,638.64L87.536,638.64L87.763,639L87.991,639.36L88.218,639.36L88.446,639.36L88.673,639.72L88.901,639.72L89.128,640.08L89.356,640.08L89.583,640.8L89.811,641.17L90.038,641.17L90.266,641.53L90.493,641.89L90.721,642.61L90.948,642.61L91.175,642.61L91.403,642.97L91.63,643.33L91.858,644.05L92.085,644.41L92.313,644.77L92.54,644.77L92.768,645.14L92.995,645.86L93.223,646.22L93.45,646.94L93.678,646.94L93.905,647.3L94.133,647.3L94.36,647.3L94.588,647.3L94.815,647.66L95.043,648.38L95.27,648.02L95.497,648.02L95.725,648.38L95.952,648.38L96.18,649.11L96.407,649.11L96.635,649.47L96.862,649.47L97.09,649.47L97.317,649.83L97.545,649.83L97.772,650.19L98,650.19L98.227,650.19L98.455,650.19L98.682,649.83L98.91,650.19L99.137,650.55L99.364,650.55L99.592,650.19L99.819,650.19L100.05,650.19L100.27,650.19L100.5,650.91L100.73,650.91L100.96,650.91L101.18,650.91L101.41,651.27L101.64,651.63L101.87,651.63L102.09,651.99L102.32,652.35L102.55,652.72L102.78,653.08L103,653.44L103.23,653.8L103.46,654.52L103.69,654.88L103.91,654.88L104.14,654.88L104.37,654.88L104.6,655.24L104.82,655.24L105.05,655.6L105.28,655.6L105.51,655.6L105.73,655.6L105.96,655.6L106.19,655.96L106.42,655.96L106.64,656.33L106.87,656.69L107.1,656.69L107.33,656.69L107.55,656.69L107.78,657.05L108.01,656.69L108.24,657.05L108.46,657.05L108.69,656.69L108.92,656.69L109.15,656.33L109.37,656.69L109.6,657.41L109.83,657.41L110.06,657.41L110.28,657.41L110.51,657.41L110.74,657.77L110.97,658.13L111.19,658.49L111.42,658.49L111.65,658.49L111.88,658.85L112.1,659.21L112.33,659.57L112.56,659.57L112.79,659.93L113.01,659.93L113.24,660.3L113.47,660.3L113.7,660.66L113.92,661.02L114.15,661.02L114.38,661.38L114.61,661.74L114.83,661.74L115.06,661.74L115.29,661.74L115.52,662.1L115.74,662.82L115.97,662.82L116.2,662.82L116.42,662.82L116.65,663.18L116.88,662.82L117.11,663.54L117.33,663.54L117.56,663.54L117.79,663.91L118.02,663.54L118.24,664.27L118.47,664.27L118.7,664.27L118.93,664.63L119.15,664.99L119.38,664.99L119.61,665.35L119.84,665.35L120.06,665.35L120.29,665.35L120.52,665.71L120.75,666.07L120.97,666.07L121.2,666.07L121.43,666.07L121.66,666.07L121.88,666.07L122.11,666.79L122.34,666.79L122.57,667.15L122.79,667.15L123.02,667.15L123.25,667.52L123.48,667.52L123.7,667.88L123.93,667.88L124.16,667.88L124.39,668.24L124.61,668.24L124.84,668.6L125.07,668.6L125.3,668.6L125.52,668.96L125.75,669.32L125.98,669.32L126.21,668.96L126.43,668.96L126.66,668.96L126.89,668.6L127.12,669.32L127.34,669.32L127.57,669.32L127.8,669.32L128.03,669.32L128.25,668.96L128.48,669.32L128.71,669.68L128.94,669.32L129.16,669.68L129.39,669.68L129.62,669.68L129.85,670.04L130.07,670.04L130.3,670.4L130.53,670.4L130.76,670.4L130.98,670.4L131.21,670.4L131.44,670.76L131.67,670.4L131.89,670.76L132.12,670.76L132.35,671.49L132.58,671.49L132.8,671.49L133.03,671.49L133.26,671.49L133.49,671.49L133.71,671.85L133.94,672.21L134.17,672.57L134.4,672.57L134.62,672.57L134.85,672.57L135.08,672.57L135.31,672.57L135.53,672.57L135.76,672.57L135.99,672.93L136.22,672.93L136.44,672.93L136.67,673.29L136.9,673.29L137.12,673.29L137.35,673.29L137.58,674.01L137.81,674.37L138.03,674.37L138.26,674.73L138.49,674.73L138.72,674.73L138.94,674.73L139.17,674.73L139.4,675.46L139.63,675.46L139.85,675.82L140.08,675.82L140.31,675.46L140.54,675.46L140.76,675.82L140.99,675.82L141.22,676.18L141.45,676.18L141.67,676.54L141.9,676.54L142.13,677.26L142.36,677.26L142.58,677.26L142.81,677.26L143.04,677.26L143.27,677.26L143.49,677.26L143.72,677.62L143.95,677.62L144.18,677.62L144.4,677.62L144.63,677.62L144.86,677.62L145.09,678.34L145.31,678.34L145.54,678.34L145.77,678.34L146,678.34L146.22,678.34L146.45,678.7L146.68,679.07L146.91,678.7L147.13,679.07L147.36,679.07L147.59,679.07L147.82,679.07L148.04,679.43L148.27,679.43L148.5,679.43L148.73,679.43L148.95,679.43L149.18,679.43L149.41,679.43L149.64,681.59L149.86,681.59L150.09,681.59L150.32,681.59L150.55,681.95L150.77,681.95L151,681.95L151.23,682.68L151.46,682.68L151.68,682.68L151.91,682.68L152.14,682.68L152.37,682.68L152.59,683.04L152.82,683.04L153.05,683.4L153.28,683.4L153.5,683.4L153.73,683.4L153.96,683.4L154.19,683.4L154.41,683.4L154.64,683.76L154.87,683.76L155.1,684.12L155.32,684.12L155.55,684.12L155.78,684.48L156.01,684.48L156.23,684.48L156.46,684.84L156.69,684.48L156.92,684.48L157.14,684.84L157.37,685.2L157.6,684.84L157.83,684.84L158.05,684.84L158.28,684.84L158.51,685.2L158.73,685.2L158.96,685.2L159.19,685.56L159.42,685.56L159.64,685.56L159.87,685.2L160.1,685.2L160.33,685.2L160.55,685.56L160.78,685.56L161.01,685.56L161.24,685.92L161.46,685.92L161.69,685.92L161.92,685.92L162.15,685.92L162.37,685.92L162.6,685.92L162.83,685.92L163.06,685.92L163.28,685.92L163.51,685.92L163.74,685.92L163.97,685.92L164.19,685.92L164.42,685.92L164.65,685.92L164.88,686.28L165.1,686.28L165.33,686.28L165.56,686.65L165.79,686.65L166.01,686.65L166.24,686.65L166.47,686.65L166.7,686.28L166.92,686.28L167.15,686.65L167.38,686.28L167.61,686.65L167.83,686.28L168.06,686.28L168.29,686.28L168.52,685.92L168.74,685.92L168.97,686.65L169.2,686.28L169.43,686.28L169.65,686.65L169.88,686.65L170.11,686.65L170.34,686.28L170.56,686.28L170.79,686.28L171.02,686.28L171.25,686.28L171.47,686.28L171.7,686.28L171.93,686.28L172.16,686.65L172.38,686.65L172.61,686.28L172.84,686.28L173.07,686.28L173.29,686.28L173.52,686.28L173.75,686.28L173.98,686.65L174.2,686.65L174.43,686.28L174.66,686.28L174.89,686.28L175.11,685.92L175.34,685.92L175.57,686.28L175.8,685.92L176.02,685.92L176.25,685.92L176.48,685.56L176.71,685.56L176.93,685.56L177.16,685.2L177.39,685.2L177.62,684.84L177.84,685.2L178.07,684.84L178.3,685.2L178.53,684.84L178.75,685.2L178.98,684.84L179.21,684.84L179.43,684.84L179.66,684.48L179.89,684.84L180.12,684.84L180.34,684.84L180.57,684.84L180.8,684.84L181.03,684.84L181.25,684.84L181.48,684.48L181.71,684.48L181.94,684.48L182.16,684.84L182.39,684.48L182.62,684.48L182.85,684.48L183.07,684.12L183.3,684.12L183.53,684.12L183.76,683.76L183.98,684.12L184.21,684.12L184.44,683.76L184.67,684.12L184.89,684.12L185.12,684.12L185.35,683.76L185.58,683.76L185.8,683.76L186.03,683.4L186.26,683.4L186.49,683.04L186.71,683.4L186.94,683.4L187.17,683.4L187.4,683.76L187.62,683.4L187.85,683.4L188.08,683.4L188.31,683.4L188.53,683.4L188.76,683.4L188.99,683.4L189.22,683.76L189.44,683.76L189.67,683.76L189.9,683.76L190.13,683.76L190.35,683.76L190.58,683.76L190.81,683.76L191.04,683.76L191.26,683.76L191.49,684.12L191.72,684.12L191.95,684.12L192.17,684.12L192.4,684.12L192.63,684.12L192.86,684.48L193.08,684.48L193.31,684.48L193.54,684.48L193.77,684.48L193.99,684.48L194.22,684.84L194.45,684.84L194.68,684.84L194.9,684.84L195.13,684.84L195.36,684.84L195.59,684.84L195.81,684.84L196.04,684.84L196.27,684.84L196.5,685.2L196.72,685.2L196.95,685.2L197.18,685.2L197.41,684.84L197.63,684.84L197.86,684.84L198.09,684.84L198.32,684.84L198.54,685.2L198.77,685.2L199,685.56L199.23,685.56L199.45,685.56L199.68,685.56L199.91,685.56L200.13,685.56L200.36,685.92L200.59,685.92L200.82,685.92L201.04,685.92L201.27,686.28L201.5,686.28L201.73,686.28L201.95,686.28L202.18,686.65L202.41,686.28L202.64,686.28L202.86,686.28L203.09,686.28L203.32,686.28L203.55,686.28L203.77,686.28L204,686.65L204.23,686.65L204.46,686.65L204.68,686.65L204.91,686.28L205.14,686.65L205.37,686.28L205.59,686.28L205.82,686.28L206.05,686.65L206.28,686.65L206.5,687.01L206.73,686.65L206.96,686.65L207.19,686.65L207.41,686.65L207.64,686.65L207.87,686.65L208.1,686.65L208.32,686.65L208.55,686.65L208.78,687.01L209.01,687.01L209.23,687.01L209.46,687.01L209.69,687.01L209.92,687.01L210.14,687.01L210.37,687.01L210.6,687.01L210.83,687.01L211.05,687.01L211.28,686.65L211.51,687.37L211.74,687.37L211.96,687.37L212.19,687.37L212.42,687.37L212.65,687.37L212.87,687.37L213.1,687.37L213.33,687.73L213.56,687.73L213.78,687.73L214.01,688.09L214.24,688.45L214.47,688.45L214.69,688.45L214.92,688.45L215.15,688.45L215.38,688.45L215.6,688.45L215.83,688.09L216.06,688.45L216.29,688.45L216.51,688.45L216.74,688.45L216.97,688.81L217.2,688.81L217.42,688.81L217.65,688.45L217.88,688.45L218.11,688.81L218.33,688.81L218.56,688.81L218.79,688.81L219.02,688.81L219.24,688.81L219.47,689.17L219.7,689.17L219.93,689.17L220.15,689.17L220.38,689.17L220.61,689.17L220.83,688.81L221.06,688.81L221.29,688.81L221.52,688.81L221.74,688.81L221.97,688.81L222.2,689.17L222.43,689.53L222.65,689.53L222.88,689.53L223.11,689.53L223.34,689.53L223.56,689.53L223.79,689.17L224.02,689.17L224.25,689.17L224.47,689.53L224.7,689.53L224.93,689.89L225.16,689.89L225.38,689.89L225.61,689.89L225.84,689.89L226.07,689.89L226.29,689.89L226.52,689.89L226.75,689.89L226.98,689.89L227.2,689.89L227.43,689.89L227.66,689.89L227.89,689.89L228.11,689.89L228.34,689.89L228.57,689.89L228.8,689.89L229.02,689.89L229.25,689.89L229.48,689.89L229.71,689.53L229.93,689.53L230.16,689.89L230.39,689.89L230.62,690.26L230.84,690.26L231.07,690.26L231.3,689.89L231.53,689.89L231.75,689.89L231.98,689.89L232.21,689.89L232.44,689.89L232.66,690.26L232.89,690.62L233.12,690.62L233.35,690.62L233.57,690.62L233.8,690.98L234.03,690.62L234.26,690.62L234.48,690.62L234.71,690.62L234.94,690.98L235.17,690.98L235.39,690.98L235.62,690.98L235.85,691.34L236.08,691.34L236.3,691.34L236.53,691.34L236.76,691.34L236.99,691.34L237.21,691.7L237.44,691.7L237.67,691.7L237.9,691.7L238.12,691.7L238.35,691.7L238.58,691.7L238.81,691.7L239.03,692.06L239.26,692.42L239.49,692.42L239.72,692.42L239.94,692.42L240.17,692.42L240.4,692.42L240.63,692.42L240.85,692.42L241.08,692.42L241.31,692.42L241.54,692.78L241.76,693.14L241.99,692.78L242.22,692.78L242.44,692.78L242.67,692.78L242.9,692.78L243.13,692.78L243.35,692.78L243.58,693.14L243.81,693.14L244.04,693.14L244.26,693.14L244.49,693.14L244.72,693.5L244.95,693.14L245.17,693.14L245.4,693.14L245.63,693.14L245.86,693.14L246.08,693.5L246.31,693.14L246.54,693.14L246.77,693.14L246.99,693.14L247.22,692.78L247.45,693.14L247.68,693.5L247.9,693.14L248.13,693.14L248.36,693.5L248.59,693.14L248.81,693.14L249.04,693.14L249.27,693.14L249.5,693.14L249.72,693.14L249.95,693.14L250.18,693.14L250.41,693.86L250.63,693.86L250.86,693.5L251.09,693.5L251.32,693.5L251.54,693.5L251.77,693.5L252,693.5L252.23,693.5L252.45,693.5L252.68,693.5L252.91,693.86L253.14,693.86L253.36,693.86L253.59,694.23L253.82,694.23L254.05,694.23L254.27,694.23L254.5,694.23L254.73,693.86L254.96,693.86L255.18,694.23L255.41,694.23L255.64,693.86L255.87,693.86L256.09,693.86L256.32,694.23L256.55,694.23L256.78,694.23L257,694.23L257.23,694.23L257.46,694.59L257.69,694.23L257.91,694.23L258.14,694.23L258.37,694.23L258.6,694.23L258.82,694.23L259.05,694.23L259.28,694.23L259.51,694.23L259.73,694.59L259.96,694.59L260.19,694.59L260.42,694.59L260.64,694.59L260.87,694.59L261.1,694.59L261.33,694.59L261.55,694.59L261.78,694.59L262.01,694.59L262.24,694.59L262.46,694.95L262.69,694.95L262.92,694.95L263.14,694.95L263.37,694.95L263.6,694.95L263.83,694.95L264.05,694.95L264.28,694.95L264.51,694.95L264.74,694.95L264.96,694.95L265.19,694.95L265.42,694.95L265.65,695.31L265.87,695.31L266.1,695.31L266.33,695.31L266.56,695.31L266.78,694.95L267.01,694.95L267.24,695.31L267.47,695.31L267.69,694.95L267.92,694.95L268.15,694.95L268.38,694.95L268.6,694.95L268.83,694.95L269.06,695.31L269.29,695.31L269.51,695.31L269.74,695.31L269.97,695.31L270.2,695.31L270.42,694.95L270.65,694.95L270.88,694.95L271.11,694.95L271.33,694.59L271.56,694.59L271.79,694.59L272.02,694.59L272.24,694.95L272.47,694.95L272.7,694.95L272.93,694.95L273.15,694.95L273.38,694.59L273.61,694.59L273.84,694.59L274.06,694.59L274.29,694.59L274.52,694.59L274.75,694.59L274.97,694.59L275.2,694.59L275.43,694.95L275.66,694.59L275.88,694.59L276.11,694.59L276.34,694.59L276.57,694.59L276.79,694.23L277.02,694.23L277.25,694.59L277.48,694.23L277.7,694.23L277.93,694.23L278.16,693.86L278.39,693.86L278.61,693.86L278.84,694.23L279.07,694.23L279.3,694.23L279.52,693.86L279.75,694.23L279.98,694.23L280.21,694.23L280.43,694.23L280.66,694.23L280.89,693.86L281.12,693.86L281.34,693.86L281.57,693.86L281.8,693.86L282.03,693.86L282.25,694.23L282.48,694.23L282.71,694.23L282.94,694.23L283.16,694.23L283.39,694.23L283.62,694.23L283.84,694.23L284.07,694.23L284.3,694.23L284.53,694.23L284.75,694.23L284.98,694.59L285.21,694.59L285.44,694.95L285.66,694.95L285.89,694.95L286.12,694.95L286.35,694.95L286.57,694.95L286.8,694.59L287.03,694.59L287.26,694.59L287.48,694.95L287.71,694.95L287.94,694.95L288.17,694.95L288.39,694.95L288.62,694.59L288.85,694.95L289.08,694.95L289.3,694.95L289.53,694.95L289.76,694.95L289.99,694.95L290.21,695.31L290.44,694.95L290.67,695.31L290.9,695.31L291.12,695.31L291.35,695.31L291.58,695.31L291.81,695.31L292.03,694.95L292.26,695.67L292.49,695.67L292.72,695.67L292.94,695.67L293.17,695.67L293.4,695.67L293.63,695.67L293.85,695.67L294.08,695.67L294.31,695.31L294.54,695.67L294.76,695.67L294.99,695.31L295.22,695.31L295.45,695.67L295.67,696.03L295.9,696.03L296.13,696.03L296.36,696.03L296.58,696.03L296.81,696.03L297.04,696.03L297.27,695.67L297.49,695.67L297.72,695.67L297.95,696.03L298.18,696.03L298.4,695.67L298.63,695.67L298.86,696.03L299.09,696.03L299.31,695.67L299.54,695.67L299.77,695.67L300,695.67L300.22,695.67L300.45,695.67L300.68,695.67L300.91,695.31L301.13,695.31L301.36,695.31L301.59,695.31L301.82,695.31L302.04,695.31L302.27,695.31L302.5,695.67L302.73,695.67L302.95,695.31L303.18,695.31L303.41,695.67L303.64,695.67L303.86,695.67L304.09,695.67L304.32,695.67L304.55,695.67L304.77,695.67L305,695.67L305.23,695.67L305.45,695.67L305.68,695.67L305.91,696.03L306.14,696.03L306.36,696.03L306.59,696.39L306.82,696.39L307.05,696.39L307.27,696.39L307.5,696.39L307.73,696.39L307.96,696.03L308.18,696.03L308.41,696.03L308.64,696.39L308.87,696.39L309.09,696.39L309.32,696.39L309.55,696.75L309.78,696.75L310,696.75L310.23,696.75L310.46,696.75L310.69,696.75L310.91,696.75L311.14,696.75L311.37,696.75L311.6,697.11L311.82,697.11L312.05,697.11L312.28,697.11L312.51,697.11L312.73,697.11L312.96,697.47L313.19,697.47L313.42,697.47L313.64,697.47L313.87,697.47L314.1,697.11L314.33,697.47L314.55,697.47L314.78,697.47L315.01,697.47L315.24,697.47L315.46,697.47L315.69,697.47L315.92,697.47L316.15,697.47L316.37,697.11L316.6,697.47L316.83,697.47L317.06,697.84L317.28,697.47L317.51,697.47L317.74,697.47L317.97,697.47L318.19,697.47L318.42,697.47L318.65,697.47L318.88,697.11L319.1,697.11L319.33,697.11L319.56,696.75L319.79,697.11L320.01,697.11L320.24,697.11L320.47,697.11L320.7,697.11L320.92,697.11L321.15,697.11L321.38,696.75L321.61,696.75L321.83,696.75L322.06,696.75L322.29,696.39L322.52,696.39L322.74,696.39L322.97,696.39L323.2,696.39L323.43,696.39L323.65,696.39L323.88,696.75L324.11,696.75L324.34,696.39L324.56,696.39L324.79,696.39L325.02,696.39L325.25,696.39L325.47,696.39L325.7,696.39L325.93,696.39L326.15,696.39L326.38,696.39L326.61,696.39L326.84,696.39L327.06,696.39L327.29,696.39L327.52,696.75L327.75,696.75L327.97,696.75L328.2,696.75L328.43,697.11L328.66,697.11L328.88,697.11L329.11,697.11L329.34,697.11L329.57,697.11L329.79,697.11L330.02,697.11L330.25,697.11L330.48,697.11L330.7,697.11L330.93,697.11L331.16,697.11L331.39,697.84L331.61,697.84L331.84,697.84L332.07,697.84L332.3,697.84L332.52,697.84L332.75,697.84L332.98,697.47L333.21,697.47L333.43,697.47L333.66,697.11L333.89,697.11L334.12,697.11L334.34,697.47L334.57,697.47L334.8,697.47L335.03,697.47L335.25,697.47L335.48,697.84L335.71,697.84L335.94,697.84L336.16,697.84L336.39,697.84L336.62,697.84L336.85,697.84L337.07,697.84L337.3,697.84L337.53,697.84L337.76,697.84L337.98,697.84L338.21,697.84L338.44,697.84L338.67,697.84L338.89,697.84L339.12,698.2L339.35,698.2L339.58,698.2L339.8,698.2L340.03,698.2L340.26,698.2L340.49,698.2L340.71,698.2L340.94,698.2L341.17,698.2L341.4,698.2L341.62,698.2L341.85,698.2L342.08,698.2L342.31,698.2L342.53,698.2L342.76,698.2L342.99,698.56L343.22,698.92L343.44,698.92L343.67,698.92L343.9,698.92L344.13,698.56L344.35,698.56L344.58,698.56L344.81,698.56L345.04,698.56L345.26,698.56L345.49,698.92L345.72,698.92L345.95,698.92L346.17,698.92L346.4,698.92L346.63,698.92L346.85,698.92L347.08,699.28L347.31,699.28L347.54,699.28L347.76,699.28L347.99,699.28L348.22,699.28L348.45,699.28L348.67,698.92L348.9,698.92L349.13,698.92L349.36,699.28L349.58,699.28L349.81,699.28L350.04,699.28L350.27,699.28L350.49,698.92L350.72,698.92L350.95,699.28L351.18,699.64L351.4,699.64L351.63,699.64L351.86,699.64L352.09,699.64L352.31,699.64L352.54,699.64L352.77,699.64L353,699.64L353.22,699.64L353.45,699.64L353.68,699.64L353.91,699.28L354.13,699.28L354.36,699.28L354.59,699.28L354.82,699.28L355.04,699.64L355.27,699.64L355.5,699.64L355.73,699.64L355.95,699.64L356.18,699.64L356.41,699.64L356.64,699.64L356.86,699.64L357.09,699.28L357.32,699.28L357.55,699.28L357.77,699.28L358,699.28L358.23,699.28L358.46,699.28L358.68,699.64L358.91,699.28L359.14,699.64L359.37,700L359.59,700L359.82,700L360.05,700L360.28,700L360.5,700L360.73,700L360.96,699.64L361.19,700L361.41,699.64L361.64,700L361.87,700L362.1,700L362.32,699.64L362.55,699.64L362.78,699.64L363.01,699.64L363.23,700L363.46,700.36L363.69,700L363.92,700L364.14,700L364.37,700L364.6,700L364.83,700.36L365.05,700.36L365.28,700.36L365.51,700.36L365.74,700.36L365.96,700.36L366.19,700.36L366.42,700.36L366.65,700.36L366.87,700.36L367.1,700.36L367.33,700.36L367.55,700.72L367.78,700.72L368.01,700.72L368.24,700.72L368.46,700.72L368.69,700.72L368.92,700.72L369.15,700.72L369.37,700.72L369.6,700.72L369.83,700.72L370.06,700.72L370.28,700.72L370.51,700.72L370.74,700.72L370.97,700.72L371.19,700.72L371.42,701.08L371.65,701.44L371.88,701.44L372.1,701.08L372.33,701.08L372.56,701.08L372.79,701.08L373.01,701.08L373.24,701.08L373.47,701.08L373.7,701.08L373.92,701.08L374.15,701.08L374.38,701.08L374.61,701.08L374.83,701.08L375.06,701.08L375.29,701.08L375.52,701.08L375.74,701.44" style="fill:none;stroke:#F15A60;stroke-width:1.875" />
<path d="M53.188,119.58L53.415,164.7L53.642,198.99L53.87,221.01L54.097,238.7L54.325,250.61L54.552,261.8L54.78,271.55L55.007,293.56L55.235,300.06L55.462,304.39L55.69,312.69L55.917,333.27L56.145,339.77L56.372,345.54L56.6,350.23L56.827,354.2L57.055,356.73L57.282,357.81L57.509,359.26L57.737,362.87L57.964,365.03L58.192,367.92" style="fill:none;stroke:#7AC36A;stroke-width:1.875;stroke-dasharray:7.5,2.5" />
<path d="M53.188,47.03L53.415,59.663L53.642,71.936L53.87,84.57L54.097,95.398L54.325,105.51L54.552,117.78L54.78,125.72L55.007,133.3L55.235,140.88L55.462,147.74L55.69,156.04L55.917,160.73L56.145,166.51L56.372,171.56L56.6,175.17L56.827,179.5L57.055,183.83L57.282,187.08L57.509,191.05L57.737,193.58L57.964,196.83L58.192,199.35L58.419,202.24L58.647,204.41L58.874,207.29L59.102,208.74L59.329,210.9L59.557,212.71L59.784,214.87L60.012,217.04L60.239,218.85L60.467,220.29L60.694,222.09L60.922,223.9L61.149,224.98L61.377,226.79L61.604,227.87L61.831,229.67L62.059,231.12L62.286,232.56L62.514,233.64L62.741,235.09L62.969,236.17L63.196,237.25L63.424,237.98L63.651,239.78L63.879,240.5L64.106,241.59L64.334,242.67L64.561,243.39L64.789,244.83L65.016,245.56L65.244,246.64L65.471,247.36L65.699,248.8L65.926,249.17L66.153,249.89L66.381,250.97L66.608,251.69L66.836,252.05L67.063,253.14L67.291,253.86L67.518,254.22L67.746,254.94L67.973,256.02L68.201,257.11L68.428,257.47L68.656,257.83L68.883,258.55L69.111,259.27L69.338,259.99L69.566,260.36L69.793,260.36L70.02,261.08L70.248,262.16L70.475,262.52L70.703,263.24L70.93,263.6L71.158,263.97L71.385,264.33L71.613,265.05L71.84,265.41L72.068,265.77L72.295,266.13L72.523,266.49L72.75,266.85L72.978,267.21L73.205,267.57L73.433,267.57L73.66,267.94L73.888,268.3L74.115,268.3L74.342,268.66L74.57,269.02L74.797,269.74L75.025,269.74L75.252,270.46L75.48,270.82L75.707,270.82L75.935,271.55L76.162,271.55L76.39,271.55L76.617,272.27L76.845,272.27L77.072,272.63L77.3,272.63L77.527,272.99L77.755,273.71L77.982,273.71L78.21,274.07L78.437,274.07L78.664,274.79L78.892,274.79L79.119,275.15L79.347,275.52L79.574,275.52L79.802,276.24L80.029,276.6L80.257,276.96L80.484,276.96L80.712,277.32L80.939,277.32L81.167,278.04L81.394,278.04L81.622,278.4L81.849,278.04L82.077,278.4L82.304,278.76L82.531,279.13L82.759,279.49L82.986,280.21L83.214,280.21L83.441,280.21L83.669,280.57L83.896,280.93L84.124,281.29L84.351,281.65L84.579,282.01L84.806,282.01L85.034,282.37L85.261,282.73L85.489,282.73L85.716,283.1L85.944,283.46L86.171,283.46L86.399,283.82L86.626,283.82L86.853,284.18L87.081,284.18L87.308,284.18L87.536,284.54L87.763,284.54L87.991,284.9L88.218,284.9L88.446,285.26L88.673,285.26L88.901,285.62L89.128,285.62L89.356,285.98L89.583,285.98L89.811,286.34L90.038,286.34L90.266,286.71L90.493,286.71L90.721,286.71L90.948,287.07L91.175,287.07L91.403,287.07L91.63,287.07L91.858,287.43L92.085,287.43L92.313,287.79L92.54,287.79L92.768,288.15L92.995,287.79L93.223,288.15L93.45,288.15L93.678,288.15L93.905,288.51L94.133,288.15L94.36,288.51L94.588,288.51L94.815,288.51L95.043,288.51L95.27,288.15L95.497,288.51L95.725,288.51L95.952,288.51L96.18,288.51L96.407,288.51L96.635,288.51L96.862,288.51L97.09,288.87L97.317,288.87L97.545,288.87L97.772,289.23L98,289.23L98.227,289.23L98.455,289.23L98.682,289.23L98.91,289.59L99.137,289.59L99.364,289.95L99.592,289.95L99.819,289.95L100.05,289.95L100.27,290.32L100.5,290.32L100.73,289.95L100.96,290.32L101.18,290.68L101.41,290.68L101.64,290.68L101.87,291.04L102.09,291.04L102.32,291.04L102.55,291.4L102.78,291.4L103,291.4L103.23,291.4L103.46,291.4L103.69,291.4L103.91,291.4L104.14,291.4L104.37,291.4L104.6,291.4L104.82,291.4L105.05,291.4L105.28,291.4L105.51,291.76L105.73,291.4L105.96,291.4L106.19,291.76L106.42,291.76L106.64,291.76L106.87,291.76L107.1,292.12L107.33,291.76L107.55,292.12L107.78,292.12L108.01,292.12L108.24,292.12L108.46,292.48L108.69,292.48L108.92,292.48L109.15,292.48L109.37,292.48L109.6,292.48L109.83,292.48L110.06,292.48L110.28,292.84L110.51,292.84L110.74,292.84L110.97,292.84L111.19,293.2L111.42,293.2L111.65,293.2L111.88,293.56L112.1,293.2L112.33,293.2L112.56,293.56L112.79,293.56L113.01,293.56L113.24,293.56L113.47,293.56L113.7,293.56L113.92,293.56L114.15,293.56L114.38,293.56L114.61,293.56L114.83,293.92L115.06,293.92L115.29,293.92L115.52,293.92L115.74,294.29L115.97,294.29L116.2,294.29L116.42,294.29L116.65,294.65L116.88,294.65L117.11,294.65L117.33,295.01L117.56,294.65L117.79,294.65L118.02,295.01L118.24,295.01L118.47,295.01L118.7,295.01L118.93,295.37L119.15,295.37L119.38,295.37L119.61,295.37L119.84,295.73L120.06,295.37L120.29,295.37L120.52,295.73L120.75,295.73L120.97,295.73L121.2,295.73L121.43,296.09L121.66,296.09L121.88,295.73L122.11,295.73L122.34,295.73L122.57,296.09L122.79,295.73L123.02,296.09L123.25,296.09L123.48,295.73L123.7,296.09L123.93,296.09L124.16,296.09L124.39,296.45L124.61,296.45L124.84,296.81L125.07,296.81L125.3,296.81L125.52,297.17L125.75,297.17L125.98,297.17L126.21,297.17L126.43,297.53L126.66,297.53L126.89,297.53L127.12,297.9L127.34,297.9L127.57,297.9L127.8,298.26L128.03,298.26L128.25,298.26L128.48,298.26L128.71,298.62L128.94,298.62L129.16,298.98L129.39,298.98L129.62,298.98L129.85,298.98L130.07,299.34L130.3,299.34L130.53,299.7L130.76,300.06L130.98,300.78L131.21,300.42L131.44,300.78L131.67,300.78L131.89,301.14L132.12,301.14L132.35,301.14L132.58,301.14L132.8,301.5L133.03,301.5L133.26,301.87L133.49,301.87L133.71,301.87L133.94,302.23L134.17,302.23L134.4,302.95L134.62,302.59L134.85,302.95L135.08,302.59L135.31,302.95L135.53,302.95L135.76,303.31L135.99,302.95L136.22,303.31L136.44,303.31L136.67,303.67L136.9,303.67L137.12,303.31L137.35,304.03L137.58,303.67L137.81,303.67L138.03,304.03L138.26,304.39L138.49,304.03L138.72,304.39L138.94,304.39L139.17,304.75L139.4,304.39L139.63,304.39L139.85,304.75L140.08,304.75L140.31,305.48L140.54,305.48L140.76,305.84L140.99,305.84L141.22,306.2L141.45,306.2L141.67,306.2L141.9,306.56L142.13,306.56L142.36,306.56L142.58,306.56L142.81,306.56L143.04,306.92L143.27,306.92L143.49,307.28L143.72,307.28L143.95,307.28L144.18,307.64L144.4,307.64L144.63,308L144.86,307.64L145.09,307.64L145.31,308L145.54,308L145.77,308.36L146,308L146.22,308.36L146.45,308.36L146.68,308.72L146.91,308.36L147.13,308.72L147.36,308.72L147.59,309.08L147.82,309.08L148.04,309.08L148.27,309.08L148.5,309.08L148.73,309.08L148.95,309.81L149.18,309.45L149.41,309.45L149.64,309.81L149.86,309.81L150.09,309.81L150.32,309.81L150.55,310.17L150.77,310.53L151,310.17L151.23,310.53L151.46,310.53L151.68,310.53L151.91,310.53L152.14,310.89L152.37,310.89L152.59,310.89L152.82,311.25L153.05,311.25L153.28,311.25L153.5,311.61L153.73,311.61L153.96,311.61L154.19,311.61L154.41,311.97L154.64,311.61L154.87,311.97L155.1,311.97L155.32,311.97L155.55,311.97L155.78,312.33L156.01,312.33L156.23,312.33L156.46,312.69L156.69,312.69L156.92,312.69L157.14,312.69L157.37,313.06L157.6,313.06L157.83,313.06L158.05,313.42L158.28,313.06L158.51,313.06L158.73,313.42L158.96,313.78L159.19,314.14L159.42,314.14L159.64,314.14L159.87,314.14L160.1,314.14L160.33,314.14L160.55,314.5L160.78,314.5L161.01,314.86L161.24,314.86L161.46,314.86L161.69,314.86L161.92,314.86L162.15,314.86L162.37,315.22L162.6,315.22L162.83,315.22L163.06,315.58L163.28,315.22L163.51,315.58L163.74,315.22L163.97,315.58L164.19,315.58L164.42,315.94L164.65,315.94L164.88,315.94L165.1,316.3L165.33,316.3L165.56,316.3L165.79,316.3L166.01,316.3L166.24,316.66L166.47,316.66L166.7,316.66L166.92,316.66L167.15,317.03L167.38,317.03L167.61,316.66L167.83,317.03L168.06,317.39L168.29,317.03L168.52,317.39L168.74,317.39L168.97,317.39L169.2,317.39L169.43,317.75L169.65,317.75L169.88,317.75L170.11,317.39L170.34,318.11L170.56,317.75L170.79,317.75L171.02,317.75L171.25,317.75L171.47,317.75L171.7,317.75L171.93,317.75L172.16,317.75L172.38,317.75L172.61,317.75L172.84,317.75L173.07,317.75L173.29,317.75L173.52,317.75L173.75,317.75L173.98,318.11L174.2,318.11L174.43,318.11L174.66,318.11L174.89,318.11L175.11,318.11L175.34,318.11L175.57,318.11L175.8,318.11L176.02,318.11L176.25,318.11L176.48,318.11L176.71,318.11L176.93,318.11L177.16,318.11L177.39,318.11L177.62,318.47L177.84,318.47L178.07,318.47L178.3,318.47L178.53,318.11L178.75,318.47L178.98,318.47L179.21,318.47L179.43,318.47L179.66,318.47L179.89,318.47L180.12,318.47L180.34,318.47L180.57,318.47L180.8,318.47L181.03,318.47L181.25,318.47L181.48,318.47L181.71,318.47L181.94,318.47L182.16,318.47L182.39,318.47L182.62,318.83L182.85,318.83L183.07,318.83L183.3,318.83L183.53,318.83L183.76,318.83L183.98,318.83L184.21,319.55L184.44,319.55L184.67,319.55L184.89,319.55L185.12,319.55L185.35,319.91L185.58,319.91L185.8,319.91L186.03,319.91L186.26,319.55L186.49,319.91L186.71,319.91L186.94,319.91L187.17,319.91L187.4,319.91L187.62,319.91L187.85,320.27L188.08,320.27L188.31,320.27L188.53,320.27L188.76,320.27L188.99,320.27L189.22,320.64L189.44,320.64L189.67,320.64L189.9,320.64L190.13,321.36L190.35,321.36L190.58,321.72L190.81,321.72L191.04,321.72L191.26,321.72L191.49,321.72L191.72,321.72L191.95,321.72L192.17,322.08L192.4,322.08L192.63,322.44L192.86,322.44L193.08,322.08L193.31,322.44L193.54,322.44L193.77,322.44L193.99,322.8L194.22,322.8L194.45,322.8L194.68,322.8L194.9,322.8L195.13,322.8L195.36,323.16L195.59,323.16L195.81,323.16L196.04,323.16L196.27,323.16L196.5,323.16L196.72,323.16L196.95,323.52L197.18,323.52L197.41,323.52L197.63,323.52L197.86,323.52L198.09,323.52L198.32,323.88L198.54,323.88L198.77,323.88L199,323.88L199.23,323.88L199.45,323.88L199.68,324.24L199.91,324.24L200.13,324.24L200.36,324.24L200.59,324.61L200.82,324.24L201.04,324.24L201.27,324.24L201.5,324.24L201.73,324.24L201.95,324.61L202.18,324.61L202.41,324.61L202.64,324.61L202.86,324.61L203.09,324.97L203.32,324.61L203.55,324.97L203.77,324.97L204,324.97L204.23,324.97L204.46,324.97L204.68,324.97L204.91,324.97L205.14,324.97L205.37,325.33L205.59,325.33L205.82,325.33L206.05,324.97L206.28,325.33L206.5,325.33L206.73,325.33L206.96,325.69L207.19,325.69L207.41,325.69L207.64,325.69L207.87,325.33L208.1,325.33L208.32,325.69L208.55,325.69L208.78,325.69L209.01,325.69L209.23,326.05L209.46,325.69L209.69,326.05L209.92,325.69L210.14,325.69L210.37,326.05L210.6,326.05L210.83,326.41L211.05,326.05L211.28,326.05L211.51,326.77L211.74,326.77L211.96,327.13L212.19,327.13L212.42,327.13L212.65,327.49L212.87,327.13L213.1,327.13L213.33,327.13L213.56,327.49L213.78,327.49L214.01,327.13L214.24,327.49L214.47,327.85L214.69,327.49L214.92,327.85L215.15,327.85L215.38,327.85L215.6,327.85L215.83,328.22L216.06,327.85L216.29,327.85L216.51,328.22L216.74,328.22L216.97,328.22L217.2,328.22L217.42,328.22L217.65,328.58L217.88,328.58L218.11,328.58L218.33,328.58L218.56,328.22L218.79,328.58L219.02,328.58L219.24,328.58L219.47,328.58L219.7,328.58L219.93,328.94L220.15,328.94L220.38,328.94L220.61,328.94L220.83,328.94L221.06,329.3L221.29,329.3L221.52,329.3L221.74,329.3L221.97,329.3L222.2,329.3L222.43,329.3L222.65,329.3L222.88,329.3L223.11,329.3L223.34,329.3L223.56,329.66L223.79,329.66L224.02,329.66L224.25,329.66L224.47,329.66L224.7,329.66L224.93,329.66L225.16,330.02L225.38,330.02L225.61,330.02L225.84,330.02L226.07,330.02L226.29,330.02L226.52,330.02L226.75,330.02L226.98,330.02L227.2,330.38L227.43,330.38L227.66,330.74L227.89,331.1L228.11,331.1L228.34,331.1L228.57,331.1L228.8,331.46L229.02,331.46L229.25,331.1L229.48,331.1L229.71,331.1L229.93,331.83L230.16,331.83L230.39,331.83L230.62,332.19L230.84,331.83L231.07,332.19L231.3,332.19L231.53,332.19L231.75,332.19L231.98,332.19L232.21,332.19L232.44,332.19L232.66,332.19L232.89,332.19L233.12,332.19L233.35,332.55L233.57,332.55L233.8,332.55L234.03,332.55L234.26,332.91L234.48,332.91L234.71,332.91L234.94,332.91L235.17,332.91L235.39,332.91L235.62,333.27L235.85,333.27L236.08,333.27L236.3,333.27L236.53,333.27L236.76,333.27L236.99,333.63L237.21,333.63L237.44,333.27L237.67,333.27L237.9,333.63L238.12,333.63L238.35,333.63L238.58,333.63L238.81,333.63L239.03,333.99L239.26,333.99L239.49,333.99L239.72,333.63L239.94,333.99L240.17,333.99L240.4,333.99L240.63,333.99L240.85,333.99L241.08,333.99L241.31,333.99L241.54,334.35L241.76,334.35L241.99,334.35L242.22,334.35L242.44,334.35L242.67,333.99L242.9,334.35L243.13,334.71L243.35,334.71L243.58,334.35L243.81,334.35L244.04,334.35L244.26,334.71L244.49,334.71L244.72,334.71L244.95,334.71L245.17,334.71L245.4,334.71L245.63,335.07L245.86,335.07L246.08,335.07L246.31,335.07L246.54,335.07L246.77,335.07L246.99,335.07L247.22,335.07L247.45,335.07L247.68,335.8L247.9,335.8L248.13,335.8L248.36,335.8L248.59,335.8L248.81,335.8L249.04,336.16L249.27,335.8L249.5,336.16L249.72,335.8L249.95,335.8L250.18,336.16L250.41,336.16L250.63,336.16L250.86,336.16L251.09,336.16L251.32,336.16L251.54,336.16L251.77,336.16L252,336.16L252.23,336.16L252.45,336.52L252.68,336.52L252.91,336.52L253.14,336.52L253.36,336.88L253.59,336.52L253.82,336.52L254.05,336.52L254.27,336.88L254.5,336.88L254.73,336.88L254.96,336.88L255.18,336.52L255.41,336.88L255.64,336.88L255.87,336.88L256.09,336.88L256.32,336.88L256.55,336.88L256.78,337.24L257,337.24L257.23,337.24L257.46,337.24L257.69,336.88L257.91,337.24L258.14,337.6L258.37,337.96L258.6,337.96L258.82,337.96L259.05,337.6L259.28,337.96L259.51,337.96L259.73,337.96L259.96,337.96L260.19,337.96L260.42,338.32L260.64,337.96L260.87,337.96L261.1,337.96L261.33,337.96L261.55,338.32L261.78,338.32L262.01,338.32L262.24,338.32L262.46,338.32L262.69,338.32L262.92,338.32L263.14,338.32L263.37,338.32L263.6,338.68L263.83,338.68L264.05,338.68L264.28,339.04L264.51,339.04L264.74,339.04L264.96,339.41L265.19,339.41L265.42,339.04L265.65,339.41L265.87,339.41L266.1,339.41L266.33,339.41L266.56,339.41L266.78,339.41L267.01,339.41L267.24,339.41L267.47,339.41L267.69,339.77L267.92,339.77L268.15,339.41L268.38,339.41L268.6,339.41L268.83,339.77L269.06,339.77L269.29,339.77L269.51,339.77L269.74,339.77L269.97,339.77L270.2,339.77L270.42,339.77L270.65,339.77L270.88,339.77L271.11,339.77L271.33,339.77L271.56,340.13L271.79,339.77L272.02,339.77L272.24,339.77L272.47,339.77L272.7,339.77L272.93,340.13L273.15,339.77L273.38,339.77L273.61,339.77L273.84,340.13L274.06,339.77L274.29,340.13L274.52,340.13L274.75,340.13L274.97,340.13L275.2,340.13L275.43,339.77L275.66,340.13L275.88,340.13L276.11,340.13L276.34,340.13L276.57,340.13L276.79,340.13L277.02,340.13L277.25,340.13L277.48,340.13L277.7,340.13L277.93,340.13L278.16,340.13L278.39,340.13L278.61,339.77L278.84,340.13L279.07,340.13L279.3,340.13L279.52,340.13L279.75,340.13L279.98,340.13L280.21,340.13L280.43,340.13L280.66,340.13L280.89,340.13L281.12,340.49L281.34,340.49L281.57,340.13L281.8,340.13L282.03,340.13L282.25,340.49L282.48,340.49L282.71,340.49L282.94,340.49L283.16,340.49L283.39,340.49L283.62,340.49L283.84,340.49L284.07,340.49L284.3,340.13L284.53,340.13L284.75,340.49L284.98,340.49L285.21,340.49L285.44,340.49L285.66,340.49L285.89,340.49L286.12,340.49L286.35,340.49L286.57,340.85L286.8,340.85L287.03,340.85L287.26,341.21L287.48,341.21L287.71,341.21L287.94,341.21L288.17,341.21L288.39,341.21L288.62,341.57L288.85,341.57L289.08,341.21L289.3,341.21L289.53,341.21L289.76,341.57L289.99,341.57L290.21,341.57L290.44,341.21L290.67,341.21L290.9,341.21L291.12,341.57L291.35,341.57L291.58,341.57L291.81,341.57L292.03,341.57L292.26,341.57L292.49,341.57L292.72,342.29L292.94,341.93L293.17,341.93L293.4,341.93L293.63,342.29L293.85,342.29L294.08,342.29L294.31,342.29L294.54,341.93L294.76,342.29L294.99,342.29L295.22,341.93L295.45,342.29L295.67,342.29L295.9,342.29L296.13,342.29L296.36,342.29L296.58,342.29L296.81,342.29L297.04,342.65L297.27,342.29L297.49,342.29L297.72,342.29L297.95,342.29L298.18,342.29L298.4,342.29L298.63,342.65L298.86,342.65L299.09,342.29L299.31,342.29L299.54,342.29L299.77,342.29L300,342.29L300.22,342.29L300.45,342.29L300.68,342.65L300.91,342.65L301.13,342.29L301.36,342.29L301.59,342.29L301.82,342.29L302.04,342.65L302.27,342.65L302.5,342.29L302.73,342.29L302.95,342.29L303.18,342.65L303.41,342.29L303.64,342.29L303.86,342.29L304.09,342.29L304.32,342.29L304.55,342.29L304.77,342.29L305,342.29L305.23,342.29L305.45,342.29L305.68,342.29L305.91,342.65L306.14,342.65L306.36,342.29L306.59,342.29L306.82,342.29L307.05,342.29L307.27,342.65L307.5,342.65L307.73,342.65L307.96,342.29L308.18,342.29L308.41,342.29L308.64,342.65L308.87,342.29L309.09,342.65L309.32,342.65L309.55,342.65L309.78,342.29L310,342.29L310.23,342.29L310.46,342.29L310.69,342.29L310.91,342.29L311.14,342.29L311.37,342.29L311.6,342.65L311.82,342.65L312.05,342.65L312.28,342.65L312.51,342.29L312.73,342.29L312.96,342.65L313.19,342.65L313.42,342.65L313.64,342.65L313.87,342.65L314.1,342.65L314.33,343.38L314.55,343.38L314.78,343.38L315.01,343.01L315.24,343.38L315.46,343.01L315.69,343.01L315.92,343.01L316.15,343.01L316.37,343.38L316.6,343.01L316.83,343.01L317.06,343.38L317.28,343.01L317.51,343.38L317.74,343.01L317.97,343.38L318.19,343.01L318.42,343.01L318.65,343.38L318.88,343.38L319.1,343.38L319.33,343.38L319.56,343.38L319.79,343.38L320.01,343.38L320.24,343.38L320.47,343.38L320.7,343.38L320.92,343.38L321.15,343.38L321.38,343.38L321.61,343.38L321.83,343.38L322.06,343.38L322.29,343.74L322.52,343.38L322.74,343.38L322.97,343.38L323.2,343.38L323.43,343.38L323.65,343.74L323.88,343.74L324.11,343.74L324.34,343.74L324.56,343.38L324.79,343.74L325.02,343.38L325.25,343.38L325.47,343.74L325.7,343.74L325.93,343.74L326.15,343.74L326.38,343.38L326.61,343.38L326.84,343.38L327.06,343.74L327.29,343.74L327.52,343.74L327.75,343.74L327.97,343.74L328.2,343.74L328.43,343.74L328.66,343.74L328.88,343.38L329.11,343.38L329.34,343.38L329.57,343.74L329.79,343.74L330.02,343.74L330.25,343.74L330.48,343.74L330.7,343.74L330.93,343.38L331.16,343.74L331.39,343.38L331.61,343.38L331.84,343.74L332.07,343.74L332.3,343.74L332.52,343.74L332.75,343.74L332.98,343.38L333.21,343.38L333.43,343.38L333.66,343.38L333.89,343.38L334.12,343.74L334.34,343.38L334.57,343.38L334.8,343.38L335.03,343.38L335.25,343.38L335.48,343.74L335.71,343.38L335.94,343.38L336.16,343.38L336.39,344.1L336.62,343.74L336.85,344.1L337.07,344.1L337.3,344.1L337.53,343.74L337.76,343.74L337.98,343.74L338.21,343.74L338.44,343.74L338.67,343.74L338.89,343.74L339.12,344.1L339.35,344.1L339.58,344.1L339.8,344.1L340.03,344.82L340.26,344.46L340.49,344.46L340.71,344.46L340.94,344.46L341.17,344.46L341.4,344.46L341.62,344.46L341.85,344.46L342.08,344.46L342.31,344.82L342.53,344.82L342.76,344.82L342.99,344.46L343.22,344.46L343.44,344.46L343.67,344.46L343.9,344.82L344.13,344.82L344.35,344.82L344.58,344.82L344.81,344.46L345.04,344.46L345.26,344.82L345.49,344.82L345.72,344.82L345.95,344.82L346.17,344.82L346.4,344.82L346.63,344.82L346.85,344.82L347.08,344.82L347.31,344.82L347.54,344.82L347.76,344.82L347.99,344.82L348.22,344.82L348.45,344.82L348.67,344.82L348.9,344.82L349.13,344.82L349.36,344.82L349.58,344.82L349.81,344.82L350.04,344.82L350.27,344.82L350.49,344.82L350.72,344.82L350.95,344.82L351.18,344.82L351.4,345.18L351.63,344.82L351.86,344.82L352.09,344.82L352.31,344.82L352.54,344.82L352.77,344.82L353,345.18L353.22,345.18L353.45,345.18L353.68,345.18L353.91,344.82L354.13,344.82L354.36,344.82L354.59,345.18L354.82,345.18L355.04,345.18L355.27,345.18L355.5,344.82L355.73,344.82L355.95,344.82L356.18,344.82L356.41,345.18L356.64,345.18L356.86,344.82L357.09,345.18L357.32,344.82L357.55,344.82L357.77,344.82L358,344.82L358.23,345.18L358.46,344.82L358.68,344.82L358.91,344.82L359.14,344.82L359.37,344.82L359.59,344.82L359.82,345.18L360.05,345.18L360.28,345.18L360.5,344.82L360.73,344.82L360.96,344.82L361.19,344.82L361.41,344.82L361.64,345.18L361.87,345.18L362.1,345.18L362.32,345.18L362.55,345.18L362.78,345.18L363.01,344.82L363.23,344.82L363.46,344.82L363.69,345.18L363.92,345.54L364.14,345.54L364.37,345.54L364.6,345.54L364.83,345.54L365.05,345.54L365.28,345.54L365.51,345.54L365.74,345.54L365.96,345.9L366.19,345.54L366.42,345.54L366.65,345.54L366.87,345.54L367.1,345.54L367.33,345.54L367.55,345.54L367.78,345.54L368.01,345.54L368.24,345.54L368.46,345.54L368.69,345.9L368.92,345.54L369.15,345.54L369.37,345.54L369.6,345.54L369.83,345.54L370.06,345.54L370.28,345.9L370.51,345.9L370.74,345.54L370.97,345.54L371.19,345.54L371.42,346.26L371.65,346.26L371.88,346.26L372.1,345.9L372.33,346.26L372.56,346.26L372.79,346.26L373.01,346.62L373.24,346.26L373.47,346.26L373.7,346.26L373.92,346.26L374.15,346.26L374.38,346.26L374.61,346.62L374.83,346.26L375.06,346.26L375.29,346.26L375.52,346.26L375.74,346.26L375.97,346.62L376.2,346.26L376.43,346.26L376.65,346.26L376.88,346.26L377.11,346.62L377.34,346.26L377.56,346.26L377.79,346.26L378.02,346.26L378.25,346.26L378.47,346.26L378.7,346.26L378.93,346.26L379.16,346.26L379.38,346.26L379.61,346.26L379.84,346.26L380.07,346.26L380.29,346.26L380.52,346.26L380.75,346.62L380.98,346.62L381.2,346.26L381.43,346.26L381.66,346.26L381.89,346.26L382.11,346.26L382.34,346.26L382.57,346.99L382.8,346.99L383.02,346.99L383.25,346.99L383.48,346.99L383.71,346.99L383.93,346.99L384.16,346.99L384.39,346.99L384.62,346.99L384.84,346.99L385.07,346.99L385.3,346.99L385.53,346.99L385.75,346.99L385.98,346.99L386.21,346.99L386.44,346.99L386.66,346.99L386.89,346.99L387.12,346.99L387.35,347.35L387.57,346.99L387.8,347.35L388.03,347.35L388.26,347.35L388.48,347.35L388.71,346.99L388.94,346.99L389.16,347.35L389.39,347.35L389.62,347.35L389.85,347.35L390.07,347.35L390.3,347.35L390.53,346.99L390.76,346.99L390.98,347.35L391.21,346.99L391.44,347.35L391.67,347.35L391.89,347.35L392.12,347.35L392.35,347.35L392.58,346.99L392.8,346.99L393.03,347.35L393.26,347.35L393.49,347.35L393.71,347.35L393.94,347.35L394.17,347.35L394.4,346.99L394.62,346.99L394.85,347.35L395.08,347.35L395.31,346.99L395.53,347.35L395.76,347.35L395.99,347.35L396.22,347.35L396.44,347.35L396.67,347.35L396.9,347.35L397.13,347.35L397.35,347.35L397.58,347.35L397.81,347.35L398.04,347.35L398.26,346.99L398.49,347.35L398.72,347.35L398.95,347.35L399.17,347.35L399.4,347.35L399.63,347.35L399.86,347.35L400.08,347.35L400.31,347.35L400.54,347.35L400.77,347.35L400.99,347.35L401.22,347.35L401.45,346.99L401.68,347.35L401.9,347.35L402.13,347.35L402.36,347.35L402.59,347.35L402.81,347.35L403.04,347.35L403.27,347.35L403.5,347.35L403.72,346.99L403.95,347.35L404.18,346.99L404.41,346.99L404.63,347.35L404.86,347.35L405.09,347.35L405.32,347.35L405.54,347.35L405.77,346.99L406,346.99L406.23,346.99L406.45,347.35L406.68,346.99L406.91,347.35L407.14,347.35L407.36,347.35L407.59,347.35L407.82,347.35L408.05,347.35L408.27,347.35L408.5,347.35L408.73,347.35L408.96,347.35L409.18,347.35L409.41,347.35L409.64,347.35L409.86,347.71L410.09,347.35L410.32,347.35L410.55,347.35L410.77,347.35L411,347.35L411.23,347.35L411.46,347.35L411.68,347.35L411.91,347.35L412.14,347.35L412.37,347.35L412.59,347.35L412.82,347.35L413.05,347.35L413.28,347.35L413.5,347.71L413.73,347.71L413.96,347.71L414.19,348.07L414.41,348.07L414.64,348.43L414.87,348.79L415.1,349.15L415.32,348.79L415.55,349.15L415.78,349.15L416.01,349.15L416.23,349.15L416.46,349.15L416.69,349.15L416.92,349.15L417.14,349.15L417.37,349.15L417.6,349.15L417.83,349.15L418.05,349.15L418.28,349.15L418.51,349.15L418.74,349.15L418.96,349.15L419.19,349.15L419.42,349.15L419.65,349.15L419.87,349.15L420.1,349.51L420.33,349.51L420.56,349.51L420.78,349.51L421.01,349.51L421.24,349.15L421.47,349.15L421.69,349.15L421.92,349.51L422.15,349.51L422.38,349.51L422.6,349.51L422.83,349.51L423.06,349.51L423.29,349.15L423.51,349.51L423.74,349.51L423.97,349.51L424.2,349.51L424.42,349.51L424.65,349.51L424.88,349.51L425.11,349.51L425.33,349.51L425.56,349.51L425.79,349.51L426.02,349.51L426.24,349.51L426.47,349.51L426.7,349.51L426.93,349.51L427.15,349.51L427.38,349.51L427.61,349.51L427.84,349.51L428.06,349.51L428.29,349.51L428.52,349.51L428.75,349.51L428.97,349.51L429.2,349.51L429.43,349.51L429.66,349.51L429.88,349.51L430.11,349.51L430.34,349.51L430.56,349.51L430.79,349.51L431.02,349.51L431.25,349.51L431.47,349.51L431.7,349.51L431.93,349.51L432.16,349.51L432.38,349.51L432.61,349.51L432.84,349.51L433.07,349.51L433.29,349.51L433.52,349.51L433.75,349.51L433.98,349.51L434.2,349.51L434.43,349.51L434.66,349.87L434.89,349.87L435.11,349.87L435.34,349.87L435.57,349.51L435.8,349.51L436.02,349.51L436.25,349.51L436.48,349.51L436.71,349.51L436.93,349.87L437.16,349.87L437.39,349.87L437.62,349.87L437.84,349.87L438.07,349.51L438.3,349.51L438.53,349.51L438.75,349.51L438.98,349.51L439.21,349.87L439.44,349.87L439.66,349.87L439.89,349.87L440.12,349.87L440.35,349.51L440.57,349.51L440.8,349.51L441.03,349.87L441.26,349.51L441.48,349.87L441.71,349.87L441.94,349.87L442.17,349.87L442.39,349.87L442.62,349.87L442.85,349.51L443.08,349.51L443.3,349.87L443.53,349.87L443.76,349.51L443.99,349.51L444.21,349.87L444.44,350.23L444.67,350.23L444.9,350.59L445.12,350.59L445.35,350.23L445.58,350.59L445.81,350.59L446.03,350.23L446.26,350.23L446.49,350.23L446.72,350.59L446.94,350.59L447.17,350.59L447.4,350.23L447.63,350.23L447.85,350.23L448.08,350.59L448.31,350.59L448.54,350.59L448.76,350.59L448.99,350.59L449.22,350.23L449.45,350.23L449.67,350.23L449.9,350.23L450.13,350.23L450.36,350.23L450.58,350.59L450.81,350.59L451.04,350.59L451.27,350.59L451.49,350.59L451.72,350.59L451.95,350.23L452.17,350.23L452.4,350.59L452.63,350.59L452.86,350.59L453.08,350.59L453.31,350.59L453.54,350.59L453.77,350.59L453.99,350.59L454.22,350.59L454.45,350.59L454.68,350.59L454.9,350.23L455.13,350.23L455.36,350.23L455.59,350.59L455.81,350.59L456.04,350.59L456.27,350.59L456.5,350.59L456.72,350.59L456.95,350.59L457.18,350.59L457.41,350.59L457.63,350.23L457.86,350.23L458.09,350.23L458.32,350.23L458.54,350.59L458.77,350.59L459,350.59L459.23,350.59L459.45,350.59L459.68,350.59L459.91,350.59L460.14,350.59L460.36,350.59L460.59,350.59L460.82,350.59L461.05,350.59L461.27,350.59L461.5,350.59L461.73,350.59L461.96,350.59L462.18,350.96L462.41,350.96L462.64,350.96L462.87,351.32L463.09,351.32L463.32,351.32L463.55,351.32L463.78,351.32L464,351.32L464.23,351.32L464.46,351.32L464.69,351.32L464.91,351.32L465.14,351.32L465.37,351.32L465.6,351.32L465.82,351.32L466.05,350.96L466.28,350.96L466.51,351.68L466.73,351.68L466.96,351.32L467.19,351.32L467.42,351.32L467.64,351.32L467.87,351.32L468.1,351.32L468.33,351.32L468.55,351.32L468.78,351.32L469.01,351.32L469.24,351.32L469.46,351.32L469.69,350.96L469.92,350.96L470.15,351.32L470.37,351.32L470.6,351.32L470.83,351.32L471.06,351.32L471.28,351.32L471.51,351.32L471.74,351.32L471.97,351.32L472.19,351.32L472.42,351.32L472.65,351.32L472.87,351.32L473.1,351.32L473.33,351.32L473.56,351.32L473.78,351.32L474.01,351.32L474.24,352.04L474.47,352.04L474.69,352.04L474.92,352.04L475.15,352.04L475.38,352.04L475.6,352.04L475.83,352.04L476.06,352.04L476.29,352.04L476.51,352.04L476.74,352.04L476.97,352.04L477.2,352.04L477.42,352.04L477.65,352.04L477.88,352.04L478.11,352.04L478.33,352.04L478.56,352.04L478.79,352.04L479.02,352.04L479.24,352.04L479.47,352.04L479.7,352.04L479.93,352.04L480.15,352.4L480.38,352.04L480.61,352.04L480.84,352.04L481.06,352.04L481.29,352.04L481.52,352.04L481.75,352.04L481.97,352.04L482.2,352.04L482.43,352.04L482.66,352.04L482.88,352.04L483.11,352.4L483.34,352.4L483.57,352.4L483.79,352.4L484.02,352.4L484.25,352.04L484.48,352.04L484.7,352.04L484.93,352.4L485.16,352.4L485.39,352.4L485.61,352.4L485.84,352.4L486.07,352.04L486.3,352.04L486.52,352.04L486.75,352.04L486.98,352.04L487.21,352.4L487.43,352.4L487.66,352.4L487.89,352.4L488.12,352.4L488.34,352.4L488.57,353.12L488.8,352.76L489.03,352.76L489.25,352.76L489.48,353.12L489.71,353.12L489.94,353.12L490.16,352.76L490.39,352.76L490.62,353.12L490.85,353.12L491.07,352.76L491.3,352.76L491.53,353.12L491.76,353.12L491.98,353.12L492.21,353.12L492.44,353.12L492.67,353.12L492.89,353.12L493.12,353.12L493.35,353.12L493.57,353.12L493.8,353.12L494.03,353.12L494.26,353.12L494.48,353.12L494.71,352.76L494.94,353.12L495.17,353.12L495.39,353.12L495.62,353.48L495.85,353.48L496.08,353.48L496.3,353.84L496.53,353.84L496.76,353.48L496.99,353.84L497.21,353.84L497.44,353.84L497.67,353.48L497.9,353.84L498.12,353.84L498.35,353.84L498.58,353.48L498.81,353.84L499.03,353.84L499.26,353.84L499.49,353.84L499.72,353.84L499.94,353.84L500.17,353.84L500.4,353.84L500.63,353.48L500.85,353.48L501.08,353.48L501.31,353.48L501.54,353.84L501.76,353.84L501.99,353.84L502.22,353.84L502.45,353.84L502.67,353.84L502.9,353.84L503.13,353.84L503.36,353.48L503.58,353.48L503.81,353.84L504.04,353.84L504.27,353.84L504.49,353.84L504.72,353.84L504.95,353.84L505.18,353.84L505.4,353.84L505.63,353.48L505.86,353.84L506.09,353.84L506.31,353.84L506.54,353.84L506.77,353.84L507,353.84L507.22,353.84L507.45,353.84L507.68,353.84L507.91,354.2L508.13,353.84L508.36,353.84L508.59,353.84L508.82,353.84L509.04,353.84L509.27,353.84L509.5,353.84L509.73,353.84L509.95,354.2L510.18,353.84L510.41,353.84L510.64,353.84L510.86,353.84L511.09,353.84L511.32,353.84L511.55,353.84L511.77,353.84L512,353.84L512.23,353.84L512.46,353.84L512.68,353.84L512.91,353.84L513.14,353.84L513.37,353.84L513.59,353.84L513.82,353.84L514.05,353.84L514.27,353.84L514.5,353.84L514.73,353.84L514.96,353.84L515.18,353.84L515.41,353.84L515.64,353.84L515.87,353.84L516.09,353.84L516.32,353.84L516.55,353.84L516.78,353.84L517,353.84L517.23,353.84L517.46,353.84L517.69,353.84L517.91,353.84L518.14,353.84L518.37,353.84L518.6,353.84L518.82,353.84L519.05,354.2L519.28,354.2L519.51,354.2L519.73,354.2L519.96,354.2L520.19,354.57L520.42,354.57L520.64,354.57L520.87,354.2L521.1,354.2L521.33,354.2L521.55,354.2L521.78,354.2L522.01,354.57L522.24,354.57L522.46,354.57L522.69,354.57L522.92,354.57L523.15,354.57L523.37,354.2L523.6,354.2L523.83,354.2L524.06,354.2L524.28,354.2L524.51,354.2L524.74,354.57L524.97,354.57L525.19,354.2L525.42,354.57L525.65,354.57L525.88,354.57L526.1,354.57L526.33,354.57L526.56,354.57L526.79,354.57L527.01,354.57L527.24,354.2L527.47,354.57L527.7,354.57L527.92,354.2L528.15,354.2L528.38,354.2L528.61,354.2L528.83,354.2L529.06,354.2L529.29,354.57L529.52,354.57L529.74,354.57L529.97,354.2L530.2,354.2L530.43,354.2L530.65,354.2L530.88,354.57L531.11,354.57L531.34,354.57L531.56,354.2L531.79,354.93L532.02,354.93L532.25,354.93L532.47,354.57L532.7,354.57L532.93,354.57L533.16,354.93L533.38,354.93L533.61,354.93L533.84,354.93L534.07,354.93L534.29,354.93L534.52,354.93L534.75,354.93L534.98,354.93L535.2,354.93L535.43,354.93L535.66,354.93L535.88,354.93L536.11,354.93L536.34,354.93L536.57,354.93L536.79,354.93L537.02,354.93L537.25,354.93L537.48,354.93L537.7,354.93L537.93,355.29L538.16,355.29L538.39,354.93L538.61,354.93L538.84,354.93L539.07,354.93L539.3,354.93L539.52,354.93L539.75,354.93L539.98,354.93L540.21,354.93L540.43,355.29L540.66,355.29L540.89,355.29L541.12,354.93L541.34,354.93L541.57,354.93L541.8,354.93L542.03,354.93L542.25,354.93L542.48,354.93L542.71,354.93L542.94,354.93L543.16,355.29L543.39,355.29L543.62,354.93L543.85,354.93L544.07,354.93L544.3,354.93L544.53,354.93L544.76,354.93L544.98,354.93L545.21,355.29L545.44,355.29L545.67,355.29L545.89,355.29L546.12,355.29L546.35,355.29L546.58,355.29L546.8,355.29L547.03,355.29L547.26,355.29L547.49,355.65L547.71,355.65L547.94,355.65L548.17,355.65L548.4,355.65L548.62,355.65L548.85,356.01L549.08,356.01L549.31,355.65L549.53,355.65L549.76,355.65L549.99,355.65L550.22,355.65L550.44,355.65L550.67,355.65L550.9,356.01L551.13,356.01L551.35,355.65L551.58,355.65L551.81,355.65L552.04,356.01L552.26,355.65L552.49,355.65L552.72,355.65L552.95,356.01L553.17,355.65L553.4,355.65L553.63,355.65L553.86,355.65L554.08,355.65L554.31,355.65L554.54,355.65L554.77,355.65L554.99,355.65L555.22,356.01L555.45,356.37L555.68,356.37L555.9,356.37L556.13,356.37L556.36,356.37L556.58,356.37L556.81,356.37L557.04,356.37L557.27,356.37L557.49,356.73L557.72,356.37L557.95,356.37L558.18,356.73L558.4,356.73L558.63,356.37L558.86,356.37L559.09,356.37L559.31,356.37L559.54,356.37L559.77,356.37L560,356.37L560.22,356.37L560.45,356.37L560.68,356.73L560.91,356.73L561.13,356.73L561.36,356.73L561.59,356.37L561.82,356.37L562.04,356.37L562.27,356.37L562.5,356.37L562.73,356.37L562.95,356.73L563.18,356.37L563.41,356.37L563.64,356.37L563.86,356.37L564.09,356.37L564.32,356.73L564.55,356.73L564.77,356.73L565,356.73L565.23,356.73L565.46,356.73L565.68,356.73L565.91,356.73L566.14,356.73L566.37,356.73L566.59,356.37L566.82,356.37L567.05,356.37L567.28,356.37L567.5,356.73L567.73,356.73L567.96,356.73L568.19,356.73L568.41,356.73L568.64,356.73L568.87,356.73L569.1,356.73L569.32,356.73L569.55,356.73L569.78,356.37L570.01,356.37L570.23,356.73L570.46,357.09L570.69,356.73L570.92,356.73L571.14,356.73L571.37,356.73L571.6,356.73L571.83,356.73L572.05,356.73L572.28,356.73L572.51,356.73L572.74,356.73L572.96,356.73L573.19,357.09L573.42,357.09L573.65,357.09L573.87,357.45L574.1,357.45L574.33,357.45L574.56,357.45L574.78,357.45L575.01,357.45L575.24,357.09L575.47,357.09L575.69,357.45L575.92,357.45L576.15,357.45L576.38,357.45L576.6,357.45L576.83,357.45L577.06,357.45L577.28,357.45L577.51,357.45L577.74,357.45L577.97,357.45L578.19,357.45L578.42,357.45L578.65,357.45L578.88,357.81L579.1,357.81L579.33,357.81L579.56,357.81L579.79,357.81L580.01,357.45L580.24,357.45L580.47,357.45L580.7,357.45L580.92,357.45L581.15,357.45L581.38,357.45L581.61,357.81L581.83,357.81L582.06,357.81L582.29,357.81L582.52,357.81L582.74,357.81L582.97,357.45L583.2,357.45L583.43,357.45L583.65,357.45L583.88,357.45L584.11,358.17L584.34,358.17L584.56,358.17L584.79,358.17L585.02,358.17L585.25,358.17L585.47,358.17L585.7,358.17L585.93,358.17L586.16,358.17L586.38,358.17L586.61,358.17L586.84,358.17L587.07,358.17L587.29,358.17L587.52,358.17L587.75,358.17L587.98,358.17L588.2,358.17L588.43,358.17L588.66,358.17L588.89,358.17L589.11,358.17L589.34,358.17L589.57,358.17L589.8,358.17L590.02,358.17L590.25,358.17L590.48,358.17L590.71,358.17L590.93,358.17L591.16,358.17L591.39,358.17L591.62,358.17L591.84,358.17L592.07,358.17L592.3,358.17L592.53,358.17L592.75,358.17L592.98,358.17L593.21,358.54L593.44,358.54L593.66,358.54L593.89,358.17L594.12,358.17L594.35,358.17L594.57,358.17L594.8,358.17L595.03,358.17L595.26,358.17L595.48,358.17L595.71,358.17L595.94,358.54L596.17,358.54L596.39,358.54L596.62,358.54L596.85,358.17L597.08,358.17L597.3,358.17L597.53,358.17L597.76,358.17L597.99,358.17L598.21,358.17L598.44,358.54L598.67,358.54L598.89,358.54L599.12,358.17L599.35,358.17L599.58,358.54L599.8,358.54L600.03,358.54L600.26,358.54L600.49,358.54L600.71,358.54L600.94,358.17L601.17,358.54L601.4,358.54L601.62,358.54L601.85,358.54L602.08,358.54L602.31,358.17L602.53,358.17L602.76,358.54L602.99,358.9L603.22,358.9L603.44,358.9L603.67,358.54L603.9,358.54L604.13,358.9L604.35,359.26L604.58,358.9L604.81,358.9L605.04,358.9L605.26,358.9L605.49,358.9L605.72,358.9L605.95,358.9L606.17,358.9L606.4,358.9L606.63,359.26L606.86,359.98L607.08,359.62L607.31,359.62L607.54,359.62L607.77,359.62L607.99,359.62L608.22,359.62L608.45,359.62L608.68,359.62L608.9,359.62L609.13,359.62L609.36,359.62L609.59,359.62L609.81,359.62L610.04,359.98L610.27,359.62L610.5,359.62L610.72,359.62L610.95,359.62L611.18,359.62L611.41,359.62L611.63,359.62L611.86,359.62L612.09,359.62L612.32,359.62L612.54,359.62L612.77,359.62L613,359.62L613.23,359.98L613.45,359.98L613.68,359.98L613.91,359.98L614.14,359.62L614.36,359.62L614.59,359.62L614.82,359.62L615.05,359.62L615.27,359.98L615.5,359.98L615.73,359.98L615.96,359.98L616.18,359.98L616.41,359.98L616.64,359.98L616.87,359.98L617.09,359.62L617.32,359.62L617.55,359.62L617.78,359.62L618,359.62L618.23,359.62L618.46,359.98L618.69,359.98L618.91,359.98L619.14,359.98L619.37,359.98L619.59,359.98L619.82,359.98L620.05,359.98L620.28,359.98L620.5,359.62L620.73,359.62L620.96,359.62L621.19,359.62L621.41,359.98L621.64,359.98L621.87,359.98L622.1,359.98L622.32,359.98L622.55,359.98L622.78,359.98L623.01,359.98L623.23,359.98L623.46,359.62L623.69,359.62L623.92,359.62L624.14,359.98L624.37,359.98L624.6,359.98L624.83,359.98L625.05,359.98L625.28,359.98L625.51,359.98L625.74,359.98L625.96,359.98L626.19,359.98L626.42,359.98L626.65,359.98L626.87,359.62L627.1,359.62L627.33,359.98L627.56,359.62L627.78,359.98L628.01,359.98L628.24,359.98L628.47,359.98L628.69,359.98L628.92,359.98L629.15,359.98L629.38,359.98L629.6,359.98L629.83,359.98L630.06,359.98L630.29,359.98L630.51,359.98L630.74,359.98L630.97,359.62L631.2,359.62L631.42,359.62L631.65,360.34L631.88,360.34L632.11,360.7L632.33,360.34L632.56,360.34L632.79,360.7L633.02,360.34L633.24,360.34L633.47,360.7L633.7,360.7L633.93,360.7L634.15,360.7L634.38,360.7L634.61,360.34L634.84,360.34L635.06,360.34L635.29,360.7L635.52,360.7L635.75,360.34L635.97,360.34L636.2,360.7L636.43,360.7L636.66,360.7L636.88,360.34L637.11,360.7L637.34,360.7L637.57,360.7L637.79,360.7L638.02,361.42L638.25,361.42L638.48,361.06L638.7,361.06L638.93,361.06L639.16,361.06L639.39,361.06L639.61,361.06L639.84,361.06L640.07,361.06L640.29,361.06L640.52,361.06L640.75,361.42L640.98,361.42L641.2,361.42L641.43,361.42L641.66,361.42L641.89,361.06L642.11,361.06L642.34,361.06L642.57,361.06L642.8,361.06L643.02,361.06L643.25,361.06L643.48,361.06L643.71,361.42L643.93,361.42L644.16,361.42L644.39,361.42L644.62,361.42L644.84,361.42L645.07,361.42L645.3,361.06L645.53,361.06L645.75,361.06L645.98,361.42L646.21,361.42L646.44,361.42L646.66,361.42L646.89,361.42L647.12,361.42L647.35,361.42L647.57,361.42L647.8,361.42L648.03,361.06L648.26,361.06L648.48,361.06L648.71,361.78L648.94,361.78L649.17,361.78L649.39,361.78L649.62,361.78L649.85,362.15L650.08,362.15L650.3,361.78L650.53,361.78L650.76,361.78L650.99,361.78L651.21,361.78L651.44,361.78L651.67,361.78L651.9,361.78L652.12,361.78L652.35,361.78L652.58,361.78L652.81,362.15L653.03,362.15L653.26,362.15L653.49,362.15L653.72,362.15L653.94,361.78L654.17,361.78L654.4,361.78L654.63,361.78L654.85,361.78L655.08,362.15L655.31,362.15L655.54,362.15L655.76,361.78L655.99,362.15L656.22,362.15L656.45,362.15L656.67,362.15L656.9,362.15L657.13,362.15L657.36,361.78L657.58,361.78L657.81,361.78L658.04,362.15L658.27,361.78L658.49,362.15L658.72,362.15L658.95,362.15L659.18,362.15L659.4,362.15L659.63,362.15L659.86,362.15L660.09,362.15L660.31,362.15L660.54,361.78L660.77,362.15L660.99,362.15L661.22,362.15L661.45,362.15L661.68,362.15L661.9,362.15L662.13,362.15L662.36,362.15L662.59,362.15L662.81,362.15L663.04,362.15L663.27,361.78L663.5,362.15L663.72,362.15L663.95,362.15L664.18,362.15L664.41,362.15L664.63,362.15L664.86,362.15L665.09,362.15L665.32,362.15L665.54,362.15L665.77,362.15L666,362.15L666.23,362.15L666.45,361.78L666.68,361.78L666.91,362.15L667.14,362.15L667.36,362.15L667.59,362.15L667.82,362.15L668.05,362.15L668.27,362.15L668.5,362.15L668.73,362.15L668.96,362.15L669.18,362.15L669.41,362.15L669.64,361.78L669.87,362.15L670.09,362.15L670.32,362.15L670.55,362.15L670.78,362.15L671,362.15L671.23,362.15L671.46,362.15L671.69,362.15L671.91,362.15L672.14,362.15L672.37,362.15L672.6,362.15L672.82,362.15L673.05,362.15L673.28,362.15L673.51,362.15L673.73,362.15L673.96,362.15L674.19,362.15L674.42,362.15L674.64,362.15L674.87,362.15L675.1,362.15L675.33,362.15L675.55,362.15L675.78,362.15L676.01,362.15L676.24,361.78L676.46,362.51L676.69,362.51L676.92,362.87L677.15,362.51L677.37,362.51L677.6,362.87L677.83,362.87L678.06,363.23L678.28,363.23L678.51,363.23L678.74,363.23L678.97,363.23L679.19,363.23L679.42,363.23L679.65,362.87L679.88,362.87L680.1,362.87L680.33,362.87L680.56,362.87L680.79,363.23L681.01,363.23L681.24,363.23L681.47,363.23L681.7,363.23L681.92,363.23L682.15,363.23L682.38,363.23L682.6,363.23L682.83,363.23L683.06,363.23L683.29,362.87L683.51,362.87L683.74,362.87L683.97,362.87L684.2,363.23L684.42,363.23L684.65,363.23L684.88,363.23L685.11,363.23L685.33,363.23L685.56,363.23L685.79,363.23L686.02,363.23L686.24,363.23L686.47,363.23L686.7,363.23L686.93,363.23L687.15,363.23L687.38,363.23L687.61,363.23L687.84,363.23L688.06,363.23L688.29,363.23L688.52,363.23L688.75,363.23L688.97,363.23L689.2,363.23L689.43,363.23L689.66,363.23L689.88,363.23L690.11,363.59L690.34,363.95L690.57,363.95L690.79,363.95L691.02,363.95L691.25,363.95L691.48,363.95L691.7,363.95L691.93,363.95L692.16,363.95L692.39,363.95L692.61,363.95L692.84,363.95L693.07,363.95L693.3,363.95L693.52,363.95L693.75,363.95L693.98,363.95L694.21,364.31L694.43,363.95L694.66,363.95L694.89,363.95L695.12,363.95L695.34,363.95L695.57,363.95L695.8,363.95L696.03,363.95L696.25,363.95L696.48,363.95L696.71,363.95L696.94,363.95L697.16,363.95L697.39,363.95L697.62,363.95L697.85,364.31L698.07,363.95L698.3,363.95L698.53,363.95L698.76,363.95L698.98,363.95L699.21,363.95L699.44,364.31L699.67,364.31L699.89,364.31L700.12,364.31L700.35,364.31L700.58,364.31L700.8,364.31L701.03,364.31L701.26,363.95L701.49,363.95L701.71,363.95L701.94,363.95L702.17,363.95L702.4,364.31L702.62,364.31L702.85,363.95L703.08,363.95L703.3,364.31L703.53,364.31L703.76,364.31L703.99,364.31L704.21,364.31L704.44,364.31L704.67,364.31L704.9,364.31L705.12,363.95L705.35,363.95L705.58,364.31L705.81,364.31L706.03,364.31L706.26,364.31L706.49,364.31L706.72,363.95L706.94,363.95L707.17,364.31L707.4,364.31L707.63,364.31L707.85,364.31L708.08,364.31L708.31,364.31L708.54,363.95L708.76,363.95L708.99,364.31L709.22,364.31L709.45,364.31L709.67,364.31L709.9,364.31L710.13,364.31L710.36,363.95L710.58,364.31L710.81,364.31L711.04,364.31L711.27,364.31L711.49,364.31L711.72,363.95L711.95,363.95L712.18,363.95L712.4,364.31L712.63,364.31L712.86,364.31L713.09,364.31L713.31,364.31L713.54,363.95L713.77,363.95L714,363.95L714.22,363.95L714.45,363.95L714.68,363.95L714.91,363.95L715.13,363.95L715.36,364.31L715.59,364.31L715.82,364.31L716.04,364.31L716.27,364.31L716.5,364.31L716.73,364.31L716.95,364.31L717.18,364.31L717.41,364.31L717.64,364.31L717.86,364.31L718.09,364.31L718.32,364.31L718.55,364.31L718.77,364.31L719,363.95L719.23,363.95L719.46,363.95L719.68,363.95L719.91,364.31L720.14,364.31L720.37,364.31L720.59,364.31L720.82,364.31L721.05,364.31L721.28,364.31L721.5,364.31L721.73,364.31L721.96,364.31L722.19,364.31L722.41,364.31L722.64,363.95L722.87,363.95L723.1,363.95L723.32,363.95L723.55,363.95L723.78,363.95L724,364.31L724.23,363.95L724.46,363.95L724.69,364.31L724.91,364.31L725.14,364.31L725.37,364.31L725.6,363.95L725.82,363.95L726.05,363.95L726.28,363.95L726.51,363.95L726.73,363.95L726.96,363.95L727.19,363.95L727.42,363.95L727.64,363.95L727.87,363.95L728.1,363.95L728.33,363.95L728.55,363.95L728.78,363.95L729.01,363.95L729.24,363.95L729.46,364.31L729.69,364.67L729.92,364.67L730.15,365.03L730.37,365.03L730.6,365.03L730.83,365.03L731.06,365.03L731.28,365.39L731.51,365.76L731.74,365.76L731.97,365.76L732.19,365.76L732.42,365.39L732.65,365.76L732.88,365.76L733.1,365.76L733.33,365.76L733.56,365.76L733.79,365.76L734.01,365.76L734.24,365.76L734.47,365.76L734.7,365.76L734.92,365.76L735.15,365.76L735.38,365.76L735.61,365.76L735.83,365.76L736.06,365.76L736.29,365.76L736.52,365.76L736.74,365.76L736.97,365.76L737.2,365.76L737.43,366.12L737.65,365.76L737.88,365.76L738.11,365.76L738.34,365.76L738.56,365.76L738.79,365.76L739.02,365.76L739.25,365.76L739.47,365.76L739.7,365.76L739.93,365.76L740.16,365.76L740.38,365.76L740.61,366.12L740.84,366.12L741.07,365.76L741.29,365.76L741.52,365.76L741.75,365.76L741.98,365.76L742.2,365.76L742.43,366.12L742.66,365.76L742.89,365.76L743.11,365.76L743.34,365.76L743.57,365.76L743.8,366.12L744.02,366.12L744.25,366.12L744.48,366.12L744.71,365.76L744.93,365.76L745.16,365.76L745.39,365.76L745.61,365.76L745.84,366.12L746.07,366.12L746.3,366.12L746.52,366.12L746.75,365.76L746.98,365.76L747.21,366.12L747.43,365.76L747.66,366.12L747.89,366.12L748.12,366.12L748.34,365.76L748.57,365.76L748.8,365.76L749.03,365.76L749.25,365.76L749.48,366.12L749.71,366.12L749.94,365.76L750.16,365.76L750.39,365.76L750.62,366.12L750.85,366.12L751.07,365.76L751.3,365.76L751.53,366.12L751.76,366.12L751.98,366.12L752.21,366.12L752.44,365.76L752.67,365.76L752.89,365.76L753.12,366.12L753.35,365.76L753.58,365.76L753.8,365.76L754.03,365.76L754.26,365.76L754.49,366.12L754.71,366.12L754.94,365.76L755.17,365.76L755.4,365.76L755.62,366.12L755.85,366.12L756.08,366.12L756.31,366.12L756.53,365.76L756.76,365.76L756.99,365.76L757.22,366.12L757.44,366.12L757.67,365.76L757.9,365.76L758.13,365.76L758.35,366.12L758.58,365.76L758.81,365.76L759.04,365.76L759.26,365.76L759.49,365.76L759.72,365.76L759.95,366.12L760.17,366.12L760.4,365.76L760.63,365.76L760.86,365.76L761.08,365.76L761.31,365.76L761.54,365.76L761.77,365.76L761.99,365.76L762.22,365.76L762.45,365.76L762.68,365.76L762.9,365.76L763.13,365.76L763.36,365.76L763.59,365.76L763.81,365.76L764.04,365.76L764.27,365.76L764.5,365.76L764.72,365.76L764.95,365.76L765.18,365.76L765.41,365.76L765.63,365.76L765.86,365.76L766.09,365.76L766.31,365.76L766.54,365.76L766.77,366.12L767,366.12L767.22,366.12L767.45,366.12L767.68,366.12L767.91,366.12L768.13,366.12L768.36,366.12L768.59,366.12L768.82,366.12L769.04,366.12L769.27,366.12L769.5,366.12L769.73,366.12L769.95,366.12L770.18,366.12L770.41,366.12L770.64,366.12L770.86,366.12L771.09,366.48L771.32,366.48L771.55,366.48L771.77,366.48L772,366.48L772.23,366.48L772.46,366.12L772.68,366.12L772.91,366.12L773.14,366.12L773.37,366.12L773.59,366.12L773.82,366.12L774.05,366.12L774.28,366.12L774.5,366.12L774.73,366.12L774.96,366.12L775.19,366.12L775.41,366.12L775.64,366.12L775.87,366.12L776.1,366.12L776.32,366.12L776.55,366.12L776.78,366.12L777.01,366.12L777.23,366.12L777.46,366.48L777.69,366.48L777.92,366.48L778.14,366.48L778.37,366.48L778.6,366.12L778.83,366.12L779.05,366.48L779.28,366.48L779.51,366.48L779.74,366.48L779.96,366.48L780.19,366.48L780.42,366.48L780.65,366.84L780.87,366.84L781.1,366.84L781.33,366.48L781.56,366.48L781.78,366.48L782.01,366.48L782.24,366.84L782.47,366.84L782.69,366.48L782.92,366.84L783.15,367.2L783.38,367.2L783.6,367.2L783.83,367.2L784.06,367.2L784.29,367.2L784.51,367.2L784.74,367.2L784.97,367.2L785.2,367.2L785.42,367.2L785.65,367.2L785.88,367.2L786.11,367.2L786.33,367.2L786.56,367.2L786.79,367.2L787.01,367.2L787.24,367.2L787.47,367.2L787.7,367.2L787.92,367.2L788.15,367.2L788.38,367.2L788.61,367.2L788.83,367.2L789.06,367.2L789.29,367.2L789.52,367.2L789.74,367.2L789.97,367.2L790.2,367.2L790.43,366.84L790.65,367.2L790.88,367.2L791.11,367.2L791.34,367.2L791.56,367.2L791.79,367.2L792.02,367.2L792.25,367.2L792.47,367.2L792.7,367.2L792.93,367.2L793.16,367.2L793.38,367.2L793.61,367.2L793.84,366.84L794.07,366.84L794.29,367.2L794.52,367.2L794.75,367.2L794.98,367.2L795.2,367.2L795.43,367.2L795.66,367.2L795.89,367.2L796.11,367.2L796.34,367.2L796.57,367.2L796.8,367.2L797.02,367.2L797.25,367.2L797.48,367.2L797.71,367.2L797.93,367.2L798.16,367.2L798.39,367.2L798.62,367.2L798.84,367.2L799.07,367.2L799.3,367.2L799.53,367.2L799.75,367.2L799.98,367.2L800.21,367.2L800.44,367.2L800.66,367.56L800.89,367.92L801.12,367.56L801.35,367.56L801.57,367.56L801.8,367.56L802.03,367.56L802.26,367.92L802.48,367.92L802.71,367.92L802.94,367.92L803.17,367.92L803.39,367.92L803.62,367.92L803.85,367.92L804.08,367.92L804.3,367.92L804.53,367.92L804.76,367.92L804.99,367.92L805.21,367.92L805.44,367.92L805.67,367.56L805.9,367.56L806.12,367.56L806.35,367.56L806.58,367.56L806.81,367.92L807.03,367.92L807.26,367.92L807.49,367.92L807.71,367.92L807.94,367.56L808.17,367.92L808.4,367.92L808.62,367.92L808.85,367.92L809.08,367.92L809.31,367.92L809.53,367.92L809.76,367.92L809.99,367.56L810.22,367.56L810.44,367.56L810.67,367.56L810.9,367.56L811.13,367.56L811.35,367.56L811.58,367.56L811.81,367.56L812.04,367.92L812.26,367.92L812.49,367.92L812.72,367.92L812.95,367.92L813.17,367.92L813.4,367.92L813.63,367.92L813.86,367.56L814.08,367.56L814.31,367.56L814.54,367.56L814.77,367.56L814.99,367.56L815.22,367.92L815.45,367.92L815.68,368.28L815.9,368.28L816.13,367.92L816.36,367.92L816.59,368.28L816.81,368.28L817.04,368.28L817.27,368.28L817.5,368.28L817.72,368.28L817.95,368.28L818.18,368.28L818.41,368.28L818.63,367.92L818.86,367.92L819.09,367.92L819.32,368.28L819.54,368.28L819.77,368.28L820,368.28L820.23,367.92L820.45,367.92L820.68,367.92L820.91,367.92L821.14,367.92L821.36,367.92L821.59,367.92L821.82,367.92L822.05,367.92L822.27,368.28L822.5,368.28L822.73,367.92L822.96,367.92L823.18,367.92L823.41,368.28L823.64,368.28L823.87,368.64L824.09,368.64L824.32,368.64L824.55,368.64L824.78,368.64L825,368.64L825.23,368.64L825.46,368.64L825.69,368.64L825.91,368.64L826.14,368.64L826.37,368.64L826.6,368.64L826.82,368.64L827.05,368.64L827.28,368.64L827.51,368.28L827.73,368.64L827.96,368.64L828.19,368.64L828.42,368.64L828.64,368.64L828.87,368.64L829.1,368.64L829.32,368.64L829.55,368.64L829.78,368.64L830.01,368.64L830.23,368.64L830.46,368.64L830.69,368.64L830.92,368.64L831.14,368.64L831.37,368.28L831.6,368.64L831.83,368.64L832.05,368.64L832.28,368.64L832.51,368.64L832.74,369L832.96,368.64L833.19,368.64L833.42,368.64L833.65,368.64L833.87,368.64L834.1,368.64L834.33,368.64L834.56,368.64L834.78,368.64L835.01,368.64L835.24,368.64L835.47,368.64L835.69,368.64L835.92,368.64L836.15,368.64L836.38,368.64L836.6,368.64L836.83,369L837.06,369L837.29,369L837.51,369L837.74,368.64L837.97,368.64L838.2,368.64L838.42,368.64L838.65,368.64L838.88,368.64L839.11,368.64L839.33,369L839.56,368.64L839.79,368.64L840.02,368.64L840.24,368.64L840.47,368.64L840.7,368.64L840.93,368.64L841.15,369L841.38,369L841.61,368.64L841.84,368.64L842.06,368.64L842.29,369L842.52,368.64L842.75,368.64L842.97,368.64L843.2,368.64L843.43,368.64L843.66,369L843.88,369L844.11,369L844.34,369.36L844.57,369.36L844.79,369.36L845.02,369.36L845.25,369.36L845.48,369.36L845.7,369.36L845.93,369.36L846.16,369.36L846.39,369.36L846.61,369.36L846.84,369.36L847.07,369.36L847.3,369.36L847.52,369.36L847.75,369.36L847.98,369.36L848.21,369.36L848.43,369.73L848.66,369.36L848.89,369.36L849.12,369.36L849.34,369.36L849.57,369.36L849.8,369.36L850.02,369.73L850.25,369.36L850.48,369.36L850.71,369.36L850.93,369.36L851.16,369.36L851.39,369.36L851.62,369.36L851.84,369.36L852.07,369.36L852.3,369.36L852.53,369.36L852.75,369.36L852.98,369.36L853.21,369.36L853.44,369.36L853.66,369.36L853.89,369.36L854.12,369.36L854.35,369.36L854.57,369.36L854.8,369.73L855.03,369.73L855.26,369.73L855.48,369.73L855.71,369.73L855.94,369.73L856.17,369.73L856.39,369.73L856.62,369.73L856.85,369.73L857.08,369.73L857.3,370.09L857.53,369.73L857.76,369.73L857.99,369.73L858.21,369.73L858.44,369.73L858.67,369.73L858.9,369.73L859.12,369.73L859.35,369.73L859.58,370.09L859.81,370.09L860.03,370.09L860.26,370.09L860.49,369.73L860.72,369.73L860.94,369.73L861.17,370.09L861.4,370.09L861.63,369.73L861.85,369.73L862.08,369.73L862.31,369.73L862.54,369.73L862.76,369.73L862.99,369.73L863.22,369.73L863.45,369.73L863.67,369.73L863.9,369.73L864.13,369.73L864.36,369.73L864.58,369.73L864.81,369.73L865.04,369.73L865.27,369.73L865.49,370.09L865.72,369.73L865.95,369.73L866.18,369.73L866.4,369.73L866.63,369.73L866.86,369.73L867.09,369.73L867.31,369.73L867.54,369.73L867.77,369.73L868,369.73L868.22,369.73L868.45,369.73L868.68,369.73L868.91,369.73L869.13,369.73L869.36,369.73L869.59,369.73L869.82,369.36L870.04,369.36L870.27,369.73L870.5,369.36L870.72,369.73L870.95,369.73L871.18,369.73L871.41,369.73L871.63,369.73L871.86,369.73L872.09,369.73L872.32,369.73L872.54,369.73L872.77,369.73L873,369.73L873.23,369.73L873.45,369.36L873.68,369.36L873.91,369.36L874.14,369.36L874.36,369.36L874.59,369.36L874.82,369.73L875.05,369.73L875.27,369.73L875.5,369.73L875.73,369.73L875.96,369.73L876.18,370.09L876.41,370.09L876.64,370.09L876.87,370.09L877.09,370.09L877.32,370.09L877.55,370.09L877.78,370.09L878,370.09L878.23,370.09L878.46,370.09L878.69,370.09L878.91,370.09L879.14,370.09L879.37,370.09L879.6,370.09L879.82,370.09L880.05,370.09L880.28,370.09L880.51,370.09L880.73,370.09L880.96,370.09L881.19,370.09L881.42,370.09L881.64,370.09L881.87,370.09L882.1,370.09L882.33,370.09L882.55,370.09L882.78,369.73L883.01,369.73L883.24,370.09L883.46,370.09L883.69,370.09L883.92,370.09L884.15,370.09L884.37,370.09L884.6,370.09L884.83,370.09L885.06,370.09L885.28,370.09L885.51,370.09L885.74,370.09L885.97,370.09L886.19,370.09L886.42,370.09L886.65,370.09L886.88,370.09L887.1,370.09L887.33,370.09L887.56,370.09L887.79,370.09L888.01,370.09L888.24,370.09L888.47,370.09L888.7,370.09L888.92,370.09L889.15,370.09L889.38,370.09L889.61,370.09L889.83,370.09L890.06,370.09L890.29,370.09L890.52,370.09L890.74,369.73L890.97,369.73L891.2,369.73L891.42,370.09L891.65,370.09L891.88,370.09L892.11,370.09L892.33,370.09L892.56,370.09L892.79,370.09L893.02,370.09L893.24,370.09L893.47,370.09L893.7,370.09L893.93,370.09L894.15,370.09L894.38,370.09L894.61,370.09L894.84,370.09L895.06,370.09L895.29,370.09L895.52,370.09L895.75,370.09L895.97,370.09L896.2,370.09L896.43,370.09L896.66,370.09L896.88,369.73L897.11,369.73L897.34,369.73L897.57,369.73L897.79,369.73L898.02,369.73L898.25,370.09L898.48,370.45L898.7,370.45L898.93,370.45L899.16,370.45L899.39,370.45L899.61,370.45L899.84,370.45L900.07,370.45L900.3,370.45L900.52,370.45L900.75,370.81L900.98,371.17L901.21,371.17L901.43,371.17L901.66,371.17L901.89,371.17L902.12,371.17L902.34,371.17L902.57,371.17L902.8,371.17L903.03,371.17L903.25,371.17L903.48,370.81L903.71,370.81L903.94,370.81L904.16,371.17L904.39,371.17L904.62,371.17L904.85,371.17L905.07,371.17L905.3,371.17L905.53,371.17L905.76,371.17L905.98,371.17L906.21,371.17L906.44,371.17L906.67,371.17L906.89,371.17L907.12,371.17L907.35,370.81L907.58,370.81L907.8,370.81L908.03,370.81L908.26,371.17L908.49,371.17L908.71,371.17L908.94,371.17L909.17,371.17L909.4,371.17L909.62,371.17L909.85,371.17L910.08,371.17L910.31,371.17L910.53,371.17L910.76,371.17L910.99,370.81L911.22,370.81L911.44,370.81L911.67,370.81L911.9,370.81L912.13,370.81L912.35,370.81L912.58,371.17L912.81,371.17L913.03,371.17L913.26,371.17L913.49,371.17L913.72,371.17L913.94,371.17L914.17,370.81L914.4,370.81L914.63,370.81L914.85,370.81L915.08,370.81L915.31,370.81L915.54,370.81L915.76,370.81L915.99,370.81L916.22,370.81L916.45,371.17L916.67,370.81L916.9,370.81L917.13,371.53L917.36,371.53L917.58,371.53L917.81,371.53L918.04,371.53L918.27,371.53L918.49,371.53L918.72,371.53L918.95,371.53L919.18,371.53L919.4,371.53L919.63,371.53L919.86,371.53L920.09,371.53L920.31,371.53L920.54,371.53L920.77,371.53L921,371.17L921.22,371.53L921.45,371.53L921.68,371.53L921.91,371.53L922.13,371.53L922.36,371.53L922.59,371.53L922.82,371.53L923.04,371.53L923.27,371.53L923.5,371.53L923.73,371.53L923.95,371.53L924.18,371.53L924.41,371.53L924.64,371.53L924.86,371.53L925.09,371.53L925.32,371.53L925.55,371.53L925.77,371.17L926,371.17L926.23,371.53L926.46,371.53L926.68,371.53L926.91,371.53L927.14,371.53L927.37,371.53L927.59,371.53L927.82,371.17L928.05,371.17L928.28,371.53L928.5,371.53L928.73,371.53L928.96,371.53L929.19,371.53L929.41,371.53L929.64,371.53L929.87,371.53L930.1,371.53L930.32,371.53L930.55,371.17L930.78,371.17L931.01,371.17L931.23,371.53L931.46,371.53L931.69,371.53L931.92,371.53L932.14,371.53L932.37,371.53L932.6,371.53L932.83,371.53L933.05,371.53L933.28,371.53L933.51,371.53L933.73,371.53L933.96,371.53L934.19,371.53L934.42,371.53L934.64,371.53L934.87,371.53L935.1,371.53L935.33,371.53L935.55,371.89L935.78,371.89L936.01,371.89L936.24,371.89L936.46,371.53L936.69,371.53L936.92,371.53L937.15,371.53L937.37,371.53L937.6,371.89L937.83,371.89L938.06,371.89L938.28,371.89L938.51,371.89L938.74,371.89L938.97,371.89L939.19,371.89L939.42,371.89L939.65,371.89L939.88,371.89L940.1,371.89L940.33,371.89L940.56,371.53L940.79,371.53L941.01,371.53L941.24,371.53L941.47,371.89L941.7,371.89L941.92,371.89L942.15,371.89L942.38,371.89L942.61,371.89L942.83,371.89L943.06,371.89L943.29,371.89L943.52,371.89L943.74,372.25L943.97,372.25L944.2,372.25L944.43,372.25L944.65,372.25L944.88,372.25L945.11,372.25L945.34,372.25L945.56,372.61L945.79,372.25L946.02,372.25L946.25,372.25L946.47,372.25L946.7,372.25L946.93,372.25L947.16,372.25L947.38,372.25L947.61,372.25L947.84,372.25L948.07,372.25L948.29,372.25L948.52,372.25L948.75,372.25L948.98,372.25L949.2,372.25L949.43,372.25L949.66,372.61L949.89,372.61L950.11,372.61L950.34,372.61L950.57,372.61L950.8,372.25L951.02,372.25L951.25,372.25L951.48,372.25L951.71,372.25L951.93,372.25L952.16,372.25L952.39,372.25L952.62,372.25L952.84,372.25L953.07,372.25L953.3,372.25L953.53,372.25L953.75,372.25L953.98,372.25L954.21,372.25L954.43,372.25L954.66,372.25L954.89,372.25L955.12,372.61L955.34,372.61L955.57,372.61L955.8,372.61L956.03,372.25L956.25,372.25L956.48,372.25L956.71,372.25L956.94,372.25L957.16,372.25L957.39,372.25L957.62,372.61L957.85,372.61L958.07,372.61L958.3,372.61L958.53,372.25L958.76,372.61L958.98,372.61L959.21,372.25L959.44,372.25L959.67,372.25L959.89,372.25L960.12,372.25L960.35,372.25L960.58,372.25L960.8,372.25L961.03,372.25L961.26,372.25L961.49,372.25L961.71,372.25L961.94,372.25L962.17,372.25L962.4,372.61L962.62,372.61L962.85,372.61L963.08,372.61L963.31,372.61L963.53,372.61L963.76,372.61L963.99,372.61L964.22,372.61L964.44,372.61L964.67,372.61L964.9,372.25L965.13,372.25L965.35,372.25L965.58,372.25L965.81,372.25L966.04,372.25L966.26,372.25L966.49,372.25L966.72,372.25L966.95,372.25L967.17,372.25L967.4,372.25L967.63,372.25L967.86,372.25L968.08,372.25L968.31,372.61L968.54,372.97L968.77,372.97L968.99,372.97L969.22,372.97L969.45,372.97L969.68,372.61L969.9,372.61L970.13,372.61L970.36,372.97L970.59,373.34L970.81,373.34L971.04,373.34L971.27,373.34L971.5,373.34L971.72,373.34L971.95,373.34L972.18,373.34L972.41,373.7L972.63,373.7L972.86,373.34L973.09,373.34L973.32,373.34L973.54,373.34L973.77,373.34L974,373.34L974.23,373.34L974.45,373.7L974.68,373.7L974.91,373.7L975.14,373.7L975.36,373.34L975.59,373.34L975.82,373.34L976.04,373.34L976.27,373.34L976.5,373.34L976.73,373.34L976.95,373.34L977.18,373.34L977.41,373.34L977.64,373.34L977.86,373.34L978.09,373.34L978.32,373.34L978.55,373.7L978.77,373.34L979,373.34L979.23,373.34L979.46,373.34L979.68,373.34L979.91,373.34L980.14,373.34L980.37,373.34L980.59,373.34L980.82,373.34L981.05,373.34L981.28,373.7L981.5,373.7L981.73,373.34L981.96,373.34L982.19,373.34L982.41,373.34L982.64,373.34L982.87,373.34L983.1,373.34L983.32,373.34L983.55,373.34L983.78,373.7L984.01,374.06L984.23,374.06L984.46,374.06L984.69,374.06L984.92,374.06L985.14,374.06L985.37,374.06L985.6,373.7L985.83,373.7L986.05,374.06L986.28,374.06L986.51,374.06L986.74,374.06L986.96,374.06L987.19,374.06L987.42,374.06L987.65,374.06L987.87,374.06L988.1,374.06L988.33,374.06L988.56,374.06L988.78,374.06L989.01,374.06L989.24,374.06L989.47,374.06L989.69,374.06L989.92,374.06L990.15,373.7L990.38,373.7L990.6,373.7L990.83,373.7L991.06,373.7L991.29,374.06L991.51,374.06L991.74,374.06L991.97,374.06L992.2,374.06L992.42,374.06L992.65,374.06L992.88,374.06L993.11,374.06L993.33,374.06L993.56,374.06L993.79,374.06L994.02,374.06L994.24,374.06L994.47,374.06L994.7,374.06L994.93,374.06L995.15,374.06L995.38,373.7L995.61,373.7L995.84,373.7L996.06,373.7L996.29,373.7L996.52,373.7L996.74,373.7L996.97,374.06L997.2,374.06L997.43,374.06L997.65,373.7L997.88,374.06L998.11,374.06L998.34,374.06L998.56,374.06L998.79,374.06L999.02,374.06L999.25,374.06L999.47,374.06L999.7,374.06L999.93,374.06L1000.2,374.06L1000.4,374.06L1000.6,374.06L1000.8,374.06L1001.1,374.06L1001.3,373.7L1001.5,373.7L1001.7,373.7L1002,373.7L1002.2,373.7L1002.4,373.7L1002.7,373.7L1002.9,373.7L1003.1,373.7L1003.3,373.7L1003.6,374.06L1003.8,374.06L1004,374.06L1004.3,374.06L1004.5,374.06L1004.7,374.06L1004.9,374.06L1005.2,374.06L1005.4,374.06L1005.6,374.06L1005.8,374.06L1006.1,373.7L1006.3,373.7L1006.5,373.7L1006.8,373.7L1007,373.7L1007.2,373.7L1007.4,373.7L1007.7,373.7L1007.9,373.7L1008.1,373.7L1008.3,373.7L1008.6,373.7L1008.8,373.7L1009,373.7L1009.3,373.7L1009.5,373.7L1009.7,373.7L1009.9,374.06L1010.2,374.06L1010.4,374.06L1010.6,374.06L1010.8,374.06L1011.1,374.06L1011.3,374.42L1011.5,374.06L1011.8,374.78L1012,374.78L1012.2,374.78L1012.4,375.14L1012.7,375.14L1012.9,374.78L1013.1,374.78L1013.4,374.78L1013.6,374.78L1013.8,374.78L1014,374.78L1014.3,375.14L1014.5,374.78L1014.7,374.78L1014.9,374.78L1015.2,374.78L1015.4,374.78L1015.6,374.78L1015.9,375.14L1016.1,375.14L1016.3,375.14L1016.5,375.14L1016.8,375.14L1017,375.14L1017.2,375.14L1017.4,375.14L1017.7,375.14L1017.9,374.78L1018.1,374.78L1018.4,374.78L1018.6,374.78L1018.8,374.78L1019,374.78L1019.3,374.78L1019.5,374.78L1019.7,374.78L1019.9,374.78L1020.2,374.78L1020.4,374.78L1020.6,375.14L1020.9,375.14L1021.1,375.14L1021.3,374.78L1021.5,375.14L1021.8,375.14L1022,375.14L1022.2,375.14L1022.4,375.14L1022.7,375.14L1022.9,375.14L1023.1,374.78L1023.4,374.78L1023.6,374.78L1023.8,374.78L1024,374.78L1024.3,374.78L1024.5,375.14L1024.7,375.14L1025,375.14L1025.2,375.14L1025.4,375.14L1025.6,374.78L1025.9,374.78L1026.1,374.78L1026.3,375.14L1026.5,375.14L1026.8,375.14L1027,375.14L1027.2,374.78L1027.5,375.14L1027.7,375.14L1027.9,375.14L1028.1,375.14L1028.4,375.14L1028.6,374.78L1028.8,374.78L1029,374.78L1029.3,375.14L1029.5,375.14L1029.7,375.14L1030,375.14L1030.2,375.14L1030.4,375.14L1030.6,375.14L1030.9,375.14L1031.1,375.14L1031.3,375.14L1031.5,375.14L1031.8,375.14L1032,375.14L1032.2,375.14L1032.5,375.14L1032.7,375.14L1032.9,374.78L1033.1,374.78L1033.4,374.78L1033.6,374.78L1033.8,374.78L1034.1,374.78L1034.3,374.78L1034.5,374.78L1034.7,374.78L1035,374.78L1035.2,374.78L1035.4,374.78L1035.6,375.14L1035.9,375.14L1036.1,375.14L1036.3,375.14L1036.6,375.14L1036.8,374.78L1037,374.78L1037.2,375.14L1037.5,375.14L1037.7,375.14L1037.9,375.14L1038.1,375.14L1038.4,375.14L1038.6,375.14L1038.8,375.14L1039.1,375.14L1039.3,374.78L1039.5,374.78L1039.7,374.78L1040,374.78L1040.2,374.78L1040.4,374.78L1040.6,374.78L1040.9,374.78L1041.1,374.78L1041.3,374.78L1041.6,374.78L1041.8,374.78L1042,374.78L1042.2,374.78L1042.5,374.78L1042.7,374.78L1042.9,374.78L1043.1,374.78L1043.4,374.42L1043.6,374.78L1043.8,374.78L1044.1,374.78L1044.3,374.78L1044.5,374.78L1044.7,374.78L1045,374.78L1045.2,374.78L1045.4,375.14L1045.7,375.14L1045.9,375.14L1046.1,375.5L1046.3,375.5L1046.6,375.5L1046.8,375.5L1047,375.5L1047.2,375.5L1047.5,375.5L1047.7,375.5L1047.9,375.14L1048.2,375.14L1048.4,375.14L1048.6,375.14L1048.8,375.14L1049.1,375.14L1049.3,375.14L1049.5,375.14L1049.7,375.14L1050,375.14L1050.2,375.14L1050.4,375.5L1050.7,375.5L1050.9,375.14L1051.1,375.14L1051.3,375.14L1051.6,375.14L1051.8,375.14L1052,375.5L1052.2,375.5L1052.5,375.14L1052.7,375.14L1052.9,375.14L1053.2,375.14L1053.4,375.14L1053.6,375.14L1053.8,375.14L1054.1,375.14L1054.3,375.14L1054.5,375.14L1054.8,375.14L1055,375.14L1055.2,375.14L1055.4,375.14L1055.7,375.5L1055.9,375.5L1056.1,375.86L1056.3,375.86L1056.6,375.86L1056.8,375.86L1057,375.86L1057.3,375.86L1057.5,375.86L1057.7,375.86L1057.9,375.86L1058.2,375.86L1058.4,375.5L1058.6,375.5L1058.8,375.5L1059.1,375.5L1059.3,375.5L1059.5,375.5L1059.8,375.5L1060,375.5L1060.2,375.86L1060.4,375.86L1060.7,375.86L1060.9,375.86L1061.1,375.86L1061.3,375.86L1061.6,375.86L1061.8,375.86L1062,375.5L1062.3,375.5L1062.5,375.5L1062.7,375.5L1062.9,375.5L1063.2,375.5L1063.4,375.5L1063.6,375.5L1063.8,375.5L1064.1,375.5L1064.3,375.5L1064.5,375.5L1064.8,375.5L1065,375.5L1065.2,375.5L1065.4,375.5L1065.7,375.5L1065.9,375.86L1066.1,375.86L1066.4,376.22L1066.6,376.22L1066.8,376.22L1067,375.86L1067.3,375.86L1067.5,375.86L1067.7,376.22L1067.9,376.22L1068.2,376.22L1068.4,376.22L1068.6,376.22L1068.9,376.22L1069.1,376.22L1069.3,376.22L1069.5,376.22L1069.8,376.22L1070,376.22L1070.2,376.22L1070.4,376.22L1070.7,376.22L1070.9,376.22L1071.1,376.22L1071.4,376.22L1071.6,376.22L1071.8,376.22L1072,376.22L1072.3,376.22L1072.5,376.22L1072.7,376.22L1072.9,376.22L1073.2,376.22L1073.4,376.22L1073.6,376.22L1073.9,376.58L1074.1,376.58L1074.3,376.58L1074.5,376.22L1074.8,376.22L1075,376.58L1075.2,376.58L1075.5,376.58L1075.7,376.58L1075.9,376.22L1076.1,376.22L1076.4,376.22L1076.6,376.22L1076.8,376.22L1077,376.22L1077.3,376.22L1077.5,376.22L1077.7,376.22L1078,376.22L1078.2,376.22L1078.4,376.22L1078.6,376.22L1078.9,376.22L1079.1,376.58L1079.3,376.58L1079.5,376.58L1079.8,376.58L1080,376.58" style="fill:none;stroke:#5A9BD4;stroke-width:1.875;stroke-dasharray:2.5,2.5" />
<path d="M1055,694.3L1080,694.3" style="fill:none;stroke:#F15A60;stroke-width:1.875" />
<text x="1002.5" y="-687.85" transform="scale(1, -1)"
	style="font-family:Helvetica;font-weight:normal;font-style:normal;font-size:12pt">etcd v3</text>
<path d="M1055,680L1080,680" style="fill:none;stroke:#7AC36A;stroke-width:1.875;stroke-dasharray:7.5,2.5" />
<text x="941.6" y="-673.56" transform="scale(1, -1)"
	style="font-family:Helvetica;font-weight:normal;font-style:normal;font-size:12pt">Zookeeper 3.4.8</text>
<path d="M1055,665.71L1080,665.71" style="fill:none;stroke:#5A9BD4;stroke-width:1.875;stroke-dasharray:2.5,2.5" />
<text x="966.62" y="-659.26" transform="scale(1, -1)"
	style="font-family:Helvetica;font-weight:normal;font-style:normal;font-size:12pt">Consul 0.6.4</text>
</g>
</svg>
