<?xml version="1.0"?>
<!-- Generated by SVGo and Plotinum VG -->
<svg width="12in" height="8in"
	xmlns="http://www.w3.org/2000/svg"
	xmlns:xlink="http://www.w3.org/1999/xlink">
<g transform="scale(1, -1) translate(0, -720)">
<path d="M0,0L1080,0L1080,720L0,720Z" style="fill:#FFFFFF" />
<text x="294.08" y="-706.41" transform="scale(1, -1)"
	style="font-family:Helvetica;font-weight:normal;font-style:normal;font-size:12pt">Read single key 1M times, 1 client, key 64 bytes, value 1 kb, Memory(MB)</text>
<text x="541.16" y="-4.965" transform="scale(1, -1)"
	style="font-family:Helvetica;font-weight:normal;font-style:normal;font-size:12pt">Second</text>
<text x="49.712" y="-19.142" transform="scale(1, -1)"
	style="font-family:Helvetica;font-weight:normal;font-style:normal;font-size:10pt">0</text>
<text x="312.27" y="-19.142" transform="scale(1, -1)"
	style="font-family:Helvetica;font-weight:normal;font-style:normal;font-size:10pt">100</text>
<text x="581.77" y="-19.142" transform="scale(1, -1)"
	style="font-family:Helvetica;font-weight:normal;font-style:normal;font-size:10pt">200</text>
<text x="851.28" y="-19.142" transform="scale(1, -1)"
	style="font-family:Helvetica;font-weight:normal;font-style:normal;font-size:10pt">300</text>
<path d="M53.188,30.467L53.188,40.467" style="fill:none;stroke:#000000;stroke-width:0.625" />
<path d="M322.69,30.467L322.69,40.467" style="fill:none;stroke:#000000;stroke-width:0.625" />
<path d="M592.2,30.467L592.2,40.467" style="fill:none;stroke:#000000;stroke-width:0.625" />
<path d="M861.7,30.467L861.7,40.467" style="fill:none;stroke:#000000;stroke-width:0.625" />
<path d="M187.94,35.468L187.94,40.467" style="fill:none;stroke:#000000;stroke-width:0.625" />
<path d="M457.44,35.468L457.44,40.467" style="fill:none;stroke:#000000;stroke-width:0.625" />
<path d="M726.95,35.468L726.95,40.467" style="fill:none;stroke:#000000;stroke-width:0.625" />
<path d="M996.45,35.468L996.45,40.467" style="fill:none;stroke:#000000;stroke-width:0.625" />
<path d="M53.188,40.467L1080,40.467" style="fill:none;stroke:#000000;stroke-width:0.625" />
<g transform="rotate(90)">
<text x="330.91" y="13.59" transform="scale(1, -1)"
	style="font-family:Helvetica;font-weight:normal;font-style:normal;font-size:12pt">Memory(MB)</text>
</g>
<text x="18.555" y="-139.78" transform="scale(1, -1)"
	style="font-family:Helvetica;font-weight:normal;font-style:normal;font-size:10pt">30</text>
<text x="18.555" y="-357.51" transform="scale(1, -1)"
	style="font-family:Helvetica;font-weight:normal;font-style:normal;font-size:10pt">60</text>
<text x="18.555" y="-575.24" transform="scale(1, -1)"
	style="font-family:Helvetica;font-weight:normal;font-style:normal;font-size:10pt">90</text>
<path d="M35.93,145.15L45.93,145.15" style="fill:none;stroke:#000000;stroke-width:0.625" />
<path d="M35.93,362.88L45.93,362.88" style="fill:none;stroke:#000000;stroke-width:0.625" />
<path d="M35.93,580.61L45.93,580.61" style="fill:none;stroke:#000000;stroke-width:0.625" />
<path d="M40.93,72.577L45.93,72.577" style="fill:none;stroke:#000000;stroke-width:0.625" />
<path d="M40.93,217.73L45.93,217.73" style="fill:none;stroke:#000000;stroke-width:0.625" />
<path d="M40.93,290.3L45.93,290.3" style="fill:none;stroke:#000000;stroke-width:0.625" />
<path d="M40.93,435.46L45.93,435.46" style="fill:none;stroke:#000000;stroke-width:0.625" />
<path d="M40.93,508.03L45.93,508.03" style="fill:none;stroke:#000000;stroke-width:0.625" />
<path d="M40.93,653.18L45.93,653.18" style="fill:none;stroke:#000000;stroke-width:0.625" />
<path d="M45.93,47.03L45.93,701.44" style="fill:none;stroke:#000000;stroke-width:0.625" />
<path d="M53.188,142.76L55.883,167.58L58.578,173.82L61.273,175.78L63.968,176.36L66.663,176.36L69.358,181.3L72.053,181.3L74.748,182.31L77.443,182.31L80.138,182.96L82.833,182.96L85.528,184.78L88.223,184.78L90.918,184.78L93.613,184.78L96.308,197.91L99.003,197.91L101.7,197.91L104.39,197.91L107.09,198.57L109.78,198.57L112.48,199.15L115.17,199.15L117.87,203.87L120.56,204.81L123.26,204.81L125.95,204.81L128.65,204.81L131.34,205.46L134.04,206.33L136.73,206.33L139.43,207.71L142.12,208.8L144.82,228.61L147.51,229.27L150.21,229.27L152.9,229.27L155.6,229.27L158.29,229.27L160.99,229.27L163.68,229.27L166.38,229.92L169.07,230.79L171.77,230.79L174.46,230.79L177.16,230.79L179.85,231.44L182.55,231.44L185.24,232.1L187.94,232.1L190.63,232.1L193.33,232.1L196.02,232.1L198.72,232.1L201.42,232.1L204.11,232.1L206.81,232.1L209.5,232.1L212.2,232.1L214.89,232.1L217.59,232.1L220.28,232.1L222.98,232.1L225.67,232.1L228.37,232.1L231.06,232.1L233.76,232.1L236.45,232.1L239.15,232.1L241.84,232.1L244.54,232.1L247.23,232.1L249.93,232.1L252.62,232.1L255.32,232.1L258.01,232.1L260.71,232.1L263.4,232.1L266.1,232.1L268.79,232.1L271.49,232.1L274.18,232.1L276.88,232.1L279.57,232.1L282.27,232.1L284.96,232.1L287.66,232.1L290.35,232.1L293.05,232.1L295.74,232.1L298.44,232.1L301.13,232.1L303.83,232.1L306.52,232.1L309.22,232.82L311.91,232.82L314.61,232.82L317.3,232.82L320,232.82L322.69,232.82L325.39,232.82L328.08,232.82L330.78,232.82L333.47,232.82L336.17,232.82L338.86,232.82L341.56,232.82L344.25,232.82L346.95,232.82L349.64,233.62L352.34,233.62L355.03,233.62L357.73,234.2L360.42,234.2L363.12,234.2L365.81,234.2L368.51,234.2L371.2,234.2L373.9,234.2L376.59,234.2L379.29,234.86L381.98,234.86L384.68,234.86L387.37,234.86L390.07,234.86L392.76,234.86L395.46,235.51L398.15,235.51L400.85,236.09L403.54,236.09L406.24,236.74L408.93,236.74L411.63,236.74L414.32,236.74L417.02,237.32L419.71,237.32L422.41,237.32L425.1,237.32L427.8,237.98L430.49,238.56L433.19,239.21L435.88,239.21L438.58,239.21L441.27,239.21L443.97,239.21L446.66,239.21L449.36,239.21L452.05,239.86L454.75,239.86L457.44,240.52L460.14,241.75L462.83,241.75L465.53,242.4L468.22,242.4L470.92,242.4L473.61,244.44L476.31,245.09L479,245.09L481.7,245.09L484.39,245.09L487.09,245.09L489.78,245.09L492.48,245.74L495.18,245.74L497.87,245.74L500.57,245.74L503.26,245.74L505.96,245.74L508.65,245.74L511.35,245.74L514.04,245.74L516.74,245.74L519.43,245.74L522.13,245.74L524.82,245.74L527.52,245.74L530.21,245.74L532.91,245.74L535.6,245.74L538.3,245.74L540.99,245.74L543.69,245.74L546.38,245.74L549.08,245.74L551.77,245.74L554.47,245.74L557.16,245.74L559.86,245.74L562.55,245.74L565.25,245.74L567.94,245.74L570.64,245.74L573.33,245.74L576.03,245.74L578.72,245.74L581.42,245.74L584.11,245.74L586.81,245.74L589.5,245.74L592.2,245.74L594.89,245.74L597.59,245.74L600.28,245.74L602.98,245.74L605.67,245.74L608.37,245.74L611.06,245.74L613.76,245.74L616.45,245.74L619.15,245.74L621.84,245.74L624.54,245.74L627.23,245.74L629.93,245.74L632.62,245.74L635.32,245.74L638.01,245.74L640.71,245.74L643.4,245.74L646.1,245.74L648.79,245.74L651.49,245.74L654.18,245.74L656.88,245.74L659.57,245.74L662.27,245.74L664.96,245.74L667.66,245.74L670.35,245.74L673.05,245.74L675.74,245.74L678.44,245.74L681.13,245.74L683.83,245.74L686.52,245.74L689.22,245.74L691.91,245.74L694.61,245.74L697.3,245.74L700,245.74L702.69,245.74L705.39,245.74L708.08,245.74L710.78,245.74L713.47,245.74L716.17,245.74L718.86,245.74L721.56,245.74L724.25,245.74L726.95,245.74L729.64,245.74L732.34,245.74L735.03,245.74L737.73,245.74L740.42,245.74L743.12,245.74L745.81,245.74L748.51,245.74L751.2,245.74L753.9,245.74L756.59,245.74L759.29,245.74L761.98,245.74L764.68,245.74L767.37,245.74L770.07,245.74L772.76,245.74L775.46,245.74L778.15,245.74L780.85,246.47L783.54,246.47L786.24,246.47L788.94,246.47L791.63,246.47L794.33,246.47L797.02,246.47L799.72,246.47L802.41,246.47L805.11,246.47L807.8,246.47L810.5,246.47L813.19,246.47L815.89,246.47L818.58,247.12L821.28,247.12L823.97,247.12L826.67,247.12" style="fill:none;stroke:#F15A60;stroke-width:1.875" />
<path d="M53.188,443.66L55.883,504.04L58.578,558.4L61.273,563.99L63.968,563.99L66.663,564.35L69.358,564.06L72.053,556.29L74.748,556.29L77.443,556.29L80.138,548.82L82.833,548.82L85.528,549.18L88.223,555.71L90.918,555.71L93.613,551.94L96.308,551.94L99.003,549.47L101.7,549.47L104.39,549.47L107.09,549.47L109.78,549.47L112.48,542L115.17,542L117.87,546.13L120.56,546.13L123.26,538.73L125.95,538.73L128.65,538.73L131.34,538.73L134.04,538.73L136.73,531.33L139.43,531.33L142.12,531.33L144.82,534.3L147.51,526.83L150.21,526.83L152.9,526.83L155.6,526.83L158.29,521.89L160.99,521.89L163.68,520.66L166.38,520.66L169.07,514.42L171.77,524.72L174.46,524.72L177.16,527.19L179.85,527.19L182.55,525.96L185.24,522.26L187.94,522.26L190.63,521.02L193.33,539.53L196.02,539.53L198.72,577.49L201.42,576.25L204.11,576.25L206.81,573.78L209.5,571.32L212.2,571.32L214.89,571.32L217.59,568.78L220.28,568.78L222.98,569.36L225.67,572.41L228.37,572.41L231.06,572.41L233.76,569.94L236.45,569.94L239.15,569.94L241.84,568.7L244.54,568.7L247.23,568.7L249.93,567.47L252.62,576.25L255.32,580.82L258.01,579.59L260.71,579.59L263.4,579.59L266.1,578.36L268.79,578.36L271.49,577.12L274.18,577.12L276.88,577.12L279.57,577.12L282.27,577.12L284.96,577.12L287.66,577.12L290.35,577.63L293.05,577.63L295.74,577.63L298.44,577.63L301.13,577.63L303.83,577.63L306.52,577.63L309.22,577.63L311.91,577.63L314.61,577.63L317.3,577.63L320,578.28L322.69,578.28L325.39,578.65L328.08,578.65L330.78,578.65L333.47,578.65L336.17,578.65L338.86,578.65L341.56,578.65L344.25,578.65L346.95,578.65L349.64,578.65L352.34,578.65L355.03,578.65L357.73,578.65L360.42,578.65L363.12,578.65L365.81,578.65L368.51,578.65L371.2,578.86L373.9,578.86L376.59,578.86L379.29,578.86L381.98,578.86L384.68,578.86L387.37,578.86L390.07,578.86L392.76,578.86L395.46,578.86L398.15,578.86L400.85,578.86L403.54,578.86L406.24,578.86L408.93,598.53L411.63,598.53L414.32,598.53L417.02,598.53L419.71,598.53L422.41,598.53L425.1,598.53L427.8,598.53L430.49,598.53L433.19,598.53L435.88,623.43L438.58,623.43L441.27,623.43L443.97,623.43L446.66,623.43L449.36,623.5L452.05,623.5L454.75,623.5L457.44,623.5L460.14,623.5L462.83,627.2L465.53,627.2L468.22,661.67L470.92,661.67L473.61,661.67L476.31,661.67L479,661.67L481.7,661.67L484.39,661.67L487.09,661.67L489.78,661.67L492.48,661.67L495.18,691.65L497.87,691.65L500.57,691.65L503.26,691.87L505.96,691.87L508.65,691.87L511.35,691.87L514.04,691.87L516.74,696.87L519.43,696.87L522.13,700.94L524.82,700.94L527.52,700.94L530.21,700.94L532.91,700.94L535.6,700.94L538.3,700.94L540.99,700.94L543.69,700.94L546.38,700.94L549.08,700.94L551.77,700.94L554.47,700.94L557.16,700.94L559.86,700.94L562.55,700.94L565.25,700.94L567.94,700.94L570.64,700.94L573.33,700.94L576.03,700.94L578.72,700.94L581.42,700.94L584.11,700.94L586.81,700.94L589.5,700.94L592.2,700.94L594.89,700.94L597.59,700.94L600.28,700.94L602.98,700.94L605.67,700.94L608.37,700.94L611.06,700.94L613.76,700.94L616.45,701.08L619.15,701.08L621.84,701.08L624.54,701.08L627.23,701.08L629.93,701.08L632.62,701.08L635.32,701.08L638.01,701.08L640.71,701.08L643.4,701.08L646.1,701.08L648.79,701.08L651.49,701.08L654.18,701.08L656.88,701.08L659.57,701.08L662.27,701.08L664.96,701.08L667.66,701.08L670.35,701.08L673.05,701.08L675.74,701.08L678.44,701.3L681.13,701.3L683.83,701.3L686.52,701.3L689.22,701.3L691.91,701.44L694.61,701.44L697.3,701.44L700,701.44L702.69,701.44L705.39,701.44L708.08,701.44L710.78,701.44L713.47,701.44L716.17,701.44L718.86,701.44L721.56,701.44L724.25,701.44L726.95,701.44L729.64,701.44L732.34,701.44" style="fill:none;stroke:#7AC36A;stroke-width:1.875;stroke-dasharray:7.5,2.5" />
<path d="M53.188,47.03L55.883,47.03L58.578,49.28L61.273,49.28L63.968,50.731L66.663,51.385L69.358,59.513L72.053,59.513L74.748,59.513L77.443,60.166L80.138,61.4L82.833,61.4L85.528,63.287L88.223,63.94L90.918,63.94L93.613,63.94L96.308,63.94L99.003,63.94L101.7,63.94L104.39,64.593L107.09,68.15L109.78,68.15L112.48,68.15L115.17,68.15L117.87,68.15L120.56,69.674L123.26,69.674L125.95,70.907L128.65,70.907L131.34,71.488L134.04,71.488L136.73,71.488L139.43,71.488L142.12,71.488L144.82,71.488L147.51,71.488L150.21,71.488L152.9,71.488L155.6,71.488L158.29,72.286L160.99,72.286L163.68,72.286L166.38,72.286L169.07,73.23L171.77,73.23L174.46,73.23L177.16,73.23L179.85,73.23L182.55,80.27L185.24,80.27L187.94,80.27L190.63,80.27L193.33,80.27L196.02,80.27L198.72,80.27L201.42,80.27L204.11,80.27L206.81,80.27L209.5,80.27L212.2,80.27L214.89,80.27L217.59,80.27L220.28,80.27L222.98,80.27L225.67,80.27L228.37,80.27L231.06,80.342L233.76,80.342L236.45,80.342L239.15,80.342L241.84,80.342L244.54,80.342L247.23,80.342L249.93,80.342L252.62,80.342L255.32,80.342L258.01,80.342L260.71,80.342L263.4,80.342L266.1,80.342L268.79,80.342L271.49,80.342L274.18,80.342L276.88,80.342L279.57,80.342L282.27,80.342L284.96,80.342L287.66,80.342L290.35,80.342L293.05,80.342L295.74,80.342L298.44,80.342L301.13,80.342L303.83,80.342L306.52,80.342L309.22,80.342L311.91,80.342L314.61,80.342L317.3,80.342L320,80.342L322.69,80.342L325.39,80.342L328.08,80.342L330.78,80.342L333.47,80.342L336.17,80.342L338.86,80.342L341.56,80.342L344.25,80.342L346.95,80.342L349.64,80.342L352.34,80.995L355.03,80.995L357.73,80.995L360.42,80.995L363.12,80.995L365.81,80.995L368.51,80.995L371.2,80.995L373.9,80.995L376.59,80.995L379.29,80.995L381.98,80.995L384.68,80.995L387.37,80.995L390.07,80.995L392.76,80.995L395.46,80.995L398.15,80.995L400.85,80.995L403.54,80.995L406.24,80.995L408.93,80.995L411.63,80.995L414.32,80.995L417.02,80.995L419.71,80.995L422.41,80.995L425.1,80.995L427.8,80.995L430.49,80.995L433.19,80.995L435.88,80.995L438.58,80.995L441.27,80.995L443.97,80.995L446.66,80.995L449.36,80.995L452.05,80.995L454.75,80.995L457.44,80.995L460.14,80.995L462.83,80.995L465.53,80.995L468.22,80.995L470.92,80.995L473.61,80.995L476.31,80.995L479,80.995L481.7,80.995L484.39,81.503L487.09,81.503L489.78,81.503L492.48,81.503L495.18,81.503L497.87,81.503L500.57,81.503L503.26,81.503L505.96,81.503L508.65,81.503L511.35,81.503L514.04,81.503L516.74,81.503L519.43,81.503L522.13,81.503L524.82,82.447L527.52,82.447L530.21,82.447L532.91,82.447L535.6,82.447L538.3,82.447L540.99,82.447L543.69,82.447L546.38,82.447L549.08,82.447L551.77,82.447L554.47,82.447L557.16,82.447L559.86,82.447L562.55,82.447L565.25,82.447L567.94,82.447L570.64,82.447L573.33,82.447L576.03,82.447L578.72,82.447L581.42,84.915L584.11,84.915L586.81,84.915L589.5,84.915L592.2,84.915L594.89,84.915L597.59,84.915L600.28,84.915L602.98,84.915L605.67,84.915L608.37,84.915L611.06,84.915L613.76,84.915L616.45,84.915L619.15,84.915L621.84,84.915L624.54,84.915L627.23,84.915L629.93,84.915L632.62,84.915L635.32,84.915L638.01,84.915L640.71,84.915L643.4,84.915L646.1,84.915L648.79,84.915L651.49,84.915L654.18,84.915L656.88,84.915L659.57,84.915L662.27,84.915L664.96,84.915L667.66,84.915L670.35,84.915L673.05,84.915L675.74,84.915L678.44,84.915L681.13,84.915L683.83,84.915L686.52,84.915L689.22,84.915L691.91,84.915L694.61,84.915L697.3,84.915L700,84.915L702.69,84.915L705.39,84.915L708.08,84.915L710.78,84.915L713.47,84.915L716.17,84.915L718.86,84.915L721.56,84.915L724.25,84.915L726.95,84.915L729.64,84.915L732.34,84.915L735.03,84.915L737.73,84.915L740.42,84.915L743.12,84.915L745.81,84.915L748.51,84.915L751.2,84.915L753.9,84.915L756.59,84.915L759.29,84.915L761.98,84.915L764.68,84.915L767.37,84.915L770.07,84.915L772.76,84.915L775.46,84.915L778.15,84.915L780.85,84.915L783.54,84.915L786.24,84.915L788.94,84.915L791.63,84.915L794.33,84.915L797.02,84.915L799.72,84.915L802.41,84.915L805.11,84.915L807.8,84.915L810.5,84.915L813.19,84.915L815.89,84.915L818.58,84.915L821.28,84.915L823.97,84.915L826.67,84.915L829.36,84.915L832.06,84.915L834.75,84.915L837.45,84.915L840.14,84.915L842.84,84.915L845.53,84.915L848.23,84.915L850.92,84.915L853.62,84.915L856.31,84.915L859.01,84.915L861.7,84.915L864.4,84.915L867.09,84.915L869.79,84.915L872.48,84.915L875.18,84.915L877.87,84.915L880.57,84.915L883.26,84.915L885.96,84.915L888.65,84.915L891.35,84.915L894.04,84.915L896.74,84.915L899.43,84.915L902.13,84.915L904.82,84.915L907.52,85.495L910.21,85.495L912.91,85.495L915.6,85.495L918.3,85.495L920.99,85.495L923.69,85.495L926.38,85.495L929.08,85.495L931.77,85.495L934.47,85.495L937.16,85.495L939.86,85.495L942.55,85.495L945.25,85.495L947.94,85.495L950.64,85.495L953.33,85.495L956.03,85.495L958.72,85.495L961.42,85.495L964.11,85.495L966.81,85.495L969.5,85.495L972.2,85.495L974.89,85.495L977.59,85.495L980.28,85.495L982.98,85.495L985.67,85.495L988.37,85.495L991.06,85.495L993.76,85.495L996.45,85.495L999.15,85.495L1001.8,85.495L1004.5,85.495L1007.2,85.495L1009.9,85.495L1012.6,85.495L1015.3,85.495L1018,85.495L1020.7,85.495L1023.4,85.495L1026.1,85.495L1028.8,85.495L1031.5,85.495L1034.2,85.495L1036.9,85.495L1039.6,85.495L1042.3,85.495L1045,85.495L1047.7,85.495L1050.4,85.495L1053,85.495L1055.7,85.495L1058.4,85.495L1061.1,85.495L1063.8,85.495L1066.5,85.495L1069.2,85.495L1071.9,85.495L1074.6,85.495L1077.3,85.495L1080,85.495" style="fill:none;stroke:#5A9BD4;stroke-width:1.875;stroke-dasharray:2.5,2.5" />
<path d="M1055,694.3L1080,694.3" style="fill:none;stroke:#F15A60;stroke-width:1.875" />
<text x="1002.5" y="-687.85" transform="scale(1, -1)"
	style="font-family:Helvetica;font-weight:normal;font-style:normal;font-size:12pt">etcd v3</text>
<path d="M1055,680L1080,680" style="fill:none;stroke:#7AC36A;stroke-width:1.875;stroke-dasharray:7.5,2.5" />
<text x="941.6" y="-673.56" transform="scale(1, -1)"
	style="font-family:Helvetica;font-weight:normal;font-style:normal;font-size:12pt">Zookeeper 3.4.8</text>
<path d="M1055,665.71L1080,665.71" style="fill:none;stroke:#5A9BD4;stroke-width:1.875;stroke-dasharray:2.5,2.5" />
<text x="966.62" y="-659.26" transform="scale(1, -1)"
	style="font-family:Helvetica;font-weight:normal;font-style:normal;font-size:12pt">Consul 0.6.4</text>
</g>
</svg>
