<?xml version="1.0"?>
<!-- Generated by SVGo and Plotinum VG -->
<svg width="12in" height="8in"
	xmlns="http://www.w3.org/2000/svg"
	xmlns:xlink="http://www.w3.org/1999/xlink">
<g transform="scale(1, -1) translate(0, -720)">
<path d="M0,0L1080,0L1080,720L0,720Z" style="fill:#FFFFFF" />
<text x="332" y="-706.41" transform="scale(1, -1)"
	style="font-family:Helvetica;font-weight:normal;font-style:normal;font-size:12pt">Read 1M keys, 1000 clients, key 64 bytes, value 1 kb, Memory</text>
<text x="545.89" y="-4.965" transform="scale(1, -1)"
	style="font-family:Helvetica;font-weight:normal;font-style:normal;font-size:12pt">second</text>
<text x="56.662" y="-19.142" transform="scale(1, -1)"
	style="font-family:Helvetica;font-weight:normal;font-style:normal;font-size:10pt">0</text>
<text x="389.41" y="-19.142" transform="scale(1, -1)"
	style="font-family:Helvetica;font-weight:normal;font-style:normal;font-size:10pt">60</text>
<text x="722.15" y="-19.142" transform="scale(1, -1)"
	style="font-family:Helvetica;font-weight:normal;font-style:normal;font-size:10pt">120</text>
<text x="1058.4" y="-19.142" transform="scale(1, -1)"
	style="font-family:Helvetica;font-weight:normal;font-style:normal;font-size:10pt">180</text>
<path d="M60.137,30.467L60.137,40.467" style="fill:none;stroke:#000000;stroke-width:0.625" />
<path d="M396.36,30.467L396.36,40.467" style="fill:none;stroke:#000000;stroke-width:0.625" />
<path d="M732.57,30.467L732.57,40.467" style="fill:none;stroke:#000000;stroke-width:0.625" />
<path d="M1068.8,30.467L1068.8,40.467" style="fill:none;stroke:#000000;stroke-width:0.625" />
<path d="M172.21,35.468L172.21,40.467" style="fill:none;stroke:#000000;stroke-width:0.625" />
<path d="M284.28,35.468L284.28,40.467" style="fill:none;stroke:#000000;stroke-width:0.625" />
<path d="M508.43,35.468L508.43,40.467" style="fill:none;stroke:#000000;stroke-width:0.625" />
<path d="M620.5,35.468L620.5,40.467" style="fill:none;stroke:#000000;stroke-width:0.625" />
<path d="M844.65,35.468L844.65,40.467" style="fill:none;stroke:#000000;stroke-width:0.625" />
<path d="M956.72,35.468L956.72,40.467" style="fill:none;stroke:#000000;stroke-width:0.625" />
<path d="M60.137,40.467L1080,40.467" style="fill:none;stroke:#000000;stroke-width:0.625" />
<g transform="rotate(90)">
<text x="330.91" y="13.59" transform="scale(1, -1)"
	style="font-family:Helvetica;font-weight:normal;font-style:normal;font-size:12pt">Memory(MB)</text>
</g>
<text x="25.505" y="-196.99" transform="scale(1, -1)"
	style="font-family:Helvetica;font-weight:normal;font-style:normal;font-size:10pt">80</text>
<text x="18.555" y="-391" transform="scale(1, -1)"
	style="font-family:Helvetica;font-weight:normal;font-style:normal;font-size:10pt">160</text>
<text x="18.555" y="-585.01" transform="scale(1, -1)"
	style="font-family:Helvetica;font-weight:normal;font-style:normal;font-size:10pt">240</text>
<path d="M42.88,202.36L52.88,202.36" style="fill:none;stroke:#000000;stroke-width:0.625" />
<path d="M42.88,396.37L52.88,396.37" style="fill:none;stroke:#000000;stroke-width:0.625" />
<path d="M42.88,590.38L52.88,590.38" style="fill:none;stroke:#000000;stroke-width:0.625" />
<path d="M47.88,105.35L52.88,105.35" style="fill:none;stroke:#000000;stroke-width:0.625" />
<path d="M47.88,299.36L52.88,299.36" style="fill:none;stroke:#000000;stroke-width:0.625" />
<path d="M47.88,493.37L52.88,493.37" style="fill:none;stroke:#000000;stroke-width:0.625" />
<path d="M47.88,687.38L52.88,687.38" style="fill:none;stroke:#000000;stroke-width:0.625" />
<path d="M52.88,47.03L52.88,701.44" style="fill:none;stroke:#000000;stroke-width:0.625" />
<path d="M60.137,47.03L65.741,51.638L71.345,51.856L76.948,52.559L82.552,52.947L88.156,53.166L93.759,53.166L99.363,53.166L104.97,53.166L110.57,53.723L116.17,53.723L121.78,53.723L127.38,53.723L132.98,53.723L138.59,54.912L144.19,54.912L149.8,55.275" style="fill:none;stroke:#F15A60;stroke-width:1.875" />
<path d="M60.137,229.2L65.741,230.47L71.345,240.34L76.948,240.34L82.552,244.92L88.156,244.92L93.759,244.92L99.363,244.92L104.97,245.14L110.57,245.33L116.17,245.33L121.78,245.52L127.38,254.21L132.98,254.21L138.59,262.96L144.19,262.96L149.8,263.18L155.4,263.18" style="fill:none;stroke:#7AC36A;stroke-width:1.875;stroke-dasharray:7.5,2.5" />
<path d="M60.137,77.538L65.741,130.31L71.345,132.32L76.948,134.89L82.552,135.09L88.156,135.28L93.759,135.28L99.363,135.28L104.97,136.1L110.57,136.1L116.17,136.1L121.78,136.1L127.38,136.1L132.98,136.1L138.59,136.1L144.19,136.1L149.8,136.1L155.4,136.1L161,136.1L166.61,136.1L172.21,136.1L177.81,136.1L183.42,136.1L189.02,136.1L194.62,137.66L200.23,137.66L205.83,137.66L211.44,137.66L217.04,137.66L222.64,137.66L228.25,137.66L233.85,137.66L239.45,137.66L245.06,137.66L250.66,142.46L256.26,142.46L261.87,142.46L267.47,142.46L273.08,142.46L278.68,142.46L284.28,142.46L289.89,142.46L295.49,142.46L301.09,142.46L306.7,142.48L312.3,142.48L317.9,142.48L323.51,142.48L329.11,143.89L334.72,143.89L340.32,143.89L345.92,143.89L351.53,143.89L357.13,143.89L362.73,143.89L368.34,143.89L373.94,143.89L379.54,143.89L385.15,143.89L390.75,143.89L396.36,143.89L401.96,144.28L407.56,144.66L413.17,144.66L418.77,144.66L424.37,144.66L429.98,144.66L435.58,144.66L441.19,144.66L446.79,144.66L452.39,144.66L458,144.66L463.6,144.66L469.2,144.66L474.81,144.66L480.41,144.66L486.01,144.66L491.62,144.66L497.22,144.66L502.83,144.66L508.43,144.66L514.03,144.66L519.64,144.66L525.24,144.66L530.84,144.66L536.45,144.66L542.05,144.66L547.65,144.66L553.26,144.66L558.86,144.66L564.47,144.66L570.07,144.66L575.67,144.66L581.28,144.66L586.88,144.66L592.48,144.66L598.09,144.66L603.69,144.66L609.29,144.66L614.9,144.66L620.5,144.66L626.11,144.66L631.71,144.66L637.31,144.66L642.92,144.66L648.52,144.66L654.12,144.66L659.73,144.66L665.33,144.66L670.93,144.66L676.54,144.66L682.14,144.66L687.75,144.66L693.35,144.66L698.95,144.66L704.56,144.66L710.16,144.66L715.76,144.66L721.37,144.66L726.97,144.66L732.57,144.66L738.18,144.66L743.78,144.66L749.39,144.66L754.99,144.86L760.59,144.86L766.2,144.86L771.8,144.86L777.4,144.86L783.01,144.86L788.61,144.86L794.21,144.86L799.82,144.86L805.42,144.86L811.03,144.86L816.63,144.86L822.23,144.86L827.84,144.86L833.44,144.86L839.04,144.86L844.65,144.86L850.25,144.86L855.85,144.86L861.46,144.86L867.06,144.86L872.67,144.86L878.27,144.86L883.87,144.86L889.48,145.63L895.08,145.63L900.68,145.63L906.29,145.63L911.89,145.63L917.49,145.63L923.1,145.63L928.7,145.63L934.31,145.63L939.91,145.63L945.51,145.63L951.12,145.63L956.72,145.63L962.32,145.63L967.93,145.63L973.53,145.63L979.13,145.63L984.74,145.63L990.34,145.63L995.95,145.63L1001.5,145.63L1007.2,145.63L1012.8,145.63L1018.4,145.63L1024,145.63L1029.6,145.63L1035.2,145.63L1040.8,145.63L1046.4,145.63L1052,145.63L1057.6,145.63L1063.2,145.63L1068.8,145.63L1074.4,145.63L1080,145.63" style="fill:none;stroke:#5A9BD4;stroke-width:1.875;stroke-dasharray:2.5,2.5" />
<path d="M60.137,198.77L65.741,363.02L71.345,376.67L76.948,438.66L82.552,579.03L88.156,701.44L93.759,698.9L99.363,686.29" style="fill:none;stroke:#FAA75B;stroke-width:1.875;stroke-dasharray:1.25,1.25" />
<path d="M1055,694.3L1080,694.3" style="fill:none;stroke:#F15A60;stroke-width:1.875" />
<text x="1007.5" y="-687.85" transform="scale(1, -1)"
	style="font-family:Helvetica;font-weight:normal;font-style:normal;font-size:12pt">consul</text>
<path d="M1055,680L1080,680" style="fill:none;stroke:#7AC36A;stroke-width:1.875;stroke-dasharray:7.5,2.5" />
<text x="1014.1" y="-673.56" transform="scale(1, -1)"
	style="font-family:Helvetica;font-weight:normal;font-style:normal;font-size:12pt">etcd3</text>
<path d="M1055,665.71L1080,665.71" style="fill:none;stroke:#5A9BD4;stroke-width:1.875;stroke-dasharray:2.5,2.5" />
<text x="1014.1" y="-659.26" transform="scale(1, -1)"
	style="font-family:Helvetica;font-weight:normal;font-style:normal;font-size:12pt">etcd2</text>
<path d="M1055,651.41L1080,651.41" style="fill:none;stroke:#FAA75B;stroke-width:1.875;stroke-dasharray:1.25,1.25" />
<text x="1035.8" y="-644.97" transform="scale(1, -1)"
	style="font-family:Helvetica;font-weight:normal;font-style:normal;font-size:12pt">zk</text>
</g>
</svg>
