<?xml version="1.0"?>
<!-- Generated by SVGo and Plotinum VG -->
<svg width="12in" height="8in"
	xmlns="http://www.w3.org/2000/svg"
	xmlns:xlink="http://www.w3.org/1999/xlink">
<g transform="scale(1, -1) translate(0, -720)">
<path d="M0,0L1080,0L1080,720L0,720Z" style="fill:#FFFFFF" />
<text x="249.48" y="-706.41" transform="scale(1, -1)"
	style="font-family:Helvetica;font-weight:normal;font-style:normal;font-size:12pt">Write 1M keys, 1K clients(100 etcd conns), key 64 bytes, value 256 bytes, Memory(MB)</text>
<text x="548.11" y="-4.965" transform="scale(1, -1)"
	style="font-family:Helvetica;font-weight:normal;font-style:normal;font-size:12pt">Second</text>
<text x="63.613" y="-19.142" transform="scale(1, -1)"
	style="font-family:Helvetica;font-weight:normal;font-style:normal;font-size:10pt">0</text>
<text x="370.85" y="-19.142" transform="scale(1, -1)"
	style="font-family:Helvetica;font-weight:normal;font-style:normal;font-size:10pt">50</text>
<text x="678.08" y="-19.142" transform="scale(1, -1)"
	style="font-family:Helvetica;font-weight:normal;font-style:normal;font-size:10pt">100</text>
<text x="988.79" y="-19.142" transform="scale(1, -1)"
	style="font-family:Helvetica;font-weight:normal;font-style:normal;font-size:10pt">150</text>
<path d="M67.088,30.467L67.088,40.467" style="fill:none;stroke:#000000;stroke-width:0.625" />
<path d="M377.8,30.467L377.8,40.467" style="fill:none;stroke:#000000;stroke-width:0.625" />
<path d="M688.51,30.467L688.51,40.467" style="fill:none;stroke:#000000;stroke-width:0.625" />
<path d="M999.22,30.467L999.22,40.467" style="fill:none;stroke:#000000;stroke-width:0.625" />
<path d="M129.23,35.468L129.23,40.467" style="fill:none;stroke:#000000;stroke-width:0.625" />
<path d="M191.37,35.468L191.37,40.467" style="fill:none;stroke:#000000;stroke-width:0.625" />
<path d="M253.51,35.468L253.51,40.467" style="fill:none;stroke:#000000;stroke-width:0.625" />
<path d="M315.65,35.468L315.65,40.467" style="fill:none;stroke:#000000;stroke-width:0.625" />
<path d="M439.94,35.468L439.94,40.467" style="fill:none;stroke:#000000;stroke-width:0.625" />
<path d="M502.08,35.468L502.08,40.467" style="fill:none;stroke:#000000;stroke-width:0.625" />
<path d="M564.22,35.468L564.22,40.467" style="fill:none;stroke:#000000;stroke-width:0.625" />
<path d="M626.36,35.468L626.36,40.467" style="fill:none;stroke:#000000;stroke-width:0.625" />
<path d="M750.65,35.468L750.65,40.467" style="fill:none;stroke:#000000;stroke-width:0.625" />
<path d="M812.79,35.468L812.79,40.467" style="fill:none;stroke:#000000;stroke-width:0.625" />
<path d="M874.93,35.468L874.93,40.467" style="fill:none;stroke:#000000;stroke-width:0.625" />
<path d="M937.07,35.468L937.07,40.467" style="fill:none;stroke:#000000;stroke-width:0.625" />
<path d="M1061.4,35.468L1061.4,40.467" style="fill:none;stroke:#000000;stroke-width:0.625" />
<path d="M67.088,40.467L1080,40.467" style="fill:none;stroke:#000000;stroke-width:0.625" />
<g transform="rotate(90)">
<text x="330.91" y="13.59" transform="scale(1, -1)"
	style="font-family:Helvetica;font-weight:normal;font-style:normal;font-size:12pt">Memory(MB)</text>
</g>
<text x="25.505" y="-213.71" transform="scale(1, -1)"
	style="font-family:Helvetica;font-weight:normal;font-style:normal;font-size:10pt">800</text>
<text x="18.555" y="-390.5" transform="scale(1, -1)"
	style="font-family:Helvetica;font-weight:normal;font-style:normal;font-size:10pt">1600</text>
<text x="18.555" y="-567.29" transform="scale(1, -1)"
	style="font-family:Helvetica;font-weight:normal;font-style:normal;font-size:10pt">2400</text>
<path d="M49.83,219.08L59.83,219.08" style="fill:none;stroke:#000000;stroke-width:0.625" />
<path d="M49.83,395.87L59.83,395.87" style="fill:none;stroke:#000000;stroke-width:0.625" />
<path d="M49.83,572.66L59.83,572.66" style="fill:none;stroke:#000000;stroke-width:0.625" />
<path d="M54.83,130.68L59.83,130.68" style="fill:none;stroke:#000000;stroke-width:0.625" />
<path d="M54.83,307.47L59.83,307.47" style="fill:none;stroke:#000000;stroke-width:0.625" />
<path d="M54.83,484.26L59.83,484.26" style="fill:none;stroke:#000000;stroke-width:0.625" />
<path d="M54.83,661.05L59.83,661.05" style="fill:none;stroke:#000000;stroke-width:0.625" />
<path d="M59.83,47.03L59.83,701.44" style="fill:none;stroke:#000000;stroke-width:0.625" />
<path d="M67.088,47.03L73.302,59.598L79.516,63.235L85.73,66.201L91.944,69.35L98.158,72.242L104.37,74.786L110.59,77.789L116.8,80.277L123.02,94.449L129.23,99.229L135.44,107.15L141.66,109.9L147.87,113.03L154.09,116.48L160.3,119.67L166.51,124.31L172.73,127.12L178.94,130.84L185.16,134.69L191.37,140.42L197.59,143.58L203.8,148.43L210.01,154.03L216.23,156.95L222.44,161.36L228.66,164.74L234.87,171.66L241.08,174.78L247.3,178.18L253.51,182.38L259.73,186.89L265.94,192.19L272.16,195.42L278.37,199.33L284.58,204.22L290.8,207.67L297.01,211.38L303.23,217.46L309.44,220.55L315.65,222.12L321.87,224.56L328.08,225.77L334.3,227.11L340.51,229.08L346.73,230.97L352.94,232.18L359.15,233.99L365.37,236.24L371.58,237.07L377.8,238.67L384.01,239.82L390.23,242.65L396.44,243.64L402.65,245.02L408.87,246.17L415.08,247.59L421.3,249.2L427.51,251.34L433.72,252.91L439.94,255.04L446.15,256.64L452.37,258.44L458.58,260.15L464.8,261.75L471.01,263.63L477.22,265.86L483.44,268.08L489.65,270.07L495.87,271.76L502.08,273.24L508.29,274.9L514.51,276.79L520.72,278.85L526.94,280.03L533.15,282.07" style="fill:none;stroke:#F15A60;stroke-width:1.875" />
<path d="M67.088,55.231L73.302,78.925L79.516,101.38L85.73,112.28L91.944,148.15L98.158,176.26L104.37,213.81L110.59,243.95L116.8,254.64L123.02,294.78L129.23,310.24L135.44,340.62L141.66,355.96L147.87,366.07L154.09,370.11L160.3,418.64L166.51,419.7L172.73,419.7L178.94,444.52L185.16,444.52L191.37,451.79L197.59,455.33L203.8,461.91L210.01,461.15L216.23,480.42L222.44,482.44L228.66,482.47L234.87,482.11L241.08,489.83L247.3,493.11L253.51,516.6L259.73,517.59L265.94,523.82L272.16,531.63L278.37,531.72L284.58,531.72L290.8,531.74L297.01,549.59L303.23,557.65L309.44,557.27L315.65,557.27L321.87,557.27L328.08,557.27L334.3,557.27L340.51,557.27L346.73,557.27L352.94,557.27L359.15,557.3L365.37,557.27L371.58,557.39L377.8,557.37L384.01,557.42L390.23,557.46L396.44,557.46L402.65,557.49L408.87,557.51L415.08,557.52L421.3,557.5L427.51,557.47L433.72,557.47L439.94,557.37L446.15,557.37L452.37,557.37L458.58,557.37L464.8,557.36L471.01,557.35L477.22,557.35L483.44,557.35L489.65,557.35L495.87,557.35L502.08,558.95L508.29,560.54L514.51,560.74L520.72,558.03L526.94,558.03L533.15,557.84L539.37,557.84L545.58,558.31L551.79,558.31L558.01,558.3L564.22,567.97L570.44,571.24L576.65,571.25L582.87,611.3L589.08,609.36L595.29,608.99L601.51,610.11L607.72,615.29L613.94,619.39L620.15,621L626.36,625.14L632.58,632.77L638.79,643.82L645.01,643.94L651.22,643.96L657.44,644.94L663.65,645.81L669.86,647.63L676.08,649.7L682.29,651L688.51,649.59L694.72,652.29L700.93,652.66L707.15,662.04L713.36,668.62L719.58,691.51L725.79,701.18L732.01,701.44L738.22,701.44L744.43,698.86L750.65,698.86L756.86,698.86L763.08,698.31L769.29,698.33L775.5,693.66L781.72,691.2L787.93,688.63L794.15,688.63L800.36,688.63L806.58,688.63L812.79,688.63L819,688.63L825.22,688.63L831.43,688.63L837.65,688.63L843.86,688.63L850.08,689.06L856.29,689.48L862.5,689.89L868.72,689.75L874.93,689.62L881.15,689.62L887.36,689.62L893.57,689.62L899.79,689.62L906,689.62L912.22,689.62L918.43,689.62L924.65,689.6L930.86,689.7L937.07,689.79L943.29,689.85L949.5,690.91L955.72,691.92L961.93,691.26L968.14,691.26L974.36,691.26L980.57,691.26L986.79,691.26L993,690.73L999.22,690.2L1005.4,690.2L1011.6,690.2L1017.9,688.26L1024.1,686.31L1030.3,686.46L1036.5,686.6L1042.7,686.6L1048.9,686.47L1055.1,686.34L1061.4,686.34L1067.6,686.34L1073.8,687.5L1080,688.66" style="fill:none;stroke:#7AC36A;stroke-width:1.875;stroke-dasharray:7.5,2.5" />
<path d="M1055,694.3L1080,694.3" style="fill:none;stroke:#F15A60;stroke-width:1.875" />
<text x="1002.5" y="-687.85" transform="scale(1, -1)"
	style="font-family:Helvetica;font-weight:normal;font-style:normal;font-size:12pt">etcd v3</text>
<path d="M1055,680L1080,680" style="fill:none;stroke:#7AC36A;stroke-width:1.875;stroke-dasharray:7.5,2.5" />
<text x="934.1" y="-673.56" transform="scale(1, -1)"
	style="font-family:Helvetica;font-weight:normal;font-style:normal;font-size:12pt">Zookeeper v3.4.8</text>
</g>
</svg>
