<?xml version="1.0"?>
<!-- Generated by SVGo and Plotinum VG -->
<svg width="12in" height="8in"
	xmlns="http://www.w3.org/2000/svg"
	xmlns:xlink="http://www.w3.org/1999/xlink">
<g transform="scale(1, -1) translate(0, -720)">
<path d="M0,0L1080,0L1080,720L0,720Z" style="fill:#FFFFFF" />
<text x="224.46" y="-706.41" transform="scale(1, -1)"
	style="font-family:Helvetica;font-weight:normal;font-style:normal;font-size:12pt">Write 1M keys, 1K clients(100 etcd conns), key 64 bytes, value 256 bytes, Latency(millisecond)</text>
<text x="548.11" y="-4.965" transform="scale(1, -1)"
	style="font-family:Helvetica;font-weight:normal;font-style:normal;font-size:12pt">Second</text>
<text x="63.613" y="-19.142" transform="scale(1, -1)"
	style="font-family:Helvetica;font-weight:normal;font-style:normal;font-size:10pt">0</text>
<text x="368.95" y="-19.142" transform="scale(1, -1)"
	style="font-family:Helvetica;font-weight:normal;font-style:normal;font-size:10pt">50</text>
<text x="674.29" y="-19.142" transform="scale(1, -1)"
	style="font-family:Helvetica;font-weight:normal;font-style:normal;font-size:10pt">100</text>
<text x="983.11" y="-19.142" transform="scale(1, -1)"
	style="font-family:Helvetica;font-weight:normal;font-style:normal;font-size:10pt">150</text>
<path d="M67.088,30.467L67.088,40.467" style="fill:none;stroke:#000000;stroke-width:0.625" />
<path d="M375.9,30.467L375.9,40.467" style="fill:none;stroke:#000000;stroke-width:0.625" />
<path d="M684.72,30.467L684.72,40.467" style="fill:none;stroke:#000000;stroke-width:0.625" />
<path d="M993.53,30.467L993.53,40.467" style="fill:none;stroke:#000000;stroke-width:0.625" />
<path d="M128.85,35.468L128.85,40.467" style="fill:none;stroke:#000000;stroke-width:0.625" />
<path d="M190.61,35.468L190.61,40.467" style="fill:none;stroke:#000000;stroke-width:0.625" />
<path d="M252.38,35.468L252.38,40.467" style="fill:none;stroke:#000000;stroke-width:0.625" />
<path d="M314.14,35.468L314.14,40.467" style="fill:none;stroke:#000000;stroke-width:0.625" />
<path d="M437.67,35.468L437.67,40.467" style="fill:none;stroke:#000000;stroke-width:0.625" />
<path d="M499.43,35.468L499.43,40.467" style="fill:none;stroke:#000000;stroke-width:0.625" />
<path d="M561.19,35.468L561.19,40.467" style="fill:none;stroke:#000000;stroke-width:0.625" />
<path d="M622.95,35.468L622.95,40.467" style="fill:none;stroke:#000000;stroke-width:0.625" />
<path d="M746.48,35.468L746.48,40.467" style="fill:none;stroke:#000000;stroke-width:0.625" />
<path d="M808.24,35.468L808.24,40.467" style="fill:none;stroke:#000000;stroke-width:0.625" />
<path d="M870.01,35.468L870.01,40.467" style="fill:none;stroke:#000000;stroke-width:0.625" />
<path d="M931.77,35.468L931.77,40.467" style="fill:none;stroke:#000000;stroke-width:0.625" />
<path d="M1055.3,35.468L1055.3,40.467" style="fill:none;stroke:#000000;stroke-width:0.625" />
<path d="M67.088,40.467L1080,40.467" style="fill:none;stroke:#000000;stroke-width:0.625" />
<g transform="rotate(90)">
<text x="305.89" y="13.59" transform="scale(1, -1)"
	style="font-family:Helvetica;font-weight:normal;font-style:normal;font-size:12pt">Latency(millisecond)</text>
</g>
<text x="39.405" y="-41.661" transform="scale(1, -1)"
	style="font-family:Helvetica;font-weight:normal;font-style:normal;font-size:10pt">0</text>
<text x="25.505" y="-253.13" transform="scale(1, -1)"
	style="font-family:Helvetica;font-weight:normal;font-style:normal;font-size:10pt">800</text>
<text x="18.555" y="-464.6" transform="scale(1, -1)"
	style="font-family:Helvetica;font-weight:normal;font-style:normal;font-size:10pt">1600</text>
<text x="18.555" y="-676.07" transform="scale(1, -1)"
	style="font-family:Helvetica;font-weight:normal;font-style:normal;font-size:10pt">2400</text>
<path d="M49.83,47.03L59.83,47.03" style="fill:none;stroke:#000000;stroke-width:0.625" />
<path d="M49.83,258.5L59.83,258.5" style="fill:none;stroke:#000000;stroke-width:0.625" />
<path d="M49.83,469.97L59.83,469.97" style="fill:none;stroke:#000000;stroke-width:0.625" />
<path d="M49.83,681.44L59.83,681.44" style="fill:none;stroke:#000000;stroke-width:0.625" />
<path d="M54.83,152.77L59.83,152.77" style="fill:none;stroke:#000000;stroke-width:0.625" />
<path d="M54.83,364.24L59.83,364.24" style="fill:none;stroke:#000000;stroke-width:0.625" />
<path d="M54.83,575.71L59.83,575.71" style="fill:none;stroke:#000000;stroke-width:0.625" />
<path d="M59.83,47.03L59.83,701.44" style="fill:none;stroke:#000000;stroke-width:0.625" />
<path d="M67.088,54.365L73.264,54.848L79.44,55.776L85.616,55.808L91.793,56.141L97.969,55.94L104.15,56.166L110.32,55.143L116.5,58.138L122.67,56.545L128.85,65.185L135.03,58.753L141.2,56.94L147.38,57.328L153.56,56.448L159.73,56.876L165.91,56.415L172.08,56.675L178.26,56.338L184.44,56.529L190.61,56.437L196.79,56.319L202.97,56.254L209.14,56.663L215.32,55.979L221.49,56.825L227.67,56.23L233.85,57.924L240.02,56.441L246.2,56.683L252.38,56.399L258.55,57.496L264.73,57.069L270.91,56.9L277.08,57.287L283.26,57.305L289.43,57.665L295.61,57.81L301.79,58.886L307.96,57.282L314.14,57.892L320.32,57.764L326.49,58.62L332.67,59.404L338.84,57.627L345.02,57.468L351.2,57.434L357.37,56.988L363.55,56.92L369.73,57.834L375.9,57.688L382.08,57.7L388.25,58.32L394.43,58.026L400.61,56.779L406.78,56.39L412.96,57.584L419.14,58.055L425.31,56.827L431.49,58.47L437.67,55.943L443.84,58.565L450.02,56.109L456.19,56.273L462.37,57.957L468.55,56.487L474.72,56.944L480.9,58.631L487.08,57.174L493.25,56.278L499.43,56.592L505.6,57.634L511.78,59.105L517.96,57.153L524.13,57.359L530.31,57.457L536.49,57.462" style="fill:none;stroke:#F15A60;stroke-width:1.875" />
<path d="M67.088,61.257L73.264,51.313L79.44,52.071L85.616,63.072L91.793,54.819L97.969,53.612L104.15,53.86L110.32,54.522L116.5,57.818L122.67,55.023L128.85,57.16L135.03,54.234L141.2,54.232L147.38,59.241L153.56,53.687L159.73,72.45L165.91,54.088L172.08,53.943L178.26,54.053L184.44,53.42L190.61,53.492L196.79,64.615L202.97,53.882L209.14,53.602L215.32,53.282L221.49,72.911L227.67,54.794L233.85,53.52L240.02,54.765L246.2,53.853L252.38,53.414L258.55,53.566L264.73,53.022L270.91,47.03L277.08,77.496L283.26,53.338L289.43,55.121L295.61,51.1L301.79,537.82L307.96,69.531L314.14,126.78L320.32,180.39L326.49,249.97L332.67,463.91L338.84,47.03L345.02,47.03L351.2,47.03L357.37,47.03L363.55,47.03L369.73,47.03L375.9,47.03L382.08,47.03L388.25,47.03L394.43,47.03L400.61,47.03L406.78,47.03L412.96,47.03L419.14,47.03L425.31,47.03L431.49,47.03L437.67,47.03L443.84,47.03L450.02,47.03L456.19,47.03L462.37,47.03L468.55,47.03L474.72,47.03L480.9,47.03L487.08,47.03L493.25,47.03L499.43,47.03L505.6,47.03L511.78,47.03L517.96,47.03L524.13,47.03L530.31,47.03L536.49,47.03L542.66,47.03L548.84,47.03L555.01,47.03L561.19,116.23L567.37,52.233L573.54,51.124L579.72,52.375L585.9,51.995L592.07,52.505L598.25,51.854L604.43,53.463L610.6,51.998L616.78,52.007L622.95,52.09L629.13,47.03L635.31,78.188L641.48,167.24L647.66,341.28L653.84,47.03L660.01,47.03L666.19,80.422L672.36,56.485L678.54,56.324L684.72,59.986L690.89,54.868L697.07,47.03L703.25,94.496L709.42,54.973L715.6,47.03L721.77,548.34L727.95,66.579L734.13,55.793L740.3,52.716L746.48,56.198L752.66,57.052L758.83,55.711L765.01,54.862L771.19,55.929L777.36,57.242L783.54,59.772L789.71,221.52L795.89,47.03L802.07,701.44L808.24,47.03L814.42,47.03L820.6,47.03L826.77,47.03L832.95,47.03L839.12,47.03L845.3,47.03L851.48,47.03L857.65,47.03L863.83,47.03L870.01,47.03L876.18,47.03L882.36,47.03L888.53,47.03L894.71,47.03L900.89,47.03L907.06,47.03L913.24,47.03L919.42,47.03L925.59,47.03L931.77,47.03L937.95,47.03L944.12,47.03L950.3,47.03L956.47,47.03L962.65,47.03L968.83,47.03L975,47.03L981.18,47.03L987.36,47.03L993.53,47.03L999.71,47.03L1005.9,47.03L1012.1,47.03L1018.2,47.03L1024.4,47.03L1030.6,47.03L1036.8,47.03L1042.9,47.03L1049.1,47.03L1055.3,47.03L1061.5,47.03L1067.6,47.03L1073.8,47.03L1080,129.9" style="fill:none;stroke:#7AC36A;stroke-width:1.875;stroke-dasharray:7.5,2.5" />
<path d="M1055,694.3L1080,694.3" style="fill:none;stroke:#F15A60;stroke-width:1.875" />
<text x="1002.5" y="-687.85" transform="scale(1, -1)"
	style="font-family:Helvetica;font-weight:normal;font-style:normal;font-size:12pt">etcd v3</text>
<path d="M1055,680L1080,680" style="fill:none;stroke:#7AC36A;stroke-width:1.875;stroke-dasharray:7.5,2.5" />
<text x="934.1" y="-673.56" transform="scale(1, -1)"
	style="font-family:Helvetica;font-weight:normal;font-style:normal;font-size:12pt">Zookeeper v3.4.8</text>
</g>
</svg>
