<?xml version="1.0"?>
<!-- Generated by SVGo and Plotinum VG -->
<svg width="12in" height="8in"
	xmlns="http://www.w3.org/2000/svg"
	xmlns:xlink="http://www.w3.org/1999/xlink">
<g transform="scale(1, -1) translate(0, -720)">
<path d="M0,0L1080,0L1080,720L0,720Z" style="fill:#FFFFFF" />
<text x="290.01" y="-705.6" transform="scale(1, -1)"
	style="font-family:Helvetica;font-weight:normal;font-style:normal;font-size:12pt">Read 2M keys, 1000-client, 500-conn, 8-byte same key, 300-kb value, CPU</text>
<text x="544.98" y="-4.8486" transform="scale(1, -1)"
	style="font-family:Helvetica;font-weight:normal;font-style:normal;font-size:12pt">Second</text>
<text x="57.358" y="-19.498" transform="scale(1, -1)"
	style="font-family:Helvetica;font-weight:normal;font-style:normal;font-size:10pt">0</text>
<text x="263.62" y="-19.498" transform="scale(1, -1)"
	style="font-family:Helvetica;font-weight:normal;font-style:normal;font-size:10pt">100</text>
<text x="476.84" y="-19.498" transform="scale(1, -1)"
	style="font-family:Helvetica;font-weight:normal;font-style:normal;font-size:10pt">200</text>
<text x="690.05" y="-19.498" transform="scale(1, -1)"
	style="font-family:Helvetica;font-weight:normal;font-style:normal;font-size:10pt">300</text>
<text x="903.26" y="-19.498" transform="scale(1, -1)"
	style="font-family:Helvetica;font-weight:normal;font-style:normal;font-size:10pt">400</text>
<path d="M60.834,31.498L60.834,41.498" style="fill:none;stroke:#000000;stroke-width:0.625" />
<path d="M274.05,31.498L274.05,41.498" style="fill:none;stroke:#000000;stroke-width:0.625" />
<path d="M487.26,31.498L487.26,41.498" style="fill:none;stroke:#000000;stroke-width:0.625" />
<path d="M700.48,31.498L700.48,41.498" style="fill:none;stroke:#000000;stroke-width:0.625" />
<path d="M913.69,31.498L913.69,41.498" style="fill:none;stroke:#000000;stroke-width:0.625" />
<path d="M167.44,36.498L167.44,41.498" style="fill:none;stroke:#000000;stroke-width:0.625" />
<path d="M380.66,36.498L380.66,41.498" style="fill:none;stroke:#000000;stroke-width:0.625" />
<path d="M593.87,36.498L593.87,41.498" style="fill:none;stroke:#000000;stroke-width:0.625" />
<path d="M807.09,36.498L807.09,41.498" style="fill:none;stroke:#000000;stroke-width:0.625" />
<path d="M1020.3,36.498L1020.3,41.498" style="fill:none;stroke:#000000;stroke-width:0.625" />
<path d="M60.834,41.498L1080,41.498" style="fill:none;stroke:#000000;stroke-width:0.625" />
<g transform="rotate(90)">
<text x="358.57" y="14.399" transform="scale(1, -1)"
	style="font-family:Helvetica;font-weight:normal;font-style:normal;font-size:12pt">CPU</text>
</g>
<text x="19.248" y="-197.29" transform="scale(1, -1)"
	style="font-family:Helvetica;font-weight:normal;font-style:normal;font-size:10pt">100</text>
<text x="19.248" y="-356.22" transform="scale(1, -1)"
	style="font-family:Helvetica;font-weight:normal;font-style:normal;font-size:10pt">200</text>
<text x="19.248" y="-515.14" transform="scale(1, -1)"
	style="font-family:Helvetica;font-weight:normal;font-style:normal;font-size:10pt">300</text>
<text x="19.248" y="-674.06" transform="scale(1, -1)"
	style="font-family:Helvetica;font-weight:normal;font-style:normal;font-size:10pt">400</text>
<path d="M43.577,203.17L53.577,203.17" style="fill:none;stroke:#000000;stroke-width:0.625" />
<path d="M43.577,362.09L53.577,362.09" style="fill:none;stroke:#000000;stroke-width:0.625" />
<path d="M43.577,521.01L53.577,521.01" style="fill:none;stroke:#000000;stroke-width:0.625" />
<path d="M43.577,679.93L53.577,679.93" style="fill:none;stroke:#000000;stroke-width:0.625" />
<path d="M48.577,123.71L53.577,123.71" style="fill:none;stroke:#000000;stroke-width:0.625" />
<path d="M48.577,282.63L53.577,282.63" style="fill:none;stroke:#000000;stroke-width:0.625" />
<path d="M48.577,441.55L53.577,441.55" style="fill:none;stroke:#000000;stroke-width:0.625" />
<path d="M48.577,600.47L53.577,600.47" style="fill:none;stroke:#000000;stroke-width:0.625" />
<path d="M53.577,48.06L53.577,700.75" style="fill:none;stroke:#000000;stroke-width:0.625" />
<path d="M60.834,48.06L62.966,82.387L65.098,128.84L67.23,171L69.362,204.95L71.494,233.59L73.627,258.73L75.759,280.09L77.891,299L80.023,315.48L82.155,328.75L84.287,341.3L86.42,353.27L88.552,363.3L90.684,372.61L92.816,379.83L94.948,386.9L97.08,393.37L99.212,399.07L101.34,404.54L103.48,410.08L105.61,414.41L107.74,418.87L109.87,423.39L112.01,426.93L114.14,430.55L116.27,434.05L118.4,436.54L120.53,439.33L122.67,442.44L124.8,444.95L126.93,447.72L129.06,449.93L131.19,452.48L133.33,454.82L135.46,456.95L137.59,458.65L139.72,460.3L141.86,462.18L143.99,463.67L146.12,465.21L148.25,466.93L150.38,468.44L152.52,469.87L154.65,471.27L156.78,472.35L158.91,473.54L161.04,474.51L163.18,475.59L165.31,476.85L167.44,477.74L169.57,478.87L171.71,479.87L173.84,481.06L175.97,481.87L178.1,482.87L180.23,483.73L182.37,484.9L184.5,485.89L186.63,486.94L188.76,487.91L190.89,488.67L193.03,489.45L195.16,490.2L197.29,491.17L199.42,491.98L201.56,492.72L203.69,493.28L205.82,493.76L207.95,494.57L210.08,495.04L212.22,495.5L214.35,496.12L216.48,496.62L218.61,497.13L220.74,497.68L222.88,498.14L225.01,498.62L227.14,499.08L229.27,499.7L231.41,500.29L233.54,500.86L235.67,501.38L237.8,502.05L239.93,502.37L242.07,502.77L244.2,503.23L246.33,503.39L248.46,503.69L250.59,504.12L252.73,504.39L254.86,504.88L256.99,505.21L259.12,505.69L261.26,506.01L263.39,506.26L265.52,506.52L267.65,506.8L269.78,507.03L271.92,507.39L274.05,507.47L276.18,507.66L278.31,507.93L280.44,508.15L282.58,508.54L284.71,508.87L286.84,509.01L288.97,509L291.11,509.25L293.24,509.38L295.37,509.38L297.5,509.63L299.63,509.89L301.77,510.05L303.9,510.24L306.03,510.25L308.16,510.43L310.29,510.63L312.43,510.75L314.56,510.84L316.69,511L318.82,511.22L320.96,511.54L323.09,511.76L325.22,511.97L327.35,512.14L329.48,512.49L331.62,512.83L333.75,513.18L335.88,513.51L338.01,513.8L340.14,514.21L342.28,514.65L344.41,515.07L346.54,515.4L348.67,515.77L350.81,516.08L352.94,516.45L355.07,516.7L357.2,516.99L359.33,517.29L361.47,517.45L363.6,517.75L365.73,517.98L367.86,518.13L370,518.39L372.13,518.52L374.26,518.64L376.39,518.88L378.52,519.02L380.66,519.18L382.79,519.36L384.92,519.49L387.05,519.64L389.18,519.9L391.32,520.03L393.45,520.15L395.58,520.28L397.71,520.46L399.85,520.69L401.98,520.79L404.11,520.98L406.24,521.22L408.37,521.36L410.51,521.5L412.64,521.73L414.77,521.84L416.9,521.79L419.03,521.77L421.17,521.68L423.3,521.55L425.43,521.49L427.56,521.47L429.7,521.46L431.83,521.42L433.96,521.39L436.09,521.38L438.22,521.35L440.36,521.27L442.49,521.27L444.62,521.27L446.75,521.28L448.88,521.31L451.02,521.33L453.15,521.33L455.28,521.33L457.41,521.33L459.55,521.36L461.68,521.33L463.81,521.23L465.94,521.11L468.07,520.96L470.21,520.77L472.34,520.63L474.47,520.52L476.6,520.44L478.73,520.25L480.87,520.11L483,519.96L485.13,519.9L487.26,519.77L489.4,519.64L491.53,519.53L493.66,519.39L495.79,519.22L497.92,519.09L500.06,518.96L502.19,518.83L504.32,518.63L506.45,518.56L508.58,518.56L510.72,518.6L512.85,518.63L514.98,518.69L517.11,518.79L519.25,518.79L521.38,518.8L523.51,518.74L525.64,518.77L527.77,518.79L529.91,518.8L532.04,518.82L534.17,518.83L536.3,518.83L538.43,518.83L540.57,518.88L542.7,518.87L544.83,518.8L546.96,518.82L549.1,518.85L551.23,518.88L553.36,518.9L555.49,518.96L557.62,518.98L559.76,519.02L561.89,519.04L564.02,519.1L566.15,519.2L568.28,519.3L570.42,519.36L572.55,519.39L574.68,519.44L576.81,519.47L578.95,519.53L581.08,519.57L583.21,519.64L585.34,519.72L587.47,519.72L589.61,519.71L591.74,519.69L593.87,519.64L596,519.63L598.13,519.64L600.27,519.66L602.4,519.64L604.53,519.63L606.66,519.66L608.8,519.63L610.93,519.63L613.06,519.64L615.19,519.64L617.32,519.68L619.46,519.74L621.59,519.77L623.72,519.79L625.85,519.84L627.98,519.8L630.12,519.77L632.25,519.76L634.38,519.77L636.51,519.72L638.65,519.74L640.78,519.72L642.91,519.79L645.04,519.8L647.17,519.84L649.31,519.8L651.44,519.76L653.57,519.74L655.7,519.71L657.83,519.68L659.97,519.64L662.1,519.63L664.23,519.63L666.36,519.64L668.5,519.72L670.63,519.74L672.76,519.66L674.89,519.68L677.02,519.64L679.16,519.61L681.29,519.61L683.42,519.61L685.55,519.58L687.68,519.55L689.82,519.53L691.95,519.53L694.08,519.49L696.21,519.52L698.35,519.45L700.48,519.41L702.61,519.3L704.74,519.26L706.87,519.28L709.01,519.25L711.14,519.25L713.27,519.25L715.4,519.23L717.54,519.23L719.67,519.23L721.8,519.23L723.93,519.23L726.06,519.25L728.2,519.28L730.33,519.3L732.46,519.26L734.59,519.28L736.72,519.3L738.86,519.31L740.99,519.34L743.12,519.33L745.25,519.33L747.39,519.36L749.52,519.37L751.65,519.39L753.78,519.37L755.91,519.42L758.05,519.36L760.18,519.33L762.31,519.36L764.44,519.37L766.57,519.39L768.71,519.42L770.84,519.45L772.97,519.47L775.1,519.45L777.24,519.47L779.37,519.45L781.5,519.47L783.63,519.47L785.76,519.45L787.9,519.41L790.03,519.39L792.16,519.39L794.29,519.39L796.42,519.41L798.56,519.41L800.69,519.39L802.82,519.42L804.95,519.37L807.09,519.36L809.22,519.36L811.35,519.42L813.48,519.42L815.61,519.42L817.75,519.42L819.88,519.47L822.01,519.49L824.14,519.55L826.27,519.63L828.41,519.69L830.54,519.71L832.67,519.72L834.8,519.72L836.94,519.74L839.07,519.77L841.2,519.79L843.33,519.82L845.46,519.82L847.6,519.8L849.73,519.8L851.86,519.82L853.99,519.82L856.12,519.84L858.26,519.88L860.39,519.88L862.52,519.95L864.65,519.96L866.79,519.96L868.92,519.96L871.05,520.01L873.18,520.06L875.31,520.04L877.45,520.09L879.58,520.12L881.71,520.15L883.84,520.2L885.97,520.19L888.11,520.2L890.24,520.2L892.37,520.19L894.5,520.2L896.64,520.22L898.77,520.26L900.9,520.26L903.03,520.28" style="fill:none;stroke:#F15A60;stroke-width:1.875" />
<path d="M60.834,109.75L62.966,168.06L65.098,219.33L67.23,262.38L69.362,298.52L71.494,331.04L73.627,353.56L75.759,381.46L77.891,401.95L80.023,419.05L82.155,434.99L84.287,448.61L86.42,461.5L88.552,457.22L90.684,448L92.816,457.81L94.948,469.19L97.08,479.69L99.212,488.35L101.34,497.01L103.48,504.15L105.61,511.65L107.74,518.5L109.87,524.75L112.01,530.37L114.14,535.11L116.27,540.94L118.4,545.95L120.53,550.86L122.67,554.99L124.8,558.14L126.93,560.88L129.06,563.35L131.19,566.3L133.33,569.34L135.46,573.15L137.59,576.46L139.72,580.18L141.86,582.29L143.99,584.96L146.12,586.98L148.25,589.46L150.38,591.94L152.52,594.56L154.65,596.85L156.78,599.63L158.91,601.65L161.04,603.6L163.18,605.34L165.31,607.69L167.44,609.39L169.57,611.33L171.71,612.74L173.84,614.71L175.97,616.24L178.1,617.59L180.23,619.34L182.37,620.83L184.5,622.34L186.63,623.74L188.76,625.04L190.89,626.38L193.03,627.71L195.16,628.92L197.29,630.37L199.42,631L201.56,632.89L203.69,634.08L205.82,635.13L207.95,636.17L210.08,637.15L212.22,638.57L214.35,639.63L216.48,640.81L218.61,641.57L220.74,642.52L222.88,642.95L225.01,643.86L227.14,644.68L229.27,645.4L231.41,646.23L233.54,647.04L235.67,647.35L237.8,648.63L239.93,649.34L242.07,649.94L244.2,650.77L246.33,651.3L248.46,652.03L250.59,652.46L252.73,653.09L254.86,653.6L256.99,654.41L259.12,654.73L261.26,655.63L263.39,656.22L265.52,656.75L267.65,656.97L269.78,657.51L271.92,658.02L274.05,658.65L276.18,659L278.31,659.67L280.44,660.2L282.58,660.89L284.71,661.24L286.84,661.85L288.97,662.23L291.11,662.71L293.24,663.21L295.37,663.58L297.5,663.98L299.63,664.26L301.77,664.72L303.9,664.93L306.03,665.41L308.16,665.6L310.29,666.06L312.43,666.47L314.56,666.81L316.69,667.19L318.82,667.47L320.96,667.86L323.09,668.24L325.22,668.4L327.35,668.71L329.48,669.13L331.62,669.41L333.75,669.79L335.88,670.13L338.01,670.21L340.14,670.51L342.28,670.76L344.41,671.21L346.54,671.56L348.67,671.69L350.81,671.73L352.94,672.1L355.07,672.37L357.2,672.38L359.33,672.67L361.47,672.58L363.6,672.86L365.73,673.07L367.86,673.42L370,673.62L372.13,673.81L374.26,673.99L376.39,674.28L378.52,674.51L380.66,674.83L382.79,675.17L384.92,675.4L387.05,675.72L389.18,675.88L391.32,676.31L393.45,676.44L395.58,676.87L397.71,677.3L399.85,677.63L401.98,678.09L404.11,678.41L406.24,678.79L408.37,678.82L410.51,679.41L412.64,679.57L414.77,679.84L416.9,679.9L419.03,680.22L421.17,680.57L423.3,680.74L425.43,680.9L427.56,681.27L429.7,681.67L431.83,681.84L433.96,682.03L436.09,682.3L438.22,682.46L440.36,682.68L442.49,682.92L444.62,683.19L446.75,683.45L448.88,683.7L451.02,683.94L453.15,684.19L455.28,684.32L457.41,684.45L459.55,684.73L461.68,684.8L463.81,684.99L465.94,685.29L468.07,685.53L470.21,685.73L472.34,685.92L474.47,686.07L476.6,686.18L478.73,686.24L480.87,686.32L483,686.69L485.13,686.75L487.26,686.86L489.4,686.91L491.53,687.18L493.66,687.26L495.79,687.37L497.92,687.53L500.06,687.56L502.19,687.75L504.32,687.86L506.45,687.99L508.58,687.94L510.72,688.18L512.85,688.23L514.98,688.42L517.11,688.45L519.25,688.64L521.38,688.77L523.51,688.85L525.64,688.94L527.77,689.17L529.91,689.06L532.04,689.09L534.17,688.91L536.3,688.85L538.43,688.64L540.57,688.45L542.7,688.36L544.83,688.04L546.96,688.13L549.1,688.07L551.23,688.01L553.36,687.99L555.49,688.17L557.62,688.36L559.76,688.47L561.89,688.4L564.02,688.64L566.15,688.8L568.28,688.86L570.42,689.12L572.55,689.25L574.68,689.31L576.81,689.42L578.95,689.44L581.08,689.64L583.21,689.75L585.34,689.83L587.47,689.96L589.61,690.09L591.74,690.17L593.87,690.26L596,690.34L598.13,690.45L600.27,690.49L602.4,690.57L604.53,690.68L606.66,690.64L608.8,690.69L610.93,690.79L613.06,690.98L615.19,691.07L617.32,691.18L619.46,691.34L621.59,691.41L623.72,691.52L625.85,691.68L627.98,691.73L630.12,691.77L632.25,691.93L634.38,692.01L636.51,692.12L638.65,692.11L640.78,692.15L642.91,692.25L645.04,692.36L647.17,692.41L649.31,692.5L651.44,692.57L653.57,692.6L655.7,692.69L657.83,692.77L659.97,692.87L662.1,692.92L664.23,693.01L666.36,693.01L668.5,693.11L670.63,693.27L672.76,693.36L674.89,693.39L677.02,693.36L679.16,693.52L681.29,693.62L683.42,693.73L685.55,693.82L687.68,693.93L689.82,693.98L691.95,694.03L694.08,694.06L696.21,694.12L698.35,694.27L700.48,694.33L702.61,694.44L704.74,694.59L706.87,694.67L709.01,694.7L711.14,694.82L713.27,694.92L715.4,694.97L717.54,695.06L719.67,695.19L721.8,695.21L723.93,695.27L726.06,695.36L728.2,695.41L730.33,695.46L732.46,695.51L734.59,695.57L736.72,695.68L738.86,695.73L740.99,695.78L743.12,695.84L745.25,695.9L747.39,695.94L749.52,695.98L751.65,696L753.78,696.19L755.91,696.21L758.05,696.29L760.18,696.37L762.31,696.32L764.44,696.51L766.57,696.57L768.71,696.62L770.84,696.67L772.97,696.72L775.1,696.79L777.24,696.83L779.37,696.91L781.5,696.86L783.63,696.95L785.76,697.05L787.9,697.13L790.03,697.19L792.16,697.27L794.29,697.27L796.42,697.4L798.56,697.45L800.69,697.48L802.82,697.54L804.95,697.56L807.09,697.65L809.22,697.7L811.35,697.8L813.48,697.88L815.61,697.84L817.75,697.86L819.88,697.91L822.01,697.89L824.14,697.99L826.27,697.99L828.41,698.02L830.54,698.05L832.67,698.05L834.8,698.13L836.94,698.18L839.07,698.29L841.2,698.3L843.33,698.42L845.46,698.48L847.6,698.53L849.73,698.62L851.86,698.64L853.99,698.75L856.12,698.8L858.26,698.73L860.39,698.72L862.52,698.72L864.65,698.73L866.79,698.8L868.92,698.84L871.05,698.81L873.18,698.84L875.31,698.86L877.45,698.86L879.58,698.83L881.71,698.88L883.84,698.88L885.97,698.88L888.11,698.88L890.24,698.97L892.37,698.94L894.5,698.99L896.64,699.02L898.77,699.02L900.9,699.04L903.03,699.08L905.16,698.97L907.3,699.05L909.43,699.07L911.56,699.1L913.69,699.12L915.82,699.13L917.96,699.13L920.09,699.16L922.22,699.18L924.35,699.16L926.49,699.23L928.62,699.23L930.75,699.27L932.88,699.29L935.01,699.32L937.15,699.37L939.28,699.34L941.41,699.4L943.54,699.45L945.67,699.42L947.81,699.48L949.94,699.46L952.07,699.45L954.2,699.46L956.34,699.39L958.47,699.45L960.6,699.39L962.73,699.39L964.86,699.43L967,699.43L969.13,699.43L971.26,699.51L973.39,699.48L975.52,699.5L977.66,699.54L979.79,699.53L981.92,699.54L984.05,699.56L986.19,699.56L988.32,699.53L990.45,699.56L992.58,699.54L994.71,699.54L996.85,699.59L998.98,699.59L1001.1,699.66L1003.2,699.67L1005.4,699.72L1007.5,699.77L1009.6,699.78L1011.8,699.81L1013.9,699.85L1016,699.86L1018.2,699.91L1020.3,699.93L1022.4,699.93L1024.6,699.94L1026.7,699.91L1028.8,699.99L1031,700.05L1033.1,700.15L1035.2,700.13L1037.4,700.15L1039.5,700.2L1041.6,700.23L1043.8,700.24L1045.9,700.31L1048,700.32L1050.1,700.37L1052.3,700.4L1054.4,700.4L1056.5,700.42L1058.7,700.42L1060.8,700.47L1062.9,700.45L1065.1,700.56L1067.2,700.59L1069.3,700.61L1071.5,700.64L1073.6,700.66L1075.7,700.67L1077.9,700.72L1080,700.75" style="fill:none;stroke:#7AC36A;stroke-width:1.875;stroke-dasharray:7.5,2.5" />
<path d="M1055,693.4L1080,693.4" style="fill:none;stroke:#F15A60;stroke-width:1.875" />
<text x="882.43" y="-686.35" transform="scale(1, -1)"
	style="font-family:Helvetica;font-weight:normal;font-style:normal;font-size:12pt">etcd v3 (no compression)</text>
<path d="M1055,678.7L1080,678.7" style="fill:none;stroke:#7AC36A;stroke-width:1.875;stroke-dasharray:7.5,2.5" />
<text x="937.44" y="-671.65" transform="scale(1, -1)"
	style="font-family:Helvetica;font-weight:normal;font-style:normal;font-size:12pt">etcd v3 (Snappy)</text>
</g>
</svg>
