<?xml version="1.0"?>
<!-- Generated by SVGo and Plotinum VG -->
<svg width="12in" height="8in"
	xmlns="http://www.w3.org/2000/svg"
	xmlns:xlink="http://www.w3.org/1999/xlink">
<g transform="scale(1, -1) translate(0, -720)">
<path d="M0,0L1080,0L1080,720L0,720Z" style="fill:#FFFFFF" />
<text x="237.49" y="-705.6" transform="scale(1, -1)"
	style="font-family:Helvetica;font-weight:normal;font-style:normal;font-size:12pt">Read 2M keys, 1000-client, 500-conn, 8-byte same key, 300-kb value, Latency(millisecond)</text>
<text x="544.98" y="-4.8486" transform="scale(1, -1)"
	style="font-family:Helvetica;font-weight:normal;font-style:normal;font-size:12pt">Second</text>
<text x="57.358" y="-19.498" transform="scale(1, -1)"
	style="font-family:Helvetica;font-weight:normal;font-style:normal;font-size:10pt">0</text>
<text x="263.18" y="-19.498" transform="scale(1, -1)"
	style="font-family:Helvetica;font-weight:normal;font-style:normal;font-size:10pt">100</text>
<text x="475.95" y="-19.498" transform="scale(1, -1)"
	style="font-family:Helvetica;font-weight:normal;font-style:normal;font-size:10pt">200</text>
<text x="688.71" y="-19.498" transform="scale(1, -1)"
	style="font-family:Helvetica;font-weight:normal;font-style:normal;font-size:10pt">300</text>
<text x="901.48" y="-19.498" transform="scale(1, -1)"
	style="font-family:Helvetica;font-weight:normal;font-style:normal;font-size:10pt">400</text>
<path d="M60.834,31.498L60.834,41.498" style="fill:none;stroke:#000000;stroke-width:0.625" />
<path d="M273.6,31.498L273.6,41.498" style="fill:none;stroke:#000000;stroke-width:0.625" />
<path d="M486.37,31.498L486.37,41.498" style="fill:none;stroke:#000000;stroke-width:0.625" />
<path d="M699.14,31.498L699.14,41.498" style="fill:none;stroke:#000000;stroke-width:0.625" />
<path d="M911.91,31.498L911.91,41.498" style="fill:none;stroke:#000000;stroke-width:0.625" />
<path d="M167.22,36.498L167.22,41.498" style="fill:none;stroke:#000000;stroke-width:0.625" />
<path d="M379.99,36.498L379.99,41.498" style="fill:none;stroke:#000000;stroke-width:0.625" />
<path d="M592.76,36.498L592.76,41.498" style="fill:none;stroke:#000000;stroke-width:0.625" />
<path d="M805.53,36.498L805.53,41.498" style="fill:none;stroke:#000000;stroke-width:0.625" />
<path d="M1018.3,36.498L1018.3,41.498" style="fill:none;stroke:#000000;stroke-width:0.625" />
<path d="M60.834,41.498L1080,41.498" style="fill:none;stroke:#000000;stroke-width:0.625" />
<g transform="rotate(90)">
<text x="306.05" y="14.399" transform="scale(1, -1)"
	style="font-family:Helvetica;font-weight:normal;font-style:normal;font-size:12pt">Latency(millisecond)</text>
</g>
<text x="19.248" y="-62.128" transform="scale(1, -1)"
	style="font-family:Helvetica;font-weight:normal;font-style:normal;font-size:10pt">200</text>
<text x="19.248" y="-225.51" transform="scale(1, -1)"
	style="font-family:Helvetica;font-weight:normal;font-style:normal;font-size:10pt">400</text>
<text x="19.248" y="-388.89" transform="scale(1, -1)"
	style="font-family:Helvetica;font-weight:normal;font-style:normal;font-size:10pt">600</text>
<text x="19.248" y="-552.28" transform="scale(1, -1)"
	style="font-family:Helvetica;font-weight:normal;font-style:normal;font-size:10pt">800</text>
<path d="M43.577,68.002L53.577,68.002" style="fill:none;stroke:#000000;stroke-width:0.625" />
<path d="M43.577,231.39L53.577,231.39" style="fill:none;stroke:#000000;stroke-width:0.625" />
<path d="M43.577,394.77L53.577,394.77" style="fill:none;stroke:#000000;stroke-width:0.625" />
<path d="M43.577,558.15L53.577,558.15" style="fill:none;stroke:#000000;stroke-width:0.625" />
<path d="M48.577,149.69L53.577,149.69" style="fill:none;stroke:#000000;stroke-width:0.625" />
<path d="M48.577,313.08L53.577,313.08" style="fill:none;stroke:#000000;stroke-width:0.625" />
<path d="M48.577,476.46L53.577,476.46" style="fill:none;stroke:#000000;stroke-width:0.625" />
<path d="M48.577,639.84L53.577,639.84" style="fill:none;stroke:#000000;stroke-width:0.625" />
<path d="M53.577,48.06L53.577,700.75" style="fill:none;stroke:#000000;stroke-width:0.625" />
<path d="M60.834,127.5L62.961,102.05L65.089,52.28L67.217,57.52L69.345,49.513L71.472,58.786L73.6,53.698L75.728,51.221L77.855,54.754L79.983,54.405L82.111,53.305L84.238,53.921L86.366,52.856L88.494,55.974L90.621,58.075L92.749,56.222L94.877,55.575L97.005,58.013L99.132,57.835L101.26,57.401L103.39,54.167L105.52,59.418L107.64,56.219L109.77,55.791L111.9,56.648L114.03,57.072L116.15,57.21L118.28,60.07L120.41,58.099L122.54,54.634L124.66,55.52L126.79,55.155L128.92,53.468L131.05,58.146L133.18,55.911L135.3,54.038L137.43,60.806L139.56,56.383L141.69,57.192L143.81,57.694L145.94,57.342L148.07,53.674L150.2,58.571L152.32,59.708L154.45,57.308L156.58,57.397L158.71,60.425L160.84,58.948L162.96,54.597L165.09,65.326L167.22,62.37L169.35,59.577L171.47,58.677L173.6,63.395L175.73,60.378L177.86,62.206L179.98,55.617L182.11,61.056L184.24,56.226L186.37,59.045L188.5,55.903L190.62,58.997L192.75,60.302L194.88,56.432L197.01,55.435L199.13,57.858L201.26,59.077L203.39,57.163L205.52,53.524L207.64,53.78L209.77,60.559L211.9,53.127L214.03,59.51L216.16,57.53L218.28,56.131L220.41,60.122L222.54,58.399L224.67,54.692L226.79,56.962L228.92,58.269L231.05,49.944L233.18,58.705L235.3,53.762L237.43,54.12L239.56,59.991L241.69,53.958L243.82,58.82L245.94,59.081L248.07,54.524L250.2,57.194L252.33,57.219L254.45,53.885L256.58,55.706L258.71,56.405L260.84,60.718L262.96,52.309L265.09,65.381L267.22,49.935L269.35,56.777L271.48,61.337L273.6,62.45L275.73,57.405L277.86,57.501L279.99,56.586L282.11,57.473L284.24,55.527L286.37,60.814L288.5,61.662L290.62,60.106L292.75,63.105L294.88,63.189L297.01,58.352L299.14,57.625L301.26,55.522L303.39,59.481L305.52,65.762L307.65,57.618L309.77,57.085L311.9,62.019L314.03,60.711L316.16,58.294L318.28,52.516L320.41,58.487L322.54,58.105L324.67,55.646L326.8,54.317L328.92,57.415L331.05,48.06L333.18,50.335L335.31,51.554L337.43,57.104L339.56,50.92L341.69,52.414L343.82,48.528L345.94,58.729L348.07,53.825L350.2,53.535L352.33,51.219L354.46,50.825L356.58,55.347L358.71,53.993L360.84,54.709L362.97,48.845L365.09,51.666L367.22,52.165L369.35,48.664L371.48,57.3L373.61,54.287L375.73,53.9L377.86,53.609L379.99,52.098L382.12,51.463L384.24,52.714L386.37,51.337L388.5,50.528L390.63,57.315L392.75,52.501L394.88,55.038L397.01,49.986L399.14,55.428L401.27,56.509L403.39,55.226L405.52,53.268L407.65,54.811L409.78,52.143L411.9,53.105L414.03,62.948L416.16,66.878L418.29,59.972L420.41,70.465L422.54,64.198L424.67,63.363L426.8,61.227L428.93,59.046L431.05,62.141L433.18,64.98L435.31,64.414L437.44,65.084L439.56,63.645L441.69,58.911L443.82,57.729L445.95,59.968L448.07,58.444L450.2,56.557L452.33,60.517L454.46,59.414L456.59,57.631L458.71,63.185L460.84,66.615L462.97,66.992L465.1,66.045L467.22,67.576L469.35,67.267L471.48,68.692L473.61,66.598L475.73,70.06L477.86,64.063L479.99,75.587L482.12,59.913L484.25,72.541L486.37,59.649L488.5,72.542L490.63,68.37L492.76,66.425L494.88,71.709L497.01,70.665L499.14,67.529L501.27,73.646L503.39,68.015L505.52,60.79L507.65,56.956L509.78,59.431L511.91,56.166L514.03,55.713L516.16,60.636L518.29,58.101L520.42,65.492L522.54,58.956L524.67,58.7L526.8,62.768L528.93,62.915L531.05,57.083L533.18,63.073L535.31,58.955L537.44,57.631L539.57,60.176L541.69,63.467L543.82,63.794L545.95,63.409L548.08,63.228L550.2,61.026L552.33,61.919L554.46,56.658L556.59,66.842L558.71,61.527L560.84,65.057L562.97,54.846L565.1,61.112L567.23,64.622L569.35,61.685L571.48,60.364L573.61,62.107L575.74,63.475L577.86,57.053L579.99,63.325L582.12,56.075L584.25,62.407L586.37,58.916L588.5,62.392L590.63,66.271L592.76,59.847L594.89,58.882L597.01,56.936L599.14,58.095L601.27,62.112L603.4,62.629L605.52,61.769L607.65,57.739L609.78,59.991L611.91,61.098L614.03,59.443L616.16,56.542L618.29,60.342L620.42,56.099L622.55,61.511L624.67,59.484L626.8,64.375L628.93,58.801L631.06,61.909L633.18,61.914L635.31,56.581L637.44,66.254L639.57,52.763L641.69,62.674L643.82,58.798L645.95,58.762L648.08,61.28L650.21,59.954L652.33,54.257L654.46,69.961L656.59,63.412L658.72,59.658L660.84,63.163L662.97,55.959L665.1,57.34L667.23,60.735L669.35,61.273L671.48,59.312L673.61,61.655L675.74,63.474L677.87,60.014L679.99,62.556L682.12,60.798L684.25,60.656L686.38,64.481L688.5,57.634L690.63,64.193L692.76,63.858L694.89,61.747L697.01,63.742L699.14,62.147L701.27,68.208L703.4,58.707L705.53,60.21L707.65,64.329L709.78,56.601L711.91,65.276L714.04,59.719L716.16,61.244L718.29,57.825L720.42,62.074L722.55,61.611L724.67,55.708L726.8,53.879L728.93,63.032L731.06,59.113L733.19,59.573L735.31,60.172L737.44,57.119L739.57,56.725L741.7,59.046L743.82,63.546L745.95,59.396L748.08,60.006L750.21,57.848L752.33,59.267L754.46,57.322L756.59,67.463L758.72,59.931L760.85,59.678L762.97,58.666L765.1,59.733L767.23,57.768L769.36,60.062L771.48,57.629L773.61,61.523L775.74,60.671L777.87,55.594L779.99,54.227L782.12,65.467L784.25,59.819L786.38,65.068L788.51,57.595L790.63,63.009L792.76,53.359L794.89,60.072L797.02,63.566L799.14,57.638L801.27,59.42L803.4,64.575L805.53,65.763L807.65,61.818L809.78,57.487L811.91,62.07L814.04,64.472L816.17,62.047L818.29,61.011L820.42,58.69L822.55,63.339L824.68,61.928L826.8,61.578L828.93,65.171L831.06,56.995L833.19,65.654L835.31,61.306L837.44,62.441L839.57,59.52L841.7,56.659L843.83,57.699L845.95,57.994L848.08,59.733L850.21,58.337L852.34,60.225L854.46,59.731L856.59,59.957L858.72,61.766L860.85,57.599L862.98,61.807L865.1,58.83L867.23,60.513L869.36,60.242L871.49,60.079L873.61,63.879L875.74,58.924L877.87,56.723L880,57.208L882.12,59.588L884.25,63.143L886.38,60.368L888.51,61.792L890.64,61.63L892.76,56.557L894.89,58.161L897.02,63.283L899.15,59.18L901.27,56.89L903.4,61.229" style="fill:none;stroke:#F15A60;stroke-width:1.875" />
<path d="M60.834,113.08L62.961,98.567L65.089,88.549L67.217,89.467L69.345,105.25L71.472,99.046L73.6,91.477L75.728,76.798L77.855,93.834L79.983,99.67L82.111,88.529L84.238,88.873L86.366,99.397L88.494,104.17L90.621,700.75L92.749,91.168L94.877,89.701L97.005,85.989L99.132,94.707L101.26,86.521L103.39,89.146L105.52,82.415L107.64,87.496L109.77,92.952L111.9,90.28L114.03,95.992L116.15,94.125L118.28,84.563L120.41,98.48L122.54,92.972L124.66,93.396L126.79,89.814L128.92,95.686L131.05,96.378L133.18,87.047L135.3,82.751L137.43,94.8L139.56,95.029L141.69,98.716L143.81,102.87L145.94,90.567L148.07,86.426L150.2,96.405L152.32,90.623L154.45,86.591L156.58,93.501L158.71,82.996L160.84,94.664L162.96,79.255L165.09,93.197L167.22,89.867L169.35,91.484L171.47,79.853L173.6,102.11L175.73,73.438L177.86,94.14L179.98,86.868L182.11,81.452L184.24,84.089L186.37,86.689L188.5,87.866L190.62,96.047L192.75,97.493L194.88,86.148L197.01,77.79L199.13,89.039L201.26,87.907L203.39,90.088L205.52,87.467L207.64,86.414L209.77,85.959L211.9,81.511L214.03,85.818L216.16,87.056L218.28,85.63L220.41,84.47L222.54,94.978L224.67,95.097L226.79,85.828L228.92,89.897L231.05,87.275L233.18,84.677L235.3,82.509L237.43,86.831L239.56,86.242L241.69,81.08L243.82,81.605L245.94,95.12L248.07,77.044L250.2,82.531L252.33,90.856L254.45,90.494L256.58,69.606L258.71,88.418L260.84,95.528L262.96,92.692L265.09,80.977L267.22,91.652L269.35,87.054L271.48,81.528L273.6,88.865L275.73,90.088L277.86,76.098L279.99,101.22L282.11,84.627L284.24,83.786L286.37,89.684L288.5,85.683L290.62,92.797L292.75,85.854L294.88,90.005L297.01,94.038L299.14,88.668L301.26,84.555L303.39,92.099L305.52,92.468L307.65,91.005L309.77,85.559L311.9,87.283L314.03,85.411L316.16,91.254L318.28,83.136L320.41,88.417L322.54,94.503L324.67,93.324L326.8,95.655L328.92,76.457L331.05,97.127L333.18,86.695L335.31,92.498L337.43,98.535L339.56,76.857L341.69,91.284L343.82,83.257L345.94,87.773L348.07,71.446L350.2,110.09L352.33,87.587L354.46,87.32L356.58,102.22L358.71,99.689L360.84,94.69L362.97,86.904L365.09,89.78L367.22,91.845L369.35,90.651L371.48,86.094L373.61,87.813L375.73,96.508L377.86,83.632L379.99,86.037L382.12,94.063L384.24,90.434L386.37,80.336L388.5,83.939L390.63,76.25L392.75,88.724L394.88,82.868L397.01,94.27L399.14,93.345L401.27,86.645L403.39,81.691L405.52,93.773L407.65,79.534L409.78,76.163L411.9,93.422L414.03,86.521L416.16,89.472L418.29,79.034L420.41,82.151L422.54,87.471L424.67,78.347L426.8,93.665L428.93,86.163L431.05,80.457L433.18,85.93L435.31,80.506L437.44,81.082L439.56,87.183L441.69,90.73L443.82,85.407L445.95,85.957L448.07,73.161L450.2,88.286L452.33,91.601L454.46,83.232L456.59,87.043L458.71,85.088L460.84,86.557L462.97,86.857L465.1,76.711L467.22,80.422L469.35,96.722L471.48,92.941L473.61,75.516L475.73,95.282L477.86,92.15L479.99,84.043L482.12,85.496L484.25,83.97L486.37,85.756L488.5,85.577L490.63,84.32L492.76,86.199L494.88,84.868L497.01,79.697L499.14,88.298L501.27,82.542L503.39,96.377L505.52,87.543L507.65,77.931L509.78,88.905L511.91,86.137L514.03,81.877L516.16,93.472L518.29,84.079L520.42,91.476L522.54,88.927L524.67,82.41L526.8,83.971L528.93,91.688L531.05,85.781L533.18,108.6L535.31,105.92L537.44,107.53L539.57,102.74L541.69,97.824L543.82,108.82L545.95,99.711L548.08,111.05L550.2,98.346L552.33,95.62L554.46,85.293L556.59,84.04L558.71,85.59L560.84,89.323L562.97,84.148L565.1,85.496L567.23,77.58L569.35,84.411L571.48,93.852L573.61,87.88L575.74,90.07L577.86,91.818L579.99,77.523L582.12,83.393L584.25,80.468L586.37,85.146L588.5,85.857L590.63,85.32L592.76,84.001L594.89,86.856L597.01,74.648L599.14,93.146L601.27,91.523L603.4,96.911L605.52,88.559L607.65,84.788L609.78,78.676L611.91,89.471L614.03,75.166L616.16,94.443L618.29,84.595L620.42,84.491L622.55,78.178L624.67,90.273L626.8,87.337L628.93,75.593L631.06,92.419L633.18,90.82L635.31,94.081L637.44,80.097L639.57,90.445L641.69,92.13L643.82,79.09L645.95,89.49L648.08,95.755L650.21,85.324L652.33,81.664L654.46,80.985L656.59,76.975L658.72,84.101L660.84,88.268L662.97,87.539L665.1,77.064L667.23,88.144L669.35,90.348L671.48,89.581L673.61,79.434L675.74,83.635L677.87,81.205L679.99,86.127L682.12,86.62L684.25,88.051L686.38,74.134L688.5,92.914L690.63,89.045L692.76,75.146L694.89,87.267L697.01,86.351L699.14,84.526L701.27,80.538L703.4,91.717L705.53,91.42L707.65,78.088L709.78,83.372L711.91,84.489L714.04,80.476L716.16,85.176L718.29,95.461L720.42,77.835L722.55,93.195L724.67,82.939L726.8,84.188L728.93,86.372L731.06,74.508L733.19,86.424L735.31,87.186L737.44,88.325L739.57,90.556L741.7,85.933L743.82,94.652L745.95,81.357L748.08,85.677L750.21,77.26L752.33,97.253L754.46,66.913L756.59,106.6L758.72,80.832L760.85,80.939L762.97,91.528L765.1,80.392L767.23,95.818L769.36,85.553L771.48,88.79L773.61,81.251L775.74,91.416L777.87,86.045L779.99,91.292L782.12,85.859L784.25,90.601L786.38,90.792L788.51,78.95L790.63,80.657L792.76,89.604L794.89,80.741L797.02,86.245L799.14,81.682L801.27,81.128L803.4,67.614L805.53,105.91L807.65,64.928L809.78,101.92L811.91,86.966L814.04,83.927L816.17,82.258L818.29,90.212L820.42,82.115L822.55,93.982L824.68,88.644L826.8,87.024L828.93,90.005L831.06,92.044L833.19,81.523L835.31,83.076L837.44,79.475L839.57,84.215L841.7,81.767L843.83,78.825L845.95,82.778L848.08,86.132L850.21,90.192L852.34,92.029L854.46,84.016L856.59,90.794L858.72,79.738L860.85,88.378L862.98,83.196L865.1,71.707L867.23,95.268L869.36,75.866L871.49,85.118L873.61,97.742L875.74,78.763L877.87,82.891L880,98.54L882.12,80.692L884.25,103.77L886.38,82.118L888.51,85.335L890.64,81.178L892.76,76.552L894.89,98.36L897.02,85.564L899.15,79.972L901.27,91.339L903.4,75.756L905.53,101.11L907.66,94.578L909.78,91.852L911.91,86.329L914.04,94.563L916.17,84.055L918.3,84.351L920.42,86.699L922.55,81.324L924.68,79.71L926.81,89.749L928.93,87.052L931.06,82.518L933.19,90.916L935.32,81.831L937.44,87.704L939.57,80.555L941.7,86.786L943.83,88.812L945.96,86.549L948.08,85.583L950.21,91.269L952.34,90.741L954.47,87.789L956.59,87.537L958.72,99.262L960.85,92.398L962.98,84.895L965.1,86.214L967.23,84.384L969.36,84.079L971.49,89.8L973.62,87.475L975.74,82.477L977.87,91.156L980,71.549L982.13,95.906L984.25,89.106L986.38,86.133L988.51,86.614L990.64,90.997L992.76,83.225L994.89,79.813L997.02,82.855L999.15,92.383L1001.3,86.019L1003.4,82.454L1005.5,76.701L1007.7,93.474L1009.8,84.14L1011.9,87.837L1014,83.704L1016.2,84.443L1018.3,96.562L1020.4,84.733L1022.6,92.634L1024.7,81.09L1026.8,87.141L1028.9,75.71L1031.1,88.846L1033.2,94.587L1035.3,79.348L1037.4,86.121L1039.6,85.669L1041.7,94.053L1043.8,83.054L1046,84.682L1048.1,84.888L1050.2,78.982L1052.3,90.891L1054.5,81.92L1056.6,78.177L1058.7,95.209L1060.9,94.577L1063,76.203L1065.1,85.852L1067.2,91.028L1069.4,79.94L1071.5,83.897L1073.6,85.194L1075.7,84.869L1077.9,87.185L1080,80.885" style="fill:none;stroke:#7AC36A;stroke-width:1.875;stroke-dasharray:7.5,2.5" />
<path d="M1055,693.4L1080,693.4" style="fill:none;stroke:#F15A60;stroke-width:1.875" />
<text x="882.43" y="-686.35" transform="scale(1, -1)"
	style="font-family:Helvetica;font-weight:normal;font-style:normal;font-size:12pt">etcd v3 (no compression)</text>
<path d="M1055,678.7L1080,678.7" style="fill:none;stroke:#7AC36A;stroke-width:1.875;stroke-dasharray:7.5,2.5" />
<text x="937.44" y="-671.65" transform="scale(1, -1)"
	style="font-family:Helvetica;font-weight:normal;font-style:normal;font-size:12pt">etcd v3 (Snappy)</text>
</g>
</svg>
