<?xml version="1.0"?>
<!-- Generated by SVGo and Plotinum VG -->
<svg width="12in" height="8in"
	xmlns="http://www.w3.org/2000/svg"
	xmlns:xlink="http://www.w3.org/1999/xlink">
<g transform="scale(1, -1) translate(0, -720)">
<path d="M0,0L1080,0L1080,720L0,720Z" style="fill:#FFFFFF" />
<text x="267.62" y="-705.6" transform="scale(1, -1)"
	style="font-family:Helvetica;font-weight:normal;font-style:normal;font-size:12pt">Read 2M keys, 1000-client, 500-conn, 8-byte same key, 300-kb value, Throughput</text>
<text x="548.46" y="-4.8486" transform="scale(1, -1)"
	style="font-family:Helvetica;font-weight:normal;font-style:normal;font-size:12pt">Second</text>
<text x="64.31" y="-19.498" transform="scale(1, -1)"
	style="font-family:Helvetica;font-weight:normal;font-style:normal;font-size:10pt">0</text>
<text x="268.68" y="-19.498" transform="scale(1, -1)"
	style="font-family:Helvetica;font-weight:normal;font-style:normal;font-size:10pt">100</text>
<text x="479.99" y="-19.498" transform="scale(1, -1)"
	style="font-family:Helvetica;font-weight:normal;font-style:normal;font-size:10pt">200</text>
<text x="691.31" y="-19.498" transform="scale(1, -1)"
	style="font-family:Helvetica;font-weight:normal;font-style:normal;font-size:10pt">300</text>
<text x="902.63" y="-19.498" transform="scale(1, -1)"
	style="font-family:Helvetica;font-weight:normal;font-style:normal;font-size:10pt">400</text>
<path d="M67.786,31.498L67.786,41.498" style="fill:none;stroke:#000000;stroke-width:0.625" />
<path d="M279.1,31.498L279.1,41.498" style="fill:none;stroke:#000000;stroke-width:0.625" />
<path d="M490.42,31.498L490.42,41.498" style="fill:none;stroke:#000000;stroke-width:0.625" />
<path d="M701.74,31.498L701.74,41.498" style="fill:none;stroke:#000000;stroke-width:0.625" />
<path d="M913.06,31.498L913.06,41.498" style="fill:none;stroke:#000000;stroke-width:0.625" />
<path d="M173.44,36.498L173.44,41.498" style="fill:none;stroke:#000000;stroke-width:0.625" />
<path d="M384.76,36.498L384.76,41.498" style="fill:none;stroke:#000000;stroke-width:0.625" />
<path d="M596.08,36.498L596.08,41.498" style="fill:none;stroke:#000000;stroke-width:0.625" />
<path d="M807.4,36.498L807.4,41.498" style="fill:none;stroke:#000000;stroke-width:0.625" />
<path d="M1018.7,36.498L1018.7,41.498" style="fill:none;stroke:#000000;stroke-width:0.625" />
<path d="M67.786,41.498L1080,41.498" style="fill:none;stroke:#000000;stroke-width:0.625" />
<g transform="rotate(90)">
<text x="336.05" y="14.399" transform="scale(1, -1)"
	style="font-family:Helvetica;font-weight:normal;font-style:normal;font-size:12pt">Throughput</text>
</g>
<text x="19.248" y="-148.56" transform="scale(1, -1)"
	style="font-family:Helvetica;font-weight:normal;font-style:normal;font-size:10pt">1000</text>
<text x="19.248" y="-273.12" transform="scale(1, -1)"
	style="font-family:Helvetica;font-weight:normal;font-style:normal;font-size:10pt">2000</text>
<text x="19.248" y="-397.68" transform="scale(1, -1)"
	style="font-family:Helvetica;font-weight:normal;font-style:normal;font-size:10pt">3000</text>
<text x="19.248" y="-522.24" transform="scale(1, -1)"
	style="font-family:Helvetica;font-weight:normal;font-style:normal;font-size:10pt">4000</text>
<text x="19.248" y="-646.8" transform="scale(1, -1)"
	style="font-family:Helvetica;font-weight:normal;font-style:normal;font-size:10pt">5000</text>
<path d="M50.529,154.43L60.529,154.43" style="fill:none;stroke:#000000;stroke-width:0.625" />
<path d="M50.529,278.99L60.529,278.99" style="fill:none;stroke:#000000;stroke-width:0.625" />
<path d="M50.529,403.55L60.529,403.55" style="fill:none;stroke:#000000;stroke-width:0.625" />
<path d="M50.529,528.11L60.529,528.11" style="fill:none;stroke:#000000;stroke-width:0.625" />
<path d="M50.529,652.67L60.529,652.67" style="fill:none;stroke:#000000;stroke-width:0.625" />
<path d="M55.529,92.154L60.529,92.154" style="fill:none;stroke:#000000;stroke-width:0.625" />
<path d="M55.529,216.71L60.529,216.71" style="fill:none;stroke:#000000;stroke-width:0.625" />
<path d="M55.529,341.27L60.529,341.27" style="fill:none;stroke:#000000;stroke-width:0.625" />
<path d="M55.529,465.83L60.529,465.83" style="fill:none;stroke:#000000;stroke-width:0.625" />
<path d="M55.529,590.39L60.529,590.39" style="fill:none;stroke:#000000;stroke-width:0.625" />
<path d="M60.529,48.06L60.529,700.75" style="fill:none;stroke:#000000;stroke-width:0.625" />
<path d="M67.786,48.06L69.899,621.66L72.012,673.85L74.125,665L76.238,700.75L78.352,651.18L80.465,684.68L82.578,684.81L84.691,694.4L86.804,658.53L88.917,673.1L91.031,687.05L93.144,689.42L95.257,677.71L97.37,670.11L99.483,671.85L101.6,652.17L103.71,656.28L105.82,666L107.94,680.82L110.05,680.82L112.16,649.56L114.28,664.51L116.39,677.83L118.5,663.51L120.62,663.01L122.73,654.04L124.84,656.53L126.95,677.33L129.07,673.35L131.18,663.76L133.29,682.44L135.41,667.74L137.52,676.46L139.63,664.75L141.75,670.48L143.86,660.52L145.97,676.46L148.09,670.61L150.2,674.72L152.31,651.92L154.43,668.99L156.54,654.29L158.65,665.38L160.77,673.1L162.88,657.41L164.99,650.31L167.11,640.47L169.22,671.73L171.33,651.68L173.44,655.41L175.56,649.06L177.67,649.31L179.78,647.32L181.9,664.13L184.01,644.45L186.12,661.64L188.24,668.86L190.35,660.77L192.46,662.39L194.58,666.37L196.69,667.74L198.8,663.51L200.92,665.75L203.03,679.2L205.14,665L207.26,664.26L209.37,667L211.48,674.97L213.6,663.01L215.71,668.62L217.82,664.51L219.93,667.74L222.05,679.2L224.16,656.53L226.27,669.99L228.39,667.12L230.5,664.38L232.61,662.51L234.73,682.32L236.84,675.84L238.95,665.5L241.07,686.18L243.18,670.86L245.29,650.06L247.41,680.32L249.52,661.64L251.63,642.46L253.75,684.43L255.86,666.87L257.97,660.77L260.09,672.73L262.2,678.95L264.31,660.39L266.42,668.99L268.54,670.23L270.65,656.28L272.76,657.78L274.88,685.18L276.99,661.27L279.1,631.75L281.22,673.47L283.33,685.18L285.44,656.04L287.56,669.86L289.67,675.59L291.78,648.31L293.9,664.88L296.01,647.94L298.12,647.07L300.24,645.7L302.35,676.84L304.46,666L306.58,654.79L308.69,657.41L310.8,628.26L312.91,666.87L315.03,666.12L317.14,637.85L319.25,653.29L321.37,656.91L323.48,670.86L325.59,685.56L327.71,662.76L329.82,669.61L331.93,669.99L334.05,689.17L336.16,700.25L338.27,697.14L340.39,684.56L342.5,678.21L344.61,685.8L346.73,698.63L348.84,689.92L350.95,679.2L353.07,686.68L355.18,689.17L357.29,696.27L359.4,685.31L361.52,689.29L363.63,671.23L365.74,684.06L367.86,696.77L369.97,700L372.08,684.68L374.2,692.41L376.31,662.26L378.42,683.56L380.54,695.77L382.65,697.14L384.76,688.17L386.88,668.12L388.99,695.02L391.1,695.4L393.22,683.31L395.33,678.83L397.44,695.77L399.56,672.1L401.67,692.9L403.78,666.37L405.89,678.46L408.01,685.93L410.12,670.73L412.23,676.34L414.35,688.17L416.46,680.7L418.57,647.94L420.69,631.62L422.8,636.98L424.91,624.4L427.03,633.37L429.14,637.85L431.25,657.28L433.37,644.2L435.48,636.35L437.59,660.64L439.71,619.54L441.82,643.45L443.93,638.97L446.05,656.53L448.16,662.64L450.27,652.55L452.38,669.24L454.5,654.17L456.61,661.64L458.72,643.7L460.84,670.61L462.95,662.26L465.06,631.25L467.18,627.39L469.29,632.74L471.4,606.96L473.52,629.01L475.63,619.41L477.74,627.64L479.86,621.78L481.97,627.76L484.08,602.35L486.2,652.05L488.31,618.67L490.42,627.01L492.54,606.21L494.65,636.35L496.76,614.81L498.87,640.59L500.99,607.33L503.1,625.64L505.21,601.23L507.33,628.76L509.44,645.07L511.55,680.7L513.67,640.34L515.78,659.77L517.89,660.39L520.01,649.93L522.12,655.41L524.23,631.87L526.35,664.38L528.46,661.52L530.57,638.1L532.69,648.31L534.8,653.05L536.91,655.04L539.03,641.21L541.14,660.52L543.25,651.3L545.36,636.98L547.48,652.42L549.59,656.78L551.7,631L553.82,648.06L555.93,647.19L558.04,654.79L560.16,642.58L562.27,637.23L564.38,649.68L566.5,656.28L568.61,655.91L570.72,635.86L572.84,651.8L574.95,653.54L577.06,648.31L579.18,647.57L581.29,663.13L583.4,649.68L585.52,663.51L587.63,654.29L589.74,654.29L591.85,633.61L593.97,638.1L596.08,657.65L598.19,654.54L600.31,658.03L602.42,643.21L604.53,661.27L606.65,639.84L608.76,649.43L610.87,659.77L612.99,638.1L615.1,660.02L617.21,650.43L619.33,665.25L621.44,666.87L623.55,650.18L625.67,656.28L627.78,649.06L629.89,646.69L632.01,647.81L634.12,661.02L636.23,638.22L638.34,661.14L640.46,638.72L642.57,663.51L644.68,663.26L646.8,658.15L648.91,659.4L651.02,634.86L653.14,651.55L655.25,650.06L657.36,623.15L659.48,638.97L661.59,635.11L663.7,656.53L665.82,656.04L667.93,673.72L670.04,660.15L672.16,647.57L674.27,645.82L676.38,650.68L678.5,633.99L680.61,664.63L682.72,638.1L684.83,656.04L686.95,649.56L689.06,648.31L691.17,653.42L693.29,642.96L695.4,638.22L697.51,639.59L699.63,651.05L701.74,618.67L703.85,625.14L705.97,650.43L708.08,650.68L710.19,641.96L712.31,647.81L714.42,650.43L716.53,663.63L718.65,652.05L720.76,653.79L722.87,666.25L724.99,648.44L727.1,660.89L729.21,679.58L731.32,630.87L733.44,655.91L735.55,651.92L737.66,657.16L739.78,667.87L741.89,655.41L744,660.27L746.12,649.68L748.23,652.42L750.34,656.78L752.46,650.8L754.57,677.58L756.68,647.19L758.8,629.13L760.91,650.18L763.02,672.35L765.14,640.09L767.25,655.41L769.36,650.93L771.48,668.74L773.59,652.05L775.7,655.66L777.81,652.8L779.93,649.93L782.04,672.85L784.15,628.13L786.27,641.59L788.38,642.58L790.49,664.63L792.61,652.42L794.72,652.67L796.83,654.91L798.95,643.08L801.06,664.13L803.17,650.93L805.29,640.34L807.4,636.23L809.51,631.25L811.63,674.84L813.74,639.34L815.85,644.7L817.97,655.04L820.08,652.67L822.19,659.52L824.3,615.68L826.42,656.41L828.53,666.12L830.64,634.74L832.76,673.97L834.87,623.53L836.98,647.94L839.1,655.66L841.21,656.28L843.32,645.7L845.44,667L847.55,637.97L849.66,654.79L851.78,655.66L853.89,658.03L856,649.68L858.12,654.79L860.23,652.17L862.34,665L864.46,656.28L866.57,656.53L868.68,655.54L870.79,670.48L872.91,653.67L875.02,646.07L877.13,665.5L879.25,666.5L881.36,666.12L883.47,652.42L885.59,638.22L887.7,664.01L889.81,651.18L891.93,660.64L894.04,651.43L896.15,645.57L898.27,671.61L900.38,637.48L902.49,662.51L904.61,645.32" style="fill:none;stroke:#F15A60;stroke-width:1.875" />
<path d="M67.786,351.24L69.899,528.11L72.012,535.96L74.125,528.11L76.238,520.51L78.352,544.93L80.465,550.28L82.578,515.91L84.691,533.72L86.804,550.16L88.917,532.1L91.031,548.54L93.144,521.01L95.257,238.76L97.37,209.12L99.483,535.09L101.6,553.9L103.71,544.06L105.82,545.92L107.94,540.19L110.05,544.93L112.16,533.34L114.28,552.28L116.39,545.55L118.5,536.08L120.62,536.33L122.73,534.96L124.84,550.78L126.95,543.56L129.07,535.84L131.18,542.81L133.29,530.98L135.41,555.02L137.52,524.62L139.63,543.81L141.75,555.52L143.86,540.69L145.97,512.79L148.09,525.75L150.2,530.85L152.31,520.89L154.43,542.81L156.54,543.56L158.65,538.7L160.77,555.14L162.88,544.68L164.99,542.81L167.11,549.41L169.22,566.6L171.33,543.81L173.44,534.84L175.56,542.06L177.67,554.27L179.78,545.68L181.9,559.75L184.01,562.12L186.12,535.96L188.24,544.43L190.35,553.02L192.46,546.92L194.58,559.25L196.69,552.4L198.8,535.71L200.92,551.78L203.03,560.87L205.14,550.53L207.26,538.08L209.37,542.19L211.48,553.9L213.6,552.78L215.71,542.81L217.82,550.78L219.93,536.58L222.05,562.37L224.16,535.71L226.27,535.96L228.39,547.92L230.5,544.31L232.61,558.01L234.73,566.23L236.84,543.56L238.95,553.65L241.07,551.28L243.18,550.03L245.29,550.03L247.41,548.29L249.52,541.44L251.63,561.87L253.75,542.19L255.86,537.83L257.97,551.78L260.09,554.52L262.2,541.56L264.31,559.25L266.42,556.51L268.54,555.64L270.65,534.71L272.76,539.7L274.88,557.26L276.99,558.26L279.1,557.01L281.22,540.82L283.33,566.98L285.44,548.91L287.56,551.41L289.67,548.66L291.78,554.52L293.9,543.56L296.01,557.51L298.12,550.78L300.24,555.89L302.35,536.33L304.46,557.76L306.58,537.83L308.69,530.73L310.8,554.02L312.91,554.89L315.03,545.3L317.14,547.42L319.25,538.33L321.37,554.27L323.48,550.91L325.59,544.18L327.71,526.74L329.82,562.99L331.93,536.21L334.05,561.62L336.16,555.64L338.27,549.04L340.39,557.26L342.5,536.08L344.61,541.44L346.73,556.76L348.84,548.91L350.95,557.01L353.07,525.25L355.18,532.1L357.29,544.06L359.4,530.48L361.52,556.01L363.63,502.45L365.74,534.96L367.86,542.69L369.97,557.76L372.08,547.79L374.2,546.55L376.31,561.99L378.42,554.52L380.54,541.81L382.65,551.03L384.76,546.42L386.88,560L388.99,549.79L391.1,557.88L393.22,556.01L395.33,559.88L397.44,558.26L399.56,545.18L401.67,545.18L403.78,570.71L405.89,546.17L408.01,572.95L410.12,570.46L412.23,526.49L414.35,561.99L416.46,559.25L418.57,553.15L420.69,552.78L422.8,557.88L424.91,551.03L427.03,563.11L429.14,548.66L431.25,554.77L433.37,554.89L435.48,551.28L437.59,555.76L439.71,549.91L441.82,534.34L443.93,551.65L446.05,566.6L448.16,542.06L450.27,566.1L452.38,551.9L454.5,560.5L456.61,556.26L458.72,542.06L460.84,560.37L462.95,576.19L465.06,537.95L467.18,543.43L469.29,555.52L471.4,560.37L473.52,578.19L475.63,549.91L477.74,566.48L479.86,550.53L481.97,544.93L484.08,544.43L486.2,569.34L488.31,554.77L490.42,535.21L492.54,557.63L494.65,541.56L496.76,550.53L498.87,552.65L500.99,557.51L503.1,558.38L505.21,570.21L507.33,558.88L509.44,557.63L511.55,532.35L513.67,555.27L515.78,547.67L517.89,566.85L520.01,552.65L522.12,556.26L524.23,550.78L526.35,554.02L528.46,543.93L530.57,552.65L532.69,530.73L534.8,518.4L536.91,512.54L539.03,506.19L541.14,497.1L543.25,503.7L545.36,527.49L547.48,496.23L549.59,511.67L551.7,516.03L553.82,514.29L555.93,539.2L558.04,562.86L560.16,539.32L562.27,567.22L564.38,560.75L566.5,556.14L568.61,550.03L570.72,566.35L572.84,569.47L574.95,548.42L577.06,557.63L579.18,550.91L581.29,549.29L583.4,563.24L585.52,547.67L587.63,555.27L589.74,550.78L591.85,550.41L593.97,547.92L596.08,562.49L598.19,548.42L600.31,546.67L602.42,562.12L604.53,529.86L606.65,532.6L608.76,553.02L610.87,545.92L612.99,553.77L615.1,556.51L617.21,546.8L619.33,560.12L621.44,559.63L623.55,541.56L625.67,552.78L627.78,568.97L629.89,557.13L632.01,553.4L634.12,526.62L636.23,576.94L638.34,548.29L640.46,576.44L642.57,545.55L644.68,547.92L646.8,561.74L648.91,562.86L651.02,554.77L653.14,548.54L655.25,548.04L657.36,556.39L659.48,555.39L661.59,554.02L663.7,569.34L665.82,551.53L667.93,559.88L670.04,561.25L672.16,556.76L674.27,559.63L676.38,564.61L678.5,529.11L680.61,558.38L682.72,563.74L684.83,549.79L686.95,557.01L689.06,544.93L691.17,563.11L693.29,547.17L695.4,554.52L697.51,558.26L699.63,558.01L701.74,564.23L703.85,572.46L705.97,560.87L708.08,560.62L710.19,548.17L712.31,582.17L714.42,529.36L716.53,559.38L718.65,553.9L720.76,557.88L722.87,568.1L724.99,549.29L727.1,546.42L729.21,558.51L731.32,555.14L733.44,544.68L735.55,544.18L737.66,571.58L739.78,559.75L741.89,555.27L744,560.12L746.12,550.28L748.23,550.16L750.34,566.35L752.46,530.98L754.57,567.97L756.68,558.75L758.8,552.4L760.91,566.48L763.02,541.94L765.14,550.78L767.25,561.25L769.36,558.88L771.48,555.27L773.59,557.38L775.7,545.55L777.81,552.9L779.93,530.48L782.04,550.16L784.15,569.09L786.27,561.37L788.38,562.62L790.49,560L792.61,539.57L794.72,564.86L796.83,567.85L798.95,550.03L801.06,552.28L803.17,549.54L805.29,556.76L807.4,550.91L809.51,552.9L811.63,565.48L813.74,551.16L815.85,550.28L817.97,557.88L820.08,565.36L822.19,555.14L824.3,554.89L826.42,553.65L828.53,555.89L830.64,559.5L832.76,565.11L834.87,553.27L836.98,551.41L839.1,557.88L841.21,541.07L843.32,569.09L845.44,550.66L847.55,548.29L849.66,568.97L851.78,550.66L853.89,552.65L856,556.26L858.12,545.3L860.23,544.55L862.34,558.01L864.46,554.39L866.57,553.65L868.68,540.69L870.79,547.17L872.91,556.14L875.02,531.23L877.13,540.19L879.25,557.76L881.36,544.06L883.47,553.02L885.59,547.54L887.7,566.23L889.81,551.28L891.93,545.92L894.04,550.41L896.15,556.89L898.27,551.78L900.38,563.49L902.49,557.63L904.61,537.21L906.72,537.33L908.83,554.77L910.95,551.28L913.06,550.28L915.17,565.6L917.28,535.09L919.4,547.54L921.51,561.49L923.62,553.27L925.74,539.2L927.85,537.95L929.96,552.15L932.08,546.3L934.19,551.65L936.3,531.6L938.42,545.43L940.53,549.16L942.64,553.65L944.76,536.33L946.87,560.25L948.98,533.09L951.1,552.28L953.21,538.82L955.32,541.32L957.44,554.39L959.55,543.06L961.66,548.54L963.77,551.9L965.89,542.06L968,548.29L970.11,560.87L972.23,556.64L974.34,545.43L976.45,569.47L978.57,548.79L980.68,555.64L982.79,546.55L984.91,534.59L987.02,549.91L989.13,554.77L991.25,555.64L993.36,552.78L995.47,548.79L997.59,560.12L999.7,541.19L1001.8,552.53L1003.9,547.17L1006,560.75L1008.2,537.45L1010.3,548.79L1012.4,559.75L1014.5,554.15L1016.6,560.12L1018.7,554.89L1020.8,555.39L1022.9,562.74L1025.1,552.15L1027.2,556.76L1029.3,534.47L1031.4,558.75L1033.5,542.06L1035.6,540.69L1037.7,567.6L1039.8,544.93L1042,546.17L1044.1,562.74L1046.2,554.77L1048.3,554.39L1050.4,551.78L1052.5,557.01L1054.6,545.18L1056.8,553.77L1058.9,559.63L1061,585.16L1063.1,544.06L1065.2,542.44L1067.3,552.9L1069.4,545.55L1071.5,536.96L1073.7,556.26L1075.8,562.74L1077.9,543.18L1080,548.17" style="fill:none;stroke:#7AC36A;stroke-width:1.875;stroke-dasharray:7.5,2.5" />
<path d="M1055,693.4L1080,693.4" style="fill:none;stroke:#F15A60;stroke-width:1.875" />
<text x="882.43" y="-686.35" transform="scale(1, -1)"
	style="font-family:Helvetica;font-weight:normal;font-style:normal;font-size:12pt">etcd v3 (no compression)</text>
<path d="M1055,678.7L1080,678.7" style="fill:none;stroke:#7AC36A;stroke-width:1.875;stroke-dasharray:7.5,2.5" />
<text x="937.44" y="-671.65" transform="scale(1, -1)"
	style="font-family:Helvetica;font-weight:normal;font-style:normal;font-size:12pt">etcd v3 (Snappy)</text>
</g>
</svg>
