<?xml version="1.0"?>
<!-- Generated by SVGo and Plotinum VG -->
<svg width="12in" height="8in"
	xmlns="http://www.w3.org/2000/svg"
	xmlns:xlink="http://www.w3.org/1999/xlink">
<g transform="scale(1, -1) translate(0, -720)">
<path d="M0,0L1080,0L1080,720L0,720Z" style="fill:#FFFFFF" />
<text x="253.62" y="-706.41" transform="scale(1, -1)"
	style="font-family:Helvetica;font-weight:normal;font-style:normal;font-size:12pt">Write 2M keys, 1,000 clients (etcd 100 conns), 8-byte key, 256-byte value, Throughput</text>
<text x="551.76" y="-4.965" transform="scale(1, -1)"
	style="font-family:Helvetica;font-weight:normal;font-style:normal;font-size:12pt">Second</text>
<text x="70.912" y="-19.142" transform="scale(1, -1)"
	style="font-family:Helvetica;font-weight:normal;font-style:normal;font-size:10pt">0</text>
<text x="381.69" y="-19.142" transform="scale(1, -1)"
	style="font-family:Helvetica;font-weight:normal;font-style:normal;font-size:10pt">50</text>
<text x="692.47" y="-19.142" transform="scale(1, -1)"
	style="font-family:Helvetica;font-weight:normal;font-style:normal;font-size:10pt">100</text>
<text x="1006.7" y="-19.142" transform="scale(1, -1)"
	style="font-family:Helvetica;font-weight:normal;font-style:normal;font-size:10pt">150</text>
<path d="M74.388,30.467L74.388,40.467" style="fill:none;stroke:#000000;stroke-width:0.625" />
<path d="M388.64,30.467L388.64,40.467" style="fill:none;stroke:#000000;stroke-width:0.625" />
<path d="M702.9,30.467L702.9,40.467" style="fill:none;stroke:#000000;stroke-width:0.625" />
<path d="M1017.1,30.467L1017.1,40.467" style="fill:none;stroke:#000000;stroke-width:0.625" />
<path d="M137.24,35.468L137.24,40.467" style="fill:none;stroke:#000000;stroke-width:0.625" />
<path d="M200.09,35.468L200.09,40.467" style="fill:none;stroke:#000000;stroke-width:0.625" />
<path d="M262.94,35.468L262.94,40.467" style="fill:none;stroke:#000000;stroke-width:0.625" />
<path d="M325.79,35.468L325.79,40.467" style="fill:none;stroke:#000000;stroke-width:0.625" />
<path d="M451.49,35.468L451.49,40.467" style="fill:none;stroke:#000000;stroke-width:0.625" />
<path d="M514.34,35.468L514.34,40.467" style="fill:none;stroke:#000000;stroke-width:0.625" />
<path d="M577.19,35.468L577.19,40.467" style="fill:none;stroke:#000000;stroke-width:0.625" />
<path d="M640.04,35.468L640.04,40.467" style="fill:none;stroke:#000000;stroke-width:0.625" />
<path d="M765.75,35.468L765.75,40.467" style="fill:none;stroke:#000000;stroke-width:0.625" />
<path d="M828.6,35.468L828.6,40.467" style="fill:none;stroke:#000000;stroke-width:0.625" />
<path d="M891.45,35.468L891.45,40.467" style="fill:none;stroke:#000000;stroke-width:0.625" />
<path d="M954.3,35.468L954.3,40.467" style="fill:none;stroke:#000000;stroke-width:0.625" />
<path d="M1080,35.468L1080,40.467" style="fill:none;stroke:#000000;stroke-width:0.625" />
<path d="M74.388,40.467L1080,40.467" style="fill:none;stroke:#000000;stroke-width:0.625" />
<g transform="rotate(90)">
<text x="335.88" y="13.59" transform="scale(1, -1)"
	style="font-family:Helvetica;font-weight:normal;font-style:normal;font-size:12pt">Throughput</text>
</g>
<text x="46.705" y="-41.661" transform="scale(1, -1)"
	style="font-family:Helvetica;font-weight:normal;font-style:normal;font-size:10pt">0</text>
<text x="18.555" y="-172.87" transform="scale(1, -1)"
	style="font-family:Helvetica;font-weight:normal;font-style:normal;font-size:10pt">1e+04</text>
<text x="18.555" y="-304.09" transform="scale(1, -1)"
	style="font-family:Helvetica;font-weight:normal;font-style:normal;font-size:10pt">2e+04</text>
<text x="18.555" y="-435.3" transform="scale(1, -1)"
	style="font-family:Helvetica;font-weight:normal;font-style:normal;font-size:10pt">3e+04</text>
<text x="18.555" y="-566.52" transform="scale(1, -1)"
	style="font-family:Helvetica;font-weight:normal;font-style:normal;font-size:10pt">4e+04</text>
<path d="M57.13,47.03L67.13,47.03" style="fill:none;stroke:#000000;stroke-width:0.625" />
<path d="M57.13,178.24L67.13,178.24" style="fill:none;stroke:#000000;stroke-width:0.625" />
<path d="M57.13,309.46L67.13,309.46" style="fill:none;stroke:#000000;stroke-width:0.625" />
<path d="M57.13,440.67L67.13,440.67" style="fill:none;stroke:#000000;stroke-width:0.625" />
<path d="M57.13,571.88L67.13,571.88" style="fill:none;stroke:#000000;stroke-width:0.625" />
<path d="M62.13,112.64L67.13,112.64" style="fill:none;stroke:#000000;stroke-width:0.625" />
<path d="M62.13,243.85L67.13,243.85" style="fill:none;stroke:#000000;stroke-width:0.625" />
<path d="M62.13,375.06L67.13,375.06" style="fill:none;stroke:#000000;stroke-width:0.625" />
<path d="M62.13,506.28L67.13,506.28" style="fill:none;stroke:#000000;stroke-width:0.625" />
<path d="M62.13,637.49L67.13,637.49" style="fill:none;stroke:#000000;stroke-width:0.625" />
<path d="M67.13,47.03L67.13,701.44" style="fill:none;stroke:#000000;stroke-width:0.625" />
<path d="M74.388,249.45L80.673,481.68L86.958,430.48L93.243,306.28L99.528,427.52L105.81,431.77L112.1,412.26L118.38,407.55L124.67,393L130.95,384.93L137.24,389.35L143.52,411.7L149.81,357.49L156.09,346L162.38,323.06L168.66,397.16L174.95,391.48L181.23,381.18L187.52,383.26L193.8,360.88L200.09,402.59L206.37,361.27L212.66,361.05L218.94,383.78L225.23,393.85L231.51,377.06L237.8,379L244.08,378.59L250.37,380.06L256.65,398.75L262.94,390.67L269.22,396.05L275.51,393.5L281.8,405.05L288.08,392.29L294.37,382.43L300.65,392.49L306.94,367.26L313.22,355.01L319.51,388.05L325.79,390.73L332.08,354.21L338.36,359.44L344.65,361.93L350.93,359.76L357.22,358.75L363.5,348.73L369.79,414.77L376.07,385.35L382.36,354.12L388.64,336L394.93,388.05L401.21,323.44L407.5,375.54L413.78,374.99L420.07,371.85L426.35,322.21L432.64,397.8L438.92,314.19L445.21,357.23L451.49,350.76L457.78,334.1L464.06,390.47L470.35,308.46L476.63,400.73L482.92,328.54L489.2,403.04L495.49,338.52L501.77,324.23L508.06,390.51L514.34,326.7L520.63,363.82L526.91,354.1L533.2,318.93L539.48,393.42L545.77,364.46L552.05,380.54L558.34,383.63L564.62,340.59L570.91,371.68" style="fill:none;stroke:#F15A60;stroke-width:1.875" />
<path d="M74.388,141.54L80.673,290.39L86.958,332.55L93.243,518.44L99.528,553.87L105.81,596.08L112.1,575.35L118.38,544.26L124.67,559.28L130.95,519.01L137.24,551.23L143.52,341.37L149.81,271.8L156.09,628.61L162.38,560.77L168.66,602.72L174.95,224.59L181.23,510.03L187.52,559.75L193.8,532.72L200.09,165.03L206.37,640.46L212.66,563.2L218.94,560.57L225.23,438.95L231.51,578.16L237.8,567.62L244.08,621.52L250.37,489.38L256.65,47.03L262.94,289.22L269.22,121.99L275.51,230.09L281.8,551.55L288.08,579.15L294.37,568.34L300.65,529.46L306.94,583.09L313.22,473.87L319.51,431.13L325.79,532.78L332.08,515.41L338.36,159.48L344.65,73.286L350.93,73.338L357.22,60.479L363.5,60.151L369.79,47.03L376.07,47.122L382.36,47.03L388.64,47.03L394.93,47.03L401.21,47.03L407.5,47.03L413.78,47.03L420.07,47.03L426.35,47.03L432.64,47.03L438.92,47.03L445.21,47.03L451.49,47.03L457.78,258.13L464.06,515.25L470.35,440.32L476.63,603.49L482.92,523.23L489.2,549.25L495.49,489.12L501.77,465.98L508.06,550.42L514.34,322.57L520.63,68.811L526.91,47.03L533.2,313.24L539.48,390.88L545.77,51.124L552.05,47.03L558.34,47.03L564.62,47.03L570.91,47.03L577.19,47.03L583.48,47.03L589.76,47.03L596.05,47.03L602.33,47.03L608.62,47.03L614.9,47.03L621.19,47.03L627.47,247.47L633.76,397.7L640.04,415.43L646.33,500.01L652.61,457.34L658.9,51.99L665.18,50.822L671.47,47.03L677.75,47.03L684.04,47.03L690.33,47.03L696.61,47.03L702.9,47.03L709.18,47.03L715.47,47.03L721.75,47.03L728.04,47.03L734.32,47.03L740.61,47.03L746.89,47.03L753.18,47.03L759.46,47.03L765.75,47.03L772.03,47.03L778.32,47.03L784.6,47.03L790.89,47.03L797.17,47.03L803.46,47.03L809.74,47.03L816.03,47.03L822.31,47.03L828.6,47.03L834.88,47.03L841.17,47.03L847.45,47.03L853.74,47.03L860.02,47.03L866.31,47.03L872.59,47.03L878.88,47.03L885.16,47.03L891.45,47.03L897.73,47.03L904.02,47.03L910.3,47.03L916.59,47.03L922.87,47.03L929.16,47.03L935.44,47.03L941.73,47.03L948.01,47.03L954.3,47.03L960.58,49.864L966.87,47.03L973.15,47.03L979.44,50.901L985.72,47.03L992.01,47.043L998.29,47.03L1004.6,47.03L1010.9,47.03L1017.1,215.43L1023.4,61.529L1029.7,47.03L1036,68.588L1042.3,337.17L1048.6,91.958L1054.9,47.03L1061.1,51.176L1067.4,47.03L1073.7,251.45L1080,444.17" style="fill:none;stroke:#7AC36A;stroke-width:1.875;stroke-dasharray:7.5,2.5" />
<path d="M74.388,225.43L80.673,347.94L86.958,272.17L93.243,610.88L99.528,586.23L105.81,634.07L112.1,561.57L118.38,672.71L124.67,624.51L130.95,621.27L137.24,326.57L143.52,336.29L149.81,701.44L156.09,669.94L162.38,647.74L168.66,125.23L174.95,696.73L181.23,643.26L187.52,421.29L193.8,383.07L200.09,613.34L206.37,631.97L212.66,555.48L218.94,660.11L225.23,562.73L231.51,678.06L237.8,345.13L244.08,47.03L250.37,533.66L256.65,408.56L262.94,51.085L269.22,572.42L275.51,664.23L281.8,567.36L288.08,654.34L294.37,609.23L300.65,618.2L306.94,642.88L313.22,589.89L319.51,638.15L325.79,564.73L332.08,608.86L338.36,609.7L344.65,455.76L350.93,245.28L357.22,122.57L363.5,485.03L369.79,47.03L376.07,48.408L382.36,593.67L388.64,576.63L394.93,594.77L401.21,673.13L407.5,327.89L413.78,456.13L420.07,506.44L426.35,677.37L432.64,518.27" style="fill:none;stroke:#5A9BD4;stroke-width:1.875;stroke-dasharray:2.5,2.5" />
<path d="M74.388,127.06L80.673,261.18L86.958,278.53L93.243,530.89L99.528,534.49L105.81,613.31L112.1,614.65L118.38,605.45L124.67,549.67L130.95,575.27L137.24,580.2L143.52,293.79L149.81,282.44L156.09,643.75L162.38,573.33L168.66,612.19L174.95,341.15L181.23,290.12L187.52,637.35L193.8,614.78L200.09,255.42L206.37,443.94L212.66,560.61L218.94,612.13L225.23,480.98L231.51,630.09L237.8,552.61L244.08,605.07L250.37,606.5L256.65,58.564L262.94,262.44L269.22,588.86L275.51,106.75L281.8,313.33L288.08,604.41L294.37,646.77L300.65,551.43L306.94,640.84L313.22,595.2L319.51,597.18L325.79,646.49L332.08,558.68L338.36,626.48L344.65,585.16L350.93,590.28L357.22,521.62L363.5,541.17L369.79,271.18L376.07,47.03L382.36,303.91L388.64,570.38L394.93,47.03L401.21,47.03L407.5,382.12L413.78,528.39L420.07,622.23L426.35,510.82L432.64,562.46L438.92,613.19L445.21,523.2L451.49,585.36" style="fill:none;stroke:#FAA75B;stroke-width:1.875;stroke-dasharray:1.25,1.25" />
<path d="M1055,694.3L1080,694.3" style="fill:none;stroke:#F15A60;stroke-width:1.875" />
<text x="1002.5" y="-687.85" transform="scale(1, -1)"
	style="font-family:Helvetica;font-weight:normal;font-style:normal;font-size:12pt">etcd v3</text>
<path d="M1055,680L1080,680" style="fill:none;stroke:#7AC36A;stroke-width:1.875;stroke-dasharray:7.5,2.5" />
<text x="793.19" y="-673.56" transform="scale(1, -1)"
	style="font-family:Helvetica;font-weight:normal;font-style:normal;font-size:12pt">Zookeeper v3.4.8 (snapCount 100000)</text>
<path d="M1055,665.71L1080,665.71" style="fill:none;stroke:#5A9BD4;stroke-width:1.875;stroke-dasharray:2.5,2.5" />
<text x="793.19" y="-659.26" transform="scale(1, -1)"
	style="font-family:Helvetica;font-weight:normal;font-style:normal;font-size:12pt">Zookeeper v3.4.8 (snapCount 500000)</text>
<path d="M1055,651.41L1080,651.41" style="fill:none;stroke:#FAA75B;stroke-width:1.875;stroke-dasharray:1.25,1.25" />
<text x="784.85" y="-644.97" transform="scale(1, -1)"
	style="font-family:Helvetica;font-weight:normal;font-style:normal;font-size:12pt">Zookeeper v3.4.8 (snapCount 1000000)</text>
</g>
</svg>
