<?xml version="1.0"?>
<!-- Generated by SVGo and Plotinum VG -->
<svg width="12in" height="8in"
	xmlns="http://www.w3.org/2000/svg"
	xmlns:xlink="http://www.w3.org/1999/xlink">
<g transform="scale(1, -1) translate(0, -720)">
<path d="M0,0L1080,0L1080,720L0,720Z" style="fill:#FFFFFF" />
<text x="332.84" y="-706.41" transform="scale(1, -1)"
	style="font-family:Helvetica;font-weight:normal;font-style:normal;font-size:12pt">Write 3M keys, 1K clients, key 64 bytes, value 256 bytes, CPU</text>
<text x="544.64" y="-4.965" transform="scale(1, -1)"
	style="font-family:Helvetica;font-weight:normal;font-style:normal;font-size:12pt">Second</text>
<text x="56.662" y="-19.142" transform="scale(1, -1)"
	style="font-family:Helvetica;font-weight:normal;font-style:normal;font-size:10pt">0</text>
<text x="358.54" y="-19.142" transform="scale(1, -1)"
	style="font-family:Helvetica;font-weight:normal;font-style:normal;font-size:10pt">50</text>
<text x="660.41" y="-19.142" transform="scale(1, -1)"
	style="font-family:Helvetica;font-weight:normal;font-style:normal;font-size:10pt">100</text>
<text x="965.76" y="-19.142" transform="scale(1, -1)"
	style="font-family:Helvetica;font-weight:normal;font-style:normal;font-size:10pt">150</text>
<path d="M60.137,30.467L60.137,40.467" style="fill:none;stroke:#000000;stroke-width:0.625" />
<path d="M365.49,30.467L365.49,40.467" style="fill:none;stroke:#000000;stroke-width:0.625" />
<path d="M670.83,30.467L670.83,40.467" style="fill:none;stroke:#000000;stroke-width:0.625" />
<path d="M976.18,30.467L976.18,40.467" style="fill:none;stroke:#000000;stroke-width:0.625" />
<path d="M121.21,35.468L121.21,40.467" style="fill:none;stroke:#000000;stroke-width:0.625" />
<path d="M182.28,35.468L182.28,40.467" style="fill:none;stroke:#000000;stroke-width:0.625" />
<path d="M243.35,35.468L243.35,40.467" style="fill:none;stroke:#000000;stroke-width:0.625" />
<path d="M304.42,35.468L304.42,40.467" style="fill:none;stroke:#000000;stroke-width:0.625" />
<path d="M426.56,35.468L426.56,40.467" style="fill:none;stroke:#000000;stroke-width:0.625" />
<path d="M487.62,35.468L487.62,40.467" style="fill:none;stroke:#000000;stroke-width:0.625" />
<path d="M548.69,35.468L548.69,40.467" style="fill:none;stroke:#000000;stroke-width:0.625" />
<path d="M609.76,35.468L609.76,40.467" style="fill:none;stroke:#000000;stroke-width:0.625" />
<path d="M731.9,35.468L731.9,40.467" style="fill:none;stroke:#000000;stroke-width:0.625" />
<path d="M792.97,35.468L792.97,40.467" style="fill:none;stroke:#000000;stroke-width:0.625" />
<path d="M854.04,35.468L854.04,40.467" style="fill:none;stroke:#000000;stroke-width:0.625" />
<path d="M915.11,35.468L915.11,40.467" style="fill:none;stroke:#000000;stroke-width:0.625" />
<path d="M1037.3,35.468L1037.3,40.467" style="fill:none;stroke:#000000;stroke-width:0.625" />
<path d="M60.137,40.467L1080,40.467" style="fill:none;stroke:#000000;stroke-width:0.625" />
<g transform="rotate(90)">
<text x="358.4" y="13.59" transform="scale(1, -1)"
	style="font-family:Helvetica;font-weight:normal;font-style:normal;font-size:12pt">CPU</text>
</g>
<text x="25.505" y="-221.43" transform="scale(1, -1)"
	style="font-family:Helvetica;font-weight:normal;font-style:normal;font-size:10pt">80</text>
<text x="18.555" y="-405.66" transform="scale(1, -1)"
	style="font-family:Helvetica;font-weight:normal;font-style:normal;font-size:10pt">160</text>
<text x="18.555" y="-589.89" transform="scale(1, -1)"
	style="font-family:Helvetica;font-weight:normal;font-style:normal;font-size:10pt">240</text>
<path d="M42.88,226.79L52.88,226.79" style="fill:none;stroke:#000000;stroke-width:0.625" />
<path d="M42.88,411.03L52.88,411.03" style="fill:none;stroke:#000000;stroke-width:0.625" />
<path d="M42.88,595.26L52.88,595.26" style="fill:none;stroke:#000000;stroke-width:0.625" />
<path d="M47.88,134.68L52.88,134.68" style="fill:none;stroke:#000000;stroke-width:0.625" />
<path d="M47.88,318.91L52.88,318.91" style="fill:none;stroke:#000000;stroke-width:0.625" />
<path d="M47.88,503.14L52.88,503.14" style="fill:none;stroke:#000000;stroke-width:0.625" />
<path d="M47.88,687.37L52.88,687.37" style="fill:none;stroke:#000000;stroke-width:0.625" />
<path d="M52.88,47.03L52.88,701.44" style="fill:none;stroke:#000000;stroke-width:0.625" />
<path d="M60.137,47.03L66.244,54.008L72.351,66.697L78.458,76.806L84.565,87.331L90.672,100.32L96.779,112.85L102.89,120.03L108.99,131.91L115.1,144.07L121.21,150.64L127.31,161.81L133.42,173.25L139.53,182.33L145.63,189.72L151.74,200.36L157.85,210.7L163.96,215.6L170.06,225.62L176.17,235.34L182.28,244.73L188.38,250.33L194.49,259.33L200.6,268.36L206.7,272.58L212.81,280.27L218.92,287.78L225.03,296.32L231.13,299.98L237.24,307.28L243.35,314.65L249.45,322.57L255.56,326.53L261.67,334.64L267.77,341.92L273.88,349.12L279.99,352.3L286.1,359.14L292.2,366.35L298.31,372.29L304.42,376.23L310.52,382.01L316.63,387.72L322.74,393.06L328.84,396.43L334.95,402.83L341.06,408.24L347.16,413.4L353.27,415.52L359.38,420.49L365.49,426.06L371.59,431.91L377.7,433.11L383.81,438.02L389.91,442.41L396.02,447.46L402.13,448.01L408.23,452.59L414.34,457.41L420.45,461.69L426.56,465.79L432.66,468.05L438.77,472.61L444.88,476.61L450.98,480.64L457.09,481.52L463.2,485.59L469.3,490.04L475.41,494.69L481.52,495.22L487.62,498.88L493.73,502.61L499.84,506.57L505.95,509.77L512.05,512.15L518.16,516.11L524.27,520.28L530.37,524.77L536.48,526.93L542.59,530.36L548.69,533.82L554.8,537.23L560.91,537.92L567.02,540.84L573.12,544.04L579.23,547.1L585.34,549.61L591.44,550.61L597.55,554.08L603.66,557.49L609.76,560.74L615.87,561.11L621.98,563.89L628.08,567.07L634.19,570.11L640.3,570.48L646.41,573.73L652.51,577.87L658.62,581.39L664.73,583.26L670.83,584.16L676.94,587.31L683.05,590.05L689.15,592.22L695.26,592.22L701.37,594.96L707.48,596.87L713.58,599.52L719.69,602.58L725.8,601.94L731.9,604.86L738.01,608.25L744.12,610.94L750.22,612.65L756.33,614.72L762.44,616.81L768.54,619.62L774.65,620.54L780.76,621.72L786.87,624.07L792.97,625.77L799.08,628.3L805.19,627.38L811.29,629.89L817.4,632.43L823.51,635.26L829.61,637.84L835.72,638.39L841.83,641.43L847.94,643.11L854.04,645L860.15,646.27L866.26,648.18L872.36,650.97L878.47,652.62L884.58,652.6L890.68,653.96L896.79,655.89L902.9,658.54L909.01,660.06L915.11,660.8L921.22,663.1L927.33,665.73L933.43,668.1L939.54,668.56L945.65,671.09L951.75,673.56L957.86,675.35L963.97,675.88L970.07,677.49L976.18,679.41L982.29,682.22L988.4,682.35L994.5,684.52L1000.6,686.02L1006.7,689.01L1012.8,689.26L1018.9,690.78L1025,692.81L1031.1,694.93L1037.3,697.02L1043.4,697.16L1049.5,699.6L1055.6,700.82L1061.7,701.31L1067.8,701.44L1073.9,700.69L1080,700.96" style="fill:none;stroke:#F15A60;stroke-width:1.875" />
<path d="M60.137,47.168L66.244,55.182L72.351,66.259L78.458,71.717L84.565,82.195L90.672,93.272L96.779,103.43L102.89,108.26L108.99,119.55L115.1,130.16L121.21,135.35L127.31,146.26L133.42,156.42L139.53,163.1L145.63,170.51L151.74,179.82L157.85,189.33L163.96,194.25L170.06,203.26L176.17,212.65L182.28,218.73L188.38,224.65L194.49,232.41L200.6,240.2L206.7,243.74L212.81,251.18L218.92,258.57L225.03,265.71L231.13,268.22L237.24,275.45L243.35,284.16L249.45,291.11L255.56,294.57L261.67,302.1L267.77,310.23L273.88,312.02L279.99,318.2L286.1,324.14L292.2,329.53L298.31,331.53L304.42,336.94L310.52,342.01L316.63,347.79L322.74,350.85L328.84,355.16L334.95,360.78L341.06,365.64L347.16,368.03L353.27,371.58L359.38,376.87L365.49,381.57L371.59,384.87L377.7,387.95L383.81,394.61L389.91,399.93L396.02,401.77L402.13,407L408.23,412.34L414.34,417.38L420.45,418.69L426.56,423.92L432.66,428.78L438.77,432.81L444.88,434.95L450.98,439.63L457.09,445.11L463.2,446.51L469.3,450.59L475.41,455.45L481.52,459.62L487.62,460.88L493.73,464.61L499.84,468.3L505.95,471.85L512.05,473.14L518.16,476.54L524.27,480.16L530.37,483.77L536.48,484.17L542.59,485.78L548.69,489.26L554.8,492.76L560.91,495.84L567.02,495.82L573.12,499.16L579.23,503.33L585.34,507.59L591.44,506.55L597.55,510.35L603.66,514.1L609.76,517.47L615.87,517.07L621.98,520.34L628.08,523.41L634.19,526.08L640.3,526.52L646.41,529.05L652.51,531.19L658.62,533.75L664.73,536.44L670.83,535.96L676.94,538.63L683.05,541.85L689.15,543.67L695.26,544.92L701.37,546.11L707.48,548.39L713.58,550.95L719.69,553.85L725.8,553.28L731.9,557.03L738.01,559.93L744.12,562.72L750.22,562.81L756.33,565.67L762.44,568.96L768.54,571.68L774.65,572.05L780.76,575.04L786.87,577.94L792.97,580.96L799.08,581.1L805.19,584.3L811.29,586.83L817.4,589.22L823.51,590.54L829.61,592.59L835.72,595.49L841.83,598.39L847.94,598.39L854.04,601.08L860.15,603L866.26,605.51L872.36,605.55L878.47,607.79L884.58,610.25L890.68,612.46L896.79,613.5L902.9,614.35L909.01,617.14L915.11,619.3L921.22,621.51L927.33,621.47L933.43,624.02L939.54,625.96L945.65,628.01L951.75,627.57L957.86,630.33L963.97,632.06L970.07,634.55L976.18,633.58L982.29,636.89L988.4,638.92L994.5,641.13L1000.6,640.21L1006.7,642.24L1012.8,644.72L1018.9,646.45" style="fill:none;stroke:#7AC36A;stroke-width:1.875;stroke-dasharray:7.5,2.5" />
<path d="M1055,694.3L1080,694.3" style="fill:none;stroke:#F15A60;stroke-width:1.875" />
<text x="1002.5" y="-687.85" transform="scale(1, -1)"
	style="font-family:Helvetica;font-weight:normal;font-style:normal;font-size:12pt">etcd v3</text>
<path d="M1055,680L1080,680" style="fill:none;stroke:#7AC36A;stroke-width:1.875;stroke-dasharray:7.5,2.5" />
<text x="951.62" y="-673.56" transform="scale(1, -1)"
	style="font-family:Helvetica;font-weight:normal;font-style:normal;font-size:12pt">etcd v3 (patch)</text>
</g>
</svg>
