<?xml version="1.0"?>
<!-- Generated by SVGo and Plotinum VG -->
<svg width="12in" height="8in"
	xmlns="http://www.w3.org/2000/svg"
	xmlns:xlink="http://www.w3.org/1999/xlink">
<g transform="scale(1, -1) translate(0, -720)">
<path d="M0,0L1080,0L1080,720L0,720Z" style="fill:#FFFFFF" />
<text x="305.34" y="-706.41" transform="scale(1, -1)"
	style="font-family:Helvetica;font-weight:normal;font-style:normal;font-size:12pt">Write 3M keys, 1K clients, key 64 bytes, value 256 bytes, Memory(MB)</text>
<text x="548.11" y="-4.965" transform="scale(1, -1)"
	style="font-family:Helvetica;font-weight:normal;font-style:normal;font-size:12pt">Second</text>
<text x="63.613" y="-19.142" transform="scale(1, -1)"
	style="font-family:Helvetica;font-weight:normal;font-style:normal;font-size:10pt">0</text>
<text x="363.4" y="-19.142" transform="scale(1, -1)"
	style="font-family:Helvetica;font-weight:normal;font-style:normal;font-size:10pt">50</text>
<text x="663.2" y="-19.142" transform="scale(1, -1)"
	style="font-family:Helvetica;font-weight:normal;font-style:normal;font-size:10pt">100</text>
<text x="966.46" y="-19.142" transform="scale(1, -1)"
	style="font-family:Helvetica;font-weight:normal;font-style:normal;font-size:10pt">150</text>
<path d="M67.088,30.467L67.088,40.467" style="fill:none;stroke:#000000;stroke-width:0.625" />
<path d="M370.35,30.467L370.35,40.467" style="fill:none;stroke:#000000;stroke-width:0.625" />
<path d="M673.62,30.467L673.62,40.467" style="fill:none;stroke:#000000;stroke-width:0.625" />
<path d="M976.89,30.467L976.89,40.467" style="fill:none;stroke:#000000;stroke-width:0.625" />
<path d="M127.74,35.468L127.74,40.467" style="fill:none;stroke:#000000;stroke-width:0.625" />
<path d="M188.39,35.468L188.39,40.467" style="fill:none;stroke:#000000;stroke-width:0.625" />
<path d="M249.05,35.468L249.05,40.467" style="fill:none;stroke:#000000;stroke-width:0.625" />
<path d="M309.7,35.468L309.7,40.467" style="fill:none;stroke:#000000;stroke-width:0.625" />
<path d="M431.01,35.468L431.01,40.467" style="fill:none;stroke:#000000;stroke-width:0.625" />
<path d="M491.66,35.468L491.66,40.467" style="fill:none;stroke:#000000;stroke-width:0.625" />
<path d="M552.32,35.468L552.32,40.467" style="fill:none;stroke:#000000;stroke-width:0.625" />
<path d="M612.97,35.468L612.97,40.467" style="fill:none;stroke:#000000;stroke-width:0.625" />
<path d="M734.28,35.468L734.28,40.467" style="fill:none;stroke:#000000;stroke-width:0.625" />
<path d="M794.93,35.468L794.93,40.467" style="fill:none;stroke:#000000;stroke-width:0.625" />
<path d="M855.58,35.468L855.58,40.467" style="fill:none;stroke:#000000;stroke-width:0.625" />
<path d="M916.24,35.468L916.24,40.467" style="fill:none;stroke:#000000;stroke-width:0.625" />
<path d="M1037.5,35.468L1037.5,40.467" style="fill:none;stroke:#000000;stroke-width:0.625" />
<path d="M67.088,40.467L1080,40.467" style="fill:none;stroke:#000000;stroke-width:0.625" />
<g transform="rotate(90)">
<text x="330.91" y="13.59" transform="scale(1, -1)"
	style="font-family:Helvetica;font-weight:normal;font-style:normal;font-size:12pt">Memory(MB)</text>
</g>
<text x="25.505" y="-199.18" transform="scale(1, -1)"
	style="font-family:Helvetica;font-weight:normal;font-style:normal;font-size:10pt">400</text>
<text x="25.505" y="-376.66" transform="scale(1, -1)"
	style="font-family:Helvetica;font-weight:normal;font-style:normal;font-size:10pt">800</text>
<text x="18.555" y="-554.14" transform="scale(1, -1)"
	style="font-family:Helvetica;font-weight:normal;font-style:normal;font-size:10pt">1200</text>
<path d="M49.83,204.55L59.83,204.55" style="fill:none;stroke:#000000;stroke-width:0.625" />
<path d="M49.83,382.03L59.83,382.03" style="fill:none;stroke:#000000;stroke-width:0.625" />
<path d="M49.83,559.51L59.83,559.51" style="fill:none;stroke:#000000;stroke-width:0.625" />
<path d="M54.83,115.81L59.83,115.81" style="fill:none;stroke:#000000;stroke-width:0.625" />
<path d="M54.83,293.29L59.83,293.29" style="fill:none;stroke:#000000;stroke-width:0.625" />
<path d="M54.83,470.77L59.83,470.77" style="fill:none;stroke:#000000;stroke-width:0.625" />
<path d="M54.83,648.25L59.83,648.25" style="fill:none;stroke:#000000;stroke-width:0.625" />
<path d="M59.83,47.03L59.83,701.44" style="fill:none;stroke:#000000;stroke-width:0.625" />
<path d="M67.088,47.385L73.153,82.681L79.218,91.409L85.284,95.997L91.349,99.458L97.414,104.44L103.48,110.03L109.54,112.26L115.61,117.95L121.68,125.04L127.74,126.5L133.81,131.47L139.87,135.73L145.94,141.16L152,144.14L158.07,149.17L164.13,153.59L170.2,155.95L176.26,161.94L182.33,167.49L188.39,170.26L194.46,175L200.53,179.12L206.59,184.52L212.66,188.54L218.72,191.53L224.79,194.6L230.85,198.72L236.92,202.42L242.98,207.11L249.05,211.14L255.11,219.25L261.18,220.54L267.24,223.41L273.31,228.83L279.37,233.13L285.44,234.8L291.51,239.4L297.57,245.13L303.64,249.61L309.7,251.78L315.77,257.51L321.83,260.83L327.9,264.13L333.96,267.79L340.03,272.82L346.09,276.81L352.16,281.18L358.22,283.54L364.29,286.11L370.35,290.47L376.42,294.3L382.49,296.36L388.55,300.47L394.62,306.27L400.68,309.32L406.75,309.79L412.81,313.02L418.88,317.61L424.94,322.85L431.01,325.05L437.07,327.9L443.14,333.63L449.2,336.43L455.27,340.62L461.33,342.93L467.4,345.06L473.47,349.62L479.53,353.24L485.6,355.03L491.66,358.53L497.73,362.33L503.79,369.36L509.86,372.92L515.92,374.66L521.99,378.96L528.05,382.09L534.12,386.38L540.18,389.9L546.25,393.76L552.32,398.09L558.38,402.44L564.45,404.95L570.51,408.29L576.58,411.75L582.64,415.68L588.71,418.31L594.77,421.21L600.84,426.53L606.9,429.42L612.97,433.83L619.03,436.07L625.1,439.32L631.16,443.81L637.23,448.08L643.3,452.92L649.36,457.4L655.43,460.5L661.49,464.16L667.56,467.99L673.62,471.62L679.69,475.31L685.75,478.38L691.82,482.51L697.88,484.95L703.95,488.53L710.01,490.55L716.08,495.73L722.14,499.81L728.21,500.61L734.28,504.44L740.34,508.75L746.41,513.24L752.47,515.83L758.54,519.04L764.6,525.25L770.67,527.74L776.73,530.03L782.8,534.32L788.86,536.22L794.93,540.38L800.99,543.26L807.06,543.78L813.12,549.42L819.19,553.72L825.26,557.28L831.32,561.4L837.39,563.02L843.45,566.28L849.52,572.08L855.58,576.09L861.65,578.95L867.71,581.15L873.78,586.88L879.84,591.07L885.91,592.32L891.97,593.61L898.04,597.01L904.11,602.22L910.17,604.39L916.24,607.16L922.3,609.47L928.37,615.16L934.43,619.19L940.5,621.06L946.56,626.74L952.63,629.84L958.69,638.6L964.76,640.87L970.82,644.57L976.89,648.21L982.95,651.48L989.02,652.15L995.09,655.06L1001.2,656.07L1007.2,662L1013.3,662.97L1019.3,667.43L1025.4,671.88L1031.5,676.9L1037.5,680.93L1043.6,683.03L1049.7,689.2L1055.7,691.65L1061.8,693.76L1067.9,695.23L1073.9,695.53L1080,701.44" style="fill:none;stroke:#F15A60;stroke-width:1.875" />
<path d="M67.088,47.03L73.153,85.104L79.218,91.041L85.284,94.71L91.349,100.85L97.414,105.34L103.48,109.24L109.54,113.76L115.61,119.33L121.68,122.93L127.74,125.76L133.81,132.4L139.87,137.21L145.94,139.43L152,145.67L158.07,150.19L164.13,157.19L170.2,158.78L176.26,161.49L182.33,168.24L188.39,172.39L194.46,175.24L200.53,178.68L206.59,183.27L212.66,187.96L218.72,194.06L224.79,197.43L230.85,201.89L236.92,203.75L242.98,209.72L249.05,216.52L255.11,220.73L261.18,222.58L267.24,227.74L273.31,233.29L279.37,235.71L285.44,239.92L291.51,245.43L297.57,248.29L303.64,251.31L309.7,256.73L315.77,260.42L321.83,264.7L327.9,269.04L333.96,271.98L340.03,276.53L346.09,279.13L352.16,282.36L358.22,285.4L364.29,291.98L370.35,294.66L376.42,298.08L382.49,300.56L388.55,306.6L394.62,312.79L400.68,313.29L406.75,318.42L412.81,321.73L418.88,327.6L424.94,329.34L431.01,334.26L437.07,338.43L443.14,342.97L449.2,345.01L455.27,347.91L461.33,355.99L467.4,358.52L473.47,362.47L479.53,366.68L485.6,371.72L491.66,373.71L497.73,378.63L503.79,382.78L509.86,386.32L515.92,387.8L521.99,392.7L528.05,397.96L534.12,402.75L540.18,404.58L546.25,407.66L552.32,412.56L558.38,416.88L564.45,421.32L570.51,423.09L576.58,426.74L582.64,431.05L588.71,436.75L594.77,436.91L600.84,442.05L606.9,447.71L612.97,451.81L619.03,452.52L625.1,458.36L631.16,462.45L637.23,465.6L643.3,467.99L649.36,473.16L655.43,476.85L661.49,479.29L667.56,484.27L673.62,485.36L679.69,488.6L685.75,492.83L691.82,496.54L697.88,500.93L703.95,502.23L710.01,503.76L716.08,509.27L722.14,512.91L728.21,514.22L734.28,519.15L740.34,524.02L746.41,526.44L752.47,529.18L758.54,533.25L764.6,538.93L770.67,541.93L776.73,542.84L782.8,549.06L788.86,552.91L794.93,558.08L800.99,559.95L807.06,564.44L813.12,568.82L819.19,571.29L825.26,574.27L831.32,577.93L837.39,582.99L843.45,587.3L849.52,588.67L855.58,591.59L861.65,594.57L867.71,599.19L873.78,601.25L879.84,606.7L885.91,610.54L891.97,613.94L898.04,616.69L904.11,619.07L910.17,625.04L916.24,627.57L922.3,633.03L928.37,634.39L934.43,638.47L940.5,642.33L946.56,645.86L952.63,647.04L958.69,652.86L964.76,657.78L970.82,660.95L976.89,661.59L982.95,665.39L989.02,670.88L995.09,674.33L1001.2,676.7L1007.2,681.39L1013.3,685.71L1019.3,689.78" style="fill:none;stroke:#7AC36A;stroke-width:1.875;stroke-dasharray:7.5,2.5" />
<path d="M1055,694.3L1080,694.3" style="fill:none;stroke:#F15A60;stroke-width:1.875" />
<text x="1002.5" y="-687.85" transform="scale(1, -1)"
	style="font-family:Helvetica;font-weight:normal;font-style:normal;font-size:12pt">etcd v3</text>
<path d="M1055,680L1080,680" style="fill:none;stroke:#7AC36A;stroke-width:1.875;stroke-dasharray:7.5,2.5" />
<text x="951.62" y="-673.56" transform="scale(1, -1)"
	style="font-family:Helvetica;font-weight:normal;font-style:normal;font-size:12pt">etcd v3 (patch)</text>
</g>
</svg>
