<?xml version="1.0"?>
<!-- Generated by SVGo and Plotinum VG -->
<svg width="12in" height="8in"
	xmlns="http://www.w3.org/2000/svg"
	xmlns:xlink="http://www.w3.org/1999/xlink">
<g transform="scale(1, -1) translate(0, -720)">
<path d="M0,0L1080,0L1080,720L0,720Z" style="fill:#FFFFFF" />
<text x="310.31" y="-706.41" transform="scale(1, -1)"
	style="font-family:Helvetica;font-weight:normal;font-style:normal;font-size:12pt">Write 3M keys, 1K clients, key 64 bytes, value 256 bytes, Throughput</text>
<text x="551.76" y="-4.965" transform="scale(1, -1)"
	style="font-family:Helvetica;font-weight:normal;font-style:normal;font-size:12pt">Second</text>
<text x="70.912" y="-19.142" transform="scale(1, -1)"
	style="font-family:Helvetica;font-weight:normal;font-style:normal;font-size:10pt">0</text>
<text x="364.96" y="-19.142" transform="scale(1, -1)"
	style="font-family:Helvetica;font-weight:normal;font-style:normal;font-size:10pt">50</text>
<text x="659" y="-19.142" transform="scale(1, -1)"
	style="font-family:Helvetica;font-weight:normal;font-style:normal;font-size:10pt">100</text>
<text x="956.52" y="-19.142" transform="scale(1, -1)"
	style="font-family:Helvetica;font-weight:normal;font-style:normal;font-size:10pt">150</text>
<path d="M74.388,30.467L74.388,40.467" style="fill:none;stroke:#000000;stroke-width:0.625" />
<path d="M371.91,30.467L371.91,40.467" style="fill:none;stroke:#000000;stroke-width:0.625" />
<path d="M669.42,30.467L669.42,40.467" style="fill:none;stroke:#000000;stroke-width:0.625" />
<path d="M966.94,30.467L966.94,40.467" style="fill:none;stroke:#000000;stroke-width:0.625" />
<path d="M133.89,35.468L133.89,40.467" style="fill:none;stroke:#000000;stroke-width:0.625" />
<path d="M193.39,35.468L193.39,40.467" style="fill:none;stroke:#000000;stroke-width:0.625" />
<path d="M252.9,35.468L252.9,40.467" style="fill:none;stroke:#000000;stroke-width:0.625" />
<path d="M312.4,35.468L312.4,40.467" style="fill:none;stroke:#000000;stroke-width:0.625" />
<path d="M431.41,35.468L431.41,40.467" style="fill:none;stroke:#000000;stroke-width:0.625" />
<path d="M490.91,35.468L490.91,40.467" style="fill:none;stroke:#000000;stroke-width:0.625" />
<path d="M550.42,35.468L550.42,40.467" style="fill:none;stroke:#000000;stroke-width:0.625" />
<path d="M609.92,35.468L609.92,40.467" style="fill:none;stroke:#000000;stroke-width:0.625" />
<path d="M728.93,35.468L728.93,40.467" style="fill:none;stroke:#000000;stroke-width:0.625" />
<path d="M788.43,35.468L788.43,40.467" style="fill:none;stroke:#000000;stroke-width:0.625" />
<path d="M847.94,35.468L847.94,40.467" style="fill:none;stroke:#000000;stroke-width:0.625" />
<path d="M907.44,35.468L907.44,40.467" style="fill:none;stroke:#000000;stroke-width:0.625" />
<path d="M1026.4,35.468L1026.4,40.467" style="fill:none;stroke:#000000;stroke-width:0.625" />
<path d="M74.388,40.467L1080,40.467" style="fill:none;stroke:#000000;stroke-width:0.625" />
<g transform="rotate(90)">
<text x="335.88" y="13.59" transform="scale(1, -1)"
	style="font-family:Helvetica;font-weight:normal;font-style:normal;font-size:12pt">Throughput</text>
</g>
<text x="18.555" y="-227.57" transform="scale(1, -1)"
	style="font-family:Helvetica;font-weight:normal;font-style:normal;font-size:10pt">1e+04</text>
<text x="18.555" y="-440.72" transform="scale(1, -1)"
	style="font-family:Helvetica;font-weight:normal;font-style:normal;font-size:10pt">2e+04</text>
<text x="18.555" y="-653.87" transform="scale(1, -1)"
	style="font-family:Helvetica;font-weight:normal;font-style:normal;font-size:10pt">3e+04</text>
<path d="M57.13,232.94L67.13,232.94" style="fill:none;stroke:#000000;stroke-width:0.625" />
<path d="M57.13,446.09L67.13,446.09" style="fill:none;stroke:#000000;stroke-width:0.625" />
<path d="M57.13,659.24L67.13,659.24" style="fill:none;stroke:#000000;stroke-width:0.625" />
<path d="M62.13,126.36L67.13,126.36" style="fill:none;stroke:#000000;stroke-width:0.625" />
<path d="M62.13,339.52L67.13,339.52" style="fill:none;stroke:#000000;stroke-width:0.625" />
<path d="M62.13,552.67L67.13,552.67" style="fill:none;stroke:#000000;stroke-width:0.625" />
<path d="M67.13,47.03L67.13,701.44" style="fill:none;stroke:#000000;stroke-width:0.625" />
<path d="M74.388,60.97L80.338,651.67L86.288,635.62L92.239,341.73L98.189,579.63L104.14,570.76L110.09,349.34L116.04,548.59L121.99,544.99L127.94,479.28L133.89,386.98L139.84,538.32L145.79,532.89L151.74,308.78L157.69,523.17L163.64,528.62L169.59,467.75L175.54,359.51L181.49,506.63L187.44,505.43L193.39,351.64L199.35,505.79L205.3,509.35L211.25,492.07L217.2,300.72L223.15,433.56L229.1,462.99L235.05,441.7L241,300.4L246.95,468.75L252.9,454.94L258.85,500.12L264.8,303.47L270.75,520.39L276.7,497.74L282.65,333.23L288.6,416.8L294.55,470.9L300.5,502.02L306.45,293.9L312.4,468.83L318.35,444.94L324.3,444.9L330.25,264.12L336.2,445.13L342.15,453.36L348.1,488L354.05,266.96L360.01,378.27L365.96,447.67L371.91,424.99L377.86,403.31L383.81,338.79L389.76,394.1L395.71,389.52L401.66,469.15L407.61,204.51L413.56,402.88L419.51,352.88L425.46,463.08L431.41,309.38L437.36,438.5L443.31,400.99L449.26,427.57L455.21,386L461.16,214.76L467.11,444.21L473.06,450.84L479.01,480.34L484.96,148.85L490.91,426.27L496.86,407.53L502.81,445.77L508.76,307.8L514.71,443.75L520.67,419.23L526.62,403.57L532.57,387.94L538.52,427.25L544.47,422.52L550.42,408.15L556.37,394.38L562.32,232.56L568.27,411.99L574.22,429.36L580.17,355.44L586.12,244.39L592.07,345.46L598.02,447.77L603.97,433.24L609.92,419.13L615.87,264.36L621.82,426.4L627.77,394.53L633.72,367.37L639.67,264.04L645.62,470.62L651.57,496.03L657.52,451.27L663.47,202.86L669.42,350.19L675.37,471.26L681.33,366.46L687.28,404.16L693.23,214.55L699.18,361.62L705.13,418.36L711.08,317.09L717.03,410.56L722.98,220.15L728.93,322.97L734.88,489.66L740.83,498.95L746.78,261.33L752.73,420.21L758.68,377.46L764.63,423.16L770.58,328.62L776.53,310.1L782.48,394.06L788.43,336.38L794.38,390.67L800.33,243.13L806.28,332.48L812.23,517.09L818.18,386.28L824.13,391.18L830.08,368.16L836.03,385.11L841.99,372.83L847.94,433.47L853.89,217.36L859.84,397.66L865.79,534.06L871.74,379.42L877.69,264.4L883.64,319.2L889.59,319.44L895.54,565.86L901.49,277.08L907.44,386.02L913.39,356.52L919.34,372.32L925.29,519.33L931.24,209.88L937.19,456.73L943.14,541.39L949.09,336.04L955.04,336.45L960.99,330.48L966.94,417.61L972.89,512.38L978.84,342.29L984.79,370.95L990.74,275.06L996.69,535.55L1002.6,445.07L1008.6,240.23L1014.5,450.99L1020.5,292.88L1026.4,605.4L1032.4,138.79L1038.3,557.95L1044.3,249.91L1050.2,537.96L1056.2,47.03L1062.1,335.74L1068.1,383.66L1074,219.3L1080,525.21" style="fill:none;stroke:#F15A60;stroke-width:1.875" />
<path d="M74.388,239.87L80.338,701.44L86.288,514.83L92.239,323.15L98.189,591.33L104.14,573.92L110.09,203.99L116.04,601.84L121.99,583.59L127.94,412.95L133.89,497.89L139.84,568.25L145.79,515.47L151.74,309.67L157.69,522.4L163.64,567.25L169.59,308.31L175.54,516.81L181.49,535.95L187.44,522.08L193.39,249.76L199.35,514.6L205.3,483.75L211.25,464.36L217.2,338.49L223.15,473.74L229.1,482.67L235.05,360.32L241,385.92L246.95,520.63L252.9,533.48L258.85,273.52L264.8,562.47L270.75,557.42L276.7,453.53L282.65,306.65L288.6,413.78L294.55,437.76L300.5,470.77L306.45,238.76L312.4,426.54L318.35,459.6L324.3,441.34L330.25,291.45L336.2,431.08L342.15,490.55L348.1,399.71L354.05,252.55L360.01,407.45L365.96,524.25L371.91,404.5L377.86,258.35L383.81,490.92L389.76,580.01L395.71,483.88L401.66,251.93L407.61,525.28L413.56,484.88L419.51,449.65L425.46,298.53L431.41,561.11L437.36,508.22L443.31,284.03L449.26,491L455.21,425.39L461.16,517.62L467.11,278.7L473.06,459.14L479.01,537.15L484.96,493.77L490.91,232.6L496.86,494.97L502.81,459.86L508.76,436.35L514.71,215.76L520.67,427.8L526.62,440.7L532.57,453.51L538.52,250.74L544.47,343.52L550.42,404.14L556.37,406.51L562.32,465.74L568.27,307.33L574.22,422.15L580.17,513.3L586.12,445.56L592.07,247.52L598.02,489.23L603.97,485.61L609.92,431.26L615.87,161.92L621.82,420.3L627.77,499.42L633.72,425.56L639.67,164.8L645.62,456.15L651.57,420.15L657.52,469.41L663.47,305.92L669.42,319.63L675.37,312.3L681.33,364.45L687.28,499.23L693.23,175.47L699.18,412.84L705.13,446.26L711.08,261.1L717.03,486.53L722.98,165.48L728.93,463.74L734.88,565.97L740.83,501.13L746.78,120.14L752.73,592.4L758.68,359.42L764.63,406.76L770.58,332.86L776.53,424.16L782.48,408.87L788.43,564.96L794.38,205.42L800.33,448.71L806.28,606.87L812.23,382.57L818.18,324.51L824.13,457.17L830.08,313.49L836.03,562.24L841.99,137.04L847.94,545.01L853.89,458.22L859.84,335.23L865.79,320.78L871.74,365.82L877.69,568.16L883.64,341.52L889.59,359.74L895.54,292.62L901.49,446.26L907.44,481.56L913.39,308.4L919.34,377.35L925.29,315.69L931.24,627.97L937.19,238.23L943.14,347.91L949.09,289.66L955.04,651.97L960.99,258.07L966.94,346.29L972.89,290.23L978.84,682.35L984.79,300.21L990.74,380.87L996.69,207.06L1002.6,627.01L1008.6,326.66L1014.5,492.51L1020.5,170.64" style="fill:none;stroke:#7AC36A;stroke-width:1.875;stroke-dasharray:7.5,2.5" />
<path d="M1055,694.3L1080,694.3" style="fill:none;stroke:#F15A60;stroke-width:1.875" />
<text x="1002.5" y="-687.85" transform="scale(1, -1)"
	style="font-family:Helvetica;font-weight:normal;font-style:normal;font-size:12pt">etcd v3</text>
<path d="M1055,680L1080,680" style="fill:none;stroke:#7AC36A;stroke-width:1.875;stroke-dasharray:7.5,2.5" />
<text x="951.62" y="-673.56" transform="scale(1, -1)"
	style="font-family:Helvetica;font-weight:normal;font-style:normal;font-size:12pt">etcd v3 (patch)</text>
</g>
</svg>
