<?xml version="1.0"?>
<!-- Generated by SVGo and Plotinum VG -->
<svg width="12in" height="8in"
	xmlns="http://www.w3.org/2000/svg"
	xmlns:xlink="http://www.w3.org/1999/xlink">
<g transform="scale(1, -1) translate(0, -720)">
<path d="M0,0L1080,0L1080,720L0,720Z" style="fill:#FFFFFF" />
<text x="354.5" y="-706.41" transform="scale(1, -1)"
	style="font-family:Helvetica;font-weight:normal;font-style:normal;font-size:12pt">Write 300K keys, 1 client, key 64 bytes, value 256 bytes</text>
<text x="544.64" y="-4.965" transform="scale(1, -1)"
	style="font-family:Helvetica;font-weight:normal;font-style:normal;font-size:12pt">Second</text>
<text x="56.662" y="-19.142" transform="scale(1, -1)"
	style="font-family:Helvetica;font-weight:normal;font-style:normal;font-size:10pt">0</text>
<text x="324.24" y="-19.142" transform="scale(1, -1)"
	style="font-family:Helvetica;font-weight:normal;font-style:normal;font-size:10pt">400</text>
<text x="598.76" y="-19.142" transform="scale(1, -1)"
	style="font-family:Helvetica;font-weight:normal;font-style:normal;font-size:10pt">800</text>
<text x="869.81" y="-19.142" transform="scale(1, -1)"
	style="font-family:Helvetica;font-weight:normal;font-style:normal;font-size:10pt">1200</text>
<path d="M60.137,30.467L60.137,40.467" style="fill:none;stroke:#000000;stroke-width:0.625" />
<path d="M334.66,30.467L334.66,40.467" style="fill:none;stroke:#000000;stroke-width:0.625" />
<path d="M609.19,30.467L609.19,40.467" style="fill:none;stroke:#000000;stroke-width:0.625" />
<path d="M883.71,30.467L883.71,40.467" style="fill:none;stroke:#000000;stroke-width:0.625" />
<path d="M197.4,35.468L197.4,40.467" style="fill:none;stroke:#000000;stroke-width:0.625" />
<path d="M471.93,35.468L471.93,40.467" style="fill:none;stroke:#000000;stroke-width:0.625" />
<path d="M746.45,35.468L746.45,40.467" style="fill:none;stroke:#000000;stroke-width:0.625" />
<path d="M1021,35.468L1021,40.467" style="fill:none;stroke:#000000;stroke-width:0.625" />
<path d="M60.137,40.467L1080,40.467" style="fill:none;stroke:#000000;stroke-width:0.625" />
<g transform="rotate(90)">
<text x="335.88" y="13.59" transform="scale(1, -1)"
	style="font-family:Helvetica;font-weight:normal;font-style:normal;font-size:12pt">Throughput</text>
</g>
<text x="25.505" y="-128.72" transform="scale(1, -1)"
	style="font-family:Helvetica;font-weight:normal;font-style:normal;font-size:10pt">60</text>
<text x="18.555" y="-308.83" transform="scale(1, -1)"
	style="font-family:Helvetica;font-weight:normal;font-style:normal;font-size:10pt">120</text>
<text x="18.555" y="-488.94" transform="scale(1, -1)"
	style="font-family:Helvetica;font-weight:normal;font-style:normal;font-size:10pt">180</text>
<text x="18.555" y="-669.06" transform="scale(1, -1)"
	style="font-family:Helvetica;font-weight:normal;font-style:normal;font-size:10pt">240</text>
<path d="M42.88,134.09L52.88,134.09" style="fill:none;stroke:#000000;stroke-width:0.625" />
<path d="M42.88,314.2L52.88,314.2" style="fill:none;stroke:#000000;stroke-width:0.625" />
<path d="M42.88,494.31L52.88,494.31" style="fill:none;stroke:#000000;stroke-width:0.625" />
<path d="M42.88,674.43L52.88,674.43" style="fill:none;stroke:#000000;stroke-width:0.625" />
<path d="M47.88,74.047L52.88,74.047" style="fill:none;stroke:#000000;stroke-width:0.625" />
<path d="M47.88,194.12L52.88,194.12" style="fill:none;stroke:#000000;stroke-width:0.625" />
<path d="M47.88,254.16L52.88,254.16" style="fill:none;stroke:#000000;stroke-width:0.625" />
<path d="M47.88,374.24L52.88,374.24" style="fill:none;stroke:#000000;stroke-width:0.625" />
<path d="M47.88,434.28L52.88,434.28" style="fill:none;stroke:#000000;stroke-width:0.625" />
<path d="M47.88,554.35L52.88,554.35" style="fill:none;stroke:#000000;stroke-width:0.625" />
<path d="M47.88,614.39L52.88,614.39" style="fill:none;stroke:#000000;stroke-width:0.625" />
<path d="M52.88,47.03L52.88,701.44" style="fill:none;stroke:#000000;stroke-width:0.625" />
<path d="M60.137,47.03L60.824,566.36L61.51,548.35L62.196,548.35L62.883,548.35L63.569,539.34L64.255,575.37L64.942,581.37L65.628,560.36L66.314,563.36L67.001,557.35L67.687,575.37L68.373,566.36L69.06,587.37L69.746,551.35L70.432,542.34L71.119,566.36L71.805,569.36L72.491,587.37L73.177,563.36L73.864,569.36L74.55,560.36L75.236,584.37L75.923,581.37L76.609,587.37L77.295,557.35L77.982,578.37L78.668,569.36L79.354,566.36L80.041,569.36L80.727,563.36L81.413,560.36L82.1,545.35L82.786,545.35L83.472,563.36L84.158,536.34L84.845,581.37L85.531,551.35L86.217,584.37L86.904,554.35L87.59,596.38L88.276,578.37L88.963,572.36L89.649,548.35L90.335,530.34L91.022,542.34L91.708,557.35L92.394,551.35L93.081,563.36L93.767,563.36L94.453,572.36L95.14,572.36L95.826,566.36L96.512,572.36L97.198,569.36L97.885,557.35L98.571,578.37L99.257,551.35L99.944,581.37L100.63,575.37L101.32,557.35L102,551.35L102.69,563.36L103.38,548.35L104.06,584.37L104.75,554.35L105.43,590.37L106.12,551.35L106.81,581.37L107.49,572.36L108.18,587.37L108.87,593.38L109.55,578.37L110.24,569.36L110.92,548.35L111.61,581.37L112.3,584.37L112.98,560.36L113.67,560.36L114.36,581.37L115.04,563.36L115.73,596.38L116.42,554.35L117.1,602.38L117.79,584.37L118.47,569.36L119.16,548.35L119.85,590.37L120.53,545.35L121.22,590.37L121.91,581.37L122.59,524.33L123.28,542.34L123.96,539.34L124.65,560.36L125.34,566.36L126.02,569.36L126.71,563.36L127.4,566.36L128.08,554.35L128.77,572.36L129.46,578.37L130.14,569.36L130.83,539.34L131.51,566.36L132.2,554.35L132.89,584.37L133.57,560.36L134.26,572.36L134.95,554.35L135.63,581.37L136.32,560.36L137,551.35L137.69,542.34L138.38,539.34L139.06,575.37L139.75,560.36L140.44,581.37L141.12,566.36L141.81,572.36L142.5,557.35L143.18,578.37L143.87,590.37L144.55,584.37L145.24,578.37L145.93,575.37L146.61,560.36L147.3,575.37L147.99,560.36L148.67,602.38L149.36,569.36L150.04,569.36L150.73,587.37L151.42,572.36L152.1,569.36L152.79,551.35L153.48,572.36L154.16,578.37L154.85,608.39L155.54,596.38L156.22,554.35L156.91,563.36L157.59,542.34L158.28,581.37L158.97,557.35L159.65,566.36L160.34,536.34L161.03,581.37L161.71,539.34L162.4,581.37L163.08,569.36L163.77,563.36L164.46,569.36L165.14,548.35L165.83,569.36L166.52,536.34L167.2,569.36L167.89,536.34L168.58,608.39L169.26,560.36L169.95,563.36L170.63,554.35L171.32,557.35L172.01,572.36L172.69,539.34L173.38,539.34L174.07,530.34L174.75,530.34L175.44,575.37L176.12,533.34L176.81,530.34L177.5,530.34L178.18,587.37L178.87,566.36L179.56,584.37L180.24,581.37L180.93,569.36L181.62,593.38L182.3,569.36L182.99,575.37L183.67,569.36L184.36,557.35L185.05,572.36L185.73,563.36L186.42,569.36L187.11,560.36L187.79,575.37L188.48,530.34L189.16,566.36L189.85,563.36L190.54,572.36L191.22,554.35L191.91,533.34L192.6,554.35L193.28,584.37L193.97,557.35L194.66,572.36L195.34,575.37L196.03,554.35L196.71,587.37L197.4,575.37L198.09,560.36L198.77,581.37L199.46,542.34L200.15,560.36L200.83,572.36L201.52,566.36L202.2,563.36L202.89,551.35L203.58,578.37L204.26,560.36L204.95,578.37L205.64,551.35L206.32,563.36L207.01,560.36L207.69,560.36L208.38,551.35L209.07,533.34L209.75,542.34L210.44,521.33L211.13,548.35L211.81,560.36L212.5,548.35L213.19,569.36L213.87,563.36L214.56,563.36L215.24,581.37L215.93,578.37L216.62,569.36L217.3,548.35L217.99,590.37L218.68,593.38L219.36,569.36L220.05,563.36L220.73,524.33L221.42,542.34L222.11,533.34L222.79,572.36L223.48,557.35L224.17,548.35L224.85,572.36L225.54,542.34L226.23,542.34L226.91,578.37L227.6,578.37L228.28,581.37L228.97,581.37L229.66,563.36L230.34,578.37L231.03,575.37L231.72,554.35L232.4,557.35L233.09,554.35L233.77,575.37L234.46,551.35L235.15,593.38L235.83,551.35L236.52,584.37L237.21,557.35L237.89,572.36L238.58,572.36L239.27,548.35L239.95,566.36L240.64,578.37L241.32,563.36L242.01,545.35L242.7,563.36L243.38,554.35L244.07,587.37L244.76,557.35L245.44,554.35L246.13,542.34L246.81,536.34L247.5,572.36L248.19,539.34L248.87,560.36L249.56,575.37L250.25,554.35L250.93,542.34L251.62,542.34L252.31,554.35L252.99,560.36L253.68,566.36L254.36,563.36L255.05,545.35L255.74,581.37L256.42,587.37L257.11,581.37L257.8,569.36L258.48,563.36L259.17,557.35L259.85,581.37L260.54,554.35L261.23,554.35L261.91,566.36L262.6,557.35L263.29,584.37L263.97,539.34L264.66,569.36L265.35,551.35L266.03,572.36L266.72,584.37L267.4,566.36L268.09,560.36L268.78,548.35L269.46,557.35L270.15,572.36L270.84,563.36L271.52,584.37L272.21,563.36L272.89,566.36L273.58,545.35L274.27,572.36L274.95,581.37L275.64,581.37L276.33,572.36L277.01,581.37L277.7,566.36L278.39,578.37L279.07,551.35L279.76,554.35L280.44,575.37L281.13,569.36L281.82,569.36L282.5,569.36L283.19,554.35L283.88,569.36L284.56,533.34L285.25,554.35L285.93,539.34L286.62,548.35L287.31,548.35L287.99,539.34L288.68,512.33L289.37,545.35L290.05,572.36L290.74,536.34L291.43,584.37L292.11,551.35L292.8,575.37L293.48,536.34L294.17,578.37L294.86,545.35L295.54,536.34L296.23,551.35L296.92,539.34L297.6,563.36L298.29,569.36L298.97,578.37L299.66,569.36L300.35,557.35L301.03,530.34L301.72,521.33L302.41,527.33L303.09,512.33L303.78,542.34L304.47,545.35L305.15,548.35L305.84,572.36L306.52,545.35L307.21,542.34L307.9,575.37L308.58,575.37L309.27,575.37L309.96,587.37L310.64,590.37L311.33,593.38L312.01,599.38L312.7,581.37L313.39,566.36L314.07,581.37L314.76,551.35L315.45,581.37L316.13,536.34L316.82,578.37L317.51,533.34L318.19,575.37L318.88,554.35L319.56,581.37L320.25,572.36L320.94,563.36L321.62,587.37L322.31,572.36L323,578.37L323.68,569.36L324.37,587.37L325.05,581.37L325.74,590.37L326.43,572.36L327.11,563.36L327.8,575.37L328.49,554.35L329.17,563.36L329.86,530.34L330.55,521.33L331.23,527.33L331.92,542.34L332.6,569.36L333.29,563.36L333.98,572.36L334.66,569.36L335.35,581.37L336.04,581.37L336.72,560.36L337.41,584.37L338.09,575.37L338.78,578.37L339.47,587.37L340.15,557.35L340.84,554.35L341.53,569.36L342.21,554.35L342.9,560.36L343.59,569.36L344.27,581.37L344.96,584.37L345.64,566.36L346.33,563.36L347.02,545.35L347.7,575.37L348.39,566.36L349.08,557.35L349.76,584.37L350.45,542.34L351.13,551.35L351.82,554.35L352.51,563.36L353.19,581.37L353.88,551.35L354.57,581.37L355.25,551.35L355.94,563.36L356.63,563.36L357.31,566.36L358,557.35L358.68,572.36L359.37,557.35L360.06,572.36L360.74,566.36L361.43,560.36L362.12,575.37L362.8,551.35L363.49,548.35L364.17,587.37L364.86,569.36L365.55,590.37L366.23,590.37L366.92,593.38L367.61,557.35L368.29,584.37L368.98,551.35L369.67,554.35L370.35,554.35L371.04,533.34L371.72,527.33L372.41,542.34L373.1,554.35L373.78,536.34L374.47,542.34L375.16,542.34L375.84,560.36L376.53,557.35L377.21,530.34L377.9,560.36L378.59,548.35L379.27,587.37L379.96,578.37L380.65,560.36L381.33,572.36L382.02,578.37L382.71,584.37L383.39,578.37L384.08,569.36L384.76,572.36L385.45,593.38L386.14,530.34L386.82,560.36L387.51,554.35L388.2,569.36L388.88,566.36L389.57,560.36L390.25,569.36L390.94,545.35L391.63,578.37L392.31,557.35L393,587.37L393.69,575.37L394.37,587.37L395.06,563.36L395.75,560.36L396.43,608.39L397.12,587.37L397.8,578.37L398.49,560.36L399.18,581.37L399.86,584.37L400.55,548.35L401.24,593.38L401.92,587.37L402.61,578.37L403.29,533.34L403.98,527.33L404.67,542.34L405.35,569.36L406.04,584.37L406.73,584.37L407.41,569.36L408.1,539.34L408.78,581.37L409.47,560.36L410.16,584.37L410.84,581.37L411.53,548.35L412.22,545.35L412.9,554.35L413.59,554.35L414.28,536.34L414.96,581.37L415.65,539.34L416.33,572.36L417.02,569.36L417.71,566.36L418.39,560.36L419.08,569.36L419.77,551.35L420.45,584.37L421.14,539.34L421.82,578.37L422.51,557.35L423.2,584.37L423.88,539.34L424.57,587.37L425.26,557.35L425.94,578.37L426.63,536.34L427.32,518.33L428,557.35L428.69,557.35L429.37,536.34L430.06,560.36L430.75,539.34L431.43,581.37L432.12,551.35L432.81,581.37L433.49,566.36L434.18,563.36L434.86,545.35L435.55,575.37L436.24,578.37L436.92,533.34L437.61,560.36L438.3,569.36L438.98,581.37L439.67,566.36L440.36,566.36L441.04,560.36L441.73,551.35L442.41,590.37L443.1,566.36L443.79,569.36L444.47,578.37L445.16,557.35L445.85,575.37L446.53,569.36L447.22,578.37L447.9,563.36L448.59,560.36L449.28,584.37L449.96,560.36L450.65,569.36L451.34,578.37L452.02,560.36L452.71,542.34L453.4,542.34L454.08,581.37L454.77,563.36L455.45,548.35L456.14,557.35L456.83,539.34L457.51,566.36L458.2,551.35L458.89,578.37L459.57,563.36L460.26,557.35L460.94,575.37L461.63,545.35L462.32,566.36L463,581.37L463.69,560.36L464.38,569.36L465.06,569.36L465.75,572.36L466.44,542.34L467.12,545.35L467.81,569.36L468.49,563.36L469.18,557.35L469.87,563.36L470.55,572.36L471.24,554.35L471.93,557.35L472.61,545.35L473.3,566.36L473.98,536.34L474.67,545.35L475.36,548.35L476.04,563.36L476.73,560.36L477.42,563.36L478.1,566.36L478.79,578.37L479.48,569.36L480.16,557.35L480.85,557.35L481.53,587.37L482.22,581.37L482.91,608.39L483.59,569.36L484.28,563.36L484.97,614.39L485.65,554.35L486.34,566.36L487.02,560.36L487.71,566.36L488.4,569.36L489.08,554.35L489.77,557.35L490.46,566.36L491.14,545.35L491.83,578.37L492.52,578.37L493.2,587.37L493.89,566.36L494.57,569.36L495.26,560.36L495.95,536.34L496.63,557.35L497.32,557.35L498.01,566.36L498.69,560.36L499.38,575.37L500.06,554.35L500.75,584.37L501.44,578.37L502.12,545.35L502.81,536.34L503.5,566.36L504.18,566.36L504.87,587.37L505.56,605.38L506.24,596.38L506.93,569.36L507.61,554.35L508.3,557.35L508.99,578.37L509.67,566.36L510.36,575.37L511.05,566.36L511.73,557.35L512.42,581.37L513.1,581.37L513.79,551.35L514.48,578.37L515.16,584.37L515.85,566.36L516.54,578.37L517.22,572.36L517.91,572.36L518.6,563.36L519.28,557.35L519.97,557.35L520.65,560.36L521.34,590.37L522.03,572.36L522.71,554.35L523.4,590.37L524.09,578.37L524.77,578.37L525.46,569.36L526.14,542.34L526.83,539.34L527.52,560.36L528.2,551.35L528.89,548.35L529.58,575.37L530.26,566.36L530.95,590.37L531.64,560.36L532.32,557.35L533.01,551.35L533.69,569.36L534.38,545.35L535.07,533.34L535.75,548.35L536.44,527.33L537.13,569.36L537.81,554.35L538.5,521.33L539.18,551.35L539.87,554.35L540.56,545.35L541.24,557.35L541.93,578.37L542.62,572.36L543.3,578.37L543.99,563.36L544.68,599.38L545.36,563.36L546.05,578.37L546.73,566.36L547.42,590.37L548.11,578.37L548.79,542.34L549.48,575.37L550.17,554.35L550.85,581.37L551.54,572.36L552.22,545.35L552.91,581.37L553.6,575.37L554.28,575.37L554.97,527.33L555.66,572.36L556.34,551.35L557.03,560.36L557.72,593.38L558.4,560.36L559.09,566.36L559.77,560.36L560.46,560.36L561.15,521.33L561.83,527.33L562.52,542.34L563.21,563.36L563.89,566.36L564.58,548.35L565.26,542.34L565.95,557.35L566.64,569.36L567.32,575.37L568.01,563.36L568.7,548.35L569.38,566.36L570.07,581.37L570.76,569.36L571.44,548.35L572.13,590.37L572.81,563.36L573.5,542.34L574.19,575.37L574.87,569.36L575.56,575.37L576.25,533.34L576.93,566.36L577.62,542.34L578.3,584.37L578.99,560.36L579.68,569.36L580.36,527.33L581.05,548.35L581.74,545.35L582.42,575.37L583.11,581.37L583.8,590.37L584.48,572.36L585.17,596.38L585.85,608.39L586.54,560.36L587.23,572.36L587.91,536.34L588.6,572.36L589.29,590.37L589.97,569.36L590.66,542.34L591.34,563.36L592.03,557.35L592.72,542.34L593.4,584.37L594.09,539.34L594.78,554.35L595.46,557.35L596.15,557.35L596.83,557.35L597.52,551.35L598.21,587.37L598.89,557.35L599.58,560.36L600.27,575.37L600.95,539.34L601.64,581.37L602.33,575.37L603.01,581.37L603.7,587.37L604.38,566.36L605.07,590.37L605.76,593.38L606.44,593.38L607.13,575.37L607.82,596.38L608.5,578.37L609.19,611.39L609.87,557.35L610.56,584.37L611.25,557.35L611.93,575.37L612.62,551.35L613.31,566.36L613.99,572.36L614.68,581.37L615.37,578.37L616.05,593.38L616.74,575.37L617.42,557.35L618.11,563.36L618.8,548.35L619.48,536.34L620.17,533.34L620.86,554.35L621.54,521.33L622.23,551.35L622.91,545.35L623.6,554.35L624.29,572.36L624.97,542.34L625.66,560.36L626.35,572.36L627.03,554.35L627.72,587.37L628.41,566.36L629.09,563.36L629.78,590.37L630.46,572.36L631.15,566.36L631.84,575.37L632.52,551.35L633.21,548.35L633.9,533.34L634.58,569.36L635.27,560.36L635.95,581.37L636.64,548.35L637.33,560.36L638.01,533.34L638.7,575.37L639.39,560.36L640.07,563.36L640.76,536.34L641.45,584.37L642.13,581.37L642.82,563.36L643.5,584.37L644.19,563.36L644.88,572.36L645.56,578.37L646.25,578.37L646.94,551.35L647.62,521.33L648.31,569.36L648.99,530.34L649.68,560.36L650.37,530.34L651.05,557.35L651.74,551.35L652.43,536.34L653.11,575.37L653.8,554.35L654.49,551.35L655.17,551.35L655.86,572.36L656.54,569.36L657.23,578.37L657.92,545.35L658.6,533.34L659.29,560.36L659.98,557.35L660.66,569.36L661.35,554.35L662.03,536.34L662.72,554.35L663.41,551.35L664.09,536.34L664.78,572.36L665.47,569.36L666.15,557.35L666.84,572.36L667.53,548.35L668.21,572.36L668.9,575.37L669.58,581.37L670.27,593.38L670.96,560.36L671.64,551.35L672.33,569.36L673.02,569.36L673.7,581.37L674.39,539.34L675.07,575.37L675.76,566.36L676.45,560.36L677.13,557.35L677.82,584.37L678.51,563.36L679.19,581.37L679.88,563.36L680.57,584.37L681.25,584.37L681.94,584.37L682.62,569.36L683.31,560.36L684,578.37L684.68,587.37L685.37,557.35L686.06,590.37L686.74,572.36L687.43,575.37L688.11,587.37L688.8,587.37L689.49,587.37L690.17,563.36L690.86,590.37L691.55,596.38L692.23,578.37L692.92,548.35L693.61,548.35L694.29,569.36L694.98,584.37L695.66,560.36L696.35,563.36L697.04,545.35L697.72,542.34L698.41,563.36L699.1,542.34L699.78,554.35L700.47,539.34L701.15,548.35L701.84,530.34L702.53,539.34L703.21,554.35L703.9,563.36L704.59,515.33L705.27,563.36L705.96,548.35L706.65,593.38L707.33,563.36L708.02,572.36L708.7,557.35L709.39,554.35L710.08,560.36L710.76,563.36L711.45,539.34L712.14,539.34L712.82,542.34L713.51,575.37L714.19,575.37L714.88,563.36L715.57,563.36L716.25,578.37L716.94,563.36L717.63,557.35L718.31,551.35L719,509.32L719.69,542.34L720.37,509.32L721.06,560.36L721.74,572.36L722.43,545.35L723.12,566.36L723.8,563.36L724.49,578.37L725.18,581.37L725.86,587.37L726.55,602.38L727.23,569.36L727.92,584.37L728.61,542.34L729.29,578.37L729.98,542.34L730.67,587.37L731.35,578.37L732.04,554.35L732.73,563.36L733.41,563.36L734.1,560.36L734.78,557.35L735.47,575.37L736.16,584.37L736.84,569.36L737.53,557.35L738.22,551.35L738.9,563.36L739.59,578.37L740.27,581.37L740.96,536.34L741.65,551.35L742.33,533.34L743.02,545.35L743.71,539.34L744.39,557.35L745.08,557.35L745.77,563.36L746.45,581.37L747.14,578.37L747.82,581.37L748.51,554.35L749.2,554.35L749.88,548.35L750.57,539.34L751.26,545.35L751.94,560.36L752.63,566.36L753.31,554.35L754,545.35L754.69,584.37L755.37,569.36L756.06,578.37L756.75,590.37L757.43,554.35L758.12,569.36L758.81,584.37L759.49,572.36L760.18,560.36L760.86,551.35L761.55,566.36L762.24,563.36L762.92,563.36L763.61,554.35L764.3,569.36L764.98,548.35L765.67,557.35L766.35,569.36L767.04,602.38L767.73,572.36L768.41,557.35L769.1,536.34L769.79,572.36L770.47,566.36L771.16,557.35L771.85,533.34L772.53,563.36L773.22,548.35L773.9,563.36L774.59,548.35L775.28,557.35L775.96,563.36L776.65,557.35L777.34,557.35L778.02,569.36L778.71,578.37L779.39,557.35L780.08,566.36L780.77,533.34L781.45,560.36L782.14,548.35L782.83,563.36L783.51,548.35L784.2,515.33L784.89,539.34L785.57,536.34L786.26,548.35L786.94,566.36L787.63,554.35L788.32,554.35L789,533.34L789.69,527.33L790.38,548.35L791.06,521.33L791.75,563.36L792.43,566.36L793.12,521.33L793.81,512.33L794.49,530.34L795.18,530.34L795.87,503.32L796.55,497.32L797.24,476.3L797.92,497.32L798.61,527.33L799.3,518.33L799.98,530.34L800.67,569.36L801.36,503.32L802.04,503.32L802.73,503.32L803.42,509.32L804.1,506.32L804.79,515.33L805.47,521.33L806.16,506.32L806.85,509.32L807.53,557.35L808.22,557.35L808.91,563.36L809.59,572.36L810.28,551.35L810.96,566.36L811.65,551.35L812.34,554.35L813.02,572.36L813.71,569.36L814.4,530.34L815.08,581.37L815.77,563.36L816.46,542.34L817.14,548.35L817.83,548.35L818.51,554.35L819.2,530.34L819.89,548.35L820.57,518.33L821.26,536.34L821.95,548.35L822.63,512.33L823.32,566.36L824,542.34L824.69,542.34L825.38,536.34L826.06,536.34L826.75,545.35L827.44,518.33L828.12,545.35L828.81,569.36L829.5,557.35L830.18,563.36L830.87,548.35L831.55,563.36L832.24,575.37L832.93,521.33L833.61,518.33L834.3,575.37L834.99,548.35L835.67,554.35L836.36,542.34L837.04,539.34L837.73,554.35L838.42,566.36L839.1,542.34L839.79,542.34L840.48,524.33L841.16,563.36L841.85,551.35L842.54,566.36L843.22,560.36L843.91,551.35L844.59,566.36L845.28,560.36L845.97,566.36L846.65,569.36L847.34,545.35L848.03,548.35L848.71,548.35L849.4,593.38L850.08,563.36L850.77,560.36L851.46,536.34L852.14,587.37L852.83,566.36L853.52,578.37L854.2,569.36L854.89,578.37L855.58,554.35L856.26,521.33L856.95,566.36L857.63,563.36L858.32,584.37L859.01,572.36L859.69,536.34L860.38,548.35L861.07,557.35L861.75,560.36L862.44,512.33L863.12,548.35L863.81,560.36L864.5,545.35L865.18,518.33L865.87,572.36L866.56,563.36L867.24,563.36L867.93,548.35L868.62,545.35L869.3,557.35L869.99,578.37L870.67,560.36L871.36,560.36L872.05,533.34L872.73,566.36L873.42,536.34L874.11,524.33L874.79,557.35L875.48,530.34L876.16,569.36L876.85,572.36L877.54,548.35L878.22,557.35L878.91,527.33L879.6,557.35L880.28,545.35L880.97,563.36L881.66,527.33L882.34,551.35L883.03,533.34L883.71,563.36L884.4,566.36L885.09,560.36L885.77,587.37L886.46,566.36L887.15,569.36L887.83,545.35L888.52,572.36L889.2,578.37L889.89,584.37L890.58,563.36L891.26,554.35L891.95,563.36L892.64,542.34L893.32,572.36L894.01,569.36L894.7,572.36L895.38,563.36L896.07,572.36L896.75,551.35L897.44,569.36L898.13,575.37L898.81,584.37L899.5,587.37L900.19,566.36L900.87,554.35L901.56,563.36L902.24,551.35L902.93,557.35L903.62,581.37L904.3,572.36L904.99,548.35L905.68,569.36L906.36,545.35L907.05,551.35L907.74,545.35L908.42,539.34L909.11,539.34L909.79,521.33L910.48,536.34L911.17,548.35L911.85,539.34L912.54,569.36L913.23,539.34L913.91,527.33L914.6,560.36L915.28,569.36L915.97,557.35L916.66,578.37L917.34,545.35L918.03,548.35L918.72,545.35L919.4,548.35L920.09,551.35L920.78,578.37L921.46,569.36L922.15,515.33L922.83,548.35L923.52,572.36L924.21,575.37L924.89,563.36L925.58,542.34L926.27,524.33L926.95,521.33L927.64,581.37L928.32,548.35L929.01,551.35L929.7,563.36L930.38,563.36L931.07,569.36L931.76,554.35L932.44,545.35L933.13,581.37L933.82,548.35L934.5,557.35L935.19,545.35L935.87,539.34L936.56,551.35L937.25,515.33L937.93,539.34L938.62,545.35L939.31,542.34L939.99,566.36L940.68,527.33L941.36,533.34L942.05,533.34L942.74,539.34L943.42,545.35L944.11,551.35L944.8,572.36L945.48,530.34L946.17,530.34L946.86,518.33L947.54,518.33L948.23,527.33L948.91,515.33L949.6,527.33L950.29,545.35L950.97,515.33L951.66,524.33L952.35,542.34L953.03,524.33L953.72,539.34L954.4,551.35L955.09,548.35L955.78,554.35L956.46,539.34L957.15,566.36L957.84,581.37L958.52,566.36L959.21,548.35L959.9,548.35L960.58,521.33L961.27,518.33L961.95,539.34L962.64,545.35L963.33,512.33L964.01,551.35L964.7,530.34L965.39,554.35L966.07,509.32L966.76,521.33L967.44,560.36L968.13,533.34L968.82,560.36L969.5,569.36L970.19,542.34L970.88,557.35L971.56,542.34L972.25,572.36L972.94,584.37L973.62,620.39L974.31,563.36L974.99,557.35L975.68,563.36L976.37,530.34L977.05,563.36L977.74,533.34L978.43,560.36L979.11,557.35L979.8,548.35L980.48,575.37L981.17,542.34L981.86,572.36L982.54,560.36L983.23,569.36L983.92,569.36L984.6,572.36L985.29,530.34L985.97,542.34L986.66,557.35L987.35,557.35L988.03,536.34L988.72,530.34L989.41,518.33L990.09,530.34L990.78,530.34L991.47,506.32L992.15,527.33L992.84,509.32L993.52,515.33L994.21,533.34L994.9,548.35L995.58,497.32L996.27,500.32L996.96,545.35L997.64,539.34L998.33,563.36L999.01,572.36L999.7,572.36L1000.4,584.37L1001.1,572.36L1001.8,575.37L1002.4,563.36L1003.1,578.37L1003.8,569.36L1004.5,533.34L1005.2,548.35L1005.9,512.33L1006.6,563.36L1007.3,569.36L1007.9,578.37L1008.6,536.34L1009.3,560.36L1010,530.34L1010.7,551.35L1011.4,560.36L1012.1,566.36L1012.7,557.35L1013.4,578.37L1014.1,572.36L1014.8,566.36L1015.5,557.35L1016.2,563.36L1016.9,554.35L1017.5,560.36L1018.2,590.37L1018.9,542.34L1019.6,572.36L1020.3,593.38L1021,572.36L1021.7,551.35L1022.3,566.36L1023,557.35L1023.7,566.36L1024.4,548.35L1025.1,542.34L1025.8,572.36L1026.5,536.34L1027.2,563.36L1027.8,560.36L1028.5,548.35L1029.2,545.35L1029.9,539.34L1030.6,560.36L1031.3,551.35L1032,566.36L1032.6,545.35L1033.3,545.35L1034,527.33L1034.7,539.34L1035.4,512.33L1036.1,533.34L1036.8,539.34L1037.4,563.36L1038.1,584.37L1038.8,551.35L1039.5,545.35L1040.2,542.34L1040.9,533.34L1041.6,542.34L1042.3,524.33L1042.9,518.33L1043.6,542.34L1044.3,527.33L1045,554.35L1045.7,506.32L1046.4,560.36L1047.1,575.37L1047.7,590.37L1048.4,557.35L1049.1,557.35L1049.8,566.36L1050.5,569.36L1051.2,569.36L1051.9,584.37L1052.5,581.37L1053.2,557.35L1053.9,560.36L1054.6,572.36L1055.3,530.34L1056,572.36L1056.7,554.35L1057.4,575.37L1058,557.35L1058.7,581.37L1059.4,563.36L1060.1,569.36L1060.8,563.36L1061.5,551.35L1062.2,581.37L1062.8,566.36L1063.5,575.37L1064.2,572.36L1064.9,548.35L1065.6,572.36L1066.3,572.36L1067,584.37L1067.6,560.36L1068.3,578.37L1069,578.37L1069.7,539.34L1070.4,539.34L1071.1,530.34L1071.8,539.34L1072.5,542.34L1073.1,539.34L1073.8,545.35L1074.5,533.34L1075.2,563.36L1075.9,509.32L1076.6,554.35L1077.3,530.34L1077.9,545.35L1078.6,563.36L1079.3,569.36L1080,566.36" style="fill:none;stroke:#F15A60;stroke-width:1.875" />
<path d="M60.137,59.038L60.824,575.37L61.51,608.39L62.196,608.39L62.883,623.4L63.569,611.39L64.255,617.39L64.942,620.39L65.628,638.41L66.314,650.41L67.001,641.41L67.687,638.41L68.373,629.4L69.06,653.41L69.746,650.41L70.432,644.41L71.119,650.41L71.805,629.4L72.491,623.4L73.177,650.41L73.864,641.41L74.55,635.4L75.236,656.42L75.923,629.4L76.609,644.41L77.295,620.39L77.982,614.39L78.668,626.4L79.354,632.4L80.041,638.41L80.727,650.41L81.413,650.41L82.1,635.4L82.786,641.41L83.472,632.4L84.158,638.41L84.845,626.4L85.531,632.4L86.217,626.4L86.904,647.41L87.59,635.4L88.276,626.4L88.963,620.39L89.649,617.39L90.335,632.4L91.022,626.4L91.708,632.4L92.394,614.39L93.081,638.41L93.767,617.39L94.453,641.41L95.14,623.4L95.826,635.4L96.512,641.41L97.198,638.41L97.885,638.41L98.571,653.41L99.257,644.41L99.944,641.41L100.63,653.41L101.32,650.41L102,650.41L102.69,650.41L103.38,638.41L104.06,656.42L104.75,653.41L105.43,641.41L106.12,641.41L106.81,611.39L107.49,632.4L108.18,635.4L108.87,647.41L109.55,650.41L110.24,650.41L110.92,656.42L111.61,641.41L112.3,641.41L112.98,653.41L113.67,632.4L114.36,665.42L115.04,653.41L115.73,647.41L116.42,653.41L117.1,674.43L117.79,701.44L118.47,653.41L119.16,647.41L119.85,623.4L120.53,635.4L121.22,656.42L121.91,641.41L122.59,647.41L123.28,620.39L123.96,641.41L124.65,632.4L125.34,662.42L126.02,638.41L126.71,641.41L127.4,659.42L128.08,659.42L128.77,650.41L129.46,641.41L130.14,617.39L130.83,629.4L131.51,632.4L132.2,647.41L132.89,638.41L133.57,614.39L134.26,638.41L134.95,629.4L135.63,635.4L136.32,626.4L137,641.41L137.69,638.41L138.38,635.4L139.06,635.4L139.75,623.4L140.44,611.39L141.12,620.39L141.81,611.39L142.5,650.41L143.18,638.41L143.87,614.39L144.55,623.4L145.24,644.41L145.93,608.39L146.61,626.4L147.3,620.39L147.99,620.39L148.67,647.41L149.36,638.41L150.04,659.42L150.73,671.43L151.42,647.41L152.1,653.41L152.79,641.41L153.48,662.42L154.16,659.42L154.85,659.42L155.54,650.41L156.22,629.4L156.91,650.41L157.59,650.41L158.28,650.41L158.97,644.41L159.65,653.41L160.34,644.41L161.03,650.41L161.71,659.42L162.4,659.42L163.08,656.42L163.77,665.42L164.46,650.41L165.14,623.4L165.83,629.4L166.52,620.39L167.2,626.4L167.89,635.4L168.58,644.41L169.26,644.41L169.95,632.4L170.63,629.4L171.32,662.42L172.01,671.43L172.69,620.39L173.38,623.4L174.07,629.4L174.75,614.39L175.44,629.4L176.12,623.4L176.81,626.4L177.5,608.39L178.18,623.4L178.87,644.41L179.56,647.41L180.24,641.41L180.93,638.41L181.62,620.39L182.3,623.4L182.99,647.41L183.67,650.41L184.36,653.41L185.05,656.42L185.73,635.4L186.42,650.41L187.11,635.4L187.79,650.41L188.48,647.41L189.16,647.41L189.85,635.4L190.54,653.41L191.22,656.42L191.91,689.44L192.6,665.42L193.28,662.42L193.97,650.41L194.66,620.39L195.34,653.41L196.03,638.41L196.71,629.4L197.4,647.41L198.09,632.4L198.77,641.41L199.46,650.41L200.15,638.41L200.83,641.41L201.52,641.41L202.2,644.41L202.89,617.39L203.58,620.39L204.26,629.4L204.95,647.41L205.64,632.4L206.32,632.4L207.01,632.4L207.69,611.39L208.38,614.39L209.07,632.4L209.75,608.39L210.44,623.4L211.13,629.4L211.81,617.39L212.5,638.41L213.19,629.4L213.87,635.4L214.56,638.41L215.24,629.4L215.93,620.39L216.62,644.41L217.3,650.41L217.99,659.42L218.68,653.41L219.36,659.42L220.05,665.42L220.73,647.41L221.42,632.4L222.11,644.41L222.79,650.41L223.48,641.41L224.17,641.41L224.85,647.41L225.54,644.41L226.23,668.42L226.91,656.42L227.6,656.42L228.28,677.43L228.97,653.41L229.66,668.42L230.34,656.42L231.03,629.4L231.72,656.42L232.4,647.41L233.09,650.41L233.77,674.43L234.46,665.42L235.15,647.41L235.83,629.4L236.52,653.41L237.21,659.42L237.89,662.42L238.58,653.41L239.27,653.41L239.95,638.41L240.64,620.39L241.32,668.42L242.01,638.41L242.7,641.41L243.38,641.41L244.07,644.41L244.76,650.41L245.44,647.41L246.13,653.41L246.81,641.41L247.5,632.4L248.19,644.41L248.87,629.4L249.56,617.39L250.25,635.4L250.93,638.41L251.62,644.41L252.31,635.4L252.99,614.39L253.68,641.41L254.36,623.4L255.05,629.4L255.74,638.41L256.42,620.39L257.11,608.39L257.8,641.41L258.48,638.41L259.17,638.41L259.85,653.41L260.54,632.4L261.23,653.41L261.91,620.39L262.6,626.4L263.29,638.41L263.97,626.4L264.66,638.41L265.35,638.41L266.03,635.4L266.72,653.41L267.4,650.41L268.09,641.41L268.78,656.42L269.46,629.4L270.15,647.41L270.84,650.41L271.52,635.4L272.21,698.44L272.89,680.43L273.58,680.43L274.27,674.43L274.95,689.44L275.64,677.43L276.33,677.43L277.01,677.43L277.7,653.41L278.39,653.41L279.07,659.42L279.76,665.42L280.44,656.42L281.13,662.42L281.82,653.41L282.5,656.42L283.19,659.42L283.88,662.42L284.56,662.42L285.25,659.42L285.93,644.41L286.62,647.41L287.31,653.41L287.99,653.41L288.68,635.4L289.37,641.41L290.05,635.4L290.74,647.41L291.43,656.42L292.11,650.41L292.8,644.41L293.48,638.41L294.17,635.4L294.86,650.41L295.54,665.42L296.23,644.41L296.92,650.41L297.6,644.41L298.29,680.43L298.97,638.41L299.66,656.42L300.35,632.4L301.03,641.41L301.72,620.39L302.41,692.44L303.09,668.42L303.78,662.42L304.47,632.4L305.15,635.4L305.84,656.42L306.52,677.43L307.21,668.42L307.9,674.43L308.58,668.42L309.27,656.42L309.96,659.42L310.64,647.41L311.33,641.41L312.01,644.41L312.7,650.41L313.39,662.42L314.07,647.41L314.76,641.41L315.45,680.43L316.13,674.43L316.82,668.42L317.51,659.42L318.19,668.42L318.88,650.41L319.56,683.43L320.25,674.43L320.94,668.42L321.62,668.42L322.31,692.44L323,674.43L323.68,674.43L324.37,698.44L325.05,677.43L325.74,677.43L326.43,680.43L327.11,677.43L327.8,680.43L328.49,674.43L329.17,665.42L329.86,668.42L330.55,659.42L331.23,665.42L331.92,680.43L332.6,662.42L333.29,671.43L333.98,641.41L334.66,650.41L335.35,656.42L336.04,674.43L336.72,680.43L337.41,686.44L338.09,635.4L338.78,644.41L339.47,641.41L340.15,653.41L340.84,638.41L341.53,632.4L342.21,626.4L342.9,644.41L343.59,638.41L344.27,629.4L344.96,623.4L345.64,635.4L346.33,662.42L347.02,641.41L347.7,659.42L348.39,641.41L349.08,656.42L349.76,641.41L350.45,632.4L351.13,680.43L351.82,647.41L352.51,650.41L353.19,638.41L353.88,653.41L354.57,632.4L355.25,659.42L355.94,650.41L356.63,605.38L357.31,653.41L358,632.4L358.68,653.41L359.37,635.4L360.06,620.39L360.74,692.44L361.43,647.41L362.12,635.4L362.8,635.4L363.49,680.43L364.17,668.42L364.86,656.42L365.55,662.42L366.23,659.42L366.92,671.43L367.61,629.4L368.29,656.42L368.98,638.41L369.67,635.4L370.35,644.41L371.04,662.42L371.72,668.42L372.41,659.42L373.1,638.41L373.78,650.41L374.47,653.41L375.16,641.41L375.84,620.39L376.53,638.41L377.21,662.42L377.9,632.4L378.59,656.42L379.27,677.43L379.96,650.41L380.65,659.42L381.33,671.43L382.02,665.42L382.71,671.43L383.39,656.42L384.08,686.44L384.76,668.42L385.45,653.41L386.14,665.42L386.82,659.42L387.51,653.41L388.2,647.41L388.88,635.4L389.57,662.42L390.25,653.41L390.94,662.42L391.63,644.41L392.31,632.4L393,659.42L393.69,665.42L394.37,668.42L395.06,659.42L395.75,638.41L396.43,647.41L397.12,668.42L397.8,650.41L398.49,656.42L399.18,686.44L399.86,677.43L400.55,662.42L401.24,644.41L401.92,653.41L402.61,644.41L403.29,650.41L403.98,629.4L404.67,635.4L405.35,629.4L406.04,620.39L406.73,629.4L407.41,617.39L408.1,635.4L408.78,632.4L409.47,623.4L410.16,626.4L410.84,638.41L411.53,635.4L412.22,638.41L412.9,611.39L413.59,638.41L414.28,623.4L414.96,641.41L415.65,638.41L416.33,611.39L417.02,617.39L417.71,614.39L418.39,584.37L419.08,611.39L419.77,599.38L420.45,587.37L421.14,608.39L421.82,617.39L422.51,626.4L423.2,602.38L423.88,605.38L424.57,599.38L425.26,581.37L425.94,590.37L426.63,602.38L427.32,602.38L428,602.38L428.69,599.38L429.37,593.38L430.06,620.39L430.75,635.4L431.43,638.41L432.12,629.4L432.81,632.4L433.49,626.4L434.18,617.39L434.86,632.4L435.55,632.4L436.24,611.39L436.92,629.4L437.61,623.4L438.3,647.41L438.98,638.41L439.67,626.4L440.36,602.38L441.04,614.39L441.73,611.39L442.41,602.38L443.1,641.41L443.79,620.39L444.47,650.41L445.16,638.41L445.85,629.4L446.53,608.39L447.22,605.38L447.9,602.38L448.59,605.38L449.28,602.38L449.96,596.38L450.65,593.38L451.34,620.39L452.02,614.39L452.71,590.37L453.4,587.37L454.08,599.38L454.77,596.38L455.45,608.39L456.14,617.39L456.83,617.39L457.51,599.38L458.2,602.38L458.89,608.39L459.57,611.39L460.26,632.4L460.94,605.38L461.63,593.38L462.32,617.39L463,599.38L463.69,572.36L464.38,584.37L465.06,593.38L465.75,599.38L466.44,602.38L467.12,605.38L467.81,611.39L468.49,602.38L469.18,614.39L469.87,599.38L470.55,578.37L471.24,596.38L471.93,605.38L472.61,608.39L473.3,617.39L473.98,620.39L474.67,611.39L475.36,614.39L476.04,605.38L476.73,614.39L477.42,614.39L478.1,629.4L478.79,617.39L479.48,644.41L480.16,617.39L480.85,623.4L481.53,656.42L482.22,629.4L482.91,653.41L483.59,650.41L484.28,611.39L484.97,620.39L485.65,608.39L486.34,608.39L487.02,662.42L487.71,674.43L488.4,662.42L489.08,674.43L489.77,671.43L490.46,668.42L491.14,662.42L491.83,665.42L492.52,638.41L493.2,641.41L493.89,626.4L494.57,635.4L495.26,632.4L495.95,632.4L496.63,614.39L497.32,620.39L498.01,629.4L498.69,629.4L499.38,629.4L500.06,641.41L500.75,662.42L501.44,656.42L502.12,653.41L502.81,650.41L503.5,620.39L504.18,617.39L504.87,644.41L505.56,644.41L506.24,641.41L506.93,641.41L507.61,641.41L508.3,623.4L508.99,608.39L509.67,599.38L510.36,593.38L511.05,617.39L511.73,605.38L512.42,608.39L513.1,608.39L513.79,641.41L514.48,626.4L515.16,623.4L515.85,632.4L516.54,620.39L517.22,608.39L517.91,623.4L518.6,593.38L519.28,590.37L519.97,596.38L520.65,605.38L521.34,614.39L522.03,638.41L522.71,626.4L523.4,611.39L524.09,608.39L524.77,614.39L525.46,599.38L526.14,596.38L526.83,617.39L527.52,587.37L528.2,593.38L528.89,605.38L529.58,596.38L530.26,596.38L530.95,608.39L531.64,596.38L532.32,593.38L533.01,614.39L533.69,602.38L534.38,605.38L535.07,566.36L535.75,590.37L536.44,569.36L537.13,593.38L537.81,578.37L538.5,578.37L539.18,575.37L539.87,596.38L540.56,623.4L541.24,605.38L541.93,608.39L542.62,638.41L543.3,617.39L543.99,638.41L544.68,635.4L545.36,623.4L546.05,620.39L546.73,611.39L547.42,593.38L548.11,593.38L548.79,608.39L549.48,632.4L550.17,629.4L550.85,626.4L551.54,638.41L552.22,623.4L552.91,620.39L553.6,638.41L554.28,623.4L554.97,638.41L555.66,626.4L556.34,647.41L557.03,644.41L557.72,644.41L558.4,641.41L559.09,617.39L559.77,629.4L560.46,644.41L561.15,662.42L561.83,641.41L562.52,644.41L563.21,623.4L563.89,611.39L564.58,602.38L565.26,614.39L565.95,602.38L566.64,626.4L567.32,638.41L568.01,617.39L568.7,629.4L569.38,638.41L570.07,632.4L570.76,593.38L571.44,605.38L572.13,620.39L572.81,635.4L573.5,620.39L574.19,620.39L574.87,638.41L575.56,638.41L576.25,605.38L576.93,608.39L577.62,644.41L578.3,632.4L578.99,644.41L579.68,629.4L580.36,650.41L581.05,623.4L581.74,629.4L582.42,605.38L583.11,611.39L583.8,626.4L584.48,617.39L585.17,614.39L585.85,617.39L586.54,617.39L587.23,629.4L587.91,647.41L588.6,635.4L589.29,635.4L589.97,632.4L590.66,641.41L591.34,629.4L592.03,638.41L592.72,632.4L593.4,617.39L594.09,617.39L594.78,623.4L595.46,605.38L596.15,602.38L596.83,617.39L597.52,608.39L598.21,608.39L598.89,590.37L599.58,593.38L600.27,599.38L600.95,593.38L601.64,599.38L602.33,602.38L603.01,620.39L603.7,608.39L604.38,599.38L605.07,587.37L605.76,584.37L606.44,593.38L607.13,599.38L607.82,611.39L608.5,620.39L609.19,620.39L609.87,623.4L610.56,620.39L611.25,635.4L611.93,599.38L612.62,599.38L613.31,602.38L613.99,587.37L614.68,608.39L615.37,614.39L616.05,629.4L616.74,626.4L617.42,590.37L618.11,608.39L618.8,605.38L619.48,611.39L620.17,614.39L620.86,617.39L621.54,608.39L622.23,587.37L622.91,590.37L623.6,593.38L624.29,620.39L624.97,623.4L625.66,611.39L626.35,602.38L627.03,617.39L627.72,608.39L628.41,581.37L629.09,602.38L629.78,605.38L630.46,611.39L631.15,605.38L631.84,578.37L632.52,578.37L633.21,596.38L633.9,590.37L634.58,599.38L635.27,590.37L635.95,605.38L636.64,593.38L637.33,599.38L638.01,620.39L638.7,593.38L639.39,602.38L640.07,608.39L640.76,608.39L641.45,581.37L642.13,578.37L642.82,596.38L643.5,605.38L644.19,581.37L644.88,599.38L645.56,596.38L646.25,629.4L646.94,614.39L647.62,617.39L648.31,617.39L648.99,635.4L649.68,620.39L650.37,608.39L651.05,608.39L651.74,617.39L652.43,602.38L653.11,602.38L653.8,596.38L654.49,599.38L655.17,611.39L655.86,608.39L656.54,581.37L657.23,605.38L657.92,599.38L658.6,584.37L659.29,590.37L659.98,581.37L660.66,608.39L661.35,584.37L662.03,605.38L662.72,575.37L663.41,590.37L664.09,599.38L664.78,611.39L665.47,629.4L666.15,548.35L666.84,446.28L667.53,578.37L668.21,590.37L668.9,593.38L669.58,443.28L670.27,575.37L670.96,584.37L671.64,602.38L672.33,617.39L673.02,632.4L673.7,614.39L674.39,566.36L675.07,590.37L675.76,608.39L676.45,605.38L677.13,596.38L677.82,620.39L678.51,608.39L679.19,602.38L679.88,635.4L680.57,629.4L681.25,641.41L681.94,635.4L682.62,629.4L683.31,632.4L684,629.4L684.68,638.41L685.37,632.4L686.06,620.39L686.74,632.4L687.43,641.41L688.11,629.4L688.8,632.4L689.49,632.4L690.17,608.39L690.86,626.4L691.55,638.41L692.23,617.39L692.92,623.4L693.61,602.38L694.29,593.38L694.98,593.38L695.66,590.37L696.35,590.37L697.04,611.39L697.72,617.39L698.41,599.38L699.1,599.38L699.78,575.37L700.47,575.37L701.15,569.36L701.84,599.38L702.53,584.37L703.21,596.38L703.9,587.37L704.59,614.39L705.27,599.38L705.96,590.37L706.65,599.38L707.33,587.37L708.02,590.37L708.7,572.36L709.39,575.37L710.08,590.37L710.76,593.38L711.45,572.36L712.14,599.38L712.82,602.38L713.51,608.39L714.19,581.37L714.88,578.37L715.57,614.39L716.25,623.4L716.94,632.4L717.63,617.39L718.31,617.39L719,617.39L719.69,620.39L720.37,635.4L721.06,623.4L721.74,629.4L722.43,611.39L723.12,596.38L723.8,614.39L724.49,608.39L725.18,608.39L725.86,614.39L726.55,620.39L727.23,611.39L727.92,596.38L728.61,605.38L729.29,611.39L729.98,614.39L730.67,614.39L731.35,623.4L732.04,614.39L732.73,614.39L733.41,608.39L734.1,614.39L734.78,599.38L735.47,584.37L736.16,599.38L736.84,578.37L737.53,596.38L738.22,581.37L738.9,572.36L739.59,578.37L740.27,593.38L740.96,584.37L741.65,584.37L742.33,587.37L743.02,599.38L743.71,575.37L744.39,593.38L745.08,602.38L745.77,596.38L746.45,608.39L747.14,599.38L747.82,578.37L748.51,581.37L749.2,602.38L749.88,590.37L750.57,587.37L751.26,581.37L751.94,578.37L752.63,584.37L753.31,584.37L754,608.39L754.69,608.39L755.37,596.38L756.06,578.37L756.75,575.37L757.43,551.35L758.12,587.37L758.81,563.36L759.49,596.38L760.18,593.38L760.86,581.37L761.55,590.37L762.24,599.38L762.92,632.4L763.61,605.38L764.3,635.4L764.98,602.38L765.67,599.38L766.35,605.38L767.04,617.39L767.73,617.39L768.41,608.39L769.1,614.39L769.79,602.38L770.47,596.38L771.16,611.39L771.85,617.39L772.53,611.39L773.22,644.41L773.9,611.39L774.59,638.41L775.28,632.4L775.96,614.39L776.65,629.4L777.34,599.38L778.02,632.4L778.71,632.4L779.39,641.41L780.08,641.41L780.77,596.38L781.45,602.38L782.14,593.38L782.83,596.38L783.51,614.39L784.2,611.39L784.89,593.38L785.57,581.37L786.26,608.39L786.94,626.4L787.63,605.38L788.32,578.37L789,590.37L789.69,602.38L790.38,611.39L791.06,593.38L791.75,602.38L792.43,590.37L793.12,614.39L793.81,596.38L794.49,596.38L795.18,584.37L795.87,569.36L796.55,572.36L797.24,587.37L797.92,590.37L798.61,587.37L799.3,578.37L799.98,572.36L800.67,614.39L801.36,581.37L802.04,599.38L802.73,608.39L803.42,608.39L804.1,602.38L804.79,605.38L805.47,596.38L806.16,614.39L806.85,590.37L807.53,605.38L808.22,572.36L808.91,602.38L809.59,599.38L810.28,617.39L810.96,602.38L811.65,620.39L812.34,626.4L813.02,605.38L813.71,608.39L814.4,602.38L815.08,608.39L815.77,611.39L816.46,614.39L817.14,602.38L817.83,596.38L818.51,602.38L819.2,596.38L819.89,593.38L820.57,596.38L821.26,593.38L821.95,602.38L822.63,608.39L823.32,575.37L824,575.37L824.69,581.37L825.38,581.37L826.06,587.37L826.75,575.37L827.44,602.38L828.12,593.38L828.81,590.37L829.5,590.37L830.18,608.39L830.87,620.39L831.55,614.39L832.24,623.4L832.93,596.38L833.61,581.37L834.3,566.36L834.99,617.39L835.67,617.39L836.36,620.39L837.04,614.39L837.73,599.38L838.42,587.37L839.1,623.4L839.79,611.39L840.48,599.38L841.16,617.39L841.85,605.38L842.54,626.4L843.22,620.39L843.91,611.39L844.59,647.41L845.28,638.41L845.97,602.38L846.65,608.39L847.34,608.39L848.03,608.39L848.71,569.36L849.4,611.39L850.08,617.39L850.77,611.39L851.46,578.37L852.14,605.38L852.83,626.4L853.52,620.39L854.2,602.38L854.89,617.39L855.58,620.39L856.26,590.37L856.95,581.37L857.63,599.38L858.32,599.38L859.01,605.38L859.69,596.38L860.38,590.37L861.07,581.37L861.75,584.37L862.44,587.37L863.12,575.37L863.81,572.36L864.5,584.37L865.18,587.37L865.87,599.38L866.56,608.39L867.24,629.4L867.93,614.39L868.62,596.38L869.3,590.37L869.99,602.38L870.67,581.37L871.36,611.39L872.05,614.39L872.73,596.38L873.42,590.37L874.11,590.37L874.79,611.39L875.48,614.39L876.16,593.38L876.85,593.38L877.54,584.37L878.22,617.39L878.91,629.4L879.6,578.37L880.28,584.37L880.97,587.37L881.66,578.37L882.34,605.38L883.03,614.39L883.71,617.39L884.4,614.39L885.09,614.39L885.77,605.38L886.46,629.4L887.15,614.39L887.83,623.4L888.52,623.4L889.2,605.38L889.89,596.38L890.58,611.39L891.26,626.4L891.95,617.39L892.64,596.38L893.32,614.39L894.01,599.38L894.7,605.38L895.38,599.38L896.07,614.39L896.75,617.39L897.44,617.39L898.13,611.39L898.81,599.38L899.5,608.39L900.19,629.4L900.87,614.39L901.56,605.38L902.24,608.39L902.93,617.39L903.62,644.41L904.3,644.41L904.99,620.39L905.68,626.4L906.36,611.39L907.05,611.39L907.74,632.4L908.42,620.39L909.11,617.39L909.79,626.4L910.48,623.4L911.17,626.4L911.85,608.39L912.54,623.4L913.23,605.38L913.91,629.4L914.6,647.41L915.28,638.41L915.97,596.38L916.66,599.38L917.34,626.4L918.03,611.39L918.72,608.39L919.4,614.39L920.09,620.39L920.78,587.37L921.46,608.39L922.15,599.38L922.83,590.37L923.52,587.37L924.21,590.37L924.89,611.39L925.58,611.39L926.27,626.4L926.95,638.41L927.64,641.41L928.32,650.41L929.01,632.4L929.7,620.39L930.38,611.39L931.07,596.38L931.76,461.29L932.44,614.39L933.13,620.39L933.82,635.4L934.5,620.39L935.19,644.41L935.87,620.39L936.56,608.39L937.25,614.39L937.93,590.37L938.62,590.37L939.31,422.27L939.99,599.38L940.68,578.37L941.36,581.37L942.05,584.37L942.74,584.37L943.42,584.37L944.11,572.36L944.8,632.4L945.48,629.4L946.17,608.39L946.86,593.38L947.54,638.41L948.23,617.39L948.91,617.39L949.6,614.39L950.29,617.39L950.97,620.39L951.66,623.4L952.35,635.4L953.03,611.39L953.72,653.41L954.4,662.42L955.09,644.41L955.78,635.4L956.46,644.41L957.15,638.41L957.84,635.4L958.52,626.4L959.21,611.39L959.9,611.39L960.58,584.37L961.27,590.37L961.95,584.37L962.64,584.37L963.33,611.39L964.01,611.39L964.7,608.39L965.39,617.39L966.07,632.4L966.76,641.41L967.44,656.42L968.13,632.4L968.82,644.41L969.5,656.42L970.19,656.42L970.88,617.39L971.56,620.39L972.25,626.4L972.94,644.41L973.62,647.41L974.31,647.41L974.99,650.41L975.68,644.41L976.37,641.41L977.05,629.4L977.74,635.4L978.43,647.41L979.11,638.41L979.8,644.41L980.48,650.41L981.17,617.39L981.86,623.4L982.54,617.39" style="fill:none;stroke:#7AC36A;stroke-width:1.875;stroke-dasharray:7.5,2.5" />
<path d="M1055,694.3L1080,694.3" style="fill:none;stroke:#7AC36A;stroke-width:1.875;stroke-dasharray:7.5,2.5" />
<text x="941.6" y="-687.85" transform="scale(1, -1)"
	style="font-family:Helvetica;font-weight:normal;font-style:normal;font-size:12pt">Zookeeper 3.4.8</text>
<path d="M1055,680L1080,680" style="fill:none;stroke:#F15A60;stroke-width:1.875" />
<text x="1002.5" y="-673.56" transform="scale(1, -1)"
	style="font-family:Helvetica;font-weight:normal;font-style:normal;font-size:12pt">etcd v3</text>
</g>
</svg>
