<?xml version="1.0"?>
<!-- Generated by SVGo and Plotinum VG -->
<svg width="12in" height="8in"
	xmlns="http://www.w3.org/2000/svg"
	xmlns:xlink="http://www.w3.org/1999/xlink">
<g transform="scale(1, -1) translate(0, -720)">
<path d="M0,0L1080,0L1080,720L0,720Z" style="fill:#FFFFFF" />
<text x="307" y="-706.41" transform="scale(1, -1)"
	style="font-family:Helvetica;font-weight:normal;font-style:normal;font-size:12pt">Write 300K keys, 1 client, key 64 bytes, value 256 bytes, Memory(MB)</text>
<text x="544.64" y="-4.965" transform="scale(1, -1)"
	style="font-family:Helvetica;font-weight:normal;font-style:normal;font-size:12pt">Second</text>
<text x="56.662" y="-19.142" transform="scale(1, -1)"
	style="font-family:Helvetica;font-weight:normal;font-style:normal;font-size:10pt">0</text>
<text x="325.16" y="-19.142" transform="scale(1, -1)"
	style="font-family:Helvetica;font-weight:normal;font-style:normal;font-size:10pt">400</text>
<text x="600.62" y="-19.142" transform="scale(1, -1)"
	style="font-family:Helvetica;font-weight:normal;font-style:normal;font-size:10pt">800</text>
<text x="872.59" y="-19.142" transform="scale(1, -1)"
	style="font-family:Helvetica;font-weight:normal;font-style:normal;font-size:10pt">1200</text>
<path d="M60.137,30.467L60.137,40.467" style="fill:none;stroke:#000000;stroke-width:0.625" />
<path d="M335.59,30.467L335.59,40.467" style="fill:none;stroke:#000000;stroke-width:0.625" />
<path d="M611.04,30.467L611.04,40.467" style="fill:none;stroke:#000000;stroke-width:0.625" />
<path d="M886.49,30.467L886.49,40.467" style="fill:none;stroke:#000000;stroke-width:0.625" />
<path d="M197.86,35.468L197.86,40.467" style="fill:none;stroke:#000000;stroke-width:0.625" />
<path d="M473.32,35.468L473.32,40.467" style="fill:none;stroke:#000000;stroke-width:0.625" />
<path d="M748.77,35.468L748.77,40.467" style="fill:none;stroke:#000000;stroke-width:0.625" />
<path d="M1024.2,35.468L1024.2,40.467" style="fill:none;stroke:#000000;stroke-width:0.625" />
<path d="M60.137,40.467L1080,40.467" style="fill:none;stroke:#000000;stroke-width:0.625" />
<g transform="rotate(90)">
<text x="330.91" y="13.59" transform="scale(1, -1)"
	style="font-family:Helvetica;font-weight:normal;font-style:normal;font-size:12pt">Memory(MB)</text>
</g>
<text x="18.555" y="-172.81" transform="scale(1, -1)"
	style="font-family:Helvetica;font-weight:normal;font-style:normal;font-size:10pt">100</text>
<text x="18.555" y="-353.73" transform="scale(1, -1)"
	style="font-family:Helvetica;font-weight:normal;font-style:normal;font-size:10pt">200</text>
<text x="18.555" y="-534.66" transform="scale(1, -1)"
	style="font-family:Helvetica;font-weight:normal;font-style:normal;font-size:10pt">300</text>
<path d="M42.88,178.18L52.88,178.18" style="fill:none;stroke:#000000;stroke-width:0.625" />
<path d="M42.88,359.1L52.88,359.1" style="fill:none;stroke:#000000;stroke-width:0.625" />
<path d="M42.88,540.03L52.88,540.03" style="fill:none;stroke:#000000;stroke-width:0.625" />
<path d="M47.88,87.719L52.88,87.719" style="fill:none;stroke:#000000;stroke-width:0.625" />
<path d="M47.88,268.64L52.88,268.64" style="fill:none;stroke:#000000;stroke-width:0.625" />
<path d="M47.88,449.56L52.88,449.56" style="fill:none;stroke:#000000;stroke-width:0.625" />
<path d="M47.88,630.49L52.88,630.49" style="fill:none;stroke:#000000;stroke-width:0.625" />
<path d="M52.88,47.03L52.88,701.44" style="fill:none;stroke:#000000;stroke-width:0.625" />
<path d="M60.137,47.03L60.826,51.915L61.515,57.994L62.203,61.721L62.892,65.267L63.581,68.325L64.269,69.971L64.958,71.744L65.647,74.349L66.335,75.2L67.024,75.362L67.712,77.045L68.401,77.552L69.09,77.552L69.778,78.239L70.467,79.65L71.156,80.193L71.844,81.007L72.533,81.713L73.221,82.78L73.91,83.269L74.599,83.45L75.287,84.698L75.976,85.042L76.665,85.548L77.353,85.91L78.042,86.978L78.731,87.502L79.419,88.027L80.108,88.552L80.796,89.456L81.485,89.746L82.174,90.361L82.862,91.067L83.551,91.067L84.24,92.387L84.928,96.621L85.617,96.965L86.305,99.932L86.994,101.52L87.683,101.52L88.371,101.52L89.06,102.75L89.749,103.5L90.437,104.65L91.126,104.65L91.815,105.29L92.503,105.49L93.192,110.3L93.88,112.13L94.569,112.31L95.258,112.49L95.946,112.67L96.635,113.43L97.324,113.99L98.012,114.5L98.701,114.6L99.389,114.6L100.08,114.95L100.77,114.95L101.46,114.95L102.14,114.95L102.83,115.35L103.52,116.25L104.21,116.25L104.9,116.25L105.59,116.47L106.28,116.69L106.96,116.74L107.65,116.9L108.34,116.9L109.03,117.48L109.72,119.36L110.41,119.36L111.1,119.78L111.78,119.78L112.47,119.78L113.16,120.65L113.85,121.32L114.54,121.97L115.23,121.97L115.92,122.17L116.61,123.99L117.29,124.39L117.98,125.98L118.67,126.18L119.36,126.56L120.05,127.85L120.74,127.85L121.43,127.94L122.11,128.14L122.8,128.32L123.49,129.11L124.18,130.85L124.87,131.25L125.56,131.96L126.25,132.57L126.93,133.6L127.62,134.83L128.31,135.56L129,136.03L129.69,136.03L130.38,136.03L131.07,136.71L131.76,136.84L132.44,136.84L133.13,137.4L133.82,137.62L134.51,138.07L135.2,138.07L135.89,138.21L136.58,138.43L137.26,138.43L137.95,138.69L138.64,138.69L139.33,138.69L140.02,138.96L140.71,138.96L141.4,138.96L142.08,139.55L142.77,140.02L143.46,140.02L144.15,140.02L144.84,140.02L145.53,140.02L146.22,140.28L146.91,140.55L147.59,140.55L148.28,140.82L148.97,141.06L149.66,141.58L150.35,141.58L151.04,141.89L151.73,144.17L152.41,144.33L153.1,144.57L153.79,144.84L154.48,145.11L155.17,145.34L155.86,145.34L156.55,145.34L157.23,145.34L157.92,147.97L158.61,148.44L159.3,148.44L159.99,150.3L160.68,150.52L161.37,150.52L162.05,152.07L162.74,152.07L163.43,152.07L164.12,152.6L164.81,152.6L165.5,152.78L166.19,153.34L166.88,153.48L167.56,153.68L168.25,153.68L168.94,153.68L169.63,153.85L170.32,153.85L171.01,153.85L171.7,154.1L172.38,154.39L173.07,154.57L173.76,154.75L174.45,154.75L175.14,154.75L175.83,154.75L176.52,155L177.2,155.29L177.89,155.29L178.58,155.29L179.27,155.29L179.96,155.29L180.65,155.8L181.34,156.04L182.03,156.89L182.71,157.34L183.4,157.34L184.09,157.34L184.78,158.79L185.47,159.62L186.16,159.87L186.85,160.05L187.53,160.12L188.22,160.12L188.91,160.69L189.6,161.17L190.29,161.17L190.98,163.16L191.67,163.53L192.35,163.76L193.04,164.21L193.73,166.1L194.42,166.31L195.11,166.31L195.8,167.34L196.49,167.9L197.18,168.14L197.86,168.48L198.55,168.92L199.24,169.13L199.93,169.37L200.62,169.37L201.31,169.37L202,169.55L202.68,169.55L203.37,169.55L204.06,169.84L204.75,169.84L205.44,169.84L206.13,170.09L206.82,170.09L207.5,170.09L208.19,170.09L208.88,170.62L209.57,170.91L210.26,171.11L210.95,171.38L211.64,171.38L212.32,171.38L213.01,171.85L213.7,171.85L214.39,171.85L215.08,171.85L215.77,171.88L216.46,172.43L217.15,172.97L217.83,173.68L218.52,175.11L219.21,175.79L219.9,175.79L220.59,176.1L221.28,176.1L221.97,176.1L222.65,176.39L223.34,177.17L224.03,177.64L224.72,177.93L225.41,178.05L226.1,178.05L226.79,179.12L227.47,181.93L228.16,182.07L228.85,182.07L229.54,182.47L230.23,182.47L230.92,182.47L231.61,183.66L232.3,184.66L232.98,184.66L233.67,184.66L234.36,185.09L235.05,185.58L235.74,185.82L236.43,185.82L237.12,185.82L237.8,186.03L238.49,186.03L239.18,186.29L239.87,186.29L240.56,186.29L241.25,186.29L241.94,187.35L242.62,187.35L243.31,187.35L244,188.4L244.69,188.4L245.38,188.4L246.07,188.82L246.76,188.82L247.45,188.82L248.13,189.42L248.82,189.54L249.51,189.96L250.2,189.96L250.89,189.96L251.58,189.96L252.27,192.38L252.95,192.62L253.64,193.07L254.33,193.07L255.02,193.07L255.71,193.38L256.4,193.83L257.09,194.5L257.77,194.77L258.46,195.28L259.15,195.78L259.84,195.78L260.53,195.78L261.22,197.87L261.91,197.87L262.6,197.87L263.28,198.25L263.97,198.25L264.66,198.48L265.35,198.95L266.04,199.51L266.73,199.51L267.42,199.51L268.1,199.51L268.79,199.51L269.48,199.76L270.17,200L270.86,200L271.55,200L272.24,200.29L272.92,200.29L273.61,200.29L274.3,200.29L274.99,200.29L275.68,200.56L276.37,201.07L277.06,201.07L277.74,201.32L278.43,201.79L279.12,201.79L279.81,202.1L280.5,202.68L281.19,202.68L281.88,202.68L282.57,202.95L283.25,203.47L283.94,203.8L284.63,204.88L285.32,204.88L286.01,207.35L286.7,207.4L287.39,207.4L288.07,207.4L288.76,207.4L289.45,207.62L290.14,207.62L290.83,207.91L291.52,208.67L292.21,210.28L292.89,210.95L293.58,210.95L294.27,211.13L294.96,212.86L295.65,212.86L296.34,212.86L297.03,213.08L297.72,215.14L298.4,215.54L299.09,215.54L299.78,215.72L300.47,215.72L301.16,216.01L301.85,216.01L302.54,216.01L303.22,216.01L303.91,216.01L304.6,216.01L305.29,216.26L305.98,216.26L306.67,216.26L307.36,216.26L308.04,216.46L308.73,216.46L309.42,216.7L310.11,216.7L310.8,216.97L311.49,216.97L312.18,216.97L312.87,217.51L313.55,218.33L314.24,218.33L314.93,218.6L315.62,218.89L316.31,218.89L317,219.16L317.69,219.16L318.37,220.19L319.06,221.01L319.75,223.59L320.44,223.81L321.13,223.81L321.82,223.81L322.51,223.95L323.19,223.95L323.88,223.95L324.57,224.19L325.26,225.67L325.95,225.67L326.64,226.22L327.33,226.87L328.01,227.95L328.7,227.95L329.39,228.37L330.08,228.37L330.77,230.18L331.46,231.14L332.15,231.88L332.84,231.91L333.52,231.91L334.21,231.91L334.9,232.11L335.59,232.11L336.28,232.11L336.97,232.11L337.66,232.33L338.34,232.33L339.03,232.33L339.72,232.55L340.41,232.57L341.1,232.82L341.79,232.82L342.48,232.82L343.16,233.02L343.85,233.02L344.54,233.02L345.23,233.02L345.92,233.02L346.61,233.02L347.3,233.02L347.99,233.83L348.67,234.14L349.36,234.14L350.05,234.14L350.74,234.41L351.43,234.88L352.12,235.46L352.81,238.41L353.49,238.41L354.18,239.01L354.87,239.01L355.56,239.01L356.25,239.28L356.94,239.57L357.63,240L358.31,240L359,240L359.69,240.76L360.38,242.23L361.07,242.23L361.76,243.44L362.45,244.15L363.14,244.4L363.82,244.58L364.51,244.58L365.2,244.76L365.89,246.23L366.58,247.15L367.27,247.15L367.96,247.58L368.64,247.58L369.33,247.58L370.02,247.58L370.71,247.58L371.4,247.58L372.09,247.58L372.78,247.91L373.46,248.13L374.15,248.13L374.84,248.38L375.53,248.63L376.22,248.92L376.91,249.46L377.6,249.46L378.29,250.3L378.97,250.46L379.66,250.66L380.35,250.68L381.04,251.24L381.73,251.24L382.42,251.24L383.11,252.07L383.79,252.07L384.48,252.07L385.17,252.07L385.86,252.32L386.55,255.2L387.24,255.38L387.93,255.58L388.61,255.78L389.3,255.78L389.99,256.03L390.68,256.54L391.37,256.76L392.06,257.32L392.75,257.32L393.43,257.52L394.12,257.52L394.81,257.71L395.5,258.6L396.19,258.6L396.88,259.54L397.57,260.25L398.26,261.79L398.94,263L399.63,263.2L400.32,263.2L401.01,263.2L401.7,263.2L402.39,263.4L403.08,263.63L403.76,263.63L404.45,264.16L405.14,264.16L405.83,264.37L406.52,264.37L407.21,264.37L407.9,264.86L408.58,265.1L409.27,265.1L409.96,265.1L410.65,265.69L411.34,265.89L412.03,265.89L412.72,266.11L413.41,266.38L414.09,266.38L414.78,266.38L415.47,266.38L416.16,266.6L416.85,266.6L417.54,266.83L418.23,267.27L418.91,267.27L419.6,269.15L420.29,269.4L420.98,269.96L421.67,270.6L422.36,270.6L423.05,270.6L423.73,270.6L424.42,270.6L425.11,270.6L425.8,271.27L426.49,272.73L427.18,272.89L427.87,272.89L428.56,273.56L429.24,273.56L429.93,275.44L430.62,276.44L431.31,277.02L432,277.4L432.69,278.03L433.38,278.03L434.06,278.03L434.75,278.03L435.44,278.03L436.13,278.21L436.82,278.97L437.51,279.19L438.2,279.19L438.88,279.41L439.57,279.66L440.26,279.91L440.95,280.13L441.64,280.62L442.33,280.62L443.02,280.78L443.7,281.05L444.39,281.56L445.08,282.07L445.77,282.07L446.46,282.59L447.15,282.59L447.84,282.59L448.53,282.59L449.21,282.59L449.9,282.59L450.59,283.06L451.28,283.26L451.97,283.26L452.66,283.51L453.35,285.63L454.03,285.63L454.72,285.63L455.41,285.88L456.1,285.88L456.79,286.82L457.48,286.82L458.17,287.98L458.85,288.24L459.54,288.24L460.23,288.24L460.92,288.24L461.61,288.24L462.3,288.92L462.99,289.3L463.68,289.3L464.36,291.35L465.05,292.61L465.74,292.61L466.43,293.01L467.12,293.01L467.81,293.01L468.5,293.27L469.18,293.27L469.87,293.27L470.56,293.63L471.25,294.08L471.94,294.62L472.63,294.86L473.32,295.13L474,295.38L474.69,295.38L475.38,295.38L476.07,295.6L476.76,296.02L477.45,296.31L478.14,297.1L478.83,297.68L479.51,297.68L480.2,297.95L480.89,297.95L481.58,297.95L482.27,297.95L482.96,297.95L483.65,297.95L484.33,298.24L485.02,298.24L485.71,298.82L486.4,299.11L487.09,301.23L487.78,301.43L488.47,301.61L489.15,301.61L489.84,301.88L490.53,302.17L491.22,302.66L491.91,303.4L492.6,304.57L493.29,304.79L493.98,305.55L494.66,305.55L495.35,305.93L496.04,305.93L496.73,305.93L497.42,307.09L498.11,307.09L498.8,307.09L499.48,308.07L500.17,308.84L500.86,309.42L501.55,310.56L502.24,310.76L502.93,310.76L503.62,311.18L504.3,311.59L504.99,311.59L505.68,311.59L506.37,311.81L507.06,312.05L507.75,312.48L508.44,312.48L509.12,312.68L509.81,312.68L510.5,313L511.19,313.19L511.88,313.73L512.57,313.73L513.26,313.73L513.95,313.73L514.63,313.73L515.32,314.02L516.01,314.02L516.7,314.61L517.39,314.61L518.08,314.61L518.77,314.87L519.45,314.87L520.14,316.35L520.83,316.89L521.52,317.36L522.21,317.56L522.9,317.89L523.59,317.89L524.27,318.12L524.96,318.4L525.65,318.65L526.34,319.83L527.03,320.17L527.72,320.48L528.41,320.68L529.1,322.09L529.78,322.09L530.47,322.85L531.16,323.44L531.85,324.44L532.54,325.05L533.23,325.51L533.92,325.51L534.6,325.51L535.29,325.81L535.98,326.16L536.67,326.45L537.36,326.65L538.05,326.65L538.74,327.17L539.42,327.6L540.11,327.84L540.8,328.02L541.49,328.02L542.18,328.35L542.87,328.35L543.56,328.35L544.25,328.6L544.93,328.6L545.62,328.83L546.31,329.34L547,329.34L547.69,329.34L548.38,329.58L549.07,329.85L549.75,330.03L550.44,330.03L551.13,330.03L551.82,330.03L552.51,330.03L553.2,330.03L553.89,331.11L554.57,331.4L555.26,331.4L555.95,331.93L556.64,332.82L557.33,333.09L558.02,333.32L558.71,333.32L559.39,333.58L560.08,333.58L560.77,333.58L561.46,333.81L562.15,334.71L562.84,336.78L563.53,337.59L564.22,338.57L564.9,338.79L565.59,339.04L566.28,339.04L566.97,339.31L567.66,339.96L568.35,339.96L569.04,339.96L569.72,339.96L570.41,339.96L571.1,340.27L571.79,341.72L572.48,341.95L573.17,341.95L573.86,341.95L574.54,342.64L575.23,342.84L575.92,343.24L576.61,343.24L577.3,343.24L577.99,343.24L578.68,343.51L579.37,343.51L580.05,343.89L580.74,344.1L581.43,344.29L582.12,344.29L582.81,344.29L583.5,344.29L584.19,344.65L584.87,344.65L585.56,344.65L586.25,344.65L586.94,346.31L587.63,346.31L588.32,347.78L589.01,347.78L589.69,347.78L590.38,348.1L591.07,348.41L591.76,348.41L592.45,348.41L593.14,348.75L593.83,348.75L594.52,349.19L595.2,351.6L595.89,352.54L596.58,353.51L597.27,353.91L597.96,354.29L598.65,354.29L599.34,354.29L600.02,355.59L600.71,355.77L601.4,355.92L602.09,356.48L602.78,356.48L603.47,357.29L604.16,357.75L604.84,358.18L605.53,358.42L606.22,358.63L606.91,358.9L607.6,359.39L608.29,359.72L608.98,359.9L609.67,359.9L610.35,360.12L611.04,360.12L611.73,360.84L612.42,361.06L613.11,361.27L613.8,361.27L614.49,361.27L615.17,361.27L615.86,361.76L616.55,362L617.24,362L617.93,362L618.62,362L619.31,362.31L619.99,362.58L620.68,363.14L621.37,363.36L622.06,363.59L622.75,363.59L623.44,363.59L624.13,363.59L624.81,363.59L625.5,363.59L626.19,363.59L626.88,363.59L627.57,365.18L628.26,365.18L628.95,366.21L629.64,368.31L630.32,369.13L631.01,369.74L631.7,369.74L632.39,369.99L633.08,370.5L633.77,371.15L634.46,372.26L635.14,372.26L635.83,372.26L636.52,372.44L637.21,372.44L637.9,372.91L638.59,373.27L639.28,373.72L639.96,373.72L640.65,373.72L641.34,373.72L642.03,373.72L642.72,373.72L643.41,374.12L644.1,374.12L644.79,374.34L645.47,374.9L646.16,374.9L646.85,375.17L647.54,375.39L648.23,375.87L648.92,376.35L649.61,376.35L650.29,376.35L650.98,376.53L651.67,376.53L652.36,376.53L653.05,376.78L653.74,376.78L654.43,376.78L655.11,377.72L655.8,378.3L656.49,378.3L657.18,379.04L657.87,379.04L658.56,379.57L659.25,379.57L659.94,379.57L660.62,379.57L661.31,379.57L662,380.33L662.69,382.37L663.38,382.7L664.07,382.88L664.76,382.88L665.44,384L666.13,384.29L666.82,385.72L667.51,386.31L668.2,386.31L668.89,386.55L669.58,387.4L670.26,387.4L670.95,387.4L671.64,387.8L672.33,388.74L673.02,388.74L673.71,388.96L674.4,389.41L675.08,389.41L675.77,389.41L676.46,389.41L677.15,389.64L677.84,389.84L678.53,389.84L679.22,390.08L679.91,390.08L680.59,390.51L681.28,390.98L681.97,390.98L682.66,390.98L683.35,391.18L684.04,391.4L684.73,392.45L685.41,392.45L686.1,392.72L686.79,392.72L687.48,394.31L688.17,394.31L688.86,394.53L689.55,394.8L690.23,394.8L690.92,395.38L691.61,395.54L692.3,396.36L692.99,396.36L693.68,396.36L694.37,396.81L695.06,396.81L695.74,397.26L696.43,397.64L697.12,397.64L697.81,398.65L698.5,398.92L699.19,399.2L699.88,399.45L700.56,400.35L701.25,400.55L701.94,401.57L702.63,401.91L703.32,401.91L704.01,403.61L704.7,403.61L705.38,403.61L706.07,404.33L706.76,404.55L707.45,404.71L708.14,405.26L708.83,405.26L709.52,405.26L710.21,405.26L710.89,405.46L711.58,405.64L712.27,405.85L712.96,407.21L713.65,407.21L714.34,407.32L715.03,407.66L715.71,407.93L716.4,407.93L717.09,408.22L717.78,408.68L718.47,408.68L719.16,408.97L719.85,409.85L720.53,409.85L721.22,411.26L721.91,411.26L722.6,411.26L723.29,411.91L723.98,411.91L724.67,411.91L725.36,412.53L726.04,412.53L726.73,412.53L727.42,412.53L728.11,412.82L728.8,412.82L729.49,412.82L730.18,413.6L730.86,414.76L731.55,415.17L732.24,415.33L732.93,416.27L733.62,416.55L734.31,416.55L735,417.9L735.68,418.36L736.37,418.36L737.06,418.75L737.75,418.75L738.44,418.95L739.13,419.48L739.82,419.66L740.5,419.98L741.19,420.2L741.88,420.2L742.57,420.85L743.26,421.05L743.95,421.23L744.64,421.23L745.33,421.47L746.01,421.7L746.7,421.7L747.39,421.7L748.08,421.7L748.77,421.7L749.46,421.7L750.15,421.7L750.83,422.72L751.52,423.02L752.21,424.43L752.9,424.69L753.59,424.69L754.28,424.92L754.97,426.1L755.65,426.26L756.34,426.9L757.03,426.9L757.72,427.2L758.41,427.2L759.1,427.2L759.79,427.47L760.48,427.73L761.16,427.96L761.85,428.41L762.54,428.69L763.23,429.5L763.92,429.5L764.61,430.1L765.3,430.1L765.98,431.38L766.67,431.38L767.36,432.02L768.05,432.27L768.74,432.27L769.43,432.27L770.12,432.45L770.8,433.46L771.49,435.2L772.18,435.2L772.87,437.08L773.56,437.93L774.25,437.93L774.94,438.22L775.63,438.73L776.31,438.73L777,438.73L777.69,438.73L778.38,438.85L779.07,438.85L779.76,438.85L780.45,438.85L781.13,439.54L781.82,439.54L782.51,440.05L783.2,440.17L783.89,440.17L784.58,440.17L785.27,440.17L785.95,440.48L786.64,440.48L787.33,440.72L788.02,441.17L788.71,442.38L789.4,443.07L790.09,443.27L790.77,443.58L791.46,443.58L792.15,443.58L792.84,443.58L793.53,443.83L794.22,443.83L794.91,444.12L795.6,444.39L796.28,444.39L796.97,444.59L797.66,445.66L798.35,446.76L799.04,446.76L799.73,446.76L800.42,447.3L801.1,447.54L801.79,447.54L802.48,447.54L803.17,448.91L803.86,449.18L804.55,449.38L805.24,449.38L805.92,450.76L806.61,450.96L807.3,451.12L807.99,451.12L808.68,451.55L809.37,451.74L810.06,451.74L810.75,451.97L811.43,452.24L812.12,452.41L812.81,452.41L813.5,452.41L814.19,452.64L814.88,452.8L815.57,452.8L816.25,453.02L816.94,453.02L817.63,453.26L818.32,453.54L819.01,454.05L819.7,454.05L820.39,454.05L821.07,454.05L821.76,454.05L822.45,454.3L823.14,454.81L823.83,457.36L824.52,457.91L825.21,458.14L825.9,458.14L826.58,458.14L827.27,458.9L827.96,458.9L828.65,459.14L829.34,459.14L830.03,459.14L830.72,459.41L831.4,460.2L832.09,461.29L832.78,461.29L833.47,461.29L834.16,461.54L834.85,462.01L835.54,462.27L836.22,464.06L836.91,464.82L837.6,465L838.29,465.5L838.98,465.92L839.67,465.92L840.36,467.46L841.05,467.46L841.73,467.67L842.42,468.71L843.11,468.71L843.8,468.71L844.49,468.71L845.18,468.71L845.87,468.71L846.55,468.71L847.24,468.92L847.93,469.19L848.62,469.61L849.31,470.5L850,470.5L850.69,470.71L851.37,470.71L852.06,470.71L852.75,470.71L853.44,471.22L854.13,471.22L854.82,471.47L855.51,471.71L856.19,471.94L856.88,471.94L857.57,474.1L858.26,474.1L858.95,474.33L859.64,474.93L860.33,475.09L861.02,475.09L861.7,475.35L862.39,475.35L863.08,475.35L863.77,475.35L864.46,475.35L865.15,475.6L865.84,475.82L866.52,476.59L867.21,476.59L867.9,476.59L868.59,477.73L869.28,479.4L869.97,479.78L870.66,480.45L871.34,480.45L872.03,481.97L872.72,481.97L873.41,482.17L874.1,482.17L874.79,482.67L875.48,483.51L876.17,483.89L876.85,483.89L877.54,484.37L878.23,484.54L878.92,484.54L879.61,485.46L880.3,485.46L880.99,485.68L881.67,485.88L882.36,485.88L883.05,485.88L883.74,485.88L884.43,485.88L885.12,486.2L885.81,486.2L886.49,486.2L887.18,486.2L887.87,486.4L888.56,486.4L889.25,486.4L889.94,486.4L890.63,486.71L891.32,487.94L892,489.44L892.69,489.71L893.38,489.71L894.07,489.71L894.76,490.15L895.45,490.15L896.14,490.42L896.82,490.96L897.51,490.96L898.2,491.27L898.89,491.27L899.58,491.59L900.27,491.59L900.96,491.59L901.64,492.55L902.33,493.04L903.02,493.26L903.71,494.31L904.4,495.56L905.09,495.56L905.78,495.56L906.46,497.11L907.15,497.6L907.84,497.8L908.53,497.8L909.22,498.05L909.91,498.41L910.6,498.94L911.29,499.43L911.97,499.64L912.66,499.86L913.35,499.86L914.04,500.08L914.73,500.08L915.42,500.3L916.11,500.66L916.79,501.83L917.48,502.12L918.17,502.38L918.86,502.59L919.55,502.88L920.24,502.88L920.93,502.88L921.61,503.08L922.3,503.08L922.99,503.08L923.68,503.08L924.37,503.08L925.06,503.08L925.75,503.81L926.44,503.81L927.12,503.81L927.81,503.81L928.5,503.81L929.19,504.08L929.88,504.08L930.57,504.87L931.26,504.87L931.94,505.16L932.63,505.16L933.32,505.76L934.01,505.76L934.7,506.21L935.39,506.54L936.08,507.04L936.76,507.04L937.45,507.93L938.14,509L938.83,510.17L939.52,511.6L940.21,511.82L940.9,511.82L941.59,511.98L942.27,512.25L942.96,514.1L943.65,514.26L944.34,515.11L945.03,515.29L945.72,515.29L946.41,515.57L947.09,515.57L947.78,515.8L948.47,515.8L949.16,516.02L949.85,516.22L950.54,516.45L951.23,516.45L951.91,516.7L952.6,516.94L953.29,516.94L953.98,516.94L954.67,516.94L955.36,517.36L956.05,517.36L956.74,517.36L957.42,517.36L958.11,517.36L958.8,517.36L959.49,517.36L960.18,518.7L960.87,518.91L961.56,518.91L962.24,519.22L962.93,519.47L963.62,520.05L964.31,520.85L965,521.1L965.69,521.37L966.38,521.37L967.06,522.93L967.75,523.15L968.44,524.07L969.13,524.41L969.82,524.41L970.51,524.41L971.2,524.41L971.88,524.41L972.57,524.41L973.26,525.62L973.95,525.62L974.64,525.62L975.33,525.95L976.02,525.95L976.71,528.09L977.39,530.13L978.08,530.27L978.77,531.69L979.46,531.69L980.15,531.69L980.84,532.64L981.53,533.04L982.21,533.04L982.9,533.24L983.59,533.24L984.28,533.66L984.97,533.86L985.66,533.86L986.35,533.86L987.03,533.86L987.72,534.04L988.41,534.33L989.1,534.87L989.79,535.39L990.48,535.65L991.17,535.88L991.86,536.12L992.54,536.12L993.23,536.34L993.92,536.62L994.61,537L995.3,537.24L995.99,537.24L996.68,537.24L997.36,537.24L998.05,537.24L998.74,537.24L999.43,537.24L1000.1,537.24L1000.8,537.24L1001.5,537.53L1002.2,537.8L1002.9,538.81L1003.6,539.03L1004.3,539.03L1004.9,539.3L1005.6,539.3L1006.3,541.85L1007,542.59L1007.7,543.12L1008.4,543.37L1009.1,543.37L1009.8,543.37L1010.4,543.37L1011.1,543.37L1011.8,543.37L1012.5,543.57L1013.2,544.35L1013.9,544.53L1014.6,544.98L1015.3,545.22L1016,546.9L1016.6,547.12L1017.3,547.28L1018,547.28L1018.7,547.28L1019.4,547.28L1020.1,548.02L1020.8,548.28L1021.5,548.28L1022.2,548.28L1022.8,548.28L1023.5,548.28L1024.2,548.58L1024.9,548.93L1025.6,548.93L1026.3,548.93L1027,549.16L1027.7,549.16L1028.4,551.06L1029,551.32L1029.7,551.32L1030.4,551.32L1031.1,551.32L1031.8,551.59L1032.5,552.11L1033.2,552.11L1033.9,552.11L1034.6,552.11L1035.2,552.33L1035.9,553.9L1036.6,553.9L1037.3,554.41L1038,554.41L1038.7,554.41L1039.4,554.41L1040.1,555.04L1040.7,555.22L1041.4,555.6L1042.1,557.2L1042.8,557.2L1043.5,557.2L1044.2,557.52L1044.9,558.03L1045.6,559.91L1046.3,561.28L1046.9,562.57L1047.6,562.57L1048.3,562.79L1049,562.79L1049.7,562.79L1050.4,562.79L1051.1,563.2L1051.8,563.2L1052.5,563.2L1053.1,563.4L1053.8,564.47L1054.5,564.74L1055.2,564.87L1055.9,564.87L1056.6,564.87L1057.3,564.87L1058,565.12L1058.7,566.28L1059.3,566.28L1060,566.62L1060.7,566.62L1061.4,567.15L1062.1,567.15L1062.8,567.82L1063.5,567.82L1064.2,567.82L1064.9,567.82L1065.5,568.01L1066.2,568.54L1066.9,568.99L1067.6,569.32L1068.3,569.73L1069,570L1069.7,570.33L1070.4,570.33L1071,570.51L1071.7,571.51L1072.4,571.8L1073.1,571.8L1073.8,571.8L1074.5,571.96L1075.2,572.79L1075.9,572.79L1076.6,572.79L1077.2,573.5L1077.9,573.73L1078.6,573.73L1079.3,573.73L1080,573.93" style="fill:none;stroke:#F15A60;stroke-width:1.875" />
<path d="M60.137,102.34L60.826,114.3L61.515,126.09L62.203,133.44L62.892,137.76L63.581,146.19L64.269,150.16L64.958,155.1L65.647,159.11L66.335,172.63L67.024,178.87L67.712,182.56L68.401,191.59L69.09,199.26L69.778,208L70.467,209.08L71.156,209.17L71.844,210.4L72.533,211.63L73.221,212.72L73.91,213.73L74.599,221.13L75.287,221.13L75.976,221.29L76.665,227.68L77.353,232.57L78.042,231.32L78.731,231.32L79.419,231.32L80.108,234.36L80.796,233.74L81.485,233.63L82.174,233.63L82.862,233.63L83.551,239.82L84.24,239.78L84.928,239.78L85.617,239.78L86.305,239.78L86.994,240.91L87.683,240.91L88.371,240.91L89.06,240.91L89.749,240.91L90.437,240.91L91.126,240.98L91.815,240.98L92.503,241.03L93.192,243.49L93.88,246.17L94.569,246.17L95.258,252.5L95.946,252.5L96.635,252.5L97.324,252.5L98.012,254.96L98.701,254.96L99.389,254.96L100.08,254.96L100.77,260.65L101.46,260.65L102.14,260.65L102.83,260.65L103.52,260.65L104.21,260.65L104.9,260.65L105.59,263.12L106.28,263.12L106.96,263.12L107.65,272.93L108.34,272.93L109.03,272.93L109.72,272.93L110.41,272.93L111.1,272.93L111.78,272.93L112.47,272.93L113.16,275.41L113.85,275.41L114.54,277.87L115.23,277.87L115.92,277.87L116.61,281.58L117.29,281.58L117.98,281.58L118.67,284.45L119.36,284.45L120.05,284.87L120.74,284.87L121.43,293.07L122.11,293.41L122.8,293.41L123.49,293.41L124.18,293.03L124.87,293.03L125.56,293.03L126.25,293.03L126.93,293.03L127.62,295.49L128.31,295.49L129,295.49L129.69,295.49L130.38,295.49L131.07,295.49L131.76,300.95L132.44,300.95L133.13,300.95L133.82,300.95L134.51,300.95L135.2,300.95L135.89,300.95L136.58,300.95L137.26,301.01L137.95,304.72L138.64,304.72L139.33,304.72L140.02,304.72L140.71,304.72L141.4,304.72L142.08,304.72L142.77,311.77L143.46,311.77L144.15,314.25L144.84,314.25L145.53,314.25L146.22,314.25L146.91,314.25L147.59,314.25L148.28,314.25L148.97,314.25L149.66,314.25L150.35,314.25L151.04,314.25L151.73,314.25L152.41,314.31L153.1,314.31L153.79,314.52L154.48,314.52L155.17,314.52L155.86,322.99L156.55,326.84L157.23,326.84L157.92,326.84L158.61,326.84L159.3,330.57L159.99,330.57L160.68,330.57L161.37,330.57L162.05,333.27L162.74,341.86L163.43,340.85L164.12,340.85L164.81,340.85L165.5,340.85L166.19,340.85L166.88,340.85L167.56,340.85L168.25,340.85L168.94,344.56L169.63,346.62L170.32,346.62L171.01,349.1L171.7,349.1L172.38,349.1L173.07,349.1L173.76,349.1L174.45,349.1L175.14,349.1L175.83,349.1L176.52,349.1L177.2,349.1L177.89,349.1L178.58,349.1L179.27,349.1L179.96,349.1L180.65,349.1L181.34,362.87L182.03,362.87L182.71,362.87L183.4,362.87L184.09,362.87L184.78,366.83L185.47,366.83L186.16,366.83L186.85,367.97L187.53,367.97L188.22,367.97L188.91,367.97L189.6,367.97L190.29,367.97L190.98,367.97L191.67,367.97L192.35,367.97L193.04,371.68L193.73,372.42L194.42,372.42L195.11,372.42L195.8,372.42L196.49,372.42L197.18,372.42L197.86,372.42L198.55,375.6L199.24,375.6L199.93,375.6L200.62,379.31L201.31,379.31L202,381.79L202.68,381.79L203.37,381.79L204.06,381.79L204.75,383.02L205.44,383.02L206.13,383.02L206.82,383.02L207.5,392.74L208.19,392.74L208.88,392.74L209.57,392.74L210.26,392.74L210.95,392.74L211.64,397.68L212.32,397.68L213.01,397.68L213.7,397.68L214.39,402.29L215.08,402.29L215.77,402.29L216.46,403.54L217.15,403.54L217.83,403.54L218.52,403.54L219.21,403.54L219.9,403.54L220.59,403.54L221.28,403.54L221.97,407.26L222.65,407.26L223.34,407.26L224.03,407.26L224.72,409.74L225.41,409.74L226.1,409.74L226.79,409.74L227.47,411.59L228.16,411.59L228.85,411.59L229.54,411.59L230.23,411.59L230.92,411.59L231.61,411.59L232.3,411.59L232.98,411.59L233.67,411.59L234.36,411.59L235.05,411.59L235.74,411.59L236.43,411.59L237.12,411.59L237.8,413.56L238.49,414.18L239.18,414.18L239.87,414.18L240.56,414.18L241.25,414.18L241.94,419.17L242.62,419.17L243.31,419.17L244,419.17L244.69,419.17L245.38,419.17L246.07,419.17L246.76,419.17L247.45,419.17L248.13,419.17L248.82,420.4L249.51,420.4L250.2,422.26L250.89,422.26L251.58,422.26L252.27,422.26L252.95,422.26L253.64,422.26L254.33,422.26L255.02,422.26L255.71,422.26L256.4,422.26L257.09,422.26L257.77,422.26L258.46,422.26L259.15,422.26L259.84,422.88L260.53,422.88L261.22,422.88L261.91,430.39L262.6,431.11L263.28,431.11L263.97,431.11L264.66,431.11L265.35,431.11L266.04,431.11L266.73,431.11L267.42,431.11L268.1,431.11L268.79,431.11L269.48,431.11L270.17,431.11L270.86,431.11L271.55,431.11L272.24,431.11L272.92,431.11L273.61,431.11L274.3,431.11L274.99,432.34L275.68,432.34L276.37,433.35L277.06,433.35L277.74,433.35L278.43,433.35L279.12,433.35L279.81,433.35L280.5,440.84L281.19,440.84L281.88,440.84L282.57,440.84L283.25,440.84L283.94,440.84L284.63,440.84L285.32,440.84L286.01,440.84L286.7,440.84L287.39,440.84L288.07,440.84L288.76,440.72L289.45,440.72L290.14,440.75L290.83,440.75L291.52,440.16L292.21,440.16L292.89,443.99L293.58,443.99L294.27,443.99L294.96,443.99L295.65,443.99L296.34,443.99L297.03,443.99L297.72,443.99L298.4,445.22L299.09,445.22L299.78,445.62L300.47,445.62L301.16,445.62L301.85,445.62L302.54,445.62L303.22,445.62L303.91,445.62L304.6,445.62L305.29,445.62L305.98,445.62L306.67,445.62L307.36,445.62L308.04,445.62L308.73,445.62L309.42,447.16L310.11,447.16L310.8,448.39L311.49,448.39L312.18,448.39L312.87,448.39L313.55,448.39L314.24,448.39L314.93,448.39L315.62,448.39L316.31,448.39L317,448.39L317.69,448.39L318.37,448.39L319.06,448.79L319.75,448.79L320.44,450.02L321.13,451.08L321.82,451.08L322.51,451.08L323.19,451.08L323.88,451.08L324.57,451.08L325.26,451.08L325.95,451.08L326.64,451.1L327.33,450.67L328.01,450.98L328.7,453.83L329.39,453.83L330.08,453.83L330.77,453.83L331.46,453.83L332.15,453.83L332.84,453.83L333.52,453.83L334.21,454.94L334.9,454.78L335.59,454.78L336.28,455.08L336.97,455.08L337.66,455.1L338.34,455.1L339.03,455.1L339.72,455.1L340.41,455.1L341.1,455.77L341.79,457.74L342.48,457.74L343.16,457.74L343.85,457.74L344.54,456.95L345.23,456.95L345.92,456.95L346.61,458.79L347.3,459.1L347.99,459.1L348.67,459.1L349.36,459.1L350.05,459.1L350.74,458.79L351.43,458.79L352.12,458.79L352.81,458.79L353.49,458.79L354.18,458.79L354.87,458.79L355.56,458.79L356.25,458.79L356.94,458.79L357.63,460.33L358.31,460.33L359,461.25L359.69,461.25L360.38,461.25L361.07,461.25L361.76,461.25L362.45,461.25L363.14,461.87L363.82,461.87L364.51,461.87L365.2,461.87L365.89,461.87L366.58,461.87L367.27,461.87L367.96,467.89L368.64,468.24L369.33,468.24L370.02,468.24L370.71,468.24L371.4,468.24L372.09,468.24L372.78,468.24L373.46,468.24L374.15,468.24L374.84,468.24L375.53,468.24L376.22,468.24L376.91,468.54L377.6,468.54L378.29,468.85L378.97,468.85L379.66,468.92L380.35,472.63L381.04,472.63L381.73,472.63L382.42,472.63L383.11,474.1L383.79,474.1L384.48,474.1L385.17,474.41L385.86,473.25L386.55,473.25L387.24,473.25L387.93,473.66L388.61,473.66L389.3,473.66L389.99,473.66L390.68,473.66L391.37,473.66L392.06,473.66L392.75,473.66L393.43,473.97L394.12,473.97L394.81,473.97L395.5,473.97L396.19,473.97L396.88,475.2L397.57,475.2L398.26,476.74L398.94,476.74L399.63,476.74L400.32,476.74L401.01,476.74L401.7,476.74L402.39,478.28L403.08,478.28L403.76,478.28L404.45,478.28L405.14,478.28L405.83,478.13L406.52,478.13L407.21,478.04L407.9,477.73L408.58,477.73L409.27,477.73L409.96,477.73L410.65,478.04L411.34,478.04L412.03,478.04L412.72,478.04L413.41,478.04L414.09,479.29L414.78,479.29L415.47,479.29L416.16,479.29L416.85,479.29L417.54,479.29L418.23,479.58L418.91,480.57L419.6,480.57L420.29,480.57L420.98,480.57L421.67,480.57L422.36,480.57L423.05,480.57L423.73,480.57L424.42,480.57L425.11,480.57L425.8,480.57L426.49,480.57L427.18,480.57L427.87,480.88L428.56,482.42L429.24,482.42L429.93,482.42L430.62,483.96L431.31,483.96L432,483.96L432.69,483.96L433.38,483.96L434.06,483.96L434.75,483.96L435.44,483.96L436.13,484.27L436.82,484.27L437.51,484.27L438.2,484.27L438.88,485.21L439.57,485.21L440.26,485.21L440.95,485.22L441.64,485.22L442.33,485.22L443.02,485.22L443.7,485.22L444.39,485.53L445.08,485.53L445.77,485.53L446.46,485.53L447.15,486.51L447.84,488.17L448.53,488.48L449.21,488.48L449.9,488.48L450.59,488.48L451.28,488.48L451.97,488.48L452.66,489.4L453.35,489.4L454.03,489.4L454.72,489.4L455.41,489.4L456.1,489.4L456.79,489.4L457.48,489.4L458.17,489.71L458.85,489.71L459.54,489.71L460.23,489.71L460.92,490.09L461.61,490.09L462.3,490.09L462.99,490.09L463.68,490.09L464.36,491.68L465.05,491.68L465.74,491.68L466.43,491.68L467.12,491.68L467.81,491.68L468.5,493.24L469.18,494.16L469.87,494.16L470.56,494.16L471.25,494.16L471.94,494.16L472.63,494.16L473.32,494.16L474,494.16L474.69,494.16L475.38,494.16L476.07,494.16L476.76,494.16L477.45,494.47L478.14,494.76L478.83,494.76L479.51,494.76L480.2,494.76L480.89,495.68L481.58,495.68L482.27,495.68L482.96,495.68L483.65,495.68L484.33,495.68L485.02,496.62L485.71,496.62L486.4,496.62L487.09,496.95L487.78,497.89L488.47,497.89L489.15,497.89L489.84,497.89L490.53,497.89L491.22,497.89L491.91,498.2L492.6,498.2L493.29,499.82L493.98,499.82L494.66,499.82L495.35,499.82L496.04,498.9L496.73,498.9L497.42,498.9L498.11,500.44L498.8,500.44L499.48,501.38L500.17,501.38L500.86,501.38L501.55,501.38L502.24,501.38L502.93,501.38L503.62,501.38L504.3,502.3L504.99,502.3L505.68,502.3L506.37,502.61L507.06,502.61L507.75,502.61L508.44,502.61L509.12,502.61L509.81,502.61L510.5,502.61L511.19,502.61L511.88,502.61L512.57,502.61L513.26,504.15L513.95,504.15L514.63,504.15L515.32,504.15L516.01,504.15L516.7,504.15L517.39,504.15L518.08,504.15L518.77,504.15L519.45,504.15L520.14,504.15L520.83,503.21L521.52,503.21L522.21,503.52L522.9,503.52L523.59,503.52L524.27,503.52L524.96,503.52L525.65,503.52L526.34,503.52L527.03,503.52L527.72,503.52L528.41,504.46L529.1,504.46L529.78,505.42L530.47,505.42L531.16,506.34L531.85,506.34L532.54,506.34L533.23,506.34L533.92,506.34L534.6,506.34L535.29,507.28L535.98,507.28L536.67,507.28L537.36,507.28L538.05,507.28L538.74,507.28L539.42,507.28L540.11,507.59L540.8,507.59L541.49,507.59L542.18,507.59L542.87,507.88L543.56,507.88L544.25,507.88L544.93,507.88L545.62,509.41L546.31,509.41L547,509.41L547.69,509.41L548.38,509.78L549.07,511.01L549.75,513.2L550.44,513.2L551.13,513.2L551.82,512.29L552.51,512.29L553.2,512.29L553.89,512.29L554.57,512.29L555.26,512.29L555.95,512.29L556.64,513.3L557.33,513.3L558.02,513.3L558.71,513.3L559.39,513.3L560.08,514.53L560.77,515.47L561.46,516.27L562.15,516.27L562.84,516.27L563.53,516.27L564.22,516.27L564.9,516.58L565.59,516.58L566.28,516.58L566.97,516.11L567.66,516.11L568.35,516.34L569.04,516.34L569.72,516.34L570.41,516.34L571.1,516.34L571.79,516.34L572.48,517.27L573.17,517.27L573.86,518.5L574.54,518.5L575.23,520.03L575.92,520.03L576.61,520.03L577.3,520.03L577.99,520.03L578.68,520.03L579.37,520.03L580.05,521.28L580.74,522.21L581.43,522.21L582.12,522.21L582.81,522.21L583.5,522.21L584.19,522.21L584.87,522.21L585.56,522.21L586.25,522.21L586.94,522.82L587.63,522.82L588.32,523.13L589.01,523.13L589.69,523.27L590.38,524.81L591.07,524.81L591.76,524.81L592.45,524.83L593.14,526.08L593.83,526.08L594.52,526.08L595.2,526.08L595.89,527L596.58,527L597.27,527L597.96,527L598.65,527L599.34,527L600.02,528.23L600.71,528.23L601.4,528.23L602.09,528.23L602.78,528.23L603.47,529.48L604.16,529.48L604.84,532.93L605.53,534.2L606.22,534.13L606.91,534.13L607.6,532.48L608.29,532.48L608.98,532.48L609.67,532.48L610.35,532.48L611.04,533.1L611.73,533.1L612.42,533.1L613.11,533.1L613.8,534.33L614.49,534.33L615.17,534.33L615.86,534.33L616.55,534.33L617.24,534.33L617.93,534.33L618.62,535.58L619.31,535.88L619.99,535.88L620.68,536.5L621.37,536.5L622.06,536.5L622.75,536.5L623.44,536.5L624.13,536.5L624.81,536.5L625.5,536.5L626.19,537.75L626.88,537.75L627.57,538.98L628.26,538.98L628.95,538.98L629.64,538.98L630.32,538.98L631.01,538.98L631.7,538.98L632.39,538.98L633.08,538.98L633.77,541.15L634.46,542.38L635.14,542.38L635.83,542.38L636.52,542.38L637.21,542.38L637.9,542.38L638.59,542.38L639.28,542.38L639.96,542.38L640.65,542.38L641.34,543.61L642.03,543.61L642.72,543.61L643.41,543.61L644.1,543.61L644.79,543.61L645.47,543.61L646.16,543.61L646.85,543.61L647.54,543.61L648.23,545.16L648.92,545.16L649.61,546.39L650.29,546.39L650.98,546.39L651.67,546.39L652.36,546.39L653.05,546.39L653.74,546.39L654.43,546.39L655.11,547.64L655.8,547.64L656.49,547.64L657.18,548.89L657.87,548.89L658.56,548.89L659.25,548.89L659.94,548.89L660.62,551.95L661.31,557.3L662,557.3L662.69,557.3L663.38,562.24L664.07,562.24L664.76,562.24L665.44,562.24L666.13,562.24L666.82,562.24L667.51,570.98L668.2,570.98L668.89,570.98L669.58,570.98L670.26,570.98L670.95,581.17L671.64,581.17L672.33,581.17L673.02,581.17L673.71,581.17L674.4,581.17L675.08,595.3L675.77,596.65L676.46,596.65L677.15,596.65L677.84,596.65L678.53,596.65L679.22,596.65L679.91,596.65L680.59,596.65L681.28,596.65L681.97,596.93L682.66,596.93L683.35,596.93L684.04,596.94L684.73,596.94L685.41,596.94L686.1,596.94L686.79,596.94L687.48,596.94L688.17,596.94L688.86,596.08L689.55,596.08L690.23,596.08L690.92,596.08L691.61,595.84L692.3,595.89L692.99,595.89L693.68,595.89L694.37,595.89L695.06,595.89L695.74,595.89L696.43,595.89L697.12,595.89L697.81,595.89L698.5,595.89L699.19,595.89L699.88,595.89L700.56,595.89L701.25,595.89L701.94,595.89L702.63,595.59L703.32,595.59L704.01,595.59L704.7,595.59L705.38,594.97L706.07,594.97L706.76,594.97L707.45,594.97L708.14,594.97L708.83,594.97L709.52,594.97L710.21,594.97L710.89,594.97L711.58,594.97L712.27,594.97L712.96,594.97L713.65,594.97L714.34,594.97L715.03,594.97L715.71,594.97L716.4,594.03L717.09,595.28L717.78,595.28L718.47,595.28L719.16,595.28L719.85,595.28L720.53,595.28L721.22,595.28L721.91,595.28L722.6,595.28L723.29,595.28L723.98,595.28L724.67,595.28L725.36,595.28L726.04,594.65L726.73,594.65L727.42,594.65L728.11,594.65L728.8,596.2L729.49,597.43L730.18,597.43L730.86,597.43L731.55,597.43L732.24,597.43L732.93,598.26L733.62,598.26L734.31,598.26L735,598.26L735.68,598.88L736.37,598.88L737.06,598.88L737.75,600.27L738.44,602.73L739.13,602.73L739.82,602.73L740.5,601.3L741.19,601.3L741.88,602.55L742.57,602.86L743.26,602.86L743.95,602.86L744.64,602.86L745.33,602.86L746.01,602.86L746.7,602.25L747.39,602.25L748.08,602.25L748.77,602.25L749.46,602.25L750.15,602.25L750.83,602.25L751.52,602.25L752.21,602.25L752.9,602.25L753.59,603.48L754.28,603.48L754.97,604.71L755.65,606.24L756.34,606.24L757.03,606.24L757.72,606.24L758.41,608.41L759.1,608.41L759.79,608.41L760.48,608.41L761.16,609.03L761.85,609.03L762.54,609.03L763.23,609.03L763.92,609.03L764.61,609.03L765.3,609.03L765.98,609.03L766.67,609.03L767.36,610.26L768.05,610.88L768.74,610.88L769.43,610.88L770.12,610.88L770.8,610.88L771.49,610.88L772.18,610.26L772.87,610.26L773.56,610.26L774.25,610.26L774.94,611.49L775.63,611.49L776.31,611.49L777,611.49L777.69,611.49L778.38,611.49L779.07,611.49L779.76,612.72L780.45,612.72L781.13,613.34L781.82,613.34L782.51,613.34L783.2,613.34L783.89,614.89L784.58,614.89L785.27,614.89L785.95,616.12L786.64,616.12L787.33,616.12L788.02,617.35L788.71,617.35L789.4,617.35L790.09,617.35L790.77,617.35L791.46,617.35L792.15,617.97L792.84,617.97L793.53,617.97L794.22,617.97L794.91,617.97L795.6,619.2L796.28,619.51L796.97,619.51L797.66,619.51L798.35,619.51L799.04,619.51L799.73,619.51L800.42,619.51L801.1,619.51L801.79,620.72L802.48,621.95L803.17,621.95L803.86,621.95L804.55,623.18L805.24,623.18L805.92,623.18L806.61,623.18L807.3,623.18L807.99,624.73L808.68,624.73L809.37,624.1L810.06,624.1L810.75,624.1L811.43,625.35L812.12,625.35L812.81,625.35L813.5,625.35L814.19,625.35L814.88,625.35L815.57,625.35L816.25,626.58L816.94,627.81L817.63,627.81L818.32,627.81L819.01,627.81L819.7,628.12L820.39,628.12L821.07,628.12L821.76,628.12L822.45,628.26L823.14,629.49L823.83,629.49L824.52,629.49L825.21,629.49L825.9,629.49L826.58,629.49L827.27,629.49L827.96,630.74L828.65,633.2L829.34,633.2L830.03,634.45L830.72,634.45L831.4,635.37L832.09,635.37L832.78,635.37L833.47,635.37L834.16,635.37L834.85,635.37L835.54,635.37L836.22,635.37L836.91,635.37L837.6,636.6L838.29,636.6L838.98,636.6L839.67,636.6L840.36,636.6L841.05,636.6L841.73,636.6L842.42,638.16L843.11,638.16L843.8,639.39L844.49,639.39L845.18,639.39L845.87,639.39L846.55,640.62L847.24,640.62L847.93,640.62L848.62,640.62L849.31,640.62L850,640.62L850.69,640.62L851.37,640.62L852.06,640.62L852.75,641.85L853.44,643.08L854.13,643.08L854.82,643.08L855.51,643.08L856.19,643.08L856.88,643.08L857.57,643.71L858.26,643.71L858.95,644.94L859.64,644.94L860.33,644.94L861.02,644.94L861.7,644.94L862.39,644.94L863.08,644.94L863.77,644.94L864.46,645.56L865.15,646.79L865.84,646.79L866.52,646.79L867.21,646.79L867.9,646.79L868.59,646.79L869.28,646.79L869.97,646.79L870.66,646.79L871.34,646.79L872.03,649.39L872.72,649.39L873.41,649.39L874.1,649.39L874.79,649.39L875.48,649.39L876.17,651.87L876.85,651.87L877.54,651.87L878.23,653.1L878.92,654.33L879.61,654.33L880.3,654.33L880.99,654.33L881.67,654.33L882.36,654.33L883.05,654.33L883.74,654.33L884.43,655.56L885.12,655.56L885.81,656.79L886.49,656.79L887.18,657.41L887.87,657.41L888.56,657.41L889.25,657.41L889.94,657.41L890.63,657.41L891.32,657.41L892,657.41L892.69,657.41L893.38,657.41L894.07,657.41L894.76,657.41L895.45,657.41L896.14,657.41L896.82,658.66L897.51,658.66L898.2,659.89L898.89,659.89L899.58,661.12L900.27,661.12L900.96,661.12L901.64,661.12L902.33,662.37L903.02,662.37L903.71,662.37L904.4,662.37L905.09,662.37L905.78,662.37L906.46,663.6L907.15,663.6L907.84,663.6L908.53,667.3L909.22,667.3L909.91,667.3L910.6,667.3L911.29,667.3L911.97,667.3L912.66,667.3L913.35,668.54L914.04,668.54L914.73,667.92L915.42,667.92L916.11,667.92L916.79,667.92L917.48,667.92L918.17,667.92L918.86,667.92L919.55,669.87L920.24,669.87L920.93,671.1L921.61,671.1L922.3,671.1L922.99,671.1L923.68,671.1L924.37,671.1L925.06,671.1L925.75,671.1L926.44,671.1L927.12,673.58L927.81,673.58L928.5,673.58L929.19,673.58L929.88,673.58L930.57,674.81L931.26,674.81L931.94,674.81L932.63,674.81L933.32,677.38L934.01,677.38L934.7,677.38L935.39,677.38L936.08,678.83L936.76,678.83L937.45,678.83L938.14,678.83L938.83,678.83L939.52,678.83L940.21,682.52L940.9,682.61L941.59,685.07L942.27,685.07L942.96,685.07L943.65,685.07L944.34,685.07L945.03,685.07L945.72,686.39L946.41,686.39L947.09,686.39L947.78,686.39L948.47,686.39L949.16,686.39L949.85,686.39L950.54,686.39L951.23,686.39L951.91,686.84L952.6,687.46L953.29,687.46L953.98,687.46L954.67,687.46L955.36,687.46L956.05,687.46L956.74,688.69L957.42,688.69L958.11,690.35L958.8,690.35L959.49,690.35L960.18,690.35L960.87,690.35L961.56,690.35L962.24,690.35L962.93,690.35L963.62,695.49L964.31,696.72L965,696.72L965.69,696.72L966.38,696.72L967.06,696.72L967.75,696.72L968.44,696.72L969.13,696.72L969.82,697.97L970.51,697.97L971.2,697.97L971.88,697.97L972.57,697.97L973.26,697.97L973.95,697.74L974.64,697.74L975.33,697.74L976.02,700.21L976.71,700.21L977.39,700.21L978.08,700.21L978.77,700.21L979.46,700.21L980.15,700.21L980.84,700.21L981.53,700.21L982.21,701.44" style="fill:none;stroke:#7AC36A;stroke-width:1.875;stroke-dasharray:7.5,2.5" />
<path d="M1055,694.3L1080,694.3" style="fill:none;stroke:#F15A60;stroke-width:1.875" />
<text x="1002.5" y="-687.85" transform="scale(1, -1)"
	style="font-family:Helvetica;font-weight:normal;font-style:normal;font-size:12pt">etcd v3</text>
<path d="M1055,680L1080,680" style="fill:none;stroke:#7AC36A;stroke-width:1.875;stroke-dasharray:7.5,2.5" />
<text x="941.6" y="-673.56" transform="scale(1, -1)"
	style="font-family:Helvetica;font-weight:normal;font-style:normal;font-size:12pt">Zookeeper 3.4.8</text>
</g>
</svg>
