<?xml version="1.0"?>
<!-- Generated by SVGo and Plotinum VG -->
<svg width="12in" height="8in"
	xmlns="http://www.w3.org/2000/svg"
	xmlns:xlink="http://www.w3.org/1999/xlink">
<g transform="scale(1, -1) translate(0, -720)">
<path d="M0,0L1080,0L1080,720L0,720Z" style="fill:#FFFFFF" />
<text x="334.49" y="-706.41" transform="scale(1, -1)"
	style="font-family:Helvetica;font-weight:normal;font-style:normal;font-size:12pt">Write 300K keys, 1 client, key 64 bytes, value 256 bytes, CPU</text>
<text x="542.41" y="-4.965" transform="scale(1, -1)"
	style="font-family:Helvetica;font-weight:normal;font-style:normal;font-size:12pt">second</text>
<text x="49.712" y="-19.142" transform="scale(1, -1)"
	style="font-family:Helvetica;font-weight:normal;font-style:normal;font-size:10pt">0</text>
<text x="326.8" y="-19.142" transform="scale(1, -1)"
	style="font-family:Helvetica;font-weight:normal;font-style:normal;font-size:10pt">400</text>
<text x="610.85" y="-19.142" transform="scale(1, -1)"
	style="font-family:Helvetica;font-weight:normal;font-style:normal;font-size:10pt">800</text>
<text x="891.41" y="-19.142" transform="scale(1, -1)"
	style="font-family:Helvetica;font-weight:normal;font-style:normal;font-size:10pt">1200</text>
<path d="M53.188,30.467L53.188,40.467" style="fill:none;stroke:#000000;stroke-width:0.625" />
<path d="M337.23,30.467L337.23,40.467" style="fill:none;stroke:#000000;stroke-width:0.625" />
<path d="M621.27,30.467L621.27,40.467" style="fill:none;stroke:#000000;stroke-width:0.625" />
<path d="M905.31,30.467L905.31,40.467" style="fill:none;stroke:#000000;stroke-width:0.625" />
<path d="M195.21,35.468L195.21,40.467" style="fill:none;stroke:#000000;stroke-width:0.625" />
<path d="M479.25,35.468L479.25,40.467" style="fill:none;stroke:#000000;stroke-width:0.625" />
<path d="M763.29,35.468L763.29,40.467" style="fill:none;stroke:#000000;stroke-width:0.625" />
<path d="M1047.3,35.468L1047.3,40.467" style="fill:none;stroke:#000000;stroke-width:0.625" />
<path d="M53.188,40.467L1080,40.467" style="fill:none;stroke:#000000;stroke-width:0.625" />
<g transform="rotate(90)">
<text x="358.4" y="13.59" transform="scale(1, -1)"
	style="font-family:Helvetica;font-weight:normal;font-style:normal;font-size:12pt">CPU</text>
</g>
<text x="25.505" y="-163.93" transform="scale(1, -1)"
	style="font-family:Helvetica;font-weight:normal;font-style:normal;font-size:10pt">6</text>
<text x="18.555" y="-374.12" transform="scale(1, -1)"
	style="font-family:Helvetica;font-weight:normal;font-style:normal;font-size:10pt">12</text>
<text x="18.555" y="-584.32" transform="scale(1, -1)"
	style="font-family:Helvetica;font-weight:normal;font-style:normal;font-size:10pt">18</text>
<path d="M35.93,169.29L45.93,169.29" style="fill:none;stroke:#000000;stroke-width:0.625" />
<path d="M35.93,379.49L45.93,379.49" style="fill:none;stroke:#000000;stroke-width:0.625" />
<path d="M35.93,589.69L45.93,589.69" style="fill:none;stroke:#000000;stroke-width:0.625" />
<path d="M40.93,99.229L45.93,99.229" style="fill:none;stroke:#000000;stroke-width:0.625" />
<path d="M40.93,239.36L45.93,239.36" style="fill:none;stroke:#000000;stroke-width:0.625" />
<path d="M40.93,309.43L45.93,309.43" style="fill:none;stroke:#000000;stroke-width:0.625" />
<path d="M40.93,449.56L45.93,449.56" style="fill:none;stroke:#000000;stroke-width:0.625" />
<path d="M40.93,519.62L45.93,519.62" style="fill:none;stroke:#000000;stroke-width:0.625" />
<path d="M40.93,659.76L45.93,659.76" style="fill:none;stroke:#000000;stroke-width:0.625" />
<path d="M45.93,47.03L45.93,701.44" style="fill:none;stroke:#000000;stroke-width:0.625" />
<path d="M53.188,50.183L53.898,76.458L54.608,100.28L55.318,125.5L56.028,148.98L56.738,169.65L57.448,188.91L58.158,207.13L58.868,225.35L59.578,240.41L60.289,253.37L60.999,269.14L61.709,281.75L62.419,293.66L63.129,305.92L63.839,316.78L64.549,327.99L65.259,337.45L65.969,346.91L66.68,356.02L67.39,365.13L68.1,372.84L68.81,380.89L69.52,388.25L70.23,394.91L70.94,401.56L71.65,408.92L72.36,415.58L73.07,421.18L73.781,427.14L74.491,431.69L75.201,437.3L75.911,441.85L76.621,446.41L77.331,451.31L78.041,456.56L78.751,460.77L79.461,463.57L80.172,467.43L80.882,472.33L81.592,475.83L82.302,478.99L83.012,482.49L83.722,485.29L84.432,488.44L85.142,490.9L85.852,494.05L86.562,496.85L87.273,499.31L87.983,503.86L88.693,505.96L89.403,508.06L90.113,510.52L90.823,513.32L91.533,515.42L92.243,517.52L92.953,520.32L93.664,522.43L94.374,524.18L95.084,525.93L95.794,528.03L96.504,529.78L97.214,531.18L97.924,533.99L98.634,535.39L99.344,536.79L100.05,538.19L100.76,540.29L101.47,541.69L102.18,542.75L102.89,544.15L103.6,545.55L104.32,548.35L105.03,549.4L105.74,551.15L106.45,552.2L107.16,552.91L107.87,554.31L108.58,554.66L109.29,555.01L110,555.71L110.71,556.41L111.42,557.46L112.13,558.51L112.84,559.56L113.55,560.96L114.26,561.66L114.97,563.42L115.68,564.12L116.39,565.17L117.1,565.87L117.81,566.92L118.52,567.97L119.23,569.72L119.94,570.42L120.65,571.82L121.36,572.52L122.07,573.57L122.78,573.93L123.49,575.68L124.2,576.73L124.91,577.43L125.62,578.13L126.33,578.83L127.04,580.58L127.75,581.28L128.46,581.98L129.17,582.68L129.88,583.38L130.59,584.44L131.3,585.14L132.01,585.84L132.72,586.54L133.43,586.89L134.14,587.94L134.85,588.99L135.56,589.69L136.27,590.39L136.98,591.09L137.69,592.49L138.4,593.54L139.11,594.24L139.82,594.59L140.53,594.94L141.24,595.65L141.95,596.35L142.66,596.7L143.37,596.7L144.08,597.4L144.79,597.75L145.5,598.8L146.21,599.15L146.92,599.5L147.63,600.2L148.34,600.55L149.05,601.25L149.76,602.3L150.47,603.35L151.18,603.7L151.89,604.4L152.6,604.75L153.31,605.45L154.02,606.86L154.73,607.21L155.44,607.91L156.15,608.26L156.86,608.61L157.57,609.31L158.28,610.71L158.99,611.06L159.7,611.76L160.41,612.81L161.12,613.16L161.83,613.51L162.54,614.91L163.25,615.61L163.96,615.61L164.67,615.96L165.38,616.67L166.09,618.07L166.8,618.42L167.51,618.42L168.22,618.77L168.93,619.12L169.64,619.82L170.35,620.52L171.07,620.87L171.78,620.87L172.49,621.22L173.2,621.57L173.91,621.57L174.62,622.27L175.33,622.62L176.04,622.97L176.75,623.32L177.46,624.02L178.17,624.37L178.88,624.72L179.59,625.77L180.3,625.77L181.01,626.12L181.72,626.47L182.43,626.82L183.14,627.18L183.85,628.23L184.56,628.23L185.27,628.58L185.98,628.58L186.69,629.28L187.4,629.63L188.11,630.33L188.82,630.33L189.53,630.33L190.24,631.03L190.95,631.03L191.66,631.38L192.37,631.73L193.08,632.43L193.79,633.13L194.5,633.48L195.21,633.83L195.92,633.83L196.63,634.53L197.34,635.23L198.05,635.58L198.76,635.93L199.47,636.63L200.18,636.63L200.89,636.98L201.6,637.69L202.31,637.69L203.02,637.69L203.73,638.04L204.44,638.39L205.15,638.39L205.86,639.09L206.57,639.44L207.28,639.79L207.99,639.79L208.7,639.79L209.41,639.79L210.12,639.79L210.83,640.49L211.54,640.84L212.25,640.84L212.96,641.19L213.67,641.19L214.38,641.19L215.09,641.89L215.8,642.59L216.51,642.59L217.22,642.59L217.93,642.94L218.64,643.29L219.35,643.29L220.06,643.29L220.77,643.99L221.48,644.34L222.19,644.69L222.9,645.04L223.61,645.04L224.32,645.39L225.03,645.39L225.74,646.44L226.45,646.44L227.16,646.79L227.87,646.44L228.58,646.79L229.29,646.79L230,646.79L230.71,647.49L231.42,647.49L232.13,647.14L232.84,647.14L233.55,647.49L234.26,647.84L234.97,647.84L235.68,647.84L236.39,647.84L237.1,648.19L237.81,648.19L238.53,648.55L239.24,648.19L239.95,648.9L240.66,649.25L241.37,649.25L242.08,649.25L242.79,649.25L243.5,649.25L244.21,649.6L244.92,649.95L245.63,649.95L246.34,649.95L247.05,649.95L247.76,650.3L248.47,650.65L249.18,650.65L249.89,650.65L250.6,651L251.31,651L252.02,651.35L252.73,651.7L253.44,651.7L254.15,651.7L254.86,651.7L255.57,652.4L256.28,652.75L256.99,652.75L257.7,653.1L258.41,652.75L259.12,652.75L259.83,652.75L260.54,653.45L261.25,653.8L261.96,653.8L262.67,653.8L263.38,653.8L264.09,654.15L264.8,654.5L265.51,654.85L266.22,655.2L266.93,655.2L267.64,655.55L268.35,655.55L269.06,655.55L269.77,655.55L270.48,655.9L271.19,656.25L271.9,656.6L272.61,656.95L273.32,656.6L274.03,656.6L274.74,656.6L275.45,656.95L276.16,657.3L276.87,657.3L277.58,657.3L278.29,657.3L279,657.3L279.71,657.3L280.42,657.65L281.13,658.35L281.84,658.35L282.55,658.35L283.26,658.35L283.97,658.35L284.68,658.7L285.39,658.7L286.1,659.06L286.81,659.06L287.52,659.06L288.23,659.06L288.94,659.41L289.65,659.41L290.36,659.76L291.07,659.41L291.78,659.76L292.49,660.11L293.2,660.11L293.91,660.46L294.62,660.11L295.33,660.11L296.04,660.11L296.75,660.11L297.46,660.46L298.17,660.81L298.88,661.16L299.59,661.16L300.3,661.51L301.01,661.51L301.72,661.51L302.43,661.51L303.14,661.51L303.85,661.86L304.56,661.51L305.27,661.86L305.99,661.86L306.7,661.86L307.41,661.86L308.12,661.51L308.83,661.51L309.54,662.21L310.25,662.21L310.96,662.21L311.67,662.21L312.38,662.21L313.09,662.21L313.8,661.86L314.51,662.21L315.22,662.56L315.93,662.56L316.64,662.56L317.35,662.21L318.06,662.21L318.77,662.21L319.48,662.56L320.19,662.56L320.9,662.91L321.61,662.56L322.32,662.91L323.03,662.91L323.74,662.91L324.45,662.91L325.16,662.91L325.87,662.91L326.58,663.26L327.29,663.61L328,663.61L328.71,663.96L329.42,663.96L330.13,663.96L330.84,663.96L331.55,663.96L332.26,664.31L332.97,664.66L333.68,664.66L334.39,664.66L335.1,664.66L335.81,664.66L336.52,664.66L337.23,664.66L337.94,665.01L338.65,665.01L339.36,665.36L340.07,665.36L340.78,665.01L341.49,665.01L342.2,665.36L342.91,665.36L343.62,665.36L344.33,666.06L345.04,666.06L345.75,666.06L346.46,666.41L347.17,666.06L347.88,666.41L348.59,666.06L349.3,666.06L350.01,666.41L350.72,666.76L351.43,666.76L352.14,666.76L352.85,666.76L353.56,666.76L354.27,666.76L354.98,666.76L355.69,667.11L356.4,667.11L357.11,667.11L357.82,666.76L358.53,666.76L359.24,666.76L359.95,666.41L360.66,666.41L361.37,666.41L362.08,666.06L362.79,666.41L363.5,666.41L364.21,666.06L364.92,665.71L365.63,665.71L366.34,665.71L367.05,665.71L367.76,665.71L368.47,665.36L369.18,666.06L369.89,666.06L370.6,666.06L371.31,666.41L372.02,666.41L372.73,666.06L373.45,666.06L374.16,666.06L374.87,666.76L375.58,666.76L376.29,666.76L377,666.76L377.71,666.76L378.42,666.76L379.13,666.76L379.84,667.11L380.55,667.11L381.26,667.11L381.97,667.46L382.68,667.46L383.39,667.46L384.1,667.46L384.81,667.81L385.52,667.81L386.23,667.81L386.94,668.16L387.65,668.51L388.36,668.86L389.07,668.86L389.78,668.86L390.49,668.86L391.2,669.21L391.91,669.21L392.62,669.21L393.33,669.21L394.04,669.57L394.75,669.57L395.46,669.92L396.17,670.27L396.88,669.92L397.59,669.92L398.3,669.92L399.01,669.57L399.72,669.57L400.43,669.92L401.14,669.92L401.85,670.27L402.56,670.27L403.27,669.92L403.98,669.92L404.69,669.92L405.4,669.92L406.11,669.92L406.82,670.27L407.53,670.27L408.24,670.62L408.95,670.62L409.66,670.27L410.37,670.62L411.08,670.62L411.79,670.62L412.5,670.62L413.21,670.62L413.92,670.97L414.63,670.97L415.34,671.32L416.05,670.97L416.76,671.32L417.47,670.97L418.18,670.97L418.89,670.97L419.6,671.32L420.31,671.32L421.02,671.67L421.73,671.67L422.44,671.67L423.15,671.67L423.86,671.67L424.57,671.67L425.28,671.67L425.99,672.02L426.7,672.02L427.41,672.37L428.12,672.72L428.83,672.72L429.54,672.37L430.25,672.37L430.96,672.72L431.67,672.37L432.38,672.72L433.09,672.72L433.8,672.72L434.51,672.72L435.22,673.07L435.93,673.07L436.64,673.77L437.35,673.77L438.06,673.77L438.77,673.77L439.48,673.77L440.19,673.77L440.91,673.77L441.62,674.12L442.33,674.47L443.04,674.47L443.75,674.47L444.46,674.47L445.17,674.47L445.88,674.47L446.59,674.47L447.3,674.82L448.01,674.82L448.72,674.82L449.43,675.17L450.14,675.17L450.85,675.17L451.56,675.17L452.27,675.17L452.98,675.52L453.69,675.52L454.4,675.52L455.11,675.87L455.82,675.87L456.53,675.87L457.24,675.87L457.95,675.87L458.66,676.22L459.37,676.22L460.08,675.87L460.79,675.87L461.5,675.87L462.21,675.87L462.92,676.22L463.63,676.57L464.34,676.57L465.05,676.57L465.76,676.92L466.47,676.92L467.18,676.57L467.89,676.92L468.6,676.92L469.31,676.92L470.02,677.27L470.73,677.27L471.44,677.62L472.15,677.62L472.86,677.62L473.57,677.62L474.28,677.62L474.99,677.97L475.7,677.97L476.41,677.97L477.12,678.32L477.83,678.32L478.54,678.32L479.25,678.67L479.96,678.67L480.67,678.67L481.38,678.67L482.09,678.67L482.8,678.67L483.51,678.67L484.22,678.67L484.93,678.67L485.64,678.67L486.35,679.02L487.06,679.02L487.77,678.67L488.48,678.67L489.19,678.67L489.9,679.02L490.61,678.67L491.32,678.67L492.03,679.02L492.74,679.37L493.45,679.37L494.16,679.37L494.87,679.02L495.58,679.02L496.29,679.02L497,679.02L497.71,679.02L498.42,679.37L499.13,679.37L499.84,679.37L500.55,679.72L501.26,679.72L501.97,679.72L502.68,679.72L503.39,679.72L504.1,679.72L504.81,679.72L505.52,679.72L506.23,679.72L506.94,679.72L507.65,680.07L508.37,680.07L509.08,680.07L509.79,680.43L510.5,680.43L511.21,680.43L511.92,680.43L512.63,680.43L513.34,680.43L514.05,680.43L514.76,680.43L515.47,680.43L516.18,680.78L516.89,680.78L517.6,680.43L518.31,680.43L519.02,680.78L519.73,680.43L520.44,680.78L521.15,680.78L521.86,680.78L522.57,681.13L523.28,681.13L523.99,681.48L524.7,681.48L525.41,681.48L526.12,681.48L526.83,681.48L527.54,681.48L528.25,681.48L528.96,681.48L529.67,681.48L530.38,681.83L531.09,681.83L531.8,681.83L532.51,681.83L533.22,681.83L533.93,682.18L534.64,682.18L535.35,682.18L536.06,682.18L536.77,681.83L537.48,681.83L538.19,681.83L538.9,681.83L539.61,681.83L540.32,682.18L541.03,682.18L541.74,682.18L542.45,682.18L543.16,682.18L543.87,682.18L544.58,682.18L545.29,682.18L546,682.18L546.71,682.53L547.42,682.18L548.13,682.53L548.84,682.18L549.55,682.18L550.26,682.18L550.97,682.18L551.68,682.18L552.39,682.18L553.1,682.18L553.81,682.18L554.52,682.18L555.23,682.18L555.94,682.53L556.65,682.53L557.36,682.53L558.07,682.53L558.78,682.88L559.49,682.53L560.2,682.88L560.91,682.53L561.62,682.88L562.33,682.88L563.04,682.88L563.75,682.88L564.46,683.23L565.17,683.23L565.88,683.23L566.59,683.23L567.3,683.23L568.01,683.23L568.72,683.23L569.43,683.23L570.14,683.23L570.85,683.23L571.56,683.58L572.27,683.58L572.98,683.93L573.69,683.93L574.4,683.93L575.12,683.93L575.83,683.93L576.54,683.93L577.25,683.93L577.96,683.93L578.67,684.28L579.38,684.28L580.09,684.28L580.8,684.63L581.51,684.63L582.22,684.63L582.93,684.63L583.64,684.63L584.35,684.98L585.06,684.98L585.77,684.98L586.48,684.98L587.19,684.98L587.9,684.98L588.61,684.98L589.32,685.33L590.03,685.33L590.74,685.33L591.45,685.68L592.16,685.68L592.87,685.68L593.58,685.68L594.29,685.68L595,685.68L595.71,685.68L596.42,686.03L597.13,686.03L597.84,686.38L598.55,686.38L599.26,686.38L599.97,686.38L600.68,686.03L601.39,686.03L602.1,686.03L602.81,686.03L603.52,686.03L604.23,686.03L604.94,686.38L605.65,686.38L606.36,686.38L607.07,686.73L607.78,686.73L608.49,686.73L609.2,686.73L609.91,686.73L610.62,686.73L611.33,686.73L612.04,687.08L612.75,686.73L613.46,687.08L614.17,687.08L614.88,687.08L615.59,687.08L616.3,687.08L617.01,687.08L617.72,687.43L618.43,687.43L619.14,687.43L619.85,687.43L620.56,687.43L621.27,687.43L621.98,687.43L622.69,687.43L623.4,687.78L624.11,687.78L624.82,687.78L625.53,687.78L626.24,687.78L626.95,687.78L627.66,687.78L628.37,687.78L629.08,687.78L629.79,687.78L630.5,687.78L631.21,688.48L631.92,688.48L632.63,688.48L633.34,688.48L634.05,688.48L634.76,688.48L635.47,688.48L636.18,688.48L636.89,688.48L637.6,688.48L638.31,688.83L639.02,688.83L639.73,688.83L640.44,688.83L641.15,688.83L641.86,689.18L642.58,689.18L643.29,688.83L644,688.83L644.71,688.83L645.42,689.18L646.13,689.18L646.84,689.18L647.55,688.83L648.26,688.83L648.97,688.83L649.68,689.18L650.39,689.18L651.1,689.18L651.81,689.18L652.52,689.53L653.23,689.53L653.94,689.53L654.65,689.53L655.36,689.53L656.07,689.18L656.78,689.53L657.49,689.53L658.2,689.53L658.91,689.53L659.62,689.88L660.33,689.88L661.04,689.53L661.75,689.88L662.46,689.53L663.17,689.53L663.88,689.53L664.59,689.53L665.3,689.53L666.01,689.53L666.72,689.53L667.43,689.88L668.14,689.88L668.85,690.23L669.56,690.23L670.27,689.88L670.98,689.88L671.69,689.88L672.4,689.88L673.11,689.88L673.82,689.53L674.53,689.88L675.24,689.88L675.95,689.88L676.66,689.88L677.37,689.88L678.08,689.88L678.79,690.23L679.5,689.88L680.21,689.88L680.92,689.88L681.63,690.23L682.34,690.23L683.05,690.23L683.76,690.23L684.47,689.88L685.18,689.88L685.89,689.88L686.6,690.23L687.31,690.23L688.02,690.23L688.73,690.58L689.44,690.58L690.15,690.58L690.86,690.58L691.57,690.58L692.28,690.58L692.99,690.58L693.7,690.58L694.41,690.58L695.12,690.58L695.83,690.94L696.54,690.94L697.25,691.29L697.96,691.29L698.67,690.94L699.38,690.94L700.09,690.94L700.8,690.94L701.51,690.94L702.22,690.94L702.93,690.94L703.64,690.94L704.35,690.94L705.06,690.94L705.77,690.94L706.48,690.94L707.19,690.94L707.9,690.94L708.61,690.94L709.32,690.94L710.04,690.94L710.75,690.94L711.46,690.94L712.17,690.94L712.88,690.94L713.59,690.94L714.3,690.94L715.01,690.94L715.72,690.94L716.43,690.94L717.14,691.29L717.85,691.29L718.56,691.64L719.27,691.64L719.98,691.64L720.69,691.64L721.4,691.64L722.11,691.64L722.82,691.29L723.53,691.29L724.24,691.29L724.95,691.64L725.66,691.64L726.37,691.99L727.08,691.99L727.79,691.99L728.5,691.99L729.21,691.99L729.92,691.99L730.63,691.99L731.34,691.99L732.05,691.99L732.76,691.99L733.47,691.99L734.18,691.99L734.89,691.99L735.6,691.99L736.31,691.99L737.02,692.34L737.73,692.34L738.44,692.34L739.15,692.34L739.86,692.34L740.57,692.34L741.28,692.34L741.99,692.34L742.7,692.34L743.41,692.34L744.12,692.34L744.83,692.34L745.54,692.69L746.25,692.69L746.96,692.69L747.67,692.69L748.38,692.69L749.09,692.69L749.8,693.04L750.51,693.04L751.22,693.04L751.93,693.04L752.64,693.04L753.35,693.04L754.06,693.04L754.77,693.04L755.48,693.04L756.19,693.04L756.9,693.39L757.61,693.39L758.32,693.39L759.03,693.39L759.74,693.39L760.45,693.39L761.16,693.74L761.87,693.74L762.58,693.39L763.29,693.39L764,693.39L764.71,693.74L765.42,693.74L766.13,693.74L766.84,693.74L767.55,694.09L768.26,694.09L768.97,694.09L769.68,694.09L770.39,694.09L771.1,694.09L771.81,694.09L772.52,693.74L773.23,694.09L773.94,694.09L774.65,694.09L775.36,694.09L776.07,694.44L776.78,694.44L777.5,694.44L778.21,694.79L778.92,694.44L779.63,694.44L780.34,694.44L781.05,694.79L781.76,694.79L782.47,694.79L783.18,694.44L783.89,694.44L784.6,694.44L785.31,694.44L786.02,694.44L786.73,694.79L787.44,694.79L788.15,694.79L788.86,695.14L789.57,695.14L790.28,695.14L790.99,695.14L791.7,695.14L792.41,694.79L793.12,695.14L793.83,694.79L794.54,695.14L795.25,694.79L795.96,694.79L796.67,695.14L797.38,695.49L798.09,695.49L798.8,695.49L799.51,695.49L800.22,695.49L800.93,695.49L801.64,695.49L802.35,695.49L803.06,695.49L803.77,695.49L804.48,695.49L805.19,695.84L805.9,695.49L806.61,695.49L807.32,695.49L808.03,695.84L808.74,695.84L809.45,695.84L810.16,695.84L810.87,695.84L811.58,695.84L812.29,695.84L813,695.84L813.71,695.84L814.42,695.84L815.13,695.84L815.84,695.84L816.55,695.84L817.26,695.84L817.97,695.84L818.68,695.84L819.39,695.84L820.1,695.84L820.81,695.84L821.52,695.84L822.23,696.19L822.94,696.19L823.65,696.19L824.36,696.19L825.07,696.19L825.78,696.19L826.49,696.19L827.2,696.19L827.91,696.19L828.62,696.19L829.33,696.19L830.04,696.19L830.75,696.19L831.46,696.54L832.17,696.54L832.88,696.89L833.59,696.54L834.3,696.54L835.01,696.54L835.72,696.54L836.43,696.54L837.14,696.54L837.85,696.54L838.56,696.54L839.27,696.54L839.98,696.54L840.69,696.54L841.4,696.54L842.11,696.54L842.82,696.54L843.53,696.54L844.24,696.89L844.96,696.54L845.67,696.54L846.38,696.54L847.09,696.54L847.8,696.54L848.51,696.54L849.22,696.54L849.93,696.54L850.64,696.54L851.35,696.54L852.06,696.54L852.77,696.54L853.48,696.54L854.19,696.54L854.9,696.54L855.61,696.54L856.32,696.89L857.03,696.89L857.74,697.24L858.45,696.89L859.16,696.89L859.87,696.89L860.58,696.89L861.29,696.89L862,696.89L862.71,696.89L863.42,696.89L864.13,696.89L864.84,696.89L865.55,696.89L866.26,697.24L866.97,697.24L867.68,697.24L868.39,697.24L869.1,697.24L869.81,697.24L870.52,697.24L871.23,697.24L871.94,697.24L872.65,697.24L873.36,697.24L874.07,697.24L874.78,697.24L875.49,697.59L876.2,697.59L876.91,697.59L877.62,697.59L878.33,697.59L879.04,697.59L879.75,697.59L880.46,697.59L881.17,697.59L881.88,697.59L882.59,697.59L883.3,697.59L884.01,697.59L884.72,697.59L885.43,697.59L886.14,697.59L886.85,697.94L887.56,697.94L888.27,697.94L888.98,697.94L889.69,697.59L890.4,697.94L891.11,697.94L891.82,697.94L892.53,697.94L893.24,697.94L893.95,698.29L894.66,698.29L895.37,697.94L896.08,697.94L896.79,697.94L897.5,697.94L898.21,697.94L898.92,697.94L899.63,698.29L900.34,698.29L901.05,698.29L901.76,698.29L902.47,698.64L903.18,698.64L903.89,698.64L904.6,698.64L905.31,698.64L906.02,698.64L906.73,698.64L907.44,698.29L908.15,698.29L908.86,698.29L909.57,698.29L910.28,698.29L910.99,698.64L911.71,698.64L912.42,698.64L913.13,698.64L913.84,698.64L914.55,698.99L915.26,698.64L915.97,698.64L916.68,698.64L917.39,698.64L918.1,698.64L918.81,698.64L919.52,698.64L920.23,698.64L920.94,698.64L921.65,698.64L922.36,698.64L923.07,698.99L923.78,698.64L924.49,698.64L925.2,698.64L925.91,698.64L926.62,698.99L927.33,698.99L928.04,698.99L928.75,698.99L929.46,698.99L930.17,698.99L930.88,698.99L931.59,698.99L932.3,698.99L933.01,698.99L933.72,698.99L934.43,698.99L935.14,699.34L935.85,699.34L936.56,699.34L937.27,699.34L937.98,698.99L938.69,699.34L939.4,699.34L940.11,699.34L940.82,699.34L941.53,699.34L942.24,699.34L942.95,699.34L943.66,699.34L944.37,699.34L945.08,699.34L945.79,699.34L946.5,699.34L947.21,699.34L947.92,699.69L948.63,699.69L949.34,699.69L950.05,699.69L950.76,699.69L951.47,699.69L952.18,699.69L952.89,699.69L953.6,699.69L954.31,699.69L955.02,699.69L955.73,699.69L956.44,699.69L957.15,699.69L957.86,699.69L958.57,699.69L959.28,699.69L959.99,699.69L960.7,699.69L961.41,699.69L962.12,699.69L962.83,699.69L963.54,699.69L964.25,700.04L964.96,700.04L965.67,700.04L966.38,700.04L967.09,700.04L967.8,700.04L968.51,700.04L969.22,700.04L969.93,700.04L970.64,700.04L971.35,700.04L972.06,699.69L972.77,700.04L973.48,700.04L974.19,700.04L974.9,700.04L975.61,699.69L976.32,699.69L977.03,700.04L977.74,700.04L978.45,700.04L979.17,700.04L979.88,700.04L980.59,700.04L981.3,700.04L982.01,700.04L982.72,700.04L983.43,700.04L984.14,700.04L984.85,699.69L985.56,699.69L986.27,700.04L986.98,700.04L987.69,700.04L988.4,700.04L989.11,700.04L989.82,700.04L990.53,700.04L991.24,700.04L991.95,700.04L992.66,700.04L993.37,700.04L994.08,700.04L994.79,700.04L995.5,700.04L996.21,700.04L996.92,700.04L997.63,700.04L998.34,700.04L999.05,700.39L999.76,700.39L1000.5,700.04L1001.2,700.04L1001.9,700.04L1002.6,700.04L1003.3,700.39L1004,700.39L1004.7,700.04L1005.4,700.04L1006.1,700.04L1006.9,700.04L1007.6,700.04L1008.3,700.04L1009,700.04L1009.7,700.04L1010.4,700.04L1011.1,700.04L1011.8,700.04L1012.5,700.04L1013.3,700.04L1014,700.04L1014.7,699.69L1015.4,699.69L1016.1,700.04L1016.8,700.04L1017.5,700.04L1018.2,700.04L1018.9,700.04L1019.6,700.04L1020.4,700.04L1021.1,700.04L1021.8,700.04L1022.5,700.04L1023.2,700.04L1023.9,700.04L1024.6,700.04L1025.3,700.04L1026,700.04L1026.7,700.04L1027.5,700.04L1028.2,700.04L1028.9,700.39L1029.6,700.39L1030.3,700.39L1031,700.39L1031.7,700.39L1032.4,700.39L1033.1,700.39L1033.8,700.39L1034.6,700.39L1035.3,700.39L1036,700.39L1036.7,700.39L1037.4,700.39L1038.1,700.39L1038.8,700.74L1039.5,700.74L1040.2,700.74L1040.9,700.74L1041.7,700.74L1042.4,701.09L1043.1,701.09L1043.8,700.74L1044.5,700.74L1045.2,700.74L1045.9,700.74L1046.6,700.74L1047.3,700.74L1048,700.74L1048.8,700.74L1049.5,701.09L1050.2,701.09L1050.9,701.09L1051.6,701.09L1052.3,701.09L1053,701.09L1053.7,701.09L1054.4,701.09L1055.1,701.09L1055.9,701.44L1056.6,701.44L1057.3,701.44L1058,701.44L1058.7,701.44L1059.4,701.44L1060.1,701.44L1060.8,701.44L1061.5,701.44L1062.2,701.44L1063,701.44L1063.7,701.09L1064.4,701.09L1065.1,701.09L1065.8,701.44L1066.5,701.44L1067.2,701.44L1067.9,701.09L1068.6,701.09L1069.3,701.09L1070.1,701.44L1070.8,701.44L1071.5,701.44L1072.2,701.44L1072.9,701.44L1073.6,701.44L1074.3,701.44L1075,701.44L1075.7,701.44L1076.4,701.44L1077.2,701.44L1077.9,701.44L1078.6,701.44L1079.3,701.44L1080,701.44" style="fill:none;stroke:#F15A60;stroke-width:1.875" />
<path d="M53.188,47.03L53.898,83.464L54.608,113.59L55.318,137.41L56.028,153.18L56.738,164.74L57.448,175.25L58.158,185.41L58.868,193.12L59.578,213.79L60.289,219.04L60.999,223.6L61.709,230.95L62.419,248.47L63.129,254.42L63.839,260.03L64.549,263.88L65.259,266.69L65.969,269.14L66.68,272.64L67.39,274.04L68.1,277.9L68.81,280.35L69.52,282.8L70.23,291.56L70.94,325.19L71.65,333.25L72.36,333.95L73.07,335L73.781,336.4L74.491,338.85L75.201,338.5L75.911,338.5L76.621,338.5L77.331,338.5L78.041,338.15L78.751,338.15L79.461,338.5L80.172,338.15L80.882,338.15L81.592,338.15L82.302,338.5L83.012,338.85L83.722,339.55L84.432,339.91L85.142,340.26L85.852,340.61L86.562,341.66L87.273,342.01L87.983,342.36L88.693,342.36L89.403,343.41L90.113,343.76L90.823,343.76L91.533,343.06L92.243,343.41L92.953,342.71L93.664,342.36L94.374,342.71L95.084,342.71L95.794,342.01L96.504,342.01L97.214,342.36L97.924,342.36L98.634,342.01L99.344,342.01L100.05,342.71L100.76,342.71L101.47,343.06L102.18,343.06L102.89,343.06L103.6,343.41L104.32,343.41L105.03,343.41L105.74,343.06L106.45,343.06L107.16,342.71L107.87,343.41L108.58,343.41L109.29,343.41L110,342.71L110.71,343.06L111.42,343.76L112.13,343.76L112.84,343.76L113.55,343.76L114.26,343.76L114.97,343.76L115.68,343.41L116.39,343.41L117.1,344.11L117.81,344.11L118.52,343.76L119.23,344.11L119.94,344.11L120.65,344.11L121.36,343.76L122.07,343.41L122.78,343.76L123.49,343.41L124.2,343.41L124.91,343.41L125.62,343.41L126.33,343.76L127.04,344.46L127.75,344.46L128.46,344.81L129.17,344.81L129.88,345.51L130.59,345.86L131.3,345.86L132.01,346.21L132.72,346.21L133.43,346.56L134.14,346.56L134.85,346.21L135.56,346.21L136.27,346.21L136.98,346.21L137.69,346.21L138.4,346.56L139.11,346.21L139.82,346.56L140.53,346.56L141.24,346.56L141.95,346.56L142.66,346.56L143.37,346.56L144.08,346.56L144.79,346.56L145.5,346.56L146.21,346.91L146.92,346.56L147.63,346.56L148.34,346.21L149.05,346.56L149.76,346.21L150.47,345.86L151.18,345.51L151.89,345.51L152.6,346.21L153.31,345.86L154.02,345.51L154.73,345.16L155.44,345.86L156.15,345.86L156.86,345.51L157.57,345.51L158.28,346.56L158.99,346.91L159.7,346.56L160.41,346.21L161.12,346.21L161.83,346.21L162.54,346.21L163.25,345.86L163.96,346.21L164.67,346.21L165.38,346.91L166.09,346.91L166.8,346.91L167.51,347.26L168.22,346.91L168.93,346.56L169.64,346.21L170.35,346.21L171.07,346.21L171.78,346.21L172.49,346.21L173.2,345.86L173.91,346.21L174.62,345.86L175.33,345.86L176.04,345.51L176.75,345.51L177.46,345.16L178.17,345.51L178.88,345.51L179.59,345.51L180.3,345.51L181.01,345.16L181.72,345.51L182.43,345.51L183.14,345.51L183.85,345.16L184.56,345.51L185.27,345.51L185.98,345.16L186.69,344.81L187.4,344.81L188.11,344.46L188.82,344.46L189.53,344.11L190.24,344.11L190.95,343.76L191.66,343.76L192.37,343.41L193.08,343.41L193.79,343.41L194.5,343.41L195.21,343.41L195.92,343.41L196.63,343.41L197.34,343.41L198.05,343.06L198.76,343.06L199.47,343.41L200.18,343.41L200.89,343.41L201.6,343.41L202.31,343.76L203.02,343.76L203.73,343.41L204.44,343.41L205.15,343.41L205.86,343.41L206.57,343.41L207.28,343.41L207.99,343.76L208.7,343.76L209.41,344.11L210.12,344.11L210.83,344.11L211.54,344.11L212.25,344.11L212.96,344.11L213.67,344.11L214.38,344.11L215.09,343.76L215.8,343.41L216.51,343.41L217.22,343.41L217.93,343.06L218.64,342.71L219.35,342.71L220.06,342.71L220.77,342.71L221.48,342.36L222.19,342.36L222.9,342.36L223.61,342.36L224.32,342.36L225.03,342.36L225.74,342.36L226.45,342.36L227.16,342.01L227.87,342.01L228.58,342.01L229.29,342.01L230,342.01L230.71,341.66L231.42,341.31L232.13,341.31L232.84,341.31L233.55,341.31L234.26,341.31L234.97,341.31L235.68,340.96L236.39,341.31L237.1,341.31L237.81,341.31L238.53,340.96L239.24,340.96L239.95,340.96L240.66,341.31L241.37,341.31L242.08,341.31L242.79,340.96L243.5,341.31L244.21,340.96L244.92,340.96L245.63,340.61L246.34,340.61L247.05,340.61L247.76,340.61L248.47,340.61L249.18,340.96L249.89,340.61L250.6,340.96L251.31,340.61L252.02,340.61L252.73,340.61L253.44,340.61L254.15,340.96L254.86,340.61L255.57,340.96L256.28,340.96L256.99,340.96L257.7,340.96L258.41,340.96L259.12,340.96L259.83,340.96L260.54,341.31L261.25,341.31L261.96,341.31L262.67,341.66L263.38,341.31L264.09,341.31L264.8,341.31L265.51,341.31L266.22,340.96L266.93,340.96L267.64,340.96L268.35,340.96L269.06,340.61L269.77,340.61L270.48,340.96L271.19,340.61L271.9,340.61L272.61,340.61L273.32,340.26L274.03,340.26L274.74,340.26L275.45,339.91L276.16,339.91L276.87,339.55L277.58,339.2L278.29,339.2L279,339.2L279.71,339.2L280.42,339.55L281.13,339.55L281.84,339.55L282.55,339.55L283.26,339.2L283.97,339.2L284.68,339.2L285.39,339.2L286.1,338.85L286.81,338.85L287.52,338.85L288.23,338.85L288.94,340.96L289.65,340.61L290.36,340.96L291.07,340.61L291.78,340.61L292.49,340.61L293.2,340.96L293.91,340.61L294.62,340.61L295.33,340.61L296.04,340.61L296.75,340.61L297.46,340.96L298.17,340.61L298.88,340.61L299.59,340.61L300.3,340.61L301.01,340.61L301.72,340.61L302.43,340.61L303.14,340.26L303.85,340.61L304.56,340.26L305.27,340.61L305.99,340.26L306.7,340.26L307.41,340.26L308.12,340.26L308.83,340.26L309.54,340.26L310.25,340.26L310.96,340.26L311.67,340.26L312.38,340.26L313.09,340.26L313.8,340.26L314.51,340.26L315.22,340.26L315.93,339.91L316.64,340.26L317.35,339.91L318.06,339.91L318.77,339.91L319.48,339.91L320.19,339.91L320.9,339.91L321.61,339.91L322.32,339.91L323.03,339.91L323.74,339.55L324.45,339.55L325.16,339.55L325.87,338.85L326.58,338.85L327.29,338.85L328,340.26L328.71,339.91L329.42,339.91L330.13,339.55L330.84,339.55L331.55,339.55L332.26,339.2L332.97,339.2L333.68,338.85L334.39,338.85L335.1,338.85L335.81,339.55L336.52,340.26L337.23,340.26L337.94,340.26L338.65,339.91L339.36,339.91L340.07,339.55L340.78,339.55L341.49,339.55L342.2,339.55L342.91,339.55L343.62,339.55L344.33,339.55L345.04,339.55L345.75,339.55L346.46,339.55L347.17,339.2L347.88,339.2L348.59,339.2L349.3,339.2L350.01,339.2L350.72,339.2L351.43,339.2L352.14,339.2L352.85,339.2L353.56,338.85L354.27,338.85L354.98,338.85L355.69,338.85L356.4,338.85L357.11,338.85L357.82,338.85L358.53,338.5L359.24,338.5L359.95,339.91L360.66,339.55L361.37,339.91L362.08,339.91L362.79,339.91L363.5,339.91L364.21,339.91L364.92,339.55L365.63,339.91L366.34,339.91L367.05,339.91L367.76,339.91L368.47,339.91L369.18,339.91L369.89,339.55L370.6,340.61L371.31,340.61L372.02,340.61L372.73,340.61L373.45,340.61L374.16,340.26L374.87,340.26L375.58,340.26L376.29,340.26L377,340.26L377.71,340.26L378.42,339.91L379.13,340.26L379.84,340.26L380.55,340.26L381.26,340.61L381.97,340.61L382.68,340.61L383.39,340.61L384.1,340.61L384.81,340.61L385.52,340.61L386.23,340.61L386.94,340.61L387.65,340.61L388.36,340.61L389.07,340.61L389.78,340.26L390.49,340.26L391.2,340.61L391.91,340.26L392.62,340.26L393.33,340.26L394.04,340.26L394.75,340.26L395.46,340.26L396.17,339.91L396.88,340.26L397.59,339.91L398.3,339.91L399.01,339.91L399.72,339.91L400.43,340.26L401.14,339.91L401.85,340.26L402.56,339.91L403.27,339.91L403.98,339.55L404.69,339.55L405.4,339.55L406.11,339.55L406.82,339.55L407.53,339.55L408.24,339.55L408.95,339.2L409.66,339.2L410.37,339.2L411.08,338.85L411.79,339.2L412.5,338.85L413.21,338.85L413.92,338.5L414.63,338.5L415.34,338.5L416.05,338.5L416.76,338.5L417.47,338.15L418.18,338.5L418.89,338.15L419.6,338.15L420.31,338.15L421.02,338.15L421.73,338.15L422.44,338.15L423.15,338.15L423.86,338.15L424.57,338.15L425.28,338.15L425.99,338.15L426.7,338.15L427.41,338.15L428.12,338.15L428.83,338.15L429.54,338.15L430.25,338.15L430.96,338.15L431.67,338.15L432.38,338.15L433.09,338.15L433.8,338.15L434.51,338.15L435.22,338.15L435.93,338.15L436.64,338.15L437.35,338.15L438.06,338.15L438.77,338.15L439.48,338.15L440.19,337.8L440.91,337.8L441.62,337.8L442.33,337.8L443.04,337.8L443.75,337.8L444.46,337.8L445.17,337.8L445.88,337.8L446.59,337.8L447.3,337.45L448.01,337.45L448.72,337.45L449.43,337.45L450.14,337.8L450.85,337.45L451.56,337.45L452.27,337.8L452.98,337.8L453.69,337.8L454.4,337.8L455.11,337.8L455.82,337.8L456.53,337.8L457.24,337.45L457.95,337.8L458.66,337.8L459.37,337.8L460.08,337.8L460.79,337.8L461.5,337.8L462.21,337.8L462.92,337.8L463.63,338.15L464.34,337.8L465.05,337.8L465.76,338.15L466.47,338.15L467.18,338.15L467.89,338.15L468.6,338.15L469.31,338.15L470.02,338.15L470.73,338.15L471.44,338.15L472.15,338.15L472.86,338.15L473.57,337.8L474.28,338.15L474.99,338.15L475.7,338.15L476.41,338.15L477.12,338.15L477.83,338.15L478.54,338.15L479.25,338.15L479.96,338.15L480.67,338.15L481.38,338.15L482.09,338.15L482.8,338.15L483.51,338.5L484.22,338.5L484.93,338.5L485.64,338.5L486.35,338.15L487.06,338.5L487.77,338.5L488.48,338.5L489.19,338.5L489.9,338.5L490.61,338.5L491.32,338.5L492.03,338.5L492.74,338.15L493.45,338.85L494.16,339.2L494.87,339.2L495.58,339.2L496.29,339.2L497,339.2L497.71,338.85L498.42,338.85L499.13,338.85L499.84,339.91L500.55,339.91L501.26,339.91L501.97,339.91L502.68,339.55L503.39,339.55L504.1,339.55L504.81,339.55L505.52,339.55L506.23,339.55L506.94,339.2L507.65,339.2L508.37,339.2L509.08,339.2L509.79,338.85L510.5,338.85L511.21,338.85L511.92,338.85L512.63,338.85L513.34,338.85L514.05,338.85L514.76,338.5L515.47,338.5L516.18,338.5L516.89,338.5L517.6,338.5L518.31,338.5L519.02,338.5L519.73,338.5L520.44,338.5L521.15,338.85L521.86,338.85L522.57,338.85L523.28,338.85L523.99,338.85L524.7,338.85L525.41,338.5L526.12,338.85L526.83,338.85L527.54,338.85L528.25,338.85L528.96,338.85L529.67,338.85L530.38,338.85L531.09,338.85L531.8,338.85L532.51,338.85L533.22,338.85L533.93,338.85L534.64,338.85L535.35,338.85L536.06,338.85L536.77,338.85L537.48,338.85L538.19,338.85L538.9,338.85L539.61,338.85L540.32,338.85L541.03,339.2L541.74,339.2L542.45,339.2L543.16,339.2L543.87,339.2L544.58,339.2L545.29,339.2L546,339.2L546.71,339.2L547.42,339.2L548.13,339.55L548.84,339.55L549.55,339.55L550.26,339.55L550.97,339.55L551.68,339.55L552.39,339.55L553.1,339.55L553.81,339.55L554.52,339.55L555.23,339.55L555.94,339.55L556.65,339.55L557.36,339.2L558.07,340.61L558.78,340.61L559.49,340.61L560.2,340.61L560.91,340.61L561.62,340.61L562.33,340.26L563.04,340.26L563.75,340.26L564.46,340.26L565.17,340.26L565.88,340.26L566.59,339.91L567.3,339.91L568.01,339.91L568.72,339.91L569.43,340.26L570.14,340.26L570.85,339.91L571.56,339.91L572.27,339.91L572.98,339.91L573.69,339.91L574.4,339.91L575.12,339.91L575.83,339.91L576.54,339.91L577.25,339.91L577.96,339.91L578.67,339.91L579.38,339.91L580.09,339.55L580.8,339.55L581.51,339.55L582.22,339.55L582.93,339.55L583.64,339.55L584.35,339.55L585.06,339.55L585.77,339.55L586.48,339.2L587.19,339.2L587.9,339.2L588.61,339.2L589.32,339.2L590.03,339.2L590.74,339.2L591.45,339.2L592.16,339.2L592.87,338.85L593.58,338.85L594.29,338.85L595,338.85L595.71,338.85L596.42,338.85L597.13,338.85L597.84,338.85L598.55,338.85L599.26,338.85L599.97,338.85L600.68,338.85L601.39,338.5L602.1,338.85L602.81,338.85L603.52,338.85L604.23,338.85L604.94,338.85L605.65,338.85L606.36,338.85L607.07,338.85L607.78,338.5L608.49,338.5L609.2,338.5L609.91,338.5L610.62,338.5L611.33,338.5L612.04,338.5L612.75,338.5L613.46,338.5L614.17,338.5L614.88,339.2L615.59,339.2L616.3,339.2L617.01,339.2L617.72,339.2L618.43,338.85L619.14,338.85L619.85,338.85L620.56,338.85L621.27,338.85L621.98,338.85L622.69,338.85L623.4,338.85L624.11,338.85L624.82,338.85L625.53,338.85L626.24,338.85L626.95,338.85L627.66,338.5L628.37,338.5L629.08,338.5L629.79,338.5L630.5,338.5L631.21,338.85L631.92,338.85L632.63,338.85L633.34,338.85L634.05,338.85L634.76,338.85L635.47,338.85L636.18,338.85L636.89,338.85L637.6,338.85L638.31,339.2L639.02,338.85L639.73,339.2L640.44,339.2L641.15,339.2L641.86,339.2L642.58,339.2L643.29,339.2L644,339.2L644.71,339.55L645.42,339.55L646.13,339.55L646.84,339.55L647.55,339.55L648.26,339.55L648.97,339.55L649.68,339.55L650.39,339.55L651.1,339.55L651.81,339.55L652.52,339.55L653.23,339.55L653.94,339.55L654.65,339.55L655.36,339.55L656.07,339.55L656.78,339.91L657.49,339.91L658.2,339.91L658.91,339.91L659.62,339.91L660.33,339.91L661.04,339.91L661.75,339.91L662.46,339.91L663.17,339.91L663.88,339.91L664.59,339.91L665.3,339.91L666.01,339.91L666.72,339.91L667.43,339.91L668.14,339.55L668.85,339.91L669.56,339.91L670.27,339.91L670.98,339.55L671.69,339.55L672.4,340.61L673.11,340.61L673.82,340.61L674.53,340.61L675.24,340.61L675.95,340.61L676.66,340.61L677.37,340.96L678.08,340.61L678.79,340.61L679.5,343.76L680.21,343.41L680.92,343.41L681.63,343.41L682.34,343.06L683.05,345.51L683.76,345.16L684.47,345.16L685.18,345.16L685.89,345.16L686.6,344.81L687.31,346.56L688.02,347.61L688.73,347.26L689.44,347.26L690.15,347.26L690.86,346.91L691.57,346.91L692.28,346.91L692.99,346.91L693.7,346.91L694.41,346.91L695.12,346.56L695.83,346.56L696.54,346.56L697.25,346.56L697.96,346.56L698.67,346.56L699.38,346.56L700.09,346.56L700.8,346.56L701.51,346.56L702.22,346.56L702.93,346.56L703.64,346.21L704.35,346.56L705.06,346.56L705.77,346.56L706.48,346.56L707.19,346.56L707.9,346.56L708.61,346.56L709.32,346.56L710.04,346.56L710.75,346.56L711.46,346.56L712.17,346.56L712.88,346.56L713.59,346.56L714.3,346.56L715.01,346.56L715.72,346.56L716.43,346.56L717.14,346.56L717.85,346.56L718.56,346.91L719.27,346.56L719.98,346.56L720.69,346.56L721.4,346.56L722.11,346.56L722.82,346.56L723.53,346.56L724.24,346.56L724.95,346.56L725.66,346.56L726.37,346.56L727.08,346.56L727.79,346.56L728.5,346.56L729.21,346.56L729.92,346.56L730.63,346.56L731.34,346.56L732.05,346.56L732.76,346.56L733.47,346.56L734.18,346.56L734.89,346.56L735.6,346.56L736.31,346.56L737.02,346.56L737.73,346.56L738.44,346.56L739.15,346.21L739.86,346.56L740.57,346.21L741.28,346.21L741.99,346.21L742.7,346.21L743.41,346.21L744.12,346.21L744.83,346.56L745.54,346.21L746.25,346.21L746.96,346.21L747.67,346.21L748.38,346.21L749.09,346.21L749.8,346.21L750.51,346.21L751.22,346.21L751.93,346.56L752.64,347.26L753.35,347.26L754.06,347.26L754.77,347.26L755.48,346.91L756.19,347.26L756.9,347.26L757.61,347.26L758.32,346.91L759.03,346.91L759.74,346.91L760.45,346.91L761.16,346.91L761.87,346.91L762.58,346.91L763.29,346.91L764,346.91L764.71,346.91L765.42,346.91L766.13,346.91L766.84,346.91L767.55,346.91L768.26,347.26L768.97,346.91L769.68,346.91L770.39,347.26L771.1,347.26L771.81,347.26L772.52,346.91L773.23,347.61L773.94,347.96L774.65,348.31L775.36,348.31L776.07,348.31L776.78,348.31L777.5,348.31L778.21,348.31L778.92,348.31L779.63,348.31L780.34,348.31L781.05,348.31L781.76,348.31L782.47,348.31L783.18,348.31L783.89,348.31L784.6,348.31L785.31,348.31L786.02,348.31L786.73,348.31L787.44,348.31L788.15,348.31L788.86,348.31L789.57,348.31L790.28,348.31L790.99,348.31L791.7,348.31L792.41,348.31L793.12,348.31L793.83,348.31L794.54,348.31L795.25,348.31L795.96,348.31L796.67,347.96L797.38,347.96L798.09,347.96L798.8,347.96L799.51,347.96L800.22,347.96L800.93,347.96L801.64,347.96L802.35,347.96L803.06,347.96L803.77,347.96L804.48,347.96L805.19,347.96L805.9,347.96L806.61,347.96L807.32,347.96L808.03,347.96L808.74,347.96L809.45,347.96L810.16,347.96L810.87,347.96L811.58,347.96L812.29,348.31L813,348.31L813.71,348.31L814.42,348.31L815.13,348.31L815.84,348.31L816.55,348.31L817.26,348.31L817.97,348.31L818.68,348.31L819.39,348.31L820.1,348.31L820.81,348.31L821.52,348.66L822.23,348.66L822.94,348.66L823.65,348.66L824.36,348.66L825.07,348.66L825.78,348.66L826.49,348.66L827.2,348.66L827.91,348.66L828.62,348.66L829.33,348.66L830.04,348.66L830.75,349.01L831.46,349.01L832.17,349.01L832.88,349.01L833.59,349.01L834.3,349.01L835.01,349.01L835.72,349.01L836.43,349.01L837.14,349.01L837.85,349.01L838.56,349.01L839.27,349.01L839.98,349.01L840.69,349.01L841.4,349.01L842.11,349.01L842.82,349.01L843.53,349.01L844.24,349.01L844.96,349.36L845.67,350.06L846.38,350.06L847.09,350.06L847.8,350.06L848.51,350.06L849.22,350.06L849.93,350.06L850.64,350.06L851.35,350.06L852.06,350.06L852.77,350.06L853.48,350.06L854.19,350.06L854.9,350.06L855.61,350.06L856.32,350.06L857.03,350.06L857.74,350.06L858.45,350.06L859.16,349.71L859.87,350.06L860.58,349.71L861.29,349.71L862,349.71L862.71,349.71L863.42,349.71L864.13,349.71L864.84,349.71L865.55,349.71L866.26,349.71L866.97,349.71L867.68,349.71L868.39,349.71L869.1,349.36L869.81,349.71L870.52,349.71L871.23,349.71L871.94,349.71L872.65,349.36L873.36,349.36L874.07,349.36L874.78,349.36L875.49,349.36L876.2,349.36L876.91,349.36L877.62,349.36L878.33,349.36L879.04,349.71L879.75,349.71L880.46,349.36L881.17,349.36L881.88,349.71L882.59,349.71L883.3,349.71L884.01,349.71L884.72,349.71L885.43,349.36L886.14,349.36L886.85,349.36L887.56,349.71L888.27,349.71L888.98,349.71L889.69,349.71L890.4,349.71L891.11,349.71L891.82,349.71L892.53,349.71L893.24,349.71L893.95,349.71L894.66,349.71L895.37,349.71L896.08,349.71L896.79,349.71L897.5,349.71L898.21,349.36L898.92,349.71L899.63,349.36L900.34,349.36L901.05,349.36L901.76,349.36L902.47,349.36L903.18,349.36L903.89,349.36L904.6,349.36L905.31,349.36L906.02,349.36L906.73,349.36L907.44,349.36L908.15,349.36L908.86,349.36L909.57,349.36L910.28,349.36L910.99,349.36L911.71,349.36L912.42,349.36L913.13,349.36L913.84,349.36L914.55,349.36L915.26,349.36L915.97,349.36L916.68,349.36L917.39,349.36L918.1,349.36L918.81,349.36L919.52,349.36L920.23,349.36L920.94,349.36L921.65,349.36L922.36,349.36L923.07,349.36L923.78,349.36L924.49,349.36L925.2,349.36L925.91,349.36L926.62,349.36L927.33,349.36L928.04,349.36L928.75,349.36L929.46,349.36L930.17,349.01L930.88,349.01L931.59,349.01L932.3,349.01L933.01,349.01L933.72,349.01L934.43,349.01L935.14,349.01L935.85,349.01L936.56,349.01L937.27,349.01L937.98,349.01L938.69,349.01L939.4,349.01L940.11,349.01L940.82,349.01L941.53,349.01L942.24,349.01L942.95,349.01L943.66,349.01L944.37,349.01L945.08,349.01L945.79,349.01L946.5,349.01L947.21,348.66L947.92,348.66L948.63,348.66L949.34,348.66L950.05,348.66L950.76,348.66L951.47,348.66L952.18,348.66L952.89,348.66L953.6,350.77L954.31,350.42L955.02,350.42L955.73,350.42L956.44,350.06L957.15,350.06L957.86,350.06L958.57,350.06L959.28,350.06L959.99,350.06L960.7,350.42L961.41,352.17L962.12,352.17L962.83,352.17L963.54,352.17L964.25,351.82L964.96,351.82L965.67,351.82L966.38,352.52L967.09,352.87L967.8,352.87L968.51,352.87L969.22,352.87L969.93,352.87L970.64,352.87L971.35,352.87L972.06,352.52L972.77,352.52L973.48,352.52L974.19,352.52L974.9,352.52L975.61,352.52L976.32,352.52L977.03,352.52L977.74,352.52L978.45,352.52L979.17,352.52L979.88,352.52L980.59,352.52L981.3,352.52L982.01,352.52L982.72,352.52L983.43,352.52L984.14,352.52L984.85,354.97L985.56,354.97L986.27,354.97L986.98,354.62L987.69,354.62L988.4,354.62L989.11,354.62L989.82,354.27L990.53,354.27L991.24,354.27L991.95,354.27L992.66,354.27L993.37,354.27L994.08,354.27L994.79,354.27L995.5,354.27L996.21,354.27L996.92,353.92L997.63,353.92L998.34,353.92L999.05,353.92L999.76,353.92L1000.5,353.92L1001.2,353.92L1001.9,353.92L1002.6,353.92L1003.3,353.92L1004,353.92" style="fill:none;stroke:#7AC36A;stroke-width:1.875;stroke-dasharray:7.5,2.5" />
<path d="M1055,694.3L1080,694.3" style="fill:none;stroke:#F15A60;stroke-width:1.875" />
<text x="1014.1" y="-687.85" transform="scale(1, -1)"
	style="font-family:Helvetica;font-weight:normal;font-style:normal;font-size:12pt">etcd3</text>
<path d="M1055,680L1080,680" style="fill:none;stroke:#7AC36A;stroke-width:1.875;stroke-dasharray:7.5,2.5" />
<text x="1035.8" y="-673.56" transform="scale(1, -1)"
	style="font-family:Helvetica;font-weight:normal;font-style:normal;font-size:12pt">zk</text>
</g>
</svg>
