<?xml version="1.0"?>
<!-- Generated by SVGo and Plotinum VG -->
<svg width="12in" height="8in"
	xmlns="http://www.w3.org/2000/svg"
	xmlns:xlink="http://www.w3.org/1999/xlink">
<g transform="scale(1, -1) translate(0, -720)">
<path d="M0,0L1080,0L1080,720L0,720Z" style="fill:#FFFFFF" />
<text x="310.31" y="-706.41" transform="scale(1, -1)"
	style="font-family:Helvetica;font-weight:normal;font-style:normal;font-size:12pt">Write 3M keys, 1K clients, key 64 bytes, value 256 bytes, Throughput</text>
<text x="553.01" y="-4.965" transform="scale(1, -1)"
	style="font-family:Helvetica;font-weight:normal;font-style:normal;font-size:12pt">second</text>
<text x="70.912" y="-19.142" transform="scale(1, -1)"
	style="font-family:Helvetica;font-weight:normal;font-style:normal;font-size:10pt">0</text>
<text x="327.51" y="-19.142" transform="scale(1, -1)"
	style="font-family:Helvetica;font-weight:normal;font-style:normal;font-size:10pt">60</text>
<text x="584.11" y="-19.142" transform="scale(1, -1)"
	style="font-family:Helvetica;font-weight:normal;font-style:normal;font-size:10pt">120</text>
<text x="844.18" y="-19.142" transform="scale(1, -1)"
	style="font-family:Helvetica;font-weight:normal;font-style:normal;font-size:10pt">180</text>
<path d="M74.388,30.467L74.388,40.467" style="fill:none;stroke:#000000;stroke-width:0.625" />
<path d="M334.46,30.467L334.46,40.467" style="fill:none;stroke:#000000;stroke-width:0.625" />
<path d="M594.53,30.467L594.53,40.467" style="fill:none;stroke:#000000;stroke-width:0.625" />
<path d="M854.6,30.467L854.6,40.467" style="fill:none;stroke:#000000;stroke-width:0.625" />
<path d="M161.08,35.468L161.08,40.467" style="fill:none;stroke:#000000;stroke-width:0.625" />
<path d="M247.77,35.468L247.77,40.467" style="fill:none;stroke:#000000;stroke-width:0.625" />
<path d="M421.15,35.468L421.15,40.467" style="fill:none;stroke:#000000;stroke-width:0.625" />
<path d="M507.84,35.468L507.84,40.467" style="fill:none;stroke:#000000;stroke-width:0.625" />
<path d="M681.22,35.468L681.22,40.467" style="fill:none;stroke:#000000;stroke-width:0.625" />
<path d="M767.91,35.468L767.91,40.467" style="fill:none;stroke:#000000;stroke-width:0.625" />
<path d="M941.29,35.468L941.29,40.467" style="fill:none;stroke:#000000;stroke-width:0.625" />
<path d="M1028,35.468L1028,40.467" style="fill:none;stroke:#000000;stroke-width:0.625" />
<path d="M74.388,40.467L1080,40.467" style="fill:none;stroke:#000000;stroke-width:0.625" />
<g transform="rotate(90)">
<text x="335.88" y="13.59" transform="scale(1, -1)"
	style="font-family:Helvetica;font-weight:normal;font-style:normal;font-size:12pt">Throughput</text>
</g>
<text x="18.555" y="-234.12" transform="scale(1, -1)"
	style="font-family:Helvetica;font-weight:normal;font-style:normal;font-size:10pt">1e+04</text>
<text x="18.555" y="-427.86" transform="scale(1, -1)"
	style="font-family:Helvetica;font-weight:normal;font-style:normal;font-size:10pt">2e+04</text>
<text x="18.555" y="-621.6" transform="scale(1, -1)"
	style="font-family:Helvetica;font-weight:normal;font-style:normal;font-size:10pt">3e+04</text>
<path d="M57.13,239.49L67.13,239.49" style="fill:none;stroke:#000000;stroke-width:0.625" />
<path d="M57.13,433.23L67.13,433.23" style="fill:none;stroke:#000000;stroke-width:0.625" />
<path d="M57.13,626.97L67.13,626.97" style="fill:none;stroke:#000000;stroke-width:0.625" />
<path d="M62.13,142.62L67.13,142.62" style="fill:none;stroke:#000000;stroke-width:0.625" />
<path d="M62.13,336.36L67.13,336.36" style="fill:none;stroke:#000000;stroke-width:0.625" />
<path d="M62.13,530.1L67.13,530.1" style="fill:none;stroke:#000000;stroke-width:0.625" />
<path d="M67.13,47.03L67.13,701.44" style="fill:none;stroke:#000000;stroke-width:0.625" />
<path d="M74.388,75.529L78.722,402.25L83.057,380.59L87.391,358.29L91.726,312.67L96.06,328.36L100.39,349.13L104.73,341.22L109.06,354.05L113.4,291.49L117.73,334.06L122.07,330.72L126.4,334.89L130.74,342.37L135.07,295.04L139.41,309.35L143.74,329.58L148.07,318.34L152.41,318.67L156.74,315.3L161.08,277.23L165.41,313.87L169.75,321.42L174.08,337.14L178.42,303.64L182.75,326.46L187.09,289.81L191.42,328.4L195.75,314.64L200.09,334.02L204.42,319.12L208.76,320.69L213.09,300.35L217.43,301.37L221.76,333.28L226.1,321.99L230.43,324.23L234.77,310.79L239.1,296.14L243.43,316.77L247.77,321.27L252.1,302.63L256.44,296.39L260.77,296.57L265.11,310.98L269.44,317.51L273.78,313.38L278.11,305.91L282.45,292.79L286.78,288.14L291.11,283.1L295.45,320.86L299.78,290.1L304.12,334.52L308.45,325.2L312.79,275.18L317.12,282.37L321.46,313.98L325.79,292.85L330.13,304.86L334.46,300.98L338.79,290.25L343.13,281.28L347.46,300.62L351.8,318.07L356.13,311.39L360.47,309.02L364.8,302.19L369.14,244.82L373.47,287.33L377.81,284.05L382.14,299.18L386.47,288.37L390.81,313.05L395.14,297.71L399.48,291.55L403.81,283.2L408.15,281.88L412.48,276.26L416.82,277.62L421.15,302.84L425.48,262.55L429.82,273.4L434.15,290.89L438.49,279.81L442.82,323.46L447.16,326.73L451.49,268.34L455.83,269.39L460.16,277.35L464.5,308.7L468.83,290.56L473.16,316.97L477.5,239.39L481.83,314.53L486.17,283.1L490.5,277.5L494.84,320.49L499.17,310.96L503.51,282.62L507.84,256.79L512.18,308.21L516.51,332.39L520.84,332.64L525.18,285.87L529.51,285.68L533.85,250.63L538.18,311.97L542.52,291.34L546.85,268.63L551.19,309.12L555.52,317.84L559.86,240.48L564.19,272.21L568.52,373.29L572.86,293.33L577.19,270.84L581.53,302.19L585.86,272.16L590.2,266.15L594.53,330.49L598.87,273.98L603.2,286.12L607.54,321.99L611.87,277.39L616.2,222.85L620.54,334.27L624.87,288.26L629.21,246.66L633.54,359.4L637.88,269.77L642.21,285.47L646.55,319.43L650.88,247.96L655.22,370.67L659.55,272.06L663.88,289.71L668.22,304.01L672.55,257.3L676.89,327.16L681.22,261.97L685.56,274.38L689.89,331.6L694.23,274.44L698.56,292.73L702.9,260.03L707.23,317.3L711.56,291.98L715.9,253.83L720.23,368.48L724.57,202.8L728.9,372.44L733.24,243.15L737.57,348.63L741.91,279.27L746.24,269.66L750.58,301.39L754.91,261.46L759.24,328.92L763.58,264.43L767.91,318.38L772.25,262.97L776.58,331.5L780.92,211.03L785.25,335.64L789.59,252.01L793.92,349.81L798.26,229.28L802.59,351.76L806.92,193.48L811.26,374.64L815.59,223.35L819.93,369.47L824.26,230.35L828.6,363.72L832.93,246.1L837.27,320.26L841.6,229.94L845.94,340.91L850.27,244.04L854.6,320.98L858.94,229.13L863.27,318.09L867.61,291.01L871.94,276.03L876.28,337.97L880.61,234.45L884.95,327.12L889.28,229.38L893.61,297.71L897.95,208.73L902.28,371.08L906.62,265.2L910.95,303.83L915.29,331.65L919.62,182.43L923.96,367.13L928.29,222.79L932.63,340.29L936.96,233.91L941.29,331.38L945.63,307.55L949.96,197.68L954.3,307.24L958.63,215.58L962.97,321.39L967.3,313.07L971.64,232.36L975.97,280.87L980.31,234.28L984.64,309.78L988.97,292.98L993.31,216.71L997.64,353.37L1002,216.2L1006.3,259.8L1010.6,351.94L1015,179.06L1019.3,386.23L1023.7,259.14L1028,299.82L1032.3,319.22L1036.7,205.1L1041,318.07L1045.3,315.55L1049.7,192.32L1054,350.7L1058.3,212.97L1062.7,267.82L1067,347.58L1071.3,213.57L1075.7,270.99L1080,354.38" style="fill:none;stroke:#F15A60;stroke-width:1.875" />
<path d="M74.388,47.03L78.722,189.8L83.057,235.83L87.391,647.84L91.726,614.59L96.06,632.82L100.39,701.44L104.73,655.76L109.06,652.37L113.4,627.4L117.73,419.98L122.07,401.96L126.4,614.49L130.74,637.94L135.07,640.92L139.41,456.71L143.74,453.15L148.07,180.85L152.41,690.85L156.74,624.45L161.08,625.85L165.41,658.78L169.75,666.34L174.08,501.16L178.42,589.41L182.75,296.51L187.09,534.96L191.42,534.85L195.75,540.51L200.09,636.99L204.42,604.25L208.76,520.24L213.09,663.82L217.43,616.66L221.76,594.98L226.1,524.27L230.43,437.75L234.77,588.88L239.1,235.52L243.43,91.513L247.77,382.67L252.1,529.71L256.44,570.67L260.77,617.4L265.11,514.68L269.44,556.18L273.78,153.57L278.11,104.13L282.45,490.5L286.78,357.21L291.11,586.4L295.45,483.02L299.78,574.82L304.12,483.66L308.45,599.27L312.79,520.49L317.12,542.31L321.46,622.11L325.79,555.6L330.13,565.21L334.46,583.28L338.79,524.13L343.13,570.36L347.46,251.41L351.8,389.72L356.13,343.06L360.47,476.94L364.8,267.72L369.14,303.39L373.47,176.84L377.81,179.16L382.14,340.18L386.47,188.36L390.81,349.01L395.14,505.57L399.48,503.29L403.81,534.25L408.15,521.73L412.48,631.89L416.82,565.34L421.15,560.77L425.48,499.92L429.82,557.24L434.15,549.34L438.49,506.62L442.82,515.28L447.16,305.27L451.49,47.049L455.83,84.306L460.16,503.91L464.5,477.73L468.83,421.74L473.16,243.33L477.5,104.07L481.83,105.93L486.17,418.18L490.5,455.55L494.84,572.49L499.17,524.85L503.51,631.29L507.84,554.9L512.18,487.77L516.51,629.35L520.84,554.63L525.18,534.94L529.51,524.08L533.85,503.81L538.18,510.79L542.52,426.66L546.85,498.27L551.19,511.41L555.52,463.75L559.86,384.02L564.19,468.96L568.52,382.99L572.86,246.16L577.19,201.34L581.53,73.824L585.86,87.173L590.2,97.519L594.53,404.89L598.87,540.33L603.2,574.1L607.54,579.99L611.87,579.37L616.2,602.62L620.54,479.96L624.87,476.03L629.21,419.61L633.54,478.9L637.88,417.38L642.21,449.49L646.55,412.66L650.88,416.24L655.22,577.12L659.55,414.83L663.88,509.84L668.22,360.71L672.55,242.78L676.89,338.01L681.22,313.33L685.56,123.98" style="fill:none;stroke:#7AC36A;stroke-width:1.875;stroke-dasharray:7.5,2.5" />
<path d="M1055,694.3L1080,694.3" style="fill:none;stroke:#F15A60;stroke-width:1.875" />
<text x="1014.1" y="-687.85" transform="scale(1, -1)"
	style="font-family:Helvetica;font-weight:normal;font-style:normal;font-size:12pt">etcd3</text>
<path d="M1055,680L1080,680" style="fill:none;stroke:#7AC36A;stroke-width:1.875;stroke-dasharray:7.5,2.5" />
<text x="1035.8" y="-673.56" transform="scale(1, -1)"
	style="font-family:Helvetica;font-weight:normal;font-style:normal;font-size:12pt">zk</text>
</g>
</svg>
