<?xml version="1.0"?>
<!-- Generated by SVGo and Plotinum VG -->
<svg width="12in" height="8in"
	xmlns="http://www.w3.org/2000/svg"
	xmlns:xlink="http://www.w3.org/1999/xlink">
<g transform="scale(1, -1) translate(0, -720)">
<path d="M0,0L1080,0L1080,720L0,720Z" style="fill:#FFFFFF" />
<text x="352.84" y="-706.41" transform="scale(1, -1)"
	style="font-family:Helvetica;font-weight:normal;font-style:normal;font-size:12pt">Write 3M keys, 1K clients, key 64 bytes, value 256 bytes</text>
<text x="544.64" y="-4.965" transform="scale(1, -1)"
	style="font-family:Helvetica;font-weight:normal;font-style:normal;font-size:12pt">Second</text>
<text x="56.662" y="-19.142" transform="scale(1, -1)"
	style="font-family:Helvetica;font-weight:normal;font-style:normal;font-size:10pt">0</text>
<text x="319.24" y="-19.142" transform="scale(1, -1)"
	style="font-family:Helvetica;font-weight:normal;font-style:normal;font-size:10pt">60</text>
<text x="581.81" y="-19.142" transform="scale(1, -1)"
	style="font-family:Helvetica;font-weight:normal;font-style:normal;font-size:10pt">120</text>
<text x="847.87" y="-19.142" transform="scale(1, -1)"
	style="font-family:Helvetica;font-weight:normal;font-style:normal;font-size:10pt">180</text>
<path d="M60.137,30.467L60.137,40.467" style="fill:none;stroke:#000000;stroke-width:0.625" />
<path d="M326.19,30.467L326.19,40.467" style="fill:none;stroke:#000000;stroke-width:0.625" />
<path d="M592.24,30.467L592.24,40.467" style="fill:none;stroke:#000000;stroke-width:0.625" />
<path d="M858.29,30.467L858.29,40.467" style="fill:none;stroke:#000000;stroke-width:0.625" />
<path d="M148.82,35.468L148.82,40.467" style="fill:none;stroke:#000000;stroke-width:0.625" />
<path d="M237.5,35.468L237.5,40.467" style="fill:none;stroke:#000000;stroke-width:0.625" />
<path d="M414.87,35.468L414.87,40.467" style="fill:none;stroke:#000000;stroke-width:0.625" />
<path d="M503.56,35.468L503.56,40.467" style="fill:none;stroke:#000000;stroke-width:0.625" />
<path d="M680.92,35.468L680.92,40.467" style="fill:none;stroke:#000000;stroke-width:0.625" />
<path d="M769.61,35.468L769.61,40.467" style="fill:none;stroke:#000000;stroke-width:0.625" />
<path d="M946.97,35.468L946.97,40.467" style="fill:none;stroke:#000000;stroke-width:0.625" />
<path d="M1035.7,35.468L1035.7,40.467" style="fill:none;stroke:#000000;stroke-width:0.625" />
<path d="M60.137,40.467L1080,40.467" style="fill:none;stroke:#000000;stroke-width:0.625" />
<g transform="rotate(90)">
<text x="358.4" y="13.59" transform="scale(1, -1)"
	style="font-family:Helvetica;font-weight:normal;font-style:normal;font-size:12pt">CPU</text>
</g>
<text x="25.505" y="-228.84" transform="scale(1, -1)"
	style="font-family:Helvetica;font-weight:normal;font-style:normal;font-size:10pt">60</text>
<text x="18.555" y="-419.9" transform="scale(1, -1)"
	style="font-family:Helvetica;font-weight:normal;font-style:normal;font-size:10pt">120</text>
<text x="18.555" y="-610.96" transform="scale(1, -1)"
	style="font-family:Helvetica;font-weight:normal;font-style:normal;font-size:10pt">180</text>
<path d="M42.88,234.21L52.88,234.21" style="fill:none;stroke:#000000;stroke-width:0.625" />
<path d="M42.88,425.27L52.88,425.27" style="fill:none;stroke:#000000;stroke-width:0.625" />
<path d="M42.88,616.33L52.88,616.33" style="fill:none;stroke:#000000;stroke-width:0.625" />
<path d="M47.88,106.83L52.88,106.83" style="fill:none;stroke:#000000;stroke-width:0.625" />
<path d="M47.88,170.52L52.88,170.52" style="fill:none;stroke:#000000;stroke-width:0.625" />
<path d="M47.88,297.89L52.88,297.89" style="fill:none;stroke:#000000;stroke-width:0.625" />
<path d="M47.88,361.58L52.88,361.58" style="fill:none;stroke:#000000;stroke-width:0.625" />
<path d="M47.88,488.95L52.88,488.95" style="fill:none;stroke:#000000;stroke-width:0.625" />
<path d="M47.88,552.64L52.88,552.64" style="fill:none;stroke:#000000;stroke-width:0.625" />
<path d="M47.88,680.01L52.88,680.01" style="fill:none;stroke:#000000;stroke-width:0.625" />
<path d="M52.88,47.03L52.88,701.44" style="fill:none;stroke:#000000;stroke-width:0.625" />
<path d="M60.137,49.418L64.572,53.462L69.006,62.538L73.44,71.327L77.874,79.383L82.308,88.649L86.743,97.279L91.177,105.91L95.611,114.63L100.05,122.91L104.48,130.24L108.91,138.07L113.35,146.1L117.78,153.93L122.22,161.28L126.65,167.53L131.08,175.07L135.52,182.46L139.95,189.88L144.39,195.99L148.82,203L153.26,208.57L157.69,214.78L162.12,221.53L166.56,227.77L170.99,233.82L175.43,240.45L179.86,245.77L184.29,251.85L188.73,257.64L193.16,263.69L197.6,269.84L202.03,275.28L206.47,279.9L210.9,285.6L215.33,291.27L219.77,297.1L224.2,301.87L228.64,306.65L233.07,311.46L237.5,316.78L241.94,321.17L246.37,326.52L250.81,330.63L255.24,334.54L259.68,339.51L264.11,343.78L268.54,348.68L272.98,352.85L277.41,356.61L281.85,359.64L286.28,364.16L290.72,368.39L295.15,372.37L299.58,376.42L304.02,380.65L308.45,383.81L312.89,387.5L317.32,391.32L321.75,394.73L326.19,398.33L330.62,401.8L335.06,404.54L339.49,408.36L343.93,411.92L348.36,415.3L352.79,418.64L357.23,421.86L361.66,424.53L366.1,427.56L370.53,430.74L374.96,433.83L379.4,436.86L383.83,440.07L388.27,443.54L392.7,446.03L397.14,448.89L401.57,451.22L406,453.8L410.44,456.66L414.87,459.5L419.31,462.08L423.74,464.75L428.17,467.33L432.61,469.34L437.04,472.27L441.48,475.17L445.91,477.97L450.35,479.81L454.78,482.23L459.21,485.16L463.65,487.62L468.08,490.61L472.52,492.2L476.95,494.27L481.39,497.26L485.82,499.68L490.25,501.12L494.69,503.73L499.12,506.53L503.56,508.86L507.99,510.89L512.42,513.6L516.86,516.5L521.29,518.7L525.73,520.7L530.16,522.55L534.6,524.55L539.03,526.37L543.46,529.24L547.9,530.89L552.33,532.61L556.77,535.32L561.2,536.72L565.63,538.6L570.07,541.5L574.5,543.53L578.94,545.09L583.37,547.58L587.81,548.21L592.24,550.28L596.67,552.42L601.11,554.01L605.54,556.18L609.98,557.26L614.41,559.23L618.84,560.86L623.28,562.35L627.71,564.87L632.15,565.47L636.58,568.21L641.02,569.39L645.45,571.3L649.88,573.31L654.32,574.68L658.75,577.32L663.19,578.91L667.62,580.5L672.05,581.3L676.49,583.24L680.92,584.93L685.36,586.94L689.79,588.43L694.23,589.87L698.66,591.2L703.09,592.54L707.53,594.71L711.96,595.44L716.4,598.24L720.83,598.62L725.27,601.01L729.7,601.39L734.13,603.88L738.57,604.77L743,607.03L747.44,607.98L751.87,609.86L756.3,610.6L760.74,612.47L765.17,613.37L769.61,615.18L774.04,616.07L778.48,617.92L782.91,618.52L787.34,619.67L791.78,621.39L796.21,622.47L800.65,624.13L805.08,624.99L809.51,626.71L813.95,627.03L818.38,629.32L822.82,629.86L827.25,631.84L831.69,632.76L836.12,634.54L840.55,635.62L844.99,636.48L849.42,638.39L853.86,639.03L858.29,641.04L862.72,641.74L867.16,642.63L871.59,644.41L876.03,644.7L880.46,646.87L884.9,647.22L889.33,648.78L893.76,649.73L898.2,650.08L902.63,652.34L907.07,652.47L911.5,655.05L915.94,655.4L920.37,657.02L924.8,658.2L929.24,658.55L933.67,660.34L938.11,661.64L942.54,663.36L946.97,664.73L951.41,665.18L955.84,666.16L960.28,667.95L964.71,668.55L969.15,670.17L973.58,671.74L978.01,672.15L982.45,674.12L986.88,675.24L991.32,675.59L995.75,678.17L1000.2,678.77L1004.6,679.73L1009.1,682.24L1013.5,682.12L1017.9,683.45L1022.4,685.49L1026.8,686L1031.2,689.03L1035.7,689.76L1040.1,689.92L1044.5,692.31L1049,693.26L1053.4,694.06L1057.8,695.94L1062.3,696.7L1066.7,697.31L1071.1,699.5L1075.6,700.3L1080,700.65" style="fill:none;stroke:#F15A60;stroke-width:1.875" />
<path d="M60.137,47.03L64.572,57.602L69.006,64.417L73.44,76.422L77.874,87.885L82.308,98.776L86.743,108.42L91.177,120.46L95.611,129.5L100.05,139.57L104.48,151.95L108.91,160.52L113.35,169.02L117.78,178.64L122.22,188.22L126.65,198.89L131.08,211.02L135.52,218.38L139.95,226.91L144.39,235.42L148.82,244.2L153.26,252.45L157.69,260.57L162.12,271.3L166.56,278.95L170.99,285.79L175.43,291.4L179.86,300.47L184.29,308.82L188.73,315.82L193.16,322.06L197.6,328.21L202.03,334.64L206.47,342.31L210.9,351.55L215.33,360.47L219.77,364.57L224.2,372.66L228.64,381.96L233.07,385.4L237.5,388.23L241.94,393.52L246.37,399.12L250.81,403.55L255.24,407.59L259.68,411.96L264.11,412.62L268.54,411.89L272.98,415.17L277.41,417.11L281.85,421.06L286.28,425.9L290.72,430.62L295.15,436.06L299.58,440.93L304.02,446.32L308.45,451.12L312.89,456.66L317.32,461.89L321.75,466.6L326.19,470.77L330.62,476.25L335.06,481.12L339.49,485.29L343.93,489.37L348.36,492.2L352.79,495.23L357.23,498.89L361.66,503.95L366.1,510.86L370.53,517.07L374.96,520.38L379.4,519.71L383.83,522.1L388.27,522.61L392.7,525.51L397.14,529.3L401.57,534.04L406,539.36L410.44,544.3L414.87,548.82L419.31,552.96L423.74,556.37L428.17,559.04L432.61,562.99L437.04,567.29L441.48,571.36L445.91,575.22L450.35,578.62L454.78,583.15L459.21,587.29L463.65,589.8L468.08,589.04L472.52,589.2L476.95,593.24L481.39,596.68L485.82,603.02L490.25,605.34L494.69,605.09L499.12,605.12L503.56,607.28L507.99,610.28L512.42,613.4L516.86,616.55L521.29,620.31L525.73,623.11L530.16,625.85L534.6,629.16L539.03,632.03L543.46,635.31L547.9,637.85L552.33,641.07L556.77,644.16L561.2,646.55L565.63,649.54L570.07,652.34L574.5,655.24L578.94,655.85L583.37,657.34L587.81,657.12L592.24,659.32L596.67,661.07L601.11,662.85L605.54,662.05L609.98,663.81L614.41,665.37L618.84,667.34L623.28,666.45L627.71,669.25L632.15,671.99L636.58,674.66L641.02,677.59L645.45,680.49L649.88,682.69L654.32,686.83L658.75,690.24L663.19,694.06L667.62,696.29L672.05,697.85L676.49,700.33L680.92,701.44" style="fill:none;stroke:#7AC36A;stroke-width:1.875;stroke-dasharray:7.5,2.5" />
<path d="M1055,694.3L1080,694.3" style="fill:none;stroke:#F15A60;stroke-width:1.875" />
<text x="1002.5" y="-687.85" transform="scale(1, -1)"
	style="font-family:Helvetica;font-weight:normal;font-style:normal;font-size:12pt">etcd v3</text>
<path d="M1055,680L1080,680" style="fill:none;stroke:#7AC36A;stroke-width:1.875;stroke-dasharray:7.5,2.5" />
<text x="941.6" y="-673.56" transform="scale(1, -1)"
	style="font-family:Helvetica;font-weight:normal;font-style:normal;font-size:12pt">Zookeeper 3.4.8</text>
</g>
</svg>
