<?xml version="1.0"?>
<!-- Generated by SVGo and Plotinum VG -->
<svg width="12in" height="8in"
	xmlns="http://www.w3.org/2000/svg"
	xmlns:xlink="http://www.w3.org/1999/xlink">
<g transform="scale(1, -1) translate(0, -720)">
<path d="M0,0L1080,0L1080,720L0,720Z" style="fill:#FFFFFF" />
<text x="352.84" y="-706.41" transform="scale(1, -1)"
	style="font-family:Helvetica;font-weight:normal;font-style:normal;font-size:12pt">Write 3M keys, 1K clients, key 64 bytes, value 256 bytes</text>
<text x="548.11" y="-4.965" transform="scale(1, -1)"
	style="font-family:Helvetica;font-weight:normal;font-style:normal;font-size:12pt">Second</text>
<text x="63.613" y="-19.142" transform="scale(1, -1)"
	style="font-family:Helvetica;font-weight:normal;font-style:normal;font-size:10pt">0</text>
<text x="322.1" y="-19.142" transform="scale(1, -1)"
	style="font-family:Helvetica;font-weight:normal;font-style:normal;font-size:10pt">60</text>
<text x="580.58" y="-19.142" transform="scale(1, -1)"
	style="font-family:Helvetica;font-weight:normal;font-style:normal;font-size:10pt">120</text>
<text x="842.54" y="-19.142" transform="scale(1, -1)"
	style="font-family:Helvetica;font-weight:normal;font-style:normal;font-size:10pt">180</text>
<path d="M67.088,30.467L67.088,40.467" style="fill:none;stroke:#000000;stroke-width:0.625" />
<path d="M329.05,30.467L329.05,40.467" style="fill:none;stroke:#000000;stroke-width:0.625" />
<path d="M591.01,30.467L591.01,40.467" style="fill:none;stroke:#000000;stroke-width:0.625" />
<path d="M852.97,30.467L852.97,40.467" style="fill:none;stroke:#000000;stroke-width:0.625" />
<path d="M154.41,35.468L154.41,40.467" style="fill:none;stroke:#000000;stroke-width:0.625" />
<path d="M241.73,35.468L241.73,40.467" style="fill:none;stroke:#000000;stroke-width:0.625" />
<path d="M416.37,35.468L416.37,40.467" style="fill:none;stroke:#000000;stroke-width:0.625" />
<path d="M503.69,35.468L503.69,40.467" style="fill:none;stroke:#000000;stroke-width:0.625" />
<path d="M678.33,35.468L678.33,40.467" style="fill:none;stroke:#000000;stroke-width:0.625" />
<path d="M765.65,35.468L765.65,40.467" style="fill:none;stroke:#000000;stroke-width:0.625" />
<path d="M940.29,35.468L940.29,40.467" style="fill:none;stroke:#000000;stroke-width:0.625" />
<path d="M1027.6,35.468L1027.6,40.467" style="fill:none;stroke:#000000;stroke-width:0.625" />
<path d="M67.088,40.467L1080,40.467" style="fill:none;stroke:#000000;stroke-width:0.625" />
<g transform="rotate(90)">
<text x="305.89" y="13.59" transform="scale(1, -1)"
	style="font-family:Helvetica;font-weight:normal;font-style:normal;font-size:12pt">Latency(millisecond)</text>
</g>
<text x="25.505" y="-247.78" transform="scale(1, -1)"
	style="font-family:Helvetica;font-weight:normal;font-style:normal;font-size:10pt">800</text>
<text x="18.555" y="-461.05" transform="scale(1, -1)"
	style="font-family:Helvetica;font-weight:normal;font-style:normal;font-size:10pt">1600</text>
<text x="18.555" y="-674.32" transform="scale(1, -1)"
	style="font-family:Helvetica;font-weight:normal;font-style:normal;font-size:10pt">2400</text>
<path d="M49.83,253.15L59.83,253.15" style="fill:none;stroke:#000000;stroke-width:0.625" />
<path d="M49.83,466.42L59.83,466.42" style="fill:none;stroke:#000000;stroke-width:0.625" />
<path d="M49.83,679.68L59.83,679.68" style="fill:none;stroke:#000000;stroke-width:0.625" />
<path d="M54.83,146.52L59.83,146.52" style="fill:none;stroke:#000000;stroke-width:0.625" />
<path d="M54.83,359.79L59.83,359.79" style="fill:none;stroke:#000000;stroke-width:0.625" />
<path d="M54.83,573.05L59.83,573.05" style="fill:none;stroke:#000000;stroke-width:0.625" />
<path d="M59.83,47.03L59.83,701.44" style="fill:none;stroke:#000000;stroke-width:0.625" />
<path d="M67.088,52.587L71.454,54.528L75.82,55.21L80.186,55.951L84.552,59.872L88.918,57.638L93.284,57.201L97.65,57.146L102.02,56.924L106.38,60.209L110.75,58.124L115.11,57.427L119.48,58.389L123.85,57.39L128.21,58.903L132.58,60.944L136.94,57.782L141.31,59.016L145.68,58.799L150.04,59.069L154.41,61.511L158.77,59.012L163.14,59.087L167.51,57.537L171.87,60.277L176.24,57.59L180.6,61.526L184.97,57.984L189.34,58.71L193.7,58.01L198.07,58.325L202.43,58.418L206.8,61.208L211.17,59.158L215.53,58.59L219.9,58.685L224.26,57.721L228.63,57.761L233,62.921L237.36,58.614L241.73,58.628L246.09,59.791L250.46,59.415L254.83,58.617L259.19,60.805L263.56,60.431L267.92,58.203L272.29,59.791L276.66,61.55L281.02,60.269L285.39,62.583L289.75,58.626L294.12,58.949L298.49,59.271L302.85,58.609L307.22,58.979L311.58,64.952L315.95,58.695L320.32,59.954L324.68,60.17L329.05,60.057L333.41,61.791L337.78,61.694L342.15,59.977L346.51,58.964L350.88,59.319L355.24,59.428L359.61,59.989L363.98,65.834L368.34,61.146L372.71,61.302L377.07,60.493L381.44,59.147L385.81,59.446L390.17,62.076L394.54,60.685L398.9,61.476L403.27,62.161L407.64,62.09L412,62.02L416.37,58.527L420.73,65.443L425.1,62.524L429.47,60.874L433.83,58.177L438.2,60.514L442.56,59.239L446.93,63.147L451.3,62.909L455.66,62.395L460.03,58.987L464.39,60.744L468.76,58.223L473.13,63.485L477.49,61.962L481.86,62.305L486.22,62.146L490.59,57.813L494.96,59.702L499.32,62.15L503.69,64.038L508.05,59.484L512.42,56.171L516.79,59.663L521.15,61.697L525.52,59.741L529.88,62.69L534.25,62.455L538.62,60.084L542.98,63.82L547.35,57.908L551.71,58.856L556.08,68.57L560.45,58.265L564.81,58.1L569.18,61.194L573.54,62.418L577.91,56.918L582.28,64.25L586.64,64.359L591.01,58.697L595.37,62.971L599.74,61.529L604.11,57.232L608.47,62.282L612.84,70.393L617.2,57.786L621.57,61.286L625.94,59.446L630.3,59.052L634.67,64.608L639.03,58.939L643.4,60.847L647.77,61.875L652.13,57.339L656.5,63.689L660.86,60.774L665.23,60.141L669.6,64.252L673.96,57.469L678.33,63.64L682.69,63.62L687.06,56.155L691.43,64.327L695.79,58.763L700.16,65.844L704.52,57.942L708.89,62.062L713.26,64.75L717.62,55.482L721.99,73.401L726.35,55.33L730.72,66.647L735.09,54.932L739.45,64.939L743.82,56.023L748.18,65.783L752.55,60.69L756.92,60.228L761.28,64.142L765.65,58.733L770.01,63.342L774.38,56.439L778.75,73.821L783.11,57.125L787.48,65.83L791.84,56.718L796.21,68.1L800.58,55.872L804.94,76.835L809.31,54.795L813.67,66.394L818.04,58.043L822.41,66.183L826.77,57.049L831.14,65.319L835.5,58.8L839.87,62.247L844.24,60.616L848.6,65.704L852.97,58.2L857.33,60.091L861.7,65.131L866.07,56.721L870.43,64.223L874.8,59.212L879.16,67.244L883.53,57.316L887.9,69.769L892.26,58.118L896.63,66.474L900.99,59.766L905.36,58.752L909.73,63.984L914.09,56.975L918.46,79.14L922.82,55.886L927.19,69.655L931.56,57.257L935.92,60.096L940.29,61.425L944.65,60.787L949.02,69.897L953.39,62.37L957.75,65.587L962.12,60.738L966.48,59.461L970.85,68.022L975.22,61.086L979.58,62.069L983.95,62.81L988.31,59.008L992.68,74.063L997.05,54.795L1001.4,67.05L1005.8,68.712L1010.1,54.659L1014.5,83.74L1018.9,55.209L1023.2,59.125L1027.6,64.233L1032,58.611L1036.3,72.251L1040.7,58.776L1045.1,56.574L1049.4,77.142L1053.8,58.223L1058.2,58.003L1062.5,70.671L1066.9,58.496L1071.3,70.497L1075.6,60.201L1080,58.439" style="fill:none;stroke:#F15A60;stroke-width:1.875" />
<path d="M67.088,106.21L71.454,50.594L75.82,83.755L80.186,48.464L84.552,49.014L88.918,48.663L93.284,47.71L97.65,48.419L102.02,48.358L106.38,48.739L110.75,53.764L115.11,53.987L119.48,49.193L123.85,48.533L128.21,48.596L132.58,48.065L136.94,57.011L141.31,78.168L145.68,47.908L150.04,48.69L154.41,48.885L158.77,48.296L163.14,48.11L167.51,48.001L171.87,52.158L176.24,48.074L180.6,56.839L184.97,48.214L189.34,52.546L193.7,48.565L198.07,48.983L202.43,50.997L206.8,48.167L211.17,48.969L215.53,48.003L219.9,47.03L224.26,59.261L228.63,47.628L233,47.881L237.36,254.06L241.73,55.217L246.09,50.424L250.46,49.272L254.83,49.364L259.19,50.818L263.56,49.985L267.92,77.219L272.29,130.83L276.66,53.748L281.02,56.479L285.39,49.43L289.75,51.617L294.12,49.151L298.49,52.355L302.85,49.201L307.22,50.695L311.58,50.312L315.95,48.713L320.32,50.155L324.68,49.851L329.05,49.459L333.41,50.725L337.78,49.587L342.15,50.257L346.51,78.925L350.88,57.3L355.24,50.261L359.61,61.044L363.98,50.416L368.34,66.585L372.71,63.681L377.07,60.994L381.44,74.54L385.81,61.032L390.17,51.052L394.54,50.865L398.9,50.81L403.27,49.962L407.64,49.293L412,49.792L416.37,49.843L420.73,51.371L425.1,49.987L429.47,50.132L433.83,51.094L438.2,50.929L442.56,49.284L446.93,701.44L451.3,366.53L455.66,51.838L460.03,50.569L464.39,49.004L468.76,54.687L473.13,192.8L477.49,121.61L481.86,56.514L486.22,52.564L490.59,49.629L494.96,50.167L499.32,48.961L503.69,49.938L508.05,51.837L512.42,48.764L516.79,49.993L521.15,50.184L525.52,50.978L529.88,51.097L534.25,50.719L538.62,53.746L542.98,50.684L547.35,51.558L551.71,52.31L556.08,53.862L560.45,51.687L564.81,53.69L569.18,57.82L573.54,76.255L577.91,212.98L582.28,128.3L586.64,118.49L591.01,59.193L595.37,50.404L599.74,49.935L604.11,49.549L608.47,49.456L612.84,48.643L617.2,49.859L621.57,47.931L625.94,49.086L630.3,47.871L634.67,55.206L639.03,54.07L643.4,55.216L647.77,50.921L652.13,51.532L656.5,54.027L660.86,51.017L665.23,56.08L669.6,57.876L673.96,49.009L678.33,70.514L682.69,54.114" style="fill:none;stroke:#7AC36A;stroke-width:1.875;stroke-dasharray:7.5,2.5" />
<path d="M1055,694.3L1080,694.3" style="fill:none;stroke:#7AC36A;stroke-width:1.875;stroke-dasharray:7.5,2.5" />
<text x="941.6" y="-687.85" transform="scale(1, -1)"
	style="font-family:Helvetica;font-weight:normal;font-style:normal;font-size:12pt">Zookeeper 3.4.8</text>
<path d="M1055,680L1080,680" style="fill:none;stroke:#F15A60;stroke-width:1.875" />
<text x="1002.5" y="-673.56" transform="scale(1, -1)"
	style="font-family:Helvetica;font-weight:normal;font-style:normal;font-size:12pt">etcd v3</text>
</g>
</svg>
