<?xml version="1.0"?>
<!-- Generated by SVGo and Plotinum VG -->
<svg width="12in" height="8in"
	xmlns="http://www.w3.org/2000/svg"
	xmlns:xlink="http://www.w3.org/1999/xlink">
<g transform="scale(1, -1) translate(0, -720)">
<path d="M0,0L1080,0L1080,720L0,720Z" style="fill:#FFFFFF" />
<text x="305.34" y="-706.41" transform="scale(1, -1)"
	style="font-family:Helvetica;font-weight:normal;font-style:normal;font-size:12pt">Write 3M keys, 1K clients, key 64 bytes, value 256 bytes, Memory(MB)</text>
<text x="548.11" y="-4.965" transform="scale(1, -1)"
	style="font-family:Helvetica;font-weight:normal;font-style:normal;font-size:12pt">Second</text>
<text x="63.613" y="-19.142" transform="scale(1, -1)"
	style="font-family:Helvetica;font-weight:normal;font-style:normal;font-size:10pt">0</text>
<text x="324.38" y="-19.142" transform="scale(1, -1)"
	style="font-family:Helvetica;font-weight:normal;font-style:normal;font-size:10pt">60</text>
<text x="585.14" y="-19.142" transform="scale(1, -1)"
	style="font-family:Helvetica;font-weight:normal;font-style:normal;font-size:10pt">120</text>
<text x="849.38" y="-19.142" transform="scale(1, -1)"
	style="font-family:Helvetica;font-weight:normal;font-style:normal;font-size:10pt">180</text>
<path d="M67.088,30.467L67.088,40.467" style="fill:none;stroke:#000000;stroke-width:0.625" />
<path d="M331.33,30.467L331.33,40.467" style="fill:none;stroke:#000000;stroke-width:0.625" />
<path d="M595.56,30.467L595.56,40.467" style="fill:none;stroke:#000000;stroke-width:0.625" />
<path d="M859.8,30.467L859.8,40.467" style="fill:none;stroke:#000000;stroke-width:0.625" />
<path d="M155.17,35.468L155.17,40.467" style="fill:none;stroke:#000000;stroke-width:0.625" />
<path d="M243.25,35.468L243.25,40.467" style="fill:none;stroke:#000000;stroke-width:0.625" />
<path d="M419.4,35.468L419.4,40.467" style="fill:none;stroke:#000000;stroke-width:0.625" />
<path d="M507.48,35.468L507.48,40.467" style="fill:none;stroke:#000000;stroke-width:0.625" />
<path d="M683.64,35.468L683.64,40.467" style="fill:none;stroke:#000000;stroke-width:0.625" />
<path d="M771.72,35.468L771.72,40.467" style="fill:none;stroke:#000000;stroke-width:0.625" />
<path d="M947.88,35.468L947.88,40.467" style="fill:none;stroke:#000000;stroke-width:0.625" />
<path d="M1036,35.468L1036,40.467" style="fill:none;stroke:#000000;stroke-width:0.625" />
<path d="M67.088,40.467L1080,40.467" style="fill:none;stroke:#000000;stroke-width:0.625" />
<g transform="rotate(90)">
<text x="330.91" y="13.59" transform="scale(1, -1)"
	style="font-family:Helvetica;font-weight:normal;font-style:normal;font-size:12pt">Memory(MB)</text>
</g>
<text x="18.555" y="-219.75" transform="scale(1, -1)"
	style="font-family:Helvetica;font-weight:normal;font-style:normal;font-size:10pt">1000</text>
<text x="18.555" y="-404.36" transform="scale(1, -1)"
	style="font-family:Helvetica;font-weight:normal;font-style:normal;font-size:10pt">2000</text>
<text x="18.555" y="-588.97" transform="scale(1, -1)"
	style="font-family:Helvetica;font-weight:normal;font-style:normal;font-size:10pt">3000</text>
<path d="M49.83,225.12L59.83,225.12" style="fill:none;stroke:#000000;stroke-width:0.625" />
<path d="M49.83,409.73L59.83,409.73" style="fill:none;stroke:#000000;stroke-width:0.625" />
<path d="M49.83,594.34L59.83,594.34" style="fill:none;stroke:#000000;stroke-width:0.625" />
<path d="M54.83,132.82L59.83,132.82" style="fill:none;stroke:#000000;stroke-width:0.625" />
<path d="M54.83,317.42L59.83,317.42" style="fill:none;stroke:#000000;stroke-width:0.625" />
<path d="M54.83,502.03L59.83,502.03" style="fill:none;stroke:#000000;stroke-width:0.625" />
<path d="M54.83,686.64L59.83,686.64" style="fill:none;stroke:#000000;stroke-width:0.625" />
<path d="M59.83,47.03L59.83,701.44" style="fill:none;stroke:#000000;stroke-width:0.625" />
<path d="M67.088,47.03L71.491,60.047L75.895,63.851L80.299,65.349L84.703,66.322L89.107,67.512L93.511,69.325L97.915,70.736L102.32,72.011L106.72,72.785L111.13,74.208L115.53,75.179L119.94,76.715L124.34,77.634L128.74,78.709L133.15,79.955L137.55,81.541L141.95,82.589L146.36,83.793L150.76,84.865L155.17,86.2L159.57,87.867L163.97,88.567L168.38,89.523L172.78,90.679L177.19,92.067L181.59,93.738L185.99,94.559L190.4,95.833L194.8,96.99L199.21,98.235L203.61,99.034L208.01,100.85L212.42,101.44L216.82,102.8L221.23,104.2L225.63,105.5L230.03,106.27L234.44,107.74L238.84,109.07L243.25,110.99L247.65,111.29L252.05,112.84L256.46,113.63L260.86,115.19L265.27,116.51L269.67,117.02L274.07,119.06L278.48,120L282.88,120.83L287.29,122.31L291.69,123.15L296.09,124.02L300.5,125.3L304.9,126.22L309.31,127.37L313.71,128.52L318.11,129.75L322.52,130.93L326.92,132.63L331.33,133.36L335.73,134.39L340.13,135.08L344.54,136.45L348.94,138.22L353.35,138.84L357.75,140.19L362.15,141.35L366.56,142.5L370.96,143.63L375.37,144.93L379.77,146.06L384.17,148.16L388.58,149.07L392.98,150.69L397.39,152L401.79,153.13L406.19,154.34L410.6,154.77L415,155.84L419.4,157.6L423.81,158.64L428.21,160.02L432.62,160.92L437.02,161.77L441.42,163.42L445.83,164.34L450.23,165.61L454.64,166.82L459.04,167.96L463.44,169.6L467.85,170.57L472.25,172.06L476.66,172.7L481.06,173.35L485.46,174.33L489.87,175.34L494.27,176.21L498.68,177.23L503.08,178.36L507.48,179.7L511.89,180.29L516.29,181.89L520.7,183.7L525.1,184.48L529.5,185.08L533.91,185.64L538.31,187.13L542.72,188.02L547.12,190.33L551.52,191.04L555.93,192L560.33,193.34L564.74,194.39L569.14,194.91L573.54,196.05L577.95,197.31L582.35,198.45L586.76,199.39L591.16,200.12L595.56,201.35L599.97,202.76L604.37,203.5L608.78,204.9L613.18,205.59L617.58,207.56L621.99,208.54L626.39,209.6L630.8,211.49L635.2,211.84L639.6,212.91L644.01,214.18L648.41,215.22L652.82,216.7L657.22,217.18L661.62,218.45L666.03,219.36L670.43,220.81L674.83,221.5L679.24,222.61L683.64,223.88L688.05,225.36L692.45,226.58L696.85,227.86L701.26,228.87L705.66,230.4L710.07,231.69L714.47,232.1L718.87,234.27L723.28,235.5L727.68,237.98L732.09,238.18L736.49,238.62L740.89,239.4L745.3,240.73L749.7,241.44L754.11,242.58L758.51,243.33L762.91,244.91L767.32,246.13L771.72,246.89L776.13,248.18L780.53,250.06L784.93,250.47L789.34,251.27L793.74,252.56L798.15,253.15L802.55,255.22L806.95,255.83L811.36,256.93L815.76,257L820.17,259.03L824.57,259.65L828.97,261.34L833.38,261.79L837.78,263.33L842.19,263.87L846.59,264.68L850.99,265.78L855.4,267.02L859.8,269.42L864.21,270.14L868.61,271.27L873.01,272.7L877.42,273.38L881.82,275.52L886.23,276L890.63,276.8L895.03,277.27L899.44,277.96L903.84,279.37L908.25,279.47L912.65,281.76L917.05,282.22L921.46,283.7L925.86,284.91L930.27,285.08L934.67,286.33L939.07,287.02L943.48,288.77L947.88,289.69L952.28,290.61L956.69,291.87L961.09,293.34L965.5,294.02L969.9,295.13L974.3,296.42L978.71,296.79L983.11,297.9L987.52,298.88L991.92,299.35L996.32,301.4L1000.7,302.02L1005.1,302.38L1009.5,304.57L1013.9,304.86L1018.3,306.36L1022.7,307.28L1027.2,307.38L1031.6,309.38L1036,309.97L1040.4,310.63L1044.8,313.48L1049.2,314.11L1053.6,315.29L1058,316.47L1062.4,316.79L1066.8,317.77L1071.2,318.96L1075.6,319.5L1080,320.01" style="fill:none;stroke:#F15A60;stroke-width:1.875" />
<path d="M67.088,54.021L71.491,68.805L75.895,70.724L80.299,82.32L84.703,101.8L89.107,129.39L93.511,139.05L97.915,172.74L102.32,180.21L106.72,193.74L111.13,220.23L115.53,245.58L119.94,250.03L124.34,254.21L128.74,260.1L133.15,307.92L137.55,314.54L141.95,331.22L146.36,330.92L150.76,338.08L155.17,349.35L159.57,349.13L163.97,351.96L168.38,382.26L172.78,382.3L177.19,387.96L181.59,389.51L185.99,398.83L190.4,399.5L194.8,399.5L199.21,399.5L203.61,405.3L208.01,405.3L212.42,410.05L216.82,422.94L221.23,427.75L225.63,429.4L230.03,435.66L234.44,449.43L238.84,451.02L243.25,451.02L247.65,451.02L252.05,450.31L256.46,450.31L260.86,450.31L265.27,450.11L269.67,450.12L274.07,450.12L278.48,449.7L282.88,449.7L287.29,449.73L291.69,453.17L296.09,453.17L300.5,458.18L304.9,463.64L309.31,469.38L313.71,469.38L318.11,475.39L322.52,476.41L326.92,476.45L331.33,476.49L335.73,478.72L340.13,481.29L344.54,486.79L348.94,493L353.35,493.1L357.75,494.3L362.15,496.69L366.56,505.21L370.96,516.1L375.37,516.28L379.77,520.23L384.17,521.04L388.58,527.25L392.98,531.3L397.39,532.6L401.79,533.01L406.19,534.05L410.6,535.06L415,532.7L419.4,533.22L423.81,533.73L428.21,533.6L432.62,534L437.02,534.51L441.42,537.61L445.83,547.88L450.23,552.97L454.64,558.98L459.04,569.25L463.44,569.36L467.85,572.53L472.25,572.78L476.66,577.55L481.06,579.95L485.46,584.06L489.87,591.53L494.27,591.61L498.68,591.27L503.08,592.55L507.48,592.53L511.89,592.16L516.29,591.77L520.7,591.77L525.1,591.83L529.5,591.81L533.91,591.89L538.31,592.29L542.72,593.4L547.12,596.54L551.52,598.56L555.93,600.77L560.33,605.03L564.74,606.57L569.14,612.8L573.54,616.45L577.95,621.88L582.35,627.5L586.76,634.76L591.16,634.76L595.56,643.37L599.97,643.37L604.37,645.91L608.78,646.02L613.18,651.06L617.58,656.66L621.99,660.55L626.39,660.97L630.8,664.07L635.2,667.2L639.6,670.21L644.01,672.04L648.41,676.2L652.82,676.17L657.22,681.15L661.62,685.31L666.03,688.84L670.43,690.36L674.83,695.41L679.24,701.44L683.64,701.44" style="fill:none;stroke:#7AC36A;stroke-width:1.875;stroke-dasharray:7.5,2.5" />
<path d="M1055,694.3L1080,694.3" style="fill:none;stroke:#F15A60;stroke-width:1.875" />
<text x="1002.5" y="-687.85" transform="scale(1, -1)"
	style="font-family:Helvetica;font-weight:normal;font-style:normal;font-size:12pt">etcd v3</text>
<path d="M1055,680L1080,680" style="fill:none;stroke:#7AC36A;stroke-width:1.875;stroke-dasharray:7.5,2.5" />
<text x="941.6" y="-673.56" transform="scale(1, -1)"
	style="font-family:Helvetica;font-weight:normal;font-style:normal;font-size:12pt">Zookeeper 3.4.8</text>
</g>
</svg>
