<?xml version="1.0"?>
<!-- Generated by SVGo and Plotinum VG -->
<svg width="12in" height="8in"
	xmlns="http://www.w3.org/2000/svg"
	xmlns:xlink="http://www.w3.org/1999/xlink">
<g transform="scale(1, -1) translate(0, -720)">
<path d="M0,0L1080,0L1080,720L0,720Z" style="fill:#FFFFFF" />
<text x="334.49" y="-706.41" transform="scale(1, -1)"
	style="font-family:Helvetica;font-weight:normal;font-style:normal;font-size:12pt">Write 300K keys, 1 client, key 64 bytes, value 256 bytes, CPU</text>
<text x="537.64" y="-4.965" transform="scale(1, -1)"
	style="font-family:Helvetica;font-weight:normal;font-style:normal;font-size:12pt">Second</text>
<text x="49.712" y="-19.142" transform="scale(1, -1)"
	style="font-family:Helvetica;font-weight:normal;font-style:normal;font-size:10pt">0</text>
<text x="381.56" y="-19.142" transform="scale(1, -1)"
	style="font-family:Helvetica;font-weight:normal;font-style:normal;font-size:10pt">200</text>
<text x="720.35" y="-19.142" transform="scale(1, -1)"
	style="font-family:Helvetica;font-weight:normal;font-style:normal;font-size:10pt">400</text>
<text x="1059.2" y="-19.142" transform="scale(1, -1)"
	style="font-family:Helvetica;font-weight:normal;font-style:normal;font-size:10pt">600</text>
<path d="M53.188,30.467L53.188,40.467" style="fill:none;stroke:#000000;stroke-width:0.625" />
<path d="M391.98,30.467L391.98,40.467" style="fill:none;stroke:#000000;stroke-width:0.625" />
<path d="M730.78,30.467L730.78,40.467" style="fill:none;stroke:#000000;stroke-width:0.625" />
<path d="M1069.6,30.467L1069.6,40.467" style="fill:none;stroke:#000000;stroke-width:0.625" />
<path d="M222.59,35.468L222.59,40.467" style="fill:none;stroke:#000000;stroke-width:0.625" />
<path d="M561.38,35.468L561.38,40.467" style="fill:none;stroke:#000000;stroke-width:0.625" />
<path d="M900.18,35.468L900.18,40.467" style="fill:none;stroke:#000000;stroke-width:0.625" />
<path d="M53.188,40.467L1073,40.467" style="fill:none;stroke:#000000;stroke-width:0.625" />
<g transform="rotate(90)">
<text x="358.4" y="13.59" transform="scale(1, -1)"
	style="font-family:Helvetica;font-weight:normal;font-style:normal;font-size:12pt">CPU</text>
</g>
<text x="18.555" y="-128.81" transform="scale(1, -1)"
	style="font-family:Helvetica;font-weight:normal;font-style:normal;font-size:10pt">10</text>
<text x="18.555" y="-254.56" transform="scale(1, -1)"
	style="font-family:Helvetica;font-weight:normal;font-style:normal;font-size:10pt">20</text>
<text x="18.555" y="-380.31" transform="scale(1, -1)"
	style="font-family:Helvetica;font-weight:normal;font-style:normal;font-size:10pt">30</text>
<text x="18.555" y="-506.06" transform="scale(1, -1)"
	style="font-family:Helvetica;font-weight:normal;font-style:normal;font-size:10pt">40</text>
<text x="18.555" y="-631.82" transform="scale(1, -1)"
	style="font-family:Helvetica;font-weight:normal;font-style:normal;font-size:10pt">50</text>
<path d="M35.93,134.18L45.93,134.18" style="fill:none;stroke:#000000;stroke-width:0.625" />
<path d="M35.93,259.93L45.93,259.93" style="fill:none;stroke:#000000;stroke-width:0.625" />
<path d="M35.93,385.68L45.93,385.68" style="fill:none;stroke:#000000;stroke-width:0.625" />
<path d="M35.93,511.43L45.93,511.43" style="fill:none;stroke:#000000;stroke-width:0.625" />
<path d="M35.93,637.19L45.93,637.19" style="fill:none;stroke:#000000;stroke-width:0.625" />
<path d="M40.93,71.3L45.93,71.3" style="fill:none;stroke:#000000;stroke-width:0.625" />
<path d="M40.93,197.05L45.93,197.05" style="fill:none;stroke:#000000;stroke-width:0.625" />
<path d="M40.93,322.8L45.93,322.8" style="fill:none;stroke:#000000;stroke-width:0.625" />
<path d="M40.93,448.56L45.93,448.56" style="fill:none;stroke:#000000;stroke-width:0.625" />
<path d="M40.93,574.31L45.93,574.31" style="fill:none;stroke:#000000;stroke-width:0.625" />
<path d="M40.93,700.06L45.93,700.06" style="fill:none;stroke:#000000;stroke-width:0.625" />
<path d="M45.93,47.03L45.93,701.44" style="fill:none;stroke:#000000;stroke-width:0.625" />
<path d="M53.188,47.03L54.881,125.75L56.575,189.51L58.269,238.3L59.963,276.91L61.657,310.73L63.351,341.79L65.045,366.94L66.739,388.32L68.433,408.44L70.127,424.16L71.821,440.26L73.515,453.46L75.209,465.66L76.903,475.34L78.597,485.78L80.291,494.96L81.985,502.63L83.679,509.42L85.373,516.46L87.067,522.5L88.761,528.28L90.455,534.45L92.149,541.49L93.843,547.4L95.537,552.93L97.231,558.34L98.925,563.12L100.62,568.52L102.31,572.8L104.01,577.83L105.7,581.1L107.39,583.74L109.09,586L110.78,588.39L112.48,590.41L114.17,593.17L115.86,595.31L117.56,597.7L119.25,598.83L120.95,600.47L122.64,602.35L124.33,603.61L126.03,605.24L127.72,606.12L129.42,608.01L131.11,609.27L132.8,610.9L134.5,611.66L136.19,613.17L137.89,614.55L139.58,615.68L141.27,617.44L142.97,618.2L144.66,619.58L146.36,620.59L148.05,621.84L149.74,623.1L151.44,624.23L153.13,624.99L154.83,625.99L156.52,626.5L158.21,627.63L159.91,628.76L161.6,629.89L163.3,630.65L164.99,631.4L166.68,632.03L168.38,632.91L170.07,633.41L171.77,634.29L173.46,634.8L175.15,635.8L176.85,636.31L178.54,636.81L180.24,637.44L181.93,638.32L183.62,638.95L185.32,639.7L187.01,639.83L188.71,640.58L190.4,641.34L192.09,642.22L193.79,642.84L195.48,643.85L197.18,644.48L198.87,645.36L200.56,646.49L202.26,647.37L203.95,648.25L205.65,649.51L207.34,650.26L209.03,650.52L210.73,650.89L212.42,651.27L214.12,651.52L215.81,651.77L217.5,652.4L219.2,652.78L220.89,653.03L222.59,653.41L224.28,653.53L225.97,653.78L227.67,654.04L229.36,654.41L231.06,654.67L232.75,654.92L234.44,655.42L236.14,655.8L237.83,656.43L239.53,656.68L241.22,657.18L242.91,657.56L244.61,657.93L246.3,658.19L248,658.44L249.69,658.69L251.38,659.07L253.08,659.32L254.77,659.57L256.47,659.7L258.16,660.2L259.85,660.32L261.55,660.7L263.24,660.95L264.93,661.58L266.63,661.71L268.32,661.83L270.02,662.08L271.71,661.96L273.4,662.34L275.1,662.46L276.79,662.59L278.49,662.84L280.18,662.96L281.87,663.34L283.57,663.47L285.26,663.59L286.96,663.72L288.65,663.59L290.34,663.85L292.04,663.72L293.73,664.35L295.43,664.6L297.12,664.85L298.81,664.98L300.51,665.48L302.2,665.73L303.9,666.36L305.59,666.86L307.28,667.24L308.98,667.62L310.67,667.99L312.37,667.99L314.06,668.37L315.75,668.5L317.45,668.75L319.14,668.88L320.84,669.13L322.53,669L324.22,669.13L325.92,669.38L327.61,669.63L329.31,670.01L331,670.26L332.69,670.38L334.39,670.76L336.08,670.89L337.78,671.01L339.47,671.26L341.16,671.39L342.86,671.39L344.55,671.77L346.25,671.77L347.94,671.89L349.63,672.14L351.33,672.4L353.02,672.52L354.72,672.77L356.41,672.77L358.1,673.02L359.8,673.02L361.49,673.28L363.19,673.65L364.88,673.65L366.57,673.91L368.27,674.16L369.96,674.28L371.66,674.28L373.35,674.53L375.04,674.66L376.74,674.79L378.43,675.04L380.13,675.16L381.82,675.29L383.51,675.67L385.21,675.54L386.9,675.54L388.6,675.67L390.29,675.79L391.98,675.79L393.68,676.17L395.37,676.29L397.07,676.55L398.76,676.55L400.45,676.8L402.15,677.17L403.84,677.3L405.54,677.68L407.23,677.93L408.92,678.06L410.62,678.31L412.31,678.18L414.01,678.56L415.7,678.43L417.39,678.43L419.09,678.68L420.78,678.68L422.47,678.81L424.17,678.81L425.86,679.19L427.56,679.19L429.25,679.31L430.94,679.44L432.64,679.56L434.33,679.44L436.03,679.82L437.72,679.82L439.41,679.69L441.11,680.07L442.8,679.82L444.5,679.94L446.19,679.94L447.88,680.07L449.58,679.94L451.27,680.07L452.97,680.19L454.66,680.44L456.35,680.44L458.05,680.7L459.74,680.7L461.44,680.57L463.13,680.82L464.82,680.82L466.52,680.95L468.21,680.95L469.91,681.32L471.6,681.32L473.29,681.45L474.99,681.58L476.68,681.45L478.38,681.7L480.07,681.7L481.76,681.95L483.46,681.58L485.15,681.58L486.85,681.83L488.54,681.83L490.23,681.83L491.93,681.7L493.62,681.95L495.32,682.08L497.01,682.2L498.7,682.33L500.4,682.58L502.09,682.58L503.79,682.71L505.48,682.83L507.17,683.34L508.87,683.46L510.56,683.46L512.26,683.46L513.95,683.71L515.64,683.84L517.34,684.09L519.03,684.09L520.73,684.09L522.42,684.34L524.11,684.34L525.81,684.34L527.5,684.47L529.2,684.47L530.89,684.72L532.58,684.72L534.28,684.85L535.97,685.1L537.67,684.97L539.36,685.1L541.05,685.22L542.75,685.35L544.44,685.35L546.14,685.35L547.83,685.6L549.52,685.6L551.22,685.73L552.91,685.73L554.61,685.85L556.3,685.98L557.99,685.98L559.69,685.85L561.38,686.1L563.08,686.1L564.77,686.23L566.46,686.1L568.16,686.35L569.85,686.48L571.55,686.35L573.24,686.73L574.93,686.61L576.63,686.61L578.32,686.61L580.02,686.73L581.71,686.73L583.4,686.86L585.1,686.86L586.79,687.23L588.48,687.11L590.18,687.11L591.87,687.23L593.57,687.23L595.26,687.23L596.95,687.49L598.65,687.61L600.34,687.49L602.04,687.61L603.73,687.99L605.42,687.86L607.12,688.12L608.81,688.12L610.51,688.24L612.2,688.49L613.89,688.62L615.59,688.49L617.28,688.49L618.98,688.74L620.67,688.87L622.36,688.87L624.06,688.87L625.75,689L627.45,688.87L629.14,689.25L630.83,689.25L632.53,689.12L634.22,689.12L635.92,689.37L637.61,689.5L639.3,689.5L641,689.5L642.69,689.62L644.39,689.75L646.08,689.75L647.77,689.75L649.47,689.88L651.16,689.88L652.86,689.88L654.55,690L656.24,690L657.94,690.25L659.63,690.13L661.33,690.25L663.02,690.13L664.71,690.5L666.41,690.38L668.1,690.5L669.8,690.5L671.49,690.5L673.18,690.76L674.88,690.76L676.57,690.88L678.27,690.88L679.96,691.01L681.65,690.88L683.35,691.01L685.04,691.01L686.74,691.01L688.43,691.01L690.12,691.26L691.82,691.13L693.51,691.13L695.21,691.13L696.9,691.26L698.59,691.13L700.29,691.38L701.98,691.38L703.68,691.38L705.37,691.64L707.06,691.89L708.76,691.89L710.45,692.01L712.15,692.01L713.84,692.27L715.53,692.52L717.23,692.52L718.92,692.64L720.62,692.64L722.31,692.52L724,692.64L725.7,692.77L727.39,692.64L729.09,692.77L730.78,692.77L732.47,692.89L734.17,692.89L735.86,692.77L737.56,692.89L739.25,692.89L740.94,693.02L742.64,693.15L744.33,693.15L746.02,693.15L747.72,693.27L749.41,693.4L751.11,693.27L752.8,693.4L754.49,693.27L756.19,693.27L757.88,693.4L759.58,693.4L761.27,693.27L762.96,693.52L764.66,693.4L766.35,693.52L768.05,693.65L769.74,693.77L771.43,693.77L773.13,693.9L774.82,693.9L776.52,693.9L778.21,693.9L779.9,694.03L781.6,694.15L783.29,694.15L784.99,694.15L786.68,694.28L788.37,694.15L790.07,694.4L791.76,694.4L793.46,694.4L795.15,694.4L796.84,694.53L798.54,694.65L800.23,694.65L801.93,694.78L803.62,694.78L805.31,694.78L807.01,694.78L808.7,695.03L810.4,695.16L812.09,695.28L813.78,695.28L815.48,695.41L817.17,695.53L818.87,695.53L820.56,695.66L822.25,695.53L823.95,695.53L825.64,695.79L827.34,695.66L829.03,695.66L830.72,695.91L832.42,695.91L834.11,695.91L835.81,695.79L837.5,695.91L839.19,696.29L840.89,696.29L842.58,696.41L844.28,696.41L845.97,696.29L847.66,696.41L849.36,696.54L851.05,696.54L852.75,696.54L854.44,696.54L856.13,696.67L857.83,696.67L859.52,696.54L861.22,696.67L862.91,696.67L864.6,696.67L866.3,696.92L867.99,696.92L869.69,696.79L871.38,696.79L873.07,696.92L874.77,696.92L876.46,696.92L878.16,696.92L879.85,696.92L881.54,696.92L883.24,696.92L884.93,697.3L886.63,697.3L888.32,697.17L890.01,697.3L891.71,697.3L893.4,697.42L895.1,697.42L896.79,697.42L898.48,697.42L900.18,697.3L901.87,697.3L903.57,697.55L905.26,697.55L906.95,697.55L908.65,697.55L910.34,697.55L912.03,697.67L913.73,697.8L915.42,697.92L917.12,697.92L918.81,698.18L920.5,698.05L922.2,698.05L923.89,697.92L925.59,697.92L927.28,698.18L928.97,698.18L930.67,698.18L932.36,698.05L934.06,698.3L935.75,698.18L937.44,698.3L939.14,698.3L940.83,698.43L942.53,698.43L944.22,698.43L945.91,698.43L947.61,698.55L949.3,698.55L951,698.55L952.69,698.55L954.38,698.68L956.08,698.55L957.77,698.68L959.47,698.8L961.16,698.8L962.85,698.8L964.55,698.68L966.24,698.8L967.94,698.93L969.63,698.93L971.32,698.8L973.02,698.93L974.71,698.93L976.41,698.8L978.1,698.93L979.79,699.06L981.49,699.06L983.18,699.06L984.88,699.06L986.57,699.18L988.26,699.18L989.96,699.18L991.65,699.18L993.35,699.43L995.04,699.31L996.73,699.31L998.43,699.43L1000.1,699.56L1001.8,699.56L1003.5,699.43L1005.2,699.43L1006.9,699.43L1008.6,699.68L1010.3,699.81L1012,699.81L1013.7,699.94L1015.4,699.94L1017.1,700.31L1018.8,700.31L1020.4,700.31L1022.1,700.31L1023.8,700.31L1025.5,700.56L1027.2,700.44L1028.9,700.44L1030.6,700.31L1032.3,700.44L1034,700.44L1035.7,700.56L1037.4,700.56L1039.1,700.56L1040.8,700.69L1042.5,700.56L1044.2,700.56L1045.9,700.69L1047.6,700.94L1049.2,700.82L1050.9,700.82L1052.6,700.82L1054.3,700.82L1056,701.07L1057.7,700.94L1059.4,700.94L1061.1,701.19L1062.8,701.19L1064.5,701.19L1066.2,701.32L1067.9,701.44L1069.6,701.44L1071.3,701.44L1073,701.32" style="fill:none;stroke:#F15A60;stroke-width:1.875" />
<path d="M53.188,111.16L54.881,184.48L56.575,225.47L58.269,242.07L59.963,263.83L61.657,272.38L63.351,294.01L65.045,302.43L66.739,307.34L68.433,312.74L70.127,318.78L71.821,345.31L73.515,357.64L75.209,366.57L76.903,365.43L78.597,368.58L80.291,369.46L81.985,368.7L83.679,368.58L85.373,368.7L87.067,368.33L88.761,368.58L90.455,367.57L92.149,367.57L93.843,367.07L95.537,367.07L97.231,365.43L98.925,364.43L100.62,362.79L102.31,362.04L104.01,360.91L105.7,359.9L107.39,358.64L109.09,357.89L110.78,357.14L112.48,356.13L114.17,356.25L115.86,355.5L117.56,354.49L119.25,354.87L120.95,354.12L122.64,353.36L124.33,352.61L126.03,351.85L127.72,350.97L129.42,350.47L131.11,350.47L132.8,350.6L134.5,350.6L136.19,350.85L137.89,350.72L139.58,350.72L141.27,350.97L142.97,351.1L144.66,351.1L146.36,350.85L148.05,350.22L149.74,349.59L151.44,349.09L153.13,348.71L154.83,348.08L156.52,347.96" style="fill:none;stroke:#7AC36A;stroke-width:1.875;stroke-dasharray:7.5,2.5" />
<path d="M1055,694.3L1080,694.3" style="fill:none;stroke:#F15A60;stroke-width:1.875" />
<text x="1002.5" y="-687.85" transform="scale(1, -1)"
	style="font-family:Helvetica;font-weight:normal;font-style:normal;font-size:12pt">etcd v3</text>
<path d="M1055,680L1080,680" style="fill:none;stroke:#7AC36A;stroke-width:1.875;stroke-dasharray:7.5,2.5" />
<text x="934.1" y="-673.56" transform="scale(1, -1)"
	style="font-family:Helvetica;font-weight:normal;font-style:normal;font-size:12pt">Zookeeper v3.4.8</text>
</g>
</svg>
