<?xml version="1.0"?>
<!-- Generated by SVGo and Plotinum VG -->
<svg width="12in" height="8in"
	xmlns="http://www.w3.org/2000/svg"
	xmlns:xlink="http://www.w3.org/1999/xlink">
<g transform="scale(1, -1) translate(0, -720)">
<path d="M0,0L1080,0L1080,720L0,720Z" style="fill:#FFFFFF" />
<text x="281.98" y="-706.41" transform="scale(1, -1)"
	style="font-family:Helvetica;font-weight:normal;font-style:normal;font-size:12pt">Write 300K keys, 1 client, key 64 bytes, value 256 bytes, Latency(millisecond)</text>
<text x="540.22" y="-4.965" transform="scale(1, -1)"
	style="font-family:Helvetica;font-weight:normal;font-style:normal;font-size:12pt">Second</text>
<text x="53.188" y="-19.142" transform="scale(1, -1)"
	style="font-family:Helvetica;font-weight:normal;font-style:normal;font-size:10pt">0</text>
<text x="383.87" y="-19.142" transform="scale(1, -1)"
	style="font-family:Helvetica;font-weight:normal;font-style:normal;font-size:10pt">200</text>
<text x="721.51" y="-19.142" transform="scale(1, -1)"
	style="font-family:Helvetica;font-weight:normal;font-style:normal;font-size:10pt">400</text>
<text x="1059.1" y="-19.142" transform="scale(1, -1)"
	style="font-family:Helvetica;font-weight:normal;font-style:normal;font-size:10pt">600</text>
<path d="M56.662,30.467L56.662,40.467" style="fill:none;stroke:#000000;stroke-width:0.625" />
<path d="M394.3,30.467L394.3,40.467" style="fill:none;stroke:#000000;stroke-width:0.625" />
<path d="M731.94,30.467L731.94,40.467" style="fill:none;stroke:#000000;stroke-width:0.625" />
<path d="M1069.6,30.467L1069.6,40.467" style="fill:none;stroke:#000000;stroke-width:0.625" />
<path d="M225.48,35.468L225.48,40.467" style="fill:none;stroke:#000000;stroke-width:0.625" />
<path d="M563.12,35.468L563.12,40.467" style="fill:none;stroke:#000000;stroke-width:0.625" />
<path d="M900.76,35.468L900.76,40.467" style="fill:none;stroke:#000000;stroke-width:0.625" />
<path d="M56.662,40.467L1074.6,40.467" style="fill:none;stroke:#000000;stroke-width:0.625" />
<g transform="rotate(90)">
<text x="305.89" y="13.59" transform="scale(1, -1)"
	style="font-family:Helvetica;font-weight:normal;font-style:normal;font-size:12pt">Latency(millisecond)</text>
</g>
<text x="18.555" y="-230.69" transform="scale(1, -1)"
	style="font-family:Helvetica;font-weight:normal;font-style:normal;font-size:10pt">2.4</text>
<text x="18.555" y="-423.27" transform="scale(1, -1)"
	style="font-family:Helvetica;font-weight:normal;font-style:normal;font-size:10pt">3.2</text>
<text x="28.98" y="-615.85" transform="scale(1, -1)"
	style="font-family:Helvetica;font-weight:normal;font-style:normal;font-size:10pt">4</text>
<path d="M39.405,236.06L49.405,236.06" style="fill:none;stroke:#000000;stroke-width:0.625" />
<path d="M39.405,428.64L49.405,428.64" style="fill:none;stroke:#000000;stroke-width:0.625" />
<path d="M39.405,621.22L49.405,621.22" style="fill:none;stroke:#000000;stroke-width:0.625" />
<path d="M44.405,139.77L49.405,139.77" style="fill:none;stroke:#000000;stroke-width:0.625" />
<path d="M44.405,236.06L49.405,236.06" style="fill:none;stroke:#000000;stroke-width:0.625" />
<path d="M44.405,332.35L49.405,332.35" style="fill:none;stroke:#000000;stroke-width:0.625" />
<path d="M44.405,428.64L49.405,428.64" style="fill:none;stroke:#000000;stroke-width:0.625" />
<path d="M44.405,524.93L49.405,524.93" style="fill:none;stroke:#000000;stroke-width:0.625" />
<path d="M44.405,621.22L49.405,621.22" style="fill:none;stroke:#000000;stroke-width:0.625" />
<path d="M49.405,47.03L49.405,701.44" style="fill:none;stroke:#000000;stroke-width:0.625" />
<path d="M56.662,119.06L58.351,104.83L60.039,98.657L61.727,110.72L63.415,107.4L65.103,108.72L66.792,101.1L68.48,97.809L70.168,106.65L71.856,102.63L73.544,114.18L75.233,104.75L76.921,109.56L78.609,104.87L80.297,108.43L81.985,120.33L83.673,127.34L85.362,112.98L87.05,114.78L88.738,131.92L90.426,134.79L92.114,186.31L93.803,243.6L95.491,220.47L97.179,227.54L98.867,222.58L100.56,210.76L102.24,266.29L103.93,275.54L105.62,282.3L107.31,296.18L109,176.44L110.68,196.27L112.37,190.92L114.06,193.09L115.75,196.18L117.44,222.95L119.13,127.25L120.81,135.89L122.5,122L124.19,118.22L125.88,115.56L127.57,117.08L129.25,109.85L130.94,102.82L132.63,125.83L134.32,115.58L136.01,121.05L137.7,119.27L139.38,116.65L141.07,108.7L142.76,116.04L144.45,120.66L146.14,141.54L147.82,113.88L149.51,103.7L151.2,116.75L152.89,105.87L154.58,132.4L156.27,123.1L157.95,127.39L159.64,96.567L161.33,111.28L163.02,116.27L164.71,100.88L166.39,101.77L168.08,94.165L169.77,105.19L171.46,106.24L173.15,123.15L174.84,104.3L176.52,107.65L178.21,97.794L179.9,114.06L181.59,105.65L183.28,151.73L184.96,115.98L186.65,112.61L188.34,118.86L190.03,121.76L191.72,118.26L193.41,188.43L195.09,232.52L196.78,204.48L198.47,226.09L200.16,229.41L201.85,214.53L203.53,251.7L205.22,279.4L206.91,327.29L208.6,301.22L210.29,215.91L211.98,233.06L213.66,233.35L215.35,222.52L217.04,231.03L218.73,176.09L220.42,130.03L222.1,113.98L223.79,130.6L225.48,122.83L227.17,111.99L228.86,126.86L230.55,109.44L232.23,112.97L233.92,136.04L235.61,116.09L237.3,99.761L238.99,111.4L240.67,109.36L242.36,108.67L244.05,113.03L245.74,109.81L247.43,104.48L249.12,102.62L250.8,127.28L252.49,107.09L254.18,114.33L255.87,107.3L257.56,103.44L259.24,113.24L260.93,112.23L262.62,117.89L264.31,110.24L266,108.3L267.69,116.43L269.37,100.71L271.06,105.67L272.75,102.67L274.44,117.92L276.13,108.16L277.82,111.96L279.5,100.97L281.19,110.42L282.88,106L284.57,135.03L286.26,133.49L287.94,131.27L289.63,136.82L291.32,119.06L293.01,125.78L294.7,197.2L296.39,215.22L298.07,221.04L299.76,198.91L301.45,201.55L303.14,195.42L304.83,243.61L306.51,263.16L308.2,264.68L309.89,255.07L311.58,174.47L313.27,163.64L314.96,190.87L316.64,166.88L318.33,170.91L320.02,195.93L321.71,147.32L323.4,120.66L325.08,105.07L326.77,105.73L328.46,105.14L330.15,101.53L331.84,119.92L333.53,101.98L335.21,105.66L336.9,104.46L338.59,102.09L340.28,113.21L341.97,117.45L343.65,108.42L345.34,109.8L347.03,99.859L348.72,113.52L350.41,144.82L352.1,106.35L353.78,123.74L355.47,110.23L357.16,111.16L358.85,105.2L360.54,128.57L362.22,99.83L363.91,130.67L365.6,121.95L367.29,105.79L368.98,103.67L370.67,127.66L372.35,108.01L374.04,113.64L375.73,106.17L377.42,99.023L379.11,97.992L380.79,101.93L382.48,103.03L384.17,109.84L385.86,128.61L387.55,111.23L389.24,112.07L390.92,119.1L392.61,108.43L394.3,110.58L395.99,205.04L397.68,232L399.36,228.41L401.05,208.91L402.74,209.78L404.43,222.05L406.12,279.11L407.81,309.97L409.49,290.93L411.18,262.34L412.87,203.19L414.56,203.15L416.25,176.21L417.93,194.47L419.62,190.44L421.31,200.79L423,138.2L424.69,105L426.38,111.55L428.06,108.27L429.75,113.39L431.44,97.053L433.13,132.64L434.82,103.08L436.5,100.21L438.19,115.05L439.88,106.5L441.57,98.238L443.26,114.46L444.95,108.16L446.63,103.46L448.32,100.76L450.01,102.21L451.7,109.57L453.39,110.58L455.07,128.42L456.76,104.56L458.45,116.83L460.14,123.07L461.83,119.59L463.52,112.08L465.2,111.81L466.89,100.51L468.58,101.43L470.27,105.3L471.96,117.24L473.64,106.41L475.33,101.51L477.02,106.96L478.71,103.18L480.4,110.13L482.09,112.89L483.77,100.08L485.46,183.08L487.15,119.33L488.84,135.37L490.53,115.98L492.21,111.97L493.9,110.76L495.59,129.47L497.28,194.96L498.97,216.65L500.66,213.1L502.34,228.19L504.03,211.81L505.72,212.22L507.41,249.59L509.1,312.89L510.78,294.98L512.47,286.84L514.16,194.19L515.85,186.79L517.54,188.73L519.23,173.54L520.91,185.28L522.6,179.83L524.29,142.25L525.98,117.35L527.67,127.82L529.35,105.26L531.04,116.82L532.73,112.15L534.42,102.5L536.11,109.81L537.8,120.02L539.48,107.62L541.17,95.553L542.86,116.32L544.55,103.04L546.24,110.7L547.93,97.413L549.61,111.86L551.3,112.65L552.99,107.99L554.68,105.11L556.37,140.64L558.05,102.82L559.74,100.48L561.43,100.01L563.12,145.4L564.81,129.27L566.5,128.44L568.18,116.29L569.87,116.59L571.56,107.36L573.25,106.23L574.94,114.02L576.62,115.67L578.31,102.86L580,128.12L581.69,119.98L583.38,106.46L585.07,105.05L586.75,111.06L588.44,120.23L590.13,121.6L591.82,114.91L593.51,112.8L595.19,118.46L596.88,115.56L598.57,202.35L600.26,218.04L601.95,217.03L603.64,256.69L605.32,207.01L607.01,213.28L608.7,264.38L610.39,288.4L612.08,279L613.76,272.62L615.45,194.08L617.14,195.48L618.83,192.89L620.52,195.69L622.21,199.18L623.89,195.02L625.58,129.6L627.27,120.09L628.96,118.87L630.65,119.13L632.33,98.172L634.02,113.23L635.71,114.88L637.4,122.86L639.09,122.34L640.78,110.79L642.46,120.89L644.15,120.54L645.84,109.63L647.53,114.24L649.22,115.87L650.9,126.13L652.59,118.7L654.28,117.95L655.97,119.02L657.66,145.87L659.35,112.9L661.03,110.86L662.72,120.74L664.41,135.68L666.1,122.66L667.79,111.19L669.47,118.58L671.16,128.41L672.85,123.64L674.54,112.82L676.23,111.26L677.92,105.22L679.6,121.82L681.29,122.29L682.98,128.03L684.67,115.13L686.36,114.48L688.04,139.39L689.73,134.14L691.42,155.09L693.11,132.82L694.8,137.44L696.49,151.88L698.17,118.72L699.86,196.38L701.55,240.03L703.24,256.63L704.93,263.27L706.61,260.02L708.3,231.37L709.99,280.79L711.68,324.43L713.37,295.57L715.06,329.83L716.74,254.13L718.43,230.84L720.12,181.18L721.81,210.43L723.5,197.01L725.18,205.68L726.87,141.45L728.56,117.13L730.25,108.83L731.94,108.24L733.63,118.74L735.31,111.26L737,125.11L738.69,114.69L740.38,141.24L742.07,113.62L743.75,106.92L745.44,118.91L747.13,123.59L748.82,128.98L750.51,120.87L752.2,109.54L753.88,114.02L755.57,97.124L757.26,116.96L758.95,108.11L760.64,115.07L762.32,112.8L764.01,115.2L765.7,133.48L767.39,114.45L769.08,113.01L770.77,113.7L772.45,119.07L774.14,126.03L775.83,112.17L777.52,113.57L779.21,119.06L780.89,111.21L782.58,126.44L784.27,121.85L785.96,108.02L787.65,103.5L789.34,108.29L791.02,115.71L792.71,120.44L794.4,118.83L796.09,121.28L797.78,121.26L799.46,126.03L801.15,185.95L802.84,241.33L804.53,229.42L806.22,224.99L807.91,230.12L809.59,241.69L811.28,262.56L812.97,300.11L814.66,327.18L816.35,313.67L818.04,203.91L819.72,211.67L821.41,205.57L823.1,178.85L824.79,204.11L826.48,204.82L828.16,141.94L829.85,131.03L831.54,113.47L833.23,114.88L834.92,105.94L836.61,105.34L838.29,138.55L839.98,114.52L841.67,123.57L843.36,115.14L845.05,116.43L846.73,111.38L848.42,127.77L850.11,112.47L851.8,115.97L853.49,131.84L855.18,116.73L856.86,136.8L858.55,123.24L860.24,112.58L861.93,125.45L863.62,118.55L865.3,127.34L866.99,118.16L868.68,114.9L870.37,112.71L872.06,115.22L873.75,107.95L875.43,126.69L877.12,106.94L878.81,109.5L880.5,106.44L882.19,113.31L883.87,121.18L885.56,105.12L887.25,115.96L888.94,110.88L890.63,116.32L892.32,133.48L894,147.09L895.69,126.77L897.38,146.17L899.07,114.33L900.76,118.91L902.44,211.71L904.13,240.19L905.82,230.77L907.51,229.5L909.2,209.63L910.89,221.66L912.57,292.66L914.26,324.08L915.95,369.38L917.64,333.68L919.33,220.26L921.01,202.98L922.7,189.22L924.39,194.17L926.08,206.22L927.77,223.99L929.46,133.75L931.14,112.45L932.83,112.32L934.52,117.38L936.21,128.35L937.9,160.38L939.58,119.07L941.27,116.69L942.96,118.61L944.65,115.56L946.34,106.87L948.03,128.47L949.71,113.34L951.4,125.75L953.09,123.99L954.78,114.19L956.47,109.08L958.15,138L959.84,131.41L961.53,116.6L963.22,117L964.91,117.42L966.6,108.72L968.28,138.59L969.97,121.58L971.66,95.862L973.35,117.36L975.04,110.93L976.72,109.16L978.41,126.71L980.1,106.81L981.79,112.76L983.48,120.2L985.17,108.7L986.85,108.12L988.54,139.94L990.23,128.02L991.92,111.17L993.61,118.06L995.29,127.2L996.98,122.01L998.67,128.28L1000.4,112.16L1002,129.22L1003.7,207.24L1005.4,228.21L1007.1,242.9L1008.8,239.97L1010.5,235.99L1012.2,234.85L1013.9,278.89L1015.6,331L1017.2,306.95L1018.9,291.11L1020.6,216.7L1022.3,243L1024,187.76L1025.7,186.44L1027.4,184.81L1029.1,177.97L1030.7,125.67L1032.4,118.92L1034.1,144.09L1035.8,114.33L1037.5,119.33L1039.2,114.62L1040.9,108.06L1042.6,110.78L1044.3,110.02L1045.9,120.98L1047.6,112.52L1049.3,128.74L1051,131.59L1052.7,117.41L1054.4,112.84L1056.1,117.08L1057.8,105.99L1059.4,100.77L1061.1,109.86L1062.8,123.02L1064.5,128.85L1066.2,140.29L1067.9,108.05L1069.6,114.2L1071.3,106.35L1073,107.06L1074.6,102.42" style="fill:none;stroke:#F15A60;stroke-width:1.875" />
<path d="M56.662,260.96L58.351,145.37L60.039,119.02L61.727,124.32L63.415,103.76L65.103,122.53L66.792,118.31L68.48,118.88L70.168,117.29L71.856,125.95L73.544,118.17L75.233,128L76.921,127.72L78.609,114.52L80.297,100.78L81.985,202.04L83.673,222.79L85.362,202.26L87.05,117.57L88.738,131.03L90.426,129.36L92.114,118.51L93.803,117.06L95.491,123.91L97.179,132.73L98.867,92.764L100.56,86.899L102.24,84.113L103.93,100.4L105.62,100.12L107.31,89.336L109,90.673L110.68,88.544L112.37,95.538L114.06,77.825L115.75,94.143L117.44,87.824L119.13,91.595L120.81,91.895L122.5,90.718L124.19,95.25L125.88,95.111L127.57,97.726L129.25,91.995L130.94,99.569L132.63,126.86L134.32,138.93L136.01,134.19L137.7,127.64L139.38,129.37L141.07,136.74L142.76,135.92L144.45,130.49L146.14,130.06L147.82,127.6L149.51,83.107L151.2,93.84L152.89,96.521L154.58,96.314L156.27,86.781L157.95,96.824L159.64,82.465L161.33,83.412L163.02,84.376L164.71,86.026L166.39,96.639L168.08,94.367L169.77,88.148L171.46,112.69L173.15,101.55L174.84,122.4L176.52,109.41L178.21,93.078L179.9,91.703L181.59,88.978L183.28,187.11L184.96,196.42L186.65,207.41L188.34,117.69L190.03,110.27L191.72,114.51L193.41,120.03L195.09,108.73L196.78,116.73L198.47,121.76L200.16,87.55L201.85,85.161L203.53,86.277L205.22,90.75L206.91,92.099L208.6,91.831L210.29,94.345L211.98,108.71L213.66,91.367L215.35,99.917L217.04,93.762L218.73,91.35L220.42,113.23L222.1,82.543L223.79,86.51L225.48,80.999L227.17,81.167L228.86,89.278L230.55,96.82L232.23,111.66L233.92,109.74L235.61,124.51L237.3,134.06L238.99,128.12L240.67,135.7L242.36,128.68L244.05,134.66L245.74,119.72L247.43,126.31L249.12,115.18L250.8,96.02L252.49,88.685L254.18,88.064L255.87,98.172L257.56,81.247L259.24,80.458L260.93,86.267L262.62,100.6L264.31,92.949L266,96.291L267.69,95.961L269.37,96.242L271.06,89.288L272.75,99.697L274.44,95.396L276.13,97.189L277.82,92.38L279.5,84.782L281.19,111.25L282.88,99.676L284.57,215.12L286.26,238.68L287.94,226.58L289.63,126.75L291.32,120.3L293.01,136.13L294.7,132.16L296.39,139.99L298.07,138.64L299.76,133.84L301.45,95.188L303.14,82.159L304.83,89.099L306.51,88.215L308.2,87.728L309.89,92.591L311.58,95.008L313.27,92.144L314.96,85.26L316.64,81.213L318.33,79.362L320.02,86.801L321.71,92.894L323.4,94.031L325.08,104.79L326.77,77.133L328.46,77.972L330.15,81.811L331.84,86.432L333.53,74.324L335.21,113.73L336.9,138.41L338.59,133.29L340.28,144.49L341.97,130.17L343.65,125.63L345.34,136.29L347.03,125.25L348.72,129.96L350.41,131L352.1,93.459L353.78,92.44L355.47,89.554L357.16,89.452L358.85,100.95L360.54,107.44L362.22,92.342L363.91,87.348L365.6,89.617L367.29,99.442L368.98,84.672L370.67,77.925L372.35,124.42L374.04,98.388L375.73,110.48L377.42,106.84L379.11,106.47L380.79,111.16L382.48,147.85L384.17,94.023L385.86,177.43L387.55,218.07L389.24,211.27L390.92,126.31L392.61,137.95L394.3,131.4L395.99,127.33L397.68,122.78L399.36,118.83L401.05,122.25L402.74,102.53L404.43,95.352L406.12,93.453L407.81,86.197L409.49,82.406L411.18,85.27L412.87,88.376L414.56,100.92L416.25,102.76L417.93,93.535L419.62,91.024L421.31,75.389L423,75.639L424.69,86.096L426.38,104.19L428.06,90.552L429.75,92.87L431.44,91.869L433.13,92.952L434.82,94.712L436.5,124.94L438.19,124.39L439.88,131.35L441.57,133.8L443.26,129.59L444.95,130.81L446.63,134.55L448.32,122.38L450.01,125.58L451.7,120.97L453.39,91.618L455.07,97.109L456.76,96.064L458.45,88.855L460.14,76.566L461.83,84.89L463.52,74.229L465.2,70.931L466.89,81.106L468.58,84.486L470.27,80.896L471.96,80.25L473.64,91.536L475.33,94.581L477.02,87.167L478.71,92.931L480.4,100.49L482.09,90.446L483.77,113.88L485.46,92.705L487.15,170.22L488.84,200.33L490.53,194.37L492.21,133.88L493.9,130.96L495.59,120.37L497.28,135.39L498.97,118.62L500.66,124.53L502.34,124.28L504.03,83.849L505.72,79.003L507.41,80.093L509.1,88.209L510.78,84.551L512.47,77.808L514.16,87.006L515.85,94.195L517.54,93.979L519.23,89.948L520.91,77.064L522.6,77.285L524.29,85.534L525.98,83.902L527.67,79.824L529.35,89.941L531.04,85.493L532.73,102.97L534.42,93.093L536.11,97.491L537.8,127.94L539.48,125.76L541.17,125.68L542.86,121.72L544.55,130.39L546.24,125.14L547.93,111.93L549.61,114.36L551.3,120.44L552.99,120.24L554.68,94.106L556.37,86.617L558.05,96.441L559.74,89.611L561.43,90.238L563.12,80.957L564.81,79.066L566.5,83.673L568.18,82.446L569.87,81.262L571.56,87.325L573.25,102.11L574.94,97.648L576.62,107.89L578.31,98.169L580,112.01L581.69,112.61L583.38,99.817L585.07,115L586.75,98.222L588.44,157.14L590.13,201.3L591.82,179.11L593.51,98.823L595.19,98.257L596.88,106.65L598.57,107.18L600.26,95.962L601.95,104.51L603.64,104.83L605.32,62.769L607.01,69.93L608.7,64.86L610.39,62.513L612.08,83.735L613.76,65.042L615.45,53.96L617.14,57.317L618.83,63.863L620.52,79.275L622.21,62.86L623.89,60.033L625.58,58.005L627.27,67.498L628.96,66.164L630.65,62.425L632.33,61.313L634.02,76.806L635.71,74.418L637.4,58.635L639.09,125.11L640.78,107.82L642.46,109.71L644.15,110.97L645.84,115.71L647.53,132.43L649.22,118.02L650.9,106.13L652.59,105.1L654.28,99.013L655.97,63.208L657.66,56.4L659.35,65.54L661.03,67.17L662.72,62.366L664.41,62.301L666.1,67.265L667.79,67.922L669.47,58.631L671.16,76.841L672.85,62.342L674.54,61.67L676.23,83.478L677.92,701.44L679.6,110.97L681.29,106.79L682.98,109.46L684.67,100.93L686.36,109.28L688.04,108.86L689.73,165.37L691.42,188.87L693.11,172.34L694.8,117.96L696.49,107.63L698.17,105.3L699.86,105.07L701.55,114.68L703.24,107.1L704.93,105.73L706.61,72.912L708.3,70.622L709.99,65.495L711.68,68.468L713.37,72.216L715.06,68.226L716.74,67.404L718.43,65.294L720.12,86.693L721.81,86.984L723.5,77.568L725.18,90.991L726.87,82.541L728.56,85.834L730.25,81.692L731.94,86.988L733.63,103.02L735.31,88.923L737,94.001L738.69,92.023L740.38,123.02L742.07,126.12L743.75,130.22L745.44,125.66L747.13,133.58L748.82,133.33L750.51,126.51L752.2,125.36L753.88,135.25L755.57,129.67L757.26,94.349L758.95,81.453L760.64,83.513L762.32,89.106L764.01,86.661L765.7,81.136L767.39,93.138L769.08,87.374L770.77,84.531L772.45,86.932L774.14,107.44L775.83,93.099L777.52,82.994L779.21,114.79L780.89,110.75L782.58,107.39L784.27,113.66L785.96,96.925L787.65,98.115L789.34,99.517L791.02,184.1L792.71,219.57L794.4,209.56L796.09,128.16L797.78,132.51L799.46,136.02L801.15,136.06L802.84,127.09L804.53,129.48L806.22,114.13L807.91,97.925L809.59,81.097L811.28,91.661L812.97,84.349L814.66,94.909L816.35,94.989L818.04,83.853L819.72,86.833L821.41,88.075L823.1,84.263L824.79,88.038L826.48,90.235L828.16,83.174L829.85,80.04L831.54,82.901L833.23,80.336L834.92,81.722L836.61,94.65L838.29,88.929L839.98,102.49L841.67,134.01L843.36,141.16L845.05,131.52L846.73,127.46L848.42,136.17L850.11,131.87L851.8,129.32L853.49,108.56L855.18,121.96L856.86,116.84L858.55,94.272L860.24,84.1L861.93,87.831L863.62,79.565L865.3,70.778L866.99,80.443L868.68,85.852L870.37,78.341L872.06,81.34L873.75,76.609L875.43,80.05L877.12,81.814L878.81,84.261L880.5,91.992L882.19,85.083L883.87,96.54L885.56,96.809L887.25,92.796L888.94,94.573L890.63,95.603L892.32,179L894,203.81L895.69,191.91L897.38,99.764L899.07,99.825L900.76,100.66L902.44,107.39L904.13,110.67L905.82,114.01L907.51,109.46L909.2,66.301L910.89,61.779L912.57,63.7L914.26,60.132L915.95,63.773L917.64,68.396L919.33,60.704L921.01,69.258L922.7,62.909L924.39,69.426L926.08,64.669L927.77,60.353L929.46,57.353L931.14,69.436L932.83,68.454L934.52,59.743L936.21,64.183L937.9,175.96L939.58,184.07L941.27,76.929L942.96,106.3L944.65,111.89L946.34,145.6L948.03,103.52L949.71,105.96L951.4,109.75L953.09,107.41L954.78,99.964L956.47,112.9L958.15,116.88L959.84,83.889L961.53,71.915L963.22,66.237L964.91,61.801L966.6,63.881L968.28,74.602L969.97,47.03L971.66,60.85L973.35,64.722L975.04,70.82L976.72,66.339L978.41,69.689L980.1,59.796L981.79,104.08L983.48,90.398L985.17,104.85L986.85,96.326L988.54,90.33" style="fill:none;stroke:#7AC36A;stroke-width:1.875;stroke-dasharray:7.5,2.5" />
<path d="M1055,694.3L1080,694.3" style="fill:none;stroke:#7AC36A;stroke-width:1.875;stroke-dasharray:7.5,2.5" />
<text x="934.1" y="-687.85" transform="scale(1, -1)"
	style="font-family:Helvetica;font-weight:normal;font-style:normal;font-size:12pt">Zookeeper v3.4.8</text>
<path d="M1055,680L1080,680" style="fill:none;stroke:#F15A60;stroke-width:1.875" />
<text x="1002.5" y="-673.56" transform="scale(1, -1)"
	style="font-family:Helvetica;font-weight:normal;font-style:normal;font-size:12pt">etcd v3</text>
</g>
</svg>
