<?xml version="1.0"?>
<!-- Generated by SVGo and Plotinum VG -->
<svg width="12in" height="8in"
	xmlns="http://www.w3.org/2000/svg"
	xmlns:xlink="http://www.w3.org/1999/xlink">
<g transform="scale(1, -1) translate(0, -720)">
<path d="M0,0L1080,0L1080,720L0,720Z" style="fill:#FFFFFF" />
<text x="272" y="-706.41" transform="scale(1, -1)"
	style="font-family:Helvetica;font-weight:normal;font-style:normal;font-size:12pt">Write 2M keys, 1K clients(50 etcd conns), key 64 bytes, value 1 kb, Memory(MB)</text>
<text x="548.11" y="-4.965" transform="scale(1, -1)"
	style="font-family:Helvetica;font-weight:normal;font-style:normal;font-size:12pt">Second</text>
<text x="63.613" y="-19.142" transform="scale(1, -1)"
	style="font-family:Helvetica;font-weight:normal;font-style:normal;font-size:10pt">0</text>
<text x="367.37" y="-19.142" transform="scale(1, -1)"
	style="font-family:Helvetica;font-weight:normal;font-style:normal;font-size:10pt">200</text>
<text x="678.08" y="-19.142" transform="scale(1, -1)"
	style="font-family:Helvetica;font-weight:normal;font-style:normal;font-size:10pt">400</text>
<text x="988.79" y="-19.142" transform="scale(1, -1)"
	style="font-family:Helvetica;font-weight:normal;font-style:normal;font-size:10pt">600</text>
<path d="M67.088,30.467L67.088,40.467" style="fill:none;stroke:#000000;stroke-width:0.625" />
<path d="M377.8,30.467L377.8,40.467" style="fill:none;stroke:#000000;stroke-width:0.625" />
<path d="M688.51,30.467L688.51,40.467" style="fill:none;stroke:#000000;stroke-width:0.625" />
<path d="M999.22,30.467L999.22,40.467" style="fill:none;stroke:#000000;stroke-width:0.625" />
<path d="M222.44,35.468L222.44,40.467" style="fill:none;stroke:#000000;stroke-width:0.625" />
<path d="M533.15,35.468L533.15,40.467" style="fill:none;stroke:#000000;stroke-width:0.625" />
<path d="M843.86,35.468L843.86,40.467" style="fill:none;stroke:#000000;stroke-width:0.625" />
<path d="M67.088,40.467L1080,40.467" style="fill:none;stroke:#000000;stroke-width:0.625" />
<g transform="rotate(90)">
<text x="330.91" y="13.59" transform="scale(1, -1)"
	style="font-family:Helvetica;font-weight:normal;font-style:normal;font-size:12pt">Memory(MB)</text>
</g>
<text x="18.555" y="-189.3" transform="scale(1, -1)"
	style="font-family:Helvetica;font-weight:normal;font-style:normal;font-size:10pt">1000</text>
<text x="18.555" y="-340.05" transform="scale(1, -1)"
	style="font-family:Helvetica;font-weight:normal;font-style:normal;font-size:10pt">2000</text>
<text x="18.555" y="-490.79" transform="scale(1, -1)"
	style="font-family:Helvetica;font-weight:normal;font-style:normal;font-size:10pt">3000</text>
<text x="18.555" y="-641.53" transform="scale(1, -1)"
	style="font-family:Helvetica;font-weight:normal;font-style:normal;font-size:10pt">4000</text>
<path d="M49.83,194.67L59.83,194.67" style="fill:none;stroke:#000000;stroke-width:0.625" />
<path d="M49.83,345.42L59.83,345.42" style="fill:none;stroke:#000000;stroke-width:0.625" />
<path d="M49.83,496.16L59.83,496.16" style="fill:none;stroke:#000000;stroke-width:0.625" />
<path d="M49.83,646.9L59.83,646.9" style="fill:none;stroke:#000000;stroke-width:0.625" />
<path d="M54.83,119.3L59.83,119.3" style="fill:none;stroke:#000000;stroke-width:0.625" />
<path d="M54.83,270.04L59.83,270.04" style="fill:none;stroke:#000000;stroke-width:0.625" />
<path d="M54.83,420.79L59.83,420.79" style="fill:none;stroke:#000000;stroke-width:0.625" />
<path d="M54.83,571.53L59.83,571.53" style="fill:none;stroke:#000000;stroke-width:0.625" />
<path d="M59.83,47.03L59.83,701.44" style="fill:none;stroke:#000000;stroke-width:0.625" />
<path d="M67.088,47.03L68.641,59.397L70.195,60.671L71.748,62.008L73.302,64.509L74.855,66.013L76.409,67.804L77.962,69.354L79.516,71.196L81.069,72.712L82.623,74.022L84.177,76.096L85.73,76.527L87.284,78.954L88.837,79.56L90.391,81.315L91.944,83.676L93.498,85.5L95.051,86.089L96.605,86.208L98.158,87.08L99.712,87.776L101.27,88.57L102.82,89.06L104.37,89.43L105.93,90.807L107.48,91.54L109.03,91.695L110.59,92.773L112.14,93.635L113.69,93.807L115.25,95.396L116.8,96.097L118.35,97.065L119.91,97.306L121.46,97.466L123.02,98.898L124.57,100.51L126.12,101L127.68,101.13L129.23,101.29L130.78,101.57L132.34,101.94L133.89,102.59L135.44,102.76L137,103.54L138.55,105.34L140.1,105.59L141.66,106.22L143.21,107.03L144.76,107.23L146.32,108.32L147.87,108.71L149.43,109.33L150.98,109.95L152.53,110.09L154.09,111.55L155.64,112.62L157.19,113.22L158.75,113.32L160.3,113.4L161.85,114.47L163.41,116.23L164.96,116.77L166.51,117.27L168.07,117.94L169.62,118.41L171.18,118.47L172.73,118.55L174.28,119.03L175.84,120.48L177.39,121.63L178.94,122.58L180.5,124.39L182.05,124.78L183.6,125.1L185.16,125.6L186.71,126.35L188.26,126.51L189.82,127.09L191.37,127.6L192.92,128.35L194.48,128.8L196.03,129.53L197.59,130L199.14,130.47L200.69,131.93L202.25,132.79L203.8,133.18L205.35,133.51L206.91,133.94L208.46,134.42L210.01,134.9L211.57,135.38L213.12,135.76L214.67,136.6L216.23,137.32L217.78,138.37L219.34,138.93L220.89,139.81L222.44,141.52L224,141.83L225.55,142.28L227.1,142.88L228.66,143.81L230.21,144.61L231.76,145.25L233.32,145.45L234.87,145.82L236.42,146.7L237.98,147.78L239.53,148.26L241.08,149.11L242.64,149.86L244.19,150.39L245.75,150.92L247.3,151.48L248.85,152.55L250.41,153.25L251.96,153.54L253.51,154.43L255.07,155.37L256.62,155.64L258.17,155.82L259.73,157.14L261.28,158.03L262.83,158.94L264.39,159.18L265.94,159.87L267.5,160.15L269.05,160.77L270.6,161.18L272.16,161.98L273.71,162.82L275.26,163.74L276.82,164.98L278.37,165.2L279.92,165.6L281.48,166.83L283.03,167.02L284.58,167.7L286.14,168.79L287.69,169.05L289.24,170.12L290.8,170.76L292.35,170.89" style="fill:none;stroke:#F15A60;stroke-width:1.875" />
<path d="M67.088,53.153L68.641,73.121L70.195,93.914L71.748,122.96L73.302,157.3L74.855,182.88L76.409,204.59L77.962,225.03L79.516,259.68L81.069,261.7L82.623,304.77L84.177,305.24L85.73,308.03L87.284,320.29L88.837,328.03L90.391,336.17L91.944,342.2L93.498,348.06L95.051,347.96L96.605,348.08L98.158,348.48L99.712,360.08L101.27,365.46L102.82,370.93L104.37,370.97L105.93,378.03L107.48,378.06L109.03,378.06L110.59,378.06L112.14,378.07L113.69,378.32L115.25,378.57L116.8,378.64L118.35,378.68L119.91,378.71L121.46,378.72L123.02,378.72L124.57,378.72L126.12,378.8L127.68,378.7L129.23,378.7L130.78,378.7L132.34,378.7L133.89,378.71L135.44,378.89L137,379.05L138.55,378.97L140.1,378.99L141.66,378.99L143.21,378.99L144.76,378.99L146.32,378.99L147.87,378.99L149.43,378.99L150.98,378.99L152.53,379.05L154.09,379.05L155.64,379.44L157.19,379.83L158.75,379.72L160.3,379.72L161.85,379.72L163.41,380.09L164.96,380.19L166.51,380.29L168.07,380.12L169.62,379.95L171.18,380.21L172.73,380.21L174.28,380.22L175.84,380.22L177.39,379.84L178.94,379.84L180.5,379.56L182.05,379.56L183.6,378.78L185.16,380.39L186.71,407.74L188.26,410.81L189.82,409.4L191.37,416.04L192.92,409.16L194.48,409.31L196.03,409.31L197.59,408.82L199.14,408.85L200.69,411.21L202.25,416.94L203.8,422.82L205.35,423.8L206.91,425.87L208.46,430.58L210.01,433L211.57,439.24L213.12,440.92L214.67,440.92L216.23,440.92L217.78,440.92L219.34,440.91L220.89,427.55L222.44,427.65L224,427.13L225.55,427.13L227.1,426.1L228.66,425.04L230.21,421.92L231.76,420.73L233.32,418.97L234.87,417.53L236.42,417.54L237.98,415.26L239.53,414.75L241.08,419.28L242.64,419.31L244.19,419.35L245.75,418.5L247.3,418.07L248.85,417.64L250.41,417.64L251.96,417.64L253.51,417.64L255.07,417.64L256.62,417.64L258.17,417.64L259.73,417.66L261.28,434.21L262.83,434.35L264.39,438.26L265.94,442.09L267.5,445.76L269.05,445.94L270.6,455.55L272.16,455.55L273.71,455.55L275.26,455.71L276.82,455.71L278.37,455.71L279.92,456.54L281.48,456.54L283.03,456.54L284.58,456.54L286.14,456.54L287.69,456.81L289.24,456.92L290.8,456.85L292.35,456.79L293.91,457.35L295.46,457.67L297.01,459.83L298.57,459.38L300.12,467.83L301.67,478.28L303.23,482.63L304.78,490.43L306.33,491.75L307.89,492.82L309.44,494.52L310.99,496.99L312.55,498.12L314.1,501.63L315.65,501.89L317.21,509.94L318.76,513.44L320.32,516.03L321.87,516.14L323.42,516.14L324.98,516.16L326.53,516.17L328.08,516.18L329.64,516.9L331.19,517.63L332.74,517.63L334.3,517.42L335.85,517.22L337.4,517.22L338.96,517.22L340.51,517.22L342.07,517.22L343.62,517.22L345.17,517.22L346.73,517.22L348.28,517.22L349.83,519.07L351.39,520.93L352.94,520.93L354.49,520.93L356.05,520.93L357.6,520.93L359.15,520.93L360.71,520.94L362.26,520.94L363.81,520.94L365.37,520.94L366.92,520.94L368.48,520.94L370.03,520.94L371.58,520.94L373.14,520.94L374.69,520.94L376.24,520.94L377.8,520.94L379.35,520.94L380.9,520.94L382.46,520.94L384.01,520.94L385.56,520.94L387.12,520.94L388.67,520.94L390.23,520.94L391.78,520.94L393.33,520.94L394.89,521.98L396.44,522.92L397.99,522.92L399.55,522.92L401.1,522.92L402.65,522.92L404.21,522.92L405.76,522.92L407.31,522.92L408.87,522.92L410.42,522.92L411.97,522.92L413.53,522.92L415.08,522.92L416.64,522.92L418.19,522.92L419.74,522.92L421.3,522.92L422.85,522.92L424.4,522.92L425.96,522.92L427.51,522.92L429.06,522.92L430.62,522.92L432.17,522.92L433.72,522.92L435.28,522.92L436.83,522.92L438.39,522.92L439.94,522.92L441.49,522.92L443.05,521.11L444.6,518.77L446.15,514.49L447.71,514.7L449.26,522.64L450.81,549.79L452.37,527.95L453.92,527.95L455.47,528.15L457.03,528.28L458.58,528.28L460.13,528.28L461.69,549.09L463.24,542.03L464.8,542.15L466.35,542.15L467.9,542.15L469.46,542.15L471.01,542.15L472.56,542.15L474.12,541.92L475.67,543.98L477.22,549.56L478.78,555.22L480.33,558.1L481.88,559.95L483.44,567.16L484.99,569.89L486.55,569.97L488.1,569.97L489.65,574.64L491.21,576.77L492.76,578.72L494.31,578.72L495.87,578.72L497.42,578.72L498.97,578.72L500.53,578.72L502.08,578.72L503.63,578.72L505.19,579.81L506.74,580.91L508.29,580.91L509.85,581.73L511.4,582.14L512.96,582.55L514.51,582.55L516.06,582.55L517.62,582.55L519.17,582.55L520.72,582.55L522.28,582.55L523.83,582.55L525.38,583.17L526.94,583.78L528.49,583.78L530.04,583.78L531.6,583.78L533.15,583.78L534.71,583.78L536.26,583.78L537.81,583.78L539.37,583.78L540.92,583.78L542.47,584.51L544.03,584.87L545.58,585.23L547.13,585.23L548.69,585.23L550.24,585.23L551.79,585.23L553.35,585.23L554.9,585.23L556.45,585.23L558.01,585.23L559.56,585.23L561.12,585.23L562.67,585.23L564.22,585.23L565.78,585.23L567.33,585.23L568.88,585.23L570.44,585.23L571.99,585.23L573.54,585.23L575.1,585.23L576.65,585.23L578.2,585.23L579.76,585.23L581.31,585.23L582.87,585.23L584.42,585.23L585.97,585.23L587.53,585.23L589.08,585.23L590.63,586.99L592.19,586.99L593.74,586.99L595.29,586.99L596.85,586.99L598.4,586.99L599.95,586.99L601.51,586.99L603.06,586.99L604.61,586.99L606.17,586.99L607.72,586.99L609.28,586.99L610.83,586.99L612.38,586.99L613.94,586.99L615.49,586.99L617.04,586.99L618.6,586.99L620.15,586.99L621.7,586.99L623.26,586.99L624.81,586.99L626.36,586.99L627.92,586.99L629.47,586.99L631.02,585.97L632.58,584.04L634.13,581.62L635.69,579.66L637.24,575.61L638.79,573.52L640.35,571.87L641.9,569.91L643.45,572.4L645.01,601.11L646.56,569.93L648.11,569.93L649.67,576.62L651.22,577.81L652.77,578.01L654.33,578.17L655.88,579.45L657.44,592.74L658.99,602.67L660.54,612.6L662.1,614.59L663.65,614.59L665.2,614.59L666.76,614.59L668.31,614.59L669.86,614.55L671.42,614.64L672.97,614.64L674.52,614.12L676.08,613.59L677.63,613.59L679.18,616.17L680.74,620.31L682.29,622.48L683.85,625.08L685.4,627.33L686.95,630.11L688.51,631.63L690.06,636.97L691.61,636.97L693.17,636.97L694.72,639.23L696.27,640.35L697.83,641.48L699.38,641.48L700.93,641.48L702.49,641.48L704.04,641.48L705.6,641.48L707.15,641.48L708.7,641.48L710.26,641.48L711.81,631.69L713.36,621.9L714.92,621.9L716.47,621.9L718.02,621.9L719.58,624.05L721.13,624.05L722.68,624.05L724.24,624.05L725.79,624.05L727.34,624.05L728.9,624.05L730.45,624.05L732.01,624.05L733.56,624.05L735.11,626.37L736.67,626.37L738.22,626.37L739.77,626.37L741.33,626.37L742.88,626.37L744.43,626.37L745.99,626.37L747.54,626.37L749.09,626.37L750.65,626.37L752.2,626.37L753.76,626.37L755.31,626.37L756.86,626.37L758.42,626.37L759.97,626.37L761.52,626.37L763.08,622.25L764.63,619.57L766.18,616.22L767.74,616.23L769.29,626.4L770.84,626.4L772.4,626.4L773.95,626.4L775.5,626.45L777.06,627.82L778.61,629.1L780.17,629.1L781.72,629.1L783.27,631.08L784.83,631.08L786.38,634.88L787.93,638.07L789.49,638.07L791.04,635.34L792.59,635.43L794.15,635.42L795.7,637.92L797.25,640.43L798.81,644.01L800.36,645.45L801.92,647.71L803.47,649.25L805.02,658.94L806.58,663.51L808.13,675.92L809.68,676.03L811.24,682.29L812.79,683.01L814.34,683.35L815.9,683.42L817.45,683.46L819,684.31L820.56,684.31L822.11,684.31L823.66,684.31L825.22,684.31L826.77,684.27L828.33,684.28L829.88,684.28L831.43,684.39L832.99,684.48L834.54,684.77L836.09,684.77L837.65,684.77L839.2,684.8L840.75,684.8L842.31,684.8L843.86,684.8L845.41,684.8L846.97,685.07L848.52,685.43L850.08,687.07L851.63,690.89L853.18,692.8L854.74,693.75L856.29,694.29L857.84,694.53L859.4,694.77L860.95,694.76L862.5,694.76L864.06,694.76L865.61,694.76L867.16,681.83L868.72,681.83L870.27,681.83L871.82,681.15L873.38,680.77L874.93,680.77L876.49,680.83L878.04,680.83L879.59,681.23L881.15,681.23L882.7,693.22L884.25,693.22L885.81,693.22L887.36,693.22L888.91,693.22L890.47,693.22L892.02,693.22L893.57,693.22L895.13,693.22L896.68,693.22L898.24,693.22L899.79,693.22L901.34,693.22L902.9,693.22L904.45,693.22L906,693.22L907.56,693.21L909.11,693.21L910.66,693.21L912.22,693.21L913.77,693.21L915.32,693.21L916.88,693.62L918.43,693.62L919.98,693.62L921.54,693.62L923.09,693.62L924.65,693.62L926.2,693.62L927.75,693.62L929.31,693.62L930.86,693.62L932.41,693.62L933.97,693.62L935.52,693.62L937.07,693.62L938.63,693.62L940.18,693.62L941.73,693.62L943.29,693.62L944.84,693.62L946.39,693.62L947.95,694.76L949.5,694.76L951.06,694.76L952.61,694.76L954.16,694.76L955.72,694.76L957.27,694.76L958.82,694.76L960.38,694.76L961.93,694.76L963.48,694.76L965.04,694.76L966.59,694.76L968.14,694.76L969.7,694.76L971.25,694.76L972.81,694.76L974.36,694.76L975.91,694.76L977.47,694.76L979.02,694.76L980.57,694.76L982.13,694.76L983.68,694.76L985.23,694.76L986.79,695.68L988.34,695.68L989.89,695.68L991.45,695.68L993,695.68L994.55,695.68L996.11,695.68L997.66,695.68L999.22,695.68L1000.8,695.68L1002.3,695.68L1003.9,680.67L1005.4,680.67L1007,680.67L1008.5,680.67L1010.1,680.67L1011.6,680.67L1013.2,680.67L1014.8,681.02L1016.3,681.03L1017.9,681.1L1019.4,681.1L1021,681.1L1022.5,681.1L1024.1,691L1025.6,691.02L1027.2,691.02L1028.7,691.02L1030.3,691.02L1031.8,691.02L1033.4,691.02L1034.9,691.02L1036.5,691.02L1038.1,691.02L1039.6,691.02L1041.2,691.02L1042.7,691.02L1044.3,691.02L1045.8,691.02L1047.4,691.02L1048.9,691.02L1050.5,691.02L1052,691.02L1053.6,691.02L1055.1,691.63L1056.7,691.63L1058.3,691.63L1059.8,691.63L1061.4,691.63L1062.9,698.12L1064.5,700.28L1066,700.28L1067.6,700.28L1069.1,700.28L1070.7,701.44L1072.2,701.44L1073.8,701.44L1075.3,701.44L1076.9,701.44L1078.4,701.44L1080,701.44" style="fill:none;stroke:#7AC36A;stroke-width:1.875;stroke-dasharray:7.5,2.5" />
<path d="M1055,694.3L1080,694.3" style="fill:none;stroke:#F15A60;stroke-width:1.875" />
<text x="1002.5" y="-687.85" transform="scale(1, -1)"
	style="font-family:Helvetica;font-weight:normal;font-style:normal;font-size:12pt">etcd v3</text>
<path d="M1055,680L1080,680" style="fill:none;stroke:#7AC36A;stroke-width:1.875;stroke-dasharray:7.5,2.5" />
<text x="934.1" y="-673.56" transform="scale(1, -1)"
	style="font-family:Helvetica;font-weight:normal;font-style:normal;font-size:12pt">Zookeeper v3.4.8</text>
</g>
</svg>
