<?xml version="1.0"?>
<!-- Generated by SVGo and Plotinum VG -->
<svg width="12in" height="8in"
	xmlns="http://www.w3.org/2000/svg"
	xmlns:xlink="http://www.w3.org/1999/xlink">
<g transform="scale(1, -1) translate(0, -720)">
<path d="M0,0L1080,0L1080,720L0,720Z" style="fill:#FFFFFF" />
<text x="254.45" y="-706.41" transform="scale(1, -1)"
	style="font-family:Helvetica;font-weight:normal;font-style:normal;font-size:12pt">Write 1M keys, 1K clients(100 etcd conns), key 64 bytes, value 256 bytes, Throughput</text>
<text x="551.76" y="-4.965" transform="scale(1, -1)"
	style="font-family:Helvetica;font-weight:normal;font-style:normal;font-size:12pt">Second</text>
<text x="70.912" y="-19.142" transform="scale(1, -1)"
	style="font-family:Helvetica;font-weight:normal;font-style:normal;font-size:10pt">0</text>
<text x="374.03" y="-19.142" transform="scale(1, -1)"
	style="font-family:Helvetica;font-weight:normal;font-style:normal;font-size:10pt">50</text>
<text x="677.14" y="-19.142" transform="scale(1, -1)"
	style="font-family:Helvetica;font-weight:normal;font-style:normal;font-size:10pt">100</text>
<text x="983.73" y="-19.142" transform="scale(1, -1)"
	style="font-family:Helvetica;font-weight:normal;font-style:normal;font-size:10pt">150</text>
<path d="M74.388,30.467L74.388,40.467" style="fill:none;stroke:#000000;stroke-width:0.625" />
<path d="M380.98,30.467L380.98,40.467" style="fill:none;stroke:#000000;stroke-width:0.625" />
<path d="M687.57,30.467L687.57,40.467" style="fill:none;stroke:#000000;stroke-width:0.625" />
<path d="M994.16,30.467L994.16,40.467" style="fill:none;stroke:#000000;stroke-width:0.625" />
<path d="M135.71,35.468L135.71,40.467" style="fill:none;stroke:#000000;stroke-width:0.625" />
<path d="M197.02,35.468L197.02,40.467" style="fill:none;stroke:#000000;stroke-width:0.625" />
<path d="M258.34,35.468L258.34,40.467" style="fill:none;stroke:#000000;stroke-width:0.625" />
<path d="M319.66,35.468L319.66,40.467" style="fill:none;stroke:#000000;stroke-width:0.625" />
<path d="M442.29,35.468L442.29,40.467" style="fill:none;stroke:#000000;stroke-width:0.625" />
<path d="M503.61,35.468L503.61,40.467" style="fill:none;stroke:#000000;stroke-width:0.625" />
<path d="M564.93,35.468L564.93,40.467" style="fill:none;stroke:#000000;stroke-width:0.625" />
<path d="M626.25,35.468L626.25,40.467" style="fill:none;stroke:#000000;stroke-width:0.625" />
<path d="M748.88,35.468L748.88,40.467" style="fill:none;stroke:#000000;stroke-width:0.625" />
<path d="M810.2,35.468L810.2,40.467" style="fill:none;stroke:#000000;stroke-width:0.625" />
<path d="M871.52,35.468L871.52,40.467" style="fill:none;stroke:#000000;stroke-width:0.625" />
<path d="M932.84,35.468L932.84,40.467" style="fill:none;stroke:#000000;stroke-width:0.625" />
<path d="M1055.5,35.468L1055.5,40.467" style="fill:none;stroke:#000000;stroke-width:0.625" />
<path d="M74.388,40.467L1080,40.467" style="fill:none;stroke:#000000;stroke-width:0.625" />
<g transform="rotate(90)">
<text x="335.88" y="13.59" transform="scale(1, -1)"
	style="font-family:Helvetica;font-weight:normal;font-style:normal;font-size:12pt">Throughput</text>
</g>
<text x="46.705" y="-41.661" transform="scale(1, -1)"
	style="font-family:Helvetica;font-weight:normal;font-style:normal;font-size:10pt">0</text>
<text x="18.555" y="-192.43" transform="scale(1, -1)"
	style="font-family:Helvetica;font-weight:normal;font-style:normal;font-size:10pt">1e+04</text>
<text x="18.555" y="-343.19" transform="scale(1, -1)"
	style="font-family:Helvetica;font-weight:normal;font-style:normal;font-size:10pt">2e+04</text>
<text x="18.555" y="-493.96" transform="scale(1, -1)"
	style="font-family:Helvetica;font-weight:normal;font-style:normal;font-size:10pt">3e+04</text>
<text x="18.555" y="-644.73" transform="scale(1, -1)"
	style="font-family:Helvetica;font-weight:normal;font-style:normal;font-size:10pt">4e+04</text>
<path d="M57.13,47.03L67.13,47.03" style="fill:none;stroke:#000000;stroke-width:0.625" />
<path d="M57.13,197.8L67.13,197.8" style="fill:none;stroke:#000000;stroke-width:0.625" />
<path d="M57.13,348.56L67.13,348.56" style="fill:none;stroke:#000000;stroke-width:0.625" />
<path d="M57.13,499.33L67.13,499.33" style="fill:none;stroke:#000000;stroke-width:0.625" />
<path d="M57.13,650.09L67.13,650.09" style="fill:none;stroke:#000000;stroke-width:0.625" />
<path d="M62.13,122.41L67.13,122.41" style="fill:none;stroke:#000000;stroke-width:0.625" />
<path d="M62.13,273.18L67.13,273.18" style="fill:none;stroke:#000000;stroke-width:0.625" />
<path d="M62.13,423.95L67.13,423.95" style="fill:none;stroke:#000000;stroke-width:0.625" />
<path d="M62.13,574.71L67.13,574.71" style="fill:none;stroke:#000000;stroke-width:0.625" />
<path d="M67.13,47.03L67.13,701.44" style="fill:none;stroke:#000000;stroke-width:0.625" />
<path d="M74.388,185.46L80.519,546.62L86.651,494.52L92.783,490.09L98.915,478.87L105.05,490.27L111.18,481.96L117.31,434.42L123.44,426.03L129.57,350.1L135.71,334.65L141.84,413L147.97,451.16L154.1,429.87L160.23,464.31L166.36,452.23L172.5,469.11L178.63,452.55L184.76,474.74L190.89,462.63L197.02,470.8L203.15,471.71L209.29,476.88L215.42,453.42L221.55,480.27L227.68,451.81L233.81,477.77L239.95,403.28L246.08,476.47L252.21,462.65L258.34,449.5L264.47,443.14L270.6,438.75L276.74,448.49L282.87,429.95L289,432.34L295.13,419.29L301.26,413.95L307.4,381.05L313.53,430.74L319.66,413.33L325.79,395.06L331.92,383.68L338.05,388.38L344.19,415.28L350.32,434.8L356.45,424.02L362.58,436.31L368.71,456.69L374.84,403.35L380.98,401.75L387.11,445.7L393.24,378.34L399.37,426.34L405.5,431.78L411.64,481.97L417.77,373.94L423.9,459.39L430.03,437.92L436.16,404.39L442.29,475.48L448.43,402.13L454.56,478.93L460.69,458.56L466.82,425.72L472.95,451.58L479.09,455.41L485.22,372.61L491.35,462.13L497.48,469.42L503.61,466.72L509.74,382.14L515.88,411.31L522.01,440.71L528.14,418.32L534.27,427.2L540.4,430.13" style="fill:none;stroke:#F15A60;stroke-width:1.875" />
<path d="M74.388,59.046L80.519,357.68L86.651,397.61L92.783,405.97L98.915,563.22L105.05,646.66L111.18,617.36L117.31,592.95L123.44,415.82L129.57,367.62L135.71,580.03L141.84,600.07L147.97,601.08L154.1,373.77L160.23,641.65L166.36,203.84L172.5,610.43L178.63,624.45L184.76,614.44L190.89,670.04L197.02,312.39L203.15,401.72L209.29,629.7L215.42,653.52L221.55,452.61L227.68,255.64L233.81,562.11L239.95,637.76L246.08,581.44L252.21,629.98L258.34,669.65L264.47,654.23L270.6,551.51L276.74,47.03L282.87,340.01L289,649.73L295.13,547.6L301.26,247.99L307.4,51.9L313.53,429.15L319.66,75.841L325.79,77.198L331.92,63.358L338.05,61.835L344.19,47.03L350.32,47.03L356.45,47.03L362.58,47.03L368.71,47.03L374.84,47.03L380.98,47.03L387.11,47.03L393.24,47.03L399.37,47.03L405.5,47.03L411.64,47.03L417.77,47.03L423.9,47.03L430.03,47.03L436.16,47.03L442.29,47.03L448.43,47.03L454.56,47.03L460.69,47.03L466.82,47.03L472.95,47.03L479.09,47.03L485.22,47.03L491.35,47.03L497.48,47.03L503.61,47.03L509.74,47.03L515.88,47.03L522.01,47.03L528.14,47.03L534.27,47.03L540.4,47.03L546.53,47.03L552.67,47.03L558.8,47.03L564.93,161.75L571.06,593.24L577.19,701.44L583.33,543.22L589.46,534.23L595.59,574.91L601.72,579.73L607.85,472.25L613.98,579.05L620.12,582.11L626.25,476.43L632.38,47.03L638.51,211.94L644.64,55.141L650.78,49.261L656.91,47.03L663.04,47.03L669.17,224.74L675.3,514.33L681.43,476.4L687.57,333.49L693.7,569.16L699.83,47.03L705.96,219.91L712.09,380.9L718.22,47.03L724.36,51.221L730.49,198.35L736.62,536.13L742.75,563.34L748.88,614.66L755.02,444.18L761.15,505.24L767.28,431.45L773.41,607.74L779.54,421.11L785.67,300.69L791.81,62.484L797.94,47.03L804.07,47.045L810.2,47.03L816.33,47.03L822.47,47.03L828.6,47.03L834.73,47.03L840.86,47.03L846.99,47.03L853.12,47.03L859.26,47.03L865.39,47.03L871.52,47.03L877.65,47.03L883.78,47.03L889.91,47.03L896.05,47.03L902.18,47.03L908.31,47.03L914.44,47.03L920.57,47.03L926.71,47.03L932.84,47.03L938.97,47.03L945.1,47.03L951.23,47.03L957.36,47.03L963.5,47.03L969.63,47.03L975.76,47.03L981.89,47.03L988.02,47.03L994.16,47.03L1000.3,47.03L1006.4,47.03L1012.6,47.03L1018.7,47.03L1024.8,47.03L1030.9,47.03L1037.1,47.03L1043.2,47.03L1049.3,47.03L1055.5,47.03L1061.6,47.03L1067.7,47.03L1073.9,47.03L1080,120.03" style="fill:none;stroke:#7AC36A;stroke-width:1.875;stroke-dasharray:7.5,2.5" />
<path d="M1055,694.3L1080,694.3" style="fill:none;stroke:#F15A60;stroke-width:1.875" />
<text x="1002.5" y="-687.85" transform="scale(1, -1)"
	style="font-family:Helvetica;font-weight:normal;font-style:normal;font-size:12pt">etcd v3</text>
<path d="M1055,680L1080,680" style="fill:none;stroke:#7AC36A;stroke-width:1.875;stroke-dasharray:7.5,2.5" />
<text x="934.1" y="-673.56" transform="scale(1, -1)"
	style="font-family:Helvetica;font-weight:normal;font-style:normal;font-size:12pt">Zookeeper v3.4.8</text>
</g>
</svg>
