<?xml version="1.0"?>
<!-- Generated by SVGo and Plotinum VG -->
<svg width="12in" height="8in"
	xmlns="http://www.w3.org/2000/svg"
	xmlns:xlink="http://www.w3.org/1999/xlink">
<g transform="scale(1, -1) translate(0, -720)">
<path d="M0,0L1080,0L1080,720L0,720Z" style="fill:#FFFFFF" />
<text x="228.16" y="-705.6" transform="scale(1, -1)"
	style="font-family:Helvetica;font-weight:normal;font-style:normal;font-size:12pt">Write 2K keys, 1-client, 1-conn, 8-byte key with random texts(<300KB) (etcd v3), Memory(MB)</text>
<text x="544.98" y="-4.8486" transform="scale(1, -1)"
	style="font-family:Helvetica;font-weight:normal;font-style:normal;font-size:12pt">Second</text>
<text x="57.358" y="-19.498" transform="scale(1, -1)"
	style="font-family:Helvetica;font-weight:normal;font-style:normal;font-size:10pt">0</text>
<text x="323.23" y="-19.498" transform="scale(1, -1)"
	style="font-family:Helvetica;font-weight:normal;font-style:normal;font-size:10pt">6</text>
<text x="585.62" y="-19.498" transform="scale(1, -1)"
	style="font-family:Helvetica;font-weight:normal;font-style:normal;font-size:10pt">12</text>
<text x="851.49" y="-19.498" transform="scale(1, -1)"
	style="font-family:Helvetica;font-weight:normal;font-style:normal;font-size:10pt">18</text>
<path d="M60.834,31.498L60.834,41.498" style="fill:none;stroke:#000000;stroke-width:0.625" />
<path d="M326.7,31.498L326.7,41.498" style="fill:none;stroke:#000000;stroke-width:0.625" />
<path d="M592.57,31.498L592.57,41.498" style="fill:none;stroke:#000000;stroke-width:0.625" />
<path d="M858.44,31.498L858.44,41.498" style="fill:none;stroke:#000000;stroke-width:0.625" />
<path d="M149.46,36.498L149.46,41.498" style="fill:none;stroke:#000000;stroke-width:0.625" />
<path d="M238.08,36.498L238.08,41.498" style="fill:none;stroke:#000000;stroke-width:0.625" />
<path d="M415.33,36.498L415.33,41.498" style="fill:none;stroke:#000000;stroke-width:0.625" />
<path d="M503.95,36.498L503.95,41.498" style="fill:none;stroke:#000000;stroke-width:0.625" />
<path d="M681.2,36.498L681.2,41.498" style="fill:none;stroke:#000000;stroke-width:0.625" />
<path d="M769.82,36.498L769.82,41.498" style="fill:none;stroke:#000000;stroke-width:0.625" />
<path d="M947.07,36.498L947.07,41.498" style="fill:none;stroke:#000000;stroke-width:0.625" />
<path d="M1035.7,36.498L1035.7,41.498" style="fill:none;stroke:#000000;stroke-width:0.625" />
<path d="M60.834,41.498L1080,41.498" style="fill:none;stroke:#000000;stroke-width:0.625" />
<g transform="rotate(90)">
<text x="331.08" y="14.399" transform="scale(1, -1)"
	style="font-family:Helvetica;font-weight:normal;font-style:normal;font-size:12pt">Memory(MB)</text>
</g>
<text x="19.248" y="-201.89" transform="scale(1, -1)"
	style="font-family:Helvetica;font-weight:normal;font-style:normal;font-size:10pt">300</text>
<text x="19.248" y="-371.4" transform="scale(1, -1)"
	style="font-family:Helvetica;font-weight:normal;font-style:normal;font-size:10pt">600</text>
<text x="19.248" y="-540.91" transform="scale(1, -1)"
	style="font-family:Helvetica;font-weight:normal;font-style:normal;font-size:10pt">900</text>
<path d="M43.577,207.76L53.577,207.76" style="fill:none;stroke:#000000;stroke-width:0.625" />
<path d="M43.577,377.27L53.577,377.27" style="fill:none;stroke:#000000;stroke-width:0.625" />
<path d="M43.577,546.78L53.577,546.78" style="fill:none;stroke:#000000;stroke-width:0.625" />
<path d="M48.577,94.755L53.577,94.755" style="fill:none;stroke:#000000;stroke-width:0.625" />
<path d="M48.577,151.26L53.577,151.26" style="fill:none;stroke:#000000;stroke-width:0.625" />
<path d="M48.577,264.26L53.577,264.26" style="fill:none;stroke:#000000;stroke-width:0.625" />
<path d="M48.577,320.77L53.577,320.77" style="fill:none;stroke:#000000;stroke-width:0.625" />
<path d="M48.577,433.77L53.577,433.77" style="fill:none;stroke:#000000;stroke-width:0.625" />
<path d="M48.577,490.28L53.577,490.28" style="fill:none;stroke:#000000;stroke-width:0.625" />
<path d="M48.577,603.28L53.577,603.28" style="fill:none;stroke:#000000;stroke-width:0.625" />
<path d="M48.577,659.79L53.577,659.79" style="fill:none;stroke:#000000;stroke-width:0.625" />
<path d="M53.577,48.06L53.577,700.75" style="fill:none;stroke:#000000;stroke-width:0.625" />
<path d="M60.834,48.06L105.15,90.472L149.46,125.27L193.77,155.94L238.08,186.13L282.39,226.25L326.7,258.87L371.01,290.51L415.33,314.42L459.64,352.93L503.95,389.66L548.26,410.9L592.57,452.05L636.88,482.1L681.2,516.48L725.51,546.79L769.82,568.31L814.13,608.56L858.44,646.33" style="fill:none;stroke:#F15A60;stroke-width:1.875" />
<path d="M60.834,48.75L105.15,88.867L149.46,113.63L193.77,144.25L238.08,172.67L282.39,201.37L326.7,231.77L371.01,260.08L415.33,287.79L459.64,312.3L503.95,342.41L548.26,371.27L592.57,400.18L636.88,425.54L681.2,456.74L725.51,485.89L769.82,510.29L814.13,547.05L858.44,567.28L902.75,593.03L947.07,628.16L991.38,643.78L1035.7,677.69L1080,700.75" style="fill:none;stroke:#7AC36A;stroke-width:1.875;stroke-dasharray:7.5,2.5" />
<path d="M1055,693.4L1080,693.4" style="fill:none;stroke:#F15A60;stroke-width:1.875" />
<text x="1002.5" y="-686.35" transform="scale(1, -1)"
	style="font-family:Helvetica;font-weight:normal;font-style:normal;font-size:12pt">etcd v3</text>
<path d="M1055,678.7L1080,678.7" style="fill:none;stroke:#7AC36A;stroke-width:1.875;stroke-dasharray:7.5,2.5" />
<text x="906.6" y="-671.65" transform="scale(1, -1)"
	style="font-family:Helvetica;font-weight:normal;font-style:normal;font-size:12pt">etcd v3 (with Snappy)</text>
</g>
</svg>
