<?xml version="1.0"?>
<!-- Generated by SVGo and Plotinum VG -->
<svg width="12in" height="8in"
	xmlns="http://www.w3.org/2000/svg"
	xmlns:xlink="http://www.w3.org/1999/xlink">
<g transform="scale(1, -1) translate(0, -720)">
<path d="M0,0L1080,0L1080,720L0,720Z" style="fill:#FFFFFF" />
<text x="255.65" y="-705.6" transform="scale(1, -1)"
	style="font-family:Helvetica;font-weight:normal;font-style:normal;font-size:12pt">Write 2K keys, 1-client, 1-conn, 8-byte key with random texts(<300KB) (etcd v3), CPU</text>
<text x="541.5" y="-4.8486" transform="scale(1, -1)"
	style="font-family:Helvetica;font-weight:normal;font-style:normal;font-size:12pt">Second</text>
<text x="50.406" y="-19.498" transform="scale(1, -1)"
	style="font-family:Helvetica;font-weight:normal;font-style:normal;font-size:10pt">0</text>
<text x="318.09" y="-19.498" transform="scale(1, -1)"
	style="font-family:Helvetica;font-weight:normal;font-style:normal;font-size:10pt">6</text>
<text x="582.3" y="-19.498" transform="scale(1, -1)"
	style="font-family:Helvetica;font-weight:normal;font-style:normal;font-size:10pt">12</text>
<text x="849.98" y="-19.498" transform="scale(1, -1)"
	style="font-family:Helvetica;font-weight:normal;font-style:normal;font-size:10pt">18</text>
<path d="M53.882,31.498L53.882,41.498" style="fill:none;stroke:#000000;stroke-width:0.625" />
<path d="M321.56,31.498L321.56,41.498" style="fill:none;stroke:#000000;stroke-width:0.625" />
<path d="M589.25,31.498L589.25,41.498" style="fill:none;stroke:#000000;stroke-width:0.625" />
<path d="M856.93,31.498L856.93,41.498" style="fill:none;stroke:#000000;stroke-width:0.625" />
<path d="M143.11,36.498L143.11,41.498" style="fill:none;stroke:#000000;stroke-width:0.625" />
<path d="M232.34,36.498L232.34,41.498" style="fill:none;stroke:#000000;stroke-width:0.625" />
<path d="M410.79,36.498L410.79,41.498" style="fill:none;stroke:#000000;stroke-width:0.625" />
<path d="M500.02,36.498L500.02,41.498" style="fill:none;stroke:#000000;stroke-width:0.625" />
<path d="M678.48,36.498L678.48,41.498" style="fill:none;stroke:#000000;stroke-width:0.625" />
<path d="M767.7,36.498L767.7,41.498" style="fill:none;stroke:#000000;stroke-width:0.625" />
<path d="M946.16,36.498L946.16,41.498" style="fill:none;stroke:#000000;stroke-width:0.625" />
<path d="M1035.4,36.498L1035.4,41.498" style="fill:none;stroke:#000000;stroke-width:0.625" />
<path d="M53.882,41.498L1080,41.498" style="fill:none;stroke:#000000;stroke-width:0.625" />
<g transform="rotate(90)">
<text x="358.57" y="14.399" transform="scale(1, -1)"
	style="font-family:Helvetica;font-weight:normal;font-style:normal;font-size:12pt">CPU</text>
</g>
<text x="26.2" y="-200.59" transform="scale(1, -1)"
	style="font-family:Helvetica;font-weight:normal;font-style:normal;font-size:10pt">8</text>
<text x="19.248" y="-415.38" transform="scale(1, -1)"
	style="font-family:Helvetica;font-weight:normal;font-style:normal;font-size:10pt">16</text>
<text x="19.248" y="-630.17" transform="scale(1, -1)"
	style="font-family:Helvetica;font-weight:normal;font-style:normal;font-size:10pt">24</text>
<path d="M36.625,206.47L46.625,206.47" style="fill:none;stroke:#000000;stroke-width:0.625" />
<path d="M36.625,421.26L46.625,421.26" style="fill:none;stroke:#000000;stroke-width:0.625" />
<path d="M36.625,636.05L46.625,636.05" style="fill:none;stroke:#000000;stroke-width:0.625" />
<path d="M41.625,99.073L46.625,99.073" style="fill:none;stroke:#000000;stroke-width:0.625" />
<path d="M41.625,313.86L46.625,313.86" style="fill:none;stroke:#000000;stroke-width:0.625" />
<path d="M41.625,528.65L46.625,528.65" style="fill:none;stroke:#000000;stroke-width:0.625" />
<path d="M46.625,48.06L46.625,700.75" style="fill:none;stroke:#000000;stroke-width:0.625" />
<path d="M53.882,48.06L98.496,164.58L143.11,243.79L187.72,311.71L232.34,372.66L276.95,426.36L321.56,465.83L366.18,500.73L410.79,527.31L455.41,556.31L500.02,578.86L544.63,599.26L589.25,618.33L633.86,636.32L678.48,650.28L723.09,665.85L767.7,675.25L812.32,688.4L856.93,700.75" style="fill:none;stroke:#F15A60;stroke-width:1.875" />
<path d="M53.882,52.893L98.496,159.75L143.11,236L187.72,300.17L232.34,351.18L276.95,395.48L321.56,438.44L366.18,472.27L410.79,503.41L455.41,528.65L500.02,552.01L544.63,572.95L589.25,590.14L633.86,606.78L678.48,622.09L723.09,635.24L767.7,645.44L812.32,654.3L856.93,661.02L901.54,669.61L946.16,679.54L990.77,685.18L1035.4,691.62L1080,699.14" style="fill:none;stroke:#7AC36A;stroke-width:1.875;stroke-dasharray:7.5,2.5" />
<path d="M1055,693.4L1080,693.4" style="fill:none;stroke:#F15A60;stroke-width:1.875" />
<text x="1002.5" y="-686.35" transform="scale(1, -1)"
	style="font-family:Helvetica;font-weight:normal;font-style:normal;font-size:12pt">etcd v3</text>
<path d="M1055,678.7L1080,678.7" style="fill:none;stroke:#7AC36A;stroke-width:1.875;stroke-dasharray:7.5,2.5" />
<text x="906.6" y="-671.65" transform="scale(1, -1)"
	style="font-family:Helvetica;font-weight:normal;font-style:normal;font-size:12pt">etcd v3 (with Snappy)</text>
</g>
</svg>
