<?xml version="1.0"?>
<!-- Generated by SVGo and Plotinum VG -->
<svg width="12in" height="8in"
	xmlns="http://www.w3.org/2000/svg"
	xmlns:xlink="http://www.w3.org/1999/xlink">
<g transform="scale(1, -1) translate(0, -720)">
<path d="M0,0L1080,0L1080,720L0,720Z" style="fill:#FFFFFF" />
<text x="203.13" y="-705.6" transform="scale(1, -1)"
	style="font-family:Helvetica;font-weight:normal;font-style:normal;font-size:12pt">Write 2K keys, 1-client, 1-conn, 8-byte key with random texts(<300KB) (etcd v3), Latency(millisecond)</text>
<text x="538.03" y="-4.8486" transform="scale(1, -1)"
	style="font-family:Helvetica;font-weight:normal;font-style:normal;font-size:12pt">Second</text>
<text x="50.406" y="-19.498" transform="scale(1, -1)"
	style="font-family:Helvetica;font-weight:normal;font-style:normal;font-size:10pt">0</text>
<text x="390.13" y="-19.498" transform="scale(1, -1)"
	style="font-family:Helvetica;font-weight:normal;font-style:normal;font-size:10pt">8</text>
<text x="726.37" y="-19.498" transform="scale(1, -1)"
	style="font-family:Helvetica;font-weight:normal;font-style:normal;font-size:10pt">16</text>
<text x="1066.1" y="-19.498" transform="scale(1, -1)"
	style="font-family:Helvetica;font-weight:normal;font-style:normal;font-size:10pt">24</text>
<path d="M53.882,31.498L53.882,41.498" style="fill:none;stroke:#000000;stroke-width:0.625" />
<path d="M393.6,31.498L393.6,41.498" style="fill:none;stroke:#000000;stroke-width:0.625" />
<path d="M733.33,31.498L733.33,41.498" style="fill:none;stroke:#000000;stroke-width:0.625" />
<path d="M1073,31.498L1073,41.498" style="fill:none;stroke:#000000;stroke-width:0.625" />
<path d="M223.74,36.498L223.74,41.498" style="fill:none;stroke:#000000;stroke-width:0.625" />
<path d="M563.46,36.498L563.46,41.498" style="fill:none;stroke:#000000;stroke-width:0.625" />
<path d="M903.19,36.498L903.19,41.498" style="fill:none;stroke:#000000;stroke-width:0.625" />
<path d="M53.882,41.498L1073,41.498" style="fill:none;stroke:#000000;stroke-width:0.625" />
<g transform="rotate(90)">
<text x="306.05" y="14.399" transform="scale(1, -1)"
	style="font-family:Helvetica;font-weight:normal;font-style:normal;font-size:12pt">Latency(millisecond)</text>
</g>
<text x="19.248" y="-57.69" transform="scale(1, -1)"
	style="font-family:Helvetica;font-weight:normal;font-style:normal;font-size:10pt">10</text>
<text x="20.176" y="-242.5" transform="scale(1, -1)"
	style="font-family:Helvetica;font-weight:normal;font-style:normal;font-size:10pt">11</text>
<text x="19.248" y="-427.32" transform="scale(1, -1)"
	style="font-family:Helvetica;font-weight:normal;font-style:normal;font-size:10pt">12</text>
<text x="19.248" y="-612.13" transform="scale(1, -1)"
	style="font-family:Helvetica;font-weight:normal;font-style:normal;font-size:10pt">13</text>
<path d="M36.625,63.564L46.625,63.564" style="fill:none;stroke:#000000;stroke-width:0.625" />
<path d="M36.625,248.38L46.625,248.38" style="fill:none;stroke:#000000;stroke-width:0.625" />
<path d="M36.625,433.19L46.625,433.19" style="fill:none;stroke:#000000;stroke-width:0.625" />
<path d="M36.625,618.01L46.625,618.01" style="fill:none;stroke:#000000;stroke-width:0.625" />
<path d="M41.625,155.97L46.625,155.97" style="fill:none;stroke:#000000;stroke-width:0.625" />
<path d="M41.625,340.79L46.625,340.79" style="fill:none;stroke:#000000;stroke-width:0.625" />
<path d="M41.625,525.6L46.625,525.6" style="fill:none;stroke:#000000;stroke-width:0.625" />
<path d="M46.625,48.06L46.625,700.75" style="fill:none;stroke:#000000;stroke-width:0.625" />
<path d="M53.882,149.89L96.347,80.609L138.81,117.77L181.28,97.373L223.74,48.06L266.21,90.545L308.67,132.14L351.14,113.85L393.6,118.03L436.07,94.442L478.53,90.834L521,111.35L563.46,117.84L605.93,82.871L648.4,133.04L690.86,453.91L733.33,131.02L775.79,270.86L818.26,142.14L860.72,254.59" style="fill:none;stroke:#F15A60;stroke-width:1.875" />
<path d="M53.882,601.36L96.347,438.82L138.81,378.75L181.28,416.06L223.74,476.44L266.21,490.13L308.67,473.78L351.14,460.14L393.6,569.17L436.07,460.08L478.53,478.83L521,450.14L563.46,467.68L605.93,429.98L648.4,435.56L690.86,449.05L733.33,418.13L775.79,454.26L818.26,512.25L860.72,612.31L903.19,700.1L945.65,571.12L988.12,458.76L1030.6,700.75L1073,580" style="fill:none;stroke:#7AC36A;stroke-width:1.875;stroke-dasharray:7.5,2.5" />
<path d="M1055,693.4L1080,693.4" style="fill:none;stroke:#F15A60;stroke-width:1.875" />
<text x="1002.5" y="-686.35" transform="scale(1, -1)"
	style="font-family:Helvetica;font-weight:normal;font-style:normal;font-size:12pt">etcd v3</text>
<path d="M1055,678.7L1080,678.7" style="fill:none;stroke:#7AC36A;stroke-width:1.875;stroke-dasharray:7.5,2.5" />
<text x="906.6" y="-671.65" transform="scale(1, -1)"
	style="font-family:Helvetica;font-weight:normal;font-style:normal;font-size:12pt">etcd v3 (with Snappy)</text>
</g>
</svg>
