<?xml version="1.0"?>
<!-- Generated by SVGo and Plotinum VG -->
<svg width="12in" height="8in"
	xmlns="http://www.w3.org/2000/svg"
	xmlns:xlink="http://www.w3.org/1999/xlink">
<g transform="scale(1, -1) translate(0, -720)">
<path d="M0,0L1080,0L1080,720L0,720Z" style="fill:#FFFFFF" />
<text x="233.26" y="-705.6" transform="scale(1, -1)"
	style="font-family:Helvetica;font-weight:normal;font-style:normal;font-size:12pt">Write 2K keys, 1-client, 1-conn, 8-byte key with random texts(<300KB) (etcd v3), Throughput</text>
<text x="541.5" y="-4.8486" transform="scale(1, -1)"
	style="font-family:Helvetica;font-weight:normal;font-style:normal;font-size:12pt">Second</text>
<text x="57.358" y="-19.498" transform="scale(1, -1)"
	style="font-family:Helvetica;font-weight:normal;font-style:normal;font-size:10pt">0</text>
<text x="394.76" y="-19.498" transform="scale(1, -1)"
	style="font-family:Helvetica;font-weight:normal;font-style:normal;font-size:10pt">8</text>
<text x="728.69" y="-19.498" transform="scale(1, -1)"
	style="font-family:Helvetica;font-weight:normal;font-style:normal;font-size:10pt">16</text>
<text x="1066.1" y="-19.498" transform="scale(1, -1)"
	style="font-family:Helvetica;font-weight:normal;font-style:normal;font-size:10pt">24</text>
<path d="M60.834,31.498L60.834,41.498" style="fill:none;stroke:#000000;stroke-width:0.625" />
<path d="M398.24,31.498L398.24,41.498" style="fill:none;stroke:#000000;stroke-width:0.625" />
<path d="M735.64,31.498L735.64,41.498" style="fill:none;stroke:#000000;stroke-width:0.625" />
<path d="M1073,31.498L1073,41.498" style="fill:none;stroke:#000000;stroke-width:0.625" />
<path d="M229.54,36.498L229.54,41.498" style="fill:none;stroke:#000000;stroke-width:0.625" />
<path d="M566.94,36.498L566.94,41.498" style="fill:none;stroke:#000000;stroke-width:0.625" />
<path d="M904.35,36.498L904.35,41.498" style="fill:none;stroke:#000000;stroke-width:0.625" />
<path d="M60.834,41.498L1073,41.498" style="fill:none;stroke:#000000;stroke-width:0.625" />
<g transform="rotate(90)">
<text x="336.05" y="14.399" transform="scale(1, -1)"
	style="font-family:Helvetica;font-weight:normal;font-style:normal;font-size:12pt">Throughput</text>
</g>
<text x="26.2" y="-177.81" transform="scale(1, -1)"
	style="font-family:Helvetica;font-weight:normal;font-style:normal;font-size:10pt">40</text>
<text x="26.2" y="-347.34" transform="scale(1, -1)"
	style="font-family:Helvetica;font-weight:normal;font-style:normal;font-size:10pt">60</text>
<text x="26.2" y="-516.87" transform="scale(1, -1)"
	style="font-family:Helvetica;font-weight:normal;font-style:normal;font-size:10pt">80</text>
<text x="19.248" y="-686.4" transform="scale(1, -1)"
	style="font-family:Helvetica;font-weight:normal;font-style:normal;font-size:10pt">100</text>
<path d="M43.577,183.68L53.577,183.68" style="fill:none;stroke:#000000;stroke-width:0.625" />
<path d="M43.577,353.21L53.577,353.21" style="fill:none;stroke:#000000;stroke-width:0.625" />
<path d="M43.577,522.75L53.577,522.75" style="fill:none;stroke:#000000;stroke-width:0.625" />
<path d="M43.577,692.28L53.577,692.28" style="fill:none;stroke:#000000;stroke-width:0.625" />
<path d="M48.577,98.919L53.577,98.919" style="fill:none;stroke:#000000;stroke-width:0.625" />
<path d="M48.577,268.45L53.577,268.45" style="fill:none;stroke:#000000;stroke-width:0.625" />
<path d="M48.577,437.98L53.577,437.98" style="fill:none;stroke:#000000;stroke-width:0.625" />
<path d="M48.577,607.51L53.577,607.51" style="fill:none;stroke:#000000;stroke-width:0.625" />
<path d="M53.577,48.06L53.577,700.75" style="fill:none;stroke:#000000;stroke-width:0.625" />
<path d="M60.834,590.56L103.01,683.8L145.18,666.85L187.36,675.32L229.54,700.75L271.71,666.85L313.89,675.32L356.06,666.85L398.24,666.85L440.41,675.32L482.59,683.8L524.77,666.85L566.94,666.85L609.12,675.32L651.29,666.85L693.47,548.17L735.64,658.37L777.82,607.51L819.99,658.37L862.17,607.51" style="fill:none;stroke:#F15A60;stroke-width:1.875" />
<path d="M60.834,48.06L103.01,548.17L145.18,565.13L187.36,556.65L229.54,539.7L271.71,522.75L313.89,548.17L356.06,539.7L398.24,514.27L440.41,539.7L482.59,531.22L524.77,539.7L566.94,548.17L609.12,548.17L651.29,539.7L693.47,556.65L735.64,556.65L777.82,548.17L819.99,514.27L862.17,505.79L904.35,471.89L946.52,514.27L988.7,531.22L1030.9,480.36L1073,505.79" style="fill:none;stroke:#7AC36A;stroke-width:1.875;stroke-dasharray:7.5,2.5" />
<path d="M1055,693.4L1080,693.4" style="fill:none;stroke:#F15A60;stroke-width:1.875" />
<text x="1002.5" y="-686.35" transform="scale(1, -1)"
	style="font-family:Helvetica;font-weight:normal;font-style:normal;font-size:12pt">etcd v3</text>
<path d="M1055,678.7L1080,678.7" style="fill:none;stroke:#7AC36A;stroke-width:1.875;stroke-dasharray:7.5,2.5" />
<text x="906.6" y="-671.65" transform="scale(1, -1)"
	style="font-family:Helvetica;font-weight:normal;font-style:normal;font-size:12pt">etcd v3 (with Snappy)</text>
</g>
</svg>
