<?xml version="1.0"?>
<!-- Generated by SVGo and Plotinum VG -->
<svg width="12in" height="8in"
	xmlns="http://www.w3.org/2000/svg"
	xmlns:xlink="http://www.w3.org/1999/xlink">
<g transform="scale(1, -1) translate(0, -720)">
<path d="M0,0L1080,0L1080,720L0,720Z" style="fill:#FFFFFF" />
<text x="255.65" y="-705.6" transform="scale(1, -1)"
	style="font-family:Helvetica;font-weight:normal;font-style:normal;font-size:12pt">Write 3K keys, 1-client, 1-conn, 8-byte key with random texts(<300KB) (etcd v3), CPU</text>
<text x="541.5" y="-4.8486" transform="scale(1, -1)"
	style="font-family:Helvetica;font-weight:normal;font-style:normal;font-size:12pt">Second</text>
<text x="50.406" y="-19.498" transform="scale(1, -1)"
	style="font-family:Helvetica;font-weight:normal;font-style:normal;font-size:10pt">0</text>
<text x="260.7" y="-19.498" transform="scale(1, -1)"
	style="font-family:Helvetica;font-weight:normal;font-style:normal;font-size:10pt">10</text>
<text x="474.48" y="-19.498" transform="scale(1, -1)"
	style="font-family:Helvetica;font-weight:normal;font-style:normal;font-size:10pt">20</text>
<text x="688.25" y="-19.498" transform="scale(1, -1)"
	style="font-family:Helvetica;font-weight:normal;font-style:normal;font-size:10pt">30</text>
<text x="902.03" y="-19.498" transform="scale(1, -1)"
	style="font-family:Helvetica;font-weight:normal;font-style:normal;font-size:10pt">40</text>
<path d="M53.882,31.498L53.882,41.498" style="fill:none;stroke:#000000;stroke-width:0.625" />
<path d="M267.66,31.498L267.66,41.498" style="fill:none;stroke:#000000;stroke-width:0.625" />
<path d="M481.43,31.498L481.43,41.498" style="fill:none;stroke:#000000;stroke-width:0.625" />
<path d="M695.21,31.498L695.21,41.498" style="fill:none;stroke:#000000;stroke-width:0.625" />
<path d="M908.98,31.498L908.98,41.498" style="fill:none;stroke:#000000;stroke-width:0.625" />
<path d="M160.77,36.498L160.77,41.498" style="fill:none;stroke:#000000;stroke-width:0.625" />
<path d="M374.54,36.498L374.54,41.498" style="fill:none;stroke:#000000;stroke-width:0.625" />
<path d="M588.32,36.498L588.32,41.498" style="fill:none;stroke:#000000;stroke-width:0.625" />
<path d="M802.09,36.498L802.09,41.498" style="fill:none;stroke:#000000;stroke-width:0.625" />
<path d="M1015.9,36.498L1015.9,41.498" style="fill:none;stroke:#000000;stroke-width:0.625" />
<path d="M53.882,41.498L1080,41.498" style="fill:none;stroke:#000000;stroke-width:0.625" />
<g transform="rotate(90)">
<text x="358.57" y="14.399" transform="scale(1, -1)"
	style="font-family:Helvetica;font-weight:normal;font-style:normal;font-size:12pt">CPU</text>
</g>
<text x="26.2" y="-187.06" transform="scale(1, -1)"
	style="font-family:Helvetica;font-weight:normal;font-style:normal;font-size:10pt">8</text>
<text x="19.248" y="-388.98" transform="scale(1, -1)"
	style="font-family:Helvetica;font-weight:normal;font-style:normal;font-size:10pt">16</text>
<text x="19.248" y="-590.89" transform="scale(1, -1)"
	style="font-family:Helvetica;font-weight:normal;font-style:normal;font-size:10pt">24</text>
<path d="M36.625,192.93L46.625,192.93" style="fill:none;stroke:#000000;stroke-width:0.625" />
<path d="M36.625,394.85L46.625,394.85" style="fill:none;stroke:#000000;stroke-width:0.625" />
<path d="M36.625,596.77L46.625,596.77" style="fill:none;stroke:#000000;stroke-width:0.625" />
<path d="M41.625,91.977L46.625,91.977" style="fill:none;stroke:#000000;stroke-width:0.625" />
<path d="M41.625,293.89L46.625,293.89" style="fill:none;stroke:#000000;stroke-width:0.625" />
<path d="M41.625,495.81L46.625,495.81" style="fill:none;stroke:#000000;stroke-width:0.625" />
<path d="M41.625,697.72L46.625,697.72" style="fill:none;stroke:#000000;stroke-width:0.625" />
<path d="M46.625,48.06L46.625,700.75" style="fill:none;stroke:#000000;stroke-width:0.625" />
<path d="M53.882,51.341L75.259,161.39L96.637,244.42L118.01,310.05L139.39,366.58L160.77,412.01L182.15,451.64L203.52,488.49L224.9,516.25L246.28,540.73L267.66,563.2L289.03,582.63L310.41,599.04L331.79,614.43L353.17,629.83L374.54,641.19L395.92,654.31L417.3,663.9L438.68,675.51L460.05,685.61L481.43,692.42L502.81,700.75L524.19,696.46L545.56,683.59L566.94,671.73L588.32,660.62L609.7,650.02L631.07,639.42L652.45,631.09L673.83,622.51L695.21,614.69L716.58,607.37L737.96,599.79L759.34,593.48L780.72,587.43L802.09,581.87L823.47,575.31L844.85,570.26L866.23,565.47L887.6,560.42L908.98,554.36L930.36,548.56L951.74,543.26L973.11,537.71L994.49,532.15L1015.9,529.12L1037.2,526.1" style="fill:none;stroke:#F15A60;stroke-width:1.875" />
<path d="M53.882,48.06L75.259,151.29L96.637,228.27L118.01,288.34L139.39,339.07L160.77,384.25L182.15,422.36L203.52,452.4L224.9,480.41L246.28,501.36L267.66,522.31L289.03,542.75L310.41,555.37L331.79,571.02L353.17,579.6L374.54,592.98L395.92,603.83L417.3,611.66L438.68,622.76L460.05,630.59L481.43,636.64L502.81,645.73L524.19,651.79L545.56,656.84L566.94,661.63L588.32,668.95L609.7,674.5L631.07,671.47L652.45,660.87L673.83,650.02L695.21,640.68L716.58,633.36L737.96,627.31L759.34,620.74L780.72,614.69L802.09,608.12L823.47,600.55L844.85,594.24L866.23,587.43L887.6,582.63L908.98,576.83L930.36,570.77L951.74,565.22L973.11,560.17L994.49,554.87L1015.9,550.58L1037.2,548.31L1058.6,545.28L1080,541.74" style="fill:none;stroke:#7AC36A;stroke-width:1.875;stroke-dasharray:7.5,2.5" />
<path d="M1055,693.4L1080,693.4" style="fill:none;stroke:#F15A60;stroke-width:1.875" />
<text x="1002.5" y="-686.35" transform="scale(1, -1)"
	style="font-family:Helvetica;font-weight:normal;font-style:normal;font-size:12pt">etcd v3</text>
<path d="M1055,678.7L1080,678.7" style="fill:none;stroke:#7AC36A;stroke-width:1.875;stroke-dasharray:7.5,2.5" />
<text x="906.6" y="-671.65" transform="scale(1, -1)"
	style="font-family:Helvetica;font-weight:normal;font-style:normal;font-size:12pt">etcd v3 (with Snappy)</text>
</g>
</svg>
