<?xml version="1.0"?>
<!-- Generated by SVGo and Plotinum VG -->
<svg width="12in" height="8in"
	xmlns="http://www.w3.org/2000/svg"
	xmlns:xlink="http://www.w3.org/1999/xlink">
<g transform="scale(1, -1) translate(0, -720)">
<path d="M0,0L1080,0L1080,720L0,720Z" style="fill:#FFFFFF" />
<text x="233.26" y="-705.6" transform="scale(1, -1)"
	style="font-family:Helvetica;font-weight:normal;font-style:normal;font-size:12pt">Write 3K keys, 1-client, 1-conn, 8-byte key with random texts(<300KB) (etcd v3), Throughput</text>
<text x="544.98" y="-4.8486" transform="scale(1, -1)"
	style="font-family:Helvetica;font-weight:normal;font-style:normal;font-size:12pt">Second</text>
<text x="57.358" y="-19.498" transform="scale(1, -1)"
	style="font-family:Helvetica;font-weight:normal;font-style:normal;font-size:10pt">0</text>
<text x="261.87" y="-19.498" transform="scale(1, -1)"
	style="font-family:Helvetica;font-weight:normal;font-style:normal;font-size:10pt">10</text>
<text x="469.87" y="-19.498" transform="scale(1, -1)"
	style="font-family:Helvetica;font-weight:normal;font-style:normal;font-size:10pt">20</text>
<text x="677.86" y="-19.498" transform="scale(1, -1)"
	style="font-family:Helvetica;font-weight:normal;font-style:normal;font-size:10pt">30</text>
<text x="885.85" y="-19.498" transform="scale(1, -1)"
	style="font-family:Helvetica;font-weight:normal;font-style:normal;font-size:10pt">40</text>
<path d="M60.834,31.498L60.834,41.498" style="fill:none;stroke:#000000;stroke-width:0.625" />
<path d="M268.83,31.498L268.83,41.498" style="fill:none;stroke:#000000;stroke-width:0.625" />
<path d="M476.82,31.498L476.82,41.498" style="fill:none;stroke:#000000;stroke-width:0.625" />
<path d="M684.81,31.498L684.81,41.498" style="fill:none;stroke:#000000;stroke-width:0.625" />
<path d="M892.81,31.498L892.81,41.498" style="fill:none;stroke:#000000;stroke-width:0.625" />
<path d="M164.83,36.498L164.83,41.498" style="fill:none;stroke:#000000;stroke-width:0.625" />
<path d="M372.82,36.498L372.82,41.498" style="fill:none;stroke:#000000;stroke-width:0.625" />
<path d="M580.82,36.498L580.82,41.498" style="fill:none;stroke:#000000;stroke-width:0.625" />
<path d="M788.81,36.498L788.81,41.498" style="fill:none;stroke:#000000;stroke-width:0.625" />
<path d="M996.8,36.498L996.8,41.498" style="fill:none;stroke:#000000;stroke-width:0.625" />
<path d="M60.834,41.498L1080,41.498" style="fill:none;stroke:#000000;stroke-width:0.625" />
<g transform="rotate(90)">
<text x="336.05" y="14.399" transform="scale(1, -1)"
	style="font-family:Helvetica;font-weight:normal;font-style:normal;font-size:12pt">Throughput</text>
</g>
<text x="26.2" y="-156.41" transform="scale(1, -1)"
	style="font-family:Helvetica;font-weight:normal;font-style:normal;font-size:10pt">40</text>
<text x="26.2" y="-319.58" transform="scale(1, -1)"
	style="font-family:Helvetica;font-weight:normal;font-style:normal;font-size:10pt">60</text>
<text x="26.2" y="-482.75" transform="scale(1, -1)"
	style="font-family:Helvetica;font-weight:normal;font-style:normal;font-size:10pt">80</text>
<text x="19.248" y="-645.93" transform="scale(1, -1)"
	style="font-family:Helvetica;font-weight:normal;font-style:normal;font-size:10pt">100</text>
<path d="M43.577,162.28L53.577,162.28" style="fill:none;stroke:#000000;stroke-width:0.625" />
<path d="M43.577,325.45L53.577,325.45" style="fill:none;stroke:#000000;stroke-width:0.625" />
<path d="M43.577,488.63L53.577,488.63" style="fill:none;stroke:#000000;stroke-width:0.625" />
<path d="M43.577,651.8L53.577,651.8" style="fill:none;stroke:#000000;stroke-width:0.625" />
<path d="M48.577,80.695L53.577,80.695" style="fill:none;stroke:#000000;stroke-width:0.625" />
<path d="M48.577,243.87L53.577,243.87" style="fill:none;stroke:#000000;stroke-width:0.625" />
<path d="M48.577,407.04L53.577,407.04" style="fill:none;stroke:#000000;stroke-width:0.625" />
<path d="M48.577,570.21L53.577,570.21" style="fill:none;stroke:#000000;stroke-width:0.625" />
<path d="M53.577,48.06L53.577,700.75" style="fill:none;stroke:#000000;stroke-width:0.625" />
<path d="M60.834,186.76L81.633,692.59L102.43,668.12L123.23,659.96L144.03,668.12L164.83,668.12L185.63,692.59L206.43,676.28L227.23,668.12L248.03,668.12L268.83,684.43L289.63,659.96L310.43,651.8L331.22,659.96L352.02,668.12L372.82,643.64L393.62,700.75L414.42,651.8L435.22,684.43L456.02,668.12L476.82,692.59L497.62,627.32L518.42,80.695L539.22,105.17L560.02,80.695L580.82,88.854L601.62,105.17L622.42,88.854L643.21,97.012L664.01,97.012L684.81,80.695L705.61,80.695L726.41,72.536L747.21,56.219L768.01,88.854L788.81,64.378L809.61,80.695L830.41,64.378L851.21,72.536L872.01,72.536L892.81,80.695L913.61,80.695L934.4,88.854L955.2,56.219L976,97.012L996.8,113.33L1017.6,48.06L1038.4,97.012" style="fill:none;stroke:#F15A60;stroke-width:1.875" />
<path d="M60.834,48.06L81.633,513.1L102.43,562.05L123.23,553.9L144.03,529.42L164.83,513.1L185.63,537.58L206.43,529.42L227.23,513.1L248.03,521.26L268.83,537.58L289.63,537.58L310.43,537.58L331.22,529.42L352.02,570.21L372.82,513.1L393.62,537.58L414.42,537.58L435.22,545.74L456.02,570.21L476.82,553.9L497.62,545.74L518.42,545.74L539.22,586.53L560.02,545.74L580.82,578.37L601.62,545.74L622.42,243.87L643.21,80.695L664.01,64.378L684.81,80.695L705.61,80.695L726.41,72.536L747.21,80.695L768.01,97.012L788.81,72.536L809.61,64.378L830.41,88.854L851.21,64.378L872.01,80.695L892.81,88.854L913.61,72.536L934.4,72.536L955.2,72.536L976,80.695L996.8,72.536L1017.6,80.695L1038.4,88.854L1059.2,80.695L1080,72.536" style="fill:none;stroke:#7AC36A;stroke-width:1.875;stroke-dasharray:7.5,2.5" />
<path d="M1055,693.4L1080,693.4" style="fill:none;stroke:#F15A60;stroke-width:1.875" />
<text x="1002.5" y="-686.35" transform="scale(1, -1)"
	style="font-family:Helvetica;font-weight:normal;font-style:normal;font-size:12pt">etcd v3</text>
<path d="M1055,678.7L1080,678.7" style="fill:none;stroke:#7AC36A;stroke-width:1.875;stroke-dasharray:7.5,2.5" />
<text x="906.6" y="-671.65" transform="scale(1, -1)"
	style="font-family:Helvetica;font-weight:normal;font-style:normal;font-size:12pt">etcd v3 (with Snappy)</text>
</g>
</svg>
