<?xml version="1.0"?>
<!-- Generated by SVGo and Plotinum VG -->
<svg width="12in" height="8in"
	xmlns="http://www.w3.org/2000/svg"
	xmlns:xlink="http://www.w3.org/1999/xlink">
<g transform="scale(1, -1) translate(0, -720)">
<path d="M0,0L1080,0L1080,720L0,720Z" style="fill:#FFFFFF" />
<text x="283.64" y="-706.41" transform="scale(1, -1)"
	style="font-family:Helvetica;font-weight:normal;font-style:normal;font-size:12pt">Write 2M keys, 1,000 clients, 8-byte key, 256-byte value (Test 4), Throughput</text>
<text x="551.76" y="-4.965" transform="scale(1, -1)"
	style="font-family:Helvetica;font-weight:normal;font-style:normal;font-size:12pt">Second</text>
<text x="70.912" y="-19.142" transform="scale(1, -1)"
	style="font-family:Helvetica;font-weight:normal;font-style:normal;font-size:10pt">0</text>
<text x="398.23" y="-19.142" transform="scale(1, -1)"
	style="font-family:Helvetica;font-weight:normal;font-style:normal;font-size:10pt">50</text>
<text x="725.55" y="-19.142" transform="scale(1, -1)"
	style="font-family:Helvetica;font-weight:normal;font-style:normal;font-size:10pt">100</text>
<text x="1056.3" y="-19.142" transform="scale(1, -1)"
	style="font-family:Helvetica;font-weight:normal;font-style:normal;font-size:10pt">150</text>
<path d="M74.388,30.467L74.388,40.467" style="fill:none;stroke:#000000;stroke-width:0.625" />
<path d="M405.18,30.467L405.18,40.467" style="fill:none;stroke:#000000;stroke-width:0.625" />
<path d="M735.97,30.467L735.97,40.467" style="fill:none;stroke:#000000;stroke-width:0.625" />
<path d="M1066.8,30.467L1066.8,40.467" style="fill:none;stroke:#000000;stroke-width:0.625" />
<path d="M140.55,35.468L140.55,40.467" style="fill:none;stroke:#000000;stroke-width:0.625" />
<path d="M206.7,35.468L206.7,40.467" style="fill:none;stroke:#000000;stroke-width:0.625" />
<path d="M272.86,35.468L272.86,40.467" style="fill:none;stroke:#000000;stroke-width:0.625" />
<path d="M339.02,35.468L339.02,40.467" style="fill:none;stroke:#000000;stroke-width:0.625" />
<path d="M471.34,35.468L471.34,40.467" style="fill:none;stroke:#000000;stroke-width:0.625" />
<path d="M537.5,35.468L537.5,40.467" style="fill:none;stroke:#000000;stroke-width:0.625" />
<path d="M603.66,35.468L603.66,40.467" style="fill:none;stroke:#000000;stroke-width:0.625" />
<path d="M669.82,35.468L669.82,40.467" style="fill:none;stroke:#000000;stroke-width:0.625" />
<path d="M802.13,35.468L802.13,40.467" style="fill:none;stroke:#000000;stroke-width:0.625" />
<path d="M868.29,35.468L868.29,40.467" style="fill:none;stroke:#000000;stroke-width:0.625" />
<path d="M934.45,35.468L934.45,40.467" style="fill:none;stroke:#000000;stroke-width:0.625" />
<path d="M1000.6,35.468L1000.6,40.467" style="fill:none;stroke:#000000;stroke-width:0.625" />
<path d="M74.388,40.467L1080,40.467" style="fill:none;stroke:#000000;stroke-width:0.625" />
<g transform="rotate(90)">
<text x="335.88" y="13.59" transform="scale(1, -1)"
	style="font-family:Helvetica;font-weight:normal;font-style:normal;font-size:12pt">Throughput</text>
</g>
<text x="46.705" y="-41.661" transform="scale(1, -1)"
	style="font-family:Helvetica;font-weight:normal;font-style:normal;font-size:10pt">0</text>
<text x="18.555" y="-167.12" transform="scale(1, -1)"
	style="font-family:Helvetica;font-weight:normal;font-style:normal;font-size:10pt">1e+04</text>
<text x="18.555" y="-292.58" transform="scale(1, -1)"
	style="font-family:Helvetica;font-weight:normal;font-style:normal;font-size:10pt">2e+04</text>
<text x="18.555" y="-418.04" transform="scale(1, -1)"
	style="font-family:Helvetica;font-weight:normal;font-style:normal;font-size:10pt">3e+04</text>
<text x="18.555" y="-543.5" transform="scale(1, -1)"
	style="font-family:Helvetica;font-weight:normal;font-style:normal;font-size:10pt">4e+04</text>
<text x="18.555" y="-668.96" transform="scale(1, -1)"
	style="font-family:Helvetica;font-weight:normal;font-style:normal;font-size:10pt">5e+04</text>
<path d="M57.13,47.03L67.13,47.03" style="fill:none;stroke:#000000;stroke-width:0.625" />
<path d="M57.13,172.49L67.13,172.49" style="fill:none;stroke:#000000;stroke-width:0.625" />
<path d="M57.13,297.95L67.13,297.95" style="fill:none;stroke:#000000;stroke-width:0.625" />
<path d="M57.13,423.41L67.13,423.41" style="fill:none;stroke:#000000;stroke-width:0.625" />
<path d="M57.13,548.87L67.13,548.87" style="fill:none;stroke:#000000;stroke-width:0.625" />
<path d="M57.13,674.33L67.13,674.33" style="fill:none;stroke:#000000;stroke-width:0.625" />
<path d="M62.13,109.76L67.13,109.76" style="fill:none;stroke:#000000;stroke-width:0.625" />
<path d="M62.13,235.22L67.13,235.22" style="fill:none;stroke:#000000;stroke-width:0.625" />
<path d="M62.13,360.68L67.13,360.68" style="fill:none;stroke:#000000;stroke-width:0.625" />
<path d="M62.13,486.14L67.13,486.14" style="fill:none;stroke:#000000;stroke-width:0.625" />
<path d="M62.13,611.6L67.13,611.6" style="fill:none;stroke:#000000;stroke-width:0.625" />
<path d="M67.13,47.03L67.13,701.44" style="fill:none;stroke:#000000;stroke-width:0.625" />
<path d="M74.388,85.534L81.003,229.71L87.619,306.51L94.235,436.67L100.85,530L107.47,575.87L114.08,604.55L120.7,505L127.31,583.1L133.93,506.02L140.55,581.53L147.16,277.69L153.78,322.45L160.39,623.9L167.01,539.76L173.63,524.95L180.24,306.41L186.86,422.35L193.47,619.48L200.09,368.87L206.7,304.89L213.32,635.06L219.94,633.9L226.55,551.33L233.17,543.75L239.78,654.85L246.4,568.54L253.02,640.82L259.63,71.269L266.25,225.36L272.86,47.03L279.48,253.09L286.1,605.34L292.71,510.76L299.33,589.94L305.94,215.71L312.56,558.55L319.17,221.96L325.79,330.83L332.41,448.99L339.02,68.559L345.64,63.139L352.25,59.576L358.87,47.03L365.49,58.848L372.1,47.03L378.72,47.03L385.33,47.03L391.95,47.03L398.57,47.03L405.18,47.03L411.8,47.03L418.41,47.03L425.03,47.03L431.64,47.03L438.26,47.03L444.88,47.03L451.49,47.03L458.11,47.03L464.72,47.03L471.34,60.981L477.96,378.96L484.57,405.27L491.19,531.32L497.8,494.12L504.42,551.32L511.04,609.53L517.65,484.16L524.27,553.19L530.88,239.64L537.5,47.494L544.11,47.03L550.73,47.03L557.35,47.03L563.96,47.03L570.58,47.03L577.19,47.03L583.81,47.03L590.43,47.03L597.04,47.03L603.66,47.03L610.27,47.03L616.89,47.03L623.5,47.03L630.12,103.29L636.74,419.91L643.35,540.68L649.97,335.8L656.58,47.03L663.2,57.205L669.82,614.81L676.43,511.12L683.05,483.93L689.66,439.58L696.28,55.988L702.9,47.03L709.51,47.03L716.13,47.03L722.74,47.03L729.36,47.03L735.97,47.03L742.59,47.03L749.21,47.03L755.82,47.03L762.44,47.03L769.05,47.03L775.67,47.03L782.29,47.03L788.9,47.03L795.52,122.63L802.13,47.03L808.75,47.03L815.37,209.65L821.98,563.46L828.6,342.94L835.21,56.276L841.83,51.208L848.44,47.03L855.06,47.03L861.68,47.03L868.29,47.03L874.91,47.03L881.52,47.03L888.14,47.03L894.76,47.03L901.37,47.03L907.99,308.63L914.6,412.23L921.22,47.03L927.83,47.03L934.45,47.03L941.07,47.03L947.68,47.03L954.3,47.03L960.91,47.03L967.53,47.03L974.15,47.03L980.76,47.03L987.38,47.03L993.99,47.03L1000.6,47.03L1007.2,47.03L1013.8,47.03L1020.5,47.03L1027.1,47.03L1033.7,51.659L1040.3,47.03L1046.9,48.51L1053.5,47.03L1060.2,47.03L1066.8,47.03L1073.4,179.65L1080,263.78" style="fill:none;stroke:#F15A60;stroke-width:1.875" />
<path d="M74.388,75.434L81.003,219.36L87.619,370.59L94.235,489.4L100.85,504.46L107.47,491.24L114.08,579.01L120.7,480.41L127.31,623.99L133.93,601.14L140.55,523.45L147.16,281.35L153.78,354.35L160.39,393.03L167.01,550.25L173.63,625.29L180.24,484.54L186.86,208.84L193.47,659.57L200.09,587.16L206.7,254.49L213.32,407.8L219.94,570.84L226.55,624.1L233.17,471.78L239.78,626.23L246.4,573.83L253.02,508.71L259.63,548.9L266.25,47.03L272.86,341.31L279.48,379.74L286.1,47.03L292.71,419.77L299.33,553.69L305.94,540.63L312.56,509.13L319.17,632.22L325.79,557.14L332.41,509.25L339.02,628.06L345.64,508.8L352.25,631.07L358.87,572.5L365.49,594.09L372.1,562.26L378.72,406.96L385.33,268.18L391.95,431.42L398.57,49.552L405.18,117.63L411.8,589.81L418.41,501.08L425.03,458.62L431.64,303.86L438.26,595L444.88,523.67L451.49,467.62L458.11,557.42L464.72,566.39" style="fill:none;stroke:#7AC36A;stroke-width:1.875;stroke-dasharray:7.5,2.5" />
<path d="M74.388,122.67L81.003,253.63L87.619,385.82L94.235,496.2L100.85,530.79L107.47,628.46L114.08,532.04L120.7,548.58L127.31,571.77L133.93,541.86L140.55,485.4L147.16,381.56L153.78,279.6L160.39,491.39L167.01,522.95L173.63,670.98L180.24,239.74L186.86,421.89L193.47,531.3L200.09,623.17L206.7,172.97L213.32,588.83L219.94,627L226.55,535.18L233.17,579.72L239.78,661.79L246.4,575.6L253.02,701.44L259.63,90.05L266.25,256.91L272.86,531.17L279.48,626.21L286.1,690.91L292.71,535.99L299.33,634.29L305.94,477.01L312.56,578.07L319.17,451.06L325.79,596.23L332.41,541.7L339.02,595.66L345.64,611.04L352.25,575.65L358.87,407.59L365.49,585.58L372.1,88.959L378.72,47.03L385.33,534.12L391.95,529.26L398.57,549.71L405.18,608.25L411.8,595.05L418.41,583.89L425.03,590.25L431.64,541.28" style="fill:none;stroke:#5A9BD4;stroke-width:1.875;stroke-dasharray:2.5,2.5" />
<path d="M1055,694.3L1080,694.3" style="fill:none;stroke:#F15A60;stroke-width:1.875" />
<text x="793.19" y="-687.85" transform="scale(1, -1)"
	style="font-family:Helvetica;font-weight:normal;font-style:normal;font-size:12pt">Zookeeper v3.4.8 (snapCount 100000)</text>
<path d="M1055,680L1080,680" style="fill:none;stroke:#7AC36A;stroke-width:1.875;stroke-dasharray:7.5,2.5" />
<text x="793.19" y="-673.56" transform="scale(1, -1)"
	style="font-family:Helvetica;font-weight:normal;font-style:normal;font-size:12pt">Zookeeper v3.4.8 (snapCount 500000)</text>
<path d="M1055,665.71L1080,665.71" style="fill:none;stroke:#5A9BD4;stroke-width:1.875;stroke-dasharray:2.5,2.5" />
<text x="784.85" y="-659.26" transform="scale(1, -1)"
	style="font-family:Helvetica;font-weight:normal;font-style:normal;font-size:12pt">Zookeeper v3.4.8 (snapCount 1000000)</text>
</g>
</svg>
