<?xml version="1.0"?>
<!-- Generated by SVGo and Plotinum VG -->
<svg width="12in" height="8in"
	xmlns="http://www.w3.org/2000/svg"
	xmlns:xlink="http://www.w3.org/1999/xlink">
<g transform="scale(1, -1) translate(0, -720)">
<path d="M0,0L1080,0L1080,720L0,720Z" style="fill:#FFFFFF" />
<text x="184.69" y="-705.6" transform="scale(1, -1)"
	style="font-family:Helvetica;font-weight:normal;font-style:normal;font-size:12pt">Write 1M keys, 1000-client, 1000-conn, 8-byte same key, 256-byte value (Zookeeper), Latency(millisecond)</text>
<text x="538.03" y="-4.8486" transform="scale(1, -1)"
	style="font-family:Helvetica;font-weight:normal;font-style:normal;font-size:12pt">Second</text>
<text x="50.406" y="-19.498" transform="scale(1, -1)"
	style="font-family:Helvetica;font-weight:normal;font-style:normal;font-size:10pt">0</text>
<text x="390.13" y="-19.498" transform="scale(1, -1)"
	style="font-family:Helvetica;font-weight:normal;font-style:normal;font-size:10pt">5</text>
<text x="726.37" y="-19.498" transform="scale(1, -1)"
	style="font-family:Helvetica;font-weight:normal;font-style:normal;font-size:10pt">10</text>
<text x="1066.1" y="-19.498" transform="scale(1, -1)"
	style="font-family:Helvetica;font-weight:normal;font-style:normal;font-size:10pt">15</text>
<path d="M53.882,31.498L53.882,41.498" style="fill:none;stroke:#000000;stroke-width:0.625" />
<path d="M393.6,31.498L393.6,41.498" style="fill:none;stroke:#000000;stroke-width:0.625" />
<path d="M733.33,31.498L733.33,41.498" style="fill:none;stroke:#000000;stroke-width:0.625" />
<path d="M1073,31.498L1073,41.498" style="fill:none;stroke:#000000;stroke-width:0.625" />
<path d="M121.83,36.498L121.83,41.498" style="fill:none;stroke:#000000;stroke-width:0.625" />
<path d="M189.77,36.498L189.77,41.498" style="fill:none;stroke:#000000;stroke-width:0.625" />
<path d="M257.72,36.498L257.72,41.498" style="fill:none;stroke:#000000;stroke-width:0.625" />
<path d="M325.66,36.498L325.66,41.498" style="fill:none;stroke:#000000;stroke-width:0.625" />
<path d="M461.55,36.498L461.55,41.498" style="fill:none;stroke:#000000;stroke-width:0.625" />
<path d="M529.49,36.498L529.49,41.498" style="fill:none;stroke:#000000;stroke-width:0.625" />
<path d="M597.44,36.498L597.44,41.498" style="fill:none;stroke:#000000;stroke-width:0.625" />
<path d="M665.38,36.498L665.38,41.498" style="fill:none;stroke:#000000;stroke-width:0.625" />
<path d="M801.27,36.498L801.27,41.498" style="fill:none;stroke:#000000;stroke-width:0.625" />
<path d="M869.21,36.498L869.21,41.498" style="fill:none;stroke:#000000;stroke-width:0.625" />
<path d="M937.16,36.498L937.16,41.498" style="fill:none;stroke:#000000;stroke-width:0.625" />
<path d="M1005.1,36.498L1005.1,41.498" style="fill:none;stroke:#000000;stroke-width:0.625" />
<path d="M53.882,41.498L1073,41.498" style="fill:none;stroke:#000000;stroke-width:0.625" />
<g transform="rotate(90)">
<text x="306.05" y="14.399" transform="scale(1, -1)"
	style="font-family:Helvetica;font-weight:normal;font-style:normal;font-size:12pt">Latency(millisecond)</text>
</g>
<text x="19.248" y="-126.93" transform="scale(1, -1)"
	style="font-family:Helvetica;font-weight:normal;font-style:normal;font-size:10pt">15</text>
<text x="19.248" y="-343.58" transform="scale(1, -1)"
	style="font-family:Helvetica;font-weight:normal;font-style:normal;font-size:10pt">18</text>
<text x="19.248" y="-560.23" transform="scale(1, -1)"
	style="font-family:Helvetica;font-weight:normal;font-style:normal;font-size:10pt">21</text>
<path d="M36.625,132.8L46.625,132.8" style="fill:none;stroke:#000000;stroke-width:0.625" />
<path d="M36.625,349.45L46.625,349.45" style="fill:none;stroke:#000000;stroke-width:0.625" />
<path d="M36.625,566.11L46.625,566.11" style="fill:none;stroke:#000000;stroke-width:0.625" />
<path d="M41.625,60.586L46.625,60.586" style="fill:none;stroke:#000000;stroke-width:0.625" />
<path d="M41.625,205.02L46.625,205.02" style="fill:none;stroke:#000000;stroke-width:0.625" />
<path d="M41.625,277.24L46.625,277.24" style="fill:none;stroke:#000000;stroke-width:0.625" />
<path d="M41.625,421.67L46.625,421.67" style="fill:none;stroke:#000000;stroke-width:0.625" />
<path d="M41.625,493.89L46.625,493.89" style="fill:none;stroke:#000000;stroke-width:0.625" />
<path d="M41.625,638.32L46.625,638.32" style="fill:none;stroke:#000000;stroke-width:0.625" />
<path d="M46.625,48.06L46.625,700.75" style="fill:none;stroke:#000000;stroke-width:0.625" />
<path d="M53.882,466.5L121.83,569.76L189.77,700.75L257.72,249.27L325.66,176.84L393.6,131.1L461.55,95.244L529.49,90.987L597.44,51.987L665.38,48.06L733.33,71.23L801.27,58.768L869.21,65.096L937.16,57.24L1005.1,89.209L1073,61.317" style="fill:none;stroke:#F15A60;stroke-width:1.875" />
<path d="M1055,693.4L1080,693.4" style="fill:none;stroke:#F15A60;stroke-width:1.875" />
<text x="934.09" y="-686.35" transform="scale(1, -1)"
	style="font-family:Helvetica;font-weight:normal;font-style:normal;font-size:12pt">Zookeeper v3.4.8</text>
</g>
</svg>
