<?xml version="1.0"?>
<!-- Generated by SVGo and Plotinum VG -->
<svg width="12in" height="8in"
	xmlns="http://www.w3.org/2000/svg"
	xmlns:xlink="http://www.w3.org/1999/xlink">
<g transform="scale(1, -1) translate(0, -720)">
<path d="M0,0L1080,0L1080,720L0,720Z" style="fill:#FFFFFF" />
<text x="209.73" y="-705.6" transform="scale(1, -1)"
	style="font-family:Helvetica;font-weight:normal;font-style:normal;font-size:12pt">Write 1M keys, 1000-client, 1000-conn, 8-byte same key, 256-byte value (Zookeeper), Memory(MB)</text>
<text x="544.98" y="-4.8486" transform="scale(1, -1)"
	style="font-family:Helvetica;font-weight:normal;font-style:normal;font-size:12pt">Second</text>
<text x="57.358" y="-19.498" transform="scale(1, -1)"
	style="font-family:Helvetica;font-weight:normal;font-style:normal;font-size:10pt">0</text>
<text x="348.55" y="-19.498" transform="scale(1, -1)"
	style="font-family:Helvetica;font-weight:normal;font-style:normal;font-size:10pt">4</text>
<text x="639.74" y="-19.498" transform="scale(1, -1)"
	style="font-family:Helvetica;font-weight:normal;font-style:normal;font-size:10pt">8</text>
<text x="927.45" y="-19.498" transform="scale(1, -1)"
	style="font-family:Helvetica;font-weight:normal;font-style:normal;font-size:10pt">12</text>
<path d="M60.834,31.498L60.834,41.498" style="fill:none;stroke:#000000;stroke-width:0.625" />
<path d="M352.02,31.498L352.02,41.498" style="fill:none;stroke:#000000;stroke-width:0.625" />
<path d="M643.21,31.498L643.21,41.498" style="fill:none;stroke:#000000;stroke-width:0.625" />
<path d="M934.4,31.498L934.4,41.498" style="fill:none;stroke:#000000;stroke-width:0.625" />
<path d="M206.43,36.498L206.43,41.498" style="fill:none;stroke:#000000;stroke-width:0.625" />
<path d="M497.62,36.498L497.62,41.498" style="fill:none;stroke:#000000;stroke-width:0.625" />
<path d="M788.81,36.498L788.81,41.498" style="fill:none;stroke:#000000;stroke-width:0.625" />
<path d="M1080,36.498L1080,41.498" style="fill:none;stroke:#000000;stroke-width:0.625" />
<path d="M60.834,41.498L1080,41.498" style="fill:none;stroke:#000000;stroke-width:0.625" />
<g transform="rotate(90)">
<text x="331.08" y="14.399" transform="scale(1, -1)"
	style="font-family:Helvetica;font-weight:normal;font-style:normal;font-size:12pt">Memory(MB)</text>
</g>
<text x="19.248" y="-142.11" transform="scale(1, -1)"
	style="font-family:Helvetica;font-weight:normal;font-style:normal;font-size:10pt">200</text>
<text x="19.248" y="-351.9" transform="scale(1, -1)"
	style="font-family:Helvetica;font-weight:normal;font-style:normal;font-size:10pt">400</text>
<text x="19.248" y="-561.68" transform="scale(1, -1)"
	style="font-family:Helvetica;font-weight:normal;font-style:normal;font-size:10pt">600</text>
<path d="M43.577,147.98L53.577,147.98" style="fill:none;stroke:#000000;stroke-width:0.625" />
<path d="M43.577,357.77L53.577,357.77" style="fill:none;stroke:#000000;stroke-width:0.625" />
<path d="M43.577,567.56L53.577,567.56" style="fill:none;stroke:#000000;stroke-width:0.625" />
<path d="M48.577,252.88L53.577,252.88" style="fill:none;stroke:#000000;stroke-width:0.625" />
<path d="M48.577,462.66L53.577,462.66" style="fill:none;stroke:#000000;stroke-width:0.625" />
<path d="M48.577,672.45L53.577,672.45" style="fill:none;stroke:#000000;stroke-width:0.625" />
<path d="M53.577,48.06L53.577,700.75" style="fill:none;stroke:#000000;stroke-width:0.625" />
<path d="M60.834,48.06L133.63,99.983L206.43,230.58L279.23,359.78L352.02,585.04L424.82,695.49L497.62,697.93L570.42,699.17L643.21,700.68L716.01,700.75L788.81,694.86L861.61,693.37L934.4,692.11L1007.2,691.21L1080,689.06" style="fill:none;stroke:#F15A60;stroke-width:1.875" />
<path d="M1055,693.4L1080,693.4" style="fill:none;stroke:#F15A60;stroke-width:1.875" />
<text x="934.09" y="-686.35" transform="scale(1, -1)"
	style="font-family:Helvetica;font-weight:normal;font-style:normal;font-size:12pt">Zookeeper v3.4.8</text>
</g>
</svg>
