<?xml version="1.0"?>
<!-- Generated by SVGo and Plotinum VG -->
<svg width="12in" height="8in"
	xmlns="http://www.w3.org/2000/svg"
	xmlns:xlink="http://www.w3.org/1999/xlink">
<g transform="scale(1, -1) translate(0, -720)">
<path d="M0,0L1080,0L1080,720L0,720Z" style="fill:#FFFFFF" />
<text x="237.22" y="-705.6" transform="scale(1, -1)"
	style="font-family:Helvetica;font-weight:normal;font-style:normal;font-size:12pt">Write 1M keys, 1000-client, 1000-conn, 8-byte same key, 256-byte value (Zookeeper), CPU</text>
<text x="544.98" y="-4.8486" transform="scale(1, -1)"
	style="font-family:Helvetica;font-weight:normal;font-style:normal;font-size:12pt">Second</text>
<text x="57.358" y="-19.498" transform="scale(1, -1)"
	style="font-family:Helvetica;font-weight:normal;font-style:normal;font-size:10pt">0</text>
<text x="348.55" y="-19.498" transform="scale(1, -1)"
	style="font-family:Helvetica;font-weight:normal;font-style:normal;font-size:10pt">4</text>
<text x="639.74" y="-19.498" transform="scale(1, -1)"
	style="font-family:Helvetica;font-weight:normal;font-style:normal;font-size:10pt">8</text>
<text x="927.45" y="-19.498" transform="scale(1, -1)"
	style="font-family:Helvetica;font-weight:normal;font-style:normal;font-size:10pt">12</text>
<path d="M60.834,31.498L60.834,41.498" style="fill:none;stroke:#000000;stroke-width:0.625" />
<path d="M352.02,31.498L352.02,41.498" style="fill:none;stroke:#000000;stroke-width:0.625" />
<path d="M643.21,31.498L643.21,41.498" style="fill:none;stroke:#000000;stroke-width:0.625" />
<path d="M934.4,31.498L934.4,41.498" style="fill:none;stroke:#000000;stroke-width:0.625" />
<path d="M206.43,36.498L206.43,41.498" style="fill:none;stroke:#000000;stroke-width:0.625" />
<path d="M497.62,36.498L497.62,41.498" style="fill:none;stroke:#000000;stroke-width:0.625" />
<path d="M788.81,36.498L788.81,41.498" style="fill:none;stroke:#000000;stroke-width:0.625" />
<path d="M1080,36.498L1080,41.498" style="fill:none;stroke:#000000;stroke-width:0.625" />
<path d="M60.834,41.498L1080,41.498" style="fill:none;stroke:#000000;stroke-width:0.625" />
<g transform="rotate(90)">
<text x="356.32" y="14.399" transform="scale(1, -1)"
	style="font-family:Helvetica;font-weight:normal;font-style:normal;font-size:12pt">CPU</text>
</g>
<text x="26.2" y="-138.14" transform="scale(1, -1)"
	style="font-family:Helvetica;font-weight:normal;font-style:normal;font-size:10pt">60</text>
<text x="19.248" y="-321.68" transform="scale(1, -1)"
	style="font-family:Helvetica;font-weight:normal;font-style:normal;font-size:10pt">120</text>
<text x="19.248" y="-505.22" transform="scale(1, -1)"
	style="font-family:Helvetica;font-weight:normal;font-style:normal;font-size:10pt">180</text>
<text x="19.248" y="-688.75" transform="scale(1, -1)"
	style="font-family:Helvetica;font-weight:normal;font-style:normal;font-size:10pt">240</text>
<path d="M43.577,144.02L53.577,144.02" style="fill:none;stroke:#000000;stroke-width:0.625" />
<path d="M43.577,327.56L53.577,327.56" style="fill:none;stroke:#000000;stroke-width:0.625" />
<path d="M43.577,511.09L53.577,511.09" style="fill:none;stroke:#000000;stroke-width:0.625" />
<path d="M43.577,694.63L53.577,694.63" style="fill:none;stroke:#000000;stroke-width:0.625" />
<path d="M48.577,82.84L53.577,82.84" style="fill:none;stroke:#000000;stroke-width:0.625" />
<path d="M48.577,205.2L53.577,205.2" style="fill:none;stroke:#000000;stroke-width:0.625" />
<path d="M48.577,266.38L53.577,266.38" style="fill:none;stroke:#000000;stroke-width:0.625" />
<path d="M48.577,388.73L53.577,388.73" style="fill:none;stroke:#000000;stroke-width:0.625" />
<path d="M48.577,449.91L53.577,449.91" style="fill:none;stroke:#000000;stroke-width:0.625" />
<path d="M48.577,572.27L53.577,572.27" style="fill:none;stroke:#000000;stroke-width:0.625" />
<path d="M48.577,633.45L53.577,633.45" style="fill:none;stroke:#000000;stroke-width:0.625" />
<path d="M53.577,48.06L53.577,696.25" style="fill:none;stroke:#000000;stroke-width:0.625" />
<path d="M60.834,48.06L133.63,133.34L206.43,232.15L279.23,303.51L352.02,366.28L424.82,419.63L497.62,471.2L570.42,517.27L643.21,554.71L716.01,585.91L788.81,614.36L861.61,638.56L934.4,660.24L1007.2,678.51L1080,696.25" style="fill:none;stroke:#F15A60;stroke-width:1.875" />
<path d="M1055,693.4L1080,693.4" style="fill:none;stroke:#F15A60;stroke-width:1.875" />
<text x="934.09" y="-686.35" transform="scale(1, -1)"
	style="font-family:Helvetica;font-weight:normal;font-style:normal;font-size:12pt">Zookeeper v3.4.8</text>
</g>
</svg>
