<?xml version="1.0"?>
<!-- Generated by SVGo and Plotinum VG -->
<svg width="12in" height="8in"
	xmlns="http://www.w3.org/2000/svg"
	xmlns:xlink="http://www.w3.org/1999/xlink">
<g transform="scale(1, -1) translate(0, -720)">
<path d="M0,0L1080,0L1080,720L0,720Z" style="fill:#FFFFFF" />
<text x="214.83" y="-705.6" transform="scale(1, -1)"
	style="font-family:Helvetica;font-weight:normal;font-style:normal;font-size:12pt">Write 1M keys, 1000-client, 1000-conn, 8-byte same key, 256-byte value (Zookeeper), Throughput</text>
<text x="548.63" y="-4.8486" transform="scale(1, -1)"
	style="font-family:Helvetica;font-weight:normal;font-style:normal;font-size:12pt">Second</text>
<text x="71.609" y="-19.498" transform="scale(1, -1)"
	style="font-family:Helvetica;font-weight:normal;font-style:normal;font-size:10pt">0</text>
<text x="404.26" y="-19.498" transform="scale(1, -1)"
	style="font-family:Helvetica;font-weight:normal;font-style:normal;font-size:10pt">5</text>
<text x="733.44" y="-19.498" transform="scale(1, -1)"
	style="font-family:Helvetica;font-weight:normal;font-style:normal;font-size:10pt">10</text>
<text x="1066.1" y="-19.498" transform="scale(1, -1)"
	style="font-family:Helvetica;font-weight:normal;font-style:normal;font-size:10pt">15</text>
<path d="M75.085,31.498L75.085,41.498" style="fill:none;stroke:#000000;stroke-width:0.625" />
<path d="M407.74,31.498L407.74,41.498" style="fill:none;stroke:#000000;stroke-width:0.625" />
<path d="M740.39,31.498L740.39,41.498" style="fill:none;stroke:#000000;stroke-width:0.625" />
<path d="M1073,31.498L1073,41.498" style="fill:none;stroke:#000000;stroke-width:0.625" />
<path d="M141.62,36.498L141.62,41.498" style="fill:none;stroke:#000000;stroke-width:0.625" />
<path d="M208.15,36.498L208.15,41.498" style="fill:none;stroke:#000000;stroke-width:0.625" />
<path d="M274.68,36.498L274.68,41.498" style="fill:none;stroke:#000000;stroke-width:0.625" />
<path d="M341.21,36.498L341.21,41.498" style="fill:none;stroke:#000000;stroke-width:0.625" />
<path d="M474.27,36.498L474.27,41.498" style="fill:none;stroke:#000000;stroke-width:0.625" />
<path d="M540.8,36.498L540.8,41.498" style="fill:none;stroke:#000000;stroke-width:0.625" />
<path d="M607.33,36.498L607.33,41.498" style="fill:none;stroke:#000000;stroke-width:0.625" />
<path d="M673.86,36.498L673.86,41.498" style="fill:none;stroke:#000000;stroke-width:0.625" />
<path d="M806.92,36.498L806.92,41.498" style="fill:none;stroke:#000000;stroke-width:0.625" />
<path d="M873.46,36.498L873.46,41.498" style="fill:none;stroke:#000000;stroke-width:0.625" />
<path d="M939.99,36.498L939.99,41.498" style="fill:none;stroke:#000000;stroke-width:0.625" />
<path d="M1006.5,36.498L1006.5,41.498" style="fill:none;stroke:#000000;stroke-width:0.625" />
<path d="M75.085,41.498L1073,41.498" style="fill:none;stroke:#000000;stroke-width:0.625" />
<g transform="rotate(90)">
<text x="336.05" y="14.399" transform="scale(1, -1)"
	style="font-family:Helvetica;font-weight:normal;font-style:normal;font-size:12pt">Throughput</text>
</g>
<text x="19.248" y="-205.65" transform="scale(1, -1)"
	style="font-family:Helvetica;font-weight:normal;font-style:normal;font-size:10pt">2e+04</text>
<text x="19.248" y="-392.97" transform="scale(1, -1)"
	style="font-family:Helvetica;font-weight:normal;font-style:normal;font-size:10pt">4e+04</text>
<text x="19.248" y="-580.3" transform="scale(1, -1)"
	style="font-family:Helvetica;font-weight:normal;font-style:normal;font-size:10pt">6e+04</text>
<path d="M57.828,211.52L67.828,211.52" style="fill:none;stroke:#000000;stroke-width:0.625" />
<path d="M57.828,398.85L67.828,398.85" style="fill:none;stroke:#000000;stroke-width:0.625" />
<path d="M57.828,586.17L67.828,586.17" style="fill:none;stroke:#000000;stroke-width:0.625" />
<path d="M62.828,117.86L67.828,117.86" style="fill:none;stroke:#000000;stroke-width:0.625" />
<path d="M62.828,305.18L67.828,305.18" style="fill:none;stroke:#000000;stroke-width:0.625" />
<path d="M62.828,492.51L67.828,492.51" style="fill:none;stroke:#000000;stroke-width:0.625" />
<path d="M62.828,679.84L67.828,679.84" style="fill:none;stroke:#000000;stroke-width:0.625" />
<path d="M67.828,48.06L67.828,700.75" style="fill:none;stroke:#000000;stroke-width:0.625" />
<path d="M75.085,48.06L141.62,353.38L208.15,471.72L274.68,603.56L341.21,621.78L407.74,647.08L474.27,668.76L540.8,671.66L607.33,695.27L673.86,700.75L740.39,682.88L806.92,692.56L873.46,686.09L939.99,694.14L1006.5,672.08L1073,689.53" style="fill:none;stroke:#F15A60;stroke-width:1.875" />
<path d="M1055,693.4L1080,693.4" style="fill:none;stroke:#F15A60;stroke-width:1.875" />
<text x="934.09" y="-686.35" transform="scale(1, -1)"
	style="font-family:Helvetica;font-weight:normal;font-style:normal;font-size:12pt">Zookeeper v3.4.8</text>
</g>
</svg>
