<?xml version="1.0"?>
<!-- Generated by SVGo and Plotinum VG -->
<svg width="12in" height="8in"
	xmlns="http://www.w3.org/2000/svg"
	xmlns:xlink="http://www.w3.org/1999/xlink">
<g transform="scale(1, -1) translate(0, -720)">
<path d="M0,0L1080,0L1080,720L0,720Z" style="fill:#FFFFFF" />
<text x="273.23" y="-706.41" transform="scale(1, -1)"
	style="font-family:Helvetica;font-weight:normal;font-style:normal;font-size:12pt">Write 2M keys, 1000-client (etcdv3 100-conns), 8-byte key, 256-byte value, CPU</text>
<text x="544.64" y="-4.965" transform="scale(1, -1)"
	style="font-family:Helvetica;font-weight:normal;font-style:normal;font-size:12pt">Second</text>
<text x="56.662" y="-19.142" transform="scale(1, -1)"
	style="font-family:Helvetica;font-weight:normal;font-style:normal;font-size:10pt">0</text>
<text x="352.49" y="-19.142" transform="scale(1, -1)"
	style="font-family:Helvetica;font-weight:normal;font-style:normal;font-size:10pt">600</text>
<text x="651.8" y="-19.142" transform="scale(1, -1)"
	style="font-family:Helvetica;font-weight:normal;font-style:normal;font-size:10pt">1200</text>
<text x="954.58" y="-19.142" transform="scale(1, -1)"
	style="font-family:Helvetica;font-weight:normal;font-style:normal;font-size:10pt">1800</text>
<path d="M60.137,30.467L60.137,40.467" style="fill:none;stroke:#000000;stroke-width:0.625" />
<path d="M362.92,30.467L362.92,40.467" style="fill:none;stroke:#000000;stroke-width:0.625" />
<path d="M665.7,30.467L665.7,40.467" style="fill:none;stroke:#000000;stroke-width:0.625" />
<path d="M968.48,30.467L968.48,40.467" style="fill:none;stroke:#000000;stroke-width:0.625" />
<path d="M161.06,35.468L161.06,40.467" style="fill:none;stroke:#000000;stroke-width:0.625" />
<path d="M261.99,35.468L261.99,40.467" style="fill:none;stroke:#000000;stroke-width:0.625" />
<path d="M463.84,35.468L463.84,40.467" style="fill:none;stroke:#000000;stroke-width:0.625" />
<path d="M564.77,35.468L564.77,40.467" style="fill:none;stroke:#000000;stroke-width:0.625" />
<path d="M766.62,35.468L766.62,40.467" style="fill:none;stroke:#000000;stroke-width:0.625" />
<path d="M867.55,35.468L867.55,40.467" style="fill:none;stroke:#000000;stroke-width:0.625" />
<path d="M1069.4,35.468L1069.4,40.467" style="fill:none;stroke:#000000;stroke-width:0.625" />
<path d="M60.137,40.467L1080,40.467" style="fill:none;stroke:#000000;stroke-width:0.625" />
<g transform="rotate(90)">
<text x="357.05" y="13.59" transform="scale(1, -1)"
	style="font-family:Helvetica;font-weight:normal;font-style:normal;font-size:12pt">CPU</text>
</g>
<text x="18.555" y="-201.79" transform="scale(1, -1)"
	style="font-family:Helvetica;font-weight:normal;font-style:normal;font-size:10pt">100</text>
<text x="18.555" y="-364.56" transform="scale(1, -1)"
	style="font-family:Helvetica;font-weight:normal;font-style:normal;font-size:10pt">200</text>
<text x="18.555" y="-527.34" transform="scale(1, -1)"
	style="font-family:Helvetica;font-weight:normal;font-style:normal;font-size:10pt">300</text>
<text x="18.555" y="-690.12" transform="scale(1, -1)"
	style="font-family:Helvetica;font-weight:normal;font-style:normal;font-size:10pt">400</text>
<path d="M42.88,207.15L52.88,207.15" style="fill:none;stroke:#000000;stroke-width:0.625" />
<path d="M42.88,369.93L52.88,369.93" style="fill:none;stroke:#000000;stroke-width:0.625" />
<path d="M42.88,532.71L52.88,532.71" style="fill:none;stroke:#000000;stroke-width:0.625" />
<path d="M42.88,695.49L52.88,695.49" style="fill:none;stroke:#000000;stroke-width:0.625" />
<path d="M47.88,125.77L52.88,125.77" style="fill:none;stroke:#000000;stroke-width:0.625" />
<path d="M47.88,288.54L52.88,288.54" style="fill:none;stroke:#000000;stroke-width:0.625" />
<path d="M47.88,451.32L52.88,451.32" style="fill:none;stroke:#000000;stroke-width:0.625" />
<path d="M47.88,614.1L52.88,614.1" style="fill:none;stroke:#000000;stroke-width:0.625" />
<path d="M52.88,47.03L52.88,698.74" style="fill:none;stroke:#000000;stroke-width:0.625" />
<path d="M60.137,47.03L60.642,99.168L61.147,139.06L61.651,152.98L62.156,156.11L62.661,157.1L63.165,157.75L63.67,159.48L64.175,162.94L64.679,165.56L65.184,168.17L65.688,170.2L66.193,172.21L66.698,174.57L67.202,178.02L67.707,181.83L68.212,185.86L68.716,192.29L69.221,201.86L69.726,212.36L70.23,221.22L70.735,229.98L71.239,237.92L71.744,246.03L72.249,253.6L72.753,258.61L73.258,265.43L73.763,271.18L74.267,276.95L74.772,282.1L75.276,286.93L75.781,291.59L76.286,294.71L76.79,297.69L77.295,300.85L77.8,303.96L78.304,307.04L78.809,309.87L79.314,312.57L79.818,315.34L80.323,317.73L80.827,320.68L81.332,323.77L81.837,326.57L82.341,328.68L82.846,331.37L83.351,334.41L83.855,336.79L84.36,338.35L84.864,341.14L85.369,342.54L85.874,344.51L86.378,346.62L86.883,348.51L87.388,351.08L87.892,352.78L88.397,354.58L88.902,356.24L89.406,357.35L89.911,358.95L90.415,360.44L90.92,362.38L91.425,363.01L91.929,360.25L92.434,358.18L92.939,356.28L93.443,353.48L93.948,351.54L94.453,349.21L94.957,346.92L95.462,345.96L95.966,345.58L96.471,343.84L96.976,342.05L97.48,342.15L97.985,341.87L98.49,341.12L98.994,342.5L99.499,343.61L100,345L100.51,346.22L101.01,346.93L101.52,348.9L102.02,349.54L102.53,351.15L103.03,352.17L103.54,352.89L104.04,354.92L104.55,355.46L105.05,356.8L105.55,357.4L106.06,357.72L106.56,358.67L107.07,359.68L107.57,360.05L108.08,360.96L108.58,361.65L109.09,361.89L109.59,362.23L110.1,363.67L110.6,363.88L111.11,364.14L111.61,365.62L112.11,366.32L112.62,366.77L113.12,368.19L113.63,368.91L114.13,369.33L114.64,370.36L115.14,371.82L115.65,372.24L116.15,372.78L116.66,374.33L117.16,374.88L117.67,375.26L118.17,376.38L118.67,376.96L119.18,376.64L119.68,376.25L120.19,377.21L120.69,377.11L121.2,377.57L121.7,377.09L122.21,376.93L122.71,375.34L123.22,374.77L123.72,374.07L124.23,372.94L124.73,371.95L125.24,370.99L125.74,370.01L126.24,369.53L126.75,370.14L127.25,370.71L127.76,370.49L128.26,370.67L128.77,371.63L129.27,371.97L129.78,372.68L130.28,373.24L130.79,374.33L131.29,374.41L131.8,375.22L132.3,374.91L132.8,375.16L133.31,375.19L133.81,375.27L134.32,375.01L134.82,375.47L135.33,375.66L135.83,375.7L136.34,375.68L136.84,375.68L137.35,375.58L137.85,375.87L138.36,375.42L138.86,375L139.36,374.91L139.87,374.78L140.37,374.62L140.88,374.16L141.38,374.05L141.89,373.92L142.39,374.34L142.9,374.47L143.4,374.38L143.91,374.31L144.41,374.26L144.92,374.46L145.42,374.75L145.93,374.15L146.43,373.68L146.93,373.66L147.44,373.03L147.94,373.06L148.45,373.32L148.95,372.93L149.46,372.75L149.96,373.37L150.47,373.79L150.97,374.69L151.48,374.86L151.98,374.64L152.49,373.94L152.99,373.22L153.49,373.19L154,373.76L154.5,373.09L155.01,372.03L155.51,370.91L156.02,370.1L156.52,370.18L157.03,369.61L157.53,369.07L158.04,369.31L158.54,368.76L159.05,368.66L159.55,367.56L160.05,366.55L160.56,365.49L161.06,364.4L161.57,363.32L162.07,362.28L162.58,361.11L163.08,360.1L163.59,359.16L164.09,359.25L164.6,358.33L165.1,357.22L165.61,356.32L166.11,355.19L166.61,354.05L167.12,353.2L167.62,352.08L168.13,350.95L168.63,350.14L169.14,349.19L169.64,348.33L170.15,347.7L170.65,346.61L171.16,345.53L171.66,344.46L172.17,343.56L172.67,343.07L173.18,341.82L173.68,340.58L174.18,339.36L174.69,338.01L175.19,336.45L175.7,335.29L176.2,334.66L176.71,333.55L177.21,332.44L177.72,331.34L178.22,330.25L178.73,330.28L179.23,329.63L179.74,328.55L180.24,327.5L180.74,326.45L181.25,325.41L181.75,324.73L182.26,323.77L182.76,322.76L183.27,321.75L183.77,321.21L184.28,320.81L184.78,320.29L185.29,319.29L185.79,318.33L186.3,317.34L186.8,316.36L187.3,315.39L187.81,314.85L188.31,313.9L188.82,312.96L189.32,312.54L189.83,311.59L190.33,311.2L190.84,310.7L191.34,309.77L191.85,308.86L192.35,307.95L192.86,307.04L193.36,306.14L193.87,305.26L194.37,304.37L194.87,303.98L195.38,303.47L195.88,303.18L196.39,302.36L196.89,301.5L197.4,300.83L197.9,300.18L198.41,299.35L198.91,298.52L199.42,297.79L199.92,297.46L200.43,296.88L200.93,296.06L201.43,295.25L201.94,294.91L202.44,294.14L202.95,293.35L203.45,292.55L203.96,292.11L204.46,291.34L204.97,290.58L205.47,290.24L205.98,289.49L206.48,288.72L206.99,287.96L207.49,287.39L207.99,286.9L208.5,286.49L209,285.74L209.51,285.03L210.01,284.31L210.52,283.6L211.02,283.33L211.53,282.63L212.03,281.93L212.54,281.25L213.04,281.32L213.55,280.7L214.05,280.01L214.56,279.35L215.06,278.68L215.56,278L216.07,277.44L216.57,277.1L217.08,276.43L217.58,275.8L218.09,275.47L218.59,275.28L219.1,274.64L219.6,273.99L220.11,273.36L220.61,272.72L221.12,272.1L221.62,271.89L222.12,271.27L222.63,271.13L223.13,271.06L223.64,270.65L224.14,270.2L224.65,269.74L225.15,269.3L225.66,268.85L226.16,268.8L226.67,268.47L227.17,268.49L227.68,267.92L228.18,267.32L228.68,266.73L229.19,266.16L229.69,265.58L230.2,265.01L230.7,264.83L231.21,264.27L231.71,263.8L232.22,263.88L232.72,263.33L233.23,262.76L233.73,262.21L234.24,261.65L234.74,261.1L235.25,260.55L235.75,260.01L236.25,259.85L236.76,259.63L237.26,259.1L237.77,258.98L238.27,258.59L238.78,258.19L239.28,257.78L239.79,257.36L240.29,257.32L240.8,256.92L241.3,256.33L241.81,255.92L242.31,255.43L242.81,254.88L243.32,254.31L243.82,253.87L244.33,253.43L244.83,252.88L245.34,252.34L245.84,251.79L246.35,251.22L246.85,250.8L247.36,250.78L247.86,250.37L248.37,250.01L248.87,249.7L249.37,249.38L249.88,249.66L250.38,249.41L250.89,249.38L251.39,248.92L251.9,248.47L252.4,248.39L252.91,247.93L253.41,247.77L253.92,247.33L254.42,246.89L254.93,246.4L255.43,246.27L255.93,245.86L256.44,245.67L256.94,245.21L257.45,244.72L257.95,244.27L258.46,243.81L258.96,243.37L259.47,242.92L259.97,242.46L260.48,242.02L260.98,241.92L261.49,241.76L261.99,241.66L262.5,241.24L263,240.8L263.5,240.36L264.01,239.94L264.51,239.51L265.02,239.09L265.52,238.65L266.03,238.49L266.53,238.08L267.04,237.92L267.54,237.61L268.05,237.25L268.55,236.83L269.06,236.41L269.56,236L270.06,235.58L270.57,235.15L271.07,235.02L271.58,234.62L272.08,234.21L272.59,234.09L273.09,233.72L273.6,233.33L274.1,232.96L274.61,232.58L275.11,232.21L275.62,232.08L276.12,232.03L276.62,231.65L277.13,231.28L277.63,230.92L278.14,230.82L278.64,230.5L279.15,230.12L279.65,229.75L280.16,229.39L280.66,229.28L281.17,228.92L281.67,228.85L282.18,228.49L282.68,228.14L283.19,227.78L283.69,227.6L284.19,227.37L284.7,227.01L285.2,226.9L285.71,226.56L286.21,226.22L286.72,226.15L287.22,225.84L287.73,225.58L288.23,225.34L288.74,225.39L289.24,225.16L289.75,224.93L290.25,224.95L290.75,224.72L291.26,224.59L291.76,224.59L292.27,224.54L292.77,224.21L293.28,223.89L293.78,223.53L294.29,223.22L294.79,222.99L295.3,222.8L295.8,222.46L296.31,222.13L296.81,222.11L297.31,221.79L297.82,221.77L298.32,221.45L298.83,221.17L299.33,220.89L299.84,220.57L300.34,220.47L300.85,220.16L301.35,219.85L301.86,219.54L302.36,219.51L302.87,219.18L303.37,219.15L303.88,218.83L304.38,218.5L304.88,218.22L305.39,217.91L305.89,217.59L306.4,217.26L306.9,216.92L307.41,216.58L307.91,216.24L308.42,215.9L308.92,215.55L309.43,215.23L309.93,214.89L310.44,214.54L310.94,214.22L311.44,213.89L311.95,213.57L312.45,213.23L312.96,212.88L313.46,212.87L313.97,212.82L314.47,212.56L314.98,212.3L315.48,212.02L315.99,211.76L316.49,211.76L317,211.5L317.5,211.73L318,211.47L318.51,211.21L319.01,210.93L319.52,210.67L320.02,210.67L320.53,210.41L321.03,210.35L321.54,210.08L322.04,209.82L322.55,209.79L323.05,209.58L323.56,209.3L324.06,209.06L324.56,209.03L325.07,208.77L325.57,208.75L326.08,208.52L326.58,208.26L327.09,208L327.59,207.76L328.1,207.95L328.6,207.74L329.11,207.48L329.61,207.24L330.12,206.99L330.62,206.75L331.13,206.73L331.63,206.59L332.13,206.5L332.64,206.26L333.14,206.02L333.65,206.03L334.15,205.8L334.66,205.56L335.16,205.32L335.67,205.33L336.17,205.1L336.68,205.1L337.18,204.89L337.69,204.63L338.19,204.39L338.69,204.16L339.2,204.16L339.7,203.93L340.21,203.9L340.71,203.67L341.22,203.43L341.72,203.18L342.23,203.2L342.73,202.96L343.24,202.73L343.74,202.5L344.25,202.26L344.75,202.08L345.25,202.24L345.76,202.01L346.26,201.78L346.77,201.56L347.27,201.33L347.78,201.33L348.28,201.12L348.79,200.89L349.29,200.66L349.8,200.42L350.3,200.4L350.81,200.43L351.31,200.2L351.82,199.98L352.32,199.76L352.82,199.52L353.33,199.6L353.83,199.47L354.34,199.52L354.84,199.41L355.35,199.28L355.85,199.19L356.36,199.1L356.86,199.37L357.37,199.29L357.87,199.11L358.38,198.9L358.88,198.77L359.38,198.69L359.89,198.48L360.39,198.25L360.9,198.1L361.4,198.04L361.91,197.91L362.41,197.89L362.92,197.97L363.42,198.01L363.93,197.86L364.43,197.73L364.94,197.58L365.44,197.47L365.94,197.36L366.45,197.4L366.95,197.45L367.46,197.24L367.96,197.03L368.47,197.05L368.97,196.82L369.48,196.57L369.98,196.35L370.49,196.12L370.99,195.87L371.5,195.63L372,195.37L372.51,195.26L373.01,195.17L373.51,195.04L374.02,194.9L374.52,194.86L375.03,194.91L375.53,194.78L376.04,194.65L376.54,194.52L377.05,194.39L377.55,194.41L378.06,194.18L378.56,194.2L379.07,193.97L379.57,193.76L380.07,193.53L380.58,193.3L381.08,193.16L381.59,193.07L382.09,192.88L382.6,192.7L383.1,192.67L383.61,192.47L384.11,192.28L384.62,192.07L385.12,191.87L385.63,191.64L386.13,191.45L386.63,191.43L387.14,191.24L387.64,191.07L388.15,191.09L388.65,190.91L389.16,190.71L389.66,190.49L390.17,190.31L390.67,190.1L391.18,189.88L391.68,189.67L392.19,189.46L392.69,189.25L393.2,189.04L393.7,188.83L394.2,188.63L394.71,188.66L395.21,188.48L395.72,188.29L396.22,188.09L396.73,187.88L397.23,187.69L397.74,187.47L398.24,187.28L398.75,187.07L399.25,186.86L399.76,186.71L400.26,186.91L400.76,186.76L401.27,186.58L401.77,186.42L402.28,186.25L402.78,186.09L403.29,185.93L403.79,186.14L404.3,186.03L404.8,185.86L405.31,185.7L405.81,185.55L406.32,185.57L406.82,185.41L407.32,185.24L407.83,185.26L408.33,185.11L408.84,184.94L409.34,184.98L409.85,184.84L410.35,184.68L410.86,184.53L411.36,184.53L411.87,184.54L412.37,184.41L412.88,184.25L413.38,184.11L413.88,183.94L414.39,183.78L414.89,183.88L415.4,183.86L415.9,183.71L416.41,183.55L416.91,183.41L417.42,183.34L417.92,183.31L418.43,183.16L418.93,183.18L419.44,183.03L419.94,182.88L420.45,182.77L420.95,182.79L421.45,182.64L421.96,182.49L422.46,182.45L422.97,182.35L423.47,182.4L423.98,182.23L424.48,182.09L424.99,181.94L425.49,181.78L426,181.63L426.5,181.66L427.01,181.53L427.51,181.39L428.01,181.4L428.52,181.24L429.02,181.29L429.53,181.14L430.03,181L430.54,180.85L431.04,180.69L431.55,180.54L432.05,180.39L432.56,180.44L433.06,180.46L433.57,180.31L434.07,180.17L434.57,180.1L435.08,180.07L435.58,179.92L436.09,179.76L436.59,179.61L437.1,179.47L437.6,179.32L438.11,179.24L438.61,179.4L439.12,179.25L439.62,179.11L440.13,178.96L440.63,178.99L441.14,178.85L441.64,178.7L442.14,178.57L442.65,178.41L443.15,178.28L443.66,178.29L444.16,178.15L444.67,178.2L445.17,178.05L445.68,177.94L446.18,177.85L446.69,177.95L447.19,177.94L447.7,178.05L448.2,178.05L448.7,178.08L449.21,178.21L449.71,178.21L450.22,178.34L450.72,178.33L451.23,178.25L451.73,178.15L452.24,178.21L452.74,178.25L453.25,178.12L453.75,178.02L454.26,177.94L454.76,177.87L455.26,177.97L455.77,177.9L456.27,178.03L456.78,177.97L457.28,177.9L457.79,177.85L458.29,177.94L458.8,177.81L459.3,177.66L459.81,177.53L460.31,177.58L460.82,177.46L461.32,177.46L461.83,177.32L462.33,177.15L462.83,176.99L463.34,176.83L463.84,176.68L464.35,176.54L464.85,176.37L465.36,176.21L465.86,176.05L466.37,176.11L466.87,175.98L467.38,175.82L467.88,175.67L468.39,175.53L468.89,175.36L469.39,175.2L469.9,175.04L470.4,174.88L470.91,174.73L471.41,174.55L471.92,174.42L472.42,174.29L472.93,174.14L473.43,174L473.94,173.85L474.44,173.72L474.95,173.59L475.45,173.64L475.95,173.49L476.46,173.39L476.96,173.38L477.47,173.25L477.97,173.12L478.48,172.99L478.98,172.84L479.49,172.71L479.99,172.6L480.5,172.47L481,172.37L481.51,172.39L482.01,172.4L482.51,172.29L483.02,172.34L483.52,172.21L484.03,172.09L484.53,171.96L485.04,171.85L485.54,171.72L486.05,171.6L486.55,171.49L487.06,171.39L487.56,171.56L488.07,171.44L488.57,171.49L489.08,171.36L489.58,171.25L490.08,171.13L490.59,171L491.09,170.89L491.6,170.76L492.1,170.64L492.61,170.66L493.11,170.59L493.62,170.59L494.12,170.46L494.63,170.45L495.13,170.43L495.64,170.32L496.14,170.2L496.64,170.09L497.15,169.98L497.65,169.85L498.16,169.88L498.66,169.76L499.17,169.76L499.67,169.72L500.18,169.6L500.68,169.47L501.19,169.54L501.69,169.42L502.2,169.31L502.7,169.19L503.2,169.19L503.71,169.11L504.21,169L504.72,168.89L505.22,168.82L505.73,168.84L506.23,168.71L506.74,168.61L507.24,168.66L507.75,168.54L508.25,168.43L508.76,168.45L509.26,168.35L509.77,168.23L510.27,168.1L510.77,167.99L511.28,167.96L511.78,167.93L512.29,167.83L512.79,167.71L513.3,167.76L513.8,167.66L514.31,167.7L514.81,167.58L515.32,167.47L515.82,167.37L516.33,167.26L516.83,167.16L517.33,167.1L517.84,167.11L518.34,167L518.85,166.9L519.35,166.98L519.86,167L520.36,166.88L520.87,166.79L521.37,166.67L521.88,166.57L522.38,166.46L522.89,166.36L523.39,166.28L523.89,166.35L524.4,166.23L524.9,166.13L525.41,166.31L525.91,166.22L526.42,166.12L526.92,166L527.43,165.91L527.93,165.79L528.44,165.7L528.94,165.6L529.45,165.5L529.95,165.55L530.46,165.45L530.96,165.5L531.46,165.53L531.97,165.45L532.47,165.34L532.98,165.24L533.48,165.13L533.99,165.03L534.49,164.93L535,164.83L535.5,164.73L536.01,164.86L536.51,164.9L537.02,164.85L537.52,164.96L538.02,164.91L538.53,164.88L539.03,164.95L539.54,164.93L540.04,164.88L540.55,164.83L541.05,164.75L541.56,164.65L542.06,164.7L542.57,164.6L543.07,164.65L543.58,164.72L544.08,164.62L544.58,164.52L545.09,164.43L545.59,164.33L546.1,164.23L546.6,164.12L547.11,164.03L547.61,163.94L548.12,163.89L548.62,164.02L549.13,163.92L549.63,163.97L550.14,163.89L550.64,163.79L551.15,163.69L551.65,163.58L552.15,163.5L552.66,163.4L553.16,163.29L553.67,163.17L554.17,163.07L554.68,162.96L555.18,162.86L555.69,163.01L556.19,162.96L556.7,162.85L557.2,162.75L557.71,162.63L558.21,162.52L558.71,162.41L559.22,162.31L559.72,162.2L560.23,162.08L560.73,162.18L561.24,162.15L561.74,162.1L562.25,162.2L562.75,162.15L563.26,162.08L563.76,162.03L564.27,162.13L564.77,162.23L565.27,162.18L565.78,162.08L566.28,161.98L566.79,161.89L567.29,161.79L567.8,161.69L568.3,161.59L568.81,161.64L569.31,161.69L569.82,161.61L570.32,161.66L570.83,161.56L571.33,161.46L571.83,161.37L572.34,161.28L572.84,161.2L573.35,161.1L573.85,161.01L574.36,160.93L574.86,160.97L575.37,160.89L575.87,161.07L576.38,160.97L576.88,160.89L577.39,160.78L577.89,160.68L578.4,160.57L578.9,160.47L579.4,160.4L579.91,160.36L580.41,160.45L580.92,160.4L581.42,160.34L581.93,160.27L582.43,160.23L582.94,160.16L583.44,160.11L583.95,160.06L584.45,159.95L584.96,159.87L585.46,159.77L585.96,159.66L586.47,159.54L586.97,159.44L587.48,159.36L587.98,159.25L588.49,159.31L588.99,159.27L589.5,159.18L590,159.15L590.51,159.15L591.01,159.07L591.52,159.12L592.02,159.07L592.52,158.99L593.03,159.05L593.53,158.99L594.04,158.96L594.54,158.96L595.05,158.87L595.55,158.79L596.06,158.71L596.56,158.63L597.07,158.55L597.57,158.47L598.08,158.44L598.58,158.42L599.09,158.48L599.59,158.4L600.09,158.31L600.6,158.22L601.1,158.14L601.61,158.08L602.11,158.04L602.62,158.04L603.12,157.96L603.63,157.88L604.13,157.78L604.64,157.7L605.14,157.78L605.65,157.69L606.15,157.62L606.65,157.78L607.16,157.74L607.66,157.65L608.17,157.59L608.67,157.51L609.18,157.43L609.68,157.36L610.19,157.28L610.69,157.33L611.2,157.41L611.7,157.33L612.21,157.25L612.71,157.25L613.21,157.25L613.72,157.17L614.22,157.08L614.73,157L615.23,156.99L615.74,156.97L616.24,156.89L616.75,156.81L617.25,156.82L617.76,156.79L618.26,156.71L618.77,156.63L619.27,156.69L619.78,156.63L620.28,156.53L620.78,156.47L621.29,156.5L621.79,156.42L622.3,156.34L622.8,156.27L623.31,156.19L623.81,156.24L624.32,156.19L624.82,156.11L625.33,156.17L625.83,156.09L626.34,156.01L626.84,156.06L627.34,155.99L627.85,155.93L628.35,155.83L628.86,155.77L629.36,155.68L629.87,155.6L630.37,155.67L630.88,155.59L631.38,155.65L631.89,155.59L632.39,155.51L632.9,155.49L633.4,155.47L633.9,155.41L634.41,155.33L634.91,155.24L635.42,155.18L635.92,155.1L636.43,155.03L636.93,155.08L637.44,155.03L637.94,155.1L638.45,155.02L638.95,155.08L639.46,155L639.96,154.92L640.46,154.85L640.97,154.77L641.47,154.74L641.98,154.71L642.48,154.68L642.99,154.76L643.49,154.87L644,155L644.5,154.97L645.01,154.95L645.51,154.92L646.02,154.98L646.52,154.97L647.03,154.89L647.53,154.82L648.03,154.74L648.54,154.66L649.04,154.59L649.55,154.51L650.05,154.58L650.56,154.64L651.06,154.56L651.57,154.59L652.07,154.53L652.58,154.45L653.08,154.38L653.59,154.3L654.09,154.24L654.59,154.15L655.1,154.11L655.6,154.09L656.11,154.19L656.61,154.3L657.12,154.32L657.62,154.35L658.13,154.32L658.63,154.28L659.14,154.25L659.64,154.35L660.15,154.28L660.65,154.2L661.15,154.12L661.66,154.04L662.16,153.96L662.67,153.88L663.17,153.93L663.68,153.86L664.18,153.83L664.69,153.78L665.19,153.84L665.7,153.86L666.2,153.83L666.71,153.88L667.21,153.88L667.72,153.84L668.22,153.83L668.72,153.75L669.23,153.67L669.73,153.6L670.24,153.52L670.74,153.44L671.25,153.37L671.75,153.29L672.26,153.21L672.76,153.13L673.27,153.1L673.77,153.11L674.28,153.05L674.78,153.08L675.28,153L675.79,152.93L676.29,152.85L676.8,152.79L677.3,152.71L677.81,152.62L678.31,152.59L678.82,152.61L679.32,152.53L679.83,152.46L680.33,152.49L680.84,152.43L681.34,152.35L681.84,152.27L682.35,152.2L682.85,152.17L683.36,152.14L683.86,152.09L684.37,152.01L684.87,151.92L685.38,151.84L685.88,151.76L686.39,151.68L686.89,151.6L687.4,151.53L687.9,151.47L688.41,151.39L688.91,151.31L689.41,151.22L689.92,151.14L690.42,151.19L690.93,151.11L691.43,151.03L691.94,150.95L692.44,150.85L692.95,150.78L693.45,150.74L693.96,150.67L694.46,150.61L694.97,150.56L695.47,150.57L695.97,150.56L696.48,150.52L696.98,150.69L697.49,150.64L697.99,150.57L698.5,150.52L699,150.46L699.51,150.39L700.01,150.46L700.52,150.39L701.02,150.33L701.53,150.26L702.03,150.21L702.53,150.15L703.04,150.21L703.54,150.26L704.05,150.31L704.55,150.26L705.06,150.21L705.56,150.15L706.07,150.08L706.57,150.04L707.08,149.97L707.58,149.91L708.09,149.86L708.59,149.91L709.1,149.84L709.6,149.92L710.1,149.99L710.61,149.92L711.11,149.87L711.62,149.81L712.12,149.76L712.63,149.81L713.13,149.76L713.64,149.69L714.14,149.65L714.65,149.58L715.15,149.53L715.66,149.47L716.16,149.6L716.66,149.61L717.17,149.66L717.67,149.6L718.18,149.55L718.68,149.5L719.19,149.43L719.69,149.38L720.2,149.32L720.7,149.25L721.21,149.21L721.71,149.19L722.22,149.19L722.72,149.42L723.22,149.38L723.73,149.37L724.23,149.35L724.74,149.34L725.24,149.32L725.75,149.3L726.25,149.4L726.76,149.4L727.26,149.38L727.77,149.47L728.27,149.42L728.78,149.35L729.28,149.42L729.78,149.35L730.29,149.3L730.79,149.24L731.3,149.32L731.8,149.25L732.31,149.19L732.81,149.12L733.32,149.08L733.82,149.12L734.33,149.06L734.83,148.99L735.34,148.93L735.84,148.99L736.35,148.95L736.85,148.88L737.35,148.82L737.86,148.88L738.36,148.83L738.87,148.77L739.37,148.7L739.88,148.75L740.38,148.68L740.89,148.62L741.39,148.55L741.9,148.51L742.4,148.49L742.91,148.52L743.41,148.46L743.91,148.39L744.42,148.33L744.92,148.26L745.43,148.2L745.93,148.23L746.44,148.18L746.94,148.12L747.45,148.07L747.95,148L748.46,147.95L748.96,147.89L749.47,147.95L749.97,147.89L750.47,147.82L750.98,147.76L751.48,147.69L751.99,147.79L752.49,147.76L753,147.74L753.5,147.72L754.01,147.71L754.51,147.69L755.02,147.77L755.52,147.77L756.03,147.98L756.53,147.97L757.04,147.95L757.54,147.89L758.04,147.84L758.55,147.79L759.05,147.82L759.56,147.79L760.06,147.72L760.57,147.68L761.07,147.61L761.58,147.56L762.08,147.5L762.59,147.59L763.09,147.63L763.6,147.58L764.1,147.51L764.6,147.46L765.11,147.5L765.61,147.46L766.12,147.4L766.62,147.35L767.13,147.28L767.63,147.22L768.14,147.15L768.64,147.09L769.15,147.15L769.65,147.07L770.16,147.01L770.66,146.94L771.16,146.88L771.67,146.81L772.17,146.89L772.68,146.83L773.18,146.76L773.69,146.72L774.19,146.65L774.7,146.6L775.2,146.54L775.71,146.59L776.21,146.62L776.72,146.67L777.22,146.65L777.73,146.62L778.23,146.59L778.73,146.57L779.24,146.54L779.74,146.6L780.25,146.62L780.75,146.6L781.26,146.55L781.76,146.49L782.27,146.42L782.77,146.47L783.28,146.5L783.78,146.47L784.29,146.41L784.79,146.34L785.29,146.29L785.8,146.37L786.3,146.31L786.81,146.26L787.31,146.21L787.82,146.16L788.32,146.1L788.83,146.05L789.33,146.08L789.84,146.18L790.34,146.11L790.85,146.06L791.35,146.02L791.85,145.97L792.36,145.9L792.86,145.84L793.37,145.77L793.87,145.71L794.38,145.64L794.88,145.59L795.39,145.54L795.89,145.48L796.4,145.41L796.9,145.35L797.41,145.27L797.91,145.22L798.42,145.15L798.92,145.09L799.42,145.02L799.93,144.96L800.43,144.89L800.94,144.83L801.44,144.76L801.95,144.7L802.45,144.63L802.96,144.57L803.46,144.5L803.97,144.44L804.47,144.49L804.98,144.45L805.48,144.47L805.98,144.58L806.49,144.53L806.99,144.5L807.5,144.45L808,144.39L808.51,144.35L809.01,144.35L809.52,144.39L810.02,144.34L810.53,144.39L811.03,144.45L811.54,144.42L812.04,144.39L812.54,144.32L813.05,144.4L813.55,144.35L814.06,144.31L814.56,144.29L815.07,144.32L815.57,144.27L816.08,144.22L816.58,144.18L817.09,144.13L817.59,144.31L818.1,144.27L818.6,144.22L819.1,144.18L819.61,144.24L820.11,144.19L820.62,144.14L821.12,144.09L821.63,144.06L822.13,144.01L822.64,143.96L823.14,143.93L823.65,143.9L824.15,144.01L824.66,144.13L825.16,144.08L825.67,144.03L826.17,143.98L826.67,143.93L827.18,143.88L827.68,143.85L828.19,143.82L828.69,143.85L829.2,143.8L829.7,143.77L830.21,143.72L830.71,143.69L831.22,143.85L831.72,143.82L832.23,143.77L832.73,143.75L833.23,143.79L833.74,143.74L834.24,143.69L834.75,143.64L835.25,143.62L835.76,143.61L836.26,143.64L836.77,143.7L837.27,143.67L837.78,143.67L838.28,143.79L838.79,143.77L839.29,143.83L839.79,143.83L840.3,143.93L840.8,143.88L841.31,143.83L841.81,143.79L842.32,143.75L842.82,143.7L843.33,143.64L843.83,143.61L844.34,143.57L844.84,143.54L845.35,143.59L845.85,143.61L846.36,143.66L846.86,143.75L847.36,143.74L847.87,143.74L848.37,143.72L848.88,143.8L849.38,143.8L849.89,143.8L850.39,143.79L850.9,143.75L851.4,143.7L851.91,143.66L852.41,143.7L852.92,143.66L853.42,143.61L853.92,143.57L854.43,143.62L854.93,143.57L855.44,143.52L855.94,143.48L856.45,143.43L856.95,143.38L857.46,143.33L857.96,143.28L858.47,143.3L858.97,143.28L859.48,143.22L859.98,143.17L860.48,143.12L860.99,143.15L861.49,143.13L862,143.09L862.5,143.04L863.01,142.97L863.51,142.92L864.02,142.87L864.52,142.82L865.03,142.76L865.53,142.71L866.04,142.76L866.54,142.69L867.05,142.63L867.55,142.58L868.05,142.52L868.56,142.47L869.06,142.4L869.57,142.35L870.07,142.3L870.58,142.26L871.08,142.19L871.59,142.14L872.09,142.08L872.6,142.06L873.1,142.11L873.61,142.09L874.11,142.14L874.61,142.16L875.12,142.14L875.62,142.14L876.13,142.14L876.63,142.12L877.14,142.12L877.64,142.19L878.15,142.21L878.65,142.19L879.16,142.16L879.66,142.16L880.17,142.17L880.67,142.24L881.17,142.21L881.68,142.26L882.18,142.22L882.69,142.19L883.19,142.14L883.7,142.11L884.2,142.06L884.71,142.03L885.21,141.98L885.72,141.95L886.22,141.99L886.73,142.06L887.23,142.03L887.73,142.11L888.24,142.06L888.74,142.01L889.25,141.96L889.75,141.91L890.26,141.85L890.76,141.82L891.27,141.77L891.77,141.72L892.28,141.67L892.78,141.62L893.29,141.57L893.79,141.62L894.3,141.57L894.8,141.65L895.3,141.6L895.81,141.56L896.31,141.51L896.82,141.47L897.32,141.42L897.83,141.41L898.33,141.42L898.84,141.38L899.34,141.33L899.85,141.29L900.35,141.25L900.86,141.28L901.36,141.26L901.86,141.29L902.37,141.28L902.87,141.23L903.38,141.18L903.88,141.15L904.39,141.2L904.89,141.15L905.4,141.12L905.9,141.07L906.41,141.02L906.91,140.97L907.42,140.94L907.92,140.99L908.42,140.95L908.93,141L909.43,140.99L909.94,140.94L910.44,140.92L910.95,140.95L911.45,140.9L911.96,140.87L912.46,140.82L912.97,140.79L913.47,140.74L913.98,140.69L914.48,140.66L914.99,140.71L915.49,140.68L915.99,140.74L916.5,140.69L917,140.74L917.51,140.71L918.01,140.66L918.52,140.63L919.02,140.58L919.53,140.53L920.03,140.53L920.54,140.55L921.04,140.66L921.55,140.73L922.05,140.82L922.55,140.84L923.06,140.86L923.56,140.97L924.07,141L924.57,141.07L925.08,141.15L925.58,141.26L926.09,141.25L926.59,141.2L927.1,141.16L927.6,141.12L928.11,141.08L928.61,141.03L929.11,141L929.62,140.95L930.12,141L930.63,140.97L931.13,141.02L931.64,140.99L932.14,141.02L932.65,141L933.15,140.97L933.66,140.92L934.16,140.89L934.67,140.84L935.17,140.81L935.68,140.76L936.18,140.71L936.68,140.76L937.19,140.71L937.69,140.64L938.2,140.59L938.7,140.55L939.21,140.5L939.71,140.45L940.22,140.4L940.72,140.33L941.23,140.27L941.73,140.22L942.24,140.17L942.74,140.12L943.24,140.06L943.75,140.03L944.25,139.99L944.76,139.93L945.26,139.88L945.77,139.83L946.27,139.76L946.78,139.72L947.28,139.67L947.79,139.62L948.29,139.57L948.8,139.52L949.3,139.47L949.8,139.44L950.31,139.41L950.81,139.36L951.32,139.42L951.82,139.39L952.33,139.46L952.83,139.47L953.34,139.47L953.84,139.44L954.35,139.39L954.85,139.36L955.36,139.33L955.86,139.29L956.37,139.26L956.87,139.21L957.37,139.18L957.88,139.24L958.38,139.31L958.89,139.28L959.39,139.34L959.9,139.31L960.4,139.28L960.91,139.24L961.41,139.21L961.92,139.18L962.42,139.15L962.93,139.21L963.43,139.21L963.93,139.21L964.44,139.19L964.94,139.19L965.45,139.36L965.95,139.37L966.46,139.47L966.96,139.47L967.47,139.47L967.97,139.47L968.48,139.52L968.98,139.52L969.49,139.49L969.99,139.46L970.49,139.42L971,139.39L971.5,139.36L972.01,139.31L972.51,139.39L973.02,139.42L973.52,139.5L974.03,139.49L974.53,139.44L975.04,139.41L975.54,139.37L976.05,139.34L976.55,139.29L977.05,139.28L977.56,139.26L978.06,139.28L978.57,139.24L979.07,139.19L979.58,139.24L980.08,139.21L980.59,139.16L981.09,139.23L981.6,139.18L982.1,139.15L982.61,139.1L983.11,139.06L983.62,139.02L984.12,138.97L984.62,138.93L985.13,138.89L985.63,138.85L986.14,138.8L986.64,138.82L987.15,138.82L987.65,138.77L988.16,138.79L988.66,138.79L989.17,138.74L989.67,138.71L990.18,138.66L990.68,138.61L991.18,138.58L991.69,138.53L992.19,138.49L992.7,138.45L993.2,138.41L993.71,138.36L994.21,138.43L994.72,138.38L995.22,138.35L995.73,138.4L996.23,138.36L996.74,138.33L997.24,138.38L997.74,138.35L998.25,138.32L998.75,138.27L999.26,138.23L999.76,138.2L1000.3,138.17L1000.8,138.12L1001.3,138.12L1001.8,138.15L1002.3,138.12L1002.8,138.09L1003.3,138.14L1003.8,138.19L1004.3,138.15L1004.8,138.1L1005.3,138.07L1005.8,138.04L1006.3,137.99L1006.8,137.96L1007.3,137.93L1007.8,137.88L1008.3,137.84L1008.8,137.91L1009.4,137.88L1009.9,137.83L1010.4,137.93L1010.9,137.96L1011.4,137.91L1011.9,137.91L1012.4,137.89L1012.9,137.88L1013.4,137.88L1013.9,137.86L1014.4,137.86L1014.9,137.94L1015.4,137.94L1015.9,137.99L1016.4,138.02L1016.9,138.04L1017.4,138.12L1017.9,138.12L1018.4,138.1L1018.9,138.1L1019.4,138.1L1019.9,138.17L1020.5,138.27L1021,138.28L1021.5,138.27L1022,138.25L1022.5,138.25L1023,138.22L1023.5,138.19L1024,138.23L1024.5,138.2L1025,138.17L1025.5,138.2L1026,138.19L1026.5,138.15L1027,138.12L1027.5,138.19L1028,138.15L1028.5,138.12L1029,138.07L1029.5,138.04L1030,138.01L1030.5,137.96L1031.1,137.91L1031.6,137.88L1032.1,137.83L1032.6,137.78L1033.1,137.73L1033.6,137.68L1034.1,137.63L1034.6,137.6L1035.1,137.55L1035.6,137.5L1036.1,137.47L1036.6,137.42L1037.1,137.37L1037.6,137.32L1038.1,137.27L1038.6,137.24L1039.1,137.19L1039.6,137.14L1040.1,137.19L1040.6,137.18L1041.1,137.16L1041.6,137.13L1042.2,137.11L1042.7,137.11L1043.2,137.1L1043.7,137.1L1044.2,137.1L1044.7,137.11L1045.2,137.18L1045.7,137.16L1046.2,137.14L1046.7,137.23L1047.2,137.19L1047.7,137.16L1048.2,137.23L1048.7,137.21L1049.2,137.26L1049.7,137.23L1050.2,137.19L1050.7,137.16L1051.2,137.13L1051.7,137.1L1052.2,137.06L1052.7,137.03L1053.3,137L1053.8,137.14L1054.3,137.11L1054.8,137.08L1055.3,137.11L1055.8,137.13L1056.3,137.1L1056.8,137.05L1057.3,137.01L1057.8,136.96L1058.3,136.93L1058.8,136.88L1059.3,136.85L1059.8,136.82L1060.3,136.77L1060.8,136.74L1061.3,136.8L1061.8,136.77L1062.3,136.72L1062.8,136.72L1063.3,136.75L1063.9,136.7L1064.4,136.67L1064.9,136.64L1065.4,136.61L1065.9,136.57L1066.4,136.61L1066.9,136.59L1067.4,136.54L1067.9,136.51L1068.4,136.48L1068.9,136.53L1069.4,136.49L1069.9,136.46L1070.4,136.43L1070.9,136.49L1071.4,136.46L1071.9,136.43L1072.4,136.38L1072.9,136.35L1073.4,136.41L1073.9,136.36L1074.4,136.33L1075,136.3L1075.5,136.26L1076,136.23L1076.5,136.3L1077,136.26L1077.5,136.22L1078,136.25L1078.5,136.26L1079,136.23L1079.5,136.2L1080,136.23" style="fill:none;stroke:#F15A60;stroke-width:1.875" />
<path d="M60.137,48.755L60.642,131.66L61.147,204.14L61.651,263.05L62.156,317.26L62.661,358.67L63.165,358.57L63.67,343.58L64.175,330.44L64.679,321.59L65.184,321.33L65.688,312.5L66.193,302.97L66.698,295.54L67.202,288.33L67.707,282.03L68.212,281.06L68.716,282.1L69.221,274.98L69.726,267.84L70.23,261.47L70.735,254.75L71.239,248.73L71.744,243.11L72.249,237.35L72.753,231.75L73.258,226.4L73.763,221.35L74.267,216.47L74.772,211.88L75.276,207.42L75.781,203.2L76.286,199.19L76.79,195.4L77.295,191.79L77.8,188.35L78.304,185.05L78.809,181.92L79.314,178.91L79.818,176.06L80.323,173.31L80.827,170.69L81.332,168.17L81.837,165.73L82.341,163.42L82.846,161.2L83.351,159.02L83.855,156.95L84.36,154.95L84.864,153.03L85.369,151.19L85.874,149.38L86.378,147.66L86.883,145.98L87.388,144.37L87.892,142.79L88.397,141.26L88.902,139.81L89.406,138.38L89.911,136.98L90.415,135.71L90.92,142.14L91.425,153.24L91.929,164.44L92.434,175.85L92.939,186.43L93.443,195.6L93.948,203.74L94.453,214.38L94.957,224.56L95.462,233.13L95.966,238.25L96.471,240.31L96.976,240.75L97.48,240.82L97.985,241.92L98.49,242.92L98.994,241.97L99.499,241.11L100,239.47L100.51,238.03L101.01,236.76L101.52,235.28L102.02,234.71L102.53,235.53L103.03,236.67L103.54,235.48L104.04,233.74L104.55,231.88L105.05,230.01L105.55,228.22L106.06,226.41L106.56,224.64L107.07,222.9L107.57,221.19L108.08,219.56L108.58,217.91L109.09,216.29L109.59,214.64L110.1,213.06L110.6,211.48L111.11,209.97L111.61,208.46L112.11,206.98L112.62,205.53L113.12,204.09L113.63,202.69L114.13,201.33L114.64,199.98L115.14,198.64L115.65,197.34L116.15,196.05L116.66,194.78L117.16,193.55L117.67,192.34L118.17,191.14L118.67,189.97L119.18,188.81L119.68,187.65L120.19,186.55L120.69,185.42L121.2,184.37L121.7,186.25L122.21,190.37L122.71,196L123.22,202.74L123.72,208.91L124.23,214.33L124.73,219.95L125.24,224.88L125.74,230.53L126.24,236.37L126.75,241.79L127.25,246.94L127.76,251.25L128.26,253.79L128.77,255.92L129.27,256.09L129.78,255.42L130.28,255.52L130.79,256.2L131.29,257.27L131.8,257.63L132.3,256.35L132.8,255.16L133.31,253.99L133.81,252.88L134.32,252.94L134.82,252.98L135.33,253.63L135.83,254.7L136.34,254.13L136.84,253.45L137.35,252.78L137.85,252.65L138.36,253.53L138.86,254.07L139.36,255.13L139.87,255.16L140.37,253.9L140.88,252.67L141.38,251.46L141.89,250.24L142.39,249.07L142.9,247.9L143.4,246.73L143.91,245.55L144.41,244.41L144.92,243.28L145.42,242.17L145.93,241.06L146.43,239.97L146.93,238.88L147.44,237.82L147.94,236.76L148.45,235.72L148.95,234.7L149.46,233.67L149.96,232.66L150.47,231.65L150.97,230.66L151.48,230.03L151.98,229.94L152.49,231.86L152.99,234.29L153.49,238.25L154,242.46L154.5,246.27L155.01,250.54L155.51,254.57L156.02,258.35L156.52,262.08L157.03,265.62L157.53,268.6L158.04,272.38L158.54,276.21L159.05,278.91L159.55,282.39L160.05,285.34L160.56,288.77L161.06,292.16L161.57,294.19L162.07,296.39L162.58,298.31L163.08,299.53L163.59,300.44L164.09,300L164.6,299.11L165.1,298.21L165.61,297.64L166.11,297.25L166.61,296.28L167.12,295.22L167.62,294.18L168.13,293.09L168.63,291.72L169.14,290.61L169.64,289.59L170.15,289.16L170.65,289.08L171.16,289.13L171.66,289.18L172.17,289.86L172.67,289.94L173.18,289.68L173.68,289.72L174.18,289.75L174.69,290.71L175.19,290.89L175.7,291.44L176.2,291.15L176.71,291L177.21,290.95L177.72,290.89L178.22,291.05L178.73,291.33L179.23,290.86L179.74,289.86L180.24,288.87L180.74,287.94L181.25,286.88L181.75,285.97L182.26,285.13L182.76,284.25L183.27,283.32L183.77,282.41L184.28,281.4L184.78,280.21L185.29,279.35L185.79,278.52L186.3,277.72L186.8,276.71L187.3,276.06" style="fill:none;stroke:#7AC36A;stroke-width:1.875;stroke-dasharray:7.5,2.5" />
<path d="M60.137,49.13L60.642,127.1L61.147,192.93L61.651,248.65L62.156,295.77L62.661,336.07L63.165,369.66L63.67,398.21L64.175,424.02L64.679,447.35L65.184,467.45L65.688,486.66L66.193,501.6L66.698,517.05L67.202,529.8L67.707,539.03L68.212,547.13L68.716,556.64L69.221,563.62L69.726,569.55L70.23,574.92L70.735,580.45L71.239,587.76L71.744,593.02L72.249,598.1L72.753,603.42L73.258,608.76L73.763,614.93L74.267,618.33L74.772,621.99L75.276,626.94L75.781,632.43L76.286,635.94L76.79,638.44L77.295,641.56L77.8,643.33L78.304,645.35L78.809,649.68L79.314,651.49L79.818,653.04L80.323,654.89L80.827,656.65L81.332,658.54L81.837,660.28L82.341,663.57L82.846,665L83.351,666.27L83.855,667.82L84.36,668.68L84.864,669.7L85.369,671.38L85.874,672.28L86.378,672.86L86.883,675.16L87.388,676.98L87.892,677.29L88.397,678.28L88.902,678.28L89.406,679.49L89.911,679.99L90.415,681.41L90.92,681.86L91.425,683.09L91.929,684.7L92.434,685.88L92.939,686.99L93.443,687.85L93.948,688.13L94.453,689.61L94.957,689.63L95.462,691.16L95.966,692.9L96.471,695.11L96.976,696.43L97.48,697.2L97.985,697.05L98.49,697.69L98.994,698.4L99.499,698.74" style="fill:none;stroke:#5A9BD4;stroke-width:1.875;stroke-dasharray:2.5,2.5" />
<path d="M60.137,57.464L60.642,143.98L61.147,193.95L61.651,226.38L62.156,270.25L62.661,299.82L63.165,333.13L63.67,358.08L64.175,385.07L64.679,410.35L65.184,426.91L65.688,432.57L66.193,447.55L66.698,456.86L67.202,468.74L67.707,478.86L68.212,478.65L68.716,486.68L69.221,493.82L69.726,508.52L70.23,511.47L70.735,518.6L71.239,526.41L71.744,530.43L72.249,534.68L72.753,541.42L73.258,546.47L73.763,546.81L74.267,545.93L74.772,557.14L75.276,558.53L75.781,560.74L76.286,565.28L76.79,569.08L77.295,571.57L77.8,572.25L78.304,566.39L78.809,566.37L79.314,567.92L79.818,561.65L80.323,562.84L80.827,555.86L81.332,548.26L81.837,539.21L82.341,529.76L82.846,520.47L83.351,512.46L83.855,504.42L84.36,497.34L84.864,490.8L85.369,483.55L85.874,474.68L86.378,468.06L86.883,461.76L87.388,455.11L87.892,449.4L88.397,449.19L88.902,451.29L89.406,453.36L89.911,454.84L90.415,456.74L90.92,457.44L91.425,459.3L91.929,460.93L92.434,462.18L92.939,461.74L93.443,461.8L93.948,462.83L94.453,463.19L94.957,459.72L95.462,455.08L95.966,451.42L96.471,447.53L96.976,443.65L97.48,439.08L97.985,434.75L98.49,430.83L98.994,427L99.499,422.64L100,418.59L100.51,414.7L101.01,411.51L101.52,408.06L102.02,404.83L102.53,406.96L103.03,408.95L103.54,414.26L104.04,418.16L104.55,418.2L105.05,419.61L105.55,418.98L106.06,417.19L106.56,417.98L107.07,416.89L107.57,415.17L108.08,412.53L108.58,409.46L109.09,406.43L109.59,403.38L110.1,401.07L110.6,399L111.11,396.47L111.61,393.1L112.11,389.73L112.62,386.67L113.12,383.72L113.63,380.89L114.13,377.99L114.64,375.34L115.14,372.65L115.65,370.45L116.15,367.9L116.66,365.24L117.16,362.72L117.67,361.58L118.17,360.3L118.67,358L119.18,355.71L119.68,353.74L120.19,351.91L120.69,349.54L121.2,347.68L121.7,345.89L122.21,343.94L122.71,342.05L123.22,340.26L123.72,338.79L124.23,337.18L124.73,335.46L125.24,333.75L125.74,331.73L126.24,329.78L126.75,327.92L127.25,326.02L127.76,324.27L128.26,322.82L128.77,321.05L129.27,319.57L129.78,318.06L130.28,316.13L130.79,314.36L131.29,312.67L131.8,311.19L132.3,309.64L132.8,308.58L133.31,308.45" style="fill:none;stroke:#FAA75B;stroke-width:1.875;stroke-dasharray:1.25,1.25" />
<path d="M1055,694.3L1080,694.3" style="fill:none;stroke:#5A9BD4;stroke-width:1.875;stroke-dasharray:2.5,2.5" />
<text x="1002.5" y="-687.85" transform="scale(1, -1)"
	style="font-family:Helvetica;font-weight:normal;font-style:normal;font-size:12pt">etcd v3</text>
<path d="M1055,680L1080,680" style="fill:none;stroke:#FAA75B;stroke-width:1.875;stroke-dasharray:1.25,1.25" />
<text x="934.1" y="-673.56" transform="scale(1, -1)"
	style="font-family:Helvetica;font-weight:normal;font-style:normal;font-size:12pt">Zookeeper v3.4.8</text>
<path d="M1055,665.71L1080,665.71" style="fill:none;stroke:#F15A60;stroke-width:1.875" />
<text x="959.12" y="-659.26" transform="scale(1, -1)"
	style="font-family:Helvetica;font-weight:normal;font-style:normal;font-size:12pt">Consul v0.6.4</text>
<path d="M1055,651.41L1080,651.41" style="fill:none;stroke:#7AC36A;stroke-width:1.875;stroke-dasharray:7.5,2.5" />
<text x="1002.5" y="-644.97" transform="scale(1, -1)"
	style="font-family:Helvetica;font-weight:normal;font-style:normal;font-size:12pt">etcd v2</text>
</g>
</svg>
