<?xml version="1.0"?>
<!-- Generated by SVGo and Plotinum VG -->
<svg width="12in" height="8in"
	xmlns="http://www.w3.org/2000/svg"
	xmlns:xlink="http://www.w3.org/1999/xlink">
<g transform="scale(1, -1) translate(0, -720)">
<path d="M0,0L1080,0L1080,720L0,720Z" style="fill:#FFFFFF" />
<text x="245.74" y="-706.41" transform="scale(1, -1)"
	style="font-family:Helvetica;font-weight:normal;font-style:normal;font-size:12pt">Write 2M keys, 1000-client (etcdv3 100-conns), 8-byte key, 256-byte value, Memory(MB)</text>
<text x="548.11" y="-4.965" transform="scale(1, -1)"
	style="font-family:Helvetica;font-weight:normal;font-style:normal;font-size:12pt">Second</text>
<text x="63.613" y="-19.142" transform="scale(1, -1)"
	style="font-family:Helvetica;font-weight:normal;font-style:normal;font-size:10pt">0</text>
<text x="357.38" y="-19.142" transform="scale(1, -1)"
	style="font-family:Helvetica;font-weight:normal;font-style:normal;font-size:10pt">600</text>
<text x="654.62" y="-19.142" transform="scale(1, -1)"
	style="font-family:Helvetica;font-weight:normal;font-style:normal;font-size:10pt">1200</text>
<text x="955.34" y="-19.142" transform="scale(1, -1)"
	style="font-family:Helvetica;font-weight:normal;font-style:normal;font-size:10pt">1800</text>
<path d="M67.088,30.467L67.088,40.467" style="fill:none;stroke:#000000;stroke-width:0.625" />
<path d="M367.8,30.467L367.8,40.467" style="fill:none;stroke:#000000;stroke-width:0.625" />
<path d="M668.52,30.467L668.52,40.467" style="fill:none;stroke:#000000;stroke-width:0.625" />
<path d="M969.24,30.467L969.24,40.467" style="fill:none;stroke:#000000;stroke-width:0.625" />
<path d="M167.33,35.468L167.33,40.467" style="fill:none;stroke:#000000;stroke-width:0.625" />
<path d="M267.56,35.468L267.56,40.467" style="fill:none;stroke:#000000;stroke-width:0.625" />
<path d="M468.04,35.468L468.04,40.467" style="fill:none;stroke:#000000;stroke-width:0.625" />
<path d="M568.28,35.468L568.28,40.467" style="fill:none;stroke:#000000;stroke-width:0.625" />
<path d="M768.76,35.468L768.76,40.467" style="fill:none;stroke:#000000;stroke-width:0.625" />
<path d="M869,35.468L869,40.467" style="fill:none;stroke:#000000;stroke-width:0.625" />
<path d="M1069.5,35.468L1069.5,40.467" style="fill:none;stroke:#000000;stroke-width:0.625" />
<path d="M67.088,40.467L1080,40.467" style="fill:none;stroke:#000000;stroke-width:0.625" />
<g transform="rotate(90)">
<text x="330.91" y="13.59" transform="scale(1, -1)"
	style="font-family:Helvetica;font-weight:normal;font-style:normal;font-size:12pt">Memory(MB)</text>
</g>
<text x="18.555" y="-186.87" transform="scale(1, -1)"
	style="font-family:Helvetica;font-weight:normal;font-style:normal;font-size:10pt">1000</text>
<text x="18.555" y="-334.61" transform="scale(1, -1)"
	style="font-family:Helvetica;font-weight:normal;font-style:normal;font-size:10pt">2000</text>
<text x="18.555" y="-482.35" transform="scale(1, -1)"
	style="font-family:Helvetica;font-weight:normal;font-style:normal;font-size:10pt">3000</text>
<text x="18.555" y="-630.1" transform="scale(1, -1)"
	style="font-family:Helvetica;font-weight:normal;font-style:normal;font-size:10pt">4000</text>
<path d="M49.83,192.24L59.83,192.24" style="fill:none;stroke:#000000;stroke-width:0.625" />
<path d="M49.83,339.98L59.83,339.98" style="fill:none;stroke:#000000;stroke-width:0.625" />
<path d="M49.83,487.72L59.83,487.72" style="fill:none;stroke:#000000;stroke-width:0.625" />
<path d="M49.83,635.46L59.83,635.46" style="fill:none;stroke:#000000;stroke-width:0.625" />
<path d="M54.83,118.37L59.83,118.37" style="fill:none;stroke:#000000;stroke-width:0.625" />
<path d="M54.83,266.11L59.83,266.11" style="fill:none;stroke:#000000;stroke-width:0.625" />
<path d="M54.83,413.85L59.83,413.85" style="fill:none;stroke:#000000;stroke-width:0.625" />
<path d="M54.83,561.59L59.83,561.59" style="fill:none;stroke:#000000;stroke-width:0.625" />
<path d="M59.83,47.03L59.83,701.44" style="fill:none;stroke:#000000;stroke-width:0.625" />
<path d="M67.088,47.03L67.589,53.04L68.09,55.246L68.591,57.007L69.092,57.759L69.593,58.381L70.095,59.166L70.596,58.786L71.097,58.381L71.598,59.334L72.099,60.328L72.601,61.296L73.102,62.42L73.603,63.363L74.104,64.765L74.605,66.352L75.107,68.132L75.608,65.759L76.109,68.565L76.61,71.579L77.111,74.268L77.613,77.49L78.114,80.476L78.615,83.946L79.116,78.737L79.617,80.946L80.119,84.76L80.62,87.499L81.121,90.465L81.622,93.852L82.123,96.917L82.625,100.23L83.126,102.27L83.627,104.77L84.128,107.12L84.629,109.55L85.13,112.52L85.632,115.72L86.133,102.91L86.634,105.29L87.135,107.7L87.636,110.27L88.138,113.57L88.639,116.88L89.14,120L89.641,121.73L90.142,125.44L90.644,128.24L91.145,129.86L91.646,133.95L92.147,137L92.648,138.85L93.15,143.14L93.651,144.19L94.152,148.15L94.653,151.22L95.154,153.08L95.656,156.54L96.157,158.55L96.658,162.08L97.159,164.29L97.66,167.87L98.162,169.92L98.663,170.61L99.164,173.01L99.665,174.08L100.17,175.64L100.67,176.32L101.17,176.66L101.67,178.42L102.17,180.46L102.67,182.3L103.17,160.98L103.67,151.01L104.18,152.23L104.68,153.22L105.18,154.03L105.68,156.83L106.18,157.45L106.68,159.92L107.18,161.94L107.68,164.13L108.19,168.14L108.69,170.24L109.19,174.28L109.69,175.62L110.19,178.82L110.69,182.26L111.19,184.63L111.69,188.26L112.19,190.05L112.7,192.44L113.2,195.95L113.7,196.98L114.2,199.24L114.7,202.88L115.2,205.23L115.7,207.01L116.2,209.76L116.71,213.68L117.21,215.49L117.71,216.23L118.21,222.19L118.71,224.28L119.21,225.25L119.71,231.95L120.21,233.34L120.72,234.16L121.22,240.55L121.72,242.17L122.22,243.2L122.72,248.06L123.22,252.04L123.72,252.93L124.22,254.67L124.72,259.26L125.23,262.19L125.73,262.95L126.23,265.93L126.73,269.04L127.23,271.9L127.73,272.8L128.23,275.51L128.73,276.65L129.24,278.66L129.74,280.19L130.24,282.74L130.74,283.06L131.24,283.49L131.74,283.98L132.24,287.93L132.74,292.86L133.25,293.88L133.75,325.88L134.25,331.53L134.75,338.57L135.25,352.34L135.75,355.38L136.25,356.43L136.75,357.12L137.25,313.79L137.76,314.49L138.26,317.37L138.76,318.34L139.26,321.19L139.76,321.6L140.26,325.03L140.76,325.79L141.26,328.6L141.77,329.11L142.27,329.64L142.77,333.05L143.27,333.56L143.77,336.41L144.27,336.81L144.77,337.51L145.27,337.81L145.77,341.12L146.28,344.44L146.78,344.89L147.28,345.28L147.78,346.01L148.28,346.49L148.78,353.27L149.28,353.67L149.78,354.21L150.29,354.82L150.79,355.33L151.29,360.76L151.79,363.41L152.29,364.1L152.79,364.68L153.29,365.19L153.79,366.4L154.3,369.6L154.8,372.77L155.3,373.34L155.8,373.94L156.3,374.68L156.8,382.9L157.3,384.49L157.8,385.01L158.3,385.76L158.81,385.93L159.31,389.09L159.81,394.12L160.31,397.33L160.81,436.25L161.31,501.99L161.81,516.18L162.31,544.13L162.82,556.4L163.32,568.82L163.82,587.25L164.32,587.64L164.82,587.64L165.32,587.64L165.82,587.64L166.32,587.64L166.83,587.64L167.33,587.64L167.83,587.64L168.33,587.64L168.83,587.64L169.33,587.64L169.83,587.64L170.33,587.64L170.83,587.64L171.34,587.64L171.84,587.64L172.34,587.64L172.84,587.64L173.34,587.64L173.84,587.64L174.34,587.64L174.84,587.64L175.35,587.64L175.85,587.64L176.35,587.64L176.85,587.65L177.35,587.65L177.85,587.65L178.35,587.66L178.85,587.76L179.35,587.77L179.86,587.78L180.36,587.8L180.86,587.8L181.36,587.8L181.86,587.8L182.36,587.8L182.86,587.8L183.36,587.8L183.87,587.8L184.37,587.81L184.87,589.82L185.37,590.33L185.87,590.33L186.37,590.35L186.87,590.35L187.37,590.35L187.88,590.89L188.38,590.91L188.88,590.91L189.38,590.91L189.88,590.91L190.38,590.93L190.88,591.14L191.38,591.14L191.88,591.14L192.39,591.14L192.89,591.14L193.39,591.14L193.89,591.28L194.39,591.28L194.89,591.28L195.39,591.28L195.89,591.28L196.4,591.28L196.9,591.28L197.4,591.28L197.9,591.28L198.4,591.28L198.9,591.28L199.4,591.31L199.9,591.31L200.41,591.34L200.91,591.36L201.41,591.36L201.91,591.36L202.41,591.36L202.91,591.36L203.41,591.36L203.91,591.36L204.41,591.36L204.92,591.36L205.42,591.36L205.92,591.51L206.42,591.51L206.92,591.51L207.42,591.51L207.92,591.51L208.42,591.51L208.93,591.51L209.43,591.51L209.93,591.51L210.43,591.51L210.93,591.51L211.43,591.51L211.93,591.51L212.43,591.51L212.93,591.51L213.44,591.51L213.94,591.51L214.44,591.71L214.94,591.71L215.44,591.71L215.94,591.71L216.44,591.71L216.94,591.71L217.45,591.71L217.95,591.71L218.45,591.71L218.95,592.71L219.45,592.71L219.95,592.71L220.45,592.71L220.95,592.71L221.46,592.71L221.96,592.71L222.46,592.71L222.96,592.71L223.46,593.07L223.96,594.17L224.46,594.17L224.96,594.17L225.46,594.17L225.97,594.17L226.47,594.17L226.97,594.18L227.47,594.18L227.97,594.18L228.47,594.18L228.97,594.18L229.47,594.18L229.98,594.18L230.48,594.18L230.98,594.18L231.48,594.18L231.98,594.18L232.48,594.18L232.98,594.18L233.48,594.18L233.99,594.18L234.49,594.18L234.99,594.18L235.49,594.18L235.99,594.18L236.49,594.18L236.99,594.18L237.49,594.18L237.99,594.18L238.5,594.18L239,594.18L239.5,594.18L240,594.18L240.5,594.18L241,594.18L241.5,594.18L242,594.18L242.51,594.18L243.01,594.18L243.51,594.18L244.01,594.18L244.51,594.18L245.01,594.22L245.51,594.27L246.01,594.29L246.51,594.29L247.02,594.3L247.52,594.3L248.02,594.3L248.52,594.3L249.02,594.3L249.52,594.3L250.02,594.3L250.52,594.3L251.03,594.3L251.53,594.3L252.03,594.3L252.53,594.3L253.03,594.3L253.53,594.3L254.03,594.3L254.53,594.3L255.04,594.3L255.54,594.3L256.04,594.3L256.54,594.3L257.04,594.3L257.54,594.3L258.04,594.3L258.54,594.66L259.04,597.86L259.55,597.86L260.05,597.86L260.55,597.86L261.05,597.86L261.55,597.86L262.05,597.86L262.55,597.86L263.05,597.86L263.56,597.86L264.06,597.86L264.56,597.86L265.06,597.86L265.56,597.86L266.06,597.86L266.56,597.86L267.06,597.86L267.56,597.86L268.07,597.86L268.57,597.86L269.07,597.86L269.57,597.86L270.07,597.86L270.57,597.86L271.07,597.86L271.57,597.86L272.08,597.86L272.58,597.86L273.08,597.86L273.58,597.86L274.08,597.86L274.58,597.86L275.08,597.86L275.58,597.86L276.09,597.86L276.59,597.86L277.09,597.9L277.59,597.9L278.09,597.9L278.59,597.9L279.09,597.9L279.59,597.9L280.09,597.9L280.6,597.9L281.1,597.9L281.6,597.9L282.1,597.9L282.6,597.9L283.1,597.9L283.6,597.9L284.1,597.9L284.61,597.9L285.11,597.9L285.61,597.9L286.11,597.9L286.61,597.9L287.11,597.9L287.61,597.9L288.11,597.9L288.62,597.9L289.12,597.9L289.62,597.9L290.12,597.9L290.62,597.9L291.12,597.9L291.62,597.9L292.12,597.9L292.62,597.9L293.13,597.9L293.63,597.9L294.13,597.9L294.63,597.9L295.13,597.9L295.63,597.9L296.13,597.9L296.63,597.9L297.14,597.9L297.64,597.9L298.14,597.9L298.64,597.9L299.14,597.9L299.64,597.9L300.14,597.9L300.64,597.9L301.14,597.9L301.65,597.9L302.15,597.9L302.65,597.9L303.15,597.9L303.65,597.9L304.15,597.9L304.65,597.9L305.15,597.9L305.66,597.9L306.16,597.9L306.66,597.9L307.16,597.9L307.66,598.05L308.16,598.05L308.66,598.05L309.16,598.05L309.67,598.05L310.17,598.05L310.67,598.05L311.17,598.05L311.67,598.05L312.17,598.05L312.67,598.05L313.17,598.05L313.67,598.05L314.18,598.05L314.68,598.05L315.18,598.05L315.68,598.05L316.18,598.05L316.68,598.05L317.18,598.05L317.68,598.05L318.19,598.05L318.69,598.05L319.19,598.05L319.69,598.05L320.19,598.05L320.69,598.05L321.19,598.07L321.69,599.51L322.2,599.51L322.7,599.99L323.2,599.99L323.7,599.99L324.2,599.99L324.7,599.99L325.2,599.99L325.7,599.99L326.2,599.99L326.71,599.99L327.21,599.99L327.71,599.99L328.21,599.99L328.71,599.99L329.21,599.99L329.71,599.99L330.21,599.99L330.72,599.99L331.22,599.99L331.72,599.99L332.22,599.99L332.72,599.99L333.22,600.3L333.72,600.3L334.22,600.3L334.72,600.3L335.23,600.3L335.73,600.3L336.23,600.3L336.73,600.3L337.23,600.42L337.73,600.42L338.23,600.42L338.73,600.42L339.24,600.42L339.74,600.42L340.24,600.42L340.74,600.42L341.24,600.42L341.74,600.42L342.24,600.42L342.74,600.42L343.25,600.42L343.75,600.42L344.25,600.42L344.75,600.42L345.25,600.42L345.75,600.42L346.25,600.42L346.75,600.42L347.25,600.42L347.76,600.42L348.26,600.42L348.76,600.42L349.26,600.42L349.76,600.42L350.26,600.42L350.76,600.42L351.26,600.42L351.77,600.42L352.27,600.42L352.77,600.47L353.27,600.47L353.77,600.47L354.27,600.47L354.77,600.47L355.27,600.47L355.78,600.8L356.28,600.8L356.78,600.8L357.28,600.8L357.78,600.8L358.28,600.8L358.78,600.8L359.28,600.8L359.78,600.8L360.29,600.8L360.79,600.8L361.29,600.84L361.79,600.88L362.29,600.88L362.79,600.88L363.29,600.88L363.79,600.88L364.3,588.92L364.8,578.63L365.3,578.63L365.8,581.25L366.3,581.83L366.8,581.83L367.3,581.83L367.8,582.59L368.3,582.59L368.81,582.59L369.31,582.59L369.81,582.59L370.31,583.3L370.81,586.77L371.31,589.97L371.81,590.06L372.31,590.06L372.82,590.06L373.32,590.58L373.82,590.58L374.32,590.58L374.82,590.58L375.32,590.58L375.82,590.58L376.32,590.58L376.83,590.58L377.33,592.55L377.83,592.77L378.33,592.77L378.83,592.77L379.33,592.77L379.83,592.77L380.33,592.77L380.83,592.77L381.34,592.77L381.84,592.77L382.34,592.77L382.84,592.77L383.34,592.77L383.84,592.77L384.34,592.77L384.84,592.77L385.35,592.77L385.85,592.77L386.35,592.77L386.85,592.77L387.35,595.47L387.85,598.02L388.35,598.02L388.85,598.02L389.36,598.02L389.86,598.02L390.36,598.02L390.86,598.02L391.36,598.02L391.86,598.02L392.36,598.02L392.86,598.02L393.36,598.02L393.87,598.02L394.37,598.02L394.87,598.02L395.37,598.02L395.87,598.02L396.37,598.02L396.87,598.02L397.37,598.02L397.88,598.02L398.38,598.02L398.88,598.02L399.38,598.02L399.88,598.02L400.38,598.02L400.88,598.02L401.38,598.02L401.88,598.02L402.39,598.02L402.89,598.02L403.39,598.02L403.89,598.02L404.39,598.02L404.89,598.02L405.39,598.02L405.89,598.02L406.4,598.02L406.9,598.02L407.4,598.02L407.9,598.02L408.4,598.02L408.9,598.02L409.4,598.02L409.9,598.02L410.41,598.02L410.91,598.02L411.41,598.02L411.91,598.07L412.41,598.07L412.91,598.07L413.41,598.07L413.91,598.07L414.41,598.07L414.92,598.07L415.42,598.07L415.92,598.07L416.42,598.07L416.92,598.07L417.42,598.07L417.92,598.07L418.42,598.07L418.93,598.07L419.43,598.07L419.93,598.07L420.43,598.07L420.93,598.07L421.43,598.07L421.93,598.07L422.43,598.07L422.94,598.07L423.44,598.07L423.94,598.07L424.44,598.07L424.94,598.07L425.44,598.07L425.94,598.07L426.44,598.07L426.94,598.07L427.45,598.07L427.95,598.07L428.45,598.07L428.95,598.07L429.45,598.07L429.95,598.07L430.45,598.07L430.95,598.07L431.46,598.07L431.96,598.07L432.46,598.07L432.96,598.07L433.46,598.07L433.96,598.07L434.46,598.07L434.96,598.07L435.46,598.07L435.97,598.07L436.47,598.07L436.97,598.07L437.47,598.07L437.97,598.07L438.47,598.07L438.97,597.96L439.47,597.96L439.98,597.9L440.48,597.9L440.98,597.9L441.48,597.9L441.98,597.9L442.48,597.9L442.98,597.9L443.48,597.9L443.99,597.9L444.49,597.9L444.99,597.9L445.49,597.9L445.99,597.9L446.49,597.9L446.99,597.9L447.49,597.9L447.99,597.9L448.5,597.9L449,597.9L449.5,597.9L450,597.9L450.5,597.9L451,597.9L451.5,597.9L452,597.9L452.51,597.9L453.01,597.9L453.51,597.9L454.01,597.9L454.51,597.93L455.01,597.93L455.51,598.32L456.01,600.45L456.52,600.56L457.02,600.56L457.52,600.56L458.02,600.56L458.52,600.56L459.02,603.47L459.52,606.29L460.02,606.29L460.52,606.64L461.03,606.64L461.53,606.64L462.03,606.64L462.53,606.66L463.03,606.66L463.53,606.66L464.03,606.66L464.53,606.66L465.04,606.66L465.54,606.66L466.04,606.66L466.54,606.66L467.04,606.66L467.54,606.66L468.04,606.66L468.54,606.66L469.04,606.66L469.55,606.66L470.05,606.66L470.55,608.97L471.05,608.97L471.55,608.97L472.05,608.97L472.55,608.97L473.05,608.97L473.56,608.97L474.06,608.97L474.56,608.97L475.06,608.97L475.56,608.97L476.06,608.97L476.56,608.97L477.06,608.97L477.57,608.97L478.07,608.97L478.57,608.97L479.07,608.97L479.57,609L480.07,609L480.57,609L481.07,609L481.57,609L482.08,609L482.58,609L483.08,609L483.58,609L484.08,609L484.58,609L485.08,609L485.58,609L486.09,609L486.59,609L487.09,609L487.59,609.01L488.09,609.01L488.59,609.01L489.09,609.01L489.59,609.01L490.09,609.01L490.6,609.01L491.1,609.01L491.6,609.01L492.1,609.01L492.6,609.01L493.1,609.01L493.6,609.01L494.1,609.01L494.61,609.01L495.11,609.01L495.61,609.01L496.11,609.01L496.61,609.01L497.11,609.01L497.61,609.01L498.11,609.01L498.62,609.01L499.12,609.01L499.62,609.01L500.12,609.01L500.62,609.04L501.12,609.04L501.62,609.04L502.12,609.04L502.62,609.04L503.13,609.04L503.63,609.04L504.13,609.04L504.63,609.04L505.13,609.04L505.63,609.04L506.13,609.05L506.63,609.05L507.14,609.05L507.64,609.05L508.14,609.05L508.64,609.05L509.14,609.05L509.64,609.05L510.14,609.05L510.64,609.05L511.15,609.05L511.65,609.05L512.15,609.05L512.65,609.05L513.15,609.05L513.65,609.05L514.15,609L514.65,609L515.15,609L515.66,609L516.16,609L516.66,609L517.16,609L517.66,609L518.16,609L518.66,609L519.16,609L519.67,609L520.17,609L520.67,609L521.17,609L521.67,609L522.17,609L522.67,609L523.17,609L523.67,609L524.18,609L524.68,609L525.18,609L525.68,609L526.18,609L526.68,609L527.18,609L527.68,609L528.19,609L528.69,609L529.19,609L529.69,609L530.19,609L530.69,609L531.19,609L531.69,609L532.2,609L532.7,609L533.2,609L533.7,609L534.2,609L534.7,609L535.2,609L535.7,609L536.2,609L536.71,609L537.21,609L537.71,609L538.21,609L538.71,609L539.21,609L539.71,609L540.21,609L540.72,609L541.22,609L541.72,609L542.22,609.01L542.72,609.05L543.22,609.05L543.72,609.05L544.22,609.05L544.73,609.05L545.23,609.05L545.73,609.05L546.23,609.05L546.73,609.05L547.23,609.05L547.73,609.05L548.23,609.05L548.73,609.05L549.24,609.05L549.74,609.05L550.24,609.05L550.74,609.05L551.24,611.25L551.74,614.73L552.24,616.18L552.74,616.18L553.25,616.18L553.75,616.18L554.25,616.18L554.75,616.18L555.25,616.18L555.75,616.18L556.25,616.18L556.75,616.18L557.25,616.18L557.76,616.18L558.26,616.18L558.76,616.18L559.26,616.18L559.76,616.18L560.26,616.18L560.76,616.18L561.26,616.18L561.77,616.18L562.27,616.18L562.77,616.18L563.27,616.18L563.77,616.18L564.27,616.18L564.77,616.18L565.27,616.18L565.78,616.56L566.28,616.56L566.78,616.56L567.28,619.16L567.78,619.99L568.28,619.99L568.78,619.99L569.28,619.99L569.78,619.99L570.29,619.99L570.79,619.99L571.29,619.99L571.79,619.99L572.29,621.04L572.79,621.04L573.29,621.04L573.79,621.04L574.3,621.04L574.8,621.04L575.3,621.04L575.8,621.04L576.3,621.04L576.8,621.04L577.3,621.04L577.8,621.04L578.31,621.04L578.81,621.66L579.31,622.7L579.81,622.7L580.31,622.7L580.81,622.7L581.31,622.7L581.81,622.7L582.31,622.7L582.82,622.7L583.32,622.7L583.82,622.7L584.32,622.7L584.82,622.7L585.32,622.7L585.82,622.7L586.32,625.68L586.83,629.16L587.33,630.81L587.83,630.81L588.33,630.84L588.83,630.84L589.33,630.84L589.83,630.84L590.33,630.84L590.83,630.84L591.34,630.84L591.84,630.76L592.34,630.76L592.84,630.76L593.34,630.77L593.84,630.77L594.34,630.77L594.84,632.54L595.35,632.54L595.85,632.54L596.35,632.54L596.85,632.54L597.35,632.54L597.85,632.54L598.35,632.54L598.85,632.54L599.36,632.54L599.86,632.54L600.36,632.54L600.86,632.54L601.36,632.59L601.86,632.59L602.36,632.59L602.86,632.59L603.36,632.59L603.87,632.59L604.37,632.59L604.87,632.59L605.37,632.59L605.87,632.59L606.37,632.59L606.87,632.59L607.37,632.59L607.88,632.59L608.38,632.59L608.88,632.59L609.38,632.59L609.88,632.59L610.38,632.59L610.88,632.59L611.38,632.59L611.89,632.59L612.39,632.59L612.89,632.59L613.39,632.59L613.89,632.6L614.39,632.6L614.89,632.6L615.39,632.6L615.89,632.6L616.4,632.6L616.9,632.6L617.4,632.6L617.9,632.6L618.4,632.6L618.9,632.6L619.4,632.6L619.9,632.6L620.41,632.6L620.91,632.6L621.41,632.6L621.91,632.6L622.41,632.6L622.91,632.6L623.41,632.6L623.91,632.6L624.41,632.6L624.92,632.6L625.42,632.6L625.92,632.6L626.42,632.6L626.92,632.6L627.42,632.6L627.92,632.6L628.42,632.6L628.93,632.6L629.43,632.6L629.93,632.6L630.43,632.6L630.93,632.6L631.43,632.6L631.93,632.6L632.43,632.6L632.94,632.6L633.44,632.6L633.94,632.6L634.44,632.6L634.94,632.6L635.44,632.6L635.94,632.6L636.44,632.6L636.94,632.6L637.45,632.6L637.95,632.6L638.45,632.6L638.95,632.6L639.45,632.6L639.95,632.6L640.45,632.6L640.95,632.6L641.46,632.6L641.96,632.6L642.46,632.6L642.96,632.6L643.46,632.6L643.96,632.6L644.46,632.6L644.96,632.6L645.47,632.6L645.97,632.6L646.47,632.6L646.97,632.6L647.47,632.6L647.97,632.6L648.47,632.6L648.97,632.64L649.47,632.64L649.98,632.64L650.48,632.64L650.98,632.64L651.48,632.64L651.98,632.64L652.48,632.64L652.98,632.64L653.48,634.46L653.99,638.3L654.49,640.2L654.99,640.2L655.49,640.2L655.99,640.2L656.49,640.2L656.99,640.2L657.49,640.2L657.99,640.2L658.5,640.2L659,640.2L659.5,640.2L660,640.39L660.5,640.69L661,640.69L661.5,640.69L662,640.69L662.51,640.69L663.01,640.69L663.51,640.69L664.01,640.69L664.51,640.67L665.01,640.67L665.51,640.67L666.01,640.67L666.52,640.67L667.02,640.67L667.52,640.67L668.02,640.67L668.52,640.67L669.02,640.67L669.52,642.53L670.02,642.57L670.52,642.57L671.03,642.57L671.53,642.57L672.03,642.57L672.53,642.57L673.03,642.57L673.53,642.57L674.03,642.57L674.53,642.57L675.04,642.57L675.54,642.57L676.04,642.57L676.54,642.57L677.04,642.57L677.54,642.57L678.04,642.57L678.54,642.57L679.05,642.57L679.55,642.57L680.05,642.57L680.55,642.79L681.05,645.91L681.55,646.19L682.05,646.19L682.55,646.19L683.05,647.02L683.56,647.02L684.06,647.02L684.56,647.02L685.06,647.02L685.56,647.02L686.06,647.02L686.56,647.02L687.06,647.02L687.57,647.02L688.07,647.02L688.57,647.02L689.07,647.02L689.57,647.02L690.07,647.02L690.57,647.02L691.07,647.02L691.57,647.02L692.08,647.02L692.58,647.02L693.08,647.24L693.58,647.24L694.08,647.24L694.58,647.24L695.08,647.24L695.58,647.24L696.09,647.24L696.59,647.24L697.09,647.24L697.59,647.24L698.09,647.24L698.59,647.24L699.09,647.24L699.59,647.66L700.1,647.66L700.6,647.66L701.1,647.66L701.6,647.66L702.1,647.66L702.6,647.66L703.1,647.66L703.6,647.66L704.1,647.66L704.61,647.66L705.11,647.66L705.61,647.66L706.11,647.66L706.61,647.66L707.11,647.66L707.61,647.66L708.11,647.66L708.62,647.66L709.12,647.66L709.62,647.66L710.12,647.66L710.62,647.66L711.12,647.66L711.62,647.66L712.12,647.66L712.63,647.66L713.13,647.66L713.63,647.66L714.13,647.75L714.63,647.75L715.13,647.75L715.63,647.75L716.13,647.75L716.63,647.75L717.14,647.75L717.64,647.75L718.14,647.75L718.64,647.75L719.14,647.75L719.64,647.75L720.14,647.75L720.64,647.75L721.15,647.75L721.65,647.75L722.15,647.75L722.65,647.75L723.15,647.75L723.65,647.75L724.15,647.75L724.65,647.75L725.15,647.75L725.66,647.75L726.16,647.75L726.66,647.75L727.16,647.75L727.66,647.75L728.16,647.75L728.66,647.75L729.16,647.75L729.67,647.75L730.17,647.75L730.67,647.75L731.17,647.75L731.67,647.75L732.17,647.75L732.67,647.75L733.17,647.75L733.68,647.75L734.18,647.75L734.68,647.75L735.18,647.75L735.68,647.75L736.18,647.75L736.68,647.75L737.18,647.75L737.68,647.75L738.19,647.75L738.69,647.75L739.19,647.81L739.69,648.24L740.19,650.73L740.69,650.73L741.19,650.73L741.69,650.73L742.2,650.73L742.7,650.73L743.2,650.73L743.7,650.73L744.2,650.76L744.7,650.76L745.2,650.76L745.7,650.76L746.2,650.76L746.71,650.76L747.21,650.76L747.71,650.76L748.21,650.77L748.71,650.77L749.21,650.77L749.71,650.77L750.21,650.77L750.72,650.77L751.22,650.77L751.72,650.77L752.22,650.77L752.72,650.77L753.22,650.77L753.72,650.77L754.22,650.77L754.73,650.77L755.23,650.77L755.73,650.77L756.23,650.77L756.73,650.8L757.23,650.83L757.73,650.83L758.23,650.83L758.73,650.83L759.24,650.83L759.74,650.83L760.24,650.83L760.74,650.83L761.24,650.83L761.74,650.83L762.24,650.83L762.74,650.83L763.25,650.83L763.75,650.83L764.25,650.83L764.75,650.83L765.25,650.83L765.75,650.92L766.25,652L766.75,655.51L767.26,658.5L767.76,658.5L768.26,658.5L768.76,658.5L769.26,658.5L769.76,658.5L770.26,658.5L770.76,658.5L771.26,658.5L771.77,658.5L772.27,658.5L772.77,658.5L773.27,658.5L773.77,658.5L774.27,658.5L774.77,658.5L775.27,658.5L775.78,658.51L776.28,658.51L776.78,658.51L777.28,658.51L777.78,658.51L778.28,658.51L778.78,658.51L779.28,658.51L779.78,658.51L780.29,658.51L780.79,658.51L781.29,658.51L781.79,660.93L782.29,661.03L782.79,661.03L783.29,661.03L783.79,661.03L784.3,661.03L784.8,662.58L785.3,662.58L785.8,662.58L786.3,662.58L786.8,662.58L787.3,662.58L787.8,662.58L788.31,662.58L788.81,662.58L789.31,662.58L789.81,662.58L790.31,662.58L790.81,662.58L791.31,662.58L791.81,662.58L792.31,662.58L792.82,662.58L793.32,662.58L793.82,662.58L794.32,662.58L794.82,662.58L795.32,662.58L795.82,662.58L796.32,662.58L796.83,662.58L797.33,662.58L797.83,662.58L798.33,662.58L798.83,662.58L799.33,662.58L799.83,662.58L800.33,662.58L800.84,662.58L801.34,662.58L801.84,662.58L802.34,662.58L802.84,662.58L803.34,662.58L803.84,662.58L804.34,662.59L804.84,662.59L805.35,662.59L805.85,662.59L806.35,662.59L806.85,662.59L807.35,662.59L807.85,662.59L808.35,662.59L808.85,662.59L809.36,662.59L809.86,662.59L810.36,662.59L810.86,662.59L811.36,662.59L811.86,662.59L812.36,662.59L812.86,662.63L813.36,662.63L813.87,662.63L814.37,662.63L814.87,662.63L815.37,662.63L815.87,662.63L816.37,662.63L816.87,662.63L817.37,662.63L817.88,662.63L818.38,662.63L818.88,662.63L819.38,662.63L819.88,662.63L820.38,662.63L820.88,662.63L821.38,662.63L821.89,662.63L822.39,662.63L822.89,662.63L823.39,662.63L823.89,662.63L824.39,662.63L824.89,662.63L825.39,662.63L825.89,662.63L826.4,662.63L826.9,662.63L827.4,662.63L827.9,662.63L828.4,662.63L828.9,662.65L829.4,662.65L829.9,662.65L830.41,662.65L830.91,662.65L831.41,662.65L831.91,662.65L832.41,662.65L832.91,662.65L833.41,662.65L833.91,662.65L834.42,662.65L834.92,662.65L835.42,662.65L835.92,662.65L836.42,662.65L836.92,662.65L837.42,662.65L837.92,662.65L838.42,662.65L838.93,662.65L839.43,662.65L839.93,662.65L840.43,662.65L840.93,662.65L841.43,662.67L841.93,662.68L842.43,662.68L842.94,662.68L843.44,662.68L843.94,662.68L844.44,662.68L844.94,662.68L845.44,662.68L845.94,662.68L846.44,662.68L846.94,662.68L847.45,662.68L847.95,662.68L848.45,664.43L848.95,664.43L849.45,664.43L849.95,665.15L850.45,666.27L850.95,666.27L851.46,666.27L851.96,666.27L852.46,666.27L852.96,666.27L853.46,666.27L853.96,666.27L854.46,666.27L854.96,666.27L855.47,666.27L855.97,666.27L856.47,666.27L856.97,666.27L857.47,666.27L857.97,666.27L858.47,666.27L858.97,666.27L859.47,666.27L859.98,666.27L860.48,666.27L860.98,666.27L861.48,666.27L861.98,666.27L862.48,669.1L862.98,669.51L863.48,669.51L863.99,669.51L864.49,669.51L864.99,669.51L865.49,669.51L865.99,669.51L866.49,669.51L866.99,669.51L867.49,669.51L868,669.51L868.5,669.51L869,669.51L869.5,669.51L870,669.51L870.5,669.51L871,669.51L871.5,669.51L872,669.51L872.51,669.51L873.01,669.51L873.51,669.51L874.01,669.51L874.51,669.51L875.01,669.51L875.51,669.53L876.01,669.54L876.52,669.55L877.02,669.55L877.52,669.55L878.02,669.55L878.52,669.56L879.02,669.59L879.52,669.59L880.02,669.59L880.52,669.59L881.03,669.59L881.53,669.59L882.03,669.59L882.53,669.59L883.03,669.59L883.53,669.59L884.03,669.59L884.53,669.59L885.04,669.59L885.54,669.59L886.04,669.59L886.54,672.39L887.04,677.38L887.54,679.35L888.04,679.35L888.54,679.35L889.05,679.35L889.55,679.35L890.05,679.35L890.55,679.35L891.05,679.35L891.55,679.35L892.05,679.35L892.55,679.35L893.05,679.35L893.56,679.35L894.06,679.35L894.56,679.35L895.06,679.35L895.56,679.35L896.06,679.35L896.56,679.35L897.06,679.35L897.57,679.35L898.07,679.35L898.57,679.35L899.07,679.35L899.57,679.35L900.07,679.35L900.57,679.37L901.07,679.37L901.58,679.37L902.08,679.37L902.58,679.5L903.08,679.5L903.58,679.5L904.08,679.5L904.58,679.5L905.08,679.5L905.58,679.5L906.09,679.5L906.59,679.5L907.09,679.5L907.59,679.5L908.09,679.5L908.59,679.5L909.09,679.5L909.59,679.5L910.1,679.5L910.6,679.5L911.1,679.5L911.6,679.5L912.1,679.5L912.6,679.5L913.1,679.5L913.6,679.5L914.1,679.5L914.61,679.5L915.11,679.5L915.61,679.5L916.11,679.5L916.61,679.5L917.11,679.5L917.61,679.5L918.11,679.5L918.62,679.5L919.12,679.5L919.62,679.5L920.12,679.5L920.62,679.5L921.12,679.5L921.62,679.5L922.12,679.5L922.63,679.5L923.13,679.5L923.63,679.5L924.13,679.5L924.63,679.5L925.13,679.53L925.63,679.54L926.13,679.54L926.63,679.55L927.14,679.55L927.64,679.55L928.14,679.55L928.64,679.55L929.14,679.55L929.64,679.55L930.14,679.55L930.64,679.55L931.15,679.55L931.65,679.55L932.15,679.55L932.65,679.55L933.15,679.67L933.65,679.82L934.15,679.82L934.65,679.82L935.16,679.82L935.66,679.82L936.16,679.82L936.66,679.82L937.16,679.82L937.66,679.82L938.16,679.82L938.66,679.82L939.16,679.82L939.67,679.82L940.17,679.82L940.67,679.82L941.17,679.82L941.67,679.82L942.17,679.82L942.67,679.82L943.17,679.82L943.68,679.82L944.18,679.82L944.68,679.82L945.18,679.82L945.68,679.82L946.18,679.82L946.68,679.82L947.18,679.82L947.68,679.82L948.19,679.82L948.69,679.82L949.19,679.82L949.69,679.82L950.19,679.82L950.69,679.82L951.19,679.82L951.69,679.82L952.2,680.52L952.7,680.52L953.2,680.52L953.7,680.52L954.2,680.61L954.7,680.61L955.2,680.61L955.7,680.61L956.21,680.61L956.71,680.61L957.21,680.61L957.71,680.61L958.21,680.61L958.71,680.61L959.21,680.62L959.71,680.62L960.21,680.62L960.72,680.62L961.22,680.62L961.72,680.62L962.22,680.62L962.72,680.62L963.22,680.62L963.72,680.62L964.22,680.62L964.73,680.62L965.23,680.62L965.73,680.62L966.23,680.62L966.73,680.62L967.23,680.62L967.73,680.62L968.23,680.62L968.73,680.62L969.24,680.62L969.74,680.62L970.24,680.62L970.74,680.62L971.24,680.62L971.74,680.62L972.24,680.62L972.74,680.62L973.25,681.5L973.75,686.57L974.25,686.57L974.75,686.57L975.25,686.57L975.75,686.57L976.25,686.57L976.75,686.57L977.26,686.57L977.76,686.57L978.26,686.57L978.76,686.57L979.26,686.57L979.76,686.57L980.26,686.57L980.76,686.57L981.26,686.57L981.77,686.57L982.27,686.57L982.77,686.57L983.27,686.57L983.77,686.57L984.27,686.57L984.77,686.57L985.27,686.57L985.78,686.57L986.28,686.57L986.78,686.57L987.28,687.46L987.78,687.88L988.28,687.88L988.78,688.93L989.28,689.46L989.79,689.46L990.29,689.46L990.79,689.46L991.29,689.46L991.79,689.46L992.29,689.46L992.79,689.46L993.29,689.46L993.79,689.46L994.3,689.46L994.8,689.46L995.3,689.46L995.8,689.46L996.3,689.46L996.8,689.46L997.3,689.46L997.8,689.46L998.31,689.46L998.81,689.46L999.31,689.46L999.81,689.46L1000.3,689.46L1000.8,689.46L1001.3,689.46L1001.8,689.46L1002.3,689.46L1002.8,689.46L1003.3,689.46L1003.8,689.46L1004.3,689.47L1004.8,689.47L1005.3,689.47L1005.8,689.47L1006.3,689.47L1006.8,689.47L1007.3,689.47L1007.8,689.47L1008.3,689.47L1008.8,689.47L1009.3,689.47L1009.8,689.47L1010.3,689.47L1010.8,689.47L1011.3,689.47L1011.8,689.47L1012.3,689.47L1012.8,689.47L1013.3,689.47L1013.8,689.47L1014.3,689.47L1014.8,689.48L1015.3,689.48L1015.8,689.48L1016.3,689.48L1016.8,689.48L1017.4,689.48L1017.9,689.48L1018.4,689.48L1018.9,689.48L1019.4,689.48L1019.9,689.48L1020.4,689.48L1020.9,689.48L1021.4,689.48L1021.9,689.48L1022.4,689.48L1022.9,689.48L1023.4,689.48L1023.9,689.48L1024.4,689.48L1024.9,689.48L1025.4,689.51L1025.9,689.51L1026.4,689.51L1026.9,689.51L1027.4,690.47L1027.9,692.24L1028.4,692.24L1028.9,692.24L1029.4,692.24L1029.9,692.24L1030.4,692.24L1030.9,692.24L1031.4,692.24L1031.9,692.24L1032.4,692.24L1032.9,692.24L1033.4,692.24L1033.9,692.24L1034.4,692.24L1034.9,692.24L1035.4,692.24L1035.9,692.24L1036.4,692.24L1036.9,692.24L1037.4,692.24L1037.9,692.24L1038.4,692.24L1038.9,692.24L1039.4,692.24L1039.9,692.24L1040.4,692.24L1040.9,692.24L1041.4,692.24L1041.9,692.24L1042.4,692.24L1042.9,692.24L1043.4,692.26L1043.9,692.29L1044.4,692.33L1044.9,692.37L1045.4,692.37L1045.9,692.37L1046.4,694.23L1046.9,695.91L1047.4,695.91L1047.9,695.91L1048.4,695.91L1048.9,695.91L1049.4,695.91L1049.9,695.91L1050.4,695.91L1050.9,695.91L1051.4,695.91L1051.9,695.91L1052.4,695.91L1052.9,695.91L1053.4,695.91L1053.9,698.83L1054.4,698.83L1054.9,698.83L1055.4,698.83L1055.9,698.83L1056.4,698.83L1056.9,698.83L1057.4,698.83L1057.9,698.83L1058.4,698.83L1058.9,698.83L1059.5,698.83L1060,698.83L1060.5,698.83L1061,698.83L1061.5,698.83L1062,698.83L1062.5,698.83L1063,698.83L1063.5,699.51L1064,699.51L1064.5,699.51L1065,699.51L1065.5,699.51L1066,699.51L1066.5,699.51L1067,699.51L1067.5,699.51L1068,699.51L1068.5,699.51L1069,700.86L1069.5,700.86L1070,700.86L1070.5,700.86L1071,700.86L1071.5,700.86L1072,700.86L1072.5,700.86L1073,700.86L1073.5,701.44L1074,701.44L1074.5,701.44L1075,701.44L1075.5,701.44L1076,701.44L1076.5,701.44L1077,701.44L1077.5,701.44L1078,701.44L1078.5,701.44L1079,701.44L1079.5,701.44L1080,701.44" style="fill:none;stroke:#F15A60;stroke-width:1.875" />
<path d="M67.088,47.727L67.589,60.782L68.09,76.151L68.591,86.068L69.092,97.999L69.593,103.42L70.095,121.62L70.596,121.62L71.097,121.62L71.598,121.63L72.099,128.59L72.601,128.59L73.102,128.59L73.603,128.59L74.104,128.59L74.605,128.63L75.107,128.71L75.608,134.47L76.109,134.47L76.61,134.47L77.111,134.47L77.613,134.47L78.114,134.47L78.615,134.47L79.116,134.48L79.617,134.48L80.119,134.48L80.62,134.48L81.121,134.48L81.622,134.48L82.123,134.48L82.625,134.48L83.126,134.48L83.627,134.48L84.128,134.48L84.629,134.48L85.13,134.48L85.632,134.48L86.133,134.48L86.634,134.48L87.135,134.54L87.636,134.54L88.138,134.54L88.639,134.54L89.14,134.54L89.641,134.54L90.142,134.54L90.644,134.54L91.145,134.54L91.646,134.54L92.147,134.67L92.648,134.67L93.15,134.67L93.651,134.67L94.152,134.67L94.653,134.67L95.154,134.67L95.656,134.67L96.157,134.67L96.658,134.67L97.159,134.88L97.66,134.92L98.162,144.21L98.663,161.74L99.164,172.39L99.665,174.13L100.17,186.65L100.67,209.91L101.17,235.64L101.67,251.31L102.17,274.32L102.67,294.34L103.17,294.86L103.67,303.74L104.18,303.87L104.68,303.87L105.18,303.87L105.68,303.87L106.18,303.87L106.68,303.87L107.18,303.87L107.68,303.87L108.19,303.87L108.69,303.87L109.19,304.09L109.69,307.64L110.19,307.64L110.69,307.64L111.19,307.64L111.69,307.64L112.19,307.64L112.7,307.64L113.2,307.64L113.7,307.64L114.2,307.64L114.7,307.64L115.2,307.64L115.7,307.64L116.2,307.64L116.71,307.64L117.21,307.64L117.71,307.64L118.21,307.64L118.71,307.64L119.21,307.64L119.71,307.64L120.21,307.64L120.72,307.64L121.22,307.64L121.72,307.64L122.22,307.64L122.72,307.64L123.22,307.64L123.72,307.64L124.22,307.64L124.72,307.64L125.23,307.64L125.73,307.64L126.23,307.64L126.73,307.64L127.23,307.64L127.73,307.64L128.23,307.64L128.73,308.04L129.24,308.1L129.74,308.36L130.24,308.62L130.74,319.54L131.24,319.59L131.74,325.26L132.24,331.46L132.74,332.79L133.25,341.62L133.75,363.23L134.25,378.49L134.75,397.45L135.25,397.45L135.75,412.27L136.25,412.27L136.75,412.27L137.25,412.27L137.76,412.27L138.26,412.27L138.76,412.27L139.26,412.27L139.76,412.27L140.26,412.27L140.76,412.27L141.26,412.27L141.77,412.27L142.27,412.27L142.77,412.27L143.27,412.27L143.77,412.27L144.27,412.27L144.77,412.27L145.27,412.27L145.77,412.27L146.28,412.27L146.78,412.27L147.28,412.27L147.78,412.27L148.28,412.27L148.78,412.27L149.28,412.27L149.78,412.27L150.29,412.27L150.79,412.27L151.29,412.27L151.79,412.27L152.29,412.27L152.79,412.27L153.29,412.27L153.79,412.27L154.3,412.27L154.8,412.27L155.3,412.27L155.8,412.27L156.3,412.27L156.8,412.27L157.3,412.27L157.8,412.27L158.3,412.27L158.81,412.27L159.31,412.35L159.81,412.49L160.31,412.79L160.81,444.65L161.31,444.93L161.81,450.57L162.31,492.88L162.82,492.88L163.32,493.38L163.82,510.05L164.32,523.55L164.82,534.14L165.32,534.16L165.82,534.29L166.32,534.29L166.83,550.19L167.33,550.19L167.83,550.22L168.33,550.33L168.83,550.33L169.33,550.34L169.83,550.34L170.33,550.34L170.83,559.96L171.34,560.97L171.84,571.4L172.34,581.79L172.84,581.79L173.34,581.79L173.84,581.79L174.34,581.79L174.84,581.79L175.35,581.79L175.85,581.79L176.35,581.82L176.85,581.82L177.35,581.83L177.85,581.86L178.35,581.86L178.85,582.06L179.35,582.06L179.86,582.06L180.36,582.06L180.86,582.06L181.36,582.06L181.86,587.13L182.36,587.13L182.86,587.13L183.36,587.13L183.87,587.13L184.37,587.13L184.87,587.13L185.37,587.13L185.87,587.13L186.37,587.14L186.87,587.14L187.37,587.14L187.88,587.14L188.38,587.14L188.88,587.14L189.38,587.14L189.88,587.14L190.38,587.14L190.88,587.14L191.38,587.14L191.88,587.14L192.39,587.14L192.89,587.14L193.39,587.14" style="fill:none;stroke:#7AC36A;stroke-width:1.875;stroke-dasharray:7.5,2.5" />
<path d="M67.088,47.699L67.589,55.315L68.09,57.308L68.591,58.644L69.092,60.596L69.593,62.15L70.095,63.652L70.596,65.269L71.097,66.4L71.598,68.162L72.099,69.797L72.601,71.31L73.102,72.734L73.603,74.507L74.104,76.08L74.605,77.734L75.107,79.319L75.608,80.347L76.109,81.444L76.61,83.015L77.111,84.257L77.613,85.533L78.114,86.846L78.615,88.602L79.116,90.06L79.617,91.044L80.119,92.675L80.62,94.421L81.121,95.362L81.622,97.234L82.123,98.005L82.625,100.16L83.126,101.17L83.627,102.62L84.128,103.87L84.629,104.99L85.13,106.23L85.632,108.02L86.133,108.96L86.634,110.13L87.135,111.38L87.636,112.78L88.138,114.48L88.639,115.96L89.14,117.14L89.641,118.57L90.142,119.44L90.644,121.27L91.145,122.84L91.646,123.31L92.147,124.85L92.648,126.17L93.15,127.21L93.651,128.43L94.152,130.17L94.653,131.34L95.154,132.74L95.656,133.88L96.157,134.94L96.658,136.18L97.159,137.94L97.66,138.76L98.162,139.9L98.663,141.48L99.164,142.49L99.665,143.56L100.17,144.61L100.67,145.72L101.17,147.19L101.67,148.17L102.17,149.74L102.67,151.27L103.17,152.75L103.67,154.46L104.18,155.93L104.68,156.94L105.18,158.1L105.68,159.33L106.18,160.09" style="fill:none;stroke:#5A9BD4;stroke-width:1.875;stroke-dasharray:2.5,2.5" />
<path d="M67.088,53.24L67.589,66.785L68.09,77.754L68.591,88.934L69.092,110.94L69.593,126.21L70.095,151.15L70.596,174.11L71.097,177.96L71.598,210.23L72.099,227.04L72.601,234L73.102,245.39L73.603,245.34L74.104,250.19L74.605,291.87L75.107,297.27L75.608,297.27L76.109,297.27L76.61,309.74L77.111,309.82L77.613,310.49L78.114,315.22L78.615,319.61L79.116,319.62L79.617,323.91L80.119,329.39L80.62,330.42L81.121,337.28L81.622,347.63L82.123,347.77L82.625,347.79L83.126,346.67L83.627,346.03L84.128,346.03L84.629,347.03L85.13,347.03L85.632,349.79L86.133,352.08L86.634,352.08L87.135,351.74L87.636,355.09L88.138,358.45L88.639,358.45L89.14,358.45L89.641,358.45L90.142,358.47L90.644,358.57L91.145,358.68L91.646,358.68L92.147,358.68L92.648,358.69L93.15,358.6L93.651,358.52L94.152,358.51L94.653,358.56L95.154,361.44L95.656,363.52L96.157,365.79L96.658,365.79L97.159,365.8L97.66,366.45L98.162,367.49L98.663,377.03L99.164,377.03L99.665,381.33L100.17,381.33L100.67,381.38L101.17,379.47L101.67,379.47L102.17,379.47L102.67,379.57L103.17,379.52L103.67,379.47L104.18,379.47L104.68,379.47L105.18,379.47L105.68,379.47L106.18,379.47L106.68,379.47L107.18,379.47L107.68,379.66L108.19,379.66L108.69,379.66L109.19,381.37L109.69,382.46L110.19,413.3L110.69,411.95L111.19,416.98L111.69,419.3L112.19,420.8L112.7,420.8L113.2,421.67L113.7,421.91L114.2,422.68L114.7,422.68L115.2,422.68L115.7,422.68L116.2,422.68L116.71,422.68L117.21,422.68L117.71,422.68L118.21,422.68L118.71,422.68L119.21,422.68L119.71,422.68L120.21,422.68L120.72,422.68L121.22,422.98L121.72,423.28L122.22,424.03L122.72,424.45L123.22,424.45L123.72,423.93L124.22,425.83L124.72,427.78L125.23,427.78L125.73,427.78L126.23,428.17L126.73,428.56L127.23,428.56L127.73,428.75L128.23,429.32L128.73,429.07L129.24,428.67L129.74,428.28L130.24,428.28L130.74,427.93L131.24,427.58L131.74,427.58L132.24,427.58L132.74,427.66L133.25,427.66L133.75,427.61L134.25,427.61L134.75,427.62L135.25,427.68L135.75,427.68L136.25,427.61L136.75,427.63L137.25,427.63L137.76,427.63L138.26,428.57L138.76,428.56L139.26,428.29L139.76,430.62" style="fill:none;stroke:#FAA75B;stroke-width:1.875;stroke-dasharray:1.25,1.25" />
<path d="M1055,694.3L1080,694.3" style="fill:none;stroke:#F15A60;stroke-width:1.875" />
<text x="959.12" y="-687.85" transform="scale(1, -1)"
	style="font-family:Helvetica;font-weight:normal;font-style:normal;font-size:12pt">Consul v0.6.4</text>
<path d="M1055,680L1080,680" style="fill:none;stroke:#7AC36A;stroke-width:1.875;stroke-dasharray:7.5,2.5" />
<text x="1002.5" y="-673.56" transform="scale(1, -1)"
	style="font-family:Helvetica;font-weight:normal;font-style:normal;font-size:12pt">etcd v2</text>
<path d="M1055,665.71L1080,665.71" style="fill:none;stroke:#5A9BD4;stroke-width:1.875;stroke-dasharray:2.5,2.5" />
<text x="1002.5" y="-659.26" transform="scale(1, -1)"
	style="font-family:Helvetica;font-weight:normal;font-style:normal;font-size:12pt">etcd v3</text>
<path d="M1055,651.41L1080,651.41" style="fill:none;stroke:#FAA75B;stroke-width:1.875;stroke-dasharray:1.25,1.25" />
<text x="934.1" y="-644.97" transform="scale(1, -1)"
	style="font-family:Helvetica;font-weight:normal;font-style:normal;font-size:12pt">Zookeeper v3.4.8</text>
</g>
</svg>
