<?xml version="1.0"?>
<!-- Generated by SVGo and Plotinum VG -->
<svg width="12in" height="8in"
	xmlns="http://www.w3.org/2000/svg"
	xmlns:xlink="http://www.w3.org/1999/xlink">
<g transform="scale(1, -1) translate(0, -720)">
<path d="M0,0L1080,0L1080,720L0,720Z" style="fill:#FFFFFF" />
<text x="250.71" y="-706.41" transform="scale(1, -1)"
	style="font-family:Helvetica;font-weight:normal;font-style:normal;font-size:12pt">Write 2M keys, 1000-client (etcdv3 100-conns), 8-byte key, 256-byte value, Throughput</text>
<text x="551.76" y="-4.965" transform="scale(1, -1)"
	style="font-family:Helvetica;font-weight:normal;font-style:normal;font-size:12pt">Second</text>
<text x="70.912" y="-19.142" transform="scale(1, -1)"
	style="font-family:Helvetica;font-weight:normal;font-style:normal;font-size:10pt">0</text>
<text x="362.36" y="-19.142" transform="scale(1, -1)"
	style="font-family:Helvetica;font-weight:normal;font-style:normal;font-size:10pt">600</text>
<text x="657.29" y="-19.142" transform="scale(1, -1)"
	style="font-family:Helvetica;font-weight:normal;font-style:normal;font-size:10pt">1200</text>
<text x="955.69" y="-19.142" transform="scale(1, -1)"
	style="font-family:Helvetica;font-weight:normal;font-style:normal;font-size:10pt">1800</text>
<path d="M74.388,30.467L74.388,40.467" style="fill:none;stroke:#000000;stroke-width:0.625" />
<path d="M372.79,30.467L372.79,40.467" style="fill:none;stroke:#000000;stroke-width:0.625" />
<path d="M671.19,30.467L671.19,40.467" style="fill:none;stroke:#000000;stroke-width:0.625" />
<path d="M969.59,30.467L969.59,40.467" style="fill:none;stroke:#000000;stroke-width:0.625" />
<path d="M173.85,35.468L173.85,40.467" style="fill:none;stroke:#000000;stroke-width:0.625" />
<path d="M273.32,35.468L273.32,40.467" style="fill:none;stroke:#000000;stroke-width:0.625" />
<path d="M472.26,35.468L472.26,40.467" style="fill:none;stroke:#000000;stroke-width:0.625" />
<path d="M571.72,35.468L571.72,40.467" style="fill:none;stroke:#000000;stroke-width:0.625" />
<path d="M770.66,35.468L770.66,40.467" style="fill:none;stroke:#000000;stroke-width:0.625" />
<path d="M870.12,35.468L870.12,40.467" style="fill:none;stroke:#000000;stroke-width:0.625" />
<path d="M1069.1,35.468L1069.1,40.467" style="fill:none;stroke:#000000;stroke-width:0.625" />
<path d="M74.388,40.467L1080,40.467" style="fill:none;stroke:#000000;stroke-width:0.625" />
<g transform="rotate(90)">
<text x="335.88" y="13.59" transform="scale(1, -1)"
	style="font-family:Helvetica;font-weight:normal;font-style:normal;font-size:12pt">Throughput</text>
</g>
<text x="46.705" y="-41.661" transform="scale(1, -1)"
	style="font-family:Helvetica;font-weight:normal;font-style:normal;font-size:10pt">0</text>
<text x="18.555" y="-168.77" transform="scale(1, -1)"
	style="font-family:Helvetica;font-weight:normal;font-style:normal;font-size:10pt">1e+04</text>
<text x="18.555" y="-295.89" transform="scale(1, -1)"
	style="font-family:Helvetica;font-weight:normal;font-style:normal;font-size:10pt">2e+04</text>
<text x="18.555" y="-423" transform="scale(1, -1)"
	style="font-family:Helvetica;font-weight:normal;font-style:normal;font-size:10pt">3e+04</text>
<text x="18.555" y="-550.11" transform="scale(1, -1)"
	style="font-family:Helvetica;font-weight:normal;font-style:normal;font-size:10pt">4e+04</text>
<text x="18.555" y="-677.23" transform="scale(1, -1)"
	style="font-family:Helvetica;font-weight:normal;font-style:normal;font-size:10pt">5e+04</text>
<path d="M57.13,47.03L67.13,47.03" style="fill:none;stroke:#000000;stroke-width:0.625" />
<path d="M57.13,174.14L67.13,174.14" style="fill:none;stroke:#000000;stroke-width:0.625" />
<path d="M57.13,301.26L67.13,301.26" style="fill:none;stroke:#000000;stroke-width:0.625" />
<path d="M57.13,428.37L67.13,428.37" style="fill:none;stroke:#000000;stroke-width:0.625" />
<path d="M57.13,555.48L67.13,555.48" style="fill:none;stroke:#000000;stroke-width:0.625" />
<path d="M57.13,682.59L67.13,682.59" style="fill:none;stroke:#000000;stroke-width:0.625" />
<path d="M62.13,110.59L67.13,110.59" style="fill:none;stroke:#000000;stroke-width:0.625" />
<path d="M62.13,237.7L67.13,237.7" style="fill:none;stroke:#000000;stroke-width:0.625" />
<path d="M62.13,364.81L67.13,364.81" style="fill:none;stroke:#000000;stroke-width:0.625" />
<path d="M62.13,491.92L67.13,491.92" style="fill:none;stroke:#000000;stroke-width:0.625" />
<path d="M62.13,619.04L67.13,619.04" style="fill:none;stroke:#000000;stroke-width:0.625" />
<path d="M67.13,47.03L67.13,701.44" style="fill:none;stroke:#000000;stroke-width:0.625" />
<path d="M74.388,151.53L74.885,173.28L75.382,118.11L75.88,74.537L76.377,72.122L76.874,70.94L77.372,72.465L77.869,84.935L78.366,81.706L78.864,82.596L79.361,83.461L79.858,82.393L80.356,85.38L80.853,97.468L81.35,102.31L81.848,111.21L82.345,127.96L82.842,151.94L83.34,169.95L83.837,167.38L84.334,171.55L84.832,172.45L85.329,171.89L85.826,170.27L86.324,167.18L86.821,166.9L87.318,164.74L87.816,172.69L88.313,173.18L88.81,178.3L89.308,163.15L89.805,151.54L90.302,151.77L90.8,157.33L91.297,159.41L91.794,156.02L92.292,149.06L92.789,157.36L93.286,169.87L93.784,156.55L94.281,158.65L94.778,162.26L95.276,172.06L95.773,179.32L96.27,162.52L96.768,163.24L97.265,187.76L97.762,160.41L98.26,159.04L98.757,169.24L99.254,158.89L99.752,178.41L100.25,169.87L100.75,163.06L101.24,185.09L101.74,159.09L102.24,175.85L102.74,147.46L103.23,173.35L103.73,156.68L104.23,168.55L104.72,170.33L105.22,96.121L105.72,71.359L106.22,73.558L106.71,70.94L107.21,71.817L107.71,83.028L108.21,81.745L108.7,81.287L109.2,101.45L109.7,98.549L110.2,97.163L110.69,92.397L111.19,124.89L111.69,120.72L112.19,121.42L112.68,171.82L113.18,167.99L113.68,160.82L114.17,168.24L114.67,155.13L115.17,174.52L115.67,154.8L116.16,172.48L116.66,149.24L117.16,167.25L117.66,184.88L118.15,151.16L118.65,163.11L119.15,145.47L119.65,148.47L120.14,166.17L120.64,144.77L121.14,172.86L121.63,158.37L122.13,138.36L122.63,165.72L123.13,159.7L123.62,147.17L124.12,162.74L124.62,181.17L125.12,133.75L125.61,179.02L126.11,184.54L126.61,136.45L127.11,182.84L127.6,187.07L128.1,149.42L128.6,178.43L129.09,184.53L129.59,148.28L130.09,160.81L130.59,186.03L131.08,147.89L131.58,152.79L132.08,155.64L132.58,144.98L133.07,128.17L133.57,130.06L134.07,148.39L134.57,174.46L135.06,94.151L135.56,100.44L136.06,71.614L136.55,68.728L137.05,71.664L137.55,84.35L138.05,87.884L138.54,88.532L139.04,84.071L139.54,67.266L140.04,167.91L140.53,135.48L141.03,135.04L141.53,147.32L142.03,137.55L142.52,150.75L143.02,148.03L143.52,175.68L144.01,139.94L144.51,176.8L145.01,127.14L145.51,174.83L146,136.72L146.5,172.83L147,144.87L147.5,138.87L147.99,136.58L148.49,175.11L148.99,170.18L149.49,135.55L149.98,154.03L150.48,115.94L150.98,154.8L151.47,151.02L151.97,151.97L152.47,130.61L152.97,113.51L153.46,152.22L153.96,158.61L154.46,175.82L154.96,168.78L155.45,101.45L155.95,170.27L156.45,174.33L156.95,178.38L157.44,169.68L157.94,126.44L158.44,121.56L158.93,138.07L159.43,137.59L159.93,132.55L160.43,128.93L160.92,124.86L161.42,122.8L161.92,129.96L162.42,136.48L162.91,157.12L163.41,126.13L163.91,122.01L164.41,159.59L164.9,91.99L165.4,72.465L165.9,71.563L166.39,65.271L166.89,81.134L167.39,55.661L167.89,47.03L168.38,47.094L168.88,53.767L169.38,57.072L169.88,51.085L170.37,59.258L170.87,69.148L171.37,60.847L171.87,56.03L172.36,50.64L172.86,50.92L173.36,50.348L173.85,50.576L174.35,50.411L174.85,51.148L175.35,50.335L175.84,49.763L176.34,51.225L176.84,49.534L177.34,51.161L177.83,49.738L178.33,48.771L178.83,47.043L179.33,47.03L179.82,47.03L180.32,47.844L180.82,47.03L181.31,47.03L181.81,47.03L182.31,47.03L182.81,47.03L183.3,47.856L183.8,47.03L184.3,47.03L184.8,47.043L185.29,47.03L185.79,47.03L186.29,47.03L186.79,47.831L187.28,47.03L187.78,49.521L188.28,50.348L188.77,49.725L189.27,50.411L189.77,49.534L190.27,51.136L190.76,48.962L191.26,50.386L191.76,50.335L192.26,50.31L192.75,48.721L193.25,50.043L193.75,49.992L194.25,49.661L194.74,50.31L195.24,49.725L195.74,49.623L196.23,50.31L196.73,48.759L197.23,50.297L197.73,49.216L198.22,50.106L198.72,49.509L199.22,48.746L199.72,49.496L200.21,50.004L200.71,50.093L201.21,49.496L201.71,48.771L202.2,49.445L202.7,49.725L203.2,49.585L203.69,49.509L204.19,48.784L204.69,50.221L205.19,48.149L205.68,49.826L206.18,50.081L206.68,48.784L207.18,49.496L207.67,49.534L208.17,49.127L208.67,50.081L209.17,49.496L209.66,48.009L210.16,50.271L210.66,49.687L211.15,48.225L211.65,50.043L212.15,49.534L212.65,48.746L213.14,49.534L213.64,49.127L214.14,48.708L214.64,49.267L215.13,49.521L215.63,49.56L216.13,48.721L216.63,49.115L217.12,48.721L217.62,49.28L218.12,49.496L218.61,49.56L219.11,48.721L219.61,49.115L220.11,48.721L220.6,49.28L221.1,49.877L221.6,56.03L222.1,50.36L222.59,51.53L223.09,52.814L223.59,52.331L224.09,51.708L224.58,53.055L225.08,51.517L225.58,53.093L226.07,52.013L226.57,51.708L227.07,52.165L227.57,51.581L228.06,50.882L228.56,51.339L229.06,52.432L229.56,51.797L230.05,51.619L230.55,51.784L231.05,50.398L231.55,52.458L232.04,50.97L232.54,52.572L233.04,51.911L233.53,50.983L234.03,52.598L234.53,51.085L235.03,53.996L235.52,51.898L236.02,51.848L236.52,52.623L237.02,52.496L237.51,51.695L238.01,51.924L238.51,53.271L239.01,52.051L239.5,51.301L240,52.992L240.5,52.585L240.99,52.356L241.49,50.513L241.99,52.534L242.49,53.386L242.98,51.784L243.48,53.17L243.98,51.365L244.48,52.547L244.97,51.746L245.47,51.975L245.97,53.373L246.47,52.381L246.96,50.564L247.46,52.305L247.96,52.598L248.45,52.636L248.95,52.445L249.45,52.343L249.95,47.03L250.44,47.03L250.94,47.03L251.44,59.716L251.94,47.03L252.43,47.03L252.93,47.03L253.43,47.055L253.93,47.03L254.42,47.03L254.92,47.03L255.42,47.831L255.91,47.03L256.41,47.03L256.91,47.03L257.41,47.03L257.9,48.682L258.4,47.03L258.9,47.03L259.4,47.856L259.89,54.466L260.39,53.614L260.89,52.814L261.39,56.106L261.88,54.453L262.38,52L262.88,56.119L263.38,53.78L263.87,54.314L264.37,54.466L264.87,51.987L265.36,56.945L265.86,52.801L266.36,49.521L266.86,51.161L267.35,51.148L267.85,50.322L268.35,51.161L268.85,49.839L269.34,50.335L269.84,50.335L270.34,51.174L270.84,49.814L271.33,50.348L271.83,49.509L272.33,50.894L272.82,50.081L273.32,51.695L273.82,52.038L274.32,50.932L274.81,51.987L275.31,52.534L275.81,50.119L276.31,51.987L276.8,51.695L277.3,51.759L277.8,51.174L278.3,51.695L278.79,50.958L279.29,51.987L279.79,51.695L280.28,52.547L280.78,51.187L281.28,51.479L281.78,51.987L282.27,52L282.77,50.958L283.27,50.843L283.77,52L284.26,52.305L284.76,52.216L285.26,51.517L285.76,50.958L286.25,52.826L286.75,52.509L287.25,51.759L287.74,52.038L288.24,51.39L288.74,51.39L289.24,52.343L289.73,51.759L290.23,50.526L290.73,51.517L291.23,52.585L291.72,51.365L292.22,51.136L292.72,52.14L293.22,50.538L293.71,51.174L294.21,52.915L294.71,50.538L295.2,51.949L295.7,51.326L296.2,51.352L296.7,52.763L297.19,50.513L297.69,52.28L298.19,51.835L298.69,50.704L299.18,52.102L299.68,51.835L300.18,52.051L300.68,51.479L301.17,52.115L301.67,51.072L302.17,52.267L302.66,52.14L303.16,50.221L303.66,52.953L304.16,51.797L304.65,51.898L305.15,51.009L305.65,52.585L306.15,52.381L306.64,51.326L307.14,50.882L307.64,52.407L308.14,51.352L308.63,52.432L309.13,51.67L309.63,50.513L310.12,52.496L310.62,51.809L311.12,51.657L311.62,51.148L312.11,52.623L312.61,51.657L313.11,51.187L313.61,49.178L314.1,52.648L314.6,47.03L315.1,54.453L315.6,47.03L316.09,47.03L316.59,47.03L317.09,47.03L317.58,47.03L318.08,47.03L318.58,47.03L319.08,47.03L319.57,47.03L320.07,47.03L320.57,47.03L321.07,47.03L321.56,47.03L322.06,47.03L322.56,47.03L323.06,50.348L323.55,47.856L324.05,52.814L324.55,55.28L325.04,54.466L325.54,53.64L326.04,54.466L326.54,54.466L327.03,51.987L327.53,55.648L328.03,55.75L328.53,53.64L329.02,51.987L329.52,56.119L330.02,54.466L330.52,54.466L331.01,55.292L331.51,47.856L332.01,59.424L332.5,55.292L333,54.466L333.5,53.627L334,55.292L334.49,53.691L334.99,54.415L335.49,54.466L335.99,53.64L336.48,55.292L336.98,54.466L337.48,54.466L337.98,53.525L338.47,52.928L338.97,55.292L339.47,55.292L339.96,54.466L340.46,54.466L340.96,53.64L341.46,54.453L341.95,54.441L342.45,52.814L342.95,53.627L343.45,56.945L343.94,54.466L344.44,54.466L344.94,54.466L345.44,50.322L345.93,58.585L346.43,54.479L346.93,51.975L347.42,53.64L347.92,49.509L348.42,55.292L348.92,51.987L349.41,51.975L349.91,51.987L350.41,53.157L350.91,51.975L351.4,51.962L351.9,52.318L352.4,52L352.9,52.826L353.39,52.292L353.89,52L354.39,52.013L354.88,51.098L355.38,53.195L355.88,52.267L356.38,51.975L356.87,51.746L357.37,50.932L357.87,52.801L358.37,53.131L358.86,51.67L359.36,51.212L359.86,52.598L360.36,51.657L360.85,52.026L361.35,51.809L361.85,52.458L362.34,51.174L362.84,52.305L363.34,51.187L363.84,51.962L364.33,53.119L364.83,53.398L365.33,52.381L365.83,50.564L366.32,52.559L366.82,51.67L367.32,51.212L367.82,52.127L368.31,51.301L368.81,50.653L369.31,52.687L369.8,50.475L370.3,51.504L370.8,52.648L371.3,50.513L371.79,51.631L372.29,52.521L372.79,50.958L373.29,52.61L373.78,51.886L374.28,50.983L374.78,51.784L375.28,51.873L375.77,52.407L376.27,50.348L376.77,51.873L377.26,52.432L377.76,51.848L378.26,49.521L378.76,47.055L379.25,47.03L379.75,47.844L380.25,47.03L380.75,47.03L381.24,47.043L381.74,47.03L382.24,50.767L382.74,51.148L383.23,51.034L383.73,48.682L384.23,49.954L384.72,48.708L385.22,50.322L385.72,50.208L386.22,47.92L386.71,49.242L387.21,48.505L387.71,48.695L388.21,48.657L388.7,47.043L389.2,47.03L389.7,47.043L390.2,47.03L390.69,49.229L391.19,56.78L391.69,52.432L392.18,51.898L392.68,51.047L393.18,49.254L393.68,51.098L394.17,50.259L394.67,49.445L395.17,50.856L395.67,51.072L396.16,51.848L396.66,50.882L397.16,53.106L397.66,51.25L398.15,47.03L398.65,55.191L399.15,47.03L399.64,51.581L400.14,47.03L400.64,47.856L401.14,47.03L401.63,47.03L402.13,47.03L402.63,47.03L403.13,47.03L403.62,47.03L404.12,47.03L404.62,47.03L405.12,49.509L405.61,47.03L406.11,47.03L406.61,47.03L407.1,47.856L407.6,47.03L408.1,47.03L408.6,51.161L409.09,51.161L409.59,55.267L410.09,55.28L410.59,55.28L411.08,53.64L411.58,53.64L412.08,51.987L412.58,56.919L413.07,52.814L413.57,57.771L414.07,53.653L414.57,53.64L415.06,53.64L415.56,54.466L416.06,55.292L416.55,53.64L417.05,51.161L417.55,56.119L418.05,54.466L418.54,50.335L419.04,60.237L419.54,54.466L420.04,53.64L420.53,52.814L421.03,56.119L421.53,51.987L422.03,56.106L422.52,55.292L423.02,53.64L423.52,53.233L424.01,53.22L424.51,56.945L425.01,54.466L425.51,54.453L426,51.975L426.5,56.958L427,53.792L427.5,51.009L427.99,57.771L428.49,51.161L428.99,57.771L429.49,54.466L429.98,54.466L430.48,54.466L430.98,54.453L431.47,47.844L431.97,56.945L432.47,52.801L432.97,51.161L433.46,52.814L433.96,52.788L434.46,52.318L434.96,52.801L435.45,52.013L435.95,51.479L436.45,52.788L436.95,51.492L437.44,51.212L437.94,51.924L438.44,51.53L438.93,51.377L439.43,51.733L439.93,52.572L440.43,51.987L440.92,51.708L441.42,50.678L441.92,52.229L442.42,51.72L442.91,51.53L443.41,51.403L443.91,52.051L444.41,51.212L444.9,51.098L445.4,52.331L445.9,50.818L446.39,50.92L446.89,52.877L447.39,51.25L447.89,51.695L448.38,51.797L448.88,51.949L449.38,51.072L449.88,52.432L450.37,51.949L450.87,51.059L451.37,52.343L451.87,51.759L452.36,50.526L452.86,51.644L453.36,52.458L453.85,50.894L454.35,51.288L454.85,52.483L455.35,51.67L455.84,51.898L456.34,51.098L456.84,52.458L457.34,52.051L457.83,50.945L458.33,51.631L458.83,52.051L459.33,50.132L459.82,52.445L460.32,51.237L460.82,50.996L461.31,51.581L461.81,51.225L462.31,51.771L462.81,52.203L463.3,51.479L463.8,50.932L464.3,51.288L464.8,51.593L465.29,53.106L465.79,50.297L466.29,52.102L466.79,51.225L467.28,51.848L467.78,50.691L468.28,50.92L468.77,50.615L469.27,51.454L469.77,52.623L470.27,48.136L470.76,47.246L471.26,47.055L471.76,47.03L472.26,47.03L472.75,47.844L473.25,47.03L473.75,47.043L474.25,47.03L474.74,47.475L475.24,47.03L475.74,47.03L476.23,59.309L476.73,47.03L477.23,47.03L477.73,47.03L478.22,47.03L478.72,47.03L479.22,47.03L479.72,47.03L480.21,47.03L480.71,47.03L481.21,47.856L481.71,47.844L482.2,47.03L482.7,50.348L483.2,52.814L483.69,51.466L484.19,50.36L484.69,52.343L485.19,51.098L485.68,51.199L486.18,53.602L486.68,51.479L487.18,51.784L487.67,51.352L488.17,51.492L488.67,50.132L489.17,51.809L489.66,51.11L490.16,50.348L490.66,51.543L491.15,50.691L491.65,51.568L492.15,50.716L492.65,53.17L493.14,50.767L493.64,51.504L494.14,52.381L494.64,50.805L495.13,51.263L495.63,51.759L496.13,52.089L496.63,52.165L497.12,50.767L497.62,51.949L498.12,51.924L498.61,50.767L499.11,52.75L499.61,52.75L500.11,51.568L500.6,51.123L501.1,53.208L501.6,50.907L502.1,53.004L502.59,52.928L503.09,52.203L503.59,50.78L504.09,52.496L504.58,52.165L505.08,53.792L505.58,52.572L506.07,51.746L506.57,51.848L507.07,53.284L507.57,52.75L508.06,51.39L508.56,52.953L509.06,51.898L509.56,52.203L510.05,51.339L510.55,52.178L511.05,51.326L511.55,52.737L512.04,49.75L512.54,52.953L513.04,51.212L513.53,51.657L514.03,52.636L514.53,51.161L515.03,51.682L515.52,51.454L516.02,52.394L516.52,51.136L517.02,53.818L517.51,49.674L518.01,52.788L518.51,52.178L519.01,50.754L519.5,51.695L520,51.352L520.5,51.606L520.99,52.496L521.49,51.454L521.99,51.199L522.49,52.788L522.98,50.653L523.48,51.199L523.98,52.788L524.48,50.97L524.97,52.496L525.47,52.153L525.97,50.004L526.47,52.483L526.96,51.225L527.46,50.932L527.96,51.212L528.45,52.636L528.95,51.047L529.45,53.03L529.95,51.403L530.44,53.271L530.94,51.631L531.44,52.064L531.94,53.081L532.43,51.759L532.93,52.89L533.43,51.619L533.93,52.051L534.42,52.636L534.92,51.415L535.42,53.678L535.91,51.619L536.41,52.051L536.91,52.623L537.41,52.763L537.9,51.975L538.4,51.987L538.9,52.076L539.4,53.233L539.89,51.606L540.39,52.509L540.89,51.148L541.39,52.115L541.88,51.555L542.38,51.797L542.88,52.064L543.37,51.619L543.87,52.598L544.37,52.47L544.87,51.352L545.36,51.657L545.86,51.657L546.36,52.598L546.86,52.153L547.35,51.682L547.85,52.445L548.35,51.708L548.85,52.115L549.34,50.97L549.84,51.543L550.34,53.767L550.83,50.996L551.33,51.276L551.83,52.292L552.33,52.687L552.82,51.288L553.32,51.009L553.82,51.504L554.32,52.559L554.81,50.564L555.31,52.369L555.81,50.678L556.31,51.581L556.8,52.369L557.3,50.678L557.8,50.754L558.29,52.725L558.79,51.962L559.29,49.941L559.79,52.725L560.28,47.055L560.78,47.844L561.28,47.03L561.78,49.814L562.27,50.882L562.77,51.136L563.27,49.013L563.77,50.615L564.26,49.471L564.76,49.305L565.26,48.797L565.76,48.822L566.25,49.026L566.75,49.471L567.25,48.644L567.74,48.822L568.24,48.466L568.74,49.343L569.24,48.988L569.73,49.026L570.23,49.458L570.73,48.632L571.23,49.343L571.72,48.784L572.22,48.835L572.72,48.25L573.22,50.246L573.71,48.619L574.21,48.835L574.71,48.441L575.2,49.369L575.7,52.305L576.2,52.115L576.7,49.661L577.19,51.225L577.69,52.801L578.19,49.865L578.69,53.614L579.18,51.314L579.68,50.526L580.18,51.987L580.68,51.288L581.17,51.365L581.67,51.148L582.17,50.996L582.66,52.509L583.16,49.458L583.66,51.301L584.16,47.03L584.65,47.03L585.15,47.03L585.65,47.03L586.15,47.03L586.64,47.03L587.14,47.03L587.64,47.03L588.14,47.03L588.63,47.03L589.13,47.03L589.63,47.03L590.12,47.03L590.62,47.03L591.12,47.03L591.62,57.949L592.11,47.03L592.61,47.856L593.11,47.03L593.61,47.03L594.1,47.03L594.6,49.471L595.1,55.33L595.6,53.627L596.09,53.64L596.59,56.119L597.09,53.64L597.58,54.466L598.08,52.814L598.58,55.28L599.08,54.453L599.57,54.479L600.07,53.64L600.57,54.466L601.07,54.466L601.56,55.292L602.06,53.627L602.56,54.466L603.06,54.466L603.55,54.466L604.05,52.814L604.55,54.911L605.04,54.021L605.54,55.28L606.04,52.814L606.54,54.466L607.03,55.292L607.53,55.292L608.03,52.814L608.53,54.263L609.02,53.843L609.52,54.466L610.02,54.453L610.52,55.28L611.01,53.64L611.51,54.441L612.01,55.292L612.5,52.814L613,53.627L613.5,56.131L614,54.466L614.49,55.28L614.99,53.64L615.49,55.292L615.99,54.466L616.48,53.64L616.98,52.928L617.48,56.004L617.98,53.627L618.47,55.292L618.97,53.64L619.47,53.64L619.96,51.987L620.46,52.814L620.96,52.801L621.46,51.962L621.95,52.026L622.45,52.305L622.95,51.784L623.45,53.017L623.94,51.25L624.44,52L624.94,51.822L625.44,52.47L625.93,51.174L626.43,52.203L626.93,50.437L627.42,52.521L627.92,51.67L628.42,51.276L628.92,51.161L629.41,51.365L629.91,50.449L630.41,52.814L630.91,51.454L631.4,50.882L631.9,53.093L632.4,51.466L632.9,50.36L633.39,51.695L633.89,51.682L634.39,51.263L634.88,51.695L635.38,51.682L635.88,50.449L636.38,52.496L636.87,50.843L637.37,50.97L637.87,52.28L638.37,51.377L638.86,51.339L639.36,52.623L639.86,50.742L640.36,51.276L640.85,52.75L641.35,51.441L641.85,51.924L642.34,51.276L642.84,52.242L643.34,51.428L643.84,51.797L644.33,52.229L644.83,51.085L645.33,52.318L645.83,50.398L646.32,52.737L646.82,52.331L647.32,50.678L647.82,51.631L648.31,51.492L648.81,52.305L649.31,51.67L649.8,50.665L650.3,52.61L650.8,51.479L651.3,50.589L651.79,52.267L652.29,50.945L652.79,50.615L653.29,51.415L653.78,51.784L654.28,51.428L654.78,51.428L655.28,50.983L655.77,50.5L656.27,52.992L656.77,51.962L657.26,50.526L657.76,53.131L658.26,51.809L658.76,49.801L659.25,53.03L659.75,51.962L660.25,50.246L660.75,51.593L661.24,51.822L661.74,49.28L662.24,51.898L662.74,50.97L663.23,47.844L663.73,52.267L664.23,49.763L664.72,49.89L665.22,49.763L665.72,49.826L666.22,50.055L666.71,48.886L667.21,49.343L667.71,49.75L668.21,49.826L668.7,49.242L669.2,49.699L669.7,48.988L670.2,49.267L670.69,49.496L671.19,49.814L671.69,48.543L672.18,49.623L672.68,48.555L673.18,49.712L673.68,49.814L674.17,49.242L674.67,48.759L675.17,49.051L675.67,48.327L676.16,49.687L676.66,48.657L677.16,47.055L677.66,47.818L678.15,47.03L678.65,47.055L679.15,47.03L679.64,53.284L680.14,54.555L680.64,49.776L681.14,51.11L681.63,52.42L682.13,48.161L682.63,48.339L683.13,52.725L683.62,52.064L684.12,48.199L684.62,52.42L685.12,53.182L685.61,49.026L686.11,49.687L686.61,51.428L687.1,47.03L687.6,54.326L688.1,47.03L688.6,47.856L689.09,47.03L689.59,47.03L690.09,47.03L690.59,47.03L691.08,47.03L691.58,47.03L692.08,47.03L692.58,49.496L693.07,47.03L693.57,47.03L694.07,47.856L694.56,47.03L695.06,47.03L695.56,47.03L696.06,47.03L696.55,47.03L697.05,47.03L697.55,47.03L698.05,50.335L698.54,54.466L699.04,55.28L699.54,51.975L700.04,55.28L700.53,55.292L701.03,53.767L701.53,52.674L702.02,56.119L702.52,54.453L703.02,54.466L703.52,51.987L704.01,56.119L704.51,53.64L705.01,53.64L705.51,56.119L706,53.64L706.5,51.987L707,55.292L707.5,55.292L707.99,53.64L708.49,56.106L708.99,53.64L709.49,54.466L709.98,54.466L710.48,52.814L710.98,56.119L711.47,53.64L711.97,54.453L712.47,52.814L712.97,56.119L713.46,50.335L713.96,58.559L714.46,53.678L714.96,54.466L715.45,52.814L715.95,56.119L716.45,54.466L716.95,52.801L717.44,56.131L717.94,54.466L718.44,54.466L718.93,53.64L719.43,55.292L719.93,54.453L720.43,53.64L720.92,51.148L721.42,54.479L721.92,56.945L722.42,54.453L722.91,55.292L723.41,54.453L723.91,53.653L724.41,53.627L724.9,51.987L725.4,52.814L725.9,52L726.39,51.987L726.89,52.47L727.39,51.479L727.89,53.131L728.38,52L728.88,52.318L729.38,53.614L729.88,51.53L730.37,53.004L730.87,51.771L731.37,52.75L731.87,52.356L732.36,51.504L732.86,51.619L733.36,50.945L733.85,52.89L734.35,52.788L734.85,52.013L735.35,50.665L735.84,51.949L736.34,52.026L736.84,51.492L737.34,52.776L737.83,50.589L738.33,52.165L738.83,51.86L739.33,50.602L739.82,51.161L740.32,52.051L740.82,51.212L741.31,52.356L741.81,51.047L742.31,51.428L742.81,52.356L743.3,50.856L743.8,52.013L744.3,50.958L744.8,51.657L745.29,52.229L745.79,50.729L746.29,52.496L746.79,50.576L747.28,51.555L747.78,51.771L748.28,51.301L748.77,51.568L749.27,50.945L749.77,52.127L750.27,53.576L750.76,50.551L751.26,51.695L751.76,51.225L752.26,52.559L752.75,51.67L753.25,50.97L753.75,52L754.25,51.682L754.74,51.797L755.24,52L755.74,51.454L756.23,51.187L756.73,52.941L757.23,52.381L757.73,51.72L758.22,51.72L758.72,51.784L759.22,51.123L759.72,51.733L760.21,51.797L760.71,52.115L761.21,52.216L761.71,51.949L762.2,51.123L762.7,52.343L763.2,52.801L763.69,51.314L764.19,52.191L764.69,51.924L765.19,51.339L765.68,52.165L766.18,50.31L766.68,51.339L767.18,51.365L767.67,51.085L768.17,52.191L768.67,51.326L769.17,51.949L769.66,51.365L770.16,51.314L770.66,51.949L771.15,48.886L771.65,47.132L772.15,47.068L772.65,47.03L773.14,47.844L773.64,47.03L774.14,47.03L774.64,47.043L775.13,52.585L775.63,53.589L776.13,50.742L776.63,50.297L777.12,51.085L777.62,49.979L778.12,48.682L778.61,49.458L779.11,49.471L779.61,49.471L780.11,49.509L780.6,48.339L781.1,48.632L781.6,48.657L782.1,48.644L782.59,48.682L783.09,48.657L783.59,47.831L784.09,48.682L784.58,48.466L785.08,47.742L785.58,48.619L786.07,48.085L786.57,48.454L787.07,50.462L787.57,54.682L788.06,49.42L788.56,51.339L789.06,50.348L789.56,52.153L790.05,52.115L790.55,50.373L791.05,52.127L791.55,52.165L792.04,51.873L792.54,52.267L793.04,51.314L793.53,51.873L794.03,53.068L794.53,52.038L795.03,48.695L795.52,53.92L796.02,47.03L796.52,47.03L797.02,47.03L797.51,47.03L798.01,47.03L798.51,52.852L799.01,47.03L799.5,47.03L800,47.03L800.5,47.03L800.99,47.03L801.49,48.682L801.99,47.03L802.49,47.03L802.98,47.03L803.48,47.03L803.98,47.03L804.48,47.03L804.97,47.03L805.47,47.03L805.97,47.03L806.47,47.03L806.96,47.03L807.46,51.161L807.96,54.453L808.45,52.661L808.95,55.445L809.45,53.64L809.95,54.466L810.44,52.814L810.94,54.453L811.44,56.119L811.94,54.174L812.43,53.932L812.93,51.987L813.43,56.322L813.93,50.132L814.42,59.424L814.92,53.64L815.42,53.64L815.91,52.814L816.41,56.945L816.91,54.453L817.41,53.64L817.9,54.085L818.4,53.195L818.9,55.28L819.4,54.453L819.89,54.466L820.39,52.801L820.89,56.119L821.39,54.466L821.88,52.814L822.38,53.64L822.88,54.453L823.37,55.292L823.87,54.466L824.37,54.466L824.87,55.292L825.36,50.335L825.86,56.919L826.36,55.305L826.86,53.627L827.35,55.28L827.85,53.665L828.35,54.466L828.85,53.64L829.34,55.292L829.84,52.814L830.34,56.119L830.83,53.64L831.33,54.364L831.83,52.076L832.33,57.771L832.82,51.987L833.32,55.292L833.82,54.466L834.32,52.814L834.81,56.119L835.31,55.292L835.81,53.627L836.31,52L836.8,52.801L837.3,52.814L837.8,52L838.29,51.975L838.79,52.826L839.29,51.492L839.79,51.987L840.28,51.822L840.78,50.894L841.28,53.551L841.78,51.161L842.27,52.305L842.77,51.987L843.27,51.504L843.77,53.64L844.26,51.962L844.76,51.479L845.26,51.199L845.75,52.292L846.25,51.148L846.75,53.157L847.25,51.199L847.74,51.11L848.24,52.801L848.74,52.28L849.24,50.386L849.73,52.953L850.23,52.127L850.73,51.212L851.23,51.504L851.72,51.924L852.22,52.826L852.72,52.064L853.21,50.589L853.71,52.814L854.21,52.051L854.71,50.602L855.2,52.381L855.7,52.712L856.2,52.242L856.7,50.742L857.19,52.483L857.69,52.216L858.19,52.648L858.69,51.415L859.18,51.39L859.68,52.89L860.18,51.199L860.68,51.352L861.17,52.076L861.67,52.038L862.17,51.352L862.66,52.064L863.16,51.212L863.66,51.504L864.16,49.369L864.65,51.237L865.15,47.03L865.65,47.03L866.15,55.547L866.64,47.03L867.14,47.03L867.64,47.03L868.14,47.03L868.63,47.03L869.13,47.03L869.63,47.03L870.12,47.03L870.62,47.03L871.12,47.03L871.62,50.335L872.11,47.03L872.61,47.03L873.11,47.03L873.61,47.03L874.1,47.03L874.6,47.03L875.1,47.03L875.6,47.03L876.09,47.03L876.59,49.509L877.09,50.335L877.58,54.453L878.08,54.453L878.58,52.814L879.08,55.025L879.57,53.055L880.07,56.119L880.57,54.453L881.07,53.64L881.56,54.466L882.06,53.64L882.56,55.267L883.06,51.187L883.55,56.119L884.05,55.28L884.55,52.814L885.04,56.119L885.54,54.466L886.04,54.466L886.54,54.466L887.03,51.161L887.53,54.453L888.03,56.945L888.53,53.017L889.02,55.089L889.52,54.466L890.02,51.161L890.52,52.801L891.01,47.043L891.51,47.844L892.01,47.03L892.5,52.102L893,54.352L893.5,49.178L894,50.31L894.49,51.059L894.99,50.602L895.49,48.072L895.99,50.259L896.48,51.085L896.98,50.31L897.48,48.416L897.98,49.458L898.47,49.839L898.97,50.678L899.47,50.589L899.96,48.047L900.46,49.56L900.96,50.348L901.46,50.932L901.95,51.682L902.45,51.187L902.95,50.945L903.45,52.521L903.94,51.797L904.44,51.924L904.94,51.098L905.44,52.445L905.93,51.987L906.43,51.873L906.93,50.742L907.42,51.682L907.92,52.203L908.42,51.593L908.92,51.898L909.41,52.394L909.91,51.975L910.41,51.911L910.91,53.22L911.4,51.987L911.9,52.305L912.4,52L912.9,51.047L913.39,52.432L913.89,52.801L914.39,51.873L914.88,51.606L915.38,51.86L915.88,51.199L916.38,52.407L916.87,51.034L917.37,51.619L917.87,51.975L918.37,51.873L918.86,53.22L919.36,51.237L919.86,51.034L920.36,51.543L920.85,51.199L921.35,52.305L921.85,51.123L922.34,51.199L922.84,51.479L923.34,52.801L923.84,53.246L924.33,51.441L924.83,51.606L925.33,53.131L925.83,52.763L926.32,50.831L926.82,51.161L927.32,51.86L927.82,53.093L928.31,53.22L928.81,50.818L929.31,51.581L929.8,51.148L930.3,51.886L930.8,51.593L931.3,53.093L931.79,51.047L932.29,51.987L932.79,51.034L933.29,50.78L933.78,53.525L934.28,52.153L934.78,50.259L935.28,54.695L935.77,51.25L936.27,52.064L936.77,48.67L937.26,52.153L937.76,52.318L938.26,48.543L938.76,47.856L939.25,47.03L939.75,47.03L940.25,47.03L940.75,48.682L941.24,47.03L941.74,47.03L942.24,47.03L942.74,47.03L943.23,47.03L943.73,47.03L944.23,47.03L944.72,47.03L945.22,49.509L945.72,47.03L946.22,47.03L946.71,47.856L947.21,47.03L947.71,47.03L948.21,47.03L948.7,47.03L949.2,48.67L949.7,47.03L950.2,52.814L950.69,54.441L951.19,54.466L951.69,54.453L952.18,51.784L952.68,55.496L953.18,53.881L953.68,55.038L954.17,55.292L954.67,53.64L955.17,54.466L955.67,53.64L956.16,53.64L956.66,53.64L957.16,56.932L957.66,51.161L958.15,56.945L958.65,54.466L959.15,54.466L959.64,54.466L960.14,54.428L960.64,53.665L961.14,54.466L961.63,53.64L962.13,54.466L962.63,55.292L963.13,54.466L963.62,53.64L964.12,52.814L964.62,55.292L965.12,55.292L965.61,53.64L966.11,54.453L966.61,55.292L967.1,51.911L967.6,56.996L968.1,53.653L968.6,54.453L969.09,54.466L969.59,52.776L970.09,55.305L970.59,52.814L971.08,53.64L971.58,57.771L972.08,53.64L972.58,55.28L973.07,53.475L973.57,54.631L974.07,54.453L974.56,55.305L975.06,53.64L975.56,51.987L976.06,56.106L976.55,56.106L977.05,52.826L977.55,55.292L978.05,52.814L978.54,55.292L979.04,47.03L979.54,47.844L980.04,47.03L980.53,50.271L981.03,54.339L981.53,50.818L982.02,50.284L982.52,51.072L983.02,50.818L983.52,49.458L984.01,50.297L984.51,51.072L985.01,50.017L985.51,49.471L986,50.284L986.5,51.098L987,50.144L987.5,49.318L987.99,50.284L988.49,51.047L988.99,50.043L989.48,49.471L989.98,50.271L990.48,51.059L990.98,50.03L991.47,49.471L991.97,50.271L992.47,51.047L992.97,50.043L993.46,48.657L993.96,50.297L994.46,51.835L994.96,49.496L995.45,49.204L995.95,50.297L996.45,50.271L996.94,49.496L997.44,52.229L997.94,54.492L998.44,51.301L998.93,51.975L999.43,52.737L999.93,51.581L1000.4,51.975L1000.9,51.898L1001.4,51.555L1001.9,51.174L1002.4,51.898L1002.9,50.742L1003.4,52.458L1003.9,51.454L1004.4,52.343L1004.9,52.076L1005.4,50.64L1005.9,53.246L1006.4,51.72L1006.9,51.314L1007.4,52.28L1007.9,51.034L1008.4,52.127L1008.9,52.165L1009.4,52.153L1009.9,51.454L1010.4,52.687L1010.9,50.487L1011.4,52.28L1011.9,51.886L1012.4,52.127L1012.9,52.14L1013.4,51.326L1013.9,51.441L1014.4,51.886L1014.8,51.301L1015.3,51.466L1015.8,51.835L1016.3,52.979L1016.8,51.454L1017.3,51.987L1017.8,51.237L1018.3,51.428L1018.8,51.148L1019.3,51.949L1019.8,51.568L1020.3,51.123L1020.8,51.225L1021.3,51.987L1021.8,51.098L1022.3,53.182L1022.8,51.25L1023.3,51.352L1023.8,51.174L1024.3,52.115L1024.8,50.208L1025.3,52.343L1025.8,51.25L1026.3,51.86L1026.8,50.691L1027.3,52.509L1027.8,51.759L1028.3,50.373L1028.8,50.335L1029.3,51.136L1029.8,47.03L1030.3,54.288L1030.8,47.03L1031.3,47.03L1031.8,47.03L1032.3,47.03L1032.8,47.03L1033.3,47.03L1033.7,47.03L1034.2,50.831L1034.7,47.03L1035.2,47.03L1035.7,47.03L1036.2,47.856L1036.7,47.03L1037.2,47.03L1037.7,47.03L1038.2,47.03L1038.7,47.03L1039.2,48.682L1039.7,47.03L1040.2,47.03L1040.7,47.03L1041.2,47.03L1041.7,47.03L1042.2,47.03L1042.7,52.814L1043.2,52.801L1043.7,56.119L1044.2,53.64L1044.7,54.466L1045.2,52.814L1045.7,53.64L1046.2,55.292L1046.7,54.708L1047.2,55.038L1047.7,52.814L1048.2,56.106L1048.7,53.653L1049.2,51.161L1049.7,57.771L1050.2,51.975L1050.7,54.466L1051.2,52.814L1051.7,58.597L1052.1,54.466L1052.6,53.64L1053.1,54.453L1053.6,54.466L1054.1,52.814L1054.6,55.292L1055.1,55.254L1055.6,52.852L1056.1,48.67L1056.6,47.043L1057.1,47.03L1057.6,47.844L1058.1,47.03L1058.6,47.03L1059.1,51.377L1059.6,54.339L1060.1,50.017L1060.6,51.072L1061.1,50.297L1061.6,50.246L1062.1,49.191L1062.6,48.568L1063.1,47.971L1063.6,48.619L1064.1,49.471L1064.6,49.458L1065.1,49.178L1065.6,49.026L1066.1,49.699L1066.6,52.127L1067.1,49.979L1067.6,50.297L1068.1,51.021L1068.6,52.203L1069.1,49.763L1069.6,51.924L1070.1,50.894L1070.6,50.983L1071,51.949L1071.5,51.784L1072,51.72L1072.5,50.31L1073,52.75L1073.5,53.017L1074,50.5L1074.5,51.898L1075,52.254L1075.5,52.102L1076,51.555L1076.5,51.733L1077,52.153L1077.5,50.754L1078,53.055L1078.5,52.864L1079,51.009L1079.5,52.407L1080,52.064" style="fill:none;stroke:#F15A60;stroke-width:1.875" />
<path d="M74.388,82.062L74.885,397.4L75.382,347.69L75.88,283.17L76.377,292.42L76.874,215.63L77.372,69.58L77.869,68.677L78.366,64.826L78.864,66.351L79.361,66.682L79.858,64.267L80.356,67.457L80.853,68.118L81.35,64.508L81.848,63.885L82.345,65.449L82.842,65.131L83.34,54.186L83.837,50.538L84.334,53.881L84.832,49.204L85.329,50.17L85.826,48.746L86.324,50.424L86.821,47.627L87.318,47.691L87.816,47.589L88.313,47.183L88.81,47.233L89.308,47.068L89.805,47.043L90.302,47.03L90.8,47.03L91.297,47.03L91.794,47.03L92.292,47.03L92.789,47.03L93.286,47.03L93.784,47.03L94.281,47.03L94.778,47.03L95.276,47.03L95.773,47.03L96.27,47.03L96.768,47.03L97.265,47.03L97.762,47.03L98.26,47.03L98.757,47.03L99.254,47.03L99.752,47.03L100.25,47.03L100.75,47.03L101.24,47.03L101.74,47.03L102.24,47.03L102.74,47.03L103.23,47.03L103.73,47.03L104.23,48.606L104.72,244.12L105.22,270.57L105.72,209.59L106.22,232.74L106.71,218.87L107.21,210.83L107.71,176.79L108.21,177.89L108.7,174.89L109.2,122.52L109.7,64.966L110.2,69.338L110.69,66.11L111.19,64.673L111.69,63.402L112.19,62.411L112.68,66.377L113.18,56.131L113.68,58.33L114.17,58.368L114.67,57.39L115.17,54.364L115.67,57.53L116.16,59.779L116.66,48.937L117.16,51.123L117.66,48.873L118.15,47.742L118.65,47.793L119.15,47.411L119.65,47.386L120.14,47.322L120.64,47.386L121.14,47.615L121.63,47.5L122.13,47.094L122.63,47.03L123.13,47.03L123.62,47.03L124.12,47.03L124.62,47.03L125.12,47.03L125.61,47.03L126.11,47.03L126.61,47.03L127.11,47.03L127.6,47.03L128.1,47.03L128.6,47.03L129.09,47.03L129.59,47.03L130.09,47.03L130.59,47.03L131.08,47.03L131.58,47.03L132.08,47.03L132.58,47.03L133.07,47.03L133.57,47.03L134.07,47.03L134.57,161.65L135.06,249.46L135.56,192.83L136.06,147.7L136.55,145.25L137.05,138.96L137.55,152.91L138.05,177.32L138.54,180.35L139.04,145.26L139.54,109.39L140.04,142.92L140.53,86.181L141.03,67.533L141.53,70.05L142.03,62.995L142.52,69.898L143.02,68.054L143.52,68.232L144.01,68.919L144.51,62.83L145.01,51.301L145.51,52.178L146,53.589L146.5,52.648L147,69.987L147.5,55.369L147.99,60.618L148.49,67.165L148.99,65.258L149.49,68.576L149.98,65.309L150.48,68.143L150.98,66.656L151.47,67.228L151.97,60.453L152.47,59.182L152.97,47.195L153.46,47.03L153.96,47.183L154.46,47.106L154.96,47.132L155.45,47.157L155.95,47.068L156.45,47.03L156.95,47.043L157.44,47.03L157.94,47.03L158.44,47.03L158.93,47.03L159.43,47.03L159.93,47.03L160.43,47.03L160.92,47.03L161.42,47.03L161.92,47.03L162.42,47.03L162.91,47.03L163.41,47.03L163.91,47.03L164.41,80.969L164.9,201.36L165.4,175.58L165.9,91.723L166.39,196.13L166.89,105.87L167.39,95.536L167.89,114.72L168.38,89.117L168.88,133.94L169.38,143.06L169.88,79.164L170.37,137.34L170.87,85.342L171.37,94.38L171.87,146.23L172.36,102.54L172.86,104.27L173.36,82.66L173.85,102.03L174.35,61.254L174.85,51.301L175.35,62.843L175.84,55.534L176.34,47.03L176.84,47.03L177.34,47.03L177.83,47.03L178.33,47.03L178.83,47.03L179.33,47.03L179.82,47.03L180.32,47.03L180.82,47.03L181.31,47.03L181.81,47.03L182.31,52.496L182.81,82.723L183.3,68.754L183.8,72.427L184.3,70.597L184.8,68.487L185.29,69.237L185.79,61.686L186.29,73.05L186.79,68.576L187.28,68.042L187.78,62.156L188.28,63.86L188.77,60.745L189.27,63.11L189.77,63.364L190.27,58.229L190.76,54.326L191.26,47.03L191.76,47.03L192.26,47.03L192.75,47.03L193.25,47.03L193.75,47.03L194.25,47.03L194.74,47.03L195.24,47.03L195.74,47.03L196.23,47.03L196.73,47.03L197.23,47.03L197.73,47.03L198.22,47.03L198.72,47.03L199.22,47.03L199.72,47.03L200.21,79.469" style="fill:none;stroke:#7AC36A;stroke-width:1.875;stroke-dasharray:7.5,2.5" />
<path d="M74.388,203.48L74.885,460.77L75.382,431.22L75.88,400.92L76.377,417.39L76.874,403.76L77.372,393.34L77.869,409.78L78.366,402.64L78.864,406.49L79.361,401.99L79.858,405.98L80.356,391.09L80.853,406.56L81.35,362.7L81.848,347.68L82.345,343.47L82.842,400.42L83.34,342.12L83.837,343.61L84.334,351.69L84.832,351.94L85.329,379.39L85.826,357.24L86.324,383.92L86.821,349.85L87.318,403.1L87.816,373.71L88.313,359.12L88.81,369.59L89.308,400.43L89.805,392.9L90.302,361.33L90.8,360.27L91.297,360.33L91.794,337.53L92.292,345.58L92.789,390.68L93.286,343.77L93.784,363.72L94.281,353.66L94.778,325.03L95.276,348.97L95.773,354.55L96.27,423.91L96.768,342.75L97.265,343.66L97.762,344.39L98.26,333.03L98.757,367.79L99.254,312.3L99.752,360.39L100.25,361.29L100.75,368.27L101.24,336.22L101.74,344.44L102.24,336.68L102.74,331.84L103.23,342.89L103.73,346.62L104.23,336.61L104.72,356.73L105.22,360.03L105.72,394.85L106.22,330.25L106.71,363.99L107.21,364.74L107.71,348L108.21,352.02L108.7,378.27L109.2,368.14L109.7,397.05L110.2,369.12L110.69,366.41L111.19,318.47L111.69,383.76L112.19,326.6L112.68,349.71L113.18,298.85L113.68,366.35" style="fill:none;stroke:#5A9BD4;stroke-width:1.875;stroke-dasharray:2.5,2.5" />
<path d="M74.388,197.44L74.885,330.76L75.382,344.75L75.88,549.47L76.377,580.52L76.874,554.04L77.372,498.64L77.869,585.17L78.366,638.35L78.864,591.89L79.361,274.31L79.858,348.33L80.356,478.57L80.853,651.01L81.35,670.84L81.848,250.22L82.345,653.14L82.842,622.53L83.34,317.87L83.837,397.57L84.334,649.85L84.832,636.03L85.329,523.74L85.826,678.26L86.324,626.54L86.821,701.44L87.318,150.72L87.816,288.93L88.313,200.42L88.81,208.92L89.308,510.8L89.805,656.26L90.302,622.69L90.8,646.56L91.297,557.12L91.794,325.13L92.292,417.36L92.789,556.16L93.286,213.38L93.784,488.05L94.281,265.36L94.778,61.495L95.276,71.779L95.773,60.466L96.27,47.03L96.768,47.03L97.265,48.123L97.762,47.03L98.26,47.716L98.757,47.03L99.254,47.03L99.752,47.03L100.25,47.03L100.75,47.03L101.24,47.03L101.74,71.054L102.24,368.09L102.74,592.78L103.23,471.96L103.73,593.48L104.23,550.18L104.72,352.66L105.22,596.28L105.72,248.58L106.22,47.03L106.71,206.07L107.21,556.85L107.71,536.83L108.21,524.47L108.7,55.801L109.2,47.03L109.7,47.246L110.2,47.03L110.69,47.03L111.19,47.03L111.69,47.03L112.19,47.03L112.68,47.03L113.18,47.03L113.68,47.03L114.17,47.03L114.67,47.03L115.17,47.03L115.67,86.244L116.16,520.37L116.66,516.28L117.16,478.39L117.66,386.45L118.15,47.03L118.65,47.449L119.15,47.03L119.65,47.03L120.14,47.03L120.64,47.03L121.14,47.03L121.63,47.03L122.13,47.03L122.63,47.03L123.13,47.03L123.62,47.03L124.12,47.03L124.62,47.03L125.12,47.03L125.61,47.03L126.11,47.03L126.61,47.03L127.11,47.03L127.6,47.03L128.1,47.03L128.6,47.03L129.09,47.03L129.59,47.03L130.09,47.03L130.59,47.03L131.08,47.03L131.58,47.03L132.08,47.03L132.58,47.03L133.07,47.03L133.57,47.03L134.07,47.03L134.57,47.03L135.06,47.03L135.56,47.03L136.06,47.03L136.55,47.03L137.05,47.03L137.55,47.03L138.05,47.03L138.54,47.03L139.04,47.03L139.54,47.03L140.04,47.03L140.53,47.03L141.03,47.03L141.53,47.03L142.03,47.03L142.52,47.03L143.02,47.03L143.52,47.03L144.01,47.03L144.51,47.03L145.01,47.03L145.51,47.03L146,47.03L146.5,338.58L147,360.64" style="fill:none;stroke:#FAA75B;stroke-width:1.875;stroke-dasharray:1.25,1.25" />
<path d="M1055,694.3L1080,694.3" style="fill:none;stroke:#F15A60;stroke-width:1.875" />
<text x="959.12" y="-687.85" transform="scale(1, -1)"
	style="font-family:Helvetica;font-weight:normal;font-style:normal;font-size:12pt">Consul v0.6.4</text>
<path d="M1055,680L1080,680" style="fill:none;stroke:#7AC36A;stroke-width:1.875;stroke-dasharray:7.5,2.5" />
<text x="1002.5" y="-673.56" transform="scale(1, -1)"
	style="font-family:Helvetica;font-weight:normal;font-style:normal;font-size:12pt">etcd v2</text>
<path d="M1055,665.71L1080,665.71" style="fill:none;stroke:#5A9BD4;stroke-width:1.875;stroke-dasharray:2.5,2.5" />
<text x="1002.5" y="-659.26" transform="scale(1, -1)"
	style="font-family:Helvetica;font-weight:normal;font-style:normal;font-size:12pt">etcd v3</text>
<path d="M1055,651.41L1080,651.41" style="fill:none;stroke:#FAA75B;stroke-width:1.875;stroke-dasharray:1.25,1.25" />
<text x="934.1" y="-644.97" transform="scale(1, -1)"
	style="font-family:Helvetica;font-weight:normal;font-style:normal;font-size:12pt">Zookeeper v3.4.8</text>
</g>
</svg>
