<?xml version="1.0"?>
<!-- Generated by SVGo and Plotinum VG -->
<svg width="12in" height="8in"
	xmlns="http://www.w3.org/2000/svg"
	xmlns:xlink="http://www.w3.org/1999/xlink">
<g transform="scale(1, -1) translate(0, -720)">
<path d="M0,0L1080,0L1080,720L0,720Z" style="fill:#FFFFFF" />
<text x="224.04" y="-706.41" transform="scale(1, -1)"
	style="font-family:Helvetica;font-weight:normal;font-style:normal;font-size:12pt">Write 2M keys, 1000-client, 100-connections, 8-byte key, 256-byte value (etcd v3, Test 1), CPU</text>
<text x="544.64" y="-4.965" transform="scale(1, -1)"
	style="font-family:Helvetica;font-weight:normal;font-style:normal;font-size:12pt">Second</text>
<text x="56.662" y="-19.142" transform="scale(1, -1)"
	style="font-family:Helvetica;font-weight:normal;font-style:normal;font-size:10pt">0</text>
<text x="325.15" y="-19.142" transform="scale(1, -1)"
	style="font-family:Helvetica;font-weight:normal;font-style:normal;font-size:10pt">20</text>
<text x="597.11" y="-19.142" transform="scale(1, -1)"
	style="font-family:Helvetica;font-weight:normal;font-style:normal;font-size:10pt">40</text>
<text x="869.08" y="-19.142" transform="scale(1, -1)"
	style="font-family:Helvetica;font-weight:normal;font-style:normal;font-size:10pt">60</text>
<path d="M60.137,30.467L60.137,40.467" style="fill:none;stroke:#000000;stroke-width:0.625" />
<path d="M332.1,30.467L332.1,40.467" style="fill:none;stroke:#000000;stroke-width:0.625" />
<path d="M604.06,30.467L604.06,40.467" style="fill:none;stroke:#000000;stroke-width:0.625" />
<path d="M876.03,30.467L876.03,40.467" style="fill:none;stroke:#000000;stroke-width:0.625" />
<path d="M196.12,35.468L196.12,40.467" style="fill:none;stroke:#000000;stroke-width:0.625" />
<path d="M468.08,35.468L468.08,40.467" style="fill:none;stroke:#000000;stroke-width:0.625" />
<path d="M740.05,35.468L740.05,40.467" style="fill:none;stroke:#000000;stroke-width:0.625" />
<path d="M1012,35.468L1012,40.467" style="fill:none;stroke:#000000;stroke-width:0.625" />
<path d="M60.137,40.467L1080,40.467" style="fill:none;stroke:#000000;stroke-width:0.625" />
<g transform="rotate(90)">
<text x="358.4" y="13.59" transform="scale(1, -1)"
	style="font-family:Helvetica;font-weight:normal;font-style:normal;font-size:12pt">CPU</text>
</g>
<text x="18.555" y="-198.85" transform="scale(1, -1)"
	style="font-family:Helvetica;font-weight:normal;font-style:normal;font-size:10pt">100</text>
<text x="18.555" y="-360.87" transform="scale(1, -1)"
	style="font-family:Helvetica;font-weight:normal;font-style:normal;font-size:10pt">200</text>
<text x="18.555" y="-522.88" transform="scale(1, -1)"
	style="font-family:Helvetica;font-weight:normal;font-style:normal;font-size:10pt">300</text>
<text x="18.555" y="-684.9" transform="scale(1, -1)"
	style="font-family:Helvetica;font-weight:normal;font-style:normal;font-size:10pt">400</text>
<path d="M42.88,204.22L52.88,204.22" style="fill:none;stroke:#000000;stroke-width:0.625" />
<path d="M42.88,366.23L52.88,366.23" style="fill:none;stroke:#000000;stroke-width:0.625" />
<path d="M42.88,528.25L52.88,528.25" style="fill:none;stroke:#000000;stroke-width:0.625" />
<path d="M42.88,690.27L52.88,690.27" style="fill:none;stroke:#000000;stroke-width:0.625" />
<path d="M47.88,123.21L52.88,123.21" style="fill:none;stroke:#000000;stroke-width:0.625" />
<path d="M47.88,285.23L52.88,285.23" style="fill:none;stroke:#000000;stroke-width:0.625" />
<path d="M47.88,447.24L52.88,447.24" style="fill:none;stroke:#000000;stroke-width:0.625" />
<path d="M47.88,609.26L52.88,609.26" style="fill:none;stroke:#000000;stroke-width:0.625" />
<path d="M52.88,47.03L52.88,701.44" style="fill:none;stroke:#000000;stroke-width:0.625" />
<path d="M60.137,47.03L73.736,125.19L87.334,191.97L100.93,248.24L114.53,292.4L128.13,331.38L141.73,364.16L155.32,391.44L168.92,416.01L182.52,435.12L196.12,454.74L209.72,469.88L223.32,486.06L236.91,500.12L250.51,512L264.11,524.69L277.71,535.67L291.31,545.6L304.9,554.24L318.5,562.87L332.1,570.89L345.7,578.43L359.3,584.36L372.9,588.57L386.49,593.04L400.09,599.65L413.69,604.12L427.29,608.79L440.89,612.03L454.48,616.56L468.08,620.05L481.68,623.45L495.28,627.13L508.88,631.13L522.48,634.34L536.07,637.17L549.67,639.68L563.27,642.62L576.87,646.39L590.47,649.29L604.06,650.73L617.66,653.47L631.26,655.89L644.86,659.29L658.46,662.19L672.05,664.23L685.65,665.96L699.25,667.71L712.85,669.95L726.45,671.72L740.05,674.18L753.64,675.04L767.24,676.87L780.84,678.15L794.44,678.84L808.04,681.06L821.63,682.63L835.23,683.56L848.83,683.79L862.43,684.82L876.03,684.64L889.63,686.13L903.22,686.13L916.82,687.66L930.42,688.9L944.02,690.4L957.62,691.5L971.21,691.77L984.81,692.97L998.41,694.07L1012,696L1025.6,696.39L1039.2,697.75L1052.8,699.01L1066.4,700.33L1080,701.44" style="fill:none;stroke:#F15A60;stroke-width:1.875" />
<path d="M1055,694.3L1080,694.3" style="fill:none;stroke:#F15A60;stroke-width:1.875" />
<text x="1002.5" y="-687.85" transform="scale(1, -1)"
	style="font-family:Helvetica;font-weight:normal;font-style:normal;font-size:12pt">etcd v3</text>
</g>
</svg>
