<?xml version="1.0"?>
<!-- Generated by SVGo and Plotinum VG -->
<svg width="12in" height="8in"
	xmlns="http://www.w3.org/2000/svg"
	xmlns:xlink="http://www.w3.org/1999/xlink">
<g transform="scale(1, -1) translate(0, -720)">
<path d="M0,0L1080,0L1080,720L0,720Z" style="fill:#FFFFFF" />
<text x="171.52" y="-706.41" transform="scale(1, -1)"
	style="font-family:Helvetica;font-weight:normal;font-style:normal;font-size:12pt">Write 2M keys, 1000-client, 100-connections, 8-byte key, 256-byte value (etcd v3, Test 1), Latency(millisecond)</text>
<text x="541.16" y="-4.965" transform="scale(1, -1)"
	style="font-family:Helvetica;font-weight:normal;font-style:normal;font-size:12pt">Second</text>
<text x="49.712" y="-19.142" transform="scale(1, -1)"
	style="font-family:Helvetica;font-weight:normal;font-style:normal;font-size:10pt">0</text>
<text x="316.45" y="-19.142" transform="scale(1, -1)"
	style="font-family:Helvetica;font-weight:normal;font-style:normal;font-size:10pt">20</text>
<text x="586.67" y="-19.142" transform="scale(1, -1)"
	style="font-family:Helvetica;font-weight:normal;font-style:normal;font-size:10pt">40</text>
<text x="856.88" y="-19.142" transform="scale(1, -1)"
	style="font-family:Helvetica;font-weight:normal;font-style:normal;font-size:10pt">60</text>
<path d="M53.188,30.467L53.188,40.467" style="fill:none;stroke:#000000;stroke-width:0.625" />
<path d="M323.4,30.467L323.4,40.467" style="fill:none;stroke:#000000;stroke-width:0.625" />
<path d="M593.62,30.467L593.62,40.467" style="fill:none;stroke:#000000;stroke-width:0.625" />
<path d="M863.83,30.467L863.83,40.467" style="fill:none;stroke:#000000;stroke-width:0.625" />
<path d="M188.29,35.468L188.29,40.467" style="fill:none;stroke:#000000;stroke-width:0.625" />
<path d="M458.51,35.468L458.51,40.467" style="fill:none;stroke:#000000;stroke-width:0.625" />
<path d="M728.72,35.468L728.72,40.467" style="fill:none;stroke:#000000;stroke-width:0.625" />
<path d="M998.94,35.468L998.94,40.467" style="fill:none;stroke:#000000;stroke-width:0.625" />
<path d="M53.188,40.467L1080,40.467" style="fill:none;stroke:#000000;stroke-width:0.625" />
<g transform="rotate(90)">
<text x="305.89" y="13.59" transform="scale(1, -1)"
	style="font-family:Helvetica;font-weight:normal;font-style:normal;font-size:12pt">Latency(millisecond)</text>
</g>
<text x="18.555" y="-242.55" transform="scale(1, -1)"
	style="font-family:Helvetica;font-weight:normal;font-style:normal;font-size:10pt">36</text>
<text x="18.555" y="-447.26" transform="scale(1, -1)"
	style="font-family:Helvetica;font-weight:normal;font-style:normal;font-size:10pt">42</text>
<text x="18.555" y="-651.98" transform="scale(1, -1)"
	style="font-family:Helvetica;font-weight:normal;font-style:normal;font-size:10pt">48</text>
<path d="M35.93,247.92L45.93,247.92" style="fill:none;stroke:#000000;stroke-width:0.625" />
<path d="M35.93,452.63L45.93,452.63" style="fill:none;stroke:#000000;stroke-width:0.625" />
<path d="M35.93,657.34L45.93,657.34" style="fill:none;stroke:#000000;stroke-width:0.625" />
<path d="M40.93,111.44L45.93,111.44" style="fill:none;stroke:#000000;stroke-width:0.625" />
<path d="M40.93,179.68L45.93,179.68" style="fill:none;stroke:#000000;stroke-width:0.625" />
<path d="M40.93,316.15L45.93,316.15" style="fill:none;stroke:#000000;stroke-width:0.625" />
<path d="M40.93,384.39L45.93,384.39" style="fill:none;stroke:#000000;stroke-width:0.625" />
<path d="M40.93,520.87L45.93,520.87" style="fill:none;stroke:#000000;stroke-width:0.625" />
<path d="M40.93,589.11L45.93,589.11" style="fill:none;stroke:#000000;stroke-width:0.625" />
<path d="M45.93,47.03L45.93,701.44" style="fill:none;stroke:#000000;stroke-width:0.625" />
<path d="M53.188,47.03L66.698,61.629L80.209,192.1L93.72,252.35L107.23,202.66L120.74,233.34L134.25,235.98L147.76,273.65L161.27,393.99L174.78,267.09L188.29,331.85L201.81,335.25L215.32,230.01L228.83,337.65L242.34,261.04L255.85,269.8L269.36,265.61L282.87,328.17L296.38,323.22L309.89,248.97L323.4,285.32L336.91,413.5L350.42,462.66L363.93,473.64L377.44,303.08L390.95,271.86L404.47,412.22L417.98,450.34L431.49,379.04L445,352.1L458.51,314.43L472.02,443.81L485.53,286.14L499.04,299.25L512.55,379.13L526.06,449.59L539.57,269.17L553.08,350.07L566.59,257.12L580.1,394.87L593.62,326.74L607.13,409.51L620.64,332.02L634.15,214.68L647.66,283.24L661.17,397.58L674.68,366.18L688.19,463.63L701.7,235.26L715.21,285.66L728.72,255.06L742.23,548.09L755.74,268.72L769.25,318.04L782.76,525.72L796.28,318.94L809.79,320.74L823.3,626.42L836.81,555.67L850.32,452.81L863.83,531.47L877.34,329.82L890.85,701.44L904.36,145.99L917.87,441.47L931.38,261.1L944.89,502.44L958.4,337.8L971.91,459.49L985.43,219.36L998.94,447.04L1012.4,239.41L1026,540.45L1039.5,132.96L1053,536.76L1066.5,261.25L1080,288.23" style="fill:none;stroke:#F15A60;stroke-width:1.875" />
<path d="M1055,694.3L1080,694.3" style="fill:none;stroke:#F15A60;stroke-width:1.875" />
<text x="1002.5" y="-687.85" transform="scale(1, -1)"
	style="font-family:Helvetica;font-weight:normal;font-style:normal;font-size:12pt">etcd v3</text>
</g>
</svg>
