<?xml version="1.0"?>
<!-- Generated by SVGo and Plotinum VG -->
<svg width="12in" height="8in"
	xmlns="http://www.w3.org/2000/svg"
	xmlns:xlink="http://www.w3.org/1999/xlink">
<g transform="scale(1, -1) translate(0, -720)">
<path d="M0,0L1080,0L1080,720L0,720Z" style="fill:#FFFFFF" />
<text x="201.52" y="-706.41" transform="scale(1, -1)"
	style="font-family:Helvetica;font-weight:normal;font-style:normal;font-size:12pt">Write 2M keys, 1000-client, 100-connections, 8-byte key, 256-byte value (etcd v3, Test 2), Throughput</text>
<text x="556.97" y="-4.965" transform="scale(1, -1)"
	style="font-family:Helvetica;font-weight:normal;font-style:normal;font-size:12pt">Second</text>
<text x="81.337" y="-19.142" transform="scale(1, -1)"
	style="font-family:Helvetica;font-weight:normal;font-style:normal;font-size:10pt">0</text>
<text x="336.35" y="-19.142" transform="scale(1, -1)"
	style="font-family:Helvetica;font-weight:normal;font-style:normal;font-size:10pt">20</text>
<text x="594.84" y="-19.142" transform="scale(1, -1)"
	style="font-family:Helvetica;font-weight:normal;font-style:normal;font-size:10pt">40</text>
<text x="853.33" y="-19.142" transform="scale(1, -1)"
	style="font-family:Helvetica;font-weight:normal;font-style:normal;font-size:10pt">60</text>
<path d="M84.812,30.467L84.812,40.467" style="fill:none;stroke:#000000;stroke-width:0.625" />
<path d="M343.3,30.467L343.3,40.467" style="fill:none;stroke:#000000;stroke-width:0.625" />
<path d="M601.79,30.467L601.79,40.467" style="fill:none;stroke:#000000;stroke-width:0.625" />
<path d="M860.28,30.467L860.28,40.467" style="fill:none;stroke:#000000;stroke-width:0.625" />
<path d="M214.06,35.468L214.06,40.467" style="fill:none;stroke:#000000;stroke-width:0.625" />
<path d="M472.55,35.468L472.55,40.467" style="fill:none;stroke:#000000;stroke-width:0.625" />
<path d="M731.04,35.468L731.04,40.467" style="fill:none;stroke:#000000;stroke-width:0.625" />
<path d="M989.53,35.468L989.53,40.467" style="fill:none;stroke:#000000;stroke-width:0.625" />
<path d="M84.812,40.467L1080,40.467" style="fill:none;stroke:#000000;stroke-width:0.625" />
<g transform="rotate(90)">
<text x="335.88" y="13.59" transform="scale(1, -1)"
	style="font-family:Helvetica;font-weight:normal;font-style:normal;font-size:12pt">Throughput</text>
</g>
<text x="36.28" y="-65.352" transform="scale(1, -1)"
	style="font-family:Helvetica;font-weight:normal;font-style:normal;font-size:10pt">8000</text>
<text x="18.555" y="-250.07" transform="scale(1, -1)"
	style="font-family:Helvetica;font-weight:normal;font-style:normal;font-size:10pt">1.6e+04</text>
<text x="18.555" y="-434.79" transform="scale(1, -1)"
	style="font-family:Helvetica;font-weight:normal;font-style:normal;font-size:10pt">2.4e+04</text>
<text x="18.555" y="-619.51" transform="scale(1, -1)"
	style="font-family:Helvetica;font-weight:normal;font-style:normal;font-size:10pt">3.2e+04</text>
<path d="M67.555,70.72L77.555,70.72" style="fill:none;stroke:#000000;stroke-width:0.625" />
<path d="M67.555,255.44L77.555,255.44" style="fill:none;stroke:#000000;stroke-width:0.625" />
<path d="M67.555,440.16L77.555,440.16" style="fill:none;stroke:#000000;stroke-width:0.625" />
<path d="M67.555,624.88L77.555,624.88" style="fill:none;stroke:#000000;stroke-width:0.625" />
<path d="M72.555,163.08L77.555,163.08" style="fill:none;stroke:#000000;stroke-width:0.625" />
<path d="M72.555,347.8L77.555,347.8" style="fill:none;stroke:#000000;stroke-width:0.625" />
<path d="M72.555,532.52L77.555,532.52" style="fill:none;stroke:#000000;stroke-width:0.625" />
<path d="M77.555,47.03L77.555,701.44" style="fill:none;stroke:#000000;stroke-width:0.625" />
<path d="M84.812,47.03L97.737,701.44L110.66,570.73L123.59,566.95L136.51,551.52L149.44,553.09L162.36,529.54L175.28,520.77L188.21,480.98L201.13,520.14L214.06,461.68L226.98,484.21L239.91,434.23L252.83,507.14L265.76,500.54L278.68,493.91L291.6,517.79L304.53,476.2L317.45,423.07L330.38,491.6L343.3,448.26L356.23,457.06L369.15,547.39L382.08,472.67L395,460.5L407.93,513.47L420.85,486.78L433.77,487.96L446.7,457.87L459.62,511.65L472.55,469.88L485.47,461.79L498.4,479.02L511.32,439.56L524.25,488.26L537.17,514.6L550.09,444.11L563.02,454.82L575.94,539.35L588.87,485.48L601.79,516.36L614.72,449.05L627.64,533.14L640.57,538.52L653.49,466.16L666.42,534.44L679.34,494.17L692.26,529.82L705.19,485.28L718.11,471.42L731.04,495.44L743.96,506.91L756.89,498.25L769.81,529.33L782.74,506.57L795.66,467.27L808.59,514.21L821.51,415.38L834.43,521.48L847.36,484.93L860.28,433.21L873.21,508.21L886.13,441.11L899.06,435.59L911.98,457.2L924.91,411.27L937.83,398.99L950.75,565.77L963.68,348.63L976.6,402.06L989.53,438.5L1002.5,358.98L1015.4,379.36L1028.3,458.84L1041.2,411.2L1054.2,383.31L1067.1,335.84L1080,581.61" style="fill:none;stroke:#F15A60;stroke-width:1.875" />
<path d="M1055,694.3L1080,694.3" style="fill:none;stroke:#F15A60;stroke-width:1.875" />
<text x="1002.5" y="-687.85" transform="scale(1, -1)"
	style="font-family:Helvetica;font-weight:normal;font-style:normal;font-size:12pt">etcd v3</text>
</g>
</svg>
