<?xml version="1.0"?>
<!-- Generated by SVGo and Plotinum VG -->
<svg width="12in" height="8in"
	xmlns="http://www.w3.org/2000/svg"
	xmlns:xlink="http://www.w3.org/1999/xlink">
<g transform="scale(1, -1) translate(0, -720)">
<path d="M0,0L1080,0L1080,720L0,720Z" style="fill:#FFFFFF" />
<text x="224.04" y="-706.41" transform="scale(1, -1)"
	style="font-family:Helvetica;font-weight:normal;font-style:normal;font-size:12pt">Write 2M keys, 1000-client, 100-connections, 8-byte key, 256-byte value (etcd v3, Test 3), CPU</text>
<text x="544.64" y="-4.965" transform="scale(1, -1)"
	style="font-family:Helvetica;font-weight:normal;font-style:normal;font-size:12pt">Second</text>
<text x="56.662" y="-19.142" transform="scale(1, -1)"
	style="font-family:Helvetica;font-weight:normal;font-style:normal;font-size:10pt">0</text>
<text x="325.15" y="-19.142" transform="scale(1, -1)"
	style="font-family:Helvetica;font-weight:normal;font-style:normal;font-size:10pt">20</text>
<text x="597.11" y="-19.142" transform="scale(1, -1)"
	style="font-family:Helvetica;font-weight:normal;font-style:normal;font-size:10pt">40</text>
<text x="869.08" y="-19.142" transform="scale(1, -1)"
	style="font-family:Helvetica;font-weight:normal;font-style:normal;font-size:10pt">60</text>
<path d="M60.137,30.467L60.137,40.467" style="fill:none;stroke:#000000;stroke-width:0.625" />
<path d="M332.1,30.467L332.1,40.467" style="fill:none;stroke:#000000;stroke-width:0.625" />
<path d="M604.06,30.467L604.06,40.467" style="fill:none;stroke:#000000;stroke-width:0.625" />
<path d="M876.03,30.467L876.03,40.467" style="fill:none;stroke:#000000;stroke-width:0.625" />
<path d="M196.12,35.468L196.12,40.467" style="fill:none;stroke:#000000;stroke-width:0.625" />
<path d="M468.08,35.468L468.08,40.467" style="fill:none;stroke:#000000;stroke-width:0.625" />
<path d="M740.05,35.468L740.05,40.467" style="fill:none;stroke:#000000;stroke-width:0.625" />
<path d="M1012,35.468L1012,40.467" style="fill:none;stroke:#000000;stroke-width:0.625" />
<path d="M60.137,40.467L1080,40.467" style="fill:none;stroke:#000000;stroke-width:0.625" />
<g transform="rotate(90)">
<text x="358.4" y="13.59" transform="scale(1, -1)"
	style="font-family:Helvetica;font-weight:normal;font-style:normal;font-size:12pt">CPU</text>
</g>
<text x="18.555" y="-198.42" transform="scale(1, -1)"
	style="font-family:Helvetica;font-weight:normal;font-style:normal;font-size:10pt">100</text>
<text x="18.555" y="-359.51" transform="scale(1, -1)"
	style="font-family:Helvetica;font-weight:normal;font-style:normal;font-size:10pt">200</text>
<text x="18.555" y="-520.6" transform="scale(1, -1)"
	style="font-family:Helvetica;font-weight:normal;font-style:normal;font-size:10pt">300</text>
<text x="18.555" y="-681.69" transform="scale(1, -1)"
	style="font-family:Helvetica;font-weight:normal;font-style:normal;font-size:10pt">400</text>
<path d="M42.88,203.79L52.88,203.79" style="fill:none;stroke:#000000;stroke-width:0.625" />
<path d="M42.88,364.88L52.88,364.88" style="fill:none;stroke:#000000;stroke-width:0.625" />
<path d="M42.88,525.97L52.88,525.97" style="fill:none;stroke:#000000;stroke-width:0.625" />
<path d="M42.88,687.06L52.88,687.06" style="fill:none;stroke:#000000;stroke-width:0.625" />
<path d="M47.88,123.24L52.88,123.24" style="fill:none;stroke:#000000;stroke-width:0.625" />
<path d="M47.88,284.33L52.88,284.33" style="fill:none;stroke:#000000;stroke-width:0.625" />
<path d="M47.88,445.42L52.88,445.42" style="fill:none;stroke:#000000;stroke-width:0.625" />
<path d="M47.88,606.51L52.88,606.51" style="fill:none;stroke:#000000;stroke-width:0.625" />
<path d="M52.88,47.03L52.88,701.44" style="fill:none;stroke:#000000;stroke-width:0.625" />
<path d="M60.137,47.03L73.736,127.51L87.334,195.83L100.93,252.31L114.53,300.75L128.13,337.7L141.73,370.4L155.32,399.79L168.92,422.4L182.52,444.67L196.12,464.11L209.72,481.7L223.32,495.54L236.91,508.36L250.51,520.98L264.11,532.33L277.71,541.82L291.31,551.37L304.9,559.83L318.5,567.45L332.1,576.49L345.7,584.24L359.3,589.5L372.9,595.85L386.49,601.12L400.09,607.84L413.69,613.17L427.29,618.74L440.89,623.32L454.48,628.34L468.08,632.69L481.68,636.93L495.28,639.75L508.88,644.24L522.48,647.67L536.07,651.49L549.67,653.49L563.27,656.79L576.87,658.08L590.47,661.09L604.06,662.24L617.66,663.36L631.26,664.43L644.86,665.44L658.46,666.71L672.05,668.08L685.65,669.53L699.25,672.29L712.85,673.32L726.45,674.4L740.05,675.82L753.64,677.2L767.24,677.33L780.84,678.6L794.44,679.89L808.04,681.79L821.63,683.45L835.23,685.06L848.83,685.8L862.43,687.11L876.03,688.33L889.63,689.65L903.22,691.25L916.82,692.78L930.42,693.36L944.02,694.49L957.62,694.32L971.21,695.03L984.81,696.11L998.41,696.26L1012,698.82L1025.6,700.19L1039.2,700.51L1052.8,700.45L1066.4,700.9L1080,701.44" style="fill:none;stroke:#F15A60;stroke-width:1.875" />
<path d="M60.137,119.47L73.736,183.44L87.334,233.03L100.93,279.66L114.53,319.74L128.13,347.11L141.73,371.05L155.32,394.95L168.92,416.36L182.52,435.02L196.12,446.68L209.72,463.39L223.32,479.62L236.91,495.54L250.51,506.85L264.11,517.33L277.71,527.93L291.31,536.94L304.9,546.72L318.5,555.98L332.1,562.55L345.7,568.38L359.3,576.1L372.9,581.59L386.49,587.04L400.09,593.3L413.69,597.56L427.29,602.39L440.89,606.98L454.48,612.7L468.08,616.29L481.68,619.19L495.28,622.53L508.88,626.62L522.48,629.13L536.07,631.21L549.67,633.66L563.27,635.29L576.87,638.57L590.47,641.21L604.06,643.31L617.66,645.48L631.26,647.29L644.86,649.82L658.46,651.8L672.05,654.41L685.65,657.56L699.25,658.88L712.85,660.48L726.45,661.27L740.05,662.49L753.64,663.88L767.24,665.31L780.84,667.49L794.44,669.29L808.04,670.93L821.63,672.08L835.23,672.58L848.83,674.19L862.43,674.74L876.03,676.07L889.63,676.25L903.22,676.72L916.82,676.85L930.42,678.25L944.02,679.5L957.62,680.04L971.21,679.92L984.81,680.79L998.41,681.47L1012,681.42L1025.6,682.21" style="fill:none;stroke:#7AC36A;stroke-width:1.875;stroke-dasharray:7.5,2.5" />
<path d="M1055,694.3L1080,694.3" style="fill:none;stroke:#F15A60;stroke-width:1.875" />
<text x="947.45" y="-687.85" transform="scale(1, -1)"
	style="font-family:Helvetica;font-weight:normal;font-style:normal;font-size:12pt">etcd v3 (Go1.6)</text>
<path d="M1055,680L1080,680" style="fill:none;stroke:#7AC36A;stroke-width:1.875;stroke-dasharray:7.5,2.5" />
<text x="947.45" y="-673.56" transform="scale(1, -1)"
	style="font-family:Helvetica;font-weight:normal;font-style:normal;font-size:12pt">etcd v3 (Go1.7)</text>
</g>
</svg>
