<?xml version="1.0"?>
<!-- Generated by SVGo and Plotinum VG -->
<svg width="12in" height="8in"
	xmlns="http://www.w3.org/2000/svg"
	xmlns:xlink="http://www.w3.org/1999/xlink">
<g transform="scale(1, -1) translate(0, -720)">
<path d="M0,0L1080,0L1080,720L0,720Z" style="fill:#FFFFFF" />
<text x="201.52" y="-706.41" transform="scale(1, -1)"
	style="font-family:Helvetica;font-weight:normal;font-style:normal;font-size:12pt">Write 2M keys, 1000-client, 100-connections, 8-byte key, 256-byte value (etcd v3, Test 3), Throughput</text>
<text x="556.97" y="-4.965" transform="scale(1, -1)"
	style="font-family:Helvetica;font-weight:normal;font-style:normal;font-size:12pt">Second</text>
<text x="81.337" y="-19.142" transform="scale(1, -1)"
	style="font-family:Helvetica;font-weight:normal;font-style:normal;font-size:10pt">0</text>
<text x="339.75" y="-19.142" transform="scale(1, -1)"
	style="font-family:Helvetica;font-weight:normal;font-style:normal;font-size:10pt">20</text>
<text x="601.65" y="-19.142" transform="scale(1, -1)"
	style="font-family:Helvetica;font-weight:normal;font-style:normal;font-size:10pt">40</text>
<text x="863.54" y="-19.142" transform="scale(1, -1)"
	style="font-family:Helvetica;font-weight:normal;font-style:normal;font-size:10pt">60</text>
<path d="M84.812,30.467L84.812,40.467" style="fill:none;stroke:#000000;stroke-width:0.625" />
<path d="M346.7,30.467L346.7,40.467" style="fill:none;stroke:#000000;stroke-width:0.625" />
<path d="M608.6,30.467L608.6,40.467" style="fill:none;stroke:#000000;stroke-width:0.625" />
<path d="M870.49,30.467L870.49,40.467" style="fill:none;stroke:#000000;stroke-width:0.625" />
<path d="M215.76,35.468L215.76,40.467" style="fill:none;stroke:#000000;stroke-width:0.625" />
<path d="M477.65,35.468L477.65,40.467" style="fill:none;stroke:#000000;stroke-width:0.625" />
<path d="M739.54,35.468L739.54,40.467" style="fill:none;stroke:#000000;stroke-width:0.625" />
<path d="M1001.4,35.468L1001.4,40.467" style="fill:none;stroke:#000000;stroke-width:0.625" />
<path d="M84.812,40.467L1080,40.467" style="fill:none;stroke:#000000;stroke-width:0.625" />
<g transform="rotate(90)">
<text x="335.88" y="13.59" transform="scale(1, -1)"
	style="font-family:Helvetica;font-weight:normal;font-style:normal;font-size:12pt">Throughput</text>
</g>
<text x="18.555" y="-207.57" transform="scale(1, -1)"
	style="font-family:Helvetica;font-weight:normal;font-style:normal;font-size:10pt">2.4e+04</text>
<text x="18.555" y="-424.15" transform="scale(1, -1)"
	style="font-family:Helvetica;font-weight:normal;font-style:normal;font-size:10pt">2.8e+04</text>
<text x="18.555" y="-640.74" transform="scale(1, -1)"
	style="font-family:Helvetica;font-weight:normal;font-style:normal;font-size:10pt">3.2e+04</text>
<path d="M67.555,212.93L77.555,212.93" style="fill:none;stroke:#000000;stroke-width:0.625" />
<path d="M67.555,429.52L77.555,429.52" style="fill:none;stroke:#000000;stroke-width:0.625" />
<path d="M67.555,646.11L77.555,646.11" style="fill:none;stroke:#000000;stroke-width:0.625" />
<path d="M72.555,104.64L77.555,104.64" style="fill:none;stroke:#000000;stroke-width:0.625" />
<path d="M72.555,321.23L77.555,321.23" style="fill:none;stroke:#000000;stroke-width:0.625" />
<path d="M72.555,537.81L77.555,537.81" style="fill:none;stroke:#000000;stroke-width:0.625" />
<path d="M77.555,47.03L77.555,701.44" style="fill:none;stroke:#000000;stroke-width:0.625" />
<path d="M84.812,576.04L97.907,701.44L111,510.85L124.1,474.63L137.19,384.2L150.29,396.98L163.38,387.77L176.47,318.79L189.57,375.86L202.66,419.67L215.76,366.01L228.85,296L241.95,277.86L255.04,393.03L268.14,322.91L281.23,319.44L294.33,373.32L307.42,331.08L320.51,300.11L333.61,366.49L346.7,370.72L359.8,325.18L372.89,225.23L385.99,409.32L399.08,451.61L412.18,305.47L425.27,464.82L438.37,239.79L451.46,450.1L464.56,378.3L477.65,360.38L490.74,314.35L503.84,324.04L516.93,334.44L530.03,342.35L543.12,382.96L556.22,214.02L569.31,390.54L582.41,215.48L595.5,173.95L608.6,194.8L621.69,188.03L634.78,222.41L647.88,230.53L660.97,153.37L674.07,122.35L687.16,359.4L700.26,382.68L713.35,165.29L726.45,249.05L739.54,170.11L752.64,281.76L765.73,170.59L778.82,187.27L791.92,197.02L805.01,375.1L818.11,460.49L831.2,295.67L844.3,238.76L857.39,195.34L870.49,469.7L883.58,239.09L896.68,255.93L909.77,388.42L922.87,158.03L935.96,320.63L949.05,81.413L962.15,284.62L975.24,276.23L988.34,155.49L1001.4,596.83L1014.5,47.03L1027.6,140.6L1040.7,301.36L1053.8,98.632L1066.9,138.86L1080,255.44" style="fill:none;stroke:#F15A60;stroke-width:1.875" />
<path d="M84.812,523.14L97.907,639.56L111,427.25L124.1,532.13L137.19,537.71L150.29,450.04L163.38,403.26L176.47,404.34L189.57,485.29L202.66,493.85L215.76,550.65L228.85,516.81L241.95,512.04L255.04,415.06L268.14,471.05L281.23,462.44L294.33,353.61L307.42,531.53L320.51,454.1L333.61,375.48L346.7,388.1L359.8,505.65L372.89,395.79L385.99,404.07L399.08,419.56L412.18,444.63L425.27,335.09L438.37,465.96L451.46,537L464.56,355.61L477.65,412.79L490.74,333.36L503.84,484.05L516.93,214.72L530.03,420.32L543.12,250.57L556.22,314.03L569.31,358.43L582.41,471.97L595.5,335.69L608.6,419.94L621.69,323.66L634.78,337.26L647.88,440.68L660.97,431.04L674.07,453.35L687.16,366.6L700.26,278.72L713.35,359.56L726.45,376.3L739.54,291.72L752.64,303.31L765.73,408.35L778.82,345L791.92,419.4L805.01,399.14L818.11,126.14L831.2,370.83L844.3,343.54L857.39,285.82L870.49,199.83L883.58,169.51L896.68,376.08L909.77,59.7L922.87,603.44L935.96,74.103L949.05,190.52L962.15,359.18L975.24,191.87L988.34,216.83L1001.4,287.66L1014.5,355.88L1027.6,375" style="fill:none;stroke:#7AC36A;stroke-width:1.875;stroke-dasharray:7.5,2.5" />
<path d="M1055,694.3L1080,694.3" style="fill:none;stroke:#F15A60;stroke-width:1.875" />
<text x="943.28" y="-687.85" transform="scale(1, -1)"
	style="font-family:Helvetica;font-weight:normal;font-style:normal;font-size:12pt">etcd v3 (Go 1.6)</text>
<path d="M1055,680L1080,680" style="fill:none;stroke:#7AC36A;stroke-width:1.875;stroke-dasharray:7.5,2.5" />
<text x="943.28" y="-673.56" transform="scale(1, -1)"
	style="font-family:Helvetica;font-weight:normal;font-style:normal;font-size:12pt">etcd v3 (Go 1.7)</text>
</g>
</svg>
