<?xml version="1.0"?>
<!-- Generated by SVGo and Plotinum VG -->
<svg width="12in" height="8in"
	xmlns="http://www.w3.org/2000/svg"
	xmlns:xlink="http://www.w3.org/1999/xlink">
<g transform="scale(1, -1) translate(0, -720)">
<path d="M0,0L1080,0L1080,720L0,720Z" style="fill:#FFFFFF" />
<text x="248.65" y="-706.41" transform="scale(1, -1)"
	style="font-family:Helvetica;font-weight:normal;font-style:normal;font-size:12pt">Write 500K keys, 1000-client, 8-byte key, 256-byte value (etcd v2, Test 1), Memory(MB)</text>
<text x="548.11" y="-4.965" transform="scale(1, -1)"
	style="font-family:Helvetica;font-weight:normal;font-style:normal;font-size:12pt">Second</text>
<text x="63.613" y="-19.142" transform="scale(1, -1)"
	style="font-family:Helvetica;font-weight:normal;font-style:normal;font-size:10pt">0</text>
<text x="382.72" y="-19.142" transform="scale(1, -1)"
	style="font-family:Helvetica;font-weight:normal;font-style:normal;font-size:10pt">50</text>
<text x="701.83" y="-19.142" transform="scale(1, -1)"
	style="font-family:Helvetica;font-weight:normal;font-style:normal;font-size:10pt">100</text>
<text x="1024.4" y="-19.142" transform="scale(1, -1)"
	style="font-family:Helvetica;font-weight:normal;font-style:normal;font-size:10pt">150</text>
<path d="M67.088,30.467L67.088,40.467" style="fill:none;stroke:#000000;stroke-width:0.625" />
<path d="M389.67,30.467L389.67,40.467" style="fill:none;stroke:#000000;stroke-width:0.625" />
<path d="M712.25,30.467L712.25,40.467" style="fill:none;stroke:#000000;stroke-width:0.625" />
<path d="M1034.8,30.467L1034.8,40.467" style="fill:none;stroke:#000000;stroke-width:0.625" />
<path d="M131.6,35.468L131.6,40.467" style="fill:none;stroke:#000000;stroke-width:0.625" />
<path d="M196.12,35.468L196.12,40.467" style="fill:none;stroke:#000000;stroke-width:0.625" />
<path d="M260.64,35.468L260.64,40.467" style="fill:none;stroke:#000000;stroke-width:0.625" />
<path d="M325.15,35.468L325.15,40.467" style="fill:none;stroke:#000000;stroke-width:0.625" />
<path d="M454.19,35.468L454.19,40.467" style="fill:none;stroke:#000000;stroke-width:0.625" />
<path d="M518.7,35.468L518.7,40.467" style="fill:none;stroke:#000000;stroke-width:0.625" />
<path d="M583.22,35.468L583.22,40.467" style="fill:none;stroke:#000000;stroke-width:0.625" />
<path d="M647.74,35.468L647.74,40.467" style="fill:none;stroke:#000000;stroke-width:0.625" />
<path d="M776.77,35.468L776.77,40.467" style="fill:none;stroke:#000000;stroke-width:0.625" />
<path d="M841.29,35.468L841.29,40.467" style="fill:none;stroke:#000000;stroke-width:0.625" />
<path d="M905.8,35.468L905.8,40.467" style="fill:none;stroke:#000000;stroke-width:0.625" />
<path d="M970.32,35.468L970.32,40.467" style="fill:none;stroke:#000000;stroke-width:0.625" />
<path d="M67.088,40.467L1080,40.467" style="fill:none;stroke:#000000;stroke-width:0.625" />
<g transform="rotate(90)">
<text x="330.91" y="13.59" transform="scale(1, -1)"
	style="font-family:Helvetica;font-weight:normal;font-style:normal;font-size:12pt">Memory(MB)</text>
</g>
<text x="25.505" y="-233.3" transform="scale(1, -1)"
	style="font-family:Helvetica;font-weight:normal;font-style:normal;font-size:10pt">800</text>
<text x="18.555" y="-430.24" transform="scale(1, -1)"
	style="font-family:Helvetica;font-weight:normal;font-style:normal;font-size:10pt">1600</text>
<text x="18.555" y="-627.18" transform="scale(1, -1)"
	style="font-family:Helvetica;font-weight:normal;font-style:normal;font-size:10pt">2400</text>
<path d="M49.83,238.67L59.83,238.67" style="fill:none;stroke:#000000;stroke-width:0.625" />
<path d="M49.83,435.61L59.83,435.61" style="fill:none;stroke:#000000;stroke-width:0.625" />
<path d="M49.83,632.55L59.83,632.55" style="fill:none;stroke:#000000;stroke-width:0.625" />
<path d="M54.83,140.2L59.83,140.2" style="fill:none;stroke:#000000;stroke-width:0.625" />
<path d="M54.83,337.14L59.83,337.14" style="fill:none;stroke:#000000;stroke-width:0.625" />
<path d="M54.83,534.08L59.83,534.08" style="fill:none;stroke:#000000;stroke-width:0.625" />
<path d="M59.83,47.03L59.83,701.44" style="fill:none;stroke:#000000;stroke-width:0.625" />
<path d="M67.088,47.03L73.539,68.895L79.991,87.097L86.443,108.09L92.894,130.48L99.346,145.78L105.8,173.01L112.25,173.44L118.7,177.88L125.15,177.88L131.6,177.88L138.06,177.88L144.51,177.88L150.96,177.92L157.41,178.49L163.86,178.59L170.31,182.61L176.77,182.61L183.22,182.61L189.67,182.61L196.12,182.61L202.57,182.63L209.02,182.63L215.48,182.63L221.93,182.63L228.38,182.63L234.83,182.63L241.28,182.63L247.73,182.63L254.19,182.63L260.64,182.63L267.09,182.63L273.54,182.63L279.99,182.63L286.44,182.63L292.9,182.63L299.35,182.63L305.8,182.63L312.25,182.63L318.7,182.63L325.15,182.63L331.61,182.63L338.06,182.63L344.51,182.63L350.96,182.63L357.41,182.63L363.86,182.63L370.32,182.63L376.77,182.63L383.22,182.63L389.67,182.63L396.12,182.63L402.57,182.63L409.03,182.63L415.48,182.63L421.93,182.63L428.38,182.63L434.83,182.63L441.28,182.63L447.74,182.63L454.19,182.63L460.64,182.66L467.09,211.87L473.54,231.34L479.99,249.2L486.45,266.09L492.9,297.74L499.35,306.3L505.8,369.35L512.25,416.92L518.7,440.62L525.16,465.2L531.61,487.22L538.06,487.22L544.51,487.22L550.96,487.9L557.41,487.9L563.87,487.9L570.32,487.9L576.77,488.44L583.22,488.44L589.67,488.44L596.12,488.61L602.58,488.61L609.03,488.61L615.48,488.61L621.93,488.61L628.38,488.61L634.83,488.61L641.29,488.61L647.74,488.61L654.19,488.61L660.64,488.61L667.09,488.61L673.54,488.61L680,488.61L686.45,488.61L692.9,488.61L699.35,488.61L705.8,488.61L712.25,488.61L718.71,488.61L725.16,488.61L731.61,488.61L738.06,488.61L744.51,488.61L750.96,488.61L757.42,488.61L763.87,488.61L770.32,488.61L776.77,488.61L783.22,488.61L789.67,488.61L796.13,488.61L802.58,488.61L809.03,488.61L815.48,488.61L821.93,488.61L828.38,488.61L834.84,488.61L841.29,488.61L847.74,488.63L854.19,488.65L860.64,488.75L867.09,489.05L873.55,490.82L880,498.28L886.45,514.69L892.9,522.04L899.35,525.73L905.8,539.11L912.26,542.36L918.71,547.19L925.16,599.94L931.61,615.82L938.06,630.79L944.51,643.3L950.97,643.32L957.42,654.1L963.87,654.1L970.32,654.43L976.77,654.43L983.22,654.45L989.68,654.78L996.13,681.37L1002.6,681.37L1009,681.37L1015.5,681.37L1021.9,681.37L1028.4,681.37L1034.8,681.37L1041.3,681.37L1047.7,681.37L1054.2,681.37L1060.6,681.37L1067.1,681.37L1073.5,701.44L1080,701.44" style="fill:none;stroke:#F15A60;stroke-width:1.875" />
<path d="M1055,694.3L1080,694.3" style="fill:none;stroke:#F15A60;stroke-width:1.875" />
<text x="1002.5" y="-687.85" transform="scale(1, -1)"
	style="font-family:Helvetica;font-weight:normal;font-style:normal;font-size:12pt">etcd v2</text>
</g>
</svg>
