<?xml version="1.0"?>
<!-- Generated by SVGo and Plotinum VG -->
<svg width="12in" height="8in"
	xmlns="http://www.w3.org/2000/svg"
	xmlns:xlink="http://www.w3.org/1999/xlink">
<g transform="scale(1, -1) translate(0, -720)">
<path d="M0,0L1080,0L1080,720L0,720Z" style="fill:#FFFFFF" />
<text x="223.63" y="-706.41" transform="scale(1, -1)"
	style="font-family:Helvetica;font-weight:normal;font-style:normal;font-size:12pt">Write 500K keys, 1000-client, 8-byte key, 256-byte value (etcd v2, Test 1), Latency(millisecond)</text>
<text x="548.11" y="-4.965" transform="scale(1, -1)"
	style="font-family:Helvetica;font-weight:normal;font-style:normal;font-size:12pt">Second</text>
<text x="63.613" y="-19.142" transform="scale(1, -1)"
	style="font-family:Helvetica;font-weight:normal;font-style:normal;font-size:10pt">0</text>
<text x="380.68" y="-19.142" transform="scale(1, -1)"
	style="font-family:Helvetica;font-weight:normal;font-style:normal;font-size:10pt">50</text>
<text x="697.75" y="-19.142" transform="scale(1, -1)"
	style="font-family:Helvetica;font-weight:normal;font-style:normal;font-size:10pt">100</text>
<text x="1018.3" y="-19.142" transform="scale(1, -1)"
	style="font-family:Helvetica;font-weight:normal;font-style:normal;font-size:10pt">150</text>
<path d="M67.088,30.467L67.088,40.467" style="fill:none;stroke:#000000;stroke-width:0.625" />
<path d="M387.63,30.467L387.63,40.467" style="fill:none;stroke:#000000;stroke-width:0.625" />
<path d="M708.17,30.467L708.17,40.467" style="fill:none;stroke:#000000;stroke-width:0.625" />
<path d="M1028.7,30.467L1028.7,40.467" style="fill:none;stroke:#000000;stroke-width:0.625" />
<path d="M131.2,35.468L131.2,40.467" style="fill:none;stroke:#000000;stroke-width:0.625" />
<path d="M195.3,35.468L195.3,40.467" style="fill:none;stroke:#000000;stroke-width:0.625" />
<path d="M259.41,35.468L259.41,40.467" style="fill:none;stroke:#000000;stroke-width:0.625" />
<path d="M323.52,35.468L323.52,40.467" style="fill:none;stroke:#000000;stroke-width:0.625" />
<path d="M451.74,35.468L451.74,40.467" style="fill:none;stroke:#000000;stroke-width:0.625" />
<path d="M515.85,35.468L515.85,40.467" style="fill:none;stroke:#000000;stroke-width:0.625" />
<path d="M579.95,35.468L579.95,40.467" style="fill:none;stroke:#000000;stroke-width:0.625" />
<path d="M644.06,35.468L644.06,40.467" style="fill:none;stroke:#000000;stroke-width:0.625" />
<path d="M772.28,35.468L772.28,40.467" style="fill:none;stroke:#000000;stroke-width:0.625" />
<path d="M836.39,35.468L836.39,40.467" style="fill:none;stroke:#000000;stroke-width:0.625" />
<path d="M900.5,35.468L900.5,40.467" style="fill:none;stroke:#000000;stroke-width:0.625" />
<path d="M964.6,35.468L964.6,40.467" style="fill:none;stroke:#000000;stroke-width:0.625" />
<path d="M67.088,40.467L1080,40.467" style="fill:none;stroke:#000000;stroke-width:0.625" />
<g transform="rotate(90)">
<text x="305.89" y="13.59" transform="scale(1, -1)"
	style="font-family:Helvetica;font-weight:normal;font-style:normal;font-size:12pt">Latency(millisecond)</text>
</g>
<text x="39.405" y="-41.661" transform="scale(1, -1)"
	style="font-family:Helvetica;font-weight:normal;font-style:normal;font-size:10pt">0</text>
<text x="25.505" y="-249.63" transform="scale(1, -1)"
	style="font-family:Helvetica;font-weight:normal;font-style:normal;font-size:10pt">600</text>
<text x="18.555" y="-457.59" transform="scale(1, -1)"
	style="font-family:Helvetica;font-weight:normal;font-style:normal;font-size:10pt">1200</text>
<text x="18.555" y="-665.55" transform="scale(1, -1)"
	style="font-family:Helvetica;font-weight:normal;font-style:normal;font-size:10pt">1800</text>
<path d="M49.83,47.03L59.83,47.03" style="fill:none;stroke:#000000;stroke-width:0.625" />
<path d="M49.83,254.99L59.83,254.99" style="fill:none;stroke:#000000;stroke-width:0.625" />
<path d="M49.83,462.96L59.83,462.96" style="fill:none;stroke:#000000;stroke-width:0.625" />
<path d="M49.83,670.92L59.83,670.92" style="fill:none;stroke:#000000;stroke-width:0.625" />
<path d="M54.83,116.35L59.83,116.35" style="fill:none;stroke:#000000;stroke-width:0.625" />
<path d="M54.83,185.67L59.83,185.67" style="fill:none;stroke:#000000;stroke-width:0.625" />
<path d="M54.83,324.32L59.83,324.32" style="fill:none;stroke:#000000;stroke-width:0.625" />
<path d="M54.83,393.64L59.83,393.64" style="fill:none;stroke:#000000;stroke-width:0.625" />
<path d="M54.83,532.28L59.83,532.28" style="fill:none;stroke:#000000;stroke-width:0.625" />
<path d="M54.83,601.6L59.83,601.6" style="fill:none;stroke:#000000;stroke-width:0.625" />
<path d="M59.83,47.03L59.83,701.44" style="fill:none;stroke:#000000;stroke-width:0.625" />
<path d="M67.088,60.089L73.498,59.694L79.909,61.156L86.32,63.259L92.731,65.654L99.142,67.753L105.55,145.68L111.96,179.4L118.37,187.66L124.79,169.08L131.2,172.65L137.61,199.09L144.02,210.59L150.43,185.08L156.84,185.66L163.25,208.78L169.66,231.3L176.07,188.35L182.48,265.9L188.89,227.76L195.3,227.19L201.72,290.55L208.13,240.33L214.54,218.15L220.95,348.56L227.36,252.87L233.77,261.24L240.18,123.17L246.59,562.33L253,47.03L259.41,47.03L265.82,47.03L272.23,47.03L278.65,47.03L285.06,47.03L291.47,47.03L297.88,47.03L304.29,47.03L310.7,47.03L317.11,47.03L323.52,47.03L329.93,47.03L336.34,47.03L342.75,47.03L349.16,47.03L355.58,47.03L361.99,47.03L368.4,47.03L374.81,47.03L381.22,47.03L387.63,47.03L394.04,47.03L400.45,47.03L406.86,47.03L413.27,47.03L419.68,47.03L426.09,47.03L432.51,47.03L438.92,47.03L445.33,47.03L451.74,81.725L458.15,66.224L464.56,70.319L470.97,73.908L477.38,68.741L483.79,77.083L490.2,75.95L496.61,77.224L503.02,84.599L509.44,82.646L515.85,88.837L522.26,160.49L528.67,165.75L535.08,190.41L541.49,157.77L547.9,182.72L554.31,219.6L560.72,174.81L567.13,188.93L573.54,226.49L579.95,205.38L586.37,221L592.78,263.48L599.19,236.36L605.6,174.54L612.01,260.21L618.42,235.61L624.83,288.7L631.24,246.93L637.65,338.83L644.06,203.57L650.47,223.28L656.88,318.76L663.3,244.39L669.71,368.16L676.12,216.48L682.53,701.44L688.94,279.97L695.35,413.74L701.76,257.28L708.17,174.86L714.58,184.54L720.99,66.204L727.4,370.03L733.81,109.12L740.23,47.03L746.64,332.64L753.05,373.92L759.46,47.03L765.87,47.03L772.28,47.03L778.69,47.03L785.1,47.03L791.51,47.03L797.92,47.03L804.33,47.03L810.74,47.03L817.16,47.03L823.57,47.03L829.98,47.03L836.39,127.05L842.8,73.535L849.21,67.818L855.62,77.502L862.03,80.504L868.44,85.518L874.85,81.21L881.26,86.769L887.67,86.978L894.09,133.61L900.5,79.938L906.91,83.834L913.32,83.852L919.73,146.15L926.14,98.319L932.55,110.45L938.96,181.4L945.37,129.94L951.78,155.19L958.19,134.68L964.6,181.77L971.02,204.19L977.43,305.89L983.84,305.33L990.25,218.06L996.66,149.77L1003.1,310.27L1009.5,262.85L1015.9,128.53L1022.3,226.03L1028.7,263.09L1035.1,226.97L1041.5,189.35L1047.9,184.39L1054.4,246.31L1060.8,196.49L1067.2,258.68L1073.6,188.39L1080,291.34" style="fill:none;stroke:#F15A60;stroke-width:1.875" />
<path d="M1055,694.3L1080,694.3" style="fill:none;stroke:#F15A60;stroke-width:1.875" />
<text x="1002.5" y="-687.85" transform="scale(1, -1)"
	style="font-family:Helvetica;font-weight:normal;font-style:normal;font-size:12pt">etcd v2</text>
</g>
</svg>
