<?xml version="1.0"?>
<!-- Generated by SVGo and Plotinum VG -->
<svg width="12in" height="8in"
	xmlns="http://www.w3.org/2000/svg"
	xmlns:xlink="http://www.w3.org/1999/xlink">
<g transform="scale(1, -1) translate(0, -720)">
<path d="M0,0L1080,0L1080,720L0,720Z" style="fill:#FFFFFF" />
<text x="276.14" y="-706.41" transform="scale(1, -1)"
	style="font-family:Helvetica;font-weight:normal;font-style:normal;font-size:12pt">Write 500K keys, 1000-client, 8-byte key, 256-byte value (etcd v2, Test 2), CPU</text>
<text x="544.64" y="-4.965" transform="scale(1, -1)"
	style="font-family:Helvetica;font-weight:normal;font-style:normal;font-size:12pt">Second</text>
<text x="56.662" y="-19.142" transform="scale(1, -1)"
	style="font-family:Helvetica;font-weight:normal;font-style:normal;font-size:10pt">0</text>
<text x="366.03" y="-19.142" transform="scale(1, -1)"
	style="font-family:Helvetica;font-weight:normal;font-style:normal;font-size:10pt">50</text>
<text x="675.4" y="-19.142" transform="scale(1, -1)"
	style="font-family:Helvetica;font-weight:normal;font-style:normal;font-size:10pt">100</text>
<text x="988.24" y="-19.142" transform="scale(1, -1)"
	style="font-family:Helvetica;font-weight:normal;font-style:normal;font-size:10pt">150</text>
<path d="M60.137,30.467L60.137,40.467" style="fill:none;stroke:#000000;stroke-width:0.625" />
<path d="M372.98,30.467L372.98,40.467" style="fill:none;stroke:#000000;stroke-width:0.625" />
<path d="M685.82,30.467L685.82,40.467" style="fill:none;stroke:#000000;stroke-width:0.625" />
<path d="M998.66,30.467L998.66,40.467" style="fill:none;stroke:#000000;stroke-width:0.625" />
<path d="M122.71,35.468L122.71,40.467" style="fill:none;stroke:#000000;stroke-width:0.625" />
<path d="M185.27,35.468L185.27,40.467" style="fill:none;stroke:#000000;stroke-width:0.625" />
<path d="M247.84,35.468L247.84,40.467" style="fill:none;stroke:#000000;stroke-width:0.625" />
<path d="M310.41,35.468L310.41,40.467" style="fill:none;stroke:#000000;stroke-width:0.625" />
<path d="M435.55,35.468L435.55,40.467" style="fill:none;stroke:#000000;stroke-width:0.625" />
<path d="M498.12,35.468L498.12,40.467" style="fill:none;stroke:#000000;stroke-width:0.625" />
<path d="M560.68,35.468L560.68,40.467" style="fill:none;stroke:#000000;stroke-width:0.625" />
<path d="M623.25,35.468L623.25,40.467" style="fill:none;stroke:#000000;stroke-width:0.625" />
<path d="M748.39,35.468L748.39,40.467" style="fill:none;stroke:#000000;stroke-width:0.625" />
<path d="M810.96,35.468L810.96,40.467" style="fill:none;stroke:#000000;stroke-width:0.625" />
<path d="M873.52,35.468L873.52,40.467" style="fill:none;stroke:#000000;stroke-width:0.625" />
<path d="M936.09,35.468L936.09,40.467" style="fill:none;stroke:#000000;stroke-width:0.625" />
<path d="M1061.2,35.468L1061.2,40.467" style="fill:none;stroke:#000000;stroke-width:0.625" />
<path d="M60.137,40.467L1080,40.467" style="fill:none;stroke:#000000;stroke-width:0.625" />
<g transform="rotate(90)">
<text x="358.4" y="13.59" transform="scale(1, -1)"
	style="font-family:Helvetica;font-weight:normal;font-style:normal;font-size:12pt">CPU</text>
</g>
<text x="25.505" y="-239.4" transform="scale(1, -1)"
	style="font-family:Helvetica;font-weight:normal;font-style:normal;font-size:10pt">60</text>
<text x="18.555" y="-445.95" transform="scale(1, -1)"
	style="font-family:Helvetica;font-weight:normal;font-style:normal;font-size:10pt">120</text>
<text x="18.555" y="-652.49" transform="scale(1, -1)"
	style="font-family:Helvetica;font-weight:normal;font-style:normal;font-size:10pt">180</text>
<path d="M42.88,244.77L52.88,244.77" style="fill:none;stroke:#000000;stroke-width:0.625" />
<path d="M42.88,451.31L52.88,451.31" style="fill:none;stroke:#000000;stroke-width:0.625" />
<path d="M42.88,657.86L52.88,657.86" style="fill:none;stroke:#000000;stroke-width:0.625" />
<path d="M47.88,107.07L52.88,107.07" style="fill:none;stroke:#000000;stroke-width:0.625" />
<path d="M47.88,175.92L52.88,175.92" style="fill:none;stroke:#000000;stroke-width:0.625" />
<path d="M47.88,313.62L52.88,313.62" style="fill:none;stroke:#000000;stroke-width:0.625" />
<path d="M47.88,382.47L52.88,382.47" style="fill:none;stroke:#000000;stroke-width:0.625" />
<path d="M47.88,520.16L52.88,520.16" style="fill:none;stroke:#000000;stroke-width:0.625" />
<path d="M47.88,589.01L52.88,589.01" style="fill:none;stroke:#000000;stroke-width:0.625" />
<path d="M52.88,47.03L52.88,701.44" style="fill:none;stroke:#000000;stroke-width:0.625" />
<path d="M60.137,47.03L66.394,227.62L72.651,365.94L78.908,497.65L85.165,608.57L91.422,701.44L97.678,699.52L103.94,666.81L110.19,639.03L116.45,612.73L122.71,595.45L128.96,598.96L135.22,580.68L141.48,562.92L147.73,546.95L153.99,532.76L160.25,520.34L166.5,509.73L172.76,515.14L179.02,507.22L185.27,493.93L191.53,480.68L197.79,467.77L204.04,456.44L210.3,444.88L216.56,433.65L222.81,423.02L229.07,412.38L235.33,402.12L241.59,392.31L247.84,383.81L254.1,374.86L260.36,366.35L266.61,358.4L272.87,350.97L279.13,343.57L285.38,336.61L291.64,330.07L297.9,323.7L304.15,317.57L310.41,311.79L316.67,306.18L322.92,300.91L329.18,295.71L335.44,290.83L341.69,286.04L347.95,281.53L354.21,277.13L360.47,272.96L366.72,268.79L372.98,264.87L379.24,261.08L385.49,257.4L391.75,253.82L398.01,250.38L404.26,247.11L410.52,243.84L416.78,240.74L423.03,237.71L429.29,234.78L435.55,232.48L441.8,247.31L448.06,270.34L454.32,293.55L460.57,316.13L466.83,338.19L473.09,359.81L479.34,380.4L485.6,400.95L491.86,416.2L498.12,426.46L504.37,436.24L510.63,439.95L516.89,439.23L523.14,439.58L529.4,441.71L535.66,445.05L541.91,442.16L548.17,439.61L554.43,437.17L560.68,433.9L566.94,430.28L573.2,426.56L579.45,423.43L585.71,419.92L591.97,416.48L598.22,413L604.48,409.25L610.74,405.7L616.99,402.19L623.25,398.61L629.51,395.06L635.77,391.79L642.02,388.35L648.28,384.98L654.54,381.6L660.79,378.47L667.05,375.34L673.31,372.21L679.56,369.18L685.82,366.18L692.08,363.19L698.33,360.26L704.59,357.4L710.85,354.58L717.1,351.79L723.36,349.07L729.62,346.42L735.87,343.77L742.13,341.19L748.39,338.64L754.65,336.13L760.9,333.69L767.16,331.28L773.42,328.9L779.67,326.56L785.93,324.25L792.19,321.98L798.44,319.78L804.7,317.57L810.96,315.78L817.21,322.77L823.47,334.41L829.73,346.56L835.98,359.95L842.24,372.89L848.5,385.87L854.75,397.78L861.01,410L867.27,421.95L873.52,433.14L879.78,444.33L886.04,456.24L892.3,467.84L898.55,478.23L904.81,484.16L911.07,489.15L917.32,491.28L923.58,489.01L929.84,487.01L936.09,486.43L942.35,486.77L948.61,489.08L954.86,489.73L961.12,487.39L967.38,484.81L973.63,482.37L979.89,480.09L986.15,478.23L992.4,476.51L998.66,475.93L1004.9,475.72L1011.2,477.06L1017.4,479.37L1023.7,478.2L1029.9,475.76L1036.2,473.14L1042.5,470.63L1048.7,468.18L1055,465.7L1061.2,463.23L1067.5,460.78L1073.7,458.37L1080,456" style="fill:none;stroke:#F15A60;stroke-width:1.875" />
<path d="M1055,694.3L1080,694.3" style="fill:none;stroke:#F15A60;stroke-width:1.875" />
<text x="1002.5" y="-687.85" transform="scale(1, -1)"
	style="font-family:Helvetica;font-weight:normal;font-style:normal;font-size:12pt">etcd v2</text>
</g>
</svg>
