<?xml version="1.0"?>
<!-- Generated by SVGo and Plotinum VG -->
<svg width="12in" height="8in"
	xmlns="http://www.w3.org/2000/svg"
	xmlns:xlink="http://www.w3.org/1999/xlink">
<g transform="scale(1, -1) translate(0, -720)">
<path d="M0,0L1080,0L1080,720L0,720Z" style="fill:#FFFFFF" />
<text x="223.63" y="-706.41" transform="scale(1, -1)"
	style="font-family:Helvetica;font-weight:normal;font-style:normal;font-size:12pt">Write 500K keys, 1000-client, 8-byte key, 256-byte value (etcd v2, Test 2), Latency(millisecond)</text>
<text x="548.11" y="-4.965" transform="scale(1, -1)"
	style="font-family:Helvetica;font-weight:normal;font-style:normal;font-size:12pt">Second</text>
<text x="63.613" y="-19.142" transform="scale(1, -1)"
	style="font-family:Helvetica;font-weight:normal;font-style:normal;font-size:10pt">0</text>
<text x="368.95" y="-19.142" transform="scale(1, -1)"
	style="font-family:Helvetica;font-weight:normal;font-style:normal;font-size:10pt">50</text>
<text x="674.29" y="-19.142" transform="scale(1, -1)"
	style="font-family:Helvetica;font-weight:normal;font-style:normal;font-size:10pt">100</text>
<text x="983.11" y="-19.142" transform="scale(1, -1)"
	style="font-family:Helvetica;font-weight:normal;font-style:normal;font-size:10pt">150</text>
<path d="M67.088,30.467L67.088,40.467" style="fill:none;stroke:#000000;stroke-width:0.625" />
<path d="M375.9,30.467L375.9,40.467" style="fill:none;stroke:#000000;stroke-width:0.625" />
<path d="M684.72,30.467L684.72,40.467" style="fill:none;stroke:#000000;stroke-width:0.625" />
<path d="M993.53,30.467L993.53,40.467" style="fill:none;stroke:#000000;stroke-width:0.625" />
<path d="M128.85,35.468L128.85,40.467" style="fill:none;stroke:#000000;stroke-width:0.625" />
<path d="M190.61,35.468L190.61,40.467" style="fill:none;stroke:#000000;stroke-width:0.625" />
<path d="M252.38,35.468L252.38,40.467" style="fill:none;stroke:#000000;stroke-width:0.625" />
<path d="M314.14,35.468L314.14,40.467" style="fill:none;stroke:#000000;stroke-width:0.625" />
<path d="M437.67,35.468L437.67,40.467" style="fill:none;stroke:#000000;stroke-width:0.625" />
<path d="M499.43,35.468L499.43,40.467" style="fill:none;stroke:#000000;stroke-width:0.625" />
<path d="M561.19,35.468L561.19,40.467" style="fill:none;stroke:#000000;stroke-width:0.625" />
<path d="M622.95,35.468L622.95,40.467" style="fill:none;stroke:#000000;stroke-width:0.625" />
<path d="M746.48,35.468L746.48,40.467" style="fill:none;stroke:#000000;stroke-width:0.625" />
<path d="M808.24,35.468L808.24,40.467" style="fill:none;stroke:#000000;stroke-width:0.625" />
<path d="M870.01,35.468L870.01,40.467" style="fill:none;stroke:#000000;stroke-width:0.625" />
<path d="M931.77,35.468L931.77,40.467" style="fill:none;stroke:#000000;stroke-width:0.625" />
<path d="M1055.3,35.468L1055.3,40.467" style="fill:none;stroke:#000000;stroke-width:0.625" />
<path d="M67.088,40.467L1080,40.467" style="fill:none;stroke:#000000;stroke-width:0.625" />
<g transform="rotate(90)">
<text x="305.89" y="13.59" transform="scale(1, -1)"
	style="font-family:Helvetica;font-weight:normal;font-style:normal;font-size:12pt">Latency(millisecond)</text>
</g>
<text x="39.405" y="-41.661" transform="scale(1, -1)"
	style="font-family:Helvetica;font-weight:normal;font-style:normal;font-size:10pt">0</text>
<text x="25.505" y="-230.37" transform="scale(1, -1)"
	style="font-family:Helvetica;font-weight:normal;font-style:normal;font-size:10pt">800</text>
<text x="18.555" y="-419.09" transform="scale(1, -1)"
	style="font-family:Helvetica;font-weight:normal;font-style:normal;font-size:10pt">1600</text>
<text x="18.555" y="-607.8" transform="scale(1, -1)"
	style="font-family:Helvetica;font-weight:normal;font-style:normal;font-size:10pt">2400</text>
<path d="M49.83,47.03L59.83,47.03" style="fill:none;stroke:#000000;stroke-width:0.625" />
<path d="M49.83,235.74L59.83,235.74" style="fill:none;stroke:#000000;stroke-width:0.625" />
<path d="M49.83,424.45L59.83,424.45" style="fill:none;stroke:#000000;stroke-width:0.625" />
<path d="M49.83,613.17L59.83,613.17" style="fill:none;stroke:#000000;stroke-width:0.625" />
<path d="M54.83,141.39L59.83,141.39" style="fill:none;stroke:#000000;stroke-width:0.625" />
<path d="M54.83,330.1L59.83,330.1" style="fill:none;stroke:#000000;stroke-width:0.625" />
<path d="M54.83,518.81L59.83,518.81" style="fill:none;stroke:#000000;stroke-width:0.625" />
<path d="M59.83,47.03L59.83,701.44" style="fill:none;stroke:#000000;stroke-width:0.625" />
<path d="M67.088,55.098L73.264,56.281L79.44,57.25L85.616,58.341L91.793,58.44L97.969,74.601L104.15,132.58L110.32,130.65L116.5,154.06L122.67,111.43L128.85,136.47L135.03,137.4L141.2,152.71L147.38,111.54L153.56,165.35L159.73,132.48L165.91,149.51L172.08,139.28L178.26,143.75L184.44,157.18L190.61,201.94L196.79,259.94L202.97,212.47L209.14,169.04L215.32,182.91L221.49,376.3L227.67,314.19L233.85,268.06L240.02,492.4L246.2,233.18L252.38,77.128L258.55,273L264.73,47.03L270.91,117.95L277.08,47.03L283.26,570.91L289.43,511.73L295.61,47.03L301.79,47.03L307.96,47.03L314.14,47.03L320.32,47.03L326.49,47.03L332.67,47.03L338.84,47.03L345.02,47.03L351.2,47.03L357.37,47.03L363.55,47.03L369.73,47.03L375.9,47.03L382.08,47.03L388.25,47.03L394.43,47.03L400.61,47.03L406.78,47.03L412.96,47.03L419.14,47.03L425.31,47.03L431.49,47.03L437.67,69.499L443.84,58.365L450.02,64.608L456.19,61.875L462.37,64.737L468.55,64.704L474.72,66.018L480.9,70.516L487.08,74.764L493.25,77.731L499.43,75.382L505.6,130.72L511.78,147.29L517.96,123.81L524.13,137.69L530.31,142.48L536.49,126.53L542.66,157.93L548.84,152.07L555.01,167.63L561.19,208.77L567.37,222.08L573.54,167.03L579.72,181.38L585.9,241.89L592.07,175.23L598.25,274.82L604.43,434.93L610.6,182.9L616.78,208.36L622.95,102.91L629.13,115.48L635.31,131.52L641.48,337.81L647.66,47.03L653.84,494.15L660.01,100.43L666.19,87.718L672.36,205.91L678.54,148.01L684.72,159.67L690.89,47.03L697.07,47.03L703.25,47.03L709.42,47.03L715.6,47.03L721.77,47.03L727.95,47.03L734.13,47.03L740.3,47.03L746.48,47.03L752.66,47.03L758.83,47.03L765.01,47.03L771.19,47.03L777.36,47.03L783.54,47.03L789.71,47.03L795.89,47.03L802.07,47.03L808.24,106.08L814.42,60.743L820.6,70.177L826.77,70.917L832.95,67.579L839.12,83.116L845.3,72.601L851.48,75.106L857.65,71.792L863.83,69.371L870.01,73.874L876.18,95.397L882.36,61.807L888.53,88.098L894.71,116.72L900.89,126.67L907.06,166.49L913.24,234.01L919.42,224.33L925.59,133.9L931.77,129.32L937.95,137.59L944.12,113.72L950.3,229.57L956.47,258.75L962.65,280.94L968.83,151.95L975,116.7L981.18,125.49L987.36,130.93L993.53,158.28L999.71,226.62L1005.9,173.57L1012.1,230.92L1018.2,186.18L1024.4,117.05L1030.6,311.82L1036.8,216.9L1042.9,183.09L1049.1,288.8L1055.3,368.2L1061.5,250.62L1067.6,234.77L1073.8,116.06L1080,701.44" style="fill:none;stroke:#F15A60;stroke-width:1.875" />
<path d="M1055,694.3L1080,694.3" style="fill:none;stroke:#F15A60;stroke-width:1.875" />
<text x="1002.5" y="-687.85" transform="scale(1, -1)"
	style="font-family:Helvetica;font-weight:normal;font-style:normal;font-size:12pt">etcd v2</text>
</g>
</svg>
