<?xml version="1.0"?>
<!-- Generated by SVGo and Plotinum VG -->
<svg width="12in" height="8in"
	xmlns="http://www.w3.org/2000/svg"
	xmlns:xlink="http://www.w3.org/1999/xlink">
<g transform="scale(1, -1) translate(0, -720)">
<path d="M0,0L1080,0L1080,720L0,720Z" style="fill:#FFFFFF" />
<text x="230.72" y="-706.41" transform="scale(1, -1)"
	style="font-family:Helvetica;font-weight:normal;font-style:normal;font-size:12pt">Write 2M keys, 1000-client, 8-byte key, 256-byte value (etcd v2, Test 2), Latency(millisecond)</text>
<text x="548.11" y="-4.965" transform="scale(1, -1)"
	style="font-family:Helvetica;font-weight:normal;font-style:normal;font-size:12pt">Second</text>
<text x="63.613" y="-19.142" transform="scale(1, -1)"
	style="font-family:Helvetica;font-weight:normal;font-style:normal;font-size:10pt">0</text>
<text x="335.14" y="-19.142" transform="scale(1, -1)"
	style="font-family:Helvetica;font-weight:normal;font-style:normal;font-size:10pt">60</text>
<text x="606.66" y="-19.142" transform="scale(1, -1)"
	style="font-family:Helvetica;font-weight:normal;font-style:normal;font-size:10pt">120</text>
<text x="881.66" y="-19.142" transform="scale(1, -1)"
	style="font-family:Helvetica;font-weight:normal;font-style:normal;font-size:10pt">180</text>
<path d="M67.088,30.467L67.088,40.467" style="fill:none;stroke:#000000;stroke-width:0.625" />
<path d="M342.09,30.467L342.09,40.467" style="fill:none;stroke:#000000;stroke-width:0.625" />
<path d="M617.09,30.467L617.09,40.467" style="fill:none;stroke:#000000;stroke-width:0.625" />
<path d="M892.08,30.467L892.08,40.467" style="fill:none;stroke:#000000;stroke-width:0.625" />
<path d="M158.75,35.468L158.75,40.467" style="fill:none;stroke:#000000;stroke-width:0.625" />
<path d="M250.42,35.468L250.42,40.467" style="fill:none;stroke:#000000;stroke-width:0.625" />
<path d="M433.75,35.468L433.75,40.467" style="fill:none;stroke:#000000;stroke-width:0.625" />
<path d="M525.42,35.468L525.42,40.467" style="fill:none;stroke:#000000;stroke-width:0.625" />
<path d="M708.75,35.468L708.75,40.467" style="fill:none;stroke:#000000;stroke-width:0.625" />
<path d="M800.42,35.468L800.42,40.467" style="fill:none;stroke:#000000;stroke-width:0.625" />
<path d="M983.75,35.468L983.75,40.467" style="fill:none;stroke:#000000;stroke-width:0.625" />
<path d="M1075.4,35.468L1075.4,40.467" style="fill:none;stroke:#000000;stroke-width:0.625" />
<path d="M67.088,40.467L1080,40.467" style="fill:none;stroke:#000000;stroke-width:0.625" />
<g transform="rotate(90)">
<text x="305.89" y="13.59" transform="scale(1, -1)"
	style="font-family:Helvetica;font-weight:normal;font-style:normal;font-size:12pt">Latency(millisecond)</text>
</g>
<text x="39.405" y="-41.661" transform="scale(1, -1)"
	style="font-family:Helvetica;font-weight:normal;font-style:normal;font-size:10pt">0</text>
<text x="18.555" y="-207" transform="scale(1, -1)"
	style="font-family:Helvetica;font-weight:normal;font-style:normal;font-size:10pt">1000</text>
<text x="18.555" y="-372.33" transform="scale(1, -1)"
	style="font-family:Helvetica;font-weight:normal;font-style:normal;font-size:10pt">2000</text>
<text x="18.555" y="-537.66" transform="scale(1, -1)"
	style="font-family:Helvetica;font-weight:normal;font-style:normal;font-size:10pt">3000</text>
<path d="M49.83,47.03L59.83,47.03" style="fill:none;stroke:#000000;stroke-width:0.625" />
<path d="M49.83,212.36L59.83,212.36" style="fill:none;stroke:#000000;stroke-width:0.625" />
<path d="M49.83,377.7L59.83,377.7" style="fill:none;stroke:#000000;stroke-width:0.625" />
<path d="M49.83,543.03L59.83,543.03" style="fill:none;stroke:#000000;stroke-width:0.625" />
<path d="M54.83,129.7L59.83,129.7" style="fill:none;stroke:#000000;stroke-width:0.625" />
<path d="M54.83,295.03L59.83,295.03" style="fill:none;stroke:#000000;stroke-width:0.625" />
<path d="M54.83,460.37L59.83,460.37" style="fill:none;stroke:#000000;stroke-width:0.625" />
<path d="M54.83,625.7L59.83,625.7" style="fill:none;stroke:#000000;stroke-width:0.625" />
<path d="M59.83,47.03L59.83,701.44" style="fill:none;stroke:#000000;stroke-width:0.625" />
<path d="M67.088,55.183L71.671,53.037L76.254,53.445L80.837,55.064L85.421,55.591L90.004,55.384L94.587,84.591L99.171,103.37L103.75,115.14L108.34,99.493L112.92,113.93L117.5,113.64L122.09,120.61L126.67,111.49L131.25,96.709L135.84,114.51L140.42,123.72L145,122.97L149.59,111.45L154.17,206.02L158.75,129.39L163.34,174.81L167.92,202L172.5,193.27L177.09,187.52L181.67,72.195L186.25,85.085L190.84,199.97L195.42,310.57L200,97.474L204.59,61.952L209.17,77.365L213.75,401.58L218.34,47.03L222.92,486.93L227.5,47.03L232.09,47.03L236.67,701.44L241.25,47.03L245.84,47.03L250.42,47.03L255,47.03L259.59,47.03L264.17,47.03L268.75,47.03L273.34,47.03L277.92,47.03L282.5,47.03L287.09,47.03L291.67,47.03L296.25,47.03L300.84,47.03L305.42,47.03L310,47.03L314.59,47.03L319.17,47.03L323.75,47.03L328.34,47.03L332.92,47.03L337.5,47.03L342.09,47.03L346.67,57.367L351.25,55.392L355.84,58.842L360.42,57.604L365,59.639L369.59,61.658L374.17,57.399L378.75,58.94L383.34,72.82L387.92,99.821L392.5,107.73L397.09,103.69L401.67,99.583L406.25,114.6L410.84,105.68L415.42,114.41L420,103.47L424.59,96.686L429.17,103.51L433.75,159.76L438.34,127.1L442.92,159.09L447.5,154.81L452.09,200.51L456.67,183.36L461.25,142.96L465.84,137.08L470.42,130.46L475,124.12L479.59,132.84L484.17,142.07L488.75,164.2L493.34,154.88L497.92,394.7L502.5,225.44L507.09,128.51L511.67,76.535L516.25,254.93L520.84,322.97L525.42,71.073L530,73.161L534.59,63.789L539.17,47.03L543.75,47.03L548.34,549.4L552.92,186.04L557.5,154.86L562.09,316.66L566.67,47.03L571.25,47.03L575.84,47.03L580.42,47.03L585,47.03L589.59,47.03L594.17,47.03L598.75,47.03L603.34,47.03L607.92,47.03L612.5,47.03L617.09,47.03L621.67,73.001L626.25,56.192L630.84,61.537L635.42,63.618L640,64.097L644.59,63.417L649.17,64.942L653.75,67.943L658.34,67.97L662.92,62.146L667.5,66.023L672.09,64.988L676.67,66.732L681.25,63.341L685.83,75.49L690.42,105.49L695,119.94L699.58,150.5L704.17,124L708.75,111L713.33,122.53L717.92,108.48L722.5,109.61L727.08,95.046L731.67,106.7L736.25,193.54L740.83,129.64L745.42,126.36L750,89.098L754.58,124.35L759.17,114.14L763.75,276.05L768.33,166.45L772.92,141.4L777.5,146.41L782.08,160.48L786.67,98.862L791.25,202.89L795.83,182.61L800.42,157.88L805,192.76L809.58,150.14L814.17,123.33L818.75,90.252L823.33,234.52L827.92,317.81L832.5,288.64L837.08,206.09L841.67,165.56L846.25,111.72L850.83,191.06L855.42,328.28L860,233.58L864.58,166.65L869.17,70.262L873.75,157.09L878.33,200.83L882.92,47.03L887.5,47.03L892.08,211.56L896.67,65.217L901.25,60.583L905.83,61.002L910.42,66.17L915,57.542L919.58,89.859L924.17,66.9L928.75,64.107L933.33,70.202L937.92,78.191L942.5,56.618L947.08,59.332L951.67,66.57L956.25,65.585L960.83,71.001L965.42,71.743L970,114.7L974.58,60.71L979.17,54.927L983.75,78.429L988.33,109.4L992.92,195.85L997.5,83.419L1002.1,145.06L1006.7,183.23L1011.3,47.03L1015.8,47.03L1020.4,47.03L1025,47.03L1029.6,47.03L1034.2,63.248L1038.8,65.069L1043.3,95.394L1047.9,114.61L1052.5,110.39L1057.1,70.213L1061.7,116.55L1066.3,91.545L1070.8,112.43L1075.4,102.16L1080,89.782" style="fill:none;stroke:#F15A60;stroke-width:1.875" />
<path d="M1055,694.3L1080,694.3" style="fill:none;stroke:#F15A60;stroke-width:1.875" />
<text x="1002.5" y="-687.85" transform="scale(1, -1)"
	style="font-family:Helvetica;font-weight:normal;font-style:normal;font-size:12pt">etcd v2</text>
</g>
</svg>
