<?xml version="1.0"?>
<!-- Generated by SVGo and Plotinum VG -->
<svg width="12in" height="8in"
	xmlns="http://www.w3.org/2000/svg"
	xmlns:xlink="http://www.w3.org/1999/xlink">
<g transform="scale(1, -1) translate(0, -720)">
<path d="M0,0L1080,0L1080,720L0,720Z" style="fill:#FFFFFF" />
<text x="224.47" y="-706.41" transform="scale(1, -1)"
	style="font-family:Helvetica;font-weight:normal;font-style:normal;font-size:12pt">Write 500K keys, 1000-client, 8-byte key, 256-byte value (Consul, Test 2), Latency(millisecond)</text>
<text x="544.64" y="-4.965" transform="scale(1, -1)"
	style="font-family:Helvetica;font-weight:normal;font-style:normal;font-size:12pt">Second</text>
<text x="56.662" y="-19.142" transform="scale(1, -1)"
	style="font-family:Helvetica;font-weight:normal;font-style:normal;font-size:10pt">0</text>
<text x="242.05" y="-19.142" transform="scale(1, -1)"
	style="font-family:Helvetica;font-weight:normal;font-style:normal;font-size:10pt">10</text>
<text x="430.91" y="-19.142" transform="scale(1, -1)"
	style="font-family:Helvetica;font-weight:normal;font-style:normal;font-size:10pt">20</text>
<text x="619.78" y="-19.142" transform="scale(1, -1)"
	style="font-family:Helvetica;font-weight:normal;font-style:normal;font-size:10pt">30</text>
<text x="808.64" y="-19.142" transform="scale(1, -1)"
	style="font-family:Helvetica;font-weight:normal;font-style:normal;font-size:10pt">40</text>
<text x="997.5" y="-19.142" transform="scale(1, -1)"
	style="font-family:Helvetica;font-weight:normal;font-style:normal;font-size:10pt">50</text>
<path d="M60.137,30.467L60.137,40.467" style="fill:none;stroke:#000000;stroke-width:0.625" />
<path d="M249,30.467L249,40.467" style="fill:none;stroke:#000000;stroke-width:0.625" />
<path d="M437.86,30.467L437.86,40.467" style="fill:none;stroke:#000000;stroke-width:0.625" />
<path d="M626.73,30.467L626.73,40.467" style="fill:none;stroke:#000000;stroke-width:0.625" />
<path d="M815.59,30.467L815.59,40.467" style="fill:none;stroke:#000000;stroke-width:0.625" />
<path d="M1004.5,30.467L1004.5,40.467" style="fill:none;stroke:#000000;stroke-width:0.625" />
<path d="M154.57,35.468L154.57,40.467" style="fill:none;stroke:#000000;stroke-width:0.625" />
<path d="M343.43,35.468L343.43,40.467" style="fill:none;stroke:#000000;stroke-width:0.625" />
<path d="M532.3,35.468L532.3,40.467" style="fill:none;stroke:#000000;stroke-width:0.625" />
<path d="M721.16,35.468L721.16,40.467" style="fill:none;stroke:#000000;stroke-width:0.625" />
<path d="M910.02,35.468L910.02,40.467" style="fill:none;stroke:#000000;stroke-width:0.625" />
<path d="M60.137,40.467L1080,40.467" style="fill:none;stroke:#000000;stroke-width:0.625" />
<g transform="rotate(90)">
<text x="305.89" y="13.59" transform="scale(1, -1)"
	style="font-family:Helvetica;font-weight:normal;font-style:normal;font-size:12pt">Latency(millisecond)</text>
</g>
<text x="18.555" y="-212.21" transform="scale(1, -1)"
	style="font-family:Helvetica;font-weight:normal;font-style:normal;font-size:10pt">160</text>
<text x="18.555" y="-408.61" transform="scale(1, -1)"
	style="font-family:Helvetica;font-weight:normal;font-style:normal;font-size:10pt">240</text>
<text x="18.555" y="-605" transform="scale(1, -1)"
	style="font-family:Helvetica;font-weight:normal;font-style:normal;font-size:10pt">320</text>
<path d="M42.88,217.58L52.88,217.58" style="fill:none;stroke:#000000;stroke-width:0.625" />
<path d="M42.88,413.98L52.88,413.98" style="fill:none;stroke:#000000;stroke-width:0.625" />
<path d="M42.88,610.37L52.88,610.37" style="fill:none;stroke:#000000;stroke-width:0.625" />
<path d="M47.88,119.39L52.88,119.39" style="fill:none;stroke:#000000;stroke-width:0.625" />
<path d="M47.88,315.78L52.88,315.78" style="fill:none;stroke:#000000;stroke-width:0.625" />
<path d="M47.88,512.17L52.88,512.17" style="fill:none;stroke:#000000;stroke-width:0.625" />
<path d="M52.88,47.03L52.88,701.44" style="fill:none;stroke:#000000;stroke-width:0.625" />
<path d="M60.137,62.982L79.024,48.198L97.91,74.67L116.8,71.866L135.68,75.107L154.57,80.073L173.46,79.07L192.34,82.475L211.23,60.654L230.11,74.292L249,67.899L267.89,59.544L286.77,76.214L305.66,111.72L324.55,67.567L343.43,76.423L362.32,74.998L381.21,69.156L400.09,72.367L418.98,93.025L437.86,75.706L456.75,85.979L475.64,85.819L494.52,60.503L513.41,94.246L532.3,101.46L551.18,96.686L570.07,115.95L588.96,102L607.84,94.305L626.73,111.56L645.61,127.25L664.5,68.082L683.39,173.08L702.27,308.61L721.16,701.44L740.05,272.04L758.93,346.3L777.82,118.44L796.7,100.31L815.59,87.558L834.48,98.113L853.36,84.421L872.25,65.484L891.14,75.756L910.02,70.302L928.91,98.802L947.8,104.33L966.68,74.553L985.57,94.984L1004.5,64.839L1023.3,94.448L1042.2,86.293L1061.1,93.198L1080,47.03" style="fill:none;stroke:#F15A60;stroke-width:1.875" />
<path d="M1055,694.3L1080,694.3" style="fill:none;stroke:#F15A60;stroke-width:1.875" />
<text x="959.12" y="-687.85" transform="scale(1, -1)"
	style="font-family:Helvetica;font-weight:normal;font-style:normal;font-size:12pt">Consul v0.6.4</text>
</g>
</svg>
