<?xml version="1.0"?>
<!-- Generated by SVGo and Plotinum VG -->
<svg width="12in" height="8in"
	xmlns="http://www.w3.org/2000/svg"
	xmlns:xlink="http://www.w3.org/1999/xlink">
<g transform="scale(1, -1) translate(0, -720)">
<path d="M0,0L1080,0L1080,720L0,720Z" style="fill:#FFFFFF" />
<text x="249.49" y="-706.41" transform="scale(1, -1)"
	style="font-family:Helvetica;font-weight:normal;font-style:normal;font-size:12pt">Write 500K keys, 1000-client, 8-byte key, 256-byte value (Consul, Test 2), Memory(MB)</text>
<text x="544.64" y="-4.965" transform="scale(1, -1)"
	style="font-family:Helvetica;font-weight:normal;font-style:normal;font-size:12pt">Second</text>
<text x="56.662" y="-19.142" transform="scale(1, -1)"
	style="font-family:Helvetica;font-weight:normal;font-style:normal;font-size:10pt">0</text>
<text x="245.61" y="-19.142" transform="scale(1, -1)"
	style="font-family:Helvetica;font-weight:normal;font-style:normal;font-size:10pt">10</text>
<text x="438.04" y="-19.142" transform="scale(1, -1)"
	style="font-family:Helvetica;font-weight:normal;font-style:normal;font-size:10pt">20</text>
<text x="630.47" y="-19.142" transform="scale(1, -1)"
	style="font-family:Helvetica;font-weight:normal;font-style:normal;font-size:10pt">30</text>
<text x="822.9" y="-19.142" transform="scale(1, -1)"
	style="font-family:Helvetica;font-weight:normal;font-style:normal;font-size:10pt">40</text>
<text x="1015.3" y="-19.142" transform="scale(1, -1)"
	style="font-family:Helvetica;font-weight:normal;font-style:normal;font-size:10pt">50</text>
<path d="M60.137,30.467L60.137,40.467" style="fill:none;stroke:#000000;stroke-width:0.625" />
<path d="M252.56,30.467L252.56,40.467" style="fill:none;stroke:#000000;stroke-width:0.625" />
<path d="M444.99,30.467L444.99,40.467" style="fill:none;stroke:#000000;stroke-width:0.625" />
<path d="M637.42,30.467L637.42,40.467" style="fill:none;stroke:#000000;stroke-width:0.625" />
<path d="M829.85,30.467L829.85,40.467" style="fill:none;stroke:#000000;stroke-width:0.625" />
<path d="M1022.3,30.467L1022.3,40.467" style="fill:none;stroke:#000000;stroke-width:0.625" />
<path d="M156.35,35.468L156.35,40.467" style="fill:none;stroke:#000000;stroke-width:0.625" />
<path d="M348.78,35.468L348.78,40.467" style="fill:none;stroke:#000000;stroke-width:0.625" />
<path d="M541.2,35.468L541.2,40.467" style="fill:none;stroke:#000000;stroke-width:0.625" />
<path d="M733.63,35.468L733.63,40.467" style="fill:none;stroke:#000000;stroke-width:0.625" />
<path d="M926.06,35.468L926.06,40.467" style="fill:none;stroke:#000000;stroke-width:0.625" />
<path d="M60.137,40.467L1080,40.467" style="fill:none;stroke:#000000;stroke-width:0.625" />
<g transform="rotate(90)">
<text x="330.91" y="13.59" transform="scale(1, -1)"
	style="font-family:Helvetica;font-weight:normal;font-style:normal;font-size:12pt">Memory(MB)</text>
</g>
<text x="18.555" y="-187.53" transform="scale(1, -1)"
	style="font-family:Helvetica;font-weight:normal;font-style:normal;font-size:10pt">200</text>
<text x="18.555" y="-346.77" transform="scale(1, -1)"
	style="font-family:Helvetica;font-weight:normal;font-style:normal;font-size:10pt">400</text>
<text x="18.555" y="-506.01" transform="scale(1, -1)"
	style="font-family:Helvetica;font-weight:normal;font-style:normal;font-size:10pt">600</text>
<text x="18.555" y="-665.25" transform="scale(1, -1)"
	style="font-family:Helvetica;font-weight:normal;font-style:normal;font-size:10pt">800</text>
<path d="M42.88,192.89L52.88,192.89" style="fill:none;stroke:#000000;stroke-width:0.625" />
<path d="M42.88,352.13L52.88,352.13" style="fill:none;stroke:#000000;stroke-width:0.625" />
<path d="M42.88,511.38L52.88,511.38" style="fill:none;stroke:#000000;stroke-width:0.625" />
<path d="M42.88,670.62L52.88,670.62" style="fill:none;stroke:#000000;stroke-width:0.625" />
<path d="M47.88,113.27L52.88,113.27" style="fill:none;stroke:#000000;stroke-width:0.625" />
<path d="M47.88,272.51L52.88,272.51" style="fill:none;stroke:#000000;stroke-width:0.625" />
<path d="M47.88,431.76L52.88,431.76" style="fill:none;stroke:#000000;stroke-width:0.625" />
<path d="M47.88,591L52.88,591" style="fill:none;stroke:#000000;stroke-width:0.625" />
<path d="M52.88,47.03L52.88,701.44" style="fill:none;stroke:#000000;stroke-width:0.625" />
<path d="M60.137,47.03L79.38,80.128L98.623,91.649L117.87,107.84L137.11,113.93L156.35,131.37L175.59,146.09L194.84,143.86L214.08,158.2L233.32,178.69L252.56,194.23L271.81,213.56L291.05,229.27L310.29,199.96L329.54,220.25L348.78,234.15L368.02,253.3L387.26,266.83L406.51,284.82L425.75,300.14L444.99,314.66L464.23,333.53L483.48,352.92L502.72,368.95L521.96,385.31L541.2,400.28L560.45,413.84L579.69,341.59L598.93,353.7L618.18,373.01L637.42,391.08L656.66,399.72L675.9,414.45L695.15,432.81L714.39,437.11L733.63,452.84L752.87,456.8L772.12,469.5L791.36,477.22L810.6,492.68L829.85,506.09L849.09,516.57L868.33,538.71L887.57,552.67L906.82,563.52L926.06,580.47L945.3,601.37L964.54,615.06L983.79,630.81L1003,641.8L1022.3,658.52L1041.5,669.18L1060.8,688.77L1080,701.44" style="fill:none;stroke:#F15A60;stroke-width:1.875" />
<path d="M1055,694.3L1080,694.3" style="fill:none;stroke:#F15A60;stroke-width:1.875" />
<text x="959.12" y="-687.85" transform="scale(1, -1)"
	style="font-family:Helvetica;font-weight:normal;font-style:normal;font-size:12pt">Consul v0.6.4</text>
</g>
</svg>
