<?xml version="1.0"?>
<!-- Generated by SVGo and Plotinum VG -->
<svg width="12in" height="8in"
	xmlns="http://www.w3.org/2000/svg"
	xmlns:xlink="http://www.w3.org/1999/xlink">
<g transform="scale(1, -1) translate(0, -720)">
<path d="M0,0L1080,0L1080,720L0,720Z" style="fill:#FFFFFF" />
<text x="284.08" y="-706.41" transform="scale(1, -1)"
	style="font-family:Helvetica;font-weight:normal;font-style:normal;font-size:12pt">Write 2M keys, 1000-client, 8-byte key, 256-byte value (Consul, Test 1), CPU</text>
<text x="544.64" y="-4.965" transform="scale(1, -1)"
	style="font-family:Helvetica;font-weight:normal;font-style:normal;font-size:12pt">Second</text>
<text x="56.662" y="-19.142" transform="scale(1, -1)"
	style="font-family:Helvetica;font-weight:normal;font-style:normal;font-size:10pt">0</text>
<text x="285.42" y="-19.142" transform="scale(1, -1)"
	style="font-family:Helvetica;font-weight:normal;font-style:normal;font-size:10pt">1000</text>
<text x="524.6" y="-19.142" transform="scale(1, -1)"
	style="font-family:Helvetica;font-weight:normal;font-style:normal;font-size:10pt">2000</text>
<text x="763.78" y="-19.142" transform="scale(1, -1)"
	style="font-family:Helvetica;font-weight:normal;font-style:normal;font-size:10pt">3000</text>
<text x="1003" y="-19.142" transform="scale(1, -1)"
	style="font-family:Helvetica;font-weight:normal;font-style:normal;font-size:10pt">4000</text>
<path d="M60.137,30.467L60.137,40.467" style="fill:none;stroke:#000000;stroke-width:0.625" />
<path d="M299.32,30.467L299.32,40.467" style="fill:none;stroke:#000000;stroke-width:0.625" />
<path d="M538.5,30.467L538.5,40.467" style="fill:none;stroke:#000000;stroke-width:0.625" />
<path d="M777.68,30.467L777.68,40.467" style="fill:none;stroke:#000000;stroke-width:0.625" />
<path d="M1016.9,30.467L1016.9,40.467" style="fill:none;stroke:#000000;stroke-width:0.625" />
<path d="M179.73,35.468L179.73,40.467" style="fill:none;stroke:#000000;stroke-width:0.625" />
<path d="M418.91,35.468L418.91,40.467" style="fill:none;stroke:#000000;stroke-width:0.625" />
<path d="M658.09,35.468L658.09,40.467" style="fill:none;stroke:#000000;stroke-width:0.625" />
<path d="M897.27,35.468L897.27,40.467" style="fill:none;stroke:#000000;stroke-width:0.625" />
<path d="M60.137,40.467L1080,40.467" style="fill:none;stroke:#000000;stroke-width:0.625" />
<g transform="rotate(90)">
<text x="358.4" y="13.59" transform="scale(1, -1)"
	style="font-family:Helvetica;font-weight:normal;font-style:normal;font-size:12pt">CPU</text>
</g>
<text x="25.505" y="-211.68" transform="scale(1, -1)"
	style="font-family:Helvetica;font-weight:normal;font-style:normal;font-size:10pt">60</text>
<text x="18.555" y="-385.91" transform="scale(1, -1)"
	style="font-family:Helvetica;font-weight:normal;font-style:normal;font-size:10pt">120</text>
<text x="18.555" y="-560.15" transform="scale(1, -1)"
	style="font-family:Helvetica;font-weight:normal;font-style:normal;font-size:10pt">180</text>
<path d="M42.88,217.05L52.88,217.05" style="fill:none;stroke:#000000;stroke-width:0.625" />
<path d="M42.88,391.28L52.88,391.28" style="fill:none;stroke:#000000;stroke-width:0.625" />
<path d="M42.88,565.52L52.88,565.52" style="fill:none;stroke:#000000;stroke-width:0.625" />
<path d="M47.88,100.9L52.88,100.9" style="fill:none;stroke:#000000;stroke-width:0.625" />
<path d="M47.88,158.97L52.88,158.97" style="fill:none;stroke:#000000;stroke-width:0.625" />
<path d="M47.88,275.13L52.88,275.13" style="fill:none;stroke:#000000;stroke-width:0.625" />
<path d="M47.88,333.21L52.88,333.21" style="fill:none;stroke:#000000;stroke-width:0.625" />
<path d="M47.88,449.36L52.88,449.36" style="fill:none;stroke:#000000;stroke-width:0.625" />
<path d="M47.88,507.44L52.88,507.44" style="fill:none;stroke:#000000;stroke-width:0.625" />
<path d="M47.88,623.59L52.88,623.59" style="fill:none;stroke:#000000;stroke-width:0.625" />
<path d="M47.88,681.67L52.88,681.67" style="fill:none;stroke:#000000;stroke-width:0.625" />
<path d="M52.88,47.03L52.88,701.44" style="fill:none;stroke:#000000;stroke-width:0.625" />
<path d="M60.137,47.03L60.377,135.13L60.616,208.25L60.855,267.43L61.094,311.48L61.333,349L61.573,381.06L61.812,409.11L62.051,434.06L62.29,451.25L62.529,472.53L62.768,489.96L63.008,505.32L63.247,519.87L63.486,533.89L63.725,542.78L63.964,553.84L64.204,561.57L64.443,570.45L64.682,576.26L64.921,583.37L65.16,590.08L65.399,596.59L65.639,603.56L65.878,609.54L66.117,614.27L66.356,615.9L66.595,617.52L66.835,620.86L67.074,623.51L67.313,627.6L67.552,629.52L67.791,631.14L68.03,632.91L68.27,634.54L68.509,636.22L68.748,639.01L68.987,640.7L69.226,643.57L69.466,647.11L69.705,647.81L69.944,650.66L70.183,654.98L70.422,656.14L70.661,658.7L70.901,661.4L71.14,662.79L71.379,665.67L71.618,666.25L71.857,670.08L72.096,671.19L72.336,674.58L72.575,674.82L72.814,677.6L73.053,678.56L73.292,681.52L73.532,683.18L73.771,681.44L74.01,676.53L74.249,669.79L74.488,664.07L74.727,662.94L74.967,662.33L75.206,659.37L75.445,659.92L75.684,661.02L75.923,661.11L76.163,663.61L76.402,664.13L76.641,666.83L76.88,667.85L77.119,668.37L77.358,670.87L77.598,671.56L77.837,672.75L78.076,674.47L78.315,675.43L78.554,677.98L78.794,678.45L79.033,678.79L79.272,681.38L79.511,681.79L79.75,682.02L79.989,684.49L80.229,684.92L80.468,684.66L80.707,686.37L80.946,686.43L81.185,685.15L81.424,684.23L81.664,687.42L81.903,686.52L82.142,685.76L82.381,685.59L82.62,687.94L82.86,687.19L83.099,687.48L83.338,689.02L83.577,690.44L83.816,690.27L84.055,690.7L84.295,693.11L84.534,693.05L84.773,693.31L85.012,693.6L85.251,695.78L85.491,696.07L85.73,696.39L85.969,696.86L86.208,698.45L86.447,699.01L86.686,698.92L86.926,699.38L87.165,700.86L87.404,701.18L87.643,701.44L87.882,699.76L88.122,697.61L88.361,694.48L88.6,692.5L88.839,689.1L89.078,689.6L89.317,689.97L89.557,691.54L89.796,692.65L90.035,693.2L90.274,694.59L90.513,697.35L90.753,697.18L90.992,696.68L91.231,697.47L91.47,699.76L91.709,697.21L91.948,693.78L92.188,692.82L92.427,690.99L92.666,689.45L92.905,687.91L93.144,686.55L93.383,684.72L93.623,682.42L93.862,678.39L94.101,674.32L94.34,671.62L94.579,668.75L94.819,665.06L95.058,661.2L95.297,657.36L95.536,653.59L95.775,649.84L96.014,646.16L96.254,643.22L96.493,640.35L96.732,638.75L96.971,635.21L97.21,631.61L97.45,628.15L97.689,624.67L97.928,621.01L98.167,617.96L98.406,614.53L98.645,610.82L98.885,607.48L99.124,604.19L99.363,601.03L99.602,597.89L99.841,594.73L100.08,591.59L100.32,588.46L100.56,585.49L100.8,582.65L101.04,579.71L101.28,576.84L101.52,574.66L101.75,572.95L101.99,570.65L102.23,568.42L102.47,567L102.71,564.79L102.95,562.61L103.19,561.51L103.43,559.45L103.67,557.33L103.91,556.14L104.15,554.02L104.39,552.51L104.62,549.98L104.86,548.47L105.1,546L105.34,543.56L105.58,541.09L105.82,538.71L106.06,537.41L106.3,535.98L106.54,534.97L106.78,532.93L107.02,530.61L107.26,528.35L107.5,526.52L107.73,524.72L107.97,522.51L108.21,520.39L108.45,519.08L108.69,517.86L108.93,516.58L109.17,514.47L109.41,512.35L109.65,510.25L109.89,508.19L110.13,506.16L110.37,504.85L110.6,504.13L110.84,502.85L111.08,500.88L111.32,498.9L111.56,496.95L111.8,495.91L112.04,493.99L112.28,492.08L112.52,490.65L112.76,489.87L113,488.68L113.24,487.2L113.47,485.37L113.71,483.54L113.95,481.77L114.19,479.97L114.43,478.92L114.67,477.96L114.91,477.09L115.15,475.38L115.39,473.69L115.63,472.07L115.87,471.17L116.11,469.51L116.34,467.86L116.58,466.23L116.82,465.33L117.06,464.46L117.3,462.86L117.54,461.24L117.78,460.4L118.02,458.89L118.26,457.35L118.5,455.81L118.74,454.27L118.98,453.45L119.21,452.58L119.45,451.07L119.69,449.53L119.93,448.75L120.17,447.27L120.41,445.79L120.65,444.37L120.89,442.91L121.13,442.19L121.37,441.46L121.61,440.04L121.85,438.62L122.09,437.92L122.32,436.53L122.56,435.13L122.8,433.77L123.04,432.66L123.28,432.14L123.52,431.15L123.76,429.82L124,428.51L124.24,427.87L124.48,426.54L124.72,425.26L124.96,423.98L125.19,423.23L125.43,422.76L125.67,421.54L125.91,420.32L126.15,419.04L126.39,418.52L126.63,417.3L126.87,416.05L127.11,414.86L127.35,414.28L127.59,413.79L127.83,412.6L128.06,411.41L128.3,410.22L128.54,409.69L128.78,408.5L129.02,407.37L129.26,406.24L129.5,405.72L129.74,405.31L129.98,404.18L130.22,403.04L130.46,401.94L130.7,401.48L130.93,400.6L131.17,400.37L131.41,399.7L131.65,398.92L131.89,398.78L132.13,397.99L132.37,397.93L132.61,397.18L132.85,396.48L133.09,395.46L133.33,394.39L133.57,393.34L133.8,392.5L134.04,391.92L134.28,391.49L134.52,390.47L134.76,390.01L135,389.05L135.24,388.03L135.48,387.07L135.72,386.09L135.96,385.56L136.2,384.69L136.44,384.26L136.68,383.33L136.91,382.98L137.15,382.02L137.39,381.09L137.63,380.13L137.87,379.23L138.11,378.85L138.35,378.01L138.59,377.58L138.83,376.65L139.07,376.33L139.31,375.49L139.55,374.91L139.78,374.32L140.02,373.69L140.26,374.12L140.5,373.57L140.74,372.93L140.98,372.12L141.22,371.25L141.46,370.4L141.7,370.03L141.94,370.38L142.18,369.77L142.42,369.18L142.65,368.63L142.89,368.23L143.13,367.91L143.37,367.06L143.61,366.25L143.85,365.67L144.09,365.35L144.33,364.86L144.57,364.07L144.81,363.29L145.05,363.03L145.29,362.24L145.52,361.46L145.76,360.71L146,360.39L146.24,360.15L146.48,359.37L146.72,358.61L146.96,358.12L147.2,357.57L147.44,356.79L147.68,356.03L147.92,355.22L148.16,354.43L148.39,354.14L148.63,353.42L148.87,352.66L149.11,352.14L149.35,351.47L149.59,350.69L149.83,349.93L150.07,349.12L150.31,348.34L150.55,347.52L150.79,346.68L151.03,345.92L151.26,345.14L151.5,344.5L151.74,344.73L151.98,344.01L152.22,343.37L152.46,342.73L152.7,342.59L152.94,342.5L153.18,341.89L153.42,341.25L153.66,340.61L153.9,340.47L154.14,339.86L154.37,339.19L154.61,339.01L154.85,338.87L155.09,338.23L155.33,337.59L155.57,336.95L155.81,336.78L156.05,336.2L156.29,335.56L156.53,335.35L156.77,334.74L157.01,334.57L157.24,333.93L157.48,333.32L157.72,332.68L157.96,332.54L158.2,331.96L158.44,331.35L158.68,331.2L158.92,330.91L159.16,330.51L159.4,330.01L159.64,329.49L159.88,328.94L160.11,328.79L160.35,328.24L160.59,327.63L160.83,327.49L161.07,326.93L161.31,326.76L161.55,326.18L161.79,325.6L162.03,325.02L162.27,324.9L162.51,324.32L162.75,323.77L162.98,323.62L163.22,323.04L163.46,322.93L163.7,322.35L163.94,321.82L164.18,321.24L164.42,321.1L164.66,320.57L164.9,320.02L165.14,319.88L165.38,319.33L165.62,319.18L165.85,318.66L166.09,318.11L166.33,317.55L166.57,317.47L166.81,316.94L167.05,316.39L167.29,316.28L167.53,315.78L167.77,315.64L168.01,315.11L168.25,314.59L168.49,314.1L168.73,314.01L168.96,313.49L169.2,313.05L169.44,312.91L169.68,312.41L169.92,312.3L170.16,311.78L170.4,311.28L170.64,310.79L170.88,310.7L171.12,310.21L171.36,309.89L171.6,309.66L171.83,309.42L172.07,309.1L172.31,308.58L172.55,308.12L172.79,307.62L173.03,307.54L173.27,307.07L173.51,306.84L173.75,306.52L173.99,306.4L174.23,306L174.47,305.5L174.7,305.07L174.94,304.6L175.18,304.52L175.42,304.08L175.66,303.79L175.9,303.56L176.14,303.44L176.38,303.01L176.62,302.66L176.86,302.4L177.1,302.13L177.34,302.19L177.57,302.42L177.81,302.37L178.05,302.25L178.29,301.82L178.53,301.35L178.77,300.91L179.01,300.86L179.25,300.39L179.49,300.25L179.73,299.9L179.97,299.61L180.21,299.38L180.44,298.94L180.68,298.5L180.92,298.07L181.16,298.01L181.4,297.58L181.64,297.17L181.88,297.11L182.12,296.73L182.36,296.59L182.6,296.15L182.84,295.75L183.08,295.34L183.32,295.25L183.55,294.85L183.79,294.73L184.03,294.58L184.27,294.35L184.51,294.44L184.75,294.21L184.99,294.29L185.23,294.09L185.47,293.74L185.71,293.34L185.95,292.9L186.19,292.46L186.42,292.06L186.66,292.09L186.9,291.97L187.14,291.48L187.38,291.04L187.62,290.64L187.86,290.23L188.1,289.82L188.34,289.44L188.58,289.04L188.82,289.01L189.06,289.36L189.29,288.95L189.53,288.63L189.77,288.43L190.01,288.23L190.25,288.34L190.49,288.14L190.73,287.93L190.97,287.73L191.21,288.08L191.45,287.79L191.69,287.67L191.93,287.32L192.16,286.98L192.4,286.57L192.64,286.16L192.88,285.79L193.12,285.44L193.36,285.03L193.6,284.94L193.84,284.54L194.08,284.13L194.32,283.69L194.56,283.29L194.8,282.88L195.03,282.45L195.27,282.13L195.51,281.81L195.75,281.46L195.99,281.28L196.23,281.17L196.47,280.94L196.71,280.99L196.95,280.67L197.19,280.7L197.43,280.41L197.67,280.09L197.91,280.09L198.14,279.75L198.38,279.4L198.62,279.05L198.86,278.7L199.1,278.35L199.34,278.32L199.58,277.97L199.82,277.97L200.06,277.97L200.3,277.63L200.54,277.31L200.78,276.96L201.01,276.61L201.25,276.29L201.49,276.29L201.73,275.97L201.97,275.97L202.21,275.97L202.45,275.65L202.69,275.33L202.93,275.01L203.17,274.69L203.41,274.37L203.65,274.05L203.88,274.2L204.12,274.05L204.36,274.03L204.6,273.71L204.84,273.39L205.08,273.07L205.32,272.75L205.56,272.43L205.8,272.11L206.04,272.11L206.28,272.11L206.52,272.08L206.75,271.76L206.99,271.44L207.23,271.15L207.47,270.83L207.71,270.51L207.95,270.19L208.19,270.22L208.43,270.19L208.67,270.13L208.91,269.87L209.15,269.58L209.39,269.26L209.62,268.94L209.86,268.65L210.1,268.33L210.34,268.28L210.58,268.36L210.82,268.13L211.06,268.07L211.3,267.78L211.54,267.49L211.78,267.2L212.02,266.91L212.26,266.59L212.5,266.3L212.73,266.62L212.97,266.33L213.21,266.33L213.45,266.04L213.69,265.75L213.93,265.46L214.17,265.17L214.41,264.88L214.65,264.59L214.89,264.76L215.13,264.62L215.37,264.65L215.6,264.36L215.84,264.06L216.08,263.77L216.32,263.48L216.56,263.22L216.8,262.93L217.04,262.82L217.28,262.99L217.52,262.99L217.76,262.73L218,262.47L218.24,262.26L218.47,262.12L218.71,262L218.95,262.12L219.19,262.03L219.43,262.47L219.67,262.35L219.91,262.09L220.15,261.83L220.39,261.8L220.63,261.57L220.87,261.31L221.11,261.02L221.34,260.73L221.58,260.9L221.82,260.78L222.06,260.49L222.3,260.2L222.54,259.94L222.78,259.97L223.02,259.68L223.26,259.42L223.5,259.16L223.74,258.87L223.98,259.16L224.21,258.9L224.45,258.63L224.69,258.34L224.93,258.37L225.17,258.14L225.41,257.85L225.65,257.62L225.89,257.33L226.13,257.59L226.37,257.36L226.61,257.1L226.85,256.81L227.08,256.51L227.32,256.22L227.56,255.96L227.8,255.7L228.04,255.44L228.28,255.12L228.52,255.12L228.76,254.89L229,254.95L229.24,254.71L229.48,254.37L229.72,254.22L229.96,254.1L230.19,254.08L230.43,254.05L230.67,253.93L230.91,254.1L231.15,254.25L231.39,254.13L231.63,254.37L231.87,254.22L232.11,254.1L232.35,254.28L232.59,254.16L232.83,254.05L233.06,253.93L233.3,253.93L233.54,253.7L233.78,253.76L234.02,253.76L234.26,253.52L234.5,253.26L234.74,253L234.98,252.77L235.22,252.51L235.46,252.33L235.7,252.28L235.93,252.04L236.17,252.33L236.41,252.07L236.65,251.84L236.89,251.58L237.13,251.35L237.37,251.11L237.61,250.85L237.85,250.85L238.09,250.62L238.33,250.36L238.57,250.42L238.8,250.18L239.04,249.92L239.28,249.69L239.52,249.43L239.76,249.17L240,248.94L240.24,248.91L240.48,248.65L240.72,248.41L240.96,248.18L241.2,247.98L241.44,247.75L241.67,247.51L241.91,247.25L242.15,246.99L242.39,246.96L242.63,246.7L242.87,246.47L243.11,246.24L243.35,245.97L243.59,245.71L243.83,245.54L244.07,245.36L244.31,245.45L244.55,245.71L244.78,245.6L245.02,245.39L245.26,245.22L245.5,245.31L245.74,245.13L245.98,244.96L246.22,244.78L246.46,244.61L246.7,244.67L246.94,244.96L247.18,244.78L247.42,244.55L247.65,244.35L247.89,244.14L248.13,243.94L248.37,243.74L248.61,243.53L248.85,243.39L249.09,243.88L249.33,243.68L249.57,243.51L249.81,243.27L250.05,243.07L250.29,242.87L250.52,242.66L250.76,242.46L251,242.26L251.24,242.58L251.48,242.61L251.72,242.43L251.96,242.2L252.2,242L252.44,241.79L252.68,241.62L252.92,241.39L253.16,241.21L253.39,241.01L253.63,241.56L253.87,241.36L254.11,241.15L254.35,240.95L254.59,240.78L254.83,240.57L255.07,240.37L255.31,240.17L255.55,239.96L255.79,240.14L256.03,240.34L256.26,240.14L256.5,239.93L256.74,239.73L256.98,239.56L257.22,239.35L257.46,239.18L257.7,239.03L257.94,238.83L258.18,239.15L258.42,239.15L258.66,238.98L258.9,238.77L259.14,238.6L259.37,238.39L259.61,238.22L259.85,238.02L260.09,237.84L260.33,237.87L260.57,237.96L260.81,238.02L261.05,237.84L261.29,237.67L261.53,237.47L261.77,237.35L262.01,237.35L262.24,237.64L262.48,237.87L262.72,238.05L262.96,238.19L263.2,238.25L263.44,238.48L263.68,238.63L263.92,238.45L264.16,238.28L264.4,238.1L264.64,237.9L264.88,237.73L265.11,237.76L265.35,237.58L265.59,237.64L265.83,237.44L266.07,237.49L266.31,237.29L266.55,237.12L266.79,236.94L267.03,236.74L267.27,236.57L267.51,236.62L267.75,236.45L267.98,236.48L268.22,236.3L268.46,236.36L268.7,236.16L268.94,235.98L269.18,235.81L269.42,235.61L269.66,235.4L269.9,235.17L270.14,234.97L270.38,234.74L270.62,234.53L270.85,234.33L271.09,234.13L271.33,233.89L271.57,233.72L271.81,233.52L272.05,233.28L272.29,233.08L272.53,232.88L272.77,232.65L273.01,232.44L273.25,232.24L273.49,232.06L273.73,232.12L273.96,231.95L274.2,231.98L274.44,231.83L274.68,231.8L274.92,231.72L275.16,231.54L275.4,231.63L275.64,231.43L275.88,231.28L276.12,231.08L276.36,230.9L276.6,230.96L276.83,230.76L277.07,231.05L277.31,230.87L277.55,230.7L277.79,230.53L278.03,230.35L278.27,230.18L278.51,230L278.75,229.89L278.99,230.12L279.23,229.94L279.47,229.97L279.7,229.8L279.94,229.65L280.18,229.45L280.42,229.28L280.66,229.36L280.9,229.16L281.14,229.02L281.38,229.04L281.62,228.87L281.86,228.93L282.1,228.75L282.34,228.58L282.57,228.64L282.81,228.49L283.05,228.29L283.29,228.14L283.53,227.97L283.77,228L284.01,227.82L284.25,227.91L284.49,228.09L284.73,228.03L284.97,227.94L285.21,227.88L285.44,228.03L285.68,228L285.92,227.94L286.16,228L286.4,227.82L286.64,227.88L286.88,227.71L287.12,227.53L287.36,227.62L287.6,227.48L287.84,227.3L288.08,227.13L288.31,226.98L288.55,226.98L288.79,226.84L289.03,226.9L289.27,226.75L289.51,226.58L289.75,226.66L289.99,226.49L290.23,226.31L290.47,226.17L290.71,226.02L290.95,225.88L291.19,225.94L291.42,225.97L291.66,225.82L291.9,225.65L292.14,225.7L292.38,225.56L292.62,225.39L292.86,225.21L293.1,225.04L293.34,224.89L293.58,224.95L293.82,225.01L294.06,224.83L294.29,224.66L294.53,224.49L294.77,224.34L295.01,224.17L295.25,224.02L295.49,223.85L295.73,223.7L295.97,223.5L296.21,223.32L296.45,223.24L296.69,223.35L296.93,223.32L297.16,223.29L297.4,223.5L297.64,223.64L297.88,223.67L298.12,223.56L298.36,223.53L298.6,223.58L298.84,223.88L299.08,223.76L299.32,223.58L299.56,223.47L299.8,223.32L300.03,223.18L300.27,223.03L300.51,222.92L300.75,222.98L300.99,223.03L301.23,223.09L301.47,222.98L301.71,222.83L301.95,222.68L302.19,222.54L302.43,222.39L302.67,222.28L302.9,222.13L303.14,222.22L303.38,222.31L303.62,222.34L303.86,222.22L304.1,222.07L304.34,221.93L304.58,221.78L304.82,221.64L305.06,221.49L305.3,221.35L305.54,221.38L305.78,221.47L306.01,221.32L306.25,221.15L306.49,221.03L306.73,220.86L306.97,220.74L307.21,220.56L307.45,220.45L307.69,220.39L307.93,220.33L308.17,220.42L308.41,220.27L308.65,220.13L308.88,220.01L309.12,219.87L309.36,219.72L309.6,219.61L309.84,219.64L310.08,219.69L310.32,219.58L310.56,219.66L310.8,219.52L311.04,219.4L311.28,219.26L311.52,219.14L311.75,219L311.99,218.97L312.23,218.94L312.47,219L312.71,218.88L312.95,218.97L313.19,218.82L313.43,218.71L313.67,218.59L313.91,218.45L314.15,218.3L314.39,218.36L314.62,218.24L314.86,218.3L315.1,218.15L315.34,218.24L315.58,218.13L315.82,217.98L316.06,217.86L316.3,217.75L316.54,217.6L316.78,217.66L317.02,217.52L317.26,217.6L317.49,217.49L317.73,217.57L317.97,217.43L318.21,217.31L318.45,217.17L318.69,217.05L318.93,216.99L319.17,217.23L319.41,217.25L319.65,217.23L319.89,217.2L320.13,217.34L320.37,217.34L320.6,217.49L320.84,217.34L321.08,217.23L321.32,217.08L321.56,217.17L321.8,217.02L322.04,216.91L322.28,216.76L322.52,216.82L322.76,216.91L323,216.76L323.24,216.64L323.47,216.53L323.71,216.38L323.95,216.44L324.19,216.33L324.43,216.21L324.67,216.06L324.91,216.15L325.15,216.21L325.39,216.09L325.63,215.95L325.87,215.83L326.11,215.72L326.34,215.74L326.58,215.63L326.82,215.48L327.06,215.34L327.3,215.19L327.54,215.08L327.78,214.93L328.02,215.02L328.26,214.87L328.5,214.76L328.74,214.76L328.98,214.67L329.21,214.55L329.45,214.41L329.69,214.29L329.93,214.32L330.17,214.18L330.41,214.03L330.65,213.92L330.89,213.77L331.13,213.68L331.37,213.71L331.61,213.77L331.85,213.65L332.08,213.54L332.32,213.6L332.56,213.48L332.8,213.36L333.04,213.25L333.28,213.13L333.52,212.99L333.76,213.04L334,213.1L334.24,212.99L334.48,212.87L334.72,212.9L334.96,212.81L335.19,212.72L335.43,212.58L335.67,212.46L335.91,212.35L336.15,212.23L336.39,212.32L336.63,212.38L336.87,212.41L337.11,212.49L337.35,212.43L337.59,212.41L337.83,212.38L338.06,212.32L338.3,212.46L338.54,212.41L338.78,212.43L339.02,212.52L339.26,212.41L339.5,212.26L339.74,212.14L339.98,212.03L340.22,211.91L340.46,212L340.7,211.88L340.93,211.77L341.17,211.71L341.41,211.88L341.65,211.74L341.89,211.62L342.13,211.53L342.37,211.39L342.61,211.27L342.85,211.27L343.09,211.24L343.33,211.13L343.57,211.01L343.8,211.24L344.04,211.13L344.28,211.01L344.52,210.9L344.76,210.78L345,210.66L345.24,210.52L345.48,210.4L345.72,210.29L345.96,210.17L346.2,210.2L346.44,210.08L346.67,209.94L346.91,209.82L347.15,209.68L347.39,209.53L347.63,209.41L347.87,209.27L348.11,209.15L348.35,209.04L348.59,208.89L348.83,208.95L349.07,208.86L349.31,208.8L349.55,208.92L349.78,208.8L350.02,208.75L350.26,208.8L350.5,208.92L350.74,208.83L350.98,208.75L351.22,208.66L351.46,208.57L351.7,208.89L351.94,208.95L352.18,208.86L352.42,208.8L352.65,208.69L352.89,208.57L353.13,208.48L353.37,208.54L353.61,208.66L353.85,208.63L354.09,208.8L354.33,208.78L354.57,208.75L354.81,208.89L355.05,208.86L355.29,208.83L355.52,208.75L355.76,208.66L356,208.72L356.24,208.63L356.48,208.86L356.72,208.75L356.96,208.66L357.2,208.54L357.44,208.46L357.68,208.34L357.92,208.25L358.16,208.14L358.39,208.19L358.63,208.11L358.87,208.28L359.11,208.25L359.35,208.17L359.59,208.08L359.83,207.93L360.07,207.85L360.31,207.76L360.55,207.64L360.79,207.61L361.03,207.61L361.26,207.5L361.5,207.58L361.74,207.47L361.98,207.38L362.22,207.24L362.46,207.15L362.7,207.03L362.94,206.92L363.18,206.83L363.42,206.89L363.66,206.8L363.9,206.86L364.13,206.77L364.37,206.66L364.61,206.54L364.85,206.45L365.09,206.34L365.33,206.25L365.57,206.22L365.81,206.39L366.05,206.31L366.29,206.39L366.53,206.42L366.77,206.39L367.01,206.39L367.24,206.54L367.48,206.51L367.72,206.48L367.96,206.54L368.2,206.51L368.44,206.39L368.68,206.31L368.92,206.48L369.16,206.48L369.4,206.39L369.64,206.31L369.88,206.22L370.11,206.1L370.35,206.02L370.59,206.07L370.83,205.99L371.07,205.87L371.31,205.76L371.55,205.96L371.79,205.9L372.03,205.81L372.27,205.7L372.51,205.61L372.75,205.52L372.98,205.58L373.22,205.46L373.46,205.35L373.7,205.23L373.94,205.12L374.18,205L374.42,204.91L374.66,204.97L374.9,204.88L375.14,204.77L375.38,204.71L375.62,204.71L375.85,204.62L376.09,204.51L376.33,204.42L376.57,204.33L376.81,204.39L377.05,204.27L377.29,204.16L377.53,204.07L377.77,203.95L378.01,204.01L378.25,204.07L378.49,203.98L378.72,203.87L378.96,203.78L379.2,203.84L379.44,203.75L379.68,203.64L379.92,203.55L380.16,203.46L380.4,203.35L380.64,203.58L380.88,203.46L381.12,203.37L381.36,203.26L381.6,203.17L381.83,203.26L382.07,203.2L382.31,203.2L382.55,203.17L382.79,203.14L383.03,203.26L383.27,203.58L383.51,203.55L383.75,203.55L383.99,203.43L384.23,203.35L384.47,203.23L384.7,203.14L384.94,203.05L385.18,203.14L385.42,203.03L385.66,203.26L385.9,203.17L386.14,203.05L386.38,202.97L386.62,202.85L386.86,202.76L387.1,202.68L387.34,202.59L387.57,202.5L387.81,202.56L388.05,202.53L388.29,202.71L388.53,202.62L388.77,202.53L389.01,202.42L389.25,202.33L389.49,202.21L389.73,202.18L389.97,202.15L390.21,202.24L390.44,202.24L390.68,202.27L390.92,202.33L391.16,202.3L391.4,202.27L391.64,202.15L391.88,202.07L392.12,201.95L392.36,201.84L392.6,201.72L392.84,201.63L393.08,201.52L393.31,201.4L393.55,201.31L393.79,201.31L394.03,201.34L394.27,201.25L394.51,201.34L394.75,201.28L394.99,201.37L395.23,201.46L395.47,201.4L395.71,201.31L395.95,201.25L396.19,201.2L396.42,201.28L396.66,201.37L396.9,201.49L397.14,201.43L397.38,201.34L397.62,201.25L397.86,201.17L398.1,201.23L398.34,201.17L398.58,201.08L398.82,200.99L399.06,200.88L399.29,200.96L399.53,200.88L399.77,200.79L400.01,200.7L400.25,200.62L400.49,200.53L400.73,200.59L400.97,200.5L401.21,200.41L401.45,200.33L401.69,200.24L401.93,200.3L402.16,200.24L402.4,200.15L402.64,200.06L402.88,200.01L403.12,199.98L403.36,200.12L403.6,200.06L403.84,199.98L404.08,199.89L404.32,199.92L404.56,199.89L404.8,199.8L405.03,199.72L405.27,199.66L405.51,199.57L405.75,199.63L405.99,199.72L406.23,199.63L406.47,199.54L406.71,199.45L406.95,199.54L407.19,199.45L407.43,199.37L407.67,199.28L407.9,199.19L408.14,199.25L408.38,199.34L408.62,199.25L408.86,199.16L409.1,199.08L409.34,199.05L409.58,199.19L409.82,199.16L410.06,199.25L410.3,199.28L410.54,199.34L410.78,199.4L411.01,199.4L411.25,199.31L411.49,199.22L411.73,199.31L411.97,199.28L412.21,199.31L412.45,199.22L412.69,199.13L412.93,199.05L413.17,199.11L413.41,199.05L413.65,198.96L413.88,198.87L414.12,198.79L414.36,198.87L414.6,198.9L414.84,198.84L415.08,198.76L415.32,198.7L415.56,198.61L415.8,198.67L416.04,198.58L416.28,198.5L416.52,198.41L416.75,198.44L416.99,198.41L417.23,198.32L417.47,198.23L417.71,198.15L417.95,198.21L418.19,198.12L418.43,198.18L418.67,198.09L418.91,198L419.15,197.91L419.39,197.83L419.62,197.74L419.86,197.83L420.1,197.71L420.34,197.62L420.58,197.54L420.82,197.54L421.06,197.51L421.3,197.42L421.54,197.33L421.78,197.25L422.02,197.16L422.26,197.07L422.49,197.13L422.73,197.07L422.97,196.99L423.21,196.9L423.45,196.87L423.69,196.96L423.93,196.93L424.17,196.84L424.41,196.75L424.65,196.7L424.89,196.61L425.13,196.67L425.36,196.58L425.6,196.52L425.84,196.43L426.08,196.46L426.32,196.55L426.56,196.46L426.8,196.4L427.04,196.32L427.28,196.23L427.52,196.14L427.76,196.23L428,196.2L428.24,196.2L428.47,196.17L428.71,196.29L428.95,196.4L429.19,196.55L429.43,196.55L429.67,196.52L429.91,196.43L430.15,196.38L430.39,196.29L430.63,196.2L430.87,196.11L431.11,196.14L431.34,196.26L431.58,196.32L431.82,196.26L432.06,196.17L432.3,196.09L432.54,196.03L432.78,195.94L433.02,195.85L433.26,195.77L433.5,195.71L433.74,195.68L433.98,195.91L434.21,196L434.45,196L434.69,195.97L434.93,195.97L435.17,196.06L435.41,196.06L435.65,196.06L435.89,195.97L436.13,195.88L436.37,195.8L436.61,195.71L436.85,195.8L437.08,195.68L437.32,195.59L437.56,195.5L437.8,195.39L438.04,195.3L438.28,195.21L438.52,195.13L438.76,195.07L439,194.98L439.24,194.89L439.48,194.81L439.72,194.72L439.95,194.63L440.19,194.72L440.43,194.63L440.67,194.58L440.91,194.69L441.15,194.63L441.39,194.72L441.63,194.66L441.87,194.63L442.11,194.58L442.35,194.49L442.59,194.43L442.83,194.49L443.06,194.43L443.3,194.43L443.54,194.46L443.78,194.4L444.02,194.34L444.26,194.28L444.5,194.49L444.74,194.43L444.98,194.34L445.22,194.28L445.46,194.2L445.7,194.14L445.93,194.23L446.17,194.17L446.41,194.08L446.65,194.02L446.89,194.08L447.13,194.17L447.37,194.11L447.61,194.05L447.85,193.97L448.09,193.91L448.33,193.82L448.57,193.91L448.8,193.85L449.04,193.79L449.28,193.7L449.52,193.88L449.76,193.85L450,193.79L450.24,193.7L450.48,193.65L450.72,193.56L450.96,193.5L451.2,193.59L451.44,193.5L451.67,193.44L451.91,193.44L452.15,193.56L452.39,193.5L452.63,193.44L452.87,193.36L453.11,193.3L453.35,193.24L453.59,193.15L453.83,193.24L454.07,193.15L454.31,193.09L454.54,193.15L454.78,193.24L455.02,193.15L455.26,193.09L455.5,193.04L455.74,192.95L455.98,192.89L456.22,192.83L456.46,192.92L456.7,192.83L456.94,192.77L457.18,192.83L457.42,192.92L457.65,192.83L457.89,192.77L458.13,192.72L458.37,192.63L458.61,192.57L458.85,192.48L459.09,192.57L459.33,192.54L459.57,192.6L459.81,192.83L460.05,192.83L460.29,192.8L460.52,192.8L460.76,192.8L461,192.86L461.24,192.92L461.48,192.89L461.72,192.95L461.96,192.89L462.2,192.83L462.44,192.92L462.68,192.86L462.92,192.8L463.16,192.72L463.39,192.66L463.63,192.75L463.87,192.66L464.11,192.6L464.35,192.66L464.59,192.6L464.83,192.51L465.07,192.6L465.31,192.54L465.55,192.46L465.79,192.4L466.03,192.31L466.26,192.4L466.5,192.31L466.74,192.25L466.98,192.17L467.22,192.08L467.46,192.02L467.7,192.05L467.94,192.11L468.18,192.05L468.42,191.96L468.66,191.9L468.9,191.85L469.13,191.79L469.37,191.7L469.61,191.64L469.85,191.7L470.09,191.64L470.33,191.58L470.57,191.58L470.81,191.53L471.05,191.47L471.29,191.38L471.53,191.32L471.77,191.24L472.01,191.18L472.24,191.12L472.48,191.18L472.72,191.12L472.96,191.06L473.2,190.97L473.44,191.18L473.68,191.09L473.92,191.03L474.16,190.97L474.4,190.92L474.64,190.83L474.88,190.77L475.11,190.68L475.35,190.77L475.59,190.8L475.83,190.89L476.07,191.03L476.31,191L476.55,190.97L476.79,190.97L477.03,191.06L477.27,191.09L477.51,191.03L477.75,190.97L477.98,191.03L478.22,190.95L478.46,190.89L478.7,190.95L478.94,190.89L479.18,190.8L479.42,190.8L479.66,190.8L479.9,190.74L480.14,190.66L480.38,190.6L480.62,190.51L480.85,190.6L481.09,190.57L481.33,190.48L481.57,190.42L481.81,190.48L482.05,190.39L482.29,190.48L482.53,190.39L482.77,190.34L483.01,190.25L483.25,190.19L483.49,190.28L483.72,190.19L483.96,190.13L484.2,190.05L484.44,190.1L484.68,190.05L484.92,189.99L485.16,189.9L485.4,189.81L485.64,189.75L485.88,189.7L486.12,189.81L486.36,189.81L486.6,189.81L486.83,189.78L487.07,189.9L487.31,189.9L487.55,189.99L487.79,189.99L488.03,189.93L488.27,189.87L488.51,189.81L488.75,189.75L488.99,189.7L489.23,189.64L489.47,189.55L489.7,189.73L489.94,189.84L490.18,189.78L490.42,189.7L490.66,189.64L490.9,189.58L491.14,189.49L491.38,189.44L491.62,189.38L491.86,189.32L492.1,189.23L492.34,189.29L492.57,189.49L492.81,189.44L493.05,189.35L493.29,189.29L493.53,189.23L493.77,189.17L494.01,189.09L494.25,189.03L494.49,188.97L494.73,188.88L494.97,188.91L495.21,188.94L495.44,188.94L495.68,188.88L495.92,188.83L496.16,188.74L496.4,188.68L496.64,188.59L496.88,188.51L497.12,188.45L497.36,188.36L497.6,188.27L497.84,188.22L498.08,188.13L498.31,188.07L498.55,187.98L498.79,187.93L499.03,187.9L499.27,187.84L499.51,187.9L499.75,187.93L499.99,188.1L500.23,188.07L500.47,188.01L500.71,187.98L500.95,187.95L501.18,188.01L501.42,188.1L501.66,188.04L501.9,188.01L502.14,187.95L502.38,187.93L502.62,187.98L502.86,187.98L503.1,188.01L503.34,188.1L503.58,188.04L503.82,187.98L504.06,187.9L504.29,187.87L504.53,187.81L504.77,187.81L505.01,187.81L505.25,188.04L505.49,188.1L505.73,188.16L505.97,188.16L506.21,188.16L506.45,188.16L506.69,188.24L506.93,188.19L507.16,188.16L507.4,188.1L507.64,188.01L507.88,188.1L508.12,188.04L508.36,188.1L508.6,188.07L508.84,188.01L509.08,187.93L509.32,188.01L509.56,187.95L509.8,187.9L510.03,187.84L510.27,187.78L510.51,187.81L510.75,187.78L510.99,187.87L511.23,187.81L511.47,187.75L511.71,187.69L511.95,187.66L512.19,187.69L512.43,187.61L512.67,187.58L512.9,187.52L513.14,187.46L513.38,187.52L513.62,187.49L513.86,187.49L514.1,187.43L514.34,187.37L514.58,187.32L514.82,187.23L515.06,187.17L515.3,187.11L515.54,187.05L515.77,187L516.01,187.03L516.25,187L516.49,187.05L516.73,187L516.97,186.94L517.21,186.88L517.45,186.79L517.69,186.73L517.93,186.68L518.17,186.62L518.41,186.56L518.65,186.53L518.88,186.59L519.12,186.62L519.36,186.73L519.6,186.68L519.84,186.59L520.08,186.56L520.32,186.56L520.56,186.53L520.8,186.53L521.04,186.65L521.28,186.65L521.52,186.62L521.75,186.73L521.99,186.82L522.23,186.82L522.47,186.76L522.71,186.79L522.95,186.76L523.19,186.71L523.43,186.65L523.67,186.59L523.91,186.53L524.15,186.47L524.39,186.53L524.62,186.47L524.86,186.56L525.1,186.5L525.34,186.44L525.58,186.47L525.82,186.42L526.06,186.36L526.3,186.3L526.54,186.24L526.78,186.21L527.02,186.15L527.26,186.24L527.49,186.18L527.73,186.18L527.97,186.18L528.21,186.13L528.45,186.13L528.69,186.1L528.93,186.04L529.17,185.98L529.41,185.92L529.65,185.83L529.89,185.81L530.13,185.86L530.36,185.81L530.6,185.86L530.84,185.81L531.08,185.75L531.32,185.69L531.56,185.63L531.8,185.54L532.04,185.49L532.28,185.46L532.52,185.37L532.76,185.46L533,185.4L533.24,185.34L533.47,185.43L533.71,185.37L533.95,185.31L534.19,185.25L534.43,185.2L534.67,185.14L534.91,185.08L535.15,185.02L535.39,184.96L535.63,185.02L535.87,185.08L536.11,185.11L536.34,185.08L536.58,185.02L536.82,184.96L537.06,184.93L537.3,184.85L537.54,184.79L537.78,184.73L538.02,184.67L538.26,184.62L538.5,184.7L538.74,184.76L538.98,184.82L539.21,184.79L539.45,184.79L539.69,184.79L539.93,184.76L540.17,184.85L540.41,184.88L540.65,184.88L540.89,184.88L541.13,184.85L541.37,184.82L541.61,184.85L541.85,184.91L542.08,184.99L542.32,184.93L542.56,184.91L542.8,184.91L543.04,184.91L543.28,184.88L543.52,184.96L543.76,184.99L544,184.96L544.24,185.08L544.48,185.08L544.72,185.02L544.95,185.08L545.19,185.02L545.43,185.08L545.67,185.02L545.91,184.99L546.15,184.93L546.39,184.88L546.63,184.82L546.87,184.76L547.11,184.82L547.35,184.73L547.59,184.7L547.83,184.64L548.06,184.56L548.3,184.64L548.54,184.59L548.78,184.5L549.02,184.44L549.26,184.41L549.5,184.32L549.74,184.27L549.98,184.18L550.22,184.12L550.46,184.06L550.7,184.01L550.93,183.95L551.17,183.86L551.41,183.8L551.65,183.77L551.89,183.74L552.13,183.8L552.37,183.74L552.61,183.83L552.85,183.8L553.09,183.74L553.33,183.71L553.57,183.74L553.8,183.74L554.04,183.71L554.28,183.66L554.52,183.63L554.76,183.57L555,183.54L555.24,183.74L555.48,183.71L555.72,183.77L555.96,183.71L556.2,183.66L556.44,183.63L556.67,183.57L556.91,183.54L557.15,183.48L557.39,183.42L557.63,183.4L557.87,183.4L558.11,183.51L558.35,183.6L558.59,183.54L558.83,183.54L559.07,183.54L559.31,183.54L559.54,183.54L559.78,183.66L560.02,183.66L560.26,183.63L560.5,183.63L560.74,183.74L560.98,183.83L561.22,183.77L561.46,183.83L561.7,183.8L561.94,183.74L562.18,183.71L562.41,183.66L562.65,183.6L562.89,183.54L563.13,183.51L563.37,183.45L563.61,183.54L563.85,183.6L564.09,183.54L564.33,183.6L564.57,183.54L564.81,183.48L565.05,183.42L565.29,183.4L565.52,183.34L565.76,183.31L566,183.25L566.24,183.22L566.48,183.37L566.72,183.31L566.96,183.25L567.2,183.19L567.44,183.13L567.68,183.08L567.92,183.02L568.16,182.99L568.39,182.93L568.63,182.87L568.87,182.81L569.11,182.76L569.35,182.96L569.59,182.93L569.83,182.84L570.07,182.79L570.31,182.73L570.55,182.67L570.79,182.61L571.03,182.58L571.26,182.52L571.5,182.47L571.74,182.41L571.98,182.41L572.22,182.67L572.46,182.61L572.7,182.55L572.94,182.52L573.18,182.47L573.42,182.41L573.66,182.35L573.9,182.29L574.13,182.29L574.37,182.29L574.61,182.41L574.85,182.5L575.09,182.64L575.33,182.61L575.57,182.61L575.81,182.61L576.05,182.73L576.29,182.7L576.53,182.64L576.77,182.58L577,182.55L577.24,182.5L577.48,182.44L577.72,182.47L577.96,182.58L578.2,182.52L578.44,182.47L578.68,182.52L578.92,182.47L579.16,182.44L579.4,182.38L579.64,182.32L579.88,182.26L580.11,182.2L580.35,182.18L580.59,182.23L580.83,182.29L581.07,182.23L581.31,182.18L581.55,182.2L581.79,182.2L582.03,182.15L582.27,182.09L582.51,182.03L582.75,181.97L582.98,181.94L583.22,181.89L583.46,181.94L583.7,182L583.94,181.94L584.18,181.91L584.42,181.83L584.66,181.77L584.9,181.71L585.14,181.65L585.38,181.62L585.62,181.57L585.85,181.51L586.09,181.45L586.33,181.51L586.57,181.6L586.81,181.54L587.05,181.48L587.29,181.45L587.53,181.39L587.77,181.33L588.01,181.28L588.25,181.25L588.49,181.19L588.72,181.13L588.96,181.1L589.2,181.13L589.44,181.33L589.68,181.3L589.92,181.25L590.16,181.19L590.4,181.16L590.64,181.1L590.88,181.04L591.12,180.99L591.36,180.96L591.59,180.9L591.83,180.87L592.07,180.93L592.31,181.07L592.55,181.04L592.79,180.99L593.03,180.93L593.27,180.9L593.51,180.84L593.75,180.78L593.99,180.75L594.23,180.69L594.47,180.64L594.7,180.58L594.94,180.64L595.18,180.81L595.42,180.81L595.66,180.81L595.9,180.81L596.14,180.78L596.38,180.78L596.62,180.84L596.86,180.87L597.1,180.87L597.34,180.87L597.57,180.81L597.81,180.87L598.05,180.93L598.29,180.9L598.53,180.84L598.77,180.78L599.01,180.87L599.25,180.84L599.49,180.78L599.73,180.72L599.97,180.67L600.21,180.64L600.44,180.58L600.68,180.64L600.92,180.69L601.16,180.64L601.4,180.58L601.64,180.55L601.88,180.61L602.12,180.58L602.36,180.52L602.6,180.46L602.84,180.4L603.08,180.35L603.31,180.32L603.55,180.35L603.79,180.43L604.03,180.38L604.27,180.32L604.51,180.29L604.75,180.23L604.99,180.17L605.23,180.11L605.47,180.06L605.71,180L605.95,179.91L606.18,179.88L606.42,179.85L606.66,179.79L606.9,179.74L607.14,179.68L607.38,179.62L607.62,179.56L607.86,179.5L608.1,179.48L608.34,179.45L608.58,179.42L608.82,179.62L609.06,179.59L609.29,179.56L609.53,179.53L609.77,179.62L610.01,179.56L610.25,179.56L610.49,179.74L610.73,179.71L610.97,179.68L611.21,179.65L611.45,179.62L611.69,179.56L611.93,179.65L612.16,179.71L612.4,179.79L612.64,179.77L612.88,179.74L613.12,179.68L613.36,179.65L613.6,179.62L613.84,179.56L614.08,179.53L614.32,179.48L614.56,179.45L614.8,179.5L615.03,179.62L615.27,179.65L615.51,179.59L615.75,179.56L615.99,179.5L616.23,179.48L616.47,179.45L616.71,179.39L616.95,179.36L617.19,179.3L617.43,179.27L617.67,179.33L617.9,179.5L618.14,179.53L618.38,179.53L618.62,179.53L618.86,179.53L619.1,179.56L619.34,179.65L619.58,179.65L619.82,179.65L620.06,179.65L620.3,179.59L620.54,179.56L620.77,179.74L621.01,179.71L621.25,179.77L621.49,179.74L621.73,179.68L621.97,179.65L622.21,179.62L622.45,179.56L622.69,179.5L622.93,179.48L623.17,179.42L623.41,179.39L623.65,179.56L623.88,179.53L624.12,179.59L624.36,179.56L624.6,179.5L624.84,179.45L625.08,179.42L625.32,179.39L625.56,179.33L625.8,179.27L626.04,179.21L626.28,179.18L626.52,179.27L626.75,179.33L626.99,179.27L627.23,179.24L627.47,179.18L627.71,179.13L627.95,179.1L628.19,179.04L628.43,179.01L628.67,178.95L628.91,178.89L629.15,178.87L629.39,178.92L629.62,178.98L629.86,178.95L630.1,178.89L630.34,178.87L630.58,178.81L630.82,178.75L631.06,178.72L631.3,178.69L631.54,178.63L631.78,178.6L632.02,178.55L632.26,178.75L632.49,178.87L632.73,178.87L632.97,178.84L633.21,178.87L633.45,178.87L633.69,178.89L633.93,178.98L634.17,178.98L634.41,178.98L634.65,178.95L634.89,179.01L635.13,178.98L635.36,179.01L635.6,179.01L635.84,178.95L636.08,179.04L636.32,178.98L636.56,178.95L636.8,178.89L637.04,178.87L637.28,178.81L637.52,178.78L637.76,178.75L638,178.78L638.23,178.75L638.47,178.81L638.71,178.78L638.95,178.84L639.19,178.78L639.43,178.72L639.67,178.69L639.91,178.66L640.15,178.6L640.39,178.55L640.63,178.52L640.87,178.55L641.11,178.52L641.34,178.46L641.58,178.43L641.82,178.49L642.06,178.43L642.3,178.4L642.54,178.37L642.78,178.31L643.02,178.26L643.26,178.23L643.5,178.17L643.74,178.23L643.98,178.17L644.21,178.2L644.45,178.2L644.69,178.17L644.93,178.11L645.17,178.05L645.41,178.02L645.65,177.97L645.89,177.94L646.13,177.88L646.37,177.82L646.61,177.88L646.85,177.91L647.08,178.11L647.32,178.11L647.56,178.11L647.8,178.11L648.04,178.11L648.28,178.08L648.52,178.2L648.76,178.2L649,178.2L649.24,178.14L649.48,178.11L649.72,178.17L649.95,178.23L650.19,178.17L650.43,178.14L650.67,178.08L650.91,178.02L651.15,178.11L651.39,178.05L651.63,178.02L651.87,177.97L652.11,177.94L652.35,177.88L652.59,177.94L652.82,177.91L653.06,177.97L653.3,177.91L653.54,177.88L653.78,177.85L654.02,177.79L654.26,177.85L654.5,177.79L654.74,177.76L654.98,177.7L655.22,177.65L655.46,177.65L655.7,177.67L655.93,177.65L656.17,177.59L656.41,177.53L656.65,177.59L656.89,177.53L657.13,177.47L657.37,177.41L657.61,177.38L657.85,177.33L658.09,177.27L658.33,177.21L658.57,177.15L658.8,177.12L659.04,177.07L659.28,177.01L659.52,176.98L659.76,176.95L660,176.92L660.24,176.89L660.48,176.86L660.72,176.89L660.96,176.98L661.2,177.01L661.44,176.98L661.67,176.95L661.91,176.92L662.15,177.01L662.39,177.01L662.63,177.12L662.87,177.18L663.11,177.15L663.35,177.12L663.59,177.07L663.83,177.04L664.07,177.04L664.31,177.09L664.54,177.15L664.78,177.18L665.02,177.18L665.26,177.15L665.5,177.12L665.74,177.09L665.98,177.04L666.22,177.01L666.46,176.98L666.7,176.95L666.94,176.89L667.18,176.95L667.41,176.98L667.65,177.01L667.89,177.07L668.13,177.04L668.37,176.98L668.61,176.95L668.85,176.92L669.09,176.86L669.33,176.83L669.57,176.83L669.81,176.83L670.05,177.04L670.29,177.04L670.52,177.04L670.76,177.15L671,177.18L671.24,177.21L671.48,177.36L671.72,177.38L671.96,177.47L672.2,177.5L672.44,177.5L672.68,177.47L672.92,177.5L673.16,177.44L673.39,177.41L673.63,177.44L673.87,177.56L674.11,177.56L674.35,177.59L674.59,177.53L674.83,177.5L675.07,177.47L675.31,177.41L675.55,177.38L675.79,177.36L676.03,177.3L676.26,177.27L676.5,177.24L676.74,177.36L676.98,177.36L677.22,177.41L677.46,177.38L677.7,177.33L677.94,177.3L678.18,177.24L678.42,177.21L678.66,177.15L678.9,177.12L679.13,177.07L679.37,177.01L679.61,176.98L679.85,176.92L680.09,176.86L680.33,176.83L680.57,176.77L680.81,176.72L681.05,176.66L681.29,176.63L681.53,176.57L681.77,176.51L682,176.46L682.24,176.4L682.48,176.37L682.72,176.31L682.96,176.25L683.2,176.22L683.44,176.16L683.68,176.14L683.92,176.08L684.16,176.05L684.4,176.14L684.64,176.11L684.88,176.11L685.11,176.19L685.35,176.22L685.59,176.28L685.83,176.4L686.07,176.4L686.31,176.4L686.55,176.4L686.79,176.37L687.03,176.4L687.27,176.43L687.51,176.37L687.75,176.34L687.98,176.34L688.22,176.37L688.46,176.43L688.7,176.4L688.94,176.34L689.18,176.28L689.42,176.37L689.66,176.34L689.9,176.28L690.14,176.25L690.38,176.22L690.62,176.16L690.85,176.14L691.09,176.11L691.33,176.16L691.57,176.31L691.81,176.28L692.05,176.25L692.29,176.19L692.53,176.16L692.77,176.11L693.01,176.08L693.25,176.02L693.49,175.99L693.72,175.96L693.96,175.9L694.2,175.85L694.44,175.9L694.68,175.96L694.92,175.93L695.16,175.87L695.4,175.82L695.64,175.79L695.88,175.76L696.12,175.73L696.36,175.67L696.59,175.64L696.83,175.58L697.07,175.56L697.31,175.53L697.55,175.5L697.79,175.67L698.03,175.76L698.27,175.73L698.51,175.7L698.75,175.64L698.99,175.61L699.23,175.58L699.47,175.56L699.7,175.53L699.94,175.47L700.18,175.44L700.42,175.53L700.66,175.58L700.9,175.64L701.14,175.58L701.38,175.56L701.62,175.53L701.86,175.5L702.1,175.47L702.34,175.44L702.57,175.38L702.81,175.35L703.05,175.32L703.29,175.38L703.53,175.47L703.77,175.41L704.01,175.5L704.25,175.5L704.49,175.5L704.73,175.5L704.97,175.5L705.21,175.58L705.44,175.61L705.68,175.58L705.92,175.58L706.16,175.61L706.4,175.61L706.64,175.64L706.88,175.7L707.12,175.76L707.36,175.73L707.6,175.7L707.84,175.67L708.08,175.64L708.31,175.58L708.55,175.56L708.79,175.53L709.03,175.5L709.27,175.44L709.51,175.5L709.75,175.47L709.99,175.56L710.23,175.61L710.47,175.56L710.71,175.53L710.95,175.5L711.18,175.47L711.42,175.41L711.66,175.38L711.9,175.32L712.14,175.29L712.38,175.32L712.62,175.32L712.86,175.32L713.1,175.35L713.34,175.32L713.58,175.26L713.82,175.24L714.05,175.21L714.29,175.15L714.53,175.12L714.77,175.09L715.01,175.06L715.25,175L715.49,175.09L715.73,175.03L715.97,175.03L716.21,175.03L716.45,175.03L716.69,175L716.93,174.97L717.16,174.95L717.4,174.89L717.64,174.86L717.88,174.83L718.12,174.8L718.36,174.77L718.6,174.92L718.84,174.89L719.08,174.86L719.32,174.92L719.56,174.89L719.8,174.86L720.03,174.83L720.27,174.8L720.51,174.74L720.75,174.71L720.99,174.65L721.23,174.63L721.47,174.71L721.71,174.71L721.95,174.74L722.19,174.68L722.43,174.77L722.67,174.74L722.9,174.74L723.14,174.74L723.38,174.74L723.62,174.74L723.86,174.74L724.1,174.8L724.34,174.83L724.58,174.95L724.82,175L725.06,175L725.3,174.97L725.54,174.95L725.77,174.92L726.01,174.86L726.25,174.83L726.49,174.89L726.73,174.86L726.97,174.83L727.21,174.8L727.45,174.83L727.69,174.83L727.93,174.89L728.17,174.83L728.41,174.83L728.64,174.8L728.88,174.83L729.12,174.83L729.36,174.83L729.6,174.92L729.84,175L730.08,175.03L730.32,175L730.56,175.09L730.8,175.09L731.04,175.03L731.28,175L731.52,174.97L731.75,174.92L731.99,174.89L732.23,174.83L732.47,174.8L732.71,174.74L732.95,174.71L733.19,174.65L733.43,174.63L733.67,174.57L733.91,174.54L734.15,174.48L734.39,174.45L734.62,174.42L734.86,174.36L735.1,174.31L735.34,174.28L735.58,174.25L735.82,174.22L736.06,174.28L736.3,174.34L736.54,174.34L736.78,174.31L737.02,174.28L737.26,174.25L737.49,174.22L737.73,174.31L737.97,174.34L738.21,174.34L738.45,174.31L738.69,174.28L738.93,174.28L739.17,174.25L739.41,174.22L739.65,174.25L739.89,174.25L740.13,174.31L740.36,174.28L740.6,174.36L740.84,174.34L741.08,174.31L741.32,174.28L741.56,174.25L741.8,174.22L742.04,174.19L742.28,174.16L742.52,174.13L742.76,174.19L743,174.25L743.23,174.22L743.47,174.16L743.71,174.25L743.95,174.22L744.19,174.19L744.43,174.16L744.67,174.1L744.91,174.07L745.15,174.05L745.39,174.02L745.63,174.02L745.87,174.05L746.11,174.1L746.34,174.07L746.58,174.05L746.82,174.13L747.06,174.13L747.3,174.13L747.54,174.13L747.78,174.22L748.02,174.22L748.26,174.22L748.5,174.22L748.74,174.25L748.98,174.25L749.21,174.31L749.45,174.28L749.69,174.31L749.93,174.39L750.17,174.36L750.41,174.34L750.65,174.28L750.89,174.25L751.13,174.22L751.37,174.19L751.61,174.16L751.85,174.13L752.08,174.13L752.32,174.13L752.56,174.1L752.8,174.16L753.04,174.25L753.28,174.22L753.52,174.16L753.76,174.13L754,174.1L754.24,174.07L754.48,174.02L754.72,173.99L754.95,173.96L755.19,173.96L755.43,173.99L755.67,173.93L755.91,173.9L756.15,173.87L756.39,173.84L756.63,173.9L756.87,173.87L757.11,173.84L757.35,173.78L757.59,173.75L757.82,173.73L758.06,173.7L758.3,173.67L758.54,173.7L758.78,173.67L759.02,173.64L759.26,173.58L759.5,173.67L759.74,173.64L759.98,173.58L760.22,173.55L760.46,173.52L760.7,173.49L760.93,173.44L761.17,173.41L761.41,173.46L761.65,173.44L761.89,173.52L762.13,173.49L762.37,173.44L762.61,173.52L762.85,173.46L763.09,173.44L763.33,173.41L763.57,173.38L763.8,173.35L764.04,173.32L764.28,173.29L764.52,173.26L764.76,173.29L765,173.38L765.24,173.32L765.48,173.29L765.72,173.32L765.96,173.35L766.2,173.35L766.44,173.32L766.67,173.32L766.91,173.32L767.15,173.32L767.39,173.38L767.63,173.41L767.87,173.49L768.11,173.58L768.35,173.55L768.59,173.52L768.83,173.49L769.07,173.46L769.31,173.44L769.54,173.41L769.78,173.38L770.02,173.44L770.26,173.41L770.5,173.35L770.74,173.32L770.98,173.35L771.22,173.38L771.46,173.41L771.7,173.38L771.94,173.38L772.18,173.38L772.41,173.38L772.65,173.38L772.89,173.35L773.13,173.55L773.37,173.55L773.61,173.55L773.85,173.55L774.09,173.55L774.33,173.58L774.57,173.55L774.81,173.52L775.05,173.46L775.28,173.44L775.52,173.41L775.76,173.35L776,173.32L776.24,173.29L776.48,173.26L776.72,173.2L776.96,173.14L777.2,173.12L777.44,173.09L777.68,173.12L777.92,173.09L778.16,173.06L778.39,173.03L778.63,172.97L778.87,172.94L779.11,172.91L779.35,172.85L779.59,172.83L779.83,172.8L780.07,172.8L780.31,172.85L780.55,172.83L780.79,172.8L781.03,172.77L781.26,172.74L781.5,172.71L781.74,172.8L781.98,172.85L782.22,172.83L782.46,172.83L782.7,172.8L782.94,172.77L783.18,172.74L783.42,172.74L783.66,172.71L783.9,172.85L784.13,172.83L784.37,172.8L784.61,172.85L784.85,172.85L785.09,172.83L785.33,172.8L785.57,172.77L785.81,172.74L786.05,172.71L786.29,172.68L786.53,172.71L786.77,172.8L787,172.77L787.24,172.74L787.48,172.71L787.72,172.68L787.96,172.77L788.2,172.74L788.44,172.71L788.68,172.68L788.92,172.65L789.16,172.62L789.4,172.59L789.64,172.56L789.87,172.59L790.11,172.68L790.35,172.65L790.59,172.62L790.83,172.62L791.07,172.74L791.31,172.71L791.55,172.71L791.79,172.8L792.03,172.83L792.27,172.83L792.51,172.83L792.75,172.83L792.98,172.83L793.22,172.88L793.46,172.85L793.7,172.83L793.94,172.88L794.18,172.91L794.42,172.91L794.66,172.88L794.9,172.85L795.14,172.83L795.38,172.8L795.62,172.77L795.85,172.74L796.09,172.71L796.33,172.71L796.57,172.74L796.81,172.71L797.05,172.74L797.29,172.71L797.53,172.8L797.77,172.77L798.01,172.71L798.25,172.68L798.49,172.65L798.72,172.62L798.96,172.56L799.2,172.54L799.44,172.51L799.68,172.56L799.92,172.54L800.16,172.51L800.4,172.45L800.64,172.42L800.88,172.48L801.12,172.45L801.36,172.42L801.59,172.39L801.83,172.36L802.07,172.3L802.31,172.3L802.55,172.24L802.79,172.24L803.03,172.27L803.27,172.24L803.51,172.22L803.75,172.16L803.99,172.24L804.23,172.22L804.46,172.16L804.7,172.13L804.94,172.1L805.18,172.07L805.42,172.04L805.66,172.07L805.9,172.07L806.14,172.13L806.38,172.1L806.62,172.07L806.86,172.04L807.1,171.98L807.34,172.07L807.57,172.04L807.81,172.01L808.05,172.01L808.29,172.01L808.53,172.01L808.77,172.01L809.01,172.1L809.25,172.19L809.49,172.27L809.73,172.27L809.97,172.27L810.21,172.27L810.44,172.22L810.68,172.19L810.92,172.16L811.16,172.13L811.4,172.13L811.64,172.16L811.88,172.13L812.12,172.13L812.36,172.16L812.6,172.22L812.84,172.19L813.08,172.16L813.31,172.13L813.55,172.1L813.79,172.07L814.03,172.04L814.27,171.98L814.51,171.95L814.75,172.04L814.99,172.01L815.23,171.98L815.47,172.01L815.71,171.98L815.95,172.04L816.18,172.01L816.42,171.98L816.66,171.95L816.9,171.93L817.14,171.9L817.38,171.84L817.62,171.81L817.86,171.78L818.1,171.75L818.34,171.69L818.58,171.66L818.82,171.61L819.05,171.58L819.29,171.55L819.53,171.52L819.77,171.49L820.01,171.43L820.25,171.4L820.49,171.37L820.73,171.34L820.97,171.29L821.21,171.26L821.45,171.2L821.69,171.17L821.93,171.14L822.16,171.17L822.4,171.17L822.64,171.26L822.88,171.23L823.12,171.2L823.36,171.26L823.6,171.29L823.84,171.26L824.08,171.34L824.32,171.32L824.56,171.37L824.8,171.34L825.03,171.34L825.27,171.32L825.51,171.32L825.75,171.34L825.99,171.52L826.23,171.52L826.47,171.63L826.71,171.63L826.95,171.63L827.19,171.72L827.43,171.78L827.67,171.78L827.9,171.75L828.14,171.81L828.38,171.78L828.62,171.75L828.86,171.72L829.1,171.72L829.34,171.69L829.58,171.84L829.82,171.81L830.06,171.78L830.3,171.75L830.54,171.72L830.77,171.69L831.01,171.66L831.25,171.63L831.49,171.63L831.73,171.69L831.97,171.66L832.21,171.63L832.45,171.61L832.69,171.69L832.93,171.72L833.17,171.69L833.41,171.66L833.64,171.63L833.88,171.61L834.12,171.61L834.36,171.61L834.6,171.69L834.84,171.69L835.08,171.66L835.32,171.66L835.56,171.66L835.8,171.69L836.04,171.78L836.28,171.87L836.52,171.87L836.75,171.84L836.99,171.78L837.23,171.78L837.47,171.75L837.71,171.72L837.95,171.66L838.19,171.63L838.43,171.61L838.67,171.58L838.91,171.58L839.15,171.61L839.39,171.66L839.62,171.63L839.86,171.61L840.1,171.58L840.34,171.55L840.58,171.52L840.82,171.49L841.06,171.46L841.3,171.43L841.54,171.4L841.78,171.46L842.02,171.43L842.26,171.46L842.49,171.46L842.73,171.4L842.97,171.37L843.21,171.34L843.45,171.32L843.69,171.37L843.93,171.34L844.17,171.32L844.41,171.29L844.65,171.26L844.89,171.29L845.13,171.29L845.36,171.23L845.6,171.2L845.84,171.17L846.08,171.23L846.32,171.2L846.56,171.17L846.8,171.14L847.04,171.11L847.28,171.05L847.52,171.03L847.76,171L848,170.97L848.23,171.03L848.47,171.03L848.71,170.97L848.95,170.94L849.19,170.91L849.43,171L849.67,170.94L849.91,170.94L850.15,170.91L850.39,170.88L850.63,170.85L850.87,170.79L851.1,170.76L851.34,170.82L851.58,170.91L851.82,170.88L852.06,170.85L852.3,170.82L852.54,170.79L852.78,170.76L853.02,170.82L853.26,170.82L853.5,170.82L853.74,170.82L853.98,170.82L854.21,170.82L854.45,170.82L854.69,170.94L854.93,171.05L855.17,171.08L855.41,171.08L855.65,171.05L855.89,171.03L856.13,171L856.37,170.97L856.61,170.94L856.85,170.91L857.08,170.88L857.32,170.91L857.56,170.91L857.8,170.88L858.04,170.94L858.28,171L858.52,170.97L858.76,170.91L859,170.88L859.24,170.85L859.48,170.82L859.72,170.79L859.95,170.76L860.19,170.73L860.43,170.71L860.67,170.68L860.91,170.65L861.15,170.65L861.39,170.65L861.63,170.73L861.87,170.68L862.11,170.65L862.35,170.62L862.59,170.59L862.82,170.53L863.06,170.5L863.3,170.47L863.54,170.44L863.78,170.42L864.02,170.39L864.26,170.36L864.5,170.3L864.74,170.27L864.98,170.24L865.22,170.18L865.46,170.15L865.69,170.12L865.93,170.1L866.17,170.07L866.41,170.12L866.65,170.1L866.89,170.1L867.13,170.07L867.37,170.12L867.61,170.18L867.85,170.18L868.09,170.15L868.33,170.15L868.57,170.12L868.8,170.1L869.04,170.1L869.28,170.15L869.52,170.3L869.76,170.3L870,170.27L870.24,170.24L870.48,170.24L870.72,170.21L870.96,170.21L871.2,170.36L871.44,170.42L871.67,170.42L871.91,170.42L872.15,170.42L872.39,170.42L872.63,170.59L872.87,170.59L873.11,170.59L873.35,170.62L873.59,170.59L873.83,170.56L874.07,170.53L874.31,170.5L874.54,170.59L874.78,170.59L875.02,170.59L875.26,170.68L875.5,170.68L875.74,170.73L875.98,170.79L876.22,170.88L876.46,170.88L876.7,170.88L876.94,170.88L877.18,170.88L877.41,170.85L877.65,170.82L877.89,170.79L878.13,170.76L878.37,170.73L878.61,170.79L878.85,170.85L879.09,170.91L879.33,170.91L879.57,170.88L879.81,170.85L880.05,170.82L880.28,170.79L880.52,170.76L880.76,170.73L881,170.71L881.24,170.68L881.48,170.65L881.72,170.62L881.96,170.59L882.2,170.65L882.44,170.62L882.68,170.68L882.92,170.62L883.16,170.59L883.39,170.56L883.63,170.53L883.87,170.5L884.11,170.44L884.35,170.42L884.59,170.39L884.83,170.36L885.07,170.33L885.31,170.27L885.55,170.24L885.79,170.21L886.03,170.18L886.26,170.12L886.5,170.1L886.74,170.07L886.98,170.04L887.22,170.01L887.46,169.98L887.7,170.04L887.94,170.01L888.18,169.98L888.42,169.95L888.66,169.92L888.9,169.89L889.13,169.95L889.37,169.95L889.61,169.92L889.85,169.86L890.09,169.83L890.33,169.81L890.57,169.78L890.81,169.78L891.05,169.81L891.29,169.89L891.53,169.95L891.77,169.92L892,169.89L892.24,169.86L892.48,169.83L892.72,169.78L892.96,169.78L893.2,169.75L893.44,169.72L893.68,169.69L893.92,169.66L894.16,169.63L894.4,169.72L894.64,169.81L894.87,169.78L895.11,169.75L895.35,169.72L895.59,169.69L895.83,169.66L896.07,169.63L896.31,169.6L896.55,169.57L896.79,169.54L897.03,169.6L897.27,169.57L897.51,169.54L897.75,169.54L897.98,169.6L898.22,169.66L898.46,169.6L898.7,169.57L898.94,169.54L899.18,169.52L899.42,169.49L899.66,169.46L899.9,169.52L900.14,169.49L900.38,169.46L900.62,169.46L900.85,169.43L901.09,169.4L901.33,169.43L901.57,169.49L901.81,169.46L902.05,169.43L902.29,169.4L902.53,169.37L902.77,169.34L903.01,169.4L903.25,169.37L903.49,169.34L903.72,169.31L903.96,169.28L904.2,169.25L904.44,169.25L904.68,169.25L904.92,169.37L905.16,169.37L905.4,169.37L905.64,169.37L905.88,169.46L906.12,169.46L906.36,169.46L906.59,169.46L906.83,169.43L907.07,169.46L907.31,169.46L907.55,169.52L907.79,169.49L908.03,169.46L908.27,169.52L908.51,169.6L908.75,169.6L908.99,169.6L909.23,169.6L909.46,169.6L909.7,169.6L909.94,169.6L910.18,169.66L910.42,169.69L910.66,169.69L910.9,169.75L911.14,169.75L911.38,169.72L911.62,169.69L911.86,169.75L912.1,169.72L912.33,169.69L912.57,169.66L912.81,169.69L913.05,169.69L913.29,169.66L913.53,169.63L913.77,169.6L914.01,169.57L914.25,169.54L914.49,169.52L914.73,169.49L914.97,169.46L915.21,169.4L915.44,169.37L915.68,169.34L915.92,169.31L916.16,169.28L916.4,169.25L916.64,169.2L916.88,169.22L917.12,169.22L917.36,169.2L917.6,169.17L917.84,169.14L918.08,169.11L918.31,169.08L918.55,169.02L918.79,168.99L919.03,168.99L919.27,168.96L919.51,168.96L919.75,168.93L919.99,168.93L920.23,168.96L920.47,168.96L920.71,169.05L920.95,169.05L921.18,169.05L921.42,169.05L921.66,169.05L921.9,169.14L922.14,169.25L922.38,169.25L922.62,169.25L922.86,169.25L923.1,169.31L923.34,169.34L923.58,169.46L923.82,169.43L924.05,169.4L924.29,169.37L924.53,169.34L924.77,169.31L925.01,169.31L925.25,169.37L925.49,169.34L925.73,169.31L925.97,169.28L926.21,169.25L926.45,169.31L926.69,169.31L926.92,169.37L927.16,169.34L927.4,169.31L927.64,169.28L927.88,169.25L928.12,169.22L928.36,169.22L928.6,169.28L928.84,169.25L929.08,169.22L929.32,169.2L929.56,169.17L929.8,169.14L930.03,169.11L930.27,169.08L930.51,169.05L930.75,169.02L930.99,169.08L931.23,169.05L931.47,169.02L931.71,168.99L931.95,169.05L932.19,169.02L932.43,168.99L932.67,168.96L932.9,168.93L933.14,168.91L933.38,168.88L933.62,168.85L933.86,168.91L934.1,168.88L934.34,168.85L934.58,168.82L934.82,168.79L935.06,168.76L935.3,168.82L935.54,168.88L935.77,168.88L936.01,168.85L936.25,168.82L936.49,168.79L936.73,168.76L936.97,168.73L937.21,168.7L937.45,168.76L937.69,168.73L937.93,168.7L938.17,168.67L938.41,168.64L938.64,168.67L938.88,168.76L939.12,168.73L939.36,168.7L939.6,168.67L939.84,168.64L940.08,168.64L940.32,168.61L940.56,168.59L940.8,168.64L941.04,168.61L941.28,168.59L941.51,168.56L941.75,168.53L941.99,168.5L942.23,168.64L942.47,168.61L942.71,168.59L942.95,168.59L943.19,168.56L943.43,168.53L943.67,168.5L943.91,168.53L944.15,168.59L944.39,168.59L944.62,168.59L944.86,168.59L945.1,168.59L945.34,168.59L945.58,168.64L945.82,168.82L946.06,168.82L946.3,168.82L946.54,168.82L946.78,168.79L947.02,168.76L947.26,168.73L947.49,168.7L947.73,168.67L947.97,168.67L948.21,168.64L948.45,168.61L948.69,168.64L948.93,168.64L949.17,168.61L949.41,168.76L949.65,168.76L949.89,168.73L950.13,168.7L950.36,168.67L950.6,168.64L950.84,168.61L951.08,168.59L951.32,168.56L951.56,168.56L951.8,168.53L952.04,168.5L952.28,168.47L952.52,168.44L952.76,168.47L953,168.53L953.23,168.5L953.47,168.47L953.71,168.44L953.95,168.41L954.19,168.38L954.43,168.35L954.67,168.32L954.91,168.27L955.15,168.27L955.39,168.24L955.63,168.21L955.87,168.18L956.1,168.18L956.34,168.18L956.58,168.15L956.82,168.15L957.06,168.15L957.3,168.12L957.54,168.12L957.78,168.12L958.02,168.12L958.26,168.27L958.5,168.3L958.74,168.3L958.98,168.27L959.21,168.24L959.45,168.24L959.69,168.3L959.93,168.3L960.17,168.35L960.41,168.35L960.65,168.32L960.89,168.32L961.13,168.3L961.37,168.35L961.61,168.38L961.85,168.44L962.08,168.53L962.32,168.53L962.56,168.56L962.8,168.56L963.04,168.64L963.28,168.67L963.52,168.67L963.76,168.67L964,168.67L964.24,168.73L964.48,168.82L964.72,168.85L964.95,168.82L965.19,168.79L965.43,168.79L965.67,168.76L965.91,168.73L966.15,168.7L966.39,168.67L966.63,168.64L966.87,168.61L967.11,168.61L967.35,168.67L967.59,168.64L967.82,168.61L968.06,168.67L968.3,168.64L968.54,168.61L968.78,168.61L969.02,168.59L969.26,168.56L969.5,168.53L969.74,168.56L969.98,168.56L970.22,168.53L970.46,168.5L970.69,168.47L970.93,168.44L971.17,168.41L971.41,168.38L971.65,168.35L971.89,168.32L972.13,168.3L972.37,168.27L972.61,168.24L972.85,168.21L973.09,168.24L973.33,168.24L973.57,168.21L973.8,168.18L974.04,168.15L974.28,168.12L974.52,168.09L974.76,168.15L975,168.15L975.24,168.12L975.48,168.09L975.72,168.06L975.96,168.06L976.2,168.03L976.44,168.01L976.67,168.03L976.91,168.06L977.15,168.09L977.39,168.15L977.63,168.12L977.87,168.09L978.11,168.06L978.35,168.06L978.59,168.03L978.83,168.01L979.07,167.98L979.31,167.95L979.54,167.92L979.78,167.89L980.02,167.98L980.26,168.01L980.5,168.06L980.74,168.06L980.98,168.03L981.22,168.01L981.46,167.98L981.7,167.95L981.94,167.92L982.18,167.89L982.41,167.86L982.65,167.92L982.89,167.89L983.13,167.86L983.37,167.86L983.61,167.83L983.85,167.89L984.09,167.92L984.33,167.89L984.57,167.89L984.81,167.86L985.05,167.83L985.28,167.8L985.52,167.77L985.76,167.74L986,167.8L986.24,167.77L986.48,167.74L986.72,167.74L986.96,167.71L987.2,167.74L987.44,167.77L987.68,167.8L987.92,167.77L988.15,167.74L988.39,167.71L988.63,167.71L988.87,167.71L989.11,167.77L989.35,167.8L989.59,167.77L989.83,167.77L990.07,167.77L990.31,167.77L990.55,167.77L990.79,167.86L991.03,168.01L991.26,168.03L991.5,168.01L991.74,167.98L991.98,167.95L992.22,167.92L992.46,167.89L992.7,167.86L992.94,167.86L993.18,167.83L993.42,167.8L993.66,167.77L993.9,167.74L994.13,167.77L994.37,167.83L994.61,167.89L994.85,167.89L995.09,167.86L995.33,167.83L995.57,167.8L995.81,167.77L996.05,167.74L996.29,167.71L996.53,167.69L996.77,167.66L997,167.63L997.24,167.6L997.48,167.6L997.72,167.57L997.96,167.6L998.2,167.66L998.44,167.63L998.68,167.63L998.92,167.57L999.16,167.54L999.4,167.51L999.64,167.48L999.87,167.45L1000.1,167.42L1000.4,167.4L1000.6,167.37L1000.8,167.34L1001.1,167.31L1001.3,167.28L1001.5,167.25L1001.8,167.22L1002,167.19L1002.3,167.16L1002.5,167.13L1002.7,167.13L1003,167.1L1003.2,167.1L1003.5,167.08L1003.7,167.1L1003.9,167.22L1004.2,167.31L1004.4,167.31L1004.7,167.31L1004.9,167.34L1005.1,167.37L1005.4,167.42L1005.6,167.42L1005.9,167.45L1006.1,167.54L1006.3,167.54L1006.6,167.54L1006.8,167.63L1007.1,167.71L1007.3,167.71L1007.5,167.69L1007.8,167.66L1008,167.63L1008.2,167.63L1008.5,167.66L1008.7,167.66L1009,167.63L1009.2,167.63L1009.4,167.63L1009.7,167.66L1009.9,167.63L1010.2,167.6L1010.4,167.66L1010.6,167.66L1010.9,167.63L1011.1,167.6L1011.4,167.6L1011.6,167.57L1011.8,167.54L1012.1,167.6L1012.3,167.57L1012.6,167.57L1012.8,167.54L1013,167.54L1013.3,167.57L1013.5,167.57L1013.7,167.54L1014,167.63L1014.2,167.71L1014.5,167.71L1014.7,167.71L1014.9,167.71L1015.2,167.71L1015.4,167.71L1015.7,167.69L1015.9,167.66L1016.1,167.63L1016.4,167.63L1016.6,167.69L1016.9,167.66L1017.1,167.63L1017.3,167.6L1017.6,167.66L1017.8,167.63L1018.1,167.63L1018.3,167.6L1018.5,167.57L1018.8,167.54L1019,167.6L1019.2,167.57L1019.5,167.57L1019.7,167.54L1020,167.57L1020.2,167.57L1020.4,167.57L1020.7,167.54L1020.9,167.51L1021.2,167.57L1021.4,167.54L1021.6,167.51L1021.9,167.48L1022.1,167.45L1022.4,167.51L1022.6,167.48L1022.8,167.48L1023.1,167.45L1023.3,167.42L1023.6,167.4L1023.8,167.37L1024,167.37L1024.3,167.34L1024.5,167.31L1024.7,167.31L1025,167.34L1025.2,167.31L1025.5,167.28L1025.7,167.25L1025.9,167.31L1026.2,167.28L1026.4,167.28L1026.7,167.25L1026.9,167.22L1027.1,167.19L1027.4,167.16L1027.6,167.13L1027.9,167.1L1028.1,167.08L1028.3,167.16L1028.6,167.13L1028.8,167.1L1029.1,167.08L1029.3,167.08L1029.5,167.1L1029.8,167.13L1030,167.16L1030.3,167.13L1030.5,167.1L1030.7,167.08L1031,167.05L1031.2,167.02L1031.4,167.02L1031.7,166.99L1031.9,167.05L1032.2,167.02L1032.4,166.99L1032.6,166.96L1032.9,166.93L1033.1,166.96L1033.4,167.02L1033.6,167.05L1033.8,167.02L1034.1,166.99L1034.3,166.96L1034.6,166.93L1034.8,166.93L1035,166.9L1035.3,166.87L1035.5,166.9L1035.8,166.9L1036,166.87L1036.2,166.84L1036.5,166.84L1036.7,166.84L1036.9,166.87L1037.2,166.9L1037.4,166.9L1037.7,166.87L1037.9,166.84L1038.1,166.81L1038.4,166.81L1038.6,166.79L1038.9,166.76L1039.1,166.73L1039.3,166.79L1039.6,166.76L1039.8,166.73L1040.1,166.73L1040.3,166.76L1040.5,166.79L1040.8,166.84L1041,166.84L1041.3,166.84L1041.5,166.84L1041.7,166.84L1042,166.84L1042.2,166.84L1042.4,166.93L1042.7,166.96L1042.9,167.05L1043.2,167.05L1043.4,167.05L1043.6,167.05L1043.9,167.05L1044.1,167.05L1044.4,167.13L1044.6,167.16L1044.8,167.22L1045.1,167.22L1045.3,167.28L1045.6,167.28L1045.8,167.25L1046,167.22L1046.3,167.19L1046.5,167.16L1046.8,167.16L1047,167.13L1047.2,167.1L1047.5,167.1L1047.7,167.13L1047.9,167.19L1048.2,167.19L1048.4,167.16L1048.7,167.13L1048.9,167.1L1049.1,167.08L1049.4,167.05L1049.6,167.02L1049.9,167.02L1050.1,166.99L1050.3,166.96L1050.6,166.93L1050.8,166.9L1051.1,166.87L1051.3,166.84L1051.5,166.84L1051.8,166.87L1052,166.84L1052.3,166.81L1052.5,166.79L1052.7,166.76L1053,166.73L1053.2,166.7L1053.5,166.7L1053.7,166.67L1053.9,166.64L1054.2,166.61L1054.4,166.58L1054.6,166.55L1054.9,166.55L1055.1,166.58L1055.4,166.61L1055.6,166.61L1055.8,166.61L1056.1,166.61L1056.3,166.61L1056.6,166.61L1056.8,166.61L1057,166.7L1057.3,166.7L1057.5,166.73L1057.8,166.76L1058,166.73L1058.2,166.73L1058.5,166.7L1058.7,166.76L1059,166.81L1059.2,166.81L1059.4,166.79L1059.7,166.79L1059.9,166.76L1060.1,166.76L1060.4,166.73L1060.6,166.7L1060.9,166.84L1061.1,166.84L1061.3,166.84L1061.6,166.81L1061.8,166.81L1062.1,166.79L1062.3,166.84L1062.5,166.81L1062.8,166.79L1063,166.76L1063.3,166.73L1063.5,166.7L1063.7,166.67L1064,166.64L1064.2,166.61L1064.5,166.61L1064.7,166.58L1064.9,166.55L1065.2,166.52L1065.4,166.52L1065.6,166.52L1065.9,166.64L1066.1,166.61L1066.4,166.58L1066.6,166.55L1066.8,166.52L1067.1,166.5L1067.3,166.5L1067.6,166.47L1067.8,166.44L1068,166.41L1068.3,166.41L1068.5,166.44L1068.8,166.44L1069,166.41L1069.2,166.38L1069.5,166.5L1069.7,166.5L1070,166.47L1070.2,166.44L1070.4,166.41L1070.7,166.41L1070.9,166.38L1071.2,166.35L1071.4,166.32L1071.6,166.32L1071.9,166.38L1072.1,166.35L1072.3,166.32L1072.6,166.32L1072.8,166.29L1073.1,166.38L1073.3,166.38L1073.5,166.38L1073.8,166.35L1074,166.32L1074.3,166.29L1074.5,166.29L1074.7,166.26L1075,166.23L1075.2,166.23L1075.5,166.29L1075.7,166.29L1075.9,166.29L1076.2,166.29L1076.4,166.29L1076.7,166.35L1076.9,166.44L1077.1,166.44L1077.4,166.52L1077.6,166.52L1077.8,166.52L1078.1,166.52L1078.3,166.52L1078.6,166.5L1078.8,166.47L1079,166.44L1079.3,166.44L1079.5,166.41L1079.8,166.38L1080,166.35" style="fill:none;stroke:#F15A60;stroke-width:1.875" />
<path d="M1055,694.3L1080,694.3" style="fill:none;stroke:#F15A60;stroke-width:1.875" />
<text x="959.12" y="-687.85" transform="scale(1, -1)"
	style="font-family:Helvetica;font-weight:normal;font-style:normal;font-size:12pt">Consul v0.6.4</text>
</g>
</svg>
