<?xml version="1.0"?>
<!-- Generated by SVGo and Plotinum VG -->
<svg width="12in" height="8in"
	xmlns="http://www.w3.org/2000/svg"
	xmlns:xlink="http://www.w3.org/1999/xlink">
<g transform="scale(1, -1) translate(0, -720)">
<path d="M0,0L1080,0L1080,720L0,720Z" style="fill:#FFFFFF" />
<text x="261.56" y="-706.41" transform="scale(1, -1)"
	style="font-family:Helvetica;font-weight:normal;font-style:normal;font-size:12pt">Write 2M keys, 1000-client, 8-byte key, 256-byte value (Consul, Test 1), Throughput</text>
<text x="548.11" y="-4.965" transform="scale(1, -1)"
	style="font-family:Helvetica;font-weight:normal;font-style:normal;font-size:12pt">Second</text>
<text x="63.613" y="-19.142" transform="scale(1, -1)"
	style="font-family:Helvetica;font-weight:normal;font-style:normal;font-size:10pt">0</text>
<text x="290.68" y="-19.142" transform="scale(1, -1)"
	style="font-family:Helvetica;font-weight:normal;font-style:normal;font-size:10pt">1000</text>
<text x="528.18" y="-19.142" transform="scale(1, -1)"
	style="font-family:Helvetica;font-weight:normal;font-style:normal;font-size:10pt">2000</text>
<text x="765.67" y="-19.142" transform="scale(1, -1)"
	style="font-family:Helvetica;font-weight:normal;font-style:normal;font-size:10pt">3000</text>
<text x="1003.2" y="-19.142" transform="scale(1, -1)"
	style="font-family:Helvetica;font-weight:normal;font-style:normal;font-size:10pt">4000</text>
<path d="M67.088,30.467L67.088,40.467" style="fill:none;stroke:#000000;stroke-width:0.625" />
<path d="M304.58,30.467L304.58,40.467" style="fill:none;stroke:#000000;stroke-width:0.625" />
<path d="M542.08,30.467L542.08,40.467" style="fill:none;stroke:#000000;stroke-width:0.625" />
<path d="M779.57,30.467L779.57,40.467" style="fill:none;stroke:#000000;stroke-width:0.625" />
<path d="M1017.1,30.467L1017.1,40.467" style="fill:none;stroke:#000000;stroke-width:0.625" />
<path d="M185.83,35.468L185.83,40.467" style="fill:none;stroke:#000000;stroke-width:0.625" />
<path d="M423.33,35.468L423.33,40.467" style="fill:none;stroke:#000000;stroke-width:0.625" />
<path d="M660.82,35.468L660.82,40.467" style="fill:none;stroke:#000000;stroke-width:0.625" />
<path d="M898.32,35.468L898.32,40.467" style="fill:none;stroke:#000000;stroke-width:0.625" />
<path d="M67.088,40.467L1080,40.467" style="fill:none;stroke:#000000;stroke-width:0.625" />
<g transform="rotate(90)">
<text x="335.88" y="13.59" transform="scale(1, -1)"
	style="font-family:Helvetica;font-weight:normal;font-style:normal;font-size:12pt">Throughput</text>
</g>
<text x="39.405" y="-41.661" transform="scale(1, -1)"
	style="font-family:Helvetica;font-weight:normal;font-style:normal;font-size:10pt">0</text>
<text x="18.555" y="-217.69" transform="scale(1, -1)"
	style="font-family:Helvetica;font-weight:normal;font-style:normal;font-size:10pt">3000</text>
<text x="18.555" y="-393.72" transform="scale(1, -1)"
	style="font-family:Helvetica;font-weight:normal;font-style:normal;font-size:10pt">6000</text>
<text x="18.555" y="-569.75" transform="scale(1, -1)"
	style="font-family:Helvetica;font-weight:normal;font-style:normal;font-size:10pt">9000</text>
<path d="M49.83,47.03L59.83,47.03" style="fill:none;stroke:#000000;stroke-width:0.625" />
<path d="M49.83,223.06L59.83,223.06" style="fill:none;stroke:#000000;stroke-width:0.625" />
<path d="M49.83,399.09L59.83,399.09" style="fill:none;stroke:#000000;stroke-width:0.625" />
<path d="M49.83,575.12L59.83,575.12" style="fill:none;stroke:#000000;stroke-width:0.625" />
<path d="M54.83,105.71L59.83,105.71" style="fill:none;stroke:#000000;stroke-width:0.625" />
<path d="M54.83,164.38L59.83,164.38" style="fill:none;stroke:#000000;stroke-width:0.625" />
<path d="M54.83,281.73L59.83,281.73" style="fill:none;stroke:#000000;stroke-width:0.625" />
<path d="M54.83,340.41L59.83,340.41" style="fill:none;stroke:#000000;stroke-width:0.625" />
<path d="M54.83,457.76L59.83,457.76" style="fill:none;stroke:#000000;stroke-width:0.625" />
<path d="M54.83,516.44L59.83,516.44" style="fill:none;stroke:#000000;stroke-width:0.625" />
<path d="M54.83,633.79L59.83,633.79" style="fill:none;stroke:#000000;stroke-width:0.625" />
<path d="M54.83,692.47L59.83,692.47" style="fill:none;stroke:#000000;stroke-width:0.625" />
<path d="M59.83,47.03L59.83,701.44" style="fill:none;stroke:#000000;stroke-width:0.625" />
<path d="M67.088,342.64L67.325,681.32L67.562,580.28L67.8,640.3L68.037,548.01L68.275,584.86L68.512,570.95L68.75,594.36L68.987,547.6L69.225,588.43L69.462,622.64L69.7,588.2L69.937,650.4L70.175,573.24L70.412,587.85L70.65,620.88L70.887,593.48L71.125,587.79L71.362,534.92L71.6,590.37L71.837,600.76L72.075,587.26L72.312,626.98L72.55,593.54L72.787,616.83L73.025,569.01L73.262,560.04L73.5,523.54L73.737,512.86L73.975,536.04L74.212,563.38L74.45,580.28L74.687,490.27L74.925,493.79L75.162,576.52L75.4,498.66L75.637,574.12L75.875,626.69L76.112,558.45L76.35,565.32L76.587,614.13L76.825,560.45L77.062,667.53L77.3,554.17L77.537,590.61L77.775,607.68L78.012,566.84L78.25,620.47L78.487,555.22L78.725,686.31L78.962,536.33L79.2,682.02L79.437,493.79L79.675,679.68L79.912,482.52L80.15,687.19L80.387,506.23L80.625,274.4L80.862,168.55L81.1,164.73L81.337,246.76L81.575,479.24L81.812,358.37L82.05,432.24L82.287,529.76L82.525,510.92L82.762,512.92L83,654.03L83.237,510.57L83.475,664.83L83.712,548.83L83.95,629.1L84.187,620.12L84.425,531.17L84.662,642.53L84.9,528.35L85.137,701.44L85.375,576.58L85.612,520.9L85.85,644.41L86.087,602.4L86.325,546.77L86.562,661.84L86.8,465.86L87.037,628.8L87.275,589.37L87.512,453.07L87.749,518.96L87.987,563.09L88.224,531.99L88.462,471.79L88.699,560.68L88.937,571.42L89.174,424.9L89.412,552.41L89.649,644.82L89.887,510.69L90.124,620.71L90.362,686.19L90.599,522.25L90.837,595.95L91.074,577.52L91.312,640.42L91.549,488.39L91.787,675.39L92.024,538.85L92.262,518.73L92.499,619.42L92.737,583.74L92.974,608.68L93.212,467.33L93.449,647.87L93.687,534.98L93.924,638.07L94.162,446.2L94.399,665.01L94.637,352.79L94.874,181.81L95.112,168.78L95.349,172.83L95.587,192.43L95.824,552.76L96.062,650.98L96.299,532.11L96.537,365.82L96.774,382.6L97.012,649.75L97.249,456.65L97.487,409.65L97.724,411.17L97.962,380.96L98.199,401.9L98.437,81.003L98.674,66.569L98.912,92.269L99.149,103.65L99.387,88.162L99.624,78.246L99.862,85.874L100.1,89.981L100.34,73.669L100.57,53.074L100.81,50.433L101.05,51.372L101.29,65.337L101.52,51.489L101.76,49.612L102,49.494L102.24,58.707L102.47,47.91L102.71,50.14L102.95,50.257L103.19,51.079L103.42,50.433L103.66,48.262L103.9,47.03L104.14,47.089L104.37,47.03L104.61,47.03L104.85,47.089L105.09,47.03L105.32,47.03L105.56,47.206L105.8,47.03L106.04,48.262L106.27,47.03L106.51,47.03L106.75,47.089L106.99,47.03L107.22,66.276L107.46,52.076L107.7,49.67L107.94,49.494L108.17,58.178L108.41,48.497L108.65,48.966L108.89,50.14L109.12,51.02L109.36,51.783L109.6,48.614L109.84,67.567L110.07,52.017L110.31,47.089L110.55,52.076L110.79,58.12L111.02,48.556L111.26,48.966L111.5,50.14L111.74,51.02L111.97,51.724L112.21,48.732L112.45,67.273L112.69,52.311L112.92,62.051L113.16,49.318L113.4,48.614L113.64,50.609L113.87,51.079L114.11,50.785L114.35,49.436L114.59,61.288L114.82,58.178L115.06,52.78L115.3,57.357L115.54,48.79L115.77,47.91L116.01,51.313L116.25,49.612L116.49,52.252L116.72,48.438L116.96,57.885L117.2,61.992L117.44,48.732L117.67,55.714L117.91,53.954L118.15,48.438L118.39,49.025L118.62,50.14L118.86,51.079L119.1,51.841L119.34,64.457L119.57,56.242L119.81,51.607L120.05,52.194L120.29,53.954L120.52,48.438L120.76,49.025L121,50.199L121.24,51.02L121.47,50.727L121.71,51.079L121.95,66.393L122.19,52.076L122.42,52.194L122.66,53.719L122.9,52.017L123.14,47.91L123.37,49.084L123.61,49.964L123.85,51.02L124.09,50.668L124.32,49.729L124.56,65.865L124.8,53.778L125.04,52.135L125.27,51.137L125.51,54.071L125.75,48.497L125.99,49.201L126.22,51.841L126.46,52.194L126.7,48.849L126.94,61.171L127.17,59.235L127.41,51.548L127.65,48.908L127.89,57.416L128.12,48.614L128.36,49.26L128.6,51.783L128.84,52.428L129.07,48.966L129.31,61.934L129.55,58.707L129.79,52.311L130.02,53.836L130.26,52.076L130.5,49.436L130.74,50.257L130.97,52.722L131.21,50.316L131.45,60.936L131.69,59.587L131.92,51.783L132.16,54.775L132.4,52.252L132.64,49.612L132.87,51.959L133.11,52.546L133.35,51.137L133.59,64.692L133.82,54.188L134.06,55.714L134.3,54.893L134.54,49.729L134.77,52.017L135.01,52.722L135.25,50.961L135.49,68.447L135.72,53.895L135.96,55.127L136.2,52.604L136.44,52.076L136.67,51.255L136.91,52.017L137.15,65.982L137.39,58.824L137.62,52.37L137.86,55.362L138.1,52.076L138.34,52.898L138.57,52.898L138.81,68.505L139.05,54.188L139.29,58.413L139.52,49.553L139.76,53.719L140,53.836L140.24,61.054L140.47,60.291L140.71,59.763L140.95,51.841L141.19,53.895L141.42,53.66L141.66,61.347L141.9,60.291L142.14,56.183L142.37,55.538L142.61,54.071L142.85,53.895L143.09,62.873L143.32,61.992L143.56,58.707L143.8,51.255L144.04,54.482L144.27,61.64L144.51,64.046L144.75,59.88L144.99,53.778L145.22,54.541L145.46,61.64L145.7,61.112L145.94,62.873L146.17,52.252L146.41,59.117L146.65,58.531L146.89,64.046L147.12,62.403L147.36,52.839L147.6,59.939L147.84,62.286L148.07,60.349L148.31,60.995L148.55,59.352L148.79,62.286L149.02,63.87L149.26,60.232L149.5,54.951L149.74,60.349L149.97,62.11L150.21,65.396L150.45,58.648L150.69,56.888L150.92,65.865L151.16,60.408L151.4,58.765L151.64,59L151.87,61.054L152.11,63.87L152.35,61.23L152.59,56.242L152.82,61.699L153.06,63.987L153.3,59.88L153.54,58.531L153.77,49.788L154.01,61.699L154.25,47.03L154.49,47.03L154.72,88.631L154.96,47.03L155.2,47.03L155.44,47.03L155.67,47.03L155.91,47.03L156.15,47.03L156.39,47.03L156.62,58.648L156.86,47.03L157.1,47.03L157.34,50.844L157.57,62.11L157.81,96.67L158.05,85.228L158.29,92.797L158.52,69.914L158.76,104.18L159,88.983L159.24,85.169L159.47,84.759L159.71,70.148L159.95,70.031L160.19,66.158L160.42,73.669L160.66,63.753L160.9,66.217L161.14,73.61L161.37,59.997L161.61,66.1L161.85,69.914L162.09,63.694L162.32,66.217L162.56,66.276L162.8,65.924L163.04,63.694L163.27,62.462L163.51,64.163L163.75,61.875L163.99,65.22L164.22,63.166L164.46,62.168L164.7,60.349L164.94,65.748L165.17,62.344L165.41,62.227L165.65,60.291L165.89,65.924L166.12,58.472L166.36,63.635L166.6,62.579L166.84,62.11L167.07,62.286L167.31,59.939L167.55,58.707L167.79,65.806L168.02,58.589L168.26,63.518L168.5,58.883L168.73,65.865L168.97,58.531L169.21,62.11L169.45,60.291L169.68,62.051L169.92,62.286L170.16,58.472L170.4,60.173L170.63,65.748L170.87,58.824L171.11,58.531L171.35,63.694L171.58,65.748L171.82,58.589L172.06,58.765L172.3,60.056L172.53,62.168L172.77,62.168L173.01,58.707L173.25,63.753L173.48,62.168L173.72,62.051L173.96,58.648L174.2,60.115L174.43,62.286L174.67,60.878L174.91,59.763L175.15,61.992L175.38,60.349L175.62,61.934L175.86,62.521L176.1,61.934L176.33,59.997L176.57,62.344L176.81,60.232L177.05,64.222L177.28,56.653L177.52,65.63L177.76,55.069L178,62.344L178.23,63.635L178.47,61.934L178.71,58.883L178.95,58.765L179.18,59.821L179.42,65.924L179.66,60.467L179.9,60.291L180.13,59.88L180.37,62.462L180.61,60.408L180.85,60.408L181.08,58.531L181.32,59.939L181.56,65.63L181.8,62.579L182.03,58.589L182.27,56.242L182.51,65.63L182.75,59L182.98,58.472L183.22,59.88L183.46,62.286L183.7,60.467L183.93,63.929L184.17,58.296L184.41,63.635L184.65,58.941L184.88,62.462L185.12,58.237L185.36,59.469L185.6,62.344L185.83,59L186.07,58.648L186.31,59.997L186.55,62.051L186.78,64.163L187.02,56.946L187.26,63.283L187.5,58.12L187.73,62.403L187.97,62.521L188.21,55.01L188.45,62.99L188.68,59.059L188.92,62.286L189.16,58.354L189.4,60.173L189.63,61.699L189.87,58.941L190.11,58.707L190.35,56.36L190.58,65.102L190.82,59.117L191.06,60.173L191.3,60.232L191.53,55.186L191.77,59.293L192.01,62.286L192.25,59L192.48,58.237L192.72,60.291L192.96,61.758L193.2,59L193.43,62.403L193.67,59.939L193.91,61.523L194.15,62.286L194.38,59.176L194.62,58.178L194.86,60.173L195.1,62.168L195.33,62.11L195.57,58.472L195.81,59.059L196.05,66.628L196.28,58.589L196.52,59.235L196.76,59.939L197,65.278L197.23,58.472L197.47,59L197.71,58.354L197.95,47.03L198.18,47.03L198.42,47.03L198.66,47.03L198.9,47.03L199.13,100.43L199.37,47.03L199.61,47.03L199.85,47.03L200.08,47.03L200.32,47.03L200.56,47.03L200.8,47.03L201.03,54.717L201.27,47.03L201.51,62.286L201.75,81.356L201.98,100.31L202.22,77.6L202.46,97.785L202.7,83.996L202.93,88.983L203.17,92.797L203.41,73.669L203.65,88.925L203.88,77.542L204.12,73.728L204.36,69.972L204.6,73.728L204.83,67.625L205.07,73.552L205.31,62.521L205.55,71.263L205.78,69.796L206.02,58.824L206.26,67.449L206.5,65.982L206.73,66.158L206.97,59.997L207.21,69.796L207.45,66.1L207.68,62.286L207.92,64.222L208.16,65.572L208.4,58.824L208.63,71.146L208.87,66.041L209.11,62.403L209.35,63.694L209.58,62.521L209.82,69.503L210.06,55.127L210.3,67.391L210.53,62.344L210.77,62.286L211.01,62.168L211.25,67.567L211.48,61.816L211.72,59.176L211.96,65.924L212.2,63.87L212.43,65.924L212.67,55.01L212.91,63.811L213.15,69.855L213.38,58.531L213.62,61.934L213.86,64.105L214.1,65.22L214.33,59.352L214.57,61.992L214.81,63.929L215.05,65.572L215.28,58.941L215.52,63.87L215.76,58.589L216,65.396L216.23,59L216.47,62.344L216.71,60.056L216.95,69.21L217.18,58.765L217.42,60.291L217.66,62.403L217.9,65.689L218.13,58.707L218.37,61.054L218.61,64.985L218.85,62.051L219.08,62.521L219.32,57.416L219.56,65.102L219.8,61.758L220.03,58.765L220.27,61.23L220.51,65.161L220.75,61.699L220.98,58.765L221.22,61.112L221.46,65.22L221.7,61.64L221.93,55.479L222.17,64.281L222.41,61.464L222.65,61.699L222.88,58.941L223.12,62.11L223.36,56.712L223.6,62.462L223.83,61.406L224.07,62.286L224.31,57.709L224.55,61.464L224.78,61.406L225.02,55.597L225.26,61.816L225.5,61.758L225.73,60.936L225.97,61.582L226.21,59.528L226.45,56.77L226.68,61.112L226.92,61.523L227.16,55.597L227.4,61.64L227.63,56.77L227.87,62.168L228.11,61.582L228.35,55.01L228.58,61.171L228.82,55.538L229.06,60.702L229.3,61.758L229.53,54.658L229.77,61.23L230.01,59L230.25,60.995L230.48,57.944L230.72,54.658L230.96,61.288L231.2,57.768L231.43,58.472L231.67,61.758L231.91,51.372L232.15,47.206L232.38,47.03L232.62,47.147L232.86,47.03L233.1,57.181L233.33,54.247L233.57,60.995L233.81,58.941L234.05,58.648L234.28,50.903L234.52,61.347L234.76,56.653L235,62.11L235.23,54.306L235.47,55.655L235.71,50.844L235.95,58.354L236.18,52.722L236.42,53.954L236.66,54.482L236.9,55.186L237.13,53.719L237.37,55.597L237.61,50.844L237.85,60.936L238.08,57.122L238.32,54.599L238.56,54.775L238.8,53.719L239.03,55.89L239.27,50.785L239.51,60.995L239.75,54.482L239.98,56.946L240.22,55.069L240.46,53.719L240.7,55.186L240.93,51.607L241.17,57.298L241.41,58.061L241.65,54.834L241.88,57.122L242.12,53.836L242.36,55.127L242.6,51.607L242.83,57.181L243.07,58.002L243.31,55.01L243.55,57.122L243.78,54.071L244.02,55.655L244.26,50.961L244.5,57.416L244.73,57.944L244.97,54.775L245.21,53.132L245.45,47.03L245.68,64.926L245.92,48.908L246.16,47.03L246.4,71.733L246.63,47.03L246.87,64.985L247.11,47.03L247.35,47.03L247.58,50.844L247.82,47.03L248.06,47.03L248.3,47.03L248.53,47.03L248.77,47.03L249.01,54.658L249.25,58.472L249.48,88.925L249.72,88.925L249.96,89.042L250.2,88.983L250.43,88.925L250.67,62.403L250.91,100.31L251.15,92.797L251.38,96.611L251.62,69.796L251.86,104.24L252.1,81.297L252.33,69.796L252.57,70.031L252.81,69.855L253.05,73.669L253.28,67.567L253.52,66.158L253.76,65.982L254,63.929L254.23,66.1L254.47,69.738L254.71,60.173L254.95,69.855L255.18,62.403L255.42,62.344L255.66,63.811L255.9,69.62L256.13,62.227L256.37,67.625L256.61,62.344L256.85,60.76L257.08,64.105L257.32,59.939L257.56,69.679L257.8,63.518L258.03,62.697L258.27,62.344L258.51,64.281L258.75,64.163L258.98,63.694L259.22,62.051L259.46,62.462L259.7,59.997L259.93,65.982L260.17,58.531L260.41,62.579L260.65,63.518L260.88,63.753L261.12,60.526L261.36,62.814L261.6,63.635L261.83,62.168L262.07,62.227L262.31,58.941L262.55,63.518L262.78,62.168L263.02,62.168L263.26,61.934L263.5,64.105L263.73,62.11L263.97,60.819L264.21,59.763L264.45,64.105L264.68,62.227L264.92,60.76L265.16,59.763L265.4,64.515L265.63,65.572L265.87,58.941L266.11,65.396L266.35,60.76L266.58,62.11L266.82,66.158L267.06,63.694L267.3,58.589L267.53,65.689L267.77,61.934L268.01,64.515L268.25,61.875L268.48,58.589L268.72,65.572L268.96,60.819L269.2,61.934L269.43,60.643L269.67,63.401L269.91,59.763L270.14,62.873L270.38,55.186L270.62,62.344L270.86,59.939L271.09,58.648L271.33,61.934L271.57,59.176L271.81,64.574L272.04,57.064L272.28,61.758L272.52,55.245L272.76,62.227L272.99,59.997L273.23,58.648L273.47,61.816L273.71,55.01L273.94,62.286L274.18,59.821L274.42,58.531L274.66,58.472L274.89,54.599L275.13,47.089L275.37,47.03L275.61,47.03L275.84,47.089L276.08,47.03L276.32,47.089L276.56,47.03L276.79,47.03L277.03,48.966L277.27,47.03L277.51,49.318L277.74,47.03L277.98,47.03L278.22,47.089L278.46,47.03L278.69,47.089L278.93,47.03L279.17,64.515L279.41,57.005L279.64,58.648L279.88,54.775L280.12,58.824L280.36,57.944L280.59,56.066L280.83,54.658L281.07,53.778L281.31,55.245L281.54,54.893L281.78,53.015L282.02,56.36L282.26,53.778L282.49,51.137L282.73,52.956L282.97,54.658L283.21,51.079L283.44,57.768L283.68,47.734L283.92,54.599L284.16,51.372L284.39,54.13L284.63,53.543L284.87,51.079L285.11,49.67L285.34,54.13L285.58,51.079L285.82,54.599L286.06,54.306L286.29,50.961L286.53,51.255L286.77,51.313L287.01,54.071L287.24,53.543L287.48,51.137L287.72,49.729L287.96,54.012L288.19,51.02L288.43,50.961L288.67,54.13L288.91,51.313L289.14,54.599L289.38,51.255L289.62,54.071L289.86,51.02L290.09,53.66L290.33,49.612L290.57,53.367L290.81,48.38L291.04,51.02L291.28,54.365L291.52,54.306L291.76,50.961L291.99,51.255L292.23,51.255L292.47,54.071L292.71,50.961L292.94,53.719L293.18,49.494L293.42,54.188L293.66,51.02L293.89,48.086L294.13,55.538L294.37,52.722L294.61,54.541L294.84,49.318L295.08,52.722L295.32,53.484L295.56,51.196L295.79,52.956L296.03,53.426L296.27,48.556L296.51,50.961L296.74,54.306L296.98,54.423L297.22,51.02L297.46,52.722L297.69,52.839L297.93,47.03L298.17,47.03L298.41,63.694L298.64,47.03L298.88,47.03L299.12,58.296L299.36,47.03L299.59,47.03L299.83,47.03L300.07,47.03L300.31,47.03L300.54,47.03L300.78,89.218L301.02,50.844L301.26,47.03L301.49,47.03L301.73,47.03L301.97,47.03L302.21,96.553L302.44,85.169L302.68,88.983L302.92,88.983L303.16,88.983L303.39,88.983L303.63,78.07L303.87,95.966L304.11,81.414L304.34,62.286L304.58,77.424L304.82,66.217L305.06,69.914L305.29,67.391L305.53,66.276L305.77,67.625L306.01,65.865L306.24,62.521L306.48,69.796L306.72,59.939L306.96,60.702L307.19,64.046L307.43,62.286L307.67,67.273L307.91,62.462L308.14,62.403L308.38,63.635L308.62,64.457L308.86,60.232L309.09,66.1L309.33,63.694L309.57,60.76L309.81,64.046L310.04,62.168L310.28,67.391L310.52,62.403L310.76,65.982L310.99,59.997L311.23,64.574L311.47,60.349L311.71,62.11L311.94,71.146L312.18,62.521L312.42,65.865L312.66,60.056L312.89,64.457L313.13,60.408L313.37,65.924L313.61,63.87L313.84,64.398L314.08,63.87L314.32,63.635L314.56,64.457L314.79,60.408L315.03,65.982L315.27,63.753L315.51,57.122L315.74,66.158L315.98,65.044L316.22,65.924L316.46,58.824L316.69,62.286L316.93,63.694L317.17,64.339L317.41,64.163L317.64,65.044L317.88,64.457L318.12,57.416L318.36,62.344L318.59,68.799L318.83,62.051L319.07,62.638L319.31,58.707L319.54,68.623L319.78,59.645L320.02,65.924L320.26,62.814L320.49,64.75L320.73,57.24L320.97,63.753L321.21,67.273L321.44,62.227L321.68,62.462L321.92,58.824L322.16,66.452L322.39,59.176L322.63,62.579L322.87,62.344L323.11,67.449L323.34,57.005L323.58,63.694L323.82,62.462L324.06,63.401L324.29,57.357L324.53,63.577L324.77,62.462L325.01,63.518L325.24,57.181L325.48,62.168L325.72,60.232L325.96,63.283L326.19,58.531L326.43,61.112L326.67,59.997L326.91,58.589L327.14,63.401L327.38,53.484L327.62,59.821L327.86,58.765L328.09,60.936L328.33,64.163L328.57,54.012L328.81,58.589L329.04,63.401L329.28,57.474L329.52,60.584L329.76,55.831L329.99,57.826L330.23,62.286L330.47,57.298L330.71,60.76L330.94,57.298L331.18,55.01L331.42,47.089L331.66,47.03L331.89,48.145L332.13,54.599L332.37,57.357L332.61,60.819L332.84,57.298L333.08,58.707L333.32,52.252L333.56,58.472L333.79,54.658L334.03,57.24L334.27,56.829L334.51,53.602L334.74,56.712L334.98,54.012L335.22,51.255L335.46,54.482L335.69,50.961L335.93,59.293L336.17,54.658L336.41,53.602L336.64,58.648L336.88,52.311L337.12,51.137L337.36,56.712L337.59,64.75L337.83,51.372L338.07,60.408L338.31,51.372L338.54,55.597L338.78,51.255L339.02,57.122L339.26,60.819L339.49,51.372L339.73,60.408L339.97,51.372L340.21,55.538L340.44,51.255L340.68,53.25L340.92,64.515L341.16,51.607L341.39,56.77L341.63,54.893L341.87,55.655L342.11,47.734L342.34,54.423L342.58,66.804L342.82,51.079L343.06,53.602L343.29,56.653L343.53,54.188L343.77,51.079L344.01,54.247L344.24,60.995L344.48,56.829L344.72,50.199L344.96,60.232L345.19,53.132L345.43,52.135L345.67,54.306L345.91,61.054L346.14,56.829L346.38,50.199L346.62,60.232L346.86,54.247L347.09,51.137L347.33,54.306L347.57,60.995L347.81,57.064L348.04,53.66L348.28,56.594L348.52,54.365L348.76,51.079L348.99,56.653L349.23,58.531L349.47,57.005L349.71,47.03L349.94,63.166L350.18,47.03L350.42,47.03L350.66,65.63L350.89,47.03L351.13,47.03L351.37,65.22L351.61,47.03L351.84,47.03L352.08,47.03L352.32,47.03L352.56,50.844L352.79,50.844L353.03,47.03L353.27,47.03L353.51,50.844L353.74,69.914L353.98,92.68L354.22,85.111L354.46,77.483L354.69,96.611L354.93,77.542L355.17,100.43L355.41,88.925L355.64,88.983L355.88,81.356L356.12,81.356L356.36,96.611L356.59,81.356L356.83,92.739L357.07,81.356L357.31,96.553L357.54,69.914L357.78,62.286L358.02,77.542L358.26,69.972L358.49,70.559L358.73,66.98L358.97,67.449L359.21,69.21L359.44,66.921L359.68,63.635L359.92,69.21L360.16,66.921L360.39,62.344L360.63,70.383L360.87,63.283L361.11,62.286L361.34,66.569L361.58,67.391L361.82,61.992L362.06,63.049L362.29,66.1L362.53,63.107L362.77,62.403L363.01,66.452L363.24,70.794L363.48,58.648L363.72,60.702L363.96,64.457L364.19,70.618L364.43,58.765L364.67,62.638L364.91,63.518L365.14,64.809L365.38,59.704L365.62,62.579L365.86,63.166L366.09,62.521L366.33,63.049L366.57,62.227L366.81,63.459L367.04,62.051L367.28,66.276L367.52,62.579L367.76,62.99L367.99,62.579L368.23,62.638L368.47,66.804L368.71,58.648L368.94,59.293L369.18,62.168L369.42,66.687L369.66,58.648L369.89,63.225L370.13,58.413L370.37,67.156L370.61,61.816L370.84,59.469L371.08,58.707L371.32,66.804L371.55,61.992L371.79,59.352L372.03,62.11L372.27,63.518L372.5,57.944L372.74,59.469L372.98,62.051L373.22,66.158L373.45,59.059L373.69,55.069L373.93,66.1L374.17,58.941L374.4,55.949L374.64,61.406L374.88,56.007L375.12,65.748L375.35,58.765L375.59,58.883L375.83,55.186L376.07,59.235L376.3,65.689L376.54,58.589L376.78,59.059L377.02,58.707L377.25,61.875L377.49,55.714L377.73,58.472L377.97,55.362L378.2,47.089L378.44,47.03L378.68,50.668L378.92,54.893L379.15,61.816L379.39,59.293L379.63,55.069L379.87,58.883L380.1,54.893L380.34,54.893L380.58,55.186L380.82,54.423L381.05,58.589L381.29,54.658L381.53,55.186L381.77,50.257L382,51.783L382.24,54.951L382.48,55.069L382.72,58.237L382.95,54.775L383.19,54.599L383.43,55.303L383.67,50.668L383.9,51.431L384.14,54.834L384.38,64.046L384.62,57.005L384.85,54.775L385.09,55.186L385.33,50.668L385.57,51.372L385.8,54.893L386.04,56.536L386.28,60.936L386.52,58.12L386.75,55.069L386.99,50.433L387.23,51.548L387.47,51.607L387.7,54.834L387.94,65.982L388.18,51.489L388.42,55.479L388.65,54.188L388.89,50.785L389.13,51.079L389.37,54.834L389.6,60.291L389.84,57.24L390.08,58.061L390.32,55.069L390.55,50.903L390.79,51.372L391.03,51.372L391.27,58.413L391.5,62.286L391.74,51.431L391.98,55.714L392.22,54.188L392.45,51.02L392.69,54.306L392.93,52.722L393.17,68.447L393.4,51.196L393.64,55.89L393.88,47.147L394.12,54.071L394.35,47.03L394.59,47.03L394.83,47.03L395.07,85.639L395.3,47.03L395.54,47.03L395.78,63.87L396.02,47.03L396.25,47.03L396.49,47.03L396.73,47.03L396.97,47.03L397.2,47.03L397.44,47.03L397.68,47.03L397.92,47.03L398.15,47.03L398.39,85.111L398.63,73.61L398.87,98.313L399.1,91.741L399.34,76.896L399.58,92.797L399.82,96.611L400.05,85.169L400.29,85.111L400.53,92.856L400.77,88.983L401,83.82L401.24,79.302L401.48,99.956L401.72,88.925L401.95,81.356L402.19,69.914L402.43,69.972L402.67,69.855L402.9,69.972L403.14,75.077L403.38,62.462L403.62,67.684L403.85,68.271L404.09,63.811L404.33,66.1L404.57,66.1L404.8,67.508L405.04,66.1L405.28,62.286L405.52,67.625L405.75,62.286L405.99,62.462L406.23,67.449L406.47,62.403L406.7,62.11L406.94,66.158L407.18,67.449L407.42,58.648L407.65,62.403L407.89,62.11L408.13,63.811L408.37,62.286L408.6,58.648L408.84,67.508L409.08,62.286L409.32,62.168L409.55,65.572L409.79,64.809L410.03,57.944L410.27,66.1L410.5,62.403L410.74,63.811L410.98,58.354L411.22,62.227L411.45,66.276L411.69,59.939L411.93,58.413L412.17,62.462L412.4,65.924L412.64,59.997L412.88,58.531L413.12,62.403L413.35,65.865L413.59,60.056L413.83,58.531L414.07,62.286L414.3,62.286L414.54,63.635L414.78,58.589L415.02,62.344L415.25,62.227L415.49,60.056L415.73,61.934L415.97,55.069L416.2,62.579L416.44,59.88L416.68,61.934L416.92,57.357L417.15,63.401L417.39,54.775L417.63,63.753L417.87,59.704L418.1,57.181L418.34,58.824L418.58,61.699L418.82,60.056L419.05,58.354L419.29,55.127L419.53,62.521L419.77,58.002L420,59.997L420.24,58.413L420.48,58.765L420.72,58.648L420.95,57.885L421.19,60.115L421.43,54.482L421.67,50.668L421.9,47.03L422.14,49.025L422.38,57.181L422.62,58.648L422.85,57.944L423.09,59.939L423.33,58.296L423.57,51.137L423.8,54.893L424.04,54.893L424.28,57.826L424.52,51.079L424.75,56.242L424.99,58.178L425.23,54.658L425.47,54.951L425.7,54.775L425.94,54.423L426.18,54.599L426.42,56.183L426.65,58.237L426.89,53.719L427.13,52.311L427.37,58.354L427.6,51.255L427.84,57.709L428.08,56.183L428.32,54.775L428.55,57.181L428.79,52.252L429.03,58.237L429.27,51.548L429.5,57.592L429.74,52.546L429.98,54.775L430.22,60.819L430.45,52.311L430.69,54.893L430.93,54.775L431.17,57.768L431.4,51.313L431.64,56.007L431.88,58.413L432.12,54.599L432.35,54.717L432.59,55.069L432.83,54.717L433.07,54.365L433.3,56.007L433.54,58.354L433.78,54.658L434.02,51.431L434.25,58.354L434.49,54.306L434.73,53.25L434.97,57.533L435.2,58.354L435.44,54.658L435.68,54.775L435.92,55.186L436.15,57.65L436.39,51.431L436.63,59.821L436.87,57.064L437.1,52.311L437.34,58.531L437.58,54.541L437.82,54.775L438.05,59.469L438.29,58.531L438.53,51.196L438.77,58.296L439,55.245L439.24,57.709L439.48,55.127L439.72,62.521L439.95,47.03L440.19,55.831L440.43,47.03L440.67,62.814L440.9,47.03L441.14,47.03L441.38,47.03L441.62,47.03L441.85,47.03L442.09,47.03L442.33,47.03L442.57,47.03L442.8,47.03L443.04,88.397L443.28,47.03L443.52,47.03L443.75,47.03L443.99,47.03L444.23,50.903L444.47,88.983L444.7,85.111L444.94,81.356L445.18,96.553L445.42,81.297L445.65,85.287L445.89,96.553L446.13,73.728L446.37,100.43L446.6,88.925L446.84,80.945L447.08,97.081L447.32,77.424L447.55,96.67L447.79,77.483L448.03,88.983L448.27,73.669L448.5,73.845L448.74,73.728L448.98,66.1L449.22,71.322L449.45,69.914L449.69,66.1L449.93,63.401L450.17,70.266L450.4,69.972L450.64,67.508L450.88,66.1L451.12,65.63L451.35,64.75L451.59,65.63L451.83,68.681L452.07,61.699L452.3,69.327L452.54,62.462L452.78,66.041L453.02,64.046L453.25,62.168L453.49,66.1L453.73,63.635L453.97,62.286L454.2,66.393L454.44,62.051L454.68,63.87L454.92,62.344L455.15,61.464L455.39,59.176L455.63,67.684L455.87,62.227L456.1,62.168L456.34,61.112L456.58,64.692L456.82,58.941L457.05,62.462L457.29,63.518L457.53,66.041L457.77,59.469L458,63.929L458.24,61.23L458.48,62.227L458.72,62.521L458.95,60.878L459.19,68.858L459.43,62.168L459.67,58.765L459.9,62.11L460.14,63.753L460.38,62.168L460.62,58.765L460.85,61.992L461.09,63.929L461.33,62.051L461.57,58.765L461.8,62.168L462.04,63.811L462.28,62.051L462.52,58.765L462.75,62.11L462.99,59.821L463.23,66.217L463.47,58.765L463.7,61.523L463.94,66.921L464.18,59.763L464.42,58.589L464.65,62.051L464.89,66.628L465.13,57.416L465.37,60.584L465.6,62.168L465.84,63.459L466.08,58.765L466.32,57.709L466.55,62.051L466.79,58.531L467.03,63.87L467.27,59.352L467.5,54.775L467.74,62.227L467.98,63.342L468.22,58.765L468.45,54.893L468.69,58.589L468.93,58.354L469.17,63.166L469.4,59L469.64,54.717L469.88,58.413L470.12,58.531L470.35,63.166L470.59,58.824L470.83,54.775L471.07,47.089L471.3,47.03L471.54,47.089L471.78,47.03L472.02,54.658L472.25,61.288L472.49,58.472L472.73,60.702L472.96,57.181L473.2,53.484L473.44,53.66L473.68,57.357L473.91,54.541L474.15,59.88L474.39,55.831L474.63,54.717L474.86,51.959L475.1,53.426L475.34,53.602L475.58,51.959L475.81,57.416L476.05,56.477L476.29,59.059L476.53,51.431L476.76,53.543L477,51.665L477.24,53.602L477.48,55.714L477.71,60.584L477.95,57.885L478.19,54.599L478.43,51.9L478.66,53.484L478.9,53.484L479.14,52.076L479.38,57.357L479.61,60.702L479.85,58.707L480.09,50.14L480.33,51.137L480.56,55.245L480.8,53.543L481.04,54.658L481.28,60.173L481.51,55.714L481.75,54.541L481.99,52.017L482.23,53.308L482.46,53.543L482.7,51.959L482.94,57.416L483.18,60.349L483.41,51.959L483.65,54.658L483.89,51.841L484.13,53.367L484.36,53.543L484.6,52.546L484.84,58.12L485.08,59.235L485.31,55.186L485.55,51.255L485.79,51.724L486.03,53.426L486.26,53.543L486.5,53.426L486.74,57.181L486.98,59.235L487.21,58.413L487.45,47.969L487.69,51.724L487.93,53.426L488.16,53.426L488.4,53.602L488.64,57.122L488.88,58.824L489.11,55.538L489.35,51.196L489.59,51.665L489.83,50.14L490.06,56.77L490.3,52.956L490.54,56.36L490.78,56.477L491.01,55.714L491.25,54.599L491.49,49.964L491.73,51.665L491.96,54.717L492.2,53.484L492.44,54.306L492.68,56.418L492.91,55.479L493.15,58.237L493.39,50.316L493.63,49.377L493.86,53.66L494.1,53.484L494.34,53.308L494.58,55.831L494.81,56.477L495.05,55.714L495.29,54.775L495.53,51.548L495.76,49.964L496,54.893L496.24,53.836L496.48,57.533L496.71,56.594L496.95,55.714L497.19,54.482L497.43,50.375L497.66,48.849L497.9,57.24L498.14,47.03L498.38,56.125L498.61,47.03L498.85,47.03L499.09,47.03L499.33,47.03L499.56,86.226L499.8,47.03L500.04,47.03L500.28,47.03L500.51,47.03L500.75,47.03L500.99,47.03L501.23,47.03L501.46,47.03L501.7,47.03L501.94,64.222L502.18,47.03L502.41,47.03L502.65,81.238L502.89,73.786L503.13,95.262L503.36,94.147L503.6,73.728L503.84,100.43L504.08,88.925L504.31,88.983L504.55,88.925L504.79,81.414L505.03,92.797L505.26,77.542L505.5,100.43L505.74,85.169L505.98,85.111L506.21,73.728L506.45,69.914L506.69,69.914L506.93,69.796L507.16,73.904L507.4,67.625L507.64,69.679L507.88,62.521L508.11,67.567L508.35,65.982L508.59,66.276L508.83,66.628L509.06,66.745L509.3,62.579L509.54,67.391L509.78,65.982L510.01,58.824L510.25,66.041L510.49,63.753L510.73,65.982L510.96,58.765L511.2,67.215L511.44,62.462L511.68,62.227L511.91,58.765L512.15,66.393L512.39,59.411L512.63,62.227L512.86,58.765L513.1,65.982L513.34,56.066L513.58,65.924L513.81,58.824L514.05,59.939L514.29,62.11L514.53,58.531L514.76,62.403L515,62.227L515.24,59.88L515.48,62.168L515.71,58.707L515.95,47.147L516.19,54.717L516.43,62.168L516.66,59.821L516.9,58.472L517.14,58.648L517.38,54.893L517.61,61.816L517.85,52.017L518.09,58.707L518.33,54.951L518.56,61.992L518.8,54.951L519.04,58.531L519.28,52.252L519.51,58.296L519.75,62.11L519.99,54.717L520.23,55.186L520.46,61.992L520.7,48.732L520.94,65.689L521.18,54.834L521.41,54.775L521.65,58.531L521.89,58.765L522.13,55.597L522.36,58.472L522.6,54.834L522.84,58.648L523.08,61.992L523.31,52.194L523.55,58.472L523.79,58.648L524.03,55.831L524.26,61.171L524.5,58.472L524.74,52.194L524.98,62.227L525.21,54.775L525.45,58.707L525.69,58.472L525.93,55.362L526.16,55.186L526.4,58.765L526.64,58.237L526.88,58.648L527.11,58.472L527.35,51.959L527.59,58.472L527.83,58.648L528.06,55.773L528.3,61.171L528.54,54.893L528.78,51.959L529.01,58.531L529.25,58.707L529.49,55.714L529.73,61.112L529.96,54.893L530.2,51.9L530.44,58.472L530.68,58.707L530.91,54.717L531.15,56.77L531.39,60.291L531.63,51.607L531.86,47.617L532.1,47.089L532.34,47.03L532.58,61.992L532.81,58.413L533.05,54.775L533.29,58.589L533.53,54.893L533.76,52.017L534,54.599L534.24,54.717L534.48,51.079L534.71,54.658L534.95,58.413L535.19,58.413L535.43,54.893L535.66,48.438L535.9,58.002L536.14,51.313L536.38,54.423L536.61,54.717L536.85,55.01L537.09,58.354L537.33,54.717L537.56,51.783L537.8,54.834L538.04,53.778L538.28,51.9L538.51,55.714L538.75,53.895L538.99,58.883L539.23,54.893L539.46,54.071L539.7,52.135L539.94,54.247L540.18,54.658L540.41,52.37L540.65,60.936L540.89,54.951L541.13,51.9L541.36,54.247L541.6,55.186L541.84,50.844L542.08,54.599L542.31,58.648L542.55,58.237L542.79,51.548L543.03,51.9L543.26,54.541L543.5,54.775L543.74,51.079L543.98,54.775L544.21,58.061L544.45,58.413L544.69,54.893L544.93,48.614L545.16,54.365L545.4,54.775L545.64,51.079L545.88,58.531L546.11,54.541L546.35,58.296L546.59,55.303L546.83,49.729L547.06,56.477L547.3,54.541L547.54,54.541L547.78,52.37L548.01,57.416L548.25,58.531L548.49,52.017L548.73,54.658L548.96,54.717L549.2,51.137L549.44,54.717L549.68,58.12L549.91,58.413L550.15,47.03L550.39,56.125L550.63,47.03L550.86,62.638L551.1,47.03L551.34,47.03L551.58,47.03L551.81,47.03L552.05,47.03L552.29,47.03L552.53,47.03L552.76,83.761L553,47.03L553.24,47.03L553.48,47.03L553.71,47.03L553.95,47.03L554.19,47.03L554.43,47.03L554.66,47.03L554.9,88.866L555.14,85.111L555.38,88.925L555.61,85.228L555.85,81.356L556.09,83.879L556.33,97.844L556.56,88.983L556.8,92.797L557.04,88.983L557.28,77.542L557.51,88.983L557.75,92.739L557.99,88.983L558.23,88.925L558.46,82.118L558.7,72.965L558.94,69.914L559.18,66.1L559.41,69.914L559.65,66.158L559.89,67.508L560.13,69.914L560.36,63.811L560.6,66.158L560.84,66.1L561.08,67.684L561.31,69.855L561.55,66.1L561.79,63.87L562.03,65.982L562.26,69.914L562.5,63.87L562.74,62.344L562.98,67.743L563.21,68.036L563.45,60.173L563.69,62.344L563.93,62.344L564.16,63.694L564.4,62.286L564.64,65.337L564.88,59.293L565.11,63.635L565.35,62.344L565.59,62.11L565.83,58.707L566.06,59.88L566.3,58.648L566.54,62.168L566.78,62.227L567.01,58.707L567.25,59.997L567.49,62.286L567.73,63.342L567.96,57.416L568.2,59.645L568.44,58.707L568.68,58.472L568.91,62.11L569.15,58.707L569.39,59.997L569.63,58.296L569.86,50.668L570.1,47.03L570.34,47.089L570.58,47.03L570.81,61.054L571.05,59.939L571.29,59.645L571.53,55.01L571.76,58.472L572,54.775L572.24,56.594L572.48,56.477L572.71,55.773L572.95,56.653L573.19,56.829L573.43,54.306L573.66,51.196L573.9,55.655L574.14,49.905L574.37,61.992L574.61,52.722L574.85,58.413L575.09,54.423L575.32,51.137L575.56,56.77L575.8,50.668L576.04,58.941L576.27,57.298L576.51,54.775L576.75,58.296L576.99,51.02L577.22,55.949L577.46,51.665L577.7,58.354L577.94,53.836L578.17,56.653L578.41,60.291L578.65,51.137L578.89,54.658L579.12,52.78L579.36,56.477L579.6,54.717L579.84,56.183L580.07,58.237L580.31,54.658L580.55,51.137L580.79,56.007L581.02,53.191L581.26,54.893L581.5,56.066L581.74,58.413L581.97,57.885L582.21,47.969L582.45,56.536L582.69,52.311L582.92,57.181L583.16,53.484L583.4,56.477L583.64,56.829L583.87,54.717L584.11,51.196L584.35,56.007L584.59,52.898L584.82,58.178L585.06,56.36L585.3,54.834L585.54,58.002L585.77,47.91L586.01,56.653L586.25,50.844L586.49,57.65L586.72,54.247L586.96,56.536L587.2,60.349L587.44,51.313L587.67,50.961L587.91,55.421L588.15,53.543L588.39,55.01L588.62,56.242L588.86,54.482L589.1,58.178L589.34,51.372L589.57,56.301L589.81,50.844L590.05,56.594L590.29,54.717L590.52,55.949L590.76,58.061L591,54.658L591.24,51.196L591.47,53.308L591.71,52.311L591.95,56.183L592.19,53.308L592.42,56.183L592.66,58.061L592.9,54.599L593.14,51.079L593.37,53.25L593.61,50.903L593.85,57.592L594.09,54.188L594.32,56.477L594.56,56.77L594.8,54.658L595.04,51.079L595.27,53.015L595.51,51.255L595.75,57.474L595.99,53.25L596.22,57.416L596.46,56.77L596.7,54.599L596.94,51.02L597.17,53.015L597.41,50.903L597.65,56.536L597.89,54.482L598.12,52.722L598.36,58.12L598.6,57.826L598.84,48.38L599.07,54.306L599.31,52.37L599.55,56.36L599.79,54.658L600.02,52.37L600.26,54.834L600.5,58.237L600.74,51.489L600.97,50.785L601.21,53.191L601.45,52.076L601.69,58.237L601.92,52.135L602.16,56.536L602.4,56.77L602.64,55.01L602.87,50.785L603.11,52.898L603.35,50.727L603.59,56.536L603.82,54.658L604.06,56.418L604.3,57.709L604.54,55.01L604.77,50.785L605.01,52.898L605.25,50.961L605.49,56.477L605.72,47.03L605.96,47.03L606.2,47.03L606.44,47.03L606.67,86.636L606.91,47.03L607.15,47.03L607.39,47.03L607.62,47.03L607.86,69.914L608.1,47.03L608.34,47.03L608.57,47.03L608.81,47.03L609.05,47.03L609.29,47.03L609.52,47.03L609.76,54.658L610,47.03L610.24,50.844L610.47,47.03L610.71,54.599L610.95,85.169L611.19,92.68L611.42,88.925L611.66,73.845L611.9,100.31L612.14,88.925L612.37,81.884L612.61,96.142L612.85,81.356L613.09,88.925L613.32,89.864L613.56,88.103L613.8,92.445L614.04,77.952L614.27,96.611L614.51,85.169L614.75,92.797L614.99,66.863L615.22,76.603L615.46,77.542L615.7,69.972L615.94,69.914L616.17,63.87L616.41,69.855L616.65,69.855L616.89,60.115L617.12,66.041L617.36,69.855L617.6,63.753L617.84,62.344L618.07,62.638L618.31,69.503L618.55,60.173L618.79,69.62L619.02,62.521L619.26,60.115L619.5,71.205L619.74,64.457L619.97,63.753L620.21,69.092L620.45,59.704L620.69,65.748L620.92,63.87L621.16,66.158L621.4,62.403L621.64,63.577L621.87,68.74L622.11,63.753L622.35,61.464L622.59,67.801L622.82,62.638L623.06,62.403L623.3,59.821L623.54,62.11L623.77,65.513L624.01,59.469L624.25,59.704L624.49,65.396L624.72,62.99L624.96,58.824L625.2,59.645L625.44,65.337L625.67,62.227L625.91,55.773L626.15,59.587L626.39,62.462L626.62,65.924L626.86,58.531L627.1,54.775L627.34,59.88L627.57,64.105L627.81,60.408L628.05,55.01L628.29,57.592L628.52,60.526L628.76,61.875L629,58.941L629.24,58.824L629.47,55.714L629.71,62.344L629.95,65.513L630.19,59L630.42,54.834L630.66,59.704L630.9,61.699L631.14,62.99L631.37,58.824L631.61,53.778L631.85,64.281L632.09,65.572L632.32,59.176L632.56,54.834L632.8,59.704L633.04,64.046L633.27,64.339L633.51,58.531L633.75,55.949L633.99,62.344L634.22,61.875L634.46,63.049L634.7,53.778L634.94,60.702L635.17,61.758L635.41,66.393L635.65,55.127L635.89,59.645L636.12,65.513L636.36,61.992L636.6,56.125L636.84,59.235L637.07,62.344L637.31,61.758L637.55,58.941L637.79,57.826L638.02,56.946L638.26,63.87L638.5,59.821L638.74,59.352L638.97,57.768L639.21,56.888L639.45,60.056L639.69,63.518L639.92,55.714L640.16,57.65L640.4,56.888L640.64,60.056L640.87,59.88L641.11,59.176L641.35,54.13L641.59,56.829L641.82,62.168L642.06,61.347L642.3,55.597L642.54,55.186L642.77,59.352L643.01,58.589L643.25,50.785L643.49,47.03L643.72,47.265L643.96,61.112L644.2,52.017L644.44,58.531L644.67,56.066L644.91,61.875L645.15,52.956L645.39,55.949L645.62,54.717L645.86,55.245L646.1,51.431L646.34,55.714L646.57,54.717L646.81,58.178L647.05,54.012L647.29,54.482L647.52,51.841L647.76,54.834L648,53.778L648.24,53.191L648.47,58.296L648.71,54.541L648.95,54.071L649.19,54.482L649.42,51.841L649.66,54.893L649.9,53.66L650.14,56.594L650.37,54.893L650.61,56.418L650.85,55.949L651.09,54.658L651.32,55.245L651.56,51.489L651.8,53.66L652.04,56.594L652.27,54.599L652.51,56.36L652.75,55.949L652.99,51.959L653.22,54.775L653.46,53.836L653.7,56.418L653.94,54.951L654.17,56.36L654.41,56.183L654.65,54.541L654.89,55.127L655.12,54.012L655.36,53.25L655.6,54.599L655.84,58.589L656.07,57.592L656.31,54.599L656.55,51.724L656.79,54.658L657.02,54.071L657.26,47.03L657.5,47.03L657.74,47.03L657.97,47.03L658.21,47.03L658.45,95.027L658.69,47.03L658.92,47.03L659.16,47.03L659.4,47.03L659.64,58.237L659.87,47.03L660.11,47.03L660.35,50.844L660.59,47.03L660.82,47.03L661.06,47.03L661.3,47.03L661.54,47.03L661.77,47.03L662.01,47.03L662.25,77.542L662.49,96.553L662.72,88.925L662.96,88.983L663.2,89.042L663.44,85.169L663.67,81.297L663.91,92.797L664.15,92.739L664.39,77.6L664.62,96.553L664.86,88.983L665.1,88.925L665.34,85.111L665.57,92.739L665.81,85.228L666.05,88.983L666.29,81.356L666.52,96.611L666.76,73.669L667,66.158L667.24,69.855L667.47,69.914L667.71,74.314L667.95,70.97L668.19,69.796L668.42,70.383L668.66,63.401L668.9,66.1L669.14,66.51L669.37,70.853L669.61,60.526L669.85,64.809L670.09,66.863L670.32,66.393L670.56,62.697L670.8,68.799L671.04,64.163L671.27,62.344L671.51,59.117L671.75,66.921L671.99,58.648L672.22,66.041L672.46,61.699L672.7,62.814L672.94,61.875L673.17,61.054L673.41,64.868L673.65,59.059L673.89,63.87L674.12,62.873L674.36,64.105L674.6,59.763L674.83,63.87L675.07,59.117L675.31,60.995L675.55,59.176L675.78,63.694L676.02,62.873L676.26,57.298L676.5,60.584L676.73,58.413L676.97,66.041L677.21,59.176L677.45,59.235L677.68,57.122L677.92,63.811L678.16,59.059L678.4,60.936L678.63,56.829L678.87,58.531L679.11,65.924L679.35,59.176L679.58,59.235L679.82,57.181L680.06,63.753L680.3,55.421L680.53,60.819L680.77,56.712L681.01,47.03L681.25,48.673L681.48,47.03L681.72,47.03L681.96,48.79L682.2,47.03L682.43,47.265L682.67,47.03L682.91,47.03L683.15,47.03L683.38,47.265L683.62,47.03L683.86,47.03L684.1,47.03L684.33,47.089L684.57,47.03L684.81,47.03L685.05,47.03L685.28,47.147L685.52,47.03L685.76,47.03L686,49.201L686.23,56.183L686.47,61.582L686.71,58.413L686.95,65.982L687.18,55.479L687.42,52.487L687.66,58.589L687.9,54.306L688.13,51.783L688.37,57.064L688.61,60.526L688.85,53.132L689.08,52.311L689.32,53.132L689.56,52.546L689.8,50.14L690.03,52.076L690.27,53.426L690.51,53.543L690.75,61.171L690.98,49.846L691.22,51.079L691.46,52.252L691.7,53.426L691.93,52.135L692.17,49.964L692.41,51.431L692.65,51.607L692.88,54.658L693.12,57.005L693.36,53.25L693.6,52.956L693.83,50.903L694.07,52.252L694.31,50.785L694.55,51.313L694.78,49.846L695.02,51.313L695.26,47.147L695.5,47.03L695.73,47.03L695.97,47.03L696.21,75.371L696.45,47.03L696.68,47.03L696.92,47.03L697.16,47.03L697.4,47.03L697.63,47.03L697.87,47.03L698.11,88.749L698.35,47.03L698.58,47.03L698.82,47.03L699.06,54.599L699.3,85.169L699.53,85.111L699.77,92.797L700.01,81.356L700.25,85.169L700.48,96.611L700.72,69.914L700.96,69.914L701.2,69.855L701.43,69.855L701.67,69.972L701.91,71.381L702.15,66.158L702.38,71.322L702.62,69.679L702.86,62.579L703.1,71.381L703.33,69.796L703.57,66.217L703.81,67.567L704.05,66.041L704.28,66.158L704.52,67.567L704.76,62.403L705,69.738L705.23,60.056L705.47,69.855L705.71,62.521L705.95,67.332L706.18,58.941L706.42,69.444L706.66,62.344L706.9,63.987L707.13,62.168L707.37,62.344L707.61,67.391L707.85,58.824L708.08,65.748L708.32,62.344L708.56,63.987L708.8,60.173L709.03,63.342L709.27,63.107L709.51,63.987L709.75,60.056L709.98,63.518L710.22,61.054L710.46,62.697L710.7,65.278L710.93,61.875L711.17,64.281L711.41,58.824L711.65,65.572L711.88,61.875L712.12,64.339L712.36,55.127L712.6,65.572L712.83,61.758L713.07,64.339L713.31,55.127L713.55,65.689L713.78,61.758L714.02,64.281L714.26,60.408L714.5,63.283L714.73,58.883L714.97,64.339L715.21,57.122L715.45,66.51L715.68,58.941L715.92,56.712L716.16,62.344L716.4,65.865L716.63,58.648L716.87,59.88L717.11,59.059L717.35,62.99L717.58,60.936L717.82,58.061L718.06,60.408L718.3,57.65L718.53,64.633L718.77,60.467L719.01,60.232L719.25,60.349L719.48,64.163L719.72,60.467L719.96,58.12L720.2,62.873L720.43,61.464L720.67,58.824L720.91,61.699L721.15,60.643L721.38,59.059L721.62,60.526L721.86,58.589L722.1,64.457L722.33,57.064L722.57,59.763L722.81,59.059L723.05,61.523L723.28,60.936L723.52,62.931L723.76,56.477L724,62.579L724.23,60.643L724.47,56.829L724.71,63.518L724.95,61.64L725.18,57.122L725.42,60.76L725.66,61.112L725.9,60.056L726.13,56.536L726.37,62.873L726.61,57.122L726.85,63.518L727.08,61.64L727.32,60.878L727.56,58.883L727.8,61.406L728.03,62.697L728.27,58.002L728.51,60.936L728.75,62.99L728.98,60.291L729.22,62.521L729.46,61.054L729.7,60.408L729.93,63.87L730.17,57.709L730.41,61.112L730.65,60.291L730.88,66.687L731.12,62.521L731.36,57.298L731.6,60.349L731.83,62.873L732.07,55.362L732.31,60.056L732.55,47.03L732.78,74.901L733.02,47.03L733.26,47.03L733.5,47.03L733.73,47.03L733.97,47.03L734.21,47.03L734.45,75.547L734.68,47.03L734.92,47.03L735.16,47.03L735.4,47.03L735.63,47.03L735.87,47.03L736.11,47.03L736.35,47.03L736.58,58.472L736.82,47.03L737.06,47.03L737.3,47.03L737.53,47.03L737.77,73.669L738.01,104.12L738.25,88.983L738.48,81.238L738.72,85.228L738.96,96.611L739.2,73.728L739.43,100.31L739.67,81.414L739.91,92.797L740.15,88.983L740.38,85.169L740.62,85.052L740.86,96.611L741.1,89.101L741.33,88.983L741.57,81.356L741.81,92.739L742.05,73.786L742.28,69.855L742.52,61.171L742.76,74.901L743,67.567L743.23,69.914L743.47,69.972L743.71,67.449L743.95,69.914L744.18,66.217L744.42,67.684L744.66,69.62L744.9,62.521L745.13,67.449L745.37,69.796L745.61,58.824L745.85,67.273L746.08,66.158L746.32,62.344L746.56,62.462L746.8,59.997L747.03,69.503L747.27,58.883L747.51,67.273L747.75,58.589L747.98,66.1L748.22,62.403L748.46,59.939L748.7,61.64L748.93,66.804L749.17,63.694L749.41,60.232L749.65,68.036L749.88,62.521L750.12,63.518L750.36,62.462L750.6,65.865L750.83,63.929L751.07,58.589L751.31,69.503L751.55,55.069L751.78,63.753L752.02,58.589L752.26,62.168L752.5,62.286L752.73,63.753L752.97,57.592L753.21,59.411L753.45,65.865L753.68,60.643L753.92,58.12L754.16,58.178L754.4,65.865L754.63,55.245L754.87,63.518L755.11,55.127L755.35,61.875L755.58,62.227L755.82,57.181L756.06,61.23L756.3,56.418L756.53,60.643L756.77,54.599L757.01,50.609L757.25,47.03L757.48,47.206L757.72,51.079L757.96,59.763L758.2,55.127L758.43,59.587L758.67,64.339L758.91,54.893L759.15,54.775L759.38,56.066L759.62,51.196L759.86,57.826L760.1,58.883L760.33,58.12L760.57,51.255L760.81,54.541L761.05,52.252L761.28,54.599L761.52,51.372L761.76,61.758L762,58.413L762.23,54.658L762.47,51.255L762.71,54.423L762.95,52.487L763.18,50.961L763.42,57.944L763.66,58.824L763.9,58.12L764.13,51.313L764.37,54.423L764.61,55.949L764.85,50.961L765.08,55.127L765.32,58.002L765.56,58.589L765.8,54.599L766.03,53.191L766.27,53.602L766.51,54.541L766.75,48.027L766.98,61.464L767.22,58.824L767.46,54.541L767.7,54.658L767.93,54.599L768.17,52.546L768.41,51.137L768.65,57.709L768.88,58.765L769.12,58.178L769.36,54.951L769.6,50.961L769.83,55.773L770.07,51.255L770.31,57.944L770.55,58.824L770.78,54.951L771.02,54.658L771.26,54.423L771.5,52.194L771.73,54.893L771.97,57.944L772.21,58.941L772.45,58.237L772.68,51.372L772.92,58.002L773.16,52.194L773.4,51.665L773.63,61.582L773.87,58.765L774.11,58.354L774.35,51.079L774.58,55.831L774.82,54.717L775.06,54.951L775.3,62.11L775.53,47.03L775.77,66.158L776.01,47.03L776.24,47.03L776.48,47.03L776.72,47.03L776.96,47.03L777.19,47.03L777.43,47.03L777.67,47.03L777.91,94.088L778.14,47.03L778.38,47.03L778.62,47.03L778.86,47.03L779.09,47.03L779.33,54.658L779.57,47.03L779.81,50.844L780.04,47.03L780.28,47.03L780.52,47.03L780.76,50.844L780.99,47.03L781.23,69.914L781.47,96.494L781.71,96.553L781.94,81.238L782.18,85.228L782.42,96.611L782.66,85.169L782.89,88.983L783.13,69.914L783.37,108.05L783.61,85.169L783.84,88.925L784.08,88.925L784.32,81.414L784.56,96.553L784.79,73.728L785.03,100.43L785.27,85.228L785.51,92.739L785.74,81.356L785.98,77.483L786.22,57.709L786.46,82.177L786.69,73.141L786.93,69.327L787.17,68.799L787.41,69.972L787.64,67.391L787.88,69.914L788.12,67.567L788.36,69.855L788.59,62.344L788.83,62.521L789.07,67.332L789.31,62.521L789.54,69.738L789.78,60.056L790.02,65.924L790.26,61.288L790.49,68.505L790.73,58.824L790.97,62.286L791.21,65.924L791.44,59.939L791.68,66.041L791.92,60.526L792.16,64.105L792.39,56.36L792.63,62.462L792.87,62.11L793.11,62.051L793.34,60.115L793.58,62.462L793.82,58.354L794.06,65.865L794.29,59.939L794.53,58.531L794.77,58.531L795.01,61.171L795.24,59.997L795.48,55.949L795.72,62.168L795.96,58.531L796.19,64.809L796.43,59.704L796.67,55.949L796.91,58.531L797.14,58.648L797.38,65.865L797.62,56.125L797.86,58.531L798.09,58.531L798.33,58.589L798.57,62.227L798.81,56.242L799.04,58.354L799.28,62.11L799.52,54.951L799.76,62.227L799.99,56.007L800.23,47.382L800.47,47.441L800.71,47.03L800.94,47.03L801.18,61.582L801.42,58.589L801.66,60.995L801.89,56.183L802.13,56.066L802.37,58.061L802.61,54.306L802.84,55.362L803.08,54.599L803.32,60.995L803.56,52.252L803.79,52.428L804.03,54.365L804.27,54.658L804.51,54.541L804.74,51.137L804.98,54.482L805.22,57.357L805.46,52.546L805.69,55.773L805.93,50.903L806.17,58.12L806.41,54.599L806.64,51.137L806.88,54.541L807.12,57.298L807.36,52.956L807.59,55.538L807.83,54.247L808.07,54.658L808.31,58.472L808.54,50.844L808.78,57.357L809.02,56.007L809.26,55.714L809.49,51.137L809.73,54.482L809.97,58.707L810.21,51.079L810.44,54.365L810.68,57.298L810.92,56.007L811.16,52.37L811.39,50.903L811.63,58.061L811.87,58.413L812.11,47.851L812.34,54.541L812.58,60.76L812.82,52.311L813.06,52.487L813.29,54.012L813.53,55.362L813.77,57.944L814.01,51.489L814.24,60.291L814.48,52.898L814.72,55.303L814.96,50.903L815.19,54.775L815.43,61.699L815.67,48.262L815.91,56.77L816.14,59.117L816.38,55.949L816.62,51.313L816.86,54.775L817.09,59.117L817.33,50.844L817.57,53.66L817.81,57.65L818.04,60.584L818.28,47.03L818.52,58.765L818.76,47.03L818.99,47.03L819.23,75.019L819.47,47.03L819.71,47.03L819.94,47.03L820.18,47.03L820.42,47.03L820.66,47.03L820.89,47.03L821.13,47.03L821.37,58.472L821.61,47.03L821.84,47.03L822.08,50.844L822.32,47.03L822.56,47.03L822.79,50.785L823.03,47.03L823.27,50.844L823.51,69.914L823.74,81.297L823.98,93.795L824.22,84.113L824.46,88.866L824.69,85.169L824.93,96.553L825.17,87.282L825.41,86.93L825.64,85.169L825.88,88.925L826.12,85.169L826.36,88.925L826.59,92.856L826.83,85.169L827.07,84.289L827.31,92.68L827.54,70.853L827.78,100.43L828.02,96.611L828.26,88.983L828.49,73.728L828.73,96.611L828.97,88.925L829.21,58.472L829.44,77.6L829.68,69.855L829.92,73.728L830.16,63.811L830.39,66.1L830.63,69.914L830.87,67.567L831.11,66.1L831.34,68.271L831.58,65.396L831.82,62.286L832.06,69.914L832.29,60.115L832.53,62.168L832.77,66.217L833.01,66.1L833.24,63.635L833.48,58.589L833.72,69.738L833.96,60.115L834.19,62.227L834.43,62.286L834.67,66.041L834.91,60.232L835.14,54.423L835.38,58.589L835.62,62.462L835.86,67.273L836.09,62.051L836.33,54.893L836.57,62.403L836.81,62.168L837.04,59.997L837.28,58.589L837.52,58.354L837.76,62.227L837.99,60.056L838.23,61.992L838.47,51.489L838.71,65.689L838.94,58.648L839.18,59.997L839.42,58.296L839.66,53.602L839.89,63.694L840.13,61.934L840.37,56.418L840.61,61.875L840.84,49.964L841.08,63.694L841.32,58.178L841.56,56.183L841.79,61.934L842.03,51.431L842.27,65.63L842.51,51.783L842.74,61.464L842.98,56.066L843.22,54.717L843.46,54.717L843.69,58.296L843.93,47.03L844.17,50.785L844.41,47.03L844.64,47.03L844.88,47.969L845.12,58.002L845.36,56.36L845.59,61.64L845.83,53.602L846.07,61.523L846.31,49.553L846.54,54.951L846.78,57.65L847.02,56.125L847.26,58.354L847.49,51.02L847.73,59.88L847.97,49.201L848.21,47.734L848.44,51.255L848.68,53.778L848.92,56.301L849.16,54.599L849.39,58.472L849.63,58.354L849.87,52.604L850.11,49.142L850.34,47.793L850.58,54.834L850.82,53.719L851.06,52.722L851.29,61.64L851.53,53.719L851.77,59.469L852.01,51.196L852.24,47.734L852.48,54.834L852.72,57.24L852.96,52.839L853.19,58.002L853.43,53.66L853.67,62.286L853.91,48.438L854.14,47.734L854.38,54.599L854.62,53.719L854.86,56.536L855.09,57.885L855.33,53.484L855.57,59.645L855.81,51.137L856.04,47.851L856.28,54.365L856.52,50.492L856.76,56.125L856.99,58.296L857.23,55.069L857.47,54.247L857.71,58.237L857.94,47.969L858.18,50.844L858.42,53.895L858.66,54.717L858.89,56.242L859.13,58.413L859.37,50.727L859.61,61.992L859.84,47.969L860.08,50.844L860.32,51.255L860.56,57.24L860.79,56.183L861.03,54.717L861.27,53.602L861.51,63.049L861.74,47.03L861.98,47.03L862.22,56.066L862.46,47.03L862.69,47.03L862.93,70.324L863.17,47.03L863.41,47.03L863.64,47.03L863.88,47.03L864.12,47.03L864.36,47.03L864.59,47.03L864.83,80.182L865.07,47.03L865.31,47.03L865.54,47.03L865.78,47.03L866.02,47.03L866.26,50.844L866.49,47.03L866.73,47.03L866.97,47.03L867.21,47.03L867.44,66.334L867.68,95.086L867.92,74.842L868.16,104.18L868.39,85.111L868.63,86.519L868.87,87.693L869.11,85.169L869.34,92.797L869.58,92.797L869.82,77.483L870.06,96.67L870.29,88.925L870.53,86.871L870.77,75.84L871.01,100.43L871.24,88.983L871.48,85.111L871.72,77.6L871.96,96.553L872.19,69.914L872.43,108.05L872.67,69.914L872.91,69.855L873.14,73.786L873.38,73.669L873.62,67.508L873.86,66.276L874.09,69.796L874.33,63.753L874.57,62.344L874.81,62.344L875.04,63.635L875.28,66.217L875.52,62.344L875.76,66.041L875.99,63.635L876.23,66.158L876.47,62.344L876.71,63.753L876.94,64.574L877.18,63.87L877.42,62.286L877.65,64.163L877.89,61.992L878.13,62.344L878.37,64.105L878.6,67.801L878.84,60.232L879.08,62.11L879.32,60.056L879.55,68.271L879.79,59.997L880.03,62.403L880.27,63.635L880.5,60.819L880.74,60.115L880.98,62.168L881.22,59.939L881.45,64.515L881.69,56.418L881.93,62.11L882.17,59.939L882.4,63.107L882.64,54.13L882.88,62.579L883.12,61.816L883.35,63.635L883.59,47.147L883.83,47.03L884.07,47.089L884.3,47.03L884.54,50.668L884.78,47.03L885.02,47.089L885.25,47.03L885.49,47.03L885.73,47.03L885.97,49.201L886.2,47.03L886.44,47.03L886.68,47.147L886.92,47.03L887.15,47.03L887.39,47.089L887.63,47.03L887.87,47.03L888.1,50.668L888.34,55.655L888.58,88.338L888.82,64.398L889.05,65.865L889.29,69.503L889.53,54.717L889.77,53.132L890,58.354L890.24,58.178L890.48,62.051L890.72,59.528L890.95,49.729L891.19,49.201L891.43,58.237L891.67,54.482L891.9,54.541L892.14,54.717L892.38,58.237L892.62,55.831L892.85,49.612L893.09,48.145L893.33,55.655L893.57,51.079L893.8,54.365L894.04,54.423L894.28,54.541L894.52,54.599L894.75,54.541L894.99,52.252L895.23,49.553L895.47,47.969L895.7,55.538L895.94,51.079L896.18,54.365L896.42,52.604L896.65,52.956L896.89,54.247L897.13,54.599L897.37,54.541L897.6,48.79L897.84,49.612L898.08,47.793L898.32,55.597L898.55,51.02L898.79,54.423L899.03,53.895L899.27,51.607L899.5,54.13L899.74,54.599L899.98,55.714L900.22,47.675L900.45,49.494L900.69,47.793L900.93,55.597L901.17,51.02L901.4,54.365L901.64,50.903L901.88,54.482L902.12,54.012L902.35,54.834L902.59,54.599L902.83,48.79L903.07,49.318L903.3,47.851L903.54,48.556L903.78,58.061L904.02,54.423L904.25,50.844L904.49,51.079L904.73,54.423L904.97,54.365L905.2,54.541L905.44,52.311L905.68,47.675L905.92,49.377L906.15,47.793L906.39,55.538L906.63,51.137L906.87,54.306L907.1,52.78L907.34,52.546L907.58,54.365L907.82,54.541L908.05,54.541L908.29,48.79L908.53,49.436L908.77,47.734L909,51.9L909.24,54.658L909.48,54.423L909.72,50.785L909.95,51.137L910.19,54.423L910.43,54.541L910.67,54.541L910.9,52.194L911.14,49.494L911.38,47.793L911.62,48.38L911.85,58.296L912.09,54.423L912.33,50.844L912.57,51.137L912.8,54.306L913.04,54.599L913.28,54.541L913.52,47.03L913.75,52.37L913.99,47.03L914.23,47.03L914.47,47.03L914.7,47.03L914.94,47.03L915.18,47.03L915.42,85.698L915.65,47.03L915.89,47.03L916.13,47.03L916.37,67.039L916.6,47.03L916.84,50.844L917.08,47.03L917.32,47.03L917.55,47.03L917.79,50.844L918.03,47.03L918.27,47.03L918.5,50.844L918.74,47.03L918.98,47.03L919.22,47.03L919.45,50.844L919.69,77.483L919.93,88.925L920.17,100.48L920.4,66.1L920.64,108.05L920.88,81.356L921.12,96.553L921.35,77.483L921.59,92.68L921.83,85.169L922.07,92.797L922.3,92.797L922.54,85.111L922.78,78.128L923.02,95.966L923.25,89.042L923.49,88.983L923.73,85.052L923.97,81.473L924.2,92.621L924.44,77.6L924.68,66.217L924.92,66.1L925.15,69.914L925.39,63.87L925.63,69.796L925.87,69.914L926.1,63.87L926.34,69.855L926.58,66.158L926.82,63.694L927.05,66.041L927.29,66.276L927.53,62.755L927.77,63.049L928,66.217L928.24,65.454L928.48,60.643L928.72,62.286L928.95,65.982L929.19,62.462L929.43,59.939L929.67,58.472L929.9,50.727L930.14,47.03L930.38,47.089L930.62,47.03L930.85,58.413L931.09,62.11L931.33,60.232L931.57,62.344L931.8,62.168L932.04,58.589L932.28,54.599L932.52,56.066L932.75,62.286L932.99,58.354L933.23,54.717L933.47,51.255L933.7,56.36L933.94,50.492L934.18,52.898L934.42,53.015L934.65,61.64L934.89,58.354L935.13,51.372L935.37,57.416L935.6,51.607L935.84,52.311L936.08,50.022L936.32,62.814L936.55,56.301L936.79,56.946L937.03,51.255L937.27,54.365L937.5,52.604L937.74,52.722L937.98,67.743L938.22,58.472L938.45,51.255L938.69,57.416L938.93,51.665L939.17,52.546L939.4,56.242L939.64,67.801L939.88,54.834L940.12,51.255L940.35,56.242L940.59,54.012L940.83,52.839L941.07,64.163L941.3,58.472L941.54,51.255L941.78,57.416L942.02,51.665L942.25,52.663L942.49,59.939L942.73,60.584L942.97,54.658L943.2,54.717L943.44,54.012L943.68,52.722L943.92,51.9L944.15,63.107L944.39,60.526L944.63,54.658L944.87,54.951L945.1,52.428L945.34,54.188L945.58,52.604L945.82,60.819L946.05,58.413L946.29,54.599L946.53,57.357L946.77,51.665L947,52.487L947.24,54.951L947.48,65.513L947.72,55.01L947.95,51.137L948.19,57.181L948.43,51.841L948.67,53.132L948.9,59.352L949.14,60.643L949.38,58.354L949.62,51.313L949.85,54.247L950.09,54.834L950.33,53.25L950.57,64.75L950.8,62.286L951.04,51.255L951.28,53.778L951.52,53.132L951.75,55.597L951.99,61.406L952.23,58.531L952.47,54.541L952.7,54.951L952.94,47.03L953.18,47.03L953.42,47.03L953.65,47.03L953.89,47.03L954.13,47.03L954.37,47.03L954.6,47.03L954.84,47.03L955.08,47.03L955.32,47.03L955.55,47.03L955.79,105.41L956.03,47.03L956.27,47.03L956.5,47.03L956.74,47.03L956.98,47.03L957.22,47.03L957.45,51.079L957.69,47.03L957.93,47.03L958.17,47.03L958.4,47.03L958.64,52.898L958.88,90.744L959.12,62.286L959.35,115.68L959.59,88.983L959.83,66.1L960.07,107.41L960.3,89.629L960.54,85.111L960.78,81.414L961.02,96.611L961.25,88.925L961.49,85.169L961.73,90.392L961.97,83.527L962.2,93.032L962.44,85.169L962.68,92.739L962.92,85.169L963.15,81.356L963.39,96.553L963.63,88.983L963.87,89.042L964.1,77.424L964.34,89.042L964.58,96.494L964.82,69.914L965.05,70.442L965.29,73.141L965.53,77.6L965.77,69.914L966,63.753L966.24,69.914L966.48,69.914L966.72,63.811L966.95,69.914L967.19,66.041L967.43,63.929L967.67,69.092L967.9,66.745L968.14,60.291L968.38,69.738L968.62,69.738L968.85,56.301L969.09,66.1L969.33,66.041L969.57,63.694L969.8,58.707L970.04,58.472L970.28,50.785L970.52,47.03L970.75,47.265L970.99,47.03L971.23,50.785L971.47,47.03L971.7,47.03L971.94,50.492L972.18,47.03L972.42,47.03L972.65,47.089L972.89,47.03L973.13,47.03L973.37,47.03L973.6,50.785L973.84,47.03L974.08,47.03L974.32,77.424L974.55,75.664L974.79,65.865L975.03,69.503L975.27,64.046L975.5,58.648L975.74,58.413L975.98,61.054L976.22,59.235L976.45,56.712L976.69,54.775L976.93,58.061L977.17,54.834L977.4,57.416L977.64,55.303L977.88,56.536L978.12,51.196L978.35,54.599L978.59,58.061L978.83,51.02L979.06,54.071L979.3,51.431L979.54,54.423L979.78,54.423L980.01,52.898L980.25,51.431L980.49,57.768L980.73,54.423L980.96,50.903L981.2,51.079L981.44,50.785L981.68,53.484L981.91,51.724L982.15,54.423L982.39,52.839L982.63,50.961L982.86,54.599L983.1,54.717L983.34,50.844L983.58,50.785L983.81,53.367L984.05,51.783L984.29,49.964L984.53,51.607L984.76,54.423L985,52.898L985.24,50.785L985.48,51.079L985.71,57.826L985.95,51.255L986.19,50.785L986.43,51.02L986.66,50.844L986.9,50.961L987.14,50.433L987.38,54.482L987.61,54.541L987.85,49.436L988.09,50.844L988.33,54.717L988.56,57.533L988.8,47.91L989.04,50.785L989.28,53.426L989.51,51.489L989.75,50.199L989.99,51.548L990.23,54.423L990.46,52.839L990.7,50.844L990.94,51.137L991.18,58.237L991.41,50.785L991.65,50.668L991.89,51.137L992.13,50.727L992.36,53.308L992.6,48.204L992.84,54.306L993.08,54.658L993.31,49.436L993.55,50.903L993.79,58.354L994.03,54.13L994.26,47.91L994.5,54.012L994.74,50.727L994.98,51.313L995.21,50.257L995.45,54.599L995.69,54.423L995.93,52.663L996.16,51.02L996.4,47.382L996.64,58.296L996.88,47.03L997.11,47.03L997.35,47.03L997.59,47.03L997.83,47.03L998.06,47.03L998.3,84.231L998.54,47.03L998.78,47.03L999.01,68.505L999.25,47.03L999.49,47.03L999.73,47.03L999.96,47.03L1000.2,47.03L1000.4,47.03L1000.7,47.03L1000.9,47.03L1001.2,58.472L1001.4,47.03L1001.6,47.03L1001.9,47.03L1002.1,50.844L1002.3,47.03L1002.6,47.03L1002.8,54.658L1003.1,104.18L1003.3,85.169L1003.5,92.797L1003.8,85.169L1004,85.169L1004.2,92.68L1004.5,84.641L1004.7,74.314L1005,104.24L1005.2,88.983L1005.4,81.356L1005.7,92.739L1005.9,85.228L1006.1,85.111L1006.4,96.611L1006.6,81.414L1006.9,92.739L1007.1,82.47L1007.3,91.507L1007.6,77.483L1007.8,81.356L1008,69.914L1008.3,64.633L1008.5,75.195L1008.8,71.381L1009,66.217L1009.2,66.1L1009.5,67.508L1009.7,69.972L1009.9,66.158L1010.2,67.508L1010.4,66.1L1010.7,69.972L1010.9,63.811L1011.1,69.796L1011.4,62.403L1011.6,67.625L1011.8,69.855L1012.1,63.459L1012.3,66.393L1012.6,66.217L1012.8,65.982L1013,63.635L1013.3,66.276L1013.5,65.924L1013.7,66.158L1014,56.888L1014.2,67.391L1014.5,67.977L1014.7,60.115L1014.9,70.735L1015.2,64.985L1015.4,63.694L1015.6,57.005L1015.9,62.579L1016.1,63.518L1016.4,62.462L1016.6,54.482L1016.8,66.393L1017.1,63.577L1017.3,58.589L1017.5,58.237L1017.8,64.046L1018,62.051L1018.3,62.403L1018.5,56.418L1018.7,60.467L1019,56.066L1019.2,66.041L1019.4,58.765L1019.7,54.541L1019.9,63.811L1020.2,54.658L1020.4,66.158L1020.6,56.36L1020.9,60.408L1021.1,56.594L1021.3,47.03L1021.6,49.142L1021.8,47.03L1022.1,47.089L1022.3,47.03L1022.5,47.03L1022.8,66.804L1023,83.937L1023.2,57.592L1023.5,69.503L1023.7,67.039L1024,55.245L1024.2,55.069L1024.4,61.992L1024.7,61.934L1024.9,58.237L1025.1,54.188L1025.4,49.846L1025.6,54.658L1025.9,58.237L1026.1,54.541L1026.3,58.178L1026.6,54.13L1026.8,55.01L1027,52.135L1027.3,48.145L1027.5,54.658L1027.8,58.061L1028,54.599L1028.2,58.178L1028.5,54.13L1028.7,55.01L1028.9,52.135L1029.2,48.145L1029.4,54.482L1029.7,58.237L1029.9,54.658L1030.1,58.12L1030.4,54.658L1030.6,57.533L1030.8,49.377L1031.1,51.548L1031.3,54.541L1031.6,58.237L1031.8,54.599L1032,54.599L1032.3,58.178L1032.5,54.13L1032.7,49.436L1033,51.431L1033.2,58.002L1033.5,54.717L1033.7,54.717L1033.9,61.288L1034.2,54.893L1034.4,50.609L1034.6,49.436L1034.9,51.431L1035.1,61.582L1035.4,54.541L1035.6,55.89L1035.8,56.712L1036.1,54.951L1036.3,52.076L1036.5,48.145L1036.8,54.599L1037,58.002L1037.3,54.599L1037.5,55.831L1037.7,56.712L1038,55.245L1038.2,51.783L1038.4,48.262L1038.7,54.423L1038.9,58.12L1039.2,52.017L1039.4,58.354L1039.6,57.064L1039.9,57.474L1040.1,49.26L1040.3,48.262L1040.6,54.365L1040.8,58.237L1041.1,54.658L1041.3,55.597L1041.5,56.653L1041.8,55.01L1042,52.135L1042.2,48.145L1042.5,54.482L1042.7,53.426L1043,59.469L1043.2,51.313L1043.4,60.936L1043.7,54.951L1043.9,50.668L1044.1,49.436L1044.4,52.076L1044.6,56.066L1044.9,56.066L1045.1,54.599L1045.3,58.061L1045.6,57.944L1045.8,50.551L1046,49.26L1046.3,51.431L1046.5,57.005L1046.8,55.714L1047,54.834L1047.2,54.482L1047.5,57.944L1047.7,54.012L1047.9,49.553L1048.2,51.372L1048.4,57.064L1048.7,55.714L1048.9,54.834L1049.1,57.885L1049.4,54.599L1049.6,54.247L1049.8,49.318L1050.1,47.382L1050.3,47.03L1050.6,47.03L1050.8,77.6L1051,47.03L1051.3,47.03L1051.5,47.03L1051.7,47.03L1052,47.03L1052.2,47.03L1052.5,47.03L1052.7,47.03L1052.9,47.03L1053.2,47.03L1053.4,47.03L1053.6,47.03L1053.9,47.03L1054.1,47.03L1054.4,47.03L1054.6,47.03L1054.8,47.03L1055.1,47.03L1055.3,47.03L1055.5,47.03L1055.8,97.961L1056,47.03L1056.3,47.03L1056.5,50.844L1056.7,94.734L1057,86.988L1057.2,85.111L1057.4,92.797L1057.7,85.111L1057.9,89.042L1058.2,88.983L1058.4,85.111L1058.6,88.983L1058.9,89.688L1059.1,61.582L1059.3,115.74L1059.6,88.983L1059.8,88.866L1060.1,77.6L1060.3,96.611L1060.5,81.356L1060.8,96.494L1061,89.042L1061.2,85.169L1061.5,89.042L1061.7,85.169L1062,50.785L1062.2,47.089L1062.4,47.03L1062.7,50.785L1062.9,47.03L1063.1,47.03L1063.4,47.089L1063.6,47.03L1063.9,47.03L1064.1,50.785L1064.3,47.03L1064.6,47.03L1064.8,85.287L1065,68.153L1065.3,65.865L1065.5,67.801L1065.8,61.758L1066,59L1066.2,61.934L1066.5,53.543L1066.7,50.961L1066.9,55.479L1067.2,59.939L1067.4,55.127L1067.7,54.717L1067.9,54.834L1068.1,56.653L1068.4,48.262L1068.6,50.199L1068.8,51.489L1069.1,58.237L1069.3,56.066L1069.6,51.548L1069.8,76.661L1070,51.548L1070.3,56.007L1070.5,53.484L1070.7,51.9L1071,51.489L1071.2,73.024L1071.5,54.717L1071.7,54.541L1071.9,54.365L1072.2,52.604L1072.4,51.489L1072.6,64.868L1072.9,62.814L1073.1,50.961L1073.4,54.423L1073.6,56.125L1073.8,48.145L1074.1,62.168L1074.3,64.985L1074.5,51.607L1074.8,56.183L1075,53.015L1075.3,52.604L1075.5,54.834L1075.7,65.454L1076,58.589L1076.2,54.423L1076.4,54.423L1076.7,52.663L1076.9,51.607L1077.2,61.64L1077.4,62.168L1077.6,54.541L1077.9,52.956L1078.1,57.65L1078.3,48.262L1078.6,62.051L1078.8,62.462L1079.1,54.306L1079.3,56.125L1079.5,54.188L1079.8,51.724L1080,62.11" style="fill:none;stroke:#F15A60;stroke-width:1.875" />
<path d="M1055,694.3L1080,694.3" style="fill:none;stroke:#F15A60;stroke-width:1.875" />
<text x="959.12" y="-687.85" transform="scale(1, -1)"
	style="font-family:Helvetica;font-weight:normal;font-style:normal;font-size:12pt">Consul v0.6.4</text>
</g>
</svg>
