<?xml version="1.0"?>
<!-- Generated by SVGo and Plotinum VG -->
<svg width="12in" height="8in"
	xmlns="http://www.w3.org/2000/svg"
	xmlns:xlink="http://www.w3.org/1999/xlink">
<g transform="scale(1, -1) translate(0, -720)">
<path d="M0,0L1080,0L1080,720L0,720Z" style="fill:#FFFFFF" />
<text x="231.56" y="-706.41" transform="scale(1, -1)"
	style="font-family:Helvetica;font-weight:normal;font-style:normal;font-size:12pt">Write 2M keys, 1000-client, 8-byte key, 256-byte value (Consul, Test 2), Latency(millisecond)</text>
<text x="551.76" y="-4.965" transform="scale(1, -1)"
	style="font-family:Helvetica;font-weight:normal;font-style:normal;font-size:12pt">Second</text>
<text x="70.912" y="-19.142" transform="scale(1, -1)"
	style="font-family:Helvetica;font-weight:normal;font-style:normal;font-size:10pt">0</text>
<text x="371.34" y="-19.142" transform="scale(1, -1)"
	style="font-family:Helvetica;font-weight:normal;font-style:normal;font-size:10pt">1000</text>
<text x="682.2" y="-19.142" transform="scale(1, -1)"
	style="font-family:Helvetica;font-weight:normal;font-style:normal;font-size:10pt">2000</text>
<text x="993.05" y="-19.142" transform="scale(1, -1)"
	style="font-family:Helvetica;font-weight:normal;font-style:normal;font-size:10pt">3000</text>
<path d="M74.388,30.467L74.388,40.467" style="fill:none;stroke:#000000;stroke-width:0.625" />
<path d="M385.24,30.467L385.24,40.467" style="fill:none;stroke:#000000;stroke-width:0.625" />
<path d="M696.1,30.467L696.1,40.467" style="fill:none;stroke:#000000;stroke-width:0.625" />
<path d="M1006.9,30.467L1006.9,40.467" style="fill:none;stroke:#000000;stroke-width:0.625" />
<path d="M229.81,35.468L229.81,40.467" style="fill:none;stroke:#000000;stroke-width:0.625" />
<path d="M540.67,35.468L540.67,40.467" style="fill:none;stroke:#000000;stroke-width:0.625" />
<path d="M851.52,35.468L851.52,40.467" style="fill:none;stroke:#000000;stroke-width:0.625" />
<path d="M74.388,40.467L1080,40.467" style="fill:none;stroke:#000000;stroke-width:0.625" />
<g transform="rotate(90)">
<text x="305.89" y="13.59" transform="scale(1, -1)"
	style="font-family:Helvetica;font-weight:normal;font-style:normal;font-size:12pt">Latency(millisecond)</text>
</g>
<text x="46.705" y="-41.661" transform="scale(1, -1)"
	style="font-family:Helvetica;font-weight:normal;font-style:normal;font-size:10pt">0</text>
<text x="18.555" y="-220.75" transform="scale(1, -1)"
	style="font-family:Helvetica;font-weight:normal;font-style:normal;font-size:10pt">1e+04</text>
<text x="18.555" y="-399.85" transform="scale(1, -1)"
	style="font-family:Helvetica;font-weight:normal;font-style:normal;font-size:10pt">2e+04</text>
<text x="18.555" y="-578.94" transform="scale(1, -1)"
	style="font-family:Helvetica;font-weight:normal;font-style:normal;font-size:10pt">3e+04</text>
<path d="M57.13,47.03L67.13,47.03" style="fill:none;stroke:#000000;stroke-width:0.625" />
<path d="M57.13,226.12L67.13,226.12" style="fill:none;stroke:#000000;stroke-width:0.625" />
<path d="M57.13,405.21L67.13,405.21" style="fill:none;stroke:#000000;stroke-width:0.625" />
<path d="M57.13,584.31L67.13,584.31" style="fill:none;stroke:#000000;stroke-width:0.625" />
<path d="M62.13,136.58L67.13,136.58" style="fill:none;stroke:#000000;stroke-width:0.625" />
<path d="M62.13,315.67L67.13,315.67" style="fill:none;stroke:#000000;stroke-width:0.625" />
<path d="M62.13,494.76L67.13,494.76" style="fill:none;stroke:#000000;stroke-width:0.625" />
<path d="M62.13,673.85L67.13,673.85" style="fill:none;stroke:#000000;stroke-width:0.625" />
<path d="M67.13,47.03L67.13,701.44" style="fill:none;stroke:#000000;stroke-width:0.625" />
<path d="M74.388,48.577L74.698,48.732L75.009,48.956L75.32,49.082L75.631,49.027L75.942,48.935L76.253,49.038L76.563,48.986L76.874,49.003L77.185,48.951L77.496,49.047L77.807,49.004L78.118,48.996L78.429,48.857L78.739,48.997L79.05,48.836L79.361,49.067L79.672,49.051L79.983,48.981L80.294,49.026L80.605,48.858L80.915,48.909L81.226,48.893L81.537,49.027L81.848,49.01L82.159,49.256L82.47,49.253L82.781,49.277L83.091,49.005L83.402,49.195L83.713,49.221L84.024,49.33L84.335,48.905L84.646,49.27L84.957,49.176L85.267,48.9L85.578,49.019L85.889,48.98L86.2,48.802L86.511,49.004L86.822,49.089L87.133,48.803L87.443,49.164L87.754,48.996L88.065,49.162L88.376,49.087L88.687,49.07L88.998,49.439L89.308,48.926L89.619,49.248L89.93,48.799L90.241,49.09L90.552,48.931L90.863,49.159L91.174,48.852L91.484,49.094L91.795,48.73L92.106,49.261L92.417,48.843L92.728,49.13L93.039,48.744L93.35,49.346L93.66,48.818L93.971,49.287L94.282,48.759L94.593,48.854L94.904,49.186L95.215,48.723L95.526,49.284L95.836,48.865L96.147,48.916L96.458,49.328L96.769,48.76L97.08,48.965L97.391,49.165L97.702,48.806L98.012,49.627L98.323,48.865L98.634,48.995L98.945,49.7L99.256,48.764L99.567,48.887L99.878,49.742L100.19,48.712L100.5,48.71L100.81,49.633L101.12,48.896L101.43,48.903L101.74,49.504L102.05,48.794L102.36,48.862L102.68,49.522L102.99,48.844L103.3,48.756L103.61,49.786L103.92,48.721L104.23,48.959L104.54,49.655L104.85,50.041L105.16,48.698L105.47,49.031L105.78,48.995L106.09,49.183L106.41,48.719L106.72,49.611L107.03,50.98L107.34,49.26L107.65,48.709L107.96,49.138L108.27,49.838L108.58,48.832L108.89,48.855L109.2,48.886L109.51,50.156L109.82,48.742L110.14,48.913L110.45,48.946L110.76,49.411L111.07,48.901L111.38,48.749L111.69,49.346L112,48.83L112.31,49.117L112.62,48.806L112.93,48.942L113.24,49.647L113.56,48.773L113.87,49.607L114.18,49.386L114.49,49.833L114.8,49.311L115.11,48.777L115.42,49.778L115.73,49.939L116.04,49.875L116.35,49.748L116.66,48.748L116.97,49.505L117.29,51.431L117.6,50.674L117.91,50.233L118.22,49.652L118.53,48.737L118.84,49.293L119.15,50.83L119.46,49.719L119.77,50.271L120.08,48.958L120.39,48.953L120.7,48.963L121.02,49.422L121.33,50.065L121.64,49.081L121.95,49.01L122.26,49.035L122.57,48.943L122.88,49.83L123.19,49.13L123.5,48.651L123.81,48.805L124.12,48.799L124.43,49.894L124.75,48.724L125.06,50.461L125.37,50.166L125.68,50.157L125.99,50.207L126.3,51.387L126.61,48.895L126.92,48.746L127.23,49.821L127.54,49.85L127.85,49.852L128.17,50.064L128.48,49.571L128.79,48.808L129.1,50.364L129.41,51.21L129.72,50.942L130.03,50.637L130.34,50.628L130.65,51.628L130.96,49.897L131.27,50.742L131.58,50.638L131.9,51.362L132.21,51.603L132.52,51.634L132.83,47.03L133.14,95.366L133.45,108.77L133.76,117.64L134.07,78.722L134.38,66.985L134.69,76.999L135,89.401L135.31,90.635L135.63,87.927L135.94,99.899L136.25,116.58L136.56,133.47L136.87,149.33L137.18,161.26L137.49,171.98L137.8,192.8L138.11,207.96L138.42,225.35L138.73,241.05L139.05,255.96L139.36,47.03L139.67,295.86L139.98,47.03L140.29,47.03L140.6,345.57L140.91,47.03L141.22,47.03L141.53,403.43L141.84,47.03L142.15,47.03L142.46,47.03L142.78,464.85L143.09,47.03L143.4,47.03L143.71,532.18L144.02,47.03L144.33,47.03L144.64,47.03L144.95,592.11L145.26,47.03L145.57,636.22L145.88,642.67L146.19,661.41L146.51,677.09L146.82,692.1L147.13,694.78L147.44,701.44L147.75,694.98L148.06,693.69L148.37,693.24L148.68,693.38L148.99,693.11L149.3,693.33L149.61,692.9L149.93,647.17L150.24,305.87L150.55,303.32L150.86,302.4L151.17,300.69L151.48,300.07L151.79,284.88L152.1,282.86L152.41,283L152.72,283.11L153.03,283.11L153.34,283.14L153.66,283.38L153.97,283.09L154.28,285.32L154.59,293.52L154.9,297.57L155.21,298.15L155.52,298.06L155.83,298.52L156.14,303.58L156.45,305.15L156.76,304.45L157.07,304.26L157.39,304.27L157.7,304.13L158.01,304L158.32,304L158.63,303.97L158.94,308.47L159.25,315.76L159.56,316.02L159.87,316.19L160.18,316.29L160.49,316.37L160.8,317.11L161.12,318.82L161.43,321.56L161.74,322.8L162.05,322.73L162.36,323.55L162.67,322.62L162.98,322.54L163.29,324.03L163.6,323.57L163.91,325.21L164.22,321.91L164.54,322.17L164.85,325.77L165.16,321.99L165.47,324.07L165.78,326.44L166.09,329.32L166.4,329.13L166.71,327.75L167.02,328.89L167.33,327.7L167.64,328.4L167.95,328.91L168.27,331.2L168.58,330.31L168.89,327.93L169.2,328.32L169.51,325.81L169.82,325.69L170.13,322.49L170.44,323.25L170.75,322.32L171.06,323.47L171.37,321.69L171.68,319.49L172,320.31L172.31,318.14L172.62,318.13L172.93,317.59L173.24,315.28L173.55,315.03L173.86,312.96L174.17,311.71L174.48,311.01L174.79,310.13L175.1,310.23L175.42,308.38L175.73,308.1L176.04,307.94L176.35,305.59L176.66,304.52L176.97,304.31L177.28,303.58L177.59,305.15L177.9,302.11L178.21,301.42L178.52,300.03L178.83,298.32L179.15,298.14L179.46,298.52L179.77,295.98L180.08,296.43L180.39,293.81L180.7,297L181.01,296.11L181.32,297.96L181.63,296.74L181.94,299.81L182.25,298.4L182.56,298.69L182.88,298.62L183.19,299.05L183.5,297.87L183.81,297.99L184.12,299.54L184.43,299.56L184.74,298.11L185.05,297.94L185.36,298.6L185.67,296.41L185.98,297.24L186.29,298.86L186.61,299.82L186.92,296.61L187.23,295.28L187.54,295.16L187.85,294.44L188.16,293.04L188.47,293.39L188.78,292.58L189.09,293.83L189.4,291.02L189.71,290.4L190.03,290.51L190.34,287.99L190.65,289.87L190.96,288.4L191.27,286.37L191.58,285.71L191.89,285.42L192.2,284.44L192.51,283.38L192.82,284.76L193.13,282.7L193.44,280.79L193.76,282.49L194.07,279.87L194.38,281.41L194.69,283.71L195,284.32L195.31,282.33L195.62,280.96L195.93,280.47L196.24,280.71L196.55,282.61L196.86,282.93L197.17,282.95L197.49,282.48L197.8,281.86L198.11,283.94L198.42,283.96L198.73,282.28L199.04,282.13L199.35,282.76L199.66,281.09L199.97,280.57L200.28,279.76L200.59,279.7L200.91,279.06L201.22,279.75L201.53,278.95L201.84,281.36L202.15,281.51L202.46,284.61L202.77,284.83L203.08,285.85L203.39,315.57L203.7,316.25L204.01,316.04L204.32,316.12L204.64,318.06L204.95,317.55L205.26,316.97L205.57,317.47L205.88,318.33L206.19,317.04L206.5,317.11L206.81,317.21L207.12,318.07L207.43,318.52L207.74,305.15L208.05,295.58L208.37,296.18L208.68,297.89L208.99,299.02L209.3,299.06L209.61,299.49L209.92,298.47L210.23,297.41L210.54,297.68L210.85,297.24L211.16,297.36L211.47,298.65L211.78,298.88L212.1,297.54L212.41,299.46L212.72,297.27L213.03,298.83L213.34,296.67L213.65,297.77L213.96,297.37L214.27,298.1L214.58,297.01L214.89,297.13L215.2,297.05L215.52,298.67L215.83,298.45L216.14,299.99L216.45,300.32L216.76,299.07L217.07,299.22L217.38,299.31L217.69,298.69L218,300.15L218.31,300.19L218.62,298.25L218.93,299L219.25,298.89L219.56,300.26L219.87,298.63L220.18,300.28L220.49,300.54L220.8,301.87L221.11,299.8L221.42,298.97L221.73,298.93L222.04,299.17L222.35,299.11L222.66,298.47L222.98,296.68L223.29,297.38L223.6,296.09L223.91,296.41L224.22,309.04L224.53,47.03L224.84,47.03L225.15,318.45L225.46,47.03L225.77,47.03L226.08,333.58L226.4,47.03L226.71,47.03L227.02,47.03L227.33,47.03L227.64,47.03L227.95,47.03L228.26,47.03L228.57,323.13L228.88,47.03L229.19,47.03L229.5,47.03L229.81,47.03L230.13,47.03L230.44,47.03L230.75,383.6L231.06,362.19L231.37,168.01L231.68,81.728L231.99,80.338L232.3,86.076L232.61,83.274L232.92,82.997L233.23,80.738L233.54,78.184L233.86,92.491L234.17,104.02L234.48,111.37L234.79,112.76L235.1,116.57L235.41,117.75L235.72,118.91L236.03,119.03L236.34,118.35L236.65,121.29L236.96,121.14L237.27,120.69L237.59,118.6L237.9,119.23L238.21,119.67L238.52,121.72L238.83,122.87L239.14,124.48L239.45,123.07L239.76,125.79L240.07,125.23L240.38,127.52L240.69,126.78L241.01,128.28L241.32,131.07L241.63,135.54L241.94,134.22L242.25,133.7L242.56,132.18L242.87,132.9L243.18,134.34L243.49,134.13L243.8,138.19L244.11,137.99L244.42,141.63L244.74,141.3L245.05,141.44L245.36,140.88L245.67,142.94L245.98,145.17L246.29,144.38L246.6,142.72L246.91,143.05L247.22,145.04L247.53,146.13L247.84,146.19L248.15,147.42L248.47,152.27L248.78,151.66L249.09,150.75L249.4,151.63L249.71,151.29L250.02,153.36L250.33,153.49L250.64,154.25L250.95,153.42L251.26,157.45L251.57,156.64L251.89,156.71L252.2,155.59L252.51,156.31L252.82,157.98L253.13,158.11L253.44,160.58L253.75,160.23L254.06,162.44L254.37,163.94L254.68,167.08L254.99,165.15L255.3,166.44L255.62,165.35L255.93,165.46L256.24,167.53L256.55,169.68L256.86,171.5L257.17,169.36L257.48,170.18L257.79,169.04L258.1,167.99L258.41,168.44L258.72,168.46L259.03,169.5L259.35,169.57L259.66,172.51L259.97,171.65L260.28,172.39L260.59,171.68L260.9,171.67L261.21,171.66L261.52,172.73L261.83,171.65L262.14,171.96L262.45,173.03L262.76,171.59L263.08,171.68L263.39,169.43L263.7,170.2L264.01,171.03L264.32,169.51L264.63,167.32L264.94,165.93L265.25,165.87L265.56,165.83L265.87,166.7L266.18,167.75L266.5,168.66L266.81,169.09L267.12,167.59L267.43,169.67L267.74,169.08L268.05,170.94L268.36,170.76L268.67,174.1L268.98,173.8L269.29,177.9L269.6,178.67L269.91,178.4L270.23,177.35L270.54,177.43L270.85,178.55L271.16,181.67L271.47,181.18L271.78,183.32L272.09,181.85L272.4,182.14L272.71,183.24L273.02,181.94L273.33,182.12L273.64,182.16L273.96,182.9L274.27,183.96L274.58,183.39L274.89,182.25L275.2,182.31L275.51,182.12L275.82,182.11L276.13,183.76L276.44,183.29L276.75,181.72L277.06,182.04L277.38,182.32L277.69,182.26L278,183.89L278.31,182.37L278.62,183.4L278.93,182.34L279.24,183.19L279.55,182.07L279.86,182.06L280.17,182.85L280.48,182.06L280.79,181.79L281.11,183.22L281.42,182.85L281.73,182.9L282.04,181.82L282.35,182.87L282.66,182.2L282.97,184.35L283.28,186.42L283.59,187.5L283.9,186.37L284.21,187L284.52,188.5L284.84,188.35L285.15,188.68L285.46,188.15L285.77,187.97L286.08,189.03L286.39,189.5L286.7,189.42L287.01,190.44L287.32,187.85L287.63,189.18L287.94,190.21L288.26,189.32L288.57,187.46L288.88,190.21L289.19,188.94L289.5,188.92L289.81,186.92L290.12,187.05L290.43,187.09L290.74,186.53L291.05,186.44L291.36,187.87L291.67,185.58L291.99,186.37L292.3,186.84L292.61,185.86L292.92,47.03L293.23,47.03L293.54,211.3L293.85,47.03L294.16,47.03L294.47,213.31L294.78,47.03L295.09,184.49L295.4,47.03L295.72,47.03L296.03,47.03L296.34,47.03L296.65,47.03L296.96,47.03L297.27,47.03L297.58,47.03L297.89,303.13L298.2,47.03L298.51,47.03L298.82,47.03L299.13,47.03L299.45,47.03L299.76,47.03L300.07,364.36L300.38,197.39L300.69,81.56L301,87.567L301.31,77.408L301.62,78.378L301.93,87.81L302.24,82.586L302.55,77.376L302.87,82.555L303.18,84.405L303.49,81.429L303.8,81.91L304.11,83.717L304.42,81.614L304.73,94.856L305.04,98.494L305.35,107.37L305.66,113.45L305.97,110.95L306.28,114.48L306.6,113.54L306.91,118.12L307.22,120.6L307.53,121.72L307.84,121.61L308.15,121.73L308.46,121.5L308.77,121.52L309.08,122.91L309.39,125.79L309.7,125.43L310.01,125.12L310.33,126.17L310.64,128.05L310.95,129.16L311.26,128.27L311.57,128.42L311.88,130.41L312.19,131.25L312.5,132.26L312.81,134.85L313.12,135.41L313.43,136.41L313.75,152.96L314.06,166.73L314.37,168.19L314.68,168.2L314.99,168.46L315.3,171.37L315.61,170.6L315.92,142.08L316.23,150.89L316.54,155.55L316.85,163.43L317.16,170.73L317.48,174.5L317.79,175.61L318.1,175.81L318.41,176.62L318.72,175.75L319.03,175.74L319.34,176L319.65,175.15L319.96,176.9L320.27,174.9L320.58,173.98L320.89,174.11L321.21,174.22L321.52,174.27L321.83,175.17L322.14,173.9L322.45,173.89L322.76,173.87L323.07,174.82L323.38,175.07L323.69,174.64L324,173.71L324.31,174.84L324.62,174.75L324.94,171.56L325.25,172.18L325.56,171.38L325.87,172.61L326.18,173.62L326.49,171.56L326.8,175L327.11,176.5L327.42,177.02L327.73,177.46L328.04,177.77L328.36,175.98L328.67,176.14L328.98,176.81L329.29,175.36L329.6,175.02L329.91,178.12L330.22,175.92L330.53,175.79L330.84,176.98L331.15,176.43L331.46,175.64L331.77,175.61L332.09,175.67L332.4,175.68L332.71,175.72L333.02,175.54L333.33,177.63L333.64,177.34L333.95,176.65L334.26,175.51L334.57,178.38L334.88,177.66L335.19,178.4L335.5,178.35L335.82,178.61L336.13,178.48L336.44,177.48L336.75,178.99L337.06,181.48L337.37,180.61L337.68,180.67L337.99,182.82L338.3,185.39L338.61,185.24L338.92,184.28L339.24,184.19L339.55,184.07L339.86,185.22L340.17,184.33L340.48,186.44L340.79,186.55L341.1,188L341.41,186.58L341.72,186.65L342.03,187.26L342.34,187.6L342.65,186.61L342.97,188.96L343.28,191.16L343.59,190.72L343.9,191.05L344.21,207.39L344.52,207.4L344.83,208.06L345.14,209.26L345.45,210.43L345.76,209.84L346.07,209.58L346.38,209.74L346.7,208.38L347.01,197.71L347.32,203.15L347.63,208.33L347.94,209.28L348.25,209.11L348.56,210.62L348.87,209.08L349.18,214.88L349.49,215.55L349.8,217.42L350.11,217.11L350.43,215.29L350.74,218.77L351.05,221.75L351.36,222.02L351.67,224.28L351.98,225.66L352.29,224.3L352.6,224.16L352.91,224.14L353.22,224.27L353.53,226.23L353.85,226.24L354.16,226.05L354.47,226.25L354.78,227.07L355.09,226.06L355.4,226.17L355.71,228.82L356.02,227.86L356.33,243.27L356.64,249.21L356.95,249.78L357.26,252L357.58,251.03L357.89,251.3L358.2,249.32L358.51,251.59L358.82,249.8L359.13,249.02L359.44,250.05L359.75,233.99L360.06,238.91L360.37,243.39L360.68,245.09L360.99,247.42L361.31,246.01L361.62,248.13L361.93,244.34L362.24,247.4L362.55,246.81L362.86,247.81L363.17,245.2L363.48,47.03L363.79,47.03L364.1,276.07L364.41,47.03L364.73,47.03L365.04,47.03L365.35,47.03L365.66,285.41L365.97,47.03L366.28,47.03L366.59,294.65L366.9,253.09L367.21,47.03L367.52,47.03L367.83,47.03L368.14,47.03L368.46,47.03L368.77,277.99L369.08,47.03L369.39,47.03L369.7,47.03L370.01,47.03L370.32,47.03L370.63,336.28L370.94,261.98L371.25,85.049L371.56,85.086L371.87,82.583L372.19,82.08L372.5,82.285L372.81,81.059L373.12,83.765L373.43,83.336L373.74,84.096L374.05,82.314L374.36,77.101L374.67,94.006L374.98,105.46L375.29,111.44L375.6,115.83L375.92,117.24L376.23,115.41L376.54,118.64L376.85,118.43L377.16,118.42L377.47,117.82L377.78,117.79L378.09,120.5L378.4,123.55L378.71,125.03L379.02,125.91L379.34,128.42L379.65,128.98L379.96,130.21L380.27,130.59L380.58,129.42L380.89,130.65L381.2,130.15L381.51,129.12L381.82,133.03L382.13,133.59L382.44,135.19L382.75,135.86L383.07,141.03L383.38,138.82L383.69,139.89L384,139.65L384.31,141.7L384.62,141.43L384.93,141.21L385.24,140.95L385.55,141.4L385.86,140.43L386.17,140.42L386.48,141.79L386.8,140.31L387.11,140.94L387.42,141.25L387.73,140.07L388.04,141.07L388.35,143.28L388.66,143.14L388.97,143.55L389.28,145.37L389.59,144.64L389.9,147.18L390.22,147.14L390.53,150.47L390.84,150.22L391.15,149.08L391.46,149.62L391.77,151.31L392.08,151.43L392.39,152.07L392.7,152.41L393.01,151.39L393.32,153.17L393.63,151.24L393.95,152.33L394.26,152.18L394.57,151.51L394.88,155.77L395.19,155.64L395.5,157.03L395.81,157.53L396.12,157.89L396.43,47.03L396.74,188.91L397.05,189L397.36,188.77L397.68,190.17L397.99,190.38L398.3,190.76L398.61,176.63L398.92,167.44L399.23,175.24L399.54,180.77L399.85,185.71L400.16,187.52L400.47,188.29L400.78,188.96L401.09,187.06L401.41,186.99L401.72,187.98L402.03,188.84L402.34,187.71L402.65,189.99L402.96,188.93L403.27,190.27L403.58,189.75L403.89,189.75L404.2,188.72L404.51,186.69L404.83,187.93L405.14,187.25L405.45,188.07L405.76,190.14L406.07,189.43L406.38,190.34L406.69,190.31L407,189.19L407.31,188.96L407.62,189.54L407.93,191.97L408.24,192.63L408.56,190.58L408.87,190.68L409.18,191.15L409.49,192.89L409.8,191.02L410.11,191.11L410.42,192L410.73,195.29L411.04,195.78L411.35,198.91L411.66,197.7L411.97,196.82L412.29,195.6L412.6,195.63L412.91,195.69L413.22,195.55L413.53,195.95L413.84,197.48L414.15,196.49L414.46,196.53L414.77,195.59L415.08,195.57L415.39,196.24L415.71,196.98L416.02,193.59L416.33,193.53L416.64,195.27L416.95,194.89L417.26,194.6L417.57,193.71L417.88,193.82L418.19,194.6L418.5,196.48L418.81,195.7L419.12,195.71L419.44,194.54L419.75,195.68L420.06,195.56L420.37,197.9L420.68,198.35L420.99,200.03L421.3,200.62L421.61,202.02L421.92,199.87L422.23,200.53L422.54,199.75L422.85,200.71L423.17,201.72L423.48,202.93L423.79,203.94L424.1,207.08L424.41,206.36L424.72,206.11L425.03,206.72L425.34,206.97L425.65,207.1L425.96,208.9L426.27,208.46L426.59,208.06L426.9,224.05L427.21,47.03L427.52,257.59L427.83,259.98L428.14,260.04L428.45,260.43L428.76,260.61L429.07,260.74L429.38,262.47L429.69,263.09L430,261.94L430.32,262.33L430.63,218.04L430.94,218.35L431.25,215.18L431.56,216.15L431.87,220.84L432.18,226.48L432.49,231.42L432.8,242.04L433.11,47.03L433.42,47.03L433.73,256.62L434.05,47.03L434.36,47.03L434.67,47.03L434.98,47.03L435.29,47.03L435.6,293.2L435.91,47.03L436.22,47.03L436.53,258.52L436.84,47.03L437.15,47.03L437.46,274.25L437.78,47.03L438.09,47.03L438.4,47.03L438.71,47.03L439.02,47.03L439.33,373.81L439.64,47.03L439.95,306.48L440.26,314.36L440.57,270.16L440.88,103.54L441.2,72.447L441.51,89.044L441.82,83.52L442.13,74.345L442.44,93.12L442.75,102.43L443.06,109.52L443.37,116.86L443.68,118.08L443.99,118.97L444.3,117.1L444.61,119.83L444.93,119.15L445.24,119.37L445.55,120.22L445.86,124.13L446.17,122.44L446.48,124.06L446.79,125.08L447.1,126.65L447.41,130.73L447.72,130.15L448.03,132.43L448.34,133.67L448.66,134.15L448.97,134.31L449.28,136.02L449.59,136.75L449.9,136.76L450.21,138.1L450.52,138.8L450.83,139.27L451.14,140.19L451.45,138.78L451.76,138.28L452.08,138.82L452.39,138.23L452.7,140.43L453.01,145.49L453.32,147.13L453.63,147.19L453.94,148.83L454.25,147.2L454.56,147.29L454.87,147.29L455.18,148.7L455.49,147.24L455.81,148.31L456.12,147.26L456.43,147.94L456.74,147.22L457.05,150.15L457.36,150.16L457.67,149.46L457.98,149.59L458.29,149.56L458.6,149.43L458.91,149.26L459.22,148.05L459.54,148.34L459.85,148.31L460.16,148.32L460.47,147.59L460.78,150.06L461.09,151.09L461.4,153.45L461.71,152.66L462.02,154.14L462.33,155.17L462.64,154.45L462.95,152.76L463.27,152.97L463.58,153.72L463.89,151.46L464.2,151.93L464.51,151.22L464.82,154.08L465.13,153.71L465.44,153.45L465.75,157.03L466.06,160.14L466.37,159.64L466.69,159.95L467,157.83L467.31,157.76L467.62,160.84L467.93,161.4L468.24,161.02L468.55,160.04L468.86,162.22L469.17,161.04L469.48,162.38L469.79,161.85L470.1,161.7L470.42,163.9L470.73,163.97L471.04,165.62L471.35,165.87L471.66,166.71L471.97,167.32L472.28,167.17L472.59,169.98L472.9,181.91L473.21,209.61L473.52,212.33L473.83,212.14L474.15,214.31L474.46,214.16L474.77,215.95L475.08,214.43L475.39,208.57L475.7,183.12L476.01,187.86L476.32,193.24L476.63,202.31L476.94,205.74L477.25,209.06L477.57,209.92L477.88,209.65L478.19,208.88L478.5,210.95L478.81,209.02L479.12,208.73L479.43,211.12L479.74,210.04L480.05,209.01L480.36,209.63L480.67,209.23L480.98,210.98L481.3,210.38L481.61,209.89L481.92,210.91L482.23,209L482.54,209.78L482.85,211.99L483.16,210.47L483.47,209.23L483.78,208.99L484.09,211.06L484.4,208.93L484.71,208.88L485.03,210.82L485.34,209.85L485.65,207.25L485.96,209.92L486.27,209.53L486.58,209.31L486.89,210.05L487.2,210.59L487.51,210.04L487.82,208.96L488.13,211.13L488.44,211.23L488.76,211.14L489.07,212.45L489.38,212.68L489.69,212.5L490,211.16L490.31,211.24L490.62,213.06L490.93,211.66L491.24,214.83L491.55,212.95L491.86,213.74L492.18,213.06L492.49,213.95L492.8,213.96L493.11,211.9L493.42,211.28L493.73,209.82L494.04,210.88L494.35,209.85L494.66,209.47L494.97,207.34L495.28,208.13L495.59,208.81L495.91,207.86L496.22,206.93L496.53,207.57L496.84,204.72L497.15,205.59L497.46,216.49L497.77,47.03L498.08,47.03L498.39,47.03L498.7,237.31L499.01,224.32L499.32,47.03L499.64,47.03L499.95,47.03L500.26,47.03L500.57,47.03L500.88,273.27L501.19,189.66L501.5,47.03L501.81,229.11L502.12,47.03L502.43,277.45L502.74,47.03L503.06,47.03L503.37,47.03L503.68,47.03L503.99,47.03L504.3,47.03L504.61,383.91L504.92,381.69L505.23,301.71L505.54,249.76L505.85,86.651L506.16,79.606L506.47,80.452L506.79,80.899L507.1,83.56L507.41,82.098L507.72,82.596L508.03,84.905L508.34,84.487L508.65,79.673L508.96,82.264L509.27,84.146L509.58,85.347L509.89,89.318L510.2,100.94L510.52,110.49L510.83,115.56L511.14,118.23L511.45,116.01L511.76,119.38L512.07,118.38L512.38,118.87L512.69,117.71L513,120.21L513.31,120.84L513.62,120.76L513.93,120.07L514.25,122.02L514.56,127.38L514.87,130.13L515.18,130.68L515.49,129.57L515.8,131.08L516.11,130.14L516.42,129.74L516.73,131.87L517.04,47.03L517.35,155.73L517.67,157.96L517.98,159.82L518.29,163.13L518.6,164.67L518.91,156.34L519.22,147.58L519.53,153.26L519.84,156.39L520.15,160.73L520.46,161.12L520.77,163.05L521.08,164.2L521.4,162.78L521.71,163.27L522.02,164.77L522.33,163.38L522.64,160.55L522.95,161.99L523.26,160.36L523.57,162.05L523.88,160.25L524.19,163.6L524.5,162.52L524.81,165.84L525.13,168.69L525.44,166.52L525.75,165.03L526.06,165.06L526.37,165.8L526.68,166.78L526.99,164.78L527.3,165.73L527.61,163.05L527.92,162.56L528.23,164.67L528.55,162.77L528.86,164.63L529.17,164.93L529.48,165.11L529.79,165.61L530.1,164.43L530.41,162.76L530.72,169.46L531.03,169.71L531.34,168.78L531.65,169.59L531.96,169.85L532.28,171.34L532.59,172.46L532.9,171.44L533.21,173.38L533.52,175.21L533.83,174.12L534.14,175.76L534.45,174.65L534.76,173.27L535.07,176.66L535.38,177.84L535.69,180.92L536.01,184.33L536.32,182.13L536.63,182.36L536.94,183.16L537.25,182.13L537.56,185.2L537.87,184.3L538.18,186.36L538.49,188.62L538.8,186.77L539.11,199.6L539.42,200.21L539.74,203.49L540.05,202.07L540.36,202.25L540.67,202.18L540.98,203.83L541.29,202.07L541.6,196.9L541.91,201.28L542.22,202.18L542.53,202.86L542.84,202.37L543.16,203.07L543.47,202.41L543.78,202.4L544.09,202.39L544.4,202.41L544.71,202.42L545.02,202.52L545.33,204.5L545.64,205.27L545.95,206.53L546.26,204.57L546.57,202.79L546.89,201.98L547.2,202.55L547.51,202.87L547.82,201.99L548.13,204.67L548.44,207.31L548.75,206.72L549.06,209.48L549.37,205.74L549.68,205.28L549.99,204.88L550.3,204.86L550.62,205.63L550.93,205.77L551.24,206.7L551.55,205.68L551.86,205.7L552.17,205.53L552.48,203.14L552.79,200.03L553.1,211.54L553.41,210.86L553.72,47.03L554.04,47.03L554.35,47.03L554.66,47.03L554.97,47.03L555.28,47.03L555.59,47.03L555.9,47.03L556.21,47.03L556.52,47.03L556.83,47.03L557.14,336.68L557.45,47.03L557.77,47.03L558.08,303.41L558.39,47.03L558.7,47.03L559.01,154.88L559.32,47.03L559.63,47.03L559.94,47.03L560.25,47.03L560.56,246.28L560.87,250.01L561.18,84.822L561.5,88.819L561.81,82.123L562.12,76.59L562.43,82.389L562.74,81.625L563.05,83.135L563.36,86.121L563.67,81.498L563.98,78.638L564.29,84.198L564.6,83.028L564.92,81.491L565.23,83.998L565.54,92.682L565.85,97.835L566.16,106.6L566.47,110.68L566.78,114.12L567.09,115.68L567.4,116.5L567.71,120.09L568.02,120.62L568.33,120.56L568.65,118.49L568.96,119.26L569.27,122.81L569.58,124.4L569.89,126.15L570.2,125.29L570.51,125.59L570.82,124.96L571.13,124.57L571.44,127.13L571.75,127.65L572.06,131.28L572.38,132.08L572.69,131.11L573,131.93L573.31,132.05L573.62,131.74L573.93,132.24L574.24,130.98L574.55,130.33L574.86,129.69L575.17,130.82L575.48,134.68L575.79,140.2L576.11,142.04L576.42,143.68L576.73,144.25L577.04,144.69L577.35,145.18L577.66,147.96L577.97,146.63L578.28,150.99L578.59,153.66L578.9,151.26L579.21,154.14L579.53,154.17L579.84,154.41L580.15,153.41L580.46,153.63L580.77,156.93L581.08,156.32L581.39,156.55L581.7,170.05L582.01,47.03L582.32,193.27L582.63,193.08L582.94,193.16L583.26,193.45L583.57,197.51L583.88,200.81L584.19,204.82L584.5,170.79L584.81,174.97L585.12,183.74L585.43,189.23L585.74,196.05L586.05,203.59L586.36,204.06L586.67,204L586.99,203.9L587.3,204.03L587.61,202.97L587.92,202.96L588.23,202.85L588.54,204.85L588.85,204.9L589.16,208.41L589.47,207.16L589.78,209.06L590.09,220.3L590.41,47.03L590.72,249.82L591.03,47.03L591.34,47.03L591.65,304.06L591.96,47.03L592.27,343.91L592.58,297.59L592.89,239.66L593.2,96.61L593.51,97.417L593.82,98.7L594.14,104.39L594.45,111.01L594.76,118.99L595.07,128.14L595.38,134.98L595.69,141.52L596,145.45L596.31,151.99L596.62,160.9L596.93,168.22L597.24,176.68L597.55,183.15L597.87,188.64L598.18,190.97L598.49,196.24L598.8,197.48L599.11,199.44L599.42,205.06L599.73,210.88L600.04,211.45L600.35,211.06L600.66,213.11L600.97,211.1L601.28,211.23L601.6,212.93L601.91,212.14L602.22,212.1L602.53,212.87L602.84,209.33L603.15,186.16L603.46,160.88L603.77,161.13L604.08,159.74L604.39,161.64L604.7,160.67L605.02,161.32L605.33,168.64L605.64,169.59L605.95,168.67L606.26,168.69L606.57,167.9L606.88,169.42L607.19,170.65L607.5,173.38L607.81,173.66L608.12,172.54L608.43,172.5L608.75,173.56L609.06,172.59L609.37,174.52L609.68,177.96L609.99,178.87L610.3,176.85L610.61,177.7L610.92,178.77L611.23,179.21L611.54,180.15L611.85,182.17L612.16,181.31L612.48,182.3L612.79,184.58L613.1,181.77L613.41,181.52L613.72,183.93L614.03,182.3L614.34,181.51L614.65,181.55L614.96,182.57L615.27,181.35L615.58,181.47L615.9,183.28L616.21,182.06L616.52,184.22L616.83,184.88L617.14,185.72L617.45,187.51L617.76,185.85L618.07,187.23L618.38,185.91L618.69,188.4L619,188.46L619.31,189.56L619.63,186.88L619.94,188.99L620.25,188.59L620.56,188.18L620.87,191.75L621.18,189.11L621.49,191.46L621.8,190.82L622.11,190.44L622.42,191.07L622.73,189.24L623.04,189.03L623.36,189.91L623.67,189.75L623.98,189.55L624.29,190.16L624.6,189.76L624.91,188.6L625.22,188.74L625.53,201.71L625.84,47.03L626.15,47.03L626.46,47.03L626.77,47.03L627.09,47.03L627.4,47.03L627.71,47.03L628.02,47.03L628.33,275.94L628.64,47.03L628.95,47.03L629.26,47.03L629.57,47.03L629.88,47.03L630.19,47.03L630.51,47.03L630.82,47.03L631.13,47.03L631.44,47.03L631.75,47.03L632.06,47.03L632.37,291.03L632.68,47.03L632.99,47.03L633.3,337.64L633.61,307.87L633.92,102.14L634.24,82.792L634.55,83.07L634.86,82.674L635.17,82.952L635.48,84.551L635.79,83.319L636.1,79.426L636.41,81.819L636.72,83.486L637.03,83.202L637.34,83.311L637.65,81.601L637.97,81.597L638.28,83.502L638.59,84.331L638.9,91.91L639.21,101.82L639.52,108.09L639.83,113.95L640.14,115L640.45,117.55L640.76,116.76L641.07,120.8L641.39,120.25L641.7,121.46L642.01,123.77L642.32,123.94L642.63,124.97L642.94,136.81L643.25,160.5L643.56,47.03L643.87,189.31L644.18,47.03L644.49,223.24L644.8,47.03L645.12,257.98L645.43,47.03L645.74,294.99L646.05,47.03L646.36,47.03L646.67,348.05L646.98,47.03L647.29,47.03L647.6,47.03L647.91,411.09L648.22,47.03L648.53,47.03L648.85,473.06L649.16,47.03L649.47,47.03L649.78,523.43L650.09,47.03L650.4,554.77L650.71,555.3L651.02,559.18L651.33,560.77L651.64,527.37L651.95,310.76L652.26,145.85L652.58,154.73L652.89,161.01L653.2,168.03L653.51,173.71L653.82,176.11L654.13,183.31L654.44,183.83L654.75,185.98L655.06,189.37L655.37,192.81L655.68,195.4L656,205.16L656.31,213.11L656.62,217.83L656.93,224.44L657.24,229.03L657.55,230.17L657.86,233.38L658.17,236.51L658.48,240.92L658.79,245.44L659.1,248.04L659.41,248.01L659.73,250.41L660.04,256.04L660.35,258.28L660.66,260.5L660.97,260.47L661.28,263.86L661.59,269.24L661.9,271.65L662.21,271.86L662.52,276.03L662.83,275.78L663.14,275.74L663.46,277.92L663.77,277.83L664.08,280.43L664.39,283.28L664.7,285.27L665.01,285.35L665.32,285.08L665.63,287.47L665.94,290.09L666.25,295.31L666.56,294.27L666.88,296.44L667.19,299.07L667.5,303.57L667.81,308L668.12,310.03L668.43,313.21L668.74,315.56L669.05,316.19L669.36,316.78L669.67,316.75L669.98,316.73L670.29,318.83L670.61,318.84L670.92,317.24L671.23,316.5L671.54,316.5L671.85,318.11L672.16,318.18L672.47,318.01L672.78,320.12L673.09,321.75L673.4,319.77L673.71,320.42L674.02,320.8L674.34,320.82L674.65,320.75L674.96,47.03L675.27,47.03L675.58,343.72L675.89,47.03L676.2,47.03L676.51,47.03L676.82,47.03L677.13,47.03L677.44,47.03L677.75,47.03L678.07,47.03L678.38,47.03L678.69,406.65L679,47.03L679.31,47.03L679.62,47.03L679.93,47.03L680.24,47.03L680.55,47.03L680.86,359.34L681.17,47.03L681.49,47.03L681.8,222.14L682.11,251.7L682.42,218.99L682.73,120.91L683.04,79.785L683.35,85.251L683.66,83.649L683.97,79.978L684.28,87.31L684.59,96.113L684.9,104.8L685.22,114.76L685.53,115.37L685.84,116.13L686.15,116.75L686.46,119.56L686.77,120.56L687.08,119L687.39,118.45L687.7,118.26L688.01,120.73L688.32,122.46L688.63,123.84L688.95,124.78L689.26,123.02L689.57,123.44L689.88,123.15L690.19,124.55L690.5,123.27L690.81,123.99L691.12,123.63L691.43,126.78L691.74,130.96L692.05,131.93L692.37,136.94L692.68,142.73L692.99,144.09L693.3,143.22L693.61,145.76L693.92,144.83L694.23,146.67L694.54,146.36L694.85,157.7L695.16,176.57L695.47,47.03L695.78,206.06L696.1,47.03L696.41,251.57L696.72,47.03L697.03,47.03L697.34,47.03L697.65,319.07L697.96,47.03L698.27,47.03L698.58,367.45L698.89,47.03L699.2,408.37L699.51,393.54L699.83,330.74L700.14,92.519L700.45,100.32L700.76,109.39L701.07,117.21L701.38,123.21L701.69,131.66L702,146.18L702.31,156.31L702.62,162.63L702.93,171.92L703.25,177.51L703.56,183.85L703.87,190.82L704.18,194.83L704.49,198.29L704.8,202.43L705.11,207.99L705.42,211.96L705.73,217.78L706.04,212.45L706.35,214.35L706.66,220.9L706.98,223.53L707.29,227.63L707.6,232.92L707.91,237.25L708.22,241.04L708.53,245.61L708.84,249.13L709.15,248.01L709.46,247.88L709.77,250.56L710.08,255.68L710.39,257.3L710.71,259.43L711.02,266.23L711.33,270.92L711.64,273.44L711.95,276.17L712.26,282.2L712.57,285.81L712.88,283.49L713.19,284.89L713.5,285.58L713.81,284.96L714.12,283.79L714.44,283.83L714.75,283.77L715.06,283.72L715.37,283.98L715.68,283.59L715.99,283.85L716.3,283.7L716.61,284.06L716.92,285.61L717.23,284.03L717.54,285.33L717.86,285.21L718.17,284.21L718.48,284.05L718.79,286.26L719.1,285.75L719.41,286.2L719.72,286.23L720.03,286.2L720.34,286.1L720.65,286.07L720.96,286.31L721.27,287.2L721.59,285.88L721.9,286.64L722.21,287.2L722.52,286.08L722.83,287.97L723.14,288.18L723.45,286.35L723.76,286.07L724.07,286.73L724.38,286.57L724.69,286.21L725,286.24L725.32,287.19L725.63,286.41L725.94,286.99L726.25,286.28L726.56,286.66L726.87,286.35L727.18,286.31L727.49,285.96L727.8,286.3L728.11,286.15L728.42,286.15L728.74,286.38L729.05,286.64L729.36,287.36L729.67,286.66L729.98,287.65L730.29,286.49L730.6,287.95L730.91,286.99L731.22,288.09L731.53,286.3L731.84,286.36L732.15,288.33L732.47,286.49L732.78,286.41L733.09,286.7L733.4,286.72L733.71,288.21L734.02,287.57L734.33,288L734.64,288.78L734.95,290.86L735.26,290.85L735.57,290.99L735.88,291.04L736.2,291.01L736.51,290.93L736.82,290.82L737.13,292.66L737.44,293.07L737.75,291.98L738.06,291.84L738.37,290.63L738.68,291.62L738.99,288.32L739.3,288.57L739.61,289L739.93,287.68L740.24,290.28L740.55,290.2L740.86,289.65L741.17,292.11L741.48,313.43L741.79,47.03L742.1,346.31L742.41,47.03L742.72,370.29L743.03,47.03L743.35,408.64L743.66,47.03L743.97,47.03L744.28,466.23L744.59,47.03L744.9,47.03L745.21,47.03L745.52,524.92L745.83,47.03L746.14,47.03L746.45,584.03L746.76,47.03L747.08,47.03L747.39,47.03L747.7,649.91L748.01,633.92L748.32,591.05L748.63,502.5L748.94,99.649L749.25,99.612L749.56,99.535L749.87,104.05L750.18,110.28L750.49,119.4L750.81,133.6L751.12,47.03L751.43,47.03L751.74,167.15L752.05,47.03L752.36,47.03L752.67,47.03L752.98,47.03L753.29,47.03L753.6,225.93L753.91,130.94L754.23,73.177L754.54,82.399L754.85,83.948L755.16,96.032L755.47,100.42L755.78,109.28L756.09,116.44L756.4,115.48L756.71,117.4L757.02,118.3L757.33,122.01L757.64,120.36L757.96,118.1L758.27,119.44L758.58,123.36L758.89,123.8L759.2,125.56L759.51,127.26L759.82,125.68L760.13,126.35L760.44,125.88L760.75,125.46L761.06,125.36L761.37,126.01L761.69,125.68L762,126.6L762.31,127.92L762.62,131.14L762.93,128.58L763.24,130.65L763.55,134.2L763.86,133.63L764.17,133.61L764.48,139.54L764.79,138.7L765.1,138.84L765.42,138.14L765.73,138.82L766.04,141.8L766.35,138.68L766.66,137.34L766.97,136.48L767.28,135.39L767.59,136.37L767.9,138.15L768.21,140.9L768.52,142.65L768.84,144.64L769.15,142.59L769.46,145.74L769.77,145.52L770.08,146.35L770.39,145.27L770.7,145.09L771.01,142.8L771.32,144.23L771.63,143.43L771.94,146.39L772.25,146.15L772.57,144.99L772.88,145.9L773.19,147.78L773.5,147.08L773.81,148.42L774.12,147.13L774.43,148.03L774.74,147.78L775.05,148.67L775.36,147.42L775.67,146.68L775.98,147.46L776.3,146.93L776.61,148.87L776.92,148.83L777.23,151.02L777.54,151.98L777.85,151.34L778.16,149.78L778.47,149.61L778.78,149.65L779.09,151.78L779.4,150.15L779.72,152.1L780.03,153.51L780.34,152.62L780.65,154.47L780.96,154.73L781.27,153.18L781.58,151.78L781.89,151.31L782.2,152.5L782.51,151.26L782.82,151.31L783.13,152.39L783.45,155.9L783.76,154.04L784.07,153.75L784.38,155.16L784.69,155.14L785,154.89L785.31,153.4L785.62,154.55L785.93,153.43L786.24,153.38L786.55,154.17L786.86,154.84L787.18,153.37L787.49,153.99L787.8,155.44L788.11,157.21L788.42,156.33L788.73,158.87L789.04,157.75L789.35,157.97L789.66,157.22L789.97,157.52L790.28,159.12L790.59,157.52L790.91,157.13L791.22,157.84L791.53,157.25L791.84,159.77L792.15,159.43L792.46,160.41L792.77,162.64L793.08,162.97L793.39,162.83L793.7,160.91L794.01,161.9L794.33,161.81L794.64,164.44L794.95,164.47L795.26,166.63L795.57,166.44L795.88,167.6L796.19,166.33L796.5,166.42L796.81,165.73L797.12,165.54L797.43,164.82L797.74,166.29L798.06,165.3L798.37,166.05L798.68,167.79L798.99,166.6L799.3,167.33L799.61,169.47L799.92,169.39L800.23,171.48L800.54,166.65L800.85,167.8L801.16,166.48L801.47,166.58L801.79,168.17L802.1,169.23L802.41,171.33L802.72,170.96L803.03,170.93L803.34,171.62L803.65,172.26L803.96,173.14L804.27,172.99L804.58,172.36L804.89,172.66L805.21,173.06L805.52,174.49L805.83,173.49L806.14,172.61L806.45,174.67L806.76,175.36L807.07,175.2L807.38,178.27L807.69,178.68L808,177.97L808.31,178.05L808.62,180.2L808.94,185.47L809.25,47.03L809.56,218.9L809.87,47.03L810.18,246.56L810.49,47.03L810.8,291.99L811.11,47.03L811.42,47.03L811.73,331.15L812.04,357.08L812.35,339.36L812.67,296.42L812.98,112.4L813.29,100.31L813.6,111.99L813.91,121.04L814.22,128.98L814.53,133.56L814.84,139.24L815.15,146.21L815.46,151.4L815.77,156.92L816.09,161L816.4,167.94L816.71,172.11L817.02,176.44L817.33,189.18L817.64,192.69L817.95,197.24L818.26,201.97L818.57,207.17L818.88,213.01L819.19,217.66L819.5,224.28L819.82,227.03L820.13,230.88L820.44,232.79L820.75,237.98L821.06,241.57L821.37,246.28L821.68,229.98L821.99,192.31L822.3,174.06L822.61,47.03L822.92,186.22L823.23,47.03L823.55,185.04L823.86,47.03L824.17,47.03L824.48,47.03L824.79,47.03L825.1,47.03L825.41,47.03L825.72,47.03L826.03,279.42L826.34,47.03L826.65,47.03L826.96,47.03L827.28,257.15L827.59,47.03L827.9,47.03L828.21,47.03L828.52,47.03L828.83,349.78L829.14,47.03L829.45,382.48L829.76,47.03L830.07,47.03L830.38,291.82L830.7,301.11L831.01,167.72L831.32,78.432L831.63,82.58L831.94,81.281L832.25,82.511L832.56,87.296L832.87,81.055L833.18,80.504L833.49,83.316L833.8,85.508L834.11,83.432L834.43,80.569L834.74,83.321L835.05,81.17L835.36,85.644L835.67,77.609L835.98,84.906L836.29,95.008L836.6,100.65L836.91,110.13L837.22,116.43L837.53,117.13L837.84,116.06L838.16,119.12L838.47,117.92L838.78,118.36L839.09,118.35L839.4,119.14L839.71,118.39L840.02,120.57L840.33,121.13L840.64,119.94L840.95,120.3L841.26,120.3L841.58,120.48L841.89,124.36L842.2,125.89L842.51,126.51L842.82,127.64L843.13,129.41L843.44,130.09L843.75,130.48L844.06,128.89L844.37,132.48L844.68,135.18L844.99,134.13L845.31,136.57L845.62,139.36L845.93,139.41L846.24,140.93L846.55,140.19L846.86,141.16L847.17,143.65L847.48,145.34L847.79,144.77L848.1,147.92L848.41,150.62L848.72,151.1L849.04,152.03L849.35,152.2L849.66,154.9L849.97,153.07L850.28,152.65L850.59,152.07L850.9,150.83L851.21,152.64L851.52,152.18L851.83,151.92L852.14,151.79L852.45,150.91L852.77,150.94L853.08,153.17L853.39,153.28L853.7,153.92L854.01,155.52L854.32,155.43L854.63,156.59L854.94,157.5L855.25,157.45L855.56,156.45L855.87,156.68L856.19,157.7L856.5,159.66L856.81,159.72L857.12,160.38L857.43,159.8L857.74,162.3L858.05,166.65L858.36,166.96L858.67,168.8L858.98,181.78L859.29,208.67L859.6,47.03L859.92,235.56L860.23,256.92L860.54,47.03L860.85,293.27L861.16,47.03L861.47,47.03L861.78,330.25L862.09,47.03L862.4,47.03L862.71,388.71L863.02,47.03L863.33,47.03L863.65,442.62L863.96,47.03L864.27,47.03L864.58,494.03L864.89,47.03L865.2,532.07L865.51,47.03L865.82,47.03L866.13,578.42L866.44,47.03L866.75,47.03L867.07,626L867.38,626.29L867.69,626.13L868,628.27L868.31,628.67L868.62,629.93L868.93,587.06L869.24,453.03L869.55,187.73L869.86,195.84L870.17,201.41L870.48,206.95L870.8,209.96L871.11,214.54L871.42,216.7L871.73,218.92L872.04,218.97L872.35,220.98L872.66,224.89L872.97,227.92L873.28,232.68L873.59,236.7L873.9,242.29L874.21,246.57L874.53,248.74L874.84,252.35L875.15,256.68L875.46,258.38L875.77,258.29L876.08,260.26L876.39,262.44L876.7,265.23L877.01,269.17L877.32,275.81L877.63,277.83L877.94,284.97L878.26,287.93L878.57,289.63L878.88,291.83L879.19,295.53L879.5,294.1L879.81,291.96L880.12,291.73L880.43,293.75L880.74,296.18L881.05,298.51L881.36,300.82L881.68,303.73L881.99,47.03L882.3,47.03L882.61,310.78L882.92,47.03L883.23,47.03L883.54,327.77L883.85,47.03L884.16,47.03L884.47,47.03L884.78,337.6L885.09,47.03L885.41,47.03L885.72,338.9L886.03,293.75L886.34,204.43L886.65,145.03L886.96,110.65L887.27,107.31L887.58,116.94L887.89,118.67L888.2,118.6L888.51,120.08L888.82,121.87L889.14,122.71L889.45,123.79L889.76,123.47L890.07,124.3L890.38,124.49L890.69,124.45L891,129.21L891.31,130.44L891.62,130.33L891.93,136.82L892.24,138.84L892.56,139.57L892.87,138.81L893.18,137.72L893.49,136.5L893.8,137.55L894.11,136.95L894.42,138.03L894.73,139L895.04,139.41L895.35,140.57L895.66,141.24L895.97,141.1L896.29,143.24L896.6,143.83L896.91,142.53L897.22,144.66L897.53,149.12L897.84,148.24L898.15,152.37L898.46,155.13L898.77,156.2L899.08,156.23L899.39,157.72L899.7,159.69L900.02,157.77L900.33,158.84L900.64,160.01L900.95,162.41L901.26,161.16L901.57,161.98L901.88,161.23L902.19,163.27L902.5,163.36L902.81,164.25L903.12,164.12L903.43,163.87L903.75,164.18L904.06,163.1L904.37,164.38L904.68,163L904.99,161.95L905.3,161.63L905.61,161.51L905.92,161.57L906.23,162.21L906.54,160.72L906.85,161.41L907.17,161.38L907.48,159.81L907.79,159.17L908.1,159.63L908.41,159.4L908.72,160.58L909.03,160.96L909.34,160.96L909.65,160.94L909.96,159.12L910.27,159.59L910.58,160.71L910.9,159.66L911.21,159.88L911.52,158.35L911.83,158.94L912.14,160.51L912.45,160.96L912.76,160.63L913.07,160.67L913.38,160.64L913.69,161.46L914,160.86L914.31,160.42L914.63,161.58L914.94,161.79L915.25,161.25L915.56,160.28L915.87,161.45L916.18,162.66L916.49,163.88L916.8,163.16L917.11,163.91L917.42,162.78L917.73,163.19L918.05,162.35L918.36,162.58L918.67,165.03L918.98,166.98L919.29,168.04L919.6,171.44L919.91,170.67L920.22,173.5L920.53,171.48L920.84,170.46L921.15,170.19L921.46,169.12L921.78,170.27L922.09,173L922.4,172.99L922.71,172.31L923.02,171.58L923.33,173.65L923.64,169.97L923.95,170.31L924.26,169.22L924.57,169.66L924.88,169.26L925.19,168.5L925.51,169.34L925.82,171.59L926.13,171.42L926.44,173.71L926.75,174.54L927.06,172.79L927.37,173.04L927.68,173.88L927.99,172.4L928.3,171.32L928.61,171.53L928.92,172.44L929.24,172.47L929.55,171.55L929.86,168.68L930.17,170.5L930.48,170.74L930.79,173.82L931.1,173.1L931.41,175.09L931.72,172.82L932.03,173.62L932.34,172.91L932.66,187.63L932.97,47.03L933.28,47.03L933.59,223.14L933.9,47.03L934.21,47.03L934.52,47.03L934.83,47.03L935.14,47.03L935.45,259.64L935.76,47.03L936.07,47.03L936.39,205.25L936.7,47.03L937.01,47.03L937.32,165.76L937.63,47.03L937.94,47.03L938.25,47.03L938.56,47.03L938.87,228.73L939.18,47.03L939.49,47.03L939.8,47.03L940.12,47.03L940.43,47.03L940.74,345.61L941.05,363.69L941.36,280.18L941.67,81.402L941.98,82.696L942.29,85.969L942.6,84.876L942.91,80.119L943.22,79.821L943.54,87.811L943.85,85.456L944.16,78.016L944.47,80.727L944.78,82.481L945.09,83.504L945.4,83.134L945.71,80.986L946.02,82.225L946.33,83.855L946.64,88.479L946.95,100.07L947.27,107.71L947.58,115.31L947.89,115.34L948.2,115.1L948.51,125.72L948.82,149.12L949.13,47.03L949.44,177.61L949.75,47.03L950.06,204.02L950.37,231.2L950.68,47.03L951,256.28L951.31,47.03L951.62,287.8L951.93,301.97L952.24,289.79L952.55,211L952.86,104.75L953.17,109.25L953.48,117.52L953.79,125.99L954.1,134.52L954.42,139.8L954.73,145.11L955.04,152.04L955.35,157.53L955.66,163.47L955.97,170.86L956.28,177.71L956.59,183.91L956.9,189.96L957.21,194L957.52,201.69L957.83,205.35L958.15,211.99L958.46,220.75L958.77,224.27L959.08,230.02L959.39,233.95L959.7,238.08L960.01,234.98L960.32,208.64L960.63,201.97L960.94,207.16L961.25,205.59L961.56,207.18L961.88,207.33L962.19,205.11L962.5,204.9L962.81,206.67L963.12,209.65L963.43,210.12L963.74,210.16L964.05,209.98L964.36,210.36L964.67,210.32L964.98,210.27L965.29,210.42L965.61,211.84L965.92,211.58L966.23,210.95L966.54,210.09L966.85,211.97L967.16,211.17L967.47,210.02L967.78,210.41L968.09,209.8L968.4,210.41L968.71,211.33L969.03,211.12L969.34,210.01L969.65,209.78L969.96,209.74L970.27,210.96L970.58,210.19L970.89,211.12L971.2,208.38L971.51,207.69L971.82,211.25L972.13,211.48L972.44,211.93L972.76,212.01L973.07,211.17L973.38,211.03L973.69,208.03L974,207.36L974.31,207.8L974.62,208.18L974.93,207.26L975.24,207.43L975.55,207.35L975.86,209.16L976.17,207.21L976.49,47.03L976.8,47.03L977.11,218.75L977.42,232.79L977.73,220.91L978.04,47.03L978.35,221.21L978.66,47.03L978.97,47.03L979.28,47.03L979.59,47.03L979.91,47.03L980.22,47.03L980.53,47.03L980.84,47.03L981.15,310.19L981.46,47.03L981.77,47.03L982.08,312.92L982.39,316.18L982.7,47.03L983.01,47.03L983.32,386.44L983.64,47.03L983.95,47.03L984.26,47.03L984.57,448.49L984.88,444.29L985.19,294.06L985.5,166.9L985.81,81.907L986.12,84.285L986.43,82.33L986.74,79.685L987.05,86.062L987.37,82.407L987.68,82.195L987.99,84.095L988.3,84.486L988.61,85.08L988.92,76.569L989.23,86.07L989.54,81.627L989.85,74.604L990.16,84.601L990.47,81.428L990.78,89.448L991.1,97.892L991.41,107.13L991.72,114.79L992.03,117.12L992.34,115.4L992.65,120.08L992.96,122.81L993.27,122.6L993.58,123.67L993.89,125.49L994.2,124.9L994.52,124.53L994.83,125.14L995.14,125.25L995.45,126.16L995.76,128.37L996.07,126.81L996.38,131.24L996.69,130.14L997,132.88L997.31,142.59L997.62,165.9L997.93,179.69L998.25,179.64L998.56,180.9L998.87,184.58L999.18,185.06L999.49,176.25L999.8,145.62L1000.1,154.09L1000.4,163.15L1000.7,166L1001,170.37L1001.4,177.06L1001.7,181.79L1002,186.69L1002.3,187.04L1002.6,188.06L1002.9,185.77L1003.2,185.64L1003.5,186.98L1003.8,184.84L1004.2,184.99L1004.5,185.06L1004.8,186.2L1005.1,187.08L1005.4,188.5L1005.7,189.47L1006,187.3L1006.3,187.91L1006.6,186.56L1006.9,184.99L1007.3,185.3L1007.6,184.81L1007.9,186.02L1008.2,187.91L1008.5,189.04L1008.8,188.13L1009.1,187.37L1009.4,188.47L1009.7,188.02L1010.1,187.4L1010.4,186.8L1010.7,184.96L1011,184.72L1011.3,184.78L1011.6,184.8L1011.9,186.84L1012.2,185.87L1012.5,186.76L1012.9,185.85L1013.2,187.01L1013.5,185.99L1013.8,185L1014.1,186.69L1014.4,184.54L1014.7,182.61L1015,184.89L1015.3,185.56L1015.7,185.93L1016,184.81L1016.3,184.74L1016.6,185.02L1016.9,185L1017.2,184.74L1017.5,184.37L1017.8,184.18L1018.1,185.19L1018.5,186.62L1018.8,186.24L1019.1,186.02L1019.4,188.21L1019.7,188.36L1020,188.49L1020.3,188.63L1020.6,189.5L1020.9,187.76L1021.2,187.48L1021.6,187.77L1021.9,189.24L1022.2,186.39L1022.5,186.97L1022.8,190.11L1023.1,189.32L1023.4,189.44L1023.7,189.14L1024,192.51L1024.4,189.2L1024.7,189.08L1025,188.99L1025.3,188.69L1025.6,188.85L1025.9,190.03L1026.2,188.94L1026.5,188.77L1026.8,196.8L1027.2,47.03L1027.5,47.03L1027.8,47.03L1028.1,47.03L1028.4,223.05L1028.7,207.74L1029,47.03L1029.3,197.48L1029.6,47.03L1030,47.03L1030.3,47.03L1030.6,47.03L1030.9,47.03L1031.2,230.61L1031.5,47.03L1031.8,47.03L1032.1,47.03L1032.4,47.03L1032.8,47.03L1033.1,47.03L1033.4,47.03L1033.7,47.03L1034,47.03L1034.3,47.03L1034.6,47.03L1034.9,47.03L1035.2,47.03L1035.5,431.2L1035.9,188.78L1036.2,83.737L1036.5,80.452L1036.8,83.594L1037.1,81.124L1037.4,83.713L1037.7,82.671L1038,80.171L1038.3,82.938L1038.7,82.182L1039,84.739L1039.3,81.879L1039.6,83.021L1039.9,111.45L1040.2,47.03L1040.5,47.03L1040.8,156.22L1041.1,47.03L1041.5,47.03L1041.8,216.94L1042.1,47.03L1042.4,253.87L1042.7,253.04L1043,239.61L1043.3,93.115L1043.6,104.07L1043.9,111.94L1044.3,120.57L1044.6,127.31L1044.9,134.25L1045.2,135.45L1045.5,142.1L1045.8,148.79L1046.1,154.56L1046.4,161.54L1046.7,166.44L1047,171.94L1047.4,181.43L1047.7,186.26L1048,191.06L1048.3,195.71L1048.6,200.35L1048.9,205.04L1049.2,208.21L1049.5,211.71L1049.8,188.04L1050.2,162.85L1050.5,161.87L1050.8,159.86L1051.1,159.87L1051.4,158.93L1051.7,160.74L1052,167.54L1052.3,167.93L1052.6,167.76L1053,165.82L1053.3,168.35L1053.6,167.55L1053.9,168.21L1054.2,168.13L1054.5,168.58L1054.8,168.3L1055.1,168.13L1055.4,171.32L1055.8,169.13L1056.1,170.18L1056.4,170.27L1056.7,169.91L1057,169.23L1057.3,170.24L1057.6,169.27L1057.9,169.34L1058.2,172.67L1058.6,171.7L1058.9,171.69L1059.2,171.37L1059.5,173.64L1059.8,172.51L1060.1,171.72L1060.4,174.45L1060.7,177.04L1061,176.09L1061.3,175.87L1061.7,176.33L1062,177.97L1062.3,176.43L1062.6,175.8L1062.9,177.5L1063.2,176.33L1063.5,178.44L1063.8,175.98L1064.1,176.85L1064.5,176.59L1064.8,176.5L1065.1,177.47L1065.4,179.22L1065.7,178.04L1066,180L1066.3,179.08L1066.6,178.28L1066.9,178.32L1067.3,179.76L1067.6,177.94L1067.9,179.03L1068.2,178.34L1068.5,178.38L1068.8,178.91L1069.1,179.19L1069.4,178.42L1069.7,179.75L1070.1,178.68L1070.4,178.41L1070.7,177.52L1071,176.16L1071.3,176.15L1071.6,176.15L1071.9,176.14L1072.2,181.55L1072.5,181.54L1072.9,180.8L1073.2,180.25L1073.5,181.23L1073.8,180.01L1074.1,180.89L1074.4,182.12L1074.7,185L1075,182.94L1075.3,183.77L1075.6,182.19L1076,183.35L1076.3,183.54L1076.6,182.84L1076.9,183.4L1077.2,182.35L1077.5,183.04L1077.8,183.22L1078.1,183.3L1078.4,181.64L1078.8,181.71L1079.1,181.58L1079.4,183.83L1079.7,183.74L1080,183.8" style="fill:none;stroke:#F15A60;stroke-width:1.875" />
<path d="M1055,694.3L1080,694.3" style="fill:none;stroke:#F15A60;stroke-width:1.875" />
<text x="959.12" y="-687.85" transform="scale(1, -1)"
	style="font-family:Helvetica;font-weight:normal;font-style:normal;font-size:12pt">Consul v0.6.4</text>
</g>
</svg>
