<?xml version="1.0"?>
<!-- Generated by SVGo and Plotinum VG -->
<svg width="12in" height="8in"
	xmlns="http://www.w3.org/2000/svg"
	xmlns:xlink="http://www.w3.org/1999/xlink">
<g transform="scale(1, -1) translate(0, -720)">
<path d="M0,0L1080,0L1080,720L0,720Z" style="fill:#FFFFFF" />
<text x="256.58" y="-706.41" transform="scale(1, -1)"
	style="font-family:Helvetica;font-weight:normal;font-style:normal;font-size:12pt">Write 2M keys, 1000-client, 8-byte key, 256-byte value (Consul, Test 2), Memory(MB)</text>
<text x="548.11" y="-4.965" transform="scale(1, -1)"
	style="font-family:Helvetica;font-weight:normal;font-style:normal;font-size:12pt">Second</text>
<text x="63.613" y="-19.142" transform="scale(1, -1)"
	style="font-family:Helvetica;font-weight:normal;font-style:normal;font-size:10pt">0</text>
<text x="366.39" y="-19.142" transform="scale(1, -1)"
	style="font-family:Helvetica;font-weight:normal;font-style:normal;font-size:10pt">1000</text>
<text x="679.6" y="-19.142" transform="scale(1, -1)"
	style="font-family:Helvetica;font-weight:normal;font-style:normal;font-size:10pt">2000</text>
<text x="992.81" y="-19.142" transform="scale(1, -1)"
	style="font-family:Helvetica;font-weight:normal;font-style:normal;font-size:10pt">3000</text>
<path d="M67.088,30.467L67.088,40.467" style="fill:none;stroke:#000000;stroke-width:0.625" />
<path d="M380.29,30.467L380.29,40.467" style="fill:none;stroke:#000000;stroke-width:0.625" />
<path d="M693.5,30.467L693.5,40.467" style="fill:none;stroke:#000000;stroke-width:0.625" />
<path d="M1006.7,30.467L1006.7,40.467" style="fill:none;stroke:#000000;stroke-width:0.625" />
<path d="M223.69,35.468L223.69,40.467" style="fill:none;stroke:#000000;stroke-width:0.625" />
<path d="M536.9,35.468L536.9,40.467" style="fill:none;stroke:#000000;stroke-width:0.625" />
<path d="M850.11,35.468L850.11,40.467" style="fill:none;stroke:#000000;stroke-width:0.625" />
<path d="M67.088,40.467L1080,40.467" style="fill:none;stroke:#000000;stroke-width:0.625" />
<g transform="rotate(90)">
<text x="330.91" y="13.59" transform="scale(1, -1)"
	style="font-family:Helvetica;font-weight:normal;font-style:normal;font-size:12pt">Memory(MB)</text>
</g>
<text x="18.555" y="-175.45" transform="scale(1, -1)"
	style="font-family:Helvetica;font-weight:normal;font-style:normal;font-size:10pt">1000</text>
<text x="18.555" y="-311.49" transform="scale(1, -1)"
	style="font-family:Helvetica;font-weight:normal;font-style:normal;font-size:10pt">2000</text>
<text x="18.555" y="-447.54" transform="scale(1, -1)"
	style="font-family:Helvetica;font-weight:normal;font-style:normal;font-size:10pt">3000</text>
<text x="18.555" y="-583.58" transform="scale(1, -1)"
	style="font-family:Helvetica;font-weight:normal;font-style:normal;font-size:10pt">4000</text>
<path d="M49.83,180.82L59.83,180.82" style="fill:none;stroke:#000000;stroke-width:0.625" />
<path d="M49.83,316.86L59.83,316.86" style="fill:none;stroke:#000000;stroke-width:0.625" />
<path d="M49.83,452.9L59.83,452.9" style="fill:none;stroke:#000000;stroke-width:0.625" />
<path d="M49.83,588.94L59.83,588.94" style="fill:none;stroke:#000000;stroke-width:0.625" />
<path d="M54.83,112.8L59.83,112.8" style="fill:none;stroke:#000000;stroke-width:0.625" />
<path d="M54.83,248.84L59.83,248.84" style="fill:none;stroke:#000000;stroke-width:0.625" />
<path d="M54.83,384.88L59.83,384.88" style="fill:none;stroke:#000000;stroke-width:0.625" />
<path d="M54.83,520.92L59.83,520.92" style="fill:none;stroke:#000000;stroke-width:0.625" />
<path d="M54.83,656.97L59.83,656.97" style="fill:none;stroke:#000000;stroke-width:0.625" />
<path d="M59.83,47.03L59.83,701.44" style="fill:none;stroke:#000000;stroke-width:0.625" />
<path d="M67.088,47.03L67.401,52.434L67.714,54.843L68.027,57.375L68.34,58.189L68.654,60.699L68.967,63.298L69.28,62.388L69.593,65.04L69.906,68.08L70.22,70.946L70.533,73.648L70.846,76.499L71.159,78.593L71.472,73.717L71.786,76.559L72.099,79.764L72.412,82.025L72.725,84.3L73.038,87.048L73.352,90.194L73.665,92.506L73.978,95.335L74.291,98.856L74.604,101.5L74.918,103.29L75.231,105.89L75.544,108.71L75.857,111.14L76.171,98.879L76.484,101.08L76.797,103.4L77.11,105.98L77.423,108.72L77.737,109.98L78.05,112.94L78.363,115.82L78.676,117.86L78.989,120.74L79.303,123.4L79.616,125.91L79.929,128.56L80.242,131.57L80.555,133.13L80.869,135.92L81.182,137.99L81.495,140.6L81.808,142.5L82.121,145.42L82.435,147.45L82.748,150.6L83.061,153.02L83.374,156.04L83.687,157.92L84.001,160.62L84.314,162.93L84.627,164.81L84.94,168.26L85.254,139.65L85.567,143.29L85.88,145.24L86.193,148.83L86.506,149.52L86.82,153.05L87.133,155.12L87.446,157.32L87.759,161.07L88.072,161.58L88.386,166.02L88.699,167.47L89.012,169.99L89.325,174.02L89.638,174.63L89.952,177.54L90.265,180.94L90.578,181.52L90.891,185.87L91.204,187.61L91.518,188.44L91.831,192.43L92.144,195.32L92.457,196.22L92.771,200.92L93.084,203.38L93.397,204.28L93.71,208.55L94.023,211.01L94.337,211.88L94.65,214.65L94.963,217.25L95.276,219.23L95.589,221.94L95.903,224.55L96.216,227.37L96.529,230.09L96.842,230.6L97.155,233.92L97.469,236.87L97.782,239.65L98.095,240.93L98.408,243.83L98.721,246.69L99.035,248.64L99.348,249.38L99.661,254.24L99.974,256.64L100.29,257.89L100.6,258.78L100.91,261.63L101.23,266.9L101.54,267.57L101.85,268.55L102.17,271.08L102.48,276.28L102.79,277.43L103.11,278.12L103.42,221.07L103.73,225.04L104.05,228.24L104.36,229.15L104.67,231.98L104.99,232.94L105.3,238.74L105.61,239.89L105.93,241.91L106.24,243.4L106.55,245.97L106.86,250.62L107.18,251.47L107.49,254.75L107.8,255.49L108.12,256.92L108.43,262.25L108.74,263.26L109.06,265.28L109.37,266.74L109.68,267.38L110,270.55L110.31,273.8L110.62,274.4L110.94,276.72L111.25,277.65L111.56,278.38L111.88,281.49L112.19,283.64L112.5,286.18L112.82,288.97L113.13,289.66L113.44,290.58L113.76,291.45L114.07,295.14L114.38,300.85L114.7,301.54L115.01,302.48L115.32,303.62L115.63,305.96L115.95,310.46L116.26,314.33L116.57,315.46L116.89,316.18L117.2,319.21L117.51,320.2L117.83,323.91L118.14,328.3L118.45,328.88L118.77,329.67L119.08,331.13L119.39,334.12L119.71,334.8L120.02,338.11L120.33,342.83L120.65,343.88L120.96,344.72L121.27,347.78L121.59,348.21L121.9,348.83L122.21,357.89L122.53,358.48L122.84,359.04L123.15,359.63L123.46,360.96L123.78,363.8L124.09,374.48L124.4,375.21L124.72,375.8L125.03,394.5L125.34,428.42L125.66,469.16L125.97,493.63L126.28,509.78L126.6,535.31L126.91,556.1L127.22,564.02L127.54,564.02L127.85,564.29L128.16,564.29L128.48,564.29L128.79,564.29L129.1,564.29L129.42,564.29L129.73,564.29L130.04,564.29L130.36,564.77L130.67,568.32L130.98,571.82L131.3,572.47L131.61,572.47L131.92,572.47L132.23,572.47L132.55,572.47L132.86,583.88L133.17,623.13L133.49,624.06L133.8,625.36L134.11,625.38L134.43,625.38L134.74,626.24L135.05,626.24L135.37,626.24L135.68,626.24L135.99,626.24L136.31,627.11L136.62,627.11L136.93,627.11L137.25,627.98L137.56,627.98L137.87,627.98L138.19,627.98L138.5,628.42L138.81,628.42L139.13,630.16L139.44,635.97L139.75,637.13L140.06,637.13L140.38,637.13L140.69,637.13L141,637.13L141.32,637.42L141.63,642.18L141.94,646.96L142.26,651.76L142.57,655.77L142.88,660.45L143.2,662.17L143.51,662.17L143.82,662.17L144.14,662.18L144.45,662.18L144.76,662.18L145.08,662.18L145.39,662.18L145.7,662.19L146.02,662.19L146.33,662.19L146.64,662.19L146.96,662.19L147.27,662.19L147.58,662.19L147.89,662.19L148.21,662.19L148.52,662.19L148.83,662.19L149.15,662.19L149.46,662.19L149.77,662.19L150.09,662.19L150.4,662.19L150.71,662.19L151.03,662.19L151.34,662.19L151.65,662.19L151.97,662.2L152.28,662.2L152.59,662.2L152.91,662.2L153.22,662.2L153.53,662.2L153.85,662.2L154.16,662.2L154.47,662.2L154.79,662.2L155.1,662.2L155.41,662.2L155.73,662.2L156.04,662.2L156.35,662.21L156.66,662.21L156.98,662.21L157.29,662.21L157.6,662.21L157.92,662.21L158.23,662.21L158.54,662.21L158.86,662.21L159.17,662.21L159.48,662.21L159.8,662.59L160.11,662.59L160.42,662.59L160.74,662.59L161.05,662.59L161.36,662.59L161.68,662.59L161.99,662.59L162.3,662.59L162.62,662.59L162.93,662.59L163.24,662.59L163.56,662.59L163.87,662.59L164.18,662.59L164.49,662.59L164.81,662.59L165.12,662.59L165.43,662.59L165.75,662.59L166.06,662.59L166.37,662.59L166.69,662.59L167,662.59L167.31,662.59L167.63,662.63L167.94,662.63L168.25,662.63L168.57,662.63L168.88,662.63L169.19,662.63L169.51,662.63L169.82,662.63L170.13,662.63L170.45,662.63L170.76,662.63L171.07,662.63L171.39,662.63L171.7,662.63L172.01,662.63L172.33,662.63L172.64,662.63L172.95,662.63L173.26,662.63L173.58,662.63L173.89,662.63L174.2,662.8L174.52,662.8L174.83,662.8L175.14,662.8L175.46,662.8L175.77,662.8L176.08,662.8L176.4,662.8L176.71,662.8L177.02,662.8L177.34,662.8L177.65,662.8L177.96,662.8L178.28,662.8L178.59,662.8L178.9,662.8L179.22,662.8L179.53,662.8L179.84,663.68L180.16,663.68L180.47,663.68L180.78,663.68L181.09,663.68L181.41,663.68L181.72,663.68L182.03,663.68L182.35,663.68L182.66,663.68L182.97,663.68L183.29,663.68L183.6,663.68L183.91,663.68L184.23,663.68L184.54,663.68L184.85,663.68L185.17,663.68L185.48,663.68L185.79,663.68L186.11,663.68L186.42,663.68L186.73,663.68L187.05,663.68L187.36,663.68L187.67,663.68L187.99,663.68L188.3,663.68L188.61,663.68L188.93,663.68L189.24,663.68L189.55,663.68L189.86,663.79L190.18,663.79L190.49,663.79L190.8,663.79L191.12,663.79L191.43,663.79L191.74,663.79L192.06,663.79L192.37,663.79L192.68,663.79L193,663.79L193.31,663.79L193.62,663.79L193.94,663.79L194.25,663.79L194.56,663.79L194.88,663.79L195.19,663.79L195.5,663.79L195.82,663.79L196.13,663.79L196.44,663.79L196.76,663.79L197.07,663.79L197.38,663.79L197.69,663.79L198.01,663.79L198.32,663.79L198.63,663.79L198.95,663.79L199.26,663.79L199.57,663.79L199.89,663.79L200.2,663.79L200.51,663.79L200.83,663.79L201.14,663.79L201.45,663.79L201.77,663.79L202.08,663.79L202.39,663.79L202.71,663.79L203.02,663.82L203.33,663.82L203.65,663.82L203.96,663.82L204.27,663.82L204.59,663.82L204.9,663.82L205.21,663.82L205.53,663.82L205.84,663.82L206.15,663.82L206.46,663.82L206.78,663.82L207.09,663.82L207.4,663.82L207.72,663.82L208.03,663.82L208.34,663.82L208.66,663.82L208.97,663.82L209.28,663.82L209.6,663.82L209.91,663.82L210.22,663.82L210.54,663.82L210.85,663.82L211.16,663.82L211.48,663.82L211.79,663.82L212.1,663.82L212.42,663.82L212.73,663.82L213.04,663.82L213.36,663.82L213.67,663.82L213.98,663.82L214.29,663.82L214.61,663.82L214.92,663.82L215.23,663.82L215.55,663.82L215.86,663.82L216.17,663.82L216.49,663.82L216.8,663.82L217.11,663.82L217.43,663.82L217.74,663.82L218.05,663.82L218.37,663.82L218.68,663.82L218.99,663.82L219.31,663.82L219.62,663.82L219.93,663.82L220.25,663.82L220.56,663.82L220.87,663.82L221.19,663.82L221.5,663.82L221.81,663.82L222.13,663.82L222.44,663.82L222.75,663.82L223.06,663.82L223.38,663.82L223.69,663.82L224,663.82L224.32,663.82L224.63,663.82L224.94,663.82L225.26,663.82L225.57,663.82L225.88,663.82L226.2,663.82L226.51,663.82L226.82,663.82L227.14,663.82L227.45,663.82L227.76,663.82L228.08,663.82L228.39,663.82L228.7,663.82L229.02,663.82L229.33,663.82L229.64,663.82L229.96,663.82L230.27,663.82L230.58,663.82L230.89,663.82L231.21,663.82L231.52,663.82L231.83,663.82L232.15,663.82L232.46,663.82L232.77,663.82L233.09,663.82L233.4,663.82L233.71,663.82L234.03,663.82L234.34,663.82L234.65,663.82L234.97,663.82L235.28,663.82L235.59,663.82L235.91,663.82L236.22,663.82L236.53,663.82L236.85,663.82L237.16,663.82L237.47,663.82L237.79,663.82L238.1,663.82L238.41,663.82L238.73,663.82L239.04,663.82L239.35,663.82L239.66,663.82L239.98,663.82L240.29,663.82L240.6,663.82L240.92,663.82L241.23,663.82L241.54,663.82L241.86,663.82L242.17,663.82L242.48,663.82L242.8,663.82L243.11,663.82L243.42,663.82L243.74,663.82L244.05,663.82L244.36,663.82L244.68,663.82L244.99,663.82L245.3,663.82L245.62,663.82L245.93,663.82L246.24,663.82L246.56,663.82L246.87,663.82L247.18,663.82L247.49,663.82L247.81,663.82L248.12,663.82L248.43,663.82L248.75,663.82L249.06,663.82L249.37,663.82L249.69,663.82L250,663.82L250.31,663.82L250.63,663.82L250.94,663.82L251.25,663.82L251.57,663.82L251.88,663.82L252.19,663.82L252.51,654.9L252.82,640.72L253.13,631.02L253.45,631.02L253.76,631.02L254.07,631.02L254.39,631.02L254.7,631.02L255.01,631.02L255.33,631.02L255.64,631.02L255.95,631.02L256.26,631.02L256.58,631.02L256.89,631.02L257.2,631.02L257.52,631.05L257.83,631.05L258.14,631.05L258.46,631.05L258.77,631.05L259.08,631.05L259.4,631.05L259.71,631.06L260.02,631.06L260.34,631.06L260.65,631.06L260.96,631.06L261.28,631.06L261.59,631.06L261.9,631.06L262.22,631.07L262.53,631.07L262.84,631.07L263.16,631.07L263.47,631.07L263.78,631.07L264.09,631.19L264.41,634.65L264.72,637.1L265.03,637.1L265.35,637.1L265.66,637.1L265.97,637.1L266.29,637.1L266.6,637.1L266.91,637.1L267.23,637.1L267.54,637.1L267.85,637.1L268.17,637.1L268.48,637.1L268.79,637.1L269.11,637.1L269.42,637.1L269.73,637.1L270.05,637.11L270.36,637.11L270.67,637.11L270.99,637.11L271.3,637.11L271.61,637.11L271.93,637.11L272.24,637.5L272.55,637.5L272.86,637.5L273.18,637.5L273.49,637.5L273.8,637.5L274.12,637.5L274.43,637.5L274.74,637.5L275.06,637.5L275.37,637.5L275.68,637.5L276,637.5L276.31,637.5L276.62,637.5L276.94,637.5L277.25,637.5L277.56,637.5L277.88,637.5L278.19,637.5L278.5,637.5L278.82,637.5L279.13,637.78L279.44,637.78L279.76,637.78L280.07,637.78L280.38,637.8L280.69,637.8L281.01,637.8L281.32,637.8L281.63,637.8L281.95,637.8L282.26,637.8L282.57,637.8L282.89,637.8L283.2,637.8L283.51,637.8L283.83,637.8L284.14,637.8L284.45,637.8L284.77,637.8L285.08,637.8L285.39,637.8L285.71,637.8L286.02,637.8L286.33,637.8L286.65,637.8L286.96,637.8L287.27,637.8L287.59,638.12L287.9,638.12L288.21,638.12L288.53,638.12L288.84,638.12L289.15,638.12L289.46,638.12L289.78,638.12L290.09,638.12L290.4,638.12L290.72,638.12L291.03,638.12L291.34,638.12L291.66,638.12L291.97,638.12L292.28,638.12L292.6,638.12L292.91,638.12L293.22,638.12L293.54,638.12L293.85,638.12L294.16,638.12L294.48,638.12L294.79,638.12L295.1,638.12L295.42,638.12L295.73,638.12L296.04,638.12L296.36,638.13L296.67,638.42L296.98,638.42L297.29,638.42L297.61,638.42L297.92,638.42L298.23,638.42L298.55,638.42L298.86,638.42L299.17,638.42L299.49,638.23L299.8,638.23L300.11,637.94L300.43,637.94L300.74,638.22L301.05,638.22L301.37,638.24L301.68,638.24L301.99,638.24L302.31,638.24L302.62,638.24L302.93,638.24L303.25,638.24L303.56,638.24L303.87,638.24L304.19,638.24L304.5,638.24L304.81,638.24L305.13,638.24L305.44,638.24L305.75,638.24L306.06,638.24L306.38,638.24L306.69,638.24L307,638.24L307.32,638.24L307.63,638.24L307.94,638.24L308.26,638.24L308.57,638.24L308.88,638.24L309.2,638.24L309.51,638.24L309.82,638.24L310.14,638.24L310.45,638.24L310.76,638.24L311.08,638.24L311.39,638.24L311.7,638.24L312.02,638.26L312.33,638.26L312.64,638.26L312.96,638.26L313.27,638.26L313.58,638.26L313.89,638.26L314.21,638.26L314.52,638.26L314.83,638.26L315.15,638.26L315.46,638.26L315.77,638.26L316.09,638.26L316.4,638.26L316.71,638.26L317.03,638.26L317.34,638.26L317.65,638.26L317.97,638.27L318.28,638.28L318.59,638.28L318.91,638.28L319.22,638.28L319.53,638.28L319.85,638.28L320.16,638.28L320.47,638.28L320.79,638.28L321.1,638.28L321.41,638.28L321.73,638.28L322.04,638.28L322.35,638.28L322.66,638.29L322.98,638.29L323.29,638.29L323.6,638.29L323.92,638.29L324.23,638.29L324.54,638.29L324.86,638.29L325.17,638.29L325.48,638.29L325.8,638.29L326.11,638.38L326.42,638.51L326.74,638.51L327.05,638.51L327.36,638.51L327.68,638.51L327.99,638.51L328.3,638.51L328.62,638.51L328.93,638.51L329.24,638.51L329.56,638.51L329.87,638.51L330.18,638.51L330.49,638.51L330.81,638.51L331.12,638.51L331.43,638.88L331.75,638.88L332.06,638.88L332.37,638.88L332.69,638.88L333,638.89L333.31,638.89L333.63,638.89L333.94,638.89L334.25,638.89L334.57,639.03L334.88,639.03L335.19,639.03L335.51,639.03L335.82,639.03L336.13,639.05L336.45,639.05L336.76,639.05L337.07,639.05L337.39,639.05L337.7,639.05L338.01,639.05L338.33,639.05L338.64,639.33L338.95,639.33L339.26,639.33L339.58,639.33L339.89,639.33L340.2,639.33L340.52,639.33L340.83,639.33L341.14,639.33L341.46,639.33L341.77,639.33L342.08,639.34L342.4,639.34L342.71,639.34L343.02,639.34L343.34,639.34L343.65,640.94L343.96,641.11L344.28,641.11L344.59,641.11L344.9,641.11L345.22,641.11L345.53,641.11L345.84,641.11L346.16,641.12L346.47,641.06L346.78,641.07L347.09,641.03L347.41,641.04L347.72,641.19L348.03,641.19L348.35,641.19L348.66,641.19L348.97,641.19L349.29,641.19L349.6,641.19L349.91,641.19L350.23,642.64L350.54,643L350.85,643L351.17,643L351.48,643L351.79,643L352.11,643L352.42,643L352.73,643L353.05,643L353.36,643L353.67,643L353.99,643L354.3,643.85L354.61,643.85L354.93,643.85L355.24,643.85L355.55,643.85L355.86,643.85L356.18,643.85L356.49,643.85L356.8,643.85L357.12,643.85L357.43,644.25L357.74,644.25L358.06,644.25L358.37,644.25L358.68,644.25L359,644.25L359.31,644.25L359.62,644.25L359.94,644.25L360.25,644.25L360.56,644.25L360.88,644.25L361.19,644.25L361.5,644.25L361.82,644.25L362.13,644.25L362.44,644.25L362.76,644.25L363.07,644.25L363.38,644.25L363.69,644.25L364.01,644.25L364.32,644.25L364.63,644.25L364.95,644.25L365.26,644.25L365.57,644.25L365.89,644.25L366.2,644.25L366.51,644.25L366.83,644.25L367.14,644.25L367.45,644.25L367.77,644.25L368.08,644.25L368.39,644.25L368.71,644.25L369.02,644.25L369.33,644.25L369.65,644.25L369.96,644.25L370.27,644.25L370.59,644.26L370.9,644.26L371.21,644.26L371.53,644.26L371.84,644.26L372.15,644.26L372.46,644.26L372.78,644.26L373.09,644.26L373.4,644.26L373.72,644.26L374.03,644.26L374.34,644.26L374.66,644.26L374.97,644.26L375.28,644.3L375.6,644.3L375.91,644.3L376.22,644.3L376.54,644.3L376.85,644.3L377.16,644.3L377.48,644.3L377.79,644.3L378.1,644.3L378.42,644.3L378.73,644.3L379.04,644.3L379.36,644.3L379.67,644.3L379.98,644.3L380.29,644.3L380.61,644.3L380.92,644.3L381.23,644.3L381.55,644.3L381.86,644.3L382.17,644.3L382.49,644.3L382.8,644.3L383.11,644.3L383.43,644.3L383.74,644.99L384.05,644.99L384.37,644.99L384.68,644.99L384.99,644.99L385.31,644.99L385.62,644.99L385.93,644.99L386.25,645L386.56,645L386.87,645L387.19,645.02L387.5,645.02L387.81,645.02L388.13,645.03L388.44,645.03L388.75,645.03L389.06,645.03L389.38,645.03L389.69,645.03L390,645.03L390.32,645.03L390.63,645.03L390.94,645.03L391.26,645.19L391.57,645.19L391.88,645.19L392.2,645.19L392.51,645.19L392.82,645.19L393.14,645.19L393.45,645.16L393.76,645.16L394.08,645.16L394.39,645.16L394.7,645.16L395.02,645.16L395.33,645.16L395.64,645.16L395.96,645.16L396.27,645.16L396.58,645.16L396.89,645.16L397.21,645.16L397.52,645.16L397.83,645.16L398.15,645.16L398.46,645.27L398.77,645.27L399.09,645.27L399.4,645.27L399.71,645.27L400.03,645.27L400.34,645.27L400.65,645.27L400.97,645.27L401.28,645.27L401.59,645.27L401.91,645.27L402.22,645.27L402.53,645.55L402.85,645.55L403.16,645.55L403.47,645.55L403.79,645.55L404.1,645.55L404.41,645.55L404.73,645.55L405.04,645.55L405.35,645.55L405.66,645.55L405.98,645.94L406.29,645.94L406.6,645.94L406.92,645.94L407.23,645.94L407.54,645.94L407.86,645.94L408.17,645.94L408.48,645.94L408.8,645.94L409.11,645.94L409.42,645.94L409.74,645.94L410.05,646.13L410.36,646.13L410.68,646.56L410.99,646.56L411.3,646.56L411.62,646.56L411.93,646.56L412.24,646.56L412.56,646.56L412.87,646.56L413.18,646.56L413.49,646.56L413.81,646.56L414.12,646.56L414.43,646.56L414.75,646.56L415.06,646.59L415.37,646.59L415.69,646.59L416,646.59L416.31,646.59L416.63,646.59L416.94,646.62L417.25,646.62L417.57,646.62L417.88,646.62L418.19,646.62L418.51,646.62L418.82,646.62L419.13,646.63L419.45,646.63L419.76,646.63L420.07,647.78L420.39,647.78L420.7,647.78L421.01,647.78L421.32,647.78L421.64,647.79L421.95,647.84L422.26,647.84L422.58,647.84L422.89,647.84L423.2,647.84L423.52,647.84L423.83,647.84L424.14,647.84L424.46,647.84L424.77,647.84L425.08,647.87L425.4,647.87L425.71,647.87L426.02,647.87L426.34,647.87L426.65,647.87L426.96,647.87L427.28,647.87L427.59,647.87L427.9,647.87L428.22,647.87L428.53,647.87L428.84,648.95L429.16,649.02L429.47,649.02L429.78,649.02L430.09,649.02L430.41,649.02L430.72,649.02L431.03,649.02L431.35,649.03L431.66,649.03L431.97,649.03L432.29,649.03L432.6,649.03L432.91,649.03L433.23,649.03L433.54,649.03L433.85,649.03L434.17,649.03L434.48,649.03L434.79,649.03L435.11,649.03L435.42,649.03L435.73,649.03L436.05,649.03L436.36,649.03L436.67,649.03L436.99,649.03L437.3,649.04L437.61,649.04L437.92,649.04L438.24,649.04L438.55,649.04L438.86,649.04L439.18,649.04L439.49,649.04L439.8,649.04L440.12,649.04L440.43,648.97L440.74,648.93L441.06,645.73L441.37,645.78L441.68,645.78L442,645.78L442.31,645.78L442.62,645.78L442.94,645.78L443.25,645.78L443.56,645.78L443.88,645.78L444.19,645.78L444.5,645.79L444.82,645.79L445.13,645.79L445.44,645.79L445.76,645.79L446.07,645.79L446.38,645.79L446.69,645.79L447.01,645.79L447.32,645.79L447.63,645.79L447.95,645.79L448.26,645.79L448.57,645.79L448.89,645.79L449.2,645.79L449.51,645.79L449.83,645.79L450.14,645.79L450.45,645.79L450.77,645.84L451.08,645.84L451.39,645.84L451.71,645.84L452.02,645.88L452.33,645.88L452.65,645.88L452.96,645.88L453.27,645.88L453.59,645.88L453.9,645.88L454.21,645.88L454.52,645.88L454.84,645.89L455.15,645.89L455.46,645.89L455.78,645.89L456.09,645.89L456.4,645.89L456.72,645.89L457.03,645.89L457.34,645.89L457.66,645.89L457.97,645.89L458.28,645.89L458.6,645.89L458.91,645.89L459.22,645.89L459.54,645.89L459.85,645.89L460.16,645.89L460.48,645.89L460.79,648.82L461.1,651.05L461.42,651.05L461.73,651.05L462.04,651.05L462.36,651.05L462.67,651.05L462.98,651.05L463.29,651.05L463.61,651.05L463.92,651.05L464.23,651.05L464.55,651.05L464.86,651.05L465.17,651.05L465.49,651.05L465.8,651.05L466.11,651.05L466.43,651.05L466.74,651.05L467.05,651.05L467.37,651.05L467.68,651.14L467.99,651.14L468.31,651.14L468.62,651.14L468.93,651.14L469.25,651.14L469.56,651.14L469.87,651.15L470.19,651.15L470.5,651.85L470.81,651.85L471.12,651.85L471.44,651.85L471.75,651.85L472.06,651.85L472.38,651.85L472.69,651.85L473,651.85L473.32,651.85L473.63,651.85L473.94,651.85L474.26,651.85L474.57,651.96L474.88,651.96L475.2,651.96L475.51,651.96L475.82,651.96L476.14,651.96L476.45,651.96L476.76,651.96L477.08,651.96L477.39,651.96L477.7,651.96L478.02,651.96L478.33,652.04L478.64,652.04L478.96,652.04L479.27,652.04L479.58,652.04L479.89,652.18L480.21,652.18L480.52,652.18L480.83,652.18L481.15,652.18L481.46,652.18L481.77,652.18L482.09,652.19L482.4,652.19L482.71,652.19L483.03,652.19L483.34,652.19L483.65,652.19L483.97,652.19L484.28,652.19L484.59,652.19L484.91,652.19L485.22,653.95L485.53,653.95L485.85,653.95L486.16,653.95L486.47,653.95L486.79,653.95L487.1,653.95L487.41,653.96L487.72,653.95L488.04,653.95L488.35,653.95L488.66,653.95L488.98,653.95L489.29,653.95L489.6,653.95L489.92,653.95L490.23,653.95L490.54,653.95L490.86,653.95L491.17,653.95L491.48,653.95L491.8,653.95L492.11,653.95L492.42,654.63L492.74,654.63L493.05,654.63L493.36,654.63L493.68,654.63L493.99,654.63L494.3,654.63L494.62,654.63L494.93,654.63L495.24,654.63L495.56,654.63L495.87,654.63L496.18,654.63L496.49,654.63L496.81,654.63L497.12,654.63L497.43,654.63L497.75,654.63L498.06,654.63L498.37,654.63L498.69,654.63L499,654.63L499.31,654.63L499.63,654.63L499.94,654.63L500.25,654.63L500.57,654.63L500.88,654.77L501.19,654.77L501.51,654.77L501.82,654.77L502.13,654.77L502.45,654.77L502.76,654.77L503.07,654.77L503.39,654.79L503.7,654.79L504.01,654.79L504.32,654.79L504.64,654.79L504.95,654.79L505.26,654.79L505.58,654.79L505.89,654.79L506.2,654.8L506.52,654.8L506.83,654.8L507.14,654.8L507.46,654.8L507.77,654.8L508.08,654.8L508.4,654.8L508.71,654.8L509.02,654.8L509.34,654.8L509.65,654.8L509.96,654.8L510.28,654.8L510.59,654.8L510.9,654.8L511.22,654.8L511.53,654.8L511.84,654.83L512.16,654.83L512.47,654.83L512.78,654.83L513.09,654.83L513.41,654.83L513.72,654.83L514.03,654.88L514.35,654.88L514.66,654.88L514.97,654.89L515.29,654.89L515.6,654.89L515.91,654.89L516.23,654.89L516.54,654.89L516.85,654.89L517.17,654.89L517.48,654.89L517.79,654.89L518.11,654.89L518.42,654.89L518.73,654.89L519.05,654.89L519.36,654.89L519.67,654.89L519.99,654.89L520.3,654.89L520.61,654.89L520.92,654.89L521.24,654.89L521.55,654.89L521.86,654.89L522.18,654.89L522.49,654.89L522.8,654.89L523.12,654.89L523.43,654.89L523.74,654.89L524.06,654.89L524.37,654.89L524.68,654.89L525,654.89L525.31,654.89L525.62,654.89L525.94,654.89L526.25,654.89L526.56,654.89L526.88,654.89L527.19,654.89L527.5,655.36L527.82,655.36L528.13,655.36L528.44,655.36L528.76,655.36L529.07,655.36L529.38,655.36L529.69,655.36L530.01,656.05L530.32,656.05L530.63,656.05L530.95,656.05L531.26,656.05L531.57,656.05L531.89,656.05L532.2,656.05L532.51,656.05L532.83,656.12L533.14,656.19L533.45,656.19L533.77,656.19L534.08,656.19L534.39,656.19L534.71,652.01L535.02,652.01L535.33,652.01L535.65,652.01L535.96,652.01L536.27,652.01L536.59,652.01L536.9,652.01L537.21,652.01L537.52,652.01L537.84,652.01L538.15,652.01L538.46,652.39L538.78,652.39L539.09,652.39L539.4,652.39L539.72,652.39L540.03,652.39L540.34,652.39L540.66,652.39L540.97,652.39L541.28,652.39L541.6,652.4L541.91,652.4L542.22,652.4L542.54,652.4L542.85,652.4L543.16,652.4L543.48,652.4L543.79,652.4L544.1,652.4L544.42,652.4L544.73,652.4L545.04,652.4L545.36,652.4L545.67,652.4L545.98,652.4L546.29,652.4L546.61,652.4L546.92,652.4L547.23,653.09L547.55,653.09L547.86,653.09L548.17,653.09L548.49,653.09L548.8,653.09L549.11,653.09L549.43,653.09L549.74,653.09L550.05,653.09L550.37,653.16L550.68,653.16L550.99,653.16L551.31,653.73L551.62,653.73L551.93,653.73L552.25,653.73L552.56,653.73L552.87,653.73L553.19,653.73L553.5,653.73L553.81,653.73L554.12,653.73L554.44,653.73L554.75,653.73L555.06,653.73L555.38,653.73L555.69,653.73L556,653.73L556.32,653.73L556.63,653.73L556.94,653.73L557.26,653.73L557.57,653.73L557.88,653.73L558.2,653.76L558.51,653.76L558.82,653.76L559.14,653.76L559.45,653.76L559.76,653.76L560.08,653.76L560.39,654.04L560.7,654.04L561.02,654.04L561.33,654.04L561.64,654.04L561.96,654.04L562.27,654.04L562.58,654.04L562.89,654.04L563.21,654.04L563.52,654.04L563.83,654.04L564.15,654.04L564.46,654.04L564.77,654.1L565.09,654.1L565.4,654.1L565.71,654.1L566.03,654.1L566.34,654.1L566.65,654.1L566.97,654.1L567.28,654.1L567.59,654.1L567.91,654.1L568.22,654.1L568.53,654.1L568.85,654.1L569.16,654.1L569.47,654.1L569.79,654.1L570.1,655.49L570.41,656.33L570.72,656.33L571.04,656.33L571.35,656.33L571.66,656.33L571.98,656.33L572.29,656.33L572.6,656.33L572.92,656.33L573.23,656.33L573.54,656.33L573.86,656.33L574.17,656.33L574.48,656.33L574.8,656.33L575.11,656.33L575.42,656.33L575.74,656.33L576.05,656.33L576.36,656.33L576.68,656.33L576.99,656.33L577.3,656.44L577.62,656.44L577.93,656.44L578.24,656.44L578.56,656.44L578.87,656.44L579.18,656.44L579.49,656.44L579.81,656.86L580.12,656.86L580.43,656.86L580.75,656.86L581.06,656.87L581.37,655.43L581.69,655.43L582,655.43L582.31,655.43L582.63,655.43L582.94,655.43L583.25,655.43L583.57,655.43L583.88,655.43L584.19,655.43L584.51,655.43L584.82,655.43L585.13,655.43L585.45,655.43L585.76,655.43L586.07,657.13L586.39,657.13L586.7,657.13L587.01,657.13L587.32,657.13L587.64,657.13L587.95,657.13L588.26,657.13L588.58,657.13L588.89,657.13L589.2,657.13L589.52,657.13L589.83,657.13L590.14,657.13L590.46,657.13L590.77,657.13L591.08,657.13L591.4,657.13L591.71,657.13L592.02,657.13L592.34,657.17L592.65,657.18L592.96,657.18L593.28,657.18L593.59,657.18L593.9,657.18L594.22,657.18L594.53,657.18L594.84,657.18L595.16,657.18L595.47,657.18L595.78,657.18L596.09,657.18L596.41,657.18L596.72,657.18L597.03,657.18L597.35,657.18L597.66,657.85L597.97,657.85L598.29,657.85L598.6,657.85L598.91,657.85L599.23,657.85L599.54,657.85L599.85,657.85L600.17,657.85L600.48,657.85L600.79,657.85L601.11,657.85L601.42,657.85L601.73,657.85L602.05,657.85L602.36,657.85L602.67,657.85L602.99,657.85L603.3,657.85L603.61,657.85L603.92,657.85L604.24,657.85L604.55,657.85L604.86,657.85L605.18,657.85L605.49,657.85L605.8,657.85L606.12,657.85L606.43,657.85L606.74,657.85L607.06,657.85L607.37,657.85L607.68,657.85L608,657.85L608.31,657.85L608.62,657.85L608.94,657.85L609.25,657.85L609.56,657.85L609.88,657.85L610.19,657.85L610.5,657.85L610.82,657.85L611.13,657.85L611.44,657.85L611.76,657.85L612.07,657.85L612.38,657.85L612.69,657.85L613.01,657.85L613.32,657.85L613.63,657.85L613.95,657.85L614.26,657.85L614.57,657.85L614.89,657.85L615.2,659.54L615.51,662.39L615.83,663.99L616.14,663.99L616.45,663.99L616.77,663.99L617.08,663.99L617.39,663.99L617.71,663.99L618.02,663.99L618.33,663.99L618.65,663.99L618.96,663.99L619.27,663.99L619.59,664.07L619.9,664.07L620.21,664.07L620.52,664.07L620.84,664.07L621.15,664.07L621.46,664.07L621.78,664.07L622.09,664.07L622.4,664.07L622.72,664.07L623.03,664.07L623.34,664.07L623.66,664.07L623.97,664.07L624.28,664.07L624.6,664.07L624.91,664.07L625.22,664.07L625.54,664.07L625.85,664.07L626.16,664.07L626.48,664.07L626.79,664.07L627.1,664.07L627.42,664.07L627.73,664.07L628.04,664.07L628.36,664.07L628.67,664.06L628.98,663.38L629.29,663.32L629.61,663.32L629.92,663.83L630.23,663.83L630.55,663.83L630.86,663.83L631.17,663.83L631.49,663.83L631.8,663.83L632.11,663.83L632.43,663.83L632.74,663.84L633.05,663.84L633.37,663.84L633.68,663.84L633.99,663.84L634.31,663.84L634.62,663.84L634.93,663.84L635.25,663.84L635.56,663.84L635.87,663.84L636.19,663.84L636.5,663.84L636.81,663.84L637.12,663.84L637.44,663.84L637.75,663.84L638.06,663.84L638.38,663.84L638.69,663.84L639,663.84L639.32,663.84L639.63,663.84L639.94,663.84L640.26,663.84L640.57,663.84L640.88,663.84L641.2,663.84L641.51,663.84L641.82,663.84L642.14,663.84L642.45,663.84L642.76,663.84L643.08,663.84L643.39,663.84L643.7,663.84L644.02,663.84L644.33,663.84L644.64,663.84L644.96,663.84L645.27,663.84L645.58,663.84L645.89,663.84L646.21,663.84L646.52,663.84L646.83,663.84L647.15,663.84L647.46,663.84L647.77,663.84L648.09,663.84L648.4,663.84L648.71,663.84L649.03,663.85L649.34,663.86L649.65,663.86L649.97,663.86L650.28,664.4L650.59,664.4L650.91,664.4L651.22,664.4L651.53,664.4L651.85,664.4L652.16,664.4L652.47,664.4L652.79,664.4L653.1,664.4L653.41,664.4L653.72,665.55L654.04,665.55L654.35,665.55L654.66,665.55L654.98,665.55L655.29,665.55L655.6,665.55L655.92,665.55L656.23,665.55L656.54,665.55L656.86,665.55L657.17,665.55L657.48,665.55L657.8,665.55L658.11,666.34L658.42,666.34L658.74,666.34L659.05,666.34L659.36,666.34L659.68,666.34L659.99,666.34L660.3,666.34L660.62,666.34L660.93,666.34L661.24,666.34L661.56,666.34L661.87,666.34L662.18,666.34L662.49,666.34L662.81,666.34L663.12,666.34L663.43,666.34L663.75,666.34L664.06,666.34L664.37,666.34L664.69,666.34L665,666.34L665.31,666.34L665.63,666.34L665.94,666.34L666.25,666.34L666.57,666.34L666.88,666.34L667.19,666.41L667.51,666.55L667.82,666.55L668.13,666.55L668.45,666.55L668.76,666.55L669.07,667.8L669.39,667.8L669.7,667.8L670.01,667.8L670.32,667.8L670.64,667.8L670.95,667.8L671.26,667.8L671.58,667.8L671.89,667.8L672.2,667.8L672.52,667.8L672.83,667.8L673.14,667.8L673.46,667.8L673.77,667.8L674.08,667.8L674.4,667.8L674.71,667.8L675.02,667.8L675.34,667.8L675.65,667.64L675.96,665.9L676.28,665.9L676.59,665.9L676.9,666.2L677.22,668.72L677.53,671L677.84,671L678.15,671L678.47,671L678.78,671L679.09,671L679.41,671L679.72,671L680.03,671L680.35,671L680.66,671L680.97,671L681.29,671L681.6,671L681.91,671L682.23,671L682.54,671L682.85,671L683.17,671L683.48,671L683.79,671L684.11,671L684.42,671L684.73,671L685.05,671L685.36,674.03L685.67,675.7L685.99,675.7L686.3,675.7L686.61,675.7L686.92,675.7L687.24,675.7L687.55,675.7L687.86,675.7L688.18,675.7L688.49,675.7L688.8,675.7L689.12,675.7L689.43,675.7L689.74,675.7L690.06,675.7L690.37,675.7L690.68,675.7L691,675.7L691.31,675.7L691.62,675.7L691.94,675.7L692.25,675.7L692.56,675.7L692.88,675.7L693.19,675.7L693.5,675.7L693.82,675.7L694.13,675.7L694.44,675.7L694.75,675.7L695.07,675.7L695.38,675.7L695.69,675.7L696.01,675.7L696.32,675.7L696.63,675.7L696.95,675.7L697.26,675.7L697.57,675.7L697.89,675.7L698.2,675.7L698.51,675.7L698.83,675.7L699.14,675.7L699.45,675.7L699.77,675.7L700.08,675.7L700.39,675.7L700.71,675.7L701.02,675.7L701.33,675.7L701.65,675.7L701.96,675.7L702.27,675.7L702.59,675.7L702.9,675.7L703.21,675.7L703.52,675.7L703.84,675.7L704.15,675.7L704.46,675.7L704.78,675.7L705.09,675.7L705.4,675.7L705.72,675.7L706.03,675.7L706.34,675.7L706.66,675.7L706.97,675.7L707.28,675.7L707.6,675.7L707.91,675.7L708.22,675.7L708.54,675.7L708.85,675.7L709.16,675.7L709.48,675.7L709.79,675.7L710.1,675.7L710.42,675.7L710.73,676.11L711.04,676.11L711.35,676.96L711.67,676.96L711.98,676.96L712.29,676.96L712.61,676.96L712.92,676.96L713.23,676.96L713.55,676.96L713.86,676.96L714.17,676.96L714.49,676.96L714.8,676.96L715.11,677.35L715.43,677.82L715.74,677.82L716.05,677.82L716.37,677.82L716.68,677.82L716.99,677.82L717.31,677.82L717.62,677.82L717.93,677.82L718.25,677.82L718.56,677.82L718.87,677.82L719.19,677.82L719.5,677.82L719.81,677.82L720.12,677.82L720.44,677.82L720.75,677.82L721.06,677.82L721.38,677.82L721.69,677.82L722,677.82L722.32,676.92L722.63,676.92L722.94,676.92L723.26,676.92L723.57,676.92L723.88,676.92L724.2,676.92L724.51,676.92L724.82,676.92L725.14,676.94L725.45,676.95L725.76,676.95L726.08,677.05L726.39,677.05L726.7,677.8L727.02,677.8L727.33,677.8L727.64,677.8L727.95,677.8L728.27,677.8L728.58,677.8L728.89,677.8L729.21,677.8L729.52,677.8L729.83,677.8L730.15,677.8L730.46,677.8L730.77,677.8L731.09,677.8L731.4,677.8L731.71,677.8L732.03,677.8L732.34,677.8L732.65,677.8L732.97,677.8L733.28,677.8L733.59,677.8L733.91,677.8L734.22,677.8L734.53,677.8L734.85,677.8L735.16,677.8L735.47,677.8L735.79,677.8L736.1,677.8L736.41,677.8L736.72,677.8L737.04,677.8L737.35,677.8L737.66,677.8L737.98,677.8L738.29,677.8L738.6,677.8L738.92,677.8L739.23,677.8L739.54,677.8L739.86,677.8L740.17,679.04L740.48,679.21L740.8,679.23L741.11,679.23L741.42,679.23L741.74,679.23L742.05,679.23L742.36,679.23L742.68,679.23L742.99,679.23L743.3,679.23L743.62,679.23L743.93,679.23L744.24,679.23L744.55,679.23L744.87,679.23L745.18,679.23L745.49,679.23L745.81,679.23L746.12,679.23L746.43,679.23L746.75,679.23L747.06,679.23L747.37,679.23L747.69,679.23L748,679.23L748.31,679.23L748.63,679.23L748.94,679.23L749.25,679.23L749.57,679.23L749.88,679.23L750.19,679.23L750.51,679.23L750.82,679.23L751.13,679.23L751.45,679.23L751.76,679.23L752.07,679.23L752.39,679.23L752.7,679.23L753.01,679.23L753.32,679.23L753.64,679.23L753.95,679.23L754.26,679.23L754.58,679.23L754.89,679.23L755.2,679.23L755.52,679.23L755.83,679.23L756.14,679.23L756.46,679.23L756.77,679.23L757.08,679.23L757.4,679.23L757.71,679.23L758.02,679.23L758.34,679.23L758.65,679.23L758.96,679.23L759.28,679.23L759.59,679.23L759.9,679.23L760.22,679.23L760.53,679.23L760.84,679.23L761.15,679.23L761.47,679.23L761.78,679.23L762.09,679.23L762.41,679.23L762.72,679.23L763.03,679.23L763.35,679.23L763.66,679.23L763.97,679.23L764.29,679.23L764.6,679.23L764.91,679.23L765.23,679.23L765.54,679.23L765.85,679.23L766.17,679.23L766.48,679.23L766.79,679.23L767.11,679.23L767.42,679.23L767.73,679.23L768.05,679.23L768.36,679.23L768.67,679.23L768.99,679.23L769.3,679.23L769.61,679.23L769.92,679.23L770.24,679.23L770.55,679.23L770.86,679.23L771.18,679.23L771.49,679.23L771.8,679.23L772.12,679.23L772.43,679.23L772.74,679.23L773.06,679.23L773.37,679.23L773.68,679.23L774,679.23L774.31,679.23L774.62,679.23L774.94,679.23L775.25,679.23L775.56,679.23L775.88,679.23L776.19,679.23L776.5,679.23L776.82,679.23L777.13,679.23L777.44,679.23L777.75,679.23L778.07,679.23L778.38,679.23L778.69,679.23L779.01,679.23L779.32,679.23L779.63,679.23L779.95,679.23L780.26,679.23L780.57,679.23L780.89,679.23L781.2,679.23L781.51,679.23L781.83,679.23L782.14,679.23L782.45,679.23L782.77,679.23L783.08,679.23L783.39,679.23L783.71,679.23L784.02,679.23L784.33,679.23L784.65,679.23L784.96,679.23L785.27,679.23L785.59,679.23L785.9,679.23L786.21,679.23L786.52,679.23L786.84,679.23L787.15,679.23L787.46,679.23L787.78,679.23L788.09,679.23L788.4,681.16L788.72,681.2L789.03,681.2L789.34,681.2L789.66,681.2L789.97,681.2L790.28,681.2L790.6,681.2L790.91,681.2L791.22,681.2L791.54,681.2L791.85,681.2L792.16,681.2L792.48,681.2L792.79,681.2L793.1,681.2L793.42,681.2L793.73,681.2L794.04,681.2L794.35,681.2L794.67,681.2L794.98,681.2L795.29,681.2L795.61,681.49L795.92,681.49L796.23,681.49L796.55,681.59L796.86,681.59L797.17,681.59L797.49,681.59L797.8,681.59L798.11,681.59L798.43,681.59L798.74,681.59L799.05,681.59L799.37,681.59L799.68,681.59L799.99,681.59L800.31,681.59L800.62,681.59L800.93,681.59L801.25,681.59L801.56,681.59L801.87,681.59L802.19,681.59L802.5,681.59L802.81,681.59L803.12,681.59L803.44,681.59L803.75,681.59L804.06,681.59L804.38,681.59L804.69,681.59L805,681.59L805.32,681.59L805.63,681.59L805.94,682.58L806.26,682.58L806.57,682.58L806.88,682.58L807.2,682.58L807.51,682.58L807.82,682.58L808.14,682.58L808.45,682.58L808.76,682.58L809.08,682.58L809.39,682.58L809.7,682.58L810.02,682.58L810.33,682.58L810.64,682.58L810.95,682.58L811.27,682.58L811.58,682.58L811.89,682.58L812.21,682.58L812.52,682.58L812.83,682.58L813.15,682.58L813.46,682.58L813.77,682.58L814.09,682.58L814.4,682.58L814.71,682.58L815.03,682.58L815.34,682.58L815.65,682.58L815.97,682.58L816.28,682.58L816.59,682.58L816.91,682.58L817.22,682.58L817.53,682.58L817.85,682.58L818.16,682.58L818.47,682.58L818.79,682.58L819.1,682.58L819.41,684.78L819.72,684.79L820.04,684.79L820.35,684.79L820.66,684.79L820.98,684.79L821.29,684.79L821.6,684.79L821.92,684.79L822.23,685.23L822.54,685.23L822.86,685.23L823.17,685.23L823.48,685.23L823.8,685.23L824.11,685.23L824.42,685.23L824.74,685.23L825.05,685.23L825.36,685.23L825.68,685.23L825.99,685.23L826.3,685.23L826.62,685.23L826.93,685.23L827.24,685.23L827.55,685.23L827.87,685.23L828.18,685.23L828.49,685.23L828.81,685.23L829.12,685.23L829.43,685.28L829.75,685.28L830.06,685.28L830.37,685.28L830.69,685.28L831,685.28L831.31,685.28L831.63,685.28L831.94,685.28L832.25,685.28L832.57,685.28L832.88,685.28L833.19,685.28L833.51,685.28L833.82,685.28L834.13,685.28L834.45,685.28L834.76,685.28L835.07,685.28L835.39,685.28L835.7,685.28L836.01,685.28L836.32,685.28L836.64,685.28L836.95,685.28L837.26,685.28L837.58,685.28L837.89,685.28L838.2,685.28L838.52,685.28L838.83,685.28L839.14,685.28L839.46,685.28L839.77,685.28L840.08,685.28L840.4,685.28L840.71,685.28L841.02,685.28L841.34,685.28L841.65,685.28L841.96,685.28L842.28,685.28L842.59,685.28L842.9,685.28L843.22,685.28L843.53,685.28L843.84,685.28L844.15,685.28L844.47,685.28L844.78,685.28L845.09,685.28L845.41,685.28L845.72,685.28L846.03,685.28L846.35,685.28L846.66,685.4L846.97,685.4L847.29,685.4L847.6,685.4L847.91,685.4L848.23,685.4L848.54,685.4L848.85,685.4L849.17,685.4L849.48,685.4L849.79,685.4L850.11,685.4L850.42,685.4L850.73,685.4L851.05,686.4L851.36,686.4L851.67,686.4L851.99,686.4L852.3,686.4L852.61,686.4L852.92,686.4L853.24,686.4L853.55,686.4L853.86,686.4L854.18,686.4L854.49,686.4L854.8,686.4L855.12,687.15L855.43,687.56L855.74,687.56L856.06,687.56L856.37,687.56L856.68,687.56L857,687.56L857.31,687.56L857.62,687.56L857.94,687.56L858.25,687.56L858.56,687.56L858.88,687.56L859.19,687.56L859.5,687.56L859.82,687.56L860.13,687.56L860.44,687.56L860.75,687.56L861.07,687.56L861.38,687.56L861.69,687.56L862.01,687.56L862.32,687.56L862.63,687.56L862.95,687.56L863.26,684.61L863.57,684.61L863.89,684.61L864.2,684.61L864.51,684.61L864.83,684.61L865.14,684.61L865.45,684.61L865.77,684.61L866.08,684.61L866.39,684.61L866.71,684.61L867.02,684.61L867.33,684.61L867.65,684.61L867.96,685.18L868.27,685.18L868.59,685.18L868.9,685.18L869.21,685.18L869.52,685.18L869.84,685.18L870.15,685.18L870.46,685.18L870.78,685.18L871.09,685.39L871.4,687.95L871.72,688.03L872.03,688.03L872.34,688.03L872.66,688.49L872.97,688.49L873.28,688.49L873.6,688.49L873.91,688.49L874.22,688.49L874.54,688.49L874.85,688.49L875.16,688.49L875.48,688.49L875.79,688.49L876.1,688.49L876.42,688.49L876.73,688.49L877.04,688.59L877.35,688.59L877.67,688.59L877.98,689.17L878.29,690.52L878.61,690.52L878.92,690.52L879.23,690.52L879.55,690.52L879.86,690.52L880.17,690.52L880.49,690.52L880.8,690.52L881.11,690.52L881.43,690.52L881.74,690.97L882.05,690.97L882.37,690.97L882.68,690.97L882.99,690.97L883.31,690.97L883.62,690.97L883.93,690.97L884.25,690.97L884.56,690.97L884.87,690.97L885.19,690.97L885.5,690.97L885.81,690.97L886.12,690.97L886.44,690.97L886.75,690.97L887.06,690.97L887.38,690.97L887.69,690.97L888,690.97L888.32,690.97L888.63,690.97L888.94,690.97L889.26,690.97L889.57,690.97L889.88,690.97L890.2,690.97L890.51,690.97L890.82,690.97L891.14,690.97L891.45,690.97L891.76,690.97L892.08,690.97L892.39,690.97L892.7,691.77L893.02,691.9L893.33,691.9L893.64,691.9L893.95,691.9L894.27,691.9L894.58,691.9L894.89,691.9L895.21,691.9L895.52,691.9L895.83,691.9L896.15,691.9L896.46,691.9L896.77,691.9L897.09,691.9L897.4,691.9L897.71,691.9L898.03,691.9L898.34,691.9L898.65,691.9L898.97,691.9L899.28,691.9L899.59,691.9L899.91,691.9L900.22,691.9L900.53,691.9L900.85,691.9L901.16,691.9L901.47,691.9L901.79,691.9L902.1,691.9L902.41,691.9L902.72,691.9L903.04,691.9L903.35,691.9L903.66,691.9L903.98,691.9L904.29,691.9L904.6,691.9L904.92,691.9L905.23,691.9L905.54,691.9L905.86,691.9L906.17,691.9L906.48,691.9L906.8,691.9L907.11,691.9L907.42,691.9L907.74,691.9L908.05,691.9L908.36,691.9L908.68,691.9L908.99,691.9L909.3,691.9L909.62,691.9L909.93,691.9L910.24,691.9L910.55,691.9L910.87,691.9L911.18,691.9L911.49,691.9L911.81,691.9L912.12,691.9L912.43,691.9L912.75,691.9L913.06,691.9L913.37,691.9L913.69,691.9L914,691.9L914.31,691.9L914.63,691.9L914.94,691.9L915.25,691.9L915.57,691.9L915.88,691.9L916.19,691.9L916.51,691.9L916.82,691.9L917.13,691.93L917.45,691.93L917.76,691.93L918.07,691.93L918.39,691.98L918.7,691.98L919.01,691.98L919.32,691.98L919.64,691.98L919.95,691.98L920.26,691.98L920.58,691.98L920.89,691.98L921.2,691.98L921.52,691.98L921.83,691.98L922.14,691.98L922.46,691.98L922.77,691.98L923.08,691.98L923.4,691.98L923.71,691.98L924.02,691.98L924.34,692.07L924.65,693.05L924.96,693.05L925.28,693.05L925.59,693.05L925.9,693.05L926.22,693.05L926.53,693.05L926.84,693.05L927.15,693.05L927.47,693.05L927.78,693.05L928.09,693.05L928.41,693.05L928.72,693.05L929.03,693.05L929.35,694.53L929.66,694.53L929.97,694.53L930.29,694.53L930.6,694.53L930.91,694.53L931.23,694.53L931.54,694.53L931.85,694.53L932.17,694.53L932.48,694.53L932.79,694.53L933.11,694.53L933.42,694.53L933.73,694.53L934.05,694.53L934.36,694.53L934.67,694.53L934.99,694.53L935.3,694.53L935.61,694.53L935.92,694.53L936.24,694.53L936.55,694.53L936.86,694.53L937.18,694.53L937.49,694.53L937.8,694.53L938.12,694.53L938.43,694.53L938.74,694.53L939.06,694.53L939.37,694.53L939.68,694.53L940,694.53L940.31,694.53L940.62,694.53L940.94,694.53L941.25,694.53L941.56,694.53L941.88,694.53L942.19,694.53L942.5,694.53L942.82,694.53L943.13,694.53L943.44,694.53L943.75,694.53L944.07,694.53L944.38,694.53L944.69,694.53L945.01,694.53L945.32,694.53L945.63,694.53L945.95,694.53L946.26,694.53L946.57,694.53L946.89,694.53L947.2,694.53L947.51,694.53L947.83,694.53L948.14,694.53L948.45,694.53L948.77,694.53L949.08,694.53L949.39,694.53L949.71,694.53L950.02,694.53L950.33,694.53L950.65,694.53L950.96,694.53L951.27,694.53L951.58,694.53L951.9,694.53L952.21,694.53L952.52,694.53L952.84,694.53L953.15,694.53L953.46,694.53L953.78,694.53L954.09,694.53L954.4,694.53L954.72,694.53L955.03,694.53L955.34,694.53L955.66,694.53L955.97,694.53L956.28,694.53L956.6,694.53L956.91,694.53L957.22,694.53L957.54,694.53L957.85,694.53L958.16,694.53L958.48,694.53L958.79,694.53L959.1,694.53L959.42,694.64L959.73,694.64L960.04,694.9L960.35,694.9L960.67,694.9L960.98,694.9L961.29,694.9L961.61,694.9L961.92,694.9L962.23,694.9L962.55,694.9L962.86,694.9L963.17,694.9L963.49,694.9L963.8,694.9L964.11,694.9L964.43,694.9L964.74,696.15L965.05,696.15L965.37,696.15L965.68,696.15L965.99,696.15L966.31,696.15L966.62,696.15L966.93,696.15L967.25,696.15L967.56,696.15L967.87,696.15L968.18,696.15L968.5,696.15L968.81,696.15L969.12,696.15L969.44,696.15L969.75,696.15L970.06,696.15L970.38,696.15L970.69,696.15L971,696.15L971.32,696.15L971.63,696.15L971.94,696.15L972.26,696.15L972.57,696.15L972.88,696.15L973.2,696.15L973.51,696.15L973.82,696.15L974.14,696.15L974.45,696.15L974.76,696.15L975.08,696.15L975.39,696.15L975.7,697.69L976.02,698.17L976.33,698.17L976.64,698.17L976.95,698.17L977.27,698.17L977.58,698.17L977.89,698.17L978.21,698.17L978.52,698.17L978.83,698.17L979.15,698.17L979.46,698.17L979.77,698.17L980.09,698.17L980.4,698.17L980.71,698.17L981.03,698.17L981.34,698.17L981.65,698.17L981.97,698.17L982.28,698.17L982.59,698.17L982.91,698.17L983.22,698.17L983.53,698.17L983.85,698.17L984.16,698.17L984.47,698.17L984.78,698.17L985.1,698.17L985.41,698.17L985.72,698.17L986.04,698.17L986.35,698.17L986.66,698.17L986.98,698.17L987.29,698.17L987.6,698.17L987.92,698.17L988.23,698.17L988.54,698.17L988.86,698.17L989.17,698.17L989.48,698.17L989.8,698.17L990.11,698.17L990.42,698.17L990.74,698.17L991.05,698.17L991.36,698.17L991.68,698.17L991.99,698.17L992.3,698.17L992.62,698.17L992.93,698.17L993.24,698.17L993.55,698.17L993.87,698.17L994.18,698.72L994.49,698.72L994.81,698.72L995.12,698.72L995.43,698.72L995.75,698.72L996.06,698.72L996.37,698.72L996.69,698.72L997,698.72L997.31,698.72L997.63,698.72L997.94,698.72L998.25,698.72L998.57,698.72L998.88,698.72L999.19,698.72L999.51,698.72L999.82,698.72L1000.1,698.72L1000.4,698.72L1000.8,698.72L1001.1,698.72L1001.4,698.72L1001.7,698.72L1002,698.73L1002.3,698.73L1002.6,698.73L1003,698.73L1003.3,698.73L1003.6,698.73L1003.9,698.73L1004.2,698.73L1004.5,698.73L1004.8,696.24L1005.1,696.24L1005.5,696.24L1005.8,696.24L1006.1,696.24L1006.4,696.24L1006.7,696.24L1007,696.24L1007.3,696.24L1007.6,696.24L1008,696.24L1008.3,696.24L1008.6,696.24L1008.9,696.24L1009.2,696.24L1009.5,696.24L1009.8,696.24L1010.2,696.24L1010.5,696.24L1010.8,696.24L1011.1,696.24L1011.4,696.24L1011.7,696.24L1012,696.24L1012.3,696.24L1012.7,696.24L1013,696.24L1013.3,696.24L1013.6,696.24L1013.9,696.24L1014.2,696.24L1014.5,696.24L1014.9,696.24L1015.2,696.24L1015.5,696.24L1015.8,696.24L1016.1,696.24L1016.4,696.24L1016.7,696.24L1017,696.29L1017.4,696.29L1017.7,696.29L1018,696.29L1018.3,696.29L1018.6,696.29L1018.9,696.29L1019.2,696.29L1019.6,696.29L1019.9,696.3L1020.2,696.3L1020.5,696.3L1020.8,696.3L1021.1,696.3L1021.4,696.3L1021.7,696.3L1022.1,696.3L1022.4,696.3L1022.7,696.3L1023,696.3L1023.3,696.3L1023.6,696.3L1023.9,696.3L1024.2,696.3L1024.6,696.3L1024.9,696.3L1025.2,696.3L1025.5,696.3L1025.8,696.3L1026.1,696.3L1026.4,696.3L1026.8,696.3L1027.1,696.3L1027.4,696.37L1027.7,697.72L1028,697.72L1028.3,697.72L1028.6,697.72L1028.9,697.72L1029.3,697.72L1029.6,697.72L1029.9,697.72L1030.2,697.72L1030.5,697.72L1030.8,697.72L1031.1,697.72L1031.5,697.72L1031.8,697.72L1032.1,697.72L1032.4,699.06L1032.7,700.22L1033,700.22L1033.3,700.22L1033.6,700.22L1034,700.22L1034.3,700.22L1034.6,700.22L1034.9,700.22L1035.2,700.22L1035.5,700.22L1035.8,700.22L1036.2,700.22L1036.5,700.22L1036.8,700.22L1037.1,700.22L1037.4,700.22L1037.7,700.22L1038,700.22L1038.3,700.22L1038.7,700.22L1039,700.96L1039.3,700.96L1039.6,700.96L1039.9,700.96L1040.2,700.96L1040.5,700.96L1040.8,700.96L1041.2,700.96L1041.5,700.96L1041.8,700.96L1042.1,700.96L1042.4,700.96L1042.7,700.96L1043,700.96L1043.4,700.96L1043.7,700.96L1044,700.96L1044.3,700.96L1044.6,700.96L1044.9,700.96L1045.2,700.96L1045.5,700.96L1045.9,700.96L1046.2,700.96L1046.5,700.96L1046.8,700.96L1047.1,700.96L1047.4,700.96L1047.7,700.96L1048.1,700.96L1048.4,700.96L1048.7,700.96L1049,700.98L1049.3,700.98L1049.6,700.98L1049.9,700.98L1050.2,700.98L1050.6,700.98L1050.9,701.03L1051.2,701.07L1051.5,701.07L1051.8,700.84L1052.1,700.84L1052.4,700.84L1052.8,700.84L1053.1,700.84L1053.4,700.84L1053.7,700.84L1054,700.84L1054.3,700.84L1054.6,700.84L1054.9,700.98L1055.3,700.98L1055.6,700.98L1055.9,700.98L1056.2,700.98L1056.5,700.98L1056.8,700.98L1057.1,700.98L1057.4,700.98L1057.8,700.98L1058.1,700.98L1058.4,700.98L1058.7,701.02L1059,701.02L1059.3,701.02L1059.6,701.02L1060,701.02L1060.3,701.02L1060.6,701.02L1060.9,701.02L1061.2,701.02L1061.5,701.02L1061.8,701.02L1062.1,701.02L1062.5,701.02L1062.8,701.02L1063.1,701.02L1063.4,701.02L1063.7,701.02L1064,701.02L1064.3,701.02L1064.7,701.02L1065,701.02L1065.3,701.02L1065.6,701.28L1065.9,701.28L1066.2,701.28L1066.5,701.28L1066.8,701.28L1067.2,701.28L1067.5,701.28L1067.8,701.28L1068.1,701.28L1068.4,701.28L1068.7,701.28L1069,701.28L1069.4,701.28L1069.7,701.28L1070,701.28L1070.3,701.28L1070.6,701.33L1070.9,701.33L1071.2,701.33L1071.5,701.33L1071.9,701.33L1072.2,701.33L1072.5,701.33L1072.8,701.33L1073.1,701.33L1073.4,701.33L1073.7,701.33L1074,701.33L1074.4,701.33L1074.7,701.33L1075,701.33L1075.3,701.33L1075.6,701.33L1075.9,701.33L1076.2,701.33L1076.6,701.33L1076.9,701.33L1077.2,701.33L1077.5,701.33L1077.8,701.33L1078.1,701.33L1078.4,701.33L1078.7,701.44L1079.1,701.44L1079.4,701.44L1079.7,701.44L1080,701.44" style="fill:none;stroke:#F15A60;stroke-width:1.875" />
<path d="M1055,694.3L1080,694.3" style="fill:none;stroke:#F15A60;stroke-width:1.875" />
<text x="959.12" y="-687.85" transform="scale(1, -1)"
	style="font-family:Helvetica;font-weight:normal;font-style:normal;font-size:12pt">Consul v0.6.4</text>
</g>
</svg>
